<?xml version="1.0" ?>
<svg xmlns="http://www.w3.org/2000/svg" version="1.1" width="224" height="224">
  <defs/>
  <g>
    <path d="M 203.8082733154297 238.26698303222656 C 198.9222412109375 221.70433044433594 195.4694061279297 225.30796813964844 202.1960906982422 228.96463012695312 C 197.03419494628906 232.978515625 178.04733276367188 235.3963165283203 211.45005798339844 226.64669799804688" stroke-width="2.0" fill="none" stroke="rgb(0, 0, 0)" stroke-opacity="1" stroke-linecap="round" stroke-linejoin="round"/>
    <path d="M 120.72651672363281 222.41693115234375 C 143.91061401367188 213.799072265625 137.27935791015625 248.2503204345703 128.80758666992188 275.3399353027344 C 132.26797485351562 235.5763702392578 125.3388900756836 232.0638427734375 135.65362548828125 239.71432495117188 C 131.12969970703125 244.31301879882812 127.44099426269531 241.96559143066406 119.54635620117188 232.55560302734375" stroke-width="2.0" fill="none" stroke="rgb(0, 0, 0)" stroke-opacity="1" stroke-linecap="round" stroke-linejoin="round"/>
    <path d="M 18.469650268554688 155.5193328857422 C 8.491694450378418 195.5244903564453 10.627020835876465 191.6523895263672 -3.816739559173584 167.4224090576172 C -5.333032608032227 217.26812744140625 2.7105460166931152 184.18438720703125 6.667775630950928 182.48086547851562" stroke-width="2.0" fill="none" stroke="rgb(0, 0, 0)" stroke-opacity="1" stroke-linecap="round" stroke-linejoin="round"/>
    <path d="M 53.060096740722656 168.51690673828125 C 37.650367736816406 126.34773254394531 40.38104248046875 150.25930786132812 40.7676887512207 149.63131713867188 C 8.916874885559082 150.67897033691406 -0.5774044394493103 150.4843292236328 -8.8096923828125 140.2377166748047" stroke-width="2.0" fill="none" stroke="rgb(0, 0, 0)" stroke-opacity="1" stroke-linecap="round" stroke-linejoin="round"/>
    <path d="M 167.50796508789062 96.67849731445312 C 209.98728942871094 101.61343383789062 189.8253173828125 86.33609771728516 124.3011703491211 95.93560791015625" stroke-width="2.0" fill="none" stroke="rgb(0, 0, 0)" stroke-opacity="1" stroke-linecap="round" stroke-linejoin="round"/>
    <path d="M 154.74327087402344 73.0228500366211 C 150.83740234375 84.53304290771484 150.8499298095703 77.0947036743164 197.63223266601562 85.68586730957031" stroke-width="2.0" fill="none" stroke="rgb(0, 0, 0)" stroke-opacity="1" stroke-linecap="round" stroke-linejoin="round"/>
    <path d="M 49.5925407409668 159.406982421875 C 98.20085144042969 161.7746124267578 87.78532409667969 160.97044372558594 63.91145324707031 165.3210906982422 C 42.51799774169922 185.45550537109375 84.4349594116211 188.63803100585938 35.14235305786133 185.20266723632812 C 34.275428771972656 177.66256713867188 45.037574768066406 161.15968322753906 35.767398834228516 189.0574493408203" stroke-width="2.0" fill="none" stroke="rgb(0, 0, 0)" stroke-opacity="1" stroke-linecap="round" stroke-linejoin="round"/>
    <path d="M 201.16207885742188 149.87991333007812 C 193.41815185546875 150.76513671875 160.64613342285156 147.10183715820312 167.9757843017578 146.06982421875" stroke-width="2.0" fill="none" stroke="rgb(0, 0, 0)" stroke-opacity="1" stroke-linecap="round" stroke-linejoin="round"/>
    <path d="M 158.7296600341797 181.8677978515625 C 166.49349975585938 156.340087890625 165.22950744628906 122.38727569580078 180.94073486328125 157.27896118164062 C 160.91281127929688 139.013427734375 198.04315185546875 145.3440399169922 176.82073974609375 149.14535522460938" stroke-width="2.0" fill="none" stroke="rgb(0, 0, 0)" stroke-opacity="1" stroke-linecap="round" stroke-linejoin="round"/>
    <path d="M 169.02525329589844 130.65440368652344 C 148.98440551757812 105.71176147460938 117.8572769165039 78.18502807617188 113.99100494384766 109.3795394897461 C 123.0123062133789 88.3990707397461 131.63658142089844 102.6470718383789 143.23085021972656 103.75444793701172" stroke-width="2.0" fill="none" stroke="rgb(0, 0, 0)" stroke-opacity="1" stroke-linecap="round" stroke-linejoin="round"/>
    <path d="M 30.180282592773438 42.717140197753906 C 38.03866958618164 57.9200325012207 36.9228401184082 54.154727935791016 29.73089599609375 62.20359420776367 C 35.27507400512695 69.221435546875 72.71900177001953 64.38077545166016 75.90742492675781 85.03480529785156" stroke-width="2.0" fill="none" stroke="rgb(0, 0, 0)" stroke-opacity="1" stroke-linecap="round" stroke-linejoin="round"/>
    <path d="M 101.43289947509766 186.40155029296875 C 116.40604400634766 196.36383056640625 104.40921020507812 153.47219848632812 96.23802185058594 197.9999542236328 C 87.01103210449219 165.97216796875 101.92018127441406 194.14443969726562 88.68360900878906 190.41995239257812" stroke-width="2.0" fill="none" stroke="rgb(0, 0, 0)" stroke-opacity="1" stroke-linecap="round" stroke-linejoin="round"/>
    <path d="M 14.508380889892578 185.25584411621094 C 38.35597229003906 187.32760620117188 0.2802117168903351 185.90414428710938 -9.08356761932373 183.62400817871094" stroke-width="2.0" fill="none" stroke="rgb(0, 0, 0)" stroke-opacity="1" stroke-linecap="round" stroke-linejoin="round"/>
    <path d="M 105.8592758178711 196.34271240234375 C 130.49722290039062 209.03599548339844 130.64761352539062 198.1515350341797 122.9451904296875 179.08331298828125 C 127.80696105957031 203.4203338623047 129.45225524902344 207.19374084472656 90.99469757080078 210.3633270263672" stroke-width="2.0" fill="none" stroke="rgb(0, 0, 0)" stroke-opacity="1" stroke-linecap="round" stroke-linejoin="round"/>
    <path d="M 202.45407104492188 158.9294891357422 C 227.64254760742188 181.81773376464844 207.5377655029297 182.4371795654297 184.17388916015625 184.18734741210938 C 193.69216918945312 192.55438232421875 185.50286865234375 203.82220458984375 192.5840606689453 180.05990600585938" stroke-width="2.0" fill="none" stroke="rgb(0, 0, 0)" stroke-opacity="1" stroke-linecap="round" stroke-linejoin="round"/>
    <path d="M 61.97351837158203 84.49050903320312 C 65.94257354736328 99.75591278076172 83.8713150024414 89.30274963378906 60.9556884765625 65.41959381103516 C 66.93096923828125 88.25373077392578 64.26224517822266 98.29022216796875 50.46571350097656 96.7188720703125 C 67.17053985595703 80.3296890258789 54.539974212646484 105.86080169677734 45.019649505615234 83.08851623535156" stroke-width="2.0" fill="none" stroke="rgb(0, 0, 0)" stroke-opacity="1" stroke-linecap="round" stroke-linejoin="round"/>
    <path d="M 118.96997833251953 53.67777633666992 C 125.83956146240234 47.574764251708984 86.11759185791016 62.762447357177734 116.09104919433594 62.044551849365234" stroke-width="2.0" fill="none" stroke="rgb(0, 0, 0)" stroke-opacity="1" stroke-linecap="round" stroke-linejoin="round"/>
    <path d="M 188.02955627441406 89.00782012939453 C 173.6337432861328 56.544429779052734 137.0287322998047 67.4720687866211 152.3509063720703 80.25275421142578" stroke-width="2.0" fill="none" stroke="rgb(0, 0, 0)" stroke-opacity="1" stroke-linecap="round" stroke-linejoin="round"/>
    <path d="M 63.50407409667969 203.8108367919922 C 52.42416763305664 204.25575256347656 50.31574630737305 198.42520141601562 61.797672271728516 226.3286590576172 C 75.7589340209961 195.45657348632812 68.92072296142578 216.25149536132812 71.18821716308594 211.97091674804688" stroke-width="2.0" fill="none" stroke="rgb(0, 0, 0)" stroke-opacity="1" stroke-linecap="round" stroke-linejoin="round"/>
    <path d="M 88.00104522705078 77.33721923828125 C 90.33667755126953 92.748291015625 56.32526779174805 80.9887924194336 92.20252990722656 93.22261047363281 C 77.59224700927734 80.22985076904297 96.78266143798828 84.69977569580078 86.72916412353516 112.87254333496094 C 87.27755737304688 87.61429595947266 74.42304992675781 84.12774658203125 90.78324127197266 79.8016128540039" stroke-width="2.0" fill="none" stroke="rgb(0, 0, 0)" stroke-opacity="1" stroke-linecap="round" stroke-linejoin="round"/>
    <path d="M 159.02468872070312 -9.75137710571289 C 183.30088806152344 -12.031756401062012 181.95907592773438 -2.555622100830078 169.66256713867188 -3.4123406410217285" stroke-width="2.0" fill="none" stroke="rgb(0, 0, 0)" stroke-opacity="1" stroke-linecap="round" stroke-linejoin="round"/>
    <path d="M 153.98643493652344 14.015954971313477 C 151.1664581298828 52.53219223022461 151.73541259765625 53.65351104736328 155.1278839111328 39.20380783081055 C 166.11387634277344 -7.1804094314575195 181.3970489501953 -4.367222785949707 156.22650146484375 -0.7542423605918884" stroke-width="2.0" fill="none" stroke="rgb(0, 0, 0)" stroke-opacity="1" stroke-linecap="round" stroke-linejoin="round"/>
    <path d="M 74.53787994384766 203.39222717285156 C 108.74105072021484 216.5631866455078 105.02093505859375 212.19549560546875 102.68596649169922 235.15396118164062 C 106.49996948242188 236.27151489257812 104.468505859375 237.6614990234375 101.99394989013672 240.81956481933594 C 82.51570129394531 239.6444549560547 77.33817291259766 241.39088439941406 73.3353500366211 192.39968872070312" stroke-width="2.0" fill="none" stroke="rgb(0, 0, 0)" stroke-opacity="1" stroke-linecap="round" stroke-linejoin="round"/>
    <path d="M 187.57528686523438 37.91172409057617 C 162.88238525390625 58.91102981567383 160.85939025878906 74.96259307861328 161.78221130371094 63.25390625" stroke-width="2.0" fill="none" stroke="rgb(0, 0, 0)" stroke-opacity="1" stroke-linecap="round" stroke-linejoin="round"/>
    <path d="M 86.21528625488281 26.935659408569336 C 67.1987075805664 27.24134635925293 70.99397277832031 31.5402774810791 92.12290954589844 29.207868576049805" stroke-width="2.0" fill="none" stroke="rgb(0, 0, 0)" stroke-opacity="1" stroke-linecap="round" stroke-linejoin="round"/>
    <path d="M 17.29326057434082 39.220211029052734 C 12.997457504272461 29.781095504760742 12.364264488220215 33.774349212646484 69.06143951416016 30.27953338623047 C 34.13599395751953 34.98396682739258 38.95496368408203 24.79092788696289 48.68455505371094 30.48693084716797 C 78.70902252197266 30.8850154876709 77.15496063232422 19.366653442382812 64.27400207519531 13.458988189697266" stroke-width="2.0" fill="none" stroke="rgb(0, 0, 0)" stroke-opacity="1" stroke-linecap="round" stroke-linejoin="round"/>
    <path d="M 43.080078125 166.48736572265625 C 96.76863098144531 164.97630310058594 84.58394622802734 159.39584350585938 78.0850830078125 177.5642547607422 C 85.75666046142578 171.91001892089844 73.6693344116211 213.80703735351562 101.73410034179688 206.33912658691406" stroke-width="2.0" fill="none" stroke="rgb(0, 0, 0)" stroke-opacity="1" stroke-linecap="round" stroke-linejoin="round"/>
    <path d="M 230.3457794189453 113.61927032470703 C 221.54632568359375 114.8281478881836 230.8447265625 113.40770721435547 241.1826171875 121.15316772460938" stroke-width="2.0" fill="none" stroke="rgb(0, 0, 0)" stroke-opacity="1" stroke-linecap="round" stroke-linejoin="round"/>
    <path d="M 143.25453186035156 176.6445770263672 C 89.1629409790039 179.0219268798828 72.63894653320312 174.8837890625 115.86181640625 178.8122100830078 C 91.9913101196289 176.87623596191406 73.4515151977539 182.7482147216797 96.16165161132812 172.33514404296875 C 83.1689224243164 173.05856323242188 71.04654693603516 178.01101684570312 111.12073516845703 172.1429901123047" stroke-width="2.0" fill="none" stroke="rgb(0, 0, 0)" stroke-opacity="1" stroke-linecap="round" stroke-linejoin="round"/>
    <path d="M 155.45590209960938 78.66494750976562 C 163.4105682373047 55.90522003173828 158.37664794921875 71.56463623046875 153.4141387939453 64.8820571899414 C 146.71560668945312 89.8154067993164 154.8138427734375 82.00198364257812 187.066650390625 78.53990173339844 C 201.44293212890625 101.30862426757812 198.86276245117188 87.20436096191406 197.37234497070312 130.0083465576172" stroke-width="2.0" fill="none" stroke="rgb(0, 0, 0)" stroke-opacity="1" stroke-linecap="round" stroke-linejoin="round"/>
    <path d="M 105.0552749633789 103.38302612304688 C 104.63616180419922 89.7753677368164 109.20848083496094 97.96788024902344 85.17081451416016 93.46842193603516" stroke-width="2.0" fill="none" stroke="rgb(0, 0, 0)" stroke-opacity="1" stroke-linecap="round" stroke-linejoin="round"/>
    <path d="M 149.3485107421875 206.44122314453125 C 132.7362060546875 226.65867614746094 123.05738830566406 223.54183959960938 119.14754486083984 223.22683715820312 C 116.22509002685547 240.00294494628906 90.52679443359375 220.2904052734375 89.43313598632812 233.99073791503906" stroke-width="2.0" fill="none" stroke="rgb(0, 0, 0)" stroke-opacity="1" stroke-linecap="round" stroke-linejoin="round"/>
    <path d="M 84.60164642333984 179.0022735595703 C 93.21636199951172 177.42481994628906 99.50651550292969 173.14700317382812 100.24296569824219 184.9281005859375 C 96.3265380859375 165.88462829589844 68.69670104980469 174.5578155517578 94.22526550292969 171.89849853515625 C 86.80812072753906 120.1707534790039 96.869384765625 141.46218872070312 95.65032958984375 140.651611328125" stroke-width="2.0" fill="none" stroke="rgb(0, 0, 0)" stroke-opacity="1" stroke-linecap="round" stroke-linejoin="round"/>
    <path d="M 148.36524963378906 158.20004272460938 C 133.599609375 156.7115478515625 130.68898010253906 179.73805236816406 140.22348022460938 179.48158264160156 C 133.10414123535156 176.34805297851562 121.81327056884766 174.47384643554688 114.2266616821289 156.04844665527344" stroke-width="2.0" fill="none" stroke="rgb(0, 0, 0)" stroke-opacity="1" stroke-linecap="round" stroke-linejoin="round"/>
    <path d="M 201.50267028808594 96.0697021484375 C 228.30824279785156 56.13532638549805 213.6145782470703 63.207611083984375 176.59310913085938 72.22822570800781" stroke-width="2.0" fill="none" stroke="rgb(0, 0, 0)" stroke-opacity="1" stroke-linecap="round" stroke-linejoin="round"/>
    <path d="M 143.43360900878906 198.44700622558594 C 172.17413330078125 204.54994201660156 168.1147003173828 196.9539794921875 170.6363067626953 172.69036865234375" stroke-width="2.0" fill="none" stroke="rgb(0, 0, 0)" stroke-opacity="1" stroke-linecap="round" stroke-linejoin="round"/>
    <path d="M 193.76756286621094 175.58786010742188 C 198.79556274414062 144.65757751464844 210.6737060546875 145.88986206054688 197.72767639160156 191.39720153808594 C 189.98536682128906 156.2345428466797 193.59017944335938 166.98597717285156 188.53318786621094 142.00051879882812" stroke-width="2.0" fill="none" stroke="rgb(0, 0, 0)" stroke-opacity="1" stroke-linecap="round" stroke-linejoin="round"/>
    <path d="M 89.85160064697266 157.14402770996094 C 96.46485900878906 131.61306762695312 106.10931396484375 147.6307373046875 100.97105407714844 170.52590942382812 C 100.11678314208984 166.73374938964844 103.5888900756836 136.67503356933594 104.07403564453125 143.36363220214844" stroke-width="2.0" fill="none" stroke="rgb(0, 0, 0)" stroke-opacity="1" stroke-linecap="round" stroke-linejoin="round"/>
    <path d="M 118.2324447631836 15.447152137756348 C 132.40963745117188 33.520999908447266 121.73979949951172 49.19569778442383 128.44842529296875 45.37186050415039 C 123.43492889404297 -7.258094787597656 121.6025161743164 14.650182723999023 159.543212890625 3.6857941150665283 C 147.61219787597656 5.27061128616333 156.69195556640625 9.860093116760254 187.0163116455078 -1.3459609746932983" stroke-width="2.0" fill="none" stroke="rgb(0, 0, 0)" stroke-opacity="1" stroke-linecap="round" stroke-linejoin="round"/>
    <path d="M 66.30642700195312 60.28268814086914 C 69.43433380126953 113.64043426513672 82.37301635742188 122.50007629394531 72.76026916503906 114.40235900878906 C 48.81901550292969 94.79316711425781 70.41088104248047 75.18705749511719 51.17147445678711 80.23948669433594" stroke-width="2.0" fill="none" stroke="rgb(0, 0, 0)" stroke-opacity="1" stroke-linecap="round" stroke-linejoin="round"/>
    <path d="M 101.95582580566406 210.59832763671875 C 102.96482849121094 227.25840759277344 102.76426696777344 237.37109375 103.78710174560547 231.3365020751953 C 112.05961608886719 249.3853759765625 100.9369888305664 243.0643768310547 93.80501556396484 246.05043029785156 C 103.05712890625 242.16412353515625 104.38489532470703 233.20870971679688 112.28522491455078 242.989990234375" stroke-width="2.0" fill="none" stroke="rgb(0, 0, 0)" stroke-opacity="1" stroke-linecap="round" stroke-linejoin="round"/>
    <path d="M 202.44593811035156 23.68836784362793 C 181.05455017089844 55.19072341918945 200.443603515625 25.83627700805664 199.06076049804688 50.14246368408203" stroke-width="2.0" fill="none" stroke="rgb(0, 0, 0)" stroke-opacity="1" stroke-linecap="round" stroke-linejoin="round"/>
    <path d="M 165.05813598632812 119.99613189697266 C 165.9949951171875 101.41537475585938 181.34292602539062 113.19386291503906 162.63084411621094 107.58970642089844 C 164.60198974609375 119.36559295654297 200.3414764404297 123.60857391357422 183.5446014404297 98.88915252685547 C 160.8819122314453 115.54595947265625 180.15199279785156 107.47901153564453 168.83123779296875 125.15731811523438" stroke-width="2.0" fill="none" stroke="rgb(0, 0, 0)" stroke-opacity="1" stroke-linecap="round" stroke-linejoin="round"/>
    <path d="M 60.28298568725586 143.90879821777344 C 68.59671020507812 124.96472930908203 57.5179328918457 129.3218994140625 57.923736572265625 154.21836853027344 C 60.0482292175293 91.40887451171875 54.74872589111328 107.71448516845703 58.3596305847168 124.49198913574219" stroke-width="2.0" fill="none" stroke="rgb(0, 0, 0)" stroke-opacity="1" stroke-linecap="round" stroke-linejoin="round"/>
    <path d="M 40.721031188964844 18.92647361755371 C -1.6520817279815674 -3.987178087234497 1.3495073318481445 -17.037845611572266 46.65797424316406 13.712120056152344 C 39.55146408081055 20.15217399597168 21.6484317779541 34.06327438354492 15.878084182739258 52.055660247802734" stroke-width="2.0" fill="none" stroke="rgb(0, 0, 0)" stroke-opacity="1" stroke-linecap="round" stroke-linejoin="round"/>
    <path d="M 220.53933715820312 59.15735626220703 C 226.1365203857422 28.944055557250977 181.55418395996094 3.4684500694274902 206.9990234375 32.53917694091797 C 209.57281494140625 55.28524398803711 179.0009307861328 57.25394058227539 203.51121520996094 44.7646598815918 C 156.9814453125 47.423484802246094 182.6595458984375 51.963191986083984 176.08633422851562 21.94007682800293" stroke-width="2.0" fill="none" stroke="rgb(0, 0, 0)" stroke-opacity="1" stroke-linecap="round" stroke-linejoin="round"/>
    <path d="M 76.58734893798828 67.25962829589844 C 59.329654693603516 58.4459342956543 79.50858306884766 46.95218276977539 72.6573486328125 70.43412780761719 C 49.052001953125 76.77230072021484 63.708709716796875 80.46197509765625 90.28628540039062 70.64543151855469" stroke-width="2.0" fill="none" stroke="rgb(0, 0, 0)" stroke-opacity="1" stroke-linecap="round" stroke-linejoin="round"/>
    <path d="M 88.03423309326172 215.90455627441406 C 89.50543975830078 207.8363800048828 82.91470336914062 213.7965087890625 125.1002197265625 209.0407257080078 C 135.77255249023438 200.1367645263672 102.05779266357422 186.5449676513672 106.2682113647461 226.4736328125 C 110.8771743774414 225.63800048828125 98.57183074951172 224.694091796875 93.26995849609375 241.21014404296875" stroke-width="2.0" fill="none" stroke="rgb(0, 0, 0)" stroke-opacity="1" stroke-linecap="round" stroke-linejoin="round"/>
    <path d="M 95.07730102539062 137.71241760253906 C 72.2572250366211 119.58636474609375 61.717227935791016 98.79166412353516 57.81026840209961 102.23204803466797 C 56.21146011352539 73.82852935791016 63.58574676513672 121.29756164550781 78.72393035888672 112.43309020996094 C 87.95630645751953 98.31593322753906 43.5875244140625 104.09368896484375 29.321828842163086 92.72663116455078" stroke-width="2.0" fill="none" stroke="rgb(0, 0, 0)" stroke-opacity="1" stroke-linecap="round" stroke-linejoin="round"/>
    <path d="M 67.71328735351562 27.110023498535156 C 57.54417037963867 12.53409481048584 70.7956771850586 -7.928127765655518 70.34701538085938 -3.9089343547821045 C 63.509521484375 5.5477519035339355 60.39142608642578 1.3315191268920898 92.50233459472656 3.802008867263794" stroke-width="2.0" fill="none" stroke="rgb(0, 0, 0)" stroke-opacity="1" stroke-linecap="round" stroke-linejoin="round"/>
    <path d="M 161.50143432617188 138.5607452392578 C 169.21006774902344 152.90956115722656 161.95057678222656 128.13267517089844 170.17547607421875 132.6548309326172 C 134.3191680908203 151.1891326904297 119.81639862060547 167.5221405029297 123.7310562133789 156.0028533935547 C 114.35504150390625 186.88107299804688 90.15177154541016 134.40525817871094 116.24728393554688 162.7230987548828" stroke-width="2.0" fill="none" stroke="rgb(0, 0, 0)" stroke-opacity="1" stroke-linecap="round" stroke-linejoin="round"/>
    <path d="M 46.24223709106445 185.1011962890625 C 42.943111419677734 119.67156982421875 45.44944381713867 131.80902099609375 46.24890899658203 129.76992797851562" stroke-width="2.0" fill="none" stroke="rgb(0, 0, 0)" stroke-opacity="1" stroke-linecap="round" stroke-linejoin="round"/>
    <path d="M 86.27687072753906 83.6881103515625 C 84.17571258544922 69.33993530273438 100.09210205078125 77.14112091064453 86.41275024414062 78.15758514404297 C 121.18649291992188 89.65777587890625 101.89688110351562 74.6506576538086 110.60210418701172 103.82498168945312 C 80.19432067871094 104.80485534667969 96.1761703491211 102.81883239746094 88.09880065917969 76.54548645019531" stroke-width="2.0" fill="none" stroke="rgb(0, 0, 0)" stroke-opacity="1" stroke-linecap="round" stroke-linejoin="round"/>
    <path d="M 153.7946319580078 81.07450866699219 C 160.3443603515625 72.10301208496094 147.3113250732422 74.93059539794922 160.36416625976562 60.666378021240234 C 171.00831604003906 95.53192138671875 123.80315399169922 67.5202407836914 142.2644805908203 87.83151245117188 C 130.97377014160156 91.99495697021484 143.52310180664062 79.43003845214844 129.697265625 77.86776733398438" stroke-width="2.0" fill="none" stroke="rgb(0, 0, 0)" stroke-opacity="1" stroke-linecap="round" stroke-linejoin="round"/>
    <path d="M 128.5374298095703 25.114768981933594 C 111.68929290771484 32.385501861572266 88.24223327636719 13.470070838928223 142.6411895751953 4.062341690063477 C 189.4356689453125 -4.750104904174805 137.14144897460938 -8.830597877502441 116.64958190917969 -9.881559371948242 C 183.48365783691406 7.352111339569092 205.67604064941406 1.6094028949737549 158.5550079345703 -18.1075496673584" stroke-width="2.0" fill="none" stroke="rgb(0, 0, 0)" stroke-opacity="1" stroke-linecap="round" stroke-linejoin="round"/>
    <path d="M 74.9359359741211 94.47632598876953 C 78.37049865722656 56.36951446533203 68.79660034179688 86.17802429199219 70.77973175048828 57.85661697387695" stroke-width="2.0" fill="none" stroke="rgb(0, 0, 0)" stroke-opacity="1" stroke-linecap="round" stroke-linejoin="round"/>
    <path d="M 37.107666015625 44.69804382324219 C 35.95280075073242 87.47859191894531 44.07180404663086 82.50589752197266 19.924707412719727 39.97901916503906 C 32.945674896240234 43.38032150268555 39.52350997924805 70.86056518554688 30.20343780517578 73.69979858398438 C 42.12395477294922 57.448089599609375 35.89850997924805 47.10956573486328 25.157835006713867 39.37368392944336" stroke-width="2.0" fill="none" stroke="rgb(0, 0, 0)" stroke-opacity="1" stroke-linecap="round" stroke-linejoin="round"/>
    <path d="M 225.709716796875 19.780120849609375 C 220.53897094726562 28.725584030151367 222.15826416015625 49.933509826660156 229.46554565429688 59.11538314819336" stroke-width="2.0" fill="none" stroke="rgb(0, 0, 0)" stroke-opacity="1" stroke-linecap="round" stroke-linejoin="round"/>
    <path d="M 191.76087951660156 183.1645050048828 C 197.79444885253906 158.00743103027344 183.04592895507812 181.6909942626953 186.95672607421875 147.65028381347656 C 201.20474243164062 171.4878692626953 179.99623107910156 184.53489685058594 203.8431854248047 173.38128662109375" stroke-width="2.0" fill="none" stroke="rgb(0, 0, 0)" stroke-opacity="1" stroke-linecap="round" stroke-linejoin="round"/>
    <path d="M 17.5787353515625 67.35387420654297 C -1.6898082494735718 29.217113494873047 12.320813179016113 17.12566375732422 32.292171478271484 46.00556182861328 C 34.582740783691406 47.4061164855957 24.04892921447754 31.121442794799805 23.723981857299805 61.62129592895508 C 51.08683395385742 34.13151550292969 62.0479850769043 58.71878433227539 50.16769790649414 36.913291931152344" stroke-width="2.0" fill="none" stroke="rgb(0, 0, 0)" stroke-opacity="1" stroke-linecap="round" stroke-linejoin="round"/>
    <path d="M 106.11366271972656 39.690982818603516 C 109.03089141845703 21.1512508392334 112.72535705566406 14.691583633422852 126.86383819580078 14.037576675415039" stroke-width="2.0" fill="none" stroke="rgb(0, 0, 0)" stroke-opacity="1" stroke-linecap="round" stroke-linejoin="round"/>
    <path d="M 113.42289733886719 31.256532669067383 C 109.35272216796875 18.401050567626953 149.57347106933594 18.22494888305664 111.27989959716797 23.734676361083984 C 105.92230987548828 20.7930850982666 136.0159912109375 11.654196739196777 123.7448959350586 12.474518775939941" stroke-width="2.0" fill="none" stroke="rgb(0, 0, 0)" stroke-opacity="1" stroke-linecap="round" stroke-linejoin="round"/>
    <path d="M 100.93181610107422 143.92742919921875 C 104.04601287841797 161.51278686523438 120.30928802490234 177.69674682617188 99.2358169555664 160.71556091308594 C 101.6197738647461 172.42431640625 118.70369720458984 175.25778198242188 110.12162017822266 156.1014404296875 C 99.4659652709961 176.3936309814453 100.4825668334961 174.6866455078125 128.48789978027344 170.0115203857422" stroke-width="2.0" fill="none" stroke="rgb(0, 0, 0)" stroke-opacity="1" stroke-linecap="round" stroke-linejoin="round"/>
    <path d="M 88.24735260009766 26.409090042114258 C 71.43061828613281 10.119234085083008 71.05105590820312 18.287425994873047 82.99058532714844 50.838096618652344 C 69.65005493164062 25.972373962402344 86.02537536621094 34.27543640136719 97.98023986816406 5.103371620178223 C 33.243526458740234 4.982143878936768 29.94259262084961 -2.1941263675689697 70.02656555175781 6.141880989074707" stroke-width="2.0" fill="none" stroke="rgb(0, 0, 0)" stroke-opacity="1" stroke-linecap="round" stroke-linejoin="round"/>
    <path d="M 40.738243103027344 62.515811920166016 C 24.96747589111328 67.38416290283203 26.609487533569336 55.01980209350586 28.12984275817871 72.0584945678711" stroke-width="2.0" fill="none" stroke="rgb(0, 0, 0)" stroke-opacity="1" stroke-linecap="round" stroke-linejoin="round"/>
    <path d="M 187.26666259765625 85.10673522949219 C 197.44287109375 91.47624969482422 166.60548400878906 86.94071960449219 136.3767852783203 91.04141235351562 C 123.65775299072266 84.61590576171875 152.65879821777344 131.6428680419922 147.37649536132812 98.6395034790039 C 174.6688995361328 94.59687805175781 158.08108520507812 118.13805389404297 175.8925323486328 133.6004638671875" stroke-width="2.0" fill="none" stroke="rgb(0, 0, 0)" stroke-opacity="1" stroke-linecap="round" stroke-linejoin="round"/>
    <path d="M 231.07469177246094 143.74876403808594 C 221.23680114746094 146.57321166992188 226.33236694335938 143.1951446533203 232.85792541503906 147.4930877685547" stroke-width="2.0" fill="none" stroke="rgb(0, 0, 0)" stroke-opacity="1" stroke-linecap="round" stroke-linejoin="round"/>
    <path d="M 137.5162811279297 37.867889404296875 C 132.10377502441406 6.718286037445068 138.48907470703125 42.37556838989258 131.94338989257812 26.573833465576172 C 132.37425231933594 76.07630920410156 137.85130310058594 32.644981384277344 138.6055145263672 19.229305267333984 C 145.72735595703125 13.719609260559082 150.60035705566406 52.96925735473633 146.441650390625 11.359844207763672" stroke-width="2.0" fill="none" stroke="rgb(0, 0, 0)" stroke-opacity="1" stroke-linecap="round" stroke-linejoin="round"/>
    <path d="M 107.27044677734375 208.2156524658203 C 137.27125549316406 204.6239013671875 130.13626098632812 209.88050842285156 101.31227111816406 198.1525115966797 C 117.84783935546875 202.74302673339844 113.29035186767578 195.1787872314453 115.95169067382812 235.60797119140625 C 123.68104553222656 235.60116577148438 122.95922088623047 245.37525939941406 128.67361450195312 248.82676696777344" stroke-width="2.0" fill="none" stroke="rgb(0, 0, 0)" stroke-opacity="1" stroke-linecap="round" stroke-linejoin="round"/>
    <path d="M -3.5619843006134033 22.747102737426758 C -10.561504364013672 47.87617111206055 -0.7471984028816223 53.23259353637695 12.616945266723633 36.32648468017578 C 8.099571228027344 48.246498107910156 20.92298698425293 41.647403717041016 34.37590026855469 73.95014953613281" stroke-width="2.0" fill="none" stroke="rgb(0, 0, 0)" stroke-opacity="1" stroke-linecap="round" stroke-linejoin="round"/>
    <path d="M 221.68295288085938 234.33856201171875 C 231.49526977539062 229.32672119140625 213.4263458251953 220.00367736816406 207.4732666015625 193.01528930664062 C 197.44210815429688 191.54290771484375 215.17990112304688 199.41903686523438 226.52711486816406 216.32293701171875 C 196.8360137939453 191.96986389160156 228.34197998046875 198.3300018310547 193.7375946044922 226.7456817626953" stroke-width="2.0" fill="none" stroke="rgb(0, 0, 0)" stroke-opacity="1" stroke-linecap="round" stroke-linejoin="round"/>
    <path d="M 110.98700714111328 19.403491973876953 C 109.4691162109375 23.389047622680664 111.82228088378906 22.35906219482422 138.78904724121094 20.857370376586914 C 150.8575439453125 1.1379743814468384 104.52833557128906 12.497980117797852 115.00535583496094 49.13429641723633 C 105.7070083618164 34.868324279785156 110.9048843383789 19.281835556030273 159.80667114257812 19.238250732421875" stroke-width="2.0" fill="none" stroke="rgb(0, 0, 0)" stroke-opacity="1" stroke-linecap="round" stroke-linejoin="round"/>
    <path d="M -0.7708988785743713 46.73061752319336 C 36.73936462402344 52.457027435302734 34.678409576416016 46.93132781982422 19.189332962036133 39.1848258972168 C 35.15254592895508 22.85631561279297 -1.073722004890442 29.27434539794922 -24.16473960876465 21.997175216674805" stroke-width="2.0" fill="none" stroke="rgb(0, 0, 0)" stroke-opacity="1" stroke-linecap="round" stroke-linejoin="round"/>
    <path d="M 61.00291061401367 225.6148223876953 C 43.96242141723633 228.95948791503906 52.27901840209961 237.55679321289062 25.844207763671875 232.49612426757812" stroke-width="2.0" fill="none" stroke="rgb(0, 0, 0)" stroke-opacity="1" stroke-linecap="round" stroke-linejoin="round"/>
    <path d="M 181.68893432617188 74.64169311523438 C 187.48178100585938 89.11721801757812 170.03390502929688 93.38430786132812 189.5919647216797 100.68651580810547" stroke-width="2.0" fill="none" stroke="rgb(0, 0, 0)" stroke-opacity="1" stroke-linecap="round" stroke-linejoin="round"/>
    <path d="M 191.71360778808594 153.218505859375 C 152.97247314453125 147.17481994628906 176.56182861328125 154.28956604003906 190.9744873046875 163.51144409179688 C 202.41957092285156 128.12615966796875 221.67919921875 118.74293518066406 216.84580993652344 117.78397369384766" stroke-width="2.0" fill="none" stroke="rgb(0, 0, 0)" stroke-opacity="1" stroke-linecap="round" stroke-linejoin="round"/>
    <path d="M 209.16204833984375 30.214929580688477 C 221.7759552001953 62.482200622558594 195.27444458007812 73.10359954833984 192.53955078125 47.787418365478516" stroke-width="2.0" fill="none" stroke="rgb(0, 0, 0)" stroke-opacity="1" stroke-linecap="round" stroke-linejoin="round"/>
    <path d="M 117.76414489746094 151.74659729003906 C 135.68495178222656 122.23868560791016 141.03395080566406 165.41575622558594 113.64480590820312 167.25489807128906 C 129.86895751953125 169.97491455078125 138.66171264648438 167.03433227539062 111.26434326171875 164.11532592773438" stroke-width="2.0" fill="none" stroke="rgb(0, 0, 0)" stroke-opacity="1" stroke-linecap="round" stroke-linejoin="round"/>
    <path d="M 54.01077651977539 137.99229431152344 C 61.363529205322266 126.41503143310547 33.423423767089844 137.9628143310547 71.18669891357422 138.79498291015625" stroke-width="2.0" fill="none" stroke="rgb(0, 0, 0)" stroke-opacity="1" stroke-linecap="round" stroke-linejoin="round"/>
    <path d="M 136.31622314453125 40.782073974609375 C 117.20903015136719 38.348121643066406 150.96804809570312 53.23468780517578 141.62539672851562 22.117677688598633 C 142.86068725585938 40.47701644897461 136.86746215820312 51.12933349609375 168.681884765625 41.14449691772461 C 123.3736572265625 39.54005813598633 157.78140258789062 28.881816864013672 144.38124084472656 42.374366760253906" stroke-width="2.0" fill="none" stroke="rgb(0, 0, 0)" stroke-opacity="1" stroke-linecap="round" stroke-linejoin="round"/>
    <path d="M -3.2261264324188232 77.8997573852539 C -8.122771263122559 76.60367584228516 -9.25234603881836 78.9309310913086 -12.964007377624512 102.9242172241211 C -3.0295298099517822 89.9146728515625 10.958723068237305 65.3331527709961 -0.4149225056171417 75.32416534423828 C 1.3567907810211182 81.71339416503906 29.854061126708984 80.25624084472656 16.913122177124023 70.73436737060547" stroke-width="2.0" fill="none" stroke="rgb(0, 0, 0)" stroke-opacity="1" stroke-linecap="round" stroke-linejoin="round"/>
    <path d="M 22.13429069519043 85.62308502197266 C 11.854448318481445 84.01116180419922 22.67505645751953 133.78173828125 22.55280303955078 84.83430480957031 C 1.995403528213501 73.08991241455078 0.47417134046554565 120.74211883544922 8.927895545959473 135.27978515625" stroke-width="2.0" fill="none" stroke="rgb(0, 0, 0)" stroke-opacity="1" stroke-linecap="round" stroke-linejoin="round"/>
    <path d="M 21.89864730834961 -3.568166732788086 C 17.080530166625977 38.45270538330078 13.061640739440918 40.58478546142578 -7.088696002960205 32.46687316894531 C 28.78069305419922 17.571258544921875 33.034278869628906 34.227542877197266 13.805291175842285 44.0828857421875 C -8.907864570617676 39.141849517822266 -14.83171272277832 37.08318328857422 25.512460708618164 34.47901153564453" stroke-width="2.0" fill="none" stroke="rgb(0, 0, 0)" stroke-opacity="1" stroke-linecap="round" stroke-linejoin="round"/>
    <path d="M -8.472549438476562 12.409128189086914 C -6.709342956542969 -3.716510534286499 -3.5269458293914795 -5.276642799377441 -3.882244348526001 11.423748970031738 C 15.408930778503418 3.568713426589966 11.399882316589355 -17.42784881591797 -12.696078300476074 -8.725143432617188 C 18.37659454345703 -4.918892860412598 23.15352439880371 -13.759431838989258 32.910404205322266 -6.762575626373291" stroke-width="2.0" fill="none" stroke="rgb(0, 0, 0)" stroke-opacity="1" stroke-linecap="round" stroke-linejoin="round"/>
    <path d="M 216.20033264160156 117.90479278564453 C 184.46890258789062 150.43023681640625 180.0468292236328 149.81021118164062 169.5760040283203 119.99656677246094 C 172.3433837890625 135.11465454101562 188.57830810546875 129.4023895263672 180.73716735839844 117.34275817871094 C 195.81655883789062 72.15870666503906 164.00296020507812 82.87820434570312 159.6104736328125 116.34909057617188" stroke-width="2.0" fill="none" stroke="rgb(0, 0, 0)" stroke-opacity="1" stroke-linecap="round" stroke-linejoin="round"/>
    <path d="M 28.092058181762695 111.69709777832031 C 76.4300308227539 95.17359161376953 44.446533203125 123.21785736083984 52.730201721191406 107.14360809326172 C 56.36427688598633 114.64124298095703 67.8070068359375 160.2051544189453 68.7285385131836 140.0093536376953 C 47.7288818359375 130.66015625 43.53983688354492 152.92283630371094 49.560420989990234 112.86245727539062" stroke-width="2.0" fill="none" stroke="rgb(0, 0, 0)" stroke-opacity="1" stroke-linecap="round" stroke-linejoin="round"/>
    <path d="M 109.74817657470703 123.42971801757812 C 126.21293640136719 108.28617095947266 132.5484161376953 86.16636657714844 116.07012176513672 112.18099212646484 C 87.14435577392578 111.84217071533203 78.8492431640625 113.9252700805664 86.94729614257812 91.33647918701172" stroke-width="2.0" fill="none" stroke="rgb(0, 0, 0)" stroke-opacity="1" stroke-linecap="round" stroke-linejoin="round"/>
    <path d="M 25.484088897705078 75.6814956665039 C 93.79876708984375 80.35594940185547 84.89408111572266 50.18110275268555 58.971797943115234 73.19833374023438 C 64.73258209228516 54.40953826904297 43.512760162353516 89.19959259033203 48.109413146972656 96.80167388916016" stroke-width="2.0" fill="none" stroke="rgb(0, 0, 0)" stroke-opacity="1" stroke-linecap="round" stroke-linejoin="round"/>
    <path d="M 70.49991607666016 74.51993560791016 C 40.10824966430664 30.502225875854492 69.64553833007812 86.53617095947266 51.74742889404297 69.62162780761719" stroke-width="2.0" fill="none" stroke="rgb(0, 0, 0)" stroke-opacity="1" stroke-linecap="round" stroke-linejoin="round"/>
    <path d="M 145.800537109375 69.37676239013672 C 176.90577697753906 56.97526168823242 149.82923889160156 76.64927673339844 159.81434631347656 75.83503723144531 C 170.88140869140625 35.49233627319336 165.33460998535156 62.36334228515625 155.9299774169922 79.69255828857422 C 151.17074584960938 42.8543815612793 143.1181182861328 57.94914627075195 150.7034149169922 35.38467025756836" stroke-width="2.0" fill="none" stroke="rgb(0, 0, 0)" stroke-opacity="1" stroke-linecap="round" stroke-linejoin="round"/>
    <path d="M 22.871400833129883 7.786685943603516 C 28.499942779541016 -22.507652282714844 46.86794662475586 -11.141789436340332 47.15528869628906 11.758563041687012 C 67.44391632080078 36.131019592285156 63.545318603515625 30.325721740722656 40.40465545654297 28.91664695739746 C 74.95455932617188 3.0059714317321777 74.0339584350586 -16.27898597717285 66.6209487915039 -28.56924057006836" stroke-width="2.0" fill="none" stroke="rgb(0, 0, 0)" stroke-opacity="1" stroke-linecap="round" stroke-linejoin="round"/>
    <path d="M 36.72792053222656 161.22372436523438 C 65.74678802490234 163.5941925048828 31.752532958984375 168.64588928222656 48.512969970703125 190.01766967773438 C 22.704389572143555 176.64891052246094 35.65022659301758 213.0641632080078 40.55055236816406 171.75196838378906" stroke-width="2.0" fill="none" stroke="rgb(0, 0, 0)" stroke-opacity="1" stroke-linecap="round" stroke-linejoin="round"/>
    <path d="M -0.779837429523468 52.30900955200195 C 7.316375255584717 39.018394470214844 39.364646911621094 23.965614318847656 41.1075325012207 52.50997543334961 C 15.106645584106445 31.83013916015625 9.503588676452637 42.23352813720703 9.465372085571289 50.93817901611328" stroke-width="2.0" fill="none" stroke="rgb(0, 0, 0)" stroke-opacity="1" stroke-linecap="round" stroke-linejoin="round"/>
    <path d="M 29.09150505065918 88.05351257324219 C 29.735300064086914 112.81298065185547 -1.910308599472046 73.54165649414062 62.24945068359375 81.13113403320312" stroke-width="2.0" fill="none" stroke="rgb(0, 0, 0)" stroke-opacity="1" stroke-linecap="round" stroke-linejoin="round"/>
    <path d="M 176.2172393798828 155.83981323242188 C 175.88510131835938 172.0205535888672 190.52151489257812 187.30250549316406 193.4368896484375 145.40960693359375 C 183.48094177246094 190.5249786376953 182.55874633789062 169.14537048339844 202.27761840820312 176.59280395507812 C 213.1596221923828 143.21115112304688 182.005859375 155.38705444335938 179.52870178222656 168.6019744873047" stroke-width="2.0" fill="none" stroke="rgb(0, 0, 0)" stroke-opacity="1" stroke-linecap="round" stroke-linejoin="round"/>
    <path d="M 158.61697387695312 71.46713256835938 C 161.78257751464844 58.23797607421875 173.70530700683594 42.69230651855469 160.23524475097656 61.292518615722656 C 176.70431518554688 46.97287368774414 179.3964080810547 46.77206802368164 145.6446075439453 47.8958740234375" stroke-width="2.0" fill="none" stroke="rgb(0, 0, 0)" stroke-opacity="1" stroke-linecap="round" stroke-linejoin="round"/>
    <path d="M 78.89004516601562 165.77603149414062 C 94.04712677001953 194.92877197265625 56.360260009765625 175.63296508789062 39.36088562011719 178.8904266357422 C 63.62659454345703 147.74960327148438 69.63973236083984 171.2188720703125 76.18037414550781 125.03384399414062 C 68.96926879882812 144.2174530029297 82.97021484375 133.80630493164062 55.34107208251953 107.33793640136719" stroke-width="2.0" fill="none" stroke="rgb(0, 0, 0)" stroke-opacity="1" stroke-linecap="round" stroke-linejoin="round"/>
    <path d="M 225.42462158203125 202.79302978515625 C 230.55531311035156 164.7777099609375 197.81800842285156 193.09194946289062 205.82843017578125 169.39906311035156" stroke-width="2.0" fill="none" stroke="rgb(0, 0, 0)" stroke-opacity="1" stroke-linecap="round" stroke-linejoin="round"/>
    <path d="M 215.73875427246094 29.024463653564453 C 205.3002166748047 22.800331115722656 201.71205139160156 16.148178100585938 163.88912963867188 13.318442344665527" stroke-width="2.0" fill="none" stroke="rgb(0, 0, 0)" stroke-opacity="1" stroke-linecap="round" stroke-linejoin="round"/>
    <path d="M 101.81290435791016 187.37551879882812 C 98.22708129882812 199.1990966796875 102.20664978027344 158.265380859375 77.58578491210938 179.4568328857422 C 106.73883819580078 170.4015655517578 113.2625503540039 170.05148315429688 82.2781753540039 176.353759765625" stroke-width="2.0" fill="none" stroke="rgb(0, 0, 0)" stroke-opacity="1" stroke-linecap="round" stroke-linejoin="round"/>
    <path d="M 47.43152618408203 -13.923505783081055 C 65.71531677246094 -4.941016674041748 66.2945327758789 21.215259552001953 68.52731323242188 -6.317724227905273" stroke-width="2.0" fill="none" stroke="rgb(0, 0, 0)" stroke-opacity="1" stroke-linecap="round" stroke-linejoin="round"/>
    <path d="M 127.60643005371094 150.1023712158203 C 132.21694946289062 172.1924285888672 119.93294525146484 181.3373565673828 119.02762603759766 158.00442504882812 C 132.9928741455078 169.69920349121094 123.25927734375 153.1920623779297 140.80682373046875 175.03273010253906 C 109.43624114990234 168.39540100097656 109.6883544921875 175.03457641601562 111.34638977050781 153.42013549804688" stroke-width="2.0" fill="none" stroke="rgb(0, 0, 0)" stroke-opacity="1" stroke-linecap="round" stroke-linejoin="round"/>
    <path d="M 17.711421966552734 -3.185593605041504 C 4.328902721405029 -10.90637493133545 -4.194347381591797 -12.54912281036377 1.5604135990142822 -9.567432403564453 C 2.2711524963378906 3.1252968311309814 -8.88393783569336 0.7548466920852661 -17.69350242614746 4.694856643676758 C -17.487380981445312 4.14639139175415 -25.61031150817871 -5.496915340423584 -16.54307746887207 -16.45843505859375" stroke-width="2.0" fill="none" stroke="rgb(0, 0, 0)" stroke-opacity="1" stroke-linecap="round" stroke-linejoin="round"/>
    <path d="M 13.14253044128418 39.54554748535156 C 15.79431438446045 60.812469482421875 -3.1368913650512695 64.29139709472656 -18.700220108032227 81.0799331665039 C -27.569782257080078 63.39982604980469 -26.956138610839844 52.65872573852539 -18.463239669799805 44.37468338012695" stroke-width="2.0" fill="none" stroke="rgb(0, 0, 0)" stroke-opacity="1" stroke-linecap="round" stroke-linejoin="round"/>
    <path d="M 214.00875854492188 128.09228515625 C 228.8152618408203 110.09147644042969 205.89256286621094 130.85943603515625 213.0569610595703 129.73037719726562 C 224.14031982421875 114.02865600585938 223.41294860839844 112.81144714355469 200.71217346191406 114.05742645263672" stroke-width="2.0" fill="none" stroke="rgb(0, 0, 0)" stroke-opacity="1" stroke-linecap="round" stroke-linejoin="round"/>
    <path d="M 32.307823181152344 113.257568359375 C 34.611228942871094 134.95762634277344 34.28322982788086 92.09339141845703 37.8952522277832 128.0872802734375 C 3.9968230724334717 125.7195816040039 38.55187225341797 140.5869598388672 39.77826690673828 118.88465118408203" stroke-width="2.0" fill="none" stroke="rgb(0, 0, 0)" stroke-opacity="1" stroke-linecap="round" stroke-linejoin="round"/>
    <path d="M 27.206806182861328 42.594791412353516 C 28.22539520263672 49.8573112487793 37.43974685668945 84.75093078613281 28.304182052612305 40.9202880859375 C 41.548336029052734 54.09943771362305 30.59202003479004 43.588401794433594 11.712357521057129 31.9935245513916" stroke-width="2.0" fill="none" stroke="rgb(0, 0, 0)" stroke-opacity="1" stroke-linecap="round" stroke-linejoin="round"/>
    <path d="M 166.97946166992188 147.0825653076172 C 161.7585906982422 159.7239227294922 171.86923217773438 155.5699005126953 149.0299072265625 158.01107788085938" stroke-width="2.0" fill="none" stroke="rgb(0, 0, 0)" stroke-opacity="1" stroke-linecap="round" stroke-linejoin="round"/>
    <path d="M 148.8639373779297 59.89755630493164 C 161.207763671875 76.38956451416016 156.33644104003906 72.19046020507812 175.91232299804688 47.24413299560547" stroke-width="2.0" fill="none" stroke="rgb(0, 0, 0)" stroke-opacity="1" stroke-linecap="round" stroke-linejoin="round"/>
    <path d="M 190.827392578125 82.2363052368164 C 170.8226776123047 60.28342056274414 179.92063903808594 96.58472442626953 180.84873962402344 74.89547729492188" stroke-width="2.0" fill="none" stroke="rgb(0, 0, 0)" stroke-opacity="1" stroke-linecap="round" stroke-linejoin="round"/>
    <path d="M 47.5330810546875 53.659515380859375 C 39.0859260559082 57.190589904785156 42.01686096191406 41.107627868652344 22.365232467651367 37.4677848815918 C 27.178003311157227 26.334253311157227 9.806425094604492 48.97169876098633 13.10179328918457 60.8297004699707 C 18.26712417602539 66.17045593261719 2.56638240814209 61.284786224365234 15.13636589050293 34.61882019042969" stroke-width="2.0" fill="none" stroke="rgb(0, 0, 0)" stroke-opacity="1" stroke-linecap="round" stroke-linejoin="round"/>
    <path d="M 63.224815368652344 144.1488037109375 C 52.31120300292969 135.5475311279297 77.50057220458984 147.92539978027344 54.98173141479492 144.07058715820312 C 9.47632884979248 140.448974609375 32.09699249267578 145.8378448486328 46.185726165771484 172.62022399902344 C 26.964338302612305 127.69205474853516 37.71825408935547 171.72268676757812 72.4163818359375 162.82362365722656" stroke-width="2.0" fill="none" stroke="rgb(0, 0, 0)" stroke-opacity="1" stroke-linecap="round" stroke-linejoin="round"/>
    <path d="M 178.13296508789062 196.90155029296875 C 179.4906768798828 149.69253540039062 180.13462829589844 158.5553436279297 207.5068817138672 160.02394104003906" stroke-width="2.0" fill="none" stroke="rgb(0, 0, 0)" stroke-opacity="1" stroke-linecap="round" stroke-linejoin="round"/>
    <path d="M 120.94155883789062 127.19639587402344 C 127.48330688476562 109.12544250488281 104.40731811523438 145.01947021484375 127.5351333618164 137.15274047851562 C 125.88441467285156 92.5476303100586 127.771240234375 86.22952270507812 110.36334991455078 119.71847534179688" stroke-width="2.0" fill="none" stroke="rgb(0, 0, 0)" stroke-opacity="1" stroke-linecap="round" stroke-linejoin="round"/>
    <path d="M 44.37010955810547 151.5622100830078 C -30.40338706970215 157.28102111816406 -35.081424713134766 147.45254516601562 29.322782516479492 150.59605407714844 C 17.564085006713867 162.79701232910156 18.468936920166016 151.7112274169922 27.28314781188965 208.8192138671875 C -15.81989574432373 204.43919372558594 -2.4111146926879883 195.89447021484375 19.18522834777832 154.10623168945312" stroke-width="2.0" fill="none" stroke="rgb(0, 0, 0)" stroke-opacity="1" stroke-linecap="round" stroke-linejoin="round"/>
    <path d="M 139.48269653320312 87.865478515625 C 222.441650390625 76.75467681884766 201.0862274169922 97.2261734008789 194.7064208984375 87.22126007080078" stroke-width="2.0" fill="none" stroke="rgb(0, 0, 0)" stroke-opacity="1" stroke-linecap="round" stroke-linejoin="round"/>
    <path d="M 74.31591796875 205.06536865234375 C 93.3495101928711 206.93316650390625 97.52742767333984 219.86683654785156 77.70458984375 219.6350860595703" stroke-width="2.0" fill="none" stroke="rgb(0, 0, 0)" stroke-opacity="1" stroke-linecap="round" stroke-linejoin="round"/>
    <path d="M 97.98575592041016 151.0159912109375 C 95.42330169677734 137.10824584960938 119.05382537841797 145.76844787597656 118.40948486328125 138.2186737060547 C 78.44158172607422 142.0478057861328 92.87349700927734 129.36309814453125 88.12948608398438 156.45993041992188 C 58.695884704589844 156.14364624023438 37.156471252441406 163.2169952392578 91.30268096923828 160.01394653320312" stroke-width="2.0" fill="none" stroke="rgb(0, 0, 0)" stroke-opacity="1" stroke-linecap="round" stroke-linejoin="round"/>
    <path d="M 27.84184455871582 20.27897834777832 C 47.5460319519043 -14.0224609375 21.074617385864258 -7.4852375984191895 13.89328384399414 22.598876953125" stroke-width="2.0" fill="none" stroke="rgb(0, 0, 0)" stroke-opacity="1" stroke-linecap="round" stroke-linejoin="round"/>
    <path d="M 84.71504211425781 89.05340576171875 C 50.40739440917969 88.79537963867188 47.03509521484375 43.751976013183594 55.82975769042969 71.64301300048828 C 59.24807357788086 103.31904602050781 57.312034606933594 68.9515380859375 56.197261810302734 95.68486022949219" stroke-width="2.0" fill="none" stroke="rgb(0, 0, 0)" stroke-opacity="1" stroke-linecap="round" stroke-linejoin="round"/>
    <path d="M 229.02378845214844 143.3790283203125 C 229.18438720703125 135.79647827148438 227.85879516601562 123.82755279541016 230.07501220703125 135.2611846923828 C 197.402587890625 157.23048400878906 189.02296447753906 147.12310791015625 208.7091522216797 170.5383758544922 C 196.75669860839844 149.8504180908203 182.55992126464844 151.88694763183594 171.16542053222656 161.79164123535156" stroke-width="2.0" fill="none" stroke="rgb(0, 0, 0)" stroke-opacity="1" stroke-linecap="round" stroke-linejoin="round"/>
    <path d="M 220.4127655029297 71.04451751708984 C 199.97036743164062 100.7569580078125 205.17173767089844 104.74864959716797 222.28794860839844 60.189510345458984 C 210.24020385742188 72.87777709960938 182.0102996826172 65.82852935791016 218.49642944335938 69.41200256347656 C 210.72100830078125 73.03247833251953 194.58567810058594 65.69945526123047 176.69573974609375 77.23167419433594" stroke-width="2.0" fill="none" stroke="rgb(0, 0, 0)" stroke-opacity="1" stroke-linecap="round" stroke-linejoin="round"/>
    <path d="M 157.41726684570312 99.63780212402344 C 176.90716552734375 123.07974243164062 177.05239868164062 110.79315948486328 169.83677673339844 126.2181625366211 C 154.23707580566406 111.68344116210938 145.58042907714844 101.42192840576172 160.74732971191406 94.54259490966797" stroke-width="2.0" fill="none" stroke="rgb(0, 0, 0)" stroke-opacity="1" stroke-linecap="round" stroke-linejoin="round"/>
    <path d="M 130.65606689453125 99.74401092529297 C 134.62347412109375 88.33026123046875 122.12251281738281 113.80316925048828 112.64195251464844 117.2568359375 C 141.1102752685547 78.48218536376953 141.4680938720703 124.65563201904297 149.94036865234375 136.50857543945312" stroke-width="2.0" fill="none" stroke="rgb(0, 0, 0)" stroke-opacity="1" stroke-linecap="round" stroke-linejoin="round"/>
    <path d="M 210.28700256347656 110.49972534179688 C 212.71693420410156 84.04793548583984 170.56007385253906 79.44059753417969 157.31394958496094 65.50125885009766" stroke-width="2.0" fill="none" stroke="rgb(0, 0, 0)" stroke-opacity="1" stroke-linecap="round" stroke-linejoin="round"/>
    <path d="M 188.26202392578125 93.5777587890625 C 168.05673217773438 50.263938903808594 196.45191955566406 54.44525909423828 179.5867156982422 44.38767623901367 C 177.0835723876953 34.599422454833984 180.37142944335938 65.75798797607422 188.27938842773438 24.570404052734375" stroke-width="2.0" fill="none" stroke="rgb(0, 0, 0)" stroke-opacity="1" stroke-linecap="round" stroke-linejoin="round"/>
    <path d="M 117.59390258789062 53.63220977783203 C 116.00886535644531 66.68962860107422 123.4984359741211 91.00436401367188 119.82794189453125 33.87335205078125" stroke-width="2.0" fill="none" stroke="rgb(0, 0, 0)" stroke-opacity="1" stroke-linecap="round" stroke-linejoin="round"/>
    <path d="M 193.04306030273438 140.24012756347656 C 160.66348266601562 159.69818115234375 176.1339874267578 167.49258422851562 212.8723907470703 154.7047119140625 C 185.75306701660156 172.23231506347656 210.43846130371094 146.04139709472656 195.26832580566406 152.88052368164062 C 209.9258575439453 172.18646240234375 218.1754150390625 168.48507690429688 174.82077026367188 161.63584899902344" stroke-width="2.0" fill="none" stroke="rgb(0, 0, 0)" stroke-opacity="1" stroke-linecap="round" stroke-linejoin="round"/>
    <path d="M 9.100192070007324 47.30348587036133 C 0.9590968489646912 38.016239166259766 36.795230865478516 24.808818817138672 38.03831100463867 65.67142486572266 C 27.71947479248047 50.30003356933594 16.05166244506836 42.334266662597656 14.817556381225586 64.24491119384766 C 34.97037887573242 59.847007751464844 22.13596534729004 60.53199005126953 42.00276184082031 62.24216079711914" stroke-width="2.0" fill="none" stroke="rgb(0, 0, 0)" stroke-opacity="1" stroke-linecap="round" stroke-linejoin="round"/>
    <path d="M 206.42030334472656 193.84983825683594 C 196.28819274902344 193.848388671875 178.9911346435547 200.46945190429688 208.03073120117188 196.29522705078125" stroke-width="2.0" fill="none" stroke="rgb(0, 0, 0)" stroke-opacity="1" stroke-linecap="round" stroke-linejoin="round"/>
    <path d="M 114.57748413085938 82.15679168701172 C 122.37673950195312 75.96688842773438 141.16317749023438 46.94842529296875 163.86924743652344 26.708616256713867 C 140.0310516357422 56.52106475830078 137.9502410888672 58.3583869934082 125.84937286376953 73.65585327148438 C 112.9013900756836 91.22777557373047 105.93060302734375 88.68634033203125 112.82249450683594 16.632381439208984" stroke-width="2.0" fill="none" stroke="rgb(0, 0, 0)" stroke-opacity="1" stroke-linecap="round" stroke-linejoin="round"/>
    <path d="M 39.41215896606445 1.2595515251159668 C 112.64635467529297 32.64116668701172 92.22493743896484 28.047082901000977 49.11543655395508 28.66965103149414 C 77.15068817138672 28.54193878173828 95.37811279296875 26.841148376464844 82.27883911132812 29.059967041015625 C 71.68724060058594 33.15154266357422 48.2034797668457 30.195240020751953 106.02379608154297 27.090444564819336" stroke-width="2.0" fill="none" stroke="rgb(0, 0, 0)" stroke-opacity="1" stroke-linecap="round" stroke-linejoin="round"/>
    <path d="M 99.2626724243164 55.15711212158203 C 97.63633728027344 28.455175399780273 113.94932556152344 39.2269287109375 61.1202392578125 39.11832046508789 C 103.06156158447266 39.77448272705078 108.5062026977539 27.432388305664062 86.42473602294922 61.82022476196289" stroke-width="2.0" fill="none" stroke="rgb(0, 0, 0)" stroke-opacity="1" stroke-linecap="round" stroke-linejoin="round"/>
    <path d="M 233.05813598632812 181.27398681640625 C 226.118896484375 161.89585876464844 197.57138061523438 165.9018096923828 209.32901000976562 155.47705078125 C 200.86636352539062 163.66830444335938 198.0625 154.0335235595703 243.00387573242188 163.51132202148438 C 226.03704833984375 144.3387908935547 198.21112060546875 121.93814086914062 227.30784606933594 123.97698974609375" stroke-width="2.0" fill="none" stroke="rgb(0, 0, 0)" stroke-opacity="1" stroke-linecap="round" stroke-linejoin="round"/>
    <path d="M 150.22512817382812 182.3279266357422 C 151.8951416015625 198.70834350585938 157.0150909423828 200.8347930908203 166.03465270996094 194.78570556640625 C 161.0843048095703 208.80975341796875 168.73704528808594 200.7238006591797 119.82227325439453 198.27178955078125" stroke-width="2.0" fill="none" stroke="rgb(0, 0, 0)" stroke-opacity="1" stroke-linecap="round" stroke-linejoin="round"/>
    <path d="M 195.32388305664062 20.921857833862305 C 201.86843872070312 47.8640251159668 200.46347045898438 56.145328521728516 171.13328552246094 28.005971908569336 C 196.59857177734375 10.443737030029297 223.5811767578125 40.661380767822266 216.4607391357422 53.2064208984375" stroke-width="2.0" fill="none" stroke="rgb(0, 0, 0)" stroke-opacity="1" stroke-linecap="round" stroke-linejoin="round"/>
    <path d="M 202.12460327148438 150.57644653320312 C 222.72145080566406 160.06475830078125 189.9982452392578 150.6577606201172 171.84945678710938 148.6001739501953 C 194.4817352294922 163.8199920654297 212.70558166503906 157.33901977539062 184.14210510253906 157.1646728515625" stroke-width="2.0" fill="none" stroke="rgb(0, 0, 0)" stroke-opacity="1" stroke-linecap="round" stroke-linejoin="round"/>
    <path d="M 77.09556579589844 15.222275733947754 C 53.30790710449219 -1.33906090259552 64.54940795898438 0.3757072687149048 67.26634979248047 31.24300193786621" stroke-width="2.0" fill="none" stroke="rgb(0, 0, 0)" stroke-opacity="1" stroke-linecap="round" stroke-linejoin="round"/>
    <path d="M 174.80885314941406 145.8838348388672 C 156.95704650878906 177.19480895996094 164.26722717285156 186.9814910888672 170.87637329101562 141.75054931640625 C 179.38035583496094 158.87794494628906 168.98995971679688 206.03536987304688 179.553466796875 161.39328002929688" stroke-width="2.0" fill="none" stroke="rgb(0, 0, 0)" stroke-opacity="1" stroke-linecap="round" stroke-linejoin="round"/>
    <path d="M 133.16183471679688 171.7532958984375 C 107.34730529785156 177.0774383544922 96.99695587158203 166.38833618164062 134.34796142578125 170.36599731445312" stroke-width="2.0" fill="none" stroke="rgb(0, 0, 0)" stroke-opacity="1" stroke-linecap="round" stroke-linejoin="round"/>
    <path d="M 175.05947875976562 16.868022918701172 C 190.3739013671875 16.575057983398438 174.33937072753906 0.9398549199104309 161.7763214111328 2.8190999031066895" stroke-width="2.0" fill="none" stroke="rgb(0, 0, 0)" stroke-opacity="1" stroke-linecap="round" stroke-linejoin="round"/>
    <path d="M 98.18164825439453 137.02137756347656 C 74.6072006225586 114.78565216064453 61.82830810546875 103.37771606445312 78.79756164550781 107.29248046875 C 65.31655883789062 124.70279693603516 104.72612762451172 137.60350036621094 72.1008529663086 131.97250366210938 C 45.7782096862793 129.27719116210938 64.45641326904297 123.97948455810547 59.783687591552734 144.44577026367188" stroke-width="2.0" fill="none" stroke="rgb(0, 0, 0)" stroke-opacity="1" stroke-linecap="round" stroke-linejoin="round"/>
    <path d="M 138.9217529296875 101.49037170410156 C 124.85115814208984 84.72917175292969 156.1951141357422 110.26011657714844 179.6343994140625 134.88232421875 C 180.3880157470703 128.6619110107422 193.1957550048828 116.71951293945312 187.1449737548828 143.0229034423828 C 187.25390625 148.6014404296875 200.49815368652344 55.97639846801758 183.34423828125 78.60800170898438" stroke-width="2.0" fill="none" stroke="rgb(0, 0, 0)" stroke-opacity="1" stroke-linecap="round" stroke-linejoin="round"/>
    <path d="M 114.68364715576172 8.629922866821289 C 61.75688934326172 4.354316234588623 72.65199279785156 -11.68951416015625 161.84121704101562 -1.3471710681915283 C 153.42526245117188 2.269211769104004 108.1860122680664 7.874528408050537 126.33428955078125 2.837230682373047" stroke-width="2.0" fill="none" stroke="rgb(0, 0, 0)" stroke-opacity="1" stroke-linecap="round" stroke-linejoin="round"/>
    <path d="M 88.4488754272461 88.8602523803711 C 71.36084747314453 66.24528503417969 92.2447280883789 58.40544509887695 95.99593353271484 38.166385650634766 C 75.6024398803711 81.72086334228516 80.19706726074219 72.62739562988281 84.90121459960938 62.118507385253906 C 70.32913208007812 66.58967590332031 81.83211517333984 82.4257583618164 79.46134948730469 65.40743255615234" stroke-width="2.0" fill="none" stroke="rgb(0, 0, 0)" stroke-opacity="1" stroke-linecap="round" stroke-linejoin="round"/>
    <path d="M 150.8900909423828 209.9209442138672 C 126.62808227539062 233.318359375 113.31942749023438 222.46240234375 112.2339859008789 236.4013671875" stroke-width="2.0" fill="none" stroke="rgb(0, 0, 0)" stroke-opacity="1" stroke-linecap="round" stroke-linejoin="round"/>
    <path d="M 188.0502471923828 21.00627326965332 C 180.2777862548828 32.37702560424805 199.56541442871094 30.009357452392578 223.52664184570312 53.02653884887695 C 205.4893035888672 50.22080612182617 178.0274658203125 40.53537368774414 164.77027893066406 44.7278938293457 C 195.29019165039062 43.55404281616211 162.50291442871094 31.151643753051758 175.20115661621094 48.51896286010742" stroke-width="2.0" fill="none" stroke="rgb(0, 0, 0)" stroke-opacity="1" stroke-linecap="round" stroke-linejoin="round"/>
    <path d="M 177.56370544433594 211.07571411132812 C 175.58737182617188 257.962158203125 162.3286590576172 229.16110229492188 166.7071990966797 232.90823364257812 C 167.4805450439453 239.61093139648438 166.9031982421875 229.9635772705078 157.23751831054688 234.76681518554688" stroke-width="2.0" fill="none" stroke="rgb(0, 0, 0)" stroke-opacity="1" stroke-linecap="round" stroke-linejoin="round"/>
    <path d="M 75.9803695678711 108.4994888305664 C 63.69171905517578 92.89260864257812 87.7367172241211 121.62477111816406 90.799072265625 79.21296691894531" stroke-width="2.0" fill="none" stroke="rgb(0, 0, 0)" stroke-opacity="1" stroke-linecap="round" stroke-linejoin="round"/>
    <path d="M 99.23178100585938 145.09974670410156 C 60.94043731689453 148.7194366455078 85.1269302368164 148.44058227539062 93.35591888427734 143.71963500976562 C 136.18414306640625 138.10804748535156 143.56796264648438 142.7327880859375 89.89720153808594 142.04612731933594" stroke-width="2.0" fill="none" stroke="rgb(0, 0, 0)" stroke-opacity="1" stroke-linecap="round" stroke-linejoin="round"/>
    <path d="M 113.20472717285156 172.9570770263672 C 132.9843292236328 170.341552734375 119.8238525390625 170.06643676757812 129.6362762451172 168.00950622558594" stroke-width="2.0" fill="none" stroke="rgb(0, 0, 0)" stroke-opacity="1" stroke-linecap="round" stroke-linejoin="round"/>
    <path d="M 141.2974395751953 166.91554260253906 C 111.75860595703125 176.86729431152344 124.95076751708984 167.88914489746094 109.06602478027344 168.6823272705078" stroke-width="2.0" fill="none" stroke="rgb(0, 0, 0)" stroke-opacity="1" stroke-linecap="round" stroke-linejoin="round"/>
    <path d="M 59.036720275878906 201.39059448242188 C 71.07428741455078 191.35215759277344 67.93089294433594 210.85084533691406 57.29478454589844 226.63052368164062" stroke-width="2.0" fill="none" stroke="rgb(0, 0, 0)" stroke-opacity="1" stroke-linecap="round" stroke-linejoin="round"/>
    <path d="M 140.28965759277344 173.87591552734375 C 134.2353515625 187.21002197265625 123.51344299316406 173.5552520751953 132.2189483642578 175.13771057128906 C 122.96414184570312 158.32298278808594 118.97718811035156 168.89117431640625 130.6461181640625 173.14234924316406 C 154.82656860351562 188.1763916015625 164.28927612304688 193.51307678222656 164.937744140625 156.35140991210938" stroke-width="2.0" fill="none" stroke="rgb(0, 0, 0)" stroke-opacity="1" stroke-linecap="round" stroke-linejoin="round"/>
    <path d="M 61.26407241821289 138.641845703125 C 54.22243118286133 121.2766342163086 58.82987594604492 111.00557708740234 57.74468231201172 118.16178894042969 C 52.68744659423828 91.58602905273438 43.955162048339844 121.91645812988281 31.573793411254883 136.69090270996094 C 19.996906280517578 85.84474182128906 46.82071304321289 131.7697296142578 37.870059967041016 88.22570037841797" stroke-width="2.0" fill="none" stroke="rgb(0, 0, 0)" stroke-opacity="1" stroke-linecap="round" stroke-linejoin="round"/>
    <path d="M 64.10484313964844 201.8918914794922 C 30.528091430664062 205.03720092773438 32.341163635253906 192.73924255371094 53.311737060546875 201.78536987304688 C 33.078914642333984 229.68563842773438 19.993677139282227 235.45668029785156 7.288722038269043 202.415771484375" stroke-width="2.0" fill="none" stroke="rgb(0, 0, 0)" stroke-opacity="1" stroke-linecap="round" stroke-linejoin="round"/>
    <path d="M 174.78036499023438 209.51495361328125 C 154.23451232910156 231.3585662841797 150.50885009765625 198.6813201904297 147.61077880859375 201.49302673339844" stroke-width="2.0" fill="none" stroke="rgb(0, 0, 0)" stroke-opacity="1" stroke-linecap="round" stroke-linejoin="round"/>
    <path d="M 68.63645935058594 168.4492645263672 C 78.57797241210938 187.232421875 55.06483459472656 185.07357788085938 25.180700302124023 180.5120391845703" stroke-width="2.0" fill="none" stroke="rgb(0, 0, 0)" stroke-opacity="1" stroke-linecap="round" stroke-linejoin="round"/>
    <path d="M 190.0740203857422 35.16609191894531 C 145.8808135986328 54.64148712158203 166.47024536132812 13.652840614318848 164.74212646484375 24.81197166442871" stroke-width="2.0" fill="none" stroke="rgb(0, 0, 0)" stroke-opacity="1" stroke-linecap="round" stroke-linejoin="round"/>
    <path d="M 97.464111328125 39.75945281982422 C 92.95484924316406 56.23215103149414 91.0702133178711 51.03042221069336 33.73628234863281 48.081050872802734 C 96.498291015625 45.49433898925781 69.48190307617188 47.05787658691406 57.62512969970703 35.38716506958008 C 73.90106964111328 20.32284927368164 29.972484588623047 32.57170867919922 78.05333709716797 32.50302505493164" stroke-width="2.0" fill="none" stroke="rgb(0, 0, 0)" stroke-opacity="1" stroke-linecap="round" stroke-linejoin="round"/>
    <path d="M 176.26942443847656 85.73649597167969 C 178.5023956298828 109.59393310546875 165.35391235351562 108.84349822998047 171.66896057128906 117.68327331542969 C 166.8372039794922 103.87317657470703 176.01597595214844 105.9283218383789 187.7025146484375 110.32099151611328 C 166.34059143066406 85.76038360595703 169.24281311035156 94.82356262207031 187.3493194580078 118.11318969726562" stroke-width="2.0" fill="none" stroke="rgb(0, 0, 0)" stroke-opacity="1" stroke-linecap="round" stroke-linejoin="round"/>
    <path d="M 17.721206665039062 66.31969451904297 C 35.50065612792969 46.08438491821289 56.91500473022461 55.723785400390625 20.795625686645508 63.77518081665039 C 7.213151454925537 80.28020477294922 39.746273040771484 79.13185119628906 21.786842346191406 60.00850296020508 C 61.52127456665039 68.8901596069336 15.912582397460938 65.67316436767578 -12.237366676330566 56.30782699584961" stroke-width="2.0" fill="none" stroke="rgb(0, 0, 0)" stroke-opacity="1" stroke-linecap="round" stroke-linejoin="round"/>
    <path d="M 100.7148208618164 76.81535339355469 C 101.19942474365234 35.877498626708984 105.14425659179688 37.065032958984375 96.14090728759766 31.03335952758789 C 81.27879333496094 66.3198471069336 72.99852752685547 72.42053985595703 113.98283386230469 85.60337829589844" stroke-width="2.0" fill="none" stroke="rgb(0, 0, 0)" stroke-opacity="1" stroke-linecap="round" stroke-linejoin="round"/>
    <path d="M 191.8902587890625 197.63710021972656 C 198.49307250976562 207.4259490966797 198.135498046875 191.69711303710938 202.3853302001953 194.98538208007812 C 215.8457794189453 183.1373748779297 214.4877471923828 201.6494598388672 205.9766387939453 192.81344604492188" stroke-width="2.0" fill="none" stroke="rgb(0, 0, 0)" stroke-opacity="1" stroke-linecap="round" stroke-linejoin="round"/>
    <path d="M 209.85043334960938 53.43385314941406 C 210.8021240234375 48.46584701538086 221.0633087158203 49.378780364990234 224.20657348632812 80.94426727294922 C 212.21096801757812 50.28291320800781 206.3070526123047 80.77893829345703 227.72140502929688 70.34065246582031 C 240.68487548828125 79.9394302368164 238.4440155029297 69.34851837158203 232.09967041015625 76.94258117675781" stroke-width="2.0" fill="none" stroke="rgb(0, 0, 0)" stroke-opacity="1" stroke-linecap="round" stroke-linejoin="round"/>
    <path d="M 194.22402954101562 -4.393915176391602 C 215.1691436767578 15.707169532775879 201.12210083007812 13.601984024047852 160.1893768310547 9.79990005493164 C 158.9220733642578 53.54151916503906 162.81044006347656 41.841827392578125 179.68728637695312 33.17213821411133" stroke-width="2.0" fill="none" stroke="rgb(0, 0, 0)" stroke-opacity="1" stroke-linecap="round" stroke-linejoin="round"/>
    <path d="M 215.54246520996094 55.885101318359375 C 199.53189086914062 37.190860748291016 181.19932556152344 38.38660430908203 165.04856872558594 60.441829681396484 C 177.6106414794922 18.338699340820312 185.96446228027344 14.144000053405762 161.1674041748047 11.694229125976562 C 156.93899536132812 15.926051139831543 182.49476623535156 12.969788551330566 140.82586669921875 20.977008819580078" stroke-width="2.0" fill="none" stroke="rgb(0, 0, 0)" stroke-opacity="1" stroke-linecap="round" stroke-linejoin="round"/>
    <path d="M 106.08798217773438 213.9333038330078 C 98.86686706542969 202.01925659179688 98.26309204101562 231.91680908203125 111.02461242675781 248.56407165527344 C 118.42169952392578 209.2913360595703 96.84459686279297 221.86431884765625 83.71244812011719 232.67771911621094" stroke-width="2.0" fill="none" stroke="rgb(0, 0, 0)" stroke-opacity="1" stroke-linecap="round" stroke-linejoin="round"/>
    <path d="M 181.1944122314453 9.775824546813965 C 222.4345245361328 26.195783615112305 221.6051483154297 25.08655548095703 180.30322265625 34.27893829345703 C 230.60621643066406 45.89699172973633 223.8555908203125 17.409847259521484 175.1821746826172 5.6516642570495605" stroke-width="2.0" fill="none" stroke="rgb(0, 0, 0)" stroke-opacity="1" stroke-linecap="round" stroke-linejoin="round"/>
    <path d="M 231.29971313476562 223.560546875 C 231.51988220214844 228.5436248779297 224.8662109375 239.2262420654297 233.5990447998047 247.5462188720703 C 214.24356079101562 227.01243591308594 208.89822387695312 235.64878845214844 207.90142822265625 237.52532958984375" stroke-width="2.0" fill="none" stroke="rgb(0, 0, 0)" stroke-opacity="1" stroke-linecap="round" stroke-linejoin="round"/>
    <path d="M 190.26243591308594 185.52865600585938 C 181.14483642578125 191.18759155273438 189.27105712890625 147.17111206054688 189.72740173339844 200.30514526367188 C 208.52447509765625 198.9312286376953 222.27635192871094 196.51702880859375 193.3997344970703 195.56103515625 C 174.9626922607422 196.11611938476562 201.97523498535156 217.5941162109375 165.6109161376953 206.96392822265625" stroke-width="2.0" fill="none" stroke="rgb(0, 0, 0)" stroke-opacity="1" stroke-linecap="round" stroke-linejoin="round"/>
    <path d="M 193.5016632080078 142.12091064453125 C 177.4200897216797 131.87515258789062 162.93162536621094 180.04412841796875 175.73516845703125 160.43165588378906 C 204.2744140625 134.2966766357422 192.4303741455078 133.15196228027344 202.6528778076172 172.30548095703125" stroke-width="2.0" fill="none" stroke="rgb(0, 0, 0)" stroke-opacity="1" stroke-linecap="round" stroke-linejoin="round"/>
    <path d="M -6.834815502166748 143.6498565673828 C -2.5546722412109375 139.39559936523438 4.254551410675049 146.84054565429688 -26.551204681396484 160.40728759765625 C -0.12933586537837982 160.3015594482422 61.99504852294922 141.0552978515625 55.06233596801758 168.68841552734375" stroke-width="2.0" fill="none" stroke="rgb(0, 0, 0)" stroke-opacity="1" stroke-linecap="round" stroke-linejoin="round"/>
    <path d="M 121.8677749633789 141.4400177001953 C 133.5526580810547 183.48992919921875 135.14682006835938 178.6110382080078 133.8910675048828 152.89999389648438 C 116.10676574707031 181.27401733398438 121.98223876953125 182.76065063476562 122.1264419555664 141.7476043701172" stroke-width="2.0" fill="none" stroke="rgb(0, 0, 0)" stroke-opacity="1" stroke-linecap="round" stroke-linejoin="round"/>
    <path d="M 73.23587799072266 -5.371939659118652 C 82.99229431152344 -10.043694496154785 82.45441436767578 -6.436244964599609 74.40767669677734 -3.73348331451416 C 74.562744140625 -3.3825576305389404 80.26643371582031 -10.156278610229492 82.11548614501953 -19.194490432739258 C 86.52802276611328 -19.928611755371094 75.55022430419922 -29.13727569580078 69.3702163696289 -21.83091163635254" stroke-width="2.0" fill="none" stroke="rgb(0, 0, 0)" stroke-opacity="1" stroke-linecap="round" stroke-linejoin="round"/>
    <path d="M 127.97972869873047 96.97930908203125 C 95.62457275390625 160.4175262451172 92.1266860961914 122.76611328125 93.16041564941406 83.10152435302734" stroke-width="2.0" fill="none" stroke="rgb(0, 0, 0)" stroke-opacity="1" stroke-linecap="round" stroke-linejoin="round"/>
    <path d="M 127.29618835449219 163.07814025878906 C 107.61433410644531 175.6269989013672 119.70814514160156 158.29986572265625 124.07386016845703 166.38589477539062 C 86.34398651123047 154.7025146484375 105.06565856933594 165.69357299804688 105.83826446533203 142.9490203857422" stroke-width="2.0" fill="none" stroke="rgb(0, 0, 0)" stroke-opacity="1" stroke-linecap="round" stroke-linejoin="round"/>
    <path d="M 145.5540008544922 36.05584716796875 C 169.50506591796875 31.048290252685547 174.78321838378906 52.69290542602539 156.53883361816406 69.39886474609375 C 142.4408721923828 95.71273040771484 155.3591766357422 74.2502212524414 173.8875732421875 50.077667236328125 C 144.24351501464844 46.70481491088867 135.53199768066406 37.65129852294922 156.82460021972656 75.5074234008789" stroke-width="2.0" fill="none" stroke="rgb(0, 0, 0)" stroke-opacity="1" stroke-linecap="round" stroke-linejoin="round"/>
    <path d="M 86.19974517822266 90.3282241821289 C 90.08528137207031 109.3512954711914 91.8685073852539 96.87042999267578 79.44152069091797 83.55635070800781 C 130.1674041748047 87.29796600341797 114.70919799804688 90.7831802368164 135.47305297851562 62.99494552612305 C 153.1503448486328 93.09405517578125 120.84368896484375 96.18304443359375 124.17268371582031 88.94986724853516" stroke-width="2.0" fill="none" stroke="rgb(0, 0, 0)" stroke-opacity="1" stroke-linecap="round" stroke-linejoin="round"/>
    <path d="M 176.18016052246094 -9.367240905761719 C 163.3856964111328 23.88335609436035 158.37271118164062 12.313907623291016 198.79722595214844 14.575363159179688 C 149.2332305908203 -3.8677382469177246 169.97378540039062 13.803400039672852 208.48348999023438 0.34117835760116577" stroke-width="2.0" fill="none" stroke="rgb(0, 0, 0)" stroke-opacity="1" stroke-linecap="round" stroke-linejoin="round"/>
    <path d="M 100.39018249511719 21.948078155517578 C 71.90058135986328 -4.4854207038879395 84.08309173583984 -2.863281726837158 86.12620544433594 23.678653717041016 C 72.20384979248047 -11.45969295501709 102.51398468017578 -20.68897247314453 93.6277084350586 -21.74384880065918 C 72.49542236328125 -21.136566162109375 85.11988067626953 -4.991421222686768 76.5102767944336 19.132081985473633" stroke-width="2.0" fill="none" stroke="rgb(0, 0, 0)" stroke-opacity="1" stroke-linecap="round" stroke-linejoin="round"/>
    <path d="M 134.5250701904297 149.47177124023438 C 171.67001342773438 125.06838989257812 169.92144775390625 143.73216247558594 134.82244873046875 92.99261474609375 C 142.35520935058594 108.7003173828125 143.54026794433594 138.99703979492188 134.94749450683594 131.91859436035156 C 136.80007934570312 90.84989929199219 115.80929565429688 132.0717010498047 134.0326690673828 125.30797576904297" stroke-width="2.0" fill="none" stroke="rgb(0, 0, 0)" stroke-opacity="1" stroke-linecap="round" stroke-linejoin="round"/>
    <path d="M 152.3039093017578 158.1073455810547 C 150.93283081054688 127.89901733398438 155.58306884765625 188.92860412597656 144.07443237304688 176.24078369140625 C 121.94502258300781 138.9703369140625 124.25076293945312 154.39076232910156 150.02928161621094 166.6163330078125" stroke-width="2.0" fill="none" stroke="rgb(0, 0, 0)" stroke-opacity="1" stroke-linecap="round" stroke-linejoin="round"/>
    <path d="M 123.05227661132812 146.26014709472656 C 144.0819549560547 155.51185607910156 119.19590759277344 208.44981384277344 140.04965209960938 197.25413513183594 C 104.81605529785156 189.45765686035156 132.30166625976562 172.9839630126953 128.81320190429688 196.69898986816406 C 109.63617706298828 209.04737854003906 108.59406280517578 156.73719787597656 133.6976318359375 178.27183532714844" stroke-width="2.0" fill="none" stroke="rgb(0, 0, 0)" stroke-opacity="1" stroke-linecap="round" stroke-linejoin="round"/>
    <path d="M 192.0421600341797 33.2379035949707 C 204.96742248535156 33.37322998046875 180.3899383544922 5.702468395233154 191.5910186767578 50.05735397338867" stroke-width="2.0" fill="none" stroke="rgb(0, 0, 0)" stroke-opacity="1" stroke-linecap="round" stroke-linejoin="round"/>
    <path d="M 161.23440551757812 41.06571960449219 C 157.57374572753906 58.91115951538086 156.22499084472656 36.02070617675781 157.90733337402344 18.449342727661133" stroke-width="2.0" fill="none" stroke="rgb(0, 0, 0)" stroke-opacity="1" stroke-linecap="round" stroke-linejoin="round"/>
    <path d="M 31.122865676879883 100.1289291381836 C 36.41411209106445 77.8084945678711 7.050661087036133 80.95226287841797 14.195657730102539 98.20066833496094 C 11.53880500793457 142.3571014404297 20.804597854614258 111.6002426147461 14.997344970703125 118.34831237792969" stroke-width="2.0" fill="none" stroke="rgb(0, 0, 0)" stroke-opacity="1" stroke-linecap="round" stroke-linejoin="round"/>
    <path d="M 223.32945251464844 43.98952865600586 C 207.22618103027344 8.445182800292969 207.59837341308594 37.68623352050781 175.27955627441406 19.48542594909668" stroke-width="2.0" fill="none" stroke="rgb(0, 0, 0)" stroke-opacity="1" stroke-linecap="round" stroke-linejoin="round"/>
    <path d="M 135.7435760498047 13.796126365661621 C 134.65164184570312 7.93784761428833 107.04206848144531 14.889772415161133 105.11378479003906 25.023406982421875 C 172.3283233642578 20.687355041503906 201.40292358398438 2.8221230506896973 131.57688903808594 11.718916893005371 C 132.7763214111328 26.445938110351562 130.10948181152344 21.75579071044922 135.16897583007812 21.356367111206055" stroke-width="2.0" fill="none" stroke="rgb(0, 0, 0)" stroke-opacity="1" stroke-linecap="round" stroke-linejoin="round"/>
    <path d="M 183.2010498046875 207.04737854003906 C 159.55490112304688 209.55055236816406 168.77389526367188 199.68397521972656 169.74395751953125 170.2559814453125 C 182.2443389892578 183.8881378173828 194.18211364746094 194.5211944580078 204.5550994873047 226.21717834472656 C 182.376953125 213.41627502441406 153.8624725341797 202.44140625 169.24142456054688 211.44161987304688" stroke-width="2.0" fill="none" stroke="rgb(0, 0, 0)" stroke-opacity="1" stroke-linecap="round" stroke-linejoin="round"/>
    <path d="M 74.64556884765625 208.6646270751953 C 73.58790588378906 188.88409423828125 83.12307739257812 185.80230712890625 32.81800842285156 188.87857055664062 C 36.018280029296875 180.86428833007812 23.86484146118164 160.10853576660156 50.03860855102539 156.70401000976562 C 34.471168518066406 208.40158081054688 34.80186462402344 178.02610778808594 41.140419006347656 184.9651336669922" stroke-width="2.0" fill="none" stroke="rgb(0, 0, 0)" stroke-opacity="1" stroke-linecap="round" stroke-linejoin="round"/>
    <path d="M -1.9197533130645752 107.8378677368164 C -23.471996307373047 103.92822265625 -26.41732406616211 107.5223617553711 -19.239654541015625 95.46692657470703" stroke-width="2.0" fill="none" stroke="rgb(0, 0, 0)" stroke-opacity="1" stroke-linecap="round" stroke-linejoin="round"/>
    <path d="M 36.211090087890625 170.9496307373047 C 31.1098575592041 217.22471618652344 37.00244903564453 214.11854553222656 -4.302038669586182 203.13153076171875 C 1.3627442121505737 178.51266479492188 -19.63927459716797 199.81881713867188 22.73957633972168 205.26123046875 C -17.602750778198242 209.2023162841797 -13.075722694396973 225.2200164794922 -4.129886150360107 232.12734985351562" stroke-width="2.0" fill="none" stroke="rgb(0, 0, 0)" stroke-opacity="1" stroke-linecap="round" stroke-linejoin="round"/>
    <path d="M -3.16119647026062 128.2159423828125 C 2.534435510635376 130.62725830078125 -6.61774206161499 119.20777893066406 -4.369856357574463 120.31859588623047" stroke-width="2.0" fill="none" stroke="rgb(0, 0, 0)" stroke-opacity="1" stroke-linecap="round" stroke-linejoin="round"/>
    <path d="M 85.1304931640625 119.04082489013672 C 100.11308288574219 96.8907470703125 82.41458129882812 72.51256561279297 46.69565963745117 83.13996887207031" stroke-width="2.0" fill="none" stroke="rgb(0, 0, 0)" stroke-opacity="1" stroke-linecap="round" stroke-linejoin="round"/>
    <path d="M 9.774243354797363 96.25677490234375 C 87.75113677978516 95.02330780029297 74.5267333984375 80.76110076904297 12.874606132507324 77.98308563232422 C 2.5484297275543213 111.88014221191406 1.9057998657226562 154.05242919921875 29.218460083007812 137.52137756347656 C 51.03791809082031 108.98464965820312 10.788901329040527 104.1728515625 41.175376892089844 115.74043273925781" stroke-width="2.0" fill="none" stroke="rgb(0, 0, 0)" stroke-opacity="1" stroke-linecap="round" stroke-linejoin="round"/>
    <path d="M 164.21902465820312 197.2399444580078 C 112.87385559082031 197.797607421875 108.1923599243164 170.77682495117188 157.94810485839844 183.40936279296875" stroke-width="2.0" fill="none" stroke="rgb(0, 0, 0)" stroke-opacity="1" stroke-linecap="round" stroke-linejoin="round"/>
    <path d="M 89.05008697509766 68.99765014648438 C 46.56407928466797 45.92405319213867 33.830806732177734 92.91273498535156 63.45937728881836 62.54416275024414" stroke-width="2.0" fill="none" stroke="rgb(0, 0, 0)" stroke-opacity="1" stroke-linecap="round" stroke-linejoin="round"/>
    <path d="M 47.68729782104492 75.39997863769531 C 62.632781982421875 91.60845184326172 3.771397829055786 72.13926696777344 14.059087753295898 92.323974609375" stroke-width="2.0" fill="none" stroke="rgb(0, 0, 0)" stroke-opacity="1" stroke-linecap="round" stroke-linejoin="round"/>
    <path d="M 15.135905265808105 25.75872230529785 C 36.35274887084961 44.657779693603516 32.324989318847656 48.34043502807617 9.834747314453125 46.27561569213867" stroke-width="2.0" fill="none" stroke="rgb(0, 0, 0)" stroke-opacity="1" stroke-linecap="round" stroke-linejoin="round"/>
  </g>
</svg>
