<?xml version="1.0" ?>
<svg xmlns="http://www.w3.org/2000/svg" version="1.1" width="224" height="224">
  <defs/>
  <g>
    <path d="M 223.208251953125 219.19810485839844 C 225.0280303955078 208.61473083496094 196.03565979003906 231.90220642089844 197.45660400390625 215.93763732910156 C 191.54319763183594 200.43492126464844 192.33302307128906 193.6310272216797 198.03086853027344 216.74427795410156 C 201.1053466796875 199.50796508789062 216.8153839111328 197.2655487060547 197.43896484375 162.6175079345703" stroke-width="2.0" fill="none" stroke="rgb(0, 0, 0)" stroke-opacity="1" stroke-linecap="round" stroke-linejoin="round"/>
    <path d="M -5.191043853759766 214.37110900878906 C -17.182302474975586 221.41986083984375 -19.120182037353516 212.61790466308594 -12.658027648925781 212.2920379638672" stroke-width="2.0" fill="none" stroke="rgb(0, 0, 0)" stroke-opacity="1" stroke-linecap="round" stroke-linejoin="round"/>
    <path d="M 136.78025817871094 51.98772048950195 C 151.27890014648438 61.92185974121094 153.32896423339844 79.81002044677734 135.7392578125 60.40837097167969 C 146.25376892089844 43.540306091308594 121.28194427490234 48.20568084716797 84.77290344238281 43.59757614135742 C 103.16909790039062 50.01613998413086 111.70401763916016 55.39573287963867 140.14283752441406 50.5509033203125" stroke-width="2.0" fill="none" stroke="rgb(0, 0, 0)" stroke-opacity="1" stroke-linecap="round" stroke-linejoin="round"/>
    <path d="M 130.8571319580078 148.66912841796875 C 162.70181274414062 172.68820190429688 148.5443115234375 162.21153259277344 137.62896728515625 153.46026611328125" stroke-width="2.0" fill="none" stroke="rgb(0, 0, 0)" stroke-opacity="1" stroke-linecap="round" stroke-linejoin="round"/>
    <path d="M -10.887805938720703 52.5381965637207 C -5.458867073059082 76.67048645019531 -11.607686042785645 38.45328903198242 24.009199142456055 45.066471099853516" stroke-width="2.0" fill="none" stroke="rgb(0, 0, 0)" stroke-opacity="1" stroke-linecap="round" stroke-linejoin="round"/>
    <path d="M -4.942076683044434 201.3095703125 C 9.44861888885498 192.53802490234375 -1.8719083070755005 176.7250213623047 0.18707013130187988 199.84506225585938 C 2.970362901687622 216.30372619628906 -5.81644868850708 190.98162841796875 18.18220329284668 177.90960693359375" stroke-width="2.0" fill="none" stroke="rgb(0, 0, 0)" stroke-opacity="1" stroke-linecap="round" stroke-linejoin="round"/>
    <path d="M 112.74991607666016 24.04465675354004 C 136.45399475097656 2.9232497215270996 147.6711883544922 50.91341018676758 139.48046875 17.00674057006836" stroke-width="2.0" fill="none" stroke="rgb(0, 0, 0)" stroke-opacity="1" stroke-linecap="round" stroke-linejoin="round"/>
    <path d="M 96.29521179199219 199.203857421875 C 90.38494110107422 237.2108154296875 91.30432891845703 207.60597229003906 120.57699584960938 208.40269470214844" stroke-width="2.0" fill="none" stroke="rgb(0, 0, 0)" stroke-opacity="1" stroke-linecap="round" stroke-linejoin="round"/>
    <path d="M 71.15413665771484 215.42538452148438 C 35.59619903564453 221.75408935546875 55.98337173461914 202.7742919921875 67.08123779296875 178.54331970214844 C 68.55506134033203 175.6295623779297 46.971309661865234 159.71119689941406 67.65697479248047 164.83694458007812" stroke-width="2.0" fill="none" stroke="rgb(0, 0, 0)" stroke-opacity="1" stroke-linecap="round" stroke-linejoin="round"/>
    <path d="M 31.293716430664062 71.36548614501953 C 45.402156829833984 61.90847396850586 47.12428283691406 19.673946380615234 32.09762191772461 48.60095977783203 C 35.110130310058594 33.798980712890625 28.474956512451172 24.78298568725586 28.56508445739746 11.841516494750977" stroke-width="2.0" fill="none" stroke="rgb(0, 0, 0)" stroke-opacity="1" stroke-linecap="round" stroke-linejoin="round"/>
    <path d="M 175.4658660888672 56.81217575073242 C 153.0150146484375 44.27801513671875 143.65029907226562 59.719268798828125 136.23443603515625 54.76630401611328 C 133.796875 70.62952423095703 141.62571716308594 62.8284797668457 144.00845336914062 73.4861831665039 C 115.58611297607422 58.089656829833984 148.6871795654297 63.69223403930664 142.1047821044922 82.70441436767578" stroke-width="2.0" fill="none" stroke="rgb(0, 0, 0)" stroke-opacity="1" stroke-linecap="round" stroke-linejoin="round"/>
    <path d="M 21.83085823059082 35.173980712890625 C -3.975811004638672 24.362638473510742 7.94965124130249 56.507301330566406 -18.378305435180664 63.285621643066406 C -7.665234088897705 57.75453567504883 18.266483306884766 57.472164154052734 25.701671600341797 86.89079284667969" stroke-width="2.0" fill="none" stroke="rgb(0, 0, 0)" stroke-opacity="1" stroke-linecap="round" stroke-linejoin="round"/>
    <path d="M 162.76133728027344 113.02486419677734 C 173.23460388183594 112.14152526855469 169.7741241455078 117.3696060180664 176.6399383544922 107.55734252929688 C 166.18954467773438 122.42511749267578 166.78639221191406 122.93400573730469 187.24176025390625 115.57716369628906 C 174.333984375 118.88562774658203 174.8508758544922 127.54437255859375 191.56858825683594 140.1075439453125" stroke-width="2.0" fill="none" stroke="rgb(0, 0, 0)" stroke-opacity="1" stroke-linecap="round" stroke-linejoin="round"/>
    <path d="M 106.6946792602539 85.63087463378906 C 61.644596099853516 80.86969757080078 58.13154220581055 97.31378173828125 79.07537078857422 85.4548110961914" stroke-width="2.0" fill="none" stroke="rgb(0, 0, 0)" stroke-opacity="1" stroke-linecap="round" stroke-linejoin="round"/>
    <path d="M 30.55113983154297 214.1282501220703 C -48.09842300415039 221.85592651367188 11.048979759216309 176.6697540283203 31.659692764282227 213.20944213867188 C 36.027278900146484 211.74388122558594 41.5198860168457 224.08074951171875 26.135196685791016 208.46908569335938" stroke-width="2.0" fill="none" stroke="rgb(0, 0, 0)" stroke-opacity="1" stroke-linecap="round" stroke-linejoin="round"/>
    <path d="M 105.7596435546875 102.6833724975586 C 95.97325897216797 100.36693572998047 95.84577941894531 97.95498657226562 114.5295181274414 107.69467163085938 C 127.23298645019531 105.74211883544922 93.09071350097656 92.79825592041016 71.24787902832031 110.6425552368164 C 85.5256576538086 105.5196304321289 91.62861633300781 97.00129699707031 116.97567749023438 101.94789123535156" stroke-width="2.0" fill="none" stroke="rgb(0, 0, 0)" stroke-opacity="1" stroke-linecap="round" stroke-linejoin="round"/>
    <path d="M 99.30000305175781 194.95960998535156 C 105.024658203125 208.23927307128906 83.46690368652344 228.5916290283203 92.00121307373047 213.02088928222656 C 91.63412475585938 222.9248809814453 95.586181640625 236.65016174316406 93.77069091796875 233.1861114501953 C 84.01117706298828 226.7694091796875 80.47477722167969 222.75131225585938 64.89308166503906 230.52871704101562" stroke-width="2.0" fill="none" stroke="rgb(0, 0, 0)" stroke-opacity="1" stroke-linecap="round" stroke-linejoin="round"/>
    <path d="M 124.95001220703125 52.134788513183594 C 89.48186492919922 43.74602127075195 102.22564697265625 47.85289001464844 118.16291046142578 60.18446350097656" stroke-width="2.0" fill="none" stroke="rgb(0, 0, 0)" stroke-opacity="1" stroke-linecap="round" stroke-linejoin="round"/>
    <path d="M 187.07955932617188 0.20884588360786438 C 169.2785186767578 14.564788818359375 165.67410278320312 -7.0310468673706055 139.76441955566406 -2.7864830493927" stroke-width="2.0" fill="none" stroke="rgb(0, 0, 0)" stroke-opacity="1" stroke-linecap="round" stroke-linejoin="round"/>
    <path d="M 92.8028564453125 45.09800338745117 C 139.69070434570312 34.51327133178711 137.30604553222656 47.13437271118164 141.630859375 53.60860061645508" stroke-width="2.0" fill="none" stroke="rgb(0, 0, 0)" stroke-opacity="1" stroke-linecap="round" stroke-linejoin="round"/>
    <path d="M 148.3392333984375 114.69017791748047 C 184.75241088867188 88.62948608398438 159.21839904785156 73.89529418945312 177.72909545898438 98.17169189453125 C 170.64389038085938 68.81973266601562 188.76368713378906 56.855934143066406 155.3331298828125 63.293941497802734" stroke-width="2.0" fill="none" stroke="rgb(0, 0, 0)" stroke-opacity="1" stroke-linecap="round" stroke-linejoin="round"/>
    <path d="M 117.96956634521484 85.14627075195312 C 118.50346374511719 117.76750183105469 99.67671966552734 104.92540740966797 121.11597442626953 109.18036651611328 C 99.3084487915039 98.45183563232422 95.98747253417969 97.06082916259766 67.51676940917969 102.00373077392578 C 73.39644622802734 108.41412353515625 70.46129608154297 103.16846466064453 79.62909698486328 100.33192443847656" stroke-width="2.0" fill="none" stroke="rgb(0, 0, 0)" stroke-opacity="1" stroke-linecap="round" stroke-linejoin="round"/>
    <path d="M 172.0287322998047 137.4423065185547 C 174.8200225830078 154.16043090820312 161.10379028320312 170.57652282714844 158.65818786621094 181.75885009765625 C 139.24903869628906 159.43624877929688 148.6271514892578 161.8308868408203 127.37748718261719 176.21517944335938" stroke-width="2.0" fill="none" stroke="rgb(0, 0, 0)" stroke-opacity="1" stroke-linecap="round" stroke-linejoin="round"/>
    <path d="M 170.04856872558594 118.0270767211914 C 176.6591796875 135.21092224121094 191.28651428222656 136.8317108154297 185.8715057373047 152.9745635986328 C 187.69015502929688 169.3308563232422 189.1899871826172 153.43470764160156 183.30392456054688 164.95938110351562" stroke-width="2.0" fill="none" stroke="rgb(0, 0, 0)" stroke-opacity="1" stroke-linecap="round" stroke-linejoin="round"/>
    <path d="M 185.80856323242188 -13.424001693725586 C 202.91171264648438 15.91510009765625 177.72592163085938 16.83733558654785 177.38792419433594 38.286224365234375" stroke-width="2.0" fill="none" stroke="rgb(0, 0, 0)" stroke-opacity="1" stroke-linecap="round" stroke-linejoin="round"/>
    <path d="M 54.32283020019531 148.62863159179688 C 30.507322311401367 167.31202697753906 63.38689422607422 119.86888122558594 78.25114440917969 149.41738891601562 C 78.77204895019531 162.30679321289062 75.29239654541016 143.98654174804688 51.19364929199219 154.32521057128906" stroke-width="2.0" fill="none" stroke="rgb(0, 0, 0)" stroke-opacity="1" stroke-linecap="round" stroke-linejoin="round"/>
    <path d="M 56.49748229980469 77.93753051757812 C 46.450401306152344 109.17756652832031 60.46678161621094 87.81324005126953 48.87873077392578 121.0494384765625" stroke-width="2.0" fill="none" stroke="rgb(0, 0, 0)" stroke-opacity="1" stroke-linecap="round" stroke-linejoin="round"/>
    <path d="M 132.92042541503906 7.496317386627197 C 127.62937927246094 14.762093544006348 110.87715911865234 25.753171920776367 106.27290344238281 29.03595733642578" stroke-width="2.0" fill="none" stroke="rgb(0, 0, 0)" stroke-opacity="1" stroke-linecap="round" stroke-linejoin="round"/>
    <path d="M 221.05755615234375 124.4820327758789 C 189.5333251953125 143.62571716308594 152.1193084716797 112.23430633544922 210.68597412109375 122.40147399902344" stroke-width="2.0" fill="none" stroke="rgb(0, 0, 0)" stroke-opacity="1" stroke-linecap="round" stroke-linejoin="round"/>
    <path d="M 44.086483001708984 187.40386962890625 C 17.298728942871094 182.38766479492188 54.46396255493164 184.38885498046875 23.56414031982422 184.8712158203125 C 18.400278091430664 158.6273651123047 34.1262321472168 180.11404418945312 12.622632026672363 183.33177185058594" stroke-width="2.0" fill="none" stroke="rgb(0, 0, 0)" stroke-opacity="1" stroke-linecap="round" stroke-linejoin="round"/>
    <path d="M 64.9126205444336 159.66517639160156 C 45.76662063598633 161.5425262451172 62.40848159790039 155.18418884277344 59.01548767089844 175.30982971191406 C 53.278499603271484 167.46820068359375 71.21502685546875 154.99725341796875 52.36255645751953 204.43267822265625" stroke-width="2.0" fill="none" stroke="rgb(0, 0, 0)" stroke-opacity="1" stroke-linecap="round" stroke-linejoin="round"/>
    <path d="M 47.95547103881836 180.26336669921875 C 36.13565444946289 158.9407958984375 51.03342819213867 111.63948059082031 32.24390411376953 159.5631561279297" stroke-width="2.0" fill="none" stroke="rgb(0, 0, 0)" stroke-opacity="1" stroke-linecap="round" stroke-linejoin="round"/>
    <path d="M 30.352466583251953 23.41493034362793 C 52.00880813598633 11.557085990905762 43.444435119628906 15.599621772766113 31.440156936645508 25.094459533691406 C 25.108741760253906 29.676443099975586 28.57048988342285 35.681129455566406 47.719520568847656 37.78519058227539 C 64.58179473876953 31.90810203552246 41.44879913330078 45.437870025634766 56.937110900878906 63.79804992675781" stroke-width="2.0" fill="none" stroke="rgb(0, 0, 0)" stroke-opacity="1" stroke-linecap="round" stroke-linejoin="round"/>
    <path d="M 112.70015716552734 6.57529354095459 C 108.47606658935547 34.2116584777832 99.94522857666016 46.237545013427734 78.35508728027344 38.346065521240234 C 103.05636596679688 33.20914077758789 114.48379516601562 18.977466583251953 110.41915893554688 8.815646171569824 C 147.2899169921875 -12.590201377868652 158.96652221679688 4.715120315551758 132.6098175048828 13.807621002197266" stroke-width="2.0" fill="none" stroke="rgb(0, 0, 0)" stroke-opacity="1" stroke-linecap="round" stroke-linejoin="round"/>
    <path d="M 217.58102416992188 26.99622344970703 C 222.52049255371094 0.5257577300071716 183.75979614257812 -34.103660583496094 215.323974609375 25.862457275390625 C 214.6900634765625 51.161842346191406 220.4593963623047 14.283514976501465 195.57920837402344 26.195602416992188 C 191.00303649902344 31.299381256103516 163.1847686767578 35.58064651489258 175.7102813720703 48.616214752197266" stroke-width="2.0" fill="none" stroke="rgb(0, 0, 0)" stroke-opacity="1" stroke-linecap="round" stroke-linejoin="round"/>
    <path d="M 171.1060333251953 227.20822143554688 C 156.76348876953125 222.61756896972656 149.61962890625 215.94268798828125 152.7259979248047 216.91543579101562 C 163.2150421142578 215.5609893798828 177.63291931152344 217.18673706054688 150.16781616210938 207.16651916503906" stroke-width="2.0" fill="none" stroke="rgb(0, 0, 0)" stroke-opacity="1" stroke-linecap="round" stroke-linejoin="round"/>
    <path d="M 87.6563491821289 139.6150665283203 C 72.01763916015625 181.96514892578125 86.61751556396484 142.2380828857422 74.84799194335938 134.0319061279297" stroke-width="2.0" fill="none" stroke="rgb(0, 0, 0)" stroke-opacity="1" stroke-linecap="round" stroke-linejoin="round"/>
    <path d="M 192.62832641601562 163.72555541992188 C 194.1089630126953 154.51336669921875 190.15660095214844 162.5504913330078 210.80181884765625 155.9103240966797" stroke-width="2.0" fill="none" stroke="rgb(0, 0, 0)" stroke-opacity="1" stroke-linecap="round" stroke-linejoin="round"/>
    <path d="M 181.77952575683594 194.20077514648438 C 187.35899353027344 191.6698455810547 208.1328887939453 210.14031982421875 179.85504150390625 196.380615234375" stroke-width="2.0" fill="none" stroke="rgb(0, 0, 0)" stroke-opacity="1" stroke-linecap="round" stroke-linejoin="round"/>
    <path d="M 56.217994689941406 74.88290405273438 C 41.13896179199219 87.071533203125 16.43192481994629 64.14868927001953 32.24347686767578 57.657718658447266" stroke-width="2.0" fill="none" stroke="rgb(0, 0, 0)" stroke-opacity="1" stroke-linecap="round" stroke-linejoin="round"/>
    <path d="M 25.017580032348633 87.9642333984375 C 16.671287536621094 70.17549133300781 -1.8981741666793823 66.88336181640625 -4.943548202514648 81.23907470703125 C -14.865069389343262 77.99542999267578 -10.257883071899414 110.62370300292969 2.6727135181427 91.58458709716797 C -14.26810359954834 75.7198486328125 15.723936080932617 72.3258056640625 23.254549026489258 90.69120788574219" stroke-width="2.0" fill="none" stroke="rgb(0, 0, 0)" stroke-opacity="1" stroke-linecap="round" stroke-linejoin="round"/>
    <path d="M 92.76976013183594 84.77759552001953 C 65.81828308105469 85.7635269165039 58.940364837646484 87.37198638916016 86.99559020996094 79.17058563232422 C 68.45551300048828 83.04067993164062 65.80633544921875 79.48743438720703 83.36515045166016 72.80438232421875" stroke-width="2.0" fill="none" stroke="rgb(0, 0, 0)" stroke-opacity="1" stroke-linecap="round" stroke-linejoin="round"/>
    <path d="M 29.725107192993164 44.47138977050781 C 28.187740325927734 23.538820266723633 36.857303619384766 25.631492614746094 25.845388412475586 32.75065612792969 C 36.81377029418945 19.411836624145508 24.633134841918945 13.80072021484375 40.734535217285156 43.865516662597656 C 26.43393898010254 43.73609161376953 27.251710891723633 46.01609420776367 24.734891891479492 31.827880859375" stroke-width="2.0" fill="none" stroke="rgb(0, 0, 0)" stroke-opacity="1" stroke-linecap="round" stroke-linejoin="round"/>
    <path d="M 20.646251678466797 21.114145278930664 C 36.636436462402344 45.560394287109375 39.33797836303711 40.09857940673828 11.582108497619629 21.737104415893555" stroke-width="2.0" fill="none" stroke="rgb(0, 0, 0)" stroke-opacity="1" stroke-linecap="round" stroke-linejoin="round"/>
    <path d="M 31.347850799560547 138.08135986328125 C 38.77757263183594 144.23876953125 47.28888702392578 145.76744079589844 48.05582809448242 119.70603942871094 C 42.38765335083008 122.95092010498047 28.322717666625977 112.08509826660156 55.56813430786133 130.400390625 C 89.114990234375 132.92259216308594 52.721927642822266 124.85073852539062 53.80329513549805 117.0172348022461" stroke-width="2.0" fill="none" stroke="rgb(0, 0, 0)" stroke-opacity="1" stroke-linecap="round" stroke-linejoin="round"/>
    <path d="M 224.9501190185547 140.80580139160156 C 214.72259521484375 167.95094299316406 250.9095001220703 161.4726104736328 192.1312255859375 168.17471313476562" stroke-width="2.0" fill="none" stroke="rgb(0, 0, 0)" stroke-opacity="1" stroke-linecap="round" stroke-linejoin="round"/>
    <path d="M 187.8551788330078 -7.867580890655518 C 196.2279510498047 4.650166988372803 194.69729614257812 -4.649096488952637 177.91793823242188 -7.093255996704102 C 184.35650634765625 6.248778343200684 194.80636596679688 -11.764429092407227 199.769287109375 13.283371925354004 C 191.21473693847656 -21.208389282226562 184.84815979003906 -17.008602142333984 189.1051025390625 -17.869178771972656" stroke-width="2.0" fill="none" stroke="rgb(0, 0, 0)" stroke-opacity="1" stroke-linecap="round" stroke-linejoin="round"/>
    <path d="M 181.32870483398438 164.95013427734375 C 146.76040649414062 183.1826934814453 163.598388671875 173.08743286132812 163.77728271484375 145.25079345703125" stroke-width="2.0" fill="none" stroke="rgb(0, 0, 0)" stroke-opacity="1" stroke-linecap="round" stroke-linejoin="round"/>
    <path d="M 80.20471954345703 182.83160400390625 C 89.42305755615234 204.9916534423828 93.123046875 206.808349609375 83.45138549804688 182.86216735839844" stroke-width="2.0" fill="none" stroke="rgb(0, 0, 0)" stroke-opacity="1" stroke-linecap="round" stroke-linejoin="round"/>
    <path d="M 117.17639923095703 104.24230194091797 C 101.85987091064453 90.9115219116211 68.73943328857422 91.60446166992188 69.15142822265625 98.08192443847656 C 64.94868469238281 89.47802734375 76.8470230102539 86.02696228027344 88.3282241821289 89.58840942382812" stroke-width="2.0" fill="none" stroke="rgb(0, 0, 0)" stroke-opacity="1" stroke-linecap="round" stroke-linejoin="round"/>
    <path d="M 118.21739196777344 112.0735092163086 C 134.88536071777344 94.26183319091797 178.09339904785156 114.16022491455078 117.91966247558594 116.0250015258789" stroke-width="2.0" fill="none" stroke="rgb(0, 0, 0)" stroke-opacity="1" stroke-linecap="round" stroke-linejoin="round"/>
    <path d="M 1.2178809642791748 208.923583984375 C 27.406858444213867 193.7714385986328 39.958595275878906 230.01194763183594 31.433456420898438 218.62753295898438 C 50.82481384277344 188.9464569091797 51.35182189941406 186.37705993652344 38.41434097290039 211.19793701171875" stroke-width="2.0" fill="none" stroke="rgb(0, 0, 0)" stroke-opacity="1" stroke-linecap="round" stroke-linejoin="round"/>
    <path d="M 155.82505798339844 92.24087524414062 C 151.0316925048828 120.6163330078125 153.40298461914062 91.88275146484375 142.37672424316406 87.69010162353516" stroke-width="2.0" fill="none" stroke="rgb(0, 0, 0)" stroke-opacity="1" stroke-linecap="round" stroke-linejoin="round"/>
    <path d="M 54.68280029296875 19.469947814941406 C 30.351778030395508 -16.602968215942383 24.860519409179688 -5.364133834838867 67.1988296508789 -2.2376644611358643 C 47.5460205078125 -3.429903745651245 47.26113510131836 -8.043376922607422 59.18402862548828 3.9440181255340576 C 64.43560028076172 10.164158821105957 63.87849426269531 22.2139949798584 53.41486358642578 43.01447677612305" stroke-width="2.0" fill="none" stroke="rgb(0, 0, 0)" stroke-opacity="1" stroke-linecap="round" stroke-linejoin="round"/>
    <path d="M 139.18020629882812 52.729373931884766 C 144.26124572753906 73.65579223632812 148.04786682128906 69.78709411621094 144.32351684570312 59.96986770629883" stroke-width="2.0" fill="none" stroke="rgb(0, 0, 0)" stroke-opacity="1" stroke-linecap="round" stroke-linejoin="round"/>
    <path d="M -6.10225248336792 11.90359115600586 C -5.782684803009033 3.7768948078155518 -6.497663497924805 1.5781500339508057 -4.000654697418213 5.334807872772217" stroke-width="2.0" fill="none" stroke="rgb(0, 0, 0)" stroke-opacity="1" stroke-linecap="round" stroke-linejoin="round"/>
    <path d="M -8.30007266998291 58.22291946411133 C 25.297863006591797 31.621135711669922 39.44814682006836 81.83224487304688 28.886531829833984 43.61077117919922 C 1.1380926370620728 30.593374252319336 1.9494140148162842 55.29378128051758 -11.190218925476074 65.80477905273438 C -16.903602600097656 59.600643157958984 2.8081612586975098 38.785099029541016 0.9695944786071777 24.777210235595703" stroke-width="2.0" fill="none" stroke="rgb(0, 0, 0)" stroke-opacity="1" stroke-linecap="round" stroke-linejoin="round"/>
    <path d="M 133.41212463378906 113.88931274414062 C 111.47628021240234 118.13265228271484 109.72718811035156 123.05630493164062 128.63079833984375 118.03629302978516 C 136.3307342529297 116.58208465576172 151.74844360351562 130.68093872070312 140.54470825195312 143.50579833984375" stroke-width="2.0" fill="none" stroke="rgb(0, 0, 0)" stroke-opacity="1" stroke-linecap="round" stroke-linejoin="round"/>
    <path d="M 20.534847259521484 105.23784637451172 C 19.247188568115234 99.26019287109375 29.645009994506836 90.19168853759766 22.58492660522461 92.12202453613281 C 6.554887294769287 72.00614166259766 -11.573687553405762 97.024658203125 -14.995366096496582 67.41551971435547 C 34.743675231933594 42.45241165161133 19.363609313964844 88.81210327148438 49.51201629638672 64.14097595214844" stroke-width="2.0" fill="none" stroke="rgb(0, 0, 0)" stroke-opacity="1" stroke-linecap="round" stroke-linejoin="round"/>
    <path d="M 80.06658935546875 -8.404541969299316 C 68.46888732910156 3.9333138465881348 47.58586120605469 -9.660560607910156 61.9354133605957 -3.3690125942230225 C 82.83677673339844 -5.031802177429199 73.47850799560547 -7.315227031707764 67.73446655273438 -11.003165245056152" stroke-width="2.0" fill="none" stroke="rgb(0, 0, 0)" stroke-opacity="1" stroke-linecap="round" stroke-linejoin="round"/>
    <path d="M 91.16521453857422 62.22607421875 C 84.63825988769531 35.97259521484375 61.337127685546875 38.0890007019043 103.57316589355469 39.68201446533203 C 92.0300521850586 40.36982727050781 83.62142181396484 48.330997467041016 79.14694213867188 30.51106071472168 C 76.80228424072266 51.032039642333984 91.14646911621094 37.936798095703125 114.5090560913086 32.17880630493164" stroke-width="2.0" fill="none" stroke="rgb(0, 0, 0)" stroke-opacity="1" stroke-linecap="round" stroke-linejoin="round"/>
    <path d="M 118.26512145996094 166.35231018066406 C 135.59922790527344 153.11105346679688 156.57339477539062 171.5336456298828 138.36605834960938 176.33425903320312 C 148.43988037109375 162.37576293945312 144.49624633789062 166.4670867919922 128.9552001953125 178.94668579101562" stroke-width="2.0" fill="none" stroke="rgb(0, 0, 0)" stroke-opacity="1" stroke-linecap="round" stroke-linejoin="round"/>
    <path d="M 114.91525268554688 74.5494384765625 C 123.06505584716797 100.41462707519531 115.18482971191406 84.75104522705078 101.312744140625 74.83609008789062" stroke-width="2.0" fill="none" stroke="rgb(0, 0, 0)" stroke-opacity="1" stroke-linecap="round" stroke-linejoin="round"/>
    <path d="M 100.18113708496094 67.97247314453125 C 91.90272521972656 75.02983856201172 98.4552993774414 70.48843383789062 90.57429504394531 67.33509826660156 C 107.26089477539062 78.06626892089844 111.41533660888672 63.90562057495117 110.81340026855469 75.626708984375 C 111.55286407470703 61.620140075683594 104.29121398925781 81.16909790039062 106.83149719238281 67.86588287353516" stroke-width="2.0" fill="none" stroke="rgb(0, 0, 0)" stroke-opacity="1" stroke-linecap="round" stroke-linejoin="round"/>
    <path d="M 35.3656120300293 215.29653930664062 C 50.91567611694336 203.58375549316406 45.27433776855469 185.16061401367188 47.1944580078125 196.47055053710938 C 37.56886291503906 196.4045867919922 62.74002456665039 196.63780212402344 41.046688079833984 179.34228515625" stroke-width="2.0" fill="none" stroke="rgb(0, 0, 0)" stroke-opacity="1" stroke-linecap="round" stroke-linejoin="round"/>
    <path d="M 224.1772918701172 -0.03426443040370941 C 219.6450958251953 12.876853942871094 201.19461059570312 -7.267619609832764 187.86541748046875 -17.981313705444336" stroke-width="2.0" fill="none" stroke="rgb(0, 0, 0)" stroke-opacity="1" stroke-linecap="round" stroke-linejoin="round"/>
    <path d="M 95.69641876220703 71.64324951171875 C 64.20928192138672 74.76115417480469 64.89279174804688 99.32564544677734 71.20580291748047 78.75499725341797 C 80.8788833618164 65.55113983154297 98.52622985839844 58.40428161621094 91.77684020996094 73.17987060546875 C 81.97998046875 72.717041015625 115.94701385498047 85.99242401123047 130.48406982421875 69.88101196289062" stroke-width="2.0" fill="none" stroke="rgb(0, 0, 0)" stroke-opacity="1" stroke-linecap="round" stroke-linejoin="round"/>
    <path d="M 113.86058044433594 165.0048370361328 C 106.57701873779297 182.1536407470703 117.46713256835938 174.651611328125 102.4468994140625 175.77081298828125 C 107.71847534179688 185.8478546142578 128.5673370361328 188.48556518554688 141.69491577148438 164.2464599609375 C 145.0651092529297 210.21292114257812 127.27608489990234 203.99012756347656 141.02601623535156 223.95579528808594" stroke-width="2.0" fill="none" stroke="rgb(0, 0, 0)" stroke-opacity="1" stroke-linecap="round" stroke-linejoin="round"/>
    <path d="M 188.25611877441406 1.0434508323669434 C 174.19203186035156 21.14432144165039 170.68975830078125 6.764951705932617 152.4139862060547 -5.824167728424072 C 168.43495178222656 20.061965942382812 158.16029357910156 6.900638580322266 169.0099639892578 31.669021606445312" stroke-width="2.0" fill="none" stroke="rgb(0, 0, 0)" stroke-opacity="1" stroke-linecap="round" stroke-linejoin="round"/>
    <path d="M 21.454206466674805 57.67306137084961 C -15.975616455078125 49.48377990722656 14.860955238342285 85.18872833251953 -10.445960998535156 62.03004837036133 C -4.6647868156433105 65.2023696899414 -6.595305919647217 63.35081100463867 -4.018385410308838 53.78902053833008" stroke-width="2.0" fill="none" stroke="rgb(0, 0, 0)" stroke-opacity="1" stroke-linecap="round" stroke-linejoin="round"/>
    <path d="M 56.071266174316406 69.31368255615234 C 26.39262580871582 79.21253967285156 20.948566436767578 67.16239166259766 29.68288803100586 70.56462860107422 C 32.635215759277344 57.284175872802734 27.89348030090332 73.69206237792969 27.551715850830078 67.56759643554688" stroke-width="2.0" fill="none" stroke="rgb(0, 0, 0)" stroke-opacity="1" stroke-linecap="round" stroke-linejoin="round"/>
    <path d="M 194.43251037597656 79.66027069091797 C 188.39065551757812 79.29119110107422 200.85557556152344 76.49617767333984 211.39039611816406 46.393516540527344 C 200.55711364746094 62.788673400878906 193.734619140625 70.43949890136719 174.99815368652344 54.090328216552734" stroke-width="2.0" fill="none" stroke="rgb(0, 0, 0)" stroke-opacity="1" stroke-linecap="round" stroke-linejoin="round"/>
    <path d="M 186.87582397460938 178.87368774414062 C 208.71038818359375 157.57078552246094 196.6166534423828 175.98040771484375 188.13119506835938 178.96188354492188 C 220.6527862548828 163.931884765625 190.67489624023438 151.60809326171875 182.6825714111328 189.9014434814453" stroke-width="2.0" fill="none" stroke="rgb(0, 0, 0)" stroke-opacity="1" stroke-linecap="round" stroke-linejoin="round"/>
    <path d="M 82.2789306640625 120.28422546386719 C 118.57257843017578 107.2900619506836 86.35210418701172 93.8844223022461 116.28125 111.22962188720703 C 109.13111877441406 91.97161102294922 83.92298126220703 102.42111206054688 75.14045715332031 107.81299591064453 C 65.44686126708984 116.91023254394531 74.6602554321289 93.85529327392578 69.82220458984375 103.16301727294922" stroke-width="2.0" fill="none" stroke="rgb(0, 0, 0)" stroke-opacity="1" stroke-linecap="round" stroke-linejoin="round"/>
    <path d="M 34.46718978881836 99.36337280273438 C 39.95194625854492 92.99668884277344 64.13965606689453 127.62431335449219 45.639122009277344 96.12117004394531 C 46.90428161621094 94.1126937866211 44.502925872802734 98.4843978881836 27.15485954284668 69.57157135009766" stroke-width="2.0" fill="none" stroke="rgb(0, 0, 0)" stroke-opacity="1" stroke-linecap="round" stroke-linejoin="round"/>
    <path d="M 92.30107879638672 218.44021606445312 C 94.41995239257812 196.25653076171875 97.9360580444336 223.1573944091797 88.66519927978516 187.28848266601562 C 69.63855743408203 189.35610961914062 46.835479736328125 215.41258239746094 52.519832611083984 206.2309112548828 C 73.10218811035156 183.3321533203125 64.6590576171875 194.11019897460938 71.65339660644531 185.33624267578125" stroke-width="2.0" fill="none" stroke="rgb(0, 0, 0)" stroke-opacity="1" stroke-linecap="round" stroke-linejoin="round"/>
    <path d="M 82.5643081665039 159.93057250976562 C 110.40306091308594 141.12359619140625 128.67466735839844 119.99937438964844 83.01055908203125 127.45541381835938 C 96.02816009521484 145.1650848388672 89.4461898803711 138.58689880371094 124.58334350585938 133.5731964111328 C 88.07437896728516 125.9743881225586 67.81849670410156 131.73519897460938 45.51355743408203 127.0188217163086" stroke-width="2.0" fill="none" stroke="rgb(0, 0, 0)" stroke-opacity="1" stroke-linecap="round" stroke-linejoin="round"/>
    <path d="M 75.07112884521484 38.230262756347656 C 47.75154113769531 51.697296142578125 62.1867790222168 43.378692626953125 58.73631286621094 13.82523250579834" stroke-width="2.0" fill="none" stroke="rgb(0, 0, 0)" stroke-opacity="1" stroke-linecap="round" stroke-linejoin="round"/>
    <path d="M 220.888671875 174.28968811035156 C 233.4254913330078 165.47886657714844 226.30638122558594 167.87547302246094 226.8028564453125 154.36996459960938" stroke-width="2.0" fill="none" stroke="rgb(0, 0, 0)" stroke-opacity="1" stroke-linecap="round" stroke-linejoin="round"/>
    <path d="M 81.76821899414062 211.46607971191406 C 99.05853271484375 219.7489013671875 92.47590637207031 191.9404754638672 53.664852142333984 212.81732177734375 C 55.47650909423828 226.2563018798828 49.952816009521484 222.88815307617188 55.508750915527344 237.8582000732422 C 46.19480514526367 230.21624755859375 50.123966217041016 232.16070556640625 27.814603805541992 229.04364013671875" stroke-width="2.0" fill="none" stroke="rgb(0, 0, 0)" stroke-opacity="1" stroke-linecap="round" stroke-linejoin="round"/>
    <path d="M 211.74075317382812 48.56470489501953 C 186.89022827148438 66.50220489501953 192.8440399169922 67.13941955566406 210.7335968017578 43.026206970214844" stroke-width="2.0" fill="none" stroke="rgb(0, 0, 0)" stroke-opacity="1" stroke-linecap="round" stroke-linejoin="round"/>
    <path d="M 199.28408813476562 93.22315979003906 C 218.66310119628906 115.1219482421875 228.5353546142578 70.14942932128906 224.8363037109375 105.88724517822266 C 216.7371063232422 130.98707580566406 236.8668670654297 135.82933044433594 249.7876434326172 132.31314086914062" stroke-width="2.0" fill="none" stroke="rgb(0, 0, 0)" stroke-opacity="1" stroke-linecap="round" stroke-linejoin="round"/>
    <path d="M 121.87276458740234 7.827375888824463 C 99.45294952392578 39.16252517700195 94.77798461914062 29.45061492919922 132.1448516845703 23.87150764465332" stroke-width="2.0" fill="none" stroke="rgb(0, 0, 0)" stroke-opacity="1" stroke-linecap="round" stroke-linejoin="round"/>
    <path d="M 214.8237762451172 59.20600891113281 C 216.25303649902344 90.62265014648438 248.72372436523438 79.59585571289062 261.9339294433594 68.80361938476562 C 234.19009399414062 68.54351043701172 233.83042907714844 74.76585388183594 234.35174560546875 81.85940551757812 C 242.53155517578125 80.52506256103516 241.86355590820312 72.24760437011719 234.43263244628906 70.38628387451172" stroke-width="2.0" fill="none" stroke="rgb(0, 0, 0)" stroke-opacity="1" stroke-linecap="round" stroke-linejoin="round"/>
    <path d="M 137.8075408935547 65.20726776123047 C 183.50704956054688 99.7843017578125 155.16183471679688 108.37027740478516 144.77072143554688 68.74559020996094 C 139.5267791748047 44.004966735839844 140.10177612304688 18.357938766479492 139.86422729492188 71.80762481689453" stroke-width="2.0" fill="none" stroke="rgb(0, 0, 0)" stroke-opacity="1" stroke-linecap="round" stroke-linejoin="round"/>
    <path d="M 71.98665618896484 37.243682861328125 C 89.0433578491211 36.1123046875 110.45501708984375 16.546123504638672 99.208984375 0.5032196640968323 C 114.80998229980469 11.026809692382812 125.25885009765625 7.455202102661133 103.95577239990234 5.448922157287598 C 124.20246887207031 8.319437980651855 119.68692016601562 -3.76316499710083 146.68649291992188 0.7484835386276245" stroke-width="2.0" fill="none" stroke="rgb(0, 0, 0)" stroke-opacity="1" stroke-linecap="round" stroke-linejoin="round"/>
    <path d="M 230.3204803466797 182.20526123046875 C 224.83412170410156 193.5334014892578 228.80979919433594 186.95582580566406 230.31167602539062 171.472412109375 C 220.22515869140625 192.13436889648438 220.75965881347656 200.35438537597656 231.36598205566406 212.97711181640625 C 228.30511474609375 211.66281127929688 232.760498046875 191.7655792236328 200.63839721679688 214.77886962890625" stroke-width="2.0" fill="none" stroke="rgb(0, 0, 0)" stroke-opacity="1" stroke-linecap="round" stroke-linejoin="round"/>
    <path d="M 180.8592529296875 175.25732421875 C 164.5218048095703 181.54266357421875 166.453857421875 172.14877319335938 151.45425415039062 169.955322265625 C 152.48541259765625 159.3910675048828 138.94775390625 184.51405334472656 188.0157470703125 169.79226684570312" stroke-width="2.0" fill="none" stroke="rgb(0, 0, 0)" stroke-opacity="1" stroke-linecap="round" stroke-linejoin="round"/>
    <path d="M 90.46398162841797 -3.6904170513153076 C 113.81500244140625 1.3106982707977295 108.88768005371094 -8.557072639465332 108.3973388671875 -20.894330978393555" stroke-width="2.0" fill="none" stroke="rgb(0, 0, 0)" stroke-opacity="1" stroke-linecap="round" stroke-linejoin="round"/>
    <path d="M 61.08113479614258 22.23330307006836 C 55.46897506713867 -11.204873085021973 27.807558059692383 0.7850289940834045 61.33488845825195 -6.266837120056152 C 52.3635139465332 -2.4260573387145996 73.39486694335938 9.174698829650879 84.09716033935547 -2.5461490154266357 C 78.69584655761719 -1.4181522130966187 63.164390563964844 -10.421229362487793 70.98998260498047 3.212735176086426" stroke-width="2.0" fill="none" stroke="rgb(0, 0, 0)" stroke-opacity="1" stroke-linecap="round" stroke-linejoin="round"/>
    <path d="M 32.125675201416016 4.997365474700928 C 35.81878662109375 15.579887390136719 24.536046981811523 19.014694213867188 28.2563533782959 29.91281509399414 C 28.214847564697266 11.905281066894531 51.5478630065918 16.764019012451172 36.200443267822266 -10.204566955566406 C 43.729026794433594 -4.3017683029174805 35.86259078979492 8.55285358428955 17.322750091552734 -4.851326942443848" stroke-width="2.0" fill="none" stroke="rgb(0, 0, 0)" stroke-opacity="1" stroke-linecap="round" stroke-linejoin="round"/>
    <path d="M 106.32127380371094 185.19903564453125 C 99.68851470947266 192.7263641357422 102.11840057373047 207.58401489257812 116.39371490478516 168.8778076171875 C 104.9840087890625 175.35296630859375 96.46066284179688 184.12179565429688 122.6510009765625 172.514404296875" stroke-width="2.0" fill="none" stroke="rgb(0, 0, 0)" stroke-opacity="1" stroke-linecap="round" stroke-linejoin="round"/>
    <path d="M 10.019371032714844 149.70118713378906 C -7.7529683113098145 135.03433227539062 -14.950723648071289 147.77285766601562 18.562129974365234 148.3460693359375 C 6.460916519165039 147.7574462890625 -12.401993751525879 156.4058380126953 -12.88863468170166 152.27606201171875" stroke-width="2.0" fill="none" stroke="rgb(0, 0, 0)" stroke-opacity="1" stroke-linecap="round" stroke-linejoin="round"/>
    <path d="M 226.28611755371094 53.64449691772461 C 214.08460998535156 75.636474609375 241.846923828125 87.42656707763672 215.42173767089844 78.31403350830078" stroke-width="2.0" fill="none" stroke="rgb(0, 0, 0)" stroke-opacity="1" stroke-linecap="round" stroke-linejoin="round"/>
    <path d="M 200.76856994628906 139.9385528564453 C 224.20797729492188 135.0154571533203 198.8229217529297 140.75184631347656 189.97323608398438 142.8917694091797 C 175.8630828857422 120.5797119140625 155.10060119628906 114.05631256103516 186.05499267578125 143.17494201660156 C 170.28778076171875 118.7397689819336 157.75491333007812 124.30535888671875 214.46438598632812 127.82964324951172" stroke-width="2.0" fill="none" stroke="rgb(0, 0, 0)" stroke-opacity="1" stroke-linecap="round" stroke-linejoin="round"/>
    <path d="M 206.3641357421875 101.48360443115234 C 197.62188720703125 97.56766510009766 191.38294982910156 76.76480102539062 197.80572509765625 83.77180480957031" stroke-width="2.0" fill="none" stroke="rgb(0, 0, 0)" stroke-opacity="1" stroke-linecap="round" stroke-linejoin="round"/>
    <path d="M 196.7248077392578 25.777427673339844 C 229.4585418701172 33.838478088378906 201.2357940673828 31.611181259155273 218.33604431152344 40.209678649902344 C 174.79879760742188 48.269832611083984 167.00341796875 33.49586486816406 172.5635223388672 44.6965217590332 C 178.79684448242188 43.728153228759766 182.47430419921875 43.82257843017578 175.0082550048828 45.732948303222656" stroke-width="2.0" fill="none" stroke="rgb(0, 0, 0)" stroke-opacity="1" stroke-linecap="round" stroke-linejoin="round"/>
    <path d="M 67.89568328857422 92.72102355957031 C 109.97882080078125 81.24877166748047 111.80059814453125 104.78993225097656 116.50068664550781 102.8009033203125 C 115.89614868164062 101.02442169189453 110.89833068847656 78.2226791381836 73.66019439697266 78.90265655517578" stroke-width="2.0" fill="none" stroke="rgb(0, 0, 0)" stroke-opacity="1" stroke-linecap="round" stroke-linejoin="round"/>
    <path d="M 185.62863159179688 106.43708801269531 C 171.83334350585938 120.54533386230469 136.9687042236328 122.28913116455078 150.90982055664062 114.56278991699219 C 147.59237670898438 104.86712646484375 149.5878143310547 143.50994873046875 176.9426727294922 121.63636016845703 C 128.14962768554688 137.42144775390625 172.28273010253906 96.08185577392578 117.91482543945312 113.51041412353516" stroke-width="2.0" fill="none" stroke="rgb(0, 0, 0)" stroke-opacity="1" stroke-linecap="round" stroke-linejoin="round"/>
    <path d="M 32.18199157714844 61.1352424621582 C 29.79682731628418 20.320728302001953 7.208323001861572 16.63979721069336 -2.086486577987671 21.038707733154297 C -1.0132694244384766 -7.125877380371094 29.5473575592041 -17.09076499938965 34.87939453125 40.94930648803711 C -14.153120994567871 49.276893615722656 -16.56693458557129 64.53016662597656 10.08076286315918 56.44020462036133" stroke-width="2.0" fill="none" stroke="rgb(0, 0, 0)" stroke-opacity="1" stroke-linecap="round" stroke-linejoin="round"/>
    <path d="M 117.3996810913086 186.4481658935547 C 97.3972396850586 186.7079315185547 101.181640625 194.75341796875 110.73920440673828 202.41566467285156 C 98.65702819824219 185.96807861328125 95.7220687866211 189.2574462890625 126.75016021728516 205.7392120361328" stroke-width="2.0" fill="none" stroke="rgb(0, 0, 0)" stroke-opacity="1" stroke-linecap="round" stroke-linejoin="round"/>
    <path d="M 109.42877960205078 156.11190795898438 C 113.95535278320312 168.66358947753906 125.08845520019531 178.171875 112.55314636230469 172.15623474121094 C 131.53970336914062 167.95574951171875 146.42788696289062 156.99542236328125 139.60284423828125 176.20700073242188" stroke-width="2.0" fill="none" stroke="rgb(0, 0, 0)" stroke-opacity="1" stroke-linecap="round" stroke-linejoin="round"/>
    <path d="M 56.4504508972168 38.88756561279297 C 52.37910842895508 65.04270935058594 69.8851318359375 23.225400924682617 67.60591888427734 -2.044019937515259 C 77.85144805908203 -16.368988037109375 75.064453125 24.979217529296875 57.85968017578125 49.26814270019531 C 91.596435546875 15.655117988586426 67.54772186279297 48.31618118286133 75.49504089355469 30.85587501525879" stroke-width="2.0" fill="none" stroke="rgb(0, 0, 0)" stroke-opacity="1" stroke-linecap="round" stroke-linejoin="round"/>
    <path d="M 35.433990478515625 141.1977996826172 C 36.4268684387207 160.66558837890625 38.5598258972168 140.42874145507812 4.508553981781006 143.3075714111328" stroke-width="2.0" fill="none" stroke="rgb(0, 0, 0)" stroke-opacity="1" stroke-linecap="round" stroke-linejoin="round"/>
    <path d="M 36.595211029052734 114.9007797241211 C 67.04523468017578 123.46353149414062 40.78141403198242 94.9056396484375 24.65342903137207 108.74335479736328" stroke-width="2.0" fill="none" stroke="rgb(0, 0, 0)" stroke-opacity="1" stroke-linecap="round" stroke-linejoin="round"/>
    <path d="M 42.216651916503906 121.22578430175781 C 51.253211975097656 125.7184829711914 59.36732864379883 122.85348510742188 97.96356201171875 137.15672302246094 C 66.66526794433594 121.46041107177734 49.05537414550781 123.86653137207031 61.067291259765625 116.98700714111328" stroke-width="2.0" fill="none" stroke="rgb(0, 0, 0)" stroke-opacity="1" stroke-linecap="round" stroke-linejoin="round"/>
    <path d="M 112.83390045166016 169.2041015625 C 105.42613220214844 179.933349609375 114.6725845336914 175.1588592529297 115.29246520996094 166.07241821289062 C 108.5166244506836 172.1397705078125 104.86570739746094 179.43975830078125 123.78118133544922 152.3114776611328" stroke-width="2.0" fill="none" stroke="rgb(0, 0, 0)" stroke-opacity="1" stroke-linecap="round" stroke-linejoin="round"/>
    <path d="M 115.79871368408203 134.58518981933594 C 100.34383392333984 151.27415466308594 119.3848648071289 134.88075256347656 111.49779510498047 151.01229858398438 C 117.76393127441406 132.8871612548828 118.5740966796875 121.33560180664062 143.37445068359375 137.00082397460938" stroke-width="2.0" fill="none" stroke="rgb(0, 0, 0)" stroke-opacity="1" stroke-linecap="round" stroke-linejoin="round"/>
    <path d="M -2.053879499435425 127.04309844970703 C 9.587297439575195 116.34423828125 -8.897575378417969 108.95903778076172 -3.9546566009521484 59.826358795166016 C -19.04587745666504 105.64981842041016 -15.379682540893555 98.81427001953125 -22.472461700439453 89.3292007446289" stroke-width="2.0" fill="none" stroke="rgb(0, 0, 0)" stroke-opacity="1" stroke-linecap="round" stroke-linejoin="round"/>
    <path d="M 106.15280151367188 102.32415008544922 C 109.78726196289062 114.99954986572266 99.27017974853516 125.40345001220703 101.40504455566406 119.89250946044922 C 79.62323760986328 119.7520523071289 64.3839340209961 142.9352569580078 118.05309295654297 133.5310821533203 C 75.68476867675781 132.471923828125 48.864227294921875 126.26164245605469 51.01665115356445 117.64571380615234" stroke-width="2.0" fill="none" stroke="rgb(0, 0, 0)" stroke-opacity="1" stroke-linecap="round" stroke-linejoin="round"/>
    <path d="M 212.46224975585938 32.424781799316406 C 184.11782836914062 31.219310760498047 175.54917907714844 43.808509826660156 180.59744262695312 30.548315048217773 C 206.72467041015625 12.19417953491211 210.17791748046875 20.460905075073242 190.73236083984375 -12.785064697265625" stroke-width="2.0" fill="none" stroke="rgb(0, 0, 0)" stroke-opacity="1" stroke-linecap="round" stroke-linejoin="round"/>
    <path d="M 137.83181762695312 225.42025756835938 C 101.70811462402344 201.37928771972656 99.40055084228516 228.04571533203125 89.7274398803711 216.93096923828125 C 104.10082244873047 242.18446350097656 106.58528900146484 225.54640197753906 87.74488830566406 225.16506958007812 C 117.39448547363281 215.38363647460938 111.65254211425781 221.75709533691406 152.43890380859375 228.14202880859375" stroke-width="2.0" fill="none" stroke="rgb(0, 0, 0)" stroke-opacity="1" stroke-linecap="round" stroke-linejoin="round"/>
    <path d="M 180.95477294921875 224.8545379638672 C 211.9829864501953 216.3476104736328 204.66761779785156 239.35504150390625 199.59779357910156 230.59181213378906 C 213.23692321777344 220.48487854003906 228.2108917236328 220.53756713867188 223.8600616455078 231.5903778076172" stroke-width="2.0" fill="none" stroke="rgb(0, 0, 0)" stroke-opacity="1" stroke-linecap="round" stroke-linejoin="round"/>
    <path d="M 72.5743408203125 82.07697296142578 C 68.82975006103516 57.15672302246094 84.37836456298828 70.98775482177734 69.23480987548828 39.182613372802734 C 75.02316284179688 38.86300277709961 69.22325134277344 28.810047149658203 89.10021209716797 15.699296951293945" stroke-width="2.0" fill="none" stroke="rgb(0, 0, 0)" stroke-opacity="1" stroke-linecap="round" stroke-linejoin="round"/>
    <path d="M 81.52155303955078 -0.016279391944408417 C 46.032379150390625 4.54791784286499 60.66244888305664 -18.469083786010742 62.31453323364258 18.251995086669922" stroke-width="2.0" fill="none" stroke="rgb(0, 0, 0)" stroke-opacity="1" stroke-linecap="round" stroke-linejoin="round"/>
    <path d="M 164.2428436279297 112.49897766113281 C 127.60462951660156 125.84046173095703 164.79931640625 124.88468170166016 172.9841766357422 117.22210693359375 C 165.04510498046875 123.14926147460938 174.8341827392578 120.81233978271484 169.51341247558594 126.26695251464844 C 176.529052734375 138.11956787109375 185.72825622558594 134.34620666503906 177.21957397460938 155.5172576904297" stroke-width="2.0" fill="none" stroke="rgb(0, 0, 0)" stroke-opacity="1" stroke-linecap="round" stroke-linejoin="round"/>
    <path d="M 191.7041473388672 170.1040802001953 C 222.6454620361328 175.14764404296875 231.3230438232422 174.85003662109375 215.99160766601562 180.08612060546875 C 185.69570922851562 161.78289794921875 201.7880096435547 162.8711395263672 215.20144653320312 191.2618865966797 C 204.71646118164062 216.13356018066406 176.2329864501953 222.88742065429688 225.4618377685547 215.6524200439453" stroke-width="2.0" fill="none" stroke="rgb(0, 0, 0)" stroke-opacity="1" stroke-linecap="round" stroke-linejoin="round"/>
    <path d="M 202.05819702148438 103.7983169555664 C 209.1766357421875 123.42738342285156 215.48861694335938 110.95803833007812 194.51829528808594 118.77397155761719 C 198.93499755859375 120.9713134765625 209.97752380371094 112.31172943115234 188.7738037109375 120.03557586669922" stroke-width="2.0" fill="none" stroke="rgb(0, 0, 0)" stroke-opacity="1" stroke-linecap="round" stroke-linejoin="round"/>
    <path d="M 163.5325164794922 20.4970703125 C 172.32260131835938 39.59370422363281 168.10791015625 19.3062686920166 159.3160858154297 32.26543426513672 C 113.77261352539062 64.54167175292969 165.84190368652344 31.64730453491211 150.02450561523438 -0.4471144378185272 C 131.46591186523438 6.738250255584717 114.77958679199219 -6.2228169441223145 176.44412231445312 0.7201516032218933" stroke-width="2.0" fill="none" stroke="rgb(0, 0, 0)" stroke-opacity="1" stroke-linecap="round" stroke-linejoin="round"/>
    <path d="M 135.4346160888672 91.45637512207031 C 167.7371063232422 105.34230041503906 142.03302001953125 107.20415496826172 145.0489959716797 134.14144897460938" stroke-width="2.0" fill="none" stroke="rgb(0, 0, 0)" stroke-opacity="1" stroke-linecap="round" stroke-linejoin="round"/>
    <path d="M -7.866249084472656 149.2106170654297 C -1.4901944398880005 135.17880249023438 39.62084197998047 134.7795867919922 35.271671295166016 152.7069854736328 C -21.612247467041016 137.16961669921875 8.996109008789062 139.816650390625 30.677858352661133 170.90252685546875 C 37.397132873535156 141.48402404785156 26.165882110595703 145.84368896484375 33.95159912109375 150.75962829589844" stroke-width="2.0" fill="none" stroke="rgb(0, 0, 0)" stroke-opacity="1" stroke-linecap="round" stroke-linejoin="round"/>
    <path d="M 227.52423095703125 16.753192901611328 C 239.1317138671875 2.839303970336914 217.28277587890625 10.959692001342773 224.45008850097656 33.70709991455078 C 231.33253479003906 49.980316162109375 234.2657012939453 45.63002014160156 233.75486755371094 49.90813446044922" stroke-width="2.0" fill="none" stroke="rgb(0, 0, 0)" stroke-opacity="1" stroke-linecap="round" stroke-linejoin="round"/>
    <path d="M 230.0653839111328 117.23653411865234 C 221.20411682128906 133.68458557128906 198.37510681152344 141.6273651123047 190.20074462890625 163.63259887695312" stroke-width="2.0" fill="none" stroke="rgb(0, 0, 0)" stroke-opacity="1" stroke-linecap="round" stroke-linejoin="round"/>
    <path d="M 54.40433120727539 218.62493896484375 C 87.96865844726562 208.52691650390625 90.07671356201172 230.86080932617188 92.29443359375 246.1521453857422" stroke-width="2.0" fill="none" stroke="rgb(0, 0, 0)" stroke-opacity="1" stroke-linecap="round" stroke-linejoin="round"/>
    <path d="M 197.6289825439453 203.92446899414062 C 194.21307373046875 192.28929138183594 181.48953247070312 180.92269897460938 178.0426025390625 200.7560272216797 C 199.40394592285156 210.24676513671875 202.92703247070312 197.61795043945312 189.4610137939453 182.89015197753906 C 181.35003662109375 176.19186401367188 183.8686981201172 168.8868865966797 215.46798706054688 175.5351104736328" stroke-width="2.0" fill="none" stroke="rgb(0, 0, 0)" stroke-opacity="1" stroke-linecap="round" stroke-linejoin="round"/>
    <path d="M 19.64122200012207 125.23528289794922 C 37.059444427490234 120.40187072753906 41.37984848022461 131.0189666748047 42.28366470336914 152.82888793945312" stroke-width="2.0" fill="none" stroke="rgb(0, 0, 0)" stroke-opacity="1" stroke-linecap="round" stroke-linejoin="round"/>
    <path d="M 90.70381164550781 197.95729064941406 C 84.59867858886719 187.4037322998047 28.525596618652344 221.06124877929688 61.147979736328125 213.1840362548828 C 108.13137817382812 198.52281188964844 104.26414489746094 244.368408203125 48.137794494628906 223.23776245117188 C 66.61551666259766 216.3903350830078 79.78417205810547 221.3340301513672 95.48934936523438 233.07913208007812" stroke-width="2.0" fill="none" stroke="rgb(0, 0, 0)" stroke-opacity="1" stroke-linecap="round" stroke-linejoin="round"/>
    <path d="M 194.31492614746094 87.54933166503906 C 200.42300415039062 107.294189453125 205.66502380371094 113.57772827148438 200.46607971191406 102.1419677734375" stroke-width="2.0" fill="none" stroke="rgb(0, 0, 0)" stroke-opacity="1" stroke-linecap="round" stroke-linejoin="round"/>
    <path d="M 118.52029418945312 128.42234802246094 C 128.67324829101562 123.08123016357422 151.16192626953125 132.16790771484375 140.29354858398438 145.60353088378906 C 148.69363403320312 134.9490966796875 139.12539672851562 117.44454193115234 117.9561767578125 124.75045013427734" stroke-width="2.0" fill="none" stroke="rgb(0, 0, 0)" stroke-opacity="1" stroke-linecap="round" stroke-linejoin="round"/>
    <path d="M 73.23967742919922 26.82575798034668 C 90.59648132324219 -18.9433650970459 92.24593353271484 -0.041081637144088745 79.82188415527344 -5.785549163818359" stroke-width="2.0" fill="none" stroke="rgb(0, 0, 0)" stroke-opacity="1" stroke-linecap="round" stroke-linejoin="round"/>
    <path d="M 169.85694885253906 226.1280975341797 C 137.0072784423828 217.28060913085938 158.09645080566406 229.37261962890625 168.3361358642578 225.2755584716797" stroke-width="2.0" fill="none" stroke="rgb(0, 0, 0)" stroke-opacity="1" stroke-linecap="round" stroke-linejoin="round"/>
    <path d="M 131.1856689453125 35.08250045776367 C 68.1399154663086 39.1331672668457 98.97515106201172 41.66911697387695 100.5838851928711 63.50310134887695 C 109.27842712402344 59.4808464050293 90.98094940185547 35.562740325927734 114.72936248779297 27.914304733276367" stroke-width="2.0" fill="none" stroke="rgb(0, 0, 0)" stroke-opacity="1" stroke-linecap="round" stroke-linejoin="round"/>
    <path d="M 32.822906494140625 77.86190032958984 C 21.097633361816406 52.31492614746094 26.33988380432129 75.50933074951172 27.204301834106445 86.3874282836914 C 21.677770614624023 107.58236694335938 21.638662338256836 79.40855407714844 10.875301361083984 98.1936264038086 C 16.989288330078125 88.0346450805664 29.7386417388916 94.70304870605469 18.946889877319336 93.3187484741211" stroke-width="2.0" fill="none" stroke="rgb(0, 0, 0)" stroke-opacity="1" stroke-linecap="round" stroke-linejoin="round"/>
    <path d="M -12.695028305053711 141.83023071289062 C -5.2514472007751465 142.8201446533203 8.339250564575195 128.95021057128906 31.889503479003906 134.2306671142578" stroke-width="2.0" fill="none" stroke="rgb(0, 0, 0)" stroke-opacity="1" stroke-linecap="round" stroke-linejoin="round"/>
    <path d="M 200.95985412597656 124.69430541992188 C 170.64437866210938 130.7570343017578 167.1768035888672 108.78731536865234 175.27023315429688 108.23678588867188 C 162.75823974609375 123.95145416259766 176.94931030273438 152.3068084716797 169.71253967285156 118.36100006103516 C 184.06173706054688 130.05068969726562 191.16207885742188 141.7473602294922 210.88169860839844 135.30477905273438" stroke-width="2.0" fill="none" stroke="rgb(0, 0, 0)" stroke-opacity="1" stroke-linecap="round" stroke-linejoin="round"/>
    <path d="M -4.369837760925293 3.307098388671875 C 20.083837509155273 -2.08779239654541 35.42974853515625 25.18016242980957 30.30557632446289 45.253578186035156 C 26.038684844970703 8.755199432373047 -6.366795063018799 5.759599208831787 -5.868980884552002 27.953258514404297" stroke-width="2.0" fill="none" stroke="rgb(0, 0, 0)" stroke-opacity="1" stroke-linecap="round" stroke-linejoin="round"/>
    <path d="M 218.923828125 154.0220184326172 C 194.83421325683594 152.91590881347656 182.30661010742188 179.12570190429688 198.63296508789062 159.97830200195312 C 186.83706665039062 161.75247192382812 189.29425048828125 167.00888061523438 199.28428649902344 190.52951049804688" stroke-width="2.0" fill="none" stroke="rgb(0, 0, 0)" stroke-opacity="1" stroke-linecap="round" stroke-linejoin="round"/>
    <path d="M 29.529523849487305 170.29067993164062 C 33.3511848449707 150.140625 0.5174204707145691 147.2737579345703 -7.99282693862915 148.94813537597656 C -2.320633888244629 117.13101959228516 36.86129379272461 119.40741729736328 43.695892333984375 153.287841796875" stroke-width="2.0" fill="none" stroke="rgb(0, 0, 0)" stroke-opacity="1" stroke-linecap="round" stroke-linejoin="round"/>
    <path d="M 30.21392822265625 33.57585144042969 C 53.260589599609375 19.854999542236328 57.56782531738281 34.185028076171875 59.128448486328125 34.3525505065918 C 28.195541381835938 30.927589416503906 37.85460662841797 29.59715461730957 38.019596099853516 62.158390045166016" stroke-width="2.0" fill="none" stroke="rgb(0, 0, 0)" stroke-opacity="1" stroke-linecap="round" stroke-linejoin="round"/>
    <path d="M 0.9960086345672607 191.22210693359375 C 9.55891227722168 180.0005645751953 31.567842483520508 202.34799194335938 34.41758346557617 214.18634033203125 C 35.999755859375 219.73997497558594 43.02351760864258 195.21096801757812 10.712435722351074 184.05877685546875 C 7.2805962562561035 182.15345764160156 36.844749450683594 185.7684326171875 36.62617874145508 186.06182861328125" stroke-width="2.0" fill="none" stroke="rgb(0, 0, 0)" stroke-opacity="1" stroke-linecap="round" stroke-linejoin="round"/>
    <path d="M 76.10494232177734 108.07075500488281 C 100.09033966064453 102.31897735595703 103.00358581542969 98.13203430175781 77.24404907226562 116.06270599365234" stroke-width="2.0" fill="none" stroke="rgb(0, 0, 0)" stroke-opacity="1" stroke-linecap="round" stroke-linejoin="round"/>
    <path d="M 26.307762145996094 177.45787048339844 C 25.592042922973633 180.6996612548828 16.257902145385742 170.62844848632812 23.494903564453125 176.8356475830078" stroke-width="2.0" fill="none" stroke="rgb(0, 0, 0)" stroke-opacity="1" stroke-linecap="round" stroke-linejoin="round"/>
    <path d="M 105.04597473144531 33.493858337402344 C 107.1495361328125 9.195119857788086 107.37512969970703 4.797048091888428 93.20091247558594 -2.9961607456207275 C 92.87725067138672 11.192525863647461 74.6896743774414 16.622610092163086 84.09783172607422 14.839641571044922 C 96.18548583984375 5.942193031311035 95.94551849365234 -12.377297401428223 84.24686431884766 -26.996458053588867" stroke-width="2.0" fill="none" stroke="rgb(0, 0, 0)" stroke-opacity="1" stroke-linecap="round" stroke-linejoin="round"/>
    <path d="M 3.3199944496154785 147.35055541992188 C 8.89865493774414 141.32615661621094 35.233123779296875 190.64776611328125 16.991785049438477 171.0240020751953 C -5.152073383331299 174.62049865722656 6.640285491943359 190.1721649169922 -16.532941818237305 178.41864013671875 C 1.6700265407562256 177.71615600585938 -7.282683372497559 183.48072814941406 -3.5860977172851562 187.88983154296875" stroke-width="2.0" fill="none" stroke="rgb(0, 0, 0)" stroke-opacity="1" stroke-linecap="round" stroke-linejoin="round"/>
    <path d="M 195.5176239013672 106.81336975097656 C 191.70248413085938 121.74839782714844 162.73802185058594 113.02509307861328 183.6405792236328 133.3690643310547" stroke-width="2.0" fill="none" stroke="rgb(0, 0, 0)" stroke-opacity="1" stroke-linecap="round" stroke-linejoin="round"/>
    <path d="M 173.0994110107422 75.04779052734375 C 184.4267578125 36.29350662231445 162.69178771972656 56.826385498046875 176.34310913085938 79.4459228515625 C 183.70791625976562 64.5780029296875 164.86666870117188 91.96271514892578 173.86825561523438 59.36518859863281 C 175.11720275878906 67.45561218261719 185.88241577148438 55.50639724731445 178.8413543701172 71.75468444824219" stroke-width="2.0" fill="none" stroke="rgb(0, 0, 0)" stroke-opacity="1" stroke-linecap="round" stroke-linejoin="round"/>
    <path d="M 110.33728790283203 174.0760040283203 C 92.47245788574219 170.15850830078125 65.56344604492188 176.34877014160156 85.6379165649414 177.08596801757812 C 64.23341369628906 187.32786560058594 80.77079010009766 157.61077880859375 111.95258331298828 172.42160034179688" stroke-width="2.0" fill="none" stroke="rgb(0, 0, 0)" stroke-opacity="1" stroke-linecap="round" stroke-linejoin="round"/>
    <path d="M 142.41888427734375 1.9091483354568481 C 129.27369689941406 8.689643859863281 111.6319580078125 -16.249256134033203 113.60118865966797 -13.750470161437988 C 137.1195526123047 -9.952622413635254 153.28125 -5.4160637855529785 151.12059020996094 -7.459561824798584" stroke-width="2.0" fill="none" stroke="rgb(0, 0, 0)" stroke-opacity="1" stroke-linecap="round" stroke-linejoin="round"/>
    <path d="M 49.145042419433594 39.06923294067383 C 59.87529373168945 32.298828125 38.983726501464844 48.950416564941406 66.26538848876953 42.31338119506836 C 74.61577606201172 22.68260955810547 77.43820190429688 22.777210235595703 69.13404846191406 39.7322883605957 C 75.65666961669922 -0.5957581996917725 75.63574981689453 -15.151870727539062 63.70180130004883 -4.421366214752197" stroke-width="2.0" fill="none" stroke="rgb(0, 0, 0)" stroke-opacity="1" stroke-linecap="round" stroke-linejoin="round"/>
    <path d="M 120.2668685913086 100.548583984375 C 143.30577087402344 83.6148452758789 132.74961853027344 51.18137741088867 151.216552734375 64.20301818847656 C 140.48411560058594 49.76032257080078 134.93663024902344 57.89678955078125 137.33648681640625 71.2486801147461 C 127.57219696044922 54.73686599731445 138.3350067138672 48.47740173339844 167.58213806152344 35.729000091552734" stroke-width="2.0" fill="none" stroke="rgb(0, 0, 0)" stroke-opacity="1" stroke-linecap="round" stroke-linejoin="round"/>
    <path d="M 237.66970825195312 210.73269653320312 C 211.76052856445312 202.18551635742188 198.11598205566406 231.10862731933594 194.05526733398438 202.41921997070312 C 199.1132354736328 224.61476135253906 200.75067138671875 215.4564208984375 193.1676483154297 209.5796356201172" stroke-width="2.0" fill="none" stroke="rgb(0, 0, 0)" stroke-opacity="1" stroke-linecap="round" stroke-linejoin="round"/>
    <path d="M 211.28797912597656 40.933536529541016 C 215.16502380371094 81.69021606445312 202.8642120361328 77.85154724121094 207.58859252929688 77.33586883544922 C 213.3140869140625 89.72362518310547 231.26678466796875 74.26607513427734 229.0479736328125 89.58375549316406" stroke-width="2.0" fill="none" stroke="rgb(0, 0, 0)" stroke-opacity="1" stroke-linecap="round" stroke-linejoin="round"/>
    <path d="M 34.60329055786133 219.1050567626953 C 51.51338195800781 195.1544647216797 36.75572967529297 183.3551788330078 45.65639114379883 196.3927764892578 C 51.61553192138672 195.1436309814453 50.15581130981445 186.2880401611328 51.61949157714844 199.79855346679688 C 37.748836517333984 185.39085388183594 52.31168746948242 208.7386016845703 53.3498420715332 185.25022888183594" stroke-width="2.0" fill="none" stroke="rgb(0, 0, 0)" stroke-opacity="1" stroke-linecap="round" stroke-linejoin="round"/>
    <path d="M 27.427141189575195 116.05963897705078 C 51.192047119140625 108.66320037841797 38.330970764160156 137.51141357421875 85.94859313964844 125.95323181152344 C 53.242034912109375 140.70066833496094 44.11466979980469 124.71656799316406 38.085731506347656 118.19140625 C 72.25224304199219 130.0628662109375 53.353031158447266 112.60154724121094 68.31734466552734 129.0625" stroke-width="2.0" fill="none" stroke="rgb(0, 0, 0)" stroke-opacity="1" stroke-linecap="round" stroke-linejoin="round"/>
    <path d="M 0.19756050407886505 122.39140319824219 C 3.7498438358306885 103.08465576171875 -8.917595863342285 100.86237335205078 -11.612765312194824 91.55967712402344 C -8.6226806640625 110.65676879882812 -17.38831901550293 121.44487762451172 -24.2222957611084 131.0858154296875" stroke-width="2.0" fill="none" stroke="rgb(0, 0, 0)" stroke-opacity="1" stroke-linecap="round" stroke-linejoin="round"/>
    <path d="M 132.04969787597656 155.6568603515625 C 140.2156219482422 153.43679809570312 166.74517822265625 174.99395751953125 161.10202026367188 158.9904327392578 C 156.0662078857422 152.6110076904297 136.9422607421875 151.06588745117188 141.3934783935547 144.16357421875 C 142.65032958984375 157.1654052734375 173.8292236328125 172.78179931640625 156.10638427734375 148.1031036376953" stroke-width="2.0" fill="none" stroke="rgb(0, 0, 0)" stroke-opacity="1" stroke-linecap="round" stroke-linejoin="round"/>
    <path d="M 225.6731414794922 125.08634948730469 C 193.23995971679688 149.72921752929688 197.0897674560547 137.93800354003906 189.98098754882812 146.8655548095703 C 205.64773559570312 140.57589721679688 212.01373291015625 134.93661499023438 198.0099334716797 141.9964599609375 C 227.5953369140625 130.4456024169922 191.59059143066406 150.8868865966797 168.6175079345703 130.22067260742188" stroke-width="2.0" fill="none" stroke="rgb(0, 0, 0)" stroke-opacity="1" stroke-linecap="round" stroke-linejoin="round"/>
    <path d="M 26.972286224365234 186.8798828125 C 48.71017074584961 214.27560424804688 41.869625091552734 215.8488311767578 18.682415008544922 182.5066375732422 C 45.71755599975586 189.3177490234375 44.27299880981445 202.47853088378906 33.498634338378906 218.4441375732422 C 33.81987762451172 206.0248260498047 13.500452041625977 189.38084411621094 1.2235268354415894 195.1824493408203" stroke-width="2.0" fill="none" stroke="rgb(0, 0, 0)" stroke-opacity="1" stroke-linecap="round" stroke-linejoin="round"/>
    <path d="M 172.11546325683594 79.9966049194336 C 181.467041015625 115.4927749633789 161.62921142578125 101.3100814819336 147.39425659179688 120.6534652709961 C 166.4405059814453 123.27002716064453 176.17764282226562 121.04884338378906 172.3644561767578 110.51506042480469 C 168.83038330078125 117.89459991455078 182.47862243652344 110.10497283935547 171.30577087402344 118.06403350830078" stroke-width="2.0" fill="none" stroke="rgb(0, 0, 0)" stroke-opacity="1" stroke-linecap="round" stroke-linejoin="round"/>
    <path d="M 3.71567964553833 187.05201721191406 C 5.926919937133789 212.65396118164062 -8.677899360656738 213.74412536621094 -27.76280975341797 211.86483764648438 C -4.894924640655518 212.3937225341797 -4.66630744934082 220.37709045410156 -2.2025294303894043 228.8482666015625 C -8.624239921569824 226.2166290283203 29.237194061279297 208.5634002685547 35.452030181884766 220.55435180664062" stroke-width="2.0" fill="none" stroke="rgb(0, 0, 0)" stroke-opacity="1" stroke-linecap="round" stroke-linejoin="round"/>
    <path d="M 44.87348556518555 152.92030334472656 C 68.18199920654297 136.02647399902344 87.71302032470703 150.60337829589844 78.02103424072266 180.985595703125 C 75.97395324707031 162.14572143554688 86.78618621826172 149.76614379882812 53.216651916503906 157.21278381347656" stroke-width="2.0" fill="none" stroke="rgb(0, 0, 0)" stroke-opacity="1" stroke-linecap="round" stroke-linejoin="round"/>
    <path d="M 29.090730667114258 120.39573669433594 C 67.53470611572266 119.91416931152344 46.98345947265625 105.74127960205078 25.46596908569336 112.97077941894531" stroke-width="2.0" fill="none" stroke="rgb(0, 0, 0)" stroke-opacity="1" stroke-linecap="round" stroke-linejoin="round"/>
    <path d="M 176.5579071044922 48.82716369628906 C 208.975830078125 46.34104919433594 220.91012573242188 33.30485916137695 201.64566040039062 57.09356689453125" stroke-width="2.0" fill="none" stroke="rgb(0, 0, 0)" stroke-opacity="1" stroke-linecap="round" stroke-linejoin="round"/>
    <path d="M -5.850409507751465 182.33045959472656 C -12.558210372924805 183.19227600097656 9.025045394897461 169.90814208984375 -2.223315954208374 151.6977081298828 C -8.678879737854004 146.3325958251953 8.429752349853516 138.94810485839844 10.864723205566406 149.37107849121094" stroke-width="2.0" fill="none" stroke="rgb(0, 0, 0)" stroke-opacity="1" stroke-linecap="round" stroke-linejoin="round"/>
    <path d="M 131.12306213378906 155.2757110595703 C 152.63592529296875 163.6221160888672 148.05657958984375 172.03741455078125 148.2058563232422 160.69198608398438 C 133.93173217773438 136.73095703125 145.58274841308594 151.77976989746094 158.05294799804688 141.92677307128906" stroke-width="2.0" fill="none" stroke="rgb(0, 0, 0)" stroke-opacity="1" stroke-linecap="round" stroke-linejoin="round"/>
    <path d="M 74.76751708984375 169.8483123779297 C 86.33796691894531 147.32101440429688 73.44266510009766 144.05601501464844 61.87794876098633 138.6234588623047 C 67.31910705566406 126.48504638671875 84.21015167236328 147.62405395507812 76.32858276367188 157.70420837402344 C 90.43971252441406 155.68853759765625 53.455379486083984 149.58934020996094 77.90978240966797 159.30970764160156" stroke-width="2.0" fill="none" stroke="rgb(0, 0, 0)" stroke-opacity="1" stroke-linecap="round" stroke-linejoin="round"/>
    <path d="M 228.82203674316406 212.31114196777344 C 225.93359375 201.8994140625 223.2068634033203 203.4198760986328 231.6403045654297 181.50762939453125 C 229.17889404296875 194.3977813720703 229.07421875 208.123779296875 229.9996795654297 212.2732696533203" stroke-width="2.0" fill="none" stroke="rgb(0, 0, 0)" stroke-opacity="1" stroke-linecap="round" stroke-linejoin="round"/>
    <path d="M 228.17935180664062 123.15050506591797 C 212.80960083007812 143.22113037109375 220.07659912109375 143.9440460205078 192.75880432128906 158.40228271484375" stroke-width="2.0" fill="none" stroke="rgb(0, 0, 0)" stroke-opacity="1" stroke-linecap="round" stroke-linejoin="round"/>
    <path d="M 223.61764526367188 167.03497314453125 C 185.43777465820312 158.35977172851562 197.1019287109375 179.35244750976562 189.81484985351562 172.17779541015625 C 186.31649780273438 182.1605224609375 210.99850463867188 215.2412567138672 192.52828979492188 174.56211853027344" stroke-width="2.0" fill="none" stroke="rgb(0, 0, 0)" stroke-opacity="1" stroke-linecap="round" stroke-linejoin="round"/>
    <path d="M 158.04905700683594 66.76210021972656 C 204.1128692626953 60.22211456298828 171.97059631347656 65.7878189086914 158.97972106933594 70.02082824707031 C 124.20301818847656 67.68863677978516 136.11447143554688 43.57835388183594 169.98809814453125 47.08686828613281" stroke-width="2.0" fill="none" stroke="rgb(0, 0, 0)" stroke-opacity="1" stroke-linecap="round" stroke-linejoin="round"/>
    <path d="M 144.41989135742188 164.55296325683594 C 133.8021697998047 195.21865844726562 109.79924774169922 188.85389709472656 103.76968383789062 191.363037109375 C 143.64503479003906 203.92324829101562 142.1366729736328 163.0302276611328 142.9884490966797 168.2545166015625" stroke-width="2.0" fill="none" stroke="rgb(0, 0, 0)" stroke-opacity="1" stroke-linecap="round" stroke-linejoin="round"/>
    <path d="M 201.87322998046875 36.923580169677734 C 169.26513671875 42.18842315673828 170.99981689453125 36.31886291503906 176.2183074951172 47.158226013183594 C 173.55984497070312 31.884136199951172 183.17300415039062 26.15736961364746 175.57769775390625 50.904205322265625 C 194.62547302246094 58.184173583984375 236.3667449951172 37.962745666503906 201.20700073242188 33.056297302246094" stroke-width="2.0" fill="none" stroke="rgb(0, 0, 0)" stroke-opacity="1" stroke-linecap="round" stroke-linejoin="round"/>
    <path d="M 35.85016632080078 215.82313537597656 C 3.501277208328247 213.16119384765625 15.785780906677246 213.5198211669922 52.25025177001953 227.55636596679688" stroke-width="2.0" fill="none" stroke="rgb(0, 0, 0)" stroke-opacity="1" stroke-linecap="round" stroke-linejoin="round"/>
    <path d="M 191.8542938232422 52.609188079833984 C 207.68084716796875 41.7364501953125 221.1480255126953 48.6886100769043 217.6634521484375 28.077852249145508 C 210.0785369873047 51.65795135498047 227.92218017578125 40.2926139831543 195.5489501953125 37.991756439208984" stroke-width="2.0" fill="none" stroke="rgb(0, 0, 0)" stroke-opacity="1" stroke-linecap="round" stroke-linejoin="round"/>
    <path d="M 135.64132690429688 59.491695404052734 C 194.27774047851562 53.421966552734375 184.1964874267578 69.03121185302734 175.09169006347656 59.079307556152344 C 171.50767517089844 53.843162536621094 154.6214141845703 49.579978942871094 182.59664916992188 60.460086822509766" stroke-width="2.0" fill="none" stroke="rgb(0, 0, 0)" stroke-opacity="1" stroke-linecap="round" stroke-linejoin="round"/>
    <path d="M 196.90281677246094 215.31024169921875 C 193.9215545654297 195.57467651367188 198.55503845214844 206.73614501953125 196.5166473388672 211.20045471191406 C 199.95098876953125 200.95877075195312 199.6161651611328 191.84657287597656 199.1707763671875 193.78392028808594" stroke-width="2.0" fill="none" stroke="rgb(0, 0, 0)" stroke-opacity="1" stroke-linecap="round" stroke-linejoin="round"/>
    <path d="M 179.36224365234375 201.8201141357422 C 188.52488708496094 212.85494995117188 176.57801818847656 219.4575958251953 149.4046173095703 211.87213134765625" stroke-width="2.0" fill="none" stroke="rgb(0, 0, 0)" stroke-opacity="1" stroke-linecap="round" stroke-linejoin="round"/>
    <path d="M 107.79558563232422 179.76608276367188 C 118.36807250976562 155.4972381591797 115.21692657470703 169.22364807128906 106.39310455322266 196.8720703125 C 99.5562973022461 189.79249572753906 101.88450622558594 193.82937622070312 110.32843017578125 185.8933563232422 C 105.93624114990234 172.217529296875 102.04563903808594 173.29330444335938 110.9098892211914 180.8011016845703" stroke-width="2.0" fill="none" stroke="rgb(0, 0, 0)" stroke-opacity="1" stroke-linecap="round" stroke-linejoin="round"/>
    <path d="M 29.383914947509766 155.01170349121094 C 39.090232849121094 172.345703125 27.622802734375 199.0770263671875 22.229948043823242 180.2648468017578 C 32.64972686767578 175.40667724609375 25.019704818725586 165.99270629882812 27.219223022460938 166.8643798828125" stroke-width="2.0" fill="none" stroke="rgb(0, 0, 0)" stroke-opacity="1" stroke-linecap="round" stroke-linejoin="round"/>
    <path d="M 176.39642333984375 51.41986846923828 C 183.34304809570312 61.77156066894531 199.12428283691406 57.7548713684082 211.45986938476562 43.576812744140625 C 209.5210418701172 40.67206954956055 206.267333984375 66.53131103515625 216.29383850097656 37.87326431274414 C 215.6595458984375 38.55553436279297 201.60772705078125 33.867000579833984 230.44972229003906 35.36890411376953" stroke-width="2.0" fill="none" stroke="rgb(0, 0, 0)" stroke-opacity="1" stroke-linecap="round" stroke-linejoin="round"/>
    <path d="M 64.04918670654297 46.09309005737305 C 93.30381774902344 27.689167022705078 81.41272735595703 38.86502456665039 84.82925415039062 39.02827835083008 C 76.93319702148438 34.31237030029297 112.72982025146484 39.19948959350586 106.22844696044922 4.5302348136901855 C 113.50821685791016 8.05370044708252 105.9060287475586 11.686933517456055 125.5687255859375 1.9142485857009888" stroke-width="2.0" fill="none" stroke="rgb(0, 0, 0)" stroke-opacity="1" stroke-linecap="round" stroke-linejoin="round"/>
    <path d="M 110.03121185302734 69.69855499267578 C 112.72118377685547 50.51636505126953 94.5427017211914 42.80521774291992 78.6007080078125 42.09098434448242 C 94.59593200683594 49.29988479614258 116.69779205322266 36.45816421508789 93.59270477294922 42.74839401245117 C 131.2771453857422 64.44313049316406 139.72830200195312 70.20834350585938 145.2663116455078 14.293598175048828" stroke-width="2.0" fill="none" stroke="rgb(0, 0, 0)" stroke-opacity="1" stroke-linecap="round" stroke-linejoin="round"/>
    <path d="M 139.67654418945312 97.16651153564453 C 121.21025085449219 99.65704345703125 111.96624755859375 117.58872985839844 117.59500885009766 102.89129638671875 C 117.0071029663086 104.75115203857422 112.68448638916016 108.68994903564453 128.57061767578125 76.23794555664062" stroke-width="2.0" fill="none" stroke="rgb(0, 0, 0)" stroke-opacity="1" stroke-linecap="round" stroke-linejoin="round"/>
    <path d="M 97.35385131835938 -2.2801032066345215 C 104.7829818725586 24.6231632232666 76.14550018310547 23.2883358001709 79.26078796386719 42.5402946472168 C 102.07604217529297 35.832401275634766 122.37582397460938 24.2283878326416 137.9545440673828 35.2119255065918" stroke-width="2.0" fill="none" stroke="rgb(0, 0, 0)" stroke-opacity="1" stroke-linecap="round" stroke-linejoin="round"/>
    <path d="M 223.6319580078125 163.19754028320312 C 210.85986328125 153.27723693847656 173.15011596679688 169.2169647216797 215.41490173339844 170.22080993652344" stroke-width="2.0" fill="none" stroke="rgb(0, 0, 0)" stroke-opacity="1" stroke-linecap="round" stroke-linejoin="round"/>
    <path d="M 141.7750701904297 149.0283966064453 C 168.68846130371094 177.20108032226562 147.32444763183594 185.62281799316406 178.81297302246094 158.89990234375" stroke-width="2.0" fill="none" stroke="rgb(0, 0, 0)" stroke-opacity="1" stroke-linecap="round" stroke-linejoin="round"/>
    <path d="M 193.90179443359375 78.71411895751953 C 206.46871948242188 90.98500061035156 221.22927856445312 81.02344512939453 227.5381317138672 84.30734252929688 C 216.8564453125 84.00917053222656 204.1061248779297 101.10733795166016 193.55682373046875 79.4630126953125 C 199.29232788085938 99.84461975097656 217.2704315185547 101.6871337890625 226.8497314453125 82.39098358154297" stroke-width="2.0" fill="none" stroke="rgb(0, 0, 0)" stroke-opacity="1" stroke-linecap="round" stroke-linejoin="round"/>
    <path d="M 74.60433959960938 170.5919647216797 C 73.33466339111328 187.3410186767578 71.27562713623047 162.9504852294922 101.82211303710938 162.98130798339844 C 114.10279846191406 165.2454833984375 108.95916748046875 181.229736328125 111.98151397705078 158.3776397705078 C 89.29466247558594 143.2851104736328 121.91454315185547 139.35755920410156 111.04167175292969 172.247802734375" stroke-width="2.0" fill="none" stroke="rgb(0, 0, 0)" stroke-opacity="1" stroke-linecap="round" stroke-linejoin="round"/>
    <path d="M 24.483814239501953 104.82888793945312 C 42.2816047668457 95.43846130371094 31.181663513183594 101.07861328125 23.89327621459961 102.45294952392578" stroke-width="2.0" fill="none" stroke="rgb(0, 0, 0)" stroke-opacity="1" stroke-linecap="round" stroke-linejoin="round"/>
    <path d="M 19.216657638549805 214.9691162109375 C 35.22280502319336 223.7341766357422 30.927459716796875 204.35069274902344 3.7717130184173584 213.65554809570312" stroke-width="2.0" fill="none" stroke="rgb(0, 0, 0)" stroke-opacity="1" stroke-linecap="round" stroke-linejoin="round"/>
    <path d="M 50.422401428222656 21.88644027709961 C 48.6606559753418 17.825340270996094 4.756621837615967 43.34819793701172 44.18739700317383 15.090397834777832 C 32.29609298706055 22.139816284179688 17.574859619140625 32.32057571411133 44.21050262451172 22.542388916015625" stroke-width="2.0" fill="none" stroke="rgb(0, 0, 0)" stroke-opacity="1" stroke-linecap="round" stroke-linejoin="round"/>
    <path d="M 162.5714569091797 218.895263671875 C 193.1692657470703 206.05821228027344 188.6928253173828 219.8158721923828 165.8946533203125 226.82586669921875 C 183.81201171875 223.966552734375 194.4213409423828 217.48239135742188 176.40174865722656 208.32772827148438" stroke-width="2.0" fill="none" stroke="rgb(0, 0, 0)" stroke-opacity="1" stroke-linecap="round" stroke-linejoin="round"/>
    <path d="M 35.4586296081543 185.95236206054688 C 2.7676198482513428 184.66079711914062 17.00147247314453 180.9585723876953 22.103960037231445 177.17739868164062 C 16.407041549682617 193.13124084472656 23.41008186340332 177.7194061279297 22.084877014160156 175.28656005859375" stroke-width="2.0" fill="none" stroke="rgb(0, 0, 0)" stroke-opacity="1" stroke-linecap="round" stroke-linejoin="round"/>
    <path d="M 74.78174591064453 172.42636108398438 C 83.14507293701172 158.41493225097656 107.92827606201172 150.57168579101562 111.23543548583984 167.18312072753906" stroke-width="2.0" fill="none" stroke="rgb(0, 0, 0)" stroke-opacity="1" stroke-linecap="round" stroke-linejoin="round"/>
    <path d="M 194.57833862304688 88.82090759277344 C 200.940185546875 109.22526550292969 221.0333709716797 106.73269653320312 228.4720001220703 81.52210235595703 C 215.7095947265625 95.09449005126953 229.0266571044922 95.53253936767578 225.41920471191406 85.97925567626953" stroke-width="2.0" fill="none" stroke="rgb(0, 0, 0)" stroke-opacity="1" stroke-linecap="round" stroke-linejoin="round"/>
    <path d="M 150.29071044921875 203.14613342285156 C 187.04039001464844 222.75559997558594 155.74659729003906 210.3771209716797 161.16818237304688 177.7563018798828" stroke-width="2.0" fill="none" stroke="rgb(0, 0, 0)" stroke-opacity="1" stroke-linecap="round" stroke-linejoin="round"/>
    <path d="M 137.58212280273438 176.40652465820312 C 161.99867248535156 169.36566162109375 138.95758056640625 164.9512481689453 114.09771728515625 169.88333129882812 C 105.0306625366211 187.68812561035156 114.50005340576172 177.79412841796875 160.0540771484375 167.62391662597656" stroke-width="2.0" fill="none" stroke="rgb(0, 0, 0)" stroke-opacity="1" stroke-linecap="round" stroke-linejoin="round"/>
    <path d="M 36.79956817626953 143.58734130859375 C 45.338314056396484 152.77554321289062 46.05916213989258 130.79425048828125 43.714290618896484 137.57052612304688 C 43.74223327636719 166.9636993408203 37.01289749145508 155.9679412841797 54.101417541503906 134.48110961914062" stroke-width="2.0" fill="none" stroke="rgb(0, 0, 0)" stroke-opacity="1" stroke-linecap="round" stroke-linejoin="round"/>
    <path d="M 170.62301635742188 220.21688842773438 C 132.37966918945312 208.87022399902344 168.8441925048828 230.15895080566406 185.25881958007812 212.74977111816406 C 165.43170166015625 191.8978271484375 188.038818359375 215.5424041748047 176.53073120117188 200.88490295410156" stroke-width="2.0" fill="none" stroke="rgb(0, 0, 0)" stroke-opacity="1" stroke-linecap="round" stroke-linejoin="round"/>
    <path d="M 134.26547241210938 165.42588806152344 C 164.36441040039062 175.07591247558594 167.49697875976562 194.18418884277344 147.68414306640625 160.3979949951172 C 163.94778442382812 220.06130981445312 134.86268615722656 183.70269775390625 166.17620849609375 214.85064697265625 C 166.3567352294922 204.44549560546875 175.31175231933594 208.6040496826172 161.79244995117188 219.49761962890625" stroke-width="2.0" fill="none" stroke="rgb(0, 0, 0)" stroke-opacity="1" stroke-linecap="round" stroke-linejoin="round"/>
  </g>
</svg>
