<?xml version="1.0" ?>
<svg xmlns="http://www.w3.org/2000/svg" version="1.1" width="224" height="224">
  <defs/>
  <g>
    <path d="M -5.796138286590576 189.950439453125 C -23.46893882751465 177.56564331054688 -14.679100036621094 189.79478454589844 -5.542665004730225 199.3447265625" stroke-width="2.0" fill="none" stroke="rgb(0, 0, 0)" stroke-opacity="1" stroke-linecap="round" stroke-linejoin="round"/>
    <path d="M 213.53176879882812 104.65994262695312 C 193.11888122558594 90.12438201904297 216.5764923095703 91.8392105102539 217.11769104003906 109.71357727050781 C 217.80064392089844 98.60428619384766 233.15968322753906 109.01618957519531 278.6048278808594 121.42755126953125 C 242.39141845703125 116.89991760253906 215.18067932128906 123.24665832519531 219.1526336669922 103.09864044189453" stroke-width="2.0" fill="none" stroke="rgb(0, 0, 0)" stroke-opacity="1" stroke-linecap="round" stroke-linejoin="round"/>
    <path d="M 183.8009796142578 14.511835098266602 C 161.942138671875 -6.653711318969727 192.38633728027344 -2.2177371978759766 179.88180541992188 -5.0379133224487305 C 187.61331176757812 -0.4166800379753113 162.31455993652344 -6.06710147857666 193.49485778808594 -6.462592601776123" stroke-width="2.0" fill="none" stroke="rgb(0, 0, 0)" stroke-opacity="1" stroke-linecap="round" stroke-linejoin="round"/>
    <path d="M 152.41537475585938 215.13299560546875 C 150.74465942382812 214.95584106445312 141.62557983398438 213.25364685058594 139.5989532470703 210.50643920898438 C 144.8379669189453 215.45925903320312 163.56590270996094 215.0368194580078 161.51121520996094 216.07440185546875" stroke-width="2.0" fill="none" stroke="rgb(0, 0, 0)" stroke-opacity="1" stroke-linecap="round" stroke-linejoin="round"/>
    <path d="M 88.64888000488281 97.19771575927734 C 73.25170135498047 106.20418548583984 82.9535140991211 96.83990478515625 100.66480255126953 68.02259063720703" stroke-width="2.0" fill="none" stroke="rgb(0, 0, 0)" stroke-opacity="1" stroke-linecap="round" stroke-linejoin="round"/>
    <path d="M 212.8214569091797 159.75448608398438 C 226.0735321044922 146.40438842773438 211.9256591796875 166.9102020263672 217.16795349121094 157.47581481933594 C 212.0908203125 159.36476135253906 205.14854431152344 171.99998474121094 207.95013427734375 138.0647735595703" stroke-width="2.0" fill="none" stroke="rgb(0, 0, 0)" stroke-opacity="1" stroke-linecap="round" stroke-linejoin="round"/>
    <path d="M 32.802345275878906 152.9109649658203 C 23.461620330810547 161.5406951904297 38.245567321777344 136.81565856933594 55.78195571899414 161.9912872314453 C 35.120643615722656 150.8785400390625 15.07164192199707 167.06942749023438 42.1983642578125 185.54489135742188 C 69.47926330566406 164.3060760498047 55.542999267578125 164.155517578125 63.73197937011719 171.92703247070312" stroke-width="2.0" fill="none" stroke="rgb(0, 0, 0)" stroke-opacity="1" stroke-linecap="round" stroke-linejoin="round"/>
    <path d="M 43.156532287597656 196.3605499267578 C 24.010536193847656 204.1387176513672 66.15046691894531 167.9516143798828 59.249664306640625 164.4052734375 C 64.8621826171875 153.84002685546875 69.89234924316406 181.45050048828125 48.691158294677734 158.906005859375 C 59.726566314697266 173.29222106933594 47.00203323364258 164.6296844482422 14.077067375183105 145.09434509277344" stroke-width="2.0" fill="none" stroke="rgb(0, 0, 0)" stroke-opacity="1" stroke-linecap="round" stroke-linejoin="round"/>
    <path d="M 161.21922302246094 206.902587890625 C 176.4410400390625 221.57533264160156 178.42080688476562 228.64117431640625 161.34849548339844 238.5548858642578 C 143.2427520751953 232.51858520507812 145.9459228515625 226.99520874023438 149.7628631591797 235.01763916015625" stroke-width="2.0" fill="none" stroke="rgb(0, 0, 0)" stroke-opacity="1" stroke-linecap="round" stroke-linejoin="round"/>
    <path d="M 30.09400749206543 197.30584716796875 C 51.61664962768555 176.0881805419922 44.109275817871094 181.5456085205078 58.765750885009766 195.55235290527344 C 63.610233306884766 190.17868041992188 71.54464721679688 206.11428833007812 60.673377990722656 199.27728271484375" stroke-width="2.0" fill="none" stroke="rgb(0, 0, 0)" stroke-opacity="1" stroke-linecap="round" stroke-linejoin="round"/>
    <path d="M 110.63960266113281 73.06285858154297 C 151.862060546875 73.41752624511719 109.25144958496094 81.91375732421875 126.59140014648438 98.78260803222656 C 120.53461456298828 83.67056274414062 159.43084716796875 82.9057388305664 134.77713012695312 85.91900634765625 C 129.3845977783203 86.06641387939453 156.53904724121094 82.24110412597656 150.5312957763672 91.82246398925781" stroke-width="2.0" fill="none" stroke="rgb(0, 0, 0)" stroke-opacity="1" stroke-linecap="round" stroke-linejoin="round"/>
    <path d="M -11.602519035339355 11.607232093811035 C -2.469543933868408 2.1779117584228516 5.3206329345703125 18.1412410736084 -0.725160539150238 10.010353088378906 C 10.706846237182617 -8.384502410888672 23.0072078704834 13.824127197265625 0.7050960063934326 5.722386837005615 C -7.237433910369873 6.003467559814453 17.628931045532227 22.675249099731445 14.175544738769531 22.501358032226562" stroke-width="2.0" fill="none" stroke="rgb(0, 0, 0)" stroke-opacity="1" stroke-linecap="round" stroke-linejoin="round"/>
    <path d="M 180.83309936523438 15.694129943847656 C 172.8972625732422 -2.6650848388671875 176.04296875 -16.025320053100586 171.3861846923828 -13.610306739807129" stroke-width="2.0" fill="none" stroke="rgb(0, 0, 0)" stroke-opacity="1" stroke-linecap="round" stroke-linejoin="round"/>
    <path d="M 58.53523635864258 152.14102172851562 C 61.829471588134766 148.58499145507812 33.871116638183594 147.95700073242188 42.57901382446289 157.92784118652344 C 34.47120666503906 143.32235717773438 52.067726135253906 144.7418212890625 44.43213653564453 145.28123474121094" stroke-width="2.0" fill="none" stroke="rgb(0, 0, 0)" stroke-opacity="1" stroke-linecap="round" stroke-linejoin="round"/>
    <path d="M 24.890657424926758 130.9052734375 C 17.494342803955078 137.77191162109375 20.931304931640625 107.60625457763672 18.75851058959961 116.1419677734375" stroke-width="2.0" fill="none" stroke="rgb(0, 0, 0)" stroke-opacity="1" stroke-linecap="round" stroke-linejoin="round"/>
    <path d="M 64.29505920410156 119.3154296875 C 82.0323715209961 98.91195678710938 87.0323715209961 87.77591705322266 100.0088882446289 71.34680938720703 C 93.65591430664062 76.18956756591797 61.47128677368164 64.51040649414062 92.71388244628906 77.46757507324219 C 90.74279022216797 77.97422790527344 101.2599105834961 59.73923873901367 79.44352722167969 69.17548370361328" stroke-width="2.0" fill="none" stroke="rgb(0, 0, 0)" stroke-opacity="1" stroke-linecap="round" stroke-linejoin="round"/>
    <path d="M 138.71925354003906 114.97205352783203 C 149.6626434326172 75.31178283691406 117.13160705566406 130.0146026611328 135.02317810058594 95.45724487304688" stroke-width="2.0" fill="none" stroke="rgb(0, 0, 0)" stroke-opacity="1" stroke-linecap="round" stroke-linejoin="round"/>
    <path d="M 27.13749122619629 61.753597259521484 C 41.946163177490234 79.46885681152344 -5.571805477142334 65.82927703857422 34.99725341796875 59.08789825439453 C 25.69313621520996 53.8698616027832 49.91154479980469 33.643646240234375 27.421709060668945 37.47647476196289 C 57.705081939697266 72.06780242919922 15.85073471069336 42.72923278808594 24.336795806884766 42.52523422241211" stroke-width="2.0" fill="none" stroke="rgb(0, 0, 0)" stroke-opacity="1" stroke-linecap="round" stroke-linejoin="round"/>
    <path d="M 213.84764099121094 126.98855590820312 C 251.80039978027344 125.7088623046875 239.96299743652344 157.80508422851562 224.31591796875 141.27626037597656 C 234.7118377685547 148.6945037841797 216.41619873046875 157.7450714111328 193.8261260986328 172.45741271972656" stroke-width="2.0" fill="none" stroke="rgb(0, 0, 0)" stroke-opacity="1" stroke-linecap="round" stroke-linejoin="round"/>
    <path d="M 114.27306365966797 164.63433837890625 C 128.77362060546875 146.7147979736328 151.77566528320312 133.796630859375 132.4920654296875 141.95606994628906" stroke-width="2.0" fill="none" stroke="rgb(0, 0, 0)" stroke-opacity="1" stroke-linecap="round" stroke-linejoin="round"/>
    <path d="M 213.6009521484375 74.96454620361328 C 215.2478485107422 79.21846008300781 215.62049865722656 70.66413879394531 200.2877197265625 70.2147445678711 C 223.4591064453125 79.88540649414062 220.5113525390625 60.610504150390625 222.02491760253906 73.70556640625 C 218.1105194091797 76.42638397216797 177.76072692871094 62.215972900390625 186.08554077148438 67.13318634033203" stroke-width="2.0" fill="none" stroke="rgb(0, 0, 0)" stroke-opacity="1" stroke-linecap="round" stroke-linejoin="round"/>
    <path d="M 32.92960739135742 166.72596740722656 C 21.481950759887695 141.9361114501953 36.5065803527832 172.03582763671875 25.73621940612793 149.87335205078125 C 52.62535858154297 160.65577697753906 46.98863983154297 147.6945037841797 25.552461624145508 149.8037872314453" stroke-width="2.0" fill="none" stroke="rgb(0, 0, 0)" stroke-opacity="1" stroke-linecap="round" stroke-linejoin="round"/>
    <path d="M 114.09732055664062 209.07586669921875 C 91.87149047851562 205.11221313476562 124.57262420654297 222.91531372070312 117.76655578613281 205.9384002685547 C 88.87894439697266 197.94992065429688 123.6413803100586 242.26695251464844 96.94376373291016 214.19891357421875 C 114.94129180908203 224.4124755859375 99.46996307373047 212.73150634765625 80.52012634277344 194.31785583496094" stroke-width="2.0" fill="none" stroke="rgb(0, 0, 0)" stroke-opacity="1" stroke-linecap="round" stroke-linejoin="round"/>
    <path d="M 97.09516906738281 90.01390838623047 C 77.71707153320312 104.4737319946289 74.08757781982422 100.32553100585938 97.14849853515625 97.94915771484375 C 84.84012603759766 91.46530151367188 80.32469940185547 91.80355072021484 102.1012191772461 97.51412963867188" stroke-width="2.0" fill="none" stroke="rgb(0, 0, 0)" stroke-opacity="1" stroke-linecap="round" stroke-linejoin="round"/>
    <path d="M 157.6390380859375 111.48016357421875 C 173.68836975097656 107.5081558227539 148.6611785888672 94.22380065917969 145.29855346679688 108.16092681884766" stroke-width="2.0" fill="none" stroke="rgb(0, 0, 0)" stroke-opacity="1" stroke-linecap="round" stroke-linejoin="round"/>
    <path d="M 77.14667510986328 104.39789581298828 C 80.37971496582031 112.15106201171875 85.65635681152344 119.76715087890625 76.73827362060547 116.63273620605469 C 114.89466857910156 106.7332992553711 108.90884399414062 152.37942504882812 105.91139221191406 140.7436065673828" stroke-width="2.0" fill="none" stroke="rgb(0, 0, 0)" stroke-opacity="1" stroke-linecap="round" stroke-linejoin="round"/>
    <path d="M 116.79815673828125 35.53647994995117 C 120.76441955566406 48.48911666870117 136.68080139160156 51.27509689331055 156.63992309570312 57.75320816040039" stroke-width="2.0" fill="none" stroke="rgb(0, 0, 0)" stroke-opacity="1" stroke-linecap="round" stroke-linejoin="round"/>
    <path d="M 149.0140380859375 213.99603271484375 C 156.86492919921875 214.87437438964844 197.93092346191406 222.5829315185547 195.10501098632812 221.13427734375" stroke-width="2.0" fill="none" stroke="rgb(0, 0, 0)" stroke-opacity="1" stroke-linecap="round" stroke-linejoin="round"/>
    <path d="M 100.51715087890625 156.59866333007812 C 90.04137420654297 141.92962646484375 126.80504608154297 170.4792022705078 120.86017608642578 146.803466796875" stroke-width="2.0" fill="none" stroke="rgb(0, 0, 0)" stroke-opacity="1" stroke-linecap="round" stroke-linejoin="round"/>
    <path d="M 209.74903869628906 72.18431854248047 C 212.7132568359375 65.5145034790039 222.3491973876953 76.68087005615234 205.59890747070312 87.32481384277344 C 201.41392517089844 72.13362884521484 231.1401824951172 82.2083969116211 201.95166015625 69.7635269165039 C 195.8517608642578 56.25864028930664 216.42779541015625 58.398780822753906 217.77532958984375 74.53739166259766" stroke-width="2.0" fill="none" stroke="rgb(0, 0, 0)" stroke-opacity="1" stroke-linecap="round" stroke-linejoin="round"/>
    <path d="M 37.608726501464844 0.5674673318862915 C 67.1773681640625 3.39601993560791 30.35740852355957 31.42699432373047 35.31697463989258 -17.689922332763672" stroke-width="2.0" fill="none" stroke="rgb(0, 0, 0)" stroke-opacity="1" stroke-linecap="round" stroke-linejoin="round"/>
    <path d="M 145.68849182128906 125.59736633300781 C 139.96849060058594 112.59369659423828 138.27139282226562 115.42005920410156 154.46478271484375 115.93278503417969 C 169.01593017578125 139.66578674316406 160.9888153076172 118.35478210449219 176.51583862304688 108.00316619873047" stroke-width="2.0" fill="none" stroke="rgb(0, 0, 0)" stroke-opacity="1" stroke-linecap="round" stroke-linejoin="round"/>
    <path d="M 192.85435485839844 188.39598083496094 C 178.06179809570312 176.3532257080078 179.57049560546875 169.86129760742188 165.48744201660156 161.39450073242188 C 189.49855041503906 192.1310577392578 181.76885986328125 181.7159881591797 199.5024871826172 169.61923217773438" stroke-width="2.0" fill="none" stroke="rgb(0, 0, 0)" stroke-opacity="1" stroke-linecap="round" stroke-linejoin="round"/>
    <path d="M -9.049332618713379 123.63932800292969 C -15.977067947387695 135.1138458251953 -10.246917724609375 142.7112579345703 -6.773960113525391 141.1991424560547 C 0.7448657155036926 151.3129119873047 -1.058750867843628 148.56349182128906 -15.861616134643555 149.27810668945312" stroke-width="2.0" fill="none" stroke="rgb(0, 0, 0)" stroke-opacity="1" stroke-linecap="round" stroke-linejoin="round"/>
    <path d="M 136.23622131347656 111.0831527709961 C 128.95721435546875 96.0727767944336 122.68948364257812 100.98224639892578 143.80152893066406 106.58528900146484" stroke-width="2.0" fill="none" stroke="rgb(0, 0, 0)" stroke-opacity="1" stroke-linecap="round" stroke-linejoin="round"/>
    <path d="M 177.22149658203125 109.81604766845703 C 143.50254821777344 119.49296569824219 153.2803497314453 146.4625701904297 126.94620513916016 151.7982940673828 C 152.04063415527344 136.4353790283203 144.98658752441406 123.50590515136719 160.1071014404297 125.753662109375 C 121.74414825439453 148.69383239746094 152.20431518554688 152.35560607910156 149.1371307373047 134.1539764404297" stroke-width="2.0" fill="none" stroke="rgb(0, 0, 0)" stroke-opacity="1" stroke-linecap="round" stroke-linejoin="round"/>
    <path d="M 226.63710021972656 127.39007568359375 C 188.40516662597656 129.7708282470703 180.0865478515625 129.47564697265625 214.00865173339844 128.23997497558594" stroke-width="2.0" fill="none" stroke="rgb(0, 0, 0)" stroke-opacity="1" stroke-linecap="round" stroke-linejoin="round"/>
    <path d="M 179.65255737304688 105.71859741210938 C 187.59442138671875 113.64746856689453 158.81764221191406 117.66844177246094 139.210205078125 138.5612335205078 C 175.84634399414062 139.6161651611328 173.71707153320312 142.81687927246094 141.40379333496094 137.29766845703125" stroke-width="2.0" fill="none" stroke="rgb(0, 0, 0)" stroke-opacity="1" stroke-linecap="round" stroke-linejoin="round"/>
    <path d="M 94.70660400390625 8.72648811340332 C 88.76882934570312 -26.149988174438477 90.07355499267578 -35.42601013183594 81.95281982421875 -31.947250366210938 C 117.52667236328125 -12.252542495727539 125.68338012695312 -15.135453224182129 136.75140380859375 -22.44664764404297 C 128.2578125 -16.858989715576172 117.18753051757812 -17.53500747680664 123.63949584960938 -19.681297302246094" stroke-width="2.0" fill="none" stroke="rgb(0, 0, 0)" stroke-opacity="1" stroke-linecap="round" stroke-linejoin="round"/>
    <path d="M 182.60470581054688 211.22645568847656 C 163.76943969726562 192.08786010742188 144.08120727539062 221.9840850830078 175.74977111816406 217.14308166503906 C 194.17193603515625 205.171630859375 192.51119995117188 205.44805908203125 178.5810546875 200.57662963867188 C 198.7825469970703 188.7483367919922 166.44451904296875 166.52804565429688 166.03187561035156 182.87725830078125" stroke-width="2.0" fill="none" stroke="rgb(0, 0, 0)" stroke-opacity="1" stroke-linecap="round" stroke-linejoin="round"/>
    <path d="M -1.4176292419433594 37.054508209228516 C 13.838638305664062 51.86172866821289 26.97113609313965 56.30257797241211 -5.711757659912109 39.84941101074219 C 5.643405914306641 49.0927848815918 15.956846237182617 53.08820724487305 41.18250274658203 61.075740814208984 C 22.27178192138672 43.3298225402832 41.48036575317383 78.22579956054688 44.22216796875 50.39032745361328" stroke-width="2.0" fill="none" stroke="rgb(0, 0, 0)" stroke-opacity="1" stroke-linecap="round" stroke-linejoin="round"/>
    <path d="M 83.31571960449219 -9.038745880126953 C 100.64539337158203 10.680277824401855 69.67562103271484 7.9864583015441895 82.98806762695312 -0.3897828161716461" stroke-width="2.0" fill="none" stroke="rgb(0, 0, 0)" stroke-opacity="1" stroke-linecap="round" stroke-linejoin="round"/>
    <path d="M 149.10948181152344 85.08551025390625 C 138.75860595703125 93.85787200927734 154.8571319580078 99.51557922363281 160.2469024658203 80.85895538330078" stroke-width="2.0" fill="none" stroke="rgb(0, 0, 0)" stroke-opacity="1" stroke-linecap="round" stroke-linejoin="round"/>
    <path d="M 42.20302200317383 141.01844787597656 C 30.672447204589844 160.20504760742188 60.110382080078125 169.41078186035156 69.3056640625 170.47119140625" stroke-width="2.0" fill="none" stroke="rgb(0, 0, 0)" stroke-opacity="1" stroke-linecap="round" stroke-linejoin="round"/>
    <path d="M 141.52752685546875 -7.479564666748047 C 120.19416046142578 14.697622299194336 122.31864929199219 16.580596923828125 121.17597961425781 16.649635314941406 C 111.63431549072266 16.400470733642578 136.73631286621094 21.20311737060547 124.67556762695312 27.27958869934082 C 119.667724609375 37.6374626159668 123.09800720214844 44.284828186035156 145.47789001464844 50.27382278442383" stroke-width="2.0" fill="none" stroke="rgb(0, 0, 0)" stroke-opacity="1" stroke-linecap="round" stroke-linejoin="round"/>
    <path d="M 35.29593276977539 57.86100387573242 C 56.35274887084961 58.51548385620117 62.722923278808594 72.12779998779297 53.84194564819336 69.00942993164062 C 96.31966400146484 28.436792373657227 66.8191146850586 61.3160400390625 89.98323822021484 56.73422622680664 C 92.79197692871094 44.025821685791016 48.38133239746094 53.27899932861328 63.04838180541992 74.5897216796875" stroke-width="2.0" fill="none" stroke="rgb(0, 0, 0)" stroke-opacity="1" stroke-linecap="round" stroke-linejoin="round"/>
    <path d="M 112.07318115234375 167.4517059326172 C 135.19837951660156 216.31690979003906 159.6611328125 205.21420288085938 132.98983764648438 171.00836181640625 C 154.80747985839844 196.17945861816406 149.580078125 197.847900390625 131.9559783935547 195.70045471191406 C 161.37399291992188 181.6842803955078 157.6560516357422 185.1602020263672 138.3708953857422 182.1834259033203" stroke-width="2.0" fill="none" stroke="rgb(0, 0, 0)" stroke-opacity="1" stroke-linecap="round" stroke-linejoin="round"/>
    <path d="M 50.45925521850586 92.97071838378906 C 10.788383483886719 57.85382080078125 68.92276763916016 78.2317123413086 64.88873291015625 70.73056030273438 C 43.33782196044922 83.85541534423828 33.896522521972656 87.49903106689453 18.02130126953125 99.49063110351562" stroke-width="2.0" fill="none" stroke="rgb(0, 0, 0)" stroke-opacity="1" stroke-linecap="round" stroke-linejoin="round"/>
    <path d="M 174.14366149902344 152.64186096191406 C 163.18658447265625 170.79281616210938 161.68251037597656 181.25128173828125 135.2574005126953 210.68185424804688" stroke-width="2.0" fill="none" stroke="rgb(0, 0, 0)" stroke-opacity="1" stroke-linecap="round" stroke-linejoin="round"/>
    <path d="M 186.9047088623047 30.472013473510742 C 203.18707275390625 42.37623596191406 182.89443969726562 2.763690948486328 201.3538360595703 23.420381546020508 C 198.5543975830078 36.317413330078125 176.77996826171875 48.46985626220703 183.0741424560547 38.3372802734375" stroke-width="2.0" fill="none" stroke="rgb(0, 0, 0)" stroke-opacity="1" stroke-linecap="round" stroke-linejoin="round"/>
    <path d="M 86.51231384277344 201.81138610839844 C 110.87075805664062 235.6856689453125 125.1406478881836 213.80709838867188 121.79151153564453 221.8795623779297 C 113.90267944335938 246.32749938964844 118.70269775390625 265.5865783691406 114.92854309082031 269.9674377441406" stroke-width="2.0" fill="none" stroke="rgb(0, 0, 0)" stroke-opacity="1" stroke-linecap="round" stroke-linejoin="round"/>
    <path d="M 206.54469299316406 89.17353820800781 C 223.42933654785156 76.83563232421875 200.68328857421875 82.19231414794922 209.80125427246094 87.06161499023438" stroke-width="2.0" fill="none" stroke="rgb(0, 0, 0)" stroke-opacity="1" stroke-linecap="round" stroke-linejoin="round"/>
    <path d="M 217.2360382080078 72.4386215209961 C 229.4694061279297 66.98237609863281 245.49053955078125 66.27635192871094 226.8504180908203 65.93661499023438 C 230.8412628173828 58.54335403442383 232.4989013671875 54.92064666748047 242.99053955078125 59.374122619628906" stroke-width="2.0" fill="none" stroke="rgb(0, 0, 0)" stroke-opacity="1" stroke-linecap="round" stroke-linejoin="round"/>
    <path d="M 222.82984924316406 -7.246886730194092 C 210.447998046875 -0.4695221185684204 189.14138793945312 12.139954566955566 214.7482147216797 18.111364364624023" stroke-width="2.0" fill="none" stroke="rgb(0, 0, 0)" stroke-opacity="1" stroke-linecap="round" stroke-linejoin="round"/>
    <path d="M 93.04096984863281 100.78280639648438 C 90.33130645751953 79.04798889160156 91.83296203613281 93.2341079711914 82.93412017822266 109.59477996826172" stroke-width="2.0" fill="none" stroke="rgb(0, 0, 0)" stroke-opacity="1" stroke-linecap="round" stroke-linejoin="round"/>
    <path d="M 174.95799255371094 48.91875457763672 C 181.62115478515625 36.28364181518555 156.11199951171875 45.05876541137695 167.93853759765625 31.06597137451172 C 175.9806671142578 26.545536041259766 163.281005859375 18.777158737182617 174.0949249267578 32.022891998291016" stroke-width="2.0" fill="none" stroke="rgb(0, 0, 0)" stroke-opacity="1" stroke-linecap="round" stroke-linejoin="round"/>
    <path d="M -10.462653160095215 203.839111328125 C 26.812318801879883 176.26284790039062 48.895145416259766 138.02120971679688 36.463199615478516 162.0915985107422" stroke-width="2.0" fill="none" stroke="rgb(0, 0, 0)" stroke-opacity="1" stroke-linecap="round" stroke-linejoin="round"/>
    <path d="M 25.147729873657227 52.92604064941406 C -8.990986824035645 34.821136474609375 12.759305000305176 46.952796936035156 41.929771423339844 58.963043212890625 C 49.0350456237793 55.07448196411133 17.27105712890625 56.82905578613281 19.422061920166016 38.94214630126953" stroke-width="2.0" fill="none" stroke="rgb(0, 0, 0)" stroke-opacity="1" stroke-linecap="round" stroke-linejoin="round"/>
    <path d="M 120.17906951904297 17.28002166748047 C 105.344970703125 30.309192657470703 114.33313751220703 35.04351043701172 112.8966293334961 27.71460723876953" stroke-width="2.0" fill="none" stroke="rgb(0, 0, 0)" stroke-opacity="1" stroke-linecap="round" stroke-linejoin="round"/>
    <path d="M 215.58697509765625 182.18002319335938 C 200.53988647460938 203.5757598876953 235.00828552246094 178.7487030029297 231.64393615722656 175.88360595703125 C 225.71063232421875 166.50682067871094 223.76327514648438 164.50003051757812 229.6591796875 166.3528289794922" stroke-width="2.0" fill="none" stroke="rgb(0, 0, 0)" stroke-opacity="1" stroke-linecap="round" stroke-linejoin="round"/>
    <path d="M 130.7677001953125 42.14892578125 C 177.28311157226562 68.14244842529297 152.2765350341797 57.98210906982422 160.25289916992188 48.69485092163086" stroke-width="2.0" fill="none" stroke="rgb(0, 0, 0)" stroke-opacity="1" stroke-linecap="round" stroke-linejoin="round"/>
    <path d="M 175.570556640625 193.7362823486328 C 193.68003845214844 203.91143798828125 186.8573455810547 217.27183532714844 201.87008666992188 195.46925354003906 C 217.2873077392578 206.8433837890625 205.83290100097656 199.3361053466797 204.42462158203125 203.45819091796875 C 214.11892700195312 205.94961547851562 196.54605102539062 181.5750732421875 203.26373291015625 192.35629272460938" stroke-width="2.0" fill="none" stroke="rgb(0, 0, 0)" stroke-opacity="1" stroke-linecap="round" stroke-linejoin="round"/>
    <path d="M 67.58061218261719 75.22245025634766 C 27.709354400634766 60.65554428100586 23.386276245117188 55.054203033447266 35.909767150878906 59.671417236328125" stroke-width="2.0" fill="none" stroke="rgb(0, 0, 0)" stroke-opacity="1" stroke-linecap="round" stroke-linejoin="round"/>
    <path d="M 203.27499389648438 196.9055938720703 C 183.11328125 175.00018310546875 165.3072509765625 165.89378356933594 162.4756317138672 183.38034057617188 C 198.58570861816406 179.47557067871094 174.0587158203125 176.19496154785156 150.41036987304688 141.13473510742188 C 149.87322998046875 152.47930908203125 180.442138671875 167.04974365234375 149.592529296875 149.7306671142578" stroke-width="2.0" fill="none" stroke="rgb(0, 0, 0)" stroke-opacity="1" stroke-linecap="round" stroke-linejoin="round"/>
    <path d="M 34.518341064453125 154.75558471679688 C 32.338985443115234 146.09719848632812 28.114849090576172 154.1200408935547 31.437952041625977 189.1278533935547 C 30.627758026123047 176.43162536621094 34.123565673828125 197.27593994140625 28.442480087280273 167.84120178222656" stroke-width="2.0" fill="none" stroke="rgb(0, 0, 0)" stroke-opacity="1" stroke-linecap="round" stroke-linejoin="round"/>
    <path d="M 153.30828857421875 57.37934875488281 C 136.0836944580078 47.75450897216797 135.70895385742188 33.05849838256836 155.0232696533203 35.37956237792969 C 163.86392211914062 36.115570068359375 151.26976013183594 53.9346809387207 149.89756774902344 30.695308685302734 C 145.35992431640625 74.87506866455078 140.71945190429688 44.829715728759766 147.6220245361328 31.76401138305664" stroke-width="2.0" fill="none" stroke="rgb(0, 0, 0)" stroke-opacity="1" stroke-linecap="round" stroke-linejoin="round"/>
    <path d="M 198.1392364501953 199.39215087890625 C 215.82801818847656 196.5716094970703 194.9337615966797 204.9683837890625 188.0843963623047 173.92933654785156 C 208.994873046875 165.2783203125 219.19369506835938 155.95993041992188 205.6887664794922 161.09896850585938" stroke-width="2.0" fill="none" stroke="rgb(0, 0, 0)" stroke-opacity="1" stroke-linecap="round" stroke-linejoin="round"/>
    <path d="M 117.93927764892578 233.24818420410156 C 128.94122314453125 216.70547485351562 144.96107482910156 200.4969482421875 145.91140747070312 196.98141479492188 C 129.13665771484375 215.53732299804688 150.06414794921875 179.07191467285156 148.9991912841797 228.84246826171875 C 161.39105224609375 244.4735870361328 165.00218200683594 215.44711303710938 155.19764709472656 215.07200622558594" stroke-width="2.0" fill="none" stroke="rgb(0, 0, 0)" stroke-opacity="1" stroke-linecap="round" stroke-linejoin="round"/>
    <path d="M 72.35298919677734 111.14861297607422 C 68.67874145507812 128.45787048339844 87.68089294433594 133.6075897216797 65.85549926757812 121.08172607421875 C 66.71330261230469 113.63538360595703 69.81869506835938 122.89651489257812 67.25434112548828 123.39772033691406 C 64.60836029052734 94.82035827636719 63.0748291015625 95.01316833496094 63.34004211425781 98.72045135498047" stroke-width="2.0" fill="none" stroke="rgb(0, 0, 0)" stroke-opacity="1" stroke-linecap="round" stroke-linejoin="round"/>
    <path d="M 101.76448059082031 93.2771987915039 C 73.67635345458984 97.05797576904297 95.33387756347656 90.59986114501953 95.5768051147461 89.10736846923828" stroke-width="2.0" fill="none" stroke="rgb(0, 0, 0)" stroke-opacity="1" stroke-linecap="round" stroke-linejoin="round"/>
    <path d="M 58.58968734741211 124.11003875732422 C 81.34146881103516 136.49208068847656 109.88497924804688 154.21109008789062 115.06851959228516 164.94500732421875 C 111.87158966064453 166.11227416992188 95.6491470336914 142.89962768554688 84.72205352783203 138.38108825683594 C 86.67233276367188 120.2831802368164 100.45259857177734 145.86610412597656 74.53335571289062 132.29629516601562" stroke-width="2.0" fill="none" stroke="rgb(0, 0, 0)" stroke-opacity="1" stroke-linecap="round" stroke-linejoin="round"/>
    <path d="M 220.83070373535156 135.3437957763672 C 216.0059051513672 138.3066864013672 202.71499633789062 113.08238220214844 220.0878448486328 113.22925567626953" stroke-width="2.0" fill="none" stroke="rgb(0, 0, 0)" stroke-opacity="1" stroke-linecap="round" stroke-linejoin="round"/>
    <path d="M 154.7481231689453 92.66531372070312 C 160.96067810058594 99.55562591552734 149.31768798828125 83.25576782226562 141.92811584472656 85.49271392822266 C 127.78520965576172 103.74017333984375 126.84143829345703 102.7834701538086 137.8736114501953 92.55040740966797 C 154.51486206054688 77.07548522949219 143.24537658691406 72.94049072265625 144.07717895507812 79.99594116210938" stroke-width="2.0" fill="none" stroke="rgb(0, 0, 0)" stroke-opacity="1" stroke-linecap="round" stroke-linejoin="round"/>
    <path d="M 79.6368637084961 102.74773406982422 C 76.95136260986328 111.73726654052734 85.89228820800781 80.90138244628906 99.41057586669922 102.37200927734375 C 65.6317138671875 95.78016662597656 59.18262481689453 102.96267700195312 67.51300048828125 89.0159683227539 C 36.33097839355469 85.97220611572266 76.04463958740234 68.48109436035156 80.91646575927734 77.8263931274414" stroke-width="2.0" fill="none" stroke="rgb(0, 0, 0)" stroke-opacity="1" stroke-linecap="round" stroke-linejoin="round"/>
    <path d="M 157.85891723632812 171.5151824951172 C 174.1783447265625 159.71163940429688 134.9049835205078 216.56529235839844 133.5403594970703 207.37875366210938 C 161.32188415527344 178.9309539794922 149.4757080078125 186.61228942871094 147.64410400390625 185.90850830078125 C 156.2894744873047 207.09669494628906 159.4143829345703 197.37127685546875 159.42604064941406 221.03500366210938" stroke-width="2.0" fill="none" stroke="rgb(0, 0, 0)" stroke-opacity="1" stroke-linecap="round" stroke-linejoin="round"/>
    <path d="M 189.6319122314453 106.50283813476562 C 170.47784423828125 93.16922760009766 200.1690216064453 103.03754425048828 179.46835327148438 107.99060821533203" stroke-width="2.0" fill="none" stroke="rgb(0, 0, 0)" stroke-opacity="1" stroke-linecap="round" stroke-linejoin="round"/>
    <path d="M 171.06373596191406 35.44028091430664 C 174.3948516845703 37.19282913208008 158.80332946777344 24.637407302856445 150.79258728027344 30.43777084350586 C 158.25950622558594 9.722002029418945 181.2786865234375 11.532391548156738 185.2711639404297 23.699405670166016" stroke-width="2.0" fill="none" stroke="rgb(0, 0, 0)" stroke-opacity="1" stroke-linecap="round" stroke-linejoin="round"/>
    <path d="M 96.1501693725586 94.94794464111328 C 76.01417541503906 112.97747039794922 98.58631134033203 116.39220428466797 99.41859436035156 119.20713806152344 C 83.11557006835938 109.30723571777344 72.95952606201172 98.25751495361328 81.41575622558594 108.88267517089844" stroke-width="2.0" fill="none" stroke="rgb(0, 0, 0)" stroke-opacity="1" stroke-linecap="round" stroke-linejoin="round"/>
    <path d="M 152.5652618408203 108.75065612792969 C 145.017333984375 118.12969207763672 149.32339477539062 99.79182434082031 133.37533569335938 112.46968078613281 C 143.9949188232422 123.45064544677734 126.83993530273438 108.28569030761719 103.05643463134766 62.964256286621094" stroke-width="2.0" fill="none" stroke="rgb(0, 0, 0)" stroke-opacity="1" stroke-linecap="round" stroke-linejoin="round"/>
    <path d="M 101.56149291992188 179.00440979003906 C 126.32584381103516 153.26919555664062 103.39458465576172 160.5892791748047 125.29269409179688 165.0729522705078" stroke-width="2.0" fill="none" stroke="rgb(0, 0, 0)" stroke-opacity="1" stroke-linecap="round" stroke-linejoin="round"/>
    <path d="M 91.82476043701172 81.42630004882812 C 101.70960998535156 55.713218688964844 109.02189636230469 59.6153678894043 121.00809478759766 87.42688751220703 C 101.03495025634766 42.55305099487305 99.68025970458984 58.095802307128906 117.08829498291016 84.03319549560547 C 88.20722198486328 59.717079162597656 108.97138214111328 53.97397232055664 132.40353393554688 46.83129119873047" stroke-width="2.0" fill="none" stroke="rgb(0, 0, 0)" stroke-opacity="1" stroke-linecap="round" stroke-linejoin="round"/>
    <path d="M 42.630245208740234 31.485883712768555 C 49.836082458496094 42.73225784301758 48.100433349609375 16.445539474487305 59.42568588256836 35.62574768066406 C 68.66899108886719 46.63398742675781 64.9903335571289 39.092041015625 74.48909759521484 38.598331451416016 C 55.44544982910156 27.56694793701172 47.583473205566406 50.85807418823242 63.463523864746094 44.638118743896484" stroke-width="2.0" fill="none" stroke="rgb(0, 0, 0)" stroke-opacity="1" stroke-linecap="round" stroke-linejoin="round"/>
    <path d="M 194.37594604492188 229.811767578125 C 182.5928497314453 203.51495361328125 174.26287841796875 220.21136474609375 188.40969848632812 208.95486450195312" stroke-width="2.0" fill="none" stroke="rgb(0, 0, 0)" stroke-opacity="1" stroke-linecap="round" stroke-linejoin="round"/>
    <path d="M 109.7674331665039 -2.9272873401641846 C 140.7310791015625 -20.249021530151367 132.57969665527344 0.021895568817853928 139.31951904296875 2.884976625442505 C 125.70055389404297 20.04874610900879 163.3784637451172 5.107312202453613 143.20269775390625 2.8817460536956787 C 138.68080139160156 -16.92875099182129 163.4925994873047 4.954618453979492 152.53555297851562 -4.628631591796875" stroke-width="2.0" fill="none" stroke="rgb(0, 0, 0)" stroke-opacity="1" stroke-linecap="round" stroke-linejoin="round"/>
    <path d="M 224.66732788085938 7.056643009185791 C 230.0819854736328 -6.246333122253418 210.1228485107422 34.56215286254883 208.39596557617188 12.715438842773438" stroke-width="2.0" fill="none" stroke="rgb(0, 0, 0)" stroke-opacity="1" stroke-linecap="round" stroke-linejoin="round"/>
    <path d="M 153.22512817382812 48.4984016418457 C 163.22975158691406 75.15164184570312 127.60779571533203 50.96677780151367 173.90261840820312 63.95267105102539" stroke-width="2.0" fill="none" stroke="rgb(0, 0, 0)" stroke-opacity="1" stroke-linecap="round" stroke-linejoin="round"/>
    <path d="M 17.303205490112305 80.0092544555664 C 9.262777328491211 70.64392852783203 32.67338562011719 80.41304779052734 13.540969848632812 81.97486114501953 C 18.711963653564453 100.23416137695312 31.115062713623047 100.12651824951172 -14.762171745300293 95.5068359375" stroke-width="2.0" fill="none" stroke="rgb(0, 0, 0)" stroke-opacity="1" stroke-linecap="round" stroke-linejoin="round"/>
    <path d="M 30.446958541870117 195.1292724609375 C 52.36622619628906 213.56187438964844 63.13896179199219 210.1529541015625 64.04446411132812 228.04425048828125 C 80.93753814697266 212.76693725585938 31.716978073120117 207.7423553466797 64.1014404296875 231.99610900878906" stroke-width="2.0" fill="none" stroke="rgb(0, 0, 0)" stroke-opacity="1" stroke-linecap="round" stroke-linejoin="round"/>
    <path d="M -3.42340350151062 176.1477508544922 C 6.374199867248535 174.55752563476562 -18.184091567993164 172.32369995117188 -7.952259540557861 177.170166015625 C -0.6703191995620728 187.55648803710938 -10.439870834350586 185.704833984375 -9.462919235229492 186.7421112060547 C -11.683525085449219 186.05038452148438 -0.6748409867286682 192.9727325439453 -9.36210823059082 186.15951538085938" stroke-width="2.0" fill="none" stroke="rgb(0, 0, 0)" stroke-opacity="1" stroke-linecap="round" stroke-linejoin="round"/>
    <path d="M 63.55729293823242 121.16529846191406 C 83.11819458007812 100.63059997558594 82.72065734863281 111.74774169921875 77.80416870117188 108.46515655517578 C 80.77825164794922 100.8446273803711 74.67434692382812 109.97779846191406 98.67739868164062 90.48472595214844 C 81.77658081054688 86.22762298583984 78.74230194091797 109.2427978515625 87.39141082763672 109.42247772216797" stroke-width="2.0" fill="none" stroke="rgb(0, 0, 0)" stroke-opacity="1" stroke-linecap="round" stroke-linejoin="round"/>
    <path d="M 105.06875610351562 111.10902404785156 C 99.74848937988281 141.26341247558594 121.35904693603516 123.63158416748047 114.2176742553711 138.66964721679688 C 100.3661880493164 131.64404296875 111.03311157226562 114.72119140625 94.3271255493164 111.38430786132812 C 103.59683227539062 115.17151641845703 149.89581298828125 117.82723236083984 125.96591186523438 124.85784912109375" stroke-width="2.0" fill="none" stroke="rgb(0, 0, 0)" stroke-opacity="1" stroke-linecap="round" stroke-linejoin="round"/>
    <path d="M 82.79170989990234 76.73603820800781 C 99.6138916015625 84.1355209350586 85.08476257324219 87.78614044189453 57.180519104003906 62.344810485839844 C 83.73709869384766 81.55450439453125 100.86559295654297 71.74739837646484 79.16971588134766 106.32061004638672 C 66.42471313476562 112.19554901123047 84.26392364501953 139.906005859375 89.60430908203125 101.37968444824219" stroke-width="2.0" fill="none" stroke="rgb(0, 0, 0)" stroke-opacity="1" stroke-linecap="round" stroke-linejoin="round"/>
    <path d="M 214.6168975830078 105.27581024169922 C 211.13711547851562 95.17411041259766 198.39366149902344 110.35015869140625 235.91197204589844 103.20684814453125 C 212.08740234375 95.16734313964844 221.516845703125 117.44328308105469 207.77960205078125 100.85183715820312 C 204.04937744140625 93.56016540527344 223.40721130371094 107.1708755493164 208.36404418945312 100.06452178955078" stroke-width="2.0" fill="none" stroke="rgb(0, 0, 0)" stroke-opacity="1" stroke-linecap="round" stroke-linejoin="round"/>
    <path d="M 66.99954223632812 220.6978759765625 C 66.57596588134766 227.37974548339844 93.9014892578125 192.47108459472656 104.57461547851562 175.7412109375" stroke-width="2.0" fill="none" stroke="rgb(0, 0, 0)" stroke-opacity="1" stroke-linecap="round" stroke-linejoin="round"/>
    <path d="M 31.149112701416016 -3.7748098373413086 C 45.24574279785156 4.377852916717529 9.228632926940918 -15.591141700744629 37.46592330932617 -4.355024814605713 C 19.344228744506836 19.297016143798828 -3.6268393993377686 34.91498947143555 -10.575139045715332 51.900386810302734" stroke-width="2.0" fill="none" stroke="rgb(0, 0, 0)" stroke-opacity="1" stroke-linecap="round" stroke-linejoin="round"/>
    <path d="M 48.518882751464844 137.7870330810547 C 57.107147216796875 139.2379608154297 78.52972412109375 113.09196472167969 83.06660461425781 105.62477111816406" stroke-width="2.0" fill="none" stroke="rgb(0, 0, 0)" stroke-opacity="1" stroke-linecap="round" stroke-linejoin="round"/>
    <path d="M 59.19148254394531 66.66722106933594 C 30.09281349182129 56.685874938964844 67.57057189941406 71.49356079101562 89.0469970703125 82.0232162475586 C 94.4018783569336 58.91274642944336 69.80314636230469 56.97932815551758 77.07625579833984 73.24254608154297 C 89.77132415771484 80.68486785888672 100.84683227539062 74.97127532958984 77.6689453125 92.9328842163086" stroke-width="2.0" fill="none" stroke="rgb(0, 0, 0)" stroke-opacity="1" stroke-linecap="round" stroke-linejoin="round"/>
    <path d="M 203.67544555664062 70.58816528320312 C 212.64048767089844 74.13395690917969 211.4705810546875 73.80367279052734 163.23806762695312 59.214046478271484 C 185.6123504638672 69.6806640625 155.3140411376953 65.41421508789062 177.9509735107422 66.844482421875 C 156.8623504638672 56.81907272338867 170.8184356689453 71.5820083618164 163.9564971923828 54.85181427001953" stroke-width="2.0" fill="none" stroke="rgb(0, 0, 0)" stroke-opacity="1" stroke-linecap="round" stroke-linejoin="round"/>
    <path d="M 154.9883575439453 109.96013641357422 C 146.4610595703125 104.89986419677734 151.00975036621094 85.89099884033203 160.86380004882812 89.02491760253906 C 169.3001708984375 68.84571075439453 177.17774963378906 99.51578521728516 159.12074279785156 81.58743286132812" stroke-width="2.0" fill="none" stroke="rgb(0, 0, 0)" stroke-opacity="1" stroke-linecap="round" stroke-linejoin="round"/>
    <path d="M 151.0111541748047 57.840553283691406 C 101.6798095703125 48.91974639892578 174.1168975830078 72.24187469482422 137.00057983398438 69.02667236328125" stroke-width="2.0" fill="none" stroke="rgb(0, 0, 0)" stroke-opacity="1" stroke-linecap="round" stroke-linejoin="round"/>
    <path d="M 5.286227226257324 71.94633483886719 C -14.901694297790527 71.30567932128906 25.428712844848633 59.336463928222656 -4.297759532928467 70.64830780029297 C 2.3512892723083496 59.55522155761719 32.241233825683594 48.81883239746094 41.96207809448242 60.67765808105469 C 5.670967102050781 44.258480072021484 16.115158081054688 58.92167663574219 28.156991958618164 45.03246307373047" stroke-width="2.0" fill="none" stroke="rgb(0, 0, 0)" stroke-opacity="1" stroke-linecap="round" stroke-linejoin="round"/>
    <path d="M -3.7287538051605225 146.07907104492188 C -0.9186478853225708 167.3614044189453 -19.455530166625977 160.2836456298828 -19.345664978027344 161.52114868164062 C 28.411882400512695 153.0259246826172 7.377871036529541 175.4036102294922 2.482891321182251 161.18505859375" stroke-width="2.0" fill="none" stroke="rgb(0, 0, 0)" stroke-opacity="1" stroke-linecap="round" stroke-linejoin="round"/>
    <path d="M 97.92657470703125 94.61865234375 C 81.61714172363281 87.16329956054688 100.0298080444336 82.49565124511719 94.98352813720703 93.45082092285156" stroke-width="2.0" fill="none" stroke="rgb(0, 0, 0)" stroke-opacity="1" stroke-linecap="round" stroke-linejoin="round"/>
    <path d="M 189.49673461914062 39.363426208496094 C 204.08712768554688 30.79371452331543 230.4645538330078 3.9656765460968018 197.00682067871094 23.35333824157715 C 203.7794952392578 22.38932228088379 193.67547607421875 28.580520629882812 195.19483947753906 28.907413482666016 C 204.06246948242188 26.78207778930664 221.6090850830078 -0.10754264891147614 208.03114318847656 7.306316375732422" stroke-width="2.0" fill="none" stroke="rgb(0, 0, 0)" stroke-opacity="1" stroke-linecap="round" stroke-linejoin="round"/>
    <path d="M 165.737060546875 80.15935516357422 C 167.8092803955078 92.24462127685547 170.96072387695312 75.84310150146484 162.67138671875 100.38084411621094 C 152.10516357421875 75.14207458496094 159.8625030517578 93.9713363647461 157.0402374267578 83.43915557861328 C 176.34446716308594 91.046875 161.12474060058594 103.46527099609375 168.36495971679688 82.73678588867188" stroke-width="2.0" fill="none" stroke="rgb(0, 0, 0)" stroke-opacity="1" stroke-linecap="round" stroke-linejoin="round"/>
    <path d="M 192.05723571777344 226.54843139648438 C 198.8330535888672 216.13653564453125 173.67135620117188 255.93955993652344 173.5813446044922 224.45993041992188 C 171.84263610839844 212.6979522705078 173.4319305419922 223.45729064941406 170.1282501220703 215.56065368652344 C 175.34487915039062 218.88601684570312 175.50306701660156 220.3949737548828 169.3676300048828 217.11297607421875" stroke-width="2.0" fill="none" stroke="rgb(0, 0, 0)" stroke-opacity="1" stroke-linecap="round" stroke-linejoin="round"/>
    <path d="M 169.07225036621094 95.95198059082031 C 165.66098022460938 88.5181884765625 158.37826538085938 81.66285705566406 169.1228485107422 81.7454833984375" stroke-width="2.0" fill="none" stroke="rgb(0, 0, 0)" stroke-opacity="1" stroke-linecap="round" stroke-linejoin="round"/>
    <path d="M 117.65784454345703 34.273433685302734 C 133.68130493164062 64.57205963134766 125.99691009521484 21.674392700195312 136.2815704345703 38.64469909667969 C 130.5079803466797 47.10148239135742 118.52832794189453 41.776756286621094 142.79148864746094 50.640037536621094 C 116.197265625 45.44051742553711 101.94708251953125 27.134798049926758 88.49546813964844 31.6254825592041" stroke-width="2.0" fill="none" stroke="rgb(0, 0, 0)" stroke-opacity="1" stroke-linecap="round" stroke-linejoin="round"/>
    <path d="M 62.501338958740234 230.64822387695312 C 51.16124725341797 202.6448974609375 52.376922607421875 200.61790466308594 30.838626861572266 222.4102325439453 C 9.813955307006836 246.26747131347656 24.693002700805664 186.86912536621094 25.208906173706055 210.6864776611328" stroke-width="2.0" fill="none" stroke="rgb(0, 0, 0)" stroke-opacity="1" stroke-linecap="round" stroke-linejoin="round"/>
    <path d="M 195.22935485839844 24.891191482543945 C 197.11936950683594 29.345657348632812 181.7931671142578 58.92038345336914 192.67691040039062 23.458587646484375" stroke-width="2.0" fill="none" stroke="rgb(0, 0, 0)" stroke-opacity="1" stroke-linecap="round" stroke-linejoin="round"/>
    <path d="M 87.58000946044922 84.07366180419922 C 62.724979400634766 71.4583969116211 50.09628677368164 60.46458053588867 35.55678176879883 60.744651794433594 C 71.7894058227539 73.07535552978516 57.116695404052734 73.82361602783203 41.613311767578125 53.34158706665039" stroke-width="2.0" fill="none" stroke="rgb(0, 0, 0)" stroke-opacity="1" stroke-linecap="round" stroke-linejoin="round"/>
    <path d="M 120.78246307373047 185.25579833984375 C 90.9242935180664 174.900634765625 67.1185073852539 166.57838439941406 78.91785430908203 187.02334594726562" stroke-width="2.0" fill="none" stroke="rgb(0, 0, 0)" stroke-opacity="1" stroke-linecap="round" stroke-linejoin="round"/>
    <path d="M 93.36051177978516 106.52606201171875 C 80.98770141601562 108.75824737548828 87.50469207763672 121.6358413696289 108.6159896850586 112.47959899902344" stroke-width="2.0" fill="none" stroke="rgb(0, 0, 0)" stroke-opacity="1" stroke-linecap="round" stroke-linejoin="round"/>
    <path d="M 124.04844665527344 45.55491256713867 C 85.35462188720703 29.777416229248047 92.64274597167969 29.08454704284668 84.17832946777344 46.68793487548828 C 84.2044448852539 26.49837875366211 99.21798706054688 23.056081771850586 80.86222076416016 42.796241760253906" stroke-width="2.0" fill="none" stroke="rgb(0, 0, 0)" stroke-opacity="1" stroke-linecap="round" stroke-linejoin="round"/>
    <path d="M 158.6718292236328 163.0249786376953 C 177.92970275878906 163.6134033203125 142.81021118164062 173.18882751464844 154.10760498046875 163.77740478515625" stroke-width="2.0" fill="none" stroke="rgb(0, 0, 0)" stroke-opacity="1" stroke-linecap="round" stroke-linejoin="round"/>
    <path d="M 186.7552947998047 -2.676732301712036 C 178.74826049804688 -12.872968673706055 182.83132934570312 -8.564129829406738 187.8594970703125 -12.278251647949219 C 202.78111267089844 -14.12630844116211 213.49314880371094 -9.395672798156738 218.16311645507812 -12.886433601379395 C 224.8863525390625 -4.490997314453125 219.45120239257812 -14.54250717163086 228.51144409179688 -10.357026100158691" stroke-width="2.0" fill="none" stroke="rgb(0, 0, 0)" stroke-opacity="1" stroke-linecap="round" stroke-linejoin="round"/>
    <path d="M 92.24488067626953 45.156585693359375 C 88.513427734375 2.6243624687194824 85.04243469238281 14.306756973266602 95.42169952392578 42.34944534301758 C 60.66568374633789 24.000463485717773 77.22769927978516 13.366694450378418 100.66053771972656 34.80664825439453 C 82.12996673583984 30.652523040771484 92.65956115722656 19.9058780670166 97.55587768554688 42.62485885620117" stroke-width="2.0" fill="none" stroke="rgb(0, 0, 0)" stroke-opacity="1" stroke-linecap="round" stroke-linejoin="round"/>
    <path d="M 133.2989959716797 138.10531616210938 C 121.88096618652344 163.93667602539062 151.88800048828125 139.54754638671875 130.0452117919922 131.71484375 C 123.14630126953125 163.60574340820312 148.11505126953125 135.0568389892578 164.60731506347656 123.76724243164062 C 138.5955810546875 148.33233642578125 134.87451171875 156.4607391357422 142.26214599609375 131.9417724609375" stroke-width="2.0" fill="none" stroke="rgb(0, 0, 0)" stroke-opacity="1" stroke-linecap="round" stroke-linejoin="round"/>
    <path d="M 139.85169982910156 153.0546112060547 C 108.46481323242188 159.40838623046875 116.23783874511719 162.51226806640625 98.82594299316406 149.0841064453125 C 117.02891540527344 158.9296417236328 162.2901153564453 155.4334259033203 140.92889404296875 164.3751983642578" stroke-width="2.0" fill="none" stroke="rgb(0, 0, 0)" stroke-opacity="1" stroke-linecap="round" stroke-linejoin="round"/>
    <path d="M 32.020774841308594 131.3513946533203 C 24.590961456298828 129.79983520507812 35.34588623046875 136.15541076660156 32.862518310546875 124.13790893554688 C 31.231491088867188 118.6800765991211 20.172164916992188 120.16402435302734 30.294692993164062 121.0656509399414 C 22.93060874938965 113.58049011230469 26.792695999145508 136.14544677734375 27.657466888427734 130.38775634765625" stroke-width="2.0" fill="none" stroke="rgb(0, 0, 0)" stroke-opacity="1" stroke-linecap="round" stroke-linejoin="round"/>
    <path d="M 117.8636474609375 39.21847915649414 C 156.9754180908203 35.725833892822266 118.124267578125 86.41129302978516 111.252197265625 61.59109115600586 C 154.65879821777344 65.56210327148438 100.42730712890625 55.93231964111328 125.65333557128906 54.24726104736328" stroke-width="2.0" fill="none" stroke="rgb(0, 0, 0)" stroke-opacity="1" stroke-linecap="round" stroke-linejoin="round"/>
    <path d="M 169.74722290039062 164.52584838867188 C 163.1429443359375 178.08261108398438 159.4215087890625 171.01930236816406 176.93783569335938 170.9864501953125 C 216.08009338378906 202.83692932128906 201.26129150390625 198.099853515625 161.0231170654297 206.12823486328125 C 167.3543243408203 213.62815856933594 170.0415496826172 215.12696838378906 175.15798950195312 220.65371704101562" stroke-width="2.0" fill="none" stroke="rgb(0, 0, 0)" stroke-opacity="1" stroke-linecap="round" stroke-linejoin="round"/>
    <path d="M 22.02387237548828 53.75314712524414 C -7.121159076690674 34.56527328491211 -7.685003757476807 40.02560806274414 30.811439514160156 49.75285720825195 C 19.727619171142578 61.24700927734375 1.4512250423431396 32.40529251098633 -5.61155891418457 30.06010627746582 C 34.3111457824707 58.5333251953125 35.379638671875 65.7640151977539 17.558046340942383 50.783470153808594" stroke-width="2.0" fill="none" stroke="rgb(0, 0, 0)" stroke-opacity="1" stroke-linecap="round" stroke-linejoin="round"/>
    <path d="M 206.22080993652344 210.87376403808594 C 219.98631286621094 230.53111267089844 209.96109008789062 272.83154296875 195.9864501953125 213.66493225097656 C 208.1874237060547 224.2213897705078 224.11514282226562 197.57308959960938 207.40989685058594 208.0333709716797" stroke-width="2.0" fill="none" stroke="rgb(0, 0, 0)" stroke-opacity="1" stroke-linecap="round" stroke-linejoin="round"/>
    <path d="M 100.0980224609375 22.896604537963867 C 98.83869171142578 37.122684478759766 87.88147735595703 6.7380475997924805 99.34334564208984 17.7764892578125" stroke-width="2.0" fill="none" stroke="rgb(0, 0, 0)" stroke-opacity="1" stroke-linecap="round" stroke-linejoin="round"/>
    <path d="M 206.3211212158203 175.8411407470703 C 186.20948791503906 149.27291870117188 183.4792938232422 210.59266662597656 191.7909393310547 195.9578094482422 C 202.5187225341797 187.73965454101562 198.47413635253906 204.33990478515625 181.5972442626953 189.048583984375 C 202.85238647460938 186.7227020263672 213.066650390625 206.98167419433594 225.52593994140625 218.83395385742188" stroke-width="2.0" fill="none" stroke="rgb(0, 0, 0)" stroke-opacity="1" stroke-linecap="round" stroke-linejoin="round"/>
    <path d="M 180.1048583984375 85.78902435302734 C 173.84046936035156 97.25574493408203 193.61233520507812 86.29171752929688 169.37709045410156 70.2381362915039 C 185.0409393310547 97.01056671142578 184.11900329589844 54.99079513549805 178.63722229003906 79.48519897460938" stroke-width="2.0" fill="none" stroke="rgb(0, 0, 0)" stroke-opacity="1" stroke-linecap="round" stroke-linejoin="round"/>
    <path d="M 100.0148696899414 150.59010314941406 C 33.20411682128906 135.1873779296875 41.27665710449219 155.0092315673828 60.86621856689453 126.17748260498047 C 55.21973419189453 139.30796813964844 52.848411560058594 126.20697021484375 42.69672393798828 87.68067169189453" stroke-width="2.0" fill="none" stroke="rgb(0, 0, 0)" stroke-opacity="1" stroke-linecap="round" stroke-linejoin="round"/>
    <path d="M 168.76995849609375 92.99005126953125 C 160.82215881347656 93.84994506835938 153.0573272705078 75.83341217041016 157.36666870117188 143.3095703125 C 143.48951721191406 130.60670471191406 153.68899536132812 115.57975006103516 145.34442138671875 123.26245880126953" stroke-width="2.0" fill="none" stroke="rgb(0, 0, 0)" stroke-opacity="1" stroke-linecap="round" stroke-linejoin="round"/>
    <path d="M 212.73095703125 137.0335693359375 C 208.7122039794922 128.32638549804688 198.59637451171875 136.7716522216797 210.1013946533203 132.8320770263672 C 221.8075408935547 150.41299438476562 192.24664306640625 148.47108459472656 203.63319396972656 134.68991088867188 C 209.5325164794922 181.7025604248047 241.76939392089844 179.36546325683594 257.0462341308594 168.2720184326172" stroke-width="2.0" fill="none" stroke="rgb(0, 0, 0)" stroke-opacity="1" stroke-linecap="round" stroke-linejoin="round"/>
    <path d="M 157.10499572753906 35.16353225708008 C 147.267822265625 27.90105438232422 170.90272521972656 12.725078582763672 170.26324462890625 22.4982852935791 C 168.11282348632812 15.560261726379395 175.2489471435547 27.858720779418945 160.69151306152344 23.8452205657959" stroke-width="2.0" fill="none" stroke="rgb(0, 0, 0)" stroke-opacity="1" stroke-linecap="round" stroke-linejoin="round"/>
    <path d="M 15.014938354492188 214.28265380859375 C 0.2802872955799103 210.13121032714844 16.37618064880371 233.96737670898438 17.890472412109375 203.19175720214844 C 50.65622329711914 177.1103973388672 40.85874557495117 190.85244750976562 26.638399124145508 168.15023803710938 C 52.198219299316406 182.0291290283203 36.22590637207031 158.8055877685547 35.855712890625 171.7700653076172" stroke-width="2.0" fill="none" stroke="rgb(0, 0, 0)" stroke-opacity="1" stroke-linecap="round" stroke-linejoin="round"/>
    <path d="M 168.6941680908203 122.14599609375 C 188.65899658203125 111.86683654785156 180.68698120117188 111.6244888305664 171.7530059814453 118.4140853881836 C 182.21461486816406 120.27759552001953 159.5010986328125 123.18523406982422 178.12266540527344 126.33914184570312" stroke-width="2.0" fill="none" stroke="rgb(0, 0, 0)" stroke-opacity="1" stroke-linecap="round" stroke-linejoin="round"/>
    <path d="M -1.9617865085601807 131.93885803222656 C 28.877517700195312 149.26475524902344 30.40060806274414 145.63624572753906 14.237757682800293 141.8861083984375 C 36.48482894897461 160.95140075683594 21.261568069458008 126.07292938232422 40.656009674072266 151.42576599121094 C 65.326171875 130.7102813720703 67.9923095703125 124.7803955078125 38.83985900878906 157.95574951171875" stroke-width="2.0" fill="none" stroke="rgb(0, 0, 0)" stroke-opacity="1" stroke-linecap="round" stroke-linejoin="round"/>
    <path d="M 68.0521469116211 54.098655700683594 C 65.17865753173828 65.77327728271484 73.51600646972656 34.0903434753418 47.926368713378906 30.06339454650879" stroke-width="2.0" fill="none" stroke="rgb(0, 0, 0)" stroke-opacity="1" stroke-linecap="round" stroke-linejoin="round"/>
    <path d="M 29.108089447021484 151.9098663330078 C 42.71741485595703 158.10272216796875 32.95829391479492 170.13833618164062 25.572463989257812 153.86744689941406" stroke-width="2.0" fill="none" stroke="rgb(0, 0, 0)" stroke-opacity="1" stroke-linecap="round" stroke-linejoin="round"/>
    <path d="M 136.19187927246094 94.33667755126953 C 117.11138153076172 68.67215728759766 114.53262329101562 88.42764282226562 121.52056884765625 71.70198822021484" stroke-width="2.0" fill="none" stroke="rgb(0, 0, 0)" stroke-opacity="1" stroke-linecap="round" stroke-linejoin="round"/>
    <path d="M 160.12127685546875 124.1106185913086 C 167.2802734375 116.79082489013672 171.30471801757812 119.8964614868164 149.0362091064453 142.46580505371094 C 147.4532928466797 154.90948486328125 153.38385009765625 133.3633575439453 167.18133544921875 126.24951934814453 C 146.366455078125 147.104248046875 145.7294921875 128.94032287597656 168.25729370117188 121.66776275634766" stroke-width="2.0" fill="none" stroke="rgb(0, 0, 0)" stroke-opacity="1" stroke-linecap="round" stroke-linejoin="round"/>
    <path d="M 88.98342895507812 46.06126403808594 C 120.6104507446289 62.54473876953125 91.1395263671875 30.956939697265625 70.4704360961914 54.83000183105469 C 42.054874420166016 39.68986129760742 56.53824996948242 69.39302825927734 51.364261627197266 63.075706481933594" stroke-width="2.0" fill="none" stroke="rgb(0, 0, 0)" stroke-opacity="1" stroke-linecap="round" stroke-linejoin="round"/>
    <path d="M 161.49058532714844 18.051841735839844 C 171.44827270507812 22.447771072387695 157.14308166503906 15.53916072845459 145.61314392089844 36.43574523925781 C 170.29635620117188 14.215421676635742 161.29446411132812 28.97635841369629 155.62152099609375 25.215694427490234" stroke-width="2.0" fill="none" stroke="rgb(0, 0, 0)" stroke-opacity="1" stroke-linecap="round" stroke-linejoin="round"/>
    <path d="M 172.21102905273438 120.07011413574219 C 182.44778442382812 120.24161529541016 170.14047241210938 106.10456085205078 177.75595092773438 115.72032928466797 C 171.72161865234375 125.37861633300781 207.60911560058594 109.44117736816406 172.45169067382812 160.3477325439453 C 186.4490509033203 124.88377380371094 194.18214416503906 160.41195678710938 192.6824951171875 129.7739715576172" stroke-width="2.0" fill="none" stroke="rgb(0, 0, 0)" stroke-opacity="1" stroke-linecap="round" stroke-linejoin="round"/>
    <path d="M 125.45624542236328 154.26791381835938 C 163.82008361816406 139.62362670898438 176.10093688964844 128.76341247558594 175.35586547851562 144.78392028808594 C 131.7090606689453 132.967041015625 144.17825317382812 141.4075927734375 161.20448303222656 156.17103576660156" stroke-width="2.0" fill="none" stroke="rgb(0, 0, 0)" stroke-opacity="1" stroke-linecap="round" stroke-linejoin="round"/>
    <path d="M 7.507668972015381 142.01992797851562 C -0.9966375827789307 133.9023895263672 1.836247205734253 156.99658203125 -3.531590223312378 134.1333770751953 C -4.320642471313477 122.05548858642578 8.90881061553955 142.05453491210938 12.870622634887695 145.36329650878906 C -1.0206407308578491 163.85179138183594 -8.64128303527832 168.17234802246094 -17.09701156616211 153.08189392089844" stroke-width="2.0" fill="none" stroke="rgb(0, 0, 0)" stroke-opacity="1" stroke-linecap="round" stroke-linejoin="round"/>
    <path d="M 86.6303939819336 104.79421997070312 C 61.88471221923828 116.04154968261719 59.4752311706543 122.54154205322266 52.85782241821289 138.58560180664062 C 77.48370361328125 124.10030364990234 75.38008880615234 116.20158386230469 57.59370422363281 125.4964828491211 C 76.79911041259766 124.7020263671875 63.276153564453125 107.38883972167969 88.23843383789062 108.02771759033203" stroke-width="2.0" fill="none" stroke="rgb(0, 0, 0)" stroke-opacity="1" stroke-linecap="round" stroke-linejoin="round"/>
    <path d="M 176.16348266601562 116.84159851074219 C 189.8920440673828 104.14157104492188 187.60183715820312 111.82447052001953 178.2183380126953 113.79212951660156 C 176.40577697753906 121.69782257080078 201.4343719482422 95.29505920410156 169.0554656982422 123.9927749633789 C 156.56527709960938 127.18380737304688 186.14378356933594 125.79254913330078 164.44960021972656 135.1136932373047" stroke-width="2.0" fill="none" stroke="rgb(0, 0, 0)" stroke-opacity="1" stroke-linecap="round" stroke-linejoin="round"/>
    <path d="M 79.71403503417969 158.84780883789062 C 92.46240997314453 150.16232299804688 88.01958465576172 180.91635131835938 70.38188934326172 153.36245727539062 C 71.41365814208984 183.71994018554688 90.00472259521484 181.39793395996094 92.04610443115234 178.97274780273438 C 67.60802459716797 170.8126220703125 77.0946044921875 169.06723022460938 74.10758209228516 181.90301513671875" stroke-width="2.0" fill="none" stroke="rgb(0, 0, 0)" stroke-opacity="1" stroke-linecap="round" stroke-linejoin="round"/>
    <path d="M 43.03633499145508 135.5867919921875 C 51.71062469482422 148.88262939453125 43.02506637573242 154.38906860351562 26.868274688720703 173.84312438964844 C 36.68916702270508 146.3368682861328 49.849571228027344 139.35169982910156 30.350479125976562 157.72793579101562 C 52.83283615112305 149.51773071289062 48.21377944946289 145.36720275878906 18.460084915161133 158.78009033203125" stroke-width="2.0" fill="none" stroke="rgb(0, 0, 0)" stroke-opacity="1" stroke-linecap="round" stroke-linejoin="round"/>
    <path d="M 86.30007934570312 135.28123474121094 C 80.09178924560547 137.34222412109375 130.79312133789062 170.2573699951172 111.75968933105469 148.55526733398438" stroke-width="2.0" fill="none" stroke="rgb(0, 0, 0)" stroke-opacity="1" stroke-linecap="round" stroke-linejoin="round"/>
    <path d="M 219.34669494628906 7.245682239532471 C 199.5758056640625 31.20233154296875 216.0382080078125 21.022985458374023 218.00454711914062 10.886286735534668" stroke-width="2.0" fill="none" stroke="rgb(0, 0, 0)" stroke-opacity="1" stroke-linecap="round" stroke-linejoin="round"/>
    <path d="M 161.27371215820312 206.25888061523438 C 175.07171630859375 223.06649780273438 161.6649169921875 206.8880615234375 197.30455017089844 189.9558563232422 C 162.2222900390625 197.19247436523438 172.93508911132812 177.6009979248047 187.5463409423828 184.88890075683594" stroke-width="2.0" fill="none" stroke="rgb(0, 0, 0)" stroke-opacity="1" stroke-linecap="round" stroke-linejoin="round"/>
    <path d="M 164.1621856689453 171.1630859375 C 154.68141174316406 177.80592346191406 136.90049743652344 201.4781951904297 170.03330993652344 162.2300262451172 C 175.40333557128906 174.66908264160156 148.05136108398438 177.37557983398438 169.40745544433594 185.00997924804688 C 159.65054321289062 193.68409729003906 158.05615234375 165.3583984375 170.35630798339844 184.38302612304688" stroke-width="2.0" fill="none" stroke="rgb(0, 0, 0)" stroke-opacity="1" stroke-linecap="round" stroke-linejoin="round"/>
    <path d="M 179.84442138671875 24.16027069091797 C 179.59432983398438 15.103252410888672 197.8569793701172 22.30135154724121 172.89190673828125 7.294657230377197 C 188.08236694335938 -21.556547164916992 207.66067504882812 19.696378707885742 180.27938842773438 -1.1592435836791992" stroke-width="2.0" fill="none" stroke="rgb(0, 0, 0)" stroke-opacity="1" stroke-linecap="round" stroke-linejoin="round"/>
    <path d="M 202.43759155273438 -3.617908239364624 C 217.2450714111328 -21.01548957824707 210.82359313964844 6.8145318031311035 220.51113891601562 12.87842845916748 C 206.26617431640625 -21.120994567871094 218.03890991210938 -33.27546691894531 227.24014282226562 -35.52363204956055" stroke-width="2.0" fill="none" stroke="rgb(0, 0, 0)" stroke-opacity="1" stroke-linecap="round" stroke-linejoin="round"/>
    <path d="M 38.68410110473633 140.0950164794922 C 43.77436447143555 157.2503662109375 24.230186462402344 177.52540588378906 20.124902725219727 181.06126403808594" stroke-width="2.0" fill="none" stroke="rgb(0, 0, 0)" stroke-opacity="1" stroke-linecap="round" stroke-linejoin="round"/>
    <path d="M 193.93231201171875 33.805545806884766 C 204.01608276367188 32.278045654296875 172.39022827148438 7.850887775421143 189.0539093017578 21.192855834960938 C 191.2100067138672 19.70616340637207 182.19361877441406 25.984851837158203 197.48236083984375 34.28072738647461 C 207.66534423828125 11.219615936279297 213.54127502441406 26.131366729736328 187.01678466796875 43.35604476928711" stroke-width="2.0" fill="none" stroke="rgb(0, 0, 0)" stroke-opacity="1" stroke-linecap="round" stroke-linejoin="round"/>
    <path d="M 182.61849975585938 65.62452697753906 C 206.9697723388672 71.7535629272461 226.1463623046875 74.60850524902344 208.06179809570312 89.29158782958984" stroke-width="2.0" fill="none" stroke="rgb(0, 0, 0)" stroke-opacity="1" stroke-linecap="round" stroke-linejoin="round"/>
    <path d="M 174.9818572998047 115.40113067626953 C 170.46629333496094 119.7724838256836 163.4711151123047 134.00912475585938 165.3376007080078 100.9905776977539 C 163.75318908691406 134.98025512695312 167.858642578125 127.96992492675781 173.3033447265625 103.66326904296875 C 173.61505126953125 135.06045532226562 172.271728515625 115.24391174316406 207.91513061523438 91.89749908447266" stroke-width="2.0" fill="none" stroke="rgb(0, 0, 0)" stroke-opacity="1" stroke-linecap="round" stroke-linejoin="round"/>
    <path d="M 147.68408203125 110.89429473876953 C 144.3446502685547 129.33692932128906 136.57777404785156 111.7711410522461 152.83563232421875 134.48265075683594 C 132.9788360595703 114.41809844970703 131.39588928222656 105.5335464477539 135.82818603515625 90.72755432128906" stroke-width="2.0" fill="none" stroke="rgb(0, 0, 0)" stroke-opacity="1" stroke-linecap="round" stroke-linejoin="round"/>
    <path d="M 170.3042755126953 183.04171752929688 C 175.2579345703125 162.47262573242188 178.1724090576172 191.1685028076172 165.8998260498047 181.5261688232422" stroke-width="2.0" fill="none" stroke="rgb(0, 0, 0)" stroke-opacity="1" stroke-linecap="round" stroke-linejoin="round"/>
    <path d="M 78.83536529541016 107.21556854248047 C 58.376708984375 126.97866821289062 61.7773323059082 140.3756103515625 70.18831634521484 122.82057189941406 C 49.58726501464844 129.77430725097656 81.1231918334961 121.56702423095703 83.95770263671875 137.53355407714844" stroke-width="2.0" fill="none" stroke="rgb(0, 0, 0)" stroke-opacity="1" stroke-linecap="round" stroke-linejoin="round"/>
    <path d="M 95.26390075683594 151.4815673828125 C 64.2380142211914 143.9264373779297 108.2475357055664 142.7679901123047 113.96497344970703 161.43350219726562 C 120.79747772216797 157.1171875 141.98178100585938 147.67669677734375 157.1328887939453 155.15602111816406 C 143.16482543945312 157.66790771484375 127.72360229492188 149.89382934570312 124.87078094482422 155.94027709960938" stroke-width="2.0" fill="none" stroke="rgb(0, 0, 0)" stroke-opacity="1" stroke-linecap="round" stroke-linejoin="round"/>
    <path d="M 108.13929748535156 -1.0500916242599487 C 93.69406127929688 -1.8386259078979492 118.3344497680664 6.621249198913574 107.31046295166016 11.145628929138184 C 89.52082824707031 10.742768287658691 94.08522033691406 -37.8448600769043 89.68000793457031 42.466739654541016" stroke-width="2.0" fill="none" stroke="rgb(0, 0, 0)" stroke-opacity="1" stroke-linecap="round" stroke-linejoin="round"/>
    <path d="M 105.47702026367188 196.15867614746094 C 102.70655822753906 187.75267028808594 103.40963745117188 208.19403076171875 109.21570587158203 191.6747589111328 C 130.8518524169922 190.55239868164062 109.11779022216797 213.3989715576172 114.3093032836914 188.19708251953125 C 98.38880157470703 205.3128204345703 130.24899291992188 202.44447326660156 113.98428344726562 190.3780975341797" stroke-width="2.0" fill="none" stroke="rgb(0, 0, 0)" stroke-opacity="1" stroke-linecap="round" stroke-linejoin="round"/>
    <path d="M 70.22319030761719 127.50604248046875 C 65.70073699951172 108.86141204833984 85.14649200439453 112.71713256835938 67.13935089111328 115.49868774414062" stroke-width="2.0" fill="none" stroke="rgb(0, 0, 0)" stroke-opacity="1" stroke-linecap="round" stroke-linejoin="round"/>
    <path d="M 177.25782775878906 -6.42771053314209 C 180.3245391845703 9.765377044677734 167.7474822998047 32.37939453125 167.08316040039062 12.595687866210938" stroke-width="2.0" fill="none" stroke="rgb(0, 0, 0)" stroke-opacity="1" stroke-linecap="round" stroke-linejoin="round"/>
    <path d="M 31.083181381225586 159.83450317382812 C 47.124019622802734 143.97874450683594 51.41389846801758 151.54922485351562 5.04511022567749 148.85731506347656 C 33.98276901245117 139.1875457763672 26.578086853027344 174.3257598876953 22.822067260742188 161.64588928222656" stroke-width="2.0" fill="none" stroke="rgb(0, 0, 0)" stroke-opacity="1" stroke-linecap="round" stroke-linejoin="round"/>
    <path d="M 39.29222869873047 111.55309295654297 C 28.223081588745117 108.89564514160156 46.6850700378418 102.41981506347656 50.025733947753906 109.5273208618164 C 61.29567337036133 113.87602996826172 66.54351806640625 131.57179260253906 59.001190185546875 133.40155029296875 C 52.20531463623047 140.691650390625 51.61990737915039 138.79623413085938 46.21299743652344 129.75022888183594" stroke-width="2.0" fill="none" stroke="rgb(0, 0, 0)" stroke-opacity="1" stroke-linecap="round" stroke-linejoin="round"/>
    <path d="M 215.29098510742188 207.69789123535156 C 231.00796508789062 195.80393981933594 229.44007873535156 180.80809020996094 241.4500274658203 200.93719482421875 C 235.48313903808594 193.39857482910156 233.98204040527344 203.25936889648438 232.5509033203125 196.9261016845703" stroke-width="2.0" fill="none" stroke="rgb(0, 0, 0)" stroke-opacity="1" stroke-linecap="round" stroke-linejoin="round"/>
    <path d="M 7.222780227661133 46.36075210571289 C 37.643898010253906 64.76570892333984 22.11740493774414 51.15178298950195 12.898909568786621 40.02103805541992 C 16.88011932373047 17.34449577331543 34.801029205322266 33.55952453613281 14.880959510803223 32.09604263305664" stroke-width="2.0" fill="none" stroke="rgb(0, 0, 0)" stroke-opacity="1" stroke-linecap="round" stroke-linejoin="round"/>
    <path d="M 194.11244201660156 68.79447937011719 C 227.00967407226562 73.0423812866211 201.85072326660156 74.65309143066406 232.36129760742188 77.0697250366211" stroke-width="2.0" fill="none" stroke="rgb(0, 0, 0)" stroke-opacity="1" stroke-linecap="round" stroke-linejoin="round"/>
    <path d="M 149.9691162109375 187.9541015625 C 128.71881103515625 193.9302520751953 150.22271728515625 197.4075469970703 132.0569305419922 187.09141540527344" stroke-width="2.0" fill="none" stroke="rgb(0, 0, 0)" stroke-opacity="1" stroke-linecap="round" stroke-linejoin="round"/>
    <path d="M 18.036869049072266 99.87236785888672 C 50.690826416015625 102.00299835205078 70.3223876953125 102.78694915771484 64.71465301513672 102.06159210205078" stroke-width="2.0" fill="none" stroke="rgb(0, 0, 0)" stroke-opacity="1" stroke-linecap="round" stroke-linejoin="round"/>
    <path d="M 149.01840209960938 34.46662139892578 C 163.4847412109375 22.635499954223633 163.45223999023438 11.623211860656738 158.34278869628906 35.3616943359375 C 144.16795349121094 1.121434211730957 136.01123046875 28.651466369628906 144.03842163085938 26.299741744995117" stroke-width="2.0" fill="none" stroke="rgb(0, 0, 0)" stroke-opacity="1" stroke-linecap="round" stroke-linejoin="round"/>
    <path d="M 177.7357635498047 -10.68076229095459 C 177.42848205566406 0.16239488124847412 158.7152557373047 14.178268432617188 153.35897827148438 26.9376277923584 C 168.96141052246094 4.787113666534424 161.97421264648438 24.687658309936523 169.20703125 33.24259948730469" stroke-width="2.0" fill="none" stroke="rgb(0, 0, 0)" stroke-opacity="1" stroke-linecap="round" stroke-linejoin="round"/>
    <path d="M 10.985640525817871 200.40451049804688 C -24.430187225341797 189.48648071289062 -20.548826217651367 165.1842498779297 18.562753677368164 142.02899169921875 C 13.476983070373535 142.06317138671875 -9.960570335388184 134.2829132080078 -9.239917755126953 120.4976577758789" stroke-width="2.0" fill="none" stroke="rgb(0, 0, 0)" stroke-opacity="1" stroke-linecap="round" stroke-linejoin="round"/>
    <path d="M 45.67943572998047 189.74484252929688 C 51.142581939697266 173.34278869628906 48.78449249267578 176.95065307617188 58.69710922241211 191.47842407226562 C 39.550804138183594 185.48179626464844 78.28337860107422 193.75489807128906 62.73929977416992 177.05381774902344 C 49.2609977722168 205.5992431640625 42.981597900390625 230.2796173095703 41.7525749206543 216.9131317138672" stroke-width="2.0" fill="none" stroke="rgb(0, 0, 0)" stroke-opacity="1" stroke-linecap="round" stroke-linejoin="round"/>
    <path d="M 173.83128356933594 219.89068603515625 C 172.72750854492188 241.7545166015625 168.16888427734375 245.4389190673828 168.4191436767578 244.0961151123047" stroke-width="2.0" fill="none" stroke="rgb(0, 0, 0)" stroke-opacity="1" stroke-linecap="round" stroke-linejoin="round"/>
    <path d="M 33.43943786621094 195.15789794921875 C 14.351249694824219 178.2351837158203 -5.963521957397461 158.17982482910156 -1.9285078048706055 169.7760772705078" stroke-width="2.0" fill="none" stroke="rgb(0, 0, 0)" stroke-opacity="1" stroke-linecap="round" stroke-linejoin="round"/>
    <path d="M 99.91754150390625 62.305912017822266 C 105.50596618652344 46.5445442199707 110.86709594726562 28.376123428344727 94.13226318359375 39.208465576171875 C 119.08362579345703 40.412628173828125 87.50133514404297 36.265907287597656 52.341346740722656 18.976293563842773" stroke-width="2.0" fill="none" stroke="rgb(0, 0, 0)" stroke-opacity="1" stroke-linecap="round" stroke-linejoin="round"/>
    <path d="M 208.5152587890625 157.80303955078125 C 190.9661102294922 181.187744140625 192.6910400390625 165.73129272460938 192.7062225341797 139.15057373046875 C 195.70501708984375 175.38157653808594 199.99844360351562 169.59616088867188 177.71600341796875 188.40284729003906" stroke-width="2.0" fill="none" stroke="rgb(0, 0, 0)" stroke-opacity="1" stroke-linecap="round" stroke-linejoin="round"/>
    <path d="M 221.80455017089844 153.6088104248047 C 216.45223999023438 148.45233154296875 222.9547119140625 143.4954071044922 237.16647338867188 151.0428924560547 C 233.22776794433594 171.5799560546875 233.5327911376953 166.1717071533203 233.3489227294922 167.49685668945312 C 230.28414916992188 174.1519317626953 227.80633544921875 180.49868774414062 228.83824157714844 177.5557403564453" stroke-width="2.0" fill="none" stroke="rgb(0, 0, 0)" stroke-opacity="1" stroke-linecap="round" stroke-linejoin="round"/>
    <path d="M 46.47623825073242 146.05413818359375 C 62.65011978149414 116.4261245727539 53.06947326660156 123.25616455078125 34.3465690612793 162.22299194335938 C 34.46406173706055 147.4069061279297 56.48501205444336 144.57757568359375 63.17485809326172 122.20556640625" stroke-width="2.0" fill="none" stroke="rgb(0, 0, 0)" stroke-opacity="1" stroke-linecap="round" stroke-linejoin="round"/>
    <path d="M 145.57794189453125 40.832637786865234 C 152.43157958984375 30.746915817260742 180.44773864746094 25.998126983642578 167.6363067626953 43.87162780761719" stroke-width="2.0" fill="none" stroke="rgb(0, 0, 0)" stroke-opacity="1" stroke-linecap="round" stroke-linejoin="round"/>
    <path d="M 70.20497131347656 82.66543579101562 C 81.89338684082031 79.0416259765625 73.2452621459961 91.42357635498047 69.14220428466797 83.07255554199219" stroke-width="2.0" fill="none" stroke="rgb(0, 0, 0)" stroke-opacity="1" stroke-linecap="round" stroke-linejoin="round"/>
    <path d="M 90.89511108398438 17.883590698242188 C 69.37471771240234 20.880619049072266 88.0192642211914 12.447381019592285 88.00518798828125 12.312142372131348 C 88.20835876464844 13.302739143371582 91.94612884521484 -0.2039235681295395 85.671875 22.882158279418945" stroke-width="2.0" fill="none" stroke="rgb(0, 0, 0)" stroke-opacity="1" stroke-linecap="round" stroke-linejoin="round"/>
    <path d="M 168.60049438476562 196.23370361328125 C 167.00259399414062 195.97647094726562 169.19615173339844 203.666748046875 168.2123565673828 199.83697509765625 C 165.9732666015625 189.40213012695312 181.6363525390625 199.87890625 169.27853393554688 200.81219482421875" stroke-width="2.0" fill="none" stroke="rgb(0, 0, 0)" stroke-opacity="1" stroke-linecap="round" stroke-linejoin="round"/>
    <path d="M 154.94305419921875 54.8928337097168 C 176.18011474609375 67.87621307373047 163.99063110351562 63.75755310058594 191.00119018554688 40.686683654785156" stroke-width="2.0" fill="none" stroke="rgb(0, 0, 0)" stroke-opacity="1" stroke-linecap="round" stroke-linejoin="round"/>
    <path d="M 90.94578552246094 14.45391845703125 C 61.34080505371094 24.47641944885254 111.8703842163086 25.1966609954834 79.50672149658203 19.078638076782227" stroke-width="2.0" fill="none" stroke="rgb(0, 0, 0)" stroke-opacity="1" stroke-linecap="round" stroke-linejoin="round"/>
    <path d="M 149.744873046875 183.0102081298828 C 125.62850189208984 181.00741577148438 155.78134155273438 163.94883728027344 150.4237518310547 190.31069946289062 C 131.04965209960938 210.08970642089844 144.4454345703125 162.78993225097656 143.3970489501953 200.82626342773438 C 120.64791107177734 191.22145080566406 125.60668182373047 179.64552307128906 132.970458984375 186.26727294921875" stroke-width="2.0" fill="none" stroke="rgb(0, 0, 0)" stroke-opacity="1" stroke-linecap="round" stroke-linejoin="round"/>
    <path d="M 204.32688903808594 42.50150680541992 C 186.11949157714844 35.57819366455078 228.97569274902344 33.82454299926758 231.53878784179688 50.5800895690918 C 229.45010375976562 39.93393325805664 229.30494689941406 35.60591125488281 231.53160095214844 41.26863479614258" stroke-width="2.0" fill="none" stroke="rgb(0, 0, 0)" stroke-opacity="1" stroke-linecap="round" stroke-linejoin="round"/>
    <path d="M 167.7331085205078 60.85281753540039 C 176.02845764160156 41.84428787231445 151.15802001953125 84.03914642333984 138.7616424560547 86.96981048583984" stroke-width="2.0" fill="none" stroke="rgb(0, 0, 0)" stroke-opacity="1" stroke-linecap="round" stroke-linejoin="round"/>
    <path d="M 164.3165740966797 168.54490661621094 C 122.71586608886719 223.8708953857422 121.05126190185547 221.48135375976562 141.31280517578125 199.60202026367188 C 125.19126892089844 195.54693603515625 127.06485748291016 192.78321838378906 144.70809936523438 174.86117553710938" stroke-width="2.0" fill="none" stroke="rgb(0, 0, 0)" stroke-opacity="1" stroke-linecap="round" stroke-linejoin="round"/>
    <path d="M 23.050914764404297 147.37278747558594 C -5.751235008239746 164.32289123535156 -8.597006797790527 154.98780822753906 21.610931396484375 147.60052490234375 C 1.797490119934082 137.914306640625 -2.9051198959350586 145.2371063232422 22.94331169128418 149.36537170410156" stroke-width="2.0" fill="none" stroke="rgb(0, 0, 0)" stroke-opacity="1" stroke-linecap="round" stroke-linejoin="round"/>
    <path d="M 53.191261291503906 30.422073364257812 C 57.17814254760742 26.563026428222656 83.9711685180664 -2.590601682662964 77.5879135131836 -4.585080623626709" stroke-width="2.0" fill="none" stroke="rgb(0, 0, 0)" stroke-opacity="1" stroke-linecap="round" stroke-linejoin="round"/>
    <path d="M 46.7672233581543 164.737548828125 C 56.12825393676758 168.1310577392578 84.54398345947266 180.7916717529297 83.59070587158203 189.74969482421875 C 82.20296478271484 184.54486083984375 65.67465209960938 176.3233642578125 80.50835418701172 190.81175231933594 C 78.34151458740234 170.463134765625 58.40913391113281 165.7119140625 73.52520751953125 175.83255004882812" stroke-width="2.0" fill="none" stroke="rgb(0, 0, 0)" stroke-opacity="1" stroke-linecap="round" stroke-linejoin="round"/>
    <path d="M 104.59935760498047 40.32792663574219 C 81.85600280761719 38.35735321044922 81.38668823242188 48.594478607177734 105.9581298828125 41.123355865478516 C 100.60546875 54.105655670166016 50.241737365722656 41.78057098388672 77.45743560791016 23.035015106201172 C 90.97340393066406 20.905778884887695 59.391883850097656 4.720186233520508 55.30770492553711 -1.8702930212020874" stroke-width="2.0" fill="none" stroke="rgb(0, 0, 0)" stroke-opacity="1" stroke-linecap="round" stroke-linejoin="round"/>
    <path d="M 109.34425354003906 113.54359436035156 C 119.28885650634766 120.47063446044922 115.11176300048828 110.55036163330078 111.32763671875 128.41897583007812 C 98.78163146972656 139.59349060058594 94.429443359375 126.8124008178711 115.43795776367188 122.65293884277344" stroke-width="2.0" fill="none" stroke="rgb(0, 0, 0)" stroke-opacity="1" stroke-linecap="round" stroke-linejoin="round"/>
    <path d="M 63.844329833984375 227.80032348632812 C 87.39139556884766 195.9000244140625 95.08930969238281 195.52078247070312 75.0236587524414 219.7493896484375" stroke-width="2.0" fill="none" stroke="rgb(0, 0, 0)" stroke-opacity="1" stroke-linecap="round" stroke-linejoin="round"/>
    <path d="M 108.94619750976562 113.8118896484375 C 113.50973510742188 112.056884765625 112.61764526367188 125.53361511230469 120.1495132446289 116.4896469116211 C 94.17475128173828 100.22100830078125 85.56671905517578 133.8609161376953 100.40058135986328 121.21861267089844 C 98.93656158447266 116.43292999267578 84.51264953613281 110.9754638671875 129.23040771484375 114.6532974243164" stroke-width="2.0" fill="none" stroke="rgb(0, 0, 0)" stroke-opacity="1" stroke-linecap="round" stroke-linejoin="round"/>
    <path d="M 232.4775848388672 60.418296813964844 C 235.30499267578125 60.70903015136719 235.541015625 60.235382080078125 230.6764678955078 53.77341842651367 C 203.3375244140625 56.342933654785156 201.82498168945312 87.9249496459961 222.1625213623047 62.82565689086914 C 200.051025390625 50.03111267089844 222.63201904296875 40.7949104309082 227.70697021484375 65.40216064453125" stroke-width="2.0" fill="none" stroke="rgb(0, 0, 0)" stroke-opacity="1" stroke-linecap="round" stroke-linejoin="round"/>
  </g>
</svg>
