<?xml version="1.0" ?>
<svg xmlns="http://www.w3.org/2000/svg" version="1.1" width="224" height="224">
  <defs/>
  <g>
    <path d="M 198.5491485595703 210.3312225341797 C 188.92611694335938 174.30624389648438 198.33253479003906 171.3162384033203 195.00515747070312 180.49948120117188 C 196.6320343017578 178.28842163085938 211.74520874023438 181.86651611328125 209.4521026611328 184.63275146484375 C 208.3145294189453 192.05343627929688 217.16275024414062 186.1933135986328 196.34014892578125 182.7055206298828" stroke-width="2.0" fill="none" stroke="rgb(0, 0, 0)" stroke-opacity="1" stroke-linecap="round" stroke-linejoin="round"/>
    <path d="M 59.025306701660156 14.58103084564209 C 60.19245910644531 -37.09189224243164 74.92667388916016 -24.770322799682617 76.64634704589844 -7.245075702667236" stroke-width="2.0" fill="none" stroke="rgb(0, 0, 0)" stroke-opacity="1" stroke-linecap="round" stroke-linejoin="round"/>
    <path d="M 13.803267478942871 45.693626403808594 C 9.078617095947266 32.534698486328125 9.52856731414795 32.26182556152344 19.350807189941406 45.25536346435547" stroke-width="2.0" fill="none" stroke="rgb(0, 0, 0)" stroke-opacity="1" stroke-linecap="round" stroke-linejoin="round"/>
    <path d="M 107.58794403076172 80.21515655517578 C 123.16951751708984 79.01625061035156 118.1330795288086 69.91226196289062 119.42572784423828 84.72636413574219 C 91.75528717041016 75.227294921875 103.76690673828125 76.60407257080078 110.66463470458984 75.462158203125 C 108.97089385986328 89.48593139648438 115.85124969482422 101.7834243774414 111.0138168334961 79.57449340820312" stroke-width="2.0" fill="none" stroke="rgb(0, 0, 0)" stroke-opacity="1" stroke-linecap="round" stroke-linejoin="round"/>
    <path d="M 194.2322235107422 120.3658447265625 C 170.9478759765625 120.51272583007812 190.41441345214844 102.75788879394531 194.37945556640625 120.79498291015625 C 180.28176879882812 108.72089385986328 189.3575439453125 118.35305786132812 216.00013732910156 137.99205017089844" stroke-width="2.0" fill="none" stroke="rgb(0, 0, 0)" stroke-opacity="1" stroke-linecap="round" stroke-linejoin="round"/>
    <path d="M 187.92076110839844 210.6544647216797 C 188.52114868164062 195.53787231445312 187.92361450195312 183.39715576171875 196.01678466796875 203.35159301757812" stroke-width="2.0" fill="none" stroke="rgb(0, 0, 0)" stroke-opacity="1" stroke-linecap="round" stroke-linejoin="round"/>
    <path d="M 63.80970764160156 77.72689056396484 C 83.48046112060547 85.85074615478516 83.71688842773438 76.32550811767578 70.131591796875 58.901336669921875" stroke-width="2.0" fill="none" stroke="rgb(0, 0, 0)" stroke-opacity="1" stroke-linecap="round" stroke-linejoin="round"/>
    <path d="M 21.008516311645508 213.8911895751953 C 8.465590476989746 245.49734497070312 35.25597381591797 244.6719207763672 31.264568328857422 228.50509643554688 C 47.57583236694336 223.22579956054688 53.32822799682617 225.72952270507812 54.34188461303711 229.22337341308594 C 46.27210235595703 244.2810821533203 51.52337646484375 241.9884490966797 44.82697677612305 243.085693359375" stroke-width="2.0" fill="none" stroke="rgb(0, 0, 0)" stroke-opacity="1" stroke-linecap="round" stroke-linejoin="round"/>
    <path d="M -6.6377949714660645 49.979591369628906 C 4.107048034667969 57.8974723815918 15.768891334533691 62.38408660888672 23.05208969116211 67.91780853271484" stroke-width="2.0" fill="none" stroke="rgb(0, 0, 0)" stroke-opacity="1" stroke-linecap="round" stroke-linejoin="round"/>
    <path d="M 105.21107482910156 100.0429916381836 C 69.59029388427734 101.65780639648438 97.1812973022461 109.08463287353516 86.2268295288086 98.39936828613281 C 90.68492126464844 95.75840759277344 85.50186157226562 92.8433837890625 96.66246795654297 104.70368194580078 C 73.6856689453125 73.2777099609375 82.43880462646484 80.6313705444336 103.99479675292969 120.62289428710938" stroke-width="2.0" fill="none" stroke="rgb(0, 0, 0)" stroke-opacity="1" stroke-linecap="round" stroke-linejoin="round"/>
    <path d="M 54.283992767333984 68.88204193115234 C 54.72627639770508 62.782291412353516 66.50442504882812 82.54924774169922 73.59447479248047 92.90502166748047 C 60.315269470214844 94.36760711669922 93.23127746582031 86.34486389160156 88.01927947998047 93.51803588867188 C 57.83959197998047 104.80754089355469 36.80007553100586 107.83770751953125 25.296323776245117 132.56150817871094" stroke-width="2.0" fill="none" stroke="rgb(0, 0, 0)" stroke-opacity="1" stroke-linecap="round" stroke-linejoin="round"/>
    <path d="M 32.247802734375 210.7995147705078 C 31.455097198486328 216.2123565673828 64.65552520751953 209.57688903808594 33.96299743652344 210.90155029296875" stroke-width="2.0" fill="none" stroke="rgb(0, 0, 0)" stroke-opacity="1" stroke-linecap="round" stroke-linejoin="round"/>
    <path d="M 103.8331527709961 77.46643829345703 C 130.03604125976562 75.39061737060547 121.82704162597656 66.22612762451172 142.38543701171875 85.0003890991211" stroke-width="2.0" fill="none" stroke="rgb(0, 0, 0)" stroke-opacity="1" stroke-linecap="round" stroke-linejoin="round"/>
    <path d="M 178.41046142578125 34.758140563964844 C 194.16200256347656 5.420252323150635 194.9334716796875 29.357240676879883 129.90069580078125 25.3272647857666 C 164.0179443359375 32.22573471069336 157.1343231201172 23.233613967895508 116.77432250976562 18.709054946899414 C 204.0868377685547 27.546642303466797 183.3885955810547 6.408359050750732 186.08956909179688 41.470333099365234" stroke-width="2.0" fill="none" stroke="rgb(0, 0, 0)" stroke-opacity="1" stroke-linecap="round" stroke-linejoin="round"/>
    <path d="M 183.3732147216797 78.6107177734375 C 155.4947052001953 64.04507446289062 160.6212921142578 61.35835647583008 168.2896270751953 73.32880401611328 C 163.8312225341797 91.40797424316406 161.6876678466797 96.89392852783203 166.68798828125 39.25115203857422" stroke-width="2.0" fill="none" stroke="rgb(0, 0, 0)" stroke-opacity="1" stroke-linecap="round" stroke-linejoin="round"/>
    <path d="M 84.78850555419922 187.5583953857422 C 91.08312225341797 163.2697296142578 103.88726806640625 162.76068115234375 87.94607543945312 173.8970947265625 C 103.53242492675781 167.1261444091797 109.40186309814453 158.9333038330078 92.11042022705078 173.58273315429688 C 89.10795593261719 162.8227081298828 93.11822509765625 164.24005126953125 90.20109558105469 174.94869995117188" stroke-width="2.0" fill="none" stroke="rgb(0, 0, 0)" stroke-opacity="1" stroke-linecap="round" stroke-linejoin="round"/>
    <path d="M 98.02093505859375 84.23798370361328 C 65.53093719482422 82.93096923828125 53.2923583984375 83.66261291503906 52.8507194519043 86.12319946289062 C 48.67911148071289 92.5454330444336 91.47134399414062 82.49480438232422 82.99091339111328 89.31179809570312" stroke-width="2.0" fill="none" stroke="rgb(0, 0, 0)" stroke-opacity="1" stroke-linecap="round" stroke-linejoin="round"/>
    <path d="M 206.46530151367188 164.62986755371094 C 214.82107543945312 201.1881866455078 206.7586669921875 194.52110290527344 210.71730041503906 193.6320037841797 C 217.97845458984375 192.19215393066406 164.81869506835938 172.7973175048828 217.58609008789062 199.4334259033203" stroke-width="2.0" fill="none" stroke="rgb(0, 0, 0)" stroke-opacity="1" stroke-linecap="round" stroke-linejoin="round"/>
    <path d="M 114.38922882080078 231.70941162109375 C 73.40275573730469 233.885986328125 81.16165161132812 250.1073760986328 77.9581069946289 203.08566284179688" stroke-width="2.0" fill="none" stroke="rgb(0, 0, 0)" stroke-opacity="1" stroke-linecap="round" stroke-linejoin="round"/>
    <path d="M 171.29212951660156 77.96478271484375 C 184.95506286621094 43.184669494628906 154.95790100097656 63.94164276123047 166.42965698242188 68.419189453125 C 178.02029418945312 73.6292495727539 184.4036102294922 67.41594696044922 177.8255615234375 86.00098419189453 C 175.28860473632812 78.37698364257812 184.30409240722656 58.161590576171875 181.1857147216797 80.8460464477539" stroke-width="2.0" fill="none" stroke="rgb(0, 0, 0)" stroke-opacity="1" stroke-linecap="round" stroke-linejoin="round"/>
    <path d="M 102.2357177734375 196.13719177246094 C 110.28169250488281 196.5595245361328 90.83270263671875 192.21649169921875 119.35845184326172 198.52609252929688" stroke-width="2.0" fill="none" stroke="rgb(0, 0, 0)" stroke-opacity="1" stroke-linecap="round" stroke-linejoin="round"/>
    <path d="M 216.90090942382812 15.338777542114258 C 221.663818359375 -11.363993644714355 236.972412109375 -7.428511619567871 229.49224853515625 -4.364645957946777 C 215.9247589111328 3.004300355911255 208.32444763183594 -17.526012420654297 206.17539978027344 29.697463989257812" stroke-width="2.0" fill="none" stroke="rgb(0, 0, 0)" stroke-opacity="1" stroke-linecap="round" stroke-linejoin="round"/>
    <path d="M 52.34931945800781 69.52738952636719 C 74.94438171386719 73.97349548339844 68.80917358398438 71.51032257080078 40.20854187011719 58.05840301513672" stroke-width="2.0" fill="none" stroke="rgb(0, 0, 0)" stroke-opacity="1" stroke-linecap="round" stroke-linejoin="round"/>
    <path d="M 102.84747314453125 159.3889617919922 C 124.34119415283203 166.755859375 101.81034851074219 161.21400451660156 118.256591796875 154.4579315185547 C 106.72563934326172 147.31356811523438 102.20219421386719 143.65328979492188 85.987060546875 127.83141326904297" stroke-width="2.0" fill="none" stroke="rgb(0, 0, 0)" stroke-opacity="1" stroke-linecap="round" stroke-linejoin="round"/>
    <path d="M 125.55403137207031 223.612548828125 C 119.67620849609375 201.21633911132812 128.3316650390625 208.9063720703125 127.98021697998047 245.46800231933594 C 121.22444152832031 210.63516235351562 117.0552749633789 200.42958068847656 131.92332458496094 219.96966552734375 C 117.4995346069336 206.16966247558594 121.71810913085938 203.72332763671875 136.57620239257812 218.02716064453125" stroke-width="2.0" fill="none" stroke="rgb(0, 0, 0)" stroke-opacity="1" stroke-linecap="round" stroke-linejoin="round"/>
    <path d="M 69.32756042480469 86.08731842041016 C 64.45628356933594 61.72591781616211 46.46167755126953 77.97012329101562 81.27787780761719 76.4964599609375 C 42.28211975097656 67.37188720703125 30.691017150878906 90.4867172241211 41.98534393310547 72.0519027709961 C 51.50335693359375 80.59784698486328 66.5781021118164 112.47209930419922 47.55205154418945 77.51051330566406" stroke-width="2.0" fill="none" stroke="rgb(0, 0, 0)" stroke-opacity="1" stroke-linecap="round" stroke-linejoin="round"/>
    <path d="M 144.01658630371094 214.89222717285156 C 115.58186340332031 201.6879119873047 121.39741516113281 215.74903869628906 125.86485290527344 186.8361358642578 C 125.3272476196289 189.82595825195312 160.3785858154297 178.29808044433594 161.9481658935547 187.06666564941406 C 164.59201049804688 176.05023193359375 153.71983337402344 175.05174255371094 144.20278930664062 205.65805053710938" stroke-width="2.0" fill="none" stroke="rgb(0, 0, 0)" stroke-opacity="1" stroke-linecap="round" stroke-linejoin="round"/>
    <path d="M 160.8871612548828 152.7863311767578 C 140.3068084716797 136.5808563232422 129.00181579589844 119.15735626220703 135.27340698242188 151.33277893066406 C 131.05105590820312 127.44774627685547 146.9153289794922 132.32862854003906 143.23910522460938 136.48927307128906 C 153.2191619873047 132.7099609375 157.4924774169922 98.04459381103516 172.86837768554688 134.66651916503906" stroke-width="2.0" fill="none" stroke="rgb(0, 0, 0)" stroke-opacity="1" stroke-linecap="round" stroke-linejoin="round"/>
    <path d="M 151.25111389160156 238.36468505859375 C 152.89891052246094 213.86355590820312 154.1744842529297 187.865966796875 161.0048828125 181.29100036621094 C 167.95083618164062 181.30026245117188 150.46446228027344 180.43710327148438 136.500732421875 193.249755859375" stroke-width="2.0" fill="none" stroke="rgb(0, 0, 0)" stroke-opacity="1" stroke-linecap="round" stroke-linejoin="round"/>
    <path d="M 197.43862915039062 149.88731384277344 C 208.988525390625 169.7007293701172 210.80615234375 172.34144592285156 236.16429138183594 197.78590393066406 C 228.4218292236328 201.35879516601562 221.49281311035156 235.24908447265625 234.38760375976562 198.93035888671875 C 223.39956665039062 215.198486328125 206.73477172851562 216.12176513671875 211.5559539794922 228.00025939941406" stroke-width="2.0" fill="none" stroke="rgb(0, 0, 0)" stroke-opacity="1" stroke-linecap="round" stroke-linejoin="round"/>
    <path d="M 27.280925750732422 -7.4947285652160645 C 23.881494522094727 10.513601303100586 23.925859451293945 14.055286407470703 26.787761688232422 -13.240336418151855 C 24.997238159179688 -18.772619247436523 36.67781448364258 -5.398490905761719 -2.929375648498535 7.4865851402282715" stroke-width="2.0" fill="none" stroke="rgb(0, 0, 0)" stroke-opacity="1" stroke-linecap="round" stroke-linejoin="round"/>
    <path d="M 22.98479652404785 109.12714385986328 C 32.39286422729492 108.18669891357422 -5.828423500061035 103.1110610961914 -18.071487426757812 99.690673828125 C 4.339052200317383 110.55923461914062 21.390058517456055 112.3832778930664 16.00275421142578 114.00736236572266" stroke-width="2.0" fill="none" stroke="rgb(0, 0, 0)" stroke-opacity="1" stroke-linecap="round" stroke-linejoin="round"/>
    <path d="M 83.02950286865234 52.16048049926758 C 76.51753997802734 63.835330963134766 76.69190979003906 43.269290924072266 67.44806671142578 26.651962280273438" stroke-width="2.0" fill="none" stroke="rgb(0, 0, 0)" stroke-opacity="1" stroke-linecap="round" stroke-linejoin="round"/>
    <path d="M 56.837547302246094 142.33668518066406 C 36.091495513916016 124.36338806152344 35.92572784423828 132.32489013671875 37.50017547607422 111.11668395996094 C 32.0073356628418 139.40731811523438 39.20573425292969 138.7709197998047 35.00743865966797 135.46282958984375 C 19.86103630065918 136.33404541015625 40.40512466430664 126.7649154663086 -0.03886466473340988 113.32621002197266" stroke-width="2.0" fill="none" stroke="rgb(0, 0, 0)" stroke-opacity="1" stroke-linecap="round" stroke-linejoin="round"/>
    <path d="M 98.95404052734375 58.269710540771484 C 112.67284393310547 29.99327278137207 110.89745330810547 58.26554489135742 110.32414245605469 47.473472595214844 C 116.92171478271484 40.861297607421875 113.25175476074219 35.776573181152344 114.78540802001953 67.03728485107422" stroke-width="2.0" fill="none" stroke="rgb(0, 0, 0)" stroke-opacity="1" stroke-linecap="round" stroke-linejoin="round"/>
    <path d="M -9.524163246154785 182.899169921875 C -4.818813323974609 165.67652893066406 1.2765319347381592 167.82933044433594 -14.004576683044434 184.73876953125 C -8.14162826538086 201.16468811035156 -19.140928268432617 201.18386840820312 -27.69782829284668 205.91104125976562 C -22.71158218383789 190.9560546875 -22.11992645263672 198.30001831054688 -15.472434997558594 202.1781005859375" stroke-width="2.0" fill="none" stroke="rgb(0, 0, 0)" stroke-opacity="1" stroke-linecap="round" stroke-linejoin="round"/>
    <path d="M 164.24371337890625 122.63513946533203 C 190.1818389892578 140.14212036132812 168.880615234375 137.26390075683594 181.3311309814453 148.90643310546875 C 156.9099578857422 142.17694091796875 149.035400390625 119.61902618408203 154.0319366455078 118.95069885253906 C 149.8884735107422 150.53541564941406 144.1545867919922 120.07408905029297 173.6089630126953 111.19427490234375" stroke-width="2.0" fill="none" stroke="rgb(0, 0, 0)" stroke-opacity="1" stroke-linecap="round" stroke-linejoin="round"/>
    <path d="M 194.01986694335938 215.9449005126953 C 187.82489013671875 232.45806884765625 194.30715942382812 252.34324645996094 200.6675262451172 246.0675811767578 C 204.17506408691406 240.03927612304688 196.72096252441406 245.54428100585938 190.4584197998047 244.9718780517578" stroke-width="2.0" fill="none" stroke="rgb(0, 0, 0)" stroke-opacity="1" stroke-linecap="round" stroke-linejoin="round"/>
    <path d="M 199.71975708007812 86.210205078125 C 201.37355041503906 89.37379455566406 210.46243286132812 99.67987823486328 190.97535705566406 76.29198455810547 C 199.28195190429688 124.06761932373047 201.69314575195312 98.97972106933594 186.38365173339844 111.36602783203125 C 199.5001678466797 130.61734008789062 193.0274658203125 114.52803039550781 198.28172302246094 124.55957794189453" stroke-width="2.0" fill="none" stroke="rgb(0, 0, 0)" stroke-opacity="1" stroke-linecap="round" stroke-linejoin="round"/>
    <path d="M 88.36399841308594 142.002197265625 C 84.49827575683594 114.89741516113281 70.41439056396484 109.4501953125 76.41471862792969 119.8517074584961 C 74.33905792236328 127.05485534667969 80.70777893066406 118.82685852050781 65.7914047241211 115.181884765625 C 74.9627456665039 126.72923278808594 69.59601593017578 126.23255157470703 70.86527252197266 119.75234985351562" stroke-width="2.0" fill="none" stroke="rgb(0, 0, 0)" stroke-opacity="1" stroke-linecap="round" stroke-linejoin="round"/>
    <path d="M 182.41744995117188 126.69842529296875 C 186.09947204589844 141.57810974121094 182.236083984375 165.41607666015625 183.3364715576172 166.70281982421875" stroke-width="2.0" fill="none" stroke="rgb(0, 0, 0)" stroke-opacity="1" stroke-linecap="round" stroke-linejoin="round"/>
    <path d="M 23.427370071411133 129.4801483154297 C 42.376522064208984 157.82797241210938 33.054500579833984 148.13233947753906 37.03588104248047 152.0845489501953" stroke-width="2.0" fill="none" stroke="rgb(0, 0, 0)" stroke-opacity="1" stroke-linecap="round" stroke-linejoin="round"/>
    <path d="M 180.54656982421875 60.845420837402344 C 131.18084716796875 66.1175308227539 113.73690032958984 69.08478546142578 124.7104263305664 67.33728790283203 C 142.5845489501953 86.07254028320312 135.52577209472656 73.69951629638672 107.33112335205078 78.51274108886719" stroke-width="2.0" fill="none" stroke="rgb(0, 0, 0)" stroke-opacity="1" stroke-linecap="round" stroke-linejoin="round"/>
    <path d="M 23.215023040771484 3.1376960277557373 C 35.017765045166016 1.296789526939392 29.300565719604492 13.282088279724121 25.89818000793457 -4.463247776031494 C 38.90497589111328 2.216367244720459 25.82941246032715 -10.56218147277832 23.718597412109375 5.982274055480957 C 26.909420013427734 -6.642209053039551 25.13470458984375 -5.857954025268555 38.19524383544922 -16.266586303710938" stroke-width="2.0" fill="none" stroke="rgb(0, 0, 0)" stroke-opacity="1" stroke-linecap="round" stroke-linejoin="round"/>
    <path d="M 181.6360321044922 207.33843994140625 C 175.55078125 192.9216766357422 156.46963500976562 171.1995849609375 162.47409057617188 183.64146423339844" stroke-width="2.0" fill="none" stroke="rgb(0, 0, 0)" stroke-opacity="1" stroke-linecap="round" stroke-linejoin="round"/>
    <path d="M 187.06317138671875 134.26492309570312 C 188.8217010498047 144.12794494628906 186.9880828857422 125.08187866210938 187.90170288085938 159.57391357421875" stroke-width="2.0" fill="none" stroke="rgb(0, 0, 0)" stroke-opacity="1" stroke-linecap="round" stroke-linejoin="round"/>
    <path d="M 185.7740478515625 72.5057601928711 C 188.7870330810547 123.7372055053711 170.12953186035156 104.08518981933594 195.72760009765625 104.24935150146484" stroke-width="2.0" fill="none" stroke="rgb(0, 0, 0)" stroke-opacity="1" stroke-linecap="round" stroke-linejoin="round"/>
    <path d="M 125.42147827148438 109.08002471923828 C 89.5400619506836 127.8591537475586 79.74949645996094 120.97250366210938 89.71572875976562 129.16375732421875" stroke-width="2.0" fill="none" stroke="rgb(0, 0, 0)" stroke-opacity="1" stroke-linecap="round" stroke-linejoin="round"/>
    <path d="M 145.7354278564453 70.81090545654297 C 175.69696044921875 57.73451232910156 171.81430053710938 74.5383529663086 164.5969696044922 53.66034698486328 C 179.91738891601562 71.48767852783203 192.36807250976562 82.23768615722656 201.69883728027344 88.66132354736328 C 205.06439208984375 93.00482940673828 201.23556518554688 90.30973052978516 195.93612670898438 83.39998626708984" stroke-width="2.0" fill="none" stroke="rgb(0, 0, 0)" stroke-opacity="1" stroke-linecap="round" stroke-linejoin="round"/>
    <path d="M 72.81835174560547 156.54747009277344 C 61.47662353515625 153.1840362548828 59.1097297668457 153.1121826171875 52.58574295043945 129.7529754638672" stroke-width="2.0" fill="none" stroke="rgb(0, 0, 0)" stroke-opacity="1" stroke-linecap="round" stroke-linejoin="round"/>
    <path d="M 69.9193344116211 59.642791748046875 C 85.581298828125 89.50104522705078 91.18656921386719 90.45761108398438 83.56216430664062 94.60400390625" stroke-width="2.0" fill="none" stroke="rgb(0, 0, 0)" stroke-opacity="1" stroke-linecap="round" stroke-linejoin="round"/>
    <path d="M 96.51394653320312 169.01577758789062 C 78.60602569580078 170.4310760498047 100.78944396972656 177.9223175048828 87.66661834716797 176.44076538085938" stroke-width="2.0" fill="none" stroke="rgb(0, 0, 0)" stroke-opacity="1" stroke-linecap="round" stroke-linejoin="round"/>
    <path d="M 110.82046508789062 166.93661499023438 C 93.18289184570312 119.11499786376953 76.45255279541016 117.3393783569336 98.8592529296875 137.5573272705078 C 97.41038513183594 136.2469024658203 87.1945571899414 131.2171630859375 123.63220977783203 155.7183380126953" stroke-width="2.0" fill="none" stroke="rgb(0, 0, 0)" stroke-opacity="1" stroke-linecap="round" stroke-linejoin="round"/>
    <path d="M 88.84485626220703 188.35552978515625 C 97.873046875 160.17286682128906 92.71057891845703 164.76087951660156 87.82067108154297 201.26705932617188" stroke-width="2.0" fill="none" stroke="rgb(0, 0, 0)" stroke-opacity="1" stroke-linecap="round" stroke-linejoin="round"/>
    <path d="M 128.4221954345703 167.084716796875 C 105.05516815185547 151.83465576171875 114.92682647705078 162.51431274414062 99.83584594726562 166.4096221923828 C 103.94497680664062 163.40232849121094 113.00664520263672 176.7460479736328 102.57820129394531 162.79861450195312" stroke-width="2.0" fill="none" stroke="rgb(0, 0, 0)" stroke-opacity="1" stroke-linecap="round" stroke-linejoin="round"/>
    <path d="M 24.462432861328125 182.26817321777344 C 15.708685874938965 206.45164489746094 10.090657234191895 209.9100341796875 4.578993320465088 226.8063201904297 C 19.861865997314453 183.7914276123047 18.750961303710938 185.14413452148438 25.44037628173828 181.1025390625 C 21.914806365966797 221.6300811767578 25.35866928100586 187.93594360351562 32.656005859375 161.8216552734375" stroke-width="2.0" fill="none" stroke="rgb(0, 0, 0)" stroke-opacity="1" stroke-linecap="round" stroke-linejoin="round"/>
    <path d="M 97.41635131835938 171.53250122070312 C 89.68799591064453 196.3429718017578 96.9870376586914 208.4346160888672 100.32978820800781 163.64242553710938" stroke-width="2.0" fill="none" stroke="rgb(0, 0, 0)" stroke-opacity="1" stroke-linecap="round" stroke-linejoin="round"/>
    <path d="M 14.350499153137207 9.58015251159668 C 38.288448333740234 45.53239059448242 20.156333923339844 18.930213928222656 17.325101852416992 -6.010122776031494" stroke-width="2.0" fill="none" stroke="rgb(0, 0, 0)" stroke-opacity="1" stroke-linecap="round" stroke-linejoin="round"/>
    <path d="M 165.1121826171875 142.9467010498047 C 162.87515258789062 107.95177459716797 157.41880798339844 112.0677490234375 161.3759002685547 153.1765594482422 C 156.9007110595703 133.48611450195312 153.678955078125 134.01425170898438 172.18748474121094 142.88206481933594 C 188.85330200195312 153.60433959960938 188.9394989013672 139.31272888183594 163.21937561035156 171.28469848632812" stroke-width="2.0" fill="none" stroke="rgb(0, 0, 0)" stroke-opacity="1" stroke-linecap="round" stroke-linejoin="round"/>
    <path d="M 51.172279357910156 168.40420532226562 C 51.368072509765625 167.67413330078125 36.829078674316406 168.64076232910156 54.37391662597656 168.5702667236328" stroke-width="2.0" fill="none" stroke="rgb(0, 0, 0)" stroke-opacity="1" stroke-linecap="round" stroke-linejoin="round"/>
    <path d="M 144.9635772705078 172.10711669921875 C 119.88505554199219 149.89059448242188 92.72526550292969 150.51455688476562 115.49092102050781 160.5587158203125 C 100.78973388671875 148.30662536621094 97.11798095703125 142.14273071289062 127.91388702392578 169.23208618164062" stroke-width="2.0" fill="none" stroke="rgb(0, 0, 0)" stroke-opacity="1" stroke-linecap="round" stroke-linejoin="round"/>
    <path d="M 200.3716278076172 14.289911270141602 C 209.19155883789062 -14.169962882995605 226.53204345703125 -17.20884132385254 212.51144409179688 -20.462574005126953 C 197.60389709472656 -14.870440483093262 198.48191833496094 -9.690492630004883 201.1071014404297 -8.45981216430664" stroke-width="2.0" fill="none" stroke="rgb(0, 0, 0)" stroke-opacity="1" stroke-linecap="round" stroke-linejoin="round"/>
    <path d="M 225.0831756591797 54.539127349853516 C 182.55690002441406 44.73878479003906 191.9049835205078 50.783145904541016 208.26834106445312 48.29332733154297 C 194.74215698242188 54.595611572265625 224.49549865722656 54.88528060913086 192.58251953125 49.837799072265625" stroke-width="2.0" fill="none" stroke="rgb(0, 0, 0)" stroke-opacity="1" stroke-linecap="round" stroke-linejoin="round"/>
    <path d="M 129.1317901611328 73.76133728027344 C 88.30977630615234 76.17411804199219 102.21267700195312 69.92225646972656 106.38168334960938 92.64169311523438 C 106.65360260009766 72.71320343017578 102.47735595703125 71.7573013305664 113.03648376464844 93.26822662353516 C 112.03886413574219 84.96014404296875 107.48077392578125 80.19901275634766 137.24716186523438 81.153564453125" stroke-width="2.0" fill="none" stroke="rgb(0, 0, 0)" stroke-opacity="1" stroke-linecap="round" stroke-linejoin="round"/>
    <path d="M 102.20962524414062 163.36907958984375 C 101.24446105957031 122.86888122558594 110.61427307128906 155.06044006347656 96.40196228027344 172.04928588867188" stroke-width="2.0" fill="none" stroke="rgb(0, 0, 0)" stroke-opacity="1" stroke-linecap="round" stroke-linejoin="round"/>
    <path d="M 65.23359680175781 42.29387283325195 C 68.87036895751953 -8.19021987915039 62.87568283081055 -11.78203296661377 72.68142700195312 -4.255627632141113 C 78.12482452392578 11.185460090637207 75.25971984863281 -1.711568832397461 53.70916748046875 -9.520285606384277 C 63.8652458190918 11.059490203857422 60.22559356689453 1.3142979145050049 79.46516418457031 14.918728828430176" stroke-width="2.0" fill="none" stroke="rgb(0, 0, 0)" stroke-opacity="1" stroke-linecap="round" stroke-linejoin="round"/>
    <path d="M 203.67514038085938 174.0607452392578 C 202.1738739013672 154.90542602539062 197.84042358398438 153.53602600097656 183.7249298095703 129.68014526367188" stroke-width="2.0" fill="none" stroke="rgb(0, 0, 0)" stroke-opacity="1" stroke-linecap="round" stroke-linejoin="round"/>
    <path d="M 160.61932373046875 120.64630126953125 C 138.49813842773438 147.27224731445312 155.46934509277344 128.8708953857422 161.27149963378906 114.2978286743164 C 130.9281005859375 146.18609619140625 157.41578674316406 138.5673370361328 135.05841064453125 134.95460510253906 C 160.17388916015625 124.43952178955078 131.7842559814453 121.0211410522461 202.62704467773438 129.8988494873047" stroke-width="2.0" fill="none" stroke="rgb(0, 0, 0)" stroke-opacity="1" stroke-linecap="round" stroke-linejoin="round"/>
    <path d="M 70.08636474609375 198.51376342773438 C 57.1282844543457 183.17684936523438 43.085105895996094 180.131591796875 65.08197021484375 182.78738403320312" stroke-width="2.0" fill="none" stroke="rgb(0, 0, 0)" stroke-opacity="1" stroke-linecap="round" stroke-linejoin="round"/>
    <path d="M 15.535773277282715 167.2481231689453 C 30.080652236938477 159.3910369873047 12.043562889099121 161.0961151123047 -29.766145706176758 150.20376586914062 C 6.868896961212158 116.93112182617188 12.733038902282715 123.86664581298828 -21.58289909362793 139.58351135253906 C -12.356278419494629 144.9978790283203 -2.059694290161133 142.8770751953125 11.844334602355957 151.4821319580078" stroke-width="2.0" fill="none" stroke="rgb(0, 0, 0)" stroke-opacity="1" stroke-linecap="round" stroke-linejoin="round"/>
    <path d="M 106.68827819824219 103.80692291259766 C 88.27497100830078 106.1824722290039 99.57637023925781 104.86395263671875 107.3005142211914 119.73303985595703" stroke-width="2.0" fill="none" stroke="rgb(0, 0, 0)" stroke-opacity="1" stroke-linecap="round" stroke-linejoin="round"/>
    <path d="M 58.33668518066406 181.69503784179688 C 59.40514373779297 197.8022003173828 51.19533157348633 187.2969512939453 61.71757888793945 179.76002502441406 C 75.10719299316406 178.08132934570312 55.28309631347656 183.47552490234375 71.42157745361328 170.57986450195312" stroke-width="2.0" fill="none" stroke="rgb(0, 0, 0)" stroke-opacity="1" stroke-linecap="round" stroke-linejoin="round"/>
    <path d="M 129.60414123535156 174.73788452148438 C 114.97637176513672 163.44253540039062 89.75550842285156 151.24925231933594 113.46451568603516 160.333984375" stroke-width="2.0" fill="none" stroke="rgb(0, 0, 0)" stroke-opacity="1" stroke-linecap="round" stroke-linejoin="round"/>
    <path d="M 126.58595275878906 180.87356567382812 C 162.5214385986328 181.88844299316406 150.7621612548828 188.3228302001953 157.75900268554688 177.7704620361328 C 171.7098846435547 182.0631561279297 156.73672485351562 183.3894500732422 152.2745361328125 184.96604919433594 C 167.64076232910156 178.89971923828125 158.82310485839844 167.34400939941406 148.99269104003906 206.7019805908203" stroke-width="2.0" fill="none" stroke="rgb(0, 0, 0)" stroke-opacity="1" stroke-linecap="round" stroke-linejoin="round"/>
    <path d="M 71.90867614746094 50.6380729675293 C 68.8752670288086 25.06420135498047 63.763633728027344 22.548675537109375 67.40625762939453 24.042125701904297 C 65.578125 33.9107551574707 68.59268951416016 22.43015480041504 67.2615737915039 26.0709285736084" stroke-width="2.0" fill="none" stroke="rgb(0, 0, 0)" stroke-opacity="1" stroke-linecap="round" stroke-linejoin="round"/>
    <path d="M 202.28616333007812 121.83152770996094 C 228.6183319091797 119.84264373779297 246.5844268798828 126.88228607177734 239.0167694091797 132.0109405517578" stroke-width="2.0" fill="none" stroke="rgb(0, 0, 0)" stroke-opacity="1" stroke-linecap="round" stroke-linejoin="round"/>
    <path d="M 191.0009765625 50.56569290161133 C 201.45098876953125 40.988494873046875 224.17724609375 55.68278503417969 239.71270751953125 45.37653732299805" stroke-width="2.0" fill="none" stroke="rgb(0, 0, 0)" stroke-opacity="1" stroke-linecap="round" stroke-linejoin="round"/>
    <path d="M 179.4716339111328 182.75338745117188 C 155.23458862304688 174.48094177246094 146.4933319091797 173.2528839111328 196.51803588867188 174.63638305664062 C 187.2331085205078 184.3994140625 202.11740112304688 187.22462463378906 197.60147094726562 174.341796875" stroke-width="2.0" fill="none" stroke="rgb(0, 0, 0)" stroke-opacity="1" stroke-linecap="round" stroke-linejoin="round"/>
    <path d="M 188.25381469726562 118.61654663085938 C 201.12326049804688 123.33980560302734 207.31277465820312 139.22885131835938 211.0367889404297 132.91278076171875 C 183.06285095214844 136.0699005126953 167.52134704589844 132.00704956054688 187.4285125732422 137.6321563720703 C 189.98785400390625 140.43214416503906 192.97279357910156 145.22438049316406 191.1899871826172 141.20382690429688" stroke-width="2.0" fill="none" stroke="rgb(0, 0, 0)" stroke-opacity="1" stroke-linecap="round" stroke-linejoin="round"/>
    <path d="M 192.4932861328125 207.66378784179688 C 191.01708984375 190.26841735839844 185.70603942871094 185.4674530029297 190.52574157714844 203.9431915283203 C 195.66604614257812 179.96914672851562 201.37448120117188 177.9922637939453 194.9641876220703 182.43844604492188" stroke-width="2.0" fill="none" stroke="rgb(0, 0, 0)" stroke-opacity="1" stroke-linecap="round" stroke-linejoin="round"/>
    <path d="M 190.0910186767578 100.22660064697266 C 189.77197265625 72.340087890625 174.53842163085938 66.81456756591797 197.37088012695312 84.4073715209961 C 197.58668518066406 76.96479797363281 183.37265014648438 73.94061279296875 191.06521606445312 72.2662124633789 C 179.670166015625 84.0230484008789 179.878662109375 83.68936157226562 164.86741638183594 60.10374069213867" stroke-width="2.0" fill="none" stroke="rgb(0, 0, 0)" stroke-opacity="1" stroke-linecap="round" stroke-linejoin="round"/>
    <path d="M 217.80999755859375 72.49049377441406 C 214.10023498535156 88.44207000732422 219.0988006591797 58.59904098510742 231.80259704589844 55.42366027832031 C 215.78948974609375 66.07190704345703 202.36221313476562 81.82237243652344 195.17276000976562 83.05828857421875" stroke-width="2.0" fill="none" stroke="rgb(0, 0, 0)" stroke-opacity="1" stroke-linecap="round" stroke-linejoin="round"/>
    <path d="M 29.180805206298828 37.48815155029297 C 10.66846752166748 -18.114194869995117 21.869966506958008 -25.54086685180664 32.89256286621094 14.579100608825684" stroke-width="2.0" fill="none" stroke="rgb(0, 0, 0)" stroke-opacity="1" stroke-linecap="round" stroke-linejoin="round"/>
    <path d="M 124.08097839355469 112.24319458007812 C 130.50624084472656 116.87649536132812 110.08402252197266 97.91803741455078 138.54302978515625 119.1526107788086" stroke-width="2.0" fill="none" stroke="rgb(0, 0, 0)" stroke-opacity="1" stroke-linecap="round" stroke-linejoin="round"/>
    <path d="M 116.14334869384766 34.10736846923828 C 85.49205780029297 1.6275789737701416 93.1635513305664 3.783386468887329 90.07553100585938 39.069602966308594 C 92.41380310058594 9.112000465393066 90.67672729492188 -6.191455841064453 99.92803192138672 32.580787658691406" stroke-width="2.0" fill="none" stroke="rgb(0, 0, 0)" stroke-opacity="1" stroke-linecap="round" stroke-linejoin="round"/>
    <path d="M 43.71857833862305 160.22755432128906 C -25.948278427124023 162.8844451904297 -19.065196990966797 173.15467834472656 -12.950456619262695 180.75851440429688" stroke-width="2.0" fill="none" stroke="rgb(0, 0, 0)" stroke-opacity="1" stroke-linecap="round" stroke-linejoin="round"/>
    <path d="M 178.5987091064453 166.80006408691406 C 186.45455932617188 82.18643951416016 177.4052734375 85.64289093017578 188.42935180664062 143.92376708984375" stroke-width="2.0" fill="none" stroke="rgb(0, 0, 0)" stroke-opacity="1" stroke-linecap="round" stroke-linejoin="round"/>
    <path d="M 125.6238784790039 106.92623138427734 C 122.63291931152344 123.53870391845703 124.76497650146484 113.17449951171875 126.33282470703125 104.47332763671875 C 125.8494873046875 102.43656158447266 121.2549057006836 109.3931884765625 109.90341186523438 125.26527404785156" stroke-width="2.0" fill="none" stroke="rgb(0, 0, 0)" stroke-opacity="1" stroke-linecap="round" stroke-linejoin="round"/>
    <path d="M 138.61488342285156 63.10725402832031 C 190.49374389648438 62.287899017333984 144.57989501953125 63.56720733642578 177.10055541992188 47.07605743408203" stroke-width="2.0" fill="none" stroke="rgb(0, 0, 0)" stroke-opacity="1" stroke-linecap="round" stroke-linejoin="round"/>
    <path d="M 173.61827087402344 202.46209716796875 C 184.61343383789062 211.89950561523438 176.7625274658203 193.20501708984375 157.2886199951172 206.77877807617188 C 202.5423126220703 205.25357055664062 168.9402313232422 211.71249389648438 178.27783203125 207.5779571533203 C 194.96701049804688 207.30699157714844 167.64926147460938 209.64053344726562 168.12867736816406 238.69993591308594" stroke-width="2.0" fill="none" stroke="rgb(0, 0, 0)" stroke-opacity="1" stroke-linecap="round" stroke-linejoin="round"/>
    <path d="M 46.47230911254883 -7.68489933013916 C 34.51670837402344 34.66358184814453 50.87797546386719 22.404752731323242 31.013961791992188 25.878755569458008" stroke-width="2.0" fill="none" stroke="rgb(0, 0, 0)" stroke-opacity="1" stroke-linecap="round" stroke-linejoin="round"/>
    <path d="M 98.02442169189453 149.8553009033203 C 117.60607147216797 161.96282958984375 129.99252319335938 157.38916015625 98.20884704589844 146.90956115722656 C 109.99674987792969 146.9154510498047 107.86817932128906 149.34133911132812 113.94271087646484 156.6592559814453" stroke-width="2.0" fill="none" stroke="rgb(0, 0, 0)" stroke-opacity="1" stroke-linecap="round" stroke-linejoin="round"/>
    <path d="M 141.78094482421875 196.97206115722656 C 161.611083984375 172.51809692382812 160.37911987304688 178.21047973632812 156.68690490722656 221.38475036621094 C 170.3123321533203 193.5751190185547 164.92796325683594 209.31642150878906 161.4338836669922 189.15017700195312 C 156.600830078125 186.38731384277344 168.69808959960938 179.97750854492188 159.51292419433594 185.4303436279297" stroke-width="2.0" fill="none" stroke="rgb(0, 0, 0)" stroke-opacity="1" stroke-linecap="round" stroke-linejoin="round"/>
    <path d="M 125.25019836425781 219.85235595703125 C 100.35811614990234 215.4248504638672 113.62419128417969 230.22561645507812 123.03129577636719 237.42352294921875 C 130.2713165283203 220.550537109375 128.68418884277344 229.25741577148438 155.98719787597656 237.71707153320312 C 149.19151306152344 225.20645141601562 144.40122985839844 223.0526580810547 175.20077514648438 227.781005859375" stroke-width="2.0" fill="none" stroke="rgb(0, 0, 0)" stroke-opacity="1" stroke-linecap="round" stroke-linejoin="round"/>
    <path d="M 151.7742919921875 108.89996337890625 C 119.34357452392578 106.15235137939453 124.98019409179688 106.91736602783203 123.17012023925781 114.7095718383789 C 118.93223571777344 126.90636444091797 113.2077407836914 115.86083984375 140.94525146484375 93.07105255126953" stroke-width="2.0" fill="none" stroke="rgb(0, 0, 0)" stroke-opacity="1" stroke-linecap="round" stroke-linejoin="round"/>
    <path d="M 174.55392456054688 101.1770248413086 C 166.75274658203125 107.55609893798828 159.41481018066406 104.28673553466797 176.91665649414062 99.58094787597656 C 132.2207794189453 98.8531494140625 151.99166870117188 97.52002716064453 144.74087524414062 100.58340454101562" stroke-width="2.0" fill="none" stroke="rgb(0, 0, 0)" stroke-opacity="1" stroke-linecap="round" stroke-linejoin="round"/>
    <path d="M 38.428565979003906 145.76600646972656 C 31.676889419555664 118.86329650878906 20.312469482421875 123.62576293945312 62.599342346191406 133.83547973632812 C 41.76395797729492 127.42588806152344 40.92646408081055 132.7135772705078 11.243041038513184 124.69947814941406" stroke-width="2.0" fill="none" stroke="rgb(0, 0, 0)" stroke-opacity="1" stroke-linecap="round" stroke-linejoin="round"/>
    <path d="M 131.68914794921875 40.9716911315918 C 164.88966369628906 28.865449905395508 161.2233428955078 28.04791259765625 132.4322509765625 32.05447769165039" stroke-width="2.0" fill="none" stroke="rgb(0, 0, 0)" stroke-opacity="1" stroke-linecap="round" stroke-linejoin="round"/>
    <path d="M 168.6459197998047 87.52713012695312 C 179.1041717529297 42.3758430480957 158.95635986328125 85.25364685058594 165.28607177734375 55.463138580322266 C 190.77716064453125 69.26461029052734 194.5353546142578 84.5489273071289 178.3983917236328 80.6894302368164" stroke-width="2.0" fill="none" stroke="rgb(0, 0, 0)" stroke-opacity="1" stroke-linecap="round" stroke-linejoin="round"/>
    <path d="M 102.2997055053711 194.77944946289062 C 125.86592102050781 201.5784912109375 126.5351791381836 206.93418884277344 102.2356185913086 196.06932067871094 C 101.8370132446289 250.6960906982422 107.1223373413086 217.1348114013672 102.29327392578125 198.82049560546875 C 127.70146179199219 226.09852600097656 130.02162170410156 221.01210021972656 112.89364624023438 221.07000732421875" stroke-width="2.0" fill="none" stroke="rgb(0, 0, 0)" stroke-opacity="1" stroke-linecap="round" stroke-linejoin="round"/>
    <path d="M 93.5500717163086 172.43472290039062 C 112.77099609375 157.1113739013672 113.55644989013672 166.9895477294922 100.18754577636719 158.55909729003906 C 95.28789520263672 141.6321563720703 102.6500244140625 172.10569763183594 95.55233001708984 175.25796508789062 C 95.83232879638672 168.69273376464844 83.55915832519531 173.95628356933594 90.1646728515625 170.21275329589844" stroke-width="2.0" fill="none" stroke="rgb(0, 0, 0)" stroke-opacity="1" stroke-linecap="round" stroke-linejoin="round"/>
    <path d="M 137.8993682861328 140.99412536621094 C 145.96759033203125 124.59419250488281 138.50653076171875 140.8984375 138.7501983642578 144.02719116210938 C 132.5390167236328 136.26588439941406 146.80966186523438 128.28665161132812 139.1949462890625 145.0226593017578 C 129.1552276611328 128.0678253173828 136.70169067382812 137.31808471679688 160.19834899902344 114.3380355834961" stroke-width="2.0" fill="none" stroke="rgb(0, 0, 0)" stroke-opacity="1" stroke-linecap="round" stroke-linejoin="round"/>
    <path d="M 138.42709350585938 6.008530139923096 C 166.34132385253906 13.536966323852539 160.1107177734375 9.880778312683105 153.1313018798828 3.6312367916107178 C 161.67185974121094 11.951698303222656 178.4032745361328 23.917543411254883 145.94668579101562 -0.37625786662101746" stroke-width="2.0" fill="none" stroke="rgb(0, 0, 0)" stroke-opacity="1" stroke-linecap="round" stroke-linejoin="round"/>
    <path d="M 61.850101470947266 115.71498107910156 C 75.38746643066406 150.3461456298828 65.3857421875 139.1972198486328 65.53715515136719 116.05238342285156 C 82.32551574707031 117.0489501953125 74.54411315917969 128.82113647460938 71.72428894042969 113.47547149658203 C 82.58119201660156 121.34307861328125 47.98635482788086 117.2390365600586 90.4659194946289 112.73143768310547" stroke-width="2.0" fill="none" stroke="rgb(0, 0, 0)" stroke-opacity="1" stroke-linecap="round" stroke-linejoin="round"/>
    <path d="M 118.08100128173828 78.90928649902344 C 98.7238998413086 87.94232177734375 94.723388671875 83.81047821044922 144.36717224121094 86.57762145996094 C 135.89105224609375 94.12686920166016 151.7831573486328 84.10139465332031 130.05050659179688 90.98483276367188" stroke-width="2.0" fill="none" stroke="rgb(0, 0, 0)" stroke-opacity="1" stroke-linecap="round" stroke-linejoin="round"/>
    <path d="M 93.87724304199219 100.67454528808594 C 76.63037109375 69.13008117675781 64.77774810791016 91.64163970947266 70.7668685913086 56.56033706665039 C 90.1340103149414 42.5750617980957 112.50302124023438 44.5733757019043 69.0054702758789 58.884891510009766" stroke-width="2.0" fill="none" stroke="rgb(0, 0, 0)" stroke-opacity="1" stroke-linecap="round" stroke-linejoin="round"/>
    <path d="M 157.96434020996094 49.273651123046875 C 164.0714111328125 17.48362159729004 189.9165802001953 22.15636444091797 176.98353576660156 22.997264862060547 C 176.32620239257812 28.506189346313477 156.06272888183594 32.09968566894531 146.7843780517578 42.75111389160156" stroke-width="2.0" fill="none" stroke="rgb(0, 0, 0)" stroke-opacity="1" stroke-linecap="round" stroke-linejoin="round"/>
    <path d="M 104.98672485351562 68.581298828125 C 106.03298950195312 22.16173553466797 121.18982696533203 68.13341522216797 108.46623992919922 26.899866104125977 C 108.59172058105469 24.697708129882812 124.51478576660156 29.346675872802734 154.9685516357422 21.3233699798584" stroke-width="2.0" fill="none" stroke="rgb(0, 0, 0)" stroke-opacity="1" stroke-linecap="round" stroke-linejoin="round"/>
    <path d="M 150.42213439941406 149.53964233398438 C 163.7765350341797 159.04640197753906 163.4183807373047 158.07066345214844 159.32928466796875 157.1411895751953 C 142.6519775390625 150.588134765625 135.29248046875 135.21595764160156 152.43301391601562 126.20442962646484 C 130.4662628173828 130.22235107421875 154.91102600097656 134.73399353027344 161.1114501953125 153.350830078125" stroke-width="2.0" fill="none" stroke="rgb(0, 0, 0)" stroke-opacity="1" stroke-linecap="round" stroke-linejoin="round"/>
    <path d="M 133.68988037109375 14.722908020019531 C 131.9329376220703 -22.347888946533203 126.74225616455078 -8.871415138244629 122.33741760253906 -12.376799583435059 C 128.20408630371094 -2.5486600399017334 128.04702758789062 -6.234012603759766 125.94681549072266 2.7979605197906494 C 120.93238067626953 -13.966626167297363 128.8360595703125 -9.95140552520752 119.35206604003906 -15.232793807983398" stroke-width="2.0" fill="none" stroke="rgb(0, 0, 0)" stroke-opacity="1" stroke-linecap="round" stroke-linejoin="round"/>
    <path d="M 90.22684478759766 -2.7509636878967285 C 98.75531005859375 44.99647903442383 113.37728118896484 39.76885223388672 96.10839080810547 15.248261451721191 C 86.61888122558594 5.649926662445068 89.7994613647461 7.59781551361084 108.39546203613281 16.00758171081543" stroke-width="2.0" fill="none" stroke="rgb(0, 0, 0)" stroke-opacity="1" stroke-linecap="round" stroke-linejoin="round"/>
    <path d="M 193.21554565429688 71.53826141357422 C 196.68923950195312 81.99478149414062 223.4919891357422 84.57929229736328 227.01821899414062 91.81494140625" stroke-width="2.0" fill="none" stroke="rgb(0, 0, 0)" stroke-opacity="1" stroke-linecap="round" stroke-linejoin="round"/>
    <path d="M 61.390037536621094 49.645206451416016 C 17.802230834960938 24.90605926513672 31.26407814025879 25.456409454345703 43.75077438354492 44.41792297363281" stroke-width="2.0" fill="none" stroke="rgb(0, 0, 0)" stroke-opacity="1" stroke-linecap="round" stroke-linejoin="round"/>
    <path d="M 91.90299224853516 169.08416748046875 C 84.44205474853516 165.09332275390625 70.17609405517578 190.83802795410156 73.45454406738281 189.02891540527344 C 54.35523986816406 172.7625732421875 44.59657287597656 178.42852783203125 55.683448791503906 186.8456268310547 C 63.722103118896484 204.43112182617188 51.03840637207031 187.1454315185547 54.64675521850586 179.2427520751953" stroke-width="2.0" fill="none" stroke="rgb(0, 0, 0)" stroke-opacity="1" stroke-linecap="round" stroke-linejoin="round"/>
    <path d="M 186.6041717529297 20.419492721557617 C 181.1639862060547 0.110405832529068 182.1749267578125 6.429880142211914 192.47747802734375 38.37635040283203" stroke-width="2.0" fill="none" stroke="rgb(0, 0, 0)" stroke-opacity="1" stroke-linecap="round" stroke-linejoin="round"/>
    <path d="M 92.32441711425781 38.628265380859375 C 72.669189453125 28.60312843322754 66.49756622314453 19.831674575805664 65.50125122070312 27.04048728942871 C 78.48201751708984 38.65999984741211 93.12538146972656 51.55966567993164 82.731201171875 51.95036697387695 C 107.32465362548828 42.7183952331543 84.21351623535156 60.20364761352539 99.98173522949219 45.446815490722656" stroke-width="2.0" fill="none" stroke="rgb(0, 0, 0)" stroke-opacity="1" stroke-linecap="round" stroke-linejoin="round"/>
    <path d="M 53.64966583251953 209.4752960205078 C 45.04546356201172 189.95703125 43.87068176269531 185.5283203125 46.13353729248047 187.1505889892578 C 56.42238998413086 194.0683135986328 66.57665252685547 200.54324340820312 47.499122619628906 182.9589080810547" stroke-width="2.0" fill="none" stroke="rgb(0, 0, 0)" stroke-opacity="1" stroke-linecap="round" stroke-linejoin="round"/>
    <path d="M 184.9601287841797 106.98228454589844 C 189.2227783203125 133.99151611328125 183.9366455078125 100.45455169677734 202.4069366455078 126.73345184326172 C 197.15769958496094 121.38197326660156 177.5498504638672 132.38525390625 184.2819366455078 109.93856811523438 C 187.26023864746094 123.71736907958984 174.72940063476562 112.42890167236328 203.5543975830078 112.82504272460938" stroke-width="2.0" fill="none" stroke="rgb(0, 0, 0)" stroke-opacity="1" stroke-linecap="round" stroke-linejoin="round"/>
    <path d="M 50.794761657714844 65.10224914550781 C 71.62366485595703 73.35787963867188 52.041664123535156 59.09457778930664 26.094280242919922 74.66870880126953 C 43.89950180053711 79.36133575439453 11.952634811401367 55.44475173950195 53.44236755371094 64.67023468017578" stroke-width="2.0" fill="none" stroke="rgb(0, 0, 0)" stroke-opacity="1" stroke-linecap="round" stroke-linejoin="round"/>
    <path d="M 32.443939208984375 214.57574462890625 C 30.20395851135254 226.66738891601562 32.038597106933594 215.15965270996094 34.42710876464844 192.207275390625" stroke-width="2.0" fill="none" stroke="rgb(0, 0, 0)" stroke-opacity="1" stroke-linecap="round" stroke-linejoin="round"/>
    <path d="M 25.804296493530273 89.35465240478516 C 26.44015884399414 80.76966094970703 27.47852897644043 65.92402648925781 29.94172477722168 52.259483337402344 C 33.052330017089844 33.93021774291992 26.605995178222656 17.878820419311523 36.95708465576172 44.9556884765625" stroke-width="2.0" fill="none" stroke="rgb(0, 0, 0)" stroke-opacity="1" stroke-linecap="round" stroke-linejoin="round"/>
    <path d="M 114.98529052734375 130.19662475585938 C 124.95530700683594 97.98394775390625 127.97449493408203 101.9892578125 123.02525329589844 130.7017822265625" stroke-width="2.0" fill="none" stroke="rgb(0, 0, 0)" stroke-opacity="1" stroke-linecap="round" stroke-linejoin="round"/>
    <path d="M 33.45262908935547 212.5072021484375 C 34.860782623291016 199.55572509765625 42.22805404663086 184.41656494140625 38.60029220581055 197.01763916015625 C 29.536479949951172 224.80113220214844 29.074377059936523 217.9073486328125 36.34730529785156 218.4627227783203 C 32.953094482421875 244.48362731933594 47.76009750366211 234.14195251464844 38.90926742553711 245.06143188476562" stroke-width="2.0" fill="none" stroke="rgb(0, 0, 0)" stroke-opacity="1" stroke-linecap="round" stroke-linejoin="round"/>
    <path d="M 21.078716278076172 81.41551208496094 C 13.482544898986816 99.96795654296875 24.5937442779541 97.68775177001953 4.129306316375732 75.11582946777344" stroke-width="2.0" fill="none" stroke="rgb(0, 0, 0)" stroke-opacity="1" stroke-linecap="round" stroke-linejoin="round"/>
    <path d="M -0.6928932070732117 172.72227478027344 C 31.361188888549805 158.34274291992188 21.94596290588379 164.28921508789062 -14.697000503540039 142.41717529296875 C -15.78274917602539 133.94810485839844 11.870097160339355 142.44541931152344 16.783784866333008 145.86480712890625" stroke-width="2.0" fill="none" stroke="rgb(0, 0, 0)" stroke-opacity="1" stroke-linecap="round" stroke-linejoin="round"/>
    <path d="M 70.83380126953125 193.02235412597656 C 52.25236892700195 174.83680725097656 50.85564041137695 191.1427001953125 58.26066207885742 185.062255859375 C 63.67783737182617 175.56039428710938 98.03265380859375 170.11669921875 47.447105407714844 176.31126403808594" stroke-width="2.0" fill="none" stroke="rgb(0, 0, 0)" stroke-opacity="1" stroke-linecap="round" stroke-linejoin="round"/>
    <path d="M 66.29139709472656 215.79518127441406 C 74.95861053466797 222.13479614257812 52.24626159667969 207.1021728515625 64.97701263427734 234.01087951660156" stroke-width="2.0" fill="none" stroke="rgb(0, 0, 0)" stroke-opacity="1" stroke-linecap="round" stroke-linejoin="round"/>
    <path d="M 158.12599182128906 179.38131713867188 C 171.9148406982422 194.5767059326172 174.0033721923828 220.83526611328125 175.80657958984375 205.22128295898438" stroke-width="2.0" fill="none" stroke="rgb(0, 0, 0)" stroke-opacity="1" stroke-linecap="round" stroke-linejoin="round"/>
    <path d="M 156.99978637695312 80.64616394042969 C 161.78468322753906 69.65884399414062 173.1498565673828 56.52593994140625 155.4980926513672 72.3586654663086 C 158.43328857421875 70.83642578125 165.0401153564453 53.96415328979492 182.74813842773438 73.40728759765625" stroke-width="2.0" fill="none" stroke="rgb(0, 0, 0)" stroke-opacity="1" stroke-linecap="round" stroke-linejoin="round"/>
    <path d="M 24.162092208862305 143.8821563720703 C 7.244339942932129 121.02493286132812 18.657407760620117 133.16458129882812 24.375276565551758 137.85943603515625 C 24.827856063842773 129.58441162109375 26.215036392211914 130.0559539794922 15.886649131774902 130.32894897460938 C 36.05241012573242 139.8296356201172 36.968502044677734 120.06133270263672 48.60711669921875 144.85743713378906" stroke-width="2.0" fill="none" stroke="rgb(0, 0, 0)" stroke-opacity="1" stroke-linecap="round" stroke-linejoin="round"/>
    <path d="M 172.48358154296875 68.13680267333984 C 200.74609375 95.75749969482422 198.21522521972656 91.1350326538086 180.9257049560547 73.8482437133789" stroke-width="2.0" fill="none" stroke="rgb(0, 0, 0)" stroke-opacity="1" stroke-linecap="round" stroke-linejoin="round"/>
    <path d="M 12.944002151489258 72.31814575195312 C -24.265296936035156 59.45014572143555 -28.482444763183594 52.57836151123047 -20.38003158569336 53.571800231933594 C -25.71337127685547 72.58695220947266 -22.10024642944336 83.0268325805664 -22.204992294311523 88.61792755126953" stroke-width="2.0" fill="none" stroke="rgb(0, 0, 0)" stroke-opacity="1" stroke-linecap="round" stroke-linejoin="round"/>
    <path d="M 146.62086486816406 123.47090911865234 C 153.949462890625 147.5100860595703 190.59423828125 149.00193786621094 168.6271209716797 140.29861450195312 C 167.0398406982422 118.40927124023438 167.32455444335938 127.79017639160156 143.273681640625 126.21259307861328" stroke-width="2.0" fill="none" stroke="rgb(0, 0, 0)" stroke-opacity="1" stroke-linecap="round" stroke-linejoin="round"/>
    <path d="M 205.0826873779297 53.424591064453125 C 184.8162384033203 48.444435119628906 183.14593505859375 55.59911346435547 208.68898010253906 56.99042510986328 C 211.1384735107422 53.138938903808594 173.9549102783203 50.927276611328125 165.5897979736328 58.32966613769531 C 188.8050537109375 76.29613494873047 162.68588256835938 67.82959747314453 195.7355194091797 59.97604751586914" stroke-width="2.0" fill="none" stroke="rgb(0, 0, 0)" stroke-opacity="1" stroke-linecap="round" stroke-linejoin="round"/>
    <path d="M 39.82967758178711 -5.366000652313232 C 36.29047775268555 18.386066436767578 41.695613861083984 5.162478923797607 28.109294891357422 -1.4893006086349487 C 13.048917770385742 1.3003990650177002 34.25020217895508 15.609999656677246 21.379308700561523 1.8248302936553955" stroke-width="2.0" fill="none" stroke="rgb(0, 0, 0)" stroke-opacity="1" stroke-linecap="round" stroke-linejoin="round"/>
    <path d="M 181.18026733398438 206.79713439941406 C 130.37939453125 190.80210876464844 171.60263061523438 199.19528198242188 175.18560791015625 204.83897399902344 C 158.54908752441406 213.78277587890625 190.81060791015625 213.59039306640625 142.41494750976562 194.6619110107422 C 175.63214111328125 205.15277099609375 194.01107788085938 219.78298950195312 177.89085388183594 200.65365600585938" stroke-width="2.0" fill="none" stroke="rgb(0, 0, 0)" stroke-opacity="1" stroke-linecap="round" stroke-linejoin="round"/>
    <path d="M 212.74188232421875 103.15347290039062 C 216.67027282714844 122.3766860961914 214.96250915527344 109.09588623046875 194.91737365722656 88.88304901123047" stroke-width="2.0" fill="none" stroke="rgb(0, 0, 0)" stroke-opacity="1" stroke-linecap="round" stroke-linejoin="round"/>
    <path d="M 68.80852508544922 27.225833892822266 C 113.78239440917969 61.46297073364258 84.92758178710938 51.87973403930664 109.71143341064453 44.1647834777832" stroke-width="2.0" fill="none" stroke="rgb(0, 0, 0)" stroke-opacity="1" stroke-linecap="round" stroke-linejoin="round"/>
    <path d="M 69.25505065917969 70.2674560546875 C 64.92800903320312 15.78715705871582 71.92426300048828 32.464752197265625 82.446044921875 51.86737060546875 C 71.70167541503906 58.849605560302734 57.363555908203125 55.94089126586914 88.34019470214844 65.56430053710938" stroke-width="2.0" fill="none" stroke="rgb(0, 0, 0)" stroke-opacity="1" stroke-linecap="round" stroke-linejoin="round"/>
    <path d="M 96.70803833007812 77.95197296142578 C 56.34495544433594 75.20581817626953 41.11516189575195 85.45584106445312 45.09162139892578 77.28299713134766 C 46.81901931762695 90.31278228759766 43.15145492553711 79.98455810546875 42.36013412475586 78.19903564453125 C 89.68537902832031 62.84282684326172 48.496036529541016 69.54790496826172 28.976627349853516 77.45536804199219" stroke-width="2.0" fill="none" stroke="rgb(0, 0, 0)" stroke-opacity="1" stroke-linecap="round" stroke-linejoin="round"/>
    <path d="M 47.11525344848633 172.3577880859375 C 73.7277603149414 171.40576171875 84.69222259521484 164.24026489257812 38.20302963256836 168.7326202392578 C 61.725067138671875 165.90936279296875 67.60030364990234 170.4847412109375 60.009002685546875 173.94052124023438 C 62.64228820800781 152.95603942871094 49.945735931396484 156.806396484375 77.15404510498047 160.26837158203125" stroke-width="2.0" fill="none" stroke="rgb(0, 0, 0)" stroke-opacity="1" stroke-linecap="round" stroke-linejoin="round"/>
    <path d="M 52.81644058227539 157.15130615234375 C 61.52090072631836 121.38579559326172 56.078529357910156 109.89240264892578 50.69472885131836 117.1975326538086 C 25.275724411010742 128.13192749023438 17.48387336730957 130.64083862304688 52.85063171386719 110.78368377685547" stroke-width="2.0" fill="none" stroke="rgb(0, 0, 0)" stroke-opacity="1" stroke-linecap="round" stroke-linejoin="round"/>
    <path d="M 188.3529815673828 75.28731536865234 C 203.50787353515625 82.71863555908203 219.37222290039062 97.97364807128906 235.36044311523438 113.8131103515625 C 227.65322875976562 81.42639923095703 228.9549102783203 77.79229736328125 233.5552978515625 69.64087677001953" stroke-width="2.0" fill="none" stroke="rgb(0, 0, 0)" stroke-opacity="1" stroke-linecap="round" stroke-linejoin="round"/>
    <path d="M 75.19332122802734 219.9600067138672 C 58.87286376953125 221.9746551513672 53.36817169189453 218.7698211669922 71.17534637451172 218.86834716796875 C 71.908935546875 221.68252563476562 74.24348449707031 219.4377899169922 46.85434341430664 190.4761962890625 C 40.759002685546875 178.62884521484375 51.41688537597656 219.2030487060547 44.11669158935547 241.7124481201172" stroke-width="2.0" fill="none" stroke="rgb(0, 0, 0)" stroke-opacity="1" stroke-linecap="round" stroke-linejoin="round"/>
    <path d="M 32.5199089050293 104.21018981933594 C 55.18922805786133 108.23026275634766 14.617517471313477 102.19149780273438 -6.6944756507873535 87.20539855957031" stroke-width="2.0" fill="none" stroke="rgb(0, 0, 0)" stroke-opacity="1" stroke-linecap="round" stroke-linejoin="round"/>
    <path d="M 226.26876831054688 209.5933837890625 C 222.96435546875 197.31080627441406 229.8408203125 190.0965576171875 238.2926483154297 182.220947265625 C 232.4672393798828 170.38082885742188 231.20742797851562 169.09933471679688 233.9869384765625 183.05357360839844 C 208.7463836669922 167.79640197753906 201.06314086914062 152.77813720703125 209.77792358398438 166.4846649169922" stroke-width="2.0" fill="none" stroke="rgb(0, 0, 0)" stroke-opacity="1" stroke-linecap="round" stroke-linejoin="round"/>
    <path d="M 194.5071563720703 81.21772003173828 C 207.32769775390625 81.72322082519531 207.25286865234375 75.86907196044922 176.24082946777344 68.8546142578125 C 172.22698974609375 92.98128509521484 172.08160400390625 68.92906951904297 200.40682983398438 63.5703125" stroke-width="2.0" fill="none" stroke="rgb(0, 0, 0)" stroke-opacity="1" stroke-linecap="round" stroke-linejoin="round"/>
    <path d="M 205.1951446533203 141.05630493164062 C 243.2569580078125 135.01243591308594 174.03890991210938 136.20201110839844 179.65890502929688 130.73916625976562" stroke-width="2.0" fill="none" stroke="rgb(0, 0, 0)" stroke-opacity="1" stroke-linecap="round" stroke-linejoin="round"/>
    <path d="M 110.07254791259766 67.43782043457031 C 110.69197845458984 57.83725357055664 108.55846405029297 40.21769332885742 111.98800659179688 45.51108932495117 C 131.3634033203125 96.30400085449219 127.814453125 72.41484069824219 109.64328002929688 29.506038665771484 C 133.36192321777344 69.17617797851562 127.21241760253906 59.10682678222656 110.27392578125 30.128536224365234" stroke-width="2.0" fill="none" stroke="rgb(0, 0, 0)" stroke-opacity="1" stroke-linecap="round" stroke-linejoin="round"/>
    <path d="M 79.45977020263672 144.62945556640625 C 44.50392150878906 142.3918914794922 59.78812789916992 136.76890563964844 62.982872009277344 170.47145080566406 C 57.839290618896484 141.44888305664062 58.10182189941406 153.68817138671875 58.046878814697266 183.06436157226562" stroke-width="2.0" fill="none" stroke="rgb(0, 0, 0)" stroke-opacity="1" stroke-linecap="round" stroke-linejoin="round"/>
    <path d="M 193.2808074951172 160.44345092773438 C 189.9833526611328 134.44992065429688 182.40115356445312 142.5320281982422 184.16229248046875 116.59390258789062 C 145.3966827392578 118.81526947021484 142.11802673339844 120.12149810791016 197.709716796875 123.43487548828125 C 190.5390625 106.95088195800781 190.17477416992188 125.70831298828125 195.8373565673828 119.17787170410156" stroke-width="2.0" fill="none" stroke="rgb(0, 0, 0)" stroke-opacity="1" stroke-linecap="round" stroke-linejoin="round"/>
    <path d="M 80.9138412475586 184.42996215820312 C 89.20658111572266 162.8245086669922 103.48021697998047 163.0052947998047 57.77360153198242 179.84889221191406 C 54.08048629760742 185.25965881347656 63.8175163269043 162.31214904785156 90.45475769042969 167.98388671875 C 73.65552520751953 160.48358154296875 102.83958435058594 170.12242126464844 92.66255187988281 179.06163024902344" stroke-width="2.0" fill="none" stroke="rgb(0, 0, 0)" stroke-opacity="1" stroke-linecap="round" stroke-linejoin="round"/>
    <path d="M 129.4208984375 169.9840087890625 C 130.8354949951172 146.73458862304688 105.627685546875 158.8043975830078 123.75115966796875 157.071044921875 C 131.39642333984375 174.2376708984375 129.9547119140625 142.41259765625 129.6842803955078 157.45494079589844 C 132.24920654296875 127.37696075439453 133.23867797851562 114.01495361328125 131.35580444335938 144.31446838378906" stroke-width="2.0" fill="none" stroke="rgb(0, 0, 0)" stroke-opacity="1" stroke-linecap="round" stroke-linejoin="round"/>
    <path d="M 130.51681518554688 229.27188110351562 C 148.37889099121094 224.84910583496094 145.52833557128906 227.1786346435547 131.28048706054688 249.57403564453125 C 136.3086700439453 236.2805633544922 129.9275665283203 229.66783142089844 104.36019897460938 228.587890625 C 106.3654556274414 245.06234741210938 126.49340057373047 238.731689453125 141.4002685546875 231.5199432373047" stroke-width="2.0" fill="none" stroke="rgb(0, 0, 0)" stroke-opacity="1" stroke-linecap="round" stroke-linejoin="round"/>
    <path d="M 125.3677749633789 10.577393531799316 C 112.77825164794922 -5.289684295654297 89.01494598388672 12.457526206970215 78.6941146850586 -0.3859611451625824 C 113.39424133300781 -5.110527038574219 101.85570526123047 -9.28345775604248 113.80203247070312 9.822490692138672 C 100.13331604003906 -24.255205154418945 131.97463989257812 -16.357505798339844 119.83722686767578 6.786003589630127" stroke-width="2.0" fill="none" stroke="rgb(0, 0, 0)" stroke-opacity="1" stroke-linecap="round" stroke-linejoin="round"/>
    <path d="M 110.3517074584961 31.49641990661621 C 135.0868682861328 47.57012176513672 151.8910675048828 67.88055419921875 142.8035125732422 55.703948974609375" stroke-width="2.0" fill="none" stroke="rgb(0, 0, 0)" stroke-opacity="1" stroke-linecap="round" stroke-linejoin="round"/>
    <path d="M 35.05897521972656 72.95614624023438 C 24.826366424560547 77.5742416381836 26.957643508911133 69.49360656738281 31.853473663330078 61.70698547363281" stroke-width="2.0" fill="none" stroke="rgb(0, 0, 0)" stroke-opacity="1" stroke-linecap="round" stroke-linejoin="round"/>
    <path d="M 118.44497680664062 95.13836669921875 C 115.07145690917969 79.70323944091797 104.47866821289062 78.54937744140625 135.28652954101562 82.38948822021484 C 149.40333557128906 91.73487854003906 149.60092163085938 89.34083557128906 135.70152282714844 90.77618408203125" stroke-width="2.0" fill="none" stroke="rgb(0, 0, 0)" stroke-opacity="1" stroke-linecap="round" stroke-linejoin="round"/>
    <path d="M 193.8206329345703 10.978283882141113 C 201.43136596679688 -16.265079498291016 199.38243103027344 10.39860725402832 201.33126831054688 0.29613181948661804" stroke-width="2.0" fill="none" stroke="rgb(0, 0, 0)" stroke-opacity="1" stroke-linecap="round" stroke-linejoin="round"/>
    <path d="M 56.23542785644531 25.993444442749023 C 46.717628479003906 4.5504045486450195 44.744991302490234 13.58283519744873 51.61616516113281 26.222217559814453 C 46.90374755859375 12.314728736877441 52.96048355102539 0.7119987607002258 49.60673141479492 -3.691176176071167 C 9.250906944274902 2.7205793857574463 25.508769989013672 6.388975620269775 22.84282112121582 -11.705221176147461" stroke-width="2.0" fill="none" stroke="rgb(0, 0, 0)" stroke-opacity="1" stroke-linecap="round" stroke-linejoin="round"/>
    <path d="M 178.30189514160156 80.06857299804688 C 192.93833923339844 91.97956848144531 184.4975128173828 45.0908317565918 182.86602783203125 88.0158462524414 C 177.519287109375 70.18192291259766 188.77210998535156 116.55913543701172 187.45945739746094 110.27088928222656 C 186.6790008544922 118.24713134765625 197.46682739257812 113.63543701171875 191.69834899902344 118.25869750976562" stroke-width="2.0" fill="none" stroke="rgb(0, 0, 0)" stroke-opacity="1" stroke-linecap="round" stroke-linejoin="round"/>
    <path d="M 118.94682312011719 204.17132568359375 C 119.98310852050781 194.73867797851562 125.25225830078125 199.62342834472656 100.29012298583984 193.04554748535156 C 114.31005096435547 234.6514434814453 105.0962905883789 209.538818359375 110.07010650634766 224.75682067871094" stroke-width="2.0" fill="none" stroke="rgb(0, 0, 0)" stroke-opacity="1" stroke-linecap="round" stroke-linejoin="round"/>
    <path d="M 152.19566345214844 165.98753356933594 C 147.58982849121094 143.61468505859375 143.23033142089844 152.32009887695312 165.58168029785156 165.12835693359375 C 151.77169799804688 155.4044952392578 172.58607482910156 168.83871459960938 167.3690948486328 170.44186401367188" stroke-width="2.0" fill="none" stroke="rgb(0, 0, 0)" stroke-opacity="1" stroke-linecap="round" stroke-linejoin="round"/>
    <path d="M 220.9032440185547 -5.085495948791504 C 215.11085510253906 -6.956601619720459 219.14508056640625 -5.018206596374512 205.8616943359375 22.548181533813477 C 203.75296020507812 23.741899490356445 240.3704071044922 25.493526458740234 245.93463134765625 30.980873107910156" stroke-width="2.0" fill="none" stroke="rgb(0, 0, 0)" stroke-opacity="1" stroke-linecap="round" stroke-linejoin="round"/>
    <path d="M 67.63076782226562 23.50098419189453 C 102.83357238769531 36.25574493408203 121.48873138427734 34.33197784423828 95.48721313476562 31.31259536743164 C 89.18441009521484 -0.21359491348266602 85.00468444824219 0.5987431406974792 115.74085998535156 11.818662643432617" stroke-width="2.0" fill="none" stroke="rgb(0, 0, 0)" stroke-opacity="1" stroke-linecap="round" stroke-linejoin="round"/>
    <path d="M 45.266815185546875 80.89952087402344 C 27.690587997436523 68.34213256835938 26.251102447509766 48.53907775878906 42.171051025390625 75.30561065673828" stroke-width="2.0" fill="none" stroke="rgb(0, 0, 0)" stroke-opacity="1" stroke-linecap="round" stroke-linejoin="round"/>
    <path d="M 34.35954284667969 71.0785140991211 C 30.342458724975586 80.40431213378906 48.00014114379883 79.3692855834961 31.680299758911133 57.10295867919922 C 37.4082145690918 82.43146514892578 50.55812072753906 80.16751098632812 35.66637420654297 63.61864471435547" stroke-width="2.0" fill="none" stroke="rgb(0, 0, 0)" stroke-opacity="1" stroke-linecap="round" stroke-linejoin="round"/>
    <path d="M 208.38221740722656 131.13613891601562 C 231.63816833496094 152.9853057861328 236.5838623046875 150.91055297851562 252.2392120361328 137.39642333984375 C 229.10147094726562 135.93333435058594 237.5738525390625 138.98062133789062 235.06297302246094 145.8521728515625 C 234.71932983398438 155.37921142578125 223.89486694335938 153.60507202148438 225.28466796875 149.76504516601562" stroke-width="2.0" fill="none" stroke="rgb(0, 0, 0)" stroke-opacity="1" stroke-linecap="round" stroke-linejoin="round"/>
    <path d="M 172.84840393066406 91.09423065185547 C 173.86048889160156 69.80408477783203 178.9830780029297 65.6895980834961 175.8489990234375 64.67805480957031 C 154.8340301513672 77.19396209716797 164.4214324951172 71.88809204101562 176.76654052734375 71.9398193359375" stroke-width="2.0" fill="none" stroke="rgb(0, 0, 0)" stroke-opacity="1" stroke-linecap="round" stroke-linejoin="round"/>
    <path d="M 197.19308471679688 175.66876220703125 C 192.06614685058594 196.68861389160156 196.15892028808594 184.1497802734375 209.37344360351562 207.6266632080078" stroke-width="2.0" fill="none" stroke="rgb(0, 0, 0)" stroke-opacity="1" stroke-linecap="round" stroke-linejoin="round"/>
    <path d="M 215.2769317626953 148.33299255371094 C 243.7115478515625 145.09445190429688 266.5004577636719 163.00807189941406 261.246337890625 169.40396118164062" stroke-width="2.0" fill="none" stroke="rgb(0, 0, 0)" stroke-opacity="1" stroke-linecap="round" stroke-linejoin="round"/>
    <path d="M 99.24916076660156 73.94302368164062 C 111.35707092285156 85.02180480957031 109.48098754882812 107.36052703857422 103.64569854736328 78.42854309082031" stroke-width="2.0" fill="none" stroke="rgb(0, 0, 0)" stroke-opacity="1" stroke-linecap="round" stroke-linejoin="round"/>
    <path d="M 172.7908477783203 139.7547149658203 C 147.47991943359375 138.12216186523438 174.24232482910156 149.54029846191406 179.8785858154297 150.1826171875 C 178.58804321289062 161.2483673095703 168.320556640625 164.09512329101562 154.2716522216797 189.26565551757812" stroke-width="2.0" fill="none" stroke="rgb(0, 0, 0)" stroke-opacity="1" stroke-linecap="round" stroke-linejoin="round"/>
    <path d="M 59.785579681396484 70.32173919677734 C 65.43447875976562 93.28105926513672 101.74573516845703 74.85275268554688 64.85066223144531 80.68568420410156" stroke-width="2.0" fill="none" stroke="rgb(0, 0, 0)" stroke-opacity="1" stroke-linecap="round" stroke-linejoin="round"/>
    <path d="M 63.155147552490234 160.8824920654297 C 71.6117935180664 183.18165588378906 74.24380493164062 165.66908264160156 53.03990173339844 168.23997497558594 C 77.0179672241211 165.42462158203125 56.66054153442383 164.45509338378906 83.17095947265625 163.67425537109375" stroke-width="2.0" fill="none" stroke="rgb(0, 0, 0)" stroke-opacity="1" stroke-linecap="round" stroke-linejoin="round"/>
    <path d="M 97.47186279296875 212.87171936035156 C 72.60029602050781 201.71328735351562 74.62408447265625 200.92300415039062 86.80945587158203 215.8240966796875" stroke-width="2.0" fill="none" stroke="rgb(0, 0, 0)" stroke-opacity="1" stroke-linecap="round" stroke-linejoin="round"/>
    <path d="M 175.3103485107422 19.444883346557617 C 186.8951873779297 28.58519172668457 168.3498077392578 17.936416625976562 151.5955352783203 47.366451263427734" stroke-width="2.0" fill="none" stroke="rgb(0, 0, 0)" stroke-opacity="1" stroke-linecap="round" stroke-linejoin="round"/>
    <path d="M 226.94561767578125 207.13650512695312 C 189.1181640625 183.1336212158203 190.08297729492188 181.34808349609375 203.7340087890625 208.50115966796875" stroke-width="2.0" fill="none" stroke="rgb(0, 0, 0)" stroke-opacity="1" stroke-linecap="round" stroke-linejoin="round"/>
    <path d="M 37.76069641113281 128.70367431640625 C 29.267452239990234 124.96226501464844 24.97246551513672 131.84469604492188 33.72016906738281 114.22956848144531 C 33.34428787231445 133.491455078125 45.50543975830078 121.15508270263672 59.2083740234375 119.76630401611328 C 50.31752395629883 135.27015686035156 29.931753158569336 116.05845642089844 42.710792541503906 144.5193328857422" stroke-width="2.0" fill="none" stroke="rgb(0, 0, 0)" stroke-opacity="1" stroke-linecap="round" stroke-linejoin="round"/>
    <path d="M 169.4134063720703 16.404117584228516 C 142.3162384033203 12.058980941772461 129.586669921875 20.75725746154785 145.9134521484375 17.966724395751953 C 161.48558044433594 30.21671485900879 127.49626159667969 32.06985092163086 152.22906494140625 31.781042098999023 C 129.69967651367188 -0.7210263013839722 139.75189208984375 -3.794954538345337 139.00048828125 18.834430694580078" stroke-width="2.0" fill="none" stroke="rgb(0, 0, 0)" stroke-opacity="1" stroke-linecap="round" stroke-linejoin="round"/>
    <path d="M 109.58513641357422 185.3918914794922 C 97.05989837646484 157.55845642089844 95.37779998779297 160.04745483398438 111.54715728759766 173.47012329101562 C 89.90425109863281 153.3970489501953 103.71945190429688 160.90176391601562 116.19588470458984 171.7977294921875" stroke-width="2.0" fill="none" stroke="rgb(0, 0, 0)" stroke-opacity="1" stroke-linecap="round" stroke-linejoin="round"/>
    <path d="M 196.14735412597656 179.69830322265625 C 202.21783447265625 180.785888671875 187.36712646484375 171.698486328125 194.182861328125 201.11744689941406" stroke-width="2.0" fill="none" stroke="rgb(0, 0, 0)" stroke-opacity="1" stroke-linecap="round" stroke-linejoin="round"/>
    <path d="M -11.72049617767334 192.57046508789062 C -12.666398048400879 203.66407775878906 8.31868839263916 173.0772705078125 27.664045333862305 164.80355834960938 C 11.552178382873535 185.00779724121094 12.99841594696045 178.57362365722656 31.871564865112305 162.5924530029297 C 17.98659324645996 186.51556396484375 17.109251022338867 183.60459899902344 4.8038740158081055 205.04269409179688" stroke-width="2.0" fill="none" stroke="rgb(0, 0, 0)" stroke-opacity="1" stroke-linecap="round" stroke-linejoin="round"/>
    <path d="M 52.684898376464844 121.84840393066406 C 55.5525016784668 106.9984359741211 53.281890869140625 112.12425994873047 57.156951904296875 146.19049072265625 C 62.08416748046875 176.17823791503906 55.43010711669922 154.46975708007812 55.99570083618164 130.0526123046875 C 52.314144134521484 145.2578125 59.842308044433594 139.89341735839844 82.89786529541016 165.7041015625" stroke-width="2.0" fill="none" stroke="rgb(0, 0, 0)" stroke-opacity="1" stroke-linecap="round" stroke-linejoin="round"/>
    <path d="M 88.86436462402344 97.70816040039062 C 110.88072967529297 115.35743713378906 84.81455993652344 108.6387939453125 111.5276107788086 109.1042709350586" stroke-width="2.0" fill="none" stroke="rgb(0, 0, 0)" stroke-opacity="1" stroke-linecap="round" stroke-linejoin="round"/>
    <path d="M 208.46119689941406 67.04822540283203 C 172.5274658203125 79.52584838867188 161.94871520996094 71.81190490722656 164.07656860351562 76.30445098876953 C 169.15914916992188 65.87419128417969 187.75547790527344 68.76557922363281 161.1115264892578 66.49485778808594 C 148.1119842529297 75.41822052001953 141.5688934326172 95.67052459716797 142.55670166015625 91.13994598388672" stroke-width="2.0" fill="none" stroke="rgb(0, 0, 0)" stroke-opacity="1" stroke-linecap="round" stroke-linejoin="round"/>
    <path d="M 21.091154098510742 131.10533142089844 C 23.907899856567383 145.521240234375 21.419038772583008 126.83484649658203 31.023710250854492 132.50277709960938" stroke-width="2.0" fill="none" stroke="rgb(0, 0, 0)" stroke-opacity="1" stroke-linecap="round" stroke-linejoin="round"/>
    <path d="M 190.19253540039062 74.27671813964844 C 198.84695434570312 95.52890014648438 191.0249786376953 112.14738464355469 195.4468536376953 100.99776458740234" stroke-width="2.0" fill="none" stroke="rgb(0, 0, 0)" stroke-opacity="1" stroke-linecap="round" stroke-linejoin="round"/>
    <path d="M 67.12784576416016 172.80023193359375 C 47.26015853881836 187.3910675048828 65.79987335205078 190.39837646484375 49.56411361694336 179.70294189453125" stroke-width="2.0" fill="none" stroke="rgb(0, 0, 0)" stroke-opacity="1" stroke-linecap="round" stroke-linejoin="round"/>
    <path d="M 204.2726593017578 56.00921630859375 C 180.2161865234375 53.064430236816406 184.5389862060547 50.886165618896484 227.622314453125 36.73299789428711" stroke-width="2.0" fill="none" stroke="rgb(0, 0, 0)" stroke-opacity="1" stroke-linecap="round" stroke-linejoin="round"/>
    <path d="M 9.96595573425293 51.718624114990234 C 1.5111898183822632 15.283343315124512 -13.717001914978027 19.804954528808594 5.938004493713379 20.70828628540039 C 7.228866100311279 19.888530731201172 18.98274040222168 23.51320457458496 -6.935662269592285 15.753507614135742 C -23.976016998291016 32.995826721191406 -27.80679702758789 35.009464263916016 10.693885803222656 52.63842010498047" stroke-width="2.0" fill="none" stroke="rgb(0, 0, 0)" stroke-opacity="1" stroke-linecap="round" stroke-linejoin="round"/>
    <path d="M 35.76850128173828 136.53134155273438 C 41.66514205932617 120.4759750366211 35.03215408325195 89.89640808105469 29.92630386352539 56.82130813598633 C 39.12998962402344 86.5260009765625 39.394325256347656 89.04218292236328 39.47358703613281 80.37149047851562 C 38.2413330078125 73.68081665039062 53.9815559387207 73.93375396728516 37.49489212036133 77.7352294921875" stroke-width="2.0" fill="none" stroke="rgb(0, 0, 0)" stroke-opacity="1" stroke-linecap="round" stroke-linejoin="round"/>
    <path d="M 66.86793518066406 39.737754821777344 C 67.75835418701172 18.875774383544922 65.4255142211914 28.00779151916504 66.72879028320312 27.994064331054688" stroke-width="2.0" fill="none" stroke="rgb(0, 0, 0)" stroke-opacity="1" stroke-linecap="round" stroke-linejoin="round"/>
    <path d="M 185.9176025390625 86.90465545654297 C 182.4837646484375 63.88153076171875 181.3135986328125 85.01737976074219 179.14361572265625 67.20521545410156 C 191.69000244140625 65.98051452636719 192.37225341796875 91.884521484375 184.49679565429688 120.11624908447266 C 193.02499389648438 125.32174682617188 196.4046173095703 115.46133422851562 210.31459045410156 133.60096740722656" stroke-width="2.0" fill="none" stroke="rgb(0, 0, 0)" stroke-opacity="1" stroke-linecap="round" stroke-linejoin="round"/>
    <path d="M 29.96000099182129 90.7352066040039 C 31.149805068969727 41.324119567871094 20.02826690673828 63.92639923095703 60.28865051269531 47.72356414794922 C 34.00415802001953 50.980567932128906 14.503398895263672 66.03343200683594 54.199562072753906 54.69303512573242" stroke-width="2.0" fill="none" stroke="rgb(0, 0, 0)" stroke-opacity="1" stroke-linecap="round" stroke-linejoin="round"/>
    <path d="M 24.34141731262207 136.5153045654297 C 16.35417938232422 133.1090545654297 32.81319808959961 121.7586669921875 32.364341735839844 137.75148010253906" stroke-width="2.0" fill="none" stroke="rgb(0, 0, 0)" stroke-opacity="1" stroke-linecap="round" stroke-linejoin="round"/>
    <path d="M 177.92868041992188 100.19657897949219 C 145.2140655517578 100.16075897216797 143.99827575683594 102.23552703857422 147.8720703125 96.75106811523438 C 191.02052307128906 98.06622314453125 176.69635009765625 100.43519592285156 165.89207458496094 107.6552963256836" stroke-width="2.0" fill="none" stroke="rgb(0, 0, 0)" stroke-opacity="1" stroke-linecap="round" stroke-linejoin="round"/>
    <path d="M 53.890647888183594 12.487070083618164 C 59.921451568603516 -34.513397216796875 77.06146240234375 -21.984378814697266 82.68663024902344 -15.107024192810059" stroke-width="2.0" fill="none" stroke="rgb(0, 0, 0)" stroke-opacity="1" stroke-linecap="round" stroke-linejoin="round"/>
    <path d="M 15.7396240234375 30.080799102783203 C 39.4591064453125 55.642173767089844 33.375816345214844 38.88737106323242 12.949524879455566 13.918240547180176 C -19.158140182495117 6.21571159362793 15.20449447631836 4.14156436920166 -12.499109268188477 14.930353164672852" stroke-width="2.0" fill="none" stroke="rgb(0, 0, 0)" stroke-opacity="1" stroke-linecap="round" stroke-linejoin="round"/>
    <path d="M 92.13343811035156 178.35800170898438 C 110.91936492919922 151.8042449951172 107.37212371826172 139.0142059326172 99.05474853515625 174.68528747558594 C 106.44798278808594 152.48329162597656 89.5971908569336 135.03712463378906 116.44696044921875 137.9749755859375" stroke-width="2.0" fill="none" stroke="rgb(0, 0, 0)" stroke-opacity="1" stroke-linecap="round" stroke-linejoin="round"/>
  </g>
</svg>
