<?xml version="1.0" ?>
<svg xmlns="http://www.w3.org/2000/svg" version="1.1" width="224" height="224">
  <defs/>
  <g>
    <path d="M 26.68978500366211 16.55355453491211 C 14.703635215759277 10.916357040405273 -12.919146537780762 3.17166805267334 6.0137715339660645 -12.075730323791504 C 13.308367729187012 38.811195373535156 -3.9073445796966553 56.585018157958984 -10.14151382446289 7.81003999710083" stroke-width="2.0" fill="none" stroke="rgb(0, 0, 0)" stroke-opacity="1" stroke-linecap="round" stroke-linejoin="round"/>
    <path d="M 17.853240966796875 64.19132995605469 C 21.329822540283203 85.42076873779297 -3.2918405532836914 74.23799133300781 -13.323629379272461 96.16559600830078 C -15.810373306274414 105.44974517822266 -14.562209129333496 108.58174133300781 -14.561079978942871 104.84364318847656" stroke-width="2.0" fill="none" stroke="rgb(0, 0, 0)" stroke-opacity="1" stroke-linecap="round" stroke-linejoin="round"/>
    <path d="M 45.30895233154297 16.033676147460938 C 28.16983413696289 41.821529388427734 31.173280715942383 41.87387466430664 34.58108139038086 64.73181915283203 C 10.944315910339355 56.26067352294922 24.039636611938477 38.871524810791016 27.955036163330078 58.3696174621582" stroke-width="2.0" fill="none" stroke="rgb(0, 0, 0)" stroke-opacity="1" stroke-linecap="round" stroke-linejoin="round"/>
    <path d="M 173.77044677734375 94.90132904052734 C 182.3022918701172 85.94129943847656 174.97451782226562 87.8738784790039 137.84951782226562 74.41082000732422 C 174.19529724121094 102.49542999267578 152.14349365234375 90.05274963378906 157.05078125 105.01508331298828" stroke-width="2.0" fill="none" stroke="rgb(0, 0, 0)" stroke-opacity="1" stroke-linecap="round" stroke-linejoin="round"/>
    <path d="M 158.86761474609375 147.79583740234375 C 165.7616729736328 153.31500244140625 158.40447998046875 152.20849609375 169.21340942382812 135.47335815429688 C 174.69383239746094 112.828125 170.28399658203125 115.22542572021484 152.32484436035156 120.39778137207031" stroke-width="2.0" fill="none" stroke="rgb(0, 0, 0)" stroke-opacity="1" stroke-linecap="round" stroke-linejoin="round"/>
    <path d="M 178.03211975097656 167.0443572998047 C 179.853759765625 200.74114990234375 168.47305297851562 181.25503540039062 179.25904846191406 203.98785400390625 C 155.0161895751953 206.29620361328125 157.09376525878906 206.6468505859375 167.05259704589844 189.0490264892578 C 155.38758850097656 195.48838806152344 133.17791748046875 203.0410919189453 161.86378479003906 200.5570526123047" stroke-width="2.0" fill="none" stroke="rgb(0, 0, 0)" stroke-opacity="1" stroke-linecap="round" stroke-linejoin="round"/>
    <path d="M 95.8928451538086 9.18102741241455 C 114.33245086669922 -14.87876033782959 117.63292694091797 22.5317325592041 109.9649658203125 44.7161979675293" stroke-width="2.0" fill="none" stroke="rgb(0, 0, 0)" stroke-opacity="1" stroke-linecap="round" stroke-linejoin="round"/>
    <path d="M 177.5203857421875 122.74637603759766 C 163.7498779296875 155.97003173828125 147.20860290527344 153.85971069335938 180.03851318359375 144.58641052246094 C 187.7850341796875 132.54763793945312 185.23147583007812 140.8109130859375 170.14547729492188 134.25013732910156" stroke-width="2.0" fill="none" stroke="rgb(0, 0, 0)" stroke-opacity="1" stroke-linecap="round" stroke-linejoin="round"/>
    <path d="M 53.693477630615234 92.18399047851562 C 45.76966094970703 64.72220611572266 42.198875427246094 60.36558151245117 59.07051086425781 39.06361770629883 C 37.79360580444336 48.01316452026367 45.650390625 85.15638732910156 41.35881042480469 51.1148567199707" stroke-width="2.0" fill="none" stroke="rgb(0, 0, 0)" stroke-opacity="1" stroke-linecap="round" stroke-linejoin="round"/>
    <path d="M 142.23623657226562 75.92089080810547 C 159.95046997070312 68.29219055175781 153.45516967773438 65.45986938476562 124.13839721679688 60.83203125 C 156.96267700195312 67.16842651367188 162.21937561035156 61.886383056640625 126.24952697753906 44.53600311279297" stroke-width="2.0" fill="none" stroke="rgb(0, 0, 0)" stroke-opacity="1" stroke-linecap="round" stroke-linejoin="round"/>
    <path d="M 178.25393676757812 3.6088123321533203 C 149.51800537109375 9.889678955078125 121.04418182373047 13.765098571777344 129.99954223632812 7.339611530303955 C 169.96710205078125 19.551855087280273 177.39456176757812 9.169868469238281 171.8446807861328 3.16910982131958 C 157.35992431640625 7.43630838394165 186.2300262451172 -4.272415637969971 173.77713012695312 14.545162200927734" stroke-width="2.0" fill="none" stroke="rgb(0, 0, 0)" stroke-opacity="1" stroke-linecap="round" stroke-linejoin="round"/>
    <path d="M 40.22088623046875 161.55210876464844 C 33.14994430541992 148.09085083007812 55.78107833862305 153.85816955566406 54.91865921020508 139.96954345703125" stroke-width="2.0" fill="none" stroke="rgb(0, 0, 0)" stroke-opacity="1" stroke-linecap="round" stroke-linejoin="round"/>
    <path d="M -2.5863564014434814 197.1985321044922 C -6.721859455108643 219.22787475585938 -11.043706893920898 240.15325927734375 5.615727424621582 228.46453857421875 C -1.422764778137207 226.98733520507812 -6.662158012390137 228.5957489013672 -13.735718727111816 226.83480834960938" stroke-width="2.0" fill="none" stroke="rgb(0, 0, 0)" stroke-opacity="1" stroke-linecap="round" stroke-linejoin="round"/>
    <path d="M 185.1210479736328 77.47814178466797 C 218.97012329101562 68.84205627441406 194.19822692871094 80.17025756835938 230.67886352539062 75.1745376586914 C 234.91014099121094 61.64457702636719 238.86642456054688 71.69335174560547 217.79246520996094 72.61140441894531" stroke-width="2.0" fill="none" stroke="rgb(0, 0, 0)" stroke-opacity="1" stroke-linecap="round" stroke-linejoin="round"/>
    <path d="M 85.59458923339844 58.95734405517578 C 54.54668045043945 57.918487548828125 63.49100875854492 60.99282455444336 66.9772720336914 58.83405303955078 C 47.32991409301758 46.12006759643555 76.66242980957031 30.23177719116211 65.5224838256836 38.99795150756836 C 45.41335678100586 69.28372192382812 53.60824966430664 58.938541412353516 68.99999237060547 51.83473587036133" stroke-width="2.0" fill="none" stroke="rgb(0, 0, 0)" stroke-opacity="1" stroke-linecap="round" stroke-linejoin="round"/>
    <path d="M 187.37991333007812 126.03865814208984 C 192.05455017089844 114.50106811523438 183.97776794433594 135.5492401123047 219.33978271484375 136.8032989501953 C 215.52923583984375 138.1562042236328 213.333740234375 131.24876403808594 216.42025756835938 137.3732452392578 C 214.97557067871094 137.3551025390625 220.71742248535156 146.910888671875 207.8476104736328 149.7129364013672" stroke-width="2.0" fill="none" stroke="rgb(0, 0, 0)" stroke-opacity="1" stroke-linecap="round" stroke-linejoin="round"/>
    <path d="M 231.49417114257812 57.92181396484375 C 228.55877685546875 60.563419342041016 225.68357849121094 73.333251953125 229.58523559570312 54.401676177978516 C 234.49562072753906 23.1112117767334 223.04820251464844 26.40837860107422 225.5791015625 44.60020446777344" stroke-width="2.0" fill="none" stroke="rgb(0, 0, 0)" stroke-opacity="1" stroke-linecap="round" stroke-linejoin="round"/>
    <path d="M 91.93025207519531 74.45060729980469 C 95.85537719726562 80.01728820800781 104.58252716064453 92.85284423828125 105.35963439941406 99.22164916992188 C 100.58531188964844 87.62580108642578 100.31986999511719 91.10941314697266 109.62262725830078 93.47452545166016 C 144.45826721191406 101.50879669189453 139.38739013671875 96.51731872558594 130.56808471679688 95.6783447265625" stroke-width="2.0" fill="none" stroke="rgb(0, 0, 0)" stroke-opacity="1" stroke-linecap="round" stroke-linejoin="round"/>
    <path d="M 22.89463233947754 72.64019012451172 C 41.918609619140625 76.30482482910156 39.608402252197266 74.90589904785156 19.912229537963867 82.20320892333984 C 52.71021270751953 70.63323974609375 28.046186447143555 70.39521026611328 53.4708366394043 90.96792602539062" stroke-width="2.0" fill="none" stroke="rgb(0, 0, 0)" stroke-opacity="1" stroke-linecap="round" stroke-linejoin="round"/>
    <path d="M 117.45233917236328 189.42652893066406 C 128.41151428222656 224.25587463378906 135.04457092285156 224.0277557373047 132.00335693359375 244.135009765625 C 141.3712921142578 238.54054260253906 150.20941162109375 235.9024658203125 161.20590209960938 245.68780517578125 C 163.9745635986328 253.61376953125 168.6832733154297 256.42352294921875 177.23597717285156 253.09585571289062" stroke-width="2.0" fill="none" stroke="rgb(0, 0, 0)" stroke-opacity="1" stroke-linecap="round" stroke-linejoin="round"/>
    <path d="M 161.91664123535156 149.92855834960938 C 177.13198852539062 122.78639221191406 172.81312561035156 122.35711669921875 148.5958709716797 146.94264221191406" stroke-width="2.0" fill="none" stroke="rgb(0, 0, 0)" stroke-opacity="1" stroke-linecap="round" stroke-linejoin="round"/>
    <path d="M 78.19803619384766 118.73713684082031 C 47.72434616088867 136.40939331054688 46.72439193725586 123.63121032714844 34.88759231567383 122.58795928955078 C 51.30471420288086 148.37344360351562 63.331851959228516 146.03065490722656 29.69573974609375 132.64407348632812" stroke-width="2.0" fill="none" stroke="rgb(0, 0, 0)" stroke-opacity="1" stroke-linecap="round" stroke-linejoin="round"/>
    <path d="M 194.96031188964844 143.91070556640625 C 217.7981719970703 145.2677459716797 242.4989471435547 134.10256958007812 215.8408203125 131.3716278076172 C 218.9002685546875 162.9506072998047 203.69302368164062 135.69692993164062 200.44329833984375 154.95730590820312" stroke-width="2.0" fill="none" stroke="rgb(0, 0, 0)" stroke-opacity="1" stroke-linecap="round" stroke-linejoin="round"/>
    <path d="M 151.23646545410156 85.90872955322266 C 153.51229858398438 107.42072296142578 149.4562225341797 99.04771423339844 122.97318267822266 106.5118179321289 C 133.8328094482422 99.09095764160156 130.94569396972656 95.33696746826172 121.31655883789062 96.71746063232422 C 116.00287628173828 83.29232788085938 120.25911712646484 89.11918640136719 150.39093017578125 98.09896850585938" stroke-width="2.0" fill="none" stroke="rgb(0, 0, 0)" stroke-opacity="1" stroke-linecap="round" stroke-linejoin="round"/>
    <path d="M 226.95233154296875 111.4451675415039 C 199.87457275390625 131.94778442382812 211.78619384765625 116.82279968261719 239.67172241210938 119.82904052734375 C 198.1901092529297 136.1708526611328 204.94009399414062 120.85279846191406 188.37844848632812 124.5377426147461 C 221.3705596923828 123.70231628417969 237.2301788330078 118.23292541503906 242.2792510986328 123.61017608642578" stroke-width="2.0" fill="none" stroke="rgb(0, 0, 0)" stroke-opacity="1" stroke-linecap="round" stroke-linejoin="round"/>
    <path d="M 81.2373275756836 184.6608123779297 C 73.95793151855469 200.41055297851562 57.42046356201172 199.21035766601562 60.45556640625 198.81602478027344 C 82.07115936279297 194.76991271972656 94.78828430175781 190.08644104003906 52.823944091796875 200.7642364501953 C 82.79360961914062 234.78643798828125 89.54365539550781 228.57386779785156 35.67164611816406 207.8797607421875" stroke-width="2.0" fill="none" stroke="rgb(0, 0, 0)" stroke-opacity="1" stroke-linecap="round" stroke-linejoin="round"/>
    <path d="M 49.69536209106445 147.84368896484375 C 49.259002685546875 148.50804138183594 49.8004035949707 148.92633056640625 40.39488983154297 154.93519592285156 C 32.85956573486328 154.20333862304688 59.51274108886719 152.9366455078125 70.78246307373047 149.32398986816406 C 46.0113525390625 155.4381103515625 62.89374542236328 153.91110229492188 78.50979614257812 138.31207275390625" stroke-width="2.0" fill="none" stroke="rgb(0, 0, 0)" stroke-opacity="1" stroke-linecap="round" stroke-linejoin="round"/>
    <path d="M 62.25741958618164 92.63111114501953 C 35.7529411315918 115.51979064941406 33.81658172607422 104.47553253173828 69.93285369873047 95.9963607788086 C 59.45466232299805 103.7403793334961 47.17246627807617 95.48212432861328 48.253662109375 99.86421966552734 C -24.299619674682617 98.00162506103516 -5.799826145172119 79.66094207763672 42.35316467285156 85.27661895751953" stroke-width="2.0" fill="none" stroke="rgb(0, 0, 0)" stroke-opacity="1" stroke-linecap="round" stroke-linejoin="round"/>
    <path d="M 151.7125701904297 93.8118667602539 C 125.10625457763672 77.26829528808594 131.2779541015625 92.61568450927734 140.47439575195312 68.1873779296875" stroke-width="2.0" fill="none" stroke="rgb(0, 0, 0)" stroke-opacity="1" stroke-linecap="round" stroke-linejoin="round"/>
    <path d="M 178.15855407714844 122.68378448486328 C 180.81356811523438 118.17122650146484 185.00035095214844 117.13864135742188 203.2478485107422 93.66155242919922 C 211.942138671875 121.22354888916016 208.38613891601562 81.61244201660156 207.93670654296875 88.49217987060547" stroke-width="2.0" fill="none" stroke="rgb(0, 0, 0)" stroke-opacity="1" stroke-linecap="round" stroke-linejoin="round"/>
    <path d="M 121.84822845458984 169.6392364501953 C 162.33493041992188 177.36495971679688 165.42245483398438 194.8421173095703 152.56759643554688 163.31805419921875" stroke-width="2.0" fill="none" stroke="rgb(0, 0, 0)" stroke-opacity="1" stroke-linecap="round" stroke-linejoin="round"/>
    <path d="M 39.44477462768555 43.73057174682617 C 49.81510543823242 28.849515914916992 62.98878479003906 -1.6820262670516968 62.96894454956055 3.056520938873291 C 29.182737350463867 18.326025009155273 30.365415573120117 6.496625900268555 14.818827629089355 8.702607154846191" stroke-width="2.0" fill="none" stroke="rgb(0, 0, 0)" stroke-opacity="1" stroke-linecap="round" stroke-linejoin="round"/>
    <path d="M 49.34929275512695 128.99070739746094 C 50.46108627319336 159.4684600830078 71.37621307373047 163.5901336669922 56.54084396362305 156.815673828125 C 44.84178924560547 157.1629638671875 58.18115997314453 173.27587890625 44.956661224365234 171.9654998779297" stroke-width="2.0" fill="none" stroke="rgb(0, 0, 0)" stroke-opacity="1" stroke-linecap="round" stroke-linejoin="round"/>
    <path d="M -1.548105239868164 81.03395080566406 C 0.6530584692955017 72.27843475341797 3.814119815826416 41.8791389465332 -0.12947076559066772 -3.435502767562866 C -9.299546241760254 22.40618133544922 -14.385445594787598 41.38360595703125 7.034822940826416 55.75102615356445" stroke-width="2.0" fill="none" stroke="rgb(0, 0, 0)" stroke-opacity="1" stroke-linecap="round" stroke-linejoin="round"/>
    <path d="M 86.85386657714844 41.77363204956055 C 60.957969665527344 53.81620407104492 62.11404800415039 57.82931900024414 73.9195785522461 48.994110107421875 C 46.2667121887207 55.944278717041016 72.60436248779297 57.83009719848633 84.13915252685547 23.07304573059082 C 79.33390045166016 25.063417434692383 93.86612701416016 15.733499526977539 69.30416107177734 41.09675598144531" stroke-width="2.0" fill="none" stroke="rgb(0, 0, 0)" stroke-opacity="1" stroke-linecap="round" stroke-linejoin="round"/>
    <path d="M 126.8583984375 228.2450714111328 C 108.89372253417969 216.42987060546875 119.06549072265625 209.7002716064453 91.2473373413086 221.66488647460938" stroke-width="2.0" fill="none" stroke="rgb(0, 0, 0)" stroke-opacity="1" stroke-linecap="round" stroke-linejoin="round"/>
    <path d="M 69.59132385253906 125.54594421386719 C 54.95851516723633 142.13983154296875 68.97235870361328 151.08489990234375 46.391536712646484 129.7623291015625 C 51.195743560791016 134.3892364501953 66.36200714111328 149.09828186035156 57.38603210449219 140.1636199951172 C 58.58621597290039 159.43234252929688 65.9252700805664 156.2391815185547 37.131046295166016 138.792236328125" stroke-width="2.0" fill="none" stroke="rgb(0, 0, 0)" stroke-opacity="1" stroke-linecap="round" stroke-linejoin="round"/>
    <path d="M 96.8472671508789 203.2878875732422 C 102.3594741821289 203.24066162109375 85.28788757324219 223.67152404785156 81.82037353515625 183.02804565429688 C 65.02798461914062 201.2646942138672 71.35936737060547 178.75328063964844 75.87007141113281 164.54306030273438 C 87.62451934814453 184.1383514404297 117.27347564697266 187.94456481933594 73.92496490478516 172.82699584960938" stroke-width="2.0" fill="none" stroke="rgb(0, 0, 0)" stroke-opacity="1" stroke-linecap="round" stroke-linejoin="round"/>
    <path d="M 207.6531219482422 190.48345947265625 C 188.1234130859375 182.71435546875 191.99285888671875 171.49850463867188 200.8259735107422 200.1479034423828 C 182.97467041015625 227.54306030273438 240.59503173828125 235.11000061035156 188.820556640625 204.54722595214844 C 189.009521484375 229.11471557617188 182.0579376220703 236.07229614257812 188.1197052001953 250.08013916015625" stroke-width="2.0" fill="none" stroke="rgb(0, 0, 0)" stroke-opacity="1" stroke-linecap="round" stroke-linejoin="round"/>
    <path d="M 50.790184020996094 92.17019653320312 C -11.676769256591797 67.523193359375 -9.199760437011719 102.49266052246094 1.0630799531936646 104.32697296142578 C 30.488155364990234 101.69422912597656 10.73895263671875 90.08621215820312 9.248041152954102 134.35841369628906" stroke-width="2.0" fill="none" stroke="rgb(0, 0, 0)" stroke-opacity="1" stroke-linecap="round" stroke-linejoin="round"/>
    <path d="M 208.439208984375 81.1816177368164 C 222.78102111816406 81.70663452148438 231.03016662597656 75.7726058959961 235.3544158935547 84.04972076416016 C 227.25440979003906 109.76261901855469 227.34042358398438 108.59727478027344 236.27093505859375 111.39910888671875 C 230.7376708984375 118.49317932128906 236.22525024414062 126.28458404541016 242.861572265625 134.91464233398438" stroke-width="2.0" fill="none" stroke="rgb(0, 0, 0)" stroke-opacity="1" stroke-linecap="round" stroke-linejoin="round"/>
    <path d="M 63.6571044921875 7.640807628631592 C 68.6988754272461 38.976844787597656 83.7240219116211 26.988819122314453 59.72950744628906 31.468442916870117 C 87.11554718017578 26.091550827026367 79.40715026855469 32.483985900878906 65.51484680175781 40.71852111816406 C 65.69023895263672 47.023197174072266 58.70627212524414 56.871559143066406 88.7418441772461 49.19804382324219" stroke-width="2.0" fill="none" stroke="rgb(0, 0, 0)" stroke-opacity="1" stroke-linecap="round" stroke-linejoin="round"/>
    <path d="M 100.86270904541016 141.42787170410156 C 112.11544036865234 144.47901916503906 104.44503784179688 133.8203125 97.0922622680664 116.94960021972656 C 91.33602142333984 109.40374755859375 78.0141372680664 101.49518585205078 77.06282806396484 100.49317932128906" stroke-width="2.0" fill="none" stroke="rgb(0, 0, 0)" stroke-opacity="1" stroke-linecap="round" stroke-linejoin="round"/>
    <path d="M 25.822595596313477 101.30097198486328 C 14.84218978881836 137.10450744628906 42.311946868896484 131.011962890625 32.226844787597656 142.52694702148438 C 24.651216506958008 108.63111877441406 41.614295959472656 122.99593353271484 -0.6024519205093384 139.71771240234375" stroke-width="2.0" fill="none" stroke="rgb(0, 0, 0)" stroke-opacity="1" stroke-linecap="round" stroke-linejoin="round"/>
    <path d="M 91.8917236328125 229.11228942871094 C 92.45899200439453 224.24319458007812 76.90060424804688 225.47572326660156 76.05950164794922 231.28900146484375" stroke-width="2.0" fill="none" stroke="rgb(0, 0, 0)" stroke-opacity="1" stroke-linecap="round" stroke-linejoin="round"/>
    <path d="M 141.59298706054688 165.77735900878906 C 111.71903991699219 160.499267578125 136.03660583496094 162.9630889892578 157.38714599609375 177.96932983398438 C 160.80508422851562 173.78121948242188 150.2103271484375 177.07301330566406 142.56234741210938 191.0375518798828 C 158.6565399169922 178.0748748779297 155.4912109375 178.9869384765625 135.86708068847656 149.9576416015625" stroke-width="2.0" fill="none" stroke="rgb(0, 0, 0)" stroke-opacity="1" stroke-linecap="round" stroke-linejoin="round"/>
    <path d="M 112.36438751220703 139.07672119140625 C 86.75675964355469 143.4518280029297 83.78889465332031 138.15557861328125 97.64684295654297 145.7062530517578 C 115.89009094238281 154.31256103515625 86.74188232421875 142.31826782226562 112.19963836669922 145.03701782226562" stroke-width="2.0" fill="none" stroke="rgb(0, 0, 0)" stroke-opacity="1" stroke-linecap="round" stroke-linejoin="round"/>
    <path d="M 59.34990692138672 166.80389404296875 C 71.7403335571289 146.76776123046875 84.59672546386719 125.74121856689453 73.08634948730469 154.01356506347656 C 63.42074203491211 166.73434448242188 59.730690002441406 161.93028259277344 77.08126068115234 173.3827362060547 C 67.26099395751953 195.34556579589844 101.84770965576172 178.3507537841797 68.82369995117188 203.6011199951172" stroke-width="2.0" fill="none" stroke="rgb(0, 0, 0)" stroke-opacity="1" stroke-linecap="round" stroke-linejoin="round"/>
    <path d="M 27.717947006225586 196.02972412109375 C 27.34788703918457 207.46514892578125 19.77955436706543 212.8484344482422 16.2489070892334 224.1607208251953 C 24.509382247924805 244.94186401367188 56.98880386352539 239.95899963378906 51.28260040283203 233.804931640625 C -17.557565689086914 223.71041870117188 31.22503089904785 210.64613342285156 67.8832778930664 225.2856903076172" stroke-width="2.0" fill="none" stroke="rgb(0, 0, 0)" stroke-opacity="1" stroke-linecap="round" stroke-linejoin="round"/>
    <path d="M 138.41444396972656 70.85509490966797 C 122.06779479980469 87.44209289550781 91.31085968017578 77.78996276855469 117.82746124267578 87.91284942626953" stroke-width="2.0" fill="none" stroke="rgb(0, 0, 0)" stroke-opacity="1" stroke-linecap="round" stroke-linejoin="round"/>
    <path d="M 122.94216918945312 14.031638145446777 C 119.89684295654297 35.7032356262207 110.11988830566406 1.187853455543518 127.96482849121094 25.013769149780273 C 128.883544921875 43.52982711791992 138.54981994628906 31.65562629699707 124.96353912353516 13.563015937805176" stroke-width="2.0" fill="none" stroke="rgb(0, 0, 0)" stroke-opacity="1" stroke-linecap="round" stroke-linejoin="round"/>
    <path d="M 118.78755950927734 122.93692779541016 C 128.38540649414062 134.30050659179688 113.1562271118164 91.01333618164062 128.3365936279297 127.51194763183594 C 101.60028839111328 139.51437377929688 117.92245483398438 129.8036346435547 123.29595184326172 129.2674102783203 C 120.35442352294922 150.06875610351562 93.40589904785156 143.0283203125 111.3669204711914 151.13328552246094" stroke-width="2.0" fill="none" stroke="rgb(0, 0, 0)" stroke-opacity="1" stroke-linecap="round" stroke-linejoin="round"/>
    <path d="M 143.71888732910156 188.8362274169922 C 182.43295288085938 182.0437774658203 168.71234130859375 183.61521911621094 151.24098205566406 211.30819702148438 C 126.23241424560547 176.92018127441406 134.64576721191406 191.53941345214844 153.90469360351562 215.062255859375" stroke-width="2.0" fill="none" stroke="rgb(0, 0, 0)" stroke-opacity="1" stroke-linecap="round" stroke-linejoin="round"/>
    <path d="M 216.5231475830078 174.68032836914062 C 231.5697784423828 229.4837646484375 217.26351928710938 233.74468994140625 194.55453491210938 241.61911010742188 C 224.55271911621094 232.25001525878906 231.4213409423828 223.11187744140625 224.06082153320312 232.7998046875" stroke-width="2.0" fill="none" stroke="rgb(0, 0, 0)" stroke-opacity="1" stroke-linecap="round" stroke-linejoin="round"/>
    <path d="M 24.906164169311523 122.8489761352539 C 20.403318405151367 111.4815902709961 9.030757904052734 144.9721221923828 19.378459930419922 101.71044921875 C 7.533246994018555 113.1380386352539 4.761813163757324 113.14359283447266 -14.62659740447998 124.78789520263672 C -2.918149948120117 106.94464111328125 4.980510234832764 102.15472412109375 -8.523041725158691 120.12887573242188" stroke-width="2.0" fill="none" stroke="rgb(0, 0, 0)" stroke-opacity="1" stroke-linecap="round" stroke-linejoin="round"/>
    <path d="M 19.171695709228516 137.7147979736328 C 13.668351173400879 118.18670654296875 20.24994659423828 112.18326568603516 28.613876342773438 133.89794921875 C 32.19491958618164 110.12337493896484 43.32051086425781 124.910888671875 61.87489700317383 143.9660186767578" stroke-width="2.0" fill="none" stroke="rgb(0, 0, 0)" stroke-opacity="1" stroke-linecap="round" stroke-linejoin="round"/>
    <path d="M 150.32241821289062 65.82683563232422 C 106.44702911376953 31.56313133239746 186.66661071777344 57.235557556152344 123.51853942871094 37.149497985839844" stroke-width="2.0" fill="none" stroke="rgb(0, 0, 0)" stroke-opacity="1" stroke-linecap="round" stroke-linejoin="round"/>
    <path d="M 38.48100662231445 170.50375366210938 C 60.96194076538086 178.58265686035156 61.07674789428711 189.12442016601562 52.334041595458984 163.3098602294922 C 32.007896423339844 164.07037353515625 29.780519485473633 156.83255004882812 43.84988021850586 143.33348083496094 C 57.36354064941406 151.4957733154297 38.717742919921875 159.40982055664062 44.12767028808594 142.37892150878906" stroke-width="2.0" fill="none" stroke="rgb(0, 0, 0)" stroke-opacity="1" stroke-linecap="round" stroke-linejoin="round"/>
    <path d="M 48.662113189697266 186.69439697265625 C 33.14899826049805 158.51971435546875 29.19055938720703 169.10891723632812 22.357696533203125 162.2610321044922 C 37.476314544677734 183.02798461914062 39.8695182800293 172.12831115722656 13.71654987335205 168.09228515625" stroke-width="2.0" fill="none" stroke="rgb(0, 0, 0)" stroke-opacity="1" stroke-linecap="round" stroke-linejoin="round"/>
    <path d="M 170.4523468017578 178.02088928222656 C 176.99937438964844 177.88299560546875 187.9884033203125 193.34182739257812 176.2781982421875 214.612060546875" stroke-width="2.0" fill="none" stroke="rgb(0, 0, 0)" stroke-opacity="1" stroke-linecap="round" stroke-linejoin="round"/>
    <path d="M 3.4578115940093994 150.16233825683594 C -14.97008228302002 129.748046875 -21.9218807220459 119.57577514648438 -18.240812301635742 122.3453140258789 C -21.15849494934082 126.1429672241211 -31.073625564575195 120.39765930175781 -33.313880920410156 122.28374481201172 C -26.724624633789062 122.08080291748047 -36.513343811035156 117.48705291748047 -31.168209075927734 125.41043090820312" stroke-width="2.0" fill="none" stroke="rgb(0, 0, 0)" stroke-opacity="1" stroke-linecap="round" stroke-linejoin="round"/>
    <path d="M 194.80181884765625 72.07324981689453 C 145.1390380859375 75.83726501464844 168.7803955078125 76.9646987915039 192.12664794921875 90.0440673828125 C 205.9228973388672 81.35851287841797 194.91639709472656 63.024295806884766 213.04086303710938 98.89063262939453" stroke-width="2.0" fill="none" stroke="rgb(0, 0, 0)" stroke-opacity="1" stroke-linecap="round" stroke-linejoin="round"/>
    <path d="M 168.8595428466797 90.06787109375 C 164.74917602539062 78.65547943115234 189.01092529296875 91.47492980957031 167.52919006347656 83.95592498779297 C 151.31275939941406 82.3616943359375 159.7255859375 79.96270751953125 183.85418701171875 90.26519012451172" stroke-width="2.0" fill="none" stroke="rgb(0, 0, 0)" stroke-opacity="1" stroke-linecap="round" stroke-linejoin="round"/>
    <path d="M -3.96799898147583 113.11433410644531 C 3.523397207260132 98.79180145263672 3.830374002456665 93.292236328125 37.84007263183594 99.25055694580078" stroke-width="2.0" fill="none" stroke="rgb(0, 0, 0)" stroke-opacity="1" stroke-linecap="round" stroke-linejoin="round"/>
    <path d="M 12.030680656433105 104.41261291503906 C 4.699195384979248 101.86505126953125 -3.218397617340088 115.60516357421875 -6.2937235832214355 109.1887435913086 C 11.858165740966797 97.99882507324219 9.161869049072266 118.78855895996094 -10.124558448791504 125.19721221923828 C 11.449974060058594 138.46156311035156 -5.820844650268555 161.74099731445312 1.6212915182113647 157.58689880371094" stroke-width="2.0" fill="none" stroke="rgb(0, 0, 0)" stroke-opacity="1" stroke-linecap="round" stroke-linejoin="round"/>
    <path d="M 24.891437530517578 34.772857666015625 C 36.44282150268555 72.0765609741211 66.6224136352539 68.65734100341797 17.741241455078125 78.14225006103516 C 35.526554107666016 73.67692565917969 49.14220428466797 98.337890625 35.69222640991211 54.43255615234375" stroke-width="2.0" fill="none" stroke="rgb(0, 0, 0)" stroke-opacity="1" stroke-linecap="round" stroke-linejoin="round"/>
    <path d="M 28.867298126220703 91.17643737792969 C -30.102947235107422 90.7806625366211 17.286218643188477 73.34538269042969 17.383869171142578 90.30897521972656 C 20.5516300201416 90.64842224121094 46.5744514465332 97.37754821777344 22.71227264404297 88.46083068847656" stroke-width="2.0" fill="none" stroke="rgb(0, 0, 0)" stroke-opacity="1" stroke-linecap="round" stroke-linejoin="round"/>
    <path d="M 129.68971252441406 -7.607265949249268 C 134.04702758789062 18.961267471313477 122.1157455444336 3.9682650566101074 110.54109954833984 -5.701314449310303 C 110.27596282958984 -2.3761489391326904 134.50357055664062 0.2521166205406189 163.61801147460938 9.89694595336914 C 128.6429443359375 -0.5167189836502075 171.2069549560547 9.448892593383789 175.4911651611328 -1.7471935749053955" stroke-width="2.0" fill="none" stroke="rgb(0, 0, 0)" stroke-opacity="1" stroke-linecap="round" stroke-linejoin="round"/>
    <path d="M 63.95351791381836 78.40043640136719 C 45.36859893798828 55.375308990478516 40.01583480834961 67.0971450805664 77.73181915283203 64.6558609008789" stroke-width="2.0" fill="none" stroke="rgb(0, 0, 0)" stroke-opacity="1" stroke-linecap="round" stroke-linejoin="round"/>
    <path d="M 97.1198959350586 104.01534271240234 C 82.77861022949219 106.16970825195312 98.4022216796875 83.00313568115234 81.68424987792969 77.92922973632812 C 97.94151306152344 86.43623352050781 98.04132843017578 93.84414672851562 92.8592529296875 104.84888458251953 C 90.88993835449219 96.7940673828125 84.17655181884766 88.92782592773438 105.40888214111328 58.7066650390625" stroke-width="2.0" fill="none" stroke="rgb(0, 0, 0)" stroke-opacity="1" stroke-linecap="round" stroke-linejoin="round"/>
    <path d="M 12.359688758850098 125.6517333984375 C 52.51136016845703 138.29986572265625 57.53239059448242 144.929931640625 30.566652297973633 132.57432556152344 C 17.020671844482422 122.80689239501953 32.6568717956543 115.56927490234375 40.872169494628906 126.24620056152344 C 47.662628173828125 145.2006072998047 48.89757537841797 139.5606689453125 36.17771530151367 123.55430603027344" stroke-width="2.0" fill="none" stroke="rgb(0, 0, 0)" stroke-opacity="1" stroke-linecap="round" stroke-linejoin="round"/>
    <path d="M 148.6798858642578 48.519805908203125 C 150.17852783203125 32.37797164916992 139.42218017578125 31.820940017700195 153.79237365722656 40.67689514160156 C 168.18678283691406 48.584449768066406 174.9972686767578 65.64295196533203 168.79998779296875 28.315265655517578 C 164.5440216064453 29.452646255493164 176.11766052246094 51.48438262939453 145.33702087402344 53.97871017456055" stroke-width="2.0" fill="none" stroke="rgb(0, 0, 0)" stroke-opacity="1" stroke-linecap="round" stroke-linejoin="round"/>
    <path d="M 188.21844482421875 5.685059547424316 C 219.0062713623047 41.42350769042969 193.85411071777344 68.84808349609375 175.371337890625 52.71686553955078 C 199.87843322753906 23.178096771240234 192.30667114257812 27.49286460876465 175.7495880126953 -5.110236644744873 C 177.3603057861328 -25.125822067260742 186.7830047607422 17.345632553100586 211.2327117919922 5.471012592315674" stroke-width="2.0" fill="none" stroke="rgb(0, 0, 0)" stroke-opacity="1" stroke-linecap="round" stroke-linejoin="round"/>
    <path d="M 207.93153381347656 186.50393676757812 C 192.45167541503906 152.77601623535156 199.07162475585938 167.4820556640625 206.56491088867188 181.25233459472656 C 181.53387451171875 167.95669555664062 189.882568359375 193.1167449951172 185.64666748046875 177.7737579345703" stroke-width="2.0" fill="none" stroke="rgb(0, 0, 0)" stroke-opacity="1" stroke-linecap="round" stroke-linejoin="round"/>
    <path d="M 115.375732421875 119.67501831054688 C 106.32011413574219 116.71076965332031 102.823974609375 95.30136108398438 92.27223205566406 83.1798095703125" stroke-width="2.0" fill="none" stroke="rgb(0, 0, 0)" stroke-opacity="1" stroke-linecap="round" stroke-linejoin="round"/>
    <path d="M 194.1690216064453 16.29425048828125 C 203.12490844726562 59.20905685424805 204.7969512939453 42.653175354003906 172.696044921875 58.2437629699707 C 171.7025604248047 59.401206970214844 181.7660369873047 37.30878829956055 184.6326446533203 62.1897087097168 C 178.4831085205078 77.67314147949219 162.1593475341797 77.60926055908203 203.55862426757812 67.52721405029297" stroke-width="2.0" fill="none" stroke="rgb(0, 0, 0)" stroke-opacity="1" stroke-linecap="round" stroke-linejoin="round"/>
    <path d="M 52.4722900390625 59.64402770996094 C 79.90900421142578 42.00025939941406 75.97561645507812 36.25493240356445 84.2010269165039 27.0430850982666" stroke-width="2.0" fill="none" stroke="rgb(0, 0, 0)" stroke-opacity="1" stroke-linecap="round" stroke-linejoin="round"/>
    <path d="M 10.69442367553711 134.20379638671875 C 45.90760040283203 145.42042541503906 41.56660079956055 145.52101135253906 -14.916431427001953 145.2218780517578" stroke-width="2.0" fill="none" stroke="rgb(0, 0, 0)" stroke-opacity="1" stroke-linecap="round" stroke-linejoin="round"/>
    <path d="M 183.93373107910156 34.109947204589844 C 145.1620635986328 27.23853302001953 159.54031372070312 26.26963996887207 183.59898376464844 29.58876609802246" stroke-width="2.0" fill="none" stroke="rgb(0, 0, 0)" stroke-opacity="1" stroke-linecap="round" stroke-linejoin="round"/>
    <path d="M 38.72905731201172 146.94810485839844 C 32.28041458129883 149.9982452392578 23.01434898376465 156.7628936767578 24.423791885375977 155.6914520263672 C 66.85198974609375 169.72914123535156 50.963321685791016 163.69834899902344 55.493064880371094 178.34605407714844" stroke-width="2.0" fill="none" stroke="rgb(0, 0, 0)" stroke-opacity="1" stroke-linecap="round" stroke-linejoin="round"/>
    <path d="M 96.81629943847656 64.09097290039062 C 71.03190612792969 85.10518646240234 92.16012573242188 73.8712158203125 84.72125244140625 92.57276916503906 C 85.66438293457031 91.40140533447266 85.62350463867188 107.93926239013672 121.98469543457031 123.65333557128906" stroke-width="2.0" fill="none" stroke="rgb(0, 0, 0)" stroke-opacity="1" stroke-linecap="round" stroke-linejoin="round"/>
    <path d="M 120.90531158447266 67.86823272705078 C 131.38145446777344 68.1767578125 108.26542663574219 68.00479888916016 128.28030395507812 66.79399108886719 C 142.43162536621094 75.09295654296875 110.15989685058594 75.3803939819336 90.14445495605469 76.75536346435547 C 119.53684997558594 69.21752166748047 131.47654724121094 77.4837875366211 134.03233337402344 65.74646759033203" stroke-width="2.0" fill="none" stroke="rgb(0, 0, 0)" stroke-opacity="1" stroke-linecap="round" stroke-linejoin="round"/>
    <path d="M 206.60101318359375 34.82758712768555 C 211.67367553710938 18.49330711364746 208.446044921875 9.7991943359375 228.58197021484375 -0.5151913166046143 C 217.3426513671875 -4.212691307067871 212.7637176513672 14.69829273223877 180.78005981445312 -1.6582794189453125" stroke-width="2.0" fill="none" stroke="rgb(0, 0, 0)" stroke-opacity="1" stroke-linecap="round" stroke-linejoin="round"/>
    <path d="M 124.90640258789062 139.529052734375 C 133.81988525390625 119.68733978271484 133.26023864746094 129.33311462402344 131.81475830078125 126.43963623046875 C 128.43605041503906 108.22743225097656 141.8668212890625 133.99203491210938 104.45358276367188 121.32191467285156" stroke-width="2.0" fill="none" stroke="rgb(0, 0, 0)" stroke-opacity="1" stroke-linecap="round" stroke-linejoin="round"/>
    <path d="M 17.213603973388672 98.09370422363281 C 5.851446628570557 110.58832550048828 -5.366188049316406 102.97425079345703 2.2088983058929443 132.2048797607422" stroke-width="2.0" fill="none" stroke="rgb(0, 0, 0)" stroke-opacity="1" stroke-linecap="round" stroke-linejoin="round"/>
    <path d="M 136.44007873535156 62.2493896484375 C 157.92466735839844 77.81196594238281 159.8531951904297 51.42496109008789 181.0917205810547 37.121829986572266 C 171.62416076660156 34.95017623901367 179.33953857421875 59.512664794921875 148.01487731933594 55.205204010009766 C 157.21209716796875 66.22561645507812 179.11129760742188 70.90398406982422 179.966552734375 61.79924774169922" stroke-width="2.0" fill="none" stroke="rgb(0, 0, 0)" stroke-opacity="1" stroke-linecap="round" stroke-linejoin="round"/>
    <path d="M -5.322917938232422 209.57150268554688 C 0.5068835020065308 165.03746032714844 -4.94421911239624 173.2368927001953 -10.134663581848145 166.1533660888672 C -4.396421432495117 147.95950317382812 -5.132068634033203 150.3448944091797 -3.558454751968384 152.76454162597656 C -9.384746551513672 147.86080932617188 -12.030329704284668 156.87796020507812 -19.21481704711914 159.39035034179688" stroke-width="2.0" fill="none" stroke="rgb(0, 0, 0)" stroke-opacity="1" stroke-linecap="round" stroke-linejoin="round"/>
    <path d="M 168.7999725341797 19.916732788085938 C 153.58712768554688 13.505598068237305 140.3716583251953 14.579900741577148 138.5771484375 24.483240127563477" stroke-width="2.0" fill="none" stroke="rgb(0, 0, 0)" stroke-opacity="1" stroke-linecap="round" stroke-linejoin="round"/>
    <path d="M 125.29363250732422 21.145029067993164 C 111.77249908447266 30.700349807739258 135.77320861816406 42.580047607421875 111.32357788085938 4.561869144439697 C 128.8142852783203 21.863513946533203 132.4095001220703 17.51078224182129 109.3756103515625 -2.292661428451538 C 95.04234313964844 29.787363052368164 115.28292846679688 -2.579690456390381 101.73029327392578 13.776616096496582" stroke-width="2.0" fill="none" stroke="rgb(0, 0, 0)" stroke-opacity="1" stroke-linecap="round" stroke-linejoin="round"/>
    <path d="M 89.91455841064453 10.592350006103516 C 66.82679748535156 8.100571632385254 69.20063018798828 -0.9300865530967712 56.43684768676758 -12.68876838684082 C 67.65689849853516 3.990659713745117 94.58305358886719 10.224150657653809 101.4140853881836 -5.137604713439941" stroke-width="2.0" fill="none" stroke="rgb(0, 0, 0)" stroke-opacity="1" stroke-linecap="round" stroke-linejoin="round"/>
    <path d="M 200.44361877441406 104.2933120727539 C 188.80174255371094 100.88829803466797 203.56036376953125 98.83749389648438 191.56106567382812 114.59597778320312 C 173.0908966064453 118.47615814208984 186.9860382080078 119.81634521484375 216.32972717285156 104.25029754638672" stroke-width="2.0" fill="none" stroke="rgb(0, 0, 0)" stroke-opacity="1" stroke-linecap="round" stroke-linejoin="round"/>
    <path d="M 205.52947998046875 209.58432006835938 C 151.17440795898438 212.58026123046875 163.3375701904297 207.88497924804688 165.37301635742188 215.44737243652344 C 174.03140258789062 214.59384155273438 175.79193115234375 203.55868530273438 173.43727111816406 189.2467498779297 C 160.32015991210938 210.5620880126953 172.95770263671875 205.7413787841797 169.2206268310547 200.25157165527344" stroke-width="2.0" fill="none" stroke="rgb(0, 0, 0)" stroke-opacity="1" stroke-linecap="round" stroke-linejoin="round"/>
    <path d="M 124.61294555664062 220.42433166503906 C 105.17932891845703 205.0189666748047 111.17523193359375 199.60621643066406 78.89193725585938 179.40957641601562 C 90.73619079589844 199.21212768554688 91.37955474853516 208.2389373779297 86.37643432617188 199.0532684326172 C 74.99507904052734 211.94908142089844 75.1715316772461 203.29115295410156 83.93787384033203 189.8899688720703" stroke-width="2.0" fill="none" stroke="rgb(0, 0, 0)" stroke-opacity="1" stroke-linecap="round" stroke-linejoin="round"/>
    <path d="M 9.219375610351562 5.054988384246826 C 9.019365310668945 16.04654884338379 5.732512950897217 21.56068229675293 9.688260078430176 4.395208835601807" stroke-width="2.0" fill="none" stroke="rgb(0, 0, 0)" stroke-opacity="1" stroke-linecap="round" stroke-linejoin="round"/>
    <path d="M 5.263885974884033 139.279296875 C 28.173633575439453 111.66867065429688 2.3557519912719727 110.58403015136719 59.31941223144531 117.9083023071289" stroke-width="2.0" fill="none" stroke="rgb(0, 0, 0)" stroke-opacity="1" stroke-linecap="round" stroke-linejoin="round"/>
    <path d="M 196.54811096191406 232.65834045410156 C 220.29176330566406 228.3486785888672 205.98580932617188 224.12229919433594 174.56707763671875 216.30953979492188 C 188.4758758544922 216.16665649414062 199.000732421875 213.9079132080078 172.49346923828125 227.5042724609375" stroke-width="2.0" fill="none" stroke="rgb(0, 0, 0)" stroke-opacity="1" stroke-linecap="round" stroke-linejoin="round"/>
    <path d="M 169.63214111328125 216.2040557861328 C 187.08004760742188 216.86561584472656 189.37998962402344 195.53054809570312 192.67498779296875 178.41490173339844 C 198.72579956054688 204.35867309570312 196.68624877929688 208.11959838867188 183.25245666503906 213.82791137695312 C 171.35743713378906 199.5446319580078 192.4134979248047 203.19381713867188 191.57696533203125 204.19338989257812" stroke-width="2.0" fill="none" stroke="rgb(0, 0, 0)" stroke-opacity="1" stroke-linecap="round" stroke-linejoin="round"/>
    <path d="M 172.2818603515625 111.0922622680664 C 145.64306640625 107.22820281982422 142.75534057617188 122.85794067382812 161.47203063964844 97.4305191040039 C 137.50393676757812 118.95662689208984 127.59219360351562 110.67092895507812 163.02365112304688 114.88520812988281" stroke-width="2.0" fill="none" stroke="rgb(0, 0, 0)" stroke-opacity="1" stroke-linecap="round" stroke-linejoin="round"/>
    <path d="M 98.2347640991211 202.62908935546875 C 90.45411682128906 184.38272094726562 113.50019073486328 197.0727996826172 132.32269287109375 230.669921875 C 87.53496551513672 209.34088134765625 73.23473358154297 229.92245483398438 61.67648696899414 225.94602966308594" stroke-width="2.0" fill="none" stroke="rgb(0, 0, 0)" stroke-opacity="1" stroke-linecap="round" stroke-linejoin="round"/>
    <path d="M 173.32749938964844 212.3460693359375 C 176.38710021972656 185.74755859375 176.4661865234375 165.61338806152344 176.20111083984375 199.22593688964844 C 179.10813903808594 188.1774139404297 176.83154296875 185.6629180908203 159.6711883544922 169.48890686035156 C 142.58094787597656 154.48204040527344 149.32583618164062 148.38113403320312 152.1207733154297 170.79237365722656" stroke-width="2.0" fill="none" stroke="rgb(0, 0, 0)" stroke-opacity="1" stroke-linecap="round" stroke-linejoin="round"/>
    <path d="M 124.41123962402344 17.78565788269043 C 142.41258239746094 48.84939193725586 125.16285705566406 35.43844985961914 121.73737335205078 17.519365310668945 C 126.96639251708984 16.565874099731445 125.51567840576172 0.581042468547821 113.60282897949219 37.656005859375" stroke-width="2.0" fill="none" stroke="rgb(0, 0, 0)" stroke-opacity="1" stroke-linecap="round" stroke-linejoin="round"/>
    <path d="M -9.066131591796875 52.5104866027832 C 12.608380317687988 30.173856735229492 17.734691619873047 18.95170783996582 3.8838095664978027 4.334372520446777 C 3.257347583770752 28.546382904052734 -3.49897837638855 30.318906784057617 -9.200373649597168 64.58038330078125" stroke-width="2.0" fill="none" stroke="rgb(0, 0, 0)" stroke-opacity="1" stroke-linecap="round" stroke-linejoin="round"/>
    <path d="M 168.5268096923828 155.84588623046875 C 185.2508087158203 161.8430633544922 171.59754943847656 155.04473876953125 151.02879333496094 145.6695098876953 C 156.3169403076172 125.8127670288086 166.01512145996094 130.7668914794922 166.20748901367188 134.22421264648438 C 167.26419067382812 105.07928466796875 169.99826049804688 120.67969512939453 151.9825439453125 118.620849609375" stroke-width="2.0" fill="none" stroke="rgb(0, 0, 0)" stroke-opacity="1" stroke-linecap="round" stroke-linejoin="round"/>
    <path d="M 64.03836059570312 188.14898681640625 C 17.228160858154297 169.43792724609375 64.03485870361328 168.73895263671875 -5.026614189147949 160.76280212402344 C 27.93830108642578 158.9560089111328 26.711570739746094 164.12718200683594 50.03252029418945 168.18704223632812" stroke-width="2.0" fill="none" stroke="rgb(0, 0, 0)" stroke-opacity="1" stroke-linecap="round" stroke-linejoin="round"/>
    <path d="M 68.34305572509766 33.32521438598633 C 30.879833221435547 40.950469970703125 38.290096282958984 53.56315994262695 48.313499450683594 15.793499946594238" stroke-width="2.0" fill="none" stroke="rgb(0, 0, 0)" stroke-opacity="1" stroke-linecap="round" stroke-linejoin="round"/>
    <path d="M 41.478416442871094 143.1720733642578 C 36.71022033691406 151.19395446777344 36.3488883972168 146.6707000732422 16.781383514404297 151.1998291015625 C 46.17920684814453 145.29440307617188 23.03277015686035 161.59083557128906 49.14826965332031 164.6636962890625" stroke-width="2.0" fill="none" stroke="rgb(0, 0, 0)" stroke-opacity="1" stroke-linecap="round" stroke-linejoin="round"/>
    <path d="M 74.38518524169922 37.30611801147461 C 78.12067413330078 44.919071197509766 91.8402328491211 29.00177764892578 80.39002227783203 31.130800247192383 C 98.54766082763672 23.086349487304688 87.19669342041016 32.84572982788086 66.52535247802734 25.304460525512695 C 117.29817962646484 31.247098922729492 72.56388854980469 35.474098205566406 60.500091552734375 20.322845458984375" stroke-width="2.0" fill="none" stroke="rgb(0, 0, 0)" stroke-opacity="1" stroke-linecap="round" stroke-linejoin="round"/>
    <path d="M 160.8791046142578 30.603796005249023 C 171.9712677001953 21.048622131347656 170.98997497558594 59.3513069152832 169.06137084960938 55.88629913330078 C 156.85836791992188 52.38941955566406 148.43783569335938 68.79571533203125 182.29489135742188 61.5763053894043 C 156.65255737304688 58.237823486328125 146.6606903076172 83.57511138916016 142.71701049804688 51.468868255615234" stroke-width="2.0" fill="none" stroke="rgb(0, 0, 0)" stroke-opacity="1" stroke-linecap="round" stroke-linejoin="round"/>
    <path d="M 75.0527572631836 136.49008178710938 C 53.20360565185547 141.69366455078125 85.60198211669922 115.49252319335938 76.30236053466797 131.37506103515625 C 105.29798126220703 136.00967407226562 110.09651184082031 138.40676879882812 93.73882293701172 125.19335174560547" stroke-width="2.0" fill="none" stroke="rgb(0, 0, 0)" stroke-opacity="1" stroke-linecap="round" stroke-linejoin="round"/>
    <path d="M 74.62830352783203 117.6648941040039 C 47.12937927246094 129.29054260253906 5.42168664932251 108.31585693359375 17.104717254638672 137.36668395996094 C 22.213491439819336 148.55361938476562 10.797789573669434 153.4312744140625 11.362329483032227 125.23037719726562 C 31.01670265197754 134.5492401123047 12.02311897277832 132.85299682617188 34.48521423339844 141.517822265625" stroke-width="2.0" fill="none" stroke="rgb(0, 0, 0)" stroke-opacity="1" stroke-linecap="round" stroke-linejoin="round"/>
    <path d="M 191.55238342285156 54.60506057739258 C 195.22242736816406 55.76177215576172 187.48895263671875 57.71248245239258 182.6458740234375 44.65725326538086 C 190.07977294921875 15.094582557678223 193.3371124267578 -0.3813653886318207 174.45364379882812 4.786190509796143 C 180.49766540527344 1.3953382968902588 185.23533630371094 2.7601258754730225 176.359130859375 22.44240951538086" stroke-width="2.0" fill="none" stroke="rgb(0, 0, 0)" stroke-opacity="1" stroke-linecap="round" stroke-linejoin="round"/>
    <path d="M 71.40118408203125 191.24244689941406 C 64.78692626953125 161.9691162109375 69.1029281616211 169.98330688476562 66.45942687988281 172.48348999023438 C 48.702571868896484 162.0506591796875 75.80406188964844 169.1111297607422 100.55559539794922 159.52813720703125" stroke-width="2.0" fill="none" stroke="rgb(0, 0, 0)" stroke-opacity="1" stroke-linecap="round" stroke-linejoin="round"/>
    <path d="M 168.12841796875 2.281647205352783 C 116.21165466308594 7.810573577880859 106.99820709228516 -6.6319756507873535 126.35540008544922 -7.431587219238281 C 161.6822967529297 -13.299630165100098 127.93949127197266 17.205516815185547 120.57254791259766 -1.057946801185608" stroke-width="2.0" fill="none" stroke="rgb(0, 0, 0)" stroke-opacity="1" stroke-linecap="round" stroke-linejoin="round"/>
    <path d="M 22.989669799804688 108.7667465209961 C 13.000262260437012 123.59795379638672 26.283124923706055 138.55686950683594 14.977967262268066 138.66055297851562" stroke-width="2.0" fill="none" stroke="rgb(0, 0, 0)" stroke-opacity="1" stroke-linecap="round" stroke-linejoin="round"/>
    <path d="M 56.49620056152344 6.637732982635498 C 34.81714630126953 26.173124313354492 10.105589866638184 39.45314407348633 14.548033714294434 33.01153564453125 C 15.371394157409668 46.63714599609375 27.375112533569336 29.356136322021484 14.796777725219727 49.619529724121094 C -11.424345016479492 41.23685836791992 -2.306577205657959 51.40983963012695 -7.245331764221191 24.04840850830078" stroke-width="2.0" fill="none" stroke="rgb(0, 0, 0)" stroke-opacity="1" stroke-linecap="round" stroke-linejoin="round"/>
    <path d="M 79.63265991210938 233.7151641845703 C 79.35706329345703 205.48228454589844 50.19965744018555 204.69049072265625 74.90385437011719 213.23358154296875 C 110.50373840332031 225.2528839111328 92.44332885742188 199.33404541015625 89.11591339111328 186.2778778076172 C 91.7497787475586 153.80908203125 86.07218170166016 168.25631713867188 102.48479461669922 187.9398193359375" stroke-width="2.0" fill="none" stroke="rgb(0, 0, 0)" stroke-opacity="1" stroke-linecap="round" stroke-linejoin="round"/>
    <path d="M 180.82875061035156 188.87484741210938 C 189.37767028808594 203.6877899169922 181.5976104736328 204.15301513671875 184.85110473632812 199.05079650878906" stroke-width="2.0" fill="none" stroke="rgb(0, 0, 0)" stroke-opacity="1" stroke-linecap="round" stroke-linejoin="round"/>
    <path d="M 119.28447723388672 194.83041381835938 C 141.83070373535156 163.4424285888672 143.14100646972656 178.7405548095703 110.40784454345703 179.3843536376953 C 126.10234069824219 242.16941833496094 129.90557861328125 217.99765014648438 87.37095642089844 206.68673706054688 C 105.2468490600586 211.9412078857422 84.75151824951172 200.06710815429688 114.09121704101562 212.65499877929688" stroke-width="2.0" fill="none" stroke="rgb(0, 0, 0)" stroke-opacity="1" stroke-linecap="round" stroke-linejoin="round"/>
    <path d="M 95.3752212524414 158.60906982421875 C 93.9732437133789 146.26893615722656 81.74482727050781 146.29205322265625 85.1247787475586 148.7787322998047 C 86.12393188476562 144.51695251464844 80.25587463378906 138.01922607421875 88.5116195678711 155.48300170898438 C 70.46991729736328 155.35305786132812 56.70805740356445 162.09490966796875 87.92727661132812 156.4239959716797" stroke-width="2.0" fill="none" stroke="rgb(0, 0, 0)" stroke-opacity="1" stroke-linecap="round" stroke-linejoin="round"/>
    <path d="M 110.79087829589844 7.543874263763428 C 107.63104248046875 31.36317253112793 101.62777709960938 43.30293655395508 59.06725311279297 50.377872467041016" stroke-width="2.0" fill="none" stroke="rgb(0, 0, 0)" stroke-opacity="1" stroke-linecap="round" stroke-linejoin="round"/>
    <path d="M 5.914722442626953 131.37100219726562 C 24.481910705566406 145.5384979248047 -0.1610453724861145 143.95419311523438 -13.203847885131836 136.99679565429688 C 23.168495178222656 133.72109985351562 45.24002456665039 143.2193603515625 28.97391128540039 145.26513671875 C -5.811242580413818 136.514892578125 8.803926467895508 143.67320251464844 7.312020301818848 103.71736907958984" stroke-width="2.0" fill="none" stroke="rgb(0, 0, 0)" stroke-opacity="1" stroke-linecap="round" stroke-linejoin="round"/>
    <path d="M 63.8276252746582 116.60130310058594 C 38.00830078125 127.73359680175781 12.108110427856445 117.76695251464844 16.41088104248047 119.22179412841797 C 11.374210357666016 136.3439178466797 7.896473407745361 138.99118041992188 30.440284729003906 107.41146087646484 C 32.744773864746094 108.75159454345703 25.23956871032715 112.98236846923828 59.896095275878906 116.0301742553711" stroke-width="2.0" fill="none" stroke="rgb(0, 0, 0)" stroke-opacity="1" stroke-linecap="round" stroke-linejoin="round"/>
    <path d="M 183.15237426757812 53.94715881347656 C 188.47830200195312 46.519527435302734 187.8131866455078 31.885772705078125 184.91543579101562 50.04136657714844 C 197.270263671875 58.44485092163086 198.27691650390625 -0.8640334010124207 188.66250610351562 53.583309173583984 C 216.28346252441406 62.460445404052734 211.9997100830078 33.181243896484375 217.45863342285156 6.6377692222595215" stroke-width="2.0" fill="none" stroke="rgb(0, 0, 0)" stroke-opacity="1" stroke-linecap="round" stroke-linejoin="round"/>
    <path d="M 144.19171142578125 156.47900390625 C 175.4011688232422 167.06431579589844 204.17393493652344 159.3275146484375 183.28097534179688 152.18829345703125 C 219.01544189453125 171.27914428710938 163.33148193359375 170.0563507080078 202.4811248779297 178.86309814453125" stroke-width="2.0" fill="none" stroke="rgb(0, 0, 0)" stroke-opacity="1" stroke-linecap="round" stroke-linejoin="round"/>
    <path d="M 207.8281707763672 64.82771301269531 C 186.45333862304688 64.29515075683594 210.2286834716797 59.56502151489258 159.91175842285156 78.86276245117188 C 171.7859344482422 58.38229751586914 197.31214904785156 66.37848663330078 161.97837829589844 66.03394317626953 C 166.92616271972656 57.85606002807617 185.95745849609375 34.319461822509766 183.08409118652344 5.366996765136719" stroke-width="2.0" fill="none" stroke="rgb(0, 0, 0)" stroke-opacity="1" stroke-linecap="round" stroke-linejoin="round"/>
    <path d="M 166.98626708984375 118.3943099975586 C 148.9090576171875 94.57220458984375 158.5220184326172 104.93086242675781 157.11680603027344 105.4170913696289 C 172.60548400878906 101.15348052978516 165.41102600097656 109.05072021484375 137.5597381591797 82.27005004882812 C 163.8693389892578 79.30106353759766 177.83212280273438 114.01171875 179.3219757080078 120.32886505126953" stroke-width="2.0" fill="none" stroke="rgb(0, 0, 0)" stroke-opacity="1" stroke-linecap="round" stroke-linejoin="round"/>
    <path d="M 142.15493774414062 207.7018585205078 C 132.78823852539062 173.94290161132812 126.91043090820312 201.26956176757812 168.5519256591797 182.54429626464844" stroke-width="2.0" fill="none" stroke="rgb(0, 0, 0)" stroke-opacity="1" stroke-linecap="round" stroke-linejoin="round"/>
    <path d="M 227.66452026367188 138.659912109375 C 214.57666015625 137.20213317871094 220.236328125 135.4425506591797 177.7289276123047 129.17547607421875 C 194.31683349609375 114.57427978515625 208.55853271484375 125.82733917236328 219.339599609375 101.20527648925781" stroke-width="2.0" fill="none" stroke="rgb(0, 0, 0)" stroke-opacity="1" stroke-linecap="round" stroke-linejoin="round"/>
    <path d="M 189.98388671875 58.96809387207031 C 219.53338623046875 59.57548522949219 202.7647247314453 55.41171646118164 195.99267578125 47.81156539916992 C 199.50498962402344 53.976661682128906 171.02349853515625 71.77772521972656 207.8148193359375 56.68882369995117" stroke-width="2.0" fill="none" stroke="rgb(0, 0, 0)" stroke-opacity="1" stroke-linecap="round" stroke-linejoin="round"/>
    <path d="M 130.19927978515625 141.23011779785156 C 104.79346466064453 162.8704376220703 150.92599487304688 145.4987030029297 128.5937042236328 162.3045196533203" stroke-width="2.0" fill="none" stroke="rgb(0, 0, 0)" stroke-opacity="1" stroke-linecap="round" stroke-linejoin="round"/>
    <path d="M 214.64483642578125 85.9401626586914 C 226.7922821044922 86.65126037597656 215.06483459472656 79.42927551269531 228.73226928710938 42.31178665161133 C 247.71408081054688 55.585628509521484 243.53936767578125 63.188148498535156 251.4650421142578 64.28202819824219" stroke-width="2.0" fill="none" stroke="rgb(0, 0, 0)" stroke-opacity="1" stroke-linecap="round" stroke-linejoin="round"/>
    <path d="M 113.88011169433594 103.70944213867188 C 138.49676513671875 97.04901885986328 123.92897033691406 93.7349853515625 129.2149200439453 96.70914459228516 C 169.74374389648438 103.11335754394531 165.39195251464844 99.27394104003906 118.8490219116211 87.63706970214844 C 127.50381469726562 93.04203796386719 150.4207763671875 94.84442138671875 110.1482162475586 84.69334411621094" stroke-width="2.0" fill="none" stroke="rgb(0, 0, 0)" stroke-opacity="1" stroke-linecap="round" stroke-linejoin="round"/>
    <path d="M 135.95884704589844 20.240345001220703 C 134.82498168945312 11.273709297180176 141.46322631835938 7.807123184204102 154.75851440429688 34.41869354248047 C 140.50692749023438 28.579540252685547 159.10023498535156 36.12904739379883 164.4673614501953 46.7158088684082 C 161.39761352539062 41.32526397705078 155.6289825439453 27.023019790649414 154.3520965576172 21.048131942749023" stroke-width="2.0" fill="none" stroke="rgb(0, 0, 0)" stroke-opacity="1" stroke-linecap="round" stroke-linejoin="round"/>
    <path d="M 73.26093292236328 191.1302947998047 C 47.54155731201172 195.49302673339844 80.3310775756836 199.11563110351562 55.15768814086914 168.80625915527344" stroke-width="2.0" fill="none" stroke="rgb(0, 0, 0)" stroke-opacity="1" stroke-linecap="round" stroke-linejoin="round"/>
    <path d="M 48.38584518432617 107.91685485839844 C 43.450443267822266 109.67572021484375 62.8495979309082 109.74031829833984 85.87760162353516 121.85238647460938" stroke-width="2.0" fill="none" stroke="rgb(0, 0, 0)" stroke-opacity="1" stroke-linecap="round" stroke-linejoin="round"/>
    <path d="M 92.63353729248047 81.0147476196289 C 88.5794677734375 95.80030822753906 92.15669250488281 111.96746826171875 68.9198989868164 67.51786804199219" stroke-width="2.0" fill="none" stroke="rgb(0, 0, 0)" stroke-opacity="1" stroke-linecap="round" stroke-linejoin="round"/>
    <path d="M 142.0751190185547 228.0232696533203 C 181.06541442871094 224.88795471191406 154.7865753173828 222.67918395996094 136.59274291992188 218.91053771972656 C 167.58724975585938 217.6593780517578 142.38853454589844 188.3739471435547 160.34178161621094 214.300048828125" stroke-width="2.0" fill="none" stroke="rgb(0, 0, 0)" stroke-opacity="1" stroke-linecap="round" stroke-linejoin="round"/>
    <path d="M -2.5752060413360596 82.0887680053711 C 6.830198764801025 97.20365142822266 2.9387614727020264 95.22274780273438 -27.50861930847168 91.10833740234375 C -20.066984176635742 103.85994720458984 -10.227063179016113 107.4653091430664 -6.700259208679199 103.71488952636719 C -12.235414505004883 111.80314636230469 -18.080678939819336 110.24000549316406 -28.982770919799805 100.50704193115234" stroke-width="2.0" fill="none" stroke="rgb(0, 0, 0)" stroke-opacity="1" stroke-linecap="round" stroke-linejoin="round"/>
    <path d="M 34.30512237548828 196.2888641357422 C 53.02039337158203 213.92042541503906 73.38046264648438 215.05482482910156 73.94818878173828 242.9459228515625 C 98.31739044189453 225.35304260253906 77.92302703857422 229.60707092285156 67.28236389160156 228.74139404296875" stroke-width="2.0" fill="none" stroke="rgb(0, 0, 0)" stroke-opacity="1" stroke-linecap="round" stroke-linejoin="round"/>
    <path d="M 141.08251953125 194.97531127929688 C 165.94984436035156 193.0048370361328 167.29612731933594 180.57655334472656 158.76947021484375 202.20733642578125 C 152.2596435546875 194.76954650878906 137.4047393798828 225.60012817382812 130.86241149902344 194.19410705566406" stroke-width="2.0" fill="none" stroke="rgb(0, 0, 0)" stroke-opacity="1" stroke-linecap="round" stroke-linejoin="round"/>
    <path d="M 220.0727996826172 127.96697235107422 C 228.8076629638672 144.55517578125 237.42044067382812 182.7346954345703 234.11439514160156 163.7454376220703 C 221.86399841308594 123.0499267578125 213.00009155273438 93.71692657470703 224.7440185546875 84.67538452148438" stroke-width="2.0" fill="none" stroke="rgb(0, 0, 0)" stroke-opacity="1" stroke-linecap="round" stroke-linejoin="round"/>
    <path d="M 170.89073181152344 6.818845748901367 C 122.24765014648438 5.867735385894775 133.2220001220703 2.3324038982391357 151.2035675048828 27.50267791748047 C 120.22396850585938 10.514535903930664 117.33836364746094 -0.985931396484375 160.90724182128906 -6.951829433441162 C 124.57846069335938 6.979861736297607 145.37969970703125 11.249679565429688 114.18424987792969 -1.9788012504577637" stroke-width="2.0" fill="none" stroke="rgb(0, 0, 0)" stroke-opacity="1" stroke-linecap="round" stroke-linejoin="round"/>
    <path d="M 227.92750549316406 188.21385192871094 C 227.14752197265625 214.27825927734375 221.3606719970703 229.07789611816406 234.6200714111328 224.8562469482422 C 241.24978637695312 231.64422607421875 239.0755157470703 223.4187774658203 250.077880859375 230.79000854492188 C 260.7751159667969 226.19219970703125 271.3691101074219 219.0608673095703 267.6792907714844 221.2594757080078" stroke-width="2.0" fill="none" stroke="rgb(0, 0, 0)" stroke-opacity="1" stroke-linecap="round" stroke-linejoin="round"/>
    <path d="M 180.03025817871094 136.54458618164062 C 243.52552795410156 139.32290649414062 204.53964233398438 133.6659393310547 164.04502868652344 143.72390747070312 C 192.9015655517578 134.84532165527344 172.54547119140625 133.47178649902344 197.3745880126953 153.3865203857422" stroke-width="2.0" fill="none" stroke="rgb(0, 0, 0)" stroke-opacity="1" stroke-linecap="round" stroke-linejoin="round"/>
    <path d="M 6.938891410827637 52.72452926635742 C 19.14659309387207 58.120689392089844 31.287010192871094 66.60052490234375 34.67851638793945 71.32804107666016 C -4.873659133911133 52.5999755859375 25.451337814331055 62.20941162109375 6.1438093185424805 75.62713623046875 C -12.874395370483398 83.58074951171875 -17.778663635253906 86.0679931640625 -23.011716842651367 81.55705261230469" stroke-width="2.0" fill="none" stroke="rgb(0, 0, 0)" stroke-opacity="1" stroke-linecap="round" stroke-linejoin="round"/>
    <path d="M 2.3931543827056885 96.4011001586914 C 1.49826180934906 141.32534790039062 8.147727012634277 138.92152404785156 -13.66169261932373 120.50030517578125" stroke-width="2.0" fill="none" stroke="rgb(0, 0, 0)" stroke-opacity="1" stroke-linecap="round" stroke-linejoin="round"/>
    <path d="M 51.729923248291016 81.46297454833984 C 81.27819061279297 94.5467529296875 75.2063217163086 117.99011993408203 77.31268310546875 98.20413970947266 C 87.63053131103516 100.33364868164062 68.27040100097656 79.22002410888672 72.09514617919922 96.44058227539062 C 78.12821197509766 86.24382019042969 56.63030242919922 83.3934097290039 50.214229583740234 75.51517486572266" stroke-width="2.0" fill="none" stroke="rgb(0, 0, 0)" stroke-opacity="1" stroke-linecap="round" stroke-linejoin="round"/>
    <path d="M 205.90919494628906 205.40496826171875 C 193.7307586669922 207.38156127929688 207.88229370117188 207.27548217773438 197.21681213378906 189.51724243164062 C 179.1478729248047 216.66867065429688 158.93353271484375 199.1046905517578 203.10313415527344 201.6676483154297" stroke-width="2.0" fill="none" stroke="rgb(0, 0, 0)" stroke-opacity="1" stroke-linecap="round" stroke-linejoin="round"/>
    <path d="M 183.16842651367188 100.38337707519531 C 208.20889282226562 84.97232055664062 201.80343627929688 90.19507598876953 175.19808959960938 95.35436248779297" stroke-width="2.0" fill="none" stroke="rgb(0, 0, 0)" stroke-opacity="1" stroke-linecap="round" stroke-linejoin="round"/>
    <path d="M 187.8892364501953 61.68004608154297 C 204.25050354003906 37.460426330566406 189.70880126953125 32.350067138671875 190.67007446289062 58.10266876220703" stroke-width="2.0" fill="none" stroke="rgb(0, 0, 0)" stroke-opacity="1" stroke-linecap="round" stroke-linejoin="round"/>
    <path d="M 191.1363983154297 91.37010192871094 C 152.9738006591797 80.3115005493164 151.2764892578125 79.3103256225586 176.0793914794922 85.87657928466797" stroke-width="2.0" fill="none" stroke="rgb(0, 0, 0)" stroke-opacity="1" stroke-linecap="round" stroke-linejoin="round"/>
    <path d="M 92.32208251953125 119.25164031982422 C 77.66694641113281 110.74549102783203 83.05256652832031 95.22096252441406 57.853816986083984 81.20330810546875" stroke-width="2.0" fill="none" stroke="rgb(0, 0, 0)" stroke-opacity="1" stroke-linecap="round" stroke-linejoin="round"/>
    <path d="M 140.8831329345703 207.46279907226562 C 163.26455688476562 216.63949584960938 158.24331665039062 215.76625061035156 128.41925048828125 204.18202209472656 C 119.10277557373047 215.46432495117188 147.8845672607422 206.76344299316406 129.12025451660156 228.68226623535156" stroke-width="2.0" fill="none" stroke="rgb(0, 0, 0)" stroke-opacity="1" stroke-linecap="round" stroke-linejoin="round"/>
    <path d="M 171.39483642578125 118.41671752929688 C 159.13076782226562 122.75580596923828 153.6416473388672 148.86387634277344 150.2834930419922 139.79295349121094 C 158.91802978515625 129.39161682128906 173.56103515625 135.10157775878906 175.93112182617188 116.24395751953125 C 156.65963745117188 121.51420593261719 160.49472045898438 130.7312774658203 137.84303283691406 135.86318969726562" stroke-width="2.0" fill="none" stroke="rgb(0, 0, 0)" stroke-opacity="1" stroke-linecap="round" stroke-linejoin="round"/>
    <path d="M 113.9927749633789 157.36512756347656 C 100.88485717773438 153.01214599609375 82.79450988769531 150.53439331054688 83.85875701904297 139.79190063476562" stroke-width="2.0" fill="none" stroke="rgb(0, 0, 0)" stroke-opacity="1" stroke-linecap="round" stroke-linejoin="round"/>
    <path d="M 114.96956634521484 108.36731719970703 C 134.45401000976562 115.7447280883789 135.4761199951172 114.55535125732422 146.3083953857422 126.09483337402344" stroke-width="2.0" fill="none" stroke="rgb(0, 0, 0)" stroke-opacity="1" stroke-linecap="round" stroke-linejoin="round"/>
    <path d="M 148.10635375976562 43.61518096923828 C 139.1702117919922 27.575328826904297 163.10211181640625 45.495059967041016 151.27793884277344 49.22364807128906 C 153.23753356933594 42.2950553894043 178.6787109375 59.09395217895508 157.22866821289062 72.71951293945312 C 165.44593811035156 23.806964874267578 125.38735961914062 38.219791412353516 147.77870178222656 26.83349609375" stroke-width="2.0" fill="none" stroke="rgb(0, 0, 0)" stroke-opacity="1" stroke-linecap="round" stroke-linejoin="round"/>
    <path d="M 71.15862274169922 12.60602855682373 C 113.9608383178711 18.751726150512695 124.62151336669922 25.16292953491211 92.3121337890625 21.39906120300293 C 83.4664535522461 22.98442840576172 62.25505447387695 13.608715057373047 103.03871154785156 28.866544723510742 C 94.98287963867188 38.737648010253906 60.41233444213867 41.22058868408203 82.71678161621094 37.99992752075195" stroke-width="2.0" fill="none" stroke="rgb(0, 0, 0)" stroke-opacity="1" stroke-linecap="round" stroke-linejoin="round"/>
    <path d="M 120.40547180175781 54.280853271484375 C 143.83493041992188 57.47593307495117 134.88677978515625 59.92097854614258 127.8038101196289 44.95173645019531 C 180.22320556640625 53.24202346801758 148.9942626953125 47.41486740112305 149.58621215820312 56.406368255615234 C 167.57577514648438 37.84954833984375 147.8603057861328 41.179378509521484 142.14022827148438 33.103824615478516" stroke-width="2.0" fill="none" stroke="rgb(0, 0, 0)" stroke-opacity="1" stroke-linecap="round" stroke-linejoin="round"/>
    <path d="M 60.470458984375 76.94386291503906 C 77.3626937866211 51.044166564941406 78.41007232666016 64.41542053222656 65.97166442871094 68.33728790283203" stroke-width="2.0" fill="none" stroke="rgb(0, 0, 0)" stroke-opacity="1" stroke-linecap="round" stroke-linejoin="round"/>
    <path d="M 58.224754333496094 74.75347900390625 C 63.21783447265625 84.867431640625 68.5232162475586 63.13359069824219 68.81098937988281 63.53078842163086 C 32.14588165283203 71.7144546508789 52.68637466430664 100.37197875976562 26.214502334594727 55.84031677246094 C 40.61667251586914 49.51772689819336 63.95462417602539 37.51886749267578 31.19930648803711 55.523216247558594" stroke-width="2.0" fill="none" stroke="rgb(0, 0, 0)" stroke-opacity="1" stroke-linecap="round" stroke-linejoin="round"/>
    <path d="M 112.54405212402344 22.367475509643555 C 89.20314025878906 68.67671966552734 105.68710327148438 53.16749572753906 79.45600891113281 55.40459060668945" stroke-width="2.0" fill="none" stroke="rgb(0, 0, 0)" stroke-opacity="1" stroke-linecap="round" stroke-linejoin="round"/>
    <path d="M 51.116973876953125 109.221923828125 C 70.73307037353516 83.24103546142578 70.99578857421875 107.94147491455078 55.4294548034668 107.13091278076172 C 78.40534973144531 97.8158950805664 76.63355255126953 93.80217742919922 53.31196212768555 100.53348541259766 C 61.50022506713867 95.5191879272461 58.64091491699219 69.76241302490234 61.968040466308594 94.25460815429688" stroke-width="2.0" fill="none" stroke="rgb(0, 0, 0)" stroke-opacity="1" stroke-linecap="round" stroke-linejoin="round"/>
    <path d="M 162.06947326660156 195.4039764404297 C 174.97068786621094 180.53749084472656 166.9186553955078 191.9598388671875 158.99481201171875 205.97512817382812" stroke-width="2.0" fill="none" stroke="rgb(0, 0, 0)" stroke-opacity="1" stroke-linecap="round" stroke-linejoin="round"/>
    <path d="M 138.4065399169922 25.046266555786133 C 126.45223236083984 5.624286651611328 130.95217895507812 14.96405029296875 153.46337890625 15.810946464538574 C 113.65665435791016 12.788153648376465 114.17401885986328 -1.3231924772262573 175.7628631591797 -6.160146236419678" stroke-width="2.0" fill="none" stroke="rgb(0, 0, 0)" stroke-opacity="1" stroke-linecap="round" stroke-linejoin="round"/>
    <path d="M 72.52411651611328 106.67669677734375 C 62.07373046875 109.12348175048828 55.54715347290039 107.57186126708984 70.25435638427734 107.32188415527344 C 69.92241668701172 90.44452667236328 53.76145935058594 103.18211364746094 63.15613555908203 97.67118835449219 C 85.30638122558594 105.82858276367188 65.7715835571289 59.65839385986328 69.18839263916016 82.76194763183594" stroke-width="2.0" fill="none" stroke="rgb(0, 0, 0)" stroke-opacity="1" stroke-linecap="round" stroke-linejoin="round"/>
    <path d="M 234.08438110351562 128.36537170410156 C 225.22950744628906 144.22695922851562 214.5869140625 147.4556884765625 224.55284118652344 188.888671875" stroke-width="2.0" fill="none" stroke="rgb(0, 0, 0)" stroke-opacity="1" stroke-linecap="round" stroke-linejoin="round"/>
    <path d="M 106.45145416259766 163.0721893310547 C 91.71839141845703 148.98355102539062 114.12385559082031 155.54678344726562 99.01113891601562 168.3860321044922 C 107.87857055664062 153.78453063964844 109.45370483398438 156.42828369140625 65.34730529785156 166.07044982910156" stroke-width="2.0" fill="none" stroke="rgb(0, 0, 0)" stroke-opacity="1" stroke-linecap="round" stroke-linejoin="round"/>
    <path d="M 188.75234985351562 22.525354385375977 C 175.4092254638672 59.40857696533203 194.43682861328125 60.35752487182617 196.29205322265625 36.01259231567383 C 202.83888244628906 51.42103958129883 180.92779541015625 68.0689697265625 211.04649353027344 42.7740592956543" stroke-width="2.0" fill="none" stroke="rgb(0, 0, 0)" stroke-opacity="1" stroke-linecap="round" stroke-linejoin="round"/>
    <path d="M 14.839438438415527 9.921124458312988 C 15.73547649383545 18.9794979095459 19.12563705444336 8.889327049255371 4.700292587280273 48.46430969238281 C 19.618337631225586 26.82579231262207 21.904144287109375 21.063570022583008 12.383156776428223 4.51214599609375 C 27.619705200195312 -0.19918140769004822 39.63383483886719 10.292342185974121 66.39129638671875 -4.2303147315979" stroke-width="2.0" fill="none" stroke="rgb(0, 0, 0)" stroke-opacity="1" stroke-linecap="round" stroke-linejoin="round"/>
    <path d="M 198.05108642578125 83.27980041503906 C 160.95848083496094 71.54931640625 192.04026794433594 82.20976257324219 206.68453979492188 88.68085479736328 C 207.68157958984375 81.00821685791016 208.92970275878906 97.26827239990234 181.5078125 102.38843536376953" stroke-width="2.0" fill="none" stroke="rgb(0, 0, 0)" stroke-opacity="1" stroke-linecap="round" stroke-linejoin="round"/>
    <path d="M 172.62582397460938 149.4568328857422 C 150.79930114746094 146.98194885253906 146.2919921875 137.97474670410156 178.9224395751953 159.03260803222656 C 165.4416046142578 154.7386474609375 118.4281005859375 147.11973571777344 125.63330078125 146.7801513671875" stroke-width="2.0" fill="none" stroke="rgb(0, 0, 0)" stroke-opacity="1" stroke-linecap="round" stroke-linejoin="round"/>
    <path d="M 65.81041717529297 209.22235107421875 C 134.5387420654297 212.85238647460938 100.0126953125 230.30242919921875 88.11048889160156 214.10386657714844 C 44.93366622924805 213.95623779296875 24.773216247558594 194.68862915039062 90.86773681640625 207.31297302246094 C 82.05034637451172 202.38043212890625 87.4766845703125 203.02882385253906 131.98480224609375 228.97235107421875" stroke-width="2.0" fill="none" stroke="rgb(0, 0, 0)" stroke-opacity="1" stroke-linecap="round" stroke-linejoin="round"/>
    <path d="M -6.8792805671691895 119.4777603149414 C -9.732278823852539 86.63728332519531 -6.046176433563232 102.84123992919922 9.097731590270996 104.52033996582031 C -7.484662055969238 124.9260025024414 -6.467726230621338 120.64048767089844 -8.489060401916504 131.1012725830078" stroke-width="2.0" fill="none" stroke="rgb(0, 0, 0)" stroke-opacity="1" stroke-linecap="round" stroke-linejoin="round"/>
    <path d="M 60.96289825439453 105.78318786621094 C 104.49140167236328 127.01930236816406 91.65347290039062 108.52748107910156 75.39476776123047 132.07275390625 C 81.42536163330078 121.54228210449219 85.36314392089844 128.51657104492188 91.25621795654297 115.48596954345703" stroke-width="2.0" fill="none" stroke="rgb(0, 0, 0)" stroke-opacity="1" stroke-linecap="round" stroke-linejoin="round"/>
    <path d="M 112.94340515136719 138.86175537109375 C 142.67372131347656 123.24127960205078 122.39582824707031 153.59133911132812 138.3365478515625 124.13475036621094 C 142.99176025390625 117.25677490234375 150.07064819335938 136.05691528320312 109.69291687011719 127.94733428955078" stroke-width="2.0" fill="none" stroke="rgb(0, 0, 0)" stroke-opacity="1" stroke-linecap="round" stroke-linejoin="round"/>
    <path d="M 97.16201782226562 109.506591796875 C 76.81925964355469 79.48511505126953 67.293212890625 76.70402526855469 106.24485778808594 56.68733215332031" stroke-width="2.0" fill="none" stroke="rgb(0, 0, 0)" stroke-opacity="1" stroke-linecap="round" stroke-linejoin="round"/>
    <path d="M 63.78807830810547 3.2121119499206543 C 83.33842468261719 10.268254280090332 107.8998794555664 6.960874557495117 104.7508544921875 -2.0527610778808594 C 105.32814025878906 1.0272495746612549 96.02549743652344 5.469061374664307 60.15802001953125 -2.562755584716797" stroke-width="2.0" fill="none" stroke="rgb(0, 0, 0)" stroke-opacity="1" stroke-linecap="round" stroke-linejoin="round"/>
    <path d="M 63.73179626464844 56.149078369140625 C 70.56360626220703 38.616390228271484 92.41655731201172 35.21811294555664 74.30722045898438 40.365394592285156 C 90.21243286132812 22.35271644592285 77.48688507080078 28.084447860717773 51.55363082885742 30.734365463256836" stroke-width="2.0" fill="none" stroke="rgb(0, 0, 0)" stroke-opacity="1" stroke-linecap="round" stroke-linejoin="round"/>
    <path d="M 172.68270874023438 198.21311950683594 C 182.757568359375 177.6254425048828 164.62744140625 179.6741485595703 160.34164428710938 161.63706970214844 C 178.6585693359375 172.04539489746094 150.9640350341797 167.08438110351562 197.65489196777344 164.23477172851562" stroke-width="2.0" fill="none" stroke="rgb(0, 0, 0)" stroke-opacity="1" stroke-linecap="round" stroke-linejoin="round"/>
    <path d="M -10.191275596618652 145.97018432617188 C -3.340914487838745 146.58944702148438 13.091007232666016 158.9556884765625 -7.986016750335693 153.05027770996094" stroke-width="2.0" fill="none" stroke="rgb(0, 0, 0)" stroke-opacity="1" stroke-linecap="round" stroke-linejoin="round"/>
    <path d="M 174.81689453125 75.9417724609375 C 166.22775268554688 85.5425796508789 199.59320068359375 84.49024200439453 165.4533233642578 89.44766235351562" stroke-width="2.0" fill="none" stroke="rgb(0, 0, 0)" stroke-opacity="1" stroke-linecap="round" stroke-linejoin="round"/>
    <path d="M -19.610660552978516 70.98383331298828 C 14.772231101989746 62.784854888916016 30.98568344116211 69.88922119140625 -5.3408918380737305 81.3340835571289" stroke-width="2.0" fill="none" stroke="rgb(0, 0, 0)" stroke-opacity="1" stroke-linecap="round" stroke-linejoin="round"/>
    <path d="M 142.7244873046875 168.37356567382812 C 138.2683868408203 152.838134765625 121.7251968383789 147.14581298828125 142.17347717285156 149.99310302734375 C 128.65992736816406 135.1889190673828 130.7815399169922 145.4163818359375 141.18104553222656 131.07110595703125 C 135.45887756347656 123.22139739990234 153.69015502929688 126.35234069824219 117.2523422241211 109.59822082519531" stroke-width="2.0" fill="none" stroke="rgb(0, 0, 0)" stroke-opacity="1" stroke-linecap="round" stroke-linejoin="round"/>
    <path d="M 126.02845001220703 74.0035171508789 C 130.64645385742188 64.12925720214844 128.13319396972656 53.687042236328125 128.93533325195312 65.49337005615234 C 120.77709197998047 74.30201721191406 114.90062713623047 58.66122817993164 154.7384490966797 74.70072937011719 C 151.65696716308594 67.1805191040039 142.42660522460938 59.60438537597656 126.26177215576172 61.1375732421875" stroke-width="2.0" fill="none" stroke="rgb(0, 0, 0)" stroke-opacity="1" stroke-linecap="round" stroke-linejoin="round"/>
    <path d="M 125.30004119873047 204.43333435058594 C 135.18101501464844 194.69590759277344 128.04165649414062 171.11697387695312 124.92530059814453 192.45782470703125 C 133.85870361328125 170.57420349121094 139.2570037841797 189.27777099609375 134.7056121826172 176.10256958007812" stroke-width="2.0" fill="none" stroke="rgb(0, 0, 0)" stroke-opacity="1" stroke-linecap="round" stroke-linejoin="round"/>
    <path d="M 203.69569396972656 218.32687377929688 C 161.3242950439453 217.0080108642578 213.23951721191406 216.71876525878906 187.8207244873047 212.122802734375 C 198.04791259765625 234.07394409179688 184.43446350097656 224.73512268066406 132.6575164794922 212.41415405273438" stroke-width="2.0" fill="none" stroke="rgb(0, 0, 0)" stroke-opacity="1" stroke-linecap="round" stroke-linejoin="round"/>
    <path d="M 126.94609832763672 103.640380859375 C 132.43751525878906 98.12052917480469 123.82349395751953 101.09690856933594 131.44912719726562 108.68327331542969 C 120.82852172851562 102.73269653320312 126.35430908203125 105.08568572998047 156.61212158203125 105.47425842285156" stroke-width="2.0" fill="none" stroke="rgb(0, 0, 0)" stroke-opacity="1" stroke-linecap="round" stroke-linejoin="round"/>
    <path d="M 120.22381591796875 147.3371124267578 C 128.08226013183594 128.40069580078125 121.75830078125 151.34449768066406 134.4166717529297 142.5128631591797 C 112.00704193115234 148.9188995361328 150.65782165527344 139.94625854492188 162.89764404296875 133.0333251953125 C 155.66310119628906 158.10482788085938 165.10499572753906 158.8184814453125 142.72132873535156 142.4511260986328" stroke-width="2.0" fill="none" stroke="rgb(0, 0, 0)" stroke-opacity="1" stroke-linecap="round" stroke-linejoin="round"/>
    <path d="M 216.01046752929688 -8.485851287841797 C 213.64027404785156 0.7650346755981445 208.09405517578125 0.2697140872478485 229.82205200195312 -4.332686901092529 C 208.90255737304688 20.914199829101562 229.1051483154297 42.89091873168945 217.19532775878906 72.37605285644531" stroke-width="2.0" fill="none" stroke="rgb(0, 0, 0)" stroke-opacity="1" stroke-linecap="round" stroke-linejoin="round"/>
    <path d="M 45.817935943603516 79.80010986328125 C 6.5848517417907715 86.69718170166016 45.319889068603516 84.40499114990234 46.616329193115234 75.29182434082031 C 32.6568717956543 60.62948989868164 15.720776557922363 62.28386306762695 24.114501953125 44.03544998168945 C 27.67328643798828 35.022850036621094 -7.364917278289795 54.952152252197266 2.0550546646118164 28.604589462280273" stroke-width="2.0" fill="none" stroke="rgb(0, 0, 0)" stroke-opacity="1" stroke-linecap="round" stroke-linejoin="round"/>
    <path d="M 215.0619354248047 155.90187072753906 C 225.738525390625 132.63763427734375 223.66937255859375 150.15771484375 222.24452209472656 150.9350128173828 C 228.65252685546875 142.5122528076172 237.89630126953125 139.83023071289062 236.49282836914062 103.33769989013672 C 210.99627685546875 63.45960235595703 233.39645385742188 90.50750732421875 204.8131866455078 125.84143829345703" stroke-width="2.0" fill="none" stroke="rgb(0, 0, 0)" stroke-opacity="1" stroke-linecap="round" stroke-linejoin="round"/>
    <path d="M 190.0848846435547 205.50648498535156 C 139.669189453125 215.77813720703125 175.2442169189453 212.0454864501953 192.47732543945312 228.95101928710938 C 186.96026611328125 221.77679443359375 168.6901092529297 192.69937133789062 188.2974090576172 205.9409637451172 C 177.67079162597656 159.84616088867188 180.98255920410156 154.06825256347656 162.31988525390625 201.17495727539062" stroke-width="2.0" fill="none" stroke="rgb(0, 0, 0)" stroke-opacity="1" stroke-linecap="round" stroke-linejoin="round"/>
    <path d="M -7.594003200531006 105.7041244506836 C -8.812315940856934 77.7466812133789 -5.371438026428223 79.31664276123047 -8.949748992919922 76.57642364501953 C 1.4594357013702393 90.27949523925781 15.513788223266602 75.44803619384766 -3.944046974182129 103.10550689697266" stroke-width="2.0" fill="none" stroke="rgb(0, 0, 0)" stroke-opacity="1" stroke-linecap="round" stroke-linejoin="round"/>
    <path d="M 81.89878845214844 182.38119506835938 C 62.05681228637695 163.94717407226562 94.26612854003906 181.706298828125 111.1633529663086 194.88487243652344 C 102.3524169921875 165.37635803222656 103.54657745361328 169.13941955566406 123.66675567626953 200.2233123779297" stroke-width="2.0" fill="none" stroke="rgb(0, 0, 0)" stroke-opacity="1" stroke-linecap="round" stroke-linejoin="round"/>
    <path d="M -6.246120929718018 235.84715270996094 C -4.27247428894043 228.8879852294922 -10.007022857666016 216.78131103515625 -5.799276351928711 219.1287078857422 C -1.9555586576461792 190.45101928710938 -1.0816527605056763 191.60032653808594 -2.0650739669799805 212.57745361328125 C 2.9143588542938232 201.58612060546875 5.754033088684082 171.71112060546875 -2.3643741607666016 160.90274047851562" stroke-width="2.0" fill="none" stroke="rgb(0, 0, 0)" stroke-opacity="1" stroke-linecap="round" stroke-linejoin="round"/>
    <path d="M 54.65139389038086 98.87831115722656 C 27.815383911132812 93.37096405029297 34.435428619384766 97.04744720458984 53.91213607788086 94.1114501953125" stroke-width="2.0" fill="none" stroke="rgb(0, 0, 0)" stroke-opacity="1" stroke-linecap="round" stroke-linejoin="round"/>
    <path d="M 49.44949722290039 159.82290649414062 C 52.3792839050293 177.67376708984375 44.108768463134766 183.06329345703125 51.43440628051758 158.60012817382812 C 64.05298614501953 154.75428771972656 50.45936965942383 161.4633331298828 42.95553970336914 156.6473846435547 C 53.60917663574219 158.0750732421875 53.423831939697266 154.06954956054688 71.31831359863281 187.0054473876953" stroke-width="2.0" fill="none" stroke="rgb(0, 0, 0)" stroke-opacity="1" stroke-linecap="round" stroke-linejoin="round"/>
    <path d="M 175.92535400390625 37.10035705566406 C 162.74256896972656 72.53502655029297 171.68121337890625 56.72409439086914 165.88270568847656 45.87439727783203 C 168.99880981445312 47.325565338134766 154.5688934326172 16.248645782470703 178.82374572753906 40.95708084106445" stroke-width="2.0" fill="none" stroke="rgb(0, 0, 0)" stroke-opacity="1" stroke-linecap="round" stroke-linejoin="round"/>
    <path d="M 56.89415740966797 52.31642532348633 C 84.02518463134766 56.02521896362305 100.94746398925781 47.008174896240234 70.9004898071289 50.87279510498047 C 68.82762145996094 51.9774169921875 72.86881256103516 43.308067321777344 70.46258544921875 55.3420524597168" stroke-width="2.0" fill="none" stroke="rgb(0, 0, 0)" stroke-opacity="1" stroke-linecap="round" stroke-linejoin="round"/>
  </g>
</svg>
