<?xml version="1.0" ?>
<svg xmlns="http://www.w3.org/2000/svg" version="1.1" width="224" height="224">
  <defs/>
  <g>
    <path d="M 165.7664337158203 198.46885681152344 C 175.0316619873047 191.21710205078125 176.56044006347656 189.0675048828125 147.13514709472656 183.8798370361328 C 172.89768981933594 174.74180603027344 180.427978515625 191.57394409179688 157.86566162109375 183.4899139404297" stroke-width="2.0" fill="none" stroke="rgb(0, 0, 0)" stroke-opacity="1" stroke-linecap="round" stroke-linejoin="round"/>
    <path d="M 204.95928955078125 136.32711791992188 C 221.28846740722656 111.67819213867188 227.15060424804688 89.4313735961914 225.95619201660156 76.41615295410156 C 234.44317626953125 116.46002960205078 231.19435119628906 113.78705596923828 225.5399169921875 102.77679443359375" stroke-width="2.0" fill="none" stroke="rgb(0, 0, 0)" stroke-opacity="1" stroke-linecap="round" stroke-linejoin="round"/>
    <path d="M 56.96596908569336 137.17361450195312 C 36.8857536315918 168.78968811035156 101.46247100830078 150.531494140625 76.18940734863281 117.95264434814453" stroke-width="2.0" fill="none" stroke="rgb(0, 0, 0)" stroke-opacity="1" stroke-linecap="round" stroke-linejoin="round"/>
    <path d="M 129.32205200195312 54.35600280761719 C 102.43299102783203 90.33460998535156 117.9992904663086 49.41775894165039 114.36176300048828 59.9432487487793" stroke-width="2.0" fill="none" stroke="rgb(0, 0, 0)" stroke-opacity="1" stroke-linecap="round" stroke-linejoin="round"/>
    <path d="M 190.89520263671875 170.815185546875 C 178.36375427246094 174.91236877441406 198.36407470703125 180.64483642578125 183.85023498535156 174.17921447753906" stroke-width="2.0" fill="none" stroke="rgb(0, 0, 0)" stroke-opacity="1" stroke-linecap="round" stroke-linejoin="round"/>
    <path d="M 144.67745971679688 195.34898376464844 C 128.7725067138672 204.2587890625 168.7693634033203 197.19825744628906 143.4217987060547 208.1179962158203" stroke-width="2.0" fill="none" stroke="rgb(0, 0, 0)" stroke-opacity="1" stroke-linecap="round" stroke-linejoin="round"/>
    <path d="M 196.01290893554688 80.4610595703125 C 178.1787109375 87.18732452392578 203.78961181640625 93.38243103027344 174.97845458984375 61.01442337036133" stroke-width="2.0" fill="none" stroke="rgb(0, 0, 0)" stroke-opacity="1" stroke-linecap="round" stroke-linejoin="round"/>
    <path d="M 143.45770263671875 67.5916976928711 C 129.08038330078125 52.62495803833008 118.01964569091797 72.53800201416016 105.62895965576172 53.95151138305664 C 85.18824005126953 52.53109359741211 140.49607849121094 34.79513168334961 98.20065307617188 40.15357971191406 C 109.86284637451172 18.132797241210938 82.02540588378906 36.80225372314453 68.3107681274414 16.358190536499023" stroke-width="2.0" fill="none" stroke="rgb(0, 0, 0)" stroke-opacity="1" stroke-linecap="round" stroke-linejoin="round"/>
    <path d="M 67.9150161743164 193.8988800048828 C 67.23931121826172 151.70574951171875 32.11996078491211 155.3017120361328 43.53904724121094 178.72622680664062 C 41.81303405761719 160.4458465576172 58.56244659423828 204.98777770996094 57.86207962036133 155.3484649658203 C 87.66800689697266 180.82337951660156 79.85050201416016 129.0908660888672 64.42488098144531 163.99012756347656" stroke-width="2.0" fill="none" stroke="rgb(0, 0, 0)" stroke-opacity="1" stroke-linecap="round" stroke-linejoin="round"/>
    <path d="M 11.126727104187012 210.91725158691406 C 18.31937026977539 188.1265106201172 11.510360717773438 195.18519592285156 9.16408634185791 212.872314453125 C 3.260645866394043 190.36341857910156 17.662090301513672 192.76478576660156 -1.081708312034607 210.69161987304688" stroke-width="2.0" fill="none" stroke="rgb(0, 0, 0)" stroke-opacity="1" stroke-linecap="round" stroke-linejoin="round"/>
    <path d="M 162.323974609375 119.24066162109375 C 175.01849365234375 114.20116424560547 211.46511840820312 123.51864624023438 203.11480712890625 115.88268280029297" stroke-width="2.0" fill="none" stroke="rgb(0, 0, 0)" stroke-opacity="1" stroke-linecap="round" stroke-linejoin="round"/>
    <path d="M 134.0677947998047 153.7110137939453 C 142.43356323242188 157.19544982910156 144.9764862060547 140.98135375976562 144.0850067138672 152.92282104492188 C 108.14761352539062 148.25624084472656 135.27212524414062 156.9878692626953 145.4239044189453 158.2707061767578 C 139.22055053710938 149.5470733642578 124.47956085205078 167.79782104492188 125.72952270507812 150.51611328125" stroke-width="2.0" fill="none" stroke="rgb(0, 0, 0)" stroke-opacity="1" stroke-linecap="round" stroke-linejoin="round"/>
    <path d="M 16.843229293823242 67.2199935913086 C 37.827659606933594 66.04694366455078 37.11138153076172 64.07947540283203 30.936155319213867 66.44304656982422 C 31.822214126586914 55.87944793701172 26.804031372070312 56.5653190612793 35.837650299072266 67.304443359375" stroke-width="2.0" fill="none" stroke="rgb(0, 0, 0)" stroke-opacity="1" stroke-linecap="round" stroke-linejoin="round"/>
    <path d="M 80.94190216064453 190.04852294921875 C 58.033931732177734 196.78408813476562 27.050426483154297 180.3392333984375 11.46439266204834 181.31112670898438 C 39.197513580322266 221.09483337402344 26.222835540771484 211.42050170898438 28.142824172973633 176.92996215820312 C 50.61140060424805 187.8619384765625 29.794204711914062 178.23806762695312 17.078699111938477 192.8231658935547" stroke-width="2.0" fill="none" stroke="rgb(0, 0, 0)" stroke-opacity="1" stroke-linecap="round" stroke-linejoin="round"/>
    <path d="M 104.91161346435547 198.14056396484375 C 95.09479522705078 202.02989196777344 131.93539428710938 228.8162078857422 137.1398468017578 210.89305114746094" stroke-width="2.0" fill="none" stroke="rgb(0, 0, 0)" stroke-opacity="1" stroke-linecap="round" stroke-linejoin="round"/>
    <path d="M 27.680938720703125 211.537109375 C 46.00148391723633 189.72401428222656 32.97183609008789 204.57298278808594 41.877113342285156 195.03402709960938 C 23.028411865234375 194.82257080078125 50.94063186645508 184.67123413085938 58.5208740234375 192.173583984375 C 53.422119140625 182.3701934814453 75.66426849365234 197.5187225341797 54.687984466552734 194.2604217529297" stroke-width="2.0" fill="none" stroke="rgb(0, 0, 0)" stroke-opacity="1" stroke-linecap="round" stroke-linejoin="round"/>
    <path d="M 152.66664123535156 206.78712463378906 C 139.34164428710938 194.0764923095703 177.22012329101562 166.33543395996094 169.02444458007812 202.228759765625" stroke-width="2.0" fill="none" stroke="rgb(0, 0, 0)" stroke-opacity="1" stroke-linecap="round" stroke-linejoin="round"/>
    <path d="M 118.51457977294922 157.54803466796875 C 104.08180236816406 122.56482696533203 110.72386169433594 159.32354736328125 90.59048461914062 142.93182373046875 C 99.85601043701172 153.19686889648438 81.78361511230469 154.40072631835938 92.2928237915039 143.13706970214844" stroke-width="2.0" fill="none" stroke="rgb(0, 0, 0)" stroke-opacity="1" stroke-linecap="round" stroke-linejoin="round"/>
    <path d="M 76.17330169677734 85.01995086669922 C 46.19785690307617 73.2739486694336 35.36737823486328 115.52533721923828 65.07562255859375 108.78304290771484 C 65.02545928955078 94.86114501953125 100.20967864990234 99.66783142089844 76.0357437133789 116.33967590332031 C 62.278236389160156 123.7655029296875 68.35983276367188 95.36089324951172 81.71046447753906 110.73442077636719" stroke-width="2.0" fill="none" stroke="rgb(0, 0, 0)" stroke-opacity="1" stroke-linecap="round" stroke-linejoin="round"/>
    <path d="M 39.11426544189453 88.3502197265625 C 15.482547760009766 72.46540832519531 51.98408126831055 77.77300262451172 40.08811950683594 54.02617263793945 C 43.71142578125 70.04112243652344 43.612632751464844 68.36869812011719 32.9903450012207 60.81172180175781 C 47.82666778564453 64.1484375 45.0847053527832 48.499488830566406 38.27667999267578 62.63595199584961" stroke-width="2.0" fill="none" stroke="rgb(0, 0, 0)" stroke-opacity="1" stroke-linecap="round" stroke-linejoin="round"/>
    <path d="M 191.0349578857422 112.52438354492188 C 172.1389923095703 87.75457763671875 166.88368225097656 77.68551635742188 189.3698272705078 98.71704864501953 C 184.93861389160156 81.59114074707031 174.07948303222656 84.16529083251953 163.12986755371094 63.67644500732422 C 160.60989379882812 91.12110900878906 172.39065551757812 98.10333251953125 172.13133239746094 94.09484100341797" stroke-width="2.0" fill="none" stroke="rgb(0, 0, 0)" stroke-opacity="1" stroke-linecap="round" stroke-linejoin="round"/>
    <path d="M -6.433754920959473 60.091827392578125 C 1.5085564851760864 72.00870513916016 20.05546760559082 65.49202728271484 30.62690544128418 60.322818756103516" stroke-width="2.0" fill="none" stroke="rgb(0, 0, 0)" stroke-opacity="1" stroke-linecap="round" stroke-linejoin="round"/>
    <path d="M 22.849609375 225.2758026123047 C 33.71964645385742 230.4381103515625 41.34729766845703 234.56338500976562 51.713993072509766 230.4867401123047 C 50.828243255615234 242.41294860839844 45.65415573120117 231.77053833007812 56.81563949584961 232.99755859375" stroke-width="2.0" fill="none" stroke="rgb(0, 0, 0)" stroke-opacity="1" stroke-linecap="round" stroke-linejoin="round"/>
    <path d="M 190.0065460205078 221.69473266601562 C 206.1909637451172 195.14076232910156 204.6434326171875 179.70730590820312 195.96617126464844 186.75067138671875 C 216.57533264160156 163.3804168701172 208.3080596923828 179.76766967773438 214.8867645263672 161.95497131347656" stroke-width="2.0" fill="none" stroke="rgb(0, 0, 0)" stroke-opacity="1" stroke-linecap="round" stroke-linejoin="round"/>
    <path d="M 42.025390625 180.3964080810547 C 68.16371154785156 168.90443420410156 75.29957580566406 161.43362426757812 61.14583969116211 184.61827087402344 C 67.58238220214844 191.83993530273438 75.41458129882812 198.65489196777344 71.27049255371094 173.203369140625" stroke-width="2.0" fill="none" stroke="rgb(0, 0, 0)" stroke-opacity="1" stroke-linecap="round" stroke-linejoin="round"/>
    <path d="M 159.30996704101562 81.6128921508789 C 133.6717071533203 70.73622131347656 142.32777404785156 75.93840789794922 151.42755126953125 79.98051452636719" stroke-width="2.0" fill="none" stroke="rgb(0, 0, 0)" stroke-opacity="1" stroke-linecap="round" stroke-linejoin="round"/>
    <path d="M 67.7033462524414 201.34771728515625 C 35.43138885498047 178.0496063232422 30.738290786743164 187.13609313964844 42.37036895751953 191.11256408691406 C 27.966636657714844 185.10166931152344 19.357894897460938 153.37940979003906 20.868581771850586 179.72015380859375" stroke-width="2.0" fill="none" stroke="rgb(0, 0, 0)" stroke-opacity="1" stroke-linecap="round" stroke-linejoin="round"/>
    <path d="M 210.28021240234375 10.676901817321777 C 175.86373901367188 -8.828075408935547 196.41786193847656 2.7021236419677734 241.55711364746094 7.406169891357422 C 224.61489868164062 15.504453659057617 221.6000518798828 25.885818481445312 203.395263671875 13.16451358795166" stroke-width="2.0" fill="none" stroke="rgb(0, 0, 0)" stroke-opacity="1" stroke-linecap="round" stroke-linejoin="round"/>
    <path d="M 158.28857421875 38.71415328979492 C 162.28564453125 50.0390739440918 139.25694274902344 49.50517654418945 151.4596710205078 45.17573547363281 C 154.60723876953125 45.562564849853516 162.86692810058594 24.443138122558594 149.91354370117188 39.857261657714844 C 141.64186096191406 23.448223114013672 123.1300048828125 37.412261962890625 127.48835754394531 56.19904708862305" stroke-width="2.0" fill="none" stroke="rgb(0, 0, 0)" stroke-opacity="1" stroke-linecap="round" stroke-linejoin="round"/>
    <path d="M 186.41444396972656 144.42181396484375 C 147.26168823242188 180.35450744628906 164.10874938964844 169.1796417236328 178.23626708984375 156.52764892578125 C 169.28102111816406 165.85414123535156 145.69178771972656 166.43328857421875 163.81918334960938 165.81704711914062" stroke-width="2.0" fill="none" stroke="rgb(0, 0, 0)" stroke-opacity="1" stroke-linecap="round" stroke-linejoin="round"/>
    <path d="M 2.0458154678344727 203.46131896972656 C 31.49774742126465 198.3343963623047 52.28743362426758 209.30606079101562 38.27189254760742 186.8670654296875 C 31.840538024902344 190.4081573486328 41.41741180419922 210.2389373779297 26.786256790161133 185.3525390625 C 50.30538558959961 168.66737365722656 67.24388122558594 174.20103454589844 54.914649963378906 204.4734649658203" stroke-width="2.0" fill="none" stroke="rgb(0, 0, 0)" stroke-opacity="1" stroke-linecap="round" stroke-linejoin="round"/>
    <path d="M 184.98269653320312 226.36721801757812 C 209.91534423828125 221.80294799804688 208.22508239746094 236.60948181152344 187.7731475830078 235.72293090820312 C 179.32086181640625 234.68063354492188 175.42428588867188 240.0719757080078 175.3645782470703 243.14541625976562" stroke-width="2.0" fill="none" stroke="rgb(0, 0, 0)" stroke-opacity="1" stroke-linecap="round" stroke-linejoin="round"/>
    <path d="M 33.33249282836914 171.63243103027344 C 61.957183837890625 205.78868103027344 48.72614288330078 200.8786163330078 43.542236328125 170.22544860839844" stroke-width="2.0" fill="none" stroke="rgb(0, 0, 0)" stroke-opacity="1" stroke-linecap="round" stroke-linejoin="round"/>
    <path d="M 154.58180236816406 130.6848907470703 C 150.4862823486328 155.57135009765625 152.08558654785156 120.84821319580078 122.24962615966797 121.86442565917969 C 119.97486114501953 130.03240966796875 132.8501434326172 96.99442291259766 104.58570098876953 104.83766174316406" stroke-width="2.0" fill="none" stroke="rgb(0, 0, 0)" stroke-opacity="1" stroke-linecap="round" stroke-linejoin="round"/>
    <path d="M 24.695171356201172 29.969005584716797 C 23.180864334106445 37.97336196899414 18.45258331298828 54.747074127197266 17.50197982788086 26.67060661315918 C 2.3659005165100098 31.091405868530273 -11.854608535766602 19.682235717773438 33.292877197265625 20.462947845458984 C 6.250666618347168 33.55546569824219 16.278831481933594 39.35646057128906 39.7736930847168 25.336400985717773" stroke-width="2.0" fill="none" stroke="rgb(0, 0, 0)" stroke-opacity="1" stroke-linecap="round" stroke-linejoin="round"/>
    <path d="M 192.60606384277344 40.79243850708008 C 184.31251525878906 49.70609664916992 198.4771270751953 60.26732635498047 174.7588653564453 43.30141067504883 C 172.81109619140625 59.791690826416016 174.5364990234375 43.468421936035156 173.76698303222656 49.977561950683594 C 152.08969116210938 35.12973403930664 178.07337951660156 73.02320098876953 172.11793518066406 66.6906967163086" stroke-width="2.0" fill="none" stroke="rgb(0, 0, 0)" stroke-opacity="1" stroke-linecap="round" stroke-linejoin="round"/>
    <path d="M -12.128210067749023 41.81379699707031 C 5.042972564697266 34.11884689331055 19.032150268554688 44.05291748046875 7.39267635345459 32.13047409057617" stroke-width="2.0" fill="none" stroke="rgb(0, 0, 0)" stroke-opacity="1" stroke-linecap="round" stroke-linejoin="round"/>
    <path d="M 153.64405822753906 51.785888671875 C 137.21124267578125 33.31404113769531 116.04000091552734 61.732521057128906 129.97080993652344 65.7604751586914" stroke-width="2.0" fill="none" stroke="rgb(0, 0, 0)" stroke-opacity="1" stroke-linecap="round" stroke-linejoin="round"/>
    <path d="M 142.5635223388672 92.58106231689453 C 146.53709411621094 86.39763641357422 103.36560821533203 81.58690643310547 118.58773040771484 89.93156433105469" stroke-width="2.0" fill="none" stroke="rgb(0, 0, 0)" stroke-opacity="1" stroke-linecap="round" stroke-linejoin="round"/>
    <path d="M 71.80530548095703 46.669097900390625 C 55.70184326171875 61.4442024230957 86.66161346435547 59.1340446472168 73.78315734863281 67.76225280761719 C 50.98444747924805 39.17401885986328 50.360755920410156 84.3677978515625 58.7708740234375 64.53871154785156" stroke-width="2.0" fill="none" stroke="rgb(0, 0, 0)" stroke-opacity="1" stroke-linecap="round" stroke-linejoin="round"/>
    <path d="M 210.5738983154297 26.88648796081543 C 203.84136962890625 3.114701986312866 197.47354125976562 -2.912334680557251 187.25030517578125 -10.121551513671875 C 181.32899475097656 1.644249677658081 194.71560668945312 7.0831451416015625 217.28848266601562 33.55222702026367 C 182.6595001220703 86.32659912109375 195.6039581298828 46.09670639038086 189.14028930664062 50.9119873046875" stroke-width="2.0" fill="none" stroke="rgb(0, 0, 0)" stroke-opacity="1" stroke-linecap="round" stroke-linejoin="round"/>
    <path d="M 54.24895095825195 111.14341735839844 C 54.658424377441406 131.99217224121094 21.27989959716797 153.91111755371094 47.1584358215332 104.12362670898438" stroke-width="2.0" fill="none" stroke="rgb(0, 0, 0)" stroke-opacity="1" stroke-linecap="round" stroke-linejoin="round"/>
    <path d="M 171.26068115234375 96.32746124267578 C 148.52037048339844 91.08708953857422 171.14340209960938 84.93695831298828 197.16819763183594 108.48213195800781" stroke-width="2.0" fill="none" stroke="rgb(0, 0, 0)" stroke-opacity="1" stroke-linecap="round" stroke-linejoin="round"/>
    <path d="M 146.3894500732422 194.3043670654297 C 161.36061096191406 202.27151489257812 153.0861358642578 189.73329162597656 151.902587890625 193.62435913085938" stroke-width="2.0" fill="none" stroke="rgb(0, 0, 0)" stroke-opacity="1" stroke-linecap="round" stroke-linejoin="round"/>
    <path d="M 118.84024810791016 27.01363182067871 C 94.4217300415039 26.385719299316406 131.01876831054688 36.72957229614258 103.67235565185547 58.83223342895508 C 104.27203369140625 54.3447380065918 67.89608764648438 48.20701599121094 91.21255493164062 59.41880416870117 C 62.44551467895508 58.581172943115234 76.50752258300781 44.622535705566406 71.44892120361328 53.86793899536133" stroke-width="2.0" fill="none" stroke="rgb(0, 0, 0)" stroke-opacity="1" stroke-linecap="round" stroke-linejoin="round"/>
    <path d="M 47.015132904052734 -5.838584899902344 C 87.5164566040039 -10.493061065673828 63.52284240722656 0.728585958480835 44.419403076171875 4.160244941711426 C 41.89663314819336 32.77192687988281 82.16178131103516 -12.772257804870605 72.6130599975586 24.803926467895508 C 36.46654510498047 21.318864822387695 71.42570495605469 39.08609390258789 45.74575424194336 34.83551025390625" stroke-width="2.0" fill="none" stroke="rgb(0, 0, 0)" stroke-opacity="1" stroke-linecap="round" stroke-linejoin="round"/>
    <path d="M 129.38304138183594 54.300262451171875 C 113.14920806884766 79.67371368408203 95.79711151123047 92.22456359863281 97.99958801269531 80.96795654296875" stroke-width="2.0" fill="none" stroke="rgb(0, 0, 0)" stroke-opacity="1" stroke-linecap="round" stroke-linejoin="round"/>
    <path d="M 161.12254333496094 221.46673583984375 C 137.3445587158203 198.64108276367188 151.60365295410156 233.95863342285156 132.07081604003906 225.22341918945312 C 124.48604583740234 205.0115509033203 135.2242431640625 214.4745330810547 143.63494873046875 231.02853393554688 C 96.81766510009766 210.8882598876953 106.3384017944336 221.54127502441406 111.16959381103516 241.59140014648438" stroke-width="2.0" fill="none" stroke="rgb(0, 0, 0)" stroke-opacity="1" stroke-linecap="round" stroke-linejoin="round"/>
    <path d="M 138.15966796875 129.15647888183594 C 135.66477966308594 127.47102355957031 148.1102752685547 132.21751403808594 95.69602966308594 107.30366516113281 C 130.00967407226562 105.4753646850586 129.48988342285156 124.5383071899414 99.88113403320312 135.1435546875" stroke-width="2.0" fill="none" stroke="rgb(0, 0, 0)" stroke-opacity="1" stroke-linecap="round" stroke-linejoin="round"/>
    <path d="M 30.058238983154297 229.04733276367188 C 21.480091094970703 215.51220703125 -0.1760449856519699 229.07427978515625 29.923995971679688 225.2342071533203 C 18.131824493408203 236.50184631347656 38.50936508178711 213.06454467773438 56.757171630859375 224.7391357421875" stroke-width="2.0" fill="none" stroke="rgb(0, 0, 0)" stroke-opacity="1" stroke-linecap="round" stroke-linejoin="round"/>
    <path d="M 136.855712890625 2.5044403076171875 C 116.48143768310547 0.9807876348495483 65.58261108398438 -4.670071601867676 101.2555923461914 2.6419734954833984" stroke-width="2.0" fill="none" stroke="rgb(0, 0, 0)" stroke-opacity="1" stroke-linecap="round" stroke-linejoin="round"/>
    <path d="M 210.67819213867188 17.7513370513916 C 190.9680938720703 1.8627545833587646 180.85385131835938 -9.442254066467285 194.33079528808594 6.625327110290527 C 214.8245849609375 17.906835556030273 244.15304565429688 7.828362941741943 251.98312377929688 15.791054725646973 C 222.93870544433594 7.614964008331299 234.35426330566406 5.1264824867248535 243.5073699951172 11.451789855957031" stroke-width="2.0" fill="none" stroke="rgb(0, 0, 0)" stroke-opacity="1" stroke-linecap="round" stroke-linejoin="round"/>
    <path d="M 21.41535758972168 84.81543731689453 C 13.955965995788574 87.95299530029297 36.465816497802734 93.74251556396484 -10.47097396850586 93.32427215576172 C -9.488258361816406 102.19608306884766 -23.78843879699707 101.29053497314453 -28.26158332824707 110.979248046875 C -25.707914352416992 112.67743682861328 -32.20767593383789 107.85191345214844 -38.927974700927734 118.66339874267578" stroke-width="2.0" fill="none" stroke="rgb(0, 0, 0)" stroke-opacity="1" stroke-linecap="round" stroke-linejoin="round"/>
    <path d="M 54.892784118652344 148.77984619140625 C 30.86351203918457 160.11265563964844 60.49211883544922 161.70120239257812 53.7471809387207 172.62794494628906 C 41.35968780517578 193.83810424804688 70.93473815917969 201.9584197998047 48.82797622680664 179.21420288085938" stroke-width="2.0" fill="none" stroke="rgb(0, 0, 0)" stroke-opacity="1" stroke-linecap="round" stroke-linejoin="round"/>
    <path d="M 92.60008239746094 164.91392517089844 C 78.6946792602539 147.6732635498047 77.28458404541016 192.91217041015625 91.17414855957031 189.2541046142578 C 102.76734161376953 174.4612274169922 45.95070266723633 200.6517791748047 67.87770080566406 187.91485595703125 C 99.98605346679688 182.71926879882812 67.31827545166016 159.25193786621094 79.22035217285156 189.9834442138672" stroke-width="2.0" fill="none" stroke="rgb(0, 0, 0)" stroke-opacity="1" stroke-linecap="round" stroke-linejoin="round"/>
    <path d="M 227.79702758789062 207.78506469726562 C 204.01100158691406 239.47003173828125 197.36692810058594 227.97352600097656 233.15093994140625 224.72567749023438" stroke-width="2.0" fill="none" stroke="rgb(0, 0, 0)" stroke-opacity="1" stroke-linecap="round" stroke-linejoin="round"/>
    <path d="M 127.44699096679688 11.684633255004883 C 142.2698516845703 16.818693161010742 178.49098205566406 6.625291347503662 140.4604034423828 17.881441116333008 C 129.37818908691406 34.38331604003906 157.11134338378906 14.138066291809082 142.86505126953125 36.48158264160156 C 167.15765380859375 38.72126770019531 165.15936279296875 39.000247955322266 139.5763397216797 52.912864685058594" stroke-width="2.0" fill="none" stroke="rgb(0, 0, 0)" stroke-opacity="1" stroke-linecap="round" stroke-linejoin="round"/>
    <path d="M 205.07467651367188 164.56893920898438 C 172.62408447265625 147.627197265625 174.71905517578125 141.96014404296875 191.46826171875 122.88984680175781 C 189.96160888671875 141.24078369140625 187.87777709960938 150.88168334960938 162.0557861328125 161.7855682373047 C 144.77195739746094 147.19381713867188 192.2723388671875 137.91651916503906 207.22642517089844 147.74412536621094" stroke-width="2.0" fill="none" stroke="rgb(0, 0, 0)" stroke-opacity="1" stroke-linecap="round" stroke-linejoin="round"/>
    <path d="M 188.3067626953125 27.835227966308594 C 169.5644073486328 38.49856948852539 190.4410858154297 56.43782043457031 200.45309448242188 77.09493255615234" stroke-width="2.0" fill="none" stroke="rgb(0, 0, 0)" stroke-opacity="1" stroke-linecap="round" stroke-linejoin="round"/>
    <path d="M 170.52040100097656 231.45211791992188 C 126.83067321777344 214.73519897460938 135.3769073486328 223.00100708007812 178.41525268554688 216.79917907714844 C 156.13644409179688 220.98219299316406 146.05783081054688 217.10104370117188 130.24948120117188 229.44178771972656" stroke-width="2.0" fill="none" stroke="rgb(0, 0, 0)" stroke-opacity="1" stroke-linecap="round" stroke-linejoin="round"/>
    <path d="M 79.07389068603516 220.59950256347656 C 22.873037338256836 238.2133026123047 21.87645721435547 227.06393432617188 24.800207138061523 230.77322387695312 C 37.285335540771484 228.65708923339844 33.081295013427734 231.41445922851562 22.318166732788086 230.44786071777344 C 29.505271911621094 233.37367248535156 37.995967864990234 242.42562866210938 39.682701110839844 240.4891357421875" stroke-width="2.0" fill="none" stroke="rgb(0, 0, 0)" stroke-opacity="1" stroke-linecap="round" stroke-linejoin="round"/>
    <path d="M 144.00323486328125 169.12322998046875 C 147.5718231201172 179.618408203125 155.20010375976562 162.23451232910156 156.91879272460938 171.31857299804688 C 188.61862182617188 161.69033813476562 194.28968811035156 157.3023223876953 170.85748291015625 160.98011779785156 C 201.96112060546875 156.83261108398438 154.37948608398438 203.138916015625 147.78956604003906 159.4855194091797" stroke-width="2.0" fill="none" stroke="rgb(0, 0, 0)" stroke-opacity="1" stroke-linecap="round" stroke-linejoin="round"/>
    <path d="M 198.0821533203125 63.72360610961914 C 226.30494689941406 68.46693420410156 238.9707489013672 48.97376251220703 214.42642211914062 43.77586364746094 C 213.5194549560547 44.36069107055664 230.05543518066406 33.983577728271484 231.89105224609375 37.78035354614258 C 234.67135620117188 38.05696487426758 225.84332275390625 35.88104248046875 227.02333068847656 41.0101318359375" stroke-width="2.0" fill="none" stroke="rgb(0, 0, 0)" stroke-opacity="1" stroke-linecap="round" stroke-linejoin="round"/>
    <path d="M 38.907108306884766 81.07933044433594 C 71.4489974975586 57.60938262939453 74.31658172607422 79.07765197753906 59.24184036254883 91.13034057617188" stroke-width="2.0" fill="none" stroke="rgb(0, 0, 0)" stroke-opacity="1" stroke-linecap="round" stroke-linejoin="round"/>
    <path d="M 160.7229461669922 88.96902465820312 C 168.1090087890625 75.4254379272461 143.19137573242188 63.716827392578125 147.02684020996094 84.17362213134766 C 156.0969696044922 75.46593475341797 168.0821533203125 64.55115509033203 172.68301391601562 73.78500366210938 C 147.93443298339844 77.21068572998047 133.04922485351562 79.59795379638672 153.617431640625 74.3360824584961" stroke-width="2.0" fill="none" stroke="rgb(0, 0, 0)" stroke-opacity="1" stroke-linecap="round" stroke-linejoin="round"/>
    <path d="M 118.15827178955078 28.08104133605957 C 132.2056427001953 12.155583381652832 71.51593017578125 22.732501983642578 120.47484588623047 14.007658004760742 C 99.34571838378906 18.979572296142578 80.74028015136719 16.906139373779297 85.41575622558594 29.782459259033203" stroke-width="2.0" fill="none" stroke="rgb(0, 0, 0)" stroke-opacity="1" stroke-linecap="round" stroke-linejoin="round"/>
    <path d="M 180.07818603515625 176.67416381835938 C 199.06500244140625 186.18878173828125 208.60194396972656 204.94500732421875 177.77792358398438 187.8841552734375 C 192.11424255371094 198.1652069091797 196.7456512451172 196.42874145507812 210.31588745117188 177.4568328857422 C 190.16903686523438 171.4694061279297 186.91432189941406 210.05752563476562 191.74440002441406 234.14263916015625" stroke-width="2.0" fill="none" stroke="rgb(0, 0, 0)" stroke-opacity="1" stroke-linecap="round" stroke-linejoin="round"/>
    <path d="M 168.19874572753906 35.726829528808594 C 151.46009826660156 24.397733688354492 175.24488830566406 29.9163875579834 174.66329956054688 -8.006832122802734" stroke-width="2.0" fill="none" stroke="rgb(0, 0, 0)" stroke-opacity="1" stroke-linecap="round" stroke-linejoin="round"/>
    <path d="M 101.80821228027344 207.99868774414062 C 122.79556274414062 200.4156036376953 100.60736846923828 201.12551879882812 110.61820983886719 211.4420166015625 C 96.59072875976562 220.12245178222656 129.22019958496094 197.85601806640625 107.11109161376953 199.52655029296875 C 123.03980255126953 213.6574249267578 128.8404998779297 202.48721313476562 116.55426025390625 215.76358032226562" stroke-width="2.0" fill="none" stroke="rgb(0, 0, 0)" stroke-opacity="1" stroke-linecap="round" stroke-linejoin="round"/>
    <path d="M 72.86666870117188 39.92042922973633 C 98.43644714355469 50.97907257080078 83.92433166503906 53.26845932006836 89.3245849609375 49.73774719238281 C 112.4483413696289 46.001380920410156 109.4877700805664 35.71580505371094 104.3691635131836 54.43604278564453 C 113.23595428466797 71.26516723632812 109.53797912597656 42.563499450683594 123.7928695678711 52.35679244995117" stroke-width="2.0" fill="none" stroke="rgb(0, 0, 0)" stroke-opacity="1" stroke-linecap="round" stroke-linejoin="round"/>
    <path d="M 124.33051300048828 6.377622127532959 C 176.1775665283203 -0.5713074207305908 160.74517822265625 -8.9298095703125 176.45875549316406 -4.226134777069092" stroke-width="2.0" fill="none" stroke="rgb(0, 0, 0)" stroke-opacity="1" stroke-linecap="round" stroke-linejoin="round"/>
    <path d="M 53.0222282409668 189.51934814453125 C 43.90525817871094 202.04580688476562 36.49618911743164 204.07568359375 15.73132038116455 187.20077514648438 C 30.10541534423828 187.96302795410156 30.084012985229492 195.7664337158203 18.965723037719727 205.9441375732422 C -15.659993171691895 186.10775756835938 1.0751698017120361 190.8751678466797 0.8973653316497803 185.04248046875" stroke-width="2.0" fill="none" stroke="rgb(0, 0, 0)" stroke-opacity="1" stroke-linecap="round" stroke-linejoin="round"/>
    <path d="M 155.92237854003906 206.83128356933594 C 170.87876892089844 204.57005310058594 124.02345275878906 220.2991485595703 172.92723083496094 227.18563842773438 C 141.43023681640625 227.35227966308594 148.7180938720703 227.9833221435547 149.77249145507812 242.6695556640625 C 163.5979766845703 236.20977783203125 156.60479736328125 230.81044006347656 155.15948486328125 231.52145385742188" stroke-width="2.0" fill="none" stroke="rgb(0, 0, 0)" stroke-opacity="1" stroke-linecap="round" stroke-linejoin="round"/>
    <path d="M 7.7088494300842285 67.0891342163086 C -1.275402307510376 62.496498107910156 47.5723876953125 75.73881530761719 16.815399169921875 53.230777740478516" stroke-width="2.0" fill="none" stroke="rgb(0, 0, 0)" stroke-opacity="1" stroke-linecap="round" stroke-linejoin="round"/>
    <path d="M 84.32682037353516 53.52048873901367 C 72.10428619384766 37.03089141845703 62.68742370605469 31.308629989624023 100.794921875 56.21169662475586 C 92.92341613769531 36.1937255859375 85.33935546875 37.16030502319336 63.935508728027344 42.37516403198242" stroke-width="2.0" fill="none" stroke="rgb(0, 0, 0)" stroke-opacity="1" stroke-linecap="round" stroke-linejoin="round"/>
    <path d="M 170.5702362060547 150.5353546142578 C 156.86399841308594 181.1438446044922 155.59121704101562 167.0806884765625 144.36671447753906 173.76380920410156 C 127.4087905883789 185.73480224609375 142.07920837402344 170.91885375976562 157.41067504882812 172.06907653808594" stroke-width="2.0" fill="none" stroke="rgb(0, 0, 0)" stroke-opacity="1" stroke-linecap="round" stroke-linejoin="round"/>
    <path d="M 190.84432983398438 51.190494537353516 C 217.7366180419922 34.158287048339844 198.41293334960938 25.67089080810547 192.81494140625 8.196561813354492" stroke-width="2.0" fill="none" stroke="rgb(0, 0, 0)" stroke-opacity="1" stroke-linecap="round" stroke-linejoin="round"/>
    <path d="M 229.84353637695312 145.30197143554688 C 220.00698852539062 170.39990234375 216.0626220703125 197.56088256835938 234.23890686035156 169.6728515625" stroke-width="2.0" fill="none" stroke="rgb(0, 0, 0)" stroke-opacity="1" stroke-linecap="round" stroke-linejoin="round"/>
    <path d="M 221.8155059814453 194.3875274658203 C 195.5992431640625 230.4984893798828 193.6996612548828 223.81838989257812 231.7599639892578 214.39169311523438 C 209.9832763671875 241.73583984375 178.89991760253906 232.29632568359375 201.4182891845703 211.40077209472656" stroke-width="2.0" fill="none" stroke="rgb(0, 0, 0)" stroke-opacity="1" stroke-linecap="round" stroke-linejoin="round"/>
    <path d="M 154.90806579589844 22.91790199279785 C 165.9335174560547 2.7737843990325928 170.06008911132812 18.31977081298828 150.6387481689453 12.535364151000977 C 116.72250366210938 11.380622863769531 124.02985382080078 24.156007766723633 154.20077514648438 15.102266311645508 C 135.11634826660156 6.581915855407715 137.20315551757812 11.023883819580078 171.968017578125 0.7675347924232483" stroke-width="2.0" fill="none" stroke="rgb(0, 0, 0)" stroke-opacity="1" stroke-linecap="round" stroke-linejoin="round"/>
    <path d="M 91.70025634765625 195.7816925048828 C 101.83053588867188 174.81080627441406 112.94212341308594 210.74647521972656 68.65747833251953 175.26626586914062" stroke-width="2.0" fill="none" stroke="rgb(0, 0, 0)" stroke-opacity="1" stroke-linecap="round" stroke-linejoin="round"/>
    <path d="M 183.85134887695312 106.18680572509766 C 173.77781677246094 106.52308654785156 190.47998046875 113.06369018554688 198.18927001953125 115.72557067871094" stroke-width="2.0" fill="none" stroke="rgb(0, 0, 0)" stroke-opacity="1" stroke-linecap="round" stroke-linejoin="round"/>
    <path d="M 112.89559936523438 62.27141189575195 C 129.82000732421875 74.47577667236328 126.41085815429688 31.4693546295166 138.994140625 45.95798110961914" stroke-width="2.0" fill="none" stroke="rgb(0, 0, 0)" stroke-opacity="1" stroke-linecap="round" stroke-linejoin="round"/>
    <path d="M -6.761154651641846 99.30449676513672 C -3.2315032482147217 90.64837646484375 20.777896881103516 93.38069152832031 19.712594985961914 90.84968566894531 C 18.292259216308594 96.49253845214844 31.4835147857666 87.3625259399414 34.274593353271484 97.766845703125" stroke-width="2.0" fill="none" stroke="rgb(0, 0, 0)" stroke-opacity="1" stroke-linecap="round" stroke-linejoin="round"/>
    <path d="M 67.23294067382812 123.63996887207031 C 100.44390869140625 135.2132568359375 48.680397033691406 155.01194763183594 60.055702209472656 124.7118911743164" stroke-width="2.0" fill="none" stroke="rgb(0, 0, 0)" stroke-opacity="1" stroke-linecap="round" stroke-linejoin="round"/>
    <path d="M 115.46817016601562 108.6877212524414 C 123.23774719238281 129.54661560058594 129.83074951171875 114.87998962402344 130.04904174804688 133.457763671875 C 186.43197631835938 133.52940368652344 195.5159912109375 118.9435806274414 151.7255859375 114.49028778076172 C 139.0831756591797 103.54521179199219 144.87081909179688 115.42301177978516 160.58668518066406 93.9365234375" stroke-width="2.0" fill="none" stroke="rgb(0, 0, 0)" stroke-opacity="1" stroke-linecap="round" stroke-linejoin="round"/>
    <path d="M 191.33872985839844 15.580099105834961 C 217.5960235595703 33.18571472167969 207.3402862548828 42.1680908203125 198.93104553222656 29.919649124145508" stroke-width="2.0" fill="none" stroke="rgb(0, 0, 0)" stroke-opacity="1" stroke-linecap="round" stroke-linejoin="round"/>
    <path d="M 151.9873504638672 152.0707550048828 C 164.2227325439453 135.59701538085938 152.1868896484375 189.69850158691406 160.21400451660156 172.7236785888672" stroke-width="2.0" fill="none" stroke="rgb(0, 0, 0)" stroke-opacity="1" stroke-linecap="round" stroke-linejoin="round"/>
    <path d="M 93.90361022949219 130.03768920898438 C 105.87090301513672 115.03704833984375 104.1677017211914 147.50868225097656 111.52304077148438 133.92596435546875 C 104.87865447998047 118.9284896850586 125.60124206542969 130.66705322265625 120.72013092041016 156.4394073486328 C 128.46978759765625 133.5205841064453 94.96343231201172 120.27979278564453 106.24405670166016 122.9698486328125" stroke-width="2.0" fill="none" stroke="rgb(0, 0, 0)" stroke-opacity="1" stroke-linecap="round" stroke-linejoin="round"/>
    <path d="M 162.57215881347656 59.201393127441406 C 193.8123321533203 71.01053619384766 165.24063110351562 48.21318435668945 146.46400451660156 45.33960723876953 C 162.19134521484375 49.530906677246094 180.2168426513672 54.67104721069336 160.4626922607422 57.607879638671875" stroke-width="2.0" fill="none" stroke="rgb(0, 0, 0)" stroke-opacity="1" stroke-linecap="round" stroke-linejoin="round"/>
    <path d="M 157.27120971679688 160.69137573242188 C 126.71736145019531 179.20249938964844 142.34654235839844 151.05490112304688 145.71661376953125 173.83120727539062 C 150.23941040039062 182.21144104003906 176.3391876220703 166.24378967285156 152.43408203125 152.8065948486328" stroke-width="2.0" fill="none" stroke="rgb(0, 0, 0)" stroke-opacity="1" stroke-linecap="round" stroke-linejoin="round"/>
    <path d="M 84.54922485351562 164.9164581298828 C 81.57609558105469 187.14126586914062 109.22998809814453 166.53111267089844 110.10077667236328 174.8399658203125 C 127.52335357666016 159.06431579589844 150.08909606933594 180.9313201904297 110.89981079101562 190.02578735351562" stroke-width="2.0" fill="none" stroke="rgb(0, 0, 0)" stroke-opacity="1" stroke-linecap="round" stroke-linejoin="round"/>
    <path d="M 227.4436798095703 185.53106689453125 C 217.4003448486328 206.85922241210938 196.06068420410156 201.9556427001953 171.2734375 212.82000732421875 C 144.4312286376953 240.72203063964844 194.9486083984375 229.6387939453125 208.75775146484375 224.47718811035156 C 161.01730346679688 213.04104614257812 185.68898010253906 207.89492797851562 205.4474334716797 193.95631408691406" stroke-width="2.0" fill="none" stroke="rgb(0, 0, 0)" stroke-opacity="1" stroke-linecap="round" stroke-linejoin="round"/>
    <path d="M 137.0509033203125 129.94993591308594 C 128.49777221679688 120.0278091430664 136.04278564453125 145.62728881835938 135.56314086914062 116.81182861328125 C 144.13311767578125 151.33108520507812 153.01988220214844 139.61827087402344 128.18087768554688 129.74351501464844 C 148.87489318847656 132.7969512939453 152.47140502929688 121.00955963134766 139.59658813476562 141.2401885986328" stroke-width="2.0" fill="none" stroke="rgb(0, 0, 0)" stroke-opacity="1" stroke-linecap="round" stroke-linejoin="round"/>
    <path d="M 185.18907165527344 42.69023513793945 C 197.80735778808594 64.78633880615234 222.3074493408203 28.071523666381836 196.69012451171875 13.488407135009766 C 193.21372985839844 41.42037582397461 194.14846801757812 2.102968215942383 177.46755981445312 31.11481475830078" stroke-width="2.0" fill="none" stroke="rgb(0, 0, 0)" stroke-opacity="1" stroke-linecap="round" stroke-linejoin="round"/>
    <path d="M 212.01455688476562 186.40792846679688 C 227.5040283203125 226.39523315429688 204.98831176757812 209.4901123046875 161.9028778076172 216.6154327392578 C 206.87591552734375 215.62045288085938 233.2530517578125 235.04776000976562 190.52377319335938 214.29458618164062" stroke-width="2.0" fill="none" stroke="rgb(0, 0, 0)" stroke-opacity="1" stroke-linecap="round" stroke-linejoin="round"/>
    <path d="M 50.48398971557617 162.52957153320312 C 83.70899963378906 148.74929809570312 80.02096557617188 117.48007202148438 58.34976577758789 130.69583129882812 C 45.147708892822266 130.5426788330078 34.62150573730469 153.11117553710938 45.94795227050781 152.95394897460938 C 9.149667739868164 168.3353271484375 4.681412696838379 187.9767608642578 42.50680160522461 118.60008239746094" stroke-width="2.0" fill="none" stroke="rgb(0, 0, 0)" stroke-opacity="1" stroke-linecap="round" stroke-linejoin="round"/>
    <path d="M 109.32369232177734 174.37619018554688 C 138.288818359375 141.70298767089844 109.91812133789062 131.0875244140625 123.92494201660156 153.7117919921875 C 115.99783325195312 183.7912139892578 101.11549377441406 172.87159729003906 116.4091567993164 145.66468811035156 C 128.40554809570312 159.648193359375 95.74943542480469 163.24632263183594 105.31147003173828 144.1516876220703" stroke-width="2.0" fill="none" stroke="rgb(0, 0, 0)" stroke-opacity="1" stroke-linecap="round" stroke-linejoin="round"/>
    <path d="M 96.79230499267578 90.35243225097656 C 89.00625610351562 59.96291732788086 76.53059387207031 81.61931610107422 91.82322692871094 71.6517562866211 C 66.1246109008789 47.19490432739258 62.66356658935547 45.25402069091797 101.05697631835938 57.907772064208984" stroke-width="2.0" fill="none" stroke="rgb(0, 0, 0)" stroke-opacity="1" stroke-linecap="round" stroke-linejoin="round"/>
    <path d="M 144.33297729492188 139.23460388183594 C 158.5958251953125 123.33817291259766 185.95343017578125 139.42819213867188 172.41006469726562 133.35501098632812 C 161.76075744628906 127.42462921142578 168.96409606933594 120.86459350585938 169.68907165527344 132.1912078857422" stroke-width="2.0" fill="none" stroke="rgb(0, 0, 0)" stroke-opacity="1" stroke-linecap="round" stroke-linejoin="round"/>
    <path d="M 46.11110305786133 55.073143005371094 C 58.19966125488281 40.641326904296875 26.885086059570312 65.8448257446289 63.798614501953125 74.997314453125 C 55.35396957397461 66.53205108642578 34.09059524536133 76.10075378417969 33.7513427734375 83.86735534667969" stroke-width="2.0" fill="none" stroke="rgb(0, 0, 0)" stroke-opacity="1" stroke-linecap="round" stroke-linejoin="round"/>
    <path d="M 114.27552032470703 150.64344787597656 C 120.15125274658203 170.30374145507812 112.84864807128906 177.95089721679688 113.59088134765625 162.3416290283203 C 96.1891098022461 169.59506225585938 83.85272979736328 191.1248779296875 92.2010498046875 172.4071044921875" stroke-width="2.0" fill="none" stroke="rgb(0, 0, 0)" stroke-opacity="1" stroke-linecap="round" stroke-linejoin="round"/>
    <path d="M 70.57877349853516 -6.959485054016113 C 74.61695861816406 -2.129636287689209 69.44112396240234 -4.177792072296143 58.1378173828125 -12.429939270019531" stroke-width="2.0" fill="none" stroke="rgb(0, 0, 0)" stroke-opacity="1" stroke-linecap="round" stroke-linejoin="round"/>
    <path d="M 85.19266510009766 117.53337097167969 C 76.8095474243164 133.00160217285156 108.27327728271484 110.54692840576172 86.06336212158203 117.12867736816406 C 116.99166870117188 142.85369873046875 120.34817504882812 118.44827270507812 119.08790588378906 119.72838592529297 C 104.21052551269531 136.25096130371094 133.01589965820312 141.35415649414062 110.23738861083984 135.95606994628906" stroke-width="2.0" fill="none" stroke="rgb(0, 0, 0)" stroke-opacity="1" stroke-linecap="round" stroke-linejoin="round"/>
    <path d="M 113.62460327148438 14.748476028442383 C 78.17840576171875 12.246325492858887 56.27259826660156 22.573524475097656 113.34559631347656 21.977025985717773 C 114.54454040527344 8.610251426696777 115.1011962890625 14.46204948425293 82.05577087402344 15.821672439575195 C 116.20024871826172 7.30931282043457 109.14916229248047 -1.801261305809021 98.82543182373047 -26.86652183532715" stroke-width="2.0" fill="none" stroke="rgb(0, 0, 0)" stroke-opacity="1" stroke-linecap="round" stroke-linejoin="round"/>
    <path d="M 199.7628631591797 97.71177673339844 C 201.2069549560547 131.2921142578125 200.20574951171875 134.2353515625 203.3349609375 101.32487487792969" stroke-width="2.0" fill="none" stroke="rgb(0, 0, 0)" stroke-opacity="1" stroke-linecap="round" stroke-linejoin="round"/>
    <path d="M 127.8697738647461 52.740135192871094 C 134.39451599121094 61.489707946777344 128.74571228027344 42.57096481323242 125.16594696044922 67.81610870361328" stroke-width="2.0" fill="none" stroke="rgb(0, 0, 0)" stroke-opacity="1" stroke-linecap="round" stroke-linejoin="round"/>
    <path d="M 34.66011428833008 140.62179565429688 C 13.082289695739746 151.4485626220703 24.67792510986328 140.92306518554688 34.921165466308594 142.09817504882812 C 33.18305206298828 154.47708129882812 52.734031677246094 123.61004638671875 36.20713806152344 128.73744201660156 C 1.9454456567764282 156.60971069335938 32.088783264160156 162.5999755859375 33.811580657958984 141.41455078125" stroke-width="2.0" fill="none" stroke="rgb(0, 0, 0)" stroke-opacity="1" stroke-linecap="round" stroke-linejoin="round"/>
    <path d="M 146.95635986328125 82.60758972167969 C 130.15093994140625 75.71839141845703 145.65884399414062 69.0853271484375 146.0290985107422 58.160160064697266 C 162.47096252441406 69.94792938232422 152.7465057373047 51.338443756103516 132.95323181152344 71.62030029296875" stroke-width="2.0" fill="none" stroke="rgb(0, 0, 0)" stroke-opacity="1" stroke-linecap="round" stroke-linejoin="round"/>
    <path d="M 34.0948486328125 179.91561889648438 C 32.174896240234375 153.9424285888672 38.59324645996094 185.2063446044922 11.986761093139648 183.13418579101562 C 35.13715362548828 169.5292510986328 44.30413055419922 163.05979919433594 16.21699333190918 160.55520629882812" stroke-width="2.0" fill="none" stroke="rgb(0, 0, 0)" stroke-opacity="1" stroke-linecap="round" stroke-linejoin="round"/>
    <path d="M 104.04271697998047 100.21857452392578 C 90.24916076660156 91.07296752929688 117.47159576416016 115.02730560302734 115.7769775390625 127.21542358398438 C 135.3057403564453 118.0699462890625 120.85102844238281 93.65009307861328 107.96456909179688 112.3456039428711 C 129.9996337890625 118.0840835571289 141.87808227539062 109.31258392333984 140.92897033691406 142.18267822265625" stroke-width="2.0" fill="none" stroke="rgb(0, 0, 0)" stroke-opacity="1" stroke-linecap="round" stroke-linejoin="round"/>
    <path d="M 215.82540893554688 209.524658203125 C 198.4474639892578 230.37449645996094 192.00656127929688 223.455322265625 203.64971923828125 229.99349975585938 C 182.0911102294922 189.51922607421875 198.1453399658203 210.90541076660156 228.6258087158203 223.45005798339844 C 227.19366455078125 208.89781188964844 228.87640380859375 200.48269653320312 242.12034606933594 203.7389373779297" stroke-width="2.0" fill="none" stroke="rgb(0, 0, 0)" stroke-opacity="1" stroke-linecap="round" stroke-linejoin="round"/>
    <path d="M 124.30850982666016 219.9114990234375 C 116.27423095703125 189.41453552246094 139.53648376464844 209.26376342773438 112.84815979003906 210.12835693359375 C 102.30908203125 186.5637664794922 100.7835464477539 211.86514282226562 98.62787628173828 198.662353515625 C 84.95628356933594 218.38522338867188 90.83032989501953 195.80044555664062 92.83739471435547 206.42820739746094" stroke-width="2.0" fill="none" stroke="rgb(0, 0, 0)" stroke-opacity="1" stroke-linecap="round" stroke-linejoin="round"/>
    <path d="M 73.80450439453125 -2.6003034114837646 C 43.845252990722656 5.938867568969727 36.024444580078125 7.171006202697754 12.113115310668945 -2.4344840049743652 C 26.814167022705078 -10.041495323181152 30.354393005371094 -13.871312141418457 35.018306732177734 -21.100526809692383 C 30.738460540771484 -16.60247039794922 27.302501678466797 -11.361909866333008 22.520235061645508 -2.3880207538604736" stroke-width="2.0" fill="none" stroke="rgb(0, 0, 0)" stroke-opacity="1" stroke-linecap="round" stroke-linejoin="round"/>
    <path d="M 10.533666610717773 110.10265350341797 C -14.36894416809082 110.1762466430664 -19.651142120361328 117.27609252929688 -14.453633308410645 111.19044494628906" stroke-width="2.0" fill="none" stroke="rgb(0, 0, 0)" stroke-opacity="1" stroke-linecap="round" stroke-linejoin="round"/>
    <path d="M 29.344572067260742 173.23268127441406 C 42.61885070800781 146.37001037597656 28.64549446105957 151.52938842773438 25.037799835205078 168.48385620117188 C 42.00995635986328 167.95445251464844 30.799779891967773 143.80587768554688 25.95652961730957 152.86203002929688" stroke-width="2.0" fill="none" stroke="rgb(0, 0, 0)" stroke-opacity="1" stroke-linecap="round" stroke-linejoin="round"/>
    <path d="M 123.67620086669922 33.47809982299805 C 140.23973083496094 17.332378387451172 131.6518096923828 73.89166259765625 96.89085388183594 89.48483276367188" stroke-width="2.0" fill="none" stroke="rgb(0, 0, 0)" stroke-opacity="1" stroke-linecap="round" stroke-linejoin="round"/>
    <path d="M 39.20563507080078 88.86597442626953 C 25.59046173095703 132.14332580566406 51.76213836669922 93.15667724609375 41.742408752441406 85.00569152832031" stroke-width="2.0" fill="none" stroke="rgb(0, 0, 0)" stroke-opacity="1" stroke-linecap="round" stroke-linejoin="round"/>
    <path d="M 177.66064453125 213.38851928710938 C 211.90335083007812 197.68209838867188 210.1608428955078 197.78155517578125 211.3504638671875 226.04098510742188 C 199.3541717529297 199.55941772460938 188.43849182128906 234.9856414794922 171.69320678710938 226.73529052734375 C 168.69139099121094 218.5795135498047 199.36293029785156 225.08799743652344 173.0674591064453 224.4640350341797" stroke-width="2.0" fill="none" stroke="rgb(0, 0, 0)" stroke-opacity="1" stroke-linecap="round" stroke-linejoin="round"/>
    <path d="M 146.93307495117188 185.4937286376953 C 133.99354553222656 199.03530883789062 122.07130432128906 181.84146118164062 149.10345458984375 197.42860412597656 C 138.55416870117188 176.2337646484375 159.15476989746094 179.40286254882812 152.38587951660156 191.98495483398438 C 135.27308654785156 181.43812561035156 121.1632308959961 216.50546264648438 152.7869110107422 193.5259246826172" stroke-width="2.0" fill="none" stroke="rgb(0, 0, 0)" stroke-opacity="1" stroke-linecap="round" stroke-linejoin="round"/>
    <path d="M 216.7729034423828 76.44033813476562 C 210.62246704101562 91.0827865600586 204.5807342529297 76.65478515625 219.982666015625 90.38935089111328 C 221.8497772216797 82.22505187988281 235.14364624023438 63.918296813964844 217.77235412597656 95.29786682128906" stroke-width="2.0" fill="none" stroke="rgb(0, 0, 0)" stroke-opacity="1" stroke-linecap="round" stroke-linejoin="round"/>
    <path d="M 149.38499450683594 54.50614547729492 C 130.78045654296875 37.78200149536133 147.26766967773438 42.11160659790039 138.7565155029297 44.710594177246094 C 131.94927978515625 51.216732025146484 161.82986450195312 36.12101745605469 136.69949340820312 49.25273895263672" stroke-width="2.0" fill="none" stroke="rgb(0, 0, 0)" stroke-opacity="1" stroke-linecap="round" stroke-linejoin="round"/>
    <path d="M 25.712129592895508 29.736072540283203 C 46.49800109863281 24.08152198791504 58.503150939941406 24.047956466674805 36.08256530761719 26.826732635498047" stroke-width="2.0" fill="none" stroke="rgb(0, 0, 0)" stroke-opacity="1" stroke-linecap="round" stroke-linejoin="round"/>
    <path d="M 12.815842628479004 189.5112762451172 C 31.016834259033203 201.03440856933594 22.48293685913086 183.56793212890625 19.60104751586914 173.43441772460938 C 1.0036613941192627 178.51206970214844 18.219938278198242 152.0580291748047 11.342911720275879 177.99049377441406" stroke-width="2.0" fill="none" stroke="rgb(0, 0, 0)" stroke-opacity="1" stroke-linecap="round" stroke-linejoin="round"/>
    <path d="M 131.66519165039062 111.10916900634766 C 142.2618865966797 151.71815490722656 139.74208068847656 122.89019012451172 137.384765625 120.61965942382812 C 168.2298126220703 153.4331817626953 126.13449096679688 141.3824462890625 147.89825439453125 124.92249298095703" stroke-width="2.0" fill="none" stroke="rgb(0, 0, 0)" stroke-opacity="1" stroke-linecap="round" stroke-linejoin="round"/>
    <path d="M 170.8337860107422 180.07456970214844 C 169.009521484375 182.82167053222656 176.7149200439453 183.12274169921875 182.9883575439453 176.4244842529297" stroke-width="2.0" fill="none" stroke="rgb(0, 0, 0)" stroke-opacity="1" stroke-linecap="round" stroke-linejoin="round"/>
    <path d="M 32.93893051147461 48.06059646606445 C 6.895382881164551 59.08604049682617 38.17729568481445 59.01050567626953 17.98259162902832 66.25411224365234" stroke-width="2.0" fill="none" stroke="rgb(0, 0, 0)" stroke-opacity="1" stroke-linecap="round" stroke-linejoin="round"/>
    <path d="M -0.2422344833612442 158.1693878173828 C 21.16754150390625 99.271728515625 15.655134201049805 89.12612915039062 14.897860527038574 108.5540771484375 C -0.2663661241531372 105.32537841796875 -21.032991409301758 112.76223754882812 -7.147912979125977 109.29005432128906" stroke-width="2.0" fill="none" stroke="rgb(0, 0, 0)" stroke-opacity="1" stroke-linecap="round" stroke-linejoin="round"/>
    <path d="M 9.80892562866211 82.26516723632812 C -11.197994232177734 89.54901123046875 -3.7352802753448486 45.01453399658203 -7.391363620758057 51.000030517578125 C 1.0324846506118774 46.96927261352539 2.082340717315674 59.88039016723633 0.6188938617706299 85.89524841308594 C -5.57181453704834 103.19971466064453 -8.21328067779541 122.91903686523438 -15.715556144714355 107.50775146484375" stroke-width="2.0" fill="none" stroke="rgb(0, 0, 0)" stroke-opacity="1" stroke-linecap="round" stroke-linejoin="round"/>
    <path d="M 112.87019348144531 63.31494903564453 C 92.87653350830078 60.44020080566406 136.52467346191406 77.49470520019531 92.00880432128906 88.45121765136719" stroke-width="2.0" fill="none" stroke="rgb(0, 0, 0)" stroke-opacity="1" stroke-linecap="round" stroke-linejoin="round"/>
    <path d="M 228.37899780273438 189.49359130859375 C 215.08274841308594 195.98731994628906 201.7047119140625 243.13775634765625 224.58639526367188 216.982421875" stroke-width="2.0" fill="none" stroke="rgb(0, 0, 0)" stroke-opacity="1" stroke-linecap="round" stroke-linejoin="round"/>
    <path d="M 83.00757598876953 71.26447296142578 C 90.20562744140625 54.99776077270508 100.75362396240234 77.49568176269531 103.16487884521484 85.26721954345703" stroke-width="2.0" fill="none" stroke="rgb(0, 0, 0)" stroke-opacity="1" stroke-linecap="round" stroke-linejoin="round"/>
    <path d="M 31.67142677307129 137.5956573486328 C 25.67399024963379 131.1295166015625 25.123517990112305 145.76576232910156 37.472137451171875 113.18089294433594" stroke-width="2.0" fill="none" stroke="rgb(0, 0, 0)" stroke-opacity="1" stroke-linecap="round" stroke-linejoin="round"/>
    <path d="M 176.0857391357422 179.85255432128906 C 207.56973266601562 172.3292694091797 212.32386779785156 165.496826171875 182.3896484375 141.98773193359375 C 183.72732543945312 146.93849182128906 196.53955078125 137.7224578857422 196.4386749267578 127.1802978515625 C 202.0689697265625 121.68739318847656 200.10377502441406 110.6970443725586 195.8213653564453 127.04610443115234" stroke-width="2.0" fill="none" stroke="rgb(0, 0, 0)" stroke-opacity="1" stroke-linecap="round" stroke-linejoin="round"/>
    <path d="M 195.34449768066406 63.93830871582031 C 230.32260131835938 49.41548156738281 232.4906768798828 56.22922897338867 224.14517211914062 71.92728424072266 C 242.22500610351562 53.62080001831055 228.6262969970703 59.420257568359375 230.992919921875 62.69757843017578 C 230.4309844970703 77.26117706298828 192.30833435058594 80.47901916503906 188.51510620117188 47.8922119140625" stroke-width="2.0" fill="none" stroke="rgb(0, 0, 0)" stroke-opacity="1" stroke-linecap="round" stroke-linejoin="round"/>
    <path d="M 67.8554458618164 180.37762451171875 C 25.288484573364258 195.35227966308594 29.05101203918457 163.38026428222656 37.6477165222168 209.16307067871094" stroke-width="2.0" fill="none" stroke="rgb(0, 0, 0)" stroke-opacity="1" stroke-linecap="round" stroke-linejoin="round"/>
    <path d="M -2.5601348876953125 50.69746780395508 C 15.116941452026367 49.99089431762695 -0.8287392258644104 54.77813720703125 48.18440246582031 44.04096603393555 C 23.129758834838867 57.0629997253418 47.780399322509766 57.715091705322266 45.727210998535156 64.75585174560547" stroke-width="2.0" fill="none" stroke="rgb(0, 0, 0)" stroke-opacity="1" stroke-linecap="round" stroke-linejoin="round"/>
    <path d="M 209.06394958496094 110.32023620605469 C 206.89561462402344 63.25278854370117 178.11585998535156 65.32881927490234 197.50440979003906 88.49681091308594" stroke-width="2.0" fill="none" stroke="rgb(0, 0, 0)" stroke-opacity="1" stroke-linecap="round" stroke-linejoin="round"/>
    <path d="M 49.11567687988281 199.91786193847656 C 38.15282440185547 190.96627807617188 51.51097869873047 174.64633178710938 45.09353256225586 177.6814422607422" stroke-width="2.0" fill="none" stroke="rgb(0, 0, 0)" stroke-opacity="1" stroke-linecap="round" stroke-linejoin="round"/>
    <path d="M 72.04009246826172 206.34344482421875 C 56.80827713012695 169.99855041503906 91.63810729980469 215.4617919921875 69.24771118164062 182.82705688476562 C 89.99569702148438 168.999267578125 99.41437530517578 183.03147888183594 65.32898712158203 193.56288146972656 C 60.811561584472656 167.08541870117188 53.03554916381836 204.0252227783203 74.17998504638672 179.671875" stroke-width="2.0" fill="none" stroke="rgb(0, 0, 0)" stroke-opacity="1" stroke-linecap="round" stroke-linejoin="round"/>
    <path d="M 195.1654052734375 181.17803955078125 C 162.17263793945312 195.042724609375 177.29576110839844 203.83004760742188 196.56581115722656 224.09219360351562 C 209.59365844726562 200.3563232421875 207.51153564453125 195.43283081054688 218.98699951171875 226.60659790039062 C 208.31149291992188 230.76193237304688 221.3431396484375 225.5674285888672 209.7907257080078 202.96588134765625" stroke-width="2.0" fill="none" stroke="rgb(0, 0, 0)" stroke-opacity="1" stroke-linecap="round" stroke-linejoin="round"/>
    <path d="M 166.31085205078125 134.05560302734375 C 149.89852905273438 146.82200622558594 188.52101135253906 173.2280731201172 172.07254028320312 132.7060089111328 C 184.8169403076172 148.31170654296875 200.1465606689453 145.001708984375 170.3860321044922 148.9630126953125 C 185.89747619628906 145.59959411621094 168.8701171875 164.7786865234375 158.33555603027344 158.09371948242188" stroke-width="2.0" fill="none" stroke="rgb(0, 0, 0)" stroke-opacity="1" stroke-linecap="round" stroke-linejoin="round"/>
    <path d="M 121.01874542236328 197.52310180664062 C 122.7680435180664 184.47796630859375 99.00895690917969 208.0367431640625 118.13460540771484 198.22232055664062" stroke-width="2.0" fill="none" stroke="rgb(0, 0, 0)" stroke-opacity="1" stroke-linecap="round" stroke-linejoin="round"/>
    <path d="M 184.78457641601562 133.36187744140625 C 166.4178924560547 124.73175048828125 197.01287841796875 114.61966705322266 174.51585388183594 108.41812133789062" stroke-width="2.0" fill="none" stroke="rgb(0, 0, 0)" stroke-opacity="1" stroke-linecap="round" stroke-linejoin="round"/>
    <path d="M 9.118465423583984 160.48983764648438 C 24.725521087646484 153.8041534423828 11.819631576538086 143.08921813964844 9.557047843933105 146.96365356445312" stroke-width="2.0" fill="none" stroke="rgb(0, 0, 0)" stroke-opacity="1" stroke-linecap="round" stroke-linejoin="round"/>
    <path d="M 147.6507568359375 209.66802978515625 C 145.64976501464844 200.1927490234375 167.64996337890625 221.28196716308594 139.30081176757812 197.2682647705078 C 171.02427673339844 222.88180541992188 158.71849060058594 204.3122100830078 132.49424743652344 225.848388671875 C 155.69503784179688 230.07489013671875 175.4245147705078 217.7122802734375 141.8053436279297 224.35357666015625" stroke-width="2.0" fill="none" stroke="rgb(0, 0, 0)" stroke-opacity="1" stroke-linecap="round" stroke-linejoin="round"/>
    <path d="M 83.15373992919922 226.38433837890625 C 123.60783386230469 211.0742950439453 134.97793579101562 243.54685974121094 154.010009765625 216.6527557373047 C 108.62664031982422 226.0404052734375 117.80768585205078 206.64529418945312 114.9755630493164 190.77149963378906" stroke-width="2.0" fill="none" stroke="rgb(0, 0, 0)" stroke-opacity="1" stroke-linecap="round" stroke-linejoin="round"/>
    <path d="M 71.4500961303711 185.61705017089844 C 41.96078109741211 188.9061279296875 34.78510665893555 200.56260681152344 58.63520431518555 189.69448852539062 C 62.31722640991211 193.0158233642578 35.39656066894531 194.08755493164062 31.16971778869629 211.0738067626953 C 5.478544235229492 182.36502075195312 41.67692947387695 201.31637573242188 68.89446258544922 196.05760192871094" stroke-width="2.0" fill="none" stroke="rgb(0, 0, 0)" stroke-opacity="1" stroke-linecap="round" stroke-linejoin="round"/>
    <path d="M 66.45394134521484 104.56517791748047 C 62.32221221923828 121.57032012939453 51.2651481628418 86.15867614746094 79.52507781982422 94.8699951171875" stroke-width="2.0" fill="none" stroke="rgb(0, 0, 0)" stroke-opacity="1" stroke-linecap="round" stroke-linejoin="round"/>
    <path d="M 207.34384155273438 113.0223617553711 C 181.26145935058594 139.67539978027344 184.31741333007812 124.31401062011719 195.5014190673828 107.98434448242188 C 191.56187438964844 131.08987426757812 174.91551208496094 145.97816467285156 188.18353271484375 141.22630310058594 C 183.5140838623047 133.51072692871094 193.39112854003906 149.40402221679688 197.52529907226562 111.30506896972656" stroke-width="2.0" fill="none" stroke="rgb(0, 0, 0)" stroke-opacity="1" stroke-linecap="round" stroke-linejoin="round"/>
    <path d="M 6.600716590881348 147.3038330078125 C 39.26464080810547 133.0311737060547 28.57280731201172 97.50221252441406 36.019779205322266 119.64849853515625 C 27.62371063232422 120.69830322265625 35.81264114379883 117.12982177734375 32.93727493286133 94.95645904541016" stroke-width="2.0" fill="none" stroke="rgb(0, 0, 0)" stroke-opacity="1" stroke-linecap="round" stroke-linejoin="round"/>
    <path d="M 134.89581298828125 85.9641342163086 C 132.72193908691406 94.5390625 125.77410125732422 93.71316528320312 126.05817413330078 77.82530975341797 C 137.7337646484375 72.20536804199219 116.498779296875 101.34228515625 91.27548217773438 99.56405639648438 C 132.99620056152344 77.21724700927734 134.20460510253906 134.49462890625 115.60188293457031 118.89057159423828" stroke-width="2.0" fill="none" stroke="rgb(0, 0, 0)" stroke-opacity="1" stroke-linecap="round" stroke-linejoin="round"/>
    <path d="M 206.9885711669922 47.86044692993164 C 221.30322265625 30.006359100341797 221.22195434570312 18.196748733520508 238.30564880371094 -1.0388473272323608 C 226.05047607421875 -6.822459697723389 200.8614501953125 10.572129249572754 168.5261688232422 -4.481300354003906" stroke-width="2.0" fill="none" stroke="rgb(0, 0, 0)" stroke-opacity="1" stroke-linecap="round" stroke-linejoin="round"/>
    <path d="M 93.47820281982422 50.83395004272461 C 117.6244125366211 45.05669403076172 91.94259643554688 40.26940155029297 89.64143371582031 54.41082000732422 C 111.18376922607422 54.7130241394043 63.7740592956543 28.553651809692383 75.03532409667969 31.10558319091797 C 113.71312713623047 32.9933967590332 99.61078643798828 42.282901763916016 87.81258392333984 37.065895080566406" stroke-width="2.0" fill="none" stroke="rgb(0, 0, 0)" stroke-opacity="1" stroke-linecap="round" stroke-linejoin="round"/>
    <path d="M 28.581445693969727 37.33921432495117 C 35.17401885986328 44.43802261352539 30.162307739257812 58.04917526245117 6.729450225830078 30.688718795776367 C 40.56718063354492 43.874298095703125 19.11318588256836 54.22576141357422 47.04081344604492 34.56917953491211 C 14.986193656921387 42.14628219604492 19.84300994873047 51.187679290771484 36.613224029541016 38.23067092895508" stroke-width="2.0" fill="none" stroke="rgb(0, 0, 0)" stroke-opacity="1" stroke-linecap="round" stroke-linejoin="round"/>
    <path d="M 177.93536376953125 57.69468688964844 C 194.90328979492188 75.96178436279297 197.8401641845703 92.4305648803711 197.52017211914062 113.13231658935547 C 201.3319091796875 142.84344482421875 203.76039123535156 122.52059936523438 178.9586639404297 73.36663055419922" stroke-width="2.0" fill="none" stroke="rgb(0, 0, 0)" stroke-opacity="1" stroke-linecap="round" stroke-linejoin="round"/>
    <path d="M -4.663699626922607 22.23740577697754 C -3.9699547290802 36.245670318603516 -6.626595497131348 36.2734260559082 -10.286524772644043 43.932437896728516" stroke-width="2.0" fill="none" stroke="rgb(0, 0, 0)" stroke-opacity="1" stroke-linecap="round" stroke-linejoin="round"/>
    <path d="M 165.9273223876953 212.53167724609375 C 177.94813537597656 239.70899963378906 174.82460021972656 176.7163543701172 184.88455200195312 208.53025817871094" stroke-width="2.0" fill="none" stroke="rgb(0, 0, 0)" stroke-opacity="1" stroke-linecap="round" stroke-linejoin="round"/>
    <path d="M 227.79000854492188 233.6397705078125 C 231.12109375 210.95909118652344 231.165283203125 202.47427368164062 236.5425262451172 205.60482788085938" stroke-width="2.0" fill="none" stroke="rgb(0, 0, 0)" stroke-opacity="1" stroke-linecap="round" stroke-linejoin="round"/>
    <path d="M 22.808752059936523 19.039270401000977 C -3.606673240661621 28.845521926879883 -18.98232650756836 18.38393211364746 13.682760238647461 8.430471420288086 C 4.360658168792725 -1.2304654121398926 -5.682383060455322 45.361873626708984 22.52923011779785 25.817646026611328" stroke-width="2.0" fill="none" stroke="rgb(0, 0, 0)" stroke-opacity="1" stroke-linecap="round" stroke-linejoin="round"/>
    <path d="M 161.89353942871094 26.171646118164062 C 183.46990966796875 19.334354400634766 157.66444396972656 35.451499938964844 178.3131866455078 21.841114044189453" stroke-width="2.0" fill="none" stroke="rgb(0, 0, 0)" stroke-opacity="1" stroke-linecap="round" stroke-linejoin="round"/>
    <path d="M 82.84147644042969 89.59437561035156 C 89.17023468017578 105.56825256347656 72.655029296875 100.31464385986328 79.22891998291016 100.78853607177734 C 58.868961334228516 72.37442016601562 87.41996765136719 72.58668518066406 75.42167663574219 97.56705474853516 C 132.85797119140625 77.47549438476562 92.4825439453125 64.26143646240234 106.6689224243164 81.751708984375" stroke-width="2.0" fill="none" stroke="rgb(0, 0, 0)" stroke-opacity="1" stroke-linecap="round" stroke-linejoin="round"/>
    <path d="M 178.01565551757812 209.38433837890625 C 210.6855010986328 226.1529541015625 206.56719970703125 213.36758422851562 211.7515869140625 207.19618225097656 C 172.41787719726562 193.7222900390625 179.18992614746094 191.21209716796875 197.25563049316406 221.91050720214844 C 188.95635986328125 184.1694793701172 174.8446502685547 165.93003845214844 200.51551818847656 182.95068359375" stroke-width="2.0" fill="none" stroke="rgb(0, 0, 0)" stroke-opacity="1" stroke-linecap="round" stroke-linejoin="round"/>
    <path d="M -7.689855098724365 77.68488311767578 C -7.447535514831543 71.5656509399414 18.915206909179688 79.89183807373047 26.103437423706055 66.421630859375" stroke-width="2.0" fill="none" stroke="rgb(0, 0, 0)" stroke-opacity="1" stroke-linecap="round" stroke-linejoin="round"/>
    <path d="M 149.3732147216797 102.07329559326172 C 138.92372131347656 90.66946411132812 167.82046508789062 96.11128234863281 134.88807678222656 112.8102035522461 C 141.5910186767578 84.44066619873047 143.3188934326172 127.66867065429688 133.09646606445312 96.48809051513672" stroke-width="2.0" fill="none" stroke="rgb(0, 0, 0)" stroke-opacity="1" stroke-linecap="round" stroke-linejoin="round"/>
    <path d="M 86.60685729980469 88.03023529052734 C 95.27933502197266 96.50122833251953 65.3200454711914 93.6640396118164 95.27339172363281 95.4120101928711" stroke-width="2.0" fill="none" stroke="rgb(0, 0, 0)" stroke-opacity="1" stroke-linecap="round" stroke-linejoin="round"/>
    <path d="M 224.73252868652344 201.34689331054688 C 201.90281677246094 216.97064208984375 191.2420196533203 185.80116271972656 215.38133239746094 222.48023986816406 C 208.1925506591797 220.63870239257812 219.58924865722656 214.96417236328125 182.73458862304688 210.10604858398438 C 224.25091552734375 194.22230529785156 218.51348876953125 207.69708251953125 186.7501983642578 213.19998168945312" stroke-width="2.0" fill="none" stroke="rgb(0, 0, 0)" stroke-opacity="1" stroke-linecap="round" stroke-linejoin="round"/>
    <path d="M 11.710249900817871 230.08599853515625 C -5.097024917602539 219.2962188720703 2.3382861614227295 231.8863525390625 -4.640125274658203 240.4221649169922 C 6.204561233520508 236.218017578125 -2.571732759475708 229.875 -2.0542843341827393 233.67591857910156 C -6.047546863555908 236.5513458251953 -15.205423355102539 247.39285278320312 -24.380220413208008 249.68988037109375" stroke-width="2.0" fill="none" stroke="rgb(0, 0, 0)" stroke-opacity="1" stroke-linecap="round" stroke-linejoin="round"/>
    <path d="M 159.68862915039062 10.098814964294434 C 126.74169158935547 20.003925323486328 130.56512451171875 2.7045044898986816 139.7099151611328 -7.604870319366455" stroke-width="2.0" fill="none" stroke="rgb(0, 0, 0)" stroke-opacity="1" stroke-linecap="round" stroke-linejoin="round"/>
    <path d="M 36.458045959472656 55.05326461791992 C 42.91706466674805 72.86640930175781 35.89138412475586 60.224159240722656 38.86457061767578 55.172359466552734" stroke-width="2.0" fill="none" stroke="rgb(0, 0, 0)" stroke-opacity="1" stroke-linecap="round" stroke-linejoin="round"/>
    <path d="M 189.3168182373047 44.31620407104492 C 177.26144409179688 54.32332992553711 151.86488342285156 29.205427169799805 184.1997833251953 27.161317825317383" stroke-width="2.0" fill="none" stroke="rgb(0, 0, 0)" stroke-opacity="1" stroke-linecap="round" stroke-linejoin="round"/>
    <path d="M 189.42416381835938 117.99002075195312 C 197.5683135986328 115.16576385498047 187.53480529785156 150.1737060546875 180.8798828125 151.63714599609375 C 149.54466247558594 142.2257080078125 196.29013061523438 131.65711975097656 185.19970703125 138.6065216064453 C 204.4562225341797 127.12046813964844 219.14488220214844 92.654541015625 198.43995666503906 101.74164581298828" stroke-width="2.0" fill="none" stroke="rgb(0, 0, 0)" stroke-opacity="1" stroke-linecap="round" stroke-linejoin="round"/>
    <path d="M 221.35398864746094 147.81185913085938 C 242.4833984375 135.83363342285156 215.66900634765625 145.30174255371094 200.1839599609375 124.33937072753906" stroke-width="2.0" fill="none" stroke="rgb(0, 0, 0)" stroke-opacity="1" stroke-linecap="round" stroke-linejoin="round"/>
    <path d="M -17.57344627380371 66.29512786865234 C -2.311014413833618 47.37311553955078 -1.0046443939208984 70.4522705078125 -4.76576042175293 42.36428451538086" stroke-width="2.0" fill="none" stroke="rgb(0, 0, 0)" stroke-opacity="1" stroke-linecap="round" stroke-linejoin="round"/>
    <path d="M 43.3183708190918 189.2465362548828 C 15.617671966552734 212.6533660888672 9.631805419921875 209.1025390625 35.54534149169922 184.68800354003906 C 66.24773406982422 198.2643280029297 59.8630485534668 189.65084838867188 -2.4944698810577393 208.8739471435547 C 4.778230667114258 210.13760375976562 12.450531005859375 206.1941375732422 32.76372528076172 205.8345184326172" stroke-width="2.0" fill="none" stroke="rgb(0, 0, 0)" stroke-opacity="1" stroke-linecap="round" stroke-linejoin="round"/>
    <path d="M 136.37722778320312 225.1939239501953 C 122.30632019042969 253.521240234375 132.71002197265625 223.5435028076172 138.3314971923828 225.61627197265625 C 132.65586853027344 244.6191864013672 135.56101989746094 245.0624542236328 137.8795928955078 248.47262573242188 C 145.52456665039062 226.42803955078125 143.65724182128906 232.4173583984375 139.62542724609375 226.27259826660156" stroke-width="2.0" fill="none" stroke="rgb(0, 0, 0)" stroke-opacity="1" stroke-linecap="round" stroke-linejoin="round"/>
    <path d="M 185.36912536621094 174.6336212158203 C 188.13162231445312 169.4952392578125 198.9293975830078 157.7958221435547 164.22122192382812 141.24990844726562" stroke-width="2.0" fill="none" stroke="rgb(0, 0, 0)" stroke-opacity="1" stroke-linecap="round" stroke-linejoin="round"/>
    <path d="M 16.92045783996582 196.73248291015625 C 4.469869613647461 213.48544311523438 0.8672296404838562 200.6494903564453 -14.4112548828125 201.33619689941406 C 15.095295906066895 198.8704376220703 47.27825927734375 205.19883728027344 58.496803283691406 187.57644653320312" stroke-width="2.0" fill="none" stroke="rgb(0, 0, 0)" stroke-opacity="1" stroke-linecap="round" stroke-linejoin="round"/>
    <path d="M 91.88993072509766 141.2796630859375 C 52.67841720581055 147.04238891601562 60.5466423034668 129.97247314453125 55.3032341003418 142.07879638671875 C 68.98048400878906 135.1033935546875 71.31990814208984 146.74462890625 65.47026062011719 152.143310546875 C 71.67815399169922 151.74609375 66.44657135009766 193.38092041015625 94.26058959960938 157.9463348388672" stroke-width="2.0" fill="none" stroke="rgb(0, 0, 0)" stroke-opacity="1" stroke-linecap="round" stroke-linejoin="round"/>
    <path d="M 32.88147735595703 71.99464416503906 C 24.187379837036133 67.08702087402344 32.46479797363281 87.13951110839844 -6.016608715057373 81.5354995727539 C -3.5247690677642822 101.95230865478516 1.1871161460876465 98.42249298095703 -7.314743518829346 101.71388244628906 C -4.965670108795166 96.59555053710938 1.8707746267318726 92.49645233154297 -5.65677547454834 96.78227233886719" stroke-width="2.0" fill="none" stroke="rgb(0, 0, 0)" stroke-opacity="1" stroke-linecap="round" stroke-linejoin="round"/>
    <path d="M 156.5801544189453 46.96175765991211 C 176.04896545410156 42.58297348022461 168.2952880859375 47.51163101196289 148.09986877441406 45.95431137084961 C 160.84170532226562 48.96886444091797 164.74679565429688 37.96188735961914 128.6918182373047 31.265413284301758" stroke-width="2.0" fill="none" stroke="rgb(0, 0, 0)" stroke-opacity="1" stroke-linecap="round" stroke-linejoin="round"/>
    <path d="M 181.43739318847656 203.9193572998047 C 194.34986877441406 214.1804962158203 178.9627227783203 209.9989471435547 158.61512756347656 180.50588989257812 C 168.25445556640625 156.8657989501953 163.7467803955078 206.57357788085938 156.0231475830078 181.05313110351562" stroke-width="2.0" fill="none" stroke="rgb(0, 0, 0)" stroke-opacity="1" stroke-linecap="round" stroke-linejoin="round"/>
    <path d="M 102.93277740478516 162.61769104003906 C 109.9981918334961 196.78062438964844 82.27536010742188 150.54066467285156 107.86309051513672 174.8540496826172 C 119.30097961425781 169.70370483398438 90.86425018310547 186.15379333496094 120.81546020507812 191.48097229003906 C 125.46276092529297 173.9273223876953 125.62427520751953 202.62185668945312 130.79019165039062 187.8983917236328" stroke-width="2.0" fill="none" stroke="rgb(0, 0, 0)" stroke-opacity="1" stroke-linecap="round" stroke-linejoin="round"/>
    <path d="M 157.62355041503906 90.26583862304688 C 158.70252990722656 83.42098999023438 178.6817626953125 85.3924331665039 152.68502807617188 76.62686920166016" stroke-width="2.0" fill="none" stroke="rgb(0, 0, 0)" stroke-opacity="1" stroke-linecap="round" stroke-linejoin="round"/>
    <path d="M -7.104519367218018 203.61233520507812 C -10.338394165039062 182.91119384765625 -13.37338924407959 197.40220642089844 2.0030624866485596 217.65711975097656" stroke-width="2.0" fill="none" stroke="rgb(0, 0, 0)" stroke-opacity="1" stroke-linecap="round" stroke-linejoin="round"/>
    <path d="M 110.35828399658203 -6.25459098815918 C 99.35747528076172 3.8424510955810547 95.52098846435547 7.567531585693359 67.5978775024414 11.492213249206543" stroke-width="2.0" fill="none" stroke="rgb(0, 0, 0)" stroke-opacity="1" stroke-linecap="round" stroke-linejoin="round"/>
    <path d="M 199.11485290527344 -8.200445175170898 C 186.35154724121094 -5.740204334259033 164.27163696289062 -8.497652053833008 129.89935302734375 3.9835686683654785 C 176.50099182128906 -2.5109922885894775 174.9547576904297 -18.927907943725586 162.2381134033203 -1.3105615377426147 C 179.83876037597656 -14.53554916381836 184.49948120117188 9.980855941772461 154.7011260986328 21.328317642211914" stroke-width="2.0" fill="none" stroke="rgb(0, 0, 0)" stroke-opacity="1" stroke-linecap="round" stroke-linejoin="round"/>
    <path d="M 190.55674743652344 -3.0541725158691406 C 172.58175659179688 -8.089302062988281 189.32557678222656 8.622056007385254 173.6887969970703 21.000476837158203 C 155.8765411376953 34.8662223815918 174.32119750976562 31.885337829589844 179.60272216796875 38.79994583129883" stroke-width="2.0" fill="none" stroke="rgb(0, 0, 0)" stroke-opacity="1" stroke-linecap="round" stroke-linejoin="round"/>
    <path d="M 52.22257995605469 230.38888549804688 C 79.79180908203125 217.40505981445312 66.55985260009766 232.7442626953125 94.52713775634766 213.12710571289062 C 87.02848052978516 192.51852416992188 100.35012817382812 223.77804565429688 83.81787872314453 216.42689514160156" stroke-width="2.0" fill="none" stroke="rgb(0, 0, 0)" stroke-opacity="1" stroke-linecap="round" stroke-linejoin="round"/>
    <path d="M 213.8395233154297 50.3342170715332 C 232.70962524414062 15.787062644958496 229.02407836914062 9.608744621276855 212.0227508544922 53.385555267333984 C 217.0017547607422 38.10668182373047 227.92999267578125 44.4546012878418 197.177490234375 61.54347229003906 C 182.52679443359375 63.890663146972656 218.6016082763672 22.63483238220215 198.97503662109375 37.94735336303711" stroke-width="2.0" fill="none" stroke="rgb(0, 0, 0)" stroke-opacity="1" stroke-linecap="round" stroke-linejoin="round"/>
    <path d="M 126.67005920410156 143.5513916015625 C 139.58570861816406 143.89248657226562 118.30557250976562 127.7813949584961 130.6630859375 157.49302673339844" stroke-width="2.0" fill="none" stroke="rgb(0, 0, 0)" stroke-opacity="1" stroke-linecap="round" stroke-linejoin="round"/>
    <path d="M 164.7778778076172 102.4064712524414 C 170.33404541015625 106.08935546875 198.1659393310547 103.48664855957031 183.79617309570312 112.53487396240234" stroke-width="2.0" fill="none" stroke="rgb(0, 0, 0)" stroke-opacity="1" stroke-linecap="round" stroke-linejoin="round"/>
    <path d="M 182.45411682128906 143.11865234375 C 202.92596435546875 136.53274536132812 180.67173767089844 111.36540222167969 159.9708251953125 120.0726318359375 C 152.75209045410156 111.3072280883789 188.23146057128906 119.5822982788086 160.30271911621094 98.57061767578125 C 182.0592803955078 88.83631896972656 200.39337158203125 73.181640625 193.9529571533203 91.35223388671875" stroke-width="2.0" fill="none" stroke="rgb(0, 0, 0)" stroke-opacity="1" stroke-linecap="round" stroke-linejoin="round"/>
    <path d="M 38.74671936035156 218.27549743652344 C 59.33855056762695 185.78245544433594 -6.625987529754639 197.04946899414062 0.4872346818447113 220.7590789794922" stroke-width="2.0" fill="none" stroke="rgb(0, 0, 0)" stroke-opacity="1" stroke-linecap="round" stroke-linejoin="round"/>
    <path d="M 166.6961669921875 125.3890151977539 C 159.6471405029297 132.3830108642578 146.291748046875 126.63738250732422 142.72854614257812 124.85136413574219" stroke-width="2.0" fill="none" stroke="rgb(0, 0, 0)" stroke-opacity="1" stroke-linecap="round" stroke-linejoin="round"/>
    <path d="M 227.64688110351562 218.46205139160156 C 216.25083923339844 184.9228057861328 220.7881317138672 178.2812957763672 210.77935791015625 204.4754180908203 C 171.4402618408203 177.68521118164062 169.05296325683594 175.78729248046875 181.15147399902344 166.33018493652344" stroke-width="2.0" fill="none" stroke="rgb(0, 0, 0)" stroke-opacity="1" stroke-linecap="round" stroke-linejoin="round"/>
    <path d="M 26.549335479736328 10.144614219665527 C -12.868853569030762 21.750465393066406 -30.2978572845459 0.5002986192703247 36.56186294555664 13.820755004882812 C 46.23300552368164 32.37840270996094 21.27496337890625 41.85383605957031 37.980831146240234 19.229543685913086" stroke-width="2.0" fill="none" stroke="rgb(0, 0, 0)" stroke-opacity="1" stroke-linecap="round" stroke-linejoin="round"/>
    <path d="M 228.42575073242188 87.50443267822266 C 217.3510284423828 113.92713165283203 223.7316436767578 125.2303466796875 230.36959838867188 143.31735229492188 C 237.76425170898438 91.25070190429688 230.56509399414062 81.59754943847656 234.58192443847656 76.35248565673828" stroke-width="2.0" fill="none" stroke="rgb(0, 0, 0)" stroke-opacity="1" stroke-linecap="round" stroke-linejoin="round"/>
    <path d="M 170.91217041015625 28.066186904907227 C 186.77220153808594 21.433183670043945 190.39288330078125 6.654417514801025 184.4111785888672 -4.095355987548828" stroke-width="2.0" fill="none" stroke="rgb(0, 0, 0)" stroke-opacity="1" stroke-linecap="round" stroke-linejoin="round"/>
    <path d="M 60.643795013427734 43.878501892089844 C 85.3135757446289 20.823877334594727 60.303443908691406 45.1092529296875 64.35352325439453 15.062603950500488" stroke-width="2.0" fill="none" stroke="rgb(0, 0, 0)" stroke-opacity="1" stroke-linecap="round" stroke-linejoin="round"/>
  </g>
</svg>
