<?xml version="1.0" ?>
<svg xmlns="http://www.w3.org/2000/svg" version="1.1" width="224" height="224">
  <defs/>
  <g>
    <path d="M 62.40121078491211 113.42687225341797 C 54.77033233642578 86.93423461914062 64.17996215820312 106.13496398925781 79.90260314941406 104.03519439697266 C 39.49968719482422 83.79175567626953 64.94865417480469 116.99440002441406 39.01095199584961 92.32319641113281 C 41.82606506347656 87.9180908203125 39.252052307128906 117.75322723388672 40.875946044921875 117.25165557861328" stroke-width="2.0" fill="none" stroke="rgb(0, 0, 0)" stroke-opacity="1" stroke-linecap="round" stroke-linejoin="round"/>
    <path d="M 14.573535919189453 75.42450714111328 C 13.822206497192383 59.23651123046875 5.148562431335449 88.64305114746094 21.008377075195312 80.90277099609375 C 18.421308517456055 48.73002243041992 33.127777099609375 84.12367248535156 19.99585723876953 92.73479461669922 C 40.32878494262695 89.53604125976562 38.737937927246094 79.09412384033203 26.41930389404297 95.03260040283203" stroke-width="2.0" fill="none" stroke="rgb(0, 0, 0)" stroke-opacity="1" stroke-linecap="round" stroke-linejoin="round"/>
    <path d="M 130.2047119140625 137.63523864746094 C 106.10246276855469 116.31778717041016 151.70681762695312 117.41925811767578 125.4038314819336 136.24229431152344 C 164.00445556640625 120.88135528564453 151.11094665527344 144.45143127441406 143.10577392578125 134.80381774902344" stroke-width="2.0" fill="none" stroke="rgb(0, 0, 0)" stroke-opacity="1" stroke-linecap="round" stroke-linejoin="round"/>
    <path d="M 168.2772216796875 115.15921783447266 C 156.1770477294922 130.98138427734375 164.61700439453125 103.30026245117188 175.3013153076172 120.15630340576172 C 154.93154907226562 93.03954315185547 189.25830078125 104.07038116455078 185.55929565429688 102.9245834350586 C 183.25674438476562 110.55476379394531 175.63233947753906 80.52620697021484 184.161376953125 95.65914916992188" stroke-width="2.0" fill="none" stroke="rgb(0, 0, 0)" stroke-opacity="1" stroke-linecap="round" stroke-linejoin="round"/>
    <path d="M 27.418846130371094 194.954833984375 C 34.41803741455078 195.93116760253906 12.694533348083496 196.9340362548828 18.18645477294922 206.89669799804688" stroke-width="2.0" fill="none" stroke="rgb(0, 0, 0)" stroke-opacity="1" stroke-linecap="round" stroke-linejoin="round"/>
    <path d="M 58.08629608154297 39.61382293701172 C 76.93299102783203 42.63079071044922 67.76203155517578 19.722774505615234 53.92839813232422 37.398704528808594 C 54.66419219970703 57.12245559692383 79.80740356445312 42.57962417602539 20.707448959350586 66.13601684570312" stroke-width="2.0" fill="none" stroke="rgb(0, 0, 0)" stroke-opacity="1" stroke-linecap="round" stroke-linejoin="round"/>
    <path d="M 44.076900482177734 150.08717346191406 C 27.13348388671875 139.94818115234375 17.99372673034668 139.49636840820312 27.45883560180664 140.5848846435547 C 32.85873794555664 145.5335235595703 76.52399444580078 110.2641372680664 72.8530502319336 131.35536193847656" stroke-width="2.0" fill="none" stroke="rgb(0, 0, 0)" stroke-opacity="1" stroke-linecap="round" stroke-linejoin="round"/>
    <path d="M 42.678810119628906 154.95068359375 C 43.222843170166016 135.550537109375 40.84150695800781 135.4801788330078 23.471309661865234 132.8457794189453 C 42.45658493041992 134.61033630371094 33.620391845703125 146.5753173828125 51.98477554321289 153.2082977294922" stroke-width="2.0" fill="none" stroke="rgb(0, 0, 0)" stroke-opacity="1" stroke-linecap="round" stroke-linejoin="round"/>
    <path d="M 114.00324249267578 172.73048400878906 C 133.9081573486328 152.83543395996094 95.58028411865234 169.1356201171875 103.72806549072266 168.7199249267578" stroke-width="2.0" fill="none" stroke="rgb(0, 0, 0)" stroke-opacity="1" stroke-linecap="round" stroke-linejoin="round"/>
    <path d="M 206.3476104736328 173.1996307373047 C 208.7928924560547 160.26443481445312 240.78262329101562 169.51234436035156 236.21168518066406 176.963623046875 C 217.4500732421875 155.5265655517578 236.24081420898438 164.2064971923828 239.2340850830078 182.87770080566406 C 232.58067321777344 196.30662536621094 235.66905212402344 187.51687622070312 230.07965087890625 184.3463897705078" stroke-width="2.0" fill="none" stroke="rgb(0, 0, 0)" stroke-opacity="1" stroke-linecap="round" stroke-linejoin="round"/>
    <path d="M 31.99308967590332 208.8626251220703 C 27.429750442504883 197.04127502441406 48.866207122802734 197.89688110351562 30.707115173339844 197.21609497070312 C 47.748809814453125 193.98326110839844 59.55844497680664 225.87579345703125 63.83381652832031 237.43695068359375" stroke-width="2.0" fill="none" stroke="rgb(0, 0, 0)" stroke-opacity="1" stroke-linecap="round" stroke-linejoin="round"/>
    <path d="M 23.777206420898438 7.215825080871582 C 28.01397705078125 16.360363006591797 -0.2329082041978836 8.494355201721191 22.688018798828125 9.87521743774414" stroke-width="2.0" fill="none" stroke="rgb(0, 0, 0)" stroke-opacity="1" stroke-linecap="round" stroke-linejoin="round"/>
    <path d="M 97.56495666503906 33.72998809814453 C 86.59539031982422 14.89201831817627 134.71775817871094 8.059361457824707 78.40986633300781 13.785531997680664" stroke-width="2.0" fill="none" stroke="rgb(0, 0, 0)" stroke-opacity="1" stroke-linecap="round" stroke-linejoin="round"/>
    <path d="M 184.31527709960938 180.59469604492188 C 184.77688598632812 156.77713012695312 159.65249633789062 182.01934814453125 162.02186584472656 170.89724731445312" stroke-width="2.0" fill="none" stroke="rgb(0, 0, 0)" stroke-opacity="1" stroke-linecap="round" stroke-linejoin="round"/>
    <path d="M 35.45090866088867 46.642982482910156 C 41.212642669677734 38.93337631225586 37.341278076171875 27.721282958984375 53.2070198059082 28.536209106445312 C 27.7012996673584 46.803409576416016 28.813949584960938 34.88676834106445 27.501262664794922 28.2340030670166" stroke-width="2.0" fill="none" stroke="rgb(0, 0, 0)" stroke-opacity="1" stroke-linecap="round" stroke-linejoin="round"/>
    <path d="M 166.408935546875 44.30648422241211 C 172.87271118164062 38.062408447265625 145.99639892578125 39.15835952758789 180.158447265625 30.80677604675293 C 162.2078094482422 38.70356369018555 140.6844482421875 41.78800582885742 135.87461853027344 24.627805709838867 C 137.51864624023438 24.74711036682129 156.0265350341797 9.736369132995605 146.02162170410156 20.32394790649414" stroke-width="2.0" fill="none" stroke="rgb(0, 0, 0)" stroke-opacity="1" stroke-linecap="round" stroke-linejoin="round"/>
    <path d="M 24.324695587158203 1.9707812070846558 C 71.69893646240234 6.974438667297363 80.5260238647461 -0.06901980936527252 69.1375961303711 -1.831834316253662 C 66.17034149169922 -6.83899450302124 64.21286010742188 3.5412099361419678 72.77399444580078 0.22212675213813782 C 62.960025787353516 -11.47096061706543 72.71249389648438 -12.022893905639648 79.66868591308594 -18.65220069885254" stroke-width="2.0" fill="none" stroke="rgb(0, 0, 0)" stroke-opacity="1" stroke-linecap="round" stroke-linejoin="round"/>
    <path d="M 149.6998291015625 8.89665699005127 C 133.40386962890625 10.419588088989258 144.8938446044922 1.605897307395935 163.8089599609375 6.951544284820557" stroke-width="2.0" fill="none" stroke="rgb(0, 0, 0)" stroke-opacity="1" stroke-linecap="round" stroke-linejoin="round"/>
    <path d="M -7.344507217407227 42.69926071166992 C -15.307910919189453 55.13917541503906 -12.663151741027832 52.919952392578125 -20.543718338012695 47.35400390625" stroke-width="2.0" fill="none" stroke="rgb(0, 0, 0)" stroke-opacity="1" stroke-linecap="round" stroke-linejoin="round"/>
    <path d="M 204.9524688720703 220.8894805908203 C 203.727294921875 194.50791931152344 215.23634338378906 179.72869873046875 204.84918212890625 175.15447998046875 C 217.20655822753906 170.7992706298828 218.52488708496094 191.1441650390625 203.02801513671875 189.99937438964844" stroke-width="2.0" fill="none" stroke="rgb(0, 0, 0)" stroke-opacity="1" stroke-linecap="round" stroke-linejoin="round"/>
    <path d="M 99.13711547851562 36.14811325073242 C 99.85736083984375 2.249936103820801 120.60853576660156 34.9515266418457 113.49178314208984 19.526819229125977" stroke-width="2.0" fill="none" stroke="rgb(0, 0, 0)" stroke-opacity="1" stroke-linecap="round" stroke-linejoin="round"/>
    <path d="M 59.077579498291016 82.55323791503906 C 48.74939727783203 74.2779312133789 48.4525032043457 93.33160400390625 54.701229095458984 79.70372772216797 C 63.843048095703125 104.64879608154297 56.1292839050293 64.38208770751953 49.336326599121094 82.64253997802734" stroke-width="2.0" fill="none" stroke="rgb(0, 0, 0)" stroke-opacity="1" stroke-linecap="round" stroke-linejoin="round"/>
    <path d="M 32.27236557006836 125.96421813964844 C 23.237577438354492 139.97271728515625 32.92466354370117 133.65585327148438 13.099396705627441 115.47428131103516 C 1.6810325384140015 120.07271575927734 -12.57137680053711 104.66358947753906 -5.9725470542907715 121.09503173828125 C 40.1612548828125 108.59004211425781 0.8400884866714478 120.6888198852539 11.646592140197754 132.72315979003906" stroke-width="2.0" fill="none" stroke="rgb(0, 0, 0)" stroke-opacity="1" stroke-linecap="round" stroke-linejoin="round"/>
    <path d="M 176.53733825683594 114.67626190185547 C 165.4617156982422 108.60588073730469 170.24539184570312 107.65118408203125 174.45819091796875 117.53646087646484 C 186.22067260742188 106.26336669921875 134.5604705810547 111.7334213256836 119.50291442871094 105.74860382080078 C 114.38125610351562 116.91439056396484 112.01087951660156 114.21729278564453 118.64141845703125 105.11437225341797" stroke-width="2.0" fill="none" stroke="rgb(0, 0, 0)" stroke-opacity="1" stroke-linecap="round" stroke-linejoin="round"/>
    <path d="M 131.99925231933594 163.28903198242188 C 136.12596130371094 172.29884338378906 129.2324676513672 185.4120635986328 106.80988311767578 163.07106018066406" stroke-width="2.0" fill="none" stroke="rgb(0, 0, 0)" stroke-opacity="1" stroke-linecap="round" stroke-linejoin="round"/>
    <path d="M 139.3173370361328 187.32765197753906 C 171.03150939941406 193.9844207763672 135.31057739257812 167.42544555664062 160.1454620361328 164.04617309570312 C 146.5719757080078 174.12464904785156 186.93637084960938 183.30921936035156 159.95680236816406 167.6158905029297 C 147.254150390625 172.2771453857422 176.76820373535156 168.49221801757812 134.7892608642578 160.0916290283203" stroke-width="2.0" fill="none" stroke="rgb(0, 0, 0)" stroke-opacity="1" stroke-linecap="round" stroke-linejoin="round"/>
    <path d="M 139.22740173339844 160.93653869628906 C 143.57717895507812 229.7320098876953 153.5325164794922 214.052001953125 144.50697326660156 189.9899139404297 C 169.3055419921875 196.37388610839844 144.609619140625 207.90780639648438 151.09254455566406 197.9523162841797" stroke-width="2.0" fill="none" stroke="rgb(0, 0, 0)" stroke-opacity="1" stroke-linecap="round" stroke-linejoin="round"/>
    <path d="M 194.7613067626953 138.75112915039062 C 227.35980224609375 165.88796997070312 189.7689666748047 149.8641357421875 194.91622924804688 151.0154571533203" stroke-width="2.0" fill="none" stroke="rgb(0, 0, 0)" stroke-opacity="1" stroke-linecap="round" stroke-linejoin="round"/>
    <path d="M 85.60504913330078 80.99645233154297 C 108.5224838256836 67.6052017211914 106.31328582763672 79.08480072021484 118.09671020507812 67.40327453613281 C 107.43356323242188 54.00648498535156 131.4374237060547 85.93383026123047 118.38003540039062 79.63773345947266" stroke-width="2.0" fill="none" stroke="rgb(0, 0, 0)" stroke-opacity="1" stroke-linecap="round" stroke-linejoin="round"/>
    <path d="M 190.66749572753906 135.68148803710938 C 203.45550537109375 152.99510192871094 219.0162811279297 153.4081573486328 195.5831756591797 149.89300537109375 C 198.61415100097656 140.19773864746094 176.88624572753906 121.76055145263672 205.4582977294922 153.31982421875" stroke-width="2.0" fill="none" stroke="rgb(0, 0, 0)" stroke-opacity="1" stroke-linecap="round" stroke-linejoin="round"/>
    <path d="M 164.4466094970703 166.25830078125 C 186.63926696777344 191.01754760742188 160.48118591308594 158.5225830078125 185.99539184570312 169.5199737548828 C 169.0965576171875 170.08657836914062 170.550048828125 200.96194458007812 181.41249084472656 192.13331604003906" stroke-width="2.0" fill="none" stroke="rgb(0, 0, 0)" stroke-opacity="1" stroke-linecap="round" stroke-linejoin="round"/>
    <path d="M 31.745555877685547 188.64877319335938 C 30.75404167175293 178.8494873046875 25.0471248626709 190.9114990234375 62.48502731323242 168.34100341796875 C 33.774314880371094 178.54055786132812 32.9277229309082 177.56678771972656 36.02525329589844 173.5664520263672 C 49.442100524902344 214.12083435058594 50.355812072753906 218.75277709960938 40.71791458129883 181.7830352783203" stroke-width="2.0" fill="none" stroke="rgb(0, 0, 0)" stroke-opacity="1" stroke-linecap="round" stroke-linejoin="round"/>
    <path d="M 60.1885986328125 37.966793060302734 C 56.76533508300781 74.4167709350586 47.49955749511719 55.933837890625 93.59968566894531 46.78829574584961 C 69.97352600097656 51.54205322265625 49.407440185546875 72.08331298828125 48.752079010009766 55.54294967651367" stroke-width="2.0" fill="none" stroke="rgb(0, 0, 0)" stroke-opacity="1" stroke-linecap="round" stroke-linejoin="round"/>
    <path d="M 167.24851989746094 144.2662353515625 C 166.08172607421875 150.35183715820312 158.39256286621094 131.10267639160156 180.21954345703125 138.65057373046875 C 171.9425506591797 124.70065307617188 167.22401428222656 136.20477294921875 171.0359649658203 113.31623077392578 C 168.28390502929688 135.05967712402344 193.20965576171875 125.55742645263672 173.3828887939453 110.517822265625" stroke-width="2.0" fill="none" stroke="rgb(0, 0, 0)" stroke-opacity="1" stroke-linecap="round" stroke-linejoin="round"/>
    <path d="M 59.4911003112793 220.88485717773438 C 56.210968017578125 242.36431884765625 47.044822692871094 249.5041046142578 50.979949951171875 248.2373809814453" stroke-width="2.0" fill="none" stroke="rgb(0, 0, 0)" stroke-opacity="1" stroke-linecap="round" stroke-linejoin="round"/>
    <path d="M 92.17879486083984 99.70817565917969 C 78.70835876464844 78.45901489257812 76.46989440917969 80.64785766601562 106.06382751464844 110.85700988769531 C 95.74259948730469 90.96256256103516 107.49849700927734 107.99791717529297 84.16627502441406 101.22050476074219 C 81.83883666992188 82.17997741699219 110.65937042236328 95.11320495605469 83.481689453125 73.7028579711914" stroke-width="2.0" fill="none" stroke="rgb(0, 0, 0)" stroke-opacity="1" stroke-linecap="round" stroke-linejoin="round"/>
    <path d="M 56.83064270019531 79.66065216064453 C 75.14116668701172 95.18607330322266 37.949462890625 98.73551177978516 57.066165924072266 83.03250122070312" stroke-width="2.0" fill="none" stroke="rgb(0, 0, 0)" stroke-opacity="1" stroke-linecap="round" stroke-linejoin="round"/>
    <path d="M 177.38076782226562 180.06793212890625 C 161.75367736816406 183.98321533203125 199.1449737548828 194.1649169921875 174.83428955078125 200.9418182373047" stroke-width="2.0" fill="none" stroke="rgb(0, 0, 0)" stroke-opacity="1" stroke-linecap="round" stroke-linejoin="round"/>
    <path d="M 119.23104095458984 19.66886329650879 C 106.52137756347656 9.535134315490723 126.00860595703125 5.110795021057129 116.6398696899414 22.692033767700195 C 115.15428161621094 28.749900817871094 127.7869644165039 3.7363224029541016 121.07952117919922 24.3892765045166 C 127.10670471191406 19.839778900146484 124.25846099853516 6.2487664222717285 131.9463653564453 28.421619415283203" stroke-width="2.0" fill="none" stroke="rgb(0, 0, 0)" stroke-opacity="1" stroke-linecap="round" stroke-linejoin="round"/>
    <path d="M 88.14144134521484 97.6272964477539 C 122.27934265136719 96.9005355834961 97.94938659667969 111.46900939941406 78.14241027832031 100.18045043945312 C 88.85749053955078 78.54673767089844 97.78982543945312 84.92526245117188 85.14534759521484 89.99230194091797 C 67.76181030273438 65.34815979003906 119.81767272949219 81.3982925415039 87.76956176757812 95.78528594970703" stroke-width="2.0" fill="none" stroke="rgb(0, 0, 0)" stroke-opacity="1" stroke-linecap="round" stroke-linejoin="round"/>
    <path d="M 163.99212646484375 59.899776458740234 C 175.19757080078125 71.65623474121094 197.942626953125 53.66122817993164 187.2144012451172 71.27941131591797 C 153.21849060058594 59.0594367980957 150.10951232910156 57.052581787109375 169.72007751464844 54.80434799194336 C 156.0261993408203 56.62174987792969 153.921142578125 55.75993728637695 156.52264404296875 74.84255981445312" stroke-width="2.0" fill="none" stroke="rgb(0, 0, 0)" stroke-opacity="1" stroke-linecap="round" stroke-linejoin="round"/>
    <path d="M 22.835708618164062 200.38670349121094 C 5.06519079208374 167.90850830078125 41.328800201416016 179.05975341796875 31.25986099243164 189.97911071777344 C 25.112411499023438 162.6964569091797 -4.003636360168457 179.31484985351562 15.41006851196289 180.2158660888672" stroke-width="2.0" fill="none" stroke="rgb(0, 0, 0)" stroke-opacity="1" stroke-linecap="round" stroke-linejoin="round"/>
    <path d="M 21.63503646850586 92.61078643798828 C 32.71556854248047 66.79006958007812 19.403291702270508 70.98210144042969 -5.687892913818359 69.61703491210938 C 32.273189544677734 79.56880950927734 11.707489013671875 66.63996124267578 19.717044830322266 59.50077819824219 C 17.126785278320312 62.256431579589844 22.543033599853516 48.17574691772461 49.434268951416016 65.02989196777344" stroke-width="2.0" fill="none" stroke="rgb(0, 0, 0)" stroke-opacity="1" stroke-linecap="round" stroke-linejoin="round"/>
    <path d="M 28.364295959472656 131.17437744140625 C 44.27057647705078 129.93174743652344 26.740480422973633 109.46145629882812 22.206073760986328 130.3044891357422 C 18.370298385620117 117.03385162353516 32.13503646850586 142.16407775878906 29.00865364074707 135.2244110107422 C 21.221250534057617 125.87206268310547 30.10430335998535 128.28662109375 38.20710754394531 150.72337341308594" stroke-width="2.0" fill="none" stroke="rgb(0, 0, 0)" stroke-opacity="1" stroke-linecap="round" stroke-linejoin="round"/>
    <path d="M 20.40226173400879 68.62123107910156 C 36.309783935546875 74.68364715576172 18.997169494628906 43.37825393676758 22.761804580688477 75.50128936767578" stroke-width="2.0" fill="none" stroke="rgb(0, 0, 0)" stroke-opacity="1" stroke-linecap="round" stroke-linejoin="round"/>
    <path d="M 161.04843139648438 62.02912902832031 C 154.3542938232422 68.2182388305664 167.63717651367188 62.371490478515625 182.26364135742188 66.57636260986328 C 167.30572509765625 56.723426818847656 167.38238525390625 64.12267303466797 189.9231719970703 65.36134338378906 C 158.8714141845703 61.355369567871094 157.274658203125 59.649349212646484 156.87060546875 65.37076568603516" stroke-width="2.0" fill="none" stroke="rgb(0, 0, 0)" stroke-opacity="1" stroke-linecap="round" stroke-linejoin="round"/>
    <path d="M 114.63748931884766 166.0198211669922 C 130.70889282226562 187.791015625 109.62984466552734 197.46676635742188 121.81877899169922 165.04513549804688 C 99.94827270507812 200.36602783203125 138.34512329101562 190.23049926757812 124.4836196899414 204.3762664794922 C 121.16133117675781 195.24142456054688 97.48556518554688 198.78656005859375 119.41427612304688 223.52044677734375" stroke-width="2.0" fill="none" stroke="rgb(0, 0, 0)" stroke-opacity="1" stroke-linecap="round" stroke-linejoin="round"/>
    <path d="M 71.97776794433594 8.916149139404297 C 68.88040161132812 -8.324847221374512 58.442203521728516 -14.206167221069336 105.4549560546875 0.8927961587905884 C 78.01879119873047 35.510982513427734 58.9825553894043 -2.9821577072143555 82.23239135742188 -1.8576123714447021" stroke-width="2.0" fill="none" stroke="rgb(0, 0, 0)" stroke-opacity="1" stroke-linecap="round" stroke-linejoin="round"/>
    <path d="M 143.62648010253906 228.89898681640625 C 152.06443786621094 192.07276916503906 127.58267211914062 220.68923950195312 151.36285400390625 215.38128662109375" stroke-width="2.0" fill="none" stroke="rgb(0, 0, 0)" stroke-opacity="1" stroke-linecap="round" stroke-linejoin="round"/>
    <path d="M 176.37045288085938 77.02855682373047 C 197.8213653564453 74.9012451171875 170.8766326904297 102.52220916748047 185.1120147705078 98.70459747314453" stroke-width="2.0" fill="none" stroke="rgb(0, 0, 0)" stroke-opacity="1" stroke-linecap="round" stroke-linejoin="round"/>
    <path d="M 210.7229766845703 -3.960035562515259 C 212.2208709716797 4.7740797996521 199.3990478515625 -20.359994888305664 206.89581298828125 -33.09248352050781 C 193.04576110839844 -11.271340370178223 190.96517944335938 -19.66193199157715 200.60072326660156 -21.190208435058594" stroke-width="2.0" fill="none" stroke="rgb(0, 0, 0)" stroke-opacity="1" stroke-linecap="round" stroke-linejoin="round"/>
    <path d="M 60.16472244262695 57.29767990112305 C 64.97415924072266 46.43451690673828 48.684547424316406 33.10380935668945 66.51759338378906 36.345947265625" stroke-width="2.0" fill="none" stroke="rgb(0, 0, 0)" stroke-opacity="1" stroke-linecap="round" stroke-linejoin="round"/>
    <path d="M 97.68313598632812 162.85157775878906 C 124.99484252929688 147.1840057373047 75.83683776855469 154.87440490722656 91.61058807373047 128.0931854248047" stroke-width="2.0" fill="none" stroke="rgb(0, 0, 0)" stroke-opacity="1" stroke-linecap="round" stroke-linejoin="round"/>
    <path d="M 204.45570373535156 121.33615112304688 C 220.59884643554688 128.536376953125 213.76754760742188 99.44961547851562 205.3431854248047 108.64730072021484 C 217.0632781982422 99.51139831542969 224.63986206054688 108.56533813476562 228.9105682373047 120.27149963378906 C 222.29685974121094 106.33808898925781 238.85548400878906 111.71074676513672 241.01034545898438 104.35358428955078" stroke-width="2.0" fill="none" stroke="rgb(0, 0, 0)" stroke-opacity="1" stroke-linecap="round" stroke-linejoin="round"/>
    <path d="M 60.59937286376953 108.2884750366211 C 43.27391815185547 122.37586975097656 71.29332733154297 132.77987670898438 69.9430923461914 136.84092712402344 C 62.05364990234375 123.69257354736328 73.16852569580078 148.62301635742188 80.48593139648438 127.88008117675781" stroke-width="2.0" fill="none" stroke="rgb(0, 0, 0)" stroke-opacity="1" stroke-linecap="round" stroke-linejoin="round"/>
    <path d="M 209.66123962402344 140.74755859375 C 220.28721618652344 165.9276885986328 200.75555419921875 153.36985778808594 198.24844360351562 165.0482940673828 C 216.64146423339844 186.32969665527344 199.63125610351562 169.031982421875 205.03468322753906 179.79263305664062 C 198.740966796875 166.86856079101562 185.63182067871094 155.91331481933594 207.483154296875 158.0429229736328" stroke-width="2.0" fill="none" stroke="rgb(0, 0, 0)" stroke-opacity="1" stroke-linecap="round" stroke-linejoin="round"/>
    <path d="M 179.25848388671875 115.97409057617188 C 179.55838012695312 135.9860382080078 168.05953979492188 99.15448760986328 172.16513061523438 129.44735717773438" stroke-width="2.0" fill="none" stroke="rgb(0, 0, 0)" stroke-opacity="1" stroke-linecap="round" stroke-linejoin="round"/>
    <path d="M 10.333595275878906 44.294097900390625 C 28.47163200378418 49.08681869506836 26.574268341064453 6.698628902435303 8.870865821838379 28.742830276489258" stroke-width="2.0" fill="none" stroke="rgb(0, 0, 0)" stroke-opacity="1" stroke-linecap="round" stroke-linejoin="round"/>
    <path d="M 19.823373794555664 91.78167724609375 C 32.09857940673828 104.22928619384766 10.869421005249023 86.07015991210938 25.77851676940918 90.7498779296875 C 17.779033660888672 92.91986846923828 35.51082992553711 84.10597229003906 21.38985824584961 74.25133514404297" stroke-width="2.0" fill="none" stroke="rgb(0, 0, 0)" stroke-opacity="1" stroke-linecap="round" stroke-linejoin="round"/>
    <path d="M 221.6846160888672 166.3450164794922 C 229.8634033203125 192.40780639648438 227.21871948242188 166.08274841308594 209.00762939453125 166.10784912109375 C 209.74380493164062 176.95347595214844 199.4525604248047 163.1470184326172 230.94424438476562 170.9127960205078" stroke-width="2.0" fill="none" stroke="rgb(0, 0, 0)" stroke-opacity="1" stroke-linecap="round" stroke-linejoin="round"/>
    <path d="M 77.97647857666016 53.40388488769531 C 36.12423324584961 62.03366470336914 28.876365661621094 69.0063705444336 40.97876739501953 65.77783966064453" stroke-width="2.0" fill="none" stroke="rgb(0, 0, 0)" stroke-opacity="1" stroke-linecap="round" stroke-linejoin="round"/>
    <path d="M 94.77941131591797 162.2759552001953 C 97.11366271972656 175.4893341064453 110.45556640625 139.5206756591797 93.90018463134766 162.6780242919922 C 72.56768035888672 147.94215393066406 73.03742218017578 168.77545166015625 38.87809371948242 168.1240692138672 C 17.157670974731445 181.87017822265625 51.74796676635742 187.40985107421875 50.88206100463867 164.52870178222656" stroke-width="2.0" fill="none" stroke="rgb(0, 0, 0)" stroke-opacity="1" stroke-linecap="round" stroke-linejoin="round"/>
    <path d="M 46.15537643432617 200.91952514648438 C 43.519432067871094 210.4434051513672 52.03306579589844 210.90057373046875 40.57189178466797 184.08863830566406 C 46.122989654541016 184.64064025878906 27.869874954223633 178.42129516601562 59.42054748535156 171.1750946044922 C 71.35040283203125 161.483642578125 63.76575469970703 150.0074005126953 72.89855194091797 177.26963806152344" stroke-width="2.0" fill="none" stroke="rgb(0, 0, 0)" stroke-opacity="1" stroke-linecap="round" stroke-linejoin="round"/>
    <path d="M 41.64765548706055 150.09519958496094 C 53.381004333496094 140.24288940429688 30.575748443603516 140.8470916748047 65.55299377441406 128.76991271972656 C 65.87271881103516 150.40834045410156 46.05973815917969 141.15257263183594 42.64312744140625 152.5578155517578" stroke-width="2.0" fill="none" stroke="rgb(0, 0, 0)" stroke-opacity="1" stroke-linecap="round" stroke-linejoin="round"/>
    <path d="M 92.96468353271484 39.40471649169922 C 101.02613067626953 54.785709381103516 73.58084869384766 32.17253494262695 70.77974700927734 59.422664642333984 C 52.77585983276367 40.36065673828125 65.84712219238281 41.65657424926758 77.72377014160156 56.94139862060547" stroke-width="2.0" fill="none" stroke="rgb(0, 0, 0)" stroke-opacity="1" stroke-linecap="round" stroke-linejoin="round"/>
    <path d="M 16.059431076049805 70.6762924194336 C -1.149635672569275 53.336795806884766 -8.343942642211914 99.96830749511719 9.979948997497559 90.30582427978516 C 37.72529983520508 94.36429595947266 39.0627326965332 82.74833679199219 36.556941986083984 104.87061309814453" stroke-width="2.0" fill="none" stroke="rgb(0, 0, 0)" stroke-opacity="1" stroke-linecap="round" stroke-linejoin="round"/>
    <path d="M 212.5777130126953 89.7245101928711 C 191.31942749023438 74.76863098144531 211.84510803222656 67.20053100585938 233.56951904296875 79.97386932373047 C 228.2993927001953 79.33551788330078 226.82015991210938 75.91703033447266 228.73631286621094 72.53234100341797" stroke-width="2.0" fill="none" stroke="rgb(0, 0, 0)" stroke-opacity="1" stroke-linecap="round" stroke-linejoin="round"/>
    <path d="M 15.149357795715332 214.11300659179688 C 15.822880744934082 195.0901641845703 13.850377082824707 198.8562469482422 23.237276077270508 195.90478515625 C 32.22142791748047 198.7605438232422 42.912113189697266 210.54339599609375 28.852455139160156 196.98704528808594" stroke-width="2.0" fill="none" stroke="rgb(0, 0, 0)" stroke-opacity="1" stroke-linecap="round" stroke-linejoin="round"/>
    <path d="M 56.417869567871094 15.892746925354004 C 55.44043731689453 36.49976348876953 39.69093704223633 6.197083473205566 56.8616828918457 8.227842330932617 C 66.44586944580078 26.04694938659668 43.32376480102539 31.905458450317383 57.87904739379883 2.2769389152526855" stroke-width="2.0" fill="none" stroke="rgb(0, 0, 0)" stroke-opacity="1" stroke-linecap="round" stroke-linejoin="round"/>
    <path d="M 187.13038635253906 55.705604553222656 C 200.61453247070312 60.11016845703125 190.57073974609375 88.94000244140625 172.42564392089844 67.0465316772461 C 184.3968963623047 95.93904113769531 195.2995147705078 98.10440063476562 182.42723083496094 102.8221664428711" stroke-width="2.0" fill="none" stroke="rgb(0, 0, 0)" stroke-opacity="1" stroke-linecap="round" stroke-linejoin="round"/>
    <path d="M 215.07241821289062 140.60137939453125 C 230.00851440429688 139.85003662109375 217.737060546875 177.09913635253906 229.95751953125 146.7410888671875" stroke-width="2.0" fill="none" stroke="rgb(0, 0, 0)" stroke-opacity="1" stroke-linecap="round" stroke-linejoin="round"/>
    <path d="M 56.44914627075195 179.69866943359375 C 45.816524505615234 156.79295349121094 78.13968658447266 169.19015502929688 59.779300689697266 163.42286682128906 C 57.69594955444336 183.78208923339844 75.72238159179688 185.05665588378906 69.3972396850586 192.96548461914062" stroke-width="2.0" fill="none" stroke="rgb(0, 0, 0)" stroke-opacity="1" stroke-linecap="round" stroke-linejoin="round"/>
    <path d="M 187.96095275878906 136.46914672851562 C 185.01617431640625 163.58419799804688 167.4536590576172 146.0823516845703 177.61354064941406 144.68423461914062 C 199.18199157714844 143.86923217773438 167.42005920410156 122.97167205810547 164.98411560058594 154.26522827148438" stroke-width="2.0" fill="none" stroke="rgb(0, 0, 0)" stroke-opacity="1" stroke-linecap="round" stroke-linejoin="round"/>
    <path d="M 195.60874938964844 28.677703857421875 C 192.1582489013672 12.801993370056152 165.23257446289062 39.162445068359375 154.87217712402344 37.428409576416016 C 194.5829315185547 30.0782470703125 162.423828125 14.81672477722168 172.29922485351562 29.517549514770508" stroke-width="2.0" fill="none" stroke="rgb(0, 0, 0)" stroke-opacity="1" stroke-linecap="round" stroke-linejoin="round"/>
    <path d="M 34.529823303222656 157.33526611328125 C 36.81000518798828 146.92893981933594 34.795555114746094 143.157958984375 26.85548973083496 127.3013687133789 C 31.20049476623535 154.38394165039062 19.388792037963867 157.40982055664062 16.14412498474121 143.64198303222656 C 6.3123369216918945 179.05667114257812 12.399137496948242 162.73611450195312 13.685691833496094 146.38328552246094" stroke-width="2.0" fill="none" stroke="rgb(0, 0, 0)" stroke-opacity="1" stroke-linecap="round" stroke-linejoin="round"/>
    <path d="M 206.7630615234375 209.08120727539062 C 206.09512329101562 173.53907775878906 215.6402130126953 183.64627075195312 181.90264892578125 181.80337524414062" stroke-width="2.0" fill="none" stroke="rgb(0, 0, 0)" stroke-opacity="1" stroke-linecap="round" stroke-linejoin="round"/>
    <path d="M 182.74073791503906 178.925537109375 C 211.0059814453125 181.64175415039062 230.99966430664062 184.0253448486328 179.9608917236328 183.07266235351562" stroke-width="2.0" fill="none" stroke="rgb(0, 0, 0)" stroke-opacity="1" stroke-linecap="round" stroke-linejoin="round"/>
    <path d="M 100.92623138427734 -6.992791652679443 C 101.96392059326172 -7.42255973815918 104.12169647216797 -14.95997428894043 112.27825164794922 -15.80977725982666 C 109.94273376464844 -15.000737190246582 111.7531967163086 -24.779682159423828 113.45149230957031 -15.671573638916016" stroke-width="2.0" fill="none" stroke="rgb(0, 0, 0)" stroke-opacity="1" stroke-linecap="round" stroke-linejoin="round"/>
    <path d="M 215.0290985107422 24.013381958007812 C 177.56460571289062 22.714859008789062 204.7993927001953 15.589329719543457 182.8750457763672 31.49950408935547" stroke-width="2.0" fill="none" stroke="rgb(0, 0, 0)" stroke-opacity="1" stroke-linecap="round" stroke-linejoin="round"/>
    <path d="M 135.3623809814453 20.196208953857422 C 115.00255584716797 13.965198516845703 111.13245391845703 27.54163360595703 110.36975860595703 18.767030715942383 C 98.16500091552734 18.28560447692871 94.84209442138672 5.052842617034912 109.78887176513672 -6.069574356079102" stroke-width="2.0" fill="none" stroke="rgb(0, 0, 0)" stroke-opacity="1" stroke-linecap="round" stroke-linejoin="round"/>
    <path d="M 169.64117431640625 52.315757751464844 C 178.84681701660156 26.363435745239258 147.61846923828125 43.7685432434082 171.29367065429688 32.43317794799805" stroke-width="2.0" fill="none" stroke="rgb(0, 0, 0)" stroke-opacity="1" stroke-linecap="round" stroke-linejoin="round"/>
    <path d="M 97.63663482666016 146.31431579589844 C 119.72039031982422 161.17054748535156 90.87561798095703 139.09332275390625 91.6491470336914 161.48065185546875 C 69.1410140991211 137.70404052734375 89.80392456054688 183.6595916748047 85.2923355102539 157.38192749023438 C 103.43436431884766 169.78720092773438 109.70263671875 173.42819213867188 103.77220153808594 163.88778686523438" stroke-width="2.0" fill="none" stroke="rgb(0, 0, 0)" stroke-opacity="1" stroke-linecap="round" stroke-linejoin="round"/>
    <path d="M 192.4378204345703 28.50494956970215 C 189.73114013671875 19.236591339111328 196.60008239746094 27.143796920776367 213.3086395263672 18.157760620117188 C 225.37962341308594 31.996463775634766 191.11758422851562 33.202701568603516 219.28750610351562 54.71818161010742" stroke-width="2.0" fill="none" stroke="rgb(0, 0, 0)" stroke-opacity="1" stroke-linecap="round" stroke-linejoin="round"/>
    <path d="M 126.14192962646484 103.95743560791016 C 171.2736053466797 111.32723236083984 152.50372314453125 110.6995849609375 143.5745391845703 72.10078430175781" stroke-width="2.0" fill="none" stroke="rgb(0, 0, 0)" stroke-opacity="1" stroke-linecap="round" stroke-linejoin="round"/>
    <path d="M 150.6788330078125 130.2840118408203 C 136.60516357421875 117.37733459472656 142.73985290527344 153.16763305664062 144.1878204345703 133.4669189453125" stroke-width="2.0" fill="none" stroke="rgb(0, 0, 0)" stroke-opacity="1" stroke-linecap="round" stroke-linejoin="round"/>
    <path d="M 16.244752883911133 165.71189880371094 C -4.440329551696777 177.9408416748047 -13.62733268737793 152.4336395263672 30.007841110229492 141.4755401611328 C 24.85488510131836 138.5537567138672 -7.441895961761475 140.37808227539062 7.8474297523498535 149.85647583007812 C -14.744604110717773 160.7240753173828 -24.54804801940918 154.7340545654297 -31.317895889282227 153.5103759765625" stroke-width="2.0" fill="none" stroke="rgb(0, 0, 0)" stroke-opacity="1" stroke-linecap="round" stroke-linejoin="round"/>
    <path d="M 79.86637115478516 16.6173095703125 C 63.71054458618164 -1.901813268661499 92.23045349121094 -3.142113208770752 80.140380859375 13.908626556396484" stroke-width="2.0" fill="none" stroke="rgb(0, 0, 0)" stroke-opacity="1" stroke-linecap="round" stroke-linejoin="round"/>
    <path d="M 178.9006805419922 87.50491333007812 C 227.76876831054688 76.65943908691406 217.0052032470703 88.75210571289062 181.70703125 87.09001922607422 C 192.9120330810547 78.1424331665039 165.4586181640625 85.83855438232422 176.76492309570312 90.59991455078125" stroke-width="2.0" fill="none" stroke="rgb(0, 0, 0)" stroke-opacity="1" stroke-linecap="round" stroke-linejoin="round"/>
    <path d="M 69.70018005371094 129.3839569091797 C 75.4939956665039 144.62059020996094 78.9638671875 109.67389678955078 93.35033416748047 124.75348663330078 C 98.04785919189453 147.0662078857422 78.93224334716797 125.89895629882812 79.69115447998047 124.99481964111328 C 82.34882354736328 161.89535522460938 78.8218765258789 143.06741333007812 82.34162902832031 131.4663543701172" stroke-width="2.0" fill="none" stroke="rgb(0, 0, 0)" stroke-opacity="1" stroke-linecap="round" stroke-linejoin="round"/>
    <path d="M 17.25572395324707 107.70769500732422 C 8.449623107910156 107.78146362304688 10.802386283874512 87.59781646728516 9.088577270507812 103.25293731689453 C -3.880350351333618 84.65859985351562 45.60261917114258 100.3943862915039 20.581083297729492 71.78155517578125" stroke-width="2.0" fill="none" stroke="rgb(0, 0, 0)" stroke-opacity="1" stroke-linecap="round" stroke-linejoin="round"/>
    <path d="M 144.830078125 -1.591284990310669 C 164.47561645507812 28.76595687866211 142.7416229248047 26.450166702270508 121.02266693115234 15.951056480407715 C 137.74993896484375 4.984530448913574 136.01210021972656 17.20199966430664 145.8114013671875 48.9702033996582 C 138.41128540039062 16.73505210876465 138.39398193359375 40.178436279296875 150.90728759765625 35.006324768066406" stroke-width="2.0" fill="none" stroke="rgb(0, 0, 0)" stroke-opacity="1" stroke-linecap="round" stroke-linejoin="round"/>
    <path d="M 115.99039459228516 131.8720245361328 C 113.85034942626953 168.15330505371094 118.74366760253906 116.05245971679688 122.58048248291016 138.3828125" stroke-width="2.0" fill="none" stroke="rgb(0, 0, 0)" stroke-opacity="1" stroke-linecap="round" stroke-linejoin="round"/>
    <path d="M 100.11006927490234 24.330190658569336 C 129.18968200683594 3.508316993713379 69.76485443115234 7.915529251098633 84.48919677734375 14.939362525939941" stroke-width="2.0" fill="none" stroke="rgb(0, 0, 0)" stroke-opacity="1" stroke-linecap="round" stroke-linejoin="round"/>
    <path d="M 67.05767822265625 181.6433868408203 C 44.31208419799805 152.1055145263672 41.10504150390625 172.3925323486328 50.63235855102539 185.3934783935547" stroke-width="2.0" fill="none" stroke="rgb(0, 0, 0)" stroke-opacity="1" stroke-linecap="round" stroke-linejoin="round"/>
    <path d="M 60.3395881652832 206.80154418945312 C 74.65065002441406 209.4663543701172 54.683162689208984 188.63650512695312 76.01546478271484 184.27389526367188 C 99.43217468261719 180.86196899414062 87.46785736083984 207.33908081054688 88.46898651123047 190.84600830078125 C 103.36174774169922 230.58790588378906 67.14857482910156 204.6319580078125 93.43275451660156 208.6124725341797" stroke-width="2.0" fill="none" stroke="rgb(0, 0, 0)" stroke-opacity="1" stroke-linecap="round" stroke-linejoin="round"/>
    <path d="M 215.96044921875 58.878875732421875 C 215.61416625976562 65.72970581054688 211.68502807617188 36.782405853271484 220.78213500976562 51.95166015625 C 187.78843688964844 52.9559440612793 178.64100646972656 54.345619201660156 182.0822296142578 55.224098205566406" stroke-width="2.0" fill="none" stroke="rgb(0, 0, 0)" stroke-opacity="1" stroke-linecap="round" stroke-linejoin="round"/>
    <path d="M 45.37006759643555 143.4357147216797 C 47.10688400268555 163.48831176757812 61.35337448120117 153.2739715576172 46.07035827636719 142.38528442382812 C 36.453712463378906 171.39195251464844 55.208194732666016 171.73995971679688 78.54579162597656 156.10337829589844 C 74.24032592773438 164.77487182617188 66.15630340576172 149.78469848632812 74.29794311523438 164.65760803222656" stroke-width="2.0" fill="none" stroke="rgb(0, 0, 0)" stroke-opacity="1" stroke-linecap="round" stroke-linejoin="round"/>
    <path d="M 20.798686981201172 98.54681396484375 C 2.68027400970459 126.0981216430664 -0.008670773357152939 113.47471618652344 -5.684269905090332 83.22097778320312 C -5.028802871704102 93.29182434082031 -13.650252342224121 83.21661376953125 -18.942764282226562 83.67498779296875 C -24.998903274536133 77.25762939453125 -24.58905601501465 77.9864273071289 -34.78847885131836 69.17945098876953" stroke-width="2.0" fill="none" stroke="rgb(0, 0, 0)" stroke-opacity="1" stroke-linecap="round" stroke-linejoin="round"/>
    <path d="M 81.7237548828125 47.52146911621094 C 93.6087417602539 65.44313049316406 95.26807403564453 51.5131721496582 119.0353775024414 49.435462951660156 C 116.84215545654297 58.564849853515625 118.45166778564453 103.63568878173828 117.26560974121094 55.69327926635742 C 101.710693359375 58.197933197021484 111.85033416748047 82.8856201171875 112.259033203125 66.5995864868164" stroke-width="2.0" fill="none" stroke="rgb(0, 0, 0)" stroke-opacity="1" stroke-linecap="round" stroke-linejoin="round"/>
    <path d="M 17.632789611816406 178.2532196044922 C 9.716663360595703 209.2688446044922 51.154205322265625 197.93467712402344 38.74952697753906 182.37246704101562 C 41.39667892456055 187.29490661621094 51.692745208740234 203.99594116210938 45.661224365234375 204.2806396484375 C 39.079437255859375 219.144775390625 60.70090103149414 214.01271057128906 57.965660095214844 206.9785614013672" stroke-width="2.0" fill="none" stroke="rgb(0, 0, 0)" stroke-opacity="1" stroke-linecap="round" stroke-linejoin="round"/>
    <path d="M 147.9948272705078 12.74740219116211 C 143.26657104492188 -8.119484901428223 162.20912170410156 -21.969863891601562 143.34017944335938 -8.616750717163086" stroke-width="2.0" fill="none" stroke="rgb(0, 0, 0)" stroke-opacity="1" stroke-linecap="round" stroke-linejoin="round"/>
    <path d="M 186.2675323486328 59.98381042480469 C 178.10671997070312 71.78962707519531 172.3812255859375 42.01564407348633 195.32029724121094 55.78103256225586" stroke-width="2.0" fill="none" stroke="rgb(0, 0, 0)" stroke-opacity="1" stroke-linecap="round" stroke-linejoin="round"/>
    <path d="M 135.82424926757812 47.06273651123047 C 155.58705139160156 31.95082664489746 156.79165649414062 38.07813262939453 142.4948272705078 35.26449203491211 C 140.08416748046875 28.44373893737793 160.11073303222656 42.5484619140625 132.18356323242188 46.721435546875 C 127.99456024169922 32.61697769165039 157.0714874267578 32.5660514831543 159.5483856201172 41.45137405395508" stroke-width="2.0" fill="none" stroke="rgb(0, 0, 0)" stroke-opacity="1" stroke-linecap="round" stroke-linejoin="round"/>
    <path d="M 207.16552734375 117.44223022460938 C 202.5052032470703 108.39327239990234 212.908203125 94.77916717529297 207.31063842773438 78.78575897216797 C 212.67977905273438 126.10061645507812 214.5480499267578 115.93199920654297 183.01657104492188 117.58213806152344" stroke-width="2.0" fill="none" stroke="rgb(0, 0, 0)" stroke-opacity="1" stroke-linecap="round" stroke-linejoin="round"/>
    <path d="M 48.73935317993164 141.8079071044922 C 35.64764404296875 146.92385864257812 41.06551742553711 159.8214874267578 51.42329406738281 168.36268615722656" stroke-width="2.0" fill="none" stroke="rgb(0, 0, 0)" stroke-opacity="1" stroke-linecap="round" stroke-linejoin="round"/>
    <path d="M 79.31782531738281 158.11053466796875 C 61.25106430053711 175.8640594482422 46.061424255371094 170.2462158203125 61.34402084350586 171.65011596679688 C 70.077392578125 190.4727325439453 85.26754760742188 197.8072967529297 80.67668914794922 184.0454559326172 C 97.00768280029297 194.27320861816406 80.29999542236328 214.74993896484375 93.96366119384766 241.89666748046875" stroke-width="2.0" fill="none" stroke="rgb(0, 0, 0)" stroke-opacity="1" stroke-linecap="round" stroke-linejoin="round"/>
    <path d="M 214.33935546875 210.45416259765625 C 195.663818359375 214.2267303466797 218.39170837402344 203.0165557861328 200.52154541015625 206.29037475585938" stroke-width="2.0" fill="none" stroke="rgb(0, 0, 0)" stroke-opacity="1" stroke-linecap="round" stroke-linejoin="round"/>
    <path d="M 231.7161102294922 166.12295532226562 C 219.8603057861328 165.64321899414062 195.75457763671875 161.2813720703125 207.54830932617188 173.02769470214844 C 226.01319885253906 176.93919372558594 163.2736053466797 164.8998260498047 180.18556213378906 177.20355224609375 C 169.36822509765625 194.98617553710938 168.86700439453125 175.42852783203125 195.9629364013672 182.6067657470703" stroke-width="2.0" fill="none" stroke="rgb(0, 0, 0)" stroke-opacity="1" stroke-linecap="round" stroke-linejoin="round"/>
    <path d="M 212.9325714111328 27.895172119140625 C 195.7049102783203 12.074134826660156 232.6748046875 4.2855753898620605 222.7808837890625 33.989112854003906 C 214.41925048828125 36.91059875488281 234.73269653320312 22.743885040283203 231.32550048828125 -10.293452262878418" stroke-width="2.0" fill="none" stroke="rgb(0, 0, 0)" stroke-opacity="1" stroke-linecap="round" stroke-linejoin="round"/>
    <path d="M 12.708062171936035 91.99725341796875 C 35.12248229980469 101.01737976074219 -6.1041107177734375 119.13390350341797 4.645155429840088 92.5697250366211" stroke-width="2.0" fill="none" stroke="rgb(0, 0, 0)" stroke-opacity="1" stroke-linecap="round" stroke-linejoin="round"/>
    <path d="M 209.23109436035156 183.2943572998047 C 192.70333862304688 196.41000366210938 209.08529663085938 202.6463165283203 209.58822631835938 206.31971740722656 C 189.10678100585938 212.27386474609375 200.68942260742188 213.51490783691406 192.67291259765625 208.09608459472656 C 189.76681518554688 253.61224365234375 217.26425170898438 258.0573425292969 206.12893676757812 205.645263671875" stroke-width="2.0" fill="none" stroke="rgb(0, 0, 0)" stroke-opacity="1" stroke-linecap="round" stroke-linejoin="round"/>
    <path d="M 49.955570220947266 150.1444549560547 C 31.090839385986328 127.04165649414062 67.61099243164062 117.15666961669922 68.75672912597656 144.60076904296875" stroke-width="2.0" fill="none" stroke="rgb(0, 0, 0)" stroke-opacity="1" stroke-linecap="round" stroke-linejoin="round"/>
    <path d="M 66.57864379882812 116.20661163330078 C 57.448944091796875 167.49899291992188 49.39014434814453 125.64888763427734 52.499942779541016 145.03842163085938" stroke-width="2.0" fill="none" stroke="rgb(0, 0, 0)" stroke-opacity="1" stroke-linecap="round" stroke-linejoin="round"/>
    <path d="M 166.8739776611328 7.943477630615234 C 171.6583709716797 -12.573308944702148 167.7903289794922 -23.22541046142578 166.3662567138672 -29.696809768676758 C 150.70680236816406 -9.25131893157959 157.98873901367188 -12.659747123718262 151.93719482421875 -14.967451095581055 C 143.83181762695312 -13.256574630737305 134.58267211914062 -3.7557520866394043 136.15435791015625 -7.394692420959473" stroke-width="2.0" fill="none" stroke="rgb(0, 0, 0)" stroke-opacity="1" stroke-linecap="round" stroke-linejoin="round"/>
    <path d="M 151.4545440673828 43.22885513305664 C 155.14723205566406 31.84849739074707 154.2758331298828 37.036685943603516 153.6521759033203 32.38092041015625 C 146.1017608642578 44.705326080322266 122.20187377929688 48.120479583740234 133.00022888183594 48.45278549194336 C 141.42678833007812 72.37938690185547 103.35636138916016 67.68232727050781 122.14759826660156 52.59819412231445" stroke-width="2.0" fill="none" stroke="rgb(0, 0, 0)" stroke-opacity="1" stroke-linecap="round" stroke-linejoin="round"/>
    <path d="M 89.85626220703125 36.895606994628906 C 89.61582946777344 69.99280548095703 88.14305114746094 50.872535705566406 82.92030334472656 42.03883743286133 C 45.26401901245117 52.05533218383789 41.38716125488281 77.59807586669922 37.50873947143555 59.416446685791016" stroke-width="2.0" fill="none" stroke="rgb(0, 0, 0)" stroke-opacity="1" stroke-linecap="round" stroke-linejoin="round"/>
    <path d="M 219.1436767578125 63.594242095947266 C 199.17245483398438 18.248680114746094 244.739501953125 46.27831268310547 216.2573699951172 61.326839447021484 C 221.25140380859375 43.77903366088867 206.05137634277344 71.54889678955078 218.5528564453125 72.97404479980469 C 203.96249389648438 25.186384201049805 222.43350219726562 44.71448516845703 229.5796661376953 46.23451614379883" stroke-width="2.0" fill="none" stroke="rgb(0, 0, 0)" stroke-opacity="1" stroke-linecap="round" stroke-linejoin="round"/>
    <path d="M 66.78277587890625 191.83790588378906 C 74.93955993652344 210.66416931152344 60.63805389404297 215.5834503173828 58.19894027709961 203.99282836914062" stroke-width="2.0" fill="none" stroke="rgb(0, 0, 0)" stroke-opacity="1" stroke-linecap="round" stroke-linejoin="round"/>
    <path d="M 203.10108947753906 20.24531364440918 C 181.7338104248047 -3.2576355934143066 211.06341552734375 8.733654975891113 194.7151641845703 10.501150131225586" stroke-width="2.0" fill="none" stroke="rgb(0, 0, 0)" stroke-opacity="1" stroke-linecap="round" stroke-linejoin="round"/>
    <path d="M 36.27798843383789 86.01697540283203 C 51.80199432373047 84.32039642333984 43.898868560791016 94.7448501586914 43.50705337524414 97.47177124023438 C 48.644771575927734 115.20965576171875 74.89849090576172 85.45594787597656 59.0889892578125 114.52098846435547" stroke-width="2.0" fill="none" stroke="rgb(0, 0, 0)" stroke-opacity="1" stroke-linecap="round" stroke-linejoin="round"/>
    <path d="M -2.41837215423584 157.21971130371094 C 36.669986724853516 127.15756225585938 36.50896453857422 148.8319549560547 6.573570251464844 145.48306274414062 C 16.334585189819336 140.671142578125 28.696138381958008 156.10206604003906 19.338869094848633 143.73440551757812" stroke-width="2.0" fill="none" stroke="rgb(0, 0, 0)" stroke-opacity="1" stroke-linecap="round" stroke-linejoin="round"/>
    <path d="M 176.95205688476562 115.16239929199219 C 209.78280639648438 112.16902923583984 233.818603515625 117.62590026855469 175.05186462402344 115.36058044433594 C 210.59584045410156 106.99983978271484 214.19239807128906 117.71288299560547 207.70689392089844 119.35364532470703" stroke-width="2.0" fill="none" stroke="rgb(0, 0, 0)" stroke-opacity="1" stroke-linecap="round" stroke-linejoin="round"/>
    <path d="M 118.2614517211914 201.78463745117188 C 125.70417022705078 225.69493103027344 106.85810852050781 201.35391235351562 119.12187194824219 202.32334899902344 C 139.66575622558594 194.7064208984375 116.43608093261719 213.6075897216797 120.11290740966797 200.0371551513672" stroke-width="2.0" fill="none" stroke="rgb(0, 0, 0)" stroke-opacity="1" stroke-linecap="round" stroke-linejoin="round"/>
    <path d="M 171.91287231445312 132.77159118652344 C 158.39480590820312 129.2908477783203 150.64735412597656 142.6067657470703 163.82325744628906 144.17369079589844 C 152.1792449951172 132.77346801757812 178.89859008789062 131.76634216308594 177.34793090820312 147.39427185058594" stroke-width="2.0" fill="none" stroke="rgb(0, 0, 0)" stroke-opacity="1" stroke-linecap="round" stroke-linejoin="round"/>
    <path d="M 144.76121520996094 196.5498046875 C 169.07449340820312 156.25201416015625 136.931396484375 140.30300903320312 170.68995666503906 146.78102111816406 C 182.55743408203125 132.16677856445312 147.0670623779297 156.25277709960938 147.1696014404297 133.8942413330078" stroke-width="2.0" fill="none" stroke="rgb(0, 0, 0)" stroke-opacity="1" stroke-linecap="round" stroke-linejoin="round"/>
    <path d="M 174.00289916992188 227.4940948486328 C 172.0480194091797 191.70831298828125 178.00770568847656 190.13633728027344 179.98304748535156 194.98707580566406 C 167.8407440185547 188.1890411376953 188.30030822753906 219.47962951660156 171.0711212158203 210.29713439941406" stroke-width="2.0" fill="none" stroke="rgb(0, 0, 0)" stroke-opacity="1" stroke-linecap="round" stroke-linejoin="round"/>
    <path d="M 149.35690307617188 48.91781234741211 C 162.0799560546875 55.195899963378906 159.44432067871094 41.556644439697266 149.63768005371094 33.3428840637207 C 155.250732421875 37.40343475341797 156.1207733154297 40.21763229370117 152.30206298828125 39.79143524169922 C 127.71542358398438 48.09186553955078 129.19979858398438 47.416053771972656 143.4529571533203 41.59550094604492" stroke-width="2.0" fill="none" stroke="rgb(0, 0, 0)" stroke-opacity="1" stroke-linecap="round" stroke-linejoin="round"/>
    <path d="M 36.56782150268555 189.577392578125 C 38.991310119628906 156.1710968017578 38.3862419128418 181.5354461669922 56.72321319580078 161.7520294189453 C 69.78109741210938 162.1761474609375 56.383174896240234 136.30226135253906 37.72188949584961 147.78073120117188" stroke-width="2.0" fill="none" stroke="rgb(0, 0, 0)" stroke-opacity="1" stroke-linecap="round" stroke-linejoin="round"/>
    <path d="M 163.69284057617188 143.74310302734375 C 203.951904296875 146.11346435546875 208.560791015625 131.8856964111328 174.0792694091797 144.58010864257812" stroke-width="2.0" fill="none" stroke="rgb(0, 0, 0)" stroke-opacity="1" stroke-linecap="round" stroke-linejoin="round"/>
    <path d="M 59.07426452636719 100.54008483886719 C 30.970460891723633 110.65818786621094 57.51648712158203 78.37142944335938 53.820594787597656 95.32747650146484 C 55.970314025878906 115.37019348144531 50.147071838378906 87.98438262939453 44.2125129699707 97.55834197998047" stroke-width="2.0" fill="none" stroke="rgb(0, 0, 0)" stroke-opacity="1" stroke-linecap="round" stroke-linejoin="round"/>
    <path d="M 69.60540008544922 73.36160278320312 C 93.68456268310547 75.3645248413086 69.99215698242188 58.007667541503906 78.22442626953125 68.84440612792969 C 95.4728012084961 60.303443908691406 88.53499603271484 89.67671966552734 71.00321197509766 54.038063049316406 C 69.2273941040039 77.73157501220703 94.37066650390625 67.83247375488281 79.68197631835938 68.0728759765625" stroke-width="2.0" fill="none" stroke="rgb(0, 0, 0)" stroke-opacity="1" stroke-linecap="round" stroke-linejoin="round"/>
    <path d="M 35.95842361450195 89.3179931640625 C 47.85182189941406 94.22779846191406 49.51068115234375 107.08396911621094 44.690155029296875 96.84741973876953 C 40.107940673828125 75.72441864013672 38.866844177246094 103.49974822998047 14.442925453186035 99.06383514404297 C 25.396203994750977 123.24964141845703 8.222357749938965 125.2049560546875 23.90547752380371 127.90896606445312" stroke-width="2.0" fill="none" stroke="rgb(0, 0, 0)" stroke-opacity="1" stroke-linecap="round" stroke-linejoin="round"/>
    <path d="M 200.47512817382812 9.322427749633789 C 181.30413818359375 46.62613296508789 175.1317901611328 16.319015502929688 177.93606567382812 32.47385787963867 C 179.2978057861328 43.97142028808594 197.75157165527344 38.503173828125 179.4755401611328 22.867158889770508" stroke-width="2.0" fill="none" stroke="rgb(0, 0, 0)" stroke-opacity="1" stroke-linecap="round" stroke-linejoin="round"/>
    <path d="M 153.11317443847656 -0.04877310246229172 C 130.5869903564453 29.257144927978516 140.8888702392578 32.438819885253906 141.57791137695312 33.76190185546875 C 128.14613342285156 30.391151428222656 122.96808624267578 50.714874267578125 132.63331604003906 52.41541290283203 C 126.44021606445312 37.0269889831543 138.63511657714844 59.00788116455078 140.04234313964844 28.46994400024414" stroke-width="2.0" fill="none" stroke="rgb(0, 0, 0)" stroke-opacity="1" stroke-linecap="round" stroke-linejoin="round"/>
    <path d="M 98.3467788696289 27.933860778808594 C 100.28162384033203 72.9769287109375 80.7324447631836 43.92330551147461 99.21819305419922 53.00658416748047 C 108.30883026123047 19.624271392822266 72.459716796875 35.28213119506836 93.14899444580078 43.827449798583984" stroke-width="2.0" fill="none" stroke="rgb(0, 0, 0)" stroke-opacity="1" stroke-linecap="round" stroke-linejoin="round"/>
    <path d="M 132.22181701660156 21.865407943725586 C 145.98973083496094 30.956138610839844 142.11477661132812 41.844200134277344 130.50559997558594 15.86021900177002 C 139.16854858398438 22.550310134887695 140.93191528320312 45.39925003051758 159.66696166992188 30.922929763793945 C 146.53659057617188 40.75342559814453 149.44358825683594 31.69904899597168 137.75103759765625 34.493492126464844" stroke-width="2.0" fill="none" stroke="rgb(0, 0, 0)" stroke-opacity="1" stroke-linecap="round" stroke-linejoin="round"/>
    <path d="M 187.55258178710938 26.914751052856445 C 235.7666473388672 14.775351524353027 169.78323364257812 5.635630130767822 190.75733947753906 23.085233688354492" stroke-width="2.0" fill="none" stroke="rgb(0, 0, 0)" stroke-opacity="1" stroke-linecap="round" stroke-linejoin="round"/>
    <path d="M 18.03688621520996 6.409728527069092 C -6.299753665924072 18.57193374633789 37.21001434326172 28.112043380737305 38.10934066772461 49.94438552856445 C 11.568998336791992 15.707687377929688 3.4525070190429688 12.697690963745117 14.665886878967285 3.639570951461792 C 27.918119430541992 25.66458511352539 5.152306079864502 30.979633331298828 20.997541427612305 6.847198963165283" stroke-width="2.0" fill="none" stroke="rgb(0, 0, 0)" stroke-opacity="1" stroke-linecap="round" stroke-linejoin="round"/>
    <path d="M 180.65138244628906 112.6229248046875 C 174.5797119140625 106.7892074584961 239.16363525390625 110.28699493408203 226.72088623046875 94.48214721679688 C 229.4770965576172 108.71619415283203 209.64369201660156 107.47415924072266 231.616455078125 107.31536102294922 C 208.00860595703125 92.4181900024414 211.51382446289062 106.72749328613281 215.61119079589844 109.37698364257812" stroke-width="2.0" fill="none" stroke="rgb(0, 0, 0)" stroke-opacity="1" stroke-linecap="round" stroke-linejoin="round"/>
    <path d="M 207.34947204589844 92.19664764404297 C 194.26199340820312 107.0228042602539 219.22238159179688 89.0811538696289 205.5750274658203 81.03443145751953 C 223.86924743652344 74.45394897460938 218.55905151367188 100.16033172607422 206.03811645507812 92.00189971923828" stroke-width="2.0" fill="none" stroke="rgb(0, 0, 0)" stroke-opacity="1" stroke-linecap="round" stroke-linejoin="round"/>
    <path d="M 22.33651351928711 25.539283752441406 C 37.434600830078125 29.327539443969727 -0.7462424635887146 12.60178279876709 -1.0626322031021118 35.47152328491211 C 3.105518102645874 22.340848922729492 21.893848419189453 19.829530715942383 13.86520767211914 29.448551177978516" stroke-width="2.0" fill="none" stroke="rgb(0, 0, 0)" stroke-opacity="1" stroke-linecap="round" stroke-linejoin="round"/>
    <path d="M 87.98361206054688 133.2844696044922 C 94.14733123779297 139.84312438964844 78.90606689453125 117.35924530029297 87.00868225097656 136.63031005859375 C 95.0744857788086 118.20173645019531 78.93628692626953 120.73566436767578 80.7448501586914 137.2298583984375" stroke-width="2.0" fill="none" stroke="rgb(0, 0, 0)" stroke-opacity="1" stroke-linecap="round" stroke-linejoin="round"/>
    <path d="M 94.52558898925781 195.854248046875 C 98.2306900024414 200.85293579101562 73.63693237304688 179.3735809326172 97.49404907226562 196.52114868164062 C 96.85950469970703 193.39572143554688 72.3975830078125 180.0868682861328 66.82195281982422 190.5354461669922 C 89.88903045654297 175.35765075683594 68.77229309082031 171.7252655029297 69.12020111083984 160.7477264404297" stroke-width="2.0" fill="none" stroke="rgb(0, 0, 0)" stroke-opacity="1" stroke-linecap="round" stroke-linejoin="round"/>
    <path d="M 75.3966064453125 -7.14901876449585 C 61.79329299926758 21.072277069091797 82.68195343017578 20.301593780517578 86.28827667236328 14.005651473999023" stroke-width="2.0" fill="none" stroke="rgb(0, 0, 0)" stroke-opacity="1" stroke-linecap="round" stroke-linejoin="round"/>
    <path d="M 146.0471649169922 49.40565872192383 C 148.29083251953125 52.336761474609375 150.15505981445312 56.58936309814453 147.24160766601562 39.772438049316406 C 129.50555419921875 48.51481246948242 124.35075378417969 48.6512451171875 142.3358917236328 42.91600799560547" stroke-width="2.0" fill="none" stroke="rgb(0, 0, 0)" stroke-opacity="1" stroke-linecap="round" stroke-linejoin="round"/>
    <path d="M 165.25946044921875 31.526451110839844 C 151.03994750976562 22.616792678833008 172.2369842529297 51.30497360229492 167.24339294433594 28.322895050048828" stroke-width="2.0" fill="none" stroke="rgb(0, 0, 0)" stroke-opacity="1" stroke-linecap="round" stroke-linejoin="round"/>
    <path d="M 34.100467681884766 33.76492691040039 C 48.17741012573242 50.76594543457031 32.534420013427734 57.26752471923828 29.2561092376709 36.66264724731445 C 32.09892654418945 44.3856086730957 50.683475494384766 22.938690185546875 55.22636413574219 31.30976676940918 C 69.85413360595703 28.15981101989746 41.77011489868164 17.38424301147461 36.912567138671875 37.1500358581543" stroke-width="2.0" fill="none" stroke="rgb(0, 0, 0)" stroke-opacity="1" stroke-linecap="round" stroke-linejoin="round"/>
    <path d="M 131.16334533691406 56.14580535888672 C 127.97451782226562 26.246074676513672 131.85816955566406 70.67798614501953 120.67910766601562 59.03057861328125 C 138.62994384765625 44.29261016845703 100.9234390258789 40.41173553466797 116.80131530761719 57.49412536621094 C 100.40189361572266 62.78578567504883 135.78224182128906 50.876121520996094 122.38960266113281 59.80250549316406" stroke-width="2.0" fill="none" stroke="rgb(0, 0, 0)" stroke-opacity="1" stroke-linecap="round" stroke-linejoin="round"/>
    <path d="M 39.875274658203125 182.9792022705078 C 42.160797119140625 192.6832275390625 51.220916748046875 195.6415557861328 45.25077819824219 207.22454833984375 C 45.55614471435547 188.08644104003906 46.504940032958984 193.7535400390625 44.30914306640625 209.1219940185547 C 41.187583923339844 197.53732299804688 48.00010681152344 202.6644744873047 46.35581970214844 203.35569763183594" stroke-width="2.0" fill="none" stroke="rgb(0, 0, 0)" stroke-opacity="1" stroke-linecap="round" stroke-linejoin="round"/>
    <path d="M 203.06448364257812 53.305538177490234 C 227.4722900390625 61.24817657470703 200.1005096435547 25.690799713134766 224.5928497314453 46.43171691894531 C 224.0481719970703 22.192943572998047 200.221923828125 40.97610855102539 216.7059783935547 44.19525909423828" stroke-width="2.0" fill="none" stroke="rgb(0, 0, 0)" stroke-opacity="1" stroke-linecap="round" stroke-linejoin="round"/>
    <path d="M 137.9932403564453 72.447021484375 C 147.49549865722656 77.55297088623047 159.411865234375 80.09310150146484 152.4047393798828 73.06413269042969" stroke-width="2.0" fill="none" stroke="rgb(0, 0, 0)" stroke-opacity="1" stroke-linecap="round" stroke-linejoin="round"/>
    <path d="M 102.91466522216797 18.4058895111084 C 125.27725219726562 48.08599090576172 125.1882553100586 -7.43998384475708 140.05137634277344 27.672061920166016 C 139.1416473388672 48.72066116333008 134.17347717285156 32.491172790527344 146.0392608642578 33.69810485839844" stroke-width="2.0" fill="none" stroke="rgb(0, 0, 0)" stroke-opacity="1" stroke-linecap="round" stroke-linejoin="round"/>
    <path d="M 188.72862243652344 67.25617218017578 C 151.5232391357422 52.96571731567383 152.34976196289062 72.01444244384766 177.28619384765625 63.34970474243164 C 178.6192626953125 58.70363998413086 161.85879516601562 59.43769073486328 157.4966278076172 63.056976318359375 C 166.52670288085938 94.17826843261719 141.2494659423828 77.34601593017578 139.98117065429688 71.01512145996094" stroke-width="2.0" fill="none" stroke="rgb(0, 0, 0)" stroke-opacity="1" stroke-linecap="round" stroke-linejoin="round"/>
    <path d="M 232.4517364501953 71.95536041259766 C 236.97019958496094 71.32282257080078 242.9866485595703 63.8233528137207 229.50408935546875 70.1993637084961 C 222.87733459472656 68.39873504638672 231.56634521484375 64.35601806640625 228.27218627929688 82.13316345214844" stroke-width="2.0" fill="none" stroke="rgb(0, 0, 0)" stroke-opacity="1" stroke-linecap="round" stroke-linejoin="round"/>
    <path d="M 112.1153564453125 223.11752319335938 C 115.31571960449219 199.81687927246094 133.25779724121094 220.85755920410156 115.5647201538086 216.88925170898438 C 112.07815551757812 255.41558837890625 107.68409729003906 257.0323791503906 96.47046661376953 250.8958282470703 C 84.79244995117188 232.9166259765625 84.20286560058594 235.28189086914062 75.80271911621094 237.71542358398438" stroke-width="2.0" fill="none" stroke="rgb(0, 0, 0)" stroke-opacity="1" stroke-linecap="round" stroke-linejoin="round"/>
    <path d="M 66.98553466796875 173.616943359375 C 71.29248809814453 144.07254028320312 82.91151428222656 154.6443328857422 99.50877380371094 161.988037109375 C 102.2197494506836 179.78880310058594 123.107177734375 149.39071655273438 103.23384857177734 179.493896484375" stroke-width="2.0" fill="none" stroke="rgb(0, 0, 0)" stroke-opacity="1" stroke-linecap="round" stroke-linejoin="round"/>
    <path d="M 193.8009796142578 85.61579132080078 C 175.95559692382812 87.05799102783203 180.07476806640625 85.32122039794922 184.55352783203125 86.59008026123047 C 167.36239624023438 101.44596099853516 174.59877014160156 77.33930969238281 171.43634033203125 93.73873138427734 C 166.5127716064453 74.25768280029297 193.2163543701172 89.66349792480469 172.0372772216797 63.44263458251953" stroke-width="2.0" fill="none" stroke="rgb(0, 0, 0)" stroke-opacity="1" stroke-linecap="round" stroke-linejoin="round"/>
    <path d="M 59.317970275878906 110.57109832763672 C 81.9135971069336 112.35419464111328 59.66817855834961 128.15753173828125 64.899658203125 116.05508422851562" stroke-width="2.0" fill="none" stroke="rgb(0, 0, 0)" stroke-opacity="1" stroke-linecap="round" stroke-linejoin="round"/>
    <path d="M 130.03514099121094 159.90928649902344 C 127.38290405273438 188.0557098388672 122.57209777832031 151.2342071533203 146.28231811523438 166.05043029785156" stroke-width="2.0" fill="none" stroke="rgb(0, 0, 0)" stroke-opacity="1" stroke-linecap="round" stroke-linejoin="round"/>
    <path d="M 142.752685546875 149.93545532226562 C 145.62826538085938 125.5295639038086 148.2234344482422 144.8416290283203 91.57592010498047 126.011474609375 C 149.17941284179688 148.59857177734375 121.97769165039062 141.30120849609375 140.69015502929688 133.0009307861328 C 130.50637817382812 152.2036895751953 126.74551391601562 137.78317260742188 97.30377960205078 131.1148223876953" stroke-width="2.0" fill="none" stroke="rgb(0, 0, 0)" stroke-opacity="1" stroke-linecap="round" stroke-linejoin="round"/>
    <path d="M 7.883594512939453 -5.616291046142578 C 22.33009147644043 -13.644397735595703 10.978681564331055 -0.5125341415405273 16.33698844909668 -13.432621955871582 C 8.599238395690918 -9.549839973449707 27.319047927856445 20.5433349609375 15.85960578918457 6.666597366333008" stroke-width="2.0" fill="none" stroke="rgb(0, 0, 0)" stroke-opacity="1" stroke-linecap="round" stroke-linejoin="round"/>
    <path d="M 89.32965087890625 95.51435089111328 C 89.7571792602539 86.97893524169922 66.00086212158203 89.50589752197266 79.53882598876953 106.74079132080078 C 78.8783187866211 81.53302001953125 88.33264923095703 101.1739273071289 86.18714904785156 84.88172149658203" stroke-width="2.0" fill="none" stroke="rgb(0, 0, 0)" stroke-opacity="1" stroke-linecap="round" stroke-linejoin="round"/>
    <path d="M 76.79824829101562 7.9039130210876465 C 68.225830078125 3.468142509460449 93.8996353149414 -4.648794174194336 84.00493621826172 -14.38707447052002" stroke-width="2.0" fill="none" stroke="rgb(0, 0, 0)" stroke-opacity="1" stroke-linecap="round" stroke-linejoin="round"/>
    <path d="M 56.055824279785156 205.2825164794922 C 48.79042053222656 234.18621826171875 58.7606201171875 240.42567443847656 61.894405364990234 236.1736297607422" stroke-width="2.0" fill="none" stroke="rgb(0, 0, 0)" stroke-opacity="1" stroke-linecap="round" stroke-linejoin="round"/>
    <path d="M 8.950835227966309 158.19515991210938 C 10.521154403686523 139.1334228515625 16.358928680419922 149.6608123779297 13.20410442352295 177.11434936523438 C 29.147260665893555 147.32757568359375 -5.319446563720703 157.04005432128906 -9.439618110656738 140.1983184814453" stroke-width="2.0" fill="none" stroke="rgb(0, 0, 0)" stroke-opacity="1" stroke-linecap="round" stroke-linejoin="round"/>
    <path d="M 204.16427612304688 206.83932495117188 C 177.01235961914062 204.59048461914062 196.58456420898438 238.5206756591797 192.88397216796875 254.75546264648438 C 195.7930145263672 237.18099975585938 199.751220703125 246.05209350585938 196.5965118408203 250.57321166992188" stroke-width="2.0" fill="none" stroke="rgb(0, 0, 0)" stroke-opacity="1" stroke-linecap="round" stroke-linejoin="round"/>
    <path d="M 74.33487701416016 11.488174438476562 C 88.59051513671875 11.633062362670898 60.82229995727539 5.89893102645874 15.00836181640625 0.8232113718986511" stroke-width="2.0" fill="none" stroke="rgb(0, 0, 0)" stroke-opacity="1" stroke-linecap="round" stroke-linejoin="round"/>
    <path d="M 172.84446716308594 105.8145751953125 C 178.5292205810547 109.62923431396484 185.80258178710938 106.70389556884766 129.25160217285156 111.24070739746094 C 122.43891906738281 90.16692352294922 123.82122039794922 112.44644165039062 130.07638549804688 125.99938201904297" stroke-width="2.0" fill="none" stroke="rgb(0, 0, 0)" stroke-opacity="1" stroke-linecap="round" stroke-linejoin="round"/>
    <path d="M 24.539175033569336 31.257177352905273 C 36.60331344604492 40.82465744018555 9.221285820007324 20.181196212768555 20.08990478515625 26.838226318359375 C 9.244455337524414 14.599827766418457 38.329036712646484 22.222919464111328 29.87563133239746 33.392181396484375 C 20.684825897216797 19.234224319458008 16.51392936706543 53.56419372558594 11.962251663208008 25.158002853393555" stroke-width="2.0" fill="none" stroke="rgb(0, 0, 0)" stroke-opacity="1" stroke-linecap="round" stroke-linejoin="round"/>
    <path d="M 129.5334014892578 226.68699645996094 C 126.52220153808594 231.36550903320312 108.78108215332031 234.3874969482422 80.3228988647461 228.93756103515625" stroke-width="2.0" fill="none" stroke="rgb(0, 0, 0)" stroke-opacity="1" stroke-linecap="round" stroke-linejoin="round"/>
    <path d="M 227.76876831054688 24.848024368286133 C 244.0679931640625 19.440868377685547 224.7616729736328 36.020259857177734 225.49525451660156 45.64134979248047" stroke-width="2.0" fill="none" stroke="rgb(0, 0, 0)" stroke-opacity="1" stroke-linecap="round" stroke-linejoin="round"/>
    <path d="M 176.57595825195312 185.86593627929688 C 175.42022705078125 173.21334838867188 175.56817626953125 184.31185913085938 176.3255157470703 173.5574188232422 C 184.22903442382812 211.69464111328125 155.22857666015625 183.60372924804688 175.28111267089844 174.24537658691406" stroke-width="2.0" fill="none" stroke="rgb(0, 0, 0)" stroke-opacity="1" stroke-linecap="round" stroke-linejoin="round"/>
    <path d="M 78.45165252685547 49.146568298339844 C 93.57950592041016 57.04780197143555 73.86875915527344 82.50542449951172 72.30716705322266 45.649410247802734" stroke-width="2.0" fill="none" stroke="rgb(0, 0, 0)" stroke-opacity="1" stroke-linecap="round" stroke-linejoin="round"/>
    <path d="M 46.204200744628906 208.02027893066406 C 45.019107818603516 221.6046142578125 49.99386215209961 189.7161102294922 63.764747619628906 205.89476013183594 C 45.4763069152832 203.28485107421875 63.642738342285156 208.14584350585938 57.964935302734375 207.51522827148438 C 59.88223648071289 210.65142822265625 51.55704879760742 237.48370361328125 56.580902099609375 250.04518127441406" stroke-width="2.0" fill="none" stroke="rgb(0, 0, 0)" stroke-opacity="1" stroke-linecap="round" stroke-linejoin="round"/>
    <path d="M 17.047473907470703 13.891602516174316 C 43.80034637451172 17.016578674316406 16.00312614440918 -23.24509048461914 -17.526029586791992 -20.691516876220703 C 38.14785385131836 -16.932132720947266 36.99851989746094 -15.01962661743164 46.793766021728516 -20.62535858154297" stroke-width="2.0" fill="none" stroke="rgb(0, 0, 0)" stroke-opacity="1" stroke-linecap="round" stroke-linejoin="round"/>
    <path d="M 143.69073486328125 95.94415283203125 C 180.34844970703125 97.43470001220703 143.92105102539062 133.34719848632812 148.2711181640625 85.77825927734375 C 141.744384765625 55.132545471191406 152.82769775390625 81.86044311523438 155.78314208984375 76.084716796875 C 144.34442138671875 52.6762809753418 120.00238037109375 83.22053527832031 150.13522338867188 72.51531219482422" stroke-width="2.0" fill="none" stroke="rgb(0, 0, 0)" stroke-opacity="1" stroke-linecap="round" stroke-linejoin="round"/>
    <path d="M 186.78826904296875 87.96231079101562 C 219.8351287841797 81.19981384277344 216.7226104736328 89.50623321533203 210.8062744140625 87.03514862060547 C 197.6027374267578 91.77104949951172 204.52972412109375 109.45281982421875 212.99176025390625 107.84427642822266 C 206.2158966064453 102.99335479736328 215.0056915283203 122.81321716308594 203.06723022460938 118.50294494628906" stroke-width="2.0" fill="none" stroke="rgb(0, 0, 0)" stroke-opacity="1" stroke-linecap="round" stroke-linejoin="round"/>
    <path d="M 29.426429748535156 60.74608612060547 C 27.651561737060547 73.83812713623047 42.251014709472656 82.70092010498047 29.697099685668945 63.08085250854492 C 41.673126220703125 63.49467849731445 47.876861572265625 40.17449188232422 56.27302551269531 94.46703338623047" stroke-width="2.0" fill="none" stroke="rgb(0, 0, 0)" stroke-opacity="1" stroke-linecap="round" stroke-linejoin="round"/>
    <path d="M 140.50503540039062 187.5064697265625 C 130.30517578125 200.87222290039062 149.42446899414062 165.53729248046875 137.8389892578125 156.0665740966797 C 118.41529083251953 150.23838806152344 131.4825439453125 175.22103881835938 127.44287109375 170.75955200195312 C 112.48199462890625 158.97787475585938 129.69525146484375 185.17446899414062 131.61830139160156 164.08360290527344" stroke-width="2.0" fill="none" stroke="rgb(0, 0, 0)" stroke-opacity="1" stroke-linecap="round" stroke-linejoin="round"/>
    <path d="M 126.38134002685547 106.85646057128906 C 137.3470001220703 97.6112060546875 109.6469497680664 83.3542709350586 104.87181091308594 111.96437072753906 C 114.18458557128906 128.2715606689453 131.94070434570312 95.57354736328125 115.66439819335938 101.72177124023438 C 109.44066619873047 137.19737243652344 115.84196472167969 78.9952621459961 108.50597381591797 108.01727294921875" stroke-width="2.0" fill="none" stroke="rgb(0, 0, 0)" stroke-opacity="1" stroke-linecap="round" stroke-linejoin="round"/>
    <path d="M 209.9290008544922 151.2884063720703 C 198.38308715820312 123.98210144042969 244.03416442871094 147.4371795654297 210.80519104003906 141.89385986328125 C 199.05728149414062 173.4644317626953 214.87307739257812 122.43083190917969 180.49404907226562 139.0287628173828 C 171.35479736328125 160.0414581298828 193.75852966308594 140.94384765625 169.75352478027344 143.3273468017578" stroke-width="2.0" fill="none" stroke="rgb(0, 0, 0)" stroke-opacity="1" stroke-linecap="round" stroke-linejoin="round"/>
    <path d="M 128.1986541748047 44.36876678466797 C 139.3399658203125 23.031129837036133 166.8332061767578 48.12611770629883 157.28701782226562 33.77228546142578 C 143.01531982421875 36.169864654541016 112.24413299560547 42.094635009765625 142.7705841064453 40.8636474609375" stroke-width="2.0" fill="none" stroke="rgb(0, 0, 0)" stroke-opacity="1" stroke-linecap="round" stroke-linejoin="round"/>
    <path d="M -5.746522903442383 114.60107421875 C 22.271806716918945 127.33197784423828 22.710670471191406 105.9373550415039 13.28378677368164 100.47615051269531 C 43.49163818359375 94.10127258300781 37.79560852050781 86.21317291259766 -12.891396522521973 93.50332641601562 C -11.09817123413086 87.15277099609375 -8.11635684967041 82.8577880859375 -7.148870468139648 98.07660675048828" stroke-width="2.0" fill="none" stroke="rgb(0, 0, 0)" stroke-opacity="1" stroke-linecap="round" stroke-linejoin="round"/>
    <path d="M 152.06773376464844 217.59422302246094 C 140.84381103515625 202.80972290039062 153.8289337158203 237.2190399169922 156.8697052001953 247.5102996826172 C 143.65902709960938 230.44703674316406 143.46389770507812 226.82864379882812 141.25286865234375 237.029541015625 C 142.4434814453125 233.9151611328125 133.95504760742188 225.08609008789062 143.84494018554688 228.72232055664062" stroke-width="2.0" fill="none" stroke="rgb(0, 0, 0)" stroke-opacity="1" stroke-linecap="round" stroke-linejoin="round"/>
    <path d="M 150.78582763671875 87.529296875 C 147.17364501953125 68.69535064697266 140.52536010742188 69.18004608154297 144.844970703125 87.68720245361328" stroke-width="2.0" fill="none" stroke="rgb(0, 0, 0)" stroke-opacity="1" stroke-linecap="round" stroke-linejoin="round"/>
    <path d="M 96.25497436523438 0.07593429088592529 C 74.71741485595703 6.773071765899658 78.46112823486328 -14.461545944213867 63.147647857666016 -23.468629837036133 C 64.61175537109375 -6.164391994476318 65.01499938964844 -6.486472129821777 69.73825073242188 -11.014090538024902 C 62.48519515991211 -10.232366561889648 54.07313537597656 -4.802093029022217 55.30388641357422 -14.215950965881348" stroke-width="2.0" fill="none" stroke="rgb(0, 0, 0)" stroke-opacity="1" stroke-linecap="round" stroke-linejoin="round"/>
    <path d="M 117.85076141357422 97.72607421875 C 92.1717529296875 106.57311248779297 96.52204132080078 105.98981475830078 96.23110961914062 131.0955047607422" stroke-width="2.0" fill="none" stroke="rgb(0, 0, 0)" stroke-opacity="1" stroke-linecap="round" stroke-linejoin="round"/>
    <path d="M 156.83676147460938 102.0606460571289 C 174.2042694091797 99.08427429199219 130.34080505371094 81.35515594482422 142.91725158691406 102.9976577758789" stroke-width="2.0" fill="none" stroke="rgb(0, 0, 0)" stroke-opacity="1" stroke-linecap="round" stroke-linejoin="round"/>
    <path d="M 15.669636726379395 121.44112396240234 C 35.96047592163086 107.95047760009766 -1.0223325490951538 86.26119232177734 20.211925506591797 123.26255798339844" stroke-width="2.0" fill="none" stroke="rgb(0, 0, 0)" stroke-opacity="1" stroke-linecap="round" stroke-linejoin="round"/>
    <path d="M 93.23382568359375 189.8666534423828 C 114.23682403564453 196.676025390625 81.40109252929688 219.04908752441406 96.63584899902344 162.9752197265625 C 81.73218536376953 152.69186401367188 101.32574462890625 160.92819213867188 87.12031555175781 173.2574005126953" stroke-width="2.0" fill="none" stroke="rgb(0, 0, 0)" stroke-opacity="1" stroke-linecap="round" stroke-linejoin="round"/>
    <path d="M 119.34135437011719 196.0603485107422 C 128.6302947998047 179.08560180664062 111.06873321533203 187.71104431152344 119.3707275390625 222.92361450195312" stroke-width="2.0" fill="none" stroke="rgb(0, 0, 0)" stroke-opacity="1" stroke-linecap="round" stroke-linejoin="round"/>
    <path d="M 219.99752807617188 53.130226135253906 C 180.3459930419922 64.6649169921875 194.7388916015625 48.66694641113281 190.96826171875 56.182159423828125" stroke-width="2.0" fill="none" stroke="rgb(0, 0, 0)" stroke-opacity="1" stroke-linecap="round" stroke-linejoin="round"/>
    <path d="M 204.14401245117188 162.73175048828125 C 193.6587371826172 154.07186889648438 190.95010375976562 167.41641235351562 199.03379821777344 169.45558166503906 C 183.99478149414062 172.3871612548828 189.76333618164062 139.26107788085938 204.31768798828125 151.49752807617188" stroke-width="2.0" fill="none" stroke="rgb(0, 0, 0)" stroke-opacity="1" stroke-linecap="round" stroke-linejoin="round"/>
    <path d="M 29.92905616760254 125.08846282958984 C 26.702903747558594 143.36138916015625 39.55950164794922 133.19442749023438 33.10289001464844 136.76333618164062 C 36.694610595703125 156.1185302734375 42.03054428100586 147.47161865234375 57.62950134277344 140.1870574951172 C 47.944557189941406 119.94068145751953 47.41946792602539 133.76707458496094 33.21218490600586 137.91485595703125" stroke-width="2.0" fill="none" stroke="rgb(0, 0, 0)" stroke-opacity="1" stroke-linecap="round" stroke-linejoin="round"/>
    <path d="M 191.67489624023438 229.14588928222656 C 180.6360626220703 199.47828674316406 202.44761657714844 203.84225463867188 206.8806915283203 205.6460723876953 C 203.13890075683594 215.29095458984375 218.91941833496094 199.32289123535156 208.42555236816406 199.71017456054688 C 195.4775390625 190.97616577148438 225.2034149169922 194.61065673828125 205.398193359375 210.1757354736328" stroke-width="2.0" fill="none" stroke="rgb(0, 0, 0)" stroke-opacity="1" stroke-linecap="round" stroke-linejoin="round"/>
    <path d="M 62.30900955200195 36.580543518066406 C 57.26935958862305 59.057220458984375 47.78961181640625 40.89460754394531 52.220890045166016 32.07534408569336 C 64.49481201171875 40.197593688964844 46.480655670166016 22.33863639831543 53.70716857910156 35.85387420654297" stroke-width="2.0" fill="none" stroke="rgb(0, 0, 0)" stroke-opacity="1" stroke-linecap="round" stroke-linejoin="round"/>
    <path d="M 187.24452209472656 67.00714111328125 C 183.71604919433594 75.8106918334961 186.0576934814453 53.75058364868164 181.0775146484375 61.34576416015625 C 183.16917419433594 52.55449676513672 212.8738555908203 55.8223762512207 230.78921508789062 62.75733947753906 C 171.94342041015625 46.20314407348633 182.94039916992188 48.25727081298828 181.9297637939453 65.64091491699219" stroke-width="2.0" fill="none" stroke="rgb(0, 0, 0)" stroke-opacity="1" stroke-linecap="round" stroke-linejoin="round"/>
    <path d="M 139.83236694335938 76.09317016601562 C 109.7112808227539 76.83887481689453 122.29029083251953 52.82493591308594 112.6015625 51.008853912353516" stroke-width="2.0" fill="none" stroke="rgb(0, 0, 0)" stroke-opacity="1" stroke-linecap="round" stroke-linejoin="round"/>
    <path d="M 171.3128662109375 -3.8119957447052 C 141.45223999023438 6.182694435119629 177.7874298095703 25.89148712158203 169.9630584716797 -0.8972266912460327" stroke-width="2.0" fill="none" stroke="rgb(0, 0, 0)" stroke-opacity="1" stroke-linecap="round" stroke-linejoin="round"/>
    <path d="M 172.98794555664062 136.66331481933594 C 181.50608825683594 144.54371643066406 172.663330078125 148.56399536132812 143.176025390625 136.7379150390625 C 177.1527862548828 139.81666564941406 176.06661987304688 179.2280731201172 152.4147491455078 160.55564880371094 C 151.784912109375 130.49673461914062 167.65394592285156 150.8029022216797 161.73960876464844 149.0639190673828" stroke-width="2.0" fill="none" stroke="rgb(0, 0, 0)" stroke-opacity="1" stroke-linecap="round" stroke-linejoin="round"/>
  </g>
</svg>
