<?xml version="1.0" ?>
<svg xmlns="http://www.w3.org/2000/svg" version="1.1" width="224" height="224">
  <defs/>
  <g>
    <path d="M 48.89942169189453 158.1082305908203 C 66.69477081298828 156.9170684814453 57.3729133605957 180.65003967285156 70.59203338623047 161.31832885742188 C 79.7867660522461 143.70700073242188 67.10791015625 146.4128875732422 94.86067199707031 160.26373291015625" stroke-width="2.0" fill="none" stroke="rgb(0, 0, 0)" stroke-opacity="1" stroke-linecap="round" stroke-linejoin="round"/>
    <path d="M 187.939697265625 115.73358917236328 C 190.81658935546875 155.44357299804688 202.5762939453125 131.81365966796875 210.22413635253906 138.49728393554688 C 237.52757263183594 135.68243408203125 246.23965454101562 143.4498748779297 231.14859008789062 164.44798278808594 C 221.3775177001953 158.01748657226562 219.9563751220703 160.08700561523438 233.37405395507812 162.60484313964844" stroke-width="2.0" fill="none" stroke="rgb(0, 0, 0)" stroke-opacity="1" stroke-linecap="round" stroke-linejoin="round"/>
    <path d="M 93.08860778808594 6.389926910400391 C 65.17558288574219 -2.1021785736083984 31.288986206054688 0.6735701560974121 46.07411193847656 6.350762844085693 C 61.9906005859375 2.987729787826538 75.64382934570312 -16.28591537475586 24.859159469604492 15.787611961364746 C 10.36344051361084 23.443321228027344 34.12744140625 12.691927909851074 71.25330352783203 18.995071411132812" stroke-width="2.0" fill="none" stroke="rgb(0, 0, 0)" stroke-opacity="1" stroke-linecap="round" stroke-linejoin="round"/>
    <path d="M 30.907732009887695 155.67013549804688 C 14.593247413635254 135.9447784423828 24.311927795410156 146.31307983398438 -6.544693470001221 166.13308715820312" stroke-width="2.0" fill="none" stroke="rgb(0, 0, 0)" stroke-opacity="1" stroke-linecap="round" stroke-linejoin="round"/>
    <path d="M 180.9113006591797 72.53422546386719 C 175.58450317382812 85.75189971923828 177.08468627929688 78.0039291381836 187.05467224121094 67.24950408935547 C 185.68898010253906 67.52654266357422 180.13372802734375 79.88845825195312 177.36985778808594 107.90440368652344" stroke-width="2.0" fill="none" stroke="rgb(0, 0, 0)" stroke-opacity="1" stroke-linecap="round" stroke-linejoin="round"/>
    <path d="M 133.80776977539062 136.51661682128906 C 160.60504150390625 142.6248321533203 135.3867645263672 154.8324432373047 102.52503204345703 174.2516632080078" stroke-width="2.0" fill="none" stroke="rgb(0, 0, 0)" stroke-opacity="1" stroke-linecap="round" stroke-linejoin="round"/>
    <path d="M 63.5378303527832 98.08729553222656 C 101.8590087890625 107.45813751220703 45.617855072021484 125.56122589111328 100.42823791503906 110.39972686767578" stroke-width="2.0" fill="none" stroke="rgb(0, 0, 0)" stroke-opacity="1" stroke-linecap="round" stroke-linejoin="round"/>
    <path d="M 152.30514526367188 111.96563720703125 C 182.55564880371094 100.62071228027344 128.23924255371094 105.80142974853516 132.44761657714844 108.55158233642578" stroke-width="2.0" fill="none" stroke="rgb(0, 0, 0)" stroke-opacity="1" stroke-linecap="round" stroke-linejoin="round"/>
    <path d="M 186.54515075683594 147.7207794189453 C 178.45138549804688 118.02911376953125 185.77764892578125 124.94554138183594 198.55935668945312 154.80111694335938" stroke-width="2.0" fill="none" stroke="rgb(0, 0, 0)" stroke-opacity="1" stroke-linecap="round" stroke-linejoin="round"/>
    <path d="M 197.02825927734375 186.39105224609375 C 172.05715942382812 179.9963836669922 151.72171020507812 188.9457244873047 173.96852111816406 167.321044921875 C 200.2027587890625 183.75364685058594 168.34426879882812 188.119140625 172.30870056152344 187.53590393066406 C 201.32034301757812 197.2075653076172 190.5279998779297 199.47238159179688 171.84840393066406 193.7662811279297" stroke-width="2.0" fill="none" stroke="rgb(0, 0, 0)" stroke-opacity="1" stroke-linecap="round" stroke-linejoin="round"/>
    <path d="M -7.865116119384766 140.0945281982422 C 18.253520965576172 140.47238159179688 17.7030086517334 160.17105102539062 33.9017333984375 165.03160095214844 C 21.15180206298828 156.04678344726562 32.809059143066406 183.71389770507812 43.232975006103516 173.61663818359375 C 15.802780151367188 149.146728515625 23.21689224243164 161.06427001953125 27.788118362426758 162.17562866210938" stroke-width="2.0" fill="none" stroke="rgb(0, 0, 0)" stroke-opacity="1" stroke-linecap="round" stroke-linejoin="round"/>
    <path d="M 175.64422607421875 130.3249969482422 C 183.3058624267578 109.53498077392578 148.12222290039062 134.48802185058594 167.33395385742188 104.67636108398438" stroke-width="2.0" fill="none" stroke="rgb(0, 0, 0)" stroke-opacity="1" stroke-linecap="round" stroke-linejoin="round"/>
    <path d="M 60.33344650268555 144.78558349609375 C 63.28107452392578 142.8221435546875 61.07481002807617 155.96771240234375 101.37062072753906 111.26206970214844" stroke-width="2.0" fill="none" stroke="rgb(0, 0, 0)" stroke-opacity="1" stroke-linecap="round" stroke-linejoin="round"/>
    <path d="M 155.15394592285156 -4.213928699493408 C 174.75454711914062 -5.3463592529296875 181.38278198242188 0.07182149589061737 190.72312927246094 -5.340958595275879 C 155.08155822753906 -4.842493534088135 159.10647583007812 -7.001591205596924 166.63507080078125 10.014156341552734" stroke-width="2.0" fill="none" stroke="rgb(0, 0, 0)" stroke-opacity="1" stroke-linecap="round" stroke-linejoin="round"/>
    <path d="M 26.096710205078125 117.8779296875 C 14.807699203491211 142.43345642089844 25.36273956298828 109.62619018554688 14.017271995544434 81.2968521118164 C 48.926055908203125 69.13733673095703 21.996362686157227 94.85420989990234 42.35662078857422 90.73737335205078" stroke-width="2.0" fill="none" stroke="rgb(0, 0, 0)" stroke-opacity="1" stroke-linecap="round" stroke-linejoin="round"/>
    <path d="M 80.5888900756836 137.5211181640625 C 67.61695098876953 165.7822265625 60.49984359741211 165.12538146972656 81.95449829101562 123.19302368164062" stroke-width="2.0" fill="none" stroke="rgb(0, 0, 0)" stroke-opacity="1" stroke-linecap="round" stroke-linejoin="round"/>
    <path d="M 164.24041748046875 -7.013884544372559 C 159.9365234375 1.8720462322235107 179.88946533203125 -3.846508264541626 174.5088653564453 -9.68102741241455 C 163.44842529296875 -1.1945853233337402 133.57432556152344 -3.8884623050689697 126.89027404785156 -3.559812068939209 C 151.8955078125 6.6665143966674805 155.8635711669922 1.8658688068389893 163.7760467529297 -4.9225077629089355" stroke-width="2.0" fill="none" stroke="rgb(0, 0, 0)" stroke-opacity="1" stroke-linecap="round" stroke-linejoin="round"/>
    <path d="M 163.34527587890625 179.93275451660156 C 160.48040771484375 152.39500427246094 160.01522827148438 138.35044860839844 165.12582397460938 173.0553741455078 C 190.750732421875 146.66427612304688 144.41709899902344 163.2870330810547 169.96055603027344 161.09474182128906" stroke-width="2.0" fill="none" stroke="rgb(0, 0, 0)" stroke-opacity="1" stroke-linecap="round" stroke-linejoin="round"/>
    <path d="M 113.5417709350586 225.56356811523438 C 114.49775695800781 184.890869140625 108.90599060058594 208.69393920898438 133.5464630126953 210.6597442626953 C 120.70987701416016 196.8087921142578 138.0745391845703 211.7371368408203 131.0829620361328 203.82952880859375 C 118.96649169921875 197.5425262451172 112.17534637451172 184.13478088378906 112.42605590820312 195.1884765625" stroke-width="2.0" fill="none" stroke="rgb(0, 0, 0)" stroke-opacity="1" stroke-linecap="round" stroke-linejoin="round"/>
    <path d="M 61.41276931762695 82.19210815429688 C 79.88329315185547 78.5112533569336 64.6512451171875 98.37999725341797 62.83781051635742 82.95038604736328" stroke-width="2.0" fill="none" stroke="rgb(0, 0, 0)" stroke-opacity="1" stroke-linecap="round" stroke-linejoin="round"/>
    <path d="M 191.72418212890625 47.79541778564453 C 191.7715606689453 68.67407989501953 180.94244384765625 79.31009674072266 191.53860473632812 46.422889709472656 C 181.80982971191406 68.66741943359375 187.928955078125 77.11058044433594 174.43580627441406 65.01447296142578" stroke-width="2.0" fill="none" stroke="rgb(0, 0, 0)" stroke-opacity="1" stroke-linecap="round" stroke-linejoin="round"/>
    <path d="M 87.86015319824219 128.8719482421875 C 62.40507125854492 146.67367553710938 69.5649642944336 123.91571807861328 70.61238098144531 121.83451080322266 C 96.38859558105469 117.78486633300781 46.259132385253906 155.1582794189453 60.230953216552734 120.32803344726562" stroke-width="2.0" fill="none" stroke="rgb(0, 0, 0)" stroke-opacity="1" stroke-linecap="round" stroke-linejoin="round"/>
    <path d="M 231.5885772705078 124.6561279296875 C 232.49366760253906 117.85601806640625 240.62521362304688 124.11055755615234 243.37939453125 105.99735260009766 C 229.04090881347656 108.63719940185547 245.0702362060547 86.24681091308594 198.8903350830078 56.37261199951172 C 217.46534729003906 71.63771057128906 230.3732147216797 90.70179748535156 253.49583435058594 94.54215240478516" stroke-width="2.0" fill="none" stroke="rgb(0, 0, 0)" stroke-opacity="1" stroke-linecap="round" stroke-linejoin="round"/>
    <path d="M 139.166259765625 207.8971710205078 C 162.33578491210938 215.39743041992188 132.17095947265625 222.34661865234375 184.95143127441406 203.91738891601562 C 176.39822387695312 206.7206268310547 151.169921875 184.7328338623047 196.635009765625 194.08522033691406 C 145.92059326171875 213.61830139160156 167.78211975097656 216.96487426757812 175.5803680419922 182.65768432617188" stroke-width="2.0" fill="none" stroke="rgb(0, 0, 0)" stroke-opacity="1" stroke-linecap="round" stroke-linejoin="round"/>
    <path d="M 31.01154327392578 162.715087890625 C -3.009948253631592 167.62538146972656 -13.373632431030273 171.47801208496094 -20.356504440307617 163.01792907714844" stroke-width="2.0" fill="none" stroke="rgb(0, 0, 0)" stroke-opacity="1" stroke-linecap="round" stroke-linejoin="round"/>
    <path d="M 152.84323120117188 75.37681579589844 C 144.4584503173828 68.0518569946289 141.97732543945312 63.97019577026367 118.12091827392578 62.1639404296875 C 119.1268539428711 87.12506103515625 115.62161254882812 56.025814056396484 127.84397888183594 69.02481842041016 C 115.79727172851562 55.1008415222168 120.82868194580078 56.5676155090332 134.27874755859375 71.38501739501953" stroke-width="2.0" fill="none" stroke="rgb(0, 0, 0)" stroke-opacity="1" stroke-linecap="round" stroke-linejoin="round"/>
    <path d="M 49.49811553955078 5.519106864929199 C 36.228336334228516 13.234399795532227 54.97055435180664 11.788187980651855 95.37791442871094 -5.569505214691162" stroke-width="2.0" fill="none" stroke="rgb(0, 0, 0)" stroke-opacity="1" stroke-linecap="round" stroke-linejoin="round"/>
    <path d="M 148.58319091796875 78.96186828613281 C 171.93014526367188 81.68347930908203 138.27420043945312 59.62935256958008 183.18008422851562 70.69245910644531 C 154.2220458984375 91.793701171875 175.3979949951172 65.25904083251953 160.995361328125 66.94149017333984" stroke-width="2.0" fill="none" stroke="rgb(0, 0, 0)" stroke-opacity="1" stroke-linecap="round" stroke-linejoin="round"/>
    <path d="M 123.234130859375 109.72972869873047 C 115.02497100830078 142.0573272705078 113.83344268798828 125.50395202636719 123.68241119384766 106.03807830810547 C 118.03605651855469 118.35564422607422 147.70494079589844 117.35381317138672 134.01312255859375 115.16254425048828" stroke-width="2.0" fill="none" stroke="rgb(0, 0, 0)" stroke-opacity="1" stroke-linecap="round" stroke-linejoin="round"/>
    <path d="M 77.69237518310547 65.66459655761719 C 69.05889129638672 27.7434139251709 91.17596435546875 80.0223159790039 87.40553283691406 39.40420150756836 C 58.57665252685547 70.09599304199219 61.61702346801758 69.93475341796875 49.549678802490234 99.0994873046875" stroke-width="2.0" fill="none" stroke="rgb(0, 0, 0)" stroke-opacity="1" stroke-linecap="round" stroke-linejoin="round"/>
    <path d="M 68.57067108154297 187.6217803955078 C 119.35368347167969 186.66090393066406 112.5526351928711 194.97601318359375 66.17691802978516 191.02784729003906 C 78.739013671875 177.92723083496094 68.75757598876953 199.6141357421875 58.760074615478516 207.73226928710938 C 40.88594436645508 186.86923217773438 54.237972259521484 205.3466033935547 98.8136215209961 189.36111450195312" stroke-width="2.0" fill="none" stroke="rgb(0, 0, 0)" stroke-opacity="1" stroke-linecap="round" stroke-linejoin="round"/>
    <path d="M 155.9372100830078 14.448230743408203 C 191.39222717285156 2.3015570640563965 181.02728271484375 17.179636001586914 169.3204803466797 -3.080664873123169" stroke-width="2.0" fill="none" stroke="rgb(0, 0, 0)" stroke-opacity="1" stroke-linecap="round" stroke-linejoin="round"/>
    <path d="M 225.21713256835938 23.84841537475586 C 210.43292236328125 24.30707359313965 215.80953979492188 3.1912434101104736 229.66465759277344 -0.43191102147102356" stroke-width="2.0" fill="none" stroke="rgb(0, 0, 0)" stroke-opacity="1" stroke-linecap="round" stroke-linejoin="round"/>
    <path d="M 227.8324432373047 171.37364196777344 C 232.54090881347656 168.602783203125 231.22476196289062 163.45993041992188 225.97067260742188 163.51528930664062 C 183.06883239746094 148.3280029296875 204.87741088867188 155.33570861816406 209.97544860839844 138.2794647216797 C 248.3291015625 136.4597930908203 254.14370727539062 139.6874237060547 226.7432098388672 127.27116394042969" stroke-width="2.0" fill="none" stroke="rgb(0, 0, 0)" stroke-opacity="1" stroke-linecap="round" stroke-linejoin="round"/>
    <path d="M 153.1787567138672 34.15310287475586 C 151.07162475585938 20.122495651245117 145.38525390625 51.46752166748047 160.00303649902344 78.20630645751953 C 160.3427276611328 9.323199272155762 164.5383758544922 21.506742477416992 152.10528564453125 40.804931640625 C 145.7809295654297 18.49974250793457 135.20338439941406 1.6754688024520874 156.89617919921875 32.5296630859375" stroke-width="2.0" fill="none" stroke="rgb(0, 0, 0)" stroke-opacity="1" stroke-linecap="round" stroke-linejoin="round"/>
    <path d="M 30.77420425415039 62.48721694946289 C 36.537628173828125 55.51868438720703 29.708724975585938 59.91997528076172 25.284334182739258 63.270957946777344" stroke-width="2.0" fill="none" stroke="rgb(0, 0, 0)" stroke-opacity="1" stroke-linecap="round" stroke-linejoin="round"/>
    <path d="M 112.92765808105469 105.1965103149414 C 63.794837951660156 127.86734771728516 48.755733489990234 126.98035430908203 119.52664184570312 99.56726837158203 C 85.65666198730469 113.85359954833984 39.289493560791016 127.93785858154297 100.33163452148438 112.2514877319336 C 73.96835327148438 126.88909912109375 64.50833892822266 128.1240692138672 74.25222778320312 110.4824447631836" stroke-width="2.0" fill="none" stroke="rgb(0, 0, 0)" stroke-opacity="1" stroke-linecap="round" stroke-linejoin="round"/>
    <path d="M 189.04632568359375 121.68517303466797 C 198.87408447265625 127.72782897949219 200.94773864746094 171.95391845703125 230.13331604003906 199.40350341796875 C 207.88070678710938 155.87637329101562 221.46945190429688 161.63336181640625 186.9075469970703 179.30984497070312 C 196.22854614257812 164.115234375 247.47596740722656 165.73892211914062 210.87770080566406 156.76583862304688" stroke-width="2.0" fill="none" stroke="rgb(0, 0, 0)" stroke-opacity="1" stroke-linecap="round" stroke-linejoin="round"/>
    <path d="M 170.6995086669922 78.46070861816406 C 179.4210205078125 89.16024780273438 189.7585906982422 69.03215789794922 181.4990997314453 53.62744903564453 C 165.67861938476562 78.8990478515625 173.69239807128906 77.23150634765625 164.80215454101562 57.80197525024414" stroke-width="2.0" fill="none" stroke="rgb(0, 0, 0)" stroke-opacity="1" stroke-linecap="round" stroke-linejoin="round"/>
    <path d="M 66.89093017578125 174.24122619628906 C 68.73614501953125 184.5074462890625 61.84307098388672 183.55169677734375 78.20459747314453 162.2286376953125 C 76.65851593017578 176.44113159179688 64.25790405273438 159.54994201660156 90.75800323486328 157.97132873535156 C 65.28944396972656 174.0299835205078 57.156898498535156 177.4146270751953 87.11659240722656 195.498779296875" stroke-width="2.0" fill="none" stroke="rgb(0, 0, 0)" stroke-opacity="1" stroke-linecap="round" stroke-linejoin="round"/>
    <path d="M 15.425920486450195 198.48300170898438 C 17.331005096435547 212.48452758789062 23.183439254760742 207.28717041015625 -3.7539045810699463 203.11427307128906" stroke-width="2.0" fill="none" stroke="rgb(0, 0, 0)" stroke-opacity="1" stroke-linecap="round" stroke-linejoin="round"/>
    <path d="M 134.31109619140625 82.92997741699219 C 87.2076644897461 95.06462097167969 127.28042602539062 104.8049545288086 129.2757110595703 80.70738220214844" stroke-width="2.0" fill="none" stroke="rgb(0, 0, 0)" stroke-opacity="1" stroke-linecap="round" stroke-linejoin="round"/>
    <path d="M 24.92912483215332 211.4854278564453 C -14.468332290649414 201.28604125976562 -3.417628049850464 208.06248474121094 26.037220001220703 187.85281372070312 C 34.08779525756836 196.7095184326172 39.001529693603516 200.21327209472656 23.081554412841797 215.4119110107422 C -0.8877319097518921 200.62466430664062 26.392850875854492 210.8513641357422 30.113697052001953 221.213623046875" stroke-width="2.0" fill="none" stroke="rgb(0, 0, 0)" stroke-opacity="1" stroke-linecap="round" stroke-linejoin="round"/>
    <path d="M 54.156463623046875 94.56375122070312 C 118.28030395507812 107.31773376464844 107.60227966308594 112.89550018310547 91.99922943115234 102.41411590576172 C 91.56857299804688 59.95697784423828 93.55349731445312 108.96089935302734 103.26318359375 81.99453735351562" stroke-width="2.0" fill="none" stroke="rgb(0, 0, 0)" stroke-opacity="1" stroke-linecap="round" stroke-linejoin="round"/>
    <path d="M 74.2590560913086 72.70481872558594 C 77.96436309814453 113.23674011230469 54.40249252319336 73.13546752929688 60.315086364746094 111.30171966552734 C 54.13275909423828 91.71981811523438 9.91069507598877 92.37784576416016 50.422760009765625 85.93687438964844" stroke-width="2.0" fill="none" stroke="rgb(0, 0, 0)" stroke-opacity="1" stroke-linecap="round" stroke-linejoin="round"/>
    <path d="M 77.88819885253906 21.115081787109375 C 72.55047607421875 20.373332977294922 77.86693572998047 42.98666000366211 67.92664337158203 23.627384185791016 C 84.04354858398438 30.156639099121094 75.23509979248047 59.50156021118164 82.38467407226562 -5.3235907554626465 C 97.26188659667969 -11.611725807189941 89.71996307373047 -0.26230868697166443 87.03221893310547 30.27056312561035" stroke-width="2.0" fill="none" stroke="rgb(0, 0, 0)" stroke-opacity="1" stroke-linecap="round" stroke-linejoin="round"/>
    <path d="M 188.7057647705078 54.345890045166016 C 165.37657165527344 60.147640228271484 182.1758270263672 70.46525573730469 179.9453582763672 56.72126770019531 C 182.89727783203125 75.52484893798828 183.63375854492188 84.68904113769531 173.54330444335938 80.4801025390625 C 177.44667053222656 84.52059173583984 171.8169708251953 4.484142780303955 183.63296508789062 36.887447357177734" stroke-width="2.0" fill="none" stroke="rgb(0, 0, 0)" stroke-opacity="1" stroke-linecap="round" stroke-linejoin="round"/>
    <path d="M 57.47834396362305 130.2440643310547 C 69.98452758789062 101.84696960449219 84.10746765136719 120.87630462646484 22.678964614868164 118.62316131591797" stroke-width="2.0" fill="none" stroke="rgb(0, 0, 0)" stroke-opacity="1" stroke-linecap="round" stroke-linejoin="round"/>
    <path d="M 217.2984161376953 28.58095359802246 C 213.21949768066406 27.811668395996094 200.68466186523438 32.62870788574219 212.50555419921875 29.232999801635742 C 188.99853515625 45.810054779052734 187.75511169433594 47.52394104003906 187.53892517089844 53.94892501831055" stroke-width="2.0" fill="none" stroke="rgb(0, 0, 0)" stroke-opacity="1" stroke-linecap="round" stroke-linejoin="round"/>
    <path d="M 43.003822326660156 6.679654598236084 C 48.358646392822266 -1.1114436388015747 59.688411712646484 23.915616989135742 59.4109992980957 51.032562255859375 C 59.92427062988281 3.529680013656616 64.4712905883789 45.284912109375 66.56988525390625 39.561851501464844 C 24.881267547607422 42.744014739990234 49.32498550415039 28.846187591552734 67.95063781738281 44.34980010986328" stroke-width="2.0" fill="none" stroke="rgb(0, 0, 0)" stroke-opacity="1" stroke-linecap="round" stroke-linejoin="round"/>
    <path d="M 11.424934387207031 61.859840393066406 C 7.71926212310791 59.39512252807617 70.7125244140625 73.16142272949219 45.90511703491211 60.0378532409668 C 26.53848648071289 64.8357925415039 44.04108428955078 76.9109115600586 65.76367950439453 58.084083557128906" stroke-width="2.0" fill="none" stroke="rgb(0, 0, 0)" stroke-opacity="1" stroke-linecap="round" stroke-linejoin="round"/>
    <path d="M 142.54808044433594 39.01880645751953 C 132.63311767578125 56.115760803222656 129.95091247558594 62.87999725341797 131.24057006835938 57.80874252319336 C 144.04762268066406 21.592134475708008 154.2642059326172 46.368465423583984 108.8167495727539 52.70489501953125 C 134.18942260742188 14.657386779785156 129.19837951660156 12.24150276184082 116.26599884033203 37.049652099609375" stroke-width="2.0" fill="none" stroke="rgb(0, 0, 0)" stroke-opacity="1" stroke-linecap="round" stroke-linejoin="round"/>
    <path d="M 96.50525665283203 61.24766540527344 C 116.70850372314453 73.73798370361328 114.760009765625 16.597993850708008 110.78504180908203 46.87786102294922" stroke-width="2.0" fill="none" stroke="rgb(0, 0, 0)" stroke-opacity="1" stroke-linecap="round" stroke-linejoin="round"/>
    <path d="M 106.10601043701172 30.580751419067383 C 124.23303985595703 28.478092193603516 124.62078094482422 17.51544189453125 157.85638427734375 2.7156822681427 C 160.3887939453125 70.50626373291016 149.07569885253906 18.941648483276367 150.2744140625 24.956016540527344" stroke-width="2.0" fill="none" stroke="rgb(0, 0, 0)" stroke-opacity="1" stroke-linecap="round" stroke-linejoin="round"/>
    <path d="M 173.9757080078125 190.78134155273438 C 207.85214233398438 185.3589630126953 196.4132843017578 179.08657836914062 168.03370666503906 179.84104919433594" stroke-width="2.0" fill="none" stroke="rgb(0, 0, 0)" stroke-opacity="1" stroke-linecap="round" stroke-linejoin="round"/>
    <path d="M 102.31285095214844 24.72362518310547 C 71.8250961303711 35.09636688232422 53.718143463134766 23.346221923828125 93.76236724853516 25.648170471191406 C 99.89079284667969 -3.5998265743255615 109.02920532226562 -5.71626615524292 100.65309143066406 -3.8659770488739014" stroke-width="2.0" fill="none" stroke="rgb(0, 0, 0)" stroke-opacity="1" stroke-linecap="round" stroke-linejoin="round"/>
    <path d="M -2.127415180206299 158.1888427734375 C 28.434457778930664 136.32139587402344 19.683666229248047 120.1495361328125 12.562012672424316 147.64881896972656 C 37.655242919921875 147.49612426757812 35.77080154418945 133.09982299804688 25.978017807006836 137.82762145996094" stroke-width="2.0" fill="none" stroke="rgb(0, 0, 0)" stroke-opacity="1" stroke-linecap="round" stroke-linejoin="round"/>
    <path d="M 44.38469314575195 36.66996765136719 C 47.90483093261719 70.16996002197266 38.72099304199219 26.626243591308594 28.18939781188965 38.195621490478516 C 39.698307037353516 56.758026123046875 37.7923698425293 37.2503547668457 49.64617156982422 21.158945083618164" stroke-width="2.0" fill="none" stroke="rgb(0, 0, 0)" stroke-opacity="1" stroke-linecap="round" stroke-linejoin="round"/>
    <path d="M 126.16747283935547 74.50674438476562 C 100.94772338867188 43.39030838012695 120.52598571777344 71.50875854492188 144.27572631835938 76.10313415527344 C 108.87980651855469 54.79169845581055 143.8535919189453 72.03691864013672 161.27194213867188 80.2994613647461 C 165.96543884277344 39.01144790649414 166.10061645507812 13.166252136230469 162.49964904785156 17.236188888549805" stroke-width="2.0" fill="none" stroke="rgb(0, 0, 0)" stroke-opacity="1" stroke-linecap="round" stroke-linejoin="round"/>
    <path d="M 13.626481056213379 175.7383575439453 C -8.101181983947754 220.81991577148438 42.40299606323242 218.10430908203125 24.230857849121094 197.92529296875 C 9.330931663513184 208.49009704589844 -2.0369668006896973 204.86813354492188 8.930514335632324 196.17733764648438 C -5.89961576461792 223.89976501464844 4.089858055114746 207.50479125976562 -0.16400447487831116 200.45997619628906" stroke-width="2.0" fill="none" stroke="rgb(0, 0, 0)" stroke-opacity="1" stroke-linecap="round" stroke-linejoin="round"/>
    <path d="M 207.51548767089844 130.70254516601562 C 208.38714599609375 154.85739135742188 201.254638671875 121.36233520507812 198.8351593017578 107.27484893798828 C 180.93666076660156 96.87059783935547 182.66969299316406 92.35243225097656 182.2007293701172 114.81324768066406" stroke-width="2.0" fill="none" stroke="rgb(0, 0, 0)" stroke-opacity="1" stroke-linecap="round" stroke-linejoin="round"/>
    <path d="M 53.386871337890625 65.1268310546875 C 43.691688537597656 54.81431579589844 40.45878601074219 46.678829193115234 62.29811477661133 58.59713363647461" stroke-width="2.0" fill="none" stroke="rgb(0, 0, 0)" stroke-opacity="1" stroke-linecap="round" stroke-linejoin="round"/>
    <path d="M 203.8069610595703 52.805843353271484 C 224.9521484375 50.10722351074219 215.65231323242188 54.074161529541016 198.07154846191406 45.774261474609375 C 186.21533203125 61.78798294067383 174.69268798828125 50.21807098388672 182.7006378173828 67.103271484375 C 197.76773071289062 44.71406555175781 209.06703186035156 40.350643157958984 210.0120391845703 53.42713165283203" stroke-width="2.0" fill="none" stroke="rgb(0, 0, 0)" stroke-opacity="1" stroke-linecap="round" stroke-linejoin="round"/>
    <path d="M 188.3284912109375 28.447629928588867 C 189.00836181640625 20.176557540893555 184.8282012939453 37.41352081298828 179.99215698242188 9.170065879821777 C 196.7889862060547 38.7297248840332 188.04864501953125 49.54118728637695 185.64402770996094 13.53269100189209" stroke-width="2.0" fill="none" stroke="rgb(0, 0, 0)" stroke-opacity="1" stroke-linecap="round" stroke-linejoin="round"/>
    <path d="M 37.42921447753906 39.708641052246094 C 33.14827346801758 22.38227081298828 32.29545974731445 6.315427303314209 24.5493106842041 58.90912628173828 C 50.07333755493164 36.73716735839844 9.839184761047363 55.34013748168945 45.74140548706055 62.51777267456055 C 38.33978271484375 47.71645736694336 47.95272445678711 42.65864562988281 -9.452980995178223 44.44009780883789" stroke-width="2.0" fill="none" stroke="rgb(0, 0, 0)" stroke-opacity="1" stroke-linecap="round" stroke-linejoin="round"/>
    <path d="M 155.01390075683594 199.22283935546875 C 154.3163604736328 169.64007568359375 155.83642578125 180.39501953125 159.6934356689453 200.5252685546875 C 148.04776000976562 208.24771118164062 128.73133850097656 216.90338134765625 133.01513671875 174.85044860839844 C 128.61720275878906 184.2053680419922 147.06982421875 190.16622924804688 144.57054138183594 174.14332580566406" stroke-width="2.0" fill="none" stroke="rgb(0, 0, 0)" stroke-opacity="1" stroke-linecap="round" stroke-linejoin="round"/>
    <path d="M 227.91822814941406 26.38063621520996 C 205.91378784179688 11.222711563110352 160.05459594726562 -0.0051176175475120544 190.43609619140625 24.685504913330078 C 187.46359252929688 38.60300064086914 184.73004150390625 27.422771453857422 197.55397033691406 32.450923919677734" stroke-width="2.0" fill="none" stroke="rgb(0, 0, 0)" stroke-opacity="1" stroke-linecap="round" stroke-linejoin="round"/>
    <path d="M 34.595123291015625 37.90956497192383 C 5.047832489013672 69.2338638305664 44.812828063964844 22.705652236938477 41.18735122680664 23.280494689941406 C 28.116310119628906 -5.591283321380615 21.699054718017578 -10.650044441223145 49.280391693115234 11.630171775817871 C 73.44666290283203 5.427161693572998 56.08536148071289 0.8814905881881714 28.824764251708984 1.924722671508789" stroke-width="2.0" fill="none" stroke="rgb(0, 0, 0)" stroke-opacity="1" stroke-linecap="round" stroke-linejoin="round"/>
    <path d="M 30.4678955078125 150.25927734375 C 41.650630950927734 155.18527221679688 39.7626953125 123.41375732421875 57.9779052734375 143.9628448486328 C 63.3122444152832 144.4904022216797 51.08790969848633 159.84320068359375 64.80974578857422 158.28285217285156" stroke-width="2.0" fill="none" stroke="rgb(0, 0, 0)" stroke-opacity="1" stroke-linecap="round" stroke-linejoin="round"/>
    <path d="M 13.553801536560059 209.06179809570312 C -3.550413131713867 208.83468627929688 18.634092330932617 185.69442749023438 13.1292085647583 204.95883178710938 C 26.170923233032227 199.33424377441406 32.575138092041016 193.0552978515625 15.925469398498535 203.07293701171875 C 19.802457809448242 190.9225616455078 -31.836423873901367 197.32000732421875 15.826753616333008 205.41297912597656" stroke-width="2.0" fill="none" stroke="rgb(0, 0, 0)" stroke-opacity="1" stroke-linecap="round" stroke-linejoin="round"/>
    <path d="M 102.63450622558594 22.711904525756836 C 91.24161529541016 21.705596923828125 86.34651184082031 21.98975944519043 73.85820007324219 21.850051879882812" stroke-width="2.0" fill="none" stroke="rgb(0, 0, 0)" stroke-opacity="1" stroke-linecap="round" stroke-linejoin="round"/>
    <path d="M 46.48582458496094 200.73081970214844 C 44.430519104003906 178.56393432617188 43.033782958984375 200.20687866210938 45.786476135253906 192.6367950439453 C 67.05128479003906 173.16323852539062 49.18376159667969 190.7839813232422 48.45454025268555 189.99899291992188" stroke-width="2.0" fill="none" stroke="rgb(0, 0, 0)" stroke-opacity="1" stroke-linecap="round" stroke-linejoin="round"/>
    <path d="M 19.533933639526367 114.34427642822266 C 39.52178192138672 61.20482635498047 22.84494972229004 85.2406997680664 15.073263168334961 139.0241241455078" stroke-width="2.0" fill="none" stroke="rgb(0, 0, 0)" stroke-opacity="1" stroke-linecap="round" stroke-linejoin="round"/>
    <path d="M 173.08297729492188 163.99386596679688 C 164.73828125 165.88768005371094 128.83404541015625 160.9396209716797 128.5845184326172 167.48367309570312 C 125.23866271972656 155.7657928466797 100.91011810302734 179.6294403076172 119.5644760131836 175.1581573486328 C 128.36314392089844 190.23680114746094 107.84845733642578 189.9101104736328 115.15021514892578 181.84742736816406" stroke-width="2.0" fill="none" stroke="rgb(0, 0, 0)" stroke-opacity="1" stroke-linecap="round" stroke-linejoin="round"/>
    <path d="M 176.94381713867188 36.636287689208984 C 183.0723114013672 80.2103042602539 180.26502990722656 68.58462524414062 185.5735626220703 65.24662017822266 C 182.4480438232422 88.5156478881836 172.87374877929688 78.40518188476562 169.70716857910156 38.30754089355469 C 140.8562774658203 38.60961151123047 157.53237915039062 44.87949752807617 153.74191284179688 13.757567405700684" stroke-width="2.0" fill="none" stroke="rgb(0, 0, 0)" stroke-opacity="1" stroke-linecap="round" stroke-linejoin="round"/>
    <path d="M 55.41352081298828 218.2598114013672 C 24.57913589477539 183.60838317871094 70.4639663696289 178.3668212890625 44.22944641113281 211.35433959960938 C 14.939315795898438 186.36073303222656 21.434019088745117 187.25204467773438 30.777812957763672 179.39389038085938 C 27.740680694580078 172.23501586914062 14.727185249328613 170.48329162597656 8.433398246765137 204.31092834472656" stroke-width="2.0" fill="none" stroke="rgb(0, 0, 0)" stroke-opacity="1" stroke-linecap="round" stroke-linejoin="round"/>
    <path d="M 180.18087768554688 194.5120086669922 C 164.4329071044922 184.19895935058594 165.9892120361328 175.27952575683594 201.3175811767578 186.20274353027344 C 147.7178955078125 196.75405883789062 173.22940063476562 192.29347229003906 213.39865112304688 212.09642028808594 C 228.39169311523438 208.78817749023438 190.96412658691406 195.57032775878906 171.8648681640625 191.4600830078125" stroke-width="2.0" fill="none" stroke="rgb(0, 0, 0)" stroke-opacity="1" stroke-linecap="round" stroke-linejoin="round"/>
    <path d="M 24.34925079345703 221.7352294921875 C 24.513023376464844 215.4770965576172 14.934531211853027 214.3540802001953 19.378124237060547 200.96981811523438" stroke-width="2.0" fill="none" stroke="rgb(0, 0, 0)" stroke-opacity="1" stroke-linecap="round" stroke-linejoin="round"/>
    <path d="M 115.12063598632812 -7.421108245849609 C 107.54044342041016 -3.129286766052246 110.34272003173828 -12.437414169311523 119.28933715820312 -9.362580299377441" stroke-width="2.0" fill="none" stroke="rgb(0, 0, 0)" stroke-opacity="1" stroke-linecap="round" stroke-linejoin="round"/>
    <path d="M 218.0532684326172 164.04478454589844 C 208.5848846435547 146.36572265625 201.3568115234375 84.36631774902344 197.271240234375 92.38446044921875 C 197.60641479492188 110.34454345703125 201.00413513183594 116.25154113769531 201.1400604248047 135.7581787109375 C 190.89674377441406 125.49951934814453 190.73448181152344 92.50907897949219 197.98953247070312 109.44139099121094" stroke-width="2.0" fill="none" stroke="rgb(0, 0, 0)" stroke-opacity="1" stroke-linecap="round" stroke-linejoin="round"/>
    <path d="M 117.07821655273438 56.26443099975586 C 118.90852355957031 122.49052429199219 129.00083923339844 84.94356536865234 122.07478332519531 91.49653625488281" stroke-width="2.0" fill="none" stroke="rgb(0, 0, 0)" stroke-opacity="1" stroke-linecap="round" stroke-linejoin="round"/>
    <path d="M 107.30595397949219 154.82315063476562 C 98.8824462890625 170.80789184570312 96.87531280517578 170.18081665039062 98.07803344726562 183.47894287109375" stroke-width="2.0" fill="none" stroke="rgb(0, 0, 0)" stroke-opacity="1" stroke-linecap="round" stroke-linejoin="round"/>
    <path d="M 109.23274993896484 46.43334197998047 C 142.50738525390625 87.80694580078125 113.38826751708984 94.07486724853516 115.39652252197266 27.098421096801758 C 120.83820343017578 66.05296325683594 104.51554870605469 75.32422637939453 104.75009155273438 96.28490447998047" stroke-width="2.0" fill="none" stroke="rgb(0, 0, 0)" stroke-opacity="1" stroke-linecap="round" stroke-linejoin="round"/>
    <path d="M 171.870849609375 -3.6537396907806396 C 165.53330993652344 0.9864615797996521 185.82110595703125 -6.9204559326171875 186.80801391601562 -0.446023166179657 C 219.45993041992188 14.686638832092285 220.48992919921875 17.927635192871094 188.74937438964844 -0.76847904920578 C 192.49090576171875 -10.614222526550293 192.59837341308594 25.329429626464844 193.10243225097656 37.99095916748047" stroke-width="2.0" fill="none" stroke="rgb(0, 0, 0)" stroke-opacity="1" stroke-linecap="round" stroke-linejoin="round"/>
    <path d="M 71.08387756347656 25.865020751953125 C 68.29209899902344 -16.153921127319336 66.12777709960938 -9.364413261413574 26.654102325439453 -0.053900156170129776 C 61.21050262451172 5.140929698944092 50.711116790771484 9.77670669555664 43.23933029174805 -5.282663345336914 C 33.232521057128906 -0.2871677577495575 21.48398208618164 -5.152027606964111 36.29984664916992 -4.574108123779297" stroke-width="2.0" fill="none" stroke="rgb(0, 0, 0)" stroke-opacity="1" stroke-linecap="round" stroke-linejoin="round"/>
    <path d="M 202.59091186523438 40.19993209838867 C 180.98731994628906 54.113426208496094 194.10108947753906 67.01075744628906 202.31773376464844 37.634552001953125 C 177.2391357421875 35.31986618041992 183.05844116210938 36.22526550292969 189.5000457763672 49.76080322265625 C 214.30584716796875 43.74227523803711 188.7227783203125 43.736183166503906 186.195068359375 84.13993072509766" stroke-width="2.0" fill="none" stroke="rgb(0, 0, 0)" stroke-opacity="1" stroke-linecap="round" stroke-linejoin="round"/>
    <path d="M 46.67039108276367 220.9737548828125 C 63.673892974853516 223.5438232421875 68.92908477783203 216.19789123535156 54.850120544433594 201.988525390625 C 70.68714904785156 201.7877655029297 66.49951934814453 202.95211791992188 106.39653015136719 190.50955200195312 C 64.16651153564453 173.38575744628906 62.419578552246094 181.9204864501953 64.97628021240234 180.6026153564453" stroke-width="2.0" fill="none" stroke="rgb(0, 0, 0)" stroke-opacity="1" stroke-linecap="round" stroke-linejoin="round"/>
    <path d="M 136.48805236816406 137.68759155273438 C 123.0076675415039 165.74057006835938 121.24055480957031 171.44305419921875 124.86820220947266 108.23858642578125 C 144.86865234375 136.1521453857422 129.34828186035156 132.49749755859375 129.3458251953125 159.34127807617188 C 129.55104064941406 129.0443878173828 140.8295135498047 136.1354522705078 101.2515869140625 134.94509887695312" stroke-width="2.0" fill="none" stroke="rgb(0, 0, 0)" stroke-opacity="1" stroke-linecap="round" stroke-linejoin="round"/>
    <path d="M 74.2506332397461 109.76802825927734 C 19.445087432861328 125.2192153930664 25.87203025817871 111.7291030883789 36.182594299316406 122.5155258178711 C 43.0860710144043 118.66356658935547 75.3410873413086 116.34036254882812 57.53281784057617 119.37330627441406 C 34.24018478393555 143.90005493164062 73.80049896240234 147.8769989013672 57.616554260253906 131.85296630859375" stroke-width="2.0" fill="none" stroke="rgb(0, 0, 0)" stroke-opacity="1" stroke-linecap="round" stroke-linejoin="round"/>
    <path d="M 47.903114318847656 54.015663146972656 C -0.3924771845340729 48.710411071777344 -36.3839225769043 54.7342643737793 6.5982255935668945 62.12983703613281" stroke-width="2.0" fill="none" stroke="rgb(0, 0, 0)" stroke-opacity="1" stroke-linecap="round" stroke-linejoin="round"/>
    <path d="M 110.20996856689453 141.70375061035156 C 108.67659759521484 114.59195709228516 116.5307846069336 135.4322052001953 88.43511962890625 122.22274780273438 C 107.9237060546875 104.23777770996094 106.25618743896484 96.73422241210938 98.95719146728516 143.42852783203125" stroke-width="2.0" fill="none" stroke="rgb(0, 0, 0)" stroke-opacity="1" stroke-linecap="round" stroke-linejoin="round"/>
    <path d="M 68.57601928710938 219.49728393554688 C 44.976016998291016 223.63980102539062 72.4715347290039 216.19300842285156 43.154884338378906 201.60565185546875 C 19.202186584472656 229.33204650878906 49.672821044921875 207.7066192626953 50.459495544433594 221.12118530273438 C 35.78110122680664 207.0297393798828 44.27782440185547 223.46498107910156 38.54015350341797 204.04220581054688" stroke-width="2.0" fill="none" stroke="rgb(0, 0, 0)" stroke-opacity="1" stroke-linecap="round" stroke-linejoin="round"/>
    <path d="M 94.0523681640625 219.46080017089844 C 52.27252960205078 222.7421875 43.39132308959961 200.1471405029297 44.8862419128418 213.75399780273438 C 91.15462493896484 210.8080596923828 72.20884704589844 197.35031127929688 76.97928619384766 190.39161682128906" stroke-width="2.0" fill="none" stroke="rgb(0, 0, 0)" stroke-opacity="1" stroke-linecap="round" stroke-linejoin="round"/>
    <path d="M 21.145187377929688 43.6451530456543 C 14.684707641601562 -8.594589233398438 4.673179626464844 8.67917251586914 -1.0889809131622314 35.842830657958984 C -7.933710098266602 -0.2073846310377121 -7.040360927581787 5.274433612823486 -12.507222175598145 -0.15833520889282227 C -12.185419082641602 14.042617797851562 -9.813312530517578 5.6849188804626465 -5.13472843170166 6.9801177978515625" stroke-width="2.0" fill="none" stroke="rgb(0, 0, 0)" stroke-opacity="1" stroke-linecap="round" stroke-linejoin="round"/>
    <path d="M 153.28421020507812 31.672136306762695 C 147.26100158691406 52.44968032836914 156.97561645507812 45.54072570800781 142.63150024414062 22.69705581665039 C 148.34579467773438 42.5906867980957 163.28216552734375 42.12012481689453 151.7716827392578 28.607458114624023 C 154.0686492919922 82.47510528564453 164.41885375976562 64.14308166503906 165.2928466796875 43.4549446105957" stroke-width="2.0" fill="none" stroke="rgb(0, 0, 0)" stroke-opacity="1" stroke-linecap="round" stroke-linejoin="round"/>
    <path d="M 90.62198638916016 129.96084594726562 C 106.82122039794922 132.05538940429688 81.1943588256836 145.39894104003906 86.5978775024414 120.31446838378906 C 65.01433563232422 154.58912658691406 82.74662780761719 146.7530975341797 117.22417449951172 144.31532287597656 C 113.37682342529297 179.69921875 106.71463012695312 123.9904556274414 100.09526062011719 171.5254364013672" stroke-width="2.0" fill="none" stroke="rgb(0, 0, 0)" stroke-opacity="1" stroke-linecap="round" stroke-linejoin="round"/>
    <path d="M 134.31802368164062 49.508201599121094 C 128.47488403320312 85.17015838623047 143.5502166748047 20.02298355102539 137.12396240234375 45.28872299194336" stroke-width="2.0" fill="none" stroke="rgb(0, 0, 0)" stroke-opacity="1" stroke-linecap="round" stroke-linejoin="round"/>
    <path d="M 86.550537109375 190.10208129882812 C 68.54441833496094 205.5960235595703 95.58104705810547 196.293212890625 78.27672576904297 186.45640563964844" stroke-width="2.0" fill="none" stroke="rgb(0, 0, 0)" stroke-opacity="1" stroke-linecap="round" stroke-linejoin="round"/>
    <path d="M 95.8121109008789 127.2034683227539 C 76.16532135009766 108.94989776611328 100.75853729248047 125.74652862548828 81.77906799316406 128.08082580566406 C 84.8779067993164 161.0221710205078 86.75786590576172 122.53073120117188 89.72477722167969 144.78839111328125" stroke-width="2.0" fill="none" stroke="rgb(0, 0, 0)" stroke-opacity="1" stroke-linecap="round" stroke-linejoin="round"/>
    <path d="M 40.30800247192383 56.23980712890625 C 52.83732986450195 56.9803466796875 48.362998962402344 58.66178894042969 48.43563461303711 23.568220138549805" stroke-width="2.0" fill="none" stroke="rgb(0, 0, 0)" stroke-opacity="1" stroke-linecap="round" stroke-linejoin="round"/>
    <path d="M 184.7275390625 181.03273010253906 C 194.98934936523438 176.9604949951172 228.94427490234375 168.02362060546875 234.3780975341797 160.9337615966797 C 214.4444122314453 168.9407196044922 225.2306365966797 162.97108459472656 193.98324584960938 160.9556884765625" stroke-width="2.0" fill="none" stroke="rgb(0, 0, 0)" stroke-opacity="1" stroke-linecap="round" stroke-linejoin="round"/>
    <path d="M 57.11147689819336 219.66390991210938 C 106.79255676269531 214.5392608642578 111.57291412353516 223.61940002441406 72.45970916748047 229.79808044433594" stroke-width="2.0" fill="none" stroke="rgb(0, 0, 0)" stroke-opacity="1" stroke-linecap="round" stroke-linejoin="round"/>
    <path d="M 210.87210083007812 28.122817993164062 C 236.02268981933594 23.089906692504883 220.6219482421875 21.97556495666504 197.2829132080078 45.68256378173828 C 220.64076232910156 14.883337020874023 237.29335021972656 30.5617618560791 195.84417724609375 23.30665397644043" stroke-width="2.0" fill="none" stroke="rgb(0, 0, 0)" stroke-opacity="1" stroke-linecap="round" stroke-linejoin="round"/>
    <path d="M 49.207820892333984 45.98115158081055 C 12.789962768554688 42.41962814331055 43.31046676635742 64.71247863769531 41.34745788574219 30.64592170715332 C 43.91407012939453 45.198204040527344 86.00753784179688 35.561222076416016 75.02812957763672 40.6193733215332" stroke-width="2.0" fill="none" stroke="rgb(0, 0, 0)" stroke-opacity="1" stroke-linecap="round" stroke-linejoin="round"/>
    <path d="M 193.21713256835938 107.49620819091797 C 192.6118621826172 136.12039184570312 212.38453674316406 152.38621520996094 172.42752075195312 149.14959716796875" stroke-width="2.0" fill="none" stroke="rgb(0, 0, 0)" stroke-opacity="1" stroke-linecap="round" stroke-linejoin="round"/>
    <path d="M 122.60438537597656 158.23309326171875 C 121.24024200439453 160.09495544433594 135.59716796875 149.6874542236328 157.6980743408203 140.67263793945312 C 126.04240417480469 160.25692749023438 155.7390899658203 139.3737335205078 178.44500732421875 124.77737426757812" stroke-width="2.0" fill="none" stroke="rgb(0, 0, 0)" stroke-opacity="1" stroke-linecap="round" stroke-linejoin="round"/>
    <path d="M 185.8599853515625 205.71856689453125 C 152.3561248779297 207.0254364013672 158.41761779785156 219.71780395507812 192.89549255371094 204.43739318847656 C 152.63772583007812 216.8974609375 154.84349060058594 209.2285614013672 145.92214965820312 192.74879455566406" stroke-width="2.0" fill="none" stroke="rgb(0, 0, 0)" stroke-opacity="1" stroke-linecap="round" stroke-linejoin="round"/>
    <path d="M 33.02284240722656 196.3385009765625 C 28.313997268676758 205.43861389160156 60.419105529785156 210.763671875 68.30762481689453 187.29298400878906" stroke-width="2.0" fill="none" stroke="rgb(0, 0, 0)" stroke-opacity="1" stroke-linecap="round" stroke-linejoin="round"/>
    <path d="M 149.1084747314453 34.37225341796875 C 153.57972717285156 -4.84935188293457 136.48995971679688 9.514033317565918 176.1310577392578 -2.9755897521972656 C 140.00538635253906 1.1963504552841187 149.85707092285156 -1.5983515977859497 150.9375762939453 17.327632904052734 C 149.8411407470703 -5.912459850311279 130.2302703857422 11.534605979919434 155.3758544921875 -3.5685977935791016" stroke-width="2.0" fill="none" stroke="rgb(0, 0, 0)" stroke-opacity="1" stroke-linecap="round" stroke-linejoin="round"/>
    <path d="M 184.1161346435547 109.923583984375 C 189.2192840576172 49.65957260131836 189.13291931152344 44.20192337036133 205.592041015625 47.72063064575195" stroke-width="2.0" fill="none" stroke="rgb(0, 0, 0)" stroke-opacity="1" stroke-linecap="round" stroke-linejoin="round"/>
    <path d="M 158.84451293945312 25.638042449951172 C 112.23233032226562 18.79654884338379 165.7040557861328 20.01512336730957 205.2724151611328 23.48070526123047" stroke-width="2.0" fill="none" stroke="rgb(0, 0, 0)" stroke-opacity="1" stroke-linecap="round" stroke-linejoin="round"/>
    <path d="M 56.7756462097168 178.72967529296875 C 90.94791412353516 159.6250762939453 91.61767578125 165.61886596679688 57.03105926513672 174.5410614013672" stroke-width="2.0" fill="none" stroke="rgb(0, 0, 0)" stroke-opacity="1" stroke-linecap="round" stroke-linejoin="round"/>
    <path d="M 55.6584587097168 9.775006294250488 C 100.72484588623047 22.43161964416504 131.21507263183594 25.489765167236328 126.98822021484375 21.54444694519043 C 135.0726318359375 19.35857391357422 122.73817443847656 14.278426170349121 61.33740234375 5.228774070739746" stroke-width="2.0" fill="none" stroke="rgb(0, 0, 0)" stroke-opacity="1" stroke-linecap="round" stroke-linejoin="round"/>
    <path d="M 159.7588653564453 53.00679397583008 C 156.6016082763672 23.9062442779541 172.49996948242188 39.301124572753906 171.69302368164062 61.48921585083008 C 181.44581604003906 72.36386108398438 187.64337158203125 73.07064056396484 174.12733459472656 67.50726318359375 C 180.58616638183594 65.630859375 169.9528350830078 26.892223358154297 171.0924072265625 23.653871536254883" stroke-width="2.0" fill="none" stroke="rgb(0, 0, 0)" stroke-opacity="1" stroke-linecap="round" stroke-linejoin="round"/>
    <path d="M 42.51481246948242 143.08197021484375 C 58.36347961425781 141.0305938720703 53.752628326416016 171.82675170898438 23.30282211303711 159.27330017089844 C 18.832164764404297 167.48941040039062 20.921520233154297 156.42405700683594 48.15432357788086 163.45932006835938 C 65.83006286621094 151.46755981445312 48.04473114013672 219.09515380859375 61.77330780029297 179.18881225585938" stroke-width="2.0" fill="none" stroke="rgb(0, 0, 0)" stroke-opacity="1" stroke-linecap="round" stroke-linejoin="round"/>
    <path d="M 29.66674041748047 163.7255859375 C 52.875633239746094 152.3898468017578 66.19022369384766 185.7403564453125 35.473270416259766 187.6092071533203" stroke-width="2.0" fill="none" stroke="rgb(0, 0, 0)" stroke-opacity="1" stroke-linecap="round" stroke-linejoin="round"/>
    <path d="M 74.40632629394531 199.785888671875 C 90.36408996582031 174.4634552001953 93.75997161865234 195.91058349609375 68.43294525146484 186.70916748046875 C 66.29130554199219 185.41673278808594 69.73394012451172 169.12005615234375 81.13429260253906 200.2685089111328" stroke-width="2.0" fill="none" stroke="rgb(0, 0, 0)" stroke-opacity="1" stroke-linecap="round" stroke-linejoin="round"/>
    <path d="M 172.55271911621094 79.29224395751953 C 173.3629150390625 67.24104309082031 193.0497589111328 27.567874908447266 164.7340545654297 40.651222229003906 C 162.9044952392578 54.02172088623047 172.64334106445312 52.770042419433594 138.5224151611328 54.15635299682617" stroke-width="2.0" fill="none" stroke="rgb(0, 0, 0)" stroke-opacity="1" stroke-linecap="round" stroke-linejoin="round"/>
    <path d="M 23.362403869628906 30.543134689331055 C 20.912220001220703 50.273441314697266 4.844775199890137 71.9133529663086 -4.70901346206665 81.28492736816406" stroke-width="2.0" fill="none" stroke="rgb(0, 0, 0)" stroke-opacity="1" stroke-linecap="round" stroke-linejoin="round"/>
    <path d="M 150.41708374023438 41.35578918457031 C 136.38592529296875 10.404715538024902 125.9393539428711 15.709507942199707 170.04583740234375 -4.843455791473389 C 172.80711364746094 -16.95623207092285 170.53109741210938 -6.256106853485107 117.0345687866211 8.351953506469727" stroke-width="2.0" fill="none" stroke="rgb(0, 0, 0)" stroke-opacity="1" stroke-linecap="round" stroke-linejoin="round"/>
    <path d="M 133.60867309570312 74.10469055175781 C 69.42933654785156 87.36996459960938 79.74577331542969 69.7505874633789 84.70443725585938 97.17183685302734 C 92.2457046508789 51.867713928222656 72.16163635253906 69.50982666015625 98.03783416748047 63.69844436645508 C 87.34457397460938 45.43691635131836 107.52388763427734 52.946475982666016 88.29808807373047 50.778499603271484" stroke-width="2.0" fill="none" stroke="rgb(0, 0, 0)" stroke-opacity="1" stroke-linecap="round" stroke-linejoin="round"/>
    <path d="M 204.42051696777344 24.94676971435547 C 207.257080078125 8.716573715209961 199.1321258544922 18.908193588256836 228.21238708496094 28.35150146484375 C 244.7749786376953 22.22545051574707 241.8979949951172 32.317962646484375 250.85142517089844 33.92276382446289" stroke-width="2.0" fill="none" stroke="rgb(0, 0, 0)" stroke-opacity="1" stroke-linecap="round" stroke-linejoin="round"/>
    <path d="M 67.04476165771484 178.63609313964844 C 67.2445068359375 203.7680206298828 63.9913444519043 175.31211853027344 72.27887725830078 188.84201049804688 C 61.27981948852539 162.91139221191406 67.58000183105469 193.24034118652344 58.10332489013672 195.43077087402344 C 68.73597717285156 187.82916259765625 59.324527740478516 172.83583068847656 67.34891510009766 172.61770629882812" stroke-width="2.0" fill="none" stroke="rgb(0, 0, 0)" stroke-opacity="1" stroke-linecap="round" stroke-linejoin="round"/>
    <path d="M 187.05519104003906 188.58151245117188 C 227.10435485839844 183.6147918701172 193.74130249023438 190.33616638183594 206.3411865234375 189.92686462402344" stroke-width="2.0" fill="none" stroke="rgb(0, 0, 0)" stroke-opacity="1" stroke-linecap="round" stroke-linejoin="round"/>
    <path d="M 153.26974487304688 28.891647338867188 C 147.26828002929688 79.87010955810547 158.37437438964844 79.88935089111328 158.9453582763672 24.55642318725586 C 228.4264678955078 27.186471939086914 217.02053833007812 37.765785217285156 171.5531768798828 27.449844360351562" stroke-width="2.0" fill="none" stroke="rgb(0, 0, 0)" stroke-opacity="1" stroke-linecap="round" stroke-linejoin="round"/>
    <path d="M 34.46730422973633 35.92361068725586 C 36.93133544921875 16.132461547851562 41.676963806152344 35.901222229003906 56.85323715209961 27.4022274017334 C 31.21605110168457 12.583473205566406 32.38621520996094 14.1303129196167 75.37242889404297 5.828523635864258 C 69.00572204589844 10.442096710205078 99.8807601928711 9.332881927490234 95.69044494628906 13.265620231628418" stroke-width="2.0" fill="none" stroke="rgb(0, 0, 0)" stroke-opacity="1" stroke-linecap="round" stroke-linejoin="round"/>
    <path d="M 114.0057144165039 73.33793640136719 C 116.7288818359375 36.405155181884766 129.37155151367188 83.3537368774414 113.64701843261719 54.02090072631836 C 111.12388610839844 78.17808532714844 97.97802734375 66.92317199707031 93.94218444824219 51.59647750854492 C 103.9969711303711 79.66446685791016 87.54058074951172 45.73166275024414 97.79501342773438 84.12731170654297" stroke-width="2.0" fill="none" stroke="rgb(0, 0, 0)" stroke-opacity="1" stroke-linecap="round" stroke-linejoin="round"/>
    <path d="M 129.66761779785156 143.58502197265625 C 124.39900970458984 138.5638885498047 144.99598693847656 130.3724365234375 128.76112365722656 138.78085327148438" stroke-width="2.0" fill="none" stroke="rgb(0, 0, 0)" stroke-opacity="1" stroke-linecap="round" stroke-linejoin="round"/>
    <path d="M 168.9424591064453 88.60831451416016 C 174.99534606933594 114.82453918457031 192.15792846679688 133.1565704345703 180.99560546875 87.4054183959961" stroke-width="2.0" fill="none" stroke="rgb(0, 0, 0)" stroke-opacity="1" stroke-linecap="round" stroke-linejoin="round"/>
    <path d="M 144.42173767089844 130.3066864013672 C 147.62179565429688 105.781005859375 166.0244598388672 84.2891616821289 151.53668212890625 127.63170623779297 C 153.96267700195312 82.56358337402344 156.93048095703125 115.5669174194336 154.5820770263672 133.5774688720703 C 181.9370880126953 125.87297821044922 167.75828552246094 116.41266632080078 153.93801879882812 161.6753387451172" stroke-width="2.0" fill="none" stroke="rgb(0, 0, 0)" stroke-opacity="1" stroke-linecap="round" stroke-linejoin="round"/>
    <path d="M 216.84744262695312 200.441162109375 C 224.14404296875 197.96572875976562 219.6526336669922 186.73692321777344 172.96261596679688 189.00396728515625 C 214.5035858154297 186.0841064453125 234.5000457763672 225.1010284423828 224.213134765625 191.56857299804688" stroke-width="2.0" fill="none" stroke="rgb(0, 0, 0)" stroke-opacity="1" stroke-linecap="round" stroke-linejoin="round"/>
    <path d="M 219.85598754882812 134.81210327148438 C 222.54331970214844 184.12384033203125 231.0575408935547 163.5053253173828 214.62417602539062 178.1028594970703" stroke-width="2.0" fill="none" stroke="rgb(0, 0, 0)" stroke-opacity="1" stroke-linecap="round" stroke-linejoin="round"/>
    <path d="M 95.4981460571289 32.00946044921875 C 104.76773834228516 57.04670715332031 104.15104675292969 66.3817367553711 111.46818542480469 37.838401794433594" stroke-width="2.0" fill="none" stroke="rgb(0, 0, 0)" stroke-opacity="1" stroke-linecap="round" stroke-linejoin="round"/>
    <path d="M 19.407655715942383 123.3899917602539 C 27.55478858947754 113.3331069946289 25.59543800354004 134.62606811523438 28.524394989013672 118.94717407226562" stroke-width="2.0" fill="none" stroke="rgb(0, 0, 0)" stroke-opacity="1" stroke-linecap="round" stroke-linejoin="round"/>
    <path d="M 157.66671752929688 -5.243868827819824 C 171.6388397216797 3.587692975997925 176.40504455566406 52.033321380615234 169.02578735351562 41.81453323364258 C 168.86312866210938 57.902706146240234 179.70278930664062 18.939289093017578 165.76760864257812 19.170124053955078 C 167.9413604736328 11.481205940246582 178.3110809326172 24.087074279785156 179.49005126953125 57.65483474731445" stroke-width="2.0" fill="none" stroke="rgb(0, 0, 0)" stroke-opacity="1" stroke-linecap="round" stroke-linejoin="round"/>
    <path d="M 188.8295135498047 116.18360900878906 C 203.75526428222656 174.4784393310547 193.60206604003906 110.116455078125 189.70135498046875 99.5097885131836 C 187.12158203125 130.89187622070312 201.5133514404297 99.77903747558594 188.57955932617188 72.16053009033203 C 191.176513671875 119.59203338623047 191.22183227539062 104.74462127685547 195.9384002685547 125.55059814453125" stroke-width="2.0" fill="none" stroke="rgb(0, 0, 0)" stroke-opacity="1" stroke-linecap="round" stroke-linejoin="round"/>
    <path d="M 109.8834228515625 181.8404541015625 C 113.64400482177734 198.0329132080078 100.17875671386719 198.81414794921875 117.5350570678711 195.26283264160156 C 93.01197052001953 203.6488494873047 115.16667175292969 185.0933074951172 113.28239440917969 206.68785095214844" stroke-width="2.0" fill="none" stroke="rgb(0, 0, 0)" stroke-opacity="1" stroke-linecap="round" stroke-linejoin="round"/>
    <path d="M 132.21725463867188 193.28778076171875 C 121.03157043457031 205.22573852539062 116.53531646728516 186.97512817382812 123.97461700439453 202.97023010253906 C 98.89361572265625 209.56858825683594 103.73240661621094 196.15916442871094 106.82697296142578 210.87950134277344 C 156.50656127929688 220.9438934326172 144.51983642578125 213.06356811523438 137.8023223876953 211.42440795898438" stroke-width="2.0" fill="none" stroke="rgb(0, 0, 0)" stroke-opacity="1" stroke-linecap="round" stroke-linejoin="round"/>
    <path d="M 40.173702239990234 221.18746948242188 C 25.81468391418457 201.3157501220703 31.09939193725586 198.39817810058594 5.86414098739624 200.2770538330078 C 22.068201065063477 194.58364868164062 15.988884925842285 165.320068359375 32.715126037597656 178.96034240722656" stroke-width="2.0" fill="none" stroke="rgb(0, 0, 0)" stroke-opacity="1" stroke-linecap="round" stroke-linejoin="round"/>
    <path d="M 185.07432556152344 12.217884063720703 C 179.6519012451172 12.207386016845703 182.00341796875 8.081113815307617 185.9915771484375 19.41600227355957" stroke-width="2.0" fill="none" stroke="rgb(0, 0, 0)" stroke-opacity="1" stroke-linecap="round" stroke-linejoin="round"/>
    <path d="M 89.89849090576172 35.77269744873047 C 84.2612075805664 70.9076919555664 87.9568099975586 65.5051040649414 63.98103332519531 65.8507308959961 C 57.9876708984375 62.67334747314453 75.66362762451172 43.3042106628418 85.720947265625 40.620704650878906 C 48.385074615478516 68.34236907958984 50.97534942626953 106.08200073242188 67.29600524902344 59.7059326171875" stroke-width="2.0" fill="none" stroke="rgb(0, 0, 0)" stroke-opacity="1" stroke-linecap="round" stroke-linejoin="round"/>
    <path d="M 232.86428833007812 62.51557540893555 C 187.58555603027344 73.91197204589844 173.1529998779297 67.84010314941406 183.89244079589844 56.14119338989258 C 209.04881286621094 31.217390060424805 209.75535583496094 26.668516159057617 189.23316955566406 45.34575653076172" stroke-width="2.0" fill="none" stroke="rgb(0, 0, 0)" stroke-opacity="1" stroke-linecap="round" stroke-linejoin="round"/>
    <path d="M 101.21144104003906 174.40731811523438 C 125.98768615722656 169.87339782714844 78.87176513671875 191.17713928222656 109.90602111816406 148.97506713867188 C 113.047119140625 171.42784118652344 168.0263671875 122.22075653076172 130.49940490722656 164.61094665527344 C 128.70896911621094 188.16705322265625 100.9002456665039 155.09400939941406 124.08354187011719 170.8540802001953" stroke-width="2.0" fill="none" stroke="rgb(0, 0, 0)" stroke-opacity="1" stroke-linecap="round" stroke-linejoin="round"/>
    <path d="M 63.66853332519531 215.55654907226562 C 89.37963104248047 209.19296264648438 35.84746170043945 200.74307250976562 27.82929801940918 221.4000701904297" stroke-width="2.0" fill="none" stroke="rgb(0, 0, 0)" stroke-opacity="1" stroke-linecap="round" stroke-linejoin="round"/>
    <path d="M 84.77596282958984 179.090087890625 C 97.79657745361328 151.18959045410156 99.47460174560547 161.63327026367188 72.84298706054688 169.71014404296875" stroke-width="2.0" fill="none" stroke="rgb(0, 0, 0)" stroke-opacity="1" stroke-linecap="round" stroke-linejoin="round"/>
    <path d="M 64.42528533935547 217.23724365234375 C 68.5580825805664 209.22874450683594 71.52306365966797 185.35646057128906 83.1219253540039 198.05819702148438" stroke-width="2.0" fill="none" stroke="rgb(0, 0, 0)" stroke-opacity="1" stroke-linecap="round" stroke-linejoin="round"/>
    <path d="M 103.70697021484375 153.9427032470703 C 102.6588134765625 150.90478515625 114.62714385986328 137.8319854736328 115.1009521484375 169.76625061035156 C 108.60710144042969 133.8670654296875 96.47892761230469 155.5065460205078 94.79489135742188 182.26988220214844 C 126.2273941040039 196.08221435546875 85.27880096435547 186.61297607421875 65.9124755859375 180.12168884277344" stroke-width="2.0" fill="none" stroke="rgb(0, 0, 0)" stroke-opacity="1" stroke-linecap="round" stroke-linejoin="round"/>
    <path d="M -5.8571553230285645 204.2893524169922 C -8.643390655517578 225.6796875 0.5590282678604126 210.25160217285156 -4.907739639282227 220.10264587402344 C -14.371060371398926 230.49249267578125 -19.284984588623047 209.36294555664062 12.428779602050781 193.24932861328125 C 23.736867904663086 189.8718719482422 -10.500738143920898 188.01846313476562 -30.539134979248047 183.4773712158203" stroke-width="2.0" fill="none" stroke="rgb(0, 0, 0)" stroke-opacity="1" stroke-linecap="round" stroke-linejoin="round"/>
    <path d="M 95.40153503417969 216.71621704101562 C 57.10907745361328 207.50706481933594 67.91674041748047 192.93545532226562 74.23135375976562 188.44947814941406 C 58.183353424072266 209.76617431640625 58.78926467895508 214.25550842285156 102.69426727294922 188.7465362548828 C 69.30162048339844 201.768798828125 81.63748931884766 219.0928497314453 54.97471237182617 219.3588409423828" stroke-width="2.0" fill="none" stroke="rgb(0, 0, 0)" stroke-opacity="1" stroke-linecap="round" stroke-linejoin="round"/>
    <path d="M 187.00119018554688 55.12282180786133 C 187.5357666015625 81.5573501586914 160.4761962890625 80.92655181884766 177.46414184570312 78.20100402832031 C 193.84194946289062 100.78492736816406 187.46949768066406 96.03007507324219 160.80125427246094 95.55997467041016" stroke-width="2.0" fill="none" stroke="rgb(0, 0, 0)" stroke-opacity="1" stroke-linecap="round" stroke-linejoin="round"/>
    <path d="M 89.205078125 -2.462887763977051 C 72.91641235351562 53.9264030456543 94.0130386352539 33.63099670410156 91.81692504882812 11.680089950561523" stroke-width="2.0" fill="none" stroke="rgb(0, 0, 0)" stroke-opacity="1" stroke-linecap="round" stroke-linejoin="round"/>
    <path d="M 147.85987854003906 191.26467895507812 C 152.55474853515625 223.41773986816406 171.50717163085938 202.81112670898438 193.74082946777344 222.1535186767578" stroke-width="2.0" fill="none" stroke="rgb(0, 0, 0)" stroke-opacity="1" stroke-linecap="round" stroke-linejoin="round"/>
    <path d="M 101.8658447265625 197.2069549560547 C 107.11112976074219 210.20892333984375 103.64968872070312 202.47962951660156 121.16497039794922 205.95135498046875" stroke-width="2.0" fill="none" stroke="rgb(0, 0, 0)" stroke-opacity="1" stroke-linecap="round" stroke-linejoin="round"/>
    <path d="M 209.79823303222656 163.0372314453125 C 189.88131713867188 106.84832763671875 207.04263305664062 105.00838470458984 190.34361267089844 104.73966979980469" stroke-width="2.0" fill="none" stroke="rgb(0, 0, 0)" stroke-opacity="1" stroke-linecap="round" stroke-linejoin="round"/>
    <path d="M 55.943206787109375 51.98943328857422 C 54.6104736328125 11.872110366821289 48.41740036010742 0.5714221596717834 52.24516677856445 52.97175216674805" stroke-width="2.0" fill="none" stroke="rgb(0, 0, 0)" stroke-opacity="1" stroke-linecap="round" stroke-linejoin="round"/>
    <path d="M 109.3051528930664 48.38547134399414 C 158.87062072753906 35.58251953125 125.56005859375 45.19583511352539 125.63642883300781 31.681812286376953 C 147.39669799804688 53.96626281738281 139.15145874023438 29.96202278137207 130.6942596435547 58.3573112487793" stroke-width="2.0" fill="none" stroke="rgb(0, 0, 0)" stroke-opacity="1" stroke-linecap="round" stroke-linejoin="round"/>
    <path d="M 84.7020263671875 32.16685485839844 C 119.1156997680664 23.57948112487793 104.24818420410156 1.270117998123169 102.25994873046875 -8.447074890136719 C 92.74432373046875 37.038841247558594 93.77845764160156 23.204727172851562 102.66194152832031 22.547101974487305" stroke-width="2.0" fill="none" stroke="rgb(0, 0, 0)" stroke-opacity="1" stroke-linecap="round" stroke-linejoin="round"/>
    <path d="M 66.71798706054688 225.0450439453125 C 122.96500396728516 225.12648010253906 94.68001556396484 209.11358642578125 51.3286247253418 207.81210327148438" stroke-width="2.0" fill="none" stroke="rgb(0, 0, 0)" stroke-opacity="1" stroke-linecap="round" stroke-linejoin="round"/>
    <path d="M 176.26809692382812 68.91963195800781 C 191.08299255371094 71.97108459472656 189.92713928222656 58.75648498535156 171.4972381591797 20.294660568237305 C 176.228515625 83.109375 188.29486083984375 83.6749496459961 169.5181884765625 78.28352355957031 C 162.8582763671875 4.930180072784424 177.9033660888672 -1.9029529094696045 170.0720977783203 67.67731475830078" stroke-width="2.0" fill="none" stroke="rgb(0, 0, 0)" stroke-opacity="1" stroke-linecap="round" stroke-linejoin="round"/>
    <path d="M 140.39259338378906 33.88382339477539 C 126.75994873046875 18.3164005279541 126.32024383544922 -6.957027912139893 138.3477020263672 9.536701202392578" stroke-width="2.0" fill="none" stroke="rgb(0, 0, 0)" stroke-opacity="1" stroke-linecap="round" stroke-linejoin="round"/>
    <path d="M 125.71827697753906 180.83705139160156 C 127.3954086303711 206.91587829589844 118.44783782958984 168.8084716796875 135.86598205566406 177.37710571289062 C 132.9556884765625 167.60302734375 127.34261322021484 194.77957153320312 138.99276733398438 205.47976684570312 C 146.3103790283203 202.54029846191406 123.0860595703125 233.26959228515625 121.46705627441406 204.4328155517578" stroke-width="2.0" fill="none" stroke="rgb(0, 0, 0)" stroke-opacity="1" stroke-linecap="round" stroke-linejoin="round"/>
    <path d="M 20.21099281311035 163.5685272216797 C 20.570404052734375 162.4308319091797 42.610164642333984 163.7942352294922 45.76287078857422 147.99795532226562" stroke-width="2.0" fill="none" stroke="rgb(0, 0, 0)" stroke-opacity="1" stroke-linecap="round" stroke-linejoin="round"/>
    <path d="M 96.86087036132812 31.982526779174805 C 103.84771728515625 53.19895553588867 104.58417510986328 12.68620491027832 95.98454284667969 22.060598373413086" stroke-width="2.0" fill="none" stroke="rgb(0, 0, 0)" stroke-opacity="1" stroke-linecap="round" stroke-linejoin="round"/>
    <path d="M 189.1956787109375 132.53436279296875 C 214.6771240234375 124.05439758300781 225.8778839111328 146.44622802734375 210.92221069335938 115.27777862548828 C 203.9560546875 109.62763214111328 205.3770751953125 140.1766815185547 218.4938201904297 165.12005615234375" stroke-width="2.0" fill="none" stroke="rgb(0, 0, 0)" stroke-opacity="1" stroke-linecap="round" stroke-linejoin="round"/>
    <path d="M 141.00550842285156 147.28160095214844 C 176.56195068359375 122.72289276123047 175.55946350097656 131.28579711914062 138.29017639160156 134.5439453125 C 127.22479248046875 137.8609161376953 123.27962493896484 134.107421875 135.23544311523438 135.1373748779297 C 126.2745590209961 103.68956756591797 115.01799011230469 105.72647857666016 127.50381469726562 111.43461608886719" stroke-width="2.0" fill="none" stroke="rgb(0, 0, 0)" stroke-opacity="1" stroke-linecap="round" stroke-linejoin="round"/>
    <path d="M 162.9881134033203 117.30213165283203 C 206.7286376953125 116.76521301269531 179.32974243164062 112.88333129882812 184.0863037109375 115.36184692382812 C 187.1293182373047 83.47269439697266 184.09999084472656 99.40315246582031 201.07542419433594 134.96554565429688 C 193.28250122070312 55.92465591430664 193.67547607421875 77.88017272949219 219.8120880126953 133.90098571777344" stroke-width="2.0" fill="none" stroke="rgb(0, 0, 0)" stroke-opacity="1" stroke-linecap="round" stroke-linejoin="round"/>
    <path d="M 203.9293212890625 142.07960510253906 C 222.01339721679688 184.23529052734375 221.6494903564453 169.23382568359375 208.17120361328125 110.6631851196289 C 189.8538818359375 108.42932891845703 209.64495849609375 101.54864501953125 191.043701171875 144.0570068359375" stroke-width="2.0" fill="none" stroke="rgb(0, 0, 0)" stroke-opacity="1" stroke-linecap="round" stroke-linejoin="round"/>
    <path d="M 125.98758697509766 190.91036987304688 C 96.13105773925781 209.43057250976562 82.5942611694336 183.9160919189453 145.8817596435547 202.6751251220703 C 127.69195556640625 180.36293029785156 150.17349243164062 194.64317321777344 152.9939727783203 182.72850036621094 C 147.3255157470703 180.15060424804688 148.25721740722656 207.9202880859375 154.2650146484375 157.74725341796875" stroke-width="2.0" fill="none" stroke="rgb(0, 0, 0)" stroke-opacity="1" stroke-linecap="round" stroke-linejoin="round"/>
    <path d="M 182.8980712890625 128.33731079101562 C 172.0586395263672 120.61538696289062 156.89596557617188 138.9971466064453 149.34042358398438 155.3655548095703 C 125.84942626953125 187.54823303222656 170.03416442871094 156.28909301757812 203.22903442382812 168.8355712890625 C 138.8974609375 166.55062866210938 140.0059814453125 184.7625274658203 161.20138549804688 136.81431579589844" stroke-width="2.0" fill="none" stroke="rgb(0, 0, 0)" stroke-opacity="1" stroke-linecap="round" stroke-linejoin="round"/>
    <path d="M 114.14412689208984 127.10874938964844 C 118.27896118164062 117.14463806152344 122.36133575439453 96.6551742553711 136.29592895507812 71.42820739746094 C 113.7752456665039 72.41873168945312 133.5364227294922 67.35735321044922 143.7077178955078 132.9739990234375" stroke-width="2.0" fill="none" stroke="rgb(0, 0, 0)" stroke-opacity="1" stroke-linecap="round" stroke-linejoin="round"/>
    <path d="M 204.063232421875 155.7729949951172 C 166.3898468017578 129.6934814453125 179.87149047851562 163.3622283935547 176.59410095214844 135.30213928222656 C 191.96275329589844 131.17584228515625 200.2712860107422 163.41323852539062 178.07315063476562 145.57577514648438 C 184.35911560058594 133.27035522460938 200.23663330078125 142.07864379882812 162.65992736816406 118.51057434082031" stroke-width="2.0" fill="none" stroke="rgb(0, 0, 0)" stroke-opacity="1" stroke-linecap="round" stroke-linejoin="round"/>
    <path d="M 52.046730041503906 119.79749298095703 C 36.24333572387695 119.10514831542969 43.79047393798828 124.01936340332031 24.753936767578125 131.97682189941406 C 16.498371124267578 127.66641235351562 54.524662017822266 124.69276428222656 36.1403694152832 150.1230010986328" stroke-width="2.0" fill="none" stroke="rgb(0, 0, 0)" stroke-opacity="1" stroke-linecap="round" stroke-linejoin="round"/>
    <path d="M 114.01191711425781 57.58467102050781 C 144.06546020507812 65.1471176147461 163.0739288330078 77.57637023925781 122.87458038330078 83.41476440429688 C 160.41302490234375 65.82462310791016 136.7668914794922 82.39653015136719 117.40038299560547 82.00741577148438 C 121.53734588623047 63.86043167114258 181.52008056640625 76.10521697998047 107.04476165771484 77.06070709228516" stroke-width="2.0" fill="none" stroke="rgb(0, 0, 0)" stroke-opacity="1" stroke-linecap="round" stroke-linejoin="round"/>
    <path d="M 25.983617782592773 184.17709350585938 C 38.41298294067383 191.25302124023438 48.70501708984375 204.12551879882812 32.64700698852539 195.15756225585938" stroke-width="2.0" fill="none" stroke="rgb(0, 0, 0)" stroke-opacity="1" stroke-linecap="round" stroke-linejoin="round"/>
    <path d="M 18.19513702392578 12.977629661560059 C 35.696529388427734 -4.414743423461914 47.215606689453125 2.284644842147827 61.69728469848633 -1.2883771657943726" stroke-width="2.0" fill="none" stroke="rgb(0, 0, 0)" stroke-opacity="1" stroke-linecap="round" stroke-linejoin="round"/>
    <path d="M 46.56513595581055 126.70538330078125 C 74.9294204711914 100.44692993164062 44.1893310546875 145.0802459716797 40.04522705078125 126.71953582763672 C 68.47731018066406 112.07600402832031 21.670015335083008 131.3551483154297 31.750696182250977 120.93193817138672" stroke-width="2.0" fill="none" stroke="rgb(0, 0, 0)" stroke-opacity="1" stroke-linecap="round" stroke-linejoin="round"/>
    <path d="M 65.98567199707031 148.6888427734375 C 65.69365692138672 164.84182739257812 63.742103576660156 156.150146484375 74.53009796142578 155.13616943359375" stroke-width="2.0" fill="none" stroke="rgb(0, 0, 0)" stroke-opacity="1" stroke-linecap="round" stroke-linejoin="round"/>
    <path d="M 230.8417510986328 173.462646484375 C 235.18373107910156 170.78590393066406 236.73294067382812 168.23226928710938 239.28652954101562 163.89041137695312 C 235.08460998535156 170.83258056640625 245.57008361816406 169.62261962890625 236.4650115966797 178.7339630126953" stroke-width="2.0" fill="none" stroke="rgb(0, 0, 0)" stroke-opacity="1" stroke-linecap="round" stroke-linejoin="round"/>
    <path d="M 31.57307243347168 163.94943237304688 C 56.82129669189453 166.61439514160156 48.13658142089844 191.67269897460938 25.977998733520508 179.7669677734375 C 16.426549911499023 199.14688110351562 38.971290588378906 207.7570037841797 33.8880615234375 188.0186309814453 C 40.023345947265625 181.86598205566406 61.10411071777344 216.20083618164062 65.36123657226562 175.2596435546875" stroke-width="2.0" fill="none" stroke="rgb(0, 0, 0)" stroke-opacity="1" stroke-linecap="round" stroke-linejoin="round"/>
    <path d="M 202.38917541503906 175.1570587158203 C 229.54803466796875 201.35182189941406 220.53424072265625 187.07339477539062 202.83120727539062 198.88726806640625" stroke-width="2.0" fill="none" stroke="rgb(0, 0, 0)" stroke-opacity="1" stroke-linecap="round" stroke-linejoin="round"/>
    <path d="M 176.02255249023438 199.0874786376953 C 136.0787811279297 231.04087829589844 122.5641098022461 232.50241088867188 161.00442504882812 211.48995971679688 C 129.16644287109375 232.01268005371094 130.3061981201172 200.65689086914062 115.3101577758789 228.8976287841797 C 123.40836334228516 233.580078125 138.0301055908203 222.08851623535156 181.01632690429688 201.81829833984375" stroke-width="2.0" fill="none" stroke="rgb(0, 0, 0)" stroke-opacity="1" stroke-linecap="round" stroke-linejoin="round"/>
    <path d="M 102.68011474609375 66.80416107177734 C 109.52982330322266 77.0009765625 98.57892608642578 81.47095489501953 101.44866943359375 64.50421142578125 C 106.36883544921875 86.63814544677734 89.6573257446289 83.74037170410156 93.8940658569336 64.44966888427734" stroke-width="2.0" fill="none" stroke="rgb(0, 0, 0)" stroke-opacity="1" stroke-linecap="round" stroke-linejoin="round"/>
    <path d="M 212.60568237304688 50.32460403442383 C 190.32177734375 36.26531219482422 193.8750762939453 67.58979797363281 187.36424255371094 62.765567779541016 C 163.52256774902344 58.474117279052734 178.9637451171875 69.7289810180664 196.0642547607422 41.12327194213867 C 222.06617736816406 50.68943405151367 225.43565368652344 54.44883728027344 199.58543395996094 52.82388687133789" stroke-width="2.0" fill="none" stroke="rgb(0, 0, 0)" stroke-opacity="1" stroke-linecap="round" stroke-linejoin="round"/>
    <path d="M 114.66832733154297 86.58399200439453 C 105.95014190673828 71.28015899658203 131.7561798095703 70.44468688964844 121.70118713378906 96.38848114013672 C 102.8926773071289 85.69742584228516 106.7367935180664 86.05878448486328 116.13581848144531 84.99295043945312" stroke-width="2.0" fill="none" stroke="rgb(0, 0, 0)" stroke-opacity="1" stroke-linecap="round" stroke-linejoin="round"/>
    <path d="M 177.2982940673828 123.01526641845703 C 172.1107177734375 146.38327026367188 186.70542907714844 148.5378875732422 189.68267822265625 133.23861694335938 C 174.2754669189453 120.2626953125 167.78106689453125 131.31602478027344 175.6017608642578 125.57008361816406 C 156.25531005859375 150.2223358154297 152.0746307373047 155.35845947265625 201.10934448242188 142.10723876953125" stroke-width="2.0" fill="none" stroke="rgb(0, 0, 0)" stroke-opacity="1" stroke-linecap="round" stroke-linejoin="round"/>
    <path d="M 196.4568634033203 84.36840057373047 C 188.9752655029297 66.83244323730469 218.8723907470703 106.9268569946289 227.1452178955078 149.01614379882812" stroke-width="2.0" fill="none" stroke="rgb(0, 0, 0)" stroke-opacity="1" stroke-linecap="round" stroke-linejoin="round"/>
    <path d="M 54.78618240356445 53.472984313964844 C 82.67841339111328 40.7866325378418 76.04541015625 69.2718734741211 38.43597412109375 63.42692565917969 C 32.027565002441406 76.26793670654297 36.19282150268555 35.56586456298828 42.15824890136719 67.33413696289062" stroke-width="2.0" fill="none" stroke="rgb(0, 0, 0)" stroke-opacity="1" stroke-linecap="round" stroke-linejoin="round"/>
    <path d="M 79.84356689453125 -11.831557273864746 C 80.64689636230469 5.1723408699035645 77.36070251464844 38.73213577270508 79.84362030029297 15.704570770263672" stroke-width="2.0" fill="none" stroke="rgb(0, 0, 0)" stroke-opacity="1" stroke-linecap="round" stroke-linejoin="round"/>
    <path d="M 91.23818969726562 161.56410217285156 C 70.23851013183594 165.82618713378906 75.81343841552734 165.04661560058594 76.99250030517578 138.8644561767578 C 88.21976470947266 146.5321502685547 76.53978729248047 143.77024841308594 78.00579071044922 135.88259887695312 C 76.50069427490234 148.50254821777344 71.71309661865234 153.15000915527344 92.75635528564453 160.8520965576172" stroke-width="2.0" fill="none" stroke="rgb(0, 0, 0)" stroke-opacity="1" stroke-linecap="round" stroke-linejoin="round"/>
    <path d="M 25.263912200927734 161.54624938964844 C 29.317092895507812 166.77828979492188 18.843597412109375 153.5714569091797 19.676836013793945 171.49623107910156" stroke-width="2.0" fill="none" stroke="rgb(0, 0, 0)" stroke-opacity="1" stroke-linecap="round" stroke-linejoin="round"/>
    <path d="M 180.81997680664062 12.709641456604004 C 154.81187438964844 17.435869216918945 161.85630798339844 15.881482124328613 175.653564453125 24.349145889282227 C 185.04977416992188 40.275211334228516 194.3640899658203 57.724544525146484 199.7054901123047 44.113216400146484 C 195.85589599609375 51.03464126586914 196.37933349609375 26.3975887298584 200.24610900878906 7.977480411529541" stroke-width="2.0" fill="none" stroke="rgb(0, 0, 0)" stroke-opacity="1" stroke-linecap="round" stroke-linejoin="round"/>
    <path d="M 144.294921875 37.42865753173828 C 147.6617889404297 69.50497436523438 151.0803985595703 38.86134338378906 134.04127502441406 22.39928436279297" stroke-width="2.0" fill="none" stroke="rgb(0, 0, 0)" stroke-opacity="1" stroke-linecap="round" stroke-linejoin="round"/>
    <path d="M 146.2883758544922 102.122314453125 C 148.4850616455078 55.97111511230469 145.96145629882812 62.27308654785156 130.71873474121094 90.41995239257812 C 184.08193969726562 87.92120361328125 184.87265014648438 82.89410400390625 175.85189819335938 75.72074890136719" stroke-width="2.0" fill="none" stroke="rgb(0, 0, 0)" stroke-opacity="1" stroke-linecap="round" stroke-linejoin="round"/>
    <path d="M 210.42271423339844 191.28160095214844 C 238.9301300048828 208.9319610595703 222.1883544921875 189.6072998046875 207.8461456298828 230.76309204101562" stroke-width="2.0" fill="none" stroke="rgb(0, 0, 0)" stroke-opacity="1" stroke-linecap="round" stroke-linejoin="round"/>
    <path d="M 163.23052978515625 119.19415283203125 C 182.15292358398438 124.17790222167969 175.84112548828125 120.50631713867188 166.4365692138672 134.9310760498047 C 147.5656280517578 184.83120727539062 172.75621032714844 169.8693084716797 141.8730010986328 176.90928649902344 C 127.6777114868164 171.1658477783203 154.5166778564453 134.7948455810547 145.42282104492188 157.37704467773438" stroke-width="2.0" fill="none" stroke="rgb(0, 0, 0)" stroke-opacity="1" stroke-linecap="round" stroke-linejoin="round"/>
    <path d="M 160.45208740234375 177.11300659179688 C 150.01480102539062 185.54287719726562 179.36685180664062 210.9510955810547 160.52452087402344 179.65008544921875" stroke-width="2.0" fill="none" stroke="rgb(0, 0, 0)" stroke-opacity="1" stroke-linecap="round" stroke-linejoin="round"/>
    <path d="M 215.66954040527344 201.3634796142578 C 174.86807250976562 220.16920471191406 177.9053497314453 205.0746307373047 193.45187377929688 220.77471923828125 C 194.41786193847656 214.78961181640625 179.11599731445312 207.66961669921875 191.31675720214844 222.582275390625" stroke-width="2.0" fill="none" stroke="rgb(0, 0, 0)" stroke-opacity="1" stroke-linecap="round" stroke-linejoin="round"/>
    <path d="M 19.48650360107422 106.57633972167969 C -8.66488265991211 119.68687438964844 -17.92235565185547 109.2533950805664 -11.612950325012207 140.46348571777344 C -21.20064353942871 119.79729461669922 -17.415855407714844 122.38691711425781 -7.713249206542969 129.5078887939453" stroke-width="2.0" fill="none" stroke="rgb(0, 0, 0)" stroke-opacity="1" stroke-linecap="round" stroke-linejoin="round"/>
    <path d="M 77.28776550292969 147.56907653808594 C 87.78536987304688 170.53890991210938 70.59963989257812 165.4139862060547 86.32395935058594 161.0547332763672 C 67.59614562988281 160.80044555664062 109.53773498535156 157.470458984375 75.56767272949219 167.2122802734375 C 67.79981231689453 173.9760284423828 81.36275482177734 129.77096557617188 76.92154693603516 167.21778869628906" stroke-width="2.0" fill="none" stroke="rgb(0, 0, 0)" stroke-opacity="1" stroke-linecap="round" stroke-linejoin="round"/>
    <path d="M 70.76868438720703 7.7357048988342285 C 76.54295349121094 53.93288803100586 79.53435516357422 46.996971130371094 55.0668830871582 12.027901649475098 C 51.72981262207031 19.670438766479492 79.67028045654297 33.0887451171875 41.09341049194336 30.707469940185547" stroke-width="2.0" fill="none" stroke="rgb(0, 0, 0)" stroke-opacity="1" stroke-linecap="round" stroke-linejoin="round"/>
  </g>
</svg>
