<?xml version="1.0" ?>
<svg xmlns="http://www.w3.org/2000/svg" version="1.1" width="224" height="224">
  <defs/>
  <g>
    <path d="M 230.70864868164062 38.33812713623047 C 208.52796936035156 63.792415618896484 219.004150390625 44.98396682739258 214.90281677246094 16.66904640197754 C 155.0124053955078 16.000890731811523 203.57386779785156 14.858372688293457 234.03399658203125 9.951391220092773" stroke-width="2.0" fill="none" stroke="rgb(0, 0, 0)" stroke-opacity="1" stroke-linecap="round" stroke-linejoin="round"/>
    <path d="M 129.3971405029297 160.95901489257812 C 140.1048126220703 168.23158264160156 128.32025146484375 178.21043395996094 149.2312774658203 144.62733459472656" stroke-width="2.0" fill="none" stroke="rgb(0, 0, 0)" stroke-opacity="1" stroke-linecap="round" stroke-linejoin="round"/>
    <path d="M 133.7349853515625 225.61166381835938 C 112.25482940673828 229.23751831054688 119.00984191894531 230.57058715820312 153.45509338378906 217.39918518066406 C 160.065673828125 249.41505432128906 156.20677185058594 258.4659118652344 139.92025756835938 270.124267578125" stroke-width="2.0" fill="none" stroke="rgb(0, 0, 0)" stroke-opacity="1" stroke-linecap="round" stroke-linejoin="round"/>
    <path d="M 150.81455993652344 76.14202117919922 C 160.9447479248047 125.36988067626953 157.42086791992188 101.22429656982422 186.01718139648438 85.10124206542969 C 161.05592346191406 114.38983917236328 134.3197021484375 110.73358154296875 153.97128295898438 119.68054962158203 C 148.23013305664062 149.72105407714844 148.01181030273438 138.3986358642578 172.05892944335938 133.1729736328125" stroke-width="2.0" fill="none" stroke="rgb(0, 0, 0)" stroke-opacity="1" stroke-linecap="round" stroke-linejoin="round"/>
    <path d="M 43.03242111206055 184.90408325195312 C 49.661094665527344 156.54745483398438 43.9350700378418 178.373291015625 55.083763122558594 212.89974975585938" stroke-width="2.0" fill="none" stroke="rgb(0, 0, 0)" stroke-opacity="1" stroke-linecap="round" stroke-linejoin="round"/>
    <path d="M 186.32240295410156 227.30804443359375 C 230.45567321777344 211.1261749267578 234.28842163085938 215.3767547607422 194.64373779296875 224.65130615234375 C 183.05313110351562 207.29855346679688 188.3029327392578 189.91505432128906 196.4175567626953 214.81094360351562" stroke-width="2.0" fill="none" stroke="rgb(0, 0, 0)" stroke-opacity="1" stroke-linecap="round" stroke-linejoin="round"/>
    <path d="M 150.2002410888672 139.73033142089844 C 145.63092041015625 125.28572845458984 183.84173583984375 145.46742248535156 154.24411010742188 117.4051513671875" stroke-width="2.0" fill="none" stroke="rgb(0, 0, 0)" stroke-opacity="1" stroke-linecap="round" stroke-linejoin="round"/>
    <path d="M 118.82984924316406 183.40699768066406 C 162.11306762695312 172.0624542236328 144.82615661621094 179.6102752685547 161.869140625 142.5203094482422 C 157.98965454101562 214.86996459960938 179.47598266601562 195.40151977539062 139.6066436767578 207.25387573242188" stroke-width="2.0" fill="none" stroke="rgb(0, 0, 0)" stroke-opacity="1" stroke-linecap="round" stroke-linejoin="round"/>
    <path d="M 124.649658203125 186.8765106201172 C 107.44147491455078 177.0880889892578 131.52833557128906 167.38287353515625 141.50990295410156 158.64111328125 C 166.76925659179688 184.1720428466797 149.84500122070312 159.4357147216797 156.89610290527344 170.39617919921875 C 156.4367218017578 150.65313720703125 157.06492614746094 166.5679931640625 151.34677124023438 173.70562744140625" stroke-width="2.0" fill="none" stroke="rgb(0, 0, 0)" stroke-opacity="1" stroke-linecap="round" stroke-linejoin="round"/>
    <path d="M 140.22140502929688 28.544206619262695 C 137.16261291503906 -24.3238468170166 131.6420440673828 14.976845741271973 182.3042449951172 1.9512745141983032 C 123.80159759521484 -5.53871488571167 131.82176208496094 -6.881495952606201 130.81495666503906 28.566669464111328" stroke-width="2.0" fill="none" stroke="rgb(0, 0, 0)" stroke-opacity="1" stroke-linecap="round" stroke-linejoin="round"/>
    <path d="M 13.612151145935059 139.7212371826172 C 27.851722717285156 130.3043670654297 26.32707405090332 135.79257202148438 29.791133880615234 162.64012145996094" stroke-width="2.0" fill="none" stroke="rgb(0, 0, 0)" stroke-opacity="1" stroke-linecap="round" stroke-linejoin="round"/>
    <path d="M 192.62242126464844 31.134010314941406 C 171.25338745117188 33.395713806152344 165.5545196533203 61.79475784301758 167.184814453125 11.488170623779297 C 159.5915985107422 52.88105773925781 160.8404541015625 48.975833892822266 149.8162841796875 43.552303314208984" stroke-width="2.0" fill="none" stroke="rgb(0, 0, 0)" stroke-opacity="1" stroke-linecap="round" stroke-linejoin="round"/>
    <path d="M 83.6820068359375 5.579658031463623 C 63.27660369873047 11.4912748336792 53.76866912841797 -7.989127159118652 97.18058013916016 -2.019643545150757 C 49.8745231628418 -2.1178157329559326 42.133914947509766 -8.599698066711426 56.59061050415039 -12.693720817565918 C 82.32196044921875 2.9951651096343994 85.13835144042969 -4.762750625610352 88.62704467773438 -9.81809139251709" stroke-width="2.0" fill="none" stroke="rgb(0, 0, 0)" stroke-opacity="1" stroke-linecap="round" stroke-linejoin="round"/>
    <path d="M 40.36057662963867 76.05626678466797 C 59.69303512573242 60.004695892333984 52.74269104003906 64.52439880371094 36.85744857788086 67.29485321044922 C 34.11983871459961 31.189590454101562 23.261526107788086 59.79779052734375 36.267093658447266 78.90188598632812 C 38.795536041259766 44.30843734741211 60.40635299682617 65.89926147460938 49.95933151245117 71.27229309082031" stroke-width="2.0" fill="none" stroke="rgb(0, 0, 0)" stroke-opacity="1" stroke-linecap="round" stroke-linejoin="round"/>
    <path d="M 152.60589599609375 135.7183837890625 C 123.43795776367188 142.22508239746094 133.94874572753906 157.40969848632812 123.5456771850586 141.69076538085938" stroke-width="2.0" fill="none" stroke="rgb(0, 0, 0)" stroke-opacity="1" stroke-linecap="round" stroke-linejoin="round"/>
    <path d="M 114.63783264160156 12.88027572631836 C 77.05781555175781 12.605731964111328 49.947696685791016 1.7896608114242554 87.9710922241211 18.71478271484375" stroke-width="2.0" fill="none" stroke="rgb(0, 0, 0)" stroke-opacity="1" stroke-linecap="round" stroke-linejoin="round"/>
    <path d="M 120.02682495117188 54.75861358642578 C 135.7694854736328 42.38698196411133 102.41553497314453 60.30461883544922 136.6641082763672 61.798240661621094 C 160.29714965820312 30.534870147705078 166.92471313476562 44.839691162109375 143.63894653320312 64.52518463134766 C 120.4928207397461 56.9207649230957 141.7598114013672 72.24889373779297 117.10993957519531 53.698429107666016" stroke-width="2.0" fill="none" stroke="rgb(0, 0, 0)" stroke-opacity="1" stroke-linecap="round" stroke-linejoin="round"/>
    <path d="M 99.24842834472656 132.57882690429688 C 119.60354614257812 119.29206848144531 126.09188842773438 133.4264373779297 106.08572387695312 143.88795471191406 C 105.64318084716797 139.32037353515625 127.42255401611328 133.450927734375 133.99325561523438 114.99134826660156" stroke-width="2.0" fill="none" stroke="rgb(0, 0, 0)" stroke-opacity="1" stroke-linecap="round" stroke-linejoin="round"/>
    <path d="M 91.30709838867188 41.83090591430664 C 81.77572631835938 70.69209289550781 65.90309143066406 66.22266387939453 100.09164428710938 69.9382553100586" stroke-width="2.0" fill="none" stroke="rgb(0, 0, 0)" stroke-opacity="1" stroke-linecap="round" stroke-linejoin="round"/>
    <path d="M 69.44549560546875 3.719668388366699 C 158.97915649414062 0.9093232154846191 117.01221466064453 0.29164227843284607 64.61592102050781 1.0125465393066406 C 43.706871032714844 -10.089836120605469 68.63712310791016 0.9370185732841492 76.99634552001953 17.799232482910156 C 76.52243041992188 -37.45625686645508 91.00629425048828 4.970818996429443 80.46866607666016 11.636907577514648" stroke-width="2.0" fill="none" stroke="rgb(0, 0, 0)" stroke-opacity="1" stroke-linecap="round" stroke-linejoin="round"/>
    <path d="M 91.57159423828125 109.96875762939453 C 91.42350769042969 103.26770782470703 72.68144989013672 122.2891845703125 68.65924835205078 107.19491577148438 C 81.94523620605469 119.19538116455078 86.11298370361328 117.81698608398438 99.64105224609375 102.20397186279297 C 102.43109893798828 115.61349487304688 83.27392578125 88.93876647949219 109.0404052734375 98.79495239257812" stroke-width="2.0" fill="none" stroke="rgb(0, 0, 0)" stroke-opacity="1" stroke-linecap="round" stroke-linejoin="round"/>
    <path d="M 127.84412384033203 58.980506896972656 C 164.22193908691406 19.588821411132812 125.88788604736328 49.80282211303711 143.1023406982422 45.14773941040039 C 151.14625549316406 24.351333618164062 135.46728515625 39.96378707885742 141.56625366210938 47.93089294433594" stroke-width="2.0" fill="none" stroke="rgb(0, 0, 0)" stroke-opacity="1" stroke-linecap="round" stroke-linejoin="round"/>
    <path d="M 40.97709655761719 203.56455993652344 C 40.34523391723633 207.56002807617188 73.74017333984375 210.76708984375 99.25386810302734 217.9137725830078 C 60.011837005615234 219.66481018066406 66.66265106201172 203.34510803222656 65.82731628417969 223.31283569335938 C 108.75850677490234 216.30194091796875 111.8861312866211 217.69497680664062 88.80819702148438 220.24514770507812" stroke-width="2.0" fill="none" stroke="rgb(0, 0, 0)" stroke-opacity="1" stroke-linecap="round" stroke-linejoin="round"/>
    <path d="M 209.76023864746094 226.2881317138672 C 207.7622833251953 208.82766723632812 217.01913452148438 231.65875244140625 178.59979248046875 228.3448944091797" stroke-width="2.0" fill="none" stroke="rgb(0, 0, 0)" stroke-opacity="1" stroke-linecap="round" stroke-linejoin="round"/>
    <path d="M 202.33580017089844 91.8017349243164 C 246.44554138183594 102.64723205566406 232.13470458984375 92.57842254638672 222.3119659423828 128.01576232910156" stroke-width="2.0" fill="none" stroke="rgb(0, 0, 0)" stroke-opacity="1" stroke-linecap="round" stroke-linejoin="round"/>
    <path d="M 128.1575927734375 135.9280548095703 C 120.08826446533203 143.9716796875 119.19261932373047 133.55487060546875 127.69402313232422 145.29977416992188 C 131.9727783203125 142.00927734375 148.5473175048828 122.77079772949219 123.71818542480469 137.56265258789062" stroke-width="2.0" fill="none" stroke="rgb(0, 0, 0)" stroke-opacity="1" stroke-linecap="round" stroke-linejoin="round"/>
    <path d="M 53.56412124633789 209.36708068847656 C 77.56734466552734 200.02255249023438 85.20765686035156 222.59469604492188 92.15909576416016 219.47662353515625 C 96.68174743652344 241.9691162109375 98.52455139160156 224.12448120117188 102.00055694580078 181.37010192871094" stroke-width="2.0" fill="none" stroke="rgb(0, 0, 0)" stroke-opacity="1" stroke-linecap="round" stroke-linejoin="round"/>
    <path d="M 30.948017120361328 54.36742401123047 C 56.05091094970703 64.4843521118164 48.230533599853516 64.29815673828125 37.284263610839844 77.5785140991211 C 21.923845291137695 60.000160217285156 36.9457893371582 46.072505950927734 33.387325286865234 50.157867431640625 C 40.84504699707031 18.024166107177734 35.56957244873047 44.706417083740234 22.52621841430664 86.90367889404297" stroke-width="2.0" fill="none" stroke="rgb(0, 0, 0)" stroke-opacity="1" stroke-linecap="round" stroke-linejoin="round"/>
    <path d="M 180.9774932861328 2.9426300525665283 C 185.37562561035156 26.495336532592773 160.4002685546875 16.240234375 213.8310546875 25.901269912719727 C 195.9603271484375 17.060888290405273 220.82310485839844 27.844867706298828 215.0767059326172 18.070966720581055" stroke-width="2.0" fill="none" stroke="rgb(0, 0, 0)" stroke-opacity="1" stroke-linecap="round" stroke-linejoin="round"/>
    <path d="M 24.706741333007812 133.8611297607422 C -26.49587631225586 122.640380859375 -15.483540534973145 145.90505981445312 -1.8434741497039795 143.19090270996094" stroke-width="2.0" fill="none" stroke="rgb(0, 0, 0)" stroke-opacity="1" stroke-linecap="round" stroke-linejoin="round"/>
    <path d="M 184.52760314941406 187.41468811035156 C 238.34095764160156 162.06866455078125 203.57749938964844 185.60748291015625 185.31822204589844 190.67051696777344 C 187.03903198242188 186.1780548095703 175.5734100341797 190.41717529296875 201.22225952148438 177.71893310546875 C 218.317626953125 166.12106323242188 221.52688598632812 163.79635620117188 200.10353088378906 182.91543579101562" stroke-width="2.0" fill="none" stroke="rgb(0, 0, 0)" stroke-opacity="1" stroke-linecap="round" stroke-linejoin="round"/>
    <path d="M 67.66986846923828 141.5684051513672 C 81.51483917236328 178.20947265625 68.61714172363281 156.99012756347656 64.36235046386719 139.67657470703125 C 73.20326232910156 127.04671478271484 71.81551361083984 174.17327880859375 92.83663177490234 164.8485565185547" stroke-width="2.0" fill="none" stroke="rgb(0, 0, 0)" stroke-opacity="1" stroke-linecap="round" stroke-linejoin="round"/>
    <path d="M 122.12454223632812 175.7510986328125 C 125.68047332763672 186.922119140625 123.52041625976562 193.30307006835938 133.29273986816406 176.71395874023438" stroke-width="2.0" fill="none" stroke="rgb(0, 0, 0)" stroke-opacity="1" stroke-linecap="round" stroke-linejoin="round"/>
    <path d="M 155.8502197265625 100.33592987060547 C 138.37838745117188 115.72856140136719 135.6310272216797 107.11675262451172 152.6116485595703 96.8819351196289" stroke-width="2.0" fill="none" stroke="rgb(0, 0, 0)" stroke-opacity="1" stroke-linecap="round" stroke-linejoin="round"/>
    <path d="M 128.636962890625 195.90074157714844 C 119.75225830078125 193.29122924804688 128.94073486328125 244.14984130859375 129.1770782470703 178.8870849609375 C 107.4612045288086 137.49754333496094 132.50743103027344 169.6417999267578 125.24571990966797 180.20191955566406 C 127.91020965576172 169.0345916748047 121.72523498535156 179.9174346923828 121.11363220214844 210.84864807128906" stroke-width="2.0" fill="none" stroke="rgb(0, 0, 0)" stroke-opacity="1" stroke-linecap="round" stroke-linejoin="round"/>
    <path d="M 175.52137756347656 127.57662200927734 C 153.10565185546875 113.63935852050781 128.71116638183594 115.41255187988281 175.3096923828125 128.57467651367188 C 154.41578674316406 118.0045394897461 145.79043579101562 118.70912170410156 143.78201293945312 109.49085235595703 C 132.03050231933594 93.51528930664062 125.02605438232422 98.76158905029297 113.19673919677734 108.653076171875" stroke-width="2.0" fill="none" stroke="rgb(0, 0, 0)" stroke-opacity="1" stroke-linecap="round" stroke-linejoin="round"/>
    <path d="M 136.43356323242188 148.7685546875 C 122.41383361816406 124.58074188232422 119.29000091552734 116.61434173583984 127.07623291015625 150.95851135253906" stroke-width="2.0" fill="none" stroke="rgb(0, 0, 0)" stroke-opacity="1" stroke-linecap="round" stroke-linejoin="round"/>
    <path d="M 120.46002960205078 79.70292663574219 C 133.0001220703125 97.70841979980469 112.8769760131836 67.4444808959961 121.18608093261719 105.87525939941406 C 127.20980834960938 109.69621276855469 128.97396850585938 89.22138977050781 130.0893096923828 79.27560424804688 C 97.3557357788086 96.1810531616211 109.85184478759766 90.81913757324219 107.24024963378906 63.96554946899414" stroke-width="2.0" fill="none" stroke="rgb(0, 0, 0)" stroke-opacity="1" stroke-linecap="round" stroke-linejoin="round"/>
    <path d="M 76.83924102783203 215.0830535888672 C 85.72029876708984 226.04727172851562 84.89848327636719 257.80517578125 81.48629760742188 241.379638671875 C 92.06829833984375 237.97903442382812 98.02423095703125 231.4725341796875 91.69928741455078 226.50546264648438 C 56.973907470703125 204.8174285888672 82.31307220458984 177.2271728515625 71.08875274658203 222.54098510742188" stroke-width="2.0" fill="none" stroke="rgb(0, 0, 0)" stroke-opacity="1" stroke-linecap="round" stroke-linejoin="round"/>
    <path d="M 50.58659362792969 70.87924194335938 C 44.166072845458984 59.841094970703125 24.15391731262207 52.117427825927734 32.48259735107422 64.92215728759766 C 39.2119140625 44.50525665283203 37.35070037841797 76.71617889404297 29.684593200683594 62.907859802246094" stroke-width="2.0" fill="none" stroke="rgb(0, 0, 0)" stroke-opacity="1" stroke-linecap="round" stroke-linejoin="round"/>
    <path d="M 2.5420143604278564 -3.6858713626861572 C -6.064817428588867 -11.20506477355957 -4.783727169036865 51.983245849609375 7.770083427429199 23.722461700439453 C -34.67011260986328 29.126710891723633 -38.36024475097656 46.374847412109375 -43.738407135009766 61.107032775878906" stroke-width="2.0" fill="none" stroke="rgb(0, 0, 0)" stroke-opacity="1" stroke-linecap="round" stroke-linejoin="round"/>
    <path d="M 101.91098022460938 217.77099609375 C 69.06769561767578 217.74525451660156 66.41204071044922 206.40829467773438 101.52192687988281 218.9265899658203" stroke-width="2.0" fill="none" stroke="rgb(0, 0, 0)" stroke-opacity="1" stroke-linecap="round" stroke-linejoin="round"/>
    <path d="M 77.44261169433594 165.80665588378906 C 53.0572509765625 181.36814880371094 67.0744857788086 177.66712951660156 48.84850311279297 151.13580322265625 C 78.0906982421875 143.11859130859375 77.20015716552734 154.87966918945312 30.215700149536133 163.09356689453125 C 35.85063934326172 161.30642700195312 38.79961013793945 172.6413116455078 37.143096923828125 127.30585479736328" stroke-width="2.0" fill="none" stroke="rgb(0, 0, 0)" stroke-opacity="1" stroke-linecap="round" stroke-linejoin="round"/>
    <path d="M -2.1252636909484863 93.86157989501953 C 24.264358520507812 68.89767456054688 -0.47146567702293396 76.04811096191406 2.9581081867218018 94.90306091308594 C -25.63222885131836 94.67237854003906 -14.677896499633789 91.73391723632812 -8.780163764953613 92.8891830444336" stroke-width="2.0" fill="none" stroke="rgb(0, 0, 0)" stroke-opacity="1" stroke-linecap="round" stroke-linejoin="round"/>
    <path d="M 96.07391357421875 111.69049072265625 C 85.96438598632812 72.13639831542969 103.02635955810547 81.5386734008789 67.059326171875 90.22002410888672 C 103.70848846435547 79.41351318359375 99.78992462158203 84.06885528564453 57.435569763183594 95.05970764160156" stroke-width="2.0" fill="none" stroke="rgb(0, 0, 0)" stroke-opacity="1" stroke-linecap="round" stroke-linejoin="round"/>
    <path d="M 8.923361778259277 19.740915298461914 C 8.189926147460938 19.673227310180664 -13.493548393249512 23.027360916137695 -24.167797088623047 22.626575469970703 C -14.683313369750977 15.358475685119629 -23.807767868041992 4.38834285736084 -23.346887588500977 6.624421119689941 C -22.06498146057129 -3.5240743160247803 -20.81123924255371 -3.2276415824890137 -30.015256881713867 -7.405059337615967" stroke-width="2.0" fill="none" stroke="rgb(0, 0, 0)" stroke-opacity="1" stroke-linecap="round" stroke-linejoin="round"/>
    <path d="M 59.545291900634766 85.67073822021484 C 106.03662109375 84.20707702636719 60.09867858886719 86.21841430664062 31.03095054626465 69.00933074951172" stroke-width="2.0" fill="none" stroke="rgb(0, 0, 0)" stroke-opacity="1" stroke-linecap="round" stroke-linejoin="round"/>
    <path d="M 64.88095092773438 79.5975570678711 C 80.36481475830078 89.83822631835938 65.51060485839844 84.83848571777344 57.953983306884766 83.2396011352539 C 91.62727355957031 80.72427368164062 76.7678451538086 94.78374481201172 39.36601257324219 81.34928894042969 C 38.8870735168457 102.1485366821289 31.49017333984375 86.51228332519531 10.613473892211914 86.81768798828125" stroke-width="2.0" fill="none" stroke="rgb(0, 0, 0)" stroke-opacity="1" stroke-linecap="round" stroke-linejoin="round"/>
    <path d="M 170.05821228027344 113.24392700195312 C 194.25823974609375 95.51681518554688 189.41893005371094 88.50005340576172 183.2831268310547 99.62057495117188 C 184.83375549316406 83.0238037109375 184.22006225585938 109.28475189208984 173.3904266357422 105.28713989257812 C 194.58619689941406 81.63087463378906 159.3214111328125 135.6216583251953 191.17628479003906 96.873779296875" stroke-width="2.0" fill="none" stroke="rgb(0, 0, 0)" stroke-opacity="1" stroke-linecap="round" stroke-linejoin="round"/>
    <path d="M 112.43641662597656 95.89005279541016 C 78.43780517578125 111.67257690429688 70.36912536621094 113.26118469238281 107.6364517211914 110.3499755859375" stroke-width="2.0" fill="none" stroke="rgb(0, 0, 0)" stroke-opacity="1" stroke-linecap="round" stroke-linejoin="round"/>
    <path d="M 150.3026123046875 124.4893569946289 C 174.6704864501953 138.92662048339844 167.10763549804688 121.99900817871094 152.29273986816406 141.10137939453125 C 157.9542694091797 126.2839126586914 150.65184020996094 141.77978515625 179.44606018066406 143.10833740234375 C 165.87413024902344 162.60987854003906 173.5867156982422 152.1199188232422 176.82431030273438 120.9552993774414" stroke-width="2.0" fill="none" stroke="rgb(0, 0, 0)" stroke-opacity="1" stroke-linecap="round" stroke-linejoin="round"/>
    <path d="M 21.930082321166992 140.2762908935547 C 40.11307144165039 124.99786376953125 27.632282257080078 145.49905395507812 -14.621901512145996 144.029541015625 C 39.51553726196289 134.86134338378906 47.64286422729492 132.26841735839844 -2.6534674167633057 136.96694946289062" stroke-width="2.0" fill="none" stroke="rgb(0, 0, 0)" stroke-opacity="1" stroke-linecap="round" stroke-linejoin="round"/>
    <path d="M 74.70482635498047 62.07368469238281 C 74.69002532958984 16.145994186401367 68.29795837402344 38.186073303222656 95.23387145996094 54.682376861572266 C 104.50047302246094 33.35096740722656 116.42945098876953 53.36446762084961 112.6330795288086 40.10512161254883" stroke-width="2.0" fill="none" stroke="rgb(0, 0, 0)" stroke-opacity="1" stroke-linecap="round" stroke-linejoin="round"/>
    <path d="M 44.52686309814453 103.24220275878906 C 81.8927230834961 105.44457244873047 99.04969787597656 99.41279602050781 77.09244537353516 110.27127838134766 C 73.81941986083984 121.01131439208984 93.496337890625 110.6610107421875 86.21080017089844 114.17515563964844 C 58.10947799682617 119.8827896118164 76.80123138427734 103.6946029663086 90.32273864746094 101.739990234375" stroke-width="2.0" fill="none" stroke="rgb(0, 0, 0)" stroke-opacity="1" stroke-linecap="round" stroke-linejoin="round"/>
    <path d="M 106.28660583496094 104.75889587402344 C 100.38152313232422 36.23778533935547 113.05589294433594 48.30020523071289 109.89605712890625 88.7488784790039 C 103.65965270996094 75.44193267822266 120.89148712158203 73.3736801147461 105.8741455078125 100.07585906982422 C 117.70535278320312 110.88172149658203 125.62023162841797 135.74441528320312 119.8654556274414 130.736572265625" stroke-width="2.0" fill="none" stroke="rgb(0, 0, 0)" stroke-opacity="1" stroke-linecap="round" stroke-linejoin="round"/>
    <path d="M 177.49041748046875 -2.514730453491211 C 180.43504333496094 -22.92133331298828 177.62490844726562 -7.249355316162109 175.6757354736328 33.22222900390625 C 122.67803192138672 25.165058135986328 141.1071014404297 45.29220962524414 129.21426391601562 -3.360812187194824 C 137.95652770996094 16.620071411132812 143.9232635498047 65.62525177001953 143.81033325195312 -3.006849765777588" stroke-width="2.0" fill="none" stroke="rgb(0, 0, 0)" stroke-opacity="1" stroke-linecap="round" stroke-linejoin="round"/>
    <path d="M 8.14488697052002 20.117189407348633 C 7.429372310638428 34.020389556884766 21.449676513671875 34.305450439453125 -10.914910316467285 28.081804275512695" stroke-width="2.0" fill="none" stroke="rgb(0, 0, 0)" stroke-opacity="1" stroke-linecap="round" stroke-linejoin="round"/>
    <path d="M 83.47715759277344 188.92446899414062 C 55.35829162597656 179.28358459472656 68.23609161376953 183.57989501953125 60.98918914794922 175.47637939453125" stroke-width="2.0" fill="none" stroke="rgb(0, 0, 0)" stroke-opacity="1" stroke-linecap="round" stroke-linejoin="round"/>
    <path d="M 81.70064544677734 11.021954536437988 C 116.78729248046875 11.04482650756836 89.1424331665039 8.285923957824707 78.5700912475586 16.725236892700195 C 95.68321228027344 18.529935836791992 91.65533447265625 -2.025489568710327 88.88739776611328 19.535083770751953 C 48.7154541015625 13.473806381225586 93.9675521850586 9.972439765930176 87.65924835205078 16.749279022216797" stroke-width="2.0" fill="none" stroke="rgb(0, 0, 0)" stroke-opacity="1" stroke-linecap="round" stroke-linejoin="round"/>
    <path d="M 184.73330688476562 37.0384407043457 C 235.3131866455078 34.491180419921875 210.2159881591797 43.33329772949219 181.08709716796875 42.35114288330078 C 191.5312042236328 53.08246612548828 183.96449279785156 40.15024185180664 215.3963623046875 27.747371673583984 C 178.42276000976562 37.233154296875 191.78689575195312 32.503944396972656 154.61810302734375 27.59302520751953" stroke-width="2.0" fill="none" stroke="rgb(0, 0, 0)" stroke-opacity="1" stroke-linecap="round" stroke-linejoin="round"/>
    <path d="M 203.84962463378906 162.0396270751953 C 205.2243194580078 132.3839874267578 199.356201171875 152.51426696777344 229.14016723632812 152.28524780273438 C 234.69033813476562 158.20574951171875 194.72372436523438 149.72207641601562 208.4731903076172 151.55169677734375 C 203.4544219970703 140.79759216308594 205.65557861328125 145.3846893310547 205.29234313964844 149.23748779296875" stroke-width="2.0" fill="none" stroke="rgb(0, 0, 0)" stroke-opacity="1" stroke-linecap="round" stroke-linejoin="round"/>
    <path d="M 101.77478790283203 146.23208618164062 C 125.08605194091797 130.1585235595703 127.23287963867188 120.64900207519531 114.21604919433594 138.07559204101562" stroke-width="2.0" fill="none" stroke="rgb(0, 0, 0)" stroke-opacity="1" stroke-linecap="round" stroke-linejoin="round"/>
    <path d="M 70.2781982421875 35.625972747802734 C 55.65288162231445 27.96015739440918 84.68193054199219 39.454345703125 110.85298919677734 45.02175521850586" stroke-width="2.0" fill="none" stroke="rgb(0, 0, 0)" stroke-opacity="1" stroke-linecap="round" stroke-linejoin="round"/>
    <path d="M 195.07786560058594 200.79759216308594 C 197.898681640625 226.06300354003906 205.36595153808594 209.62620544433594 174.5986328125 221.5047607421875 C 185.4385986328125 245.50889587402344 191.50173950195312 220.0334930419922 172.3128204345703 228.09527587890625" stroke-width="2.0" fill="none" stroke="rgb(0, 0, 0)" stroke-opacity="1" stroke-linecap="round" stroke-linejoin="round"/>
    <path d="M 228.9234619140625 35.51653289794922 C 205.2098846435547 30.501882553100586 233.87399291992188 51.514320373535156 206.83648681640625 48.30242156982422 C 206.00506591796875 29.88760757446289 212.5817108154297 32.14128875732422 245.1905059814453 46.24225997924805 C 233.01776123046875 58.98923110961914 206.32272338867188 48.18821334838867 182.5906524658203 30.53090476989746" stroke-width="2.0" fill="none" stroke="rgb(0, 0, 0)" stroke-opacity="1" stroke-linecap="round" stroke-linejoin="round"/>
    <path d="M 52.85390853881836 41.63138198852539 C 74.58470153808594 51.22492599487305 107.40991973876953 70.8954086303711 110.19342803955078 61.87301254272461 C 56.60806655883789 52.041744232177734 59.51107406616211 36.809749603271484 101.48765563964844 39.56157302856445" stroke-width="2.0" fill="none" stroke="rgb(0, 0, 0)" stroke-opacity="1" stroke-linecap="round" stroke-linejoin="round"/>
    <path d="M 142.43524169921875 170.58934020996094 C 124.4429702758789 185.2384490966797 137.25315856933594 178.498046875 119.23643493652344 152.73902893066406 C 124.2210922241211 207.30921936035156 114.85987091064453 185.11477661132812 136.19146728515625 168.074462890625" stroke-width="2.0" fill="none" stroke="rgb(0, 0, 0)" stroke-opacity="1" stroke-linecap="round" stroke-linejoin="round"/>
    <path d="M 77.87617492675781 168.7264404296875 C 99.73344421386719 182.25186157226562 71.21281433105469 140.42723083496094 92.25867462158203 164.37779235839844 C 81.35205078125 176.5541229248047 77.71934509277344 176.0655975341797 64.71772003173828 180.087646484375" stroke-width="2.0" fill="none" stroke="rgb(0, 0, 0)" stroke-opacity="1" stroke-linecap="round" stroke-linejoin="round"/>
    <path d="M 215.10000610351562 170.35818481445312 C 212.51388549804688 198.39425659179688 228.13861083984375 202.01634216308594 230.72537231445312 232.67941284179688 C 243.67015075683594 183.04039001464844 234.93505859375 189.8440704345703 241.05889892578125 179.33895874023438" stroke-width="2.0" fill="none" stroke="rgb(0, 0, 0)" stroke-opacity="1" stroke-linecap="round" stroke-linejoin="round"/>
    <path d="M 35.77695083618164 40.77763748168945 C 29.619455337524414 66.81061553955078 34.99138259887695 70.95597839355469 47.20121383666992 79.49496459960938" stroke-width="2.0" fill="none" stroke="rgb(0, 0, 0)" stroke-opacity="1" stroke-linecap="round" stroke-linejoin="round"/>
    <path d="M 76.32423400878906 214.10597229003906 C 76.42478942871094 223.76658630371094 101.72612762451172 225.2866973876953 84.11872100830078 213.46780395507812" stroke-width="2.0" fill="none" stroke="rgb(0, 0, 0)" stroke-opacity="1" stroke-linecap="round" stroke-linejoin="round"/>
    <path d="M 46.662506103515625 93.18667602539062 C 39.38087844848633 86.57170867919922 65.51171875 96.70923614501953 51.98853302001953 62.223331451416016" stroke-width="2.0" fill="none" stroke="rgb(0, 0, 0)" stroke-opacity="1" stroke-linecap="round" stroke-linejoin="round"/>
    <path d="M 36.35400390625 116.20584106445312 C 38.02080535888672 90.28337097167969 63.6981201171875 95.40868377685547 16.61054229736328 95.55958557128906 C 58.40597915649414 93.41260528564453 36.30812072753906 101.376220703125 57.24617004394531 91.24729919433594" stroke-width="2.0" fill="none" stroke="rgb(0, 0, 0)" stroke-opacity="1" stroke-linecap="round" stroke-linejoin="round"/>
    <path d="M 109.31423950195312 45.5821647644043 C 109.42874908447266 54.48862075805664 127.0246810913086 42.540687561035156 113.02027893066406 49.19137954711914 C 111.9423828125 44.49297332763672 94.59928131103516 51.539180755615234 107.62049102783203 36.16005325317383 C 128.40054321289062 38.30295181274414 134.1746826171875 57.71324920654297 98.86116790771484 35.54827880859375" stroke-width="2.0" fill="none" stroke="rgb(0, 0, 0)" stroke-opacity="1" stroke-linecap="round" stroke-linejoin="round"/>
    <path d="M 221.28689575195312 226.4936981201172 C 225.09458923339844 218.84249877929688 199.5974884033203 226.81117248535156 215.88819885253906 220.27810668945312 C 221.35923767089844 241.10150146484375 220.86192321777344 235.7200469970703 210.87245178222656 239.83987426757812" stroke-width="2.0" fill="none" stroke="rgb(0, 0, 0)" stroke-opacity="1" stroke-linecap="round" stroke-linejoin="round"/>
    <path d="M 206.79949951171875 150.6255645751953 C 248.72909545898438 142.8296661376953 249.28562927246094 149.17776489257812 242.64984130859375 150.67630004882812" stroke-width="2.0" fill="none" stroke="rgb(0, 0, 0)" stroke-opacity="1" stroke-linecap="round" stroke-linejoin="round"/>
    <path d="M 130.5336151123047 116.13339233398438 C 121.8343276977539 131.95608520507812 119.8758773803711 138.80224609375 134.5376434326172 110.83722686767578 C 110.54480743408203 125.14888763427734 129.4189910888672 153.0851287841797 142.31253051757812 140.44293212890625 C 105.93040466308594 118.30084991455078 130.5550079345703 132.96473693847656 111.76106262207031 138.4121856689453" stroke-width="2.0" fill="none" stroke="rgb(0, 0, 0)" stroke-opacity="1" stroke-linecap="round" stroke-linejoin="round"/>
    <path d="M 171.24510192871094 40.157657623291016 C 180.16409301757812 22.731521606445312 202.7257537841797 56.058128356933594 199.2381591796875 20.44599151611328 C 193.5771026611328 48.032005310058594 202.3113555908203 27.969837188720703 168.5482635498047 36.330718994140625" stroke-width="2.0" fill="none" stroke="rgb(0, 0, 0)" stroke-opacity="1" stroke-linecap="round" stroke-linejoin="round"/>
    <path d="M 84.58039855957031 232.3571319580078 C 85.48666381835938 229.79808044433594 100.90499877929688 233.48028564453125 139.81678771972656 219.46641540527344 C 110.73680877685547 240.0527801513672 86.70559692382812 228.90518188476562 94.73257446289062 228.8407745361328 C 98.7022476196289 239.5161895751953 101.42224884033203 247.44647216796875 96.9024887084961 256.2803955078125" stroke-width="2.0" fill="none" stroke="rgb(0, 0, 0)" stroke-opacity="1" stroke-linecap="round" stroke-linejoin="round"/>
    <path d="M 41.7591552734375 95.91532897949219 C 9.31650447845459 92.01384735107422 57.995487213134766 100.2451400756836 22.13155174255371 86.16793823242188 C 14.6072359085083 83.201171875 -1.8174389600753784 114.19227600097656 23.65826416015625 86.7741928100586" stroke-width="2.0" fill="none" stroke="rgb(0, 0, 0)" stroke-opacity="1" stroke-linecap="round" stroke-linejoin="round"/>
    <path d="M 32.05438232421875 73.73047637939453 C 20.780105590820312 73.27059936523438 36.73472213745117 46.39302062988281 32.69758224487305 55.777488708496094" stroke-width="2.0" fill="none" stroke="rgb(0, 0, 0)" stroke-opacity="1" stroke-linecap="round" stroke-linejoin="round"/>
    <path d="M 106.62122344970703 208.5458221435547 C 114.16022491455078 216.1900177001953 152.17367553710938 204.85926818847656 143.99147033691406 208.98411560058594 C 81.30001068115234 199.84825134277344 97.7236099243164 213.19247436523438 115.73474884033203 208.29483032226562" stroke-width="2.0" fill="none" stroke="rgb(0, 0, 0)" stroke-opacity="1" stroke-linecap="round" stroke-linejoin="round"/>
    <path d="M 14.815889358520508 96.07938385009766 C -23.362993240356445 99.18506622314453 -30.919078826904297 91.20648193359375 -45.74365234375 96.72547149658203 C -12.262439727783203 83.73072814941406 -10.291984558105469 81.11614227294922 -18.22089385986328 92.2762451171875" stroke-width="2.0" fill="none" stroke="rgb(0, 0, 0)" stroke-opacity="1" stroke-linecap="round" stroke-linejoin="round"/>
    <path d="M 125.8183364868164 157.75210571289062 C 148.04501342773438 141.72850036621094 146.5018768310547 125.12145233154297 148.64373779296875 124.31674194335938 C 173.51123046875 142.57518005371094 166.68772888183594 157.35208129882812 204.19863891601562 161.7052764892578 C 179.64356994628906 143.08462524414062 180.5599822998047 157.71824645996094 192.4026336669922 156.59625244140625" stroke-width="2.0" fill="none" stroke="rgb(0, 0, 0)" stroke-opacity="1" stroke-linecap="round" stroke-linejoin="round"/>
    <path d="M 18.62256622314453 5.0436553955078125 C 18.93478012084961 51.28260040283203 12.158648490905762 27.12701988220215 38.119937896728516 31.65130615234375" stroke-width="2.0" fill="none" stroke="rgb(0, 0, 0)" stroke-opacity="1" stroke-linecap="round" stroke-linejoin="round"/>
    <path d="M 111.52320098876953 137.64096069335938 C 136.12640380859375 117.63410186767578 142.92489624023438 134.08853149414062 106.12735748291016 149.2137908935547 C 101.68496704101562 167.10011291503906 105.6823501586914 130.7532196044922 99.96238708496094 120.25463104248047 C 109.7158203125 153.90347290039062 105.29095458984375 135.124755859375 109.14543914794922 150.22879028320312" stroke-width="2.0" fill="none" stroke="rgb(0, 0, 0)" stroke-opacity="1" stroke-linecap="round" stroke-linejoin="round"/>
    <path d="M 233.4766387939453 183.2829132080078 C 222.00180053710938 179.70790100097656 225.4306182861328 193.4255828857422 238.86077880859375 186.39488220214844 C 233.23681640625 180.50796508789062 228.00318908691406 191.3775177001953 233.0519561767578 193.52145385742188" stroke-width="2.0" fill="none" stroke="rgb(0, 0, 0)" stroke-opacity="1" stroke-linecap="round" stroke-linejoin="round"/>
    <path d="M 80.42864227294922 45.12839126586914 C 56.13963317871094 32.7603874206543 79.34308624267578 55.39798355102539 89.82141876220703 46.84852600097656 C 79.23223114013672 30.10752296447754 56.70114517211914 49.85331726074219 78.38709259033203 51.205875396728516 C 86.68232727050781 26.785720825195312 76.80165100097656 65.1341552734375 96.61321258544922 30.490524291992188" stroke-width="2.0" fill="none" stroke="rgb(0, 0, 0)" stroke-opacity="1" stroke-linecap="round" stroke-linejoin="round"/>
    <path d="M 49.44596481323242 32.32649612426758 C 22.877119064331055 34.88071060180664 2.2922720909118652 34.04936599731445 9.328387260437012 25.499643325805664 C 8.910627365112305 -15.93161678314209 4.994317054748535 -28.55374526977539 15.747257232666016 -7.39813232421875 C 44.46958923339844 -0.046883001923561096 42.249725341796875 -10.14531421661377 42.107574462890625 -13.835010528564453" stroke-width="2.0" fill="none" stroke="rgb(0, 0, 0)" stroke-opacity="1" stroke-linecap="round" stroke-linejoin="round"/>
    <path d="M 131.22511291503906 149.47012329101562 C 109.30525970458984 146.09829711914062 112.00131225585938 126.99640655517578 107.66810607910156 129.0418701171875 C 105.83007049560547 145.7977752685547 128.00575256347656 135.340576171875 125.238525390625 120.13214111328125 C 129.2195587158203 132.9014129638672 157.24038696289062 151.24209594726562 160.74339294433594 125.80705261230469" stroke-width="2.0" fill="none" stroke="rgb(0, 0, 0)" stroke-opacity="1" stroke-linecap="round" stroke-linejoin="round"/>
    <path d="M 234.3883056640625 116.73519897460938 C 223.8419189453125 105.12640380859375 224.80728149414062 105.5349349975586 227.8160400390625 113.61196899414062" stroke-width="2.0" fill="none" stroke="rgb(0, 0, 0)" stroke-opacity="1" stroke-linecap="round" stroke-linejoin="round"/>
    <path d="M 135.15785217285156 112.15715026855469 C 132.37355041503906 139.79275512695312 119.9743423461914 118.92889404296875 110.8135986328125 129.64540100097656 C 110.29322052001953 117.5794448852539 98.99082946777344 100.6937484741211 102.52191925048828 97.9934310913086" stroke-width="2.0" fill="none" stroke="rgb(0, 0, 0)" stroke-opacity="1" stroke-linecap="round" stroke-linejoin="round"/>
    <path d="M 111.69513702392578 127.01587677001953 C 118.95079040527344 135.6717071533203 112.57329559326172 125.69448852539062 122.92745208740234 139.44395446777344 C 139.03677368164062 119.0884017944336 125.14886474609375 131.4904327392578 135.50254821777344 139.85476684570312 C 155.5061798095703 135.9302520751953 155.60006713867188 122.08560943603516 163.17877197265625 125.65757751464844" stroke-width="2.0" fill="none" stroke="rgb(0, 0, 0)" stroke-opacity="1" stroke-linecap="round" stroke-linejoin="round"/>
    <path d="M -11.679424285888672 197.42164611816406 C 16.597198486328125 187.17002868652344 23.63821792602539 183.9059600830078 -26.707517623901367 190.08114624023438 C 13.99339771270752 194.1327667236328 20.554607391357422 184.2171630859375 -15.745208740234375 192.0933380126953" stroke-width="2.0" fill="none" stroke="rgb(0, 0, 0)" stroke-opacity="1" stroke-linecap="round" stroke-linejoin="round"/>
    <path d="M 167.75144958496094 197.1276092529297 C 147.4615020751953 202.6254119873047 151.5319366455078 213.24903869628906 148.77101135253906 190.8671417236328 C 146.1748046875 190.79437255859375 140.5188751220703 196.41822814941406 136.5631561279297 183.1314239501953 C 142.61074829101562 233.7259063720703 148.79644775390625 233.8979949951172 140.23855590820312 184.31150817871094" stroke-width="2.0" fill="none" stroke="rgb(0, 0, 0)" stroke-opacity="1" stroke-linecap="round" stroke-linejoin="round"/>
    <path d="M 228.89305114746094 54.31581115722656 C 182.91571044921875 43.411781311035156 222.4529266357422 41.1004638671875 227.67349243164062 53.71824264526367 C 240.13392639160156 25.72431755065918 188.51419067382812 61.537349700927734 212.61476135253906 27.23703956604004 C 210.1063690185547 55.62269973754883 229.29583740234375 38.40833282470703 189.2557373046875 39.12306594848633" stroke-width="2.0" fill="none" stroke="rgb(0, 0, 0)" stroke-opacity="1" stroke-linecap="round" stroke-linejoin="round"/>
    <path d="M 3.089444637298584 136.0923614501953 C -7.903355598449707 135.61550903320312 -50.90296936035156 129.36007690429688 -59.2160530090332 132.0204315185547 C -22.600404739379883 128.3962860107422 -29.449108123779297 129.74273681640625 -23.695819854736328 132.8321990966797" stroke-width="2.0" fill="none" stroke="rgb(0, 0, 0)" stroke-opacity="1" stroke-linecap="round" stroke-linejoin="round"/>
    <path d="M 164.13282775878906 65.05402374267578 C 121.38626098632812 68.80770874023438 117.58428955078125 53.26382827758789 143.61912536621094 64.2299575805664" stroke-width="2.0" fill="none" stroke="rgb(0, 0, 0)" stroke-opacity="1" stroke-linecap="round" stroke-linejoin="round"/>
    <path d="M 17.891704559326172 100.57294464111328 C 20.563722610473633 103.77972412109375 -8.938329696655273 100.423583984375 16.29270362854004 82.88155364990234 C 0.5501880049705505 105.20906829833984 -15.624624252319336 114.61723327636719 8.935059547424316 90.0390853881836" stroke-width="2.0" fill="none" stroke="rgb(0, 0, 0)" stroke-opacity="1" stroke-linecap="round" stroke-linejoin="round"/>
    <path d="M 149.43740844726562 120.19723510742188 C 147.36944580078125 146.29469299316406 145.74160766601562 124.24983215332031 148.94764709472656 134.60804748535156 C 157.41331481933594 111.4303970336914 157.54864501953125 114.0235366821289 141.091064453125 143.9435272216797" stroke-width="2.0" fill="none" stroke="rgb(0, 0, 0)" stroke-opacity="1" stroke-linecap="round" stroke-linejoin="round"/>
    <path d="M 40.78009796142578 217.08221435546875 C 27.46034812927246 149.29161071777344 36.387916564941406 179.50914001464844 38.40983581542969 176.79129028320312" stroke-width="2.0" fill="none" stroke="rgb(0, 0, 0)" stroke-opacity="1" stroke-linecap="round" stroke-linejoin="round"/>
    <path d="M 116.38346862792969 13.313311576843262 C 113.6807861328125 60.20193099975586 117.63459014892578 50.823551177978516 123.74041748046875 29.92733383178711 C 165.3861541748047 28.008224487304688 184.98648071289062 47.79844665527344 156.28097534179688 34.866722106933594 C 155.96185302734375 27.492313385009766 165.497802734375 -6.656009674072266 146.79693603515625 47.86379623413086" stroke-width="2.0" fill="none" stroke="rgb(0, 0, 0)" stroke-opacity="1" stroke-linecap="round" stroke-linejoin="round"/>
    <path d="M 102.89655303955078 110.36536407470703 C 59.1657600402832 117.80953216552734 85.0743408203125 96.47714233398438 35.81069564819336 103.59588623046875 C 45.0910530090332 102.26896667480469 94.93920135498047 100.87742614746094 89.42160034179688 88.29078674316406" stroke-width="2.0" fill="none" stroke="rgb(0, 0, 0)" stroke-opacity="1" stroke-linecap="round" stroke-linejoin="round"/>
    <path d="M 8.182364463806152 153.2323760986328 C -21.17658805847168 153.59617614746094 -3.163018226623535 152.78427124023438 -8.472697257995605 155.4886474609375 C -1.8182151317596436 159.43264770507812 -28.4456729888916 161.48963928222656 -29.839725494384766 159.71261596679688" stroke-width="2.0" fill="none" stroke="rgb(0, 0, 0)" stroke-opacity="1" stroke-linecap="round" stroke-linejoin="round"/>
    <path d="M 143.62661743164062 193.89027404785156 C 154.88002014160156 239.48721313476562 142.7755889892578 227.47723388671875 167.2189483642578 222.25425720214844 C 178.6284637451172 230.32855224609375 187.54551696777344 232.70921325683594 181.1285858154297 219.34750366210938 C 157.78245544433594 177.63888549804688 145.3137664794922 182.81884765625 156.52359008789062 202.16775512695312" stroke-width="2.0" fill="none" stroke="rgb(0, 0, 0)" stroke-opacity="1" stroke-linecap="round" stroke-linejoin="round"/>
    <path d="M 71.40647888183594 136.21432495117188 C 86.34754943847656 169.55271911621094 50.86656951904297 164.62989807128906 76.8497085571289 158.72787475585938" stroke-width="2.0" fill="none" stroke="rgb(0, 0, 0)" stroke-opacity="1" stroke-linecap="round" stroke-linejoin="round"/>
    <path d="M 126.13483428955078 120.60436248779297 C 101.84735107421875 126.79364013671875 94.27594757080078 144.6072235107422 101.70989227294922 131.7509002685547" stroke-width="2.0" fill="none" stroke="rgb(0, 0, 0)" stroke-opacity="1" stroke-linecap="round" stroke-linejoin="round"/>
    <path d="M 207.7376251220703 152.3131103515625 C 248.4270782470703 147.2755126953125 245.6329803466797 146.184814453125 242.62599182128906 146.78749084472656 C 234.70985412597656 144.48374938964844 229.0232391357422 137.30593872070312 234.99166870117188 152.29002380371094 C 224.39822387695312 150.59347534179688 230.1489715576172 138.2943878173828 239.04026794433594 148.1980743408203" stroke-width="2.0" fill="none" stroke="rgb(0, 0, 0)" stroke-opacity="1" stroke-linecap="round" stroke-linejoin="round"/>
    <path d="M 218.75808715820312 176.9481201171875 C 215.35037231445312 178.61509704589844 252.60678100585938 176.67654418945312 253.58212280273438 178.63394165039062" stroke-width="2.0" fill="none" stroke="rgb(0, 0, 0)" stroke-opacity="1" stroke-linecap="round" stroke-linejoin="round"/>
    <path d="M 159.90142822265625 219.9676513671875 C 146.29978942871094 193.88259887695312 152.54798889160156 189.07118225097656 170.11277770996094 179.55860900878906 C 170.47763061523438 229.4200897216797 176.65841674804688 208.57180786132812 154.7920379638672 189.38648986816406" stroke-width="2.0" fill="none" stroke="rgb(0, 0, 0)" stroke-opacity="1" stroke-linecap="round" stroke-linejoin="round"/>
    <path d="M 102.15092468261719 107.54559326171875 C 91.49069213867188 98.28056335449219 110.48562622070312 127.74082946777344 110.47610473632812 86.88240814208984 C 108.20259094238281 114.3768310546875 119.63280487060547 114.07817077636719 112.04676055908203 95.831787109375" stroke-width="2.0" fill="none" stroke="rgb(0, 0, 0)" stroke-opacity="1" stroke-linecap="round" stroke-linejoin="round"/>
    <path d="M 83.81674194335938 113.17920684814453 C 97.94851684570312 112.05467224121094 123.73538208007812 107.18521118164062 133.205322265625 97.7713394165039" stroke-width="2.0" fill="none" stroke="rgb(0, 0, 0)" stroke-opacity="1" stroke-linecap="round" stroke-linejoin="round"/>
    <path d="M 88.21484375 188.02880859375 C 84.58767700195312 230.51588439941406 96.61673736572266 207.2191925048828 46.76897048950195 204.93133544921875 C 87.5547103881836 202.2317657470703 71.95001220703125 181.8711395263672 77.19264221191406 227.3365936279297 C 77.83921813964844 245.61993408203125 68.6136703491211 215.79248046875 59.824806213378906 202.03123474121094" stroke-width="2.0" fill="none" stroke="rgb(0, 0, 0)" stroke-opacity="1" stroke-linecap="round" stroke-linejoin="round"/>
    <path d="M 193.72433471679688 201.1748809814453 C 171.9715118408203 209.12066650390625 169.12644958496094 213.48928833007812 184.28187561035156 168.1595458984375 C 166.89735412597656 184.61093139648438 169.12351989746094 196.0623779296875 187.6425323486328 208.8424072265625 C 178.23004150390625 198.48367309570312 172.5896759033203 210.16940307617188 165.78175354003906 183.4053955078125" stroke-width="2.0" fill="none" stroke="rgb(0, 0, 0)" stroke-opacity="1" stroke-linecap="round" stroke-linejoin="round"/>
    <path d="M 180.7776641845703 179.38433837890625 C 141.45338439941406 197.06192016601562 141.6663055419922 195.5447235107422 162.86094665527344 196.47439575195312" stroke-width="2.0" fill="none" stroke="rgb(0, 0, 0)" stroke-opacity="1" stroke-linecap="round" stroke-linejoin="round"/>
    <path d="M 199.01864624023438 63.11552810668945 C 147.24156188964844 75.63545989990234 175.07293701171875 74.66167449951172 206.41873168945312 65.18195343017578" stroke-width="2.0" fill="none" stroke="rgb(0, 0, 0)" stroke-opacity="1" stroke-linecap="round" stroke-linejoin="round"/>
    <path d="M 101.1177749633789 204.00022888183594 C 119.88835906982422 196.49041748046875 98.80899810791016 234.0185089111328 104.6374282836914 180.9441680908203" stroke-width="2.0" fill="none" stroke="rgb(0, 0, 0)" stroke-opacity="1" stroke-linecap="round" stroke-linejoin="round"/>
    <path d="M 158.38027954101562 154.14208984375 C 155.4644012451172 176.5549774169922 170.1343231201172 170.46896362304688 119.06450653076172 176.31121826171875 C 133.5203857421875 194.95413208007812 122.92301940917969 169.59742736816406 119.65754699707031 187.2864990234375 C 126.9242935180664 175.36639404296875 117.75504302978516 146.5441131591797 119.22811126708984 184.7792510986328" stroke-width="2.0" fill="none" stroke="rgb(0, 0, 0)" stroke-opacity="1" stroke-linecap="round" stroke-linejoin="round"/>
    <path d="M 1.0060800313949585 145.2610626220703 C 13.16140079498291 80.76762390136719 10.810056686401367 111.99102783203125 5.423758029937744 142.00901794433594 C 25.94548988342285 137.3956298828125 7.605422496795654 141.84661865234375 26.444181442260742 135.74993896484375 C 23.931005477905273 192.70474243164062 22.125701904296875 185.05210876464844 41.47148132324219 174.62100219726562" stroke-width="2.0" fill="none" stroke="rgb(0, 0, 0)" stroke-opacity="1" stroke-linecap="round" stroke-linejoin="round"/>
    <path d="M 26.85429573059082 74.57544708251953 C 43.13491439819336 74.00386047363281 53.949073791503906 90.59626770019531 57.6366081237793 62.35675811767578 C 53.5125846862793 57.043914794921875 56.765167236328125 94.60680389404297 18.298057556152344 92.2371597290039 C 6.145811557769775 99.30144500732422 29.468280792236328 91.64431762695312 54.68446731567383 97.1612548828125" stroke-width="2.0" fill="none" stroke="rgb(0, 0, 0)" stroke-opacity="1" stroke-linecap="round" stroke-linejoin="round"/>
    <path d="M 97.21110534667969 154.8118438720703 C 92.6950454711914 169.83602905273438 109.90399169921875 147.4728546142578 121.4814453125 146.20208740234375 C 112.01964569091797 149.1051483154297 108.3241958618164 137.67454528808594 100.08011627197266 138.3836212158203 C 91.231689453125 99.84947967529297 95.57125854492188 123.01199340820312 102.37580108642578 152.20692443847656" stroke-width="2.0" fill="none" stroke="rgb(0, 0, 0)" stroke-opacity="1" stroke-linecap="round" stroke-linejoin="round"/>
    <path d="M 145.3460235595703 220.76400756835938 C 148.53253173828125 227.7097930908203 143.71826171875 156.14285278320312 142.52883911132812 194.9283447265625" stroke-width="2.0" fill="none" stroke="rgb(0, 0, 0)" stroke-opacity="1" stroke-linecap="round" stroke-linejoin="round"/>
    <path d="M 154.39797973632812 54.56774139404297 C 171.18019104003906 59.967018127441406 168.60385131835938 49.379783630371094 174.01004028320312 52.02268600463867 C 147.7415008544922 48.54800033569336 174.40966796875 63.89254379272461 175.5163116455078 54.87023162841797 C 204.7567596435547 67.18073272705078 199.67909240722656 74.37841033935547 199.71231079101562 49.72861099243164" stroke-width="2.0" fill="none" stroke="rgb(0, 0, 0)" stroke-opacity="1" stroke-linecap="round" stroke-linejoin="round"/>
    <path d="M 134.413818359375 178.68812561035156 C 108.89632415771484 181.74276733398438 119.8836669921875 176.20523071289062 124.13094329833984 178.87936401367188 C 108.13085174560547 154.61700439453125 130.18162536621094 167.4799346923828 144.3573455810547 177.9666290283203 C 111.90801239013672 165.03892517089844 129.60362243652344 186.3612060546875 135.8768310546875 177.1049041748047" stroke-width="2.0" fill="none" stroke="rgb(0, 0, 0)" stroke-opacity="1" stroke-linecap="round" stroke-linejoin="round"/>
    <path d="M 56.495914459228516 152.7859344482422 C 78.02680206298828 143.5538787841797 62.32018280029297 146.3660888671875 73.90838623046875 159.23663330078125 C 80.1816177368164 138.99354553222656 84.822509765625 172.6442413330078 25.438228607177734 162.092529296875" stroke-width="2.0" fill="none" stroke="rgb(0, 0, 0)" stroke-opacity="1" stroke-linecap="round" stroke-linejoin="round"/>
    <path d="M 120.86776733398438 206.4252471923828 C 103.29773712158203 199.8690643310547 107.59548950195312 214.76016235351562 105.43045806884766 183.02178955078125 C 76.21415710449219 180.31985473632812 71.04533386230469 178.92100524902344 57.08121871948242 150.36573791503906" stroke-width="2.0" fill="none" stroke="rgb(0, 0, 0)" stroke-opacity="1" stroke-linecap="round" stroke-linejoin="round"/>
    <path d="M 94.46279907226562 42.94471740722656 C 95.99566650390625 14.95142650604248 130.3703155517578 56.11713790893555 98.19020080566406 31.779747009277344" stroke-width="2.0" fill="none" stroke="rgb(0, 0, 0)" stroke-opacity="1" stroke-linecap="round" stroke-linejoin="round"/>
    <path d="M 30.35016632080078 133.06045532226562 C 29.781234741210938 127.95603942871094 -13.104110717773438 146.2897491455078 26.195476531982422 133.91522216796875 C -32.63960266113281 109.45293426513672 -16.830089569091797 131.52894592285156 29.002422332763672 137.46693420410156" stroke-width="2.0" fill="none" stroke="rgb(0, 0, 0)" stroke-opacity="1" stroke-linecap="round" stroke-linejoin="round"/>
    <path d="M 172.45159912109375 208.57369995117188 C 154.59671020507812 174.04490661621094 167.76583862304688 174.82994079589844 183.3782958984375 206.7161407470703 C 176.2552032470703 156.73611450195312 173.15687561035156 180.9873809814453 158.6868438720703 203.03453063964844 C 169.79641723632812 221.14183044433594 154.8693084716797 222.3318634033203 194.81204223632812 208.30662536621094" stroke-width="2.0" fill="none" stroke="rgb(0, 0, 0)" stroke-opacity="1" stroke-linecap="round" stroke-linejoin="round"/>
    <path d="M 20.991025924682617 85.7952880859375 C -13.679129600524902 69.9006576538086 -13.865665435791016 74.6178970336914 -2.627434015274048 68.75907135009766" stroke-width="2.0" fill="none" stroke="rgb(0, 0, 0)" stroke-opacity="1" stroke-linecap="round" stroke-linejoin="round"/>
    <path d="M 111.7636947631836 142.28822326660156 C 124.59724426269531 148.46957397460938 83.28385162353516 116.9654541015625 105.16065216064453 146.75123596191406 C 106.0486068725586 152.7420196533203 108.22545623779297 163.0993194580078 114.52172088623047 138.37779235839844 C 121.79319763183594 130.49996948242188 127.18521118164062 117.65309143066406 122.53191375732422 130.33847045898438" stroke-width="2.0" fill="none" stroke="rgb(0, 0, 0)" stroke-opacity="1" stroke-linecap="round" stroke-linejoin="round"/>
    <path d="M 101.83899688720703 109.13404083251953 C 99.5599136352539 86.55514526367188 89.04325866699219 110.943359375 105.37825012207031 111.52949523925781 C 113.14570617675781 134.5168914794922 110.95481872558594 123.77171325683594 105.3815689086914 133.74371337890625" stroke-width="2.0" fill="none" stroke="rgb(0, 0, 0)" stroke-opacity="1" stroke-linecap="round" stroke-linejoin="round"/>
    <path d="M 212.55210876464844 172.39852905273438 C 218.4784698486328 196.94923400878906 207.0552215576172 180.84500122070312 253.27403259277344 179.35711669921875 C 231.0826416015625 170.94961547851562 252.68963623046875 184.66403198242188 219.2091522216797 190.5548858642578 C 215.96466064453125 198.80845642089844 221.55686950683594 199.41275024414062 240.5627899169922 180.12451171875" stroke-width="2.0" fill="none" stroke="rgb(0, 0, 0)" stroke-opacity="1" stroke-linecap="round" stroke-linejoin="round"/>
    <path d="M 149.02166748046875 1.1079620122909546 C 196.7410888671875 4.175046920776367 176.13909912109375 6.336512565612793 143.3630828857422 8.749223709106445 C 170.66973876953125 12.412132263183594 160.6708984375 12.559194564819336 142.17625427246094 -1.449491262435913" stroke-width="2.0" fill="none" stroke="rgb(0, 0, 0)" stroke-opacity="1" stroke-linecap="round" stroke-linejoin="round"/>
    <path d="M 175.9562530517578 154.3800048828125 C 182.44764709472656 112.94888305664062 173.9862060546875 108.1224594116211 166.8327178955078 142.65835571289062" stroke-width="2.0" fill="none" stroke="rgb(0, 0, 0)" stroke-opacity="1" stroke-linecap="round" stroke-linejoin="round"/>
    <path d="M 22.56359100341797 86.4958267211914 C -2.6899681091308594 109.5301513671875 -13.57607364654541 110.2472152709961 -1.2191085815429688 88.5081787109375 C 1.971306562423706 86.79574584960938 10.839420318603516 58.251808166503906 -9.927209854125977 93.51443481445312" stroke-width="2.0" fill="none" stroke="rgb(0, 0, 0)" stroke-opacity="1" stroke-linecap="round" stroke-linejoin="round"/>
    <path d="M 146.5129852294922 212.666259765625 C 137.42161560058594 191.54864501953125 148.29510498046875 232.211669921875 136.32701110839844 233.15785217285156 C 135.9896240234375 219.9167022705078 138.2792510986328 246.48348999023438 135.9051055908203 247.0582733154297" stroke-width="2.0" fill="none" stroke="rgb(0, 0, 0)" stroke-opacity="1" stroke-linecap="round" stroke-linejoin="round"/>
    <path d="M 198.884521484375 61.09268569946289 C 168.0397186279297 69.83111572265625 169.7611846923828 68.87750244140625 173.27572631835938 70.18109130859375 C 211.7200164794922 66.24687194824219 206.11534118652344 53.81464767456055 170.92800903320312 66.85263061523438 C 168.9724578857422 63.49030303955078 169.93991088867188 81.90634155273438 176.3825225830078 64.17042541503906" stroke-width="2.0" fill="none" stroke="rgb(0, 0, 0)" stroke-opacity="1" stroke-linecap="round" stroke-linejoin="round"/>
    <path d="M 9.13665771484375 185.63861083984375 C 8.367024421691895 181.5970001220703 -28.524982452392578 195.86668395996094 -30.254301071166992 189.0756378173828 C -16.369733810424805 195.43557739257812 -9.599187850952148 185.19064331054688 -6.841095924377441 194.154541015625" stroke-width="2.0" fill="none" stroke="rgb(0, 0, 0)" stroke-opacity="1" stroke-linecap="round" stroke-linejoin="round"/>
    <path d="M 144.43292236328125 217.40103149414062 C 125.17133331298828 196.1298828125 143.0683135986328 194.8194122314453 155.02659606933594 186.92605590820312 C 158.9441680908203 214.93235778808594 163.5962677001953 190.08021545410156 167.79791259765625 202.3677215576172 C 178.14649963378906 196.42759704589844 173.20819091796875 163.35385131835938 180.76559448242188 199.840576171875" stroke-width="2.0" fill="none" stroke="rgb(0, 0, 0)" stroke-opacity="1" stroke-linecap="round" stroke-linejoin="round"/>
    <path d="M 180.4771728515625 29.99940299987793 C 168.302001953125 60.99163818359375 178.6776580810547 22.201019287109375 169.30918884277344 35.07107925415039" stroke-width="2.0" fill="none" stroke="rgb(0, 0, 0)" stroke-opacity="1" stroke-linecap="round" stroke-linejoin="round"/>
    <path d="M 45.424373626708984 63.987831115722656 C 49.494483947753906 56.884212493896484 12.554749488830566 53.189151763916016 52.2147102355957 27.10765838623047 C 39.812870025634766 64.99827575683594 29.120227813720703 67.37598419189453 56.945064544677734 83.6133041381836 C 27.81658935546875 79.77758026123047 47.576988220214844 56.82487869262695 42.571388244628906 70.15447235107422" stroke-width="2.0" fill="none" stroke="rgb(0, 0, 0)" stroke-opacity="1" stroke-linecap="round" stroke-linejoin="round"/>
    <path d="M 18.75448226928711 49.2176399230957 C 9.722267150878906 77.57006072998047 21.33285903930664 59.94041442871094 -6.09225606918335 57.67591857910156 C -21.754806518554688 87.30584716796875 2.3432767391204834 68.38487243652344 25.975297927856445 99.53848266601562 C 43.90327835083008 64.21731567382812 20.738306045532227 57.248985290527344 43.80791091918945 72.5792007446289" stroke-width="2.0" fill="none" stroke="rgb(0, 0, 0)" stroke-opacity="1" stroke-linecap="round" stroke-linejoin="round"/>
    <path d="M 40.45048141479492 180.41220092773438 C 50.111541748046875 237.90438842773438 56.35857391357422 220.16305541992188 36.87452697753906 170.04104614257812 C 58.026615142822266 188.24844360351562 41.513851165771484 249.56077575683594 39.4752197265625 183.1283416748047" stroke-width="2.0" fill="none" stroke="rgb(0, 0, 0)" stroke-opacity="1" stroke-linecap="round" stroke-linejoin="round"/>
    <path d="M 69.26089477539062 213.80752563476562 C 78.85131072998047 183.51419067382812 52.34426498413086 225.31739807128906 52.310142517089844 209.65354919433594 C 85.20711517333984 198.39031982421875 88.18143463134766 231.4478759765625 65.89822387695312 214.54861450195312 C 72.0333251953125 218.89947509765625 63.14992141723633 240.078369140625 53.822486877441406 249.2095184326172" stroke-width="2.0" fill="none" stroke="rgb(0, 0, 0)" stroke-opacity="1" stroke-linecap="round" stroke-linejoin="round"/>
    <path d="M 20.37567901611328 184.4034423828125 C 31.434329986572266 167.57949829101562 -5.061063289642334 200.3504180908203 43.50938415527344 174.00048828125" stroke-width="2.0" fill="none" stroke="rgb(0, 0, 0)" stroke-opacity="1" stroke-linecap="round" stroke-linejoin="round"/>
    <path d="M 40.857765197753906 154.3253631591797 C 39.90467071533203 105.71253204345703 40.5515022277832 125.03990173339844 44.254146575927734 153.83975219726562 C 19.931671142578125 161.09185791015625 57.0490608215332 146.533447265625 62.97380065917969 146.44979858398438" stroke-width="2.0" fill="none" stroke="rgb(0, 0, 0)" stroke-opacity="1" stroke-linecap="round" stroke-linejoin="round"/>
    <path d="M 94.40060424804688 101.76971435546875 C 106.83487701416016 88.68118286132812 100.69458770751953 118.62303161621094 122.95616912841797 103.05577850341797 C 116.06499481201172 67.05316162109375 113.0346450805664 76.67742156982422 117.88906860351562 105.6217041015625" stroke-width="2.0" fill="none" stroke="rgb(0, 0, 0)" stroke-opacity="1" stroke-linecap="round" stroke-linejoin="round"/>
    <path d="M 229.78073120117188 39.54581069946289 C 229.67994689941406 40.73736572265625 222.9986114501953 36.55500030517578 235.7198028564453 47.41274642944336 C 229.0462188720703 56.07559585571289 222.10691833496094 52.44091033935547 228.50827026367188 55.92567443847656 C 230.47586059570312 56.074153900146484 234.07113647460938 54.8199348449707 228.96624755859375 41.18256759643555" stroke-width="2.0" fill="none" stroke="rgb(0, 0, 0)" stroke-opacity="1" stroke-linecap="round" stroke-linejoin="round"/>
    <path d="M 72.06580352783203 113.8037109375 C 73.85203552246094 113.74109649658203 90.3265151977539 119.93006896972656 70.40753936767578 98.90708923339844" stroke-width="2.0" fill="none" stroke="rgb(0, 0, 0)" stroke-opacity="1" stroke-linecap="round" stroke-linejoin="round"/>
    <path d="M 199.79312133789062 -4.512522220611572 C 201.2918701171875 -10.788432121276855 207.97891235351562 -10.687782287597656 203.77069091796875 -21.26593589782715 C 213.13677978515625 -20.915292739868164 223.62591552734375 -20.735441207885742 224.86257934570312 -18.02634048461914 C 229.419189453125 -13.744806289672852 236.78384399414062 -18.731426239013672 227.24974060058594 -10.27474308013916" stroke-width="2.0" fill="none" stroke="rgb(0, 0, 0)" stroke-opacity="1" stroke-linecap="round" stroke-linejoin="round"/>
    <path d="M 45.574317932128906 215.88168334960938 C 78.94339752197266 210.69667053222656 72.4237289428711 202.10353088378906 61.113121032714844 204.41909790039062" stroke-width="2.0" fill="none" stroke="rgb(0, 0, 0)" stroke-opacity="1" stroke-linecap="round" stroke-linejoin="round"/>
    <path d="M 33.96103286743164 53.07427215576172 C 38.69939041137695 62.13859939575195 64.56047821044922 84.22409057617188 29.097681045532227 69.29161834716797 C 27.22568130493164 103.1558609008789 17.931690216064453 66.2488021850586 38.7624397277832 82.5806655883789 C 31.23484992980957 108.97087097167969 0.6205661296844482 123.19300079345703 28.062366485595703 96.36514282226562" stroke-width="2.0" fill="none" stroke="rgb(0, 0, 0)" stroke-opacity="1" stroke-linecap="round" stroke-linejoin="round"/>
    <path d="M 148.51449584960938 174.12002563476562 C 134.3297882080078 159.43211364746094 127.78164672851562 149.02194213867188 109.6672592163086 128.90243530273438" stroke-width="2.0" fill="none" stroke="rgb(0, 0, 0)" stroke-opacity="1" stroke-linecap="round" stroke-linejoin="round"/>
    <path d="M 132.05064392089844 35.3354377746582 C 124.86803436279297 54.05757522583008 131.09072875976562 47.95756149291992 113.91840362548828 38.50993728637695 C 148.59278869628906 51.73737716674805 158.13626098632812 50.781517028808594 158.1728515625 47.354949951171875 C 155.88143920898438 51.188358306884766 157.9013214111328 55.45024871826172 146.80801391601562 51.66748809814453" stroke-width="2.0" fill="none" stroke="rgb(0, 0, 0)" stroke-opacity="1" stroke-linecap="round" stroke-linejoin="round"/>
    <path d="M 185.01449584960938 189.45645141601562 C 204.2635040283203 179.79469299316406 193.8907928466797 186.11631774902344 188.28004455566406 190.132568359375" stroke-width="2.0" fill="none" stroke="rgb(0, 0, 0)" stroke-opacity="1" stroke-linecap="round" stroke-linejoin="round"/>
    <path d="M 202.60166931152344 41.37799072265625 C 203.3426055908203 6.313640117645264 186.48114013671875 30.2818603515625 215.80999755859375 27.91796875 C 215.97531127929688 37.60776138305664 203.9296875 22.726953506469727 183.75454711914062 56.36991882324219" stroke-width="2.0" fill="none" stroke="rgb(0, 0, 0)" stroke-opacity="1" stroke-linecap="round" stroke-linejoin="round"/>
    <path d="M 46.833457946777344 103.10712432861328 C 112.62120819091797 82.8538589477539 106.83377838134766 73.97948455810547 22.948747634887695 109.61814880371094 C 60.10194778442383 118.22686767578125 74.88880157470703 114.40770721435547 29.55866050720215 109.14616394042969 C -0.7967286109924316 103.28297424316406 14.677498817443848 117.1904067993164 46.92879104614258 118.89432525634766" stroke-width="2.0" fill="none" stroke="rgb(0, 0, 0)" stroke-opacity="1" stroke-linecap="round" stroke-linejoin="round"/>
    <path d="M 177.34693908691406 144.91134643554688 C 165.29908752441406 149.63571166992188 166.71530151367188 162.00242614746094 174.3851318359375 123.01543426513672" stroke-width="2.0" fill="none" stroke="rgb(0, 0, 0)" stroke-opacity="1" stroke-linecap="round" stroke-linejoin="round"/>
    <path d="M 53.265907287597656 84.8363265991211 C 82.33831024169922 95.04378509521484 48.59729766845703 87.50650024414062 53.42644500732422 83.94107818603516 C 65.58099365234375 60.787879943847656 55.71229934692383 49.645294189453125 47.640010833740234 80.93622589111328" stroke-width="2.0" fill="none" stroke="rgb(0, 0, 0)" stroke-opacity="1" stroke-linecap="round" stroke-linejoin="round"/>
    <path d="M 187.48358154296875 117.62598419189453 C 229.237060546875 106.31472778320312 209.98379516601562 97.10753631591797 224.11776733398438 139.00711059570312 C 224.13401794433594 115.3126449584961 212.2486572265625 124.62674713134766 242.55697631835938 115.67405700683594" stroke-width="2.0" fill="none" stroke="rgb(0, 0, 0)" stroke-opacity="1" stroke-linecap="round" stroke-linejoin="round"/>
    <path d="M 40.93516159057617 193.41287231445312 C 50.28105163574219 239.96192932128906 35.341346740722656 208.9628143310547 37.588340759277344 176.6900177001953 C -0.25770580768585205 180.6573028564453 13.811686515808105 168.42149353027344 31.04511833190918 180.32205200195312" stroke-width="2.0" fill="none" stroke="rgb(0, 0, 0)" stroke-opacity="1" stroke-linecap="round" stroke-linejoin="round"/>
    <path d="M 92.53607177734375 157.42665100097656 C 125.05785369873047 176.55441284179688 120.40003204345703 142.2687530517578 116.98627471923828 209.7279052734375" stroke-width="2.0" fill="none" stroke="rgb(0, 0, 0)" stroke-opacity="1" stroke-linecap="round" stroke-linejoin="round"/>
    <path d="M 10.447715759277344 12.475196838378906 C 1.8097249269485474 17.573768615722656 -9.831964492797852 12.835152626037598 -10.169285774230957 15.513676643371582 C -13.012758255004883 -1.4153101444244385 -11.728412628173828 1.503748893737793 -18.286211013793945 5.080721855163574" stroke-width="2.0" fill="none" stroke="rgb(0, 0, 0)" stroke-opacity="1" stroke-linecap="round" stroke-linejoin="round"/>
    <path d="M 28.017927169799805 93.48994445800781 C -3.9869861602783203 111.72914123535156 -1.213784098625183 92.32105255126953 14.167231559753418 81.95899963378906 C 43.92985534667969 103.75493621826172 12.959383964538574 104.45098876953125 8.081857681274414 89.44416046142578" stroke-width="2.0" fill="none" stroke="rgb(0, 0, 0)" stroke-opacity="1" stroke-linecap="round" stroke-linejoin="round"/>
    <path d="M 121.81934356689453 185.87335205078125 C 130.3437957763672 188.3936004638672 142.77342224121094 154.85052490234375 144.28488159179688 172.29238891601562" stroke-width="2.0" fill="none" stroke="rgb(0, 0, 0)" stroke-opacity="1" stroke-linecap="round" stroke-linejoin="round"/>
    <path d="M 209.2272491455078 109.97203826904297 C 182.90838623046875 101.64757537841797 202.34474182128906 92.1475601196289 179.6622772216797 111.67668914794922" stroke-width="2.0" fill="none" stroke="rgb(0, 0, 0)" stroke-opacity="1" stroke-linecap="round" stroke-linejoin="round"/>
    <path d="M 100.40260314941406 197.886474609375 C 120.70712280273438 205.67822265625 143.58755493164062 184.31112670898438 118.34107208251953 191.49484252929688 C 117.9300308227539 207.80494689941406 118.3042984008789 180.56619262695312 118.11823272705078 161.49501037597656" stroke-width="2.0" fill="none" stroke="rgb(0, 0, 0)" stroke-opacity="1" stroke-linecap="round" stroke-linejoin="round"/>
    <path d="M 143.07481384277344 88.63674926757812 C 132.22711181640625 69.97769165039062 156.1556396484375 87.27159118652344 134.6946258544922 92.48466491699219 C 119.70531463623047 104.09880828857422 130.55662536621094 97.97742462158203 140.0792999267578 88.70925903320312 C 155.45838928222656 111.49736022949219 137.21580505371094 107.46048736572266 126.42642974853516 81.77729034423828" stroke-width="2.0" fill="none" stroke="rgb(0, 0, 0)" stroke-opacity="1" stroke-linecap="round" stroke-linejoin="round"/>
    <path d="M 74.05632019042969 134.2284393310547 C 73.85350799560547 150.22894287109375 59.271827697753906 116.8147964477539 70.4848403930664 153.439453125" stroke-width="2.0" fill="none" stroke="rgb(0, 0, 0)" stroke-opacity="1" stroke-linecap="round" stroke-linejoin="round"/>
    <path d="M 65.19097900390625 167.55467224121094 C 61.654685974121094 159.0702667236328 52.122413635253906 174.7222900390625 64.48267364501953 168.3220672607422 C 34.65449523925781 161.90655517578125 45.56169509887695 132.86180114746094 59.2907600402832 171.24034118652344" stroke-width="2.0" fill="none" stroke="rgb(0, 0, 0)" stroke-opacity="1" stroke-linecap="round" stroke-linejoin="round"/>
    <path d="M 184.91888427734375 89.87136840820312 C 207.9784393310547 117.47579956054688 204.39523315429688 115.89039611816406 204.64651489257812 102.4112319946289 C 177.61781311035156 126.47796630859375 186.60781860351562 119.02083587646484 199.27577209472656 98.02439880371094 C 175.87135314941406 118.08068084716797 182.0560760498047 118.4254379272461 197.33810424804688 104.81668853759766" stroke-width="2.0" fill="none" stroke="rgb(0, 0, 0)" stroke-opacity="1" stroke-linecap="round" stroke-linejoin="round"/>
    <path d="M 234.70997619628906 143.91339111328125 C 190.14401245117188 151.4239044189453 223.87840270996094 143.9322052001953 206.92782592773438 146.5937042236328" stroke-width="2.0" fill="none" stroke="rgb(0, 0, 0)" stroke-opacity="1" stroke-linecap="round" stroke-linejoin="round"/>
    <path d="M 112.04270935058594 225.8777618408203 C 116.90119171142578 215.32699584960938 144.7519989013672 237.10594177246094 81.02963256835938 229.95004272460938 C 112.95407104492188 228.64886474609375 112.12420654296875 234.18466186523438 111.82945251464844 231.75686645507812" stroke-width="2.0" fill="none" stroke="rgb(0, 0, 0)" stroke-opacity="1" stroke-linecap="round" stroke-linejoin="round"/>
    <path d="M 183.45037841796875 20.831310272216797 C 186.16448974609375 -27.839168548583984 179.62892150878906 -2.3704938888549805 187.59356689453125 -6.838987350463867 C 182.2911376953125 5.3791184425354 193.0727081298828 -0.31675511598587036 223.3085174560547 1.3539067506790161 C 183.64125061035156 -1.238209843635559 200.88087463378906 -4.2347941398620605 203.7884063720703 -8.356695175170898" stroke-width="2.0" fill="none" stroke="rgb(0, 0, 0)" stroke-opacity="1" stroke-linecap="round" stroke-linejoin="round"/>
    <path d="M 91.38606262207031 217.50315856933594 C 113.65278625488281 216.94081115722656 97.77565002441406 231.5532989501953 110.51914978027344 197.74102783203125 C 115.38325500488281 202.1913604736328 112.68365478515625 216.00096130371094 102.09353637695312 207.00782775878906" stroke-width="2.0" fill="none" stroke="rgb(0, 0, 0)" stroke-opacity="1" stroke-linecap="round" stroke-linejoin="round"/>
    <path d="M 158.7079620361328 -1.0196011066436768 C 160.20053100585938 5.965354919433594 158.86590576171875 15.642534255981445 134.84375 -3.810403347015381 C 141.87327575683594 31.477201461791992 127.25769805908203 50.298553466796875 135.4396209716797 3.9594686031341553" stroke-width="2.0" fill="none" stroke="rgb(0, 0, 0)" stroke-opacity="1" stroke-linecap="round" stroke-linejoin="round"/>
    <path d="M 55.80595016479492 44.23115539550781 C 46.67965316772461 61.6716194152832 49.240909576416016 62.10432052612305 58.69258499145508 45.19622039794922 C 69.2786636352539 46.54396438598633 43.44718551635742 47.42660903930664 78.33708190917969 66.4781265258789" stroke-width="2.0" fill="none" stroke="rgb(0, 0, 0)" stroke-opacity="1" stroke-linecap="round" stroke-linejoin="round"/>
    <path d="M 189.02755737304688 204.86167907714844 C 203.73779296875 235.27413940429688 205.62918090820312 228.8134765625 202.08944702148438 219.67282104492188" stroke-width="2.0" fill="none" stroke="rgb(0, 0, 0)" stroke-opacity="1" stroke-linecap="round" stroke-linejoin="round"/>
    <path d="M 13.446404457092285 53.988887786865234 C 17.95481300354004 76.01798248291016 6.754340648651123 48.680328369140625 -15.42522144317627 50.1143684387207 C 13.582723617553711 49.061283111572266 35.218971252441406 62.79377365112305 -6.775582790374756 50.584354400634766" stroke-width="2.0" fill="none" stroke="rgb(0, 0, 0)" stroke-opacity="1" stroke-linecap="round" stroke-linejoin="round"/>
    <path d="M 199.52308654785156 53.16716003417969 C 186.1253204345703 55.37866973876953 178.4938201904297 45.7214241027832 177.9913787841797 48.09015655517578 C 200.8069610595703 19.478294372558594 159.5577392578125 61.35029983520508 184.1598663330078 31.908321380615234" stroke-width="2.0" fill="none" stroke="rgb(0, 0, 0)" stroke-opacity="1" stroke-linecap="round" stroke-linejoin="round"/>
    <path d="M 113.5804443359375 98.73806762695312 C 155.47720336914062 80.5897445678711 149.06591796875 64.02932739257812 133.85546875 85.0359878540039 C 171.2954864501953 77.73070526123047 140.47569274902344 58.550933837890625 150.1350555419922 85.67475128173828 C 159.518798828125 97.2668228149414 125.0401611328125 104.32112884521484 116.36941528320312 105.520751953125" stroke-width="2.0" fill="none" stroke="rgb(0, 0, 0)" stroke-opacity="1" stroke-linecap="round" stroke-linejoin="round"/>
    <path d="M 176.21678161621094 4.8972930908203125 C 186.28781127929688 14.15038776397705 185.9329376220703 39.58135986328125 173.34829711914062 -2.984929084777832" stroke-width="2.0" fill="none" stroke="rgb(0, 0, 0)" stroke-opacity="1" stroke-linecap="round" stroke-linejoin="round"/>
    <path d="M 188.9457244873047 154.72389221191406 C 210.05699157714844 154.46412658691406 211.90350341796875 164.27195739746094 179.21005249023438 154.7802276611328 C 177.6322784423828 120.11377716064453 180.43435668945312 136.70860290527344 157.2003173828125 139.09524536132812" stroke-width="2.0" fill="none" stroke="rgb(0, 0, 0)" stroke-opacity="1" stroke-linecap="round" stroke-linejoin="round"/>
    <path d="M 10.40675163269043 31.476350784301758 C 11.287352561950684 -21.64811897277832 5.795523166656494 -24.1745548248291 3.3524036407470703 -21.754793167114258 C -2.8230841159820557 -8.551214218139648 -11.940836906433105 -17.433839797973633 -16.11601448059082 -26.657934188842773" stroke-width="2.0" fill="none" stroke="rgb(0, 0, 0)" stroke-opacity="1" stroke-linecap="round" stroke-linejoin="round"/>
    <path d="M 64.38024139404297 50.14783477783203 C 29.913166046142578 54.60060501098633 90.67545318603516 56.02996063232422 68.40576934814453 59.302066802978516 C 63.09879684448242 46.61833953857422 64.9287109375 50.376182556152344 81.81403350830078 61.81330490112305 C 58.46866989135742 67.0992660522461 62.82056427001953 53.90604019165039 62.786598205566406 19.7563419342041" stroke-width="2.0" fill="none" stroke="rgb(0, 0, 0)" stroke-opacity="1" stroke-linecap="round" stroke-linejoin="round"/>
    <path d="M 110.64842987060547 92.2704849243164 C 128.2336883544922 127.07868957519531 132.65487670898438 96.75543212890625 119.82579803466797 81.60536193847656" stroke-width="2.0" fill="none" stroke="rgb(0, 0, 0)" stroke-opacity="1" stroke-linecap="round" stroke-linejoin="round"/>
    <path d="M -15.367791175842285 64.61530303955078 C 10.363061904907227 69.2666244506836 33.58409118652344 67.26150512695312 -11.803576469421387 62.50578308105469 C 0.707628607749939 44.935264587402344 26.87558937072754 63.87382888793945 2.911639928817749 62.821014404296875 C 10.183318138122559 41.92877960205078 -14.862088203430176 48.66375732421875 -25.706218719482422 59.667720794677734" stroke-width="2.0" fill="none" stroke="rgb(0, 0, 0)" stroke-opacity="1" stroke-linecap="round" stroke-linejoin="round"/>
    <path d="M 144.65167236328125 99.68852996826172 C 165.14593505859375 123.75503540039062 129.88088989257812 86.01377868652344 146.54171752929688 85.31361389160156 C 155.324951171875 54.09373092651367 153.62779235839844 93.7523193359375 162.06661987304688 110.17167663574219 C 144.25299072265625 84.8071060180664 156.34878540039062 77.79884338378906 141.09445190429688 78.41334533691406" stroke-width="2.0" fill="none" stroke="rgb(0, 0, 0)" stroke-opacity="1" stroke-linecap="round" stroke-linejoin="round"/>
    <path d="M 52.151084899902344 150.61380004882812 C 50.592811584472656 108.03550720214844 44.981685638427734 100.8558349609375 54.417144775390625 116.58930206298828 C 62.17998504638672 116.79903411865234 17.74593162536621 119.1207046508789 13.490727424621582 106.06719207763672 C 43.62324142456055 123.05030059814453 35.45061492919922 112.7593002319336 11.595690727233887 102.96076202392578" stroke-width="2.0" fill="none" stroke="rgb(0, 0, 0)" stroke-opacity="1" stroke-linecap="round" stroke-linejoin="round"/>
    <path d="M 196.38946533203125 103.53938293457031 C 203.13023376464844 82.75997924804688 192.83726501464844 91.69901275634766 212.6334228515625 93.64500427246094 C 215.84239196777344 79.61175537109375 235.5175018310547 98.95838165283203 226.77236938476562 91.61845397949219 C 193.9970245361328 84.9991226196289 188.55735778808594 88.58413696289062 228.9892120361328 94.05716705322266" stroke-width="2.0" fill="none" stroke="rgb(0, 0, 0)" stroke-opacity="1" stroke-linecap="round" stroke-linejoin="round"/>
    <path d="M 98.49584197998047 112.7454833984375 C 65.22370910644531 116.90984344482422 64.6484146118164 118.19420623779297 78.3060302734375 100.74226379394531" stroke-width="2.0" fill="none" stroke="rgb(0, 0, 0)" stroke-opacity="1" stroke-linecap="round" stroke-linejoin="round"/>
    <path d="M 183.32382202148438 91.32241821289062 C 151.03311157226562 125.04071807861328 153.14515686035156 116.21356201171875 169.27117919921875 112.09124755859375 C 155.92359924316406 98.44668579101562 161.73507690429688 91.69866943359375 167.81349182128906 102.32647705078125" stroke-width="2.0" fill="none" stroke="rgb(0, 0, 0)" stroke-opacity="1" stroke-linecap="round" stroke-linejoin="round"/>
    <path d="M 153.18093872070312 141.0050048828125 C 153.47232055664062 134.11647033691406 151.91375732421875 127.74617767333984 170.6693572998047 128.96737670898438 C 154.43780517578125 140.58567810058594 144.01507568359375 148.08750915527344 167.3953857421875 134.8867645263672" stroke-width="2.0" fill="none" stroke="rgb(0, 0, 0)" stroke-opacity="1" stroke-linecap="round" stroke-linejoin="round"/>
    <path d="M 19.998868942260742 141.14987182617188 C 13.695998191833496 143.20472717285156 34.88298034667969 124.9525146484375 26.802120208740234 156.2449188232422" stroke-width="2.0" fill="none" stroke="rgb(0, 0, 0)" stroke-opacity="1" stroke-linecap="round" stroke-linejoin="round"/>
    <path d="M 177.6430206298828 137.98861694335938 C 152.6703643798828 139.72998046875 130.9281463623047 142.7945556640625 157.3081512451172 124.1148452758789" stroke-width="2.0" fill="none" stroke="rgb(0, 0, 0)" stroke-opacity="1" stroke-linecap="round" stroke-linejoin="round"/>
    <path d="M 55.45700454711914 151.4052734375 C 50.31181335449219 104.00970458984375 55.98873519897461 93.89317321777344 59.59196472167969 138.21725463867188 C 84.05585479736328 136.0904998779297 71.01070404052734 115.75301361083984 79.57228088378906 159.94239807128906 C 92.29219055175781 172.13539123535156 75.13011169433594 149.2509307861328 87.22221374511719 161.870849609375" stroke-width="2.0" fill="none" stroke="rgb(0, 0, 0)" stroke-opacity="1" stroke-linecap="round" stroke-linejoin="round"/>
    <path d="M 133.83135986328125 81.58661651611328 C 145.00697326660156 106.74565887451172 143.29039001464844 102.91167449951172 133.6221160888672 82.77113342285156 C 132.21539306640625 68.2007064819336 138.85948181152344 88.68301391601562 140.2420654296875 91.18083953857422 C 157.71841430664062 81.87206268310547 143.2657470703125 79.53229522705078 153.77499389648438 95.84822082519531" stroke-width="2.0" fill="none" stroke="rgb(0, 0, 0)" stroke-opacity="1" stroke-linecap="round" stroke-linejoin="round"/>
    <path d="M 55.37002182006836 122.94058990478516 C 59.51520919799805 133.74449157714844 49.212066650390625 145.76211547851562 67.80294036865234 134.69973754882812" stroke-width="2.0" fill="none" stroke="rgb(0, 0, 0)" stroke-opacity="1" stroke-linecap="round" stroke-linejoin="round"/>
    <path d="M 17.023530960083008 186.5576171875 C 15.924138069152832 110.54923248291016 12.563098907470703 154.81846618652344 13.659794807434082 188.1011962890625" stroke-width="2.0" fill="none" stroke="rgb(0, 0, 0)" stroke-opacity="1" stroke-linecap="round" stroke-linejoin="round"/>
  </g>
</svg>
