<?xml version="1.0" ?>
<svg xmlns="http://www.w3.org/2000/svg" version="1.1" width="224" height="224">
  <defs/>
  <g>
    <path d="M 54.01222610473633 74.18463897705078 C 56.40267562866211 61.33823013305664 71.82721710205078 65.10643005371094 39.414329528808594 83.44984436035156 C 67.31822967529297 93.38261413574219 57.4583854675293 93.43526458740234 68.20320892333984 98.54104614257812 C 64.95346069335938 76.77472686767578 66.9522476196289 81.52590942382812 52.574283599853516 98.74839782714844" stroke-width="2.0" fill="none" stroke="rgb(0, 0, 0)" stroke-opacity="1" stroke-linecap="round" stroke-linejoin="round"/>
    <path d="M 107.08544921875 183.80010986328125 C 112.08372497558594 164.35076904296875 110.90718841552734 173.980712890625 123.41169738769531 196.8240203857422 C 96.82469177246094 223.46881103515625 127.75198364257812 177.98162841796875 141.08668518066406 181.1298065185547 C 133.0942840576172 197.0746307373047 109.49211883544922 195.29661560058594 152.94444274902344 165.1110382080078" stroke-width="2.0" fill="none" stroke="rgb(0, 0, 0)" stroke-opacity="1" stroke-linecap="round" stroke-linejoin="round"/>
    <path d="M 51.38926315307617 18.384523391723633 C 25.226675033569336 17.03244972229004 76.87489318847656 41.62820053100586 57.92036056518555 30.763151168823242 C 22.109352111816406 28.495628356933594 -2.304163694381714 29.37918472290039 -9.016700744628906 10.581499099731445 C 8.705018997192383 7.599676609039307 25.99944305419922 24.309703826904297 45.17512512207031 11.461458206176758" stroke-width="2.0" fill="none" stroke="rgb(0, 0, 0)" stroke-opacity="1" stroke-linecap="round" stroke-linejoin="round"/>
    <path d="M 97.55438232421875 136.35678100585938 C 141.85516357421875 131.1120147705078 145.93714904785156 118.50302124023438 161.3034210205078 116.45438385009766" stroke-width="2.0" fill="none" stroke="rgb(0, 0, 0)" stroke-opacity="1" stroke-linecap="round" stroke-linejoin="round"/>
    <path d="M 82.3016128540039 103.81995391845703 C 81.63348388671875 33.467063903808594 54.12954330444336 94.14623260498047 47.811893463134766 94.47675323486328 C 26.07208251953125 76.14583587646484 73.63995361328125 56.11684799194336 71.59486389160156 76.34894561767578" stroke-width="2.0" fill="none" stroke="rgb(0, 0, 0)" stroke-opacity="1" stroke-linecap="round" stroke-linejoin="round"/>
    <path d="M 47.91911315917969 77.77767944335938 C 63.67215347290039 56.832740783691406 55.03301239013672 74.41276550292969 33.98140335083008 84.5307388305664" stroke-width="2.0" fill="none" stroke="rgb(0, 0, 0)" stroke-opacity="1" stroke-linecap="round" stroke-linejoin="round"/>
    <path d="M 157.04002380371094 203.94839477539062 C 153.18515014648438 171.88006591796875 141.66937255859375 153.59527587890625 159.4740447998047 163.61219787597656 C 152.06683349609375 162.01197814941406 145.73931884765625 168.5343017578125 156.99429321289062 193.18792724609375" stroke-width="2.0" fill="none" stroke="rgb(0, 0, 0)" stroke-opacity="1" stroke-linecap="round" stroke-linejoin="round"/>
    <path d="M 223.15072631835938 175.11593627929688 C 241.77273559570312 182.16128540039062 246.2798309326172 186.35720825195312 246.14332580566406 176.75634765625 C 244.67002868652344 169.7365264892578 237.2152557373047 158.08502197265625 230.4630584716797 168.6455078125 C 229.88096618652344 167.83912658691406 236.19960021972656 170.97341918945312 239.59530639648438 164.13824462890625" stroke-width="2.0" fill="none" stroke="rgb(0, 0, 0)" stroke-opacity="1" stroke-linecap="round" stroke-linejoin="round"/>
    <path d="M 147.40501403808594 176.22064208984375 C 136.1400604248047 156.89483642578125 153.1402130126953 214.5340118408203 159.69155883789062 196.62472534179688 C 171.46978759765625 215.24356079101562 153.18801879882812 222.37857055664062 155.12098693847656 210.72821044921875 C 162.5299072265625 203.7417449951172 169.348876953125 199.2232666015625 200.20108032226562 181.45596313476562" stroke-width="2.0" fill="none" stroke="rgb(0, 0, 0)" stroke-opacity="1" stroke-linecap="round" stroke-linejoin="round"/>
    <path d="M 159.89495849609375 102.70284271240234 C 172.70919799804688 86.7159194946289 166.5728302001953 118.63072204589844 153.97972106933594 97.87139129638672 C 160.69569396972656 99.73529052734375 164.78146362304688 92.94577026367188 155.91159057617188 54.45273208618164 C 149.2976531982422 72.9111557006836 138.3453369140625 67.53497314453125 145.51840209960938 72.4139633178711" stroke-width="2.0" fill="none" stroke="rgb(0, 0, 0)" stroke-opacity="1" stroke-linecap="round" stroke-linejoin="round"/>
    <path d="M 33.74081039428711 166.78860473632812 C 29.09548568725586 175.22689819335938 36.79042053222656 167.6470489501953 56.26981735229492 143.98455810546875" stroke-width="2.0" fill="none" stroke="rgb(0, 0, 0)" stroke-opacity="1" stroke-linecap="round" stroke-linejoin="round"/>
    <path d="M 75.5652847290039 60.02521896362305 C 65.28511047363281 50.84478759765625 62.75038528442383 55.714054107666016 76.23829650878906 63.87705612182617" stroke-width="2.0" fill="none" stroke="rgb(0, 0, 0)" stroke-opacity="1" stroke-linecap="round" stroke-linejoin="round"/>
    <path d="M -10.216246604919434 6.397678852081299 C 8.591215133666992 24.34943199157715 -3.6487200260162354 8.637290000915527 8.914149284362793 10.943604469299316 C 2.4090633392333984 -19.25078010559082 14.813539505004883 -5.926492214202881 6.640752792358398 40.06214141845703" stroke-width="2.0" fill="none" stroke="rgb(0, 0, 0)" stroke-opacity="1" stroke-linecap="round" stroke-linejoin="round"/>
    <path d="M 213.1841583251953 23.22017478942871 C 223.1580047607422 29.96697235107422 249.86737060546875 18.57635498046875 265.4363708496094 13.391827583312988 C 248.03384399414062 21.367591857910156 240.9077606201172 27.42322540283203 238.00584411621094 24.49785614013672" stroke-width="2.0" fill="none" stroke="rgb(0, 0, 0)" stroke-opacity="1" stroke-linecap="round" stroke-linejoin="round"/>
    <path d="M 97.18150329589844 97.8756103515625 C 111.0047378540039 102.90106201171875 125.62393188476562 120.7548828125 112.22103118896484 90.22761535644531 C 73.13214111328125 121.8786849975586 102.03141784667969 76.72582244873047 81.79119110107422 60.54933166503906" stroke-width="2.0" fill="none" stroke="rgb(0, 0, 0)" stroke-opacity="1" stroke-linecap="round" stroke-linejoin="round"/>
    <path d="M 111.06572723388672 143.8448486328125 C 121.53304290771484 152.02821350097656 98.70252227783203 137.48846435546875 93.04106140136719 146.1282958984375 C 68.38715362548828 122.97652435302734 87.61519622802734 142.87713623046875 86.73069763183594 122.52926635742188 C 70.22869873046875 142.68572998046875 69.78103637695312 154.99339294433594 58.10354995727539 144.21817016601562" stroke-width="2.0" fill="none" stroke="rgb(0, 0, 0)" stroke-opacity="1" stroke-linecap="round" stroke-linejoin="round"/>
    <path d="M 57.29668426513672 155.4113006591797 C 81.92810821533203 146.19259643554688 46.24224090576172 124.09652709960938 52.520103454589844 135.52000427246094 C 72.07709503173828 168.93856811523438 65.50222778320312 148.26287841796875 55.60011672973633 142.72607421875" stroke-width="2.0" fill="none" stroke="rgb(0, 0, 0)" stroke-opacity="1" stroke-linecap="round" stroke-linejoin="round"/>
    <path d="M 73.00023651123047 56.6242790222168 C 84.16668701171875 81.28976440429688 59.6076545715332 68.5550765991211 46.43309783935547 93.53390502929688" stroke-width="2.0" fill="none" stroke="rgb(0, 0, 0)" stroke-opacity="1" stroke-linecap="round" stroke-linejoin="round"/>
    <path d="M 41.29169464111328 101.6432876586914 C 10.419191360473633 63.96626281738281 45.01744079589844 115.54656982421875 59.52048110961914 108.98175811767578 C 10.015488624572754 105.33653259277344 26.18437957763672 101.49673461914062 56.41839599609375 73.43997955322266" stroke-width="2.0" fill="none" stroke="rgb(0, 0, 0)" stroke-opacity="1" stroke-linecap="round" stroke-linejoin="round"/>
    <path d="M 22.700891494750977 165.13963317871094 C 15.312274932861328 159.76268005371094 30.041284561157227 152.6197509765625 6.186078071594238 143.83847045898438 C 20.439485549926758 127.53227996826172 19.823396682739258 126.1292495727539 29.257158279418945 140.61643981933594" stroke-width="2.0" fill="none" stroke="rgb(0, 0, 0)" stroke-opacity="1" stroke-linecap="round" stroke-linejoin="round"/>
    <path d="M 124.98780059814453 60.67015838623047 C 136.7028350830078 79.66777038574219 127.84745025634766 67.0862808227539 109.93107604980469 59.37283706665039 C 131.98171997070312 69.75909423828125 143.8704833984375 77.8066635131836 107.3565902709961 99.9910659790039 C 125.03307342529297 73.51696014404297 155.2865447998047 76.95067596435547 168.5637664794922 52.54029846191406" stroke-width="2.0" fill="none" stroke="rgb(0, 0, 0)" stroke-opacity="1" stroke-linecap="round" stroke-linejoin="round"/>
    <path d="M 81.68598175048828 137.67306518554688 C 90.95227813720703 144.8473663330078 96.27346801757812 150.40882873535156 101.17827606201172 162.04071044921875 C 88.67314910888672 166.6742401123047 122.28929901123047 175.9975128173828 115.4057846069336 178.4344482421875 C 141.09547424316406 152.6895294189453 131.32113647460938 171.091064453125 109.15541076660156 140.4376983642578" stroke-width="2.0" fill="none" stroke="rgb(0, 0, 0)" stroke-opacity="1" stroke-linecap="round" stroke-linejoin="round"/>
    <path d="M 149.07986450195312 56.630184173583984 C 145.66873168945312 63.44980239868164 149.9757843017578 72.8718490600586 166.05247497558594 45.03603744506836" stroke-width="2.0" fill="none" stroke="rgb(0, 0, 0)" stroke-opacity="1" stroke-linecap="round" stroke-linejoin="round"/>
    <path d="M 108.72738647460938 215.36309814453125 C 104.02901458740234 233.82948303222656 67.70490264892578 239.90682983398438 62.51338577270508 227.83013916015625 C 68.48036193847656 235.55897521972656 73.16516876220703 244.01771545410156 73.85503387451172 200.8777618408203 C 58.029117584228516 206.37461853027344 61.893367767333984 204.118408203125 59.98461151123047 236.7590789794922" stroke-width="2.0" fill="none" stroke="rgb(0, 0, 0)" stroke-opacity="1" stroke-linecap="round" stroke-linejoin="round"/>
    <path d="M 184.35150146484375 -9.136321067810059 C 164.35231018066406 -7.255167484283447 178.80006408691406 5.6221771240234375 169.8079833984375 12.640512466430664" stroke-width="2.0" fill="none" stroke="rgb(0, 0, 0)" stroke-opacity="1" stroke-linecap="round" stroke-linejoin="round"/>
    <path d="M 76.45306396484375 127.67843627929688 C 90.4211196899414 101.6484146118164 105.31420135498047 105.2266616821289 106.72455596923828 101.55944061279297 C 88.10440063476562 124.70957946777344 55.8138542175293 117.18663024902344 96.43114471435547 102.08118438720703" stroke-width="2.0" fill="none" stroke="rgb(0, 0, 0)" stroke-opacity="1" stroke-linecap="round" stroke-linejoin="round"/>
    <path d="M 92.2638931274414 198.6059112548828 C 79.35015106201172 173.3057098388672 94.08332061767578 193.37696838378906 89.64958190917969 200.34364318847656" stroke-width="2.0" fill="none" stroke="rgb(0, 0, 0)" stroke-opacity="1" stroke-linecap="round" stroke-linejoin="round"/>
    <path d="M 69.03605651855469 144.75157165527344 C 89.0157470703125 168.2576141357422 85.05694580078125 157.56906127929688 89.72520446777344 175.5531768798828" stroke-width="2.0" fill="none" stroke="rgb(0, 0, 0)" stroke-opacity="1" stroke-linecap="round" stroke-linejoin="round"/>
    <path d="M 65.30291748046875 135.0225372314453 C 83.43758392333984 123.82735443115234 68.9874038696289 130.141357421875 71.56800842285156 126.441162109375" stroke-width="2.0" fill="none" stroke="rgb(0, 0, 0)" stroke-opacity="1" stroke-linecap="round" stroke-linejoin="round"/>
    <path d="M 216.22006225585938 204.89401245117188 C 182.40493774414062 149.74996948242188 193.9812774658203 174.16561889648438 198.80592346191406 176.92164611816406 C 185.74838256835938 189.3651123046875 181.9454803466797 163.12545776367188 181.7262725830078 170.56651306152344 C 182.2794189453125 178.41329956054688 173.3054656982422 132.30123901367188 195.24591064453125 172.25045776367188" stroke-width="2.0" fill="none" stroke="rgb(0, 0, 0)" stroke-opacity="1" stroke-linecap="round" stroke-linejoin="round"/>
    <path d="M 12.740538597106934 69.78455352783203 C 8.492942810058594 31.327194213867188 24.850515365600586 32.62675094604492 25.909954071044922 60.441627502441406 C 24.089006423950195 16.278928756713867 12.682278633117676 1.6198521852493286 19.081409454345703 -23.792619705200195 C 26.447221755981445 20.60692024230957 28.611570358276367 5.178056240081787 19.755361557006836 9.718696594238281" stroke-width="2.0" fill="none" stroke="rgb(0, 0, 0)" stroke-opacity="1" stroke-linecap="round" stroke-linejoin="round"/>
    <path d="M 37.47489929199219 94.537841796875 C 62.02361297607422 130.47323608398438 69.5007095336914 121.24014282226562 45.40488815307617 81.17953491210938" stroke-width="2.0" fill="none" stroke="rgb(0, 0, 0)" stroke-opacity="1" stroke-linecap="round" stroke-linejoin="round"/>
    <path d="M 100.59880828857422 98.89305114746094 C 111.87306213378906 88.1978988647461 127.4089126586914 81.20913696289062 99.26253509521484 99.08821868896484 C 91.15640258789062 112.33626556396484 92.0666275024414 118.25773620605469 96.5055160522461 104.77765655517578" stroke-width="2.0" fill="none" stroke="rgb(0, 0, 0)" stroke-opacity="1" stroke-linecap="round" stroke-linejoin="round"/>
    <path d="M 140.58145141601562 21.312543869018555 C 119.81138610839844 9.178129196166992 127.95075225830078 40.682525634765625 138.5394287109375 36.156742095947266" stroke-width="2.0" fill="none" stroke="rgb(0, 0, 0)" stroke-opacity="1" stroke-linecap="round" stroke-linejoin="round"/>
    <path d="M 178.24864196777344 52.45170211791992 C 186.75926208496094 38.561580657958984 193.36021423339844 34.932857513427734 196.0811309814453 38.535213470458984 C 186.64646911621094 29.102861404418945 187.921630859375 40.66266632080078 211.01513671875 36.931121826171875" stroke-width="2.0" fill="none" stroke="rgb(0, 0, 0)" stroke-opacity="1" stroke-linecap="round" stroke-linejoin="round"/>
    <path d="M 16.65793228149414 53.76742172241211 C -0.09915754199028015 47.34379577636719 11.653791427612305 49.8003044128418 3.3501360416412354 35.97477340698242 C 2.667351484298706 56.815399169921875 3.1791937351226807 40.54779052734375 -9.587671279907227 43.91673278808594 C -21.2547607421875 30.45870018005371 0.3960738182067871 30.200481414794922 -2.5503671169281006 8.007658958435059" stroke-width="2.0" fill="none" stroke="rgb(0, 0, 0)" stroke-opacity="1" stroke-linecap="round" stroke-linejoin="round"/>
    <path d="M 94.68856811523438 92.90721130371094 C 129.396484375 87.70513153076172 108.71453094482422 106.89310455322266 95.90122985839844 116.24064636230469 C 69.25760650634766 109.25281524658203 69.03460693359375 114.47409057617188 78.08689880371094 121.269287109375" stroke-width="2.0" fill="none" stroke="rgb(0, 0, 0)" stroke-opacity="1" stroke-linecap="round" stroke-linejoin="round"/>
    <path d="M 70.43700408935547 76.2826156616211 C 69.16881561279297 51.45320129394531 46.53020477294922 71.5009765625 60.23890686035156 38.59809494018555 C 56.31973648071289 43.91880416870117 69.83885955810547 70.78373718261719 54.85811233520508 70.12372589111328 C 38.31999206542969 56.910400390625 63.34429931640625 51.71456527709961 72.4589614868164 60.75395202636719" stroke-width="2.0" fill="none" stroke="rgb(0, 0, 0)" stroke-opacity="1" stroke-linecap="round" stroke-linejoin="round"/>
    <path d="M 224.02931213378906 22.123889923095703 C 188.57806396484375 22.801851272583008 203.96182250976562 34.352333068847656 178.89691162109375 -0.9579803943634033" stroke-width="2.0" fill="none" stroke="rgb(0, 0, 0)" stroke-opacity="1" stroke-linecap="round" stroke-linejoin="round"/>
    <path d="M 238.32965087890625 132.56956481933594 C 205.19712829589844 152.8859405517578 226.22801208496094 171.40370178222656 233.8757781982422 122.18038940429688 C 233.15078735351562 105.40087890625 228.14675903320312 120.13706970214844 235.5470428466797 114.59185791015625" stroke-width="2.0" fill="none" stroke="rgb(0, 0, 0)" stroke-opacity="1" stroke-linecap="round" stroke-linejoin="round"/>
    <path d="M 164.0458526611328 113.37538146972656 C 200.6707305908203 118.19007873535156 183.58840942382812 98.87419128417969 180.3954315185547 131.13623046875" stroke-width="2.0" fill="none" stroke="rgb(0, 0, 0)" stroke-opacity="1" stroke-linecap="round" stroke-linejoin="round"/>
    <path d="M 233.24246215820312 32.40708923339844 C 207.03707885742188 44.0222282409668 208.5112762451172 31.458343505859375 214.1654052734375 24.7104434967041" stroke-width="2.0" fill="none" stroke="rgb(0, 0, 0)" stroke-opacity="1" stroke-linecap="round" stroke-linejoin="round"/>
    <path d="M 117.97026062011719 221.33523559570312 C 90.80554962158203 200.05075073242188 106.98735046386719 218.30479431152344 116.40872955322266 234.31675720214844" stroke-width="2.0" fill="none" stroke="rgb(0, 0, 0)" stroke-opacity="1" stroke-linecap="round" stroke-linejoin="round"/>
    <path d="M 156.2239532470703 63.018165588378906 C 170.86624145507812 82.74324035644531 167.10513305664062 91.5313491821289 168.5157012939453 78.8386459350586" stroke-width="2.0" fill="none" stroke="rgb(0, 0, 0)" stroke-opacity="1" stroke-linecap="round" stroke-linejoin="round"/>
    <path d="M 70.97754669189453 185.70932006835938 C 90.05415344238281 146.99700927734375 93.87479400634766 178.4986114501953 72.22930908203125 202.09034729003906 C 86.26849365234375 191.66201782226562 81.17977905273438 183.75576782226562 75.83789825439453 168.45628356933594" stroke-width="2.0" fill="none" stroke="rgb(0, 0, 0)" stroke-opacity="1" stroke-linecap="round" stroke-linejoin="round"/>
    <path d="M 161.53770446777344 60.79859924316406 C 192.29417419433594 51.780914306640625 154.2947540283203 47.66347122192383 166.91229248046875 31.543964385986328" stroke-width="2.0" fill="none" stroke="rgb(0, 0, 0)" stroke-opacity="1" stroke-linecap="round" stroke-linejoin="round"/>
    <path d="M 141.52093505859375 200.63616943359375 C 137.2082061767578 163.83462524414062 117.79470825195312 164.8529815673828 140.04354858398438 158.97959899902344 C 153.9589385986328 182.09555053710938 145.26821899414062 162.69407653808594 151.02688598632812 172.95155334472656 C 164.77435302734375 206.1347198486328 155.57131958007812 200.87074279785156 174.5828857421875 186.86083984375" stroke-width="2.0" fill="none" stroke="rgb(0, 0, 0)" stroke-opacity="1" stroke-linecap="round" stroke-linejoin="round"/>
    <path d="M 111.4589614868164 23.13404655456543 C 115.67999267578125 22.997333526611328 81.4209213256836 -13.883557319641113 105.93997955322266 -2.4850330352783203" stroke-width="2.0" fill="none" stroke="rgb(0, 0, 0)" stroke-opacity="1" stroke-linecap="round" stroke-linejoin="round"/>
    <path d="M 118.92330932617188 124.36556243896484 C 161.36337280273438 111.42692565917969 174.00823974609375 105.51302337646484 139.2837677001953 122.90027618408203" stroke-width="2.0" fill="none" stroke="rgb(0, 0, 0)" stroke-opacity="1" stroke-linecap="round" stroke-linejoin="round"/>
    <path d="M 19.797346115112305 13.630196571350098 C 18.34463882446289 43.4692268371582 41.08864212036133 25.12613868713379 27.123716354370117 14.355781555175781" stroke-width="2.0" fill="none" stroke="rgb(0, 0, 0)" stroke-opacity="1" stroke-linecap="round" stroke-linejoin="round"/>
    <path d="M 89.72830963134766 161.7434539794922 C 61.82105255126953 202.09292602539062 47.796348571777344 190.73910522460938 75.78193664550781 214.9291229248047" stroke-width="2.0" fill="none" stroke="rgb(0, 0, 0)" stroke-opacity="1" stroke-linecap="round" stroke-linejoin="round"/>
    <path d="M 88.82217407226562 154.70286560058594 C 99.12367248535156 126.38566589355469 123.38216400146484 125.58230590820312 127.11095428466797 145.73619079589844" stroke-width="2.0" fill="none" stroke="rgb(0, 0, 0)" stroke-opacity="1" stroke-linecap="round" stroke-linejoin="round"/>
    <path d="M 79.94635009765625 -3.012979507446289 C 88.7013931274414 48.726463317871094 73.59504699707031 16.87056541442871 79.32769775390625 -16.15422248840332 C 44.49076843261719 -7.6321024894714355 36.146976470947266 -2.1350221633911133 61.28512191772461 43.19243621826172" stroke-width="2.0" fill="none" stroke="rgb(0, 0, 0)" stroke-opacity="1" stroke-linecap="round" stroke-linejoin="round"/>
    <path d="M 190.3715057373047 75.0870361328125 C 188.66259765625 4.0166521072387695 191.65625 39.84307861328125 168.45809936523438 57.446441650390625 C 164.94935607910156 69.1789321899414 168.70375061035156 57.656558990478516 160.3109893798828 51.49324417114258 C 165.2643585205078 53.16710662841797 147.93292236328125 76.63042449951172 139.62591552734375 53.80327606201172" stroke-width="2.0" fill="none" stroke="rgb(0, 0, 0)" stroke-opacity="1" stroke-linecap="round" stroke-linejoin="round"/>
    <path d="M 48.047157287597656 84.1747055053711 C 16.896589279174805 98.76084899902344 20.526443481445312 109.81920623779297 13.208702087402344 116.33922576904297 C 19.718231201171875 129.31813049316406 27.68927574157715 116.49498748779297 13.55194091796875 112.55705261230469 C 47.49362564086914 68.735595703125 54.84282302856445 78.51286315917969 44.58653259277344 72.91278839111328" stroke-width="2.0" fill="none" stroke="rgb(0, 0, 0)" stroke-opacity="1" stroke-linecap="round" stroke-linejoin="round"/>
    <path d="M 220.87193298339844 197.3148193359375 C 243.5607147216797 190.3802490234375 248.73411560058594 193.07704162597656 200.9296417236328 192.0508575439453 C 206.50198364257812 184.14898681640625 216.5435333251953 204.6781768798828 186.9672393798828 162.98402404785156" stroke-width="2.0" fill="none" stroke="rgb(0, 0, 0)" stroke-opacity="1" stroke-linecap="round" stroke-linejoin="round"/>
    <path d="M 51.81032943725586 154.6421661376953 C 17.388145446777344 187.3525390625 22.846908569335938 175.9501953125 30.53101348876953 182.01168823242188" stroke-width="2.0" fill="none" stroke="rgb(0, 0, 0)" stroke-opacity="1" stroke-linecap="round" stroke-linejoin="round"/>
    <path d="M 191.41815185546875 130.80477905273438 C 191.81748962402344 57.66171646118164 189.9464569091797 65.50154113769531 189.45947265625 102.7983169555664 C 189.9387969970703 66.14551544189453 194.9227752685547 42.682064056396484 189.0717315673828 58.72188949584961" stroke-width="2.0" fill="none" stroke="rgb(0, 0, 0)" stroke-opacity="1" stroke-linecap="round" stroke-linejoin="round"/>
    <path d="M 119.93342590332031 30.22808074951172 C 139.05174255371094 20.51403045654297 138.69415283203125 38.64271926879883 144.54066467285156 41.63704299926758 C 158.66094970703125 49.202308654785156 150.702392578125 71.21981811523438 169.91334533691406 47.26080322265625 C 143.96600341796875 6.440812110900879 163.9595184326172 35.50112533569336 134.77964782714844 49.49640655517578" stroke-width="2.0" fill="none" stroke="rgb(0, 0, 0)" stroke-opacity="1" stroke-linecap="round" stroke-linejoin="round"/>
    <path d="M 141.0327911376953 64.03743743896484 C 137.2935791015625 84.39594268798828 148.2694091796875 105.05705261230469 153.97767639160156 85.68000030517578 C 140.1867218017578 61.75279998779297 153.79750061035156 64.49401092529297 136.72378540039062 74.8299789428711 C 125.84264373779297 83.8482894897461 144.17282104492188 79.24388122558594 133.6381378173828 75.14051055908203" stroke-width="2.0" fill="none" stroke="rgb(0, 0, 0)" stroke-opacity="1" stroke-linecap="round" stroke-linejoin="round"/>
    <path d="M 223.40078735351562 182.777587890625 C 239.2498321533203 188.69482421875 247.2767791748047 180.9339141845703 250.28660583496094 183.7017059326172 C 245.82437133789062 171.41033935546875 240.72686767578125 175.48411560058594 232.6767578125 170.31838989257812" stroke-width="2.0" fill="none" stroke="rgb(0, 0, 0)" stroke-opacity="1" stroke-linecap="round" stroke-linejoin="round"/>
    <path d="M 101.21694946289062 207.4780731201172 C 84.20154571533203 181.7364959716797 107.09539031982422 226.0960235595703 97.8711929321289 203.1183319091797 C 89.31863403320312 186.70904541015625 97.35511779785156 203.53952026367188 78.99375915527344 177.68479919433594" stroke-width="2.0" fill="none" stroke="rgb(0, 0, 0)" stroke-opacity="1" stroke-linecap="round" stroke-linejoin="round"/>
    <path d="M 118.56818389892578 35.960655212402344 C 94.08199310302734 60.476444244384766 91.59288024902344 64.18115234375 115.48307800292969 67.78982543945312 C 101.43272399902344 41.18655014038086 103.71310424804688 53.08102035522461 82.7017822265625 73.14596557617188 C 62.50011444091797 96.89006805419922 37.76493835449219 66.64022827148438 64.51640319824219 63.08827590942383" stroke-width="2.0" fill="none" stroke="rgb(0, 0, 0)" stroke-opacity="1" stroke-linecap="round" stroke-linejoin="round"/>
    <path d="M 70.94143676757812 179.9234161376953 C 49.41825866699219 217.01345825195312 26.052207946777344 217.7410430908203 26.389616012573242 239.0518035888672" stroke-width="2.0" fill="none" stroke="rgb(0, 0, 0)" stroke-opacity="1" stroke-linecap="round" stroke-linejoin="round"/>
    <path d="M 49.96327209472656 31.72530746459961 C 57.37507247924805 49.46379852294922 48.01565170288086 16.01842498779297 47.739898681640625 1.7014473676681519 C 63.13402557373047 59.24740219116211 51.0823974609375 60.27500534057617 46.24897766113281 13.840973854064941 C 39.61333465576172 -6.816003799438477 50.06169891357422 11.473307609558105 47.36488723754883 7.426422119140625" stroke-width="2.0" fill="none" stroke="rgb(0, 0, 0)" stroke-opacity="1" stroke-linecap="round" stroke-linejoin="round"/>
    <path d="M 180.53758239746094 71.51205444335938 C 194.3950653076172 39.11235046386719 211.00685119628906 76.75005340576172 190.36337280273438 79.1453628540039" stroke-width="2.0" fill="none" stroke="rgb(0, 0, 0)" stroke-opacity="1" stroke-linecap="round" stroke-linejoin="round"/>
    <path d="M 58.92335510253906 88.25267791748047 C 74.3628921508789 75.62249755859375 90.27375030517578 66.30435180664062 86.88442993164062 53.88450241088867" stroke-width="2.0" fill="none" stroke="rgb(0, 0, 0)" stroke-opacity="1" stroke-linecap="round" stroke-linejoin="round"/>
    <path d="M 88.25320434570312 50.80572509765625 C 109.11664581298828 60.72279357910156 125.67894744873047 83.66259002685547 124.87151336669922 85.36165618896484 C 113.15602111816406 76.29415130615234 113.40554809570312 110.47282409667969 111.95431518554688 68.2384033203125 C 131.18701171875 76.85166931152344 119.5965805053711 85.74781036376953 80.51567077636719 113.29331970214844" stroke-width="2.0" fill="none" stroke="rgb(0, 0, 0)" stroke-opacity="1" stroke-linecap="round" stroke-linejoin="round"/>
    <path d="M 52.51647186279297 94.22406768798828 C 40.249061584472656 121.30207061767578 16.70461082458496 125.52666473388672 28.599803924560547 124.26663970947266 C 33.05609130859375 117.15141296386719 21.37420082092285 114.74251556396484 24.096954345703125 131.70065307617188" stroke-width="2.0" fill="none" stroke="rgb(0, 0, 0)" stroke-opacity="1" stroke-linecap="round" stroke-linejoin="round"/>
    <path d="M 25.219350814819336 103.29230499267578 C -5.238254547119141 130.62420654296875 -5.629676342010498 131.46005249023438 -9.688965797424316 101.77171325683594" stroke-width="2.0" fill="none" stroke="rgb(0, 0, 0)" stroke-opacity="1" stroke-linecap="round" stroke-linejoin="round"/>
    <path d="M 207.7927703857422 89.84662628173828 C 205.12750244140625 182.71759033203125 216.26974487304688 161.11502075195312 217.04714965820312 46.5180549621582 C 205.98779296875 97.44829559326172 198.60781860351562 87.94133758544922 231.22361755371094 82.42217254638672 C 233.87435913085938 99.3248062133789 237.8598175048828 99.95137023925781 237.22581481933594 102.2826919555664" stroke-width="2.0" fill="none" stroke="rgb(0, 0, 0)" stroke-opacity="1" stroke-linecap="round" stroke-linejoin="round"/>
    <path d="M 141.19583129882812 13.263771057128906 C 158.6658477783203 1.1999703645706177 162.2332000732422 -3.515681505203247 130.91546630859375 -19.524166107177734 C 130.11753845214844 10.022436141967773 113.86197662353516 5.298549652099609 106.03120422363281 -6.619579792022705" stroke-width="2.0" fill="none" stroke="rgb(0, 0, 0)" stroke-opacity="1" stroke-linecap="round" stroke-linejoin="round"/>
    <path d="M 68.8079605102539 180.7202606201172 C 84.26465606689453 156.87278747558594 98.34352111816406 155.57879638671875 99.9229965209961 126.99494171142578 C 98.9240493774414 134.7693328857422 90.46186065673828 110.37965393066406 100.56278991699219 129.22808837890625 C 78.95498657226562 113.76941680908203 88.0168228149414 114.76708221435547 89.2264175415039 128.74842834472656" stroke-width="2.0" fill="none" stroke="rgb(0, 0, 0)" stroke-opacity="1" stroke-linecap="round" stroke-linejoin="round"/>
    <path d="M 180.90902709960938 159.59536743164062 C 195.73709106445312 163.08876037597656 166.23207092285156 134.70223999023438 177.9342498779297 140.7584686279297 C 151.66197204589844 175.141357421875 148.84716796875 168.54196166992188 162.41552734375 157.524658203125" stroke-width="2.0" fill="none" stroke="rgb(0, 0, 0)" stroke-opacity="1" stroke-linecap="round" stroke-linejoin="round"/>
    <path d="M 113.07305145263672 100.9891128540039 C 120.58419036865234 118.86801147460938 107.72686767578125 102.0233383178711 102.75585174560547 93.53690338134766" stroke-width="2.0" fill="none" stroke="rgb(0, 0, 0)" stroke-opacity="1" stroke-linecap="round" stroke-linejoin="round"/>
    <path d="M 155.16534423828125 133.290771484375 C 186.3893280029297 168.5332794189453 190.34722900390625 174.82054138183594 167.60731506347656 151.2837677001953 C 140.21987915039062 123.92340087890625 168.75315856933594 139.9635009765625 139.2056427001953 139.66268920898438 C 162.267578125 168.20147705078125 150.59539794921875 145.90032958984375 171.9571533203125 132.57009887695312" stroke-width="2.0" fill="none" stroke="rgb(0, 0, 0)" stroke-opacity="1" stroke-linecap="round" stroke-linejoin="round"/>
    <path d="M 113.06282043457031 51.31639099121094 C 105.41476440429688 36.51966094970703 103.80350494384766 43.94624328613281 101.34345245361328 56.3076286315918 C 111.20414733886719 54.94510269165039 93.74517059326172 49.801998138427734 98.7594985961914 56.83403778076172 C 106.2591552734375 53.80261993408203 115.95909881591797 38.34278106689453 99.08718872070312 52.77298355102539" stroke-width="2.0" fill="none" stroke="rgb(0, 0, 0)" stroke-opacity="1" stroke-linecap="round" stroke-linejoin="round"/>
    <path d="M 24.61008644104004 118.92790985107422 C 42.68427658081055 112.56717681884766 46.728633880615234 104.7562484741211 42.26600646972656 114.85913848876953" stroke-width="2.0" fill="none" stroke="rgb(0, 0, 0)" stroke-opacity="1" stroke-linecap="round" stroke-linejoin="round"/>
    <path d="M 106.03410339355469 213.87794494628906 C 132.08082580566406 236.01951599121094 93.58232116699219 204.76101684570312 92.6778564453125 219.0020294189453 C 121.22823333740234 202.1804656982422 103.3248519897461 234.55810546875 108.68377685546875 214.20223999023438 C 134.32904052734375 226.39324951171875 110.8224105834961 212.8805389404297 105.0009536743164 209.05088806152344" stroke-width="2.0" fill="none" stroke="rgb(0, 0, 0)" stroke-opacity="1" stroke-linecap="round" stroke-linejoin="round"/>
    <path d="M 175.6390380859375 42.03056335449219 C 159.40518188476562 59.283729553222656 152.1571502685547 43.308570861816406 160.49205017089844 44.85405731201172 C 163.24905395507812 56.36977005004883 187.8882293701172 41.60854721069336 176.12306213378906 42.50606155395508" stroke-width="2.0" fill="none" stroke="rgb(0, 0, 0)" stroke-opacity="1" stroke-linecap="round" stroke-linejoin="round"/>
    <path d="M 209.65777587890625 -9.274847030639648 C 204.79177856445312 4.415708541870117 200.51295471191406 -7.418251037597656 210.44578552246094 -19.33864402770996 C 225.0771484375 -16.7586669921875 225.66494750976562 -27.160938262939453 236.85263061523438 -20.179471969604492 C 246.427490234375 -13.370871543884277 238.07034301757812 -9.556404113769531 229.5672607421875 -19.847469329833984" stroke-width="2.0" fill="none" stroke="rgb(0, 0, 0)" stroke-opacity="1" stroke-linecap="round" stroke-linejoin="round"/>
    <path d="M 99.6789321899414 109.39946746826172 C 77.75751495361328 125.3993148803711 111.88237762451172 104.73678588867188 88.36805725097656 122.82476806640625" stroke-width="2.0" fill="none" stroke="rgb(0, 0, 0)" stroke-opacity="1" stroke-linecap="round" stroke-linejoin="round"/>
    <path d="M 162.1798553466797 118.3812026977539 C 133.46519470214844 125.32442474365234 145.12118530273438 145.64688110351562 152.34535217285156 126.56575775146484 C 148.5909881591797 123.94905090332031 143.01393127441406 147.52931213378906 155.91305541992188 126.12874603271484" stroke-width="2.0" fill="none" stroke="rgb(0, 0, 0)" stroke-opacity="1" stroke-linecap="round" stroke-linejoin="round"/>
    <path d="M 163.78355407714844 221.26161193847656 C 148.60154724121094 195.87899780273438 146.6262664794922 188.1817169189453 174.1385498046875 216.75640869140625" stroke-width="2.0" fill="none" stroke="rgb(0, 0, 0)" stroke-opacity="1" stroke-linecap="round" stroke-linejoin="round"/>
    <path d="M 36.816566467285156 83.54832458496094 C 56.27397918701172 100.54168701171875 62.44725799560547 89.8168716430664 62.228763580322266 89.70942687988281 C 61.066184997558594 84.07685089111328 81.01557159423828 51.00646209716797 84.38140869140625 65.86402130126953" stroke-width="2.0" fill="none" stroke="rgb(0, 0, 0)" stroke-opacity="1" stroke-linecap="round" stroke-linejoin="round"/>
    <path d="M 62.68751525878906 125.35482025146484 C 88.65892791748047 139.79129028320312 74.67989349365234 143.03900146484375 60.57546615600586 153.04898071289062 C 76.88713836669922 197.5238800048828 96.58516693115234 166.28802490234375 70.31707000732422 143.63380432128906" stroke-width="2.0" fill="none" stroke="rgb(0, 0, 0)" stroke-opacity="1" stroke-linecap="round" stroke-linejoin="round"/>
    <path d="M 132.03306579589844 147.82501220703125 C 120.56108856201172 161.60894775390625 131.451904296875 156.86383056640625 108.28997039794922 150.1175994873047" stroke-width="2.0" fill="none" stroke="rgb(0, 0, 0)" stroke-opacity="1" stroke-linecap="round" stroke-linejoin="round"/>
    <path d="M 89.5796890258789 21.51204490661621 C 85.04386901855469 27.377885818481445 79.6142578125 -14.562525749206543 82.26602935791016 -34.40929412841797 C 47.92439651489258 -19.049854278564453 43.626861572265625 -9.92298412322998 40.99477767944336 -7.232609748840332" stroke-width="2.0" fill="none" stroke="rgb(0, 0, 0)" stroke-opacity="1" stroke-linecap="round" stroke-linejoin="round"/>
    <path d="M -11.688759803771973 68.42610168457031 C -1.969079852104187 89.17433166503906 -3.584779977798462 81.62969207763672 7.507842063903809 103.65574645996094 C -24.0653018951416 78.54815673828125 -15.519826889038086 71.95399475097656 -3.98215913772583 99.30509948730469" stroke-width="2.0" fill="none" stroke="rgb(0, 0, 0)" stroke-opacity="1" stroke-linecap="round" stroke-linejoin="round"/>
    <path d="M 46.549476623535156 139.5176239013672 C 61.27461624145508 144.8321533203125 58.868282318115234 139.4528350830078 32.2568244934082 161.68272399902344" stroke-width="2.0" fill="none" stroke="rgb(0, 0, 0)" stroke-opacity="1" stroke-linecap="round" stroke-linejoin="round"/>
    <path d="M 154.90084838867188 166.0514373779297 C 154.23570251464844 176.88876342773438 155.54922485351562 157.3181915283203 179.2543487548828 137.32647705078125 C 179.06639099121094 158.87147521972656 162.5618896484375 157.24322509765625 154.6231231689453 135.00650024414062 C 168.8787841796875 123.70067596435547 141.0843505859375 154.39414978027344 169.5956573486328 128.71896362304688" stroke-width="2.0" fill="none" stroke="rgb(0, 0, 0)" stroke-opacity="1" stroke-linecap="round" stroke-linejoin="round"/>
    <path d="M 61.788639068603516 86.76763153076172 C 52.85161209106445 101.33573150634766 36.565128326416016 123.19091033935547 41.87662124633789 102.85920715332031 C 33.107810974121094 106.41244506835938 55.10689926147461 114.60773468017578 32.24911880493164 106.79181671142578" stroke-width="2.0" fill="none" stroke="rgb(0, 0, 0)" stroke-opacity="1" stroke-linecap="round" stroke-linejoin="round"/>
    <path d="M 191.00257873535156 60.66176223754883 C 186.4534912109375 159.17312622070312 185.55274963378906 139.79054260253906 190.23460388183594 61.88764572143555 C 227.2869110107422 41.70658493041992 212.04844665527344 42.67351150512695 214.5152130126953 70.57899475097656 C 216.3185272216797 77.74081420898438 210.0191192626953 103.86940002441406 225.84568786621094 86.30157470703125" stroke-width="2.0" fill="none" stroke="rgb(0, 0, 0)" stroke-opacity="1" stroke-linecap="round" stroke-linejoin="round"/>
    <path d="M -9.206101417541504 187.13467407226562 C -3.241734743118286 185.00669860839844 -21.86101722717285 196.99505615234375 10.500629425048828 214.3995361328125 C -3.4391467571258545 181.50982666015625 -10.961786270141602 186.77452087402344 7.058917045593262 208.79808044433594" stroke-width="2.0" fill="none" stroke="rgb(0, 0, 0)" stroke-opacity="1" stroke-linecap="round" stroke-linejoin="round"/>
    <path d="M 229.3237762451172 157.946533203125 C 220.1703643798828 173.044677734375 228.4492950439453 148.96856689453125 228.4153289794922 150.68788146972656" stroke-width="2.0" fill="none" stroke="rgb(0, 0, 0)" stroke-opacity="1" stroke-linecap="round" stroke-linejoin="round"/>
    <path d="M 211.00192260742188 209.7772216796875 C 183.76344299316406 163.6020050048828 175.81993103027344 167.05299377441406 181.1842498779297 169.69851684570312" stroke-width="2.0" fill="none" stroke="rgb(0, 0, 0)" stroke-opacity="1" stroke-linecap="round" stroke-linejoin="round"/>
    <path d="M 118.21549987792969 174.2601776123047 C 108.68899536132812 157.3006134033203 99.7498550415039 186.49581909179688 107.15721130371094 170.11204528808594 C 123.0110092163086 182.89122009277344 126.65101623535156 182.03115844726562 110.86087799072266 173.95950317382812" stroke-width="2.0" fill="none" stroke="rgb(0, 0, 0)" stroke-opacity="1" stroke-linecap="round" stroke-linejoin="round"/>
    <path d="M -0.6580138206481934 111.2630844116211 C 35.75590133666992 89.74595642089844 30.83083152770996 81.6409912109375 16.02762794494629 111.23345947265625 C 6.622481346130371 100.87317657470703 11.785673141479492 107.24003601074219 34.788543701171875 95.91616821289062" stroke-width="2.0" fill="none" stroke="rgb(0, 0, 0)" stroke-opacity="1" stroke-linecap="round" stroke-linejoin="round"/>
    <path d="M 44.77432632446289 148.7384033203125 C 56.69024658203125 137.30970764160156 70.62035369873047 129.18556213378906 45.847591400146484 140.68263244628906 C 46.853031158447266 135.3743438720703 34.20252990722656 136.22352600097656 55.66181182861328 143.5016632080078 C 38.32883834838867 135.56951904296875 59.80268478393555 153.7469024658203 65.07121276855469 129.22341918945312" stroke-width="2.0" fill="none" stroke="rgb(0, 0, 0)" stroke-opacity="1" stroke-linecap="round" stroke-linejoin="round"/>
    <path d="M 143.3519287109375 121.90943145751953 C 125.35054779052734 102.40943908691406 104.16049194335938 79.08428955078125 109.43866729736328 101.99179077148438" stroke-width="2.0" fill="none" stroke="rgb(0, 0, 0)" stroke-opacity="1" stroke-linecap="round" stroke-linejoin="round"/>
    <path d="M 104.93232727050781 51.31732177734375 C 70.25025177001953 69.13107299804688 81.7168960571289 86.427734375 70.44384765625 47.91630172729492" stroke-width="2.0" fill="none" stroke="rgb(0, 0, 0)" stroke-opacity="1" stroke-linecap="round" stroke-linejoin="round"/>
    <path d="M 100.26632690429688 141.58038330078125 C 108.1729736328125 138.4811553955078 103.86470794677734 155.7869110107422 122.258544921875 132.67176818847656" stroke-width="2.0" fill="none" stroke="rgb(0, 0, 0)" stroke-opacity="1" stroke-linecap="round" stroke-linejoin="round"/>
    <path d="M 139.77024841308594 35.542991638183594 C 144.90182495117188 45.97704315185547 145.48916625976562 47.56125259399414 142.1937713623047 38.57928466796875 C 146.82386779785156 49.01701354980469 132.75144958496094 49.545345306396484 147.0888214111328 42.24539566040039 C 154.4847412109375 18.87248992919922 160.58877563476562 31.612348556518555 144.90574645996094 9.010467529296875" stroke-width="2.0" fill="none" stroke="rgb(0, 0, 0)" stroke-opacity="1" stroke-linecap="round" stroke-linejoin="round"/>
    <path d="M 63.199668884277344 192.07318115234375 C 69.0524673461914 188.9730682373047 63.82319259643555 193.972900390625 53.753963470458984 201.8009490966797 C 22.135513305664062 228.7998504638672 72.71427917480469 181.490478515625 66.66092681884766 178.90834045410156" stroke-width="2.0" fill="none" stroke="rgb(0, 0, 0)" stroke-opacity="1" stroke-linecap="round" stroke-linejoin="round"/>
    <path d="M 167.86485290527344 228.5768280029297 C 164.6934051513672 215.1467742919922 179.7344207763672 226.7540283203125 180.77175903320312 240.11590576171875" stroke-width="2.0" fill="none" stroke="rgb(0, 0, 0)" stroke-opacity="1" stroke-linecap="round" stroke-linejoin="round"/>
    <path d="M 48.1307373046875 153.65089416503906 C 54.53937911987305 170.14036560058594 59.861270904541016 149.07986450195312 47.30031204223633 156.53660583496094" stroke-width="2.0" fill="none" stroke="rgb(0, 0, 0)" stroke-opacity="1" stroke-linecap="round" stroke-linejoin="round"/>
    <path d="M 199.720947265625 130.0391845703125 C 202.0584716796875 63.90402603149414 198.39732360839844 62.4799690246582 199.34031677246094 135.45623779296875 C 211.41744995117188 47.616310119628906 212.18077087402344 5.2021918296813965 207.9464874267578 39.25050354003906 C 202.0531463623047 42.60546112060547 213.69003295898438 77.92676544189453 208.0274200439453 67.96920013427734" stroke-width="2.0" fill="none" stroke="rgb(0, 0, 0)" stroke-opacity="1" stroke-linecap="round" stroke-linejoin="round"/>
    <path d="M 7.445366859436035 190.06918334960938 C 53.02455139160156 193.8615264892578 23.81588363647461 195.1325225830078 4.910302639007568 191.4872283935547 C 33.238460540771484 170.01060485839844 19.859121322631836 183.01731872558594 -9.587867736816406 199.40403747558594 C -10.032320976257324 201.85301208496094 -6.623672008514404 233.53358459472656 -1.192554235458374 180.03302001953125" stroke-width="2.0" fill="none" stroke="rgb(0, 0, 0)" stroke-opacity="1" stroke-linecap="round" stroke-linejoin="round"/>
    <path d="M 22.44087791442871 124.32827758789062 C 8.034269332885742 141.6578369140625 25.1466064453125 130.24734497070312 6.40929651260376 134.48484802246094 C 14.99432373046875 142.9085235595703 13.815868377685547 152.22068786621094 27.979209899902344 140.9548797607422 C 19.431922912597656 157.8821563720703 29.107135772705078 129.06716918945312 39.72607421875 147.6767120361328" stroke-width="2.0" fill="none" stroke="rgb(0, 0, 0)" stroke-opacity="1" stroke-linecap="round" stroke-linejoin="round"/>
    <path d="M 131.27529907226562 194.52603149414062 C 154.38619995117188 163.02915954589844 170.0090789794922 153.52117919921875 133.43075561523438 146.5218963623047" stroke-width="2.0" fill="none" stroke="rgb(0, 0, 0)" stroke-opacity="1" stroke-linecap="round" stroke-linejoin="round"/>
    <path d="M 0.657870352268219 170.25917053222656 C 6.654351234436035 155.78170776367188 -22.09612464904785 173.47491455078125 -11.689167022705078 178.01309204101562 C -11.694567680358887 154.05853271484375 -22.52190399169922 144.36825561523438 -30.927589416503906 141.40707397460938" stroke-width="2.0" fill="none" stroke="rgb(0, 0, 0)" stroke-opacity="1" stroke-linecap="round" stroke-linejoin="round"/>
    <path d="M 87.91309356689453 64.70906066894531 C 89.55632781982422 53.69378662109375 92.78175354003906 42.311607360839844 117.76765441894531 33.33708953857422" stroke-width="2.0" fill="none" stroke="rgb(0, 0, 0)" stroke-opacity="1" stroke-linecap="round" stroke-linejoin="round"/>
    <path d="M 101.66019439697266 52.58579635620117 C 88.92687225341797 61.30549240112305 71.25566864013672 65.02521514892578 84.12858581542969 82.99017333984375" stroke-width="2.0" fill="none" stroke="rgb(0, 0, 0)" stroke-opacity="1" stroke-linecap="round" stroke-linejoin="round"/>
    <path d="M 149.63848876953125 100.92495727539062 C 137.7949981689453 108.31635284423828 144.10888671875 89.37992858886719 150.2484588623047 100.39479064941406" stroke-width="2.0" fill="none" stroke="rgb(0, 0, 0)" stroke-opacity="1" stroke-linecap="round" stroke-linejoin="round"/>
    <path d="M 182.66970825195312 43.414031982421875 C 170.00823974609375 35.25520324707031 187.74154663085938 61.44007110595703 188.48330688476562 60.80854797363281" stroke-width="2.0" fill="none" stroke="rgb(0, 0, 0)" stroke-opacity="1" stroke-linecap="round" stroke-linejoin="round"/>
    <path d="M 81.58443450927734 138.99002075195312 C 114.3279800415039 139.91014099121094 107.78670501708984 126.79448699951172 99.18115997314453 117.13561248779297 C 114.87374877929688 154.7445526123047 118.02761840820312 146.32432556152344 86.2928237915039 170.34783935546875" stroke-width="2.0" fill="none" stroke="rgb(0, 0, 0)" stroke-opacity="1" stroke-linecap="round" stroke-linejoin="round"/>
    <path d="M 87.40357208251953 106.55009460449219 C 76.27144622802734 109.25969696044922 97.17350769042969 129.99122619628906 64.46082305908203 130.90260314941406 C 91.30391693115234 105.44381713867188 117.27449798583984 103.51030731201172 101.45210266113281 104.079833984375" stroke-width="2.0" fill="none" stroke="rgb(0, 0, 0)" stroke-opacity="1" stroke-linecap="round" stroke-linejoin="round"/>
    <path d="M 116.52912139892578 81.87020111083984 C 79.82345581054688 107.61347198486328 67.51570129394531 126.59364318847656 52.719200134277344 142.58753967285156 C 75.23841857910156 136.91143798828125 75.84964752197266 117.90692901611328 98.77811431884766 107.03824615478516" stroke-width="2.0" fill="none" stroke="rgb(0, 0, 0)" stroke-opacity="1" stroke-linecap="round" stroke-linejoin="round"/>
    <path d="M 139.60043334960938 114.30653381347656 C 112.74891662597656 126.00337982177734 131.7368621826172 94.0527114868164 142.69583129882812 111.7757797241211" stroke-width="2.0" fill="none" stroke="rgb(0, 0, 0)" stroke-opacity="1" stroke-linecap="round" stroke-linejoin="round"/>
    <path d="M 120.8239974975586 42.321693420410156 C 103.3754653930664 21.410493850708008 124.53064727783203 36.20453643798828 149.84194946289062 9.653877258300781" stroke-width="2.0" fill="none" stroke="rgb(0, 0, 0)" stroke-opacity="1" stroke-linecap="round" stroke-linejoin="round"/>
    <path d="M 60.895957946777344 89.54574584960938 C 90.81149291992188 49.093238830566406 85.660888671875 87.81373596191406 67.52201843261719 49.00642013549805 C 96.22178649902344 58.9802360534668 74.12016296386719 71.52146911621094 48.875850677490234 95.77347564697266" stroke-width="2.0" fill="none" stroke="rgb(0, 0, 0)" stroke-opacity="1" stroke-linecap="round" stroke-linejoin="round"/>
    <path d="M 43.5603141784668 24.02766990661621 C 37.779762268066406 -4.909198760986328 32.37675094604492 -9.916214942932129 47.23682403564453 -11.235207557678223 C 57.375335693359375 28.799348831176758 61.09514236450195 37.955726623535156 58.08794403076172 40.17265319824219 C 49.64187240600586 17.60645294189453 59.7720947265625 27.768529891967773 54.873817443847656 29.303112030029297" stroke-width="2.0" fill="none" stroke="rgb(0, 0, 0)" stroke-opacity="1" stroke-linecap="round" stroke-linejoin="round"/>
    <path d="M 9.372190475463867 5.849355697631836 C 14.656486511230469 28.625446319580078 14.777643203735352 24.730661392211914 13.969169616699219 50.33040237426758 C 12.59916877746582 42.592681884765625 18.830347061157227 27.56281089782715 14.270651817321777 69.57673645019531" stroke-width="2.0" fill="none" stroke="rgb(0, 0, 0)" stroke-opacity="1" stroke-linecap="round" stroke-linejoin="round"/>
    <path d="M 177.82469177246094 74.11094665527344 C 178.6717987060547 86.15985107421875 181.71884155273438 116.1901626586914 178.5169219970703 90.99596405029297 C 196.30616760253906 65.97726440429688 195.52508544921875 102.50053405761719 174.27328491210938 103.42777252197266" stroke-width="2.0" fill="none" stroke="rgb(0, 0, 0)" stroke-opacity="1" stroke-linecap="round" stroke-linejoin="round"/>
    <path d="M 148.80648803710938 130.14390563964844 C 136.3294677734375 121.97173309326172 141.53663635253906 112.89556884765625 160.8468780517578 115.6119384765625 C 151.72607421875 103.34447479248047 167.18740844726562 115.42835998535156 147.64254760742188 118.45443725585938 C 128.5599822998047 141.80783081054688 111.7761459350586 128.0018310546875 126.61294555664062 142.50625610351562" stroke-width="2.0" fill="none" stroke="rgb(0, 0, 0)" stroke-opacity="1" stroke-linecap="round" stroke-linejoin="round"/>
    <path d="M 74.52424621582031 48.35863494873047 C 73.93071746826172 44.849449157714844 78.72469329833984 74.65320587158203 105.94799041748047 45.95091247558594" stroke-width="2.0" fill="none" stroke="rgb(0, 0, 0)" stroke-opacity="1" stroke-linecap="round" stroke-linejoin="round"/>
    <path d="M -10.267374038696289 64.13670349121094 C -6.7920074462890625 57.56195831298828 17.529512405395508 65.21705627441406 -2.3735997676849365 66.49536895751953" stroke-width="2.0" fill="none" stroke="rgb(0, 0, 0)" stroke-opacity="1" stroke-linecap="round" stroke-linejoin="round"/>
    <path d="M 217.59979248046875 40.70380401611328 C 184.17674255371094 37.5175895690918 202.08262634277344 42.095298767089844 215.14645385742188 -3.2754361629486084" stroke-width="2.0" fill="none" stroke="rgb(0, 0, 0)" stroke-opacity="1" stroke-linecap="round" stroke-linejoin="round"/>
    <path d="M 99.61885070800781 61.570960998535156 C 114.66455841064453 29.514739990234375 112.22667694091797 62.678619384765625 97.8602066040039 49.89035415649414 C 86.17890167236328 49.416290283203125 103.68612670898438 53.980342864990234 99.73715209960938 60.84002685546875 C 99.57954406738281 97.33566284179688 94.72691345214844 69.58079528808594 84.42698669433594 56.096580505371094" stroke-width="2.0" fill="none" stroke="rgb(0, 0, 0)" stroke-opacity="1" stroke-linecap="round" stroke-linejoin="round"/>
    <path d="M 38.675132751464844 -6.9058709144592285 C 47.98280715942383 -13.87371826171875 36.91099166870117 -10.402259826660156 45.90043640136719 15.160398483276367 C 34.80287170410156 24.639188766479492 26.931228637695312 -32.48487854003906 54.54115295410156 -17.534866333007812 C 54.94730758666992 34.342891693115234 74.52656555175781 47.250633239746094 56.82924270629883 36.140586853027344" stroke-width="2.0" fill="none" stroke="rgb(0, 0, 0)" stroke-opacity="1" stroke-linecap="round" stroke-linejoin="round"/>
    <path d="M 45.76522445678711 27.030319213867188 C 51.33552169799805 35.21980285644531 64.15127563476562 56.51371383666992 61.24321746826172 55.70636749267578" stroke-width="2.0" fill="none" stroke="rgb(0, 0, 0)" stroke-opacity="1" stroke-linecap="round" stroke-linejoin="round"/>
    <path d="M 178.15147399902344 196.57566833496094 C 175.94732666015625 190.71566772460938 207.38739013671875 185.84312438964844 186.68597412109375 175.93997192382812 C 187.87730407714844 171.4782257080078 182.5510711669922 174.23495483398438 173.78067016601562 188.15614318847656" stroke-width="2.0" fill="none" stroke="rgb(0, 0, 0)" stroke-opacity="1" stroke-linecap="round" stroke-linejoin="round"/>
    <path d="M 225.62815856933594 31.41523551940918 C 198.33380126953125 26.931015014648438 219.96815490722656 31.50876808166504 215.352783203125 56.043846130371094 C 214.4969482421875 20.396936416625977 220.25442504882812 25.812801361083984 198.66392517089844 63.1346435546875" stroke-width="2.0" fill="none" stroke="rgb(0, 0, 0)" stroke-opacity="1" stroke-linecap="round" stroke-linejoin="round"/>
    <path d="M 123.16397857666016 167.5152587890625 C 128.76702880859375 172.5231475830078 127.40250396728516 166.34019470214844 121.4820785522461 152.6290283203125 C 131.139892578125 148.81106567382812 122.6084213256836 157.1228790283203 132.40914916992188 161.24623107910156 C 114.70964813232422 147.0818328857422 111.34537506103516 154.9663848876953 115.83128356933594 156.79664611816406" stroke-width="2.0" fill="none" stroke="rgb(0, 0, 0)" stroke-opacity="1" stroke-linecap="round" stroke-linejoin="round"/>
    <path d="M 148.12591552734375 93.42571258544922 C 166.52760314941406 83.27653503417969 133.54539489746094 76.29234313964844 160.40882873535156 60.67836380004883" stroke-width="2.0" fill="none" stroke="rgb(0, 0, 0)" stroke-opacity="1" stroke-linecap="round" stroke-linejoin="round"/>
    <path d="M 164.8169708251953 46.19873809814453 C 179.7225799560547 70.28947448730469 176.73951721191406 67.38473510742188 181.2723388671875 72.29271697998047 C 138.03314208984375 88.8572769165039 147.35630798339844 109.39069366455078 180.3422088623047 85.878173828125" stroke-width="2.0" fill="none" stroke="rgb(0, 0, 0)" stroke-opacity="1" stroke-linecap="round" stroke-linejoin="round"/>
    <path d="M 1.2726715803146362 64.551025390625 C 10.149511337280273 45.7342529296875 8.788114547729492 36.043609619140625 4.044239521026611 35.592071533203125 C 13.826872825622559 1.756548523902893 24.65742301940918 3.7645761966705322 19.995893478393555 61.75058364868164" stroke-width="2.0" fill="none" stroke="rgb(0, 0, 0)" stroke-opacity="1" stroke-linecap="round" stroke-linejoin="round"/>
    <path d="M 156.10409545898438 214.22262573242188 C 187.15037536621094 186.1025848388672 181.74786376953125 216.93978881835938 160.09983825683594 162.1385955810547" stroke-width="2.0" fill="none" stroke="rgb(0, 0, 0)" stroke-opacity="1" stroke-linecap="round" stroke-linejoin="round"/>
    <path d="M 102.43026733398438 156.62432861328125 C 90.37696075439453 172.6913299560547 104.9271011352539 150.49993896484375 106.25636291503906 165.02435302734375" stroke-width="2.0" fill="none" stroke="rgb(0, 0, 0)" stroke-opacity="1" stroke-linecap="round" stroke-linejoin="round"/>
    <path d="M 41.920082092285156 133.2117156982422 C 44.90122985839844 130.82720947265625 33.70820236206055 144.72361755371094 28.341453552246094 141.89508056640625 C 30.187841415405273 133.9971160888672 26.56120491027832 137.0572509765625 33.62443542480469 144.05979919433594" stroke-width="2.0" fill="none" stroke="rgb(0, 0, 0)" stroke-opacity="1" stroke-linecap="round" stroke-linejoin="round"/>
    <path d="M 159.51824951171875 -4.582260608673096 C 130.0035858154297 16.697200775146484 120.37283325195312 37.67804718017578 137.36795043945312 8.835989952087402 C 137.69223022460938 19.595470428466797 142.3196563720703 16.487573623657227 120.71502685546875 37.159080505371094" stroke-width="2.0" fill="none" stroke="rgb(0, 0, 0)" stroke-opacity="1" stroke-linecap="round" stroke-linejoin="round"/>
    <path d="M 41.24913024902344 158.9997100830078 C -0.17734242975711823 196.0028076171875 16.442752838134766 175.37890625 19.956218719482422 189.2256622314453 C 40.84810256958008 167.52484130859375 33.17314910888672 179.2988739013672 28.664255142211914 172.13429260253906 C 4.575010776519775 195.43350219726562 12.421850204467773 189.21078491210938 25.760360717773438 189.46249389648438" stroke-width="2.0" fill="none" stroke="rgb(0, 0, 0)" stroke-opacity="1" stroke-linecap="round" stroke-linejoin="round"/>
    <path d="M 192.98268127441406 135.8150177001953 C 203.13796997070312 138.9694061279297 194.75152587890625 136.57334899902344 194.93507385253906 90.503173828125" stroke-width="2.0" fill="none" stroke="rgb(0, 0, 0)" stroke-opacity="1" stroke-linecap="round" stroke-linejoin="round"/>
    <path d="M -15.083295822143555 112.89909362792969 C 13.9304780960083 116.8610610961914 11.087870597839355 139.2025909423828 0.9561586976051331 150.78546142578125" stroke-width="2.0" fill="none" stroke="rgb(0, 0, 0)" stroke-opacity="1" stroke-linecap="round" stroke-linejoin="round"/>
    <path d="M 168.7281951904297 84.96710968017578 C 176.06930541992188 92.99699401855469 170.75262451171875 86.72412109375 178.64205932617188 128.1467742919922 C 192.79684448242188 177.97836303710938 186.65357971191406 105.74046325683594 191.34339904785156 92.98928833007812" stroke-width="2.0" fill="none" stroke="rgb(0, 0, 0)" stroke-opacity="1" stroke-linecap="round" stroke-linejoin="round"/>
    <path d="M 169.99891662597656 113.1679458618164 C 170.63931274414062 114.07118225097656 166.3033905029297 95.5234603881836 183.64279174804688 108.25312805175781" stroke-width="2.0" fill="none" stroke="rgb(0, 0, 0)" stroke-opacity="1" stroke-linecap="round" stroke-linejoin="round"/>
    <path d="M 137.52940368652344 177.9464111328125 C 161.29039001464844 177.12205505371094 155.02981567382812 149.3329620361328 165.9383087158203 142.45533752441406 C 165.92581176757812 152.64659118652344 151.52549743652344 158.47584533691406 140.33187866210938 172.9628143310547" stroke-width="2.0" fill="none" stroke="rgb(0, 0, 0)" stroke-opacity="1" stroke-linecap="round" stroke-linejoin="round"/>
    <path d="M 86.64578247070312 39.004615783691406 C 76.30083465576172 38.53286361694336 82.36131286621094 58.910064697265625 80.13233184814453 38.16476058959961" stroke-width="2.0" fill="none" stroke="rgb(0, 0, 0)" stroke-opacity="1" stroke-linecap="round" stroke-linejoin="round"/>
    <path d="M 141.29119873046875 124.01271057128906 C 162.72386169433594 121.16658782958984 164.80686950683594 114.4955062866211 145.17857360839844 123.34215545654297 C 143.203369140625 138.11105346679688 173.303466796875 124.47660064697266 165.7196807861328 121.38895416259766" stroke-width="2.0" fill="none" stroke="rgb(0, 0, 0)" stroke-opacity="1" stroke-linecap="round" stroke-linejoin="round"/>
    <path d="M 93.54562377929688 164.45956420898438 C 94.43521118164062 161.9806365966797 101.87969970703125 159.61143493652344 110.13775634765625 170.99652099609375 C 100.16439819335938 168.6368408203125 111.04373931884766 178.36280822753906 105.39529418945312 161.1564178466797 C 108.69180297851562 175.10279846191406 103.53631591796875 162.33407592773438 107.26316833496094 164.9672393798828" stroke-width="2.0" fill="none" stroke="rgb(0, 0, 0)" stroke-opacity="1" stroke-linecap="round" stroke-linejoin="round"/>
    <path d="M 102.28614044189453 94.62569427490234 C 90.90740203857422 104.18016052246094 92.98255920410156 97.62964630126953 109.45874786376953 133.74069213867188" stroke-width="2.0" fill="none" stroke="rgb(0, 0, 0)" stroke-opacity="1" stroke-linecap="round" stroke-linejoin="round"/>
    <path d="M 47.53081130981445 228.46055603027344 C 32.007789611816406 225.52281188964844 39.21145248413086 206.69740295410156 41.150550842285156 229.59445190429688 C 46.53034973144531 208.1281280517578 52.169002532958984 219.19125366210938 42.06752014160156 223.5304412841797 C 37.728851318359375 205.5662078857422 47.119239807128906 217.41024780273438 46.386505126953125 213.27890014648438" stroke-width="2.0" fill="none" stroke="rgb(0, 0, 0)" stroke-opacity="1" stroke-linecap="round" stroke-linejoin="round"/>
    <path d="M 69.29698181152344 -6.634891033172607 C 66.97220611572266 26.226640701293945 79.70672607421875 12.973126411437988 74.47381591796875 -14.235993385314941 C 66.82208251953125 -22.401243209838867 69.68077850341797 -27.398784637451172 65.10799407958984 8.358041763305664 C 94.0912094116211 -22.32754898071289 85.04341888427734 -19.212181091308594 86.77253723144531 36.46726989746094" stroke-width="2.0" fill="none" stroke="rgb(0, 0, 0)" stroke-opacity="1" stroke-linecap="round" stroke-linejoin="round"/>
    <path d="M 169.08529663085938 146.54115295410156 C 140.34640502929688 139.6564483642578 129.60064697265625 165.6466522216797 155.6662139892578 165.5937957763672 C 153.48617553710938 162.8854217529297 160.82339477539062 154.2797393798828 176.72402954101562 136.132080078125" stroke-width="2.0" fill="none" stroke="rgb(0, 0, 0)" stroke-opacity="1" stroke-linecap="round" stroke-linejoin="round"/>
    <path d="M 20.26082420349121 -12.349724769592285 C 33.25572967529297 8.545376777648926 28.104015350341797 41.475555419921875 32.72974395751953 70.95394897460938 C 8.605415344238281 71.21183013916016 27.562349319458008 38.73126983642578 20.96385383605957 77.06874084472656" stroke-width="2.0" fill="none" stroke="rgb(0, 0, 0)" stroke-opacity="1" stroke-linecap="round" stroke-linejoin="round"/>
    <path d="M 30.53827667236328 -5.888134479522705 C 52.76415252685547 47.438941955566406 53.006832122802734 60.67829513549805 42.4212532043457 29.858861923217773 C 34.98468780517578 55.701297760009766 25.040651321411133 42.43054962158203 27.791765213012695 17.51543617248535" stroke-width="2.0" fill="none" stroke="rgb(0, 0, 0)" stroke-opacity="1" stroke-linecap="round" stroke-linejoin="round"/>
    <path d="M -5.177038669586182 24.882946014404297 C -9.591492652893066 36.4185676574707 -4.301485538482666 34.495948791503906 -5.0092058181762695 34.76430892944336" stroke-width="2.0" fill="none" stroke="rgb(0, 0, 0)" stroke-opacity="1" stroke-linecap="round" stroke-linejoin="round"/>
    <path d="M 92.27706909179688 191.62594604492188 C 83.14115142822266 215.80213928222656 73.64762115478516 211.99562072753906 76.46976470947266 220.75262451171875" stroke-width="2.0" fill="none" stroke="rgb(0, 0, 0)" stroke-opacity="1" stroke-linecap="round" stroke-linejoin="round"/>
    <path d="M 84.01224517822266 80.16539001464844 C 66.8038558959961 45.556739807128906 66.36038208007812 65.0528335571289 82.1124038696289 43.58615493774414 C 80.007568359375 51.46845245361328 76.35355377197266 48.69895935058594 54.1167106628418 72.892333984375 C 38.487186431884766 87.4012680053711 47.14055252075195 88.80982208251953 69.22747802734375 54.943668365478516" stroke-width="2.0" fill="none" stroke="rgb(0, 0, 0)" stroke-opacity="1" stroke-linecap="round" stroke-linejoin="round"/>
    <path d="M 35.259666442871094 171.96954345703125 C 53.58108139038086 187.0216522216797 51.068931579589844 163.10447692871094 9.014281272888184 156.4723663330078 C 39.83309555053711 129.35064697265625 29.547283172607422 142.89833068847656 38.90363311767578 154.64151000976562" stroke-width="2.0" fill="none" stroke="rgb(0, 0, 0)" stroke-opacity="1" stroke-linecap="round" stroke-linejoin="round"/>
    <path d="M 214.10879516601562 26.007688522338867 C 211.20423889160156 71.26215362548828 208.07864379882812 38.06268310546875 206.56764221191406 45.15596389770508 C 229.47142028808594 65.65769958496094 220.80140686035156 24.42709732055664 224.34300231933594 53.01203536987305" stroke-width="2.0" fill="none" stroke="rgb(0, 0, 0)" stroke-opacity="1" stroke-linecap="round" stroke-linejoin="round"/>
    <path d="M 125.25519561767578 102.26923370361328 C 124.90956115722656 101.38774871826172 133.00611877441406 112.58079528808594 122.26124572753906 99.14498901367188" stroke-width="2.0" fill="none" stroke="rgb(0, 0, 0)" stroke-opacity="1" stroke-linecap="round" stroke-linejoin="round"/>
    <path d="M 179.7910614013672 202.5194854736328 C 153.43458557128906 218.3530731201172 153.0960235595703 221.29144287109375 196.50347900390625 194.22833251953125 C 187.8722381591797 176.1433868408203 185.35748291015625 182.09303283691406 195.04122924804688 173.4828338623047" stroke-width="2.0" fill="none" stroke="rgb(0, 0, 0)" stroke-opacity="1" stroke-linecap="round" stroke-linejoin="round"/>
    <path d="M 52.26493453979492 143.77867126464844 C 44.703697204589844 151.97633361816406 39.888736724853516 122.23201751708984 34.38729476928711 117.60310363769531 C 39.84189224243164 95.98688507080078 32.96370315551758 118.89043426513672 -2.294957399368286 143.18089294433594" stroke-width="2.0" fill="none" stroke="rgb(0, 0, 0)" stroke-opacity="1" stroke-linecap="round" stroke-linejoin="round"/>
    <path d="M 42.039329528808594 103.97828674316406 C 57.04425811767578 93.56327819824219 58.8520622253418 85.43761444091797 63.46388626098633 84.00882720947266 C 71.50215148925781 97.65166473388672 51.29627227783203 100.22474670410156 73.1075439453125 75.23865509033203" stroke-width="2.0" fill="none" stroke="rgb(0, 0, 0)" stroke-opacity="1" stroke-linecap="round" stroke-linejoin="round"/>
    <path d="M 204.00668334960938 130.96817016601562 C 198.4800262451172 107.24105072021484 201.23020935058594 51.783809661865234 200.55197143554688 25.25242042541504" stroke-width="2.0" fill="none" stroke="rgb(0, 0, 0)" stroke-opacity="1" stroke-linecap="round" stroke-linejoin="round"/>
    <path d="M 106.96517944335938 205.57371520996094 C 120.28380584716797 216.65945434570312 98.38831329345703 194.6283416748047 116.59529876708984 206.65650939941406" stroke-width="2.0" fill="none" stroke="rgb(0, 0, 0)" stroke-opacity="1" stroke-linecap="round" stroke-linejoin="round"/>
    <path d="M 37.41621780395508 224.86647033691406 C 61.75312805175781 220.91802978515625 42.37643051147461 205.68141174316406 39.134796142578125 230.15841674804688" stroke-width="2.0" fill="none" stroke="rgb(0, 0, 0)" stroke-opacity="1" stroke-linecap="round" stroke-linejoin="round"/>
    <path d="M 93.81440734863281 17.533349990844727 C 94.91039276123047 -14.775500297546387 68.13005828857422 -31.953746795654297 95.84163665771484 -23.715126037597656" stroke-width="2.0" fill="none" stroke="rgb(0, 0, 0)" stroke-opacity="1" stroke-linecap="round" stroke-linejoin="round"/>
    <path d="M 178.94482421875 153.12930297851562 C 164.5864715576172 131.33209228515625 163.52691650390625 153.13600158691406 187.66786193847656 173.5434112548828 C 190.80767822265625 155.21253967285156 216.0243682861328 218.10610961914062 195.4769744873047 178.7637481689453 C 214.06292724609375 168.5695343017578 194.84454345703125 176.76284790039062 200.89254760742188 171.80120849609375" stroke-width="2.0" fill="none" stroke="rgb(0, 0, 0)" stroke-opacity="1" stroke-linecap="round" stroke-linejoin="round"/>
    <path d="M 158.13136291503906 62.79778289794922 C 121.45639038085938 90.5780029296875 135.60621643066406 86.40106964111328 123.74642181396484 77.90496826171875 C 140.49691772460938 71.46863555908203 154.52536010742188 52.648399353027344 174.848876953125 45.97650909423828 C 156.5330810546875 64.70378112792969 134.15313720703125 73.14116668701172 141.12403869628906 81.92640686035156" stroke-width="2.0" fill="none" stroke="rgb(0, 0, 0)" stroke-opacity="1" stroke-linecap="round" stroke-linejoin="round"/>
    <path d="M 121.70255279541016 94.49540710449219 C 114.278076171875 109.20462036132812 137.36111450195312 98.55885314941406 141.095458984375 128.67410278320312 C 132.99563598632812 108.51805877685547 119.43952941894531 102.41409301757812 130.21859741210938 114.17898559570312" stroke-width="2.0" fill="none" stroke="rgb(0, 0, 0)" stroke-opacity="1" stroke-linecap="round" stroke-linejoin="round"/>
    <path d="M 200.491943359375 85.63259887695312 C 224.91563415527344 96.83058166503906 229.69590759277344 85.25706481933594 229.39865112304688 77.3280029296875" stroke-width="2.0" fill="none" stroke="rgb(0, 0, 0)" stroke-opacity="1" stroke-linecap="round" stroke-linejoin="round"/>
    <path d="M 127.9246597290039 110.57566833496094 C 142.36769104003906 126.71009826660156 133.1693115234375 114.24873352050781 111.05511474609375 125.67080688476562 C 156.66326904296875 123.89928436279297 123.56649780273438 110.96566772460938 116.95738220214844 82.07825469970703" stroke-width="2.0" fill="none" stroke="rgb(0, 0, 0)" stroke-opacity="1" stroke-linecap="round" stroke-linejoin="round"/>
    <path d="M 77.75886535644531 114.0292739868164 C 84.21318054199219 129.61312866210938 75.10406494140625 127.45333862304688 108.60274505615234 104.31686401367188 C 101.39163208007812 88.47196960449219 79.53390502929688 111.23342895507812 106.54371643066406 104.28842163085938" stroke-width="2.0" fill="none" stroke="rgb(0, 0, 0)" stroke-opacity="1" stroke-linecap="round" stroke-linejoin="round"/>
    <path d="M 0.6330462694168091 84.82783508300781 C 5.175752639770508 48.951656341552734 -22.208251953125 69.3714599609375 -41.6546516418457 63.79557800292969 C -8.391169548034668 21.19088363647461 -9.086786270141602 39.310401916503906 -3.7980668544769287 56.771080017089844 C -11.805667877197266 26.247116088867188 -11.343687057495117 33.99681854248047 30.048288345336914 43.026023864746094" stroke-width="2.0" fill="none" stroke="rgb(0, 0, 0)" stroke-opacity="1" stroke-linecap="round" stroke-linejoin="round"/>
    <path d="M 191.46121215820312 79.85553741455078 C 195.74037170410156 42.63051223754883 192.41156005859375 55.34334945678711 174.6038360595703 74.52942657470703" stroke-width="2.0" fill="none" stroke="rgb(0, 0, 0)" stroke-opacity="1" stroke-linecap="round" stroke-linejoin="round"/>
    <path d="M 129.254638671875 58.23184585571289 C 113.07942199707031 60.89790344238281 111.40760803222656 74.1796646118164 127.2427749633789 88.38843536376953" stroke-width="2.0" fill="none" stroke="rgb(0, 0, 0)" stroke-opacity="1" stroke-linecap="round" stroke-linejoin="round"/>
    <path d="M 233.58917236328125 207.94781494140625 C 209.1412353515625 205.13992309570312 191.84080505371094 170.92123413085938 214.3273162841797 209.6835479736328" stroke-width="2.0" fill="none" stroke="rgb(0, 0, 0)" stroke-opacity="1" stroke-linecap="round" stroke-linejoin="round"/>
    <path d="M 117.25892639160156 63.789798736572266 C 130.6106414794922 56.68219757080078 99.59516143798828 66.8621597290039 128.58619689941406 83.2380599975586" stroke-width="2.0" fill="none" stroke="rgb(0, 0, 0)" stroke-opacity="1" stroke-linecap="round" stroke-linejoin="round"/>
    <path d="M 56.524391174316406 189.48692321777344 C 50.906463623046875 176.06784057617188 73.64270782470703 191.4626922607422 54.844539642333984 190.20899963378906" stroke-width="2.0" fill="none" stroke="rgb(0, 0, 0)" stroke-opacity="1" stroke-linecap="round" stroke-linejoin="round"/>
    <path d="M 113.04785919189453 218.0450897216797 C 144.74110412597656 181.48243713378906 161.43772888183594 160.60208129882812 124.8766860961914 193.36190795898438 C 134.62159729003906 203.04025268554688 136.42019653320312 169.29974365234375 117.99190521240234 172.76181030273438" stroke-width="2.0" fill="none" stroke="rgb(0, 0, 0)" stroke-opacity="1" stroke-linecap="round" stroke-linejoin="round"/>
    <path d="M 179.598876953125 -12.883284568786621 C 156.43930053710938 -0.9562250971794128 174.59169006347656 1.5006601810455322 166.35272216796875 8.992217063903809" stroke-width="2.0" fill="none" stroke="rgb(0, 0, 0)" stroke-opacity="1" stroke-linecap="round" stroke-linejoin="round"/>
    <path d="M 121.70147705078125 228.9663543701172 C 124.03955078125 234.66033935546875 129.77099609375 238.30850219726562 121.36355590820312 237.8035125732422" stroke-width="2.0" fill="none" stroke="rgb(0, 0, 0)" stroke-opacity="1" stroke-linecap="round" stroke-linejoin="round"/>
    <path d="M 203.88668823242188 -3.857973575592041 C 188.78665161132812 29.100027084350586 180.19273376464844 55.724830627441406 191.65554809570312 24.4438419342041 C 169.08334350585938 25.89581298828125 177.374755859375 25.954221725463867 194.20079040527344 -4.484355449676514" stroke-width="2.0" fill="none" stroke="rgb(0, 0, 0)" stroke-opacity="1" stroke-linecap="round" stroke-linejoin="round"/>
    <path d="M 100.66133117675781 44.314754486083984 C 107.7260971069336 34.980525970458984 90.78182983398438 68.15568542480469 69.38195037841797 86.22984313964844 C 71.88030242919922 76.678466796875 90.80647277832031 70.82947540283203 90.2205810546875 49.87628936767578" stroke-width="2.0" fill="none" stroke="rgb(0, 0, 0)" stroke-opacity="1" stroke-linecap="round" stroke-linejoin="round"/>
    <path d="M 54.6519660949707 68.7336196899414 C 79.69083404541016 82.6659164428711 58.64213943481445 91.85501861572266 55.421504974365234 81.52893829345703 C 78.27127075195312 123.70011901855469 69.83998107910156 74.34941864013672 64.92904663085938 71.1043701171875" stroke-width="2.0" fill="none" stroke="rgb(0, 0, 0)" stroke-opacity="1" stroke-linecap="round" stroke-linejoin="round"/>
    <path d="M 93.7423324584961 24.670673370361328 C 79.46955108642578 -11.719952583312988 92.42300415039062 -31.735788345336914 94.15980529785156 -46.794803619384766" stroke-width="2.0" fill="none" stroke="rgb(0, 0, 0)" stroke-opacity="1" stroke-linecap="round" stroke-linejoin="round"/>
    <path d="M 130.9894561767578 118.15193939208984 C 125.49591064453125 76.31272888183594 99.41756439208984 78.08992767333984 100.6176986694336 108.4414291381836 C 109.87299346923828 109.0725326538086 86.89750671386719 117.10554504394531 99.4484634399414 111.1617660522461 C 95.25660705566406 120.54666900634766 88.60734558105469 119.01496124267578 76.61107635498047 112.93901824951172" stroke-width="2.0" fill="none" stroke="rgb(0, 0, 0)" stroke-opacity="1" stroke-linecap="round" stroke-linejoin="round"/>
    <path d="M 90.95989227294922 213.66786193847656 C 85.5107650756836 205.39707946777344 76.04237365722656 198.3941650390625 64.7953872680664 181.19398498535156" stroke-width="2.0" fill="none" stroke="rgb(0, 0, 0)" stroke-opacity="1" stroke-linecap="round" stroke-linejoin="round"/>
    <path d="M 217.55282592773438 119.82847595214844 C 225.02162170410156 57.525753021240234 209.53033447265625 69.1700668334961 232.50335693359375 74.7736587524414" stroke-width="2.0" fill="none" stroke="rgb(0, 0, 0)" stroke-opacity="1" stroke-linecap="round" stroke-linejoin="round"/>
    <path d="M 156.06629943847656 97.07196044921875 C 157.18377685546875 101.13877868652344 154.146484375 115.77804565429688 171.5111541748047 105.2273941040039 C 159.77613830566406 84.42779541015625 137.66709899902344 88.1554946899414 136.24632263183594 68.60027313232422" stroke-width="2.0" fill="none" stroke="rgb(0, 0, 0)" stroke-opacity="1" stroke-linecap="round" stroke-linejoin="round"/>
    <path d="M 133.72390747070312 52.336463928222656 C 125.81758880615234 69.4910888671875 118.06246948242188 45.5520133972168 139.69873046875 53.323081970214844 C 127.55797576904297 29.521116256713867 156.59266662597656 37.63117218017578 162.08749389648438 26.94835090637207" stroke-width="2.0" fill="none" stroke="rgb(0, 0, 0)" stroke-opacity="1" stroke-linecap="round" stroke-linejoin="round"/>
    <path d="M 160.8292236328125 219.50144958496094 C 176.6326904296875 207.1588897705078 174.3167266845703 218.56170654296875 163.4265899658203 217.03004455566406 C 189.0803680419922 194.55992126464844 184.2467041015625 217.02676391601562 168.28346252441406 174.6619873046875" stroke-width="2.0" fill="none" stroke="rgb(0, 0, 0)" stroke-opacity="1" stroke-linecap="round" stroke-linejoin="round"/>
    <path d="M 59.73493957519531 75.29635620117188 C 80.84600830078125 84.31636047363281 38.37583923339844 110.60932922363281 53.3635139465332 97.02193450927734 C 59.92776870727539 76.04851531982422 69.42725372314453 80.9205322265625 54.5938835144043 65.8897705078125" stroke-width="2.0" fill="none" stroke="rgb(0, 0, 0)" stroke-opacity="1" stroke-linecap="round" stroke-linejoin="round"/>
    <path d="M 127.78919219970703 19.49883270263672 C 114.6826171875 30.052515029907227 77.3939437866211 63.66669464111328 127.03594970703125 28.121479034423828" stroke-width="2.0" fill="none" stroke="rgb(0, 0, 0)" stroke-opacity="1" stroke-linecap="round" stroke-linejoin="round"/>
    <path d="M 95.3378677368164 117.73405456542969 C 60.174224853515625 127.5298080444336 68.53895568847656 133.60362243652344 95.12639617919922 111.6268539428711 C 77.40029907226562 121.69525146484375 88.13267517089844 111.45856475830078 118.8436508178711 91.25772857666016 C 116.58641815185547 89.4319839477539 92.78656768798828 106.00093078613281 117.83585357666016 81.06025695800781" stroke-width="2.0" fill="none" stroke="rgb(0, 0, 0)" stroke-opacity="1" stroke-linecap="round" stroke-linejoin="round"/>
    <path d="M 76.4800796508789 52.630455017089844 C 70.408447265625 49.01460266113281 64.30343627929688 62.26314926147461 48.8038444519043 83.4406967163086 C 77.87523651123047 61.10146713256836 65.7745361328125 62.263084411621094 57.838226318359375 73.74470520019531 C 73.42280578613281 56.660221099853516 59.9879035949707 52.135948181152344 75.8094711303711 70.21585845947266" stroke-width="2.0" fill="none" stroke="rgb(0, 0, 0)" stroke-opacity="1" stroke-linecap="round" stroke-linejoin="round"/>
    <path d="M 124.87701416015625 140.7088165283203 C 125.707763671875 134.87240600585938 112.26405334472656 138.76011657714844 104.44686889648438 152.8681640625 C 96.66830444335938 160.88417053222656 90.39950561523438 171.52659606933594 92.16493225097656 171.67970275878906" stroke-width="2.0" fill="none" stroke="rgb(0, 0, 0)" stroke-opacity="1" stroke-linecap="round" stroke-linejoin="round"/>
    <path d="M 106.78506469726562 15.156975746154785 C 117.53411865234375 19.897445678710938 100.71080017089844 -3.5822253227233887 97.2447280883789 -12.510672569274902" stroke-width="2.0" fill="none" stroke="rgb(0, 0, 0)" stroke-opacity="1" stroke-linecap="round" stroke-linejoin="round"/>
  </g>
</svg>
