<?xml version="1.0" ?>
<svg xmlns="http://www.w3.org/2000/svg" version="1.1" width="224" height="224">
  <defs/>
  <g>
    <path d="M 194.4459228515625 118.93309783935547 C 182.9561004638672 159.3069305419922 162.22927856445312 168.2050018310547 133.70155334472656 166.6376495361328 C 167.01817321777344 145.93472290039062 172.61036682128906 149.0287628173828 161.58517456054688 141.30612182617188 C 191.2200927734375 145.86048889160156 209.59701538085938 161.33255004882812 180.00526428222656 129.61756896972656" stroke-width="2.0" fill="none" stroke="rgb(0, 0, 0)" stroke-opacity="1" stroke-linecap="round" stroke-linejoin="round"/>
    <path d="M 3.914581060409546 55.22096633911133 C 16.272367477416992 19.987865447998047 15.263449668884277 27.258228302001953 18.438631057739258 83.48793029785156" stroke-width="2.0" fill="none" stroke="rgb(0, 0, 0)" stroke-opacity="1" stroke-linecap="round" stroke-linejoin="round"/>
    <path d="M 130.0223388671875 230.20310974121094 C 150.68605041503906 227.22877502441406 140.8052978515625 233.6375732421875 143.56637573242188 230.9481964111328 C 142.53656005859375 230.8878173828125 149.8570098876953 235.87841796875 161.941650390625 231.00759887695312 C 172.11122131347656 224.76333618164062 152.5094451904297 217.29469299316406 146.92750549316406 229.2403564453125" stroke-width="2.0" fill="none" stroke="rgb(0, 0, 0)" stroke-opacity="1" stroke-linecap="round" stroke-linejoin="round"/>
    <path d="M 28.885059356689453 165.4269561767578 C -0.5901072025299072 111.38115692138672 -0.8535452485084534 120.73119354248047 16.095874786376953 177.88938903808594" stroke-width="2.0" fill="none" stroke="rgb(0, 0, 0)" stroke-opacity="1" stroke-linecap="round" stroke-linejoin="round"/>
    <path d="M 101.48806762695312 125.40032196044922 C 126.0882339477539 144.0408172607422 112.37049102783203 106.39774322509766 116.03887939453125 95.60539245605469 C 121.09695434570312 119.43152618408203 116.73564910888672 88.62696838378906 114.91854095458984 132.94493103027344" stroke-width="2.0" fill="none" stroke="rgb(0, 0, 0)" stroke-opacity="1" stroke-linecap="round" stroke-linejoin="round"/>
    <path d="M 62.38849639892578 65.1819076538086 C 72.2390365600586 50.79348373413086 67.8196029663086 42.76400375366211 37.287784576416016 43.23417663574219 C 65.52397155761719 37.76529312133789 69.0733413696289 42.58788299560547 58.70165252685547 73.00409698486328" stroke-width="2.0" fill="none" stroke="rgb(0, 0, 0)" stroke-opacity="1" stroke-linecap="round" stroke-linejoin="round"/>
    <path d="M 166.6527557373047 146.67819213867188 C 155.7527618408203 112.96085357666016 171.73631286621094 135.53431701660156 173.0011444091797 116.1865234375 C 177.95713806152344 143.43894958496094 151.08982849121094 137.2193603515625 165.22265625 153.80548095703125" stroke-width="2.0" fill="none" stroke="rgb(0, 0, 0)" stroke-opacity="1" stroke-linecap="round" stroke-linejoin="round"/>
    <path d="M 81.42089080810547 129.07078552246094 C 47.172725677490234 132.31773376464844 38.228057861328125 105.96607208251953 59.29173278808594 91.60578155517578 C 67.5534439086914 120.60614013671875 29.802682876586914 97.00751495361328 61.13615417480469 90.28435516357422" stroke-width="2.0" fill="none" stroke="rgb(0, 0, 0)" stroke-opacity="1" stroke-linecap="round" stroke-linejoin="round"/>
    <path d="M 35.390750885009766 -3.3515982627868652 C 51.082130432128906 -20.10930633544922 54.509681701660156 14.137627601623535 67.08045196533203 24.871776580810547 C 56.12811279296875 37.123268127441406 48.442989349365234 27.646339416503906 58.47798156738281 -5.060194969177246" stroke-width="2.0" fill="none" stroke="rgb(0, 0, 0)" stroke-opacity="1" stroke-linecap="round" stroke-linejoin="round"/>
    <path d="M 89.99336242675781 76.36459350585938 C 96.3397445678711 75.30152130126953 100.18952178955078 54.36534881591797 64.89266967773438 68.67399597167969 C 72.88414764404297 84.4406967163086 70.4857406616211 65.1382827758789 75.63846588134766 68.56607055664062 C 91.6705093383789 72.37965393066406 95.3281478881836 71.56614685058594 115.50543212890625 73.02007293701172" stroke-width="2.0" fill="none" stroke="rgb(0, 0, 0)" stroke-opacity="1" stroke-linecap="round" stroke-linejoin="round"/>
    <path d="M 84.3116226196289 125.09895324707031 C 73.6651611328125 142.78726196289062 70.48260498046875 158.06529235839844 97.45072174072266 170.79721069335938" stroke-width="2.0" fill="none" stroke="rgb(0, 0, 0)" stroke-opacity="1" stroke-linecap="round" stroke-linejoin="round"/>
    <path d="M 23.576881408691406 23.89765167236328 C 34.342567443847656 17.624738693237305 28.34276580810547 2.2699382305145264 5.214160442352295 -4.320056438446045" stroke-width="2.0" fill="none" stroke="rgb(0, 0, 0)" stroke-opacity="1" stroke-linecap="round" stroke-linejoin="round"/>
    <path d="M 82.06791687011719 168.67247009277344 C 79.6463623046875 170.3021240234375 114.28623962402344 151.859619140625 60.01570129394531 167.88131713867188 C 80.43599700927734 165.20455932617188 85.22389221191406 191.9834747314453 78.52574157714844 168.21107482910156" stroke-width="2.0" fill="none" stroke="rgb(0, 0, 0)" stroke-opacity="1" stroke-linecap="round" stroke-linejoin="round"/>
    <path d="M 57.02981185913086 106.5450210571289 C 47.20697021484375 93.37730407714844 53.098854064941406 89.35698699951172 45.381324768066406 120.10245513916016 C 83.87134552001953 138.061767578125 62.67264175415039 135.98583984375 53.37322235107422 129.85780334472656" stroke-width="2.0" fill="none" stroke="rgb(0, 0, 0)" stroke-opacity="1" stroke-linecap="round" stroke-linejoin="round"/>
    <path d="M 81.42839813232422 66.70518493652344 C 78.3421630859375 109.00692749023438 86.04496765136719 87.93134307861328 55.7368278503418 92.40653228759766 C 99.08345794677734 96.67566680908203 49.49901580810547 96.18939208984375 67.5745849609375 93.2452163696289 C 40.10481643676758 79.93450164794922 42.56545639038086 109.64006805419922 55.40589904785156 106.00967407226562" stroke-width="2.0" fill="none" stroke="rgb(0, 0, 0)" stroke-opacity="1" stroke-linecap="round" stroke-linejoin="round"/>
    <path d="M 131.71124267578125 151.5676727294922 C 129.40538024902344 169.28689575195312 171.23672485351562 144.201171875 147.7276153564453 167.5231170654297 C 118.25831604003906 178.2826690673828 123.81102752685547 141.51840209960938 129.7613067626953 161.5104217529297" stroke-width="2.0" fill="none" stroke="rgb(0, 0, 0)" stroke-opacity="1" stroke-linecap="round" stroke-linejoin="round"/>
    <path d="M 45.67680740356445 217.2292022705078 C 37.10683059692383 190.4143829345703 40.07834243774414 189.4000244140625 12.883588790893555 178.04690551757812 C 27.518871307373047 169.1468963623047 35.51484298706055 183.51153564453125 46.38567352294922 164.53155517578125 C 48.27750015258789 187.0901336669922 89.00708770751953 201.95928955078125 72.43721771240234 187.14218139648438" stroke-width="2.0" fill="none" stroke="rgb(0, 0, 0)" stroke-opacity="1" stroke-linecap="round" stroke-linejoin="round"/>
    <path d="M 44.87562942504883 110.71324920654297 C 44.28899002075195 131.00665283203125 76.34778594970703 136.69448852539062 91.55905151367188 112.96794891357422" stroke-width="2.0" fill="none" stroke="rgb(0, 0, 0)" stroke-opacity="1" stroke-linecap="round" stroke-linejoin="round"/>
    <path d="M 220.262939453125 43.93075180053711 C 191.734130859375 62.21596145629883 209.02182006835938 45.03293228149414 204.28448486328125 30.544723510742188 C 225.73692321777344 25.02008819580078 219.6829376220703 17.025020599365234 203.36192321777344 22.42862319946289" stroke-width="2.0" fill="none" stroke="rgb(0, 0, 0)" stroke-opacity="1" stroke-linecap="round" stroke-linejoin="round"/>
    <path d="M -5.490273475646973 160.3223876953125 C 40.26438903808594 169.4970245361328 33.34084701538086 159.5520477294922 28.336055755615234 157.8593292236328 C 43.8103141784668 157.7544708251953 47.921688079833984 163.11282348632812 -5.640149116516113 166.92251586914062" stroke-width="2.0" fill="none" stroke="rgb(0, 0, 0)" stroke-opacity="1" stroke-linecap="round" stroke-linejoin="round"/>
    <path d="M -6.039755344390869 21.78963279724121 C -12.274240493774414 45.75092697143555 -9.740933418273926 43.037391662597656 0.27308863401412964 50.47212219238281 C -9.615411758422852 48.4520149230957 11.91192626953125 36.24313735961914 -3.0535285472869873 40.840518951416016 C -3.95354962348938 9.044768333435059 -15.654492378234863 6.569721698760986 -22.34341049194336 6.926758766174316" stroke-width="2.0" fill="none" stroke="rgb(0, 0, 0)" stroke-opacity="1" stroke-linecap="round" stroke-linejoin="round"/>
    <path d="M 27.19586181640625 145.72096252441406 C 13.747939109802246 140.74867248535156 -16.21890640258789 134.91542053222656 9.724769592285156 142.0185089111328 C -1.8273075819015503 135.79019165039062 22.215442657470703 131.6885528564453 -4.51469612121582 144.73338317871094 C 3.9387869834899902 167.11102294921875 37.900062561035156 169.91355895996094 -1.4402801990509033 166.5170135498047" stroke-width="2.0" fill="none" stroke="rgb(0, 0, 0)" stroke-opacity="1" stroke-linecap="round" stroke-linejoin="round"/>
    <path d="M 141.5616912841797 107.59793853759766 C 153.0582733154297 109.64888763427734 143.522216796875 93.43946075439453 124.5750732421875 101.19342803955078 C 140.95806884765625 105.66030883789062 130.44430541992188 86.50918579101562 136.85870361328125 105.95358276367188" stroke-width="2.0" fill="none" stroke="rgb(0, 0, 0)" stroke-opacity="1" stroke-linecap="round" stroke-linejoin="round"/>
    <path d="M -2.8783740997314453 152.163818359375 C -2.1800832748413086 124.94600677490234 -11.69961929321289 113.91362762451172 -16.570598602294922 102.816650390625" stroke-width="2.0" fill="none" stroke="rgb(0, 0, 0)" stroke-opacity="1" stroke-linecap="round" stroke-linejoin="round"/>
    <path d="M 51.390235900878906 26.3350830078125 C 58.6309700012207 15.958029747009277 61.21112823486328 26.066734313964844 90.95516204833984 36.26388168334961 C 84.46832275390625 48.002174377441406 77.68093872070312 30.126476287841797 80.23500061035156 41.753990173339844 C 87.46281433105469 49.530643463134766 69.26787567138672 44.2984504699707 74.7647705078125 31.203516006469727" stroke-width="2.0" fill="none" stroke="rgb(0, 0, 0)" stroke-opacity="1" stroke-linecap="round" stroke-linejoin="round"/>
    <path d="M 1.8324352502822876 232.41064453125 C 17.904874801635742 223.8529510498047 24.66997718811035 234.03936767578125 28.85613441467285 241.6278533935547" stroke-width="2.0" fill="none" stroke="rgb(0, 0, 0)" stroke-opacity="1" stroke-linecap="round" stroke-linejoin="round"/>
    <path d="M 28.847265243530273 179.05838012695312 C 24.391828536987305 202.95074462890625 33.848506927490234 201.11097717285156 66.77519226074219 220.58102416992188 C 46.61787414550781 223.0662384033203 20.412569046020508 198.7078399658203 48.77302932739258 180.4495849609375" stroke-width="2.0" fill="none" stroke="rgb(0, 0, 0)" stroke-opacity="1" stroke-linecap="round" stroke-linejoin="round"/>
    <path d="M 197.29147338867188 124.73503875732422 C 228.7130126953125 114.96348571777344 221.68907165527344 110.36261749267578 195.97694396972656 103.3916015625" stroke-width="2.0" fill="none" stroke="rgb(0, 0, 0)" stroke-opacity="1" stroke-linecap="round" stroke-linejoin="round"/>
    <path d="M 174.53753662109375 9.446253776550293 C 156.2430877685547 -11.879976272583008 124.61629486083984 16.229768753051758 139.97389221191406 9.834485054016113" stroke-width="2.0" fill="none" stroke="rgb(0, 0, 0)" stroke-opacity="1" stroke-linecap="round" stroke-linejoin="round"/>
    <path d="M 62.48354721069336 202.9978790283203 C 18.715723037719727 185.7939453125 32.258514404296875 188.77923583984375 29.22752571105957 193.91407775878906 C 45.7252197265625 208.04978942871094 63.60057067871094 212.8534698486328 82.18183898925781 213.17129516601562 C 29.431888580322266 224.45762634277344 31.374988555908203 213.76254272460938 82.05280303955078 204.244873046875" stroke-width="2.0" fill="none" stroke="rgb(0, 0, 0)" stroke-opacity="1" stroke-linecap="round" stroke-linejoin="round"/>
    <path d="M 216.5143585205078 -4.391368865966797 C 230.13246154785156 -3.296067953109741 227.68911743164062 -9.825905799865723 228.28158569335938 15.036672592163086" stroke-width="2.0" fill="none" stroke="rgb(0, 0, 0)" stroke-opacity="1" stroke-linecap="round" stroke-linejoin="round"/>
    <path d="M 156.93618774414062 200.1110382080078 C 175.63601684570312 189.81182861328125 137.1107940673828 224.5641326904297 176.3291778564453 223.87689208984375 C 155.78042602539062 206.5951385498047 157.06517028808594 235.57290649414062 171.43797302246094 201.70986938476562" stroke-width="2.0" fill="none" stroke="rgb(0, 0, 0)" stroke-opacity="1" stroke-linecap="round" stroke-linejoin="round"/>
    <path d="M 39.520084381103516 128.10780334472656 C 23.833826065063477 151.22622680664062 17.9401798248291 143.9884796142578 9.959613800048828 123.48223114013672 C -10.899579048156738 127.15996551513672 -20.003454208374023 130.52969360351562 -3.1626296043395996 127.5600357055664 C -2.1658527851104736 110.9719009399414 1.4629895687103271 115.13091278076172 -6.356644153594971 119.64057159423828" stroke-width="2.0" fill="none" stroke="rgb(0, 0, 0)" stroke-opacity="1" stroke-linecap="round" stroke-linejoin="round"/>
    <path d="M 137.60736083984375 211.54490661621094 C 105.40129089355469 205.46371459960938 91.78067779541016 219.45372009277344 112.97109985351562 235.07046508789062 C 131.05538940429688 220.86058044433594 117.55796813964844 219.81719970703125 88.99526977539062 224.8950653076172 C 120.96237182617188 212.64431762695312 137.90084838867188 228.31309509277344 104.22449493408203 222.7410888671875" stroke-width="2.0" fill="none" stroke="rgb(0, 0, 0)" stroke-opacity="1" stroke-linecap="round" stroke-linejoin="round"/>
    <path d="M 202.303955078125 65.71717071533203 C 182.28578186035156 81.36641693115234 189.36013793945312 106.01314544677734 203.12620544433594 59.21158981323242 C 178.50991821289062 58.4448356628418 190.72689819335938 86.93479919433594 172.64401245117188 60.77116394042969 C 160.9595489501953 83.31324768066406 193.8900909423828 61.51535415649414 175.8073272705078 69.43936920166016" stroke-width="2.0" fill="none" stroke="rgb(0, 0, 0)" stroke-opacity="1" stroke-linecap="round" stroke-linejoin="round"/>
    <path d="M 31.414018630981445 22.698728561401367 C 23.596101760864258 17.52823257446289 3.5930423736572266 41.32089614868164 18.619144439697266 37.44097137451172" stroke-width="2.0" fill="none" stroke="rgb(0, 0, 0)" stroke-opacity="1" stroke-linecap="round" stroke-linejoin="round"/>
    <path d="M 102.1767349243164 173.69004821777344 C 101.74703216552734 171.20668029785156 107.17182159423828 217.64913940429688 70.33959197998047 204.34812927246094 C 91.07551574707031 202.93283081054688 74.69754028320312 195.1632537841797 65.89337158203125 178.3070831298828 C 49.22582244873047 200.32411193847656 70.14735412597656 200.54676818847656 61.921634674072266 179.31573486328125" stroke-width="2.0" fill="none" stroke="rgb(0, 0, 0)" stroke-opacity="1" stroke-linecap="round" stroke-linejoin="round"/>
    <path d="M 31.246923446655273 132.5706329345703 C 0.31975552439689636 154.78335571289062 -2.3631200790405273 166.65365600585938 56.88444900512695 151.24435424804688 C 49.82007598876953 168.33209228515625 34.06208038330078 159.4774169921875 47.00788116455078 156.75210571289062" stroke-width="2.0" fill="none" stroke="rgb(0, 0, 0)" stroke-opacity="1" stroke-linecap="round" stroke-linejoin="round"/>
    <path d="M 26.710987091064453 49.195735931396484 C 45.67805099487305 75.2041015625 35.74797058105469 62.894065856933594 -5.161654949188232 59.51869201660156" stroke-width="2.0" fill="none" stroke="rgb(0, 0, 0)" stroke-opacity="1" stroke-linecap="round" stroke-linejoin="round"/>
    <path d="M 136.44532775878906 161.79177856445312 C 154.9181365966797 158.35130310058594 157.03268432617188 151.9235076904297 147.99716186523438 167.2267303466797 C 175.48548889160156 154.68771362304688 129.4373321533203 172.70741271972656 144.39959716796875 160.63157653808594 C 108.59413146972656 155.2670135498047 130.79168701171875 158.39122009277344 139.71888732910156 140.9777374267578" stroke-width="2.0" fill="none" stroke="rgb(0, 0, 0)" stroke-opacity="1" stroke-linecap="round" stroke-linejoin="round"/>
    <path d="M 227.35438537597656 138.7360076904297 C 231.78797912597656 138.2930908203125 238.29652404785156 133.111572265625 247.0788116455078 138.25112915039062" stroke-width="2.0" fill="none" stroke="rgb(0, 0, 0)" stroke-opacity="1" stroke-linecap="round" stroke-linejoin="round"/>
    <path d="M 198.19020080566406 120.21282958984375 C 222.69886779785156 127.5306625366211 243.9903106689453 132.3167724609375 222.2370147705078 98.45228576660156 C 222.70626831054688 75.36942291259766 242.584228515625 92.89122772216797 196.18716430664062 113.80675506591797" stroke-width="2.0" fill="none" stroke="rgb(0, 0, 0)" stroke-opacity="1" stroke-linecap="round" stroke-linejoin="round"/>
    <path d="M 185.959716796875 207.18197631835938 C 161.66961669921875 222.36976623535156 198.5024871826172 217.1508026123047 234.71946716308594 221.17266845703125 C 216.5148468017578 244.6373748779297 204.94680786132812 246.66403198242188 195.5520477294922 238.6790771484375 C 196.94638061523438 236.45248413085938 186.40589904785156 244.28799438476562 189.25135803222656 237.79977416992188" stroke-width="2.0" fill="none" stroke="rgb(0, 0, 0)" stroke-opacity="1" stroke-linecap="round" stroke-linejoin="round"/>
    <path d="M 49.64158630371094 154.1056365966797 C 64.55404663085938 158.13043212890625 52.638702392578125 122.78046417236328 57.77589797973633 135.1376495361328 C 49.031028747558594 170.04151916503906 34.146026611328125 165.2933349609375 49.92405700683594 150.39320373535156 C 59.26162338256836 116.00698852539062 73.85189056396484 163.9066925048828 31.65548324584961 157.92193603515625" stroke-width="2.0" fill="none" stroke="rgb(0, 0, 0)" stroke-opacity="1" stroke-linecap="round" stroke-linejoin="round"/>
    <path d="M 196.927001953125 55.418331146240234 C 209.78994750976562 59.06904602050781 250.07530212402344 67.1925277709961 191.0572052001953 77.61631774902344 C 191.6778564453125 57.2972297668457 198.30593872070312 62.72127151489258 191.82241821289062 80.64805603027344 C 182.23439025878906 76.73309326171875 192.8194580078125 58.250186920166016 197.2659454345703 44.67477035522461" stroke-width="2.0" fill="none" stroke="rgb(0, 0, 0)" stroke-opacity="1" stroke-linecap="round" stroke-linejoin="round"/>
    <path d="M 46.15419387817383 23.797578811645508 C 32.15245056152344 21.306034088134766 42.8765869140625 -5.259354591369629 39.78553009033203 -3.527472496032715" stroke-width="2.0" fill="none" stroke="rgb(0, 0, 0)" stroke-opacity="1" stroke-linecap="round" stroke-linejoin="round"/>
    <path d="M 20.04548454284668 117.12229919433594 C 0.11122892796993256 126.51699829101562 5.096139430999756 135.7611083984375 25.93324089050293 144.23463439941406 C 33.12025833129883 112.64733123779297 4.22234582901001 134.35594177246094 23.588136672973633 113.14022064208984" stroke-width="2.0" fill="none" stroke="rgb(0, 0, 0)" stroke-opacity="1" stroke-linecap="round" stroke-linejoin="round"/>
    <path d="M 117.74254608154297 142.45921325683594 C 99.94526672363281 159.73243713378906 123.78713989257812 130.97879028320312 103.01426696777344 125.09656524658203 C 121.1208267211914 109.45919799804688 103.55968475341797 132.1988067626953 116.39685821533203 137.46585083007812 C 102.48558044433594 144.49522399902344 112.66167449951172 161.23060607910156 75.69580841064453 171.00619506835938" stroke-width="2.0" fill="none" stroke="rgb(0, 0, 0)" stroke-opacity="1" stroke-linecap="round" stroke-linejoin="round"/>
    <path d="M 98.90223693847656 68.746337890625 C 86.76764678955078 62.09932327270508 122.9811019897461 69.91520690917969 120.89842987060547 90.4655990600586 C 129.1748504638672 79.42237854003906 129.61378479003906 81.4287109375 144.89764404296875 72.86322784423828" stroke-width="2.0" fill="none" stroke="rgb(0, 0, 0)" stroke-opacity="1" stroke-linecap="round" stroke-linejoin="round"/>
    <path d="M 73.41323852539062 192.40756225585938 C 27.651592254638672 196.95301818847656 51.847442626953125 206.95654296875 81.06282043457031 194.978271484375" stroke-width="2.0" fill="none" stroke="rgb(0, 0, 0)" stroke-opacity="1" stroke-linecap="round" stroke-linejoin="round"/>
    <path d="M 77.93497467041016 218.28810119628906 C 71.27241516113281 192.75169372558594 88.3573226928711 212.82510375976562 52.54664993286133 240.94940185546875 C 55.613731384277344 212.55946350097656 86.81370544433594 205.42491149902344 81.04353332519531 198.35923767089844 C 41.204811096191406 186.60426330566406 80.82752990722656 179.16436767578125 84.37528228759766 201.6757049560547" stroke-width="2.0" fill="none" stroke="rgb(0, 0, 0)" stroke-opacity="1" stroke-linecap="round" stroke-linejoin="round"/>
    <path d="M 182.334228515625 127.95992279052734 C 162.67672729492188 142.43345642089844 197.45779418945312 122.55702209472656 178.17868041992188 100.74565124511719" stroke-width="2.0" fill="none" stroke="rgb(0, 0, 0)" stroke-opacity="1" stroke-linecap="round" stroke-linejoin="round"/>
    <path d="M -13.925676345825195 162.30543518066406 C 31.50624656677246 170.8068084716797 44.87158966064453 153.78936767578125 24.10014533996582 141.50123596191406 C 14.009413719177246 160.5391845703125 19.7628116607666 175.4779052734375 44.910675048828125 160.44395446777344 C 42.8332405090332 182.96688842773438 53.57559585571289 188.65777587890625 73.46113586425781 186.11959838867188" stroke-width="2.0" fill="none" stroke="rgb(0, 0, 0)" stroke-opacity="1" stroke-linecap="round" stroke-linejoin="round"/>
    <path d="M 56.0770149230957 27.080854415893555 C 76.38058471679688 6.9413557052612305 54.51251983642578 12.599471092224121 41.33848190307617 21.536304473876953" stroke-width="2.0" fill="none" stroke="rgb(0, 0, 0)" stroke-opacity="1" stroke-linecap="round" stroke-linejoin="round"/>
    <path d="M 78.94575500488281 6.225708484649658 C 48.03247833251953 28.78573226928711 66.47472381591797 15.808148384094238 75.93536376953125 38.92177963256836 C 79.9682846069336 11.288045883178711 102.29015350341797 31.780969619750977 71.27727508544922 43.54401779174805" stroke-width="2.0" fill="none" stroke="rgb(0, 0, 0)" stroke-opacity="1" stroke-linecap="round" stroke-linejoin="round"/>
    <path d="M 198.35308837890625 14.892033576965332 C 208.4509735107422 5.609496593475342 231.9324188232422 37.49430465698242 210.72483825683594 27.646928787231445" stroke-width="2.0" fill="none" stroke="rgb(0, 0, 0)" stroke-opacity="1" stroke-linecap="round" stroke-linejoin="round"/>
    <path d="M -7.9837822914123535 114.55905151367188 C 28.64988136291504 108.38507080078125 16.198087692260742 105.40542602539062 17.904722213745117 113.74748992919922 C 17.743227005004883 111.68448638916016 12.135580062866211 74.924072265625 10.694498062133789 112.10482788085938" stroke-width="2.0" fill="none" stroke="rgb(0, 0, 0)" stroke-opacity="1" stroke-linecap="round" stroke-linejoin="round"/>
    <path d="M 150.794189453125 21.318937301635742 C 144.89683532714844 37.77487564086914 144.06973266601562 61.743927001953125 152.5156707763672 26.343772888183594 C 171.00564575195312 29.253173828125 138.09371948242188 36.743141174316406 122.81836700439453 58.713619232177734 C 163.085693359375 64.8092041015625 137.27159118652344 47.098419189453125 96.16070556640625 39.713199615478516" stroke-width="2.0" fill="none" stroke="rgb(0, 0, 0)" stroke-opacity="1" stroke-linecap="round" stroke-linejoin="round"/>
    <path d="M 120.8489761352539 173.32379150390625 C 103.885986328125 193.5428466796875 95.96605682373047 150.8824920654297 90.2322006225586 157.83546447753906 C 90.5841293334961 169.5636444091797 89.01028442382812 183.71446228027344 87.1852798461914 165.94461059570312" stroke-width="2.0" fill="none" stroke="rgb(0, 0, 0)" stroke-opacity="1" stroke-linecap="round" stroke-linejoin="round"/>
    <path d="M 105.55616760253906 93.22036743164062 C 117.55372619628906 119.68336486816406 117.66659545898438 101.30525207519531 97.45526123046875 89.80475616455078 C 98.2956771850586 93.46290588378906 119.8626937866211 85.47449493408203 109.0582046508789 121.42913818359375 C 96.53131866455078 113.34465789794922 102.93728637695312 118.79876708984375 115.64676666259766 138.7884979248047" stroke-width="2.0" fill="none" stroke="rgb(0, 0, 0)" stroke-opacity="1" stroke-linecap="round" stroke-linejoin="round"/>
    <path d="M 182.8682861328125 206.9118194580078 C 236.34881591796875 213.48782348632812 226.68702697753906 159.5043182373047 228.90011596679688 176.94155883789062 C 213.9196014404297 214.5320587158203 193.96737670898438 217.42047119140625 175.091552734375 208.93797302246094 C 173.3635711669922 231.78956604003906 217.59210205078125 211.06150817871094 186.2086944580078 225.13504028320312" stroke-width="2.0" fill="none" stroke="rgb(0, 0, 0)" stroke-opacity="1" stroke-linecap="round" stroke-linejoin="round"/>
    <path d="M 75.84260559082031 65.63627624511719 C 85.32303619384766 77.24622344970703 74.82715606689453 60.81693649291992 72.30423736572266 73.86609649658203" stroke-width="2.0" fill="none" stroke="rgb(0, 0, 0)" stroke-opacity="1" stroke-linecap="round" stroke-linejoin="round"/>
    <path d="M 183.06539916992188 125.39571380615234 C 154.30577087402344 95.28156280517578 198.10885620117188 86.4843978881836 186.4146270751953 130.68472290039062 C 221.9036865234375 147.3175811767578 221.7770538330078 134.02267456054688 227.8907470703125 100.18134307861328" stroke-width="2.0" fill="none" stroke="rgb(0, 0, 0)" stroke-opacity="1" stroke-linecap="round" stroke-linejoin="round"/>
    <path d="M 119.68728637695312 72.76713562011719 C 115.43700408935547 33.64116287231445 112.5051498413086 47.68973159790039 121.76499938964844 44.28517150878906 C 128.70745849609375 43.312252044677734 101.66571044921875 37.35520553588867 86.56594848632812 33.941524505615234" stroke-width="2.0" fill="none" stroke="rgb(0, 0, 0)" stroke-opacity="1" stroke-linecap="round" stroke-linejoin="round"/>
    <path d="M 107.95751953125 46.19903564453125 C 98.18582153320312 52.850303649902344 102.41332244873047 66.18700408935547 99.34355926513672 74.1226806640625 C 88.2998275756836 67.37519073486328 83.64585876464844 54.04861068725586 115.35713958740234 80.29630279541016 C 116.64611053466797 64.81156158447266 145.09878540039062 74.66039276123047 116.46302795410156 87.73434448242188" stroke-width="2.0" fill="none" stroke="rgb(0, 0, 0)" stroke-opacity="1" stroke-linecap="round" stroke-linejoin="round"/>
    <path d="M 112.46085357666016 190.74185180664062 C 102.01207733154297 221.1753387451172 142.5369415283203 226.22674560546875 129.18382263183594 199.93679809570312 C 127.05038452148438 175.6678466796875 137.38583374023438 184.70208740234375 148.46847534179688 212.04254150390625 C 139.19842529296875 211.04501342773438 129.95071411132812 187.07870483398438 149.03651428222656 185.14065551757812" stroke-width="2.0" fill="none" stroke="rgb(0, 0, 0)" stroke-opacity="1" stroke-linecap="round" stroke-linejoin="round"/>
    <path d="M 114.3115463256836 205.08316040039062 C 122.61637878417969 213.1492462158203 144.1946563720703 211.5058135986328 123.38875579833984 195.61141967773438 C 122.70553588867188 197.5550994873047 110.29560852050781 180.67117309570312 115.46430969238281 194.92784118652344" stroke-width="2.0" fill="none" stroke="rgb(0, 0, 0)" stroke-opacity="1" stroke-linecap="round" stroke-linejoin="round"/>
    <path d="M 156.11984252929688 58.94070053100586 C 157.03189086914062 58.13145446777344 162.91006469726562 103.00518798828125 188.71331787109375 75.35860443115234" stroke-width="2.0" fill="none" stroke="rgb(0, 0, 0)" stroke-opacity="1" stroke-linecap="round" stroke-linejoin="round"/>
    <path d="M 64.56583404541016 215.7406768798828 C 80.65633392333984 222.5810089111328 101.9133529663086 197.74574279785156 76.19175720214844 209.8021697998047 C 114.19679260253906 186.75100708007812 65.06658172607422 180.09242248535156 44.1209831237793 183.2793426513672" stroke-width="2.0" fill="none" stroke="rgb(0, 0, 0)" stroke-opacity="1" stroke-linecap="round" stroke-linejoin="round"/>
    <path d="M 150.72882080078125 177.880126953125 C 165.39292907714844 213.8140411376953 172.17294311523438 171.73080444335938 161.9900665283203 171.20184326171875 C 196.45089721679688 146.38172912597656 190.14309692382812 110.01378631591797 186.4286651611328 173.7114715576172 C 171.85546875 153.2711181640625 162.0704345703125 161.20458984375 189.0338592529297 195.07681274414062" stroke-width="2.0" fill="none" stroke="rgb(0, 0, 0)" stroke-opacity="1" stroke-linecap="round" stroke-linejoin="round"/>
    <path d="M 86.44860076904297 9.25514030456543 C 95.86298370361328 -3.1164753437042236 97.54192352294922 66.74128723144531 78.56132507324219 48.221839904785156 C 78.01625061035156 27.011335372924805 64.26617431640625 33.373748779296875 85.22509002685547 50.61960220336914" stroke-width="2.0" fill="none" stroke="rgb(0, 0, 0)" stroke-opacity="1" stroke-linecap="round" stroke-linejoin="round"/>
    <path d="M 163.34451293945312 92.17694091796875 C 150.43353271484375 84.03136444091797 161.67666625976562 106.57836151123047 157.8754425048828 108.94900512695312" stroke-width="2.0" fill="none" stroke="rgb(0, 0, 0)" stroke-opacity="1" stroke-linecap="round" stroke-linejoin="round"/>
    <path d="M 49.43922424316406 17.417236328125 C 56.10540008544922 36.61825942993164 55.1145133972168 21.218460083007812 54.85332107543945 42.95286560058594 C 18.378429412841797 56.271976470947266 24.561458587646484 36.22544479370117 44.189029693603516 40.183265686035156" stroke-width="2.0" fill="none" stroke="rgb(0, 0, 0)" stroke-opacity="1" stroke-linecap="round" stroke-linejoin="round"/>
    <path d="M 113.34432983398438 174.17332458496094 C 94.35640716552734 183.6754608154297 137.15406799316406 156.97567749023438 120.61568450927734 189.07798767089844" stroke-width="2.0" fill="none" stroke="rgb(0, 0, 0)" stroke-opacity="1" stroke-linecap="round" stroke-linejoin="round"/>
    <path d="M 206.6800994873047 55.05876541137695 C 231.88356018066406 89.95384979248047 236.1763458251953 103.66961669921875 228.93914794921875 132.07772827148438" stroke-width="2.0" fill="none" stroke="rgb(0, 0, 0)" stroke-opacity="1" stroke-linecap="round" stroke-linejoin="round"/>
    <path d="M 58.0676155090332 193.34854125976562 C 32.45849609375 212.10140991210938 21.190303802490234 211.52684020996094 22.444490432739258 159.5959014892578" stroke-width="2.0" fill="none" stroke="rgb(0, 0, 0)" stroke-opacity="1" stroke-linecap="round" stroke-linejoin="round"/>
    <path d="M 163.41319274902344 25.22340965270996 C 141.7139129638672 2.522531747817993 182.0709228515625 44.850624084472656 146.51344299316406 24.773998260498047" stroke-width="2.0" fill="none" stroke="rgb(0, 0, 0)" stroke-opacity="1" stroke-linecap="round" stroke-linejoin="round"/>
    <path d="M 150.66307067871094 71.97832489013672 C 158.58935546875 19.23308563232422 179.82635498046875 8.005266189575195 194.75430297851562 10.10120677947998" stroke-width="2.0" fill="none" stroke="rgb(0, 0, 0)" stroke-opacity="1" stroke-linecap="round" stroke-linejoin="round"/>
    <path d="M 30.28029441833496 77.52790069580078 C 17.65846061706543 84.36749267578125 39.510032653808594 68.38520812988281 29.15488624572754 58.452232360839844" stroke-width="2.0" fill="none" stroke="rgb(0, 0, 0)" stroke-opacity="1" stroke-linecap="round" stroke-linejoin="round"/>
    <path d="M 210.50115966796875 172.06631469726562 C 221.0031280517578 180.76097106933594 208.3742218017578 159.0328369140625 192.1230926513672 174.923095703125" stroke-width="2.0" fill="none" stroke="rgb(0, 0, 0)" stroke-opacity="1" stroke-linecap="round" stroke-linejoin="round"/>
    <path d="M 138.5253448486328 200.16563415527344 C 182.26470947265625 221.60328674316406 138.32736206054688 218.58279418945312 164.7309112548828 204.74905395507812 C 134.62132263183594 206.8909912109375 138.40310668945312 201.5153045654297 166.16152954101562 221.49087524414062 C 160.58163452148438 206.62693786621094 151.1681671142578 219.2601776123047 138.36273193359375 216.4176025390625" stroke-width="2.0" fill="none" stroke="rgb(0, 0, 0)" stroke-opacity="1" stroke-linecap="round" stroke-linejoin="round"/>
    <path d="M 49.272979736328125 40.64851760864258 C 81.09413146972656 64.10030364990234 47.14875030517578 61.63609313964844 59.35361862182617 69.39971160888672 C 88.71365356445312 71.30599212646484 117.2413330078125 71.12698364257812 96.21762084960938 38.00994873046875 C 88.2479476928711 48.98865509033203 100.85321807861328 49.55337142944336 126.23426818847656 43.85780715942383" stroke-width="2.0" fill="none" stroke="rgb(0, 0, 0)" stroke-opacity="1" stroke-linecap="round" stroke-linejoin="round"/>
    <path d="M 23.20646858215332 42.342742919921875 C 16.91707420349121 24.28199577331543 7.851117134094238 27.037553787231445 7.816777229309082 62.281410217285156 C 10.929208755493164 79.81836700439453 21.231365203857422 80.53407287597656 24.247289657592773 79.84078216552734 C -1.8586041927337646 52.89606857299805 13.655069351196289 18.329998016357422 41.5214958190918 19.339611053466797" stroke-width="2.0" fill="none" stroke="rgb(0, 0, 0)" stroke-opacity="1" stroke-linecap="round" stroke-linejoin="round"/>
    <path d="M 9.422568321228027 127.055908203125 C 37.42338180541992 99.44480895996094 16.335702896118164 80.52153015136719 30.410409927368164 81.32959747314453 C 6.7246904373168945 78.81629180908203 46.29013442993164 91.32855987548828 20.16490364074707 106.92926025390625 C -2.0063986778259277 110.95146942138672 32.96103286743164 106.00385284423828 13.325828552246094 103.43523406982422" stroke-width="2.0" fill="none" stroke="rgb(0, 0, 0)" stroke-opacity="1" stroke-linecap="round" stroke-linejoin="round"/>
    <path d="M 137.2103271484375 192.3882293701172 C 138.8748321533203 195.03274536132812 137.9655303955078 188.85032653808594 135.1329345703125 195.92684936523438" stroke-width="2.0" fill="none" stroke="rgb(0, 0, 0)" stroke-opacity="1" stroke-linecap="round" stroke-linejoin="round"/>
    <path d="M 183.044189453125 168.72854614257812 C 207.0010223388672 138.2275390625 203.00106811523438 97.98639678955078 190.58030700683594 148.21290588378906 C 158.37571716308594 143.90365600585938 191.8767852783203 125.4615478515625 176.2081756591797 160.4165496826172 C 170.42921447753906 180.91561889648438 200.90512084960938 172.72311401367188 201.451904296875 122.9771957397461" stroke-width="2.0" fill="none" stroke="rgb(0, 0, 0)" stroke-opacity="1" stroke-linecap="round" stroke-linejoin="round"/>
    <path d="M 56.36465072631836 33.436954498291016 C 67.08650207519531 39.308631896972656 58.69938659667969 18.62835693359375 82.13622283935547 -4.102386951446533 C 84.06268310546875 12.189188957214355 50.01087188720703 -9.356325149536133 74.4691162109375 7.12935209274292 C 72.56613159179688 1.7343004941940308 57.309383392333984 -2.8547279834747314 82.38431549072266 2.1907958984375" stroke-width="2.0" fill="none" stroke="rgb(0, 0, 0)" stroke-opacity="1" stroke-linecap="round" stroke-linejoin="round"/>
    <path d="M 187.25082397460938 166.68714904785156 C 167.84927368164062 179.47811889648438 143.86924743652344 207.12855529785156 150.1482696533203 159.62588500976562" stroke-width="2.0" fill="none" stroke="rgb(0, 0, 0)" stroke-opacity="1" stroke-linecap="round" stroke-linejoin="round"/>
    <path d="M 146.13674926757812 81.135498046875 C 135.2621612548828 102.08621978759766 94.68128204345703 92.43102264404297 106.05875396728516 110.94538116455078" stroke-width="2.0" fill="none" stroke="rgb(0, 0, 0)" stroke-opacity="1" stroke-linecap="round" stroke-linejoin="round"/>
    <path d="M 97.18094635009766 116.8113021850586 C 115.74458312988281 125.0641860961914 82.1571273803711 131.59034729003906 88.59957885742188 131.4573974609375 C 102.85741424560547 114.8824691772461 82.89751434326172 136.59156799316406 75.69605255126953 141.92613220214844" stroke-width="2.0" fill="none" stroke="rgb(0, 0, 0)" stroke-opacity="1" stroke-linecap="round" stroke-linejoin="round"/>
    <path d="M 27.982025146484375 140.0961456298828 C 3.308868885040283 145.60696411132812 2.925748348236084 165.66481018066406 29.470359802246094 186.0372314453125" stroke-width="2.0" fill="none" stroke="rgb(0, 0, 0)" stroke-opacity="1" stroke-linecap="round" stroke-linejoin="round"/>
    <path d="M 93.44857025146484 120.3390121459961 C 67.0495376586914 89.88102722167969 99.24734497070312 83.29776000976562 107.10440826416016 96.37565612792969 C 97.1677017211914 79.6894302368164 61.451820373535156 107.41848754882812 87.82843780517578 66.65441131591797" stroke-width="2.0" fill="none" stroke="rgb(0, 0, 0)" stroke-opacity="1" stroke-linecap="round" stroke-linejoin="round"/>
    <path d="M 44.72316360473633 171.08447265625 C 65.29905700683594 193.34226989746094 53.377464294433594 198.8672637939453 41.30937194824219 173.82723999023438" stroke-width="2.0" fill="none" stroke="rgb(0, 0, 0)" stroke-opacity="1" stroke-linecap="round" stroke-linejoin="round"/>
    <path d="M -1.7127338647842407 16.83512306213379 C 6.177602291107178 -14.43041706085205 22.149930953979492 -4.913221836090088 32.487850189208984 17.857210159301758 C 25.081212997436523 -31.09526824951172 28.232952117919922 -33.1590690612793 13.178304672241211 -35.334835052490234 C -4.130971431732178 -20.379884719848633 -3.049565076828003 -27.538949966430664 5.685708999633789 -31.55010223388672" stroke-width="2.0" fill="none" stroke="rgb(0, 0, 0)" stroke-opacity="1" stroke-linecap="round" stroke-linejoin="round"/>
    <path d="M -3.0282981395721436 41.65212631225586 C -17.588918685913086 36.67363739013672 -2.2456960678100586 31.95207405090332 11.956454277038574 47.210079193115234 C 12.706673622131348 17.101274490356445 29.32620620727539 18.759933471679688 26.60488510131836 30.464616775512695 C 26.657636642456055 10.528671264648438 23.057998657226562 -14.416789054870605 41.691680908203125 10.83655071258545" stroke-width="2.0" fill="none" stroke="rgb(0, 0, 0)" stroke-opacity="1" stroke-linecap="round" stroke-linejoin="round"/>
    <path d="M 83.83662414550781 229.04222106933594 C 125.081787109375 223.92111206054688 114.13038635253906 210.39291381835938 91.04879760742188 226.97006225585938" stroke-width="2.0" fill="none" stroke="rgb(0, 0, 0)" stroke-opacity="1" stroke-linecap="round" stroke-linejoin="round"/>
    <path d="M 227.39822387695312 138.3721466064453 C 221.67750549316406 129.2070770263672 237.4513397216797 137.5468292236328 242.3990936279297 132.66807556152344 C 238.08657836914062 111.82221221923828 233.88397216796875 108.5768051147461 234.0548858642578 100.20431518554688" stroke-width="2.0" fill="none" stroke="rgb(0, 0, 0)" stroke-opacity="1" stroke-linecap="round" stroke-linejoin="round"/>
    <path d="M 169.96640014648438 108.96956634521484 C 195.8787841796875 92.67616271972656 185.66722106933594 95.44043731689453 181.4054412841797 83.47940063476562 C 192.6999053955078 63.39607238769531 197.06272888183594 44.15586471557617 194.0609130859375 119.05303192138672" stroke-width="2.0" fill="none" stroke="rgb(0, 0, 0)" stroke-opacity="1" stroke-linecap="round" stroke-linejoin="round"/>
    <path d="M 74.69310760498047 94.20487976074219 C 80.5441665649414 67.35295867919922 84.07601928710938 61.01728057861328 75.02582550048828 85.11787414550781 C 67.61129760742188 100.35679626464844 45.0777702331543 70.77241516113281 59.415401458740234 79.61188507080078 C 70.34916687011719 49.86748123168945 83.31256866455078 79.10918426513672 82.28742218017578 92.14408111572266" stroke-width="2.0" fill="none" stroke="rgb(0, 0, 0)" stroke-opacity="1" stroke-linecap="round" stroke-linejoin="round"/>
    <path d="M 95.31592559814453 98.3700942993164 C 91.06941986083984 125.00798797607422 128.4058380126953 81.35929107666016 101.91931915283203 120.75839233398438 C 95.99525451660156 125.72927856445312 147.8498077392578 133.26222229003906 127.17961120605469 136.5224609375" stroke-width="2.0" fill="none" stroke="rgb(0, 0, 0)" stroke-opacity="1" stroke-linecap="round" stroke-linejoin="round"/>
    <path d="M 177.74111938476562 48.70524597167969 C 201.19969177246094 53.61018371582031 176.409912109375 14.976998329162598 168.14041137695312 42.86294174194336 C 159.279541015625 67.58171844482422 162.9676055908203 20.575292587280273 171.8199005126953 37.868648529052734 C 159.8761749267578 32.41009521484375 168.3676300048828 50.96128845214844 180.70205688476562 51.289878845214844" stroke-width="2.0" fill="none" stroke="rgb(0, 0, 0)" stroke-opacity="1" stroke-linecap="round" stroke-linejoin="round"/>
    <path d="M 8.75774097442627 95.5538558959961 C 16.970273971557617 91.53845977783203 24.742841720581055 78.44937133789062 17.06588363647461 78.06403350830078 C -5.5087385177612305 75.36595153808594 -6.770069122314453 87.30170440673828 -12.116122245788574 100.80004119873047 C 2.4928925037384033 123.38732147216797 -4.225672245025635 139.35220336914062 -6.82657527923584 123.75348663330078" stroke-width="2.0" fill="none" stroke="rgb(0, 0, 0)" stroke-opacity="1" stroke-linecap="round" stroke-linejoin="round"/>
    <path d="M 165.3900604248047 133.5059356689453 C 175.8363800048828 146.94955444335938 183.23397827148438 114.4412612915039 165.69921875 108.80307006835938 C 166.40309143066406 108.00363159179688 174.61288452148438 108.58121490478516 136.5308837890625 110.82766723632812" stroke-width="2.0" fill="none" stroke="rgb(0, 0, 0)" stroke-opacity="1" stroke-linecap="round" stroke-linejoin="round"/>
    <path d="M -6.159003257751465 156.72190856933594 C 19.425966262817383 156.13868713378906 8.940092086791992 151.869384765625 -9.663156509399414 144.8890380859375 C 2.486661911010742 146.85992431640625 -14.109095573425293 151.13856506347656 -20.95484733581543 145.6561737060547 C -9.68140983581543 162.63888549804688 -4.42891788482666 170.83995056152344 -4.557979583740234 172.73963928222656" stroke-width="2.0" fill="none" stroke="rgb(0, 0, 0)" stroke-opacity="1" stroke-linecap="round" stroke-linejoin="round"/>
    <path d="M 109.75920104980469 103.1790771484375 C 74.62796020507812 106.94247436523438 97.56333923339844 78.21739959716797 91.24488830566406 106.23524475097656" stroke-width="2.0" fill="none" stroke="rgb(0, 0, 0)" stroke-opacity="1" stroke-linecap="round" stroke-linejoin="round"/>
    <path d="M 177.4763641357422 175.9472198486328 C 204.32688903808594 130.7530975341797 195.05738830566406 147.5049285888672 164.2856903076172 169.1110382080078 C 163.61819458007812 202.4484100341797 191.8008575439453 205.05075073242188 193.73123168945312 204.6294403076172 C 205.33213806152344 211.20578002929688 235.96592712402344 182.59976196289062 221.5460968017578 166.9951629638672" stroke-width="2.0" fill="none" stroke="rgb(0, 0, 0)" stroke-opacity="1" stroke-linecap="round" stroke-linejoin="round"/>
    <path d="M 146.90872192382812 48.74076843261719 C 156.32818603515625 97.80535888671875 197.56005859375 86.33133697509766 173.56227111816406 81.63652038574219 C 157.55255126953125 70.75926971435547 156.94830322265625 49.855369567871094 156.8659210205078 42.14692306518555 C 148.72569274902344 68.49134063720703 141.8525848388672 75.00992584228516 154.87445068359375 59.87721633911133" stroke-width="2.0" fill="none" stroke="rgb(0, 0, 0)" stroke-opacity="1" stroke-linecap="round" stroke-linejoin="round"/>
    <path d="M 120.80049133300781 150.76109313964844 C 150.6125030517578 168.37037658691406 143.8496551513672 156.53318786621094 140.26922607421875 160.9852294921875 C 122.76300048828125 154.60154724121094 156.6270294189453 159.10157775878906 137.564453125 158.9595489501953" stroke-width="2.0" fill="none" stroke="rgb(0, 0, 0)" stroke-opacity="1" stroke-linecap="round" stroke-linejoin="round"/>
    <path d="M -3.157013416290283 176.04925537109375 C 19.63433074951172 183.99099731445312 15.671451568603516 158.00662231445312 1.378770112991333 165.07969665527344 C 4.660235404968262 198.70790100097656 -7.023230075836182 195.5288543701172 -24.061594009399414 210.21356201171875 C -8.260704040527344 229.88038635253906 12.936173439025879 210.0961456298828 -1.1730965375900269 192.1061553955078" stroke-width="2.0" fill="none" stroke="rgb(0, 0, 0)" stroke-opacity="1" stroke-linecap="round" stroke-linejoin="round"/>
    <path d="M 4.502688884735107 166.62127685546875 C -17.457529067993164 181.1600341796875 -6.999837398529053 187.9974365234375 -3.9215755462646484 163.95603942871094 C 59.46979522705078 149.97120666503906 48.65919876098633 160.8470458984375 24.72771644592285 165.39134216308594" stroke-width="2.0" fill="none" stroke="rgb(0, 0, 0)" stroke-opacity="1" stroke-linecap="round" stroke-linejoin="round"/>
    <path d="M 57.136474609375 136.35032653808594 C 46.27397537231445 131.2742462158203 35.11756896972656 114.21651458740234 82.85157775878906 136.59188842773438 C 72.35527801513672 113.93653106689453 47.92025375366211 99.19075012207031 50.54207992553711 118.60768127441406" stroke-width="2.0" fill="none" stroke="rgb(0, 0, 0)" stroke-opacity="1" stroke-linecap="round" stroke-linejoin="round"/>
    <path d="M 58.37955856323242 8.107779502868652 C 27.380950927734375 -21.55654525756836 45.326961517333984 21.66838836669922 20.64713478088379 30.179336547851562 C 32.32649230957031 23.48649787902832 32.143280029296875 32.72298049926758 35.22923278808594 41.71341323852539 C 33.360408782958984 18.661266326904297 -1.612012267112732 19.684505462646484 62.418182373046875 23.040830612182617" stroke-width="2.0" fill="none" stroke="rgb(0, 0, 0)" stroke-opacity="1" stroke-linecap="round" stroke-linejoin="round"/>
    <path d="M 59.84567642211914 127.73529815673828 C 76.11204528808594 131.1566619873047 35.90860366821289 126.5430908203125 44.843807220458984 106.7740707397461 C 44.8054313659668 126.69890594482422 63.97960662841797 148.66888427734375 80.689453125 131.7144317626953 C 53.442176818847656 127.96407318115234 60.081050872802734 134.3398895263672 80.4604721069336 130.48870849609375" stroke-width="2.0" fill="none" stroke="rgb(0, 0, 0)" stroke-opacity="1" stroke-linecap="round" stroke-linejoin="round"/>
    <path d="M 152.65069580078125 57.67081069946289 C 160.53533935546875 62.719017028808594 156.05923461914062 90.8006591796875 154.55738830566406 46.98234939575195 C 139.37339782714844 77.736328125 128.4804229736328 80.4032211303711 143.77882385253906 77.90240478515625 C 141.82508850097656 94.07449340820312 134.1414031982422 65.16841888427734 134.37838745117188 73.27091217041016" stroke-width="2.0" fill="none" stroke="rgb(0, 0, 0)" stroke-opacity="1" stroke-linecap="round" stroke-linejoin="round"/>
    <path d="M 131.3457489013672 94.65863800048828 C 162.497314453125 59.03999328613281 143.3018798828125 56.98166275024414 148.2916259765625 77.16207122802734" stroke-width="2.0" fill="none" stroke="rgb(0, 0, 0)" stroke-opacity="1" stroke-linecap="round" stroke-linejoin="round"/>
    <path d="M 104.3825454711914 122.1759033203125 C 84.6312255859375 192.4739990234375 109.05192565917969 163.76919555664062 113.57052612304688 135.49139404296875 C 112.17994689941406 158.5746612548828 128.7229461669922 154.14218139648438 141.5682373046875 143.0164337158203" stroke-width="2.0" fill="none" stroke="rgb(0, 0, 0)" stroke-opacity="1" stroke-linecap="round" stroke-linejoin="round"/>
    <path d="M 77.91920471191406 172.23703002929688 C 113.01447296142578 164.14964294433594 122.239501953125 151.1658172607422 107.27104187011719 122.21806335449219 C 60.66627883911133 140.6162567138672 103.79666137695312 163.48487854003906 114.00254821777344 112.1180191040039" stroke-width="2.0" fill="none" stroke="rgb(0, 0, 0)" stroke-opacity="1" stroke-linecap="round" stroke-linejoin="round"/>
    <path d="M -3.0504539012908936 58.607154846191406 C -1.2868813276290894 30.892017364501953 -16.5992431640625 10.397985458374023 -2.220799446105957 29.862293243408203" stroke-width="2.0" fill="none" stroke="rgb(0, 0, 0)" stroke-opacity="1" stroke-linecap="round" stroke-linejoin="round"/>
    <path d="M 186.96485900878906 170.2717742919922 C 196.75790405273438 163.3012237548828 235.43775939941406 161.41107177734375 213.65643310546875 196.9481964111328 C 227.5684814453125 212.32899475097656 253.83230590820312 195.3667755126953 242.13092041015625 176.78585815429688 C 231.2727508544922 187.43893432617188 218.39385986328125 226.34765625 223.91383361816406 207.1588134765625" stroke-width="2.0" fill="none" stroke="rgb(0, 0, 0)" stroke-opacity="1" stroke-linecap="round" stroke-linejoin="round"/>
    <path d="M 107.7063980102539 154.41517639160156 C 118.6569595336914 97.9029541015625 123.64762878417969 130.79275512695312 118.65795135498047 141.62721252441406 C 126.97981262207031 115.34146118164062 105.40896606445312 120.46330261230469 125.72413635253906 126.40501403808594 C 115.20496368408203 106.37612915039062 166.8285675048828 124.85594177246094 133.95884704589844 138.13327026367188" stroke-width="2.0" fill="none" stroke="rgb(0, 0, 0)" stroke-opacity="1" stroke-linecap="round" stroke-linejoin="round"/>
    <path d="M 151.8664093017578 122.36471557617188 C 171.32533264160156 124.22058868408203 163.02828979492188 132.67649841308594 137.02552795410156 120.73255157470703" stroke-width="2.0" fill="none" stroke="rgb(0, 0, 0)" stroke-opacity="1" stroke-linecap="round" stroke-linejoin="round"/>
    <path d="M 16.48693084716797 55.73888397216797 C 3.7556302547454834 73.1571273803711 31.251171112060547 75.46403503417969 15.971412658691406 96.93212890625 C 42.40394973754883 81.04891204833984 29.47477149963379 74.81249237060547 26.11168670654297 63.38411331176758 C 12.18992805480957 86.29271697998047 4.127724647521973 38.40477752685547 31.747758865356445 71.08138275146484" stroke-width="2.0" fill="none" stroke="rgb(0, 0, 0)" stroke-opacity="1" stroke-linecap="round" stroke-linejoin="round"/>
    <path d="M 205.18455505371094 110.34147644042969 C 190.77940368652344 80.42107391357422 206.0893096923828 73.10050201416016 192.70721435546875 103.70639038085938 C 206.36453247070312 153.33065795898438 193.86598205566406 140.3130340576172 198.10728454589844 105.19941711425781 C 201.79598999023438 102.96725463867188 204.61138916015625 114.30512237548828 193.2364959716797 76.11766815185547" stroke-width="2.0" fill="none" stroke="rgb(0, 0, 0)" stroke-opacity="1" stroke-linecap="round" stroke-linejoin="round"/>
    <path d="M 188.83203125 160.85841369628906 C 163.21005249023438 132.6107940673828 177.85491943359375 158.67630004882812 178.21609497070312 116.37025451660156" stroke-width="2.0" fill="none" stroke="rgb(0, 0, 0)" stroke-opacity="1" stroke-linecap="round" stroke-linejoin="round"/>
    <path d="M -5.628504276275635 64.60209655761719 C 19.29884147644043 72.29208374023438 0.1661691516637802 52.30933380126953 22.57354164123535 31.733943939208984" stroke-width="2.0" fill="none" stroke="rgb(0, 0, 0)" stroke-opacity="1" stroke-linecap="round" stroke-linejoin="round"/>
    <path d="M 133.7381134033203 216.99986267089844 C 99.64988708496094 207.42259216308594 95.97856903076172 191.4723663330078 112.15046691894531 202.5567169189453 C 124.14205169677734 232.26455688476562 160.8213653564453 225.27467346191406 161.82325744628906 233.18780517578125" stroke-width="2.0" fill="none" stroke="rgb(0, 0, 0)" stroke-opacity="1" stroke-linecap="round" stroke-linejoin="round"/>
    <path d="M 109.99390411376953 163.66775512695312 C 78.97787475585938 139.5407257080078 89.06761932373047 117.2009048461914 84.62834930419922 120.55938720703125 C 68.48697662353516 155.30157470703125 78.05828094482422 173.27110290527344 112.64920043945312 151.38931274414062" stroke-width="2.0" fill="none" stroke="rgb(0, 0, 0)" stroke-opacity="1" stroke-linecap="round" stroke-linejoin="round"/>
    <path d="M 73.25939178466797 189.97720336914062 C 29.58889389038086 180.24749755859375 58.62660217285156 174.1578369140625 80.79248809814453 215.85301208496094" stroke-width="2.0" fill="none" stroke="rgb(0, 0, 0)" stroke-opacity="1" stroke-linecap="round" stroke-linejoin="round"/>
    <path d="M 107.15499877929688 38.766937255859375 C 63.513824462890625 42.41996383666992 70.01527404785156 54.98051834106445 68.55889892578125 -3.871354579925537 C 43.8305549621582 2.8184471130371094 56.67863845825195 29.300582885742188 48.98260498046875 17.545635223388672 C 31.30086898803711 15.311543464660645 47.17845916748047 -11.677186012268066 50.74409866333008 8.068134307861328" stroke-width="2.0" fill="none" stroke="rgb(0, 0, 0)" stroke-opacity="1" stroke-linecap="round" stroke-linejoin="round"/>
    <path d="M 14.099639892578125 52.90547180175781 C 17.45326805114746 78.4464340209961 37.306861877441406 54.93199157714844 17.213647842407227 49.02524185180664 C 7.877876281738281 47.95355987548828 0.9270614981651306 87.10428619384766 32.103004455566406 82.12001037597656 C 36.861053466796875 51.73945236206055 21.196168899536133 75.505859375 44.36978530883789 68.88533020019531" stroke-width="2.0" fill="none" stroke="rgb(0, 0, 0)" stroke-opacity="1" stroke-linecap="round" stroke-linejoin="round"/>
    <path d="M 95.39745330810547 112.3551254272461 C 120.85139465332031 123.52384185791016 105.3438949584961 107.17117309570312 87.59993743896484 98.38883209228516" stroke-width="2.0" fill="none" stroke="rgb(0, 0, 0)" stroke-opacity="1" stroke-linecap="round" stroke-linejoin="round"/>
    <path d="M 143.435302734375 44.37657928466797 C 154.85995483398438 20.122150421142578 146.1204833984375 29.437671661376953 162.1871337890625 33.162437438964844 C 136.010498046875 44.813995361328125 131.16346740722656 35.11749267578125 139.71400451660156 46.50825119018555 C 118.75789642333984 41.579158782958984 121.9835433959961 51.08907699584961 85.9118423461914 35.063987731933594" stroke-width="2.0" fill="none" stroke="rgb(0, 0, 0)" stroke-opacity="1" stroke-linecap="round" stroke-linejoin="round"/>
    <path d="M -5.0195159912109375 57.583309173583984 C -8.914795875549316 56.868404388427734 -8.574911117553711 48.254154205322266 -6.5188469886779785 54.00240707397461 C -11.127969741821289 60.342491149902344 -15.14141845703125 56.45566940307617 -6.661794185638428 27.993751525878906" stroke-width="2.0" fill="none" stroke="rgb(0, 0, 0)" stroke-opacity="1" stroke-linecap="round" stroke-linejoin="round"/>
    <path d="M 64.53092193603516 28.028955459594727 C 69.13230895996094 2.9424922466278076 103.4630355834961 2.032745599746704 122.11217498779297 -3.107867479324341 C 72.30677032470703 2.6160545349121094 105.35281372070312 -7.07063102722168 105.75767517089844 -27.032695770263672" stroke-width="2.0" fill="none" stroke="rgb(0, 0, 0)" stroke-opacity="1" stroke-linecap="round" stroke-linejoin="round"/>
    <path d="M 136.18321228027344 49.705570220947266 C 151.46559143066406 56.16939926147461 113.79740905761719 43.35593032836914 129.88499450683594 49.60667419433594" stroke-width="2.0" fill="none" stroke="rgb(0, 0, 0)" stroke-opacity="1" stroke-linecap="round" stroke-linejoin="round"/>
    <path d="M 179.10887145996094 92.17943572998047 C 207.2396240234375 52.6640510559082 207.90853881835938 71.7669448852539 203.5105438232422 136.6016387939453" stroke-width="2.0" fill="none" stroke="rgb(0, 0, 0)" stroke-opacity="1" stroke-linecap="round" stroke-linejoin="round"/>
    <path d="M 191.26280212402344 108.30311584472656 C 184.83396911621094 174.4828643798828 198.4416046142578 154.49403381347656 196.3339080810547 107.87484741210938 C 231.20985412597656 91.71729278564453 218.26272583007812 106.08419799804688 237.2587127685547 124.83821868896484 C 236.53543090820312 108.95045471191406 219.2311553955078 107.8006820678711 195.74046325683594 107.99847412109375" stroke-width="2.0" fill="none" stroke="rgb(0, 0, 0)" stroke-opacity="1" stroke-linecap="round" stroke-linejoin="round"/>
    <path d="M 137.63819885253906 93.38837432861328 C 113.551513671875 102.15454864501953 135.91123962402344 80.39596557617188 116.93328857421875 74.19239044189453 C 128.7606658935547 105.84786224365234 156.75442504882812 107.52228546142578 124.08478546142578 103.16365051269531" stroke-width="2.0" fill="none" stroke="rgb(0, 0, 0)" stroke-opacity="1" stroke-linecap="round" stroke-linejoin="round"/>
    <path d="M 43.80110549926758 196.36814880371094 C 44.54338455200195 219.73684692382812 75.93875885009766 197.04034423828125 94.71501159667969 211.10203552246094 C 52.90681457519531 220.8015899658203 35.89422607421875 207.47702026367188 16.565465927124023 173.88253784179688 C 10.710857391357422 197.9999237060547 34.62208938598633 191.97958374023438 84.42222595214844 202.048095703125" stroke-width="2.0" fill="none" stroke="rgb(0, 0, 0)" stroke-opacity="1" stroke-linecap="round" stroke-linejoin="round"/>
    <path d="M 88.0162353515625 229.51287841796875 C 107.92989349365234 207.66444396972656 110.61981964111328 220.4445037841797 134.7875518798828 225.77713012695312 C 117.79249572753906 236.83087158203125 123.885009765625 238.53805541992188 128.59588623046875 244.23370361328125 C 127.8930892944336 254.4852294921875 134.76608276367188 254.0860595703125 132.60891723632812 254.7180633544922" stroke-width="2.0" fill="none" stroke="rgb(0, 0, 0)" stroke-opacity="1" stroke-linecap="round" stroke-linejoin="round"/>
    <path d="M 194.68621826171875 98.91708374023438 C 204.07070922851562 107.30461883544922 238.77655029296875 94.6603775024414 203.544189453125 81.76564025878906 C 186.95416259765625 60.5368766784668 203.23822021484375 87.11101531982422 206.87777709960938 114.7034683227539" stroke-width="2.0" fill="none" stroke="rgb(0, 0, 0)" stroke-opacity="1" stroke-linecap="round" stroke-linejoin="round"/>
    <path d="M 181.80064392089844 2.8946235179901123 C 133.08770751953125 -2.026421070098877 126.98116302490234 32.633853912353516 166.67178344726562 21.7785701751709 C 148.18174743652344 -2.122217893600464 182.61561584472656 15.225627899169922 161.1375274658203 14.577977180480957 C 168.8229522705078 22.212072372436523 158.82403564453125 4.955521106719971 117.49615478515625 -4.668008804321289" stroke-width="2.0" fill="none" stroke="rgb(0, 0, 0)" stroke-opacity="1" stroke-linecap="round" stroke-linejoin="round"/>
    <path d="M 15.299284934997559 142.96482849121094 C -9.044417381286621 146.0181427001953 13.109079360961914 178.1145782470703 23.42630958557129 187.87612915039062 C 2.8746838569641113 166.8857879638672 4.300609588623047 138.01820373535156 2.683645009994507 127.77085876464844 C -23.18783187866211 129.43746948242188 -33.55268096923828 137.7835693359375 16.85601234436035 126.47157287597656" stroke-width="2.0" fill="none" stroke="rgb(0, 0, 0)" stroke-opacity="1" stroke-linecap="round" stroke-linejoin="round"/>
    <path d="M 58.31797790527344 60.89676284790039 C 31.3946533203125 72.79212951660156 76.7724838256836 108.12620544433594 66.22377014160156 83.48400115966797" stroke-width="2.0" fill="none" stroke="rgb(0, 0, 0)" stroke-opacity="1" stroke-linecap="round" stroke-linejoin="round"/>
    <path d="M 140.82911682128906 200.50852966308594 C 160.50616455078125 206.8369598388672 144.78500366210938 224.0762481689453 137.7557373046875 216.26364135742188" stroke-width="2.0" fill="none" stroke="rgb(0, 0, 0)" stroke-opacity="1" stroke-linecap="round" stroke-linejoin="round"/>
    <path d="M 152.2361297607422 42.217376708984375 C 160.51617431640625 38.39078903198242 145.85531616210938 67.57170104980469 152.04954528808594 54.749656677246094 C 136.82301330566406 46.80097961425781 104.0039291381836 45.238643646240234 112.24634552001953 47.162391662597656 C 128.55581665039062 72.19294738769531 121.78324890136719 64.63819122314453 111.00421905517578 82.30113220214844" stroke-width="2.0" fill="none" stroke="rgb(0, 0, 0)" stroke-opacity="1" stroke-linecap="round" stroke-linejoin="round"/>
    <path d="M 90.95631408691406 46.255611419677734 C 164.3454132080078 42.28647994995117 107.4757080078125 77.0246810913086 96.96945190429688 48.80527877807617" stroke-width="2.0" fill="none" stroke="rgb(0, 0, 0)" stroke-opacity="1" stroke-linecap="round" stroke-linejoin="round"/>
    <path d="M 185.77561950683594 133.1537628173828 C 172.35018920898438 173.0968475341797 145.54466247558594 176.65130615234375 143.39321899414062 157.68553161621094" stroke-width="2.0" fill="none" stroke="rgb(0, 0, 0)" stroke-opacity="1" stroke-linecap="round" stroke-linejoin="round"/>
    <path d="M 58.99489212036133 228.5706024169922 C 70.44661712646484 232.81459045410156 74.59117889404297 234.3138427734375 85.51019287109375 237.35043334960938" stroke-width="2.0" fill="none" stroke="rgb(0, 0, 0)" stroke-opacity="1" stroke-linecap="round" stroke-linejoin="round"/>
    <path d="M 151.54510498046875 54.93246078491211 C 144.95567321777344 31.983789443969727 169.13470458984375 72.78474426269531 138.77854919433594 92.76620483398438 C 111.96845245361328 54.68465042114258 119.18915557861328 43.495391845703125 138.65805053710938 53.839515686035156" stroke-width="2.0" fill="none" stroke="rgb(0, 0, 0)" stroke-opacity="1" stroke-linecap="round" stroke-linejoin="round"/>
    <path d="M 78.449462890625 36.258514404296875 C 101.64055633544922 18.85923957824707 129.9429168701172 5.121875762939453 115.61014556884766 29.797639846801758 C 116.12429809570312 49.23290252685547 123.18358612060547 7.591163158416748 85.9289779663086 8.241332054138184" stroke-width="2.0" fill="none" stroke="rgb(0, 0, 0)" stroke-opacity="1" stroke-linecap="round" stroke-linejoin="round"/>
    <path d="M 102.29113006591797 35.067195892333984 C 84.26669311523438 39.860286712646484 53.58913040161133 42.9718017578125 66.94601440429688 9.327441215515137" stroke-width="2.0" fill="none" stroke="rgb(0, 0, 0)" stroke-opacity="1" stroke-linecap="round" stroke-linejoin="round"/>
    <path d="M 192.82467651367188 37.36259460449219 C 196.1197967529297 52.73902130126953 186.8644561767578 87.348388671875 196.88523864746094 49.25209426879883" stroke-width="2.0" fill="none" stroke="rgb(0, 0, 0)" stroke-opacity="1" stroke-linecap="round" stroke-linejoin="round"/>
    <path d="M 64.7528076171875 184.87396240234375 C 69.9322509765625 143.7696990966797 34.72360610961914 166.193603515625 59.81721878051758 180.54248046875" stroke-width="2.0" fill="none" stroke="rgb(0, 0, 0)" stroke-opacity="1" stroke-linecap="round" stroke-linejoin="round"/>
    <path d="M 138.13314819335938 57.05127716064453 C 141.99298095703125 43.64323806762695 151.72210693359375 66.19786834716797 138.55538940429688 79.47535705566406 C 132.01348876953125 61.78297424316406 120.48310852050781 97.34186553955078 141.85565185546875 75.16647338867188" stroke-width="2.0" fill="none" stroke="rgb(0, 0, 0)" stroke-opacity="1" stroke-linecap="round" stroke-linejoin="round"/>
    <path d="M 192.35894775390625 95.68180084228516 C 191.64825439453125 26.930828094482422 224.53414916992188 27.17143440246582 184.8648223876953 87.82136535644531" stroke-width="2.0" fill="none" stroke="rgb(0, 0, 0)" stroke-opacity="1" stroke-linecap="round" stroke-linejoin="round"/>
    <path d="M 67.81533813476562 167.55075073242188 C 56.979774475097656 180.2272186279297 89.33712005615234 192.34869384765625 52.898441314697266 177.6243438720703 C 68.36481475830078 182.21078491210938 86.62478637695312 183.1285400390625 81.89946746826172 216.72593688964844" stroke-width="2.0" fill="none" stroke="rgb(0, 0, 0)" stroke-opacity="1" stroke-linecap="round" stroke-linejoin="round"/>
    <path d="M 228.71665954589844 43.526981353759766 C 220.8802947998047 71.56046295166016 231.00965881347656 67.33842468261719 250.74705505371094 72.96493530273438 C 250.60707092285156 35.9035530090332 247.08120727539062 26.341747283935547 225.62681579589844 53.4893913269043 C 225.0780792236328 30.54953956604004 214.7364044189453 8.1049222946167 195.84249877929688 -1.2535009384155273" stroke-width="2.0" fill="none" stroke="rgb(0, 0, 0)" stroke-opacity="1" stroke-linecap="round" stroke-linejoin="round"/>
    <path d="M 92.5909652709961 115.31237030029297 C 69.89795684814453 82.10454559326172 113.30730438232422 64.74797821044922 124.5682601928711 115.14022064208984 C 131.52037048339844 131.5506134033203 98.81068420410156 101.21068572998047 85.64740753173828 124.06717681884766 C 92.68768310546875 127.28868103027344 117.15119934082031 139.47311401367188 121.94959259033203 111.86458587646484" stroke-width="2.0" fill="none" stroke="rgb(0, 0, 0)" stroke-opacity="1" stroke-linecap="round" stroke-linejoin="round"/>
    <path d="M 169.0785369873047 128.47447204589844 C 140.38467407226562 131.1519317626953 125.87195587158203 117.3077392578125 141.2797088623047 110.4055404663086 C 127.09280395507812 102.67977142333984 152.79220581054688 129.64898681640625 133.56019592285156 134.22760009765625 C 136.98081970214844 162.80841064453125 161.02931213378906 138.78872680664062 122.82173156738281 135.72142028808594" stroke-width="2.0" fill="none" stroke="rgb(0, 0, 0)" stroke-opacity="1" stroke-linecap="round" stroke-linejoin="round"/>
    <path d="M 202.55113220214844 94.2248764038086 C 187.5992431640625 130.86373901367188 202.17686462402344 138.69219970703125 200.56080627441406 109.76751708984375 C 205.16073608398438 117.10478973388672 198.10910034179688 123.73902130126953 190.95208740234375 142.65208435058594" stroke-width="2.0" fill="none" stroke="rgb(0, 0, 0)" stroke-opacity="1" stroke-linecap="round" stroke-linejoin="round"/>
    <path d="M 10.782365798950195 56.72306442260742 C 35.00149154663086 73.65741729736328 28.691064834594727 34.54425811767578 46.66413497924805 37.51073455810547 C 57.82997131347656 39.79587173461914 39.493446350097656 41.01057052612305 13.444700241088867 55.7927360534668 C 21.187633514404297 70.28833770751953 32.20234298706055 24.502803802490234 40.1093635559082 46.64623260498047" stroke-width="2.0" fill="none" stroke="rgb(0, 0, 0)" stroke-opacity="1" stroke-linecap="round" stroke-linejoin="round"/>
    <path d="M 27.17058753967285 17.737606048583984 C 46.05824279785156 34.89889144897461 25.970678329467773 39.535888671875 28.04903221130371 65.03091430664062" stroke-width="2.0" fill="none" stroke="rgb(0, 0, 0)" stroke-opacity="1" stroke-linecap="round" stroke-linejoin="round"/>
    <path d="M 131.598876953125 189.81338500976562 C 149.87628173828125 195.42015075683594 132.312255859375 200.9982452392578 117.7610855102539 197.82791137695312" stroke-width="2.0" fill="none" stroke="rgb(0, 0, 0)" stroke-opacity="1" stroke-linecap="round" stroke-linejoin="round"/>
    <path d="M 191.60206604003906 87.47974395751953 C 198.21142578125 61.79888153076172 210.57144165039062 52.30909729003906 201.40467834472656 74.06990051269531" stroke-width="2.0" fill="none" stroke="rgb(0, 0, 0)" stroke-opacity="1" stroke-linecap="round" stroke-linejoin="round"/>
    <path d="M 181.10963439941406 115.49461364746094 C 178.59165954589844 145.31668090820312 170.4850311279297 142.20083618164062 158.76397705078125 151.18353271484375 C 169.93988037109375 151.5548553466797 165.61822509765625 163.252197265625 167.1563262939453 157.93240356445312 C 152.77215576171875 133.43109130859375 174.26644897460938 147.84747314453125 135.72926330566406 157.16783142089844" stroke-width="2.0" fill="none" stroke="rgb(0, 0, 0)" stroke-opacity="1" stroke-linecap="round" stroke-linejoin="round"/>
    <path d="M 150.84872436523438 190.41770935058594 C 144.03900146484375 168.9717559814453 171.37254333496094 219.4244384765625 178.67300415039062 206.57333374023438" stroke-width="2.0" fill="none" stroke="rgb(0, 0, 0)" stroke-opacity="1" stroke-linecap="round" stroke-linejoin="round"/>
    <path d="M 185.95260620117188 219.48167419433594 C 155.555419921875 211.9495391845703 157.40328979492188 182.01605224609375 153.2550506591797 192.4724884033203" stroke-width="2.0" fill="none" stroke="rgb(0, 0, 0)" stroke-opacity="1" stroke-linecap="round" stroke-linejoin="round"/>
    <path d="M 42.86936569213867 101.19039916992188 C 34.90494918823242 124.99295043945312 54.57951736450195 136.9276885986328 61.20738983154297 122.88316345214844" stroke-width="2.0" fill="none" stroke="rgb(0, 0, 0)" stroke-opacity="1" stroke-linecap="round" stroke-linejoin="round"/>
    <path d="M 164.41505432128906 127.45618438720703 C 180.1699981689453 146.04019165039062 157.6925048828125 136.4447479248047 169.95741271972656 133.5987548828125 C 132.64971923828125 111.73365020751953 139.1968231201172 122.31198120117188 134.42608642578125 117.92768859863281 C 136.26707458496094 111.80339050292969 150.10137939453125 103.60076141357422 142.85238647460938 104.0438461303711" stroke-width="2.0" fill="none" stroke="rgb(0, 0, 0)" stroke-opacity="1" stroke-linecap="round" stroke-linejoin="round"/>
    <path d="M 104.53479766845703 77.80778503417969 C 116.45992279052734 62.696449279785156 115.143310546875 90.5047378540039 143.5398406982422 73.41431427001953" stroke-width="2.0" fill="none" stroke="rgb(0, 0, 0)" stroke-opacity="1" stroke-linecap="round" stroke-linejoin="round"/>
    <path d="M 7.2293620109558105 108.50113677978516 C 27.35593605041504 90.1245346069336 15.273279190063477 79.73602294921875 6.3928704261779785 77.14618682861328" stroke-width="2.0" fill="none" stroke="rgb(0, 0, 0)" stroke-opacity="1" stroke-linecap="round" stroke-linejoin="round"/>
    <path d="M 66.32715606689453 38.6197509765625 C 68.80042266845703 -2.9370386600494385 123.38837432861328 -5.346395969390869 120.35506439208984 39.66948699951172" stroke-width="2.0" fill="none" stroke="rgb(0, 0, 0)" stroke-opacity="1" stroke-linecap="round" stroke-linejoin="round"/>
    <path d="M 68.71465301513672 227.16969299316406 C 116.06653594970703 202.49716186523438 57.191959381103516 229.2443389892578 59.79446029663086 228.2024383544922 C 66.36302947998047 205.42828369140625 34.683494567871094 220.43930053710938 61.814273834228516 218.31039428710938 C 41.203609466552734 203.68807983398438 21.131973266601562 211.63192749023438 52.3409423828125 224.83734130859375" stroke-width="2.0" fill="none" stroke="rgb(0, 0, 0)" stroke-opacity="1" stroke-linecap="round" stroke-linejoin="round"/>
    <path d="M 32.34807586669922 43.30064010620117 C 43.57154846191406 37.97798538208008 49.16876983642578 32.8321647644043 51.85384750366211 46.985618591308594 C 46.656944274902344 46.95759201049805 48.11662292480469 58.27374267578125 60.5443000793457 56.46139144897461 C 57.68717575073242 37.092769622802734 44.38529968261719 97.63985443115234 59.56985855102539 64.2675552368164" stroke-width="2.0" fill="none" stroke="rgb(0, 0, 0)" stroke-opacity="1" stroke-linecap="round" stroke-linejoin="round"/>
    <path d="M 201.6561279296875 207.8216552734375 C 148.1343536376953 212.24452209472656 151.0922393798828 220.36109924316406 169.7550811767578 209.91981506347656 C 204.3907928466797 220.12257385253906 211.30227661132812 211.0939483642578 168.17062377929688 220.2043914794922 C 147.3489990234375 197.80982971191406 133.3162384033203 221.33946228027344 183.08914184570312 222.91123962402344" stroke-width="2.0" fill="none" stroke="rgb(0, 0, 0)" stroke-opacity="1" stroke-linecap="round" stroke-linejoin="round"/>
    <path d="M 94.3021240234375 149.864990234375 C 120.50249481201172 130.2205810546875 95.46438598632812 116.11567687988281 129.82269287109375 156.7831573486328" stroke-width="2.0" fill="none" stroke="rgb(0, 0, 0)" stroke-opacity="1" stroke-linecap="round" stroke-linejoin="round"/>
    <path d="M 114.70465850830078 144.9188690185547 C 110.17625427246094 121.19508361816406 114.42174530029297 92.3819808959961 108.76612091064453 129.45753479003906 C 128.52603149414062 145.44647216796875 114.29002380371094 100.74925231933594 118.04753875732422 121.52925109863281" stroke-width="2.0" fill="none" stroke="rgb(0, 0, 0)" stroke-opacity="1" stroke-linecap="round" stroke-linejoin="round"/>
    <path d="M 40.95391082763672 26.257537841796875 C 43.390663146972656 28.57550621032715 38.28218078613281 -2.9066388607025146 11.825543403625488 -0.44056645035743713 C 37.18686294555664 8.930405616760254 20.585960388183594 38.0224723815918 40.484432220458984 16.795915603637695 C 36.03470230102539 -1.6896365880966187 33.87041091918945 1.078271746635437 49.46371078491211 -7.808890342712402" stroke-width="2.0" fill="none" stroke="rgb(0, 0, 0)" stroke-opacity="1" stroke-linecap="round" stroke-linejoin="round"/>
    <path d="M 51.6573371887207 146.02169799804688 C 35.46220016479492 164.29067993164062 25.634422302246094 147.7486572265625 25.555503845214844 170.7635955810547 C 34.679969787597656 179.03211975097656 53.34611892700195 163.58587646484375 60.20013427734375 122.98478698730469" stroke-width="2.0" fill="none" stroke="rgb(0, 0, 0)" stroke-opacity="1" stroke-linecap="round" stroke-linejoin="round"/>
    <path d="M 186.66424560546875 82.2464599609375 C 195.8463897705078 89.96717071533203 199.7950897216797 121.94245147705078 204.18814086914062 144.90150451660156 C 192.13079833984375 136.80465698242188 226.99903869628906 151.677001953125 226.490234375 122.94821166992188 C 233.8323516845703 105.71432495117188 218.93243408203125 120.86595153808594 221.0892791748047 126.06088256835938" stroke-width="2.0" fill="none" stroke="rgb(0, 0, 0)" stroke-opacity="1" stroke-linecap="round" stroke-linejoin="round"/>
    <path d="M 63.48516845703125 179.84548950195312 C 69.27997589111328 162.33865356445312 99.2418212890625 171.80531311035156 71.19557189941406 174.2118682861328 C 68.26438903808594 167.90196228027344 89.6718978881836 169.7288055419922 97.97917938232422 144.8187713623047" stroke-width="2.0" fill="none" stroke="rgb(0, 0, 0)" stroke-opacity="1" stroke-linecap="round" stroke-linejoin="round"/>
    <path d="M 10.40595817565918 118.44669342041016 C 31.18483543395996 88.1189956665039 -12.617304801940918 100.37711334228516 -1.7780715227127075 94.44357299804688 C 43.722389221191406 87.02981567382812 26.84524917602539 93.82492065429688 14.08584976196289 83.89623260498047" stroke-width="2.0" fill="none" stroke="rgb(0, 0, 0)" stroke-opacity="1" stroke-linecap="round" stroke-linejoin="round"/>
    <path d="M 163.9826202392578 -5.1477131843566895 C 207.82687377929688 -0.4884791374206543 215.0057373046875 23.01078987121582 212.43331909179688 9.573208808898926 C 181.41896057128906 -4.860904216766357 163.0829620361328 -0.7063245177268982 188.0248260498047 -2.4335668087005615 C 216.8697052001953 14.939827919006348 252.2261962890625 0.39084592461586 203.5893096923828 2.8243167400360107" stroke-width="2.0" fill="none" stroke="rgb(0, 0, 0)" stroke-opacity="1" stroke-linecap="round" stroke-linejoin="round"/>
    <path d="M -2.8164281845092773 63.76774597167969 C -5.6121954917907715 53.33408737182617 -14.081705093383789 37.26731872558594 -3.237396240234375 31.121089935302734" stroke-width="2.0" fill="none" stroke="rgb(0, 0, 0)" stroke-opacity="1" stroke-linecap="round" stroke-linejoin="round"/>
    <path d="M 105.86119079589844 140.18832397460938 C 85.34371948242188 173.09788513183594 89.29324340820312 171.90611267089844 104.70184326171875 157.44857788085938" stroke-width="2.0" fill="none" stroke="rgb(0, 0, 0)" stroke-opacity="1" stroke-linecap="round" stroke-linejoin="round"/>
    <path d="M 185.6160125732422 78.70159912109375 C 197.99334716796875 150.0761260986328 198.2779541015625 167.46026611328125 197.06118774414062 114.93329620361328 C 178.06491088867188 77.52454376220703 216.4834747314453 96.56664276123047 219.15736389160156 78.25013732910156 C 233.00498962402344 60.27694320678711 236.02220153808594 41.755523681640625 245.27944946289062 38.713897705078125" stroke-width="2.0" fill="none" stroke="rgb(0, 0, 0)" stroke-opacity="1" stroke-linecap="round" stroke-linejoin="round"/>
    <path d="M 44.39450454711914 209.2759246826172 C 75.4566650390625 223.2025604248047 117.11949157714844 195.32493591308594 77.56166076660156 183.20118713378906 C 66.46096801757812 223.67355346679688 32.255165100097656 214.40969848632812 73.850830078125 219.07557678222656" stroke-width="2.0" fill="none" stroke="rgb(0, 0, 0)" stroke-opacity="1" stroke-linecap="round" stroke-linejoin="round"/>
    <path d="M 99.67305755615234 120.91612243652344 C 95.93773651123047 130.42825317382812 101.3874740600586 142.18043518066406 111.03543853759766 122.58890533447266 C 111.83856964111328 142.76116943359375 105.0081558227539 149.68870544433594 81.24887084960938 160.23190307617188 C 66.07676696777344 136.58511352539062 93.1611099243164 121.61600494384766 98.09900665283203 130.96971130371094" stroke-width="2.0" fill="none" stroke="rgb(0, 0, 0)" stroke-opacity="1" stroke-linecap="round" stroke-linejoin="round"/>
    <path d="M 90.08634185791016 112.22758483886719 C 69.0952377319336 153.07284545898438 53.16770935058594 135.4803466796875 89.333984375 122.32168579101562 C 84.6654281616211 127.35559844970703 77.32306671142578 134.45445251464844 83.67816162109375 149.54745483398438 C 102.2258071899414 176.59425354003906 94.42402648925781 186.77191162109375 55.767818450927734 179.55160522460938" stroke-width="2.0" fill="none" stroke="rgb(0, 0, 0)" stroke-opacity="1" stroke-linecap="round" stroke-linejoin="round"/>
    <path d="M 129.30589294433594 211.44212341308594 C 130.94239807128906 208.6949920654297 136.42706298828125 200.3274688720703 123.61231994628906 213.0167236328125" stroke-width="2.0" fill="none" stroke="rgb(0, 0, 0)" stroke-opacity="1" stroke-linecap="round" stroke-linejoin="round"/>
    <path d="M 201.26976013183594 57.895687103271484 C 213.7274627685547 64.57593536376953 227.14901733398438 68.74430084228516 217.84036254882812 31.816532135009766 C 220.81129455566406 42.431602478027344 175.9375457763672 32.6190185546875 200.69810485839844 51.094051361083984" stroke-width="2.0" fill="none" stroke="rgb(0, 0, 0)" stroke-opacity="1" stroke-linecap="round" stroke-linejoin="round"/>
    <path d="M 210.54736328125 190.25656127929688 C 205.384765625 212.02810668945312 166.53564453125 204.0569610595703 190.21749877929688 190.32093811035156" stroke-width="2.0" fill="none" stroke="rgb(0, 0, 0)" stroke-opacity="1" stroke-linecap="round" stroke-linejoin="round"/>
    <path d="M 169.0749053955078 53.47235870361328 C 167.064453125 24.660614013671875 153.55210876464844 62.87663650512695 170.364990234375 68.30978393554688 C 197.809326171875 67.80748748779297 196.9210662841797 19.04262351989746 168.80641174316406 32.16508483886719" stroke-width="2.0" fill="none" stroke="rgb(0, 0, 0)" stroke-opacity="1" stroke-linecap="round" stroke-linejoin="round"/>
    <path d="M 222.61521911621094 138.482666015625 C 243.26077270507812 131.57083129882812 272.5663146972656 142.0623779296875 287.1007080078125 155.2431182861328" stroke-width="2.0" fill="none" stroke="rgb(0, 0, 0)" stroke-opacity="1" stroke-linecap="round" stroke-linejoin="round"/>
    <path d="M 135.0913848876953 96.05711364746094 C 144.87744140625 105.75942993164062 147.7176055908203 102.68441009521484 135.65609741210938 114.97284698486328" stroke-width="2.0" fill="none" stroke="rgb(0, 0, 0)" stroke-opacity="1" stroke-linecap="round" stroke-linejoin="round"/>
    <path d="M 87.33875274658203 106.68794250488281 C 99.98841094970703 75.7209243774414 117.15436553955078 96.34701538085938 119.30842590332031 112.26148986816406 C 119.6598892211914 79.3219223022461 81.97270202636719 83.72722625732422 97.35237884521484 93.67837524414062" stroke-width="2.0" fill="none" stroke="rgb(0, 0, 0)" stroke-opacity="1" stroke-linecap="round" stroke-linejoin="round"/>
    <path d="M 113.36376953125 110.69252014160156 C 82.23639678955078 116.37742614746094 101.03608703613281 85.57881164550781 113.02104187011719 108.41133117675781 C 127.6426773071289 126.55535888671875 122.94011688232422 154.21275329589844 105.38545227050781 118.65245819091797" stroke-width="2.0" fill="none" stroke="rgb(0, 0, 0)" stroke-opacity="1" stroke-linecap="round" stroke-linejoin="round"/>
    <path d="M 147.84547424316406 15.769460678100586 C 139.09542846679688 26.79804039001465 140.48709106445312 16.77353286743164 149.1724090576172 27.854284286499023 C 136.4477081298828 24.369993209838867 125.2695083618164 -4.400704860687256 151.90541076660156 2.036543130874634 C 147.23361206054688 5.82244873046875 120.56880950927734 -10.248135566711426 121.15811920166016 -9.286986351013184" stroke-width="2.0" fill="none" stroke="rgb(0, 0, 0)" stroke-opacity="1" stroke-linecap="round" stroke-linejoin="round"/>
    <path d="M 68.01840209960938 212.58604431152344 C 89.01459503173828 181.00502014160156 87.47824096679688 209.2139892578125 49.672306060791016 217.2686004638672" stroke-width="2.0" fill="none" stroke="rgb(0, 0, 0)" stroke-opacity="1" stroke-linecap="round" stroke-linejoin="round"/>
  </g>
</svg>
