<?xml version="1.0" ?>
<svg xmlns="http://www.w3.org/2000/svg" version="1.1" width="224" height="224">
  <defs/>
  <g>
    <path d="M 121.4174575805664 63.836307525634766 C 113.05675506591797 62.114166259765625 125.38655853271484 89.12342071533203 155.01173400878906 79.90621185302734" stroke-width="2.0" fill="none" stroke="rgb(0, 0, 0)" stroke-opacity="1" stroke-linecap="round" stroke-linejoin="round"/>
    <path d="M 46.738059997558594 105.28596496582031 C 63.027137756347656 132.18502807617188 36.22098922729492 142.56002807617188 39.86894607543945 104.60629272460938 C 26.516956329345703 104.66082000732422 62.343170166015625 97.58343505859375 8.25903606414795 106.4236831665039 C 3.55503511428833 62.93034744262695 5.143407344818115 126.4882583618164 5.980600357055664 143.44216918945312" stroke-width="2.0" fill="none" stroke="rgb(0, 0, 0)" stroke-opacity="1" stroke-linecap="round" stroke-linejoin="round"/>
    <path d="M 230.9673614501953 100.81787109375 C 245.31814575195312 114.72256469726562 220.75816345214844 103.1730728149414 209.4720001220703 122.07115173339844" stroke-width="2.0" fill="none" stroke="rgb(0, 0, 0)" stroke-opacity="1" stroke-linecap="round" stroke-linejoin="round"/>
    <path d="M 216.7922821044922 4.837945938110352 C 189.90145874023438 41.11466598510742 213.3242645263672 12.487035751342773 214.95555114746094 -10.354864120483398 C 206.24668884277344 7.744341850280762 180.3939666748047 7.969017505645752 179.09942626953125 35.43503952026367" stroke-width="2.0" fill="none" stroke="rgb(0, 0, 0)" stroke-opacity="1" stroke-linecap="round" stroke-linejoin="round"/>
    <path d="M 119.43330383300781 71.00303649902344 C 130.01458740234375 94.13993835449219 126.63560485839844 92.2607650756836 110.80647277832031 93.34407806396484 C 124.27444458007812 91.7081298828125 114.79006958007812 77.13059997558594 105.7421875 113.24949645996094" stroke-width="2.0" fill="none" stroke="rgb(0, 0, 0)" stroke-opacity="1" stroke-linecap="round" stroke-linejoin="round"/>
    <path d="M 48.036293029785156 181.60581970214844 C 56.46750259399414 200.07115173339844 74.4639892578125 200.26788330078125 56.18212127685547 171.29344177246094 C 66.77168273925781 170.14617919921875 71.64287567138672 180.1395263671875 64.24971771240234 166.74252319335938" stroke-width="2.0" fill="none" stroke="rgb(0, 0, 0)" stroke-opacity="1" stroke-linecap="round" stroke-linejoin="round"/>
    <path d="M 23.006839752197266 90.10649871826172 C -27.442691802978516 88.13314056396484 -35.061702728271484 81.79010009765625 12.784173965454102 81.97193145751953 C -21.273969650268555 124.8153076171875 14.740163803100586 95.40826416015625 -4.484527587890625 112.40619659423828" stroke-width="2.0" fill="none" stroke="rgb(0, 0, 0)" stroke-opacity="1" stroke-linecap="round" stroke-linejoin="round"/>
    <path d="M 86.5693588256836 113.62141418457031 C 90.47259521484375 141.17160034179688 116.37157440185547 123.25239562988281 117.71783447265625 106.23397064208984 C 94.66022491455078 120.2146987915039 116.00035095214844 119.02410125732422 133.6098175048828 78.48418426513672 C 148.70913696289062 108.40008544921875 141.07054138183594 102.58460235595703 116.99303436279297 110.68315124511719" stroke-width="2.0" fill="none" stroke="rgb(0, 0, 0)" stroke-opacity="1" stroke-linecap="round" stroke-linejoin="round"/>
    <path d="M 171.8575897216797 6.928530693054199 C 171.12823486328125 18.91551399230957 163.39418029785156 22.845300674438477 172.5036163330078 10.969316482543945 C 181.12864685058594 31.21305274963379 187.7495574951172 32.3043327331543 162.65875244140625 30.449054718017578" stroke-width="2.0" fill="none" stroke="rgb(0, 0, 0)" stroke-opacity="1" stroke-linecap="round" stroke-linejoin="round"/>
    <path d="M 200.83656311035156 113.00757598876953 C 212.31210327148438 106.75077819824219 217.0642547607422 110.13184356689453 230.3441925048828 139.77037048339844" stroke-width="2.0" fill="none" stroke="rgb(0, 0, 0)" stroke-opacity="1" stroke-linecap="round" stroke-linejoin="round"/>
    <path d="M 170.30722045898438 16.799776077270508 C 158.09112548828125 -7.221136569976807 147.3914794921875 -8.100656509399414 143.62109375 -1.9486587047576904 C 173.64393615722656 3.334057569503784 156.88792419433594 6.749904155731201 159.96646118164062 -9.622873306274414" stroke-width="2.0" fill="none" stroke="rgb(0, 0, 0)" stroke-opacity="1" stroke-linecap="round" stroke-linejoin="round"/>
    <path d="M 195.8000030517578 66.50865173339844 C 181.461669921875 34.58054733276367 183.9814453125 32.13446044921875 208.9849395751953 48.23784255981445" stroke-width="2.0" fill="none" stroke="rgb(0, 0, 0)" stroke-opacity="1" stroke-linecap="round" stroke-linejoin="round"/>
    <path d="M 43.16489028930664 148.5691680908203 C 11.573395729064941 148.17552185058594 -4.763341426849365 147.039306640625 25.700620651245117 116.8523178100586 C -6.048041820526123 166.76390075683594 -5.871964931488037 160.4989776611328 53.44866943359375 163.32095336914062 C 74.99253845214844 136.06336975097656 27.24077796936035 143.29486083984375 34.07725524902344 116.10295867919922" stroke-width="2.0" fill="none" stroke="rgb(0, 0, 0)" stroke-opacity="1" stroke-linecap="round" stroke-linejoin="round"/>
    <path d="M 49.8048095703125 218.3086395263672 C 13.260282516479492 215.198486328125 15.755677223205566 215.15496826171875 57.3946533203125 218.7509765625" stroke-width="2.0" fill="none" stroke="rgb(0, 0, 0)" stroke-opacity="1" stroke-linecap="round" stroke-linejoin="round"/>
    <path d="M 176.1691436767578 85.75717163085938 C 164.41134643554688 76.32611846923828 168.21670532226562 63.50755310058594 174.05064392089844 79.42786407470703 C 152.6048126220703 96.31394958496094 146.59007263183594 101.17720794677734 172.51412963867188 86.90575408935547" stroke-width="2.0" fill="none" stroke="rgb(0, 0, 0)" stroke-opacity="1" stroke-linecap="round" stroke-linejoin="round"/>
    <path d="M 129.66583251953125 147.06234741210938 C 106.01113891601562 140.82713317871094 119.01337432861328 131.9993133544922 116.27499389648438 155.24330139160156" stroke-width="2.0" fill="none" stroke="rgb(0, 0, 0)" stroke-opacity="1" stroke-linecap="round" stroke-linejoin="round"/>
    <path d="M 90.96166229248047 139.11166381835938 C 102.13775634765625 174.26466369628906 80.61375427246094 138.9397735595703 82.49198150634766 144.90374755859375 C 76.43302154541016 162.25315856933594 71.79710388183594 147.5533905029297 73.87223815917969 156.19898986816406 C 76.05961608886719 184.3735809326172 36.61567306518555 152.67637634277344 71.3128433227539 184.39340209960938" stroke-width="2.0" fill="none" stroke="rgb(0, 0, 0)" stroke-opacity="1" stroke-linecap="round" stroke-linejoin="round"/>
    <path d="M 139.55718994140625 116.00840759277344 C 138.97158813476562 106.90272521972656 93.88481140136719 115.59073638916016 102.80802154541016 98.4277572631836 C 112.3515853881836 96.22463989257812 123.47483825683594 112.78177642822266 125.20185089111328 97.98906707763672 C 114.1467056274414 97.47283172607422 129.31143188476562 109.1919174194336 112.58798217773438 122.2099380493164" stroke-width="2.0" fill="none" stroke="rgb(0, 0, 0)" stroke-opacity="1" stroke-linecap="round" stroke-linejoin="round"/>
    <path d="M 147.64903259277344 172.23159790039062 C 196.77447509765625 184.42510986328125 201.26815795898438 193.29067993164062 164.6807098388672 184.705810546875 C 178.60623168945312 199.5450439453125 157.56387329101562 215.45965576171875 146.82125854492188 210.40408325195312" stroke-width="2.0" fill="none" stroke="rgb(0, 0, 0)" stroke-opacity="1" stroke-linecap="round" stroke-linejoin="round"/>
    <path d="M 166.77586364746094 -6.4632248878479 C 160.6550750732422 -12.56061840057373 167.50711059570312 -13.537764549255371 178.3223114013672 -17.821321487426758 C 176.74090576171875 -8.975702285766602 183.34225463867188 -20.004934310913086 186.81585693359375 -9.225728988647461" stroke-width="2.0" fill="none" stroke="rgb(0, 0, 0)" stroke-opacity="1" stroke-linecap="round" stroke-linejoin="round"/>
    <path d="M 116.61090087890625 174.0603790283203 C 141.78578186035156 164.89938354492188 173.1823272705078 167.82077026367188 138.92332458496094 164.58151245117188 C 122.98760986328125 178.73098754882812 106.84567260742188 172.18634033203125 136.51478576660156 154.25503540039062" stroke-width="2.0" fill="none" stroke="rgb(0, 0, 0)" stroke-opacity="1" stroke-linecap="round" stroke-linejoin="round"/>
    <path d="M 74.72879791259766 101.88105010986328 C 95.72025299072266 116.2398681640625 51.169952392578125 101.2847671508789 75.86405181884766 92.61581420898438" stroke-width="2.0" fill="none" stroke="rgb(0, 0, 0)" stroke-opacity="1" stroke-linecap="round" stroke-linejoin="round"/>
    <path d="M 72.85747528076172 235.9458770751953 C 99.50476837158203 242.40769958496094 87.14505004882812 225.93492126464844 58.07171630859375 228.88238525390625 C 59.321533203125 232.04507446289062 73.73379516601562 234.03195190429688 29.269102096557617 212.4978485107422 C 60.233863830566406 214.49815368652344 71.41413116455078 253.7115020751953 59.48848342895508 239.82278442382812" stroke-width="2.0" fill="none" stroke="rgb(0, 0, 0)" stroke-opacity="1" stroke-linecap="round" stroke-linejoin="round"/>
    <path d="M 78.57959747314453 207.01011657714844 C 35.1652946472168 203.70602416992188 64.32854461669922 211.76190185546875 71.4576416015625 187.30465698242188 C 66.6826171875 198.64405822753906 81.88146209716797 210.5540771484375 87.49150085449219 198.49644470214844 C 87.55626678466797 224.2279052734375 58.763404846191406 194.9420928955078 53.62532043457031 170.96925354003906" stroke-width="2.0" fill="none" stroke="rgb(0, 0, 0)" stroke-opacity="1" stroke-linecap="round" stroke-linejoin="round"/>
    <path d="M 141.1139373779297 156.5565948486328 C 86.5076904296875 166.6584930419922 115.38778686523438 161.3158721923828 89.19893646240234 145.84933471679688 C 85.27088165283203 157.40609741210938 62.28484344482422 135.61776733398438 89.59661102294922 162.75230407714844" stroke-width="2.0" fill="none" stroke="rgb(0, 0, 0)" stroke-opacity="1" stroke-linecap="round" stroke-linejoin="round"/>
    <path d="M 64.64230346679688 30.006227493286133 C 69.17729949951172 -9.952695846557617 54.59353256225586 3.583926200866699 5.359266757965088 1.6311041116714478 C -10.364447593688965 29.130294799804688 31.510801315307617 3.9990878105163574 73.66557312011719 2.2412514686584473 C 55.35160827636719 34.15053939819336 73.18315887451172 26.086610794067383 55.05595397949219 26.384130477905273" stroke-width="2.0" fill="none" stroke="rgb(0, 0, 0)" stroke-opacity="1" stroke-linecap="round" stroke-linejoin="round"/>
    <path d="M 59.780296325683594 105.30282592773438 C 58.13432693481445 82.24259185791016 47.9186897277832 76.70984649658203 50.016841888427734 93.88142395019531 C 57.5290412902832 80.66425323486328 65.22212219238281 94.9299087524414 59.47099304199219 101.17595672607422" stroke-width="2.0" fill="none" stroke="rgb(0, 0, 0)" stroke-opacity="1" stroke-linecap="round" stroke-linejoin="round"/>
    <path d="M 174.31857299804688 133.9452667236328 C 149.74114990234375 168.0688934326172 158.06500244140625 175.6148223876953 203.13107299804688 184.04611206054688" stroke-width="2.0" fill="none" stroke="rgb(0, 0, 0)" stroke-opacity="1" stroke-linecap="round" stroke-linejoin="round"/>
    <path d="M 227.783447265625 162.7843780517578 C 230.4685821533203 186.87274169921875 228.083984375 182.92745971679688 226.15444946289062 169.01376342773438" stroke-width="2.0" fill="none" stroke="rgb(0, 0, 0)" stroke-opacity="1" stroke-linecap="round" stroke-linejoin="round"/>
    <path d="M 109.71986389160156 101.70092010498047 C 90.94277954101562 78.0057601928711 97.15705108642578 109.60722351074219 114.68031311035156 110.58844757080078 C 92.92672729492188 102.81163024902344 99.04058837890625 125.58151245117188 87.20926666259766 117.58441162109375 C 101.75127410888672 128.844482421875 95.96846771240234 94.59178161621094 86.36023712158203 131.63613891601562" stroke-width="2.0" fill="none" stroke="rgb(0, 0, 0)" stroke-opacity="1" stroke-linecap="round" stroke-linejoin="round"/>
    <path d="M 169.20396423339844 38.88532257080078 C 197.603759765625 38.1921272277832 192.4110870361328 37.94206237792969 220.31617736816406 35.058048248291016 C 174.11593627929688 33.47111129760742 158.4840087890625 54.36811828613281 140.6635284423828 63.62684631347656 C 176.69557189941406 87.0880355834961 179.9697723388672 78.44800567626953 169.5699005126953 59.49633026123047" stroke-width="2.0" fill="none" stroke="rgb(0, 0, 0)" stroke-opacity="1" stroke-linecap="round" stroke-linejoin="round"/>
    <path d="M 101.1679458618164 186.1991729736328 C 112.82377624511719 177.97348022460938 92.70629119873047 155.0963592529297 101.61800384521484 169.5098876953125 C 105.27023315429688 177.0428466796875 107.34656524658203 153.45323181152344 108.38636016845703 155.33482360839844" stroke-width="2.0" fill="none" stroke="rgb(0, 0, 0)" stroke-opacity="1" stroke-linecap="round" stroke-linejoin="round"/>
    <path d="M 162.2002716064453 92.93207550048828 C 147.94056701660156 91.28173065185547 143.0825653076172 85.90162658691406 172.88011169433594 78.54713439941406 C 178.36094665527344 87.47728729248047 162.6557159423828 73.14608764648438 175.22824096679688 89.47962951660156 C 153.3544158935547 90.37667846679688 163.0591583251953 81.66236877441406 156.9875946044922 107.12399291992188" stroke-width="2.0" fill="none" stroke="rgb(0, 0, 0)" stroke-opacity="1" stroke-linecap="round" stroke-linejoin="round"/>
    <path d="M 73.05487823486328 134.6723175048828 C 21.02640724182129 106.13404846191406 112.718017578125 130.39886474609375 67.26895904541016 109.30441284179688" stroke-width="2.0" fill="none" stroke="rgb(0, 0, 0)" stroke-opacity="1" stroke-linecap="round" stroke-linejoin="round"/>
    <path d="M 187.54859924316406 112.82923889160156 C 194.3642120361328 114.01377868652344 201.75852966308594 121.61483764648438 178.40782165527344 111.72066497802734" stroke-width="2.0" fill="none" stroke="rgb(0, 0, 0)" stroke-opacity="1" stroke-linecap="round" stroke-linejoin="round"/>
    <path d="M 10.811041831970215 -11.27515983581543 C -4.535587310791016 11.558440208435059 7.285212516784668 34.25292205810547 19.22276496887207 25.4178409576416" stroke-width="2.0" fill="none" stroke="rgb(0, 0, 0)" stroke-opacity="1" stroke-linecap="round" stroke-linejoin="round"/>
    <path d="M 121.02532958984375 131.35902404785156 C 116.10850524902344 117.20880126953125 101.83873748779297 110.46810913085938 113.973388671875 125.7945556640625 C 127.08287811279297 160.1113739013672 118.26850128173828 157.00613403320312 151.98255920410156 145.39242553710938 C 144.69117736816406 135.2324676513672 148.6622772216797 132.15036010742188 146.46963500976562 151.09010314941406" stroke-width="2.0" fill="none" stroke="rgb(0, 0, 0)" stroke-opacity="1" stroke-linecap="round" stroke-linejoin="round"/>
    <path d="M 150.1126708984375 45.043235778808594 C 170.93772888183594 23.25428009033203 180.960205078125 49.58633041381836 163.17645263671875 68.54841613769531 C 152.71617126464844 34.43735122680664 163.3905487060547 58.35524368286133 143.61964416503906 62.60480880737305 C 136.8258819580078 59.738006591796875 133.38819885253906 55.29995346069336 158.30181884765625 44.47095489501953" stroke-width="2.0" fill="none" stroke="rgb(0, 0, 0)" stroke-opacity="1" stroke-linecap="round" stroke-linejoin="round"/>
    <path d="M 87.29507446289062 18.89032745361328 C 52.32793426513672 10.506918907165527 51.9962158203125 13.339896202087402 0.5749934315681458 23.12616729736328 C -6.96047830581665 1.2553753852844238 57.25388717651367 9.612317085266113 69.24878692626953 -0.5953090190887451 C 41.119136810302734 36.88969421386719 26.54193115234375 27.965694427490234 52.840084075927734 34.275779724121094" stroke-width="2.0" fill="none" stroke="rgb(0, 0, 0)" stroke-opacity="1" stroke-linecap="round" stroke-linejoin="round"/>
    <path d="M 33.49049758911133 119.54450225830078 C 45.4815788269043 80.06928253173828 19.066621780395508 122.26982879638672 3.395160675048828 135.16343688964844 C 15.318893432617188 139.64772033691406 1.9036422967910767 154.881591796875 -7.277379512786865 152.1044921875" stroke-width="2.0" fill="none" stroke="rgb(0, 0, 0)" stroke-opacity="1" stroke-linecap="round" stroke-linejoin="round"/>
    <path d="M 175.8961639404297 58.63720703125 C 187.59959411621094 81.0279541015625 195.27621459960938 90.96717834472656 212.92897033691406 77.9905014038086" stroke-width="2.0" fill="none" stroke="rgb(0, 0, 0)" stroke-opacity="1" stroke-linecap="round" stroke-linejoin="round"/>
    <path d="M 121.20536804199219 119.34102630615234 C 110.66586303710938 126.04585266113281 92.75003814697266 131.00912475585938 101.62168884277344 133.14593505859375" stroke-width="2.0" fill="none" stroke="rgb(0, 0, 0)" stroke-opacity="1" stroke-linecap="round" stroke-linejoin="round"/>
    <path d="M 181.98292541503906 3.2001523971557617 C 181.25233459472656 36.868473052978516 184.1534881591797 36.388160705566406 212.79136657714844 47.058250427246094 C 145.26231384277344 57.64177322387695 147.10386657714844 52.09889221191406 205.13925170898438 36.44965362548828 C 169.93722534179688 30.74251937866211 157.79306030273438 23.102985382080078 174.74220275878906 53.55298614501953" stroke-width="2.0" fill="none" stroke="rgb(0, 0, 0)" stroke-opacity="1" stroke-linecap="round" stroke-linejoin="round"/>
    <path d="M 180.22178649902344 78.59619903564453 C 224.2897491455078 93.23565673828125 212.0784454345703 76.35850524902344 232.82192993164062 62.42769241333008 C 229.78187561035156 83.42675018310547 222.8815460205078 79.51973724365234 230.3261260986328 96.6034164428711 C 241.1016845703125 108.99764251708984 218.2458953857422 77.02043914794922 230.142822265625 79.04536437988281" stroke-width="2.0" fill="none" stroke="rgb(0, 0, 0)" stroke-opacity="1" stroke-linecap="round" stroke-linejoin="round"/>
    <path d="M 124.27840423583984 115.87410736083984 C 110.0173568725586 105.25614166259766 114.4593734741211 125.47845458984375 111.21180725097656 111.1241683959961 C 113.32592010498047 96.67749786376953 119.73514556884766 85.87091064453125 129.49166870117188 119.37380981445312" stroke-width="2.0" fill="none" stroke="rgb(0, 0, 0)" stroke-opacity="1" stroke-linecap="round" stroke-linejoin="round"/>
    <path d="M 56.01728439331055 205.01611328125 C 52.290016174316406 169.7278289794922 53.06782150268555 175.34796142578125 44.938072204589844 170.6825714111328 C 46.627174377441406 204.78268432617188 34.11641311645508 197.44351196289062 56.8996467590332 184.46839904785156 C 36.349063873291016 179.24642944335938 21.145008087158203 166.32101440429688 -2.7831857204437256 165.09364318847656" stroke-width="2.0" fill="none" stroke="rgb(0, 0, 0)" stroke-opacity="1" stroke-linecap="round" stroke-linejoin="round"/>
    <path d="M 116.7740249633789 231.5127410888672 C 110.89677429199219 235.26133728027344 108.58770751953125 230.6971435546875 107.17535400390625 234.6126708984375 C 110.50338745117188 238.9627685546875 112.4359130859375 229.6333465576172 121.07588958740234 232.10589599609375 C 128.7344512939453 240.63299560546875 123.34373474121094 227.87901306152344 102.9636001586914 227.36859130859375" stroke-width="2.0" fill="none" stroke="rgb(0, 0, 0)" stroke-opacity="1" stroke-linecap="round" stroke-linejoin="round"/>
    <path d="M 166.30630493164062 3.837015390396118 C 171.336181640625 42.08462905883789 164.2632293701172 25.027254104614258 169.98451232910156 37.971031188964844 C 159.22718811035156 47.81641387939453 150.9923095703125 37.39340591430664 161.08555603027344 32.296051025390625" stroke-width="2.0" fill="none" stroke="rgb(0, 0, 0)" stroke-opacity="1" stroke-linecap="round" stroke-linejoin="round"/>
    <path d="M 172.99346923828125 1.959458827972412 C 137.790771484375 -6.263248443603516 141.6199951171875 -15.97172737121582 164.08505249023438 -4.013892650604248" stroke-width="2.0" fill="none" stroke="rgb(0, 0, 0)" stroke-opacity="1" stroke-linecap="round" stroke-linejoin="round"/>
    <path d="M 188.90406799316406 34.420406341552734 C 141.30833435058594 36.957763671875 167.6446075439453 29.786901473999023 200.52667236328125 30.564088821411133 C 200.76214599609375 22.984357833862305 234.48031616210938 27.353572845458984 190.9548797607422 25.509492874145508" stroke-width="2.0" fill="none" stroke="rgb(0, 0, 0)" stroke-opacity="1" stroke-linecap="round" stroke-linejoin="round"/>
    <path d="M 50.14982986450195 69.64431762695312 C 69.26277923583984 87.44261932373047 53.018768310546875 74.9274673461914 11.778660774230957 36.446502685546875" stroke-width="2.0" fill="none" stroke="rgb(0, 0, 0)" stroke-opacity="1" stroke-linecap="round" stroke-linejoin="round"/>
    <path d="M 210.44432067871094 -4.47376823425293 C 188.34117126464844 38.82384490966797 155.5767059326172 25.583345413208008 171.11546325683594 17.654216766357422 C 170.1200408935547 42.06655502319336 166.41485595703125 28.642566680908203 227.16261291503906 31.501184463500977" stroke-width="2.0" fill="none" stroke="rgb(0, 0, 0)" stroke-opacity="1" stroke-linecap="round" stroke-linejoin="round"/>
    <path d="M 212.99864196777344 161.0773468017578 C 231.6511993408203 152.0780487060547 227.62307739257812 118.12850952148438 209.74517822265625 117.0056381225586 C 210.42147827148438 119.86495971679688 197.19546508789062 137.47642517089844 167.98269653320312 146.3644561767578 C 208.7457733154297 119.79283905029297 218.54403686523438 114.82402038574219 187.19668579101562 136.52468872070312" stroke-width="2.0" fill="none" stroke="rgb(0, 0, 0)" stroke-opacity="1" stroke-linecap="round" stroke-linejoin="round"/>
    <path d="M -3.1976051330566406 58.34827423095703 C -10.085301399230957 71.78611755371094 -17.02449607849121 58.577518463134766 -5.788923263549805 61.58245849609375 C 1.0961962938308716 42.34226608276367 0.05514051020145416 47.50684356689453 6.73180627822876 87.50138854980469" stroke-width="2.0" fill="none" stroke="rgb(0, 0, 0)" stroke-opacity="1" stroke-linecap="round" stroke-linejoin="round"/>
    <path d="M 128.69651794433594 161.18226623535156 C 140.36065673828125 152.0801544189453 137.47015380859375 157.81678771972656 144.2544708251953 152.15066528320312 C 117.51921081542969 109.89605712890625 154.90155029296875 140.64459228515625 149.54953002929688 149.07733154296875" stroke-width="2.0" fill="none" stroke="rgb(0, 0, 0)" stroke-opacity="1" stroke-linecap="round" stroke-linejoin="round"/>
    <path d="M 125.35047149658203 174.9047088623047 C 127.19064331054688 196.09304809570312 132.8613739013672 124.26636505126953 133.03306579589844 169.18359375 C 176.409423828125 192.7357177734375 165.36111450195312 186.7176971435547 142.68287658691406 182.44644165039062 C 109.17735290527344 163.42027282714844 99.45774841308594 172.01316833496094 141.0572509765625 169.08523559570312" stroke-width="2.0" fill="none" stroke="rgb(0, 0, 0)" stroke-opacity="1" stroke-linecap="round" stroke-linejoin="round"/>
    <path d="M 65.40003967285156 95.86542510986328 C 60.13556671142578 99.3934555053711 55.757991790771484 112.27706909179688 83.86173248291016 110.53470611572266 C 63.58820724487305 109.19873046875 58.576454162597656 91.7694091796875 72.53949737548828 109.52279663085938 C 106.66798400878906 131.29150390625 65.3988037109375 138.743896484375 86.4820556640625 102.2724380493164" stroke-width="2.0" fill="none" stroke="rgb(0, 0, 0)" stroke-opacity="1" stroke-linecap="round" stroke-linejoin="round"/>
    <path d="M 176.40008544921875 86.50819396972656 C 181.085693359375 77.39228057861328 163.6648406982422 75.4061050415039 162.00108337402344 49.44978332519531" stroke-width="2.0" fill="none" stroke="rgb(0, 0, 0)" stroke-opacity="1" stroke-linecap="round" stroke-linejoin="round"/>
    <path d="M 110.78446197509766 24.867870330810547 C 144.5308837890625 52.62120819091797 105.97948455810547 26.702470779418945 105.76841735839844 60.09967803955078" stroke-width="2.0" fill="none" stroke="rgb(0, 0, 0)" stroke-opacity="1" stroke-linecap="round" stroke-linejoin="round"/>
    <path d="M 136.2158203125 172.8248291015625 C 144.56961059570312 161.16761779785156 181.57896423339844 170.6661834716797 180.59310913085938 182.2637176513672" stroke-width="2.0" fill="none" stroke="rgb(0, 0, 0)" stroke-opacity="1" stroke-linecap="round" stroke-linejoin="round"/>
    <path d="M 35.40346145629883 105.64812469482422 C 23.71513557434082 136.86355590820312 17.988353729248047 165.2266387939453 15.847025871276855 145.03981018066406" stroke-width="2.0" fill="none" stroke="rgb(0, 0, 0)" stroke-opacity="1" stroke-linecap="round" stroke-linejoin="round"/>
    <path d="M 181.08502197265625 114.46715545654297 C 195.77381896972656 148.77328491210938 171.2808837890625 150.44252014160156 198.39974975585938 158.52342224121094 C 214.7447509765625 158.58966064453125 230.95562744140625 142.6446990966797 231.3213653564453 121.74738311767578" stroke-width="2.0" fill="none" stroke="rgb(0, 0, 0)" stroke-opacity="1" stroke-linecap="round" stroke-linejoin="round"/>
    <path d="M 95.99240112304688 198.12408447265625 C 107.34033203125 211.75527954101562 100.55022430419922 187.45541381835938 82.83528137207031 174.58226013183594" stroke-width="2.0" fill="none" stroke="rgb(0, 0, 0)" stroke-opacity="1" stroke-linecap="round" stroke-linejoin="round"/>
    <path d="M 59.72727966308594 50.39955139160156 C 65.10001373291016 61.7202033996582 97.99479675292969 59.33828353881836 105.45994567871094 55.557132720947266 C 75.02437591552734 61.728729248046875 88.96482849121094 79.87339782714844 86.46332550048828 77.21923065185547 C 84.48260498046875 84.71482849121094 85.46688079833984 57.4110221862793 87.4151840209961 63.98198699951172" stroke-width="2.0" fill="none" stroke="rgb(0, 0, 0)" stroke-opacity="1" stroke-linecap="round" stroke-linejoin="round"/>
    <path d="M 190.16384887695312 46.67646789550781 C 196.7111358642578 36.40312194824219 180.22360229492188 29.032611846923828 193.5515899658203 67.03022766113281 C 170.36949157714844 26.18640899658203 198.504638671875 36.20785903930664 179.2825164794922 31.3299560546875" stroke-width="2.0" fill="none" stroke="rgb(0, 0, 0)" stroke-opacity="1" stroke-linecap="round" stroke-linejoin="round"/>
    <path d="M 84.10865783691406 195.29214477539062 C 74.72283172607422 199.0818328857422 114.06681060791016 186.74459838867188 102.24955749511719 191.95294189453125 C 62.26193618774414 192.92906188964844 104.39354705810547 212.84921264648438 79.99976348876953 194.0930633544922" stroke-width="2.0" fill="none" stroke="rgb(0, 0, 0)" stroke-opacity="1" stroke-linecap="round" stroke-linejoin="round"/>
    <path d="M 223.7579345703125 148.3562469482422 C 208.4121551513672 151.2664337158203 204.26260375976562 163.61972045898438 179.4222412109375 138.9473419189453" stroke-width="2.0" fill="none" stroke="rgb(0, 0, 0)" stroke-opacity="1" stroke-linecap="round" stroke-linejoin="round"/>
    <path d="M 214.08193969726562 213.1681671142578 C 224.1739959716797 185.03152465820312 222.46678161621094 187.88694763183594 221.19593811035156 189.81028747558594 C 218.8035125732422 190.87014770507812 201.8209228515625 204.16957092285156 195.00685119628906 192.16688537597656 C 177.74351501464844 185.1685791015625 172.1668243408203 185.25405883789062 124.68688201904297 177.59173583984375" stroke-width="2.0" fill="none" stroke="rgb(0, 0, 0)" stroke-opacity="1" stroke-linecap="round" stroke-linejoin="round"/>
    <path d="M 174.858154296875 61.91487503051758 C 195.68893432617188 64.48705291748047 196.71034240722656 67.14330291748047 154.16319274902344 77.63068389892578 C 166.6223602294922 81.59410095214844 186.17970275878906 58.101139068603516 155.3641357421875 95.92364501953125 C 141.92047119140625 69.78849792480469 152.56643676757812 63.502662658691406 156.08517456054688 84.64513397216797" stroke-width="2.0" fill="none" stroke="rgb(0, 0, 0)" stroke-opacity="1" stroke-linecap="round" stroke-linejoin="round"/>
    <path d="M 69.68604278564453 92.60603332519531 C 81.70625305175781 90.3919677734375 44.40208053588867 75.61882019042969 72.3833999633789 76.72006225585938" stroke-width="2.0" fill="none" stroke="rgb(0, 0, 0)" stroke-opacity="1" stroke-linecap="round" stroke-linejoin="round"/>
    <path d="M 69.31379699707031 139.13194274902344 C 80.44806671142578 159.82876586914062 76.85159301757812 151.89698791503906 86.51505279541016 166.96726989746094 C 89.52776336669922 178.40476989746094 110.80381774902344 164.2071533203125 93.6753921508789 173.23953247070312 C 87.71644592285156 157.43275451660156 89.56961059570312 198.01947021484375 83.02350616455078 186.61532592773438" stroke-width="2.0" fill="none" stroke="rgb(0, 0, 0)" stroke-opacity="1" stroke-linecap="round" stroke-linejoin="round"/>
    <path d="M 134.42929077148438 200.58914184570312 C 155.32847595214844 221.0271453857422 182.93661499023438 216.72634887695312 172.13873291015625 187.16885375976562 C 172.3644256591797 226.0828857421875 148.79638671875 215.66981506347656 104.2314224243164 225.70547485351562" stroke-width="2.0" fill="none" stroke="rgb(0, 0, 0)" stroke-opacity="1" stroke-linecap="round" stroke-linejoin="round"/>
    <path d="M 163.7324981689453 97.12043762207031 C 157.24148559570312 80.57691192626953 168.53732299804688 68.5903091430664 155.81698608398438 88.04570007324219 C 161.908935546875 78.78315734863281 158.97193908691406 84.51258850097656 151.19174194335938 79.56122589111328 C 137.3674774169922 70.41399383544922 149.62327575683594 78.49873352050781 137.3107452392578 51.993412017822266" stroke-width="2.0" fill="none" stroke="rgb(0, 0, 0)" stroke-opacity="1" stroke-linecap="round" stroke-linejoin="round"/>
    <path d="M 142.5013885498047 -2.0020060539245605 C 106.05890655517578 3.1685707569122314 111.4839096069336 12.344757080078125 111.87886047363281 11.859695434570312 C 88.48912811279297 28.24156379699707 111.7279281616211 19.609289169311523 114.99202728271484 19.116609573364258" stroke-width="2.0" fill="none" stroke="rgb(0, 0, 0)" stroke-opacity="1" stroke-linecap="round" stroke-linejoin="round"/>
    <path d="M 166.20301818847656 137.87599182128906 C 142.3575897216797 187.929931640625 135.654052734375 170.36044311523438 149.98048400878906 134.2574462890625 C 186.23287963867188 144.66970825195312 176.46812438964844 143.4952850341797 151.47938537597656 174.11932373046875 C 174.614013671875 144.96652221679688 177.20077514648438 147.06597900390625 188.88804626464844 145.4170684814453" stroke-width="2.0" fill="none" stroke="rgb(0, 0, 0)" stroke-opacity="1" stroke-linecap="round" stroke-linejoin="round"/>
    <path d="M 113.58518981933594 177.11685180664062 C 100.88225555419922 179.1515655517578 97.60281372070312 148.6297607421875 107.68553924560547 156.24264526367188 C 119.49357604980469 139.2121124267578 111.26038360595703 158.52645874023438 125.13211059570312 147.34767150878906" stroke-width="2.0" fill="none" stroke="rgb(0, 0, 0)" stroke-opacity="1" stroke-linecap="round" stroke-linejoin="round"/>
    <path d="M 100.75189971923828 131.23448181152344 C 88.1928939819336 121.47650146484375 88.09925842285156 124.24469757080078 100.86260986328125 139.7700958251953" stroke-width="2.0" fill="none" stroke="rgb(0, 0, 0)" stroke-opacity="1" stroke-linecap="round" stroke-linejoin="round"/>
    <path d="M 16.13655662536621 46.148094177246094 C 48.18762969970703 89.6568832397461 66.41508483886719 117.47611999511719 56.92128372192383 94.88113403320312 C 43.661415100097656 92.40217590332031 57.430965423583984 81.505126953125 53.403987884521484 96.5362777709961 C 61.938289642333984 105.11241912841797 55.58829879760742 96.47418975830078 49.62122344970703 87.34141540527344" stroke-width="2.0" fill="none" stroke="rgb(0, 0, 0)" stroke-opacity="1" stroke-linecap="round" stroke-linejoin="round"/>
    <path d="M 9.167869567871094 231.3910369873047 C 7.912319183349609 228.3316650390625 5.438956260681152 235.72116088867188 -4.793996334075928 233.1275177001953 C -15.301653861999512 229.79139709472656 -12.03148078918457 234.16583251953125 -7.455348491668701 229.7919921875 C -18.017282485961914 233.2429656982422 -23.321121215820312 234.56787109375 -30.425613403320312 228.72796630859375" stroke-width="2.0" fill="none" stroke="rgb(0, 0, 0)" stroke-opacity="1" stroke-linecap="round" stroke-linejoin="round"/>
    <path d="M 170.35009765625 78.08597564697266 C 157.16629028320312 9.992911338806152 188.04689025878906 29.0886287689209 195.35777282714844 47.5819091796875 C 168.51817321777344 45.993263244628906 120.38644409179688 61.032997131347656 141.75973510742188 79.82230377197266 C 145.80418395996094 27.9946346282959 156.5883026123047 27.0861873626709 153.10623168945312 23.360612869262695" stroke-width="2.0" fill="none" stroke="rgb(0, 0, 0)" stroke-opacity="1" stroke-linecap="round" stroke-linejoin="round"/>
    <path d="M 95.14778137207031 -0.33976978063583374 C 91.5050048828125 32.884159088134766 61.05686569213867 33.0216178894043 84.53067016601562 23.98399543762207 C 100.08659362792969 27.292207717895508 92.14039611816406 34.73822021484375 82.345458984375 26.16787338256836 C 113.93705749511719 21.607324600219727 120.66715240478516 -4.362223148345947 103.5323715209961 11.720452308654785" stroke-width="2.0" fill="none" stroke="rgb(0, 0, 0)" stroke-opacity="1" stroke-linecap="round" stroke-linejoin="round"/>
    <path d="M 154.5395965576172 92.62886047363281 C 171.13278198242188 101.45172119140625 148.02565002441406 122.43611145019531 146.44337463378906 116.11811065673828 C 166.31362915039062 132.8494873046875 151.7589111328125 120.9181137084961 149.3504638671875 121.01302337646484" stroke-width="2.0" fill="none" stroke="rgb(0, 0, 0)" stroke-opacity="1" stroke-linecap="round" stroke-linejoin="round"/>
    <path d="M 189.6698455810547 -4.19108247756958 C 173.44512939453125 -0.19457589089870453 180.40524291992188 -5.3735737800598145 183.90103149414062 -11.77405834197998" stroke-width="2.0" fill="none" stroke="rgb(0, 0, 0)" stroke-opacity="1" stroke-linecap="round" stroke-linejoin="round"/>
    <path d="M 106.70027923583984 -11.459877967834473 C 103.4112319946289 26.85114288330078 99.33822631835938 24.935659408569336 113.04351806640625 30.175527572631836 C 91.43749237060547 17.513225555419922 85.79380798339844 48.26435852050781 66.8719711303711 35.764434814453125" stroke-width="2.0" fill="none" stroke="rgb(0, 0, 0)" stroke-opacity="1" stroke-linecap="round" stroke-linejoin="round"/>
    <path d="M 94.95442199707031 120.24723052978516 C 108.46330261230469 92.42285919189453 93.22692108154297 98.76175689697266 94.0224609375 95.32688903808594" stroke-width="2.0" fill="none" stroke="rgb(0, 0, 0)" stroke-opacity="1" stroke-linecap="round" stroke-linejoin="round"/>
    <path d="M 155.41929626464844 33.42232131958008 C 124.83889770507812 64.27838897705078 141.4607391357422 60.98530960083008 129.69361877441406 59.3279914855957" stroke-width="2.0" fill="none" stroke="rgb(0, 0, 0)" stroke-opacity="1" stroke-linecap="round" stroke-linejoin="round"/>
    <path d="M 93.79998016357422 174.3346710205078 C 79.70948028564453 165.9304962158203 109.01634216308594 186.83914184570312 83.5811996459961 170.60879516601562" stroke-width="2.0" fill="none" stroke="rgb(0, 0, 0)" stroke-opacity="1" stroke-linecap="round" stroke-linejoin="round"/>
    <path d="M 231.89486694335938 98.0986328125 C 231.1885986328125 94.59768676757812 236.68927001953125 103.15514373779297 236.46026611328125 113.46956634521484 C 225.54238891601562 119.54464721679688 235.5421600341797 122.62794494628906 228.90475463867188 122.69303894042969" stroke-width="2.0" fill="none" stroke="rgb(0, 0, 0)" stroke-opacity="1" stroke-linecap="round" stroke-linejoin="round"/>
    <path d="M 152.9383087158203 209.17984008789062 C 171.2396697998047 215.5283660888672 121.11795806884766 206.0968780517578 122.36381530761719 163.8063201904297 C 99.00109100341797 206.439697265625 116.29818725585938 218.45123291015625 139.78216552734375 223.41964721679688" stroke-width="2.0" fill="none" stroke="rgb(0, 0, 0)" stroke-opacity="1" stroke-linecap="round" stroke-linejoin="round"/>
    <path d="M 145.02975463867188 36.11520767211914 C 136.0858154296875 51.21279525756836 162.0205078125 34.90900421142578 166.5740966796875 47.332275390625" stroke-width="2.0" fill="none" stroke="rgb(0, 0, 0)" stroke-opacity="1" stroke-linecap="round" stroke-linejoin="round"/>
    <path d="M 105.96273803710938 53.93681335449219 C 109.00524139404297 41.77248001098633 117.38815307617188 57.20111846923828 116.3626480102539 51.83041000366211 C 94.12800598144531 43.9136962890625 113.04313659667969 39.775848388671875 99.35313415527344 37.12062072753906 C 102.89754486083984 57.438194274902344 105.0018310546875 57.66996765136719 116.8551254272461 49.50444412231445" stroke-width="2.0" fill="none" stroke="rgb(0, 0, 0)" stroke-opacity="1" stroke-linecap="round" stroke-linejoin="round"/>
    <path d="M 137.21920776367188 8.37942123413086 C 148.09210205078125 10.761218070983887 140.08670043945312 6.870656490325928 148.91627502441406 11.931620597839355 C 168.2510528564453 33.656150817871094 150.8666534423828 26.29781150817871 144.61602783203125 24.54334831237793 C 140.21792602539062 25.28605842590332 137.96189880371094 21.816675186157227 135.1251983642578 20.9752254486084" stroke-width="2.0" fill="none" stroke="rgb(0, 0, 0)" stroke-opacity="1" stroke-linecap="round" stroke-linejoin="round"/>
    <path d="M 77.47377014160156 169.48126220703125 C 90.77705383300781 135.4547576904297 90.79554748535156 170.7631072998047 84.49501037597656 159.5508270263672 C 86.9111328125 172.4468994140625 74.9068832397461 167.3582305908203 67.82569122314453 145.1180877685547" stroke-width="2.0" fill="none" stroke="rgb(0, 0, 0)" stroke-opacity="1" stroke-linecap="round" stroke-linejoin="round"/>
    <path d="M 148.47787475585938 83.42921447753906 C 113.36630249023438 107.83301544189453 169.03965759277344 81.26012420654297 149.53431701660156 99.03309631347656 C 148.44223022460938 86.11078643798828 144.21043395996094 83.56709289550781 166.58712768554688 97.31294250488281 C 149.43218994140625 84.7303237915039 160.50027465820312 73.64108276367188 167.11572265625 96.93108367919922" stroke-width="2.0" fill="none" stroke="rgb(0, 0, 0)" stroke-opacity="1" stroke-linecap="round" stroke-linejoin="round"/>
    <path d="M 107.99006652832031 80.69293975830078 C 122.86705780029297 111.7345199584961 134.51156616210938 103.19109344482422 130.9998321533203 113.24832153320312 C 104.72982025146484 98.09963989257812 112.34613037109375 95.30743408203125 128.20310974121094 97.38346099853516 C 110.38078308105469 117.1615982055664 123.86687469482422 91.46440124511719 132.58998107910156 110.37689208984375" stroke-width="2.0" fill="none" stroke="rgb(0, 0, 0)" stroke-opacity="1" stroke-linecap="round" stroke-linejoin="round"/>
    <path d="M 132.13197326660156 74.84966278076172 C 186.13296508789062 46.5640983581543 204.6849365234375 56.092369079589844 171.00746154785156 61.273990631103516 C 138.849853515625 75.8950424194336 160.22950744628906 76.9627914428711 151.44744873046875 74.30432891845703 C 132.68170166015625 76.64698028564453 163.2737274169922 72.20132446289062 168.30702209472656 65.5291519165039" stroke-width="2.0" fill="none" stroke="rgb(0, 0, 0)" stroke-opacity="1" stroke-linecap="round" stroke-linejoin="round"/>
    <path d="M 109.82954406738281 130.32586669921875 C 130.00747680664062 129.48431396484375 115.40910339355469 129.16465759277344 85.2483139038086 124.20453643798828 C 103.57324981689453 119.4499282836914 98.39158630371094 117.01287841796875 88.96957397460938 122.8096694946289 C 79.4181137084961 130.2292938232422 106.95816040039062 151.19793701171875 94.24520874023438 116.39867401123047" stroke-width="2.0" fill="none" stroke="rgb(0, 0, 0)" stroke-opacity="1" stroke-linecap="round" stroke-linejoin="round"/>
    <path d="M 142.3037872314453 -3.187673568725586 C 184.00634765625 20.373754501342773 184.07827758789062 9.678668022155762 164.8438262939453 15.045173645019531" stroke-width="2.0" fill="none" stroke="rgb(0, 0, 0)" stroke-opacity="1" stroke-linecap="round" stroke-linejoin="round"/>
    <path d="M 150.45147705078125 33.070919036865234 C 162.10809326171875 34.87053298950195 119.61474609375 29.589021682739258 133.8218231201172 21.241857528686523" stroke-width="2.0" fill="none" stroke="rgb(0, 0, 0)" stroke-opacity="1" stroke-linecap="round" stroke-linejoin="round"/>
    <path d="M 147.036865234375 121.75271606445312 C 153.2519989013672 100.40330505371094 163.57286071777344 109.697265625 155.32655334472656 106.87914276123047 C 149.06272888183594 103.26795959472656 161.57078552246094 104.60772705078125 145.056640625 111.63311004638672" stroke-width="2.0" fill="none" stroke="rgb(0, 0, 0)" stroke-opacity="1" stroke-linecap="round" stroke-linejoin="round"/>
    <path d="M 35.35548400878906 35.96128463745117 C 66.76795959472656 12.046150207519531 61.93922424316406 5.391603469848633 38.087799072265625 18.868627548217773 C 38.99479293823242 60.28775405883789 7.165391445159912 20.72964096069336 36.4348258972168 25.11598014831543 C 26.218130111694336 25.627477645874023 23.89893341064453 35.55567169189453 34.10725402832031 29.590198516845703" stroke-width="2.0" fill="none" stroke="rgb(0, 0, 0)" stroke-opacity="1" stroke-linecap="round" stroke-linejoin="round"/>
    <path d="M 76.14083099365234 0.10492058098316193 C 84.4236831665039 42.207786560058594 83.99248504638672 32.74485397338867 98.19049072265625 10.259687423706055" stroke-width="2.0" fill="none" stroke="rgb(0, 0, 0)" stroke-opacity="1" stroke-linecap="round" stroke-linejoin="round"/>
    <path d="M 104.13761138916016 13.607657432556152 C 99.18812561035156 12.760091781616211 90.21045684814453 23.599119186401367 85.06718444824219 19.127525329589844 C 83.79768371582031 -0.05664536729454994 96.45287322998047 -7.386043071746826 101.20835876464844 -20.47188949584961" stroke-width="2.0" fill="none" stroke="rgb(0, 0, 0)" stroke-opacity="1" stroke-linecap="round" stroke-linejoin="round"/>
    <path d="M 189.2220916748047 189.8568115234375 C 219.290283203125 205.34521484375 218.29933166503906 199.97622680664062 208.8426513671875 200.31011962890625" stroke-width="2.0" fill="none" stroke="rgb(0, 0, 0)" stroke-opacity="1" stroke-linecap="round" stroke-linejoin="round"/>
    <path d="M 202.8389434814453 194.2010498046875 C 143.7250518798828 173.3529052734375 129.28857421875 177.2055206298828 163.86962890625 165.85482788085938" stroke-width="2.0" fill="none" stroke="rgb(0, 0, 0)" stroke-opacity="1" stroke-linecap="round" stroke-linejoin="round"/>
    <path d="M 52.77717208862305 177.42774963378906 C 60.31489562988281 175.20982360839844 60.08760452270508 192.50454711914062 60.93329620361328 195.46075439453125" stroke-width="2.0" fill="none" stroke="rgb(0, 0, 0)" stroke-opacity="1" stroke-linecap="round" stroke-linejoin="round"/>
    <path d="M 190.19351196289062 91.06206512451172 C 186.5934600830078 100.49536895751953 168.76451110839844 99.55025482177734 174.7251434326172 113.9460220336914 C 224.94036865234375 110.1517562866211 237.47268676757812 100.50957489013672 201.12985229492188 125.27153778076172 C 207.7111358642578 114.28080749511719 200.91195678710938 129.36239624023438 186.86839294433594 140.6540985107422" stroke-width="2.0" fill="none" stroke="rgb(0, 0, 0)" stroke-opacity="1" stroke-linecap="round" stroke-linejoin="round"/>
    <path d="M 124.91987609863281 177.04078674316406 C 122.4542007446289 157.99844360351562 109.46106719970703 167.34185791015625 116.12034606933594 172.94590759277344 C 102.08003997802734 183.16465759277344 89.93860626220703 161.0372772216797 129.94810485839844 158.29786682128906" stroke-width="2.0" fill="none" stroke="rgb(0, 0, 0)" stroke-opacity="1" stroke-linecap="round" stroke-linejoin="round"/>
    <path d="M 134.62770080566406 50.237884521484375 C 134.94183349609375 66.21974182128906 143.92771911621094 66.67788696289062 124.78661346435547 57.875762939453125 C 148.02963256835938 64.72305297851562 151.7697296142578 42.6226692199707 142.50823974609375 16.613460540771484 C 118.31787872314453 17.693504333496094 117.89076232910156 4.471311569213867 115.09889221191406 5.199946880340576" stroke-width="2.0" fill="none" stroke="rgb(0, 0, 0)" stroke-opacity="1" stroke-linecap="round" stroke-linejoin="round"/>
    <path d="M 15.830848693847656 201.9893798828125 C -2.3096978664398193 219.87527465820312 1.3119518756866455 218.18099975585938 20.996999740600586 201.77658081054688 C 62.21043014526367 169.3865203857422 50.421607971191406 182.71925354003906 50.735591888427734 174.07818603515625 C 38.984989166259766 186.82144165039062 -3.860240936279297 213.494140625 0.7286393642425537 219.45486450195312" stroke-width="2.0" fill="none" stroke="rgb(0, 0, 0)" stroke-opacity="1" stroke-linecap="round" stroke-linejoin="round"/>
    <path d="M 176.2533721923828 81.45115661621094 C 165.3590850830078 57.83989715576172 189.55740356445312 97.94964599609375 165.16529846191406 89.54658508300781 C 179.97337341308594 94.27067565917969 172.91954040527344 82.2743148803711 151.15570068359375 85.67095947265625" stroke-width="2.0" fill="none" stroke="rgb(0, 0, 0)" stroke-opacity="1" stroke-linecap="round" stroke-linejoin="round"/>
    <path d="M 163.53134155273438 188.3253936767578 C 137.3222198486328 217.42153930664062 119.34661865234375 170.7109375 132.85853576660156 172.6724090576172" stroke-width="2.0" fill="none" stroke="rgb(0, 0, 0)" stroke-opacity="1" stroke-linecap="round" stroke-linejoin="round"/>
    <path d="M 154.4016571044922 100.19326782226562 C 158.7867431640625 80.73978424072266 156.7071075439453 103.26408386230469 142.21084594726562 93.7442626953125" stroke-width="2.0" fill="none" stroke="rgb(0, 0, 0)" stroke-opacity="1" stroke-linecap="round" stroke-linejoin="round"/>
    <path d="M 208.0961151123047 12.466479301452637 C 195.25244140625 33.77394485473633 191.3599090576172 22.799701690673828 156.33609008789062 26.263267517089844 C 176.0584259033203 49.8900260925293 169.44688415527344 36.75967788696289 212.24539184570312 37.237918853759766" stroke-width="2.0" fill="none" stroke="rgb(0, 0, 0)" stroke-opacity="1" stroke-linecap="round" stroke-linejoin="round"/>
    <path d="M 122.77059936523438 81.68299865722656 C 119.96581268310547 110.11735534667969 113.18346405029297 88.2096176147461 116.72940826416016 112.89214324951172 C 104.41411590576172 94.90109252929688 113.79187774658203 87.22225952148438 110.29769897460938 103.666015625" stroke-width="2.0" fill="none" stroke="rgb(0, 0, 0)" stroke-opacity="1" stroke-linecap="round" stroke-linejoin="round"/>
    <path d="M 191.4986114501953 -4.96271276473999 C 182.642333984375 20.32748794555664 200.74163818359375 5.749600410461426 167.59103393554688 14.922471046447754" stroke-width="2.0" fill="none" stroke="rgb(0, 0, 0)" stroke-opacity="1" stroke-linecap="round" stroke-linejoin="round"/>
    <path d="M 157.1313018798828 61.917205810546875 C 169.8391876220703 71.34053802490234 169.09335327148438 58.3064079284668 164.2296905517578 72.81523895263672 C 140.98272705078125 59.795677185058594 162.18963623046875 79.2512435913086 159.99441528320312 61.88322448730469" stroke-width="2.0" fill="none" stroke="rgb(0, 0, 0)" stroke-opacity="1" stroke-linecap="round" stroke-linejoin="round"/>
    <path d="M 25.310169219970703 22.852231979370117 C 31.756837844848633 41.076595306396484 -17.457597732543945 24.050676345825195 20.614097595214844 24.300779342651367 C 6.967366695404053 26.97786521911621 -14.786171913146973 39.627079010009766 11.475788116455078 2.0167758464813232" stroke-width="2.0" fill="none" stroke="rgb(0, 0, 0)" stroke-opacity="1" stroke-linecap="round" stroke-linejoin="round"/>
    <path d="M 183.69642639160156 113.84484100341797 C 204.22903442382812 114.59343719482422 227.91436767578125 124.83129119873047 234.0537872314453 113.48849487304688" stroke-width="2.0" fill="none" stroke="rgb(0, 0, 0)" stroke-opacity="1" stroke-linecap="round" stroke-linejoin="round"/>
    <path d="M 188.66282653808594 99.51433563232422 C 161.58895874023438 47.8079948425293 197.64369201660156 96.49767303466797 211.80838012695312 78.7782974243164 C 230.6023406982422 70.80437469482422 215.22386169433594 86.56517028808594 232.68702697753906 96.22758483886719 C 229.05665588378906 83.38005828857422 227.3472442626953 89.18228149414062 228.8986053466797 79.73180389404297" stroke-width="2.0" fill="none" stroke="rgb(0, 0, 0)" stroke-opacity="1" stroke-linecap="round" stroke-linejoin="round"/>
    <path d="M 154.85427856445312 99.44327545166016 C 197.1368865966797 73.53226470947266 169.30599975585938 70.3253402709961 186.89915466308594 95.93950653076172" stroke-width="2.0" fill="none" stroke="rgb(0, 0, 0)" stroke-opacity="1" stroke-linecap="round" stroke-linejoin="round"/>
    <path d="M 158.73480224609375 60.06041717529297 C 146.93836975097656 41.99459457397461 147.12692260742188 55.61328125 137.76437377929688 48.057430267333984" stroke-width="2.0" fill="none" stroke="rgb(0, 0, 0)" stroke-opacity="1" stroke-linecap="round" stroke-linejoin="round"/>
    <path d="M 7.604824066162109 145.2205352783203 C 25.250370025634766 143.72547912597656 -1.5557756423950195 149.57400512695312 15.424285888671875 150.08079528808594" stroke-width="2.0" fill="none" stroke="rgb(0, 0, 0)" stroke-opacity="1" stroke-linecap="round" stroke-linejoin="round"/>
    <path d="M 145.59078979492188 174.48963928222656 C 131.524658203125 175.2320556640625 131.8826904296875 168.6597442626953 141.13427734375 153.02932739257812" stroke-width="2.0" fill="none" stroke="rgb(0, 0, 0)" stroke-opacity="1" stroke-linecap="round" stroke-linejoin="round"/>
    <path d="M 145.5847625732422 155.1394500732422 C 142.8330841064453 141.26187133789062 127.5350341796875 170.59918212890625 132.37423706054688 149.82469177246094 C 143.999755859375 184.01573181152344 145.72738647460938 186.0186004638672 107.21604919433594 149.19308471679688" stroke-width="2.0" fill="none" stroke="rgb(0, 0, 0)" stroke-opacity="1" stroke-linecap="round" stroke-linejoin="round"/>
    <path d="M 81.95714569091797 191.31784057617188 C 94.92318725585938 187.6180877685547 99.88990020751953 184.0457000732422 118.81575775146484 184.39602661132812 C 105.97024536132812 202.04884338378906 134.51889038085938 227.12742614746094 118.79623413085938 229.1300048828125 C 145.10614013671875 221.09103393554688 141.02403259277344 233.78125 144.00778198242188 251.92401123046875" stroke-width="2.0" fill="none" stroke="rgb(0, 0, 0)" stroke-opacity="1" stroke-linecap="round" stroke-linejoin="round"/>
    <path d="M 124.34381103515625 165.09580993652344 C 150.4038543701172 167.2401580810547 130.49929809570312 175.7260284423828 156.46414184570312 163.47801208496094 C 119.231689453125 152.6698455810547 126.0893325805664 150.33200073242188 126.21783447265625 174.02920532226562" stroke-width="2.0" fill="none" stroke="rgb(0, 0, 0)" stroke-opacity="1" stroke-linecap="round" stroke-linejoin="round"/>
    <path d="M 29.975749969482422 184.86941528320312 C 14.815442085266113 169.49656677246094 -9.375810623168945 161.8760528564453 -9.497965812683105 167.60728454589844 C 8.260852813720703 165.1750946044922 -8.058561325073242 164.5620880126953 -18.666330337524414 166.51364135742188" stroke-width="2.0" fill="none" stroke="rgb(0, 0, 0)" stroke-opacity="1" stroke-linecap="round" stroke-linejoin="round"/>
    <path d="M 206.7576446533203 115.91853332519531 C 238.4022979736328 107.8669662475586 236.91261291503906 110.68177795410156 178.90789794921875 109.91695404052734" stroke-width="2.0" fill="none" stroke="rgb(0, 0, 0)" stroke-opacity="1" stroke-linecap="round" stroke-linejoin="round"/>
    <path d="M 128.4696807861328 223.28392028808594 C 173.32032775878906 222.86685180664062 173.913818359375 210.5830078125 154.2394256591797 229.85670471191406 C 131.5220489501953 216.66519165039062 106.88013458251953 216.3782196044922 118.82803344726562 181.56988525390625 C 118.72699737548828 206.3678741455078 156.2522430419922 218.2121124267578 167.51702880859375 206.03355407714844" stroke-width="2.0" fill="none" stroke="rgb(0, 0, 0)" stroke-opacity="1" stroke-linecap="round" stroke-linejoin="round"/>
    <path d="M -6.6796722412109375 102.18091583251953 C 76.7059326171875 86.6607666015625 89.0439682006836 93.895263671875 22.75689125061035 102.35648345947266" stroke-width="2.0" fill="none" stroke="rgb(0, 0, 0)" stroke-opacity="1" stroke-linecap="round" stroke-linejoin="round"/>
    <path d="M 142.1118927001953 82.34716796875 C 147.69921875 76.85466003417969 160.86233520507812 78.68136596679688 156.13197326660156 94.4348373413086" stroke-width="2.0" fill="none" stroke="rgb(0, 0, 0)" stroke-opacity="1" stroke-linecap="round" stroke-linejoin="round"/>
    <path d="M 109.0946044921875 182.93020629882812 C 101.48440551757812 203.66848754882812 101.88107299804688 188.97500610351562 104.54003143310547 177.67059326171875 C 72.27053833007812 196.01052856445312 114.10574340820312 199.4609832763672 93.21186065673828 184.9159698486328 C 87.50250244140625 205.58413696289062 111.54669189453125 186.9114532470703 115.82898712158203 179.74656677246094" stroke-width="2.0" fill="none" stroke="rgb(0, 0, 0)" stroke-opacity="1" stroke-linecap="round" stroke-linejoin="round"/>
    <path d="M 221.6876983642578 34.60467529296875 C 228.72579956054688 61.018558502197266 229.6497039794922 62.03551483154297 211.1510467529297 80.66886901855469 C 220.72311401367188 69.96707916259766 232.55665588378906 59.72275924682617 221.18157958984375 5.293882369995117 C 241.31130981445312 33.61726379394531 208.6483917236328 46.746238708496094 225.10240173339844 26.576688766479492" stroke-width="2.0" fill="none" stroke="rgb(0, 0, 0)" stroke-opacity="1" stroke-linecap="round" stroke-linejoin="round"/>
    <path d="M 164.09201049804688 56.73616409301758 C 186.26356506347656 58.385623931884766 164.60482788085938 69.95198822021484 187.3224334716797 68.98701477050781" stroke-width="2.0" fill="none" stroke="rgb(0, 0, 0)" stroke-opacity="1" stroke-linecap="round" stroke-linejoin="round"/>
    <path d="M 98.42806243896484 142.47344970703125 C 74.0701675415039 128.5748748779297 95.74373626708984 140.88082885742188 92.90791320800781 110.5055160522461 C 96.99920654296875 110.27045440673828 88.93807983398438 133.50497436523438 82.90481567382812 121.81890869140625 C 90.31708526611328 135.44921875 90.99222564697266 119.71255493164062 73.95319366455078 111.54737091064453" stroke-width="2.0" fill="none" stroke="rgb(0, 0, 0)" stroke-opacity="1" stroke-linecap="round" stroke-linejoin="round"/>
    <path d="M 115.16505432128906 177.0586395263672 C 95.17434692382812 180.04580688476562 98.86659240722656 190.7361297607422 86.7806396484375 181.07180786132812 C 74.27113342285156 179.19618225097656 103.53365325927734 171.17701721191406 108.90997314453125 162.776123046875" stroke-width="2.0" fill="none" stroke="rgb(0, 0, 0)" stroke-opacity="1" stroke-linecap="round" stroke-linejoin="round"/>
    <path d="M 183.407470703125 189.89569091796875 C 232.1865997314453 191.4127197265625 180.218017578125 188.3699493408203 125.60839080810547 179.07736206054688 C 220.2009735107422 200.24330139160156 210.6444091796875 185.6992645263672 182.95254516601562 179.37094116210938 C 191.6209716796875 203.9593048095703 194.57034301757812 184.8809356689453 197.3943634033203 192.99209594726562" stroke-width="2.0" fill="none" stroke="rgb(0, 0, 0)" stroke-opacity="1" stroke-linecap="round" stroke-linejoin="round"/>
    <path d="M 212.70460510253906 38.20058059692383 C 213.2693328857422 -9.308785438537598 249.4018096923828 10.397457122802734 199.05587768554688 -6.782634258270264 C 176.47882080078125 5.1904730796813965 156.7248992919922 5.816608905792236 137.3313751220703 -2.840914726257324" stroke-width="2.0" fill="none" stroke="rgb(0, 0, 0)" stroke-opacity="1" stroke-linecap="round" stroke-linejoin="round"/>
    <path d="M 170.6246337890625 35.96310806274414 C 147.17906188964844 56.449195861816406 122.73017120361328 57.575984954833984 138.2504425048828 69.42642974853516 C 103.30974578857422 66.62251281738281 131.01412963867188 94.32617950439453 110.32655334472656 93.5026626586914 C 123.45550537109375 85.2511978149414 99.44011688232422 79.70339965820312 112.39815521240234 104.62583923339844" stroke-width="2.0" fill="none" stroke="rgb(0, 0, 0)" stroke-opacity="1" stroke-linecap="round" stroke-linejoin="round"/>
    <path d="M 221.25758361816406 74.31242370605469 C 205.33351135253906 102.48284912109375 174.27090454101562 75.575927734375 185.13941955566406 74.49481964111328 C 196.07286071777344 78.978515625 223.69100952148438 55.00862503051758 213.33116149902344 38.81891632080078" stroke-width="2.0" fill="none" stroke="rgb(0, 0, 0)" stroke-opacity="1" stroke-linecap="round" stroke-linejoin="round"/>
    <path d="M 77.21411895751953 145.4507598876953 C 92.28511047363281 156.85910034179688 80.01690673828125 153.0599365234375 70.93852996826172 161.26351928710938" stroke-width="2.0" fill="none" stroke="rgb(0, 0, 0)" stroke-opacity="1" stroke-linecap="round" stroke-linejoin="round"/>
    <path d="M 70.83566284179688 112.09286499023438 C 67.30396270751953 97.23905181884766 82.94709777832031 84.0478515625 82.77921295166016 116.93032836914062 C 60.49747085571289 113.04695129394531 61.835205078125 98.40775299072266 85.94715881347656 100.83103942871094" stroke-width="2.0" fill="none" stroke="rgb(0, 0, 0)" stroke-opacity="1" stroke-linecap="round" stroke-linejoin="round"/>
    <path d="M 183.4282989501953 189.9329071044922 C 233.19461059570312 205.95687866210938 217.7191619873047 207.12220764160156 226.7785186767578 228.0288848876953 C 218.6309051513672 211.78819274902344 220.41534423828125 202.6878204345703 182.05543518066406 189.16151428222656" stroke-width="2.0" fill="none" stroke="rgb(0, 0, 0)" stroke-opacity="1" stroke-linecap="round" stroke-linejoin="round"/>
    <path d="M 97.85841369628906 184.90570068359375 C 69.9154052734375 179.4164581298828 70.0462875366211 214.19288635253906 94.42188262939453 188.73231506347656" stroke-width="2.0" fill="none" stroke="rgb(0, 0, 0)" stroke-opacity="1" stroke-linecap="round" stroke-linejoin="round"/>
    <path d="M 90.06166076660156 119.79669189453125 C 100.32878875732422 136.9635467529297 90.57135772705078 169.5736083984375 82.34234619140625 143.3234100341797" stroke-width="2.0" fill="none" stroke="rgb(0, 0, 0)" stroke-opacity="1" stroke-linecap="round" stroke-linejoin="round"/>
    <path d="M 89.406005859375 69.78743743896484 C 85.12803649902344 66.79009246826172 88.95978546142578 63.903751373291016 84.4229507446289 66.53311920166016 C 101.54462432861328 75.66677856445312 85.10026550292969 70.62879180908203 72.3989486694336 33.52585220336914 C 65.62447357177734 91.299560546875 94.43980407714844 88.90666198730469 59.894046783447266 79.92353820800781" stroke-width="2.0" fill="none" stroke="rgb(0, 0, 0)" stroke-opacity="1" stroke-linecap="round" stroke-linejoin="round"/>
    <path d="M 74.35131072998047 36.260169982910156 C 88.75395202636719 12.810921669006348 61.33149337768555 16.643871307373047 65.69947052001953 40.94099044799805 C 30.919057846069336 84.28820037841797 81.137451171875 80.35470581054688 66.11653137207031 41.39472579956055 C 54.79630661010742 42.6912841796875 88.71034240722656 38.236549377441406 54.71377182006836 31.62931251525879" stroke-width="2.0" fill="none" stroke="rgb(0, 0, 0)" stroke-opacity="1" stroke-linecap="round" stroke-linejoin="round"/>
    <path d="M 49.888214111328125 210.3604736328125 C 47.86138916015625 193.34719848632812 55.1058235168457 204.27072143554688 69.8305435180664 236.5843963623047" stroke-width="2.0" fill="none" stroke="rgb(0, 0, 0)" stroke-opacity="1" stroke-linecap="round" stroke-linejoin="round"/>
    <path d="M 180.37803649902344 151.38218688964844 C 185.74526977539062 139.9288330078125 178.3452606201172 118.91502380371094 176.5470428466797 107.71355438232422" stroke-width="2.0" fill="none" stroke="rgb(0, 0, 0)" stroke-opacity="1" stroke-linecap="round" stroke-linejoin="round"/>
    <path d="M -6.972251892089844 171.3930206298828 C 1.3565597534179688 154.69305419921875 31.292701721191406 154.05763244628906 4.6979522705078125 159.6415557861328 C 38.827491760253906 159.6357421875 5.3038129806518555 150.7893829345703 -14.461840629577637 160.8704833984375 C -2.582871198654175 171.84449768066406 7.65689754486084 168.11688232421875 10.942804336547852 102.91520690917969" stroke-width="2.0" fill="none" stroke="rgb(0, 0, 0)" stroke-opacity="1" stroke-linecap="round" stroke-linejoin="round"/>
    <path d="M 104.23824310302734 173.9151611328125 C 93.8740005493164 162.85079956054688 107.9112777709961 182.32838439941406 107.11871337890625 177.09912109375" stroke-width="2.0" fill="none" stroke="rgb(0, 0, 0)" stroke-opacity="1" stroke-linecap="round" stroke-linejoin="round"/>
    <path d="M 116.0430679321289 54.78432083129883 C 125.68465423583984 78.88754272460938 151.51614379882812 72.29240417480469 114.2857894897461 67.36347961425781 C 114.18529510498047 79.8124771118164 150.32704162597656 78.24126434326172 134.9390411376953 102.47099304199219 C 120.24077606201172 101.8182373046875 119.9872817993164 120.36128234863281 122.07535552978516 123.4135513305664" stroke-width="2.0" fill="none" stroke="rgb(0, 0, 0)" stroke-opacity="1" stroke-linecap="round" stroke-linejoin="round"/>
    <path d="M 78.80065155029297 226.8609161376953 C 45.448795318603516 226.5281219482422 8.816027641296387 226.86703491210938 79.31629943847656 227.14236450195312 C 38.53090286254883 229.61570739746094 0.8063650727272034 240.1860809326172 5.502174377441406 215.20895385742188 C 7.375906944274902 200.6024932861328 10.054615020751953 216.73391723632812 -8.97551155090332 219.22328186035156" stroke-width="2.0" fill="none" stroke="rgb(0, 0, 0)" stroke-opacity="1" stroke-linecap="round" stroke-linejoin="round"/>
    <path d="M 122.34213256835938 109.16800689697266 C 85.89277648925781 129.0683135986328 121.90628051757812 112.07470703125 127.4222412109375 122.94889831542969" stroke-width="2.0" fill="none" stroke="rgb(0, 0, 0)" stroke-opacity="1" stroke-linecap="round" stroke-linejoin="round"/>
    <path d="M 49.79489517211914 65.36249542236328 C 80.48220825195312 57.438026428222656 72.98470306396484 54.597434997558594 83.81541442871094 33.88224792480469 C 83.30194854736328 52.768531799316406 86.9220962524414 60.777854919433594 84.07795715332031 43.750511169433594 C 90.36772155761719 54.9332389831543 98.58739471435547 72.21578216552734 82.3603286743164 39.54862976074219" stroke-width="2.0" fill="none" stroke="rgb(0, 0, 0)" stroke-opacity="1" stroke-linecap="round" stroke-linejoin="round"/>
    <path d="M 92.35124206542969 47.80710983276367 C 85.30130004882812 39.23048782348633 80.35466003417969 31.43519401550293 73.08438110351562 47.39592742919922" stroke-width="2.0" fill="none" stroke="rgb(0, 0, 0)" stroke-opacity="1" stroke-linecap="round" stroke-linejoin="round"/>
    <path d="M 71.9095687866211 105.53218841552734 C 99.99044036865234 128.6132049560547 50.55611038208008 112.87481689453125 74.13471984863281 104.15592193603516 C 46.37649154663086 105.3934097290039 61.310516357421875 103.85127258300781 52.22472381591797 99.27081298828125" stroke-width="2.0" fill="none" stroke="rgb(0, 0, 0)" stroke-opacity="1" stroke-linecap="round" stroke-linejoin="round"/>
    <path d="M 167.08197021484375 130.5362091064453 C 168.78822326660156 130.92027282714844 166.53466796875 125.5049057006836 149.45724487304688 136.5108642578125 C 177.65963745117188 131.65261840820312 187.27142333984375 135.92816162109375 157.8644256591797 133.625732421875 C 169.94688415527344 130.7932586669922 209.9255828857422 112.34390258789062 204.3320770263672 120.62708282470703" stroke-width="2.0" fill="none" stroke="rgb(0, 0, 0)" stroke-opacity="1" stroke-linecap="round" stroke-linejoin="round"/>
    <path d="M 184.48472595214844 145.38470458984375 C 159.0466766357422 144.329833984375 205.91114807128906 174.6458740234375 213.86485290527344 157.1339111328125" stroke-width="2.0" fill="none" stroke="rgb(0, 0, 0)" stroke-opacity="1" stroke-linecap="round" stroke-linejoin="round"/>
    <path d="M 227.09169006347656 130.97836303710938 C 221.62437438964844 167.66746520996094 238.54959106445312 161.33226013183594 238.34439086914062 152.52806091308594 C 242.23814392089844 137.72543334960938 247.17526245117188 145.8033905029297 239.94976806640625 134.7694091796875" stroke-width="2.0" fill="none" stroke="rgb(0, 0, 0)" stroke-opacity="1" stroke-linecap="round" stroke-linejoin="round"/>
    <path d="M 141.56768798828125 173.09561157226562 C 124.25727081298828 158.3062744140625 162.95965576171875 172.36073303222656 185.4696807861328 177.22251892089844 C 166.18284606933594 132.45298767089844 174.0504608154297 168.5155029296875 200.2051544189453 183.55145263671875 C 202.6659698486328 200.11268615722656 190.8770751953125 186.6854705810547 144.81570434570312 178.80287170410156" stroke-width="2.0" fill="none" stroke="rgb(0, 0, 0)" stroke-opacity="1" stroke-linecap="round" stroke-linejoin="round"/>
    <path d="M 44.60939407348633 176.33811950683594 C 47.758033752441406 177.81109619140625 23.497615814208984 170.35267639160156 -6.083804130554199 153.06857299804688 C -5.066138744354248 168.02468872070312 9.380335807800293 171.02745056152344 43.85722732543945 192.99366760253906" stroke-width="2.0" fill="none" stroke="rgb(0, 0, 0)" stroke-opacity="1" stroke-linecap="round" stroke-linejoin="round"/>
    <path d="M 187.4864044189453 80.33477020263672 C 176.2794189453125 67.50736236572266 161.02023315429688 57.01338195800781 169.51605224609375 73.1744384765625 C 182.43130493164062 76.04475402832031 188.20994567871094 42.541259765625 151.46798706054688 65.28857421875 C 177.14932250976562 74.54560852050781 173.9605712890625 62.733089447021484 156.7183380126953 62.5601692199707" stroke-width="2.0" fill="none" stroke="rgb(0, 0, 0)" stroke-opacity="1" stroke-linecap="round" stroke-linejoin="round"/>
    <path d="M 74.78832244873047 52.21180725097656 C 91.48180389404297 39.155582427978516 74.64830017089844 34.308536529541016 95.4383773803711 34.98787307739258" stroke-width="2.0" fill="none" stroke="rgb(0, 0, 0)" stroke-opacity="1" stroke-linecap="round" stroke-linejoin="round"/>
    <path d="M 78.47785186767578 79.22352600097656 C 86.9797134399414 44.353912353515625 90.28887939453125 42.59850311279297 83.47007751464844 40.321617126464844 C 73.92572784423828 41.624481201171875 86.37861633300781 26.82676124572754 62.26552963256836 27.609464645385742" stroke-width="2.0" fill="none" stroke="rgb(0, 0, 0)" stroke-opacity="1" stroke-linecap="round" stroke-linejoin="round"/>
    <path d="M 50.406959533691406 212.90097045898438 C 57.225685119628906 217.7444305419922 47.088844299316406 198.27865600585938 49.070560455322266 201.2295379638672 C 59.605438232421875 196.72366333007812 42.677127838134766 193.6309814453125 42.825927734375 215.4438934326172 C 21.014373779296875 213.848388671875 18.7719783782959 217.32699584960938 57.418914794921875 201.67572021484375" stroke-width="2.0" fill="none" stroke="rgb(0, 0, 0)" stroke-opacity="1" stroke-linecap="round" stroke-linejoin="round"/>
    <path d="M 171.6700439453125 132.8935089111328 C 181.62879943847656 158.36288452148438 202.80520629882812 146.2051544189453 187.35079956054688 148.0731201171875 C 189.8141632080078 154.40431213378906 202.93923950195312 156.29928588867188 212.82518005371094 119.34737396240234 C 211.6298370361328 112.3880386352539 213.592529296875 110.31065368652344 237.0788116455078 116.5409164428711" stroke-width="2.0" fill="none" stroke="rgb(0, 0, 0)" stroke-opacity="1" stroke-linecap="round" stroke-linejoin="round"/>
    <path d="M 80.02964782714844 39.01247787475586 C 67.76834869384766 40.201290130615234 75.5157470703125 -3.5479490756988525 67.35804748535156 16.697147369384766 C 85.71468353271484 1.1766719818115234 78.57979583740234 13.587292671203613 43.67551040649414 0.9900234937667847 C 45.54253387451172 -10.890961647033691 75.04564666748047 12.160645484924316 95.7944564819336 -5.429304599761963" stroke-width="2.0" fill="none" stroke="rgb(0, 0, 0)" stroke-opacity="1" stroke-linecap="round" stroke-linejoin="round"/>
    <path d="M 182.3694610595703 139.37156677246094 C 166.98304748535156 152.6437530517578 167.4277801513672 142.66610717773438 176.95431518554688 181.10592651367188 C 182.74664306640625 172.07089233398438 207.84524536132812 187.54507446289062 133.00782775878906 164.2141571044922" stroke-width="2.0" fill="none" stroke="rgb(0, 0, 0)" stroke-opacity="1" stroke-linecap="round" stroke-linejoin="round"/>
    <path d="M -11.90082836151123 219.21722412109375 C 20.457195281982422 210.35260009765625 25.983224868774414 216.49148559570312 8.311826705932617 226.93966674804688" stroke-width="2.0" fill="none" stroke="rgb(0, 0, 0)" stroke-opacity="1" stroke-linecap="round" stroke-linejoin="round"/>
    <path d="M 73.54695129394531 36.61903762817383 C 37.62207794189453 35.10471725463867 48.80937576293945 35.425140380859375 71.84487915039062 37.51415252685547 C 19.96706771850586 34.0759391784668 20.477813720703125 29.12022590637207 44.31116485595703 33.63311004638672 C 38.384273529052734 18.3787841796875 64.06511688232422 13.570713996887207 58.046958923339844 -1.6049991846084595" stroke-width="2.0" fill="none" stroke="rgb(0, 0, 0)" stroke-opacity="1" stroke-linecap="round" stroke-linejoin="round"/>
    <path d="M 60.6578254699707 95.15779876708984 C 59.93655014038086 110.95195770263672 32.34756088256836 94.73670196533203 70.16846466064453 113.15416717529297" stroke-width="2.0" fill="none" stroke="rgb(0, 0, 0)" stroke-opacity="1" stroke-linecap="round" stroke-linejoin="round"/>
    <path d="M 70.48150634765625 149.1128387451172 C 73.61026763916016 140.26296997070312 77.2406005859375 155.37474060058594 78.22075653076172 163.924072265625 C 92.2081069946289 145.6292724609375 61.79042434692383 160.93734741210938 67.86907196044922 152.9151153564453" stroke-width="2.0" fill="none" stroke="rgb(0, 0, 0)" stroke-opacity="1" stroke-linecap="round" stroke-linejoin="round"/>
    <path d="M 52.85559844970703 25.78993034362793 C 70.37413787841797 33.11701965332031 69.66661834716797 44.318443298339844 65.58148193359375 40.09099578857422 C 78.7730941772461 27.4843807220459 60.82281494140625 51.82417678833008 60.93547058105469 11.176796913146973" stroke-width="2.0" fill="none" stroke="rgb(0, 0, 0)" stroke-opacity="1" stroke-linecap="round" stroke-linejoin="round"/>
    <path d="M 6.153634071350098 209.8118896484375 C -2.503945827484131 223.65863037109375 -11.15774154663086 217.3386993408203 15.329522132873535 209.13803100585938 C 11.637677192687988 240.8548126220703 14.29159164428711 238.81092834472656 -4.847192764282227 229.83087158203125" stroke-width="2.0" fill="none" stroke="rgb(0, 0, 0)" stroke-opacity="1" stroke-linecap="round" stroke-linejoin="round"/>
    <path d="M 175.01165771484375 83.15476989746094 C 171.88124084472656 55.46015167236328 176.34075927734375 75.69107818603516 183.5837860107422 65.03565216064453 C 169.57669067382812 74.30742645263672 176.7248992919922 87.13572692871094 163.06944274902344 61.609275817871094" stroke-width="2.0" fill="none" stroke="rgb(0, 0, 0)" stroke-opacity="1" stroke-linecap="round" stroke-linejoin="round"/>
    <path d="M 129.46737670898438 83.61360168457031 C 161.05299377441406 92.56346130371094 170.13320922851562 92.1367416381836 167.85107421875 82.71282196044922" stroke-width="2.0" fill="none" stroke="rgb(0, 0, 0)" stroke-opacity="1" stroke-linecap="round" stroke-linejoin="round"/>
    <path d="M 81.23943328857422 179.6197052001953 C 109.4390640258789 187.92489624023438 121.83119201660156 188.8822021484375 119.13014221191406 174.4561309814453 C 99.83343505859375 185.33697509765625 92.34886169433594 199.0633544921875 90.94171905517578 205.68490600585938" stroke-width="2.0" fill="none" stroke="rgb(0, 0, 0)" stroke-opacity="1" stroke-linecap="round" stroke-linejoin="round"/>
    <path d="M 100.3443603515625 43.18797302246094 C 84.29926300048828 40.36762619018555 83.14422607421875 29.15375518798828 83.28457641601562 36.06495666503906 C 91.8891830444336 35.01905059814453 86.32493591308594 38.74494934082031 79.99861145019531 35.57826232910156 C 55.64764404296875 10.131047248840332 79.79158782958984 -0.6933032870292664 59.978458404541016 14.104657173156738" stroke-width="2.0" fill="none" stroke="rgb(0, 0, 0)" stroke-opacity="1" stroke-linecap="round" stroke-linejoin="round"/>
    <path d="M 190.9591827392578 149.29295349121094 C 152.35552978515625 131.12973022460938 176.1636962890625 158.20179748535156 201.60888671875 181.8149871826172 C 173.71490478515625 185.19581604003906 179.52685546875 162.80064392089844 179.2791748046875 181.7094268798828" stroke-width="2.0" fill="none" stroke="rgb(0, 0, 0)" stroke-opacity="1" stroke-linecap="round" stroke-linejoin="round"/>
    <path d="M 120.49565887451172 69.31828308105469 C 124.250244140625 80.69830322265625 118.68860626220703 92.2261962890625 116.05192565917969 77.9675064086914 C 108.60164642333984 100.13804626464844 92.9934310913086 74.37115478515625 82.93232727050781 55.04888153076172 C 98.59278106689453 77.20938873291016 88.5553970336914 97.62942504882812 81.44525146484375 57.62070083618164" stroke-width="2.0" fill="none" stroke="rgb(0, 0, 0)" stroke-opacity="1" stroke-linecap="round" stroke-linejoin="round"/>
    <path d="M 59.44044876098633 74.65898132324219 C 30.20940399169922 59.64356994628906 67.69183349609375 76.27459716796875 85.9955062866211 66.77864837646484 C 59.63591003417969 60.70461654663086 76.71085357666016 51.43638610839844 71.71383666992188 59.07326126098633 C 51.411373138427734 43.02862548828125 51.116539001464844 57.161312103271484 81.66249084472656 87.21305847167969" stroke-width="2.0" fill="none" stroke="rgb(0, 0, 0)" stroke-opacity="1" stroke-linecap="round" stroke-linejoin="round"/>
    <path d="M 55.30236053466797 183.34519958496094 C 56.52984619140625 161.0347900390625 59.578529357910156 168.0679931640625 36.60517501831055 190.1282501220703 C 40.813941955566406 183.3941650390625 38.110843658447266 205.16912841796875 51.27869415283203 184.07948303222656 C 28.593778610229492 210.47450256347656 17.609277725219727 215.58309936523438 50.63998031616211 184.07994079589844" stroke-width="2.0" fill="none" stroke="rgb(0, 0, 0)" stroke-opacity="1" stroke-linecap="round" stroke-linejoin="round"/>
    <path d="M 178.81272888183594 139.96070861816406 C 193.95562744140625 160.3774871826172 200.25071716308594 159.14503479003906 171.95419311523438 140.1431884765625 C 166.49703979492188 132.48765563964844 184.82762145996094 147.11627197265625 202.93309020996094 118.18424224853516" stroke-width="2.0" fill="none" stroke="rgb(0, 0, 0)" stroke-opacity="1" stroke-linecap="round" stroke-linejoin="round"/>
    <path d="M 151.67926025390625 111.48267364501953 C 151.41714477539062 119.9199447631836 145.75430297851562 105.9959945678711 151.61651611328125 137.58233642578125 C 141.4112548828125 145.58543395996094 164.01260375976562 138.764892578125 148.35406494140625 148.4639892578125 C 157.3646240234375 149.5317840576172 141.1413116455078 136.0176239013672 149.03541564941406 136.52120971679688" stroke-width="2.0" fill="none" stroke="rgb(0, 0, 0)" stroke-opacity="1" stroke-linecap="round" stroke-linejoin="round"/>
    <path d="M 203.62786865234375 124.97677612304688 C 156.94801330566406 151.65155029296875 158.9104766845703 152.78456115722656 190.11099243164062 147.8201904296875 C 159.64321899414062 134.20037841796875 149.10964965820312 142.05987548828125 153.87652587890625 139.53494262695312" stroke-width="2.0" fill="none" stroke="rgb(0, 0, 0)" stroke-opacity="1" stroke-linecap="round" stroke-linejoin="round"/>
    <path d="M 139.9819793701172 161.37774658203125 C 175.00534057617188 124.88903045654297 176.1353759765625 124.10520935058594 144.65992736816406 137.7470703125 C 179.78961181640625 146.31947326660156 174.9513702392578 128.9041290283203 187.46859741210938 156.3098602294922 C 186.94163513183594 149.18856811523438 195.6195068359375 149.9231719970703 174.14295959472656 142.52362060546875" stroke-width="2.0" fill="none" stroke="rgb(0, 0, 0)" stroke-opacity="1" stroke-linecap="round" stroke-linejoin="round"/>
    <path d="M 111.1970443725586 137.4774932861328 C 121.10347747802734 123.56135559082031 104.21916961669922 112.23381042480469 118.33295440673828 124.5385513305664 C 110.84300994873047 108.49374389648438 121.5382080078125 138.30841064453125 127.43975067138672 104.59102630615234" stroke-width="2.0" fill="none" stroke="rgb(0, 0, 0)" stroke-opacity="1" stroke-linecap="round" stroke-linejoin="round"/>
    <path d="M 100.5294418334961 68.90738677978516 C 87.7560043334961 56.35209655761719 81.07234954833984 66.19596862792969 96.20997619628906 69.3374252319336" stroke-width="2.0" fill="none" stroke="rgb(0, 0, 0)" stroke-opacity="1" stroke-linecap="round" stroke-linejoin="round"/>
    <path d="M 181.4330596923828 78.65011596679688 C 203.61524963378906 102.19752502441406 185.95541381835938 93.78546142578125 175.40997314453125 109.00911712646484" stroke-width="2.0" fill="none" stroke="rgb(0, 0, 0)" stroke-opacity="1" stroke-linecap="round" stroke-linejoin="round"/>
    <path d="M 185.3193359375 153.63804626464844 C 211.70779418945312 145.50038146972656 200.46798706054688 117.335693359375 228.8661651611328 106.904052734375 C 223.44471740722656 137.88023376464844 226.8034210205078 132.54641723632812 234.61785888671875 127.4122543334961 C 221.9814453125 124.84059143066406 207.5557861328125 114.00994873046875 225.68026733398438 110.7916488647461" stroke-width="2.0" fill="none" stroke="rgb(0, 0, 0)" stroke-opacity="1" stroke-linecap="round" stroke-linejoin="round"/>
    <path d="M 112.12995147705078 32.19038391113281 C 106.92241668701172 36.95930862426758 86.59041595458984 30.67893409729004 87.4117431640625 35.585060119628906 C 104.43904113769531 24.625810623168945 46.615455627441406 37.02965545654297 103.12210845947266 37.164405822753906" stroke-width="2.0" fill="none" stroke="rgb(0, 0, 0)" stroke-opacity="1" stroke-linecap="round" stroke-linejoin="round"/>
    <path d="M 99.51226043701172 158.97885131835938 C 124.87673950195312 171.59837341308594 117.0396728515625 145.22251892089844 114.12932586669922 161.20083618164062" stroke-width="2.0" fill="none" stroke="rgb(0, 0, 0)" stroke-opacity="1" stroke-linecap="round" stroke-linejoin="round"/>
    <path d="M -2.867027997970581 45.45417022705078 C 15.440977096557617 15.998652458190918 -25.26022720336914 41.80361557006836 20.623079299926758 28.783262252807617" stroke-width="2.0" fill="none" stroke="rgb(0, 0, 0)" stroke-opacity="1" stroke-linecap="round" stroke-linejoin="round"/>
    <path d="M 224.1640625 119.20000457763672 C 202.3982696533203 106.53361511230469 208.71351623535156 113.27655792236328 198.7781524658203 127.54779815673828" stroke-width="2.0" fill="none" stroke="rgb(0, 0, 0)" stroke-opacity="1" stroke-linecap="round" stroke-linejoin="round"/>
    <path d="M 91.06544494628906 192.835205078125 C 80.93167114257812 191.15248107910156 114.73603057861328 222.488037109375 92.27618408203125 200.78077697753906" stroke-width="2.0" fill="none" stroke="rgb(0, 0, 0)" stroke-opacity="1" stroke-linecap="round" stroke-linejoin="round"/>
    <path d="M 193.8886260986328 150.58238220214844 C 227.3189697265625 159.67385864257812 214.77450561523438 128.40892028808594 215.66790771484375 114.39292907714844 C 237.3057098388672 154.36444091796875 223.9101104736328 170.56362915039062 233.2286834716797 172.71815490722656" stroke-width="2.0" fill="none" stroke="rgb(0, 0, 0)" stroke-opacity="1" stroke-linecap="round" stroke-linejoin="round"/>
    <path d="M 145.13949584960938 132.1787109375 C 158.71812438964844 117.65606689453125 126.3578872680664 115.85562896728516 142.00332641601562 127.88540649414062 C 149.81336975097656 125.74706268310547 147.73104858398438 145.78895568847656 150.07229614257812 136.2456817626953 C 147.0625457763672 139.05470275878906 186.50437927246094 131.10829162597656 150.84860229492188 136.98570251464844" stroke-width="2.0" fill="none" stroke="rgb(0, 0, 0)" stroke-opacity="1" stroke-linecap="round" stroke-linejoin="round"/>
    <path d="M 6.215821266174316 170.2058563232422 C 11.884818077087402 209.08929443359375 11.868008613586426 228.46044921875 12.912312507629395 234.85284423828125 C -6.6020307540893555 226.26930236816406 26.219982147216797 207.85159301757812 51.0954704284668 195.5146484375 C 23.720745086669922 233.99859619140625 50.086647033691406 217.97760009765625 63.2387809753418 230.57373046875" stroke-width="2.0" fill="none" stroke="rgb(0, 0, 0)" stroke-opacity="1" stroke-linecap="round" stroke-linejoin="round"/>
  </g>
</svg>
