<?xml version="1.0" ?>
<svg xmlns="http://www.w3.org/2000/svg" version="1.1" width="224" height="224">
  <defs/>
  <g>
    <path d="M 162.15386962890625 145.3283233642578 C 195.32997131347656 155.4695587158203 194.07688903808594 137.5643310546875 191.146728515625 130.9989776611328 C 159.51597595214844 145.35897827148438 182.31939697265625 163.91102600097656 205.67578125 119.30207061767578" stroke-width="2.0" fill="none" stroke="rgb(0, 0, 0)" stroke-opacity="1" stroke-linecap="round" stroke-linejoin="round"/>
    <path d="M 165.94430541992188 135.033203125 C 173.25743103027344 136.5142364501953 104.16719818115234 138.6466064453125 71.07947540283203 110.28211212158203 C 103.71800231933594 122.81431579589844 134.65927124023438 130.88674926757812 117.99842071533203 110.56261444091797 C 123.99288177490234 135.3264617919922 109.05332946777344 139.54144287109375 174.0314178466797 135.96958923339844" stroke-width="2.0" fill="none" stroke="rgb(0, 0, 0)" stroke-opacity="1" stroke-linecap="round" stroke-linejoin="round"/>
    <path d="M 38.7091178894043 38.101646423339844 C 2.9378256797790527 35.276790618896484 39.01402282714844 59.554412841796875 41.84082794189453 48.405181884765625" stroke-width="2.0" fill="none" stroke="rgb(0, 0, 0)" stroke-opacity="1" stroke-linecap="round" stroke-linejoin="round"/>
    <path d="M 138.7179412841797 136.47914123535156 C 134.94729614257812 129.53489685058594 149.3492889404297 145.93588256835938 203.2856903076172 122.3130874633789" stroke-width="2.0" fill="none" stroke="rgb(0, 0, 0)" stroke-opacity="1" stroke-linecap="round" stroke-linejoin="round"/>
    <path d="M 103.67084503173828 23.337844848632812 C 125.93038940429688 35.44923782348633 147.15724182128906 12.685717582702637 135.75750732421875 -12.271858215332031 C 141.55645751953125 18.51296615600586 158.3106689453125 38.714603424072266 175.40260314941406 12.527915954589844" stroke-width="2.0" fill="none" stroke="rgb(0, 0, 0)" stroke-opacity="1" stroke-linecap="round" stroke-linejoin="round"/>
    <path d="M 192.04299926757812 205.8246307373047 C 155.615966796875 221.9962615966797 178.3294219970703 190.24974060058594 184.9441680908203 209.88951110839844 C 194.75381469726562 213.68545532226562 201.75119018554688 213.52560424804688 166.36666870117188 210.89385986328125" stroke-width="2.0" fill="none" stroke="rgb(0, 0, 0)" stroke-opacity="1" stroke-linecap="round" stroke-linejoin="round"/>
    <path d="M 165.00701904296875 215.50941467285156 C 190.86509704589844 198.12120056152344 188.77565002441406 195.62823486328125 155.98175048828125 209.71913146972656 C 154.87753295898438 148.98045349121094 173.4164276123047 185.98126220703125 132.564208984375 183.37591552734375 C 163.7657470703125 195.75869750976562 118.13556671142578 198.90138244628906 134.73789978027344 183.410888671875" stroke-width="2.0" fill="none" stroke="rgb(0, 0, 0)" stroke-opacity="1" stroke-linecap="round" stroke-linejoin="round"/>
    <path d="M 132.0055389404297 151.6975860595703 C 144.7053680419922 127.10417938232422 162.11341857910156 118.23523712158203 145.35879516601562 147.1134490966797" stroke-width="2.0" fill="none" stroke="rgb(0, 0, 0)" stroke-opacity="1" stroke-linecap="round" stroke-linejoin="round"/>
    <path d="M 18.374794006347656 34.274940490722656 C 39.9365119934082 34.309207916259766 59.750221252441406 54.61761474609375 22.168283462524414 60.314998626708984 C 30.735458374023438 83.64647674560547 75.35799407958984 92.94913482666016 31.99155044555664 60.95359802246094 C 39.55003356933594 85.67994689941406 48.00056457519531 100.68424224853516 86.12277221679688 82.392333984375" stroke-width="2.0" fill="none" stroke="rgb(0, 0, 0)" stroke-opacity="1" stroke-linecap="round" stroke-linejoin="round"/>
    <path d="M 57.418190002441406 192.61941528320312 C 90.5035629272461 168.02978515625 90.16209411621094 186.56307983398438 81.31729125976562 203.2818603515625 C 74.14047241210938 182.01992797851562 76.80833435058594 192.40219116210938 90.81731414794922 188.02235412597656 C 107.48865509033203 176.9176788330078 112.85861206054688 216.5352020263672 138.9705352783203 197.74456787109375" stroke-width="2.0" fill="none" stroke="rgb(0, 0, 0)" stroke-opacity="1" stroke-linecap="round" stroke-linejoin="round"/>
    <path d="M 206.91871643066406 195.74891662597656 C 207.31333923339844 192.4867706298828 206.94619750976562 185.7313690185547 198.2964630126953 211.465087890625 C 215.1799774169922 200.0499725341797 224.6043243408203 196.6276092529297 224.4070587158203 143.2001953125 C 211.3921356201172 177.9169158935547 215.62112426757812 162.54995727539062 221.1554718017578 118.2984619140625" stroke-width="2.0" fill="none" stroke="rgb(0, 0, 0)" stroke-opacity="1" stroke-linecap="round" stroke-linejoin="round"/>
    <path d="M 159.239990234375 -7.1384477615356445 C 160.70693969726562 8.235638618469238 153.2869873046875 3.619297981262207 166.74459838867188 23.60566520690918 C 179.82235717773438 20.18454933166504 176.56390380859375 6.729325771331787 171.44625854492188 -13.648916244506836 C 176.86061096191406 -0.027410130947828293 178.1475067138672 18.911163330078125 170.9387969970703 23.07984733581543" stroke-width="2.0" fill="none" stroke="rgb(0, 0, 0)" stroke-opacity="1" stroke-linecap="round" stroke-linejoin="round"/>
    <path d="M 180.39930725097656 122.2101821899414 C 162.2577667236328 124.1801528930664 181.8076629638672 118.9086685180664 197.010009765625 113.88814544677734 C 200.3026123046875 115.93656158447266 205.94186401367188 108.19698333740234 188.61758422851562 137.2147674560547" stroke-width="2.0" fill="none" stroke="rgb(0, 0, 0)" stroke-opacity="1" stroke-linecap="round" stroke-linejoin="round"/>
    <path d="M 97.43984985351562 206.26516723632812 C 87.09244537353516 217.61227416992188 92.9276351928711 218.03497314453125 122.0777587890625 206.92478942871094" stroke-width="2.0" fill="none" stroke="rgb(0, 0, 0)" stroke-opacity="1" stroke-linecap="round" stroke-linejoin="round"/>
    <path d="M 187.853759765625 35.16439437866211 C 160.59706115722656 46.40874481201172 174.85997009277344 25.762855529785156 167.400146484375 56.73319625854492" stroke-width="2.0" fill="none" stroke="rgb(0, 0, 0)" stroke-opacity="1" stroke-linecap="round" stroke-linejoin="round"/>
    <path d="M 67.2195053100586 120.48724365234375 C 86.7122802734375 112.68034362792969 87.84188842773438 155.27151489257812 87.5324935913086 127.09947967529297" stroke-width="2.0" fill="none" stroke="rgb(0, 0, 0)" stroke-opacity="1" stroke-linecap="round" stroke-linejoin="round"/>
    <path d="M 33.84415817260742 155.20074462890625 C 34.77402114868164 144.2713165283203 23.592796325683594 163.50054931640625 6.28273868560791 126.26416015625" stroke-width="2.0" fill="none" stroke="rgb(0, 0, 0)" stroke-opacity="1" stroke-linecap="round" stroke-linejoin="round"/>
    <path d="M 41.1020393371582 -4.171702861785889 C 1.5416083335876465 -13.534459114074707 8.3822603225708 30.54194450378418 36.09487533569336 45.899818420410156 C 23.841533660888672 40.02046203613281 43.567752838134766 29.92215919494629 81.73839569091797 36.9221076965332 C 63.795143127441406 63.914363861083984 64.80718231201172 64.31021881103516 83.02350616455078 80.7147445678711" stroke-width="2.0" fill="none" stroke="rgb(0, 0, 0)" stroke-opacity="1" stroke-linecap="round" stroke-linejoin="round"/>
    <path d="M 6.082245349884033 109.2425308227539 C 18.069774627685547 144.7843780517578 31.252500534057617 122.65995788574219 14.662962913513184 115.7386474609375 C 9.272753715515137 101.59232330322266 11.997291564941406 88.32718658447266 21.118755340576172 124.56146240234375 C 25.79652214050293 98.24667358398438 -5.712615966796875 76.54688262939453 13.57536792755127 52.34556579589844" stroke-width="2.0" fill="none" stroke="rgb(0, 0, 0)" stroke-opacity="1" stroke-linecap="round" stroke-linejoin="round"/>
    <path d="M 199.84693908691406 169.96444702148438 C 194.1253662109375 181.8241729736328 176.765380859375 179.2104949951172 187.89886474609375 175.40924072265625" stroke-width="2.0" fill="none" stroke="rgb(0, 0, 0)" stroke-opacity="1" stroke-linecap="round" stroke-linejoin="round"/>
    <path d="M 52.76317596435547 59.53497314453125 C 20.330780029296875 48.764060974121094 18.380929946899414 36.70499038696289 53.02289962768555 40.63310623168945 C 28.1777400970459 51.239341735839844 50.47491455078125 40.3291015625 25.631359100341797 29.346446990966797 C 27.34316062927246 66.1717529296875 32.455970764160156 87.11473846435547 55.61772918701172 86.16259765625" stroke-width="2.0" fill="none" stroke="rgb(0, 0, 0)" stroke-opacity="1" stroke-linecap="round" stroke-linejoin="round"/>
    <path d="M 172.46560668945312 183.02316284179688 C 176.02159118652344 190.54603576660156 154.67373657226562 203.41888427734375 160.87918090820312 196.86648559570312" stroke-width="2.0" fill="none" stroke="rgb(0, 0, 0)" stroke-opacity="1" stroke-linecap="round" stroke-linejoin="round"/>
    <path d="M 186.2376708984375 126.79525756835938 C 149.38311767578125 142.42105102539062 222.0536346435547 128.06707763671875 174.92660522460938 147.33168029785156 C 179.6115264892578 125.764404296875 229.61996459960938 103.0292739868164 191.85137939453125 121.31815338134766 C 145.90211486816406 139.86767578125 114.00125122070312 134.45201110839844 98.16680908203125 133.88613891601562" stroke-width="2.0" fill="none" stroke="rgb(0, 0, 0)" stroke-opacity="1" stroke-linecap="round" stroke-linejoin="round"/>
    <path d="M 216.88018798828125 -3.843811273574829 C 220.87435913085938 4.475895404815674 220.47015380859375 28.77685546875 218.90859985351562 0.06867362558841705" stroke-width="2.0" fill="none" stroke="rgb(0, 0, 0)" stroke-opacity="1" stroke-linecap="round" stroke-linejoin="round"/>
    <path d="M 152.5997314453125 222.7615203857422 C 194.5117950439453 230.86180114746094 172.76145935058594 223.8141632080078 154.8394012451172 234.41749572753906 C 161.28982543945312 242.75909423828125 172.12786865234375 253.6189422607422 177.79766845703125 258.16082763671875" stroke-width="2.0" fill="none" stroke="rgb(0, 0, 0)" stroke-opacity="1" stroke-linecap="round" stroke-linejoin="round"/>
    <path d="M 114.61248779296875 65.76544189453125 C 114.9980697631836 37.54700469970703 138.97926330566406 119.95256805419922 101.58486938476562 66.55388641357422" stroke-width="2.0" fill="none" stroke="rgb(0, 0, 0)" stroke-opacity="1" stroke-linecap="round" stroke-linejoin="round"/>
    <path d="M 135.07498168945312 200.8765411376953 C 152.78750610351562 190.43673706054688 166.57591247558594 159.9302978515625 161.50296020507812 170.80467224121094 C 141.8982391357422 203.4328155517578 165.1375732421875 205.65675354003906 194.92164611816406 177.21192932128906 C 166.02542114257812 188.4552001953125 189.6329803466797 170.2022705078125 166.3701629638672 179.76116943359375" stroke-width="2.0" fill="none" stroke="rgb(0, 0, 0)" stroke-opacity="1" stroke-linecap="round" stroke-linejoin="round"/>
    <path d="M 136.33631896972656 85.66451263427734 C 117.9854736328125 70.07530212402344 138.98045349121094 61.632659912109375 141.0349578857422 60.9585075378418 C 124.49716186523438 47.17726135253906 92.93643188476562 38.733795166015625 139.62271118164062 52.297142028808594" stroke-width="2.0" fill="none" stroke="rgb(0, 0, 0)" stroke-opacity="1" stroke-linecap="round" stroke-linejoin="round"/>
    <path d="M 166.3046875 73.45401000976562 C 165.6468963623047 99.88878631591797 162.81716918945312 71.96134948730469 160.21524047851562 70.89561462402344 C 170.5782012939453 76.73194885253906 152.9382781982422 52.10513687133789 152.26837158203125 56.59250259399414" stroke-width="2.0" fill="none" stroke="rgb(0, 0, 0)" stroke-opacity="1" stroke-linecap="round" stroke-linejoin="round"/>
    <path d="M 102.46026611328125 153.61483764648438 C 132.74147033691406 137.05885314941406 144.52206420898438 133.37290954589844 68.08765411376953 125.98644256591797" stroke-width="2.0" fill="none" stroke="rgb(0, 0, 0)" stroke-opacity="1" stroke-linecap="round" stroke-linejoin="round"/>
    <path d="M 64.55787658691406 78.50897216796875 C 61.77431106567383 91.85621643066406 18.943761825561523 74.32830810546875 12.640892028808594 33.44446563720703" stroke-width="2.0" fill="none" stroke="rgb(0, 0, 0)" stroke-opacity="1" stroke-linecap="round" stroke-linejoin="round"/>
    <path d="M 151.8434295654297 56.882816314697266 C 131.43060302734375 67.69274139404297 120.60372924804688 45.58055877685547 131.18466186523438 53.05394744873047" stroke-width="2.0" fill="none" stroke="rgb(0, 0, 0)" stroke-opacity="1" stroke-linecap="round" stroke-linejoin="round"/>
    <path d="M 184.92637634277344 161.01307678222656 C 153.5876007080078 169.16854858398438 142.65090942382812 173.27198791503906 156.1163787841797 165.76719665527344" stroke-width="2.0" fill="none" stroke="rgb(0, 0, 0)" stroke-opacity="1" stroke-linecap="round" stroke-linejoin="round"/>
    <path d="M 207.90286254882812 186.93536376953125 C 207.45420837402344 207.1553955078125 217.899658203125 198.7731170654297 171.85581970214844 220.18350219726562 C 178.59471130371094 222.38919067382812 192.53558349609375 212.92947387695312 168.78909301757812 226.86492919921875" stroke-width="2.0" fill="none" stroke="rgb(0, 0, 0)" stroke-opacity="1" stroke-linecap="round" stroke-linejoin="round"/>
    <path d="M 124.56465148925781 71.56161499023438 C 139.17169189453125 93.42314147949219 152.71534729003906 91.78430938720703 155.80238342285156 60.72209930419922" stroke-width="2.0" fill="none" stroke="rgb(0, 0, 0)" stroke-opacity="1" stroke-linecap="round" stroke-linejoin="round"/>
    <path d="M 125.87926483154297 230.72238159179688 C 101.8376235961914 225.59567260742188 103.559326171875 231.3141326904297 95.00231170654297 227.98187255859375 C 84.20893859863281 210.8165283203125 47.34083557128906 233.1922149658203 132.03076171875 227.57032775878906 C 132.2709197998047 225.4573211669922 95.966552734375 237.33546447753906 84.9482421875 226.1262969970703" stroke-width="2.0" fill="none" stroke="rgb(0, 0, 0)" stroke-opacity="1" stroke-linecap="round" stroke-linejoin="round"/>
    <path d="M 7.154632091522217 86.31755065917969 C 5.301502227783203 93.22993469238281 2.1702208518981934 87.91830444335938 7.552855491638184 116.38140106201172" stroke-width="2.0" fill="none" stroke="rgb(0, 0, 0)" stroke-opacity="1" stroke-linecap="round" stroke-linejoin="round"/>
    <path d="M 187.33428955078125 157.7190399169922 C 216.35777282714844 143.63917541503906 202.47653198242188 133.94161987304688 193.84814453125 162.35714721679688 C 194.223876953125 173.8189697265625 196.00048828125 153.0751953125 194.65704345703125 159.8720703125 C 191.42034912109375 144.66693115234375 202.84417724609375 146.67347717285156 190.03118896484375 155.5059051513672" stroke-width="2.0" fill="none" stroke="rgb(0, 0, 0)" stroke-opacity="1" stroke-linecap="round" stroke-linejoin="round"/>
    <path d="M 130.05209350585938 189.79098510742188 C 147.00709533691406 184.1157684326172 170.5258026123047 180.3656768798828 117.15656280517578 191.67181396484375" stroke-width="2.0" fill="none" stroke="rgb(0, 0, 0)" stroke-opacity="1" stroke-linecap="round" stroke-linejoin="round"/>
    <path d="M 22.03451919555664 164.23886108398438 C 4.477439880371094 151.297119140625 -1.5062742233276367 153.5787353515625 5.1566619873046875 130.24798583984375" stroke-width="2.0" fill="none" stroke="rgb(0, 0, 0)" stroke-opacity="1" stroke-linecap="round" stroke-linejoin="round"/>
    <path d="M 32.80409240722656 139.7256622314453 C 11.577120780944824 129.0315704345703 -5.544283390045166 113.80620574951172 4.501874923706055 79.57169342041016" stroke-width="2.0" fill="none" stroke="rgb(0, 0, 0)" stroke-opacity="1" stroke-linecap="round" stroke-linejoin="round"/>
    <path d="M 48.44659423828125 45.97654724121094 C 91.519287109375 44.84861373901367 81.8681640625 34.039676666259766 72.96273803710938 54.64793014526367 C 55.10332107543945 50.49346923828125 45.23265838623047 81.21527099609375 24.653860092163086 56.22853088378906" stroke-width="2.0" fill="none" stroke="rgb(0, 0, 0)" stroke-opacity="1" stroke-linecap="round" stroke-linejoin="round"/>
    <path d="M 194.08128356933594 53.35850143432617 C 195.0011749267578 82.50027465820312 182.37551879882812 80.42010498046875 163.9893798828125 68.79572296142578 C 173.2207794189453 73.5626449584961 171.7601318359375 81.83644104003906 147.29443359375 47.505584716796875 C 164.0529022216797 68.46742248535156 165.2444610595703 80.1665267944336 187.47763061523438 53.01887130737305" stroke-width="2.0" fill="none" stroke="rgb(0, 0, 0)" stroke-opacity="1" stroke-linecap="round" stroke-linejoin="round"/>
    <path d="M 142.9488983154297 57.80810546875 C 131.0014190673828 41.48731994628906 141.4906463623047 80.82225036621094 163.2024383544922 93.02967834472656 C 165.56057739257812 87.09979248046875 163.58270263671875 71.6981201171875 175.96551513671875 100.2663345336914" stroke-width="2.0" fill="none" stroke="rgb(0, 0, 0)" stroke-opacity="1" stroke-linecap="round" stroke-linejoin="round"/>
    <path d="M 75.1604995727539 40.711952209472656 C 67.67918395996094 54.45245361328125 83.81893920898438 61.0877685546875 77.36546325683594 40.01565933227539 C 60.748416900634766 40.935176849365234 62.79072189331055 57.8964958190918 34.61663818359375 72.03329467773438" stroke-width="2.0" fill="none" stroke="rgb(0, 0, 0)" stroke-opacity="1" stroke-linecap="round" stroke-linejoin="round"/>
    <path d="M 35.71865463256836 94.37667846679688 C 36.066410064697266 117.31806945800781 38.25872039794922 112.0957260131836 34.474143981933594 94.8795394897461" stroke-width="2.0" fill="none" stroke="rgb(0, 0, 0)" stroke-opacity="1" stroke-linecap="round" stroke-linejoin="round"/>
    <path d="M 18.295000076293945 107.9120864868164 C 15.140643119812012 120.65807342529297 19.32940673828125 125.43714141845703 19.087060928344727 116.20740509033203 C 7.305907726287842 111.40888214111328 18.873994827270508 80.8858413696289 22.93997573852539 90.14276123046875 C 14.599380493164062 83.17826843261719 31.35592269897461 84.30160522460938 22.95578384399414 80.8676986694336" stroke-width="2.0" fill="none" stroke="rgb(0, 0, 0)" stroke-opacity="1" stroke-linecap="round" stroke-linejoin="round"/>
    <path d="M -2.2125515937805176 77.6677017211914 C -4.859665393829346 87.884521484375 -10.805402755737305 87.32804107666016 -7.152643203735352 81.37934875488281" stroke-width="2.0" fill="none" stroke="rgb(0, 0, 0)" stroke-opacity="1" stroke-linecap="round" stroke-linejoin="round"/>
    <path d="M 113.91488647460938 104.6055908203125 C 195.36146545410156 101.59744262695312 185.1122589111328 97.90995788574219 131.9017791748047 96.78707122802734 C 119.55986785888672 84.54515838623047 135.4386749267578 102.10528564453125 174.9920654296875 87.91133117675781" stroke-width="2.0" fill="none" stroke="rgb(0, 0, 0)" stroke-opacity="1" stroke-linecap="round" stroke-linejoin="round"/>
    <path d="M 214.57667541503906 231.7086181640625 C 233.45993041992188 221.72576904296875 242.46487426757812 224.9438018798828 252.4424285888672 234.824951171875 C 240.66783142089844 247.5312957763672 247.03286743164062 246.41070556640625 252.57598876953125 247.40322875976562 C 255.0670623779297 246.04827880859375 252.34275817871094 244.23971557617188 259.9749450683594 240.24331665039062" stroke-width="2.0" fill="none" stroke="rgb(0, 0, 0)" stroke-opacity="1" stroke-linecap="round" stroke-linejoin="round"/>
    <path d="M 31.66042709350586 137.59274291992188 C 67.47643280029297 163.62045288085938 65.4932632446289 148.9932098388672 54.96835708618164 115.61251831054688 C 52.36014938354492 127.13516998291016 48.980506896972656 126.69503784179688 35.434120178222656 157.06887817382812 C 51.37691879272461 160.6358184814453 72.34098815917969 165.08633422851562 39.78154754638672 157.6947784423828" stroke-width="2.0" fill="none" stroke="rgb(0, 0, 0)" stroke-opacity="1" stroke-linecap="round" stroke-linejoin="round"/>
    <path d="M 100.25361633300781 225.7537078857422 C 85.67723083496094 235.34197998046875 92.11674499511719 244.49171447753906 73.76934051513672 205.245361328125 C 90.32869720458984 214.3821563720703 72.20295715332031 233.1340789794922 69.98192596435547 217.9442138671875" stroke-width="2.0" fill="none" stroke="rgb(0, 0, 0)" stroke-opacity="1" stroke-linecap="round" stroke-linejoin="round"/>
    <path d="M 3.8493542671203613 148.12054443359375 C 1.978705644607544 127.81893920898438 2.066128730773926 138.69166564941406 7.682314872741699 159.914306640625" stroke-width="2.0" fill="none" stroke="rgb(0, 0, 0)" stroke-opacity="1" stroke-linecap="round" stroke-linejoin="round"/>
    <path d="M 219.62864685058594 7.940298080444336 C 221.97268676757812 36.543399810791016 201.19691467285156 57.059364318847656 202.940673828125 34.68489074707031 C 231.86245727539062 22.29843521118164 228.95388793945312 13.819086074829102 227.61669921875 8.396199226379395 C 247.0092315673828 21.95580291748047 254.0452423095703 29.40837287902832 230.3874053955078 31.42491340637207" stroke-width="2.0" fill="none" stroke="rgb(0, 0, 0)" stroke-opacity="1" stroke-linecap="round" stroke-linejoin="round"/>
    <path d="M 194.79336547851562 165.73977661132812 C 190.5607147216797 141.0923309326172 195.7659912109375 141.5656280517578 162.64761352539062 188.04080200195312 C 177.76266479492188 130.66586303710938 188.94479370117188 138.99598693847656 169.73690795898438 135.6470947265625" stroke-width="2.0" fill="none" stroke="rgb(0, 0, 0)" stroke-opacity="1" stroke-linecap="round" stroke-linejoin="round"/>
    <path d="M 144.18264770507812 97.08026885986328 C 154.46786499023438 79.9219970703125 100.72356414794922 74.53738403320312 107.06159973144531 96.55941009521484" stroke-width="2.0" fill="none" stroke="rgb(0, 0, 0)" stroke-opacity="1" stroke-linecap="round" stroke-linejoin="round"/>
    <path d="M 193.30836486816406 93.44739532470703 C 171.73257446289062 88.89720153808594 210.5050506591797 95.5565414428711 215.36439514160156 63.30862045288086 C 217.87840270996094 44.97929382324219 220.87890625 112.09976959228516 200.5836944580078 119.18843078613281" stroke-width="2.0" fill="none" stroke="rgb(0, 0, 0)" stroke-opacity="1" stroke-linecap="round" stroke-linejoin="round"/>
    <path d="M 17.285140991210938 155.47679138183594 C 11.18921184539795 127.68535614013672 18.07554054260254 153.02626037597656 43.970977783203125 158.4979248046875" stroke-width="2.0" fill="none" stroke="rgb(0, 0, 0)" stroke-opacity="1" stroke-linecap="round" stroke-linejoin="round"/>
    <path d="M 1.6509110927581787 89.1956558227539 C -0.9287781715393066 117.1353759765625 22.684284210205078 146.08746337890625 15.513465881347656 110.83728790283203" stroke-width="2.0" fill="none" stroke="rgb(0, 0, 0)" stroke-opacity="1" stroke-linecap="round" stroke-linejoin="round"/>
    <path d="M 38.51383590698242 158.0189666748047 C 105.30615234375 171.59637451171875 88.41464233398438 168.43955993652344 67.92404174804688 157.38633728027344" stroke-width="2.0" fill="none" stroke="rgb(0, 0, 0)" stroke-opacity="1" stroke-linecap="round" stroke-linejoin="round"/>
    <path d="M 83.11831665039062 163.3212127685547 C 94.76083374023438 157.56378173828125 80.6713638305664 162.44815063476562 88.94154357910156 168.8617401123047" stroke-width="2.0" fill="none" stroke="rgb(0, 0, 0)" stroke-opacity="1" stroke-linecap="round" stroke-linejoin="round"/>
    <path d="M 86.95217895507812 61.61830520629883 C 119.3249282836914 95.27965545654297 123.89436340332031 107.77619171142578 95.4469985961914 90.76530456542969 C 93.64429473876953 55.29288101196289 113.89952850341797 58.43470764160156 95.1988525390625 87.23197174072266 C 85.39768981933594 55.47298812866211 79.0354232788086 48.754093170166016 92.84708404541016 87.77791595458984" stroke-width="2.0" fill="none" stroke="rgb(0, 0, 0)" stroke-opacity="1" stroke-linecap="round" stroke-linejoin="round"/>
    <path d="M 166.04620361328125 33.22564697265625 C 162.7942657470703 59.746395111083984 168.0750274658203 66.85902404785156 167.17259216308594 30.31354522705078 C 171.2152862548828 75.93265533447266 178.09776306152344 33.41071319580078 169.24966430664062 54.41334915161133" stroke-width="2.0" fill="none" stroke="rgb(0, 0, 0)" stroke-opacity="1" stroke-linecap="round" stroke-linejoin="round"/>
    <path d="M 127.8311996459961 70.61433410644531 C 103.53412628173828 100.71282196044922 130.62783813476562 93.16844177246094 137.47958374023438 103.31183624267578 C 127.68132019042969 91.47828674316406 121.81717681884766 101.29145050048828 133.49288940429688 96.6019058227539 C 131.4645233154297 66.52661895751953 110.69795989990234 84.9753646850586 149.44937133789062 86.35203552246094" stroke-width="2.0" fill="none" stroke="rgb(0, 0, 0)" stroke-opacity="1" stroke-linecap="round" stroke-linejoin="round"/>
    <path d="M 99.63618469238281 106.75032806396484 C 103.7908935546875 97.91651916503906 72.70346069335938 114.63932800292969 102.63841247558594 118.84864807128906 C 107.99419403076172 113.43037414550781 118.11235809326172 91.75919342041016 97.33477020263672 118.22661590576172" stroke-width="2.0" fill="none" stroke="rgb(0, 0, 0)" stroke-opacity="1" stroke-linecap="round" stroke-linejoin="round"/>
    <path d="M 107.46219635009766 201.80224609375 C 82.41084289550781 224.35406494140625 86.0039291381836 220.48812866210938 100.32186889648438 232.42123413085938 C 101.83430480957031 231.08367919921875 108.45884704589844 239.95138549804688 115.34955596923828 249.17835998535156 C 115.84569549560547 240.43548583984375 117.01632690429688 236.31166076660156 111.95172119140625 227.79074096679688" stroke-width="2.0" fill="none" stroke="rgb(0, 0, 0)" stroke-opacity="1" stroke-linecap="round" stroke-linejoin="round"/>
    <path d="M 212.90716552734375 14.429516792297363 C 218.0865478515625 -18.383331298828125 230.68869018554688 9.806118965148926 158.16299438476562 5.329672813415527 C 167.55616760253906 8.667927742004395 207.23492431640625 19.320022583007812 223.96327209472656 -7.0448689460754395 C 239.59396362304688 13.410253524780273 244.84046936035156 24.381746292114258 218.43589782714844 -15.486360549926758" stroke-width="2.0" fill="none" stroke="rgb(0, 0, 0)" stroke-opacity="1" stroke-linecap="round" stroke-linejoin="round"/>
    <path d="M 205.31605529785156 59.267208099365234 C 217.53404235839844 38.61893844604492 226.5752410888672 34.897972106933594 206.2747039794922 44.41033172607422" stroke-width="2.0" fill="none" stroke="rgb(0, 0, 0)" stroke-opacity="1" stroke-linecap="round" stroke-linejoin="round"/>
    <path d="M 141.6974639892578 164.15682983398438 C 174.89340209960938 119.52091979980469 183.1313934326172 116.31316375732422 168.7046356201172 180.2432861328125 C 195.77780151367188 162.75758361816406 188.31817626953125 131.5384979248047 186.60223388671875 152.78536987304688 C 184.26223754882812 176.42279052734375 150.82720947265625 154.14549255371094 159.6101531982422 195.39268493652344" stroke-width="2.0" fill="none" stroke="rgb(0, 0, 0)" stroke-opacity="1" stroke-linecap="round" stroke-linejoin="round"/>
    <path d="M 143.8869171142578 88.09329223632812 C 182.00303649902344 78.66038513183594 171.1204071044922 51.40452194213867 177.9477996826172 62.68564224243164" stroke-width="2.0" fill="none" stroke="rgb(0, 0, 0)" stroke-opacity="1" stroke-linecap="round" stroke-linejoin="round"/>
    <path d="M 15.253914833068848 141.684814453125 C 23.262048721313477 152.23045349121094 34.62156677246094 171.9852294921875 11.418182373046875 155.7728271484375 C 1.5104944705963135 164.50839233398438 -5.5223870277404785 137.45584106445312 2.2518982887268066 123.26949310302734 C -0.5625715851783752 115.24208068847656 1.6150988340377808 104.83470153808594 -8.997322082519531 99.28485870361328" stroke-width="2.0" fill="none" stroke="rgb(0, 0, 0)" stroke-opacity="1" stroke-linecap="round" stroke-linejoin="round"/>
    <path d="M 99.35000610351562 201.07386779785156 C 103.11961364746094 211.35682678222656 123.51372528076172 189.7131805419922 140.66796875 186.59222412109375 C 116.63701629638672 196.16717529296875 105.43605041503906 178.1752166748047 140.42770385742188 214.2528533935547 C 92.26192474365234 218.9279022216797 145.71694946289062 218.02828979492188 182.43563842773438 202.71798706054688" stroke-width="2.0" fill="none" stroke="rgb(0, 0, 0)" stroke-opacity="1" stroke-linecap="round" stroke-linejoin="round"/>
    <path d="M 31.114084243774414 42.734195709228516 C 70.93013763427734 53.08074951171875 73.54974365234375 59.71376037597656 73.64763641357422 50.407562255859375 C 60.424591064453125 33.677589416503906 52.81086349487305 46.63783645629883 67.44700622558594 36.1855583190918 C 90.8140869140625 30.215559005737305 86.1860122680664 48.74916458129883 37.78147506713867 30.852611541748047" stroke-width="2.0" fill="none" stroke="rgb(0, 0, 0)" stroke-opacity="1" stroke-linecap="round" stroke-linejoin="round"/>
    <path d="M 220.75628662109375 -6.29823637008667 C 219.81800842285156 -1.58061683177948 218.2220916748047 -9.749180793762207 226.0807647705078 -5.225219249725342 C 226.23580932617188 -8.060407638549805 232.79393005371094 -1.1829606294631958 228.80859375 -3.4341766834259033 C 239.80804443359375 -5.367534637451172 230.74293518066406 -8.815431594848633 231.80795288085938 -6.37636137008667" stroke-width="2.0" fill="none" stroke="rgb(0, 0, 0)" stroke-opacity="1" stroke-linecap="round" stroke-linejoin="round"/>
    <path d="M 112.80380249023438 59.96992492675781 C 139.3805694580078 84.89493560791016 127.10662078857422 115.55070495605469 141.55377197265625 98.76803588867188 C 133.91763305664062 106.49421691894531 122.46118927001953 101.97325134277344 139.4320526123047 104.9324722290039 C 127.21553802490234 104.90493774414062 121.4162368774414 105.54639434814453 128.2673797607422 100.98321533203125" stroke-width="2.0" fill="none" stroke="rgb(0, 0, 0)" stroke-opacity="1" stroke-linecap="round" stroke-linejoin="round"/>
    <path d="M 146.34841918945312 28.036197662353516 C 181.50123596191406 25.510494232177734 198.4576873779297 24.83136749267578 197.2125244140625 26.949138641357422 C 188.26197814941406 -1.4388775825500488 192.4971160888672 8.275226593017578 192.0516357421875 24.546480178833008 C 191.97213745117188 -16.192333221435547 173.9136199951172 -8.566451072692871 183.8500213623047 -8.243279457092285" stroke-width="2.0" fill="none" stroke="rgb(0, 0, 0)" stroke-opacity="1" stroke-linecap="round" stroke-linejoin="round"/>
    <path d="M 180.8158416748047 10.624700546264648 C 220.14385986328125 -2.571965456008911 217.25511169433594 0.5529423952102661 189.9508056640625 3.3711342811584473 C 205.3762664794922 9.206491470336914 172.7189483642578 17.114137649536133 175.21987915039062 -2.654237985610962" stroke-width="2.0" fill="none" stroke="rgb(0, 0, 0)" stroke-opacity="1" stroke-linecap="round" stroke-linejoin="round"/>
    <path d="M 29.351009368896484 233.23663330078125 C 32.31690979003906 240.54833984375 28.963945388793945 219.62750244140625 42.57524490356445 222.67835998535156" stroke-width="2.0" fill="none" stroke="rgb(0, 0, 0)" stroke-opacity="1" stroke-linecap="round" stroke-linejoin="round"/>
    <path d="M 146.54135131835938 28.55897331237793 C 77.51251220703125 13.677854537963867 85.5192642211914 -5.890689373016357 126.38983917236328 28.244518280029297" stroke-width="2.0" fill="none" stroke="rgb(0, 0, 0)" stroke-opacity="1" stroke-linecap="round" stroke-linejoin="round"/>
    <path d="M 159.77696228027344 66.3228530883789 C 143.48529052734375 85.34898376464844 132.3970489501953 71.51634216308594 133.7403564453125 46.07373046875 C 122.29875183105469 72.29452514648438 153.53224182128906 79.4593734741211 154.1361541748047 72.3502426147461 C 141.4951171875 36.01696014404297 140.1907196044922 50.606903076171875 118.75431823730469 50.128543853759766" stroke-width="2.0" fill="none" stroke="rgb(0, 0, 0)" stroke-opacity="1" stroke-linecap="round" stroke-linejoin="round"/>
    <path d="M 126.255615234375 28.087928771972656 C 106.13129425048828 26.827978134155273 129.7796630859375 17.709285736083984 103.0199966430664 12.93862533569336 C 126.91558837890625 1.34718918800354 113.7686767578125 19.506305694580078 122.99288940429688 13.669650077819824 C 103.17149353027344 10.19052505493164 106.0570297241211 7.530716419219971 113.53933715820312 23.52323341369629" stroke-width="2.0" fill="none" stroke="rgb(0, 0, 0)" stroke-opacity="1" stroke-linecap="round" stroke-linejoin="round"/>
    <path d="M 60.799461364746094 229.81622314453125 C 73.36470031738281 246.5607147216797 79.05782318115234 233.2372589111328 83.5518798828125 226.68638610839844 C 58.06585693359375 216.46360778808594 32.6943244934082 196.09860229492188 56.11338806152344 207.89096069335938" stroke-width="2.0" fill="none" stroke="rgb(0, 0, 0)" stroke-opacity="1" stroke-linecap="round" stroke-linejoin="round"/>
    <path d="M 100.13094329833984 172.7977752685547 C 98.25359344482422 141.61865234375 109.81497955322266 129.64175415039062 104.96041107177734 144.98297119140625 C 132.23886108398438 156.49044799804688 77.5569076538086 168.90802001953125 134.02615356445312 169.30184936523438 C 117.46761322021484 149.2988739013672 146.9696807861328 161.53152465820312 125.44534301757812 140.22531127929688" stroke-width="2.0" fill="none" stroke="rgb(0, 0, 0)" stroke-opacity="1" stroke-linecap="round" stroke-linejoin="round"/>
    <path d="M 69.4312973022461 165.22744750976562 C 150.492919921875 167.8756561279297 183.47662353515625 157.4953155517578 80.77592468261719 166.1865692138672" stroke-width="2.0" fill="none" stroke="rgb(0, 0, 0)" stroke-opacity="1" stroke-linecap="round" stroke-linejoin="round"/>
    <path d="M 178.28677368164062 99.56468200683594 C 203.77426147460938 94.84518432617188 218.00575256347656 91.58463287353516 222.9264373779297 55.97395324707031" stroke-width="2.0" fill="none" stroke="rgb(0, 0, 0)" stroke-opacity="1" stroke-linecap="round" stroke-linejoin="round"/>
    <path d="M 86.16131591796875 -23.004323959350586 C 100.86460876464844 -8.653491020202637 75.73007202148438 -2.613619327545166 24.917333602905273 -3.6602180004119873 C 6.447987079620361 11.062323570251465 -1.6583425998687744 -2.1314220428466797 -2.1705515384674072 -9.387648582458496" stroke-width="2.0" fill="none" stroke="rgb(0, 0, 0)" stroke-opacity="1" stroke-linecap="round" stroke-linejoin="round"/>
    <path d="M 45.31015396118164 120.92871856689453 C 66.30171966552734 125.80994415283203 38.35786056518555 122.77909851074219 48.89818572998047 114.68240356445312 C 89.23303985595703 130.71316528320312 68.17786407470703 125.19371795654297 52.18994903564453 124.04180145263672" stroke-width="2.0" fill="none" stroke="rgb(0, 0, 0)" stroke-opacity="1" stroke-linecap="round" stroke-linejoin="round"/>
    <path d="M 84.95272827148438 165.305419921875 C 135.00640869140625 163.22943115234375 114.26331329345703 170.49514770507812 125.52571868896484 164.73768615722656" stroke-width="2.0" fill="none" stroke="rgb(0, 0, 0)" stroke-opacity="1" stroke-linecap="round" stroke-linejoin="round"/>
    <path d="M 17.304590225219727 30.991971969604492 C 40.390987396240234 29.05283546447754 34.194496154785156 63.108314514160156 23.34269142150879 49.11054611206055 C 17.56479263305664 25.17563819885254 3.7138965129852295 -3.8016724586486816 16.555503845214844 63.63765335083008 C 23.385438919067383 69.36422729492188 4.6798553466796875 70.1662368774414 24.366056442260742 92.29427337646484" stroke-width="2.0" fill="none" stroke="rgb(0, 0, 0)" stroke-opacity="1" stroke-linecap="round" stroke-linejoin="round"/>
    <path d="M 78.20157623291016 47.970794677734375 C 71.95629119873047 63.189796447753906 52.07994079589844 55.29914855957031 72.61312103271484 37.675453186035156 C 97.6427001953125 46.11930465698242 94.85154724121094 76.91084289550781 77.64086151123047 10.58066177368164 C 97.09192657470703 36.97564697265625 85.46216583251953 35.326759338378906 80.72986602783203 16.680904388427734" stroke-width="2.0" fill="none" stroke="rgb(0, 0, 0)" stroke-opacity="1" stroke-linecap="round" stroke-linejoin="round"/>
    <path d="M 3.592780828475952 67.17496490478516 C -7.344021320343018 104.2281265258789 -1.8046138286590576 89.7637939453125 13.734137535095215 119.28658294677734" stroke-width="2.0" fill="none" stroke="rgb(0, 0, 0)" stroke-opacity="1" stroke-linecap="round" stroke-linejoin="round"/>
    <path d="M 114.28805541992188 170.15777587890625 C 97.5745849609375 160.43740844726562 84.6760482788086 171.2753448486328 161.39439392089844 165.74789428710938" stroke-width="2.0" fill="none" stroke="rgb(0, 0, 0)" stroke-opacity="1" stroke-linecap="round" stroke-linejoin="round"/>
    <path d="M 174.4237518310547 137.503662109375 C 188.15005493164062 140.40406799316406 169.9265899658203 147.79849243164062 154.89697265625 105.8442611694336 C 143.70736694335938 123.25387573242188 164.73800659179688 145.40383911132812 170.73020935058594 138.96987915039062" stroke-width="2.0" fill="none" stroke="rgb(0, 0, 0)" stroke-opacity="1" stroke-linecap="round" stroke-linejoin="round"/>
    <path d="M 217.18138122558594 46.65119552612305 C 201.55552673339844 77.59974670410156 193.55123901367188 76.7192611694336 192.50709533691406 52.49254608154297 C 205.67208862304688 87.11045837402344 197.18844604492188 71.10365295410156 197.8172149658203 93.2375259399414 C 199.40599060058594 81.24559783935547 193.73826599121094 89.8980712890625 191.9095001220703 67.21830749511719" stroke-width="2.0" fill="none" stroke="rgb(0, 0, 0)" stroke-opacity="1" stroke-linecap="round" stroke-linejoin="round"/>
    <path d="M 110.19715881347656 216.7008514404297 C 53.738826751708984 213.5657196044922 69.43148040771484 206.04661560058594 65.22222900390625 211.4959259033203 C 45.215030670166016 194.8300018310547 45.170684814453125 181.04949951171875 66.83545684814453 198.78790283203125 C 67.44032287597656 191.1607666015625 75.18001556396484 213.3477325439453 90.03802490234375 188.12425231933594" stroke-width="2.0" fill="none" stroke="rgb(0, 0, 0)" stroke-opacity="1" stroke-linecap="round" stroke-linejoin="round"/>
    <path d="M 27.295930862426758 13.664945602416992 C 29.758520126342773 43.62619400024414 34.687652587890625 14.118584632873535 28.32828140258789 14.738350868225098" stroke-width="2.0" fill="none" stroke="rgb(0, 0, 0)" stroke-opacity="1" stroke-linecap="round" stroke-linejoin="round"/>
    <path d="M 77.8327407836914 209.784912109375 C 78.92723846435547 184.9435577392578 98.10696411132812 213.7369384765625 59.56131362915039 196.7084197998047" stroke-width="2.0" fill="none" stroke="rgb(0, 0, 0)" stroke-opacity="1" stroke-linecap="round" stroke-linejoin="round"/>
    <path d="M 170.51681518554688 189.45635986328125 C 125.80348205566406 224.2700958251953 129.44163513183594 181.09799194335938 146.71102905273438 188.8909454345703" stroke-width="2.0" fill="none" stroke="rgb(0, 0, 0)" stroke-opacity="1" stroke-linecap="round" stroke-linejoin="round"/>
    <path d="M 58.324729919433594 229.76803588867188 C 51.14109420776367 212.39407348632812 41.7366943359375 235.02622985839844 37.691898345947266 256.193115234375 C 37.10218048095703 245.25584411621094 31.107290267944336 247.81761169433594 26.6828556060791 243.7093963623047 C 33.776161193847656 237.53419494628906 22.63099479675293 243.3970489501953 23.495765686035156 247.43258666992188" stroke-width="2.0" fill="none" stroke="rgb(0, 0, 0)" stroke-opacity="1" stroke-linecap="round" stroke-linejoin="round"/>
    <path d="M 51.92544937133789 193.2692108154297 C 52.39776611328125 178.9427032470703 35.717044830322266 182.94967651367188 49.812347412109375 204.49468994140625 C 74.74945068359375 191.0623016357422 53.88618087768555 186.09701538085938 49.346046447753906 196.76907348632812" stroke-width="2.0" fill="none" stroke="rgb(0, 0, 0)" stroke-opacity="1" stroke-linecap="round" stroke-linejoin="round"/>
    <path d="M 175.17587280273438 8.157405853271484 C 172.18357849121094 -3.763124465942383 181.66220092773438 12.97536849975586 179.52252197265625 65.74475860595703 C 198.31307983398438 50.80568313598633 184.2421875 34.76789093017578 191.50946044921875 15.817000389099121 C 192.16708374023438 2.8175933361053467 225.1114044189453 11.769824981689453 176.51963806152344 5.937776565551758" stroke-width="2.0" fill="none" stroke="rgb(0, 0, 0)" stroke-opacity="1" stroke-linecap="round" stroke-linejoin="round"/>
    <path d="M 56.68299865722656 101.26688385009766 C 47.850948333740234 126.65525817871094 43.7296028137207 129.34750366210938 67.87930297851562 125.68497467041016 C 28.34124755859375 114.8419189453125 33.3289680480957 125.84623718261719 46.8333625793457 96.84141540527344" stroke-width="2.0" fill="none" stroke="rgb(0, 0, 0)" stroke-opacity="1" stroke-linecap="round" stroke-linejoin="round"/>
    <path d="M 187.88150024414062 53.958168029785156 C 162.9991912841797 63.72761535644531 183.76800537109375 71.89086151123047 184.7005615234375 96.64517974853516 C 174.6797332763672 79.48721313476562 198.36656188964844 77.95838928222656 190.61495971679688 67.451904296875" stroke-width="2.0" fill="none" stroke="rgb(0, 0, 0)" stroke-opacity="1" stroke-linecap="round" stroke-linejoin="round"/>
    <path d="M 202.35374450683594 89.49932861328125 C 151.56845092773438 109.32769012451172 195.8804473876953 80.2185287475586 155.88243103027344 91.09954833984375" stroke-width="2.0" fill="none" stroke="rgb(0, 0, 0)" stroke-opacity="1" stroke-linecap="round" stroke-linejoin="round"/>
    <path d="M 46.45755386352539 57.09242248535156 C 43.191768646240234 76.1019515991211 31.934560775756836 99.75055694580078 26.733009338378906 89.62956237792969" stroke-width="2.0" fill="none" stroke="rgb(0, 0, 0)" stroke-opacity="1" stroke-linecap="round" stroke-linejoin="round"/>
    <path d="M 112.64095306396484 -0.608871340751648 C 60.58839797973633 5.28418493270874 91.0563735961914 17.66329574584961 36.94131851196289 11.367034912109375 C 49.5318717956543 17.90723991394043 58.11122131347656 19.93368911743164 91.22491455078125 2.801886796951294" stroke-width="2.0" fill="none" stroke="rgb(0, 0, 0)" stroke-opacity="1" stroke-linecap="round" stroke-linejoin="round"/>
    <path d="M 226.27207946777344 7.537019729614258 C 224.59230041503906 25.88738441467285 233.62738037109375 22.244319915771484 246.90707397460938 25.338685989379883 C 244.96055603027344 21.238557815551758 236.16294860839844 23.27007484436035 243.56832885742188 20.048873901367188" stroke-width="2.0" fill="none" stroke="rgb(0, 0, 0)" stroke-opacity="1" stroke-linecap="round" stroke-linejoin="round"/>
    <path d="M 164.7047119140625 207.71360778808594 C 177.7864990234375 204.4645233154297 192.46969604492188 185.9530792236328 176.5654296875 216.93568420410156 C 125.67108154296875 224.20274353027344 172.0876007080078 226.38795471191406 172.64939880371094 221.06153869628906 C 181.55987548828125 227.74412536621094 164.70840454101562 223.92630004882812 185.58433532714844 230.24806213378906" stroke-width="2.0" fill="none" stroke="rgb(0, 0, 0)" stroke-opacity="1" stroke-linecap="round" stroke-linejoin="round"/>
    <path d="M 11.067765235900879 185.34449768066406 C 50.76363754272461 223.60684204101562 27.401615142822266 191.04437255859375 24.665908813476562 217.21131896972656" stroke-width="2.0" fill="none" stroke="rgb(0, 0, 0)" stroke-opacity="1" stroke-linecap="round" stroke-linejoin="round"/>
    <path d="M 155.02978515625 84.83492279052734 C 165.1925506591797 107.7039566040039 139.59722900390625 90.75922393798828 170.48374938964844 99.94709014892578 C 161.38426208496094 101.48405456542969 215.01309204101562 83.79132843017578 200.96139526367188 91.99549865722656" stroke-width="2.0" fill="none" stroke="rgb(0, 0, 0)" stroke-opacity="1" stroke-linecap="round" stroke-linejoin="round"/>
    <path d="M 12.282082557678223 147.2021026611328 C 14.12365436553955 179.0420379638672 21.714950561523438 128.5796661376953 23.658061981201172 169.1652069091797 C 15.551604270935059 154.4030303955078 19.594215393066406 170.2365264892578 19.057659149169922 146.4445037841797" stroke-width="2.0" fill="none" stroke="rgb(0, 0, 0)" stroke-opacity="1" stroke-linecap="round" stroke-linejoin="round"/>
    <path d="M 95.12532806396484 146.94590759277344 C 111.74653625488281 161.9947509765625 104.17053985595703 138.62008666992188 123.2318344116211 153.4012908935547" stroke-width="2.0" fill="none" stroke="rgb(0, 0, 0)" stroke-opacity="1" stroke-linecap="round" stroke-linejoin="round"/>
    <path d="M 197.04330444335938 203.36102294921875 C 203.87112426757812 185.97132873535156 208.27061462402344 182.9658966064453 207.04039001464844 198.9800567626953" stroke-width="2.0" fill="none" stroke="rgb(0, 0, 0)" stroke-opacity="1" stroke-linecap="round" stroke-linejoin="round"/>
    <path d="M 95.10247802734375 77.31802368164062 C 83.8274917602539 53.827205657958984 66.94779968261719 -18.61667823791504 87.91120147705078 20.909194946289062 C 101.542724609375 29.14439582824707 80.62812805175781 4.9460015296936035 65.71604919433594 26.001407623291016" stroke-width="2.0" fill="none" stroke="rgb(0, 0, 0)" stroke-opacity="1" stroke-linecap="round" stroke-linejoin="round"/>
    <path d="M 42.34962463378906 36.11027526855469 C 38.72762680053711 53.847877502441406 31.84649085998535 53.71431350708008 34.966426849365234 59.61832809448242 C 38.398895263671875 74.65281677246094 39.6263542175293 60.18241500854492 26.610353469848633 42.85356903076172" stroke-width="2.0" fill="none" stroke="rgb(0, 0, 0)" stroke-opacity="1" stroke-linecap="round" stroke-linejoin="round"/>
    <path d="M 107.14616394042969 59.68185806274414 C 88.77700805664062 15.407763481140137 120.96633911132812 77.5370101928711 109.71289825439453 47.28841018676758" stroke-width="2.0" fill="none" stroke="rgb(0, 0, 0)" stroke-opacity="1" stroke-linecap="round" stroke-linejoin="round"/>
    <path d="M 100.77716064453125 128.76161193847656 C 65.82471466064453 119.45048522949219 56.76689147949219 95.49408721923828 58.4759635925293 109.69341278076172 C 67.20284271240234 116.6252670288086 116.46685791015625 135.52903747558594 92.71755981445312 128.1614990234375 C 90.4695816040039 142.17803955078125 59.980838775634766 124.42755126953125 85.7489242553711 131.6394805908203" stroke-width="2.0" fill="none" stroke="rgb(0, 0, 0)" stroke-opacity="1" stroke-linecap="round" stroke-linejoin="round"/>
    <path d="M 143.17031860351562 149.27667236328125 C 152.08624267578125 155.37222290039062 176.58255004882812 167.4871826171875 156.49920654296875 132.99044799804688 C 188.69137573242188 128.7631072998047 187.35519409179688 132.39044189453125 168.02999877929688 138.96340942382812" stroke-width="2.0" fill="none" stroke="rgb(0, 0, 0)" stroke-opacity="1" stroke-linecap="round" stroke-linejoin="round"/>
    <path d="M 30.691923141479492 152.72222900390625 C 26.238754272460938 159.40272521972656 73.75475311279297 169.73545837402344 60.000240325927734 166.2325897216797" stroke-width="2.0" fill="none" stroke="rgb(0, 0, 0)" stroke-opacity="1" stroke-linecap="round" stroke-linejoin="round"/>
    <path d="M 165.89712524414062 24.47809600830078 C 201.4136505126953 19.63430404663086 189.54180908203125 27.774595260620117 187.30972290039062 45.52742385864258" stroke-width="2.0" fill="none" stroke="rgb(0, 0, 0)" stroke-opacity="1" stroke-linecap="round" stroke-linejoin="round"/>
    <path d="M 195.3662567138672 -9.56657886505127 C 151.25990295410156 1.1276726722717285 186.33084106445312 17.877723693847656 222.40846252441406 -4.015293121337891 C 227.32298278808594 39.67280960083008 224.43112182617188 62.81491470336914 237.4290008544922 15.912832260131836 C 223.0084991455078 -12.619067192077637 201.64060974121094 -14.495953559875488 218.3705596923828 -5.879289627075195" stroke-width="2.0" fill="none" stroke="rgb(0, 0, 0)" stroke-opacity="1" stroke-linecap="round" stroke-linejoin="round"/>
    <path d="M 65.83141326904297 80.22490692138672 C 87.55226135253906 69.93142700195312 60.846397399902344 70.31684112548828 86.16128540039062 79.68838500976562" stroke-width="2.0" fill="none" stroke="rgb(0, 0, 0)" stroke-opacity="1" stroke-linecap="round" stroke-linejoin="round"/>
    <path d="M -4.212059020996094 -3.9502954483032227 C 32.262847900390625 12.432550430297852 2.085814952850342 -11.872332572937012 12.383030891418457 19.547157287597656" stroke-width="2.0" fill="none" stroke="rgb(0, 0, 0)" stroke-opacity="1" stroke-linecap="round" stroke-linejoin="round"/>
    <path d="M 205.18521118164062 162.79344177246094 C 181.25970458984375 185.73121643066406 198.62600708007812 164.31639099121094 195.29296875 185.92977905273438" stroke-width="2.0" fill="none" stroke="rgb(0, 0, 0)" stroke-opacity="1" stroke-linecap="round" stroke-linejoin="round"/>
    <path d="M 46.59662628173828 73.09017181396484 C 62.792823791503906 77.96188354492188 44.30727005004883 60.260902404785156 36.84860610961914 46.87820053100586 C 65.01419830322266 78.46537017822266 44.18668746948242 41.76384353637695 62.016117095947266 68.84394836425781" stroke-width="2.0" fill="none" stroke="rgb(0, 0, 0)" stroke-opacity="1" stroke-linecap="round" stroke-linejoin="round"/>
    <path d="M 8.828943252563477 215.4438934326172 C -4.08189058303833 170.88372802734375 -0.24402564764022827 148.42437744140625 -1.6952824592590332 204.74520874023438" stroke-width="2.0" fill="none" stroke="rgb(0, 0, 0)" stroke-opacity="1" stroke-linecap="round" stroke-linejoin="round"/>
    <path d="M 57.5225715637207 106.45284271240234 C 82.53740692138672 130.8080596923828 64.49846649169922 113.87625885009766 69.41474151611328 122.76692962646484 C 42.46425247192383 116.1456298828125 61.66045379638672 89.67831420898438 45.17972946166992 114.20128631591797 C 69.38725280761719 124.8804931640625 63.68683624267578 120.5377426147461 51.573509216308594 105.8714370727539" stroke-width="2.0" fill="none" stroke="rgb(0, 0, 0)" stroke-opacity="1" stroke-linecap="round" stroke-linejoin="round"/>
    <path d="M 66.29095458984375 134.16357421875 C 59.63558578491211 154.4097442626953 62.536922454833984 127.97277069091797 68.91357421875 131.66017150878906 C 33.24673843383789 113.14802551269531 9.114506721496582 106.62118530273438 59.843833923339844 127.77645111083984 C 25.848068237304688 122.07269287109375 27.279003143310547 114.28395080566406 37.103511810302734 120.36200714111328" stroke-width="2.0" fill="none" stroke="rgb(0, 0, 0)" stroke-opacity="1" stroke-linecap="round" stroke-linejoin="round"/>
    <path d="M 234.97274780273438 41.99776077270508 C 220.82894897460938 -21.099031448364258 225.18756103515625 -6.958854675292969 229.3889923095703 19.295379638671875" stroke-width="2.0" fill="none" stroke="rgb(0, 0, 0)" stroke-opacity="1" stroke-linecap="round" stroke-linejoin="round"/>
    <path d="M 58.24437713623047 135.52293395996094 C 75.38774871826172 126.27143096923828 103.39198303222656 118.65377807617188 66.09310913085938 125.3896713256836" stroke-width="2.0" fill="none" stroke="rgb(0, 0, 0)" stroke-opacity="1" stroke-linecap="round" stroke-linejoin="round"/>
    <path d="M 176.6937255859375 230.58648681640625 C 153.69448852539062 222.46954345703125 177.65008544921875 224.39622497558594 189.07199096679688 210.69129943847656 C 171.8261260986328 217.87876892089844 194.71485900878906 197.13291931152344 208.3125457763672 193.57640075683594 C 184.5408172607422 201.56187438964844 195.99740600585938 207.2067413330078 180.6042022705078 210.8032684326172" stroke-width="2.0" fill="none" stroke="rgb(0, 0, 0)" stroke-opacity="1" stroke-linecap="round" stroke-linejoin="round"/>
    <path d="M 74.7579116821289 73.2961196899414 C 98.94438934326172 56.85723876953125 79.86229705810547 51.03043746948242 88.87443542480469 73.8095703125 C 81.28782653808594 42.19234085083008 79.25440979003906 38.0077018737793 75.01527404785156 5.882483005523682" stroke-width="2.0" fill="none" stroke="rgb(0, 0, 0)" stroke-opacity="1" stroke-linecap="round" stroke-linejoin="round"/>
    <path d="M 14.09794807434082 217.01364135742188 C 28.488269805908203 192.51405334472656 12.035219192504883 203.612060546875 20.07978630065918 210.7032470703125 C 0.900452733039856 211.68418884277344 11.113303184509277 185.87388610839844 11.763201713562012 216.350830078125" stroke-width="2.0" fill="none" stroke="rgb(0, 0, 0)" stroke-opacity="1" stroke-linecap="round" stroke-linejoin="round"/>
    <path d="M 62.47745895385742 66.9972915649414 C 55.03068161010742 79.50707244873047 22.425262451171875 77.90721893310547 59.391204833984375 96.61715698242188" stroke-width="2.0" fill="none" stroke="rgb(0, 0, 0)" stroke-opacity="1" stroke-linecap="round" stroke-linejoin="round"/>
    <path d="M 92.2747802734375 156.0469207763672 C 115.46451568603516 168.7016143798828 76.41987609863281 155.02659606933594 80.64693450927734 172.00323486328125 C 74.83717346191406 165.62411499023438 97.72428131103516 181.96609497070312 163.1547393798828 170.79127502441406 C 79.29483795166016 173.23414611816406 82.56509399414062 178.6156768798828 92.35437774658203 155.9905242919922" stroke-width="2.0" fill="none" stroke="rgb(0, 0, 0)" stroke-opacity="1" stroke-linecap="round" stroke-linejoin="round"/>
    <path d="M 56.367347717285156 53.63882827758789 C 79.54155731201172 60.03084182739258 66.5459976196289 63.25774383544922 42.18462371826172 38.617733001708984 C 52.418601989746094 27.948469161987305 61.411014556884766 42.906227111816406 39.79020309448242 36.258121490478516" stroke-width="2.0" fill="none" stroke="rgb(0, 0, 0)" stroke-opacity="1" stroke-linecap="round" stroke-linejoin="round"/>
    <path d="M 138.30630493164062 48.25399398803711 C 128.6466827392578 62.8581428527832 126.13954162597656 75.32542419433594 153.26951599121094 62.65047073364258 C 166.80320739746094 62.31439208984375 148.4893341064453 75.58086395263672 142.2075653076172 72.79182434082031 C 128.2751922607422 100.40542602539062 142.21795654296875 89.53142547607422 105.82723999023438 95.86962890625" stroke-width="2.0" fill="none" stroke="rgb(0, 0, 0)" stroke-opacity="1" stroke-linecap="round" stroke-linejoin="round"/>
    <path d="M 86.12167358398438 197.11264038085938 C 76.65079498291016 182.6354522705078 92.22891235351562 219.30018615722656 122.8731460571289 209.96778869628906 C 79.42193603515625 185.8068084716797 87.05984497070312 167.79238891601562 55.831417083740234 181.19955444335938 C 102.85368347167969 208.8358917236328 81.52195739746094 187.0637969970703 62.239078521728516 175.00289916992188" stroke-width="2.0" fill="none" stroke="rgb(0, 0, 0)" stroke-opacity="1" stroke-linecap="round" stroke-linejoin="round"/>
    <path d="M 55.91404724121094 232.74021911621094 C 12.260379791259766 224.81362915039062 19.2344913482666 216.2864227294922 24.67801284790039 231.20986938476562" stroke-width="2.0" fill="none" stroke="rgb(0, 0, 0)" stroke-opacity="1" stroke-linecap="round" stroke-linejoin="round"/>
    <path d="M 125.96900939941406 32.40385055541992 C 77.20944213867188 26.96651268005371 58.81221389770508 -15.999110221862793 92.79546356201172 17.976898193359375" stroke-width="2.0" fill="none" stroke="rgb(0, 0, 0)" stroke-opacity="1" stroke-linecap="round" stroke-linejoin="round"/>
    <path d="M 41.952354431152344 206.36624145507812 C 33.25059127807617 189.0201416015625 24.501724243164062 162.81716918945312 42.83844757080078 193.2604217529297" stroke-width="2.0" fill="none" stroke="rgb(0, 0, 0)" stroke-opacity="1" stroke-linecap="round" stroke-linejoin="round"/>
    <path d="M 76.7052993774414 126.79827117919922 C 50.45014572143555 167.6830291748047 60.887672424316406 166.4622344970703 67.99906158447266 157.05482482910156 C 104.72293090820312 163.53268432617188 76.90950012207031 166.72854614257812 94.98260498046875 131.58302307128906 C 87.40963745117188 174.67617797851562 77.88374328613281 139.92567443847656 94.41792297363281 138.98358154296875" stroke-width="2.0" fill="none" stroke="rgb(0, 0, 0)" stroke-opacity="1" stroke-linecap="round" stroke-linejoin="round"/>
    <path d="M 108.91712951660156 189.6099853515625 C 131.2805633544922 182.85781860351562 124.92720794677734 211.01873779296875 114.65303802490234 206.188720703125" stroke-width="2.0" fill="none" stroke="rgb(0, 0, 0)" stroke-opacity="1" stroke-linecap="round" stroke-linejoin="round"/>
    <path d="M 191.8238067626953 208.43698120117188 C 162.28134155273438 218.6880645751953 146.5762176513672 227.98983764648438 131.5079345703125 234.19810485839844 C 206.21627807617188 222.55728149414062 184.8512420654297 228.48948669433594 162.65455627441406 236.38687133789062" stroke-width="2.0" fill="none" stroke="rgb(0, 0, 0)" stroke-opacity="1" stroke-linecap="round" stroke-linejoin="round"/>
    <path d="M 167.25868225097656 69.92571258544922 C 180.97418212890625 73.02993774414062 170.2649688720703 97.9128646850586 190.3718719482422 68.61205291748047 C 172.9128875732422 90.19447326660156 160.89633178710938 108.58560943603516 192.8533172607422 95.93364715576172" stroke-width="2.0" fill="none" stroke="rgb(0, 0, 0)" stroke-opacity="1" stroke-linecap="round" stroke-linejoin="round"/>
    <path d="M 119.51517486572266 71.58735656738281 C 120.22608947753906 29.99053955078125 108.38574981689453 50.657772064208984 93.42654418945312 35.59139633178711 C 103.8332290649414 64.23914337158203 105.80817413330078 62.757469177246094 93.49693298339844 53.04035186767578 C 143.18092346191406 65.6485595703125 104.58921813964844 93.23197174072266 87.12896728515625 51.920467376708984" stroke-width="2.0" fill="none" stroke="rgb(0, 0, 0)" stroke-opacity="1" stroke-linecap="round" stroke-linejoin="round"/>
    <path d="M 62.07693099975586 151.68209838867188 C 70.5784683227539 166.95716857910156 57.71276092529297 167.70994567871094 62.327301025390625 157.74673461914062 C 93.39311218261719 163.516357421875 90.74138641357422 160.25376892089844 61.98081970214844 164.47213745117188 C 61.40401077270508 145.98875427246094 63.22845458984375 144.07550048828125 72.43497467041016 126.66243743896484" stroke-width="2.0" fill="none" stroke="rgb(0, 0, 0)" stroke-opacity="1" stroke-linecap="round" stroke-linejoin="round"/>
    <path d="M 48.851844787597656 193.65602111816406 C 39.430198669433594 187.6456756591797 54.89567947387695 190.87191772460938 34.24222946166992 181.16152954101562 C 37.03293991088867 184.04844665527344 42.32338333129883 209.1005401611328 50.162471771240234 197.1524658203125" stroke-width="2.0" fill="none" stroke="rgb(0, 0, 0)" stroke-opacity="1" stroke-linecap="round" stroke-linejoin="round"/>
    <path d="M 90.4688949584961 183.72512817382812 C 115.80606842041016 190.66873168945312 120.17437744140625 176.06080627441406 114.67005920410156 195.549560546875" stroke-width="2.0" fill="none" stroke="rgb(0, 0, 0)" stroke-opacity="1" stroke-linecap="round" stroke-linejoin="round"/>
    <path d="M 120.84310913085938 52.8167724609375 C 143.240966796875 60.64320373535156 152.86871337890625 48.552146911621094 146.5866241455078 52.97057342529297" stroke-width="2.0" fill="none" stroke="rgb(0, 0, 0)" stroke-opacity="1" stroke-linecap="round" stroke-linejoin="round"/>
    <path d="M 228.302490234375 36.78644561767578 C 225.48057556152344 -0.43248987197875977 224.9826202392578 -3.6992263793945312 233.86997985839844 33.43170928955078 C 220.9013671875 38.18397521972656 194.87916564941406 106.67787170410156 217.6836700439453 42.313758850097656 C 227.47503662109375 0.15576891601085663 227.41653442382812 30.166643142700195 237.0415802001953 64.93502044677734" stroke-width="2.0" fill="none" stroke="rgb(0, 0, 0)" stroke-opacity="1" stroke-linecap="round" stroke-linejoin="round"/>
    <path d="M 43.031620025634766 227.46072387695312 C 2.2252352237701416 215.63735961914062 18.92945098876953 208.93844604492188 23.9342098236084 237.8944854736328 C 41.76610565185547 218.4147186279297 2.816455602645874 230.59341430664062 -1.4639041423797607 192.07765197753906" stroke-width="2.0" fill="none" stroke="rgb(0, 0, 0)" stroke-opacity="1" stroke-linecap="round" stroke-linejoin="round"/>
    <path d="M 177.2674102783203 14.605706214904785 C 182.8361053466797 50.12690734863281 170.97830200195312 33.930625915527344 209.1572723388672 20.97272300720215 C 192.45628356933594 18.443538665771484 201.39654541015625 47.17410659790039 197.65313720703125 47.28977584838867 C 220.54542541503906 24.513450622558594 234.77896118164062 14.424757957458496 203.32302856445312 55.328575134277344" stroke-width="2.0" fill="none" stroke="rgb(0, 0, 0)" stroke-opacity="1" stroke-linecap="round" stroke-linejoin="round"/>
    <path d="M 197.19847106933594 184.87982177734375 C 211.23097229003906 170.1980743408203 198.24505615234375 150.44180297851562 199.88473510742188 180.64675903320312" stroke-width="2.0" fill="none" stroke="rgb(0, 0, 0)" stroke-opacity="1" stroke-linecap="round" stroke-linejoin="round"/>
    <path d="M 53.98151779174805 102.37908935546875 C 61.17555618286133 126.98551940917969 44.269012451171875 126.33868408203125 11.370511054992676 88.7514877319336 C 35.813148498535156 112.62406921386719 46.0980110168457 115.43791198730469 36.71821975708008 97.41114807128906 C 29.495115280151367 101.97604370117188 39.493553161621094 84.51303100585938 25.89946937561035 100.64696502685547" stroke-width="2.0" fill="none" stroke="rgb(0, 0, 0)" stroke-opacity="1" stroke-linecap="round" stroke-linejoin="round"/>
    <path d="M 151.1883544921875 114.80601501464844 C 141.9448699951172 156.43614196777344 112.67851257324219 118.97582244873047 165.76593017578125 136.7918701171875 C 108.25631713867188 164.47508239746094 116.10661315917969 153.26869201660156 130.93336486816406 136.42962646484375 C 158.22921752929688 171.1526336669922 147.8485107421875 152.44740295410156 125.94029235839844 133.76519775390625" stroke-width="2.0" fill="none" stroke="rgb(0, 0, 0)" stroke-opacity="1" stroke-linecap="round" stroke-linejoin="round"/>
    <path d="M 91.49242401123047 182.6048126220703 C 60.378456115722656 173.01756286621094 81.3067855834961 203.27894592285156 100.11158752441406 184.55755615234375 C 85.05023956298828 176.9117889404297 55.84549331665039 205.24156188964844 80.80477142333984 186.03419494628906 C 49.464412689208984 210.2585906982422 71.6275405883789 234.15121459960938 61.88077163696289 228.97459411621094" stroke-width="2.0" fill="none" stroke="rgb(0, 0, 0)" stroke-opacity="1" stroke-linecap="round" stroke-linejoin="round"/>
    <path d="M 222.88963317871094 45.74100875854492 C 214.82908630371094 -3.9985055923461914 228.4229736328125 22.316781997680664 202.92550659179688 25.1715030670166 C 205.25340270996094 -4.863801002502441 203.59881591796875 8.591065406799316 208.13079833984375 34.01353073120117 C 175.6163330078125 42.9822883605957 162.5117950439453 32.08776092529297 197.08656311035156 16.51071548461914" stroke-width="2.0" fill="none" stroke="rgb(0, 0, 0)" stroke-opacity="1" stroke-linecap="round" stroke-linejoin="round"/>
    <path d="M 7.797290325164795 108.97998046875 C 11.944340705871582 81.18278503417969 4.0121541023254395 98.13294982910156 22.99684715270996 100.70988464355469" stroke-width="2.0" fill="none" stroke="rgb(0, 0, 0)" stroke-opacity="1" stroke-linecap="round" stroke-linejoin="round"/>
    <path d="M 137.28973388671875 131.14999389648438 C 90.76343536376953 131.84078979492188 84.20132446289062 95.52337646484375 101.64877319335938 113.13088989257812" stroke-width="2.0" fill="none" stroke="rgb(0, 0, 0)" stroke-opacity="1" stroke-linecap="round" stroke-linejoin="round"/>
    <path d="M 172.08688354492188 149.1335906982422 C 149.15184020996094 162.09036254882812 154.8848419189453 174.77284240722656 197.93377685546875 150.62669372558594 C 222.08448791503906 74.7047119140625 209.2381591796875 144.3485870361328 209.86468505859375 108.9095458984375" stroke-width="2.0" fill="none" stroke="rgb(0, 0, 0)" stroke-opacity="1" stroke-linecap="round" stroke-linejoin="round"/>
    <path d="M 190.01229858398438 150.34214782714844 C 172.66455078125 166.71360778808594 179.6090850830078 195.431884765625 178.04611206054688 185.1608428955078 C 188.0437469482422 173.7569580078125 196.39002990722656 183.41513061523438 157.92771911621094 195.70750427246094 C 171.0546875 188.70826721191406 168.10597229003906 202.10916137695312 167.7386474609375 168.59732055664062" stroke-width="2.0" fill="none" stroke="rgb(0, 0, 0)" stroke-opacity="1" stroke-linecap="round" stroke-linejoin="round"/>
    <path d="M 107.2216567993164 185.85260009765625 C 127.4774169921875 196.3223114013672 116.72804260253906 200.44842529296875 113.11820220947266 211.78201293945312 C 138.7198028564453 191.05203247070312 130.6750946044922 213.85496520996094 117.995849609375 192.2994384765625 C 105.13853454589844 194.5347900390625 115.4488525390625 213.76925659179688 116.42288970947266 206.98130798339844" stroke-width="2.0" fill="none" stroke="rgb(0, 0, 0)" stroke-opacity="1" stroke-linecap="round" stroke-linejoin="round"/>
    <path d="M 216.24078369140625 -17.827831268310547 C 222.5704803466797 24.568208694458008 224.06373596191406 45.846614837646484 217.74298095703125 66.36809539794922 C 214.1769561767578 52.159454345703125 220.79220581054688 47.4600944519043 232.0603485107422 14.717619895935059 C 236.7733612060547 49.310306549072266 220.2063751220703 89.63105010986328 207.73294067382812 109.22306060791016" stroke-width="2.0" fill="none" stroke="rgb(0, 0, 0)" stroke-opacity="1" stroke-linecap="round" stroke-linejoin="round"/>
    <path d="M 191.2446746826172 46.96028518676758 C 189.15704345703125 46.265663146972656 198.48721313476562 56.30375671386719 209.12869262695312 40.97526931762695" stroke-width="2.0" fill="none" stroke="rgb(0, 0, 0)" stroke-opacity="1" stroke-linecap="round" stroke-linejoin="round"/>
    <path d="M 135.23851013183594 223.05923461914062 C 183.4769287109375 220.69390869140625 200.3896942138672 218.74070739746094 215.68104553222656 203.4440155029297 C 184.6079864501953 224.77166748046875 211.63641357421875 211.8628387451172 213.1485595703125 183.85415649414062" stroke-width="2.0" fill="none" stroke="rgb(0, 0, 0)" stroke-opacity="1" stroke-linecap="round" stroke-linejoin="round"/>
    <path d="M 30.93914031982422 143.25518798828125 C 18.779396057128906 151.07546997070312 63.628211975097656 170.02719116210938 68.07727813720703 159.59979248046875 C 54.63983917236328 160.39466857910156 71.28740692138672 169.37428283691406 84.7971420288086 166.34548950195312 C 51.52907180786133 155.94317626953125 49.12169647216797 166.64527893066406 88.21026611328125 167.15032958984375" stroke-width="2.0" fill="none" stroke="rgb(0, 0, 0)" stroke-opacity="1" stroke-linecap="round" stroke-linejoin="round"/>
    <path d="M 75.41817474365234 86.68241119384766 C 52.087860107421875 72.48062896728516 57.237152099609375 71.70707702636719 81.56394958496094 59.92299270629883 C 43.27015686035156 77.9826431274414 10.884307861328125 99.03842163085938 26.70583152770996 105.24467468261719 C 35.8463020324707 117.43949890136719 38.04807662963867 70.19825744628906 30.0583438873291 101.68720245361328" stroke-width="2.0" fill="none" stroke="rgb(0, 0, 0)" stroke-opacity="1" stroke-linecap="round" stroke-linejoin="round"/>
    <path d="M 31.6179256439209 137.0643310546875 C 66.15242767333984 88.55440521240234 47.22885513305664 107.7422866821289 60.28870391845703 130.81942749023438 C 58.70316696166992 137.76284790039062 77.09125518798828 162.23812866210938 26.331958770751953 122.1664047241211" stroke-width="2.0" fill="none" stroke="rgb(0, 0, 0)" stroke-opacity="1" stroke-linecap="round" stroke-linejoin="round"/>
    <path d="M 20.718191146850586 21.434436798095703 C 20.691814422607422 -3.300719976425171 15.733858108520508 9.930079460144043 15.361767768859863 4.375813961029053 C 47.05366897583008 17.630834579467773 35.781150817871094 3.649740695953369 40.79045486450195 26.235918045043945" stroke-width="2.0" fill="none" stroke="rgb(0, 0, 0)" stroke-opacity="1" stroke-linecap="round" stroke-linejoin="round"/>
    <path d="M 146.0321502685547 113.28866577148438 C 122.63996124267578 114.84056854248047 127.0827865600586 109.77978515625 138.79551696777344 127.3064193725586" stroke-width="2.0" fill="none" stroke="rgb(0, 0, 0)" stroke-opacity="1" stroke-linecap="round" stroke-linejoin="round"/>
    <path d="M 157.9060821533203 5.134665489196777 C 136.03158569335938 29.307687759399414 168.1074676513672 26.11932373046875 133.96792602539062 26.128915786743164 C 127.11531829833984 -4.670798301696777 148.49090576171875 16.371427536010742 149.78050231933594 16.485904693603516 C 174.89886474609375 5.9666666984558105 119.68428039550781 8.504170417785645 116.25086212158203 19.79745101928711" stroke-width="2.0" fill="none" stroke="rgb(0, 0, 0)" stroke-opacity="1" stroke-linecap="round" stroke-linejoin="round"/>
    <path d="M 79.2448501586914 162.4272003173828 C 31.325054168701172 158.5532989501953 68.24702453613281 174.12538146972656 121.16510009765625 170.57069396972656 C 74.46123504638672 153.43382263183594 69.29533386230469 174.14871215820312 101.05760192871094 160.41415405273438 C 78.71373748779297 159.8289031982422 70.34342193603516 176.05104064941406 81.11610412597656 140.33209228515625" stroke-width="2.0" fill="none" stroke="rgb(0, 0, 0)" stroke-opacity="1" stroke-linecap="round" stroke-linejoin="round"/>
    <path d="M 214.43919372558594 101.76849365234375 C 212.13592529296875 112.86325073242188 217.75828552246094 122.98346710205078 211.58187866210938 107.38612365722656 C 185.29380798339844 125.14798736572266 204.9644317626953 115.27669525146484 219.98008728027344 82.58653259277344" stroke-width="2.0" fill="none" stroke="rgb(0, 0, 0)" stroke-opacity="1" stroke-linecap="round" stroke-linejoin="round"/>
    <path d="M 105.05146789550781 98.89401245117188 C 48.294944763183594 101.03199768066406 71.92178344726562 152.48931884765625 81.57200622558594 125.91683197021484 C 63.20425033569336 114.13252258300781 58.308349609375 116.41456604003906 77.97423553466797 125.4122085571289 C 63.31343078613281 121.0224838256836 53.31349563598633 136.51690673828125 47.172203063964844 158.82859802246094" stroke-width="2.0" fill="none" stroke="rgb(0, 0, 0)" stroke-opacity="1" stroke-linecap="round" stroke-linejoin="round"/>
    <path d="M 133.0811309814453 185.76986694335938 C 155.39076232910156 208.38478088378906 164.6337890625 221.93190002441406 206.8676300048828 209.45724487304688 C 197.69381713867188 195.9481201171875 193.82513427734375 225.4644012451172 175.9518280029297 212.12611389160156" stroke-width="2.0" fill="none" stroke="rgb(0, 0, 0)" stroke-opacity="1" stroke-linecap="round" stroke-linejoin="round"/>
    <path d="M 99.81726837158203 230.33004760742188 C 50.41436004638672 219.43789672851562 49.469417572021484 218.64524841308594 90.97371673583984 232.21408081054688 C 94.95883178710938 204.72964477539062 56.83732223510742 204.76487731933594 74.51264190673828 226.61624145507812" stroke-width="2.0" fill="none" stroke="rgb(0, 0, 0)" stroke-opacity="1" stroke-linecap="round" stroke-linejoin="round"/>
    <path d="M 178.6875457763672 100.2944107055664 C 99.90119934082031 99.1474609375 132.52024841308594 97.22404479980469 173.55218505859375 96.06897735595703 C 180.5415802001953 90.93428039550781 148.38980102539062 93.58663940429688 133.1275634765625 100.21858978271484" stroke-width="2.0" fill="none" stroke="rgb(0, 0, 0)" stroke-opacity="1" stroke-linecap="round" stroke-linejoin="round"/>
    <path d="M 10.700916290283203 94.70780944824219 C 13.379222869873047 121.37104034423828 34.9764289855957 121.40731048583984 11.511855125427246 99.04308319091797 C 23.46873664855957 106.91944885253906 32.879764556884766 113.27513122558594 20.3276309967041 120.23419952392578 C 28.37034797668457 112.0146484375 21.735822677612305 107.49114990234375 17.04644775390625 106.3584976196289" stroke-width="2.0" fill="none" stroke="rgb(0, 0, 0)" stroke-opacity="1" stroke-linecap="round" stroke-linejoin="round"/>
    <path d="M 134.2974090576172 149.28936767578125 C 144.6710662841797 165.57781982421875 150.30699157714844 167.8287811279297 141.78732299804688 173.33419799804688 C 179.8638458251953 143.36297607421875 145.41470336914062 233.41017150878906 142.1581573486328 183.77513122558594" stroke-width="2.0" fill="none" stroke="rgb(0, 0, 0)" stroke-opacity="1" stroke-linecap="round" stroke-linejoin="round"/>
    <path d="M 68.76315307617188 166.47796630859375 C 72.6471176147461 128.80694580078125 79.68838500976562 161.49623107910156 63.72968673706055 157.21896362304688" stroke-width="2.0" fill="none" stroke="rgb(0, 0, 0)" stroke-opacity="1" stroke-linecap="round" stroke-linejoin="round"/>
    <path d="M 23.05846405029297 57.2995719909668 C 8.244450569152832 4.3510260581970215 3.149747610092163 26.616798400878906 44.28411102294922 35.7243537902832 C 18.43316650390625 36.7257080078125 -0.5534345507621765 18.347732543945312 8.557918548583984 2.5773723125457764 C 24.122148513793945 14.201211929321289 40.60014724731445 1.016492486000061 26.92235565185547 4.2588043212890625" stroke-width="2.0" fill="none" stroke="rgb(0, 0, 0)" stroke-opacity="1" stroke-linecap="round" stroke-linejoin="round"/>
    <path d="M 52.499114990234375 215.3490753173828 C 31.2973575592041 183.77206420898438 38.78709030151367 219.24232482910156 74.0274429321289 225.76039123535156 C 51.68217086791992 213.90037536621094 54.11046600341797 221.63714599609375 59.92063522338867 191.25823974609375" stroke-width="2.0" fill="none" stroke="rgb(0, 0, 0)" stroke-opacity="1" stroke-linecap="round" stroke-linejoin="round"/>
    <path d="M 150.71063232421875 75.28145599365234 C 135.9475555419922 35.7169189453125 126.03822326660156 52.79875946044922 197.9204864501953 46.07920455932617" stroke-width="2.0" fill="none" stroke="rgb(0, 0, 0)" stroke-opacity="1" stroke-linecap="round" stroke-linejoin="round"/>
    <path d="M 216.93533325195312 104.4007339477539 C 216.09832763671875 164.6357879638672 228.01080322265625 127.94200134277344 217.07965087890625 98.8910140991211" stroke-width="2.0" fill="none" stroke="rgb(0, 0, 0)" stroke-opacity="1" stroke-linecap="round" stroke-linejoin="round"/>
    <path d="M 76.30026245117188 174.1185760498047 C 29.661521911621094 163.38827514648438 71.99520874023438 158.88165283203125 81.08081817626953 164.74844360351562 C 59.19602584838867 150.14788818359375 78.32516479492188 163.34014892578125 29.99972152709961 139.25149536132812" stroke-width="2.0" fill="none" stroke="rgb(0, 0, 0)" stroke-opacity="1" stroke-linecap="round" stroke-linejoin="round"/>
    <path d="M 113.9496078491211 186.3426971435547 C 86.78385925292969 208.66651916503906 87.25033569335938 222.40640258789062 107.30857849121094 239.06517028808594 C 103.92214965820312 233.799560546875 104.87056732177734 225.9365692138672 107.94111633300781 226.12509155273438" stroke-width="2.0" fill="none" stroke="rgb(0, 0, 0)" stroke-opacity="1" stroke-linecap="round" stroke-linejoin="round"/>
    <path d="M 196.91421508789062 131.520751953125 C 201.99127197265625 102.91345977783203 199.96519470214844 118.35921478271484 184.0767822265625 119.91938018798828 C 230.1601104736328 79.39752960205078 211.46646118164062 156.76480102539062 197.31683349609375 164.74575805664062" stroke-width="2.0" fill="none" stroke="rgb(0, 0, 0)" stroke-opacity="1" stroke-linecap="round" stroke-linejoin="round"/>
    <path d="M 125.69225311279297 139.06076049804688 C 105.79644775390625 159.5745086669922 131.82388305664062 151.27120971679688 121.33694458007812 153.32415771484375" stroke-width="2.0" fill="none" stroke="rgb(0, 0, 0)" stroke-opacity="1" stroke-linecap="round" stroke-linejoin="round"/>
    <path d="M 98.78074645996094 84.94164276123047 C 95.61458587646484 108.03226470947266 186.1262969970703 102.85816955566406 100.96548461914062 91.12007141113281 C 108.9199447631836 69.76343536376953 123.89924621582031 61.74143981933594 115.13489532470703 66.912841796875 C 118.33318328857422 64.34156799316406 114.62327575683594 65.61209106445312 126.65119934082031 80.25281524658203" stroke-width="2.0" fill="none" stroke="rgb(0, 0, 0)" stroke-opacity="1" stroke-linecap="round" stroke-linejoin="round"/>
    <path d="M 109.62694549560547 200.508544921875 C 118.41954803466797 211.79905700683594 134.3277130126953 228.74755859375 138.00721740722656 200.73834228515625 C 159.7379150390625 215.80642700195312 137.3772430419922 217.8332977294922 150.83755493164062 204.59056091308594" stroke-width="2.0" fill="none" stroke="rgb(0, 0, 0)" stroke-opacity="1" stroke-linecap="round" stroke-linejoin="round"/>
    <path d="M 203.82904052734375 175.23956298828125 C 184.6230926513672 183.69692993164062 194.1090850830078 207.83416748046875 212.635009765625 155.92771911621094" stroke-width="2.0" fill="none" stroke="rgb(0, 0, 0)" stroke-opacity="1" stroke-linecap="round" stroke-linejoin="round"/>
    <path d="M 12.680097579956055 167.08438110351562 C 20.1246280670166 205.865234375 29.39607048034668 200.2769317626953 11.204706192016602 161.43338012695312 C 13.389385223388672 195.7984161376953 6.843456745147705 183.08779907226562 4.227029323577881 162.46034240722656" stroke-width="2.0" fill="none" stroke="rgb(0, 0, 0)" stroke-opacity="1" stroke-linecap="round" stroke-linejoin="round"/>
    <path d="M 160.36424255371094 67.62183380126953 C 169.1429443359375 94.12374877929688 169.14903259277344 87.0482177734375 190.9981231689453 74.5913314819336" stroke-width="2.0" fill="none" stroke="rgb(0, 0, 0)" stroke-opacity="1" stroke-linecap="round" stroke-linejoin="round"/>
    <path d="M 95.34107971191406 26.5865535736084 C 95.82482147216797 47.54038619995117 86.8891830444336 8.407794952392578 99.6571044921875 20.745214462280273" stroke-width="2.0" fill="none" stroke="rgb(0, 0, 0)" stroke-opacity="1" stroke-linecap="round" stroke-linejoin="round"/>
    <path d="M 216.1692657470703 72.20455932617188 C 200.9918212890625 101.08599853515625 197.50204467773438 95.3102035522461 206.62063598632812 81.09142303466797 C 219.18240356445312 92.39472961425781 174.5009002685547 104.75853729248047 151.1717529296875 102.60218811035156 C 205.8119354248047 94.68140411376953 197.55819702148438 101.61725616455078 134.62640380859375 102.98526000976562" stroke-width="2.0" fill="none" stroke="rgb(0, 0, 0)" stroke-opacity="1" stroke-linecap="round" stroke-linejoin="round"/>
    <path d="M 19.157459259033203 96.86663055419922 C 21.810171127319336 111.91299438476562 56.01361846923828 107.30180358886719 34.48453903198242 95.54915618896484" stroke-width="2.0" fill="none" stroke="rgb(0, 0, 0)" stroke-opacity="1" stroke-linecap="round" stroke-linejoin="round"/>
    <path d="M 199.3608856201172 211.0492401123047 C 215.06863403320312 208.82125854492188 225.24737548828125 195.0915069580078 228.84808349609375 166.90440368652344 C 229.70208740234375 194.567138671875 231.692138671875 186.02685546875 233.44183349609375 181.07562255859375 C 232.8718719482422 181.20751953125 240.19534301757812 172.8188018798828 242.5231475830078 167.7239990234375" stroke-width="2.0" fill="none" stroke="rgb(0, 0, 0)" stroke-opacity="1" stroke-linecap="round" stroke-linejoin="round"/>
    <path d="M 119.7680435180664 213.5162811279297 C 83.93875122070312 212.56396484375 78.97773742675781 217.49095153808594 106.21450805664062 226.9305419921875" stroke-width="2.0" fill="none" stroke="rgb(0, 0, 0)" stroke-opacity="1" stroke-linecap="round" stroke-linejoin="round"/>
    <path d="M 24.744487762451172 131.49627685546875 C 32.07835388183594 123.52226257324219 20.078754425048828 131.5344696044922 18.715946197509766 109.55066680908203" stroke-width="2.0" fill="none" stroke="rgb(0, 0, 0)" stroke-opacity="1" stroke-linecap="round" stroke-linejoin="round"/>
  </g>
</svg>
