<?xml version="1.0" ?>
<svg xmlns="http://www.w3.org/2000/svg" version="1.1" width="224" height="224">
  <defs/>
  <g>
    <path d="M 120.0680923461914 225.02200317382812 C 95.12340545654297 220.68008422851562 91.16260528564453 226.2273712158203 109.97998809814453 228.1959228515625 C 123.38135528564453 235.69851684570312 128.75567626953125 214.28463745117188 163.2393341064453 226.4246368408203" stroke-width="2.0" fill="none" stroke="rgb(0, 0, 0)" stroke-opacity="1" stroke-linecap="round" stroke-linejoin="round"/>
    <path d="M 14.95492935180664 32.61881637573242 C 11.377379417419434 32.836097717285156 26.496984481811523 70.47112274169922 21.808652877807617 74.64016723632812 C 37.39987564086914 65.19315338134766 6.3035359382629395 92.21797180175781 15.177433967590332 79.29315948486328" stroke-width="2.0" fill="none" stroke="rgb(0, 0, 0)" stroke-opacity="1" stroke-linecap="round" stroke-linejoin="round"/>
    <path d="M 139.8815155029297 191.71047973632812 C 114.21883392333984 204.92788696289062 161.78465270996094 195.99119567871094 117.51509094238281 197.07601928710938 C 139.87490844726562 195.18763732910156 136.6873779296875 187.72592163085938 123.22817993164062 186.67791748046875" stroke-width="2.0" fill="none" stroke="rgb(0, 0, 0)" stroke-opacity="1" stroke-linecap="round" stroke-linejoin="round"/>
    <path d="M 79.5886459350586 175.32339477539062 C 67.91126251220703 169.02662658691406 53.33640670776367 173.9679718017578 80.94243621826172 171.07847595214844 C 61.0136604309082 164.190185546875 31.27515411376953 193.32559204101562 40.942848205566406 168.233642578125 C 45.0018310546875 161.01028442382812 62.75010681152344 173.57408142089844 27.434341430664062 164.7246856689453" stroke-width="2.0" fill="none" stroke="rgb(0, 0, 0)" stroke-opacity="1" stroke-linecap="round" stroke-linejoin="round"/>
    <path d="M 30.010732650756836 108.47838592529297 C 45.480926513671875 114.42150115966797 17.297107696533203 104.08850860595703 45.59443664550781 114.35186767578125 C 51.40095138549805 86.12434387207031 42.07710647583008 80.38035583496094 54.95074462890625 109.90031433105469 C 62.00181579589844 76.70834350585938 79.39813995361328 99.7198486328125 57.86870193481445 110.17906951904297" stroke-width="2.0" fill="none" stroke="rgb(0, 0, 0)" stroke-opacity="1" stroke-linecap="round" stroke-linejoin="round"/>
    <path d="M 15.751282691955566 111.90103912353516 C -15.397099494934082 110.52005004882812 -38.48475646972656 97.0408935546875 -7.758239269256592 110.10413360595703 C -11.54340648651123 99.64876556396484 -7.868190288543701 94.97173309326172 -18.282312393188477 85.31208801269531" stroke-width="2.0" fill="none" stroke="rgb(0, 0, 0)" stroke-opacity="1" stroke-linecap="round" stroke-linejoin="round"/>
    <path d="M 74.57709503173828 100.36689758300781 C 87.34526062011719 115.1559066772461 88.17487335205078 93.50104522705078 98.67853546142578 68.81147766113281" stroke-width="2.0" fill="none" stroke="rgb(0, 0, 0)" stroke-opacity="1" stroke-linecap="round" stroke-linejoin="round"/>
    <path d="M 104.04155731201172 198.30691528320312 C 104.54088592529297 242.8031005859375 116.9608154296875 251.72056579589844 114.15965270996094 248.20654296875" stroke-width="2.0" fill="none" stroke="rgb(0, 0, 0)" stroke-opacity="1" stroke-linecap="round" stroke-linejoin="round"/>
    <path d="M 189.5363311767578 170.92381286621094 C 152.69412231445312 175.78143310546875 184.73550415039062 134.10191345214844 158.1453399658203 166.13449096679688 C 144.77645874023438 175.59133911132812 156.0650634765625 163.96812438964844 171.53379821777344 147.30125427246094 C 157.01998901367188 187.84800720214844 143.68795776367188 193.3161163330078 158.30377197265625 163.64248657226562" stroke-width="2.0" fill="none" stroke="rgb(0, 0, 0)" stroke-opacity="1" stroke-linecap="round" stroke-linejoin="round"/>
    <path d="M 44.750003814697266 86.3442153930664 C 44.78770446777344 84.15135955810547 53.21841812133789 89.99054718017578 62.91220474243164 76.72992706298828 C 76.14214324951172 71.13567352294922 101.21926879882812 55.867431640625 92.96067810058594 56.58113098144531" stroke-width="2.0" fill="none" stroke="rgb(0, 0, 0)" stroke-opacity="1" stroke-linecap="round" stroke-linejoin="round"/>
    <path d="M 199.24404907226562 231.0662078857422 C 216.5892791748047 216.41299438476562 211.79922485351562 204.0632781982422 215.44082641601562 211.82711791992188 C 231.16966247558594 213.9901885986328 215.6078643798828 224.848876953125 221.04737854003906 181.87718200683594 C 207.4969940185547 228.51083374023438 204.12527465820312 222.55686950683594 205.97259521484375 188.71133422851562" stroke-width="2.0" fill="none" stroke="rgb(0, 0, 0)" stroke-opacity="1" stroke-linecap="round" stroke-linejoin="round"/>
    <path d="M 53.674896240234375 86.09510803222656 C 55.68019104003906 86.29765319824219 71.78315734863281 73.51349639892578 77.06439208984375 69.82588958740234" stroke-width="2.0" fill="none" stroke="rgb(0, 0, 0)" stroke-opacity="1" stroke-linecap="round" stroke-linejoin="round"/>
    <path d="M 34.83695602416992 114.87171936035156 C 54.71701431274414 122.25753784179688 39.72535705566406 124.99848175048828 -17.548851013183594 127.34261322021484 C 8.381233215332031 137.69918823242188 21.307903289794922 145.06163024902344 54.37822723388672 115.989501953125" stroke-width="2.0" fill="none" stroke="rgb(0, 0, 0)" stroke-opacity="1" stroke-linecap="round" stroke-linejoin="round"/>
    <path d="M 9.126237869262695 67.05259704589844 C 10.770359992980957 13.61642837524414 6.88407039642334 -3.2578163146972656 1.7494757175445557 36.78866958618164 C -28.400466918945312 39.034263610839844 -25.665258407592773 31.57973289489746 -29.385601043701172 28.374176025390625" stroke-width="2.0" fill="none" stroke="rgb(0, 0, 0)" stroke-opacity="1" stroke-linecap="round" stroke-linejoin="round"/>
    <path d="M 65.63858032226562 185.36427307128906 C 101.43623352050781 183.50120544433594 51.190494537353516 194.61598205566406 51.67109680175781 180.77259826660156 C 83.2775650024414 192.5620880126953 58.999122619628906 192.36158752441406 61.68796920776367 185.99659729003906" stroke-width="2.0" fill="none" stroke="rgb(0, 0, 0)" stroke-opacity="1" stroke-linecap="round" stroke-linejoin="round"/>
    <path d="M 165.45309448242188 86.29033660888672 C 175.0464630126953 70.99666595458984 165.84716796875 81.97080993652344 124.26575469970703 87.60528564453125" stroke-width="2.0" fill="none" stroke="rgb(0, 0, 0)" stroke-opacity="1" stroke-linecap="round" stroke-linejoin="round"/>
    <path d="M 213.51861572265625 105.37715148925781 C 209.65733337402344 121.0833969116211 222.7826690673828 97.26578521728516 198.69300842285156 127.48239135742188" stroke-width="2.0" fill="none" stroke="rgb(0, 0, 0)" stroke-opacity="1" stroke-linecap="round" stroke-linejoin="round"/>
    <path d="M 192.8610382080078 76.06111145019531 C 165.58602905273438 74.13871002197266 195.9510040283203 85.15525817871094 208.52236938476562 71.84919738769531" stroke-width="2.0" fill="none" stroke="rgb(0, 0, 0)" stroke-opacity="1" stroke-linecap="round" stroke-linejoin="round"/>
    <path d="M 105.09941101074219 104.29582214355469 C 75.51632690429688 91.546142578125 95.77104187011719 112.72251892089844 130.15000915527344 109.12745666503906 C 106.99610137939453 120.67156219482422 73.90925598144531 114.05862426757812 84.83075714111328 143.16812133789062 C 86.61993408203125 120.0245361328125 91.88703155517578 103.91594696044922 85.38339233398438 169.22523498535156" stroke-width="2.0" fill="none" stroke="rgb(0, 0, 0)" stroke-opacity="1" stroke-linecap="round" stroke-linejoin="round"/>
    <path d="M 121.68183898925781 151.89903259277344 C 161.4447784423828 154.24266052246094 142.50294494628906 161.267333984375 90.82520294189453 156.18112182617188 C 114.42615509033203 170.3712158203125 128.60572814941406 171.47666931152344 142.0685272216797 184.6953125" stroke-width="2.0" fill="none" stroke="rgb(0, 0, 0)" stroke-opacity="1" stroke-linecap="round" stroke-linejoin="round"/>
    <path d="M 103.89119720458984 24.558080673217773 C 76.70997619628906 28.386287689208984 44.17039489746094 35.353328704833984 114.07560729980469 37.58418273925781" stroke-width="2.0" fill="none" stroke="rgb(0, 0, 0)" stroke-opacity="1" stroke-linecap="round" stroke-linejoin="round"/>
    <path d="M 64.7509994506836 110.54149627685547 C 86.43394470214844 83.89833068847656 87.05420684814453 103.83721160888672 74.13488006591797 92.4346694946289 C 57.15242385864258 110.63843536376953 60.28571701049805 77.47288513183594 78.68860626220703 114.68852233886719 C 81.14668273925781 91.65824127197266 95.89895629882812 92.4995346069336 78.166748046875 116.0895004272461" stroke-width="2.0" fill="none" stroke="rgb(0, 0, 0)" stroke-opacity="1" stroke-linecap="round" stroke-linejoin="round"/>
    <path d="M 123.13286590576172 200.4700927734375 C 142.45472717285156 219.44415283203125 138.95614624023438 200.9370574951172 104.35808563232422 216.38595581054688" stroke-width="2.0" fill="none" stroke="rgb(0, 0, 0)" stroke-opacity="1" stroke-linecap="round" stroke-linejoin="round"/>
    <path d="M 114.66138458251953 65.97305297851562 C 104.10115051269531 79.18704986572266 107.76753234863281 93.13710021972656 140.2955780029297 41.041839599609375" stroke-width="2.0" fill="none" stroke="rgb(0, 0, 0)" stroke-opacity="1" stroke-linecap="round" stroke-linejoin="round"/>
    <path d="M 157.35479736328125 136.6732177734375 C 166.5114288330078 112.56338500976562 167.92288208007812 151.44651794433594 168.52993774414062 139.90415954589844 C 180.48455810546875 145.05282592773438 159.50128173828125 135.461181640625 180.8053741455078 117.29529571533203 C 156.9843292236328 128.89683532714844 167.00071716308594 105.60040283203125 177.51486206054688 149.00137329101562" stroke-width="2.0" fill="none" stroke="rgb(0, 0, 0)" stroke-opacity="1" stroke-linecap="round" stroke-linejoin="round"/>
    <path d="M 154.60302734375 181.46116638183594 C 163.21168518066406 147.11061096191406 178.65794372558594 159.69834899902344 151.81829833984375 181.80650329589844 C 144.17213439941406 143.06507873535156 137.15415954589844 106.01741027832031 140.015380859375 150.5678253173828" stroke-width="2.0" fill="none" stroke="rgb(0, 0, 0)" stroke-opacity="1" stroke-linecap="round" stroke-linejoin="round"/>
    <path d="M 143.05433654785156 201.8912811279297 C 120.36605072021484 203.79481506347656 115.2661361694336 222.12307739257812 152.44671630859375 209.42813110351562" stroke-width="2.0" fill="none" stroke="rgb(0, 0, 0)" stroke-opacity="1" stroke-linecap="round" stroke-linejoin="round"/>
    <path d="M 30.870357513427734 157.45831298828125 C -4.8636860847473145 154.7584686279297 29.189571380615234 151.759521484375 25.799280166625977 157.22779846191406 C 66.19335174560547 165.95925903320312 35.077178955078125 159.72174072265625 26.979825973510742 134.99925231933594 C 13.698734283447266 149.98614501953125 -18.956716537475586 155.90769958496094 24.10973358154297 137.14871215820312" stroke-width="2.0" fill="none" stroke="rgb(0, 0, 0)" stroke-opacity="1" stroke-linecap="round" stroke-linejoin="round"/>
    <path d="M 161.33877563476562 122.61402130126953 C 139.11766052246094 135.84571838378906 153.23680114746094 133.76751708984375 174.0923309326172 145.1223907470703 C 189.60740661621094 180.73468017578125 207.26564025878906 160.43092346191406 185.66311645507812 185.32859802246094" stroke-width="2.0" fill="none" stroke="rgb(0, 0, 0)" stroke-opacity="1" stroke-linecap="round" stroke-linejoin="round"/>
    <path d="M 151.21380615234375 128.9872589111328 C 220.68411254882812 99.6430892944336 191.42669677734375 116.78829956054688 136.0470733642578 111.5097427368164" stroke-width="2.0" fill="none" stroke="rgb(0, 0, 0)" stroke-opacity="1" stroke-linecap="round" stroke-linejoin="round"/>
    <path d="M 163.80894470214844 140.5069580078125 C 176.74298095703125 113.66915130615234 170.21751403808594 119.32947540283203 178.32046508789062 152.61456298828125 C 186.01199340820312 139.78665161132812 183.6494140625 129.70428466796875 191.19577026367188 112.88406372070312 C 180.51942443847656 107.14382934570312 142.58787536621094 119.3299560546875 135.97848510742188 121.5849838256836" stroke-width="2.0" fill="none" stroke="rgb(0, 0, 0)" stroke-opacity="1" stroke-linecap="round" stroke-linejoin="round"/>
    <path d="M 89.91948699951172 -1.5000433921813965 C 127.36949920654297 11.333290100097656 114.15888977050781 -21.580135345458984 116.7922134399414 11.741546630859375 C 102.91646575927734 14.9150390625 146.1147003173828 22.17719078063965 96.63611602783203 8.2166166305542 C 95.78558349609375 46.0883903503418 110.56635284423828 17.5189208984375 63.6048698425293 25.42487144470215" stroke-width="2.0" fill="none" stroke="rgb(0, 0, 0)" stroke-opacity="1" stroke-linecap="round" stroke-linejoin="round"/>
    <path d="M 235.46376037597656 5.143523693084717 C 235.6017303466797 9.760719299316406 206.3861541748047 9.358603477478027 159.28659057617188 39.92573928833008 C 160.0262908935547 -43.47856140136719 156.71229553222656 -56.492698669433594 146.6448516845703 -59.073394775390625" stroke-width="2.0" fill="none" stroke="rgb(0, 0, 0)" stroke-opacity="1" stroke-linecap="round" stroke-linejoin="round"/>
    <path d="M 53.38154220581055 218.8697967529297 C 83.55422973632812 208.482421875 71.47087097167969 199.08267211914062 72.75375366210938 237.05581665039062 C 75.2750015258789 227.7592315673828 70.53179931640625 222.2981719970703 72.99800109863281 230.75819396972656" stroke-width="2.0" fill="none" stroke="rgb(0, 0, 0)" stroke-opacity="1" stroke-linecap="round" stroke-linejoin="round"/>
    <path d="M 112.67597961425781 117.29757690429688 C 89.37193298339844 125.51518249511719 77.37651824951172 115.18675994873047 86.79178619384766 137.61724853515625 C 90.17739868164062 106.91754913330078 81.08589172363281 133.8271484375 87.05681610107422 142.33294677734375 C 87.47688293457031 186.5104217529297 84.10984802246094 175.7888641357422 90.53840637207031 128.6591339111328" stroke-width="2.0" fill="none" stroke="rgb(0, 0, 0)" stroke-opacity="1" stroke-linecap="round" stroke-linejoin="round"/>
    <path d="M 194.9494171142578 26.666227340698242 C 210.58682250976562 30.215679168701172 210.09730529785156 -1.021052360534668 212.59066772460938 29.1402530670166 C 157.29966735839844 40.05600357055664 175.61439514160156 28.6833553314209 169.9268035888672 1.1845474243164062 C 161.4461212158203 41.1171875 185.72857666015625 27.125667572021484 131.59573364257812 21.07303237915039" stroke-width="2.0" fill="none" stroke="rgb(0, 0, 0)" stroke-opacity="1" stroke-linecap="round" stroke-linejoin="round"/>
    <path d="M 149.19288635253906 176.2165069580078 C 147.72567749023438 161.34288024902344 171.82403564453125 192.64601135253906 208.30726623535156 180.30783081054688 C 220.88201904296875 171.28675842285156 198.8755340576172 191.09304809570312 160.26365661621094 193.24752807617188" stroke-width="2.0" fill="none" stroke="rgb(0, 0, 0)" stroke-opacity="1" stroke-linecap="round" stroke-linejoin="round"/>
    <path d="M 172.8314208984375 -0.11264137178659439 C 210.9052276611328 8.285666465759277 233.94598388671875 5.573497772216797 247.2940673828125 3.485992670059204 C 208.8719482421875 -19.179607391357422 207.7310333251953 -20.108394622802734 206.5050506591797 -20.051393508911133" stroke-width="2.0" fill="none" stroke="rgb(0, 0, 0)" stroke-opacity="1" stroke-linecap="round" stroke-linejoin="round"/>
    <path d="M 89.34231567382812 29.125797271728516 C 65.53644561767578 47.09087371826172 82.42304992675781 16.822608947753906 63.63002014160156 5.530280590057373 C 85.47166442871094 13.86974811553955 75.16309356689453 -4.989703178405762 21.514877319335938 1.9209175109863281" stroke-width="2.0" fill="none" stroke="rgb(0, 0, 0)" stroke-opacity="1" stroke-linecap="round" stroke-linejoin="round"/>
    <path d="M 53.29709243774414 17.906517028808594 C 81.8297348022461 39.45615005493164 83.67577362060547 40.026222229003906 83.0240707397461 19.232276916503906 C 74.32296752929688 22.447519302368164 71.79536437988281 33.7551155090332 106.81829833984375 46.55911636352539 C 153.03611755371094 35.94326400756836 145.41134643554688 56.73495864868164 90.89542388916016 53.924476623535156" stroke-width="2.0" fill="none" stroke="rgb(0, 0, 0)" stroke-opacity="1" stroke-linecap="round" stroke-linejoin="round"/>
    <path d="M 151.16004943847656 128.56942749023438 C 128.48423767089844 124.43412780761719 169.56704711914062 141.99282836914062 150.2001953125 125.07611846923828" stroke-width="2.0" fill="none" stroke="rgb(0, 0, 0)" stroke-opacity="1" stroke-linecap="round" stroke-linejoin="round"/>
    <path d="M 52.37178421020508 28.663742065429688 C 37.9551887512207 45.42113494873047 29.02998161315918 59.0067024230957 27.342994689941406 64.59066772460938 C 13.356173515319824 24.842575073242188 5.272158622741699 9.427681922912598 -4.178545951843262 -0.7439942955970764 C -6.887862205505371 -10.032227516174316 0.45398324728012085 6.400318622589111 31.9760684967041 -3.747525453567505" stroke-width="2.0" fill="none" stroke="rgb(0, 0, 0)" stroke-opacity="1" stroke-linecap="round" stroke-linejoin="round"/>
    <path d="M 211.55044555664062 28.634992599487305 C 172.10781860351562 21.926250457763672 173.74314880371094 39.081626892089844 141.10693359375 24.733604431152344 C 187.85171508789062 35.59862518310547 198.93972778320312 13.10426139831543 201.78709411621094 28.37464714050293" stroke-width="2.0" fill="none" stroke="rgb(0, 0, 0)" stroke-opacity="1" stroke-linecap="round" stroke-linejoin="round"/>
    <path d="M 40.834842681884766 150.09669494628906 C 20.201520919799805 125.78118133544922 36.72914123535156 134.4163055419922 45.47748565673828 159.53338623046875 C 38.90576171875 132.73916625976562 25.17768096923828 126.84427642822266 52.64345169067383 145.76947021484375 C 98.8918228149414 139.7456817626953 41.08534622192383 155.5761260986328 62.67185592651367 145.26220703125" stroke-width="2.0" fill="none" stroke="rgb(0, 0, 0)" stroke-opacity="1" stroke-linecap="round" stroke-linejoin="round"/>
    <path d="M 161.87139892578125 98.49235534667969 C 198.2436981201172 116.23925018310547 192.66270446777344 91.7179946899414 178.1590576171875 105.38631439208984 C 168.03488159179688 82.00191497802734 176.40504455566406 62.306671142578125 158.20718383789062 88.12207794189453" stroke-width="2.0" fill="none" stroke="rgb(0, 0, 0)" stroke-opacity="1" stroke-linecap="round" stroke-linejoin="round"/>
    <path d="M 126.4298095703125 218.102294921875 C 139.4171905517578 189.5275115966797 127.97721862792969 210.0596160888672 116.68830871582031 212.01309204101562 C 101.3302993774414 200.6529541015625 88.27725982666016 198.4903564453125 94.1238784790039 217.233642578125" stroke-width="2.0" fill="none" stroke="rgb(0, 0, 0)" stroke-opacity="1" stroke-linecap="round" stroke-linejoin="round"/>
    <path d="M 175.16165161132812 201.10670471191406 C 203.5821990966797 180.74143981933594 186.03717041015625 195.25613403320312 183.8678741455078 193.9425048828125 C 165.90577697753906 205.53858947753906 153.44378662109375 207.7737274169922 130.20211791992188 216.66342163085938" stroke-width="2.0" fill="none" stroke="rgb(0, 0, 0)" stroke-opacity="1" stroke-linecap="round" stroke-linejoin="round"/>
    <path d="M 205.0267791748047 169.51527404785156 C 240.23680114746094 181.0590362548828 222.5855255126953 156.33689880371094 199.47589111328125 144.59730529785156 C 236.11569213867188 175.3247833251953 210.6586151123047 177.5668487548828 223.7198944091797 120.50077056884766" stroke-width="2.0" fill="none" stroke="rgb(0, 0, 0)" stroke-opacity="1" stroke-linecap="round" stroke-linejoin="round"/>
    <path d="M 97.51879119873047 161.0283660888672 C 108.15061950683594 164.1292266845703 107.68346405029297 164.51202392578125 127.4971923828125 162.0215301513672" stroke-width="2.0" fill="none" stroke="rgb(0, 0, 0)" stroke-opacity="1" stroke-linecap="round" stroke-linejoin="round"/>
    <path d="M 6.112059116363525 133.74562072753906 C 15.416045188903809 140.24322509765625 -10.644676208496094 156.7963409423828 -6.3949294090271 132.6890411376953 C 25.079862594604492 134.6897430419922 14.239583015441895 113.0380630493164 16.221200942993164 125.6059341430664 C -0.18431250751018524 153.9235382080078 7.588810443878174 127.82982635498047 -4.035679340362549 135.53952026367188" stroke-width="2.0" fill="none" stroke="rgb(0, 0, 0)" stroke-opacity="1" stroke-linecap="round" stroke-linejoin="round"/>
    <path d="M 114.71367645263672 138.96249389648438 C 139.7091827392578 149.287109375 156.3381805419922 142.20401000976562 145.99278259277344 141.5908660888672 C 122.29448699951172 140.5962371826172 92.74991607666016 136.5931854248047 129.77330017089844 144.93524169921875 C 132.8289031982422 159.9454345703125 131.56626892089844 118.3433837890625 131.6616973876953 112.70629119873047" stroke-width="2.0" fill="none" stroke="rgb(0, 0, 0)" stroke-opacity="1" stroke-linecap="round" stroke-linejoin="round"/>
    <path d="M 37.511104583740234 223.65509033203125 C 21.22553825378418 225.34674072265625 27.796913146972656 227.85389709472656 45.52375411987305 189.63758850097656" stroke-width="2.0" fill="none" stroke="rgb(0, 0, 0)" stroke-opacity="1" stroke-linecap="round" stroke-linejoin="round"/>
    <path d="M 173.6190948486328 63.65410232543945 C 166.85203552246094 49.42535400390625 155.43751525878906 67.47296905517578 175.99815368652344 59.631282806396484" stroke-width="2.0" fill="none" stroke="rgb(0, 0, 0)" stroke-opacity="1" stroke-linecap="round" stroke-linejoin="round"/>
    <path d="M 225.5426788330078 86.8228759765625 C 182.4827423095703 93.47949981689453 189.61236572265625 69.2579345703125 215.224609375 97.15897369384766 C 201.3977508544922 90.06361389160156 196.2987823486328 86.04986572265625 183.69349670410156 78.05638122558594 C 183.4811248779297 11.37447452545166 189.4654083251953 53.1862678527832 195.2954864501953 66.0018310546875" stroke-width="2.0" fill="none" stroke="rgb(0, 0, 0)" stroke-opacity="1" stroke-linecap="round" stroke-linejoin="round"/>
    <path d="M 160.51918029785156 68.27355194091797 C 147.66683959960938 95.14847564697266 145.36399841308594 88.4327621459961 160.62705993652344 61.12824249267578 C 146.6049041748047 90.17074584960938 169.192138671875 66.77849578857422 159.48512268066406 84.69911193847656 C 124.78334045410156 71.32050323486328 155.17202758789062 94.63683319091797 122.0455551147461 81.9489974975586" stroke-width="2.0" fill="none" stroke="rgb(0, 0, 0)" stroke-opacity="1" stroke-linecap="round" stroke-linejoin="round"/>
    <path d="M 110.80547332763672 191.0284423828125 C 103.34332275390625 201.828369140625 90.3788070678711 199.4978485107422 82.39069366455078 216.8622589111328" stroke-width="2.0" fill="none" stroke="rgb(0, 0, 0)" stroke-opacity="1" stroke-linecap="round" stroke-linejoin="round"/>
    <path d="M 56.77870559692383 179.90316772460938 C 35.416744232177734 190.05337524414062 99.81417083740234 183.14157104492188 44.644962310791016 181.28265380859375 C 51.86482238769531 185.29486083984375 70.76995086669922 202.09652709960938 71.00750732421875 182.76182556152344" stroke-width="2.0" fill="none" stroke="rgb(0, 0, 0)" stroke-opacity="1" stroke-linecap="round" stroke-linejoin="round"/>
    <path d="M 86.64244842529297 11.20162582397461 C 107.55406951904297 13.862866401672363 71.45568084716797 0.0028406567871570587 117.00979614257812 12.075111389160156 C 123.98927307128906 4.310914516448975 76.7186508178711 10.985214233398438 73.60420227050781 10.548727035522461 C 49.87022018432617 2.435725450515747 66.98694610595703 10.574284553527832 89.93683624267578 15.116347312927246" stroke-width="2.0" fill="none" stroke="rgb(0, 0, 0)" stroke-opacity="1" stroke-linecap="round" stroke-linejoin="round"/>
    <path d="M 87.42699432373047 87.51180267333984 C 85.45506286621094 89.42546081542969 40.149559020996094 98.24668884277344 51.77655792236328 102.02598571777344 C 62.1174201965332 102.21475982666016 44.07162857055664 79.62084197998047 70.9646224975586 103.68942260742188 C 43.52116012573242 90.6668930053711 45.1861457824707 85.91053771972656 59.90037155151367 108.14639282226562" stroke-width="2.0" fill="none" stroke="rgb(0, 0, 0)" stroke-opacity="1" stroke-linecap="round" stroke-linejoin="round"/>
    <path d="M 111.65481567382812 55.014427185058594 C 80.76314544677734 61.87542724609375 101.31812286376953 59.67777633666992 97.88224792480469 51.820003509521484" stroke-width="2.0" fill="none" stroke="rgb(0, 0, 0)" stroke-opacity="1" stroke-linecap="round" stroke-linejoin="round"/>
    <path d="M 68.40217590332031 54.68180465698242 C 72.45503997802734 60.02445602416992 111.46250915527344 63.432926177978516 83.88563537597656 54.9145393371582" stroke-width="2.0" fill="none" stroke="rgb(0, 0, 0)" stroke-opacity="1" stroke-linecap="round" stroke-linejoin="round"/>
    <path d="M 64.4282455444336 171.8708038330078 C 100.19134521484375 177.30758666992188 50.153968811035156 182.49729919433594 48.655269622802734 167.62025451660156" stroke-width="2.0" fill="none" stroke="rgb(0, 0, 0)" stroke-opacity="1" stroke-linecap="round" stroke-linejoin="round"/>
    <path d="M 125.19233703613281 140.03341674804688 C 78.66222381591797 128.28138732910156 84.47785949707031 112.29952239990234 81.55941772460938 142.24423217773438 C 91.54996490478516 110.3785629272461 80.141357421875 140.51771545410156 83.9728012084961 120.7265396118164 C 97.98375701904297 126.27356719970703 90.60450744628906 150.72373962402344 81.88878631591797 147.08358764648438" stroke-width="2.0" fill="none" stroke="rgb(0, 0, 0)" stroke-opacity="1" stroke-linecap="round" stroke-linejoin="round"/>
    <path d="M 68.07189178466797 67.30195617675781 C 43.79030990600586 94.18644714355469 56.734642028808594 88.88428497314453 54.61502456665039 71.21013641357422" stroke-width="2.0" fill="none" stroke="rgb(0, 0, 0)" stroke-opacity="1" stroke-linecap="round" stroke-linejoin="round"/>
    <path d="M 178.09507751464844 140.42124938964844 C 179.93646240234375 115.345458984375 156.37380981445312 116.41897583007812 183.0933074951172 125.68399047851562 C 170.64752197265625 141.46546936035156 167.66265869140625 141.19839477539062 191.64720153808594 110.96033477783203 C 170.064453125 155.44830322265625 192.1637420654297 148.272216796875 191.0162811279297 112.87417602539062" stroke-width="2.0" fill="none" stroke="rgb(0, 0, 0)" stroke-opacity="1" stroke-linecap="round" stroke-linejoin="round"/>
    <path d="M 32.88254165649414 67.65218353271484 C 46.394554138183594 74.95446014404297 54.418548583984375 76.4494857788086 23.83522605895996 88.42157745361328 C -4.876890659332275 92.7061996459961 -4.308790683746338 82.90935516357422 37.129032135009766 101.49040985107422" stroke-width="2.0" fill="none" stroke="rgb(0, 0, 0)" stroke-opacity="1" stroke-linecap="round" stroke-linejoin="round"/>
    <path d="M 114.30271911621094 165.93894958496094 C 132.2837371826172 169.48521423339844 146.5249786376953 189.26292419433594 160.72303771972656 195.13368225097656 C 138.27516174316406 193.70175170898438 155.75570678710938 191.59933471679688 133.15362548828125 189.553955078125" stroke-width="2.0" fill="none" stroke="rgb(0, 0, 0)" stroke-opacity="1" stroke-linecap="round" stroke-linejoin="round"/>
    <path d="M 11.030410766601562 107.20220184326172 C 34.618011474609375 113.27693176269531 -3.4235780239105225 107.68120574951172 -30.673057556152344 104.64363861083984 C -12.075390815734863 98.0948486328125 -4.358494281768799 93.68781280517578 -45.26461410522461 87.40166473388672 C -50.98400115966797 82.94120025634766 -23.073413848876953 82.33460998535156 9.233185768127441 82.7894287109375" stroke-width="2.0" fill="none" stroke="rgb(0, 0, 0)" stroke-opacity="1" stroke-linecap="round" stroke-linejoin="round"/>
    <path d="M 34.3358154296875 180.99407958984375 C 23.304357528686523 195.18014526367188 23.705028533935547 191.23609924316406 11.181634902954102 217.00543212890625 C 4.328963279724121 217.64682006835938 12.54356861114502 201.19802856445312 11.477251052856445 154.48561096191406" stroke-width="2.0" fill="none" stroke="rgb(0, 0, 0)" stroke-opacity="1" stroke-linecap="round" stroke-linejoin="round"/>
    <path d="M 160.82838439941406 59.752418518066406 C 193.5683135986328 64.87342834472656 187.16151428222656 82.82483673095703 183.58384704589844 36.73130798339844 C 194.72927856445312 71.3229751586914 189.44012451171875 82.11504364013672 160.8341064453125 59.789363861083984 C 174.71328735351562 47.406070709228516 188.04258728027344 36.934600830078125 172.78109741210938 47.02531051635742" stroke-width="2.0" fill="none" stroke="rgb(0, 0, 0)" stroke-opacity="1" stroke-linecap="round" stroke-linejoin="round"/>
    <path d="M 198.3330078125 194.14527893066406 C 199.51104736328125 232.8357696533203 197.09107971191406 243.70677185058594 198.94699096679688 230.9967803955078" stroke-width="2.0" fill="none" stroke="rgb(0, 0, 0)" stroke-opacity="1" stroke-linecap="round" stroke-linejoin="round"/>
    <path d="M -6.73825216293335 74.35122680664062 C -8.205899238586426 83.07917022705078 -0.4870309829711914 88.32124328613281 -3.197429895401001 69.09984588623047 C -20.975326538085938 80.40753173828125 -21.906530380249023 59.84528732299805 20.653959274291992 76.13833618164062 C -17.7235050201416 73.79356384277344 -22.194889068603516 54.40736389160156 -15.960886001586914 48.57005310058594" stroke-width="2.0" fill="none" stroke="rgb(0, 0, 0)" stroke-opacity="1" stroke-linecap="round" stroke-linejoin="round"/>
    <path d="M 206.19386291503906 140.48699951171875 C 214.30239868164062 155.27566528320312 210.623291015625 183.35862731933594 205.07972717285156 142.18894958496094" stroke-width="2.0" fill="none" stroke="rgb(0, 0, 0)" stroke-opacity="1" stroke-linecap="round" stroke-linejoin="round"/>
    <path d="M 161.45921325683594 123.57447052001953 C 146.7999725341797 142.2225341796875 167.13626098632812 135.53695678710938 157.79527282714844 133.4967803955078 C 189.67996215820312 135.1453857421875 183.8116912841797 143.7904815673828 199.35098266601562 163.60362243652344 C 201.69891357421875 142.7894744873047 186.38858032226562 139.30624389648438 189.00889587402344 119.22966003417969" stroke-width="2.0" fill="none" stroke="rgb(0, 0, 0)" stroke-opacity="1" stroke-linecap="round" stroke-linejoin="round"/>
    <path d="M 228.71295166015625 2.2621350288391113 C 233.21212768554688 -12.62366008758545 214.19729614257812 33.3201904296875 199.06007385253906 41.10792541503906 C 204.31246948242188 0.7719777226448059 218.52035522460938 16.567094802856445 177.59994506835938 27.6956844329834 C 205.40634155273438 33.103519439697266 209.19204711914062 27.327550888061523 229.15740966796875 2.8640687465667725" stroke-width="2.0" fill="none" stroke="rgb(0, 0, 0)" stroke-opacity="1" stroke-linecap="round" stroke-linejoin="round"/>
    <path d="M 102.64271545410156 198.49082946777344 C 96.34827423095703 227.49880981445312 114.54036712646484 222.4755401611328 92.01890563964844 204.0101776123047" stroke-width="2.0" fill="none" stroke="rgb(0, 0, 0)" stroke-opacity="1" stroke-linecap="round" stroke-linejoin="round"/>
    <path d="M 194.90003967285156 40.87174987792969 C 176.27041625976562 8.92527961730957 173.25521850585938 34.93926239013672 192.33261108398438 22.002389907836914 C 195.78671264648438 43.2896842956543 206.66461181640625 39.79248046875 216.7156524658203 20.41604232788086" stroke-width="2.0" fill="none" stroke="rgb(0, 0, 0)" stroke-opacity="1" stroke-linecap="round" stroke-linejoin="round"/>
    <path d="M 104.87284851074219 43.333717346191406 C 127.74365997314453 43.00102615356445 102.52660369873047 38.065067291259766 83.14224243164062 22.50819969177246 C 52.3027229309082 11.314629554748535 55.610923767089844 34.831790924072266 81.58196258544922 15.326017379760742 C 60.247249603271484 10.26685905456543 43.879432678222656 31.337779998779297 75.3175277709961 6.309061527252197" stroke-width="2.0" fill="none" stroke="rgb(0, 0, 0)" stroke-opacity="1" stroke-linecap="round" stroke-linejoin="round"/>
    <path d="M 199.82977294921875 26.321590423583984 C 229.802490234375 9.73494815826416 227.41624450683594 13.29849624633789 189.66807556152344 24.80624771118164 C 196.26487731933594 18.22435188293457 236.86705017089844 12.933599472045898 202.4431915283203 27.06278419494629" stroke-width="2.0" fill="none" stroke="rgb(0, 0, 0)" stroke-opacity="1" stroke-linecap="round" stroke-linejoin="round"/>
    <path d="M 170.73931884765625 187.8094482421875 C 210.13758850097656 167.70509338378906 186.18641662597656 159.34657287597656 168.55419921875 170.11264038085938 C 194.1609344482422 167.68429565429688 196.88966369628906 167.32101440429688 172.69009399414062 166.736328125" stroke-width="2.0" fill="none" stroke="rgb(0, 0, 0)" stroke-opacity="1" stroke-linecap="round" stroke-linejoin="round"/>
    <path d="M 181.2332000732422 44.53428268432617 C 194.68112182617188 74.21470642089844 207.55250549316406 74.87269592285156 181.6512908935547 58.95184326171875" stroke-width="2.0" fill="none" stroke="rgb(0, 0, 0)" stroke-opacity="1" stroke-linecap="round" stroke-linejoin="round"/>
    <path d="M 84.41426849365234 38.793190002441406 C 116.03050231933594 46.7537841796875 88.08675384521484 39.58466339111328 120.23917388916016 35.697505950927734 C 103.36589050292969 28.879194259643555 91.29257202148438 62.508819580078125 103.26148223876953 27.001604080200195 C 109.03958129882812 38.895729064941406 107.07337951660156 60.07111740112305 134.14523315429688 42.127296447753906" stroke-width="2.0" fill="none" stroke="rgb(0, 0, 0)" stroke-opacity="1" stroke-linecap="round" stroke-linejoin="round"/>
    <path d="M 20.8931884765625 134.80953979492188 C 14.558150291442871 112.23011016845703 7.406185626983643 111.96009826660156 46.0893440246582 126.12584686279297" stroke-width="2.0" fill="none" stroke="rgb(0, 0, 0)" stroke-opacity="1" stroke-linecap="round" stroke-linejoin="round"/>
    <path d="M 216.313720703125 8.86864948272705 C 147.69712829589844 25.75893211364746 167.9462127685547 -5.851782321929932 164.70603942871094 27.70836067199707 C 167.18121337890625 30.376949310302734 211.135009765625 9.50770092010498 216.4269256591797 14.490178108215332" stroke-width="2.0" fill="none" stroke="rgb(0, 0, 0)" stroke-opacity="1" stroke-linecap="round" stroke-linejoin="round"/>
    <path d="M 0.5630406737327576 211.63015747070312 C -8.05268669128418 214.9998321533203 -6.575710773468018 202.01983642578125 -6.86690092086792 195.41824340820312 C -10.565788269042969 193.980224609375 -10.88399887084961 190.3283233642578 -21.16916847229004 193.4045867919922 C -12.42162036895752 193.31993103027344 -16.77722930908203 191.9258270263672 -1.514582872390747 185.3426971435547" stroke-width="2.0" fill="none" stroke="rgb(0, 0, 0)" stroke-opacity="1" stroke-linecap="round" stroke-linejoin="round"/>
    <path d="M 142.84938049316406 60.84860610961914 C 162.92063903808594 78.99722290039062 137.8537139892578 32.75794219970703 157.43954467773438 50.4549560546875 C 127.65231323242188 75.82293701171875 134.28738403320312 79.08899688720703 136.77366638183594 46.9393310546875 C 123.44895935058594 83.24556732177734 114.72693634033203 81.74406433105469 140.56552124023438 43.470497131347656" stroke-width="2.0" fill="none" stroke="rgb(0, 0, 0)" stroke-opacity="1" stroke-linecap="round" stroke-linejoin="round"/>
    <path d="M 67.66848754882812 214.4991455078125 C 81.1339340209961 254.8102569580078 38.76300811767578 195.98162841796875 57.17996597290039 213.27809143066406" stroke-width="2.0" fill="none" stroke="rgb(0, 0, 0)" stroke-opacity="1" stroke-linecap="round" stroke-linejoin="round"/>
    <path d="M 24.79124641418457 128.27276611328125 C -2.8268163204193115 114.12705993652344 -16.3629093170166 126.45088195800781 0.8356244564056396 153.68275451660156 C 2.1732895374298096 186.65711975097656 -9.332927703857422 153.4278564453125 -10.722403526306152 140.04478454589844 C 6.1415300369262695 131.4046630859375 3.4797325134277344 131.81781005859375 23.420488357543945 132.68101501464844" stroke-width="2.0" fill="none" stroke="rgb(0, 0, 0)" stroke-opacity="1" stroke-linecap="round" stroke-linejoin="round"/>
    <path d="M 97.52616882324219 183.1566162109375 C 63.36986541748047 191.16256713867188 53.9591064453125 191.42440795898438 62.18196105957031 180.51766967773438" stroke-width="2.0" fill="none" stroke="rgb(0, 0, 0)" stroke-opacity="1" stroke-linecap="round" stroke-linejoin="round"/>
    <path d="M 26.03851890563965 108.69635009765625 C -16.415271759033203 121.75088500976562 -11.82172966003418 128.66943359375 -7.799205780029297 133.2936553955078 C -18.065507888793945 136.89166259765625 -7.531970024108887 137.95960998535156 17.55347442626953 140.18821716308594" stroke-width="2.0" fill="none" stroke="rgb(0, 0, 0)" stroke-opacity="1" stroke-linecap="round" stroke-linejoin="round"/>
    <path d="M 17.190977096557617 117.54125213623047 C 25.22276496887207 140.79629516601562 44.893943786621094 152.13844299316406 47.99517059326172 165.1173858642578 C 36.311729431152344 156.557861328125 21.360755920410156 191.58946228027344 25.09665870666504 151.91845703125" stroke-width="2.0" fill="none" stroke="rgb(0, 0, 0)" stroke-opacity="1" stroke-linecap="round" stroke-linejoin="round"/>
    <path d="M 72.67068481445312 218.1627655029297 C 98.3545150756836 224.90379333496094 104.62164306640625 237.23968505859375 87.4994125366211 231.08026123046875 C 80.79151153564453 231.4485626220703 75.19725036621094 233.55213928222656 65.96002197265625 231.66497802734375 C 73.79397583007812 214.5297393798828 98.28224182128906 200.34161376953125 74.7637710571289 210.05604553222656" stroke-width="2.0" fill="none" stroke="rgb(0, 0, 0)" stroke-opacity="1" stroke-linecap="round" stroke-linejoin="round"/>
    <path d="M 145.56446838378906 211.73104858398438 C 96.89669036865234 247.66075134277344 103.88349914550781 233.45736694335938 138.562744140625 229.29782104492188 C 138.7126007080078 232.78062438964844 135.97711181640625 237.74850463867188 147.16357421875 248.10536193847656 C 133.57444763183594 253.44593811035156 134.85061645507812 243.95399475097656 143.57473754882812 233.82745361328125" stroke-width="2.0" fill="none" stroke="rgb(0, 0, 0)" stroke-opacity="1" stroke-linecap="round" stroke-linejoin="round"/>
    <path d="M 124.32434844970703 184.2103729248047 C 132.88963317871094 175.2059783935547 111.39512634277344 219.2035675048828 120.59591674804688 206.4056854248047 C 163.69497680664062 204.54794311523438 135.50144958496094 213.98056030273438 129.71424865722656 208.52740478515625 C 137.83741760253906 206.82723999023438 145.37159729003906 201.96279907226562 182.50946044921875 194.78175354003906" stroke-width="2.0" fill="none" stroke="rgb(0, 0, 0)" stroke-opacity="1" stroke-linecap="round" stroke-linejoin="round"/>
    <path d="M 29.41556739807129 66.529296875 C 49.25941467285156 79.93608856201172 6.520547866821289 71.67595672607422 26.517078399658203 84.62906646728516 C 36.65800094604492 76.370849609375 23.409025192260742 70.06210327148438 16.8203067779541 37.79351043701172" stroke-width="2.0" fill="none" stroke="rgb(0, 0, 0)" stroke-opacity="1" stroke-linecap="round" stroke-linejoin="round"/>
    <path d="M 116.5762939453125 207.5725555419922 C 114.16226196289062 182.5560760498047 93.49227905273438 223.55276489257812 125.92059326171875 211.09854125976562 C 125.74933624267578 209.6598358154297 88.77490234375 224.31564331054688 112.21298217773438 189.39105224609375" stroke-width="2.0" fill="none" stroke="rgb(0, 0, 0)" stroke-opacity="1" stroke-linecap="round" stroke-linejoin="round"/>
    <path d="M 207.24525451660156 113.49505615234375 C 231.0828399658203 99.61821746826172 228.71707153320312 97.78327941894531 236.3299560546875 113.24349975585938" stroke-width="2.0" fill="none" stroke="rgb(0, 0, 0)" stroke-opacity="1" stroke-linecap="round" stroke-linejoin="round"/>
    <path d="M 99.80268859863281 67.69911193847656 C 104.88959503173828 107.13873291015625 104.63113403320312 105.1174087524414 102.09127044677734 100.38483428955078 C 94.6648178100586 67.49242401123047 100.09178161621094 62.4630126953125 91.09394073486328 95.3233413696289" stroke-width="2.0" fill="none" stroke="rgb(0, 0, 0)" stroke-opacity="1" stroke-linecap="round" stroke-linejoin="round"/>
    <path d="M 97.88996887207031 217.58116149902344 C 142.12408447265625 217.53016662597656 138.87466430664062 207.1262664794922 141.0373077392578 200.89199829101562" stroke-width="2.0" fill="none" stroke="rgb(0, 0, 0)" stroke-opacity="1" stroke-linecap="round" stroke-linejoin="round"/>
    <path d="M 171.99253845214844 88.10305786132812 C 132.68972778320312 84.0064468383789 117.40264129638672 86.34103393554688 142.70120239257812 90.52252197265625" stroke-width="2.0" fill="none" stroke="rgb(0, 0, 0)" stroke-opacity="1" stroke-linecap="round" stroke-linejoin="round"/>
    <path d="M 190.75753784179688 147.4400634765625 C 191.0534210205078 169.7811737060547 183.32411193847656 154.89898681640625 192.2373809814453 106.8542251586914" stroke-width="2.0" fill="none" stroke="rgb(0, 0, 0)" stroke-opacity="1" stroke-linecap="round" stroke-linejoin="round"/>
    <path d="M 76.40470886230469 11.14713191986084 C 87.71705627441406 29.003562927246094 81.68379974365234 -20.280832290649414 78.14354705810547 -15.06546401977539" stroke-width="2.0" fill="none" stroke="rgb(0, 0, 0)" stroke-opacity="1" stroke-linecap="round" stroke-linejoin="round"/>
    <path d="M 190.45050048828125 173.9901123046875 C 143.7721405029297 163.8174591064453 189.7566680908203 184.26351928710938 166.0112762451172 187.035888671875 C 164.1517333984375 178.04139709472656 167.80401611328125 138.59829711914062 156.7706298828125 186.037841796875 C 182.26524353027344 149.2271270751953 194.242431640625 182.77828979492188 172.7268524169922 171.9484405517578" stroke-width="2.0" fill="none" stroke="rgb(0, 0, 0)" stroke-opacity="1" stroke-linecap="round" stroke-linejoin="round"/>
    <path d="M 154.27854919433594 123.65272521972656 C 185.67596435546875 132.95567321777344 162.42706298828125 136.76556396484375 176.50656127929688 143.73033142089844" stroke-width="2.0" fill="none" stroke="rgb(0, 0, 0)" stroke-opacity="1" stroke-linecap="round" stroke-linejoin="round"/>
    <path d="M 189.43629455566406 67.4039535522461 C 238.92491149902344 79.1629867553711 193.2515869140625 57.88135528564453 190.97023010253906 82.21226501464844" stroke-width="2.0" fill="none" stroke="rgb(0, 0, 0)" stroke-opacity="1" stroke-linecap="round" stroke-linejoin="round"/>
    <path d="M 168.76939392089844 199.1572265625 C 186.7182159423828 202.7314910888672 178.87098693847656 184.725341796875 173.91970825195312 202.1640167236328 C 216.07838439941406 183.1304168701172 151.16575622558594 198.7015380859375 172.22007751464844 179.98861694335938 C 233.74981689453125 177.00466918945312 237.2511749267578 173.55906677246094 184.5592498779297 170.62155151367188" stroke-width="2.0" fill="none" stroke="rgb(0, 0, 0)" stroke-opacity="1" stroke-linecap="round" stroke-linejoin="round"/>
    <path d="M 122.87238311767578 167.75387573242188 C 118.0437240600586 189.13197326660156 128.1798553466797 227.5901336669922 120.3882827758789 218.06838989257812 C 106.72404479980469 200.4145050048828 119.70833587646484 175.1020050048828 105.38693237304688 206.04859924316406" stroke-width="2.0" fill="none" stroke="rgb(0, 0, 0)" stroke-opacity="1" stroke-linecap="round" stroke-linejoin="round"/>
    <path d="M 117.05807495117188 178.71737670898438 C 91.37067413330078 182.81671142578125 110.56462860107422 174.22125244140625 104.98757934570312 180.1976776123047 C 85.10206604003906 180.1374969482422 109.88827514648438 171.94296264648438 92.03096771240234 181.53453063964844 C 70.1197738647461 182.9987335205078 50.652652740478516 157.3575897216797 67.31672668457031 178.72349548339844" stroke-width="2.0" fill="none" stroke="rgb(0, 0, 0)" stroke-opacity="1" stroke-linecap="round" stroke-linejoin="round"/>
    <path d="M 219.62257385253906 150.45004272460938 C 190.6050262451172 126.40918731689453 184.7985076904297 130.325439453125 187.17637634277344 146.71949768066406 C 193.80908203125 120.10102844238281 186.7421112060547 122.76036834716797 189.07029724121094 114.33980560302734 C 155.1525421142578 119.74260711669922 154.17120361328125 152.6971893310547 181.2248992919922 129.73941040039062" stroke-width="2.0" fill="none" stroke="rgb(0, 0, 0)" stroke-opacity="1" stroke-linecap="round" stroke-linejoin="round"/>
    <path d="M 144.19308471679688 96.74066925048828 C 182.0838165283203 115.0583724975586 205.27374267578125 104.50238800048828 186.30670166015625 104.1939697265625 C 150.8432159423828 89.11690521240234 143.6883087158203 92.22116088867188 163.3922119140625 96.9151382446289" stroke-width="2.0" fill="none" stroke="rgb(0, 0, 0)" stroke-opacity="1" stroke-linecap="round" stroke-linejoin="round"/>
    <path d="M 176.33352661132812 70.86325073242188 C 188.29925537109375 83.75871276855469 173.22137451171875 49.39241027832031 168.15768432617188 47.934967041015625 C 170.8628692626953 86.11860656738281 195.86782836914062 53.72992706298828 165.57077026367188 51.89345169067383 C 173.43467712402344 43.87118911743164 185.6653594970703 24.302412033081055 174.84307861328125 52.11423110961914" stroke-width="2.0" fill="none" stroke="rgb(0, 0, 0)" stroke-opacity="1" stroke-linecap="round" stroke-linejoin="round"/>
    <path d="M 222.975830078125 99.90790557861328 C 203.2553253173828 87.33609008789062 202.8075408935547 70.93209838867188 217.27542114257812 71.8060302734375 C 165.75482177734375 74.75981903076172 171.6142120361328 68.26043701171875 215.79385375976562 69.03114318847656" stroke-width="2.0" fill="none" stroke="rgb(0, 0, 0)" stroke-opacity="1" stroke-linecap="round" stroke-linejoin="round"/>
    <path d="M 62.98505401611328 105.83985137939453 C 58.474796295166016 75.2348403930664 53.165740966796875 114.59085083007812 72.98717498779297 112.35433197021484 C 95.87200927734375 84.31358337402344 79.0063247680664 95.64110565185547 70.80148315429688 112.64130401611328" stroke-width="2.0" fill="none" stroke="rgb(0, 0, 0)" stroke-opacity="1" stroke-linecap="round" stroke-linejoin="round"/>
    <path d="M 8.110814094543457 155.06393432617188 C 35.16022491455078 161.0116424560547 16.229738235473633 153.02438354492188 32.826778411865234 155.99183654785156" stroke-width="2.0" fill="none" stroke="rgb(0, 0, 0)" stroke-opacity="1" stroke-linecap="round" stroke-linejoin="round"/>
    <path d="M 10.513959884643555 120.32195281982422 C 34.170040130615234 123.3318862915039 -2.6361024379730225 123.22456359863281 -22.588464736938477 122.65953063964844" stroke-width="2.0" fill="none" stroke="rgb(0, 0, 0)" stroke-opacity="1" stroke-linecap="round" stroke-linejoin="round"/>
    <path d="M 64.89449310302734 117.48286437988281 C 25.068655014038086 122.55082702636719 -7.704798221588135 122.34809112548828 6.9962687492370605 130.18922424316406" stroke-width="2.0" fill="none" stroke="rgb(0, 0, 0)" stroke-opacity="1" stroke-linecap="round" stroke-linejoin="round"/>
    <path d="M 153.63323974609375 57.08172607421875 C 148.6573944091797 8.038147926330566 139.76956176757812 93.98847198486328 162.15313720703125 46.15632247924805" stroke-width="2.0" fill="none" stroke="rgb(0, 0, 0)" stroke-opacity="1" stroke-linecap="round" stroke-linejoin="round"/>
    <path d="M 86.84168243408203 20.372478485107422 C 96.43280792236328 20.848554611206055 97.26203155517578 -5.837131977081299 101.98744201660156 38.16203689575195 C 83.160888671875 8.971794128417969 78.57746124267578 12.649168968200684 109.75703430175781 42.49814987182617" stroke-width="2.0" fill="none" stroke="rgb(0, 0, 0)" stroke-opacity="1" stroke-linecap="round" stroke-linejoin="round"/>
    <path d="M 171.88400268554688 99.86527252197266 C 133.81060791015625 104.95389556884766 166.42901611328125 93.60321044921875 165.7930145263672 103.59879302978516 C 183.42153930664062 94.53096008300781 139.18649291992188 102.8485336303711 110.91169738769531 84.09972381591797 C 150.39804077148438 97.11785888671875 124.97047424316406 88.84867095947266 143.2819366455078 82.9938735961914" stroke-width="2.0" fill="none" stroke="rgb(0, 0, 0)" stroke-opacity="1" stroke-linecap="round" stroke-linejoin="round"/>
    <path d="M 71.86190795898438 217.44326782226562 C 67.2240219116211 222.4035186767578 51.54947280883789 213.49639892578125 84.72162628173828 224.18801879882812 C 50.703956604003906 222.66683959960938 26.79204750061035 211.5325927734375 28.256017684936523 224.5717010498047" stroke-width="2.0" fill="none" stroke="rgb(0, 0, 0)" stroke-opacity="1" stroke-linecap="round" stroke-linejoin="round"/>
    <path d="M 39.61538314819336 8.7767972946167 C 85.74221801757812 6.885854721069336 21.46441650390625 13.357659339904785 52.563690185546875 15.67570972442627 C 73.57820892333984 26.951881408691406 94.8994369506836 11.70604419708252 65.48480987548828 11.227851867675781 C 73.26893615722656 -8.65798282623291 46.4234733581543 10.628560066223145 76.26737213134766 15.62563419342041" stroke-width="2.0" fill="none" stroke="rgb(0, 0, 0)" stroke-opacity="1" stroke-linecap="round" stroke-linejoin="round"/>
    <path d="M 158.015625 70.88909912109375 C 178.3831024169922 94.58959197998047 172.43881225585938 86.34593963623047 159.35052490234375 91.55784606933594 C 151.6370086669922 67.05079650878906 115.32003021240234 105.56566619873047 157.19076538085938 93.79054260253906 C 135.59825134277344 79.88056182861328 132.3614959716797 80.77494812011719 153.0970458984375 94.96610260009766" stroke-width="2.0" fill="none" stroke="rgb(0, 0, 0)" stroke-opacity="1" stroke-linecap="round" stroke-linejoin="round"/>
    <path d="M 91.247802734375 98.89472198486328 C 74.01924896240234 124.69198608398438 104.71932983398438 114.84364318847656 77.95651245117188 104.26531219482422 C 112.5677490234375 110.22563934326172 103.93724060058594 122.4320297241211 111.40577697753906 105.08889770507812" stroke-width="2.0" fill="none" stroke="rgb(0, 0, 0)" stroke-opacity="1" stroke-linecap="round" stroke-linejoin="round"/>
    <path d="M 186.91226196289062 114.70174407958984 C 190.708740234375 112.25862121582031 190.9526824951172 129.8992462158203 186.8939666748047 155.59364318847656 C 165.9042510986328 98.34153747558594 193.92872619628906 107.63259887695312 194.26499938964844 158.6763458251953 C 208.20228576660156 153.30555725097656 205.19810485839844 115.1842269897461 192.85836791992188 160.78126525878906" stroke-width="2.0" fill="none" stroke="rgb(0, 0, 0)" stroke-opacity="1" stroke-linecap="round" stroke-linejoin="round"/>
    <path d="M 89.65969848632812 98.90380096435547 C 95.67243194580078 115.7157974243164 95.29800415039062 117.55321502685547 83.93759155273438 101.12496185302734" stroke-width="2.0" fill="none" stroke="rgb(0, 0, 0)" stroke-opacity="1" stroke-linecap="round" stroke-linejoin="round"/>
    <path d="M -3.385556697845459 82.11491394042969 C -0.7018334865570068 86.20252990722656 -39.15045166015625 72.50971221923828 -52.693363189697266 87.18140411376953 C -27.072521209716797 79.4300308227539 -31.66046714782715 83.79962158203125 -39.289390563964844 76.50907897949219 C -49.15747833251953 68.45513916015625 -57.81074905395508 61.48663330078125 -53.412349700927734 57.664695739746094" stroke-width="2.0" fill="none" stroke="rgb(0, 0, 0)" stroke-opacity="1" stroke-linecap="round" stroke-linejoin="round"/>
    <path d="M 73.11774444580078 69.98523712158203 C 51.7587890625 79.19416809082031 40.97241973876953 75.26488494873047 82.64884185791016 64.55804443359375 C 41.188262939453125 64.1146240234375 58.28883361816406 64.64292907714844 93.27528381347656 56.684837341308594 C 53.16897964477539 54.85835647583008 66.05267333984375 75.90483856201172 58.44992446899414 32.24325180053711" stroke-width="2.0" fill="none" stroke="rgb(0, 0, 0)" stroke-opacity="1" stroke-linecap="round" stroke-linejoin="round"/>
    <path d="M 158.18626403808594 187.0622100830078 C 177.816650390625 175.4236602783203 213.57659912109375 163.52633666992188 170.46726989746094 165.08702087402344 C 166.69723510742188 179.0629119873047 172.61317443847656 178.50135803222656 225.77052307128906 172.68756103515625" stroke-width="2.0" fill="none" stroke="rgb(0, 0, 0)" stroke-opacity="1" stroke-linecap="round" stroke-linejoin="round"/>
    <path d="M -3.3583550453186035 112.63319396972656 C 23.972240447998047 112.73231506347656 17.531192779541016 114.875244140625 -8.906791687011719 112.27558135986328 C 21.325794219970703 118.0130386352539 4.215516090393066 116.83247375488281 -25.52771759033203 114.02398681640625 C -14.424491882324219 133.07289123535156 -0.27214691042900085 120.30472564697266 30.843555450439453 112.61610412597656" stroke-width="2.0" fill="none" stroke="rgb(0, 0, 0)" stroke-opacity="1" stroke-linecap="round" stroke-linejoin="round"/>
    <path d="M 200.75921630859375 96.56656646728516 C 201.99459838867188 153.12648010253906 194.2884063720703 123.32884979248047 195.70240783691406 94.14328002929688 C 186.75035095214844 104.28286743164062 198.29933166503906 148.3467254638672 179.939453125 157.1622314453125 C 194.75772094726562 126.47881317138672 190.09298706054688 90.02500915527344 174.2111053466797 138.67042541503906" stroke-width="2.0" fill="none" stroke="rgb(0, 0, 0)" stroke-opacity="1" stroke-linecap="round" stroke-linejoin="round"/>
    <path d="M 74.70714569091797 96.8184585571289 C 71.06788635253906 122.19839477539062 80.2603988647461 116.50384521484375 77.5122299194336 114.20028686523438 C 90.45671081542969 115.03234100341797 68.46830749511719 123.57379150390625 73.09291076660156 163.18946838378906 C 79.4675521850586 125.90958404541016 78.04110717773438 112.85810852050781 93.380859375 104.23839569091797" stroke-width="2.0" fill="none" stroke="rgb(0, 0, 0)" stroke-opacity="1" stroke-linecap="round" stroke-linejoin="round"/>
    <path d="M 62.97914123535156 25.25777244567871 C 85.80455017089844 44.844573974609375 78.81278991699219 24.3531436920166 64.6788101196289 21.776336669921875 C 100.95572662353516 61.415191650390625 98.64579010009766 31.783647537231445 72.40520477294922 19.50379180908203 C 101.62777709960938 28.826709747314453 86.22801971435547 29.049983978271484 97.48710632324219 12.603399276733398" stroke-width="2.0" fill="none" stroke="rgb(0, 0, 0)" stroke-opacity="1" stroke-linecap="round" stroke-linejoin="round"/>
    <path d="M 180.27230834960938 185.71768188476562 C 152.4974822998047 159.8697052001953 169.2167510986328 200.25747680664062 154.30221557617188 176.86683654785156" stroke-width="2.0" fill="none" stroke="rgb(0, 0, 0)" stroke-opacity="1" stroke-linecap="round" stroke-linejoin="round"/>
    <path d="M 0.5104534029960632 8.774307250976562 C -1.8634674549102783 45.33597946166992 -4.658724308013916 36.12855529785156 -2.9130377769470215 26.82698631286621" stroke-width="2.0" fill="none" stroke="rgb(0, 0, 0)" stroke-opacity="1" stroke-linecap="round" stroke-linejoin="round"/>
    <path d="M -2.6396236419677734 193.58177185058594 C -9.320040702819824 183.47752380371094 -17.908212661743164 184.54397583007812 -15.706477165222168 179.40878295898438 C -2.595201253890991 178.73838806152344 -1.3220361471176147 188.02273559570312 -7.134249687194824 198.60743713378906" stroke-width="2.0" fill="none" stroke="rgb(0, 0, 0)" stroke-opacity="1" stroke-linecap="round" stroke-linejoin="round"/>
    <path d="M 168.53958129882812 193.7921142578125 C 125.87306213378906 187.3103790283203 105.37439727783203 178.1461181640625 145.9341278076172 187.0346221923828" stroke-width="2.0" fill="none" stroke="rgb(0, 0, 0)" stroke-opacity="1" stroke-linecap="round" stroke-linejoin="round"/>
    <path d="M 182.4436798095703 41.781192779541016 C 193.2734832763672 41.08448028564453 180.2515869140625 25.611289978027344 204.15760803222656 72.12593841552734 C 167.47279357910156 62.93748474121094 176.53150939941406 17.90648078918457 181.06222534179688 57.36314010620117" stroke-width="2.0" fill="none" stroke="rgb(0, 0, 0)" stroke-opacity="1" stroke-linecap="round" stroke-linejoin="round"/>
    <path d="M 117.0572280883789 183.89442443847656 C 100.07356262207031 190.28561401367188 92.28173065185547 198.50999450683594 71.49684143066406 209.34002685546875" stroke-width="2.0" fill="none" stroke="rgb(0, 0, 0)" stroke-opacity="1" stroke-linecap="round" stroke-linejoin="round"/>
    <path d="M -11.022624969482422 38.17121124267578 C -2.1033833026885986 44.294673919677734 -3.723906993865967 52.368831634521484 -7.068801403045654 54.17668533325195 C -14.715523719787598 42.64336395263672 -19.723051071166992 38.9982795715332 -27.968252182006836 37.56985855102539 C -37.00874328613281 46.98666000366211 -44.86992263793945 53.42448043823242 -34.35472869873047 52.821144104003906" stroke-width="2.0" fill="none" stroke="rgb(0, 0, 0)" stroke-opacity="1" stroke-linecap="round" stroke-linejoin="round"/>
    <path d="M 218.42726135253906 136.15240478515625 C 199.28399658203125 167.4005584716797 208.62464904785156 176.24574279785156 195.2609405517578 135.0418243408203" stroke-width="2.0" fill="none" stroke="rgb(0, 0, 0)" stroke-opacity="1" stroke-linecap="round" stroke-linejoin="round"/>
    <path d="M 171.60247802734375 107.3805160522461 C 182.70152282714844 85.39698791503906 147.6276397705078 96.5956802368164 137.3369140625 94.1991958618164 C 163.51522827148438 85.73146057128906 184.30276489257812 94.50733184814453 164.628173828125 91.00106048583984" stroke-width="2.0" fill="none" stroke="rgb(0, 0, 0)" stroke-opacity="1" stroke-linecap="round" stroke-linejoin="round"/>
    <path d="M 91.2061996459961 122.58692932128906 C 104.40250396728516 124.5166244506836 116.47661590576172 117.76275634765625 128.2727813720703 111.92220306396484" stroke-width="2.0" fill="none" stroke="rgb(0, 0, 0)" stroke-opacity="1" stroke-linecap="round" stroke-linejoin="round"/>
    <path d="M 144.20541381835938 38.582855224609375 C 147.3887481689453 71.0588607788086 142.35556030273438 89.78131866455078 138.41041564941406 50.716209411621094 C 124.40357208251953 66.18666076660156 137.59642028808594 96.85900115966797 122.86006164550781 64.91355895996094 C 140.84176635742188 72.05292510986328 160.70652770996094 70.77457427978516 117.6718978881836 78.12062072753906" stroke-width="2.0" fill="none" stroke="rgb(0, 0, 0)" stroke-opacity="1" stroke-linecap="round" stroke-linejoin="round"/>
    <path d="M 96.18684387207031 132.12049865722656 C 110.20272827148438 139.16683959960938 100.51305389404297 137.5889129638672 148.55352783203125 152.43797302246094 C 136.81573486328125 138.05149841308594 99.13945770263672 145.4935760498047 106.1449203491211 131.66009521484375" stroke-width="2.0" fill="none" stroke="rgb(0, 0, 0)" stroke-opacity="1" stroke-linecap="round" stroke-linejoin="round"/>
    <path d="M 89.95681762695312 176.32589721679688 C 86.68665313720703 179.2542266845703 112.00384521484375 182.10716247558594 85.17295837402344 178.15884399414062" stroke-width="2.0" fill="none" stroke="rgb(0, 0, 0)" stroke-opacity="1" stroke-linecap="round" stroke-linejoin="round"/>
    <path d="M 145.47494506835938 198.65777587890625 C 162.62013244628906 208.1415557861328 185.9276123046875 194.85284423828125 176.89166259765625 198.11236572265625 C 159.7988739013672 210.88885498046875 127.16149139404297 204.7624969482422 153.64230346679688 198.8233642578125" stroke-width="2.0" fill="none" stroke="rgb(0, 0, 0)" stroke-opacity="1" stroke-linecap="round" stroke-linejoin="round"/>
    <path d="M 126.01092529296875 18.622669219970703 C 161.2684326171875 34.40776443481445 150.28759765625 36.19738006591797 184.35804748535156 30.102527618408203 C 186.68685913085938 35.48074722290039 175.75160217285156 26.9781551361084 197.54356384277344 19.812026977539062 C 173.24810791015625 23.474510192871094 185.4489288330078 27.061264038085938 211.1439208984375 24.577302932739258" stroke-width="2.0" fill="none" stroke="rgb(0, 0, 0)" stroke-opacity="1" stroke-linecap="round" stroke-linejoin="round"/>
    <path d="M 129.41128540039062 38.30214309692383 C 136.86387634277344 49.56101608276367 112.81993865966797 39.784000396728516 104.37995910644531 20.1430721282959 C 87.8131103515625 -6.577075481414795 94.273193359375 12.157949447631836 129.10276794433594 21.5550479888916" stroke-width="2.0" fill="none" stroke="rgb(0, 0, 0)" stroke-opacity="1" stroke-linecap="round" stroke-linejoin="round"/>
    <path d="M 232.6536407470703 208.92889404296875 C 221.3585968017578 243.01551818847656 241.6096954345703 200.60760498046875 219.79241943359375 209.8251953125 C 219.88319396972656 206.96533203125 212.7286376953125 188.2185821533203 223.43441772460938 178.12753295898438 C 203.86888122558594 191.92303466796875 225.93177795410156 222.66519165039062 215.94189453125 215.40628051757812" stroke-width="2.0" fill="none" stroke="rgb(0, 0, 0)" stroke-opacity="1" stroke-linecap="round" stroke-linejoin="round"/>
    <path d="M 49.91358947753906 6.877683162689209 C 100.03684997558594 3.9674408435821533 71.32415008544922 12.882515907287598 62.807533264160156 8.963815689086914" stroke-width="2.0" fill="none" stroke="rgb(0, 0, 0)" stroke-opacity="1" stroke-linecap="round" stroke-linejoin="round"/>
    <path d="M 191.9732666015625 80.78237915039062 C 229.42050170898438 79.21893310546875 214.52536010742188 66.77859497070312 224.3460235595703 101.16193389892578 C 210.45709228515625 84.8091812133789 212.81484985351562 60.11695098876953 196.6590118408203 70.08141326904297 C 211.0998992919922 98.84925079345703 231.31517028808594 92.75365447998047 251.77757263183594 92.0385971069336" stroke-width="2.0" fill="none" stroke="rgb(0, 0, 0)" stroke-opacity="1" stroke-linecap="round" stroke-linejoin="round"/>
    <path d="M 209.5424346923828 187.48886108398438 C 207.17498779296875 228.24542236328125 207.1228485107422 241.06344604492188 211.02268981933594 230.32022094726562 C 236.9895782470703 220.86090087890625 211.4286346435547 219.61338806152344 203.64210510253906 229.15231323242188" stroke-width="2.0" fill="none" stroke="rgb(0, 0, 0)" stroke-opacity="1" stroke-linecap="round" stroke-linejoin="round"/>
    <path d="M 170.8587646484375 206.6630401611328 C 181.5814208984375 220.22752380371094 167.0836181640625 213.33131408691406 186.06263732910156 209.24285888671875 C 184.0981903076172 210.59591674804688 181.89764404296875 213.4896697998047 186.8408966064453 199.54136657714844" stroke-width="2.0" fill="none" stroke="rgb(0, 0, 0)" stroke-opacity="1" stroke-linecap="round" stroke-linejoin="round"/>
    <path d="M 116.67200469970703 163.6817626953125 C 78.98941802978516 159.7571563720703 91.39237213134766 155.73379516601562 122.65943908691406 153.0615997314453" stroke-width="2.0" fill="none" stroke="rgb(0, 0, 0)" stroke-opacity="1" stroke-linecap="round" stroke-linejoin="round"/>
    <path d="M 95.22528076171875 99.85714721679688 C 100.1441879272461 123.53459167480469 84.93206787109375 112.23383331298828 116.85175323486328 113.45736694335938 C 106.77783203125 102.88526916503906 69.21060943603516 112.3873062133789 81.48062896728516 93.7497329711914" stroke-width="2.0" fill="none" stroke="rgb(0, 0, 0)" stroke-opacity="1" stroke-linecap="round" stroke-linejoin="round"/>
    <path d="M 58.520084381103516 206.3688201904297 C 43.003379821777344 221.11721801757812 51.017234802246094 230.720703125 50.798099517822266 204.61117553710938 C 52.456790924072266 205.72726440429688 67.54426574707031 202.60887145996094 52.63418960571289 199.85842895507812 C 50.28501892089844 178.03985595703125 49.44705581665039 229.43350219726562 55.57319259643555 195.34628295898438" stroke-width="2.0" fill="none" stroke="rgb(0, 0, 0)" stroke-opacity="1" stroke-linecap="round" stroke-linejoin="round"/>
    <path d="M 58.91322326660156 175.04518127441406 C 24.934682846069336 171.7147216796875 30.330764770507812 171.9679412841797 38.686710357666016 176.7876434326172 C 34.7579231262207 176.3834228515625 61.66249084472656 168.3221435546875 77.63594055175781 167.46200561523438" stroke-width="2.0" fill="none" stroke="rgb(0, 0, 0)" stroke-opacity="1" stroke-linecap="round" stroke-linejoin="round"/>
    <path d="M 215.42393493652344 164.56063842773438 C 220.8292236328125 117.90280151367188 211.48184204101562 150.04061889648438 214.622314453125 160.7728271484375 C 195.8479461669922 168.82696533203125 206.55450439453125 115.57463836669922 194.72341918945312 149.9338836669922" stroke-width="2.0" fill="none" stroke="rgb(0, 0, 0)" stroke-opacity="1" stroke-linecap="round" stroke-linejoin="round"/>
    <path d="M 129.92726135253906 228.44920349121094 C 105.97808074951172 218.60638427734375 112.39361572265625 219.92005920410156 111.38189697265625 193.32383728027344" stroke-width="2.0" fill="none" stroke="rgb(0, 0, 0)" stroke-opacity="1" stroke-linecap="round" stroke-linejoin="round"/>
    <path d="M 58.634979248046875 19.459476470947266 C 73.8406982421875 4.575895309448242 82.7979965209961 22.7368221282959 33.220760345458984 8.22873306274414" stroke-width="2.0" fill="none" stroke="rgb(0, 0, 0)" stroke-opacity="1" stroke-linecap="round" stroke-linejoin="round"/>
    <path d="M 10.622961044311523 209.49412536621094 C 16.13076400756836 169.5926055908203 19.37907600402832 211.29379272460938 5.141750812530518 218.17330932617188" stroke-width="2.0" fill="none" stroke="rgb(0, 0, 0)" stroke-opacity="1" stroke-linecap="round" stroke-linejoin="round"/>
    <path d="M 43.68437194824219 89.65613555908203 C 42.89565658569336 150.05271911621094 41.418060302734375 83.45764923095703 37.116363525390625 70.95867156982422 C 39.2554931640625 60.732757568359375 24.862607955932617 80.13642120361328 33.87240219116211 63.860595703125 C 60.69989776611328 83.22166442871094 50.76238250732422 78.56392669677734 7.269933223724365 77.47019958496094" stroke-width="2.0" fill="none" stroke="rgb(0, 0, 0)" stroke-opacity="1" stroke-linecap="round" stroke-linejoin="round"/>
    <path d="M 3.8491129875183105 132.18563842773438 C -5.855544567108154 119.90321350097656 22.502931594848633 124.5771255493164 31.523481369018555 112.29473876953125 C 30.620508193969727 125.81529235839844 40.435298919677734 143.6077423095703 19.889509201049805 116.32673645019531" stroke-width="2.0" fill="none" stroke="rgb(0, 0, 0)" stroke-opacity="1" stroke-linecap="round" stroke-linejoin="round"/>
    <path d="M 62.67263412475586 25.160314559936523 C 32.65961837768555 5.7135419845581055 10.21484088897705 4.751993179321289 -9.242321014404297 -2.891918897628784" stroke-width="2.0" fill="none" stroke="rgb(0, 0, 0)" stroke-opacity="1" stroke-linecap="round" stroke-linejoin="round"/>
    <path d="M 138.05386352539062 41.00520706176758 C 120.83719635009766 62.60767364501953 114.58761596679688 28.199827194213867 127.28724670410156 39.76565933227539 C 118.8698501586914 52.525611877441406 79.02629089355469 49.609195709228516 98.5520248413086 12.982151985168457" stroke-width="2.0" fill="none" stroke="rgb(0, 0, 0)" stroke-opacity="1" stroke-linecap="round" stroke-linejoin="round"/>
    <path d="M 110.84406280517578 136.5528106689453 C 169.42428588867188 139.6201629638672 139.48291015625 135.7768096923828 98.7100601196289 134.56832885742188 C 125.35142517089844 145.58522033691406 162.0096893310547 135.03347778320312 106.69986724853516 132.39486694335938" stroke-width="2.0" fill="none" stroke="rgb(0, 0, 0)" stroke-opacity="1" stroke-linecap="round" stroke-linejoin="round"/>
    <path d="M 57.471397399902344 15.5718355178833 C 64.13676452636719 -12.53772258758545 67.6799087524414 -40.02628707885742 65.5642318725586 -45.44677734375 C 34.08179473876953 -19.986095428466797 23.44785499572754 -26.482749938964844 16.224571228027344 -21.555946350097656" stroke-width="2.0" fill="none" stroke="rgb(0, 0, 0)" stroke-opacity="1" stroke-linecap="round" stroke-linejoin="round"/>
    <path d="M 175.8507080078125 43.22526550292969 C 144.11668395996094 59.97382354736328 163.43173217773438 109.22799682617188 165.63119506835938 69.9923324584961 C 154.29962158203125 75.3315658569336 145.60362243652344 86.58152770996094 115.78951263427734 84.38758850097656 C 120.33779907226562 129.6180877685547 112.96576690673828 121.58381652832031 114.69562530517578 83.13587951660156" stroke-width="2.0" fill="none" stroke="rgb(0, 0, 0)" stroke-opacity="1" stroke-linecap="round" stroke-linejoin="round"/>
    <path d="M 54.17343521118164 40.37672805786133 C 40.765846252441406 61.856056213378906 36.59568786621094 67.79959106445312 45.150909423828125 61.960052490234375 C 35.69470977783203 50.72740936279297 64.0752944946289 68.66658020019531 55.140262603759766 65.67565155029297 C 55.556087493896484 51.80693435668945 52.92967224121094 25.153261184692383 50.02592468261719 64.25682067871094" stroke-width="2.0" fill="none" stroke="rgb(0, 0, 0)" stroke-opacity="1" stroke-linecap="round" stroke-linejoin="round"/>
    <path d="M 101.86566162109375 68.20631408691406 C 113.02300262451172 124.47989654541016 97.26061248779297 134.0440673828125 97.9217300415039 73.25215148925781 C 91.03135681152344 117.98233032226562 90.28723907470703 88.38774108886719 98.17057037353516 66.12135314941406" stroke-width="2.0" fill="none" stroke="rgb(0, 0, 0)" stroke-opacity="1" stroke-linecap="round" stroke-linejoin="round"/>
    <path d="M 107.83566284179688 38.40031433105469 C 101.1930923461914 21.89539337158203 77.87069702148438 24.643600463867188 92.48006439208984 19.209787368774414 C 88.79737091064453 29.905179977416992 106.10569763183594 25.598190307617188 78.09612274169922 36.35763168334961" stroke-width="2.0" fill="none" stroke="rgb(0, 0, 0)" stroke-opacity="1" stroke-linecap="round" stroke-linejoin="round"/>
    <path d="M 222.00205993652344 206.18966674804688 C 193.0011749267578 235.90756225585938 198.52749633789062 236.0153350830078 192.6304168701172 253.83837890625 C 191.67518615722656 236.32754516601562 200.9748992919922 220.7553253173828 178.68919372558594 228.31886291503906" stroke-width="2.0" fill="none" stroke="rgb(0, 0, 0)" stroke-opacity="1" stroke-linecap="round" stroke-linejoin="round"/>
    <path d="M 190.3824920654297 110.98258972167969 C 177.64039611816406 133.599609375 175.64816284179688 169.25628662109375 183.4181671142578 141.61306762695312" stroke-width="2.0" fill="none" stroke="rgb(0, 0, 0)" stroke-opacity="1" stroke-linecap="round" stroke-linejoin="round"/>
    <path d="M 105.88520812988281 25.27667999267578 C 132.91778564453125 58.87467956542969 115.6636734008789 52.665374755859375 98.6819839477539 13.171647071838379" stroke-width="2.0" fill="none" stroke="rgb(0, 0, 0)" stroke-opacity="1" stroke-linecap="round" stroke-linejoin="round"/>
    <path d="M 204.33091735839844 173.31057739257812 C 206.64047241210938 180.652587890625 187.4208984375 165.37393188476562 201.118408203125 172.65065002441406" stroke-width="2.0" fill="none" stroke="rgb(0, 0, 0)" stroke-opacity="1" stroke-linecap="round" stroke-linejoin="round"/>
    <path d="M 85.4066390991211 62.00172424316406 C 36.74755096435547 62.99122619628906 41.44095993041992 46.40012741088867 59.18508529663086 58.405181884765625" stroke-width="2.0" fill="none" stroke="rgb(0, 0, 0)" stroke-opacity="1" stroke-linecap="round" stroke-linejoin="round"/>
    <path d="M -7.871905326843262 133.1532745361328 C 25.856834411621094 137.536865234375 23.29395866394043 146.85731506347656 -3.008477210998535 138.84744262695312" stroke-width="2.0" fill="none" stroke="rgb(0, 0, 0)" stroke-opacity="1" stroke-linecap="round" stroke-linejoin="round"/>
    <path d="M 13.738072395324707 123.81450653076172 C 40.113441467285156 131.20350646972656 36.75878143310547 135.7638397216797 5.3097429275512695 126.57557678222656 C 16.13139533996582 134.69677734375 23.356557846069336 140.43927001953125 40.88114547729492 156.1226348876953" stroke-width="2.0" fill="none" stroke="rgb(0, 0, 0)" stroke-opacity="1" stroke-linecap="round" stroke-linejoin="round"/>
    <path d="M 138.2938232421875 183.15750122070312 C 111.16374969482422 170.41148376464844 125.65708923339844 174.39549255371094 120.99446105957031 167.80128479003906 C 129.13087463378906 182.4199676513672 145.08433532714844 178.51907348632812 125.2874984741211 193.98983764648438 C 172.18844604492188 201.9557647705078 137.1771240234375 175.44091796875 143.68792724609375 195.9429473876953" stroke-width="2.0" fill="none" stroke="rgb(0, 0, 0)" stroke-opacity="1" stroke-linecap="round" stroke-linejoin="round"/>
    <path d="M 51.574424743652344 -9.465555191040039 C 82.76872253417969 28.407264709472656 75.13994598388672 19.643098831176758 55.112464904785156 -7.792623043060303 C 43.79282760620117 -16.559486389160156 41.27010726928711 -23.359241485595703 53.04677200317383 -17.717866897583008" stroke-width="2.0" fill="none" stroke="rgb(0, 0, 0)" stroke-opacity="1" stroke-linecap="round" stroke-linejoin="round"/>
    <path d="M 16.153583526611328 45.47222137451172 C 20.728612899780273 103.99083709716797 11.754005432128906 79.17691802978516 50.41698455810547 70.57019805908203 C 40.130428314208984 60.83585739135742 50.90566635131836 75.7284927368164 31.21204376220703 82.5137939453125" stroke-width="2.0" fill="none" stroke="rgb(0, 0, 0)" stroke-opacity="1" stroke-linecap="round" stroke-linejoin="round"/>
    <path d="M 44.131473541259766 172.24647521972656 C 12.566658973693848 166.18409729003906 8.161149978637695 154.35704040527344 14.510252952575684 161.8925323486328 C 66.98210906982422 167.27706909179688 34.57373809814453 159.7834930419922 11.994271278381348 159.26780700683594" stroke-width="2.0" fill="none" stroke="rgb(0, 0, 0)" stroke-opacity="1" stroke-linecap="round" stroke-linejoin="round"/>
    <path d="M 97.66537475585938 217.1101837158203 C 89.52378845214844 187.3876495361328 111.70364379882812 225.43092346191406 88.2616958618164 211.2873077392578 C 100.06368255615234 230.67018127441406 85.60900115966797 204.93682861328125 61.5826301574707 217.50633239746094 C 62.843814849853516 171.48529052734375 58.768409729003906 213.76138305664062 58.31163787841797 195.17213439941406" stroke-width="2.0" fill="none" stroke="rgb(0, 0, 0)" stroke-opacity="1" stroke-linecap="round" stroke-linejoin="round"/>
    <path d="M 208.5618133544922 39.319488525390625 C 215.37750244140625 62.7224235534668 224.59951782226562 114.73583984375 212.0292510986328 66.66304779052734 C 192.46591186523438 69.44888305664062 196.77865600585938 67.32381439208984 213.9593505859375 85.66793823242188 C 189.35264587402344 87.14583587646484 200.45535278320312 61.26325607299805 187.79420471191406 76.92511749267578" stroke-width="2.0" fill="none" stroke="rgb(0, 0, 0)" stroke-opacity="1" stroke-linecap="round" stroke-linejoin="round"/>
    <path d="M 202.5037384033203 191.5997772216797 C 203.60389709472656 204.68112182617188 203.56192016601562 200.44973754882812 213.70135498046875 209.12828063964844 C 206.01495361328125 203.30142211914062 208.3903045654297 226.52493286132812 214.67884826660156 183.5261993408203" stroke-width="2.0" fill="none" stroke="rgb(0, 0, 0)" stroke-opacity="1" stroke-linecap="round" stroke-linejoin="round"/>
    <path d="M 20.42554473876953 115.33897399902344 C 74.63059997558594 129.48426818847656 73.93236541748047 115.93463897705078 60.473655700683594 114.91615295410156 C 56.419403076171875 136.64596557617188 10.776443481445312 124.33280944824219 35.08961486816406 116.09146118164062 C 45.68990707397461 127.60205841064453 80.08324432373047 130.1733856201172 46.628387451171875 117.50495910644531" stroke-width="2.0" fill="none" stroke="rgb(0, 0, 0)" stroke-opacity="1" stroke-linecap="round" stroke-linejoin="round"/>
    <path d="M 125.01930236816406 183.6495361328125 C 120.5680923461914 168.54478454589844 142.05616760253906 191.7920684814453 124.28240203857422 178.75653076171875" stroke-width="2.0" fill="none" stroke="rgb(0, 0, 0)" stroke-opacity="1" stroke-linecap="round" stroke-linejoin="round"/>
    <path d="M 81.50260162353516 153.07179260253906 C 82.8460922241211 173.11070251464844 76.00628662109375 173.2447509765625 82.0556869506836 177.77137756347656 C 88.7381362915039 135.93724060058594 91.29838562011719 131.10797119140625 87.52108764648438 158.57847595214844" stroke-width="2.0" fill="none" stroke="rgb(0, 0, 0)" stroke-opacity="1" stroke-linecap="round" stroke-linejoin="round"/>
    <path d="M 101.84076690673828 71.68061828613281 C 142.3504638671875 83.0505142211914 105.77849578857422 67.50167083740234 132.1761474609375 38.3286247253418 C 147.95730590820312 50.56414031982422 124.34151458740234 102.56529998779297 155.55467224121094 58.744598388671875" stroke-width="2.0" fill="none" stroke="rgb(0, 0, 0)" stroke-opacity="1" stroke-linecap="round" stroke-linejoin="round"/>
    <path d="M 137.87608337402344 233.7327423095703 C 132.64581298828125 229.62973022460938 119.82490539550781 231.9303741455078 119.2855224609375 230.8202667236328" stroke-width="2.0" fill="none" stroke="rgb(0, 0, 0)" stroke-opacity="1" stroke-linecap="round" stroke-linejoin="round"/>
    <path d="M 28.52787208557129 177.75677490234375 C 17.7624454498291 177.86648559570312 26.16101837158203 162.42385864257812 19.45000648498535 197.58363342285156" stroke-width="2.0" fill="none" stroke="rgb(0, 0, 0)" stroke-opacity="1" stroke-linecap="round" stroke-linejoin="round"/>
    <path d="M 179.1646728515625 71.71371459960938 C 160.31243896484375 64.57708740234375 175.8144073486328 36.236793518066406 172.02427673339844 67.35261535644531 C 195.7444610595703 84.74159240722656 201.5529022216797 39.10411834716797 169.7088623046875 55.496952056884766" stroke-width="2.0" fill="none" stroke="rgb(0, 0, 0)" stroke-opacity="1" stroke-linecap="round" stroke-linejoin="round"/>
    <path d="M 49.54644775390625 126.74131774902344 C 74.43984985351562 108.64315795898438 87.52725982666016 118.66466522216797 42.25041198730469 132.0109405517578" stroke-width="2.0" fill="none" stroke="rgb(0, 0, 0)" stroke-opacity="1" stroke-linecap="round" stroke-linejoin="round"/>
    <path d="M 72.31663513183594 97.48648071289062 C 62.1228141784668 147.59173583984375 59.76068115234375 151.42214965820312 71.0924072265625 157.18099975585938 C 58.96354293823242 148.29202270507812 77.06912994384766 124.74919128417969 69.61399841308594 144.78659057617188 C 68.79458618164062 167.48756408691406 82.17820739746094 164.21498107910156 46.432220458984375 141.67465209960938" stroke-width="2.0" fill="none" stroke="rgb(0, 0, 0)" stroke-opacity="1" stroke-linecap="round" stroke-linejoin="round"/>
    <path d="M 145.07550048828125 154.85980224609375 C 123.79804229736328 161.62059020996094 136.58917236328125 162.091552734375 90.3135986328125 158.80311584472656 C 138.4578857421875 152.2727813720703 164.89930725097656 157.2903289794922 135.45558166503906 147.84117126464844 C 133.8685302734375 123.80438995361328 154.9816131591797 122.59073638916016 145.3163604736328 178.19442749023438" stroke-width="2.0" fill="none" stroke="rgb(0, 0, 0)" stroke-opacity="1" stroke-linecap="round" stroke-linejoin="round"/>
    <path d="M 107.48965454101562 77.05391693115234 C 94.4778823852539 61.84138870239258 84.8108139038086 72.34146881103516 145.18402099609375 72.40623474121094 C 136.87440490722656 57.4200439453125 136.1439971923828 69.43887329101562 106.57672882080078 68.49824523925781" stroke-width="2.0" fill="none" stroke="rgb(0, 0, 0)" stroke-opacity="1" stroke-linecap="round" stroke-linejoin="round"/>
    <path d="M 5.433310031890869 216.6909942626953 C -15.58115005493164 219.9340362548828 -21.36579132080078 210.7540283203125 -34.10213851928711 200.21505737304688 C -22.567947387695312 211.91542053222656 -16.852394104003906 209.62307739257812 -15.851974487304688 213.79722595214844 C -13.677825927734375 214.84144592285156 -12.046924591064453 203.7497100830078 -18.622499465942383 209.6978759765625" stroke-width="2.0" fill="none" stroke="rgb(0, 0, 0)" stroke-opacity="1" stroke-linecap="round" stroke-linejoin="round"/>
    <path d="M 115.00071716308594 208.8370361328125 C 91.6756591796875 207.3297576904297 35.678707122802734 214.66607666015625 96.74522399902344 224.98611450195312" stroke-width="2.0" fill="none" stroke="rgb(0, 0, 0)" stroke-opacity="1" stroke-linecap="round" stroke-linejoin="round"/>
    <path d="M -0.2678045332431793 100.34205627441406 C 9.08355712890625 108.0596923828125 -16.33474349975586 96.55229187011719 24.584354400634766 109.08139038085938 C -25.756750106811523 101.50912475585938 -37.702186584472656 100.12833404541016 -38.895381927490234 100.47359466552734" stroke-width="2.0" fill="none" stroke="rgb(0, 0, 0)" stroke-opacity="1" stroke-linecap="round" stroke-linejoin="round"/>
    <path d="M 150.93016052246094 47.99480438232422 C 167.6207733154297 35.65248107910156 138.70018005371094 61.29009246826172 159.0029754638672 45.9358024597168" stroke-width="2.0" fill="none" stroke="rgb(0, 0, 0)" stroke-opacity="1" stroke-linecap="round" stroke-linejoin="round"/>
  </g>
</svg>
