<?xml version="1.0" ?>
<svg xmlns="http://www.w3.org/2000/svg" version="1.1" width="224" height="224">
  <defs/>
  <g>
    <path d="M 95.7163314819336 193.84500122070312 C 88.8669662475586 158.2065887451172 125.65056610107422 183.2742156982422 95.37969970703125 178.2992706298828 C 134.87692260742188 168.6446075439453 144.08518981933594 182.78396606445312 106.44774627685547 182.2930450439453 C 146.35560607910156 168.1993408203125 144.70025634765625 137.103515625 138.2577667236328 157.3190155029297" stroke-width="2.0" fill="none" stroke="rgb(0, 0, 0)" stroke-opacity="1" stroke-linecap="round" stroke-linejoin="round"/>
    <path d="M 7.269628047943115 35.2667121887207 C -2.2511167526245117 10.852463722229004 -0.5397350788116455 4.7759552001953125 20.577707290649414 3.3395934104919434 C 56.13230514526367 -14.124844551086426 75.99308776855469 2.808846950531006 62.275447845458984 -4.523603439331055" stroke-width="2.0" fill="none" stroke="rgb(0, 0, 0)" stroke-opacity="1" stroke-linecap="round" stroke-linejoin="round"/>
    <path d="M 56.43867492675781 183.98974609375 C 70.80259704589844 165.41836547851562 76.09622955322266 203.88876342773438 60.67548370361328 192.8408660888672 C 39.941131591796875 181.6693115234375 60.33914566040039 136.43212890625 64.2436752319336 184.03872680664062" stroke-width="2.0" fill="none" stroke="rgb(0, 0, 0)" stroke-opacity="1" stroke-linecap="round" stroke-linejoin="round"/>
    <path d="M 154.71917724609375 81.88583374023438 C 141.88623046875 120.88848876953125 134.78492736816406 126.34835052490234 122.7827377319336 115.39315032958984" stroke-width="2.0" fill="none" stroke="rgb(0, 0, 0)" stroke-opacity="1" stroke-linecap="round" stroke-linejoin="round"/>
    <path d="M 102.34339904785156 25.9798526763916 C 94.700439453125 -0.8591987490653992 101.79369354248047 8.54037857055664 117.52296447753906 0.9173309803009033 C 134.43994140625 15.114587783813477 133.80828857421875 27.212390899658203 133.2957305908203 12.936853408813477 C 132.1175079345703 32.247108459472656 146.6734161376953 24.069822311401367 150.2519989013672 11.129537582397461" stroke-width="2.0" fill="none" stroke="rgb(0, 0, 0)" stroke-opacity="1" stroke-linecap="round" stroke-linejoin="round"/>
    <path d="M 12.555730819702148 155.21749877929688 C 17.87213897705078 182.04319763183594 -9.531853675842285 146.03421020507812 19.60748291015625 120.55894470214844 C 11.571718215942383 139.93734741210938 8.338643074035645 154.9228973388672 30.017545700073242 165.28927612304688" stroke-width="2.0" fill="none" stroke="rgb(0, 0, 0)" stroke-opacity="1" stroke-linecap="round" stroke-linejoin="round"/>
    <path d="M 212.67625427246094 169.11746215820312 C 194.61843872070312 156.76116943359375 192.94805908203125 147.23214721679688 204.9857940673828 118.95267486572266" stroke-width="2.0" fill="none" stroke="rgb(0, 0, 0)" stroke-opacity="1" stroke-linecap="round" stroke-linejoin="round"/>
    <path d="M -5.803638935089111 77.78408813476562 C -13.732464790344238 77.08312225341797 -10.954222679138184 81.32959747314453 -18.08475112915039 78.47744750976562" stroke-width="2.0" fill="none" stroke="rgb(0, 0, 0)" stroke-opacity="1" stroke-linecap="round" stroke-linejoin="round"/>
    <path d="M 86.77862548828125 23.321117401123047 C 64.53028106689453 24.64776611328125 101.73393249511719 34.454444885253906 83.55699920654297 30.249114990234375" stroke-width="2.0" fill="none" stroke="rgb(0, 0, 0)" stroke-opacity="1" stroke-linecap="round" stroke-linejoin="round"/>
    <path d="M 57.23567581176758 79.53609466552734 C 21.786659240722656 114.04852294921875 32.3802375793457 111.74468994140625 27.229713439941406 110.75801086425781 C 35.41603088378906 85.51537322998047 52.60184097290039 96.5949935913086 35.06985855102539 66.6431884765625" stroke-width="2.0" fill="none" stroke="rgb(0, 0, 0)" stroke-opacity="1" stroke-linecap="round" stroke-linejoin="round"/>
    <path d="M 209.7720947265625 18.263954162597656 C 231.74383544921875 32.92723846435547 217.252685546875 65.01485443115234 226.33518981933594 61.888938903808594 C 239.07708740234375 32.395835876464844 234.64202880859375 24.73989486694336 238.50155639648438 20.298887252807617" stroke-width="2.0" fill="none" stroke="rgb(0, 0, 0)" stroke-opacity="1" stroke-linecap="round" stroke-linejoin="round"/>
    <path d="M 115.74824523925781 70.91851043701172 C 122.03703308105469 64.51962280273438 129.60398864746094 58.10086441040039 112.34297180175781 73.45992279052734 C 125.28801727294922 44.2056884765625 117.82038879394531 51.160709381103516 113.82933044433594 40.51490783691406 C 122.91619873046875 35.94416046142578 114.01719665527344 27.06157112121582 139.9930877685547 18.272327423095703" stroke-width="2.0" fill="none" stroke="rgb(0, 0, 0)" stroke-opacity="1" stroke-linecap="round" stroke-linejoin="round"/>
    <path d="M 172.98223876953125 117.65131378173828 C 164.9020233154297 140.85626220703125 189.3219757080078 142.8307342529297 178.13121032714844 106.7493896484375 C 159.1830596923828 113.55962371826172 154.10638427734375 73.3727798461914 181.20156860351562 72.17364501953125" stroke-width="2.0" fill="none" stroke="rgb(0, 0, 0)" stroke-opacity="1" stroke-linecap="round" stroke-linejoin="round"/>
    <path d="M -9.186893463134766 84.49613189697266 C -8.34013557434082 86.70475769042969 -10.700206756591797 95.32858276367188 -3.5810632705688477 99.79766845703125" stroke-width="2.0" fill="none" stroke="rgb(0, 0, 0)" stroke-opacity="1" stroke-linecap="round" stroke-linejoin="round"/>
    <path d="M 99.77455139160156 63.94273376464844 C 128.30873107910156 72.58585357666016 127.241943359375 83.51216888427734 111.69429779052734 61.22135925292969 C 115.39400482177734 78.67276000976562 110.05342102050781 69.60977172851562 141.82470703125 69.27965545654297 C 127.99120330810547 110.59979248046875 133.2088623046875 103.49791717529297 164.5867462158203 73.58009338378906" stroke-width="2.0" fill="none" stroke="rgb(0, 0, 0)" stroke-opacity="1" stroke-linecap="round" stroke-linejoin="round"/>
    <path d="M 155.19979858398438 124.73310852050781 C 171.06211853027344 102.02740478515625 139.6449737548828 87.03948974609375 144.74476623535156 109.88928985595703 C 144.6901397705078 127.6783447265625 145.6746826171875 104.80445098876953 150.21360778808594 94.34884643554688" stroke-width="2.0" fill="none" stroke="rgb(0, 0, 0)" stroke-opacity="1" stroke-linecap="round" stroke-linejoin="round"/>
    <path d="M 115.90312957763672 87.17738342285156 C 114.39772033691406 87.332763671875 122.96800231933594 88.3065414428711 105.09599304199219 71.7529067993164 C 119.95233917236328 86.84347534179688 109.55712127685547 77.27562713623047 124.62059783935547 75.84021759033203" stroke-width="2.0" fill="none" stroke="rgb(0, 0, 0)" stroke-opacity="1" stroke-linecap="round" stroke-linejoin="round"/>
    <path d="M 165.86038208007812 157.46717834472656 C 199.42332458496094 144.43502807617188 179.68179321289062 157.8131561279297 165.68482971191406 134.4228515625 C 147.45919799804688 151.73080444335938 179.3172149658203 154.41494750976562 182.50079345703125 152.548583984375" stroke-width="2.0" fill="none" stroke="rgb(0, 0, 0)" stroke-opacity="1" stroke-linecap="round" stroke-linejoin="round"/>
    <path d="M 198.5398712158203 141.2121124267578 C 203.96331787109375 174.78379821777344 226.7861785888672 170.76724243164062 210.8879852294922 143.5481414794922 C 208.6031951904297 152.66558837890625 203.32212829589844 197.79443359375 210.81326293945312 163.57322692871094 C 189.28062438964844 164.1223602294922 193.89808654785156 140.7803955078125 203.68186950683594 165.3936767578125" stroke-width="2.0" fill="none" stroke="rgb(0, 0, 0)" stroke-opacity="1" stroke-linecap="round" stroke-linejoin="round"/>
    <path d="M 105.59412384033203 88.48155975341797 C 138.66099548339844 99.51778411865234 100.58660125732422 97.68478393554688 87.6745376586914 84.4822998046875 C 91.53064727783203 94.18586730957031 91.60457611083984 117.7824935913086 85.45674133300781 117.52139282226562" stroke-width="2.0" fill="none" stroke="rgb(0, 0, 0)" stroke-opacity="1" stroke-linecap="round" stroke-linejoin="round"/>
    <path d="M 103.28877258300781 43.66527557373047 C 110.54837036132812 42.48228073120117 109.4220962524414 55.923702239990234 90.45549011230469 47.09153747558594 C 79.82728576660156 45.92436981201172 114.34766387939453 56.88871383666992 116.70063781738281 39.45561599731445" stroke-width="2.0" fill="none" stroke="rgb(0, 0, 0)" stroke-opacity="1" stroke-linecap="round" stroke-linejoin="round"/>
    <path d="M 174.11578369140625 177.3085174560547 C 201.4386444091797 186.95651245117188 177.01467895507812 156.42420959472656 171.16656494140625 156.61074829101562" stroke-width="2.0" fill="none" stroke="rgb(0, 0, 0)" stroke-opacity="1" stroke-linecap="round" stroke-linejoin="round"/>
    <path d="M 139.4864501953125 129.61752319335938 C 134.96409606933594 127.29800415039062 125.75086975097656 136.55763244628906 117.3228988647461 166.92237854003906 C 149.50123596191406 169.58181762695312 151.65882873535156 144.66152954101562 146.40634155273438 129.4545135498047 C 109.62255096435547 137.6145782470703 119.64348602294922 126.46647644042969 114.30950164794922 135.51695251464844" stroke-width="2.0" fill="none" stroke="rgb(0, 0, 0)" stroke-opacity="1" stroke-linecap="round" stroke-linejoin="round"/>
    <path d="M 82.23027801513672 162.0252227783203 C 71.09529876708984 152.32421875 87.06475830078125 154.39724731445312 75.42794036865234 179.80105590820312 C 79.38539123535156 128.79660034179688 89.06127166748047 164.17637634277344 63.07518005371094 170.26385498046875 C 78.07238006591797 195.67201232910156 55.1010856628418 205.51272583007812 48.62704849243164 154.948974609375" stroke-width="2.0" fill="none" stroke="rgb(0, 0, 0)" stroke-opacity="1" stroke-linecap="round" stroke-linejoin="round"/>
    <path d="M 199.871826171875 169.85287475585938 C 209.83761596679688 142.82435607910156 221.0967559814453 150.00741577148438 207.59268188476562 113.27930450439453 C 226.2427978515625 128.54043579101562 212.52639770507812 158.81924438476562 218.1328125 145.27769470214844 C 219.72018432617188 114.95140075683594 198.5671844482422 123.2590560913086 207.2606201171875 116.72374725341797" stroke-width="2.0" fill="none" stroke="rgb(0, 0, 0)" stroke-opacity="1" stroke-linecap="round" stroke-linejoin="round"/>
    <path d="M 185.71368408203125 174.01763916015625 C 168.80551147460938 160.5325164794922 185.24008178710938 161.44442749023438 199.22830200195312 136.21131896972656 C 189.11656188964844 125.94305419921875 185.5997314453125 176.7563934326172 191.34292602539062 166.55067443847656 C 168.91464233398438 141.486572265625 144.63392639160156 157.2227783203125 174.05833435058594 185.9912872314453" stroke-width="2.0" fill="none" stroke="rgb(0, 0, 0)" stroke-opacity="1" stroke-linecap="round" stroke-linejoin="round"/>
    <path d="M 160.33619689941406 180.62295532226562 C 162.76504516601562 141.10658264160156 122.39282989501953 134.11607360839844 123.47205352783203 156.53346252441406 C 100.4855728149414 131.3240509033203 129.04550170898438 127.92268371582031 130.744384765625 121.7085952758789 C 116.37218475341797 126.1197738647461 114.43486022949219 90.05387878417969 108.64864349365234 93.78271484375" stroke-width="2.0" fill="none" stroke="rgb(0, 0, 0)" stroke-opacity="1" stroke-linecap="round" stroke-linejoin="round"/>
    <path d="M 138.35983276367188 173.80946350097656 C 137.31939697265625 143.14193725585938 130.00192260742188 156.40931701660156 143.77088928222656 127.60810089111328 C 113.58795928955078 168.81771850585938 122.55958557128906 184.59396362304688 148.96620178222656 159.0795440673828 C 141.83694458007812 143.79330444335938 157.39822387695312 192.20814514160156 131.0322265625 152.4793701171875" stroke-width="2.0" fill="none" stroke="rgb(0, 0, 0)" stroke-opacity="1" stroke-linecap="round" stroke-linejoin="round"/>
    <path d="M 24.176294326782227 18.585975646972656 C 6.775359630584717 23.51626205444336 1.349643349647522 26.658218383789062 1.6032987833023071 31.505123138427734 C 2.3340368270874023 48.13130569458008 7.247849464416504 45.552886962890625 24.10506248474121 34.71541213989258 C -4.553637981414795 54.1037483215332 5.829888343811035 56.638832092285156 24.770280838012695 58.5531120300293" stroke-width="2.0" fill="none" stroke="rgb(0, 0, 0)" stroke-opacity="1" stroke-linecap="round" stroke-linejoin="round"/>
    <path d="M 93.79546356201172 114.6822509765625 C 76.01441955566406 87.6653060913086 81.45462036132812 113.81083679199219 88.79949951171875 69.33043670654297 C 84.55178833007812 54.47239685058594 78.04236602783203 86.29397583007812 90.21048736572266 110.46562957763672 C 100.34576416015625 112.74183654785156 88.6642837524414 100.69624328613281 89.92320251464844 86.79070281982422" stroke-width="2.0" fill="none" stroke="rgb(0, 0, 0)" stroke-opacity="1" stroke-linecap="round" stroke-linejoin="round"/>
    <path d="M 32.22097396850586 108.96420288085938 C 45.39016342163086 101.58135223388672 35.67707061767578 95.58385467529297 42.51576614379883 103.87297058105469 C 29.938825607299805 88.65752410888672 6.116735935211182 76.30054473876953 31.9161319732666 103.93828582763672" stroke-width="2.0" fill="none" stroke="rgb(0, 0, 0)" stroke-opacity="1" stroke-linecap="round" stroke-linejoin="round"/>
    <path d="M 75.70694732666016 50.10437774658203 C 45.79047393798828 34.361820220947266 36.93906021118164 44.60651779174805 66.42923736572266 53.77959060668945 C 31.054269790649414 66.29151153564453 55.74555206298828 55.20478057861328 82.87635803222656 29.0195255279541" stroke-width="2.0" fill="none" stroke="rgb(0, 0, 0)" stroke-opacity="1" stroke-linecap="round" stroke-linejoin="round"/>
    <path d="M 158.1630859375 19.373098373413086 C 114.93711853027344 4.7049760818481445 119.37728881835938 6.815347194671631 113.82108306884766 17.861190795898438 C 117.62828063964844 -21.367029190063477 104.6777114868164 -34.45493698120117 109.6772689819336 -30.060056686401367" stroke-width="2.0" fill="none" stroke="rgb(0, 0, 0)" stroke-opacity="1" stroke-linecap="round" stroke-linejoin="round"/>
    <path d="M 82.98513793945312 203.6951446533203 C 70.49845123291016 201.8503875732422 73.59866333007812 194.5354766845703 72.88501739501953 178.057861328125 C 47.7401123046875 160.87179565429688 54.48455047607422 201.29061889648438 76.15864562988281 154.44053649902344" stroke-width="2.0" fill="none" stroke="rgb(0, 0, 0)" stroke-opacity="1" stroke-linecap="round" stroke-linejoin="round"/>
    <path d="M 176.50662231445312 70.26934051513672 C 146.6722869873047 69.7101821899414 151.42034912109375 121.85623168945312 156.09780883789062 107.84033203125 C 167.24862670898438 57.51852798461914 134.71990966796875 57.42276382446289 145.4424285888672 92.40235137939453" stroke-width="2.0" fill="none" stroke="rgb(0, 0, 0)" stroke-opacity="1" stroke-linecap="round" stroke-linejoin="round"/>
    <path d="M 195.01954650878906 8.196037292480469 C 220.42904663085938 28.61954116821289 229.30503845214844 12.668869972229004 224.05517578125 -16.241559982299805" stroke-width="2.0" fill="none" stroke="rgb(0, 0, 0)" stroke-opacity="1" stroke-linecap="round" stroke-linejoin="round"/>
    <path d="M 42.71002197265625 25.270801544189453 C 40.41149139404297 6.522642612457275 60.41835021972656 32.92713165283203 35.26673889160156 26.34455680847168" stroke-width="2.0" fill="none" stroke="rgb(0, 0, 0)" stroke-opacity="1" stroke-linecap="round" stroke-linejoin="round"/>
    <path d="M 106.79696655273438 96.39517211914062 C 109.06390380859375 68.49681091308594 111.65914916992188 75.44963073730469 114.13325500488281 89.85523986816406 C 122.42294311523438 98.25830841064453 105.95055389404297 94.28253936767578 102.23753356933594 93.15387725830078 C 105.00607299804688 124.56205749511719 88.13626098632812 84.5894546508789 101.80857849121094 94.3139419555664" stroke-width="2.0" fill="none" stroke="rgb(0, 0, 0)" stroke-opacity="1" stroke-linecap="round" stroke-linejoin="round"/>
    <path d="M 185.70730590820312 154.15469360351562 C 190.67715454101562 169.9976043701172 183.65615844726562 177.0287322998047 186.47132873535156 201.67306518554688 C 182.98077392578125 160.7917022705078 169.3494110107422 201.96002197265625 165.7724151611328 159.1845703125" stroke-width="2.0" fill="none" stroke="rgb(0, 0, 0)" stroke-opacity="1" stroke-linecap="round" stroke-linejoin="round"/>
    <path d="M 16.767059326171875 191.98736572265625 C 12.437960624694824 159.82801818847656 6.1629204750061035 174.52566528320312 17.714614868164062 195.05093383789062" stroke-width="2.0" fill="none" stroke="rgb(0, 0, 0)" stroke-opacity="1" stroke-linecap="round" stroke-linejoin="round"/>
    <path d="M 47.66577911376953 124.48482513427734 C 54.351036071777344 117.9328384399414 78.24864196777344 111.4839096069336 57.891414642333984 144.38595581054688 C 59.5679931640625 119.11022186279297 82.27745819091797 116.5597915649414 71.32060241699219 130.9940643310547 C 79.02272033691406 117.25871276855469 55.7269401550293 113.01251220703125 49.864593505859375 124.86054229736328" stroke-width="2.0" fill="none" stroke="rgb(0, 0, 0)" stroke-opacity="1" stroke-linecap="round" stroke-linejoin="round"/>
    <path d="M 52.65916442871094 201.61001586914062 C 50.05259323120117 213.4945526123047 29.831260681152344 190.02549743652344 44.153167724609375 185.54409790039062" stroke-width="2.0" fill="none" stroke="rgb(0, 0, 0)" stroke-opacity="1" stroke-linecap="round" stroke-linejoin="round"/>
    <path d="M 219.8374786376953 226.04745483398438 C 234.6732940673828 187.548095703125 231.08108520507812 184.90150451660156 230.76107788085938 193.02127075195312" stroke-width="2.0" fill="none" stroke="rgb(0, 0, 0)" stroke-opacity="1" stroke-linecap="round" stroke-linejoin="round"/>
    <path d="M 120.81122589111328 23.802154541015625 C 125.53588104248047 5.7947211265563965 128.2834014892578 32.82852554321289 129.09976196289062 22.86789894104004 C 132.87591552734375 16.144630432128906 126.84720611572266 15.608981132507324 143.99415588378906 42.64400863647461" stroke-width="2.0" fill="none" stroke="rgb(0, 0, 0)" stroke-opacity="1" stroke-linecap="round" stroke-linejoin="round"/>
    <path d="M 129.72244262695312 39.022762298583984 C 103.05075073242188 51.05195617675781 133.486328125 36.91541290283203 132.6212921142578 8.651970863342285 C 121.52149963378906 14.289610862731934 124.45584869384766 52.51982116699219 113.23599243164062 20.1226863861084 C 110.35185241699219 42.03193664550781 101.14822387695312 -4.933150768280029 110.16106414794922 5.710242748260498" stroke-width="2.0" fill="none" stroke="rgb(0, 0, 0)" stroke-opacity="1" stroke-linecap="round" stroke-linejoin="round"/>
    <path d="M 149.54981994628906 108.16523742675781 C 151.75767517089844 123.13414764404297 181.14564514160156 119.31657409667969 160.9842987060547 144.29786682128906 C 175.10914611816406 151.65972900390625 152.37429809570312 147.13523864746094 177.96371459960938 132.47994995117188 C 168.9505615234375 141.5631866455078 146.6822052001953 120.11750793457031 173.96749877929688 111.97602081298828" stroke-width="2.0" fill="none" stroke="rgb(0, 0, 0)" stroke-opacity="1" stroke-linecap="round" stroke-linejoin="round"/>
    <path d="M 175.21432495117188 153.94573974609375 C 160.50308227539062 178.3352508544922 182.7285919189453 168.90255737304688 170.32742309570312 196.061767578125 C 199.79263305664062 148.37652587890625 201.71754455566406 177.39434814453125 188.77284240722656 204.0570831298828" stroke-width="2.0" fill="none" stroke="rgb(0, 0, 0)" stroke-opacity="1" stroke-linecap="round" stroke-linejoin="round"/>
    <path d="M 129.11697387695312 104.09534454345703 C 127.09921264648438 131.92747497558594 133.5821075439453 117.5955581665039 125.14220428466797 126.26239776611328" stroke-width="2.0" fill="none" stroke="rgb(0, 0, 0)" stroke-opacity="1" stroke-linecap="round" stroke-linejoin="round"/>
    <path d="M 192.87594604492188 109.76036834716797 C 159.6387176513672 91.4010238647461 167.13621520996094 81.97565460205078 169.18209838867188 81.77901458740234 C 181.55551147460938 108.99486541748047 202.95350646972656 98.38030242919922 184.3042755126953 118.21682739257812" stroke-width="2.0" fill="none" stroke="rgb(0, 0, 0)" stroke-opacity="1" stroke-linecap="round" stroke-linejoin="round"/>
    <path d="M 171.33255004882812 25.58066177368164 C 163.3114013671875 10.351899147033691 211.79737854003906 3.7084710597991943 175.5435028076172 -0.0858134999871254 C 202.33790588378906 9.324979782104492 225.3040008544922 15.77678108215332 180.1570587158203 8.05435848236084" stroke-width="2.0" fill="none" stroke="rgb(0, 0, 0)" stroke-opacity="1" stroke-linecap="round" stroke-linejoin="round"/>
    <path d="M 89.0169448852539 208.8169403076172 C 114.83670043945312 203.01416015625 108.57496643066406 221.68885803222656 136.02964782714844 216.28579711914062 C 114.46159362792969 216.61624145507812 112.62712097167969 209.31539916992188 108.620361328125 198.00885009765625" stroke-width="2.0" fill="none" stroke="rgb(0, 0, 0)" stroke-opacity="1" stroke-linecap="round" stroke-linejoin="round"/>
    <path d="M 208.76376342773438 146.925048828125 C 228.9904022216797 142.3717041015625 209.10476684570312 127.3407211303711 215.35830688476562 139.32315063476562" stroke-width="2.0" fill="none" stroke="rgb(0, 0, 0)" stroke-opacity="1" stroke-linecap="round" stroke-linejoin="round"/>
    <path d="M 207.53982543945312 234.50148010253906 C 197.3807830810547 231.92153930664062 209.14805603027344 232.43382263183594 235.74253845214844 226.46351623535156 C 215.42193603515625 217.5725860595703 187.9368438720703 224.27963256835938 194.74949645996094 234.48045349121094 C 218.45489501953125 209.34164428710938 230.05128479003906 198.35858154296875 195.07516479492188 220.59014892578125" stroke-width="2.0" fill="none" stroke="rgb(0, 0, 0)" stroke-opacity="1" stroke-linecap="round" stroke-linejoin="round"/>
    <path d="M 171.69003295898438 186.7994842529297 C 159.67266845703125 200.6585693359375 185.1211395263672 182.91184997558594 194.9312286376953 171.77072143554688 C 168.34957885742188 183.75758361816406 177.12750244140625 169.8849639892578 182.63197326660156 191.71234130859375" stroke-width="2.0" fill="none" stroke="rgb(0, 0, 0)" stroke-opacity="1" stroke-linecap="round" stroke-linejoin="round"/>
    <path d="M 74.14613342285156 125.39920043945312 C 73.68032836914062 161.25650024414062 34.097232818603516 158.4359893798828 70.5212173461914 148.29933166503906 C 84.93692016601562 124.95832061767578 54.62981414794922 108.30752563476562 56.0883903503418 148.94003295898438 C 55.22521209716797 126.62946319580078 29.383893966674805 136.5133819580078 43.91114044189453 105.99232482910156" stroke-width="2.0" fill="none" stroke="rgb(0, 0, 0)" stroke-opacity="1" stroke-linecap="round" stroke-linejoin="round"/>
    <path d="M 49.11526107788086 217.80230712890625 C 85.37565612792969 221.0439910888672 92.67263793945312 205.66018676757812 79.3891372680664 215.77796936035156 C 84.13555908203125 212.41517639160156 101.54397583007812 192.1442108154297 73.74639129638672 207.90994262695312 C 46.262107849121094 203.5799102783203 68.24405670166016 199.00035095214844 69.92937469482422 210.0434112548828" stroke-width="2.0" fill="none" stroke="rgb(0, 0, 0)" stroke-opacity="1" stroke-linecap="round" stroke-linejoin="round"/>
    <path d="M 205.31167602539062 205.2845916748047 C 201.27243041992188 195.81983947753906 221.2012939453125 200.19932556152344 218.84112548828125 168.74522399902344" stroke-width="2.0" fill="none" stroke="rgb(0, 0, 0)" stroke-opacity="1" stroke-linecap="round" stroke-linejoin="round"/>
    <path d="M 104.46843719482422 171.676513671875 C 141.69671630859375 203.12257385253906 104.61050415039062 204.46499633789062 126.2733383178711 215.13819885253906 C 111.23833465576172 204.41831970214844 133.35574340820312 187.51022338867188 98.29937744140625 179.7051239013672 C 105.26534271240234 193.55979919433594 132.2751922607422 173.93038940429688 120.52192687988281 160.0664825439453" stroke-width="2.0" fill="none" stroke="rgb(0, 0, 0)" stroke-opacity="1" stroke-linecap="round" stroke-linejoin="round"/>
    <path d="M 100.07435607910156 193.2306671142578 C 114.7239990234375 187.97601318359375 120.83483123779297 209.801025390625 91.04681396484375 201.5674285888672 C 131.76075744628906 212.1815948486328 109.5637435913086 209.47808837890625 90.23273468017578 204.34817504882812" stroke-width="2.0" fill="none" stroke="rgb(0, 0, 0)" stroke-opacity="1" stroke-linecap="round" stroke-linejoin="round"/>
    <path d="M 91.75348663330078 150.6024932861328 C 79.13805389404297 125.9378433227539 81.58392333984375 153.3689727783203 91.15116882324219 127.91376495361328 C 83.44017028808594 136.1206512451172 92.17781829833984 140.4407958984375 87.9384765625 114.11457824707031 C 82.62360382080078 125.057861328125 77.83280944824219 121.59241485595703 87.6966323852539 127.08720397949219" stroke-width="2.0" fill="none" stroke="rgb(0, 0, 0)" stroke-opacity="1" stroke-linecap="round" stroke-linejoin="round"/>
    <path d="M 188.1845703125 48.80418395996094 C 163.7742156982422 23.1314754486084 175.69943237304688 46.04195785522461 174.19386291503906 29.68425750732422 C 190.8095703125 19.03577423095703 201.37745666503906 55.91162109375 154.57540893554688 51.81145095825195" stroke-width="2.0" fill="none" stroke="rgb(0, 0, 0)" stroke-opacity="1" stroke-linecap="round" stroke-linejoin="round"/>
    <path d="M 158.03082275390625 207.9344024658203 C 194.2297821044922 182.27259826660156 178.99227905273438 215.09181213378906 144.49876403808594 206.3932647705078 C 168.35679626464844 220.82728576660156 151.9875946044922 211.17947387695312 147.84683227539062 212.31385803222656 C 162.8807830810547 224.83709716796875 194.79029846191406 212.8596649169922 193.66249084472656 204.11387634277344" stroke-width="2.0" fill="none" stroke="rgb(0, 0, 0)" stroke-opacity="1" stroke-linecap="round" stroke-linejoin="round"/>
    <path d="M 75.63827514648438 13.151092529296875 C 96.1338882446289 2.240347385406494 128.53981018066406 -3.5556821823120117 130.186279296875 7.763932704925537 C 126.99164581298828 20.914093017578125 121.88667297363281 4.2961578369140625 124.8660888671875 -24.39271354675293" stroke-width="2.0" fill="none" stroke="rgb(0, 0, 0)" stroke-opacity="1" stroke-linecap="round" stroke-linejoin="round"/>
    <path d="M 195.24777221679688 104.03938293457031 C 189.0628662109375 75.13304138183594 202.9386749267578 93.06871795654297 207.33688354492188 105.55754089355469 C 201.47024536132812 73.34457397460938 180.27976989746094 76.95243072509766 191.60470581054688 139.92266845703125" stroke-width="2.0" fill="none" stroke="rgb(0, 0, 0)" stroke-opacity="1" stroke-linecap="round" stroke-linejoin="round"/>
    <path d="M 22.78369140625 130.22463989257812 C 38.749176025390625 153.12442016601562 59.92014694213867 188.15647888183594 24.020511627197266 177.96844482421875" stroke-width="2.0" fill="none" stroke="rgb(0, 0, 0)" stroke-opacity="1" stroke-linecap="round" stroke-linejoin="round"/>
    <path d="M 207.43307495117188 107.54558563232422 C 186.79107666015625 128.44033813476562 210.71807861328125 111.1974868774414 203.60304260253906 97.84496307373047" stroke-width="2.0" fill="none" stroke="rgb(0, 0, 0)" stroke-opacity="1" stroke-linecap="round" stroke-linejoin="round"/>
    <path d="M 128.3131103515625 44.280677795410156 C 114.18274688720703 51.33246994018555 113.37751007080078 47.795188903808594 114.21964263916016 45.21805191040039 C 107.39093780517578 28.689334869384766 112.3926010131836 39.610172271728516 121.11127471923828 48.326175689697266 C 114.14134979248047 79.61517333984375 100.62859344482422 70.70904541015625 94.90843963623047 26.358448028564453" stroke-width="2.0" fill="none" stroke="rgb(0, 0, 0)" stroke-opacity="1" stroke-linecap="round" stroke-linejoin="round"/>
    <path d="M 62.46333312988281 100.09386444091797 C 83.71849060058594 84.31947326660156 77.58768463134766 82.68145751953125 70.43569946289062 71.74604034423828 C 88.42105102539062 108.03353881835938 105.23251342773438 90.32661437988281 86.38191223144531 70.06057739257812" stroke-width="2.0" fill="none" stroke="rgb(0, 0, 0)" stroke-opacity="1" stroke-linecap="round" stroke-linejoin="round"/>
    <path d="M 199.9578094482422 117.14839935302734 C 209.67031860351562 85.21206665039062 193.5808868408203 109.81227111816406 202.6814422607422 91.98065185546875 C 223.9979248046875 122.40799713134766 203.4128875732422 116.5047607421875 190.16030883789062 133.1421356201172" stroke-width="2.0" fill="none" stroke="rgb(0, 0, 0)" stroke-opacity="1" stroke-linecap="round" stroke-linejoin="round"/>
    <path d="M 160.9125213623047 177.6451873779297 C 147.04269409179688 136.79989624023438 129.9839630126953 137.74566650390625 161.93814086914062 170.19122314453125 C 159.42498779296875 147.7881317138672 195.51988220214844 170.4219207763672 195.25721740722656 139.6720733642578" stroke-width="2.0" fill="none" stroke="rgb(0, 0, 0)" stroke-opacity="1" stroke-linecap="round" stroke-linejoin="round"/>
    <path d="M 107.65861511230469 20.030241012573242 C 92.2772216796875 38.36381530761719 114.17804718017578 58.145530700683594 114.73245239257812 -4.08003568649292 C 63.27996063232422 -6.369146347045898 97.59966278076172 1.004710078239441 78.00732421875 22.63614845275879" stroke-width="2.0" fill="none" stroke="rgb(0, 0, 0)" stroke-opacity="1" stroke-linecap="round" stroke-linejoin="round"/>
    <path d="M 70.60265350341797 25.76487922668457 C 42.97329330444336 27.50155258178711 55.53934097290039 -10.975004196166992 72.19369506835938 25.506086349487305" stroke-width="2.0" fill="none" stroke="rgb(0, 0, 0)" stroke-opacity="1" stroke-linecap="round" stroke-linejoin="round"/>
    <path d="M 0.15095658600330353 47.935272216796875 C 6.432034969329834 111.40167999267578 -17.668458938598633 112.52498626708984 -16.035730361938477 131.2099151611328" stroke-width="2.0" fill="none" stroke="rgb(0, 0, 0)" stroke-opacity="1" stroke-linecap="round" stroke-linejoin="round"/>
    <path d="M 11.08774471282959 98.2055435180664 C 41.76346969604492 103.68870544433594 31.843671798706055 95.71154022216797 21.090486526489258 140.94696044921875 C 15.276589393615723 120.1817855834961 36.6683349609375 94.41226196289062 40.18268585205078 102.7370834350586 C 21.20452880859375 94.25682067871094 -9.724189758300781 76.29151916503906 9.649992942810059 123.05963134765625" stroke-width="2.0" fill="none" stroke="rgb(0, 0, 0)" stroke-opacity="1" stroke-linecap="round" stroke-linejoin="round"/>
    <path d="M 108.43899536132812 97.42428588867188 C 106.09722137451172 78.17759704589844 89.45115661621094 85.2440414428711 95.30200958251953 90.36689758300781 C 102.04871368408203 94.26287078857422 99.2899169921875 83.39140319824219 88.53214263916016 106.8670654296875" stroke-width="2.0" fill="none" stroke="rgb(0, 0, 0)" stroke-opacity="1" stroke-linecap="round" stroke-linejoin="round"/>
    <path d="M 23.18128776550293 23.34046173095703 C -15.425302505493164 20.586347579956055 -15.67201042175293 29.26023292541504 -6.310791015625 1.801308274269104" stroke-width="2.0" fill="none" stroke="rgb(0, 0, 0)" stroke-opacity="1" stroke-linecap="round" stroke-linejoin="round"/>
    <path d="M 59.12104797363281 86.99195098876953 C 76.53377532958984 67.49229431152344 27.407062530517578 61.95720672607422 72.28378295898438 66.48322296142578 C 82.90542602539062 117.02766418457031 53.748451232910156 88.34395599365234 74.53934478759766 96.01461791992188" stroke-width="2.0" fill="none" stroke="rgb(0, 0, 0)" stroke-opacity="1" stroke-linecap="round" stroke-linejoin="round"/>
    <path d="M 120.85750579833984 145.97007751464844 C 162.8401336669922 129.6038055419922 146.65289306640625 119.43856048583984 118.00637817382812 131.1958465576172 C 140.45655822753906 113.38987731933594 160.27828979492188 123.84970092773438 149.19239807128906 155.50946044921875 C 152.98828125 156.00807189941406 113.46705627441406 139.5290985107422 144.5309295654297 130.48239135742188" stroke-width="2.0" fill="none" stroke="rgb(0, 0, 0)" stroke-opacity="1" stroke-linecap="round" stroke-linejoin="round"/>
    <path d="M 24.552688598632812 229.04852294921875 C 16.222074508666992 229.2917022705078 5.948851585388184 226.9377899169922 2.068453550338745 238.24940490722656 C 3.7126529216766357 234.46197509765625 -5.693672180175781 233.58935546875 -11.313446044921875 232.16285705566406 C -22.26870346069336 222.91696166992188 -25.763355255126953 221.83021545410156 -29.56840705871582 216.02867126464844" stroke-width="2.0" fill="none" stroke="rgb(0, 0, 0)" stroke-opacity="1" stroke-linecap="round" stroke-linejoin="round"/>
    <path d="M 101.3456802368164 50.511260986328125 C 102.99232482910156 45.66712188720703 93.52903747558594 50.32221603393555 106.75608825683594 37.70673370361328 C 101.48046112060547 36.82027816772461 108.31257629394531 50.43156814575195 85.55789184570312 22.06173324584961 C 87.13550567626953 36.022220611572266 104.22853088378906 53.769371032714844 98.60157012939453 44.58612060546875" stroke-width="2.0" fill="none" stroke="rgb(0, 0, 0)" stroke-opacity="1" stroke-linecap="round" stroke-linejoin="round"/>
    <path d="M 51.84455871582031 141.8710174560547 C 41.53242874145508 123.45201873779297 46.75776672363281 113.9250717163086 65.70991516113281 115.23086547851562 C 90.55467224121094 124.46159362792969 72.95700073242188 133.7816162109375 50.133670806884766 110.1214599609375 C 82.19548034667969 119.888671875 60.69676971435547 86.48764038085938 76.5508041381836 101.41484832763672" stroke-width="2.0" fill="none" stroke="rgb(0, 0, 0)" stroke-opacity="1" stroke-linecap="round" stroke-linejoin="round"/>
    <path d="M 86.38823699951172 164.80296325683594 C 78.95768737792969 148.7753448486328 66.86825561523438 149.53829956054688 71.28890228271484 139.1365509033203 C 70.74536895751953 128.42579650878906 66.54280853271484 119.29552459716797 87.92770385742188 137.81838989257812" stroke-width="2.0" fill="none" stroke="rgb(0, 0, 0)" stroke-opacity="1" stroke-linecap="round" stroke-linejoin="round"/>
    <path d="M 51.90439987182617 75.7467269897461 C 48.51786422729492 63.32872772216797 72.87007141113281 74.54303741455078 50.879371643066406 103.74237823486328 C 58.83426284790039 79.6944808959961 66.48795318603516 71.31805419921875 44.7586669921875 91.80868530273438 C 59.95151138305664 68.41656494140625 49.511478424072266 78.87512969970703 30.415267944335938 126.16190338134766" stroke-width="2.0" fill="none" stroke="rgb(0, 0, 0)" stroke-opacity="1" stroke-linecap="round" stroke-linejoin="round"/>
    <path d="M 181.57521057128906 22.44508171081543 C 138.08924865722656 38.535606384277344 199.72711181640625 25.44855499267578 175.86903381347656 10.847920417785645" stroke-width="2.0" fill="none" stroke="rgb(0, 0, 0)" stroke-opacity="1" stroke-linecap="round" stroke-linejoin="round"/>
    <path d="M 80.61360931396484 22.46377182006836 C 66.68646240234375 -12.286416053771973 93.28033447265625 11.427793502807617 119.73839569091797 10.255139350891113" stroke-width="2.0" fill="none" stroke="rgb(0, 0, 0)" stroke-opacity="1" stroke-linecap="round" stroke-linejoin="round"/>
    <path d="M 78.62877655029297 91.67193603515625 C 81.03605651855469 109.99120330810547 71.22433471679688 111.55044555664062 60.81045913696289 99.22380065917969 C 68.08909606933594 65.17449188232422 42.46626663208008 78.36111450195312 41.94410705566406 100.34481048583984 C 55.31515121459961 74.6756591796875 62.29215621948242 69.28585815429688 40.644859313964844 105.34302520751953" stroke-width="2.0" fill="none" stroke="rgb(0, 0, 0)" stroke-opacity="1" stroke-linecap="round" stroke-linejoin="round"/>
    <path d="M 73.1794204711914 147.74771118164062 C 92.11460876464844 176.44076538085938 74.92326354980469 191.42088317871094 60.31419372558594 171.39935302734375" stroke-width="2.0" fill="none" stroke="rgb(0, 0, 0)" stroke-opacity="1" stroke-linecap="round" stroke-linejoin="round"/>
    <path d="M -15.523161888122559 3.485426664352417 C 12.689909934997559 -0.5877442955970764 39.00127410888672 4.578962326049805 64.37377166748047 -4.835444927215576" stroke-width="2.0" fill="none" stroke="rgb(0, 0, 0)" stroke-opacity="1" stroke-linecap="round" stroke-linejoin="round"/>
    <path d="M 72.49176788330078 140.51727294921875 C 66.10684967041016 120.29132843017578 69.13668060302734 120.64159393310547 49.03056335449219 116.02417755126953 C 72.27734375 107.72603607177734 40.79755401611328 124.4339828491211 47.094032287597656 119.93730163574219 C 44.816585540771484 110.45555877685547 88.31670379638672 103.54093170166016 71.18951416015625 104.43040466308594" stroke-width="2.0" fill="none" stroke="rgb(0, 0, 0)" stroke-opacity="1" stroke-linecap="round" stroke-linejoin="round"/>
    <path d="M 27.20783805847168 177.0514678955078 C 36.934207916259766 161.59829711914062 7.982302665710449 157.76210021972656 13.022225379943848 162.5443572998047 C 42.4237174987793 178.1263427734375 52.23817443847656 182.98207092285156 27.592947006225586 145.9850311279297" stroke-width="2.0" fill="none" stroke="rgb(0, 0, 0)" stroke-opacity="1" stroke-linecap="round" stroke-linejoin="round"/>
    <path d="M 73.0544204711914 38.31621551513672 C 61.711483001708984 35.03969192504883 77.34635925292969 28.198196411132812 83.07443237304688 37.46073913574219 C 81.68580627441406 35.08404541015625 63.9882698059082 15.069067001342773 76.12359619140625 5.178371906280518 C 95.45755004882812 13.136353492736816 106.7942886352539 29.40913963317871 101.2343978881836 44.652896881103516" stroke-width="2.0" fill="none" stroke="rgb(0, 0, 0)" stroke-opacity="1" stroke-linecap="round" stroke-linejoin="round"/>
    <path d="M 62.79826354980469 41.506717681884766 C 80.44175720214844 41.1546745300293 95.81553649902344 51.751853942871094 113.66171264648438 81.65290832519531 C 116.34339904785156 60.37522506713867 106.41495513916016 45.57047653198242 95.71280670166016 51.390750885009766" stroke-width="2.0" fill="none" stroke="rgb(0, 0, 0)" stroke-opacity="1" stroke-linecap="round" stroke-linejoin="round"/>
    <path d="M 137.65867614746094 49.231048583984375 C 111.91102600097656 63.521400451660156 115.04898834228516 81.89021301269531 115.20263671875 40.43381881713867 C 116.92586517333984 54.3492317199707 119.86126708984375 51.52775192260742 93.95960998535156 41.1842041015625" stroke-width="2.0" fill="none" stroke="rgb(0, 0, 0)" stroke-opacity="1" stroke-linecap="round" stroke-linejoin="round"/>
    <path d="M 20.80486488342285 116.04202270507812 C 41.28627014160156 101.8739013671875 34.96649932861328 103.74954223632812 54.50489807128906 82.70225524902344 C 41.37968063354492 117.69952392578125 37.15345764160156 117.09683990478516 18.957735061645508 96.7172622680664" stroke-width="2.0" fill="none" stroke="rgb(0, 0, 0)" stroke-opacity="1" stroke-linecap="round" stroke-linejoin="round"/>
    <path d="M 36.08223342895508 216.1460723876953 C 21.280433654785156 206.89523315429688 -6.089086055755615 208.3212127685547 23.988706588745117 205.86758422851562 C 33.86042022705078 199.85134887695312 20.657621383666992 217.6869659423828 72.64520263671875 226.3649139404297" stroke-width="2.0" fill="none" stroke="rgb(0, 0, 0)" stroke-opacity="1" stroke-linecap="round" stroke-linejoin="round"/>
    <path d="M 147.14556884765625 104.36431884765625 C 149.25257873535156 128.3874053955078 142.7420196533203 115.85147094726562 162.4805908203125 81.53956604003906" stroke-width="2.0" fill="none" stroke="rgb(0, 0, 0)" stroke-opacity="1" stroke-linecap="round" stroke-linejoin="round"/>
    <path d="M 142.8328094482422 218.83653259277344 C 100.36502838134766 231.46881103515625 146.47564697265625 218.08692932128906 148.01644897460938 224.1582489013672" stroke-width="2.0" fill="none" stroke="rgb(0, 0, 0)" stroke-opacity="1" stroke-linecap="round" stroke-linejoin="round"/>
    <path d="M 194.53086853027344 109.79647827148438 C 176.67762756347656 123.15714263916016 207.433837890625 143.9470977783203 204.15516662597656 141.539306640625" stroke-width="2.0" fill="none" stroke="rgb(0, 0, 0)" stroke-opacity="1" stroke-linecap="round" stroke-linejoin="round"/>
    <path d="M -4.315184593200684 150.669189453125 C -0.8173239827156067 125.41069793701172 -6.037664890289307 128.84814453125 -6.575355529785156 131.67225646972656 C -8.87567138671875 137.91375732421875 -4.851568698883057 129.83755493164062 -14.768885612487793 135.26971435546875" stroke-width="2.0" fill="none" stroke="rgb(0, 0, 0)" stroke-opacity="1" stroke-linecap="round" stroke-linejoin="round"/>
    <path d="M 77.9094467163086 95.66944122314453 C 97.54342651367188 80.6658706665039 102.40298461914062 61.76386260986328 89.57463073730469 88.9858169555664" stroke-width="2.0" fill="none" stroke="rgb(0, 0, 0)" stroke-opacity="1" stroke-linecap="round" stroke-linejoin="round"/>
    <path d="M 195.58323669433594 233.18653869628906 C 163.0231170654297 235.13699340820312 183.62193298339844 230.0998992919922 210.1470184326172 219.7743682861328 C 225.86927795410156 233.99530029296875 213.27783203125 209.84393310546875 207.43572998046875 217.71084594726562 C 171.542236328125 223.52272033691406 133.52212524414062 224.35385131835938 178.97921752929688 236.4263916015625" stroke-width="2.0" fill="none" stroke="rgb(0, 0, 0)" stroke-opacity="1" stroke-linecap="round" stroke-linejoin="round"/>
    <path d="M 112.9782943725586 40.226768493652344 C 103.13250732421875 38.47964096069336 91.52532958984375 42.341880798339844 113.04290008544922 10.754340171813965 C 88.30345916748047 -2.7644355297088623 91.04240417480469 4.581053733825684 104.01563262939453 39.71077346801758 C 117.6537857055664 24.770977020263672 95.07673645019531 14.97227954864502 95.2752914428711 8.37264633178711" stroke-width="2.0" fill="none" stroke="rgb(0, 0, 0)" stroke-opacity="1" stroke-linecap="round" stroke-linejoin="round"/>
    <path d="M 174.30242919921875 79.357421875 C 177.3394775390625 68.84424591064453 191.3302459716797 88.8668441772461 184.8874969482422 88.95368957519531 C 185.2089385986328 70.80530548095703 199.68927001953125 86.20053100585938 202.92628479003906 38.69431686401367" stroke-width="2.0" fill="none" stroke="rgb(0, 0, 0)" stroke-opacity="1" stroke-linecap="round" stroke-linejoin="round"/>
    <path d="M 225.32418823242188 198.1040802001953 C 215.52749633789062 186.81442260742188 234.25442504882812 167.5735321044922 230.31146240234375 146.59039306640625 C 231.24423217773438 181.49472045898438 230.54978942871094 182.3179168701172 231.95748901367188 182.6062469482422 C 224.39736938476562 188.75755310058594 235.10423278808594 181.00506591796875 232.39825439453125 187.6935577392578" stroke-width="2.0" fill="none" stroke="rgb(0, 0, 0)" stroke-opacity="1" stroke-linecap="round" stroke-linejoin="round"/>
    <path d="M 119.23527526855469 81.70352172851562 C 107.4934310913086 62.456817626953125 118.07404327392578 66.03630065917969 97.66360473632812 74.51520538330078 C 103.05033111572266 70.47450256347656 121.64376831054688 72.59186553955078 112.79276275634766 81.33914947509766" stroke-width="2.0" fill="none" stroke="rgb(0, 0, 0)" stroke-opacity="1" stroke-linecap="round" stroke-linejoin="round"/>
    <path d="M 30.602643966674805 186.9075469970703 C 16.372554779052734 203.5360107421875 39.24165725708008 192.85699462890625 16.52629280090332 188.92596435546875" stroke-width="2.0" fill="none" stroke="rgb(0, 0, 0)" stroke-opacity="1" stroke-linecap="round" stroke-linejoin="round"/>
    <path d="M 205.90406799316406 21.20684051513672 C 184.0638427734375 38.352195739746094 176.3744354248047 47.1277961730957 201.90380859375 65.54436492919922" stroke-width="2.0" fill="none" stroke="rgb(0, 0, 0)" stroke-opacity="1" stroke-linecap="round" stroke-linejoin="round"/>
    <path d="M 210.4371337890625 141.23033142089844 C 167.4686279296875 112.7217788696289 172.48641967773438 111.565673828125 191.6513671875 144.6137237548828 C 209.90423583984375 100.4791259765625 195.75335693359375 129.9172821044922 194.66293334960938 124.06568908691406 C 162.3017578125 77.30233764648438 183.29885864257812 64.80615997314453 192.38888549804688 114.93011474609375" stroke-width="2.0" fill="none" stroke="rgb(0, 0, 0)" stroke-opacity="1" stroke-linecap="round" stroke-linejoin="round"/>
    <path d="M 20.332006454467773 71.56945037841797 C 47.943241119384766 75.82646179199219 33.72331237792969 75.35222625732422 17.860679626464844 70.96404266357422 C 48.65341567993164 75.6042251586914 49.003631591796875 63.91072082519531 33.303951263427734 67.5423583984375" stroke-width="2.0" fill="none" stroke="rgb(0, 0, 0)" stroke-opacity="1" stroke-linecap="round" stroke-linejoin="round"/>
    <path d="M 37.25676727294922 176.74497985839844 C 44.02726745605469 145.72720336914062 9.871058464050293 156.6309051513672 9.630416870117188 161.02981567382812" stroke-width="2.0" fill="none" stroke="rgb(0, 0, 0)" stroke-opacity="1" stroke-linecap="round" stroke-linejoin="round"/>
    <path d="M 203.42605590820312 95.02395629882812 C 204.20376586914062 91.3132095336914 223.9684295654297 84.59342956542969 194.30494689941406 65.86448669433594" stroke-width="2.0" fill="none" stroke="rgb(0, 0, 0)" stroke-opacity="1" stroke-linecap="round" stroke-linejoin="round"/>
    <path d="M 111.17233276367188 141.97750854492188 C 93.60050964355469 133.64381408691406 103.72956085205078 138.41807556152344 125.52554321289062 124.15717315673828" stroke-width="2.0" fill="none" stroke="rgb(0, 0, 0)" stroke-opacity="1" stroke-linecap="round" stroke-linejoin="round"/>
    <path d="M 123.82359313964844 185.41729736328125 C 121.50225830078125 145.95394897460938 165.17735290527344 177.45436096191406 152.6000518798828 195.08705139160156" stroke-width="2.0" fill="none" stroke="rgb(0, 0, 0)" stroke-opacity="1" stroke-linecap="round" stroke-linejoin="round"/>
    <path d="M 83.94204711914062 73.92447662353516 C 84.29049682617188 83.01255798339844 105.3675537109375 95.30123138427734 92.61698150634766 96.97755432128906 C 90.94841003417969 98.68717956542969 81.32028198242188 150.10076904296875 81.9300765991211 129.82931518554688 C 90.82569122314453 156.21646118164062 76.35985565185547 143.7895965576172 94.873779296875 127.35655212402344" stroke-width="2.0" fill="none" stroke="rgb(0, 0, 0)" stroke-opacity="1" stroke-linecap="round" stroke-linejoin="round"/>
    <path d="M 50.697044372558594 103.9709243774414 C 45.97251892089844 162.3714141845703 48.91602325439453 158.22787475585938 71.56639862060547 119.25090789794922" stroke-width="2.0" fill="none" stroke="rgb(0, 0, 0)" stroke-opacity="1" stroke-linecap="round" stroke-linejoin="round"/>
    <path d="M 136.8360137939453 213.9009552001953 C 168.85658264160156 201.64053344726562 156.730224609375 214.748046875 145.72096252441406 207.7818145751953" stroke-width="2.0" fill="none" stroke="rgb(0, 0, 0)" stroke-opacity="1" stroke-linecap="round" stroke-linejoin="round"/>
    <path d="M 83.28569030761719 212.60118103027344 C 98.32582092285156 194.7596893310547 65.78583526611328 216.41221618652344 42.77951431274414 207.63197326660156 C 30.210163116455078 191.8034210205078 34.092811584472656 202.27870178222656 51.70418930053711 202.10691833496094 C 17.949987411499023 189.2641143798828 45.01790237426758 184.13084411621094 35.5788459777832 200.91098022460938" stroke-width="2.0" fill="none" stroke="rgb(0, 0, 0)" stroke-opacity="1" stroke-linecap="round" stroke-linejoin="round"/>
    <path d="M 165.170166015625 137.9116668701172 C 165.3680877685547 85.13441467285156 192.1555633544922 96.29235076904297 152.70445251464844 119.47921752929688 C 158.8327178955078 124.9446029663086 173.5642547607422 126.49553680419922 155.80604553222656 90.27230072021484 C 163.21810913085938 110.58948516845703 175.25587463378906 111.34383392333984 156.81300354003906 126.5333251953125" stroke-width="2.0" fill="none" stroke="rgb(0, 0, 0)" stroke-opacity="1" stroke-linecap="round" stroke-linejoin="round"/>
    <path d="M 3.307482957839966 179.35484313964844 C 6.175625801086426 226.11203002929688 29.560083389282227 215.33773803710938 23.707847595214844 207.11866760253906 C 39.534263610839844 212.45957946777344 20.50453758239746 213.86843872070312 -1.376171588897705 191.7158966064453 C 1.8451206684112549 248.77035522460938 16.64581871032715 248.90907287597656 -0.38387331366539 205.19200134277344" stroke-width="2.0" fill="none" stroke="rgb(0, 0, 0)" stroke-opacity="1" stroke-linecap="round" stroke-linejoin="round"/>
    <path d="M 90.4806137084961 124.61798095703125 C 77.58973693847656 127.1294174194336 72.18782806396484 142.70034790039062 92.26171875 125.05265045166016" stroke-width="2.0" fill="none" stroke="rgb(0, 0, 0)" stroke-opacity="1" stroke-linecap="round" stroke-linejoin="round"/>
    <path d="M 52.65041732788086 67.92646789550781 C 41.000064849853516 84.78462982177734 44.12190628051758 36.60538864135742 70.31793975830078 62.87377166748047 C 82.42989349365234 61.033782958984375 75.57198333740234 55.396827697753906 66.5296630859375 46.854736328125 C 85.36263275146484 38.55313491821289 85.2320556640625 49.08682632446289 65.69168090820312 38.42966842651367" stroke-width="2.0" fill="none" stroke="rgb(0, 0, 0)" stroke-opacity="1" stroke-linecap="round" stroke-linejoin="round"/>
    <path d="M 142.95803833007812 15.052492141723633 C 122.58695983886719 8.099874496459961 109.29206085205078 5.97068452835083 133.36941528320312 12.215892791748047 C 117.05415344238281 -0.3367762267589569 87.76294708251953 1.4895204305648804 101.88160705566406 18.21778678894043 C 137.54608154296875 -3.7533321380615234 151.0030517578125 -10.95919418334961 146.92965698242188 -10.84404468536377" stroke-width="2.0" fill="none" stroke="rgb(0, 0, 0)" stroke-opacity="1" stroke-linecap="round" stroke-linejoin="round"/>
    <path d="M 42.861549377441406 96.80671691894531 C 40.34612274169922 89.51055908203125 25.644001007080078 104.34200286865234 14.461404800415039 96.77046966552734 C 27.330894470214844 96.54020690917969 23.05670738220215 101.458251953125 24.905372619628906 93.58154296875" stroke-width="2.0" fill="none" stroke="rgb(0, 0, 0)" stroke-opacity="1" stroke-linecap="round" stroke-linejoin="round"/>
    <path d="M 163.30685424804688 180.31317138671875 C 160.57664489746094 200.66665649414062 143.32528686523438 205.71441650390625 143.40985107421875 190.81382751464844" stroke-width="2.0" fill="none" stroke="rgb(0, 0, 0)" stroke-opacity="1" stroke-linecap="round" stroke-linejoin="round"/>
    <path d="M 23.73736572265625 187.48629760742188 C 59.14369583129883 179.52691650390625 10.987585067749023 186.1811981201172 36.974491119384766 210.52365112304688" stroke-width="2.0" fill="none" stroke="rgb(0, 0, 0)" stroke-opacity="1" stroke-linecap="round" stroke-linejoin="round"/>
    <path d="M 27.235042572021484 28.633262634277344 C 32.78582763671875 -4.6893134117126465 10.422164916992188 27.321670532226562 22.037004470825195 33.407386779785156 C 3.759049654006958 55.82381820678711 20.551218032836914 47.54551696777344 31.623056411743164 53.2018928527832" stroke-width="2.0" fill="none" stroke="rgb(0, 0, 0)" stroke-opacity="1" stroke-linecap="round" stroke-linejoin="round"/>
    <path d="M 111.13855743408203 102.25037384033203 C 95.5542984008789 81.88432312011719 70.5919189453125 86.7445068359375 77.1897201538086 100.92166137695312 C 95.4111099243164 97.32439422607422 92.55276489257812 103.4376449584961 91.59721374511719 104.20999908447266 C 101.39456176757812 100.78887176513672 108.70452117919922 85.82715606689453 114.88116455078125 101.01461791992188" stroke-width="2.0" fill="none" stroke="rgb(0, 0, 0)" stroke-opacity="1" stroke-linecap="round" stroke-linejoin="round"/>
    <path d="M 157.73048400878906 13.879440307617188 C 158.122802734375 -6.2375969886779785 176.49220275878906 15.685647010803223 182.65322875976562 16.74169158935547 C 155.13265991210938 2.1983468532562256 181.32406616210938 3.8246326446533203 192.39816284179688 -7.064170837402344" stroke-width="2.0" fill="none" stroke="rgb(0, 0, 0)" stroke-opacity="1" stroke-linecap="round" stroke-linejoin="round"/>
    <path d="M 203.60862731933594 15.738468170166016 C 192.65386962890625 34.54560470581055 205.57223510742188 18.275651931762695 194.74778747558594 25.919239044189453" stroke-width="2.0" fill="none" stroke="rgb(0, 0, 0)" stroke-opacity="1" stroke-linecap="round" stroke-linejoin="round"/>
    <path d="M 110.83563995361328 212.39224243164062 C 103.40045928955078 184.3065185546875 97.75748443603516 215.7714080810547 76.63819885253906 211.7109832763672 C 102.78114318847656 210.06906127929688 83.25839233398438 186.28489685058594 79.0140151977539 208.1031494140625 C 104.15702819824219 208.3675079345703 67.26939392089844 177.78346252441406 86.0229721069336 201.8712921142578" stroke-width="2.0" fill="none" stroke="rgb(0, 0, 0)" stroke-opacity="1" stroke-linecap="round" stroke-linejoin="round"/>
    <path d="M 171.67564392089844 55.48047637939453 C 197.94873046875 41.832672119140625 220.12745666503906 41.92559814453125 202.58734130859375 44.04001235961914 C 224.18777465820312 56.73731231689453 218.86080932617188 66.85018157958984 223.85870361328125 88.32942962646484 C 232.36341857910156 73.4726333618164 229.95533752441406 83.3656234741211 229.60537719726562 80.38987731933594" stroke-width="2.0" fill="none" stroke="rgb(0, 0, 0)" stroke-opacity="1" stroke-linecap="round" stroke-linejoin="round"/>
    <path d="M 81.47015380859375 90.45719146728516 C 62.86892318725586 124.24579620361328 63.33367156982422 76.04350280761719 61.935489654541016 100.91649627685547" stroke-width="2.0" fill="none" stroke="rgb(0, 0, 0)" stroke-opacity="1" stroke-linecap="round" stroke-linejoin="round"/>
    <path d="M 82.84257507324219 203.06451416015625 C 69.4114761352539 196.1657257080078 78.33505249023438 177.5986785888672 78.08672332763672 180.27882385253906" stroke-width="2.0" fill="none" stroke="rgb(0, 0, 0)" stroke-opacity="1" stroke-linecap="round" stroke-linejoin="round"/>
    <path d="M 31.410749435424805 34.63619613647461 C 39.55307388305664 -6.19132137298584 46.62993240356445 14.598284721374512 58.68783187866211 28.340543746948242" stroke-width="2.0" fill="none" stroke="rgb(0, 0, 0)" stroke-opacity="1" stroke-linecap="round" stroke-linejoin="round"/>
    <path d="M 135.31243896484375 210.1488800048828 C 178.9545135498047 215.3522491455078 178.09716796875 219.7962646484375 173.43846130371094 208.02294921875 C 194.47862243652344 221.66848754882812 221.88323974609375 214.0146026611328 171.44424438476562 230.85557556152344 C 176.2456512451172 230.6031951904297 193.63243103027344 229.7926483154297 181.5000457763672 228.40887451171875" stroke-width="2.0" fill="none" stroke="rgb(0, 0, 0)" stroke-opacity="1" stroke-linecap="round" stroke-linejoin="round"/>
    <path d="M 194.10488891601562 31.412612915039062 C 170.25848388671875 14.584426879882812 183.86563110351562 5.924394130706787 198.6190185546875 34.23970031738281 C 187.82566833496094 62.09492874145508 175.1179962158203 48.03948974609375 192.66624450683594 6.484120845794678" stroke-width="2.0" fill="none" stroke="rgb(0, 0, 0)" stroke-opacity="1" stroke-linecap="round" stroke-linejoin="round"/>
    <path d="M 173.79547119140625 33.88442611694336 C 144.84054565429688 42.114601135253906 148.07742309570312 73.83106231689453 178.8937530517578 51.316280364990234 C 186.89173889160156 82.39586639404297 178.02969360351562 78.79808044433594 188.7210693359375 48.17001724243164" stroke-width="2.0" fill="none" stroke="rgb(0, 0, 0)" stroke-opacity="1" stroke-linecap="round" stroke-linejoin="round"/>
    <path d="M 185.45396423339844 146.2946014404297 C 187.60227966308594 96.65789794921875 183.85617065429688 110.5742416381836 182.9478302001953 149.1074981689453" stroke-width="2.0" fill="none" stroke="rgb(0, 0, 0)" stroke-opacity="1" stroke-linecap="round" stroke-linejoin="round"/>
    <path d="M 183.9337615966797 141.00881958007812 C 181.2058868408203 154.9066162109375 155.4136962890625 134.90548706054688 170.7625732421875 148.843994140625" stroke-width="2.0" fill="none" stroke="rgb(0, 0, 0)" stroke-opacity="1" stroke-linecap="round" stroke-linejoin="round"/>
    <path d="M 149.01376342773438 55.0911979675293 C 128.09669494628906 49.77242660522461 105.17371368408203 49.74241256713867 117.03244018554688 38.787353515625 C 119.41477966308594 35.26115036010742 111.74005126953125 45.10317611694336 115.0162353515625 46.86620330810547 C 111.88617706298828 47.38294982910156 116.15716552734375 36.205509185791016 134.42701721191406 45.69928741455078" stroke-width="2.0" fill="none" stroke="rgb(0, 0, 0)" stroke-opacity="1" stroke-linecap="round" stroke-linejoin="round"/>
    <path d="M 51.28358459472656 151.2224884033203 C 55.46963882446289 196.56581115722656 23.41223907470703 185.14486694335938 63.53749084472656 207.179931640625 C 62.737525939941406 195.1995086669922 80.19332122802734 225.0048065185547 43.74168014526367 208.6800537109375" stroke-width="2.0" fill="none" stroke="rgb(0, 0, 0)" stroke-opacity="1" stroke-linecap="round" stroke-linejoin="round"/>
    <path d="M 176.95933532714844 200.33877563476562 C 173.74203491210938 180.9886474609375 164.1616668701172 182.23410034179688 174.8748779296875 200.1008758544922 C 155.29318237304688 215.7045135498047 177.05020141601562 183.99050903320312 179.7811737060547 178.64515686035156" stroke-width="2.0" fill="none" stroke="rgb(0, 0, 0)" stroke-opacity="1" stroke-linecap="round" stroke-linejoin="round"/>
    <path d="M 126.91593170166016 189.4575958251953 C 130.79901123046875 163.29055786132812 138.93463134765625 194.775146484375 132.76864624023438 182.81419372558594" stroke-width="2.0" fill="none" stroke="rgb(0, 0, 0)" stroke-opacity="1" stroke-linecap="round" stroke-linejoin="round"/>
    <path d="M 88.24040985107422 163.43670654296875 C 92.33470916748047 118.10986328125 83.53114318847656 107.5129165649414 87.73812866210938 123.46802520751953 C 85.41923522949219 119.64424133300781 97.5386734008789 95.53263854980469 83.39009094238281 110.46915435791016" stroke-width="2.0" fill="none" stroke="rgb(0, 0, 0)" stroke-opacity="1" stroke-linecap="round" stroke-linejoin="round"/>
    <path d="M 164.14321899414062 45.31569290161133 C 148.2309112548828 62.30474853515625 127.71406555175781 52.46487808227539 145.14930725097656 42.74118423461914 C 145.43099975585938 40.16152572631836 151.65187072753906 57.62428283691406 167.4954071044922 20.936317443847656" stroke-width="2.0" fill="none" stroke="rgb(0, 0, 0)" stroke-opacity="1" stroke-linecap="round" stroke-linejoin="round"/>
    <path d="M 88.62639617919922 16.682086944580078 C 54.51475143432617 36.880615234375 77.7567367553711 27.04572868347168 95.70820617675781 7.4148945808410645 C 68.47034454345703 10.964278221130371 89.64157104492188 9.093509674072266 102.19215393066406 3.9317691326141357" stroke-width="2.0" fill="none" stroke="rgb(0, 0, 0)" stroke-opacity="1" stroke-linecap="round" stroke-linejoin="round"/>
    <path d="M 82.84907531738281 48.718772888183594 C 88.46826934814453 68.81103515625 101.27246856689453 44.91168975830078 104.62570190429688 37.79914474487305" stroke-width="2.0" fill="none" stroke="rgb(0, 0, 0)" stroke-opacity="1" stroke-linecap="round" stroke-linejoin="round"/>
    <path d="M 150.64451599121094 213.9629364013672 C 184.3915252685547 213.04702758789062 210.81407165527344 212.6329803466797 137.72950744628906 224.7963409423828 C 127.52786254882812 232.73080444335938 168.34547424316406 233.9408721923828 173.65614318847656 232.18284606933594" stroke-width="2.0" fill="none" stroke="rgb(0, 0, 0)" stroke-opacity="1" stroke-linecap="round" stroke-linejoin="round"/>
    <path d="M 101.28052520751953 33.02602767944336 C 100.4867172241211 46.362144470214844 119.23592376708984 56.027835845947266 113.51669311523438 11.853147506713867" stroke-width="2.0" fill="none" stroke="rgb(0, 0, 0)" stroke-opacity="1" stroke-linecap="round" stroke-linejoin="round"/>
    <path d="M 164.40638732910156 216.00588989257812 C 183.69569396972656 218.50991821289062 180.66114807128906 212.10157775878906 171.4660186767578 210.407958984375" stroke-width="2.0" fill="none" stroke="rgb(0, 0, 0)" stroke-opacity="1" stroke-linecap="round" stroke-linejoin="round"/>
    <path d="M 32.605655670166016 131.58888244628906 C 42.628021240234375 143.783447265625 29.807918548583984 163.08847045898438 20.129180908203125 152.38531494140625 C 31.111881256103516 195.2062530517578 40.50999450683594 175.21180725097656 36.884307861328125 136.677490234375" stroke-width="2.0" fill="none" stroke="rgb(0, 0, 0)" stroke-opacity="1" stroke-linecap="round" stroke-linejoin="round"/>
    <path d="M 46.72531509399414 159.57408142089844 C 64.23544311523438 146.1253662109375 66.42082214355469 132.0245819091797 55.42777633666992 152.8437042236328 C 75.20911407470703 133.7592010498047 70.13133239746094 163.60455322265625 77.72171020507812 157.4124755859375" stroke-width="2.0" fill="none" stroke="rgb(0, 0, 0)" stroke-opacity="1" stroke-linecap="round" stroke-linejoin="round"/>
    <path d="M 83.659912109375 144.07725524902344 C 97.58000946044922 168.38278198242188 48.17559051513672 164.015625 48.39525604248047 180.59982299804688 C 75.67533874511719 147.01173400878906 25.91497802734375 173.97666931152344 30.908464431762695 116.45355987548828" stroke-width="2.0" fill="none" stroke="rgb(0, 0, 0)" stroke-opacity="1" stroke-linecap="round" stroke-linejoin="round"/>
    <path d="M 215.71240234375 150.63853454589844 C 177.96176147460938 119.57421875 224.923095703125 138.3067169189453 193.85598754882812 111.490234375" stroke-width="2.0" fill="none" stroke="rgb(0, 0, 0)" stroke-opacity="1" stroke-linecap="round" stroke-linejoin="round"/>
    <path d="M 149.8157958984375 96.38434600830078 C 172.06146240234375 65.31153106689453 151.43849182128906 54.90123748779297 132.76571655273438 75.68344116210938 C 158.25730895996094 107.1123275756836 143.38278198242188 70.79205322265625 178.31398010253906 70.97160339355469 C 181.346435546875 67.98539733886719 163.383544921875 79.63057708740234 172.05860900878906 93.40238952636719" stroke-width="2.0" fill="none" stroke="rgb(0, 0, 0)" stroke-opacity="1" stroke-linecap="round" stroke-linejoin="round"/>
    <path d="M 136.89248657226562 200.94662475585938 C 132.6763458251953 174.49118041992188 142.13609313964844 206.6564483642578 152.0004119873047 182.3003387451172 C 168.28945922851562 183.09249877929688 165.1586456298828 153.08226013183594 156.021240234375 193.3994903564453 C 145.4667205810547 180.31785583496094 159.0307159423828 154.99285888671875 148.78192138671875 195.4364013671875" stroke-width="2.0" fill="none" stroke="rgb(0, 0, 0)" stroke-opacity="1" stroke-linecap="round" stroke-linejoin="round"/>
    <path d="M -7.273169040679932 171.27325439453125 C -2.0973336696624756 192.1733856201172 13.122700691223145 198.97325134277344 -7.136991024017334 207.3435516357422 C 29.17163848876953 241.48854064941406 6.236553192138672 208.67124938964844 53.740291595458984 227.0665283203125" stroke-width="2.0" fill="none" stroke="rgb(0, 0, 0)" stroke-opacity="1" stroke-linecap="round" stroke-linejoin="round"/>
    <path d="M 147.497802734375 223.33697509765625 C 147.8511962890625 231.63909912109375 192.1853485107422 223.94842529296875 188.8594512939453 186.0734405517578" stroke-width="2.0" fill="none" stroke="rgb(0, 0, 0)" stroke-opacity="1" stroke-linecap="round" stroke-linejoin="round"/>
    <path d="M 9.48471450805664 151.60092163085938 C 10.778822898864746 124.22958374023438 33.906776428222656 85.47672271728516 32.519325256347656 116.62350463867188" stroke-width="2.0" fill="none" stroke="rgb(0, 0, 0)" stroke-opacity="1" stroke-linecap="round" stroke-linejoin="round"/>
    <path d="M 197.4340362548828 15.762340545654297 C 220.19456481933594 3.0213093757629395 217.96664428710938 67.3490982055664 192.6764373779297 31.074064254760742 C 193.5272216796875 22.258831024169922 186.8359832763672 33.879127502441406 206.97669982910156 26.471025466918945" stroke-width="2.0" fill="none" stroke="rgb(0, 0, 0)" stroke-opacity="1" stroke-linecap="round" stroke-linejoin="round"/>
    <path d="M 218.87551879882812 215.6870880126953 C 234.89109802246094 187.2172393798828 180.5067138671875 208.1495361328125 217.94485473632812 206.17129516601562 C 188.16445922851562 222.62464904785156 198.75741577148438 196.74093627929688 201.3141326904297 182.08978271484375" stroke-width="2.0" fill="none" stroke="rgb(0, 0, 0)" stroke-opacity="1" stroke-linecap="round" stroke-linejoin="round"/>
    <path d="M 83.46012115478516 46.778968811035156 C 61.62131881713867 26.06409454345703 78.26982879638672 37.28607940673828 93.21744537353516 5.387143611907959 C 65.83275604248047 5.397926330566406 86.88694763183594 11.275911331176758 84.4443588256836 36.533607482910156" stroke-width="2.0" fill="none" stroke="rgb(0, 0, 0)" stroke-opacity="1" stroke-linecap="round" stroke-linejoin="round"/>
    <path d="M 150.09979248046875 189.13645935058594 C 163.7249755859375 160.55345153808594 163.5602264404297 147.45358276367188 166.54547119140625 167.758544921875 C 158.9047088623047 152.9342041015625 169.89190673828125 151.57513427734375 157.22166442871094 181.03111267089844" stroke-width="2.0" fill="none" stroke="rgb(0, 0, 0)" stroke-opacity="1" stroke-linecap="round" stroke-linejoin="round"/>
    <path d="M 129.4261474609375 30.845590591430664 C 127.1850814819336 28.2391357421875 130.9756622314453 -11.183438301086426 168.41741943359375 7.907557964324951 C 162.81546020507812 31.13382911682129 156.77154541015625 7.70906400680542 148.9300537109375 2.9069273471832275 C 161.8595428466797 37.35288619995117 127.55667114257812 28.755754470825195 141.62930297851562 19.489608764648438" stroke-width="2.0" fill="none" stroke="rgb(0, 0, 0)" stroke-opacity="1" stroke-linecap="round" stroke-linejoin="round"/>
    <path d="M 130.5522918701172 2.859677791595459 C 153.7820587158203 -1.3182477951049805 121.52015686035156 7.351187705993652 155.58914184570312 24.202722549438477 C 162.82823181152344 45.24955749511719 166.70095825195312 17.353254318237305 146.36660766601562 6.74606466293335 C 149.7476043701172 59.239444732666016 127.31916046142578 35.66001892089844 137.2506866455078 50.07211685180664" stroke-width="2.0" fill="none" stroke="rgb(0, 0, 0)" stroke-opacity="1" stroke-linecap="round" stroke-linejoin="round"/>
    <path d="M 173.6317901611328 85.19529724121094 C 169.15826416015625 73.34851837158203 147.56845092773438 85.9732894897461 172.14529418945312 65.44720458984375 C 159.8316650390625 76.62095642089844 181.8575439453125 57.475013732910156 150.5405731201172 51.22114181518555 C 126.61616516113281 46.85813903808594 136.38449096679688 77.1392593383789 151.86245727539062 94.56365203857422" stroke-width="2.0" fill="none" stroke="rgb(0, 0, 0)" stroke-opacity="1" stroke-linecap="round" stroke-linejoin="round"/>
    <path d="M 137.13568115234375 149.7174835205078 C 90.32500457763672 155.6470489501953 112.70698547363281 192.49691772460938 126.40672302246094 165.2761993408203 C 102.74247741699219 178.03106689453125 110.00660705566406 159.28500366210938 140.88734436035156 141.79159545898438" stroke-width="2.0" fill="none" stroke="rgb(0, 0, 0)" stroke-opacity="1" stroke-linecap="round" stroke-linejoin="round"/>
    <path d="M 137.97198486328125 188.1389923095703 C 129.50559997558594 185.36363220214844 129.8694305419922 214.14755249023438 159.30873107910156 214.98443603515625 C 165.39012145996094 216.97154235839844 182.07081604003906 213.55833435058594 157.34652709960938 216.54380798339844 C 137.68165588378906 204.6279296875 154.99874877929688 222.43215942382812 148.13018798828125 205.04998779296875" stroke-width="2.0" fill="none" stroke="rgb(0, 0, 0)" stroke-opacity="1" stroke-linecap="round" stroke-linejoin="round"/>
    <path d="M 55.0342903137207 26.0542049407959 C 46.185638427734375 17.139842987060547 37.425148010253906 34.330833435058594 36.8211669921875 16.341835021972656" stroke-width="2.0" fill="none" stroke="rgb(0, 0, 0)" stroke-opacity="1" stroke-linecap="round" stroke-linejoin="round"/>
    <path d="M 119.4352035522461 185.48800659179688 C 123.99034118652344 175.7772216796875 123.28997039794922 182.79969787597656 124.05325317382812 154.46351623535156 C 133.42996215820312 181.5435791015625 154.67999267578125 178.17921447753906 138.2773895263672 191.8387908935547" stroke-width="2.0" fill="none" stroke="rgb(0, 0, 0)" stroke-opacity="1" stroke-linecap="round" stroke-linejoin="round"/>
    <path d="M 35.34174346923828 41.42521667480469 C 35.82747268676758 26.811458587646484 -4.84796667098999 42.8233528137207 35.57432556152344 45.25725555419922 C 10.168939590454102 44.82053756713867 -4.097647190093994 50.46365737915039 5.016830921173096 22.796308517456055 C 16.928895950317383 50.58638381958008 18.880727767944336 12.052011489868164 11.432887077331543 29.126359939575195" stroke-width="2.0" fill="none" stroke="rgb(0, 0, 0)" stroke-opacity="1" stroke-linecap="round" stroke-linejoin="round"/>
    <path d="M 100.91419219970703 119.67410278320312 C 116.74097442626953 135.19468688964844 127.13619232177734 133.77447509765625 127.24329376220703 113.70045471191406 C 114.20443725585938 111.5973129272461 105.06851196289062 102.79541015625 108.42526245117188 134.51876831054688 C 111.95751190185547 133.52532958984375 97.55748748779297 155.0516815185547 107.33207702636719 140.23728942871094" stroke-width="2.0" fill="none" stroke="rgb(0, 0, 0)" stroke-opacity="1" stroke-linecap="round" stroke-linejoin="round"/>
    <path d="M 27.524396896362305 95.18223571777344 C 28.651756286621094 98.05204010009766 13.027099609375 169.0196990966797 41.639713287353516 134.92617797851562 C 74.3646011352539 134.18739318847656 35.16543197631836 133.28652954101562 31.250572204589844 138.18057250976562 C 14.323813438415527 155.299560546875 43.72965621948242 146.2259063720703 55.06844711303711 172.82359313964844" stroke-width="2.0" fill="none" stroke="rgb(0, 0, 0)" stroke-opacity="1" stroke-linecap="round" stroke-linejoin="round"/>
    <path d="M 112.99430084228516 -8.246389389038086 C 133.97132873535156 -7.139749050140381 164.4075164794922 -14.292158126831055 81.47734069824219 5.038488388061523 C 66.20186614990234 17.92273712158203 63.05866241455078 1.3468176126480103 141.40687561035156 -7.785706520080566" stroke-width="2.0" fill="none" stroke="rgb(0, 0, 0)" stroke-opacity="1" stroke-linecap="round" stroke-linejoin="round"/>
    <path d="M 33.080379486083984 18.13566017150879 C 28.414623260498047 34.9306526184082 25.39978790283203 27.23026466369629 3.5728867053985596 24.53105926513672" stroke-width="2.0" fill="none" stroke="rgb(0, 0, 0)" stroke-opacity="1" stroke-linecap="round" stroke-linejoin="round"/>
    <path d="M 122.4716796875 115.42051696777344 C 125.61393737792969 138.5592498779297 113.15205383300781 98.29568481445312 139.6927490234375 104.68828582763672" stroke-width="2.0" fill="none" stroke="rgb(0, 0, 0)" stroke-opacity="1" stroke-linecap="round" stroke-linejoin="round"/>
    <path d="M 174.40924072265625 42.4559440612793 C 200.18414306640625 69.54837036132812 210.73728942871094 92.52360534667969 207.57460021972656 58.57550811767578 C 196.013916015625 75.37530517578125 192.7899627685547 71.978271484375 197.4541778564453 68.62287902832031" stroke-width="2.0" fill="none" stroke="rgb(0, 0, 0)" stroke-opacity="1" stroke-linecap="round" stroke-linejoin="round"/>
    <path d="M 108.67525482177734 89.7435302734375 C 77.13922119140625 90.36884307861328 86.40219116210938 106.5683364868164 87.16771697998047 119.40652465820312 C 86.30467224121094 102.24266815185547 102.03543853759766 121.02429962158203 87.10110473632812 116.59449005126953" stroke-width="2.0" fill="none" stroke="rgb(0, 0, 0)" stroke-opacity="1" stroke-linecap="round" stroke-linejoin="round"/>
    <path d="M 167.54745483398438 74.72627258300781 C 137.4518280029297 97.86898040771484 147.68458557128906 128.40463256835938 149.7197723388672 90.51091003417969 C 137.3055877685547 114.33898162841797 147.2761993408203 95.89863586425781 150.18630981445312 102.99215698242188 C 131.8234100341797 74.91678619384766 114.2332992553711 86.56092071533203 141.62335205078125 97.43963623046875" stroke-width="2.0" fill="none" stroke="rgb(0, 0, 0)" stroke-opacity="1" stroke-linecap="round" stroke-linejoin="round"/>
    <path d="M 52.17595672607422 132.97903442382812 C 16.46770477294922 127.47986602783203 72.61542510986328 143.17465209960938 46.4519157409668 155.37835693359375" stroke-width="2.0" fill="none" stroke="rgb(0, 0, 0)" stroke-opacity="1" stroke-linecap="round" stroke-linejoin="round"/>
    <path d="M 142.43019104003906 32.40937805175781 C 166.18478393554688 66.79228210449219 150.5883026123047 47.19478225708008 149.13072204589844 44.3095588684082 C 155.47052001953125 36.895477294921875 167.36343383789062 46.239410400390625 151.9796142578125 55.616153717041016 C 149.6226043701172 -1.3130435943603516 153.97998046875 35.729400634765625 150.10272216796875 61.164466857910156" stroke-width="2.0" fill="none" stroke="rgb(0, 0, 0)" stroke-opacity="1" stroke-linecap="round" stroke-linejoin="round"/>
    <path d="M 122.88275146484375 147.18780517578125 C 90.9005126953125 176.67691040039062 83.20716857910156 179.44674682617188 98.51941680908203 195.4379119873047 C 107.41691589355469 177.84495544433594 104.48579406738281 212.1470947265625 81.83409118652344 190.72076416015625" stroke-width="2.0" fill="none" stroke="rgb(0, 0, 0)" stroke-opacity="1" stroke-linecap="round" stroke-linejoin="round"/>
    <path d="M 61.90184020996094 75.58235168457031 C 37.28221130371094 76.93893432617188 55.18732833862305 53.66377639770508 66.75017547607422 49.6287841796875 C 66.50201416015625 45.03306198120117 66.9310073852539 55.631675720214844 66.10122680664062 43.87163543701172 C 66.59346008300781 57.96599197387695 61.42707824707031 59.75667190551758 50.00328063964844 20.870891571044922" stroke-width="2.0" fill="none" stroke="rgb(0, 0, 0)" stroke-opacity="1" stroke-linecap="round" stroke-linejoin="round"/>
    <path d="M 92.81977844238281 140.0764617919922 C 79.76824188232422 120.05310821533203 94.47174835205078 137.2274627685547 87.58875274658203 115.83147430419922 C 84.43865203857422 124.1903076171875 78.04312896728516 104.9900131225586 87.04304504394531 113.81910705566406" stroke-width="2.0" fill="none" stroke="rgb(0, 0, 0)" stroke-opacity="1" stroke-linecap="round" stroke-linejoin="round"/>
    <path d="M 199.3900146484375 195.6898956298828 C 201.54379272460938 175.52638244628906 205.8684539794922 196.0610809326172 179.1473846435547 215.6162109375 C 198.9446563720703 182.30743408203125 207.78614807128906 176.2574920654297 192.5861358642578 207.13316345214844 C 178.9796142578125 177.22525024414062 182.96983337402344 193.9973602294922 169.15977478027344 188.36012268066406" stroke-width="2.0" fill="none" stroke="rgb(0, 0, 0)" stroke-opacity="1" stroke-linecap="round" stroke-linejoin="round"/>
    <path d="M 44.60975646972656 135.50990295410156 C 63.71675109863281 154.3646697998047 74.05768585205078 194.14698791503906 60.94377517700195 157.76852416992188 C 67.87495422363281 153.28707885742188 50.727195739746094 140.98033142089844 54.34331130981445 185.99920654296875" stroke-width="2.0" fill="none" stroke="rgb(0, 0, 0)" stroke-opacity="1" stroke-linecap="round" stroke-linejoin="round"/>
    <path d="M 202.43984985351562 192.73208618164062 C 221.7655487060547 176.9829864501953 202.3020477294922 166.23294067382812 205.13986206054688 154.5948486328125" stroke-width="2.0" fill="none" stroke="rgb(0, 0, 0)" stroke-opacity="1" stroke-linecap="round" stroke-linejoin="round"/>
    <path d="M 16.44998550415039 167.53594970703125 C 10.807422637939453 189.01513671875 1.243748426437378 180.9327392578125 -0.3593420088291168 156.59609985351562 C 7.069118022918701 180.5161895751953 22.520225524902344 169.81460571289062 25.51005744934082 156.7753448486328 C -1.7239735126495361 172.80044555664062 13.973700523376465 195.56683349609375 -0.7761178612709045 159.69371032714844" stroke-width="2.0" fill="none" stroke="rgb(0, 0, 0)" stroke-opacity="1" stroke-linecap="round" stroke-linejoin="round"/>
    <path d="M 227.41879272460938 148.3523406982422 C 225.57176208496094 122.52615356445312 226.34420776367188 114.71501922607422 229.33334350585938 112.06695556640625" stroke-width="2.0" fill="none" stroke="rgb(0, 0, 0)" stroke-opacity="1" stroke-linecap="round" stroke-linejoin="round"/>
    <path d="M 189.5640106201172 203.77996826171875 C 201.63223266601562 193.9874725341797 200.8960418701172 150.2321014404297 199.07794189453125 163.17323303222656 C 194.34588623046875 146.24835205078125 196.57275390625 153.97581481933594 203.99200439453125 134.78480529785156 C 182.61045837402344 138.95245361328125 192.30862426757812 133.7500457763672 187.4393310546875 119.3531265258789" stroke-width="2.0" fill="none" stroke="rgb(0, 0, 0)" stroke-opacity="1" stroke-linecap="round" stroke-linejoin="round"/>
    <path d="M 86.39962768554688 104.86145782470703 C 83.6581039428711 98.3743667602539 73.07608795166016 95.05250549316406 89.7496337890625 94.66229248046875" stroke-width="2.0" fill="none" stroke="rgb(0, 0, 0)" stroke-opacity="1" stroke-linecap="round" stroke-linejoin="round"/>
    <path d="M 97.52054595947266 58.46440124511719 C 106.3474349975586 53.2620849609375 84.40016174316406 69.03630828857422 90.95732879638672 73.0133056640625" stroke-width="2.0" fill="none" stroke="rgb(0, 0, 0)" stroke-opacity="1" stroke-linecap="round" stroke-linejoin="round"/>
    <path d="M 154.04893493652344 48.598182678222656 C 152.36927795410156 56.858253479003906 136.7144775390625 54.142601013183594 140.5425262451172 66.89767456054688 C 123.99688720703125 61.203617095947266 155.40264892578125 68.14557647705078 119.00801849365234 44.841854095458984" stroke-width="2.0" fill="none" stroke="rgb(0, 0, 0)" stroke-opacity="1" stroke-linecap="round" stroke-linejoin="round"/>
    <path d="M 34.07689666748047 173.1474151611328 C 18.084680557250977 153.4438018798828 5.6530256271362305 141.83848571777344 23.133487701416016 124.87749481201172" stroke-width="2.0" fill="none" stroke="rgb(0, 0, 0)" stroke-opacity="1" stroke-linecap="round" stroke-linejoin="round"/>
    <path d="M 161.1548309326172 82.8918685913086 C 148.22720336914062 68.71219635009766 155.56814575195312 43.88748550415039 151.46022033691406 35.3651123046875 C 152.89781188964844 57.14175796508789 161.15126037597656 21.47703742980957 176.92564392089844 33.32961654663086" stroke-width="2.0" fill="none" stroke="rgb(0, 0, 0)" stroke-opacity="1" stroke-linecap="round" stroke-linejoin="round"/>
    <path d="M 147.18487548828125 220.08737182617188 C 188.81793212890625 204.28729248046875 198.95855712890625 207.8127899169922 135.8740692138672 212.02447509765625 C 135.14817810058594 217.17892456054688 120.66585540771484 197.56129455566406 141.84878540039062 186.8923797607422 C 129.84048461914062 206.02249145507812 171.8314971923828 186.66261291503906 163.27395629882812 165.53973388671875" stroke-width="2.0" fill="none" stroke="rgb(0, 0, 0)" stroke-opacity="1" stroke-linecap="round" stroke-linejoin="round"/>
    <path d="M 180.7980194091797 117.7746810913086 C 193.072265625 94.12560272216797 172.513427734375 72.36173248291016 175.39273071289062 70.45301055908203 C 178.46058654785156 71.65190887451172 207.2761993408203 94.7652359008789 198.91969299316406 112.95011901855469" stroke-width="2.0" fill="none" stroke="rgb(0, 0, 0)" stroke-opacity="1" stroke-linecap="round" stroke-linejoin="round"/>
    <path d="M 39.43147659301758 175.67138671875 C 13.827704429626465 168.36318969726562 18.017349243164062 185.68743896484375 56.65363693237305 197.5040740966797 C 2.497018575668335 164.8511199951172 18.573795318603516 209.78993225097656 30.460805892944336 188.06472778320312" stroke-width="2.0" fill="none" stroke="rgb(0, 0, 0)" stroke-opacity="1" stroke-linecap="round" stroke-linejoin="round"/>
    <path d="M 178.77684020996094 158.3654327392578 C 190.91094970703125 171.57325744628906 199.7637176513672 186.6864776611328 202.49197387695312 188.66552734375 C 195.0190887451172 140.80653381347656 235.79872131347656 185.82568359375 202.3653106689453 192.4273223876953 C 207.5349578857422 196.3416290283203 216.97096252441406 192.03329467773438 225.0985107421875 145.1883087158203" stroke-width="2.0" fill="none" stroke="rgb(0, 0, 0)" stroke-opacity="1" stroke-linecap="round" stroke-linejoin="round"/>
    <path d="M 168.11595153808594 117.40991973876953 C 196.70809936523438 67.5837173461914 187.0867156982422 73.39518737792969 185.2738800048828 94.72203826904297 C 168.65567016601562 95.57080078125 168.76364135742188 123.65747833251953 164.93075561523438 96.49786376953125" stroke-width="2.0" fill="none" stroke="rgb(0, 0, 0)" stroke-opacity="1" stroke-linecap="round" stroke-linejoin="round"/>
  </g>
</svg>
