<?xml version="1.0" ?>
<svg xmlns="http://www.w3.org/2000/svg" version="1.1" width="224" height="224">
  <defs/>
  <g>
    <path d="M 62.12629699707031 106.39683532714844 C 66.45223999023438 101.81858825683594 66.09083557128906 100.25233459472656 69.69868469238281 106.42919158935547" stroke-width="2.0" fill="none" stroke="rgb(0, 0, 0)" stroke-opacity="1" stroke-linecap="round" stroke-linejoin="round"/>
    <path d="M 160.66554260253906 192.74659729003906 C 187.18702697753906 186.95399475097656 193.44114685058594 197.44073486328125 240.15087890625 199.6504364013672 C 242.9049072265625 193.51016235351562 251.1239471435547 197.910888671875 244.81100463867188 204.6470947265625" stroke-width="2.0" fill="none" stroke="rgb(0, 0, 0)" stroke-opacity="1" stroke-linecap="round" stroke-linejoin="round"/>
    <path d="M 53.801002502441406 108.32093048095703 C 74.08380889892578 95.546875 82.27310943603516 97.82755279541016 81.9483642578125 102.62407684326172" stroke-width="2.0" fill="none" stroke="rgb(0, 0, 0)" stroke-opacity="1" stroke-linecap="round" stroke-linejoin="round"/>
    <path d="M 60.85874938964844 88.52493286132812 C 66.24720001220703 83.3353271484375 50.8176155090332 88.34322357177734 76.42134857177734 92.00577545166016" stroke-width="2.0" fill="none" stroke="rgb(0, 0, 0)" stroke-opacity="1" stroke-linecap="round" stroke-linejoin="round"/>
    <path d="M 141.8754425048828 151.68063354492188 C 139.15380859375 155.00364685058594 133.92584228515625 148.93679809570312 135.45599365234375 173.9586639404297 C 137.0702667236328 173.1646728515625 122.25608825683594 184.3336944580078 114.57324981689453 165.79312133789062 C 130.0248565673828 163.40689086914062 132.67250061035156 166.68272399902344 128.00364685058594 170.87635803222656" stroke-width="2.0" fill="none" stroke="rgb(0, 0, 0)" stroke-opacity="1" stroke-linecap="round" stroke-linejoin="round"/>
    <path d="M 112.63663482666016 36.38895034790039 C 85.90532684326172 51.011192321777344 109.69596862792969 41.76276779174805 79.57109069824219 41.11649703979492" stroke-width="2.0" fill="none" stroke="rgb(0, 0, 0)" stroke-opacity="1" stroke-linecap="round" stroke-linejoin="round"/>
    <path d="M 204.2808837890625 67.22087097167969 C 222.2296600341797 70.06487274169922 242.01348876953125 65.72724151611328 237.74786376953125 68.71326446533203" stroke-width="2.0" fill="none" stroke="rgb(0, 0, 0)" stroke-opacity="1" stroke-linecap="round" stroke-linejoin="round"/>
    <path d="M 124.0142822265625 185.4908447265625 C 76.29638671875 177.10092163085938 124.27818298339844 160.45025634765625 83.63995361328125 186.15545654296875 C 98.24400329589844 166.3397674560547 79.28838348388672 153.41641235351562 82.99879455566406 188.6170654296875 C 90.18699645996094 162.3939666748047 84.54956817626953 161.69186401367188 90.48979187011719 185.1169891357422" stroke-width="2.0" fill="none" stroke="rgb(0, 0, 0)" stroke-opacity="1" stroke-linecap="round" stroke-linejoin="round"/>
    <path d="M 137.28367614746094 189.0579376220703 C 98.48478698730469 189.84808349609375 125.89358520507812 189.54177856445312 105.99761962890625 188.23651123046875 C 91.37673950195312 177.13833618164062 121.32646942138672 194.7532958984375 97.58372497558594 192.45721435546875" stroke-width="2.0" fill="none" stroke="rgb(0, 0, 0)" stroke-opacity="1" stroke-linecap="round" stroke-linejoin="round"/>
    <path d="M 121.89126586914062 68.86495208740234 C 134.03411865234375 78.01113891601562 131.96380615234375 76.6531982421875 104.74736785888672 78.51878356933594 C 121.21009826660156 98.74217224121094 108.22796630859375 77.04782104492188 116.83092498779297 91.92247772216797" stroke-width="2.0" fill="none" stroke="rgb(0, 0, 0)" stroke-opacity="1" stroke-linecap="round" stroke-linejoin="round"/>
    <path d="M 116.27960968017578 174.67355346679688 C 103.85285949707031 174.23641967773438 130.05453491210938 177.11221313476562 128.28866577148438 188.50830078125" stroke-width="2.0" fill="none" stroke="rgb(0, 0, 0)" stroke-opacity="1" stroke-linecap="round" stroke-linejoin="round"/>
    <path d="M 69.52425384521484 98.45075225830078 C 88.79368591308594 105.77503967285156 87.35781860351562 93.8434829711914 80.03902435302734 97.68819427490234 C 95.04471588134766 89.79837036132812 107.22547912597656 143.3985595703125 114.52626037597656 130.84613037109375" stroke-width="2.0" fill="none" stroke="rgb(0, 0, 0)" stroke-opacity="1" stroke-linecap="round" stroke-linejoin="round"/>
    <path d="M 168.03514099121094 192.54661560058594 C 150.70941162109375 197.3745880126953 184.7052459716797 215.5383758544922 170.17404174804688 189.37730407714844 C 180.0835723876953 201.4569549560547 144.00645446777344 208.1379852294922 168.93121337890625 195.6393280029297" stroke-width="2.0" fill="none" stroke="rgb(0, 0, 0)" stroke-opacity="1" stroke-linecap="round" stroke-linejoin="round"/>
    <path d="M 52.77309036254883 28.415306091308594 C 50.124027252197266 31.642366409301758 34.354557037353516 27.096309661865234 60.888912200927734 26.40711784362793 C 57.15251159667969 19.99710464477539 41.406429290771484 29.984975814819336 42.70292663574219 23.345735549926758 C 67.33158111572266 20.280803680419922 76.18455505371094 20.73686408996582 54.90483856201172 17.519390106201172" stroke-width="2.0" fill="none" stroke="rgb(0, 0, 0)" stroke-opacity="1" stroke-linecap="round" stroke-linejoin="round"/>
    <path d="M 83.90463256835938 -1.793270468711853 C 46.80084228515625 5.600805759429932 34.32538604736328 -6.242159843444824 34.76463317871094 9.842470169067383 C 49.29792022705078 -4.606814861297607 60.0832633972168 14.512825012207031 45.729434967041016 34.7239990234375" stroke-width="2.0" fill="none" stroke="rgb(0, 0, 0)" stroke-opacity="1" stroke-linecap="round" stroke-linejoin="round"/>
    <path d="M 81.56590270996094 25.599212646484375 C 62.72050476074219 37.27648162841797 106.31845092773438 24.358829498291016 98.57783508300781 34.221885681152344 C 75.8032455444336 31.50920295715332 95.81629943847656 29.051166534423828 119.84329986572266 31.888580322265625" stroke-width="2.0" fill="none" stroke="rgb(0, 0, 0)" stroke-opacity="1" stroke-linecap="round" stroke-linejoin="round"/>
    <path d="M 176.71583557128906 227.5419158935547 C 188.25682067871094 224.80517578125 182.5018310546875 239.63552856445312 166.9125518798828 216.8719940185547 C 188.55796813964844 232.22630310058594 206.91824340820312 226.65174865722656 229.5185089111328 196.48226928710938" stroke-width="2.0" fill="none" stroke="rgb(0, 0, 0)" stroke-opacity="1" stroke-linecap="round" stroke-linejoin="round"/>
    <path d="M 139.30511474609375 21.867692947387695 C 153.75083923339844 28.593975067138672 168.2353057861328 30.249629974365234 153.11444091796875 36.50522232055664 C 169.69046020507812 48.94317626953125 182.43301391601562 66.02721405029297 166.8448486328125 42.191314697265625" stroke-width="2.0" fill="none" stroke="rgb(0, 0, 0)" stroke-opacity="1" stroke-linecap="round" stroke-linejoin="round"/>
    <path d="M 29.56266975402832 89.8946762084961 C 78.74066925048828 80.1953353881836 58.18351364135742 79.22917175292969 65.83243560791016 72.44436645507812 C 79.71879577636719 108.75623321533203 77.01972198486328 113.68923950195312 71.4633560180664 70.39661407470703" stroke-width="2.0" fill="none" stroke="rgb(0, 0, 0)" stroke-opacity="1" stroke-linecap="round" stroke-linejoin="round"/>
    <path d="M 63.63338088989258 127.50870513916016 C 76.83712005615234 140.27731323242188 71.78330993652344 132.33624267578125 64.91233825683594 122.04682922363281 C 60.519371032714844 135.28390502929688 70.70636749267578 124.30927276611328 52.28437423706055 113.69540405273438" stroke-width="2.0" fill="none" stroke="rgb(0, 0, 0)" stroke-opacity="1" stroke-linecap="round" stroke-linejoin="round"/>
    <path d="M 193.83551025390625 198.34947204589844 C 180.2073516845703 195.61984252929688 185.79437255859375 184.10519409179688 165.34356689453125 203.81808471679688 C 169.73361206054688 206.89682006835938 157.75619506835938 189.10411071777344 178.5340118408203 193.4191436767578" stroke-width="2.0" fill="none" stroke="rgb(0, 0, 0)" stroke-opacity="1" stroke-linecap="round" stroke-linejoin="round"/>
    <path d="M 140.78050231933594 18.341432571411133 C 80.4054183959961 5.425044536590576 82.21859741210938 15.839664459228516 122.6217041015625 19.65096092224121 C 64.97633361816406 37.79804611206055 108.39208984375 13.453466415405273 88.31522369384766 21.676864624023438" stroke-width="2.0" fill="none" stroke="rgb(0, 0, 0)" stroke-opacity="1" stroke-linecap="round" stroke-linejoin="round"/>
    <path d="M 160.92112731933594 121.41792297363281 C 148.56068420410156 110.69356536865234 182.34609985351562 113.8217544555664 173.2395477294922 114.6846923828125 C 178.87220764160156 91.14484405517578 165.65335083007812 100.55999755859375 186.224365234375 147.25271606445312" stroke-width="2.0" fill="none" stroke="rgb(0, 0, 0)" stroke-opacity="1" stroke-linecap="round" stroke-linejoin="round"/>
    <path d="M 213.46023559570312 65.73234558105469 C 221.6802215576172 55.15211868286133 160.71080017089844 68.7894515991211 214.92654418945312 67.01649475097656" stroke-width="2.0" fill="none" stroke="rgb(0, 0, 0)" stroke-opacity="1" stroke-linecap="round" stroke-linejoin="round"/>
    <path d="M 155.08370971679688 18.084814071655273 C 178.79119873046875 22.98503303527832 180.7382354736328 26.126184463500977 191.81317138671875 36.05236053466797 C 188.1527099609375 31.12945556640625 195.85049438476562 38.02954864501953 182.5714111328125 38.65039825439453 C 151.42291259765625 54.234710693359375 182.9820098876953 15.316349983215332 191.79763793945312 29.320632934570312" stroke-width="2.0" fill="none" stroke="rgb(0, 0, 0)" stroke-opacity="1" stroke-linecap="round" stroke-linejoin="round"/>
    <path d="M 55.20726013183594 83.47013092041016 C 59.065738677978516 94.91506958007812 49.59181594848633 83.79267883300781 23.26144790649414 90.83879089355469 C 50.89403533935547 135.94081115722656 21.966970443725586 118.47676086425781 0.7656971216201782 105.67999267578125 C 18.574209213256836 97.7537841796875 7.277520656585693 117.49604034423828 10.340775489807129 84.61456298828125" stroke-width="2.0" fill="none" stroke="rgb(0, 0, 0)" stroke-opacity="1" stroke-linecap="round" stroke-linejoin="round"/>
    <path d="M 22.915435791015625 131.41311645507812 C 28.73151969909668 137.82691955566406 43.27635955810547 129.65635681152344 12.018682479858398 112.51496887207031 C 4.753384113311768 137.89996337890625 -7.16714334487915 150.91661071777344 50.897857666015625 144.13584899902344 C 44.457218170166016 117.61424255371094 40.07217788696289 122.97474670410156 23.8326416015625 128.7140655517578" stroke-width="2.0" fill="none" stroke="rgb(0, 0, 0)" stroke-opacity="1" stroke-linecap="round" stroke-linejoin="round"/>
    <path d="M 244.43414306640625 80.88197326660156 C 206.41656494140625 67.35074615478516 207.92434692382812 83.15059661865234 206.77752685546875 68.53325653076172" stroke-width="2.0" fill="none" stroke="rgb(0, 0, 0)" stroke-opacity="1" stroke-linecap="round" stroke-linejoin="round"/>
    <path d="M 37.31366729736328 157.66595458984375 C 33.056236267089844 136.59317016601562 55.6983757019043 153.41734313964844 49.726951599121094 142.22482299804688 C 40.33678436279297 166.9171600341797 79.68775939941406 151.0391845703125 60.63798522949219 142.3215789794922 C 59.30202102661133 150.50070190429688 79.22389221191406 159.65338134765625 56.0871467590332 160.2359619140625" stroke-width="2.0" fill="none" stroke="rgb(0, 0, 0)" stroke-opacity="1" stroke-linecap="round" stroke-linejoin="round"/>
    <path d="M 22.219581604003906 -4.18360710144043 C 15.181581497192383 -6.359103202819824 20.334707260131836 -13.342744827270508 18.75149917602539 -4.798096179962158" stroke-width="2.0" fill="none" stroke="rgb(0, 0, 0)" stroke-opacity="1" stroke-linecap="round" stroke-linejoin="round"/>
    <path d="M 203.1456756591797 74.0832290649414 C 176.60646057128906 48.7812614440918 200.107666015625 60.87836456298828 188.42572021484375 58.874755859375" stroke-width="2.0" fill="none" stroke="rgb(0, 0, 0)" stroke-opacity="1" stroke-linecap="round" stroke-linejoin="round"/>
    <path d="M 155.91883850097656 93.42182922363281 C 180.46286010742188 68.55269622802734 179.8504180908203 98.24656677246094 166.60617065429688 66.69709777832031" stroke-width="2.0" fill="none" stroke="rgb(0, 0, 0)" stroke-opacity="1" stroke-linecap="round" stroke-linejoin="round"/>
    <path d="M 169.456787109375 148.42349243164062 C 183.4488525390625 153.87149047851562 163.24412536621094 154.84754943847656 150.9448699951172 122.0301284790039 C 174.85763549804688 149.09519958496094 174.41908264160156 152.36825561523438 154.48953247070312 148.89776611328125" stroke-width="2.0" fill="none" stroke="rgb(0, 0, 0)" stroke-opacity="1" stroke-linecap="round" stroke-linejoin="round"/>
    <path d="M 63.81644821166992 120.96322631835938 C 45.98563003540039 102.99188232421875 60.15508270263672 106.35826873779297 45.62784957885742 113.26124572753906" stroke-width="2.0" fill="none" stroke="rgb(0, 0, 0)" stroke-opacity="1" stroke-linecap="round" stroke-linejoin="round"/>
    <path d="M 25.529720306396484 98.66422271728516 C 22.357595443725586 74.19752502441406 22.734729766845703 67.38432312011719 22.21524429321289 75.0481948852539 C -4.516608238220215 73.7480239868164 2.5318491458892822 84.31669616699219 16.363447189331055 70.38024139404297" stroke-width="2.0" fill="none" stroke="rgb(0, 0, 0)" stroke-opacity="1" stroke-linecap="round" stroke-linejoin="round"/>
    <path d="M 57.674560546875 174.52847290039062 C 64.72991180419922 212.7612762451172 61.77037048339844 189.16270446777344 61.23869323730469 176.3448028564453" stroke-width="2.0" fill="none" stroke="rgb(0, 0, 0)" stroke-opacity="1" stroke-linecap="round" stroke-linejoin="round"/>
    <path d="M 92.18609619140625 78.1082534790039 C 76.43973541259766 77.9678955078125 72.461181640625 96.49633026123047 77.89508819580078 89.13333892822266 C 69.76212310791016 95.96578216552734 61.761863708496094 86.47400665283203 43.235103607177734 82.26607513427734 C 65.11058044433594 86.97630310058594 69.5850601196289 103.98966217041016 45.37775421142578 69.99931335449219" stroke-width="2.0" fill="none" stroke="rgb(0, 0, 0)" stroke-opacity="1" stroke-linecap="round" stroke-linejoin="round"/>
    <path d="M 150.55145263671875 125.01087951660156 C 132.91641235351562 100.95845794677734 147.34396362304688 112.02894592285156 114.37091827392578 108.93766784667969" stroke-width="2.0" fill="none" stroke="rgb(0, 0, 0)" stroke-opacity="1" stroke-linecap="round" stroke-linejoin="round"/>
    <path d="M 41.738712310791016 24.54030990600586 C 39.85591506958008 -6.45266056060791 51.39398956298828 22.694351196289062 43.35714340209961 14.177069664001465" stroke-width="2.0" fill="none" stroke="rgb(0, 0, 0)" stroke-opacity="1" stroke-linecap="round" stroke-linejoin="round"/>
    <path d="M 96.39532470703125 132.2615966796875 C 84.20440673828125 104.78971099853516 95.7790298461914 131.92562866210938 110.22783660888672 148.96078491210938 C 106.260009765625 150.39231872558594 96.63053894042969 121.31465148925781 108.53424835205078 140.75509643554688" stroke-width="2.0" fill="none" stroke="rgb(0, 0, 0)" stroke-opacity="1" stroke-linecap="round" stroke-linejoin="round"/>
    <path d="M 74.36495971679688 96.1279525756836 C 53.32735061645508 83.6906509399414 72.330078125 47.97017288208008 65.54673767089844 69.3072509765625 C 73.61976623535156 99.74529266357422 70.6039047241211 92.80548858642578 83.59915161132812 87.4144058227539" stroke-width="2.0" fill="none" stroke="rgb(0, 0, 0)" stroke-opacity="1" stroke-linecap="round" stroke-linejoin="round"/>
    <path d="M 195.67230224609375 56.32467269897461 C 204.51321411132812 71.0665054321289 190.56134033203125 29.996665954589844 197.12681579589844 53.72251892089844 C 193.99114990234375 45.329505920410156 179.68771362304688 45.208702087402344 192.04881286621094 32.98331832885742 C 214.40432739257812 -3.739269495010376 191.21568298339844 1.9496427774429321 188.84690856933594 17.988605499267578" stroke-width="2.0" fill="none" stroke="rgb(0, 0, 0)" stroke-opacity="1" stroke-linecap="round" stroke-linejoin="round"/>
    <path d="M 59.39087677001953 47.97589111328125 C 40.00104522705078 61.50046920776367 72.63807678222656 43.4791145324707 53.30918884277344 63.47169494628906 C 67.75081634521484 77.213623046875 70.4751205444336 79.01983642578125 60.78611755371094 46.77507400512695" stroke-width="2.0" fill="none" stroke="rgb(0, 0, 0)" stroke-opacity="1" stroke-linecap="round" stroke-linejoin="round"/>
    <path d="M 62.07929229736328 122.560546875 C 68.0992202758789 135.6415557861328 80.12329864501953 153.60183715820312 82.76366424560547 189.72372436523438 C 81.251708984375 169.83663940429688 86.87049865722656 163.72976684570312 70.7339859008789 133.06935119628906" stroke-width="2.0" fill="none" stroke="rgb(0, 0, 0)" stroke-opacity="1" stroke-linecap="round" stroke-linejoin="round"/>
    <path d="M 27.930604934692383 144.57571411132812 C 16.122751235961914 147.20997619628906 23.62293815612793 108.36793518066406 31.14936637878418 122.03524780273438 C 8.206700325012207 111.85708618164062 11.55609130859375 107.19615936279297 5.881969451904297 125.02523803710938 C 44.179195404052734 107.3947982788086 55.63267517089844 102.63013458251953 35.04018020629883 112.41813659667969" stroke-width="2.0" fill="none" stroke="rgb(0, 0, 0)" stroke-opacity="1" stroke-linecap="round" stroke-linejoin="round"/>
    <path d="M 4.346053123474121 150.62234497070312 C -6.492636680603027 184.9171600341797 1.301151156425476 230.16183471679688 8.323863983154297 214.98477172851562" stroke-width="2.0" fill="none" stroke="rgb(0, 0, 0)" stroke-opacity="1" stroke-linecap="round" stroke-linejoin="round"/>
    <path d="M 59.711002349853516 210.7431640625 C 36.66020202636719 216.23883056640625 53.900779724121094 183.1710205078125 43.16096496582031 187.5989532470703 C 56.995948791503906 186.72695922851562 53.642765045166016 183.69383239746094 53.521881103515625 202.90602111816406" stroke-width="2.0" fill="none" stroke="rgb(0, 0, 0)" stroke-opacity="1" stroke-linecap="round" stroke-linejoin="round"/>
    <path d="M 182.4014129638672 84.26262664794922 C 166.18331909179688 78.398681640625 177.94882202148438 110.83173370361328 203.8192138671875 115.01233673095703 C 198.54730224609375 100.03373718261719 208.35939025878906 118.55442810058594 189.48492431640625 99.706298828125 C 202.07666015625 86.224853515625 167.40969848632812 91.6881332397461 171.4737548828125 88.46090698242188" stroke-width="2.0" fill="none" stroke="rgb(0, 0, 0)" stroke-opacity="1" stroke-linecap="round" stroke-linejoin="round"/>
    <path d="M 29.165145874023438 9.500468254089355 C 26.249265670776367 37.82476043701172 39.51494216918945 16.489871978759766 26.22221565246582 6.802224159240723 C 14.085041999816895 37.763736724853516 46.709205627441406 35.763275146484375 35.87858200073242 9.083596229553223 C 15.87313175201416 -5.834793567657471 24.676204681396484 20.323936462402344 23.681177139282227 24.724445343017578" stroke-width="2.0" fill="none" stroke="rgb(0, 0, 0)" stroke-opacity="1" stroke-linecap="round" stroke-linejoin="round"/>
    <path d="M 199.2764129638672 68.53046417236328 C 194.7626190185547 81.18083953857422 182.81546020507812 57.92108917236328 174.434326171875 50.01470184326172" stroke-width="2.0" fill="none" stroke="rgb(0, 0, 0)" stroke-opacity="1" stroke-linecap="round" stroke-linejoin="round"/>
    <path d="M 165.98336791992188 41.10112762451172 C 158.6603546142578 19.803247451782227 163.666259765625 24.72372817993164 186.965576171875 4.440682888031006" stroke-width="2.0" fill="none" stroke="rgb(0, 0, 0)" stroke-opacity="1" stroke-linecap="round" stroke-linejoin="round"/>
    <path d="M 185.334716796875 212.4951629638672 C 186.2261199951172 201.13388061523438 179.00656127929688 196.15550231933594 182.05113220214844 209.22373962402344" stroke-width="2.0" fill="none" stroke="rgb(0, 0, 0)" stroke-opacity="1" stroke-linecap="round" stroke-linejoin="round"/>
    <path d="M 143.64683532714844 87.72090911865234 C 142.81234741210938 111.4886703491211 158.46389770507812 100.8394546508789 129.2640838623047 101.80834197998047 C 130.6685028076172 92.0573959350586 163.20278930664062 103.29581451416016 158.28184509277344 98.92201232910156" stroke-width="2.0" fill="none" stroke="rgb(0, 0, 0)" stroke-opacity="1" stroke-linecap="round" stroke-linejoin="round"/>
    <path d="M 147.78053283691406 25.222719192504883 C 174.1489715576172 33.021446228027344 161.07371520996094 53.74827575683594 165.62998962402344 33.72918701171875 C 178.80674743652344 41.74318313598633 164.7101593017578 53.31999969482422 175.32843017578125 41.97119903564453" stroke-width="2.0" fill="none" stroke="rgb(0, 0, 0)" stroke-opacity="1" stroke-linecap="round" stroke-linejoin="round"/>
    <path d="M 196.66989135742188 77.16813659667969 C 266.6120300292969 78.36498260498047 225.96815490722656 91.52519226074219 200.4326934814453 83.19002532958984 C 219.1431427001953 82.88420867919922 237.47886657714844 83.31086730957031 229.0887451171875 82.30841064453125" stroke-width="2.0" fill="none" stroke="rgb(0, 0, 0)" stroke-opacity="1" stroke-linecap="round" stroke-linejoin="round"/>
    <path d="M 151.91268920898438 86.27213287353516 C 131.7840118408203 74.42863464355469 138.6549835205078 97.51193237304688 163.07090759277344 106.5641098022461" stroke-width="2.0" fill="none" stroke="rgb(0, 0, 0)" stroke-opacity="1" stroke-linecap="round" stroke-linejoin="round"/>
    <path d="M 34.168006896972656 64.0560302734375 C 40.36417007446289 63.04887008666992 35.171112060546875 73.33372497558594 42.87420654296875 73.31515502929688" stroke-width="2.0" fill="none" stroke="rgb(0, 0, 0)" stroke-opacity="1" stroke-linecap="round" stroke-linejoin="round"/>
    <path d="M 192.99668884277344 46.93962860107422 C 198.22952270507812 46.337520599365234 185.8922882080078 64.94342803955078 175.8018035888672 41.224327087402344 C 183.4496307373047 63.921058654785156 164.1272430419922 42.28934860229492 170.3568572998047 50.07784652709961" stroke-width="2.0" fill="none" stroke="rgb(0, 0, 0)" stroke-opacity="1" stroke-linecap="round" stroke-linejoin="round"/>
    <path d="M 70.44530487060547 87.3654556274414 C 50.91648483276367 89.45287322998047 57.566986083984375 94.88249969482422 62.79536056518555 90.41509246826172" stroke-width="2.0" fill="none" stroke="rgb(0, 0, 0)" stroke-opacity="1" stroke-linecap="round" stroke-linejoin="round"/>
    <path d="M 44.3755989074707 211.43490600585938 C 42.43457794189453 159.4029541015625 44.8958625793457 150.95956420898438 42.19397735595703 210.93495178222656" stroke-width="2.0" fill="none" stroke="rgb(0, 0, 0)" stroke-opacity="1" stroke-linecap="round" stroke-linejoin="round"/>
    <path d="M 223.6143341064453 125.25411224365234 C 218.1492462158203 71.31340026855469 222.13864135742188 136.88246154785156 224.94631958007812 148.83021545410156 C 229.89340209960938 86.35758209228516 225.86001586914062 97.6702880859375 219.47970581054688 106.4442138671875" stroke-width="2.0" fill="none" stroke="rgb(0, 0, 0)" stroke-opacity="1" stroke-linecap="round" stroke-linejoin="round"/>
    <path d="M 143.03672790527344 26.475040435791016 C 141.0078582763672 31.430255889892578 138.4850616455078 33.489654541015625 162.7733917236328 56.64193344116211" stroke-width="2.0" fill="none" stroke="rgb(0, 0, 0)" stroke-opacity="1" stroke-linecap="round" stroke-linejoin="round"/>
    <path d="M 162.4765167236328 15.483918190002441 C 171.5929412841797 13.632853507995605 164.17892456054688 -3.9025120735168457 196.5252685546875 4.866962432861328 C 176.9720001220703 35.77475357055664 183.99893188476562 16.789249420166016 168.93772888183594 19.59586524963379 C 170.5409393310547 26.019502639770508 181.47613525390625 8.497920036315918 181.03292846679688 8.514423370361328" stroke-width="2.0" fill="none" stroke="rgb(0, 0, 0)" stroke-opacity="1" stroke-linecap="round" stroke-linejoin="round"/>
    <path d="M 119.1101303100586 98.32649993896484 C 154.16433715820312 134.23660278320312 145.72918701171875 124.23403930664062 147.8323516845703 101.7358169555664 C 151.28468322753906 118.60770416259766 147.07070922851562 116.33892059326172 127.8631362915039 117.38043212890625" stroke-width="2.0" fill="none" stroke="rgb(0, 0, 0)" stroke-opacity="1" stroke-linecap="round" stroke-linejoin="round"/>
    <path d="M 174.466552734375 166.5008087158203 C 185.89093017578125 157.21322631835938 180.85977172851562 216.49391174316406 180.07896423339844 165.894775390625 C 191.52662658691406 169.99642944335938 204.4661407470703 185.48825073242188 183.74781799316406 176.8738555908203" stroke-width="2.0" fill="none" stroke="rgb(0, 0, 0)" stroke-opacity="1" stroke-linecap="round" stroke-linejoin="round"/>
    <path d="M 176.28976440429688 64.40058135986328 C 194.11668395996094 78.2586669921875 189.74066162109375 96.52653503417969 191.41876220703125 121.68636322021484 C 199.07493591308594 91.71356964111328 182.9343719482422 75.50000762939453 191.780029296875 84.45716857910156" stroke-width="2.0" fill="none" stroke="rgb(0, 0, 0)" stroke-opacity="1" stroke-linecap="round" stroke-linejoin="round"/>
    <path d="M 194.761962890625 111.27024841308594 C 184.52113342285156 118.58915710449219 189.5341033935547 104.44805908203125 190.8912353515625 117.59538269042969 C 197.18544006347656 87.41990661621094 182.26736450195312 100.80895233154297 201.7353973388672 108.21692657470703 C 197.155029296875 87.58394622802734 187.73536682128906 70.61693572998047 177.802978515625 63.71168899536133" stroke-width="2.0" fill="none" stroke="rgb(0, 0, 0)" stroke-opacity="1" stroke-linecap="round" stroke-linejoin="round"/>
    <path d="M 114.52131652832031 212.95770263671875 C 147.05467224121094 208.099853515625 131.699462890625 213.91091918945312 109.3788070678711 223.08380126953125 C 145.672119140625 224.3590087890625 128.0338897705078 222.4618682861328 112.81798553466797 206.17189025878906 C 135.26681518554688 235.83676147460938 121.07868957519531 230.40577697753906 100.14979553222656 219.2650909423828" stroke-width="2.0" fill="none" stroke="rgb(0, 0, 0)" stroke-opacity="1" stroke-linecap="round" stroke-linejoin="round"/>
    <path d="M 206.0004425048828 174.39810180664062 C 195.98300170898438 171.4846954345703 205.929443359375 170.7389678955078 183.6102294921875 162.69839477539062 C 202.65174865722656 169.09893798828125 188.6243438720703 171.0465545654297 178.5352325439453 147.975341796875" stroke-width="2.0" fill="none" stroke="rgb(0, 0, 0)" stroke-opacity="1" stroke-linecap="round" stroke-linejoin="round"/>
    <path d="M 16.058937072753906 114.17403411865234 C -10.925664901733398 111.69441986083984 -17.807153701782227 122.88050079345703 -23.802593231201172 121.88101959228516 C -21.09168815612793 85.40206909179688 -27.16080093383789 93.44390106201172 -27.599262237548828 94.46258544921875 C -18.29123306274414 97.93647003173828 -28.67900848388672 107.93785858154297 -39.463741302490234 115.62347412109375" stroke-width="2.0" fill="none" stroke="rgb(0, 0, 0)" stroke-opacity="1" stroke-linecap="round" stroke-linejoin="round"/>
    <path d="M 218.36236572265625 -8.671195983886719 C 226.5430145263672 27.77004623413086 225.46267700195312 52.673309326171875 228.96112060546875 2.310555934906006" stroke-width="2.0" fill="none" stroke="rgb(0, 0, 0)" stroke-opacity="1" stroke-linecap="round" stroke-linejoin="round"/>
    <path d="M 193.51478576660156 113.1742172241211 C 191.03590393066406 94.29772186279297 191.03494262695312 120.90245819091797 192.0436553955078 113.40003967285156 C 153.15579223632812 133.45944213867188 184.38047790527344 156.52723693847656 193.10194396972656 112.35209655761719 C 177.5203399658203 121.31195831298828 173.50538635253906 126.18158721923828 205.40980529785156 118.92050170898438" stroke-width="2.0" fill="none" stroke="rgb(0, 0, 0)" stroke-opacity="1" stroke-linecap="round" stroke-linejoin="round"/>
    <path d="M 145.77061462402344 180.46527099609375 C 140.31088256835938 160.113037109375 145.46139526367188 153.93643188476562 145.20921325683594 175.9000701904297" stroke-width="2.0" fill="none" stroke="rgb(0, 0, 0)" stroke-opacity="1" stroke-linecap="round" stroke-linejoin="round"/>
    <path d="M 25.393991470336914 101.7926025390625 C 21.122581481933594 90.70477294921875 51.838294982910156 102.34734344482422 44.96002197265625 91.73371124267578 C 55.51723098754883 106.10789489746094 53.874107360839844 106.7318115234375 49.91740798950195 103.79943084716797 C 59.5121955871582 113.88599395751953 67.59447479248047 135.4192657470703 67.06430053710938 126.18661499023438" stroke-width="2.0" fill="none" stroke="rgb(0, 0, 0)" stroke-opacity="1" stroke-linecap="round" stroke-linejoin="round"/>
    <path d="M 100.83912658691406 181.96546936035156 C 121.45227813720703 180.51068115234375 116.66934204101562 171.66709899902344 115.58447265625 170.313232421875 C 140.4858856201172 184.07406616210938 128.6426239013672 126.72319793701172 108.44940948486328 150.97396850585938 C 162.6058807373047 153.33641052246094 155.54249572753906 156.31431579589844 145.25570678710938 139.68826293945312" stroke-width="2.0" fill="none" stroke="rgb(0, 0, 0)" stroke-opacity="1" stroke-linecap="round" stroke-linejoin="round"/>
    <path d="M 75.72858428955078 93.059814453125 C 80.056396484375 64.03179931640625 66.63209533691406 61.26043701171875 92.03070068359375 58.9858512878418" stroke-width="2.0" fill="none" stroke="rgb(0, 0, 0)" stroke-opacity="1" stroke-linecap="round" stroke-linejoin="round"/>
    <path d="M 127.7658462524414 163.97933959960938 C 121.09124755859375 121.72659301757812 112.1261978149414 139.54527282714844 130.87814331054688 131.63046264648438 C 147.48423767089844 115.13567352294922 160.2801971435547 144.56056213378906 127.6534423828125 140.7436065673828" stroke-width="2.0" fill="none" stroke="rgb(0, 0, 0)" stroke-opacity="1" stroke-linecap="round" stroke-linejoin="round"/>
    <path d="M 25.338085174560547 150.21446228027344 C 30.19428825378418 152.3314208984375 -3.7110424041748047 143.60696411132812 1.1554657220840454 161.3470001220703" stroke-width="2.0" fill="none" stroke="rgb(0, 0, 0)" stroke-opacity="1" stroke-linecap="round" stroke-linejoin="round"/>
    <path d="M 234.1569061279297 38.57497024536133 C 199.03549194335938 46.6584587097168 198.49578857421875 46.09701156616211 201.9191131591797 36.826786041259766 C 196.459716796875 48.61251449584961 214.26754760742188 79.93331146240234 205.1813507080078 45.31062698364258 C 230.25515747070312 69.6853256225586 200.82794189453125 55.869476318359375 229.439453125 62.026031494140625" stroke-width="2.0" fill="none" stroke="rgb(0, 0, 0)" stroke-opacity="1" stroke-linecap="round" stroke-linejoin="round"/>
    <path d="M 79.20536804199219 151.10549926757812 C 78.5882568359375 148.3915252685547 75.66981506347656 153.4123077392578 91.44086456298828 152.32864379882812" stroke-width="2.0" fill="none" stroke="rgb(0, 0, 0)" stroke-opacity="1" stroke-linecap="round" stroke-linejoin="round"/>
    <path d="M 130.5391082763672 146.55882263183594 C 137.63259887695312 131.5436553955078 144.82769775390625 164.00022888183594 137.05262756347656 144.1086883544922 C 136.7977294921875 131.51881408691406 150.2496337890625 124.46005249023438 165.17063903808594 116.99042510986328 C 196.59490966796875 137.79254150390625 166.80946350097656 134.44976806640625 147.02346801757812 108.48869323730469" stroke-width="2.0" fill="none" stroke="rgb(0, 0, 0)" stroke-opacity="1" stroke-linecap="round" stroke-linejoin="round"/>
    <path d="M -1.2551335096359253 71.79631042480469 C 5.419665336608887 19.637128829956055 1.6240109205245972 16.872365951538086 -22.3997745513916 12.612926483154297 C -18.416915893554688 -4.207259178161621 -26.846725463867188 -7.5870513916015625 -35.84954071044922 -17.904142379760742 C -25.3425235748291 -21.868534088134766 -29.384429931640625 -32.709712982177734 -21.793344497680664 -28.777570724487305" stroke-width="2.0" fill="none" stroke="rgb(0, 0, 0)" stroke-opacity="1" stroke-linecap="round" stroke-linejoin="round"/>
    <path d="M 123.63072204589844 57.48347091674805 C 71.78231048583984 70.55511474609375 100.39762115478516 60.14495849609375 113.46027374267578 52.25675964355469 C 137.3275909423828 47.806419372558594 103.60155487060547 65.35055541992188 105.522705078125 65.03641510009766" stroke-width="2.0" fill="none" stroke="rgb(0, 0, 0)" stroke-opacity="1" stroke-linecap="round" stroke-linejoin="round"/>
    <path d="M 184.60379028320312 127.11365509033203 C 201.52175903320312 138.8309326171875 189.7327117919922 152.2605438232422 193.6787872314453 153.6206512451172 C 191.6212615966797 134.6558380126953 196.29652404785156 163.66522216796875 190.47476196289062 154.81411743164062 C 201.99681091308594 164.84519958496094 212.28213500976562 157.93519592285156 195.77296447753906 177.1244659423828" stroke-width="2.0" fill="none" stroke="rgb(0, 0, 0)" stroke-opacity="1" stroke-linecap="round" stroke-linejoin="round"/>
    <path d="M 91.97968292236328 102.27364349365234 C 90.71856689453125 109.03359985351562 79.1974105834961 114.13514709472656 74.51948547363281 95.76480102539062 C 68.68785095214844 108.27351379394531 95.22264862060547 114.2402114868164 69.85311889648438 119.39263916015625 C 88.1566162109375 123.01799011230469 84.9787826538086 108.15036010742188 72.55335998535156 117.3540267944336" stroke-width="2.0" fill="none" stroke="rgb(0, 0, 0)" stroke-opacity="1" stroke-linecap="round" stroke-linejoin="round"/>
    <path d="M 62.14636993408203 146.58558654785156 C 46.77819061279297 153.8587188720703 77.39575958251953 156.78643798828125 60.16871643066406 139.73170471191406" stroke-width="2.0" fill="none" stroke="rgb(0, 0, 0)" stroke-opacity="1" stroke-linecap="round" stroke-linejoin="round"/>
    <path d="M 35.55127716064453 143.2432861328125 C 30.769922256469727 155.40472412109375 38.16511917114258 150.5439453125 16.28742790222168 117.96381378173828 C 54.90581512451172 121.34303283691406 49.886287689208984 130.83087158203125 36.49932098388672 100.49820709228516" stroke-width="2.0" fill="none" stroke="rgb(0, 0, 0)" stroke-opacity="1" stroke-linecap="round" stroke-linejoin="round"/>
    <path d="M 17.93424415588379 236.66041564941406 C 17.774229049682617 207.7976531982422 8.024720191955566 212.42796325683594 42.39466857910156 210.67686462402344 C -8.836282730102539 207.36509704589844 -12.267788887023926 214.91795349121094 12.341621398925781 229.486328125 C 14.825948715209961 192.74169921875 8.525376319885254 209.00172424316406 13.921952247619629 210.6438446044922" stroke-width="2.0" fill="none" stroke="rgb(0, 0, 0)" stroke-opacity="1" stroke-linecap="round" stroke-linejoin="round"/>
    <path d="M 19.795373916625977 111.33914184570312 C 16.00351905822754 102.61536407470703 19.115060806274414 115.10045623779297 20.701038360595703 135.94500732421875 C 24.184967041015625 126.35894775390625 30.680179595947266 127.3886947631836 -7.725770950317383 130.45101928710938" stroke-width="2.0" fill="none" stroke="rgb(0, 0, 0)" stroke-opacity="1" stroke-linecap="round" stroke-linejoin="round"/>
    <path d="M 85.9113998413086 139.538818359375 C 101.64303588867188 171.3596649169922 106.6009521484375 172.18649291992188 96.16434478759766 166.19866943359375" stroke-width="2.0" fill="none" stroke="rgb(0, 0, 0)" stroke-opacity="1" stroke-linecap="round" stroke-linejoin="round"/>
    <path d="M 140.3843231201172 42.95853805541992 C 159.44972229003906 47.346717834472656 156.38302612304688 47.08220291137695 150.86875915527344 47.65398406982422 C 157.0232391357422 51.11445617675781 171.32652282714844 50.53636169433594 139.8459014892578 54.66843032836914" stroke-width="2.0" fill="none" stroke="rgb(0, 0, 0)" stroke-opacity="1" stroke-linecap="round" stroke-linejoin="round"/>
    <path d="M 85.78595733642578 99.08328247070312 C 89.07295989990234 111.24195861816406 67.1181869506836 100.74224090576172 67.46045684814453 68.46427917480469" stroke-width="2.0" fill="none" stroke="rgb(0, 0, 0)" stroke-opacity="1" stroke-linecap="round" stroke-linejoin="round"/>
    <path d="M 58.91583251953125 209.39122009277344 C 60.34458541870117 214.61770629882812 65.48236846923828 195.60409545898438 56.594459533691406 179.30897521972656 C 79.53899383544922 184.44827270507812 31.302242279052734 179.72613525390625 56.52885055541992 178.72860717773438 C 48.206390380859375 158.9658203125 61.334068298339844 196.25389099121094 50.5018310546875 174.43203735351562" stroke-width="2.0" fill="none" stroke="rgb(0, 0, 0)" stroke-opacity="1" stroke-linecap="round" stroke-linejoin="round"/>
    <path d="M 203.32705688476562 118.94216918945312 C 203.84213256835938 145.299560546875 204.31089782714844 110.81534576416016 201.666015625 115.25740814208984" stroke-width="2.0" fill="none" stroke="rgb(0, 0, 0)" stroke-opacity="1" stroke-linecap="round" stroke-linejoin="round"/>
    <path d="M 163.1284637451172 179.9580535888672 C 157.17726135253906 185.16311645507812 164.51422119140625 161.6103057861328 166.9890899658203 185.18821716308594 C 157.5556182861328 190.8036651611328 146.4649200439453 162.44338989257812 167.9217071533203 170.3592071533203" stroke-width="2.0" fill="none" stroke="rgb(0, 0, 0)" stroke-opacity="1" stroke-linecap="round" stroke-linejoin="round"/>
    <path d="M 58.62973403930664 96.47518157958984 C 50.80344772338867 107.6795425415039 52.11079025268555 107.29993438720703 35.943626403808594 85.51846313476562" stroke-width="2.0" fill="none" stroke="rgb(0, 0, 0)" stroke-opacity="1" stroke-linecap="round" stroke-linejoin="round"/>
    <path d="M 172.541748046875 136.60546875 C 186.03573608398438 151.1802520751953 149.53050231933594 173.5557861328125 164.67884826660156 147.46884155273438" stroke-width="2.0" fill="none" stroke="rgb(0, 0, 0)" stroke-opacity="1" stroke-linecap="round" stroke-linejoin="round"/>
    <path d="M 165.50942993164062 97.68522644042969 C 181.25633239746094 103.2335205078125 171.24679565429688 99.25190734863281 177.5880126953125 111.6004409790039" stroke-width="2.0" fill="none" stroke="rgb(0, 0, 0)" stroke-opacity="1" stroke-linecap="round" stroke-linejoin="round"/>
    <path d="M 199.15602111816406 82.39199829101562 C 229.82424926757812 120.29164123535156 223.28494262695312 153.13031005859375 222.3683319091797 74.72339630126953 C 233.7796173095703 49.03078842163086 240.76292419433594 45.843421936035156 255.44737243652344 63.739166259765625" stroke-width="2.0" fill="none" stroke="rgb(0, 0, 0)" stroke-opacity="1" stroke-linecap="round" stroke-linejoin="round"/>
    <path d="M 19.159893035888672 114.06611633300781 C 56.037513732910156 103.61648559570312 24.88079261779785 99.60298156738281 24.651079177856445 107.72380828857422 C 19.569862365722656 63.52104568481445 30.98482322692871 77.30393981933594 3.0170488357543945 77.06926727294922 C 6.41937255859375 115.85832214355469 -6.958322525024414 101.898681640625 24.797401428222656 102.99971771240234" stroke-width="2.0" fill="none" stroke="rgb(0, 0, 0)" stroke-opacity="1" stroke-linecap="round" stroke-linejoin="round"/>
    <path d="M 45.242530822753906 49.875633239746094 C 50.888973236083984 50.69881820678711 49.91387939453125 38.55439376831055 50.907562255859375 46.919761657714844" stroke-width="2.0" fill="none" stroke="rgb(0, 0, 0)" stroke-opacity="1" stroke-linecap="round" stroke-linejoin="round"/>
    <path d="M 59.57065963745117 91.64505767822266 C 60.47977828979492 88.56378173828125 65.59476470947266 84.39259338378906 53.58211898803711 95.54305267333984 C 50.402530670166016 100.66166687011719 57.260189056396484 86.46123504638672 63.573795318603516 97.96855163574219 C 51.70896530151367 113.97368621826172 53.3564453125 102.78860473632812 52.05477523803711 109.69060516357422" stroke-width="2.0" fill="none" stroke="rgb(0, 0, 0)" stroke-opacity="1" stroke-linecap="round" stroke-linejoin="round"/>
    <path d="M 90.27804565429688 232.44956970214844 C 97.99014282226562 233.13975524902344 87.47506713867188 236.52706909179688 78.85587310791016 241.136962890625 C 72.72537994384766 233.77638244628906 65.70796203613281 242.2172393798828 67.66541290283203 231.51373291015625" stroke-width="2.0" fill="none" stroke="rgb(0, 0, 0)" stroke-opacity="1" stroke-linecap="round" stroke-linejoin="round"/>
    <path d="M 31.970233917236328 167.34912109375 C 46.147151947021484 163.7401123046875 16.84086036682129 155.7740936279297 51.086307525634766 151.23558044433594 C 33.9578971862793 139.2533721923828 80.47593688964844 146.02133178710938 65.54837799072266 149.22216796875 C 83.05770111083984 147.01939392089844 66.39263153076172 148.492919921875 56.8467903137207 150.50950622558594" stroke-width="2.0" fill="none" stroke="rgb(0, 0, 0)" stroke-opacity="1" stroke-linecap="round" stroke-linejoin="round"/>
    <path d="M 142.35243225097656 152.60792541503906 C 125.87602996826172 154.06028747558594 154.14845275878906 161.4022674560547 154.84861755371094 143.06155395507812 C 150.80174255371094 160.30905151367188 160.60511779785156 166.40895080566406 147.77545166015625 144.34584045410156" stroke-width="2.0" fill="none" stroke="rgb(0, 0, 0)" stroke-opacity="1" stroke-linecap="round" stroke-linejoin="round"/>
    <path d="M 236.55491638183594 189.935791015625 C 209.6896209716797 178.4832000732422 203.10574340820312 171.0931854248047 184.06741333007812 161.7501220703125 C 202.47940063476562 173.92921447753906 200.7741241455078 174.28631591796875 214.1940155029297 179.31649780273438" stroke-width="2.0" fill="none" stroke="rgb(0, 0, 0)" stroke-opacity="1" stroke-linecap="round" stroke-linejoin="round"/>
    <path d="M 7.7636027336120605 145.06906127929688 C -13.999053955078125 154.2127227783203 -9.826492309570312 146.683837890625 7.465540409088135 140.68264770507812" stroke-width="2.0" fill="none" stroke="rgb(0, 0, 0)" stroke-opacity="1" stroke-linecap="round" stroke-linejoin="round"/>
    <path d="M 187.83956909179688 96.24827575683594 C 209.4931640625 110.63680267333984 197.39466857910156 98.2831039428711 187.5052947998047 85.63956451416016 C 199.2299041748047 92.96549987792969 197.8157501220703 85.95600891113281 191.07470703125 89.2530746459961 C 187.70596313476562 88.07052612304688 192.71343994140625 75.18812561035156 182.66119384765625 77.13446044921875" stroke-width="2.0" fill="none" stroke="rgb(0, 0, 0)" stroke-opacity="1" stroke-linecap="round" stroke-linejoin="round"/>
    <path d="M 150.30593872070312 56.83066177368164 C 139.0440216064453 45.59084701538086 117.54713439941406 61.10792922973633 104.41597747802734 47.48219299316406 C 86.13674926757812 56.423683166503906 83.03978729248047 40.53120422363281 109.14601135253906 46.80480194091797 C 71.29228973388672 39.66946792602539 86.03082275390625 36.38622283935547 126.1224365234375 37.12588882446289" stroke-width="2.0" fill="none" stroke="rgb(0, 0, 0)" stroke-opacity="1" stroke-linecap="round" stroke-linejoin="round"/>
    <path d="M 34.2277946472168 183.3641815185547 C 48.41234588623047 187.55238342285156 36.918487548828125 168.84788513183594 40.175437927246094 188.1121368408203 C 27.318357467651367 189.22601318359375 62.969635009765625 178.57833862304688 40.808528900146484 172.8139190673828" stroke-width="2.0" fill="none" stroke="rgb(0, 0, 0)" stroke-opacity="1" stroke-linecap="round" stroke-linejoin="round"/>
    <path d="M -5.128227710723877 15.277539253234863 C 8.153016090393066 -1.477874755859375 -4.917442321777344 30.01544952392578 -4.1125359535217285 33.862449645996094" stroke-width="2.0" fill="none" stroke="rgb(0, 0, 0)" stroke-opacity="1" stroke-linecap="round" stroke-linejoin="round"/>
    <path d="M 108.3795166015625 15.044089317321777 C 78.82600402832031 14.76244068145752 91.06683349609375 8.275795936584473 112.57030487060547 22.319873809814453 C 106.19417572021484 28.271862030029297 95.2408447265625 40.26242446899414 130.464599609375 41.07659149169922" stroke-width="2.0" fill="none" stroke="rgb(0, 0, 0)" stroke-opacity="1" stroke-linecap="round" stroke-linejoin="round"/>
    <path d="M 67.48271179199219 12.875741004943848 C 105.2917709350586 11.613898277282715 83.4326400756836 14.521468162536621 51.360023498535156 17.62708282470703 C 67.32315063476562 18.71805191040039 47.39427185058594 32.60703659057617 52.74257278442383 -3.4651150703430176" stroke-width="2.0" fill="none" stroke="rgb(0, 0, 0)" stroke-opacity="1" stroke-linecap="round" stroke-linejoin="round"/>
    <path d="M 136.334716796875 208.9958953857422 C 111.1584701538086 215.07769775390625 101.22625732421875 207.47085571289062 106.906494140625 231.53314208984375 C 94.35900115966797 223.12124633789062 69.12066650390625 227.2853546142578 34.66770935058594 221.50338745117188 C 68.81635284423828 234.24913024902344 75.26904296875 213.7585906982422 61.052066802978516 233.2196807861328" stroke-width="2.0" fill="none" stroke="rgb(0, 0, 0)" stroke-opacity="1" stroke-linecap="round" stroke-linejoin="round"/>
    <path d="M 192.1459503173828 195.14849853515625 C 198.56260681152344 207.8773956298828 202.38058471679688 238.4128875732422 196.0149383544922 194.87326049804688" stroke-width="2.0" fill="none" stroke="rgb(0, 0, 0)" stroke-opacity="1" stroke-linecap="round" stroke-linejoin="round"/>
    <path d="M 189.27841186523438 156.78207397460938 C 177.55519104003906 158.97352600097656 160.34317016601562 163.04991149902344 172.84178161621094 152.7832489013672 C 187.41200256347656 166.98191833496094 206.01431274414062 194.29624938964844 173.47836303710938 186.29336547851562 C 171.96168518066406 139.1724090576172 172.0889129638672 178.93881225585938 178.07887268066406 173.9073486328125" stroke-width="2.0" fill="none" stroke="rgb(0, 0, 0)" stroke-opacity="1" stroke-linecap="round" stroke-linejoin="round"/>
    <path d="M 128.4212646484375 162.401123046875 C 96.9188003540039 164.98995971679688 121.7923355102539 171.2968292236328 114.22187042236328 161.8751220703125 C 107.19021606445312 142.66741943359375 101.57035064697266 151.2516326904297 123.62673950195312 145.31539916992188 C 132.64430236816406 156.2173309326172 125.79752349853516 184.75601196289062 111.1343002319336 144.20895385742188" stroke-width="2.0" fill="none" stroke="rgb(0, 0, 0)" stroke-opacity="1" stroke-linecap="round" stroke-linejoin="round"/>
    <path d="M 85.82657623291016 42.352664947509766 C 80.84208679199219 38.98897171020508 84.45408630371094 33.72085952758789 82.65210723876953 42.00875473022461 C 125.81103515625 43.508636474609375 129.08726501464844 44.363929748535156 97.48007202148438 18.865610122680664 C 114.77084350585938 22.89552116394043 97.70758056640625 42.97699737548828 91.98804473876953 40.21824645996094" stroke-width="2.0" fill="none" stroke="rgb(0, 0, 0)" stroke-opacity="1" stroke-linecap="round" stroke-linejoin="round"/>
    <path d="M 142.03555297851562 19.0953369140625 C 169.57130432128906 25.66265869140625 170.830078125 40.033668518066406 142.8920135498047 36.47637939453125 C 137.15817260742188 27.71481704711914 146.45962524414062 26.7289981842041 162.73492431640625 -5.795314311981201 C 140.67288208007812 32.177825927734375 137.5306396484375 19.6135196685791 172.88458251953125 32.2672004699707" stroke-width="2.0" fill="none" stroke="rgb(0, 0, 0)" stroke-opacity="1" stroke-linecap="round" stroke-linejoin="round"/>
    <path d="M 88.5018081665039 55.33818435668945 C 124.29087829589844 73.746826171875 77.92539978027344 59.51777267456055 105.08375549316406 68.90743255615234" stroke-width="2.0" fill="none" stroke="rgb(0, 0, 0)" stroke-opacity="1" stroke-linecap="round" stroke-linejoin="round"/>
    <path d="M 179.1642608642578 229.4523468017578 C 169.1103515625 213.60325622558594 181.23468017578125 234.3104248046875 138.92803955078125 221.087158203125 C 121.62287139892578 228.3287811279297 152.15655517578125 219.06253051757812 153.5619659423828 226.1531982421875" stroke-width="2.0" fill="none" stroke="rgb(0, 0, 0)" stroke-opacity="1" stroke-linecap="round" stroke-linejoin="round"/>
    <path d="M 115.54887390136719 111.31251525878906 C 136.9531707763672 144.10287475585938 136.19166564941406 144.66558837890625 128.7359619140625 122.80278778076172" stroke-width="2.0" fill="none" stroke="rgb(0, 0, 0)" stroke-opacity="1" stroke-linecap="round" stroke-linejoin="round"/>
    <path d="M 205.79832458496094 16.665023803710938 C 206.55453491210938 7.724496841430664 218.63623046875 18.03257942199707 200.73341369628906 5.927131652832031 C 201.32608032226562 2.6841297149658203 185.1796112060547 34.286659240722656 184.8800811767578 21.098108291625977" stroke-width="2.0" fill="none" stroke="rgb(0, 0, 0)" stroke-opacity="1" stroke-linecap="round" stroke-linejoin="round"/>
    <path d="M -8.680763244628906 30.543596267700195 C -16.330812454223633 26.55179786682129 -18.07187843322754 18.922449111938477 -11.313225746154785 20.66543960571289 C -14.380093574523926 17.169189453125 -19.036420822143555 24.327699661254883 -30.066255569458008 30.59194564819336 C -35.285484313964844 24.51517677307129 -31.319622039794922 28.644874572753906 -32.011024475097656 34.229087829589844" stroke-width="2.0" fill="none" stroke="rgb(0, 0, 0)" stroke-opacity="1" stroke-linecap="round" stroke-linejoin="round"/>
    <path d="M 157.02359008789062 99.83035278320312 C 156.89678955078125 61.334468841552734 151.0926513671875 73.90326690673828 151.8215789794922 97.73929595947266" stroke-width="2.0" fill="none" stroke="rgb(0, 0, 0)" stroke-opacity="1" stroke-linecap="round" stroke-linejoin="round"/>
    <path d="M 128.76580810546875 218.48216247558594 C 117.95671081542969 229.37081909179688 136.99671936035156 207.00772094726562 110.48930358886719 200.0906219482422 C 130.0509796142578 198.39027404785156 130.20742797851562 189.609375 136.96075439453125 196.62940979003906 C 105.15581512451172 191.6558380126953 127.24554443359375 232.0315399169922 105.31634521484375 213.02593994140625" stroke-width="2.0" fill="none" stroke="rgb(0, 0, 0)" stroke-opacity="1" stroke-linecap="round" stroke-linejoin="round"/>
    <path d="M 27.12995719909668 113.2127456665039 C 30.178756713867188 117.74334716796875 26.748361587524414 129.4658966064453 22.575544357299805 134.8406982421875 C 45.402774810791016 122.83226776123047 57.897789001464844 132.86221313476562 52.116085052490234 129.78834533691406" stroke-width="2.0" fill="none" stroke="rgb(0, 0, 0)" stroke-opacity="1" stroke-linecap="round" stroke-linejoin="round"/>
    <path d="M 207.94505310058594 136.5958251953125 C 203.82855224609375 161.39793395996094 206.65032958984375 144.11080932617188 205.05010986328125 143.96151733398438" stroke-width="2.0" fill="none" stroke="rgb(0, 0, 0)" stroke-opacity="1" stroke-linecap="round" stroke-linejoin="round"/>
    <path d="M 7.591506481170654 156.10845947265625 C 18.209592819213867 155.88804626464844 2.203139543533325 142.1947479248047 3.0729663372039795 195.90122985839844" stroke-width="2.0" fill="none" stroke="rgb(0, 0, 0)" stroke-opacity="1" stroke-linecap="round" stroke-linejoin="round"/>
    <path d="M 153.9336700439453 197.73385620117188 C 193.35836791992188 189.296875 215.58338928222656 195.67811584472656 177.30508422851562 195.855224609375 C 171.51283264160156 216.2260284423828 179.21096801757812 217.85902404785156 188.08921813964844 217.52220153808594 C 192.63877868652344 216.93179321289062 186.10047912597656 190.2937469482422 182.07508850097656 207.03280639648438" stroke-width="2.0" fill="none" stroke="rgb(0, 0, 0)" stroke-opacity="1" stroke-linecap="round" stroke-linejoin="round"/>
    <path d="M 168.21861267089844 212.7290802001953 C 175.43341064453125 194.00006103515625 176.71495056152344 222.67889404296875 158.0464324951172 192.9034423828125" stroke-width="2.0" fill="none" stroke="rgb(0, 0, 0)" stroke-opacity="1" stroke-linecap="round" stroke-linejoin="round"/>
    <path d="M 155.58990478515625 59.926143646240234 C 109.17323303222656 62.26881790161133 176.88563537597656 69.20594024658203 134.37290954589844 82.1899642944336 C 146.88864135742188 88.33486938476562 144.74227905273438 91.43994903564453 148.85107421875 106.3479232788086 C 141.79490661621094 99.05982208251953 151.8680877685547 89.39923095703125 143.42343139648438 88.56378936767578" stroke-width="2.0" fill="none" stroke="rgb(0, 0, 0)" stroke-opacity="1" stroke-linecap="round" stroke-linejoin="round"/>
    <path d="M 146.97605895996094 83.21541595458984 C 203.71437072753906 69.7549057006836 142.33277893066406 75.2403335571289 152.32749938964844 56.72526550292969" stroke-width="2.0" fill="none" stroke="rgb(0, 0, 0)" stroke-opacity="1" stroke-linecap="round" stroke-linejoin="round"/>
    <path d="M 31.511144638061523 143.86683654785156 C 3.559762954711914 144.2642822265625 -6.92653751373291 141.23455810546875 43.806419372558594 137.5810089111328 C 41.37826919555664 131.89581298828125 31.987245559692383 133.6984405517578 -14.437483787536621 135.72955322265625" stroke-width="2.0" fill="none" stroke="rgb(0, 0, 0)" stroke-opacity="1" stroke-linecap="round" stroke-linejoin="round"/>
    <path d="M 15.87563419342041 96.99224090576172 C 17.8233642578125 65.01480865478516 19.562925338745117 74.1497573852539 -17.08014678955078 71.54080200195312 C 0.8157802820205688 69.60882568359375 -10.24504280090332 79.35411071777344 -12.81869888305664 74.22249603271484 C -4.50052547454834 70.92491912841797 -13.353071212768555 63.976078033447266 -12.853891372680664 68.728271484375" stroke-width="2.0" fill="none" stroke="rgb(0, 0, 0)" stroke-opacity="1" stroke-linecap="round" stroke-linejoin="round"/>
    <path d="M 80.77716827392578 169.11090087890625 C 79.78472900390625 194.9180145263672 87.86109924316406 179.60057067871094 81.14020538330078 173.64108276367188 C 88.17158508300781 182.4630126953125 94.24424743652344 161.23475646972656 82.6598129272461 177.33030700683594" stroke-width="2.0" fill="none" stroke="rgb(0, 0, 0)" stroke-opacity="1" stroke-linecap="round" stroke-linejoin="round"/>
    <path d="M 93.18059539794922 106.91979217529297 C 79.22407531738281 118.1143798828125 77.83110046386719 97.6801528930664 70.12826538085938 90.54682922363281" stroke-width="2.0" fill="none" stroke="rgb(0, 0, 0)" stroke-opacity="1" stroke-linecap="round" stroke-linejoin="round"/>
    <path d="M 114.76700592041016 94.72251892089844 C 161.74246215820312 96.02627563476562 162.3977813720703 79.76884460449219 131.1293182373047 66.48139190673828" stroke-width="2.0" fill="none" stroke="rgb(0, 0, 0)" stroke-opacity="1" stroke-linecap="round" stroke-linejoin="round"/>
    <path d="M 38.66930389404297 -6.8194499015808105 C 40.12102127075195 -0.3013993203639984 50.37931823730469 -5.289282321929932 60.614105224609375 -7.9978108406066895" stroke-width="2.0" fill="none" stroke="rgb(0, 0, 0)" stroke-opacity="1" stroke-linecap="round" stroke-linejoin="round"/>
    <path d="M 78.41737365722656 150.21026611328125 C 83.81149291992188 161.24688720703125 73.89668273925781 154.1673126220703 95.58692932128906 157.50259399414062" stroke-width="2.0" fill="none" stroke="rgb(0, 0, 0)" stroke-opacity="1" stroke-linecap="round" stroke-linejoin="round"/>
    <path d="M 106.23330688476562 119.60176086425781 C 91.81620788574219 113.3981704711914 124.01102447509766 146.05667114257812 104.95936584472656 133.0928497314453" stroke-width="2.0" fill="none" stroke="rgb(0, 0, 0)" stroke-opacity="1" stroke-linecap="round" stroke-linejoin="round"/>
    <path d="M 59.252662658691406 -5.430845737457275 C 35.404571533203125 10.832019805908203 65.43031311035156 0.06695044040679932 60.31267166137695 2.8260269165039062 C 60.24766540527344 -16.04016876220703 60.111446380615234 -17.08574676513672 44.22468948364258 -15.181053161621094" stroke-width="2.0" fill="none" stroke="rgb(0, 0, 0)" stroke-opacity="1" stroke-linecap="round" stroke-linejoin="round"/>
    <path d="M 214.83319091796875 37.80863952636719 C 238.61134338378906 6.24339485168457 237.5209197998047 64.7337646484375 213.59730529785156 51.64308547973633 C 211.65896606445312 76.1988296508789 224.8867645263672 46.81212615966797 202.57928466796875 22.460262298583984 C 195.59820556640625 52.01735305786133 209.84840393066406 66.3957748413086 198.95823669433594 42.393917083740234" stroke-width="2.0" fill="none" stroke="rgb(0, 0, 0)" stroke-opacity="1" stroke-linecap="round" stroke-linejoin="round"/>
    <path d="M 152.88973999023438 159.10543823242188 C 124.81795501708984 165.1439208984375 170.50975036621094 162.81109619140625 170.46437072753906 165.26153564453125 C 161.1250762939453 154.58470153808594 192.94512939453125 166.36422729492188 186.37693786621094 140.6419219970703" stroke-width="2.0" fill="none" stroke="rgb(0, 0, 0)" stroke-opacity="1" stroke-linecap="round" stroke-linejoin="round"/>
    <path d="M 52.27985382080078 129.33743286132812 C 52.82563400268555 135.6561279296875 72.53568267822266 132.0563201904297 62.31599044799805 132.01962280273438" stroke-width="2.0" fill="none" stroke="rgb(0, 0, 0)" stroke-opacity="1" stroke-linecap="round" stroke-linejoin="round"/>
    <path d="M 39.4942741394043 131.79859924316406 C 53.168582916259766 128.99514770507812 82.68086242675781 119.4203872680664 41.553314208984375 121.536376953125" stroke-width="2.0" fill="none" stroke="rgb(0, 0, 0)" stroke-opacity="1" stroke-linecap="round" stroke-linejoin="round"/>
    <path d="M 165.07766723632812 107.35958099365234 C 154.03028869628906 98.5912857055664 156.93199157714844 79.16152954101562 164.64520263671875 99.37911987304688 C 145.6383514404297 132.16534423828125 155.51454162597656 106.18602752685547 149.42605590820312 84.07826232910156 C 134.41517639160156 62.3355827331543 107.87954711914062 77.95650482177734 136.01104736328125 92.84772491455078" stroke-width="2.0" fill="none" stroke="rgb(0, 0, 0)" stroke-opacity="1" stroke-linecap="round" stroke-linejoin="round"/>
    <path d="M -6.009230613708496 26.676111221313477 C -16.083541870117188 6.889406204223633 3.6586098670959473 1.2226725816726685 0.15544381737709045 48.60045623779297 C 6.235293388366699 28.834457397460938 -11.284311294555664 40.9302978515625 36.78424072265625 31.214641571044922" stroke-width="2.0" fill="none" stroke="rgb(0, 0, 0)" stroke-opacity="1" stroke-linecap="round" stroke-linejoin="round"/>
    <path d="M 143.7026824951172 194.4431915283203 C 126.64210510253906 197.51593017578125 141.94961547851562 204.83828735351562 133.25350952148438 199.3189697265625 C 101.86312866210938 191.7738800048828 126.33614349365234 187.82652282714844 127.20116424560547 200.58639526367188 C 87.991943359375 203.86802673339844 157.32582092285156 202.48272705078125 126.1416015625 222.1953125" stroke-width="2.0" fill="none" stroke="rgb(0, 0, 0)" stroke-opacity="1" stroke-linecap="round" stroke-linejoin="round"/>
    <path d="M 85.61248779296875 46.968711853027344 C 116.49386596679688 50.6408805847168 83.50382232666016 38.0722770690918 100.87710571289062 51.1070442199707" stroke-width="2.0" fill="none" stroke="rgb(0, 0, 0)" stroke-opacity="1" stroke-linecap="round" stroke-linejoin="round"/>
    <path d="M 113.19627380371094 157.9462432861328 C 80.36377716064453 160.0027313232422 98.60749053955078 147.45347595214844 99.4271469116211 169.48916625976562 C 69.85743713378906 148.1016845703125 100.30876922607422 182.31553649902344 73.25789642333984 170.42320251464844 C 73.0853271484375 134.94239807128906 102.94915771484375 145.76004028320312 95.47809600830078 143.0169677734375" stroke-width="2.0" fill="none" stroke="rgb(0, 0, 0)" stroke-opacity="1" stroke-linecap="round" stroke-linejoin="round"/>
    <path d="M 23.445899963378906 144.03671264648438 C 26.555578231811523 123.0745620727539 4.4210076332092285 120.7464599609375 -15.255890846252441 127.32035827636719" stroke-width="2.0" fill="none" stroke="rgb(0, 0, 0)" stroke-opacity="1" stroke-linecap="round" stroke-linejoin="round"/>
    <path d="M 226.45443725585938 173.49232482910156 C 185.48455810546875 155.016845703125 216.41627502441406 158.72634887695312 205.81478881835938 152.16465759277344 C 202.95065307617188 162.70761108398438 214.93939208984375 169.1721954345703 185.16351318359375 149.76605224609375 C 185.53970336914062 124.07266235351562 191.82485961914062 152.59747314453125 205.70469665527344 154.2834014892578" stroke-width="2.0" fill="none" stroke="rgb(0, 0, 0)" stroke-opacity="1" stroke-linecap="round" stroke-linejoin="round"/>
    <path d="M 76.39253234863281 125.30986022949219 C 66.8631820678711 123.81902313232422 74.14419555664062 117.57543182373047 71.96705627441406 118.70014953613281 C 88.21842193603516 146.12637329101562 86.9119644165039 134.1714324951172 67.9935302734375 138.1964569091797" stroke-width="2.0" fill="none" stroke="rgb(0, 0, 0)" stroke-opacity="1" stroke-linecap="round" stroke-linejoin="round"/>
    <path d="M 109.07466888427734 20.486469268798828 C 92.9666519165039 21.847694396972656 93.9078140258789 35.48402404785156 118.06414031982422 44.12214660644531 C 87.21526336669922 38.695796966552734 72.40465545654297 36.15266418457031 119.1994400024414 32.398197174072266" stroke-width="2.0" fill="none" stroke="rgb(0, 0, 0)" stroke-opacity="1" stroke-linecap="round" stroke-linejoin="round"/>
    <path d="M 108.42613983154297 203.10382080078125 C 100.61116027832031 201.6011962890625 114.24299621582031 212.36253356933594 128.22085571289062 203.47158813476562" stroke-width="2.0" fill="none" stroke="rgb(0, 0, 0)" stroke-opacity="1" stroke-linecap="round" stroke-linejoin="round"/>
    <path d="M 76.5523452758789 41.72808837890625 C 114.94503784179688 29.527240753173828 103.67321014404297 28.081424713134766 90.97605895996094 20.84073829650879 C 146.88787841796875 18.826356887817383 91.74723052978516 9.960281372070312 106.36072540283203 25.741287231445312 C 129.7384490966797 22.963422775268555 132.7010040283203 33.872825622558594 140.29196166992188 34.28211212158203" stroke-width="2.0" fill="none" stroke="rgb(0, 0, 0)" stroke-opacity="1" stroke-linecap="round" stroke-linejoin="round"/>
    <path d="M 218.28160095214844 21.08216667175293 C 193.52066040039062 41.6916389465332 204.61367797851562 51.84891128540039 191.97610473632812 37.7117919921875" stroke-width="2.0" fill="none" stroke="rgb(0, 0, 0)" stroke-opacity="1" stroke-linecap="round" stroke-linejoin="round"/>
    <path d="M 180.04872131347656 135.91409301757812 C 147.7105255126953 143.59169006347656 191.55291748046875 110.07329559326172 180.0564727783203 151.44192504882812 C 162.2371368408203 131.80880737304688 171.0124053955078 126.62975311279297 160.4071502685547 139.31797790527344" stroke-width="2.0" fill="none" stroke="rgb(0, 0, 0)" stroke-opacity="1" stroke-linecap="round" stroke-linejoin="round"/>
    <path d="M 70.5772933959961 39.20840072631836 C 53.61568832397461 40.827911376953125 81.17337799072266 37.74302291870117 57.78132247924805 50.158935546875 C 77.92694854736328 63.76277160644531 49.39337921142578 72.56539916992188 57.67121505737305 47.2350959777832 C 51.36045837402344 77.0612564086914 71.01494598388672 68.60249328613281 48.49581527709961 71.7371826171875" stroke-width="2.0" fill="none" stroke="rgb(0, 0, 0)" stroke-opacity="1" stroke-linecap="round" stroke-linejoin="round"/>
    <path d="M 145.88706970214844 89.1940689086914 C 107.35063171386719 88.9537124633789 127.98213958740234 64.69534301757812 139.5318145751953 77.87301635742188" stroke-width="2.0" fill="none" stroke="rgb(0, 0, 0)" stroke-opacity="1" stroke-linecap="round" stroke-linejoin="round"/>
    <path d="M 62.16183853149414 140.85813903808594 C 67.43278503417969 149.2167510986328 70.46339416503906 146.17013549804688 62.886775970458984 151.7045440673828 C 67.63582611083984 135.00592041015625 59.13998031616211 138.66342163085938 62.614662170410156 161.70176696777344" stroke-width="2.0" fill="none" stroke="rgb(0, 0, 0)" stroke-opacity="1" stroke-linecap="round" stroke-linejoin="round"/>
    <path d="M 70.87554168701172 101.46292114257812 C 78.9310531616211 91.9062271118164 80.79459381103516 82.85043334960938 92.07023620605469 102.695068359375 C 93.42089080810547 87.16790771484375 104.88773345947266 107.8891830444336 95.04833221435547 98.01090240478516" stroke-width="2.0" fill="none" stroke="rgb(0, 0, 0)" stroke-opacity="1" stroke-linecap="round" stroke-linejoin="round"/>
    <path d="M 67.09901428222656 146.5721435546875 C 64.2651596069336 144.0133819580078 56.639366149902344 139.3887481689453 62.008697509765625 156.8526153564453" stroke-width="2.0" fill="none" stroke="rgb(0, 0, 0)" stroke-opacity="1" stroke-linecap="round" stroke-linejoin="round"/>
    <path d="M 56.179351806640625 47.521236419677734 C 65.4378662109375 60.78171920776367 73.83594512939453 49.73599624633789 101.14458465576172 75.83576202392578 C 119.90875244140625 57.494659423828125 85.29232788085938 70.4166030883789 76.4223403930664 88.72591400146484" stroke-width="2.0" fill="none" stroke="rgb(0, 0, 0)" stroke-opacity="1" stroke-linecap="round" stroke-linejoin="round"/>
    <path d="M 26.23955726623535 155.58863830566406 C 41.06780242919922 158.72991943359375 53.74541091918945 160.90850830078125 13.670766830444336 161.3113250732422" stroke-width="2.0" fill="none" stroke="rgb(0, 0, 0)" stroke-opacity="1" stroke-linecap="round" stroke-linejoin="round"/>
    <path d="M 133.56991577148438 58.27165603637695 C 158.4930877685547 84.41446685791016 120.67879486083984 81.4483871459961 116.99295043945312 66.96854400634766" stroke-width="2.0" fill="none" stroke="rgb(0, 0, 0)" stroke-opacity="1" stroke-linecap="round" stroke-linejoin="round"/>
    <path d="M 154.42913818359375 128.05181884765625 C 157.79734802246094 110.93439483642578 151.21385192871094 134.76441955566406 154.26280212402344 128.08352661132812 C 151.2816925048828 115.69755554199219 175.23358154296875 120.12771606445312 181.40838623046875 109.0221939086914" stroke-width="2.0" fill="none" stroke="rgb(0, 0, 0)" stroke-opacity="1" stroke-linecap="round" stroke-linejoin="round"/>
    <path d="M 32.23111343383789 150.641845703125 C 12.711029052734375 155.42279052734375 21.18206214904785 157.00050354003906 11.785165786743164 148.94114685058594" stroke-width="2.0" fill="none" stroke="rgb(0, 0, 0)" stroke-opacity="1" stroke-linecap="round" stroke-linejoin="round"/>
    <path d="M 115.01261901855469 50.470821380615234 C 84.46099090576172 43.202388763427734 143.26162719726562 44.00682067871094 131.75283813476562 55.621158599853516" stroke-width="2.0" fill="none" stroke="rgb(0, 0, 0)" stroke-opacity="1" stroke-linecap="round" stroke-linejoin="round"/>
    <path d="M 36.28700256347656 194.8805389404297 C 34.62419891357422 242.3655242919922 36.4185905456543 229.8773193359375 59.09288024902344 231.06265258789062" stroke-width="2.0" fill="none" stroke="rgb(0, 0, 0)" stroke-opacity="1" stroke-linecap="round" stroke-linejoin="round"/>
    <path d="M 65.18215942382812 162.65609741210938 C 74.83404541015625 173.21286010742188 48.11219787597656 163.5446014404297 87.34614562988281 166.94577026367188 C 76.14752197265625 176.83441162109375 75.73575592041016 146.00506591796875 62.51436233520508 158.29002380371094" stroke-width="2.0" fill="none" stroke="rgb(0, 0, 0)" stroke-opacity="1" stroke-linecap="round" stroke-linejoin="round"/>
    <path d="M 123.87965393066406 118.36540222167969 C 137.776123046875 129.3209991455078 145.5673828125 108.52185821533203 151.21278381347656 143.38656616210938 C 146.19212341308594 120.39202880859375 146.3477325439453 124.36920166015625 124.06871795654297 133.70887756347656" stroke-width="2.0" fill="none" stroke="rgb(0, 0, 0)" stroke-opacity="1" stroke-linecap="round" stroke-linejoin="round"/>
    <path d="M 142.50686645507812 228.6152801513672 C 166.50247192382812 231.61013793945312 146.84326171875 223.31988525390625 173.07701110839844 220.5868377685547" stroke-width="2.0" fill="none" stroke="rgb(0, 0, 0)" stroke-opacity="1" stroke-linecap="round" stroke-linejoin="round"/>
    <path d="M 123.7261962890625 201.0735626220703 C 104.28086853027344 194.6956329345703 108.91000366210938 203.63064575195312 131.80026245117188 183.09226989746094 C 108.21261596679688 190.94155883789062 92.94969940185547 189.56143188476562 106.72673797607422 180.2842254638672 C 141.157958984375 174.60340881347656 140.5541229248047 176.03131103515625 103.89559173583984 179.99246215820312" stroke-width="2.0" fill="none" stroke="rgb(0, 0, 0)" stroke-opacity="1" stroke-linecap="round" stroke-linejoin="round"/>
    <path d="M -10.6143798828125 30.250688552856445 C 4.9645304679870605 18.90091896057129 -0.9182907342910767 25.22466468811035 -14.592541694641113 26.61890983581543" stroke-width="2.0" fill="none" stroke="rgb(0, 0, 0)" stroke-opacity="1" stroke-linecap="round" stroke-linejoin="round"/>
    <path d="M 97.01392364501953 180.13560485839844 C 99.27633666992188 169.2781219482422 97.21086883544922 151.89968872070312 100.28398895263672 155.48939514160156" stroke-width="2.0" fill="none" stroke="rgb(0, 0, 0)" stroke-opacity="1" stroke-linecap="round" stroke-linejoin="round"/>
    <path d="M 163.62904357910156 94.8512954711914 C 135.84091186523438 110.81784057617188 140.1425323486328 125.44811248779297 182.4342041015625 97.75580596923828 C 156.1392059326172 89.94387817382812 177.66004943847656 104.58060455322266 170.91685485839844 82.84186553955078" stroke-width="2.0" fill="none" stroke="rgb(0, 0, 0)" stroke-opacity="1" stroke-linecap="round" stroke-linejoin="round"/>
    <path d="M 77.50894927978516 131.2248992919922 C 65.29585266113281 115.64380645751953 58.21251678466797 103.54146575927734 61.05632019042969 110.77694702148438 C 61.0248908996582 95.82431030273438 56.330448150634766 77.92310333251953 50.32877731323242 85.42451477050781" stroke-width="2.0" fill="none" stroke="rgb(0, 0, 0)" stroke-opacity="1" stroke-linecap="round" stroke-linejoin="round"/>
    <path d="M 117.37091827392578 67.81535339355469 C 97.21236419677734 70.2041015625 93.58932495117188 88.6677017211914 120.15998077392578 64.63225555419922" stroke-width="2.0" fill="none" stroke="rgb(0, 0, 0)" stroke-opacity="1" stroke-linecap="round" stroke-linejoin="round"/>
    <path d="M 144.16404724121094 48.30378341674805 C 159.6272430419922 49.048675537109375 139.01620483398438 35.618961334228516 158.981201171875 49.73176193237305" stroke-width="2.0" fill="none" stroke="rgb(0, 0, 0)" stroke-opacity="1" stroke-linecap="round" stroke-linejoin="round"/>
    <path d="M 194.8198699951172 125.79718780517578 C 180.298095703125 122.78108215332031 205.84690856933594 139.85009765625 200.89845275878906 138.37095642089844 C 205.25082397460938 164.5341796875 185.15093994140625 150.4140625 180.24534606933594 100.62252044677734" stroke-width="2.0" fill="none" stroke="rgb(0, 0, 0)" stroke-opacity="1" stroke-linecap="round" stroke-linejoin="round"/>
    <path d="M 192.8628387451172 39.28407669067383 C 192.52684020996094 46.20768737792969 188.37525939941406 11.13896656036377 166.05191040039062 39.530452728271484 C 168.0865020751953 44.61134338378906 148.9264373779297 27.856597900390625 149.23097229003906 43.40849304199219 C 154.47177124023438 40.22235107421875 135.5397491455078 43.973411560058594 139.99591064453125 30.364543914794922" stroke-width="2.0" fill="none" stroke="rgb(0, 0, 0)" stroke-opacity="1" stroke-linecap="round" stroke-linejoin="round"/>
    <path d="M 157.07485961914062 63.76777648925781 C 168.15110778808594 64.72695922851562 162.2395782470703 93.21906280517578 173.9259033203125 80.4654541015625" stroke-width="2.0" fill="none" stroke="rgb(0, 0, 0)" stroke-opacity="1" stroke-linecap="round" stroke-linejoin="round"/>
    <path d="M 179.1522979736328 71.08375549316406 C 194.8631591796875 76.79295349121094 176.30479431152344 60.111236572265625 170.406494140625 51.75333023071289 C 180.92501831054688 60.92240524291992 170.86293029785156 24.03276824951172 188.5004425048828 51.504493713378906" stroke-width="2.0" fill="none" stroke="rgb(0, 0, 0)" stroke-opacity="1" stroke-linecap="round" stroke-linejoin="round"/>
    <path d="M 33.2003288269043 228.27682495117188 C 36.157405853271484 222.74620056152344 43.019187927246094 241.04685974121094 52.01913070678711 244.29144287109375 C 42.04422378540039 246.21922302246094 44.67177963256836 251.767578125 34.113155364990234 249.36798095703125" stroke-width="2.0" fill="none" stroke="rgb(0, 0, 0)" stroke-opacity="1" stroke-linecap="round" stroke-linejoin="round"/>
    <path d="M 147.68167114257812 113.80635070800781 C 129.6160430908203 95.30713653564453 131.4499053955078 94.50895690917969 123.14534759521484 95.21148681640625" stroke-width="2.0" fill="none" stroke="rgb(0, 0, 0)" stroke-opacity="1" stroke-linecap="round" stroke-linejoin="round"/>
    <path d="M 111.3674087524414 110.10335540771484 C 97.84502410888672 93.1549072265625 95.04853057861328 82.0792236328125 99.944580078125 102.02039337158203 C 94.55110168457031 84.04346466064453 81.42974090576172 66.03046417236328 65.82108306884766 70.5580062866211 C 58.84767532348633 38.734413146972656 82.83877563476562 59.732666015625 109.84724426269531 52.43178176879883" stroke-width="2.0" fill="none" stroke="rgb(0, 0, 0)" stroke-opacity="1" stroke-linecap="round" stroke-linejoin="round"/>
    <path d="M 137.99325561523438 214.20034790039062 C 116.41926574707031 217.8352508544922 104.89817810058594 238.2454376220703 131.64845275878906 203.7984619140625 C 112.91712188720703 215.3927001953125 118.66776275634766 217.91627502441406 116.77246856689453 190.080078125 C 132.44293212890625 197.99728393554688 120.88409423828125 192.4792022705078 104.82945251464844 196.39886474609375" stroke-width="2.0" fill="none" stroke="rgb(0, 0, 0)" stroke-opacity="1" stroke-linecap="round" stroke-linejoin="round"/>
    <path d="M 139.66677856445312 62.306209564208984 C 143.374755859375 82.65081024169922 134.13099670410156 94.46031188964844 149.9771728515625 103.19708251953125" stroke-width="2.0" fill="none" stroke="rgb(0, 0, 0)" stroke-opacity="1" stroke-linecap="round" stroke-linejoin="round"/>
    <path d="M 64.7672119140625 95.82341766357422 C 61.0981330871582 95.19771575927734 65.10903930664062 79.88633728027344 52.3455810546875 75.7415771484375" stroke-width="2.0" fill="none" stroke="rgb(0, 0, 0)" stroke-opacity="1" stroke-linecap="round" stroke-linejoin="round"/>
    <path d="M 206.39178466796875 39.75482940673828 C 179.76950073242188 34.14358139038086 204.1378936767578 19.973169326782227 204.4585723876953 8.892414093017578" stroke-width="2.0" fill="none" stroke="rgb(0, 0, 0)" stroke-opacity="1" stroke-linecap="round" stroke-linejoin="round"/>
    <path d="M 208.7720184326172 152.44320678710938 C 204.49070739746094 172.8042449951172 206.8466033935547 154.7147674560547 204.6773681640625 122.54096984863281 C 210.9122314453125 151.38365173339844 201.9491729736328 167.28033447265625 207.6541748046875 144.8757781982422" stroke-width="2.0" fill="none" stroke="rgb(0, 0, 0)" stroke-opacity="1" stroke-linecap="round" stroke-linejoin="round"/>
    <path d="M 15.284341812133789 150.87477111816406 C 17.422840118408203 151.36839294433594 6.396839141845703 157.54568481445312 5.199372291564941 124.72914123535156 C 1.5554587841033936 141.12069702148438 6.92196798324585 148.5653839111328 16.770524978637695 152.32708740234375 C 16.294389724731445 154.2731475830078 -6.832927227020264 158.481201171875 22.581214904785156 156.65750122070312" stroke-width="2.0" fill="none" stroke="rgb(0, 0, 0)" stroke-opacity="1" stroke-linecap="round" stroke-linejoin="round"/>
    <path d="M 131.28823852539062 25.794755935668945 C 117.26947784423828 25.788963317871094 131.6731414794922 25.661298751831055 104.74336242675781 29.868942260742188 C 93.57987976074219 44.35610580444336 119.15116882324219 27.647098541259766 144.2706298828125 31.799697875976562 C 140.1290740966797 44.03480529785156 133.91650390625 38.142601013183594 140.00096130371094 39.38533401489258" stroke-width="2.0" fill="none" stroke="rgb(0, 0, 0)" stroke-opacity="1" stroke-linecap="round" stroke-linejoin="round"/>
    <path d="M 199.1540985107422 28.668148040771484 C 208.14881896972656 8.804764747619629 213.06202697753906 6.552012920379639 203.8838653564453 22.776273727416992 C 225.65672302246094 6.941634654998779 209.48341369628906 21.79254150390625 207.87318420410156 23.7690372467041" stroke-width="2.0" fill="none" stroke="rgb(0, 0, 0)" stroke-opacity="1" stroke-linecap="round" stroke-linejoin="round"/>
    <path d="M 120.74002075195312 195.25808715820312 C 131.86239624023438 170.08447265625 120.98881530761719 178.82603454589844 124.96726989746094 176.51287841796875 C 123.3906021118164 192.10366821289062 108.73157501220703 188.0136260986328 139.38101196289062 199.41355895996094" stroke-width="2.0" fill="none" stroke="rgb(0, 0, 0)" stroke-opacity="1" stroke-linecap="round" stroke-linejoin="round"/>
    <path d="M 36.18390655517578 145.74034118652344 C 55.97716522216797 144.2996368408203 55.23604965209961 144.32940673828125 53.63655471801758 146.61093139648438 C 58.987918853759766 136.96630859375 55.699981689453125 149.64846801757812 50.45913314819336 127.17667388916016" stroke-width="2.0" fill="none" stroke="rgb(0, 0, 0)" stroke-opacity="1" stroke-linecap="round" stroke-linejoin="round"/>
    <path d="M 27.142818450927734 106.81222534179688 C 13.068663597106934 107.03255462646484 -7.859713554382324 117.28047180175781 38.077728271484375 111.45206451416016 C 35.706085205078125 110.02191925048828 49.49831008911133 140.83523559570312 51.98206329345703 139.9384307861328 C 52.14253234863281 142.8465576171875 26.269790649414062 133.00392150878906 32.18645095825195 146.39111328125" stroke-width="2.0" fill="none" stroke="rgb(0, 0, 0)" stroke-opacity="1" stroke-linecap="round" stroke-linejoin="round"/>
    <path d="M 105.61717987060547 56.60702133178711 C 67.60205078125 41.92215347290039 94.6469497680664 47.739017486572266 78.89677429199219 51.67099380493164 C 64.4351806640625 60.90291213989258 81.97410583496094 66.908203125 75.59268188476562 69.6692123413086" stroke-width="2.0" fill="none" stroke="rgb(0, 0, 0)" stroke-opacity="1" stroke-linecap="round" stroke-linejoin="round"/>
  </g>
</svg>
