<?xml version="1.0" ?>
<svg xmlns="http://www.w3.org/2000/svg" version="1.1" width="224" height="224">
  <defs/>
  <g>
    <path d="M 73.74806213378906 126.5367431640625 C 87.4461898803711 136.44056701660156 84.86239624023438 117.85389709472656 78.21573638916016 148.50485229492188 C 69.9069595336914 143.8394775390625 59.11898422241211 144.63223266601562 69.9463119506836 145.57862854003906 C 83.08203125 154.097412109375 78.96358489990234 140.182861328125 77.55435943603516 155.7876434326172" stroke-width="2.0" fill="none" stroke="rgb(0, 0, 0)" stroke-opacity="1" stroke-linecap="round" stroke-linejoin="round"/>
    <path d="M 59.708534240722656 50.54301834106445 C 42.438690185546875 58.25588607788086 27.081762313842773 65.62803649902344 69.5736083984375 95.36608123779297 C 28.21463966369629 93.10675048828125 38.74110412597656 86.03551483154297 78.40685272216797 113.63671112060547" stroke-width="2.0" fill="none" stroke="rgb(0, 0, 0)" stroke-opacity="1" stroke-linecap="round" stroke-linejoin="round"/>
    <path d="M 80.33599090576172 44.30741500854492 C 63.916629791259766 13.355042457580566 63.253448486328125 51.48508071899414 92.13257598876953 57.33930969238281" stroke-width="2.0" fill="none" stroke="rgb(0, 0, 0)" stroke-opacity="1" stroke-linecap="round" stroke-linejoin="round"/>
    <path d="M 131.04261779785156 113.94345092773438 C 124.1190185546875 100.11909484863281 105.97200012207031 163.67828369140625 98.63402557373047 172.85081481933594 C 90.08928680419922 195.12054443359375 88.84393310546875 178.89418029785156 88.31938171386719 193.55538940429688" stroke-width="2.0" fill="none" stroke="rgb(0, 0, 0)" stroke-opacity="1" stroke-linecap="round" stroke-linejoin="round"/>
    <path d="M 129.0389404296875 141.379150390625 C 179.07369995117188 141.53395080566406 146.08822631835938 132.6780548095703 129.26876831054688 143.95997619628906" stroke-width="2.0" fill="none" stroke="rgb(0, 0, 0)" stroke-opacity="1" stroke-linecap="round" stroke-linejoin="round"/>
    <path d="M -6.49840784072876 197.26856994628906 C -8.693506240844727 179.34542846679688 -6.162353515625 219.18312072753906 -6.432009220123291 201.13526916503906 C -13.512345314025879 192.69068908691406 -24.977333068847656 197.2690887451172 -13.930909156799316 193.33384704589844" stroke-width="2.0" fill="none" stroke="rgb(0, 0, 0)" stroke-opacity="1" stroke-linecap="round" stroke-linejoin="round"/>
    <path d="M 134.12673950195312 127.33857727050781 C 157.90353393554688 121.65089416503906 164.5469207763672 153.1359100341797 125.86421966552734 140.19024658203125 C 157.4800262451172 120.7885513305664 139.90621948242188 131.94064331054688 134.46163940429688 146.27000427246094" stroke-width="2.0" fill="none" stroke="rgb(0, 0, 0)" stroke-opacity="1" stroke-linecap="round" stroke-linejoin="round"/>
    <path d="M 174.4606475830078 137.5552978515625 C 148.18370056152344 118.7717056274414 124.88103485107422 121.51325225830078 116.10932922363281 146.57859802246094 C 125.17001342773438 130.5206756591797 105.9847183227539 142.65701293945312 139.20840454101562 116.54422760009766 C 124.0163803100586 121.80852508544922 102.7131118774414 137.8942108154297 110.64402770996094 132.4468231201172" stroke-width="2.0" fill="none" stroke="rgb(0, 0, 0)" stroke-opacity="1" stroke-linecap="round" stroke-linejoin="round"/>
    <path d="M 165.01919555664062 161.39810180664062 C 124.72391510009766 160.80044555664062 134.82470703125 160.2067108154297 157.4342803955078 176.27268981933594 C 188.39889526367188 166.70404052734375 151.6750946044922 149.58663940429688 159.2985076904297 175.04940795898438" stroke-width="2.0" fill="none" stroke="rgb(0, 0, 0)" stroke-opacity="1" stroke-linecap="round" stroke-linejoin="round"/>
    <path d="M 53.15781021118164 69.97388458251953 C 92.72177124023438 76.80143737792969 103.2518539428711 94.17862701416016 58.91881561279297 71.6250228881836 C 68.52874755859375 87.91708374023438 57.18027114868164 73.9722900390625 37.24013900756836 94.2247314453125" stroke-width="2.0" fill="none" stroke="rgb(0, 0, 0)" stroke-opacity="1" stroke-linecap="round" stroke-linejoin="round"/>
    <path d="M 50.48691177368164 104.41937255859375 C 83.7798080444336 120.55357360839844 49.78569412231445 114.15217590332031 51.44418716430664 127.65772247314453 C 57.95257568359375 97.05672454833984 76.89323425292969 133.57786560058594 58.55620193481445 129.99038696289062 C 71.55823516845703 113.53189849853516 60.93827819824219 116.1773452758789 85.86273193359375 103.05224609375" stroke-width="2.0" fill="none" stroke="rgb(0, 0, 0)" stroke-opacity="1" stroke-linecap="round" stroke-linejoin="round"/>
    <path d="M 96.00634002685547 72.1189956665039 C 101.31686401367188 82.63813781738281 88.60852813720703 78.09306335449219 49.808467864990234 65.697021484375 C 82.94477081298828 65.02357482910156 96.4034652709961 75.75801849365234 85.5226058959961 65.94081115722656 C 113.00313568115234 59.831817626953125 137.94998168945312 83.44334411621094 85.96145629882812 66.08702087402344" stroke-width="2.0" fill="none" stroke="rgb(0, 0, 0)" stroke-opacity="1" stroke-linecap="round" stroke-linejoin="round"/>
    <path d="M 196.41856384277344 174.27642822265625 C 193.20297241210938 152.46026611328125 191.45245361328125 179.1577911376953 183.10757446289062 168.65032958984375 C 202.13372802734375 172.58340454101562 184.5438995361328 176.95445251464844 181.2119140625 149.4511260986328 C 197.9251251220703 160.8252716064453 201.9925079345703 186.95062255859375 188.5764923095703 154.79087829589844" stroke-width="2.0" fill="none" stroke="rgb(0, 0, 0)" stroke-opacity="1" stroke-linecap="round" stroke-linejoin="round"/>
    <path d="M 100.01122283935547 213.888916015625 C 142.4760284423828 230.5050811767578 138.68064880371094 211.6279754638672 115.83940887451172 218.43466186523438 C 122.71650695800781 202.84588623046875 148.88783264160156 202.80282592773438 111.28179168701172 208.32212829589844 C 112.02171325683594 186.83311462402344 138.11349487304688 201.1579132080078 120.1968765258789 213.00811767578125" stroke-width="2.0" fill="none" stroke="rgb(0, 0, 0)" stroke-opacity="1" stroke-linecap="round" stroke-linejoin="round"/>
    <path d="M 173.03274536132812 116.91691589355469 C 185.50262451171875 127.3372573852539 179.01551818847656 127.2303237915039 185.79457092285156 145.66932678222656 C 186.67681884765625 167.31231689453125 161.3333740234375 147.567138671875 173.13699340820312 179.46119689941406 C 183.25331115722656 145.06829833984375 195.52474975585938 188.5630340576172 186.14678955078125 118.0654525756836" stroke-width="2.0" fill="none" stroke="rgb(0, 0, 0)" stroke-opacity="1" stroke-linecap="round" stroke-linejoin="round"/>
    <path d="M 174.75613403320312 126.1047592163086 C 146.28372192382812 154.12591552734375 131.927734375 144.87469482421875 112.1124038696289 138.576416015625 C 141.05538940429688 176.3260498046875 120.21623229980469 141.7455291748047 119.01915740966797 154.56663513183594" stroke-width="2.0" fill="none" stroke="rgb(0, 0, 0)" stroke-opacity="1" stroke-linecap="round" stroke-linejoin="round"/>
    <path d="M 78.69115447998047 13.471177101135254 C 52.59831237792969 10.558719635009766 59.46686935424805 26.712369918823242 53.50102615356445 19.518062591552734 C 86.54240417480469 26.30634880065918 47.6282844543457 32.600921630859375 66.99714660644531 46.77919006347656 C 64.39286804199219 61.095096588134766 33.71554946899414 48.213462829589844 80.97370147705078 30.666080474853516" stroke-width="2.0" fill="none" stroke="rgb(0, 0, 0)" stroke-opacity="1" stroke-linecap="round" stroke-linejoin="round"/>
    <path d="M 88.87643432617188 65.47640228271484 C 86.40681457519531 68.59019470214844 108.35260772705078 68.3373794555664 50.97823715209961 70.4035873413086 C 64.56661224365234 68.8320083618164 49.548336029052734 65.72325134277344 44.49087142944336 78.08953094482422 C 86.67330932617188 78.92298889160156 40.629695892333984 65.8599853515625 70.40164947509766 56.55738830566406" stroke-width="2.0" fill="none" stroke="rgb(0, 0, 0)" stroke-opacity="1" stroke-linecap="round" stroke-linejoin="round"/>
    <path d="M 113.44914245605469 158.80325317382812 C 119.3631820678711 175.5856170654297 78.76392364501953 159.5956268310547 68.04792785644531 156.09884643554688 C 89.4160385131836 133.2989501953125 88.81826782226562 103.81185150146484 80.0762939453125 164.43960571289062" stroke-width="2.0" fill="none" stroke="rgb(0, 0, 0)" stroke-opacity="1" stroke-linecap="round" stroke-linejoin="round"/>
    <path d="M 186.45899963378906 30.569334030151367 C 199.10690307617188 18.763431549072266 184.64956665039062 17.168285369873047 201.4806365966797 30.687965393066406 C 260.0137023925781 28.3038387298584 253.36782836914062 19.95734214782715 192.86463928222656 12.43925952911377" stroke-width="2.0" fill="none" stroke="rgb(0, 0, 0)" stroke-opacity="1" stroke-linecap="round" stroke-linejoin="round"/>
    <path d="M 157.0929412841797 114.89480590820312 C 165.72128295898438 109.1947250366211 131.0497589111328 106.078857421875 115.24400329589844 138.52395629882812 C 122.08454895019531 133.50685119628906 149.89744567871094 111.40823364257812 171.56007385253906 129.81228637695312" stroke-width="2.0" fill="none" stroke="rgb(0, 0, 0)" stroke-opacity="1" stroke-linecap="round" stroke-linejoin="round"/>
    <path d="M 225.078125 154.96189880371094 C 211.20481872558594 172.791259765625 192.2132110595703 150.45611572265625 190.52792358398438 135.96682739257812 C 172.42787170410156 149.9525146484375 176.20849609375 151.42503356933594 194.4980926513672 117.3856430053711" stroke-width="2.0" fill="none" stroke="rgb(0, 0, 0)" stroke-opacity="1" stroke-linecap="round" stroke-linejoin="round"/>
    <path d="M 197.28427124023438 137.04367065429688 C 170.97938537597656 129.24290466308594 181.04470825195312 130.07034301757812 195.75743103027344 145.5372772216797" stroke-width="2.0" fill="none" stroke="rgb(0, 0, 0)" stroke-opacity="1" stroke-linecap="round" stroke-linejoin="round"/>
    <path d="M 104.45455169677734 144.7621612548828 C 103.91020965576172 122.94139099121094 104.05439758300781 148.57659912109375 90.7815170288086 162.25733947753906 C 100.47013854980469 112.97343444824219 108.26242065429688 110.56439208984375 95.76294708251953 149.27273559570312 C 87.6285629272461 178.4830322265625 87.03640747070312 141.84982299804688 100.97013854980469 121.4742660522461" stroke-width="2.0" fill="none" stroke="rgb(0, 0, 0)" stroke-opacity="1" stroke-linecap="round" stroke-linejoin="round"/>
    <path d="M 56.063934326171875 175.55587768554688 C 21.87169647216797 167.4524688720703 44.011112213134766 152.09068298339844 46.17589569091797 170.04248046875 C 63.67024230957031 174.19357299804688 50.377506256103516 135.30709838867188 45.02322006225586 170.0136260986328" stroke-width="2.0" fill="none" stroke="rgb(0, 0, 0)" stroke-opacity="1" stroke-linecap="round" stroke-linejoin="round"/>
    <path d="M 137.8343963623047 21.158971786499023 C 118.8365478515625 -11.306368827819824 130.83277893066406 21.669841766357422 91.5008316040039 39.803958892822266 C 135.7039337158203 -4.306389808654785 117.43067932128906 -0.47805002331733704 93.91608428955078 26.821533203125" stroke-width="2.0" fill="none" stroke="rgb(0, 0, 0)" stroke-opacity="1" stroke-linecap="round" stroke-linejoin="round"/>
    <path d="M 151.7047576904297 105.102294921875 C 185.89935302734375 110.44967651367188 190.73004150390625 137.83990478515625 161.50570678710938 112.41136932373047" stroke-width="2.0" fill="none" stroke="rgb(0, 0, 0)" stroke-opacity="1" stroke-linecap="round" stroke-linejoin="round"/>
    <path d="M 153.50486755371094 181.97683715820312 C 196.15142822265625 199.27923583984375 145.58200073242188 199.54273986816406 139.23757934570312 200.57920837402344 C 131.2818603515625 217.81092834472656 113.38600158691406 229.84429931640625 149.021240234375 212.8092498779297" stroke-width="2.0" fill="none" stroke="rgb(0, 0, 0)" stroke-opacity="1" stroke-linecap="round" stroke-linejoin="round"/>
    <path d="M 160.46385192871094 137.25820922851562 C 95.23078155517578 133.79237365722656 147.0325469970703 167.98886108398438 164.59921264648438 137.58187866210938 C 136.748779296875 156.02865600585938 125.8340072631836 143.29486083984375 152.4734344482422 138.28927612304688" stroke-width="2.0" fill="none" stroke="rgb(0, 0, 0)" stroke-opacity="1" stroke-linecap="round" stroke-linejoin="round"/>
    <path d="M 78.48150634765625 31.17830467224121 C 84.6541748046875 56.96661376953125 116.04527282714844 44.443424224853516 104.24791717529297 17.991865158081055" stroke-width="2.0" fill="none" stroke="rgb(0, 0, 0)" stroke-opacity="1" stroke-linecap="round" stroke-linejoin="round"/>
    <path d="M 227.905029296875 55.91031265258789 C 229.1118621826172 41.334754943847656 211.4186248779297 64.4803466796875 223.85540771484375 99.78885650634766" stroke-width="2.0" fill="none" stroke="rgb(0, 0, 0)" stroke-opacity="1" stroke-linecap="round" stroke-linejoin="round"/>
    <path d="M 190.4760284423828 16.78809928894043 C 250.61148071289062 29.216888427734375 261.9287414550781 26.096471786499023 259.55584716796875 18.572677612304688 C 233.04849243164062 25.149368286132812 234.57334899902344 19.097496032714844 225.79843139648438 21.927568435668945" stroke-width="2.0" fill="none" stroke="rgb(0, 0, 0)" stroke-opacity="1" stroke-linecap="round" stroke-linejoin="round"/>
    <path d="M 228.1706085205078 33.20598602294922 C 178.22116088867188 34.566768646240234 215.66864013671875 30.982162475585938 215.38475036621094 30.017822265625 C 178.1847686767578 17.103477478027344 220.86166381835938 27.66822624206543 217.0854949951172 25.61897087097168 C 243.13595581054688 30.513818740844727 253.11647033691406 24.96867561340332 249.74624633789062 18.299713134765625" stroke-width="2.0" fill="none" stroke="rgb(0, 0, 0)" stroke-opacity="1" stroke-linecap="round" stroke-linejoin="round"/>
    <path d="M 137.93043518066406 169.48487854003906 C 110.40913391113281 135.15948486328125 132.3125 168.70892333984375 161.34552001953125 155.37464904785156 C 175.7329559326172 152.50164794921875 181.5376434326172 141.94039916992188 152.9183807373047 171.40664672851562" stroke-width="2.0" fill="none" stroke="rgb(0, 0, 0)" stroke-opacity="1" stroke-linecap="round" stroke-linejoin="round"/>
    <path d="M 232.20167541503906 167.8975067138672 C 222.8440399169922 171.6276092529297 226.05909729003906 185.05714416503906 229.62754821777344 164.24853515625 C 226.11911010742188 180.70797729492188 198.87588500976562 181.81918334960938 192.33714294433594 150.67311096191406 C 205.7913360595703 132.8872833251953 206.48324584960938 178.62608337402344 194.2535858154297 143.77471923828125" stroke-width="2.0" fill="none" stroke="rgb(0, 0, 0)" stroke-opacity="1" stroke-linecap="round" stroke-linejoin="round"/>
    <path d="M 148.39678955078125 63.54287338256836 C 153.6417694091797 81.87527465820312 164.46456909179688 76.24052429199219 154.79806518554688 81.86881256103516 C 169.2589569091797 81.82373046875 114.34861755371094 76.9843978881836 141.51210021972656 81.89693450927734" stroke-width="2.0" fill="none" stroke="rgb(0, 0, 0)" stroke-opacity="1" stroke-linecap="round" stroke-linejoin="round"/>
    <path d="M 152.4498291015625 201.1968536376953 C 120.16790771484375 196.6430206298828 127.01403045654297 217.04380798339844 100.47371673583984 214.6427764892578 C 121.17758178710938 207.24435424804688 114.45227813720703 222.5445098876953 117.07853698730469 216.61184692382812 C 137.74452209472656 218.36814880371094 146.23709106445312 211.49581909179688 72.33094787597656 219.5006561279297" stroke-width="2.0" fill="none" stroke="rgb(0, 0, 0)" stroke-opacity="1" stroke-linecap="round" stroke-linejoin="round"/>
    <path d="M 51.19886779785156 195.81930541992188 C 79.82749938964844 222.96002197265625 70.5152816772461 177.05738830566406 45.427738189697266 188.87652587890625 C 4.239315509796143 201.60804748535156 11.019233703613281 213.0230712890625 26.9633731842041 207.2067108154297 C 74.23868560791016 207.10418701171875 72.38800048828125 197.8036651611328 44.65850067138672 205.7464599609375" stroke-width="2.0" fill="none" stroke="rgb(0, 0, 0)" stroke-opacity="1" stroke-linecap="round" stroke-linejoin="round"/>
    <path d="M 66.72242736816406 53.841514587402344 C 33.11228942871094 101.3052749633789 58.98549270629883 91.06084442138672 60.205806732177734 61.69056701660156 C 34.62179183959961 76.6072998046875 43.45046615600586 57.388633728027344 44.22822189331055 59.656917572021484 C 66.60624694824219 50.430355072021484 27.08342933654785 55.40300750732422 40.61351776123047 52.11054992675781" stroke-width="2.0" fill="none" stroke="rgb(0, 0, 0)" stroke-opacity="1" stroke-linecap="round" stroke-linejoin="round"/>
    <path d="M 128.5120391845703 112.1430435180664 C 139.635986328125 103.61727905273438 155.7838897705078 105.13057708740234 159.1481170654297 103.54297637939453" stroke-width="2.0" fill="none" stroke="rgb(0, 0, 0)" stroke-opacity="1" stroke-linecap="round" stroke-linejoin="round"/>
    <path d="M 173.29225158691406 101.25609588623047 C 174.4576873779297 106.3304443359375 173.2620086669922 94.38824462890625 156.5010986328125 102.62183380126953 C 145.90167236328125 108.73394775390625 170.263916015625 100.19661712646484 173.0469207763672 123.64085388183594" stroke-width="2.0" fill="none" stroke="rgb(0, 0, 0)" stroke-opacity="1" stroke-linecap="round" stroke-linejoin="round"/>
    <path d="M 192.9540557861328 91.10388946533203 C 200.1494903564453 68.0602035522461 191.21881103515625 51.09357452392578 201.92459106445312 66.890869140625 C 198.65345764160156 43.30289840698242 196.32046508789062 71.19952392578125 202.91709899902344 80.76799774169922 C 190.56227111816406 57.15902328491211 212.8089599609375 43.92095184326172 205.09678649902344 57.14696502685547" stroke-width="2.0" fill="none" stroke="rgb(0, 0, 0)" stroke-opacity="1" stroke-linecap="round" stroke-linejoin="round"/>
    <path d="M 69.88711547851562 108.3818588256836 C 67.40040588378906 139.70179748535156 55.61861801147461 139.69671630859375 52.4008674621582 98.18843078613281 C 63.5932502746582 120.77053833007812 66.06182861328125 155.76626586914062 73.35558319091797 125.39176940917969 C 73.13996887207031 170.23326110839844 42.5372200012207 125.96026611328125 80.6788330078125 139.58837890625" stroke-width="2.0" fill="none" stroke="rgb(0, 0, 0)" stroke-opacity="1" stroke-linecap="round" stroke-linejoin="round"/>
    <path d="M 209.69342041015625 185.0777130126953 C 177.08204650878906 183.32400512695312 188.77479553222656 180.75352478027344 199.68246459960938 174.98312377929688 C 186.3917694091797 150.26251220703125 201.25103759765625 184.66758728027344 221.02505493164062 180.05715942382812 C 236.026611328125 165.63726806640625 228.7222137451172 158.96694946289062 232.52679443359375 169.3515625" stroke-width="2.0" fill="none" stroke="rgb(0, 0, 0)" stroke-opacity="1" stroke-linecap="round" stroke-linejoin="round"/>
    <path d="M 185.0408172607422 113.38262176513672 C 195.12594604492188 123.03385925292969 200.6010284423828 150.21067810058594 215.4415283203125 161.30313110351562 C 192.59625244140625 149.83502197265625 181.7215576171875 149.81640625 184.62010192871094 136.29446411132812" stroke-width="2.0" fill="none" stroke="rgb(0, 0, 0)" stroke-opacity="1" stroke-linecap="round" stroke-linejoin="round"/>
    <path d="M 29.21216583251953 105.73600006103516 C 77.34553527832031 125.7906723022461 83.2346420288086 103.95539855957031 77.03506469726562 100.80725860595703 C 60.54024124145508 103.84799194335938 58.15934371948242 79.75311279296875 72.2288589477539 85.79229736328125 C 63.77157211303711 67.30597686767578 88.75639343261719 105.38108825683594 66.60391235351562 73.7302017211914" stroke-width="2.0" fill="none" stroke="rgb(0, 0, 0)" stroke-opacity="1" stroke-linecap="round" stroke-linejoin="round"/>
    <path d="M 166.6708526611328 36.5619010925293 C 164.328125 24.622129440307617 166.0492706298828 27.732574462890625 175.61151123046875 41.84215545654297 C 192.6500244140625 42.52216720581055 197.71405029296875 40.90309524536133 180.59390258789062 37.138999938964844 C 166.56219482421875 20.953262329101562 182.4929656982422 24.844879150390625 180.38821411132812 16.02229118347168" stroke-width="2.0" fill="none" stroke="rgb(0, 0, 0)" stroke-opacity="1" stroke-linecap="round" stroke-linejoin="round"/>
    <path d="M 11.487614631652832 224.04702758789062 C 13.288188934326172 219.51524353027344 61.332725524902344 218.51710510253906 69.66566467285156 218.7896270751953 C 70.0992660522461 198.7469482421875 35.813236236572266 212.88458251953125 15.669089317321777 211.1066436767578 C 63.61051559448242 214.2750701904297 66.00201416015625 208.10597229003906 59.7178840637207 213.4005126953125" stroke-width="2.0" fill="none" stroke="rgb(0, 0, 0)" stroke-opacity="1" stroke-linecap="round" stroke-linejoin="round"/>
    <path d="M 168.96998596191406 193.36268615722656 C 104.6458740234375 197.34747314453125 112.72652435302734 200.66482543945312 136.05809020996094 229.92770385742188 C 99.87638092041016 226.13351440429688 104.2510986328125 229.50453186035156 163.0529022216797 219.016845703125 C 101.74231719970703 216.7802276611328 102.39205169677734 190.20458984375 153.3238983154297 190.2522735595703" stroke-width="2.0" fill="none" stroke="rgb(0, 0, 0)" stroke-opacity="1" stroke-linecap="round" stroke-linejoin="round"/>
    <path d="M 125.4226303100586 142.68099975585938 C 137.52392578125 129.91348266601562 166.107177734375 136.66896057128906 160.54339599609375 136.1330108642578 C 174.0244140625 122.05472564697266 174.289794921875 155.9598846435547 131.76979064941406 158.12586975097656" stroke-width="2.0" fill="none" stroke="rgb(0, 0, 0)" stroke-opacity="1" stroke-linecap="round" stroke-linejoin="round"/>
    <path d="M 20.299957275390625 185.58392333984375 C -1.5902717113494873 197.24160766601562 -12.678300857543945 187.85289001464844 -25.26010513305664 181.4419403076172" stroke-width="2.0" fill="none" stroke="rgb(0, 0, 0)" stroke-opacity="1" stroke-linecap="round" stroke-linejoin="round"/>
    <path d="M 105.4684066772461 8.029691696166992 C 129.65525817871094 -5.059311389923096 136.69464111328125 12.01327896118164 113.41497802734375 31.331953048706055" stroke-width="2.0" fill="none" stroke="rgb(0, 0, 0)" stroke-opacity="1" stroke-linecap="round" stroke-linejoin="round"/>
    <path d="M 33.12078094482422 186.0310821533203 C 71.96199798583984 167.23416137695312 78.48075103759766 198.74578857421875 60.025474548339844 200.51560974121094 C 25.70537757873535 203.8675079345703 21.386245727539062 200.9217987060547 54.576988220214844 203.28317260742188 C 42.10647201538086 211.22276306152344 95.93822479248047 215.30099487304688 63.27665710449219 186.8225860595703" stroke-width="2.0" fill="none" stroke="rgb(0, 0, 0)" stroke-opacity="1" stroke-linecap="round" stroke-linejoin="round"/>
    <path d="M 21.737333297729492 58.615318298339844 C 50.77710723876953 50.84817123413086 61.173744201660156 27.044628143310547 88.82807159423828 3.790151834487915 C 114.43914031982422 11.819178581237793 84.61608123779297 -11.064628601074219 48.79973220825195 4.978951454162598 C 50.746524810791016 39.703269958496094 47.972862243652344 4.358922481536865 29.80706787109375 8.888470649719238" stroke-width="2.0" fill="none" stroke="rgb(0, 0, 0)" stroke-opacity="1" stroke-linecap="round" stroke-linejoin="round"/>
    <path d="M 71.25444030761719 27.14211654663086 C 80.66007995605469 15.929293632507324 79.69493103027344 20.94927978515625 68.7295150756836 5.410362720489502 C 40.70841979980469 -0.11854593455791473 44.74864196777344 29.678936004638672 56.15741729736328 11.551453590393066" stroke-width="2.0" fill="none" stroke="rgb(0, 0, 0)" stroke-opacity="1" stroke-linecap="round" stroke-linejoin="round"/>
    <path d="M 148.05484008789062 183.0621337890625 C 93.30943298339844 156.6988983154297 119.25227355957031 183.19174194335938 112.14173126220703 191.92002868652344 C 112.77632141113281 189.82623291015625 151.92308044433594 171.7318572998047 171.00228881835938 195.29867553710938" stroke-width="2.0" fill="none" stroke="rgb(0, 0, 0)" stroke-opacity="1" stroke-linecap="round" stroke-linejoin="round"/>
    <path d="M 22.94807243347168 141.8570556640625 C 10.519065856933594 188.76522827148438 3.134106397628784 157.6895751953125 -1.292038083076477 140.91409301757812 C -13.005193710327148 194.37857055664062 -12.10235595703125 190.033447265625 -2.1484627723693848 149.08738708496094 C 0.4944382607936859 172.99623107910156 16.629810333251953 189.93576049804688 30.56319236755371 152.09332275390625" stroke-width="2.0" fill="none" stroke="rgb(0, 0, 0)" stroke-opacity="1" stroke-linecap="round" stroke-linejoin="round"/>
    <path d="M 194.33506774902344 127.30449676513672 C 170.6643524169922 144.26548767089844 181.66184997558594 118.47433471679688 176.1949920654297 153.66326904296875 C 178.70889282226562 160.8422088623047 181.9506072998047 112.70292663574219 198.46156311035156 155.81935119628906" stroke-width="2.0" fill="none" stroke="rgb(0, 0, 0)" stroke-opacity="1" stroke-linecap="round" stroke-linejoin="round"/>
    <path d="M 200.42764282226562 228.6298828125 C 204.64927673339844 237.58103942871094 210.7672576904297 228.86097717285156 215.8471221923828 226.430419921875" stroke-width="2.0" fill="none" stroke="rgb(0, 0, 0)" stroke-opacity="1" stroke-linecap="round" stroke-linejoin="round"/>
    <path d="M 44.4898567199707 75.771484375 C 87.63793182373047 68.40167999267578 58.55541229248047 66.26802062988281 82.74842834472656 67.99320983886719" stroke-width="2.0" fill="none" stroke="rgb(0, 0, 0)" stroke-opacity="1" stroke-linecap="round" stroke-linejoin="round"/>
    <path d="M 44.972171783447266 155.06439208984375 C 32.80485916137695 188.63790893554688 18.94554901123047 178.4971923828125 36.02141571044922 157.3182830810547" stroke-width="2.0" fill="none" stroke="rgb(0, 0, 0)" stroke-opacity="1" stroke-linecap="round" stroke-linejoin="round"/>
    <path d="M 218.2305145263672 144.0310516357422 C 229.94602966308594 137.86233520507812 226.51556396484375 141.08230590820312 229.9872283935547 125.07551574707031 C 233.61593627929688 146.08428955078125 224.3351287841797 143.7212677001953 230.43646240234375 109.76249694824219" stroke-width="2.0" fill="none" stroke="rgb(0, 0, 0)" stroke-opacity="1" stroke-linecap="round" stroke-linejoin="round"/>
    <path d="M 137.92530822753906 203.03494262695312 C 131.8496551513672 238.3035125732422 127.41983032226562 196.31857299804688 137.72642517089844 200.45220947265625 C 183.58233642578125 224.0336456298828 202.7401885986328 218.1741180419922 190.95382690429688 232.3958740234375 C 170.4658203125 233.25857543945312 158.37374877929688 215.078857421875 115.97762298583984 240.0257110595703" stroke-width="2.0" fill="none" stroke="rgb(0, 0, 0)" stroke-opacity="1" stroke-linecap="round" stroke-linejoin="round"/>
    <path d="M 191.70883178710938 172.28741455078125 C 221.61032104492188 186.8733367919922 186.89974975585938 166.25514221191406 182.3308868408203 157.16465759277344 C 192.48500061035156 109.85015869140625 178.08029174804688 106.55274200439453 184.71737670898438 143.1028594970703 C 175.72166442871094 135.73214721679688 183.68870544433594 150.58924865722656 144.02471923828125 164.6274871826172" stroke-width="2.0" fill="none" stroke="rgb(0, 0, 0)" stroke-opacity="1" stroke-linecap="round" stroke-linejoin="round"/>
    <path d="M 53.69121170043945 144.6853790283203 C 75.33796691894531 185.67787170410156 78.7088623046875 193.9672393798828 81.22160339355469 163.81349182128906 C 88.82383728027344 179.81910705566406 70.29985809326172 192.56407165527344 79.86650085449219 173.25816345214844" stroke-width="2.0" fill="none" stroke="rgb(0, 0, 0)" stroke-opacity="1" stroke-linecap="round" stroke-linejoin="round"/>
    <path d="M 36.95519256591797 -8.907428741455078 C 46.36772155761719 0.29693812131881714 53.61154556274414 0.16936561465263367 38.46488571166992 -6.141741752624512" stroke-width="2.0" fill="none" stroke="rgb(0, 0, 0)" stroke-opacity="1" stroke-linecap="round" stroke-linejoin="round"/>
    <path d="M 182.1287841796875 52.815338134765625 C 173.67034912109375 94.91771697998047 164.4949493408203 82.78385162353516 176.61605834960938 53.3927001953125" stroke-width="2.0" fill="none" stroke="rgb(0, 0, 0)" stroke-opacity="1" stroke-linecap="round" stroke-linejoin="round"/>
    <path d="M 226.0719757080078 46.70092010498047 C 212.2810516357422 43.422569274902344 194.2780303955078 54.88302230834961 186.447509765625 85.56990051269531 C 200.209228515625 64.54298400878906 180.29405212402344 81.52702331542969 212.0625457763672 77.2559814453125 C 214.86695861816406 74.29020690917969 211.25685119628906 100.79271697998047 230.87232971191406 106.48726654052734" stroke-width="2.0" fill="none" stroke="rgb(0, 0, 0)" stroke-opacity="1" stroke-linecap="round" stroke-linejoin="round"/>
    <path d="M 186.951171875 106.06608581542969 C 143.7685089111328 77.24467468261719 159.28765869140625 61.32612991333008 141.7455291748047 80.8643798828125 C 146.62535095214844 74.5559310913086 151.46473693847656 91.2281265258789 163.25537109375 93.54847717285156" stroke-width="2.0" fill="none" stroke="rgb(0, 0, 0)" stroke-opacity="1" stroke-linecap="round" stroke-linejoin="round"/>
    <path d="M 54.698974609375 194.39047241210938 C 88.99381256103516 220.59686279296875 75.82290649414062 173.74119567871094 70.50309753417969 168.0453338623047 C 51.01387023925781 164.85629272460938 49.53482437133789 164.6811065673828 62.121734619140625 149.01345825195312" stroke-width="2.0" fill="none" stroke="rgb(0, 0, 0)" stroke-opacity="1" stroke-linecap="round" stroke-linejoin="round"/>
    <path d="M 113.15939331054688 203.0412139892578 C 95.68049621582031 208.19447326660156 55.988224029541016 213.38296508789062 80.26165008544922 207.4732208251953" stroke-width="2.0" fill="none" stroke="rgb(0, 0, 0)" stroke-opacity="1" stroke-linecap="round" stroke-linejoin="round"/>
    <path d="M 142.15005493164062 226.18934631347656 C 123.86307525634766 199.64596557617188 157.49427795410156 203.7229461669922 126.89820098876953 217.37208557128906" stroke-width="2.0" fill="none" stroke="rgb(0, 0, 0)" stroke-opacity="1" stroke-linecap="round" stroke-linejoin="round"/>
    <path d="M -3.985689401626587 16.06650733947754 C -7.374011039733887 4.408911228179932 -14.920164108276367 11.800030708312988 -14.877830505371094 3.970898389816284" stroke-width="2.0" fill="none" stroke="rgb(0, 0, 0)" stroke-opacity="1" stroke-linecap="round" stroke-linejoin="round"/>
    <path d="M 68.78610229492188 45.90208053588867 C 82.78500366210938 62.12443161010742 127.30474853515625 57.06786346435547 81.21086120605469 54.39703369140625 C 62.791534423828125 69.57268524169922 113.53140258789062 66.03749084472656 96.08557891845703 56.1087532043457" stroke-width="2.0" fill="none" stroke="rgb(0, 0, 0)" stroke-opacity="1" stroke-linecap="round" stroke-linejoin="round"/>
    <path d="M 62.582950592041016 113.14756774902344 C 16.825979232788086 87.43704223632812 51.25532531738281 110.62773895263672 36.75263977050781 103.04460144042969 C 15.664502143859863 103.0313720703125 9.552428245544434 76.75203704833984 42.186973571777344 72.73838806152344" stroke-width="2.0" fill="none" stroke="rgb(0, 0, 0)" stroke-opacity="1" stroke-linecap="round" stroke-linejoin="round"/>
    <path d="M 69.90626525878906 139.10894775390625 C 87.06114196777344 97.83258056640625 84.01698303222656 116.88372802734375 73.95530700683594 124.27823638916016" stroke-width="2.0" fill="none" stroke="rgb(0, 0, 0)" stroke-opacity="1" stroke-linecap="round" stroke-linejoin="round"/>
    <path d="M 134.0397186279297 212.02572631835938 C 135.86837768554688 196.497802734375 160.92840576171875 211.13621520996094 136.16796875 218.17840576171875" stroke-width="2.0" fill="none" stroke="rgb(0, 0, 0)" stroke-opacity="1" stroke-linecap="round" stroke-linejoin="round"/>
    <path d="M 5.733850002288818 52.50536346435547 C 65.29871368408203 44.110496520996094 63.30382537841797 8.816612243652344 60.21683883666992 28.4404239654541 C 27.18837547302246 39.78767395019531 38.620731353759766 48.7869873046875 66.56941223144531 21.673959732055664" stroke-width="2.0" fill="none" stroke="rgb(0, 0, 0)" stroke-opacity="1" stroke-linecap="round" stroke-linejoin="round"/>
    <path d="M 160.3667755126953 181.78529357910156 C 94.91463470458984 170.93861389160156 119.96048736572266 194.70372009277344 108.86856842041016 177.1477813720703 C 111.0942611694336 161.83999633789062 117.05460357666016 166.21929931640625 107.06886291503906 167.74664306640625 C 144.19137573242188 183.3296661376953 103.32450103759766 146.4225616455078 132.98178100585938 164.3415985107422" stroke-width="2.0" fill="none" stroke="rgb(0, 0, 0)" stroke-opacity="1" stroke-linecap="round" stroke-linejoin="round"/>
    <path d="M 193.91500854492188 143.3814239501953 C 165.25115966796875 155.7711639404297 164.1909942626953 125.42790985107422 171.39646911621094 123.33721923828125 C 197.13525390625 144.98187255859375 190.67193603515625 124.60675811767578 181.92340087890625 110.53308868408203 C 189.9237823486328 117.15357971191406 169.8253173828125 138.3282928466797 150.54263305664062 131.77694702148438" stroke-width="2.0" fill="none" stroke="rgb(0, 0, 0)" stroke-opacity="1" stroke-linecap="round" stroke-linejoin="round"/>
    <path d="M 85.15005493164062 186.8167266845703 C 105.75804138183594 169.37306213378906 79.94705200195312 172.56236267089844 92.55054473876953 162.67745971679688" stroke-width="2.0" fill="none" stroke="rgb(0, 0, 0)" stroke-opacity="1" stroke-linecap="round" stroke-linejoin="round"/>
    <path d="M 128.67152404785156 6.726584434509277 C 163.29624938964844 -4.558635234832764 152.30467224121094 57.87018585205078 161.5924835205078 21.20030975341797 C 162.78070068359375 23.42910385131836 190.1464080810547 19.584430694580078 166.4606475830078 4.648931503295898" stroke-width="2.0" fill="none" stroke="rgb(0, 0, 0)" stroke-opacity="1" stroke-linecap="round" stroke-linejoin="round"/>
    <path d="M 67.91399383544922 181.84478759765625 C 53.17668914794922 161.93821716308594 45.50718688964844 176.5618133544922 42.26995849609375 174.55812072753906" stroke-width="2.0" fill="none" stroke="rgb(0, 0, 0)" stroke-opacity="1" stroke-linecap="round" stroke-linejoin="round"/>
    <path d="M 166.04519653320312 144.13693237304688 C 205.9911346435547 131.22705078125 203.4654998779297 136.56588745117188 142.47903442382812 125.38483428955078" stroke-width="2.0" fill="none" stroke="rgb(0, 0, 0)" stroke-opacity="1" stroke-linecap="round" stroke-linejoin="round"/>
    <path d="M 31.427156448364258 119.82649993896484 C 26.38808250427246 134.60411071777344 39.947364807128906 120.65719604492188 51.745853424072266 117.59211730957031 C 31.735902786254883 137.7132568359375 35.23686981201172 166.6399383544922 44.61503982543945 142.85360717773438 C 45.77164840698242 161.77000427246094 27.607059478759766 152.92938232421875 37.26152801513672 177.2245635986328" stroke-width="2.0" fill="none" stroke="rgb(0, 0, 0)" stroke-opacity="1" stroke-linecap="round" stroke-linejoin="round"/>
    <path d="M 181.34503173828125 -5.469661712646484 C 164.37380981445312 -6.644188404083252 167.0395965576172 -7.680326461791992 184.71153259277344 -8.761758804321289 C 204.20936584472656 -7.067052841186523 193.93716430664062 -0.37685805559158325 195.90992736816406 -9.689205169677734" stroke-width="2.0" fill="none" stroke="rgb(0, 0, 0)" stroke-opacity="1" stroke-linecap="round" stroke-linejoin="round"/>
    <path d="M 17.539993286132812 100.02867126464844 C 43.58292007446289 119.66336822509766 54.12953567504883 123.94937896728516 31.66400718688965 104.20829010009766" stroke-width="2.0" fill="none" stroke="rgb(0, 0, 0)" stroke-opacity="1" stroke-linecap="round" stroke-linejoin="round"/>
    <path d="M 140.91586303710938 29.998056411743164 C 154.46803283691406 57.03594207763672 157.11500549316406 21.47804069519043 159.93499755859375 65.76573944091797 C 137.40025329589844 52.69004821777344 165.0212860107422 88.50773620605469 135.01441955566406 66.99406433105469 C 122.44522094726562 54.571659088134766 149.41555786132812 79.17317199707031 124.54370880126953 78.9232177734375" stroke-width="2.0" fill="none" stroke="rgb(0, 0, 0)" stroke-opacity="1" stroke-linecap="round" stroke-linejoin="round"/>
    <path d="M 11.737410545349121 219.6802520751953 C 13.54256534576416 172.6080780029297 -7.300720691680908 198.05633544921875 14.182856559753418 224.96304321289062 C 4.21025276184082 211.42698669433594 13.952491760253906 206.1218719482422 21.919544219970703 234.97402954101562" stroke-width="2.0" fill="none" stroke="rgb(0, 0, 0)" stroke-opacity="1" stroke-linecap="round" stroke-linejoin="round"/>
    <path d="M 34.25638198852539 103.88577270507812 C 46.56590270996094 124.49197387695312 70.88664245605469 117.73985290527344 34.91453552246094 96.77169036865234 C 60.445777893066406 71.7806167602539 72.458740234375 99.4812240600586 57.982635498046875 90.17884063720703 C 61.76039123535156 64.46232604980469 76.96511840820312 105.91875457763672 75.85682678222656 91.99464416503906" stroke-width="2.0" fill="none" stroke="rgb(0, 0, 0)" stroke-opacity="1" stroke-linecap="round" stroke-linejoin="round"/>
    <path d="M 215.57460021972656 153.3466796875 C 234.62728881835938 151.31973266601562 233.8787384033203 141.29222106933594 237.60899353027344 148.73562622070312" stroke-width="2.0" fill="none" stroke="rgb(0, 0, 0)" stroke-opacity="1" stroke-linecap="round" stroke-linejoin="round"/>
    <path d="M 70.66353607177734 167.8720245361328 C 65.40938568115234 160.99444580078125 65.54013061523438 171.68585205078125 59.803897857666016 153.50733947753906" stroke-width="2.0" fill="none" stroke="rgb(0, 0, 0)" stroke-opacity="1" stroke-linecap="round" stroke-linejoin="round"/>
    <path d="M 38.159645080566406 78.52976989746094 C 85.11277770996094 76.76592254638672 83.79927825927734 73.93861389160156 65.9969482421875 79.5390853881836" stroke-width="2.0" fill="none" stroke="rgb(0, 0, 0)" stroke-opacity="1" stroke-linecap="round" stroke-linejoin="round"/>
    <path d="M -2.5099306106567383 182.10012817382812 C 19.7475528717041 189.66175842285156 35.52146911621094 170.35275268554688 7.163613319396973 199.92605590820312 C 10.720757484436035 225.69598388671875 12.038745880126953 189.0711669921875 63.0261116027832 202.64170837402344" stroke-width="2.0" fill="none" stroke="rgb(0, 0, 0)" stroke-opacity="1" stroke-linecap="round" stroke-linejoin="round"/>
    <path d="M 163.782470703125 73.7251968383789 C 128.7709197998047 50.50514602661133 165.17318725585938 67.39961242675781 158.71604919433594 55.82844924926758 C 130.33453369140625 54.77534484863281 102.40872955322266 55.67125701904297 127.00492095947266 69.3147201538086" stroke-width="2.0" fill="none" stroke="rgb(0, 0, 0)" stroke-opacity="1" stroke-linecap="round" stroke-linejoin="round"/>
    <path d="M 24.873838424682617 69.01468658447266 C 15.834732055664062 72.16676330566406 51.514713287353516 58.62691879272461 15.52109432220459 67.62286376953125" stroke-width="2.0" fill="none" stroke="rgb(0, 0, 0)" stroke-opacity="1" stroke-linecap="round" stroke-linejoin="round"/>
    <path d="M 192.7253875732422 115.88740539550781 C 190.4699249267578 120.8692398071289 196.38034057617188 107.58946990966797 191.3383331298828 110.59662628173828 C 196.60035705566406 121.80681610107422 200.9949493408203 156.1936492919922 191.35488891601562 129.80982971191406" stroke-width="2.0" fill="none" stroke="rgb(0, 0, 0)" stroke-opacity="1" stroke-linecap="round" stroke-linejoin="round"/>
    <path d="M 168.5826873779297 184.55746459960938 C 185.2556610107422 206.01133728027344 140.87184143066406 200.74427795410156 165.62762451171875 201.22512817382812 C 121.84917449951172 208.16815185546875 135.7251739501953 211.22891235351562 154.1627197265625 230.19931030273438" stroke-width="2.0" fill="none" stroke="rgb(0, 0, 0)" stroke-opacity="1" stroke-linecap="round" stroke-linejoin="round"/>
    <path d="M 136.2551727294922 82.34628295898438 C 162.1973419189453 107.88184356689453 178.66432189941406 90.41393280029297 136.2868194580078 113.08403778076172 C 121.761962890625 123.99183654785156 158.9372100830078 102.03666687011719 176.0907745361328 126.71573638916016" stroke-width="2.0" fill="none" stroke="rgb(0, 0, 0)" stroke-opacity="1" stroke-linecap="round" stroke-linejoin="round"/>
    <path d="M 63.9840087890625 15.779626846313477 C 49.593021392822266 53.49199676513672 45.99285888671875 11.890115737915039 76.15997314453125 21.197967529296875" stroke-width="2.0" fill="none" stroke="rgb(0, 0, 0)" stroke-opacity="1" stroke-linecap="round" stroke-linejoin="round"/>
    <path d="M 9.333328247070312 124.84223937988281 C 45.525657653808594 135.5349884033203 13.76900863647461 115.91542053222656 -2.494225263595581 128.953857421875 C -10.561161041259766 156.61187744140625 5.0920305252075195 118.20706939697266 30.061580657958984 132.06382751464844" stroke-width="2.0" fill="none" stroke="rgb(0, 0, 0)" stroke-opacity="1" stroke-linecap="round" stroke-linejoin="round"/>
    <path d="M 18.257951736450195 72.32630157470703 C 76.9820327758789 53.15018081665039 66.25642395019531 60.09684371948242 19.837305068969727 92.831298828125" stroke-width="2.0" fill="none" stroke="rgb(0, 0, 0)" stroke-opacity="1" stroke-linecap="round" stroke-linejoin="round"/>
    <path d="M 66.2113037109375 20.065860748291016 C 85.50495147705078 -5.3586249351501465 40.67385482788086 14.273187637329102 57.3164176940918 9.223091125488281 C 32.1312255859375 33.802337646484375 56.426639556884766 15.175349235534668 37.97394561767578 -1.4215389490127563" stroke-width="2.0" fill="none" stroke="rgb(0, 0, 0)" stroke-opacity="1" stroke-linecap="round" stroke-linejoin="round"/>
    <path d="M 110.66864013671875 121.27538299560547 C 130.31167602539062 111.11548614501953 161.8809814453125 92.70714569091797 117.26643371582031 124.29871368408203" stroke-width="2.0" fill="none" stroke="rgb(0, 0, 0)" stroke-opacity="1" stroke-linecap="round" stroke-linejoin="round"/>
    <path d="M 40.35858154296875 141.8016357421875 C 22.42156982421875 192.92803955078125 3.979928493499756 176.39598083496094 33.265010833740234 174.63333129882812" stroke-width="2.0" fill="none" stroke="rgb(0, 0, 0)" stroke-opacity="1" stroke-linecap="round" stroke-linejoin="round"/>
    <path d="M 138.95321655273438 115.76620483398438 C 150.05416870117188 117.89334106445312 143.60293579101562 108.97344207763672 129.17257690429688 119.36006164550781 C 143.29103088378906 111.26361083984375 170.8402557373047 113.23606872558594 166.93869018554688 133.37210083007812" stroke-width="2.0" fill="none" stroke="rgb(0, 0, 0)" stroke-opacity="1" stroke-linecap="round" stroke-linejoin="round"/>
    <path d="M 185.2456512451172 177.98776245117188 C 218.54010009765625 199.90306091308594 186.1654815673828 206.69630432128906 172.9053955078125 169.73190307617188 C 173.12313842773438 214.2185516357422 207.15414428710938 199.75762939453125 222.1811981201172 197.77651977539062 C 240.34828186035156 193.44342041015625 221.16973876953125 198.4385528564453 185.5218505859375 193.75074768066406" stroke-width="2.0" fill="none" stroke="rgb(0, 0, 0)" stroke-opacity="1" stroke-linecap="round" stroke-linejoin="round"/>
    <path d="M 203.7919921875 79.04129028320312 C 218.7449951171875 79.70851135253906 210.50608825683594 96.48807525634766 210.71751403808594 60.26760482788086 C 218.01954650878906 102.20780181884766 196.39541625976562 74.06903076171875 207.84561157226562 61.48411178588867" stroke-width="2.0" fill="none" stroke="rgb(0, 0, 0)" stroke-opacity="1" stroke-linecap="round" stroke-linejoin="round"/>
    <path d="M 207.21131896972656 62.475669860839844 C 210.64476013183594 94.55542755126953 202.77716064453125 69.09889221191406 199.6884765625 79.8636703491211 C 222.41712951660156 75.88643646240234 207.39956665039062 89.22322845458984 213.45001220703125 56.9181022644043" stroke-width="2.0" fill="none" stroke="rgb(0, 0, 0)" stroke-opacity="1" stroke-linecap="round" stroke-linejoin="round"/>
    <path d="M 52.05133819580078 45.371673583984375 C 45.51171875 41.3155517578125 38.62507247924805 46.61166763305664 60.752784729003906 42.1355094909668 C 36.406009674072266 45.1380615234375 28.490116119384766 59.77076721191406 81.25996398925781 60.975677490234375" stroke-width="2.0" fill="none" stroke="rgb(0, 0, 0)" stroke-opacity="1" stroke-linecap="round" stroke-linejoin="round"/>
    <path d="M 107.87056732177734 76.97666931152344 C 123.22887420654297 83.91546630859375 123.89988708496094 103.32553100585938 145.8192596435547 93.56288146972656" stroke-width="2.0" fill="none" stroke="rgb(0, 0, 0)" stroke-opacity="1" stroke-linecap="round" stroke-linejoin="round"/>
    <path d="M 5.141263961791992 118.73767852783203 C 29.12523078918457 116.23383331298828 32.84735870361328 144.52777099609375 32.44171142578125 130.37831115722656 C 38.1539192199707 129.06912231445312 41.0894660949707 131.18836975097656 13.800253868103027 107.64185333251953" stroke-width="2.0" fill="none" stroke="rgb(0, 0, 0)" stroke-opacity="1" stroke-linecap="round" stroke-linejoin="round"/>
    <path d="M 70.43598175048828 6.480046272277832 C 81.55850219726562 32.80218505859375 78.5611343383789 33.5139274597168 65.93342590332031 12.909913063049316" stroke-width="2.0" fill="none" stroke="rgb(0, 0, 0)" stroke-opacity="1" stroke-linecap="round" stroke-linejoin="round"/>
    <path d="M 105.27193450927734 207.9987335205078 C 119.59529113769531 206.48973083496094 125.67589569091797 206.1265106201172 130.0685577392578 198.30775451660156 C 116.88459014892578 196.18849182128906 58.15227127075195 211.8016357421875 110.89649963378906 202.0609130859375 C 74.6953125 202.1373291015625 104.1940689086914 201.19119262695312 76.51344299316406 211.57691955566406" stroke-width="2.0" fill="none" stroke="rgb(0, 0, 0)" stroke-opacity="1" stroke-linecap="round" stroke-linejoin="round"/>
    <path d="M 134.95254516601562 3.5106701850891113 C 104.09700775146484 -0.04324011132121086 103.20032501220703 3.475356340408325 105.16761016845703 9.237883567810059 C 132.59849548339844 2.472754955291748 133.8972930908203 8.914057731628418 108.0866470336914 13.62702465057373" stroke-width="2.0" fill="none" stroke="rgb(0, 0, 0)" stroke-opacity="1" stroke-linecap="round" stroke-linejoin="round"/>
    <path d="M 163.87844848632812 147.44956970214844 C 186.5079803466797 165.57432556152344 181.8079833984375 170.33714294433594 168.0443115234375 178.68186950683594 C 171.09429931640625 159.8053741455078 173.92393493652344 177.4213409423828 175.06251525878906 172.9613800048828 C 137.8062286376953 171.49205017089844 124.65998077392578 173.9039306640625 136.0910186767578 160.38267517089844" stroke-width="2.0" fill="none" stroke="rgb(0, 0, 0)" stroke-opacity="1" stroke-linecap="round" stroke-linejoin="round"/>
    <path d="M 192.25790405273438 132.75308227539062 C 192.90589904785156 117.950439453125 167.1923065185547 132.18544006347656 166.3014373779297 130.66510009765625 C 145.0819549560547 114.7262954711914 149.53944396972656 141.9979705810547 173.84288024902344 128.0689239501953 C 182.8854217529297 138.77247619628906 149.71621704101562 157.37786865234375 170.03582763671875 154.95382690429688" stroke-width="2.0" fill="none" stroke="rgb(0, 0, 0)" stroke-opacity="1" stroke-linecap="round" stroke-linejoin="round"/>
    <path d="M 193.13717651367188 232.3428955078125 C 184.9185028076172 234.4490203857422 189.16539001464844 238.11285400390625 184.98507690429688 247.98269653320312" stroke-width="2.0" fill="none" stroke="rgb(0, 0, 0)" stroke-opacity="1" stroke-linecap="round" stroke-linejoin="round"/>
    <path d="M 163.84103393554688 208.0335693359375 C 192.6977996826172 201.0200653076172 172.84739685058594 168.31101989746094 170.2703399658203 168.9234619140625 C 174.114501953125 178.13693237304688 164.8216552734375 171.45375061035156 178.7389678955078 173.42657470703125" stroke-width="2.0" fill="none" stroke="rgb(0, 0, 0)" stroke-opacity="1" stroke-linecap="round" stroke-linejoin="round"/>
    <path d="M 141.3831787109375 3.1560325622558594 C 169.44949340820312 13.962825775146484 157.53176879882812 27.822593688964844 123.72969818115234 33.44233322143555 C 139.7122802734375 32.734500885009766 147.99781799316406 16.00712013244629 134.399658203125 10.58743667602539" stroke-width="2.0" fill="none" stroke="rgb(0, 0, 0)" stroke-opacity="1" stroke-linecap="round" stroke-linejoin="round"/>
    <path d="M 182.14109802246094 142.09866333007812 C 175.2007598876953 151.16482543945312 161.93348693847656 166.59657287597656 122.02435302734375 162.77804565429688" stroke-width="2.0" fill="none" stroke="rgb(0, 0, 0)" stroke-opacity="1" stroke-linecap="round" stroke-linejoin="round"/>
    <path d="M 106.48686218261719 113.59904479980469 C 136.61981201171875 94.017333984375 153.88888549804688 98.2168960571289 132.58981323242188 99.61965942382812 C 125.34925079345703 110.732421875 146.12193298339844 90.78955841064453 135.1251983642578 97.76248168945312" stroke-width="2.0" fill="none" stroke="rgb(0, 0, 0)" stroke-opacity="1" stroke-linecap="round" stroke-linejoin="round"/>
    <path d="M 130.7044677734375 224.42239379882812 C 159.58200073242188 206.93482971191406 162.89076232910156 224.30458068847656 136.04754638671875 218.58506774902344 C 147.2013702392578 216.71234130859375 152.69320678710938 208.95880126953125 164.97267150878906 223.31689453125" stroke-width="2.0" fill="none" stroke="rgb(0, 0, 0)" stroke-opacity="1" stroke-linecap="round" stroke-linejoin="round"/>
    <path d="M 150.86968994140625 50.48698806762695 C 106.34001159667969 5.323550701141357 130.911865234375 53.31396484375 116.18144226074219 37.42359161376953 C 138.70713806152344 60.62986755371094 132.47023010253906 63.23982620239258 142.31951904296875 47.21788024902344 C 133.2833251953125 84.51317596435547 157.1692352294922 64.56751251220703 132.00901794433594 38.0418815612793" stroke-width="2.0" fill="none" stroke="rgb(0, 0, 0)" stroke-opacity="1" stroke-linecap="round" stroke-linejoin="round"/>
    <path d="M 38.99066162109375 129.27781677246094 C 42.13184356689453 102.45387268066406 14.084290504455566 124.79784393310547 36.96861267089844 116.94889831542969" stroke-width="2.0" fill="none" stroke="rgb(0, 0, 0)" stroke-opacity="1" stroke-linecap="round" stroke-linejoin="round"/>
    <path d="M 47.098873138427734 118.75811004638672 C 55.06964874267578 146.75314331054688 23.607894897460938 119.4640121459961 48.97968673706055 109.7829818725586 C 46.62154006958008 144.36700439453125 22.277118682861328 136.85986328125 40.49679946899414 141.72601318359375 C 31.891233444213867 133.13870239257812 42.72026443481445 141.48655700683594 17.4681396484375 165.40023803710938" stroke-width="2.0" fill="none" stroke="rgb(0, 0, 0)" stroke-opacity="1" stroke-linecap="round" stroke-linejoin="round"/>
    <path d="M 172.9029998779297 134.2653045654297 C 190.97181701660156 152.84413146972656 176.2504425048828 144.07093811035156 184.60855102539062 144.76715087890625 C 179.0152587890625 133.72613525390625 136.14097595214844 124.9345932006836 172.95431518554688 135.50682067871094 C 167.73895263671875 150.41864013671875 169.92227172851562 141.88125610351562 173.71617126464844 125.01008605957031" stroke-width="2.0" fill="none" stroke="rgb(0, 0, 0)" stroke-opacity="1" stroke-linecap="round" stroke-linejoin="round"/>
    <path d="M -0.00951319932937622 12.04721450805664 C 3.7441790103912354 46.20975875854492 35.035430908203125 35.216251373291016 36.488441467285156 29.205034255981445 C 12.301703453063965 38.94968032836914 44.83970260620117 21.471324920654297 34.6619758605957 19.490331649780273 C 22.794641494750977 36.27021408081055 29.88640594482422 29.013975143432617 36.853694915771484 26.87233543395996" stroke-width="2.0" fill="none" stroke="rgb(0, 0, 0)" stroke-opacity="1" stroke-linecap="round" stroke-linejoin="round"/>
    <path d="M 181.693359375 60.75779342651367 C 178.1239776611328 81.1252212524414 174.29820251464844 57.466590881347656 187.7653350830078 68.048583984375 C 185.9757843017578 47.27884292602539 199.66912841796875 66.93843841552734 189.2449951171875 42.9422721862793" stroke-width="2.0" fill="none" stroke="rgb(0, 0, 0)" stroke-opacity="1" stroke-linecap="round" stroke-linejoin="round"/>
    <path d="M 14.840739250183105 205.45616149902344 C 57.33977508544922 204.54527282714844 63.005897521972656 196.28309631347656 70.34367370605469 191.0858917236328 C 74.29798889160156 193.18104553222656 48.621273040771484 202.7046661376953 34.59062576293945 197.00218200683594" stroke-width="2.0" fill="none" stroke="rgb(0, 0, 0)" stroke-opacity="1" stroke-linecap="round" stroke-linejoin="round"/>
    <path d="M 90.85914611816406 38.83717727661133 C 95.49870300292969 20.119155883789062 75.0760269165039 53.78092575073242 108.31365203857422 33.25817108154297 C 104.1610336303711 60.665618896484375 75.87779998779297 48.53118896484375 91.2568130493164 52.31953430175781" stroke-width="2.0" fill="none" stroke="rgb(0, 0, 0)" stroke-opacity="1" stroke-linecap="round" stroke-linejoin="round"/>
    <path d="M 10.449163436889648 112.39289855957031 C 3.8322784900665283 105.3144760131836 52.5440673828125 141.53982543945312 17.435659408569336 104.875244140625 C 14.760284423828125 72.62004089355469 56.60411071777344 67.29867553710938 47.39202880859375 73.78746795654297" stroke-width="2.0" fill="none" stroke="rgb(0, 0, 0)" stroke-opacity="1" stroke-linecap="round" stroke-linejoin="round"/>
    <path d="M 213.51638793945312 118.2209701538086 C 214.44125366210938 77.11925506591797 202.8282012939453 97.47299194335938 207.014404296875 88.92861938476562 C 210.11512756347656 98.05587768554688 208.2397003173828 138.60205078125 205.6001434326172 87.77272033691406 C 197.56288146972656 102.44320678710938 202.9802703857422 155.60728454589844 222.9238739013672 146.5723114013672" stroke-width="2.0" fill="none" stroke="rgb(0, 0, 0)" stroke-opacity="1" stroke-linecap="round" stroke-linejoin="round"/>
    <path d="M 24.328039169311523 219.95777893066406 C 20.64966583251953 231.5568389892578 13.588918685913086 246.9534912109375 -0.1388830542564392 201.9777374267578 C 4.537647724151611 241.39291381835938 12.090522766113281 242.2462921142578 -11.88382625579834 219.5893096923828 C -19.584453582763672 224.4588165283203 -30.77288055419922 215.7606658935547 -40.9344596862793 220.3250732421875" stroke-width="2.0" fill="none" stroke="rgb(0, 0, 0)" stroke-opacity="1" stroke-linecap="round" stroke-linejoin="round"/>
    <path d="M 154.26646423339844 4.771189212799072 C 174.20201110839844 31.79451560974121 179.54864501953125 3.6003596782684326 143.8912811279297 1.544297218322754" stroke-width="2.0" fill="none" stroke="rgb(0, 0, 0)" stroke-opacity="1" stroke-linecap="round" stroke-linejoin="round"/>
    <path d="M 33.97416305541992 123.3073959350586 C 35.13512420654297 143.64739990234375 12.640386581420898 178.92373657226562 7.346534729003906 157.43597412109375" stroke-width="2.0" fill="none" stroke="rgb(0, 0, 0)" stroke-opacity="1" stroke-linecap="round" stroke-linejoin="round"/>
    <path d="M 184.15342712402344 138.63565063476562 C 150.59046936035156 144.87738037109375 137.59622192382812 173.0813446044922 161.91238403320312 159.1552276611328 C 150.3717498779297 161.08782958984375 147.29244995117188 160.91552734375 156.13461303710938 166.21873474121094" stroke-width="2.0" fill="none" stroke="rgb(0, 0, 0)" stroke-opacity="1" stroke-linecap="round" stroke-linejoin="round"/>
    <path d="M 148.94174194335938 114.96525573730469 C 104.54277038574219 128.43577575683594 133.24606323242188 117.505126953125 149.5338897705078 105.53658294677734 C 180.13900756835938 111.63981628417969 175.95286560058594 98.6801528930664 175.02066040039062 131.25633239746094 C 165.27294921875 113.80570220947266 162.94284057617188 112.95610046386719 170.89016723632812 151.06585693359375" stroke-width="2.0" fill="none" stroke="rgb(0, 0, 0)" stroke-opacity="1" stroke-linecap="round" stroke-linejoin="round"/>
    <path d="M 59.03770065307617 21.59305763244629 C 99.77070617675781 14.54268741607666 88.68490600585938 -4.12165641784668 50.74225997924805 3.431871175765991 C 36.461883544921875 -5.2956414222717285 60.85588455200195 -4.75979471206665 52.817848205566406 -6.823379993438721" stroke-width="2.0" fill="none" stroke="rgb(0, 0, 0)" stroke-opacity="1" stroke-linecap="round" stroke-linejoin="round"/>
    <path d="M 149.3082275390625 39.585575103759766 C 164.49270629882812 26.371475219726562 171.3490447998047 69.20875549316406 166.52191162109375 31.497404098510742" stroke-width="2.0" fill="none" stroke="rgb(0, 0, 0)" stroke-opacity="1" stroke-linecap="round" stroke-linejoin="round"/>
    <path d="M 56.4842643737793 30.084514617919922 C 31.385778427124023 35.788360595703125 57.188743591308594 13.720891952514648 92.13155364990234 18.674497604370117 C 72.11872100830078 12.9246826171875 120.15776824951172 24.382972717285156 72.80288696289062 4.056769371032715" stroke-width="2.0" fill="none" stroke="rgb(0, 0, 0)" stroke-opacity="1" stroke-linecap="round" stroke-linejoin="round"/>
    <path d="M 182.19288635253906 228.43026733398438 C 185.54576110839844 240.44656372070312 193.64112854003906 227.81031799316406 195.2283935546875 232.58132934570312 C 179.24879455566406 215.01841735839844 184.0942840576172 212.8752899169922 230.2447052001953 206.3697052001953" stroke-width="2.0" fill="none" stroke="rgb(0, 0, 0)" stroke-opacity="1" stroke-linecap="round" stroke-linejoin="round"/>
    <path d="M 16.2707576751709 218.7716827392578 C 74.42498779296875 216.1806182861328 79.8631362915039 212.46249389648438 60.02647018432617 213.3166961669922" stroke-width="2.0" fill="none" stroke="rgb(0, 0, 0)" stroke-opacity="1" stroke-linecap="round" stroke-linejoin="round"/>
    <path d="M 91.58876037597656 82.50853729248047 C 109.5651626586914 106.4994125366211 102.0456314086914 96.60235595703125 150.47987365722656 93.80204010009766 C 152.53150939941406 99.29761505126953 128.4600830078125 94.80686950683594 121.56652069091797 74.30200958251953" stroke-width="2.0" fill="none" stroke="rgb(0, 0, 0)" stroke-opacity="1" stroke-linecap="round" stroke-linejoin="round"/>
    <path d="M 122.14157104492188 12.392329216003418 C 145.29978942871094 25.723573684692383 111.660888671875 29.52328109741211 117.69546508789062 46.334510803222656 C 125.0871353149414 13.051095962524414 135.79843139648438 34.96290969848633 132.21202087402344 18.850345611572266" stroke-width="2.0" fill="none" stroke="rgb(0, 0, 0)" stroke-opacity="1" stroke-linecap="round" stroke-linejoin="round"/>
    <path d="M 95.96998596191406 -8.728683471679688 C 105.87667846679688 1.2545946836471558 97.107666015625 -3.425546169281006 95.50220489501953 -12.616589546203613 C 82.20748901367188 -4.637783050537109 82.16043853759766 -10.739248275756836 86.64594268798828 -17.919986724853516" stroke-width="2.0" fill="none" stroke="rgb(0, 0, 0)" stroke-opacity="1" stroke-linecap="round" stroke-linejoin="round"/>
    <path d="M 240.16070556640625 43.35282897949219 C 225.51910400390625 27.804157257080078 216.59713745117188 28.822561264038086 227.50772094726562 61.15361785888672 C 229.8797149658203 52.080501556396484 245.8240203857422 56.37826919555664 250.39991760253906 46.271080017089844" stroke-width="2.0" fill="none" stroke="rgb(0, 0, 0)" stroke-opacity="1" stroke-linecap="round" stroke-linejoin="round"/>
    <path d="M 192.31179809570312 223.13253784179688 C 141.8981475830078 204.83969116210938 175.22662353515625 205.9332733154297 241.67422485351562 196.50909423828125 C 230.1726531982422 188.7648162841797 197.34877014160156 194.8345489501953 197.97048950195312 188.99851989746094 C 217.4595947265625 196.7734832763672 184.2681427001953 171.79808044433594 183.9498748779297 170.07516479492188" stroke-width="2.0" fill="none" stroke="rgb(0, 0, 0)" stroke-opacity="1" stroke-linecap="round" stroke-linejoin="round"/>
    <path d="M -5.2763752937316895 14.973371505737305 C 1.484472632408142 44.35994338989258 -2.444406509399414 19.28887176513672 -4.5550856590271 23.586688995361328" stroke-width="2.0" fill="none" stroke="rgb(0, 0, 0)" stroke-opacity="1" stroke-linecap="round" stroke-linejoin="round"/>
    <path d="M 230.23573303222656 98.72512817382812 C 226.3751983642578 77.45735931396484 223.51321411132812 87.80715942382812 226.91915893554688 99.70726776123047" stroke-width="2.0" fill="none" stroke="rgb(0, 0, 0)" stroke-opacity="1" stroke-linecap="round" stroke-linejoin="round"/>
    <path d="M 21.37917709350586 226.16746520996094 C 37.24105453491211 236.29742431640625 46.01337814331055 237.93826293945312 45.0186882019043 242.4130401611328" stroke-width="2.0" fill="none" stroke="rgb(0, 0, 0)" stroke-opacity="1" stroke-linecap="round" stroke-linejoin="round"/>
    <path d="M 161.388671875 1.8832213878631592 C 195.2046661376953 7.3459649085998535 187.0048828125 28.440385818481445 166.5201873779297 26.396249771118164" stroke-width="2.0" fill="none" stroke="rgb(0, 0, 0)" stroke-opacity="1" stroke-linecap="round" stroke-linejoin="round"/>
    <path d="M 39.936981201171875 -6.020083904266357 C -0.5153417587280273 15.934940338134766 -13.876309394836426 18.046409606933594 38.055484771728516 3.3384759426116943" stroke-width="2.0" fill="none" stroke="rgb(0, 0, 0)" stroke-opacity="1" stroke-linecap="round" stroke-linejoin="round"/>
    <path d="M -1.1255689859390259 135.4250946044922 C 45.873085021972656 130.5498809814453 45.32778549194336 133.4959259033203 17.797313690185547 98.01042175292969" stroke-width="2.0" fill="none" stroke="rgb(0, 0, 0)" stroke-opacity="1" stroke-linecap="round" stroke-linejoin="round"/>
    <path d="M 175.0124053955078 105.84414672851562 C 174.95193481445312 98.8221206665039 162.34927368164062 99.03553771972656 165.53370666503906 100.63079833984375 C 172.62940979003906 88.9233627319336 145.17381286621094 90.78952026367188 159.8604278564453 97.36258697509766 C 177.38204956054688 112.58486938476562 188.6759796142578 112.73702239990234 178.93914794921875 130.34788513183594" stroke-width="2.0" fill="none" stroke="rgb(0, 0, 0)" stroke-opacity="1" stroke-linecap="round" stroke-linejoin="round"/>
    <path d="M 47.97101974487305 146.3718719482422 C 52.389007568359375 170.58360290527344 73.18718719482422 179.0247039794922 70.90621185302734 154.2216033935547 C 41.37849426269531 148.76072692871094 79.32138061523438 150.08229064941406 50.57827377319336 130.44215393066406" stroke-width="2.0" fill="none" stroke="rgb(0, 0, 0)" stroke-opacity="1" stroke-linecap="round" stroke-linejoin="round"/>
    <path d="M 220.67234802246094 184.13169860839844 C 175.35183715820312 181.34072875976562 195.34059143066406 163.41290283203125 205.11492919921875 179.26754760742188 C 171.60174560546875 185.67727661132812 184.95864868164062 150.06491088867188 185.8191375732422 183.38101196289062" stroke-width="2.0" fill="none" stroke="rgb(0, 0, 0)" stroke-opacity="1" stroke-linecap="round" stroke-linejoin="round"/>
    <path d="M 105.5206298828125 6.944013595581055 C 128.02525329589844 8.028368949890137 124.39775085449219 0.6210170984268188 99.78573608398438 28.698543548583984 C 134.64503479003906 21.0369815826416 117.45874786376953 49.67192459106445 90.0929183959961 55.2547492980957 C 117.75875091552734 59.30021667480469 110.30492401123047 40.51458740234375 103.22665405273438 53.26987838745117" stroke-width="2.0" fill="none" stroke="rgb(0, 0, 0)" stroke-opacity="1" stroke-linecap="round" stroke-linejoin="round"/>
    <path d="M 91.29625701904297 105.7083511352539 C 74.79865264892578 129.51780700683594 60.67006301879883 121.03123474121094 74.60440063476562 134.677001953125 C 62.900821685791016 110.07937622070312 84.3983154296875 124.4068832397461 86.92528533935547 125.71890258789062 C 78.65388488769531 151.1752471923828 88.3119125366211 108.79264831542969 106.76240539550781 107.37678527832031" stroke-width="2.0" fill="none" stroke="rgb(0, 0, 0)" stroke-opacity="1" stroke-linecap="round" stroke-linejoin="round"/>
    <path d="M 76.9177474975586 86.26581573486328 C 78.74667358398438 113.12444305419922 59.1905632019043 98.11941528320312 29.244020462036133 97.669677734375 C 25.350088119506836 93.67262268066406 53.15108871459961 97.7115249633789 33.53480529785156 83.69557189941406 C 43.13664627075195 63.42839813232422 19.332162857055664 91.79281616210938 41.97589874267578 70.56387329101562" stroke-width="2.0" fill="none" stroke="rgb(0, 0, 0)" stroke-opacity="1" stroke-linecap="round" stroke-linejoin="round"/>
    <path d="M 106.69371795654297 28.615983963012695 C 70.77764892578125 47.51942443847656 104.03138732910156 34.33756637573242 108.21427154541016 3.2338192462921143 C 93.5804214477539 33.31675720214844 65.44359588623047 33.99241638183594 86.70091247558594 18.325002670288086 C 79.32521057128906 20.872953414916992 67.09786224365234 28.628252029418945 85.1335220336914 47.04159927368164" stroke-width="2.0" fill="none" stroke="rgb(0, 0, 0)" stroke-opacity="1" stroke-linecap="round" stroke-linejoin="round"/>
    <path d="M 157.2530975341797 174.54635620117188 C 152.2139129638672 156.8050994873047 180.70263671875 168.09182739257812 154.65074157714844 159.6985626220703 C 164.4776611328125 138.8727264404297 177.48533630371094 148.06375122070312 167.56695556640625 144.52957153320312" stroke-width="2.0" fill="none" stroke="rgb(0, 0, 0)" stroke-opacity="1" stroke-linecap="round" stroke-linejoin="round"/>
    <path d="M 65.8660888671875 11.909451484680176 C 89.0553207397461 10.777288436889648 99.67383575439453 16.833036422729492 103.12517547607422 2.9744222164154053" stroke-width="2.0" fill="none" stroke="rgb(0, 0, 0)" stroke-opacity="1" stroke-linecap="round" stroke-linejoin="round"/>
    <path d="M 219.6009979248047 196.20050048828125 C 226.38519287109375 156.01376342773438 223.0460968017578 194.6407012939453 223.16893005371094 194.56463623046875 C 209.10415649414062 197.13902282714844 183.7340545654297 207.86026000976562 180.3451385498047 183.382080078125" stroke-width="2.0" fill="none" stroke="rgb(0, 0, 0)" stroke-opacity="1" stroke-linecap="round" stroke-linejoin="round"/>
    <path d="M 187.35565185546875 13.240711212158203 C 194.07333374023438 35.21535873413086 161.53346252441406 27.29271697998047 196.35157775878906 31.392059326171875 C 206.6981201171875 41.87333679199219 192.89100646972656 40.8462028503418 190.75233459472656 46.6204719543457 C 185.7814483642578 36.17903137207031 224.85577392578125 42.18605422973633 227.17129516601562 39.127769470214844" stroke-width="2.0" fill="none" stroke="rgb(0, 0, 0)" stroke-opacity="1" stroke-linecap="round" stroke-linejoin="round"/>
    <path d="M 29.20733070373535 169.6814727783203 C 53.6872673034668 119.6228256225586 65.96540069580078 102.07623291015625 45.59761047363281 166.27012634277344" stroke-width="2.0" fill="none" stroke="rgb(0, 0, 0)" stroke-opacity="1" stroke-linecap="round" stroke-linejoin="round"/>
    <path d="M 46.12869644165039 168.68453979492188 C 41.87016296386719 179.30410766601562 6.647853374481201 195.20626831054688 9.74555492401123 212.0621795654297 C 19.816606521606445 207.39332580566406 49.27069854736328 177.80906677246094 73.02075958251953 200.51437377929688 C 86.10880279541016 170.5599822998047 71.21361541748047 195.75750732421875 78.8870620727539 188.91465759277344" stroke-width="2.0" fill="none" stroke="rgb(0, 0, 0)" stroke-opacity="1" stroke-linecap="round" stroke-linejoin="round"/>
    <path d="M 3.648052215576172 46.541969299316406 C 62.72378921508789 50.82621383666992 39.6204833984375 4.2889814376831055 79.22514343261719 9.70259952545166 C 76.25353240966797 42.54261016845703 90.10004425048828 23.55118179321289 82.30103302001953 19.074039459228516 C 27.648921966552734 7.1833086013793945 26.873855590820312 -6.994007587432861 64.49475860595703 11.634178161621094" stroke-width="2.0" fill="none" stroke="rgb(0, 0, 0)" stroke-opacity="1" stroke-linecap="round" stroke-linejoin="round"/>
    <path d="M 28.00008773803711 102.3619155883789 C 77.0257339477539 112.00874328613281 62.3398551940918 148.31321716308594 27.435161590576172 105.04013061523438" stroke-width="2.0" fill="none" stroke="rgb(0, 0, 0)" stroke-opacity="1" stroke-linecap="round" stroke-linejoin="round"/>
    <path d="M 136.4506072998047 7.387925148010254 C 162.0781707763672 21.29371452331543 130.4483642578125 30.78499984741211 160.18045043945312 32.9206428527832" stroke-width="2.0" fill="none" stroke="rgb(0, 0, 0)" stroke-opacity="1" stroke-linecap="round" stroke-linejoin="round"/>
    <path d="M 27.563404083251953 178.84873962402344 C 2.909630537033081 183.6088104248047 -4.521928310394287 171.95616149902344 -0.3715684413909912 172.454345703125 C -28.188217163085938 169.43515014648438 12.893411636352539 136.45420837402344 -14.194870948791504 168.81661987304688" stroke-width="2.0" fill="none" stroke="rgb(0, 0, 0)" stroke-opacity="1" stroke-linecap="round" stroke-linejoin="round"/>
    <path d="M 127.57093811035156 53.985862731933594 C 126.42678833007812 79.5009765625 131.55133056640625 63.11479949951172 109.01636505126953 78.04187774658203 C 125.09882354736328 110.44158172607422 134.17758178710938 75.67554473876953 117.92434692382812 106.35455322265625 C 126.89445495605469 93.79051971435547 112.42741394042969 107.26020050048828 99.95348358154297 76.97566223144531" stroke-width="2.0" fill="none" stroke="rgb(0, 0, 0)" stroke-opacity="1" stroke-linecap="round" stroke-linejoin="round"/>
    <path d="M 81.11529541015625 82.3723373413086 C 96.97935485839844 111.79550170898438 107.5619888305664 105.87910461425781 88.34042358398438 85.34550476074219" stroke-width="2.0" fill="none" stroke="rgb(0, 0, 0)" stroke-opacity="1" stroke-linecap="round" stroke-linejoin="round"/>
    <path d="M -4.320853233337402 36.045204162597656 C -10.01581859588623 31.98729705810547 -12.44533634185791 36.283607482910156 -6.801674842834473 31.848297119140625 C 11.460692405700684 54.499759674072266 -3.133610963821411 46.35976028442383 0.19493165612220764 34.006568908691406 C 7.79690408706665 52.73551940917969 63.91532897949219 39.22688293457031 34.57689666748047 8.9714994430542" stroke-width="2.0" fill="none" stroke="rgb(0, 0, 0)" stroke-opacity="1" stroke-linecap="round" stroke-linejoin="round"/>
    <path d="M 30.867965698242188 60.209983825683594 C 72.85724639892578 45.29541778564453 32.74679946899414 59.71611022949219 41.44389343261719 68.65742492675781 C 9.898122787475586 80.64950561523438 13.951323509216309 104.74012756347656 52.7608757019043 82.55534362792969" stroke-width="2.0" fill="none" stroke="rgb(0, 0, 0)" stroke-opacity="1" stroke-linecap="round" stroke-linejoin="round"/>
    <path d="M 23.82624626159668 99.17404174804688 C 29.218034744262695 89.593994140625 31.52983283996582 95.66848754882812 40.00506591796875 79.45855712890625 C 20.88776206970215 99.35712432861328 32.1993522644043 86.3382568359375 42.83755874633789 89.02259826660156 C 25.41493034362793 81.90160369873047 63.72859191894531 69.16129302978516 45.50859451293945 92.0594711303711" stroke-width="2.0" fill="none" stroke="rgb(0, 0, 0)" stroke-opacity="1" stroke-linecap="round" stroke-linejoin="round"/>
    <path d="M 72.48621368408203 211.6429901123047 C 62.499027252197266 209.197998046875 47.04231643676758 222.7171173095703 16.630041122436523 219.1154327392578 C 3.5260262489318848 218.2051239013672 7.389914512634277 205.75979614257812 55.67763900756836 194.03067016601562" stroke-width="2.0" fill="none" stroke="rgb(0, 0, 0)" stroke-opacity="1" stroke-linecap="round" stroke-linejoin="round"/>
    <path d="M 22.88227081298828 98.17464447021484 C 32.78272247314453 80.36650085449219 20.920259475708008 93.73246765136719 86.23191833496094 92.95165252685547" stroke-width="2.0" fill="none" stroke="rgb(0, 0, 0)" stroke-opacity="1" stroke-linecap="round" stroke-linejoin="round"/>
    <path d="M 104.2647705078125 150.5878448486328 C 139.0209197998047 175.5993194580078 156.46017456054688 176.74374389648438 141.6736602783203 169.43563842773438 C 172.72042846679688 173.91696166992188 192.30226135253906 192.9773712158203 169.17092895507812 206.55471801757812 C 146.00970458984375 213.26901245117188 148.88136291503906 211.15676879882812 173.36517333984375 199.8588409423828" stroke-width="2.0" fill="none" stroke="rgb(0, 0, 0)" stroke-opacity="1" stroke-linecap="round" stroke-linejoin="round"/>
    <path d="M 156.23416137695312 135.39886474609375 C 198.6509246826172 122.52994537353516 189.2420196533203 110.48861694335938 167.33119201660156 98.35733032226562 C 153.90478515625 105.29065704345703 150.81788635253906 97.36280059814453 158.10784912109375 105.00927734375" stroke-width="2.0" fill="none" stroke="rgb(0, 0, 0)" stroke-opacity="1" stroke-linecap="round" stroke-linejoin="round"/>
    <path d="M -4.759429931640625 32.884971618652344 C -8.411765098571777 67.22425842285156 -12.583728790283203 70.86511993408203 -1.6288484334945679 73.57856750488281 C 11.600281715393066 80.62725067138672 10.684290885925293 52.81312561035156 28.686134338378906 56.94962692260742 C -12.18863582611084 59.93355178833008 -8.657740592956543 53.0751953125 -16.43151092529297 37.54794692993164" stroke-width="2.0" fill="none" stroke="rgb(0, 0, 0)" stroke-opacity="1" stroke-linecap="round" stroke-linejoin="round"/>
    <path d="M 89.06026458740234 22.4051570892334 C 115.32476806640625 4.233010292053223 100.90479278564453 18.173477172851562 53.91638946533203 17.581287384033203 C 38.6224479675293 -8.728946685791016 35.82889938354492 -3.036078691482544 66.72559356689453 -3.0681309700012207" stroke-width="2.0" fill="none" stroke="rgb(0, 0, 0)" stroke-opacity="1" stroke-linecap="round" stroke-linejoin="round"/>
    <path d="M 174.76409912109375 41.756656646728516 C 174.39195251464844 62.561214447021484 163.89767456054688 41.145111083984375 155.6502685546875 56.41281509399414" stroke-width="2.0" fill="none" stroke="rgb(0, 0, 0)" stroke-opacity="1" stroke-linecap="round" stroke-linejoin="round"/>
    <path d="M 68.29991912841797 30.175548553466797 C 44.918975830078125 24.703594207763672 48.07706069946289 44.80458068847656 55.21426010131836 32.61708450317383" stroke-width="2.0" fill="none" stroke="rgb(0, 0, 0)" stroke-opacity="1" stroke-linecap="round" stroke-linejoin="round"/>
    <path d="M 139.856689453125 113.20521545410156 C 173.6748504638672 119.1251449584961 177.0011444091797 115.17292022705078 150.78358459472656 114.49693298339844 C 139.40390014648438 116.84872436523438 139.65235900878906 106.04471588134766 110.13040161132812 127.77581024169922" stroke-width="2.0" fill="none" stroke="rgb(0, 0, 0)" stroke-opacity="1" stroke-linecap="round" stroke-linejoin="round"/>
    <path d="M 91.64576721191406 4.011391639709473 C 85.11705780029297 13.5382661819458 111.85507202148438 3.85209584236145 85.28043365478516 -0.05285763740539551" stroke-width="2.0" fill="none" stroke="rgb(0, 0, 0)" stroke-opacity="1" stroke-linecap="round" stroke-linejoin="round"/>
    <path d="M 216.47662353515625 40.42359161376953 C 202.63787841796875 43.11066436767578 191.7206268310547 47.37187957763672 178.43589782714844 83.93548583984375 C 197.01702880859375 61.061973571777344 183.37246704101562 33.98430633544922 175.0751495361328 56.584537506103516" stroke-width="2.0" fill="none" stroke="rgb(0, 0, 0)" stroke-opacity="1" stroke-linecap="round" stroke-linejoin="round"/>
    <path d="M 49.513797760009766 138.08229064941406 C 72.64154052734375 140.09378051757812 62.923431396484375 100.28805541992188 40.798919677734375 129.44277954101562" stroke-width="2.0" fill="none" stroke="rgb(0, 0, 0)" stroke-opacity="1" stroke-linecap="round" stroke-linejoin="round"/>
    <path d="M 192.5764617919922 32.91264724731445 C 198.1839599609375 9.188465118408203 206.83035278320312 35.162498474121094 199.0562744140625 37.733489990234375 C 199.1516876220703 27.88251495361328 166.4980010986328 36.317665100097656 185.2466583251953 27.30950355529785" stroke-width="2.0" fill="none" stroke="rgb(0, 0, 0)" stroke-opacity="1" stroke-linecap="round" stroke-linejoin="round"/>
    <path d="M 88.9922103881836 20.34701156616211 C 74.72666931152344 36.68893051147461 91.2813491821289 57.51881408691406 112.53903198242188 24.356739044189453 C 116.0175552368164 57.093406677246094 87.0570068359375 43.663673400878906 104.81937408447266 69.58307647705078" stroke-width="2.0" fill="none" stroke="rgb(0, 0, 0)" stroke-opacity="1" stroke-linecap="round" stroke-linejoin="round"/>
    <path d="M 58.79349899291992 65.08808135986328 C 76.90930938720703 69.2391357421875 69.51598358154297 69.94001007080078 88.72129821777344 106.69863891601562" stroke-width="2.0" fill="none" stroke="rgb(0, 0, 0)" stroke-opacity="1" stroke-linecap="round" stroke-linejoin="round"/>
    <path d="M -5.079316139221191 132.98159790039062 C -5.742987155914307 137.67477416992188 -6.874495506286621 156.0668182373047 2.920192003250122 140.5030517578125 C 19.316368103027344 128.34149169921875 44.17558288574219 141.05413818359375 5.583515644073486 162.43759155273438 C 15.07487678527832 167.59808349609375 48.14078140258789 124.71798706054688 20.982751846313477 136.8392333984375" stroke-width="2.0" fill="none" stroke="rgb(0, 0, 0)" stroke-opacity="1" stroke-linecap="round" stroke-linejoin="round"/>
    <path d="M 172.63548278808594 79.32958984375 C 176.33721923828125 54.45143508911133 160.7134552001953 45.66020202636719 163.43736267089844 71.40471649169922" stroke-width="2.0" fill="none" stroke="rgb(0, 0, 0)" stroke-opacity="1" stroke-linecap="round" stroke-linejoin="round"/>
    <path d="M 154.5027618408203 128.863525390625 C 174.34046936035156 136.45404052734375 162.46408081054688 140.99476623535156 152.07635498046875 134.00399780273438" stroke-width="2.0" fill="none" stroke="rgb(0, 0, 0)" stroke-opacity="1" stroke-linecap="round" stroke-linejoin="round"/>
    <path d="M 234.62298583984375 14.229183197021484 C 197.90382385253906 14.126616477966309 174.525390625 3.4101922512054443 156.7784881591797 -10.278992652893066 C 198.2450714111328 -9.039320945739746 204.5841064453125 -15.063531875610352 202.57229614257812 -8.186683654785156" stroke-width="2.0" fill="none" stroke="rgb(0, 0, 0)" stroke-opacity="1" stroke-linecap="round" stroke-linejoin="round"/>
    <path d="M 40.09714889526367 156.5426025390625 C 18.122112274169922 197.01443481445312 31.433313369750977 179.1111297607422 33.766845703125 165.02020263671875 C 24.290468215942383 175.89210510253906 11.063824653625488 199.96090698242188 28.32588005065918 179.49740600585938" stroke-width="2.0" fill="none" stroke="rgb(0, 0, 0)" stroke-opacity="1" stroke-linecap="round" stroke-linejoin="round"/>
    <path d="M 178.7161865234375 164.97979736328125 C 184.19371032714844 198.2261962890625 194.36692810058594 186.80992126464844 235.01939392089844 188.20204162597656 C 228.521484375 205.78070068359375 185.39730834960938 193.49803161621094 186.58421325683594 185.46969604492188 C 237.6632080078125 205.9001007080078 230.5209197998047 179.66152954101562 199.31410217285156 189.37554931640625" stroke-width="2.0" fill="none" stroke="rgb(0, 0, 0)" stroke-opacity="1" stroke-linecap="round" stroke-linejoin="round"/>
    <path d="M 194.17791748046875 138.63259887695312 C 207.32330322265625 162.27940368652344 201.32814025878906 144.85987854003906 192.72174072265625 118.53254699707031 C 191.2217559814453 159.32192993164062 211.32765197753906 178.0910186767578 225.645751953125 163.22593688964844" stroke-width="2.0" fill="none" stroke="rgb(0, 0, 0)" stroke-opacity="1" stroke-linecap="round" stroke-linejoin="round"/>
    <path d="M 98.11857604980469 73.11997985839844 C 132.64224243164062 56.41312789916992 77.78671264648438 58.22873306274414 138.30731201171875 43.976078033447266 C 113.31375885009766 45.63206481933594 138.69688415527344 24.12886619567871 112.39273071289062 14.756287574768066 C 111.58695220947266 69.81139373779297 131.9168243408203 58.994632720947266 112.04749298095703 62.38285827636719" stroke-width="2.0" fill="none" stroke="rgb(0, 0, 0)" stroke-opacity="1" stroke-linecap="round" stroke-linejoin="round"/>
    <path d="M 12.221458435058594 99.2540054321289 C 20.748111724853516 68.5773696899414 5.3183135986328125 85.10516357421875 11.659037590026855 100.2873764038086" stroke-width="2.0" fill="none" stroke="rgb(0, 0, 0)" stroke-opacity="1" stroke-linecap="round" stroke-linejoin="round"/>
  </g>
</svg>
