<?xml version="1.0" ?>
<svg xmlns="http://www.w3.org/2000/svg" version="1.1" width="224" height="224">
  <defs/>
  <g>
    <path d="M 134.4840850830078 58.450992584228516 C 110.92845916748047 96.20349884033203 122.23562622070312 102.18632507324219 118.12797546386719 53.390708923339844 C 106.56124877929688 102.0379638671875 117.38097381591797 86.0555419921875 95.76589965820312 57.293113708496094 C 113.63661193847656 102.56370544433594 117.26300811767578 111.41412353515625 99.78363800048828 88.33221435546875" stroke-width="2.0" fill="none" stroke="rgb(0, 0, 0)" stroke-opacity="1" stroke-linecap="round" stroke-linejoin="round"/>
    <path d="M 79.60657501220703 106.39315795898438 C 119.88387298583984 113.28153228759766 109.42501831054688 104.00366973876953 88.41275024414062 98.27530670166016 C 88.9388198852539 137.52017211914062 81.41241455078125 127.98462677001953 96.46420288085938 117.91545867919922 C 82.6420669555664 158.41665649414062 95.20374298095703 98.752685546875 86.49781036376953 112.79931640625" stroke-width="2.0" fill="none" stroke="rgb(0, 0, 0)" stroke-opacity="1" stroke-linecap="round" stroke-linejoin="round"/>
    <path d="M 77.08597564697266 11.822394371032715 C 99.69720458984375 46.72685623168945 91.76578521728516 16.33409881591797 45.69505310058594 45.294090270996094" stroke-width="2.0" fill="none" stroke="rgb(0, 0, 0)" stroke-opacity="1" stroke-linecap="round" stroke-linejoin="round"/>
    <path d="M 139.66477966308594 177.35289001464844 C 139.31875610351562 204.18516540527344 137.02841186523438 185.30430603027344 149.95120239257812 148.95985412597656" stroke-width="2.0" fill="none" stroke="rgb(0, 0, 0)" stroke-opacity="1" stroke-linecap="round" stroke-linejoin="round"/>
    <path d="M 153.4442138671875 75.09676361083984 C 162.4879608154297 86.01231384277344 153.4237823486328 99.66331481933594 131.14437866210938 93.37537384033203" stroke-width="2.0" fill="none" stroke="rgb(0, 0, 0)" stroke-opacity="1" stroke-linecap="round" stroke-linejoin="round"/>
    <path d="M 48.24179458618164 107.32025909423828 C 59.32674026489258 133.54937744140625 56.679847717285156 127.9724349975586 68.68368530273438 145.0968475341797 C 59.93067932128906 113.15180206298828 78.46202087402344 110.8259048461914 67.01506042480469 136.9834747314453 C 56.38454055786133 99.96907806396484 82.14937591552734 110.73725128173828 65.92298889160156 116.4550552368164" stroke-width="2.0" fill="none" stroke="rgb(0, 0, 0)" stroke-opacity="1" stroke-linecap="round" stroke-linejoin="round"/>
    <path d="M 204.65289306640625 134.29336547851562 C 208.1399383544922 84.89111328125 229.80035400390625 133.2666015625 226.0282440185547 112.04707336425781 C 215.2766571044922 128.28427124023438 205.4213409423828 172.55873107910156 202.63063049316406 176.78952026367188 C 219.56373596191406 130.543212890625 222.55963134765625 143.04066467285156 219.7622528076172 181.37506103515625" stroke-width="2.0" fill="none" stroke="rgb(0, 0, 0)" stroke-opacity="1" stroke-linecap="round" stroke-linejoin="round"/>
    <path d="M 161.8320770263672 0.380196213722229 C 134.3751983642578 25.996755599975586 128.83883666992188 29.252531051635742 131.62342834472656 21.795724868774414" stroke-width="2.0" fill="none" stroke="rgb(0, 0, 0)" stroke-opacity="1" stroke-linecap="round" stroke-linejoin="round"/>
    <path d="M 217.3124542236328 219.7566680908203 C 221.54998779296875 196.41207885742188 228.87838745117188 201.79844665527344 235.8629608154297 218.00733947753906 C 236.04168701171875 223.35362243652344 234.24362182617188 231.72154235839844 238.29901123046875 233.50950622558594 C 233.05409240722656 224.8357696533203 231.96255493164062 221.88986206054688 225.0131378173828 211.41188049316406" stroke-width="2.0" fill="none" stroke="rgb(0, 0, 0)" stroke-opacity="1" stroke-linecap="round" stroke-linejoin="round"/>
    <path d="M 144.57484436035156 56.36652755737305 C 140.22467041015625 72.98768615722656 161.22499084472656 51.1054573059082 136.15667724609375 75.37696838378906" stroke-width="2.0" fill="none" stroke="rgb(0, 0, 0)" stroke-opacity="1" stroke-linecap="round" stroke-linejoin="round"/>
    <path d="M 142.8839874267578 192.61068725585938 C 151.29611206054688 198.77471923828125 100.77153778076172 196.29945373535156 133.59230041503906 194.26234436035156" stroke-width="2.0" fill="none" stroke="rgb(0, 0, 0)" stroke-opacity="1" stroke-linecap="round" stroke-linejoin="round"/>
    <path d="M 98.5523681640625 -5.384250640869141 C 84.25264739990234 8.425895690917969 84.21048736572266 0.20318423211574554 133.4210968017578 -1.38552725315094 C 105.78755187988281 -11.079526901245117 109.10781860351562 -14.959519386291504 105.74404907226562 -17.34568977355957" stroke-width="2.0" fill="none" stroke="rgb(0, 0, 0)" stroke-opacity="1" stroke-linecap="round" stroke-linejoin="round"/>
    <path d="M 112.0165023803711 135.04310607910156 C 114.81476593017578 99.84674072265625 119.25328826904297 130.023193359375 89.61540222167969 111.38790893554688 C 136.62869262695312 112.77899932861328 122.53527069091797 127.10242462158203 133.94346618652344 157.00245666503906" stroke-width="2.0" fill="none" stroke="rgb(0, 0, 0)" stroke-opacity="1" stroke-linecap="round" stroke-linejoin="round"/>
    <path d="M 36.84632110595703 43.658409118652344 C 16.04618263244629 45.33797836303711 29.503995895385742 35.596073150634766 64.47797393798828 35.03504943847656" stroke-width="2.0" fill="none" stroke="rgb(0, 0, 0)" stroke-opacity="1" stroke-linecap="round" stroke-linejoin="round"/>
    <path d="M 211.68333435058594 106.7662582397461 C 233.5466766357422 109.90154266357422 235.8759765625 106.33562469482422 229.5765838623047 91.36811828613281 C 213.13502502441406 113.83680725097656 226.23255920410156 117.43174743652344 234.08139038085938 92.34697723388672 C 214.6952362060547 106.59199523925781 231.2614288330078 107.95000457763672 242.60610961914062 120.7496566772461" stroke-width="2.0" fill="none" stroke="rgb(0, 0, 0)" stroke-opacity="1" stroke-linecap="round" stroke-linejoin="round"/>
    <path d="M 120.11625671386719 187.90943908691406 C 141.42800903320312 170.59288024902344 145.72412109375 190.00894165039062 141.8304443359375 171.6715087890625" stroke-width="2.0" fill="none" stroke="rgb(0, 0, 0)" stroke-opacity="1" stroke-linecap="round" stroke-linejoin="round"/>
    <path d="M 24.586376190185547 8.405579566955566 C 13.837821960449219 -7.308262348175049 -7.818472385406494 5.123907089233398 -10.813187599182129 2.639132261276245 C 13.707979202270508 -19.65574836730957 13.50506591796875 -19.98432159423828 3.1406095027923584 -24.718395233154297" stroke-width="2.0" fill="none" stroke="rgb(0, 0, 0)" stroke-opacity="1" stroke-linecap="round" stroke-linejoin="round"/>
    <path d="M 33.020633697509766 35.12971115112305 C 86.4540023803711 30.16095733642578 79.6792221069336 32.8122673034668 57.8978385925293 32.976707458496094" stroke-width="2.0" fill="none" stroke="rgb(0, 0, 0)" stroke-opacity="1" stroke-linecap="round" stroke-linejoin="round"/>
    <path d="M 68.71529388427734 210.89572143554688 C 99.6783676147461 208.75186157226562 111.40914916992188 211.1175537109375 106.76958465576172 211.24327087402344 C 72.38790130615234 215.6470947265625 58.65825653076172 223.39553833007812 39.66219711303711 222.51809692382812 C 78.95443725585938 239.41580200195312 73.02677154541016 247.33236694335938 66.90998077392578 251.28810119628906" stroke-width="2.0" fill="none" stroke="rgb(0, 0, 0)" stroke-opacity="1" stroke-linecap="round" stroke-linejoin="round"/>
    <path d="M 155.10546875 194.2587890625 C 182.31161499023438 213.32740783691406 201.3477783203125 193.25491333007812 180.38290405273438 215.5888671875" stroke-width="2.0" fill="none" stroke="rgb(0, 0, 0)" stroke-opacity="1" stroke-linecap="round" stroke-linejoin="round"/>
    <path d="M 176.29058837890625 82.7927474975586 C 176.13156127929688 74.35122680664062 164.9189453125 63.72622299194336 146.58441162109375 53.83250045776367 C 151.68040466308594 51.25570297241211 147.7132110595703 45.04681396484375 169.80360412597656 67.40966033935547 C 183.58627319335938 38.330326080322266 189.00216674804688 14.46109390258789 185.04368591308594 42.315345764160156" stroke-width="2.0" fill="none" stroke="rgb(0, 0, 0)" stroke-opacity="1" stroke-linecap="round" stroke-linejoin="round"/>
    <path d="M 63.135414123535156 145.57054138183594 C 44.34878158569336 173.65335083007812 32.70123291015625 177.76956176757812 43.61678695678711 164.29579162597656" stroke-width="2.0" fill="none" stroke="rgb(0, 0, 0)" stroke-opacity="1" stroke-linecap="round" stroke-linejoin="round"/>
    <path d="M 52.71833801269531 154.51779174804688 C 91.63838195800781 178.56590270996094 85.48916625976562 174.20555114746094 61.55692672729492 148.74237060546875" stroke-width="2.0" fill="none" stroke="rgb(0, 0, 0)" stroke-opacity="1" stroke-linecap="round" stroke-linejoin="round"/>
    <path d="M 229.75823974609375 7.928251266479492 C 226.00430297851562 8.127710342407227 230.30606079101562 18.920196533203125 228.12319946289062 17.630231857299805" stroke-width="2.0" fill="none" stroke="rgb(0, 0, 0)" stroke-opacity="1" stroke-linecap="round" stroke-linejoin="round"/>
    <path d="M 150.96115112304688 160.2522735595703 C 168.5427703857422 147.48561096191406 172.07215881347656 142.38194274902344 172.20504760742188 147.77682495117188 C 152.0888214111328 156.6328887939453 160.45741271972656 160.8616943359375 216.57125854492188 120.55363464355469 C 203.65696716308594 142.871337890625 204.09210205078125 151.88475036621094 201.720947265625 159.20425415039062" stroke-width="2.0" fill="none" stroke="rgb(0, 0, 0)" stroke-opacity="1" stroke-linecap="round" stroke-linejoin="round"/>
    <path d="M 18.828886032104492 85.64450073242188 C 6.088963985443115 103.02105712890625 38.277198791503906 84.2486343383789 36.56720733642578 104.9509506225586" stroke-width="2.0" fill="none" stroke="rgb(0, 0, 0)" stroke-opacity="1" stroke-linecap="round" stroke-linejoin="round"/>
    <path d="M 163.25375366210938 52.48958206176758 C 149.10910034179688 26.817956924438477 146.15386962890625 2.4499855041503906 134.81333923339844 20.294092178344727 C 131.40814208984375 18.361242294311523 143.44769287109375 1.2635678052902222 174.45162963867188 -1.0875012874603271" stroke-width="2.0" fill="none" stroke="rgb(0, 0, 0)" stroke-opacity="1" stroke-linecap="round" stroke-linejoin="round"/>
    <path d="M 31.935291290283203 83.59172821044922 C 40.59220886230469 60.5996208190918 46.22292709350586 60.750892639160156 57.12746810913086 85.03215789794922 C 37.173709869384766 83.77468872070312 17.290372848510742 75.84326171875 19.702898025512695 55.49599075317383" stroke-width="2.0" fill="none" stroke="rgb(0, 0, 0)" stroke-opacity="1" stroke-linecap="round" stroke-linejoin="round"/>
    <path d="M 172.173095703125 212.23321533203125 C 135.30113220214844 228.24526977539062 148.15696716308594 219.7679443359375 190.7997589111328 206.26414489746094 C 150.6927947998047 225.2700653076172 139.83692932128906 218.82118225097656 203.85464477539062 213.15286254882812" stroke-width="2.0" fill="none" stroke="rgb(0, 0, 0)" stroke-opacity="1" stroke-linecap="round" stroke-linejoin="round"/>
    <path d="M 151.5024871826172 7.254735469818115 C 129.86013793945312 27.286439895629883 119.16691589355469 32.97343826293945 139.76763916015625 10.32345199584961" stroke-width="2.0" fill="none" stroke="rgb(0, 0, 0)" stroke-opacity="1" stroke-linecap="round" stroke-linejoin="round"/>
    <path d="M 54.10782241821289 142.2522430419922 C 81.89393615722656 152.33084106445312 80.03360748291016 164.87684631347656 87.79798889160156 151.56253051757812" stroke-width="2.0" fill="none" stroke="rgb(0, 0, 0)" stroke-opacity="1" stroke-linecap="round" stroke-linejoin="round"/>
    <path d="M 92.85527038574219 182.97926330566406 C 75.47693634033203 155.68264770507812 76.57962799072266 154.47569274902344 69.37837219238281 162.96392822265625" stroke-width="2.0" fill="none" stroke="rgb(0, 0, 0)" stroke-opacity="1" stroke-linecap="round" stroke-linejoin="round"/>
    <path d="M 96.8767318725586 158.3218231201172 C 113.72138977050781 194.12257385253906 96.05118560791016 186.6003875732422 86.95199584960938 154.39459228515625 C 68.01256561279297 179.54505920410156 73.35771179199219 152.63818359375 91.74127960205078 185.6151123046875 C 103.85892486572266 168.21226501464844 89.0613784790039 151.4637451171875 84.77906036376953 143.77163696289062" stroke-width="2.0" fill="none" stroke="rgb(0, 0, 0)" stroke-opacity="1" stroke-linecap="round" stroke-linejoin="round"/>
    <path d="M 152.84031677246094 159.42520141601562 C 172.9491424560547 157.962890625 211.61981201171875 159.5529327392578 223.73672485351562 180.26290893554688 C 153.5735626220703 186.09677124023438 183.11370849609375 162.8531951904297 217.9459686279297 172.57257080078125 C 234.130859375 192.47584533691406 233.55575561523438 174.0220947265625 225.42919921875 144.89822387695312" stroke-width="2.0" fill="none" stroke="rgb(0, 0, 0)" stroke-opacity="1" stroke-linecap="round" stroke-linejoin="round"/>
    <path d="M 38.63325119018555 180.2101593017578 C 53.766719818115234 147.6939239501953 50.774349212646484 129.81178283691406 30.960975646972656 145.5731201171875 C 53.845848083496094 188.5178680419922 65.71639251708984 161.40126037597656 37.30525588989258 141.8177947998047 C 23.30105972290039 181.58816528320312 20.4571533203125 191.0633087158203 39.5772705078125 143.86317443847656" stroke-width="2.0" fill="none" stroke="rgb(0, 0, 0)" stroke-opacity="1" stroke-linecap="round" stroke-linejoin="round"/>
    <path d="M 66.11953735351562 159.13050842285156 C 68.456787109375 112.3817367553711 45.19330596923828 115.50293731689453 77.31377410888672 120.60661315917969 C 62.67112731933594 123.89315032958984 39.17266845703125 119.23004913330078 80.24222564697266 111.52100372314453" stroke-width="2.0" fill="none" stroke="rgb(0, 0, 0)" stroke-opacity="1" stroke-linecap="round" stroke-linejoin="round"/>
    <path d="M -10.5708589553833 153.83450317382812 C 23.361635208129883 134.52508544921875 26.36604118347168 141.69114685058594 -18.3164005279541 157.75697326660156 C -10.206788063049316 158.5619659423828 -9.668014526367188 159.56256103515625 -13.152892112731934 152.64474487304688 C -2.237795114517212 132.09173583984375 0.5077840685844421 148.33688354492188 15.08023452758789 177.0218048095703" stroke-width="2.0" fill="none" stroke="rgb(0, 0, 0)" stroke-opacity="1" stroke-linecap="round" stroke-linejoin="round"/>
    <path d="M 82.08114624023438 39.56109619140625 C 19.405229568481445 70.6103515625 61.56496047973633 39.495967864990234 95.33917999267578 38.22451400756836 C 75.21300506591797 55.42171859741211 93.9294204711914 65.89453887939453 83.11502838134766 52.90443420410156 C 67.65625 77.09698486328125 74.44379425048828 67.50601959228516 85.63667297363281 39.82246398925781" stroke-width="2.0" fill="none" stroke="rgb(0, 0, 0)" stroke-opacity="1" stroke-linecap="round" stroke-linejoin="round"/>
    <path d="M 87.3866958618164 192.1255340576172 C 69.03107452392578 189.4807586669922 46.84719467163086 167.82859802246094 89.32389068603516 194.07061767578125" stroke-width="2.0" fill="none" stroke="rgb(0, 0, 0)" stroke-opacity="1" stroke-linecap="round" stroke-linejoin="round"/>
    <path d="M 36.3337516784668 142.76150512695312 C 2.0435919761657715 136.44845581054688 22.531391143798828 139.2162322998047 56.38603210449219 147.49510192871094" stroke-width="2.0" fill="none" stroke="rgb(0, 0, 0)" stroke-opacity="1" stroke-linecap="round" stroke-linejoin="round"/>
    <path d="M 49.483070373535156 110.40696716308594 C 25.6036319732666 132.17556762695312 65.23776245117188 100.88651275634766 45.590152740478516 118.92555236816406 C 4.280698776245117 113.73004150390625 48.89254379272461 130.4732666015625 28.95044708251953 119.18926239013672" stroke-width="2.0" fill="none" stroke="rgb(0, 0, 0)" stroke-opacity="1" stroke-linecap="round" stroke-linejoin="round"/>
    <path d="M 91.80406188964844 148.71429443359375 C 101.67942810058594 169.31951904296875 76.12835693359375 148.76295471191406 73.83570861816406 136.14056396484375 C 138.01962280273438 110.86511993408203 93.3102035522461 125.18531799316406 78.84465026855469 156.777587890625 C 66.17620849609375 162.33795166015625 56.93922424316406 166.08642578125 56.997642517089844 135.8521270751953" stroke-width="2.0" fill="none" stroke="rgb(0, 0, 0)" stroke-opacity="1" stroke-linecap="round" stroke-linejoin="round"/>
    <path d="M 213.73033142089844 9.89558219909668 C 243.79684448242188 14.624311447143555 241.73971557617188 13.285042762756348 229.8534393310547 10.719709396362305 C 234.40045166015625 5.0063395500183105 235.51412963867188 10.730573654174805 242.71295166015625 19.62874412536621 C 246.24029541015625 13.571635246276855 252.36099243164062 23.32579231262207 262.8677062988281 24.45680046081543" stroke-width="2.0" fill="none" stroke="rgb(0, 0, 0)" stroke-opacity="1" stroke-linecap="round" stroke-linejoin="round"/>
    <path d="M 207.9552764892578 209.05555725097656 C 170.32102966308594 165.55357360839844 185.231201171875 192.88763427734375 206.0865936279297 207.1223907470703 C 182.30990600585938 173.98475646972656 191.20953369140625 181.15023803710938 195.1021270751953 188.77024841308594 C 192.1956329345703 203.9280548095703 193.79295349121094 177.0217742919922 210.3028564453125 188.88970947265625" stroke-width="2.0" fill="none" stroke="rgb(0, 0, 0)" stroke-opacity="1" stroke-linecap="round" stroke-linejoin="round"/>
    <path d="M 46.085350036621094 125.04981231689453 C 22.433618545532227 124.28984832763672 14.146316528320312 126.74811553955078 48.24664306640625 109.64080047607422 C 50.02035903930664 104.0105972290039 30.136066436767578 119.84709930419922 10.851546287536621 128.59420776367188" stroke-width="2.0" fill="none" stroke="rgb(0, 0, 0)" stroke-opacity="1" stroke-linecap="round" stroke-linejoin="round"/>
    <path d="M -9.038556098937988 50.11842346191406 C 1.810224175453186 71.18549346923828 1.9966204166412354 97.16515350341797 19.645984649658203 68.12370300292969" stroke-width="2.0" fill="none" stroke="rgb(0, 0, 0)" stroke-opacity="1" stroke-linecap="round" stroke-linejoin="round"/>
    <path d="M 45.57188034057617 106.88397216796875 C -1.3206220865249634 134.35609436035156 7.262631893157959 135.6807098388672 26.778091430664062 96.5805435180664 C 30.003915786743164 112.8353500366211 37.936500549316406 85.3834457397461 21.51568031311035 111.5251235961914" stroke-width="2.0" fill="none" stroke="rgb(0, 0, 0)" stroke-opacity="1" stroke-linecap="round" stroke-linejoin="round"/>
    <path d="M 97.70745849609375 160.13815307617188 C 101.91371154785156 195.32168579101562 84.5656967163086 195.67420959472656 96.97344207763672 170.2906494140625 C 74.04621887207031 175.84181213378906 100.8441390991211 174.80899047851562 74.1252212524414 145.8335723876953" stroke-width="2.0" fill="none" stroke="rgb(0, 0, 0)" stroke-opacity="1" stroke-linecap="round" stroke-linejoin="round"/>
    <path d="M 212.5875701904297 72.5142593383789 C 248.11184692382812 67.17740631103516 219.92054748535156 71.28682708740234 199.4797821044922 83.88057708740234 C 205.8006591796875 76.72212982177734 217.0562286376953 74.66162872314453 226.23277282714844 56.06898880004883 C 187.1650390625 100.75633239746094 151.87535095214844 101.08535766601562 212.09756469726562 90.0142593383789" stroke-width="2.0" fill="none" stroke="rgb(0, 0, 0)" stroke-opacity="1" stroke-linecap="round" stroke-linejoin="round"/>
    <path d="M 226.68008422851562 99.62892150878906 C 197.9879608154297 95.17924499511719 183.61851501464844 96.43158721923828 169.9898223876953 98.2596206665039 C 199.48501586914062 72.63632202148438 186.17633056640625 67.7386474609375 174.92388916015625 64.43750762939453" stroke-width="2.0" fill="none" stroke="rgb(0, 0, 0)" stroke-opacity="1" stroke-linecap="round" stroke-linejoin="round"/>
    <path d="M 39.106536865234375 37.35552215576172 C 33.04171371459961 55.001983642578125 29.237810134887695 67.32489776611328 26.38275909423828 62.42534255981445 C 28.923065185546875 42.681156158447266 38.33744430541992 64.91438293457031 10.990324020385742 69.42333221435547" stroke-width="2.0" fill="none" stroke="rgb(0, 0, 0)" stroke-opacity="1" stroke-linecap="round" stroke-linejoin="round"/>
    <path d="M 42.39723587036133 26.085739135742188 C 58.75943374633789 16.351221084594727 57.367122650146484 44.80594253540039 40.25053024291992 44.401790618896484 C 50.30635452270508 46.40169906616211 51.775360107421875 56.545143127441406 35.76179122924805 28.870285034179688 C 57.521732330322266 12.111638069152832 50.46168518066406 18.77471160888672 47.33841323852539 48.06549835205078" stroke-width="2.0" fill="none" stroke="rgb(0, 0, 0)" stroke-opacity="1" stroke-linecap="round" stroke-linejoin="round"/>
    <path d="M 169.5883026123047 118.01470184326172 C 189.2476043701172 112.42320251464844 232.74046325683594 110.27294158935547 167.52896118164062 111.7990951538086" stroke-width="2.0" fill="none" stroke="rgb(0, 0, 0)" stroke-opacity="1" stroke-linecap="round" stroke-linejoin="round"/>
    <path d="M 69.45354461669922 154.25689697265625 C 42.34321594238281 142.35031127929688 58.140716552734375 145.66188049316406 47.334320068359375 154.80227661132812" stroke-width="2.0" fill="none" stroke="rgb(0, 0, 0)" stroke-opacity="1" stroke-linecap="round" stroke-linejoin="round"/>
    <path d="M 216.95391845703125 17.249969482421875 C 235.3141326904297 48.87233352661133 229.6882781982422 71.9326171875 226.35244750976562 40.8861083984375 C 238.4650421142578 39.87103271484375 243.07188415527344 44.97323226928711 242.39981079101562 41.4477424621582" stroke-width="2.0" fill="none" stroke="rgb(0, 0, 0)" stroke-opacity="1" stroke-linecap="round" stroke-linejoin="round"/>
    <path d="M 229.71278381347656 52.68944549560547 C 223.80567932128906 51.16944885253906 205.73977661132812 64.24526977539062 175.4022674560547 94.17736053466797 C 187.16015625 72.29199981689453 201.46710205078125 48.83368682861328 184.0462188720703 68.29705047607422" stroke-width="2.0" fill="none" stroke="rgb(0, 0, 0)" stroke-opacity="1" stroke-linecap="round" stroke-linejoin="round"/>
    <path d="M 212.5450439453125 169.3783721923828 C 179.49952697753906 181.22474670410156 180.27908325195312 178.55494689941406 206.5575408935547 194.12991333007812 C 186.74649047851562 180.0001983642578 170.36663818359375 189.22555541992188 197.8286590576172 180.40150451660156" stroke-width="2.0" fill="none" stroke="rgb(0, 0, 0)" stroke-opacity="1" stroke-linecap="round" stroke-linejoin="round"/>
    <path d="M 128.77291870117188 83.28606414794922 C 176.64187622070312 104.46062469482422 148.1137237548828 91.85652160644531 128.20252990722656 85.07494354248047 C 123.29618072509766 93.22219848632812 144.39566040039062 79.1506118774414 149.30458068847656 92.72815704345703" stroke-width="2.0" fill="none" stroke="rgb(0, 0, 0)" stroke-opacity="1" stroke-linecap="round" stroke-linejoin="round"/>
    <path d="M 195.22227478027344 142.7203826904297 C 206.10548400878906 116.6433334350586 201.74859619140625 117.15885162353516 195.15182495117188 121.28467559814453 C 208.9285125732422 155.62669372558594 227.06053161621094 127.57308959960938 160.8491973876953 120.76802062988281" stroke-width="2.0" fill="none" stroke="rgb(0, 0, 0)" stroke-opacity="1" stroke-linecap="round" stroke-linejoin="round"/>
    <path d="M 155.26055908203125 104.89075469970703 C 136.31988525390625 94.97273254394531 156.13101196289062 80.63246154785156 114.76078796386719 97.55950164794922 C 137.77902221679688 95.5608901977539 164.5267333984375 116.92404174804688 136.84628295898438 95.86602020263672" stroke-width="2.0" fill="none" stroke="rgb(0, 0, 0)" stroke-opacity="1" stroke-linecap="round" stroke-linejoin="round"/>
    <path d="M 77.30968475341797 71.24125671386719 C 75.30327606201172 107.24087524414062 69.1202163696289 82.03837585449219 77.49344635009766 77.74464416503906 C 85.58090209960938 74.25372314453125 73.99491882324219 84.07374572753906 66.7452392578125 59.85929870605469 C 88.76793670654297 62.80303955078125 85.1817855834961 77.6119155883789 74.11103057861328 64.05918884277344" stroke-width="2.0" fill="none" stroke="rgb(0, 0, 0)" stroke-opacity="1" stroke-linecap="round" stroke-linejoin="round"/>
    <path d="M 95.30402374267578 51.398414611816406 C 57.683231353759766 31.795337677001953 67.21637725830078 53.363059997558594 88.59109497070312 46.78431701660156 C 78.5919418334961 72.2197036743164 88.70281982421875 72.98674011230469 103.01668548583984 14.589117050170898" stroke-width="2.0" fill="none" stroke="rgb(0, 0, 0)" stroke-opacity="1" stroke-linecap="round" stroke-linejoin="round"/>
    <path d="M 60.27076721191406 120.1480712890625 C 71.4154281616211 142.6397705078125 52.94877243041992 140.50271606445312 48.496402740478516 167.94024658203125" stroke-width="2.0" fill="none" stroke="rgb(0, 0, 0)" stroke-opacity="1" stroke-linecap="round" stroke-linejoin="round"/>
    <path d="M 41.278133392333984 -4.614650726318359 C 44.287864685058594 -1.740062952041626 36.66236877441406 22.36992835998535 33.48942947387695 43.27190399169922" stroke-width="2.0" fill="none" stroke="rgb(0, 0, 0)" stroke-opacity="1" stroke-linecap="round" stroke-linejoin="round"/>
    <path d="M 148.75546264648438 189.7657470703125 C 139.66639709472656 205.5727081298828 165.6847686767578 177.36009216308594 162.4643096923828 207.23077392578125 C 148.90150451660156 167.70692443847656 149.24305725097656 173.1390838623047 177.58900451660156 192.21453857421875" stroke-width="2.0" fill="none" stroke="rgb(0, 0, 0)" stroke-opacity="1" stroke-linecap="round" stroke-linejoin="round"/>
    <path d="M 160.73817443847656 220.75184631347656 C 188.20347595214844 220.37106323242188 163.99310302734375 219.3529815673828 143.25433349609375 210.2891387939453 C 144.19749450683594 236.5710906982422 140.79208374023438 242.0319061279297 151.5796356201172 240.53160095214844" stroke-width="2.0" fill="none" stroke="rgb(0, 0, 0)" stroke-opacity="1" stroke-linecap="round" stroke-linejoin="round"/>
    <path d="M 15.6902494430542 60.616764068603516 C 26.26420021057129 85.0343017578125 31.750768661499023 80.2180404663086 23.4227352142334 63.43672561645508 C 45.12495040893555 76.39280700683594 46.00104522705078 85.92139434814453 61.84717559814453 72.08570861816406 C 70.98579406738281 93.12359619140625 75.51588439941406 107.78523254394531 63.57308578491211 94.89598846435547" stroke-width="2.0" fill="none" stroke="rgb(0, 0, 0)" stroke-opacity="1" stroke-linecap="round" stroke-linejoin="round"/>
    <path d="M 167.12371826171875 179.50042724609375 C 211.4947052001953 171.51324462890625 195.96572875976562 181.00184631347656 215.21192932128906 212.6952362060547 C 215.90533447265625 224.21414184570312 214.3507080078125 212.79379272460938 203.91331481933594 188.858642578125" stroke-width="2.0" fill="none" stroke="rgb(0, 0, 0)" stroke-opacity="1" stroke-linecap="round" stroke-linejoin="round"/>
    <path d="M 33.354400634765625 153.8870849609375 C 68.72376251220703 155.49578857421875 58.6390380859375 161.53952026367188 27.859573364257812 145.47683715820312" stroke-width="2.0" fill="none" stroke="rgb(0, 0, 0)" stroke-opacity="1" stroke-linecap="round" stroke-linejoin="round"/>
    <path d="M 19.676895141601562 9.00810718536377 C 4.873283863067627 2.998743772506714 22.600522994995117 -7.22764778137207 30.597288131713867 8.309158325195312 C 41.57021713256836 13.259444236755371 27.434417724609375 5.807464122772217 22.34145164489746 -14.772078514099121" stroke-width="2.0" fill="none" stroke="rgb(0, 0, 0)" stroke-opacity="1" stroke-linecap="round" stroke-linejoin="round"/>
    <path d="M 55.74658966064453 116.77516174316406 C 71.69155883789062 127.01448822021484 75.54541778564453 151.24417114257812 64.50625610351562 135.65284729003906 C 52.98652267456055 110.50677490234375 46.188941955566406 95.28582763671875 11.522024154663086 82.8139877319336" stroke-width="2.0" fill="none" stroke="rgb(0, 0, 0)" stroke-opacity="1" stroke-linecap="round" stroke-linejoin="round"/>
    <path d="M 188.27194213867188 31.842687606811523 C 182.60060119628906 20.825414657592773 163.0850372314453 6.0200910568237305 169.92372131347656 6.858405113220215 C 173.22389221191406 47.67772674560547 180.94224548339844 62.02734375 163.65374755859375 10.291813850402832 C 185.15492248535156 24.498075485229492 196.11038208007812 36.75783157348633 159.82632446289062 49.52422332763672" stroke-width="2.0" fill="none" stroke="rgb(0, 0, 0)" stroke-opacity="1" stroke-linecap="round" stroke-linejoin="round"/>
    <path d="M 140.40902709960938 46.303348541259766 C 185.44271850585938 72.02616882324219 174.92449951171875 58.48518371582031 152.55487060546875 58.79433059692383 C 168.7012481689453 37.68458557128906 180.40756225585938 36.17048645019531 138.72824096679688 36.094547271728516" stroke-width="2.0" fill="none" stroke="rgb(0, 0, 0)" stroke-opacity="1" stroke-linecap="round" stroke-linejoin="round"/>
    <path d="M 108.18840026855469 46.82514953613281 C 159.89036560058594 50.42119598388672 149.8511505126953 56.759681701660156 127.49982452392578 45.91499328613281 C 112.61819458007812 41.2416877746582 111.86244201660156 44.52184295654297 147.71485900878906 27.775957107543945" stroke-width="2.0" fill="none" stroke="rgb(0, 0, 0)" stroke-opacity="1" stroke-linecap="round" stroke-linejoin="round"/>
    <path d="M 188.1414031982422 179.23756408691406 C 200.47705078125 146.38267517089844 189.41598510742188 180.18698120117188 207.4232177734375 177.11537170410156" stroke-width="2.0" fill="none" stroke="rgb(0, 0, 0)" stroke-opacity="1" stroke-linecap="round" stroke-linejoin="round"/>
    <path d="M 56.619384765625 101.20723724365234 C 65.91947174072266 117.5049819946289 77.37648010253906 143.02708435058594 70.63075256347656 108.66503143310547" stroke-width="2.0" fill="none" stroke="rgb(0, 0, 0)" stroke-opacity="1" stroke-linecap="round" stroke-linejoin="round"/>
    <path d="M -20.742755889892578 179.57595825195312 C 24.973785400390625 172.80813598632812 30.233903884887695 191.9520721435547 5.498180866241455 151.43992614746094" stroke-width="2.0" fill="none" stroke="rgb(0, 0, 0)" stroke-opacity="1" stroke-linecap="round" stroke-linejoin="round"/>
    <path d="M 198.56759643554688 219.8201141357422 C 192.07286071777344 231.94009399414062 184.76605224609375 188.23388671875 184.63555908203125 203.38107299804688 C 166.0923309326172 198.8542022705078 171.3241729736328 191.81874084472656 161.41070556640625 210.78677368164062 C 157.90365600585938 199.73736572265625 155.2316436767578 181.01846313476562 112.3924331665039 191.2863006591797" stroke-width="2.0" fill="none" stroke="rgb(0, 0, 0)" stroke-opacity="1" stroke-linecap="round" stroke-linejoin="round"/>
    <path d="M 140.43057250976562 13.339506149291992 C 171.12738037109375 -7.3047895431518555 195.9926300048828 0.9924564361572266 208.34783935546875 -2.434943914413452" stroke-width="2.0" fill="none" stroke="rgb(0, 0, 0)" stroke-opacity="1" stroke-linecap="round" stroke-linejoin="round"/>
    <path d="M 42.560340881347656 200.27313232421875 C 70.82521057128906 238.69642639160156 65.27661895751953 228.13609313964844 73.18590545654297 232.50633239746094 C 65.404541015625 240.95162963867188 55.37537384033203 223.46005249023438 40.73920440673828 200.42076110839844" stroke-width="2.0" fill="none" stroke="rgb(0, 0, 0)" stroke-opacity="1" stroke-linecap="round" stroke-linejoin="round"/>
    <path d="M 77.87004089355469 95.71598052978516 C 94.27982330322266 99.27377319335938 91.4400405883789 99.28988647460938 91.88721466064453 116.53931427001953 C 114.85232543945312 106.62537384033203 86.40087890625 76.8396224975586 101.4950942993164 152.01071166992188 C 110.47930908203125 115.70687103271484 105.89708709716797 106.43661499023438 133.51644897460938 125.99130249023438" stroke-width="2.0" fill="none" stroke="rgb(0, 0, 0)" stroke-opacity="1" stroke-linecap="round" stroke-linejoin="round"/>
    <path d="M 112.3157730102539 4.8328986167907715 C 94.97618865966797 59.7524528503418 100.79521179199219 54.69587326049805 93.88121032714844 18.783973693847656" stroke-width="2.0" fill="none" stroke="rgb(0, 0, 0)" stroke-opacity="1" stroke-linecap="round" stroke-linejoin="round"/>
    <path d="M 66.31221008300781 52.30290222167969 C 67.60824584960938 62.81499099731445 67.4476089477539 53.63376998901367 71.48397827148438 41.052947998046875 C 84.59379577636719 76.64847564697266 64.26439666748047 62.00666809082031 74.02312469482422 89.9849624633789" stroke-width="2.0" fill="none" stroke="rgb(0, 0, 0)" stroke-opacity="1" stroke-linecap="round" stroke-linejoin="round"/>
    <path d="M 53.95555877685547 190.51812744140625 C -3.362947940826416 182.90628051757812 28.720754623413086 177.8563995361328 64.24574279785156 195.09854125976562 C 46.597801208496094 197.24649047851562 28.08184814453125 204.55674743652344 63.19627380371094 201.2228546142578" stroke-width="2.0" fill="none" stroke="rgb(0, 0, 0)" stroke-opacity="1" stroke-linecap="round" stroke-linejoin="round"/>
    <path d="M 89.0981674194336 6.479536056518555 C 21.429363250732422 -16.7812557220459 90.17596435546875 -1.4392355680465698 93.67943572998047 4.114614486694336" stroke-width="2.0" fill="none" stroke="rgb(0, 0, 0)" stroke-opacity="1" stroke-linecap="round" stroke-linejoin="round"/>
    <path d="M 13.189949989318848 11.648042678833008 C -0.3345761299133301 5.048492431640625 1.4477534294128418 11.098198890686035 21.929162979125977 0.003988310694694519 C 17.248611450195312 -2.763566732406616 22.851045608520508 -13.463277816772461 21.594297409057617 -15.895861625671387" stroke-width="2.0" fill="none" stroke="rgb(0, 0, 0)" stroke-opacity="1" stroke-linecap="round" stroke-linejoin="round"/>
    <path d="M 109.64229583740234 146.91561889648438 C 130.57301330566406 113.32203674316406 125.47014617919922 110.87724304199219 90.38482666015625 124.59156036376953" stroke-width="2.0" fill="none" stroke="rgb(0, 0, 0)" stroke-opacity="1" stroke-linecap="round" stroke-linejoin="round"/>
    <path d="M 51.599979400634766 -5.240292549133301 C 55.11613845825195 41.4984130859375 39.762603759765625 34.49773406982422 28.492753982543945 43.69987487792969 C 18.26630401611328 53.084083557128906 51.10565948486328 47.11235427856445 33.04524612426758 42.876827239990234" stroke-width="2.0" fill="none" stroke="rgb(0, 0, 0)" stroke-opacity="1" stroke-linecap="round" stroke-linejoin="round"/>
    <path d="M 35.059207916259766 105.78194427490234 C 34.80022430419922 86.7574462890625 17.607858657836914 80.31646728515625 -6.022137641906738 79.53788757324219 C 22.34645652770996 74.52493286132812 4.8990912437438965 71.36482238769531 45.41399002075195 79.33540344238281" stroke-width="2.0" fill="none" stroke="rgb(0, 0, 0)" stroke-opacity="1" stroke-linecap="round" stroke-linejoin="round"/>
    <path d="M 52.55165481567383 34.18168258666992 C 54.028926849365234 53.258872985839844 49.690948486328125 44.198699951171875 76.06351470947266 7.454919815063477 C 88.65995788574219 18.203283309936523 93.34356689453125 7.331115245819092 57.539432525634766 3.367050886154175" stroke-width="2.0" fill="none" stroke="rgb(0, 0, 0)" stroke-opacity="1" stroke-linecap="round" stroke-linejoin="round"/>
    <path d="M 144.00332641601562 43.15390396118164 C 158.9859619140625 31.58036231994629 143.26380920410156 44.71286392211914 137.1763153076172 76.71509552001953" stroke-width="2.0" fill="none" stroke="rgb(0, 0, 0)" stroke-opacity="1" stroke-linecap="round" stroke-linejoin="round"/>
    <path d="M 176.36325073242188 84.06500244140625 C 172.6640625 73.21116638183594 158.74452209472656 65.40677642822266 153.1885223388672 52.986080169677734 C 163.89767456054688 42.79779052734375 141.459716796875 26.427913665771484 171.4975128173828 53.34395217895508" stroke-width="2.0" fill="none" stroke="rgb(0, 0, 0)" stroke-opacity="1" stroke-linecap="round" stroke-linejoin="round"/>
    <path d="M 125.04698944091797 46.52572250366211 C 164.9932098388672 61.412166595458984 128.0028839111328 45.1370849609375 101.46373748779297 58.194862365722656 C 121.7283935546875 56.640655517578125 141.07447814941406 60.143863677978516 127.94721221923828 65.6136474609375 C 112.48733520507812 57.49024200439453 120.97371673583984 41.9514274597168 114.60002136230469 86.36532592773438" stroke-width="2.0" fill="none" stroke="rgb(0, 0, 0)" stroke-opacity="1" stroke-linecap="round" stroke-linejoin="round"/>
    <path d="M 190.6797332763672 164.5446319580078 C 192.7519989013672 191.48626708984375 204.61717224121094 181.9541778564453 176.07418823242188 182.2480010986328 C 160.1179656982422 185.083984375 194.64056396484375 189.53341674804688 184.07716369628906 163.66738891601562" stroke-width="2.0" fill="none" stroke="rgb(0, 0, 0)" stroke-opacity="1" stroke-linecap="round" stroke-linejoin="round"/>
    <path d="M 214.9486541748047 36.0610466003418 C 189.15829467773438 44.52805709838867 169.0967559814453 60.455326080322266 189.926025390625 49.039180755615234 C 174.34820556640625 58.56850051879883 183.04946899414062 54.4616584777832 212.58839416503906 52.00929641723633" stroke-width="2.0" fill="none" stroke="rgb(0, 0, 0)" stroke-opacity="1" stroke-linecap="round" stroke-linejoin="round"/>
    <path d="M 25.801589965820312 72.1531982421875 C 7.046447277069092 78.4363021850586 -15.381223678588867 75.6108169555664 -29.935495376586914 75.14562225341797 C -46.6054573059082 77.09127044677734 -27.33909797668457 70.78147888183594 22.888408660888672 70.28085327148438" stroke-width="2.0" fill="none" stroke="rgb(0, 0, 0)" stroke-opacity="1" stroke-linecap="round" stroke-linejoin="round"/>
    <path d="M 17.67088508605957 204.91258239746094 C 7.148703098297119 238.5843048095703 -3.8704099655151367 233.58880615234375 14.73487377166748 209.23728942871094 C 22.661218643188477 197.68853759765625 16.71825408935547 191.9195098876953 33.08189392089844 223.2067108154297 C 2.1222901344299316 209.4550018310547 -7.339921951293945 232.3105010986328 10.187772750854492 198.0806884765625" stroke-width="2.0" fill="none" stroke="rgb(0, 0, 0)" stroke-opacity="1" stroke-linecap="round" stroke-linejoin="round"/>
    <path d="M 104.85179901123047 195.4371337890625 C 117.02043151855469 187.92820739746094 119.44974517822266 182.4405975341797 138.96530151367188 175.1996307373047" stroke-width="2.0" fill="none" stroke="rgb(0, 0, 0)" stroke-opacity="1" stroke-linecap="round" stroke-linejoin="round"/>
    <path d="M 113.26762390136719 157.66355895996094 C 103.11428833007812 186.15042114257812 116.92451477050781 154.18992614746094 124.37425231933594 144.71896362304688 C 95.40702056884766 132.90057373046875 116.7826919555664 139.59886169433594 133.5832977294922 160.098876953125" stroke-width="2.0" fill="none" stroke="rgb(0, 0, 0)" stroke-opacity="1" stroke-linecap="round" stroke-linejoin="round"/>
    <path d="M 191.9369354248047 155.02737426757812 C 207.1193084716797 157.23255920410156 195.23374938964844 141.60824584960938 179.16590881347656 147.0419464111328" stroke-width="2.0" fill="none" stroke="rgb(0, 0, 0)" stroke-opacity="1" stroke-linecap="round" stroke-linejoin="round"/>
    <path d="M 51.015663146972656 73.03433227539062 C 63.88151168823242 79.56156921386719 20.86301612854004 75.83736419677734 54.31131362915039 86.5215072631836" stroke-width="2.0" fill="none" stroke="rgb(0, 0, 0)" stroke-opacity="1" stroke-linecap="round" stroke-linejoin="round"/>
    <path d="M -11.781004905700684 218.86785888671875 C 41.76353073120117 218.236083984375 27.06159019470215 233.11656188964844 19.277193069458008 194.20692443847656 C 40.16329574584961 220.12770080566406 33.41889572143555 238.24154663085938 41.72725296020508 232.43936157226562" stroke-width="2.0" fill="none" stroke="rgb(0, 0, 0)" stroke-opacity="1" stroke-linecap="round" stroke-linejoin="round"/>
    <path d="M 82.06371307373047 185.9911651611328 C 35.04340362548828 187.82974243164062 89.26363372802734 170.56753540039062 86.51658630371094 197.35043334960938 C 88.90965270996094 196.45631408691406 99.55595397949219 183.6585235595703 103.8436508178711 180.57046508789062 C 128.6322479248047 161.4475860595703 139.2588348388672 168.51222229003906 93.43173217773438 147.90130615234375" stroke-width="2.0" fill="none" stroke="rgb(0, 0, 0)" stroke-opacity="1" stroke-linecap="round" stroke-linejoin="round"/>
    <path d="M 45.73095703125 38.40786361694336 C 19.029287338256836 67.11344909667969 31.79460906982422 91.03547668457031 19.502023696899414 20.796648025512695" stroke-width="2.0" fill="none" stroke="rgb(0, 0, 0)" stroke-opacity="1" stroke-linecap="round" stroke-linejoin="round"/>
    <path d="M 35.04066467285156 164.23587036132812 C 30.99041748046875 146.9784393310547 32.13301086425781 123.32595825195312 40.11148452758789 145.4967498779297 C 78.90928649902344 130.65536499023438 61.245872497558594 129.3200225830078 12.39869499206543 134.29364013671875" stroke-width="2.0" fill="none" stroke="rgb(0, 0, 0)" stroke-opacity="1" stroke-linecap="round" stroke-linejoin="round"/>
    <path d="M 122.55670928955078 94.09391784667969 C 166.96734619140625 105.7618408203125 156.46971130371094 115.36338806152344 165.02015686035156 82.94383239746094 C 145.69525146484375 100.12694549560547 149.5407257080078 98.9113998413086 165.5823974609375 115.94757080078125 C 198.4955291748047 111.48117065429688 225.3977508544922 114.34689331054688 213.373779296875 123.91324615478516" stroke-width="2.0" fill="none" stroke="rgb(0, 0, 0)" stroke-opacity="1" stroke-linecap="round" stroke-linejoin="round"/>
    <path d="M 17.685285568237305 140.85116577148438 C 65.45405578613281 143.18643188476562 79.01287841796875 126.47179412841797 19.009666442871094 139.36647033691406 C 40.68149948120117 133.47959899902344 55.006675720214844 134.01617431640625 72.05413055419922 151.98866271972656 C 77.37374877929688 171.2026824951172 61.888126373291016 153.02435302734375 46.49330520629883 151.62107849121094" stroke-width="2.0" fill="none" stroke="rgb(0, 0, 0)" stroke-opacity="1" stroke-linecap="round" stroke-linejoin="round"/>
    <path d="M 123.44265747070312 52.67790985107422 C 75.33076477050781 56.35306930541992 114.76406860351562 35.13505554199219 162.24832153320312 38.71421432495117 C 131.69747924804688 32.96144104003906 101.5326919555664 40.51388168334961 164.00025939941406 46.9963264465332" stroke-width="2.0" fill="none" stroke="rgb(0, 0, 0)" stroke-opacity="1" stroke-linecap="round" stroke-linejoin="round"/>
    <path d="M 201.97088623046875 84.44351196289062 C 229.2318878173828 75.02271270751953 215.96353149414062 80.63517761230469 225.78956604003906 89.91908264160156" stroke-width="2.0" fill="none" stroke="rgb(0, 0, 0)" stroke-opacity="1" stroke-linecap="round" stroke-linejoin="round"/>
    <path d="M 197.03018188476562 22.67740249633789 C 196.8270263671875 -14.406551361083984 197.22181701660156 25.345073699951172 185.28924560546875 38.084163665771484" stroke-width="2.0" fill="none" stroke="rgb(0, 0, 0)" stroke-opacity="1" stroke-linecap="round" stroke-linejoin="round"/>
    <path d="M 128.17440795898438 165.3868865966797 C 92.19175720214844 192.81285095214844 73.7858657836914 195.611572265625 58.03250503540039 218.7705078125" stroke-width="2.0" fill="none" stroke="rgb(0, 0, 0)" stroke-opacity="1" stroke-linecap="round" stroke-linejoin="round"/>
    <path d="M 79.82281494140625 112.533447265625 C 64.44224548339844 159.1476593017578 74.66249084472656 147.59011840820312 59.43171310424805 122.62071228027344" stroke-width="2.0" fill="none" stroke="rgb(0, 0, 0)" stroke-opacity="1" stroke-linecap="round" stroke-linejoin="round"/>
    <path d="M 127.73652648925781 203.69003295898438 C 150.51971435546875 237.61520385742188 130.83480834960938 247.06027221679688 156.66775512695312 200.97589111328125 C 124.16496276855469 245.19326782226562 134.63751220703125 260.6792297363281 158.68243408203125 240.54762268066406 C 144.4585723876953 225.33535766601562 148.99351501464844 225.19613647460938 161.51095581054688 229.01974487304688" stroke-width="2.0" fill="none" stroke="rgb(0, 0, 0)" stroke-opacity="1" stroke-linecap="round" stroke-linejoin="round"/>
    <path d="M 52.249488830566406 146.2703094482422 C 50.67571258544922 130.0969696044922 63.008277893066406 150.58192443847656 28.973339080810547 177.1764373779297 C 54.93768310546875 165.49581909179688 63.85485076904297 138.27725219726562 11.652134895324707 151.32598876953125" stroke-width="2.0" fill="none" stroke="rgb(0, 0, 0)" stroke-opacity="1" stroke-linecap="round" stroke-linejoin="round"/>
    <path d="M 44.25459671020508 88.87184143066406 C 14.829313278198242 60.38628005981445 31.99285125732422 67.04222869873047 61.47578048706055 48.90801239013672 C 52.00383377075195 51.081138610839844 66.49382781982422 67.03092193603516 71.47966766357422 103.604248046875 C 49.617916107177734 68.58121490478516 33.43500518798828 54.02687072753906 7.794672966003418 49.07981491088867" stroke-width="2.0" fill="none" stroke="rgb(0, 0, 0)" stroke-opacity="1" stroke-linecap="round" stroke-linejoin="round"/>
    <path d="M 125.08116912841797 95.58226776123047 C 167.98033142089844 95.67298889160156 155.12770080566406 100.85074615478516 155.9307403564453 105.55525207519531" stroke-width="2.0" fill="none" stroke="rgb(0, 0, 0)" stroke-opacity="1" stroke-linecap="round" stroke-linejoin="round"/>
    <path d="M 27.88056182861328 100.60243225097656 C -3.555276393890381 102.31622314453125 -35.562461853027344 99.62285614013672 -0.06422911584377289 95.04023742675781 C 13.70083999633789 125.6086196899414 7.203785419464111 146.6314239501953 20.872709274291992 121.873779296875 C 19.83004379272461 130.9070281982422 -4.796302795410156 141.9367218017578 19.988740921020508 130.31031799316406" stroke-width="2.0" fill="none" stroke="rgb(0, 0, 0)" stroke-opacity="1" stroke-linecap="round" stroke-linejoin="round"/>
    <path d="M 203.30303955078125 190.98252868652344 C 204.4148712158203 195.00538635253906 219.28286743164062 184.5832977294922 245.7423095703125 187.36553955078125" stroke-width="2.0" fill="none" stroke="rgb(0, 0, 0)" stroke-opacity="1" stroke-linecap="round" stroke-linejoin="round"/>
    <path d="M 118.04912567138672 35.074703216552734 C 169.2857208251953 7.030249118804932 135.37197875976562 32.7677116394043 137.79965209960938 11.189284324645996 C 119.91222381591797 25.061697006225586 110.5042953491211 36.506317138671875 94.37928771972656 53.645809173583984 C 102.19985961914062 35.54261016845703 122.23653411865234 16.501514434814453 128.72206115722656 -0.15492376685142517" stroke-width="2.0" fill="none" stroke="rgb(0, 0, 0)" stroke-opacity="1" stroke-linecap="round" stroke-linejoin="round"/>
    <path d="M 69.13884735107422 4.549591064453125 C 44.70975875854492 42.20820617675781 45.656551361083984 43.84490203857422 76.0678939819336 36.847740173339844" stroke-width="2.0" fill="none" stroke="rgb(0, 0, 0)" stroke-opacity="1" stroke-linecap="round" stroke-linejoin="round"/>
    <path d="M 53.88108825683594 178.90306091308594 C 83.06829071044922 181.1011962890625 81.62545776367188 169.09535217285156 75.40021514892578 169.3491973876953 C 91.15326690673828 187.9258575439453 99.02960205078125 210.6658935546875 77.34249114990234 174.93943786621094 C 78.66334533691406 183.5657196044922 64.73414611816406 172.884033203125 62.34680938720703 169.8538818359375" stroke-width="2.0" fill="none" stroke="rgb(0, 0, 0)" stroke-opacity="1" stroke-linecap="round" stroke-linejoin="round"/>
    <path d="M 57.283443450927734 156.4224395751953 C 79.3255844116211 145.4350128173828 85.24302673339844 128.6942596435547 85.92411804199219 99.81112670898438 C 59.36121368408203 170.78128051757812 76.76370239257812 160.0546417236328 86.8105239868164 116.29537963867188" stroke-width="2.0" fill="none" stroke="rgb(0, 0, 0)" stroke-opacity="1" stroke-linecap="round" stroke-linejoin="round"/>
    <path d="M 169.23709106445312 78.40580749511719 C 176.622314453125 94.5233154296875 152.30809020996094 71.8626708984375 177.42771911621094 82.62730407714844 C 180.78298950195312 39.307735443115234 169.763671875 90.95606231689453 138.93653869628906 98.89236450195312" stroke-width="2.0" fill="none" stroke="rgb(0, 0, 0)" stroke-opacity="1" stroke-linecap="round" stroke-linejoin="round"/>
    <path d="M 2.209036350250244 49.74957275390625 C 15.307987213134766 16.939136505126953 13.697460174560547 19.02396583557129 17.184101104736328 61.78421401977539 C 7.647883415222168 42.2489013671875 10.083724021911621 16.42506217956543 24.5698184967041 19.139240264892578 C 52.2111930847168 16.90567398071289 9.245623588562012 11.682971000671387 17.814189910888672 29.397701263427734" stroke-width="2.0" fill="none" stroke="rgb(0, 0, 0)" stroke-opacity="1" stroke-linecap="round" stroke-linejoin="round"/>
    <path d="M 153.19357299804688 42.07638168334961 C 147.28701782226562 63.93486404418945 143.9705047607422 46.144447326660156 119.8716812133789 42.31204605102539" stroke-width="2.0" fill="none" stroke="rgb(0, 0, 0)" stroke-opacity="1" stroke-linecap="round" stroke-linejoin="round"/>
    <path d="M 12.328082084655762 56.384681701660156 C 44.19855880737305 66.17436981201172 23.8449764251709 49.90534591674805 -15.63143539428711 50.20193862915039 C -9.4810791015625 53.77638244628906 9.071648597717285 37.31704330444336 1.3961061239242554 57.706153869628906" stroke-width="2.0" fill="none" stroke="rgb(0, 0, 0)" stroke-opacity="1" stroke-linecap="round" stroke-linejoin="round"/>
    <path d="M -14.618343353271484 77.73944854736328 C 8.866789817810059 67.53836822509766 12.743453025817871 76.41633605957031 17.410802841186523 68.02967834472656 C 41.7943229675293 71.56820678710938 22.17277717590332 73.55400848388672 -4.879974842071533 74.81753540039062" stroke-width="2.0" fill="none" stroke="rgb(0, 0, 0)" stroke-opacity="1" stroke-linecap="round" stroke-linejoin="round"/>
    <path d="M 233.14553833007812 101.67247772216797 C 222.96043395996094 101.16731262207031 222.27857971191406 110.45286560058594 249.63943481445312 105.63594055175781 C 221.37466430664062 99.68504333496094 214.2324676513672 99.45941162109375 204.76333618164062 148.74415588378906 C 219.1934814453125 110.78077697753906 227.02191162109375 108.18708038330078 215.56214904785156 104.73963928222656" stroke-width="2.0" fill="none" stroke="rgb(0, 0, 0)" stroke-opacity="1" stroke-linecap="round" stroke-linejoin="round"/>
    <path d="M 203.85455322265625 -1.1850095987319946 C 250.6875762939453 6.36592960357666 230.0657196044922 15.47368049621582 230.15969848632812 -2.58488392829895 C 212.4998321533203 -11.43541145324707 222.1105499267578 -3.3832826614379883 231.43496704101562 -2.190223455429077" stroke-width="2.0" fill="none" stroke="rgb(0, 0, 0)" stroke-opacity="1" stroke-linecap="round" stroke-linejoin="round"/>
    <path d="M 169.8468780517578 43.182777404785156 C 148.115478515625 17.192581176757812 159.37742614746094 6.324336528778076 171.59561157226562 50.21623229980469 C 185.86231994628906 4.726936340332031 182.27784729003906 39.717594146728516 170.29086303710938 57.351287841796875" stroke-width="2.0" fill="none" stroke="rgb(0, 0, 0)" stroke-opacity="1" stroke-linecap="round" stroke-linejoin="round"/>
    <path d="M 209.82989501953125 234.87738037109375 C 222.563232421875 227.78167724609375 222.6186981201172 228.451171875 196.3738555908203 199.23532104492188 C 206.1714324951172 183.80648803710938 193.3327178955078 192.03709411621094 213.2870330810547 210.1218719482422" stroke-width="2.0" fill="none" stroke="rgb(0, 0, 0)" stroke-opacity="1" stroke-linecap="round" stroke-linejoin="round"/>
    <path d="M 57.310428619384766 31.84223175048828 C 50.64042282104492 -23.71794891357422 53.45185089111328 -17.075098037719727 47.059940338134766 -15.914556503295898 C 71.74575805664062 -18.31781578063965 63.582061767578125 -14.842402458190918 71.02851867675781 -19.319252014160156 C 60.156009674072266 -14.85641860961914 62.576507568359375 -13.96144962310791 55.10247802734375 -19.411470413208008" stroke-width="2.0" fill="none" stroke="rgb(0, 0, 0)" stroke-opacity="1" stroke-linecap="round" stroke-linejoin="round"/>
    <path d="M 105.27117156982422 104.43077087402344 C 90.41813659667969 116.26806640625 95.22502899169922 99.01773071289062 97.4246826171875 101.16464233398438 C 42.80126190185547 113.81436157226562 71.9391860961914 109.9722671508789 98.01809692382812 103.95790100097656 C 112.39485931396484 109.62628173828125 109.33150482177734 105.07752990722656 78.40087127685547 93.56295776367188" stroke-width="2.0" fill="none" stroke="rgb(0, 0, 0)" stroke-opacity="1" stroke-linecap="round" stroke-linejoin="round"/>
    <path d="M 162.0438995361328 168.2020263671875 C 206.31260681152344 167.48779296875 185.88641357421875 168.6118927001953 154.54586791992188 178.28216552734375 C 202.47216796875 173.047119140625 174.321044921875 207.1150665283203 181.19715881347656 163.05726623535156 C 193.0478973388672 162.7540740966797 214.29196166992188 168.82614135742188 223.3842315673828 181.6998748779297" stroke-width="2.0" fill="none" stroke="rgb(0, 0, 0)" stroke-opacity="1" stroke-linecap="round" stroke-linejoin="round"/>
    <path d="M 139.40708923339844 196.86367797851562 C 131.4848175048828 187.41973876953125 147.891357421875 179.0233154296875 181.64776611328125 202.71473693847656" stroke-width="2.0" fill="none" stroke="rgb(0, 0, 0)" stroke-opacity="1" stroke-linecap="round" stroke-linejoin="round"/>
    <path d="M 101.58250427246094 233.66139221191406 C 78.64069366455078 236.9296417236328 98.52392578125 212.87974548339844 63.960418701171875 220.82948303222656 C 83.5748062133789 225.9918670654297 88.11185455322266 208.3114471435547 81.41382598876953 228.3249053955078 C 83.86817932128906 230.5154571533203 92.10787200927734 223.81654357910156 105.84963989257812 211.13873291015625" stroke-width="2.0" fill="none" stroke="rgb(0, 0, 0)" stroke-opacity="1" stroke-linecap="round" stroke-linejoin="round"/>
    <path d="M 56.479068756103516 154.80393981933594 C 84.04369354248047 174.23544311523438 67.66116333007812 157.87576293945312 108.23419952392578 160.2704620361328 C 51.3761100769043 177.2216339111328 71.69123077392578 169.41534423828125 106.56663513183594 121.20928955078125 C 75.09886169433594 149.34458923339844 70.65323638916016 168.16717529296875 45.63301467895508 149.64784240722656" stroke-width="2.0" fill="none" stroke="rgb(0, 0, 0)" stroke-opacity="1" stroke-linecap="round" stroke-linejoin="round"/>
    <path d="M 23.323049545288086 91.87841796875 C 2.0143253803253174 67.51409149169922 2.3685433864593506 60.265830993652344 30.13035011291504 75.99077606201172" stroke-width="2.0" fill="none" stroke="rgb(0, 0, 0)" stroke-opacity="1" stroke-linecap="round" stroke-linejoin="round"/>
    <path d="M 29.672035217285156 44.30408477783203 C 40.86495590209961 -10.732176780700684 39.3710823059082 -15.657232284545898 24.95638084411621 55.76483917236328 C 52.78034210205078 39.7206916809082 55.70988464355469 33.68790817260742 37.71892166137695 42.943092346191406" stroke-width="2.0" fill="none" stroke="rgb(0, 0, 0)" stroke-opacity="1" stroke-linecap="round" stroke-linejoin="round"/>
    <path d="M 120.63706970214844 146.07008361816406 C 123.57371520996094 137.3494873046875 113.22029876708984 139.0675506591797 127.08338928222656 142.02642822265625 C 125.86910247802734 154.06275939941406 145.92303466796875 173.9648895263672 141.72816467285156 177.6752471923828" stroke-width="2.0" fill="none" stroke="rgb(0, 0, 0)" stroke-opacity="1" stroke-linecap="round" stroke-linejoin="round"/>
    <path d="M 42.74241256713867 89.27971649169922 C 56.98945999145508 76.81825256347656 29.942745208740234 63.22613525390625 29.511117935180664 49.94365310668945 C 38.1444206237793 82.19864654541016 39.08374786376953 100.92554473876953 41.93250274658203 60.244327545166016 C 54.54389572143555 80.18876647949219 73.69548797607422 93.3546371459961 57.79641342163086 99.77359771728516" stroke-width="2.0" fill="none" stroke="rgb(0, 0, 0)" stroke-opacity="1" stroke-linecap="round" stroke-linejoin="round"/>
    <path d="M 57.05894088745117 161.4658203125 C 48.035186767578125 191.32427978515625 37.177616119384766 188.2514190673828 52.003013610839844 172.11415100097656" stroke-width="2.0" fill="none" stroke="rgb(0, 0, 0)" stroke-opacity="1" stroke-linecap="round" stroke-linejoin="round"/>
    <path d="M 136.2693634033203 127.30712127685547 C 105.58976745605469 122.4073715209961 130.66004943847656 117.11717987060547 117.2562484741211 138.7792205810547 C 133.6808624267578 136.3301544189453 117.1216812133789 154.84388732910156 128.27992248535156 147.33216857910156" stroke-width="2.0" fill="none" stroke="rgb(0, 0, 0)" stroke-opacity="1" stroke-linecap="round" stroke-linejoin="round"/>
    <path d="M 63.43204116821289 156.0569305419922 C 39.797119140625 143.8331756591797 16.480167388916016 148.3076629638672 53.40476989746094 157.1209716796875 C 76.60224151611328 165.52098083496094 63.97046661376953 162.09707641601562 33.682647705078125 146.34329223632812" stroke-width="2.0" fill="none" stroke="rgb(0, 0, 0)" stroke-opacity="1" stroke-linecap="round" stroke-linejoin="round"/>
    <path d="M 23.079833984375 61.754783630371094 C -2.9766974449157715 91.89114379882812 39.978118896484375 89.7206039428711 28.792724609375 98.02107238769531 C -1.3649874925613403 90.03404235839844 9.072968482971191 91.86443328857422 -2.734896659851074 119.22220611572266 C 6.461944580078125 81.08158111572266 14.755378723144531 79.45429992675781 -9.191250801086426 112.15589141845703" stroke-width="2.0" fill="none" stroke="rgb(0, 0, 0)" stroke-opacity="1" stroke-linecap="round" stroke-linejoin="round"/>
    <path d="M 133.2481231689453 142.31834411621094 C 135.98898315429688 138.63356018066406 128.73361206054688 124.40874481201172 141.12806701660156 168.20469665527344" stroke-width="2.0" fill="none" stroke="rgb(0, 0, 0)" stroke-opacity="1" stroke-linecap="round" stroke-linejoin="round"/>
    <path d="M 197.65911865234375 8.526853561401367 C 218.00001525878906 30.524696350097656 204.8125762939453 35.10942077636719 207.0263214111328 19.835290908813477 C 186.3706512451172 50.095149993896484 180.56201171875 43.99794387817383 218.18643188476562 32.0286865234375 C 223.36642456054688 52.568721771240234 224.05148315429688 28.456872940063477 184.5059356689453 53.31068420410156" stroke-width="2.0" fill="none" stroke="rgb(0, 0, 0)" stroke-opacity="1" stroke-linecap="round" stroke-linejoin="round"/>
    <path d="M 211.37893676757812 120.86234283447266 C 167.54615783691406 113.866455078125 161.73362731933594 118.5899658203125 178.54481506347656 133.52044677734375 C 158.89280700683594 119.53173828125 160.57180786132812 115.40245056152344 137.14935302734375 112.99801635742188 C 144.99575805664062 133.68341064453125 153.95823669433594 153.36563110351562 142.46580505371094 143.72537231445312" stroke-width="2.0" fill="none" stroke="rgb(0, 0, 0)" stroke-opacity="1" stroke-linecap="round" stroke-linejoin="round"/>
    <path d="M 154.8682861328125 125.05615997314453 C 176.99644470214844 110.42559814453125 176.12234497070312 110.30574035644531 178.90965270996094 122.29487609863281 C 227.0920867919922 133.27513122558594 203.07090759277344 112.90310668945312 156.31626892089844 124.0796127319336 C 213.3610382080078 132.1147003173828 140.4126739501953 133.69105529785156 177.23995971679688 129.0446319580078" stroke-width="2.0" fill="none" stroke="rgb(0, 0, 0)" stroke-opacity="1" stroke-linecap="round" stroke-linejoin="round"/>
    <path d="M 117.5968246459961 187.1297607421875 C 132.0062255859375 183.22813415527344 147.96466064453125 187.7524871826172 171.63221740722656 197.38455200195312 C 107.92929077148438 200.66940307617188 84.75664520263672 197.8555145263672 164.1362762451172 195.94737243652344" stroke-width="2.0" fill="none" stroke="rgb(0, 0, 0)" stroke-opacity="1" stroke-linecap="round" stroke-linejoin="round"/>
    <path d="M 162.055419921875 100.84862518310547 C 148.66355895996094 89.29419708251953 134.42982482910156 99.928466796875 158.35394287109375 108.82435607910156 C 171.560791015625 80.65164947509766 174.35360717773438 77.6185531616211 154.43226623535156 94.1216812133789 C 147.7318572998047 92.48917388916016 164.73138427734375 88.5976333618164 158.15167236328125 110.55382537841797" stroke-width="2.0" fill="none" stroke="rgb(0, 0, 0)" stroke-opacity="1" stroke-linecap="round" stroke-linejoin="round"/>
    <path d="M 145.20608520507812 103.63883972167969 C 187.36106872558594 124.27301025390625 170.14303588867188 130.44424438476562 137.6796417236328 114.247802734375 C 153.41981506347656 130.71034240722656 170.27001953125 110.94155883789062 194.2111053466797 125.27621459960938 C 158.68348693847656 100.90838623046875 165.7294464111328 131.8937225341797 131.63209533691406 152.58412170410156" stroke-width="2.0" fill="none" stroke="rgb(0, 0, 0)" stroke-opacity="1" stroke-linecap="round" stroke-linejoin="round"/>
    <path d="M 221.0645751953125 196.92410278320312 C 218.73004150390625 148.87525939941406 219.89349365234375 160.0880126953125 218.51963806152344 157.8903350830078 C 197.1553192138672 170.82630920410156 195.99539184570312 191.83837890625 226.15476989746094 183.60281372070312 C 204.02166748046875 168.3551025390625 206.02432250976562 144.5401153564453 220.3152313232422 176.5110626220703" stroke-width="2.0" fill="none" stroke="rgb(0, 0, 0)" stroke-opacity="1" stroke-linecap="round" stroke-linejoin="round"/>
    <path d="M 162.85955810546875 137.44729614257812 C 133.75242614746094 147.49105834960938 154.580322265625 135.05128479003906 132.31773376464844 159.91465759277344 C 157.2636260986328 136.21316528320312 174.7421417236328 122.18952941894531 148.95001220703125 155.2727508544922" stroke-width="2.0" fill="none" stroke="rgb(0, 0, 0)" stroke-opacity="1" stroke-linecap="round" stroke-linejoin="round"/>
    <path d="M 231.77479553222656 201.380859375 C 200.7669677734375 217.2637176513672 208.01417541503906 204.13327026367188 147.1915283203125 222.91566467285156 C 218.7255096435547 217.79380798339844 209.6697998046875 212.25486755371094 181.36485290527344 214.91973876953125" stroke-width="2.0" fill="none" stroke="rgb(0, 0, 0)" stroke-opacity="1" stroke-linecap="round" stroke-linejoin="round"/>
    <path d="M 4.458388328552246 93.56988525390625 C 7.004431247711182 43.82273483276367 13.309616088867188 68.41124725341797 8.483817100524902 91.35417938232422" stroke-width="2.0" fill="none" stroke="rgb(0, 0, 0)" stroke-opacity="1" stroke-linecap="round" stroke-linejoin="round"/>
    <path d="M 206.4341278076172 199.9801483154297 C 197.566162109375 202.48545837402344 229.76702880859375 186.00584411621094 233.23092651367188 191.405517578125 C 201.88327026367188 212.6951446533203 206.11952209472656 206.71026611328125 232.9789276123047 192.04861450195312" stroke-width="2.0" fill="none" stroke="rgb(0, 0, 0)" stroke-opacity="1" stroke-linecap="round" stroke-linejoin="round"/>
    <path d="M 214.86083984375 15.297760963439941 C 227.99620056152344 13.947407722473145 222.4806671142578 23.673870086669922 231.82765197753906 33.89736557006836 C 217.17347717285156 14.254213333129883 202.84117126464844 -0.09315932542085648 223.2490692138672 31.28885841369629 C 232.35226440429688 30.4990234375 216.2560577392578 28.28290557861328 223.2180633544922 12.679332733154297" stroke-width="2.0" fill="none" stroke="rgb(0, 0, 0)" stroke-opacity="1" stroke-linecap="round" stroke-linejoin="round"/>
    <path d="M 132.24383544921875 45.82509231567383 C 164.15036010742188 67.5253677368164 159.43553161621094 58.3890380859375 164.56227111816406 41.38507080078125 C 113.78775024414062 39.096683502197266 141.15036010742188 45.81929016113281 168.6764373779297 66.84166717529297 C 165.27610778808594 43.6694450378418 165.81134033203125 32.11507034301758 153.6302032470703 5.977816581726074" stroke-width="2.0" fill="none" stroke="rgb(0, 0, 0)" stroke-opacity="1" stroke-linecap="round" stroke-linejoin="round"/>
    <path d="M 105.69183349609375 210.09500122070312 C 73.12125396728516 200.20440673828125 53.04436492919922 211.3483428955078 91.06509399414062 207.56088256835938" stroke-width="2.0" fill="none" stroke="rgb(0, 0, 0)" stroke-opacity="1" stroke-linecap="round" stroke-linejoin="round"/>
    <path d="M 23.494338989257812 156.15321350097656 C -12.581698417663574 153.6000518798828 -9.65288257598877 170.21827697753906 -17.133695602416992 162.18157958984375" stroke-width="2.0" fill="none" stroke="rgb(0, 0, 0)" stroke-opacity="1" stroke-linecap="round" stroke-linejoin="round"/>
    <path d="M 198.03294372558594 182.7050323486328 C 206.92637634277344 172.00424194335938 209.87989807128906 193.71246337890625 226.0830841064453 226.35899353027344" stroke-width="2.0" fill="none" stroke="rgb(0, 0, 0)" stroke-opacity="1" stroke-linecap="round" stroke-linejoin="round"/>
    <path d="M 194.13723754882812 164.65782165527344 C 227.6795196533203 183.92347717285156 237.27064514160156 188.948486328125 213.20382690429688 179.7661895751953 C 198.29104614257812 187.85093688964844 229.15626525878906 210.83473205566406 234.64524841308594 216.20802307128906" stroke-width="2.0" fill="none" stroke="rgb(0, 0, 0)" stroke-opacity="1" stroke-linecap="round" stroke-linejoin="round"/>
    <path d="M 71.10261535644531 141.8206329345703 C 25.403400421142578 122.10152435302734 25.756431579589844 157.6813201904297 65.7974853515625 140.27761840820312 C 47.88383483886719 135.61080932617188 17.512191772460938 135.40919494628906 27.3685245513916 145.5058135986328 C 47.47960662841797 120.2451400756836 36.9327278137207 150.66624450683594 52.47228240966797 165.1724090576172" stroke-width="2.0" fill="none" stroke="rgb(0, 0, 0)" stroke-opacity="1" stroke-linecap="round" stroke-linejoin="round"/>
    <path d="M 103.05886840820312 94.13009643554688 C 89.20700073242188 86.7686538696289 70.28791046142578 83.62421417236328 73.55506134033203 83.59564208984375 C 76.21886444091797 81.66914367675781 97.17039489746094 57.64261245727539 68.42559051513672 55.195369720458984 C 83.94058227539062 44.57887649536133 97.25019073486328 67.85517883300781 88.79118347167969 44.456600189208984" stroke-width="2.0" fill="none" stroke="rgb(0, 0, 0)" stroke-opacity="1" stroke-linecap="round" stroke-linejoin="round"/>
    <path d="M 70.88997650146484 79.60881042480469 C 93.02135467529297 63.651851654052734 86.99507904052734 48.29295349121094 70.99810028076172 104.08946228027344 C 74.14903259277344 80.95326232910156 68.33490753173828 62.482173919677734 61.75278091430664 49.0711784362793 C 92.84730529785156 58.33476257324219 65.44389343261719 86.1229476928711 66.04920196533203 48.88204574584961" stroke-width="2.0" fill="none" stroke="rgb(0, 0, 0)" stroke-opacity="1" stroke-linecap="round" stroke-linejoin="round"/>
    <path d="M 0.2141573280096054 89.28404998779297 C 14.623516082763672 120.52452087402344 26.236209869384766 140.61688232421875 20.351032257080078 126.1561508178711" stroke-width="2.0" fill="none" stroke="rgb(0, 0, 0)" stroke-opacity="1" stroke-linecap="round" stroke-linejoin="round"/>
    <path d="M 23.423986434936523 149.3069610595703 C 16.36316680908203 190.3632049560547 21.50713539123535 179.2686309814453 26.232023239135742 140.5330810546875" stroke-width="2.0" fill="none" stroke="rgb(0, 0, 0)" stroke-opacity="1" stroke-linecap="round" stroke-linejoin="round"/>
    <path d="M 111.13052368164062 168.55885314941406 C 130.86691284179688 161.815185546875 137.53323364257812 157.40518188476562 102.35076904296875 190.99615478515625 C 105.73442840576172 177.9796142578125 120.41002655029297 178.4347381591797 104.65499877929688 179.80709838867188" stroke-width="2.0" fill="none" stroke="rgb(0, 0, 0)" stroke-opacity="1" stroke-linecap="round" stroke-linejoin="round"/>
    <path d="M 161.0535888671875 56.962158203125 C 156.4773712158203 63.69622802734375 146.47842407226562 77.8970947265625 132.35951232910156 101.23657989501953 C 162.48141479492188 75.10797882080078 141.2305145263672 61.80010986328125 164.8446502685547 83.6684799194336 C 177.49391174316406 55.26768493652344 177.10421752929688 30.92288589477539 160.20053100585938 60.262176513671875" stroke-width="2.0" fill="none" stroke="rgb(0, 0, 0)" stroke-opacity="1" stroke-linecap="round" stroke-linejoin="round"/>
    <path d="M 128.93026733398438 154.4304656982422 C 118.00836944580078 110.60343170166016 127.31765747070312 106.8502197265625 111.55427551269531 147.263427734375" stroke-width="2.0" fill="none" stroke="rgb(0, 0, 0)" stroke-opacity="1" stroke-linecap="round" stroke-linejoin="round"/>
    <path d="M 138.10064697265625 176.1212921142578 C 127.49613189697266 197.9082794189453 110.51195526123047 178.2462158203125 152.58848571777344 187.22360229492188 C 177.40431213378906 195.87440490722656 147.9122772216797 187.17324829101562 107.55142974853516 194.6811981201172" stroke-width="2.0" fill="none" stroke="rgb(0, 0, 0)" stroke-opacity="1" stroke-linecap="round" stroke-linejoin="round"/>
    <path d="M 131.6128387451172 46.559181213378906 C 136.1758575439453 44.44792938232422 157.40567016601562 57.453208923339844 123.70938873291016 39.336185455322266" stroke-width="2.0" fill="none" stroke="rgb(0, 0, 0)" stroke-opacity="1" stroke-linecap="round" stroke-linejoin="round"/>
    <path d="M 81.75391387939453 26.256948471069336 C 48.428985595703125 32.757728576660156 132.61695861816406 25.836511611938477 48.15884780883789 28.511043548583984" stroke-width="2.0" fill="none" stroke="rgb(0, 0, 0)" stroke-opacity="1" stroke-linecap="round" stroke-linejoin="round"/>
    <path d="M 141.34690856933594 147.5727081298828 C 126.12702178955078 125.63164520263672 153.30740356445312 127.46324157714844 140.91383361816406 170.861572265625 C 144.9427947998047 127.43022155761719 170.5876007080078 102.84686279296875 149.43492126464844 138.50946044921875" stroke-width="2.0" fill="none" stroke="rgb(0, 0, 0)" stroke-opacity="1" stroke-linecap="round" stroke-linejoin="round"/>
    <path d="M 167.22164916992188 114.2548599243164 C 196.1475830078125 96.11772155761719 271.2403259277344 99.24119567871094 180.8974151611328 109.28963470458984 C 221.83297729492188 110.18981170654297 205.86318969726562 103.32893371582031 211.42355346679688 115.06828308105469 C 197.81224060058594 112.78387451171875 211.37518310546875 103.01654815673828 203.45787048339844 115.65199279785156" stroke-width="2.0" fill="none" stroke="rgb(0, 0, 0)" stroke-opacity="1" stroke-linecap="round" stroke-linejoin="round"/>
    <path d="M 49.283199310302734 96.07557678222656 C 61.079673767089844 87.62129211425781 67.3714599609375 84.2220458984375 66.8588638305664 106.6480484008789 C 42.09489440917969 81.50167846679688 55.60920333862305 71.81486511230469 43.9261474609375 85.25303649902344 C 57.156497955322266 68.23023986816406 69.76280212402344 38.130653381347656 38.89435958862305 59.20735549926758" stroke-width="2.0" fill="none" stroke="rgb(0, 0, 0)" stroke-opacity="1" stroke-linecap="round" stroke-linejoin="round"/>
    <path d="M 192.41693115234375 73.09629821777344 C 199.11373901367188 49.407962799072266 173.95814514160156 77.94441223144531 196.61705017089844 73.79879760742188 C 198.44801330566406 49.55302429199219 216.89976501464844 45.140380859375 195.3705596923828 69.81546783447266 C 186.85101318359375 81.5752944946289 194.58505249023438 80.68092346191406 180.03164672851562 66.73237609863281" stroke-width="2.0" fill="none" stroke="rgb(0, 0, 0)" stroke-opacity="1" stroke-linecap="round" stroke-linejoin="round"/>
    <path d="M 112.26787567138672 76.70551300048828 C 81.50006866455078 80.4095687866211 87.8237075805664 91.65237426757812 114.61556243896484 71.71900939941406 C 131.92222595214844 69.03036499023438 135.0672607421875 70.09561157226562 86.21729278564453 77.74685668945312 C 146.3133087158203 48.369930267333984 136.5616455078125 50.41316604614258 119.91011810302734 95.46498107910156" stroke-width="2.0" fill="none" stroke="rgb(0, 0, 0)" stroke-opacity="1" stroke-linecap="round" stroke-linejoin="round"/>
    <path d="M 205.89305114746094 192.84544372558594 C 180.0958251953125 186.3641815185547 228.4908905029297 162.25244140625 161.95753479003906 176.26039123535156 C 200.08767700195312 155.8865966796875 186.34120178222656 178.18057250976562 188.00770568847656 163.3492431640625" stroke-width="2.0" fill="none" stroke="rgb(0, 0, 0)" stroke-opacity="1" stroke-linecap="round" stroke-linejoin="round"/>
    <path d="M -1.446700096130371 80.50907897949219 C 23.9219970703125 64.8525161743164 22.2874813079834 57.63926315307617 48.6394157409668 75.21495056152344 C 39.52884292602539 66.74653625488281 10.298848152160645 49.44363021850586 -9.494316101074219 62.809871673583984" stroke-width="2.0" fill="none" stroke="rgb(0, 0, 0)" stroke-opacity="1" stroke-linecap="round" stroke-linejoin="round"/>
    <path d="M 156.86668395996094 156.70709228515625 C 211.7379608154297 148.73089599609375 228.35693359375 138.98483276367188 165.4878692626953 153.0048370361328" stroke-width="2.0" fill="none" stroke="rgb(0, 0, 0)" stroke-opacity="1" stroke-linecap="round" stroke-linejoin="round"/>
    <path d="M 90.02487182617188 39.110679626464844 C 103.91928100585938 55.08050537109375 96.47502899169922 40.08833694458008 78.60548400878906 83.7300796508789" stroke-width="2.0" fill="none" stroke="rgb(0, 0, 0)" stroke-opacity="1" stroke-linecap="round" stroke-linejoin="round"/>
    <path d="M 194.00083923339844 100.32447814941406 C 246.32423400878906 98.28936004638672 223.00608825683594 106.66134643554688 220.55433654785156 63.46479034423828" stroke-width="2.0" fill="none" stroke="rgb(0, 0, 0)" stroke-opacity="1" stroke-linecap="round" stroke-linejoin="round"/>
    <path d="M 13.041015625 72.77671813964844 C 49.15019226074219 68.23980712890625 45.879844665527344 80.85962677001953 11.613354682922363 65.61061096191406" stroke-width="2.0" fill="none" stroke="rgb(0, 0, 0)" stroke-opacity="1" stroke-linecap="round" stroke-linejoin="round"/>
    <path d="M 176.86512756347656 104.0421371459961 C 220.5415802001953 82.63024139404297 192.07574462890625 88.8242416381836 167.0840606689453 102.654296875 C 174.0352783203125 79.724853515625 170.01193237304688 64.60337829589844 167.41615295410156 85.97319793701172" stroke-width="2.0" fill="none" stroke="rgb(0, 0, 0)" stroke-opacity="1" stroke-linecap="round" stroke-linejoin="round"/>
    <path d="M 84.53158569335938 24.727783203125 C 35.02125930786133 24.66059684753418 30.686630249023438 44.4288330078125 53.1992073059082 1.4268066883087158 C 44.21434783935547 30.908334732055664 24.85519027709961 41.35007095336914 54.49168395996094 23.76590919494629 C 48.03214645385742 -1.5449081659317017 46.95569610595703 38.216827392578125 32.0048713684082 60.60137176513672" stroke-width="2.0" fill="none" stroke="rgb(0, 0, 0)" stroke-opacity="1" stroke-linecap="round" stroke-linejoin="round"/>
    <path d="M 31.471647262573242 14.776501655578613 C 13.499807357788086 16.134384155273438 17.973665237426758 20.867643356323242 19.218793869018555 47.967830657958984" stroke-width="2.0" fill="none" stroke="rgb(0, 0, 0)" stroke-opacity="1" stroke-linecap="round" stroke-linejoin="round"/>
    <path d="M 83.49076843261719 40.58058166503906 C 110.62333679199219 53.73163604736328 76.0557632446289 48.01360321044922 71.17476654052734 69.24057006835938" stroke-width="2.0" fill="none" stroke="rgb(0, 0, 0)" stroke-opacity="1" stroke-linecap="round" stroke-linejoin="round"/>
    <path d="M 115.95233154296875 -5.327093601226807 C 139.327880859375 -6.322074890136719 146.11056518554688 -7.107646942138672 156.27688598632812 -11.796751976013184 C 156.53704833984375 -2.774357318878174 145.6376495361328 -3.9429311752319336 121.82642364501953 -8.489452362060547" stroke-width="2.0" fill="none" stroke="rgb(0, 0, 0)" stroke-opacity="1" stroke-linecap="round" stroke-linejoin="round"/>
    <path d="M 46.68759536743164 201.77182006835938 C 64.0738296508789 223.9080810546875 74.78861999511719 239.54541015625 63.65118408203125 226.3543243408203" stroke-width="2.0" fill="none" stroke="rgb(0, 0, 0)" stroke-opacity="1" stroke-linecap="round" stroke-linejoin="round"/>
    <path d="M 31.086536407470703 64.40381622314453 C 13.67148494720459 101.19800567626953 26.272062301635742 96.11556243896484 -12.52828598022461 89.69757080078125 C 6.258475303649902 84.38904571533203 1.083673357963562 68.44715881347656 -9.592873573303223 54.924400329589844 C -18.61384391784668 61.98166275024414 -18.887306213378906 59.61954116821289 20.56557273864746 64.54105377197266" stroke-width="2.0" fill="none" stroke="rgb(0, 0, 0)" stroke-opacity="1" stroke-linecap="round" stroke-linejoin="round"/>
    <path d="M 166.88319396972656 63.288143157958984 C 183.1823272705078 58.6682014465332 155.45005798339844 47.34366226196289 135.8365020751953 43.599918365478516 C 144.7129364013672 31.11039161682129 126.51541137695312 34.66019821166992 137.873046875 51.70263671875" stroke-width="2.0" fill="none" stroke="rgb(0, 0, 0)" stroke-opacity="1" stroke-linecap="round" stroke-linejoin="round"/>
    <path d="M 29.845138549804688 102.04080963134766 C 16.314271926879883 120.8531723022461 15.565876007080078 126.44044494628906 22.600967407226562 113.21292877197266 C 39.75052261352539 88.02357482910156 34.75068664550781 82.36509704589844 13.457158088684082 126.50811767578125" stroke-width="2.0" fill="none" stroke="rgb(0, 0, 0)" stroke-opacity="1" stroke-linecap="round" stroke-linejoin="round"/>
    <path d="M 192.9042205810547 229.68992614746094 C 190.01025390625 218.3263702392578 207.25653076171875 193.37266540527344 220.66400146484375 229.60585021972656" stroke-width="2.0" fill="none" stroke="rgb(0, 0, 0)" stroke-opacity="1" stroke-linecap="round" stroke-linejoin="round"/>
    <path d="M 194.48300170898438 128.924072265625 C 164.69654846191406 142.13650512695312 156.8939666748047 156.8740692138672 149.50247192382812 161.47860717773438 C 204.17481994628906 161.75132751464844 177.6728057861328 163.94927978515625 155.58023071289062 163.9010009765625" stroke-width="2.0" fill="none" stroke="rgb(0, 0, 0)" stroke-opacity="1" stroke-linecap="round" stroke-linejoin="round"/>
    <path d="M 6.556619644165039 134.98336791992188 C 9.709649085998535 142.56436157226562 4.255822658538818 121.42292022705078 -6.2550787925720215 91.06002807617188 C 19.76871109008789 84.33177185058594 4.547289848327637 109.33984375 19.671293258666992 68.4527816772461" stroke-width="2.0" fill="none" stroke="rgb(0, 0, 0)" stroke-opacity="1" stroke-linecap="round" stroke-linejoin="round"/>
    <path d="M 58.42254638671875 229.05093383789062 C 52.44186019897461 227.1514434814453 49.506282806396484 221.59722900390625 38.304195404052734 200.6368408203125" stroke-width="2.0" fill="none" stroke="rgb(0, 0, 0)" stroke-opacity="1" stroke-linecap="round" stroke-linejoin="round"/>
    <path d="M -4.493260383605957 39.32630157470703 C -11.715113639831543 38.08925247192383 -18.087942123413086 44.36006546020508 -17.04899024963379 39.84906768798828 C -7.486438751220703 29.02362060546875 -5.769462585449219 39.83085632324219 -9.11294174194336 49.47794723510742 C -9.938796043395996 57.54102325439453 -17.37422752380371 46.98894119262695 -20.860673904418945 52.149658203125" stroke-width="2.0" fill="none" stroke="rgb(0, 0, 0)" stroke-opacity="1" stroke-linecap="round" stroke-linejoin="round"/>
    <path d="M 131.38233947753906 148.14028930664062 C 134.5191192626953 156.65029907226562 145.637939453125 188.7050018310547 138.39425659179688 142.53292846679688 C 134.73057556152344 136.31179809570312 149.25709533691406 123.41313171386719 129.5858917236328 141.84002685546875 C 147.1572265625 137.69793701171875 142.37208557128906 130.1715087890625 126.08609771728516 152.13140869140625" stroke-width="2.0" fill="none" stroke="rgb(0, 0, 0)" stroke-opacity="1" stroke-linecap="round" stroke-linejoin="round"/>
  </g>
</svg>
