<?xml version="1.0" ?>
<svg xmlns="http://www.w3.org/2000/svg" version="1.1" width="224" height="224">
  <defs/>
  <g>
    <path d="M 44.52239990234375 53.05976867675781 C 65.81880950927734 17.01948356628418 47.74983215332031 62.5244140625 36.80172348022461 81.93232727050781 C 18.815959930419922 115.71710205078125 19.99635124206543 111.03095245361328 44.825157165527344 56.74098205566406" stroke-width="2.0" fill="none" stroke="rgb(0, 0, 0)" stroke-opacity="1" stroke-linecap="round" stroke-linejoin="round"/>
    <path d="M 37.737518310546875 67.40350341796875 C 50.67039489746094 42.7498664855957 35.53931427001953 68.80956268310547 22.73602867126465 72.7386245727539 C 9.241558074951172 61.104244232177734 -16.918197631835938 82.77742004394531 22.81777000427246 76.13034057617188" stroke-width="2.0" fill="none" stroke="rgb(0, 0, 0)" stroke-opacity="1" stroke-linecap="round" stroke-linejoin="round"/>
    <path d="M 152.76519775390625 73.31206512451172 C 139.54196166992188 99.09053802490234 151.05874633789062 80.12550354003906 170.67984008789062 66.8042984008789" stroke-width="2.0" fill="none" stroke="rgb(0, 0, 0)" stroke-opacity="1" stroke-linecap="round" stroke-linejoin="round"/>
    <path d="M 209.65603637695312 132.3840789794922 C 155.191650390625 137.58473205566406 164.74742126464844 127.32058715820312 207.93736267089844 120.34947967529297" stroke-width="2.0" fill="none" stroke="rgb(0, 0, 0)" stroke-opacity="1" stroke-linecap="round" stroke-linejoin="round"/>
    <path d="M 184.06893920898438 171.4805450439453 C 200.87677001953125 158.53009033203125 194.68568420410156 167.96612548828125 165.77572631835938 153.0477752685547 C 190.62855529785156 159.9763641357422 164.16458129882812 158.63739013671875 171.9972381591797 169.88079833984375 C 174.4805450439453 151.98709106445312 165.3172149658203 128.8052978515625 163.476318359375 111.87984466552734" stroke-width="2.0" fill="none" stroke="rgb(0, 0, 0)" stroke-opacity="1" stroke-linecap="round" stroke-linejoin="round"/>
    <path d="M 168.41357421875 92.17962646484375 C 161.52513122558594 123.59690856933594 182.88426208496094 114.5736083984375 168.1537322998047 92.93718719482422 C 187.50941467285156 100.19107055664062 207.65077209472656 118.95342254638672 223.61181640625 106.72189331054688" stroke-width="2.0" fill="none" stroke="rgb(0, 0, 0)" stroke-opacity="1" stroke-linecap="round" stroke-linejoin="round"/>
    <path d="M 197.01686096191406 -11.772421836853027 C 185.88116455078125 29.242351531982422 171.77845764160156 44.352561950683594 177.2863311767578 50.112003326416016 C 158.43936157226562 29.112449645996094 135.41903686523438 2.4622223377227783 129.91018676757812 5.177512168884277 C 131.16485595703125 3.887773036956787 127.27555084228516 1.4242072105407715 154.13946533203125 29.699739456176758" stroke-width="2.0" fill="none" stroke="rgb(0, 0, 0)" stroke-opacity="1" stroke-linecap="round" stroke-linejoin="round"/>
    <path d="M 153.05508422851562 232.72735595703125 C 155.21144104003906 237.62139892578125 159.22540283203125 222.0158233642578 169.70123291015625 240.6438446044922 C 180.15670776367188 218.92752075195312 174.03884887695312 221.0879364013672 105.441162109375 219.5160675048828" stroke-width="2.0" fill="none" stroke="rgb(0, 0, 0)" stroke-opacity="1" stroke-linecap="round" stroke-linejoin="round"/>
    <path d="M 218.6895294189453 168.0673828125 C 199.43643188476562 169.2113494873047 161.73326110839844 183.0702362060547 223.989013671875 174.6283416748047" stroke-width="2.0" fill="none" stroke="rgb(0, 0, 0)" stroke-opacity="1" stroke-linecap="round" stroke-linejoin="round"/>
    <path d="M 228.0106964111328 30.120464324951172 C 230.85643005371094 -12.997920989990234 230.2395477294922 -15.082144737243652 200.82901000976562 -33.216651916503906 C 198.279541015625 35.29661178588867 212.1491241455078 41.53833770751953 193.98681640625 36.13188552856445" stroke-width="2.0" fill="none" stroke="rgb(0, 0, 0)" stroke-opacity="1" stroke-linecap="round" stroke-linejoin="round"/>
    <path d="M 160.12684631347656 -5.339873790740967 C 149.4915771484375 9.0000581741333 128.1395263671875 12.288300514221191 136.43760681152344 4.792886257171631 C 148.6713104248047 19.238306045532227 161.76173400878906 31.57435417175293 179.29681396484375 40.259864807128906 C 156.12200927734375 33.40298080444336 144.98861694335938 25.925121307373047 124.56686401367188 -0.7277317643165588" stroke-width="2.0" fill="none" stroke="rgb(0, 0, 0)" stroke-opacity="1" stroke-linecap="round" stroke-linejoin="round"/>
    <path d="M 185.09503173828125 91.33523559570312 C 204.3188018798828 110.89054870605469 242.02969360351562 90.74396514892578 227.9236602783203 113.66720581054688 C 239.91139221191406 122.47073364257812 221.59066772460938 131.58432006835938 227.83990478515625 130.17144775390625" stroke-width="2.0" fill="none" stroke="rgb(0, 0, 0)" stroke-opacity="1" stroke-linecap="round" stroke-linejoin="round"/>
    <path d="M 151.7477569580078 99.72386932373047 C 134.92648315429688 104.19139099121094 118.22406005859375 71.93679809570312 132.43756103515625 105.22218322753906 C 127.32695770263672 90.69017028808594 135.96446228027344 79.74095916748047 132.552734375 117.67235565185547 C 116.9609146118164 76.43046569824219 130.31837463378906 91.31062316894531 136.25051879882812 115.5745620727539" stroke-width="2.0" fill="none" stroke="rgb(0, 0, 0)" stroke-opacity="1" stroke-linecap="round" stroke-linejoin="round"/>
    <path d="M 160.41912841796875 31.8604793548584 C 173.62588500976562 53.285125732421875 187.08172607421875 45.19375991821289 157.37379455566406 31.655128479003906 C 142.9160614013672 28.778369903564453 178.98191833496094 60.223934173583984 161.13247680664062 49.841552734375" stroke-width="2.0" fill="none" stroke="rgb(0, 0, 0)" stroke-opacity="1" stroke-linecap="round" stroke-linejoin="round"/>
    <path d="M 217.01150512695312 209.1519775390625 C 210.73582458496094 234.18484497070312 215.4369659423828 232.29647827148438 175.06321716308594 220.5882568359375 C 182.3775177001953 195.23934936523438 174.71046447753906 230.2023468017578 190.53961181640625 227.66806030273438" stroke-width="2.0" fill="none" stroke="rgb(0, 0, 0)" stroke-opacity="1" stroke-linecap="round" stroke-linejoin="round"/>
    <path d="M 130.8363800048828 154.8737335205078 C 135.88916015625 189.45614624023438 126.41827392578125 152.07554626464844 123.97151947021484 154.75547790527344 C 147.93289184570312 157.55581665039062 115.6193618774414 171.87794494628906 128.53065490722656 180.26882934570312" stroke-width="2.0" fill="none" stroke="rgb(0, 0, 0)" stroke-opacity="1" stroke-linecap="round" stroke-linejoin="round"/>
    <path d="M 216.7678985595703 208.6329803466797 C 217.07652282714844 236.1641845703125 209.22108459472656 242.23300170898438 204.8654022216797 233.29518127441406 C 235.3203582763672 222.55401611328125 213.04840087890625 228.31906127929688 202.3407440185547 227.1461639404297 C 199.1697235107422 235.7794189453125 191.8133544921875 244.92413330078125 201.58602905273438 249.2830352783203" stroke-width="2.0" fill="none" stroke="rgb(0, 0, 0)" stroke-opacity="1" stroke-linecap="round" stroke-linejoin="round"/>
    <path d="M 119.6886978149414 48.52008819580078 C 141.093994140625 51.50553512573242 136.1253204345703 62.10829544067383 97.5280990600586 27.454233169555664 C 133.38433837890625 32.86431121826172 127.58934020996094 44.43809509277344 114.93974304199219 35.271827697753906 C 108.974365234375 30.885190963745117 96.46154022216797 13.175190925598145 117.5136947631836 31.365036010742188" stroke-width="2.0" fill="none" stroke="rgb(0, 0, 0)" stroke-opacity="1" stroke-linecap="round" stroke-linejoin="round"/>
    <path d="M 104.28314208984375 228.39102172851562 C 106.82624816894531 215.03077697753906 130.69174194335938 211.0161895751953 128.46017456054688 230.467041015625 C 111.42672729492188 223.2930145263672 100.83998107910156 230.0081787109375 106.57891845703125 234.52621459960938" stroke-width="2.0" fill="none" stroke="rgb(0, 0, 0)" stroke-opacity="1" stroke-linecap="round" stroke-linejoin="round"/>
    <path d="M 170.436767578125 36.96735382080078 C 158.68788146972656 -6.6787238121032715 149.10572814941406 -22.179853439331055 144.8232421875 -27.895341873168945 C 159.17568969726562 -15.38278865814209 153.82061767578125 -14.961467742919922 156.13232421875 -23.638717651367188" stroke-width="2.0" fill="none" stroke="rgb(0, 0, 0)" stroke-opacity="1" stroke-linecap="round" stroke-linejoin="round"/>
    <path d="M 52.684783935546875 182.96739196777344 C 60.3455924987793 166.0905303955078 23.15575408935547 162.79931640625 -3.9574708938598633 137.72882080078125" stroke-width="2.0" fill="none" stroke="rgb(0, 0, 0)" stroke-opacity="1" stroke-linecap="round" stroke-linejoin="round"/>
    <path d="M 173.4450225830078 90.12101745605469 C 206.41087341308594 93.43734741210938 218.78599548339844 97.85208129882812 224.9436492919922 78.65744018554688" stroke-width="2.0" fill="none" stroke="rgb(0, 0, 0)" stroke-opacity="1" stroke-linecap="round" stroke-linejoin="round"/>
    <path d="M 180.79576110839844 215.22268676757812 C 201.56005859375 195.3710479736328 213.60897827148438 182.54925537109375 226.13780212402344 163.08921813964844 C 230.52499389648438 176.5670928955078 253.2107696533203 183.44577026367188 254.71958923339844 189.7080078125 C 229.306640625 181.7119903564453 228.46939086914062 183.73233032226562 239.2799530029297 181.83731079101562" stroke-width="2.0" fill="none" stroke="rgb(0, 0, 0)" stroke-opacity="1" stroke-linecap="round" stroke-linejoin="round"/>
    <path d="M 43.41453552246094 27.68567657470703 C 39.404964447021484 -5.219249725341797 30.529762268066406 -18.13745880126953 42.97715377807617 -15.631053924560547" stroke-width="2.0" fill="none" stroke="rgb(0, 0, 0)" stroke-opacity="1" stroke-linecap="round" stroke-linejoin="round"/>
    <path d="M 194.50775146484375 -0.2995372712612152 C 198.38941955566406 69.8318099975586 185.48959350585938 45.56269836425781 214.5422821044922 36.85647964477539 C 178.86717224121094 49.075347900390625 162.5410919189453 48.021934509277344 181.10107421875 40.661014556884766" stroke-width="2.0" fill="none" stroke="rgb(0, 0, 0)" stroke-opacity="1" stroke-linecap="round" stroke-linejoin="round"/>
    <path d="M 206.04090881347656 233.05223083496094 C 217.31813049316406 223.1739501953125 217.75514221191406 189.37728881835938 222.8976287841797 159.11572265625 C 225.48178100585938 188.99874877929688 226.44175720214844 193.5697784423828 246.21961975097656 197.15200805664062" stroke-width="2.0" fill="none" stroke="rgb(0, 0, 0)" stroke-opacity="1" stroke-linecap="round" stroke-linejoin="round"/>
    <path d="M 37.47713851928711 65.98934936523438 C 49.838722229003906 28.58281898498535 54.83033752441406 56.13394546508789 57.828712463378906 30.577913284301758 C 69.33403015136719 66.33865356445312 44.98152542114258 28.929065704345703 46.088653564453125 46.83128356933594" stroke-width="2.0" fill="none" stroke="rgb(0, 0, 0)" stroke-opacity="1" stroke-linecap="round" stroke-linejoin="round"/>
    <path d="M 29.646406173706055 80.3628158569336 C 40.3934211730957 57.9979362487793 35.8931884765625 67.51819610595703 30.571409225463867 49.434078216552734 C 18.84911346435547 60.55150604248047 21.323684692382812 82.84359741210938 2.8535947799682617 69.08465576171875 C 6.717666149139404 82.61557006835938 20.281742095947266 93.30035400390625 18.4200496673584 91.60073852539062" stroke-width="2.0" fill="none" stroke="rgb(0, 0, 0)" stroke-opacity="1" stroke-linecap="round" stroke-linejoin="round"/>
    <path d="M 169.0784912109375 129.7873992919922 C 186.3373260498047 127.65699005126953 193.6339569091797 126.68359375 163.53892517089844 121.86958312988281 C 206.1639404296875 135.96212768554688 155.23309326171875 112.4238052368164 170.6031036376953 137.95567321777344 C 215.7753143310547 155.4987030029297 216.47360229492188 140.71250915527344 212.8111572265625 134.06700134277344" stroke-width="2.0" fill="none" stroke="rgb(0, 0, 0)" stroke-opacity="1" stroke-linecap="round" stroke-linejoin="round"/>
    <path d="M 115.56109619140625 28.314266204833984 C 175.2410430908203 33.30956268310547 143.19338989257812 32.36643981933594 117.04200744628906 -6.1739115715026855 C 138.30181884765625 12.500232696533203 142.0520782470703 28.48166275024414 135.28726196289062 10.187994003295898 C 162.88563537597656 4.941908836364746 158.00599670410156 2.502257823944092 133.91378784179688 -4.481126308441162" stroke-width="2.0" fill="none" stroke="rgb(0, 0, 0)" stroke-opacity="1" stroke-linecap="round" stroke-linejoin="round"/>
    <path d="M 31.102161407470703 205.3622589111328 C 33.94181442260742 199.91952514648438 -5.166139125823975 193.66665649414062 -9.371125221252441 175.34889221191406 C 7.362943649291992 130.6923065185547 10.422727584838867 191.3903350830078 12.784019470214844 226.6115264892578 C 22.48354721069336 213.6331787109375 10.920763969421387 220.6434783935547 -18.450605392456055 219.64913940429688" stroke-width="2.0" fill="none" stroke="rgb(0, 0, 0)" stroke-opacity="1" stroke-linecap="round" stroke-linejoin="round"/>
    <path d="M 129.58612060546875 23.183469772338867 C 102.8899917602539 16.916973114013672 119.93960571289062 46.705230712890625 134.20993041992188 41.08820343017578" stroke-width="2.0" fill="none" stroke="rgb(0, 0, 0)" stroke-opacity="1" stroke-linecap="round" stroke-linejoin="round"/>
    <path d="M 68.69337463378906 82.95563507080078 C 97.78719329833984 38.741397857666016 82.92271423339844 28.650720596313477 94.69335174560547 70.02100372314453" stroke-width="2.0" fill="none" stroke="rgb(0, 0, 0)" stroke-opacity="1" stroke-linecap="round" stroke-linejoin="round"/>
    <path d="M 107.00987243652344 173.83892822265625 C 102.40726470947266 140.6420135498047 104.11128997802734 119.3061294555664 110.24980926513672 180.6012725830078 C 101.83814239501953 139.28570556640625 100.52760314941406 178.1112823486328 125.8880386352539 154.2475128173828 C 116.75540924072266 120.75113677978516 89.33419799804688 128.09413146972656 95.65605163574219 118.1608657836914" stroke-width="2.0" fill="none" stroke="rgb(0, 0, 0)" stroke-opacity="1" stroke-linecap="round" stroke-linejoin="round"/>
    <path d="M 196.44326782226562 -1.0188075304031372 C 168.08753967285156 14.380107879638672 153.2651824951172 -9.543097496032715 157.05421447753906 -25.5654239654541" stroke-width="2.0" fill="none" stroke="rgb(0, 0, 0)" stroke-opacity="1" stroke-linecap="round" stroke-linejoin="round"/>
    <path d="M 152.57557678222656 32.912479400634766 C 163.2760772705078 47.330623626708984 161.0778350830078 45.96463394165039 119.13739013671875 40.80115509033203 C 151.87254333496094 48.15229797363281 166.8401641845703 35.105987548828125 138.6095428466797 42.367408752441406" stroke-width="2.0" fill="none" stroke="rgb(0, 0, 0)" stroke-opacity="1" stroke-linecap="round" stroke-linejoin="round"/>
    <path d="M 92.599853515625 128.49249267578125 C 74.85128784179688 153.804931640625 82.16604614257812 152.7600860595703 55.729583740234375 178.53387451171875 C 74.04879760742188 147.9611358642578 86.97907257080078 143.17657470703125 76.87705993652344 150.13214111328125 C 58.32453918457031 153.408203125 79.49862670898438 130.89215087890625 72.25483703613281 150.11587524414062" stroke-width="2.0" fill="none" stroke="rgb(0, 0, 0)" stroke-opacity="1" stroke-linecap="round" stroke-linejoin="round"/>
    <path d="M 48.03971481323242 165.5673370361328 C 75.75410461425781 132.3656768798828 70.03661346435547 135.49159240722656 71.09705352783203 145.45045471191406 C 91.0318832397461 123.0457992553711 81.48467254638672 129.5164337158203 65.7498779296875 128.83018493652344" stroke-width="2.0" fill="none" stroke="rgb(0, 0, 0)" stroke-opacity="1" stroke-linecap="round" stroke-linejoin="round"/>
    <path d="M 63.57796859741211 108.89325714111328 C 28.62748908996582 133.89085388183594 37.09926223754883 131.96437072753906 50.719608306884766 130.93124389648438 C 32.127811431884766 122.49711608886719 48.11800003051758 115.21453094482422 71.45160675048828 136.24171447753906" stroke-width="2.0" fill="none" stroke="rgb(0, 0, 0)" stroke-opacity="1" stroke-linecap="round" stroke-linejoin="round"/>
    <path d="M 167.4053497314453 129.9497528076172 C 212.1177978515625 126.76709747314453 205.8386688232422 133.5029754638672 221.64602661132812 115.07394409179688" stroke-width="2.0" fill="none" stroke="rgb(0, 0, 0)" stroke-opacity="1" stroke-linecap="round" stroke-linejoin="round"/>
    <path d="M 146.19317626953125 120.31136322021484 C 125.97896575927734 118.71231842041016 159.07118225097656 108.43121337890625 98.64035034179688 107.30919647216797 C 117.55113220214844 82.05546569824219 154.50387573242188 86.66500854492188 139.08514404296875 115.33909606933594 C 148.16685485839844 61.43169403076172 153.3088836669922 64.24292755126953 164.13851928710938 106.60037994384766" stroke-width="2.0" fill="none" stroke="rgb(0, 0, 0)" stroke-opacity="1" stroke-linecap="round" stroke-linejoin="round"/>
    <path d="M 228.6505584716797 8.783453941345215 C 206.637939453125 11.293387413024902 206.27883911132812 -11.952123641967773 216.9748077392578 -10.663225173950195 C 239.36412048339844 1.9373048543930054 244.53085327148438 -4.889845848083496 244.64385986328125 -8.056473731994629 C 250.3473358154297 -6.7000603675842285 255.1529998779297 -1.9821398258209229 252.91787719726562 -0.7138320207595825" stroke-width="2.0" fill="none" stroke="rgb(0, 0, 0)" stroke-opacity="1" stroke-linecap="round" stroke-linejoin="round"/>
    <path d="M 230.2509002685547 55.67856979370117 C 232.66464233398438 47.78032684326172 224.93939208984375 31.985374450683594 229.24795532226562 52.49980163574219 C 227.06175231933594 42.63181686401367 226.0835723876953 36.573246002197266 233.1015625 33.768951416015625" stroke-width="2.0" fill="none" stroke="rgb(0, 0, 0)" stroke-opacity="1" stroke-linecap="round" stroke-linejoin="round"/>
    <path d="M 183.2486572265625 166.96315002441406 C 176.11691284179688 137.7258758544922 171.81422424316406 163.38861083984375 171.64291381835938 231.81373596191406 C 162.32943725585938 182.65460205078125 173.38711547851562 198.7498321533203 165.91165161132812 225.1062774658203 C 172.24705505371094 210.32017517089844 168.8243865966797 222.41757202148438 209.6197509765625 219.39083862304688" stroke-width="2.0" fill="none" stroke="rgb(0, 0, 0)" stroke-opacity="1" stroke-linecap="round" stroke-linejoin="round"/>
    <path d="M 136.14459228515625 234.01251220703125 C 114.43617248535156 234.64971923828125 112.76913452148438 229.92230224609375 104.71727752685547 236.703857421875" stroke-width="2.0" fill="none" stroke="rgb(0, 0, 0)" stroke-opacity="1" stroke-linecap="round" stroke-linejoin="round"/>
    <path d="M 211.69384765625 147.70932006835938 C 189.45550537109375 156.38389587402344 180.2998046875 149.0027313232422 181.6563262939453 150.6691131591797" stroke-width="2.0" fill="none" stroke="rgb(0, 0, 0)" stroke-opacity="1" stroke-linecap="round" stroke-linejoin="round"/>
    <path d="M 32.06990432739258 78.29045867919922 C 48.75185775756836 82.62281799316406 36.35481262207031 74.30459594726562 28.587947845458984 100.25521850585938" stroke-width="2.0" fill="none" stroke="rgb(0, 0, 0)" stroke-opacity="1" stroke-linecap="round" stroke-linejoin="round"/>
    <path d="M 71.42794036865234 123.71477508544922 C 52.41548156738281 122.42752838134766 54.91582489013672 134.32656860351562 69.02272033691406 115.97930145263672" stroke-width="2.0" fill="none" stroke="rgb(0, 0, 0)" stroke-opacity="1" stroke-linecap="round" stroke-linejoin="round"/>
    <path d="M 104.2892074584961 141.92288208007812 C 103.91570281982422 109.88668060302734 81.17593383789062 114.4482650756836 115.25454711914062 123.31954193115234 C 121.65524291992188 156.52537536621094 135.03616333007812 161.90512084960938 136.00746154785156 145.30685424804688" stroke-width="2.0" fill="none" stroke="rgb(0, 0, 0)" stroke-opacity="1" stroke-linecap="round" stroke-linejoin="round"/>
    <path d="M 75.57831573486328 172.85324096679688 C 113.25923919677734 179.38247680664062 113.30089569091797 180.4512481689453 64.96595764160156 173.84420776367188" stroke-width="2.0" fill="none" stroke="rgb(0, 0, 0)" stroke-opacity="1" stroke-linecap="round" stroke-linejoin="round"/>
    <path d="M 78.12994384765625 133.98240661621094 C 54.09817123413086 121.38963317871094 53.629852294921875 96.12340545654297 52.43440628051758 100.13678741455078 C 64.72100830078125 105.91256713867188 75.31120300292969 113.04749298095703 47.41507339477539 113.13724517822266" stroke-width="2.0" fill="none" stroke="rgb(0, 0, 0)" stroke-opacity="1" stroke-linecap="round" stroke-linejoin="round"/>
    <path d="M 122.85017395019531 225.4103240966797 C 107.51860046386719 213.61172485351562 105.49797058105469 225.75636291503906 111.47039031982422 231.44688415527344" stroke-width="2.0" fill="none" stroke="rgb(0, 0, 0)" stroke-opacity="1" stroke-linecap="round" stroke-linejoin="round"/>
    <path d="M 94.62039184570312 129.3042755126953 C 85.40118408203125 147.20944213867188 85.9959487915039 137.41162109375 99.18548583984375 156.14566040039062 C 97.37836456298828 166.7991180419922 103.8437271118164 209.5047607421875 101.94617462158203 120.85871124267578" stroke-width="2.0" fill="none" stroke="rgb(0, 0, 0)" stroke-opacity="1" stroke-linecap="round" stroke-linejoin="round"/>
    <path d="M 103.3646469116211 62.120513916015625 C 107.3634033203125 41.28561782836914 115.60609436035156 27.098064422607422 120.16567993164062 40.15315246582031 C 123.99028778076172 26.836894989013672 113.24527740478516 31.945547103881836 118.83470916748047 40.105384826660156 C 107.71436309814453 38.53828048706055 109.48460388183594 36.81423568725586 124.77352905273438 38.16389846801758" stroke-width="2.0" fill="none" stroke="rgb(0, 0, 0)" stroke-opacity="1" stroke-linecap="round" stroke-linejoin="round"/>
    <path d="M 97.7620849609375 108.83232879638672 C 135.7128143310547 116.45269775390625 132.99525451660156 110.52122497558594 102.77175903320312 105.7839584350586 C 104.898193359375 90.57408142089844 108.27970123291016 86.24716186523438 97.20820617675781 109.60816192626953 C 118.87472534179688 87.69049835205078 118.39802551269531 106.78341674804688 101.06611633300781 105.11158752441406" stroke-width="2.0" fill="none" stroke="rgb(0, 0, 0)" stroke-opacity="1" stroke-linecap="round" stroke-linejoin="round"/>
    <path d="M 139.32955932617188 201.96762084960938 C 140.99490356445312 188.18870544433594 174.59942626953125 178.2998809814453 140.90536499023438 179.52456665039062 C 168.00271606445312 173.931884765625 149.14578247070312 179.50990295410156 147.88858032226562 199.14720153808594 C 167.71104431152344 186.40304565429688 149.434326171875 182.5874786376953 97.46582794189453 176.33087158203125" stroke-width="2.0" fill="none" stroke="rgb(0, 0, 0)" stroke-opacity="1" stroke-linecap="round" stroke-linejoin="round"/>
    <path d="M 74.4123306274414 133.95921325683594 C 78.16886901855469 125.8774642944336 79.98661041259766 131.8842010498047 49.4310417175293 169.6630401611328" stroke-width="2.0" fill="none" stroke="rgb(0, 0, 0)" stroke-opacity="1" stroke-linecap="round" stroke-linejoin="round"/>
    <path d="M 61.77832794189453 182.12283325195312 C 34.68696212768555 222.864013671875 43.800594329833984 200.79287719726562 59.269378662109375 174.76504516601562 C 22.91579246520996 198.63406372070312 58.03023910522461 177.70553588867188 41.06209182739258 201.23391723632812 C 32.31629943847656 183.2787628173828 50.974891662597656 189.3285369873047 37.61465072631836 191.8750457763672" stroke-width="2.0" fill="none" stroke="rgb(0, 0, 0)" stroke-opacity="1" stroke-linecap="round" stroke-linejoin="round"/>
    <path d="M 169.01390075683594 143.579833984375 C 171.4158477783203 170.3134307861328 179.0426025390625 168.55320739746094 196.69769287109375 176.6146240234375 C 185.0131072998047 181.16297912597656 220.46810913085938 180.3898162841797 239.2822723388672 178.14248657226562" stroke-width="2.0" fill="none" stroke="rgb(0, 0, 0)" stroke-opacity="1" stroke-linecap="round" stroke-linejoin="round"/>
    <path d="M 7.331143856048584 151.8267364501953 C -10.658541679382324 148.4613494873047 -3.9710679054260254 167.2015838623047 3.0838024616241455 144.54747009277344" stroke-width="2.0" fill="none" stroke="rgb(0, 0, 0)" stroke-opacity="1" stroke-linecap="round" stroke-linejoin="round"/>
    <path d="M 180.04098510742188 109.69207763671875 C 156.89064025878906 106.9412612915039 154.9665985107422 71.00747680664062 140.17886352539062 77.38499450683594 C 138.67681884765625 103.68631744384766 150.20326232910156 116.33502197265625 133.04818725585938 134.6271514892578 C 148.50799560546875 98.71544647216797 123.73963165283203 87.01724243164062 141.1366729736328 90.08695983886719" stroke-width="2.0" fill="none" stroke="rgb(0, 0, 0)" stroke-opacity="1" stroke-linecap="round" stroke-linejoin="round"/>
    <path d="M 116.28519439697266 50.03588104248047 C 116.71711730957031 42.86381149291992 137.22494506835938 50.33009719848633 142.89317321777344 44.482234954833984" stroke-width="2.0" fill="none" stroke="rgb(0, 0, 0)" stroke-opacity="1" stroke-linecap="round" stroke-linejoin="round"/>
    <path d="M 162.46670532226562 171.17822265625 C 165.93008422851562 176.6824493408203 163.1095733642578 197.49021911621094 162.04344177246094 194.76541137695312 C 145.50167846679688 193.19097900390625 144.14015197753906 170.06610107421875 165.43484497070312 184.88043212890625 C 168.8674774169922 168.61871337890625 158.7859649658203 219.1790008544922 167.62881469726562 169.05958557128906" stroke-width="2.0" fill="none" stroke="rgb(0, 0, 0)" stroke-opacity="1" stroke-linecap="round" stroke-linejoin="round"/>
    <path d="M 85.63677215576172 99.47341918945312 C 120.923095703125 85.26776885986328 117.60850524902344 123.68478393554688 110.44950103759766 105.08379364013672 C 142.26014709472656 106.2087631225586 150.8966522216797 127.041748046875 97.49808502197266 109.56603240966797" stroke-width="2.0" fill="none" stroke="rgb(0, 0, 0)" stroke-opacity="1" stroke-linecap="round" stroke-linejoin="round"/>
    <path d="M 233.09620666503906 220.47964477539062 C 232.66494750976562 206.5010986328125 198.44798278808594 207.53793334960938 213.92236328125 212.7016143798828 C 209.92660522460938 244.76870727539062 202.82412719726562 238.3701629638672 176.05856323242188 212.07492065429688 C 175.34414672851562 223.18658447265625 216.05662536621094 218.39981079101562 216.1328125 217.10134887695312" stroke-width="2.0" fill="none" stroke="rgb(0, 0, 0)" stroke-opacity="1" stroke-linecap="round" stroke-linejoin="round"/>
    <path d="M 238.3247833251953 114.41738891601562 C 220.9090118408203 125.0288314819336 226.3561248779297 119.93842315673828 224.4720001220703 107.02983856201172 C 225.31202697753906 94.47395324707031 221.89108276367188 126.10065460205078 211.35792541503906 135.5177001953125" stroke-width="2.0" fill="none" stroke="rgb(0, 0, 0)" stroke-opacity="1" stroke-linecap="round" stroke-linejoin="round"/>
    <path d="M 122.0718994140625 31.63811683654785 C 117.13113403320312 39.30385208129883 136.4199981689453 22.891645431518555 125.98918914794922 34.84352111816406 C 125.60071563720703 41.85082244873047 128.74644470214844 31.873699188232422 129.8803253173828 -12.382803916931152" stroke-width="2.0" fill="none" stroke="rgb(0, 0, 0)" stroke-opacity="1" stroke-linecap="round" stroke-linejoin="round"/>
    <path d="M 179.66038513183594 158.9056396484375 C 186.43350219726562 180.68838500976562 139.90000915527344 166.87765502929688 181.4442138671875 172.88011169433594 C 128.8386993408203 191.15736389160156 124.70633697509766 179.10238647460938 153.6382598876953 183.55894470214844" stroke-width="2.0" fill="none" stroke="rgb(0, 0, 0)" stroke-opacity="1" stroke-linecap="round" stroke-linejoin="round"/>
    <path d="M 93.77726745605469 83.87452697753906 C 129.52598571777344 75.53411865234375 84.36520385742188 92.45814514160156 83.65532684326172 76.0600814819336 C 73.23306274414062 92.4384536743164 102.44183349609375 74.65233612060547 125.51497650146484 85.56600952148438 C 116.76879119873047 80.3744125366211 141.38552856445312 119.73780059814453 111.17250061035156 58.42744064331055" stroke-width="2.0" fill="none" stroke="rgb(0, 0, 0)" stroke-opacity="1" stroke-linecap="round" stroke-linejoin="round"/>
    <path d="M 176.82318115234375 175.05419921875 C 169.3871612548828 135.60012817382812 167.56483459472656 146.08303833007812 195.98635864257812 158.98678588867188" stroke-width="2.0" fill="none" stroke="rgb(0, 0, 0)" stroke-opacity="1" stroke-linecap="round" stroke-linejoin="round"/>
    <path d="M 149.71170043945312 92.27529907226562 C 174.695556640625 70.09700012207031 195.4591827392578 60.4639778137207 182.6831817626953 51.13680648803711 C 156.17381286621094 93.10462188720703 147.5602569580078 77.34101104736328 181.0413818359375 62.373756408691406 C 156.23219299316406 80.80211639404297 144.01834106445312 96.37176513671875 134.25155639648438 97.09488677978516" stroke-width="2.0" fill="none" stroke="rgb(0, 0, 0)" stroke-opacity="1" stroke-linecap="round" stroke-linejoin="round"/>
    <path d="M 175.59423828125 -2.392883777618408 C 176.66830444335938 -24.345382690429688 173.4357147216797 -20.190202713012695 160.7774658203125 -20.060148239135742" stroke-width="2.0" fill="none" stroke="rgb(0, 0, 0)" stroke-opacity="1" stroke-linecap="round" stroke-linejoin="round"/>
    <path d="M 106.41683959960938 35.796966552734375 C 94.9237289428711 78.72052764892578 135.3268585205078 50.18292236328125 118.17459869384766 27.640625" stroke-width="2.0" fill="none" stroke="rgb(0, 0, 0)" stroke-opacity="1" stroke-linecap="round" stroke-linejoin="round"/>
    <path d="M 84.86388397216797 35.26746368408203 C 95.10653686523438 37.44320297241211 91.32925415039062 34.665889739990234 83.12992858886719 28.60007095336914" stroke-width="2.0" fill="none" stroke="rgb(0, 0, 0)" stroke-opacity="1" stroke-linecap="round" stroke-linejoin="round"/>
    <path d="M 85.36690521240234 75.1062240600586 C 98.85198974609375 73.060302734375 60.85358810424805 80.30540466308594 106.86539459228516 67.03943634033203 C 71.02290344238281 77.11439514160156 100.39962005615234 74.8165283203125 90.7575912475586 80.0142593383789" stroke-width="2.0" fill="none" stroke="rgb(0, 0, 0)" stroke-opacity="1" stroke-linecap="round" stroke-linejoin="round"/>
    <path d="M 49.81131362915039 96.9268798828125 C 51.10258865356445 117.11549377441406 49.48036193847656 93.69570922851562 55.99470520019531 100.0671157836914" stroke-width="2.0" fill="none" stroke="rgb(0, 0, 0)" stroke-opacity="1" stroke-linecap="round" stroke-linejoin="round"/>
    <path d="M 176.48948669433594 159.66627502441406 C 160.5889129638672 164.06495666503906 152.8067169189453 167.8511505126953 155.70901489257812 156.4580078125" stroke-width="2.0" fill="none" stroke="rgb(0, 0, 0)" stroke-opacity="1" stroke-linecap="round" stroke-linejoin="round"/>
    <path d="M 56.93439483642578 117.86971282958984 C 37.73355484008789 107.77436065673828 46.96553421020508 120.18795013427734 74.81182098388672 131.6367950439453" stroke-width="2.0" fill="none" stroke="rgb(0, 0, 0)" stroke-opacity="1" stroke-linecap="round" stroke-linejoin="round"/>
    <path d="M 105.50773620605469 130.67283630371094 C 128.70423889160156 114.47344970703125 112.13551330566406 151.425048828125 112.0063705444336 138.99290466308594" stroke-width="2.0" fill="none" stroke="rgb(0, 0, 0)" stroke-opacity="1" stroke-linecap="round" stroke-linejoin="round"/>
    <path d="M 67.84486389160156 2.8422048091888428 C 83.26380157470703 10.852368354797363 78.45391082763672 -1.5566905736923218 65.68766021728516 -13.429975509643555" stroke-width="2.0" fill="none" stroke="rgb(0, 0, 0)" stroke-opacity="1" stroke-linecap="round" stroke-linejoin="round"/>
    <path d="M 124.5891342163086 150.48983764648438 C 106.25940704345703 113.03252410888672 105.87166595458984 128.9647674560547 139.78802490234375 121.0764389038086" stroke-width="2.0" fill="none" stroke="rgb(0, 0, 0)" stroke-opacity="1" stroke-linecap="round" stroke-linejoin="round"/>
    <path d="M 72.3837661743164 232.4913787841797 C 75.60025024414062 187.56951904296875 77.24746704101562 147.5520477294922 76.15015411376953 172.1311492919922 C 105.3209457397461 216.4476318359375 102.01762390136719 227.0099334716797 104.81449890136719 177.01748657226562" stroke-width="2.0" fill="none" stroke="rgb(0, 0, 0)" stroke-opacity="1" stroke-linecap="round" stroke-linejoin="round"/>
    <path d="M 15.632596015930176 178.81637573242188 C 45.068241119384766 148.60275268554688 43.21405029296875 164.0452117919922 2.9263312816619873 187.0103302001953 C 2.6727712154388428 177.8697967529297 6.893605709075928 152.3264923095703 0.35574281215667725 140.23721313476562" stroke-width="2.0" fill="none" stroke="rgb(0, 0, 0)" stroke-opacity="1" stroke-linecap="round" stroke-linejoin="round"/>
    <path d="M 143.42771911621094 42.811885833740234 C 132.19485473632812 48.863258361816406 111.1010513305664 34.902164459228516 112.01423645019531 28.383256912231445 C 142.41566467285156 36.67222213745117 121.07382202148438 31.6044864654541 107.39192199707031 37.2509880065918" stroke-width="2.0" fill="none" stroke="rgb(0, 0, 0)" stroke-opacity="1" stroke-linecap="round" stroke-linejoin="round"/>
    <path d="M 22.947507858276367 17.04967498779297 C 47.883052825927734 17.9742488861084 76.48638153076172 -6.533693313598633 66.11521911621094 13.472847938537598 C 75.31924438476562 -8.459083557128906 81.00496673583984 -23.013221740722656 83.80119323730469 7.791247367858887" stroke-width="2.0" fill="none" stroke="rgb(0, 0, 0)" stroke-opacity="1" stroke-linecap="round" stroke-linejoin="round"/>
    <path d="M 117.93175506591797 160.0382080078125 C 130.5544891357422 148.1899871826172 142.00692749023438 167.54052734375 129.1063232421875 170.32382202148438 C 129.1555633544922 141.925048828125 156.5387420654297 127.81049346923828 132.5634307861328 132.6429443359375 C 109.97062683105469 141.62245178222656 126.7608871459961 123.6031494140625 127.04127502441406 134.16845703125" stroke-width="2.0" fill="none" stroke="rgb(0, 0, 0)" stroke-opacity="1" stroke-linecap="round" stroke-linejoin="round"/>
    <path d="M 87.16397094726562 155.8955078125 C 51.77888488769531 114.9886703491211 41.76356887817383 147.9279022216797 72.1254653930664 117.73970794677734 C 71.52494049072266 143.22021484375 89.17584228515625 142.2777099609375 33.27974319458008 130.81005859375" stroke-width="2.0" fill="none" stroke="rgb(0, 0, 0)" stroke-opacity="1" stroke-linecap="round" stroke-linejoin="round"/>
    <path d="M 195.09295654296875 37.63368606567383 C 228.6479034423828 45.364585876464844 189.64682006835938 28.38153648376465 161.20774841308594 34.739200592041016 C 191.56146240234375 67.73302459716797 172.59788513183594 54.8770866394043 204.38717651367188 46.01729965209961" stroke-width="2.0" fill="none" stroke="rgb(0, 0, 0)" stroke-opacity="1" stroke-linecap="round" stroke-linejoin="round"/>
    <path d="M 122.39302825927734 -5.046035289764404 C 142.58782958984375 13.690999984741211 142.53404235839844 9.53893756866455 126.87030029296875 -7.844534873962402 C 134.4911346435547 -12.885924339294434 137.66310119628906 -16.414005279541016 130.7401123046875 -10.592061996459961 C 139.5650634765625 -18.683977127075195 146.50155639648438 -26.000829696655273 150.36329650878906 -20.54939079284668" stroke-width="2.0" fill="none" stroke="rgb(0, 0, 0)" stroke-opacity="1" stroke-linecap="round" stroke-linejoin="round"/>
    <path d="M 173.6505126953125 43.37576675415039 C 148.68641662597656 14.138914108276367 151.57371520996094 37.31294250488281 177.4935302734375 25.960689544677734 C 143.89463806152344 24.372905731201172 169.739990234375 31.721263885498047 153.1990509033203 36.81766891479492 C 131.93748474121094 7.59982442855835 129.10134887695312 21.536685943603516 158.9171905517578 -6.494734764099121" stroke-width="2.0" fill="none" stroke="rgb(0, 0, 0)" stroke-opacity="1" stroke-linecap="round" stroke-linejoin="round"/>
    <path d="M 104.6705322265625 226.1581573486328 C 116.68701934814453 215.5537109375 122.97525024414062 222.71139526367188 167.9183349609375 219.57432556152344 C 171.13204956054688 221.81471252441406 164.5315704345703 236.66448974609375 163.61178588867188 241.58998107910156" stroke-width="2.0" fill="none" stroke="rgb(0, 0, 0)" stroke-opacity="1" stroke-linecap="round" stroke-linejoin="round"/>
    <path d="M 196.9584503173828 7.857151985168457 C 197.11093139648438 -12.997627258300781 198.0224151611328 -23.022809982299805 196.9530029296875 -1.8156678676605225 C 196.4926300048828 1.9721916913986206 187.98439025878906 5.751673221588135 198.65150451660156 -10.527891159057617" stroke-width="2.0" fill="none" stroke="rgb(0, 0, 0)" stroke-opacity="1" stroke-linecap="round" stroke-linejoin="round"/>
    <path d="M 181.55056762695312 51.169769287109375 C 171.55722045898438 42.38172149658203 165.96791076660156 52.003421783447266 205.18096923828125 36.93840789794922 C 181.65975952148438 39.22212600708008 216.19320678710938 57.771732330322266 195.01568603515625 32.698387145996094 C 238.88568115234375 39.49693298339844 257.603271484375 22.494796752929688 195.7525177001953 27.534751892089844" stroke-width="2.0" fill="none" stroke="rgb(0, 0, 0)" stroke-opacity="1" stroke-linecap="round" stroke-linejoin="round"/>
    <path d="M 211.48056030273438 219.33901977539062 C 216.25901794433594 204.78390502929688 218.84536743164062 203.05491638183594 216.73583984375 231.8351287841797 C 210.5260467529297 242.94850158691406 213.6031951904297 241.84341430664062 222.40704345703125 247.79852294921875" stroke-width="2.0" fill="none" stroke="rgb(0, 0, 0)" stroke-opacity="1" stroke-linecap="round" stroke-linejoin="round"/>
    <path d="M 69.16258239746094 115.0382308959961 C 51.112464904785156 126.25881958007812 44.02611541748047 129.14442443847656 72.27205657958984 133.32611083984375 C 60.68055725097656 95.3082046508789 59.88643264770508 138.357421875 56.10538101196289 97.52295684814453 C 74.17906188964844 118.01789093017578 103.56063079833984 143.2888946533203 76.70650482177734 123.88895416259766" stroke-width="2.0" fill="none" stroke="rgb(0, 0, 0)" stroke-opacity="1" stroke-linecap="round" stroke-linejoin="round"/>
    <path d="M 96.2664794921875 43.260353088378906 C 87.8961181640625 45.86698913574219 93.15452575683594 29.65371322631836 77.96910095214844 -8.108088493347168 C 71.72138214111328 -14.072683334350586 72.17666625976562 -14.83535099029541 63.65547180175781 -14.167634010314941" stroke-width="2.0" fill="none" stroke="rgb(0, 0, 0)" stroke-opacity="1" stroke-linecap="round" stroke-linejoin="round"/>
    <path d="M 93.04290008544922 71.3475341796875 C 73.75275421142578 75.11534118652344 93.1594009399414 68.76242065429688 88.19468688964844 82.95537567138672" stroke-width="2.0" fill="none" stroke="rgb(0, 0, 0)" stroke-opacity="1" stroke-linecap="round" stroke-linejoin="round"/>
    <path d="M 191.92599487304688 117.00765228271484 C 199.82696533203125 107.58065032958984 168.96595764160156 127.82029724121094 163.427978515625 110.1189956665039" stroke-width="2.0" fill="none" stroke="rgb(0, 0, 0)" stroke-opacity="1" stroke-linecap="round" stroke-linejoin="round"/>
    <path d="M 226.4976348876953 82.34685516357422 C 216.32476806640625 99.98379516601562 232.13380432128906 105.8734130859375 226.87948608398438 92.28372192382812" stroke-width="2.0" fill="none" stroke="rgb(0, 0, 0)" stroke-opacity="1" stroke-linecap="round" stroke-linejoin="round"/>
    <path d="M 126.52154541015625 54.43602752685547 C 119.9407730102539 55.21295928955078 118.03550720214844 43.8607177734375 112.07544708251953 18.27658462524414 C 99.19624328613281 49.54603576660156 121.54390716552734 40.11289978027344 104.6438217163086 48.35414505004883 C 126.3917465209961 38.935508728027344 151.7750701904297 34.46500015258789 134.49618530273438 44.35095977783203" stroke-width="2.0" fill="none" stroke="rgb(0, 0, 0)" stroke-opacity="1" stroke-linecap="round" stroke-linejoin="round"/>
    <path d="M 224.25071716308594 73.0357894897461 C 217.60015869140625 51.282691955566406 244.2704315185547 48.36028289794922 243.4434356689453 39.957481384277344" stroke-width="2.0" fill="none" stroke="rgb(0, 0, 0)" stroke-opacity="1" stroke-linecap="round" stroke-linejoin="round"/>
    <path d="M 165.82211303710938 116.05792236328125 C 200.97564697265625 118.08731079101562 167.52606201171875 90.45396423339844 196.6045684814453 114.65426635742188 C 162.90464782714844 129.43341064453125 159.4907684326172 96.1374282836914 170.1568145751953 126.80860900878906 C 160.1382293701172 135.1796417236328 179.19924926757812 138.84791564941406 202.21380615234375 137.56295776367188" stroke-width="2.0" fill="none" stroke="rgb(0, 0, 0)" stroke-opacity="1" stroke-linecap="round" stroke-linejoin="round"/>
    <path d="M 181.89122009277344 218.22760009765625 C 215.41273498535156 223.1682891845703 219.48631286621094 236.79345703125 202.9609832763672 204.68637084960938 C 208.8741455078125 219.22793579101562 218.51296997070312 215.51133728027344 220.65176391601562 227.83775329589844 C 213.5738525390625 215.3594512939453 214.82791137695312 242.8419189453125 215.29336547851562 209.355712890625" stroke-width="2.0" fill="none" stroke="rgb(0, 0, 0)" stroke-opacity="1" stroke-linecap="round" stroke-linejoin="round"/>
    <path d="M 139.9722137451172 78.83545684814453 C 140.7547149658203 74.09809112548828 136.64308166503906 46.01061248779297 159.4684600830078 97.99995422363281 C 150.17022705078125 71.6242904663086 140.5405731201172 72.63685607910156 147.0707550048828 96.07434844970703" stroke-width="2.0" fill="none" stroke="rgb(0, 0, 0)" stroke-opacity="1" stroke-linecap="round" stroke-linejoin="round"/>
    <path d="M 124.13961029052734 215.51014709472656 C 147.89645385742188 193.906982421875 169.57118225097656 181.2019500732422 125.03622436523438 217.76596069335938" stroke-width="2.0" fill="none" stroke="rgb(0, 0, 0)" stroke-opacity="1" stroke-linecap="round" stroke-linejoin="round"/>
    <path d="M -0.21854718029499054 80.13213348388672 C 27.842208862304688 121.44408416748047 32.52128601074219 128.32847595214844 10.469143867492676 123.45475006103516 C 30.43048667907715 80.42227935791016 35.15304183959961 63.97304916381836 37.613372802734375 70.29731750488281" stroke-width="2.0" fill="none" stroke="rgb(0, 0, 0)" stroke-opacity="1" stroke-linecap="round" stroke-linejoin="round"/>
    <path d="M 118.47067260742188 182.38046264648438 C 108.06820678710938 175.4730224609375 96.52324676513672 188.88560485839844 108.8925552368164 157.03228759765625" stroke-width="2.0" fill="none" stroke="rgb(0, 0, 0)" stroke-opacity="1" stroke-linecap="round" stroke-linejoin="round"/>
    <path d="M 226.93701171875 109.41207122802734 C 207.9625244140625 125.71150207519531 217.52127075195312 152.5580596923828 207.68405151367188 161.32302856445312 C 187.23281860351562 164.3967742919922 164.34103393554688 166.90423583984375 221.455810546875 174.8905029296875" stroke-width="2.0" fill="none" stroke="rgb(0, 0, 0)" stroke-opacity="1" stroke-linecap="round" stroke-linejoin="round"/>
    <path d="M 209.904541015625 213.44595336914062 C 187.24351501464844 187.48741149902344 184.77145385742188 184.41506958007812 197.67706298828125 199.35182189941406 C 165.32456970214844 163.04898071289062 167.7019500732422 162.04736328125 192.7719268798828 167.67457580566406" stroke-width="2.0" fill="none" stroke="rgb(0, 0, 0)" stroke-opacity="1" stroke-linecap="round" stroke-linejoin="round"/>
    <path d="M 145.7373046875 131.60244750976562 C 151.64993286132812 126.32408905029297 155.2355194091797 140.88775634765625 153.27334594726562 132.21400451660156 C 114.03388214111328 140.031494140625 138.58740234375 126.64642333984375 136.87576293945312 125.71893310546875" stroke-width="2.0" fill="none" stroke="rgb(0, 0, 0)" stroke-opacity="1" stroke-linecap="round" stroke-linejoin="round"/>
    <path d="M 166.69223022460938 173.2979736328125 C 163.25131225585938 190.30604553222656 159.78565979003906 206.0514373779297 166.61671447753906 173.64805603027344" stroke-width="2.0" fill="none" stroke="rgb(0, 0, 0)" stroke-opacity="1" stroke-linecap="round" stroke-linejoin="round"/>
    <path d="M 156.5310821533203 171.66729736328125 C 133.46353149414062 171.69854736328125 151.2632293701172 154.1149444580078 156.82859802246094 158.28790283203125 C 127.5004653930664 154.01312255859375 149.1620635986328 150.57801818847656 162.7110595703125 124.37483215332031 C 133.44764709472656 136.45046997070312 138.15774536132812 125.51416778564453 144.68431091308594 127.16114807128906" stroke-width="2.0" fill="none" stroke="rgb(0, 0, 0)" stroke-opacity="1" stroke-linecap="round" stroke-linejoin="round"/>
    <path d="M 102.74449157714844 196.744384765625 C 115.7739486694336 226.32388305664062 114.30928039550781 239.077392578125 111.85101318359375 243.87149047851562" stroke-width="2.0" fill="none" stroke="rgb(0, 0, 0)" stroke-opacity="1" stroke-linecap="round" stroke-linejoin="round"/>
    <path d="M 103.18421936035156 52.80015182495117 C 79.31465911865234 56.32382583618164 109.86167907714844 43.38246154785156 106.78462219238281 64.51846313476562 C 89.87849426269531 36.59502029418945 86.73644256591797 48.47224426269531 89.63219451904297 52.523834228515625" stroke-width="2.0" fill="none" stroke="rgb(0, 0, 0)" stroke-opacity="1" stroke-linecap="round" stroke-linejoin="round"/>
    <path d="M 132.38412475585938 176.72218322753906 C 87.22205352783203 174.49307250976562 97.25479125976562 170.9361114501953 81.29981994628906 175.94747924804688" stroke-width="2.0" fill="none" stroke="rgb(0, 0, 0)" stroke-opacity="1" stroke-linecap="round" stroke-linejoin="round"/>
    <path d="M 120.97187805175781 87.05506896972656 C 119.03585815429688 111.71261596679688 131.59974670410156 120.00831604003906 119.19242095947266 78.38035583496094 C 130.3717041015625 96.54434204101562 122.13261413574219 109.720458984375 77.26892852783203 97.47007751464844 C 125.9479751586914 93.72434997558594 128.87454223632812 100.30836486816406 125.03636932373047 110.70626068115234" stroke-width="2.0" fill="none" stroke="rgb(0, 0, 0)" stroke-opacity="1" stroke-linecap="round" stroke-linejoin="round"/>
    <path d="M 210.24990844726562 155.7068634033203 C 174.42559814453125 165.91607666015625 149.7493133544922 132.97193908691406 180.98985290527344 155.4989776611328 C 224.29725646972656 159.9077911376953 176.32583618164062 162.3802490234375 165.90414428710938 149.60423278808594" stroke-width="2.0" fill="none" stroke="rgb(0, 0, 0)" stroke-opacity="1" stroke-linecap="round" stroke-linejoin="round"/>
    <path d="M 116.81283569335938 180.99166870117188 C 93.1971664428711 209.036865234375 91.19203186035156 205.45953369140625 97.06822204589844 202.4994354248047 C 105.79222869873047 220.13424682617188 97.82035064697266 239.55368041992188 132.05038452148438 227.0629119873047" stroke-width="2.0" fill="none" stroke="rgb(0, 0, 0)" stroke-opacity="1" stroke-linecap="round" stroke-linejoin="round"/>
    <path d="M 102.31639862060547 156.13070678710938 C 101.8616943359375 160.6763458251953 102.2441635131836 172.274169921875 119.39168548583984 170.87586975097656 C 102.60919189453125 164.38821411132812 113.83924102783203 161.03085327148438 134.50987243652344 148.343994140625" stroke-width="2.0" fill="none" stroke="rgb(0, 0, 0)" stroke-opacity="1" stroke-linecap="round" stroke-linejoin="round"/>
    <path d="M 143.39413452148438 149.6070098876953 C 157.29022216796875 118.54071807861328 147.8275909423828 137.93751525878906 131.8714141845703 147.85826110839844" stroke-width="2.0" fill="none" stroke="rgb(0, 0, 0)" stroke-opacity="1" stroke-linecap="round" stroke-linejoin="round"/>
    <path d="M 117.73693084716797 74.3595199584961 C 134.1968994140625 44.24891662597656 125.60370635986328 37.30471420288086 105.20195007324219 45.85173416137695" stroke-width="2.0" fill="none" stroke="rgb(0, 0, 0)" stroke-opacity="1" stroke-linecap="round" stroke-linejoin="round"/>
    <path d="M 195.2057342529297 -12.848443031311035 C 167.6287078857422 7.185735702514648 148.1400146484375 -8.670053482055664 162.75509643554688 1.6750978231430054" stroke-width="2.0" fill="none" stroke="rgb(0, 0, 0)" stroke-opacity="1" stroke-linecap="round" stroke-linejoin="round"/>
    <path d="M 214.13011169433594 140.5233917236328 C 183.7078857421875 135.31356811523438 188.66799926757812 140.67684936523438 213.3398895263672 138.6944580078125" stroke-width="2.0" fill="none" stroke="rgb(0, 0, 0)" stroke-opacity="1" stroke-linecap="round" stroke-linejoin="round"/>
    <path d="M 232.81118774414062 19.532379150390625 C 230.51568603515625 10.645532608032227 226.9749755859375 13.818717956542969 238.18414306640625 22.449560165405273 C 241.8107147216797 25.55451774597168 232.58407592773438 36.00890350341797 230.99850463867188 36.27794647216797" stroke-width="2.0" fill="none" stroke="rgb(0, 0, 0)" stroke-opacity="1" stroke-linecap="round" stroke-linejoin="round"/>
    <path d="M 111.2265396118164 131.61622619628906 C 110.00457763671875 119.71855163574219 110.28279876708984 122.76106262207031 118.5426254272461 130.75840759277344 C 128.2291259765625 146.572265625 134.6713104248047 162.18287658691406 126.09561920166016 152.9713897705078 C 119.27183532714844 123.94200897216797 82.76046752929688 132.48268127441406 94.11466217041016 114.0789566040039" stroke-width="2.0" fill="none" stroke="rgb(0, 0, 0)" stroke-opacity="1" stroke-linecap="round" stroke-linejoin="round"/>
    <path d="M 18.539932250976562 172.91917419433594 C 4.096278190612793 195.42520141601562 -21.054832458496094 190.99057006835938 -7.39767599105835 201.7600555419922" stroke-width="2.0" fill="none" stroke="rgb(0, 0, 0)" stroke-opacity="1" stroke-linecap="round" stroke-linejoin="round"/>
    <path d="M 178.59030151367188 58.440555572509766 C 203.51158142089844 52.039371490478516 174.34788513183594 59.63386917114258 171.59469604492188 67.9468765258789" stroke-width="2.0" fill="none" stroke="rgb(0, 0, 0)" stroke-opacity="1" stroke-linecap="round" stroke-linejoin="round"/>
    <path d="M 196.66673278808594 79.63429260253906 C 192.49346923828125 81.06221008300781 200.9259490966797 91.79619598388672 227.97238159179688 82.46505737304688 C 238.78831481933594 61.19369125366211 225.53343200683594 81.69113159179688 196.5159149169922 82.84793090820312 C 214.31155395507812 36.59901809692383 211.6235809326172 29.705251693725586 245.8420867919922 33.15870666503906" stroke-width="2.0" fill="none" stroke="rgb(0, 0, 0)" stroke-opacity="1" stroke-linecap="round" stroke-linejoin="round"/>
    <path d="M 234.40789794921875 174.10406494140625 C 182.255615234375 173.00559997558594 178.9829864501953 169.12686157226562 176.9938507080078 160.6815948486328 C 216.35630798339844 170.05490112304688 209.42025756835938 164.1197052001953 171.34429931640625 162.1855926513672 C 176.57945251464844 144.43495178222656 175.2150115966797 150.62164306640625 168.8082733154297 142.6985321044922" stroke-width="2.0" fill="none" stroke="rgb(0, 0, 0)" stroke-opacity="1" stroke-linecap="round" stroke-linejoin="round"/>
    <path d="M 77.40885925292969 171.67677307128906 C 38.46162414550781 168.24606323242188 74.40745544433594 184.6369171142578 47.97161865234375 184.8892822265625" stroke-width="2.0" fill="none" stroke="rgb(0, 0, 0)" stroke-opacity="1" stroke-linecap="round" stroke-linejoin="round"/>
    <path d="M 87.51577758789062 51.09571075439453 C 102.01514434814453 43.93523025512695 94.88832092285156 54.194122314453125 111.14401245117188 85.20083618164062 C 95.08953094482422 38.55081558227539 86.78755187988281 17.577701568603516 101.09185791015625 65.2691879272461" stroke-width="2.0" fill="none" stroke="rgb(0, 0, 0)" stroke-opacity="1" stroke-linecap="round" stroke-linejoin="round"/>
    <path d="M 171.78158569335938 63.78493881225586 C 152.24490356445312 54.058013916015625 212.59605407714844 53.70121765136719 195.68246459960938 44.34571075439453 C 224.7777099609375 33.80377197265625 196.32400512695312 53.71654510498047 180.2611846923828 67.33854675292969 C 156.20693969726562 52.3788948059082 186.3903045654297 61.60274124145508 169.03810119628906 60.798614501953125" stroke-width="2.0" fill="none" stroke="rgb(0, 0, 0)" stroke-opacity="1" stroke-linecap="round" stroke-linejoin="round"/>
    <path d="M 33.8574104309082 204.85760498046875 C 47.062400817871094 193.6168670654297 39.77326583862305 201.40179443359375 6.281269550323486 187.52230834960938 C 7.796567916870117 208.70187377929688 13.165668487548828 243.31301879882812 6.647140026092529 232.57386779785156 C 21.78335952758789 235.4853515625 27.003250122070312 216.50071716308594 37.746238708496094 206.64878845214844" stroke-width="2.0" fill="none" stroke="rgb(0, 0, 0)" stroke-opacity="1" stroke-linecap="round" stroke-linejoin="round"/>
    <path d="M 206.58641052246094 212.1414337158203 C 219.89854431152344 222.62770080566406 236.44735717773438 227.6196746826172 237.54783630371094 226.6258544921875" stroke-width="2.0" fill="none" stroke="rgb(0, 0, 0)" stroke-opacity="1" stroke-linecap="round" stroke-linejoin="round"/>
    <path d="M 220.4244842529297 35.264366149902344 C 200.0380859375 59.79046630859375 213.7593994140625 73.34490203857422 210.73226928710938 26.214754104614258 C 191.56259155273438 54.344181060791016 213.50796508789062 59.09714126586914 205.34519958496094 26.734909057617188" stroke-width="2.0" fill="none" stroke="rgb(0, 0, 0)" stroke-opacity="1" stroke-linecap="round" stroke-linejoin="round"/>
    <path d="M 226.46209716796875 41.63227462768555 C 234.0976104736328 32.67961120605469 228.9624786376953 42.02195358276367 259.67913818359375 26.39590835571289 C 250.0689239501953 37.021366119384766 223.3098602294922 33.50392150878906 174.1864471435547 36.32696533203125 C 207.2986297607422 41.212520599365234 242.54049682617188 52.39254379272461 263.04937744140625 57.228450775146484" stroke-width="2.0" fill="none" stroke="rgb(0, 0, 0)" stroke-opacity="1" stroke-linecap="round" stroke-linejoin="round"/>
    <path d="M 34.715614318847656 128.51744079589844 C 62.836177825927734 109.0992660522461 66.45622253417969 130.51881408691406 8.208818435668945 126.73419952392578 C 70.64241027832031 137.49365234375 70.0484848022461 121.60881042480469 10.23234748840332 117.42830657958984 C -13.86684799194336 108.18309020996094 -15.022948265075684 108.79032135009766 -2.9276010990142822 100.12079620361328" stroke-width="2.0" fill="none" stroke="rgb(0, 0, 0)" stroke-opacity="1" stroke-linecap="round" stroke-linejoin="round"/>
    <path d="M 204.4790802001953 145.76065063476562 C 159.0172119140625 152.98611450195312 173.7745361328125 123.04891204833984 166.21507263183594 154.7909698486328" stroke-width="2.0" fill="none" stroke="rgb(0, 0, 0)" stroke-opacity="1" stroke-linecap="round" stroke-linejoin="round"/>
    <path d="M 159.9165802001953 222.18585205078125 C 160.35728454589844 219.76708984375 184.6654510498047 237.33218383789062 187.36460876464844 244.16123962402344" stroke-width="2.0" fill="none" stroke="rgb(0, 0, 0)" stroke-opacity="1" stroke-linecap="round" stroke-linejoin="round"/>
    <path d="M 165.11119079589844 240.91419982910156 C 164.9928741455078 212.31874084472656 166.60287475585938 180.72242736816406 166.2984619140625 185.83792114257812 C 145.28607177734375 195.04119873046875 154.52674865722656 197.92747497558594 123.72667694091797 198.2871856689453 C 126.16539764404297 177.3463592529297 113.04684448242188 203.63270568847656 127.44983673095703 179.76425170898438" stroke-width="2.0" fill="none" stroke="rgb(0, 0, 0)" stroke-opacity="1" stroke-linecap="round" stroke-linejoin="round"/>
    <path d="M 156.86695861816406 164.07203674316406 C 155.48739624023438 132.30433654785156 172.63536071777344 153.55812072753906 165.84584045410156 117.78410339355469 C 172.2854461669922 124.18168640136719 191.48590087890625 129.59361267089844 188.50271606445312 128.3849639892578 C 156.40469360351562 120.65985870361328 166.666748046875 142.1907958984375 205.35914611816406 127.1451187133789" stroke-width="2.0" fill="none" stroke="rgb(0, 0, 0)" stroke-opacity="1" stroke-linecap="round" stroke-linejoin="round"/>
    <path d="M 106.6750259399414 161.76515197753906 C 51.2274055480957 156.26885986328125 55.90319061279297 179.0908660888672 126.0305404663086 170.0709991455078 C 99.6562728881836 169.69570922851562 119.18282318115234 132.02952575683594 94.78981018066406 120.44818115234375" stroke-width="2.0" fill="none" stroke="rgb(0, 0, 0)" stroke-opacity="1" stroke-linecap="round" stroke-linejoin="round"/>
    <path d="M -6.870458602905273 40.50640106201172 C 3.1587462425231934 31.60474395751953 -9.715126037597656 29.416095733642578 -3.0742788314819336 84.12491607666016 C -1.5217560529708862 43.9931755065918 -12.8499174118042 50.53514099121094 2.664417028427124 45.599700927734375" stroke-width="2.0" fill="none" stroke="rgb(0, 0, 0)" stroke-opacity="1" stroke-linecap="round" stroke-linejoin="round"/>
    <path d="M -2.9699385166168213 17.14574432373047 C 68.27812957763672 24.3092098236084 63.17720031738281 28.230308532714844 23.323633193969727 22.700992584228516 C 67.1585922241211 39.060813903808594 36.54102325439453 40.372825622558594 94.49992370605469 42.31986999511719 C 45.37770462036133 48.30592727661133 59.76404571533203 43.93537902832031 75.27924346923828 -1.6296709775924683" stroke-width="2.0" fill="none" stroke="rgb(0, 0, 0)" stroke-opacity="1" stroke-linecap="round" stroke-linejoin="round"/>
    <path d="M 37.573673248291016 71.2641830444336 C 8.346853256225586 74.48886108398438 11.035980224609375 75.3525390625 23.3939266204834 60.05888748168945 C 18.988697052001953 83.68140411376953 22.096467971801758 67.69769287109375 41.94090270996094 32.05305099487305" stroke-width="2.0" fill="none" stroke="rgb(0, 0, 0)" stroke-opacity="1" stroke-linecap="round" stroke-linejoin="round"/>
    <path d="M 107.82325744628906 33.171470642089844 C 91.89666748046875 40.48792266845703 109.00473022460938 23.764404296875 121.6286392211914 29.665023803710938" stroke-width="2.0" fill="none" stroke="rgb(0, 0, 0)" stroke-opacity="1" stroke-linecap="round" stroke-linejoin="round"/>
    <path d="M 228.8236846923828 217.66571044921875 C 197.97140502929688 217.38949584960938 212.27804565429688 227.0241241455078 218.87950134277344 220.61293029785156 C 223.2530975341797 221.12139892578125 245.9109344482422 224.60134887695312 246.99044799804688 226.27540588378906" stroke-width="2.0" fill="none" stroke="rgb(0, 0, 0)" stroke-opacity="1" stroke-linecap="round" stroke-linejoin="round"/>
    <path d="M 9.668371200561523 153.72230529785156 C 1.5234692096710205 167.53140258789062 20.92837142944336 150.51422119140625 58.718955993652344 126.65834045410156" stroke-width="2.0" fill="none" stroke="rgb(0, 0, 0)" stroke-opacity="1" stroke-linecap="round" stroke-linejoin="round"/>
    <path d="M 63.838375091552734 227.1030731201172 C 50.821571350097656 237.0574951171875 46.053585052490234 239.54588317871094 5.783933162689209 274.5351867675781 C 13.320334434509277 239.11244201660156 36.881690979003906 231.09722900390625 16.384292602539062 215.98248291015625 C 8.963736534118652 238.1428680419922 21.2304630279541 228.1353302001953 22.683504104614258 228.22438049316406" stroke-width="2.0" fill="none" stroke="rgb(0, 0, 0)" stroke-opacity="1" stroke-linecap="round" stroke-linejoin="round"/>
    <path d="M 120.29415130615234 87.82664489746094 C 101.31444549560547 26.480268478393555 93.28166961669922 23.937402725219727 113.67932891845703 82.1187744140625 C 95.60260772705078 99.7033462524414 123.2664566040039 85.6723861694336 147.8210906982422 76.45836639404297" stroke-width="2.0" fill="none" stroke="rgb(0, 0, 0)" stroke-opacity="1" stroke-linecap="round" stroke-linejoin="round"/>
    <path d="M 60.47956848144531 103.8331069946289 C 50.12129592895508 102.6643295288086 60.90037155151367 121.49173736572266 51.4337158203125 128.86329650878906 C 8.9401273727417 127.32183074951172 -2.1894960403442383 104.5268783569336 63.397518157958984 108.14012908935547 C 51.83719253540039 115.29046630859375 65.83521270751953 104.1658935546875 57.002784729003906 93.50373840332031" stroke-width="2.0" fill="none" stroke="rgb(0, 0, 0)" stroke-opacity="1" stroke-linecap="round" stroke-linejoin="round"/>
    <path d="M 144.5865936279297 194.9319610595703 C 105.39390563964844 226.2856903076172 129.92018127441406 249.17735290527344 123.10395050048828 180.02256774902344" stroke-width="2.0" fill="none" stroke="rgb(0, 0, 0)" stroke-opacity="1" stroke-linecap="round" stroke-linejoin="round"/>
    <path d="M 173.38731384277344 100.15641784667969 C 213.86729431152344 122.76875305175781 200.04957580566406 117.42200469970703 191.98614501953125 114.7300033569336 C 191.12428283691406 115.60191345214844 179.49302673339844 121.05125427246094 229.65699768066406 114.53014373779297" stroke-width="2.0" fill="none" stroke="rgb(0, 0, 0)" stroke-opacity="1" stroke-linecap="round" stroke-linejoin="round"/>
    <path d="M 104.90504455566406 179.80322265625 C 101.17475128173828 236.14759826660156 114.8295669555664 240.78419494628906 93.72393798828125 203.98582458496094 C 112.94943237304688 226.37266540527344 113.68577575683594 237.76559448242188 117.00093078613281 245.3707733154297 C 106.99740600585938 237.15383911132812 110.20101928710938 231.00640869140625 101.45867919921875 231.5570526123047" stroke-width="2.0" fill="none" stroke="rgb(0, 0, 0)" stroke-opacity="1" stroke-linecap="round" stroke-linejoin="round"/>
    <path d="M 88.15706634521484 231.35682678222656 C 93.30939483642578 233.99398803710938 95.79744720458984 234.96539306640625 103.89982604980469 225.27951049804688 C 101.96119689941406 230.60421752929688 92.02708435058594 232.69387817382812 90.64219665527344 233.6051788330078 C 71.41569519042969 227.07760620117188 73.37615203857422 226.76736450195312 63.97083282470703 235.40896606445312" stroke-width="2.0" fill="none" stroke="rgb(0, 0, 0)" stroke-opacity="1" stroke-linecap="round" stroke-linejoin="round"/>
    <path d="M 105.98348236083984 172.532958984375 C 55.01266098022461 177.2229461669922 65.12641906738281 181.83877563476562 82.47648620605469 154.1376190185547 C 69.98464965820312 191.06129455566406 64.38780212402344 172.69834899902344 86.1900634765625 144.13522338867188" stroke-width="2.0" fill="none" stroke="rgb(0, 0, 0)" stroke-opacity="1" stroke-linecap="round" stroke-linejoin="round"/>
    <path d="M 72.76776123046875 85.46435546875 C 71.04415130615234 103.36449432373047 55.402618408203125 71.90576934814453 84.611083984375 92.66165161132812 C 73.50872039794922 78.43376922607422 86.72486114501953 108.49348449707031 61.526283264160156 88.37464141845703 C 86.16239929199219 45.910823822021484 92.61495971679688 40.933349609375 66.5846176147461 82.7447509765625" stroke-width="2.0" fill="none" stroke="rgb(0, 0, 0)" stroke-opacity="1" stroke-linecap="round" stroke-linejoin="round"/>
    <path d="M 203.26669311523438 75.95187377929688 C 221.571533203125 26.92617416381836 214.40573120117188 42.23268127441406 200.83421325683594 82.41878509521484" stroke-width="2.0" fill="none" stroke="rgb(0, 0, 0)" stroke-opacity="1" stroke-linecap="round" stroke-linejoin="round"/>
    <path d="M 212.50811767578125 164.97842407226562 C 162.22186279296875 165.04393005371094 172.6780242919922 162.67617797851562 203.6775360107422 175.22166442871094 C 205.63180541992188 175.1456298828125 182.90174865722656 165.97695922851562 166.3833770751953 150.98855590820312 C 185.4615478515625 173.06910705566406 231.88157653808594 175.789306640625 187.55722045898438 166.28659057617188" stroke-width="2.0" fill="none" stroke="rgb(0, 0, 0)" stroke-opacity="1" stroke-linecap="round" stroke-linejoin="round"/>
    <path d="M 4.4312334060668945 180.9550323486328 C 4.03078031539917 161.6800079345703 11.449624061584473 219.77410888671875 7.687619209289551 207.9120330810547 C -15.876734733581543 206.69979858398438 -21.89055824279785 199.690673828125 -10.894977569580078 207.14833068847656 C -18.396852493286133 201.70162963867188 -13.197762489318848 201.66683959960938 -14.333248138427734 196.3990936279297" stroke-width="2.0" fill="none" stroke="rgb(0, 0, 0)" stroke-opacity="1" stroke-linecap="round" stroke-linejoin="round"/>
    <path d="M 118.99271392822266 45.83218002319336 C 129.7665252685547 45.33436965942383 134.48159790039062 20.94253158569336 122.37750244140625 67.02144622802734 C 130.47320556640625 49.52750015258789 120.40021514892578 38.095237731933594 122.87004089355469 22.55367088317871 C 119.6339340209961 48.073951721191406 119.86847686767578 27.222026824951172 104.81598663330078 51.1604118347168" stroke-width="2.0" fill="none" stroke="rgb(0, 0, 0)" stroke-opacity="1" stroke-linecap="round" stroke-linejoin="round"/>
    <path d="M 234.63832092285156 115.16513061523438 C 221.59353637695312 125.44217681884766 218.94570922851562 144.02210998535156 228.87071228027344 144.5830078125 C 229.31068420410156 152.24429321289062 240.3608856201172 151.1526641845703 235.5625457763672 157.0010223388672" stroke-width="2.0" fill="none" stroke="rgb(0, 0, 0)" stroke-opacity="1" stroke-linecap="round" stroke-linejoin="round"/>
    <path d="M 55.06391143798828 27.08258056640625 C 66.4141845703125 12.072698593139648 49.307334899902344 69.09140014648438 65.47740173339844 34.82587814331055 C 86.47988891601562 43.8542594909668 108.59033203125 35.03056716918945 62.774322509765625 22.869556427001953" stroke-width="2.0" fill="none" stroke="rgb(0, 0, 0)" stroke-opacity="1" stroke-linecap="round" stroke-linejoin="round"/>
    <path d="M 151.17727661132812 63.12215805053711 C 141.12240600585938 59.92970657348633 159.16571044921875 74.05902099609375 145.61392211914062 81.72185516357422 C 158.1328887939453 63.66355514526367 161.9812469482422 77.5645523071289 124.65714263916016 77.77520751953125" stroke-width="2.0" fill="none" stroke="rgb(0, 0, 0)" stroke-opacity="1" stroke-linecap="round" stroke-linejoin="round"/>
    <path d="M 154.5198974609375 153.90838623046875 C 136.0590057373047 151.6374053955078 165.45492553710938 122.99284362792969 147.11962890625 131.89898681640625" stroke-width="2.0" fill="none" stroke="rgb(0, 0, 0)" stroke-opacity="1" stroke-linecap="round" stroke-linejoin="round"/>
    <path d="M 196.39395141601562 197.80352783203125 C 171.71331787109375 168.69735717773438 167.83120727539062 170.65638732910156 182.49232482910156 170.4022674560547 C 229.21853637695312 179.12606811523438 243.74061584472656 186.5625762939453 175.20123291015625 174.40655517578125 C 201.89537048339844 173.12107849121094 211.58018493652344 189.2437744140625 228.51840209960938 168.56008911132812" stroke-width="2.0" fill="none" stroke="rgb(0, 0, 0)" stroke-opacity="1" stroke-linecap="round" stroke-linejoin="round"/>
    <path d="M 34.74656295776367 83.22057342529297 C 17.975139617919922 78.40535736083984 48.28608703613281 69.41259765625 27.50200653076172 68.84849548339844 C -9.207112312316895 61.30635452270508 -2.347256660461426 70.14226531982422 23.469280242919922 54.03322982788086" stroke-width="2.0" fill="none" stroke="rgb(0, 0, 0)" stroke-opacity="1" stroke-linecap="round" stroke-linejoin="round"/>
    <path d="M 138.94664001464844 2.0032503604888916 C 140.54824829101562 8.85755443572998 139.78704833984375 24.398893356323242 113.70079803466797 46.042720794677734 C 96.39501953125 42.129581451416016 130.15933227539062 35.7868537902832 143.10855102539062 46.41942596435547" stroke-width="2.0" fill="none" stroke="rgb(0, 0, 0)" stroke-opacity="1" stroke-linecap="round" stroke-linejoin="round"/>
    <path d="M 88.10548400878906 140.5065155029297 C 74.04661560058594 171.07009887695312 64.03346252441406 172.8207244873047 96.0787582397461 170.3643035888672" stroke-width="2.0" fill="none" stroke="rgb(0, 0, 0)" stroke-opacity="1" stroke-linecap="round" stroke-linejoin="round"/>
    <path d="M 131.06809997558594 86.96238708496094 C 129.45814514160156 127.9684066772461 142.7351531982422 112.01655578613281 143.52362060546875 124.64019012451172 C 125.72711181640625 104.75276184082031 150.48410034179688 93.68794250488281 135.81573486328125 110.05237579345703" stroke-width="2.0" fill="none" stroke="rgb(0, 0, 0)" stroke-opacity="1" stroke-linecap="round" stroke-linejoin="round"/>
    <path d="M 67.92448425292969 8.230443000793457 C 60.15989303588867 30.258256912231445 49.735469818115234 43.57181167602539 47.130714416503906 53.76371383666992" stroke-width="2.0" fill="none" stroke="rgb(0, 0, 0)" stroke-opacity="1" stroke-linecap="round" stroke-linejoin="round"/>
    <path d="M 10.892184257507324 236.9039764404297 C 11.029245376586914 219.5677032470703 0.8932749032974243 220.80398559570312 11.565157890319824 227.8859100341797 C 3.7880728244781494 209.95687866210938 7.138398170471191 205.67730712890625 17.683591842651367 246.2648162841797 C 16.834487915039062 225.83238220214844 25.69376564025879 210.83551025390625 47.95393753051758 191.96554565429688" stroke-width="2.0" fill="none" stroke="rgb(0, 0, 0)" stroke-opacity="1" stroke-linecap="round" stroke-linejoin="round"/>
    <path d="M 231.002197265625 162.17276000976562 C 223.4971466064453 164.8897247314453 230.14004516601562 143.47433471679688 232.7751007080078 144.82357788085938 C 227.44593811035156 175.4718780517578 234.48826599121094 170.71658325195312 241.88694763183594 165.24708557128906" stroke-width="2.0" fill="none" stroke="rgb(0, 0, 0)" stroke-opacity="1" stroke-linecap="round" stroke-linejoin="round"/>
    <path d="M 39.052608489990234 154.3458251953125 C 56.983097076416016 144.46339416503906 20.49571418762207 147.76878356933594 39.37321090698242 159.34439086914062 C 66.34597778320312 147.82077026367188 18.21282958984375 132.59022521972656 58.19194412231445 153.7583465576172 C 11.997176170349121 175.15467834472656 70.28382110595703 175.7342529296875 38.27186584472656 168.59971618652344" stroke-width="2.0" fill="none" stroke="rgb(0, 0, 0)" stroke-opacity="1" stroke-linecap="round" stroke-linejoin="round"/>
    <path d="M 155.70323181152344 68.0019302368164 C 127.44342041015625 75.94719696044922 125.13509368896484 63.66007614135742 117.1388168334961 73.2712173461914 C 129.54425048828125 93.67639923095703 145.4635772705078 40.13084030151367 127.26986694335938 76.61659240722656 C 132.48329162597656 73.63125610351562 121.18413543701172 74.24715423583984 134.38217163085938 69.38465118408203" stroke-width="2.0" fill="none" stroke="rgb(0, 0, 0)" stroke-opacity="1" stroke-linecap="round" stroke-linejoin="round"/>
    <path d="M -1.5063600540161133 191.04183959960938 C 2.4022436141967773 199.8358917236328 31.921550750732422 200.1068878173828 86.50348663330078 220.20127868652344 C 41.517608642578125 229.09194946289062 43.8369026184082 235.52102661132812 82.8121566772461 216.267822265625 C 70.65946960449219 209.75149536132812 87.71129608154297 225.04656982421875 73.8509750366211 237.57301330566406" stroke-width="2.0" fill="none" stroke="rgb(0, 0, 0)" stroke-opacity="1" stroke-linecap="round" stroke-linejoin="round"/>
    <path d="M 83.630615234375 35.2436408996582 C 84.45057678222656 27.618789672851562 97.75773620605469 49.887489318847656 89.08424377441406 21.188779830932617" stroke-width="2.0" fill="none" stroke="rgb(0, 0, 0)" stroke-opacity="1" stroke-linecap="round" stroke-linejoin="round"/>
    <path d="M 207.60385131835938 161.14744567871094 C 190.30007934570312 173.47708129882812 220.90455627441406 186.0092315673828 190.662109375 179.0504150390625" stroke-width="2.0" fill="none" stroke="rgb(0, 0, 0)" stroke-opacity="1" stroke-linecap="round" stroke-linejoin="round"/>
    <path d="M 106.71492004394531 49.325645446777344 C 118.36443328857422 94.99652862548828 123.65369415283203 91.60476684570312 114.31861114501953 94.29920196533203 C 106.86917114257812 76.73362731933594 106.05740356445312 69.09784698486328 107.51925659179688 89.6845703125 C 136.8359375 74.55634307861328 129.75042724609375 64.34029388427734 106.87728881835938 102.42306518554688" stroke-width="2.0" fill="none" stroke="rgb(0, 0, 0)" stroke-opacity="1" stroke-linecap="round" stroke-linejoin="round"/>
    <path d="M 121.18714141845703 108.80258178710938 C 109.72712707519531 75.65833282470703 121.1181869506836 114.49634552001953 100.70533752441406 65.10885620117188 C 123.4269790649414 50.63761520385742 157.02980041503906 73.92236328125 122.02430725097656 70.1195297241211 C 119.4844741821289 66.53069305419922 145.41958618164062 73.18099212646484 125.59500122070312 79.23123931884766" stroke-width="2.0" fill="none" stroke="rgb(0, 0, 0)" stroke-opacity="1" stroke-linecap="round" stroke-linejoin="round"/>
    <path d="M 36.52696228027344 53.23444747924805 C 14.156961441040039 56.258201599121094 33.50300979614258 71.03007507324219 38.42194366455078 61.977577209472656 C 11.35352611541748 60.47414016723633 46.92222213745117 43.166160583496094 24.542030334472656 53.146484375 C 49.0386848449707 57.49357986450195 37.20376205444336 48.00712966918945 31.984466552734375 82.45450592041016" stroke-width="2.0" fill="none" stroke="rgb(0, 0, 0)" stroke-opacity="1" stroke-linecap="round" stroke-linejoin="round"/>
    <path d="M 3.1060633659362793 179.99176025390625 C 5.0374250411987305 156.47877502441406 5.147808074951172 171.70947265625 9.136054992675781 232.63104248046875 C 27.02120590209961 209.28396606445312 40.193115234375 190.27845764160156 51.991302490234375 190.2969207763672 C 31.042194366455078 191.6446990966797 31.793498992919922 201.0128173828125 53.68376922607422 173.48336791992188" stroke-width="2.0" fill="none" stroke="rgb(0, 0, 0)" stroke-opacity="1" stroke-linecap="round" stroke-linejoin="round"/>
    <path d="M 16.236614227294922 110.50215911865234 C 27.084152221679688 104.87419891357422 26.338804244995117 110.98226165771484 22.277372360229492 127.65597534179688 C 35.33293533325195 79.22541809082031 39.96565246582031 86.74764251708984 30.433456420898438 77.9395523071289 C 52.45650100708008 96.09732818603516 59.75554275512695 130.88661193847656 51.57234191894531 99.94432067871094" stroke-width="2.0" fill="none" stroke="rgb(0, 0, 0)" stroke-opacity="1" stroke-linecap="round" stroke-linejoin="round"/>
    <path d="M 176.37144470214844 164.05685424804688 C 229.79779052734375 152.82505798339844 197.26922607421875 193.2291259765625 171.91683959960938 171.423583984375 C 220.491455078125 176.95635986328125 214.7435760498047 179.0911407470703 179.84811401367188 171.19480895996094" stroke-width="2.0" fill="none" stroke="rgb(0, 0, 0)" stroke-opacity="1" stroke-linecap="round" stroke-linejoin="round"/>
    <path d="M 102.11642456054688 70.11553955078125 C 104.23612213134766 107.24178314208984 105.11109924316406 124.04637908935547 144.02127075195312 102.86822509765625 C 122.98933410644531 88.09980773925781 129.23245239257812 116.56505584716797 155.09910583496094 84.89984893798828" stroke-width="2.0" fill="none" stroke="rgb(0, 0, 0)" stroke-opacity="1" stroke-linecap="round" stroke-linejoin="round"/>
    <path d="M 101.09387969970703 50.63077926635742 C 77.03262329101562 -12.02074146270752 87.60880279541016 -29.289710998535156 74.70978546142578 5.186674118041992 C 80.01927185058594 12.818798065185547 80.7698745727539 0.38900455832481384 65.03340911865234 -1.0407987833023071 C 55.491844177246094 16.989063262939453 58.17314910888672 -3.567073106765747 70.09709930419922 -17.83620834350586" stroke-width="2.0" fill="none" stroke="rgb(0, 0, 0)" stroke-opacity="1" stroke-linecap="round" stroke-linejoin="round"/>
    <path d="M 130.56661987304688 181.62185668945312 C 149.2484130859375 176.05538940429688 132.61721801757812 169.9454803466797 139.6132049560547 179.46096801757812 C 113.06403350830078 179.48175048828125 112.26903533935547 174.255859375 132.3096466064453 180.8744659423828" stroke-width="2.0" fill="none" stroke="rgb(0, 0, 0)" stroke-opacity="1" stroke-linecap="round" stroke-linejoin="round"/>
    <path d="M -6.094289779663086 4.926385402679443 C 24.68044662475586 12.736550331115723 30.777027130126953 -14.870809555053711 15.33581256866455 20.838550567626953" stroke-width="2.0" fill="none" stroke="rgb(0, 0, 0)" stroke-opacity="1" stroke-linecap="round" stroke-linejoin="round"/>
    <path d="M 17.28550910949707 21.478200912475586 C 64.29067993164062 34.01953125 70.30735778808594 25.00244903564453 56.948184967041016 34.845909118652344" stroke-width="2.0" fill="none" stroke="rgb(0, 0, 0)" stroke-opacity="1" stroke-linecap="round" stroke-linejoin="round"/>
    <path d="M 127.923583984375 4.484347820281982 C 152.56858825683594 1.1413967609405518 154.19024658203125 -0.35179242491722107 138.42172241210938 -10.16942310333252 C 138.39634704589844 -7.684010982513428 130.53012084960938 -15.921674728393555 127.16436767578125 -23.4478702545166 C 139.10665893554688 -2.8360202312469482 134.03762817382812 -0.4556906521320343 131.3558807373047 -6.704549312591553" stroke-width="2.0" fill="none" stroke="rgb(0, 0, 0)" stroke-opacity="1" stroke-linecap="round" stroke-linejoin="round"/>
    <path d="M 123.97138214111328 202.77005004882812 C 128.9860076904297 230.51864624023438 127.15876007080078 219.98736572265625 118.982177734375 239.07443237304688" stroke-width="2.0" fill="none" stroke="rgb(0, 0, 0)" stroke-opacity="1" stroke-linecap="round" stroke-linejoin="round"/>
    <path d="M 181.7593231201172 90.61416625976562 C 184.14402770996094 105.39022064208984 190.45089721679688 103.80610656738281 219.81459045410156 105.36210632324219 C 252.9346160888672 98.93472290039062 218.7597198486328 107.01995086669922 190.21298217773438 92.14383697509766" stroke-width="2.0" fill="none" stroke="rgb(0, 0, 0)" stroke-opacity="1" stroke-linecap="round" stroke-linejoin="round"/>
    <path d="M -3.9827752113342285 82.230712890625 C 42.42098617553711 75.78595733642578 24.762386322021484 49.735595703125 31.507976531982422 61.61524963378906 C 33.82698059082031 31.829504013061523 28.213939666748047 60.8860969543457 17.167617797851562 74.77623748779297" stroke-width="2.0" fill="none" stroke="rgb(0, 0, 0)" stroke-opacity="1" stroke-linecap="round" stroke-linejoin="round"/>
    <path d="M 10.006194114685059 21.50670623779297 C 24.982446670532227 3.8195714950561523 35.93202209472656 -14.364985466003418 18.17679214477539 -14.86510181427002 C 30.352048873901367 -9.717486381530762 29.787921905517578 -18.006662368774414 28.701154708862305 -5.973363399505615 C 37.498138427734375 -16.686569213867188 30.470277786254883 -13.829687118530273 21.756284713745117 14.270570755004883" stroke-width="2.0" fill="none" stroke="rgb(0, 0, 0)" stroke-opacity="1" stroke-linecap="round" stroke-linejoin="round"/>
    <path d="M 142.08143615722656 201.6595001220703 C 114.46669006347656 174.07012939453125 87.55490112304688 169.60067749023438 166.02886962890625 184.12271118164062 C 95.5250473022461 182.7281494140625 104.65184783935547 190.6697540283203 107.09503173828125 123.84381103515625 C 85.76811981201172 123.9502182006836 136.57447814941406 138.01708984375 110.00117492675781 126.48709106445312" stroke-width="2.0" fill="none" stroke="rgb(0, 0, 0)" stroke-opacity="1" stroke-linecap="round" stroke-linejoin="round"/>
    <path d="M 2.1954987049102783 46.58107376098633 C 21.646591186523438 7.143540859222412 48.99992752075195 -13.560891151428223 15.514998435974121 3.157670021057129 C -17.852134704589844 -3.2683632373809814 -4.930228233337402 -19.642017364501953 -11.599919319152832 21.89446258544922 C 6.757761478424072 30.9541015625 -6.417932510375977 34.07952880859375 -8.462594985961914 10.217011451721191" stroke-width="2.0" fill="none" stroke="rgb(0, 0, 0)" stroke-opacity="1" stroke-linecap="round" stroke-linejoin="round"/>
    <path d="M 93.23727416992188 96.98003387451172 C 86.86734008789062 65.52899932861328 121.26907348632812 93.55248260498047 93.44377136230469 89.91792297363281" stroke-width="2.0" fill="none" stroke="rgb(0, 0, 0)" stroke-opacity="1" stroke-linecap="round" stroke-linejoin="round"/>
    <path d="M 23.45460319519043 120.92505645751953 C -23.264293670654297 110.00401306152344 -0.6081719398498535 120.01527404785156 8.601649284362793 118.79061889648438" stroke-width="2.0" fill="none" stroke="rgb(0, 0, 0)" stroke-opacity="1" stroke-linecap="round" stroke-linejoin="round"/>
    <path d="M 127.13800811767578 184.43304443359375 C 118.20951080322266 162.68707275390625 133.71250915527344 181.4483184814453 116.15650177001953 181.44541931152344" stroke-width="2.0" fill="none" stroke="rgb(0, 0, 0)" stroke-opacity="1" stroke-linecap="round" stroke-linejoin="round"/>
    <path d="M 123.68880462646484 167.8991241455078 C 102.74394989013672 200.25086975097656 92.64685821533203 206.80517578125 106.28845977783203 205.50148010253906 C 109.03485870361328 212.3716583251953 102.22403717041016 206.10231018066406 70.84390258789062 225.6112518310547" stroke-width="2.0" fill="none" stroke="rgb(0, 0, 0)" stroke-opacity="1" stroke-linecap="round" stroke-linejoin="round"/>
  </g>
</svg>
