<?xml version="1.0" ?>
<svg xmlns="http://www.w3.org/2000/svg" version="1.1" width="224" height="224">
  <defs/>
  <g>
    <path d="M 18.11785888671875 -14.147945404052734 C 30.678503036499023 -14.978960037231445 31.212800979614258 6.098974704742432 44.41184616088867 20.2176570892334 C 63.627044677734375 7.766104698181152 17.73514747619629 20.662574768066406 -11.248892784118652 22.69126319885254 C 4.503345489501953 11.601323127746582 -8.207815170288086 14.742288589477539 24.071218490600586 8.929790496826172" stroke-width="2.0" fill="none" stroke="rgb(0, 0, 0)" stroke-opacity="1" stroke-linecap="round" stroke-linejoin="round"/>
    <path d="M 162.73854064941406 58.548744201660156 C 182.35617065429688 49.84804916381836 205.58773803710938 42.779483795166016 207.67799377441406 38.363651275634766 C 208.1213836669922 87.1498031616211 194.8154296875 69.42342376708984 193.08189392089844 45.57743453979492 C 193.685791015625 51.940792083740234 185.18865966796875 9.347700119018555 183.53948974609375 30.515804290771484" stroke-width="2.0" fill="none" stroke="rgb(0, 0, 0)" stroke-opacity="1" stroke-linecap="round" stroke-linejoin="round"/>
    <path d="M 101.05193328857422 43.601444244384766 C 91.63568878173828 23.03171157836914 74.10621643066406 15.70905590057373 67.0624771118164 6.340640544891357 C 83.04678344726562 23.204776763916016 88.53421020507812 13.111138343811035 68.19783782958984 28.002111434936523 C 44.41705322265625 10.29358959197998 51.138877868652344 13.66296100616455 71.98789978027344 46.07563400268555" stroke-width="2.0" fill="none" stroke="rgb(0, 0, 0)" stroke-opacity="1" stroke-linecap="round" stroke-linejoin="round"/>
    <path d="M 133.9921417236328 205.7349853515625 C 109.38748168945312 240.33287048339844 119.73760986328125 236.6406707763672 139.61048889160156 221.82093811035156" stroke-width="2.0" fill="none" stroke="rgb(0, 0, 0)" stroke-opacity="1" stroke-linecap="round" stroke-linejoin="round"/>
    <path d="M 68.87347412109375 167.32098388671875 C 39.671836853027344 154.16493225097656 50.33488082885742 158.14630126953125 57.98444747924805 165.22706604003906 C 51.48810577392578 191.89988708496094 36.381893157958984 202.15548706054688 44.9304313659668 186.7478485107422 C 55.39248275756836 164.77731323242188 72.71746063232422 152.59829711914062 85.26826477050781 132.3303985595703" stroke-width="2.0" fill="none" stroke="rgb(0, 0, 0)" stroke-opacity="1" stroke-linecap="round" stroke-linejoin="round"/>
    <path d="M 81.99153900146484 211.82508850097656 C 95.03621673583984 175.8521270751953 95.14649200439453 196.1507568359375 79.91752624511719 190.98870849609375" stroke-width="2.0" fill="none" stroke="rgb(0, 0, 0)" stroke-opacity="1" stroke-linecap="round" stroke-linejoin="round"/>
    <path d="M 43.425994873046875 166.3762664794922 C 72.5438003540039 146.11221313476562 63.39818572998047 159.6040496826172 40.55415725708008 163.78439331054688 C 24.55558204650879 148.73179626464844 47.96403503417969 148.40328979492188 87.02970123291016 110.92107391357422" stroke-width="2.0" fill="none" stroke="rgb(0, 0, 0)" stroke-opacity="1" stroke-linecap="round" stroke-linejoin="round"/>
    <path d="M 37.58659362792969 207.41094970703125 C 12.30128002166748 197.8101806640625 6.243535041809082 201.94168090820312 -0.060898300260305405 227.76083374023438" stroke-width="2.0" fill="none" stroke="rgb(0, 0, 0)" stroke-opacity="1" stroke-linecap="round" stroke-linejoin="round"/>
    <path d="M 146.52732849121094 147.53871154785156 C 123.44972229003906 147.4859161376953 133.73968505859375 145.1100616455078 153.1669158935547 133.2130126953125 C 121.4429931640625 147.62973022460938 138.3902130126953 160.3036651611328 150.29025268554688 141.08157348632812" stroke-width="2.0" fill="none" stroke="rgb(0, 0, 0)" stroke-opacity="1" stroke-linecap="round" stroke-linejoin="round"/>
    <path d="M 32.847198486328125 43.37712478637695 C 54.61262893676758 76.82267761230469 66.88566589355469 106.55647277832031 62.32478332519531 90.1485366821289" stroke-width="2.0" fill="none" stroke="rgb(0, 0, 0)" stroke-opacity="1" stroke-linecap="round" stroke-linejoin="round"/>
    <path d="M 40.52588653564453 221.5472869873047 C 56.805137634277344 201.59231567382812 60.62113952636719 202.78213500976562 42.645851135253906 198.8834686279297 C 41.42777633666992 185.04751586914062 40.887657165527344 200.03219604492188 26.431591033935547 226.29205322265625" stroke-width="2.0" fill="none" stroke="rgb(0, 0, 0)" stroke-opacity="1" stroke-linecap="round" stroke-linejoin="round"/>
    <path d="M 172.43609619140625 21.26091194152832 C 204.50148010253906 8.431093215942383 207.28436279296875 12.370999336242676 187.2053680419922 -4.410732269287109 C 162.30267333984375 -6.933770656585693 211.6287078857422 8.771240234375 192.94412231445312 7.900273323059082 C 203.60716247558594 -15.662096977233887 206.23611450195312 -1.1437220573425293 148.64596557617188 7.1424102783203125" stroke-width="2.0" fill="none" stroke="rgb(0, 0, 0)" stroke-opacity="1" stroke-linecap="round" stroke-linejoin="round"/>
    <path d="M 165.0602569580078 76.35671997070312 C 147.66949462890625 95.45137023925781 139.57861328125 97.65342712402344 156.13882446289062 59.77109146118164" stroke-width="2.0" fill="none" stroke="rgb(0, 0, 0)" stroke-opacity="1" stroke-linecap="round" stroke-linejoin="round"/>
    <path d="M 154.8846435546875 132.70130920410156 C 153.36911010742188 126.83326721191406 180.1197052001953 134.74180603027344 166.0223388671875 145.35671997070312" stroke-width="2.0" fill="none" stroke="rgb(0, 0, 0)" stroke-opacity="1" stroke-linecap="round" stroke-linejoin="round"/>
    <path d="M 7.29988956451416 18.392995834350586 C 4.8876953125 2.4108760356903076 -27.72601890563965 -3.82812762260437 0.9975644946098328 45.520050048828125 C 1.8625093698501587 15.419607162475586 -8.030357360839844 -15.070633888244629 5.994677543640137 -32.923316955566406 C 3.533632755279541 -7.83359432220459 10.173778533935547 1.6309744119644165 18.39815330505371 17.533763885498047" stroke-width="2.0" fill="none" stroke="rgb(0, 0, 0)" stroke-opacity="1" stroke-linecap="round" stroke-linejoin="round"/>
    <path d="M 141.1724853515625 63.62549591064453 C 170.5823974609375 46.96934127807617 163.36105346679688 39.2293701171875 166.02330017089844 61.84877014160156 C 179.65008544921875 75.33583068847656 177.20262145996094 67.68313598632812 162.57351684570312 56.03891372680664 C 130.864501953125 55.24702835083008 151.26834106445312 45.016483306884766 165.97080993652344 65.88750457763672" stroke-width="2.0" fill="none" stroke="rgb(0, 0, 0)" stroke-opacity="1" stroke-linecap="round" stroke-linejoin="round"/>
    <path d="M 165.95571899414062 154.8187255859375 C 180.0103759765625 198.16067504882812 164.95944213867188 173.57537841796875 151.57516479492188 139.12417602539062 C 138.12841796875 129.91537475585938 121.62800598144531 156.63076782226562 138.68516540527344 144.0660858154297" stroke-width="2.0" fill="none" stroke="rgb(0, 0, 0)" stroke-opacity="1" stroke-linecap="round" stroke-linejoin="round"/>
    <path d="M 73.8504867553711 197.79005432128906 C 55.45371627807617 229.44149780273438 45.41829299926758 238.1863250732422 60.65861129760742 214.26629638671875 C 91.6388168334961 227.79600524902344 97.46985626220703 214.40200805664062 90.47635650634766 220.41184997558594 C 86.55902099609375 234.2790985107422 95.31498718261719 218.25650024414062 109.98731231689453 191.9370880126953" stroke-width="2.0" fill="none" stroke="rgb(0, 0, 0)" stroke-opacity="1" stroke-linecap="round" stroke-linejoin="round"/>
    <path d="M 162.42547607421875 26.314489364624023 C 171.95602416992188 35.24272155761719 178.31553649902344 73.43286895751953 155.2665557861328 52.05205154418945 C 145.27984619140625 21.61807632446289 167.25042724609375 28.25577735900879 188.70384216308594 12.748875617980957 C 163.99220275878906 -10.2655029296875 157.85919189453125 -11.582820892333984 181.29617309570312 19.02901268005371" stroke-width="2.0" fill="none" stroke="rgb(0, 0, 0)" stroke-opacity="1" stroke-linecap="round" stroke-linejoin="round"/>
    <path d="M 47.69280242919922 184.31190490722656 C 73.4396743774414 147.08230590820312 93.04007720947266 165.1452178955078 72.2112808227539 184.62619018554688 C 72.66425323486328 205.57496643066406 63.48283767700195 196.01507568359375 51.61549377441406 191.96420288085938 C 89.62981414794922 200.13079833984375 93.3317642211914 199.73526000976562 83.23612213134766 202.41207885742188" stroke-width="2.0" fill="none" stroke="rgb(0, 0, 0)" stroke-opacity="1" stroke-linecap="round" stroke-linejoin="round"/>
    <path d="M 160.36219787597656 56.64850997924805 C 130.55868530273438 45.45856857299805 115.12303161621094 26.755495071411133 112.64436340332031 25.872739791870117" stroke-width="2.0" fill="none" stroke="rgb(0, 0, 0)" stroke-opacity="1" stroke-linecap="round" stroke-linejoin="round"/>
    <path d="M 13.81588077545166 102.95830535888672 C 47.89684295654297 78.29399108886719 41.03440475463867 102.05670166015625 50.29303741455078 85.76203918457031" stroke-width="2.0" fill="none" stroke="rgb(0, 0, 0)" stroke-opacity="1" stroke-linecap="round" stroke-linejoin="round"/>
    <path d="M 13.341200828552246 156.2159423828125 C 11.376799583435059 165.7397918701172 0.6345195174217224 141.4375 0.5104647874832153 118.5471420288086" stroke-width="2.0" fill="none" stroke="rgb(0, 0, 0)" stroke-opacity="1" stroke-linecap="round" stroke-linejoin="round"/>
    <path d="M 197.40089416503906 64.73992156982422 C 195.63766479492188 80.36530303955078 208.4680633544922 55.03749465942383 198.17352294921875 67.56238555908203" stroke-width="2.0" fill="none" stroke="rgb(0, 0, 0)" stroke-opacity="1" stroke-linecap="round" stroke-linejoin="round"/>
    <path d="M 232.2698974609375 199.45716857910156 C 244.45391845703125 160.6597900390625 236.2361602783203 161.63519287109375 210.4390411376953 182.35511779785156 C 227.58531188964844 206.7840118408203 225.4813232421875 202.12277221679688 239.44740295410156 180.0718231201172" stroke-width="2.0" fill="none" stroke="rgb(0, 0, 0)" stroke-opacity="1" stroke-linecap="round" stroke-linejoin="round"/>
    <path d="M 172.1842041015625 64.2844009399414 C 177.51466369628906 78.66242218017578 203.93319702148438 80.63424682617188 169.12791442871094 98.03202819824219 C 187.59600830078125 79.26516723632812 171.43270874023438 87.4844741821289 160.76626586914062 104.6727523803711 C 154.49319458007812 90.045654296875 148.7142333984375 103.26533508300781 173.88015747070312 78.50333404541016" stroke-width="2.0" fill="none" stroke="rgb(0, 0, 0)" stroke-opacity="1" stroke-linecap="round" stroke-linejoin="round"/>
    <path d="M 137.75743103027344 147.95700073242188 C 140.90150451660156 158.990234375 151.88360595703125 158.74160766601562 154.00381469726562 150.62969970703125 C 134.09767150878906 166.2499237060547 145.7126007080078 146.97752380371094 168.7384796142578 141.5579071044922" stroke-width="2.0" fill="none" stroke="rgb(0, 0, 0)" stroke-opacity="1" stroke-linecap="round" stroke-linejoin="round"/>
    <path d="M 186.2338104248047 133.99493408203125 C 212.6157684326172 159.00833129882812 200.38294982910156 166.46226501464844 182.3643798828125 129.1864471435547 C 208.94671630859375 119.4573745727539 189.4959716796875 111.21240997314453 215.72158813476562 148.16220092773438" stroke-width="2.0" fill="none" stroke="rgb(0, 0, 0)" stroke-opacity="1" stroke-linecap="round" stroke-linejoin="round"/>
    <path d="M 231.6168975830078 187.38034057617188 C 235.58090209960938 183.32106018066406 229.1846466064453 167.8059539794922 229.50759887695312 184.38946533203125" stroke-width="2.0" fill="none" stroke="rgb(0, 0, 0)" stroke-opacity="1" stroke-linecap="round" stroke-linejoin="round"/>
    <path d="M 100.7501449584961 134.33387756347656 C 82.9273681640625 99.78424835205078 76.9555892944336 132.4945068359375 100.4994125366211 101.75236511230469 C 82.1691665649414 88.53441619873047 100.95288848876953 90.81021118164062 75.95814514160156 56.96891784667969 C 67.8748779296875 56.077430725097656 77.9430923461914 61.21043014526367 87.02230072021484 82.18154907226562" stroke-width="2.0" fill="none" stroke="rgb(0, 0, 0)" stroke-opacity="1" stroke-linecap="round" stroke-linejoin="round"/>
    <path d="M 53.91482162475586 203.25765991210938 C 83.81019592285156 212.31344604492188 70.42977905273438 216.40145874023438 82.88956451416016 202.04452514648438 C 75.25462341308594 218.17276000976562 84.27656555175781 206.70001220703125 68.00172424316406 206.57777404785156 C 60.722354888916016 222.05308532714844 50.35951614379883 230.1079559326172 45.7784538269043 237.94837951660156" stroke-width="2.0" fill="none" stroke="rgb(0, 0, 0)" stroke-opacity="1" stroke-linecap="round" stroke-linejoin="round"/>
    <path d="M -1.3772571086883545 37.50300216674805 C 17.99802589416504 32.96953201293945 0.4519585967063904 41.427093505859375 -12.864227294921875 45.02519607543945 C 8.105890274047852 39.261192321777344 3.7700212001800537 49.777503967285156 -16.532115936279297 43.12990951538086 C 22.242765426635742 61.3013916015625 18.82501792907715 44.67657470703125 -4.285238265991211 21.34966278076172" stroke-width="2.0" fill="none" stroke="rgb(0, 0, 0)" stroke-opacity="1" stroke-linecap="round" stroke-linejoin="round"/>
    <path d="M 164.35585021972656 78.71440124511719 C 166.99940490722656 78.26363372802734 139.8705596923828 96.9852294921875 129.04966735839844 108.84520721435547" stroke-width="2.0" fill="none" stroke="rgb(0, 0, 0)" stroke-opacity="1" stroke-linecap="round" stroke-linejoin="round"/>
    <path d="M 212.63937377929688 101.66840362548828 C 225.1317901611328 105.2722396850586 210.09071350097656 87.75431823730469 212.8816680908203 106.95271301269531 C 229.4326629638672 119.78828430175781 226.04214477539062 79.27188873291016 231.79273986816406 61.31354904174805 C 246.17849731445312 80.1306381225586 237.9208526611328 69.05628967285156 240.216552734375 73.21754455566406" stroke-width="2.0" fill="none" stroke="rgb(0, 0, 0)" stroke-opacity="1" stroke-linecap="round" stroke-linejoin="round"/>
    <path d="M 111.66460418701172 193.38812255859375 C 138.03811645507812 136.61508178710938 127.01525115966797 154.77813720703125 116.29635620117188 187.18309020996094 C 123.1238021850586 179.49276733398438 99.96839904785156 185.56781005859375 107.4309310913086 199.0538787841797" stroke-width="2.0" fill="none" stroke="rgb(0, 0, 0)" stroke-opacity="1" stroke-linecap="round" stroke-linejoin="round"/>
    <path d="M 37.975833892822266 96.63531494140625 C 21.31928062438965 68.30668640136719 19.887784957885742 68.4668960571289 18.615753173828125 79.59063720703125 C 25.819881439208984 71.62809753417969 41.84070587158203 51.088802337646484 58.772769927978516 51.45891189575195" stroke-width="2.0" fill="none" stroke="rgb(0, 0, 0)" stroke-opacity="1" stroke-linecap="round" stroke-linejoin="round"/>
    <path d="M 213.86270141601562 202.69285583496094 C 229.79135131835938 181.0092010498047 230.89817810058594 178.31312561035156 216.54417419433594 187.25514221191406" stroke-width="2.0" fill="none" stroke="rgb(0, 0, 0)" stroke-opacity="1" stroke-linecap="round" stroke-linejoin="round"/>
    <path d="M 171.3106231689453 97.81350708007812 C 183.30271911621094 116.6385726928711 177.68740844726562 111.71339416503906 203.62158203125 91.92240142822266" stroke-width="2.0" fill="none" stroke="rgb(0, 0, 0)" stroke-opacity="1" stroke-linecap="round" stroke-linejoin="round"/>
    <path d="M 98.29002380371094 92.25898742675781 C 121.08394622802734 93.04279327392578 93.3458480834961 86.94144439697266 105.43040466308594 87.1172103881836 C 84.26539611816406 90.48778533935547 96.39768981933594 77.36116027832031 105.7282943725586 93.37037658691406" stroke-width="2.0" fill="none" stroke="rgb(0, 0, 0)" stroke-opacity="1" stroke-linecap="round" stroke-linejoin="round"/>
    <path d="M 163.86929321289062 183.90142822265625 C 153.65968322753906 167.8727264404297 152.17738342285156 185.61131286621094 158.98294067382812 178.36117553710938" stroke-width="2.0" fill="none" stroke="rgb(0, 0, 0)" stroke-opacity="1" stroke-linecap="round" stroke-linejoin="round"/>
    <path d="M 153.7285919189453 148.860107421875 C 159.94760131835938 180.2861328125 182.2585906982422 185.2569122314453 188.07159423828125 191.19302368164062 C 149.76039123535156 191.95899963378906 168.52008056640625 194.80746459960938 180.27685546875 189.13563537597656 C 173.48928833007812 158.33668518066406 178.30662536621094 184.84503173828125 163.84735107421875 171.97401428222656" stroke-width="2.0" fill="none" stroke="rgb(0, 0, 0)" stroke-opacity="1" stroke-linecap="round" stroke-linejoin="round"/>
    <path d="M 78.62348937988281 143.58193969726562 C 57.467376708984375 114.05841827392578 53.68484878540039 119.31714630126953 53.15578079223633 107.50296020507812" stroke-width="2.0" fill="none" stroke="rgb(0, 0, 0)" stroke-opacity="1" stroke-linecap="round" stroke-linejoin="round"/>
    <path d="M 136.13702392578125 159.73976135253906 C 115.4119873046875 140.99462890625 81.0234375 153.55296325683594 87.03694915771484 128.94207763671875 C 98.29878997802734 128.96115112304688 109.93423461914062 142.01895141601562 119.35997009277344 150.6320037841797 C 89.37308502197266 124.96528625488281 69.83444213867188 126.95708465576172 98.9306411743164 144.48507690429688" stroke-width="2.0" fill="none" stroke="rgb(0, 0, 0)" stroke-opacity="1" stroke-linecap="round" stroke-linejoin="round"/>
    <path d="M 128.07943725585938 117.31673431396484 C 155.66973876953125 146.5491943359375 148.10752868652344 144.609375 154.03335571289062 135.31866455078125 C 129.28173828125 108.47083282470703 118.21344757080078 89.74808502197266 109.4447021484375 116.41712188720703 C 142.95620727539062 102.22624969482422 129.1493377685547 93.5067367553711 128.82247924804688 119.81407928466797" stroke-width="2.0" fill="none" stroke="rgb(0, 0, 0)" stroke-opacity="1" stroke-linecap="round" stroke-linejoin="round"/>
    <path d="M 144.62985229492188 45.75355911254883 C 150.12857055664062 56.62786865234375 134.1727294921875 58.74113845825195 158.2437744140625 72.6072998046875 C 167.72547912597656 73.55596160888672 154.81698608398438 81.55774688720703 143.0082550048828 92.47919464111328 C 174.8639373779297 67.16048431396484 169.8554229736328 69.75566864013672 141.49749755859375 84.07203674316406" stroke-width="2.0" fill="none" stroke="rgb(0, 0, 0)" stroke-opacity="1" stroke-linecap="round" stroke-linejoin="round"/>
    <path d="M -3.481015682220459 155.49609375 C 19.82126808166504 129.4542236328125 26.979354858398438 129.99588012695312 1.5411853790283203 147.42811584472656 C -4.569614887237549 126.21937561035156 -11.94626235961914 124.40994262695312 -9.197338104248047 118.11674499511719" stroke-width="2.0" fill="none" stroke="rgb(0, 0, 0)" stroke-opacity="1" stroke-linecap="round" stroke-linejoin="round"/>
    <path d="M 69.32782745361328 24.917713165283203 C 74.9461669921875 26.58272361755371 89.10903930664062 12.21064567565918 105.62581634521484 -7.842483043670654" stroke-width="2.0" fill="none" stroke="rgb(0, 0, 0)" stroke-opacity="1" stroke-linecap="round" stroke-linejoin="round"/>
    <path d="M 196.20066833496094 122.37188720703125 C 189.47994995117188 130.48985290527344 169.05563354492188 119.67771911621094 192.8519744873047 149.1350860595703" stroke-width="2.0" fill="none" stroke="rgb(0, 0, 0)" stroke-opacity="1" stroke-linecap="round" stroke-linejoin="round"/>
    <path d="M 62.516571044921875 162.5205078125 C 50.019432067871094 146.58355712890625 60.719669342041016 174.61033630371094 52.520572662353516 170.2132568359375 C 76.92198944091797 159.39425659179688 42.40116500854492 157.19631958007812 30.518117904663086 150.04283142089844 C 37.63886260986328 153.48252868652344 18.059812545776367 148.66078186035156 64.20125579833984 172.8629608154297" stroke-width="2.0" fill="none" stroke="rgb(0, 0, 0)" stroke-opacity="1" stroke-linecap="round" stroke-linejoin="round"/>
    <path d="M 93.8255844116211 86.88046264648438 C 87.67256927490234 102.55345153808594 89.20309448242188 78.66484069824219 102.33757781982422 85.6261978149414" stroke-width="2.0" fill="none" stroke="rgb(0, 0, 0)" stroke-opacity="1" stroke-linecap="round" stroke-linejoin="round"/>
    <path d="M 151.0111846923828 176.6509552001953 C 180.86569213867188 158.89144897460938 188.9801025390625 196.33328247070312 148.38807678222656 179.75900268554688 C 157.4564971923828 190.8600616455078 138.0987548828125 165.10980224609375 174.61993408203125 174.7393035888672" stroke-width="2.0" fill="none" stroke="rgb(0, 0, 0)" stroke-opacity="1" stroke-linecap="round" stroke-linejoin="round"/>
    <path d="M 155.91200256347656 46.81315994262695 C 135.90341186523438 39.811012268066406 134.78065490722656 12.252110481262207 165.79217529296875 32.57746124267578 C 138.60250854492188 47.764835357666016 141.4842529296875 66.17863464355469 144.4326934814453 54.22685241699219" stroke-width="2.0" fill="none" stroke="rgb(0, 0, 0)" stroke-opacity="1" stroke-linecap="round" stroke-linejoin="round"/>
    <path d="M 190.25030517578125 180.2704315185547 C 201.00929260253906 189.87452697753906 197.21109008789062 233.378173828125 219.63169860839844 213.72991943359375 C 208.99179077148438 190.532958984375 206.5396270751953 217.60845947265625 197.5889434814453 198.3316192626953 C 179.7225341796875 205.69384765625 186.38308715820312 186.3991241455078 172.0677490234375 170.7104034423828" stroke-width="2.0" fill="none" stroke="rgb(0, 0, 0)" stroke-opacity="1" stroke-linecap="round" stroke-linejoin="round"/>
    <path d="M -2.647221565246582 73.71577453613281 C 22.902088165283203 61.897064208984375 -8.016833305358887 26.398773193359375 -5.129505634307861 40.60493469238281 C 9.152669906616211 44.94475173950195 3.593339443206787 60.23198318481445 4.646114349365234 50.24870300292969" stroke-width="2.0" fill="none" stroke="rgb(0, 0, 0)" stroke-opacity="1" stroke-linecap="round" stroke-linejoin="round"/>
    <path d="M 232.3351593017578 164.65296936035156 C 217.933837890625 158.46347045898438 229.6770782470703 156.46560668945312 204.51437377929688 170.42994689941406 C 207.8318328857422 177.1859130859375 223.8104705810547 199.72718811035156 221.86276245117188 215.0601348876953 C 245.22503662109375 187.6291961669922 232.43167114257812 168.95936584472656 239.4093780517578 140.80165100097656" stroke-width="2.0" fill="none" stroke="rgb(0, 0, 0)" stroke-opacity="1" stroke-linecap="round" stroke-linejoin="round"/>
    <path d="M 164.62835693359375 98.34136962890625 C 128.3555145263672 123.95201873779297 111.41639709472656 92.75277709960938 155.25299072265625 140.32167053222656" stroke-width="2.0" fill="none" stroke="rgb(0, 0, 0)" stroke-opacity="1" stroke-linecap="round" stroke-linejoin="round"/>
    <path d="M 15.499455451965332 12.251558303833008 C 35.896400451660156 48.160606384277344 22.727813720703125 46.95116424560547 36.46888732910156 31.774089813232422" stroke-width="2.0" fill="none" stroke="rgb(0, 0, 0)" stroke-opacity="1" stroke-linecap="round" stroke-linejoin="round"/>
    <path d="M 199.69078063964844 30.545574188232422 C 213.5284881591797 54.26760482788086 203.79185485839844 50.60712432861328 207.31382751464844 43.27328872680664 C 205.34886169433594 127.15690612792969 205.88795471191406 139.1524658203125 200.00413513183594 67.31481170654297" stroke-width="2.0" fill="none" stroke="rgb(0, 0, 0)" stroke-opacity="1" stroke-linecap="round" stroke-linejoin="round"/>
    <path d="M 71.62576293945312 224.08192443847656 C 48.32420349121094 225.5078582763672 57.934967041015625 223.31100463867188 71.82405090332031 194.00645446777344 C 66.30331420898438 221.78158569335938 64.30457305908203 213.0267333984375 50.10947799682617 210.56271362304688" stroke-width="2.0" fill="none" stroke="rgb(0, 0, 0)" stroke-opacity="1" stroke-linecap="round" stroke-linejoin="round"/>
    <path d="M 131.71726989746094 109.12840270996094 C 172.0660400390625 136.49449157714844 165.6454315185547 159.96531677246094 130.38540649414062 117.41240692138672 C 119.60240173339844 111.1084976196289 126.9723892211914 119.46656036376953 156.05767822265625 150.7575225830078" stroke-width="2.0" fill="none" stroke="rgb(0, 0, 0)" stroke-opacity="1" stroke-linecap="round" stroke-linejoin="round"/>
    <path d="M 67.57476806640625 102.83949279785156 C 122.75042724609375 78.9568862915039 92.22877502441406 80.07524108886719 36.94211959838867 111.3485336303711 C 71.96871948242188 103.58313751220703 55.45636749267578 128.12208557128906 49.921875 108.07178497314453 C 52.5419807434082 105.83030700683594 70.90885925292969 99.2105484008789 96.56999969482422 86.24349212646484" stroke-width="2.0" fill="none" stroke="rgb(0, 0, 0)" stroke-opacity="1" stroke-linecap="round" stroke-linejoin="round"/>
    <path d="M 108.85757446289062 90.1468276977539 C 82.74124145507812 122.71505737304688 75.90447235107422 125.60633850097656 93.2231216430664 124.18624114990234 C 81.93425750732422 125.1935043334961 57.57650375366211 109.58476257324219 57.19489669799805 105.02547454833984 C 80.10327911376953 127.45661163330078 111.98593139648438 138.826416015625 67.08246612548828 104.93033599853516" stroke-width="2.0" fill="none" stroke="rgb(0, 0, 0)" stroke-opacity="1" stroke-linecap="round" stroke-linejoin="round"/>
    <path d="M 46.88214111328125 214.26548767089844 C 43.41150665283203 220.9698486328125 28.547964096069336 228.9945526123047 24.277578353881836 238.6934051513672 C 22.405099868774414 236.87374877929688 28.257949829101562 225.96450805664062 24.43087387084961 227.2972412109375" stroke-width="2.0" fill="none" stroke="rgb(0, 0, 0)" stroke-opacity="1" stroke-linecap="round" stroke-linejoin="round"/>
    <path d="M -6.572170257568359 202.0863037109375 C 8.935263633728027 184.1876220703125 17.780685424804688 185.00631713867188 11.667276382446289 174.73446655273438 C 8.734600067138672 181.27548217773438 28.8485164642334 163.9207763671875 9.129169464111328 157.82850646972656" stroke-width="2.0" fill="none" stroke="rgb(0, 0, 0)" stroke-opacity="1" stroke-linecap="round" stroke-linejoin="round"/>
    <path d="M 119.86785888671875 92.29120635986328 C 121.52438354492188 99.6795425415039 137.8683624267578 80.63133239746094 105.90179443359375 84.38793182373047 C 130.9158935546875 70.47064971923828 127.45252227783203 97.71891784667969 134.43661499023438 90.7857437133789 C 121.15216827392578 120.0760726928711 128.8221893310547 101.62313842773438 147.8135223388672 87.9538345336914" stroke-width="2.0" fill="none" stroke="rgb(0, 0, 0)" stroke-opacity="1" stroke-linecap="round" stroke-linejoin="round"/>
    <path d="M 115.62673950195312 210.09649658203125 C 105.58599090576172 225.37222290039062 107.88578796386719 221.11962890625 74.0367660522461 199.42005920410156 C 111.27323150634766 209.2269287109375 97.14095306396484 194.77459716796875 89.83124542236328 228.0883026123047 C 86.3133773803711 227.02285766601562 94.76058959960938 238.93853759765625 89.25830078125 240.57534790039062" stroke-width="2.0" fill="none" stroke="rgb(0, 0, 0)" stroke-opacity="1" stroke-linecap="round" stroke-linejoin="round"/>
    <path d="M 67.90690612792969 104.57662963867188 C 102.58880615234375 84.33309173583984 99.31368255615234 78.51367950439453 116.15770721435547 98.97148132324219" stroke-width="2.0" fill="none" stroke="rgb(0, 0, 0)" stroke-opacity="1" stroke-linecap="round" stroke-linejoin="round"/>
    <path d="M 126.9674072265625 218.8247833251953 C 151.66273498535156 181.58514404296875 161.67283630371094 183.9299774169922 135.7251434326172 171.7430877685547 C 121.71794128417969 201.730712890625 129.7779998779297 187.1049346923828 137.75772094726562 160.72450256347656" stroke-width="2.0" fill="none" stroke="rgb(0, 0, 0)" stroke-opacity="1" stroke-linecap="round" stroke-linejoin="round"/>
    <path d="M 46.81380081176758 69.38915252685547 C 72.0311050415039 62.69556427001953 53.97995376586914 51.60268783569336 78.58536529541016 87.7423095703125 C 65.44083404541016 74.43540954589844 59.36614227294922 91.26139831542969 91.81932830810547 113.13814544677734" stroke-width="2.0" fill="none" stroke="rgb(0, 0, 0)" stroke-opacity="1" stroke-linecap="round" stroke-linejoin="round"/>
    <path d="M 83.39459991455078 202.97474670410156 C 82.59554290771484 199.39219665527344 96.55210876464844 199.07421875 117.71563720703125 211.35830688476562 C 92.46372985839844 204.62936401367188 98.66118621826172 211.12939453125 106.57288360595703 187.79629516601562" stroke-width="2.0" fill="none" stroke="rgb(0, 0, 0)" stroke-opacity="1" stroke-linecap="round" stroke-linejoin="round"/>
    <path d="M 62.14903259277344 21.62589454650879 C 31.088186264038086 -14.524481773376465 57.00678634643555 15.308791160583496 36.78523635864258 -7.403586387634277 C 15.663631439208984 -9.441044807434082 15.73632526397705 -14.938365936279297 26.16288948059082 -11.971697807312012 C 24.091760635375977 -24.149452209472656 24.266098022460938 -18.733293533325195 33.25257873535156 -14.674184799194336" stroke-width="2.0" fill="none" stroke="rgb(0, 0, 0)" stroke-opacity="1" stroke-linecap="round" stroke-linejoin="round"/>
    <path d="M 72.67471313476562 181.39459228515625 C 48.774513244628906 213.4128875732422 32.72090530395508 233.1934814453125 19.832033157348633 241.2339630126953 C 31.34848403930664 228.20289611816406 42.248443603515625 221.21115112304688 50.53958511352539 207.78843688964844" stroke-width="2.0" fill="none" stroke="rgb(0, 0, 0)" stroke-opacity="1" stroke-linecap="round" stroke-linejoin="round"/>
    <path d="M 127.3416519165039 10.05475902557373 C 168.93682861328125 -3.8933680057525635 176.13743591308594 7.385725498199463 162.7624053955078 48.98237609863281 C 153.3002471923828 -15.626829147338867 150.05484008789062 -42.87164306640625 145.06298828125 20.69188117980957 C 150.4545135498047 -21.567556381225586 162.510986328125 9.241329193115234 124.31211853027344 5.650212287902832" stroke-width="2.0" fill="none" stroke="rgb(0, 0, 0)" stroke-opacity="1" stroke-linecap="round" stroke-linejoin="round"/>
    <path d="M 176.9315643310547 160.86134338378906 C 169.7758331298828 143.88087463378906 159.90403747558594 142.74624633789062 171.088134765625 164.52804565429688 C 165.05299377441406 148.10243225097656 160.0941925048828 128.5479736328125 166.7296600341797 143.51959228515625" stroke-width="2.0" fill="none" stroke="rgb(0, 0, 0)" stroke-opacity="1" stroke-linecap="round" stroke-linejoin="round"/>
    <path d="M 156.7732391357422 46.84368896484375 C 109.85309600830078 27.817468643188477 112.01091766357422 30.083524703979492 135.38201904296875 30.89521598815918 C 124.33882904052734 33.129817962646484 129.26763916015625 44.47488021850586 133.91925048828125 20.99917984008789 C 133.89913940429688 48.022544860839844 110.27137756347656 22.53563690185547 140.05564880371094 44.471763610839844" stroke-width="2.0" fill="none" stroke="rgb(0, 0, 0)" stroke-opacity="1" stroke-linecap="round" stroke-linejoin="round"/>
    <path d="M 175.25868225097656 171.080322265625 C 168.88014221191406 167.2427978515625 164.41847229003906 161.9346923828125 208.74717712402344 151.52383422851562 C 182.21018981933594 162.9208526611328 157.90806579589844 176.74578857421875 176.89564514160156 160.73204040527344 C 200.08541870117188 191.80941772460938 208.9857177734375 215.62501525878906 178.28070068359375 167.20306396484375" stroke-width="2.0" fill="none" stroke="rgb(0, 0, 0)" stroke-opacity="1" stroke-linecap="round" stroke-linejoin="round"/>
    <path d="M 179.904541015625 39.55648422241211 C 206.90090942382812 25.861902236938477 196.92022705078125 32.88096618652344 151.52206420898438 49.4376220703125" stroke-width="2.0" fill="none" stroke="rgb(0, 0, 0)" stroke-opacity="1" stroke-linecap="round" stroke-linejoin="round"/>
    <path d="M 3.615168333053589 43.60104751586914 C -1.1383060216903687 62.42265701293945 25.970020294189453 42.00685501098633 25.747121810913086 33.88048553466797 C 25.086217880249023 25.27811050415039 32.81245040893555 54.431663513183594 49.07045364379883 74.30821990966797" stroke-width="2.0" fill="none" stroke="rgb(0, 0, 0)" stroke-opacity="1" stroke-linecap="round" stroke-linejoin="round"/>
    <path d="M 64.8020248413086 -3.1071219444274902 C 108.52958679199219 -4.088100910186768 101.1734848022461 -11.222140312194824 74.0192642211914 11.235989570617676 C 81.43287658691406 28.98303985595703 61.80472183227539 14.109593391418457 68.42566680908203 26.284839630126953" stroke-width="2.0" fill="none" stroke="rgb(0, 0, 0)" stroke-opacity="1" stroke-linecap="round" stroke-linejoin="round"/>
    <path d="M 29.08936309814453 183.15419006347656 C 17.421722412109375 223.83668518066406 -2.932986259460449 227.5762481689453 44.339324951171875 191.970947265625" stroke-width="2.0" fill="none" stroke="rgb(0, 0, 0)" stroke-opacity="1" stroke-linecap="round" stroke-linejoin="round"/>
    <path d="M 122.53813934326172 122.02424621582031 C 116.34487915039062 110.09716796875 90.28423309326172 106.79177856445312 103.7073745727539 90.5851058959961 C 140.46458435058594 107.56636047363281 115.84269714355469 100.79156494140625 93.19894409179688 130.09974670410156" stroke-width="2.0" fill="none" stroke="rgb(0, 0, 0)" stroke-opacity="1" stroke-linecap="round" stroke-linejoin="round"/>
    <path d="M 114.51746368408203 112.73532104492188 C 96.26785278320312 127.15701293945312 82.6360855102539 129.3063507080078 97.693359375 128.7436981201172 C 110.17933654785156 111.09217071533203 105.50904083251953 123.0038833618164 92.99835968017578 128.56961059570312 C 95.4990463256836 136.09201049804688 75.01345825195312 134.24484252929688 105.88919067382812 150.95533752441406" stroke-width="2.0" fill="none" stroke="rgb(0, 0, 0)" stroke-opacity="1" stroke-linecap="round" stroke-linejoin="round"/>
    <path d="M 51.09050369262695 136.7288055419922 C 36.259437561035156 146.38165283203125 58.22373962402344 131.56785583496094 78.91676330566406 116.22261047363281" stroke-width="2.0" fill="none" stroke="rgb(0, 0, 0)" stroke-opacity="1" stroke-linecap="round" stroke-linejoin="round"/>
    <path d="M 136.95968627929688 152.46495056152344 C 188.2179412841797 134.64752197265625 161.93028259277344 152.86769104003906 136.83203125 152.0630340576172 C 172.5943603515625 137.77268981933594 176.2932891845703 140.52195739746094 152.2525177001953 131.3019256591797 C 185.26089477539062 168.4921112060547 171.98793029785156 168.30809020996094 167.07691955566406 157.0928955078125" stroke-width="2.0" fill="none" stroke="rgb(0, 0, 0)" stroke-opacity="1" stroke-linecap="round" stroke-linejoin="round"/>
    <path d="M 118.26287078857422 209.66632080078125 C 101.17788696289062 230.12863159179688 102.52271270751953 230.37106323242188 80.9299087524414 233.24652099609375 C 101.13035583496094 231.2012939453125 103.94994354248047 228.3856658935547 111.08556365966797 234.85020446777344" stroke-width="2.0" fill="none" stroke="rgb(0, 0, 0)" stroke-opacity="1" stroke-linecap="round" stroke-linejoin="round"/>
    <path d="M 5.2255635261535645 50.11371994018555 C -17.51203155517578 63.415008544921875 -25.845294952392578 81.33924102783203 -4.892456531524658 97.72940826416016 C 17.085126876831055 72.8665771484375 -0.6253865361213684 79.4577407836914 -7.654548168182373 101.35919952392578 C -1.8790438175201416 124.5815658569336 -3.8404035568237305 102.67808532714844 17.904373168945312 97.43315124511719" stroke-width="2.0" fill="none" stroke="rgb(0, 0, 0)" stroke-opacity="1" stroke-linecap="round" stroke-linejoin="round"/>
    <path d="M 142.8642120361328 194.60916137695312 C 108.65907287597656 182.28326416015625 85.83426666259766 175.8572540283203 103.91232299804688 186.0191192626953" stroke-width="2.0" fill="none" stroke="rgb(0, 0, 0)" stroke-opacity="1" stroke-linecap="round" stroke-linejoin="round"/>
    <path d="M 161.7847137451172 65.66541290283203 C 183.5437774658203 57.062408447265625 176.32479858398438 94.41231536865234 184.0043487548828 81.5826644897461 C 174.5085906982422 72.0041732788086 183.31491088867188 67.70853424072266 169.08644104003906 94.7265625 C 170.87049865722656 69.93436431884766 200.6096649169922 78.45394134521484 205.55430603027344 68.10083770751953" stroke-width="2.0" fill="none" stroke="rgb(0, 0, 0)" stroke-opacity="1" stroke-linecap="round" stroke-linejoin="round"/>
    <path d="M 60.85446548461914 174.5773468017578 C 95.32744598388672 186.494140625 57.89579772949219 186.48902893066406 69.1107177734375 192.9002685546875 C 66.88970184326172 208.92446899414062 74.69060516357422 196.16233825683594 85.5051040649414 168.1600799560547" stroke-width="2.0" fill="none" stroke="rgb(0, 0, 0)" stroke-opacity="1" stroke-linecap="round" stroke-linejoin="round"/>
    <path d="M 96.40447235107422 132.74075317382812 C 94.9356918334961 136.4280548095703 118.26544189453125 127.35636138916016 91.33621978759766 110.1361312866211 C 68.93428039550781 116.06977081298828 93.47172546386719 125.95620727539062 94.44563293457031 124.2352523803711 C 117.17018127441406 102.96320343017578 116.00325775146484 130.40773010253906 90.02175903320312 103.74298858642578" stroke-width="2.0" fill="none" stroke="rgb(0, 0, 0)" stroke-opacity="1" stroke-linecap="round" stroke-linejoin="round"/>
    <path d="M 31.57769775390625 124.57462310791016 C 45.434112548828125 126.8026123046875 10.529643058776855 139.84158325195312 25.644968032836914 147.22251892089844 C 7.116334438323975 129.21287536621094 11.388833999633789 113.48043060302734 -5.415398597717285 140.23348999023438 C 4.300477981567383 130.23826599121094 16.03887939453125 119.92855072021484 24.129104614257812 116.17845153808594" stroke-width="2.0" fill="none" stroke="rgb(0, 0, 0)" stroke-opacity="1" stroke-linecap="round" stroke-linejoin="round"/>
    <path d="M 126.42391967773438 34.87101745605469 C 151.48587036132812 36.9578857421875 156.2300262451172 23.85129737854004 165.1405792236328 30.728145599365234 C 142.43077087402344 41.706275939941406 125.0607681274414 35.1222038269043 152.2113800048828 59.5152473449707" stroke-width="2.0" fill="none" stroke="rgb(0, 0, 0)" stroke-opacity="1" stroke-linecap="round" stroke-linejoin="round"/>
    <path d="M 50.684078216552734 55.75290298461914 C 73.0558090209961 49.31403732299805 43.64421463012695 45.68254089355469 62.96208953857422 51.17106628417969" stroke-width="2.0" fill="none" stroke="rgb(0, 0, 0)" stroke-opacity="1" stroke-linecap="round" stroke-linejoin="round"/>
    <path d="M 12.835901260375977 135.2266082763672 C 40.63240432739258 146.7451629638672 3.5732665061950684 154.3636016845703 19.053144454956055 167.8651123046875" stroke-width="2.0" fill="none" stroke="rgb(0, 0, 0)" stroke-opacity="1" stroke-linecap="round" stroke-linejoin="round"/>
    <path d="M 51.9952392578125 53.71665954589844 C 56.47150421142578 67.43478393554688 48.39640808105469 53.415184020996094 31.801862716674805 30.857234954833984" stroke-width="2.0" fill="none" stroke="rgb(0, 0, 0)" stroke-opacity="1" stroke-linecap="round" stroke-linejoin="round"/>
    <path d="M 186.2935333251953 30.005599975585938 C 168.36830139160156 -8.682071685791016 144.58099365234375 -29.664539337158203 133.17478942871094 14.614903450012207" stroke-width="2.0" fill="none" stroke="rgb(0, 0, 0)" stroke-opacity="1" stroke-linecap="round" stroke-linejoin="round"/>
    <path d="M 7.813785552978516 87.48443603515625 C -12.868021965026855 96.21646881103516 -5.163171291351318 77.20500183105469 -5.860415935516357 58.64680099487305 C 18.81812286376953 42.64350128173828 -0.2704955041408539 60.3063850402832 17.902786254882812 66.08442687988281 C -0.8898301124572754 53.71583938598633 5.227217197418213 80.8447265625 20.3707332611084 77.5514144897461" stroke-width="2.0" fill="none" stroke="rgb(0, 0, 0)" stroke-opacity="1" stroke-linecap="round" stroke-linejoin="round"/>
    <path d="M 165.41217041015625 99.65980529785156 C 147.37216186523438 96.24041748046875 149.0807647705078 81.35084533691406 149.12509155273438 90.4561996459961" stroke-width="2.0" fill="none" stroke="rgb(0, 0, 0)" stroke-opacity="1" stroke-linecap="round" stroke-linejoin="round"/>
    <path d="M 76.55750274658203 15.28989315032959 C 69.1509780883789 9.023958206176758 62.05891799926758 -0.4287762939929962 47.315345764160156 -6.392586708068848" stroke-width="2.0" fill="none" stroke="rgb(0, 0, 0)" stroke-opacity="1" stroke-linecap="round" stroke-linejoin="round"/>
    <path d="M 159.5830078125 197.86407470703125 C 153.6649169921875 210.91650390625 151.716796875 214.85060119628906 184.78073120117188 183.9033203125 C 155.69677734375 191.3277587890625 167.80445861816406 183.08547973632812 152.2812042236328 208.4848175048828 C 178.01559448242188 184.064697265625 168.31263732910156 179.20999145507812 138.30691528320312 222.43519592285156" stroke-width="2.0" fill="none" stroke="rgb(0, 0, 0)" stroke-opacity="1" stroke-linecap="round" stroke-linejoin="round"/>
    <path d="M 133.37762451171875 171.85687255859375 C 125.88150787353516 192.26217651367188 132.06057739257812 183.7025604248047 122.3735580444336 201.9579620361328" stroke-width="2.0" fill="none" stroke="rgb(0, 0, 0)" stroke-opacity="1" stroke-linecap="round" stroke-linejoin="round"/>
    <path d="M 162.91966247558594 93.35514068603516 C 192.34718322753906 79.99788665771484 183.70106506347656 68.83668518066406 157.89230346679688 95.78466796875 C 168.4600372314453 101.91629791259766 154.82241821289062 106.10282897949219 141.31216430664062 117.11963653564453 C 144.41915893554688 121.39651489257812 153.6305389404297 110.8271255493164 178.5828857421875 91.405517578125" stroke-width="2.0" fill="none" stroke="rgb(0, 0, 0)" stroke-opacity="1" stroke-linecap="round" stroke-linejoin="round"/>
    <path d="M 199.34751892089844 150.005126953125 C 193.41941833496094 160.51083374023438 199.3165740966797 171.6668701171875 205.78030395507812 171.25657653808594 C 202.58865356445312 144.77835083007812 179.6909942626953 156.6887969970703 188.6389617919922 151.45420837402344 C 220.4376220703125 176.34417724609375 193.35142517089844 162.91200256347656 202.9915771484375 171.50405883789062" stroke-width="2.0" fill="none" stroke="rgb(0, 0, 0)" stroke-opacity="1" stroke-linecap="round" stroke-linejoin="round"/>
    <path d="M 214.20828247070312 144.36898803710938 C 173.9597625732422 161.3370819091797 161.17031860351562 158.7808074951172 215.22088623046875 141.83145141601562" stroke-width="2.0" fill="none" stroke="rgb(0, 0, 0)" stroke-opacity="1" stroke-linecap="round" stroke-linejoin="round"/>
    <path d="M 16.223974227905273 88.95963287353516 C 10.69986343383789 81.00089263916016 22.44416046142578 99.29846954345703 28.42671012878418 102.708251953125 C 58.427764892578125 83.38555908203125 58.472042083740234 87.6222915649414 51.13488006591797 80.9233169555664 C 34.80406951904297 101.09320068359375 61.24473190307617 106.33936309814453 46.02782440185547 92.243896484375" stroke-width="2.0" fill="none" stroke="rgb(0, 0, 0)" stroke-opacity="1" stroke-linecap="round" stroke-linejoin="round"/>
    <path d="M 177.91171264648438 27.123809814453125 C 161.0086669921875 31.526355743408203 156.86026000976562 24.91509246826172 102.57217407226562 17.59379005432129 C 148.31211853027344 11.065927505493164 182.01332092285156 18.97238540649414 190.57406616210938 18.476877212524414 C 169.4795684814453 29.699556350708008 167.77737426757812 20.992324829101562 160.43341064453125 28.109697341918945" stroke-width="2.0" fill="none" stroke="rgb(0, 0, 0)" stroke-opacity="1" stroke-linecap="round" stroke-linejoin="round"/>
    <path d="M 165.00204467773438 99.58792114257812 C 164.08433532714844 84.9869384765625 184.7512664794922 72.8410415649414 168.21617126464844 69.51005554199219" stroke-width="2.0" fill="none" stroke="rgb(0, 0, 0)" stroke-opacity="1" stroke-linecap="round" stroke-linejoin="round"/>
    <path d="M 98.74109649658203 99.90299224853516 C 77.9402847290039 73.6929702758789 77.36408996582031 117.18292999267578 108.0340576171875 97.66236877441406 C 113.56766510009766 109.05133056640625 118.47923278808594 86.55083465576172 98.88079833984375 103.92910766601562" stroke-width="2.0" fill="none" stroke="rgb(0, 0, 0)" stroke-opacity="1" stroke-linecap="round" stroke-linejoin="round"/>
    <path d="M 151.48516845703125 34.518917083740234 C 192.75889587402344 2.3708693981170654 206.5694580078125 32.272239685058594 177.83497619628906 31.090028762817383 C 175.9687042236328 15.141406059265137 188.07720947265625 26.536846160888672 160.76976013183594 27.126752853393555" stroke-width="2.0" fill="none" stroke="rgb(0, 0, 0)" stroke-opacity="1" stroke-linecap="round" stroke-linejoin="round"/>
    <path d="M 67.39903259277344 34.06538772583008 C 82.60677337646484 51.090087890625 43.58341979980469 42.64353942871094 49.1721305847168 63.597145080566406" stroke-width="2.0" fill="none" stroke="rgb(0, 0, 0)" stroke-opacity="1" stroke-linecap="round" stroke-linejoin="round"/>
    <path d="M -6.6558027267456055 147.76425170898438 C -5.082212924957275 127.51142120361328 2.801265001296997 115.08476257324219 10.563308715820312 128.09103393554688 C -8.024666786193848 112.936279296875 0.30557695031166077 102.54605102539062 4.757843494415283 103.05138397216797 C -15.726174354553223 102.34503936767578 -6.163104057312012 114.10399627685547 -3.617915153503418 125.68573760986328" stroke-width="2.0" fill="none" stroke="rgb(0, 0, 0)" stroke-opacity="1" stroke-linecap="round" stroke-linejoin="round"/>
    <path d="M 57.52882766723633 149.89808654785156 C 88.79045867919922 115.20177459716797 105.76781463623047 96.51629638671875 76.33452606201172 129.85098266601562 C 77.46774291992188 128.10238647460938 70.2059555053711 137.80947875976562 84.64099884033203 117.78414916992188" stroke-width="2.0" fill="none" stroke="rgb(0, 0, 0)" stroke-opacity="1" stroke-linecap="round" stroke-linejoin="round"/>
    <path d="M 7.974391937255859 6.6763787269592285 C -14.986590385437012 23.31841278076172 -20.67730140686035 22.679468154907227 -31.892343521118164 33.934547424316406 C -7.580438137054443 17.297151565551758 -17.045482635498047 27.597766876220703 -22.36850357055664 21.802223205566406" stroke-width="2.0" fill="none" stroke="rgb(0, 0, 0)" stroke-opacity="1" stroke-linecap="round" stroke-linejoin="round"/>
    <path d="M -5.4507598876953125 149.66253662109375 C -21.000497817993164 141.78128051757812 -6.334517478942871 135.35073852539062 1.856345534324646 171.27337646484375" stroke-width="2.0" fill="none" stroke="rgb(0, 0, 0)" stroke-opacity="1" stroke-linecap="round" stroke-linejoin="round"/>
    <path d="M 143.93630981445312 117.68058013916016 C 165.91270446777344 98.4631576538086 158.0398712158203 115.40815734863281 137.6380615234375 91.21761322021484 C 133.59927368164062 100.29281616210938 148.29525756835938 89.23186492919922 158.5493927001953 76.86762237548828" stroke-width="2.0" fill="none" stroke="rgb(0, 0, 0)" stroke-opacity="1" stroke-linecap="round" stroke-linejoin="round"/>
    <path d="M 167.7921905517578 -3.907123565673828 C 176.6741180419922 -5.582849025726318 156.6428680419922 11.998039245605469 158.75209045410156 -3.3909380435943604" stroke-width="2.0" fill="none" stroke="rgb(0, 0, 0)" stroke-opacity="1" stroke-linecap="round" stroke-linejoin="round"/>
    <path d="M 19.59934425354004 9.790844917297363 C 41.002986907958984 5.85266637802124 38.13724136352539 11.712398529052734 17.244915008544922 -16.28143882751465 C 14.001439094543457 -11.138116836547852 27.69872283935547 14.553876876831055 35.018165588378906 31.28025245666504 C 34.52297592163086 32.590023040771484 1.4828766584396362 36.00636672973633 0.9739602208137512 43.43611145019531" stroke-width="2.0" fill="none" stroke="rgb(0, 0, 0)" stroke-opacity="1" stroke-linecap="round" stroke-linejoin="round"/>
    <path d="M 36.313560485839844 121.0514907836914 C 50.40052032470703 139.42236328125 47.41625213623047 124.94428253173828 42.75526809692383 135.72244262695312" stroke-width="2.0" fill="none" stroke="rgb(0, 0, 0)" stroke-opacity="1" stroke-linecap="round" stroke-linejoin="round"/>
    <path d="M 206.33753967285156 89.51111602783203 C 187.1994171142578 90.08842468261719 214.56956481933594 90.66905975341797 195.37847900390625 85.30197143554688 C 201.94078063964844 93.64395904541016 175.78916931152344 80.04942321777344 210.9747314453125 115.32413482666016 C 191.78192138671875 127.28105926513672 207.36282348632812 104.4410400390625 205.4468994140625 96.60543060302734" stroke-width="2.0" fill="none" stroke="rgb(0, 0, 0)" stroke-opacity="1" stroke-linecap="round" stroke-linejoin="round"/>
    <path d="M 98.7419662475586 47.79519271850586 C 120.67017364501953 38.19367599487305 133.58299255371094 23.188093185424805 98.13532257080078 14.834222793579102" stroke-width="2.0" fill="none" stroke="rgb(0, 0, 0)" stroke-opacity="1" stroke-linecap="round" stroke-linejoin="round"/>
    <path d="M 123.33720397949219 195.537353515625 C 97.62008666992188 193.43470764160156 102.83528900146484 186.09213256835938 121.81238555908203 196.48440551757812 C 115.91831970214844 210.51129150390625 108.8516616821289 219.58181762695312 123.33316040039062 202.95355224609375 C 104.96195983886719 207.51361083984375 139.15122985839844 222.00863647460938 132.59324645996094 204.06405639648438" stroke-width="2.0" fill="none" stroke="rgb(0, 0, 0)" stroke-opacity="1" stroke-linecap="round" stroke-linejoin="round"/>
    <path d="M 131.0900115966797 163.83665466308594 C 129.7037353515625 167.30841064453125 152.8278350830078 159.29498291015625 110.30575561523438 141.4416046142578 C 89.977783203125 149.18128967285156 140.17080688476562 153.7887420654297 136.3917236328125 169.76153564453125 C 117.4834213256836 136.54949951171875 125.46314239501953 153.3950653076172 107.78013610839844 188.01730346679688" stroke-width="2.0" fill="none" stroke="rgb(0, 0, 0)" stroke-opacity="1" stroke-linecap="round" stroke-linejoin="round"/>
    <path d="M 34.324066162109375 5.403464317321777 C 47.4755744934082 36.79774856567383 31.1916446685791 32.89827346801758 73.2449951171875 13.937586784362793 C 65.484375 14.326927185058594 69.9503402709961 14.940752983093262 26.117294311523438 32.500083923339844" stroke-width="2.0" fill="none" stroke="rgb(0, 0, 0)" stroke-opacity="1" stroke-linecap="round" stroke-linejoin="round"/>
    <path d="M 58.22854995727539 22.79625701904297 C 81.08089447021484 47.540340423583984 89.96183013916016 47.10208511352539 55.280155181884766 63.37408447265625 C 60.48434066772461 63.54708480834961 64.48161315917969 67.7567138671875 47.48867416381836 60.69413375854492 C 90.77957153320312 50.332298278808594 78.55078887939453 30.542198181152344 48.97525405883789 51.265052795410156" stroke-width="2.0" fill="none" stroke="rgb(0, 0, 0)" stroke-opacity="1" stroke-linecap="round" stroke-linejoin="round"/>
    <path d="M 113.034423828125 118.00314331054688 C 123.47592163085938 91.03140258789062 139.895751953125 89.61906433105469 140.0347900390625 101.82352447509766 C 141.83570861816406 85.36058044433594 148.38156127929688 90.54664611816406 124.70356750488281 66.52308654785156 C 114.28978729248047 67.63615417480469 117.1195068359375 81.08714294433594 138.64649963378906 55.140472412109375" stroke-width="2.0" fill="none" stroke="rgb(0, 0, 0)" stroke-opacity="1" stroke-linecap="round" stroke-linejoin="round"/>
    <path d="M 108.80073547363281 85.70604705810547 C 102.97100830078125 63.1668701171875 138.68466186523438 86.7681884765625 100.65031433105469 50.67922592163086" stroke-width="2.0" fill="none" stroke="rgb(0, 0, 0)" stroke-opacity="1" stroke-linecap="round" stroke-linejoin="round"/>
    <path d="M 156.88308715820312 42.300262451171875 C 149.8070526123047 62.56598663330078 150.0045623779297 70.30152130126953 206.05145263671875 44.07941436767578" stroke-width="2.0" fill="none" stroke="rgb(0, 0, 0)" stroke-opacity="1" stroke-linecap="round" stroke-linejoin="round"/>
    <path d="M 178.07321166992188 105.11710357666016 C 162.6315155029297 83.3205795288086 176.6522979736328 97.20320129394531 207.03042602539062 140.20004272460938" stroke-width="2.0" fill="none" stroke="rgb(0, 0, 0)" stroke-opacity="1" stroke-linecap="round" stroke-linejoin="round"/>
    <path d="M 88.05188751220703 168.76853942871094 C 52.18052673339844 152.8504180908203 66.15496826171875 172.99929809570312 50.21363067626953 159.4775390625 C 63.742286682128906 171.73077392578125 72.3682861328125 159.81849670410156 79.07077026367188 141.6789093017578 C 46.14109420776367 164.46328735351562 67.2548599243164 180.43524169921875 72.15106964111328 168.82203674316406" stroke-width="2.0" fill="none" stroke="rgb(0, 0, 0)" stroke-opacity="1" stroke-linecap="round" stroke-linejoin="round"/>
    <path d="M 88.53361511230469 174.4687042236328 C 88.44136810302734 185.6868133544922 105.06256866455078 177.5536651611328 86.8996810913086 172.21835327148438 C 77.20259094238281 173.2071075439453 86.0958251953125 188.08270263671875 78.66761016845703 175.85049438476562 C 74.30693817138672 178.93638610839844 70.91372680664062 182.13619995117188 101.01869201660156 191.90443420410156" stroke-width="2.0" fill="none" stroke="rgb(0, 0, 0)" stroke-opacity="1" stroke-linecap="round" stroke-linejoin="round"/>
    <path d="M 85.89591217041016 199.7472686767578 C 73.42369079589844 195.8025360107422 55.73477554321289 193.0760498046875 31.205074310302734 182.59063720703125" stroke-width="2.0" fill="none" stroke="rgb(0, 0, 0)" stroke-opacity="1" stroke-linecap="round" stroke-linejoin="round"/>
    <path d="M 159.58514404296875 34.846561431884766 C 164.41236877441406 15.243538856506348 151.12672424316406 43.31957244873047 131.20089721679688 37.905967712402344 C 128.97467041015625 42.658775329589844 152.5897979736328 45.691001892089844 157.1648406982422 61.49341583251953" stroke-width="2.0" fill="none" stroke="rgb(0, 0, 0)" stroke-opacity="1" stroke-linecap="round" stroke-linejoin="round"/>
    <path d="M 169.89398193359375 164.6822967529297 C 205.2754669189453 146.7740020751953 211.84234619140625 166.34124755859375 189.07437133789062 129.89385986328125 C 163.71649169921875 123.07488250732422 180.62109375 141.45021057128906 179.6201629638672 128.0318603515625" stroke-width="2.0" fill="none" stroke="rgb(0, 0, 0)" stroke-opacity="1" stroke-linecap="round" stroke-linejoin="round"/>
    <path d="M 183.95513916015625 47.77111053466797 C 170.4382781982422 31.507715225219727 152.73257446289062 -6.190253734588623 183.30516052246094 15.605928421020508 C 149.4315948486328 40.851985931396484 144.76071166992188 32.7607536315918 182.67984008789062 25.59586524963379" stroke-width="2.0" fill="none" stroke="rgb(0, 0, 0)" stroke-opacity="1" stroke-linecap="round" stroke-linejoin="round"/>
    <path d="M 163.02989196777344 91.17790222167969 C 172.23580932617188 131.3690643310547 200.85037231445312 141.05262756347656 179.0857391357422 130.4484100341797 C 185.66287231445312 114.62039947509766 196.63858032226562 133.47561645507812 179.9481964111328 108.8304443359375" stroke-width="2.0" fill="none" stroke="rgb(0, 0, 0)" stroke-opacity="1" stroke-linecap="round" stroke-linejoin="round"/>
    <path d="M 114.54521942138672 191.82908630371094 C 119.8600845336914 195.10557556152344 131.17373657226562 153.88479614257812 132.14402770996094 158.3040008544922" stroke-width="2.0" fill="none" stroke="rgb(0, 0, 0)" stroke-opacity="1" stroke-linecap="round" stroke-linejoin="round"/>
    <path d="M 115.83160400390625 78.61190032958984 C 143.22439575195312 51.05454635620117 130.5313262939453 67.70881652832031 134.05052185058594 67.72412109375 C 147.3919219970703 58.90639877319336 144.7609100341797 54.47056198120117 136.7290496826172 63.16798782348633 C 144.4408416748047 54.546443939208984 153.34548950195312 61.579429626464844 168.8895263671875 73.18196105957031" stroke-width="2.0" fill="none" stroke="rgb(0, 0, 0)" stroke-opacity="1" stroke-linecap="round" stroke-linejoin="round"/>
    <path d="M 115.88156127929688 209.38685607910156 C 122.50909423828125 198.05369567871094 124.1060562133789 207.3139190673828 102.62507629394531 199.02325439453125 C 95.48465728759766 215.16021728515625 101.96563720703125 200.65599060058594 115.00504302978516 183.29209899902344 C 99.44649505615234 198.28451538085938 108.66673278808594 191.6063995361328 77.59881591796875 175.35182189941406" stroke-width="2.0" fill="none" stroke="rgb(0, 0, 0)" stroke-opacity="1" stroke-linecap="round" stroke-linejoin="round"/>
    <path d="M 225.78440856933594 189.173828125 C 199.34906005859375 155.02786254882812 214.0713653564453 175.99916076660156 224.53614807128906 150.7934112548828" stroke-width="2.0" fill="none" stroke="rgb(0, 0, 0)" stroke-opacity="1" stroke-linecap="round" stroke-linejoin="round"/>
    <path d="M 55.19697189331055 108.2057113647461 C 77.19465637207031 88.1519546508789 101.67617797851562 87.23143005371094 88.23639678955078 73.04415130615234 C 81.68367004394531 83.16300201416016 72.64720916748047 76.91409301757812 75.14152526855469 82.150146484375 C 84.88096618652344 69.9781265258789 88.31014251708984 82.95655822753906 76.48794555664062 79.75711822509766" stroke-width="2.0" fill="none" stroke="rgb(0, 0, 0)" stroke-opacity="1" stroke-linecap="round" stroke-linejoin="round"/>
    <path d="M 103.02283477783203 143.5316925048828 C 101.92036437988281 150.75584411621094 84.43287658691406 189.9666290283203 86.537353515625 181.6817626953125" stroke-width="2.0" fill="none" stroke="rgb(0, 0, 0)" stroke-opacity="1" stroke-linecap="round" stroke-linejoin="round"/>
    <path d="M 228.8584747314453 182.9031524658203 C 214.07467651367188 161.93544006347656 214.6796417236328 168.0247344970703 225.58160400390625 160.4547119140625" stroke-width="2.0" fill="none" stroke="rgb(0, 0, 0)" stroke-opacity="1" stroke-linecap="round" stroke-linejoin="round"/>
    <path d="M 71.1948471069336 151.3303680419922 C 52.44193649291992 130.0265350341797 51.955352783203125 140.0486602783203 41.65093994140625 130.36724853515625 C 44.99632263183594 147.8813018798828 43.42992401123047 128.30072021484375 13.99036979675293 95.93045043945312" stroke-width="2.0" fill="none" stroke="rgb(0, 0, 0)" stroke-opacity="1" stroke-linecap="round" stroke-linejoin="round"/>
    <path d="M 28.31631851196289 186.44558715820312 C 46.066898345947266 198.3163299560547 45.388370513916016 189.62083435058594 31.460067749023438 184.9565887451172 C 21.084379196166992 214.97119140625 14.26900863647461 208.54458618164062 58.241546630859375 221.7018280029297" stroke-width="2.0" fill="none" stroke="rgb(0, 0, 0)" stroke-opacity="1" stroke-linecap="round" stroke-linejoin="round"/>
    <path d="M 33.10148620605469 203.77296447753906 C 48.437828063964844 224.37864685058594 24.440372467041016 189.6240692138672 13.249232292175293 184.69483947753906 C 4.000625133514404 190.69192504882812 6.872215270996094 199.2212371826172 48.752017974853516 209.25526428222656" stroke-width="2.0" fill="none" stroke="rgb(0, 0, 0)" stroke-opacity="1" stroke-linecap="round" stroke-linejoin="round"/>
    <path d="M 217.21942138671875 147.23562622070312 C 214.84031677246094 131.47012329101562 191.0247344970703 122.27356719970703 179.3531494140625 110.77863311767578 C 197.66299438476562 120.34332275390625 189.0508575439453 133.18646240234375 180.2937774658203 109.76470947265625 C 168.702880859375 120.63017272949219 140.36338806152344 125.02325439453125 160.60264587402344 123.1680908203125" stroke-width="2.0" fill="none" stroke="rgb(0, 0, 0)" stroke-opacity="1" stroke-linecap="round" stroke-linejoin="round"/>
    <path d="M 131.64002990722656 110.15122985839844 C 123.71243286132812 105.4432144165039 136.6365203857422 83.85664367675781 156.8759307861328 66.10098266601562 C 168.80787658691406 87.58515930175781 173.4586181640625 76.17212677001953 170.37583923339844 66.21348571777344 C 152.84188842773438 71.31488037109375 139.2900848388672 78.28549194335938 134.6116485595703 96.46327209472656" stroke-width="2.0" fill="none" stroke="rgb(0, 0, 0)" stroke-opacity="1" stroke-linecap="round" stroke-linejoin="round"/>
    <path d="M 129.91091918945312 -4.871209144592285 C 113.74323272705078 19.547042846679688 105.03593444824219 19.518218994140625 179.5968475341797 3.3484601974487305" stroke-width="2.0" fill="none" stroke="rgb(0, 0, 0)" stroke-opacity="1" stroke-linecap="round" stroke-linejoin="round"/>
    <path d="M 47.138153076171875 139.11627197265625 C 75.36782836914062 165.07086181640625 74.30400848388672 162.3827362060547 68.0905990600586 169.4252166748047" stroke-width="2.0" fill="none" stroke="rgb(0, 0, 0)" stroke-opacity="1" stroke-linecap="round" stroke-linejoin="round"/>
    <path d="M 70.38639068603516 186.10289001464844 C 84.73564147949219 165.2007293701172 69.59858703613281 162.48956298828125 107.18223571777344 181.7562255859375" stroke-width="2.0" fill="none" stroke="rgb(0, 0, 0)" stroke-opacity="1" stroke-linecap="round" stroke-linejoin="round"/>
    <path d="M 175.2344970703125 36.921844482421875 C 204.3267364501953 30.29329490661621 215.73355102539062 28.604799270629883 210.25137329101562 15.640603065490723 C 205.2199249267578 3.9435718059539795 183.4311981201172 -6.091455459594727 190.4354248046875 -1.5442861318588257" stroke-width="2.0" fill="none" stroke="rgb(0, 0, 0)" stroke-opacity="1" stroke-linecap="round" stroke-linejoin="round"/>
    <path d="M 49.72484588623047 132.2709197998047 C 19.681245803833008 98.84065246582031 24.506881713867188 104.02631378173828 -3.114196538925171 72.18370056152344 C 23.79963493347168 49.504764556884766 19.43824005126953 80.71271514892578 26.443105697631836 77.60673522949219" stroke-width="2.0" fill="none" stroke="rgb(0, 0, 0)" stroke-opacity="1" stroke-linecap="round" stroke-linejoin="round"/>
    <path d="M 121.67326354980469 197.68399047851562 C 143.39761352539062 188.927490234375 116.7252197265625 182.83766174316406 108.4124984741211 180.3986358642578 C 100.62664031982422 172.14707946777344 94.33432006835938 177.9271697998047 66.13003540039062 162.2779998779297" stroke-width="2.0" fill="none" stroke="rgb(0, 0, 0)" stroke-opacity="1" stroke-linecap="round" stroke-linejoin="round"/>
    <path d="M 91.3079605102539 11.606602668762207 C 118.98104095458984 26.54486656188965 110.32440948486328 29.703229904174805 112.55286407470703 19.847244262695312" stroke-width="2.0" fill="none" stroke="rgb(0, 0, 0)" stroke-opacity="1" stroke-linecap="round" stroke-linejoin="round"/>
    <path d="M 145.9714813232422 41.02965545654297 C 176.11317443847656 23.633455276489258 179.56871032714844 46.437198638916016 144.44554138183594 57.56782531738281" stroke-width="2.0" fill="none" stroke="rgb(0, 0, 0)" stroke-opacity="1" stroke-linecap="round" stroke-linejoin="round"/>
    <path d="M 97.56005859375 49.79362869262695 C 84.81298065185547 38.87046432495117 87.56059265136719 41.42572021484375 124.22006225585938 20.538358688354492 C 81.24372863769531 33.25564956665039 90.48269653320312 42.677574157714844 109.4283447265625 60.19021987915039 C 123.23417663574219 45.661685943603516 125.9884262084961 58.825313568115234 101.4759292602539 33.70832061767578" stroke-width="2.0" fill="none" stroke="rgb(0, 0, 0)" stroke-opacity="1" stroke-linecap="round" stroke-linejoin="round"/>
    <path d="M 159.81619262695312 212.42286682128906 C 164.0968780517578 235.05860900878906 170.59727478027344 232.99612426757812 156.4079132080078 225.227294921875 C 185.61062622070312 205.7098846435547 131.5545654296875 209.45748901367188 166.02117919921875 216.86119079589844" stroke-width="2.0" fill="none" stroke="rgb(0, 0, 0)" stroke-opacity="1" stroke-linecap="round" stroke-linejoin="round"/>
    <path d="M 49.03516387939453 161.51405334472656 C 85.06160736083984 181.7981414794922 94.5522232055664 189.29022216796875 106.2268295288086 192.44259643554688 C 87.99320983886719 184.32455444335938 108.11190032958984 191.1300048828125 97.44892883300781 190.58596801757812 C 116.7699966430664 194.97198486328125 84.75965881347656 179.83953857421875 57.2160758972168 169.3232421875" stroke-width="2.0" fill="none" stroke="rgb(0, 0, 0)" stroke-opacity="1" stroke-linecap="round" stroke-linejoin="round"/>
    <path d="M 38.38022994995117 181.84974670410156 C 60.63337707519531 145.2307891845703 43.129417419433594 166.1328582763672 41.27842330932617 151.12876892089844" stroke-width="2.0" fill="none" stroke="rgb(0, 0, 0)" stroke-opacity="1" stroke-linecap="round" stroke-linejoin="round"/>
    <path d="M 56.47882843017578 150.30870056152344 C 27.19354248046875 162.65084838867188 46.2439079284668 149.4041290283203 67.94786071777344 130.90895080566406" stroke-width="2.0" fill="none" stroke="rgb(0, 0, 0)" stroke-opacity="1" stroke-linecap="round" stroke-linejoin="round"/>
    <path d="M 123.67826080322266 184.94729614257812 C 140.47232055664062 141.4610137939453 133.5233917236328 161.50572204589844 129.51556396484375 166.0786895751953 C 149.4286346435547 141.316162109375 136.26084899902344 173.04966735839844 131.34149169921875 186.0461883544922" stroke-width="2.0" fill="none" stroke="rgb(0, 0, 0)" stroke-opacity="1" stroke-linecap="round" stroke-linejoin="round"/>
    <path d="M 129.76206970214844 93.5228500366211 C 158.80288696289062 74.80215454101562 158.4607391357422 66.65792083740234 148.27639770507812 78.57571411132812 C 164.3093719482422 66.53267669677734 163.8159637451172 83.54490661621094 151.06756591796875 71.67628479003906 C 163.97015380859375 71.2364730834961 173.67401123046875 78.90074920654297 144.43382263183594 60.42190170288086" stroke-width="2.0" fill="none" stroke="rgb(0, 0, 0)" stroke-opacity="1" stroke-linecap="round" stroke-linejoin="round"/>
    <path d="M 157.3970947265625 95.44291687011719 C 144.35418701171875 87.61956787109375 120.87252044677734 75.01808166503906 128.10888671875 70.92265319824219 C 128.80255126953125 68.45936584472656 141.72169494628906 70.61426544189453 104.6185531616211 83.2780532836914 C 120.62214660644531 60.78661346435547 151.8914794921875 64.99649047851562 131.45184326171875 61.734580993652344" stroke-width="2.0" fill="none" stroke="rgb(0, 0, 0)" stroke-opacity="1" stroke-linecap="round" stroke-linejoin="round"/>
    <path d="M 139.40411376953125 44.34195327758789 C 168.1085968017578 32.32237243652344 174.61538696289062 27.917728424072266 203.94174194335938 13.254401206970215 C 167.0539093017578 24.1965389251709 167.51678466796875 26.16204071044922 150.76881408691406 44.108768463134766 C 183.4216766357422 36.32500457763672 219.11419677734375 19.614049911499023 204.96421813964844 21.80289649963379" stroke-width="2.0" fill="none" stroke="rgb(0, 0, 0)" stroke-opacity="1" stroke-linecap="round" stroke-linejoin="round"/>
    <path d="M 48.93648910522461 226.7867889404297 C 21.748462677001953 220.22914123535156 -7.860800266265869 212.84292602539062 5.502011775970459 197.99526977539062 C 8.542881965637207 186.5499267578125 -20.47237777709961 225.92860412597656 27.705102920532227 224.24290466308594 C 34.77256774902344 222.23944091796875 3.183199882507324 209.7989501953125 -1.9707207679748535 171.57244873046875" stroke-width="2.0" fill="none" stroke="rgb(0, 0, 0)" stroke-opacity="1" stroke-linecap="round" stroke-linejoin="round"/>
    <path d="M 153.542724609375 131.12437438964844 C 121.32814025878906 93.46944427490234 122.02842712402344 88.59272766113281 113.99409484863281 121.88768768310547 C 121.67219543457031 113.30921936035156 131.23410034179688 95.37127685546875 108.9870376586914 96.79478454589844" stroke-width="2.0" fill="none" stroke="rgb(0, 0, 0)" stroke-opacity="1" stroke-linecap="round" stroke-linejoin="round"/>
    <path d="M 202.43850708007812 170.99697875976562 C 198.69503784179688 167.97213745117188 194.5977020263672 146.72341918945312 210.88027954101562 148.2767791748047 C 184.12205505371094 150.9341278076172 202.94635009765625 157.38507080078125 215.05718994140625 140.95703125" stroke-width="2.0" fill="none" stroke="rgb(0, 0, 0)" stroke-opacity="1" stroke-linecap="round" stroke-linejoin="round"/>
    <path d="M 90.9832992553711 176.1011505126953 C 103.53849029541016 171.10360717773438 99.30770111083984 182.85702514648438 75.14437103271484 178.4615020751953 C 95.41544342041016 178.12176513671875 88.561279296875 190.70188903808594 106.1893310546875 144.3628692626953" stroke-width="2.0" fill="none" stroke="rgb(0, 0, 0)" stroke-opacity="1" stroke-linecap="round" stroke-linejoin="round"/>
    <path d="M 49.50100326538086 58.519554138183594 C 70.2616958618164 47.23590850830078 60.76173782348633 58.562076568603516 46.208011627197266 27.21976089477539 C 32.732845306396484 28.469444274902344 13.989996910095215 46.44318771362305 -6.718989849090576 61.658145904541016 C 5.570341110229492 56.88362121582031 18.303871154785156 41.0427360534668 41.89583969116211 31.368221282958984" stroke-width="2.0" fill="none" stroke="rgb(0, 0, 0)" stroke-opacity="1" stroke-linecap="round" stroke-linejoin="round"/>
    <path d="M 67.64286041259766 170.2543182373047 C 39.965240478515625 153.028076171875 17.976268768310547 140.99057006835938 50.6177978515625 162.31747436523438 C 41.291481018066406 164.95492553710938 13.556806564331055 155.52273559570312 56.06209945678711 135.16786193847656" stroke-width="2.0" fill="none" stroke="rgb(0, 0, 0)" stroke-opacity="1" stroke-linecap="round" stroke-linejoin="round"/>
    <path d="M 120.05208587646484 -5.54318904876709 C 128.19171142578125 -26.44496726989746 139.09925842285156 7.725981712341309 129.21591186523438 -13.707512855529785 C 115.8138198852539 19.26294708251953 99.60639953613281 18.50347328186035 125.16358184814453 26.074237823486328" stroke-width="2.0" fill="none" stroke="rgb(0, 0, 0)" stroke-opacity="1" stroke-linecap="round" stroke-linejoin="round"/>
    <path d="M 90.10126495361328 108.07292938232422 C 120.49198150634766 133.476806640625 105.78150939941406 128.01280212402344 81.82518005371094 132.8177947998047 C 141.21463012695312 160.3926544189453 120.34325408935547 150.3168487548828 95.12078857421875 133.6949005126953 C 107.60639953613281 121.00106048583984 114.93142700195312 118.27056884765625 97.55674743652344 128.5249786376953" stroke-width="2.0" fill="none" stroke="rgb(0, 0, 0)" stroke-opacity="1" stroke-linecap="round" stroke-linejoin="round"/>
    <path d="M 129.38516235351562 110.16108703613281 C 148.5661163330078 87.8107681274414 153.39617919921875 75.73484802246094 135.46054077148438 64.57772827148438 C 142.56985473632812 57.72494888305664 159.63760375976562 38.166900634765625 131.76719665527344 71.8806381225586 C 129.19479370117188 64.32411193847656 145.85202026367188 47.843387603759766 124.57780456542969 66.02769470214844" stroke-width="2.0" fill="none" stroke="rgb(0, 0, 0)" stroke-opacity="1" stroke-linecap="round" stroke-linejoin="round"/>
    <path d="M 85.66813659667969 182.16831970214844 C 120.57028198242188 195.07879638671875 85.16840362548828 201.18553161621094 94.5938949584961 191.22128295898438" stroke-width="2.0" fill="none" stroke="rgb(0, 0, 0)" stroke-opacity="1" stroke-linecap="round" stroke-linejoin="round"/>
    <path d="M 137.1861572265625 209.34921264648438 C 109.03832244873047 250.7833709716797 88.1988754272461 230.05307006835938 82.97702026367188 242.38804626464844 C 91.45604705810547 206.36190795898438 93.54885864257812 216.70408630371094 104.56716918945312 218.12484741210938 C 91.91256713867188 212.91702270507812 88.80453491210938 217.57211303710938 82.73063659667969 235.9196014404297" stroke-width="2.0" fill="none" stroke="rgb(0, 0, 0)" stroke-opacity="1" stroke-linecap="round" stroke-linejoin="round"/>
    <path d="M 17.589834213256836 73.09805297851562 C 22.864896774291992 83.08353424072266 15.947026252746582 75.19172668457031 24.07992935180664 71.26988220214844 C 15.362393379211426 81.4486083984375 -3.719245195388794 86.80662536621094 -8.709124565124512 99.53435516357422 C -1.3738874197006226 67.65390014648438 -5.672072410583496 107.19430541992188 6.781820774078369 102.7482681274414" stroke-width="2.0" fill="none" stroke="rgb(0, 0, 0)" stroke-opacity="1" stroke-linecap="round" stroke-linejoin="round"/>
    <path d="M 228.49411010742188 34.7641487121582 C 235.65655517578125 33.04399108886719 237.91001892089844 43.78804397583008 234.51058959960938 39.15970993041992 C 234.90235900878906 32.86195755004883 241.34474182128906 33.464595794677734 229.04434204101562 37.3546142578125" stroke-width="2.0" fill="none" stroke="rgb(0, 0, 0)" stroke-opacity="1" stroke-linecap="round" stroke-linejoin="round"/>
    <path d="M 150.03221130371094 139.26217651367188 C 140.39407348632812 149.8823699951172 140.96890258789062 132.86611938476562 168.76858520507812 139.39987182617188 C 151.95298767089844 158.6666717529297 135.97731018066406 164.02613830566406 165.34133911132812 138.03990173339844" stroke-width="2.0" fill="none" stroke="rgb(0, 0, 0)" stroke-opacity="1" stroke-linecap="round" stroke-linejoin="round"/>
    <path d="M 148.0839385986328 77.60796356201172 C 133.1910400390625 83.75444030761719 127.21669006347656 94.79785919189453 103.17654418945312 115.99412536621094" stroke-width="2.0" fill="none" stroke="rgb(0, 0, 0)" stroke-opacity="1" stroke-linecap="round" stroke-linejoin="round"/>
    <path d="M 94.5336685180664 215.3407745361328 C 70.98365020751953 209.0221710205078 84.02784729003906 208.25845336914062 61.97236633300781 236.62144470214844 C 66.21866607666016 227.1185302734375 77.3628158569336 220.26956176757812 81.65840911865234 210.02438354492188 C 57.67502212524414 214.59619140625 67.0118637084961 204.84861755371094 78.91680908203125 174.80859375" stroke-width="2.0" fill="none" stroke="rgb(0, 0, 0)" stroke-opacity="1" stroke-linecap="round" stroke-linejoin="round"/>
    <path d="M 68.86277770996094 195.88034057617188 C 26.586816787719727 198.72486877441406 13.844185829162598 187.38546752929688 36.96879577636719 195.97837829589844 C 48.9279899597168 195.98779296875 52.789588928222656 187.24630737304688 37.65231704711914 187.84347534179688 C 67.83841705322266 199.9687042236328 60.57136535644531 185.87811279296875 46.68016052246094 214.353271484375" stroke-width="2.0" fill="none" stroke="rgb(0, 0, 0)" stroke-opacity="1" stroke-linecap="round" stroke-linejoin="round"/>
    <path d="M 94.1231918334961 22.852920532226562 C 101.6622543334961 15.004895210266113 108.21977996826172 31.925811767578125 81.54830169677734 19.38250160217285 C 90.56951904296875 0.5904310941696167 107.87691497802734 21.565898895263672 125.33662414550781 33.62546157836914 C 106.23514556884766 17.129838943481445 98.35292053222656 7.44558572769165 88.72139739990234 25.493324279785156" stroke-width="2.0" fill="none" stroke="rgb(0, 0, 0)" stroke-opacity="1" stroke-linecap="round" stroke-linejoin="round"/>
    <path d="M 80.88866424560547 85.99703979492188 C 45.49415588378906 38.82787322998047 41.99494552612305 56.234771728515625 65.09696197509766 93.1480712890625" stroke-width="2.0" fill="none" stroke="rgb(0, 0, 0)" stroke-opacity="1" stroke-linecap="round" stroke-linejoin="round"/>
    <path d="M 44.7755241394043 59.80649185180664 C 31.771617889404297 26.84843635559082 16.978639602661133 30.869709014892578 56.089290618896484 66.2767105102539 C 44.67167282104492 39.301456451416016 33.23782730102539 33.454219818115234 28.110435485839844 14.842535018920898" stroke-width="2.0" fill="none" stroke="rgb(0, 0, 0)" stroke-opacity="1" stroke-linecap="round" stroke-linejoin="round"/>
    <path d="M 71.46314239501953 2.530137300491333 C 110.14973449707031 15.6956787109375 88.03533935546875 22.94073486328125 111.2439956665039 -1.7308555841445923 C 96.3112564086914 -20.60567283630371 87.42871856689453 -20.860395431518555 95.52486419677734 -12.313255310058594" stroke-width="2.0" fill="none" stroke="rgb(0, 0, 0)" stroke-opacity="1" stroke-linecap="round" stroke-linejoin="round"/>
    <path d="M 121.98304748535156 68.0317611694336 C 126.90553283691406 68.23184204101562 87.85638427734375 48.09120178222656 100.8284912109375 48.05542755126953" stroke-width="2.0" fill="none" stroke="rgb(0, 0, 0)" stroke-opacity="1" stroke-linecap="round" stroke-linejoin="round"/>
    <path d="M 178.69485473632812 90.37285614013672 C 196.83038330078125 68.7318115234375 154.4263458251953 47.93039321899414 156.8198699951172 73.73048400878906" stroke-width="2.0" fill="none" stroke="rgb(0, 0, 0)" stroke-opacity="1" stroke-linecap="round" stroke-linejoin="round"/>
    <path d="M 128.26576232910156 56.39801788330078 C 115.78101348876953 49.03013610839844 113.67723846435547 43.240848541259766 101.59345245361328 35.9510612487793 C 84.53203582763672 43.39803695678711 112.35144805908203 34.738277435302734 87.09789276123047 33.09851837158203 C 99.63116455078125 36.02021789550781 67.33673095703125 32.68806457519531 95.72379302978516 21.862871170043945" stroke-width="2.0" fill="none" stroke="rgb(0, 0, 0)" stroke-opacity="1" stroke-linecap="round" stroke-linejoin="round"/>
    <path d="M 105.52427673339844 133.6490478515625 C 119.07904815673828 125.15655517578125 112.72440338134766 119.64862823486328 133.62420654296875 106.69963073730469 C 124.46318817138672 102.5036849975586 113.4634017944336 138.35305786132812 123.63249206542969 109.5688247680664 C 106.61902618408203 127.14016723632812 104.61177062988281 143.0227508544922 94.43515014648438 126.86927795410156" stroke-width="2.0" fill="none" stroke="rgb(0, 0, 0)" stroke-opacity="1" stroke-linecap="round" stroke-linejoin="round"/>
    <path d="M 192.96168518066406 176.1875762939453 C 229.2357177734375 160.19775390625 213.00242614746094 165.42904663085938 211.7490692138672 166.0381622314453 C 218.991455078125 174.6341552734375 203.0648193359375 134.87445068359375 194.21826171875 157.2447052001953 C 191.42344665527344 161.53268432617188 238.22268676757812 140.31605529785156 204.33779907226562 153.92425537109375" stroke-width="2.0" fill="none" stroke="rgb(0, 0, 0)" stroke-opacity="1" stroke-linecap="round" stroke-linejoin="round"/>
    <path d="M 27.12122344970703 189.03924560546875 C 35.61211395263672 192.91207885742188 22.29054832458496 200.72520446777344 46.56421661376953 164.43255615234375 C 29.331071853637695 159.1117401123047 20.993261337280273 153.8448028564453 51.548423767089844 145.70558166503906" stroke-width="2.0" fill="none" stroke="rgb(0, 0, 0)" stroke-opacity="1" stroke-linecap="round" stroke-linejoin="round"/>
    <path d="M 140.02273559570312 193.94459533691406 C 112.14285278320312 190.72549438476562 116.66346740722656 185.4573974609375 84.53052520751953 178.72579956054688 C 118.43357849121094 205.9862060546875 109.5555191040039 187.34666442871094 126.04798889160156 156.74588012695312" stroke-width="2.0" fill="none" stroke="rgb(0, 0, 0)" stroke-opacity="1" stroke-linecap="round" stroke-linejoin="round"/>
    <path d="M 121.78302001953125 63.100486755371094 C 100.31256866455078 46.642757415771484 88.2414321899414 37.95881652832031 100.67494201660156 45.134178161621094" stroke-width="2.0" fill="none" stroke="rgb(0, 0, 0)" stroke-opacity="1" stroke-linecap="round" stroke-linejoin="round"/>
    <path d="M 194.9231719970703 188.60740661621094 C 192.2505340576172 183.45022583007812 210.5609588623047 193.58860778808594 189.85914611816406 198.66758728027344 C 177.0727996826172 159.548583984375 164.74012756347656 166.52969360351562 172.41461181640625 158.1149139404297 C 170.65280151367188 160.26690673828125 166.7605743408203 165.39866638183594 164.512451171875 150.2445526123047" stroke-width="2.0" fill="none" stroke="rgb(0, 0, 0)" stroke-opacity="1" stroke-linecap="round" stroke-linejoin="round"/>
    <path d="M 7.996025562286377 186.81533813476562 C 12.92270565032959 165.21983337402344 -11.439165115356445 178.6495819091797 25.96097755432129 147.28759765625" stroke-width="2.0" fill="none" stroke="rgb(0, 0, 0)" stroke-opacity="1" stroke-linecap="round" stroke-linejoin="round"/>
    <path d="M 123.551513671875 200.6177215576172 C 139.05271911621094 218.35411071777344 153.92779541015625 160.5286102294922 158.08450317382812 182.39437866210938 C 131.80528259277344 213.102783203125 128.3988037109375 232.3671417236328 111.89375305175781 214.488525390625" stroke-width="2.0" fill="none" stroke="rgb(0, 0, 0)" stroke-opacity="1" stroke-linecap="round" stroke-linejoin="round"/>
    <path d="M 198.82485961914062 197.13900756835938 C 183.84591674804688 187.95826721191406 194.72091674804688 206.10719299316406 201.24583435058594 193.2621307373047" stroke-width="2.0" fill="none" stroke="rgb(0, 0, 0)" stroke-opacity="1" stroke-linecap="round" stroke-linejoin="round"/>
    <path d="M 218.27040100097656 218.61544799804688 C 234.15383911132812 200.21328735351562 242.0164031982422 213.56948852539062 207.33827209472656 232.4614715576172 C 188.43190002441406 240.80172729492188 188.30332946777344 239.47451782226562 193.06625366210938 226.11427307128906" stroke-width="2.0" fill="none" stroke="rgb(0, 0, 0)" stroke-opacity="1" stroke-linecap="round" stroke-linejoin="round"/>
    <path d="M 147.44247436523438 147.98770141601562 C 112.83662414550781 157.11227416992188 138.41065979003906 187.9666290283203 178.76535034179688 188.6691131591797 C 164.6973876953125 163.01318359375 160.09649658203125 134.88319396972656 155.49867248535156 145.6934051513672 C 141.72406005859375 154.7635498046875 118.470703125 146.68809509277344 144.80580139160156 153.67153930664062" stroke-width="2.0" fill="none" stroke="rgb(0, 0, 0)" stroke-opacity="1" stroke-linecap="round" stroke-linejoin="round"/>
    <path d="M 83.72740173339844 177.95870971679688 C 52.206974029541016 162.28546142578125 57.32084655761719 156.28732299804688 42.20402908325195 187.49508666992188 C 29.18871307373047 194.43370056152344 49.7328987121582 198.32786560058594 50.2752571105957 180.0058135986328" stroke-width="2.0" fill="none" stroke="rgb(0, 0, 0)" stroke-opacity="1" stroke-linecap="round" stroke-linejoin="round"/>
  </g>
</svg>
