<?xml version="1.0" ?>
<svg xmlns="http://www.w3.org/2000/svg" version="1.1" width="224" height="224">
  <defs/>
  <g>
    <path d="M 172.81492614746094 50.522491455078125 C 153.5146484375 25.87071418762207 135.47471618652344 12.360456466674805 165.33868408203125 26.34220314025879 C 161.7396697998047 30.01626968383789 149.0466766357422 4.36939001083374 139.2179412841797 17.61067771911621" stroke-width="2.0" fill="none" stroke="rgb(0, 0, 0)" stroke-opacity="1" stroke-linecap="round" stroke-linejoin="round"/>
    <path d="M 150.91355895996094 194.3053741455078 C 158.36444091796875 176.96267700195312 145.2846221923828 152.31727600097656 132.98085021972656 179.2703399658203 C 137.29180908203125 167.2411346435547 139.15611267089844 165.57559204101562 143.85165405273438 182.12583923339844" stroke-width="2.0" fill="none" stroke="rgb(0, 0, 0)" stroke-opacity="1" stroke-linecap="round" stroke-linejoin="round"/>
    <path d="M 201.8728790283203 190.4593048095703 C 203.31614685058594 203.39756774902344 197.4332275390625 194.04237365722656 201.63706970214844 216.19192504882812" stroke-width="2.0" fill="none" stroke="rgb(0, 0, 0)" stroke-opacity="1" stroke-linecap="round" stroke-linejoin="round"/>
    <path d="M 98.7353744506836 52.766536712646484 C 86.52943420410156 76.78046417236328 90.28919219970703 65.20989227294922 101.73296356201172 47.09214401245117 C 95.60797882080078 55.45767593383789 77.7260971069336 53.349456787109375 91.40044403076172 56.40094757080078" stroke-width="2.0" fill="none" stroke="rgb(0, 0, 0)" stroke-opacity="1" stroke-linecap="round" stroke-linejoin="round"/>
    <path d="M 139.72390747070312 145.10943603515625 C 146.36720275878906 161.5970001220703 121.94990539550781 145.46034240722656 92.11719512939453 149.9843292236328 C 126.84519958496094 134.9075469970703 129.7003631591797 162.7012481689453 140.9054718017578 166.65599060058594" stroke-width="2.0" fill="none" stroke="rgb(0, 0, 0)" stroke-opacity="1" stroke-linecap="round" stroke-linejoin="round"/>
    <path d="M 59.95821762084961 155.00656127929688 C 39.21058654785156 169.89549255371094 40.99665069580078 159.9032745361328 20.436620712280273 167.18284606933594" stroke-width="2.0" fill="none" stroke="rgb(0, 0, 0)" stroke-opacity="1" stroke-linecap="round" stroke-linejoin="round"/>
    <path d="M 134.95147705078125 225.2000732421875 C 124.36071014404297 182.94805908203125 123.91216278076172 198.4484100341797 112.4982681274414 199.83067321777344" stroke-width="2.0" fill="none" stroke="rgb(0, 0, 0)" stroke-opacity="1" stroke-linecap="round" stroke-linejoin="round"/>
    <path d="M 162.09356689453125 42.048885345458984 C 156.3346405029297 67.01072692871094 146.26834106445312 43.13557052612305 152.3485565185547 58.36869430541992" stroke-width="2.0" fill="none" stroke="rgb(0, 0, 0)" stroke-opacity="1" stroke-linecap="round" stroke-linejoin="round"/>
    <path d="M -2.0901286602020264 228.0313720703125 C 1.173055648803711 208.75355529785156 14.629152297973633 214.00064086914062 1.7839380502700806 237.70118713378906" stroke-width="2.0" fill="none" stroke="rgb(0, 0, 0)" stroke-opacity="1" stroke-linecap="round" stroke-linejoin="round"/>
    <path d="M 135.98007202148438 125.71761322021484 C 132.8109893798828 104.46098327636719 124.95187377929688 125.29524993896484 141.22091674804688 136.16015625 C 121.84895324707031 100.66051483154297 138.14744567871094 133.82345581054688 143.15243530273438 146.85337829589844 C 123.28060913085938 97.72010040283203 147.50575256347656 70.38004302978516 151.20950317382812 97.85298919677734" stroke-width="2.0" fill="none" stroke="rgb(0, 0, 0)" stroke-opacity="1" stroke-linecap="round" stroke-linejoin="round"/>
    <path d="M 106.38188171386719 134.41644287109375 C 96.60620880126953 115.08731079101562 107.57342529296875 103.32472229003906 95.29080200195312 116.29120635986328 C 96.8201904296875 107.0239028930664 102.27369689941406 120.41372680664062 101.25069427490234 86.88936614990234" stroke-width="2.0" fill="none" stroke="rgb(0, 0, 0)" stroke-opacity="1" stroke-linecap="round" stroke-linejoin="round"/>
    <path d="M 154.0476837158203 128.66099548339844 C 170.89540100097656 115.86534118652344 136.1540069580078 139.47097778320312 165.96363830566406 120.62928771972656" stroke-width="2.0" fill="none" stroke="rgb(0, 0, 0)" stroke-opacity="1" stroke-linecap="round" stroke-linejoin="round"/>
    <path d="M 85.26416015625 145.7880859375 C 100.04917907714844 146.23236083984375 68.9637222290039 149.16445922851562 57.75155258178711 165.8942413330078" stroke-width="2.0" fill="none" stroke="rgb(0, 0, 0)" stroke-opacity="1" stroke-linecap="round" stroke-linejoin="round"/>
    <path d="M -18.060813903808594 81.46289825439453 C 5.488941192626953 102.13965606689453 7.564817428588867 91.59578704833984 5.7446370124816895 110.25572967529297 C 28.2397518157959 99.60712432861328 28.930137634277344 104.77230072021484 26.95453643798828 111.62783813476562" stroke-width="2.0" fill="none" stroke="rgb(0, 0, 0)" stroke-opacity="1" stroke-linecap="round" stroke-linejoin="round"/>
    <path d="M 177.24586486816406 170.0955047607422 C 173.34063720703125 142.53594970703125 177.2249755859375 131.15097045898438 195.57017517089844 120.67771911621094 C 173.69009399414062 141.5145263671875 185.40567016601562 125.18734741210938 191.92730712890625 138.53558349609375" stroke-width="2.0" fill="none" stroke="rgb(0, 0, 0)" stroke-opacity="1" stroke-linecap="round" stroke-linejoin="round"/>
    <path d="M 52.387168884277344 190.48980712890625 C 51.082279205322266 173.19525146484375 59.70164489746094 188.45606994628906 50.3924674987793 197.47842407226562 C 67.42327880859375 171.19863891601562 54.21659851074219 175.570556640625 38.113792419433594 158.65406799316406" stroke-width="2.0" fill="none" stroke="rgb(0, 0, 0)" stroke-opacity="1" stroke-linecap="round" stroke-linejoin="round"/>
    <path d="M 76.8074722290039 69.96856689453125 C 127.5850601196289 69.45130157470703 130.50860595703125 72.99676513671875 134.84925842285156 73.72714233398438 C 102.19271850585938 73.85385131835938 79.82122039794922 63.7449836730957 87.2234878540039 83.95494079589844" stroke-width="2.0" fill="none" stroke="rgb(0, 0, 0)" stroke-opacity="1" stroke-linecap="round" stroke-linejoin="round"/>
    <path d="M 17.84035873413086 43.21084976196289 C 8.879292488098145 28.957910537719727 0.27468088269233704 49.740509033203125 5.787035942077637 43.07414627075195 C 36.322662353515625 18.418424606323242 37.36111831665039 32.315250396728516 37.601802825927734 20.98320198059082" stroke-width="2.0" fill="none" stroke="rgb(0, 0, 0)" stroke-opacity="1" stroke-linecap="round" stroke-linejoin="round"/>
    <path d="M 14.577094078063965 35.979156494140625 C 0.012801876291632652 35.868446350097656 44.056602478027344 28.185710906982422 30.738506317138672 19.93377685546875 C 44.051727294921875 30.955188751220703 33.11606979370117 22.632976531982422 13.8507661819458 32.93111801147461" stroke-width="2.0" fill="none" stroke="rgb(0, 0, 0)" stroke-opacity="1" stroke-linecap="round" stroke-linejoin="round"/>
    <path d="M 215.0735626220703 54.617088317871094 C 209.3067169189453 34.53239822387695 213.31167602539062 60.43093490600586 199.60446166992188 61.649600982666016 C 210.09153747558594 53.35093307495117 197.47344970703125 51.904380798339844 208.7574005126953 74.7298355102539" stroke-width="2.0" fill="none" stroke="rgb(0, 0, 0)" stroke-opacity="1" stroke-linecap="round" stroke-linejoin="round"/>
    <path d="M 32.758758544921875 190.01429748535156 C 23.793548583984375 198.91246032714844 58.60886001586914 205.84864807128906 50.308719635009766 176.67356872558594 C 44.85474395751953 209.64122009277344 63.33847427368164 194.83486938476562 31.330408096313477 200.0271453857422 C 21.317529678344727 194.12217712402344 28.62739372253418 215.3485870361328 35.20004653930664 192.63304138183594" stroke-width="2.0" fill="none" stroke="rgb(0, 0, 0)" stroke-opacity="1" stroke-linecap="round" stroke-linejoin="round"/>
    <path d="M 55.71043395996094 205.0858154296875 C 66.61700439453125 201.77464294433594 50.270015716552734 216.74053955078125 52.315093994140625 196.0966796875 C 70.94454193115234 192.25045776367188 102.31332397460938 189.29579162597656 80.20297241210938 192.4992218017578 C 39.62409210205078 194.64974975585938 52.262657165527344 191.79446411132812 43.83095169067383 205.16004943847656" stroke-width="2.0" fill="none" stroke="rgb(0, 0, 0)" stroke-opacity="1" stroke-linecap="round" stroke-linejoin="round"/>
    <path d="M 98.85301971435547 152.24020385742188 C 104.63612365722656 117.63526153564453 102.94430541992188 128.66934204101562 57.78715133666992 130.34771728515625" stroke-width="2.0" fill="none" stroke="rgb(0, 0, 0)" stroke-opacity="1" stroke-linecap="round" stroke-linejoin="round"/>
    <path d="M 196.92098999023438 174.8013916015625 C 216.29844665527344 183.07957458496094 195.5830535888672 182.69747924804688 190.2988739013672 175.62522888183594 C 205.26907348632812 191.48416137695312 184.4104766845703 164.69119262695312 176.51153564453125 193.533203125" stroke-width="2.0" fill="none" stroke="rgb(0, 0, 0)" stroke-opacity="1" stroke-linecap="round" stroke-linejoin="round"/>
    <path d="M 52.473411560058594 164.9756622314453 C 81.90486907958984 156.3881072998047 96.30636596679688 142.35748291015625 73.57056427001953 151.88095092773438 C 74.4771499633789 132.3658447265625 53.084320068359375 166.74478149414062 69.99132537841797 149.9624481201172 C 103.00447082519531 156.125732421875 70.47282409667969 180.48854064941406 81.18807220458984 177.89259338378906" stroke-width="2.0" fill="none" stroke="rgb(0, 0, 0)" stroke-opacity="1" stroke-linecap="round" stroke-linejoin="round"/>
    <path d="M 87.55113220214844 37.09077072143555 C 72.2735366821289 -10.0033540725708 81.6630859375 -10.99769401550293 80.09449005126953 -0.523560106754303 C 69.27018737792969 12.773784637451172 88.21348571777344 9.766335487365723 87.95954895019531 39.60607147216797" stroke-width="2.0" fill="none" stroke="rgb(0, 0, 0)" stroke-opacity="1" stroke-linecap="round" stroke-linejoin="round"/>
    <path d="M 92.10618591308594 57.882293701171875 C 98.9974136352539 47.41021728515625 100.84166717529297 59.37998962402344 88.05925750732422 68.24298858642578 C 65.13214874267578 42.519710540771484 59.707252502441406 59.489967346191406 54.007171630859375 66.71343231201172 C 74.60691833496094 60.679534912109375 59.65427017211914 58.22011947631836 51.26604461669922 60.046913146972656" stroke-width="2.0" fill="none" stroke="rgb(0, 0, 0)" stroke-opacity="1" stroke-linecap="round" stroke-linejoin="round"/>
    <path d="M 198.45448303222656 19.14482879638672 C 186.619873046875 38.984066009521484 178.36398315429688 65.44158172607422 181.53221130371094 63.201210021972656 C 172.08047485351562 85.01231384277344 172.4138641357422 56.676780700683594 190.38259887695312 32.03340148925781" stroke-width="2.0" fill="none" stroke="rgb(0, 0, 0)" stroke-opacity="1" stroke-linecap="round" stroke-linejoin="round"/>
    <path d="M 87.60704803466797 29.131847381591797 C 79.41863250732422 35.160701751708984 101.70906066894531 60.08354187011719 87.29447937011719 63.77556610107422" stroke-width="2.0" fill="none" stroke="rgb(0, 0, 0)" stroke-opacity="1" stroke-linecap="round" stroke-linejoin="round"/>
    <path d="M 116.46285247802734 15.998006820678711 C 128.45748901367188 4.90578556060791 133.92848205566406 -9.377516746520996 150.24681091308594 -28.280214309692383 C 139.55435180664062 13.80720043182373 135.32481384277344 9.5812349319458 120.773681640625 -5.407828330993652" stroke-width="2.0" fill="none" stroke="rgb(0, 0, 0)" stroke-opacity="1" stroke-linecap="round" stroke-linejoin="round"/>
    <path d="M 138.94606018066406 111.45136260986328 C 121.38003540039062 77.86115264892578 141.8893280029297 76.6588134765625 169.88079833984375 94.95167541503906 C 135.15411376953125 84.1836929321289 134.9561309814453 90.19432067871094 131.4628448486328 119.08304595947266" stroke-width="2.0" fill="none" stroke="rgb(0, 0, 0)" stroke-opacity="1" stroke-linecap="round" stroke-linejoin="round"/>
    <path d="M 152.71263122558594 169.87158203125 C 136.4419708251953 175.5785369873047 162.46878051757812 169.49838256835938 128.04518127441406 175.53842163085938" stroke-width="2.0" fill="none" stroke="rgb(0, 0, 0)" stroke-opacity="1" stroke-linecap="round" stroke-linejoin="round"/>
    <path d="M 192.4352569580078 191.2495880126953 C 182.66917419433594 169.69613647460938 186.20094299316406 187.8002471923828 179.5387725830078 194.76455688476562 C 190.09071350097656 172.64498901367188 221.1120147705078 169.88336181640625 189.03033447265625 184.52699279785156" stroke-width="2.0" fill="none" stroke="rgb(0, 0, 0)" stroke-opacity="1" stroke-linecap="round" stroke-linejoin="round"/>
    <path d="M 179.4490966796875 134.3480682373047 C 184.3829345703125 143.52430725097656 166.04461669921875 174.7891082763672 176.41001892089844 151.43150329589844 C 187.71701049804688 125.28682708740234 187.991943359375 124.15473937988281 204.81753540039062 117.36962890625 C 205.90078735351562 107.79544067382812 203.55990600585938 116.12531280517578 188.79776000976562 124.547607421875" stroke-width="2.0" fill="none" stroke="rgb(0, 0, 0)" stroke-opacity="1" stroke-linecap="round" stroke-linejoin="round"/>
    <path d="M 186.0671844482422 154.5304412841797 C 189.7984619140625 142.44711303710938 163.9718780517578 157.77220153808594 171.067626953125 190.07321166992188" stroke-width="2.0" fill="none" stroke="rgb(0, 0, 0)" stroke-opacity="1" stroke-linecap="round" stroke-linejoin="round"/>
    <path d="M 121.61732482910156 10.78683090209961 C 115.92241668701172 40.672119140625 121.79264831542969 10.604209899902344 121.00404357910156 49.28179168701172" stroke-width="2.0" fill="none" stroke="rgb(0, 0, 0)" stroke-opacity="1" stroke-linecap="round" stroke-linejoin="round"/>
    <path d="M 180.92994689941406 93.76739501953125 C 138.9041290283203 78.49563598632812 154.7139434814453 91.80852508544922 169.76019287109375 96.84253692626953" stroke-width="2.0" fill="none" stroke="rgb(0, 0, 0)" stroke-opacity="1" stroke-linecap="round" stroke-linejoin="round"/>
    <path d="M 84.66832733154297 -3.2822351455688477 C 80.1427001953125 18.47661018371582 78.72660827636719 -1.37470281124115 86.64559173583984 -18.04255485534668 C 85.65184020996094 -16.12319564819336 78.48880767822266 -8.463775634765625 77.75482177734375 -19.623050689697266 C 85.7542724609375 -18.654556274414062 84.40885162353516 -11.082910537719727 93.22555541992188 -19.57364845275879" stroke-width="2.0" fill="none" stroke="rgb(0, 0, 0)" stroke-opacity="1" stroke-linecap="round" stroke-linejoin="round"/>
    <path d="M 166.72116088867188 164.36692810058594 C 184.09054565429688 152.98684692382812 194.59649658203125 135.60316467285156 187.9339141845703 161.17025756835938" stroke-width="2.0" fill="none" stroke="rgb(0, 0, 0)" stroke-opacity="1" stroke-linecap="round" stroke-linejoin="round"/>
    <path d="M 139.5629119873047 22.68572998046875 C 144.33534240722656 20.187923431396484 156.40362548828125 21.061681747436523 142.6612548828125 23.440256118774414 C 133.475341796875 13.939369201660156 131.5390167236328 31.421398162841797 117.43775939941406 27.270641326904297 C 144.2975616455078 28.638755798339844 150.5802764892578 21.295909881591797 124.57593536376953 17.78611183166504" stroke-width="2.0" fill="none" stroke="rgb(0, 0, 0)" stroke-opacity="1" stroke-linecap="round" stroke-linejoin="round"/>
    <path d="M 100.41091918945312 41.63113021850586 C 91.796875 37.26364517211914 110.98164367675781 29.208524703979492 127.48463439941406 23.815719604492188 C 108.02623748779297 13.447405815124512 136.7251434326172 16.282028198242188 123.49718475341797 -6.066653251647949 C 130.72280883789062 23.898584365844727 105.63455963134766 17.515480041503906 120.06536865234375 28.95726776123047" stroke-width="2.0" fill="none" stroke="rgb(0, 0, 0)" stroke-opacity="1" stroke-linecap="round" stroke-linejoin="round"/>
    <path d="M 49.106327056884766 97.30450439453125 C 66.32450866699219 126.24307250976562 37.90290069580078 109.02651977539062 56.45235061645508 104.96757507324219 C 78.03630065917969 73.9014663696289 55.09939956665039 98.95356750488281 31.667072296142578 108.91014862060547" stroke-width="2.0" fill="none" stroke="rgb(0, 0, 0)" stroke-opacity="1" stroke-linecap="round" stroke-linejoin="round"/>
    <path d="M 193.59527587890625 115.84736633300781 C 196.3358154296875 122.92425537109375 188.0979461669922 99.52190399169922 192.0235595703125 121.97650909423828 C 227.11917114257812 107.6338119506836 225.03102111816406 101.91532135009766 191.3827667236328 128.09576416015625" stroke-width="2.0" fill="none" stroke="rgb(0, 0, 0)" stroke-opacity="1" stroke-linecap="round" stroke-linejoin="round"/>
    <path d="M 144.60935974121094 158.47572326660156 C 160.51077270507812 173.85733032226562 141.24447631835938 146.90916442871094 162.27099609375 157.14401245117188 C 154.9796142578125 168.764404296875 166.31582641601562 144.44842529296875 175.09104919433594 158.5934600830078" stroke-width="2.0" fill="none" stroke="rgb(0, 0, 0)" stroke-opacity="1" stroke-linecap="round" stroke-linejoin="round"/>
    <path d="M 188.54412841796875 130.99688720703125 C 168.62704467773438 166.80999755859375 166.9072723388672 178.30686950683594 178.58778381347656 145.31951904296875 C 194.5403594970703 133.8177490234375 176.2838592529297 105.12967681884766 150.2633819580078 127.63055419921875 C 151.87442016601562 138.50416564941406 123.67959594726562 147.61395263671875 141.6107940673828 133.43325805664062" stroke-width="2.0" fill="none" stroke="rgb(0, 0, 0)" stroke-opacity="1" stroke-linecap="round" stroke-linejoin="round"/>
    <path d="M 210.06402587890625 49.543556213378906 C 220.7587127685547 28.548707962036133 256.8611755371094 39.102176666259766 255.6613006591797 28.1219425201416" stroke-width="2.0" fill="none" stroke="rgb(0, 0, 0)" stroke-opacity="1" stroke-linecap="round" stroke-linejoin="round"/>
    <path d="M 235.31781005859375 117.85539245605469 C 205.0977783203125 117.2379379272461 197.17591857910156 109.46353912353516 227.26759338378906 106.47956848144531 C 240.4410400390625 114.93370819091797 229.43150329589844 113.40641021728516 231.9710235595703 115.6148681640625" stroke-width="2.0" fill="none" stroke="rgb(0, 0, 0)" stroke-opacity="1" stroke-linecap="round" stroke-linejoin="round"/>
    <path d="M 119.06128692626953 79.26066589355469 C 123.81028747558594 58.81278610229492 156.95068359375 96.99251556396484 146.8091278076172 74.47900390625 C 130.7246856689453 57.43746566772461 94.50675964355469 72.13817596435547 88.47669219970703 63.047935485839844 C 101.50115966796875 31.497243881225586 133.1333465576172 31.01776123046875 115.07955932617188 31.21449851989746" stroke-width="2.0" fill="none" stroke="rgb(0, 0, 0)" stroke-opacity="1" stroke-linecap="round" stroke-linejoin="round"/>
    <path d="M 29.061128616333008 106.62706756591797 C -20.8920841217041 112.35877990722656 -12.436844825744629 119.56089782714844 -15.572447776794434 113.66482543945312 C -34.6576042175293 114.28925323486328 -32.89996337890625 109.96928405761719 -7.243656158447266 120.2842025756836 C 22.66182518005371 101.2174072265625 14.877132415771484 106.59036254882812 -3.0392861366271973 109.96442413330078" stroke-width="2.0" fill="none" stroke="rgb(0, 0, 0)" stroke-opacity="1" stroke-linecap="round" stroke-linejoin="round"/>
    <path d="M -1.892301082611084 174.3374786376953 C 19.02597427368164 174.67538452148438 14.848301887512207 153.6817626953125 41.586143493652344 162.43893432617188" stroke-width="2.0" fill="none" stroke="rgb(0, 0, 0)" stroke-opacity="1" stroke-linecap="round" stroke-linejoin="round"/>
    <path d="M 49.83830642700195 228.0428009033203 C 69.86297607421875 228.577392578125 64.3299789428711 240.11383056640625 62.11729049682617 248.83265686035156 C 65.34358215332031 248.84934997558594 58.96885299682617 255.74819946289062 67.8517074584961 261.5096740722656" stroke-width="2.0" fill="none" stroke="rgb(0, 0, 0)" stroke-opacity="1" stroke-linecap="round" stroke-linejoin="round"/>
    <path d="M 60.53374481201172 151.17724609375 C 81.3315200805664 164.0040283203125 71.17564392089844 148.79014587402344 48.798892974853516 181.85867309570312" stroke-width="2.0" fill="none" stroke="rgb(0, 0, 0)" stroke-opacity="1" stroke-linecap="round" stroke-linejoin="round"/>
    <path d="M 142.4832763671875 75.30659484863281 C 140.998291015625 30.105731964111328 145.58021545410156 55.82819366455078 145.7244873046875 53.03207778930664" stroke-width="2.0" fill="none" stroke="rgb(0, 0, 0)" stroke-opacity="1" stroke-linecap="round" stroke-linejoin="round"/>
    <path d="M 59.71352005004883 64.08612823486328 C 72.47634887695312 60.96223449707031 80.62957000732422 85.16519927978516 66.04124450683594 89.14197540283203 C 55.17949295043945 89.26446533203125 67.37667846679688 80.38954162597656 91.70421600341797 73.66370391845703 C 75.43775177001953 61.24065399169922 105.80729675292969 63.241207122802734 76.97718048095703 74.0821762084961" stroke-width="2.0" fill="none" stroke="rgb(0, 0, 0)" stroke-opacity="1" stroke-linecap="round" stroke-linejoin="round"/>
    <path d="M 82.5297622680664 104.18492126464844 C 95.08708190917969 101.55237579345703 108.82807159423828 103.09207153320312 99.88273620605469 119.67089080810547 C 100.71692657470703 60.54203796386719 102.95268249511719 61.622947692871094 68.07210540771484 81.97566223144531" stroke-width="2.0" fill="none" stroke="rgb(0, 0, 0)" stroke-opacity="1" stroke-linecap="round" stroke-linejoin="round"/>
    <path d="M 154.19692993164062 65.18891906738281 C 151.8784942626953 55.121463775634766 154.81301879882812 34.38856887817383 145.7201385498047 57.007633209228516 C 142.7630615234375 32.202335357666016 144.97413635253906 1.9938381910324097 173.3241424560547 51.45454025268555 C 163.056396484375 20.983705520629883 134.97991943359375 6.950375556945801 149.71963500976562 25.447193145751953" stroke-width="2.0" fill="none" stroke="rgb(0, 0, 0)" stroke-opacity="1" stroke-linecap="round" stroke-linejoin="round"/>
    <path d="M 3.3762428760528564 214.73316955566406 C 23.528779983520508 190.64117431640625 29.516141891479492 195.33157348632812 29.35190773010254 209.01962280273438" stroke-width="2.0" fill="none" stroke="rgb(0, 0, 0)" stroke-opacity="1" stroke-linecap="round" stroke-linejoin="round"/>
    <path d="M 94.18834686279297 33.24102783203125 C 69.22034454345703 16.191938400268555 61.55560302734375 36.878292083740234 87.98387145996094 29.38740348815918 C 87.17181396484375 12.40738582611084 86.39423370361328 21.242874145507812 80.98101043701172 3.69376540184021" stroke-width="2.0" fill="none" stroke="rgb(0, 0, 0)" stroke-opacity="1" stroke-linecap="round" stroke-linejoin="round"/>
    <path d="M 100.4632339477539 99.5224609375 C 109.10567474365234 122.11255645751953 107.40261840820312 122.80170440673828 95.6006851196289 105.94607543945312" stroke-width="2.0" fill="none" stroke="rgb(0, 0, 0)" stroke-opacity="1" stroke-linecap="round" stroke-linejoin="round"/>
    <path d="M 140.77146911621094 76.14722442626953 C 131.02268981933594 63.09254455566406 105.29122161865234 68.94815826416016 78.77338409423828 71.0316390991211 C 90.06659698486328 52.32440185546875 82.83995056152344 73.18096160888672 98.07754516601562 70.71682739257812 C 79.37305450439453 71.40094757080078 80.57706451416016 87.17498016357422 65.39020538330078 58.707027435302734" stroke-width="2.0" fill="none" stroke="rgb(0, 0, 0)" stroke-opacity="1" stroke-linecap="round" stroke-linejoin="round"/>
    <path d="M 67.88899230957031 156.76071166992188 C 61.32685089111328 161.1866912841797 93.5455093383789 130.6400146484375 92.90737915039062 157.15426635742188" stroke-width="2.0" fill="none" stroke="rgb(0, 0, 0)" stroke-opacity="1" stroke-linecap="round" stroke-linejoin="round"/>
    <path d="M 12.5269193649292 65.02069854736328 C 21.683353424072266 80.2095947265625 32.168766021728516 49.93076705932617 51.11266326904297 32.00826644897461" stroke-width="2.0" fill="none" stroke="rgb(0, 0, 0)" stroke-opacity="1" stroke-linecap="round" stroke-linejoin="round"/>
    <path d="M 198.19378662109375 146.2610626220703 C 208.87843322753906 140.31922912597656 248.16835021972656 156.4425506591797 255.35450744628906 150.7771759033203" stroke-width="2.0" fill="none" stroke="rgb(0, 0, 0)" stroke-opacity="1" stroke-linecap="round" stroke-linejoin="round"/>
    <path d="M 81.5377197265625 72.36963653564453 C 78.00133514404297 78.6241226196289 60.522647857666016 93.13170623779297 72.0526351928711 86.87203216552734 C 69.53144836425781 96.07061004638672 45.68233871459961 93.72528076171875 55.92236328125 117.6286849975586" stroke-width="2.0" fill="none" stroke="rgb(0, 0, 0)" stroke-opacity="1" stroke-linecap="round" stroke-linejoin="round"/>
    <path d="M 87.91275024414062 101.34123229980469 C 90.68046569824219 94.84455108642578 104.83450317382812 108.4527587890625 100.76305389404297 122.73329162597656" stroke-width="2.0" fill="none" stroke="rgb(0, 0, 0)" stroke-opacity="1" stroke-linecap="round" stroke-linejoin="round"/>
    <path d="M 122.81886291503906 49.852535247802734 C 132.6332550048828 14.93726921081543 111.9740219116211 28.96173858642578 90.36820983886719 59.32994842529297 C 110.7820053100586 42.72949981689453 120.7021255493164 21.441335678100586 122.6402816772461 21.31930160522461 C 91.74424743652344 31.36912727355957 118.17874145507812 19.224040985107422 102.59041595458984 38.46619415283203" stroke-width="2.0" fill="none" stroke="rgb(0, 0, 0)" stroke-opacity="1" stroke-linecap="round" stroke-linejoin="round"/>
    <path d="M 107.91148376464844 134.10711669921875 C 99.1507339477539 88.0000991821289 89.30592346191406 147.363037109375 116.51087951660156 148.15721130371094 C 111.00916290283203 141.52647399902344 65.96437072753906 144.90884399414062 76.5863037109375 141.8123779296875 C 118.49855041503906 152.66952514648438 98.72298431396484 135.32241821289062 107.00420379638672 164.60946655273438" stroke-width="2.0" fill="none" stroke="rgb(0, 0, 0)" stroke-opacity="1" stroke-linecap="round" stroke-linejoin="round"/>
    <path d="M 17.871078491210938 181.9891357421875 C 5.21061372756958 161.52748107910156 12.379033088684082 159.0628662109375 16.8298282623291 120.6026382446289" stroke-width="2.0" fill="none" stroke="rgb(0, 0, 0)" stroke-opacity="1" stroke-linecap="round" stroke-linejoin="round"/>
    <path d="M 60.86936950683594 107.2033462524414 C 58.97695541381836 77.32426452636719 81.592041015625 73.29979705810547 60.49455261230469 62.27555465698242 C 70.83876037597656 90.93195343017578 67.37247467041016 105.07672119140625 53.777671813964844 99.15019226074219" stroke-width="2.0" fill="none" stroke="rgb(0, 0, 0)" stroke-opacity="1" stroke-linecap="round" stroke-linejoin="round"/>
    <path d="M 72.30191040039062 118.92529296875 C 80.28530883789062 95.07614135742188 53.4229621887207 105.47748565673828 46.47542953491211 84.51885986328125 C 66.30364990234375 100.43380737304688 37.05481719970703 106.50806427001953 61.67987060546875 91.9732894897461 C 52.439762115478516 104.43450164794922 61.61793518066406 76.16456604003906 74.51051330566406 77.11373138427734" stroke-width="2.0" fill="none" stroke="rgb(0, 0, 0)" stroke-opacity="1" stroke-linecap="round" stroke-linejoin="round"/>
    <path d="M 72.63845825195312 83.26026916503906 C 88.4274673461914 76.80255126953125 61.75612258911133 61.31599044799805 70.97960662841797 59.00352478027344 C 90.6199951171875 88.98148345947266 68.72550964355469 80.49116516113281 69.89698791503906 71.73579406738281 C 80.9039535522461 84.5126724243164 74.9495620727539 69.99153137207031 54.5482292175293 62.84909439086914" stroke-width="2.0" fill="none" stroke="rgb(0, 0, 0)" stroke-opacity="1" stroke-linecap="round" stroke-linejoin="round"/>
    <path d="M 194.44503784179688 149.93650817871094 C 171.3392333984375 156.9716796875 152.92999267578125 175.63687133789062 136.23353576660156 169.29229736328125 C 171.254150390625 157.06365966796875 183.95835876464844 157.30844116210938 170.85255432128906 163.94683837890625 C 181.41226196289062 166.0074920654297 177.06109619140625 128.37857055664062 174.08522033691406 147.35914611816406" stroke-width="2.0" fill="none" stroke="rgb(0, 0, 0)" stroke-opacity="1" stroke-linecap="round" stroke-linejoin="round"/>
    <path d="M 120.21336364746094 143.28741455078125 C 144.75335693359375 175.99183654785156 154.34500122070312 180.57785034179688 142.89291381835938 161.877685546875" stroke-width="2.0" fill="none" stroke="rgb(0, 0, 0)" stroke-opacity="1" stroke-linecap="round" stroke-linejoin="round"/>
    <path d="M 200.40072631835938 181.4934844970703 C 204.26747131347656 200.31658935546875 224.0283660888672 205.01043701171875 204.44241333007812 192.2817840576172 C 203.9967803955078 197.6344451904297 202.172119140625 186.13906860351562 207.51101684570312 197.75518798828125 C 202.08131408691406 185.35401916503906 207.30091857910156 201.71588134765625 211.84518432617188 194.5672607421875" stroke-width="2.0" fill="none" stroke="rgb(0, 0, 0)" stroke-opacity="1" stroke-linecap="round" stroke-linejoin="round"/>
    <path d="M 15.057772636413574 205.61032104492188 C -5.041579723358154 227.31234741210938 21.901193618774414 201.5458984375 2.866697311401367 227.0142822265625 C 10.061777114868164 250.91433715820312 10.979901313781738 260.836669921875 14.12384033203125 258.6182861328125" stroke-width="2.0" fill="none" stroke="rgb(0, 0, 0)" stroke-opacity="1" stroke-linecap="round" stroke-linejoin="round"/>
    <path d="M 130.59910583496094 233.8189697265625 C 121.78954315185547 211.49732971191406 126.96781158447266 203.99501037597656 123.34603118896484 199.88267517089844" stroke-width="2.0" fill="none" stroke="rgb(0, 0, 0)" stroke-opacity="1" stroke-linecap="round" stroke-linejoin="round"/>
    <path d="M 114.00489044189453 144.0782470703125 C 136.9357147216797 138.80162048339844 134.82579040527344 161.38829040527344 145.79440307617188 169.38145446777344" stroke-width="2.0" fill="none" stroke="rgb(0, 0, 0)" stroke-opacity="1" stroke-linecap="round" stroke-linejoin="round"/>
    <path d="M 10.128769874572754 153.36105346679688 C 16.337316513061523 168.06161499023438 -7.528536796569824 182.4585723876953 11.496274948120117 174.7136993408203 C 15.591989517211914 174.5080108642578 16.144540786743164 175.0245819091797 -11.8112154006958 185.70225524902344 C -14.304352760314941 166.81370544433594 -18.969144821166992 170.73919677734375 -18.471817016601562 169.55198669433594" stroke-width="2.0" fill="none" stroke="rgb(0, 0, 0)" stroke-opacity="1" stroke-linecap="round" stroke-linejoin="round"/>
    <path d="M 75.84475708007812 195.35507202148438 C 80.3271255493164 211.71142578125 79.08364868164062 183.6390380859375 57.403045654296875 203.8980712890625 C 74.39115905761719 193.84544372558594 75.90765380859375 203.26202392578125 60.310672760009766 195.72079467773438" stroke-width="2.0" fill="none" stroke="rgb(0, 0, 0)" stroke-opacity="1" stroke-linecap="round" stroke-linejoin="round"/>
    <path d="M 172.27218627929688 13.018669128417969 C 165.39938354492188 -14.183012962341309 143.51034545898438 8.884027481079102 176.40048217773438 -14.744842529296875 C 184.50035095214844 0.015982240438461304 174.97535705566406 18.208364486694336 157.32582092285156 -2.9303221702575684 C 167.0065460205078 10.778627395629883 157.2995147705078 9.786971092224121 164.62266540527344 27.13030433654785" stroke-width="2.0" fill="none" stroke="rgb(0, 0, 0)" stroke-opacity="1" stroke-linecap="round" stroke-linejoin="round"/>
    <path d="M 145.22874450683594 88.46772003173828 C 108.8842544555664 59.64554214477539 123.68618774414062 28.611591339111328 109.83897399902344 36.59558868408203 C 136.3892822265625 25.896238327026367 147.66708374023438 13.8098726272583 110.90139770507812 38.08598327636719" stroke-width="2.0" fill="none" stroke="rgb(0, 0, 0)" stroke-opacity="1" stroke-linecap="round" stroke-linejoin="round"/>
    <path d="M 97.57379150390625 108.39259338378906 C 102.78152465820312 111.56864929199219 90.5167007446289 101.0732192993164 106.58189392089844 108.93768310546875 C 73.90142822265625 103.88960266113281 75.58103942871094 91.2071533203125 86.36090850830078 109.83903503417969 C 69.99193572998047 99.05899047851562 52.21025085449219 65.49491882324219 77.79136657714844 90.16796112060547" stroke-width="2.0" fill="none" stroke="rgb(0, 0, 0)" stroke-opacity="1" stroke-linecap="round" stroke-linejoin="round"/>
    <path d="M 182.95216369628906 87.80436706542969 C 180.34812927246094 107.48342895507812 170.85316467285156 66.16557312011719 179.00979614257812 59.358482360839844 C 142.79954528808594 64.49840545654297 187.2358856201172 56.55411148071289 207.85232543945312 60.10108947753906" stroke-width="2.0" fill="none" stroke="rgb(0, 0, 0)" stroke-opacity="1" stroke-linecap="round" stroke-linejoin="round"/>
    <path d="M 85.40387725830078 188.6907958984375 C 109.06886291503906 181.21595764160156 113.5076675415039 210.7311553955078 98.40667724609375 197.75582885742188 C 91.96833801269531 205.08438110351562 102.87969207763672 223.91168212890625 94.23426055908203 204.24375915527344 C 94.0432357788086 222.3936004638672 92.49312591552734 239.04827880859375 86.22503662109375 252.90467834472656" stroke-width="2.0" fill="none" stroke="rgb(0, 0, 0)" stroke-opacity="1" stroke-linecap="round" stroke-linejoin="round"/>
    <path d="M 67.86662292480469 21.61245346069336 C 87.9152603149414 13.272138595581055 87.84815979003906 37.83283615112305 70.3488998413086 25.018327713012695 C 78.86758422851562 26.46238899230957 39.732242584228516 39.64603805541992 53.30344009399414 30.995519638061523" stroke-width="2.0" fill="none" stroke="rgb(0, 0, 0)" stroke-opacity="1" stroke-linecap="round" stroke-linejoin="round"/>
    <path d="M 130.66375732421875 209.0555877685547 C 120.57532501220703 195.0166473388672 102.09967041015625 203.9291534423828 119.8447036743164 188.697998046875 C 138.8919219970703 190.4242401123047 129.70640563964844 237.1345977783203 123.94052124023438 202.63934326171875 C 79.74432373046875 193.61883544921875 105.11661529541016 202.78395080566406 118.1953125 194.81906127929688" stroke-width="2.0" fill="none" stroke="rgb(0, 0, 0)" stroke-opacity="1" stroke-linecap="round" stroke-linejoin="round"/>
    <path d="M 132.10626220703125 159.94342041015625 C 148.80062866210938 172.9619903564453 136.61119079589844 170.02076721191406 115.88681030273438 190.5930938720703 C 139.6797332763672 187.10699462890625 131.00784301757812 147.4175567626953 137.65757751464844 193.1492462158203" stroke-width="2.0" fill="none" stroke="rgb(0, 0, 0)" stroke-opacity="1" stroke-linecap="round" stroke-linejoin="round"/>
    <path d="M 202.27537536621094 59.18906784057617 C 187.34046936035156 59.822444915771484 187.56736755371094 66.80401611328125 194.35679626464844 58.89973831176758 C 202.90316772460938 63.26970291137695 200.5588836669922 45.918678283691406 196.46942138671875 71.77934265136719 C 197.62059020996094 54.663761138916016 195.8194122314453 60.99734878540039 187.39773559570312 53.597137451171875" stroke-width="2.0" fill="none" stroke="rgb(0, 0, 0)" stroke-opacity="1" stroke-linecap="round" stroke-linejoin="round"/>
    <path d="M 199.13145446777344 99.0154800415039 C 192.62118530273438 73.67462921142578 179.7564239501953 107.23118591308594 183.8856658935547 92.13017272949219 C 180.64666748046875 96.29145050048828 182.51808166503906 90.08819580078125 201.19476318359375 90.05667114257812 C 189.63619995117188 95.20556640625 178.67738342285156 82.7759780883789 191.6527099609375 96.2787857055664" stroke-width="2.0" fill="none" stroke="rgb(0, 0, 0)" stroke-opacity="1" stroke-linecap="round" stroke-linejoin="round"/>
    <path d="M 175.0922393798828 188.13064575195312 C 199.13323974609375 207.7450408935547 164.26583862304688 195.7877960205078 191.35829162597656 183.66671752929688 C 162.53958129882812 201.51539611816406 172.2550506591797 201.6669921875 163.31268310546875 209.47523498535156 C 182.83485412597656 212.12942504882812 168.35507202148438 187.1455841064453 169.30258178710938 229.1030731201172" stroke-width="2.0" fill="none" stroke="rgb(0, 0, 0)" stroke-opacity="1" stroke-linecap="round" stroke-linejoin="round"/>
    <path d="M 120.55174255371094 212.73988342285156 C 128.75047302246094 194.64915466308594 99.02494812011719 202.20899963378906 121.10025787353516 199.1629638671875 C 118.40385437011719 207.41754150390625 113.63936614990234 188.58201599121094 108.27124786376953 205.6631317138672" stroke-width="2.0" fill="none" stroke="rgb(0, 0, 0)" stroke-opacity="1" stroke-linecap="round" stroke-linejoin="round"/>
    <path d="M 144.774169921875 77.63404846191406 C 130.43128967285156 50.5562858581543 134.30853271484375 72.55377960205078 92.60649108886719 72.95734405517578" stroke-width="2.0" fill="none" stroke="rgb(0, 0, 0)" stroke-opacity="1" stroke-linecap="round" stroke-linejoin="round"/>
    <path d="M 241.69497680664062 116.02786254882812 C 205.61691284179688 107.7828140258789 192.14881896972656 122.39408111572266 179.57765197753906 136.80307006835938 C 195.48196411132812 131.94264221191406 192.00299072265625 111.99373626708984 190.9781951904297 87.28858947753906" stroke-width="2.0" fill="none" stroke="rgb(0, 0, 0)" stroke-opacity="1" stroke-linecap="round" stroke-linejoin="round"/>
    <path d="M 124.09317016601562 17.527341842651367 C 134.8224639892578 27.625553131103516 128.0096435546875 31.398862838745117 148.03244018554688 19.415569305419922" stroke-width="2.0" fill="none" stroke="rgb(0, 0, 0)" stroke-opacity="1" stroke-linecap="round" stroke-linejoin="round"/>
    <path d="M 187.1968994140625 39.21617889404297 C 171.67637634277344 69.753173828125 184.96014404296875 62.395606994628906 174.8297882080078 93.28331756591797" stroke-width="2.0" fill="none" stroke="rgb(0, 0, 0)" stroke-opacity="1" stroke-linecap="round" stroke-linejoin="round"/>
    <path d="M 110.9741439819336 138.857177734375 C 105.88055419921875 154.19363403320312 115.63672637939453 133.8108367919922 117.90541076660156 140.53305053710938" stroke-width="2.0" fill="none" stroke="rgb(0, 0, 0)" stroke-opacity="1" stroke-linecap="round" stroke-linejoin="round"/>
    <path d="M 228.34963989257812 88.77325439453125 C 235.27671813964844 98.37646484375 229.2801513671875 107.38801574707031 227.70460510253906 118.92015075683594 C 235.67430114746094 113.60127258300781 232.1783447265625 105.24691009521484 236.39268493652344 109.87113952636719 C 235.95269775390625 112.34201049804688 238.28607177734375 122.35760498046875 245.3386688232422 116.58688354492188" stroke-width="2.0" fill="none" stroke="rgb(0, 0, 0)" stroke-opacity="1" stroke-linecap="round" stroke-linejoin="round"/>
    <path d="M 162.0087432861328 174.23426818847656 C 158.901123046875 146.9460906982422 146.59075927734375 164.50730895996094 163.49969482421875 160.67349243164062 C 173.05856323242188 151.56173706054688 169.12535095214844 166.6892547607422 173.17153930664062 150.79200744628906" stroke-width="2.0" fill="none" stroke="rgb(0, 0, 0)" stroke-opacity="1" stroke-linecap="round" stroke-linejoin="round"/>
    <path d="M 77.08745574951172 66.99390411376953 C 89.33419036865234 59.12361145019531 38.68781661987305 65.02375030517578 21.233280181884766 69.0733413696289 C 66.83287811279297 53.35920715332031 51.185585021972656 65.31583404541016 53.78926086425781 64.41179656982422" stroke-width="2.0" fill="none" stroke="rgb(0, 0, 0)" stroke-opacity="1" stroke-linecap="round" stroke-linejoin="round"/>
    <path d="M 210.66517639160156 202.73599243164062 C 217.31781005859375 181.845947265625 227.65872192382812 211.91514587402344 232.2567901611328 208.54495239257812 C 222.13429260253906 198.57408142089844 211.35264587402344 195.04649353027344 207.48216247558594 196.38739013671875" stroke-width="2.0" fill="none" stroke="rgb(0, 0, 0)" stroke-opacity="1" stroke-linecap="round" stroke-linejoin="round"/>
    <path d="M 125.44105529785156 172.6131591796875 C 128.95936584472656 139.56768798828125 130.4211883544922 109.3623275756836 115.19208526611328 156.30078125" stroke-width="2.0" fill="none" stroke="rgb(0, 0, 0)" stroke-opacity="1" stroke-linecap="round" stroke-linejoin="round"/>
    <path d="M 56.472320556640625 204.49102783203125 C 89.82096862792969 185.9515380859375 103.5833511352539 196.58934020996094 84.93179321289062 193.41873168945312 C 92.21283721923828 195.54595947265625 92.24296569824219 190.6195068359375 76.26824951171875 193.7408447265625" stroke-width="2.0" fill="none" stroke="rgb(0, 0, 0)" stroke-opacity="1" stroke-linecap="round" stroke-linejoin="round"/>
    <path d="M 138.8685302734375 169.33558654785156 C 130.0767059326172 178.67868041992188 152.0410614013672 166.42144775390625 124.33289337158203 180.91319274902344 C 104.33610534667969 212.77850341796875 114.38739013671875 170.3460693359375 126.88320922851562 181.50218200683594" stroke-width="2.0" fill="none" stroke="rgb(0, 0, 0)" stroke-opacity="1" stroke-linecap="round" stroke-linejoin="round"/>
    <path d="M 77.04255676269531 74.96283721923828 C 55.615211486816406 97.81661224365234 60.369476318359375 103.68848419189453 97.18216705322266 104.75695037841797" stroke-width="2.0" fill="none" stroke="rgb(0, 0, 0)" stroke-opacity="1" stroke-linecap="round" stroke-linejoin="round"/>
    <path d="M 122.23274993896484 23.374483108520508 C 113.52201080322266 31.076454162597656 103.12899780273438 41.87427520751953 96.51451873779297 56.50907897949219 C 96.2956771850586 39.036808013916016 108.75135803222656 50.309532165527344 87.27645874023438 68.65352630615234" stroke-width="2.0" fill="none" stroke="rgb(0, 0, 0)" stroke-opacity="1" stroke-linecap="round" stroke-linejoin="round"/>
    <path d="M 17.763916015625 79.41522979736328 C 19.600406646728516 63.70620346069336 3.9477860927581787 75.98699951171875 21.981693267822266 69.5674057006836 C 9.032346725463867 76.58303833007812 10.207954406738281 60.45772933959961 7.635325908660889 77.35359954833984 C 18.838441848754883 101.77713775634766 5.427777290344238 64.51032257080078 0.39370638132095337 68.12931060791016" stroke-width="2.0" fill="none" stroke="rgb(0, 0, 0)" stroke-opacity="1" stroke-linecap="round" stroke-linejoin="round"/>
    <path d="M 77.16756439208984 72.44244384765625 C 81.75257873535156 72.71001434326172 92.69984436035156 70.37850189208984 103.31991577148438 42.52912139892578 C 100.62529754638672 35.39646530151367 95.59977722167969 55.573707580566406 75.0133056640625 79.63134002685547" stroke-width="2.0" fill="none" stroke="rgb(0, 0, 0)" stroke-opacity="1" stroke-linecap="round" stroke-linejoin="round"/>
    <path d="M 57.85905456542969 205.5540313720703 C 67.68299102783203 196.5703125 44.10483932495117 197.5297088623047 58.87115478515625 170.58941650390625" stroke-width="2.0" fill="none" stroke="rgb(0, 0, 0)" stroke-opacity="1" stroke-linecap="round" stroke-linejoin="round"/>
    <path d="M 175.75303649902344 40.46245574951172 C 171.16275024414062 61.83778381347656 178.4371795654297 43.10593795776367 192.21717834472656 28.98940086364746 C 187.75982666015625 56.50115203857422 173.61585998535156 20.963272094726562 213.61959838867188 16.62409210205078" stroke-width="2.0" fill="none" stroke="rgb(0, 0, 0)" stroke-opacity="1" stroke-linecap="round" stroke-linejoin="round"/>
    <path d="M 33.9347038269043 44.18006134033203 C 34.321617126464844 28.39282989501953 0.26577436923980713 13.869214057922363 17.039045333862305 27.73923683166504 C -0.37730443477630615 63.48493957519531 -14.868395805358887 58.46170425415039 4.80576229095459 36.722110748291016 C -7.280887126922607 67.34820556640625 -1.4051762819290161 39.4354248046875 20.05294418334961 27.221773147583008" stroke-width="2.0" fill="none" stroke="rgb(0, 0, 0)" stroke-opacity="1" stroke-linecap="round" stroke-linejoin="round"/>
    <path d="M 99.8139877319336 111.47798156738281 C 111.43670654296875 117.23622131347656 91.64827728271484 96.33718872070312 100.72241973876953 86.01881408691406" stroke-width="2.0" fill="none" stroke="rgb(0, 0, 0)" stroke-opacity="1" stroke-linecap="round" stroke-linejoin="round"/>
    <path d="M 94.26702117919922 41.303749084472656 C 105.36225891113281 28.988821029663086 131.19308471679688 22.300495147705078 141.33285522460938 25.107749938964844" stroke-width="2.0" fill="none" stroke="rgb(0, 0, 0)" stroke-opacity="1" stroke-linecap="round" stroke-linejoin="round"/>
    <path d="M -13.656634330749512 31.400562286376953 C 1.3683217763900757 28.725507736206055 12.809675216674805 24.154525756835938 -2.205552816390991 58.63567352294922" stroke-width="2.0" fill="none" stroke="rgb(0, 0, 0)" stroke-opacity="1" stroke-linecap="round" stroke-linejoin="round"/>
    <path d="M 174.39280700683594 120.04779052734375 C 153.36770629882812 127.80106353759766 149.9350128173828 129.6835174560547 141.48345947265625 149.24900817871094" stroke-width="2.0" fill="none" stroke="rgb(0, 0, 0)" stroke-opacity="1" stroke-linecap="round" stroke-linejoin="round"/>
    <path d="M 126.86748504638672 182.82034301757812 C 109.28221893310547 178.96334838867188 136.8228302001953 173.49655151367188 163.6161651611328 160.6759490966797 C 123.02782440185547 163.79031372070312 152.06471252441406 177.43699645996094 123.7757568359375 144.02806091308594 C 139.78912353515625 176.65774536132812 144.49891662597656 169.04148864746094 171.12228393554688 164.5350341796875" stroke-width="2.0" fill="none" stroke="rgb(0, 0, 0)" stroke-opacity="1" stroke-linecap="round" stroke-linejoin="round"/>
    <path d="M 79.14750671386719 195.2682342529297 C 75.3486557006836 194.32046508789062 46.139678955078125 193.7867889404297 55.480224609375 224.60354614257812 C 68.12086486816406 200.552001953125 47.13560485839844 194.70799255371094 60.383575439453125 226.80133056640625" stroke-width="2.0" fill="none" stroke="rgb(0, 0, 0)" stroke-opacity="1" stroke-linecap="round" stroke-linejoin="round"/>
    <path d="M 237.53961181640625 174.24453735351562 C 186.9154052734375 177.34620666503906 198.36392211914062 184.47804260253906 218.0220947265625 176.28460693359375 C 208.59225463867188 181.00421142578125 226.0649871826172 175.4180908203125 229.5166015625 181.6228485107422 C 235.4459991455078 202.90882873535156 225.21621704101562 218.59732055664062 227.9744110107422 218.72689819335938" stroke-width="2.0" fill="none" stroke="rgb(0, 0, 0)" stroke-opacity="1" stroke-linecap="round" stroke-linejoin="round"/>
    <path d="M 128.40550231933594 181.11663818359375 C 90.40021514892578 195.59683227539062 73.8133773803711 196.8217315673828 55.84565353393555 202.7345428466797 C 90.92487335205078 192.35116577148438 95.53809356689453 186.0667724609375 73.0514144897461 197.28439331054688 C 63.91203308105469 191.2682342529297 77.49217987060547 193.16116333007812 78.96920776367188 192.6885986328125" stroke-width="2.0" fill="none" stroke="rgb(0, 0, 0)" stroke-opacity="1" stroke-linecap="round" stroke-linejoin="round"/>
    <path d="M 197.99343872070312 32.7162971496582 C 192.130859375 22.167835235595703 200.33705139160156 29.711225509643555 214.31610107421875 8.99055004119873 C 217.14691162109375 1.7631155252456665 209.58990478515625 -28.6975040435791 215.5996856689453 -10.331083297729492" stroke-width="2.0" fill="none" stroke="rgb(0, 0, 0)" stroke-opacity="1" stroke-linecap="round" stroke-linejoin="round"/>
    <path d="M 45.81759262084961 22.5275821685791 C 48.78330993652344 30.475322723388672 76.44349670410156 1.9421929121017456 88.67672729492188 33.49192810058594 C 77.86075592041016 17.662189483642578 88.57939910888672 26.61400032043457 89.7124252319336 39.48781204223633" stroke-width="2.0" fill="none" stroke="rgb(0, 0, 0)" stroke-opacity="1" stroke-linecap="round" stroke-linejoin="round"/>
    <path d="M 70.48197937011719 167.28900146484375 C 53.980125427246094 146.73524475097656 1.2848626375198364 177.8578643798828 21.56092643737793 153.10922241210938 C 56.60110092163086 173.80799865722656 61.98127365112305 176.58612060546875 54.129783630371094 175.21266174316406 C 51.75959014892578 194.02371215820312 51.064735412597656 160.65765380859375 53.3248291015625 179.49856567382812" stroke-width="2.0" fill="none" stroke="rgb(0, 0, 0)" stroke-opacity="1" stroke-linecap="round" stroke-linejoin="round"/>
    <path d="M 47.28995132446289 235.54241943359375 C 46.50642776489258 227.39047241210938 43.870330810546875 226.64492797851562 60.82742691040039 231.29251098632812 C 49.8564453125 223.34283447265625 38.0634651184082 229.29034423828125 53.522377014160156 227.6156768798828 C 47.132057189941406 224.27833557128906 28.8624324798584 232.73464965820312 46.50428771972656 235.20697021484375" stroke-width="2.0" fill="none" stroke="rgb(0, 0, 0)" stroke-opacity="1" stroke-linecap="round" stroke-linejoin="round"/>
    <path d="M 144.99624633789062 128.0106964111328 C 123.76234436035156 101.87654876708984 145.8942413330078 129.70932006835938 133.24844360351562 119.85518646240234 C 127.65792083740234 71.92906188964844 138.76988220214844 109.34284973144531 133.391845703125 90.04695892333984" stroke-width="2.0" fill="none" stroke="rgb(0, 0, 0)" stroke-opacity="1" stroke-linecap="round" stroke-linejoin="round"/>
    <path d="M 164.0447998046875 161.8784637451172 C 152.7411651611328 171.9471893310547 114.82878112792969 161.4169464111328 133.34727478027344 185.93161010742188" stroke-width="2.0" fill="none" stroke="rgb(0, 0, 0)" stroke-opacity="1" stroke-linecap="round" stroke-linejoin="round"/>
    <path d="M 103.41354370117188 84.58731842041016 C 98.5752182006836 105.70938110351562 95.23234558105469 138.2177276611328 114.75365447998047 147.09844970703125" stroke-width="2.0" fill="none" stroke="rgb(0, 0, 0)" stroke-opacity="1" stroke-linecap="round" stroke-linejoin="round"/>
    <path d="M 114.03097534179688 20.10474395751953 C 105.46569061279297 25.369516372680664 106.46625518798828 26.215932846069336 116.21160888671875 26.590837478637695" stroke-width="2.0" fill="none" stroke="rgb(0, 0, 0)" stroke-opacity="1" stroke-linecap="round" stroke-linejoin="round"/>
    <path d="M 164.20346069335938 150.86599731445312 C 154.54409790039062 99.85479736328125 126.89944458007812 161.02520751953125 159.11981201171875 126.66890716552734" stroke-width="2.0" fill="none" stroke="rgb(0, 0, 0)" stroke-opacity="1" stroke-linecap="round" stroke-linejoin="round"/>
    <path d="M 18.356359481811523 -15.996318817138672 C 16.47740364074707 14.469827651977539 12.031401634216309 11.00552749633789 0.4567011892795563 16.173309326171875 C -24.798316955566406 33.57086181640625 -9.776135444641113 30.050241470336914 4.670462131500244 -2.089519739151001 C -18.82917594909668 21.99444580078125 -5.894920349121094 34.17469024658203 -4.1565656661987305 7.983154773712158" stroke-width="2.0" fill="none" stroke="rgb(0, 0, 0)" stroke-opacity="1" stroke-linecap="round" stroke-linejoin="round"/>
    <path d="M 211.0142364501953 52.02674102783203 C 218.70889282226562 40.72331619262695 232.5049285888672 38.58958053588867 253.7143096923828 38.33843231201172 C 226.19204711914062 24.835927963256836 234.67477416992188 33.68647003173828 236.71295166015625 25.741596221923828" stroke-width="2.0" fill="none" stroke="rgb(0, 0, 0)" stroke-opacity="1" stroke-linecap="round" stroke-linejoin="round"/>
    <path d="M 34.2395133972168 18.033533096313477 C 37.454689025878906 33.59284210205078 31.251771926879883 19.32307243347168 17.806873321533203 32.035640716552734 C 18.23834991455078 25.524288177490234 -14.63521671295166 56.813148498535156 13.291756629943848 28.95124626159668" stroke-width="2.0" fill="none" stroke="rgb(0, 0, 0)" stroke-opacity="1" stroke-linecap="round" stroke-linejoin="round"/>
    <path d="M 99.27677154541016 37.19354248046875 C 87.84346771240234 50.1578369140625 106.40908813476562 50.7826042175293 90.55081939697266 60.138328552246094 C 90.32212829589844 58.40477752685547 72.40196228027344 48.97108459472656 99.54398345947266 49.308475494384766 C 85.82061004638672 40.32008361816406 84.4024887084961 49.433021545410156 82.6910629272461 12.745903015136719" stroke-width="2.0" fill="none" stroke="rgb(0, 0, 0)" stroke-opacity="1" stroke-linecap="round" stroke-linejoin="round"/>
    <path d="M 97.56732177734375 107.85443115234375 C 105.7287368774414 118.33961486816406 109.8130111694336 132.86436462402344 100.77488708496094 106.56844329833984 C 75.37794494628906 102.63357543945312 59.258487701416016 109.6777572631836 84.55686950683594 101.76116180419922 C 105.9317855834961 110.0914535522461 106.93801879882812 127.14800262451172 103.6634750366211 116.83702850341797" stroke-width="2.0" fill="none" stroke="rgb(0, 0, 0)" stroke-opacity="1" stroke-linecap="round" stroke-linejoin="round"/>
    <path d="M 37.26668930053711 61.36455154418945 C 59.53022384643555 18.82760238647461 64.90201568603516 37.183040618896484 34.94319534301758 50.16499328613281 C 53.91581726074219 15.054256439208984 73.35558319091797 23.24753189086914 45.99959182739258 39.465919494628906 C 29.390233993530273 21.438074111938477 50.40908432006836 19.010692596435547 53.07026672363281 21.866703033447266" stroke-width="2.0" fill="none" stroke="rgb(0, 0, 0)" stroke-opacity="1" stroke-linecap="round" stroke-linejoin="round"/>
    <path d="M 41.85800552368164 108.26631164550781 C 40.24845886230469 84.73540496826172 50.08585739135742 95.12191009521484 50.851749420166016 141.09449768066406" stroke-width="2.0" fill="none" stroke="rgb(0, 0, 0)" stroke-opacity="1" stroke-linecap="round" stroke-linejoin="round"/>
    <path d="M 44.376426696777344 16.35433006286621 C 63.44945526123047 -5.229957580566406 26.50624656677246 -13.592734336853027 66.58179473876953 4.39329719543457 C 43.09369659423828 -20.99297523498535 41.978912353515625 -24.487159729003906 52.30991744995117 -21.32402229309082" stroke-width="2.0" fill="none" stroke="rgb(0, 0, 0)" stroke-opacity="1" stroke-linecap="round" stroke-linejoin="round"/>
    <path d="M 83.87193298339844 59.934242248535156 C 109.9193115234375 65.37071990966797 96.80847930908203 30.389598846435547 104.11931610107422 39.13637924194336" stroke-width="2.0" fill="none" stroke="rgb(0, 0, 0)" stroke-opacity="1" stroke-linecap="round" stroke-linejoin="round"/>
    <path d="M 73.70172882080078 28.939498901367188 C 33.057125091552734 41.21923065185547 19.83285903930664 61.59751892089844 35.23386001586914 59.27617645263672 C 22.032649993896484 78.37767028808594 52.06376647949219 47.79070281982422 26.761226654052734 28.009368896484375" stroke-width="2.0" fill="none" stroke="rgb(0, 0, 0)" stroke-opacity="1" stroke-linecap="round" stroke-linejoin="round"/>
    <path d="M 104.31085205078125 28.944284439086914 C 87.20176696777344 54.82872772216797 99.70549011230469 64.26630401611328 73.57872009277344 85.84408569335938" stroke-width="2.0" fill="none" stroke="rgb(0, 0, 0)" stroke-opacity="1" stroke-linecap="round" stroke-linejoin="round"/>
    <path d="M 104.72351837158203 155.80364990234375 C 110.11626434326172 136.2933349609375 101.2110595703125 150.52593994140625 96.29125213623047 144.6029815673828 C 120.56328582763672 156.6046600341797 97.55587005615234 141.0112762451172 88.13121795654297 140.5685577392578" stroke-width="2.0" fill="none" stroke="rgb(0, 0, 0)" stroke-opacity="1" stroke-linecap="round" stroke-linejoin="round"/>
    <path d="M 136.0797576904297 35.45982360839844 C 131.4055938720703 17.723012924194336 142.45359802246094 22.097524642944336 173.5640869140625 43.93006134033203" stroke-width="2.0" fill="none" stroke="rgb(0, 0, 0)" stroke-opacity="1" stroke-linecap="round" stroke-linejoin="round"/>
    <path d="M 146.50392150878906 24.818769454956055 C 148.1112518310547 15.578033447265625 169.9775848388672 27.43561553955078 170.0099639892578 37.37457275390625 C 178.63583374023438 37.657508850097656 159.46768188476562 30.088436126708984 139.38304138183594 23.471012115478516" stroke-width="2.0" fill="none" stroke="rgb(0, 0, 0)" stroke-opacity="1" stroke-linecap="round" stroke-linejoin="round"/>
    <path d="M 213.27757263183594 172.07472229003906 C 220.02333068847656 186.32083129882812 227.9553985595703 172.17337036132812 190.37417602539062 183.530029296875" stroke-width="2.0" fill="none" stroke="rgb(0, 0, 0)" stroke-opacity="1" stroke-linecap="round" stroke-linejoin="round"/>
    <path d="M 45.4681510925293 11.807432174682617 C 31.982236862182617 32.18104553222656 70.7985610961914 16.27450180053711 76.5914306640625 17.51639747619629 C 88.78582000732422 27.129291534423828 82.12593841552734 50.15013122558594 97.64007568359375 45.69425964355469" stroke-width="2.0" fill="none" stroke="rgb(0, 0, 0)" stroke-opacity="1" stroke-linecap="round" stroke-linejoin="round"/>
    <path d="M 46.02755355834961 187.5690155029297 C 50.33235549926758 165.34693908691406 61.568214416503906 164.38870239257812 70.93617248535156 154.54554748535156 C 33.60633087158203 173.3701934814453 56.526451110839844 160.75015258789062 80.76611328125 143.8540496826172" stroke-width="2.0" fill="none" stroke="rgb(0, 0, 0)" stroke-opacity="1" stroke-linecap="round" stroke-linejoin="round"/>
    <path d="M 183.44189453125 35.072181701660156 C 177.32325744628906 52.57962417602539 170.55564880371094 69.73541259765625 173.191162109375 72.97100067138672 C 185.69146728515625 54.18913650512695 182.22134399414062 38.38301467895508 176.08616638183594 64.25767517089844 C 167.056396484375 35.01884460449219 149.93215942382812 12.184638977050781 152.28298950195312 54.43892288208008" stroke-width="2.0" fill="none" stroke="rgb(0, 0, 0)" stroke-opacity="1" stroke-linecap="round" stroke-linejoin="round"/>
    <path d="M 42.961280822753906 194.12606811523438 C 51.22293472290039 213.11920166015625 44.129974365234375 182.5967559814453 18.88861846923828 203.39476013183594" stroke-width="2.0" fill="none" stroke="rgb(0, 0, 0)" stroke-opacity="1" stroke-linecap="round" stroke-linejoin="round"/>
    <path d="M 167.59634399414062 166.4165802001953 C 179.15748596191406 169.33843994140625 166.90020751953125 166.60177612304688 157.55242919921875 155.33570861816406" stroke-width="2.0" fill="none" stroke="rgb(0, 0, 0)" stroke-opacity="1" stroke-linecap="round" stroke-linejoin="round"/>
    <path d="M 86.16706848144531 196.61212158203125 C 97.82969665527344 164.85354614257812 113.7696762084961 185.12127685546875 92.62471771240234 193.71157836914062 C 127.52130889892578 180.44171142578125 158.5101318359375 185.91119384765625 123.93120574951172 140.79776000976562" stroke-width="2.0" fill="none" stroke="rgb(0, 0, 0)" stroke-opacity="1" stroke-linecap="round" stroke-linejoin="round"/>
    <path d="M 63.559112548828125 170.22010803222656 C 67.80035400390625 180.7769012451172 51.226966857910156 146.49276733398438 55.82912826538086 188.49754333496094 C 27.30464744567871 193.46395874023438 58.28725051879883 158.39462280273438 18.175207138061523 168.36215209960938 C 6.984327793121338 169.0997314453125 6.440221309661865 171.88497924804688 69.86936950683594 159.73788452148438" stroke-width="2.0" fill="none" stroke="rgb(0, 0, 0)" stroke-opacity="1" stroke-linecap="round" stroke-linejoin="round"/>
    <path d="M 11.028027534484863 148.80084228515625 C 54.2176513671875 119.36181640625 57.96303939819336 133.44908142089844 50.59550857543945 137.12147521972656 C 42.63460159301758 162.51844787597656 65.94313049316406 178.31390380859375 40.8262825012207 156.8565673828125 C 55.074283599853516 148.92127990722656 54.60480880737305 193.50875854492188 52.73269271850586 132.3112030029297" stroke-width="2.0" fill="none" stroke="rgb(0, 0, 0)" stroke-opacity="1" stroke-linecap="round" stroke-linejoin="round"/>
    <path d="M -3.5644705295562744 104.15648651123047 C 4.404237747192383 69.37313842773438 22.784212112426758 67.20504760742188 35.56856918334961 67.48521423339844 C 18.3861141204834 67.55839538574219 34.17662048339844 75.61637115478516 24.992435455322266 98.41678619384766 C 23.815433502197266 79.73919677734375 33.97136688232422 96.23970794677734 36.919883728027344 81.18126678466797" stroke-width="2.0" fill="none" stroke="rgb(0, 0, 0)" stroke-opacity="1" stroke-linecap="round" stroke-linejoin="round"/>
    <path d="M 17.888164520263672 72.93540954589844 C 75.32174682617188 57.78268814086914 78.13157653808594 70.09503173828125 48.25341796875 62.8802604675293" stroke-width="2.0" fill="none" stroke="rgb(0, 0, 0)" stroke-opacity="1" stroke-linecap="round" stroke-linejoin="round"/>
    <path d="M 66.62446594238281 193.83590698242188 C 50.316429138183594 217.622314453125 55.02786636352539 234.315185546875 38.9434928894043 234.63967895507812 C 57.358428955078125 228.94342041015625 56.77661895751953 224.187744140625 58.096744537353516 234.33302307128906" stroke-width="2.0" fill="none" stroke="rgb(0, 0, 0)" stroke-opacity="1" stroke-linecap="round" stroke-linejoin="round"/>
    <path d="M 108.92289733886719 38.518165588378906 C 97.66045379638672 48.28542709350586 91.23634338378906 70.88107299804688 102.39623260498047 46.728885650634766" stroke-width="2.0" fill="none" stroke="rgb(0, 0, 0)" stroke-opacity="1" stroke-linecap="round" stroke-linejoin="round"/>
    <path d="M 172.38546752929688 106.79257202148438 C 167.3251495361328 75.0257797241211 174.75473022460938 48.95943069458008 173.038818359375 91.9962387084961 C 174.78614807128906 67.76753234863281 180.25515747070312 38.78367233276367 177.40115356445312 81.22054290771484" stroke-width="2.0" fill="none" stroke="rgb(0, 0, 0)" stroke-opacity="1" stroke-linecap="round" stroke-linejoin="round"/>
    <path d="M 7.6172776222229 74.92675018310547 C -14.273833274841309 99.91848754882812 11.540531158447266 74.18242645263672 36.01613235473633 62.666080474853516 C -0.34007778763771057 62.34650421142578 23.428255081176758 85.2553482055664 -0.13943281769752502 72.84054565429688" stroke-width="2.0" fill="none" stroke="rgb(0, 0, 0)" stroke-opacity="1" stroke-linecap="round" stroke-linejoin="round"/>
    <path d="M 119.47975158691406 149.92779541015625 C 135.83468627929688 136.54429626464844 108.91454315185547 159.56405639648438 100.81591033935547 145.6898193359375 C 140.0463104248047 158.08251953125 105.65936279296875 148.41427612304688 101.66615295410156 131.9869842529297" stroke-width="2.0" fill="none" stroke="rgb(0, 0, 0)" stroke-opacity="1" stroke-linecap="round" stroke-linejoin="round"/>
    <path d="M 122.8821792602539 26.075788497924805 C 135.24978637695312 25.454044342041016 108.46150207519531 33.33574676513672 117.86262512207031 32.921878814697266 C 103.78519439697266 45.82389831542969 88.6222152709961 42.45581817626953 129.953369140625 22.308631896972656" stroke-width="2.0" fill="none" stroke="rgb(0, 0, 0)" stroke-opacity="1" stroke-linecap="round" stroke-linejoin="round"/>
    <path d="M 87.46637725830078 29.04963493347168 C 46.94809341430664 26.84321403503418 64.92426300048828 11.661762237548828 69.23171997070312 50.163665771484375 C 60.37225341796875 43.046138763427734 76.9024429321289 16.346961975097656 46.00895309448242 39.75143814086914" stroke-width="2.0" fill="none" stroke="rgb(0, 0, 0)" stroke-opacity="1" stroke-linecap="round" stroke-linejoin="round"/>
    <path d="M 193.4050750732422 92.7691650390625 C 182.8394775390625 128.53067016601562 199.81723022460938 120.8194808959961 194.69493103027344 121.95926666259766" stroke-width="2.0" fill="none" stroke="rgb(0, 0, 0)" stroke-opacity="1" stroke-linecap="round" stroke-linejoin="round"/>
    <path d="M 35.894195556640625 157.69631958007812 C 24.347209930419922 167.55435180664062 8.017619132995605 171.31430053710938 -1.4306596517562866 186.44081115722656 C 28.6512451171875 160.21621704101562 78.85160064697266 151.5917205810547 47.84580993652344 172.32867431640625" stroke-width="2.0" fill="none" stroke="rgb(0, 0, 0)" stroke-opacity="1" stroke-linecap="round" stroke-linejoin="round"/>
    <path d="M 226.40103149414062 175.27622985839844 C 225.586181640625 139.19171142578125 252.69622802734375 146.51231384277344 266.77203369140625 153.263427734375" stroke-width="2.0" fill="none" stroke="rgb(0, 0, 0)" stroke-opacity="1" stroke-linecap="round" stroke-linejoin="round"/>
    <path d="M 129.153564453125 152.9971466064453 C 144.4584197998047 172.90101623535156 134.94252014160156 165.50099182128906 129.9288330078125 155.29391479492188" stroke-width="2.0" fill="none" stroke="rgb(0, 0, 0)" stroke-opacity="1" stroke-linecap="round" stroke-linejoin="round"/>
    <path d="M 7.900208950042725 34.91631317138672 C 2.24516224861145 56.306793212890625 -1.4417682886123657 68.6482162475586 -17.88710594177246 41.55315017700195 C -7.247065544128418 59.5610466003418 31.61598014831543 66.27737426757812 4.163045883178711 47.31694030761719 C 0.9855444431304932 47.59770965576172 -19.78020477294922 21.912878036499023 7.923597812652588 45.4053955078125" stroke-width="2.0" fill="none" stroke="rgb(0, 0, 0)" stroke-opacity="1" stroke-linecap="round" stroke-linejoin="round"/>
    <path d="M 105.49340057373047 73.36178588867188 C 116.0774917602539 116.43260955810547 105.42890167236328 58.10015106201172 103.53694152832031 86.78975677490234 C 106.02777862548828 85.16102600097656 93.3829574584961 105.76164245605469 114.61579895019531 114.44389343261719" stroke-width="2.0" fill="none" stroke="rgb(0, 0, 0)" stroke-opacity="1" stroke-linecap="round" stroke-linejoin="round"/>
    <path d="M 10.296401023864746 36.849998474121094 C 17.109825134277344 32.83018493652344 53.767425537109375 21.28293228149414 23.763357162475586 24.61756706237793 C -5.497303485870361 59.30507278442383 0.5386719703674316 69.22554779052734 -8.18083667755127 67.29712677001953" stroke-width="2.0" fill="none" stroke="rgb(0, 0, 0)" stroke-opacity="1" stroke-linecap="round" stroke-linejoin="round"/>
    <path d="M 199.26568603515625 152.2613983154297 C 181.968994140625 143.20761108398438 200.9657745361328 148.72616577148438 206.4754180908203 150.29473876953125 C 201.1944580078125 143.9144287109375 192.31741333007812 158.6365966796875 156.50918579101562 167.47512817382812 C 170.58155822753906 164.755859375 168.80673217773438 161.8828125 198.07412719726562 149.94456481933594" stroke-width="2.0" fill="none" stroke="rgb(0, 0, 0)" stroke-opacity="1" stroke-linecap="round" stroke-linejoin="round"/>
    <path d="M 38.317161560058594 194.0632781982422 C 98.34486389160156 186.05479431152344 110.01148986816406 187.37118530273438 85.22237396240234 186.748046875 C 123.87703704833984 193.71343994140625 99.88334655761719 194.11300659179688 97.03140258789062 180.802978515625 C 86.24959564208984 202.5657501220703 113.45338439941406 173.07760620117188 123.31934356689453 192.54380798339844" stroke-width="2.0" fill="none" stroke="rgb(0, 0, 0)" stroke-opacity="1" stroke-linecap="round" stroke-linejoin="round"/>
    <path d="M 70.20301055908203 -1.1779098510742188 C 75.40388488769531 -14.795228958129883 72.87007904052734 -7.4828033447265625 84.17607879638672 28.995731353759766 C 74.10719299316406 -8.034500122070312 78.30152130126953 -15.635859489440918 82.60438537597656 27.884992599487305 C 29.439695358276367 27.8403263092041 63.73843765258789 32.08225631713867 85.70521545410156 28.722383499145508" stroke-width="2.0" fill="none" stroke="rgb(0, 0, 0)" stroke-opacity="1" stroke-linecap="round" stroke-linejoin="round"/>
    <path d="M 41.513431549072266 45.403526306152344 C 32.96902084350586 55.66310119628906 33.60871887207031 48.00735092163086 32.449275970458984 62.75376510620117 C 42.72224044799805 48.28032302856445 53.657440185546875 18.24700164794922 34.581634521484375 59.26200485229492" stroke-width="2.0" fill="none" stroke="rgb(0, 0, 0)" stroke-opacity="1" stroke-linecap="round" stroke-linejoin="round"/>
    <path d="M 104.655029296875 -12.5625581741333 C 116.9617919921875 15.383028030395508 99.34371948242188 12.875114440917969 106.78501892089844 15.561494827270508" stroke-width="2.0" fill="none" stroke="rgb(0, 0, 0)" stroke-opacity="1" stroke-linecap="round" stroke-linejoin="round"/>
    <path d="M 176.97544860839844 113.97006225585938 C 201.64599609375 123.60137939453125 165.4369354248047 112.22755432128906 162.38565063476562 118.34278869628906" stroke-width="2.0" fill="none" stroke="rgb(0, 0, 0)" stroke-opacity="1" stroke-linecap="round" stroke-linejoin="round"/>
    <path d="M 103.20565032958984 -1.668626070022583 C 98.01605987548828 -10.61023235321045 95.64726257324219 -9.515703201293945 93.82366943359375 -16.568878173828125 C 96.99967956542969 -20.15520477294922 108.1490478515625 -15.99464225769043 117.82695770263672 -5.654083251953125" stroke-width="2.0" fill="none" stroke="rgb(0, 0, 0)" stroke-opacity="1" stroke-linecap="round" stroke-linejoin="round"/>
    <path d="M 49.49081039428711 178.1587677001953 C 73.1877670288086 147.53297424316406 88.04486083984375 153.0963134765625 74.9059066772461 151.11581420898438 C 90.5537338256836 169.19068908691406 78.06201934814453 201.75282287597656 81.980712890625 201.50167846679688" stroke-width="2.0" fill="none" stroke="rgb(0, 0, 0)" stroke-opacity="1" stroke-linecap="round" stroke-linejoin="round"/>
    <path d="M 129.69076538085938 155.25631713867188 C 122.0694580078125 159.47584533691406 124.00955200195312 179.47015380859375 128.7244873046875 157.92262268066406 C 120.8404541015625 153.20556640625 151.0730438232422 153.16822814941406 128.70631408691406 141.19981384277344" stroke-width="2.0" fill="none" stroke="rgb(0, 0, 0)" stroke-opacity="1" stroke-linecap="round" stroke-linejoin="round"/>
    <path d="M 135.92568969726562 16.355308532714844 C 111.4756851196289 35.947322845458984 167.95294189453125 21.82899284362793 130.4082794189453 15.583223342895508" stroke-width="2.0" fill="none" stroke="rgb(0, 0, 0)" stroke-opacity="1" stroke-linecap="round" stroke-linejoin="round"/>
    <path d="M 160.05551147460938 233.084716796875 C 162.09317016601562 226.7073516845703 162.86758422851562 210.4591064453125 180.54983520507812 192.21212768554688 C 176.5264892578125 198.4149169921875 185.75216674804688 181.98446655273438 208.17250061035156 180.09715270996094 C 208.42730712890625 182.3889923095703 180.13113403320312 177.73114013671875 168.04705810546875 200.7345733642578" stroke-width="2.0" fill="none" stroke="rgb(0, 0, 0)" stroke-opacity="1" stroke-linecap="round" stroke-linejoin="round"/>
    <path d="M 122.22189331054688 204.92843627929688 C 106.30644989013672 192.34043884277344 99.37095642089844 201.30123901367188 91.04113006591797 207.690673828125 C 86.26824951171875 225.71517944335938 99.0784912109375 206.25245666503906 91.91410064697266 192.7910919189453" stroke-width="2.0" fill="none" stroke="rgb(0, 0, 0)" stroke-opacity="1" stroke-linecap="round" stroke-linejoin="round"/>
    <path d="M 179.70887756347656 147.79605102539062 C 187.00039672851562 124.42123413085938 220.1802520751953 111.3150634765625 218.0478057861328 118.62924194335938 C 217.5899658203125 154.62451171875 237.7513885498047 150.4131622314453 231.77479553222656 138.8695526123047" stroke-width="2.0" fill="none" stroke="rgb(0, 0, 0)" stroke-opacity="1" stroke-linecap="round" stroke-linejoin="round"/>
    <path d="M 75.42247772216797 153.36557006835938 C 68.47090148925781 159.9711456298828 82.2630386352539 147.2720489501953 103.22894287109375 146.06600952148438 C 88.37403106689453 129.7871551513672 76.14680480957031 133.38693237304688 83.11861419677734 161.01083374023438" stroke-width="2.0" fill="none" stroke="rgb(0, 0, 0)" stroke-opacity="1" stroke-linecap="round" stroke-linejoin="round"/>
    <path d="M 57.21300506591797 94.77262115478516 C 52.98776626586914 140.53961181640625 57.889034271240234 168.21861267089844 35.057525634765625 152.9141082763672" stroke-width="2.0" fill="none" stroke="rgb(0, 0, 0)" stroke-opacity="1" stroke-linecap="round" stroke-linejoin="round"/>
    <path d="M 133.73240661621094 118.3944091796875 C 136.64273071289062 94.50358581542969 123.036865234375 92.64789581298828 132.74708557128906 76.3192138671875 C 97.27594757080078 64.01487731933594 100.49011993408203 59.48625564575195 152.17559814453125 87.4928970336914" stroke-width="2.0" fill="none" stroke="rgb(0, 0, 0)" stroke-opacity="1" stroke-linecap="round" stroke-linejoin="round"/>
    <path d="M 205.98883056640625 25.78538703918457 C 193.32522583007812 6.694917678833008 219.74557495117188 26.681013107299805 202.354248046875 -5.818286895751953" stroke-width="2.0" fill="none" stroke="rgb(0, 0, 0)" stroke-opacity="1" stroke-linecap="round" stroke-linejoin="round"/>
    <path d="M 212.09295654296875 182.215576171875 C 186.5556640625 154.95138549804688 209.0138397216797 141.2252960205078 204.11265563964844 145.66139221191406 C 193.1475372314453 163.3423614501953 195.46353149414062 138.50099182128906 226.7945556640625 152.70062255859375" stroke-width="2.0" fill="none" stroke="rgb(0, 0, 0)" stroke-opacity="1" stroke-linecap="round" stroke-linejoin="round"/>
    <path d="M 108.30848693847656 49.99290084838867 C 102.76945495605469 35.513221740722656 103.69551086425781 51.032901763916016 87.09850311279297 70.23531341552734" stroke-width="2.0" fill="none" stroke="rgb(0, 0, 0)" stroke-opacity="1" stroke-linecap="round" stroke-linejoin="round"/>
    <path d="M 18.61228370666504 165.2089385986328 C 25.70817756652832 171.5096893310547 6.401869773864746 170.90390014648438 2.550321340560913 194.9219207763672 C -3.6530561447143555 179.52334594726562 -7.3023295402526855 190.53890991210938 -12.835536003112793 212.666015625 C -4.095020771026611 210.0073699951172 -7.185699939727783 215.55860900878906 -5.108363151550293 221.72055053710938" stroke-width="2.0" fill="none" stroke="rgb(0, 0, 0)" stroke-opacity="1" stroke-linecap="round" stroke-linejoin="round"/>
    <path d="M 132.3795166015625 161.75775146484375 C 135.9207000732422 169.2295379638672 159.07781982421875 168.38706970214844 135.1688232421875 178.47805786132812" stroke-width="2.0" fill="none" stroke="rgb(0, 0, 0)" stroke-opacity="1" stroke-linecap="round" stroke-linejoin="round"/>
    <path d="M 110.73672485351562 193.00033569335938 C 111.24107360839844 211.74545288085938 109.16221618652344 179.26133728027344 82.46236419677734 194.77236938476562 C 93.7001724243164 193.67013549804688 87.38601684570312 186.23011779785156 75.54596710205078 196.59002685546875" stroke-width="2.0" fill="none" stroke="rgb(0, 0, 0)" stroke-opacity="1" stroke-linecap="round" stroke-linejoin="round"/>
    <path d="M 177.06344604492188 166.13331604003906 C 174.89723205566406 160.7928009033203 152.3461151123047 160.13571166992188 149.75950622558594 168.80079650878906 C 150.6165313720703 169.18553161621094 166.6907501220703 169.61074829101562 173.83792114257812 158.49319458007812" stroke-width="2.0" fill="none" stroke="rgb(0, 0, 0)" stroke-opacity="1" stroke-linecap="round" stroke-linejoin="round"/>
    <path d="M 36.428688049316406 80.32150268554688 C 28.778566360473633 62.3641357421875 34.13716125488281 60.810096740722656 42.1722526550293 50.383609771728516 C 27.12790298461914 75.2884750366211 13.943731307983398 76.25443267822266 -4.053600788116455 82.42790985107422 C 26.01228904724121 59.482444763183594 29.41603660583496 79.29174041748047 19.453025817871094 65.90630340576172" stroke-width="2.0" fill="none" stroke="rgb(0, 0, 0)" stroke-opacity="1" stroke-linecap="round" stroke-linejoin="round"/>
    <path d="M 83.49235534667969 63.13677215576172 C 97.52389526367188 80.27518463134766 88.6579360961914 74.52437591552734 97.7510757446289 70.35509490966797 C 70.06564331054688 85.33051300048828 65.88185119628906 86.42849731445312 64.98844146728516 112.07261657714844" stroke-width="2.0" fill="none" stroke="rgb(0, 0, 0)" stroke-opacity="1" stroke-linecap="round" stroke-linejoin="round"/>
    <path d="M 49.70156478881836 140.73712158203125 C 44.880985260009766 147.14675903320312 47.12870407104492 151.91995239257812 49.20058059692383 152.2150421142578 C 49.893035888671875 143.1766815185547 50.70742416381836 108.68278503417969 58.14198303222656 142.0331573486328" stroke-width="2.0" fill="none" stroke="rgb(0, 0, 0)" stroke-opacity="1" stroke-linecap="round" stroke-linejoin="round"/>
    <path d="M 50.787193298339844 106.35838317871094 C 52.116695404052734 149.68792724609375 56.363224029541016 149.19686889648438 51.15712356567383 100.20768737792969 C 42.539024353027344 124.92715454101562 54.52067184448242 143.88243103027344 49.814273834228516 157.8560791015625 C 59.00177001953125 137.67701721191406 50.59728240966797 94.55133056640625 35.65730667114258 102.38420104980469" stroke-width="2.0" fill="none" stroke="rgb(0, 0, 0)" stroke-opacity="1" stroke-linecap="round" stroke-linejoin="round"/>
    <path d="M 32.38400650024414 118.69572448730469 C 36.365604400634766 83.14028930664062 43.81792449951172 111.01463317871094 28.81475257873535 105.8934326171875" stroke-width="2.0" fill="none" stroke="rgb(0, 0, 0)" stroke-opacity="1" stroke-linecap="round" stroke-linejoin="round"/>
    <path d="M 56.815975189208984 101.38388061523438 C 9.391971588134766 109.51010131835938 34.68461990356445 110.05242919921875 28.063426971435547 90.3304672241211 C 21.676246643066406 98.54576110839844 57.58970260620117 119.36294555664062 32.12896728515625 103.43364715576172 C -6.588685035705566 115.06769561767578 30.599580764770508 116.5458984375 12.384787559509277 135.41934204101562" stroke-width="2.0" fill="none" stroke="rgb(0, 0, 0)" stroke-opacity="1" stroke-linecap="round" stroke-linejoin="round"/>
    <path d="M 116.63158416748047 57.1567268371582 C 122.61890411376953 41.10173797607422 110.2394027709961 27.814149856567383 111.95012664794922 34.37908935546875 C 90.91708374023438 44.7946662902832 105.84722137451172 49.75054931640625 110.7493667602539 36.31428527832031 C 104.9177474975586 46.67280960083008 105.29734802246094 43.925079345703125 97.2861328125 48.78744888305664" stroke-width="2.0" fill="none" stroke="rgb(0, 0, 0)" stroke-opacity="1" stroke-linecap="round" stroke-linejoin="round"/>
    <path d="M 132.0679168701172 20.28223991394043 C 100.77803802490234 38.64952087402344 116.12464141845703 19.02263832092285 154.40963745117188 24.892913818359375" stroke-width="2.0" fill="none" stroke="rgb(0, 0, 0)" stroke-opacity="1" stroke-linecap="round" stroke-linejoin="round"/>
    <path d="M 201.13140869140625 119.68324279785156 C 195.43975830078125 135.86569213867188 187.08447265625 111.29537963867188 200.1183319091797 130.0342559814453" stroke-width="2.0" fill="none" stroke="rgb(0, 0, 0)" stroke-opacity="1" stroke-linecap="round" stroke-linejoin="round"/>
    <path d="M 240.45628356933594 98.97489166259766 C 234.59332275390625 90.72782135009766 211.55709838867188 102.23302459716797 196.7203826904297 87.10066986083984" stroke-width="2.0" fill="none" stroke="rgb(0, 0, 0)" stroke-opacity="1" stroke-linecap="round" stroke-linejoin="round"/>
    <path d="M 69.9410171508789 129.3074493408203 C 33.928863525390625 124.53494262695312 68.66605377197266 138.5502166748047 58.069705963134766 142.2747802734375" stroke-width="2.0" fill="none" stroke="rgb(0, 0, 0)" stroke-opacity="1" stroke-linecap="round" stroke-linejoin="round"/>
  </g>
</svg>
