<?xml version="1.0" ?>
<svg xmlns="http://www.w3.org/2000/svg" version="1.1" width="224" height="224">
  <defs/>
  <g>
    <path d="M 99.1713638305664 105.46514129638672 C 54.49613952636719 97.3143310546875 89.49101257324219 112.44703674316406 87.29137420654297 125.34219360351562" stroke-width="2.0" fill="none" stroke="rgb(0, 0, 0)" stroke-opacity="1" stroke-linecap="round" stroke-linejoin="round"/>
    <path d="M 12.351092338562012 9.525118827819824 C 38.2254753112793 20.33256721496582 27.85221290588379 16.94615936279297 33.177085876464844 21.62496566772461 C 11.904963493347168 -11.23410415649414 21.05213737487793 0.8939805626869202 39.71525573730469 29.184480667114258" stroke-width="2.0" fill="none" stroke="rgb(0, 0, 0)" stroke-opacity="1" stroke-linecap="round" stroke-linejoin="round"/>
    <path d="M 182.61099243164062 145.03834533691406 C 164.44407653808594 154.7924346923828 178.72024536132812 159.94525146484375 175.52218627929688 139.07058715820312 C 188.9639434814453 133.79818725585938 212.1592559814453 132.60105895996094 204.08352661132812 131.3373260498047 C 207.48326110839844 127.67134857177734 186.33621215820312 132.80908203125 160.61610412597656 111.199951171875" stroke-width="2.0" fill="none" stroke="rgb(0, 0, 0)" stroke-opacity="1" stroke-linecap="round" stroke-linejoin="round"/>
    <path d="M 94.52619171142578 56.21342468261719 C 84.6794204711914 37.80329132080078 81.66832733154297 62.643577575683594 92.6539306640625 85.56741333007812 C 99.7384262084961 83.38004302978516 100.13545989990234 87.07172393798828 95.80587768554688 84.83914184570312" stroke-width="2.0" fill="none" stroke="rgb(0, 0, 0)" stroke-opacity="1" stroke-linecap="round" stroke-linejoin="round"/>
    <path d="M 65.76168060302734 127.09295654296875 C 61.03236389160156 136.86483764648438 55.26841354370117 123.2645034790039 61.40169143676758 138.8597869873047 C 73.2297134399414 142.366455078125 62.81802749633789 127.44789123535156 66.96662902832031 139.6763153076172 C 79.59619140625 128.800048828125 78.33807373046875 140.83326721191406 59.76833724975586 121.44390869140625" stroke-width="2.0" fill="none" stroke="rgb(0, 0, 0)" stroke-opacity="1" stroke-linecap="round" stroke-linejoin="round"/>
    <path d="M 57.926509857177734 156.34072875976562 C 42.8424072265625 165.8673858642578 55.17287826538086 162.2402801513672 54.903594970703125 160.52017211914062 C 68.05033874511719 184.6650390625 67.23452758789062 181.83828735351562 77.4754867553711 179.23452758789062" stroke-width="2.0" fill="none" stroke="rgb(0, 0, 0)" stroke-opacity="1" stroke-linecap="round" stroke-linejoin="round"/>
    <path d="M 139.8295135498047 126.66950988769531 C 129.87356567382812 119.86268615722656 126.47318267822266 116.9029541015625 116.64734649658203 135.03695678710938" stroke-width="2.0" fill="none" stroke="rgb(0, 0, 0)" stroke-opacity="1" stroke-linecap="round" stroke-linejoin="round"/>
    <path d="M 21.971281051635742 78.94255828857422 C 27.806608200073242 70.23350524902344 14.10898208618164 92.04267883300781 18.42399787902832 55.800567626953125 C 25.668119430541992 91.93215942382812 18.85914421081543 59.397830963134766 18.981595993041992 79.33000946044922" stroke-width="2.0" fill="none" stroke="rgb(0, 0, 0)" stroke-opacity="1" stroke-linecap="round" stroke-linejoin="round"/>
    <path d="M 173.5188751220703 200.85806274414062 C 211.6957244873047 214.0566864013672 212.5275421142578 217.98146057128906 182.95396423339844 228.7087860107422 C 197.3231658935547 228.99697875976562 192.44398498535156 229.2581024169922 187.36778259277344 229.13040161132812" stroke-width="2.0" fill="none" stroke="rgb(0, 0, 0)" stroke-opacity="1" stroke-linecap="round" stroke-linejoin="round"/>
    <path d="M 135.6454620361328 143.5589141845703 C 152.91485595703125 128.0845489501953 174.41307067871094 127.70228576660156 188.80282592773438 131.6890411376953 C 170.7559814453125 125.8326187133789 155.6002960205078 111.2737808227539 150.93182373046875 103.65797424316406 C 166.1160430908203 104.45451354980469 177.06924438476562 88.83251190185547 188.57313537597656 92.93620300292969" stroke-width="2.0" fill="none" stroke="rgb(0, 0, 0)" stroke-opacity="1" stroke-linecap="round" stroke-linejoin="round"/>
    <path d="M 66.97041320800781 127.24474334716797 C 48.85884094238281 115.4808120727539 64.71784973144531 124.71128845214844 35.061279296875 131.4912109375 C 20.57421875 147.29356384277344 40.15367889404297 158.73558044433594 38.04589080810547 144.34019470214844" stroke-width="2.0" fill="none" stroke="rgb(0, 0, 0)" stroke-opacity="1" stroke-linecap="round" stroke-linejoin="round"/>
    <path d="M -6.063648223876953 61.323448181152344 C -13.610855102539062 64.95600128173828 -2.588850975036621 81.85086822509766 -10.23755931854248 78.48741912841797 C -7.741134166717529 94.19649505615234 18.153696060180664 107.2750015258789 14.441365242004395 90.48580932617188 C 24.86603546142578 91.2451171875 2.557023763656616 93.82840728759766 -22.97283935546875 98.30509185791016" stroke-width="2.0" fill="none" stroke="rgb(0, 0, 0)" stroke-opacity="1" stroke-linecap="round" stroke-linejoin="round"/>
    <path d="M -1.3363207578659058 122.2082748413086 C 0.9966554641723633 136.99246215820312 1.076035976409912 134.22569274902344 38.48073196411133 131.5602264404297 C 49.684417724609375 143.92959594726562 51.11859130859375 156.24839782714844 8.672571182250977 150.5652313232422" stroke-width="2.0" fill="none" stroke="rgb(0, 0, 0)" stroke-opacity="1" stroke-linecap="round" stroke-linejoin="round"/>
    <path d="M 9.076737403869629 208.0854034423828 C -31.09590721130371 198.475341796875 -10.708346366882324 207.6494903564453 -12.344579696655273 211.39418029785156 C -8.310478210449219 210.98574829101562 -4.472786903381348 221.95042419433594 -8.79428768157959 212.40826416015625" stroke-width="2.0" fill="none" stroke="rgb(0, 0, 0)" stroke-opacity="1" stroke-linecap="round" stroke-linejoin="round"/>
    <path d="M 229.3098907470703 194.30712890625 C 229.90823364257812 206.83578491210938 231.08538818359375 196.8037109375 233.56439208984375 190.0375518798828 C 243.05368041992188 178.91993713378906 239.69224548339844 176.45834350585938 244.16000366210938 167.36795043945312 C 250.30789184570312 159.78610229492188 241.2097930908203 166.1290740966797 231.3555450439453 163.04678344726562" stroke-width="2.0" fill="none" stroke="rgb(0, 0, 0)" stroke-opacity="1" stroke-linecap="round" stroke-linejoin="round"/>
    <path d="M 213.35125732421875 181.28138732910156 C 213.15460205078125 194.75303649902344 213.05194091796875 187.58705139160156 213.06729125976562 157.72169494628906 C 212.66110229492188 158.25875854492188 244.29074096679688 156.2018585205078 246.1447296142578 166.88819885253906" stroke-width="2.0" fill="none" stroke="rgb(0, 0, 0)" stroke-opacity="1" stroke-linecap="round" stroke-linejoin="round"/>
    <path d="M 9.12865161895752 59.30027770996094 C 27.791242599487305 58.40943908691406 21.375539779663086 22.885021209716797 8.839773178100586 30.446279525756836 C -1.3202097415924072 40.834896087646484 10.055880546569824 53.08040237426758 10.292329788208008 48.8155403137207 C 4.631008625030518 37.3345947265625 17.287391662597656 48.89503860473633 9.621492385864258 50.682796478271484" stroke-width="2.0" fill="none" stroke="rgb(0, 0, 0)" stroke-opacity="1" stroke-linecap="round" stroke-linejoin="round"/>
    <path d="M 135.5764923095703 109.77059936523438 C 151.0109405517578 126.86664581298828 134.17422485351562 102.10678100585938 126.6365966796875 109.95977783203125" stroke-width="2.0" fill="none" stroke="rgb(0, 0, 0)" stroke-opacity="1" stroke-linecap="round" stroke-linejoin="round"/>
    <path d="M 185.09393310546875 69.4378433227539 C 228.8033905029297 54.75461959838867 215.68507385253906 42.743682861328125 208.42990112304688 49.831546783447266 C 231.18185424804688 49.42247009277344 208.11148071289062 65.27952575683594 194.20614624023438 69.63912963867188" stroke-width="2.0" fill="none" stroke="rgb(0, 0, 0)" stroke-opacity="1" stroke-linecap="round" stroke-linejoin="round"/>
    <path d="M 90.45125579833984 42.363243103027344 C 78.5656967163086 39.27810287475586 86.35668182373047 76.203857421875 96.12908935546875 82.6067123413086 C 85.44790649414062 72.89344024658203 95.25006103515625 84.34828186035156 96.5440444946289 80.54044342041016 C 91.6965103149414 89.50749206542969 80.90601348876953 34.66144561767578 89.4808578491211 38.313514709472656" stroke-width="2.0" fill="none" stroke="rgb(0, 0, 0)" stroke-opacity="1" stroke-linecap="round" stroke-linejoin="round"/>
    <path d="M 159.08685302734375 193.363525390625 C 156.36781311035156 211.05181884765625 171.9650421142578 192.74911499023438 152.83006286621094 184.492919921875 C 170.23849487304688 202.04920959472656 152.74102783203125 205.8158416748047 148.99447631835938 201.13038635253906" stroke-width="2.0" fill="none" stroke="rgb(0, 0, 0)" stroke-opacity="1" stroke-linecap="round" stroke-linejoin="round"/>
    <path d="M 66.75774383544922 168.18185424804688 C 44.55841827392578 182.36505126953125 39.58052444458008 184.6680145263672 38.775081634521484 178.3003387451172 C 49.834110260009766 179.561279296875 58.4183349609375 171.8169403076172 50.733795166015625 174.9297332763672" stroke-width="2.0" fill="none" stroke="rgb(0, 0, 0)" stroke-opacity="1" stroke-linecap="round" stroke-linejoin="round"/>
    <path d="M 143.26007080078125 164.4995574951172 C 141.87799072265625 173.15206909179688 159.52777099609375 161.287841796875 155.4072265625 164.19398498535156 C 162.51614379882812 148.16383361816406 152.48866271972656 155.55984497070312 157.64968872070312 168.5292510986328" stroke-width="2.0" fill="none" stroke="rgb(0, 0, 0)" stroke-opacity="1" stroke-linecap="round" stroke-linejoin="round"/>
    <path d="M 102.33042907714844 156.3206329345703 C 106.8098373413086 154.49285888671875 56.72789001464844 181.0367889404297 105.04444122314453 162.02099609375 C 76.2417984008789 144.87533569335938 65.38379669189453 168.7164306640625 88.07865142822266 154.61859130859375" stroke-width="2.0" fill="none" stroke="rgb(0, 0, 0)" stroke-opacity="1" stroke-linecap="round" stroke-linejoin="round"/>
    <path d="M 98.11891174316406 100.71432495117188 C 80.43060302734375 91.23714447021484 91.46465301513672 90.01253509521484 81.90979766845703 98.66595458984375 C 94.93529510498047 107.12149810791016 102.43238067626953 105.0278549194336 83.73872375488281 96.44331359863281 C 76.97376251220703 111.56786346435547 63.17167663574219 106.90095520019531 92.06818389892578 113.0586929321289" stroke-width="2.0" fill="none" stroke="rgb(0, 0, 0)" stroke-opacity="1" stroke-linecap="round" stroke-linejoin="round"/>
    <path d="M 147.49266052246094 41.511871337890625 C 166.04039001464844 36.7353515625 153.39356994628906 41.44063949584961 140.51266479492188 41.675167083740234 C 151.5980224609375 41.358497619628906 166.64430236816406 41.013912200927734 148.97808837890625 30.50546646118164" stroke-width="2.0" fill="none" stroke="rgb(0, 0, 0)" stroke-opacity="1" stroke-linecap="round" stroke-linejoin="round"/>
    <path d="M 157.75839233398438 107.89881134033203 C 145.34234619140625 105.43385314941406 178.51556396484375 128.29925537109375 177.688232421875 129.6057586669922 C 166.7147216796875 129.50648498535156 170.72171020507812 129.42999267578125 174.5829315185547 142.3768768310547 C 179.76980590820312 138.99000549316406 191.180419921875 134.3794403076172 175.7649383544922 138.58753967285156" stroke-width="2.0" fill="none" stroke="rgb(0, 0, 0)" stroke-opacity="1" stroke-linecap="round" stroke-linejoin="round"/>
    <path d="M 180.65097045898438 189.60421752929688 C 157.47830200195312 174.83041381835938 175.99642944335938 190.42767333984375 175.3059539794922 195.70623779296875 C 163.50897216796875 176.09783935546875 179.1107635498047 169.0153045654297 199.70237731933594 190.85446166992188 C 157.17428588867188 160.64283752441406 173.363037109375 193.83279418945312 177.60577392578125 208.3863067626953" stroke-width="2.0" fill="none" stroke="rgb(0, 0, 0)" stroke-opacity="1" stroke-linecap="round" stroke-linejoin="round"/>
    <path d="M 5.847177505493164 21.88718032836914 C 34.32308578491211 35.199951171875 22.18268585205078 44.50117874145508 20.02277183532715 59.935726165771484 C 28.30385971069336 71.79273986816406 9.585480690002441 67.27566528320312 -7.974721431732178 63.909767150878906 C 9.101174354553223 94.81719207763672 18.970224380493164 62.10814666748047 6.503025531768799 72.30095672607422" stroke-width="2.0" fill="none" stroke="rgb(0, 0, 0)" stroke-opacity="1" stroke-linecap="round" stroke-linejoin="round"/>
    <path d="M 19.363679885864258 162.07733154296875 C 14.200989723205566 179.6809844970703 -2.170372247695923 161.12818908691406 19.204593658447266 165.2080535888672 C 11.640029907226562 198.19883728027344 24.776100158691406 217.76480102539062 20.933990478515625 213.74143981933594" stroke-width="2.0" fill="none" stroke="rgb(0, 0, 0)" stroke-opacity="1" stroke-linecap="round" stroke-linejoin="round"/>
    <path d="M 217.8376007080078 92.13104248046875 C 192.20114135742188 91.06390380859375 198.94805908203125 91.85879516601562 191.44107055664062 90.98660278320312 C 202.00375366210938 103.3338623046875 216.10415649414062 102.4453125 215.3805389404297 102.80462646484375" stroke-width="2.0" fill="none" stroke="rgb(0, 0, 0)" stroke-opacity="1" stroke-linecap="round" stroke-linejoin="round"/>
    <path d="M 84.77745056152344 121.58687591552734 C 88.71644592285156 120.370361328125 95.06358337402344 136.1562042236328 77.27962493896484 141.8511962890625 C 75.14629364013672 153.1238250732422 110.776611328125 126.12586212158203 66.87726593017578 113.98448181152344 C 71.97010040283203 137.41871643066406 86.07471466064453 131.86102294921875 78.87358856201172 126.68623352050781" stroke-width="2.0" fill="none" stroke="rgb(0, 0, 0)" stroke-opacity="1" stroke-linecap="round" stroke-linejoin="round"/>
    <path d="M 80.9410171508789 225.09568786621094 C 74.5503158569336 239.23309326171875 92.33785247802734 233.18658447265625 82.48876953125 224.16995239257812 C 81.58524322509766 251.3350372314453 79.81181335449219 256.1499328613281 85.35523223876953 259.03271484375 C 93.30567169189453 237.36111450195312 101.13034057617188 226.2484893798828 106.413818359375 228.74827575683594" stroke-width="2.0" fill="none" stroke="rgb(0, 0, 0)" stroke-opacity="1" stroke-linecap="round" stroke-linejoin="round"/>
    <path d="M 150.95945739746094 161.91766357421875 C 149.50442504882812 147.631591796875 154.69105529785156 170.17633056640625 152.1757049560547 161.45697021484375 C 164.0800323486328 165.52633666992188 166.98118591308594 157.3099365234375 160.80062866210938 161.3740234375 C 147.33721923828125 170.9806365966797 147.85995483398438 161.27789306640625 171.9165496826172 159.27981567382812" stroke-width="2.0" fill="none" stroke="rgb(0, 0, 0)" stroke-opacity="1" stroke-linecap="round" stroke-linejoin="round"/>
    <path d="M 134.87890625 11.603202819824219 C 155.53590393066406 -17.307498931884766 150.72869873046875 14.399895668029785 157.42922973632812 -1.9381295442581177 C 138.6282501220703 11.679173469543457 148.23397827148438 19.744892120361328 162.95645141601562 6.052063941955566" stroke-width="2.0" fill="none" stroke="rgb(0, 0, 0)" stroke-opacity="1" stroke-linecap="round" stroke-linejoin="round"/>
    <path d="M 198.0460968017578 38.035850524902344 C 202.36062622070312 44.04899215698242 197.531005859375 52.5443229675293 211.26490783691406 50.78190994262695 C 212.78643798828125 53.8411750793457 184.1909637451172 68.13130187988281 188.38111877441406 56.50362014770508" stroke-width="2.0" fill="none" stroke="rgb(0, 0, 0)" stroke-opacity="1" stroke-linecap="round" stroke-linejoin="round"/>
    <path d="M 51.299259185791016 174.30517578125 C 59.22500991821289 167.23672485351562 42.21110916137695 185.76776123046875 37.82633972167969 160.4651336669922" stroke-width="2.0" fill="none" stroke="rgb(0, 0, 0)" stroke-opacity="1" stroke-linecap="round" stroke-linejoin="round"/>
    <path d="M 58.759708404541016 26.132097244262695 C 67.73609924316406 29.2365665435791 56.31485366821289 -4.600456714630127 62.865962982177734 -20.91580581665039 C 63.79123306274414 -7.893807411193848 65.55375671386719 -7.570030689239502 66.33114624023438 -6.162895679473877" stroke-width="2.0" fill="none" stroke="rgb(0, 0, 0)" stroke-opacity="1" stroke-linecap="round" stroke-linejoin="round"/>
    <path d="M 147.61264038085938 215.945556640625 C 139.96212768554688 210.97012329101562 147.40074157714844 220.49937438964844 132.768798828125 213.7205810546875" stroke-width="2.0" fill="none" stroke="rgb(0, 0, 0)" stroke-opacity="1" stroke-linecap="round" stroke-linejoin="round"/>
    <path d="M 147.46258544921875 233.9613800048828 C 156.70127868652344 223.41175842285156 166.74273681640625 224.2489471435547 155.36480712890625 230.71859741210938 C 146.92510986328125 231.44981384277344 149.51385498046875 223.8580780029297 156.08929443359375 194.99221801757812" stroke-width="2.0" fill="none" stroke="rgb(0, 0, 0)" stroke-opacity="1" stroke-linecap="round" stroke-linejoin="round"/>
    <path d="M 23.877445220947266 81.0335922241211 C 16.7932186126709 89.96954345703125 6.504782676696777 73.18119049072266 18.005722045898438 95.68679809570312 C -0.3748394250869751 107.92426300048828 0.6796196699142456 69.55650329589844 1.8393950462341309 88.54183197021484" stroke-width="2.0" fill="none" stroke="rgb(0, 0, 0)" stroke-opacity="1" stroke-linecap="round" stroke-linejoin="round"/>
    <path d="M 168.6775665283203 41.82044982910156 C 196.1936492919922 -26.267683029174805 184.39735412597656 -23.18817901611328 191.16615295410156 38.64308166503906 C 191.5661163330078 -13.37443733215332 192.7275848388672 32.13652420043945 210.08660888671875 10.483475685119629" stroke-width="2.0" fill="none" stroke="rgb(0, 0, 0)" stroke-opacity="1" stroke-linecap="round" stroke-linejoin="round"/>
    <path d="M 177.7506561279297 138.50936889648438 C 197.6639404296875 132.240234375 215.44775390625 131.275390625 203.5456085205078 132.8451690673828 C 190.87701416015625 135.46426391601562 175.4482879638672 124.79997253417969 163.25997924804688 116.92292785644531" stroke-width="2.0" fill="none" stroke="rgb(0, 0, 0)" stroke-opacity="1" stroke-linecap="round" stroke-linejoin="round"/>
    <path d="M 98.21526336669922 54.90708923339844 C 107.07706451416016 60.519954681396484 97.2216796875 66.32381439208984 92.2357406616211 61.52899932861328 C 80.5257339477539 41.76785659790039 89.55213928222656 64.80490112304688 87.29824829101562 49.36784362792969" stroke-width="2.0" fill="none" stroke="rgb(0, 0, 0)" stroke-opacity="1" stroke-linecap="round" stroke-linejoin="round"/>
    <path d="M 58.67580795288086 32.28923797607422 C 81.3522720336914 11.643310546875 72.14629364013672 -5.720654487609863 52.884132385253906 13.781286239624023" stroke-width="2.0" fill="none" stroke="rgb(0, 0, 0)" stroke-opacity="1" stroke-linecap="round" stroke-linejoin="round"/>
    <path d="M 191.3957061767578 102.66338348388672 C 173.03662109375 122.59650421142578 189.43321228027344 121.6845474243164 190.33306884765625 101.17810821533203 C 198.71568298339844 104.16409301757812 172.22361755371094 131.28317260742188 212.14080810546875 123.68840789794922" stroke-width="2.0" fill="none" stroke="rgb(0, 0, 0)" stroke-opacity="1" stroke-linecap="round" stroke-linejoin="round"/>
    <path d="M 89.23011779785156 52.907867431640625 C 105.06147766113281 41.769447326660156 83.4583740234375 48.81608581542969 88.35055541992188 50.976871490478516 C 98.93742370605469 52.95688247680664 77.0697250366211 59.78701400756836 90.09412384033203 50.441471099853516" stroke-width="2.0" fill="none" stroke="rgb(0, 0, 0)" stroke-opacity="1" stroke-linecap="round" stroke-linejoin="round"/>
    <path d="M 29.908010482788086 90.29234313964844 C 4.341710567474365 94.7431869506836 40.20557403564453 77.840087890625 22.846755981445312 90.86863708496094 C 20.5677433013916 71.7370376586914 16.29479217529297 85.72530364990234 25.492494583129883 80.62071228027344" stroke-width="2.0" fill="none" stroke="rgb(0, 0, 0)" stroke-opacity="1" stroke-linecap="round" stroke-linejoin="round"/>
    <path d="M 69.68077087402344 19.966861724853516 C 52.65326690673828 13.329526901245117 60.943904876708984 21.320337295532227 78.15653228759766 28.608287811279297 C 101.88294219970703 51.38454818725586 64.25885772705078 51.651615142822266 49.34324645996094 25.460561752319336" stroke-width="2.0" fill="none" stroke="rgb(0, 0, 0)" stroke-opacity="1" stroke-linecap="round" stroke-linejoin="round"/>
    <path d="M 20.124534606933594 12.122919082641602 C -24.296798706054688 17.37868309020996 30.853477478027344 23.91542625427246 24.895751953125 42.563411712646484 C 25.094213485717773 26.393047332763672 13.83020305633545 29.033626556396484 2.430419445037842 16.821096420288086 C 34.24378204345703 16.220134735107422 48.202476501464844 25.45030403137207 11.335262298583984 21.017824172973633" stroke-width="2.0" fill="none" stroke="rgb(0, 0, 0)" stroke-opacity="1" stroke-linecap="round" stroke-linejoin="round"/>
    <path d="M 177.53787231445312 41.99721908569336 C 189.51382446289062 20.8917293548584 190.52142333984375 44.2669563293457 183.3822021484375 50.172481536865234 C 194.8105926513672 62.039852142333984 199.2053985595703 26.309814453125 175.38038635253906 28.790224075317383" stroke-width="2.0" fill="none" stroke="rgb(0, 0, 0)" stroke-opacity="1" stroke-linecap="round" stroke-linejoin="round"/>
    <path d="M 51.676631927490234 204.71725463867188 C 47.32087326049805 202.84121704101562 55.99193572998047 204.77536010742188 77.16667175292969 196.00767517089844" stroke-width="2.0" fill="none" stroke="rgb(0, 0, 0)" stroke-opacity="1" stroke-linecap="round" stroke-linejoin="round"/>
    <path d="M 175.80104064941406 168.78758239746094 C 168.3662872314453 151.04580688476562 178.89041137695312 161.16053771972656 138.66053771972656 167.74713134765625 C 162.85215759277344 168.5541534423828 173.09951782226562 156.5555877685547 160.70375061035156 170.6942596435547 C 183.2119598388672 174.73631286621094 127.59354400634766 180.13687133789062 145.08033752441406 172.4998321533203" stroke-width="2.0" fill="none" stroke="rgb(0, 0, 0)" stroke-opacity="1" stroke-linecap="round" stroke-linejoin="round"/>
    <path d="M 60.26765060424805 59.4337272644043 C 58.101280212402344 113.25875854492188 75.63262176513672 85.99185180664062 69.43709564208984 90.55330657958984 C 62.95969009399414 69.8582534790039 62.681941986083984 42.4005126953125 71.29927062988281 61.05619812011719" stroke-width="2.0" fill="none" stroke="rgb(0, 0, 0)" stroke-opacity="1" stroke-linecap="round" stroke-linejoin="round"/>
    <path d="M 127.78273010253906 181.70510864257812 C 164.65330505371094 184.72775268554688 171.0673370361328 170.63682556152344 176.984619140625 192.3465118408203" stroke-width="2.0" fill="none" stroke="rgb(0, 0, 0)" stroke-opacity="1" stroke-linecap="round" stroke-linejoin="round"/>
    <path d="M 187.08251953125 96.85869598388672 C 164.1770782470703 124.532470703125 192.22030639648438 104.53449249267578 185.6635284423828 96.1734619140625 C 177.73538208007812 94.98594665527344 182.7962646484375 90.15007781982422 194.92539978027344 109.66838073730469 C 188.89669799804688 133.20008850097656 210.27566528320312 104.64605712890625 183.44850158691406 99.41242218017578" stroke-width="2.0" fill="none" stroke="rgb(0, 0, 0)" stroke-opacity="1" stroke-linecap="round" stroke-linejoin="round"/>
    <path d="M 55.47929000854492 90.25750732421875 C 71.05376434326172 78.85845947265625 51.74032974243164 68.71646118164062 74.38642120361328 91.85138702392578" stroke-width="2.0" fill="none" stroke="rgb(0, 0, 0)" stroke-opacity="1" stroke-linecap="round" stroke-linejoin="round"/>
    <path d="M 118.84310913085938 111.72306823730469 C 89.76937103271484 133.43922424316406 83.52842712402344 127.39411926269531 117.61241912841797 112.87347412109375 C 115.34004974365234 117.24244689941406 110.77246856689453 143.41355895996094 121.4851303100586 134.85728454589844" stroke-width="2.0" fill="none" stroke="rgb(0, 0, 0)" stroke-opacity="1" stroke-linecap="round" stroke-linejoin="round"/>
    <path d="M 154.11766052246094 16.285694122314453 C 110.99604797363281 24.31143569946289 118.46922302246094 -19.074308395385742 130.05487060546875 -23.412189483642578 C 148.154296875 -26.48046112060547 147.556884765625 -28.58108139038086 146.39573669433594 -28.392070770263672 C 137.92601013183594 -35.74043655395508 129.9252471923828 -26.870986938476562 128.55877685546875 -21.25843048095703" stroke-width="2.0" fill="none" stroke="rgb(0, 0, 0)" stroke-opacity="1" stroke-linecap="round" stroke-linejoin="round"/>
    <path d="M 176.5926055908203 192.64772033691406 C 185.7301025390625 197.25970458984375 171.5201416015625 189.6730194091797 180.63406372070312 194.41029357910156 C 183.0081787109375 195.4140625 150.9305877685547 179.02256774902344 181.83529663085938 177.99295043945312 C 172.81312561035156 181.1605987548828 163.16204833984375 174.5115203857422 175.13160705566406 189.77053833007812" stroke-width="2.0" fill="none" stroke="rgb(0, 0, 0)" stroke-opacity="1" stroke-linecap="round" stroke-linejoin="round"/>
    <path d="M 81.26461791992188 164.29647827148438 C 94.57044982910156 144.86717224121094 108.28195190429688 163.7961883544922 94.69100952148438 125.31975555419922 C 94.67809295654297 156.7325897216797 113.2969970703125 148.3238525390625 89.54694366455078 159.86001586914062" stroke-width="2.0" fill="none" stroke="rgb(0, 0, 0)" stroke-opacity="1" stroke-linecap="round" stroke-linejoin="round"/>
    <path d="M 133.39212036132812 115.32439422607422 C 136.6516876220703 102.66117095947266 116.06002044677734 115.50679779052734 159.06556701660156 124.34977722167969 C 151.54205322265625 119.20598602294922 110.96553802490234 97.68399047851562 112.73725891113281 124.20812225341797" stroke-width="2.0" fill="none" stroke="rgb(0, 0, 0)" stroke-opacity="1" stroke-linecap="round" stroke-linejoin="round"/>
    <path d="M 111.19284057617188 127.10442352294922 C 108.76700592041016 116.6225357055664 115.69346618652344 115.6917953491211 130.02780151367188 101.2426528930664 C 141.36355590820312 119.79136657714844 136.49134826660156 115.9702377319336 122.59436798095703 109.9720458984375" stroke-width="2.0" fill="none" stroke="rgb(0, 0, 0)" stroke-opacity="1" stroke-linecap="round" stroke-linejoin="round"/>
    <path d="M 178.68026733398438 97.9769515991211 C 128.0746612548828 108.90601348876953 164.7371063232422 113.64845275878906 184.95944213867188 92.85501098632812 C 163.3313751220703 70.02311706542969 155.78770446777344 94.00162506103516 156.4714813232422 62.99428176879883 C 160.61630249023438 66.470458984375 168.2962646484375 68.03678894042969 154.6392822265625 50.939998626708984" stroke-width="2.0" fill="none" stroke="rgb(0, 0, 0)" stroke-opacity="1" stroke-linecap="round" stroke-linejoin="round"/>
    <path d="M 41.7994384765625 71.77845001220703 C 62.1693229675293 69.89109802246094 57.720455169677734 65.6364517211914 37.85859680175781 67.00236511230469 C 36.94422149658203 44.685157775878906 40.157833099365234 37.918792724609375 49.356529235839844 67.6396713256836 C 50.771053314208984 63.92845916748047 26.011510848999023 69.84942626953125 31.14164161682129 66.69876098632812" stroke-width="2.0" fill="none" stroke="rgb(0, 0, 0)" stroke-opacity="1" stroke-linecap="round" stroke-linejoin="round"/>
    <path d="M 131.11146545410156 199.05479431152344 C 129.34410095214844 198.1313934326172 115.17101287841797 195.00123596191406 60.41651916503906 213.9056396484375 C 135.03085327148438 227.7854461669922 135.73104858398438 182.1696319580078 103.92034149169922 209.8769989013672 C 89.86783599853516 207.05357360839844 133.18775939941406 190.21109008789062 124.92815399169922 191.8707275390625" stroke-width="2.0" fill="none" stroke="rgb(0, 0, 0)" stroke-opacity="1" stroke-linecap="round" stroke-linejoin="round"/>
    <path d="M 55.176719665527344 128.12808227539062 C 46.64902877807617 122.06490325927734 57.01072692871094 127.58760833740234 82.96247863769531 97.78519439697266 C 48.94459915161133 130.88160705566406 68.37616729736328 112.64301300048828 76.71810913085938 108.2419662475586 C 95.85682678222656 121.39532470703125 66.80838012695312 115.54141998291016 77.08028411865234 130.13038635253906" stroke-width="2.0" fill="none" stroke="rgb(0, 0, 0)" stroke-opacity="1" stroke-linecap="round" stroke-linejoin="round"/>
    <path d="M 126.4252700805664 105.89046478271484 C 133.56370544433594 131.98219299316406 144.52854919433594 136.39686584472656 123.66349792480469 109.19578552246094" stroke-width="2.0" fill="none" stroke="rgb(0, 0, 0)" stroke-opacity="1" stroke-linecap="round" stroke-linejoin="round"/>
    <path d="M 195.16146850585938 34.8012580871582 C 212.40737915039062 36.10799789428711 196.0375213623047 60.58897018432617 196.4484405517578 38.276824951171875 C 202.61376953125 41.24552917480469 210.88511657714844 74.16424560546875 216.79269409179688 49.81993865966797" stroke-width="2.0" fill="none" stroke="rgb(0, 0, 0)" stroke-opacity="1" stroke-linecap="round" stroke-linejoin="round"/>
    <path d="M 98.3614273071289 59.498775482177734 C 104.3139419555664 53.53427505493164 108.6240463256836 67.10015869140625 90.58477020263672 62.00959396362305 C 77.69184112548828 49.94288635253906 112.15595245361328 62.60820388793945 95.34197235107422 63.06533432006836" stroke-width="2.0" fill="none" stroke="rgb(0, 0, 0)" stroke-opacity="1" stroke-linecap="round" stroke-linejoin="round"/>
    <path d="M 193.09288024902344 43.32609939575195 C 188.5439910888672 46.091312408447266 189.23377990722656 40.46501159667969 194.12612915039062 45.6511344909668 C 160.52305603027344 44.228458404541016 176.1820068359375 52.414154052734375 174.6698455810547 31.934091567993164 C 166.64434814453125 59.2966194152832 170.31483459472656 50.099700927734375 191.94886779785156 46.01375961303711" stroke-width="2.0" fill="none" stroke="rgb(0, 0, 0)" stroke-opacity="1" stroke-linecap="round" stroke-linejoin="round"/>
    <path d="M 118.61395263671875 34.44562911987305 C 186.22764587402344 29.73525047302246 159.80784606933594 20.898862838745117 141.80433654785156 34.45374298095703 C 133.2999725341797 12.681711196899414 159.3211212158203 47.74191665649414 146.79945373535156 39.753135681152344 C 151.12355041503906 40.66352081298828 155.03965759277344 15.339452743530273 148.93106079101562 28.294557571411133" stroke-width="2.0" fill="none" stroke="rgb(0, 0, 0)" stroke-opacity="1" stroke-linecap="round" stroke-linejoin="round"/>
    <path d="M 40.39027404785156 113.28324127197266 C 35.848087310791016 119.78134155273438 -17.097158432006836 127.62831115722656 18.869945526123047 116.21395111083984" stroke-width="2.0" fill="none" stroke="rgb(0, 0, 0)" stroke-opacity="1" stroke-linecap="round" stroke-linejoin="round"/>
    <path d="M 56.3214225769043 205.58392333984375 C 75.63636779785156 203.56655883789062 99.85221099853516 191.86546325683594 108.5058822631836 183.7733154296875 C 89.93466186523438 206.07363891601562 29.51568603515625 213.57388305664062 58.38351058959961 201.09732055664062" stroke-width="2.0" fill="none" stroke="rgb(0, 0, 0)" stroke-opacity="1" stroke-linecap="round" stroke-linejoin="round"/>
    <path d="M 136.0441436767578 164.92478942871094 C 124.01924133300781 169.6934356689453 124.47250366210938 161.72003173828125 135.04183959960938 166.60275268554688" stroke-width="2.0" fill="none" stroke="rgb(0, 0, 0)" stroke-opacity="1" stroke-linecap="round" stroke-linejoin="round"/>
    <path d="M 156.5927734375 139.5042724609375 C 154.58470153808594 126.93611907958984 180.75546264648438 128.6261444091797 164.9248504638672 131.3611297607422" stroke-width="2.0" fill="none" stroke="rgb(0, 0, 0)" stroke-opacity="1" stroke-linecap="round" stroke-linejoin="round"/>
    <path d="M 186.51943969726562 147.40823364257812 C 166.7133331298828 164.96324157714844 156.61053466796875 165.81825256347656 182.97840881347656 148.87124633789062 C 181.4639129638672 154.5326385498047 168.4518585205078 163.3256072998047 193.4092559814453 171.3748779296875" stroke-width="2.0" fill="none" stroke="rgb(0, 0, 0)" stroke-opacity="1" stroke-linecap="round" stroke-linejoin="round"/>
    <path d="M 90.26066589355469 42.1771240234375 C 75.978759765625 32.69596481323242 79.06908416748047 33.41767883300781 81.8278579711914 44.30437469482422 C 71.08261108398438 15.167285919189453 102.6258544921875 51.032684326171875 74.51683807373047 20.193065643310547 C 89.29032135009766 27.911989212036133 82.55549621582031 26.607940673828125 71.14985656738281 8.62286376953125" stroke-width="2.0" fill="none" stroke="rgb(0, 0, 0)" stroke-opacity="1" stroke-linecap="round" stroke-linejoin="round"/>
    <path d="M 60.450828552246094 90.66563415527344 C 53.78523254394531 91.97240447998047 71.67395782470703 97.52513122558594 69.91191101074219 93.3988265991211 C 55.25703811645508 89.10968017578125 74.13190460205078 99.59623718261719 74.32439422607422 91.14163970947266" stroke-width="2.0" fill="none" stroke="rgb(0, 0, 0)" stroke-opacity="1" stroke-linecap="round" stroke-linejoin="round"/>
    <path d="M 230.83328247070312 192.035888671875 C 233.21267700195312 191.75518798828125 233.72901916503906 181.2634735107422 238.78201293945312 185.9709930419922 C 232.08740234375 196.08773803710938 240.10061645507812 189.072509765625 248.66229248046875 195.5354461669922 C 254.13723754882812 195.6038360595703 262.9808044433594 188.9364776611328 269.16497802734375 195.22012329101562" stroke-width="2.0" fill="none" stroke="rgb(0, 0, 0)" stroke-opacity="1" stroke-linecap="round" stroke-linejoin="round"/>
    <path d="M 186.5592041015625 26.679407119750977 C 190.90255737304688 52.11675262451172 198.65533447265625 42.25399398803711 180.37583923339844 55.06334686279297 C 182.00596618652344 52.194313049316406 181.53900146484375 23.12510108947754 190.82833862304688 12.98982048034668 C 189.27154541015625 27.83962059020996 188.06204223632812 38.90586471557617 174.6481475830078 32.466773986816406" stroke-width="2.0" fill="none" stroke="rgb(0, 0, 0)" stroke-opacity="1" stroke-linecap="round" stroke-linejoin="round"/>
    <path d="M 90.85027313232422 108.79910278320312 C 82.18757629394531 99.40892028808594 70.99186706542969 102.0494384765625 83.92717742919922 107.8741455078125 C 78.58145141601562 103.74125671386719 73.1546401977539 103.01902770996094 80.50405883789062 106.80654907226562" stroke-width="2.0" fill="none" stroke="rgb(0, 0, 0)" stroke-opacity="1" stroke-linecap="round" stroke-linejoin="round"/>
    <path d="M 100.55032348632812 135.66143798828125 C 98.65409851074219 163.62738037109375 102.45035552978516 154.35960388183594 97.71935272216797 123.02337646484375 C 94.23418426513672 154.96180725097656 102.17144775390625 160.4583282470703 100.65240478515625 145.61788940429688" stroke-width="2.0" fill="none" stroke="rgb(0, 0, 0)" stroke-opacity="1" stroke-linecap="round" stroke-linejoin="round"/>
    <path d="M 11.070210456848145 25.769296646118164 C 57.504661560058594 33.80104064941406 37.7108268737793 21.158897399902344 5.0618896484375 20.98276138305664 C 22.193004608154297 26.489397048950195 -5.377331256866455 15.57034683227539 15.717775344848633 26.56592559814453 C 2.4788522720336914 20.404136657714844 4.626976490020752 18.94498634338379 20.801496505737305 30.478322982788086" stroke-width="2.0" fill="none" stroke="rgb(0, 0, 0)" stroke-opacity="1" stroke-linecap="round" stroke-linejoin="round"/>
    <path d="M 182.9132537841797 95.79010009765625 C 169.97039794921875 109.1202163696289 157.9657745361328 115.27557373046875 160.17967224121094 114.09771728515625 C 174.87193298339844 127.08263397216797 166.8300323486328 118.53367614746094 178.53457641601562 129.1246795654297" stroke-width="2.0" fill="none" stroke="rgb(0, 0, 0)" stroke-opacity="1" stroke-linecap="round" stroke-linejoin="round"/>
    <path d="M 141.11239624023438 9.112719535827637 C 137.4541473388672 17.04786491394043 118.52884674072266 7.684622764587402 136.59616088867188 1.0828795433044434 C 152.05311584472656 1.8002351522445679 140.958251953125 -12.809650421142578 134.92007446289062 -18.886749267578125" stroke-width="2.0" fill="none" stroke="rgb(0, 0, 0)" stroke-opacity="1" stroke-linecap="round" stroke-linejoin="round"/>
    <path d="M 212.48428344726562 30.41090965270996 C 188.35263061523438 34.117366790771484 180.24215698242188 15.988184928894043 195.7622833251953 55.4334831237793 C 191.6623992919922 36.28384017944336 187.97552490234375 37.18477249145508 195.30348205566406 -9.694098472595215" stroke-width="2.0" fill="none" stroke="rgb(0, 0, 0)" stroke-opacity="1" stroke-linecap="round" stroke-linejoin="round"/>
    <path d="M 187.7863006591797 146.27615356445312 C 183.451904296875 152.6595916748047 181.618896484375 154.71209716796875 190.9593963623047 150.26113891601562 C 168.87661743164062 156.783203125 202.95530700683594 178.36451721191406 185.57069396972656 155.56405639648438" stroke-width="2.0" fill="none" stroke="rgb(0, 0, 0)" stroke-opacity="1" stroke-linecap="round" stroke-linejoin="round"/>
    <path d="M 180.81907653808594 169.304931640625 C 168.5720672607422 156.09909057617188 143.10870361328125 164.83123779296875 147.9817352294922 163.04248046875" stroke-width="2.0" fill="none" stroke="rgb(0, 0, 0)" stroke-opacity="1" stroke-linecap="round" stroke-linejoin="round"/>
    <path d="M 176.86080932617188 62.05488586425781 C 172.25723266601562 65.27426147460938 203.78541564941406 56.798465728759766 203.40208435058594 49.47597885131836 C 197.3755645751953 79.24600219726562 233.2488250732422 57.812042236328125 192.9796142578125 75.67818450927734" stroke-width="2.0" fill="none" stroke="rgb(0, 0, 0)" stroke-opacity="1" stroke-linecap="round" stroke-linejoin="round"/>
    <path d="M 134.11839294433594 61.887123107910156 C 134.60894775390625 81.37561798095703 127.49300384521484 70.5183334350586 132.85708618164062 53.065731048583984" stroke-width="2.0" fill="none" stroke="rgb(0, 0, 0)" stroke-opacity="1" stroke-linecap="round" stroke-linejoin="round"/>
    <path d="M 113.86278533935547 163.50906372070312 C 129.41842651367188 132.80799865722656 164.55862426757812 125.29591369628906 154.0964813232422 140.10455322265625" stroke-width="2.0" fill="none" stroke="rgb(0, 0, 0)" stroke-opacity="1" stroke-linecap="round" stroke-linejoin="round"/>
    <path d="M 209.9942626953125 60.02567672729492 C 214.02696228027344 57.501312255859375 195.78834533691406 44.81768035888672 201.94915771484375 59.45112991333008" stroke-width="2.0" fill="none" stroke="rgb(0, 0, 0)" stroke-opacity="1" stroke-linecap="round" stroke-linejoin="round"/>
    <path d="M 24.975587844848633 13.09373664855957 C 14.464859008789062 1.2169109582901 20.75122833251953 1.6525170803070068 18.99297332763672 24.765153884887695" stroke-width="2.0" fill="none" stroke="rgb(0, 0, 0)" stroke-opacity="1" stroke-linecap="round" stroke-linejoin="round"/>
    <path d="M 31.109474182128906 131.84693908691406 C 45.29716110229492 128.8946075439453 28.63103485107422 139.0933074951172 -7.937410354614258 134.4178009033203 C 27.71497344970703 128.3822784423828 34.43092727661133 148.51560974121094 14.96126937866211 150.8731231689453" stroke-width="2.0" fill="none" stroke="rgb(0, 0, 0)" stroke-opacity="1" stroke-linecap="round" stroke-linejoin="round"/>
    <path d="M 8.017136573791504 73.34578704833984 C -2.706265687942505 48.58740997314453 -14.532073020935059 68.8207015991211 -19.102012634277344 85.44725799560547 C -32.16525650024414 95.43624877929688 -37.08353805541992 100.19352722167969 -43.607521057128906 106.17495727539062 C -35.033775329589844 100.94572448730469 -39.57817077636719 107.02067565917969 -41.09310531616211 104.50515747070312" stroke-width="2.0" fill="none" stroke="rgb(0, 0, 0)" stroke-opacity="1" stroke-linecap="round" stroke-linejoin="round"/>
    <path d="M 47.591312408447266 50.7384033203125 C 44.9931640625 57.97890853881836 51.76253128051758 59.30278396606445 56.10505294799805 51.542606353759766" stroke-width="2.0" fill="none" stroke="rgb(0, 0, 0)" stroke-opacity="1" stroke-linecap="round" stroke-linejoin="round"/>
    <path d="M 113.18070220947266 164.5315399169922 C 111.69303131103516 182.69264221191406 149.8883514404297 193.06155395507812 138.5417938232422 187.52194213867188 C 124.2389907836914 187.92657470703125 73.41325378417969 220.84498596191406 120.72793579101562 204.4627685546875 C 147.6565704345703 192.66355895996094 127.41057586669922 195.0072784423828 127.55719757080078 193.99713134765625" stroke-width="2.0" fill="none" stroke="rgb(0, 0, 0)" stroke-opacity="1" stroke-linecap="round" stroke-linejoin="round"/>
    <path d="M 12.718907356262207 187.3028106689453 C -8.785978317260742 184.4319610595703 -8.168971061706543 186.2267303466797 -2.0552823543548584 126.91908264160156" stroke-width="2.0" fill="none" stroke="rgb(0, 0, 0)" stroke-opacity="1" stroke-linecap="round" stroke-linejoin="round"/>
    <path d="M 129.81881713867188 104.83262634277344 C 113.80396270751953 113.24838256835938 140.58294677734375 130.0027618408203 129.64248657226562 100.89837646484375 C 134.48239135742188 105.93675231933594 149.82220458984375 125.58065032958984 141.7111358642578 125.48983001708984" stroke-width="2.0" fill="none" stroke="rgb(0, 0, 0)" stroke-opacity="1" stroke-linecap="round" stroke-linejoin="round"/>
    <path d="M 202.37860107421875 118.85907745361328 C 175.64520263671875 83.81726837158203 190.02015686035156 92.21678161621094 150.61965942382812 103.6245346069336" stroke-width="2.0" fill="none" stroke="rgb(0, 0, 0)" stroke-opacity="1" stroke-linecap="round" stroke-linejoin="round"/>
    <path d="M -6.115952491760254 212.5755615234375 C 0.3407880961894989 220.6868438720703 -3.7028257846832275 224.34715270996094 -6.854184150695801 210.29005432128906 C -9.267781257629395 199.80113220214844 -9.21030330657959 189.41537475585938 -9.994600296020508 187.77432250976562 C -12.429780960083008 188.26754760742188 -17.05275535583496 194.6667938232422 -25.217405319213867 190.30860900878906" stroke-width="2.0" fill="none" stroke="rgb(0, 0, 0)" stroke-opacity="1" stroke-linecap="round" stroke-linejoin="round"/>
    <path d="M 234.52401733398438 28.113672256469727 C 226.29885864257812 25.659530639648438 232.92381286621094 26.484298706054688 231.34634399414062 37.18537139892578 C 229.69505310058594 29.24789047241211 228.84207153320312 24.573745727539062 237.3764190673828 25.371843338012695 C 239.9658203125 29.316225051879883 247.29544067382812 39.98740768432617 255.95098876953125 44.43617630004883" stroke-width="2.0" fill="none" stroke="rgb(0, 0, 0)" stroke-opacity="1" stroke-linecap="round" stroke-linejoin="round"/>
    <path d="M 170.73739624023438 178.83802795410156 C 137.5522918701172 187.2071990966797 154.5471954345703 157.02220153808594 158.3292999267578 177.9066162109375" stroke-width="2.0" fill="none" stroke="rgb(0, 0, 0)" stroke-opacity="1" stroke-linecap="round" stroke-linejoin="round"/>
    <path d="M 75.61668395996094 37.593448638916016 C 64.81153106689453 -9.84296703338623 67.9090576171875 13.083429336547852 67.04861450195312 33.799007415771484 C 74.33091735839844 38.600990295410156 69.12238311767578 15.1542329788208 48.5676155090332 24.156023025512695 C 59.57240295410156 0.6096094250679016 46.20151901245117 49.327232360839844 65.11524963378906 27.63907241821289" stroke-width="2.0" fill="none" stroke="rgb(0, 0, 0)" stroke-opacity="1" stroke-linecap="round" stroke-linejoin="round"/>
    <path d="M 182.77699279785156 207.91937255859375 C 141.09811401367188 208.0007781982422 146.61688232421875 207.67039489746094 168.23123168945312 210.73291015625 C 212.05169677734375 217.28421020507812 212.35983276367188 215.4273223876953 169.9960479736328 204.53665161132812 C 166.3792724609375 210.70831298828125 156.28915405273438 208.53018188476562 178.87452697753906 201.6875457763672" stroke-width="2.0" fill="none" stroke="rgb(0, 0, 0)" stroke-opacity="1" stroke-linecap="round" stroke-linejoin="round"/>
    <path d="M 161.46751403808594 134.91038513183594 C 215.86935424804688 126.12747955322266 186.99295043945312 140.6676788330078 162.250244140625 141.0815887451172 C 163.5865020751953 129.2345428466797 172.6855010986328 123.71878814697266 136.22885131835938 145.43785095214844 C 144.8223114013672 151.566650390625 187.8218536376953 137.2532196044922 172.48843383789062 139.88880920410156" stroke-width="2.0" fill="none" stroke="rgb(0, 0, 0)" stroke-opacity="1" stroke-linecap="round" stroke-linejoin="round"/>
    <path d="M 115.25674438476562 134.87014770507812 C 107.40958404541016 94.1067123413086 135.53468322753906 121.53726959228516 121.44564819335938 110.23418426513672" stroke-width="2.0" fill="none" stroke="rgb(0, 0, 0)" stroke-opacity="1" stroke-linecap="round" stroke-linejoin="round"/>
    <path d="M 49.112056732177734 231.4757080078125 C 36.02421569824219 227.90528869628906 27.43964195251465 227.87928771972656 35.287879943847656 234.92262268066406 C 30.22340202331543 228.8153839111328 38.15127182006836 231.98416137695312 43.07837677001953 234.30715942382812" stroke-width="2.0" fill="none" stroke="rgb(0, 0, 0)" stroke-opacity="1" stroke-linecap="round" stroke-linejoin="round"/>
    <path d="M 163.2653045654297 84.89706420898438 C 112.057861328125 94.40735626220703 106.42018127441406 64.92086791992188 136.9171600341797 45.72429656982422 C 159.14186096191406 54.888824462890625 137.4717254638672 70.50358581542969 152.80731201171875 80.26364135742188 C 123.63735961914062 85.20938110351562 160.5016632080078 52.873416900634766 148.32540893554688 69.20086669921875" stroke-width="2.0" fill="none" stroke="rgb(0, 0, 0)" stroke-opacity="1" stroke-linecap="round" stroke-linejoin="round"/>
    <path d="M 69.41860961914062 144.2917022705078 C 69.65534973144531 138.56504821777344 71.93172454833984 170.33676147460938 100.02883911132812 179.6697235107422 C 95.66960144042969 206.25830078125 60.95602798461914 204.95034790039062 65.22197723388672 202.32957458496094" stroke-width="2.0" fill="none" stroke="rgb(0, 0, 0)" stroke-opacity="1" stroke-linecap="round" stroke-linejoin="round"/>
    <path d="M 96.31166076660156 190.29220581054688 C 70.43980407714844 178.0922088623047 112.84871673583984 206.00010681152344 80.8287353515625 192.89039611816406" stroke-width="2.0" fill="none" stroke="rgb(0, 0, 0)" stroke-opacity="1" stroke-linecap="round" stroke-linejoin="round"/>
    <path d="M 96.59561920166016 91.43479919433594 C 81.71697998046875 75.55657958984375 89.73419189453125 36.04547119140625 90.33280944824219 72.07811737060547 C 110.38697052001953 73.67626953125 74.60205078125 64.3865966796875 91.54039001464844 42.03813171386719" stroke-width="2.0" fill="none" stroke="rgb(0, 0, 0)" stroke-opacity="1" stroke-linecap="round" stroke-linejoin="round"/>
    <path d="M 143.0016326904297 165.5894317626953 C 150.13369750976562 153.99307250976562 122.60530853271484 174.60113525390625 138.6571807861328 160.068359375" stroke-width="2.0" fill="none" stroke="rgb(0, 0, 0)" stroke-opacity="1" stroke-linecap="round" stroke-linejoin="round"/>
    <path d="M 18.022279739379883 70.18059539794922 C 24.492387771606445 107.04714965820312 33.90013122558594 95.81268310546875 5.0998311042785645 102.42788696289062 C -2.778411865234375 82.81427764892578 18.24042510986328 106.70899963378906 9.948297500610352 85.5640869140625" stroke-width="2.0" fill="none" stroke="rgb(0, 0, 0)" stroke-opacity="1" stroke-linecap="round" stroke-linejoin="round"/>
    <path d="M 47.48624038696289 14.649989128112793 C 39.115562438964844 19.03666114807129 63.652835845947266 40.92988586425781 80.41559600830078 42.208744049072266" stroke-width="2.0" fill="none" stroke="rgb(0, 0, 0)" stroke-opacity="1" stroke-linecap="round" stroke-linejoin="round"/>
    <path d="M 206.99075317382812 207.0708465576172 C 215.7017822265625 215.64923095703125 222.54324340820312 215.27394104003906 229.62362670898438 230.09567260742188 C 214.70785522460938 229.89646911621094 198.1643524169922 222.34141540527344 185.13246154785156 226.66864013671875 C 186.02743530273438 227.31805419921875 193.97996520996094 236.20001220703125 190.62037658691406 234.52740478515625" stroke-width="2.0" fill="none" stroke="rgb(0, 0, 0)" stroke-opacity="1" stroke-linecap="round" stroke-linejoin="round"/>
    <path d="M 156.1017608642578 106.13964080810547 C 194.03799438476562 93.10488891601562 187.8256378173828 100.21976470947266 169.46922302246094 74.60230255126953" stroke-width="2.0" fill="none" stroke="rgb(0, 0, 0)" stroke-opacity="1" stroke-linecap="round" stroke-linejoin="round"/>
    <path d="M 55.505123138427734 140.75082397460938 C 53.25709533691406 156.6291046142578 56.917423248291016 125.39555358886719 37.05548095703125 133.53807067871094" stroke-width="2.0" fill="none" stroke="rgb(0, 0, 0)" stroke-opacity="1" stroke-linecap="round" stroke-linejoin="round"/>
    <path d="M 36.84078598022461 229.8545379638672 C 81.98483276367188 231.99769592285156 75.0001220703125 234.9031982421875 82.33096313476562 225.699462890625 C 46.79741287231445 219.3946533203125 67.80354309082031 224.65516662597656 109.60205841064453 226.5887908935547" stroke-width="2.0" fill="none" stroke="rgb(0, 0, 0)" stroke-opacity="1" stroke-linecap="round" stroke-linejoin="round"/>
    <path d="M 73.21636962890625 151.46978759765625 C 96.85325622558594 149.3335418701172 102.54447174072266 140.12860107421875 98.88851928710938 137.43504333496094 C 99.05036163330078 140.25900268554688 102.60733795166016 169.7158203125 105.51947784423828 168.86053466796875 C 100.42424011230469 144.57565307617188 98.64161682128906 139.57778930664062 101.62175750732422 153.79327392578125" stroke-width="2.0" fill="none" stroke="rgb(0, 0, 0)" stroke-opacity="1" stroke-linecap="round" stroke-linejoin="round"/>
    <path d="M 51.802242279052734 184.51675415039062 C 66.45986938476562 195.94863891601562 41.164119720458984 175.92453002929688 56.41238784790039 157.0459747314453 C 61.68327713012695 195.71163940429688 65.55872344970703 180.7921905517578 55.523704528808594 161.3806610107422" stroke-width="2.0" fill="none" stroke="rgb(0, 0, 0)" stroke-opacity="1" stroke-linecap="round" stroke-linejoin="round"/>
    <path d="M 166.01927185058594 215.7604217529297 C 151.41029357910156 207.8653564453125 167.16598510742188 204.2696990966797 192.284912109375 210.19839477539062 C 174.05728149414062 206.22921752929688 174.9210205078125 206.64276123046875 143.12277221679688 210.02459716796875 C 159.9165802001953 208.4727783203125 178.32247924804688 198.01937866210938 155.99224853515625 184.23133850097656" stroke-width="2.0" fill="none" stroke="rgb(0, 0, 0)" stroke-opacity="1" stroke-linecap="round" stroke-linejoin="round"/>
    <path d="M 50.69522476196289 202.91824340820312 C 69.44419860839844 196.4970703125 88.32756042480469 188.95172119140625 101.4260025024414 176.0482177734375 C 108.70840454101562 152.8631134033203 100.40991973876953 162.0699920654297 108.58094024658203 186.57460021972656" stroke-width="2.0" fill="none" stroke="rgb(0, 0, 0)" stroke-opacity="1" stroke-linecap="round" stroke-linejoin="round"/>
    <path d="M 197.81822204589844 218.6118927001953 C 181.0778045654297 222.2012939453125 202.2095947265625 214.34783935546875 184.97726440429688 231.5339813232422 C 173.6399688720703 241.3974609375 178.82244873046875 248.39883422851562 184.84671020507812 247.98680114746094 C 204.470458984375 235.55821228027344 205.342041015625 240.1908416748047 205.50363159179688 236.14390563964844" stroke-width="2.0" fill="none" stroke="rgb(0, 0, 0)" stroke-opacity="1" stroke-linecap="round" stroke-linejoin="round"/>
    <path d="M 184.6139373779297 46.95669174194336 C 160.7976837158203 55.62860107421875 164.18934631347656 47.45320129394531 172.9484405517578 44.11894607543945" stroke-width="2.0" fill="none" stroke="rgb(0, 0, 0)" stroke-opacity="1" stroke-linecap="round" stroke-linejoin="round"/>
    <path d="M 5.9467387199401855 35.45082473754883 C 14.706881523132324 21.60987091064453 23.83658790588379 33.46840286254883 21.88195037841797 62.089290618896484 C 11.552284240722656 60.29793167114258 15.718133926391602 56.130516052246094 27.17072868347168 44.47519302368164 C 17.011117935180664 15.390177726745605 7.9667229652404785 33.777523040771484 15.924530029296875 22.20266342163086" stroke-width="2.0" fill="none" stroke="rgb(0, 0, 0)" stroke-opacity="1" stroke-linecap="round" stroke-linejoin="round"/>
    <path d="M 70.92252349853516 176.779052734375 C 90.33890533447266 182.01910400390625 5.075363636016846 206.7006378173828 53.74509048461914 189.02587890625 C 56.53065490722656 171.16001892089844 43.49739456176758 177.8149871826172 44.824562072753906 163.79530334472656 C 13.4972562789917 177.73910522460938 36.031455993652344 144.25399780273438 30.91819190979004 174.8541717529297" stroke-width="2.0" fill="none" stroke="rgb(0, 0, 0)" stroke-opacity="1" stroke-linecap="round" stroke-linejoin="round"/>
    <path d="M 59.58670425415039 120.04238891601562 C 37.438663482666016 134.9820098876953 4.774236679077148 131.6591033935547 5.209630489349365 134.53192138671875 C 39.354671478271484 135.12857055664062 25.29266357421875 130.48709106445312 18.42577362060547 135.51504516601562 C 8.033093452453613 131.41590881347656 21.907115936279297 139.36016845703125 16.819969177246094 135.62908935546875" stroke-width="2.0" fill="none" stroke="rgb(0, 0, 0)" stroke-opacity="1" stroke-linecap="round" stroke-linejoin="round"/>
    <path d="M 92.75082397460938 211.5980224609375 C 48.22721862792969 204.97047424316406 58.88517379760742 224.6643829345703 108.63700866699219 215.02362060546875" stroke-width="2.0" fill="none" stroke="rgb(0, 0, 0)" stroke-opacity="1" stroke-linecap="round" stroke-linejoin="round"/>
    <path d="M 102.29322814941406 143.56199645996094 C 109.84796905517578 152.53494262695312 108.0287857055664 146.6079864501953 104.77361297607422 149.28672790527344 C 89.7795181274414 140.1948699951172 104.48063659667969 159.65438842773438 100.8129653930664 131.72006225585938" stroke-width="2.0" fill="none" stroke="rgb(0, 0, 0)" stroke-opacity="1" stroke-linecap="round" stroke-linejoin="round"/>
    <path d="M 226.17514038085938 29.498882293701172 C 236.0409393310547 26.44171905517578 244.8346710205078 16.992650985717773 243.8683624267578 21.15935707092285" stroke-width="2.0" fill="none" stroke="rgb(0, 0, 0)" stroke-opacity="1" stroke-linecap="round" stroke-linejoin="round"/>
    <path d="M 144.8539581298828 138.6977081298828 C 157.46376037597656 150.24391174316406 164.87672424316406 148.8615264892578 132.12014770507812 152.99656677246094" stroke-width="2.0" fill="none" stroke="rgb(0, 0, 0)" stroke-opacity="1" stroke-linecap="round" stroke-linejoin="round"/>
    <path d="M 52.874176025390625 67.25960540771484 C 66.96163940429688 60.3697395324707 49.788116455078125 103.30290985107422 73.03321075439453 91.7253646850586" stroke-width="2.0" fill="none" stroke="rgb(0, 0, 0)" stroke-opacity="1" stroke-linecap="round" stroke-linejoin="round"/>
    <path d="M 25.640186309814453 117.8294677734375 C 28.316364288330078 120.27938842773438 66.19619750976562 104.90003204345703 36.482444763183594 108.8507308959961 C 17.878128051757812 92.4421157836914 21.58304786682129 72.88956451416016 17.912099838256836 75.42765045166016 C 31.797672271728516 109.13260650634766 36.47747802734375 112.67557525634766 41.11603546142578 106.4827651977539" stroke-width="2.0" fill="none" stroke="rgb(0, 0, 0)" stroke-opacity="1" stroke-linecap="round" stroke-linejoin="round"/>
    <path d="M 208.84056091308594 30.147933959960938 C 215.35084533691406 30.341737747192383 170.47300720214844 20.464588165283203 164.336181640625 54.25441360473633 C 187.27114868164062 53.029029846191406 197.3706817626953 55.67890167236328 189.73623657226562 30.615676879882812 C 176.2895050048828 58.997459411621094 190.09539794921875 48.15359878540039 192.89712524414062 42.26914978027344" stroke-width="2.0" fill="none" stroke="rgb(0, 0, 0)" stroke-opacity="1" stroke-linecap="round" stroke-linejoin="round"/>
    <path d="M 133.79147338867188 27.81192970275879 C 119.74351501464844 43.570194244384766 147.5906524658203 37.47745895385742 135.8008270263672 31.171295166015625" stroke-width="2.0" fill="none" stroke="rgb(0, 0, 0)" stroke-opacity="1" stroke-linecap="round" stroke-linejoin="round"/>
    <path d="M 18.000885009765625 88.14611053466797 C 18.054122924804688 111.0597915649414 39.26057052612305 89.91178131103516 -3.197413682937622 94.7221450805664 C -6.652249813079834 115.52093505859375 -8.922119140625 128.64320373535156 -11.222694396972656 131.5068817138672 C -2.196044445037842 122.03739166259766 -0.2270289808511734 121.20880126953125 -7.395051002502441 121.01215362548828" stroke-width="2.0" fill="none" stroke="rgb(0, 0, 0)" stroke-opacity="1" stroke-linecap="round" stroke-linejoin="round"/>
    <path d="M 138.85304260253906 150.62429809570312 C 146.33319091796875 153.51473999023438 167.93040466308594 135.3743133544922 161.48919677734375 160.6583709716797 C 174.33218383789062 179.9863739013672 180.35836791992188 171.16700744628906 145.3229217529297 182.91421508789062" stroke-width="2.0" fill="none" stroke="rgb(0, 0, 0)" stroke-opacity="1" stroke-linecap="round" stroke-linejoin="round"/>
    <path d="M 87.75981903076172 42.77114486694336 C 87.484375 50.95281219482422 90.5390625 60.4044189453125 86.11067199707031 44.06459426879883" stroke-width="2.0" fill="none" stroke="rgb(0, 0, 0)" stroke-opacity="1" stroke-linecap="round" stroke-linejoin="round"/>
    <path d="M 125.87383270263672 163.70773315429688 C 165.38674926757812 158.3419952392578 169.17123413085938 164.07937622070312 157.52915954589844 163.19937133789062 C 123.68655395507812 176.2697296142578 116.36485290527344 160.78005981445312 139.04095458984375 163.7228546142578" stroke-width="2.0" fill="none" stroke="rgb(0, 0, 0)" stroke-opacity="1" stroke-linecap="round" stroke-linejoin="round"/>
    <path d="M 99.94345092773438 180.07504272460938 C 118.54756164550781 196.94361877441406 107.8000717163086 189.63851928710938 101.24044036865234 154.4002227783203 C 96.78197479248047 159.7853240966797 101.03688049316406 152.09092712402344 111.79287719726562 182.4060821533203" stroke-width="2.0" fill="none" stroke="rgb(0, 0, 0)" stroke-opacity="1" stroke-linecap="round" stroke-linejoin="round"/>
    <path d="M 137.1855926513672 165.01963806152344 C 158.79173278808594 172.15708923339844 143.9638214111328 163.1151885986328 145.1343994140625 159.06015014648438" stroke-width="2.0" fill="none" stroke="rgb(0, 0, 0)" stroke-opacity="1" stroke-linecap="round" stroke-linejoin="round"/>
    <path d="M 167.89463806152344 74.6279067993164 C 199.37803649902344 115.83912658691406 213.58428955078125 113.5267333984375 188.34324645996094 93.20223999023438 C 190.68370056152344 89.90557861328125 187.93240356445312 92.31200408935547 205.46368408203125 86.41321563720703" stroke-width="2.0" fill="none" stroke="rgb(0, 0, 0)" stroke-opacity="1" stroke-linecap="round" stroke-linejoin="round"/>
    <path d="M 72.162353515625 91.58271789550781 C 61.61265182495117 80.06853485107422 82.15130615234375 96.21175384521484 64.19499969482422 94.27494812011719" stroke-width="2.0" fill="none" stroke="rgb(0, 0, 0)" stroke-opacity="1" stroke-linecap="round" stroke-linejoin="round"/>
    <path d="M 32.25325012207031 95.120361328125 C 22.77190589904785 98.83355712890625 32.021732330322266 99.27790069580078 31.87981414794922 101.91344451904297 C 10.827218055725098 108.3953628540039 -0.8042715191841125 107.90313720703125 52.558006286621094 109.2171401977539 C 69.55728912353516 98.96481323242188 39.81303024291992 120.12825012207031 14.7151460647583 120.62959289550781" stroke-width="2.0" fill="none" stroke="rgb(0, 0, 0)" stroke-opacity="1" stroke-linecap="round" stroke-linejoin="round"/>
    <path d="M 164.55189514160156 6.013040542602539 C 180.5383758544922 26.07798957824707 100.5191421508789 17.691207885742188 96.02005767822266 23.975692749023438 C 89.18051147460938 33.4260139465332 114.45513916015625 53.03900146484375 153.9805145263672 38.655696868896484" stroke-width="2.0" fill="none" stroke="rgb(0, 0, 0)" stroke-opacity="1" stroke-linecap="round" stroke-linejoin="round"/>
    <path d="M 54.064781188964844 105.04509735107422 C 36.6392707824707 119.69296264648438 14.122699737548828 121.44296264648438 26.528194427490234 108.55670166015625 C 39.50974655151367 125.0198745727539 39.10410690307617 111.48265075683594 31.38904571533203 107.13921356201172" stroke-width="2.0" fill="none" stroke="rgb(0, 0, 0)" stroke-opacity="1" stroke-linecap="round" stroke-linejoin="round"/>
    <path d="M 10.841829299926758 24.01291847229004 C 22.38602066040039 28.421388626098633 30.55191421508789 30.0982608795166 41.090335845947266 31.047813415527344" stroke-width="2.0" fill="none" stroke="rgb(0, 0, 0)" stroke-opacity="1" stroke-linecap="round" stroke-linejoin="round"/>
    <path d="M 168.838623046875 181.76980590820312 C 185.12669372558594 179.0786895751953 172.28427124023438 207.34182739257812 165.8210906982422 206.40777587890625 C 180.5373992919922 193.87472534179688 159.65029907226562 192.6347198486328 185.7506866455078 200.18426513671875" stroke-width="2.0" fill="none" stroke="rgb(0, 0, 0)" stroke-opacity="1" stroke-linecap="round" stroke-linejoin="round"/>
    <path d="M 209.15000915527344 182.99649047851562 C 194.6687469482422 212.6828155517578 203.4978790283203 192.33303833007812 212.9130096435547 156.3933563232422 C 210.7027130126953 185.92298889160156 216.49139404296875 231.45339965820312 214.76190185546875 187.4414825439453 C 213.34251403808594 200.7829132080078 213.12838745117188 154.10104370117188 212.81387329101562 173.45887756347656" stroke-width="2.0" fill="none" stroke="rgb(0, 0, 0)" stroke-opacity="1" stroke-linecap="round" stroke-linejoin="round"/>
    <path d="M 38.859371185302734 49.88456344604492 C 48.46711730957031 58.759971618652344 27.479087829589844 55.87029266357422 47.943607330322266 54.38105010986328 C 12.821093559265137 49.3957405090332 25.665876388549805 59.713687896728516 23.960830688476562 37.21833038330078 C 30.839113235473633 72.35491180419922 17.541494369506836 52.8516845703125 43.192684173583984 61.13491439819336" stroke-width="2.0" fill="none" stroke="rgb(0, 0, 0)" stroke-opacity="1" stroke-linecap="round" stroke-linejoin="round"/>
    <path d="M 162.88563537597656 92.67224884033203 C 150.83856201171875 101.6841049194336 157.72113037109375 73.80545806884766 186.68780517578125 92.46920013427734 C 175.2718963623047 85.34184265136719 160.60133361816406 95.7807388305664 168.152099609375 90.2977294921875 C 161.22549438476562 96.0901870727539 163.4176483154297 95.294189453125 183.25872802734375 94.00569152832031" stroke-width="2.0" fill="none" stroke="rgb(0, 0, 0)" stroke-opacity="1" stroke-linecap="round" stroke-linejoin="round"/>
    <path d="M 84.14289855957031 102.93144989013672 C 82.64207458496094 102.94847106933594 71.43065643310547 98.40615844726562 89.45380401611328 103.36750793457031" stroke-width="2.0" fill="none" stroke="rgb(0, 0, 0)" stroke-opacity="1" stroke-linecap="round" stroke-linejoin="round"/>
    <path d="M 16.25984001159668 175.4474639892578 C 19.80312156677246 190.39559936523438 3.786039113998413 191.92637634277344 3.294266939163208 183.96585083007812 C 13.810990333557129 183.98011779785156 23.906110763549805 178.2011260986328 7.292884349822998 186.00685119628906" stroke-width="2.0" fill="none" stroke="rgb(0, 0, 0)" stroke-opacity="1" stroke-linecap="round" stroke-linejoin="round"/>
    <path d="M 146.4136962890625 69.0698471069336 C 124.17201232910156 72.70046997070312 161.4757080078125 42.38217544555664 133.90611267089844 84.75946807861328" stroke-width="2.0" fill="none" stroke="rgb(0, 0, 0)" stroke-opacity="1" stroke-linecap="round" stroke-linejoin="round"/>
    <path d="M 145.61065673828125 181.90106201171875 C 140.47613525390625 187.71226501464844 124.70408630371094 214.13876342773438 114.0563735961914 207.2980194091797 C 125.23147583007812 208.35626220703125 107.70843505859375 213.8042449951172 92.43817138671875 217.61013793945312 C 118.15411376953125 218.78070068359375 141.60789489746094 190.4092559814453 122.86669921875 206.54710388183594" stroke-width="2.0" fill="none" stroke="rgb(0, 0, 0)" stroke-opacity="1" stroke-linecap="round" stroke-linejoin="round"/>
    <path d="M 92.55426025390625 84.94187927246094 C 97.82540893554688 97.20523834228516 126.57086181640625 108.05322265625 96.4046630859375 94.40853118896484" stroke-width="2.0" fill="none" stroke="rgb(0, 0, 0)" stroke-opacity="1" stroke-linecap="round" stroke-linejoin="round"/>
    <path d="M 209.1666259765625 101.24825286865234 C 205.9316864013672 102.71406555175781 202.37667846679688 101.48839569091797 232.91909790039062 105.36750793457031 C 234.2034454345703 100.13903045654297 232.09017944335938 101.7976303100586 234.5458984375 94.44729614257812" stroke-width="2.0" fill="none" stroke="rgb(0, 0, 0)" stroke-opacity="1" stroke-linecap="round" stroke-linejoin="round"/>
    <path d="M 210.08743286132812 205.6463165283203 C 205.53904724121094 150.22900390625 213.27134704589844 185.56460571289062 220.93898010253906 188.22146606445312 C 197.03248596191406 168.9274139404297 233.1531219482422 180.98611450195312 255.46441650390625 187.7871856689453" stroke-width="2.0" fill="none" stroke="rgb(0, 0, 0)" stroke-opacity="1" stroke-linecap="round" stroke-linejoin="round"/>
    <path d="M 58.364341735839844 68.55022430419922 C 32.94099807739258 65.36437225341797 76.5003433227539 62.41223907470703 80.00623321533203 82.95022583007812 C 47.54230880737305 61.11140441894531 67.17181396484375 76.60466766357422 41.63719940185547 75.11761474609375" stroke-width="2.0" fill="none" stroke="rgb(0, 0, 0)" stroke-opacity="1" stroke-linecap="round" stroke-linejoin="round"/>
    <path d="M -0.6350008249282837 177.72230529785156 C 0.32083895802497864 198.6946563720703 0.9296656250953674 199.53045654296875 18.6832218170166 197.84115600585938 C -6.298951148986816 209.41677856445312 -2.300757646560669 191.7154998779297 -10.507086753845215 189.1195831298828 C -7.459610939025879 195.1900634765625 -2.0087177753448486 189.83241271972656 -13.032758712768555 207.9735107421875" stroke-width="2.0" fill="none" stroke="rgb(0, 0, 0)" stroke-opacity="1" stroke-linecap="round" stroke-linejoin="round"/>
    <path d="M 164.12989807128906 68.07376098632812 C 147.36805725097656 66.62632751464844 165.62583923339844 82.3285140991211 152.13577270507812 45.779911041259766 C 154.34515380859375 50.85900115966797 165.68463134765625 57.19135284423828 154.5994110107422 64.78150177001953 C 166.78689575195312 42.652652740478516 147.37945556640625 63.675750732421875 161.20758056640625 61.90509033203125" stroke-width="2.0" fill="none" stroke="rgb(0, 0, 0)" stroke-opacity="1" stroke-linecap="round" stroke-linejoin="round"/>
    <path d="M 231.98480224609375 195.77674865722656 C 227.6223907470703 187.9651641845703 236.49749755859375 195.57752990722656 230.54978942871094 199.08224487304688 C 227.8656463623047 205.47694396972656 229.53109741210938 207.48934936523438 231.3060760498047 196.720458984375" stroke-width="2.0" fill="none" stroke="rgb(0, 0, 0)" stroke-opacity="1" stroke-linecap="round" stroke-linejoin="round"/>
    <path d="M -1.6834677457809448 184.09423828125 C 0.7836328744888306 173.59239196777344 -8.875706672668457 192.6593780517578 -8.068547248840332 195.9905242919922 C -1.2104320526123047 184.2877960205078 -22.48933219909668 197.48077392578125 -35.64619827270508 187.67214965820312" stroke-width="2.0" fill="none" stroke="rgb(0, 0, 0)" stroke-opacity="1" stroke-linecap="round" stroke-linejoin="round"/>
    <path d="M 125.03770446777344 126.6159439086914 C 132.20751953125 108.59903717041016 120.28880310058594 113.40431213378906 128.43031311035156 125.6511459350586 C 132.0050811767578 108.3514404296875 129.9112091064453 96.45695495605469 124.09105682373047 112.45812225341797" stroke-width="2.0" fill="none" stroke="rgb(0, 0, 0)" stroke-opacity="1" stroke-linecap="round" stroke-linejoin="round"/>
    <path d="M 100.4808120727539 91.18260192871094 C 95.04338836669922 83.84058380126953 108.5541763305664 97.7324447631836 100.02262115478516 89.1799087524414" stroke-width="2.0" fill="none" stroke="rgb(0, 0, 0)" stroke-opacity="1" stroke-linecap="round" stroke-linejoin="round"/>
    <path d="M 11.265077590942383 170.1129608154297 C 19.349964141845703 148.52838134765625 12.064876556396484 182.6624755859375 21.121591567993164 212.5178680419922 C 12.789091110229492 189.46685791015625 22.379610061645508 209.42774963378906 18.882123947143555 203.17526245117188" stroke-width="2.0" fill="none" stroke="rgb(0, 0, 0)" stroke-opacity="1" stroke-linecap="round" stroke-linejoin="round"/>
    <path d="M 218.6875762939453 174.0120086669922 C 213.9010009765625 147.70330810546875 216.8217315673828 170.7672576904297 237.31170654296875 181.4652557373047" stroke-width="2.0" fill="none" stroke="rgb(0, 0, 0)" stroke-opacity="1" stroke-linecap="round" stroke-linejoin="round"/>
    <path d="M 162.9033966064453 159.4720916748047 C 161.15480041503906 160.28948974609375 160.44456481933594 163.00868225097656 177.98779296875 170.0091094970703 C 181.15760803222656 176.51063537597656 129.80667114257812 184.54737854003906 119.66822052001953 178.57810974121094 C 161.20648193359375 186.3330078125 150.3511199951172 177.1996307373047 184.65493774414062 179.81817626953125" stroke-width="2.0" fill="none" stroke="rgb(0, 0, 0)" stroke-opacity="1" stroke-linecap="round" stroke-linejoin="round"/>
    <path d="M 6.735409259796143 59.51847457885742 C 21.7758846282959 69.10999298095703 30.01152801513672 21.847970962524414 24.958322525024414 46.99703598022461" stroke-width="2.0" fill="none" stroke="rgb(0, 0, 0)" stroke-opacity="1" stroke-linecap="round" stroke-linejoin="round"/>
    <path d="M 228.9325408935547 74.16111755371094 C 224.59445190429688 79.89071655273438 224.1903076171875 82.2080078125 184.66925048828125 91.75703430175781 C 225.605224609375 82.69979858398438 227.65536499023438 78.29122161865234 213.8341522216797 83.53147888183594" stroke-width="2.0" fill="none" stroke="rgb(0, 0, 0)" stroke-opacity="1" stroke-linecap="round" stroke-linejoin="round"/>
    <path d="M 93.05913543701172 141.8578338623047 C 104.84943389892578 133.96389770507812 114.00666046142578 152.01611328125 99.73595428466797 131.19644165039062" stroke-width="2.0" fill="none" stroke="rgb(0, 0, 0)" stroke-opacity="1" stroke-linecap="round" stroke-linejoin="round"/>
    <path d="M 217.95599365234375 82.97762298583984 C 218.56739807128906 83.62938690185547 194.97984313964844 90.3856430053711 182.3697509765625 91.23342895507812" stroke-width="2.0" fill="none" stroke="rgb(0, 0, 0)" stroke-opacity="1" stroke-linecap="round" stroke-linejoin="round"/>
    <path d="M 126.71636199951172 30.805482864379883 C 132.4400177001953 39.04627990722656 104.27040100097656 34.93801498413086 113.7526626586914 31.348894119262695 C 113.52490234375 38.451316833496094 135.05931091308594 35.84564971923828 155.26895141601562 40.26374435424805" stroke-width="2.0" fill="none" stroke="rgb(0, 0, 0)" stroke-opacity="1" stroke-linecap="round" stroke-linejoin="round"/>
    <path d="M 93.99644470214844 175.86231994628906 C 110.3623275756836 159.5932159423828 102.94755554199219 159.0537872314453 101.69793701171875 161.94342041015625 C 101.59336853027344 156.03468322753906 119.0352554321289 195.21302795410156 99.49354553222656 185.99205017089844" stroke-width="2.0" fill="none" stroke="rgb(0, 0, 0)" stroke-opacity="1" stroke-linecap="round" stroke-linejoin="round"/>
    <path d="M 125.8261489868164 121.31316375732422 C 118.23947143554688 105.73153686523438 120.23155212402344 113.05951690673828 138.20162963867188 128.0054473876953 C 131.35801696777344 131.3837432861328 133.2029266357422 135.2373504638672 122.7629165649414 122.23624420166016 C 106.91339111328125 102.87090301513672 117.7745132446289 121.43053436279297 128.01284790039062 133.14637756347656" stroke-width="2.0" fill="none" stroke="rgb(0, 0, 0)" stroke-opacity="1" stroke-linecap="round" stroke-linejoin="round"/>
    <path d="M 157.6648712158203 15.102994918823242 C 180.78688049316406 16.1790771484375 165.87387084960938 8.785675048828125 135.43927001953125 13.309496879577637" stroke-width="2.0" fill="none" stroke="rgb(0, 0, 0)" stroke-opacity="1" stroke-linecap="round" stroke-linejoin="round"/>
    <path d="M 219.2926788330078 88.28123474121094 C 195.03721618652344 87.02938842773438 187.5998992919922 93.00225830078125 187.9114227294922 91.1382064819336 C 220.071044921875 80.68643951416016 234.05914306640625 73.12935638427734 234.86610412597656 54.42673110961914 C 230.57608032226562 45.64112854003906 235.48089599609375 55.927711486816406 239.589111328125 63.85814666748047" stroke-width="2.0" fill="none" stroke="rgb(0, 0, 0)" stroke-opacity="1" stroke-linecap="round" stroke-linejoin="round"/>
    <path d="M 189.93325805664062 101.46733856201172 C 196.99424743652344 119.789794921875 196.1007537841797 104.68669891357422 175.86936950683594 88.70033264160156" stroke-width="2.0" fill="none" stroke="rgb(0, 0, 0)" stroke-opacity="1" stroke-linecap="round" stroke-linejoin="round"/>
    <path d="M 13.349699020385742 179.1905517578125 C -8.928194046020508 170.47549438476562 33.42580032348633 177.7584991455078 30.964277267456055 175.72926330566406 C 29.875179290771484 180.89892578125 27.226116180419922 206.0809326171875 40.76774215698242 214.91632080078125 C 49.71520233154297 220.17320251464844 59.58074951171875 221.08888244628906 76.64335632324219 225.0433807373047" stroke-width="2.0" fill="none" stroke="rgb(0, 0, 0)" stroke-opacity="1" stroke-linecap="round" stroke-linejoin="round"/>
    <path d="M 212.21237182617188 91.62385559082031 C 180.37876892089844 89.29611206054688 187.20755004882812 95.52159118652344 216.81117248535156 96.67354583740234" stroke-width="2.0" fill="none" stroke="rgb(0, 0, 0)" stroke-opacity="1" stroke-linecap="round" stroke-linejoin="round"/>
    <path d="M 159.98876953125 215.3289031982422 C 138.16934204101562 216.0127410888672 148.0462646484375 219.82562255859375 146.01925659179688 214.8599853515625 C 119.3369140625 211.99107360839844 139.53306579589844 209.64402770996094 156.7401580810547 205.82469177246094 C 158.37521362304688 211.04957580566406 130.3316650390625 221.0572967529297 140.10508728027344 212.96351623535156" stroke-width="2.0" fill="none" stroke="rgb(0, 0, 0)" stroke-opacity="1" stroke-linecap="round" stroke-linejoin="round"/>
    <path d="M 160.62953186035156 75.44770812988281 C 184.01235961914062 73.96379852294922 145.642578125 64.45111083984375 160.95948791503906 83.39606475830078 C 177.27561950683594 77.7127914428711 173.52389526367188 84.43629455566406 163.40377807617188 64.7856216430664 C 150.1406707763672 68.2765121459961 157.70277404785156 80.80421447753906 169.73695373535156 76.30615997314453" stroke-width="2.0" fill="none" stroke="rgb(0, 0, 0)" stroke-opacity="1" stroke-linecap="round" stroke-linejoin="round"/>
    <path d="M 168.15838623046875 152.12403869628906 C 166.08856201171875 135.5187530517578 178.81842041015625 159.73348999023438 158.0885772705078 161.11663818359375 C 190.49176025390625 145.94886779785156 179.71324157714844 150.734619140625 175.3307647705078 155.99151611328125 C 176.53347778320312 170.13433837890625 202.86160278320312 170.04397583007812 176.88235473632812 173.6300811767578" stroke-width="2.0" fill="none" stroke="rgb(0, 0, 0)" stroke-opacity="1" stroke-linecap="round" stroke-linejoin="round"/>
    <path d="M 207.82296752929688 20.343053817749023 C 157.7566375732422 18.406543731689453 178.34068298339844 29.170549392700195 190.07432556152344 23.25030517578125 C 196.90220642089844 -7.886613368988037 201.54510498046875 17.47907257080078 183.25567626953125 15.556225776672363" stroke-width="2.0" fill="none" stroke="rgb(0, 0, 0)" stroke-opacity="1" stroke-linecap="round" stroke-linejoin="round"/>
    <path d="M 51.03617858886719 60.68309020996094 C 33.59504699707031 79.68576049804688 26.278705596923828 47.881591796875 31.58291244506836 82.04395294189453 C 39.62532424926758 109.88768005371094 57.80419158935547 91.3788833618164 23.769155502319336 106.50215911865234 C 49.119449615478516 97.51013946533203 50.613487243652344 103.0632553100586 34.9825439453125 97.7196044921875" stroke-width="2.0" fill="none" stroke="rgb(0, 0, 0)" stroke-opacity="1" stroke-linecap="round" stroke-linejoin="round"/>
    <path d="M 16.23530387878418 82.07716369628906 C 15.510766983032227 75.88028717041016 17.755489349365234 87.41397857666016 -8.414950370788574 81.60501098632812 C 22.388572692871094 87.64984130859375 30.77899169921875 83.08202362060547 -9.567374229431152 86.0877914428711" stroke-width="2.0" fill="none" stroke="rgb(0, 0, 0)" stroke-opacity="1" stroke-linecap="round" stroke-linejoin="round"/>
    <path d="M 68.35619354248047 138.76736450195312 C 39.908634185791016 155.78416442871094 27.92009162902832 151.93093872070312 37.48395919799805 142.4329833984375 C 44.97780990600586 144.77027893066406 39.689842224121094 152.1575469970703 30.82924461364746 151.66432189941406 C 63.27079772949219 148.80224609375 44.87167739868164 134.6519317626953 49.56089782714844 146.5603790283203" stroke-width="2.0" fill="none" stroke="rgb(0, 0, 0)" stroke-opacity="1" stroke-linecap="round" stroke-linejoin="round"/>
    <path d="M 169.38621520996094 227.69686889648438 C 177.76332092285156 228.74822998046875 182.16770935058594 234.9508819580078 174.5778350830078 241.04183959960938" stroke-width="2.0" fill="none" stroke="rgb(0, 0, 0)" stroke-opacity="1" stroke-linecap="round" stroke-linejoin="round"/>
    <path d="M 92.93084716796875 149.92007446289062 C 104.25226593017578 147.19667053222656 105.01155090332031 154.28079223632812 91.49275970458984 174.2616729736328" stroke-width="2.0" fill="none" stroke="rgb(0, 0, 0)" stroke-opacity="1" stroke-linecap="round" stroke-linejoin="round"/>
    <path d="M 16.78531265258789 -3.967910051345825 C 0.8173452615737915 -2.945559501647949 -2.349747657775879 -8.273736953735352 6.1887712478637695 -9.685320854187012 C 5.375616550445557 -2.414433002471924 -3.408918619155884 -10.178916931152344 -3.7838294506073 -15.439732551574707" stroke-width="2.0" fill="none" stroke="rgb(0, 0, 0)" stroke-opacity="1" stroke-linecap="round" stroke-linejoin="round"/>
    <path d="M 7.29235315322876 90.12928009033203 C 1.499873399734497 74.49830627441406 2.485614538192749 109.54690551757812 9.29106616973877 100.76359558105469" stroke-width="2.0" fill="none" stroke="rgb(0, 0, 0)" stroke-opacity="1" stroke-linecap="round" stroke-linejoin="round"/>
    <path d="M 151.39208984375 191.7224884033203 C 148.0514678955078 204.8319854736328 150.02842712402344 176.04356384277344 154.59283447265625 213.05335998535156 C 157.73634338378906 236.30650329589844 171.54568481445312 223.80947875976562 175.75347900390625 231.51986694335938 C 172.09178161621094 243.38401794433594 171.4013214111328 236.95848083496094 176.0597381591797 241.60809326171875" stroke-width="2.0" fill="none" stroke="rgb(0, 0, 0)" stroke-opacity="1" stroke-linecap="round" stroke-linejoin="round"/>
    <path d="M 202.44142150878906 4.015188217163086 C 208.2992401123047 7.41495943069458 198.00601196289062 24.75644874572754 198.61805725097656 -8.757668495178223 C 181.6373748779297 36.351776123046875 190.72613525390625 31.94131088256836 189.06312561035156 -8.1626615524292" stroke-width="2.0" fill="none" stroke="rgb(0, 0, 0)" stroke-opacity="1" stroke-linecap="round" stroke-linejoin="round"/>
    <path d="M 65.46597290039062 79.13013458251953 C 30.49054527282715 94.02091217041016 59.134803771972656 84.89164733886719 54.827301025390625 57.45256423950195 C 23.841136932373047 50.990234375 52.242530822753906 71.60120391845703 29.04815673828125 64.94217681884766 C 46.20485305786133 65.20391082763672 59.733665466308594 64.25444030761719 51.52029800415039 66.04753112792969" stroke-width="2.0" fill="none" stroke="rgb(0, 0, 0)" stroke-opacity="1" stroke-linecap="round" stroke-linejoin="round"/>
    <path d="M 13.237859725952148 106.88636779785156 C 31.529420852661133 103.36991119384766 22.112773895263672 110.88908386230469 9.958257675170898 109.03132629394531" stroke-width="2.0" fill="none" stroke="rgb(0, 0, 0)" stroke-opacity="1" stroke-linecap="round" stroke-linejoin="round"/>
    <path d="M 16.068342208862305 136.82730102539062 C 0.5789591073989868 139.59951782226562 5.377871513366699 163.7917022705078 21.4007511138916 138.16610717773438" stroke-width="2.0" fill="none" stroke="rgb(0, 0, 0)" stroke-opacity="1" stroke-linecap="round" stroke-linejoin="round"/>
    <path d="M 4.202380657196045 182.85223388671875 C 10.910938262939453 176.27769470214844 0.32866159081459045 203.34176635742188 15.504084587097168 190.58738708496094" stroke-width="2.0" fill="none" stroke="rgb(0, 0, 0)" stroke-opacity="1" stroke-linecap="round" stroke-linejoin="round"/>
    <path d="M 155.80104064941406 208.55447387695312 C 152.46774291992188 189.80804443359375 130.5519561767578 197.36241149902344 154.6519317626953 209.34283447265625 C 150.4416961669922 214.4840545654297 156.97055053710938 209.68667602539062 160.99728393554688 217.98284912109375" stroke-width="2.0" fill="none" stroke="rgb(0, 0, 0)" stroke-opacity="1" stroke-linecap="round" stroke-linejoin="round"/>
  </g>
</svg>
