<?xml version="1.0" ?>
<svg xmlns="http://www.w3.org/2000/svg" version="1.1" width="224" height="224">
  <defs/>
  <g>
    <path d="M 111.11886596679688 103.2086181640625 C 82.45935821533203 119.79722595214844 102.98954010009766 103.30562591552734 97.60867309570312 68.89556121826172" stroke-width="2.0" fill="none" stroke="rgb(0, 0, 0)" stroke-opacity="1" stroke-linecap="round" stroke-linejoin="round"/>
    <path d="M 117.7013168334961 145.09568786621094 C 102.06708526611328 152.49314880371094 125.24874877929688 156.63490295410156 113.67266845703125 144.23655700683594 C 89.71198272705078 167.01705932617188 137.161865234375 162.4214630126953 92.17227172851562 149.2449493408203" stroke-width="2.0" fill="none" stroke="rgb(0, 0, 0)" stroke-opacity="1" stroke-linecap="round" stroke-linejoin="round"/>
    <path d="M 116.7938461303711 183.47068786621094 C 128.58998107910156 181.1680145263672 114.48611450195312 174.58663940429688 117.34149169921875 182.60800170898438 C 111.89349365234375 187.5101776123047 104.17496490478516 153.9801788330078 126.00790405273438 160.4285430908203" stroke-width="2.0" fill="none" stroke="rgb(0, 0, 0)" stroke-opacity="1" stroke-linecap="round" stroke-linejoin="round"/>
    <path d="M 190.69186401367188 58.71091842651367 C 189.38743591308594 63.185523986816406 172.53587341308594 64.68212127685547 219.1862335205078 69.22815704345703 C 189.67953491210938 103.86616516113281 185.35496520996094 79.32978820800781 220.18386840820312 98.19172668457031" stroke-width="2.0" fill="none" stroke="rgb(0, 0, 0)" stroke-opacity="1" stroke-linecap="round" stroke-linejoin="round"/>
    <path d="M 79.44649505615234 10.190906524658203 C 86.05797576904297 -2.8958959579467773 76.82926940917969 7.367193698883057 56.90397644042969 -7.243215084075928 C 75.93195343017578 -16.99445343017578 61.31844711303711 -17.03616714477539 51.8597526550293 7.4873857498168945 C 79.0108871459961 9.13168716430664 88.11296081542969 24.038196563720703 89.05113983154297 9.932343482971191" stroke-width="2.0" fill="none" stroke="rgb(0, 0, 0)" stroke-opacity="1" stroke-linecap="round" stroke-linejoin="round"/>
    <path d="M 167.02603149414062 54.00762176513672 C 197.58035278320312 38.17851638793945 159.50604248046875 31.4005069732666 172.52613830566406 53.93958282470703 C 178.45494079589844 31.306716918945312 177.32708740234375 52.56340408325195 175.57969665527344 60.88692092895508" stroke-width="2.0" fill="none" stroke="rgb(0, 0, 0)" stroke-opacity="1" stroke-linecap="round" stroke-linejoin="round"/>
    <path d="M 188.98675537109375 177.31158447265625 C 189.85609436035156 195.13742065429688 210.34689331054688 161.77992248535156 223.42861938476562 185.33474731445312 C 212.24453735351562 163.45172119140625 231.9333953857422 118.99436950683594 218.4996337890625 129.42568969726562" stroke-width="2.0" fill="none" stroke="rgb(0, 0, 0)" stroke-opacity="1" stroke-linecap="round" stroke-linejoin="round"/>
    <path d="M 135.79624938964844 21.893831253051758 C 145.85032653808594 48.76028823852539 136.97311401367188 26.634838104248047 155.9417266845703 32.446990966796875 C 129.80026245117188 44.12863540649414 136.46023559570312 47.901397705078125 130.72515869140625 36.924991607666016" stroke-width="2.0" fill="none" stroke="rgb(0, 0, 0)" stroke-opacity="1" stroke-linecap="round" stroke-linejoin="round"/>
    <path d="M 45.78131866455078 168.5726776123047 C 51.15449142456055 174.40682983398438 48.258880615234375 165.89414978027344 26.899354934692383 158.95632934570312 C 37.3138313293457 171.28831481933594 51.142024993896484 149.53265380859375 27.2637996673584 150.66090393066406" stroke-width="2.0" fill="none" stroke="rgb(0, 0, 0)" stroke-opacity="1" stroke-linecap="round" stroke-linejoin="round"/>
    <path d="M 152.29330444335938 118.0778579711914 C 162.76571655273438 131.8819580078125 158.90443420410156 131.86155700683594 167.5642852783203 110.09073638916016 C 147.95999145507812 119.24641418457031 130.29505920410156 109.58488464355469 134.47848510742188 93.1667709350586" stroke-width="2.0" fill="none" stroke="rgb(0, 0, 0)" stroke-opacity="1" stroke-linecap="round" stroke-linejoin="round"/>
    <path d="M 231.6686248779297 12.914180755615234 C 243.2657012939453 0.9403588771820068 233.5005340576172 14.4112548828125 223.63316345214844 -5.115879058837891 C 217.0667724609375 19.37281036376953 203.48146057128906 -4.979414939880371 223.84197998046875 8.845831871032715" stroke-width="2.0" fill="none" stroke="rgb(0, 0, 0)" stroke-opacity="1" stroke-linecap="round" stroke-linejoin="round"/>
    <path d="M 159.1246337890625 126.41486358642578 C 170.66677856445312 97.29963684082031 149.9181671142578 82.96687316894531 180.41339111328125 98.49280548095703" stroke-width="2.0" fill="none" stroke="rgb(0, 0, 0)" stroke-opacity="1" stroke-linecap="round" stroke-linejoin="round"/>
    <path d="M 29.75433921813965 136.17491149902344 C 17.475160598754883 131.0213623046875 1.2022675275802612 132.77223205566406 -8.957508087158203 147.86181640625" stroke-width="2.0" fill="none" stroke="rgb(0, 0, 0)" stroke-opacity="1" stroke-linecap="round" stroke-linejoin="round"/>
    <path d="M 144.79396057128906 161.13792419433594 C 148.43975830078125 141.2420654296875 147.68421936035156 151.46905517578125 133.31765747070312 143.906005859375 C 171.1924285888672 154.23385620117188 171.59225463867188 123.26460266113281 140.53736877441406 131.60952758789062 C 133.149658203125 158.22830200195312 120.29237365722656 158.02952575683594 140.82647705078125 162.3465576171875" stroke-width="2.0" fill="none" stroke="rgb(0, 0, 0)" stroke-opacity="1" stroke-linecap="round" stroke-linejoin="round"/>
    <path d="M 63.009071350097656 40.796607971191406 C 83.49684143066406 22.837167739868164 43.650264739990234 11.972237586975098 18.297012329101562 36.21361541748047 C 52.65272521972656 43.63447570800781 43.91823196411133 38.9320068359375 41.35316467285156 79.87818908691406" stroke-width="2.0" fill="none" stroke="rgb(0, 0, 0)" stroke-opacity="1" stroke-linecap="round" stroke-linejoin="round"/>
    <path d="M 177.4815673828125 216.55996704101562 C 160.23989868164062 251.14723205566406 161.29612731933594 221.5815887451172 173.39190673828125 213.18975830078125 C 143.6026611328125 199.88430786132812 189.80126953125 215.60342407226562 172.63238525390625 202.08509826660156" stroke-width="2.0" fill="none" stroke="rgb(0, 0, 0)" stroke-opacity="1" stroke-linecap="round" stroke-linejoin="round"/>
    <path d="M 178.20779418945312 187.1555633544922 C 183.28880310058594 196.45994567871094 176.0249786376953 188.84291076660156 157.64529418945312 180.90773010253906 C 152.53038024902344 162.39285278320312 175.5823516845703 167.46002197265625 161.9369354248047 182.25772094726562" stroke-width="2.0" fill="none" stroke="rgb(0, 0, 0)" stroke-opacity="1" stroke-linecap="round" stroke-linejoin="round"/>
    <path d="M 128.92547607421875 120.33171844482422 C 117.35535430908203 91.86013793945312 100.0824203491211 97.10095977783203 128.18508911132812 129.15115356445312" stroke-width="2.0" fill="none" stroke="rgb(0, 0, 0)" stroke-opacity="1" stroke-linecap="round" stroke-linejoin="round"/>
    <path d="M 99.27949523925781 32.08090591430664 C 131.73394775390625 46.864505767822266 111.36022186279297 33.17334747314453 104.07647705078125 64.31209564208984 C 65.94241333007812 64.36207580566406 83.49435424804688 57.3270149230957 103.83220672607422 59.33260726928711 C 85.21089935302734 73.5365982055664 124.22113037109375 62.207454681396484 111.11651611328125 63.1966438293457" stroke-width="2.0" fill="none" stroke="rgb(0, 0, 0)" stroke-opacity="1" stroke-linecap="round" stroke-linejoin="round"/>
    <path d="M 162.63519287109375 44.724185943603516 C 158.64389038085938 55.432716369628906 166.40335083007812 54.28932571411133 177.3402862548828 50.38507080078125 C 184.9959716796875 41.4832878112793 186.87869262695312 36.84383010864258 159.63894653320312 26.709611892700195 C 181.11181640625 33.42341995239258 173.72824096679688 23.937772750854492 139.1294708251953 29.27754783630371" stroke-width="2.0" fill="none" stroke="rgb(0, 0, 0)" stroke-opacity="1" stroke-linecap="round" stroke-linejoin="round"/>
    <path d="M -0.9816719889640808 15.1145601272583 C 58.4686393737793 -15.2484130859375 21.650585174560547 -6.352659225463867 46.24249267578125 10.633171081542969 C 21.598196029663086 17.034503936767578 16.003774642944336 28.5347900390625 11.600432395935059 60.471927642822266 C 31.755407333374023 27.198486328125 6.995293617248535 45.49330520629883 28.872465133666992 44.51810073852539" stroke-width="2.0" fill="none" stroke="rgb(0, 0, 0)" stroke-opacity="1" stroke-linecap="round" stroke-linejoin="round"/>
    <path d="M 96.9971694946289 147.7089385986328 C 138.65499877929688 158.55860900878906 126.88358306884766 189.30615234375 88.26342010498047 153.20730590820312 C 96.38603973388672 154.2188262939453 120.4254150390625 171.12649536132812 103.18621826171875 161.39845275878906 C 84.0942611694336 182.73509216308594 85.09720611572266 195.84820556640625 109.97052764892578 173.72901916503906" stroke-width="2.0" fill="none" stroke="rgb(0, 0, 0)" stroke-opacity="1" stroke-linecap="round" stroke-linejoin="round"/>
    <path d="M 31.0100040435791 172.2744140625 C 22.136465072631836 170.24270629882812 30.30243682861328 183.60183715820312 32.28227996826172 172.92596435546875" stroke-width="2.0" fill="none" stroke="rgb(0, 0, 0)" stroke-opacity="1" stroke-linecap="round" stroke-linejoin="round"/>
    <path d="M 91.78790283203125 191.06857299804688 C 76.00714111328125 179.36289978027344 90.13591766357422 172.7713165283203 92.20423889160156 171.94436645507812 C 107.62596893310547 140.3372039794922 123.739501953125 142.8881072998047 99.68367767333984 138.34567260742188" stroke-width="2.0" fill="none" stroke="rgb(0, 0, 0)" stroke-opacity="1" stroke-linecap="round" stroke-linejoin="round"/>
    <path d="M 87.455810546875 195.3621063232422 C 69.88404846191406 166.6118927001953 120.3878173828125 201.65699768066406 85.49378204345703 172.73342895507812 C 89.34278869628906 173.9576873779297 123.99341583251953 185.34124755859375 94.99887084960938 168.25901794433594 C 133.20733642578125 127.80175018310547 81.30357360839844 137.06944274902344 105.04737854003906 141.2078857421875" stroke-width="2.0" fill="none" stroke="rgb(0, 0, 0)" stroke-opacity="1" stroke-linecap="round" stroke-linejoin="round"/>
    <path d="M 25.12786293029785 25.933313369750977 C 11.717721939086914 52.656394958496094 16.18692970275879 52.43168258666992 17.752016067504883 46.883216857910156" stroke-width="2.0" fill="none" stroke="rgb(0, 0, 0)" stroke-opacity="1" stroke-linecap="round" stroke-linejoin="round"/>
    <path d="M 153.16708374023438 195.7986602783203 C 124.90253448486328 228.15951538085938 146.52825927734375 248.01698303222656 174.85391235351562 190.68157958984375 C 130.28663635253906 228.01634216308594 150.0906524658203 275.68505859375 148.16494750976562 280.7983703613281 C 143.3028106689453 242.90676879882812 137.55844116210938 236.95738220214844 142.85791015625 226.0539093017578" stroke-width="2.0" fill="none" stroke="rgb(0, 0, 0)" stroke-opacity="1" stroke-linecap="round" stroke-linejoin="round"/>
    <path d="M 161.03321838378906 122.43425750732422 C 177.1944580078125 142.4345703125 175.97454833984375 131.4056854248047 192.71385192871094 111.95619201660156" stroke-width="2.0" fill="none" stroke="rgb(0, 0, 0)" stroke-opacity="1" stroke-linecap="round" stroke-linejoin="round"/>
    <path d="M 117.8375015258789 89.72460174560547 C 118.97163391113281 100.70904541015625 107.4454574584961 79.36323547363281 119.33118438720703 83.58892822265625 C 115.87303924560547 65.80978393554688 111.97279357910156 87.90837097167969 112.22683715820312 77.13391876220703" stroke-width="2.0" fill="none" stroke="rgb(0, 0, 0)" stroke-opacity="1" stroke-linecap="round" stroke-linejoin="round"/>
    <path d="M 235.7338104248047 17.89061737060547 C 190.2086639404297 10.553827285766602 219.52398681640625 4.00199031829834 221.28468322753906 37.76833724975586" stroke-width="2.0" fill="none" stroke="rgb(0, 0, 0)" stroke-opacity="1" stroke-linecap="round" stroke-linejoin="round"/>
    <path d="M 110.32023620605469 125.952880859375 C 104.58885955810547 140.79055786132812 116.45405578613281 109.35743713378906 86.58311462402344 121.26000213623047 C 85.8244400024414 128.65188598632812 99.03404235839844 133.32020568847656 91.94459533691406 123.37057495117188" stroke-width="2.0" fill="none" stroke="rgb(0, 0, 0)" stroke-opacity="1" stroke-linecap="round" stroke-linejoin="round"/>
    <path d="M 12.63749885559082 168.24305725097656 C 4.337754249572754 215.53317260742188 6.8590497970581055 200.47474670410156 13.835793495178223 203.40493774414062" stroke-width="2.0" fill="none" stroke="rgb(0, 0, 0)" stroke-opacity="1" stroke-linecap="round" stroke-linejoin="round"/>
    <path d="M 36.33208465576172 40.29283142089844 C 35.222312927246094 39.4906005859375 32.71984100341797 37.14581298828125 27.757164001464844 37.76339340209961" stroke-width="2.0" fill="none" stroke="rgb(0, 0, 0)" stroke-opacity="1" stroke-linecap="round" stroke-linejoin="round"/>
    <path d="M 98.018310546875 231.3077392578125 C 85.31465911865234 199.348388671875 103.32574462890625 184.20315551757812 108.88832092285156 213.1822967529297 C 118.41474914550781 250.16844177246094 100.6299057006836 236.60256958007812 100.0914306640625 200.5506591796875" stroke-width="2.0" fill="none" stroke="rgb(0, 0, 0)" stroke-opacity="1" stroke-linecap="round" stroke-linejoin="round"/>
    <path d="M 123.10922241210938 146.4267120361328 C 128.93373107910156 152.94297790527344 128.36912536621094 137.40924072265625 122.80622100830078 144.6570281982422" stroke-width="2.0" fill="none" stroke="rgb(0, 0, 0)" stroke-opacity="1" stroke-linecap="round" stroke-linejoin="round"/>
    <path d="M 72.13509368896484 4.490157127380371 C 51.690101623535156 37.13337326049805 50.56210708618164 37.25572204589844 67.5186996459961 36.82131576538086" stroke-width="2.0" fill="none" stroke="rgb(0, 0, 0)" stroke-opacity="1" stroke-linecap="round" stroke-linejoin="round"/>
    <path d="M 132.60313415527344 98.30403900146484 C 150.1825714111328 84.99378967285156 133.1580352783203 65.8355941772461 136.47898864746094 95.33942413330078 C 124.86200714111328 74.95355987548828 135.0048065185547 115.0401611328125 110.69779968261719 111.37579345703125" stroke-width="2.0" fill="none" stroke="rgb(0, 0, 0)" stroke-opacity="1" stroke-linecap="round" stroke-linejoin="round"/>
    <path d="M 223.10475158691406 49.359825134277344 C 211.0991973876953 23.471054077148438 169.30125427246094 33.970726013183594 185.3186492919922 67.44234466552734 C 156.3427734375 51.65717697143555 161.43214416503906 37.1027946472168 177.53155517578125 61.10812759399414" stroke-width="2.0" fill="none" stroke="rgb(0, 0, 0)" stroke-opacity="1" stroke-linecap="round" stroke-linejoin="round"/>
    <path d="M 127.04734802246094 120.56066131591797 C 118.42999267578125 118.33142852783203 113.43836212158203 91.51258087158203 116.77608489990234 105.01407623291016 C 88.41780090332031 118.50590515136719 99.13550567626953 107.28009033203125 107.21885681152344 128.72889709472656 C 90.00975036621094 104.72769927978516 86.2540512084961 82.64424133300781 107.85405731201172 89.00675964355469" stroke-width="2.0" fill="none" stroke="rgb(0, 0, 0)" stroke-opacity="1" stroke-linecap="round" stroke-linejoin="round"/>
    <path d="M 74.46250915527344 92.80155181884766 C 58.58784484863281 117.63679504394531 81.10395050048828 141.44302368164062 73.711669921875 117.05865478515625" stroke-width="2.0" fill="none" stroke="rgb(0, 0, 0)" stroke-opacity="1" stroke-linecap="round" stroke-linejoin="round"/>
    <path d="M 155.4566192626953 219.2190399169922 C 185.52992248535156 217.7259063720703 195.63963317871094 225.533935546875 214.05003356933594 237.6609649658203 C 192.99005126953125 228.40647888183594 196.7543182373047 244.48545837402344 210.0274658203125 227.94033813476562 C 191.8246612548828 204.46058654785156 220.66415405273438 211.67764282226562 205.52964782714844 218.91790771484375" stroke-width="2.0" fill="none" stroke="rgb(0, 0, 0)" stroke-opacity="1" stroke-linecap="round" stroke-linejoin="round"/>
    <path d="M 103.11327362060547 122.18579864501953 C 94.03388977050781 127.43946075439453 120.77384185791016 136.0750732421875 125.93418884277344 132.94139099121094 C 113.88241577148438 143.8219451904297 123.36984252929688 145.50872802734375 109.16058349609375 141.94056701660156" stroke-width="2.0" fill="none" stroke="rgb(0, 0, 0)" stroke-opacity="1" stroke-linecap="round" stroke-linejoin="round"/>
    <path d="M 7.5982208251953125 46.91891860961914 C -35.16510772705078 41.34188461303711 -25.9388370513916 46.04655456542969 -20.80587387084961 54.7860107421875" stroke-width="2.0" fill="none" stroke="rgb(0, 0, 0)" stroke-opacity="1" stroke-linecap="round" stroke-linejoin="round"/>
    <path d="M 47.563446044921875 54.20327377319336 C 39.65760803222656 106.26387023925781 54.951454162597656 76.11466979980469 45.51610565185547 45.64091491699219 C 72.14289855957031 76.1915512084961 40.46987533569336 85.90857696533203 54.12596130371094 37.48322677612305" stroke-width="2.0" fill="none" stroke="rgb(0, 0, 0)" stroke-opacity="1" stroke-linecap="round" stroke-linejoin="round"/>
    <path d="M 194.1150665283203 215.90325927734375 C 184.32098388671875 224.51014709472656 202.3055877685547 223.32400512695312 221.2061004638672 225.68240356445312 C 213.54396057128906 245.43194580078125 216.747314453125 243.96707153320312 207.57249450683594 251.02444458007812" stroke-width="2.0" fill="none" stroke="rgb(0, 0, 0)" stroke-opacity="1" stroke-linecap="round" stroke-linejoin="round"/>
    <path d="M 175.93409729003906 6.929575443267822 C 136.65882873535156 -7.983346462249756 168.87155151367188 -3.6181490421295166 181.5910186767578 4.945290565490723 C 171.64869689941406 16.516386032104492 168.92430114746094 44.16317367553711 166.20823669433594 21.756141662597656" stroke-width="2.0" fill="none" stroke="rgb(0, 0, 0)" stroke-opacity="1" stroke-linecap="round" stroke-linejoin="round"/>
    <path d="M -22.82400894165039 156.01405334472656 C 3.691077470779419 150.1321563720703 28.258283615112305 146.6572265625 -5.964486122131348 157.08338928222656 C 6.005492210388184 141.2904052734375 -14.511598587036133 146.80795288085938 -24.97499656677246 157.81346130371094" stroke-width="2.0" fill="none" stroke="rgb(0, 0, 0)" stroke-opacity="1" stroke-linecap="round" stroke-linejoin="round"/>
    <path d="M 155.17767333984375 225.20445251464844 C 160.36788940429688 198.2958984375 191.744140625 178.25794982910156 216.93307495117188 177.98866271972656" stroke-width="2.0" fill="none" stroke="rgb(0, 0, 0)" stroke-opacity="1" stroke-linecap="round" stroke-linejoin="round"/>
    <path d="M 50.68695831298828 178.82994079589844 C 50.469261169433594 162.7380828857422 57.422279357910156 162.86611938476562 62.63273239135742 149.3240203857422 C 54.52596664428711 153.5993194580078 57.3924446105957 175.3397979736328 47.50857925415039 187.3170166015625" stroke-width="2.0" fill="none" stroke="rgb(0, 0, 0)" stroke-opacity="1" stroke-linecap="round" stroke-linejoin="round"/>
    <path d="M 64.5677490234375 110.4124755859375 C 52.22978973388672 89.91390991210938 69.72323608398438 160.8574981689453 72.10578918457031 140.18502807617188 C 106.7908935546875 127.16727447509766 72.12045288085938 136.05975341796875 59.23540496826172 158.83505249023438 C 56.711143493652344 98.35660552978516 71.23680877685547 182.4339141845703 59.591495513916016 137.1896209716797" stroke-width="2.0" fill="none" stroke="rgb(0, 0, 0)" stroke-opacity="1" stroke-linecap="round" stroke-linejoin="round"/>
    <path d="M 67.894287109375 133.35244750976562 C 85.20427703857422 112.40977478027344 95.26846313476562 128.98831176757812 88.76183319091797 125.41717529296875" stroke-width="2.0" fill="none" stroke="rgb(0, 0, 0)" stroke-opacity="1" stroke-linecap="round" stroke-linejoin="round"/>
    <path d="M 100.25389862060547 101.85210418701172 C 89.39703369140625 100.94231414794922 105.5202865600586 89.86624908447266 72.00146484375 82.561767578125" stroke-width="2.0" fill="none" stroke="rgb(0, 0, 0)" stroke-opacity="1" stroke-linecap="round" stroke-linejoin="round"/>
    <path d="M 220.5745086669922 50.59014892578125 C 218.2566680908203 43.348480224609375 224.66720581054688 65.20740509033203 213.30953979492188 64.92845916748047 C 203.48731994628906 41.49041748046875 248.0699462890625 78.07173919677734 216.19863891601562 48.75809097290039" stroke-width="2.0" fill="none" stroke="rgb(0, 0, 0)" stroke-opacity="1" stroke-linecap="round" stroke-linejoin="round"/>
    <path d="M 133.8324737548828 199.11032104492188 C 80.88571166992188 198.03123474121094 73.52082061767578 243.87445068359375 101.75596618652344 202.3759002685547" stroke-width="2.0" fill="none" stroke="rgb(0, 0, 0)" stroke-opacity="1" stroke-linecap="round" stroke-linejoin="round"/>
    <path d="M 58.36474609375 2.44272780418396 C 20.532995223999023 6.242870807647705 34.31256866455078 1.4953312873840332 39.11470413208008 20.23603630065918" stroke-width="2.0" fill="none" stroke="rgb(0, 0, 0)" stroke-opacity="1" stroke-linecap="round" stroke-linejoin="round"/>
    <path d="M 157.3308563232422 93.40447998046875 C 141.88705444335938 97.13992309570312 131.1805877685547 69.81839752197266 158.640380859375 94.53242492675781" stroke-width="2.0" fill="none" stroke="rgb(0, 0, 0)" stroke-opacity="1" stroke-linecap="round" stroke-linejoin="round"/>
    <path d="M 171.6562957763672 203.41851806640625 C 141.798828125 245.01565551757812 181.14117431640625 215.7122344970703 156.52745056152344 215.5340118408203" stroke-width="2.0" fill="none" stroke="rgb(0, 0, 0)" stroke-opacity="1" stroke-linecap="round" stroke-linejoin="round"/>
    <path d="M 136.59271240234375 103.10823059082031 C 109.29691314697266 63.022586822509766 140.9693603515625 101.62593078613281 141.33303833007812 89.08512878417969 C 158.771728515625 67.39584350585938 162.5373077392578 57.69064712524414 138.86611938476562 88.32286071777344 C 136.9378204345703 87.17933654785156 144.4506378173828 94.89833068847656 125.77080535888672 111.31257629394531" stroke-width="2.0" fill="none" stroke="rgb(0, 0, 0)" stroke-opacity="1" stroke-linecap="round" stroke-linejoin="round"/>
    <path d="M 6.359897613525391 131.67738342285156 C 5.509101867675781 150.51158142089844 9.566990852355957 133.04078674316406 18.672069549560547 92.73529815673828 C 10.725285530090332 148.47518920898438 -5.653722763061523 118.45014190673828 29.332260131835938 126.1307601928711" stroke-width="2.0" fill="none" stroke="rgb(0, 0, 0)" stroke-opacity="1" stroke-linecap="round" stroke-linejoin="round"/>
    <path d="M 188.3173065185547 174.6109619140625 C 176.71766662597656 161.84490966796875 217.9149932861328 153.9282684326172 225.2080841064453 171.8170928955078 C 233.19189453125 130.50137329101562 175.5735626220703 156.86599731445312 192.367431640625 156.9437255859375" stroke-width="2.0" fill="none" stroke="rgb(0, 0, 0)" stroke-opacity="1" stroke-linecap="round" stroke-linejoin="round"/>
    <path d="M 83.98591613769531 84.95526885986328 C 93.20738983154297 81.30318450927734 85.7379379272461 104.87818908691406 109.22994995117188 97.30419158935547" stroke-width="2.0" fill="none" stroke="rgb(0, 0, 0)" stroke-opacity="1" stroke-linecap="round" stroke-linejoin="round"/>
    <path d="M 61.00720977783203 129.69525146484375 C 47.820701599121094 144.9207305908203 60.45112228393555 113.5489273071289 56.52814483642578 137.1270751953125 C 57.6177978515625 102.92293548583984 66.9655990600586 155.22817993164062 65.65940856933594 144.5432891845703" stroke-width="2.0" fill="none" stroke="rgb(0, 0, 0)" stroke-opacity="1" stroke-linecap="round" stroke-linejoin="round"/>
    <path d="M 98.92891693115234 201.6813507080078 C 77.7411117553711 223.30149841308594 91.35136413574219 201.6300506591797 107.14572143554688 194.79739379882812" stroke-width="2.0" fill="none" stroke="rgb(0, 0, 0)" stroke-opacity="1" stroke-linecap="round" stroke-linejoin="round"/>
    <path d="M 110.10204315185547 102.02424621582031 C 101.07286071777344 89.8868637084961 136.86268615722656 104.98831939697266 125.76844787597656 92.84860229492188" stroke-width="2.0" fill="none" stroke="rgb(0, 0, 0)" stroke-opacity="1" stroke-linecap="round" stroke-linejoin="round"/>
    <path d="M 157.0255126953125 52.91434097290039 C 128.2694091796875 68.58345031738281 116.70222473144531 103.25642395019531 125.6233901977539 91.10145568847656" stroke-width="2.0" fill="none" stroke="rgb(0, 0, 0)" stroke-opacity="1" stroke-linecap="round" stroke-linejoin="round"/>
    <path d="M 152.87966918945312 120.65509033203125 C 171.97940063476562 115.56812286376953 142.12405395507812 114.52610778808594 164.15589904785156 93.85981750488281 C 138.43653869628906 133.41278076171875 183.1122283935547 121.84154510498047 168.5633544921875 143.62298583984375 C 167.18551635742188 181.89569091796875 184.38658142089844 146.90467834472656 160.77748107910156 142.12974548339844" stroke-width="2.0" fill="none" stroke="rgb(0, 0, 0)" stroke-opacity="1" stroke-linecap="round" stroke-linejoin="round"/>
    <path d="M 163.7577362060547 163.4069366455078 C 187.6256866455078 144.12879943847656 182.205078125 160.24569702148438 160.02012634277344 164.82559204101562" stroke-width="2.0" fill="none" stroke="rgb(0, 0, 0)" stroke-opacity="1" stroke-linecap="round" stroke-linejoin="round"/>
    <path d="M 113.98331451416016 108.23703002929688 C 139.51416015625 108.41999053955078 130.33457946777344 105.68135070800781 117.8150634765625 121.76295471191406" stroke-width="2.0" fill="none" stroke="rgb(0, 0, 0)" stroke-opacity="1" stroke-linecap="round" stroke-linejoin="round"/>
    <path d="M 121.78939056396484 205.83901977539062 C 124.56214904785156 217.00656127929688 101.19361114501953 219.46444702148438 85.32549285888672 218.96865844726562 C 82.4061279296875 249.51065063476562 80.3753890991211 224.19468688964844 77.74028778076172 235.2865447998047 C 71.3901596069336 251.62548828125 85.09955596923828 202.4446563720703 72.99581146240234 221.19166564941406" stroke-width="2.0" fill="none" stroke="rgb(0, 0, 0)" stroke-opacity="1" stroke-linecap="round" stroke-linejoin="round"/>
    <path d="M 171.1637420654297 180.71444702148438 C 177.95606994628906 189.574951171875 148.70001220703125 179.511962890625 160.24966430664062 168.39576721191406" stroke-width="2.0" fill="none" stroke="rgb(0, 0, 0)" stroke-opacity="1" stroke-linecap="round" stroke-linejoin="round"/>
    <path d="M 104.57749938964844 20.216699600219727 C 88.03345489501953 25.61920738220215 99.4996337890625 0.8915918469429016 106.25833892822266 15.14257526397705 C 104.50131225585938 28.522869110107422 102.56095886230469 7.285948753356934 102.37931823730469 19.613367080688477" stroke-width="2.0" fill="none" stroke="rgb(0, 0, 0)" stroke-opacity="1" stroke-linecap="round" stroke-linejoin="round"/>
    <path d="M 171.98443603515625 110.08663940429688 C 141.5857696533203 107.33267974853516 151.68215942382812 120.9243392944336 172.67495727539062 116.87335205078125 C 155.193359375 142.79774475097656 135.7726287841797 128.6574249267578 148.9452667236328 114.58379364013672 C 184.1582794189453 154.7560272216797 160.29566955566406 119.48171997070312 163.97219848632812 162.38803100585938" stroke-width="2.0" fill="none" stroke="rgb(0, 0, 0)" stroke-opacity="1" stroke-linecap="round" stroke-linejoin="round"/>
    <path d="M 178.8380584716797 92.53211975097656 C 174.2331085205078 140.3861083984375 153.18186950683594 98.1986083984375 176.8661346435547 102.3466796875 C 166.71435546875 105.42626190185547 140.9982452392578 113.18569946289062 162.57232666015625 89.44227600097656" stroke-width="2.0" fill="none" stroke="rgb(0, 0, 0)" stroke-opacity="1" stroke-linecap="round" stroke-linejoin="round"/>
    <path d="M 63.88995361328125 217.08143615722656 C 51.42901611328125 221.01263427734375 79.64661407470703 228.04156494140625 117.0914077758789 227.4729766845703" stroke-width="2.0" fill="none" stroke="rgb(0, 0, 0)" stroke-opacity="1" stroke-linecap="round" stroke-linejoin="round"/>
    <path d="M 232.76124572753906 26.621686935424805 C 205.659423828125 0.049934618175029755 208.34423828125 6.884522914886475 202.72869873046875 21.43566131591797 C 203.7908477783203 8.986878395080566 226.5537567138672 29.845300674438477 209.1791534423828 14.803847312927246" stroke-width="2.0" fill="none" stroke="rgb(0, 0, 0)" stroke-opacity="1" stroke-linecap="round" stroke-linejoin="round"/>
    <path d="M 135.910888671875 104.75179290771484 C 142.7245635986328 84.89812469482422 118.1009750366211 92.574462890625 121.08522033691406 121.96990203857422" stroke-width="2.0" fill="none" stroke="rgb(0, 0, 0)" stroke-opacity="1" stroke-linecap="round" stroke-linejoin="round"/>
    <path d="M 84.28359985351562 212.75869750976562 C 71.0145263671875 234.94969177246094 107.55623626708984 236.67813110351562 80.47435760498047 210.86033630371094 C 67.5738754272461 200.4234619140625 55.23169708251953 202.81298828125 41.646156311035156 210.16123962402344 C 28.490848541259766 176.08583068847656 57.6596565246582 197.79708862304688 51.18048858642578 185.90118408203125" stroke-width="2.0" fill="none" stroke="rgb(0, 0, 0)" stroke-opacity="1" stroke-linecap="round" stroke-linejoin="round"/>
    <path d="M 36.00069808959961 97.40225982666016 C 27.653776168823242 89.52522277832031 36.89280700683594 109.365478515625 22.338716506958008 111.3494873046875 C 15.54764461517334 98.85273742675781 46.90525817871094 105.772705078125 60.12859344482422 122.02385711669922" stroke-width="2.0" fill="none" stroke="rgb(0, 0, 0)" stroke-opacity="1" stroke-linecap="round" stroke-linejoin="round"/>
    <path d="M 71.18061828613281 195.55624389648438 C 43.223487854003906 186.37982177734375 49.243038177490234 221.37216186523438 33.364410400390625 197.69903564453125 C 12.688754081726074 228.18614196777344 30.82923698425293 194.8291015625 33.90858459472656 213.0224609375" stroke-width="2.0" fill="none" stroke="rgb(0, 0, 0)" stroke-opacity="1" stroke-linecap="round" stroke-linejoin="round"/>
    <path d="M 112.52288055419922 27.485660552978516 C 100.79252624511719 22.118932723999023 93.31391143798828 18.353025436401367 105.94259643554688 23.55360221862793 C 109.81655883789062 16.938522338867188 123.23326873779297 12.178150177001953 115.54483795166016 15.421050071716309 C 133.616943359375 32.70212173461914 98.66903686523438 20.85662269592285 115.12073516845703 19.962533950805664" stroke-width="2.0" fill="none" stroke="rgb(0, 0, 0)" stroke-opacity="1" stroke-linecap="round" stroke-linejoin="round"/>
    <path d="M 70.05900573730469 113.77155303955078 C 75.32874298095703 133.63101196289062 84.03974914550781 149.68881225585938 71.76335144042969 133.32679748535156 C 87.95457458496094 102.36116790771484 72.51771545410156 108.78791046142578 90.23775482177734 132.7541961669922 C 65.10757446289062 145.49246215820312 81.07793426513672 131.62510681152344 111.60164642333984 128.82766723632812" stroke-width="2.0" fill="none" stroke="rgb(0, 0, 0)" stroke-opacity="1" stroke-linecap="round" stroke-linejoin="round"/>
    <path d="M 148.45347595214844 1.7898380756378174 C 102.3669204711914 14.376286506652832 142.04693603515625 12.191925048828125 125.7713623046875 11.127917289733887" stroke-width="2.0" fill="none" stroke="rgb(0, 0, 0)" stroke-opacity="1" stroke-linecap="round" stroke-linejoin="round"/>
    <path d="M 27.054031372070312 224.6188201904297 C 52.03727722167969 194.54876708984375 73.05804443359375 194.0350799560547 32.58201217651367 217.5690460205078" stroke-width="2.0" fill="none" stroke="rgb(0, 0, 0)" stroke-opacity="1" stroke-linecap="round" stroke-linejoin="round"/>
    <path d="M 22.409229278564453 60.7385139465332 C 13.097931861877441 52.96568298339844 7.224454879760742 86.00480651855469 19.256855010986328 75.7779312133789" stroke-width="2.0" fill="none" stroke="rgb(0, 0, 0)" stroke-opacity="1" stroke-linecap="round" stroke-linejoin="round"/>
    <path d="M 207.93333435058594 90.57296752929688 C 188.01783752441406 61.15229415893555 201.42127990722656 53.91755676269531 205.37704467773438 59.90925216674805 C 204.58914184570312 61.6999397277832 198.24449157714844 86.36823272705078 199.1798858642578 77.6837158203125 C 213.82308959960938 83.3419418334961 225.75852966308594 86.78485870361328 223.1586151123047 65.5574951171875" stroke-width="2.0" fill="none" stroke="rgb(0, 0, 0)" stroke-opacity="1" stroke-linecap="round" stroke-linejoin="round"/>
    <path d="M 158.3438720703125 165.0254364013672 C 158.6989288330078 135.169921875 157.09486389160156 176.99270629882812 162.3059539794922 140.81591796875 C 150.31813049316406 150.34262084960938 156.135498046875 192.58639526367188 152.88255310058594 137.81060791015625" stroke-width="2.0" fill="none" stroke="rgb(0, 0, 0)" stroke-opacity="1" stroke-linecap="round" stroke-linejoin="round"/>
    <path d="M 189.88555908203125 129.37889099121094 C 164.4418487548828 134.06845092773438 176.3963165283203 122.88108825683594 176.1740264892578 153.91403198242188 C 186.97323608398438 147.8448028564453 192.27427673339844 138.79232788085938 209.05166625976562 141.01519775390625" stroke-width="2.0" fill="none" stroke="rgb(0, 0, 0)" stroke-opacity="1" stroke-linecap="round" stroke-linejoin="round"/>
    <path d="M 218.33314514160156 122.92906188964844 C 227.22874450683594 132.38803100585938 233.51222229003906 92.1788101196289 205.81886291503906 92.96145629882812 C 237.58837890625 97.50140380859375 227.2921600341797 83.62616729736328 188.37379455566406 70.12760162353516" stroke-width="2.0" fill="none" stroke="rgb(0, 0, 0)" stroke-opacity="1" stroke-linecap="round" stroke-linejoin="round"/>
    <path d="M 184.43304443359375 113.42002868652344 C 154.1309051513672 97.02702331542969 164.11668395996094 92.44021606445312 189.80982971191406 112.26661682128906" stroke-width="2.0" fill="none" stroke="rgb(0, 0, 0)" stroke-opacity="1" stroke-linecap="round" stroke-linejoin="round"/>
    <path d="M 114.21333312988281 70.95073699951172 C 91.19004821777344 76.86029052734375 87.49816131591797 92.55943298339844 98.87200164794922 91.24855041503906 C 87.20368194580078 92.82183837890625 85.87146759033203 92.88948059082031 107.39247131347656 87.3077621459961" stroke-width="2.0" fill="none" stroke="rgb(0, 0, 0)" stroke-opacity="1" stroke-linecap="round" stroke-linejoin="round"/>
    <path d="M 104.24649047851562 204.10406494140625 C 103.64576721191406 225.69398498535156 88.93338012695312 226.5558319091797 98.77824401855469 205.62245178222656 C 108.72808837890625 204.36500549316406 90.70948791503906 189.7962188720703 98.66246795654297 231.28482055664062" stroke-width="2.0" fill="none" stroke="rgb(0, 0, 0)" stroke-opacity="1" stroke-linecap="round" stroke-linejoin="round"/>
    <path d="M 221.6322479248047 92.93146514892578 C 194.028564453125 93.06793212890625 186.35690307617188 99.80162811279297 196.55178833007812 104.97998046875 C 181.9840850830078 76.51807403564453 164.14456176757812 99.44869995117188 183.2321319580078 115.8525161743164 C 177.6354217529297 105.11289978027344 170.82449340820312 114.02227020263672 190.5233612060547 92.1256332397461" stroke-width="2.0" fill="none" stroke="rgb(0, 0, 0)" stroke-opacity="1" stroke-linecap="round" stroke-linejoin="round"/>
    <path d="M 202.28025817871094 15.761163711547852 C 209.96185302734375 23.364349365234375 206.59375 -10.725247383117676 229.7472381591797 5.681190013885498" stroke-width="2.0" fill="none" stroke="rgb(0, 0, 0)" stroke-opacity="1" stroke-linecap="round" stroke-linejoin="round"/>
    <path d="M 172.9309539794922 83.41399383544922 C 186.38909912109375 78.58324432373047 172.86399841308594 109.5298843383789 148.41909790039062 62.269065856933594" stroke-width="2.0" fill="none" stroke="rgb(0, 0, 0)" stroke-opacity="1" stroke-linecap="round" stroke-linejoin="round"/>
    <path d="M 113.70217895507812 107.52399444580078 C 124.95645141601562 116.8798599243164 96.93590545654297 122.13484954833984 114.20783233642578 129.21360778808594 C 112.74476623535156 127.66912078857422 120.99127960205078 119.0374526977539 112.3811264038086 129.75872802734375 C 124.73870849609375 136.71096801757812 115.3273696899414 126.52253723144531 87.17980194091797 133.3152618408203" stroke-width="2.0" fill="none" stroke="rgb(0, 0, 0)" stroke-opacity="1" stroke-linecap="round" stroke-linejoin="round"/>
    <path d="M 84.44417572021484 123.39240264892578 C 105.81668853759766 116.52947998046875 98.79290008544922 118.20458221435547 122.22264862060547 104.65963745117188" stroke-width="2.0" fill="none" stroke="rgb(0, 0, 0)" stroke-opacity="1" stroke-linecap="round" stroke-linejoin="round"/>
    <path d="M 69.634765625 43.096988677978516 C 53.8483772277832 39.8739128112793 56.24626541137695 33.232120513916016 68.51097869873047 35.93431091308594 C 72.80793762207031 22.698972702026367 77.37718963623047 46.09475326538086 75.82774353027344 30.433168411254883 C 99.58023071289062 17.02434539794922 75.27730560302734 19.594633102416992 84.050048828125 24.4968318939209" stroke-width="2.0" fill="none" stroke="rgb(0, 0, 0)" stroke-opacity="1" stroke-linecap="round" stroke-linejoin="round"/>
    <path d="M 166.91952514648438 92.02633666992188 C 162.88783264160156 120.84420013427734 170.39195251464844 108.95417785644531 185.4374237060547 121.63069152832031 C 186.73313903808594 115.2383804321289 171.45660400390625 136.60963439941406 155.2490692138672 149.11126708984375" stroke-width="2.0" fill="none" stroke="rgb(0, 0, 0)" stroke-opacity="1" stroke-linecap="round" stroke-linejoin="round"/>
    <path d="M 8.867789268493652 160.14154052734375 C -21.733795166015625 170.14918518066406 -1.6493113040924072 137.67391967773438 15.977676391601562 142.33006286621094" stroke-width="2.0" fill="none" stroke="rgb(0, 0, 0)" stroke-opacity="1" stroke-linecap="round" stroke-linejoin="round"/>
    <path d="M 117.77255249023438 143.6813507080078 C 112.0504379272461 191.21397399902344 99.47804260253906 166.03309631347656 131.20816040039062 173.86251831054688" stroke-width="2.0" fill="none" stroke="rgb(0, 0, 0)" stroke-opacity="1" stroke-linecap="round" stroke-linejoin="round"/>
    <path d="M 43.82375717163086 181.4937744140625 C 44.51808547973633 212.91375732421875 56.173065185546875 205.2713623046875 54.34947967529297 170.80514526367188 C 73.03608703613281 173.24154663085938 35.20943069458008 154.86907958984375 31.740066528320312 142.7369842529297 C 41.347110748291016 174.84034729003906 41.294883728027344 135.71714782714844 46.54720687866211 150.40890502929688" stroke-width="2.0" fill="none" stroke="rgb(0, 0, 0)" stroke-opacity="1" stroke-linecap="round" stroke-linejoin="round"/>
    <path d="M 145.30711364746094 76.75672912597656 C 180.61306762695312 62.50226974487305 136.76519775390625 43.5350341796875 143.2301483154297 85.95496368408203 C 121.26075744628906 75.5362777709961 131.27955627441406 74.06507110595703 154.64002990722656 71.1543960571289 C 153.53546142578125 80.39511108398438 154.3663330078125 59.63138198852539 184.5425567626953 61.649208068847656" stroke-width="2.0" fill="none" stroke="rgb(0, 0, 0)" stroke-opacity="1" stroke-linecap="round" stroke-linejoin="round"/>
    <path d="M 113.42576599121094 224.88954162597656 C 110.92220306396484 198.98387145996094 96.94280242919922 234.97885131835938 96.83633422851562 204.90814208984375" stroke-width="2.0" fill="none" stroke="rgb(0, 0, 0)" stroke-opacity="1" stroke-linecap="round" stroke-linejoin="round"/>
    <path d="M 120.08330535888672 121.03345489501953 C 131.6732940673828 103.17977142333984 143.8708038330078 127.98249053955078 125.22705841064453 124.7312240600586 C 115.597900390625 133.95632934570312 128.06515502929688 136.02734375 96.4145736694336 117.52084350585938 C 103.58560180664062 129.6612548828125 114.95242309570312 135.25889587402344 152.89501953125 147.24952697753906" stroke-width="2.0" fill="none" stroke="rgb(0, 0, 0)" stroke-opacity="1" stroke-linecap="round" stroke-linejoin="round"/>
    <path d="M 235.3462371826172 13.469582557678223 C 211.5976104736328 8.244869232177734 222.53701782226562 7.704710960388184 214.41041564941406 23.211265563964844 C 200.86448669433594 16.32232093811035 214.29197692871094 26.362396240234375 225.59739685058594 0.9701793789863586" stroke-width="2.0" fill="none" stroke="rgb(0, 0, 0)" stroke-opacity="1" stroke-linecap="round" stroke-linejoin="round"/>
    <path d="M 188.7564239501953 147.4079132080078 C 158.9113006591797 173.83416748046875 154.49346923828125 157.1043701171875 190.4087371826172 119.4394302368164" stroke-width="2.0" fill="none" stroke="rgb(0, 0, 0)" stroke-opacity="1" stroke-linecap="round" stroke-linejoin="round"/>
    <path d="M 176.82183837890625 133.7139892578125 C 185.0826873779297 189.66262817382812 193.38404846191406 108.4388656616211 178.26393127441406 110.70234680175781 C 175.887939453125 82.49408721923828 216.37159729003906 77.85405731201172 204.89515686035156 90.30877685546875" stroke-width="2.0" fill="none" stroke="rgb(0, 0, 0)" stroke-opacity="1" stroke-linecap="round" stroke-linejoin="round"/>
    <path d="M 2.871299982070923 19.440916061401367 C -45.81321716308594 17.448930740356445 -32.351417541503906 32.572269439697266 9.019590377807617 37.5357666015625" stroke-width="2.0" fill="none" stroke="rgb(0, 0, 0)" stroke-opacity="1" stroke-linecap="round" stroke-linejoin="round"/>
    <path d="M 190.32489013671875 148.60784912109375 C 162.5812530517578 172.89503479003906 126.61726379394531 168.44459533691406 137.81301879882812 147.2196807861328 C 175.41696166992188 159.2021484375 159.2588348388672 141.70574951171875 141.8462677001953 144.51510620117188" stroke-width="2.0" fill="none" stroke="rgb(0, 0, 0)" stroke-opacity="1" stroke-linecap="round" stroke-linejoin="round"/>
    <path d="M 101.69385528564453 -4.205478668212891 C 81.64940643310547 0.6877838969230652 66.7121810913086 -2.066225290298462 67.67402648925781 -13.026164054870605" stroke-width="2.0" fill="none" stroke="rgb(0, 0, 0)" stroke-opacity="1" stroke-linecap="round" stroke-linejoin="round"/>
    <path d="M 128.8737335205078 105.0604248046875 C 133.72744750976562 129.0061798095703 147.76358032226562 117.75215148925781 165.99032592773438 122.40589904785156" stroke-width="2.0" fill="none" stroke="rgb(0, 0, 0)" stroke-opacity="1" stroke-linecap="round" stroke-linejoin="round"/>
    <path d="M 34.354774475097656 138.0071258544922 C 49.368125915527344 140.2982940673828 61.60572814941406 160.21495056152344 57.31142044067383 167.20095825195312 C 73.63510131835938 160.31719970703125 66.22174072265625 176.71340942382812 53.969783782958984 152.49696350097656 C 75.84964752197266 175.2414093017578 58.49885177612305 147.24034118652344 73.06245422363281 159.6710968017578" stroke-width="2.0" fill="none" stroke="rgb(0, 0, 0)" stroke-opacity="1" stroke-linecap="round" stroke-linejoin="round"/>
    <path d="M 105.95733642578125 58.31316375732422 C 109.97837829589844 45.262474060058594 99.25112915039062 46.24129867553711 85.8864517211914 51.87106704711914 C 106.17982482910156 45.02304458618164 110.14160919189453 17.417985916137695 99.86685943603516 33.78093338012695" stroke-width="2.0" fill="none" stroke="rgb(0, 0, 0)" stroke-opacity="1" stroke-linecap="round" stroke-linejoin="round"/>
    <path d="M 96.05357360839844 144.768798828125 C 122.12055969238281 143.66729736328125 85.94027709960938 157.65887451171875 75.62505340576172 204.21099853515625 C 110.76930236816406 142.6847686767578 75.6012191772461 162.11317443847656 90.18891906738281 165.07183837890625" stroke-width="2.0" fill="none" stroke="rgb(0, 0, 0)" stroke-opacity="1" stroke-linecap="round" stroke-linejoin="round"/>
    <path d="M 41.916358947753906 19.45203399658203 C 42.080684661865234 -6.391699314117432 57.97856140136719 -3.7908949851989746 -8.523032188415527 8.930171012878418" stroke-width="2.0" fill="none" stroke="rgb(0, 0, 0)" stroke-opacity="1" stroke-linecap="round" stroke-linejoin="round"/>
    <path d="M 109.14473724365234 24.080768585205078 C 64.48611450195312 11.315320014953613 84.83830261230469 9.52245807647705 72.4297866821289 21.626535415649414 C 87.28262329101562 31.90535545349121 79.46687316894531 26.682109832763672 71.99700927734375 45.516075134277344 C 66.73479461669922 46.171993255615234 42.11262130737305 21.12057113647461 71.14192199707031 36.447113037109375" stroke-width="2.0" fill="none" stroke="rgb(0, 0, 0)" stroke-opacity="1" stroke-linecap="round" stroke-linejoin="round"/>
    <path d="M 193.7918243408203 32.0351448059082 C 215.75978088378906 19.50345802307129 224.82904052734375 57.016231536865234 225.9984130859375 49.73202133178711 C 227.61044311523438 12.880651473999023 184.067626953125 22.532995223999023 203.66259765625 20.090713500976562" stroke-width="2.0" fill="none" stroke="rgb(0, 0, 0)" stroke-opacity="1" stroke-linecap="round" stroke-linejoin="round"/>
    <path d="M 87.17958068847656 207.56175231933594 C 120.116943359375 172.69784545898438 140.59886169433594 192.85350036621094 102.28247833251953 205.9838409423828 C 115.86003112792969 199.65428161621094 100.63264465332031 181.8120574951172 92.13334655761719 213.81576538085938 C 106.75249481201172 188.61460876464844 110.4339828491211 211.9393310546875 106.60326385498047 231.5118408203125" stroke-width="2.0" fill="none" stroke="rgb(0, 0, 0)" stroke-opacity="1" stroke-linecap="round" stroke-linejoin="round"/>
    <path d="M 21.720722198486328 40.3809814453125 C 19.178096771240234 51.340763092041016 33.22943878173828 13.075291633605957 48.00423049926758 25.32663917541504 C 45.73734664916992 20.12204933166504 28.26690101623535 30.96617889404297 39.054691314697266 31.08542823791504" stroke-width="2.0" fill="none" stroke="rgb(0, 0, 0)" stroke-opacity="1" stroke-linecap="round" stroke-linejoin="round"/>
    <path d="M 105.05365753173828 75.7305679321289 C 106.71895599365234 98.53387451171875 114.5040054321289 124.97010040283203 109.78534698486328 103.0632553100586 C 129.14247131347656 91.7542724609375 103.97594451904297 102.61618041992188 127.42508697509766 99.42337036132812" stroke-width="2.0" fill="none" stroke="rgb(0, 0, 0)" stroke-opacity="1" stroke-linecap="round" stroke-linejoin="round"/>
    <path d="M 45.33612060546875 -4.605030059814453 C 56.33491134643555 22.18229866027832 47.49466323852539 28.699831008911133 66.63025665283203 -1.2299106121063232 C 63.03608322143555 -14.714139938354492 47.59087371826172 -15.47517204284668 58.33201217651367 4.561119079589844" stroke-width="2.0" fill="none" stroke="rgb(0, 0, 0)" stroke-opacity="1" stroke-linecap="round" stroke-linejoin="round"/>
    <path d="M 68.81871032714844 105.57098388671875 C 51.378379821777344 87.9852523803711 83.7658462524414 118.52945709228516 97.9874267578125 77.88703155517578" stroke-width="2.0" fill="none" stroke="rgb(0, 0, 0)" stroke-opacity="1" stroke-linecap="round" stroke-linejoin="round"/>
    <path d="M 157.1736602783203 121.94194793701172 C 184.8990020751953 102.89337158203125 178.3262176513672 111.8857192993164 145.76727294921875 118.44554901123047 C 183.18411254882812 119.54684448242188 184.25584411621094 97.90825653076172 148.1288604736328 107.87530517578125" stroke-width="2.0" fill="none" stroke="rgb(0, 0, 0)" stroke-opacity="1" stroke-linecap="round" stroke-linejoin="round"/>
    <path d="M 64.27517700195312 156.66744995117188 C 40.22117614746094 183.3417510986328 41.80205154418945 177.2688446044922 66.11653900146484 177.90252685546875" stroke-width="2.0" fill="none" stroke="rgb(0, 0, 0)" stroke-opacity="1" stroke-linecap="round" stroke-linejoin="round"/>
    <path d="M 166.3595428466797 111.02936553955078 C 151.7958984375 137.37258911132812 137.3267364501953 130.31471252441406 157.98709106445312 96.26853942871094" stroke-width="2.0" fill="none" stroke="rgb(0, 0, 0)" stroke-opacity="1" stroke-linecap="round" stroke-linejoin="round"/>
    <path d="M 45.218360900878906 151.94229125976562 C 32.990718841552734 153.42066955566406 61.90110778808594 155.43887329101562 51.396217346191406 182.7356719970703" stroke-width="2.0" fill="none" stroke="rgb(0, 0, 0)" stroke-opacity="1" stroke-linecap="round" stroke-linejoin="round"/>
    <path d="M 35.746376037597656 144.70602416992188 C 18.618505477905273 148.50326538085938 51.47308349609375 134.33860778808594 32.35696792602539 153.73953247070312" stroke-width="2.0" fill="none" stroke="rgb(0, 0, 0)" stroke-opacity="1" stroke-linecap="round" stroke-linejoin="round"/>
    <path d="M 175.76393127441406 225.2017822265625 C 176.56443786621094 201.3337860107422 225.54969787597656 186.3382110595703 224.98388671875 217.86843872070312" stroke-width="2.0" fill="none" stroke="rgb(0, 0, 0)" stroke-opacity="1" stroke-linecap="round" stroke-linejoin="round"/>
    <path d="M 167.31019592285156 105.64695739746094 C 198.02081298828125 118.33262634277344 195.47389221191406 118.64371490478516 174.32467651367188 108.40624237060547 C 173.9390869140625 119.16015625 165.7054901123047 121.91226959228516 154.31536865234375 118.1866226196289" stroke-width="2.0" fill="none" stroke="rgb(0, 0, 0)" stroke-opacity="1" stroke-linecap="round" stroke-linejoin="round"/>
    <path d="M 215.4402313232422 230.98291015625 C 224.9874267578125 201.89260864257812 234.72080993652344 216.72483825683594 230.8724365234375 235.0346221923828 C 207.75778198242188 237.38412475585938 214.68017578125 236.02932739257812 215.04055786132812 219.92787170410156" stroke-width="2.0" fill="none" stroke="rgb(0, 0, 0)" stroke-opacity="1" stroke-linecap="round" stroke-linejoin="round"/>
    <path d="M 138.02395629882812 139.56884765625 C 143.435546875 151.7793731689453 168.74461364746094 129.92306518554688 157.87156677246094 166.076416015625 C 136.74282836914062 160.55885314941406 141.1070098876953 169.96400451660156 144.29795837402344 146.01959228515625" stroke-width="2.0" fill="none" stroke="rgb(0, 0, 0)" stroke-opacity="1" stroke-linecap="round" stroke-linejoin="round"/>
    <path d="M 34.643436431884766 212.8428192138672 C 23.104650497436523 202.39979553222656 26.202884674072266 214.95738220214844 33.517574310302734 216.65023803710938 C 46.95868682861328 204.53855895996094 15.256548881530762 228.19747924804688 28.33950424194336 228.6707763671875 C 55.852298736572266 195.19810485839844 92.2499771118164 210.36456298828125 81.56238555908203 226.2677001953125" stroke-width="2.0" fill="none" stroke="rgb(0, 0, 0)" stroke-opacity="1" stroke-linecap="round" stroke-linejoin="round"/>
    <path d="M 186.70249938964844 56.4495849609375 C 190.32630920410156 85.35425567626953 186.4286346435547 55.63067626953125 182.65322875976562 66.26789855957031 C 226.10000610351562 91.42149353027344 174.67616271972656 62.23796081542969 184.10476684570312 82.05956268310547" stroke-width="2.0" fill="none" stroke="rgb(0, 0, 0)" stroke-opacity="1" stroke-linecap="round" stroke-linejoin="round"/>
    <path d="M 192.48487854003906 172.8214111328125 C 226.0162811279297 164.62672424316406 216.79656982421875 182.46022033691406 222.93446350097656 209.21058654785156 C 241.89886474609375 193.51539611816406 232.82508850097656 186.76332092285156 236.81675720214844 178.69569396972656" stroke-width="2.0" fill="none" stroke="rgb(0, 0, 0)" stroke-opacity="1" stroke-linecap="round" stroke-linejoin="round"/>
    <path d="M 88.61927032470703 46.17058181762695 C 112.3679428100586 73.49079132080078 121.41752624511719 38.8905143737793 97.05245971679688 42.103065490722656 C 80.54012298583984 51.08637237548828 112.24089813232422 14.776843070983887 86.92413330078125 59.52706527709961 C 107.2728500366211 53.76626968383789 112.53459930419922 74.43109130859375 78.35257720947266 66.3313217163086" stroke-width="2.0" fill="none" stroke="rgb(0, 0, 0)" stroke-opacity="1" stroke-linecap="round" stroke-linejoin="round"/>
    <path d="M 140.22097778320312 131.60650634765625 C 119.72090911865234 122.36080932617188 114.94432067871094 130.23631286621094 132.1736297607422 91.858642578125 C 128.67025756835938 121.73119354248047 142.50506591796875 111.98050689697266 128.15870666503906 100.35449981689453 C 132.76171875 133.2133331298828 122.38191223144531 100.90727996826172 124.09014129638672 85.62694549560547" stroke-width="2.0" fill="none" stroke="rgb(0, 0, 0)" stroke-opacity="1" stroke-linecap="round" stroke-linejoin="round"/>
    <path d="M 108.19673156738281 90.3393783569336 C 85.7802963256836 90.08631896972656 89.79536437988281 86.35255432128906 104.07901000976562 67.9881591796875" stroke-width="2.0" fill="none" stroke="rgb(0, 0, 0)" stroke-opacity="1" stroke-linecap="round" stroke-linejoin="round"/>
    <path d="M 84.1219711303711 230.5174560546875 C 91.77511596679688 198.70225524902344 80.7570571899414 204.2679443359375 85.77639770507812 233.79112243652344" stroke-width="2.0" fill="none" stroke="rgb(0, 0, 0)" stroke-opacity="1" stroke-linecap="round" stroke-linejoin="round"/>
    <path d="M 9.007659912109375 201.81765747070312 C 14.863837242126465 166.3010711669922 32.20420455932617 158.88824462890625 15.521611213684082 190.59425354003906 C 18.454103469848633 181.45870971679688 16.799802780151367 197.55718994140625 20.781139373779297 170.8885498046875 C 9.757264137268066 167.76426696777344 9.766448974609375 161.767333984375 31.72335433959961 162.10162353515625" stroke-width="2.0" fill="none" stroke="rgb(0, 0, 0)" stroke-opacity="1" stroke-linecap="round" stroke-linejoin="round"/>
    <path d="M 75.13921356201172 36.34770202636719 C 56.56409454345703 4.279987335205078 55.264774322509766 52.830291748046875 51.185264587402344 70.66808319091797 C 47.25629806518555 42.79684066772461 67.4753646850586 78.41751861572266 60.78651809692383 47.01406478881836" stroke-width="2.0" fill="none" stroke="rgb(0, 0, 0)" stroke-opacity="1" stroke-linecap="round" stroke-linejoin="round"/>
    <path d="M 126.4286880493164 233.38870239257812 C 112.27670288085938 188.53399658203125 105.57589721679688 177.9745635986328 127.47281646728516 199.87625122070312 C 115.444091796875 174.86306762695312 142.9087371826172 198.55201721191406 131.12770080566406 180.99102783203125" stroke-width="2.0" fill="none" stroke="rgb(0, 0, 0)" stroke-opacity="1" stroke-linecap="round" stroke-linejoin="round"/>
    <path d="M 111.01632690429688 93.408447265625 C 52.66288757324219 90.73458862304688 77.0407485961914 95.06017303466797 93.89440155029297 94.1970443725586" stroke-width="2.0" fill="none" stroke="rgb(0, 0, 0)" stroke-opacity="1" stroke-linecap="round" stroke-linejoin="round"/>
    <path d="M 126.1918716430664 11.365406036376953 C 131.33689880371094 27.350271224975586 140.3462677001953 -3.439936399459839 113.31331634521484 17.59587860107422" stroke-width="2.0" fill="none" stroke="rgb(0, 0, 0)" stroke-opacity="1" stroke-linecap="round" stroke-linejoin="round"/>
    <path d="M 153.04415893554688 10.896198272705078 C 135.33473205566406 12.918651580810547 153.78976440429688 -2.2110259532928467 138.52566528320312 5.547948837280273 C 159.09754943847656 -2.5886549949645996 158.5916748046875 8.22301959991455 149.6800079345703 15.947734832763672 C 161.9215850830078 3.4596211910247803 150.20596313476562 18.007051467895508 145.62005615234375 10.557036399841309" stroke-width="2.0" fill="none" stroke="rgb(0, 0, 0)" stroke-opacity="1" stroke-linecap="round" stroke-linejoin="round"/>
    <path d="M 162.9789276123047 164.27154541015625 C 166.52207946777344 161.102783203125 161.77288818359375 144.65951538085938 173.74551391601562 133.01150512695312 C 167.63331604003906 165.50437927246094 175.83291625976562 143.1769561767578 173.28651428222656 136.6708526611328 C 187.3611297607422 117.41632080078125 176.22952270507812 129.4952850341797 153.6333465576172 150.8293914794922" stroke-width="2.0" fill="none" stroke="rgb(0, 0, 0)" stroke-opacity="1" stroke-linecap="round" stroke-linejoin="round"/>
    <path d="M 160.06105041503906 102.91876983642578 C 178.1175994873047 101.40055084228516 140.52996826171875 110.95162200927734 139.25323486328125 96.66936492919922 C 134.7989044189453 98.97606658935547 131.26258850097656 108.70408630371094 110.2102279663086 98.67556762695312" stroke-width="2.0" fill="none" stroke="rgb(0, 0, 0)" stroke-opacity="1" stroke-linecap="round" stroke-linejoin="round"/>
    <path d="M 146.78875732421875 33.318763732910156 C 142.9343719482422 26.791122436523438 110.44725799560547 44.32317352294922 112.56642150878906 57.05582046508789" stroke-width="2.0" fill="none" stroke="rgb(0, 0, 0)" stroke-opacity="1" stroke-linecap="round" stroke-linejoin="round"/>
    <path d="M 84.11222076416016 55.2355842590332 C 121.61327362060547 72.02570343017578 99.28961181640625 27.798049926757812 82.04591369628906 72.98531341552734 C 110.45685577392578 79.55020904541016 106.80513763427734 56.83501434326172 96.5191650390625 92.36388397216797" stroke-width="2.0" fill="none" stroke="rgb(0, 0, 0)" stroke-opacity="1" stroke-linecap="round" stroke-linejoin="round"/>
    <path d="M 145.13055419921875 188.2724151611328 C 115.79081726074219 186.34921264648438 132.6293182373047 172.5316619873047 134.04798889160156 173.38914489746094 C 157.2631072998047 180.087646484375 172.8182830810547 186.75204467773438 152.3102264404297 179.350830078125 C 134.36732482910156 218.79168701171875 125.92472076416016 172.7964324951172 161.36448669433594 197.92445373535156" stroke-width="2.0" fill="none" stroke="rgb(0, 0, 0)" stroke-opacity="1" stroke-linecap="round" stroke-linejoin="round"/>
    <path d="M 126.02169036865234 118.42286682128906 C 109.80659484863281 87.83763885498047 98.66663360595703 75.76656341552734 103.44584655761719 74.42231750488281 C 103.98696899414062 108.14282989501953 99.01997375488281 87.1993179321289 102.91925811767578 74.24948120117188 C 77.1251220703125 85.50801849365234 68.19132995605469 66.97771453857422 82.02623748779297 76.154052734375" stroke-width="2.0" fill="none" stroke="rgb(0, 0, 0)" stroke-opacity="1" stroke-linecap="round" stroke-linejoin="round"/>
    <path d="M 191.42373657226562 104.89356231689453 C 190.7234649658203 85.94083404541016 172.57394409179688 124.87923431396484 162.65145874023438 115.2581558227539 C 144.98541259765625 120.53557586669922 155.7059783935547 85.02123260498047 161.5544891357422 86.6347885131836 C 150.56886291503906 109.32124328613281 142.5900421142578 93.20890045166016 129.49072265625 81.14769744873047" stroke-width="2.0" fill="none" stroke="rgb(0, 0, 0)" stroke-opacity="1" stroke-linecap="round" stroke-linejoin="round"/>
    <path d="M 176.93922424316406 162.958984375 C 184.19117736816406 166.81732177734375 172.13247680664062 170.0681915283203 175.45419311523438 163.13330078125" stroke-width="2.0" fill="none" stroke="rgb(0, 0, 0)" stroke-opacity="1" stroke-linecap="round" stroke-linejoin="round"/>
    <path d="M 146.76730346679688 20.779130935668945 C 154.4020538330078 35.39845657348633 126.41143035888672 26.825258255004883 141.06175231933594 23.760068893432617" stroke-width="2.0" fill="none" stroke="rgb(0, 0, 0)" stroke-opacity="1" stroke-linecap="round" stroke-linejoin="round"/>
    <path d="M 172.77447509765625 229.51585388183594 C 181.9208984375 237.27493286132812 186.5888671875 232.58689880371094 206.4851837158203 232.03448486328125" stroke-width="2.0" fill="none" stroke="rgb(0, 0, 0)" stroke-opacity="1" stroke-linecap="round" stroke-linejoin="round"/>
    <path d="M 153.7438507080078 129.63204956054688 C 185.7320556640625 114.03689575195312 167.01278686523438 91.54928588867188 184.35403442382812 95.0347671508789 C 170.28758239746094 119.34276580810547 163.14846801757812 117.23497009277344 164.7937774658203 89.53364562988281 C 185.3565673828125 119.74627685546875 163.77627563476562 111.56599426269531 164.5415496826172 126.51483154296875" stroke-width="2.0" fill="none" stroke="rgb(0, 0, 0)" stroke-opacity="1" stroke-linecap="round" stroke-linejoin="round"/>
    <path d="M 134.2601318359375 165.03887939453125 C 133.31939697265625 178.34825134277344 131.9021453857422 183.5672149658203 143.05877685546875 143.0709228515625 C 133.8799285888672 173.98678588867188 125.90267944335938 152.28045654296875 148.65443420410156 145.29391479492188 C 152.37522888183594 150.92030334472656 151.28402709960938 160.43121337890625 145.7542724609375 173.3607940673828" stroke-width="2.0" fill="none" stroke="rgb(0, 0, 0)" stroke-opacity="1" stroke-linecap="round" stroke-linejoin="round"/>
    <path d="M 121.36251068115234 45.66778564453125 C 113.57992553710938 63.386539459228516 120.2990951538086 31.78716278076172 125.57392120361328 46.01884841918945" stroke-width="2.0" fill="none" stroke="rgb(0, 0, 0)" stroke-opacity="1" stroke-linecap="round" stroke-linejoin="round"/>
    <path d="M 42.70359420776367 200.98219299316406 C 29.178958892822266 176.82862854003906 63.84706497192383 198.71824645996094 40.77239227294922 196.0821075439453 C 45.000526428222656 182.56338500976562 81.33689880371094 176.4163360595703 83.07525634765625 199.9444122314453" stroke-width="2.0" fill="none" stroke="rgb(0, 0, 0)" stroke-opacity="1" stroke-linecap="round" stroke-linejoin="round"/>
    <path d="M 122.86112976074219 187.77818298339844 C 106.67654418945312 204.53323364257812 131.96913146972656 190.56124877929688 153.29592895507812 206.0541534423828" stroke-width="2.0" fill="none" stroke="rgb(0, 0, 0)" stroke-opacity="1" stroke-linecap="round" stroke-linejoin="round"/>
    <path d="M 90.06481170654297 91.3665542602539 C 91.0286865234375 95.830322265625 62.56962966918945 101.6988754272461 68.3310546875 91.58979797363281 C 92.59854888916016 98.78169250488281 75.29373168945312 87.6435546875 82.19336700439453 109.57501220703125 C 96.1536865234375 92.99008178710938 56.407249450683594 114.50736236572266 64.41502380371094 97.91732788085938" stroke-width="2.0" fill="none" stroke="rgb(0, 0, 0)" stroke-opacity="1" stroke-linecap="round" stroke-linejoin="round"/>
    <path d="M 128.13214111328125 205.9868927001953 C 135.6451873779297 221.14944458007812 94.12345123291016 198.6061248779297 137.1818084716797 199.28167724609375 C 125.75897979736328 197.01019287109375 141.40843200683594 177.4374542236328 141.15017700195312 197.1064453125" stroke-width="2.0" fill="none" stroke="rgb(0, 0, 0)" stroke-opacity="1" stroke-linecap="round" stroke-linejoin="round"/>
    <path d="M 135.10394287109375 180.361083984375 C 133.68887329101562 191.28402709960938 148.59190368652344 174.1058349609375 128.2724609375 176.5806121826172" stroke-width="2.0" fill="none" stroke="rgb(0, 0, 0)" stroke-opacity="1" stroke-linecap="round" stroke-linejoin="round"/>
    <path d="M 206.3475799560547 83.45712280273438 C 183.77633666992188 73.05516815185547 201.54591369628906 73.37056732177734 203.43463134765625 80.5807876586914 C 186.55552673339844 73.0444107055664 199.20001220703125 51.966732025146484 189.9892578125 70.11276245117188" stroke-width="2.0" fill="none" stroke="rgb(0, 0, 0)" stroke-opacity="1" stroke-linecap="round" stroke-linejoin="round"/>
    <path d="M 129.98870849609375 107.41311645507812 C 130.65538024902344 98.24215698242188 116.68579864501953 104.9700698852539 97.97748565673828 107.69226837158203" stroke-width="2.0" fill="none" stroke="rgb(0, 0, 0)" stroke-opacity="1" stroke-linecap="round" stroke-linejoin="round"/>
    <path d="M 119.27617645263672 115.05947875976562 C 103.11286163330078 77.5594711303711 105.18739318847656 75.07254791259766 113.6891098022461 113.10331726074219" stroke-width="2.0" fill="none" stroke="rgb(0, 0, 0)" stroke-opacity="1" stroke-linecap="round" stroke-linejoin="round"/>
    <path d="M 199.298095703125 118.8069839477539 C 189.88462829589844 109.20783233642578 197.40640258789062 139.4869384765625 206.2531280517578 133.26658630371094 C 211.05186462402344 124.2969970703125 195.98760986328125 125.57633209228516 176.91607666015625 141.5735321044922" stroke-width="2.0" fill="none" stroke="rgb(0, 0, 0)" stroke-opacity="1" stroke-linecap="round" stroke-linejoin="round"/>
    <path d="M 100.13050079345703 162.45773315429688 C 119.12684631347656 117.1766128540039 125.32170867919922 121.13923645019531 130.9226531982422 127.92431640625 C 106.01534271240234 118.93075561523438 123.04186248779297 106.4358139038086 106.2712631225586 118.71231842041016" stroke-width="2.0" fill="none" stroke="rgb(0, 0, 0)" stroke-opacity="1" stroke-linecap="round" stroke-linejoin="round"/>
    <path d="M 128.7525634765625 104.80570983886719 C 118.20536804199219 124.94088745117188 93.3004379272461 127.28023529052734 128.4628448486328 137.23641967773438 C 140.8571319580078 119.09134674072266 114.69125366210938 130.38143920898438 105.63717651367188 100.85562896728516 C 107.88450622558594 107.59732818603516 121.7048110961914 90.72565460205078 93.94599151611328 97.43366241455078" stroke-width="2.0" fill="none" stroke="rgb(0, 0, 0)" stroke-opacity="1" stroke-linecap="round" stroke-linejoin="round"/>
    <path d="M 73.53787231445312 78.32752990722656 C 79.39368438720703 84.07009887695312 108.10601806640625 75.31257629394531 113.28273010253906 96.19294738769531 C 109.12181091308594 83.40283966064453 100.7300796508789 64.80182647705078 114.90833282470703 43.25437927246094" stroke-width="2.0" fill="none" stroke="rgb(0, 0, 0)" stroke-opacity="1" stroke-linecap="round" stroke-linejoin="round"/>
    <path d="M 47.1712532043457 191.77362060546875 C 49.76580047607422 174.19049072265625 25.391307830810547 203.64292907714844 39.55866241455078 209.88966369628906" stroke-width="2.0" fill="none" stroke="rgb(0, 0, 0)" stroke-opacity="1" stroke-linecap="round" stroke-linejoin="round"/>
    <path d="M 56.187923431396484 149.07394409179688 C 53.543827056884766 114.96861267089844 22.123964309692383 116.60620880126953 9.21843147277832 122.05593872070312 C 14.925987243652344 91.72583770751953 33.62364196777344 108.07814025878906 25.087759017944336 118.74490356445312 C 34.590003967285156 106.41600036621094 -6.233560562133789 110.97232818603516 25.176633834838867 115.43756103515625" stroke-width="2.0" fill="none" stroke="rgb(0, 0, 0)" stroke-opacity="1" stroke-linecap="round" stroke-linejoin="round"/>
    <path d="M 67.71842956542969 173.17198181152344 C 44.2258186340332 168.7783203125 42.890628814697266 202.31594848632812 29.80678939819336 202.81629943847656 C 40.511940002441406 212.7221221923828 41.0661735534668 181.88772583007812 -5.799958229064941 187.12986755371094" stroke-width="2.0" fill="none" stroke="rgb(0, 0, 0)" stroke-opacity="1" stroke-linecap="round" stroke-linejoin="round"/>
    <path d="M 200.04673767089844 94.76248931884766 C 184.75575256347656 79.18780517578125 210.56687927246094 93.02645111083984 205.80953979492188 82.87715148925781 C 218.1220245361328 52.46839141845703 202.55609130859375 68.51740264892578 201.89678955078125 94.30630493164062" stroke-width="2.0" fill="none" stroke="rgb(0, 0, 0)" stroke-opacity="1" stroke-linecap="round" stroke-linejoin="round"/>
    <path d="M 135.36862182617188 52.070648193359375 C 131.2340850830078 71.82103729248047 137.6488800048828 51.02477264404297 156.14739990234375 38.18482208251953 C 128.1651153564453 74.16773986816406 120.70784759521484 45.88232421875 149.3380889892578 39.7059326171875 C 144.24588012695312 43.76044464111328 135.47918701171875 30.665767669677734 142.83145141601562 33.50303268432617" stroke-width="2.0" fill="none" stroke="rgb(0, 0, 0)" stroke-opacity="1" stroke-linecap="round" stroke-linejoin="round"/>
    <path d="M -5.507534503936768 222.1269989013672 C 0.805375337600708 206.5751190185547 23.84230613708496 205.525390625 29.923425674438477 227.62310791015625 C 32.88094711303711 233.83578491210938 40.480770111083984 239.5083770751953 30.423053741455078 243.45021057128906" stroke-width="2.0" fill="none" stroke="rgb(0, 0, 0)" stroke-opacity="1" stroke-linecap="round" stroke-linejoin="round"/>
    <path d="M 220.94679260253906 114.88978576660156 C 235.69984436035156 115.09742736816406 209.55776977539062 85.97782897949219 187.07571411132812 116.97130584716797 C 193.8403778076172 160.57989501953125 207.20858764648438 178.3866424560547 192.75631713867188 132.2303466796875" stroke-width="2.0" fill="none" stroke="rgb(0, 0, 0)" stroke-opacity="1" stroke-linecap="round" stroke-linejoin="round"/>
    <path d="M 160.88514709472656 101.406982421875 C 184.33680725097656 94.52861785888672 171.6850128173828 87.69517517089844 190.154541015625 108.73329162597656" stroke-width="2.0" fill="none" stroke="rgb(0, 0, 0)" stroke-opacity="1" stroke-linecap="round" stroke-linejoin="round"/>
    <path d="M 31.90862464904785 24.916404724121094 C 7.967863082885742 9.068258285522461 44.16294479370117 2.692099094390869 18.45772933959961 26.198747634887695 C 47.964088439941406 8.870166778564453 50.91176986694336 8.838589668273926 70.88275909423828 11.342215538024902 C 77.78099060058594 -6.663559913635254 71.22966766357422 1.082679033279419 98.31787109375 2.910475730895996" stroke-width="2.0" fill="none" stroke="rgb(0, 0, 0)" stroke-opacity="1" stroke-linecap="round" stroke-linejoin="round"/>
    <path d="M 72.91300964355469 96.99015045166016 C 82.07151794433594 78.52234649658203 90.49372100830078 53.81001663208008 87.85604095458984 66.53923034667969 C 120.85198974609375 74.09483337402344 103.81803131103516 49.29055404663086 93.68242645263672 84.72393035888672 C 119.07252502441406 62.79045486450195 90.68328094482422 78.19743347167969 78.3498306274414 69.18541717529297" stroke-width="2.0" fill="none" stroke="rgb(0, 0, 0)" stroke-opacity="1" stroke-linecap="round" stroke-linejoin="round"/>
    <path d="M 25.45905113220215 98.29401397705078 C 21.81551170349121 129.1626739501953 4.837174892425537 114.4303207397461 12.84924030303955 106.60237121582031 C 8.337890625 91.31493377685547 44.24089813232422 72.57762145996094 59.52714157104492 94.65933990478516" stroke-width="2.0" fill="none" stroke="rgb(0, 0, 0)" stroke-opacity="1" stroke-linecap="round" stroke-linejoin="round"/>
    <path d="M 14.691727638244629 163.35049438476562 C 27.70679473876953 173.63084411621094 25.51371955871582 165.37757873535156 41.39918899536133 144.57945251464844 C 24.229137420654297 143.68576049804688 30.34771728515625 183.9462432861328 19.375566482543945 160.08547973632812" stroke-width="2.0" fill="none" stroke="rgb(0, 0, 0)" stroke-opacity="1" stroke-linecap="round" stroke-linejoin="round"/>
    <path d="M 95.00234985351562 104.73662567138672 C 92.27439880371094 64.99346923828125 89.14102172851562 71.74103546142578 92.33489227294922 102.11144256591797 C 81.70832061767578 78.79647064208984 96.3281021118164 87.75330352783203 100.1114730834961 66.86817169189453 C 109.62702941894531 62.31208419799805 115.15458679199219 64.7022705078125 86.29344940185547 62.21269226074219" stroke-width="2.0" fill="none" stroke="rgb(0, 0, 0)" stroke-opacity="1" stroke-linecap="round" stroke-linejoin="round"/>
    <path d="M 189.85826110839844 90.8952865600586 C 162.6138153076172 100.33148193359375 156.2469940185547 75.38347625732422 134.023681640625 77.2461929321289 C 166.9406280517578 34.65615463256836 146.64849853515625 68.11601257324219 137.0489959716797 88.4780502319336" stroke-width="2.0" fill="none" stroke="rgb(0, 0, 0)" stroke-opacity="1" stroke-linecap="round" stroke-linejoin="round"/>
    <path d="M 178.66824340820312 47.28012466430664 C 181.88272094726562 67.46575927734375 174.7032012939453 61.38494110107422 159.6132049560547 50.57574462890625 C 153.69973754882812 48.06975555419922 128.49273681640625 36.233863830566406 153.62857055664062 33.234649658203125 C 132.5938720703125 41.47585678100586 165.75640869140625 51.391136169433594 157.84681701660156 42.99111557006836" stroke-width="2.0" fill="none" stroke="rgb(0, 0, 0)" stroke-opacity="1" stroke-linecap="round" stroke-linejoin="round"/>
    <path d="M 84.38803100585938 -1.422294020652771 C 103.7027816772461 11.009627342224121 97.41597747802734 6.557408332824707 118.81707000732422 -1.3903474807739258 C 92.84673309326172 12.186710357666016 110.69480895996094 -4.964811325073242 89.90042877197266 2.451141357421875" stroke-width="2.0" fill="none" stroke="rgb(0, 0, 0)" stroke-opacity="1" stroke-linecap="round" stroke-linejoin="round"/>
    <path d="M 134.25230407714844 217.92283630371094 C 129.55474853515625 245.7949676513672 149.4089813232422 237.306884765625 151.28829956054688 234.30508422851562" stroke-width="2.0" fill="none" stroke="rgb(0, 0, 0)" stroke-opacity="1" stroke-linecap="round" stroke-linejoin="round"/>
    <path d="M 16.10270118713379 194.68099975585938 C -10.335124015808105 189.4388427734375 -24.09963035583496 216.6722869873047 13.37287712097168 198.88340759277344" stroke-width="2.0" fill="none" stroke="rgb(0, 0, 0)" stroke-opacity="1" stroke-linecap="round" stroke-linejoin="round"/>
    <path d="M 19.957365036010742 83.75872802734375 C 17.70771598815918 105.0741958618164 -1.606772780418396 34.972991943359375 28.483531951904297 52.262821197509766" stroke-width="2.0" fill="none" stroke="rgb(0, 0, 0)" stroke-opacity="1" stroke-linecap="round" stroke-linejoin="round"/>
    <path d="M 6.976017475128174 85.67426300048828 C -22.171098709106445 88.12661743164062 -14.678300857543945 87.5030288696289 -18.461795806884766 76.51034545898438 C -19.848445892333984 73.10946655273438 -25.00821304321289 81.49598693847656 -15.903261184692383 85.35285949707031 C -21.956539154052734 91.07528686523438 -12.973959922790527 90.29451751708984 -24.069652557373047 82.48407745361328" stroke-width="2.0" fill="none" stroke="rgb(0, 0, 0)" stroke-opacity="1" stroke-linecap="round" stroke-linejoin="round"/>
    <path d="M 229.67469787597656 210.7132110595703 C 219.44398498535156 165.2342987060547 194.2362823486328 189.92051696777344 221.7636260986328 178.5246124267578 C 158.74444580078125 180.0996856689453 220.73611450195312 175.57052612304688 195.9715118408203 175.40896606445312" stroke-width="2.0" fill="none" stroke="rgb(0, 0, 0)" stroke-opacity="1" stroke-linecap="round" stroke-linejoin="round"/>
    <path d="M 77.69383239746094 113.6067886352539 C 41.27145004272461 127.35774993896484 59.82417297363281 114.43916320800781 120.06365203857422 97.63125610351562 C 130.00086975097656 109.37086486816406 106.42337036132812 89.02526092529297 93.6431655883789 86.28929901123047" stroke-width="2.0" fill="none" stroke="rgb(0, 0, 0)" stroke-opacity="1" stroke-linecap="round" stroke-linejoin="round"/>
    <path d="M 59.730064392089844 33.7056999206543 C 71.20435333251953 34.70782470703125 65.50747680664062 11.424955368041992 64.80741119384766 53.14389419555664 C 67.47148895263672 18.495079040527344 68.62010955810547 22.149574279785156 57.321651458740234 57.548583984375 C 76.63977813720703 30.34709358215332 74.98139190673828 32.92533874511719 55.54808807373047 83.67962646484375" stroke-width="2.0" fill="none" stroke="rgb(0, 0, 0)" stroke-opacity="1" stroke-linecap="round" stroke-linejoin="round"/>
    <path d="M 158.3851776123047 18.804262161254883 C 154.92288208007812 42.63727951049805 185.20965576171875 12.95942497253418 159.75296020507812 17.312904357910156 C 151.7445831298828 13.951245307922363 132.25350952148438 16.266389846801758 108.0069351196289 29.16742515563965 C 138.18544006347656 17.621932983398438 128.34205627441406 14.893770217895508 94.06280517578125 42.740203857421875" stroke-width="2.0" fill="none" stroke="rgb(0, 0, 0)" stroke-opacity="1" stroke-linecap="round" stroke-linejoin="round"/>
    <path d="M 25.077077865600586 181.9249267578125 C 26.687240600585938 198.2449951171875 4.874256134033203 182.5755615234375 11.866085052490234 177.933349609375 C 31.27511215209961 174.43487548828125 -2.5947751998901367 161.8857879638672 -6.602852821350098 180.46832275390625" stroke-width="2.0" fill="none" stroke="rgb(0, 0, 0)" stroke-opacity="1" stroke-linecap="round" stroke-linejoin="round"/>
    <path d="M 12.533917427062988 220.95452880859375 C -23.89946937561035 236.67112731933594 20.583898544311523 198.06947326660156 23.94013214111328 233.87168884277344 C 45.40486145019531 212.1448516845703 58.63470458984375 218.43798828125 37.12569046020508 229.45335388183594" stroke-width="2.0" fill="none" stroke="rgb(0, 0, 0)" stroke-opacity="1" stroke-linecap="round" stroke-linejoin="round"/>
    <path d="M -3.9316463470458984 55.41930389404297 C 44.33478546142578 58.42440414428711 8.823307991027832 42.05558395385742 14.483269691467285 70.84280395507812 C 27.2131404876709 66.1186294555664 8.459434509277344 64.3400650024414 -20.841629028320312 68.09429931640625 C -10.684259414672852 51.36021423339844 -9.910011291503906 55.61932373046875 -14.549766540527344 46.21570587158203" stroke-width="2.0" fill="none" stroke="rgb(0, 0, 0)" stroke-opacity="1" stroke-linecap="round" stroke-linejoin="round"/>
    <path d="M 169.7169647216797 231.59408569335938 C 178.60865783691406 232.99205017089844 187.80859375 231.6521453857422 175.97109985351562 228.1160888671875" stroke-width="2.0" fill="none" stroke="rgb(0, 0, 0)" stroke-opacity="1" stroke-linecap="round" stroke-linejoin="round"/>
    <path d="M 226.0240936279297 44.515289306640625 C 219.54574584960938 86.79586791992188 210.9867401123047 118.06859588623047 216.8911590576172 75.05631256103516 C 212.83018493652344 60.81574630737305 196.1438446044922 72.29489135742188 225.79788208007812 89.4541015625 C 225.337890625 73.8122787475586 209.21136474609375 83.92790222167969 228.1890106201172 102.83979034423828" stroke-width="2.0" fill="none" stroke="rgb(0, 0, 0)" stroke-opacity="1" stroke-linecap="round" stroke-linejoin="round"/>
    <path d="M 163.65994262695312 119.69774627685547 C 173.42807006835938 133.96888732910156 197.5416259765625 140.2440643310547 153.28018188476562 108.6920394897461 C 184.1329345703125 117.14205932617188 191.183349609375 147.08737182617188 178.53700256347656 139.2509307861328 C 197.0358123779297 190.6216278076172 186.99359130859375 164.3217010498047 179.79454040527344 121.52864074707031" stroke-width="2.0" fill="none" stroke="rgb(0, 0, 0)" stroke-opacity="1" stroke-linecap="round" stroke-linejoin="round"/>
    <path d="M 91.76557159423828 96.63611602783203 C 105.95110321044922 72.4805908203125 108.88199615478516 76.59489440917969 107.11736297607422 89.33397674560547 C 88.61430358886719 89.70480346679688 56.46321105957031 79.68251037597656 77.37582397460938 91.6840591430664" stroke-width="2.0" fill="none" stroke="rgb(0, 0, 0)" stroke-opacity="1" stroke-linecap="round" stroke-linejoin="round"/>
  </g>
</svg>
