<?xml version="1.0" ?>
<svg xmlns="http://www.w3.org/2000/svg" version="1.1" width="224" height="224">
  <defs/>
  <g>
    <path d="M 79.7967300415039 4.084356307983398 C 51.546607971191406 -6.610196590423584 82.32840728759766 13.434911727905273 99.20494079589844 13.694171905517578 C 92.86550903320312 9.481976509094238 83.8761215209961 -0.3378247022628784 79.11956787109375 -6.013830661773682 C 80.93578338623047 -20.112045288085938 87.20072937011719 0.38888975977897644 75.4743881225586 13.560874938964844" stroke-width="2.0" fill="none" stroke="rgb(0, 0, 0)" stroke-opacity="1" stroke-linecap="round" stroke-linejoin="round"/>
    <path d="M 124.21476745605469 158.41343688964844 C 131.16513061523438 128.09413146972656 123.57157135009766 127.5478286743164 134.2247314453125 105.86784362792969 C 142.331298828125 87.86665344238281 130.36495971679688 115.15342712402344 119.54181671142578 118.8398666381836" stroke-width="2.0" fill="none" stroke="rgb(0, 0, 0)" stroke-opacity="1" stroke-linecap="round" stroke-linejoin="round"/>
    <path d="M 190.67526245117188 62.76432800292969 C 212.10279846191406 49.72910690307617 210.3175048828125 85.5786361694336 186.7821044921875 56.48501968383789 C 199.08689880371094 87.73030090332031 214.36196899414062 62.5009651184082 236.69125366210938 67.92725372314453" stroke-width="2.0" fill="none" stroke="rgb(0, 0, 0)" stroke-opacity="1" stroke-linecap="round" stroke-linejoin="round"/>
    <path d="M 206.5492706298828 43.001033782958984 C 184.36985778808594 34.75426483154297 188.45834350585938 25.78101921081543 197.01710510253906 14.553258895874023 C 203.31053161621094 23.624116897583008 204.56045532226562 35.04364776611328 186.8408966064453 25.876773834228516 C 190.2367706298828 42.652889251708984 213.67489624023438 51.895240783691406 212.46522521972656 52.89830780029297" stroke-width="2.0" fill="none" stroke="rgb(0, 0, 0)" stroke-opacity="1" stroke-linecap="round" stroke-linejoin="round"/>
    <path d="M 170.56072998046875 131.55328369140625 C 178.45913696289062 155.4958953857422 175.3623046875 148.24388122558594 185.98526000976562 150.60777282714844 C 175.03500366210938 167.44427490234375 180.1079559326172 117.20297241210938 151.68870544433594 119.51463317871094 C 167.1406707763672 145.2413787841797 137.6174774169922 134.15672302246094 153.7367706298828 124.88168334960938" stroke-width="2.0" fill="none" stroke="rgb(0, 0, 0)" stroke-opacity="1" stroke-linecap="round" stroke-linejoin="round"/>
    <path d="M 132.1519775390625 55.356689453125 C 131.07423400878906 45.302913665771484 143.9364013671875 62.72447204589844 129.03607177734375 64.67031860351562 C 111.02930450439453 41.9008674621582 159.12217712402344 31.71375274658203 136.5605010986328 78.55681610107422" stroke-width="2.0" fill="none" stroke="rgb(0, 0, 0)" stroke-opacity="1" stroke-linecap="round" stroke-linejoin="round"/>
    <path d="M 15.44445514678955 -7.020117282867432 C 22.626617431640625 11.269906997680664 24.452739715576172 12.993040084838867 7.761384010314941 -12.155978202819824 C 12.250481605529785 0.9368976354598999 24.426807403564453 11.144207954406738 21.81953239440918 13.34228515625 C -7.393714904785156 19.07465171813965 -15.97049331665039 21.064258575439453 -16.69700050354004 29.443918228149414" stroke-width="2.0" fill="none" stroke="rgb(0, 0, 0)" stroke-opacity="1" stroke-linecap="round" stroke-linejoin="round"/>
    <path d="M 73.65743255615234 106.48295593261719 C 48.459617614746094 79.30695343017578 45.07944869995117 74.03971862792969 60.97357177734375 70.85892486572266 C 37.03133010864258 97.67033386230469 31.765689849853516 112.35416412353516 29.43256378173828 130.90309143066406 C 32.06650161743164 93.93097686767578 69.15342712402344 120.42622375488281 38.44591522216797 113.42278289794922" stroke-width="2.0" fill="none" stroke="rgb(0, 0, 0)" stroke-opacity="1" stroke-linecap="round" stroke-linejoin="round"/>
    <path d="M 149.81495666503906 29.10958480834961 C 137.3470916748047 24.186328887939453 158.45596313476562 4.372312545776367 148.9948272705078 44.7536735534668 C 130.6145782470703 -10.084240913391113 141.892333984375 55.32059860229492 109.93021392822266 -4.238528251647949" stroke-width="2.0" fill="none" stroke="rgb(0, 0, 0)" stroke-opacity="1" stroke-linecap="round" stroke-linejoin="round"/>
    <path d="M 199.0919189453125 45.67133712768555 C 206.3363494873047 59.24613952636719 190.0079345703125 55.3763313293457 200.52210998535156 44.42174530029297 C 218.0200653076172 62.77172088623047 232.36944580078125 72.21247100830078 234.66213989257812 88.22865295410156" stroke-width="2.0" fill="none" stroke="rgb(0, 0, 0)" stroke-opacity="1" stroke-linecap="round" stroke-linejoin="round"/>
    <path d="M 141.46075439453125 114.65386199951172 C 136.0989532470703 127.050048828125 151.02816772460938 150.99407958984375 158.74298095703125 151.4066619873047 C 143.76141357421875 149.82266235351562 147.33486938476562 131.1721649169922 148.85275268554688 158.03045654296875 C 145.75999450683594 126.20645904541016 143.1848907470703 116.36773681640625 140.8852081298828 139.2713623046875" stroke-width="2.0" fill="none" stroke="rgb(0, 0, 0)" stroke-opacity="1" stroke-linecap="round" stroke-linejoin="round"/>
    <path d="M 44.60035705566406 185.00634765625 C 27.854225158691406 231.93075561523438 28.403276443481445 239.629638671875 33.937076568603516 229.80328369140625" stroke-width="2.0" fill="none" stroke="rgb(0, 0, 0)" stroke-opacity="1" stroke-linecap="round" stroke-linejoin="round"/>
    <path d="M 107.5013656616211 74.89556884765625 C 88.45989227294922 68.6361083984375 130.26071166992188 91.04027557373047 112.55892944335938 53.6612434387207" stroke-width="2.0" fill="none" stroke="rgb(0, 0, 0)" stroke-opacity="1" stroke-linecap="round" stroke-linejoin="round"/>
    <path d="M 37.712501525878906 221.24002075195312 C 57.177608489990234 215.8916778564453 14.840423583984375 205.49685668945312 -12.739148139953613 206.56472778320312" stroke-width="2.0" fill="none" stroke="rgb(0, 0, 0)" stroke-opacity="1" stroke-linecap="round" stroke-linejoin="round"/>
    <path d="M 179.02008056640625 230.56585693359375 C 187.15419006347656 166.0839385986328 205.0289764404297 183.1954803466797 208.83775329589844 236.23304748535156" stroke-width="2.0" fill="none" stroke="rgb(0, 0, 0)" stroke-opacity="1" stroke-linecap="round" stroke-linejoin="round"/>
    <path d="M 58.35633850097656 94.62158966064453 C 40.84347915649414 56.46441650390625 53.540164947509766 84.28268432617188 57.867122650146484 58.451805114746094 C 34.62651824951172 66.02006530761719 27.010135650634766 48.1760368347168 38.3008918762207 60.655643463134766" stroke-width="2.0" fill="none" stroke="rgb(0, 0, 0)" stroke-opacity="1" stroke-linecap="round" stroke-linejoin="round"/>
    <path d="M 24.547548294067383 98.18189239501953 C -2.986477851867676 81.96565246582031 -16.508785247802734 93.45571899414062 -17.52197265625 100.96637725830078 C -7.796313285827637 108.24214172363281 -0.05820101872086525 71.37237548828125 32.61488723754883 56.296112060546875" stroke-width="2.0" fill="none" stroke="rgb(0, 0, 0)" stroke-opacity="1" stroke-linecap="round" stroke-linejoin="round"/>
    <path d="M 173.5625 204.42788696289062 C 167.76028442382812 215.3831787109375 173.01271057128906 209.77981567382812 150.20094299316406 205.87545776367188 C 161.52713012695312 153.13409423828125 143.0446319580078 188.17633056640625 180.32142639160156 207.20042419433594 C 181.23301696777344 192.1632080078125 171.2838134765625 212.9820098876953 161.97955322265625 225.0747833251953" stroke-width="2.0" fill="none" stroke="rgb(0, 0, 0)" stroke-opacity="1" stroke-linecap="round" stroke-linejoin="round"/>
    <path d="M 32.661590576171875 5.405767917633057 C 59.605316162109375 -19.586984634399414 41.64017105102539 27.210290908813477 27.189912796020508 7.0863566398620605" stroke-width="2.0" fill="none" stroke="rgb(0, 0, 0)" stroke-opacity="1" stroke-linecap="round" stroke-linejoin="round"/>
    <path d="M 169.9526824951172 94.02824401855469 C 148.84889221191406 130.20028686523438 135.14430236816406 134.32083129882812 155.68434143066406 128.6926727294922" stroke-width="2.0" fill="none" stroke="rgb(0, 0, 0)" stroke-opacity="1" stroke-linecap="round" stroke-linejoin="round"/>
    <path d="M 37.2763671875 183.54388427734375 C 57.15837860107422 150.95994567871094 43.77680206298828 181.17906188964844 40.10742950439453 207.0921630859375" stroke-width="2.0" fill="none" stroke="rgb(0, 0, 0)" stroke-opacity="1" stroke-linecap="round" stroke-linejoin="round"/>
    <path d="M 160.85562133789062 149.38803100585938 C 133.36424255371094 135.94351196289062 157.2047119140625 127.28682708740234 126.31710815429688 132.76473999023438 C 135.59152221679688 118.9706802368164 166.02728271484375 119.1461181640625 146.73020935058594 106.92913818359375 C 116.53942108154297 103.63159942626953 182.7115478515625 137.4387969970703 160.10113525390625 140.26536560058594" stroke-width="2.0" fill="none" stroke="rgb(0, 0, 0)" stroke-opacity="1" stroke-linecap="round" stroke-linejoin="round"/>
    <path d="M 99.755126953125 36.07969284057617 C 115.99276733398438 44.814998626708984 140.041015625 41.211456298828125 136.32887268066406 49.60182189941406" stroke-width="2.0" fill="none" stroke="rgb(0, 0, 0)" stroke-opacity="1" stroke-linecap="round" stroke-linejoin="round"/>
    <path d="M 19.28498649597168 52.761104583740234 C 33.43403244018555 31.743606567382812 -37.63642501831055 52.047996520996094 9.38233757019043 38.19686508178711 C 3.428358554840088 7.300343036651611 -5.454863548278809 33.07307434082031 17.105398178100586 15.095491409301758 C -14.9782075881958 23.74059295654297 -16.64154052734375 19.990867614746094 20.832473754882812 12.59993839263916" stroke-width="2.0" fill="none" stroke="rgb(0, 0, 0)" stroke-opacity="1" stroke-linecap="round" stroke-linejoin="round"/>
    <path d="M 155.9166259765625 85.43264770507812 C 162.94851684570312 79.23619842529297 143.9571075439453 78.3088150024414 153.52249145507812 89.1066665649414 C 177.3482666015625 96.33688354492188 141.5713348388672 60.27313232421875 162.10086059570312 71.55863952636719" stroke-width="2.0" fill="none" stroke="rgb(0, 0, 0)" stroke-opacity="1" stroke-linecap="round" stroke-linejoin="round"/>
    <path d="M 94.06619262695312 102.68167114257812 C 66.00215148925781 143.6492156982422 72.73151397705078 144.9049835205078 64.0458984375 146.2097625732422 C 56.44717025756836 140.34796142578125 56.953895568847656 108.7101058959961 33.56032943725586 118.71369934082031" stroke-width="2.0" fill="none" stroke="rgb(0, 0, 0)" stroke-opacity="1" stroke-linecap="round" stroke-linejoin="round"/>
    <path d="M 121.49445343017578 19.002561569213867 C 134.99952697753906 47.596981048583984 156.724853515625 52.9798698425293 103.96125793457031 35.054141998291016" stroke-width="2.0" fill="none" stroke="rgb(0, 0, 0)" stroke-opacity="1" stroke-linecap="round" stroke-linejoin="round"/>
    <path d="M 118.89506530761719 21.823272705078125 C 80.88775634765625 45.022823333740234 105.67721557617188 44.36921310424805 137.48007202148438 42.76708221435547 C 108.87113952636719 64.62956237792969 153.4260711669922 68.66480255126953 134.5994873046875 46.32398223876953" stroke-width="2.0" fill="none" stroke="rgb(0, 0, 0)" stroke-opacity="1" stroke-linecap="round" stroke-linejoin="round"/>
    <path d="M 225.69464111328125 152.08908081054688 C 214.49085998535156 162.40362548828125 225.9588165283203 206.41278076171875 220.8386993408203 190.61627197265625 C 237.5770263671875 190.75099182128906 241.29421997070312 194.4164581298828 234.26058959960938 192.9962158203125 C 235.8785400390625 175.65223693847656 240.3171844482422 175.14569091796875 201.6230010986328 176.35874938964844" stroke-width="2.0" fill="none" stroke="rgb(0, 0, 0)" stroke-opacity="1" stroke-linecap="round" stroke-linejoin="round"/>
    <path d="M 7.613845348358154 221.6247100830078 C 23.273780822753906 182.40911865234375 30.13138198852539 180.7520294189453 -3.080779790878296 182.4488983154297" stroke-width="2.0" fill="none" stroke="rgb(0, 0, 0)" stroke-opacity="1" stroke-linecap="round" stroke-linejoin="round"/>
    <path d="M 210.44248962402344 94.70381164550781 C 244.51275634765625 115.37686920166016 236.9134979248047 128.70530700683594 231.54356384277344 157.33753967285156 C 232.53366088867188 152.73939514160156 220.96511840820312 148.58099365234375 195.17803955078125 113.6863021850586 C 226.2424774169922 137.4873046875 227.8909149169922 124.81550598144531 231.1579132080078 142.3339385986328" stroke-width="2.0" fill="none" stroke="rgb(0, 0, 0)" stroke-opacity="1" stroke-linecap="round" stroke-linejoin="round"/>
    <path d="M 112.23004150390625 89.183349609375 C 103.19831085205078 76.84842681884766 138.1699981689453 94.37384033203125 118.13540649414062 96.17517852783203 C 130.48068237304688 68.26142883300781 85.45472717285156 93.80768585205078 102.88130187988281 111.5776596069336" stroke-width="2.0" fill="none" stroke="rgb(0, 0, 0)" stroke-opacity="1" stroke-linecap="round" stroke-linejoin="round"/>
    <path d="M 183.7553253173828 92.96247863769531 C 197.0592803955078 110.59111785888672 187.64381408691406 135.1880645751953 177.40916442871094 118.46976470947266" stroke-width="2.0" fill="none" stroke="rgb(0, 0, 0)" stroke-opacity="1" stroke-linecap="round" stroke-linejoin="round"/>
    <path d="M 158.1017303466797 192.59149169921875 C 149.41592407226562 164.3409423828125 184.21890258789062 144.98699951171875 183.92225646972656 181.1956024169922" stroke-width="2.0" fill="none" stroke="rgb(0, 0, 0)" stroke-opacity="1" stroke-linecap="round" stroke-linejoin="round"/>
    <path d="M 147.3533477783203 90.89537811279297 C 139.74659729003906 96.9363021850586 160.35728454589844 99.5498046875 145.94247436523438 87.34474182128906 C 118.16162109375 120.16145324707031 156.3865509033203 131.3282012939453 144.1313018798828 118.87910461425781 C 152.0145263671875 160.04615783691406 126.10792541503906 147.101318359375 131.1906280517578 123.03854370117188" stroke-width="2.0" fill="none" stroke="rgb(0, 0, 0)" stroke-opacity="1" stroke-linecap="round" stroke-linejoin="round"/>
    <path d="M 67.80399322509766 232.8592529296875 C 81.69278717041016 211.922607421875 89.859375 194.18002319335938 87.34849548339844 193.8998260498047 C 71.12833404541016 198.94314575195312 90.76876831054688 189.86053466796875 82.11925506591797 192.56834411621094 C 97.79193115234375 187.76248168945312 74.34151458740234 176.1809539794922 70.039306640625 208.45751953125" stroke-width="2.0" fill="none" stroke="rgb(0, 0, 0)" stroke-opacity="1" stroke-linecap="round" stroke-linejoin="round"/>
    <path d="M 78.26934051513672 28.44139862060547 C 83.16197204589844 52.67815399169922 108.32423400878906 9.823516845703125 47.67525863647461 34.60755920410156 C 69.98973083496094 40.135013580322266 83.18779754638672 75.91516876220703 71.80516815185547 67.95468139648438" stroke-width="2.0" fill="none" stroke="rgb(0, 0, 0)" stroke-opacity="1" stroke-linecap="round" stroke-linejoin="round"/>
    <path d="M 129.43115234375 131.31515502929688 C 125.04698181152344 160.73660278320312 150.6346435546875 170.96128845214844 126.27838134765625 135.30104064941406 C 157.6329345703125 131.49740600585938 142.11392211914062 126.91014862060547 129.075439453125 130.5403289794922" stroke-width="2.0" fill="none" stroke="rgb(0, 0, 0)" stroke-opacity="1" stroke-linecap="round" stroke-linejoin="round"/>
    <path d="M 86.30805969238281 22.45960235595703 C 58.95397186279297 31.891077041625977 72.2518310546875 62.3420524597168 76.67581939697266 53.38935852050781 C 88.13739013671875 70.26026153564453 91.30320739746094 59.95916748046875 67.39542388916016 42.34288024902344 C 69.10826873779297 71.03849029541016 28.028940200805664 58.29215621948242 51.581512451171875 70.73958587646484" stroke-width="2.0" fill="none" stroke="rgb(0, 0, 0)" stroke-opacity="1" stroke-linecap="round" stroke-linejoin="round"/>
    <path d="M 48.55816650390625 171.865966796875 C 52.18422317504883 155.38076782226562 30.58903694152832 161.28871154785156 39.448604583740234 165.69952392578125 C 29.20655059814453 144.39462280273438 28.302865982055664 175.66683959960938 54.92947006225586 163.1605224609375 C 74.6131591796875 135.07736206054688 56.18831253051758 144.31504821777344 42.43205642700195 192.2581787109375" stroke-width="2.0" fill="none" stroke="rgb(0, 0, 0)" stroke-opacity="1" stroke-linecap="round" stroke-linejoin="round"/>
    <path d="M 173.13873291015625 97.24429321289062 C 166.50555419921875 103.56461334228516 191.08204650878906 112.1100082397461 179.9996337890625 82.17070007324219 C 171.26947021484375 94.97071075439453 170.4783172607422 97.417724609375 135.2203826904297 105.19397735595703" stroke-width="2.0" fill="none" stroke="rgb(0, 0, 0)" stroke-opacity="1" stroke-linecap="round" stroke-linejoin="round"/>
    <path d="M 131.227783203125 214.13717651367188 C 135.7511444091797 222.87559509277344 139.48631286621094 210.4998321533203 143.718505859375 219.19021606445312 C 127.78327178955078 227.4801483154297 122.77214050292969 239.52188110351562 122.63490295410156 243.01368713378906" stroke-width="2.0" fill="none" stroke="rgb(0, 0, 0)" stroke-opacity="1" stroke-linecap="round" stroke-linejoin="round"/>
    <path d="M 38.3387336730957 68.50760650634766 C 60.77585983276367 89.91575622558594 62.42367935180664 79.62881469726562 57.835540771484375 60.41896438598633" stroke-width="2.0" fill="none" stroke="rgb(0, 0, 0)" stroke-opacity="1" stroke-linecap="round" stroke-linejoin="round"/>
    <path d="M 174.94757080078125 9.12447452545166 C 190.8773651123047 -1.135528564453125 200.93202209472656 -23.36854362487793 226.76031494140625 -20.74689483642578 C 216.14500427246094 -3.1040124893188477 222.65821838378906 5.801393032073975 218.40130615234375 -7.084455490112305" stroke-width="2.0" fill="none" stroke="rgb(0, 0, 0)" stroke-opacity="1" stroke-linecap="round" stroke-linejoin="round"/>
    <path d="M 103.6292724609375 220.95201110839844 C 127.32850646972656 203.77761840820312 129.7144317626953 188.5818328857422 122.90364074707031 199.07861328125 C 138.61367797851562 227.96633911132812 144.84422302246094 234.9674072265625 122.88429260253906 195.6448211669922" stroke-width="2.0" fill="none" stroke="rgb(0, 0, 0)" stroke-opacity="1" stroke-linecap="round" stroke-linejoin="round"/>
    <path d="M -9.03280258178711 49.19731521606445 C 20.497621536254883 42.83418273925781 6.648804187774658 39.123146057128906 1.482218861579895 53.016700744628906 C 7.505817890167236 66.50557708740234 23.208683013916016 61.43418502807617 30.38123321533203 55.48724365234375" stroke-width="2.0" fill="none" stroke="rgb(0, 0, 0)" stroke-opacity="1" stroke-linecap="round" stroke-linejoin="round"/>
    <path d="M 70.27909088134766 146.98939514160156 C 62.61182403564453 154.76251220703125 84.34780883789062 178.50143432617188 91.99395751953125 159.35581970214844 C 88.81871795654297 157.6356964111328 92.47528839111328 136.18307495117188 53.155792236328125 126.31122589111328" stroke-width="2.0" fill="none" stroke="rgb(0, 0, 0)" stroke-opacity="1" stroke-linecap="round" stroke-linejoin="round"/>
    <path d="M 21.574962615966797 67.94158172607422 C 24.544612884521484 45.430625915527344 22.990942001342773 84.97686767578125 -1.215016484260559 117.92345428466797" stroke-width="2.0" fill="none" stroke="rgb(0, 0, 0)" stroke-opacity="1" stroke-linecap="round" stroke-linejoin="round"/>
    <path d="M 83.74821472167969 31.871456146240234 C 73.45986938476562 21.18414878845215 61.41088104248047 32.8239631652832 35.86629867553711 31.399744033813477 C 36.16738510131836 18.387420654296875 56.580413818359375 -19.800155639648438 66.78780364990234 18.19796371459961 C 42.09524154663086 17.19583511352539 37.482879638671875 3.8310203552246094 52.258487701416016 -9.469176292419434" stroke-width="2.0" fill="none" stroke="rgb(0, 0, 0)" stroke-opacity="1" stroke-linecap="round" stroke-linejoin="round"/>
    <path d="M 42.39251708984375 112.31505584716797 C 56.52741622924805 121.41845703125 45.9085807800293 120.98143005371094 17.233198165893555 131.1764373779297 C 18.904586791992188 170.33258056640625 38.91912841796875 138.09368896484375 22.892770767211914 144.77127075195312" stroke-width="2.0" fill="none" stroke="rgb(0, 0, 0)" stroke-opacity="1" stroke-linecap="round" stroke-linejoin="round"/>
    <path d="M 94.02301025390625 189.5000762939453 C 143.8679962158203 198.5013427734375 128.25462341308594 200.9723663330078 110.66209411621094 170.05819702148438 C 106.4998550415039 223.19308471679688 89.6202621459961 190.62892150878906 103.87074279785156 198.17042541503906" stroke-width="2.0" fill="none" stroke="rgb(0, 0, 0)" stroke-opacity="1" stroke-linecap="round" stroke-linejoin="round"/>
    <path d="M 79.08943939208984 23.774295806884766 C 115.4344253540039 28.28314208984375 73.75011444091797 53.52941131591797 76.0865707397461 28.48822784423828" stroke-width="2.0" fill="none" stroke="rgb(0, 0, 0)" stroke-opacity="1" stroke-linecap="round" stroke-linejoin="round"/>
    <path d="M 200.91844177246094 81.443115234375 C 219.31768798828125 107.24519348144531 209.6427764892578 118.88655090332031 211.26449584960938 98.29744720458984 C 213.31939697265625 78.60365295410156 230.13267517089844 60.26431655883789 233.1246337890625 58.72871780395508" stroke-width="2.0" fill="none" stroke="rgb(0, 0, 0)" stroke-opacity="1" stroke-linecap="round" stroke-linejoin="round"/>
    <path d="M 83.0335464477539 82.53597259521484 C 88.77384948730469 40.54035186767578 47.80824661254883 64.82035827636719 71.11994171142578 63.95213317871094 C 63.73118591308594 36.5864372253418 61.2001953125 39.91071319580078 80.03463745117188 61.09557342529297 C 75.50762939453125 43.909027099609375 59.75660705566406 42.186126708984375 60.20150375366211 69.15077209472656" stroke-width="2.0" fill="none" stroke="rgb(0, 0, 0)" stroke-opacity="1" stroke-linecap="round" stroke-linejoin="round"/>
    <path d="M -0.6470136642456055 17.275169372558594 C 17.212310791015625 25.88644790649414 30.849143981933594 -1.4930273294448853 35.62165832519531 -18.925413131713867 C 18.621204376220703 -9.965449333190918 24.800762176513672 -12.30937671661377 30.259967803955078 -5.2739739418029785 C 8.522603988647461 -4.463347434997559 21.1906795501709 -12.421051025390625 29.626827239990234 -21.633888244628906" stroke-width="2.0" fill="none" stroke="rgb(0, 0, 0)" stroke-opacity="1" stroke-linecap="round" stroke-linejoin="round"/>
    <path d="M 32.27129364013672 104.9394302368164 C 18.270858764648438 107.44035339355469 40.666133880615234 88.44318389892578 5.182930946350098 91.41050720214844 C 35.647708892822266 100.79312133789062 9.847664833068848 128.88192749023438 9.760469436645508 101.93531799316406 C 24.19528579711914 113.53546905517578 12.235005378723145 88.49744415283203 -3.2774031162261963 93.2467269897461" stroke-width="2.0" fill="none" stroke="rgb(0, 0, 0)" stroke-opacity="1" stroke-linecap="round" stroke-linejoin="round"/>
    <path d="M 62.60075378417969 208.89447021484375 C 83.28154754638672 218.1114959716797 77.29142761230469 208.45394897460938 66.91844940185547 221.7545623779297 C 73.36235046386719 238.10899353027344 59.563720703125 232.36416625976562 60.63331985473633 235.88638305664062 C 60.24801254272461 195.46966552734375 67.52755737304688 198.27784729003906 75.05867767333984 202.88250732421875" stroke-width="2.0" fill="none" stroke="rgb(0, 0, 0)" stroke-opacity="1" stroke-linecap="round" stroke-linejoin="round"/>
    <path d="M 4.580190181732178 194.94992065429688 C -1.5048635005950928 158.6890411376953 18.694427490234375 149.68321228027344 -20.964859008789062 178.8329620361328 C 7.832620620727539 207.44166564941406 27.23613739013672 193.0162811279297 5.282573699951172 150.87997436523438 C 5.202756881713867 165.2544708251953 -2.9539906978607178 217.970458984375 8.740472793579102 198.85577392578125" stroke-width="2.0" fill="none" stroke="rgb(0, 0, 0)" stroke-opacity="1" stroke-linecap="round" stroke-linejoin="round"/>
    <path d="M 132.58108520507812 189.94752502441406 C 153.61859130859375 215.98602294921875 178.4438018798828 208.0501251220703 189.8748016357422 217.67555236816406 C 191.61647033691406 242.66607666015625 183.324462890625 230.82200622558594 166.8797607421875 236.7172393798828 C 179.38661193847656 229.22393798828125 180.30935668945312 234.85585021972656 180.48135375976562 229.4124298095703" stroke-width="2.0" fill="none" stroke="rgb(0, 0, 0)" stroke-opacity="1" stroke-linecap="round" stroke-linejoin="round"/>
    <path d="M 130.47853088378906 49.412315368652344 C 146.76303100585938 43.409568786621094 144.32717895507812 56.74454116821289 148.3094024658203 88.70006561279297 C 146.75762939453125 78.0130615234375 140.1550750732422 94.91947174072266 155.0900115966797 73.62157440185547" stroke-width="2.0" fill="none" stroke="rgb(0, 0, 0)" stroke-opacity="1" stroke-linecap="round" stroke-linejoin="round"/>
    <path d="M 205.78648376464844 141.42303466796875 C 225.58546447753906 128.95761108398438 220.2797393798828 155.58563232421875 239.46017456054688 170.8031768798828" stroke-width="2.0" fill="none" stroke="rgb(0, 0, 0)" stroke-opacity="1" stroke-linecap="round" stroke-linejoin="round"/>
    <path d="M 211.23953247070312 192.8459014892578 C 172.9329833984375 191.72799682617188 183.9567413330078 201.469970703125 188.29917907714844 189.5571746826172 C 182.99749755859375 190.83468627929688 175.59616088867188 218.26290893554688 176.94268798828125 227.74327087402344 C 174.5465545654297 235.73263549804688 178.0252227783203 245.87667846679688 188.95034790039062 236.9172821044922" stroke-width="2.0" fill="none" stroke="rgb(0, 0, 0)" stroke-opacity="1" stroke-linecap="round" stroke-linejoin="round"/>
    <path d="M 81.42868041992188 23.059289932250977 C 80.92532348632812 0.20133963227272034 77.30760955810547 -5.160861968994141 84.32007598876953 -8.689379692077637" stroke-width="2.0" fill="none" stroke="rgb(0, 0, 0)" stroke-opacity="1" stroke-linecap="round" stroke-linejoin="round"/>
    <path d="M 174.8734893798828 79.76251983642578 C 149.8018035888672 36.98772430419922 160.92483520507812 72.80997467041016 195.49081420898438 73.93694305419922 C 122.12779235839844 42.49439239501953 142.2109832763672 47.63067626953125 154.72012329101562 71.02323913574219 C 150.79147338867188 63.72044372558594 178.12965393066406 69.7955093383789 143.12074279785156 53.41487503051758" stroke-width="2.0" fill="none" stroke="rgb(0, 0, 0)" stroke-opacity="1" stroke-linecap="round" stroke-linejoin="round"/>
    <path d="M 15.248542785644531 176.7221221923828 C -15.896488189697266 169.3927764892578 -7.996838569641113 176.22361755371094 8.802884101867676 176.25360107421875 C 7.5745978355407715 186.79791259765625 4.601654052734375 202.5348358154297 19.566387176513672 186.31317138671875" stroke-width="2.0" fill="none" stroke="rgb(0, 0, 0)" stroke-opacity="1" stroke-linecap="round" stroke-linejoin="round"/>
    <path d="M 94.77127075195312 2.8853390216827393 C 120.29296112060547 -4.0184807777404785 112.671142578125 28.014232635498047 96.36174774169922 -7.706141948699951" stroke-width="2.0" fill="none" stroke="rgb(0, 0, 0)" stroke-opacity="1" stroke-linecap="round" stroke-linejoin="round"/>
    <path d="M 202.87713623046875 34.96551513671875 C 204.8667449951172 48.333683013916016 218.8029327392578 27.691082000732422 197.19676208496094 34.894996643066406 C 168.66973876953125 19.6716365814209 180.895751953125 22.871475219726562 206.43736267089844 -12.292510986328125" stroke-width="2.0" fill="none" stroke="rgb(0, 0, 0)" stroke-opacity="1" stroke-linecap="round" stroke-linejoin="round"/>
    <path d="M 40.008934020996094 202.50765991210938 C 42.01834487915039 193.1645965576172 45.70713806152344 188.1266632080078 41.740966796875 243.9612579345703 C 30.173677444458008 244.57334899902344 33.65907669067383 253.88302612304688 28.042743682861328 263.2176818847656 C 58.652626037597656 252.68441772460938 63.24346923828125 255.27793884277344 59.45254898071289 254.16738891601562" stroke-width="2.0" fill="none" stroke="rgb(0, 0, 0)" stroke-opacity="1" stroke-linecap="round" stroke-linejoin="round"/>
    <path d="M 28.557527542114258 158.79718017578125 C 66.88612365722656 136.36932373046875 107.10311126708984 140.8539581298828 72.59036254882812 147.0206756591797 C 89.29283142089844 148.1435546875 68.94246673583984 169.71766662597656 79.55265045166016 144.93423461914062" stroke-width="2.0" fill="none" stroke="rgb(0, 0, 0)" stroke-opacity="1" stroke-linecap="round" stroke-linejoin="round"/>
    <path d="M 132.7806396484375 214.21006774902344 C 121.91199493408203 211.6727294921875 130.20654296875 179.72792053222656 120.20649719238281 202.11402893066406 C 157.0158233642578 214.0194549560547 147.61526489257812 212.44004821777344 128.59332275390625 208.3736114501953" stroke-width="2.0" fill="none" stroke="rgb(0, 0, 0)" stroke-opacity="1" stroke-linecap="round" stroke-linejoin="round"/>
    <path d="M 180.21670532226562 113.17326354980469 C 171.53787231445312 87.77606201171875 170.79257202148438 140.1577911376953 165.462890625 153.38742065429688" stroke-width="2.0" fill="none" stroke="rgb(0, 0, 0)" stroke-opacity="1" stroke-linecap="round" stroke-linejoin="round"/>
    <path d="M 41.233055114746094 178.45201110839844 C 52.11444854736328 174.47471618652344 38.29707717895508 153.21055603027344 25.9448184967041 131.25640869140625" stroke-width="2.0" fill="none" stroke="rgb(0, 0, 0)" stroke-opacity="1" stroke-linecap="round" stroke-linejoin="round"/>
    <path d="M 210.00820922851562 143.3835906982422 C 182.1413116455078 131.2446746826172 160.15774536132812 128.65725708007812 201.3448028564453 126.62086486816406 C 195.9124298095703 124.24784851074219 205.58082580566406 137.55535888671875 196.96241760253906 152.9292449951172" stroke-width="2.0" fill="none" stroke="rgb(0, 0, 0)" stroke-opacity="1" stroke-linecap="round" stroke-linejoin="round"/>
    <path d="M 87.84801483154297 136.4141387939453 C 106.84017181396484 131.13038635253906 71.1026382446289 129.4915008544922 92.39531707763672 154.95913696289062 C 110.5149917602539 168.60903930664062 109.63392639160156 179.92047119140625 91.36124420166016 179.60443115234375 C 81.1456298828125 163.98178100585938 98.2277603149414 169.77236938476562 88.37413787841797 193.97996520996094" stroke-width="2.0" fill="none" stroke="rgb(0, 0, 0)" stroke-opacity="1" stroke-linecap="round" stroke-linejoin="round"/>
    <path d="M 211.19790649414062 167.2095947265625 C 194.03781127929688 167.95399475097656 244.6072998046875 184.3023223876953 204.62864685058594 155.52381896972656 C 200.6073455810547 177.86880493164062 183.8685760498047 149.57461547851562 200.17991638183594 142.36520385742188 C 198.9617462158203 138.080810546875 194.10902404785156 144.9897918701172 216.53724670410156 164.9281005859375" stroke-width="2.0" fill="none" stroke="rgb(0, 0, 0)" stroke-opacity="1" stroke-linecap="round" stroke-linejoin="round"/>
    <path d="M 85.54810333251953 121.53353881835938 C 100.22933197021484 89.96592712402344 112.22805786132812 67.81787872314453 103.14137268066406 79.67229461669922 C 96.19613647460938 46.3526496887207 94.4660415649414 16.086380004882812 102.03534698486328 56.42217254638672" stroke-width="2.0" fill="none" stroke="rgb(0, 0, 0)" stroke-opacity="1" stroke-linecap="round" stroke-linejoin="round"/>
    <path d="M 166.82199096679688 34.36650085449219 C 195.99839782714844 31.795387268066406 133.42721557617188 52.403533935546875 189.04820251464844 34.26164245605469 C 147.0250701904297 6.540100574493408 115.66503143310547 16.71283531188965 137.1472930908203 1.2043033838272095 C 150.42430114746094 3.5635757446289062 141.65216064453125 16.1015682220459 137.77706909179688 6.9105119705200195" stroke-width="2.0" fill="none" stroke="rgb(0, 0, 0)" stroke-opacity="1" stroke-linecap="round" stroke-linejoin="round"/>
    <path d="M 129.0203857421875 200.1861572265625 C 135.35867309570312 207.9365692138672 136.46090698242188 193.29544067382812 128.85589599609375 198.91571044921875" stroke-width="2.0" fill="none" stroke="rgb(0, 0, 0)" stroke-opacity="1" stroke-linecap="round" stroke-linejoin="round"/>
    <path d="M 156.28623962402344 122.29950714111328 C 165.83221435546875 89.81321716308594 176.54214477539062 82.30750274658203 189.03509521484375 74.49329376220703 C 191.9508056640625 105.4972915649414 202.68875122070312 59.4211540222168 179.86219787597656 86.98047637939453 C 169.1015167236328 89.27558135986328 187.24180603027344 114.56962585449219 164.2546844482422 112.93890380859375" stroke-width="2.0" fill="none" stroke="rgb(0, 0, 0)" stroke-opacity="1" stroke-linecap="round" stroke-linejoin="round"/>
    <path d="M 39.76253128051758 135.0822296142578 C 29.73352813720703 112.94671630859375 36.698768615722656 155.0660400390625 42.379615783691406 139.90396118164062" stroke-width="2.0" fill="none" stroke="rgb(0, 0, 0)" stroke-opacity="1" stroke-linecap="round" stroke-linejoin="round"/>
    <path d="M 52.900604248046875 131.65460205078125 C 41.81696701049805 172.745849609375 64.18595886230469 126.53125762939453 45.57186508178711 111.53743743896484 C 56.190792083740234 135.2244110107422 83.25457000732422 127.48157501220703 67.24063873291016 138.4556427001953" stroke-width="2.0" fill="none" stroke="rgb(0, 0, 0)" stroke-opacity="1" stroke-linecap="round" stroke-linejoin="round"/>
    <path d="M 199.32530212402344 139.92953491210938 C 216.68211364746094 178.52146911621094 172.13607788085938 149.49029541015625 167.8914337158203 169.0176544189453 C 179.77606201171875 171.94171142578125 161.7058563232422 179.9512481689453 167.30596923828125 167.7550811767578" stroke-width="2.0" fill="none" stroke="rgb(0, 0, 0)" stroke-opacity="1" stroke-linecap="round" stroke-linejoin="round"/>
    <path d="M 8.555222511291504 80.32772064208984 C 24.8300724029541 103.0820541381836 72.01597595214844 118.70487213134766 27.786758422851562 121.87208557128906 C 11.241209030151367 55.34387969970703 -0.5363764762878418 89.7601089477539 30.987144470214844 58.6916389465332" stroke-width="2.0" fill="none" stroke="rgb(0, 0, 0)" stroke-opacity="1" stroke-linecap="round" stroke-linejoin="round"/>
    <path d="M 177.81500244140625 210.28172302246094 C 164.50399780273438 200.20663452148438 192.17416381835938 195.56982421875 189.95330810546875 187.28970336914062 C 181.75518798828125 190.47982788085938 192.93516540527344 219.96954345703125 186.6959228515625 240.8355255126953" stroke-width="2.0" fill="none" stroke="rgb(0, 0, 0)" stroke-opacity="1" stroke-linecap="round" stroke-linejoin="round"/>
    <path d="M 11.654098510742188 166.0615234375 C 43.1268424987793 158.0744171142578 0.1426478922367096 164.5457305908203 17.874820709228516 161.62171936035156 C 33.25653839111328 157.20742797851562 13.471797943115234 169.6747283935547 10.699370384216309 189.2735137939453 C -5.475414752960205 197.12734985351562 -2.4197733402252197 198.9872589111328 -6.587032318115234 216.58212280273438" stroke-width="2.0" fill="none" stroke="rgb(0, 0, 0)" stroke-opacity="1" stroke-linecap="round" stroke-linejoin="round"/>
    <path d="M 151.36734008789062 182.6739959716797 C 139.49659729003906 147.13340759277344 122.55231475830078 154.35183715820312 129.87086486816406 164.54501342773438 C 147.37388610839844 157.7218017578125 128.6925506591797 187.89028930664062 126.56892395019531 151.91819763183594 C 121.89433288574219 180.4525604248047 128.60186767578125 173.3061065673828 150.4022979736328 181.47607421875" stroke-width="2.0" fill="none" stroke="rgb(0, 0, 0)" stroke-opacity="1" stroke-linecap="round" stroke-linejoin="round"/>
    <path d="M 33.98359680175781 57.79643249511719 C 40.55917739868164 37.154762268066406 41.66933822631836 38.574928283691406 37.90122985839844 68.80526733398438 C 75.23703002929688 53.36498260498047 22.724651336669922 54.75694274902344 34.616050720214844 53.30293655395508 C 37.3143196105957 35.926788330078125 50.84701919555664 57.191490173339844 36.801448822021484 51.08759689331055" stroke-width="2.0" fill="none" stroke="rgb(0, 0, 0)" stroke-opacity="1" stroke-linecap="round" stroke-linejoin="round"/>
    <path d="M 119.43707275390625 165.77418518066406 C 103.29708862304688 170.11143493652344 111.99122619628906 148.98385620117188 112.30482482910156 184.1236114501953 C 133.63925170898438 164.76705932617188 135.24151611328125 199.43446350097656 141.10081481933594 185.76544189453125" stroke-width="2.0" fill="none" stroke="rgb(0, 0, 0)" stroke-opacity="1" stroke-linecap="round" stroke-linejoin="round"/>
    <path d="M 35.6085205078125 148.64215087890625 C 43.177146911621094 191.17152404785156 21.83812713623047 171.7381591796875 33.98198318481445 171.4512176513672" stroke-width="2.0" fill="none" stroke="rgb(0, 0, 0)" stroke-opacity="1" stroke-linecap="round" stroke-linejoin="round"/>
    <path d="M 130.7384033203125 19.25640869140625 C 129.64956665039062 25.072851181030273 111.69894409179688 -4.4259843826293945 151.54454040527344 36.51389694213867" stroke-width="2.0" fill="none" stroke="rgb(0, 0, 0)" stroke-opacity="1" stroke-linecap="round" stroke-linejoin="round"/>
    <path d="M 13.11821460723877 190.45843505859375 C 57.80586624145508 181.5378875732422 33.461029052734375 183.1238555908203 0.9620836973190308 186.78756713867188 C 31.265783309936523 183.5684051513672 40.90941619873047 189.0749053955078 42.73640441894531 173.5798797607422 C 19.59595489501953 148.18812561035156 18.372867584228516 188.89645385742188 39.5485954284668 179.1924285888672" stroke-width="2.0" fill="none" stroke="rgb(0, 0, 0)" stroke-opacity="1" stroke-linecap="round" stroke-linejoin="round"/>
    <path d="M 95.46763610839844 99.37816619873047 C 84.47750854492188 114.15167999267578 54.169334411621094 94.29641723632812 86.94528198242188 115.37186431884766 C 78.8028335571289 86.97319793701172 68.99862670898438 79.0773696899414 88.03508758544922 94.61588287353516" stroke-width="2.0" fill="none" stroke="rgb(0, 0, 0)" stroke-opacity="1" stroke-linecap="round" stroke-linejoin="round"/>
    <path d="M 6.634000778198242 229.96681213378906 C 0.8897668123245239 238.2983856201172 11.221611022949219 228.40602111816406 4.201309680938721 236.41000366210938 C 8.16960620880127 209.242431640625 12.752917289733887 221.90391540527344 -9.611173629760742 209.73179626464844" stroke-width="2.0" fill="none" stroke="rgb(0, 0, 0)" stroke-opacity="1" stroke-linecap="round" stroke-linejoin="round"/>
    <path d="M 114.72705078125 163.3538055419922 C 127.41290283203125 143.76351928710938 145.94686889648438 158.6691436767578 139.61312866210938 172.9438934326172 C 123.34166717529297 181.9257354736328 120.55419921875 144.3417205810547 131.96791076660156 159.3807373046875" stroke-width="2.0" fill="none" stroke="rgb(0, 0, 0)" stroke-opacity="1" stroke-linecap="round" stroke-linejoin="round"/>
    <path d="M 48.253257751464844 16.381643295288086 C 82.8109359741211 37.74320602416992 65.24278259277344 27.43797492980957 63.615211486816406 -1.5827722549438477 C 26.51772689819336 7.247629165649414 48.76373291015625 -8.95919418334961 40.23796463012695 16.70067024230957 C 46.542755126953125 -6.486972808837891 41.87477493286133 16.12804412841797 51.357730865478516 -3.369946241378784" stroke-width="2.0" fill="none" stroke="rgb(0, 0, 0)" stroke-opacity="1" stroke-linecap="round" stroke-linejoin="round"/>
    <path d="M 192.420166015625 19.80697250366211 C 191.4430389404297 18.618976593017578 189.4892578125 44.58230972290039 180.49588012695312 54.8845329284668 C 165.3709716796875 35.78384780883789 184.3659210205078 25.362668991088867 167.70394897460938 31.231660842895508" stroke-width="2.0" fill="none" stroke="rgb(0, 0, 0)" stroke-opacity="1" stroke-linecap="round" stroke-linejoin="round"/>
    <path d="M 138.5995635986328 182.1744384765625 C 170.1524200439453 177.1646728515625 129.1046905517578 211.49778747558594 129.74728393554688 175.98854064941406" stroke-width="2.0" fill="none" stroke="rgb(0, 0, 0)" stroke-opacity="1" stroke-linecap="round" stroke-linejoin="round"/>
    <path d="M 76.4317398071289 208.88121032714844 C 95.33698272705078 169.5019073486328 60.567901611328125 192.94435119628906 63.265804290771484 222.39169311523438 C 56.11565399169922 224.146484375 62.118690490722656 212.09951782226562 95.06612396240234 214.11302185058594 C 52.58788299560547 189.8097686767578 73.81104278564453 197.42030334472656 85.71288299560547 199.122314453125" stroke-width="2.0" fill="none" stroke="rgb(0, 0, 0)" stroke-opacity="1" stroke-linecap="round" stroke-linejoin="round"/>
    <path d="M 21.68245506286621 82.4281005859375 C 29.662410736083984 61.42637252807617 37.98014450073242 90.30258178710938 24.01567840576172 77.86396789550781 C 17.49095344543457 93.54906463623047 26.809783935546875 37.44982147216797 35.160377502441406 76.31730651855469" stroke-width="2.0" fill="none" stroke="rgb(0, 0, 0)" stroke-opacity="1" stroke-linecap="round" stroke-linejoin="round"/>
    <path d="M 14.850997924804688 36.23784255981445 C 15.986178398132324 6.64243745803833 15.23714828491211 28.022899627685547 -2.787285089492798 31.84377098083496 C -4.859310150146484 17.320354461669922 -11.869202613830566 23.115753173828125 -18.670909881591797 17.914958953857422" stroke-width="2.0" fill="none" stroke="rgb(0, 0, 0)" stroke-opacity="1" stroke-linecap="round" stroke-linejoin="round"/>
    <path d="M 213.62762451171875 236.2322235107422 C 202.27606201171875 224.9458770751953 214.51766967773438 207.44180297851562 234.63951110839844 209.20889282226562 C 213.14132690429688 202.96939086914062 216.6765594482422 197.8606414794922 219.92799377441406 221.85476684570312 C 223.1807861328125 228.80018615722656 227.11293029785156 231.54608154296875 222.37249755859375 235.29632568359375" stroke-width="2.0" fill="none" stroke="rgb(0, 0, 0)" stroke-opacity="1" stroke-linecap="round" stroke-linejoin="round"/>
    <path d="M 134.81369018554688 158.92172241210938 C 113.25904846191406 164.81826782226562 125.90508270263672 149.55352783203125 136.3474578857422 157.2781982421875 C 131.4220428466797 159.6664276123047 106.89440155029297 157.63711547851562 133.8466796875 149.0970916748047" stroke-width="2.0" fill="none" stroke="rgb(0, 0, 0)" stroke-opacity="1" stroke-linecap="round" stroke-linejoin="round"/>
    <path d="M 99.94384765625 179.2109832763672 C 87.49640655517578 189.345703125 65.78458404541016 197.64093017578125 82.62708282470703 192.5760955810547" stroke-width="2.0" fill="none" stroke="rgb(0, 0, 0)" stroke-opacity="1" stroke-linecap="round" stroke-linejoin="round"/>
    <path d="M 90.41287231445312 174.25735473632812 C 96.40882873535156 210.32168579101562 96.11580657958984 205.31607055664062 93.22247314453125 188.30091857910156 C 100.12104034423828 229.9501190185547 104.70063018798828 231.97740173339844 101.77180480957031 232.44737243652344 C 102.57655334472656 231.126953125 115.33965301513672 231.8484344482422 108.18695831298828 233.40155029296875" stroke-width="2.0" fill="none" stroke="rgb(0, 0, 0)" stroke-opacity="1" stroke-linecap="round" stroke-linejoin="round"/>
    <path d="M 71.08927154541016 8.570684432983398 C 63.32222366333008 -4.298987865447998 61.183311462402344 -21.28009605407715 54.570526123046875 -23.52475929260254" stroke-width="2.0" fill="none" stroke="rgb(0, 0, 0)" stroke-opacity="1" stroke-linecap="round" stroke-linejoin="round"/>
    <path d="M -10.56540584564209 -0.4184189438819885 C -1.2060364484786987 0.5431140661239624 3.7595603466033936 -11.869675636291504 7.351256370544434 0.5723943114280701 C 21.239194869995117 15.145139694213867 -7.2670722007751465 12.185992240905762 2.757432460784912 -14.352821350097656 C 30.262495040893555 -1.7013505697250366 33.32598876953125 -0.4285954535007477 38.15351486206055 -2.016324043273926" stroke-width="2.0" fill="none" stroke="rgb(0, 0, 0)" stroke-opacity="1" stroke-linecap="round" stroke-linejoin="round"/>
    <path d="M 204.67666625976562 126.48199462890625 C 196.2069549560547 156.93780517578125 226.9529266357422 146.2397003173828 213.9454803466797 143.49429321289062" stroke-width="2.0" fill="none" stroke="rgb(0, 0, 0)" stroke-opacity="1" stroke-linecap="round" stroke-linejoin="round"/>
    <path d="M 56.47188186645508 -7.56949520111084 C 77.07903289794922 8.184560775756836 81.04022216796875 -20.4564208984375 78.94102478027344 -24.37685775756836 C 55.13840866088867 -4.115353107452393 56.61667251586914 -12.970473289489746 70.17249298095703 -4.593420028686523 C 67.63853454589844 -10.186068534851074 59.982444763183594 -10.112488746643066 59.13958740234375 -18.825313568115234" stroke-width="2.0" fill="none" stroke="rgb(0, 0, 0)" stroke-opacity="1" stroke-linecap="round" stroke-linejoin="round"/>
    <path d="M 37.19558334350586 103.61495971679688 C 75.62972259521484 139.7119140625 68.81303405761719 124.47769927978516 76.74827575683594 92.18083953857422 C 32.58260726928711 109.02559661865234 28.394865036010742 102.15576171875 66.1203842163086 98.44400024414062" stroke-width="2.0" fill="none" stroke="rgb(0, 0, 0)" stroke-opacity="1" stroke-linecap="round" stroke-linejoin="round"/>
    <path d="M 71.67413330078125 135.3802490234375 C 82.14747619628906 132.4971923828125 78.5009994506836 104.28749084472656 56.349788665771484 95.51305389404297" stroke-width="2.0" fill="none" stroke="rgb(0, 0, 0)" stroke-opacity="1" stroke-linecap="round" stroke-linejoin="round"/>
    <path d="M 94.53253936767578 138.7388916015625 C 87.03999328613281 128.0028076171875 107.74638366699219 122.32649993896484 98.38936614990234 119.01445007324219 C 86.16730499267578 157.34681701660156 103.27859497070312 149.76881408691406 98.58413696289062 140.87451171875 C 73.20271301269531 130.52757263183594 97.50049591064453 148.56134033203125 91.24105072021484 184.13681030273438" stroke-width="2.0" fill="none" stroke="rgb(0, 0, 0)" stroke-opacity="1" stroke-linecap="round" stroke-linejoin="round"/>
    <path d="M 216.66941833496094 185.4348602294922 C 230.30091857910156 182.78225708007812 194.26104736328125 167.1376495361328 184.24964904785156 196.44839477539062 C 208.06822204589844 178.36614990234375 194.79629516601562 219.5275115966797 189.47132873535156 193.71353149414062 C 218.3943328857422 168.90292358398438 196.77381896972656 173.26791381835938 220.3997344970703 191.80738830566406" stroke-width="2.0" fill="none" stroke="rgb(0, 0, 0)" stroke-opacity="1" stroke-linecap="round" stroke-linejoin="round"/>
    <path d="M 94.68168640136719 14.759490013122559 C 51.284305572509766 29.607288360595703 74.32138061523438 85.11377716064453 74.62635803222656 49.835357666015625 C 39.631656646728516 28.790218353271484 42.370487213134766 -10.972639083862305 51.13723373413086 10.011734962463379" stroke-width="2.0" fill="none" stroke="rgb(0, 0, 0)" stroke-opacity="1" stroke-linecap="round" stroke-linejoin="round"/>
    <path d="M 173.2557373046875 107.05191040039062 C 168.55332946777344 137.6964569091797 164.19956970214844 130.98170471191406 189.6231689453125 137.55079650878906 C 160.91184997558594 163.81246948242188 198.1000518798828 148.8103485107422 168.34852600097656 130.0445098876953 C 176.72711181640625 162.08851623535156 192.7952423095703 165.79563903808594 150.0184783935547 148.43951416015625" stroke-width="2.0" fill="none" stroke="rgb(0, 0, 0)" stroke-opacity="1" stroke-linecap="round" stroke-linejoin="round"/>
    <path d="M 77.31965637207031 146.27410888671875 C 82.58026123046875 162.18484497070312 75.10969543457031 141.60748291015625 100.74346160888672 124.07080841064453 C 121.83428192138672 128.50477600097656 100.90848541259766 110.71073913574219 107.556884765625 128.98130798339844 C 117.26592254638672 134.4955291748047 102.55924224853516 148.52706909179688 93.72125244140625 120.10594177246094" stroke-width="2.0" fill="none" stroke="rgb(0, 0, 0)" stroke-opacity="1" stroke-linecap="round" stroke-linejoin="round"/>
    <path d="M 22.096176147460938 69.95507049560547 C 20.50149154663086 96.06114959716797 43.4217529296875 102.71240234375 33.18165969848633 54.10478210449219" stroke-width="2.0" fill="none" stroke="rgb(0, 0, 0)" stroke-opacity="1" stroke-linecap="round" stroke-linejoin="round"/>
    <path d="M 138.28152465820312 37.05449295043945 C 139.33644104003906 28.21901512145996 162.30616760253906 32.14778518676758 150.9200439453125 41.01814651489258 C 143.6781005859375 33.37116241455078 156.95852661132812 30.68682861328125 156.47039794921875 19.87852668762207 C 180.07350158691406 -4.061670780181885 182.68292236328125 -8.892261505126953 188.51084899902344 -9.302935600280762" stroke-width="2.0" fill="none" stroke="rgb(0, 0, 0)" stroke-opacity="1" stroke-linecap="round" stroke-linejoin="round"/>
    <path d="M 193.4568328857422 -1.7927391529083252 C 191.9467010498047 2.563784122467041 221.18556213378906 29.406593322753906 249.08462524414062 18.818937301635742 C 238.9803009033203 0.7617671489715576 221.88124084472656 11.252647399902344 208.17359924316406 12.459399223327637 C 227.20419311523438 32.837032318115234 245.04696655273438 27.69614028930664 212.656005859375 27.635507583618164" stroke-width="2.0" fill="none" stroke="rgb(0, 0, 0)" stroke-opacity="1" stroke-linecap="round" stroke-linejoin="round"/>
    <path d="M 38.54673385620117 6.840641498565674 C 22.121990203857422 9.139548301696777 23.02840805053711 -7.11461877822876 36.55983352661133 -13.643045425415039 C 42.76112365722656 -6.988265037536621 23.714221954345703 -3.4179847240448 36.6702995300293 -6.155210494995117 C 36.8638916015625 -6.769847869873047 27.015371322631836 10.856688499450684 13.711193084716797 17.250431060791016" stroke-width="2.0" fill="none" stroke="rgb(0, 0, 0)" stroke-opacity="1" stroke-linecap="round" stroke-linejoin="round"/>
    <path d="M 79.67655944824219 165.62767028808594 C 89.16341400146484 106.24449157714844 106.83460235595703 86.16304016113281 90.80474090576172 94.52444458007812" stroke-width="2.0" fill="none" stroke="rgb(0, 0, 0)" stroke-opacity="1" stroke-linecap="round" stroke-linejoin="round"/>
    <path d="M 113.10588073730469 105.57981872558594 C 104.0413818359375 97.87246704101562 108.9711685180664 117.1388931274414 117.8786849975586 107.590087890625 C 104.00106048583984 112.03965759277344 130.7346649169922 119.0006332397461 109.54615020751953 88.4573974609375" stroke-width="2.0" fill="none" stroke="rgb(0, 0, 0)" stroke-opacity="1" stroke-linecap="round" stroke-linejoin="round"/>
    <path d="M -7.363582611083984 55.64818572998047 C 5.378053665161133 31.278671264648438 28.941123962402344 47.38622283935547 22.435583114624023 51.4375 C 14.16447639465332 39.08734893798828 0.9011529088020325 55.04721450805664 21.73577308654785 52.48664474487305" stroke-width="2.0" fill="none" stroke="rgb(0, 0, 0)" stroke-opacity="1" stroke-linecap="round" stroke-linejoin="round"/>
    <path d="M 21.970746994018555 74.00775909423828 C 9.010089874267578 64.02837371826172 40.443138122558594 73.89542388916016 23.62189292907715 60.942569732666016 C 10.144848823547363 78.22480010986328 10.031392097473145 67.03338623046875 23.621957778930664 60.3088264465332" stroke-width="2.0" fill="none" stroke="rgb(0, 0, 0)" stroke-opacity="1" stroke-linecap="round" stroke-linejoin="round"/>
    <path d="M 58.76310729980469 70.39081573486328 C 62.88129425048828 53.941795349121094 53.5339469909668 86.34249114990234 34.05539321899414 86.75353240966797" stroke-width="2.0" fill="none" stroke="rgb(0, 0, 0)" stroke-opacity="1" stroke-linecap="round" stroke-linejoin="round"/>
    <path d="M 104.6944580078125 39.316776275634766 C 99.64806365966797 58.44844055175781 131.27072143554688 45.955997467041016 107.71283721923828 45.863433837890625 C 113.89210510253906 57.01353073120117 94.13802337646484 59.04764938354492 111.76644897460938 61.684207916259766 C 136.57394409179688 77.06255340576172 116.83573913574219 67.08717346191406 100.5560531616211 43.53776931762695" stroke-width="2.0" fill="none" stroke="rgb(0, 0, 0)" stroke-opacity="1" stroke-linecap="round" stroke-linejoin="round"/>
    <path d="M 142.4694366455078 43.98991012573242 C 126.64280700683594 25.07707977294922 155.14407348632812 54.79744338989258 151.4646453857422 35.537540435791016" stroke-width="2.0" fill="none" stroke="rgb(0, 0, 0)" stroke-opacity="1" stroke-linecap="round" stroke-linejoin="round"/>
    <path d="M 74.8157958984375 103.96912384033203 C 38.14768600463867 94.51618957519531 54.617774963378906 130.9633026123047 71.39875793457031 107.36727905273438 C 45.79967498779297 118.9687271118164 62.18693542480469 98.79019165039062 60.836875915527344 110.60680389404297" stroke-width="2.0" fill="none" stroke="rgb(0, 0, 0)" stroke-opacity="1" stroke-linecap="round" stroke-linejoin="round"/>
    <path d="M 202.1597137451172 176.3492889404297 C 173.25946044921875 194.617431640625 153.24615478515625 166.0567169189453 203.6228790283203 174.3248748779297 C 194.77903747558594 162.19969177246094 173.11343383789062 152.0553741455078 172.86473083496094 167.2998046875" stroke-width="2.0" fill="none" stroke="rgb(0, 0, 0)" stroke-opacity="1" stroke-linecap="round" stroke-linejoin="round"/>
    <path d="M 190.5579376220703 13.246716499328613 C 172.72509765625 17.043201446533203 192.36184692382812 25.440387725830078 185.18406677246094 15.243124008178711 C 199.16610717773438 14.280126571655273 214.5279998779297 16.53233528137207 197.78077697753906 24.332181930541992 C 178.9360809326172 4.800411701202393 191.49403381347656 13.451658248901367 199.7169647216797 16.5491943359375" stroke-width="2.0" fill="none" stroke="rgb(0, 0, 0)" stroke-opacity="1" stroke-linecap="round" stroke-linejoin="round"/>
    <path d="M 14.839400291442871 17.001523971557617 C 37.829307556152344 0.33327704668045044 19.43912124633789 36.757755279541016 5.587513446807861 24.328710556030273 C 34.843544006347656 3.0038304328918457 17.975828170776367 9.442872047424316 32.29121017456055 21.115991592407227" stroke-width="2.0" fill="none" stroke="rgb(0, 0, 0)" stroke-opacity="1" stroke-linecap="round" stroke-linejoin="round"/>
    <path d="M 124.14454650878906 155.24183654785156 C 87.39143371582031 135.7937774658203 106.28791046142578 147.7102813720703 133.00311279296875 105.94210052490234 C 117.1532211303711 124.10686492919922 99.58744812011719 111.86994171142578 113.96723937988281 95.86469268798828" stroke-width="2.0" fill="none" stroke="rgb(0, 0, 0)" stroke-opacity="1" stroke-linecap="round" stroke-linejoin="round"/>
    <path d="M 27.988216400146484 159.68096923828125 C 38.27589797973633 164.0160675048828 50.83501434326172 171.8249053955078 53.29897689819336 190.7647247314453 C 45.56618881225586 168.53086853027344 50.539634704589844 168.4076690673828 39.060794830322266 183.03866577148438" stroke-width="2.0" fill="none" stroke="rgb(0, 0, 0)" stroke-opacity="1" stroke-linecap="round" stroke-linejoin="round"/>
    <path d="M 30.110849380493164 192.09231567382812 C 31.251710891723633 185.22946166992188 26.3735294342041 200.84388732910156 26.93474769592285 191.2491455078125" stroke-width="2.0" fill="none" stroke="rgb(0, 0, 0)" stroke-opacity="1" stroke-linecap="round" stroke-linejoin="round"/>
    <path d="M 110.5923080444336 163.1490936279297 C 130.3462677001953 145.4578094482422 109.81074523925781 178.65599060058594 120.20865631103516 165.02609252929688 C 123.01902770996094 174.51629638671875 118.0020523071289 165.80560302734375 128.41761779785156 122.8442611694336" stroke-width="2.0" fill="none" stroke="rgb(0, 0, 0)" stroke-opacity="1" stroke-linecap="round" stroke-linejoin="round"/>
    <path d="M 193.63043212890625 61.65433883666992 C 209.22708129882812 67.67761993408203 175.63803100585938 60.19984817504883 187.94772338867188 60.37166976928711 C 192.2272186279297 36.55402374267578 176.15396118164062 61.84109115600586 198.94790649414062 80.60565948486328 C 171.80441284179688 68.5880126953125 191.74725341796875 37.93113327026367 185.43588256835938 61.74304962158203" stroke-width="2.0" fill="none" stroke="rgb(0, 0, 0)" stroke-opacity="1" stroke-linecap="round" stroke-linejoin="round"/>
    <path d="M 99.75296020507812 66.15744018554688 C 56.833499908447266 54.923152923583984 46.52507019042969 60.94798278808594 101.30300903320312 40.0192756652832" stroke-width="2.0" fill="none" stroke="rgb(0, 0, 0)" stroke-opacity="1" stroke-linecap="round" stroke-linejoin="round"/>
    <path d="M 9.091730117797852 78.37664794921875 C 53.99920654296875 59.368953704833984 25.28331184387207 70.86271667480469 50.96895217895508 72.48307800292969 C 41.9862060546875 56.4878044128418 43.23920822143555 85.74229431152344 44.946075439453125 64.06615447998047" stroke-width="2.0" fill="none" stroke="rgb(0, 0, 0)" stroke-opacity="1" stroke-linecap="round" stroke-linejoin="round"/>
    <path d="M 83.90554809570312 230.51893615722656 C 65.41728973388672 238.1768798828125 64.97156524658203 232.842041015625 68.90900421142578 229.72940063476562 C 65.18521118164062 232.67982482910156 53.433990478515625 208.4456024169922 38.414398193359375 209.74005126953125" stroke-width="2.0" fill="none" stroke="rgb(0, 0, 0)" stroke-opacity="1" stroke-linecap="round" stroke-linejoin="round"/>
    <path d="M 90.65118408203125 147.38241577148438 C 112.33372497558594 174.47158813476562 111.05203247070312 121.03987121582031 84.29051971435547 141.35989379882812 C 102.78640747070312 176.74945068359375 110.99411010742188 181.34750366210938 78.93217468261719 164.99778747558594 C 105.53766632080078 179.48390197753906 79.65026092529297 159.9793243408203 54.72870635986328 162.0282745361328" stroke-width="2.0" fill="none" stroke="rgb(0, 0, 0)" stroke-opacity="1" stroke-linecap="round" stroke-linejoin="round"/>
    <path d="M 97.92778778076172 168.5755157470703 C 91.21477508544922 173.4961395263672 85.09494018554688 186.32257080078125 121.16915130615234 169.6780548095703" stroke-width="2.0" fill="none" stroke="rgb(0, 0, 0)" stroke-opacity="1" stroke-linecap="round" stroke-linejoin="round"/>
    <path d="M 48.35022735595703 64.95500183105469 C 58.30967330932617 50.06097412109375 66.19678497314453 71.63623046875 64.92398834228516 93.22181701660156" stroke-width="2.0" fill="none" stroke="rgb(0, 0, 0)" stroke-opacity="1" stroke-linecap="round" stroke-linejoin="round"/>
    <path d="M 35.99090576171875 215.87765502929688 C 53.37770462036133 214.74429321289062 33.556640625 236.40785217285156 39.228614807128906 243.33175659179688 C 52.125545501708984 251.13775634765625 58.245887756347656 249.19070434570312 76.04312133789062 214.689208984375 C 49.73219299316406 191.20811462402344 29.162092208862305 199.28065490722656 69.02689361572266 214.9618682861328" stroke-width="2.0" fill="none" stroke="rgb(0, 0, 0)" stroke-opacity="1" stroke-linecap="round" stroke-linejoin="round"/>
    <path d="M 167.1814422607422 173.284423828125 C 164.7920684814453 162.8697052001953 184.55712890625 157.035888671875 176.05332946777344 176.67637634277344 C 165.78993225097656 181.1415252685547 148.75335693359375 173.15841674804688 178.94566345214844 160.44119262695312" stroke-width="2.0" fill="none" stroke="rgb(0, 0, 0)" stroke-opacity="1" stroke-linecap="round" stroke-linejoin="round"/>
    <path d="M 70.740478515625 102.7357177734375 C 110.96663665771484 94.7770004272461 113.16346740722656 85.50286865234375 52.238399505615234 84.26882934570312 C 56.96806335449219 94.4025650024414 42.04462814331055 107.54964447021484 96.08267211914062 97.54956817626953" stroke-width="2.0" fill="none" stroke="rgb(0, 0, 0)" stroke-opacity="1" stroke-linecap="round" stroke-linejoin="round"/>
    <path d="M 172.3543243408203 206.9262237548828 C 181.0352783203125 218.3267364501953 215.40036010742188 222.1944580078125 205.4246063232422 233.13427734375" stroke-width="2.0" fill="none" stroke="rgb(0, 0, 0)" stroke-opacity="1" stroke-linecap="round" stroke-linejoin="round"/>
    <path d="M 18.040393829345703 129.34417724609375 C -8.157880783081055 171.0628204345703 3.019982099533081 168.9134521484375 13.140573501586914 143.3805694580078 C 25.4675350189209 159.30813598632812 -3.3224432468414307 156.21365356445312 22.541519165039062 130.69480895996094" stroke-width="2.0" fill="none" stroke="rgb(0, 0, 0)" stroke-opacity="1" stroke-linecap="round" stroke-linejoin="round"/>
    <path d="M 21.836441040039062 12.644840240478516 C 30.99905776977539 -21.769893646240234 26.246021270751953 3.582404613494873 22.244171142578125 36.811832427978516 C 25.446475982666016 11.487756729125977 28.185304641723633 25.662738800048828 -7.403051376342773 19.05443572998047" stroke-width="2.0" fill="none" stroke="rgb(0, 0, 0)" stroke-opacity="1" stroke-linecap="round" stroke-linejoin="round"/>
    <path d="M 44.61622619628906 175.99493408203125 C 58.3708610534668 148.9976348876953 46.67154312133789 181.17332458496094 42.329891204833984 158.747802734375" stroke-width="2.0" fill="none" stroke="rgb(0, 0, 0)" stroke-opacity="1" stroke-linecap="round" stroke-linejoin="round"/>
    <path d="M 53.10721969604492 46.2826042175293 C 56.465675354003906 38.175750732421875 63.41104507446289 53.589866638183594 49.558441162109375 49.53489685058594 C 39.05412673950195 38.72829818725586 60.8793830871582 35.25996017456055 83.65142822265625 51.61682891845703" stroke-width="2.0" fill="none" stroke="rgb(0, 0, 0)" stroke-opacity="1" stroke-linecap="round" stroke-linejoin="round"/>
    <path d="M 37.572715759277344 108.55034637451172 C 64.04943084716797 126.38601684570312 32.67807388305664 147.14288330078125 38.07310104370117 103.00177764892578 C 28.7648983001709 131.04408264160156 31.85704803466797 163.33287048339844 45.14800262451172 173.74685668945312 C 38.52012634277344 181.9333038330078 50.48896408081055 166.74349975585938 5.839827537536621 153.12062072753906" stroke-width="2.0" fill="none" stroke="rgb(0, 0, 0)" stroke-opacity="1" stroke-linecap="round" stroke-linejoin="round"/>
    <path d="M 27.74102783203125 186.85064697265625 C -3.6563191413879395 197.97564697265625 -16.304645538330078 204.4456024169922 -13.022178649902344 208.09796142578125 C -15.049485206604004 196.27989196777344 -24.63197898864746 203.61154174804688 -22.9665584564209 211.26760864257812 C -14.30206298828125 215.2946319580078 -21.105667114257812 212.79705810546875 -21.785690307617188 207.305419921875" stroke-width="2.0" fill="none" stroke="rgb(0, 0, 0)" stroke-opacity="1" stroke-linecap="round" stroke-linejoin="round"/>
    <path d="M 221.05581665039062 108.66764068603516 C 218.62095642089844 124.64495086669922 218.4392852783203 93.45716857910156 198.72161865234375 78.09024047851562 C 192.8750762939453 102.3846435546875 196.24951171875 79.42475891113281 152.10752868652344 77.93733215332031" stroke-width="2.0" fill="none" stroke="rgb(0, 0, 0)" stroke-opacity="1" stroke-linecap="round" stroke-linejoin="round"/>
    <path d="M 219.15757751464844 135.91758728027344 C 207.57289123535156 117.85520935058594 189.22203063964844 128.1781768798828 208.90243530273438 126.69865417480469 C 221.06735229492188 128.33534240722656 200.3756103515625 138.0261993408203 192.16098022460938 150.96939086914062 C 201.43019104003906 130.9829864501953 189.82867431640625 141.01910400390625 190.20791625976562 162.67987060546875" stroke-width="2.0" fill="none" stroke="rgb(0, 0, 0)" stroke-opacity="1" stroke-linecap="round" stroke-linejoin="round"/>
    <path d="M 59.49052810668945 202.110107421875 C 35.15003204345703 162.4198760986328 59.731239318847656 157.25274658203125 79.73607635498047 160.56887817382812" stroke-width="2.0" fill="none" stroke="rgb(0, 0, 0)" stroke-opacity="1" stroke-linecap="round" stroke-linejoin="round"/>
    <path d="M 39.895530700683594 42.59040451049805 C 75.75472259521484 28.990867614746094 35.71197509765625 27.715051651000977 36.2258186340332 61.017486572265625 C 24.097122192382812 31.998823165893555 20.714536666870117 19.69771957397461 18.779434204101562 33.655914306640625" stroke-width="2.0" fill="none" stroke="rgb(0, 0, 0)" stroke-opacity="1" stroke-linecap="round" stroke-linejoin="round"/>
    <path d="M 43.63365936279297 195.12313842773438 C 86.6917953491211 195.31723022460938 96.64275360107422 184.07553100585938 85.3651123046875 186.60316467285156 C 73.27876281738281 192.8676300048828 78.04164123535156 213.866455078125 69.57469940185547 206.52806091308594" stroke-width="2.0" fill="none" stroke="rgb(0, 0, 0)" stroke-opacity="1" stroke-linecap="round" stroke-linejoin="round"/>
    <path d="M 99.27714538574219 179.52468872070312 C 49.26181411743164 197.0234832763672 47.52587890625 165.6663818359375 55.76974105834961 176.7799072265625 C 97.64413452148438 184.70791625976562 57.54589080810547 155.30174255371094 65.85964965820312 176.96290588378906" stroke-width="2.0" fill="none" stroke="rgb(0, 0, 0)" stroke-opacity="1" stroke-linecap="round" stroke-linejoin="round"/>
    <path d="M 93.39289093017578 129.66513061523438 C 97.78260803222656 141.14573669433594 96.72166442871094 132.36973571777344 105.25594329833984 140.14454650878906 C 165.9261932373047 122.8622817993164 119.48881530761719 138.46011352539062 137.2824249267578 140.01901245117188" stroke-width="2.0" fill="none" stroke="rgb(0, 0, 0)" stroke-opacity="1" stroke-linecap="round" stroke-linejoin="round"/>
    <path d="M 226.48309326171875 186.01535034179688 C 191.0720672607422 167.63491821289062 214.66078186035156 186.3452911376953 212.65151977539062 200.43836975097656 C 200.96742248535156 201.0929412841797 199.98724365234375 198.78176879882812 205.48922729492188 175.48565673828125 C 176.55418395996094 201.94805908203125 181.03680419921875 190.97804260253906 209.01168823242188 197.23260498046875" stroke-width="2.0" fill="none" stroke="rgb(0, 0, 0)" stroke-opacity="1" stroke-linecap="round" stroke-linejoin="round"/>
    <path d="M 123.54754638671875 181.8453826904297 C 113.4622573852539 189.0453643798828 109.18821716308594 174.79063415527344 120.33322143554688 165.75851440429688 C 97.34659576416016 188.6622314453125 136.23817443847656 199.36358642578125 126.21513366699219 167.24505615234375" stroke-width="2.0" fill="none" stroke="rgb(0, 0, 0)" stroke-opacity="1" stroke-linecap="round" stroke-linejoin="round"/>
    <path d="M 65.68856048583984 81.50413513183594 C 53.165550231933594 56.20041275024414 69.38059997558594 63.917747497558594 48.418643951416016 82.63700103759766 C 75.6240005493164 86.14138793945312 81.18350982666016 96.75679016113281 54.1677131652832 84.757080078125" stroke-width="2.0" fill="none" stroke="rgb(0, 0, 0)" stroke-opacity="1" stroke-linecap="round" stroke-linejoin="round"/>
    <path d="M 190.1799774169922 102.81517028808594 C 214.96966552734375 134.45924377441406 220.42706298828125 108.8004379272461 198.71847534179688 115.69586944580078 C 186.81820678710938 89.32550811767578 207.39114379882812 153.22427368164062 198.04071044921875 119.71754455566406" stroke-width="2.0" fill="none" stroke="rgb(0, 0, 0)" stroke-opacity="1" stroke-linecap="round" stroke-linejoin="round"/>
    <path d="M 24.990598678588867 201.89553833007812 C 40.87163162231445 201.16720581054688 26.800945281982422 193.19403076171875 18.049074172973633 237.28257751464844" stroke-width="2.0" fill="none" stroke="rgb(0, 0, 0)" stroke-opacity="1" stroke-linecap="round" stroke-linejoin="round"/>
    <path d="M 248.62350463867188 95.29019165039062 C 223.43222045898438 85.76502227783203 201.81051635742188 83.17408752441406 189.21536254882812 67.41858673095703" stroke-width="2.0" fill="none" stroke="rgb(0, 0, 0)" stroke-opacity="1" stroke-linecap="round" stroke-linejoin="round"/>
    <path d="M 49.96756362915039 163.22686767578125 C 28.2229061126709 138.51332092285156 18.382238388061523 127.64512634277344 -3.954113721847534 116.40509033203125" stroke-width="2.0" fill="none" stroke="rgb(0, 0, 0)" stroke-opacity="1" stroke-linecap="round" stroke-linejoin="round"/>
    <path d="M 199.5842742919922 97.240478515625 C 185.85154724121094 102.51293182373047 202.05831909179688 79.88754272460938 207.7193145751953 100.010498046875 C 187.59271240234375 113.70365905761719 186.1252899169922 77.22523498535156 176.415771484375 94.63129425048828" stroke-width="2.0" fill="none" stroke="rgb(0, 0, 0)" stroke-opacity="1" stroke-linecap="round" stroke-linejoin="round"/>
    <path d="M 55.09573745727539 11.10662841796875 C 61.44343948364258 1.7693570852279663 22.836206436157227 -1.4791065454483032 27.171146392822266 -14.876479148864746" stroke-width="2.0" fill="none" stroke="rgb(0, 0, 0)" stroke-opacity="1" stroke-linecap="round" stroke-linejoin="round"/>
    <path d="M 90.73321533203125 183.07716369628906 C 56.15708923339844 201.98849487304688 61.73562240600586 200.21998596191406 93.75962829589844 227.55120849609375" stroke-width="2.0" fill="none" stroke="rgb(0, 0, 0)" stroke-opacity="1" stroke-linecap="round" stroke-linejoin="round"/>
    <path d="M 129.87290954589844 81.62359619140625 C 101.07886505126953 80.7347412109375 129.6127471923828 88.80449676513672 106.0301513671875 99.24810791015625" stroke-width="2.0" fill="none" stroke="rgb(0, 0, 0)" stroke-opacity="1" stroke-linecap="round" stroke-linejoin="round"/>
    <path d="M 101.13392639160156 15.717885971069336 C 121.4486083984375 21.29161834716797 80.52227020263672 32.479251861572266 105.01749420166016 -2.481110095977783" stroke-width="2.0" fill="none" stroke="rgb(0, 0, 0)" stroke-opacity="1" stroke-linecap="round" stroke-linejoin="round"/>
    <path d="M 59.95824432373047 155.79415893554688 C 69.87342071533203 171.76153564453125 69.60758209228516 148.26931762695312 59.59356689453125 150.30125427246094 C 85.84342193603516 142.97915649414062 95.73797607421875 145.38812255859375 57.078636169433594 129.94020080566406" stroke-width="2.0" fill="none" stroke="rgb(0, 0, 0)" stroke-opacity="1" stroke-linecap="round" stroke-linejoin="round"/>
    <path d="M 149.25552368164062 24.49964714050293 C 130.9774932861328 22.42027473449707 138.7506103515625 41.69667053222656 125.03990936279297 22.027990341186523 C 138.76336669921875 17.76235580444336 121.6980972290039 39.83664321899414 156.19285583496094 63.90712356567383" stroke-width="2.0" fill="none" stroke="rgb(0, 0, 0)" stroke-opacity="1" stroke-linecap="round" stroke-linejoin="round"/>
    <path d="M 168.75811767578125 96.37084197998047 C 166.0394287109375 110.48121643066406 169.9364776611328 109.48616027832031 180.34796142578125 122.42681884765625 C 171.3134002685547 113.92521667480469 159.76968383789062 84.34022521972656 180.29869079589844 97.59043884277344 C 179.07557678222656 77.32296752929688 173.021240234375 62.4127311706543 195.8400115966797 116.60240173339844" stroke-width="2.0" fill="none" stroke="rgb(0, 0, 0)" stroke-opacity="1" stroke-linecap="round" stroke-linejoin="round"/>
    <path d="M 183.88360595703125 115.08670806884766 C 195.07766723632812 108.09672546386719 167.8631591796875 99.68370819091797 178.4659423828125 119.75188446044922" stroke-width="2.0" fill="none" stroke="rgb(0, 0, 0)" stroke-opacity="1" stroke-linecap="round" stroke-linejoin="round"/>
    <path d="M 176.1389617919922 179.552490234375 C 172.40353393554688 140.56796264648438 187.603515625 162.4825439453125 208.59840393066406 176.82293701171875" stroke-width="2.0" fill="none" stroke="rgb(0, 0, 0)" stroke-opacity="1" stroke-linecap="round" stroke-linejoin="round"/>
    <path d="M 115.85702514648438 180.37387084960938 C 118.8946533203125 171.8657989501953 127.33404541015625 172.31895446777344 113.91386413574219 169.3423309326172" stroke-width="2.0" fill="none" stroke="rgb(0, 0, 0)" stroke-opacity="1" stroke-linecap="round" stroke-linejoin="round"/>
    <path d="M 167.94395446777344 212.98973083496094 C 152.5641326904297 223.78131103515625 164.92422485351562 241.27200317382812 149.9758758544922 207.1162109375" stroke-width="2.0" fill="none" stroke="rgb(0, 0, 0)" stroke-opacity="1" stroke-linecap="round" stroke-linejoin="round"/>
    <path d="M 108.21885681152344 93.6322250366211 C 141.01318359375 117.0367431640625 129.07843017578125 72.11402893066406 109.0084228515625 86.95439910888672 C 101.67278289794922 98.21988677978516 132.9229736328125 106.99304962158203 159.740234375 113.50027465820312 C 148.31446838378906 115.75192260742188 125.41580200195312 109.83943176269531 135.8319091796875 121.01683807373047" stroke-width="2.0" fill="none" stroke="rgb(0, 0, 0)" stroke-opacity="1" stroke-linecap="round" stroke-linejoin="round"/>
    <path d="M 158.9618377685547 21.9883975982666 C 169.3944854736328 30.143421173095703 203.91586303710938 31.77046012878418 178.9048614501953 41.45084762573242" stroke-width="2.0" fill="none" stroke="rgb(0, 0, 0)" stroke-opacity="1" stroke-linecap="round" stroke-linejoin="round"/>
    <path d="M 53.24219512939453 68.83190155029297 C 49.58180618286133 56.53722381591797 36.03371047973633 32.308921813964844 42.16023254394531 43.25245666503906 C 42.41461181640625 31.20302391052246 46.01713180541992 53.51427459716797 44.3255729675293 66.79462432861328 C 30.05934715270996 51.704071044921875 44.56324768066406 72.98147583007812 44.096160888671875 42.4338493347168" stroke-width="2.0" fill="none" stroke="rgb(0, 0, 0)" stroke-opacity="1" stroke-linecap="round" stroke-linejoin="round"/>
    <path d="M 170.2964630126953 50.999855041503906 C 156.2746124267578 51.75938034057617 167.98919677734375 28.388586044311523 144.7306365966797 -7.848761081695557" stroke-width="2.0" fill="none" stroke="rgb(0, 0, 0)" stroke-opacity="1" stroke-linecap="round" stroke-linejoin="round"/>
    <path d="M 123.21590423583984 196.5785369873047 C 95.27069854736328 206.558349609375 96.75565338134766 210.43089294433594 94.64655303955078 194.10235595703125 C 120.3038330078125 193.26559448242188 96.92573547363281 194.3749237060547 119.26083374023438 223.87693786621094 C 142.5904541015625 187.9402313232422 97.27449035644531 200.0215301513672 115.55987548828125 207.33624267578125" stroke-width="2.0" fill="none" stroke="rgb(0, 0, 0)" stroke-opacity="1" stroke-linecap="round" stroke-linejoin="round"/>
    <path d="M 184.5836944580078 196.7443084716797 C 182.8292999267578 209.67550659179688 217.01885986328125 207.301025390625 199.76832580566406 213.13949584960938" stroke-width="2.0" fill="none" stroke="rgb(0, 0, 0)" stroke-opacity="1" stroke-linecap="round" stroke-linejoin="round"/>
    <path d="M 36.00864028930664 193.81332397460938 C 50.836063385009766 159.0763397216797 52.38395309448242 184.4828643798828 15.445662498474121 187.93359375" stroke-width="2.0" fill="none" stroke="rgb(0, 0, 0)" stroke-opacity="1" stroke-linecap="round" stroke-linejoin="round"/>
    <path d="M 170.96034240722656 184.08192443847656 C 179.68963623046875 199.13320922851562 153.03651428222656 187.8519287109375 159.4545135498047 178.42889404296875" stroke-width="2.0" fill="none" stroke="rgb(0, 0, 0)" stroke-opacity="1" stroke-linecap="round" stroke-linejoin="round"/>
    <path d="M 145.9318389892578 84.28794860839844 C 121.81338500976562 79.38812255859375 121.74462127685547 84.50965881347656 111.7706069946289 65.91084289550781" stroke-width="2.0" fill="none" stroke="rgb(0, 0, 0)" stroke-opacity="1" stroke-linecap="round" stroke-linejoin="round"/>
    <path d="M 7.622436046600342 95.38831329345703 C -7.882339954376221 133.91114807128906 3.4480857849121094 144.10389709472656 -6.073517799377441 144.5602569580078 C -9.063053131103516 101.30457305908203 1.2102653980255127 107.13853454589844 -2.9552242755889893 106.5365982055664" stroke-width="2.0" fill="none" stroke="rgb(0, 0, 0)" stroke-opacity="1" stroke-linecap="round" stroke-linejoin="round"/>
    <path d="M 161.75950622558594 49.962158203125 C 156.55831909179688 25.129425048828125 161.133544921875 34.73445510864258 180.55360412597656 47.24789047241211 C 147.3708038330078 41.12678909301758 173.19137573242188 79.10489654541016 183.3463897705078 43.55534362792969" stroke-width="2.0" fill="none" stroke="rgb(0, 0, 0)" stroke-opacity="1" stroke-linecap="round" stroke-linejoin="round"/>
    <path d="M 66.77230072021484 43.36012649536133 C 54.0056266784668 71.8174819946289 45.16703796386719 75.1565170288086 33.85589599609375 53.552146911621094 C 66.930419921875 20.244253158569336 60.26229476928711 16.746673583984375 -21.063262939453125 39.38294219970703 C 46.37008285522461 44.00310134887695 54.01377487182617 20.09252166748047 35.48528289794922 64.96651458740234" stroke-width="2.0" fill="none" stroke="rgb(0, 0, 0)" stroke-opacity="1" stroke-linecap="round" stroke-linejoin="round"/>
    <path d="M 99.54767608642578 204.36175537109375 C 84.11791229248047 207.36619567871094 121.18546295166016 213.79476928710938 119.90249633789062 226.5064697265625" stroke-width="2.0" fill="none" stroke="rgb(0, 0, 0)" stroke-opacity="1" stroke-linecap="round" stroke-linejoin="round"/>
    <path d="M 119.43740844726562 20.252525329589844 C 122.09202575683594 54.77643966674805 117.81212615966797 67.26818084716797 111.95968627929688 39.11081314086914 C 124.05581665039062 42.2078742980957 110.4083480834961 89.78009796142578 109.74981689453125 66.93184661865234" stroke-width="2.0" fill="none" stroke="rgb(0, 0, 0)" stroke-opacity="1" stroke-linecap="round" stroke-linejoin="round"/>
    <path d="M 145.08804321289062 151.3094024658203 C 113.72442626953125 164.65956115722656 170.2535400390625 168.1465301513672 190.8314208984375 152.33323669433594 C 172.5019989013672 115.51533508300781 167.66758728027344 162.0455322265625 199.52256774902344 140.42633056640625 C 163.28976440429688 131.5321044921875 159.0426788330078 118.43946075439453 145.73513793945312 122.801025390625" stroke-width="2.0" fill="none" stroke="rgb(0, 0, 0)" stroke-opacity="1" stroke-linecap="round" stroke-linejoin="round"/>
    <path d="M 201.48863220214844 -9.9895601272583 C 208.74957275390625 23.52939224243164 212.34103393554688 18.116470336914062 213.50514221191406 -9.912166595458984 C 219.7457733154297 3.896916151046753 210.23886108398438 11.68105697631836 226.1972198486328 1.93497896194458" stroke-width="2.0" fill="none" stroke="rgb(0, 0, 0)" stroke-opacity="1" stroke-linecap="round" stroke-linejoin="round"/>
    <path d="M 161.15982055664062 184.20228576660156 C 175.43699645996094 191.667724609375 152.67251586914062 163.35205078125 161.4589080810547 204.8970184326172" stroke-width="2.0" fill="none" stroke="rgb(0, 0, 0)" stroke-opacity="1" stroke-linecap="round" stroke-linejoin="round"/>
    <path d="M 232.14199829101562 58.52315902709961 C 226.7536163330078 51.791751861572266 187.4619903564453 37.310707092285156 193.22459411621094 53.200828552246094" stroke-width="2.0" fill="none" stroke="rgb(0, 0, 0)" stroke-opacity="1" stroke-linecap="round" stroke-linejoin="round"/>
    <path d="M 13.65999984741211 179.6219024658203 C -16.865436553955078 179.8321990966797 -9.436135292053223 188.00550842285156 -8.863293647766113 205.85885620117188 C -11.82278823852539 195.5104522705078 -17.166912078857422 188.41049194335938 -9.567895889282227 170.2120361328125 C 15.946284294128418 163.97279357910156 26.439838409423828 151.0550994873047 16.41181755065918 164.6826629638672" stroke-width="2.0" fill="none" stroke="rgb(0, 0, 0)" stroke-opacity="1" stroke-linecap="round" stroke-linejoin="round"/>
    <path d="M 210.65359497070312 44.694339752197266 C 227.7750701904297 17.7710018157959 242.00820922851562 27.39120101928711 243.8625946044922 16.28659439086914 C 228.1249542236328 28.856998443603516 232.15078735351562 19.43311882019043 225.41424560546875 16.63758087158203" stroke-width="2.0" fill="none" stroke="rgb(0, 0, 0)" stroke-opacity="1" stroke-linecap="round" stroke-linejoin="round"/>
    <path d="M 66.84188079833984 69.19684600830078 C 75.0389633178711 87.28215026855469 84.6353759765625 62.5318489074707 95.56893920898438 39.338722229003906 C 95.77981567382812 82.0443115234375 123.41890716552734 78.77593994140625 87.74880981445312 72.18213653564453 C 115.576171875 100.73502349853516 89.43473815917969 88.4928207397461 82.92509460449219 61.43372344970703" stroke-width="2.0" fill="none" stroke="rgb(0, 0, 0)" stroke-opacity="1" stroke-linecap="round" stroke-linejoin="round"/>
    <path d="M 97.70549774169922 177.78018188476562 C 72.00514221191406 166.1864776611328 73.83861541748047 153.15538024902344 70.85350799560547 139.54495239257812 C 58.948341369628906 148.11366271972656 50.791534423828125 117.84577941894531 74.60980224609375 148.5036163330078" stroke-width="2.0" fill="none" stroke="rgb(0, 0, 0)" stroke-opacity="1" stroke-linecap="round" stroke-linejoin="round"/>
    <path d="M 112.11311340332031 176.65432739257812 C 60.68566131591797 134.446044921875 113.15242004394531 139.24642944335938 103.68342590332031 128.18997192382812 C 76.55260467529297 130.20077514648438 98.30203247070312 136.71617126464844 71.35692596435547 155.54075622558594" stroke-width="2.0" fill="none" stroke="rgb(0, 0, 0)" stroke-opacity="1" stroke-linecap="round" stroke-linejoin="round"/>
  </g>
</svg>
