<?xml version="1.0" ?>
<svg xmlns="http://www.w3.org/2000/svg" version="1.1" width="224" height="224">
  <defs/>
  <g>
    <path d="M 139.37200927734375 123.22599792480469 C 163.39537048339844 172.19039916992188 159.591796875 147.35116577148438 148.092529296875 156.673095703125" stroke-width="2.0" fill="none" stroke="rgb(0, 0, 0)" stroke-opacity="1" stroke-linecap="round" stroke-linejoin="round"/>
    <path d="M -8.418000221252441 30.373722076416016 C -17.706119537353516 8.166145324707031 21.385805130004883 36.274688720703125 50.291996002197266 17.692867279052734" stroke-width="2.0" fill="none" stroke="rgb(0, 0, 0)" stroke-opacity="1" stroke-linecap="round" stroke-linejoin="round"/>
    <path d="M 27.227325439453125 166.46852111816406 C 52.249267578125 143.46714782714844 45.147403717041016 163.52647399902344 49.97980880737305 134.32803344726562 C 35.51262664794922 144.5086212158203 26.873647689819336 165.99899291992188 20.5905704498291 139.71270751953125" stroke-width="2.0" fill="none" stroke="rgb(0, 0, 0)" stroke-opacity="1" stroke-linecap="round" stroke-linejoin="round"/>
    <path d="M 122.63591003417969 191.72718811035156 C 141.4979248046875 167.8043670654297 127.1336441040039 144.66546630859375 126.13868713378906 148.75454711914062 C 140.66534423828125 193.76687622070312 113.26426696777344 201.83448791503906 128.6427459716797 185.37615966796875" stroke-width="2.0" fill="none" stroke="rgb(0, 0, 0)" stroke-opacity="1" stroke-linecap="round" stroke-linejoin="round"/>
    <path d="M 180.09744262695312 46.311546325683594 C 203.32257080078125 66.95885467529297 200.31466674804688 75.90875244140625 215.9283447265625 55.96150588989258 C 202.752197265625 45.6815299987793 192.30453491210938 25.974123001098633 207.5053253173828 32.235286712646484 C 186.33108520507812 34.58333969116211 180.14068603515625 52.83438491821289 209.58973693847656 56.66505432128906" stroke-width="2.0" fill="none" stroke="rgb(0, 0, 0)" stroke-opacity="1" stroke-linecap="round" stroke-linejoin="round"/>
    <path d="M 188.8015899658203 203.80227661132812 C 173.8749237060547 179.41354370117188 184.8262481689453 165.97235107421875 194.691162109375 174.88009643554688" stroke-width="2.0" fill="none" stroke="rgb(0, 0, 0)" stroke-opacity="1" stroke-linecap="round" stroke-linejoin="round"/>
    <path d="M 42.9996337890625 200.44422912597656 C 10.172163009643555 182.67721557617188 18.897747039794922 168.6387176513672 1.5341136455535889 162.13375854492188 C 4.856332778930664 170.01913452148438 -5.085851669311523 156.06407165527344 15.347185134887695 179.00363159179688" stroke-width="2.0" fill="none" stroke="rgb(0, 0, 0)" stroke-opacity="1" stroke-linecap="round" stroke-linejoin="round"/>
    <path d="M 13.063854217529297 117.73042297363281 C -8.329313278198242 151.32974243164062 8.38614559173584 155.7964630126953 30.605154037475586 163.88473510742188 C -8.13534927368164 174.5967559814453 20.296972274780273 165.70529174804688 14.033206939697266 168.44602966308594 C 23.898588180541992 164.78793334960938 42.22361373901367 170.3317108154297 40.00316619873047 157.7383270263672" stroke-width="2.0" fill="none" stroke="rgb(0, 0, 0)" stroke-opacity="1" stroke-linecap="round" stroke-linejoin="round"/>
    <path d="M 47.281654357910156 30.103525161743164 C 74.1500015258789 43.68470001220703 66.97537994384766 49.38310623168945 49.0819206237793 34.0985107421875" stroke-width="2.0" fill="none" stroke="rgb(0, 0, 0)" stroke-opacity="1" stroke-linecap="round" stroke-linejoin="round"/>
    <path d="M 90.68384552001953 6.279443740844727 C 106.75029754638672 35.57270431518555 95.90794372558594 42.82028579711914 96.02976989746094 16.086055755615234 C 90.71630859375 63.82246398925781 62.93836975097656 59.365997314453125 109.54838562011719 64.08560943603516" stroke-width="2.0" fill="none" stroke="rgb(0, 0, 0)" stroke-opacity="1" stroke-linecap="round" stroke-linejoin="round"/>
    <path d="M 195.66610717773438 130.33541870117188 C 179.67027282714844 154.00582885742188 159.29397583007812 142.6949462890625 148.07481384277344 155.65304565429688 C 148.29502868652344 176.47900390625 172.26449584960938 174.0821990966797 175.0233917236328 175.64508056640625 C 193.82321166992188 169.72952270507812 185.53025817871094 159.50694274902344 193.10580444335938 137.8686065673828" stroke-width="2.0" fill="none" stroke="rgb(0, 0, 0)" stroke-opacity="1" stroke-linecap="round" stroke-linejoin="round"/>
    <path d="M 75.93524932861328 132.68011474609375 C 99.30960083007812 141.36056518554688 61.641319274902344 124.2234115600586 55.859840393066406 161.3978271484375 C 48.212745666503906 190.68495178222656 49.03364181518555 164.9741668701172 61.98481750488281 146.54920959472656" stroke-width="2.0" fill="none" stroke="rgb(0, 0, 0)" stroke-opacity="1" stroke-linecap="round" stroke-linejoin="round"/>
    <path d="M 74.5734634399414 33.97041702270508 C 47.252201080322266 -1.5820326805114746 64.25334930419922 26.26054573059082 64.93836212158203 35.51931381225586 C 74.87409973144531 30.328271865844727 65.11138153076172 31.921493530273438 81.622802734375 46.797943115234375 C 86.19409942626953 18.496828079223633 43.78218460083008 13.725798606872559 39.00123977661133 28.04070281982422" stroke-width="2.0" fill="none" stroke="rgb(0, 0, 0)" stroke-opacity="1" stroke-linecap="round" stroke-linejoin="round"/>
    <path d="M 217.0254669189453 71.51448059082031 C 211.47312927246094 119.0692367553711 156.10121154785156 107.38317108154297 185.72837829589844 98.40240478515625 C 197.0172119140625 84.93544006347656 196.40570068359375 112.08438873291016 186.68833923339844 104.18475341796875" stroke-width="2.0" fill="none" stroke="rgb(0, 0, 0)" stroke-opacity="1" stroke-linecap="round" stroke-linejoin="round"/>
    <path d="M -3.952747344970703 196.265625 C -0.015996171161532402 221.4719696044922 -5.857112884521484 231.4892120361328 1.9451411962509155 231.9131622314453 C 11.7052583694458 222.8827667236328 -3.921900510787964 198.6609649658203 -12.140223503112793 189.87326049804688" stroke-width="2.0" fill="none" stroke="rgb(0, 0, 0)" stroke-opacity="1" stroke-linecap="round" stroke-linejoin="round"/>
    <path d="M 5.975374698638916 80.7809829711914 C 29.26014518737793 52.25587844848633 4.1221160888671875 34.6019401550293 13.063087463378906 51.551963806152344 C -0.4507772624492645 30.674955368041992 16.219680786132812 61.63127899169922 8.812578201293945 81.79267883300781" stroke-width="2.0" fill="none" stroke="rgb(0, 0, 0)" stroke-opacity="1" stroke-linecap="round" stroke-linejoin="round"/>
    <path d="M 197.43360900878906 205.55892944335938 C 227.06651306152344 237.02197265625 222.7321319580078 185.4639892578125 216.1130828857422 179.8539581298828 C 234.4408416748047 190.23199462890625 226.23919677734375 188.06956481933594 226.84918212890625 207.05157470703125 C 226.79490661621094 224.17100524902344 224.23902893066406 179.19908142089844 202.2489013671875 202.86383056640625" stroke-width="2.0" fill="none" stroke="rgb(0, 0, 0)" stroke-opacity="1" stroke-linecap="round" stroke-linejoin="round"/>
    <path d="M 189.94281005859375 182.6583709716797 C 203.68362426757812 187.2164764404297 217.1779022216797 185.40817260742188 213.16427612304688 175.8391571044922 C 219.3311309814453 195.845947265625 206.98126220703125 196.19142150878906 218.51856994628906 212.9331817626953 C 199.03433227539062 209.45941162109375 200.2682342529297 174.40960693359375 194.84518432617188 183.03900146484375" stroke-width="2.0" fill="none" stroke="rgb(0, 0, 0)" stroke-opacity="1" stroke-linecap="round" stroke-linejoin="round"/>
    <path d="M 90.86328125 2.6968140602111816 C 111.53300476074219 13.443771362304688 94.7550048828125 -3.4798686504364014 93.57902526855469 -21.06427764892578" stroke-width="2.0" fill="none" stroke="rgb(0, 0, 0)" stroke-opacity="1" stroke-linecap="round" stroke-linejoin="round"/>
    <path d="M 56.98353958129883 160.29690551757812 C 72.02851104736328 185.76942443847656 52.853248596191406 181.7452392578125 69.40953063964844 178.75477600097656" stroke-width="2.0" fill="none" stroke="rgb(0, 0, 0)" stroke-opacity="1" stroke-linecap="round" stroke-linejoin="round"/>
    <path d="M 27.753875732421875 87.5427474975586 C 9.22116756439209 79.01143646240234 29.734277725219727 85.34235382080078 58.09392166137695 96.15859985351562 C 68.53868103027344 84.9900131225586 40.594337463378906 105.65702819824219 5.523461818695068 106.93901824951172" stroke-width="2.0" fill="none" stroke="rgb(0, 0, 0)" stroke-opacity="1" stroke-linecap="round" stroke-linejoin="round"/>
    <path d="M 153.5533447265625 15.180634498596191 C 177.40673828125 27.559879302978516 149.71263122558594 43.22229766845703 188.50921630859375 19.922780990600586 C 143.2052764892578 32.88646697998047 205.61199951171875 4.9939165115356445 219.21449279785156 19.76115608215332" stroke-width="2.0" fill="none" stroke="rgb(0, 0, 0)" stroke-opacity="1" stroke-linecap="round" stroke-linejoin="round"/>
    <path d="M 101.47303009033203 116.54499053955078 C 106.30887603759766 127.1430892944336 78.89823150634766 132.43894958496094 69.62163543701172 146.9403076171875 C 92.3814926147461 153.3729705810547 67.64363861083984 168.7893524169922 69.35568237304688 161.73866271972656 C 65.91703033447266 154.6448211669922 33.79350280761719 174.25704956054688 63.669063568115234 199.0001678466797" stroke-width="2.0" fill="none" stroke="rgb(0, 0, 0)" stroke-opacity="1" stroke-linecap="round" stroke-linejoin="round"/>
    <path d="M -9.564645767211914 -2.559980630874634 C 15.078673362731934 1.5154144763946533 37.24183654785156 -20.822240829467773 35.27497863769531 -25.58820915222168 C 18.36017417907715 -0.9221363067626953 22.73804473876953 -2.4908676147460938 42.132041931152344 1.1211987733840942 C 74.44210815429688 -2.7525641918182373 40.7250862121582 7.787887096405029 34.94719314575195 -0.9712311029434204" stroke-width="2.0" fill="none" stroke="rgb(0, 0, 0)" stroke-opacity="1" stroke-linecap="round" stroke-linejoin="round"/>
    <path d="M -1.9729788303375244 195.74269104003906 C -3.7951793670654297 192.20571899414062 6.562697410583496 166.6725616455078 9.538410186767578 162.55691528320312 C 4.614841461181641 181.91172790527344 -8.612518310546875 175.65525817871094 -24.18539810180664 177.30897521972656 C -7.2054362297058105 176.28143310546875 -7.674416542053223 174.3169403076172 -13.11064338684082 173.63648986816406" stroke-width="2.0" fill="none" stroke="rgb(0, 0, 0)" stroke-opacity="1" stroke-linecap="round" stroke-linejoin="round"/>
    <path d="M 17.33087921142578 167.9566650390625 C 27.540447235107422 146.8766632080078 19.925683975219727 173.6277313232422 28.438371658325195 182.7642364501953 C 36.591064453125 164.8357391357422 38.90801239013672 156.37269592285156 39.64386749267578 136.79803466796875 C 39.68380355834961 173.7988739013672 16.00215721130371 189.6544952392578 37.3784065246582 152.11572265625" stroke-width="2.0" fill="none" stroke="rgb(0, 0, 0)" stroke-opacity="1" stroke-linecap="round" stroke-linejoin="round"/>
    <path d="M 203.1753692626953 192.5120391845703 C 203.58978271484375 200.36471557617188 176.24461364746094 182.14015197753906 196.2830047607422 177.76524353027344 C 209.57315063476562 171.0311279296875 177.71119689941406 161.24295043945312 200.98533630371094 176.3389434814453 C 191.48342895507812 183.47987365722656 190.1187286376953 166.84649658203125 202.75648498535156 181.61900329589844" stroke-width="2.0" fill="none" stroke="rgb(0, 0, 0)" stroke-opacity="1" stroke-linecap="round" stroke-linejoin="round"/>
    <path d="M 124.56734466552734 123.60652923583984 C 137.51866149902344 139.55906677246094 155.84812927246094 135.27769470214844 154.9672088623047 181.59210205078125" stroke-width="2.0" fill="none" stroke="rgb(0, 0, 0)" stroke-opacity="1" stroke-linecap="round" stroke-linejoin="round"/>
    <path d="M 118.30101013183594 131.40843200683594 C 111.77256774902344 151.22787475585938 110.16768646240234 174.1922149658203 117.06800079345703 137.18629455566406 C 109.4098892211914 171.53553771972656 121.7012710571289 205.25146484375 115.17845153808594 172.49234008789062" stroke-width="2.0" fill="none" stroke="rgb(0, 0, 0)" stroke-opacity="1" stroke-linecap="round" stroke-linejoin="round"/>
    <path d="M 204.01112365722656 112.42408752441406 C 201.26275634765625 108.99930572509766 189.18067932128906 175.18194580078125 171.55526733398438 162.4519500732422" stroke-width="2.0" fill="none" stroke="rgb(0, 0, 0)" stroke-opacity="1" stroke-linecap="round" stroke-linejoin="round"/>
    <path d="M 94.14852142333984 212.24917602539062 C 44.68234634399414 206.35494995117188 37.344425201416016 219.25416564941406 86.97061157226562 228.52503967285156" stroke-width="2.0" fill="none" stroke="rgb(0, 0, 0)" stroke-opacity="1" stroke-linecap="round" stroke-linejoin="round"/>
    <path d="M 33.40022659301758 196.6188201904297 C 7.125462532043457 181.5455322265625 14.492233276367188 173.0269317626953 37.71174240112305 156.93161010742188" stroke-width="2.0" fill="none" stroke="rgb(0, 0, 0)" stroke-opacity="1" stroke-linecap="round" stroke-linejoin="round"/>
    <path d="M 106.28693389892578 31.809797286987305 C 139.0839385986328 31.127870559692383 145.41525268554688 25.30118179321289 142.5820770263672 37.03409194946289 C 113.72418975830078 47.12086868286133 119.83451843261719 31.336597442626953 145.45721435546875 14.352527618408203" stroke-width="2.0" fill="none" stroke="rgb(0, 0, 0)" stroke-opacity="1" stroke-linecap="round" stroke-linejoin="round"/>
    <path d="M 143.13795471191406 193.42068481445312 C 164.77621459960938 166.3350067138672 131.8835906982422 151.2454376220703 165.6847381591797 162.72805786132812 C 153.67515563964844 199.93739318847656 169.81271362304688 149.7280731201172 146.17257690429688 150.24290466308594" stroke-width="2.0" fill="none" stroke="rgb(0, 0, 0)" stroke-opacity="1" stroke-linecap="round" stroke-linejoin="round"/>
    <path d="M 60.52687454223633 48.16449737548828 C 67.96216583251953 62.747840881347656 69.88651275634766 68.0085220336914 58.846412658691406 33.66233825683594" stroke-width="2.0" fill="none" stroke="rgb(0, 0, 0)" stroke-opacity="1" stroke-linecap="round" stroke-linejoin="round"/>
    <path d="M 86.78907012939453 -11.685704231262207 C 76.72532653808594 0.6159783601760864 67.8208236694336 -1.9740262031555176 73.2469711303711 -4.71619176864624 C 83.89295959472656 6.221430778503418 88.0312728881836 -11.19119644165039 89.99339294433594 -20.538105010986328" stroke-width="2.0" fill="none" stroke="rgb(0, 0, 0)" stroke-opacity="1" stroke-linecap="round" stroke-linejoin="round"/>
    <path d="M 31.386249542236328 90.53413391113281 C 33.98198318481445 67.49272155761719 64.61046600341797 55.15829086303711 66.79422760009766 59.988346099853516 C 56.27983856201172 90.8088150024414 45.57981491088867 106.0652847290039 24.12790298461914 107.78824615478516 C 40.25846862792969 105.79318237304688 39.84616470336914 110.19209289550781 49.964942932128906 98.23153686523438" stroke-width="2.0" fill="none" stroke="rgb(0, 0, 0)" stroke-opacity="1" stroke-linecap="round" stroke-linejoin="round"/>
    <path d="M 132.47239685058594 101.935302734375 C 165.8972625732422 79.66133880615234 159.48858642578125 94.02552032470703 144.33905029296875 72.407470703125 C 150.02175903320312 70.81497955322266 157.48434448242188 57.528263092041016 168.86083984375 66.4711685180664 C 170.31558227539062 78.81320190429688 208.1144256591797 44.280521392822266 151.9755096435547 66.7237319946289" stroke-width="2.0" fill="none" stroke="rgb(0, 0, 0)" stroke-opacity="1" stroke-linecap="round" stroke-linejoin="round"/>
    <path d="M 124.83851623535156 139.69493103027344 C 99.09757995605469 136.7627716064453 114.67989349365234 139.2969207763672 104.59749603271484 120.44342041015625" stroke-width="2.0" fill="none" stroke="rgb(0, 0, 0)" stroke-opacity="1" stroke-linecap="round" stroke-linejoin="round"/>
    <path d="M 77.33212280273438 58.4436149597168 C 80.55144500732422 82.66304779052734 103.40985870361328 49.58749771118164 106.17471313476562 70.11417388916016 C 61.31649398803711 41.202213287353516 65.95976257324219 64.54178619384766 59.11565017700195 67.27884674072266" stroke-width="2.0" fill="none" stroke="rgb(0, 0, 0)" stroke-opacity="1" stroke-linecap="round" stroke-linejoin="round"/>
    <path d="M 131.28614807128906 115.21813201904297 C 119.88284301757812 120.20742797851562 155.33102416992188 116.1650161743164 140.8802490234375 123.90701293945312 C 131.81961059570312 95.1571044921875 74.74208068847656 93.11106872558594 138.85813903808594 116.03411102294922" stroke-width="2.0" fill="none" stroke="rgb(0, 0, 0)" stroke-opacity="1" stroke-linecap="round" stroke-linejoin="round"/>
    <path d="M 69.0435791015625 106.75952911376953 C 48.94847106933594 115.72144317626953 51.90735626220703 102.44062805175781 58.486602783203125 73.93717193603516" stroke-width="2.0" fill="none" stroke="rgb(0, 0, 0)" stroke-opacity="1" stroke-linecap="round" stroke-linejoin="round"/>
    <path d="M 119.2484130859375 129.92398071289062 C 90.69860076904297 120.7361831665039 100.79439544677734 133.07752990722656 90.01686096191406 101.79608154296875 C 70.56277465820312 114.34527587890625 94.7609634399414 109.45520782470703 112.5877456665039 121.2408218383789" stroke-width="2.0" fill="none" stroke="rgb(0, 0, 0)" stroke-opacity="1" stroke-linecap="round" stroke-linejoin="round"/>
    <path d="M 83.8094482421875 188.86146545410156 C 120.0182113647461 216.04718017578125 93.4532470703125 189.7466583251953 82.69514465332031 180.36293029785156" stroke-width="2.0" fill="none" stroke="rgb(0, 0, 0)" stroke-opacity="1" stroke-linecap="round" stroke-linejoin="round"/>
    <path d="M 149.50074768066406 75.36146545410156 C 124.58715057373047 79.52693939208984 125.83287048339844 85.26217651367188 149.45010375976562 67.02330017089844" stroke-width="2.0" fill="none" stroke="rgb(0, 0, 0)" stroke-opacity="1" stroke-linecap="round" stroke-linejoin="round"/>
    <path d="M 9.890613555908203 176.7500762939453 C -10.802755355834961 140.32164001464844 -5.480452060699463 130.917724609375 21.676788330078125 103.80145263671875" stroke-width="2.0" fill="none" stroke="rgb(0, 0, 0)" stroke-opacity="1" stroke-linecap="round" stroke-linejoin="round"/>
    <path d="M 133.7872314453125 64.55218505859375 C 142.44825744628906 67.38426208496094 137.41046142578125 63.24518966674805 133.0304718017578 52.548519134521484 C 129.0867462158203 50.40913391113281 78.12234497070312 53.024776458740234 148.0797882080078 44.43867874145508" stroke-width="2.0" fill="none" stroke="rgb(0, 0, 0)" stroke-opacity="1" stroke-linecap="round" stroke-linejoin="round"/>
    <path d="M 156.16603088378906 57.650474548339844 C 134.13336181640625 40.83115768432617 146.51744079589844 34.38316345214844 166.05703735351562 33.37268829345703 C 201.21807861328125 20.356889724731445 178.79380798339844 34.66998291015625 118.55366516113281 14.046077728271484 C 180.85765075683594 17.084901809692383 180.98646545410156 0.6188651323318481 213.8402557373047 14.66321086883545" stroke-width="2.0" fill="none" stroke="rgb(0, 0, 0)" stroke-opacity="1" stroke-linecap="round" stroke-linejoin="round"/>
    <path d="M 68.03668212890625 103.49984741210938 C 71.60530853271484 81.18377685546875 71.33116912841797 78.88297271728516 61.855838775634766 65.20084381103516" stroke-width="2.0" fill="none" stroke="rgb(0, 0, 0)" stroke-opacity="1" stroke-linecap="round" stroke-linejoin="round"/>
    <path d="M 31.577363967895508 129.21498107910156 C 48.549564361572266 131.40525817871094 64.00330352783203 146.4689178466797 62.15254592895508 153.02610778808594" stroke-width="2.0" fill="none" stroke="rgb(0, 0, 0)" stroke-opacity="1" stroke-linecap="round" stroke-linejoin="round"/>
    <path d="M 32.63712692260742 74.55555725097656 C 28.175039291381836 58.920921325683594 20.90269660949707 64.53650665283203 19.599153518676758 85.51897430419922 C 16.887182235717773 66.30904388427734 38.282405853271484 74.23577117919922 37.03877258300781 86.29481506347656 C 36.567806243896484 76.39092254638672 49.0495491027832 92.8423080444336 36.5190544128418 108.61944580078125" stroke-width="2.0" fill="none" stroke="rgb(0, 0, 0)" stroke-opacity="1" stroke-linecap="round" stroke-linejoin="round"/>
    <path d="M 133.5654754638672 15.62048053741455 C 81.92760467529297 -7.170065879821777 55.34931182861328 -4.47915506362915 108.96907043457031 10.152177810668945 C 79.4559555053711 15.474262237548828 53.31911087036133 16.55826759338379 89.2874755859375 20.832149505615234" stroke-width="2.0" fill="none" stroke="rgb(0, 0, 0)" stroke-opacity="1" stroke-linecap="round" stroke-linejoin="round"/>
    <path d="M 46.94708251953125 123.467041015625 C 75.73299407958984 133.8083038330078 68.5500717163086 161.1346435546875 57.58272933959961 157.37977600097656" stroke-width="2.0" fill="none" stroke="rgb(0, 0, 0)" stroke-opacity="1" stroke-linecap="round" stroke-linejoin="round"/>
    <path d="M 174.5908966064453 186.77279663085938 C 187.17263793945312 200.86553955078125 162.0565185546875 191.2209014892578 161.1856689453125 192.9453125 C 201.37681579589844 223.99295043945312 197.0905303955078 215.2708740234375 202.23765563964844 215.1866455078125 C 183.3466339111328 213.29736328125 174.27906799316406 201.43777465820312 142.76356506347656 204.7859649658203" stroke-width="2.0" fill="none" stroke="rgb(0, 0, 0)" stroke-opacity="1" stroke-linecap="round" stroke-linejoin="round"/>
    <path d="M 47.71407699584961 101.83133697509766 C 64.33729553222656 118.5688247680664 79.72250366210938 117.9229507446289 68.74259948730469 64.86495971679688 C 78.26864624023438 79.4707260131836 83.73892974853516 93.01420593261719 65.61585998535156 103.9942855834961" stroke-width="2.0" fill="none" stroke="rgb(0, 0, 0)" stroke-opacity="1" stroke-linecap="round" stroke-linejoin="round"/>
    <path d="M -4.850768089294434 87.81088256835938 C 7.989817142486572 72.88821411132812 0.830154299736023 31.560575485229492 16.84698486328125 31.72276496887207" stroke-width="2.0" fill="none" stroke="rgb(0, 0, 0)" stroke-opacity="1" stroke-linecap="round" stroke-linejoin="round"/>
    <path d="M 187.7216796875 48.64873123168945 C 228.04476928710938 59.62041091918945 200.69366455078125 16.094741821289062 190.70094299316406 29.699085235595703" stroke-width="2.0" fill="none" stroke="rgb(0, 0, 0)" stroke-opacity="1" stroke-linecap="round" stroke-linejoin="round"/>
    <path d="M 120.14068603515625 78.83685302734375 C 139.61721801757812 42.35593795776367 163.15773010253906 76.87879943847656 129.2946014404297 83.97936248779297" stroke-width="2.0" fill="none" stroke="rgb(0, 0, 0)" stroke-opacity="1" stroke-linecap="round" stroke-linejoin="round"/>
    <path d="M 184.07492065429688 62.114471435546875 C 190.69314575195312 107.5626220703125 163.0994873046875 130.30747985839844 167.29713439941406 87.5960922241211 C 147.9002227783203 102.04228973388672 168.2457275390625 98.31969451904297 140.99649047851562 63.48693084716797" stroke-width="2.0" fill="none" stroke="rgb(0, 0, 0)" stroke-opacity="1" stroke-linecap="round" stroke-linejoin="round"/>
    <path d="M 154.5664520263672 195.74740600585938 C 215.24490356445312 195.87435913085938 185.6111602783203 222.88690185546875 167.0026397705078 189.60189819335938 C 122.96479797363281 208.8706817626953 116.42460632324219 211.62564086914062 179.3349151611328 202.74095153808594" stroke-width="2.0" fill="none" stroke="rgb(0, 0, 0)" stroke-opacity="1" stroke-linecap="round" stroke-linejoin="round"/>
    <path d="M 120.54759216308594 227.24478149414062 C 164.8123016357422 204.72830200195312 184.05767822265625 226.338134765625 209.12181091308594 223.85792541503906" stroke-width="2.0" fill="none" stroke="rgb(0, 0, 0)" stroke-opacity="1" stroke-linecap="round" stroke-linejoin="round"/>
    <path d="M 97.7435531616211 52.2465705871582 C 121.64476776123047 48.12876510620117 113.12738037109375 -3.538322687149048 119.86353302001953 21.18970489501953 C 139.21591186523438 22.35270118713379 87.93507385253906 18.932830810546875 110.8813705444336 22.995088577270508 C 129.88909912109375 50.365623474121094 132.44943237304688 11.536561965942383 115.70198059082031 23.37416648864746" stroke-width="2.0" fill="none" stroke="rgb(0, 0, 0)" stroke-opacity="1" stroke-linecap="round" stroke-linejoin="round"/>
    <path d="M 96.9717025756836 226.40277099609375 C 90.23493194580078 229.5535125732422 88.62605285644531 232.0662384033203 93.78595733642578 236.54791259765625 C 93.08041381835938 235.16912841796875 100.56095886230469 230.34727478027344 107.06886291503906 238.9314727783203 C 106.94173431396484 235.38204956054688 107.62816619873047 245.60971069335938 98.10541534423828 249.3414306640625" stroke-width="2.0" fill="none" stroke="rgb(0, 0, 0)" stroke-opacity="1" stroke-linecap="round" stroke-linejoin="round"/>
    <path d="M 218.4643096923828 196.65478515625 C 217.86550903320312 216.1260986328125 173.66998291015625 195.25582885742188 172.6246795654297 184.90927124023438 C 199.58860778808594 190.23974609375 184.43817138671875 215.05677795410156 225.28257751464844 203.51455688476562" stroke-width="2.0" fill="none" stroke="rgb(0, 0, 0)" stroke-opacity="1" stroke-linecap="round" stroke-linejoin="round"/>
    <path d="M 72.58248138427734 132.21238708496094 C 85.82275390625 158.79220581054688 73.89290618896484 167.15841674804688 59.36020278930664 152.87576293945312" stroke-width="2.0" fill="none" stroke="rgb(0, 0, 0)" stroke-opacity="1" stroke-linecap="round" stroke-linejoin="round"/>
    <path d="M 112.08049011230469 71.08908081054688 C 84.28408813476562 85.96345520019531 74.37117767333984 64.60536193847656 95.86927032470703 90.60540771484375 C 87.10063934326172 128.7621612548828 92.1595687866211 85.2039566040039 78.508056640625 74.22516632080078 C 107.3334732055664 80.45822143554688 105.75651550292969 82.79595947265625 82.72746276855469 79.12651062011719" stroke-width="2.0" fill="none" stroke="rgb(0, 0, 0)" stroke-opacity="1" stroke-linecap="round" stroke-linejoin="round"/>
    <path d="M 74.22958374023438 16.69295883178711 C 63.69108581542969 31.10869789123535 93.38531494140625 31.0347957611084 70.77281951904297 58.88728713989258 C 75.82640075683594 80.80166625976562 115.31135559082031 58.0098991394043 64.97834777832031 63.55008316040039" stroke-width="2.0" fill="none" stroke="rgb(0, 0, 0)" stroke-opacity="1" stroke-linecap="round" stroke-linejoin="round"/>
    <path d="M 66.85009765625 12.280843734741211 C 83.11122131347656 20.39653968811035 81.95674896240234 35.64314651489258 96.44407653808594 6.385329246520996 C 113.43929290771484 18.269540786743164 105.55663299560547 56.049034118652344 78.06181335449219 61.48531723022461" stroke-width="2.0" fill="none" stroke="rgb(0, 0, 0)" stroke-opacity="1" stroke-linecap="round" stroke-linejoin="round"/>
    <path d="M 74.42084503173828 123.98966979980469 C 52.170249938964844 92.71566772460938 57.68124008178711 122.33646392822266 29.938732147216797 137.7277069091797 C 42.71453857421875 109.6771011352539 72.43921661376953 106.03495025634766 45.412254333496094 122.82701110839844 C 31.78326988220215 108.78158569335938 19.201723098754883 97.822998046875 49.503082275390625 116.42146301269531" stroke-width="2.0" fill="none" stroke="rgb(0, 0, 0)" stroke-opacity="1" stroke-linecap="round" stroke-linejoin="round"/>
    <path d="M 87.27149200439453 59.41790771484375 C 80.45730590820312 79.68268585205078 70.64643859863281 63.370391845703125 109.14078521728516 66.18273162841797" stroke-width="2.0" fill="none" stroke="rgb(0, 0, 0)" stroke-opacity="1" stroke-linecap="round" stroke-linejoin="round"/>
    <path d="M 42.51788330078125 43.8119010925293 C 61.10011672973633 54.93135452270508 69.60078430175781 71.05731201171875 55.80424880981445 99.6699447631836 C 48.724788665771484 125.10228729248047 84.7066650390625 127.03368377685547 72.6151123046875 57.23495101928711 C 43.82808303833008 59.39276885986328 54.28574752807617 74.88129425048828 49.89080047607422 54.69551467895508" stroke-width="2.0" fill="none" stroke="rgb(0, 0, 0)" stroke-opacity="1" stroke-linecap="round" stroke-linejoin="round"/>
    <path d="M 185.60012817382812 70.87548828125 C 132.51141357421875 17.417877197265625 161.0240478515625 30.11024284362793 210.1180877685547 38.34368896484375 C 166.04197692871094 34.81167221069336 210.77474975585938 16.828397750854492 221.3367462158203 30.375905990600586" stroke-width="2.0" fill="none" stroke="rgb(0, 0, 0)" stroke-opacity="1" stroke-linecap="round" stroke-linejoin="round"/>
    <path d="M 118.61100769042969 141.18966674804688 C 101.42671203613281 148.36663818359375 112.82112884521484 177.15469360351562 119.62824249267578 209.78439331054688 C 109.51490020751953 156.36558532714844 103.79476928710938 182.08056640625 115.38751220703125 194.29591369628906" stroke-width="2.0" fill="none" stroke="rgb(0, 0, 0)" stroke-opacity="1" stroke-linecap="round" stroke-linejoin="round"/>
    <path d="M 192.177978515625 174.1821746826172 C 189.10708618164062 201.04306030273438 188.86021423339844 192.11578369140625 223.00091552734375 187.35975646972656 C 206.42355346679688 168.30853271484375 191.5838165283203 170.390869140625 223.7674560546875 189.2216796875 C 214.62063598632812 200.27328491210938 229.8706512451172 242.322021484375 223.6859130859375 210.10842895507812" stroke-width="2.0" fill="none" stroke="rgb(0, 0, 0)" stroke-opacity="1" stroke-linecap="round" stroke-linejoin="round"/>
    <path d="M 217.49081420898438 50.58918762207031 C 231.84706115722656 23.457721710205078 216.68594360351562 13.341132164001465 223.2221221923828 2.87544584274292 C 231.02406311035156 52.82783889770508 213.16802978515625 56.236080169677734 173.9192657470703 43.43601989746094" stroke-width="2.0" fill="none" stroke="rgb(0, 0, 0)" stroke-opacity="1" stroke-linecap="round" stroke-linejoin="round"/>
    <path d="M 4.091385841369629 215.35238647460938 C 9.69386100769043 218.05282592773438 29.581872940063477 214.33831787109375 27.3199520111084 214.30645751953125 C -2.89900279045105 207.84706115722656 5.201173305511475 203.8156280517578 -3.2635905742645264 182.66468811035156" stroke-width="2.0" fill="none" stroke="rgb(0, 0, 0)" stroke-opacity="1" stroke-linecap="round" stroke-linejoin="round"/>
    <path d="M 183.8267822265625 -2.4425230026245117 C 128.9878692626953 11.36432933807373 109.58539581298828 -9.03509521484375 89.5133285522461 -14.780289649963379" stroke-width="2.0" fill="none" stroke="rgb(0, 0, 0)" stroke-opacity="1" stroke-linecap="round" stroke-linejoin="round"/>
    <path d="M 196.8660888671875 212.16604614257812 C 228.1563262939453 217.21832275390625 209.41671752929688 223.603759765625 184.16831970214844 204.8037872314453 C 167.6403045654297 176.9412384033203 155.51075744628906 202.04425048828125 185.8097381591797 175.9904022216797" stroke-width="2.0" fill="none" stroke="rgb(0, 0, 0)" stroke-opacity="1" stroke-linecap="round" stroke-linejoin="round"/>
    <path d="M 99.34589385986328 89.3250732421875 C 112.82127380371094 84.93098449707031 105.55016326904297 76.11820220947266 109.77764129638672 99.56884765625 C 88.10820770263672 100.62030029296875 90.09034729003906 125.51597595214844 98.75289154052734 96.99144744873047 C 86.85301208496094 70.04458618164062 93.620361328125 71.54793548583984 102.22440338134766 100.50517272949219" stroke-width="2.0" fill="none" stroke="rgb(0, 0, 0)" stroke-opacity="1" stroke-linecap="round" stroke-linejoin="round"/>
    <path d="M 53.34221649169922 172.31761169433594 C 43.4204216003418 211.69725036621094 91.35042572021484 188.5141143798828 66.85490417480469 202.0657501220703" stroke-width="2.0" fill="none" stroke="rgb(0, 0, 0)" stroke-opacity="1" stroke-linecap="round" stroke-linejoin="round"/>
    <path d="M 165.70179748535156 84.4145278930664 C 149.26626586914062 45.72801971435547 132.61915588378906 48.86793518066406 148.5796661376953 68.9875717163086 C 166.01905822753906 120.30919647216797 160.5929412841797 90.76225280761719 133.9117889404297 70.4405746459961" stroke-width="2.0" fill="none" stroke="rgb(0, 0, 0)" stroke-opacity="1" stroke-linecap="round" stroke-linejoin="round"/>
    <path d="M 137.25498962402344 84.70848083496094 C 108.86998748779297 91.55824279785156 124.38847351074219 125.53509521484375 131.25135803222656 111.46611022949219" stroke-width="2.0" fill="none" stroke="rgb(0, 0, 0)" stroke-opacity="1" stroke-linecap="round" stroke-linejoin="round"/>
    <path d="M 52.64726257324219 72.32227325439453 C 68.40412139892578 54.29399108886719 77.08409118652344 95.66912078857422 59.676979064941406 110.48535919189453 C 79.15226745605469 95.1867904663086 82.71558380126953 53.56349563598633 56.489749908447266 76.88540649414062 C 52.08945083618164 68.63545989990234 55.72248077392578 71.88809967041016 40.22003936767578 84.99059295654297" stroke-width="2.0" fill="none" stroke="rgb(0, 0, 0)" stroke-opacity="1" stroke-linecap="round" stroke-linejoin="round"/>
    <path d="M 74.713623046875 171.0645751953125 C 97.34758758544922 207.1543731689453 104.53346252441406 196.80015563964844 103.0138931274414 164.4691925048828 C 94.92009735107422 196.07177734375 99.36454772949219 186.6237335205078 79.38304138183594 153.66612243652344" stroke-width="2.0" fill="none" stroke="rgb(0, 0, 0)" stroke-opacity="1" stroke-linecap="round" stroke-linejoin="round"/>
    <path d="M 160.2362518310547 70.41847229003906 C 152.1870880126953 44.50851058959961 126.7156753540039 24.74195098876953 173.40928649902344 45.02312469482422" stroke-width="2.0" fill="none" stroke="rgb(0, 0, 0)" stroke-opacity="1" stroke-linecap="round" stroke-linejoin="round"/>
    <path d="M 3.1609930992126465 165.9130096435547 C -2.4434478282928467 181.45106506347656 9.191161155700684 199.47915649414062 45.99087905883789 207.16497802734375 C 38.34758758544922 208.97860717773438 23.27528953552246 200.48403930664062 29.247390747070312 204.72576904296875" stroke-width="2.0" fill="none" stroke="rgb(0, 0, 0)" stroke-opacity="1" stroke-linecap="round" stroke-linejoin="round"/>
    <path d="M 177.03680419921875 99.71581268310547 C 169.43865966796875 54.45821762084961 161.14857482910156 66.97039794921875 164.25074768066406 67.83230590820312 C 179.7010040283203 96.37445831298828 178.22103881835938 117.64646911621094 172.04371643066406 116.9023208618164" stroke-width="2.0" fill="none" stroke="rgb(0, 0, 0)" stroke-opacity="1" stroke-linecap="round" stroke-linejoin="round"/>
    <path d="M 109.32857513427734 102.46602630615234 C 79.609130859375 93.333740234375 90.62759399414062 101.83628845214844 79.95465850830078 104.35836029052734" stroke-width="2.0" fill="none" stroke="rgb(0, 0, 0)" stroke-opacity="1" stroke-linecap="round" stroke-linejoin="round"/>
    <path d="M 25.12220001220703 52.935508728027344 C 5.54181432723999 67.6734619140625 1.056618332862854 80.69275665283203 0.8870161771774292 115.92862701416016" stroke-width="2.0" fill="none" stroke="rgb(0, 0, 0)" stroke-opacity="1" stroke-linecap="round" stroke-linejoin="round"/>
    <path d="M 115.50350952148438 78.31084442138672 C 92.85887145996094 76.10345458984375 125.285888671875 66.01165771484375 119.65237426757812 78.19574737548828 C 119.17046356201172 64.27062225341797 123.4916000366211 91.81329345703125 138.6726837158203 76.38626098632812 C 128.49620056152344 50.68876647949219 117.54774475097656 75.75377655029297 110.63170623779297 77.88661193847656" stroke-width="2.0" fill="none" stroke="rgb(0, 0, 0)" stroke-opacity="1" stroke-linecap="round" stroke-linejoin="round"/>
    <path d="M 46.05924606323242 214.18202209472656 C 14.297374725341797 195.55593872070312 -1.1841552257537842 186.31320190429688 6.084464073181152 158.1076202392578 C 33.87092208862305 182.15475463867188 44.17510986328125 194.25282287597656 21.871074676513672 171.80421447753906" stroke-width="2.0" fill="none" stroke="rgb(0, 0, 0)" stroke-opacity="1" stroke-linecap="round" stroke-linejoin="round"/>
    <path d="M 103.56184387207031 108.91453552246094 C 134.60169982910156 128.03439331054688 91.13214874267578 108.2816390991211 78.5882339477539 122.11539459228516" stroke-width="2.0" fill="none" stroke="rgb(0, 0, 0)" stroke-opacity="1" stroke-linecap="round" stroke-linejoin="round"/>
    <path d="M 144.14161682128906 133.64208984375 C 124.42459869384766 102.27011108398438 116.00618743896484 111.04833221435547 130.98129272460938 88.88956451416016 C 120.24771118164062 89.62300109863281 150.84713745117188 91.72294616699219 159.1415252685547 124.74504089355469" stroke-width="2.0" fill="none" stroke="rgb(0, 0, 0)" stroke-opacity="1" stroke-linecap="round" stroke-linejoin="round"/>
    <path d="M 32.11029815673828 40.31834411621094 C 61.87921905517578 57.7901496887207 52.07256317138672 44.22119903564453 27.525724411010742 54.96832275390625 C 54.89496994018555 43.844581604003906 30.55044937133789 45.06409454345703 50.744163513183594 56.863155364990234" stroke-width="2.0" fill="none" stroke="rgb(0, 0, 0)" stroke-opacity="1" stroke-linecap="round" stroke-linejoin="round"/>
    <path d="M 61.99715042114258 130.26492309570312 C 46.76063537597656 122.20069885253906 51.075767517089844 118.04412841796875 26.186758041381836 101.8647232055664 C 34.42033004760742 108.20413970947266 41.053829193115234 90.08756256103516 16.867887496948242 87.93124389648438" stroke-width="2.0" fill="none" stroke="rgb(0, 0, 0)" stroke-opacity="1" stroke-linecap="round" stroke-linejoin="round"/>
    <path d="M 58.804290771484375 73.69273376464844 C 47.16855239868164 63.41835021972656 37.98526382446289 93.56108093261719 46.21867370605469 102.6644515991211 C 28.65345573425293 105.93485260009766 39.618675231933594 125.04922485351562 59.64188766479492 108.02413940429688" stroke-width="2.0" fill="none" stroke="rgb(0, 0, 0)" stroke-opacity="1" stroke-linecap="round" stroke-linejoin="round"/>
    <path d="M 82.42725372314453 163.72569274902344 C 76.9654769897461 160.43878173828125 67.36255645751953 146.2045135498047 106.63729095458984 200.81134033203125 C 82.45413208007812 127.78235626220703 69.64603424072266 135.25711059570312 86.66908264160156 156.79139709472656 C 99.44916534423828 158.8991241455078 119.14700317382812 130.03384399414062 89.79967498779297 155.63043212890625" stroke-width="2.0" fill="none" stroke="rgb(0, 0, 0)" stroke-opacity="1" stroke-linecap="round" stroke-linejoin="round"/>
    <path d="M 140.79820251464844 54.11143493652344 C 149.02471923828125 29.783342361450195 138.64202880859375 41.44280242919922 114.60454559326172 47.59935760498047" stroke-width="2.0" fill="none" stroke="rgb(0, 0, 0)" stroke-opacity="1" stroke-linecap="round" stroke-linejoin="round"/>
    <path d="M 123.81023406982422 216.24795532226562 C 120.85275268554688 210.6025848388672 118.23501586914062 221.4393310546875 141.26156616210938 216.73374938964844 C 129.64959716796875 221.74923706054688 125.95269012451172 222.5978546142578 116.70528411865234 204.0875244140625" stroke-width="2.0" fill="none" stroke="rgb(0, 0, 0)" stroke-opacity="1" stroke-linecap="round" stroke-linejoin="round"/>
    <path d="M 77.25194549560547 32.20083236694336 C 59.742916107177734 16.932907104492188 72.68154907226562 50.111576080322266 71.40960693359375 26.134017944335938" stroke-width="2.0" fill="none" stroke="rgb(0, 0, 0)" stroke-opacity="1" stroke-linecap="round" stroke-linejoin="round"/>
    <path d="M 117.39689636230469 18.230628967285156 C 177.23629760742188 53.50320816040039 176.01824951171875 30.35552215576172 137.1145477294922 24.471527099609375 C 141.30311584472656 26.715463638305664 145.66688537597656 6.9701714515686035 183.48858642578125 7.705998420715332 C 152.9296875 21.416790008544922 130.20147705078125 12.90460205078125 157.61907958984375 21.095478057861328" stroke-width="2.0" fill="none" stroke="rgb(0, 0, 0)" stroke-opacity="1" stroke-linecap="round" stroke-linejoin="round"/>
    <path d="M 44.7302360534668 206.5908660888672 C 14.377707481384277 203.2404327392578 8.825689315795898 208.84637451171875 -2.5477421283721924 182.41128540039062 C 0.19355705380439758 235.146240234375 11.936247825622559 229.21420288085938 -5.404211521148682 238.43649291992188 C -7.638646125793457 226.71376037597656 12.378887176513672 230.8979949951172 17.12761688232422 226.32643127441406" stroke-width="2.0" fill="none" stroke="rgb(0, 0, 0)" stroke-opacity="1" stroke-linecap="round" stroke-linejoin="round"/>
    <path d="M 53.65477752685547 94.9417495727539 C 59.7885627746582 89.56884765625 63.9548225402832 56.2132568359375 38.75655746459961 44.01420974731445 C -4.452117443084717 40.35144805908203 33.54814910888672 46.49937438964844 45.532344818115234 66.66300201416016" stroke-width="2.0" fill="none" stroke="rgb(0, 0, 0)" stroke-opacity="1" stroke-linecap="round" stroke-linejoin="round"/>
    <path d="M 217.14259338378906 203.5395050048828 C 191.69140625 179.43212890625 222.29808044433594 175.2064666748047 206.04949951171875 175.1425018310547" stroke-width="2.0" fill="none" stroke="rgb(0, 0, 0)" stroke-opacity="1" stroke-linecap="round" stroke-linejoin="round"/>
    <path d="M 27.744003295898438 126.80601501464844 C 34.35075759887695 172.04129028320312 54.915950775146484 149.66331481933594 55.6019401550293 126.99571228027344 C 22.741666793823242 162.44264221191406 49.377403259277344 160.79745483398438 57.4498291015625 133.05984497070312 C 30.035381317138672 139.22544860839844 31.975791931152344 123.18643188476562 48.79572296142578 143.5386505126953" stroke-width="2.0" fill="none" stroke="rgb(0, 0, 0)" stroke-opacity="1" stroke-linecap="round" stroke-linejoin="round"/>
    <path d="M 43.94762420654297 29.675901412963867 C -9.180885314941406 25.229450225830078 32.565677642822266 39.379032135009766 50.195674896240234 49.515384674072266" stroke-width="2.0" fill="none" stroke="rgb(0, 0, 0)" stroke-opacity="1" stroke-linecap="round" stroke-linejoin="round"/>
    <path d="M 71.1307144165039 32.34388732910156 C 44.60713577270508 35.16641616821289 26.85477638244629 51.98545455932617 44.16008758544922 39.920204162597656 C 23.62995719909668 38.10770034790039 16.998945236206055 44.50855255126953 23.999759674072266 60.513221740722656" stroke-width="2.0" fill="none" stroke="rgb(0, 0, 0)" stroke-opacity="1" stroke-linecap="round" stroke-linejoin="round"/>
    <path d="M 44.20467758178711 67.22063446044922 C 18.736909866333008 39.06719207763672 0.07778863608837128 50.16054916381836 17.004730224609375 36.15708923339844 C 8.638908386230469 29.764781951904297 -1.7319873571395874 40.69835662841797 19.83712387084961 38.48680877685547 C -3.9080419540405273 39.965248107910156 4.9144110679626465 46.44474792480469 -2.102351188659668 69.1238021850586" stroke-width="2.0" fill="none" stroke="rgb(0, 0, 0)" stroke-opacity="1" stroke-linecap="round" stroke-linejoin="round"/>
    <path d="M 148.22622680664062 127.87286376953125 C 135.81451416015625 152.06228637695312 116.40127563476562 128.23023986816406 138.99462890625 131.43357849121094 C 137.16650390625 113.19178009033203 123.02810668945312 118.56584167480469 115.10387420654297 131.52687072753906" stroke-width="2.0" fill="none" stroke="rgb(0, 0, 0)" stroke-opacity="1" stroke-linecap="round" stroke-linejoin="round"/>
    <path d="M 130.11572265625 85.06566619873047 C 162.90846252441406 103.93219757080078 166.5321807861328 123.90351867675781 177.76368713378906 101.50588989257812 C 190.40774536132812 93.32398223876953 162.47903442382812 103.3353042602539 142.30764770507812 75.13885498046875 C 162.4263916015625 78.64015197753906 161.42625427246094 102.67913055419922 151.4938201904297 91.68517303466797" stroke-width="2.0" fill="none" stroke="rgb(0, 0, 0)" stroke-opacity="1" stroke-linecap="round" stroke-linejoin="round"/>
    <path d="M 124.36759185791016 157.06031799316406 C 124.76371002197266 207.42811584472656 116.38383483886719 152.98081970214844 129.26881408691406 146.390869140625 C 130.32449340820312 134.4539337158203 150.3064727783203 115.04944610595703 146.35305786132812 141.815673828125 C 157.06121826171875 113.18217468261719 183.07440185546875 116.13981628417969 170.48306274414062 153.94606018066406" stroke-width="2.0" fill="none" stroke="rgb(0, 0, 0)" stroke-opacity="1" stroke-linecap="round" stroke-linejoin="round"/>
    <path d="M 159.1816864013672 144.5811309814453 C 180.45394897460938 135.49783325195312 165.5139923095703 105.18107604980469 142.56460571289062 102.44821166992188" stroke-width="2.0" fill="none" stroke="rgb(0, 0, 0)" stroke-opacity="1" stroke-linecap="round" stroke-linejoin="round"/>
    <path d="M 111.7333755493164 7.179432392120361 C 124.62298583984375 31.17484474182129 97.63011169433594 24.330093383789062 124.17588806152344 12.474862098693848 C 102.56185150146484 1.4732186794281006 111.51399993896484 7.690511703491211 95.8610610961914 19.616058349609375" stroke-width="2.0" fill="none" stroke="rgb(0, 0, 0)" stroke-opacity="1" stroke-linecap="round" stroke-linejoin="round"/>
    <path d="M 173.35400390625 8.780115127563477 C 140.2564697265625 35.772850036621094 141.60963439941406 34.23405838012695 144.7109832763672 43.12825393676758" stroke-width="2.0" fill="none" stroke="rgb(0, 0, 0)" stroke-opacity="1" stroke-linecap="round" stroke-linejoin="round"/>
    <path d="M 17.27960777282715 140.29403686523438 C 15.779132843017578 147.8773651123047 25.405282974243164 180.73458862304688 41.815834045410156 163.27928161621094 C 25.835845947265625 172.67445373535156 19.969879150390625 179.1414031982422 49.871028900146484 204.1731414794922" stroke-width="2.0" fill="none" stroke="rgb(0, 0, 0)" stroke-opacity="1" stroke-linecap="round" stroke-linejoin="round"/>
    <path d="M 89.7760009765625 126.87259674072266 C 117.76657104492188 165.74761962890625 124.54757690429688 156.21609497070312 107.31206512451172 125.18384552001953" stroke-width="2.0" fill="none" stroke="rgb(0, 0, 0)" stroke-opacity="1" stroke-linecap="round" stroke-linejoin="round"/>
    <path d="M 230.5125732421875 108.70365905761719 C 221.63792419433594 54.36800765991211 223.05601501464844 86.04076385498047 216.69393920898438 101.02517700195312" stroke-width="2.0" fill="none" stroke="rgb(0, 0, 0)" stroke-opacity="1" stroke-linecap="round" stroke-linejoin="round"/>
    <path d="M -7.618518829345703 171.2695770263672 C -2.0827279090881348 178.10467529296875 -9.889322280883789 168.87876892089844 -2.9098591804504395 175.7928466796875 C -13.796618461608887 167.11044311523438 -20.473283767700195 167.2078399658203 -10.57152271270752 168.42535400390625" stroke-width="2.0" fill="none" stroke="rgb(0, 0, 0)" stroke-opacity="1" stroke-linecap="round" stroke-linejoin="round"/>
    <path d="M 113.02399444580078 34.066280364990234 C 89.4520034790039 30.10870933532715 129.14996337890625 40.30007553100586 106.44621276855469 36.56492614746094" stroke-width="2.0" fill="none" stroke="rgb(0, 0, 0)" stroke-opacity="1" stroke-linecap="round" stroke-linejoin="round"/>
    <path d="M 154.56716918945312 51.657047271728516 C 172.2848663330078 69.79631042480469 176.27867126464844 77.52393341064453 149.76708984375 50.504310607910156 C 174.25682067871094 83.78395080566406 178.41696166992188 117.64073944091797 161.81272888183594 91.00907135009766 C 198.30548095703125 84.15364074707031 205.32269287109375 41.24121856689453 190.3845672607422 71.60961151123047" stroke-width="2.0" fill="none" stroke="rgb(0, 0, 0)" stroke-opacity="1" stroke-linecap="round" stroke-linejoin="round"/>
    <path d="M 165.7400360107422 79.99641418457031 C 169.69932556152344 98.56591033935547 150.06008911132812 93.63208770751953 139.0123291015625 109.1068344116211" stroke-width="2.0" fill="none" stroke="rgb(0, 0, 0)" stroke-opacity="1" stroke-linecap="round" stroke-linejoin="round"/>
    <path d="M 103.2205581665039 216.2378387451172 C 77.19673156738281 203.7764434814453 99.6593246459961 208.50119018554688 124.4336166381836 227.88047790527344 C 90.30804443359375 214.72793579101562 99.9121322631836 201.0287628173828 114.80919647216797 222.10047912597656 C 70.28791046142578 208.51039123535156 69.32994079589844 195.41714477539062 122.16680145263672 226.6809844970703" stroke-width="2.0" fill="none" stroke="rgb(0, 0, 0)" stroke-opacity="1" stroke-linecap="round" stroke-linejoin="round"/>
    <path d="M -5.464463710784912 155.26820373535156 C 7.607285499572754 101.43759155273438 15.696334838867188 94.92286682128906 31.861988067626953 102.8940200805664 C 42.206077575683594 101.29531860351562 26.75881004333496 85.54967498779297 11.003575325012207 103.03733825683594 C -2.4897055625915527 108.05094146728516 5.869178771972656 121.2936019897461 -12.366950988769531 133.4644775390625" stroke-width="2.0" fill="none" stroke="rgb(0, 0, 0)" stroke-opacity="1" stroke-linecap="round" stroke-linejoin="round"/>
    <path d="M 52.463924407958984 61.20704650878906 C 70.96259307861328 57.56513214111328 55.1934700012207 95.82742309570312 59.5594367980957 79.9681167602539 C 60.57400894165039 67.36048126220703 63.433780670166016 76.6628646850586 55.46656036376953 93.82979583740234" stroke-width="2.0" fill="none" stroke="rgb(0, 0, 0)" stroke-opacity="1" stroke-linecap="round" stroke-linejoin="round"/>
    <path d="M 146.24110412597656 45.84682846069336 C 140.80670166015625 37.50502014160156 143.21905517578125 53.568603515625 141.3105926513672 44.991825103759766" stroke-width="2.0" fill="none" stroke="rgb(0, 0, 0)" stroke-opacity="1" stroke-linecap="round" stroke-linejoin="round"/>
    <path d="M 27.731708526611328 23.55756187438965 C -6.634970664978027 31.35848617553711 4.964668273925781 31.428110122680664 -3.194532871246338 53.643096923828125" stroke-width="2.0" fill="none" stroke="rgb(0, 0, 0)" stroke-opacity="1" stroke-linecap="round" stroke-linejoin="round"/>
    <path d="M 76.60324096679688 187.2612762451172 C 50.02058410644531 140.24728393554688 68.2651138305664 180.07931518554688 73.25125122070312 189.47653198242188 C 87.9518814086914 207.15792846679688 92.70481872558594 190.26953125 110.68595886230469 222.63526916503906 C 69.87678527832031 216.4536895751953 26.834938049316406 216.07000732421875 72.01402282714844 214.06065368652344" stroke-width="2.0" fill="none" stroke="rgb(0, 0, 0)" stroke-opacity="1" stroke-linecap="round" stroke-linejoin="round"/>
    <path d="M 57.77233123779297 125.21936798095703 C 40.1499137878418 139.61351013183594 48.82623291015625 138.30203247070312 42.48841094970703 140.7606964111328 C 65.06877899169922 152.69590759277344 23.8438663482666 141.04855346679688 33.954715728759766 156.9937286376953" stroke-width="2.0" fill="none" stroke="rgb(0, 0, 0)" stroke-opacity="1" stroke-linecap="round" stroke-linejoin="round"/>
    <path d="M 145.06480407714844 123.35324096679688 C 134.06423950195312 122.564453125 136.37730407714844 141.8900146484375 155.72555541992188 112.14198303222656 C 211.26614379882812 156.4755096435547 153.470458984375 152.26046752929688 180.9102325439453 158.6741180419922 C 183.743896484375 154.86463928222656 204.61898803710938 118.8563003540039 215.13693237304688 92.6974105834961" stroke-width="2.0" fill="none" stroke="rgb(0, 0, 0)" stroke-opacity="1" stroke-linecap="round" stroke-linejoin="round"/>
    <path d="M 61.89847183227539 22.430118560791016 C 77.36344909667969 32.4908447265625 49.44179916381836 32.404170989990234 81.17974090576172 16.554969787597656 C 50.30543518066406 -8.41062068939209 120.1304931640625 4.748939514160156 75.6998519897461 10.276223182678223 C 65.21539306640625 -12.853677749633789 48.37446594238281 18.546403884887695 59.67057800292969 6.898501396179199" stroke-width="2.0" fill="none" stroke="rgb(0, 0, 0)" stroke-opacity="1" stroke-linecap="round" stroke-linejoin="round"/>
    <path d="M 66.87130737304688 10.656023979187012 C 127.9713363647461 -12.944134712219238 122.3170394897461 -1.7515732049942017 89.1711196899414 -4.092856407165527 C 69.7197494506836 -19.644933700561523 96.72727966308594 -2.7862954139709473 94.53378295898438 -5.779665946960449 C 89.99405670166016 -1.6403928995132446 112.76089477539062 14.03282356262207 124.3460922241211 12.729875564575195" stroke-width="2.0" fill="none" stroke="rgb(0, 0, 0)" stroke-opacity="1" stroke-linecap="round" stroke-linejoin="round"/>
    <path d="M -0.3920777440071106 18.084758758544922 C 12.832551956176758 46.02446365356445 8.914131164550781 19.556406021118164 -3.9210574626922607 4.646275520324707 C -1.0195324420928955 25.330503463745117 29.875062942504883 27.025442123413086 47.79378890991211 11.846418380737305 C 32.97093963623047 34.848419189453125 3.3088645935058594 40.7485237121582 21.00713348388672 60.600406646728516" stroke-width="2.0" fill="none" stroke="rgb(0, 0, 0)" stroke-opacity="1" stroke-linecap="round" stroke-linejoin="round"/>
    <path d="M 56.893638610839844 112.56163787841797 C 86.53770446777344 123.95540618896484 57.31438446044922 124.41668701171875 50.71428298950195 98.21739196777344 C 61.358642578125 104.22515106201172 67.45035552978516 112.10577392578125 52.88225555419922 118.36542510986328" stroke-width="2.0" fill="none" stroke="rgb(0, 0, 0)" stroke-opacity="1" stroke-linecap="round" stroke-linejoin="round"/>
    <path d="M 20.54815101623535 136.28134155273438 C 20.298980712890625 172.27207946777344 8.489357948303223 173.906005859375 16.53325843811035 180.9444580078125" stroke-width="2.0" fill="none" stroke="rgb(0, 0, 0)" stroke-opacity="1" stroke-linecap="round" stroke-linejoin="round"/>
    <path d="M 78.01034545898438 72.61735534667969 C 116.80863952636719 86.38607788085938 109.5873031616211 98.10820770263672 98.49700164794922 82.02613830566406 C 116.78746032714844 120.30681610107422 111.64497375488281 100.34231567382812 110.73524475097656 80.51422119140625 C 108.19043731689453 73.88460540771484 118.20987701416016 83.06675720214844 139.17926025390625 117.27174377441406" stroke-width="2.0" fill="none" stroke="rgb(0, 0, 0)" stroke-opacity="1" stroke-linecap="round" stroke-linejoin="round"/>
    <path d="M 47.98836135864258 150.6198272705078 C 36.24171829223633 139.6072998046875 51.43543243408203 167.78952026367188 36.82685852050781 125.86302947998047" stroke-width="2.0" fill="none" stroke="rgb(0, 0, 0)" stroke-opacity="1" stroke-linecap="round" stroke-linejoin="round"/>
    <path d="M 128.32473754882812 127.15629577636719 C 122.8502426147461 86.27700805664062 132.35977172851562 97.2812728881836 152.0039825439453 130.83644104003906" stroke-width="2.0" fill="none" stroke="rgb(0, 0, 0)" stroke-opacity="1" stroke-linecap="round" stroke-linejoin="round"/>
    <path d="M 14.196600914001465 163.7642822265625 C 33.2362060546875 165.88812255859375 4.819709777832031 146.72488403320312 16.2323055267334 113.76300048828125 C 25.46645736694336 156.94598388671875 21.687503814697266 165.1060333251953 7.6277923583984375 154.48614501953125 C 14.117890357971191 165.7608184814453 -0.7236499786376953 173.1871795654297 12.554001808166504 182.6634063720703" stroke-width="2.0" fill="none" stroke="rgb(0, 0, 0)" stroke-opacity="1" stroke-linecap="round" stroke-linejoin="round"/>
    <path d="M 75.05262756347656 198.86814880371094 C 48.450111389160156 186.99566650390625 67.13755798339844 115.24551391601562 53.9986457824707 183.28253173828125 C 51.02648162841797 157.28131103515625 81.14595031738281 143.781982421875 75.0573959350586 135.4024200439453 C 43.42532730102539 179.33753967285156 52.270416259765625 175.19456481933594 71.03759002685547 131.8295135498047" stroke-width="2.0" fill="none" stroke="rgb(0, 0, 0)" stroke-opacity="1" stroke-linecap="round" stroke-linejoin="round"/>
    <path d="M 125.23204803466797 37.32560729980469 C 109.43991088867188 58.93738555908203 66.0032958984375 58.650848388671875 107.11727905273438 61.05835723876953 C 137.99583435058594 54.02958679199219 151.558349609375 49.715782165527344 92.11624908447266 58.69187545776367" stroke-width="2.0" fill="none" stroke="rgb(0, 0, 0)" stroke-opacity="1" stroke-linecap="round" stroke-linejoin="round"/>
    <path d="M 67.3183822631836 102.19487762451172 C 103.47947692871094 108.67147064208984 109.35346984863281 105.23995971679688 113.26695251464844 66.71208190917969 C 125.47050476074219 82.99956512451172 112.42354583740234 125.64471435546875 114.93914794921875 93.28697967529297" stroke-width="2.0" fill="none" stroke="rgb(0, 0, 0)" stroke-opacity="1" stroke-linecap="round" stroke-linejoin="round"/>
    <path d="M 110.59779357910156 224.59585571289062 C 37.099239349365234 226.81863403320312 38.13520431518555 201.43643188476562 100.61217498779297 207.5123748779297" stroke-width="2.0" fill="none" stroke="rgb(0, 0, 0)" stroke-opacity="1" stroke-linecap="round" stroke-linejoin="round"/>
    <path d="M 40.63298797607422 187.2313690185547 C 49.14006423950195 202.68283081054688 36.689353942871094 173.1904754638672 54.51181411743164 147.5556182861328 C 54.515567779541016 154.196044921875 84.12865447998047 157.6726837158203 59.98595428466797 161.62957763671875 C 59.44590377807617 159.05555725097656 55.078365325927734 128.152587890625 74.5721206665039 187.1983642578125" stroke-width="2.0" fill="none" stroke="rgb(0, 0, 0)" stroke-opacity="1" stroke-linecap="round" stroke-linejoin="round"/>
    <path d="M 207.3208770751953 101.15303039550781 C 180.03756713867188 129.35824584960938 191.3195343017578 128.32472229003906 207.20260620117188 105.41826629638672 C 171.96014404296875 128.99343872070312 193.10568237304688 98.60320281982422 181.1089630126953 81.09272766113281 C 162.45240783691406 95.21502685546875 179.5942840576172 129.21438598632812 187.93850708007812 80.59012603759766" stroke-width="2.0" fill="none" stroke="rgb(0, 0, 0)" stroke-opacity="1" stroke-linecap="round" stroke-linejoin="round"/>
    <path d="M 40.55295944213867 183.83688354492188 C 33.07732009887695 177.2523956298828 17.295772552490234 163.31069946289062 14.730330467224121 164.96609497070312" stroke-width="2.0" fill="none" stroke="rgb(0, 0, 0)" stroke-opacity="1" stroke-linecap="round" stroke-linejoin="round"/>
    <path d="M 138.73263549804688 131.77471923828125 C 142.88522338867188 142.9310760498047 153.44375610351562 182.8520050048828 123.81104278564453 204.62210083007812 C 157.10348510742188 197.84815979003906 134.25050354003906 130.4850616455078 140.25985717773438 169.99609375" stroke-width="2.0" fill="none" stroke="rgb(0, 0, 0)" stroke-opacity="1" stroke-linecap="round" stroke-linejoin="round"/>
    <path d="M 90.78447723388672 115.1737060546875 C 71.6436538696289 117.41252136230469 99.67822265625 146.3065643310547 107.8356704711914 169.14532470703125 C 102.55484771728516 122.3494644165039 51.58616638183594 117.24530792236328 116.69529724121094 130.7045135498047" stroke-width="2.0" fill="none" stroke="rgb(0, 0, 0)" stroke-opacity="1" stroke-linecap="round" stroke-linejoin="round"/>
    <path d="M 50.876564025878906 -5.230151653289795 C 50.98469924926758 24.89737319946289 21.423282623291016 50.25056457519531 -0.7258461713790894 12.63613510131836 C 34.06692886352539 28.07200813293457 47.09262466430664 -3.1933867931365967 80.18603515625 -4.428225040435791" stroke-width="2.0" fill="none" stroke="rgb(0, 0, 0)" stroke-opacity="1" stroke-linecap="round" stroke-linejoin="round"/>
    <path d="M 231.2042694091797 149.84487915039062 C 217.98336791992188 169.74072265625 215.30288696289062 187.8433074951172 229.06820678710938 188.3424072265625 C 215.92837524414062 175.52871704101562 208.67245483398438 164.48204040527344 188.1968231201172 160.0954132080078 C 233.5874786376953 186.49752807617188 231.02450561523438 191.5041961669922 228.07476806640625 173.2576446533203" stroke-width="2.0" fill="none" stroke="rgb(0, 0, 0)" stroke-opacity="1" stroke-linecap="round" stroke-linejoin="round"/>
    <path d="M 101.69173431396484 117.5512924194336 C 132.35797119140625 128.18946838378906 73.17949676513672 117.69174194335938 116.59494018554688 136.1233673095703" stroke-width="2.0" fill="none" stroke="rgb(0, 0, 0)" stroke-opacity="1" stroke-linecap="round" stroke-linejoin="round"/>
    <path d="M 163.22198486328125 233.50167846679688 C 133.49012756347656 231.50942993164062 124.4185791015625 237.70730590820312 137.6809539794922 226.13572692871094 C 122.51841735839844 226.66143798828125 103.47943878173828 234.0309600830078 93.89652252197266 236.88015747070312" stroke-width="2.0" fill="none" stroke="rgb(0, 0, 0)" stroke-opacity="1" stroke-linecap="round" stroke-linejoin="round"/>
    <path d="M 113.4139175415039 200.54644775390625 C 96.84660339355469 192.21949768066406 86.5037841796875 147.73712158203125 111.0505599975586 201.15257263183594" stroke-width="2.0" fill="none" stroke="rgb(0, 0, 0)" stroke-opacity="1" stroke-linecap="round" stroke-linejoin="round"/>
    <path d="M 232.1937713623047 199.39910888671875 C 225.00662231445312 195.91415405273438 208.03384399414062 187.3843536376953 203.21893310546875 173.93359375" stroke-width="2.0" fill="none" stroke="rgb(0, 0, 0)" stroke-opacity="1" stroke-linecap="round" stroke-linejoin="round"/>
    <path d="M 35.00181579589844 73.2496109008789 C 15.637397766113281 68.98954772949219 24.751741409301758 62.5982551574707 45.58174514770508 37.30958938598633" stroke-width="2.0" fill="none" stroke="rgb(0, 0, 0)" stroke-opacity="1" stroke-linecap="round" stroke-linejoin="round"/>
    <path d="M 112.04142761230469 184.2261505126953 C 83.73355865478516 164.13340759277344 70.24069213867188 121.78443908691406 96.2417221069336 180.20997619628906" stroke-width="2.0" fill="none" stroke="rgb(0, 0, 0)" stroke-opacity="1" stroke-linecap="round" stroke-linejoin="round"/>
    <path d="M 52.115142822265625 142.32131958007812 C 26.16862678527832 167.05087280273438 56.708251953125 169.0380401611328 46.77361297607422 151.48138427734375 C 22.689655303955078 170.73605346679688 41.02219772338867 154.30776977539062 40.9539794921875 168.40838623046875" stroke-width="2.0" fill="none" stroke="rgb(0, 0, 0)" stroke-opacity="1" stroke-linecap="round" stroke-linejoin="round"/>
    <path d="M 141.5766143798828 61.456546783447266 C 141.8607177734375 21.364137649536133 111.20632934570312 23.635866165161133 136.0871124267578 17.883893966674805 C 128.8333740234375 82.24270629882812 127.95848083496094 65.88420104980469 144.26107788085938 31.60597801208496 C 132.131103515625 34.358184814453125 149.99497985839844 20.77711296081543 159.4253387451172 15.357369422912598" stroke-width="2.0" fill="none" stroke="rgb(0, 0, 0)" stroke-opacity="1" stroke-linecap="round" stroke-linejoin="round"/>
    <path d="M 154.82786560058594 169.59275817871094 C 146.63168334960938 206.66888427734375 163.9668731689453 158.06509399414062 160.42404174804688 181.30197143554688 C 187.6321258544922 161.160400390625 165.91282653808594 166.49452209472656 163.1199951171875 158.21304321289062 C 139.08712768554688 179.6861572265625 166.96322631835938 174.09706115722656 192.3386993408203 136.21090698242188" stroke-width="2.0" fill="none" stroke="rgb(0, 0, 0)" stroke-opacity="1" stroke-linecap="round" stroke-linejoin="round"/>
    <path d="M 12.459482192993164 217.17857360839844 C 36.06926727294922 218.0299072265625 58.91193389892578 228.55093383789062 69.61410522460938 233.54104614257812" stroke-width="2.0" fill="none" stroke="rgb(0, 0, 0)" stroke-opacity="1" stroke-linecap="round" stroke-linejoin="round"/>
    <path d="M 66.32698822021484 196.55763244628906 C 36.59821701049805 208.992919921875 53.06465148925781 165.86849975585938 28.3745174407959 183.94371032714844 C 39.14567565917969 195.10403442382812 21.495344161987305 181.84637451171875 33.96163558959961 175.3197784423828 C 43.5932731628418 193.0379638671875 51.67781448364258 167.1166229248047 32.565311431884766 181.57229614257812" stroke-width="2.0" fill="none" stroke="rgb(0, 0, 0)" stroke-opacity="1" stroke-linecap="round" stroke-linejoin="round"/>
    <path d="M 124.33631896972656 216.10076904296875 C 118.58053588867188 214.86068725585938 108.47726440429688 211.75759887695312 112.72376251220703 198.3917236328125" stroke-width="2.0" fill="none" stroke="rgb(0, 0, 0)" stroke-opacity="1" stroke-linecap="round" stroke-linejoin="round"/>
    <path d="M 169.47544860839844 117.92558288574219 C 143.65675354003906 83.91915893554688 140.1656951904297 88.28691864013672 156.69615173339844 113.0135726928711 C 170.49203491210938 104.95217895507812 164.95248413085938 105.02405548095703 185.502685546875 127.05670928955078" stroke-width="2.0" fill="none" stroke="rgb(0, 0, 0)" stroke-opacity="1" stroke-linecap="round" stroke-linejoin="round"/>
    <path d="M 151.62644958496094 46.63819122314453 C 129.2720489501953 63.50025177001953 127.24227142333984 73.21034240722656 139.477294921875 80.2749252319336 C 161.0358123779297 64.66224670410156 159.43505859375 85.11003875732422 124.49537658691406 68.83061981201172 C 138.1739959716797 43.3622932434082 151.71153259277344 79.4025650024414 120.19630432128906 56.544612884521484" stroke-width="2.0" fill="none" stroke="rgb(0, 0, 0)" stroke-opacity="1" stroke-linecap="round" stroke-linejoin="round"/>
    <path d="M 86.22945404052734 152.7196807861328 C 101.34171295166016 153.81649780273438 102.45697021484375 162.56101989746094 111.49832153320312 170.06112670898438 C 113.16864776611328 141.56259155273438 81.4554443359375 161.8897705078125 115.62306213378906 148.28506469726562" stroke-width="2.0" fill="none" stroke="rgb(0, 0, 0)" stroke-opacity="1" stroke-linecap="round" stroke-linejoin="round"/>
    <path d="M 116.5942153930664 149.9845428466797 C 104.67619323730469 123.66695404052734 129.49667358398438 128.98367309570312 117.40694427490234 146.24098205566406 C 88.69219207763672 159.36419677734375 115.92083740234375 149.35348510742188 111.41487884521484 185.16358947753906" stroke-width="2.0" fill="none" stroke="rgb(0, 0, 0)" stroke-opacity="1" stroke-linecap="round" stroke-linejoin="round"/>
    <path d="M -3.2792935371398926 94.09730529785156 C 2.991178035736084 63.129539489746094 -17.567108154296875 45.081298828125 -15.407512664794922 68.9849853515625 C -4.7062249183654785 72.66704559326172 -7.0222344398498535 55.044464111328125 5.416574954986572 24.71156120300293 C -12.312446594238281 -13.886051177978516 5.935755729675293 22.048696517944336 34.327362060546875 -3.14392352104187" stroke-width="2.0" fill="none" stroke="rgb(0, 0, 0)" stroke-opacity="1" stroke-linecap="round" stroke-linejoin="round"/>
    <path d="M 45.91035842895508 103.13166809082031 C 21.78213882446289 90.42304229736328 28.371227264404297 120.00035095214844 55.71821975708008 143.9930877685547 C 55.44947814941406 115.67969512939453 19.646421432495117 113.6395263671875 49.95381164550781 100.12383270263672 C 51.80167770385742 74.705322265625 15.381437301635742 49.438636779785156 17.80234146118164 88.80724334716797" stroke-width="2.0" fill="none" stroke="rgb(0, 0, 0)" stroke-opacity="1" stroke-linecap="round" stroke-linejoin="round"/>
    <path d="M 153.16664123535156 103.2376480102539 C 133.59078979492188 102.70885467529297 108.9576416015625 51.60849380493164 137.05941772460938 73.87870025634766" stroke-width="2.0" fill="none" stroke="rgb(0, 0, 0)" stroke-opacity="1" stroke-linecap="round" stroke-linejoin="round"/>
    <path d="M 89.79625701904297 25.06033706665039 C 74.17300415039062 14.99118423461914 71.59679412841797 50.96912384033203 81.2525634765625 52.70064163208008 C 67.64306640625 50.46229553222656 64.3083724975586 40.21128845214844 59.22262954711914 48.913230895996094 C 96.56182098388672 45.52113342285156 95.50182342529297 41.11520767211914 78.08502960205078 3.1358745098114014" stroke-width="2.0" fill="none" stroke="rgb(0, 0, 0)" stroke-opacity="1" stroke-linecap="round" stroke-linejoin="round"/>
    <path d="M 40.01462936401367 82.81657409667969 C 16.93309211730957 101.55912780761719 31.34452247619629 119.51786041259766 59.580230712890625 93.19706726074219 C 34.86893081665039 96.46601104736328 48.82718276977539 107.55378723144531 31.791149139404297 106.6090316772461 C 43.214298248291016 104.48626708984375 63.56230926513672 84.84054565429688 22.33419418334961 71.25489044189453" stroke-width="2.0" fill="none" stroke="rgb(0, 0, 0)" stroke-opacity="1" stroke-linecap="round" stroke-linejoin="round"/>
    <path d="M 220.87319946289062 55.96881103515625 C 215.65785217285156 93.38081359863281 187.33311462402344 102.40068817138672 185.46661376953125 54.501075744628906" stroke-width="2.0" fill="none" stroke="rgb(0, 0, 0)" stroke-opacity="1" stroke-linecap="round" stroke-linejoin="round"/>
    <path d="M 160.1942138671875 168.40542602539062 C 138.6466522216797 205.46063232421875 163.16358947753906 155.15687561035156 148.18630981445312 160.643310546875 C 172.67303466796875 171.471435546875 176.67831420898438 185.00961303710938 127.1059799194336 212.31800842285156 C 135.5398406982422 193.88523864746094 179.75926208496094 201.84144592285156 189.40187072753906 205.08251953125" stroke-width="2.0" fill="none" stroke="rgb(0, 0, 0)" stroke-opacity="1" stroke-linecap="round" stroke-linejoin="round"/>
    <path d="M 217.62274169921875 49.44423294067383 C 196.69374084472656 26.700382232666016 184.82666015625 72.58084869384766 227.19992065429688 49.95366287231445 C 234.66676330566406 35.12166976928711 221.3374481201172 43.024837493896484 220.96136474609375 60.06549835205078 C 229.62989807128906 90.76277160644531 216.88755798339844 52.171451568603516 227.7995147705078 38.116432189941406" stroke-width="2.0" fill="none" stroke="rgb(0, 0, 0)" stroke-opacity="1" stroke-linecap="round" stroke-linejoin="round"/>
    <path d="M 33.46326446533203 130.1877899169922 C 23.943544387817383 123.84803009033203 29.585609436035156 129.3818359375 42.945369720458984 141.48741149902344" stroke-width="2.0" fill="none" stroke="rgb(0, 0, 0)" stroke-opacity="1" stroke-linecap="round" stroke-linejoin="round"/>
    <path d="M 85.1175537109375 4.79837703704834 C 99.51382446289062 34.15485382080078 87.68563842773438 32.292545318603516 78.94792175292969 55.38368225097656 C 78.82855987548828 68.07359313964844 105.2340087890625 38.67267990112305 85.56280517578125 23.94196128845215" stroke-width="2.0" fill="none" stroke="rgb(0, 0, 0)" stroke-opacity="1" stroke-linecap="round" stroke-linejoin="round"/>
    <path d="M 37.854549407958984 46.09605407714844 C 30.79962158203125 39.73139190673828 14.889242172241211 38.56448745727539 40.56505584716797 40.23738479614258" stroke-width="2.0" fill="none" stroke="rgb(0, 0, 0)" stroke-opacity="1" stroke-linecap="round" stroke-linejoin="round"/>
    <path d="M 29.26983070373535 85.88600158691406 C 36.11578369140625 106.2587661743164 24.59979820251465 84.89093780517578 6.918176174163818 93.84581756591797 C -2.810795783996582 104.69817352294922 6.2655534744262695 86.09959411621094 11.38985538482666 91.68653869628906" stroke-width="2.0" fill="none" stroke="rgb(0, 0, 0)" stroke-opacity="1" stroke-linecap="round" stroke-linejoin="round"/>
    <path d="M 48.07152557373047 8.290901184082031 C 18.829442977905273 31.838672637939453 -7.222048282623291 7.655634880065918 -4.686192035675049 17.242908477783203 C -4.453184604644775 44.627254486083984 5.4105000495910645 46.53398895263672 -7.394625663757324 26.38471794128418" stroke-width="2.0" fill="none" stroke="rgb(0, 0, 0)" stroke-opacity="1" stroke-linecap="round" stroke-linejoin="round"/>
    <path d="M 21.53824234008789 100.86805725097656 C 2.8631088733673096 139.97178649902344 19.900070190429688 162.72396850585938 26.849040985107422 150.30789184570312 C 22.61977195739746 170.22091674804688 -10.68417739868164 158.38534545898438 16.05675506591797 106.1871337890625 C 37.457271575927734 116.26573181152344 20.87215805053711 139.6765899658203 25.779346466064453 103.33518981933594" stroke-width="2.0" fill="none" stroke="rgb(0, 0, 0)" stroke-opacity="1" stroke-linecap="round" stroke-linejoin="round"/>
    <path d="M 165.0039825439453 134.02415466308594 C 189.1665802001953 120.49462127685547 188.2716827392578 108.52719116210938 168.98321533203125 118.6629867553711 C 178.50291442871094 135.60618591308594 178.35414123535156 141.73904418945312 165.65196228027344 139.57696533203125 C 163.65609741210938 148.992431640625 148.2559356689453 127.23442840576172 180.12350463867188 141.13076782226562" stroke-width="2.0" fill="none" stroke="rgb(0, 0, 0)" stroke-opacity="1" stroke-linecap="round" stroke-linejoin="round"/>
    <path d="M 7.811524868011475 121.93883514404297 C 12.768875122070312 99.01039123535156 35.478084564208984 105.54714965820312 52.299015045166016 93.60530090332031 C 38.51243209838867 104.83448028564453 36.555110931396484 107.73055267333984 40.73884963989258 100.35626220703125 C 19.246166229248047 98.5966796875 15.884697914123535 83.8436050415039 28.925539016723633 70.56539154052734" stroke-width="2.0" fill="none" stroke="rgb(0, 0, 0)" stroke-opacity="1" stroke-linecap="round" stroke-linejoin="round"/>
    <path d="M 214.3941650390625 -11.037249565124512 C 208.77064514160156 -7.095160961151123 202.52224731445312 8.166960716247559 211.40249633789062 1.8562958240509033 C 199.93453979492188 1.6794216632843018 183.56649780273438 -1.7656277418136597 213.750732421875 0.19086195528507233 C 202.45953369140625 7.008094310760498 219.72496032714844 8.191849708557129 197.5144500732422 -0.5958198308944702" stroke-width="2.0" fill="none" stroke="rgb(0, 0, 0)" stroke-opacity="1" stroke-linecap="round" stroke-linejoin="round"/>
    <path d="M 57.57182693481445 105.08932495117188 C 94.58023834228516 113.41824340820312 81.806884765625 85.26905822753906 91.33177185058594 96.23243713378906" stroke-width="2.0" fill="none" stroke="rgb(0, 0, 0)" stroke-opacity="1" stroke-linecap="round" stroke-linejoin="round"/>
    <path d="M 195.0692901611328 130.34544372558594 C 179.97030639648438 144.97666931152344 159.49856567382812 127.543701171875 160.22523498535156 117.25031280517578 C 170.58294677734375 99.4607925415039 165.80357360839844 101.88914489746094 175.9730224609375 100.19550323486328 C 158.01564025878906 155.49478149414062 142.9971160888672 170.43141174316406 175.77273559570312 149.33538818359375" stroke-width="2.0" fill="none" stroke="rgb(0, 0, 0)" stroke-opacity="1" stroke-linecap="round" stroke-linejoin="round"/>
    <path d="M 227.6688690185547 79.93730926513672 C 219.5368194580078 103.00979614257812 224.1946258544922 125.9450454711914 228.96856689453125 159.06069946289062" stroke-width="2.0" fill="none" stroke="rgb(0, 0, 0)" stroke-opacity="1" stroke-linecap="round" stroke-linejoin="round"/>
    <path d="M 76.50726318359375 147.90016174316406 C 59.89084243774414 111.29834747314453 65.87747955322266 105.93568420410156 86.04684448242188 144.2593994140625 C 90.58749389648438 145.13229370117188 74.513916015625 97.29215240478516 99.65532684326172 115.31688690185547 C 111.63067626953125 123.91649627685547 77.68824768066406 114.1882553100586 61.54008865356445 146.0622100830078" stroke-width="2.0" fill="none" stroke="rgb(0, 0, 0)" stroke-opacity="1" stroke-linecap="round" stroke-linejoin="round"/>
    <path d="M 25.863380432128906 45.436763763427734 C 66.8692626953125 21.89336395263672 74.16720581054688 40.290157318115234 89.77738952636719 43.82617950439453 C 80.90143585205078 63.9072151184082 77.4717025756836 65.94388580322266 108.7242660522461 43.271888732910156" stroke-width="2.0" fill="none" stroke="rgb(0, 0, 0)" stroke-opacity="1" stroke-linecap="round" stroke-linejoin="round"/>
    <path d="M 222.3539581298828 41.94696807861328 C 211.8916778564453 72.17827606201172 199.14346313476562 60.83475112915039 207.26522827148438 48.40036392211914 C 214.41036987304688 20.61377716064453 228.7704620361328 55.86249542236328 208.1312713623047 63.41305923461914 C 211.1992950439453 41.70821762084961 231.78688049316406 34.12236404418945 222.35592651367188 59.81460189819336" stroke-width="2.0" fill="none" stroke="rgb(0, 0, 0)" stroke-opacity="1" stroke-linecap="round" stroke-linejoin="round"/>
    <path d="M 123.25099182128906 138.54698181152344 C 137.93702697753906 117.2669448852539 144.3284912109375 173.8628387451172 146.83981323242188 139.07020568847656" stroke-width="2.0" fill="none" stroke="rgb(0, 0, 0)" stroke-opacity="1" stroke-linecap="round" stroke-linejoin="round"/>
    <path d="M 48.389705657958984 18.096927642822266 C 75.80769348144531 28.40377426147461 55.534420013427734 43.7167854309082 47.91328048706055 36.416107177734375 C 43.715538024902344 27.625102996826172 64.908935546875 30.98341941833496 71.32044982910156 55.732967376708984" stroke-width="2.0" fill="none" stroke="rgb(0, 0, 0)" stroke-opacity="1" stroke-linecap="round" stroke-linejoin="round"/>
    <path d="M 54.55949783325195 90.87774658203125 C 62.87032699584961 84.94325256347656 37.222530364990234 95.53495025634766 57.1328010559082 106.20557403564453" stroke-width="2.0" fill="none" stroke="rgb(0, 0, 0)" stroke-opacity="1" stroke-linecap="round" stroke-linejoin="round"/>
    <path d="M 22.55520248413086 110.3821792602539 C 16.05318260192871 143.69717407226562 29.454328536987305 154.48150634765625 33.045082092285156 154.35684204101562 C 32.0939826965332 147.06117248535156 -1.868554711341858 159.62283325195312 18.578237533569336 175.98318481445312" stroke-width="2.0" fill="none" stroke="rgb(0, 0, 0)" stroke-opacity="1" stroke-linecap="round" stroke-linejoin="round"/>
    <path d="M 187.82260131835938 52.07777786254883 C 210.48777770996094 81.5702896118164 220.4679412841797 55.25899887084961 220.30665588378906 43.4688606262207 C 239.06875610351562 50.01945114135742 251.6470947265625 26.588592529296875 256.7122802734375 14.817639350891113" stroke-width="2.0" fill="none" stroke="rgb(0, 0, 0)" stroke-opacity="1" stroke-linecap="round" stroke-linejoin="round"/>
    <path d="M 206.62815856933594 62.01363754272461 C 177.932373046875 25.32355499267578 158.08033752441406 44.94804382324219 142.5712432861328 58.51799011230469 C 166.39491271972656 38.13021469116211 167.67909240722656 54.37997055053711 153.56887817382812 50.98440170288086 C 132.00973510742188 33.95635223388672 161.49652099609375 22.895790100097656 184.65408325195312 72.04313659667969" stroke-width="2.0" fill="none" stroke="rgb(0, 0, 0)" stroke-opacity="1" stroke-linecap="round" stroke-linejoin="round"/>
    <path d="M 0.10776077955961227 216.5765380859375 C 22.377490997314453 230.25137329101562 62.83213424682617 225.6427001953125 31.607200622558594 228.24192810058594 C -12.112385749816895 218.17442321777344 -21.403493881225586 212.95323181152344 -9.821240425109863 216.408447265625" stroke-width="2.0" fill="none" stroke="rgb(0, 0, 0)" stroke-opacity="1" stroke-linecap="round" stroke-linejoin="round"/>
    <path d="M 155.98875427246094 228.3148651123047 C 154.67831420898438 234.13876342773438 165.8157958984375 238.557373046875 162.81903076171875 248.228515625 C 159.54257202148438 243.66477966308594 162.60232543945312 241.24322509765625 159.3853302001953 244.0911407470703 C 154.37191772460938 241.1579132080078 164.57073974609375 239.00848388671875 174.44935607910156 238.5810546875" stroke-width="2.0" fill="none" stroke="rgb(0, 0, 0)" stroke-opacity="1" stroke-linecap="round" stroke-linejoin="round"/>
    <path d="M 181.43441772460938 39.27119445800781 C 189.25531005859375 25.29113006591797 143.56307983398438 24.029388427734375 159.54725646972656 31.71639633178711" stroke-width="2.0" fill="none" stroke="rgb(0, 0, 0)" stroke-opacity="1" stroke-linecap="round" stroke-linejoin="round"/>
    <path d="M 149.64341735839844 39.18562698364258 C 173.06065368652344 26.80474853515625 142.8911590576172 32.4255485534668 151.1968994140625 58.92421340942383" stroke-width="2.0" fill="none" stroke="rgb(0, 0, 0)" stroke-opacity="1" stroke-linecap="round" stroke-linejoin="round"/>
    <path d="M 106.97076416015625 124.78002166748047 C 144.21849060058594 142.30154418945312 121.35613250732422 169.2301788330078 141.73553466796875 141.4101104736328 C 153.92388916015625 186.51434326171875 178.5539093017578 149.92117309570312 154.06222534179688 141.72642517089844 C 162.98370361328125 131.6263427734375 161.263427734375 141.3084716796875 144.80873107910156 145.60614013671875" stroke-width="2.0" fill="none" stroke="rgb(0, 0, 0)" stroke-opacity="1" stroke-linecap="round" stroke-linejoin="round"/>
    <path d="M 93.01802825927734 131.12753295898438 C 95.5298843383789 108.40589141845703 80.82988739013672 122.2748031616211 72.05551147460938 133.5413818359375 C 84.83821105957031 121.48928833007812 80.49362182617188 111.45077514648438 53.80025100708008 136.83514404296875" stroke-width="2.0" fill="none" stroke="rgb(0, 0, 0)" stroke-opacity="1" stroke-linecap="round" stroke-linejoin="round"/>
  </g>
</svg>
