<?xml version="1.0" ?>
<svg xmlns="http://www.w3.org/2000/svg" version="1.1" width="224" height="224">
  <defs/>
  <g>
    <path d="M 164.73666381835938 122.51040649414062 C 170.6488494873047 161.3871307373047 187.88494873046875 139.70828247070312 199.63900756835938 114.24357604980469 C 192.19505310058594 143.18418884277344 201.46115112304688 149.5950469970703 159.53689575195312 133.2397918701172 C 183.60997009277344 160.31521606445312 209.160400390625 138.86985778808594 199.07192993164062 112.20233917236328" stroke-width="2.0" fill="none" stroke="rgb(0, 0, 0)" stroke-opacity="1" stroke-linecap="round" stroke-linejoin="round"/>
    <path d="M 113.33560943603516 22.66286849975586 C 77.7596664428711 24.68555450439453 67.88011932373047 29.42078399658203 79.07586669921875 13.29694652557373 C 79.80390930175781 70.29995727539062 73.08502960205078 39.650760650634766 86.85125732421875 28.324682235717773 C 64.91487884521484 27.769575119018555 55.50065612792969 24.049341201782227 50.48455810546875 19.024538040161133" stroke-width="2.0" fill="none" stroke="rgb(0, 0, 0)" stroke-opacity="1" stroke-linecap="round" stroke-linejoin="round"/>
    <path d="M -1.1437073945999146 107.40736389160156 C -2.833961248397827 93.18952941894531 6.161496162414551 64.61079406738281 14.428016662597656 73.63968658447266 C -12.445884704589844 75.22994232177734 2.052840232849121 71.41520690917969 -2.115215539932251 73.07950592041016" stroke-width="2.0" fill="none" stroke="rgb(0, 0, 0)" stroke-opacity="1" stroke-linecap="round" stroke-linejoin="round"/>
    <path d="M 113.33265686035156 41.114891052246094 C 108.57001495361328 45.39216613769531 82.0428237915039 40.12248611450195 124.14562225341797 40.895965576171875 C 94.49201965332031 33.51538848876953 85.67617797851562 50.87392044067383 85.98419952392578 35.378360748291016 C 131.64715576171875 49.381160736083984 124.38322448730469 31.54969024658203 96.5654296875 45.947330474853516" stroke-width="2.0" fill="none" stroke="rgb(0, 0, 0)" stroke-opacity="1" stroke-linecap="round" stroke-linejoin="round"/>
    <path d="M 88.81324005126953 28.875934600830078 C 83.3614273071289 34.51079177856445 100.06452178955078 25.323049545288086 100.82745361328125 35.500526428222656 C 123.66974639892578 16.85569953918457 112.01909637451172 12.246374130249023 113.06649017333984 21.578887939453125" stroke-width="2.0" fill="none" stroke="rgb(0, 0, 0)" stroke-opacity="1" stroke-linecap="round" stroke-linejoin="round"/>
    <path d="M 209.9685516357422 91.83715057373047 C 209.7447509765625 87.56779479980469 200.46841430664062 94.03543853759766 204.53944396972656 108.94221496582031" stroke-width="2.0" fill="none" stroke="rgb(0, 0, 0)" stroke-opacity="1" stroke-linecap="round" stroke-linejoin="round"/>
    <path d="M 76.30564880371094 56.09467315673828 C 51.701271057128906 52.693485260009766 74.47355651855469 60.28217315673828 51.63229751586914 38.07191848754883 C 54.34650802612305 59.95926284790039 40.66340255737305 70.9246826171875 40.98115921020508 36.05910873413086 C 98.36113739013672 54.22953414916992 82.8326644897461 41.707672119140625 35.533958435058594 56.747562408447266" stroke-width="2.0" fill="none" stroke="rgb(0, 0, 0)" stroke-opacity="1" stroke-linecap="round" stroke-linejoin="round"/>
    <path d="M 207.9364013671875 56.78922653198242 C 215.26089477539062 70.54308319091797 209.59658813476562 22.29098892211914 207.62289428710938 30.942489624023438 C 208.60963439941406 40.362422943115234 197.3091583251953 29.154460906982422 237.70835876464844 32.81629943847656 C 242.9150390625 31.262170791625977 235.53457641601562 30.374217987060547 232.1929473876953 29.031496047973633" stroke-width="2.0" fill="none" stroke="rgb(0, 0, 0)" stroke-opacity="1" stroke-linecap="round" stroke-linejoin="round"/>
    <path d="M 91.98155212402344 164.57138061523438 C 112.70947265625 182.85922241210938 96.1052017211914 189.1824951171875 78.33937072753906 174.54757690429688 C 80.21865844726562 185.71456909179688 105.0377197265625 192.56370544433594 125.37799835205078 168.0869903564453 C 107.11741638183594 182.4476318359375 96.22260284423828 181.47264099121094 68.72001647949219 175.67337036132812" stroke-width="2.0" fill="none" stroke="rgb(0, 0, 0)" stroke-opacity="1" stroke-linecap="round" stroke-linejoin="round"/>
    <path d="M 187.96836853027344 114.25318908691406 C 170.173828125 119.97389221191406 172.36434936523438 116.6650161743164 164.70726013183594 129.0006866455078 C 148.63990783691406 102.12689208984375 146.11605834960938 119.59893035888672 166.1052703857422 149.87762451171875 C 162.6295166015625 144.58018493652344 173.6797332763672 162.78453063964844 173.00657653808594 161.4232635498047" stroke-width="2.0" fill="none" stroke="rgb(0, 0, 0)" stroke-opacity="1" stroke-linecap="round" stroke-linejoin="round"/>
    <path d="M 28.20419692993164 169.11351013183594 C 32.67399597167969 166.6193084716797 23.093368530273438 173.40914916992188 33.703407287597656 162.6993865966797 C 32.92960739135742 167.25302124023438 14.384367942810059 178.3256378173828 23.696889877319336 169.8440399169922" stroke-width="2.0" fill="none" stroke="rgb(0, 0, 0)" stroke-opacity="1" stroke-linecap="round" stroke-linejoin="round"/>
    <path d="M 61.078128814697266 194.7478485107422 C 55.88622283935547 196.92579650878906 51.34317398071289 199.95265197753906 86.45150756835938 212.81756591796875 C 92.37980651855469 212.87901306152344 98.07494354248047 213.0491180419922 96.82792663574219 203.97341918945312 C 88.8362045288086 202.7772674560547 81.9488525390625 188.3804473876953 72.68196868896484 175.2637176513672" stroke-width="2.0" fill="none" stroke="rgb(0, 0, 0)" stroke-opacity="1" stroke-linecap="round" stroke-linejoin="round"/>
    <path d="M 121.70858764648438 224.05177307128906 C 165.1895294189453 189.81002807617188 136.07528686523438 213.27638244628906 95.913330078125 224.63978576660156 C 146.64898681640625 220.50372314453125 139.94790649414062 186.83731079101562 143.14781188964844 207.344482421875 C 142.56875610351562 199.36183166503906 144.79922485351562 190.7540283203125 136.72032165527344 217.93418884277344" stroke-width="2.0" fill="none" stroke="rgb(0, 0, 0)" stroke-opacity="1" stroke-linecap="round" stroke-linejoin="round"/>
    <path d="M 174.80458068847656 -6.338846206665039 C 182.6331787109375 -18.03236961364746 190.16183471679688 -19.55289077758789 185.0426788330078 21.69217300415039 C 187.64222717285156 -10.489648818969727 193.32261657714844 -3.949552059173584 183.046875 -8.677834510803223 C 160.6212158203125 -7.394732475280762 156.7261199951172 2.337895631790161 157.6306915283203 -3.2146852016448975" stroke-width="2.0" fill="none" stroke="rgb(0, 0, 0)" stroke-opacity="1" stroke-linecap="round" stroke-linejoin="round"/>
    <path d="M 113.37336730957031 22.74881362915039 C 108.3704605102539 2.6920697689056396 97.96208190917969 13.866887092590332 101.63785552978516 3.0155935287475586 C 113.75127410888672 5.593992233276367 115.9242935180664 27.93494987487793 110.57931518554688 21.180160522460938 C 104.29843139648438 17.22333526611328 105.38970184326172 -4.382360935211182 112.88194274902344 19.752342224121094" stroke-width="2.0" fill="none" stroke="rgb(0, 0, 0)" stroke-opacity="1" stroke-linecap="round" stroke-linejoin="round"/>
    <path d="M 219.0634765625 68.05530548095703 C 216.9698028564453 88.12728118896484 218.6654815673828 67.16728210449219 184.95802307128906 65.77082061767578 C 211.42568969726562 69.73731231689453 206.98265075683594 63.50706100463867 190.41783142089844 87.79271697998047" stroke-width="2.0" fill="none" stroke="rgb(0, 0, 0)" stroke-opacity="1" stroke-linecap="round" stroke-linejoin="round"/>
    <path d="M 49.040836334228516 17.557392120361328 C -7.422367095947266 8.965967178344727 2.4785938262939453 31.15260124206543 28.032264709472656 12.472762107849121 C 13.486714363098145 3.7021806240081787 35.27454376220703 -1.252331018447876 31.745397567749023 -10.995017051696777" stroke-width="2.0" fill="none" stroke="rgb(0, 0, 0)" stroke-opacity="1" stroke-linecap="round" stroke-linejoin="round"/>
    <path d="M 57.63605499267578 83.34435272216797 C -9.114968299865723 91.97269439697266 27.750829696655273 91.32023620605469 18.386381149291992 102.86932373046875" stroke-width="2.0" fill="none" stroke="rgb(0, 0, 0)" stroke-opacity="1" stroke-linecap="round" stroke-linejoin="round"/>
    <path d="M -6.1108012199401855 64.2239761352539 C 2.541508436203003 78.02992248535156 -6.77351188659668 102.61114501953125 -9.808503150939941 113.39601135253906" stroke-width="2.0" fill="none" stroke="rgb(0, 0, 0)" stroke-opacity="1" stroke-linecap="round" stroke-linejoin="round"/>
    <path d="M 128.087646484375 39.24546813964844 C 128.7323455810547 47.04952621459961 119.15750122070312 41.29989242553711 95.14398193359375 49.6917724609375 C 101.19478607177734 69.56224060058594 74.61568450927734 79.1829833984375 73.45932006835938 45.1261100769043" stroke-width="2.0" fill="none" stroke="rgb(0, 0, 0)" stroke-opacity="1" stroke-linecap="round" stroke-linejoin="round"/>
    <path d="M 186.93145751953125 106.49420928955078 C 195.5391082763672 100.30736541748047 179.68287658691406 99.76927185058594 138.12144470214844 100.52491760253906 C 208.29331970214844 110.85786437988281 182.0566864013672 114.55884552001953 177.31045532226562 108.28935241699219 C 179.8092498779297 119.95294189453125 198.8719482421875 124.59513092041016 169.95217895507812 117.25458526611328" stroke-width="2.0" fill="none" stroke="rgb(0, 0, 0)" stroke-opacity="1" stroke-linecap="round" stroke-linejoin="round"/>
    <path d="M 90.05325317382812 155.50634765625 C 101.58197021484375 145.1823272705078 90.03649139404297 171.65896606445312 85.87812042236328 167.446044921875 C 74.79841613769531 169.8065643310547 86.61222839355469 143.38954162597656 112.23786926269531 156.75599670410156" stroke-width="2.0" fill="none" stroke="rgb(0, 0, 0)" stroke-opacity="1" stroke-linecap="round" stroke-linejoin="round"/>
    <path d="M 28.743446350097656 186.62472534179688 C 24.61027717590332 165.96432495117188 35.03703689575195 162.00999450683594 52.74117660522461 142.4026336669922 C 44.15800476074219 159.81964111328125 33.72945785522461 181.9721221923828 54.638370513916016 196.74488830566406 C 80.20899963378906 208.38531494140625 64.74445343017578 204.0726776123047 52.67350769042969 173.00778198242188" stroke-width="2.0" fill="none" stroke="rgb(0, 0, 0)" stroke-opacity="1" stroke-linecap="round" stroke-linejoin="round"/>
    <path d="M 139.7574462890625 193.1230010986328 C 96.91171264648438 173.0303497314453 114.43951416015625 185.456298828125 126.60283660888672 172.43893432617188 C 111.36091613769531 174.75729370117188 126.78316497802734 170.868408203125 140.49757385253906 174.00119018554688 C 149.85568237304688 179.7490692138672 141.4391326904297 155.28173828125 150.5882110595703 158.13702392578125" stroke-width="2.0" fill="none" stroke="rgb(0, 0, 0)" stroke-opacity="1" stroke-linecap="round" stroke-linejoin="round"/>
    <path d="M 93.27375030517578 139.03204345703125 C 62.36528778076172 142.17855834960938 95.55500793457031 129.4910888671875 63.148624420166016 114.95498657226562 C 82.8597183227539 139.99790954589844 66.75496673583984 149.3736572265625 68.91497802734375 134.02713012695312" stroke-width="2.0" fill="none" stroke="rgb(0, 0, 0)" stroke-opacity="1" stroke-linecap="round" stroke-linejoin="round"/>
    <path d="M 50.96140670776367 218.98231506347656 C 52.26578140258789 190.97767639160156 55.532649993896484 226.80772399902344 54.37403106689453 211.6815948486328 C 20.43292999267578 214.3035888671875 52.795555114746094 220.15699768066406 27.325559616088867 216.78245544433594" stroke-width="2.0" fill="none" stroke="rgb(0, 0, 0)" stroke-opacity="1" stroke-linecap="round" stroke-linejoin="round"/>
    <path d="M 35.439056396484375 181.0952606201172 C 37.45612335205078 168.9033966064453 31.20562171936035 174.07540893554688 54.476715087890625 172.32473754882812 C 57.980079650878906 167.1671905517578 45.34919738769531 165.36399841308594 52.79608917236328 186.30418395996094" stroke-width="2.0" fill="none" stroke="rgb(0, 0, 0)" stroke-opacity="1" stroke-linecap="round" stroke-linejoin="round"/>
    <path d="M 18.064104080200195 103.45435333251953 C 31.314430236816406 97.72478485107422 6.873648643493652 88.10045623779297 16.598413467407227 104.08777618408203" stroke-width="2.0" fill="none" stroke="rgb(0, 0, 0)" stroke-opacity="1" stroke-linecap="round" stroke-linejoin="round"/>
    <path d="M 48.35600280761719 234.7413787841797 C 37.43397903442383 235.28790283203125 25.03533935546875 229.40480041503906 57.07070541381836 218.61900329589844 C 59.4881706237793 197.3389892578125 38.8440055847168 209.95684814453125 53.652427673339844 233.50267028808594" stroke-width="2.0" fill="none" stroke="rgb(0, 0, 0)" stroke-opacity="1" stroke-linecap="round" stroke-linejoin="round"/>
    <path d="M 228.09324645996094 110.3082504272461 C 201.20150756835938 89.65364837646484 195.49978637695312 91.3535385131836 220.9937744140625 100.14195251464844 C 202.58816528320312 84.79915618896484 197.54293823242188 88.30413055419922 202.31460571289062 88.87165069580078 C 211.01632690429688 88.86304473876953 201.19525146484375 100.71370697021484 200.04286193847656 102.09956359863281" stroke-width="2.0" fill="none" stroke="rgb(0, 0, 0)" stroke-opacity="1" stroke-linecap="round" stroke-linejoin="round"/>
    <path d="M 131.12303161621094 114.01517486572266 C 143.19313049316406 113.91915130615234 145.7239990234375 111.74906158447266 136.33290100097656 127.24080657958984 C 87.84925079345703 123.21953582763672 98.62088775634766 138.2521514892578 96.56031036376953 115.2649917602539 C 107.20306396484375 148.2517852783203 104.1875991821289 139.49835205078125 105.21726989746094 129.92718505859375" stroke-width="2.0" fill="none" stroke="rgb(0, 0, 0)" stroke-opacity="1" stroke-linecap="round" stroke-linejoin="round"/>
    <path d="M 88.2367935180664 157.47193908691406 C 116.15673065185547 162.0790252685547 106.82527160644531 173.03575134277344 82.95097351074219 163.24024963378906 C 94.1993179321289 191.24525451660156 73.23999786376953 180.6863555908203 94.43653869628906 159.58563232421875" stroke-width="2.0" fill="none" stroke="rgb(0, 0, 0)" stroke-opacity="1" stroke-linecap="round" stroke-linejoin="round"/>
    <path d="M 142.0462646484375 78.81640625 C 144.3963623046875 72.11373901367188 139.74725341796875 110.9031982421875 146.32859802246094 99.45494842529297" stroke-width="2.0" fill="none" stroke="rgb(0, 0, 0)" stroke-opacity="1" stroke-linecap="round" stroke-linejoin="round"/>
    <path d="M 137.9488067626953 87.54865264892578 C 140.45155334472656 95.49832916259766 123.29869842529297 79.6523208618164 105.385498046875 105.2556381225586" stroke-width="2.0" fill="none" stroke="rgb(0, 0, 0)" stroke-opacity="1" stroke-linecap="round" stroke-linejoin="round"/>
    <path d="M 120.17337036132812 106.22549438476562 C 120.80070495605469 84.82844543457031 134.9683074951172 92.77110290527344 180.04112243652344 91.98229217529297 C 155.7985076904297 96.24996185302734 139.41806030273438 91.25680541992188 169.1290740966797 86.98272705078125" stroke-width="2.0" fill="none" stroke="rgb(0, 0, 0)" stroke-opacity="1" stroke-linecap="round" stroke-linejoin="round"/>
    <path d="M 182.39334106445312 15.80891227722168 C 191.24447631835938 25.886964797973633 168.87789916992188 34.18334197998047 180.74154663085938 -23.47906494140625 C 185.94866943359375 13.35975170135498 197.15103149414062 30.7327880859375 187.96873474121094 13.2326078414917" stroke-width="2.0" fill="none" stroke="rgb(0, 0, 0)" stroke-opacity="1" stroke-linecap="round" stroke-linejoin="round"/>
    <path d="M 230.54356384277344 125.33587646484375 C 225.1018829345703 137.1625518798828 225.2570037841797 155.01658630371094 228.94708251953125 166.6956787109375 C 234.38931274414062 137.79168701171875 241.23193359375 131.17027282714844 251.25665283203125 139.0546875" stroke-width="2.0" fill="none" stroke="rgb(0, 0, 0)" stroke-opacity="1" stroke-linecap="round" stroke-linejoin="round"/>
    <path d="M 21.48868751525879 128.16580200195312 C 32.33122253417969 134.25515747070312 13.526203155517578 156.74588012695312 27.39003562927246 153.24114990234375" stroke-width="2.0" fill="none" stroke="rgb(0, 0, 0)" stroke-opacity="1" stroke-linecap="round" stroke-linejoin="round"/>
    <path d="M 11.676976203918457 52.4521484375 C 11.370956420898438 57.272743225097656 14.426350593566895 64.85614013671875 15.379255294799805 42.513526916503906 C -23.43915557861328 43.24695587158203 -5.839794635772705 45.85123825073242 -6.169554710388184 37.13386917114258" stroke-width="2.0" fill="none" stroke="rgb(0, 0, 0)" stroke-opacity="1" stroke-linecap="round" stroke-linejoin="round"/>
    <path d="M 47.478599548339844 126.00109100341797 C 18.462886810302734 132.90904235839844 23.269269943237305 147.10581970214844 43.161521911621094 102.84778594970703 C 34.709190368652344 121.53221130371094 33.92924118041992 117.49809265136719 28.55531883239746 134.2405548095703 C 35.52114486694336 115.61980438232422 78.03817749023438 138.72030639648438 50.097469329833984 122.8254623413086" stroke-width="2.0" fill="none" stroke="rgb(0, 0, 0)" stroke-opacity="1" stroke-linecap="round" stroke-linejoin="round"/>
    <path d="M 20.72964859008789 131.8621063232422 C 24.7596435546875 147.40484619140625 7.803854465484619 147.0743865966797 -6.965003490447998 147.30526733398438 C 10.535850524902344 135.741455078125 3.1800591945648193 157.2296905517578 -5.310145854949951 168.79733276367188" stroke-width="2.0" fill="none" stroke="rgb(0, 0, 0)" stroke-opacity="1" stroke-linecap="round" stroke-linejoin="round"/>
    <path d="M 90.48543548583984 230.67697143554688 C 77.68690490722656 223.47915649414062 57.83386993408203 207.6362762451172 53.472599029541016 194.18057250976562 C 46.1562385559082 197.4978485107422 73.13558959960938 221.11021423339844 55.84650802612305 215.05914306640625" stroke-width="2.0" fill="none" stroke="rgb(0, 0, 0)" stroke-opacity="1" stroke-linecap="round" stroke-linejoin="round"/>
    <path d="M 59.34492492675781 83.21953582763672 C 20.974956512451172 86.67433166503906 13.338085174560547 91.9083480834961 13.233304977416992 68.34992980957031" stroke-width="2.0" fill="none" stroke="rgb(0, 0, 0)" stroke-opacity="1" stroke-linecap="round" stroke-linejoin="round"/>
    <path d="M 20.75714874267578 178.0767364501953 C 5.021385669708252 195.45838928222656 38.80373001098633 220.1234588623047 22.965660095214844 166.94729614257812 C 7.353360652923584 198.9607696533203 29.374467849731445 206.72210693359375 10.901825904846191 221.95851135253906 C 6.68140172958374 201.5538330078125 23.446147918701172 231.99661254882812 -0.9843796491622925 242.36334228515625" stroke-width="2.0" fill="none" stroke="rgb(0, 0, 0)" stroke-opacity="1" stroke-linecap="round" stroke-linejoin="round"/>
    <path d="M 22.88072395324707 85.19103240966797 C 81.97777557373047 79.20750427246094 55.52340316772461 76.45542907714844 43.7308235168457 83.35867309570312" stroke-width="2.0" fill="none" stroke="rgb(0, 0, 0)" stroke-opacity="1" stroke-linecap="round" stroke-linejoin="round"/>
    <path d="M 105.51261138916016 78.73638916015625 C 58.09834289550781 78.20216369628906 73.64403533935547 65.933349609375 96.77510070800781 94.48552703857422 C 85.41109466552734 94.9443359375 80.47830963134766 87.71266174316406 48.086978912353516 89.64363861083984" stroke-width="2.0" fill="none" stroke="rgb(0, 0, 0)" stroke-opacity="1" stroke-linecap="round" stroke-linejoin="round"/>
    <path d="M 160.15126037597656 9.055100440979004 C 165.6636505126953 -5.892942428588867 171.28077697753906 -12.129511833190918 179.87002563476562 -9.0133638381958 C 183.68443298339844 0.5213330388069153 173.10731506347656 -7.369685173034668 179.04661560058594 -8.032770156860352" stroke-width="2.0" fill="none" stroke="rgb(0, 0, 0)" stroke-opacity="1" stroke-linecap="round" stroke-linejoin="round"/>
    <path d="M -3.5949530601501465 196.50035095214844 C 8.462919235229492 174.83920288085938 -5.45353364944458 171.64053344726562 -12.226202964782715 171.66720581054688" stroke-width="2.0" fill="none" stroke="rgb(0, 0, 0)" stroke-opacity="1" stroke-linecap="round" stroke-linejoin="round"/>
    <path d="M 66.6215591430664 20.836021423339844 C 53.4947624206543 3.703155040740967 66.78628540039062 32.74880599975586 62.82849884033203 18.498619079589844 C 21.175939559936523 30.545249938964844 40.665740966796875 -19.23468780517578 40.78990173339844 9.194916725158691" stroke-width="2.0" fill="none" stroke="rgb(0, 0, 0)" stroke-opacity="1" stroke-linecap="round" stroke-linejoin="round"/>
    <path d="M 71.59158325195312 114.98501586914062 C 99.22760009765625 125.5954818725586 91.52603912353516 113.08438110351562 95.8238754272461 123.31420135498047" stroke-width="2.0" fill="none" stroke="rgb(0, 0, 0)" stroke-opacity="1" stroke-linecap="round" stroke-linejoin="round"/>
    <path d="M 152.50515747070312 182.67481994628906 C 191.7957763671875 177.29653930664062 167.61183166503906 190.5022430419922 171.67544555664062 182.00721740722656" stroke-width="2.0" fill="none" stroke="rgb(0, 0, 0)" stroke-opacity="1" stroke-linecap="round" stroke-linejoin="round"/>
    <path d="M -7.901904582977295 76.11973571777344 C 20.76143455505371 64.44664764404297 5.973437309265137 92.23548889160156 36.79716491699219 81.4173355102539" stroke-width="2.0" fill="none" stroke="rgb(0, 0, 0)" stroke-opacity="1" stroke-linecap="round" stroke-linejoin="round"/>
    <path d="M 76.3065414428711 79.43756103515625 C 53.42332077026367 76.53614807128906 62.5029411315918 76.32896423339844 56.686424255371094 84.09466552734375" stroke-width="2.0" fill="none" stroke="rgb(0, 0, 0)" stroke-opacity="1" stroke-linecap="round" stroke-linejoin="round"/>
    <path d="M 71.36383056640625 47.186126708984375 C 26.028221130371094 44.271846771240234 40.27798080444336 36.5673828125 81.56312561035156 42.084739685058594 C 42.981101989746094 42.628448486328125 33.670345306396484 30.830280303955078 45.30600357055664 41.76308822631836 C 32.186588287353516 53.927162170410156 44.62160873413086 58.863529205322266 51.87337112426758 56.29140090942383" stroke-width="2.0" fill="none" stroke="rgb(0, 0, 0)" stroke-opacity="1" stroke-linecap="round" stroke-linejoin="round"/>
    <path d="M 75.51338195800781 107.37495422363281 C 66.8476791381836 100.87013244628906 69.17094421386719 68.67020416259766 74.8889389038086 83.17264556884766 C 108.44712829589844 94.13137817382812 53.10097885131836 85.2159194946289 16.208890914916992 92.21705627441406" stroke-width="2.0" fill="none" stroke="rgb(0, 0, 0)" stroke-opacity="1" stroke-linecap="round" stroke-linejoin="round"/>
    <path d="M 154.58787536621094 81.10718536376953 C 152.2500457763672 89.36283111572266 143.309326171875 67.75021362304688 139.2393341064453 58.17557907104492 C 145.4495086669922 74.35065460205078 157.89695739746094 97.00775146484375 164.0458526611328 86.55973052978516 C 143.18405151367188 84.60567474365234 115.31501770019531 84.62089538574219 148.1413116455078 85.32109832763672" stroke-width="2.0" fill="none" stroke="rgb(0, 0, 0)" stroke-opacity="1" stroke-linecap="round" stroke-linejoin="round"/>
    <path d="M 35.046287536621094 184.82418823242188 C 48.35955810546875 133.09613037109375 52.89552307128906 141.83468627929688 24.166887283325195 166.3233184814453" stroke-width="2.0" fill="none" stroke="rgb(0, 0, 0)" stroke-opacity="1" stroke-linecap="round" stroke-linejoin="round"/>
    <path d="M 34.79710388183594 62.72616958618164 C 60.79330062866211 64.97814178466797 63.79691696166992 59.47816467285156 31.20592498779297 30.560354232788086 C 39.64406204223633 107.246337890625 30.25707244873047 68.0893325805664 58.44986343383789 82.8219223022461 C 83.85535430908203 50.750823974609375 46.2015380859375 67.02993774414062 63.234806060791016 66.98058319091797" stroke-width="2.0" fill="none" stroke="rgb(0, 0, 0)" stroke-opacity="1" stroke-linecap="round" stroke-linejoin="round"/>
    <path d="M 126.3582534790039 73.89138793945312 C 118.2526626586914 72.43304443359375 126.56027221679688 89.69181060791016 132.40147399902344 80.92506408691406" stroke-width="2.0" fill="none" stroke="rgb(0, 0, 0)" stroke-opacity="1" stroke-linecap="round" stroke-linejoin="round"/>
    <path d="M 49.16236114501953 51.29944610595703 C 68.05094909667969 56.93529510498047 58.0282096862793 66.349365234375 71.50453186035156 8.227150917053223 C 73.02996826171875 21.390338897705078 67.427978515625 53.10538864135742 76.11361694335938 39.70091247558594" stroke-width="2.0" fill="none" stroke="rgb(0, 0, 0)" stroke-opacity="1" stroke-linecap="round" stroke-linejoin="round"/>
    <path d="M 72.15105438232422 43.301448822021484 C 49.39260482788086 48.829986572265625 75.38751220703125 34.756046295166016 76.89395904541016 54.857460021972656" stroke-width="2.0" fill="none" stroke="rgb(0, 0, 0)" stroke-opacity="1" stroke-linecap="round" stroke-linejoin="round"/>
    <path d="M 74.84455108642578 170.30752563476562 C 62.834712982177734 187.29840087890625 81.23670959472656 166.03628540039062 89.42386627197266 178.4054412841797 C 108.96045684814453 180.97467041015625 107.69915008544922 182.19119262695312 73.19036102294922 175.19570922851562 C 83.67528533935547 161.0996551513672 74.68738555908203 184.27357482910156 79.18753814697266 173.73780822753906" stroke-width="2.0" fill="none" stroke="rgb(0, 0, 0)" stroke-opacity="1" stroke-linecap="round" stroke-linejoin="round"/>
    <path d="M 144.32168579101562 227.7617645263672 C 145.1554718017578 185.09683227539062 142.44447326660156 202.9764404296875 140.08560180664062 218.9202880859375 C 121.61344909667969 215.86849975585938 140.9527130126953 216.0724639892578 121.49627685546875 227.7544708251953 C 136.77882385253906 233.1867218017578 142.69422912597656 243.5767059326172 134.3350830078125 251.43685913085938" stroke-width="2.0" fill="none" stroke="rgb(0, 0, 0)" stroke-opacity="1" stroke-linecap="round" stroke-linejoin="round"/>
    <path d="M 99.486083984375 229.859619140625 C 98.1511001586914 232.33486938476562 105.5333023071289 230.8590087890625 96.04689025878906 233.8406219482422 C 83.56927490234375 237.12939453125 69.78907775878906 235.7362823486328 73.99370574951172 221.81329345703125 C 90.1090087890625 232.27008056640625 80.90897369384766 239.2973175048828 85.29962158203125 249.97637939453125" stroke-width="2.0" fill="none" stroke="rgb(0, 0, 0)" stroke-opacity="1" stroke-linecap="round" stroke-linejoin="round"/>
    <path d="M 14.491316795349121 222.5748291015625 C 20.671672821044922 229.0071258544922 -15.101895332336426 222.5198516845703 6.416895389556885 184.70123291015625 C -0.6464521884918213 187.90660095214844 -5.2930006980896 220.27865600585938 6.748638153076172 228.50157165527344 C -18.075054168701172 220.8790740966797 -25.560619354248047 213.18753051757812 -31.69609832763672 214.68211364746094" stroke-width="2.0" fill="none" stroke="rgb(0, 0, 0)" stroke-opacity="1" stroke-linecap="round" stroke-linejoin="round"/>
    <path d="M 47.44341278076172 49.57990646362305 C 29.200584411621094 52.616756439208984 29.04364013671875 56.805423736572266 60.44922637939453 47.74214553833008" stroke-width="2.0" fill="none" stroke="rgb(0, 0, 0)" stroke-opacity="1" stroke-linecap="round" stroke-linejoin="round"/>
    <path d="M 119.53610229492188 104.0491943359375 C 127.3553466796875 90.32169342041016 109.76329803466797 95.13983154296875 94.30097198486328 88.53382873535156 C 119.9751205444336 93.6965103149414 126.11248016357422 98.83317565917969 103.7239761352539 100.82568359375 C 101.99415588378906 99.9991226196289 108.74979400634766 60.99934005737305 98.33415222167969 87.89181518554688" stroke-width="2.0" fill="none" stroke="rgb(0, 0, 0)" stroke-opacity="1" stroke-linecap="round" stroke-linejoin="round"/>
    <path d="M 177.61038208007812 80.7281265258789 C 185.18572998046875 99.5256118774414 157.0602264404297 97.57247161865234 178.760009765625 91.39311218261719 C 153.55372619628906 98.99403381347656 154.34288024902344 96.40888214111328 152.535888671875 82.94078063964844 C 151.29010009765625 85.395751953125 161.26121520996094 98.82047271728516 188.4657745361328 85.0668716430664" stroke-width="2.0" fill="none" stroke="rgb(0, 0, 0)" stroke-opacity="1" stroke-linecap="round" stroke-linejoin="round"/>
    <path d="M 45.89522933959961 216.313232421875 C 43.154937744140625 193.4421844482422 22.368877410888672 182.30677795410156 44.527889251708984 151.73641967773438 C 23.30584144592285 166.72296142578125 25.40957260131836 199.80650329589844 29.933250427246094 183.1131591796875" stroke-width="2.0" fill="none" stroke="rgb(0, 0, 0)" stroke-opacity="1" stroke-linecap="round" stroke-linejoin="round"/>
    <path d="M 138.7788543701172 190.06948852539062 C 147.5952606201172 203.80758666992188 139.0660400390625 210.3771209716797 142.9319305419922 197.25270080566406" stroke-width="2.0" fill="none" stroke="rgb(0, 0, 0)" stroke-opacity="1" stroke-linecap="round" stroke-linejoin="round"/>
    <path d="M 137.45980834960938 197.54014587402344 C 108.9601821899414 168.50723266601562 87.94438934326172 183.67564392089844 62.499507904052734 173.0608367919922 C 76.03282928466797 181.25624084472656 81.14173889160156 187.3335418701172 104.19832611083984 212.02206420898438" stroke-width="2.0" fill="none" stroke="rgb(0, 0, 0)" stroke-opacity="1" stroke-linecap="round" stroke-linejoin="round"/>
    <path d="M 103.19876861572266 42.09939193725586 C 85.08871459960938 33.684635162353516 88.3989486694336 44.51378631591797 94.53926086425781 39.329620361328125" stroke-width="2.0" fill="none" stroke="rgb(0, 0, 0)" stroke-opacity="1" stroke-linecap="round" stroke-linejoin="round"/>
    <path d="M 200.0928955078125 215.9461669921875 C 213.6798858642578 223.6128387451172 193.03933715820312 208.15000915527344 216.43222045898438 225.59902954101562" stroke-width="2.0" fill="none" stroke="rgb(0, 0, 0)" stroke-opacity="1" stroke-linecap="round" stroke-linejoin="round"/>
    <path d="M 168.77291870117188 4.076325416564941 C 163.30580139160156 25.285486221313477 178.0648193359375 20.514972686767578 174.4951629638672 13.734058380126953" stroke-width="2.0" fill="none" stroke="rgb(0, 0, 0)" stroke-opacity="1" stroke-linecap="round" stroke-linejoin="round"/>
    <path d="M 106.87857818603516 155.44415283203125 C 86.52367401123047 139.44261169433594 95.33834075927734 141.0682830810547 100.177001953125 167.17649841308594" stroke-width="2.0" fill="none" stroke="rgb(0, 0, 0)" stroke-opacity="1" stroke-linecap="round" stroke-linejoin="round"/>
    <path d="M 95.3077621459961 87.44659423828125 C 99.28124237060547 57.803585052490234 115.59916687011719 89.49427795410156 117.37103271484375 64.14950561523438 C 137.54200744628906 69.5831069946289 127.8315658569336 47.869346618652344 91.90914916992188 59.383609771728516 C 92.12075805664062 38.095760345458984 105.96427917480469 41.29039764404297 105.53732299804688 40.23733139038086" stroke-width="2.0" fill="none" stroke="rgb(0, 0, 0)" stroke-opacity="1" stroke-linecap="round" stroke-linejoin="round"/>
    <path d="M 105.80618286132812 88.32459259033203 C 95.37462615966797 88.69325256347656 79.1394271850586 71.02912139892578 105.12586212158203 92.97357177734375 C 84.21196746826172 92.09300231933594 85.92190551757812 92.71205139160156 109.62167358398438 82.17488098144531 C 97.02489471435547 69.11542510986328 115.4599609375 65.61396026611328 97.2623519897461 76.29949951171875" stroke-width="2.0" fill="none" stroke="rgb(0, 0, 0)" stroke-opacity="1" stroke-linecap="round" stroke-linejoin="round"/>
    <path d="M 69.56265258789062 203.3386688232422 C 81.7959213256836 193.24896240234375 89.09182739257812 202.78631591796875 67.66878509521484 203.7191619873047 C 98.2964859008789 211.41062927246094 128.78659057617188 200.30563354492188 86.18231201171875 200.1719970703125 C 120.26006317138672 218.9148406982422 101.87782287597656 209.07374572753906 72.0309066772461 178.61143493652344" stroke-width="2.0" fill="none" stroke="rgb(0, 0, 0)" stroke-opacity="1" stroke-linecap="round" stroke-linejoin="round"/>
    <path d="M 229.23350524902344 99.65296173095703 C 233.02011108398438 127.00481414794922 235.38858032226562 112.1036148071289 240.75718688964844 112.96400451660156" stroke-width="2.0" fill="none" stroke="rgb(0, 0, 0)" stroke-opacity="1" stroke-linecap="round" stroke-linejoin="round"/>
    <path d="M 20.180959701538086 99.52013397216797 C 12.613198280334473 104.25589752197266 6.687069892883301 83.48602294921875 35.60020065307617 87.30330657958984" stroke-width="2.0" fill="none" stroke="rgb(0, 0, 0)" stroke-opacity="1" stroke-linecap="round" stroke-linejoin="round"/>
    <path d="M 204.77401733398438 59.28452682495117 C 171.5089874267578 42.12919998168945 154.8384552001953 27.40494155883789 211.1599578857422 58.89047622680664 C 197.76194763183594 4.366340637207031 187.13844299316406 5.226451396942139 224.86314392089844 19.565479278564453 C 222.86065673828125 36.59139633178711 218.20606994628906 -5.691293716430664 211.06883239746094 26.535663604736328" stroke-width="2.0" fill="none" stroke="rgb(0, 0, 0)" stroke-opacity="1" stroke-linecap="round" stroke-linejoin="round"/>
    <path d="M 56.339263916015625 25.751577377319336 C 8.894984245300293 10.404790878295898 16.535968780517578 35.183258056640625 22.028217315673828 27.532995223999023" stroke-width="2.0" fill="none" stroke="rgb(0, 0, 0)" stroke-opacity="1" stroke-linecap="round" stroke-linejoin="round"/>
    <path d="M 33.58482360839844 137.58999633789062 C 21.03215789794922 123.09619903564453 -4.410891056060791 131.143798828125 20.920408248901367 145.82901000976562" stroke-width="2.0" fill="none" stroke="rgb(0, 0, 0)" stroke-opacity="1" stroke-linecap="round" stroke-linejoin="round"/>
    <path d="M 72.74374389648438 -2.5487217903137207 C 64.15947723388672 3.654552936553955 65.1154556274414 -29.14463233947754 63.87961959838867 4.953528881072998" stroke-width="2.0" fill="none" stroke="rgb(0, 0, 0)" stroke-opacity="1" stroke-linecap="round" stroke-linejoin="round"/>
    <path d="M 215.2186279296875 -6.272637844085693 C 224.16510009765625 5.052433490753174 230.69662475585938 12.387077331542969 225.2063446044922 -1.1344211101531982 C 218.98199462890625 -14.34243106842041 219.99880981445312 -6.179161548614502 236.5207977294922 2.0666539669036865 C 238.31680297851562 1.2081615924835205 231.97564697265625 3.5511035919189453 215.93287658691406 -12.227858543395996" stroke-width="2.0" fill="none" stroke="rgb(0, 0, 0)" stroke-opacity="1" stroke-linecap="round" stroke-linejoin="round"/>
    <path d="M 108.39897918701172 157.73577880859375 C 119.09321594238281 172.3927459716797 112.8394546508789 178.0255584716797 106.95999908447266 165.10154724121094 C 145.92156982421875 159.18919372558594 158.45030212402344 160.9495391845703 88.50081634521484 164.85748291015625 C 84.32878875732422 173.06573486328125 80.1548843383789 150.7958221435547 89.26771545410156 165.52316284179688" stroke-width="2.0" fill="none" stroke="rgb(0, 0, 0)" stroke-opacity="1" stroke-linecap="round" stroke-linejoin="round"/>
    <path d="M 51.11147689819336 170.53060913085938 C 79.08016204833984 150.40142822265625 49.45368957519531 166.94529724121094 63.60627365112305 172.6697235107422 C 57.25358581542969 153.07249450683594 52.90048599243164 177.48329162597656 47.96414566040039 172.58189392089844" stroke-width="2.0" fill="none" stroke="rgb(0, 0, 0)" stroke-opacity="1" stroke-linecap="round" stroke-linejoin="round"/>
    <path d="M -6.876764297485352 79.4614028930664 C 13.368565559387207 84.92453002929688 5.455478668212891 66.18080139160156 -10.285767555236816 65.66622924804688 C 14.397629737854004 75.85626983642578 2.9681928157806396 75.67601776123047 5.539907455444336 47.76309585571289" stroke-width="2.0" fill="none" stroke="rgb(0, 0, 0)" stroke-opacity="1" stroke-linecap="round" stroke-linejoin="round"/>
    <path d="M 148.98060607910156 16.444286346435547 C 147.8963165283203 -24.317602157592773 166.1216278076172 40.943702697753906 134.22393798828125 5.404974937438965 C 145.22213745117188 50.517311096191406 185.42129516601562 58.78348159790039 140.00990295410156 54.92608642578125" stroke-width="2.0" fill="none" stroke="rgb(0, 0, 0)" stroke-opacity="1" stroke-linecap="round" stroke-linejoin="round"/>
    <path d="M 75.37606811523438 103.30970001220703 C 21.202070236206055 110.74942016601562 67.47655487060547 97.99806213378906 60.52013397216797 103.68920135498047 C 50.26613998413086 114.51184844970703 65.126708984375 121.86831665039062 63.07990646362305 119.04273986816406" stroke-width="2.0" fill="none" stroke="rgb(0, 0, 0)" stroke-opacity="1" stroke-linecap="round" stroke-linejoin="round"/>
    <path d="M 217.99928283691406 31.6395320892334 C 221.70138549804688 6.4653449058532715 213.82427978515625 18.8927001953125 240.8332061767578 22.95077896118164 C 205.2596893310547 22.506559371948242 188.97647094726562 22.801185607910156 191.43963623046875 20.068910598754883 C 241.27500915527344 20.907699584960938 252.27296447753906 23.726720809936523 232.3701934814453 18.428878784179688" stroke-width="2.0" fill="none" stroke="rgb(0, 0, 0)" stroke-opacity="1" stroke-linecap="round" stroke-linejoin="round"/>
    <path d="M 168.39051818847656 46.53340148925781 C 179.12840270996094 57.31814193725586 171.31089782714844 18.9144229888916 171.34046936035156 62.06829833984375 C 169.25279235839844 38.11573791503906 166.79315185546875 33.28038024902344 195.5746307373047 50.682491302490234 C 186.56312561035156 44.685325622558594 172.2108917236328 38.83971405029297 171.22877502441406 32.69504165649414" stroke-width="2.0" fill="none" stroke="rgb(0, 0, 0)" stroke-opacity="1" stroke-linecap="round" stroke-linejoin="round"/>
    <path d="M 77.39765167236328 -10.801794052124023 C 82.52910614013672 -20.400535583496094 89.05304718017578 -35.00780487060547 89.49088287353516 17.280181884765625 C 93.99249267578125 -29.37618064880371 87.51177215576172 -37.35337448120117 80.05374908447266 -41.372535705566406" stroke-width="2.0" fill="none" stroke="rgb(0, 0, 0)" stroke-opacity="1" stroke-linecap="round" stroke-linejoin="round"/>
    <path d="M 181.43634033203125 81.77886962890625 C 164.9353485107422 110.33220672607422 145.05355834960938 98.32859802246094 164.68719482421875 105.77320861816406" stroke-width="2.0" fill="none" stroke="rgb(0, 0, 0)" stroke-opacity="1" stroke-linecap="round" stroke-linejoin="round"/>
    <path d="M 84.42222595214844 80.04650115966797 C 119.04471588134766 83.37694549560547 102.7554702758789 76.7697982788086 53.199562072753906 77.06758117675781 C 101.1283187866211 85.50751495361328 132.0177764892578 91.26637268066406 89.24605560302734 90.677490234375" stroke-width="2.0" fill="none" stroke="rgb(0, 0, 0)" stroke-opacity="1" stroke-linecap="round" stroke-linejoin="round"/>
    <path d="M 185.41050720214844 48.16286087036133 C 172.3627471923828 45.99041748046875 175.57489013671875 34.91825485229492 179.29629516601562 41.917362213134766 C 160.2187957763672 33.266944885253906 171.05003356933594 61.42655944824219 170.9556121826172 59.56734848022461" stroke-width="2.0" fill="none" stroke="rgb(0, 0, 0)" stroke-opacity="1" stroke-linecap="round" stroke-linejoin="round"/>
    <path d="M 15.018803596496582 134.058837890625 C 58.69208908081055 142.3517303466797 21.28310203552246 126.38835906982422 43.7998046875 152.20407104492188 C 61.23666000366211 123.20356750488281 41.04125213623047 141.34234619140625 10.416853904724121 140.16761779785156 C 35.07331848144531 150.97854614257812 41.437992095947266 126.4041519165039 24.1048526763916 136.80125427246094" stroke-width="2.0" fill="none" stroke="rgb(0, 0, 0)" stroke-opacity="1" stroke-linecap="round" stroke-linejoin="round"/>
    <path d="M 175.97003173828125 45.27007293701172 C 187.6519775390625 73.2339096069336 149.99525451660156 71.67130279541016 153.3099365234375 67.0216293334961" stroke-width="2.0" fill="none" stroke="rgb(0, 0, 0)" stroke-opacity="1" stroke-linecap="round" stroke-linejoin="round"/>
    <path d="M 91.6826171875 134.19970703125 C 85.9289321899414 142.1116485595703 91.29878234863281 115.1271743774414 94.71068572998047 145.08074951171875" stroke-width="2.0" fill="none" stroke="rgb(0, 0, 0)" stroke-opacity="1" stroke-linecap="round" stroke-linejoin="round"/>
    <path d="M 24.36350440979004 87.40925598144531 C 3.379549741744995 81.96964263916016 26.704288482666016 37.35019302368164 14.73265552520752 37.728355407714844" stroke-width="2.0" fill="none" stroke="rgb(0, 0, 0)" stroke-opacity="1" stroke-linecap="round" stroke-linejoin="round"/>
    <path d="M 35.90830612182617 109.68506622314453 C 14.215347290039062 104.46544647216797 12.896675109863281 111.59375762939453 17.46819305419922 89.11028289794922 C 9.030732154846191 116.34558868408203 39.50263214111328 101.8683853149414 19.07528305053711 83.81942749023438" stroke-width="2.0" fill="none" stroke="rgb(0, 0, 0)" stroke-opacity="1" stroke-linecap="round" stroke-linejoin="round"/>
    <path d="M 55.65359115600586 166.7847137451172 C 32.09098815917969 179.34169006347656 54.50314712524414 201.0638427734375 66.30882263183594 198.65646362304688 C 45.24517059326172 191.24566650390625 71.53816986083984 190.33619689941406 59.48912048339844 198.70001220703125" stroke-width="2.0" fill="none" stroke="rgb(0, 0, 0)" stroke-opacity="1" stroke-linecap="round" stroke-linejoin="round"/>
    <path d="M 106.78983306884766 163.28558349609375 C 96.89302825927734 155.5088653564453 115.05633544921875 148.9769287109375 119.30543518066406 175.96466064453125" stroke-width="2.0" fill="none" stroke="rgb(0, 0, 0)" stroke-opacity="1" stroke-linecap="round" stroke-linejoin="round"/>
    <path d="M 87.42906188964844 63.33726501464844 C 121.27965545654297 54.928993225097656 109.9983901977539 74.15238952636719 79.92733764648438 80.48905944824219 C 101.79150390625 78.22956848144531 72.05224609375 85.90738677978516 85.73904418945312 96.94442749023438 C 47.534915924072266 108.45976257324219 108.75166320800781 103.8946304321289 79.73375701904297 103.94747924804688" stroke-width="2.0" fill="none" stroke="rgb(0, 0, 0)" stroke-opacity="1" stroke-linecap="round" stroke-linejoin="round"/>
    <path d="M 45.21403884887695 118.69942474365234 C 32.900028228759766 113.70117950439453 102.02764129638672 124.49042510986328 78.49394989013672 106.27561950683594 C 113.79715728759766 99.59688568115234 77.04208374023438 94.8308334350586 26.897777557373047 97.44181060791016 C 49.47883605957031 80.00828552246094 61.47012710571289 65.50658416748047 59.72452163696289 85.51741027832031" stroke-width="2.0" fill="none" stroke="rgb(0, 0, 0)" stroke-opacity="1" stroke-linecap="round" stroke-linejoin="round"/>
    <path d="M 99.37787628173828 97.96359252929688 C 119.32240295410156 87.38665771484375 114.13017272949219 97.48053741455078 102.16795349121094 90.52828979492188 C 119.73875427246094 92.03087615966797 117.30935668945312 99.47541046142578 118.1569595336914 89.78463745117188" stroke-width="2.0" fill="none" stroke="rgb(0, 0, 0)" stroke-opacity="1" stroke-linecap="round" stroke-linejoin="round"/>
    <path d="M 101.56072235107422 203.7086944580078 C 118.34361267089844 216.14468383789062 101.01371765136719 198.31341552734375 94.21458435058594 210.37986755371094 C 79.05490112304688 181.44821166992188 75.62149810791016 199.62806701660156 104.14303588867188 213.6168212890625" stroke-width="2.0" fill="none" stroke="rgb(0, 0, 0)" stroke-opacity="1" stroke-linecap="round" stroke-linejoin="round"/>
    <path d="M 56.2667121887207 141.77084350585938 C 71.5712661743164 156.91925048828125 80.9260025024414 162.18385314941406 50.180458068847656 167.2259063720703 C 59.436927795410156 181.3109588623047 75.75726318359375 200.02499389648438 76.83856964111328 200.53260803222656" stroke-width="2.0" fill="none" stroke="rgb(0, 0, 0)" stroke-opacity="1" stroke-linecap="round" stroke-linejoin="round"/>
    <path d="M 194.69256591796875 166.28579711914062 C 199.70248413085938 184.39016723632812 153.9237060546875 180.23301696777344 172.1547088623047 163.7054443359375" stroke-width="2.0" fill="none" stroke="rgb(0, 0, 0)" stroke-opacity="1" stroke-linecap="round" stroke-linejoin="round"/>
    <path d="M 61.992828369140625 53.82250213623047 C 94.35082244873047 50.828765869140625 59.823509216308594 73.22501373291016 107.96508026123047 62.9088020324707 C 77.98625946044922 63.78929138183594 78.21266174316406 69.88829040527344 83.5560073852539 21.556049346923828" stroke-width="2.0" fill="none" stroke="rgb(0, 0, 0)" stroke-opacity="1" stroke-linecap="round" stroke-linejoin="round"/>
    <path d="M 101.2736587524414 177.0420379638672 C 123.00629425048828 178.0762176513672 100.01158142089844 150.28143310546875 97.4886245727539 146.40948486328125 C 88.32611846923828 137.29812622070312 96.53776550292969 191.3993682861328 108.2235336303711 178.38467407226562" stroke-width="2.0" fill="none" stroke="rgb(0, 0, 0)" stroke-opacity="1" stroke-linecap="round" stroke-linejoin="round"/>
    <path d="M 14.768693923950195 101.49762725830078 C 21.23308753967285 112.83321380615234 6.895638942718506 95.81722259521484 19.40630531311035 90.75801849365234" stroke-width="2.0" fill="none" stroke="rgb(0, 0, 0)" stroke-opacity="1" stroke-linecap="round" stroke-linejoin="round"/>
    <path d="M 60.05528259277344 109.93230438232422 C 82.31407928466797 105.06714630126953 74.93173217773438 117.00365447998047 72.7318344116211 97.01358032226562 C 71.93972778320312 114.09042358398438 71.65148162841797 98.91649627685547 83.97492218017578 106.64598083496094" stroke-width="2.0" fill="none" stroke="rgb(0, 0, 0)" stroke-opacity="1" stroke-linecap="round" stroke-linejoin="round"/>
    <path d="M 105.44609069824219 162.44223022460938 C 103.7963638305664 130.1425018310547 96.58203887939453 168.96917724609375 74.29991912841797 118.4937515258789 C 109.9209213256836 165.10585021972656 78.99468994140625 126.13809967041016 62.018165588378906 146.9846954345703 C 48.85454177856445 147.17564392089844 64.79779052734375 165.8365936279297 64.30352783203125 162.48272705078125" stroke-width="2.0" fill="none" stroke="rgb(0, 0, 0)" stroke-opacity="1" stroke-linecap="round" stroke-linejoin="round"/>
    <path d="M 153.33892822265625 117.85835266113281 C 164.5545654296875 152.96778869628906 159.316162109375 170.85073852539062 160.32081604003906 153.05560302734375 C 81.58628845214844 152.6269989013672 114.3291015625 159.01776123046875 112.279052734375 153.41400146484375 C 97.68348693847656 162.2086639404297 134.1118621826172 146.21092224121094 150.7324676513672 126.6987075805664" stroke-width="2.0" fill="none" stroke="rgb(0, 0, 0)" stroke-opacity="1" stroke-linecap="round" stroke-linejoin="round"/>
    <path d="M 148.02682495117188 108.335693359375 C 149.636474609375 90.07572174072266 152.95181274414062 112.4483413696289 157.45950317382812 106.00102996826172" stroke-width="2.0" fill="none" stroke="rgb(0, 0, 0)" stroke-opacity="1" stroke-linecap="round" stroke-linejoin="round"/>
    <path d="M -2.8172764778137207 93.66141510009766 C 6.259519100189209 71.6084976196289 -1.9246798753738403 65.85042572021484 -6.476365089416504 67.60099029541016 C -8.99262809753418 89.82814025878906 25.72725486755371 67.13230895996094 -5.17262601852417 78.10240936279297 C -3.0705013275146484 92.0737533569336 -9.747931480407715 95.45064544677734 -16.657426834106445 103.9259262084961" stroke-width="2.0" fill="none" stroke="rgb(0, 0, 0)" stroke-opacity="1" stroke-linecap="round" stroke-linejoin="round"/>
    <path d="M 120.68189239501953 36.16630554199219 C 122.07320404052734 -21.61884117126465 120.69900512695312 30.568344116210938 93.65935516357422 29.01715087890625 C 115.92407989501953 33.9875602722168 98.74679565429688 33.19637680053711 94.62791442871094 13.393486022949219 C 102.1806869506836 40.059757232666016 81.50094604492188 32.650634765625 88.39585876464844 11.794795036315918" stroke-width="2.0" fill="none" stroke="rgb(0, 0, 0)" stroke-opacity="1" stroke-linecap="round" stroke-linejoin="round"/>
    <path d="M 190.184814453125 -2.386657238006592 C 182.10255432128906 -0.25839751958847046 181.5548095703125 -15.631617546081543 172.3375701904297 -24.588163375854492" stroke-width="2.0" fill="none" stroke="rgb(0, 0, 0)" stroke-opacity="1" stroke-linecap="round" stroke-linejoin="round"/>
    <path d="M 182.07606506347656 160.35980224609375 C 263.63458251953125 156.85305786132812 177.9465789794922 162.23416137695312 184.22413635253906 162.4540252685547 C 174.9711151123047 154.0951385498047 197.2218017578125 162.78013610839844 215.39500427246094 130.82261657714844 C 198.5052947998047 143.7264404296875 150.59095764160156 142.64523315429688 153.9031524658203 116.84899139404297" stroke-width="2.0" fill="none" stroke="rgb(0, 0, 0)" stroke-opacity="1" stroke-linecap="round" stroke-linejoin="round"/>
    <path d="M 134.00173950195312 213.6114501953125 C 150.81568908691406 214.19485473632812 133.18431091308594 198.9447021484375 134.6690673828125 220.86251831054688" stroke-width="2.0" fill="none" stroke="rgb(0, 0, 0)" stroke-opacity="1" stroke-linecap="round" stroke-linejoin="round"/>
    <path d="M 155.79327392578125 129.02456665039062 C 154.06488037109375 128.6835479736328 160.07513427734375 89.19451904296875 152.0537567138672 104.17677307128906 C 165.45188903808594 123.48992156982422 164.43043518066406 107.46601867675781 176.05209350585938 103.5138931274414 C 177.78001403808594 108.8180923461914 156.825439453125 80.39669036865234 170.17955017089844 95.4945297241211" stroke-width="2.0" fill="none" stroke="rgb(0, 0, 0)" stroke-opacity="1" stroke-linecap="round" stroke-linejoin="round"/>
    <path d="M 10.854888916015625 139.03640747070312 C 27.082782745361328 129.59059143066406 4.594022274017334 133.1632843017578 30.11970329284668 156.22824096679688 C 25.17133140563965 156.8324737548828 19.1322021484375 160.75576782226562 36.3048210144043 154.16299438476562" stroke-width="2.0" fill="none" stroke="rgb(0, 0, 0)" stroke-opacity="1" stroke-linecap="round" stroke-linejoin="round"/>
    <path d="M 194.70545959472656 17.362417221069336 C 216.10926818847656 6.472642421722412 200.73287963867188 29.680593490600586 202.61203002929688 7.301182746887207" stroke-width="2.0" fill="none" stroke="rgb(0, 0, 0)" stroke-opacity="1" stroke-linecap="round" stroke-linejoin="round"/>
    <path d="M 158.98275756835938 161.87835693359375 C 159.5726776123047 237.1805877685547 148.42520141601562 208.1972198486328 210.0337371826172 218.28140258789062 C 157.70936584472656 204.71205139160156 172.6517791748047 232.04222106933594 178.7647705078125 235.15301513671875" stroke-width="2.0" fill="none" stroke="rgb(0, 0, 0)" stroke-opacity="1" stroke-linecap="round" stroke-linejoin="round"/>
    <path d="M 77.39384460449219 52.18444061279297 C 58.03835678100586 48.79144287109375 54.18854904174805 50.65607452392578 37.69002914428711 49.9205436706543 C 88.30357360839844 44.361534118652344 78.99029541015625 60.69157409667969 71.20610046386719 42.46638870239258 C 43.97018051147461 39.141815185546875 56.69388961791992 43.6805419921875 75.92723083496094 44.31720733642578" stroke-width="2.0" fill="none" stroke="rgb(0, 0, 0)" stroke-opacity="1" stroke-linecap="round" stroke-linejoin="round"/>
    <path d="M 209.4790802001953 169.52406311035156 C 220.3147430419922 145.04571533203125 202.1372528076172 153.64602661132812 208.58299255371094 177.77403259277344 C 210.96852111816406 162.6814727783203 225.89553833007812 159.33349609375 226.63902282714844 181.49928283691406" stroke-width="2.0" fill="none" stroke="rgb(0, 0, 0)" stroke-opacity="1" stroke-linecap="round" stroke-linejoin="round"/>
    <path d="M 50.78583908081055 80.84024047851562 C 43.129215240478516 70.00225830078125 60.7354621887207 82.77696228027344 31.34425926208496 82.82450866699219 C 31.89683723449707 71.12767028808594 29.25766944885254 94.57596588134766 15.058133125305176 91.69609069824219" stroke-width="2.0" fill="none" stroke="rgb(0, 0, 0)" stroke-opacity="1" stroke-linecap="round" stroke-linejoin="round"/>
    <path d="M 84.62723541259766 161.26206970214844 C 100.74919891357422 157.06820678710938 113.26055145263672 174.61898803710938 126.82534790039062 172.44012451171875 C 96.19189453125 165.39218139648438 101.26314544677734 159.42535400390625 95.10398864746094 182.2357940673828" stroke-width="2.0" fill="none" stroke="rgb(0, 0, 0)" stroke-opacity="1" stroke-linecap="round" stroke-linejoin="round"/>
    <path d="M 203.04779052734375 61.774539947509766 C 220.59945678710938 64.98103332519531 208.21632385253906 31.280338287353516 203.19320678710938 29.648780822753906 C 236.65292358398438 28.08376121520996 230.89804077148438 54.74126052856445 229.81494140625 67.2243423461914 C 242.50079345703125 48.51786422729492 252.15078735351562 58.00238037109375 245.74319458007812 51.86848068237305" stroke-width="2.0" fill="none" stroke="rgb(0, 0, 0)" stroke-opacity="1" stroke-linecap="round" stroke-linejoin="round"/>
    <path d="M 25.78925323486328 153.214111328125 C 53.961788177490234 153.38604736328125 48.8620491027832 147.47296142578125 16.22254180908203 130.7939453125" stroke-width="2.0" fill="none" stroke="rgb(0, 0, 0)" stroke-opacity="1" stroke-linecap="round" stroke-linejoin="round"/>
    <path d="M -5.122965335845947 125.4120864868164 C -0.13327783346176147 131.76100158691406 7.599217891693115 153.3102264404297 -7.710790634155273 168.20944213867188 C -17.15846824645996 168.0565185546875 -23.705595016479492 165.5830078125 -34.001861572265625 162.6160125732422 C -29.871788024902344 153.80931091308594 -35.089439392089844 154.14146423339844 -41.77776336669922 161.79544067382812" stroke-width="2.0" fill="none" stroke="rgb(0, 0, 0)" stroke-opacity="1" stroke-linecap="round" stroke-linejoin="round"/>
    <path d="M 111.53073120117188 132.1877899169922 C 127.32857513427734 137.2385711669922 91.44530487060547 133.19447326660156 118.65850830078125 130.71133422851562 C 71.90015411376953 128.5086212158203 56.77288818359375 139.93714904785156 86.426025390625 134.59739685058594" stroke-width="2.0" fill="none" stroke="rgb(0, 0, 0)" stroke-opacity="1" stroke-linecap="round" stroke-linejoin="round"/>
    <path d="M 209.2369842529297 163.89500427246094 C 157.665771484375 166.00704956054688 205.10830688476562 157.8725128173828 233.326904296875 164.21853637695312 C 229.22445678710938 166.2998809814453 247.40829467773438 187.4394989013672 226.9188995361328 186.7997589111328" stroke-width="2.0" fill="none" stroke="rgb(0, 0, 0)" stroke-opacity="1" stroke-linecap="round" stroke-linejoin="round"/>
    <path d="M 39.805938720703125 60.80500411987305 C 55.82316589355469 2.1236391067504883 44.76521301269531 79.84503173828125 48.80215072631836 73.9215316772461 C 9.774736404418945 73.86172485351562 17.734275817871094 90.7781753540039 29.444969177246094 30.618234634399414 C 43.45888900756836 40.844112396240234 26.33390998840332 45.744449615478516 35.206851959228516 23.50222396850586" stroke-width="2.0" fill="none" stroke="rgb(0, 0, 0)" stroke-opacity="1" stroke-linecap="round" stroke-linejoin="round"/>
    <path d="M 38.93925476074219 189.82168579101562 C 47.340576171875 200.07821655273438 42.79283905029297 191.3831329345703 42.93101501464844 172.53578186035156 C 48.97516632080078 207.12606811523438 64.54850769042969 223.69764709472656 46.817779541015625 188.5067596435547" stroke-width="2.0" fill="none" stroke="rgb(0, 0, 0)" stroke-opacity="1" stroke-linecap="round" stroke-linejoin="round"/>
    <path d="M 209.06924438476562 218.37672424316406 C 200.65191650390625 214.12161254882812 189.3057403564453 208.95172119140625 168.317138671875 215.63540649414062 C 186.6234130859375 198.2291717529297 211.53343200683594 226.71478271484375 191.96876525878906 188.0743865966797 C 187.20486450195312 221.4622344970703 170.26919555664062 171.78343200683594 192.06167602539062 177.40809631347656" stroke-width="2.0" fill="none" stroke="rgb(0, 0, 0)" stroke-opacity="1" stroke-linecap="round" stroke-linejoin="round"/>
    <path d="M 58.66683578491211 32.986228942871094 C 62.731136322021484 32.49866485595703 43.081878662109375 61.92435073852539 62.7894401550293 47.73383331298828 C 82.24348449707031 49.330013275146484 76.07291412353516 35.548553466796875 76.0512924194336 38.45464324951172 C 92.16619110107422 23.118093490600586 92.08955383300781 38.591548919677734 84.14969635009766 25.60120964050293" stroke-width="2.0" fill="none" stroke="rgb(0, 0, 0)" stroke-opacity="1" stroke-linecap="round" stroke-linejoin="round"/>
    <path d="M 59.72465133666992 194.0982208251953 C 48.08701705932617 208.90936279296875 51.8378791809082 212.12571716308594 40.13534164428711 212.38612365722656 C 56.40665817260742 201.669189453125 68.41687774658203 219.28570556640625 48.0833740234375 218.2237548828125" stroke-width="2.0" fill="none" stroke="rgb(0, 0, 0)" stroke-opacity="1" stroke-linecap="round" stroke-linejoin="round"/>
    <path d="M 209.2685546875 189.65615844726562 C 223.19776916503906 182.40328979492188 209.91677856445312 212.33399963378906 212.17552185058594 185.3040771484375 C 178.0742950439453 178.73672485351562 199.75146484375 192.58935546875 210.76565551757812 214.8308563232422" stroke-width="2.0" fill="none" stroke="rgb(0, 0, 0)" stroke-opacity="1" stroke-linecap="round" stroke-linejoin="round"/>
    <path d="M 75.39107513427734 153.13674926757812 C 68.76459503173828 157.49456787109375 74.61228942871094 162.49627685546875 59.270233154296875 140.75770568847656 C 79.39331817626953 156.148681640625 97.06694030761719 159.92779541015625 84.63626098632812 162.67601013183594" stroke-width="2.0" fill="none" stroke="rgb(0, 0, 0)" stroke-opacity="1" stroke-linecap="round" stroke-linejoin="round"/>
    <path d="M 137.784912109375 31.364965438842773 C 152.42715454101562 47.68708419799805 93.12336730957031 30.42194175720215 96.91461944580078 44.33115768432617 C 129.8883819580078 39.839786529541016 124.73307037353516 38.60493469238281 127.30817413330078 50.13637924194336" stroke-width="2.0" fill="none" stroke="rgb(0, 0, 0)" stroke-opacity="1" stroke-linecap="round" stroke-linejoin="round"/>
    <path d="M 119.49800109863281 67.47858428955078 C 143.21192932128906 68.49031066894531 118.63428497314453 66.7184066772461 117.94841766357422 67.97967529296875 C 145.01834106445312 66.4722900390625 115.29061889648438 74.8632583618164 140.62896728515625 73.59461212158203 C 152.3677978515625 96.11641693115234 121.03475189208984 39.80565643310547 145.9794921875 49.15867233276367" stroke-width="2.0" fill="none" stroke="rgb(0, 0, 0)" stroke-opacity="1" stroke-linecap="round" stroke-linejoin="round"/>
    <path d="M 90.92010498046875 18.817174911499023 C 71.8014907836914 1.5388134717941284 96.27317810058594 11.60478687286377 91.28075408935547 30.058032989501953" stroke-width="2.0" fill="none" stroke="rgb(0, 0, 0)" stroke-opacity="1" stroke-linecap="round" stroke-linejoin="round"/>
    <path d="M 74.92620849609375 119.21332550048828 C 76.05288696289062 118.13285827636719 80.40064239501953 114.3798599243164 74.49583435058594 119.06629180908203 C 76.85530853271484 123.88484954833984 66.63395690917969 113.19023132324219 75.2429428100586 120.0204086303711 C 68.88003540039062 114.18024444580078 88.47746276855469 132.48190307617188 69.50000762939453 133.89736938476562" stroke-width="2.0" fill="none" stroke="rgb(0, 0, 0)" stroke-opacity="1" stroke-linecap="round" stroke-linejoin="round"/>
    <path d="M 56.0218391418457 198.16351318359375 C 38.98590087890625 178.01393127441406 37.42380905151367 197.17893981933594 32.841304779052734 204.9974822998047 C 34.628875732421875 184.61093139648438 16.6207332611084 219.93243408203125 52.880252838134766 217.21853637695312 C 37.048152923583984 189.02085876464844 42.67613220214844 227.90731811523438 44.56597900390625 208.29666137695312" stroke-width="2.0" fill="none" stroke="rgb(0, 0, 0)" stroke-opacity="1" stroke-linecap="round" stroke-linejoin="round"/>
    <path d="M 6.67927360534668 26.80851936340332 C 14.635966300964355 5.691520690917969 42.869163513183594 24.948793411254883 24.50265121459961 16.805694580078125" stroke-width="2.0" fill="none" stroke="rgb(0, 0, 0)" stroke-opacity="1" stroke-linecap="round" stroke-linejoin="round"/>
    <path d="M 44.09108352661133 -5.424108505249023 C 44.941131591796875 3.228803873062134 57.49907302856445 -7.068125247955322 67.0643310546875 -15.55334758758545 C 65.94513702392578 -14.67259407043457 60.6646728515625 -12.959575653076172 81.62113189697266 -6.134201526641846" stroke-width="2.0" fill="none" stroke="rgb(0, 0, 0)" stroke-opacity="1" stroke-linecap="round" stroke-linejoin="round"/>
    <path d="M 56.78266525268555 4.081577301025391 C 58.985965728759766 27.671438217163086 57.443973541259766 8.64515209197998 36.327056884765625 18.007610321044922 C 102.68824005126953 8.694706916809082 118.46875762939453 21.436790466308594 62.097042083740234 16.657676696777344" stroke-width="2.0" fill="none" stroke="rgb(0, 0, 0)" stroke-opacity="1" stroke-linecap="round" stroke-linejoin="round"/>
    <path d="M 177.3077392578125 40.786537170410156 C 157.33303833007812 60.99624252319336 173.6298065185547 85.87811279296875 175.14346313476562 33.53679275512695 C 177.9809112548828 62.552001953125 174.99041748046875 65.13352966308594 156.68035888671875 67.8016128540039 C 162.677978515625 57.71025466918945 150.56422424316406 64.1281967163086 127.75907135009766 59.279232025146484" stroke-width="2.0" fill="none" stroke="rgb(0, 0, 0)" stroke-opacity="1" stroke-linecap="round" stroke-linejoin="round"/>
    <path d="M 40.49800109863281 30.59527015686035 C 39.21272659301758 18.923709869384766 55.97176742553711 10.551702499389648 108.69752502441406 19.09017562866211 C 79.50321960449219 27.019023895263672 48.259033203125 8.389265060424805 14.147485733032227 12.899506568908691 C 44.65339660644531 26.331092834472656 30.70170783996582 17.577409744262695 54.26819610595703 16.589086532592773" stroke-width="2.0" fill="none" stroke="rgb(0, 0, 0)" stroke-opacity="1" stroke-linecap="round" stroke-linejoin="round"/>
    <path d="M 129.23268127441406 99.94120788574219 C 132.66297912597656 93.11528015136719 121.74532318115234 105.32992553710938 134.9717254638672 100.89200592041016" stroke-width="2.0" fill="none" stroke="rgb(0, 0, 0)" stroke-opacity="1" stroke-linecap="round" stroke-linejoin="round"/>
    <path d="M 76.93927001953125 15.908212661743164 C 63.61573028564453 17.32351303100586 41.76418685913086 10.736211776733398 20.62978744506836 13.929651260375977 C 29.55933380126953 21.81192970275879 47.82898712158203 23.00054931640625 45.071746826171875 3.0010268688201904" stroke-width="2.0" fill="none" stroke="rgb(0, 0, 0)" stroke-opacity="1" stroke-linecap="round" stroke-linejoin="round"/>
    <path d="M 80.09143829345703 36.34992599487305 C 49.09498977661133 34.800662994384766 38.68180465698242 41.82190704345703 62.1977424621582 7.831454753875732 C 53.991031646728516 33.568450927734375 76.0213851928711 33.840084075927734 83.84981536865234 13.758172988891602" stroke-width="2.0" fill="none" stroke="rgb(0, 0, 0)" stroke-opacity="1" stroke-linecap="round" stroke-linejoin="round"/>
    <path d="M 104.68350982666016 65.35710144042969 C 96.81597137451172 101.0035171508789 96.03343200683594 84.91590881347656 110.3963851928711 89.43929290771484 C 117.55142211914062 108.4150161743164 116.75662994384766 90.1456298828125 131.6641387939453 90.8949203491211 C 143.5428924560547 81.79408264160156 108.07880401611328 73.3866195678711 111.12090301513672 91.1305160522461" stroke-width="2.0" fill="none" stroke="rgb(0, 0, 0)" stroke-opacity="1" stroke-linecap="round" stroke-linejoin="round"/>
    <path d="M 209.9884796142578 109.6220474243164 C 193.05935668945312 110.43203735351562 207.8350067138672 108.77843475341797 249.64810180664062 111.08187103271484 C 243.27984619140625 108.81695556640625 204.55494689941406 106.41011047363281 206.91177368164062 109.94337463378906" stroke-width="2.0" fill="none" stroke="rgb(0, 0, 0)" stroke-opacity="1" stroke-linecap="round" stroke-linejoin="round"/>
    <path d="M 15.233301162719727 40.5637321472168 C -9.425774574279785 21.726581573486328 19.412517547607422 -0.3147260844707489 29.980653762817383 20.130699157714844 C 32.522674560546875 -34.29789733886719 24.1528263092041 -30.505891799926758 4.736786842346191 -7.470486640930176 C -5.693587303161621 -0.8755269050598145 8.191583633422852 -16.162416458129883 14.783467292785645 -3.881769895553589" stroke-width="2.0" fill="none" stroke="rgb(0, 0, 0)" stroke-opacity="1" stroke-linecap="round" stroke-linejoin="round"/>
    <path d="M 179.15219116210938 123.0499496459961 C 172.4465789794922 99.31951904296875 199.05137634277344 121.08014678955078 180.1925048828125 136.72348022460938 C 176.7993927001953 133.27218627929688 170.34774780273438 118.73895263671875 162.00747680664062 100.19613647460938" stroke-width="2.0" fill="none" stroke="rgb(0, 0, 0)" stroke-opacity="1" stroke-linecap="round" stroke-linejoin="round"/>
    <path d="M 209.96588134765625 7.943130016326904 C 221.63092041015625 15.763016700744629 178.3070068359375 15.022902488708496 193.62937927246094 11.905326843261719 C 192.30685424804688 -19.647239685058594 197.89793395996094 -9.897361755371094 201.82366943359375 -19.9617919921875 C 208.40406799316406 -4.864190578460693 206.8325958251953 4.291271686553955 205.88067626953125 -9.907890319824219" stroke-width="2.0" fill="none" stroke="rgb(0, 0, 0)" stroke-opacity="1" stroke-linecap="round" stroke-linejoin="round"/>
    <path d="M 166.10574340820312 130.99862670898438 C 159.4252471923828 106.85701751708984 155.49029541015625 136.12167358398438 159.54769897460938 139.21546936035156 C 149.09268188476562 121.92133331298828 161.9857940673828 117.65946197509766 212.3385467529297 133.56944274902344 C 139.36880493164062 137.6692657470703 152.11981201171875 116.26165008544922 172.14662170410156 135.56491088867188" stroke-width="2.0" fill="none" stroke="rgb(0, 0, 0)" stroke-opacity="1" stroke-linecap="round" stroke-linejoin="round"/>
    <path d="M 167.615234375 201.87611389160156 C 159.1110076904297 213.55532836914062 185.02940368652344 200.50306701660156 225.37631225585938 175.3499298095703 C 214.83993530273438 188.04965209960938 202.11033630371094 194.95034790039062 202.6746368408203 184.05679321289062 C 177.13101196289062 185.80599975585938 194.092041015625 196.40126037597656 197.6005401611328 199.99951171875" stroke-width="2.0" fill="none" stroke="rgb(0, 0, 0)" stroke-opacity="1" stroke-linecap="round" stroke-linejoin="round"/>
    <path d="M 174.7920684814453 91.38243103027344 C 172.16708374023438 69.14237213134766 181.3515167236328 85.55428314208984 207.96754455566406 88.51288604736328" stroke-width="2.0" fill="none" stroke="rgb(0, 0, 0)" stroke-opacity="1" stroke-linecap="round" stroke-linejoin="round"/>
    <path d="M 62.4881706237793 13.567532539367676 C 68.94652557373047 4.837015628814697 31.99949073791504 30.65256118774414 66.69920349121094 21.849653244018555" stroke-width="2.0" fill="none" stroke="rgb(0, 0, 0)" stroke-opacity="1" stroke-linecap="round" stroke-linejoin="round"/>
    <path d="M 167.9186248779297 57.99189376831055 C 151.6132049560547 64.01847839355469 169.6971893310547 73.47956085205078 163.01348876953125 60.10124969482422" stroke-width="2.0" fill="none" stroke="rgb(0, 0, 0)" stroke-opacity="1" stroke-linecap="round" stroke-linejoin="round"/>
    <path d="M 29.299882888793945 157.01638793945312 C 12.312847137451172 141.04136657714844 18.119626998901367 159.92381286621094 23.04045295715332 152.16561889648438 C 0.9342007040977478 145.69163513183594 13.893343925476074 163.93951416015625 15.522235870361328 130.00477600097656 C -8.278700828552246 150.05291748046875 21.530073165893555 164.9010467529297 38.11429214477539 147.4256591796875" stroke-width="2.0" fill="none" stroke="rgb(0, 0, 0)" stroke-opacity="1" stroke-linecap="round" stroke-linejoin="round"/>
    <path d="M -7.700077056884766 185.31829833984375 C -8.4357271194458 185.68008422851562 -0.9665311574935913 173.72885131835938 -9.367937088012695 177.37069702148438" stroke-width="2.0" fill="none" stroke="rgb(0, 0, 0)" stroke-opacity="1" stroke-linecap="round" stroke-linejoin="round"/>
    <path d="M 113.39169311523438 156.90481567382812 C 112.24829864501953 158.78497314453125 133.44363403320312 147.16477966308594 148.05499267578125 158.21022033691406 C 182.8177947998047 163.71983337402344 177.2664794921875 173.86282348632812 155.57252502441406 130.95266723632812" stroke-width="2.0" fill="none" stroke="rgb(0, 0, 0)" stroke-opacity="1" stroke-linecap="round" stroke-linejoin="round"/>
    <path d="M 170.84884643554688 94.92534637451172 C 160.07315063476562 69.74214935302734 134.72576904296875 62.03764724731445 173.3672637939453 59.60578155517578 C 136.1226806640625 60.38608169555664 131.7955780029297 54.61628341674805 159.24899291992188 66.90861511230469 C 124.33268737792969 56.40453338623047 138.51995849609375 60.87748336791992 137.85443115234375 63.037235260009766" stroke-width="2.0" fill="none" stroke="rgb(0, 0, 0)" stroke-opacity="1" stroke-linecap="round" stroke-linejoin="round"/>
    <path d="M 173.83197021484375 84.32640075683594 C 191.5371551513672 86.29426574707031 204.32469177246094 91.10023498535156 229.5994873046875 107.17932891845703 C 204.11468505859375 82.07452392578125 205.3362579345703 92.84807586669922 205.69259643554688 94.54696655273438 C 178.62953186035156 120.17302703857422 181.8916778564453 86.37680053710938 193.1802215576172 141.86703491210938" stroke-width="2.0" fill="none" stroke="rgb(0, 0, 0)" stroke-opacity="1" stroke-linecap="round" stroke-linejoin="round"/>
    <path d="M 108.52134704589844 18.068437576293945 C 98.01045227050781 -3.237086772918701 115.74371337890625 5.553225040435791 100.57272338867188 29.907167434692383 C 113.76708984375 27.73674201965332 118.80816650390625 1.8419904708862305 100.8802490234375 20.85243034362793" stroke-width="2.0" fill="none" stroke="rgb(0, 0, 0)" stroke-opacity="1" stroke-linecap="round" stroke-linejoin="round"/>
    <path d="M 125.72636413574219 172.2809600830078 C 140.73153686523438 177.43919372558594 142.4810333251953 165.0738983154297 125.60736083984375 184.9055938720703 C 137.31045532226562 171.5386199951172 129.9137420654297 179.17910766601562 124.66624450683594 188.1405029296875 C 159.35240173339844 202.84678649902344 172.71078491210938 204.5989532470703 142.75213623046875 177.55255126953125" stroke-width="2.0" fill="none" stroke="rgb(0, 0, 0)" stroke-opacity="1" stroke-linecap="round" stroke-linejoin="round"/>
    <path d="M 156.08499145507812 20.209495544433594 C 153.55516052246094 8.207289695739746 170.69664001464844 23.2648868560791 155.7882537841797 20.844894409179688 C 168.97525024414062 24.32745933532715 156.23101806640625 1.3228200674057007 160.73699951171875 -11.399900436401367" stroke-width="2.0" fill="none" stroke="rgb(0, 0, 0)" stroke-opacity="1" stroke-linecap="round" stroke-linejoin="round"/>
    <path d="M 151.50640869140625 -7.648336887359619 C 150.54051208496094 -6.920441150665283 138.74339294433594 0.83585125207901 130.31173706054688 -9.255496978759766 C 129.3911895751953 37.79013442993164 137.45315551757812 30.71721649169922 144.5334930419922 6.247334957122803" stroke-width="2.0" fill="none" stroke="rgb(0, 0, 0)" stroke-opacity="1" stroke-linecap="round" stroke-linejoin="round"/>
    <path d="M 125.62482452392578 146.0102996826172 C 161.63966369628906 114.00305938720703 156.45655822753906 132.81527709960938 122.73631286621094 148.6910858154297 C 114.96599578857422 117.32339477539062 113.53684997558594 130.9346160888672 135.51730346679688 122.8187255859375 C 130.41448974609375 141.32762145996094 146.0230712890625 108.83013153076172 135.49058532714844 127.94795227050781" stroke-width="2.0" fill="none" stroke="rgb(0, 0, 0)" stroke-opacity="1" stroke-linecap="round" stroke-linejoin="round"/>
    <path d="M 35.06237030029297 183.8820343017578 C 19.74993133544922 176.481689453125 21.068727493286133 188.12168884277344 13.772192001342773 197.37171936035156 C 27.692386627197266 162.58526611328125 32.53105926513672 162.23696899414062 21.846694946289062 182.59275817871094" stroke-width="2.0" fill="none" stroke="rgb(0, 0, 0)" stroke-opacity="1" stroke-linecap="round" stroke-linejoin="round"/>
    <path d="M 227.3131561279297 166.9100341796875 C 220.04246520996094 144.3505096435547 225.09535217285156 131.8180694580078 218.67898559570312 123.90719604492188 C 208.8746337890625 113.44525146484375 206.86669921875 144.6732940673828 213.68130493164062 122.05253601074219" stroke-width="2.0" fill="none" stroke="rgb(0, 0, 0)" stroke-opacity="1" stroke-linecap="round" stroke-linejoin="round"/>
    <path d="M 95.09468841552734 125.36650848388672 C 86.0602035522461 106.31377410888672 86.48983764648438 141.39923095703125 86.41426086425781 131.19229125976562 C 89.12031555175781 126.13695526123047 86.6732177734375 117.09310913085938 69.53995513916016 115.81137084960938" stroke-width="2.0" fill="none" stroke="rgb(0, 0, 0)" stroke-opacity="1" stroke-linecap="round" stroke-linejoin="round"/>
    <path d="M 158.39227294921875 96.40526580810547 C 201.1411590576172 99.14241790771484 161.55210876464844 74.2287826538086 181.96615600585938 84.89710235595703 C 174.19674682617188 89.18202209472656 165.30886840820312 108.45751190185547 183.54129028320312 86.290283203125" stroke-width="2.0" fill="none" stroke="rgb(0, 0, 0)" stroke-opacity="1" stroke-linecap="round" stroke-linejoin="round"/>
    <path d="M 111.84451293945312 116.31446838378906 C 91.010986328125 120.61746215820312 121.65705871582031 111.3785629272461 98.4709243774414 120.37445068359375 C 103.66751098632812 120.09522247314453 100.29119873046875 109.08885955810547 89.76551055908203 112.2994155883789 C 91.79512023925781 111.52507019042969 88.39765167236328 106.08049774169922 105.16343688964844 108.62910461425781" stroke-width="2.0" fill="none" stroke="rgb(0, 0, 0)" stroke-opacity="1" stroke-linecap="round" stroke-linejoin="round"/>
    <path d="M 75.92546081542969 98.08523559570312 C 77.59647369384766 113.53887939453125 64.51114654541016 94.72272491455078 90.11636352539062 111.41053009033203" stroke-width="2.0" fill="none" stroke="rgb(0, 0, 0)" stroke-opacity="1" stroke-linecap="round" stroke-linejoin="round"/>
    <path d="M 22.415180206298828 130.2701873779297 C 17.69127082824707 143.82058715820312 42.23176574707031 142.50567626953125 33.32237243652344 129.77439880371094 C 51.92340850830078 121.3421859741211 60.59541702270508 118.24193572998047 14.636879920959473 133.75201416015625" stroke-width="2.0" fill="none" stroke="rgb(0, 0, 0)" stroke-opacity="1" stroke-linecap="round" stroke-linejoin="round"/>
    <path d="M 160.3782196044922 41.901611328125 C 151.10745239257812 40.57521438598633 168.14695739746094 30.02846336364746 162.38645935058594 38.83302688598633 C 156.09283447265625 41.44205856323242 154.19383239746094 28.600818634033203 171.5769500732422 34.47359848022461 C 169.41250610351562 41.0975456237793 202.42337036132812 27.413864135742188 196.1665802001953 38.88913345336914" stroke-width="2.0" fill="none" stroke="rgb(0, 0, 0)" stroke-opacity="1" stroke-linecap="round" stroke-linejoin="round"/>
    <path d="M 183.67323303222656 97.95110321044922 C 163.25830078125 81.91010284423828 166.18592834472656 90.98329162597656 191.5358123779297 79.94651794433594 C 175.9089813232422 85.3369140625 186.5574493408203 91.8177261352539 188.17372131347656 70.9517593383789 C 192.89390563964844 82.38763427734375 189.9435577392578 100.86619567871094 204.83045959472656 81.29251861572266" stroke-width="2.0" fill="none" stroke="rgb(0, 0, 0)" stroke-opacity="1" stroke-linecap="round" stroke-linejoin="round"/>
    <path d="M 26.450315475463867 109.60416412353516 C 11.510064125061035 137.1534881591797 4.895958423614502 145.99432373046875 20.796245574951172 144.65939331054688 C 45.83024215698242 134.49716186523438 76.91371154785156 150.1239471435547 19.90596580505371 152.91734313964844 C 24.792795181274414 145.09814453125 38.75344467163086 121.4408950805664 36.79464340209961 136.72897338867188" stroke-width="2.0" fill="none" stroke="rgb(0, 0, 0)" stroke-opacity="1" stroke-linecap="round" stroke-linejoin="round"/>
    <path d="M 97.09764862060547 153.79031372070312 C 76.75379180908203 158.67776489257812 80.27633666992188 154.77345275878906 99.880859375 157.2234344482422 C 96.57225036621094 192.4041748046875 82.9231948852539 184.09768676757812 109.63276672363281 158.7994384765625 C 95.12759399414062 159.55166625976562 102.21697235107422 170.3859405517578 106.0058364868164 135.34510803222656" stroke-width="2.0" fill="none" stroke="rgb(0, 0, 0)" stroke-opacity="1" stroke-linecap="round" stroke-linejoin="round"/>
    <path d="M 15.328890800476074 127.95343780517578 C -7.282362461090088 103.19874572753906 7.912495136260986 56.29330825805664 21.607196807861328 88.9533462524414 C 25.3196964263916 87.59309387207031 6.183781147003174 79.80293273925781 15.264421463012695 64.6467056274414 C 37.197940826416016 63.720516204833984 79.47196960449219 60.99551773071289 35.10393142700195 59.61161804199219" stroke-width="2.0" fill="none" stroke="rgb(0, 0, 0)" stroke-opacity="1" stroke-linecap="round" stroke-linejoin="round"/>
    <path d="M 119.25086975097656 104.49486541748047 C 127.60002136230469 82.83539581298828 114.51167297363281 78.80418395996094 113.35838317871094 96.45812225341797" stroke-width="2.0" fill="none" stroke="rgb(0, 0, 0)" stroke-opacity="1" stroke-linecap="round" stroke-linejoin="round"/>
    <path d="M 77.03648376464844 178.56649780273438 C 109.03685760498047 195.56057739257812 120.4884262084961 197.33682250976562 127.76075744628906 200.80340576171875 C 75.00167846679688 198.3172607421875 78.8822250366211 193.53163146972656 108.11991119384766 206.00880432128906 C 63.73822784423828 176.98597717285156 92.64017486572266 208.52125549316406 72.84707641601562 195.55465698242188" stroke-width="2.0" fill="none" stroke="rgb(0, 0, 0)" stroke-opacity="1" stroke-linecap="round" stroke-linejoin="round"/>
    <path d="M 121.22579193115234 107.50889587402344 C 143.0298614501953 100.40251159667969 117.28192901611328 127.86839294433594 136.9145050048828 126.88367462158203" stroke-width="2.0" fill="none" stroke="rgb(0, 0, 0)" stroke-opacity="1" stroke-linecap="round" stroke-linejoin="round"/>
    <path d="M 230.00131225585938 137.99649047851562 C 227.56607055664062 168.00314331054688 227.89512634277344 159.59938049316406 228.018310546875 162.55072021484375 C 227.3103485107422 153.81884765625 239.30201721191406 172.99740600585938 214.2319793701172 191.27334594726562 C 167.48048400878906 185.28140258789062 192.44796752929688 190.9624786376953 236.8660888671875 185.45870971679688" stroke-width="2.0" fill="none" stroke="rgb(0, 0, 0)" stroke-opacity="1" stroke-linecap="round" stroke-linejoin="round"/>
    <path d="M 175.59410095214844 89.78909301757812 C 162.08587646484375 69.81652069091797 189.9639129638672 74.02142333984375 181.41552734375 87.71903228759766 C 188.5835418701172 85.94715118408203 172.6291046142578 100.79841613769531 178.57884216308594 87.02734375 C 187.9279022216797 94.70735931396484 201.88734436035156 98.96311950683594 203.8183135986328 104.4848861694336" stroke-width="2.0" fill="none" stroke="rgb(0, 0, 0)" stroke-opacity="1" stroke-linecap="round" stroke-linejoin="round"/>
    <path d="M 135.8251953125 -0.525947630405426 C 149.34547424316406 6.01800537109375 142.3746337890625 -6.861054420471191 141.63430786132812 -12.667728424072266" stroke-width="2.0" fill="none" stroke="rgb(0, 0, 0)" stroke-opacity="1" stroke-linecap="round" stroke-linejoin="round"/>
    <path d="M 118.1599349975586 174.33042907714844 C 126.65764617919922 182.23602294921875 118.30768585205078 153.9362030029297 102.73158264160156 151.01817321777344 C 122.38455200195312 165.67198181152344 71.60020446777344 163.00071716308594 100.545654296875 146.05442810058594 C 93.00830078125 179.1434326171875 65.98870086669922 174.563232421875 70.38985443115234 156.6870574951172" stroke-width="2.0" fill="none" stroke="rgb(0, 0, 0)" stroke-opacity="1" stroke-linecap="round" stroke-linejoin="round"/>
    <path d="M 75.35791015625 228.7721405029297 C 87.96284484863281 228.4308624267578 80.77533721923828 234.3618927001953 80.75654602050781 236.83692932128906" stroke-width="2.0" fill="none" stroke="rgb(0, 0, 0)" stroke-opacity="1" stroke-linecap="round" stroke-linejoin="round"/>
    <path d="M 52.152587890625 -8.147258758544922 C 47.773826599121094 28.644365310668945 64.90116119384766 4.9410810470581055 5.196626663208008 22.253990173339844 C 44.67253112792969 15.875511169433594 28.582895278930664 2.519068717956543 30.875394821166992 -17.94705581665039 C 38.117042541503906 -2.4099278450012207 40.18042755126953 -5.998076438903809 36.727622985839844 -10.97964859008789" stroke-width="2.0" fill="none" stroke="rgb(0, 0, 0)" stroke-opacity="1" stroke-linecap="round" stroke-linejoin="round"/>
    <path d="M 33.85741424560547 154.9707794189453 C 0.23252159357070923 175.9824981689453 8.636841773986816 212.71023559570312 17.880521774291992 170.35665893554688 C 18.985950469970703 187.72348022460938 21.96158218383789 190.26734924316406 28.952789306640625 166.94203186035156 C 25.427814483642578 194.19552612304688 25.89952278137207 192.2945556640625 37.311580657958984 232.78167724609375" stroke-width="2.0" fill="none" stroke="rgb(0, 0, 0)" stroke-opacity="1" stroke-linecap="round" stroke-linejoin="round"/>
    <path d="M 184.06446838378906 143.404541015625 C 191.11346435546875 119.85945129394531 171.218994140625 114.98409271240234 174.2386016845703 144.0327911376953 C 206.62582397460938 126.26821899414062 206.79769897460938 121.11516571044922 180.37416076660156 122.13042449951172 C 196.1527862548828 143.6918182373047 189.162353515625 153.4221954345703 162.6666259765625 135.56619262695312" stroke-width="2.0" fill="none" stroke="rgb(0, 0, 0)" stroke-opacity="1" stroke-linecap="round" stroke-linejoin="round"/>
    <path d="M 59.46694564819336 166.63792419433594 C 82.24813079833984 164.5689239501953 58.35222244262695 155.9759063720703 60.10869598388672 165.01882934570312 C 30.298471450805664 170.69178771972656 73.29769134521484 127.91717529296875 43.20343780517578 155.94573974609375 C 38.31642532348633 130.96665954589844 82.84532165527344 137.0858917236328 57.58228302001953 146.16937255859375" stroke-width="2.0" fill="none" stroke="rgb(0, 0, 0)" stroke-opacity="1" stroke-linecap="round" stroke-linejoin="round"/>
    <path d="M 25.209447860717773 166.1666259765625 C 1.6352835893630981 190.59786987304688 28.945720672607422 213.59071350097656 19.79115104675293 193.97508239746094 C 24.616092681884766 204.9261016845703 8.202048301696777 216.4773406982422 47.804935455322266 216.35128784179688 C 10.492389678955078 234.7786865234375 4.4501142501831055 199.35406494140625 14.59695816040039 191.67050170898438" stroke-width="2.0" fill="none" stroke="rgb(0, 0, 0)" stroke-opacity="1" stroke-linecap="round" stroke-linejoin="round"/>
    <path d="M 173.76039123535156 175.81394958496094 C 227.49281311035156 171.14695739746094 211.57135009765625 168.2512664794922 193.7729949951172 171.56027221679688 C 211.88638305664062 173.12686157226562 206.46702575683594 186.46920776367188 217.59701538085938 160.9300537109375 C 210.55252075195312 177.3741912841797 200.06927490234375 179.52284240722656 205.21047973632812 157.55899047851562" stroke-width="2.0" fill="none" stroke="rgb(0, 0, 0)" stroke-opacity="1" stroke-linecap="round" stroke-linejoin="round"/>
  </g>
</svg>
