<?xml version="1.0" ?>
<svg xmlns="http://www.w3.org/2000/svg" version="1.1" width="224" height="224">
  <defs/>
  <g>
    <path d="M 129.31509399414062 82.6806640625 C 117.84003448486328 90.02226257324219 112.70929718017578 90.58502960205078 133.79098510742188 89.00764465332031 C 118.2721939086914 106.61824798583984 115.655517578125 78.92794799804688 147.27029418945312 89.72311401367188 C 113.08585357666016 76.4127426147461 97.80138397216797 96.1573715209961 64.61804962158203 94.58584594726562" stroke-width="2.0" fill="none" stroke="rgb(0, 0, 0)" stroke-opacity="1" stroke-linecap="round" stroke-linejoin="round"/>
    <path d="M 22.210479736328125 9.521636009216309 C 6.088171482086182 44.49835205078125 -9.5764799118042 62.31491470336914 2.1901774406433105 73.23670959472656 C -4.884139060974121 41.490570068359375 -14.274664878845215 49.5426025390625 -4.025572776794434 32.72875213623047 C -3.290660858154297 56.88076400756836 8.720406532287598 61.066524505615234 24.468320846557617 40.478660583496094" stroke-width="2.0" fill="none" stroke="rgb(0, 0, 0)" stroke-opacity="1" stroke-linecap="round" stroke-linejoin="round"/>
    <path d="M 221.1536102294922 -2.3748762607574463 C 203.8625030517578 16.698177337646484 197.65682983398438 20.468185424804688 199.07032775878906 19.396757125854492" stroke-width="2.0" fill="none" stroke="rgb(0, 0, 0)" stroke-opacity="1" stroke-linecap="round" stroke-linejoin="round"/>
    <path d="M 168.9788360595703 55.688175201416016 C 170.09449768066406 49.44051742553711 197.24432373046875 71.90313720703125 179.66619873046875 28.865222930908203" stroke-width="2.0" fill="none" stroke="rgb(0, 0, 0)" stroke-opacity="1" stroke-linecap="round" stroke-linejoin="round"/>
    <path d="M 148.30393981933594 45.440589904785156 C 158.2250213623047 52.365379333496094 162.33108520507812 46.42041015625 177.97767639160156 51.82844161987305 C 175.35208129882812 25.881929397583008 177.35328674316406 46.406429290771484 176.87112426757812 45.34349060058594 C 188.54551696777344 31.434267044067383 161.78981018066406 22.647794723510742 155.8988037109375 16.43448829650879" stroke-width="2.0" fill="none" stroke="rgb(0, 0, 0)" stroke-opacity="1" stroke-linecap="round" stroke-linejoin="round"/>
    <path d="M -10.232749938964844 181.5623779296875 C 43.73984909057617 176.58538818359375 63.95707702636719 197.28555297851562 48.5582275390625 188.55697631835938 C 35.66213607788086 210.62046813964844 30.84806251525879 188.2489471435547 53.75350570678711 178.96453857421875 C 49.60127639770508 177.80142211914062 63.827308654785156 183.5306854248047 37.243160247802734 176.907470703125" stroke-width="2.0" fill="none" stroke="rgb(0, 0, 0)" stroke-opacity="1" stroke-linecap="round" stroke-linejoin="round"/>
    <path d="M -3.6020686626434326 113.47615814208984 C 29.427043914794922 121.06529998779297 38.09874725341797 114.46830749511719 24.058521270751953 123.85015106201172 C 21.889408111572266 114.32733154296875 16.192777633666992 154.3709259033203 25.14847755432129 115.57109069824219" stroke-width="2.0" fill="none" stroke="rgb(0, 0, 0)" stroke-opacity="1" stroke-linecap="round" stroke-linejoin="round"/>
    <path d="M 110.46726989746094 165.1315155029297 C 86.1094741821289 108.88317108154297 95.04802703857422 118.30074310302734 101.51331329345703 129.19688415527344 C 77.59307861328125 115.38887786865234 96.4265365600586 127.14531707763672 98.40431213378906 157.71578979492188" stroke-width="2.0" fill="none" stroke="rgb(0, 0, 0)" stroke-opacity="1" stroke-linecap="round" stroke-linejoin="round"/>
    <path d="M 198.5109100341797 66.25534057617188 C 207.8651123046875 72.94548797607422 168.05284118652344 56.22465896606445 207.69139099121094 66.39490509033203" stroke-width="2.0" fill="none" stroke="rgb(0, 0, 0)" stroke-opacity="1" stroke-linecap="round" stroke-linejoin="round"/>
    <path d="M 6.281212329864502 173.26878356933594 C 98.07703399658203 139.81875610351562 75.4793701171875 126.1290054321289 -5.345757484436035 176.2460174560547 C 37.330810546875 176.31906127929688 62.04587936401367 183.3194580078125 64.22464752197266 175.29437255859375 C 41.77279281616211 170.19996643066406 41.5565299987793 173.10877990722656 70.44804382324219 144.0394287109375" stroke-width="2.0" fill="none" stroke="rgb(0, 0, 0)" stroke-opacity="1" stroke-linecap="round" stroke-linejoin="round"/>
    <path d="M 27.297792434692383 117.5196304321289 C 23.106801986694336 160.67276000976562 -0.4910854399204254 152.75601196289062 -3.0984508991241455 196.7208251953125 C 10.171011924743652 175.03379821777344 0.8235693573951721 158.0604705810547 -1.9395474195480347 164.64682006835938" stroke-width="2.0" fill="none" stroke="rgb(0, 0, 0)" stroke-opacity="1" stroke-linecap="round" stroke-linejoin="round"/>
    <path d="M 114.88555908203125 78.99089813232422 C 120.08817291259766 92.34095001220703 112.69800567626953 87.79579162597656 125.99186706542969 90.29910278320312 C 101.70772552490234 116.967041015625 124.36751556396484 117.42699432373047 122.28346252441406 75.40079498291016 C 122.13301849365234 86.05610656738281 105.83236694335938 99.89502716064453 95.8330078125 116.95037078857422" stroke-width="2.0" fill="none" stroke="rgb(0, 0, 0)" stroke-opacity="1" stroke-linecap="round" stroke-linejoin="round"/>
    <path d="M 164.49147033691406 33.071842193603516 C 133.14566040039062 -1.729277491569519 171.83197021484375 8.290312767028809 152.77195739746094 17.70752716064453 C 190.82997131347656 16.903635025024414 209.01541137695312 8.293355941772461 218.1963348388672 -1.7097644805908203 C 234.94911193847656 27.474889755249023 223.18528747558594 -3.9876036643981934 172.12208557128906 -7.570168972015381" stroke-width="2.0" fill="none" stroke="rgb(0, 0, 0)" stroke-opacity="1" stroke-linecap="round" stroke-linejoin="round"/>
    <path d="M 114.42008209228516 85.28521728515625 C 110.90289306640625 95.7669448852539 93.44403076171875 101.61273193359375 67.85136413574219 119.97249603271484 C 85.67041778564453 106.81698608398438 114.60370635986328 94.84184265136719 119.494873046875 77.21285247802734" stroke-width="2.0" fill="none" stroke="rgb(0, 0, 0)" stroke-opacity="1" stroke-linecap="round" stroke-linejoin="round"/>
    <path d="M -12.09900188446045 174.07359313964844 C 8.01049518585205 168.6778564453125 5.842879772186279 175.44696044921875 3.311222553253174 166.9229736328125 C -6.342269420623779 180.2275848388672 2.329775333404541 166.06423950195312 -9.075685501098633 156.29214477539062 C 0.7446419596672058 161.56173706054688 -0.7616360783576965 192.5152587890625 -4.596576690673828 189.01394653320312" stroke-width="2.0" fill="none" stroke="rgb(0, 0, 0)" stroke-opacity="1" stroke-linecap="round" stroke-linejoin="round"/>
    <path d="M 7.739824295043945 -2.7869324684143066 C -12.684807777404785 9.730502128601074 -14.389511108398438 13.71649169921875 -9.011835098266602 21.760236740112305 C 23.21619415283203 8.138741493225098 36.77766799926758 7.601761341094971 8.084956169128418 9.202672958374023 C 20.060836791992188 14.237935066223145 -5.020118713378906 1.2862824201583862 28.268577575683594 13.107144355773926" stroke-width="2.0" fill="none" stroke="rgb(0, 0, 0)" stroke-opacity="1" stroke-linecap="round" stroke-linejoin="round"/>
    <path d="M 85.52632904052734 147.49423217773438 C 97.74596405029297 131.1016387939453 71.46485137939453 125.96566009521484 94.91131591796875 136.57400512695312 C 106.9891128540039 128.1811065673828 94.8508071899414 111.61504364013672 91.27980041503906 143.03651428222656 C 95.80569458007812 153.6950225830078 66.7613754272461 122.5422592163086 56.24038314819336 138.4626007080078" stroke-width="2.0" fill="none" stroke="rgb(0, 0, 0)" stroke-opacity="1" stroke-linecap="round" stroke-linejoin="round"/>
    <path d="M 5.627581596374512 172.49609375 C 46.80455780029297 159.2187042236328 72.17265319824219 145.95169067382812 81.43276977539062 133.36163330078125 C 81.31539154052734 128.98858642578125 62.2053337097168 140.0499725341797 31.48191261291504 149.7152862548828 C 50.10689163208008 144.519775390625 29.877927780151367 150.7133026123047 7.096001148223877 165.66555786132812" stroke-width="2.0" fill="none" stroke="rgb(0, 0, 0)" stroke-opacity="1" stroke-linecap="round" stroke-linejoin="round"/>
    <path d="M 59.0308723449707 210.53843688964844 C 62.936641693115234 204.1280517578125 78.90386199951172 181.79742431640625 66.00164031982422 199.75892639160156 C 45.738365173339844 190.8054962158203 40.69213104248047 190.74774169921875 60.44477844238281 171.99717712402344 C 53.7113037109375 187.04452514648438 38.08755111694336 199.40646362304688 78.70867919921875 139.7216339111328" stroke-width="2.0" fill="none" stroke="rgb(0, 0, 0)" stroke-opacity="1" stroke-linecap="round" stroke-linejoin="round"/>
    <path d="M 49.65981674194336 18.289628982543945 C 20.74941635131836 -0.8278493285179138 30.239011764526367 -3.013495445251465 17.559789657592773 7.815939426422119 C 17.078889846801758 16.436738967895508 24.650548934936523 2.7418227195739746 40.80363082885742 -7.514492988586426 C 37.85756301879883 -9.05653190612793 39.44125747680664 -11.847445487976074 31.549570083618164 -20.647619247436523" stroke-width="2.0" fill="none" stroke="rgb(0, 0, 0)" stroke-opacity="1" stroke-linecap="round" stroke-linejoin="round"/>
    <path d="M 200.7724609375 155.26292419433594 C 237.06173706054688 150.47879028320312 239.095703125 151.82742309570312 244.46388244628906 153.99244689941406" stroke-width="2.0" fill="none" stroke="rgb(0, 0, 0)" stroke-opacity="1" stroke-linecap="round" stroke-linejoin="round"/>
    <path d="M 49.56803512573242 26.89754867553711 C 111.9908676147461 -20.714599609375 103.47917938232422 5.609005928039551 30.343751907348633 -1.9228616952896118 C 37.69622039794922 -34.08364486694336 47.39469909667969 -27.546142578125 55.65803909301758 -33.91252136230469" stroke-width="2.0" fill="none" stroke="rgb(0, 0, 0)" stroke-opacity="1" stroke-linecap="round" stroke-linejoin="round"/>
    <path d="M -1.044646978378296 139.30645751953125 C 12.346528053283691 119.80606079101562 27.645185470581055 125.1951675415039 -2.813215494155884 126.09968566894531" stroke-width="2.0" fill="none" stroke="rgb(0, 0, 0)" stroke-opacity="1" stroke-linecap="round" stroke-linejoin="round"/>
    <path d="M 119.53779602050781 18.69826889038086 C 95.73099517822266 13.997163772583008 95.13793182373047 8.36339282989502 125.7635498046875 -4.183751106262207 C 77.43328094482422 6.451589584350586 119.18424224853516 22.576425552368164 152.2860107421875 40.8074836730957 C 146.42210388183594 46.4257926940918 134.01638793945312 51.24661636352539 171.55722045898438 46.911441802978516" stroke-width="2.0" fill="none" stroke="rgb(0, 0, 0)" stroke-opacity="1" stroke-linecap="round" stroke-linejoin="round"/>
    <path d="M 80.18376159667969 80.59790802001953 C 80.41607666015625 88.16753387451172 71.19341278076172 68.43463897705078 82.43871307373047 47.76616287231445 C 98.79898071289062 84.59310150146484 83.26133728027344 59.62165451049805 91.66409301757812 38.08994674682617 C 88.92509460449219 51.10985565185547 90.59881591796875 48.308135986328125 92.94241333007812 65.37421417236328" stroke-width="2.0" fill="none" stroke="rgb(0, 0, 0)" stroke-opacity="1" stroke-linecap="round" stroke-linejoin="round"/>
    <path d="M 173.53721618652344 127.3045883178711 C 142.3513641357422 123.02537536621094 159.7666473388672 102.86632537841797 167.74525451660156 136.9477996826172 C 163.80934143066406 128.24607849121094 163.65652465820312 100.7133560180664 179.9855499267578 118.74565887451172 C 155.7622833251953 110.20984649658203 151.07655334472656 111.61941528320312 157.5676727294922 118.98225402832031" stroke-width="2.0" fill="none" stroke="rgb(0, 0, 0)" stroke-opacity="1" stroke-linecap="round" stroke-linejoin="round"/>
    <path d="M 164.99742126464844 194.0734100341797 C 158.028564453125 172.42771911621094 162.56210327148438 178.79103088378906 171.40814208984375 199.58773803710938" stroke-width="2.0" fill="none" stroke="rgb(0, 0, 0)" stroke-opacity="1" stroke-linecap="round" stroke-linejoin="round"/>
    <path d="M 212.1891632080078 150.7550506591797 C 181.8230438232422 139.7939453125 195.5608367919922 164.05191040039062 210.16490173339844 150.1257781982422 C 219.99917602539062 143.90548706054688 216.1667938232422 166.97726440429688 227.176025390625 195.055419921875" stroke-width="2.0" fill="none" stroke="rgb(0, 0, 0)" stroke-opacity="1" stroke-linecap="round" stroke-linejoin="round"/>
    <path d="M 163.46942138671875 78.49429321289062 C 159.98085021972656 91.40090942382812 185.6929168701172 84.901611328125 209.06900024414062 64.61093139648438 C 197.86033630371094 81.96198272705078 185.58798217773438 101.92753601074219 177.92721557617188 99.63819122314453 C 199.22207641601562 84.30554962158203 194.24900817871094 93.82444763183594 177.4907989501953 84.78755950927734" stroke-width="2.0" fill="none" stroke="rgb(0, 0, 0)" stroke-opacity="1" stroke-linecap="round" stroke-linejoin="round"/>
    <path d="M 233.236328125 137.65403747558594 C 216.92678833007812 143.98109436035156 236.25582885742188 144.23583984375 254.23756408691406 141.90573120117188 C 240.24937438964844 146.1916961669922 248.73916625976562 141.81668090820312 206.0992889404297 142.69252014160156" stroke-width="2.0" fill="none" stroke="rgb(0, 0, 0)" stroke-opacity="1" stroke-linecap="round" stroke-linejoin="round"/>
    <path d="M 132.8674774169922 161.17169189453125 C 126.22303009033203 153.11111450195312 121.0757827758789 177.47853088378906 134.92384338378906 154.49505615234375 C 92.3864974975586 129.75514221191406 89.83064270019531 123.17662048339844 120.15445709228516 155.4664306640625" stroke-width="2.0" fill="none" stroke="rgb(0, 0, 0)" stroke-opacity="1" stroke-linecap="round" stroke-linejoin="round"/>
    <path d="M 203.82342529296875 34.60655212402344 C 224.0044708251953 -5.012580871582031 220.16970825195312 7.3586859703063965 167.07241821289062 -1.8804755210876465 C 178.64410400390625 -7.242755889892578 171.06292724609375 -7.150968074798584 152.3498992919922 -7.402822971343994" stroke-width="2.0" fill="none" stroke="rgb(0, 0, 0)" stroke-opacity="1" stroke-linecap="round" stroke-linejoin="round"/>
    <path d="M 64.0818099975586 166.15806579589844 C 84.217529296875 163.17477416992188 92.5755615234375 161.2886199951172 78.23617553710938 179.09901428222656 C 67.43081665039062 160.1334991455078 70.68555450439453 165.7949981689453 68.3205337524414 179.0122528076172" stroke-width="2.0" fill="none" stroke="rgb(0, 0, 0)" stroke-opacity="1" stroke-linecap="round" stroke-linejoin="round"/>
    <path d="M 173.25169372558594 159.8695831298828 C 149.92709350585938 142.24847412109375 153.3814239501953 188.3604736328125 175.06570434570312 162.79165649414062" stroke-width="2.0" fill="none" stroke="rgb(0, 0, 0)" stroke-opacity="1" stroke-linecap="round" stroke-linejoin="round"/>
    <path d="M 86.65406036376953 103.50886535644531 C 120.30615997314453 83.22120666503906 127.61376190185547 70.03823852539062 113.80776977539062 86.31061553955078 C 117.22864532470703 85.29251098632812 120.22427368164062 91.33948516845703 117.27041625976562 89.04175567626953" stroke-width="2.0" fill="none" stroke="rgb(0, 0, 0)" stroke-opacity="1" stroke-linecap="round" stroke-linejoin="round"/>
    <path d="M 40.79121398925781 47.80293273925781 C 51.2185173034668 47.946205139160156 66.53413391113281 39.61963653564453 50.8658561706543 43.01333236694336 C 26.590639114379883 5.298114776611328 22.008657455444336 -12.992317199707031 35.57743835449219 37.6187744140625 C 17.722110748291016 53.01096725463867 26.276830673217773 65.05448150634766 26.052541732788086 9.825630187988281" stroke-width="2.0" fill="none" stroke="rgb(0, 0, 0)" stroke-opacity="1" stroke-linecap="round" stroke-linejoin="round"/>
    <path d="M 176.4918975830078 41.466976165771484 C 123.0885009765625 49.07609176635742 156.2487030029297 45.21303176879883 167.1505584716797 51.80743408203125 C 162.27064514160156 21.531293869018555 167.5656280517578 51.86296844482422 159.58851623535156 64.87506103515625 C 172.36244201660156 36.691741943359375 157.29335021972656 58.6392936706543 147.3062286376953 64.7411880493164" stroke-width="2.0" fill="none" stroke="rgb(0, 0, 0)" stroke-opacity="1" stroke-linecap="round" stroke-linejoin="round"/>
    <path d="M 73.46167755126953 43.24679946899414 C 124.82894897460938 42.820960998535156 96.42186737060547 28.231704711914062 76.08367156982422 35.10389709472656" stroke-width="2.0" fill="none" stroke="rgb(0, 0, 0)" stroke-opacity="1" stroke-linecap="round" stroke-linejoin="round"/>
    <path d="M 63.76970291137695 92.91194915771484 C 71.49246215820312 67.90511322021484 78.10108947753906 47.82094955444336 82.12787628173828 36.81227493286133 C 78.10255432128906 88.82347106933594 82.21744537353516 99.8238754272461 84.17977905273438 56.63334655761719 C 93.45352172851562 50.19913101196289 93.21522521972656 76.65348052978516 88.09613800048828 56.084903717041016" stroke-width="2.0" fill="none" stroke="rgb(0, 0, 0)" stroke-opacity="1" stroke-linecap="round" stroke-linejoin="round"/>
    <path d="M 12.224085807800293 121.32109832763672 C 33.114322662353516 111.66139221191406 9.787821769714355 135.9523468017578 -1.3947399854660034 173.73414611816406" stroke-width="2.0" fill="none" stroke="rgb(0, 0, 0)" stroke-opacity="1" stroke-linecap="round" stroke-linejoin="round"/>
    <path d="M 45.06436538696289 186.09207153320312 C 52.23725509643555 169.07154846191406 32.575950622558594 185.59005737304688 68.10175323486328 197.56881713867188 C 50.682979583740234 189.73944091796875 37.49729537963867 183.954833984375 68.74716186523438 195.74903869628906" stroke-width="2.0" fill="none" stroke="rgb(0, 0, 0)" stroke-opacity="1" stroke-linecap="round" stroke-linejoin="round"/>
    <path d="M 167.84457397460938 219.9853973388672 C 180.11207580566406 218.18746948242188 189.12586975097656 216.40342712402344 221.9229278564453 224.26190185546875 C 213.90878295898438 254.26792907714844 212.19180297851562 243.89764404296875 214.93202209472656 246.70761108398438" stroke-width="2.0" fill="none" stroke="rgb(0, 0, 0)" stroke-opacity="1" stroke-linecap="round" stroke-linejoin="round"/>
    <path d="M -6.9903082847595215 220.45574951171875 C 37.93549346923828 185.21095275878906 33.17554473876953 182.9432830810547 39.722434997558594 183.5435791015625 C 37.274200439453125 241.2554168701172 30.810243606567383 250.87152099609375 38.850830078125 247.44503784179688 C 22.12499237060547 238.1988067626953 31.368738174438477 243.77647399902344 38.575164794921875 242.0491943359375" stroke-width="2.0" fill="none" stroke="rgb(0, 0, 0)" stroke-opacity="1" stroke-linecap="round" stroke-linejoin="round"/>
    <path d="M 230.18162536621094 161.53138732910156 C 234.94216918945312 164.78810119628906 223.19976806640625 141.45802307128906 217.75994873046875 159.52438354492188 C 196.39581298828125 150.972900390625 201.69082641601562 146.0618438720703 208.75570678710938 146.6858673095703" stroke-width="2.0" fill="none" stroke="rgb(0, 0, 0)" stroke-opacity="1" stroke-linecap="round" stroke-linejoin="round"/>
    <path d="M 101.23991394042969 175.12571716308594 C 83.87476348876953 177.71194458007812 65.4707260131836 158.23831176757812 83.12823486328125 164.02186584472656 C 82.30475616455078 181.77890014648438 106.47664642333984 181.51705932617188 80.29706573486328 167.92152404785156" stroke-width="2.0" fill="none" stroke="rgb(0, 0, 0)" stroke-opacity="1" stroke-linecap="round" stroke-linejoin="round"/>
    <path d="M 25.27910804748535 129.66928100585938 C 28.966331481933594 110.74285125732422 33.98805236816406 129.55299377441406 17.03899574279785 119.37568664550781 C 21.682353973388672 104.47013854980469 33.04110336303711 99.49274444580078 31.514680862426758 97.64420318603516 C 46.03755187988281 93.99332427978516 53.13661575317383 79.84624481201172 -1.479048252105713 104.09124755859375" stroke-width="2.0" fill="none" stroke="rgb(0, 0, 0)" stroke-opacity="1" stroke-linecap="round" stroke-linejoin="round"/>
    <path d="M 42.077117919921875 185.64915466308594 C -40.33820724487305 189.44139099121094 -57.670894622802734 198.7313995361328 -62.06725311279297 211.0514678955078 C -23.35611343383789 196.7498016357422 -29.119544982910156 194.8816680908203 -35.19807815551758 204.52310180664062 C -36.672576904296875 198.61900329589844 -41.4462890625 197.77906799316406 -48.558589935302734 208.29434204101562" stroke-width="2.0" fill="none" stroke="rgb(0, 0, 0)" stroke-opacity="1" stroke-linecap="round" stroke-linejoin="round"/>
    <path d="M 121.50270080566406 195.4581756591797 C 113.23128509521484 225.79742431640625 107.3027572631836 184.87094116210938 127.7161865234375 193.47918701171875 C 108.95050048828125 205.0475311279297 116.45872497558594 196.94638061523438 124.90547943115234 191.7219696044922 C 119.54931640625 232.31863403320312 123.33050537109375 249.90945434570312 134.13160705566406 226.99388122558594" stroke-width="2.0" fill="none" stroke="rgb(0, 0, 0)" stroke-opacity="1" stroke-linecap="round" stroke-linejoin="round"/>
    <path d="M 119.67627716064453 164.7866668701172 C 126.43437194824219 147.1797332763672 117.87801361083984 166.97569274902344 125.54110717773438 168.61459350585938 C 134.5341033935547 154.2469024658203 136.533203125 160.78375244140625 128.85885620117188 176.82522583007812 C 119.85586547851562 172.25921630859375 111.31292724609375 156.2675018310547 133.44436645507812 162.29966735839844" stroke-width="2.0" fill="none" stroke="rgb(0, 0, 0)" stroke-opacity="1" stroke-linecap="round" stroke-linejoin="round"/>
    <path d="M 143.13510131835938 205.11679077148438 C 143.0020294189453 200.09896850585938 126.53758239746094 173.16864013671875 131.36224365234375 154.19314575195312 C 106.55693817138672 160.89620971679688 123.56582641601562 174.023193359375 120.67627716064453 162.18458557128906 C 125.835205078125 145.08177185058594 127.88848876953125 168.52513122558594 149.6252899169922 197.22415161132812" stroke-width="2.0" fill="none" stroke="rgb(0, 0, 0)" stroke-opacity="1" stroke-linecap="round" stroke-linejoin="round"/>
    <path d="M 210.409912109375 163.79872131347656 C 213.985595703125 134.29461669921875 199.75738525390625 150.4720001220703 196.2818145751953 148.1314697265625 C 212.0023193359375 147.51463317871094 242.08383178710938 144.00833129882812 229.4184112548828 146.94517517089844 C 211.26463317871094 163.88400268554688 210.4189910888672 163.8282012939453 213.01626586914062 151.20066833496094" stroke-width="2.0" fill="none" stroke="rgb(0, 0, 0)" stroke-opacity="1" stroke-linecap="round" stroke-linejoin="round"/>
    <path d="M 125.01471710205078 77.22502136230469 C 131.46365356445312 119.92223358154297 130.6879425048828 110.99772644042969 126.2501449584961 68.55510711669922 C 118.82994079589844 76.51142883300781 120.36890411376953 68.9891357421875 135.23605346679688 76.12361907958984 C 128.66937255859375 80.86731719970703 110.39998626708984 84.36780548095703 112.48709106445312 132.4313507080078" stroke-width="2.0" fill="none" stroke="rgb(0, 0, 0)" stroke-opacity="1" stroke-linecap="round" stroke-linejoin="round"/>
    <path d="M 160.10777282714844 124.45314025878906 C 174.03814697265625 113.67552185058594 157.50631713867188 111.51284790039062 170.12802124023438 128.2257843017578" stroke-width="2.0" fill="none" stroke="rgb(0, 0, 0)" stroke-opacity="1" stroke-linecap="round" stroke-linejoin="round"/>
    <path d="M 226.62339782714844 145.31842041015625 C 210.3700714111328 111.2646484375 215.46710205078125 92.66112518310547 227.72299194335938 134.89144897460938 C 232.31298828125 117.23226165771484 239.10543823242188 104.33184051513672 226.56968688964844 115.94242858886719" stroke-width="2.0" fill="none" stroke="rgb(0, 0, 0)" stroke-opacity="1" stroke-linecap="round" stroke-linejoin="round"/>
    <path d="M 169.24940490722656 81.01469421386719 C 162.9752655029297 39.67287826538086 169.9224853515625 22.62297248840332 175.1975555419922 50.74839782714844" stroke-width="2.0" fill="none" stroke="rgb(0, 0, 0)" stroke-opacity="1" stroke-linecap="round" stroke-linejoin="round"/>
    <path d="M 92.18973541259766 200.7590789794922 C 93.8193359375 210.41162109375 94.65079498291016 221.92481994628906 90.11241912841797 202.986328125 C 112.31507873535156 235.59364318847656 99.61246490478516 181.28575134277344 88.6874008178711 207.108154296875 C 87.5142822265625 194.7695770263672 86.67066955566406 207.64430236816406 98.533935546875 206.0614471435547" stroke-width="2.0" fill="none" stroke="rgb(0, 0, 0)" stroke-opacity="1" stroke-linecap="round" stroke-linejoin="round"/>
    <path d="M 102.56446075439453 52.135040283203125 C 117.35588836669922 26.491254806518555 119.77323150634766 45.30608367919922 82.24441528320312 35.16972732543945 C 120.09407806396484 38.12297058105469 90.98054504394531 39.969627380371094 100.65361785888672 35.67876434326172" stroke-width="2.0" fill="none" stroke="rgb(0, 0, 0)" stroke-opacity="1" stroke-linecap="round" stroke-linejoin="round"/>
    <path d="M 24.964092254638672 52.20983123779297 C 42.32440185546875 45.768470764160156 27.25246810913086 26.699872970581055 19.69184684753418 51.354007720947266" stroke-width="2.0" fill="none" stroke="rgb(0, 0, 0)" stroke-opacity="1" stroke-linecap="round" stroke-linejoin="round"/>
    <path d="M 73.52813720703125 7.375466823577881 C 25.888822555541992 8.677573204040527 23.862064361572266 -1.4304354190826416 6.694040775299072 -13.652592658996582" stroke-width="2.0" fill="none" stroke="rgb(0, 0, 0)" stroke-opacity="1" stroke-linecap="round" stroke-linejoin="round"/>
    <path d="M 187.04537963867188 105.6123046875 C 221.0654296875 102.70350646972656 243.07498168945312 120.8085708618164 233.71400451660156 107.44938659667969" stroke-width="2.0" fill="none" stroke="rgb(0, 0, 0)" stroke-opacity="1" stroke-linecap="round" stroke-linejoin="round"/>
    <path d="M 79.28031158447266 74.202392578125 C 85.93714141845703 30.500322341918945 65.69307708740234 58.232425689697266 49.099578857421875 87.23502349853516 C 88.91295623779297 39.483741760253906 86.80140686035156 37.35284423828125 31.834716796875 72.82290649414062 C 81.62217712402344 54.21843338012695 83.66252136230469 30.796249389648438 95.98594665527344 62.65531921386719" stroke-width="2.0" fill="none" stroke="rgb(0, 0, 0)" stroke-opacity="1" stroke-linecap="round" stroke-linejoin="round"/>
    <path d="M 197.7968292236328 184.67567443847656 C 165.50717163085938 167.98553466796875 155.88131713867188 162.7880401611328 167.79611206054688 172.16372680664062 C 175.03553771972656 180.5546875 142.1221923828125 151.6781005859375 165.887939453125 177.49114990234375" stroke-width="2.0" fill="none" stroke="rgb(0, 0, 0)" stroke-opacity="1" stroke-linecap="round" stroke-linejoin="round"/>
    <path d="M 129.32666015625 163.54470825195312 C 172.88760375976562 186.03346252441406 152.88156127929688 172.71267700195312 159.58917236328125 169.7363739013672" stroke-width="2.0" fill="none" stroke="rgb(0, 0, 0)" stroke-opacity="1" stroke-linecap="round" stroke-linejoin="round"/>
    <path d="M 81.26180267333984 174.34335327148438 C 106.4400863647461 195.18585205078125 127.00889587402344 215.95921325683594 119.39480590820312 189.8672637939453 C 108.77263641357422 224.01904296875 123.65996551513672 194.4699249267578 126.42691040039062 157.08067321777344" stroke-width="2.0" fill="none" stroke="rgb(0, 0, 0)" stroke-opacity="1" stroke-linecap="round" stroke-linejoin="round"/>
    <path d="M 21.528749465942383 72.87545776367188 C 21.660600662231445 42.101905822753906 16.37710952758789 39.39446258544922 30.518346786499023 72.81378173828125 C 62.5810661315918 67.29206085205078 25.110036849975586 57.850772857666016 20.7353458404541 37.735225677490234 C 21.99558448791504 53.83977508544922 34.846824645996094 57.88840103149414 35.36147689819336 69.84414672851562" stroke-width="2.0" fill="none" stroke="rgb(0, 0, 0)" stroke-opacity="1" stroke-linecap="round" stroke-linejoin="round"/>
    <path d="M 198.75814819335938 196.5967254638672 C 216.65162658691406 194.9691925048828 200.93496704101562 208.51492309570312 203.9862518310547 204.8818817138672" stroke-width="2.0" fill="none" stroke="rgb(0, 0, 0)" stroke-opacity="1" stroke-linecap="round" stroke-linejoin="round"/>
    <path d="M 58.31673049926758 44.628990173339844 C 46.09988021850586 46.430294036865234 30.129657745361328 48.71842575073242 55.073944091796875 42.445220947265625 C 27.63104248046875 58.29922103881836 35.210140228271484 36.23749923706055 28.112567901611328 52.58654022216797 C 19.808897018432617 45.497100830078125 46.02305221557617 52.1399040222168 37.818092346191406 37.765785217285156" stroke-width="2.0" fill="none" stroke="rgb(0, 0, 0)" stroke-opacity="1" stroke-linecap="round" stroke-linejoin="round"/>
    <path d="M 163.8118133544922 151.81251525878906 C 162.12451171875 90.30111694335938 151.58778381347656 120.970947265625 145.75698852539062 173.8937530517578 C 161.49456787109375 113.07806396484375 158.3985137939453 96.59578704833984 172.3441162109375 128.70616149902344" stroke-width="2.0" fill="none" stroke="rgb(0, 0, 0)" stroke-opacity="1" stroke-linecap="round" stroke-linejoin="round"/>
    <path d="M 66.20420837402344 194.21900939941406 C 20.466676712036133 184.35995483398438 29.582962036132812 191.19818115234375 27.698965072631836 192.2289276123047 C 36.77970886230469 160.4425811767578 56.052005767822266 205.13583374023438 42.511802673339844 191.2809600830078" stroke-width="2.0" fill="none" stroke="rgb(0, 0, 0)" stroke-opacity="1" stroke-linecap="round" stroke-linejoin="round"/>
    <path d="M 40.11227035522461 80.2387466430664 C 22.13455581665039 120.00646209716797 9.46513843536377 114.1112289428711 46.61821746826172 113.61143493652344" stroke-width="2.0" fill="none" stroke="rgb(0, 0, 0)" stroke-opacity="1" stroke-linecap="round" stroke-linejoin="round"/>
    <path d="M 227.42945861816406 205.4668731689453 C 212.90919494628906 197.65499877929688 192.18934631347656 198.63282775878906 206.1369171142578 206.2860107421875 C 181.4181671142578 178.1451873779297 160.3908233642578 165.51202392578125 190.1773681640625 180.29298400878906 C 189.3365020751953 179.35031127929688 193.3687286376953 175.39260864257812 192.94296264648438 178.2049102783203" stroke-width="2.0" fill="none" stroke="rgb(0, 0, 0)" stroke-opacity="1" stroke-linecap="round" stroke-linejoin="round"/>
    <path d="M 25.12519645690918 113.913330078125 C 55.75238037109375 105.99938201904297 61.387725830078125 117.66730499267578 54.21541976928711 108.1068115234375 C 38.44020080566406 83.50283813476562 25.54753875732422 80.95404815673828 43.62914276123047 94.19868469238281 C 26.540565490722656 87.35064697265625 19.800601959228516 81.4373550415039 43.53365707397461 92.59580993652344" stroke-width="2.0" fill="none" stroke="rgb(0, 0, 0)" stroke-opacity="1" stroke-linecap="round" stroke-linejoin="round"/>
    <path d="M 167.61758422851562 40.38611602783203 C 142.67822265625 66.82180786132812 141.36622619628906 64.08013153076172 136.92823791503906 48.484806060791016 C 148.45858764648438 65.83240509033203 143.14797973632812 59.129878997802734 121.48868560791016 24.212242126464844" stroke-width="2.0" fill="none" stroke="rgb(0, 0, 0)" stroke-opacity="1" stroke-linecap="round" stroke-linejoin="round"/>
    <path d="M 179.8826446533203 72.31983947753906 C 171.23220825195312 28.122060775756836 175.5497589111328 21.915691375732422 172.94961547851562 80.01304626464844" stroke-width="2.0" fill="none" stroke="rgb(0, 0, 0)" stroke-opacity="1" stroke-linecap="round" stroke-linejoin="round"/>
    <path d="M 108.67638397216797 110.36199951171875 C 134.3584442138672 100.15533447265625 112.76815032958984 75.09020233154297 114.85845947265625 84.73600006103516 C 134.45086669921875 105.42215728759766 150.8967742919922 101.52249908447266 128.6409454345703 76.43016052246094" stroke-width="2.0" fill="none" stroke="rgb(0, 0, 0)" stroke-opacity="1" stroke-linecap="round" stroke-linejoin="round"/>
    <path d="M 25.07172203063965 58.23575973510742 C 20.493122100830078 37.89597702026367 26.899723052978516 50.82324981689453 35.452171325683594 68.07470703125 C 33.15258026123047 85.36338806152344 20.278982162475586 50.4124641418457 30.306856155395508 51.4095573425293" stroke-width="2.0" fill="none" stroke="rgb(0, 0, 0)" stroke-opacity="1" stroke-linecap="round" stroke-linejoin="round"/>
    <path d="M 29.920957565307617 71.3040771484375 C 35.71589279174805 69.14298248291016 15.753853797912598 80.27318572998047 -0.44869330525398254 92.09490203857422 C -9.927507400512695 101.21624755859375 -8.195267677307129 120.93373107910156 24.953779220581055 94.49783325195312" stroke-width="2.0" fill="none" stroke="rgb(0, 0, 0)" stroke-opacity="1" stroke-linecap="round" stroke-linejoin="round"/>
    <path d="M 102.40240478515625 135.79615783691406 C 95.53824615478516 125.56413269042969 76.00276184082031 137.4080352783203 96.90298461914062 135.94723510742188 C 78.56708526611328 127.44913482666016 87.74948120117188 117.71891021728516 86.34768676757812 134.02476501464844" stroke-width="2.0" fill="none" stroke="rgb(0, 0, 0)" stroke-opacity="1" stroke-linecap="round" stroke-linejoin="round"/>
    <path d="M 12.707112312316895 59.00811004638672 C 22.85690689086914 47.57917404174805 7.274534702301025 29.92704200744629 36.940879821777344 37.92618942260742" stroke-width="2.0" fill="none" stroke="rgb(0, 0, 0)" stroke-opacity="1" stroke-linecap="round" stroke-linejoin="round"/>
    <path d="M 207.09226989746094 208.7384796142578 C 207.58929443359375 178.16819763183594 213.13279724121094 205.23944091796875 208.56878662109375 237.79861450195312 C 191.73980712890625 224.97940063476562 190.1107177734375 222.77011108398438 234.0047607421875 236.04519653320312 C 228.13870239257812 232.90728759765625 209.1269989013672 192.13632202148438 204.00582885742188 196.32452392578125" stroke-width="2.0" fill="none" stroke="rgb(0, 0, 0)" stroke-opacity="1" stroke-linecap="round" stroke-linejoin="round"/>
    <path d="M 196.8741455078125 54.74489212036133 C 187.72073364257812 34.8659782409668 186.03683471679688 29.28255271911621 180.73696899414062 24.077781677246094 C 208.83203125 35.85951614379883 174.29212951660156 39.2395133972168 156.133544921875 13.070030212402344 C 137.6226806640625 25.702198028564453 139.7515869140625 43.08253479003906 154.21714782714844 8.981501579284668" stroke-width="2.0" fill="none" stroke="rgb(0, 0, 0)" stroke-opacity="1" stroke-linecap="round" stroke-linejoin="round"/>
    <path d="M 12.252323150634766 126.96541595458984 C -6.000040531158447 145.0652313232422 -8.87983226776123 159.59034729003906 25.336502075195312 109.68580627441406 C 46.178131103515625 123.78463745117188 20.6585750579834 142.20797729492188 39.187557220458984 97.64862823486328" stroke-width="2.0" fill="none" stroke="rgb(0, 0, 0)" stroke-opacity="1" stroke-linecap="round" stroke-linejoin="round"/>
    <path d="M 163.7069091796875 54.04171371459961 C 175.90415954589844 42.92393493652344 152.35391235351562 51.35466003417969 177.77964782714844 49.73091125488281 C 169.856201171875 18.781024932861328 166.78941345214844 59.605384826660156 185.23980712890625 53.460609436035156" stroke-width="2.0" fill="none" stroke="rgb(0, 0, 0)" stroke-opacity="1" stroke-linecap="round" stroke-linejoin="round"/>
    <path d="M 170.634521484375 200.02830505371094 C 159.35328674316406 272.1641845703125 153.6092529296875 240.05291748046875 167.4554443359375 177.74789428710938 C 166.9076690673828 161.46844482421875 167.70144653320312 154.5603485107422 172.3247528076172 200.45713806152344" stroke-width="2.0" fill="none" stroke="rgb(0, 0, 0)" stroke-opacity="1" stroke-linecap="round" stroke-linejoin="round"/>
    <path d="M 186.8306884765625 26.145723342895508 C 200.02197265625 41.38494110107422 229.2660369873047 45.97861862182617 240.80718994140625 43.58146286010742" stroke-width="2.0" fill="none" stroke="rgb(0, 0, 0)" stroke-opacity="1" stroke-linecap="round" stroke-linejoin="round"/>
    <path d="M 143.2022247314453 151.92276000976562 C 142.35430908203125 171.00074768066406 156.04591369628906 162.87899780273438 183.66162109375 160.6945343017578" stroke-width="2.0" fill="none" stroke="rgb(0, 0, 0)" stroke-opacity="1" stroke-linecap="round" stroke-linejoin="round"/>
    <path d="M 127.23477172851562 200.29074096679688 C 124.34203338623047 242.1273651123047 133.20407104492188 234.93185424804688 131.4292449951172 222.77809143066406 C 140.81820678710938 224.7930145263672 144.13235473632812 216.57373046875 103.8756103515625 225.90701293945312 C 133.6356658935547 213.16075134277344 137.12515258789062 219.65138244628906 144.47268676757812 227.6614227294922" stroke-width="2.0" fill="none" stroke="rgb(0, 0, 0)" stroke-opacity="1" stroke-linecap="round" stroke-linejoin="round"/>
    <path d="M 33.88658905029297 40.2130241394043 C 38.673423767089844 47.938350677490234 25.824298858642578 51.57795715332031 30.31708335876465 38.376461029052734" stroke-width="2.0" fill="none" stroke="rgb(0, 0, 0)" stroke-opacity="1" stroke-linecap="round" stroke-linejoin="round"/>
    <path d="M -2.3100101947784424 95.27383422851562 C -20.451974868774414 113.72929382324219 -12.500035285949707 118.290771484375 8.597204208374023 105.4977035522461 C -12.776392936706543 106.83782196044922 4.8479790687561035 103.99368286132812 -13.24828052520752 94.72238159179688 C -11.061924934387207 98.32994079589844 -14.725947380065918 88.3783950805664 37.47616958618164 90.08425903320312" stroke-width="2.0" fill="none" stroke="rgb(0, 0, 0)" stroke-opacity="1" stroke-linecap="round" stroke-linejoin="round"/>
    <path d="M 216.49525451660156 143.6908416748047 C 175.16900634765625 146.7378387451172 164.03419494628906 143.81809997558594 176.03207397460938 154.2869415283203" stroke-width="2.0" fill="none" stroke="rgb(0, 0, 0)" stroke-opacity="1" stroke-linecap="round" stroke-linejoin="round"/>
    <path d="M 125.56436157226562 122.0669174194336 C 172.49964904785156 123.4796142578125 125.92657470703125 134.14976501464844 139.71475219726562 131.3754425048828 C 117.41271209716797 137.67437744140625 105.42869567871094 137.56951904296875 103.24938201904297 131.51296997070312" stroke-width="2.0" fill="none" stroke="rgb(0, 0, 0)" stroke-opacity="1" stroke-linecap="round" stroke-linejoin="round"/>
    <path d="M 204.69564819335938 174.85336303710938 C 200.57235717773438 182.44017028808594 206.6939239501953 154.1669464111328 196.3607177734375 202.81427001953125 C 206.78273010253906 210.60739135742188 226.40994262695312 184.09857177734375 200.42919921875 193.69859313964844" stroke-width="2.0" fill="none" stroke="rgb(0, 0, 0)" stroke-opacity="1" stroke-linecap="round" stroke-linejoin="round"/>
    <path d="M 146.6988525390625 206.81863403320312 C 157.24221801757812 197.4127197265625 147.50735473632812 181.0420379638672 149.4734649658203 193.3685302734375" stroke-width="2.0" fill="none" stroke="rgb(0, 0, 0)" stroke-opacity="1" stroke-linecap="round" stroke-linejoin="round"/>
    <path d="M 17.697359085083008 -5.843326091766357 C 29.623035430908203 -10.568735122680664 32.32923889160156 0.6985465884208679 30.055025100708008 -1.462358832359314 C 4.606517791748047 6.6313652992248535 21.466819763183594 17.767858505249023 36.40019226074219 2.1827945709228516" stroke-width="2.0" fill="none" stroke="rgb(0, 0, 0)" stroke-opacity="1" stroke-linecap="round" stroke-linejoin="round"/>
    <path d="M 51.973018646240234 175.0435333251953 C 97.28023529052734 163.92355346679688 74.78250885009766 162.91465759277344 59.01392364501953 195.2034454345703" stroke-width="2.0" fill="none" stroke="rgb(0, 0, 0)" stroke-opacity="1" stroke-linecap="round" stroke-linejoin="round"/>
    <path d="M 54.785552978515625 207.3203582763672 C 34.241310119628906 177.24008178710938 24.943037033081055 192.3577117919922 -6.644888877868652 215.4916534423828 C -6.0347771644592285 212.79934692382812 15.20236873626709 203.2874755859375 -7.746060371398926 200.11167907714844 C 1.1140629053115845 186.53021240234375 -2.9320619106292725 190.21151733398438 4.002665042877197 231.68739318847656" stroke-width="2.0" fill="none" stroke="rgb(0, 0, 0)" stroke-opacity="1" stroke-linecap="round" stroke-linejoin="round"/>
    <path d="M 115.3564453125 222.0015106201172 C 135.57843017578125 234.10862731933594 145.8754119873047 212.6984405517578 156.86280822753906 218.2151336669922 C 149.3955535888672 213.84718322753906 149.46673583984375 211.48985290527344 136.30380249023438 210.10292053222656" stroke-width="2.0" fill="none" stroke="rgb(0, 0, 0)" stroke-opacity="1" stroke-linecap="round" stroke-linejoin="round"/>
    <path d="M 110.12309265136719 83.41227722167969 C 84.3302230834961 87.31492614746094 80.33930206298828 89.26013946533203 113.4066390991211 80.96240234375 C 117.8661880493164 87.17005920410156 128.16510009765625 87.14740753173828 97.7511215209961 76.06609344482422" stroke-width="2.0" fill="none" stroke="rgb(0, 0, 0)" stroke-opacity="1" stroke-linecap="round" stroke-linejoin="round"/>
    <path d="M -8.174708366394043 68.09784698486328 C -30.954837799072266 72.95559692382812 -17.828121185302734 69.3448486328125 2.0124330520629883 97.72248840332031 C -9.97244644165039 110.564697265625 7.956329822540283 73.32102966308594 27.8773250579834 38.28166198730469 C -3.6551849842071533 73.99639892578125 5.724175930023193 60.362892150878906 -14.803157806396484 50.10525131225586" stroke-width="2.0" fill="none" stroke="rgb(0, 0, 0)" stroke-opacity="1" stroke-linecap="round" stroke-linejoin="round"/>
    <path d="M 82.32415008544922 104.99636840820312 C 65.98831176757812 95.67218017578125 73.96836853027344 97.88777160644531 86.04454803466797 94.44377899169922" stroke-width="2.0" fill="none" stroke="rgb(0, 0, 0)" stroke-opacity="1" stroke-linecap="round" stroke-linejoin="round"/>
    <path d="M 111.07806396484375 184.1438446044922 C 129.77676391601562 152.6992645263672 118.16659545898438 171.0403594970703 131.48329162597656 159.57330322265625" stroke-width="2.0" fill="none" stroke="rgb(0, 0, 0)" stroke-opacity="1" stroke-linecap="round" stroke-linejoin="round"/>
    <path d="M 60.31837463378906 171.6890106201172 C 27.24061393737793 169.08517456054688 74.57730102539062 167.3159637451172 71.89397430419922 175.68893432617188 C 62.835418701171875 178.05015563964844 82.97894287109375 175.1107635498047 130.91783142089844 165.8693389892578" stroke-width="2.0" fill="none" stroke="rgb(0, 0, 0)" stroke-opacity="1" stroke-linecap="round" stroke-linejoin="round"/>
    <path d="M 152.80665588378906 215.37420654296875 C 140.77687072753906 209.25201416015625 127.56359100341797 205.23696899414062 103.35514831542969 196.43064880371094" stroke-width="2.0" fill="none" stroke="rgb(0, 0, 0)" stroke-opacity="1" stroke-linecap="round" stroke-linejoin="round"/>
    <path d="M 158.2021942138672 176.98214721679688 C 190.27720642089844 166.72740173339844 137.3661651611328 183.53704833984375 126.8901138305664 155.52967834472656" stroke-width="2.0" fill="none" stroke="rgb(0, 0, 0)" stroke-opacity="1" stroke-linecap="round" stroke-linejoin="round"/>
    <path d="M 4.7368268966674805 105.5089340209961 C 46.46471405029297 85.98905944824219 35.2168083190918 69.26571655273438 36.57512283325195 129.03286743164062 C 39.76206970214844 135.01397705078125 42.37724685668945 115.89704895019531 34.30992889404297 96.90692138671875 C 27.466201782226562 98.53695678710938 27.472476959228516 112.58491516113281 34.199222564697266 84.96968841552734" stroke-width="2.0" fill="none" stroke="rgb(0, 0, 0)" stroke-opacity="1" stroke-linecap="round" stroke-linejoin="round"/>
    <path d="M 206.3978271484375 102.03096008300781 C 203.65866088867188 135.31787109375 212.02346801757812 87.22223663330078 213.06211853027344 116.38072967529297" stroke-width="2.0" fill="none" stroke="rgb(0, 0, 0)" stroke-opacity="1" stroke-linecap="round" stroke-linejoin="round"/>
    <path d="M 209.13613891601562 153.32278442382812 C 161.2744140625 147.32400512695312 170.62039184570312 170.8829803466797 199.8629608154297 154.6232452392578 C 202.579833984375 155.96185302734375 203.9178924560547 156.43157958984375 178.01612854003906 176.0567626953125" stroke-width="2.0" fill="none" stroke="rgb(0, 0, 0)" stroke-opacity="1" stroke-linecap="round" stroke-linejoin="round"/>
    <path d="M 173.09231567382812 182.44631958007812 C 151.50921630859375 179.47549438476562 169.03494262695312 204.1496124267578 151.41201782226562 188.59254455566406" stroke-width="2.0" fill="none" stroke="rgb(0, 0, 0)" stroke-opacity="1" stroke-linecap="round" stroke-linejoin="round"/>
    <path d="M 229.38771057128906 155.03369140625 C 231.98114013671875 165.40090942382812 238.9097900390625 176.8778076171875 249.41961669921875 170.04783630371094" stroke-width="2.0" fill="none" stroke="rgb(0, 0, 0)" stroke-opacity="1" stroke-linecap="round" stroke-linejoin="round"/>
    <path d="M 22.5950870513916 50.379432678222656 C 49.11901092529297 73.11334228515625 26.822147369384766 87.840087890625 25.702865600585938 49.93962478637695" stroke-width="2.0" fill="none" stroke="rgb(0, 0, 0)" stroke-opacity="1" stroke-linecap="round" stroke-linejoin="round"/>
    <path d="M 243.59120178222656 115.53606414794922 C 224.9812774658203 105.1504898071289 194.05812072753906 105.82843780517578 202.67994689941406 108.67774963378906 C 239.4296112060547 105.51105499267578 248.0106658935547 111.8582763671875 247.24990844726562 115.10295867919922" stroke-width="2.0" fill="none" stroke="rgb(0, 0, 0)" stroke-opacity="1" stroke-linecap="round" stroke-linejoin="round"/>
    <path d="M -3.7461659908294678 186.25982666015625 C -7.813511371612549 184.27452087402344 -14.258330345153809 187.7835235595703 -19.361547470092773 176.7386932373047 C -8.851327896118164 183.3805389404297 -3.6843483448028564 183.2036895751953 -13.49716854095459 180.10958862304688" stroke-width="2.0" fill="none" stroke="rgb(0, 0, 0)" stroke-opacity="1" stroke-linecap="round" stroke-linejoin="round"/>
    <path d="M 81.67588806152344 175.0373077392578 C 82.0479507446289 210.32815551757812 107.53204345703125 219.62060546875 93.81245422363281 204.4490509033203 C 83.48802185058594 213.42840576171875 91.75435638427734 204.41998291015625 95.09632873535156 200.96588134765625" stroke-width="2.0" fill="none" stroke="rgb(0, 0, 0)" stroke-opacity="1" stroke-linecap="round" stroke-linejoin="round"/>
    <path d="M -3.1846511363983154 27.379676818847656 C -7.031200408935547 45.785675048828125 -14.322818756103516 37.12218475341797 -14.894746780395508 38.472740173339844 C -4.2395758628845215 40.402034759521484 1.4305673837661743 36.4594841003418 -2.220893621444702 38.752017974853516" stroke-width="2.0" fill="none" stroke="rgb(0, 0, 0)" stroke-opacity="1" stroke-linecap="round" stroke-linejoin="round"/>
    <path d="M 176.94664001464844 190.80113220214844 C 189.21084594726562 237.0574951171875 171.235595703125 225.3707733154297 201.2973175048828 224.9135284423828 C 174.36764526367188 215.31588745117188 212.19578552246094 202.39425659179688 176.38194274902344 219.1136932373047" stroke-width="2.0" fill="none" stroke="rgb(0, 0, 0)" stroke-opacity="1" stroke-linecap="round" stroke-linejoin="round"/>
    <path d="M 174.89015197753906 125.924072265625 C 149.71029663085938 119.3547592163086 147.5993194580078 118.85126495361328 149.91403198242188 127.0882568359375" stroke-width="2.0" fill="none" stroke="rgb(0, 0, 0)" stroke-opacity="1" stroke-linecap="round" stroke-linejoin="round"/>
    <path d="M 116.2236557006836 60.1206169128418 C 120.26834106445312 16.23289680480957 103.8697280883789 5.854101181030273 129.2509002685547 8.787384986877441 C 106.42133331298828 22.187639236450195 112.68346405029297 45.79981231689453 86.54960632324219 43.915557861328125 C 91.70280456542969 55.29771423339844 100.17134094238281 63.47276306152344 73.07994079589844 50.652862548828125" stroke-width="2.0" fill="none" stroke="rgb(0, 0, 0)" stroke-opacity="1" stroke-linecap="round" stroke-linejoin="round"/>
    <path d="M 0.08326029032468796 174.3895263671875 C 14.1368408203125 155.6666259765625 46.773502349853516 144.18350219726562 54.93471908569336 139.87977600097656 C 25.34263038635254 150.47727966308594 41.10660934448242 163.4892578125 26.748937606811523 111.61804962158203" stroke-width="2.0" fill="none" stroke="rgb(0, 0, 0)" stroke-opacity="1" stroke-linecap="round" stroke-linejoin="round"/>
    <path d="M 195.9999542236328 199.16445922851562 C 212.9617156982422 206.9856414794922 197.6498260498047 221.9641876220703 184.2725830078125 233.4102325439453" stroke-width="2.0" fill="none" stroke="rgb(0, 0, 0)" stroke-opacity="1" stroke-linecap="round" stroke-linejoin="round"/>
    <path d="M 142.5634765625 126.16690063476562 C 100.37081909179688 136.90093994140625 63.49751281738281 135.70864868164062 101.39376068115234 128.83822631835938 C 106.22518920898438 117.09600067138672 74.15348815917969 116.72542572021484 92.7156982421875 130.92623901367188" stroke-width="2.0" fill="none" stroke="rgb(0, 0, 0)" stroke-opacity="1" stroke-linecap="round" stroke-linejoin="round"/>
    <path d="M 43.82773208618164 89.80789947509766 C 33.92831039428711 78.03437042236328 64.22330474853516 100.80874633789062 76.52812194824219 93.29314422607422 C 79.4676742553711 110.9542465209961 92.99345397949219 121.42192077636719 32.3975715637207 80.62808990478516 C 90.19224548339844 99.3554916381836 91.0098876953125 100.40599822998047 53.59672546386719 87.67703247070312" stroke-width="2.0" fill="none" stroke="rgb(0, 0, 0)" stroke-opacity="1" stroke-linecap="round" stroke-linejoin="round"/>
    <path d="M 31.366941452026367 82.62092590332031 C 49.616519927978516 93.92264556884766 68.11742401123047 115.75414276123047 66.81259155273438 112.61661529541016" stroke-width="2.0" fill="none" stroke="rgb(0, 0, 0)" stroke-opacity="1" stroke-linecap="round" stroke-linejoin="round"/>
    <path d="M -2.3784596920013428 59.89464569091797 C -12.748549461364746 77.67913818359375 -17.903963088989258 88.97077941894531 -22.31917381286621 98.52906799316406 C -19.9258975982666 79.85057067871094 -18.64800262451172 78.03898620605469 -24.55695343017578 75.8820571899414 C -20.999597549438477 86.64742279052734 -21.412391662597656 96.77664184570312 -31.45331573486328 93.63485717773438" stroke-width="2.0" fill="none" stroke="rgb(0, 0, 0)" stroke-opacity="1" stroke-linecap="round" stroke-linejoin="round"/>
    <path d="M 21.63157081604004 1.9073394536972046 C 50.153221130371094 19.36270523071289 26.087797164916992 -1.1593375205993652 37.6884651184082 -6.1653828620910645 C 36.19134521484375 1.9931131601333618 26.54195785522461 -8.018908500671387 10.105342864990234 -14.347552299499512 C 14.689862251281738 -9.251821517944336 16.829214096069336 -10.974970817565918 8.534408569335938 -14.535802841186523" stroke-width="2.0" fill="none" stroke="rgb(0, 0, 0)" stroke-opacity="1" stroke-linecap="round" stroke-linejoin="round"/>
    <path d="M 70.01507568359375 43.66074752807617 C 109.88262176513672 32.363800048828125 62.235591888427734 37.898521423339844 70.90705871582031 47.618045806884766 C 26.18817901611328 49.60757827758789 61.098533630371094 55.639312744140625 58.463096618652344 35.7933349609375 C 98.86859130859375 35.45573806762695 67.00603485107422 39.49055099487305 48.95115280151367 26.495410919189453" stroke-width="2.0" fill="none" stroke="rgb(0, 0, 0)" stroke-opacity="1" stroke-linecap="round" stroke-linejoin="round"/>
    <path d="M 209.74896240234375 147.20748901367188 C 219.65895080566406 155.04347229003906 230.59844970703125 166.08627319335938 233.64784240722656 158.76463317871094 C 223.82093811035156 176.17115783691406 231.4549102783203 181.0541229248047 216.373291015625 143.13604736328125" stroke-width="2.0" fill="none" stroke="rgb(0, 0, 0)" stroke-opacity="1" stroke-linecap="round" stroke-linejoin="round"/>
    <path d="M 37.020042419433594 102.3193588256836 C 11.351031303405762 84.7493667602539 47.197940826416016 67.55845642089844 45.06660842895508 88.51136779785156" stroke-width="2.0" fill="none" stroke="rgb(0, 0, 0)" stroke-opacity="1" stroke-linecap="round" stroke-linejoin="round"/>
    <path d="M 133.13153076171875 167.48666381835938 C 145.2823028564453 183.81443786621094 171.7864990234375 201.58546447753906 152.09405517578125 188.30712890625" stroke-width="2.0" fill="none" stroke="rgb(0, 0, 0)" stroke-opacity="1" stroke-linecap="round" stroke-linejoin="round"/>
    <path d="M 51.61244583129883 246.31092834472656 C 47.4249267578125 213.2919158935547 40.04651641845703 191.74105834960938 36.31210708618164 183.2915496826172 C 44.912132263183594 201.15155029296875 44.31504440307617 186.0850067138672 54.5806999206543 177.4639434814453" stroke-width="2.0" fill="none" stroke="rgb(0, 0, 0)" stroke-opacity="1" stroke-linecap="round" stroke-linejoin="round"/>
    <path d="M -4.125796318054199 175.38778686523438 C 10.639618873596191 162.311767578125 35.09083557128906 145.1480712890625 60.0782356262207 135.82960510253906 C 40.08287811279297 140.50680541992188 40.53621292114258 150.7283477783203 60.423240661621094 138.13819885253906" stroke-width="2.0" fill="none" stroke="rgb(0, 0, 0)" stroke-opacity="1" stroke-linecap="round" stroke-linejoin="round"/>
    <path d="M 86.7125244140625 43.92669677734375 C 124.92784881591797 90.46471405029297 137.95681762695312 63.461669921875 127.7651138305664 79.61797332763672 C 112.43506622314453 81.29920959472656 98.46832275390625 82.95354461669922 96.40613555908203 72.09605407714844 C 144.81060791015625 69.9877700805664 107.89228057861328 64.30872344970703 81.13448333740234 41.07272720336914" stroke-width="2.0" fill="none" stroke="rgb(0, 0, 0)" stroke-opacity="1" stroke-linecap="round" stroke-linejoin="round"/>
    <path d="M 77.65857696533203 -1.6322550773620605 C 103.32813262939453 19.47423553466797 123.35224151611328 16.49266815185547 117.31903076171875 27.18120574951172 C 117.63502502441406 19.327434539794922 104.58778381347656 15.263391494750977 108.64669799804688 23.326120376586914 C 90.97587585449219 23.248435974121094 111.19715118408203 26.58561897277832 122.65409088134766 17.230083465576172" stroke-width="2.0" fill="none" stroke="rgb(0, 0, 0)" stroke-opacity="1" stroke-linecap="round" stroke-linejoin="round"/>
    <path d="M 214.62741088867188 113.91934967041016 C 179.994140625 99.0705795288086 228.2134552001953 89.02649688720703 213.9587860107422 115.14912414550781 C 237.58741760253906 85.4518814086914 222.3184814453125 106.5543441772461 222.19320678710938 110.22504425048828 C 227.64234924316406 119.24076080322266 246.33990478515625 126.43936920166016 226.7436981201172 147.5718231201172" stroke-width="2.0" fill="none" stroke="rgb(0, 0, 0)" stroke-opacity="1" stroke-linecap="round" stroke-linejoin="round"/>
    <path d="M 78.09066772460938 70.70337677001953 C 89.90922546386719 111.63505554199219 68.8040771484375 102.07498931884766 74.02474975585938 86.36360931396484" stroke-width="2.0" fill="none" stroke="rgb(0, 0, 0)" stroke-opacity="1" stroke-linecap="round" stroke-linejoin="round"/>
    <path d="M 206.41287231445312 107.08507537841797 C 174.9735870361328 139.88299560546875 175.31155395507812 141.54527282714844 166.60743713378906 129.1664581298828 C 191.00393676757812 114.45669555664062 215.23696899414062 102.31271362304688 200.4800567626953 102.74449157714844 C 229.4275360107422 102.97533416748047 204.8053436279297 93.99713134765625 209.111328125 134.6184844970703" stroke-width="2.0" fill="none" stroke="rgb(0, 0, 0)" stroke-opacity="1" stroke-linecap="round" stroke-linejoin="round"/>
    <path d="M 104.65483856201172 52.843692779541016 C 121.23384857177734 27.241395950317383 108.26960754394531 50.798580169677734 114.9954833984375 17.083087921142578" stroke-width="2.0" fill="none" stroke="rgb(0, 0, 0)" stroke-opacity="1" stroke-linecap="round" stroke-linejoin="round"/>
    <path d="M 186.32308959960938 26.777664184570312 C 185.34007263183594 35.9166259765625 178.79779052734375 13.871087074279785 173.4124755859375 38.15574645996094 C 202.26699829101562 53.32551193237305 171.24017333984375 19.19228172302246 191.79425048828125 35.41816711425781" stroke-width="2.0" fill="none" stroke="rgb(0, 0, 0)" stroke-opacity="1" stroke-linecap="round" stroke-linejoin="round"/>
    <path d="M -9.53921127319336 125.97696685791016 C -5.634912490844727 152.36822509765625 -5.3085408210754395 127.26111602783203 -5.08514928817749 106.1148681640625 C -3.0341827869415283 87.2016372680664 -4.945830345153809 93.46286010742188 -17.73671531677246 101.62650299072266" stroke-width="2.0" fill="none" stroke="rgb(0, 0, 0)" stroke-opacity="1" stroke-linecap="round" stroke-linejoin="round"/>
    <path d="M 154.53192138671875 41.402862548828125 C 125.63825988769531 29.742931365966797 106.52769470214844 11.874991416931152 139.75741577148438 30.748605728149414 C 118.30326843261719 20.121173858642578 119.68206787109375 1.114810824394226 121.60680389404297 18.973854064941406 C 142.21421813964844 33.31526184082031 150.90936279296875 35.63084411621094 174.4547882080078 45.862144470214844" stroke-width="2.0" fill="none" stroke="rgb(0, 0, 0)" stroke-opacity="1" stroke-linecap="round" stroke-linejoin="round"/>
    <path d="M 181.06398010253906 120.01295471191406 C 150.57534790039062 131.2540740966797 171.87594604492188 131.96221923828125 203.38079833984375 145.4481964111328 C 193.3685302734375 154.7227325439453 199.872314453125 140.11415100097656 197.4198760986328 142.958251953125" stroke-width="2.0" fill="none" stroke="rgb(0, 0, 0)" stroke-opacity="1" stroke-linecap="round" stroke-linejoin="round"/>
    <path d="M 218.4404754638672 144.9121856689453 C 223.39984130859375 148.28646850585938 245.2976531982422 148.60922241210938 270.4552001953125 145.58595275878906 C 250.04840087890625 166.6199188232422 242.890869140625 163.41094970703125 242.82260131835938 169.6089324951172" stroke-width="2.0" fill="none" stroke="rgb(0, 0, 0)" stroke-opacity="1" stroke-linecap="round" stroke-linejoin="round"/>
    <path d="M 203.7327117919922 207.4245147705078 C 231.93157958984375 189.5714111328125 195.34124755859375 186.8123321533203 212.07545471191406 203.49722290039062" stroke-width="2.0" fill="none" stroke="rgb(0, 0, 0)" stroke-opacity="1" stroke-linecap="round" stroke-linejoin="round"/>
    <path d="M 118.6597900390625 70.84932708740234 C 173.97769165039062 45.9386100769043 160.08338928222656 58.96318817138672 126.33067321777344 89.8299331665039 C 148.46043395996094 58.672332763671875 168.1101837158203 50.69794464111328 143.65223693847656 73.59000396728516" stroke-width="2.0" fill="none" stroke="rgb(0, 0, 0)" stroke-opacity="1" stroke-linecap="round" stroke-linejoin="round"/>
    <path d="M 207.23802185058594 204.28013610839844 C 222.93223571777344 182.91354370117188 175.1461944580078 200.84375 204.9763946533203 203.21946716308594 C 186.59133911132812 220.56698608398438 170.65354919433594 210.75157165527344 189.7568817138672 228.95880126953125 C 205.96925354003906 234.51666259765625 189.2695770263672 217.85491943359375 185.40008544921875 232.7749786376953" stroke-width="2.0" fill="none" stroke="rgb(0, 0, 0)" stroke-opacity="1" stroke-linecap="round" stroke-linejoin="round"/>
    <path d="M -4.8657708168029785 30.3604679107666 C 2.783351421356201 45.465309143066406 5.3904032707214355 61.26177215576172 -0.06659542769193649 78.72077178955078 C 11.729595184326172 46.61872863769531 14.265764236450195 67.06999206542969 -9.993865966796875 66.0277328491211 C -4.976991176605225 37.12262725830078 1.8739523887634277 37.644248962402344 -7.790918827056885 53.333560943603516" stroke-width="2.0" fill="none" stroke="rgb(0, 0, 0)" stroke-opacity="1" stroke-linecap="round" stroke-linejoin="round"/>
    <path d="M 103.11634063720703 231.1406707763672 C 99.56006622314453 228.9058380126953 93.21299743652344 230.71170043945312 98.31253051757812 239.8238525390625 C 101.64879608154297 239.08993530273438 109.04966735839844 241.1474151611328 105.81239318847656 230.6484375" stroke-width="2.0" fill="none" stroke="rgb(0, 0, 0)" stroke-opacity="1" stroke-linecap="round" stroke-linejoin="round"/>
    <path d="M 110.68756103515625 138.08067321777344 C 98.5792236328125 130.56092834472656 93.75982666015625 131.07542419433594 99.08782958984375 134.3556365966797 C 87.65210723876953 105.25910186767578 81.94598388671875 133.0553741455078 87.31654357910156 128.93353271484375 C 101.88928985595703 111.98455810546875 95.87857818603516 131.0089874267578 90.14081573486328 124.79034423828125" stroke-width="2.0" fill="none" stroke="rgb(0, 0, 0)" stroke-opacity="1" stroke-linecap="round" stroke-linejoin="round"/>
    <path d="M 49.66572952270508 62.465938568115234 C 10.424688339233398 39.84153366088867 19.26025390625 31.94778823852539 39.402217864990234 49.7406120300293 C 61.92750549316406 45.3702507019043 44.36159896850586 55.98771286010742 18.229204177856445 42.323326110839844" stroke-width="2.0" fill="none" stroke="rgb(0, 0, 0)" stroke-opacity="1" stroke-linecap="round" stroke-linejoin="round"/>
    <path d="M 171.0414581298828 46.0839958190918 C 167.0513458251953 69.30345916748047 177.14088439941406 51.877174377441406 167.91824340820312 37.63086700439453" stroke-width="2.0" fill="none" stroke="rgb(0, 0, 0)" stroke-opacity="1" stroke-linecap="round" stroke-linejoin="round"/>
    <path d="M 25.496707916259766 39.831153869628906 C 40.668670654296875 51.68341827392578 38.36700439453125 53.01818084716797 35.83909606933594 38.580543518066406" stroke-width="2.0" fill="none" stroke="rgb(0, 0, 0)" stroke-opacity="1" stroke-linecap="round" stroke-linejoin="round"/>
    <path d="M 193.28907775878906 71.18794250488281 C 136.35562133789062 85.13320922851562 160.88836669921875 90.91596984863281 205.161376953125 66.84358978271484" stroke-width="2.0" fill="none" stroke="rgb(0, 0, 0)" stroke-opacity="1" stroke-linecap="round" stroke-linejoin="round"/>
    <path d="M 85.6005630493164 138.64324951171875 C 78.48404693603516 166.2076873779297 114.50843811035156 166.76873779296875 84.48706817626953 173.72406005859375 C 67.76032257080078 189.9844970703125 64.55742645263672 186.62998962402344 82.24586486816406 138.01852416992188" stroke-width="2.0" fill="none" stroke="rgb(0, 0, 0)" stroke-opacity="1" stroke-linecap="round" stroke-linejoin="round"/>
    <path d="M 29.456098556518555 121.17576599121094 C 45.02668380737305 88.62577819824219 41.37912368774414 128.4047088623047 50.66069412231445 141.95172119140625" stroke-width="2.0" fill="none" stroke="rgb(0, 0, 0)" stroke-opacity="1" stroke-linecap="round" stroke-linejoin="round"/>
    <path d="M 109.3224868774414 30.34831428527832 C 112.70336151123047 8.183445930480957 112.93193054199219 8.347665786743164 134.0956573486328 62.90825653076172" stroke-width="2.0" fill="none" stroke="rgb(0, 0, 0)" stroke-opacity="1" stroke-linecap="round" stroke-linejoin="round"/>
    <path d="M 92.34577178955078 29.185441970825195 C 74.88677978515625 -14.124177932739258 79.83120727539062 5.234310150146484 84.13700866699219 18.87677574157715 C 60.89213943481445 -6.658398151397705 81.25474548339844 -1.7484396696090698 103.00826263427734 25.143280029296875 C 90.92082977294922 46.15062713623047 108.1700439453125 45.85081481933594 85.21871185302734 33.711883544921875" stroke-width="2.0" fill="none" stroke="rgb(0, 0, 0)" stroke-opacity="1" stroke-linecap="round" stroke-linejoin="round"/>
    <path d="M 160.7809600830078 182.97869873046875 C 169.48086547851562 173.977294921875 155.2167510986328 149.77232360839844 174.7739715576172 166.18116760253906" stroke-width="2.0" fill="none" stroke="rgb(0, 0, 0)" stroke-opacity="1" stroke-linecap="round" stroke-linejoin="round"/>
    <path d="M 172.3847198486328 124.23182678222656 C 178.93112182617188 116.14508819580078 167.03909301757812 115.89058685302734 138.25880432128906 130.8955841064453" stroke-width="2.0" fill="none" stroke="rgb(0, 0, 0)" stroke-opacity="1" stroke-linecap="round" stroke-linejoin="round"/>
    <path d="M 123.2442398071289 93.9017562866211 C 116.5569076538086 89.07664489746094 124.36055755615234 102.28428649902344 135.32937622070312 82.7759780883789 C 139.90814208984375 70.32281494140625 96.53407287597656 77.12492370605469 126.81861114501953 82.65797424316406" stroke-width="2.0" fill="none" stroke="rgb(0, 0, 0)" stroke-opacity="1" stroke-linecap="round" stroke-linejoin="round"/>
    <path d="M 205.88259887695312 153.56678771972656 C 197.45257568359375 143.57176208496094 204.279052734375 128.528076171875 226.50885009765625 150.95115661621094 C 211.19606018066406 161.64666748046875 215.552001953125 135.23829650878906 204.20838928222656 142.7936248779297" stroke-width="2.0" fill="none" stroke="rgb(0, 0, 0)" stroke-opacity="1" stroke-linecap="round" stroke-linejoin="round"/>
    <path d="M 225.9480438232422 150.22251892089844 C 210.130126953125 131.61312866210938 213.3485565185547 160.029052734375 215.71200561523438 177.80453491210938" stroke-width="2.0" fill="none" stroke="rgb(0, 0, 0)" stroke-opacity="1" stroke-linecap="round" stroke-linejoin="round"/>
    <path d="M 161.58360290527344 182.4947967529297 C 135.4870147705078 213.03286743164062 152.83993530273438 176.89964294433594 155.79998779296875 191.44219970703125" stroke-width="2.0" fill="none" stroke="rgb(0, 0, 0)" stroke-opacity="1" stroke-linecap="round" stroke-linejoin="round"/>
    <path d="M 144.95628356933594 168.255859375 C 161.29449462890625 134.88092041015625 153.8279266357422 123.14190673828125 144.15992736816406 168.866943359375 C 161.15235900878906 181.85321044921875 157.3522491455078 172.85174560546875 146.69674682617188 172.06324768066406" stroke-width="2.0" fill="none" stroke="rgb(0, 0, 0)" stroke-opacity="1" stroke-linecap="round" stroke-linejoin="round"/>
    <path d="M 123.3302993774414 72.54694366455078 C 120.5700912475586 50.72803497314453 137.88906860351562 73.05513000488281 124.3992691040039 63.51786804199219" stroke-width="2.0" fill="none" stroke="rgb(0, 0, 0)" stroke-opacity="1" stroke-linecap="round" stroke-linejoin="round"/>
    <path d="M 159.74127197265625 140.82716369628906 C 164.01742553710938 105.52845764160156 146.0856170654297 113.3729476928711 155.7768096923828 121.12174224853516 C 167.09820556640625 128.47055053710938 177.39979553222656 108.62678527832031 153.03298950195312 115.04829406738281 C 166.3079071044922 138.1969757080078 159.1692352294922 103.03327178955078 160.1475372314453 77.73323059082031" stroke-width="2.0" fill="none" stroke="rgb(0, 0, 0)" stroke-opacity="1" stroke-linecap="round" stroke-linejoin="round"/>
    <path d="M 170.82821655273438 109.30765533447266 C 161.93722534179688 77.48236083984375 159.3526611328125 100.35122680664062 169.06700134277344 48.82765579223633" stroke-width="2.0" fill="none" stroke="rgb(0, 0, 0)" stroke-opacity="1" stroke-linecap="round" stroke-linejoin="round"/>
    <path d="M 212.53048706054688 101.35962677001953 C 188.41929626464844 153.65182495117188 174.3479461669922 159.9810333251953 232.43618774414062 151.98574829101562 C 165.54876708984375 157.23193359375 158.3751220703125 148.1712188720703 197.50735473632812 148.5820770263672" stroke-width="2.0" fill="none" stroke="rgb(0, 0, 0)" stroke-opacity="1" stroke-linecap="round" stroke-linejoin="round"/>
    <path d="M 130.06846618652344 171.80319213867188 C 100.30316162109375 152.82679748535156 147.95559692382812 161.2537078857422 151.2905731201172 153.5505828857422 C 135.0933074951172 146.02850341796875 142.0841522216797 166.1781463623047 163.66293334960938 164.21636962890625" stroke-width="2.0" fill="none" stroke="rgb(0, 0, 0)" stroke-opacity="1" stroke-linecap="round" stroke-linejoin="round"/>
    <path d="M 90.720947265625 86.35153198242188 C 91.15940856933594 86.27088928222656 87.30104064941406 70.05191040039062 90.3865966796875 86.30388641357422 C 78.92859649658203 46.82734680175781 89.89633178710938 24.87726402282715 81.05718231201172 80.30886840820312" stroke-width="2.0" fill="none" stroke="rgb(0, 0, 0)" stroke-opacity="1" stroke-linecap="round" stroke-linejoin="round"/>
    <path d="M 160.32974243164062 117.15100860595703 C 187.76512145996094 114.67205810546875 172.0315704345703 112.50359344482422 175.88653564453125 125.5153579711914 C 183.72340393066406 110.0793228149414 169.4514617919922 110.56214141845703 160.04234313964844 125.99638366699219" stroke-width="2.0" fill="none" stroke="rgb(0, 0, 0)" stroke-opacity="1" stroke-linecap="round" stroke-linejoin="round"/>
    <path d="M 35.916263580322266 191.7477264404297 C 38.6220703125 205.5557861328125 22.840848922729492 187.98573303222656 46.19011688232422 181.78988647460938 C 21.968034744262695 183.7584228515625 22.828645706176758 205.66921997070312 42.26131820678711 181.0072021484375" stroke-width="2.0" fill="none" stroke="rgb(0, 0, 0)" stroke-opacity="1" stroke-linecap="round" stroke-linejoin="round"/>
    <path d="M 121.38204193115234 175.10726928710938 C 121.27848052978516 154.766357421875 124.9736099243164 171.73037719726562 95.30683898925781 176.5093231201172 C 79.01625061035156 174.2361297607422 106.30658721923828 183.56185913085938 128.39915466308594 196.89564514160156" stroke-width="2.0" fill="none" stroke="rgb(0, 0, 0)" stroke-opacity="1" stroke-linecap="round" stroke-linejoin="round"/>
    <path d="M 191.0688018798828 177.03872680664062 C 211.19363403320312 152.80149841308594 207.56532287597656 137.30905151367188 211.09066772460938 160.35308837890625 C 217.55581665039062 149.18820190429688 225.75050354003906 136.37783813476562 213.10586547851562 151.73863220214844 C 226.07821655273438 149.06700134277344 209.6494903564453 153.2327117919922 229.15615844726562 190.1407928466797" stroke-width="2.0" fill="none" stroke="rgb(0, 0, 0)" stroke-opacity="1" stroke-linecap="round" stroke-linejoin="round"/>
    <path d="M 71.24909973144531 176.6751708984375 C 78.13687896728516 173.2749481201172 77.47779846191406 177.4272918701172 75.772705078125 171.35733032226562 C 40.7227668762207 184.97767639160156 53.90007019042969 170.96743774414062 72.2458267211914 170.9989471435547" stroke-width="2.0" fill="none" stroke="rgb(0, 0, 0)" stroke-opacity="1" stroke-linecap="round" stroke-linejoin="round"/>
    <path d="M 229.3954620361328 151.63099670410156 C 230.7080535888672 147.19541931152344 223.2688446044922 153.90377807617188 226.37925720214844 127.36914825439453" stroke-width="2.0" fill="none" stroke="rgb(0, 0, 0)" stroke-opacity="1" stroke-linecap="round" stroke-linejoin="round"/>
    <path d="M 121.03858184814453 49.254066467285156 C 116.85474395751953 9.693058013916016 119.09408569335938 10.627726554870605 108.97481536865234 25.238977432250977 C 99.73912811279297 29.987028121948242 119.91633605957031 27.13202667236328 152.8339385986328 8.934758186340332" stroke-width="2.0" fill="none" stroke="rgb(0, 0, 0)" stroke-opacity="1" stroke-linecap="round" stroke-linejoin="round"/>
    <path d="M 123.7888412475586 170.6996307373047 C 120.67472076416016 157.05035400390625 114.48966217041016 162.86497497558594 127.20787811279297 174.13392639160156" stroke-width="2.0" fill="none" stroke="rgb(0, 0, 0)" stroke-opacity="1" stroke-linecap="round" stroke-linejoin="round"/>
    <path d="M 138.7088165283203 145.99908447265625 C 163.03286743164062 114.38301086425781 146.7972869873047 128.2698974609375 135.7365264892578 144.63111877441406" stroke-width="2.0" fill="none" stroke="rgb(0, 0, 0)" stroke-opacity="1" stroke-linecap="round" stroke-linejoin="round"/>
    <path d="M 122.26631164550781 113.32950592041016 C 156.35177612304688 80.11009979248047 143.2157745361328 87.9804916381836 124.14954376220703 108.8704605102539 C 116.81029510498047 121.17791748046875 130.81600952148438 125.293701171875 147.606689453125 125.32079315185547 C 155.06979370117188 101.373291015625 158.45138549804688 61.20792770385742 160.2576141357422 85.38859558105469" stroke-width="2.0" fill="none" stroke="rgb(0, 0, 0)" stroke-opacity="1" stroke-linecap="round" stroke-linejoin="round"/>
    <path d="M 189.09085083007812 31.23276138305664 C 208.31222534179688 65.84090423583984 214.62261962890625 69.35054779052734 201.22315979003906 93.8648910522461 C 214.91432189941406 70.15483093261719 209.7838592529297 49.69432830810547 217.8623046875 59.71241760253906 C 224.37265014648438 69.27035522460938 222.2252655029297 78.70687866210938 231.5380096435547 77.8587417602539" stroke-width="2.0" fill="none" stroke="rgb(0, 0, 0)" stroke-opacity="1" stroke-linecap="round" stroke-linejoin="round"/>
    <path d="M 163.74951171875 52.675113677978516 C 175.18161010742188 66.83057403564453 181.45046997070312 30.36942481994629 168.35121154785156 35.18946838378906 C 161.68112182617188 40.22837448120117 165.37881469726562 41.449241638183594 177.56976318359375 47.53286361694336" stroke-width="2.0" fill="none" stroke="rgb(0, 0, 0)" stroke-opacity="1" stroke-linecap="round" stroke-linejoin="round"/>
    <path d="M 209.68153381347656 149.77484130859375 C 202.00421142578125 185.86953735351562 205.59495544433594 215.6753692626953 198.83203125 193.4769744873047 C 202.7968292236328 173.16998291015625 205.91799926757812 156.6253662109375 197.08750915527344 201.2307891845703" stroke-width="2.0" fill="none" stroke="rgb(0, 0, 0)" stroke-opacity="1" stroke-linecap="round" stroke-linejoin="round"/>
    <path d="M 73.69322967529297 199.7724151611328 C 75.53085327148438 156.01072692871094 80.89599609375 176.43533325195312 99.99557495117188 208.83450317382812" stroke-width="2.0" fill="none" stroke="rgb(0, 0, 0)" stroke-opacity="1" stroke-linecap="round" stroke-linejoin="round"/>
    <path d="M 36.71989059448242 89.86852264404297 C 56.299835205078125 109.7750473022461 44.62370300292969 144.82069396972656 38.04402160644531 77.85112762451172 C 24.671445846557617 102.38508605957031 56.0108757019043 82.25886535644531 36.27481460571289 90.73465728759766" stroke-width="2.0" fill="none" stroke="rgb(0, 0, 0)" stroke-opacity="1" stroke-linecap="round" stroke-linejoin="round"/>
    <path d="M 22.095258712768555 21.445241928100586 C 27.474729537963867 -12.750295639038086 24.049251556396484 1.3388352394104004 54.468746185302734 9.709698677062988 C 73.21990966796875 14.729299545288086 89.26097106933594 -12.98116683959961 65.87881469726562 30.000993728637695" stroke-width="2.0" fill="none" stroke="rgb(0, 0, 0)" stroke-opacity="1" stroke-linecap="round" stroke-linejoin="round"/>
    <path d="M 167.84642028808594 159.97584533691406 C 192.52099609375 232.1506805419922 174.24684143066406 282.16845703125 167.5692901611328 181.83724975585938" stroke-width="2.0" fill="none" stroke="rgb(0, 0, 0)" stroke-opacity="1" stroke-linecap="round" stroke-linejoin="round"/>
    <path d="M 3.7123939990997314 233.82943725585938 C 17.2067813873291 239.0343017578125 21.260982513427734 228.01544189453125 32.481224060058594 198.9222412109375 C 31.377552032470703 188.48696899414062 34.467220306396484 190.44049072265625 12.295734405517578 216.2655792236328 C 30.95565414428711 216.7783660888672 19.480484008789062 225.9653778076172 35.61956787109375 192.0477752685547" stroke-width="2.0" fill="none" stroke="rgb(0, 0, 0)" stroke-opacity="1" stroke-linecap="round" stroke-linejoin="round"/>
    <path d="M 169.20225524902344 212.49447631835938 C 171.9603729248047 242.01730346679688 169.55706787109375 221.7046661376953 192.63832092285156 215.94691467285156 C 170.67422485351562 162.18460083007812 174.85699462890625 179.99063110351562 173.05796813964844 177.3533477783203" stroke-width="2.0" fill="none" stroke="rgb(0, 0, 0)" stroke-opacity="1" stroke-linecap="round" stroke-linejoin="round"/>
    <path d="M 131.36489868164062 196.48468017578125 C 126.79248809814453 142.97201538085938 116.89017486572266 165.46766662597656 160.0009765625 179.38758850097656" stroke-width="2.0" fill="none" stroke="rgb(0, 0, 0)" stroke-opacity="1" stroke-linecap="round" stroke-linejoin="round"/>
    <path d="M 23.090919494628906 3.5381436347961426 C -3.896129608154297 40.231109619140625 -5.06460428237915 45.83247756958008 -8.190479278564453 42.59074783325195 C 30.608814239501953 51.05183410644531 98.79145812988281 42.516605377197266 91.70853424072266 55.192420959472656 C 10.447821617126465 52.102046966552734 43.41685485839844 45.42436599731445 29.169404983520508 36.36884689331055" stroke-width="2.0" fill="none" stroke="rgb(0, 0, 0)" stroke-opacity="1" stroke-linecap="round" stroke-linejoin="round"/>
    <path d="M 69.76166534423828 168.6057891845703 C 84.59888458251953 188.4405517578125 72.49179077148438 173.67466735839844 83.45640563964844 165.47511291503906 C 63.18965148925781 160.11863708496094 76.22566223144531 194.48765563964844 79.3650894165039 179.20098876953125 C 66.44355010986328 169.16897583007812 76.77342987060547 162.621337890625 69.92225646972656 198.40199279785156" stroke-width="2.0" fill="none" stroke="rgb(0, 0, 0)" stroke-opacity="1" stroke-linecap="round" stroke-linejoin="round"/>
    <path d="M 91.05525207519531 132.3819580078125 C 102.8180923461914 131.8894500732422 122.39167785644531 143.67005920410156 151.00335693359375 149.75942993164062" stroke-width="2.0" fill="none" stroke="rgb(0, 0, 0)" stroke-opacity="1" stroke-linecap="round" stroke-linejoin="round"/>
    <path d="M 172.7875518798828 176.69601440429688 C 182.28744506835938 187.55178833007812 174.591552734375 176.60153198242188 159.6569061279297 160.1769561767578 C 155.71031188964844 185.06141662597656 152.13267517089844 143.2673797607422 176.9717559814453 165.3046112060547 C 154.76535034179688 181.2487030029297 171.6871795654297 153.8273468017578 141.3356475830078 168.67002868652344" stroke-width="2.0" fill="none" stroke="rgb(0, 0, 0)" stroke-opacity="1" stroke-linecap="round" stroke-linejoin="round"/>
    <path d="M 84.68406677246094 31.201759338378906 C 65.20893096923828 26.586400985717773 83.42144012451172 52.7401008605957 69.11399841308594 45.45563507080078 C 81.58869171142578 39.55615997314453 88.17230987548828 49.246681213378906 98.40373229980469 57.97518539428711" stroke-width="2.0" fill="none" stroke="rgb(0, 0, 0)" stroke-opacity="1" stroke-linecap="round" stroke-linejoin="round"/>
    <path d="M 46.31325912475586 190.16651916503906 C -18.48080825805664 195.01699829101562 -24.386093139648438 207.9376220703125 -27.36235809326172 212.3666229248047 C -10.750341415405273 160.4352264404297 -14.604604721069336 163.24127197265625 -21.55266761779785 173.35284423828125" stroke-width="2.0" fill="none" stroke="rgb(0, 0, 0)" stroke-opacity="1" stroke-linecap="round" stroke-linejoin="round"/>
    <path d="M 71.53438568115234 52.77982711791992 C 70.05343627929688 18.499441146850586 97.34957122802734 64.37456512451172 122.34588623046875 72.56611633300781 C 137.63961791992188 55.77214431762695 134.67877197265625 82.1058578491211 116.82454681396484 10.582362174987793 C 138.69679260253906 49.18217086791992 146.2197265625 48.48375701904297 185.22703552246094 52.76806640625" stroke-width="2.0" fill="none" stroke="rgb(0, 0, 0)" stroke-opacity="1" stroke-linecap="round" stroke-linejoin="round"/>
    <path d="M 130.60922241210938 117.71969604492188 C 165.18626403808594 119.69034576416016 152.86392211914062 154.6786346435547 158.64378356933594 116.75788879394531" stroke-width="2.0" fill="none" stroke="rgb(0, 0, 0)" stroke-opacity="1" stroke-linecap="round" stroke-linejoin="round"/>
    <path d="M 75.28778839111328 110.81816101074219 C 65.33393859863281 119.1386489868164 59.716590881347656 118.80213165283203 55.82004165649414 122.73475646972656 C 51.81904220581055 125.39961242675781 62.68598937988281 129.2710723876953 82.26411437988281 129.00521850585938" stroke-width="2.0" fill="none" stroke="rgb(0, 0, 0)" stroke-opacity="1" stroke-linecap="round" stroke-linejoin="round"/>
    <path d="M 137.93943786621094 114.3797607421875 C 142.16709899902344 101.74622344970703 156.2955322265625 84.62789916992188 149.6527099609375 89.21524810791016 C 127.83753967285156 97.20121765136719 136.8035125732422 105.66275787353516 158.36146545410156 59.87022018432617" stroke-width="2.0" fill="none" stroke="rgb(0, 0, 0)" stroke-opacity="1" stroke-linecap="round" stroke-linejoin="round"/>
    <path d="M 79.16325378417969 190.62803649902344 C 73.46932983398438 265.1033935546875 74.37277221679688 268.66058349609375 64.3414077758789 252.9835662841797 C 78.4865493774414 232.84300231933594 88.0966567993164 236.2229461669922 86.5531005859375 234.88009643554688 C 93.7398681640625 236.80734252929688 88.80409240722656 245.96295166015625 95.26542663574219 238.93801879882812" stroke-width="2.0" fill="none" stroke="rgb(0, 0, 0)" stroke-opacity="1" stroke-linecap="round" stroke-linejoin="round"/>
    <path d="M 158.47154235839844 168.587646484375 C 202.68312072753906 153.70849609375 208.21658325195312 155.0967254638672 208.87136840820312 139.451904296875 C 227.28187561035156 133.03823852539062 220.4677276611328 180.63148498535156 203.24557495117188 145.9441375732422" stroke-width="2.0" fill="none" stroke="rgb(0, 0, 0)" stroke-opacity="1" stroke-linecap="round" stroke-linejoin="round"/>
  </g>
</svg>
