<?xml version="1.0" ?>
<svg xmlns="http://www.w3.org/2000/svg" version="1.1" width="224" height="224">
  <defs/>
  <g>
    <path d="M 194.3876495361328 168.8275146484375 C 236.21063232421875 175.0337371826172 234.37225341796875 214.47515869140625 220.41354370117188 188.25526428222656 C 219.04100036621094 148.79505920410156 213.32896423339844 179.6975555419922 230.0898895263672 155.09292602539062" stroke-width="2.0" fill="none" stroke="rgb(0, 0, 0)" stroke-opacity="1" stroke-linecap="round" stroke-linejoin="round"/>
    <path d="M 64.52920532226562 200.22581481933594 C 34.224395751953125 242.77423095703125 49.514949798583984 234.82119750976562 76.20339965820312 210.871337890625 C 56.84391784667969 219.93060302734375 60.866031646728516 219.2481231689453 82.46578979492188 194.8778076171875" stroke-width="2.0" fill="none" stroke="rgb(0, 0, 0)" stroke-opacity="1" stroke-linecap="round" stroke-linejoin="round"/>
    <path d="M 12.202335357666016 205.18649291992188 C 5.408161163330078 223.29901123046875 5.034794807434082 208.80014038085938 31.481632232666016 204.05589294433594 C -12.400557518005371 229.06301879882812 9.057802200317383 235.07525634765625 17.91096305847168 144.41357421875" stroke-width="2.0" fill="none" stroke="rgb(0, 0, 0)" stroke-opacity="1" stroke-linecap="round" stroke-linejoin="round"/>
    <path d="M 196.56088256835938 153.1633758544922 C 173.40890502929688 146.02346801757812 180.11940002441406 167.2681427001953 155.315673828125 149.7181396484375 C 174.08590698242188 142.77484130859375 174.27581787109375 143.1202850341797 146.50271606445312 150.2228240966797 C 211.08782958984375 150.99879455566406 176.49879455566406 146.17137145996094 160.6152801513672 135.35537719726562" stroke-width="2.0" fill="none" stroke="rgb(0, 0, 0)" stroke-opacity="1" stroke-linecap="round" stroke-linejoin="round"/>
    <path d="M 2.478687047958374 66.206787109375 C 7.84232234954834 -9.114422798156738 7.64944314956665 -7.478582382202148 30.824928283691406 -4.728784561157227 C 22.323728561401367 -5.823575019836426 20.37967300415039 -14.832688331604004 10.161537170410156 21.685747146606445" stroke-width="2.0" fill="none" stroke="rgb(0, 0, 0)" stroke-opacity="1" stroke-linecap="round" stroke-linejoin="round"/>
    <path d="M 56.46458053588867 151.4949493408203 C 44.67002868652344 132.017578125 79.26155090332031 164.217529296875 63.378692626953125 131.85308837890625 C 64.55791473388672 129.9259796142578 77.12138366699219 144.3658447265625 90.39056396484375 144.42926025390625 C 79.04205322265625 120.29237365722656 60.944366455078125 113.71805572509766 33.22577667236328 84.24553680419922" stroke-width="2.0" fill="none" stroke="rgb(0, 0, 0)" stroke-opacity="1" stroke-linecap="round" stroke-linejoin="round"/>
    <path d="M 176.47152709960938 173.2379608154297 C 187.7987518310547 200.06204223632812 171.5158233642578 180.52809143066406 182.73452758789062 192.79554748535156 C 193.4258575439453 200.37672424316406 162.822265625 213.59764099121094 207.21124267578125 220.82339477539062 C 189.39491271972656 197.64263916015625 212.53515625 212.9069061279297 171.74029541015625 227.3108673095703" stroke-width="2.0" fill="none" stroke="rgb(0, 0, 0)" stroke-opacity="1" stroke-linecap="round" stroke-linejoin="round"/>
    <path d="M 74.0267333984375 24.341297149658203 C 60.582454681396484 21.177234649658203 59.49628829956055 36.86554718017578 64.63153839111328 41.296878814697266 C 57.160667419433594 20.303028106689453 77.13897705078125 17.310876846313477 83.07600402832031 15.361344337463379 C 74.56986999511719 20.11334228515625 66.92314910888672 31.251771926879883 85.53760528564453 15.724221229553223" stroke-width="2.0" fill="none" stroke="rgb(0, 0, 0)" stroke-opacity="1" stroke-linecap="round" stroke-linejoin="round"/>
    <path d="M 56.3128662109375 68.0027084350586 C 54.35386657714844 69.79340362548828 37.2802619934082 86.22313690185547 52.982723236083984 65.87837982177734 C 19.61258888244629 70.36666107177734 45.93560791015625 96.08026123046875 39.16593551635742 76.22928619384766" stroke-width="2.0" fill="none" stroke="rgb(0, 0, 0)" stroke-opacity="1" stroke-linecap="round" stroke-linejoin="round"/>
    <path d="M 89.05274200439453 225.7391815185547 C 117.09996795654297 200.8045196533203 141.98497009277344 235.74070739746094 116.40652465820312 207.00006103515625 C 128.91595458984375 200.34732055664062 124.52246856689453 210.0187225341797 146.1075897216797 226.96343994140625" stroke-width="2.0" fill="none" stroke="rgb(0, 0, 0)" stroke-opacity="1" stroke-linecap="round" stroke-linejoin="round"/>
    <path d="M 41.28939437866211 56.23464584350586 C 50.123714447021484 76.90866088867188 24.81435203552246 56.046485900878906 37.96923065185547 33.94462203979492" stroke-width="2.0" fill="none" stroke="rgb(0, 0, 0)" stroke-opacity="1" stroke-linecap="round" stroke-linejoin="round"/>
    <path d="M 105.21190643310547 186.40716552734375 C 90.98826599121094 154.36265563964844 95.66205596923828 177.23291015625 87.81781005859375 152.9041290283203" stroke-width="2.0" fill="none" stroke="rgb(0, 0, 0)" stroke-opacity="1" stroke-linecap="round" stroke-linejoin="round"/>
    <path d="M 210.4990997314453 173.0391082763672 C 223.9585418701172 156.87002563476562 194.87391662597656 157.87884521484375 190.64495849609375 169.61593627929688 C 218.0609588623047 152.4654541015625 210.22796630859375 157.75852966308594 214.10787963867188 162.16354370117188 C 207.65000915527344 153.24093627929688 200.66531372070312 152.82980346679688 223.8490447998047 159.24774169921875" stroke-width="2.0" fill="none" stroke="rgb(0, 0, 0)" stroke-opacity="1" stroke-linecap="round" stroke-linejoin="round"/>
    <path d="M 187.0328369140625 193.43270874023438 C 193.6859893798828 205.76004028320312 188.6039276123047 217.18043518066406 164.56350708007812 228.19183349609375" stroke-width="2.0" fill="none" stroke="rgb(0, 0, 0)" stroke-opacity="1" stroke-linecap="round" stroke-linejoin="round"/>
    <path d="M 132.3967742919922 31.10917854309082 C 151.3472137451172 38.12355422973633 114.6402816772461 16.531631469726562 114.73493957519531 26.053129196166992 C 101.83711242675781 25.3497314453125 121.67472839355469 28.957069396972656 124.81501770019531 30.511768341064453" stroke-width="2.0" fill="none" stroke="rgb(0, 0, 0)" stroke-opacity="1" stroke-linecap="round" stroke-linejoin="round"/>
    <path d="M -7.156857967376709 126.41614532470703 C -4.256531238555908 116.9035415649414 -8.3732271194458 116.65216827392578 -9.607545852661133 131.433349609375 C -16.188892364501953 144.62408447265625 -7.581454753875732 135.8027801513672 -6.877403259277344 133.09341430664062" stroke-width="2.0" fill="none" stroke="rgb(0, 0, 0)" stroke-opacity="1" stroke-linecap="round" stroke-linejoin="round"/>
    <path d="M 49.9616584777832 88.4532470703125 C 56.3099250793457 70.97537231445312 44.78863525390625 108.05390167236328 68.43956756591797 118.23580932617188" stroke-width="2.0" fill="none" stroke="rgb(0, 0, 0)" stroke-opacity="1" stroke-linecap="round" stroke-linejoin="round"/>
    <path d="M 28.86285400390625 205.70831298828125 C 2.125091552734375 236.88668823242188 0.3283923864364624 232.3191375732422 -13.252677917480469 212.79397583007812 C 8.436783790588379 221.9196319580078 20.47267723083496 211.68345642089844 -3.6098875999450684 197.37220764160156" stroke-width="2.0" fill="none" stroke="rgb(0, 0, 0)" stroke-opacity="1" stroke-linecap="round" stroke-linejoin="round"/>
    <path d="M 95.44325256347656 205.89190673828125 C 121.8556137084961 192.16175842285156 98.60301971435547 210.9419708251953 118.15721893310547 196.9676055908203" stroke-width="2.0" fill="none" stroke="rgb(0, 0, 0)" stroke-opacity="1" stroke-linecap="round" stroke-linejoin="round"/>
    <path d="M -12.959641456604004 222.82852172851562 C 0.8077608942985535 226.40769958496094 14.633353233337402 208.2648468017578 -9.257820129394531 226.54421997070312 C 18.316057205200195 234.47158813476562 12.352149963378906 228.283935546875 -10.123930931091309 230.55015563964844 C -11.786157608032227 239.2535400390625 -3.2996585369110107 248.49964904785156 2.7537052631378174 247.1260528564453" stroke-width="2.0" fill="none" stroke="rgb(0, 0, 0)" stroke-opacity="1" stroke-linecap="round" stroke-linejoin="round"/>
    <path d="M 169.52134704589844 43.33301544189453 C 201.36997985839844 81.774169921875 182.540283203125 84.79063415527344 187.9165802001953 89.7212905883789 C 187.40902709960938 89.144775390625 187.72177124023438 76.5259780883789 191.96868896484375 101.89608001708984 C 172.00257873535156 85.50096893310547 187.6510467529297 91.69532012939453 168.3602752685547 67.69154357910156" stroke-width="2.0" fill="none" stroke="rgb(0, 0, 0)" stroke-opacity="1" stroke-linecap="round" stroke-linejoin="round"/>
    <path d="M 161.1278533935547 65.98030090332031 C 169.66766357421875 89.23357391357422 166.4503173828125 99.07542419433594 186.90557861328125 127.92327880859375 C 137.86801147460938 105.55662536621094 143.21994018554688 97.455322265625 174.3132781982422 139.77435302734375" stroke-width="2.0" fill="none" stroke="rgb(0, 0, 0)" stroke-opacity="1" stroke-linecap="round" stroke-linejoin="round"/>
    <path d="M 44.744049072265625 185.89791870117188 C 73.0043716430664 166.21713256835938 67.66944885253906 160.90042114257812 56.710872650146484 139.56979370117188 C 59.74995803833008 168.89781188964844 48.89631271362305 174.27093505859375 17.359432220458984 190.59210205078125 C 68.54995727539062 196.70333862304688 36.6391487121582 194.64398193359375 21.483366012573242 200.8138427734375" stroke-width="2.0" fill="none" stroke="rgb(0, 0, 0)" stroke-opacity="1" stroke-linecap="round" stroke-linejoin="round"/>
    <path d="M 57.39567184448242 31.885265350341797 C 47.432762145996094 48.03578186035156 85.07957458496094 96.15036010742188 61.95709228515625 68.76004791259766 C 58.90096664428711 74.10370635986328 31.882848739624023 83.99242401123047 53.51382064819336 84.43273162841797" stroke-width="2.0" fill="none" stroke="rgb(0, 0, 0)" stroke-opacity="1" stroke-linecap="round" stroke-linejoin="round"/>
    <path d="M 121.20511627197266 97.81779479980469 C 108.48699951171875 88.70162963867188 127.84793090820312 104.98978424072266 120.83008575439453 84.39613342285156 C 123.30950927734375 96.29949951171875 136.52603149414062 98.57464599609375 165.56500244140625 121.78083038330078" stroke-width="2.0" fill="none" stroke="rgb(0, 0, 0)" stroke-opacity="1" stroke-linecap="round" stroke-linejoin="round"/>
    <path d="M 49.07307815551758 40.33404541015625 C 46.62469482421875 20.208229064941406 69.00972747802734 19.106250762939453 47.34466552734375 22.895343780517578 C 74.76205444335938 8.424805641174316 39.746437072753906 38.5382080078125 66.39006805419922 20.344518661499023 C 67.43768310546875 19.52578353881836 55.670021057128906 52.72806167602539 68.47745513916016 22.138025283813477" stroke-width="2.0" fill="none" stroke="rgb(0, 0, 0)" stroke-opacity="1" stroke-linecap="round" stroke-linejoin="round"/>
    <path d="M 97.15325164794922 158.17807006835938 C 116.14563751220703 166.02781677246094 123.18412017822266 185.0151824951172 115.99649810791016 164.36038208007812 C 115.8351058959961 180.10858154296875 119.54071807861328 157.99493408203125 143.01112365722656 212.64785766601562" stroke-width="2.0" fill="none" stroke="rgb(0, 0, 0)" stroke-opacity="1" stroke-linecap="round" stroke-linejoin="round"/>
    <path d="M 89.69264221191406 151.71739196777344 C 90.45530700683594 158.95420837402344 106.8074951171875 175.547119140625 84.64529418945312 170.24928283691406 C 108.55438995361328 185.8802490234375 99.02085876464844 169.30470275878906 109.11227416992188 182.5985565185547 C 90.03692626953125 173.84194946289062 94.98963928222656 167.4434814453125 111.54855346679688 182.63433837890625" stroke-width="2.0" fill="none" stroke="rgb(0, 0, 0)" stroke-opacity="1" stroke-linecap="round" stroke-linejoin="round"/>
    <path d="M 200.4195556640625 180.61758422851562 C 166.98973083496094 166.39735412597656 178.3394012451172 161.04925537109375 191.94119262695312 177.7371368408203 C 191.75914001464844 176.03135681152344 203.60910034179688 175.30604553222656 200.78668212890625 186.51824951171875 C 182.40162658691406 165.1616668701172 206.33917236328125 186.66615295410156 190.5061798095703 215.61798095703125" stroke-width="2.0" fill="none" stroke="rgb(0, 0, 0)" stroke-opacity="1" stroke-linecap="round" stroke-linejoin="round"/>
    <path d="M 202.1446075439453 157.7449951171875 C 175.19944763183594 145.1569061279297 176.1974639892578 158.73231506347656 179.27511596679688 144.71092224121094 C 170.21231079101562 172.27420043945312 159.2652587890625 152.42843627929688 174.14756774902344 173.044921875" stroke-width="2.0" fill="none" stroke="rgb(0, 0, 0)" stroke-opacity="1" stroke-linecap="round" stroke-linejoin="round"/>
    <path d="M 116.94668579101562 96.82783508300781 C 57.86466598510742 55.172847747802734 110.07011413574219 75.8125991821289 137.8548583984375 91.49386596679688 C 126.72434997558594 71.13656616210938 124.77853393554688 60.24163818359375 139.96047973632812 82.84789276123047 C 168.2530517578125 110.81397247314453 145.17742919921875 104.80430603027344 117.02647399902344 49.872535705566406" stroke-width="2.0" fill="none" stroke="rgb(0, 0, 0)" stroke-opacity="1" stroke-linecap="round" stroke-linejoin="round"/>
    <path d="M 175.84767150878906 -5.048652648925781 C 203.75918579101562 34.705257415771484 195.8131866455078 35.66513442993164 192.10787963867188 -9.08867073059082" stroke-width="2.0" fill="none" stroke="rgb(0, 0, 0)" stroke-opacity="1" stroke-linecap="round" stroke-linejoin="round"/>
    <path d="M -8.232254981994629 71.91380310058594 C 3.7082998752593994 67.06192779541016 8.419661521911621 58.56625747680664 4.273281574249268 66.48615264892578 C 23.63616371154785 45.07780075073242 16.976224899291992 36.071937561035156 33.81227111816406 89.6933364868164 C 20.466381072998047 47.96355056762695 18.481821060180664 72.10823822021484 30.925283432006836 34.68376541137695" stroke-width="2.0" fill="none" stroke="rgb(0, 0, 0)" stroke-opacity="1" stroke-linecap="round" stroke-linejoin="round"/>
    <path d="M 224.71197509765625 143.69163513183594 C 207.01162719726562 86.33343505859375 233.90676879882812 46.27409362792969 230.45184326171875 70.9708480834961 C 220.23187255859375 91.17737579345703 220.30670166015625 121.33497619628906 216.76171875 123.57164764404297 C 212.1681671142578 117.3969497680664 208.78897094726562 113.57233428955078 184.6228790283203 43.27241897583008" stroke-width="2.0" fill="none" stroke="rgb(0, 0, 0)" stroke-opacity="1" stroke-linecap="round" stroke-linejoin="round"/>
    <path d="M 152.16259765625 32.74454879760742 C 116.0704116821289 8.818758010864258 136.5096435546875 14.217513084411621 131.7645721435547 21.176006317138672 C 143.91729736328125 22.492738723754883 122.45914459228516 14.69465446472168 111.89482879638672 0.7818366289138794 C 139.86502075195312 -16.650365829467773 129.99273681640625 -28.72917366027832 133.0960235595703 -38.25563049316406" stroke-width="2.0" fill="none" stroke="rgb(0, 0, 0)" stroke-opacity="1" stroke-linecap="round" stroke-linejoin="round"/>
    <path d="M 205.27926635742188 46.943546295166016 C 227.4860076904297 -4.303377151489258 241.6421661376953 12.200102806091309 202.61392211914062 55.84815979003906 C 189.30523681640625 41.6811408996582 200.63589477539062 46.76016616821289 203.25404357910156 93.13050079345703 C 190.6788787841797 83.49404907226562 172.83436584472656 73.72740173339844 209.232666015625 132.0026397705078" stroke-width="2.0" fill="none" stroke="rgb(0, 0, 0)" stroke-opacity="1" stroke-linecap="round" stroke-linejoin="round"/>
    <path d="M 151.1342315673828 226.77243041992188 C 189.76930236816406 243.0758819580078 180.08444213867188 238.41636657714844 160.3818359375 230.2274627685547 C 163.1587677001953 232.8579559326172 160.00115966796875 232.7241973876953 137.48818969726562 208.4938507080078" stroke-width="2.0" fill="none" stroke="rgb(0, 0, 0)" stroke-opacity="1" stroke-linecap="round" stroke-linejoin="round"/>
    <path d="M 216.6010284423828 82.67929077148438 C 226.4603729248047 29.960575103759766 212.43597412109375 34.2382698059082 223.5868377685547 2.1800360679626465" stroke-width="2.0" fill="none" stroke="rgb(0, 0, 0)" stroke-opacity="1" stroke-linecap="round" stroke-linejoin="round"/>
    <path d="M 25.283565521240234 193.3379364013672 C -5.486978530883789 226.4405975341797 -1.4261291027069092 218.6218719482422 13.051762580871582 164.29678344726562" stroke-width="2.0" fill="none" stroke="rgb(0, 0, 0)" stroke-opacity="1" stroke-linecap="round" stroke-linejoin="round"/>
    <path d="M 21.683391571044922 94.41168975830078 C 9.274584770202637 56.79487609863281 20.397178649902344 53.52362823486328 23.968833923339844 35.905059814453125" stroke-width="2.0" fill="none" stroke="rgb(0, 0, 0)" stroke-opacity="1" stroke-linecap="round" stroke-linejoin="round"/>
    <path d="M 204.48243713378906 185.36631774902344 C 218.37335205078125 235.63223266601562 199.51962280273438 212.22528076171875 203.26470947265625 181.78416442871094 C 218.8988800048828 196.64688110351562 217.4613800048828 220.11477661132812 230.73110961914062 224.2528839111328 C 212.59852600097656 191.98916625976562 215.22903442382812 180.6255645751953 209.30238342285156 172.45773315429688" stroke-width="2.0" fill="none" stroke="rgb(0, 0, 0)" stroke-opacity="1" stroke-linecap="round" stroke-linejoin="round"/>
    <path d="M 188.63125610351562 152.00662231445312 C 231.81944274902344 144.2045440673828 204.6658172607422 148.95387268066406 159.4566192626953 143.270751953125" stroke-width="2.0" fill="none" stroke="rgb(0, 0, 0)" stroke-opacity="1" stroke-linecap="round" stroke-linejoin="round"/>
    <path d="M 7.969025611877441 170.3115692138672 C 41.648231506347656 158.70643615722656 6.414447784423828 167.2667694091797 22.440187454223633 158.65884399414062 C 5.2079057693481445 226.1451873779297 7.830002784729004 191.60308837890625 56.71782684326172 163.1963653564453" stroke-width="2.0" fill="none" stroke="rgb(0, 0, 0)" stroke-opacity="1" stroke-linecap="round" stroke-linejoin="round"/>
    <path d="M 48.41029357910156 126.55367279052734 C 40.241336822509766 102.58805847167969 23.99009895324707 91.54766082763672 33.49876022338867 51.62063217163086 C 33.34462356567383 69.4608383178711 38.531917572021484 105.01420593261719 69.6268081665039 145.29751586914062" stroke-width="2.0" fill="none" stroke="rgb(0, 0, 0)" stroke-opacity="1" stroke-linecap="round" stroke-linejoin="round"/>
    <path d="M 124.40902709960938 93.67994689941406 C 141.20623779296875 106.32551574707031 116.80244445800781 84.70982360839844 98.13613891601562 60.28108596801758" stroke-width="2.0" fill="none" stroke="rgb(0, 0, 0)" stroke-opacity="1" stroke-linecap="round" stroke-linejoin="round"/>
    <path d="M 178.1449432373047 78.91204071044922 C 182.73709106445312 88.38661193847656 189.28286743164062 104.30896759033203 173.13343811035156 85.17001342773438 C 179.1057586669922 104.49270629882812 186.75831604003906 120.65807342529297 172.4888153076172 102.89112091064453 C 178.29161071777344 102.09967803955078 177.2346954345703 112.29814147949219 201.24940490722656 126.01260375976562" stroke-width="2.0" fill="none" stroke="rgb(0, 0, 0)" stroke-opacity="1" stroke-linecap="round" stroke-linejoin="round"/>
    <path d="M 140.0002899169922 128.00120544433594 C 96.74507141113281 105.42407989501953 82.09077453613281 101.79755401611328 121.45457458496094 124.49581146240234" stroke-width="2.0" fill="none" stroke="rgb(0, 0, 0)" stroke-opacity="1" stroke-linecap="round" stroke-linejoin="round"/>
    <path d="M 66.16944885253906 76.71621704101562 C 91.3288803100586 85.97264099121094 45.52850341796875 76.86181640625 65.85551452636719 110.82447052001953 C 68.83413696289062 101.02069854736328 48.01387405395508 77.07388305664062 63.10539627075195 99.25482177734375 C 97.72900390625 117.40966796875 99.64305114746094 127.51722717285156 64.8340072631836 102.09367370605469" stroke-width="2.0" fill="none" stroke="rgb(0, 0, 0)" stroke-opacity="1" stroke-linecap="round" stroke-linejoin="round"/>
    <path d="M 179.54705810546875 90.51757049560547 C 155.46507263183594 24.29265594482422 180.9695281982422 68.14277648925781 155.62155151367188 40.73307800292969" stroke-width="2.0" fill="none" stroke="rgb(0, 0, 0)" stroke-opacity="1" stroke-linecap="round" stroke-linejoin="round"/>
    <path d="M 116.49832153320312 161.37652587890625 C 105.32159423828125 147.56045532226562 117.66381072998047 156.80784606933594 131.95755004882812 171.83583068847656" stroke-width="2.0" fill="none" stroke="rgb(0, 0, 0)" stroke-opacity="1" stroke-linecap="round" stroke-linejoin="round"/>
    <path d="M 155.56094360351562 124.63299560546875 C 125.48242950439453 98.09758758544922 113.9189224243164 102.34841918945312 146.3817901611328 116.69042205810547" stroke-width="2.0" fill="none" stroke="rgb(0, 0, 0)" stroke-opacity="1" stroke-linecap="round" stroke-linejoin="round"/>
    <path d="M 37.63072204589844 153.3024444580078 C 24.6035099029541 136.86004638671875 45.7664680480957 160.3372802734375 42.442657470703125 149.64186096191406 C 14.253533363342285 135.2560272216797 48.47551345825195 148.27587890625 21.471603393554688 129.9248046875" stroke-width="2.0" fill="none" stroke="rgb(0, 0, 0)" stroke-opacity="1" stroke-linecap="round" stroke-linejoin="round"/>
    <path d="M 19.46129035949707 191.28758239746094 C 35.70856857299805 140.0139923095703 30.10381317138672 159.94705200195312 18.003156661987305 163.08023071289062 C 31.94186019897461 133.1637725830078 21.290246963500977 169.45359802246094 10.675028800964355 211.24954223632812 C 15.580915451049805 197.07029724121094 35.07805252075195 197.0299530029297 57.697532653808594 163.29855346679688" stroke-width="2.0" fill="none" stroke="rgb(0, 0, 0)" stroke-opacity="1" stroke-linecap="round" stroke-linejoin="round"/>
    <path d="M 128.5673065185547 48.23303985595703 C 159.43289184570312 115.63033294677734 190.77088928222656 146.70921325683594 183.35203552246094 114.65019989013672 C 200.77545166015625 146.341552734375 178.38134765625 129.00714111328125 152.3820037841797 76.36650085449219 C 151.98948669433594 86.84281158447266 163.4025421142578 111.0927963256836 138.6162109375 59.35715866088867" stroke-width="2.0" fill="none" stroke="rgb(0, 0, 0)" stroke-opacity="1" stroke-linecap="round" stroke-linejoin="round"/>
    <path d="M 120.92221069335938 86.88883209228516 C 109.47916412353516 68.70763397216797 121.30867767333984 75.96955108642578 123.53822326660156 93.85221862792969" stroke-width="2.0" fill="none" stroke="rgb(0, 0, 0)" stroke-opacity="1" stroke-linecap="round" stroke-linejoin="round"/>
    <path d="M 51.77619552612305 59.40524673461914 C 67.46174621582031 73.73452758789062 50.065860748291016 61.02063751220703 49.66996383666992 75.09864807128906" stroke-width="2.0" fill="none" stroke="rgb(0, 0, 0)" stroke-opacity="1" stroke-linecap="round" stroke-linejoin="round"/>
    <path d="M 11.362829208374023 145.1988067626953 C 0.7258716225624084 213.26670837402344 -3.4093217849731445 236.15260314941406 13.07149600982666 179.73953247070312" stroke-width="2.0" fill="none" stroke="rgb(0, 0, 0)" stroke-opacity="1" stroke-linecap="round" stroke-linejoin="round"/>
    <path d="M 32.468711853027344 194.8797607421875 C 56.81416702270508 193.47650146484375 18.280038833618164 205.97589111328125 49.35580825805664 204.8773193359375" stroke-width="2.0" fill="none" stroke="rgb(0, 0, 0)" stroke-opacity="1" stroke-linecap="round" stroke-linejoin="round"/>
    <path d="M 114.92228698730469 157.07955932617188 C 115.79192352294922 135.1186065673828 113.9731216430664 145.2671661376953 107.6884994506836 126.54727172851562" stroke-width="2.0" fill="none" stroke="rgb(0, 0, 0)" stroke-opacity="1" stroke-linecap="round" stroke-linejoin="round"/>
    <path d="M 206.5452880859375 152.99630737304688 C 167.20083618164062 141.27330017089844 162.86468505859375 122.72827911376953 186.59385681152344 159.4681396484375 C 168.55967712402344 144.9409942626953 144.58863830566406 146.0281524658203 146.89308166503906 155.41073608398438" stroke-width="2.0" fill="none" stroke="rgb(0, 0, 0)" stroke-opacity="1" stroke-linecap="round" stroke-linejoin="round"/>
    <path d="M 130.54458618164062 91.24530029296875 C 109.63438415527344 62.79706954956055 111.08352661132812 73.27159118652344 124.71400451660156 84.1489486694336" stroke-width="2.0" fill="none" stroke="rgb(0, 0, 0)" stroke-opacity="1" stroke-linecap="round" stroke-linejoin="round"/>
    <path d="M 194.1639862060547 27.17612648010254 C 209.30184936523438 56.58112335205078 190.62493896484375 43.30693054199219 215.4066619873047 12.456404685974121 C 207.56796264648438 43.910362243652344 214.6916046142578 28.662397384643555 212.08343505859375 14.131830215454102 C 214.09278869628906 3.057769536972046 226.50222778320312 -13.967381477355957 220.94305419921875 -8.16386604309082" stroke-width="2.0" fill="none" stroke="rgb(0, 0, 0)" stroke-opacity="1" stroke-linecap="round" stroke-linejoin="round"/>
    <path d="M 155.5465087890625 152.3076934814453 C 174.08364868164062 143.97691345214844 156.58604431152344 144.35586547851562 127.45671081542969 138.68637084960938 C 170.3302459716797 152.39231872558594 131.8526153564453 131.48016357421875 145.05564880371094 171.49085998535156" stroke-width="2.0" fill="none" stroke="rgb(0, 0, 0)" stroke-opacity="1" stroke-linecap="round" stroke-linejoin="round"/>
    <path d="M 180.23251342773438 151.67616271972656 C 159.2980499267578 167.6890869140625 156.5771942138672 157.79026794433594 174.10360717773438 180.25791931152344" stroke-width="2.0" fill="none" stroke="rgb(0, 0, 0)" stroke-opacity="1" stroke-linecap="round" stroke-linejoin="round"/>
    <path d="M 193.25807189941406 178.78224182128906 C 198.97677612304688 191.58258056640625 201.5758056640625 212.470703125 188.8094024658203 198.23573303222656 C 186.5522918701172 219.11842346191406 179.98388671875 213.37669372558594 167.93389892578125 210.90931701660156 C 196.83010864257812 218.28077697753906 204.64541625976562 221.8345489501953 191.80726623535156 178.3759002685547" stroke-width="2.0" fill="none" stroke="rgb(0, 0, 0)" stroke-opacity="1" stroke-linecap="round" stroke-linejoin="round"/>
    <path d="M 71.44164276123047 227.250732421875 C 89.12012481689453 220.97190856933594 64.38831329345703 233.02838134765625 70.62903594970703 231.53619384765625 C 93.00277709960938 217.4373321533203 93.66547393798828 201.39918518066406 117.43643188476562 225.4081573486328" stroke-width="2.0" fill="none" stroke="rgb(0, 0, 0)" stroke-opacity="1" stroke-linecap="round" stroke-linejoin="round"/>
    <path d="M 120.41995239257812 127.85816192626953 C 131.4368896484375 144.8639373779297 150.13775634765625 151.44277954101562 142.86212158203125 144.13308715820312 C 122.42430877685547 133.5817413330078 97.158447265625 119.81510925292969 150.3158416748047 129.9849090576172 C 185.00477600097656 156.12637329101562 142.4024658203125 149.84193420410156 141.22802734375 150.92254638671875" stroke-width="2.0" fill="none" stroke="rgb(0, 0, 0)" stroke-opacity="1" stroke-linecap="round" stroke-linejoin="round"/>
    <path d="M 108.66384887695312 197.56629943847656 C 98.93351745605469 186.4662322998047 86.4000015258789 179.19863891601562 74.48683166503906 187.7806396484375 C 107.56842803955078 199.6984405517578 67.88031768798828 187.90159606933594 111.18917083740234 197.79457092285156" stroke-width="2.0" fill="none" stroke="rgb(0, 0, 0)" stroke-opacity="1" stroke-linecap="round" stroke-linejoin="round"/>
    <path d="M 91.4995346069336 11.792925834655762 C 52.73576354980469 -9.169382095336914 40.982784271240234 -0.9128137826919556 57.794822692871094 1.5969797372817993 C 56.55139923095703 -0.16440485417842865 29.040790557861328 10.775983810424805 19.25765609741211 17.5886173248291 C 48.78240966796875 -10.371590614318848 44.05284881591797 2.907487630844116 87.9120864868164 15.705217361450195" stroke-width="2.0" fill="none" stroke="rgb(0, 0, 0)" stroke-opacity="1" stroke-linecap="round" stroke-linejoin="round"/>
    <path d="M 59.845947265625 126.0179443359375 C 30.377275466918945 106.88228607177734 30.531517028808594 91.65591430664062 42.496559143066406 110.77164459228516 C 9.557005882263184 80.11491394042969 21.862043380737305 113.98221588134766 65.87377166748047 146.37954711914062" stroke-width="2.0" fill="none" stroke="rgb(0, 0, 0)" stroke-opacity="1" stroke-linecap="round" stroke-linejoin="round"/>
    <path d="M 119.98358154296875 109.83264923095703 C 83.2860336303711 89.67723846435547 139.0252685546875 118.58135986328125 106.0831527709961 123.99169158935547" stroke-width="2.0" fill="none" stroke="rgb(0, 0, 0)" stroke-opacity="1" stroke-linecap="round" stroke-linejoin="round"/>
    <path d="M 99.06233978271484 51.55634689331055 C 125.86601257324219 69.6912612915039 115.93234252929688 76.92027282714844 132.58152770996094 80.25457763671875" stroke-width="2.0" fill="none" stroke="rgb(0, 0, 0)" stroke-opacity="1" stroke-linecap="round" stroke-linejoin="round"/>
    <path d="M 177.25772094726562 130.9353790283203 C 136.14376831054688 107.24170684814453 128.06072998046875 93.10030364990234 129.09002685546875 89.6325454711914 C 138.87026977539062 89.57421112060547 132.256103515625 80.81781005859375 115.11906433105469 64.0535888671875" stroke-width="2.0" fill="none" stroke="rgb(0, 0, 0)" stroke-opacity="1" stroke-linecap="round" stroke-linejoin="round"/>
    <path d="M 218.2682647705078 69.34712982177734 C 208.55868530273438 110.49410247802734 224.47894287109375 129.1508026123047 215.0995330810547 129.1269073486328 C 205.07992553710938 101.28899383544922 210.87255859375 98.84552001953125 215.60643005371094 34.28927993774414" stroke-width="2.0" fill="none" stroke="rgb(0, 0, 0)" stroke-opacity="1" stroke-linecap="round" stroke-linejoin="round"/>
    <path d="M 19.83884620666504 52.26110076904297 C 24.06809425354004 81.31543731689453 32.40943145751953 103.80322265625 11.358956336975098 60.59022521972656 C 59.813255310058594 63.18963623046875 60.458824157714844 66.10224151611328 35.297977447509766 75.06631469726562" stroke-width="2.0" fill="none" stroke="rgb(0, 0, 0)" stroke-opacity="1" stroke-linecap="round" stroke-linejoin="round"/>
    <path d="M 57.69606018066406 143.30177307128906 C 88.62390899658203 170.2866668701172 73.88778686523438 153.4878387451172 77.3042984008789 134.6148681640625 C 69.63665771484375 131.3902130126953 63.25743865966797 103.28651428222656 72.25637817382812 116.87894439697266 C 70.75215148925781 131.99024963378906 111.57955169677734 136.9702606201172 75.29236602783203 93.63963317871094" stroke-width="2.0" fill="none" stroke="rgb(0, 0, 0)" stroke-opacity="1" stroke-linecap="round" stroke-linejoin="round"/>
    <path d="M 42.74732208251953 126.7922134399414 C 31.20575714111328 98.03692626953125 16.304092407226562 81.33162689208984 -4.234410285949707 64.70121002197266 C 24.5908260345459 110.36040496826172 21.469085693359375 110.70791625976562 36.50602722167969 120.99695587158203 C 25.25928497314453 119.75769805908203 7.800664901733398 99.54828643798828 -9.907097816467285 100.10247039794922" stroke-width="2.0" fill="none" stroke="rgb(0, 0, 0)" stroke-opacity="1" stroke-linecap="round" stroke-linejoin="round"/>
    <path d="M 71.98712158203125 180.88771057128906 C 61.40354537963867 190.2783203125 58.845149993896484 201.7390899658203 35.25858688354492 207.79234313964844" stroke-width="2.0" fill="none" stroke="rgb(0, 0, 0)" stroke-opacity="1" stroke-linecap="round" stroke-linejoin="round"/>
    <path d="M 133.3748016357422 146.52548217773438 C 142.9891357421875 171.04624938964844 168.093994140625 205.82916259765625 141.77659606933594 146.35072326660156 C 146.22523498535156 199.26947021484375 153.40321350097656 195.0343475341797 139.61172485351562 143.3757781982422 C 139.93511962890625 152.71482849121094 154.15699768066406 151.14065551757812 191.7333984375 160.00662231445312" stroke-width="2.0" fill="none" stroke="rgb(0, 0, 0)" stroke-opacity="1" stroke-linecap="round" stroke-linejoin="round"/>
    <path d="M 21.606990814208984 -4.4017486572265625 C -6.446967601776123 7.438995838165283 -12.225412368774414 17.23261260986328 -14.817160606384277 14.808926582336426 C -8.842124938964844 16.22126007080078 -14.036199569702148 22.863624572753906 -14.69344711303711 14.93364429473877 C -8.392521858215332 5.470375061035156 -14.185169219970703 2.731156349182129 -22.12333106994629 -6.543296813964844" stroke-width="2.0" fill="none" stroke="rgb(0, 0, 0)" stroke-opacity="1" stroke-linecap="round" stroke-linejoin="round"/>
    <path d="M 49.23012924194336 99.54916381835938 C 46.78444290161133 65.6571273803711 40.11532211303711 103.10699462890625 65.78352355957031 74.78397369384766" stroke-width="2.0" fill="none" stroke="rgb(0, 0, 0)" stroke-opacity="1" stroke-linecap="round" stroke-linejoin="round"/>
    <path d="M 206.84397888183594 53.172630310058594 C 214.65353393554688 59.2183723449707 201.6295623779297 29.649507522583008 208.51295471191406 97.17105865478516 C 226.26246643066406 138.06478881835938 212.28305053710938 121.6568603515625 190.1138458251953 79.02474975585938 C 190.06130981445312 85.84207153320312 190.7340850830078 83.38883209228516 199.8324737548828 96.62735748291016" stroke-width="2.0" fill="none" stroke="rgb(0, 0, 0)" stroke-opacity="1" stroke-linecap="round" stroke-linejoin="round"/>
    <path d="M 76.1526107788086 90.95731353759766 C 95.3140869140625 102.06089782714844 63.823341369628906 96.82962036132812 86.72552490234375 106.32582092285156 C 74.1668472290039 80.74515533447266 57.94303894042969 94.20707702636719 52.383026123046875 85.31696319580078 C 84.49613952636719 78.05645751953125 80.98838806152344 81.54075622558594 58.49009704589844 90.89656066894531" stroke-width="2.0" fill="none" stroke="rgb(0, 0, 0)" stroke-opacity="1" stroke-linecap="round" stroke-linejoin="round"/>
    <path d="M 157.00765991210938 -8.24950122833252 C 163.7013397216797 8.080154418945312 171.6604461669922 11.790645599365234 151.4052734375 -5.46670389175415 C 154.1692352294922 4.431878089904785 171.46163940429688 13.098097801208496 155.40753173828125 -4.03336763381958 C 164.13633728027344 -10.052450180053711 170.35183715820312 2.014049530029297 191.06124877929688 30.631792068481445" stroke-width="2.0" fill="none" stroke="rgb(0, 0, 0)" stroke-opacity="1" stroke-linecap="round" stroke-linejoin="round"/>
    <path d="M 123.21145629882812 186.92530822753906 C 109.7840805053711 158.21652221679688 106.81353759765625 170.35113525390625 124.13031005859375 185.8666534423828" stroke-width="2.0" fill="none" stroke="rgb(0, 0, 0)" stroke-opacity="1" stroke-linecap="round" stroke-linejoin="round"/>
    <path d="M 195.70916748046875 8.689945220947266 C 154.4925079345703 -4.058564186096191 143.3782958984375 -7.998291492462158 138.1457061767578 -14.71020221710205 C 130.15220642089844 -0.8298745155334473 137.87991333007812 -4.219752311706543 131.42515563964844 -1.7818379402160645" stroke-width="2.0" fill="none" stroke="rgb(0, 0, 0)" stroke-opacity="1" stroke-linecap="round" stroke-linejoin="round"/>
    <path d="M 203.11871337890625 -1.7974152565002441 C 198.21253967285156 42.129615783691406 198.4187774658203 17.569766998291016 206.33456420898438 12.209656715393066 C 202.6470184326172 48.22623825073242 207.80020141601562 29.09518051147461 204.1529541015625 32.07950210571289 C 207.52993774414062 -11.488982200622559 225.48196411132812 -18.57295799255371 197.8685302734375 -3.163663864135742" stroke-width="2.0" fill="none" stroke="rgb(0, 0, 0)" stroke-opacity="1" stroke-linecap="round" stroke-linejoin="round"/>
    <path d="M 199.8546142578125 179.06924438476562 C 195.591552734375 177.84628295898438 201.0267333984375 190.25025939941406 217.98670959472656 220.08641052246094 C 233.1177520751953 234.4810333251953 202.7010955810547 226.66722106933594 201.6890106201172 184.76458740234375" stroke-width="2.0" fill="none" stroke="rgb(0, 0, 0)" stroke-opacity="1" stroke-linecap="round" stroke-linejoin="round"/>
    <path d="M 46.96045684814453 143.31491088867188 C 58.55863952636719 167.26722717285156 19.845508575439453 187.4655303955078 25.916410446166992 189.1312255859375 C 16.535707473754883 193.38734436035156 21.91202163696289 190.55433654785156 36.275630950927734 195.28652954101562" stroke-width="2.0" fill="none" stroke="rgb(0, 0, 0)" stroke-opacity="1" stroke-linecap="round" stroke-linejoin="round"/>
    <path d="M 184.634765625 120.9630355834961 C 202.0523681640625 156.88568115234375 223.5903778076172 135.504150390625 179.05923461914062 147.7996368408203" stroke-width="2.0" fill="none" stroke="rgb(0, 0, 0)" stroke-opacity="1" stroke-linecap="round" stroke-linejoin="round"/>
    <path d="M 73.9385757446289 164.4878387451172 C 63.888214111328125 162.22653198242188 86.78353118896484 160.7067413330078 87.85044860839844 167.37046813964844 C 74.1037826538086 176.02125549316406 101.79650115966797 167.00491333007812 121.98973083496094 201.21875 C 100.7646255493164 188.89511108398438 86.03241729736328 195.7526397705078 111.13651275634766 198.9224853515625" stroke-width="2.0" fill="none" stroke="rgb(0, 0, 0)" stroke-opacity="1" stroke-linecap="round" stroke-linejoin="round"/>
    <path d="M 33.521240234375 187.18502807617188 C 6.257731914520264 208.61724853515625 16.51065444946289 203.11407470703125 34.538543701171875 203.4674835205078 C 45.03932571411133 187.49993896484375 47.48548126220703 199.911865234375 11.906952857971191 231.552001953125" stroke-width="2.0" fill="none" stroke="rgb(0, 0, 0)" stroke-opacity="1" stroke-linecap="round" stroke-linejoin="round"/>
    <path d="M 114.52677154541016 123.13904571533203 C 111.81895446777344 76.67018127441406 91.45751953125 101.88626861572266 134.84396362304688 122.47350311279297" stroke-width="2.0" fill="none" stroke="rgb(0, 0, 0)" stroke-opacity="1" stroke-linecap="round" stroke-linejoin="round"/>
    <path d="M 80.6022720336914 160.28240966796875 C 94.85192108154297 186.94129943847656 108.51593780517578 200.26126098632812 127.98201751708984 203.3118133544922 C 123.55784606933594 204.02914428710938 117.41236877441406 199.38565063476562 103.4529800415039 181.454345703125" stroke-width="2.0" fill="none" stroke="rgb(0, 0, 0)" stroke-opacity="1" stroke-linecap="round" stroke-linejoin="round"/>
    <path d="M 163.3572540283203 164.00926208496094 C 183.80657958984375 164.78854370117188 191.61622619628906 154.8163299560547 203.963623046875 160.0426483154297 C 187.30001831054688 163.40570068359375 171.40447998046875 151.42567443847656 146.33401489257812 161.15682983398438 C 205.59140014648438 153.9580841064453 179.10804748535156 149.9005126953125 187.53843688964844 180.14794921875" stroke-width="2.0" fill="none" stroke="rgb(0, 0, 0)" stroke-opacity="1" stroke-linecap="round" stroke-linejoin="round"/>
    <path d="M 27.193037033081055 127.80646514892578 C 10.536243438720703 106.98397827148438 11.747786521911621 88.52722930908203 -18.31622314453125 77.65365600585938 C -7.842474460601807 93.99622344970703 21.876178741455078 98.27971649169922 41.88854217529297 143.49032592773438" stroke-width="2.0" fill="none" stroke="rgb(0, 0, 0)" stroke-opacity="1" stroke-linecap="round" stroke-linejoin="round"/>
    <path d="M 85.45854949951172 166.0919189453125 C 54.3883056640625 194.30386352539062 85.42369842529297 158.22308349609375 69.27944946289062 175.97113037109375 C 70.71705627441406 176.3765869140625 71.09066009521484 176.88186645507812 69.66334533691406 176.46334838867188 C 74.45616149902344 168.2647247314453 94.30516815185547 185.9029998779297 71.27812957763672 174.8255615234375" stroke-width="2.0" fill="none" stroke="rgb(0, 0, 0)" stroke-opacity="1" stroke-linecap="round" stroke-linejoin="round"/>
    <path d="M 42.756263732910156 13.655731201171875 C 16.273170471191406 18.6910457611084 11.606194496154785 18.3837833404541 26.996599197387695 15.6251859664917" stroke-width="2.0" fill="none" stroke="rgb(0, 0, 0)" stroke-opacity="1" stroke-linecap="round" stroke-linejoin="round"/>
    <path d="M 172.32969665527344 167.37548828125 C 195.95071411132812 173.61329650878906 185.5083770751953 208.95034790039062 189.72166442871094 200.90818786621094 C 205.7109375 201.1927032470703 184.57720947265625 194.36839294433594 202.13706970214844 208.55364990234375" stroke-width="2.0" fill="none" stroke="rgb(0, 0, 0)" stroke-opacity="1" stroke-linecap="round" stroke-linejoin="round"/>
    <path d="M 44.01557159423828 -9.12904167175293 C 53.45521545410156 -10.104413986206055 43.414981842041016 -11.126320838928223 29.883739471435547 -11.75726318359375 C 43.14952087402344 -9.202034950256348 60.39579772949219 -1.6240867376327515 77.88031005859375 10.827438354492188" stroke-width="2.0" fill="none" stroke="rgb(0, 0, 0)" stroke-opacity="1" stroke-linecap="round" stroke-linejoin="round"/>
    <path d="M 187.57716369628906 160.30691528320312 C 190.90963745117188 176.20875549316406 153.26792907714844 159.42510986328125 167.6724395751953 166.72296142578125 C 155.3484344482422 152.8572998046875 177.41644287109375 165.74185180664062 181.3087615966797 181.05337524414062 C 173.4192352294922 223.828125 150.895751953125 254.58810424804688 161.2655029296875 191.27365112304688" stroke-width="2.0" fill="none" stroke="rgb(0, 0, 0)" stroke-opacity="1" stroke-linecap="round" stroke-linejoin="round"/>
    <path d="M 8.553417205810547 -7.996103286743164 C 8.328095436096191 -1.1083365678787231 14.176807403564453 -7.149038314819336 22.87818145751953 -3.268157958984375 C 35.24167251586914 -6.36297082901001 35.73419952392578 -7.4463677406311035 39.32353591918945 -4.4717302322387695" stroke-width="2.0" fill="none" stroke="rgb(0, 0, 0)" stroke-opacity="1" stroke-linecap="round" stroke-linejoin="round"/>
    <path d="M -16.81441879272461 66.17031860351562 C 16.846027374267578 66.5608901977539 10.629067420959473 48.256431579589844 33.28510665893555 93.05307006835938" stroke-width="2.0" fill="none" stroke="rgb(0, 0, 0)" stroke-opacity="1" stroke-linecap="round" stroke-linejoin="round"/>
    <path d="M 112.44932556152344 112.56031036376953 C 131.5048828125 131.10623168945312 152.0794219970703 111.25678253173828 125.30875396728516 121.42017364501953 C 153.85574340820312 136.71702575683594 137.11293029785156 145.0414276123047 93.62887573242188 117.65686798095703 C 115.3210678100586 122.4980239868164 116.42481994628906 137.248779296875 115.17827606201172 158.9077911376953" stroke-width="2.0" fill="none" stroke="rgb(0, 0, 0)" stroke-opacity="1" stroke-linecap="round" stroke-linejoin="round"/>
    <path d="M 28.965923309326172 98.08447265625 C 18.158315658569336 71.1123275756836 22.4144287109375 72.57746887207031 28.752010345458984 48.156463623046875 C 18.45069694519043 65.89961242675781 46.039920806884766 51.022422790527344 31.787109375 69.40369415283203" stroke-width="2.0" fill="none" stroke="rgb(0, 0, 0)" stroke-opacity="1" stroke-linecap="round" stroke-linejoin="round"/>
    <path d="M 152.3682861328125 221.40379333496094 C 131.89266967773438 170.97642517089844 167.116943359375 224.26199340820312 128.08099365234375 181.08340454101562" stroke-width="2.0" fill="none" stroke="rgb(0, 0, 0)" stroke-opacity="1" stroke-linecap="round" stroke-linejoin="round"/>
    <path d="M 82.53097534179688 112.18732452392578 C 62.41157150268555 91.49891662597656 58.02846145629883 104.14440155029297 83.60527038574219 98.8392562866211 C 95.4229507446289 106.4400863647461 120.86972045898438 123.23726654052734 82.80931854248047 79.8042221069336" stroke-width="2.0" fill="none" stroke="rgb(0, 0, 0)" stroke-opacity="1" stroke-linecap="round" stroke-linejoin="round"/>
    <path d="M 54.43741226196289 14.080944061279297 C 24.604110717773438 6.181768417358398 29.58106231689453 33.85554122924805 27.156949996948242 31.946308135986328 C 10.664653778076172 51.79570007324219 13.29710865020752 51.775421142578125 26.41185188293457 15.592758178710938" stroke-width="2.0" fill="none" stroke="rgb(0, 0, 0)" stroke-opacity="1" stroke-linecap="round" stroke-linejoin="round"/>
    <path d="M 105.7045669555664 165.58892822265625 C 101.87247467041016 111.32482147216797 109.4282455444336 161.084228515625 108.3083267211914 140.7723846435547 C 66.87448120117188 111.12335205078125 76.61687469482422 106.39753723144531 98.51656341552734 154.6935577392578" stroke-width="2.0" fill="none" stroke="rgb(0, 0, 0)" stroke-opacity="1" stroke-linecap="round" stroke-linejoin="round"/>
    <path d="M 105.56756591796875 92.17339324951172 C 74.58600616455078 79.1043701171875 98.16632843017578 95.06196594238281 86.11581420898438 81.12549591064453 C 52.11936569213867 40.04013442993164 103.2145767211914 98.26730346679688 81.87694549560547 54.280399322509766" stroke-width="2.0" fill="none" stroke="rgb(0, 0, 0)" stroke-opacity="1" stroke-linecap="round" stroke-linejoin="round"/>
    <path d="M 73.98709869384766 48.0881462097168 C 84.58812713623047 75.7922592163086 99.15564727783203 80.31314086914062 116.4901351928711 86.4303970336914 C 129.33645629882812 96.684326171875 116.54533386230469 100.99552154541016 107.93963623046875 86.94185638427734 C 140.71041870117188 105.7749252319336 127.13706970214844 119.99462890625 89.24958801269531 54.387996673583984" stroke-width="2.0" fill="none" stroke="rgb(0, 0, 0)" stroke-opacity="1" stroke-linecap="round" stroke-linejoin="round"/>
    <path d="M 158.29637145996094 146.9727783203125 C 117.52763366699219 121.01482391357422 123.33158111572266 112.5386962890625 175.38803100585938 131.51744079589844 C 169.37184143066406 135.4383544921875 161.99978637695312 120.61495971679688 170.52618408203125 139.8702850341797" stroke-width="2.0" fill="none" stroke="rgb(0, 0, 0)" stroke-opacity="1" stroke-linecap="round" stroke-linejoin="round"/>
    <path d="M 140.91595458984375 98.45378112792969 C 183.7085418701172 122.9406967163086 164.3656005859375 137.82752990722656 158.70199584960938 64.65196990966797 C 165.85296630859375 78.67149353027344 154.5115509033203 93.06941223144531 171.6608123779297 100.81946563720703 C 145.15992736816406 69.52265930175781 144.2084197998047 38.06692123413086 156.51089477539062 66.47674560546875" stroke-width="2.0" fill="none" stroke="rgb(0, 0, 0)" stroke-opacity="1" stroke-linecap="round" stroke-linejoin="round"/>
    <path d="M 33.8083381652832 233.19361877441406 C 74.96068572998047 202.1795654296875 60.22027587890625 212.6643829345703 15.295685768127441 222.75991821289062 C 9.739340782165527 228.52613830566406 32.72005081176758 235.13150024414062 55.83270263671875 218.53895568847656 C 69.01420593261719 213.00189208984375 63.58890151977539 207.0372772216797 101.66559600830078 211.44668579101562" stroke-width="2.0" fill="none" stroke="rgb(0, 0, 0)" stroke-opacity="1" stroke-linecap="round" stroke-linejoin="round"/>
    <path d="M 222.6768798828125 101.36609649658203 C 219.30308532714844 112.67070007324219 219.7489776611328 110.40472412109375 216.02996826171875 139.93711853027344" stroke-width="2.0" fill="none" stroke="rgb(0, 0, 0)" stroke-opacity="1" stroke-linecap="round" stroke-linejoin="round"/>
    <path d="M 64.6624755859375 72.7007827758789 C 52.995147705078125 94.45841979980469 23.666772842407227 75.02671813964844 68.0247802734375 77.32917785644531" stroke-width="2.0" fill="none" stroke="rgb(0, 0, 0)" stroke-opacity="1" stroke-linecap="round" stroke-linejoin="round"/>
    <path d="M 72.18219757080078 102.63233184814453 C 95.1453857421875 122.18995666503906 62.411983489990234 111.34788513183594 95.10565185546875 110.25028228759766 C 73.5498275756836 94.55113220214844 93.26663970947266 130.02890014648438 97.86774444580078 138.23727416992188" stroke-width="2.0" fill="none" stroke="rgb(0, 0, 0)" stroke-opacity="1" stroke-linecap="round" stroke-linejoin="round"/>
    <path d="M 178.03860473632812 229.36485290527344 C 207.3707275390625 214.9489288330078 200.38319396972656 217.64585876464844 212.79920959472656 224.01348876953125 C 234.72247314453125 234.37918090820312 236.8573760986328 225.5 226.0795135498047 202.39183044433594 C 232.46511840820312 218.7445526123047 239.01016235351562 222.90377807617188 229.5632781982422 202.9854736328125" stroke-width="2.0" fill="none" stroke="rgb(0, 0, 0)" stroke-opacity="1" stroke-linecap="round" stroke-linejoin="round"/>
    <path d="M 209.45436096191406 188.43911743164062 C 214.04078674316406 205.60943603515625 220.6456298828125 217.91615295410156 228.34010314941406 226.9209747314453 C 215.55467224121094 229.640625 224.0756378173828 243.43605041503906 224.72088623046875 255.77621459960938 C 232.80389404296875 243.12879943847656 232.00160217285156 240.06394958496094 226.85862731933594 229.58941650390625" stroke-width="2.0" fill="none" stroke="rgb(0, 0, 0)" stroke-opacity="1" stroke-linecap="round" stroke-linejoin="round"/>
    <path d="M 82.3785629272461 179.2339630126953 C 100.18862915039062 205.10528564453125 98.6839599609375 189.75575256347656 80.14022064208984 181.04515075683594 C 97.01457977294922 202.92474365234375 98.55635070800781 192.90834045410156 83.08692169189453 204.04803466796875" stroke-width="2.0" fill="none" stroke="rgb(0, 0, 0)" stroke-opacity="1" stroke-linecap="round" stroke-linejoin="round"/>
    <path d="M 135.9899139404297 226.39453125 C 92.09818267822266 190.05447387695312 100.87492370605469 213.4865264892578 115.94093322753906 196.47349548339844 C 128.3251190185547 207.2362823486328 151.75563049316406 219.12841796875 127.64088439941406 203.01907348632812" stroke-width="2.0" fill="none" stroke="rgb(0, 0, 0)" stroke-opacity="1" stroke-linecap="round" stroke-linejoin="round"/>
    <path d="M 158.7720947265625 231.28248596191406 C 174.17047119140625 209.0269317626953 180.32589721679688 216.2400360107422 155.89808654785156 230.62185668945312 C 174.26844787597656 205.3870849609375 165.5692596435547 171.1900634765625 156.6724395751953 213.3574981689453" stroke-width="2.0" fill="none" stroke="rgb(0, 0, 0)" stroke-opacity="1" stroke-linecap="round" stroke-linejoin="round"/>
    <path d="M 79.92125701904297 45.529422760009766 C 53.25637435913086 32.40357208251953 89.69725036621094 14.408920288085938 70.90558624267578 31.89710807800293" stroke-width="2.0" fill="none" stroke="rgb(0, 0, 0)" stroke-opacity="1" stroke-linecap="round" stroke-linejoin="round"/>
    <path d="M 176.34828186035156 54.287322998046875 C 189.6124725341797 102.7503662109375 197.94630432128906 120.83680725097656 176.8363494873047 82.37286376953125 C 178.97567749023438 92.45220184326172 178.85032653808594 107.8258056640625 162.25003051757812 53.74659729003906" stroke-width="2.0" fill="none" stroke="rgb(0, 0, 0)" stroke-opacity="1" stroke-linecap="round" stroke-linejoin="round"/>
    <path d="M 73.5036392211914 223.15464782714844 C 84.44136047363281 200.46432495117188 103.32274627685547 200.8181915283203 66.22603607177734 226.6019744873047" stroke-width="2.0" fill="none" stroke="rgb(0, 0, 0)" stroke-opacity="1" stroke-linecap="round" stroke-linejoin="round"/>
    <path d="M 92.88165283203125 11.35520076751709 C 63.2257080078125 -12.919509887695312 54.07597732543945 -1.601180911064148 22.862163543701172 6.81532096862793 C 68.56336975097656 4.6492085456848145 51.641510009765625 12.885279655456543 77.9459228515625 13.07966136932373" stroke-width="2.0" fill="none" stroke="rgb(0, 0, 0)" stroke-opacity="1" stroke-linecap="round" stroke-linejoin="round"/>
    <path d="M 204.80764770507812 196.62811279296875 C 203.3659210205078 227.35801696777344 201.7948760986328 190.82696533203125 194.1017608642578 219.6497344970703 C 192.54165649414062 200.5823974609375 188.7003173828125 170.01812744140625 180.19583129882812 215.8471221923828" stroke-width="2.0" fill="none" stroke="rgb(0, 0, 0)" stroke-opacity="1" stroke-linecap="round" stroke-linejoin="round"/>
    <path d="M 198.3387451171875 219.4917755126953 C 189.9274139404297 207.48487854003906 199.76478576660156 221.37939453125 222.53005981445312 230.75454711914062 C 213.35911560058594 194.0689697265625 204.56988525390625 173.0763397216797 224.4132843017578 202.6980438232422 C 237.8803253173828 202.2438201904297 251.59844970703125 205.98336791992188 263.0791015625 211.12095642089844" stroke-width="2.0" fill="none" stroke="rgb(0, 0, 0)" stroke-opacity="1" stroke-linecap="round" stroke-linejoin="round"/>
    <path d="M 52.14924240112305 64.41085052490234 C 25.375734329223633 80.48383331298828 28.950607299804688 66.07665252685547 48.75462341308594 64.3415298461914 C 51.66451644897461 64.68299102783203 60.783992767333984 85.4173355102539 47.578460693359375 46.180137634277344" stroke-width="2.0" fill="none" stroke="rgb(0, 0, 0)" stroke-opacity="1" stroke-linecap="round" stroke-linejoin="round"/>
    <path d="M 172.84536743164062 132.92774963378906 C 127.00807189941406 121.36570739746094 126.16442108154297 103.82662200927734 117.22056579589844 98.61958312988281 C 158.24606323242188 137.9112091064453 165.21893310546875 138.7261199951172 142.265625 113.1387939453125 C 123.94580078125 77.7940444946289 122.67668151855469 83.11204528808594 145.84410095214844 104.26339721679688" stroke-width="2.0" fill="none" stroke="rgb(0, 0, 0)" stroke-opacity="1" stroke-linecap="round" stroke-linejoin="round"/>
    <path d="M 231.88795471191406 87.21595001220703 C 228.02784729003906 91.28170013427734 225.81515502929688 110.60199737548828 230.3563232421875 120.39341735839844" stroke-width="2.0" fill="none" stroke="rgb(0, 0, 0)" stroke-opacity="1" stroke-linecap="round" stroke-linejoin="round"/>
    <path d="M 24.11960792541504 100.5374984741211 C 11.962158203125 71.5462646484375 6.177375316619873 55.26688003540039 -11.208287239074707 79.24948120117188" stroke-width="2.0" fill="none" stroke="rgb(0, 0, 0)" stroke-opacity="1" stroke-linecap="round" stroke-linejoin="round"/>
    <path d="M 118.36890411376953 143.66261291503906 C 113.3005142211914 125.8367691040039 97.1413803100586 120.07225036621094 137.280029296875 158.7156219482422" stroke-width="2.0" fill="none" stroke="rgb(0, 0, 0)" stroke-opacity="1" stroke-linecap="round" stroke-linejoin="round"/>
    <path d="M 177.07354736328125 193.80929565429688 C 175.19187927246094 172.46372985839844 194.03726196289062 205.82699584960938 173.53201293945312 216.5585479736328 C 155.79324340820312 227.2525634765625 193.25572204589844 211.2009735107422 168.48330688476562 176.060302734375 C 176.80686950683594 215.88169860839844 147.95166015625 231.88479614257812 160.40493774414062 216.23114013671875" stroke-width="2.0" fill="none" stroke="rgb(0, 0, 0)" stroke-opacity="1" stroke-linecap="round" stroke-linejoin="round"/>
    <path d="M 66.03795623779297 156.85134887695312 C 90.66963958740234 155.1221466064453 64.47285461425781 120.8265380859375 75.66272735595703 145.76068115234375" stroke-width="2.0" fill="none" stroke="rgb(0, 0, 0)" stroke-opacity="1" stroke-linecap="round" stroke-linejoin="round"/>
    <path d="M 42.79176330566406 59.97908401489258 C 6.69331693649292 84.29188537597656 -2.8711583614349365 54.424598693847656 28.07395362854004 53.63792037963867 C 29.759429931640625 67.07257843017578 7.369002342224121 60.58649826049805 22.03392791748047 54.72616195678711" stroke-width="2.0" fill="none" stroke="rgb(0, 0, 0)" stroke-opacity="1" stroke-linecap="round" stroke-linejoin="round"/>
    <path d="M 180.71372985839844 125.82674407958984 C 161.52716064453125 89.18183135986328 169.66517639160156 46.95233917236328 172.75216674804688 83.60945129394531 C 164.28306579589844 82.65928649902344 163.33302307128906 67.87068176269531 178.14442443847656 90.87809753417969 C 203.49288940429688 98.7939682006836 177.6793670654297 53.24502944946289 203.76136779785156 107.54051971435547" stroke-width="2.0" fill="none" stroke="rgb(0, 0, 0)" stroke-opacity="1" stroke-linecap="round" stroke-linejoin="round"/>
    <path d="M 111.23558044433594 13.691278457641602 C 130.42755126953125 20.238624572753906 130.39683532714844 22.02427864074707 96.490478515625 -1.1394989490509033" stroke-width="2.0" fill="none" stroke="rgb(0, 0, 0)" stroke-opacity="1" stroke-linecap="round" stroke-linejoin="round"/>
    <path d="M 28.141029357910156 129.2794647216797 C -1.4296802282333374 103.36772155761719 9.275710105895996 111.85853576660156 7.443009853363037 115.50666809082031 C 6.910301685333252 122.89520263671875 7.868846893310547 130.1296844482422 7.338805198669434 122.492431640625 C 10.541214942932129 146.2701873779297 7.605557441711426 135.00901794433594 9.397515296936035 126.72640228271484" stroke-width="2.0" fill="none" stroke="rgb(0, 0, 0)" stroke-opacity="1" stroke-linecap="round" stroke-linejoin="round"/>
    <path d="M 96.45755004882812 94.21086120605469 C 124.00556182861328 111.702392578125 127.69955444335938 111.25865173339844 113.84481811523438 109.02456665039062 C 121.1412353515625 131.55813598632812 105.16069030761719 107.892822265625 85.98905944824219 88.77313232421875 C 100.4065170288086 88.55189514160156 101.83009338378906 93.86763000488281 72.23738098144531 90.17354583740234" stroke-width="2.0" fill="none" stroke="rgb(0, 0, 0)" stroke-opacity="1" stroke-linecap="round" stroke-linejoin="round"/>
    <path d="M 221.63865661621094 195.73239135742188 C 209.83584594726562 144.41458129882812 210.97683715820312 201.58233642578125 221.64405822753906 168.64254760742188" stroke-width="2.0" fill="none" stroke="rgb(0, 0, 0)" stroke-opacity="1" stroke-linecap="round" stroke-linejoin="round"/>
    <path d="M 175.38027954101562 44.67259216308594 C 147.8196258544922 17.808425903320312 141.5904541015625 -6.332559585571289 127.92292022705078 0.2902969419956207 C 156.44615173339844 34.931121826171875 161.60093688964844 17.9695987701416 133.0240936279297 8.998041152954102 C 106.29867553710938 -14.010226249694824 118.56915283203125 1.5360027551651 141.54220581054688 22.784395217895508" stroke-width="2.0" fill="none" stroke="rgb(0, 0, 0)" stroke-opacity="1" stroke-linecap="round" stroke-linejoin="round"/>
    <path d="M 5.435972690582275 147.92173767089844 C -3.9330639839172363 202.2274932861328 10.508650779724121 222.7932586669922 -3.567643165588379 223.47781372070312 C -14.57874584197998 218.51834106445312 -8.614418029785156 202.11463928222656 -6.845036506652832 195.72000122070312" stroke-width="2.0" fill="none" stroke="rgb(0, 0, 0)" stroke-opacity="1" stroke-linecap="round" stroke-linejoin="round"/>
    <path d="M 5.511387348175049 34.21508026123047 C 18.090967178344727 18.608251571655273 15.076783180236816 15.75418758392334 28.64993667602539 -5.3701701164245605" stroke-width="2.0" fill="none" stroke="rgb(0, 0, 0)" stroke-opacity="1" stroke-linecap="round" stroke-linejoin="round"/>
    <path d="M 16.412076950073242 85.26862335205078 C 29.93267250061035 107.07512664794922 41.54513168334961 107.03260040283203 61.47120666503906 125.76387023925781 C 39.33098602294922 103.22945404052734 38.607025146484375 105.09608459472656 55.84040069580078 139.99127197265625" stroke-width="2.0" fill="none" stroke="rgb(0, 0, 0)" stroke-opacity="1" stroke-linecap="round" stroke-linejoin="round"/>
    <path d="M 214.25350952148438 149.96853637695312 C 186.02212524414062 132.1652069091797 183.03602600097656 136.34735107421875 164.21304321289062 136.83001708984375" stroke-width="2.0" fill="none" stroke="rgb(0, 0, 0)" stroke-opacity="1" stroke-linecap="round" stroke-linejoin="round"/>
    <path d="M 142.3681640625 48.480167388916016 C 181.41183471679688 99.90498352050781 164.6746826171875 66.09268188476562 172.89395141601562 72.37841796875" stroke-width="2.0" fill="none" stroke="rgb(0, 0, 0)" stroke-opacity="1" stroke-linecap="round" stroke-linejoin="round"/>
    <path d="M 65.08853149414062 90.10260009765625 C 119.71424102783203 128.86126708984375 62.11425018310547 97.7117691040039 79.33599853515625 119.21516418457031" stroke-width="2.0" fill="none" stroke="rgb(0, 0, 0)" stroke-opacity="1" stroke-linecap="round" stroke-linejoin="round"/>
    <path d="M 108.5962142944336 161.97894287109375 C 103.44326782226562 130.34512329101562 90.46208190917969 128.0068359375 69.5228271484375 122.6709213256836 C 102.95883178710938 121.91971588134766 79.27388763427734 138.26959228515625 75.90020751953125 112.20046997070312" stroke-width="2.0" fill="none" stroke="rgb(0, 0, 0)" stroke-opacity="1" stroke-linecap="round" stroke-linejoin="round"/>
    <path d="M 163.60537719726562 17.49101448059082 C 141.16090393066406 -11.256552696228027 122.54759979248047 -1.7252141237258911 142.03749084472656 4.851664066314697 C 162.1641845703125 15.644352912902832 166.0054473876953 8.423954963684082 189.32882690429688 40.13499450683594" stroke-width="2.0" fill="none" stroke="rgb(0, 0, 0)" stroke-opacity="1" stroke-linecap="round" stroke-linejoin="round"/>
    <path d="M 56.91044998168945 200.12106323242188 C 77.85652160644531 198.6748809814453 86.31437683105469 186.96202087402344 75.04619598388672 200.36392211914062" stroke-width="2.0" fill="none" stroke="rgb(0, 0, 0)" stroke-opacity="1" stroke-linecap="round" stroke-linejoin="round"/>
    <path d="M 229.5644073486328 63.731319427490234 C 238.9987335205078 78.97372436523438 240.51324462890625 72.11029815673828 250.56674194335938 73.54403686523438 C 251.63369750976562 75.25007629394531 257.0378112792969 77.3316421508789 256.85980224609375 81.46196746826172" stroke-width="2.0" fill="none" stroke="rgb(0, 0, 0)" stroke-opacity="1" stroke-linecap="round" stroke-linejoin="round"/>
    <path d="M 189.06068420410156 139.2812042236328 C 162.655517578125 127.96146392822266 169.62030029296875 142.4007110595703 144.5375518798828 129.7269744873047" stroke-width="2.0" fill="none" stroke="rgb(0, 0, 0)" stroke-opacity="1" stroke-linecap="round" stroke-linejoin="round"/>
    <path d="M 106.99205780029297 15.131031036376953 C 101.06947326660156 17.763526916503906 81.68897247314453 25.980300903320312 73.6635971069336 33.8665771484375 C 113.37512969970703 29.90618324279785 123.07928466796875 55.99868392944336 90.68733978271484 30.0278377532959" stroke-width="2.0" fill="none" stroke="rgb(0, 0, 0)" stroke-opacity="1" stroke-linecap="round" stroke-linejoin="round"/>
    <path d="M -5.035958290100098 74.6772689819336 C -11.816848754882812 62.738285064697266 -19.846843719482422 71.27458190917969 -25.050628662109375 81.47073364257812 C -6.198693752288818 76.05194091796875 5.29818058013916 71.14884948730469 10.256086349487305 93.59888458251953 C 8.185333251953125 93.69967651367188 7.075888633728027 82.01078033447266 -13.000065803527832 74.34857940673828" stroke-width="2.0" fill="none" stroke="rgb(0, 0, 0)" stroke-opacity="1" stroke-linecap="round" stroke-linejoin="round"/>
    <path d="M 136.7998504638672 128.86500549316406 C 145.68276977539062 130.5346221923828 141.27114868164062 143.6735076904297 131.56117248535156 116.91445922851562 C 134.68865966796875 129.00140380859375 176.2794189453125 145.21092224121094 157.39764404296875 145.84584045410156" stroke-width="2.0" fill="none" stroke="rgb(0, 0, 0)" stroke-opacity="1" stroke-linecap="round" stroke-linejoin="round"/>
    <path d="M 56.90797424316406 194.2392578125 C 30.78608512878418 226.503662109375 18.380022048950195 229.3097686767578 0.7356404066085815 229.71424865722656" stroke-width="2.0" fill="none" stroke="rgb(0, 0, 0)" stroke-opacity="1" stroke-linecap="round" stroke-linejoin="round"/>
    <path d="M 217.57489013671875 162.4577178955078 C 224.15892028808594 154.0082244873047 209.86447143554688 172.73680114746094 198.0921630859375 169.83358764648438 C 183.32786560058594 167.47103881835938 203.95394897460938 168.9990234375 201.7327117919922 189.75132751464844" stroke-width="2.0" fill="none" stroke="rgb(0, 0, 0)" stroke-opacity="1" stroke-linecap="round" stroke-linejoin="round"/>
    <path d="M 43.70663833618164 28.92201805114746 C 37.78852081298828 48.423831939697266 42.25493621826172 55.661399841308594 46.96621322631836 66.44664001464844 C 38.49384689331055 70.03082275390625 39.56416320800781 59.015682220458984 70.13218688964844 70.43620300292969 C 35.39006042480469 74.57167053222656 60.165775299072266 85.97808074951172 49.263336181640625 48.5881462097168" stroke-width="2.0" fill="none" stroke="rgb(0, 0, 0)" stroke-opacity="1" stroke-linecap="round" stroke-linejoin="round"/>
    <path d="M 58.04540252685547 209.5095977783203 C 16.54355812072754 231.0169219970703 39.6171875 226.87704467773438 46.643959045410156 214.8169403076172 C 42.03643035888672 218.1361846923828 40.9214973449707 220.69529724121094 61.58607482910156 203.85365295410156" stroke-width="2.0" fill="none" stroke="rgb(0, 0, 0)" stroke-opacity="1" stroke-linecap="round" stroke-linejoin="round"/>
    <path d="M 155.8972625732422 0.22775526344776154 C 176.6107177734375 18.91183090209961 168.89993286132812 17.18659019470215 168.64170837402344 14.600486755371094 C 163.45225524902344 6.471550941467285 182.97764587402344 25.764482498168945 170.2145233154297 16.054933547973633" stroke-width="2.0" fill="none" stroke="rgb(0, 0, 0)" stroke-opacity="1" stroke-linecap="round" stroke-linejoin="round"/>
    <path d="M 203.53053283691406 108.95497131347656 C 214.9759979248047 151.16085815429688 223.8577117919922 148.9146728515625 231.2559051513672 165.53866577148438 C 219.2938232421875 151.87806701660156 220.9496612548828 123.03842163085938 195.825439453125 105.67607116699219" stroke-width="2.0" fill="none" stroke="rgb(0, 0, 0)" stroke-opacity="1" stroke-linecap="round" stroke-linejoin="round"/>
    <path d="M 17.907419204711914 136.89303588867188 C 37.25080490112305 146.04122924804688 7.316496849060059 159.56564331054688 33.78120040893555 154.7598114013672" stroke-width="2.0" fill="none" stroke="rgb(0, 0, 0)" stroke-opacity="1" stroke-linecap="round" stroke-linejoin="round"/>
    <path d="M 107.33715057373047 51.47318649291992 C 110.23432159423828 80.00334167480469 134.32937622070312 75.05655670166016 133.19656372070312 85.21221923828125 C 115.57782745361328 38.149208068847656 129.89183044433594 71.98998260498047 136.53976440429688 73.52204132080078 C 141.01812744140625 78.7615737915039 135.260498046875 110.95511627197266 88.07220458984375 94.95987701416016" stroke-width="2.0" fill="none" stroke="rgb(0, 0, 0)" stroke-opacity="1" stroke-linecap="round" stroke-linejoin="round"/>
    <path d="M 52.42231369018555 12.584056854248047 C 26.73101234436035 10.562832832336426 50.4096565246582 7.270064830780029 12.95627498626709 28.257312774658203 C 22.52541160583496 9.525390625 16.73811912536621 27.555805206298828 6.722603797912598 67.8886947631836" stroke-width="2.0" fill="none" stroke="rgb(0, 0, 0)" stroke-opacity="1" stroke-linecap="round" stroke-linejoin="round"/>
    <path d="M 90.4402847290039 107.9965591430664 C 88.35774993896484 140.16859436035156 96.50348663330078 139.65907287597656 74.09368133544922 108.9871597290039" stroke-width="2.0" fill="none" stroke="rgb(0, 0, 0)" stroke-opacity="1" stroke-linecap="round" stroke-linejoin="round"/>
    <path d="M 155.71481323242188 209.4356689453125 C 151.97239685058594 176.38955688476562 148.47811889648438 180.81077575683594 149.7156219482422 204.98886108398438 C 140.00909423828125 186.475830078125 117.97972106933594 198.61251831054688 121.03022766113281 180.2567596435547 C 129.99966430664062 186.43258666992188 110.28231811523438 193.25965881347656 100.24820709228516 157.69918823242188" stroke-width="2.0" fill="none" stroke="rgb(0, 0, 0)" stroke-opacity="1" stroke-linecap="round" stroke-linejoin="round"/>
    <path d="M 125.90321350097656 134.22044372558594 C 136.99171447753906 173.4910125732422 148.2720947265625 215.41290283203125 133.3166961669922 191.25018310546875 C 99.53440856933594 187.71726989746094 134.3950653076172 187.55288696289062 116.71258544921875 182.65245056152344 C 138.1020965576172 213.797119140625 138.3255615234375 211.2129364013672 120.01860809326172 205.4703826904297" stroke-width="2.0" fill="none" stroke="rgb(0, 0, 0)" stroke-opacity="1" stroke-linecap="round" stroke-linejoin="round"/>
    <path d="M 10.413802146911621 31.041553497314453 C 3.0832905769348145 98.449951171875 -11.407929420471191 76.5201187133789 3.3431270122528076 62.52443313598633 C 17.482999801635742 51.616539001464844 -0.1929389238357544 61.92639923095703 15.622613906860352 92.90975189208984" stroke-width="2.0" fill="none" stroke="rgb(0, 0, 0)" stroke-opacity="1" stroke-linecap="round" stroke-linejoin="round"/>
    <path d="M 197.5997772216797 118.27375793457031 C 220.46298217773438 162.38919067382812 220.92372131347656 156.58575439453125 231.10850524902344 156.7113800048828 C 216.7267608642578 139.81417846679688 222.2588653564453 150.27334594726562 229.89779663085938 152.00491333007812 C 232.97366333007812 136.48927307128906 233.03271484375 146.70387268066406 240.16383361816406 151.48545837402344" stroke-width="2.0" fill="none" stroke="rgb(0, 0, 0)" stroke-opacity="1" stroke-linecap="round" stroke-linejoin="round"/>
    <path d="M 19.49877166748047 193.84625244140625 C 17.8853702545166 190.82577514648438 41.47844314575195 176.00746154785156 40.44428253173828 149.7779541015625 C 29.30733299255371 144.4438934326172 37.58241653442383 172.49977111816406 8.614134788513184 206.01148986816406 C 32.546669006347656 199.1996612548828 20.90755844116211 198.9612579345703 69.55046844482422 181.43736267089844" stroke-width="2.0" fill="none" stroke="rgb(0, 0, 0)" stroke-opacity="1" stroke-linecap="round" stroke-linejoin="round"/>
    <path d="M 214.91683959960938 151.72415161132812 C 186.8484344482422 151.90048217773438 231.93991088867188 164.27468872070312 198.65036010742188 169.30462646484375 C 212.88648986816406 174.65489196777344 197.97964477539062 183.37823486328125 218.8765106201172 194.0646514892578 C 202.64593505859375 183.01397705078125 213.4369354248047 206.03128051757812 237.3441925048828 217.31605529785156" stroke-width="2.0" fill="none" stroke="rgb(0, 0, 0)" stroke-opacity="1" stroke-linecap="round" stroke-linejoin="round"/>
    <path d="M 51.9885368347168 106.01760864257812 C 76.30766296386719 167.81028747558594 72.87783813476562 149.4547882080078 45.799217224121094 133.24693298339844 C 37.623146057128906 135.5113067626953 32.619075775146484 127.51893615722656 16.633464813232422 100.73784637451172" stroke-width="2.0" fill="none" stroke="rgb(0, 0, 0)" stroke-opacity="1" stroke-linecap="round" stroke-linejoin="round"/>
    <path d="M 206.353271484375 131.69908142089844 C 180.56201171875 77.3951644897461 187.5155029296875 52.66337585449219 202.0207977294922 110.07050323486328" stroke-width="2.0" fill="none" stroke="rgb(0, 0, 0)" stroke-opacity="1" stroke-linecap="round" stroke-linejoin="round"/>
    <path d="M 180.39060974121094 66.25748443603516 C 180.92481994628906 94.87066650390625 184.80360412597656 102.76258850097656 197.2518768310547 127.06763458251953 C 184.04798889160156 104.02214050292969 185.31883239746094 110.38540649414062 206.0158233642578 145.28904724121094 C 203.5994415283203 148.50765991210938 179.2227325439453 133.08470153808594 160.438720703125 100.40592193603516" stroke-width="2.0" fill="none" stroke="rgb(0, 0, 0)" stroke-opacity="1" stroke-linecap="round" stroke-linejoin="round"/>
    <path d="M 92.83235931396484 15.583762168884277 C 65.19445037841797 35.20176315307617 82.61408233642578 36.38644027709961 123.70670318603516 30.129638671875 C 61.729312896728516 22.861175537109375 73.70404052734375 34.21617889404297 90.04237365722656 45.151981353759766" stroke-width="2.0" fill="none" stroke="rgb(0, 0, 0)" stroke-opacity="1" stroke-linecap="round" stroke-linejoin="round"/>
    <path d="M 112.84976959228516 112.71969604492188 C 125.8397216796875 137.07005310058594 128.96864318847656 134.07550048828125 169.4464569091797 135.23712158203125 C 148.01397705078125 134.1868896484375 169.3973846435547 134.65182495117188 192.94168090820312 147.41026306152344" stroke-width="2.0" fill="none" stroke="rgb(0, 0, 0)" stroke-opacity="1" stroke-linecap="round" stroke-linejoin="round"/>
    <path d="M 96.04296875 40.588905334472656 C 95.24458312988281 35.045841217041016 111.6988754272461 55.629798889160156 80.57276153564453 29.28504180908203 C 159.13009643554688 47.237483978271484 99.49998474121094 31.727359771728516 123.46483612060547 33.432899475097656 C 109.4712905883789 38.36737823486328 115.99055480957031 23.14474868774414 135.71688842773438 41.884307861328125" stroke-width="2.0" fill="none" stroke="rgb(0, 0, 0)" stroke-opacity="1" stroke-linecap="round" stroke-linejoin="round"/>
    <path d="M 73.39459228515625 75.31847381591797 C 108.83965301513672 78.44903564453125 102.49032592773438 99.69670867919922 126.53289031982422 102.84760284423828 C 109.98609161376953 92.43013000488281 101.84644317626953 82.56283569335938 135.52474975585938 101.29005432128906 C 156.0446319580078 104.58050537109375 156.29183959960938 124.60023498535156 141.99920654296875 70.70228576660156" stroke-width="2.0" fill="none" stroke="rgb(0, 0, 0)" stroke-opacity="1" stroke-linecap="round" stroke-linejoin="round"/>
    <path d="M 63.80171203613281 98.5489730834961 C 80.93191528320312 165.7742462158203 112.5311279296875 169.38967895507812 90.02281188964844 125.75159454345703" stroke-width="2.0" fill="none" stroke="rgb(0, 0, 0)" stroke-opacity="1" stroke-linecap="round" stroke-linejoin="round"/>
    <path d="M 101.60183715820312 11.675020217895508 C 69.10494232177734 -11.355729103088379 67.98747253417969 -4.417051792144775 54.077178955078125 -18.922700881958008 C 42.495670318603516 -15.286075592041016 38.764122009277344 -10.921355247497559 31.126436233520508 -20.47073745727539 C 28.145050048828125 -8.174408912658691 25.533836364746094 -17.716014862060547 14.491308212280273 -18.50821304321289" stroke-width="2.0" fill="none" stroke="rgb(0, 0, 0)" stroke-opacity="1" stroke-linecap="round" stroke-linejoin="round"/>
    <path d="M 130.9090576171875 24.22616195678711 C 122.93720245361328 19.570287704467773 102.6977767944336 21.740989685058594 123.17150115966797 18.67026710510254 C 117.56753540039062 14.677046775817871 105.52216339111328 21.887245178222656 93.78776550292969 27.309490203857422 C 131.76834106445312 23.335702896118164 122.06200408935547 9.791543006896973 157.10382080078125 53.76775360107422" stroke-width="2.0" fill="none" stroke="rgb(0, 0, 0)" stroke-opacity="1" stroke-linecap="round" stroke-linejoin="round"/>
    <path d="M 141.51954650878906 77.27812194824219 C 166.59292602539062 106.5417251586914 134.64015197753906 89.57279968261719 128.87486267089844 73.36671447753906" stroke-width="2.0" fill="none" stroke="rgb(0, 0, 0)" stroke-opacity="1" stroke-linecap="round" stroke-linejoin="round"/>
    <path d="M 112.1788330078125 149.85264587402344 C 129.83494567871094 165.69827270507812 123.0547866821289 181.85032653808594 140.76515197753906 197.27902221679688 C 145.6766357421875 189.51211547851562 139.97303771972656 185.32296752929688 133.076171875 171.0425567626953" stroke-width="2.0" fill="none" stroke="rgb(0, 0, 0)" stroke-opacity="1" stroke-linecap="round" stroke-linejoin="round"/>
    <path d="M 87.81775665283203 66.78898620605469 C 112.1574935913086 91.84783935546875 115.4385757446289 101.08643341064453 98.11132049560547 63.28176498413086 C 125.64228057861328 99.43268585205078 88.20001983642578 78.69725799560547 66.84888458251953 89.15653228759766" stroke-width="2.0" fill="none" stroke="rgb(0, 0, 0)" stroke-opacity="1" stroke-linecap="round" stroke-linejoin="round"/>
    <path d="M 31.7669620513916 210.88900756835938 C -14.129839897155762 232.42767333984375 15.696343421936035 224.73931884765625 -1.0840312242507935 206.67527770996094 C -3.830641746520996 190.45318603515625 -8.62045955657959 192.97335815429688 -15.1142578125 195.06503295898438" stroke-width="2.0" fill="none" stroke="rgb(0, 0, 0)" stroke-opacity="1" stroke-linecap="round" stroke-linejoin="round"/>
    <path d="M 158.1846466064453 183.47108459472656 C 150.98558044433594 168.49771118164062 159.93663024902344 206.52381896972656 162.9474334716797 194.20018005371094 C 156.04942321777344 204.4237518310547 174.53526306152344 181.7783660888672 148.7317352294922 153.32086181640625 C 164.0775146484375 195.7032470703125 157.15858459472656 202.16880798339844 147.7423553466797 155.08541870117188" stroke-width="2.0" fill="none" stroke="rgb(0, 0, 0)" stroke-opacity="1" stroke-linecap="round" stroke-linejoin="round"/>
    <path d="M 177.59039306640625 36.64403533935547 C 144.58071899414062 -0.4429830014705658 145.16574096679688 -6.970396041870117 137.5126953125 -12.005085945129395" stroke-width="2.0" fill="none" stroke="rgb(0, 0, 0)" stroke-opacity="1" stroke-linecap="round" stroke-linejoin="round"/>
    <path d="M 64.18588256835938 151.22935485839844 C 79.41259765625 157.7760467529297 61.47040557861328 121.67121887207031 58.82939529418945 125.14885711669922 C 46.282470703125 95.1479263305664 67.26688385009766 112.3373794555664 67.97301483154297 150.20660400390625 C 61.746742248535156 142.3518829345703 57.733516693115234 156.8250274658203 38.20841979980469 133.51255798339844" stroke-width="2.0" fill="none" stroke="rgb(0, 0, 0)" stroke-opacity="1" stroke-linecap="round" stroke-linejoin="round"/>
    <path d="M 105.69493865966797 14.549860954284668 C 91.51445007324219 17.729318618774414 95.38482666015625 15.487580299377441 76.73819732666016 31.74583625793457 C 96.94569396972656 31.330976486206055 97.48916625976562 20.651168823242188 107.9186019897461 15.778095245361328" stroke-width="2.0" fill="none" stroke="rgb(0, 0, 0)" stroke-opacity="1" stroke-linecap="round" stroke-linejoin="round"/>
    <path d="M 50.425697326660156 88.83334350585938 C 47.411678314208984 79.35128784179688 71.10420989990234 145.28944396972656 37.079524993896484 76.03060150146484" stroke-width="2.0" fill="none" stroke="rgb(0, 0, 0)" stroke-opacity="1" stroke-linecap="round" stroke-linejoin="round"/>
    <path d="M 47.40431594848633 178.6634521484375 C 32.35051727294922 195.27308654785156 75.83570861816406 179.75286865234375 41.705081939697266 185.96453857421875 C 30.843536376953125 185.4051055908203 74.26921844482422 177.79205322265625 71.78258514404297 164.76025390625" stroke-width="2.0" fill="none" stroke="rgb(0, 0, 0)" stroke-opacity="1" stroke-linecap="round" stroke-linejoin="round"/>
    <path d="M 7.867456912994385 125.50931549072266 C 8.018218994140625 135.21331787109375 8.730173110961914 145.8902130126953 8.8560152053833 120.29302978515625 C 19.086841583251953 131.1036376953125 9.829673767089844 127.31948852539062 9.842897415161133 123.87847137451172" stroke-width="2.0" fill="none" stroke="rgb(0, 0, 0)" stroke-opacity="1" stroke-linecap="round" stroke-linejoin="round"/>
    <path d="M 34.77016067504883 27.92108917236328 C 39.870689392089844 5.897277355194092 69.30420684814453 6.520031929016113 43.26564407348633 21.582021713256836 C 53.95478439331055 5.684527397155762 92.25568389892578 20.713409423828125 48.36320877075195 13.487295150756836 C 32.60930633544922 8.964544296264648 26.80768585205078 -2.0698955059051514 24.391857147216797 -12.419227600097656" stroke-width="2.0" fill="none" stroke="rgb(0, 0, 0)" stroke-opacity="1" stroke-linecap="round" stroke-linejoin="round"/>
    <path d="M 104.4483642578125 111.16163635253906 C 94.40130615234375 96.14940643310547 66.7579345703125 98.62694549560547 87.54638671875 88.16551971435547 C 106.48058319091797 101.74027252197266 87.45573425292969 101.60552978515625 63.83424377441406 47.626800537109375" stroke-width="2.0" fill="none" stroke="rgb(0, 0, 0)" stroke-opacity="1" stroke-linecap="round" stroke-linejoin="round"/>
    <path d="M 157.17149353027344 36.9504280090332 C 131.18365478515625 3.0166122913360596 128.80789184570312 10.394024848937988 172.7460479736328 33.54389190673828" stroke-width="2.0" fill="none" stroke="rgb(0, 0, 0)" stroke-opacity="1" stroke-linecap="round" stroke-linejoin="round"/>
    <path d="M 81.68900299072266 195.0707244873047 C 67.3516616821289 184.58575439453125 74.92754364013672 187.22662353515625 49.25286865234375 198.3115234375 C 52.56340026855469 187.68063354492188 92.6773452758789 191.72702026367188 70.6604995727539 192.7862091064453" stroke-width="2.0" fill="none" stroke="rgb(0, 0, 0)" stroke-opacity="1" stroke-linecap="round" stroke-linejoin="round"/>
    <path d="M 132.95237731933594 158.8602752685547 C 148.6488494873047 194.37278747558594 161.5348358154297 203.39549255371094 138.70375061035156 168.0272216796875 C 124.78691864013672 147.17164611816406 134.59681701660156 127.9747085571289 137.8057403564453 185.20721435546875 C 115.11994171142578 142.9035186767578 121.89994049072266 124.34495544433594 127.0811767578125 174.40692138671875" stroke-width="2.0" fill="none" stroke="rgb(0, 0, 0)" stroke-opacity="1" stroke-linecap="round" stroke-linejoin="round"/>
    <path d="M 76.74305725097656 156.1516876220703 C 77.29072570800781 140.5327606201172 70.38704681396484 125.9271011352539 83.25669860839844 149.40045166015625 C 85.97463989257812 151.5438232421875 81.087646484375 181.5830841064453 74.31661224365234 151.61746215820312" stroke-width="2.0" fill="none" stroke="rgb(0, 0, 0)" stroke-opacity="1" stroke-linecap="round" stroke-linejoin="round"/>
    <path d="M 105.90628814697266 144.87713623046875 C 100.19497680664062 112.69302368164062 85.48961639404297 123.95208740234375 104.97012329101562 114.60887908935547 C 83.61219787597656 110.01107788085938 119.34805297851562 109.28459167480469 92.68297576904297 117.20298767089844" stroke-width="2.0" fill="none" stroke="rgb(0, 0, 0)" stroke-opacity="1" stroke-linecap="round" stroke-linejoin="round"/>
  </g>
</svg>
