<?xml version="1.0" ?>
<svg xmlns="http://www.w3.org/2000/svg" version="1.1" width="224" height="224">
  <defs/>
  <g>
    <path d="M 167.5260467529297 136.62246704101562 C 120.65559387207031 167.07275390625 161.10662841796875 144.97178649902344 144.19418334960938 136.48606872558594 C 151.64503479003906 161.164306640625 157.99404907226562 134.90005493164062 162.89430236816406 159.93182373046875" stroke-width="2.0" fill="none" stroke="rgb(0, 0, 0)" stroke-opacity="1" stroke-linecap="round" stroke-linejoin="round"/>
    <path d="M 232.69749450683594 140.95545959472656 C 183.69297790527344 129.6470947265625 220.4522705078125 136.78109741210938 231.04208374023438 137.35012817382812 C 183.18174743652344 134.4957733154297 233.09298706054688 128.40162658691406 220.15589904785156 142.2671356201172" stroke-width="2.0" fill="none" stroke="rgb(0, 0, 0)" stroke-opacity="1" stroke-linecap="round" stroke-linejoin="round"/>
    <path d="M 159.25648498535156 140.0760955810547 C 182.5286865234375 127.45325469970703 177.15359497070312 137.1541290283203 154.2686004638672 102.28206634521484 C 170.74327087402344 80.85215759277344 197.4136199951172 138.5953826904297 191.90704345703125 141.80714416503906 C 165.35385131835938 111.57514190673828 182.19863891601562 114.63571166992188 141.56271362304688 136.68820190429688" stroke-width="2.0" fill="none" stroke="rgb(0, 0, 0)" stroke-opacity="1" stroke-linecap="round" stroke-linejoin="round"/>
    <path d="M 174.77761840820312 158.12583923339844 C 157.32386779785156 168.2103271484375 186.9953155517578 134.23974609375 185.15560913085938 142.55264282226562 C 189.13731384277344 133.54061889648438 185.64169311523438 127.08514404296875 193.6015167236328 153.61776733398438" stroke-width="2.0" fill="none" stroke="rgb(0, 0, 0)" stroke-opacity="1" stroke-linecap="round" stroke-linejoin="round"/>
    <path d="M 86.71647644042969 45.66838836669922 C 101.84693908691406 51.05277633666992 85.52526092529297 41.29756546020508 80.82489776611328 49.50390625" stroke-width="2.0" fill="none" stroke="rgb(0, 0, 0)" stroke-opacity="1" stroke-linecap="round" stroke-linejoin="round"/>
    <path d="M 158.35633850097656 191.41395568847656 C 167.9962158203125 227.65768432617188 157.1454315185547 208.47329711914062 157.4173126220703 184.20870971679688 C 151.1023712158203 200.11801147460938 148.75953674316406 185.0245361328125 160.8364715576172 178.740966796875" stroke-width="2.0" fill="none" stroke="rgb(0, 0, 0)" stroke-opacity="1" stroke-linecap="round" stroke-linejoin="round"/>
    <path d="M 155.11807250976562 219.80091857910156 C 131.20828247070312 219.1209716796875 161.84103393554688 223.2388458251953 153.07614135742188 219.94247436523438 C 103.18756103515625 207.0880889892578 102.83821868896484 238.23353576660156 140.1632843017578 234.5413055419922" stroke-width="2.0" fill="none" stroke="rgb(0, 0, 0)" stroke-opacity="1" stroke-linecap="round" stroke-linejoin="round"/>
    <path d="M 195.7786865234375 103.4363021850586 C 184.30264282226562 118.43502044677734 189.66281127929688 85.50302124023438 218.2563018798828 89.84830474853516" stroke-width="2.0" fill="none" stroke="rgb(0, 0, 0)" stroke-opacity="1" stroke-linecap="round" stroke-linejoin="round"/>
    <path d="M 186.76585388183594 112.13423156738281 C 198.86375427246094 79.45299530029297 178.64122009277344 77.17992401123047 165.43492126464844 74.62451171875 C 174.3119659423828 85.19892883300781 124.63396453857422 89.43399810791016 155.44219970703125 99.51801300048828" stroke-width="2.0" fill="none" stroke="rgb(0, 0, 0)" stroke-opacity="1" stroke-linecap="round" stroke-linejoin="round"/>
    <path d="M 158.6035614013672 30.38658332824707 C 165.2544403076172 35.90861892700195 208.84295654296875 20.82708740234375 212.80792236328125 37.445716857910156" stroke-width="2.0" fill="none" stroke="rgb(0, 0, 0)" stroke-opacity="1" stroke-linecap="round" stroke-linejoin="round"/>
    <path d="M 100.86507415771484 187.6785125732422 C 92.51329803466797 155.3455352783203 121.82218170166016 198.38894653320312 115.80506134033203 156.50033569335938" stroke-width="2.0" fill="none" stroke="rgb(0, 0, 0)" stroke-opacity="1" stroke-linecap="round" stroke-linejoin="round"/>
    <path d="M -18.21798324584961 153.1252899169922 C -9.30435562133789 157.4591827392578 9.942855834960938 146.616943359375 4.693808555603027 163.7503662109375 C 0.44464609026908875 174.07875061035156 -1.0570838451385498 160.97190856933594 1.7815200090408325 151.17333984375" stroke-width="2.0" fill="none" stroke="rgb(0, 0, 0)" stroke-opacity="1" stroke-linecap="round" stroke-linejoin="round"/>
    <path d="M 65.33926391601562 167.4491424560547 C 67.14934539794922 189.0567169189453 73.48155975341797 186.43453979492188 65.5392074584961 174.97183227539062" stroke-width="2.0" fill="none" stroke="rgb(0, 0, 0)" stroke-opacity="1" stroke-linecap="round" stroke-linejoin="round"/>
    <path d="M 159.02806091308594 122.78016662597656 C 159.62979125976562 107.48218536376953 137.8676300048828 119.91757202148438 162.25904846191406 131.77090454101562" stroke-width="2.0" fill="none" stroke="rgb(0, 0, 0)" stroke-opacity="1" stroke-linecap="round" stroke-linejoin="round"/>
    <path d="M -22.636295318603516 87.44673919677734 C 8.80270004272461 78.34347534179688 20.690380096435547 69.3015365600586 -5.3906426429748535 86.1069107055664 C 7.15495491027832 89.63561248779297 -16.331953048706055 81.7547836303711 -12.049694061279297 75.26676940917969" stroke-width="2.0" fill="none" stroke="rgb(0, 0, 0)" stroke-opacity="1" stroke-linecap="round" stroke-linejoin="round"/>
    <path d="M 143.7821502685547 79.12387084960938 C 152.74473571777344 83.841796875 130.25833129882812 79.66727447509766 151.7209930419922 50.568511962890625" stroke-width="2.0" fill="none" stroke="rgb(0, 0, 0)" stroke-opacity="1" stroke-linecap="round" stroke-linejoin="round"/>
    <path d="M 148.45777893066406 119.49090576171875 C 164.46397399902344 144.88690185546875 176.84658813476562 155.07305908203125 161.80580139160156 154.73947143554688 C 165.03677368164062 161.9298095703125 172.80416870117188 138.69134521484375 184.6717529296875 162.46238708496094 C 173.24920654296875 150.25880432128906 188.0036163330078 122.90657043457031 192.48208618164062 157.0715789794922" stroke-width="2.0" fill="none" stroke="rgb(0, 0, 0)" stroke-opacity="1" stroke-linecap="round" stroke-linejoin="round"/>
    <path d="M 81.25421905517578 94.75237274169922 C 70.10780334472656 108.3631820678711 58.28855895996094 53.60569381713867 97.51121520996094 111.8804702758789" stroke-width="2.0" fill="none" stroke="rgb(0, 0, 0)" stroke-opacity="1" stroke-linecap="round" stroke-linejoin="round"/>
    <path d="M 106.10769653320312 55.30165481567383 C 109.39334869384766 -3.514435052871704 86.41983795166016 52.856510162353516 103.26103210449219 34.79823684692383" stroke-width="2.0" fill="none" stroke="rgb(0, 0, 0)" stroke-opacity="1" stroke-linecap="round" stroke-linejoin="round"/>
    <path d="M 173.76412963867188 33.05656814575195 C 168.78050231933594 8.20244312286377 153.52613830566406 -1.4005192518234253 167.50999450683594 -5.391073703765869" stroke-width="2.0" fill="none" stroke="rgb(0, 0, 0)" stroke-opacity="1" stroke-linecap="round" stroke-linejoin="round"/>
    <path d="M 125.51020050048828 155.76611328125 C 108.54503631591797 124.25910186767578 110.91889190673828 139.20742797851562 130.98074340820312 125.00330352783203 C 105.03134155273438 138.239013671875 118.56312561035156 137.22621154785156 143.09950256347656 118.15872192382812 C 146.52682495117188 124.38090515136719 132.5789337158203 94.11254119873047 143.9019317626953 126.44369506835938" stroke-width="2.0" fill="none" stroke="rgb(0, 0, 0)" stroke-opacity="1" stroke-linecap="round" stroke-linejoin="round"/>
    <path d="M 228.2742156982422 144.35296630859375 C 237.8573760986328 120.3155288696289 189.12045288085938 121.50477600097656 198.6927032470703 137.79493713378906 C 176.49948120117188 205.62265014648438 207.09283447265625 140.9903106689453 204.42112731933594 200.8714599609375" stroke-width="2.0" fill="none" stroke="rgb(0, 0, 0)" stroke-opacity="1" stroke-linecap="round" stroke-linejoin="round"/>
    <path d="M 88.57144165039062 2.371347665786743 C 136.09251403808594 15.581616401672363 172.65890502929688 31.126794815063477 117.95790100097656 15.485543251037598 C 121.11482238769531 42.685184478759766 97.729736328125 7.256265640258789 96.52375030517578 30.278831481933594 C 165.63900756835938 17.89027976989746 111.0035629272461 22.881208419799805 132.21359252929688 43.298526763916016" stroke-width="2.0" fill="none" stroke="rgb(0, 0, 0)" stroke-opacity="1" stroke-linecap="round" stroke-linejoin="round"/>
    <path d="M 133.87420654296875 100.9274673461914 C 140.0935516357422 119.83098602294922 158.7395782470703 83.30610656738281 165.01272583007812 95.2591781616211 C 162.18458557128906 94.26095581054688 161.76463317871094 80.52201080322266 150.90585327148438 87.84769439697266 C 165.6277618408203 95.618408203125 154.36520385742188 108.7055435180664 172.51632690429688 96.81519317626953" stroke-width="2.0" fill="none" stroke="rgb(0, 0, 0)" stroke-opacity="1" stroke-linecap="round" stroke-linejoin="round"/>
    <path d="M 27.926700592041016 231.01051330566406 C 29.876039505004883 231.923828125 26.904796600341797 236.27908325195312 24.69236183166504 231.9766845703125" stroke-width="2.0" fill="none" stroke="rgb(0, 0, 0)" stroke-opacity="1" stroke-linecap="round" stroke-linejoin="round"/>
    <path d="M 58.092857360839844 -2.642529249191284 C 83.9595947265625 -17.019142150878906 78.14207458496094 -3.909510612487793 69.49028778076172 -16.06344223022461 C 69.5868148803711 -10.327259063720703 68.36125183105469 4.729745388031006 74.70283508300781 -5.338816165924072" stroke-width="2.0" fill="none" stroke="rgb(0, 0, 0)" stroke-opacity="1" stroke-linecap="round" stroke-linejoin="round"/>
    <path d="M -15.010750770568848 183.5054931640625 C -1.2691493034362793 185.92137145996094 -10.683659553527832 180.01513671875 -19.20683479309082 183.4936065673828 C -5.093318939208984 190.8863525390625 -6.211997032165527 199.56466674804688 -5.173152446746826 193.0666961669922" stroke-width="2.0" fill="none" stroke="rgb(0, 0, 0)" stroke-opacity="1" stroke-linecap="round" stroke-linejoin="round"/>
    <path d="M 140.83175659179688 159.9466552734375 C 147.4088134765625 202.07809448242188 151.44570922851562 160.19412231445312 141.89439392089844 151.75006103515625 C 130.96559143066406 170.03717041015625 134.32540893554688 183.55528259277344 124.1528549194336 149.75906372070312 C 136.0533447265625 122.39836120605469 143.3072509765625 203.99655151367188 146.05943298339844 176.69688415527344" stroke-width="2.0" fill="none" stroke="rgb(0, 0, 0)" stroke-opacity="1" stroke-linecap="round" stroke-linejoin="round"/>
    <path d="M 192.85206604003906 30.36528968811035 C 188.0313720703125 6.857004165649414 184.2322235107422 -4.286421298980713 171.731201171875 -5.465704441070557" stroke-width="2.0" fill="none" stroke="rgb(0, 0, 0)" stroke-opacity="1" stroke-linecap="round" stroke-linejoin="round"/>
    <path d="M 101.60786437988281 174.94532775878906 C 101.75625610351562 196.84986877441406 138.54537963867188 191.19747924804688 109.21044158935547 195.19175720214844" stroke-width="2.0" fill="none" stroke="rgb(0, 0, 0)" stroke-opacity="1" stroke-linecap="round" stroke-linejoin="round"/>
    <path d="M 33.285667419433594 145.20835876464844 C 16.904001235961914 116.19670104980469 26.97132682800293 122.38504791259766 22.56730079650879 124.42131805419922 C 14.12225341796875 129.95372009277344 27.575763702392578 125.80549621582031 16.71552276611328 136.54153442382812 C 28.800308227539062 120.60077667236328 48.234169006347656 127.62017059326172 36.77515411376953 118.81546020507812" stroke-width="2.0" fill="none" stroke="rgb(0, 0, 0)" stroke-opacity="1" stroke-linecap="round" stroke-linejoin="round"/>
    <path d="M 26.18572425842285 51.834266662597656 C -11.882561683654785 31.69321632385254 -6.194190502166748 79.72711944580078 16.707775115966797 61.54664993286133" stroke-width="2.0" fill="none" stroke="rgb(0, 0, 0)" stroke-opacity="1" stroke-linecap="round" stroke-linejoin="round"/>
    <path d="M 40.412689208984375 190.07225036621094 C 51.071903228759766 209.7268524169922 44.322547912597656 205.52032470703125 57.42136001586914 200.83753967285156 C 55.001991271972656 216.26707458496094 80.53677368164062 212.33485412597656 72.85664367675781 188.8827362060547 C 81.09402465820312 201.43788146972656 64.53721618652344 212.466552734375 52.42921447753906 213.45562744140625" stroke-width="2.0" fill="none" stroke="rgb(0, 0, 0)" stroke-opacity="1" stroke-linecap="round" stroke-linejoin="round"/>
    <path d="M 29.97758674621582 15.57642650604248 C 23.637752532958984 3.0502967834472656 41.85836410522461 0.865827202796936 49.547176361083984 -1.6347650289535522 C 53.363670349121094 6.3611979484558105 29.51951789855957 -3.9380977153778076 37.179664611816406 23.547597885131836" stroke-width="2.0" fill="none" stroke="rgb(0, 0, 0)" stroke-opacity="1" stroke-linecap="round" stroke-linejoin="round"/>
    <path d="M 178.21202087402344 142.1546630859375 C 195.98126220703125 152.9127960205078 189.6337432861328 171.97088623046875 188.18531799316406 161.1329803466797 C 191.07118225097656 177.07745361328125 201.3765106201172 179.00238037109375 183.34304809570312 161.20169067382812 C 172.6297149658203 178.21185302734375 176.239013671875 142.89178466796875 187.08616638183594 189.2390899658203" stroke-width="2.0" fill="none" stroke="rgb(0, 0, 0)" stroke-opacity="1" stroke-linecap="round" stroke-linejoin="round"/>
    <path d="M 92.99586486816406 46.814456939697266 C 85.65652465820312 -15.678872108459473 85.19353485107422 -9.490093231201172 100.09468078613281 -7.2666449546813965 C 72.71454620361328 5.288609027862549 120.36621856689453 33.11728286743164 90.5489730834961 -1.199874758720398 C 103.45784759521484 4.151373863220215 160.3446502685547 21.785213470458984 168.4123992919922 17.002132415771484" stroke-width="2.0" fill="none" stroke="rgb(0, 0, 0)" stroke-opacity="1" stroke-linecap="round" stroke-linejoin="round"/>
    <path d="M 144.3583984375 55.664066314697266 C 116.52430725097656 74.42568969726562 101.71529388427734 90.27043151855469 81.30317687988281 96.86433410644531 C 108.13526916503906 79.36798095703125 109.71630859375 84.55093383789062 102.30021667480469 72.04035949707031" stroke-width="2.0" fill="none" stroke="rgb(0, 0, 0)" stroke-opacity="1" stroke-linecap="round" stroke-linejoin="round"/>
    <path d="M 55.01887893676758 56.30548095703125 C 64.64480590820312 76.63292694091797 66.53438568115234 75.3921890258789 62.14194869995117 51.026023864746094 C 61.45055389404297 19.13906478881836 54.09697341918945 -5.595893859863281 47.07209014892578 19.051326751708984" stroke-width="2.0" fill="none" stroke="rgb(0, 0, 0)" stroke-opacity="1" stroke-linecap="round" stroke-linejoin="round"/>
    <path d="M 13.97840690612793 136.34219360351562 C 3.4594428539276123 149.67117309570312 4.499450206756592 147.58865356445312 48.564453125 139.56756591796875 C 30.363420486450195 145.9451141357422 17.25893211364746 146.45484924316406 30.22420310974121 159.03675842285156" stroke-width="2.0" fill="none" stroke="rgb(0, 0, 0)" stroke-opacity="1" stroke-linecap="round" stroke-linejoin="round"/>
    <path d="M 181.83062744140625 38.61725997924805 C 172.93577575683594 1.6620882749557495 176.5373992919922 2.5070810317993164 165.1790771484375 -4.710108757019043 C 174.42373657226562 10.079737663269043 149.87359619140625 0.29535675048828125 134.73947143554688 0.6275374889373779 C 162.4146728515625 5.720149517059326 143.3699188232422 5.300968170166016 149.14259338378906 37.815216064453125" stroke-width="2.0" fill="none" stroke="rgb(0, 0, 0)" stroke-opacity="1" stroke-linecap="round" stroke-linejoin="round"/>
    <path d="M 158.42242431640625 38.0716552734375 C 153.00880432128906 -9.215132713317871 138.5889434814453 -4.635159492492676 157.31460571289062 -3.1545987129211426" stroke-width="2.0" fill="none" stroke="rgb(0, 0, 0)" stroke-opacity="1" stroke-linecap="round" stroke-linejoin="round"/>
    <path d="M 23.020263671875 53.74068832397461 C 36.687496185302734 30.093856811523438 33.99810028076172 68.46334075927734 40.645511627197266 86.25440979003906" stroke-width="2.0" fill="none" stroke="rgb(0, 0, 0)" stroke-opacity="1" stroke-linecap="round" stroke-linejoin="round"/>
    <path d="M 119.5032958984375 39.230010986328125 C 143.36387634277344 43.74864959716797 160.18531799316406 47.82533645629883 144.4511260986328 74.31951904296875 C 149.42791748046875 40.586395263671875 161.8343048095703 52.564605712890625 137.95330810546875 67.85199737548828" stroke-width="2.0" fill="none" stroke="rgb(0, 0, 0)" stroke-opacity="1" stroke-linecap="round" stroke-linejoin="round"/>
    <path d="M 25.285816192626953 180.96707153320312 C 41.779541015625 213.4744873046875 30.952430725097656 183.07969665527344 45.15079116821289 207.29055786132812" stroke-width="2.0" fill="none" stroke="rgb(0, 0, 0)" stroke-opacity="1" stroke-linecap="round" stroke-linejoin="round"/>
    <path d="M 49.389015197753906 139.55206298828125 C 39.74086380004883 100.59123992919922 36.761539459228516 127.89027404785156 46.20375061035156 116.54295349121094 C 51.136322021484375 134.16717529296875 60.98451232910156 121.94090270996094 1.7768017053604126 134.9132537841797 C 29.749187469482422 115.49097442626953 33.00481414794922 123.95775604248047 41.35475158691406 141.5973663330078" stroke-width="2.0" fill="none" stroke="rgb(0, 0, 0)" stroke-opacity="1" stroke-linecap="round" stroke-linejoin="round"/>
    <path d="M 66.79264068603516 179.29824829101562 C 62.50050354003906 165.03396606445312 70.2674560546875 188.2880096435547 66.76121520996094 177.7295379638672" stroke-width="2.0" fill="none" stroke="rgb(0, 0, 0)" stroke-opacity="1" stroke-linecap="round" stroke-linejoin="round"/>
    <path d="M 195.4710235595703 120.37158203125 C 196.20729064941406 178.56170654296875 191.93458557128906 145.22854614257812 178.80075073242188 131.8024444580078" stroke-width="2.0" fill="none" stroke="rgb(0, 0, 0)" stroke-opacity="1" stroke-linecap="round" stroke-linejoin="round"/>
    <path d="M 26.179529190063477 179.12457275390625 C -6.977719306945801 190.58633422851562 -16.42011833190918 205.9965057373047 10.960082054138184 184.25411987304688 C 13.121360778808594 188.19232177734375 12.921612739562988 190.8170623779297 21.46877670288086 205.56300354003906" stroke-width="2.0" fill="none" stroke="rgb(0, 0, 0)" stroke-opacity="1" stroke-linecap="round" stroke-linejoin="round"/>
    <path d="M 66.2708511352539 29.795820236206055 C 58.888282775878906 11.970125198364258 75.52314758300781 -2.8432278633117676 54.81830596923828 15.016544342041016 C 68.75692749023438 3.366704225540161 59.27653503417969 6.604803562164307 56.63914108276367 15.79484748840332" stroke-width="2.0" fill="none" stroke="rgb(0, 0, 0)" stroke-opacity="1" stroke-linecap="round" stroke-linejoin="round"/>
    <path d="M 163.20445251464844 67.28438568115234 C 209.34783935546875 82.87483978271484 191.00450134277344 70.04972839355469 185.81301879882812 67.9642562866211" stroke-width="2.0" fill="none" stroke="rgb(0, 0, 0)" stroke-opacity="1" stroke-linecap="round" stroke-linejoin="round"/>
    <path d="M 168.67710876464844 40.781982421875 C 163.41954040527344 0.6444563865661621 145.74685668945312 -10.756026268005371 150.15667724609375 -19.072641372680664" stroke-width="2.0" fill="none" stroke="rgb(0, 0, 0)" stroke-opacity="1" stroke-linecap="round" stroke-linejoin="round"/>
    <path d="M 111.79566955566406 83.03932189941406 C 102.4119873046875 95.60863494873047 99.52794647216797 107.74725341796875 94.3130111694336 90.40350341796875 C 65.16809844970703 103.38197326660156 71.98658752441406 107.29907989501953 61.52030944824219 91.42507934570312" stroke-width="2.0" fill="none" stroke="rgb(0, 0, 0)" stroke-opacity="1" stroke-linecap="round" stroke-linejoin="round"/>
    <path d="M 37.382633209228516 133.20166015625 C 60.42774963378906 109.84368133544922 67.93531036376953 129.4232940673828 49.3646125793457 106.84590148925781 C 53.154972076416016 91.45304870605469 80.23503112792969 157.68699645996094 54.76000213623047 94.50828552246094" stroke-width="2.0" fill="none" stroke="rgb(0, 0, 0)" stroke-opacity="1" stroke-linecap="round" stroke-linejoin="round"/>
    <path d="M 44.94179916381836 77.2709732055664 C 41.07988357543945 72.80271911621094 46.52021789550781 40.101219177246094 32.58474349975586 32.73048782348633" stroke-width="2.0" fill="none" stroke="rgb(0, 0, 0)" stroke-opacity="1" stroke-linecap="round" stroke-linejoin="round"/>
    <path d="M 220.85302734375 83.8885498046875 C 211.1670379638672 79.27980041503906 185.5791778564453 90.00515747070312 188.82322692871094 110.28826141357422 C 188.9792938232422 91.34846496582031 198.0391387939453 88.25907135009766 196.44293212890625 79.95852661132812 C 189.81748962402344 91.87948608398438 207.18911743164062 72.2599105834961 190.78311157226562 61.607662200927734" stroke-width="2.0" fill="none" stroke="rgb(0, 0, 0)" stroke-opacity="1" stroke-linecap="round" stroke-linejoin="round"/>
    <path d="M 60.893150329589844 219.12933349609375 C 48.45109558105469 176.4925537109375 39.80158615112305 180.87246704101562 58.31974411010742 221.6797637939453 C 36.735252380371094 157.60284423828125 46.51975631713867 222.81106567382812 48.770938873291016 202.7584991455078" stroke-width="2.0" fill="none" stroke="rgb(0, 0, 0)" stroke-opacity="1" stroke-linecap="round" stroke-linejoin="round"/>
    <path d="M 179.42807006835938 189.5462188720703 C 181.43153381347656 157.73593139648438 205.23162841796875 222.76425170898438 186.16412353515625 210.27175903320312 C 186.981201171875 243.5724334716797 183.71701049804688 219.89898681640625 194.43414306640625 236.48573303222656 C 206.54266357421875 240.65805053710938 185.54327392578125 223.1192626953125 175.0181121826172 227.81884765625" stroke-width="2.0" fill="none" stroke="rgb(0, 0, 0)" stroke-opacity="1" stroke-linecap="round" stroke-linejoin="round"/>
    <path d="M 157.46356201171875 164.03451538085938 C 173.4962158203125 189.47279357910156 147.51901245117188 177.43844604492188 174.34300231933594 169.01560974121094 C 182.47181701660156 152.6671600341797 174.7264404296875 182.03028869628906 162.4882354736328 155.12367248535156 C 148.44996643066406 170.48641967773438 155.81214904785156 153.78543090820312 144.33909606933594 175.00498962402344" stroke-width="2.0" fill="none" stroke="rgb(0, 0, 0)" stroke-opacity="1" stroke-linecap="round" stroke-linejoin="round"/>
    <path d="M 199.27012634277344 216.10935974121094 C 197.583740234375 196.35528564453125 184.37879943847656 204.9582977294922 202.37960815429688 201.31234741210938 C 197.95474243164062 201.61981201171875 202.06703186035156 160.22103881835938 192.194580078125 173.00665283203125 C 212.361328125 166.49180603027344 213.94970703125 170.6408233642578 225.36968994140625 168.1753692626953" stroke-width="2.0" fill="none" stroke="rgb(0, 0, 0)" stroke-opacity="1" stroke-linecap="round" stroke-linejoin="round"/>
    <path d="M 160.68002319335938 30.628599166870117 C 147.36109924316406 51.56879806518555 159.16787719726562 31.528432846069336 165.3871307373047 34.243186950683594 C 157.15789794921875 26.006057739257812 154.1954345703125 -14.679000854492188 149.83871459960938 9.805319786071777 C 149.32455444335938 51.32223129272461 161.37759399414062 47.5428466796875 148.0048828125 7.008971214294434" stroke-width="2.0" fill="none" stroke="rgb(0, 0, 0)" stroke-opacity="1" stroke-linecap="round" stroke-linejoin="round"/>
    <path d="M 191.67141723632812 -3.3573713302612305 C 218.2471923828125 16.619598388671875 210.66140747070312 -11.948559761047363 224.9544219970703 8.294149398803711" stroke-width="2.0" fill="none" stroke="rgb(0, 0, 0)" stroke-opacity="1" stroke-linecap="round" stroke-linejoin="round"/>
    <path d="M 14.883416175842285 207.6105194091797 C 6.169771194458008 182.4535369873047 6.3349528312683105 199.39195251464844 15.602444648742676 193.8217315673828 C 16.066627502441406 229.29212951660156 12.24367904663086 214.81248474121094 39.39577865600586 217.31324768066406 C 21.866283416748047 175.0264434814453 16.73695182800293 190.70741271972656 25.027175903320312 207.05911254882812" stroke-width="2.0" fill="none" stroke="rgb(0, 0, 0)" stroke-opacity="1" stroke-linecap="round" stroke-linejoin="round"/>
    <path d="M 197.06036376953125 3.509955883026123 C 162.06605529785156 11.024035453796387 146.57179260253906 -4.200592041015625 166.74188232421875 -14.436100006103516 C 183.17579650878906 -15.409406661987305 188.4994659423828 -6.408542633056641 203.9875946044922 -1.714098334312439" stroke-width="2.0" fill="none" stroke="rgb(0, 0, 0)" stroke-opacity="1" stroke-linecap="round" stroke-linejoin="round"/>
    <path d="M 73.8829345703125 202.01394653320312 C 91.72593688964844 210.0789337158203 69.47803497314453 164.16444396972656 101.32553100585938 189.28233337402344 C 90.30856323242188 224.07835388183594 84.8702621459961 222.6920623779297 94.43560791015625 184.86880493164062" stroke-width="2.0" fill="none" stroke="rgb(0, 0, 0)" stroke-opacity="1" stroke-linecap="round" stroke-linejoin="round"/>
    <path d="M 186.45233154296875 110.00151062011719 C 189.19557189941406 90.33157348632812 166.19044494628906 82.7568130493164 157.61709594726562 107.66104888916016" stroke-width="2.0" fill="none" stroke="rgb(0, 0, 0)" stroke-opacity="1" stroke-linecap="round" stroke-linejoin="round"/>
    <path d="M 72.1999282836914 20.117660522460938 C 83.25459289550781 72.74977111816406 84.66716766357422 64.52620697021484 76.05535888671875 7.923925876617432" stroke-width="2.0" fill="none" stroke="rgb(0, 0, 0)" stroke-opacity="1" stroke-linecap="round" stroke-linejoin="round"/>
    <path d="M 219.318603515625 76.89039611816406 C 206.38076782226562 68.27452087402344 179.9850311279297 109.1857681274414 206.87716674804688 66.17909240722656 C 173.77130126953125 48.519798278808594 181.65733337402344 55.070594787597656 216.0919189453125 68.42628479003906" stroke-width="2.0" fill="none" stroke="rgb(0, 0, 0)" stroke-opacity="1" stroke-linecap="round" stroke-linejoin="round"/>
    <path d="M 200.67098999023438 120.2551040649414 C 201.0871124267578 112.89092254638672 243.85882568359375 121.88794708251953 241.8942413330078 123.4318618774414 C 186.48846435546875 98.49365234375 183.09567260742188 140.4454345703125 203.15232849121094 139.82713317871094 C 192.09759521484375 127.08535766601562 183.63162231445312 94.94991302490234 227.10617065429688 106.50570678710938" stroke-width="2.0" fill="none" stroke="rgb(0, 0, 0)" stroke-opacity="1" stroke-linecap="round" stroke-linejoin="round"/>
    <path d="M -3.3850789070129395 2.1202516555786133 C 9.542699813842773 14.903890609741211 -4.842734336853027 31.04081916809082 -21.41832733154297 32.24882507324219 C -12.6571683883667 -6.5142974853515625 -12.707416534423828 -7.844527721405029 -19.36058235168457 -10.159998893737793 C -14.959534645080566 -17.07286834716797 -10.502135276794434 -19.260494232177734 -10.354018211364746 -13.905794143676758" stroke-width="2.0" fill="none" stroke="rgb(0, 0, 0)" stroke-opacity="1" stroke-linecap="round" stroke-linejoin="round"/>
    <path d="M 60.41421890258789 172.7179412841797 C 72.49047088623047 194.30010986328125 55.85966491699219 175.133544921875 62.829776763916016 158.2177734375 C 47.91545867919922 162.68531799316406 38.7626953125 168.60443115234375 16.637802124023438 183.1441192626953" stroke-width="2.0" fill="none" stroke="rgb(0, 0, 0)" stroke-opacity="1" stroke-linecap="round" stroke-linejoin="round"/>
    <path d="M 35.997955322265625 154.52162170410156 C 13.60538387298584 172.65109252929688 11.659239768981934 161.41712951660156 19.075422286987305 146.837158203125" stroke-width="2.0" fill="none" stroke="rgb(0, 0, 0)" stroke-opacity="1" stroke-linecap="round" stroke-linejoin="round"/>
    <path d="M 145.0032196044922 70.10000610351562 C 127.772216796875 32.22316360473633 101.84632110595703 49.21891784667969 138.06056213378906 50.906394958496094 C 78.20349884033203 78.46002960205078 104.35984802246094 62.0816764831543 149.72894287109375 59.02951431274414 C 164.10850524902344 54.66401290893555 141.91038513183594 27.65797996520996 152.44577026367188 50.908687591552734" stroke-width="2.0" fill="none" stroke="rgb(0, 0, 0)" stroke-opacity="1" stroke-linecap="round" stroke-linejoin="round"/>
    <path d="M 103.84715270996094 140.25369262695312 C 96.14958190917969 146.27664184570312 86.54694366455078 151.68634033203125 107.83319091796875 139.9962158203125 C 140.40380859375 119.4192123413086 105.49166107177734 142.53834533691406 133.78140258789062 142.93902587890625 C 104.7267074584961 160.50425720214844 112.97859954833984 166.6912384033203 114.07231903076172 141.7110595703125" stroke-width="2.0" fill="none" stroke="rgb(0, 0, 0)" stroke-opacity="1" stroke-linecap="round" stroke-linejoin="round"/>
    <path d="M 28.097166061401367 39.04963302612305 C 49.450294494628906 41.574275970458984 51.507850646972656 60.093528747558594 47.21685028076172 33.674259185791016" stroke-width="2.0" fill="none" stroke="rgb(0, 0, 0)" stroke-opacity="1" stroke-linecap="round" stroke-linejoin="round"/>
    <path d="M 90.0704345703125 45.80754852294922 C 83.36292266845703 1.525673747062683 96.24554443359375 -12.831180572509766 81.59732055664062 -4.782891273498535 C 95.94739532470703 37.2005615234375 94.25821685791016 28.049474716186523 92.46227264404297 -6.557640075683594" stroke-width="2.0" fill="none" stroke="rgb(0, 0, 0)" stroke-opacity="1" stroke-linecap="round" stroke-linejoin="round"/>
    <path d="M 110.75729370117188 70.1557388305664 C 128.5757293701172 102.31388092041016 108.71443939208984 69.32633972167969 143.0601348876953 60.84680938720703 C 135.32481384277344 72.3342514038086 132.55355834960938 51.683876037597656 126.40971374511719 71.80281829833984 C 134.07244873046875 109.23074340820312 110.64249420166016 102.70994567871094 123.77851104736328 109.62464904785156" stroke-width="2.0" fill="none" stroke="rgb(0, 0, 0)" stroke-opacity="1" stroke-linecap="round" stroke-linejoin="round"/>
    <path d="M 47.512290954589844 44.446632385253906 C 31.024499893188477 0.8535011410713196 51.39860916137695 9.760672569274902 52.444332122802734 -4.952813148498535" stroke-width="2.0" fill="none" stroke="rgb(0, 0, 0)" stroke-opacity="1" stroke-linecap="round" stroke-linejoin="round"/>
    <path d="M 47.4505729675293 191.68563842773438 C 44.23835754394531 163.66920471191406 30.477214813232422 172.23794555664062 36.940311431884766 187.0678253173828 C 61.72672653198242 172.9789581298828 59.32063674926758 170.81735229492188 53.858577728271484 165.2254180908203" stroke-width="2.0" fill="none" stroke="rgb(0, 0, 0)" stroke-opacity="1" stroke-linecap="round" stroke-linejoin="round"/>
    <path d="M 187.75799560546875 -5.220900058746338 C 190.60284423828125 1.5480668544769287 184.9704132080078 -4.703890800476074 188.2549285888672 -8.709511756896973 C 194.01132202148438 -7.388805389404297 195.5057373046875 -7.570403575897217 189.08309936523438 -13.668066024780273" stroke-width="2.0" fill="none" stroke="rgb(0, 0, 0)" stroke-opacity="1" stroke-linecap="round" stroke-linejoin="round"/>
    <path d="M 49.33800506591797 28.045930862426758 C 55.71187973022461 11.654995918273926 60.74635696411133 37.9309196472168 54.982078552246094 63.408226013183594" stroke-width="2.0" fill="none" stroke="rgb(0, 0, 0)" stroke-opacity="1" stroke-linecap="round" stroke-linejoin="round"/>
    <path d="M 26.112548828125 160.66842651367188 C 65.6265640258789 143.9164276123047 63.32746887207031 141.25389099121094 70.77505493164062 147.49363708496094 C 40.63854217529297 171.6850128173828 58.47364044189453 147.1021270751953 67.0687026977539 178.759521484375 C 59.121700286865234 182.44699096679688 70.99301147460938 198.73399353027344 56.92478942871094 174.39219665527344" stroke-width="2.0" fill="none" stroke="rgb(0, 0, 0)" stroke-opacity="1" stroke-linecap="round" stroke-linejoin="round"/>
    <path d="M 79.4509048461914 87.63953399658203 C 83.2385025024414 120.3561019897461 110.11036682128906 56.8759651184082 42.70491027832031 98.84603118896484 C 79.90760040283203 84.16675567626953 91.25359344482422 65.5198974609375 94.44481658935547 93.37567901611328" stroke-width="2.0" fill="none" stroke="rgb(0, 0, 0)" stroke-opacity="1" stroke-linecap="round" stroke-linejoin="round"/>
    <path d="M 61.029884338378906 45.95742416381836 C 58.04726028442383 81.26173400878906 69.09967803955078 76.30690002441406 65.96699523925781 18.628524780273438 C 76.03209686279297 91.98863220214844 66.4281997680664 57.39514923095703 80.34954071044922 -22.120155334472656 C 84.48705291748047 55.552040100097656 86.97270965576172 54.3372802734375 74.33040618896484 54.02470397949219" stroke-width="2.0" fill="none" stroke="rgb(0, 0, 0)" stroke-opacity="1" stroke-linecap="round" stroke-linejoin="round"/>
    <path d="M 149.5813751220703 110.69864654541016 C 134.83274841308594 86.06482696533203 144.2644500732422 100.95893096923828 109.87914276123047 107.09052276611328 C 136.99276733398438 90.15755462646484 168.43089294433594 70.15188598632812 162.39183044433594 74.68669128417969 C 176.80831909179688 80.66925811767578 198.97360229492188 88.3271713256836 172.26063537597656 76.37261199951172" stroke-width="2.0" fill="none" stroke="rgb(0, 0, 0)" stroke-opacity="1" stroke-linecap="round" stroke-linejoin="round"/>
    <path d="M 210.0287322998047 26.062864303588867 C 207.74623107910156 -27.59992790222168 198.00514221191406 -15.052873611450195 175.60406494140625 -5.609463691711426 C 219.9291534423828 -9.30912971496582 210.08250427246094 21.004188537597656 222.04869079589844 -2.422107458114624 C 236.78021240234375 -11.018397331237793 233.7534637451172 -2.7235617637634277 235.2444610595703 -0.4275672733783722" stroke-width="2.0" fill="none" stroke="rgb(0, 0, 0)" stroke-opacity="1" stroke-linecap="round" stroke-linejoin="round"/>
    <path d="M -6.963966369628906 209.89173889160156 C -7.903013229370117 198.63584899902344 -11.761364936828613 220.3311004638672 6.255843639373779 224.79078674316406" stroke-width="2.0" fill="none" stroke="rgb(0, 0, 0)" stroke-opacity="1" stroke-linecap="round" stroke-linejoin="round"/>
    <path d="M 136.05479431152344 46.9678840637207 C 108.9826431274414 62.53873062133789 72.54309844970703 73.38609313964844 29.8510799407959 97.93163299560547 C 77.94710540771484 81.01859283447266 95.30152893066406 66.25650787353516 141.28147888183594 53.58506774902344" stroke-width="2.0" fill="none" stroke="rgb(0, 0, 0)" stroke-opacity="1" stroke-linecap="round" stroke-linejoin="round"/>
    <path d="M 29.730886459350586 181.90635681152344 C 13.154475212097168 178.86073303222656 13.265581130981445 167.77886962890625 14.78677749633789 172.64682006835938 C 22.165374755859375 157.62120056152344 30.421428680419922 177.27532958984375 17.114187240600586 174.50241088867188" stroke-width="2.0" fill="none" stroke="rgb(0, 0, 0)" stroke-opacity="1" stroke-linecap="round" stroke-linejoin="round"/>
    <path d="M 67.98224639892578 208.55691528320312 C 49.558597564697266 159.2667694091797 40.16265869140625 168.2085418701172 62.12234115600586 204.15618896484375 C 57.741111755371094 209.66128540039062 63.511295318603516 226.83810424804688 63.736045837402344 210.1331329345703" stroke-width="2.0" fill="none" stroke="rgb(0, 0, 0)" stroke-opacity="1" stroke-linecap="round" stroke-linejoin="round"/>
    <path d="M 31.165058135986328 158.7932891845703 C 27.937942504882812 160.84410095214844 41.88074493408203 154.7308807373047 15.864811897277832 163.6717987060547 C 27.118518829345703 161.51271057128906 32.58681106567383 157.60719299316406 72.60966491699219 147.67906188964844 C 47.617374420166016 140.9244384765625 32.57783508300781 164.34735107421875 15.008817672729492 162.8384552001953" stroke-width="2.0" fill="none" stroke="rgb(0, 0, 0)" stroke-opacity="1" stroke-linecap="round" stroke-linejoin="round"/>
    <path d="M 149.3569793701172 182.95875549316406 C 192.8411865234375 165.59825134277344 159.95814514160156 170.6240692138672 145.54722595214844 190.20114135742188 C 154.38531494140625 196.7065887451172 125.47726440429688 193.56292724609375 163.2936553955078 166.08518981933594" stroke-width="2.0" fill="none" stroke="rgb(0, 0, 0)" stroke-opacity="1" stroke-linecap="round" stroke-linejoin="round"/>
    <path d="M 149.755859375 57.17050552368164 C 159.76171875 44.68165588378906 126.91305541992188 26.58500099182129 159.91262817382812 17.677616119384766 C 163.35067749023438 65.19666290283203 161.52593994140625 51.832088470458984 148.3997344970703 73.20417785644531" stroke-width="2.0" fill="none" stroke="rgb(0, 0, 0)" stroke-opacity="1" stroke-linecap="round" stroke-linejoin="round"/>
    <path d="M 85.8509750366211 77.72171783447266 C 106.2437973022461 69.37095642089844 151.07061767578125 46.81666564941406 144.86761474609375 65.08788299560547" stroke-width="2.0" fill="none" stroke="rgb(0, 0, 0)" stroke-opacity="1" stroke-linecap="round" stroke-linejoin="round"/>
    <path d="M -1.728633165359497 134.440185546875 C -3.571653127670288 146.7079315185547 9.452775955200195 135.88609313964844 -6.2006683349609375 133.0771026611328 C -9.105433464050293 108.7150650024414 9.579706192016602 113.53451538085938 -2.841827630996704 126.21937561035156 C -3.625086784362793 109.86943817138672 -5.579925537109375 104.90357208251953 -12.855934143066406 105.10936737060547" stroke-width="2.0" fill="none" stroke="rgb(0, 0, 0)" stroke-opacity="1" stroke-linecap="round" stroke-linejoin="round"/>
    <path d="M 171.13792419433594 93.43000793457031 C 162.7724609375 71.260986328125 158.24270629882812 81.2939682006836 170.40631103515625 69.11004638671875" stroke-width="2.0" fill="none" stroke="rgb(0, 0, 0)" stroke-opacity="1" stroke-linecap="round" stroke-linejoin="round"/>
    <path d="M 15.336142539978027 181.6875762939453 C 32.54528045654297 201.7235870361328 29.42913055419922 217.071533203125 18.059324264526367 204.49737548828125 C 16.194625854492188 215.3303985595703 19.174686431884766 225.62387084960938 7.427579402923584 180.08993530273438" stroke-width="2.0" fill="none" stroke="rgb(0, 0, 0)" stroke-opacity="1" stroke-linecap="round" stroke-linejoin="round"/>
    <path d="M 185.81324768066406 40.67002868652344 C 189.8601531982422 -2.685429811477661 151.9777374267578 -13.006895065307617 202.29469299316406 -2.266900062561035 C 176.23971557617188 -4.581881046295166 182.43055725097656 -14.111808776855469 191.27215576171875 -13.801556587219238 C 199.32081604003906 -14.418801307678223 206.73489379882812 -21.993684768676758 215.6383819580078 -31.419157028198242" stroke-width="2.0" fill="none" stroke="rgb(0, 0, 0)" stroke-opacity="1" stroke-linecap="round" stroke-linejoin="round"/>
    <path d="M 169.1704559326172 147.5370635986328 C 185.737060546875 149.42538452148438 173.79644775390625 123.8658676147461 165.14222717285156 142.9701385498047" stroke-width="2.0" fill="none" stroke="rgb(0, 0, 0)" stroke-opacity="1" stroke-linecap="round" stroke-linejoin="round"/>
    <path d="M 157.2808837890625 144.45950317382812 C 144.52658081054688 118.48041534423828 144.52926635742188 158.1951141357422 131.6622314453125 119.31441497802734" stroke-width="2.0" fill="none" stroke="rgb(0, 0, 0)" stroke-opacity="1" stroke-linecap="round" stroke-linejoin="round"/>
    <path d="M 73.49042510986328 193.60031127929688 C 50.780723571777344 204.28482055664062 50.12721633911133 194.38812255859375 59.856231689453125 220.64837646484375" stroke-width="2.0" fill="none" stroke="rgb(0, 0, 0)" stroke-opacity="1" stroke-linecap="round" stroke-linejoin="round"/>
    <path d="M 158.369384765625 93.0739974975586 C 161.4846954345703 92.15830993652344 177.4693145751953 82.28675079345703 172.90350341796875 88.5601577758789 C 162.1278839111328 82.88627624511719 144.8125 78.06838989257812 142.1375732421875 78.75698852539062" stroke-width="2.0" fill="none" stroke="rgb(0, 0, 0)" stroke-opacity="1" stroke-linecap="round" stroke-linejoin="round"/>
    <path d="M 197.43820190429688 23.978612899780273 C 195.4535369873047 6.028677940368652 202.7051544189453 21.097545623779297 157.3971405029297 16.418752670288086 C 217.48513793945312 11.065567016601562 205.43789672851562 6.2370285987854 195.2170867919922 52.647953033447266 C 188.12908935546875 22.45918846130371 212.9845733642578 21.2451229095459 207.09217834472656 47.50996398925781" stroke-width="2.0" fill="none" stroke="rgb(0, 0, 0)" stroke-opacity="1" stroke-linecap="round" stroke-linejoin="round"/>
    <path d="M 34.48455810546875 106.3770980834961 C 14.313878059387207 108.22982788085938 -0.8296481966972351 93.77324676513672 29.13633918762207 92.8342514038086 C 26.87871551513672 81.6869888305664 21.93047332763672 39.383731842041016 13.202034950256348 50.667545318603516 C 16.14422035217285 62.6023063659668 26.412418365478516 95.84774780273438 25.452421188354492 108.49751281738281" stroke-width="2.0" fill="none" stroke="rgb(0, 0, 0)" stroke-opacity="1" stroke-linecap="round" stroke-linejoin="round"/>
    <path d="M 180.39593505859375 127.96804809570312 C 156.66632080078125 141.2594451904297 175.6194305419922 134.79598999023438 161.33717346191406 125.56356811523438" stroke-width="2.0" fill="none" stroke="rgb(0, 0, 0)" stroke-opacity="1" stroke-linecap="round" stroke-linejoin="round"/>
    <path d="M 233.9649658203125 56.558265686035156 C 226.63902282714844 84.231201171875 211.17868041992188 101.37948608398438 238.1384735107422 95.2220458984375 C 225.88714599609375 52.924705505371094 215.71099853515625 65.72008514404297 227.50180053710938 41.93558120727539" stroke-width="2.0" fill="none" stroke="rgb(0, 0, 0)" stroke-opacity="1" stroke-linecap="round" stroke-linejoin="round"/>
    <path d="M 195.32623291015625 135.42898559570312 C 206.3448028564453 128.8213653564453 181.77662658691406 115.77413940429688 199.65679931640625 101.3779067993164" stroke-width="2.0" fill="none" stroke="rgb(0, 0, 0)" stroke-opacity="1" stroke-linecap="round" stroke-linejoin="round"/>
    <path d="M 162.31491088867188 -2.5561397075653076 C 112.58267974853516 1.1818031072616577 159.16555786132812 -4.636588096618652 151.78924560546875 7.039895057678223" stroke-width="2.0" fill="none" stroke="rgb(0, 0, 0)" stroke-opacity="1" stroke-linecap="round" stroke-linejoin="round"/>
    <path d="M 55.85725021362305 152.0060577392578 C 21.857030868530273 161.9203643798828 46.25551223754883 153.09898376464844 34.5549430847168 144.41726684570312 C 37.60065460205078 157.0664520263672 52.79592514038086 178.96981811523438 45.443782806396484 155.3259735107422" stroke-width="2.0" fill="none" stroke="rgb(0, 0, 0)" stroke-opacity="1" stroke-linecap="round" stroke-linejoin="round"/>
    <path d="M 50.86886978149414 2.0902795791625977 C 66.8919906616211 0.805701732635498 46.540035247802734 2.698725461959839 48.931739807128906 21.963966369628906" stroke-width="2.0" fill="none" stroke="rgb(0, 0, 0)" stroke-opacity="1" stroke-linecap="round" stroke-linejoin="round"/>
    <path d="M 215.45301818847656 -0.6366709470748901 C 213.51214599609375 56.2527961730957 230.4462432861328 23.735111236572266 186.62734985351562 32.65652847290039" stroke-width="2.0" fill="none" stroke="rgb(0, 0, 0)" stroke-opacity="1" stroke-linecap="round" stroke-linejoin="round"/>
    <path d="M 99.63411712646484 175.9009246826172 C 118.77304077148438 167.06434631347656 120.90857696533203 189.86024475097656 107.03672790527344 141.78005981445312 C 129.55532836914062 180.7649688720703 121.37187957763672 204.05364990234375 124.82367706298828 153.61976623535156" stroke-width="2.0" fill="none" stroke="rgb(0, 0, 0)" stroke-opacity="1" stroke-linecap="round" stroke-linejoin="round"/>
    <path d="M 69.99617004394531 167.40855407714844 C 82.18540954589844 200.82142639160156 78.43477630615234 216.38336181640625 68.34414672851562 170.05987548828125" stroke-width="2.0" fill="none" stroke="rgb(0, 0, 0)" stroke-opacity="1" stroke-linecap="round" stroke-linejoin="round"/>
    <path d="M 30.01097869873047 163.43312072753906 C 30.63429832458496 175.7517852783203 48.08332443237305 164.94927978515625 29.613054275512695 158.13890075683594 C 37.86858367919922 156.76339721679688 21.335737228393555 156.18234252929688 10.336458206176758 169.0754852294922 C 20.6845645904541 164.88507080078125 -1.7553496360778809 174.07566833496094 9.567483901977539 173.90390014648438" stroke-width="2.0" fill="none" stroke="rgb(0, 0, 0)" stroke-opacity="1" stroke-linecap="round" stroke-linejoin="round"/>
    <path d="M 86.58600616455078 134.23158264160156 C 100.87574768066406 164.92388916015625 98.64755249023438 174.21438598632812 75.47389221191406 122.64321899414062 C 100.0044174194336 149.60671997070312 92.50886535644531 113.8486328125 106.87499237060547 139.40933227539062 C 88.5179214477539 143.9047088623047 110.85291290283203 135.71023559570312 103.70474243164062 139.7938232421875" stroke-width="2.0" fill="none" stroke="rgb(0, 0, 0)" stroke-opacity="1" stroke-linecap="round" stroke-linejoin="round"/>
    <path d="M 28.902204513549805 89.90184020996094 C 8.448786735534668 101.34138488769531 36.37957000732422 91.27456665039062 13.871675491333008 109.06649780273438 C 3.5369086265563965 97.7405776977539 34.25944519042969 106.67073059082031 33.024051666259766 71.04451751708984" stroke-width="2.0" fill="none" stroke="rgb(0, 0, 0)" stroke-opacity="1" stroke-linecap="round" stroke-linejoin="round"/>
    <path d="M 92.70793151855469 117.25698852539062 C 114.23113250732422 100.16790008544922 125.26226043701172 101.3286361694336 92.54597473144531 85.02913665771484" stroke-width="2.0" fill="none" stroke="rgb(0, 0, 0)" stroke-opacity="1" stroke-linecap="round" stroke-linejoin="round"/>
    <path d="M 213.6508026123047 171.59141540527344 C 175.452392578125 180.74224853515625 199.07948303222656 167.7174530029297 231.09007263183594 170.60134887695312 C 228.99298095703125 170.4299774169922 238.44900512695312 184.41342163085938 230.5798797607422 202.51531982421875 C 235.99664306640625 162.1969757080078 234.241455078125 177.59381103515625 226.8478546142578 183.69970703125" stroke-width="2.0" fill="none" stroke="rgb(0, 0, 0)" stroke-opacity="1" stroke-linecap="round" stroke-linejoin="round"/>
    <path d="M 135.04212951660156 161.1585235595703 C 129.74639892578125 113.57557678222656 129.0890350341797 144.1229248046875 114.28923797607422 121.5673828125 C 90.26701354980469 126.02752685546875 133.2496795654297 128.04307556152344 88.78952026367188 146.8021240234375 C 75.27063751220703 125.75719451904297 103.15008544921875 175.4659881591797 71.34272766113281 165.12718200683594" stroke-width="2.0" fill="none" stroke="rgb(0, 0, 0)" stroke-opacity="1" stroke-linecap="round" stroke-linejoin="round"/>
    <path d="M 29.38340187072754 107.22003173828125 C 29.908676147460938 118.76661682128906 29.135313034057617 99.29975128173828 17.83658218383789 54.78542709350586 C 12.560746192932129 89.98210144042969 26.46785545349121 130.7936553955078 27.67115020751953 104.68917083740234 C 36.030948638916016 102.2413330078125 33.863441467285156 130.7286834716797 28.226350784301758 105.47608184814453" stroke-width="2.0" fill="none" stroke="rgb(0, 0, 0)" stroke-opacity="1" stroke-linecap="round" stroke-linejoin="round"/>
    <path d="M 223.26614379882812 215.22657775878906 C 222.58363342285156 166.08059692382812 213.04481506347656 157.10147094726562 218.4530487060547 193.94102478027344 C 213.23548889160156 200.7934112548828 206.37826538085938 194.39988708496094 219.6282196044922 193.26531982421875" stroke-width="2.0" fill="none" stroke="rgb(0, 0, 0)" stroke-opacity="1" stroke-linecap="round" stroke-linejoin="round"/>
    <path d="M 13.078665733337402 151.40597534179688 C 26.583690643310547 165.36679077148438 28.52389907836914 155.4335479736328 -1.2383308410644531 177.2615966796875 C -15.150379180908203 187.44384765625 -12.826071739196777 184.14878845214844 -20.3736572265625 166.983642578125" stroke-width="2.0" fill="none" stroke="rgb(0, 0, 0)" stroke-opacity="1" stroke-linecap="round" stroke-linejoin="round"/>
    <path d="M 177.22140502929688 9.756579399108887 C 113.13494873046875 3.7628402709960938 157.2897186279297 20.332984924316406 186.85147094726562 14.597212791442871 C 175.47987365722656 19.849456787109375 172.150634765625 19.958433151245117 165.8027801513672 -4.19094705581665" stroke-width="2.0" fill="none" stroke="rgb(0, 0, 0)" stroke-opacity="1" stroke-linecap="round" stroke-linejoin="round"/>
    <path d="M 84.21642303466797 160.24867248535156 C 79.71170806884766 121.23939514160156 93.897705078125 131.8499298095703 98.06417846679688 156.68206787109375 C 112.96619415283203 145.97923278808594 88.71200561523438 146.26126098632812 116.57511138916016 132.6310272216797 C 79.21660614013672 128.1366424560547 73.84639739990234 137.78836059570312 98.27867126464844 145.86285400390625" stroke-width="2.0" fill="none" stroke="rgb(0, 0, 0)" stroke-opacity="1" stroke-linecap="round" stroke-linejoin="round"/>
    <path d="M 156.1267852783203 140.14422607421875 C 178.1766357421875 141.6577606201172 168.29592895507812 158.7502899169922 145.4159698486328 168.76873779296875 C 161.7650146484375 168.10025024414062 131.8994598388672 145.9144287109375 145.60508728027344 135.73391723632812 C 157.18820190429688 175.21084594726562 158.39990234375 146.29702758789062 152.33261108398438 133.4772491455078" stroke-width="2.0" fill="none" stroke="rgb(0, 0, 0)" stroke-opacity="1" stroke-linecap="round" stroke-linejoin="round"/>
    <path d="M 89.82756042480469 148.60128784179688 C 91.15750122070312 155.17608642578125 81.00753021240234 144.13206481933594 101.62113952636719 143.42578125 C 114.09351348876953 179.25405883789062 116.3905258178711 196.95452880859375 94.07173919677734 132.28775024414062 C 82.89698791503906 153.53997802734375 98.88288116455078 144.41268920898438 94.88355255126953 144.477783203125" stroke-width="2.0" fill="none" stroke="rgb(0, 0, 0)" stroke-opacity="1" stroke-linecap="round" stroke-linejoin="round"/>
    <path d="M 110.36148834228516 8.65981388092041 C 105.77904510498047 58.14879608154297 115.2884750366211 45.326175689697266 119.18768310546875 39.7760009765625" stroke-width="2.0" fill="none" stroke="rgb(0, 0, 0)" stroke-opacity="1" stroke-linecap="round" stroke-linejoin="round"/>
    <path d="M 218.56005859375 108.98724365234375 C 192.95455932617188 100.80760955810547 192.33604431152344 133.08969116210938 192.54563903808594 104.33525085449219" stroke-width="2.0" fill="none" stroke="rgb(0, 0, 0)" stroke-opacity="1" stroke-linecap="round" stroke-linejoin="round"/>
    <path d="M 123.7811508178711 99.4096908569336 C 164.5139617919922 83.4836654663086 181.9322509765625 66.62400817871094 133.5891876220703 92.35179138183594" stroke-width="2.0" fill="none" stroke="rgb(0, 0, 0)" stroke-opacity="1" stroke-linecap="round" stroke-linejoin="round"/>
    <path d="M 149.7947998046875 189.8886260986328 C 146.71363830566406 199.79257202148438 162.5108184814453 206.8890380859375 112.02317810058594 198.7060089111328 C 106.2146987915039 238.753662109375 108.75713348388672 215.45228576660156 152.54400634765625 225.73597717285156" stroke-width="2.0" fill="none" stroke="rgb(0, 0, 0)" stroke-opacity="1" stroke-linecap="round" stroke-linejoin="round"/>
    <path d="M 27.037466049194336 87.84278106689453 C 38.85894012451172 82.99613952636719 39.02769088745117 76.3536376953125 28.328882217407227 89.62979125976562" stroke-width="2.0" fill="none" stroke="rgb(0, 0, 0)" stroke-opacity="1" stroke-linecap="round" stroke-linejoin="round"/>
    <path d="M 185.68072509765625 154.19129943847656 C 194.30242919921875 167.3553924560547 186.76177978515625 185.06800842285156 196.5541229248047 174.78985595703125 C 185.7202606201172 178.89462280273438 184.45635986328125 152.40235900878906 225.9166259765625 159.4296875" stroke-width="2.0" fill="none" stroke="rgb(0, 0, 0)" stroke-opacity="1" stroke-linecap="round" stroke-linejoin="round"/>
    <path d="M 61.47783660888672 211.9479217529297 C 56.85369110107422 185.82135009765625 71.03717041015625 199.49237060546875 61.24983596801758 212.45968627929688" stroke-width="2.0" fill="none" stroke="rgb(0, 0, 0)" stroke-opacity="1" stroke-linecap="round" stroke-linejoin="round"/>
    <path d="M 13.293889045715332 9.360037803649902 C 27.394575119018555 42.59596633911133 23.637218475341797 30.811607360839844 -20.66446304321289 30.095428466796875 C -15.205221176147461 26.163686752319336 -5.828448295593262 30.05179786682129 -4.57107400894165 43.80699157714844 C -10.259342193603516 26.234580993652344 6.8176140785217285 20.42693328857422 18.433456420898438 32.44994354248047" stroke-width="2.0" fill="none" stroke="rgb(0, 0, 0)" stroke-opacity="1" stroke-linecap="round" stroke-linejoin="round"/>
    <path d="M 176.0322723388672 187.42945861816406 C 174.3902130126953 164.2653045654297 158.84791564941406 165.25608825683594 177.763427734375 194.30531311035156" stroke-width="2.0" fill="none" stroke="rgb(0, 0, 0)" stroke-opacity="1" stroke-linecap="round" stroke-linejoin="round"/>
    <path d="M 107.81666564941406 195.86111450195312 C 100.27193450927734 231.65264892578125 99.22428894042969 192.7395477294922 101.23666381835938 190.0523681640625" stroke-width="2.0" fill="none" stroke="rgb(0, 0, 0)" stroke-opacity="1" stroke-linecap="round" stroke-linejoin="round"/>
    <path d="M 224.29368591308594 229.0408477783203 C 231.64315795898438 208.6009063720703 194.33644104003906 222.46224975585938 217.10543823242188 219.026611328125 C 206.47311401367188 110.0581283569336 204.74557495117188 206.3253631591797 211.19442749023438 220.27627563476562 C 211.357666015625 212.29808044433594 194.05105590820312 227.39573669433594 192.87493896484375 214.99118041992188" stroke-width="2.0" fill="none" stroke="rgb(0, 0, 0)" stroke-opacity="1" stroke-linecap="round" stroke-linejoin="round"/>
    <path d="M 141.07357788085938 120.82359313964844 C 128.6415252685547 94.60525512695312 107.69410705566406 107.42203521728516 142.885498046875 91.8072280883789 C 155.6378173828125 97.90177154541016 141.98794555664062 110.40155029296875 168.70387268066406 98.78866577148438" stroke-width="2.0" fill="none" stroke="rgb(0, 0, 0)" stroke-opacity="1" stroke-linecap="round" stroke-linejoin="round"/>
    <path d="M 167.7017059326172 175.83511352539062 C 179.75479125976562 200.5142364501953 176.19961547851562 184.5338592529297 173.24127197265625 187.123779296875 C 195.39971923828125 180.53067016601562 194.1205291748047 180.9254913330078 186.81825256347656 184.1693115234375" stroke-width="2.0" fill="none" stroke="rgb(0, 0, 0)" stroke-opacity="1" stroke-linecap="round" stroke-linejoin="round"/>
    <path d="M 131.79371643066406 108.71929168701172 C 116.17597198486328 127.01458740234375 143.72796630859375 121.80501556396484 115.49433898925781 133.291259765625 C 127.6795425415039 101.32341766357422 100.29678344726562 104.7322006225586 112.81182861328125 118.95307922363281 C 104.78907775878906 99.27291870117188 105.0699691772461 114.08283233642578 83.26819610595703 122.03002166748047" stroke-width="2.0" fill="none" stroke="rgb(0, 0, 0)" stroke-opacity="1" stroke-linecap="round" stroke-linejoin="round"/>
    <path d="M 187.64825439453125 186.84962463378906 C 200.9476318359375 183.99864196777344 174.56991577148438 178.87771606445312 160.5212860107422 191.63021850585938 C 169.8582305908203 230.5557861328125 176.13998413085938 208.30325317382812 152.26290893554688 167.14122009277344 C 154.0769500732422 209.753173828125 171.27354431152344 223.83677673339844 143.0582733154297 220.20184326171875" stroke-width="2.0" fill="none" stroke="rgb(0, 0, 0)" stroke-opacity="1" stroke-linecap="round" stroke-linejoin="round"/>
    <path d="M 162.22433471679688 179.3606414794922 C 165.35032653808594 174.47608947753906 176.22865295410156 155.68463134765625 178.31063842773438 178.6464385986328 C 196.2671661376953 156.90640258789062 193.2062530517578 159.90089416503906 192.77120971679688 133.44998168945312 C 196.16171264648438 139.390869140625 189.98336791992188 117.83135223388672 199.49159240722656 124.30705261230469" stroke-width="2.0" fill="none" stroke="rgb(0, 0, 0)" stroke-opacity="1" stroke-linecap="round" stroke-linejoin="round"/>
    <path d="M 117.89625549316406 66.06046295166016 C 130.0106658935547 87.45703125 131.2193603515625 77.15045166015625 98.93998718261719 85.87271881103516" stroke-width="2.0" fill="none" stroke="rgb(0, 0, 0)" stroke-opacity="1" stroke-linecap="round" stroke-linejoin="round"/>
    <path d="M 183.52194213867188 21.43836212158203 C 197.63290405273438 40.15198516845703 147.7316131591797 18.55069351196289 157.0556182861328 40.86119842529297" stroke-width="2.0" fill="none" stroke="rgb(0, 0, 0)" stroke-opacity="1" stroke-linecap="round" stroke-linejoin="round"/>
    <path d="M 19.3498477935791 32.132896423339844 C 13.059795379638672 17.29004669189453 0.038479723036289215 18.27971076965332 -7.504222869873047 32.64987564086914 C -0.43853387236595154 25.815980911254883 -4.737656593322754 21.646188735961914 -11.780109405517578 14.528443336486816 C -4.445375919342041 21.4477481842041 -15.354358673095703 19.075761795043945 -8.57542610168457 9.104418754577637" stroke-width="2.0" fill="none" stroke="rgb(0, 0, 0)" stroke-opacity="1" stroke-linecap="round" stroke-linejoin="round"/>
    <path d="M 227.34788513183594 208.4703369140625 C 231.33624267578125 217.5142364501953 230.2658233642578 221.70046997070312 237.0380401611328 229.49278259277344 C 212.44381713867188 229.42848205566406 206.42962646484375 233.13018798828125 205.81748962402344 232.65650939941406" stroke-width="2.0" fill="none" stroke="rgb(0, 0, 0)" stroke-opacity="1" stroke-linecap="round" stroke-linejoin="round"/>
    <path d="M 187.72157287597656 113.02877807617188 C 196.13638305664062 62.16362380981445 204.88169860839844 73.85218048095703 186.96536254882812 57.983673095703125" stroke-width="2.0" fill="none" stroke="rgb(0, 0, 0)" stroke-opacity="1" stroke-linecap="round" stroke-linejoin="round"/>
    <path d="M 25.20235252380371 145.60850524902344 C 16.769535064697266 135.68959045410156 28.932191848754883 129.16598510742188 28.837900161743164 136.07345581054688 C 36.63379669189453 126.6845932006836 53.55144119262695 110.32320404052734 56.59389877319336 136.6158905029297" stroke-width="2.0" fill="none" stroke="rgb(0, 0, 0)" stroke-opacity="1" stroke-linecap="round" stroke-linejoin="round"/>
    <path d="M 185.461669921875 87.8539810180664 C 156.45849609375 59.813140869140625 184.00291442871094 74.40950775146484 190.67588806152344 72.24964141845703 C 144.62130737304688 73.51490783691406 183.40286254882812 70.19874572753906 187.0406951904297 82.84942626953125 C 174.0484161376953 86.20469665527344 145.46957397460938 71.3182144165039 155.34698486328125 68.66188049316406" stroke-width="2.0" fill="none" stroke="rgb(0, 0, 0)" stroke-opacity="1" stroke-linecap="round" stroke-linejoin="round"/>
    <path d="M 122.9570541381836 203.7120361328125 C 135.27378845214844 200.27708435058594 121.5162582397461 192.48382568359375 121.72915649414062 193.71482849121094" stroke-width="2.0" fill="none" stroke="rgb(0, 0, 0)" stroke-opacity="1" stroke-linecap="round" stroke-linejoin="round"/>
    <path d="M 18.352296829223633 107.98158264160156 C 46.798194885253906 111.23014068603516 32.18896484375 111.7020263671875 16.18060302734375 81.33956146240234 C 7.672457218170166 105.51372528076172 26.78155517578125 98.46331024169922 32.32902145385742 110.09921264648438" stroke-width="2.0" fill="none" stroke="rgb(0, 0, 0)" stroke-opacity="1" stroke-linecap="round" stroke-linejoin="round"/>
    <path d="M 52.28339385986328 114.97152709960938 C 73.02374267578125 137.96005249023438 63.615577697753906 113.19198608398438 53.90586471557617 124.46390533447266 C 60.8375244140625 119.5232925415039 61.71739959716797 140.81350708007812 49.270057678222656 115.7787857055664" stroke-width="2.0" fill="none" stroke="rgb(0, 0, 0)" stroke-opacity="1" stroke-linecap="round" stroke-linejoin="round"/>
    <path d="M 172.3113250732422 21.477741241455078 C 164.43771362304688 42.67414093017578 207.75978088378906 18.517831802368164 182.15447998046875 49.57306671142578 C 186.48809814453125 44.627197265625 212.5736541748047 59.71304702758789 200.7322235107422 2.8057985305786133" stroke-width="2.0" fill="none" stroke="rgb(0, 0, 0)" stroke-opacity="1" stroke-linecap="round" stroke-linejoin="round"/>
    <path d="M 15.342972755432129 205.4585418701172 C 9.582040786743164 194.06674194335938 24.350339889526367 197.686279296875 43.61302947998047 179.82298278808594" stroke-width="2.0" fill="none" stroke="rgb(0, 0, 0)" stroke-opacity="1" stroke-linecap="round" stroke-linejoin="round"/>
    <path d="M 25.992429733276367 182.0883331298828 C 53.78938674926758 203.7071075439453 24.844789505004883 190.22508239746094 28.047298431396484 207.07449340820312" stroke-width="2.0" fill="none" stroke="rgb(0, 0, 0)" stroke-opacity="1" stroke-linecap="round" stroke-linejoin="round"/>
    <path d="M 170.20774841308594 33.22179412841797 C 154.0905303955078 40.422603607177734 185.03570556640625 28.474323272705078 215.57052612304688 30.00469398498535" stroke-width="2.0" fill="none" stroke="rgb(0, 0, 0)" stroke-opacity="1" stroke-linecap="round" stroke-linejoin="round"/>
    <path d="M 124.8976821899414 135.76229858398438 C 137.50706481933594 174.07415771484375 130.59950256347656 185.80686950683594 119.33544921875 145.90719604492188 C 115.53252410888672 169.7530059814453 116.76272583007812 130.9639434814453 122.61798095703125 177.6234130859375" stroke-width="2.0" fill="none" stroke="rgb(0, 0, 0)" stroke-opacity="1" stroke-linecap="round" stroke-linejoin="round"/>
    <path d="M 55.04684066772461 175.80567932128906 C 65.00444030761719 175.95045471191406 58.750579833984375 201.67124938964844 55.93104553222656 181.52536010742188 C 41.57929992675781 165.62973022460938 41.23687744140625 170.3048858642578 66.6068115234375 146.73065185546875 C 38.200321197509766 166.90480041503906 24.585206985473633 179.06443786621094 39.5572395324707 167.23440551757812" stroke-width="2.0" fill="none" stroke="rgb(0, 0, 0)" stroke-opacity="1" stroke-linecap="round" stroke-linejoin="round"/>
    <path d="M 230.8385009765625 216.06398010253906 C 223.04408264160156 161.23507690429688 225.2394256591797 165.6296844482422 191.44883728027344 170.41500854492188 C 183.29510498046875 141.73825073242188 229.39878845214844 137.29116821289062 224.6887664794922 158.06454467773438 C 234.2138214111328 154.27243041992188 240.36231994628906 145.54803466796875 242.63426208496094 152.97833251953125" stroke-width="2.0" fill="none" stroke="rgb(0, 0, 0)" stroke-opacity="1" stroke-linecap="round" stroke-linejoin="round"/>
    <path d="M 104.65255737304688 127.61197662353516 C 92.6278305053711 128.46835327148438 104.43444061279297 127.70989990234375 127.52245330810547 116.39197540283203" stroke-width="2.0" fill="none" stroke="rgb(0, 0, 0)" stroke-opacity="1" stroke-linecap="round" stroke-linejoin="round"/>
    <path d="M 111.3572998046875 6.072319030761719 C 76.98734283447266 -5.730707168579102 54.68741989135742 13.132112503051758 64.37431335449219 -3.64642333984375 C 71.10751342773438 -3.8705811500549316 62.734100341796875 -3.1412980556488037 87.85504150390625 3.0417652130126953" stroke-width="2.0" fill="none" stroke="rgb(0, 0, 0)" stroke-opacity="1" stroke-linecap="round" stroke-linejoin="round"/>
    <path d="M 103.28563690185547 231.9220428466797 C 85.88191986083984 224.34619140625 74.80033111572266 226.65310668945312 81.18296813964844 231.8948516845703" stroke-width="2.0" fill="none" stroke="rgb(0, 0, 0)" stroke-opacity="1" stroke-linecap="round" stroke-linejoin="round"/>
    <path d="M 59.704750061035156 167.31845092773438 C 78.07996368408203 190.00706481933594 69.46763610839844 178.91021728515625 22.275466918945312 207.92166137695312" stroke-width="2.0" fill="none" stroke="rgb(0, 0, 0)" stroke-opacity="1" stroke-linecap="round" stroke-linejoin="round"/>
    <path d="M 64.4881591796875 182.0920867919922 C 55.97479248046875 143.1790313720703 30.87234115600586 144.06222534179688 57.878971099853516 137.0514373779297" stroke-width="2.0" fill="none" stroke="rgb(0, 0, 0)" stroke-opacity="1" stroke-linecap="round" stroke-linejoin="round"/>
    <path d="M 47.67117691040039 40.212196350097656 C 27.57303810119629 46.00230026245117 27.37851905822754 42.98057556152344 48.836273193359375 42.968910217285156 C 42.00849914550781 29.91883087158203 57.396583557128906 84.8353271484375 41.14159393310547 39.481170654296875 C 34.03119659423828 50.02581024169922 41.152400970458984 62.14558029174805 41.476585388183594 82.91377258300781" stroke-width="2.0" fill="none" stroke="rgb(0, 0, 0)" stroke-opacity="1" stroke-linecap="round" stroke-linejoin="round"/>
    <path d="M 122.96427154541016 231.69705200195312 C 114.03656768798828 225.6907196044922 132.5814208984375 229.9923553466797 138.2810516357422 233.66741943359375" stroke-width="2.0" fill="none" stroke="rgb(0, 0, 0)" stroke-opacity="1" stroke-linecap="round" stroke-linejoin="round"/>
    <path d="M 228.96591186523438 99.52519226074219 C 209.47718811035156 86.21571350097656 182.12579345703125 103.01876831054688 192.9318084716797 115.27628326416016" stroke-width="2.0" fill="none" stroke="rgb(0, 0, 0)" stroke-opacity="1" stroke-linecap="round" stroke-linejoin="round"/>
    <path d="M 17.70058822631836 118.58085632324219 C 15.224370002746582 140.4619598388672 33.127140045166016 110.32986450195312 35.58669662475586 123.21586608886719 C 37.19121170043945 115.1142349243164 47.26860809326172 120.60765075683594 4.590066432952881 131.48435974121094" stroke-width="2.0" fill="none" stroke="rgb(0, 0, 0)" stroke-opacity="1" stroke-linecap="round" stroke-linejoin="round"/>
    <path d="M 199.28384399414062 171.61663818359375 C 176.0962371826172 175.74107360839844 208.28627014160156 165.25502014160156 234.78099060058594 168.18505859375 C 200.50856018066406 149.36264038085938 180.31918334960938 181.89788818359375 195.77198791503906 157.8270721435547 C 233.54791259765625 144.4407196044922 231.44949340820312 176.16168212890625 232.59422302246094 167.64862060546875" stroke-width="2.0" fill="none" stroke="rgb(0, 0, 0)" stroke-opacity="1" stroke-linecap="round" stroke-linejoin="round"/>
    <path d="M 11.487911224365234 177.51368713378906 C -19.1865234375 186.23805236816406 36.43031311035156 191.21994018554688 12.792562484741211 168.2568817138672 C -12.120003700256348 184.24008178710938 4.700194358825684 139.94744873046875 1.2768940925598145 167.95982360839844 C 12.796219825744629 149.1512451171875 -7.632319450378418 144.9967498779297 -23.00286293029785 139.3464813232422" stroke-width="2.0" fill="none" stroke="rgb(0, 0, 0)" stroke-opacity="1" stroke-linecap="round" stroke-linejoin="round"/>
    <path d="M 164.57672119140625 179.77589416503906 C 175.05099487304688 217.5757598876953 180.60752868652344 181.41189575195312 184.11410522460938 209.5839080810547 C 181.2318878173828 200.44883728027344 190.768310546875 214.1903839111328 182.44143676757812 193.8765869140625 C 190.70147705078125 259.19189453125 184.05247497558594 299.3247985839844 189.87374877929688 316.8554382324219" stroke-width="2.0" fill="none" stroke="rgb(0, 0, 0)" stroke-opacity="1" stroke-linecap="round" stroke-linejoin="round"/>
    <path d="M -4.885242462158203 178.95057678222656 C 6.288583278656006 191.5791778564453 9.250268936157227 189.75827026367188 -10.549872398376465 187.58712768554688 C 4.681576728820801 178.50823974609375 35.00083541870117 217.350341796875 1.2745314836502075 170.44142150878906 C 2.0044612884521484 157.72280883789062 -16.37415313720703 169.88427734375 3.103182792663574 154.7767791748047" stroke-width="2.0" fill="none" stroke="rgb(0, 0, 0)" stroke-opacity="1" stroke-linecap="round" stroke-linejoin="round"/>
    <path d="M 36.74031448364258 -2.3190853595733643 C -3.236682176589966 19.298608779907227 -3.626622438430786 -1.6829679012298584 3.6649539470672607 -22.279233932495117" stroke-width="2.0" fill="none" stroke="rgb(0, 0, 0)" stroke-opacity="1" stroke-linecap="round" stroke-linejoin="round"/>
    <path d="M 39.98731994628906 84.85957336425781 C 27.954416275024414 74.69558715820312 29.94183349609375 90.84898376464844 25.295074462890625 102.4952621459961" stroke-width="2.0" fill="none" stroke="rgb(0, 0, 0)" stroke-opacity="1" stroke-linecap="round" stroke-linejoin="round"/>
    <path d="M 16.558643341064453 74.63612365722656 C -10.298101425170898 69.95594787597656 -6.8421220779418945 110.7308120727539 19.964147567749023 82.77072143554688 C 14.690438270568848 63.29628372192383 3.7443649768829346 49.93198776245117 20.91920280456543 66.59747314453125" stroke-width="2.0" fill="none" stroke="rgb(0, 0, 0)" stroke-opacity="1" stroke-linecap="round" stroke-linejoin="round"/>
    <path d="M 64.68059539794922 140.6805877685547 C 84.5456314086914 148.1871337890625 85.92237091064453 153.9543914794922 66.29621887207031 134.72132873535156" stroke-width="2.0" fill="none" stroke="rgb(0, 0, 0)" stroke-opacity="1" stroke-linecap="round" stroke-linejoin="round"/>
    <path d="M 7.369295597076416 122.0386734008789 C 8.506898880004883 137.59075927734375 14.244564056396484 105.23654174804688 -14.86209487915039 123.71045684814453 C 18.348312377929688 114.39987182617188 5.899144172668457 123.61504364013672 17.346895217895508 141.0453338623047" stroke-width="2.0" fill="none" stroke="rgb(0, 0, 0)" stroke-opacity="1" stroke-linecap="round" stroke-linejoin="round"/>
    <path d="M 99.52110290527344 97.625244140625 C 80.21358489990234 83.46843719482422 120.76197814941406 86.77974700927734 110.90052795410156 99.7376708984375 C 89.72891998291016 77.84420013427734 108.91866302490234 65.42007446289062 70.1222915649414 88.7494125366211" stroke-width="2.0" fill="none" stroke="rgb(0, 0, 0)" stroke-opacity="1" stroke-linecap="round" stroke-linejoin="round"/>
    <path d="M 170.927490234375 194.41944885253906 C 190.94239807128906 233.622802734375 161.1800079345703 228.7045440673828 184.5049591064453 233.4185333251953" stroke-width="2.0" fill="none" stroke="rgb(0, 0, 0)" stroke-opacity="1" stroke-linecap="round" stroke-linejoin="round"/>
    <path d="M 64.055908203125 18.45227813720703 C 68.86820983886719 15.938573837280273 75.99541473388672 3.63112735748291 59.931854248046875 2.3374433517456055 C 80.70909118652344 -4.163031578063965 82.30535125732422 20.428585052490234 68.31975555419922 -5.796960830688477" stroke-width="2.0" fill="none" stroke="rgb(0, 0, 0)" stroke-opacity="1" stroke-linecap="round" stroke-linejoin="round"/>
    <path d="M 124.52581787109375 140.57562255859375 C 114.19184875488281 116.02799224853516 146.8628387451172 137.4845733642578 131.95176696777344 119.65851593017578" stroke-width="2.0" fill="none" stroke="rgb(0, 0, 0)" stroke-opacity="1" stroke-linecap="round" stroke-linejoin="round"/>
    <path d="M 146.29225158691406 218.75413513183594 C 150.48928833007812 222.79104614257812 127.68115997314453 215.54122924804688 115.05632781982422 222.70765686035156" stroke-width="2.0" fill="none" stroke="rgb(0, 0, 0)" stroke-opacity="1" stroke-linecap="round" stroke-linejoin="round"/>
    <path d="M 173.95278930664062 185.7421875 C 167.53282165527344 175.60397338867188 166.80885314941406 213.89695739746094 181.59254455566406 195.11524963378906" stroke-width="2.0" fill="none" stroke="rgb(0, 0, 0)" stroke-opacity="1" stroke-linecap="round" stroke-linejoin="round"/>
    <path d="M 134.9110565185547 140.7550506591797 C 146.73526000976562 164.18511962890625 131.2067108154297 153.57814025878906 133.22630310058594 143.2562255859375 C 151.82144165039062 126.94770812988281 132.43252563476562 138.09835815429688 113.48600769042969 156.64007568359375" stroke-width="2.0" fill="none" stroke="rgb(0, 0, 0)" stroke-opacity="1" stroke-linecap="round" stroke-linejoin="round"/>
    <path d="M 82.95755767822266 119.1470718383789 C 116.53825378417969 147.0800323486328 90.79047393798828 144.77789306640625 126.83625793457031 127.60233306884766 C 126.87509155273438 108.6446304321289 101.20816802978516 123.46196746826172 122.83586120605469 131.44354248046875 C 90.62334442138672 135.987548828125 105.52043914794922 120.93939208984375 138.66757202148438 111.75306701660156" stroke-width="2.0" fill="none" stroke="rgb(0, 0, 0)" stroke-opacity="1" stroke-linecap="round" stroke-linejoin="round"/>
    <path d="M 124.6178207397461 99.2481689453125 C 102.31344604492188 111.41720581054688 97.66825866699219 121.37908172607422 90.4045181274414 118.77324676513672 C 108.62168884277344 140.7423095703125 93.4740219116211 95.92753601074219 86.20274353027344 107.45118713378906 C 81.09453582763672 104.3943099975586 96.20852661132812 131.95574951171875 72.97595977783203 102.23397064208984" stroke-width="2.0" fill="none" stroke="rgb(0, 0, 0)" stroke-opacity="1" stroke-linecap="round" stroke-linejoin="round"/>
    <path d="M 45.0460205078125 141.5059051513672 C 8.522873878479004 150.5788116455078 0.19823414087295532 146.60304260253906 3.7990610599517822 163.28555297851562 C -10.91943073272705 126.47883605957031 13.49534797668457 125.16705322265625 12.176533699035645 149.3325653076172 C 34.06049346923828 132.52638244628906 -17.179153442382812 141.34190368652344 25.729236602783203 134.40931701660156" stroke-width="2.0" fill="none" stroke="rgb(0, 0, 0)" stroke-opacity="1" stroke-linecap="round" stroke-linejoin="round"/>
    <path d="M 107.70516204833984 125.7079849243164 C 115.00701904296875 123.75794219970703 90.6688461303711 114.29034423828125 115.86491394042969 108.7544937133789 C 127.54574584960938 119.94884490966797 106.23733520507812 119.80933380126953 157.01634216308594 102.3164291381836" stroke-width="2.0" fill="none" stroke="rgb(0, 0, 0)" stroke-opacity="1" stroke-linecap="round" stroke-linejoin="round"/>
    <path d="M 33.0662727355957 46.420989990234375 C 51.590003967285156 41.3394775390625 -16.663002014160156 62.96071243286133 27.249765396118164 46.037986755371094 C 30.188522338867188 46.9300537109375 30.020244598388672 62.41720962524414 36.22539138793945 84.02835845947266" stroke-width="2.0" fill="none" stroke="rgb(0, 0, 0)" stroke-opacity="1" stroke-linecap="round" stroke-linejoin="round"/>
    <path d="M 100.72689056396484 122.42321014404297 C 84.60140991210938 129.87594604492188 85.36373138427734 130.82809448242188 77.05028533935547 105.34676361083984 C 89.2522964477539 115.8023681640625 67.92761993408203 125.68748474121094 100.01158905029297 153.11276245117188" stroke-width="2.0" fill="none" stroke="rgb(0, 0, 0)" stroke-opacity="1" stroke-linecap="round" stroke-linejoin="round"/>
    <path d="M 75.683349609375 202.1567840576172 C 65.24789428710938 166.06910705566406 85.94884490966797 225.0073699951172 73.31169891357422 191.94898986816406" stroke-width="2.0" fill="none" stroke="rgb(0, 0, 0)" stroke-opacity="1" stroke-linecap="round" stroke-linejoin="round"/>
    <path d="M 68.57405853271484 211.96737670898438 C 77.0442886352539 182.5421142578125 77.01421356201172 212.02244567871094 64.34294128417969 203.78390502929688 C 69.23761749267578 188.1658935546875 63.52202606201172 188.61679077148438 72.27542877197266 213.0957794189453 C 70.5355224609375 184.3563995361328 66.19731903076172 188.20152282714844 73.76335144042969 198.03062438964844" stroke-width="2.0" fill="none" stroke="rgb(0, 0, 0)" stroke-opacity="1" stroke-linecap="round" stroke-linejoin="round"/>
    <path d="M 188.72140502929688 -3.038013458251953 C 205.18421936035156 31.719404220581055 185.30465698242188 -1.016476035118103 204.75048828125 7.8656511306762695 C 206.70948791503906 -25.29050636291504 178.93551635742188 -19.25080108642578 191.5367431640625 -1.2845518589019775 C 201.26918029785156 -8.92904281616211 206.2063751220703 -14.634587287902832 195.3788299560547 -14.440764427185059" stroke-width="2.0" fill="none" stroke="rgb(0, 0, 0)" stroke-opacity="1" stroke-linecap="round" stroke-linejoin="round"/>
    <path d="M 14.493898391723633 197.97613525390625 C 12.536551475524902 195.75701904296875 23.02368927001953 218.6420135498047 30.963960647583008 200.00177001953125" stroke-width="2.0" fill="none" stroke="rgb(0, 0, 0)" stroke-opacity="1" stroke-linecap="round" stroke-linejoin="round"/>
    <path d="M 21.13951873779297 5.004353046417236 C 34.062347412109375 42.414276123046875 -0.825671911239624 31.61191177368164 18.854572296142578 44.166465759277344 C 5.539104461669922 34.483673095703125 30.41280746459961 47.74542236328125 48.42552185058594 44.36980438232422" stroke-width="2.0" fill="none" stroke="rgb(0, 0, 0)" stroke-opacity="1" stroke-linecap="round" stroke-linejoin="round"/>
    <path d="M 188.84390258789062 55.49312210083008 C 187.41868591308594 46.2188720703125 170.85218811035156 78.49214935302734 175.83029174804688 44.02627944946289 C 182.57044982910156 44.55250930786133 177.02529907226562 26.851408004760742 170.4039306640625 41.37034225463867" stroke-width="2.0" fill="none" stroke="rgb(0, 0, 0)" stroke-opacity="1" stroke-linecap="round" stroke-linejoin="round"/>
    <path d="M 63.648738861083984 121.95533752441406 C 37.434226989746094 81.15261840820312 74.33615112304688 110.40583801269531 66.4327163696289 133.06732177734375" stroke-width="2.0" fill="none" stroke="rgb(0, 0, 0)" stroke-opacity="1" stroke-linecap="round" stroke-linejoin="round"/>
    <path d="M 30.39912986755371 176.53231811523438 C 22.131486892700195 164.4706268310547 56.477699279785156 206.42552185058594 32.360965728759766 173.14547729492188 C 41.543861389160156 165.63848876953125 38.51344680786133 171.09864807128906 17.61842918395996 184.05348205566406" stroke-width="2.0" fill="none" stroke="rgb(0, 0, 0)" stroke-opacity="1" stroke-linecap="round" stroke-linejoin="round"/>
    <path d="M 30.93024444580078 153.26869201660156 C 13.101500511169434 126.08132934570312 7.096969127655029 103.71715545654297 -5.724864482879639 137.56556701660156" stroke-width="2.0" fill="none" stroke="rgb(0, 0, 0)" stroke-opacity="1" stroke-linecap="round" stroke-linejoin="round"/>
    <path d="M 24.212066650390625 47.798194885253906 C 32.12316131591797 80.32670593261719 35.76594161987305 105.74811553955078 13.021880149841309 89.03238677978516" stroke-width="2.0" fill="none" stroke="rgb(0, 0, 0)" stroke-opacity="1" stroke-linecap="round" stroke-linejoin="round"/>
    <path d="M 70.35034942626953 198.97145080566406 C 80.62583923339844 172.41888427734375 58.69108200073242 186.69363403320312 32.83788299560547 199.9339141845703" stroke-width="2.0" fill="none" stroke="rgb(0, 0, 0)" stroke-opacity="1" stroke-linecap="round" stroke-linejoin="round"/>
  </g>
</svg>
