<?xml version="1.0" ?>
<svg xmlns="http://www.w3.org/2000/svg" version="1.1" width="224" height="224">
  <defs/>
  <g>
    <path d="M 20.37249755859375 23.42652702331543 C 30.242658615112305 2.6587305068969727 -13.003497123718262 35.10458755493164 26.536163330078125 48.937068939208984 C 9.954212188720703 80.94647216796875 29.376680374145508 81.31304168701172 41.45863342285156 48.90275955200195 C 28.00956916809082 51.85154342651367 29.275375366210938 45.170021057128906 14.787111282348633 54.24644470214844" stroke-width="2.0" fill="none" stroke="rgb(0, 0, 0)" stroke-opacity="1" stroke-linecap="round" stroke-linejoin="round"/>
    <path d="M 34.782249450683594 25.79000473022461 C 39.383140563964844 59.77303695678711 23.09893798828125 39.635841369628906 69.0303726196289 46.24327087402344" stroke-width="2.0" fill="none" stroke="rgb(0, 0, 0)" stroke-opacity="1" stroke-linecap="round" stroke-linejoin="round"/>
    <path d="M 123.72969818115234 92.01470947265625 C 128.96910095214844 95.98360443115234 141.93104553222656 62.96592712402344 143.76571655273438 74.95657348632812 C 159.30197143554688 125.37763214111328 137.36273193359375 75.15044403076172 149.04330444335938 60.28940963745117 C 157.46556091308594 108.13671875 176.0548858642578 128.7963104248047 164.6071319580078 130.15650939941406" stroke-width="2.0" fill="none" stroke="rgb(0, 0, 0)" stroke-opacity="1" stroke-linecap="round" stroke-linejoin="round"/>
    <path d="M 213.5355987548828 26.773439407348633 C 220.76321411132812 16.67508316040039 204.9864044189453 57.95176696777344 207.45660400390625 61.083553314208984 C 180.98361206054688 20.01093292236328 177.70730590820312 -7.708724021911621 180.0089111328125 6.154147148132324" stroke-width="2.0" fill="none" stroke="rgb(0, 0, 0)" stroke-opacity="1" stroke-linecap="round" stroke-linejoin="round"/>
    <path d="M 152.0518035888672 165.3265838623047 C 149.90655517578125 150.857421875 150.9808349609375 150.4429168701172 144.76687622070312 127.50816345214844" stroke-width="2.0" fill="none" stroke="rgb(0, 0, 0)" stroke-opacity="1" stroke-linecap="round" stroke-linejoin="round"/>
    <path d="M 220.32015991210938 9.89598560333252 C 247.1265411376953 15.548563003540039 237.37814331054688 21.307504653930664 242.64102172851562 22.695703506469727 C 230.55160522460938 21.16832733154297 221.08511352539062 30.343231201171875 234.30665588378906 15.319647789001465 C 224.97946166992188 5.157443046569824 233.05657958984375 11.851583480834961 239.8356170654297 1.4836877584457397" stroke-width="2.0" fill="none" stroke="rgb(0, 0, 0)" stroke-opacity="1" stroke-linecap="round" stroke-linejoin="round"/>
    <path d="M 102.1286849975586 93.9201431274414 C 95.25370025634766 95.02542114257812 104.66887664794922 88.49883270263672 121.88197326660156 67.0210189819336 C 110.2185287475586 64.31719970703125 116.5781021118164 46.70624542236328 96.20526123046875 85.43814086914062" stroke-width="2.0" fill="none" stroke="rgb(0, 0, 0)" stroke-opacity="1" stroke-linecap="round" stroke-linejoin="round"/>
    <path d="M 172.80691528320312 65.03136444091797 C 182.1181640625 94.36585998535156 185.45306396484375 102.09850311279297 174.48995971679688 86.28549194335938 C 205.23794555664062 80.35562133789062 169.01148986816406 71.12294006347656 189.81919860839844 92.49156188964844" stroke-width="2.0" fill="none" stroke="rgb(0, 0, 0)" stroke-opacity="1" stroke-linecap="round" stroke-linejoin="round"/>
    <path d="M 98.71821594238281 169.09347534179688 C 77.54999542236328 156.16258239746094 102.72986602783203 163.0749969482422 118.40458679199219 145.88743591308594" stroke-width="2.0" fill="none" stroke="rgb(0, 0, 0)" stroke-opacity="1" stroke-linecap="round" stroke-linejoin="round"/>
    <path d="M 106.07666015625 163.16705322265625 C 125.626708984375 200.41233825683594 146.62852478027344 209.66607666015625 133.78707885742188 186.6560516357422 C 104.78038787841797 170.4823760986328 128.6084442138672 169.9143524169922 140.41259765625 172.69009399414062 C 126.47225952148438 174.15350341796875 121.47449493408203 186.69125366210938 102.54191589355469 185.87522888183594" stroke-width="2.0" fill="none" stroke="rgb(0, 0, 0)" stroke-opacity="1" stroke-linecap="round" stroke-linejoin="round"/>
    <path d="M 140.6981201171875 174.2836456298828 C 145.81259155273438 193.73446655273438 108.80647277832031 200.1531982421875 134.59738159179688 176.48204040527344 C 135.6024932861328 211.0873565673828 148.87522888183594 191.90467834472656 130.91595458984375 204.20693969726562 C 130.15760803222656 205.14791870117188 127.6954345703125 204.7870330810547 110.75674438476562 186.5462646484375" stroke-width="2.0" fill="none" stroke="rgb(0, 0, 0)" stroke-opacity="1" stroke-linecap="round" stroke-linejoin="round"/>
    <path d="M 31.058870315551758 69.47502899169922 C 77.79290008544922 54.01255798339844 63.32987976074219 61.5471305847168 71.93567657470703 62.2398567199707 C 71.81867980957031 63.901912689208984 65.24160766601562 68.55057525634766 47.02947235107422 89.46088409423828" stroke-width="2.0" fill="none" stroke="rgb(0, 0, 0)" stroke-opacity="1" stroke-linecap="round" stroke-linejoin="round"/>
    <path d="M 155.6150360107422 195.05606079101562 C 136.64125061035156 173.59951782226562 150.38917541503906 181.4463653564453 129.17347717285156 192.26803588867188 C 139.8752899169922 208.88046264648438 136.0092315673828 187.21469116210938 146.41065979003906 183.6082305908203 C 127.35162353515625 155.73379516601562 135.90821838378906 155.23751831054688 134.24600219726562 177.51290893554688" stroke-width="2.0" fill="none" stroke="rgb(0, 0, 0)" stroke-opacity="1" stroke-linecap="round" stroke-linejoin="round"/>
    <path d="M 50.88970947265625 5.898326396942139 C 58.83759689331055 42.52017593383789 58.37308883666992 43.11848449707031 59.19844055175781 41.02880096435547 C 56.140926361083984 38.00550842285156 9.492064476013184 47.74652862548828 30.25233268737793 37.71901321411133" stroke-width="2.0" fill="none" stroke="rgb(0, 0, 0)" stroke-opacity="1" stroke-linecap="round" stroke-linejoin="round"/>
    <path d="M 176.9858856201172 49.726600646972656 C 173.97207641601562 8.999667167663574 180.90162658691406 35.566322326660156 193.07015991210938 73.12264251708984 C 184.55751037597656 75.48951721191406 180.64132690429688 81.0814437866211 182.37762451171875 73.07749938964844 C 207.59434509277344 72.3606185913086 228.0166778564453 74.68767547607422 206.9773406982422 87.9314193725586" stroke-width="2.0" fill="none" stroke="rgb(0, 0, 0)" stroke-opacity="1" stroke-linecap="round" stroke-linejoin="round"/>
    <path d="M 50.78817367553711 105.00811767578125 C 56.22538375854492 84.28133392333984 41.362945556640625 106.01293182373047 76.94474792480469 68.55339813232422" stroke-width="2.0" fill="none" stroke="rgb(0, 0, 0)" stroke-opacity="1" stroke-linecap="round" stroke-linejoin="round"/>
    <path d="M 44.0281867980957 45.922664642333984 C 55.47119903564453 49.65176773071289 33.94076919555664 43.79622268676758 17.673004150390625 53.12779235839844 C 11.945503234863281 98.80567932128906 33.05240249633789 62.595481872558594 11.264055252075195 35.149173736572266 C 14.795116424560547 46.708927154541016 9.124926567077637 26.637359619140625 15.687507629394531 64.62957763671875" stroke-width="2.0" fill="none" stroke="rgb(0, 0, 0)" stroke-opacity="1" stroke-linecap="round" stroke-linejoin="round"/>
    <path d="M 174.8742218017578 103.1108169555664 C 172.1690216064453 108.32674407958984 188.25729370117188 97.87637329101562 211.14256286621094 97.44061279296875 C 220.58367919921875 84.76786041259766 187.6634063720703 95.16900634765625 166.60154724121094 96.43822479248047 C 179.60543823242188 120.05950927734375 183.77880859375 104.38223266601562 178.7451629638672 134.05865478515625" stroke-width="2.0" fill="none" stroke="rgb(0, 0, 0)" stroke-opacity="1" stroke-linecap="round" stroke-linejoin="round"/>
    <path d="M 227.77760314941406 74.86567687988281 C 224.2021026611328 79.35346984863281 243.13980102539062 81.32424926757812 230.10275268554688 95.5201187133789 C 233.59085083007812 86.41094207763672 242.80587768554688 94.67414855957031 235.92230224609375 84.86316680908203" stroke-width="2.0" fill="none" stroke="rgb(0, 0, 0)" stroke-opacity="1" stroke-linecap="round" stroke-linejoin="round"/>
    <path d="M 103.4836654663086 126.84780883789062 C 95.33773803710938 141.47459411621094 109.21892547607422 152.72933959960938 107.59822845458984 153.15467834472656 C 102.03868865966797 133.06698608398438 102.20232391357422 144.96607971191406 110.4594955444336 157.3910675048828 C 73.40967559814453 175.2923583984375 101.16089630126953 165.61912536621094 116.34374237060547 149.78819274902344" stroke-width="2.0" fill="none" stroke="rgb(0, 0, 0)" stroke-opacity="1" stroke-linecap="round" stroke-linejoin="round"/>
    <path d="M 72.89472198486328 215.65557861328125 C 73.8382568359375 220.10934448242188 71.8419189453125 185.4722442626953 77.87873840332031 149.87274169921875 C 92.23802947998047 201.7380828857422 83.89664459228516 171.7782440185547 78.81917572021484 150.9172821044922 C 81.02677154541016 164.18490600585938 82.2650375366211 167.95887756347656 90.27359771728516 196.93995666503906" stroke-width="2.0" fill="none" stroke="rgb(0, 0, 0)" stroke-opacity="1" stroke-linecap="round" stroke-linejoin="round"/>
    <path d="M 202.313720703125 76.86197662353516 C 183.71871948242188 94.6825180053711 197.0718231201172 82.35350799560547 195.9226531982422 92.15361785888672 C 220.59103393554688 86.69090270996094 201.5559539794922 100.82799530029297 211.80563354492188 72.80712127685547 C 216.88157653808594 51.76308822631836 215.1956787109375 94.9794692993164 207.90818786621094 109.16638946533203" stroke-width="2.0" fill="none" stroke="rgb(0, 0, 0)" stroke-opacity="1" stroke-linecap="round" stroke-linejoin="round"/>
    <path d="M 63.85584259033203 71.43051147460938 C 99.40887451171875 38.0720100402832 89.96833801269531 36.39033889770508 77.05142211914062 54.44137191772461" stroke-width="2.0" fill="none" stroke="rgb(0, 0, 0)" stroke-opacity="1" stroke-linecap="round" stroke-linejoin="round"/>
    <path d="M 159.6195068359375 6.469623565673828 C 165.04330444335938 24.066003799438477 160.0887451171875 9.672703742980957 141.86741638183594 19.05616569519043 C 155.70559692382812 26.024904251098633 149.61268615722656 29.76932144165039 159.9544219970703 6.636833190917969 C 167.87672424316406 28.493627548217773 168.22189331054688 42.389549255371094 165.7430877685547 31.521663665771484" stroke-width="2.0" fill="none" stroke="rgb(0, 0, 0)" stroke-opacity="1" stroke-linecap="round" stroke-linejoin="round"/>
    <path d="M 114.30496215820312 97.72636413574219 C 113.26563262939453 74.29557037353516 113.47702026367188 88.5840072631836 118.82185363769531 98.44607543945312" stroke-width="2.0" fill="none" stroke="rgb(0, 0, 0)" stroke-opacity="1" stroke-linecap="round" stroke-linejoin="round"/>
    <path d="M 130.4838409423828 105.28763580322266 C 133.5417938232422 105.43019104003906 145.82583618164062 105.1627426147461 132.40524291992188 110.77709197998047 C 144.0336151123047 100.4552001953125 144.29617309570312 104.92753601074219 147.22845458984375 120.35645294189453 C 144.00010681152344 108.69808959960938 151.9201202392578 134.73751831054688 146.26890563964844 113.5770034790039" stroke-width="2.0" fill="none" stroke="rgb(0, 0, 0)" stroke-opacity="1" stroke-linecap="round" stroke-linejoin="round"/>
    <path d="M 69.30075073242188 107.77836608886719 C 20.08253288269043 112.4976577758789 14.254444122314453 116.19591522216797 20.221229553222656 117.27901458740234 C 68.07041931152344 110.30780792236328 30.864152908325195 114.7421875 49.98381042480469 117.1178970336914 C 58.778812408447266 150.85385131835938 59.336666107177734 134.4227294921875 51.8748893737793 172.1288299560547" stroke-width="2.0" fill="none" stroke="rgb(0, 0, 0)" stroke-opacity="1" stroke-linecap="round" stroke-linejoin="round"/>
    <path d="M -5.24237585067749 175.28692626953125 C -11.508377075195312 182.7085723876953 -10.150325775146484 175.70199584960938 -3.046433925628662 183.48033142089844" stroke-width="2.0" fill="none" stroke="rgb(0, 0, 0)" stroke-opacity="1" stroke-linecap="round" stroke-linejoin="round"/>
    <path d="M 198.01564025878906 163.4969024658203 C 191.6202850341797 128.22738647460938 185.305908203125 128.5975799560547 201.6913299560547 114.61707305908203 C 199.3811798095703 118.3158950805664 205.7475128173828 142.5287628173828 204.2947998046875 153.382080078125 C 192.5594482421875 132.49742126464844 232.06275939941406 143.48019409179688 248.33531188964844 142.50318908691406" stroke-width="2.0" fill="none" stroke="rgb(0, 0, 0)" stroke-opacity="1" stroke-linecap="round" stroke-linejoin="round"/>
    <path d="M 26.745668411254883 180.8697967529297 C 2.690641403198242 187.26123046875 -0.5437371134757996 174.0723876953125 2.898930311203003 179.994140625 C 1.6312239170074463 179.65179443359375 18.483793258666992 150.5415496826172 22.68390464782715 142.2317352294922" stroke-width="2.0" fill="none" stroke="rgb(0, 0, 0)" stroke-opacity="1" stroke-linecap="round" stroke-linejoin="round"/>
    <path d="M 191.673828125 119.39137268066406 C 192.529296875 120.17790222167969 181.97242736816406 110.45723724365234 164.90980529785156 95.23306274414062" stroke-width="2.0" fill="none" stroke="rgb(0, 0, 0)" stroke-opacity="1" stroke-linecap="round" stroke-linejoin="round"/>
    <path d="M 195.34185791015625 191.3890380859375 C 218.24794006347656 191.4453887939453 240.71128845214844 196.05612182617188 194.7437286376953 195.48165893554688" stroke-width="2.0" fill="none" stroke="rgb(0, 0, 0)" stroke-opacity="1" stroke-linecap="round" stroke-linejoin="round"/>
    <path d="M 27.98226547241211 229.23133850097656 C 36.50307083129883 225.9749298095703 58.27988052368164 223.39617919921875 79.83091735839844 228.65670776367188 C 51.0157470703125 225.5374755859375 39.250144958496094 224.2996063232422 45.63421630859375 225.8124237060547" stroke-width="2.0" fill="none" stroke="rgb(0, 0, 0)" stroke-opacity="1" stroke-linecap="round" stroke-linejoin="round"/>
    <path d="M 179.19064331054688 28.26327896118164 C 182.68788146972656 26.510452270507812 169.65853881835938 32.788265228271484 176.44520568847656 34.2895393371582 C 173.15884399414062 32.33717346191406 180.8528289794922 67.2120361328125 175.616943359375 39.05120086669922 C 174.8489990234375 33.84979248046875 173.23890686035156 34.15035629272461 180.76026916503906 60.344093322753906" stroke-width="2.0" fill="none" stroke="rgb(0, 0, 0)" stroke-opacity="1" stroke-linecap="round" stroke-linejoin="round"/>
    <path d="M 89.75715637207031 159.82583618164062 C 118.88340759277344 153.412841796875 105.5988998413086 147.74562072753906 109.50645446777344 165.8208465576172" stroke-width="2.0" fill="none" stroke="rgb(0, 0, 0)" stroke-opacity="1" stroke-linecap="round" stroke-linejoin="round"/>
    <path d="M 53.48907470703125 145.1067657470703 C 75.59536743164062 114.81710052490234 38.56096649169922 129.89187622070312 34.899253845214844 154.00804138183594" stroke-width="2.0" fill="none" stroke="rgb(0, 0, 0)" stroke-opacity="1" stroke-linecap="round" stroke-linejoin="round"/>
    <path d="M 155.81796264648438 226.8009490966797 C 142.6381378173828 224.3590850830078 147.1826629638672 228.6894073486328 180.49566650390625 225.37451171875" stroke-width="2.0" fill="none" stroke="rgb(0, 0, 0)" stroke-opacity="1" stroke-linecap="round" stroke-linejoin="round"/>
    <path d="M 150.9226837158203 51.7477912902832 C 158.0006866455078 34.622005462646484 163.0439453125 22.00472640991211 149.80690002441406 49.309410095214844" stroke-width="2.0" fill="none" stroke="rgb(0, 0, 0)" stroke-opacity="1" stroke-linecap="round" stroke-linejoin="round"/>
    <path d="M 202.8651123046875 64.28955078125 C 185.81231689453125 76.7213363647461 210.56640625 58.429840087890625 217.2677764892578 67.0956802368164 C 223.68212890625 25.95999526977539 224.8605194091797 4.189225196838379 216.333984375 79.57585144042969" stroke-width="2.0" fill="none" stroke="rgb(0, 0, 0)" stroke-opacity="1" stroke-linecap="round" stroke-linejoin="round"/>
    <path d="M 179.56890869140625 197.8330841064453 C 179.22865295410156 187.6161346435547 177.0390625 218.41078186035156 175.76937866210938 211.18385314941406 C 182.45321655273438 183.13832092285156 185.27439880371094 202.18519592285156 171.99456787109375 217.99908447265625 C 146.1472625732422 215.5477752685547 168.31153869628906 199.6186981201172 177.82528686523438 177.41188049316406" stroke-width="2.0" fill="none" stroke="rgb(0, 0, 0)" stroke-opacity="1" stroke-linecap="round" stroke-linejoin="round"/>
    <path d="M 27.599411010742188 -1.2613328695297241 C 59.154571533203125 -9.074503898620605 42.12392807006836 -18.001508712768555 19.499595642089844 36.29938888549805" stroke-width="2.0" fill="none" stroke="rgb(0, 0, 0)" stroke-opacity="1" stroke-linecap="round" stroke-linejoin="round"/>
    <path d="M 68.56632232666016 50.284461975097656 C 60.381431579589844 50.43463897705078 69.57929229736328 68.7460708618164 73.30773162841797 31.342863082885742" stroke-width="2.0" fill="none" stroke="rgb(0, 0, 0)" stroke-opacity="1" stroke-linecap="round" stroke-linejoin="round"/>
    <path d="M 111.47562408447266 -2.9012813568115234 C 131.2239532470703 8.690620422363281 142.66310119628906 0.4539850652217865 158.5356903076172 -7.028020858764648" stroke-width="2.0" fill="none" stroke="rgb(0, 0, 0)" stroke-opacity="1" stroke-linecap="round" stroke-linejoin="round"/>
    <path d="M 47.740089416503906 72.535888671875 C 27.21114158630371 78.545166015625 32.36640548706055 72.8565902709961 30.252195358276367 94.52281951904297" stroke-width="2.0" fill="none" stroke="rgb(0, 0, 0)" stroke-opacity="1" stroke-linecap="round" stroke-linejoin="round"/>
    <path d="M 229.78428649902344 48.2535400390625 C 241.99302673339844 48.024986267089844 243.49427795410156 77.34626770019531 231.29759216308594 107.77144622802734" stroke-width="2.0" fill="none" stroke="rgb(0, 0, 0)" stroke-opacity="1" stroke-linecap="round" stroke-linejoin="round"/>
    <path d="M 170.20567321777344 148.17831420898438 C 185.85523986816406 121.79084777832031 164.91819763183594 150.23538208007812 170.41744995117188 130.1523895263672 C 157.90045166015625 91.21878051757812 157.3465118408203 98.83242797851562 172.7677459716797 139.84317016601562 C 175.3014678955078 126.05841827392578 184.12937927246094 98.92374420166016 172.35821533203125 116.69011688232422" stroke-width="2.0" fill="none" stroke="rgb(0, 0, 0)" stroke-opacity="1" stroke-linecap="round" stroke-linejoin="round"/>
    <path d="M 107.28190612792969 36.29969024658203 C 113.14510345458984 16.651172637939453 118.24551391601562 51.56606674194336 114.01122283935547 22.17285919189453" stroke-width="2.0" fill="none" stroke="rgb(0, 0, 0)" stroke-opacity="1" stroke-linecap="round" stroke-linejoin="round"/>
    <path d="M 200.6222686767578 177.07310485839844 C 202.85635375976562 184.1376190185547 195.9457244873047 177.84718322753906 200.5368194580078 176.55734252929688" stroke-width="2.0" fill="none" stroke="rgb(0, 0, 0)" stroke-opacity="1" stroke-linecap="round" stroke-linejoin="round"/>
    <path d="M 138.86907958984375 150.97067260742188 C 146.56719970703125 118.18341827392578 136.09788513183594 120.84101104736328 137.8583984375 133.73277282714844" stroke-width="2.0" fill="none" stroke="rgb(0, 0, 0)" stroke-opacity="1" stroke-linecap="round" stroke-linejoin="round"/>
    <path d="M 74.78577423095703 143.5142059326172 C 70.46644592285156 126.57331085205078 57.529903411865234 119.2529067993164 67.50208282470703 111.0724105834961 C 74.65586853027344 132.48468017578125 59.15281677246094 123.26044464111328 67.18809509277344 113.3150405883789 C 67.24305725097656 133.51678466796875 60.67708969116211 104.40172576904297 67.17001342773438 143.95591735839844" stroke-width="2.0" fill="none" stroke="rgb(0, 0, 0)" stroke-opacity="1" stroke-linecap="round" stroke-linejoin="round"/>
    <path d="M 198.82435607910156 118.29692077636719 C 196.4787139892578 126.87104034423828 202.42237854003906 145.37332153320312 204.69053649902344 158.1598663330078 C 203.88839721679688 147.8323211669922 200.66677856445312 146.3195037841797 196.95945739746094 120.54881286621094" stroke-width="2.0" fill="none" stroke="rgb(0, 0, 0)" stroke-opacity="1" stroke-linecap="round" stroke-linejoin="round"/>
    <path d="M 59.28078842163086 -9.87940788269043 C 64.37644958496094 5.460762023925781 71.42611694335938 9.219120979309082 88.28182983398438 42.51314163208008" stroke-width="2.0" fill="none" stroke="rgb(0, 0, 0)" stroke-opacity="1" stroke-linecap="round" stroke-linejoin="round"/>
    <path d="M 159.55447387695312 64.04072570800781 C 164.673583984375 95.39395141601562 173.51663208007812 94.38221740722656 169.89703369140625 84.02830505371094" stroke-width="2.0" fill="none" stroke="rgb(0, 0, 0)" stroke-opacity="1" stroke-linecap="round" stroke-linejoin="round"/>
    <path d="M 77.59957885742188 129.89256286621094 C 85.35834503173828 126.17815399169922 94.94445037841797 128.594970703125 78.1243667602539 104.72602844238281 C 87.15312194824219 111.28498840332031 80.48695373535156 119.56829833984375 89.23102569580078 138.942138671875" stroke-width="2.0" fill="none" stroke="rgb(0, 0, 0)" stroke-opacity="1" stroke-linecap="round" stroke-linejoin="round"/>
    <path d="M 176.955078125 219.44004821777344 C 191.6106414794922 175.51866149902344 187.9733428955078 187.25938415527344 174.94253540039062 218.76077270507812 C 185.7362823486328 227.46717834472656 199.15110778808594 230.7498779296875 161.9912567138672 213.6240692138672" stroke-width="2.0" fill="none" stroke="rgb(0, 0, 0)" stroke-opacity="1" stroke-linecap="round" stroke-linejoin="round"/>
    <path d="M 134.0004119873047 142.33013916015625 C 140.53150939941406 135.44100952148438 134.14645385742188 150.78713989257812 134.44325256347656 140.811279296875" stroke-width="2.0" fill="none" stroke="rgb(0, 0, 0)" stroke-opacity="1" stroke-linecap="round" stroke-linejoin="round"/>
    <path d="M 118.85498046875 127.37051391601562 C 146.72286987304688 123.71338653564453 158.90663146972656 125.4493408203125 147.86758422851562 128.69656372070312 C 150.55294799804688 141.1937713623047 136.3426971435547 126.93409729003906 157.31854248046875 123.67536163330078 C 165.93287658691406 157.46607971191406 173.8403778076172 160.7416534423828 166.9314422607422 133.97242736816406" stroke-width="2.0" fill="none" stroke="rgb(0, 0, 0)" stroke-opacity="1" stroke-linecap="round" stroke-linejoin="round"/>
    <path d="M 166.84007263183594 95.60120391845703 C 165.40032958984375 95.5383529663086 181.72654724121094 92.84060668945312 173.02267456054688 94.66399383544922 C 165.0041046142578 100.0652847290039 178.845703125 95.97530364990234 195.69833374023438 77.52389526367188 C 177.02389526367188 73.41059875488281 195.96826171875 88.67879486083984 192.9152374267578 86.79972839355469" stroke-width="2.0" fill="none" stroke="rgb(0, 0, 0)" stroke-opacity="1" stroke-linecap="round" stroke-linejoin="round"/>
    <path d="M 215.95994567871094 133.40663146972656 C 214.52633666992188 150.96295166015625 217.6932830810547 132.65078735351562 221.12744140625 95.68604278564453 C 211.31556701660156 152.3685302734375 217.5746612548828 139.26873779296875 217.4378662109375 120.52305603027344 C 236.9451446533203 123.84979248046875 249.30955505371094 130.09095764160156 255.04904174804688 121.36128234863281" stroke-width="2.0" fill="none" stroke="rgb(0, 0, 0)" stroke-opacity="1" stroke-linecap="round" stroke-linejoin="round"/>
    <path d="M 132.22280883789062 167.2323760986328 C 119.85823822021484 192.20065307617188 122.7662124633789 160.27125549316406 135.52459716796875 163.94264221191406 C 113.14038848876953 169.83457946777344 114.36463165283203 184.1186065673828 124.4818344116211 149.870361328125" stroke-width="2.0" fill="none" stroke="rgb(0, 0, 0)" stroke-opacity="1" stroke-linecap="round" stroke-linejoin="round"/>
    <path d="M 91.45307922363281 92.68145751953125 C 105.26380157470703 118.95616912841797 91.70511627197266 81.87198638916016 95.02178192138672 120.94075012207031" stroke-width="2.0" fill="none" stroke="rgb(0, 0, 0)" stroke-opacity="1" stroke-linecap="round" stroke-linejoin="round"/>
    <path d="M 205.4207305908203 207.1764678955078 C 167.9732208251953 211.54112243652344 192.75108337402344 203.29779052734375 233.7262420654297 208.92953491210938" stroke-width="2.0" fill="none" stroke="rgb(0, 0, 0)" stroke-opacity="1" stroke-linecap="round" stroke-linejoin="round"/>
    <path d="M 12.971506118774414 85.56632995605469 C 19.025653839111328 118.74506378173828 6.9522833824157715 70.46783447265625 10.094685554504395 35.29694366455078 C 25.915294647216797 55.54755401611328 39.819854736328125 41.66301727294922 31.45369529724121 71.85830688476562 C 25.760622024536133 59.01734161376953 39.84675216674805 41.50475311279297 16.515592575073242 52.45387649536133" stroke-width="2.0" fill="none" stroke="rgb(0, 0, 0)" stroke-opacity="1" stroke-linecap="round" stroke-linejoin="round"/>
    <path d="M 156.83474731445312 23.28244972229004 C 147.4294891357422 28.227157592773438 172.36721801757812 32.580841064453125 165.60903930664062 43.42481231689453" stroke-width="2.0" fill="none" stroke="rgb(0, 0, 0)" stroke-opacity="1" stroke-linecap="round" stroke-linejoin="round"/>
    <path d="M 82.09297180175781 115.06339263916016 C 78.2817153930664 127.18110656738281 67.3441390991211 121.48646545410156 82.7925796508789 114.85958099365234 C 99.24900817871094 141.97808837890625 84.211181640625 133.4801025390625 108.15660858154297 124.5285415649414 C 96.12129211425781 102.13993835449219 93.25431060791016 89.27070617675781 101.55481719970703 118.79395294189453" stroke-width="2.0" fill="none" stroke="rgb(0, 0, 0)" stroke-opacity="1" stroke-linecap="round" stroke-linejoin="round"/>
    <path d="M 90.4277114868164 127.83466339111328 C 99.9915771484375 143.42848205566406 111.5705795288086 156.83856201171875 108.13148498535156 113.98155975341797 C 120.77989196777344 101.06917572021484 105.6585922241211 136.008544921875 131.7177734375 129.669189453125 C 117.75560760498047 118.58936309814453 123.0359878540039 138.63185119628906 154.6627960205078 138.06875610351562" stroke-width="2.0" fill="none" stroke="rgb(0, 0, 0)" stroke-opacity="1" stroke-linecap="round" stroke-linejoin="round"/>
    <path d="M 39.130069732666016 189.85525512695312 C 45.018890380859375 168.51437377929688 38.1391716003418 191.32498168945312 38.45318603515625 189.8315887451172" stroke-width="2.0" fill="none" stroke="rgb(0, 0, 0)" stroke-opacity="1" stroke-linecap="round" stroke-linejoin="round"/>
    <path d="M 96.30186462402344 47.971092224121094 C 93.21894073486328 48.68546676635742 77.39795684814453 67.22968292236328 83.15734100341797 68.55699920654297 C 106.25860595703125 42.08040237426758 100.06684875488281 51.39167022705078 108.83216094970703 58.35225296020508 C 103.93437194824219 61.77500915527344 110.84396362304688 46.91538619995117 97.82019805908203 61.897666931152344" stroke-width="2.0" fill="none" stroke="rgb(0, 0, 0)" stroke-opacity="1" stroke-linecap="round" stroke-linejoin="round"/>
    <path d="M 95.60244750976562 170.57589721679688 C 93.44111633300781 182.6534881591797 111.07876586914062 171.19654846191406 133.8867950439453 160.62071228027344 C 136.9931182861328 160.43051147460938 134.63417053222656 159.61074829101562 112.90799713134766 171.20553588867188 C 120.26697540283203 177.96109008789062 136.9283447265625 187.94775390625 123.23047637939453 187.0255584716797" stroke-width="2.0" fill="none" stroke="rgb(0, 0, 0)" stroke-opacity="1" stroke-linecap="round" stroke-linejoin="round"/>
    <path d="M 105.9207534790039 31.365285873413086 C 100.87596130371094 47.505882263183594 110.43814849853516 40.71200942993164 90.48441314697266 15.270806312561035 C 99.64893341064453 50.840328216552734 127.82132720947266 54.79572677612305 126.94440460205078 56.456241607666016 C 119.49541473388672 47.045684814453125 101.26370239257812 53.620113372802734 119.92351531982422 37.07099533081055" stroke-width="2.0" fill="none" stroke="rgb(0, 0, 0)" stroke-opacity="1" stroke-linecap="round" stroke-linejoin="round"/>
    <path d="M 26.346141815185547 -3.6353509426116943 C 73.92473602294922 -4.1796040534973145 59.87809753417969 6.81514310836792 48.95857620239258 -2.218461751937866" stroke-width="2.0" fill="none" stroke="rgb(0, 0, 0)" stroke-opacity="1" stroke-linecap="round" stroke-linejoin="round"/>
    <path d="M 40.31273651123047 183.79421997070312 C 47.173858642578125 162.43417358398438 46.589176177978516 156.34422302246094 38.7083854675293 177.61062622070312 C 35.77616500854492 187.63575744628906 25.40234375 204.46092224121094 34.51371765136719 201.71487426757812" stroke-width="2.0" fill="none" stroke="rgb(0, 0, 0)" stroke-opacity="1" stroke-linecap="round" stroke-linejoin="round"/>
    <path d="M 66.14250946044922 80.11953735351562 C 71.22126007080078 95.75061798095703 76.13880157470703 95.62422180175781 86.88702392578125 117.95477294921875" stroke-width="2.0" fill="none" stroke="rgb(0, 0, 0)" stroke-opacity="1" stroke-linecap="round" stroke-linejoin="round"/>
    <path d="M 48.986175537109375 135.83543395996094 C 43.335853576660156 172.257568359375 57.6617546081543 145.75808715820312 17.87990951538086 165.87664794921875 C 29.742919921875 147.3877716064453 45.338932037353516 133.4497833251953 54.076541900634766 126.55244445800781 C 36.1701774597168 152.205078125 41.27401351928711 131.23764038085938 38.31754684448242 159.438232421875" stroke-width="2.0" fill="none" stroke="rgb(0, 0, 0)" stroke-opacity="1" stroke-linecap="round" stroke-linejoin="round"/>
    <path d="M 85.92765808105469 214.04380798339844 C 102.1859359741211 213.80633544921875 83.16503143310547 223.5982666015625 94.38399505615234 232.72882080078125 C 94.81329345703125 211.49559020996094 85.93990325927734 186.88845825195312 89.27101135253906 190.66339111328125" stroke-width="2.0" fill="none" stroke="rgb(0, 0, 0)" stroke-opacity="1" stroke-linecap="round" stroke-linejoin="round"/>
    <path d="M 97.95162963867188 106.63348388671875 C 115.42332458496094 107.84507751464844 153.43637084960938 104.63036346435547 129.96400451660156 109.34693908691406 C 150.64369201660156 100.21902465820312 139.2887420654297 104.26642608642578 133.76632690429688 129.4335479736328 C 132.53350830078125 147.24879455566406 110.44207763671875 111.0232925415039 128.57652282714844 158.58596801757812" stroke-width="2.0" fill="none" stroke="rgb(0, 0, 0)" stroke-opacity="1" stroke-linecap="round" stroke-linejoin="round"/>
    <path d="M 49.9610710144043 186.2499237060547 C 50.88736343383789 237.9942626953125 47.303184509277344 205.61622619628906 54.59336471557617 173.2063446044922" stroke-width="2.0" fill="none" stroke="rgb(0, 0, 0)" stroke-opacity="1" stroke-linecap="round" stroke-linejoin="round"/>
    <path d="M 144.1693572998047 167.16590881347656 C 141.2383575439453 140.54917907714844 140.39218139648438 118.99190521240234 140.50222778320312 125.57601928710938" stroke-width="2.0" fill="none" stroke="rgb(0, 0, 0)" stroke-opacity="1" stroke-linecap="round" stroke-linejoin="round"/>
    <path d="M 173.3978271484375 27.661273956298828 C 165.53977966308594 -11.965797424316406 175.8528594970703 -1.8885918855667114 161.8541717529297 -3.1536128520965576 C 157.05946350097656 -7.772641181945801 146.76104736328125 -20.800596237182617 147.09207153320312 -24.3586483001709 C 128.87020874023438 -8.607460975646973 123.85963439941406 -6.951033592224121 114.94917297363281 -2.0959067344665527" stroke-width="2.0" fill="none" stroke="rgb(0, 0, 0)" stroke-opacity="1" stroke-linecap="round" stroke-linejoin="round"/>
    <path d="M 31.13886070251465 215.30203247070312 C 25.505300521850586 238.44215393066406 30.208683013916016 198.05154418945312 32.68570327758789 210.05865478515625 C 35.9703483581543 188.74205017089844 39.26438903808594 208.5143280029297 37.47257614135742 191.83428955078125 C 30.693635940551758 218.00413513183594 26.288822174072266 231.48243713378906 29.54319953918457 207.24659729003906" stroke-width="2.0" fill="none" stroke="rgb(0, 0, 0)" stroke-opacity="1" stroke-linecap="round" stroke-linejoin="round"/>
    <path d="M 18.915769577026367 47.656917572021484 C 58.84610366821289 46.07250213623047 48.942840576171875 41.426265716552734 51.53160858154297 51.6961669921875 C 52.21908187866211 45.513465881347656 55.95933532714844 42.915916442871094 53.64677047729492 56.40169906616211 C 59.26601791381836 42.065887451171875 38.84518051147461 45.44940185546875 69.77326965332031 48.054325103759766" stroke-width="2.0" fill="none" stroke="rgb(0, 0, 0)" stroke-opacity="1" stroke-linecap="round" stroke-linejoin="round"/>
    <path d="M 138.91061401367188 230.2985382080078 C 135.0981903076172 243.85104370117188 157.42184448242188 229.25048828125 115.57588195800781 225.6087188720703 C 103.42976379394531 231.9535675048828 94.30803680419922 226.90682983398438 106.31303405761719 226.2893524169922" stroke-width="2.0" fill="none" stroke="rgb(0, 0, 0)" stroke-opacity="1" stroke-linecap="round" stroke-linejoin="round"/>
    <path d="M 181.24537658691406 116.65303039550781 C 198.93544006347656 134.62799072265625 180.0608673095703 109.26496887207031 178.51646423339844 112.93606567382812 C 194.15524291992188 137.7722930908203 171.80560302734375 128.9399871826172 182.69244384765625 126.04641723632812" stroke-width="2.0" fill="none" stroke="rgb(0, 0, 0)" stroke-opacity="1" stroke-linecap="round" stroke-linejoin="round"/>
    <path d="M 34.736446380615234 92.40814208984375 C 34.353153228759766 64.40560150146484 32.80562210083008 80.91877746582031 60.98207092285156 64.5938491821289 C 45.166481018066406 73.53833770751953 38.413455963134766 72.72665405273438 68.84923553466797 63.341678619384766 C 51.47850036621094 68.07469940185547 28.03702163696289 77.86746215820312 15.235079765319824 87.22513580322266" stroke-width="2.0" fill="none" stroke="rgb(0, 0, 0)" stroke-opacity="1" stroke-linecap="round" stroke-linejoin="round"/>
    <path d="M 67.9216079711914 161.8919677734375 C 68.70394897460938 123.46482849121094 63.03514862060547 167.1354217529297 75.67939758300781 146.95359802246094" stroke-width="2.0" fill="none" stroke="rgb(0, 0, 0)" stroke-opacity="1" stroke-linecap="round" stroke-linejoin="round"/>
    <path d="M 108.49581909179688 175.61871337890625 C 75.3500747680664 175.6062774658203 91.15633392333984 188.93585205078125 80.93502044677734 161.90013122558594" stroke-width="2.0" fill="none" stroke="rgb(0, 0, 0)" stroke-opacity="1" stroke-linecap="round" stroke-linejoin="round"/>
    <path d="M 51.95442581176758 149.84388732910156 C 44.775081634521484 193.2227020263672 55.652095794677734 167.47311401367188 60.81292724609375 127.03748321533203 C 57.00428009033203 127.03202819824219 49.608280181884766 136.08560180664062 55.851810455322266 111.3405532836914 C 52.00232696533203 138.71163940429688 52.85173416137695 126.78838348388672 63.014827728271484 110.16595458984375" stroke-width="2.0" fill="none" stroke="rgb(0, 0, 0)" stroke-opacity="1" stroke-linecap="round" stroke-linejoin="round"/>
    <path d="M 86.0097885131836 20.770692825317383 C 89.79720306396484 33.41668701171875 88.25540924072266 0.6189204454421997 81.99332427978516 15.605060577392578" stroke-width="2.0" fill="none" stroke="rgb(0, 0, 0)" stroke-opacity="1" stroke-linecap="round" stroke-linejoin="round"/>
    <path d="M 87.71209716796875 109.07101440429688 C 93.47557830810547 104.08675384521484 86.93474578857422 102.67507934570312 138.7300567626953 104.68606567382812" stroke-width="2.0" fill="none" stroke="rgb(0, 0, 0)" stroke-opacity="1" stroke-linecap="round" stroke-linejoin="round"/>
    <path d="M 139.576171875 184.27130126953125 C 139.477294921875 157.6395721435547 126.410888671875 145.5181121826172 118.69589233398438 127.92203521728516" stroke-width="2.0" fill="none" stroke="rgb(0, 0, 0)" stroke-opacity="1" stroke-linecap="round" stroke-linejoin="round"/>
    <path d="M 23.19607925415039 211.02597045898438 C 20.46827507019043 228.26434326171875 16.295522689819336 210.27227783203125 33.69218826293945 226.24476623535156 C 24.408437728881836 228.3032989501953 42.368892669677734 229.6100616455078 53.14116668701172 226.03964233398438" stroke-width="2.0" fill="none" stroke="rgb(0, 0, 0)" stroke-opacity="1" stroke-linecap="round" stroke-linejoin="round"/>
    <path d="M 110.69882202148438 137.1582489013672 C 96.26270294189453 144.2902374267578 124.9165267944336 157.29188537597656 88.10548400878906 152.63417053222656 C 99.63518524169922 192.3008575439453 108.17904663085938 185.0096893310547 96.8027572631836 176.11305236816406 C 115.17488861083984 171.82272338867188 133.7436981201172 161.1058349609375 110.36503601074219 171.91192626953125" stroke-width="2.0" fill="none" stroke="rgb(0, 0, 0)" stroke-opacity="1" stroke-linecap="round" stroke-linejoin="round"/>
    <path d="M 23.15729331970215 187.58697509765625 C -15.97670841217041 175.52731323242188 -14.11784553527832 163.94418334960938 -17.049314498901367 152.06117248535156 C -19.765438079833984 144.48817443847656 -13.124189376831055 138.40316772460938 -11.860998153686523 143.6245574951172" stroke-width="2.0" fill="none" stroke="rgb(0, 0, 0)" stroke-opacity="1" stroke-linecap="round" stroke-linejoin="round"/>
    <path d="M 75.57896423339844 70.06262969970703 C 96.30522918701172 42.905189514160156 115.53155517578125 44.49660110473633 91.6232681274414 69.28728485107422" stroke-width="2.0" fill="none" stroke="rgb(0, 0, 0)" stroke-opacity="1" stroke-linecap="round" stroke-linejoin="round"/>
    <path d="M 40.79035186767578 128.97085571289062 C 32.25737380981445 117.44891357421875 55.92159652709961 138.46974182128906 41.741615295410156 114.93539428710938" stroke-width="2.0" fill="none" stroke="rgb(0, 0, 0)" stroke-opacity="1" stroke-linecap="round" stroke-linejoin="round"/>
    <path d="M 161.89537048339844 53.028160095214844 C 168.30984497070312 95.4007339477539 172.46917724609375 87.90351104736328 160.7060089111328 45.340736389160156" stroke-width="2.0" fill="none" stroke="rgb(0, 0, 0)" stroke-opacity="1" stroke-linecap="round" stroke-linejoin="round"/>
    <path d="M 166.50819396972656 3.9443464279174805 C 142.9706573486328 12.962289810180664 151.26312255859375 15.414189338684082 167.81483459472656 2.754870653152466 C 164.79598999023438 2.7878687381744385 167.29176330566406 24.715951919555664 174.97842407226562 18.5742130279541" stroke-width="2.0" fill="none" stroke="rgb(0, 0, 0)" stroke-opacity="1" stroke-linecap="round" stroke-linejoin="round"/>
    <path d="M 21.53032875061035 82.21672821044922 C 14.740767478942871 90.20740509033203 28.096139907836914 75.82697296142578 11.872745513916016 85.25398254394531 C 28.14683723449707 85.06278228759766 22.503549575805664 73.02704620361328 23.171329498291016 93.34017944335938" stroke-width="2.0" fill="none" stroke="rgb(0, 0, 0)" stroke-opacity="1" stroke-linecap="round" stroke-linejoin="round"/>
    <path d="M 116.7816162109375 119.74331665039062 C 116.52083587646484 136.92633056640625 126.96769714355469 143.81301879882812 129.56307983398438 157.8370819091797" stroke-width="2.0" fill="none" stroke="rgb(0, 0, 0)" stroke-opacity="1" stroke-linecap="round" stroke-linejoin="round"/>
    <path d="M 177.15635681152344 -3.9023234844207764 C 166.95298767089844 -0.6748479008674622 153.00967407226562 2.5858073234558105 122.41278076171875 1.6299322843551636 C 142.8971710205078 5.445138454437256 133.58023071289062 -6.280840873718262 141.79322814941406 -1.702575922012329" stroke-width="2.0" fill="none" stroke="rgb(0, 0, 0)" stroke-opacity="1" stroke-linecap="round" stroke-linejoin="round"/>
    <path d="M 85.3395767211914 228.736083984375 C 83.02295684814453 185.00411987304688 91.10638427734375 233.2884521484375 89.23026275634766 195.04598999023438 C 94.90587615966797 220.9619598388672 91.2879867553711 245.5974884033203 90.78076934814453 232.31996154785156" stroke-width="2.0" fill="none" stroke="rgb(0, 0, 0)" stroke-opacity="1" stroke-linecap="round" stroke-linejoin="round"/>
    <path d="M 86.15565490722656 150.2710418701172 C 97.34844207763672 177.2826385498047 91.97653198242188 164.8951416015625 78.56961059570312 133.9027099609375" stroke-width="2.0" fill="none" stroke="rgb(0, 0, 0)" stroke-opacity="1" stroke-linecap="round" stroke-linejoin="round"/>
    <path d="M 41.309871673583984 97.64359283447266 C 46.191654205322266 99.24571228027344 40.71162796020508 115.8925552368164 41.34324264526367 98.47477722167969 C 63.61433410644531 95.97710418701172 35.89657211303711 95.11780548095703 12.613758087158203 103.72117614746094" stroke-width="2.0" fill="none" stroke="rgb(0, 0, 0)" stroke-opacity="1" stroke-linecap="round" stroke-linejoin="round"/>
    <path d="M 41.30438232421875 230.28286743164062 C 46.89351272583008 224.8214569091797 55.48969268798828 240.6171112060547 54.29077911376953 248.6393585205078" stroke-width="2.0" fill="none" stroke="rgb(0, 0, 0)" stroke-opacity="1" stroke-linecap="round" stroke-linejoin="round"/>
    <path d="M 28.7823429107666 117.8674087524414 C 39.33649444580078 173.96224975585938 18.166940689086914 128.46505737304688 8.912739753723145 95.25767517089844 C 11.479520797729492 106.76576232910156 10.303221702575684 98.84046173095703 29.942224502563477 140.5795135498047 C 19.29130744934082 96.26045989990234 -5.5770392417907715 110.79182434082031 36.35409164428711 98.05223083496094" stroke-width="2.0" fill="none" stroke="rgb(0, 0, 0)" stroke-opacity="1" stroke-linecap="round" stroke-linejoin="round"/>
    <path d="M 88.63448333740234 95.6899642944336 C 94.71382141113281 81.93756103515625 82.26317596435547 90.20228576660156 76.31017303466797 94.71134185791016" stroke-width="2.0" fill="none" stroke="rgb(0, 0, 0)" stroke-opacity="1" stroke-linecap="round" stroke-linejoin="round"/>
    <path d="M 178.0738067626953 61.656864166259766 C 175.2330322265625 20.418203353881836 157.60874938964844 -19.858606338500977 161.2161865234375 25.343000411987305 C 139.3045654296875 24.233736038208008 157.63856506347656 21.03812026977539 167.28439331054688 42.941829681396484 C 155.8909454345703 21.230127334594727 151.63766479492188 24.747575759887695 160.3162384033203 31.624801635742188" stroke-width="2.0" fill="none" stroke="rgb(0, 0, 0)" stroke-opacity="1" stroke-linecap="round" stroke-linejoin="round"/>
    <path d="M 112.59614562988281 140.78871154785156 C 97.9651107788086 142.1279754638672 97.63111114501953 135.85812377929688 105.88113403320312 125.1155014038086 C 103.72917175292969 150.28700256347656 83.72227478027344 143.85267639160156 85.11834716796875 148.29638671875" stroke-width="2.0" fill="none" stroke="rgb(0, 0, 0)" stroke-opacity="1" stroke-linecap="round" stroke-linejoin="round"/>
    <path d="M 145.31912231445312 214.7099609375 C 137.69158935546875 207.30711364746094 134.90296936035156 224.5814971923828 133.94342041015625 217.5367431640625 C 166.15521240234375 202.90406799316406 150.0363006591797 205.43807983398438 121.26961517333984 224.23329162597656 C 123.11122131347656 242.14605712890625 128.53782653808594 248.63963317871094 141.35696411132812 253.59634399414062" stroke-width="2.0" fill="none" stroke="rgb(0, 0, 0)" stroke-opacity="1" stroke-linecap="round" stroke-linejoin="round"/>
    <path d="M 123.82808685302734 180.0631561279297 C 103.26895141601562 165.26930236816406 103.95813751220703 158.2259521484375 114.47456359863281 165.25462341308594" stroke-width="2.0" fill="none" stroke="rgb(0, 0, 0)" stroke-opacity="1" stroke-linecap="round" stroke-linejoin="round"/>
    <path d="M 112.27024841308594 167.24742126464844 C 119.92231750488281 147.04656982421875 116.052001953125 155.2998809814453 120.7803726196289 144.98504638671875" stroke-width="2.0" fill="none" stroke="rgb(0, 0, 0)" stroke-opacity="1" stroke-linecap="round" stroke-linejoin="round"/>
    <path d="M 205.73121643066406 113.73241424560547 C 213.2779541015625 157.9767303466797 206.88616943359375 139.0182647705078 216.3451385498047 80.64866638183594 C 181.55227661132812 68.29475402832031 199.73611450195312 84.03460693359375 192.76364135742188 74.89927673339844 C 180.31231689453125 67.46351623535156 185.1483917236328 97.32157897949219 179.76788330078125 68.0210189819336" stroke-width="2.0" fill="none" stroke="rgb(0, 0, 0)" stroke-opacity="1" stroke-linecap="round" stroke-linejoin="round"/>
    <path d="M 57.169898986816406 47.241065979003906 C 71.2886734008789 72.6503677368164 74.27989959716797 71.89581298828125 78.8704833984375 27.336124420166016 C 92.70328521728516 49.75681686401367 90.76351928710938 57.130836486816406 78.71747589111328 25.727365493774414" stroke-width="2.0" fill="none" stroke="rgb(0, 0, 0)" stroke-opacity="1" stroke-linecap="round" stroke-linejoin="round"/>
    <path d="M 110.72367858886719 212.79608154296875 C 114.88583374023438 218.5487060546875 107.44015502929688 203.9786834716797 109.53982543945312 214.36134338378906 C 112.93779754638672 241.20269775390625 119.53697967529297 232.87356567382812 102.63953399658203 227.17393493652344 C 108.79783630371094 224.3700714111328 118.66984558105469 225.18118286132812 114.28739929199219 233.39639282226562" stroke-width="2.0" fill="none" stroke="rgb(0, 0, 0)" stroke-opacity="1" stroke-linecap="round" stroke-linejoin="round"/>
    <path d="M 64.06295013427734 157.9329376220703 C 65.03437805175781 206.927734375 60.53802490234375 237.31500244140625 60.73588943481445 203.77212524414062" stroke-width="2.0" fill="none" stroke="rgb(0, 0, 0)" stroke-opacity="1" stroke-linecap="round" stroke-linejoin="round"/>
    <path d="M 153.18251037597656 114.89908599853516 C 172.22373962402344 83.05966186523438 138.45591735839844 100.46344757080078 158.1647186279297 116.41670227050781" stroke-width="2.0" fill="none" stroke="rgb(0, 0, 0)" stroke-opacity="1" stroke-linecap="round" stroke-linejoin="round"/>
    <path d="M 94.43263244628906 -2.5350522994995117 C 91.89356231689453 -2.3801870346069336 92.60079193115234 -8.708965301513672 89.0872573852539 -12.0735445022583" stroke-width="2.0" fill="none" stroke="rgb(0, 0, 0)" stroke-opacity="1" stroke-linecap="round" stroke-linejoin="round"/>
    <path d="M 117.97612762451172 209.9174346923828 C 97.46479797363281 178.7643585205078 96.01087951660156 181.7601776123047 111.82625579833984 178.68663024902344 C 110.00746154785156 180.31495666503906 74.25004577636719 183.6212158203125 105.7833480834961 180.2814178466797" stroke-width="2.0" fill="none" stroke="rgb(0, 0, 0)" stroke-opacity="1" stroke-linecap="round" stroke-linejoin="round"/>
    <path d="M 66.2922134399414 59.58038330078125 C 76.69841003417969 39.054107666015625 73.79878997802734 -0.9671556949615479 66.81136322021484 16.350231170654297" stroke-width="2.0" fill="none" stroke="rgb(0, 0, 0)" stroke-opacity="1" stroke-linecap="round" stroke-linejoin="round"/>
    <path d="M 70.89339447021484 215.0712127685547 C 71.97312927246094 197.04116821289062 77.12516784667969 155.4637908935547 80.1332778930664 189.77392578125" stroke-width="2.0" fill="none" stroke="rgb(0, 0, 0)" stroke-opacity="1" stroke-linecap="round" stroke-linejoin="round"/>
    <path d="M 177.94480895996094 -16.18476104736328 C 184.96575927734375 0.03582185134291649 188.36488342285156 7.718404293060303 206.8288116455078 32.54720687866211 C 184.9705352783203 4.329421520233154 165.0335693359375 -36.25347900390625 199.30877685546875 7.194436073303223" stroke-width="2.0" fill="none" stroke="rgb(0, 0, 0)" stroke-opacity="1" stroke-linecap="round" stroke-linejoin="round"/>
    <path d="M 103.6898422241211 144.04751586914062 C 105.81687927246094 142.52435302734375 88.2431411743164 121.77423095703125 104.45240783691406 133.1800537109375 C 105.0918960571289 116.72760772705078 90.44291687011719 147.66748046875 106.0943603515625 127.15029907226562" stroke-width="2.0" fill="none" stroke="rgb(0, 0, 0)" stroke-opacity="1" stroke-linecap="round" stroke-linejoin="round"/>
    <path d="M 182.25140380859375 225.43927001953125 C 192.5831298828125 163.83990478515625 196.16224670410156 173.299560546875 174.6737823486328 217.7189483642578" stroke-width="2.0" fill="none" stroke="rgb(0, 0, 0)" stroke-opacity="1" stroke-linecap="round" stroke-linejoin="round"/>
    <path d="M 39.478511810302734 129.7238311767578 C 39.81032943725586 104.09140014648438 33.51047897338867 111.30683898925781 36.23959732055664 133.02357482910156" stroke-width="2.0" fill="none" stroke="rgb(0, 0, 0)" stroke-opacity="1" stroke-linecap="round" stroke-linejoin="round"/>
    <path d="M 228.44427490234375 42.29670715332031 C 223.8814697265625 42.587005615234375 231.93768310546875 42.85603713989258 238.1792755126953 45.175445556640625 C 235.07064819335938 42.55867004394531 234.73741149902344 33.33345031738281 226.2489471435547 31.317556381225586" stroke-width="2.0" fill="none" stroke="rgb(0, 0, 0)" stroke-opacity="1" stroke-linecap="round" stroke-linejoin="round"/>
    <path d="M 91.3900146484375 99.97105407714844 C 92.25005340576172 89.38958740234375 84.23963928222656 79.31710052490234 96.46675872802734 100.705078125 C 86.50626373291016 106.28956604003906 99.26605987548828 116.90522003173828 91.35418701171875 116.0038070678711" stroke-width="2.0" fill="none" stroke="rgb(0, 0, 0)" stroke-opacity="1" stroke-linecap="round" stroke-linejoin="round"/>
    <path d="M 146.7144012451172 115.63658905029297 C 146.8047637939453 134.36680603027344 146.54986572265625 110.10342407226562 146.12950134277344 113.17881774902344 C 144.56727600097656 109.06505584716797 136.94357299804688 95.1588134765625 138.71090698242188 74.93778228759766 C 141.55752563476562 73.78800964355469 131.9295196533203 84.01861572265625 133.98977661132812 100.06629180908203" stroke-width="2.0" fill="none" stroke="rgb(0, 0, 0)" stroke-opacity="1" stroke-linecap="round" stroke-linejoin="round"/>
    <path d="M -0.28780901432037354 230.2989044189453 C -9.803709983825684 224.5391387939453 -3.122715950012207 197.8538055419922 -11.063987731933594 213.61703491210938 C 5.678114891052246 246.97361755371094 3.6457479000091553 236.97476196289062 4.429159641265869 231.90992736816406" stroke-width="2.0" fill="none" stroke="rgb(0, 0, 0)" stroke-opacity="1" stroke-linecap="round" stroke-linejoin="round"/>
    <path d="M 43.437137603759766 145.0630340576172 C 60.35932540893555 118.69983673095703 37.75205612182617 137.87054443359375 23.72865104675293 165.37525939941406" stroke-width="2.0" fill="none" stroke="rgb(0, 0, 0)" stroke-opacity="1" stroke-linecap="round" stroke-linejoin="round"/>
    <path d="M -4.95178747177124 15.44238567352295 C -13.795013427734375 18.168672561645508 -8.966981887817383 1.4393575191497803 -6.4676666259765625 10.084578514099121" stroke-width="2.0" fill="none" stroke="rgb(0, 0, 0)" stroke-opacity="1" stroke-linecap="round" stroke-linejoin="round"/>
    <path d="M 211.9777069091797 27.35244369506836 C 212.1436309814453 19.942594528198242 218.2476348876953 32.40258026123047 198.9163055419922 7.62859582901001 C 220.58892822265625 -1.9943941831588745 230.0817108154297 -2.0314266681671143 224.6403350830078 -6.069276809692383" stroke-width="2.0" fill="none" stroke="rgb(0, 0, 0)" stroke-opacity="1" stroke-linecap="round" stroke-linejoin="round"/>
    <path d="M -7.883927345275879 102.82809448242188 C -6.9675374031066895 114.72046661376953 -7.37097692489624 115.49205017089844 -12.280051231384277 105.62039947509766" stroke-width="2.0" fill="none" stroke="rgb(0, 0, 0)" stroke-opacity="1" stroke-linecap="round" stroke-linejoin="round"/>
    <path d="M 54.883323669433594 120.54339599609375 C 55.83884811401367 110.14277648925781 83.9521713256836 109.18952941894531 20.976652145385742 115.31143951416016" stroke-width="2.0" fill="none" stroke="rgb(0, 0, 0)" stroke-opacity="1" stroke-linecap="round" stroke-linejoin="round"/>
    <path d="M 66.9568099975586 39.52836990356445 C 68.83895874023438 17.857555389404297 77.06448364257812 1.878334879875183 81.30274200439453 48.50998306274414" stroke-width="2.0" fill="none" stroke="rgb(0, 0, 0)" stroke-opacity="1" stroke-linecap="round" stroke-linejoin="round"/>
    <path d="M 192.1750030517578 166.8653564453125 C 165.15440368652344 211.3963623046875 168.23880004882812 237.49188232421875 155.131591796875 202.2418975830078 C 178.59133911132812 159.28506469726562 174.7494659423828 182.75352478027344 160.80833435058594 157.6908416748047" stroke-width="2.0" fill="none" stroke="rgb(0, 0, 0)" stroke-opacity="1" stroke-linecap="round" stroke-linejoin="round"/>
    <path d="M 131.1873321533203 6.234432697296143 C 163.02008056640625 -1.8559333086013794 186.9796142578125 -5.094143867492676 156.22451782226562 7.214787483215332 C 178.8961944580078 4.192223072052002 167.65240478515625 -12.775014877319336 181.93252563476562 26.995180130004883" stroke-width="2.0" fill="none" stroke="rgb(0, 0, 0)" stroke-opacity="1" stroke-linecap="round" stroke-linejoin="round"/>
    <path d="M 162.01995849609375 -2.4758667945861816 C 155.2271728515625 -8.844051361083984 153.80836486816406 -18.081008911132812 161.86141967773438 -21.789514541625977" stroke-width="2.0" fill="none" stroke="rgb(0, 0, 0)" stroke-opacity="1" stroke-linecap="round" stroke-linejoin="round"/>
    <path d="M 24.772207260131836 40.009368896484375 C 44.12712478637695 9.743634223937988 45.46073913574219 -10.633834838867188 44.23605728149414 38.80657958984375 C 32.76119613647461 7.353056907653809 49.9272575378418 -5.476937770843506 64.61460876464844 -4.064329147338867" stroke-width="2.0" fill="none" stroke="rgb(0, 0, 0)" stroke-opacity="1" stroke-linecap="round" stroke-linejoin="round"/>
    <path d="M 22.59830665588379 183.24429321289062 C 32.54473114013672 186.45419311523438 2.051475763320923 184.21630859375 32.78032302856445 179.87542724609375 C 32.18767166137695 178.2384033203125 39.7989387512207 180.8497314453125 27.44483184814453 180.74850463867188 C 28.860158920288086 179.3389129638672 15.011661529541016 209.61082458496094 17.082109451293945 207.28988647460938" stroke-width="2.0" fill="none" stroke="rgb(0, 0, 0)" stroke-opacity="1" stroke-linecap="round" stroke-linejoin="round"/>
    <path d="M 74.1398696899414 75.16019439697266 C 76.07881927490234 89.1565170288086 77.6524658203125 66.12345123291016 74.88699340820312 80.37358856201172 C 71.23282623291016 64.83470916748047 81.3079833984375 71.26155090332031 99.95335388183594 51.72780990600586 C 105.71638488769531 51.44414520263672 89.68307495117188 43.86772537231445 84.37521362304688 38.501548767089844" stroke-width="2.0" fill="none" stroke="rgb(0, 0, 0)" stroke-opacity="1" stroke-linecap="round" stroke-linejoin="round"/>
    <path d="M 89.37451171875 88.80889892578125 C 109.40938568115234 123.75120544433594 118.83927917480469 119.44408416748047 89.60852813720703 125.18368530273438 C 96.46652221679688 123.52276611328125 86.46710968017578 128.76771545410156 84.3717041015625 119.2430419921875 C 88.95085906982422 129.34640502929688 99.72698974609375 149.37933349609375 102.89849853515625 154.4850616455078" stroke-width="2.0" fill="none" stroke="rgb(0, 0, 0)" stroke-opacity="1" stroke-linecap="round" stroke-linejoin="round"/>
    <path d="M 84.90836334228516 134.5321044921875 C 75.90728759765625 143.80177307128906 75.04719543457031 109.67918395996094 63.27090835571289 95.70630645751953 C 72.32097625732422 82.56649780273438 66.52539825439453 83.8836669921875 79.41194915771484 112.06513977050781" stroke-width="2.0" fill="none" stroke="rgb(0, 0, 0)" stroke-opacity="1" stroke-linecap="round" stroke-linejoin="round"/>
    <path d="M 14.165452003479004 129.93466186523438 C 13.217766761779785 147.62538146972656 6.006712436676025 115.2591781616211 3.262962579727173 97.45028686523438 C 10.398954391479492 129.8436737060547 11.286084175109863 130.92066955566406 4.461578369140625 104.84675598144531 C 18.198509216308594 157.92669677734375 11.851999282836914 163.29164123535156 21.13278579711914 138.74522399902344" stroke-width="2.0" fill="none" stroke="rgb(0, 0, 0)" stroke-opacity="1" stroke-linecap="round" stroke-linejoin="round"/>
    <path d="M 121.4957046508789 66.06981658935547 C 91.02369689941406 42.64853286743164 104.2988052368164 45.45767593383789 82.65386962890625 63.002105712890625 C 89.30654907226562 71.00550079345703 75.16526794433594 66.45873260498047 86.07740783691406 74.33251953125 C 94.85651397705078 66.10869598388672 123.80918884277344 41.14845657348633 106.07494354248047 74.39281463623047" stroke-width="2.0" fill="none" stroke="rgb(0, 0, 0)" stroke-opacity="1" stroke-linecap="round" stroke-linejoin="round"/>
    <path d="M 120.61023712158203 58.990386962890625 C 126.94525146484375 54.67290496826172 136.29367065429688 49.842628479003906 117.6579360961914 71.46913146972656 C 135.94813537597656 48.615821838378906 125.04434967041016 56.82072067260742 112.05274963378906 48.41782760620117 C 93.14151763916016 35.92496109008789 116.43148040771484 43.46965026855469 109.90213775634766 36.000755310058594" stroke-width="2.0" fill="none" stroke="rgb(0, 0, 0)" stroke-opacity="1" stroke-linecap="round" stroke-linejoin="round"/>
    <path d="M 124.102783203125 113.19416809082031 C 122.81316375732422 105.72808074951172 126.35298919677734 95.5033187866211 128.1937713623047 121.67628479003906" stroke-width="2.0" fill="none" stroke="rgb(0, 0, 0)" stroke-opacity="1" stroke-linecap="round" stroke-linejoin="round"/>
    <path d="M 18.222339630126953 21.01263999938965 C 19.292091369628906 7.865920066833496 22.386789321899414 33.85311508178711 15.084551811218262 17.95111083984375 C 5.826047897338867 41.3513069152832 2.102252960205078 24.23128890991211 22.50597381591797 45.024017333984375 C 3.034762144088745 49.96746826171875 19.7926025390625 40.503108978271484 18.06389808654785 42.904109954833984" stroke-width="2.0" fill="none" stroke="rgb(0, 0, 0)" stroke-opacity="1" stroke-linecap="round" stroke-linejoin="round"/>
    <path d="M 44.2326774597168 -3.5043749809265137 C 49.498779296875 -13.660067558288574 50.45816421508789 13.65841007232666 52.05316162109375 34.19224166870117" stroke-width="2.0" fill="none" stroke="rgb(0, 0, 0)" stroke-opacity="1" stroke-linecap="round" stroke-linejoin="round"/>
    <path d="M 229.00137329101562 122.70240783691406 C 225.88978576660156 119.87487030029297 235.3622283935547 110.49911499023438 243.55377197265625 102.76329803466797" stroke-width="2.0" fill="none" stroke="rgb(0, 0, 0)" stroke-opacity="1" stroke-linecap="round" stroke-linejoin="round"/>
    <path d="M 153.71359252929688 134.08901977539062 C 156.7049102783203 103.27349853515625 153.60977172851562 144.86119079589844 181.39047241210938 168.68873596191406 C 190.4882354736328 145.9436492919922 194.46885681152344 138.7321319580078 192.21234130859375 141.75775146484375" stroke-width="2.0" fill="none" stroke="rgb(0, 0, 0)" stroke-opacity="1" stroke-linecap="round" stroke-linejoin="round"/>
    <path d="M 74.72569274902344 95.96820831298828 C 88.52774047851562 88.58307647705078 68.4659194946289 99.24492645263672 83.27227020263672 88.3830337524414 C 68.01582336425781 101.27835083007812 74.29814147949219 95.89546966552734 78.62223052978516 91.93220520019531" stroke-width="2.0" fill="none" stroke="rgb(0, 0, 0)" stroke-opacity="1" stroke-linecap="round" stroke-linejoin="round"/>
    <path d="M 5.182141304016113 90.68395233154297 C 3.9280786514282227 95.39334106445312 4.035285472869873 87.24745178222656 3.681334972381592 86.81244659423828 C 2.41886305809021 61.01271057128906 2.9975013732910156 83.40741729736328 5.148280620574951 91.46028900146484" stroke-width="2.0" fill="none" stroke="rgb(0, 0, 0)" stroke-opacity="1" stroke-linecap="round" stroke-linejoin="round"/>
    <path d="M 146.4929656982422 57.45521545410156 C 115.71275329589844 17.676162719726562 112.70423889160156 -0.4638458490371704 119.0135269165039 16.156517028808594 C 114.80098724365234 6.267037868499756 114.686279296875 14.797825813293457 117.72293853759766 33.946468353271484" stroke-width="2.0" fill="none" stroke="rgb(0, 0, 0)" stroke-opacity="1" stroke-linecap="round" stroke-linejoin="round"/>
    <path d="M 40.511722564697266 91.02767181396484 C 50.34799575805664 57.1342658996582 55.19268798828125 71.57967376708984 31.58575439453125 77.69580078125 C 31.05034637451172 86.43952941894531 37.69123840332031 64.79930877685547 38.2275276184082 81.9034652709961" stroke-width="2.0" fill="none" stroke="rgb(0, 0, 0)" stroke-opacity="1" stroke-linecap="round" stroke-linejoin="round"/>
    <path d="M 142.02891540527344 13.350310325622559 C 125.6075668334961 6.772014141082764 176.61187744140625 15.377961158752441 148.39015197753906 20.36294174194336 C 154.9776611328125 10.432623863220215 173.71347045898438 1.0534467697143555 147.7453155517578 10.0200777053833 C 150.37606811523438 15.642251014709473 128.7479705810547 18.807069778442383 159.78701782226562 25.221174240112305" stroke-width="2.0" fill="none" stroke="rgb(0, 0, 0)" stroke-opacity="1" stroke-linecap="round" stroke-linejoin="round"/>
    <path d="M 161.21246337890625 211.50332641601562 C 161.70230102539062 213.8374481201172 166.77464294433594 199.11952209472656 176.23924255371094 176.3238983154297" stroke-width="2.0" fill="none" stroke="rgb(0, 0, 0)" stroke-opacity="1" stroke-linecap="round" stroke-linejoin="round"/>
    <path d="M 10.793724060058594 210.4645538330078 C 8.9683198928833 205.64988708496094 10.743444442749023 236.05174255371094 11.838011741638184 209.9258270263672" stroke-width="2.0" fill="none" stroke="rgb(0, 0, 0)" stroke-opacity="1" stroke-linecap="round" stroke-linejoin="round"/>
    <path d="M 107.25028991699219 204.9932098388672 C 124.7616958618164 200.8187255859375 100.82781982421875 216.72718811035156 134.7940216064453 202.3591766357422 C 121.7544937133789 207.86207580566406 107.4538345336914 218.14450073242188 109.13101959228516 210.0742645263672 C 116.4214096069336 259.31964111328125 108.89448547363281 254.17686462402344 97.87040710449219 194.36830139160156" stroke-width="2.0" fill="none" stroke="rgb(0, 0, 0)" stroke-opacity="1" stroke-linecap="round" stroke-linejoin="round"/>
    <path d="M 95.86833953857422 33.817718505859375 C 86.43128967285156 44.716758728027344 96.36080932617188 13.821460723876953 107.27841186523438 26.348426818847656 C 100.1192626953125 44.60131072998047 112.17607879638672 37.291446685791016 116.38778686523438 10.584614753723145" stroke-width="2.0" fill="none" stroke="rgb(0, 0, 0)" stroke-opacity="1" stroke-linecap="round" stroke-linejoin="round"/>
    <path d="M -3.585657835006714 193.84632873535156 C -8.19701099395752 196.9966278076172 -5.004045009613037 224.16995239257812 -10.289212226867676 209.8668670654297 C -6.508471488952637 219.447021484375 -4.806652545928955 220.2095184326172 -6.4813008308410645 227.89053344726562 C -2.1002347469329834 238.25765991210938 7.102984428405762 233.8030242919922 14.479299545288086 234.365478515625" stroke-width="2.0" fill="none" stroke="rgb(0, 0, 0)" stroke-opacity="1" stroke-linecap="round" stroke-linejoin="round"/>
    <path d="M 227.69021606445312 171.83047485351562 C 231.44564819335938 215.79420471191406 228.64337158203125 207.10240173339844 229.7288055419922 201.02061462402344" stroke-width="2.0" fill="none" stroke="rgb(0, 0, 0)" stroke-opacity="1" stroke-linecap="round" stroke-linejoin="round"/>
    <path d="M 38.355438232421875 230.5935821533203 C 29.071998596191406 240.62208557128906 34.60218811035156 245.91416931152344 32.0252571105957 253.6084747314453" stroke-width="2.0" fill="none" stroke="rgb(0, 0, 0)" stroke-opacity="1" stroke-linecap="round" stroke-linejoin="round"/>
    <path d="M 179.0831756591797 60.444610595703125 C 181.6984100341797 65.92717742919922 176.3821258544922 31.889039993286133 164.5984649658203 7.001523971557617" stroke-width="2.0" fill="none" stroke="rgb(0, 0, 0)" stroke-opacity="1" stroke-linecap="round" stroke-linejoin="round"/>
    <path d="M 25.051898956298828 9.96885871887207 C 22.145130157470703 27.354663848876953 51.10062026977539 -32.12836456298828 13.70573902130127 19.6851806640625" stroke-width="2.0" fill="none" stroke="rgb(0, 0, 0)" stroke-opacity="1" stroke-linecap="round" stroke-linejoin="round"/>
    <path d="M -3.7928993701934814 90.82672882080078 C -11.005433082580566 94.12330627441406 -23.407276153564453 75.29612731933594 -7.605240821838379 71.43587493896484 C -5.023570537567139 55.68210220336914 -1.9488686323165894 45.91989517211914 -5.5551981925964355 69.3363037109375" stroke-width="2.0" fill="none" stroke="rgb(0, 0, 0)" stroke-opacity="1" stroke-linecap="round" stroke-linejoin="round"/>
    <path d="M 67.52163696289062 40.70075988769531 C 64.5084228515625 47.195621490478516 65.93146514892578 34.98358154296875 54.533599853515625 -5.852047920227051" stroke-width="2.0" fill="none" stroke="rgb(0, 0, 0)" stroke-opacity="1" stroke-linecap="round" stroke-linejoin="round"/>
    <path d="M 163.3078155517578 122.04576110839844 C 137.2710723876953 127.05093383789062 153.65670776367188 125.47328186035156 149.6793670654297 127.0160140991211" stroke-width="2.0" fill="none" stroke="rgb(0, 0, 0)" stroke-opacity="1" stroke-linecap="round" stroke-linejoin="round"/>
    <path d="M 174.66725158691406 203.84234619140625 C 186.05441284179688 205.7522430419922 180.5531005859375 188.79525756835938 172.85130310058594 214.27914428710938 C 176.5369873046875 222.1002197265625 153.41964721679688 215.46615600585938 151.62586975097656 192.98190307617188 C 139.90057373046875 209.07696533203125 157.27113342285156 176.1446990966797 143.43360900878906 192.96702575683594" stroke-width="2.0" fill="none" stroke="rgb(0, 0, 0)" stroke-opacity="1" stroke-linecap="round" stroke-linejoin="round"/>
    <path d="M 106.32669067382812 36.589088439941406 C 116.3272933959961 24.271360397338867 118.03279113769531 13.103289604187012 105.73757934570312 38.67216873168945 C 102.91670227050781 17.682567596435547 91.60344696044922 17.492494583129883 67.45497131347656 -1.7305268049240112" stroke-width="2.0" fill="none" stroke="rgb(0, 0, 0)" stroke-opacity="1" stroke-linecap="round" stroke-linejoin="round"/>
    <path d="M 91.010986328125 69.86042785644531 C 74.61299896240234 84.56871795654297 56.18608474731445 101.96987915039062 56.83224105834961 104.72509765625" stroke-width="2.0" fill="none" stroke="rgb(0, 0, 0)" stroke-opacity="1" stroke-linecap="round" stroke-linejoin="round"/>
    <path d="M 196.48025512695312 88.69385528564453 C 214.39352416992188 71.50531005859375 201.188232421875 44.06892776489258 194.37074279785156 78.13240814208984 C 197.96058654785156 61.56734085083008 203.08460998535156 51.116294860839844 200.87318420410156 69.06846618652344" stroke-width="2.0" fill="none" stroke="rgb(0, 0, 0)" stroke-opacity="1" stroke-linecap="round" stroke-linejoin="round"/>
    <path d="M 105.86124420166016 143.43809509277344 C 117.62407684326172 143.94091796875 115.14796447753906 154.51234436035156 108.13666534423828 119.16766357421875" stroke-width="2.0" fill="none" stroke="rgb(0, 0, 0)" stroke-opacity="1" stroke-linecap="round" stroke-linejoin="round"/>
    <path d="M 174.6725616455078 -4.884609699249268 C 178.43434143066406 -3.047915458679199 155.22642517089844 -5.916704177856445 127.72332763671875 -9.474985122680664" stroke-width="2.0" fill="none" stroke="rgb(0, 0, 0)" stroke-opacity="1" stroke-linecap="round" stroke-linejoin="round"/>
    <path d="M 155.86888122558594 27.29926109313965 C 161.8787841796875 38.563316345214844 165.58380126953125 19.246116638183594 164.55709838867188 36.350433349609375 C 166.93968200683594 28.25592041015625 156.4948272705078 29.088943481445312 163.68263244628906 33.265525817871094" stroke-width="2.0" fill="none" stroke="rgb(0, 0, 0)" stroke-opacity="1" stroke-linecap="round" stroke-linejoin="round"/>
    <path d="M 19.112478256225586 171.0975799560547 C 12.942185401916504 162.8479766845703 6.734191417694092 191.07798767089844 15.671295166015625 171.6208038330078 C 22.535213470458984 172.62591552734375 52.66926574707031 159.50392150878906 44.09766387939453 165.8934326171875" stroke-width="2.0" fill="none" stroke="rgb(0, 0, 0)" stroke-opacity="1" stroke-linecap="round" stroke-linejoin="round"/>
    <path d="M 19.37752342224121 81.65384674072266 C 60.61111831665039 64.1263427734375 51.928924560546875 62.51722717285156 49.86573791503906 88.88729095458984" stroke-width="2.0" fill="none" stroke="rgb(0, 0, 0)" stroke-opacity="1" stroke-linecap="round" stroke-linejoin="round"/>
    <path d="M 107.61036682128906 65.70787811279297 C 67.77986907958984 100.928955078125 75.9843521118164 95.60813903808594 90.23548889160156 86.50369262695312 C 80.17816162109375 83.81383514404297 99.31571197509766 81.88627624511719 82.7850341796875 102.7990951538086" stroke-width="2.0" fill="none" stroke="rgb(0, 0, 0)" stroke-opacity="1" stroke-linecap="round" stroke-linejoin="round"/>
    <path d="M 41.41404724121094 73.31892395019531 C 47.03523254394531 69.30977630615234 69.18387603759766 62.549705505371094 59.32102584838867 65.93590545654297 C 57.40199661254883 83.02281951904297 47.87681198120117 62.82063293457031 71.62760162353516 61.95787811279297 C 67.74396514892578 65.36820983886719 48.947418212890625 62.58783721923828 40.62208557128906 77.57291412353516" stroke-width="2.0" fill="none" stroke="rgb(0, 0, 0)" stroke-opacity="1" stroke-linecap="round" stroke-linejoin="round"/>
    <path d="M 152.26564025878906 127.44296264648438 C 142.70184326171875 159.4159393310547 160.97605895996094 151.95809936523438 154.50582885742188 135.2306671142578 C 162.3798828125 159.5823211669922 160.93919372558594 189.81936645507812 158.05882263183594 169.56089782714844" stroke-width="2.0" fill="none" stroke="rgb(0, 0, 0)" stroke-opacity="1" stroke-linecap="round" stroke-linejoin="round"/>
    <path d="M 122.50477600097656 89.14473724365234 C 126.43450164794922 95.1437759399414 131.5898895263672 112.32825469970703 118.93824768066406 80.35398864746094" stroke-width="2.0" fill="none" stroke="rgb(0, 0, 0)" stroke-opacity="1" stroke-linecap="round" stroke-linejoin="round"/>
    <path d="M 41.83466720581055 217.08993530273438 C 36.798255920410156 217.66453552246094 73.26454162597656 215.44178771972656 80.00688171386719 223.41409301757812" stroke-width="2.0" fill="none" stroke="rgb(0, 0, 0)" stroke-opacity="1" stroke-linecap="round" stroke-linejoin="round"/>
    <path d="M 184.0052490234375 173.02783203125 C 168.2719268798828 153.72361755371094 170.49314880371094 167.8588104248047 190.5900115966797 126.45612335205078" stroke-width="2.0" fill="none" stroke="rgb(0, 0, 0)" stroke-opacity="1" stroke-linecap="round" stroke-linejoin="round"/>
    <path d="M 24.589149475097656 219.87924194335938 C 32.768802642822266 179.58297729492188 42.74525451660156 185.1442108154297 34.68606948852539 234.8604278564453" stroke-width="2.0" fill="none" stroke="rgb(0, 0, 0)" stroke-opacity="1" stroke-linecap="round" stroke-linejoin="round"/>
    <path d="M 107.52516174316406 6.947594165802002 C 101.98889923095703 31.239431381225586 119.728515625 10.4810791015625 104.27178192138672 15.767545700073242 C 117.72366333007812 -23.558380126953125 109.16646575927734 0.7434597611427307 101.95711517333984 20.675769805908203 C 113.74114990234375 -19.336429595947266 112.06369018554688 -0.23758582770824432 157.15611267089844 29.723955154418945" stroke-width="2.0" fill="none" stroke="rgb(0, 0, 0)" stroke-opacity="1" stroke-linecap="round" stroke-linejoin="round"/>
    <path d="M 214.20289611816406 75.16605377197266 C 194.97048950195312 84.24407196044922 206.25709533691406 96.74412536621094 197.23741149902344 83.4716567993164 C 177.15151977539062 73.25751495361328 184.8231201171875 70.58378601074219 198.42727661132812 78.24368286132812 C 176.21189880371094 67.8335952758789 180.8192596435547 80.06446838378906 191.26870727539062 90.62776184082031" stroke-width="2.0" fill="none" stroke="rgb(0, 0, 0)" stroke-opacity="1" stroke-linecap="round" stroke-linejoin="round"/>
    <path d="M 107.92794799804688 99.38677978515625 C 110.5901870727539 88.97423553466797 126.34368133544922 62.64213180541992 137.2601776123047 52.39107894897461" stroke-width="2.0" fill="none" stroke="rgb(0, 0, 0)" stroke-opacity="1" stroke-linecap="round" stroke-linejoin="round"/>
    <path d="M 98.0031509399414 235.8753662109375 C 113.85227966308594 232.42079162597656 104.27812194824219 214.63511657714844 94.89971923828125 185.36790466308594 C 84.34782409667969 206.1085662841797 92.75750732421875 243.9809112548828 89.01803588867188 264.664306640625" stroke-width="2.0" fill="none" stroke="rgb(0, 0, 0)" stroke-opacity="1" stroke-linecap="round" stroke-linejoin="round"/>
    <path d="M 151.10623168945312 104.73347473144531 C 142.77999877929688 80.39777374267578 144.35269165039062 68.75281524658203 146.0385284423828 61.431724548339844 C 127.43797302246094 95.9939956665039 112.22067260742188 109.01570129394531 134.65194702148438 66.01216125488281 C 114.76866912841797 88.70159149169922 128.5457000732422 76.24280548095703 142.17010498046875 56.55992889404297" stroke-width="2.0" fill="none" stroke="rgb(0, 0, 0)" stroke-opacity="1" stroke-linecap="round" stroke-linejoin="round"/>
    <path d="M 211.8643341064453 -10.961066246032715 C 199.38320922851562 0.4843670725822449 223.3218994140625 -2.0202207565307617 195.5211944580078 3.554110527038574" stroke-width="2.0" fill="none" stroke="rgb(0, 0, 0)" stroke-opacity="1" stroke-linecap="round" stroke-linejoin="round"/>
    <path d="M 144.3059844970703 188.42543029785156 C 147.9028778076172 167.2298583984375 122.01911926269531 197.2347412109375 138.84803771972656 174.81256103515625 C 131.02305603027344 160.3636016845703 138.7671661376953 156.35791015625 128.7786102294922 167.96022033691406 C 147.28248596191406 160.92312622070312 118.41990661621094 178.04649353027344 103.16979217529297 182.36997985839844" stroke-width="2.0" fill="none" stroke="rgb(0, 0, 0)" stroke-opacity="1" stroke-linecap="round" stroke-linejoin="round"/>
    <path d="M 91.86270904541016 35.39868927001953 C 109.29525756835938 43.5383186340332 130.9180145263672 68.73792266845703 131.0995635986328 46.935420989990234 C 131.65794372558594 51.47015380859375 122.65809631347656 71.653564453125 114.3145751953125 70.9118881225586 C 113.04351043701172 67.21168518066406 113.86703491210938 50.16183853149414 103.64441680908203 59.68711853027344" stroke-width="2.0" fill="none" stroke="rgb(0, 0, 0)" stroke-opacity="1" stroke-linecap="round" stroke-linejoin="round"/>
    <path d="M 82.08517456054688 194.66146850585938 C 80.40192413330078 227.87136840820312 79.10040283203125 240.18467712402344 79.8184814453125 249.53631591796875" stroke-width="2.0" fill="none" stroke="rgb(0, 0, 0)" stroke-opacity="1" stroke-linecap="round" stroke-linejoin="round"/>
    <path d="M 15.09386157989502 168.42652893066406 C 22.124849319458008 175.2500762939453 15.833169937133789 183.6715545654297 19.413681030273438 171.3780975341797" stroke-width="2.0" fill="none" stroke="rgb(0, 0, 0)" stroke-opacity="1" stroke-linecap="round" stroke-linejoin="round"/>
    <path d="M 118.82012176513672 57.22148132324219 C 129.1815948486328 50.83308410644531 118.01604461669922 54.2036018371582 117.70429229736328 52.329864501953125 C 125.66732025146484 44.01552200317383 123.6659927368164 21.7600154876709 134.07818603515625 50.12939453125 C 121.31877136230469 25.22577476501465 114.75270080566406 6.999985218048096 127.31880950927734 30.49822425842285" stroke-width="2.0" fill="none" stroke="rgb(0, 0, 0)" stroke-opacity="1" stroke-linecap="round" stroke-linejoin="round"/>
    <path d="M 55.75320053100586 121.84127807617188 C 35.770206451416016 111.00843048095703 65.1435775756836 110.59696960449219 43.80403518676758 121.48435974121094" stroke-width="2.0" fill="none" stroke="rgb(0, 0, 0)" stroke-opacity="1" stroke-linecap="round" stroke-linejoin="round"/>
    <path d="M 212.14700317382812 194.0111083984375 C 185.589111328125 196.58804321289062 189.64495849609375 187.51365661621094 223.53834533691406 190.63214111328125 C 192.66574096679688 200.49008178710938 184.85379028320312 181.22149658203125 185.48912048339844 196.53160095214844" stroke-width="2.0" fill="none" stroke="rgb(0, 0, 0)" stroke-opacity="1" stroke-linecap="round" stroke-linejoin="round"/>
    <path d="M 117.7741928100586 168.37075805664062 C 125.33551025390625 132.39495849609375 128.8448944091797 166.97872924804688 119.06586456298828 162.73727416992188 C 133.18753051757812 124.9978256225586 108.02725219726562 151.6039276123047 110.71379852294922 172.61451721191406 C 101.50105285644531 170.8404083251953 112.93590545654297 182.6104278564453 100.6745834350586 161.47418212890625" stroke-width="2.0" fill="none" stroke="rgb(0, 0, 0)" stroke-opacity="1" stroke-linecap="round" stroke-linejoin="round"/>
    <path d="M 13.477001190185547 49.651329040527344 C 49.5599479675293 37.712501525878906 39.64295959472656 77.36713409423828 25.27023696899414 71.72669219970703 C 27.68490982055664 43.69852828979492 21.973888397216797 47.02760314941406 47.0658073425293 44.74301528930664 C 34.929325103759766 69.04956817626953 49.023834228515625 76.28018188476562 48.1323356628418 45.442909240722656" stroke-width="2.0" fill="none" stroke="rgb(0, 0, 0)" stroke-opacity="1" stroke-linecap="round" stroke-linejoin="round"/>
    <path d="M 127.38545989990234 49.20420455932617 C 131.47825622558594 37.340431213378906 126.83903503417969 34.53718566894531 112.732421875 2.9531190395355225" stroke-width="2.0" fill="none" stroke="rgb(0, 0, 0)" stroke-opacity="1" stroke-linecap="round" stroke-linejoin="round"/>
    <path d="M 170.9049835205078 64.76215362548828 C 178.06346130371094 96.83540344238281 171.6478271484375 77.37044525146484 176.9753875732422 77.5112075805664 C 148.7322540283203 86.39405059814453 150.5104522705078 92.9188461303711 172.14430236816406 89.97498321533203" stroke-width="2.0" fill="none" stroke="rgb(0, 0, 0)" stroke-opacity="1" stroke-linecap="round" stroke-linejoin="round"/>
  </g>
</svg>
