<?xml version="1.0" ?>
<svg xmlns="http://www.w3.org/2000/svg" version="1.1" width="224" height="224">
  <defs/>
  <g>
    <path d="M -7.625781536102295 46.87947463989258 C -1.520714521408081 32.877994537353516 -4.07599401473999 41.13039779663086 -5.297003269195557 24.241458892822266 C 4.080008506774902 38.568607330322266 1.870842695236206 81.37303161621094 -2.312993049621582 86.7458724975586 C -17.90654754638672 35.759090423583984 -19.840179443359375 39.35000991821289 -18.268596649169922 30.188329696655273" stroke-width="2.0" fill="none" stroke="rgb(0, 0, 0)" stroke-opacity="1" stroke-linecap="round" stroke-linejoin="round"/>
    <path d="M 167.34524536132812 18.05634880065918 C 210.02294921875 9.642199516296387 186.02435302734375 -6.71635627746582 198.28839111328125 36.5146484375 C 186.31016540527344 21.932464599609375 193.29049682617188 4.055520057678223 193.23233032226562 24.97421646118164" stroke-width="2.0" fill="none" stroke="rgb(0, 0, 0)" stroke-opacity="1" stroke-linecap="round" stroke-linejoin="round"/>
    <path d="M 156.49221801757812 212.9949188232422 C 132.40992736816406 231.5653076171875 124.3078842163086 215.1009063720703 141.52145385742188 218.77792358398438" stroke-width="2.0" fill="none" stroke="rgb(0, 0, 0)" stroke-opacity="1" stroke-linecap="round" stroke-linejoin="round"/>
    <path d="M 215.35906982421875 -5.467780113220215 C 242.56922912597656 -1.9833123683929443 238.76856994628906 -9.15839958190918 247.90176391601562 -1.3353451490402222" stroke-width="2.0" fill="none" stroke="rgb(0, 0, 0)" stroke-opacity="1" stroke-linecap="round" stroke-linejoin="round"/>
    <path d="M 29.364604949951172 187.02452087402344 C 60.68120193481445 217.1872100830078 65.67835235595703 218.98561096191406 71.04656219482422 214.37454223632812 C 73.29867553710938 216.80148315429688 47.948604583740234 194.1449737548828 68.94063568115234 189.32901000976562 C 74.61643981933594 207.56788635253906 79.02611541748047 213.16629028320312 58.06507873535156 209.9334716796875" stroke-width="2.0" fill="none" stroke="rgb(0, 0, 0)" stroke-opacity="1" stroke-linecap="round" stroke-linejoin="round"/>
    <path d="M 41.144283294677734 -4.1871657371521 C 40.1043586730957 -7.836108684539795 37.78766632080078 -0.43172159790992737 44.646854400634766 -7.890851974487305 C 67.76226806640625 -0.09757988899946213 58.71063995361328 -1.6191481351852417 64.2978515625 -10.21215534210205" stroke-width="2.0" fill="none" stroke="rgb(0, 0, 0)" stroke-opacity="1" stroke-linecap="round" stroke-linejoin="round"/>
    <path d="M 230.3082275390625 127.20730590820312 C 226.29209899902344 126.8372573852539 222.72482299804688 104.92385864257812 229.7839813232422 104.51338958740234" stroke-width="2.0" fill="none" stroke="rgb(0, 0, 0)" stroke-opacity="1" stroke-linecap="round" stroke-linejoin="round"/>
    <path d="M 34.391719818115234 95.04270935058594 C 35.90785598754883 66.89564514160156 24.084943771362305 94.97322082519531 40.69499206542969 135.21102905273438" stroke-width="2.0" fill="none" stroke="rgb(0, 0, 0)" stroke-opacity="1" stroke-linecap="round" stroke-linejoin="round"/>
    <path d="M 226.2152099609375 14.209250450134277 C 203.5191650390625 4.7725677490234375 224.2261199951172 9.439940452575684 202.1757049560547 25.422571182250977 C 226.41583251953125 -9.315116882324219 229.54974365234375 -14.413596153259277 226.29148864746094 45.1859245300293" stroke-width="2.0" fill="none" stroke="rgb(0, 0, 0)" stroke-opacity="1" stroke-linecap="round" stroke-linejoin="round"/>
    <path d="M 42.857730865478516 -7.455933570861816 C 40.35129165649414 2.0386149883270264 16.1336669921875 1.3543161153793335 26.904417037963867 2.5292551517486572 C -10.749808311462402 -12.741806030273438 3.136967420578003 31.66141128540039 0.8796409368515015 -0.5269855856895447" stroke-width="2.0" fill="none" stroke="rgb(0, 0, 0)" stroke-opacity="1" stroke-linecap="round" stroke-linejoin="round"/>
    <path d="M 55.76109313964844 217.75491333007812 C 33.14606475830078 209.4954833984375 17.168752670288086 227.8577117919922 17.5518741607666 193.22955322265625" stroke-width="2.0" fill="none" stroke="rgb(0, 0, 0)" stroke-opacity="1" stroke-linecap="round" stroke-linejoin="round"/>
    <path d="M 124.05249786376953 214.87664794921875 C 151.84727478027344 221.02114868164062 119.19902038574219 214.48001098632812 102.0191879272461 218.42494201660156 C 125.61009216308594 213.2666473388672 119.95761108398438 220.45530700683594 112.08106231689453 238.01260375976562 C 126.30409240722656 238.68359375 120.86968231201172 234.68386840820312 128.30116271972656 238.2250518798828" stroke-width="2.0" fill="none" stroke="rgb(0, 0, 0)" stroke-opacity="1" stroke-linecap="round" stroke-linejoin="round"/>
    <path d="M 138.41387939453125 15.11497974395752 C 142.3513946533203 15.20383071899414 156.19708251953125 61.882606506347656 146.48199462890625 45.32923126220703" stroke-width="2.0" fill="none" stroke="rgb(0, 0, 0)" stroke-opacity="1" stroke-linecap="round" stroke-linejoin="round"/>
    <path d="M 158.03013610839844 179.5831298828125 C 164.07350158691406 198.43434143066406 178.34144592285156 183.453857421875 155.4895782470703 149.5409393310547 C 186.9822540283203 179.08462524414062 177.36880493164062 165.23223876953125 166.0504150390625 161.79554748535156 C 195.55679321289062 160.8582000732422 201.79232788085938 200.71888732910156 205.8763427734375 170.27130126953125" stroke-width="2.0" fill="none" stroke="rgb(0, 0, 0)" stroke-opacity="1" stroke-linecap="round" stroke-linejoin="round"/>
    <path d="M 95.45995330810547 4.396217346191406 C 89.30297088623047 19.211183547973633 101.84443664550781 6.837554931640625 93.49588775634766 7.514747142791748" stroke-width="2.0" fill="none" stroke="rgb(0, 0, 0)" stroke-opacity="1" stroke-linecap="round" stroke-linejoin="round"/>
    <path d="M 58.828426361083984 52.661582946777344 C 37.468624114990234 43.86655807495117 76.30582427978516 57.28425216674805 52.205020904541016 36.49761199951172 C 68.07551574707031 35.338279724121094 74.76701354980469 61.755611419677734 67.83468627929688 49.67326736450195" stroke-width="2.0" fill="none" stroke="rgb(0, 0, 0)" stroke-opacity="1" stroke-linecap="round" stroke-linejoin="round"/>
    <path d="M 142.9456024169922 189.30491638183594 C 132.6084442138672 190.7012176513672 125.86217498779297 164.83714294433594 108.24850463867188 160.18698120117188" stroke-width="2.0" fill="none" stroke="rgb(0, 0, 0)" stroke-opacity="1" stroke-linecap="round" stroke-linejoin="round"/>
    <path d="M 126.52127838134766 135.3463897705078 C 111.7895278930664 107.09223175048828 78.77651977539062 103.834716796875 95.62580108642578 94.93622589111328" stroke-width="2.0" fill="none" stroke="rgb(0, 0, 0)" stroke-opacity="1" stroke-linecap="round" stroke-linejoin="round"/>
    <path d="M 224.55982971191406 176.4053497314453 C 214.50067138671875 193.12652587890625 224.12533569335938 148.66709899902344 205.31809997558594 186.16552734375" stroke-width="2.0" fill="none" stroke="rgb(0, 0, 0)" stroke-opacity="1" stroke-linecap="round" stroke-linejoin="round"/>
    <path d="M 227.9134063720703 207.20205688476562 C 230.47500610351562 226.39053344726562 230.32530212402344 221.94284057617188 229.48582458496094 206.2865753173828 C 231.08506774902344 222.53616333007812 225.5020294189453 236.68930053710938 226.5885772705078 235.00634765625" stroke-width="2.0" fill="none" stroke="rgb(0, 0, 0)" stroke-opacity="1" stroke-linecap="round" stroke-linejoin="round"/>
    <path d="M 99.60167694091797 185.26043701171875 C 124.53866577148438 199.33489990234375 106.57814025878906 220.70330810546875 115.49320983886719 211.93603515625 C 116.27930450439453 216.73196411132812 103.50545501708984 214.25186157226562 119.7529296875 217.81802368164062 C 91.0893783569336 217.86209106445312 97.9075698852539 197.2921600341797 106.17655181884766 197.42112731933594" stroke-width="2.0" fill="none" stroke="rgb(0, 0, 0)" stroke-opacity="1" stroke-linecap="round" stroke-linejoin="round"/>
    <path d="M 85.07716369628906 107.11746215820312 C 80.24617767333984 106.18560028076172 76.24163818359375 108.07865905761719 86.29380798339844 116.5296859741211" stroke-width="2.0" fill="none" stroke="rgb(0, 0, 0)" stroke-opacity="1" stroke-linecap="round" stroke-linejoin="round"/>
    <path d="M 117.6346664428711 10.818440437316895 C 122.79524230957031 22.14940643310547 98.80511474609375 7.307429313659668 81.69338989257812 24.49518394470215" stroke-width="2.0" fill="none" stroke="rgb(0, 0, 0)" stroke-opacity="1" stroke-linecap="round" stroke-linejoin="round"/>
    <path d="M 27.440114974975586 117.29960632324219 C 19.474313735961914 75.19590759277344 19.276710510253906 43.3216438293457 8.63451099395752 98.77436065673828" stroke-width="2.0" fill="none" stroke="rgb(0, 0, 0)" stroke-opacity="1" stroke-linecap="round" stroke-linejoin="round"/>
    <path d="M 136.55821228027344 68.70126342773438 C 122.19681549072266 44.98900604248047 126.76017761230469 51.10901641845703 133.19378662109375 45.31283187866211 C 143.55995178222656 48.1016845703125 136.33966064453125 68.00363159179688 119.55653381347656 43.55708312988281 C 128.71963500976562 44.42605209350586 116.62450408935547 9.621212005615234 131.49185180664062 50.71476745605469" stroke-width="2.0" fill="none" stroke="rgb(0, 0, 0)" stroke-opacity="1" stroke-linecap="round" stroke-linejoin="round"/>
    <path d="M 80.58975982666016 71.25940704345703 C 83.68160247802734 26.223108291625977 45.321998596191406 35.71879577636719 57.204715728759766 38.440921783447266 C 67.95668029785156 44.75726318359375 72.41302490234375 54.030303955078125 58.45869064331055 62.36170196533203 C 46.8004150390625 35.016456604003906 60.770965576171875 43.2894401550293 44.9097785949707 61.67816925048828" stroke-width="2.0" fill="none" stroke="rgb(0, 0, 0)" stroke-opacity="1" stroke-linecap="round" stroke-linejoin="round"/>
    <path d="M 30.712820053100586 144.9398956298828 C 16.558279037475586 132.38088989257812 13.45844554901123 159.98687744140625 15.578972816467285 166.08314514160156 C 12.80438232421875 154.28634643554688 15.846673011779785 140.08387756347656 34.58473587036133 167.4437713623047" stroke-width="2.0" fill="none" stroke="rgb(0, 0, 0)" stroke-opacity="1" stroke-linecap="round" stroke-linejoin="round"/>
    <path d="M 115.5085220336914 21.508010864257812 C 84.84049224853516 7.696040630340576 117.0842514038086 33.168460845947266 101.71119689941406 15.950800895690918 C 97.60356903076172 42.94975280761719 98.62886047363281 5.805107116699219 122.43639373779297 23.772768020629883 C 126.29138946533203 15.465933799743652 112.27735137939453 29.315811157226562 125.20317840576172 17.840576171875" stroke-width="2.0" fill="none" stroke="rgb(0, 0, 0)" stroke-opacity="1" stroke-linecap="round" stroke-linejoin="round"/>
    <path d="M 88.80152130126953 238.64630126953125 C 82.0750961303711 223.30804443359375 90.31246185302734 207.3416748046875 75.07855224609375 220.98959350585938 C 77.72992706298828 207.37648010253906 84.9837646484375 224.4958038330078 65.38926696777344 218.21847534179688 C 74.80472564697266 224.9904022216797 85.84442901611328 216.41151428222656 46.30842208862305 228.06285095214844" stroke-width="2.0" fill="none" stroke="rgb(0, 0, 0)" stroke-opacity="1" stroke-linecap="round" stroke-linejoin="round"/>
    <path d="M 129.5840606689453 42.8487663269043 C 147.46910095214844 37.529747009277344 144.2503204345703 81.5518798828125 141.3341827392578 56.118675231933594" stroke-width="2.0" fill="none" stroke="rgb(0, 0, 0)" stroke-opacity="1" stroke-linecap="round" stroke-linejoin="round"/>
    <path d="M 11.08141803741455 99.07996368408203 C 8.54232406616211 108.72718048095703 5.288172245025635 79.73430633544922 13.477680206298828 77.92048645019531 C 16.765697479248047 120.1672592163086 32.70631790161133 84.99491119384766 20.00014305114746 74.44650268554688" stroke-width="2.0" fill="none" stroke="rgb(0, 0, 0)" stroke-opacity="1" stroke-linecap="round" stroke-linejoin="round"/>
    <path d="M 176.2614288330078 171.6727294921875 C 169.88861083984375 193.2322998046875 192.11996459960938 174.47259521484375 178.47091674804688 175.12660217285156 C 183.08665466308594 188.88204956054688 192.01524353027344 212.96014404296875 202.58987426757812 216.70919799804688 C 227.52960205078125 190.32879638671875 187.4042205810547 216.7948760986328 198.92840576171875 201.9483642578125" stroke-width="2.0" fill="none" stroke="rgb(0, 0, 0)" stroke-opacity="1" stroke-linecap="round" stroke-linejoin="round"/>
    <path d="M 29.13413429260254 23.14103126525879 C 52.45090103149414 57.163917541503906 32.89076232910156 71.73838806152344 18.12629508972168 27.315675735473633" stroke-width="2.0" fill="none" stroke="rgb(0, 0, 0)" stroke-opacity="1" stroke-linecap="round" stroke-linejoin="round"/>
    <path d="M 114.42098236083984 155.56394958496094 C 126.8121566772461 154.56898498535156 150.0506591796875 180.71038818359375 156.61590576171875 194.8477325439453 C 142.869384765625 173.27777099609375 137.62677001953125 167.4551544189453 128.83990478515625 166.92105102539062" stroke-width="2.0" fill="none" stroke="rgb(0, 0, 0)" stroke-opacity="1" stroke-linecap="round" stroke-linejoin="round"/>
    <path d="M 12.12899398803711 103.71240234375 C 2.304917573928833 102.6234130859375 20.85219383239746 85.29348754882812 11.257298469543457 86.36788177490234 C 21.078857421875 79.33971405029297 27.177047729492188 65.28196716308594 11.310696601867676 104.50807189941406" stroke-width="2.0" fill="none" stroke="rgb(0, 0, 0)" stroke-opacity="1" stroke-linecap="round" stroke-linejoin="round"/>
    <path d="M 61.12621307373047 125.07920837402344 C 64.84516906738281 110.0577392578125 83.12694549560547 129.22744750976562 70.33683776855469 133.9585723876953 C 23.297136306762695 141.88473510742188 82.45723724365234 153.298828125 97.21385192871094 120.68912506103516 C 91.18405151367188 125.94864654541016 82.94397735595703 148.43502807617188 93.74588012695312 142.0330352783203" stroke-width="2.0" fill="none" stroke="rgb(0, 0, 0)" stroke-opacity="1" stroke-linecap="round" stroke-linejoin="round"/>
    <path d="M 33.039344787597656 170.57362365722656 C 24.673017501831055 182.36427307128906 20.07197380065918 152.53977966308594 15.529505729675293 140.47972106933594 C -6.6357293128967285 133.93544006347656 49.42655563354492 112.21435546875 14.284616470336914 139.6273651123047 C -4.200290203094482 132.9846954345703 4.8753204345703125 178.78604125976562 -3.442413568496704 200.8611297607422" stroke-width="2.0" fill="none" stroke="rgb(0, 0, 0)" stroke-opacity="1" stroke-linecap="round" stroke-linejoin="round"/>
    <path d="M 80.02254486083984 204.27745056152344 C 63.03297805786133 202.735595703125 79.95879364013672 200.41233825683594 74.76846313476562 204.6770477294922" stroke-width="2.0" fill="none" stroke="rgb(0, 0, 0)" stroke-opacity="1" stroke-linecap="round" stroke-linejoin="round"/>
    <path d="M 178.2840118408203 71.5765151977539 C 157.22926330566406 60.83045959472656 176.623046875 51.41372299194336 165.503173828125 75.1890869140625" stroke-width="2.0" fill="none" stroke="rgb(0, 0, 0)" stroke-opacity="1" stroke-linecap="round" stroke-linejoin="round"/>
    <path d="M 190.47024536132812 191.2931365966797 C 191.43304443359375 177.91995239257812 210.53128051757812 203.83670043945312 210.09747314453125 211.53616333007812 C 200.5605926513672 223.15464782714844 188.7798309326172 195.32008361816406 183.48846435546875 206.80484008789062 C 169.6680145263672 203.80551147460938 179.59762573242188 203.61509704589844 177.7594451904297 216.0791778564453" stroke-width="2.0" fill="none" stroke="rgb(0, 0, 0)" stroke-opacity="1" stroke-linecap="round" stroke-linejoin="round"/>
    <path d="M 148.79457092285156 229.90428161621094 C 156.69635009765625 225.33273315429688 150.80484008789062 226.12887573242188 143.1038360595703 230.54763793945312 C 141.09661865234375 233.11660766601562 143.9410858154297 228.35313415527344 153.39657592773438 239.205322265625" stroke-width="2.0" fill="none" stroke="rgb(0, 0, 0)" stroke-opacity="1" stroke-linecap="round" stroke-linejoin="round"/>
    <path d="M 137.54786682128906 82.38671112060547 C 120.59273529052734 87.00838470458984 131.50975036621094 73.75650024414062 155.73052978515625 105.40580749511719" stroke-width="2.0" fill="none" stroke="rgb(0, 0, 0)" stroke-opacity="1" stroke-linecap="round" stroke-linejoin="round"/>
    <path d="M 158.825927734375 215.83587646484375 C 153.3372344970703 215.05699157714844 146.6667022705078 220.699462890625 162.04212951660156 206.03836059570312 C 159.81581115722656 192.0912628173828 139.5962371826172 197.10073852539062 142.45054626464844 198.02105712890625 C 131.79002380371094 200.7765655517578 111.88524627685547 210.245849609375 158.6514434814453 215.33502197265625" stroke-width="2.0" fill="none" stroke="rgb(0, 0, 0)" stroke-opacity="1" stroke-linecap="round" stroke-linejoin="round"/>
    <path d="M 148.6167755126953 215.81759643554688 C 120.43350219726562 207.87876892089844 131.625244140625 215.7135772705078 114.37759399414062 251.7464599609375 C 110.06607055664062 187.6834259033203 112.89490509033203 185.93624877929688 115.24718475341797 217.8249969482422 C 117.4007568359375 212.69700622558594 118.8263931274414 229.69149780273438 112.1670150756836 246.50306701660156" stroke-width="2.0" fill="none" stroke="rgb(0, 0, 0)" stroke-opacity="1" stroke-linecap="round" stroke-linejoin="round"/>
    <path d="M 87.85179901123047 13.555974006652832 C 79.2136459350586 -11.335344314575195 70.40494537353516 25.36467170715332 73.60521697998047 11.515619277954102 C 88.15286254882812 26.148452758789062 72.00375366210938 13.520014762878418 83.2154312133789 15.270832061767578" stroke-width="2.0" fill="none" stroke="rgb(0, 0, 0)" stroke-opacity="1" stroke-linecap="round" stroke-linejoin="round"/>
    <path d="M 59.00541687011719 208.48492431640625 C 29.594430923461914 160.31423950195312 52.598228454589844 227.67843627929688 35.84959411621094 180.3300323486328" stroke-width="2.0" fill="none" stroke="rgb(0, 0, 0)" stroke-opacity="1" stroke-linecap="round" stroke-linejoin="round"/>
    <path d="M 193.25576782226562 67.87394714355469 C 173.03990173339844 63.74762725830078 207.7697296142578 67.58354187011719 211.1704864501953 57.15254592895508 C 193.756103515625 76.60438537597656 186.833251953125 77.90088653564453 178.3573760986328 59.72525405883789 C 225.54734802246094 58.68075180053711 227.53384399414062 63.47755432128906 185.07411193847656 30.03348731994629" stroke-width="2.0" fill="none" stroke="rgb(0, 0, 0)" stroke-opacity="1" stroke-linecap="round" stroke-linejoin="round"/>
    <path d="M 164.1345672607422 42.94215393066406 C 141.5281982421875 36.474552154541016 167.13818359375 63.59098815917969 181.9447784423828 47.908660888671875 C 184.7434844970703 53.237850189208984 182.34567260742188 41.36803436279297 157.00364685058594 31.26378631591797" stroke-width="2.0" fill="none" stroke="rgb(0, 0, 0)" stroke-opacity="1" stroke-linecap="round" stroke-linejoin="round"/>
    <path d="M 25.21718978881836 40.39458465576172 C 13.947637557983398 66.0255355834961 39.95057678222656 62.88935089111328 42.01866912841797 46.84015655517578" stroke-width="2.0" fill="none" stroke="rgb(0, 0, 0)" stroke-opacity="1" stroke-linecap="round" stroke-linejoin="round"/>
    <path d="M 16.50812530517578 61.366024017333984 C 13.91701889038086 71.15238952636719 22.690542221069336 52.08972930908203 18.31020164489746 80.85729217529297" stroke-width="2.0" fill="none" stroke="rgb(0, 0, 0)" stroke-opacity="1" stroke-linecap="round" stroke-linejoin="round"/>
    <path d="M 57.177188873291016 76.9852066040039 C 75.86737060546875 72.9054946899414 50.59001159667969 50.8986930847168 68.75028228759766 66.3868408203125 C 80.73828125 53.69721603393555 59.431488037109375 50.72293472290039 61.55460739135742 68.24269104003906" stroke-width="2.0" fill="none" stroke="rgb(0, 0, 0)" stroke-opacity="1" stroke-linecap="round" stroke-linejoin="round"/>
    <path d="M 90.31361389160156 171.3001251220703 C 90.7402114868164 164.4121856689453 96.89927673339844 141.44053649902344 115.5733871459961 144.4771728515625" stroke-width="2.0" fill="none" stroke="rgb(0, 0, 0)" stroke-opacity="1" stroke-linecap="round" stroke-linejoin="round"/>
    <path d="M 67.34892272949219 168.1624298095703 C 56.78995132446289 188.9127197265625 93.99571990966797 178.35366821289062 79.3797378540039 163.35940551757812" stroke-width="2.0" fill="none" stroke="rgb(0, 0, 0)" stroke-opacity="1" stroke-linecap="round" stroke-linejoin="round"/>
    <path d="M 49.64286804199219 182.97877502441406 C 69.2768325805664 212.5538787841797 74.21324920654297 192.76206970214844 64.49310302734375 196.03082275390625" stroke-width="2.0" fill="none" stroke="rgb(0, 0, 0)" stroke-opacity="1" stroke-linecap="round" stroke-linejoin="round"/>
    <path d="M 95.06774139404297 83.01231384277344 C 85.71829986572266 112.01046752929688 86.95311737060547 74.36335754394531 72.65298461914062 74.1214370727539 C 90.83584594726562 95.06178283691406 92.31062316894531 108.4844741821289 89.58568572998047 90.8483657836914" stroke-width="2.0" fill="none" stroke="rgb(0, 0, 0)" stroke-opacity="1" stroke-linecap="round" stroke-linejoin="round"/>
    <path d="M 205.3451385498047 162.77386474609375 C 193.89295959472656 157.0872039794922 219.64881896972656 144.4523468017578 206.6641845703125 170.1355743408203" stroke-width="2.0" fill="none" stroke="rgb(0, 0, 0)" stroke-opacity="1" stroke-linecap="round" stroke-linejoin="round"/>
    <path d="M 41.33413314819336 77.66166687011719 C 52.73145294189453 96.04218292236328 48.050453186035156 73.65451049804688 27.200136184692383 70.65721130371094" stroke-width="2.0" fill="none" stroke="rgb(0, 0, 0)" stroke-opacity="1" stroke-linecap="round" stroke-linejoin="round"/>
    <path d="M 22.686662673950195 22.492477416992188 C 32.17699432373047 65.29228210449219 49.60749053955078 29.416933059692383 39.614776611328125 20.575759887695312" stroke-width="2.0" fill="none" stroke="rgb(0, 0, 0)" stroke-opacity="1" stroke-linecap="round" stroke-linejoin="round"/>
    <path d="M 148.6975860595703 181.1958465576172 C 182.4031982421875 219.96437072753906 166.10586547851562 206.63600158691406 137.35243225097656 207.61407470703125" stroke-width="2.0" fill="none" stroke="rgb(0, 0, 0)" stroke-opacity="1" stroke-linecap="round" stroke-linejoin="round"/>
    <path d="M 62.31689453125 214.4605255126953 C 75.55023956298828 196.25839233398438 38.4652214050293 189.94827270507812 69.92119598388672 190.6043701171875 C 76.20063781738281 196.43463134765625 80.64601135253906 209.43301391601562 61.56755447387695 181.13592529296875 C 62.431087493896484 189.0650634765625 52.523231506347656 192.37091064453125 61.48991394042969 181.55068969726562" stroke-width="2.0" fill="none" stroke="rgb(0, 0, 0)" stroke-opacity="1" stroke-linecap="round" stroke-linejoin="round"/>
    <path d="M 206.066162109375 88.988525390625 C 237.0371551513672 27.387664794921875 196.48133850097656 94.18559265136719 182.6487579345703 91.09957122802734 C 179.2627410888672 79.54298400878906 175.2361602783203 95.00066375732422 180.732421875 83.98187255859375 C 198.35345458984375 81.51424407958984 186.13897705078125 105.5670166015625 166.32919311523438 92.26945495605469" stroke-width="2.0" fill="none" stroke="rgb(0, 0, 0)" stroke-opacity="1" stroke-linecap="round" stroke-linejoin="round"/>
    <path d="M 204.58448791503906 170.96424865722656 C 195.87306213378906 174.91957092285156 214.09507751464844 178.33370971679688 200.36448669433594 160.91551208496094 C 142.6884765625 166.7293701171875 197.63462829589844 176.75192260742188 170.90870666503906 181.38128662109375 C 170.8438262939453 186.06838989257812 182.7371826171875 190.5270538330078 172.8587646484375 198.46173095703125" stroke-width="2.0" fill="none" stroke="rgb(0, 0, 0)" stroke-opacity="1" stroke-linecap="round" stroke-linejoin="round"/>
    <path d="M 109.88986206054688 213.35623168945312 C 129.29592895507812 199.48333740234375 134.69976806640625 224.41795349121094 105.98536682128906 202.3368682861328 C 122.17736053466797 199.19671630859375 81.4406509399414 207.5614013671875 104.55016326904297 209.32421875" stroke-width="2.0" fill="none" stroke="rgb(0, 0, 0)" stroke-opacity="1" stroke-linecap="round" stroke-linejoin="round"/>
    <path d="M 139.11715698242188 197.7990264892578 C 145.71539306640625 226.3686065673828 136.39794921875 225.4314422607422 123.28665161132812 211.1094970703125" stroke-width="2.0" fill="none" stroke="rgb(0, 0, 0)" stroke-opacity="1" stroke-linecap="round" stroke-linejoin="round"/>
    <path d="M 172.02418518066406 196.77850341796875 C 184.56295776367188 199.70669555664062 184.12820434570312 196.89625549316406 169.26583862304688 215.07882690429688 C 176.78268432617188 215.38296508789062 187.99183654785156 223.8443603515625 183.81448364257812 208.244873046875" stroke-width="2.0" fill="none" stroke="rgb(0, 0, 0)" stroke-opacity="1" stroke-linecap="round" stroke-linejoin="round"/>
    <path d="M 15.878094673156738 108.16761779785156 C 15.323525428771973 91.53123474121094 38.43718338012695 98.2348403930664 10.778077125549316 89.3494644165039 C 13.17718505859375 90.99193572998047 5.1070966720581055 84.29776000976562 13.392780303955078 98.81266784667969" stroke-width="2.0" fill="none" stroke="rgb(0, 0, 0)" stroke-opacity="1" stroke-linecap="round" stroke-linejoin="round"/>
    <path d="M 88.83206176757812 165.97702026367188 C 97.35887145996094 220.5937042236328 94.59490203857422 174.72640991210938 84.30260467529297 190.68006896972656 C 84.125732421875 207.25357055664062 91.64517211914062 195.42384338378906 65.82733917236328 176.60777282714844" stroke-width="2.0" fill="none" stroke="rgb(0, 0, 0)" stroke-opacity="1" stroke-linecap="round" stroke-linejoin="round"/>
    <path d="M 123.06360626220703 105.21492767333984 C 148.36585998535156 124.39987182617188 140.39541625976562 134.54627990722656 105.89453125 103.70008087158203 C 104.96528625488281 85.2080078125 145.45584106445312 106.28690338134766 156.1279296875 111.3836669921875 C 145.39584350585938 87.15410614013672 161.810302734375 105.89511108398438 152.8456268310547 82.6707992553711" stroke-width="2.0" fill="none" stroke="rgb(0, 0, 0)" stroke-opacity="1" stroke-linecap="round" stroke-linejoin="round"/>
    <path d="M 101.93582916259766 235.0765838623047 C 103.99725341796875 203.89627075195312 87.50959777832031 217.4402618408203 93.85384368896484 233.51795959472656 C 109.30433654785156 236.33448791503906 114.70918273925781 214.45802307128906 101.61602783203125 213.49766540527344 C 91.66063690185547 223.083251953125 115.6530990600586 210.55235290527344 103.32105255126953 203.05068969726562" stroke-width="2.0" fill="none" stroke="rgb(0, 0, 0)" stroke-opacity="1" stroke-linecap="round" stroke-linejoin="round"/>
    <path d="M 171.89402770996094 95.672607421875 C 169.15806579589844 105.7046127319336 145.86192321777344 101.3289794921875 154.59559631347656 104.18446350097656 C 151.3975830078125 131.4783172607422 147.4864501953125 102.11831665039062 174.56561279296875 98.8388900756836" stroke-width="2.0" fill="none" stroke="rgb(0, 0, 0)" stroke-opacity="1" stroke-linecap="round" stroke-linejoin="round"/>
    <path d="M 57.22859573364258 142.862548828125 C 28.434494018554688 139.59722900390625 51.392578125 109.23784637451172 68.38394927978516 121.21220397949219" stroke-width="2.0" fill="none" stroke="rgb(0, 0, 0)" stroke-opacity="1" stroke-linecap="round" stroke-linejoin="round"/>
    <path d="M 79.75989532470703 49.92179489135742 C 86.17316436767578 83.11209869384766 45.73861312866211 76.51811981201172 77.3694839477539 92.43622589111328" stroke-width="2.0" fill="none" stroke="rgb(0, 0, 0)" stroke-opacity="1" stroke-linecap="round" stroke-linejoin="round"/>
    <path d="M 175.2328643798828 22.3980770111084 C 178.59317016601562 -1.4800240993499756 172.33319091796875 2.8535797595977783 177.49798583984375 31.41355323791504 C 178.46363830566406 15.016464233398438 189.77452087402344 10.57989501953125 186.8095245361328 27.58298683166504 C 184.8505096435547 30.35904884338379 152.2552032470703 32.08561325073242 170.3345489501953 21.452775955200195" stroke-width="2.0" fill="none" stroke="rgb(0, 0, 0)" stroke-opacity="1" stroke-linecap="round" stroke-linejoin="round"/>
    <path d="M 87.22039031982422 195.31289672851562 C 99.40082550048828 198.9783935546875 95.36138153076172 186.37506103515625 84.28484344482422 172.56910705566406" stroke-width="2.0" fill="none" stroke="rgb(0, 0, 0)" stroke-opacity="1" stroke-linecap="round" stroke-linejoin="round"/>
    <path d="M 58.16061782836914 25.560531616210938 C 50.716854095458984 36.37813949584961 47.0966911315918 23.91131019592285 65.92555236816406 24.93958854675293" stroke-width="2.0" fill="none" stroke="rgb(0, 0, 0)" stroke-opacity="1" stroke-linecap="round" stroke-linejoin="round"/>
    <path d="M 194.60427856445312 23.77252197265625 C 174.93589782714844 41.7830696105957 180.84979248046875 13.912690162658691 179.8962860107422 8.030131340026855 C 165.23275756835938 3.98868989944458 150.1114044189453 22.059207916259766 183.68438720703125 21.89431381225586" stroke-width="2.0" fill="none" stroke="rgb(0, 0, 0)" stroke-opacity="1" stroke-linecap="round" stroke-linejoin="round"/>
    <path d="M 127.5071792602539 82.00592041015625 C 108.09569549560547 64.45195007324219 95.21073913574219 95.69490051269531 103.95169830322266 82.84990692138672 C 85.13688659667969 127.76749420166016 89.732421875 75.50896453857422 99.40655517578125 97.15966796875" stroke-width="2.0" fill="none" stroke="rgb(0, 0, 0)" stroke-opacity="1" stroke-linecap="round" stroke-linejoin="round"/>
    <path d="M 110.2771987915039 198.58714294433594 C 129.66302490234375 200.1007843017578 121.64400482177734 204.8866424560547 103.54994201660156 212.6225128173828 C 122.44585418701172 191.15557861328125 109.50056457519531 197.58380126953125 94.95216369628906 172.10792541503906 C 121.03672790527344 195.6824951171875 115.01392364501953 204.1896514892578 104.0927963256836 192.16958618164062" stroke-width="2.0" fill="none" stroke="rgb(0, 0, 0)" stroke-opacity="1" stroke-linecap="round" stroke-linejoin="round"/>
    <path d="M 114.43406677246094 60.01680374145508 C 74.37737274169922 29.02250099182129 109.91847229003906 78.6199722290039 95.69832611083984 63.52389144897461 C 103.51781463623047 53.5484733581543 102.35759735107422 54.67721176147461 88.1230239868164 77.69412231445312" stroke-width="2.0" fill="none" stroke="rgb(0, 0, 0)" stroke-opacity="1" stroke-linecap="round" stroke-linejoin="round"/>
    <path d="M 61.7869873046875 110.66431427001953 C 49.60452651977539 106.36389923095703 35.61179733276367 118.11012268066406 39.766029357910156 134.03253173828125 C 33.19989776611328 130.67922973632812 34.15413284301758 102.89146423339844 45.24345016479492 93.26651000976562 C 13.38231086730957 65.85083770751953 41.184322357177734 79.01919555664062 28.33745002746582 73.71524810791016" stroke-width="2.0" fill="none" stroke="rgb(0, 0, 0)" stroke-opacity="1" stroke-linecap="round" stroke-linejoin="round"/>
    <path d="M 152.4586181640625 120.31024169921875 C 153.0001220703125 117.74370574951172 161.99673461914062 160.3230743408203 167.6725311279297 119.42784118652344 C 186.14085388183594 110.27565002441406 208.861328125 133.23947143554688 204.07666015625 141.14828491210938" stroke-width="2.0" fill="none" stroke="rgb(0, 0, 0)" stroke-opacity="1" stroke-linecap="round" stroke-linejoin="round"/>
    <path d="M 133.23851013183594 28.613988876342773 C 156.05026245117188 56.8529167175293 155.15635681152344 57.34044647216797 155.22947692871094 32.124664306640625" stroke-width="2.0" fill="none" stroke="rgb(0, 0, 0)" stroke-opacity="1" stroke-linecap="round" stroke-linejoin="round"/>
    <path d="M 23.11607551574707 212.28781127929688 C 16.116958618164062 216.72035217285156 25.855417251586914 207.69154357910156 54.445858001708984 218.37779235839844" stroke-width="2.0" fill="none" stroke="rgb(0, 0, 0)" stroke-opacity="1" stroke-linecap="round" stroke-linejoin="round"/>
    <path d="M 225.26937866210938 188.5800323486328 C 231.76287841796875 181.4644775390625 243.3252410888672 177.1656951904297 256.8585205078125 175.9152374267578 C 251.1791229248047 177.15390014648438 260.3724365234375 178.70254516601562 257.9826965332031 175.32778930664062 C 258.9282531738281 185.62936401367188 258.9773254394531 181.1051025390625 248.00927734375 190.75746154785156" stroke-width="2.0" fill="none" stroke="rgb(0, 0, 0)" stroke-opacity="1" stroke-linecap="round" stroke-linejoin="round"/>
    <path d="M 16.697174072265625 203.58404541015625 C 34.20539093017578 204.45944213867188 75.78579711914062 219.65765380859375 26.909942626953125 224.61805725097656 C 2.0415563583374023 209.93954467773438 -10.101487159729004 237.69537353515625 -9.808711051940918 244.3732452392578" stroke-width="2.0" fill="none" stroke="rgb(0, 0, 0)" stroke-opacity="1" stroke-linecap="round" stroke-linejoin="round"/>
    <path d="M 219.6614532470703 69.38201904296875 C 222.8694610595703 85.72108459472656 228.6628875732422 93.8822021484375 233.57562255859375 84.82186126708984" stroke-width="2.0" fill="none" stroke="rgb(0, 0, 0)" stroke-opacity="1" stroke-linecap="round" stroke-linejoin="round"/>
    <path d="M 97.70844268798828 38.793704986572266 C 72.14911651611328 21.24445915222168 67.03208923339844 34.75271224975586 72.30020904541016 29.231918334960938 C 48.27754211425781 41.2408332824707 54.592308044433594 27.075000762939453 53.70159912109375 54.2529296875" stroke-width="2.0" fill="none" stroke="rgb(0, 0, 0)" stroke-opacity="1" stroke-linecap="round" stroke-linejoin="round"/>
    <path d="M 104.74556732177734 -5.538340091705322 C 75.19142150878906 -2.837329864501953 43.446693420410156 9.286761283874512 45.43340301513672 9.817468643188477 C 19.258569717407227 5.0611467361450195 43.83324432373047 1.8915534019470215 56.14350128173828 41.12351608276367" stroke-width="2.0" fill="none" stroke="rgb(0, 0, 0)" stroke-opacity="1" stroke-linecap="round" stroke-linejoin="round"/>
    <path d="M 190.787109375 45.042362213134766 C 139.4452362060547 3.306716203689575 149.04052734375 26.211050033569336 168.20870971679688 16.56177520751953 C 150.05908203125 18.833032608032227 181.84486389160156 6.482448101043701 205.11068725585938 8.352535247802734" stroke-width="2.0" fill="none" stroke="rgb(0, 0, 0)" stroke-opacity="1" stroke-linecap="round" stroke-linejoin="round"/>
    <path d="M 194.6868896484375 163.4132843017578 C 152.82675170898438 169.08523559570312 176.9104461669922 162.5727996826172 174.28237915039062 163.0690460205078 C 178.51976013183594 164.63650512695312 193.72393798828125 163.8592071533203 167.98008728027344 164.84173583984375 C 192.05841064453125 184.29002380371094 183.58221435546875 181.3384246826172 166.62820434570312 162.9101104736328" stroke-width="2.0" fill="none" stroke="rgb(0, 0, 0)" stroke-opacity="1" stroke-linecap="round" stroke-linejoin="round"/>
    <path d="M 161.98634338378906 173.48553466796875 C 178.37823486328125 182.5604705810547 142.57740783691406 186.7672882080078 154.39462280273438 170.02474975585938 C 131.09756469726562 147.709716796875 131.98944091796875 150.37042236328125 144.23765563964844 157.5264129638672" stroke-width="2.0" fill="none" stroke="rgb(0, 0, 0)" stroke-opacity="1" stroke-linecap="round" stroke-linejoin="round"/>
    <path d="M 213.05575561523438 80.67108917236328 C 205.0597686767578 107.46997833251953 228.98826599121094 130.06919860839844 222.66152954101562 160.26922607421875" stroke-width="2.0" fill="none" stroke="rgb(0, 0, 0)" stroke-opacity="1" stroke-linecap="round" stroke-linejoin="round"/>
    <path d="M 194.16065979003906 44.614295959472656 C 178.8897705078125 36.53777313232422 174.620849609375 29.84723663330078 152.24331665039062 19.28573989868164" stroke-width="2.0" fill="none" stroke="rgb(0, 0, 0)" stroke-opacity="1" stroke-linecap="round" stroke-linejoin="round"/>
    <path d="M 107.0303955078125 91.13661193847656 C 124.4566650390625 76.23422241210938 145.16087341308594 103.24773406982422 153.31854248046875 119.13912963867188" stroke-width="2.0" fill="none" stroke="rgb(0, 0, 0)" stroke-opacity="1" stroke-linecap="round" stroke-linejoin="round"/>
    <path d="M 219.50086975097656 167.67022705078125 C 220.72390747070312 130.78646850585938 208.07411193847656 118.22974395751953 189.31336975097656 112.42312622070312 C 182.85037231445312 111.09742736816406 152.68800354003906 107.18345642089844 161.57554626464844 128.68075561523438 C 150.6570587158203 108.71344757080078 193.9867401123047 92.48751068115234 214.8039093017578 116.88258361816406" stroke-width="2.0" fill="none" stroke="rgb(0, 0, 0)" stroke-opacity="1" stroke-linecap="round" stroke-linejoin="round"/>
    <path d="M 223.36236572265625 191.5544891357422 C 215.9911651611328 161.49835205078125 213.7253875732422 188.30706787109375 219.45843505859375 155.03990173339844 C 236.80892944335938 183.13502502441406 241.52085876464844 179.41232299804688 237.92222595214844 176.37498474121094" stroke-width="2.0" fill="none" stroke="rgb(0, 0, 0)" stroke-opacity="1" stroke-linecap="round" stroke-linejoin="round"/>
    <path d="M 162.21173095703125 170.3598175048828 C 155.2828826904297 196.74095153808594 155.80201721191406 167.47007751464844 179.36083984375 213.1578826904297" stroke-width="2.0" fill="none" stroke="rgb(0, 0, 0)" stroke-opacity="1" stroke-linecap="round" stroke-linejoin="round"/>
    <path d="M 185.5132293701172 231.53729248046875 C 198.91017150878906 237.54612731933594 190.91998291015625 228.89266967773438 192.8498077392578 225.637939453125 C 225.81455993652344 221.98861694335938 219.34202575683594 208.5691375732422 230.2354736328125 231.66587829589844 C 207.70455932617188 230.85121154785156 211.74191284179688 233.34747314453125 223.44581604003906 245.07923889160156" stroke-width="2.0" fill="none" stroke="rgb(0, 0, 0)" stroke-opacity="1" stroke-linecap="round" stroke-linejoin="round"/>
    <path d="M 145.06434631347656 171.07969665527344 C 142.5337371826172 155.37611389160156 135.45928955078125 160.33523559570312 143.9081268310547 160.28045654296875 C 141.2062225341797 166.78485107421875 159.50665283203125 165.08578491210938 156.5394287109375 149.3347625732422 C 157.0316925048828 154.8429718017578 158.97837829589844 179.37838745117188 187.0681610107422 189.05245971679688" stroke-width="2.0" fill="none" stroke="rgb(0, 0, 0)" stroke-opacity="1" stroke-linecap="round" stroke-linejoin="round"/>
    <path d="M 104.34326171875 162.6610870361328 C 119.54174041748047 176.98301696777344 133.82711791992188 178.5260772705078 99.85570526123047 168.34481811523438 C 91.93215942382812 182.38417053222656 137.87747192382812 175.93099975585938 143.2860565185547 203.1257781982422 C 137.5133056640625 204.138671875 112.74308776855469 202.2093505859375 126.7624740600586 222.3278350830078" stroke-width="2.0" fill="none" stroke="rgb(0, 0, 0)" stroke-opacity="1" stroke-linecap="round" stroke-linejoin="round"/>
    <path d="M 80.11824798583984 117.97610473632812 C 102.7936782836914 108.4684066772461 71.10199737548828 121.96478271484375 67.8662338256836 78.31038665771484 C 59.56557083129883 94.40315246582031 91.67308044433594 72.32621765136719 60.31905746459961 101.07756805419922 C 67.35472869873047 87.53209686279297 95.23655700683594 101.8464584350586 85.82656860351562 124.40423583984375" stroke-width="2.0" fill="none" stroke="rgb(0, 0, 0)" stroke-opacity="1" stroke-linecap="round" stroke-linejoin="round"/>
    <path d="M 167.76361083984375 26.511707305908203 C 180.39630126953125 -3.807380199432373 150.78907775878906 14.80533504486084 142.35655212402344 19.253190994262695 C 142.88909912109375 65.58039855957031 157.7283935546875 37.682003021240234 143.62916564941406 22.611358642578125 C 169.53672790527344 32.99251174926758 160.67428588867188 66.77501678466797 157.96311950683594 54.415916442871094" stroke-width="2.0" fill="none" stroke="rgb(0, 0, 0)" stroke-opacity="1" stroke-linecap="round" stroke-linejoin="round"/>
    <path d="M 152.05259704589844 88.07393646240234 C 177.7021026611328 108.5435791015625 148.96995544433594 100.17974090576172 154.692626953125 105.12271118164062 C 136.9256591796875 131.23033142089844 177.1042938232422 113.53549194335938 188.43609619140625 126.32376861572266" stroke-width="2.0" fill="none" stroke="rgb(0, 0, 0)" stroke-opacity="1" stroke-linecap="round" stroke-linejoin="round"/>
    <path d="M 135.41146850585938 81.41668701171875 C 133.3215789794922 80.36544036865234 161.6041717529297 85.16371154785156 167.02565002441406 87.8826904296875 C 170.15286254882812 72.2178726196289 182.82310485839844 88.60857391357422 169.1514434814453 38.1965446472168" stroke-width="2.0" fill="none" stroke="rgb(0, 0, 0)" stroke-opacity="1" stroke-linecap="round" stroke-linejoin="round"/>
    <path d="M 47.58462142944336 68.31892395019531 C 70.67335510253906 58.260986328125 51.22432327270508 55.47361373901367 64.5641860961914 61.10710525512695" stroke-width="2.0" fill="none" stroke="rgb(0, 0, 0)" stroke-opacity="1" stroke-linecap="round" stroke-linejoin="round"/>
    <path d="M 137.28688049316406 156.3817901611328 C 131.06138610839844 143.37046813964844 105.81217956542969 126.67240142822266 81.61695861816406 137.20956420898438 C 81.20103454589844 143.10433959960938 84.4706802368164 127.9415054321289 108.93290710449219 127.70050811767578" stroke-width="2.0" fill="none" stroke="rgb(0, 0, 0)" stroke-opacity="1" stroke-linecap="round" stroke-linejoin="round"/>
    <path d="M 63.860137939453125 184.36280822753906 C 32.029884338378906 163.50967407226562 54.06831741333008 165.17649841308594 50.078948974609375 177.19512939453125" stroke-width="2.0" fill="none" stroke="rgb(0, 0, 0)" stroke-opacity="1" stroke-linecap="round" stroke-linejoin="round"/>
    <path d="M 95.10922241210938 195.1686553955078 C 91.09871673583984 207.09564208984375 85.74186706542969 204.5618438720703 87.77233123779297 203.3436279296875 C 81.52412414550781 184.31546020507812 84.74525451660156 206.36248779296875 81.03878784179688 179.0181427001953" stroke-width="2.0" fill="none" stroke="rgb(0, 0, 0)" stroke-opacity="1" stroke-linecap="round" stroke-linejoin="round"/>
    <path d="M 176.23056030273438 207.84791564941406 C 163.53921508789062 184.7692108154297 181.13235473632812 183.08526611328125 186.15988159179688 215.8802490234375 C 203.58648681640625 213.81663513183594 198.18289184570312 247.17999267578125 186.62881469726562 252.84066772460938" stroke-width="2.0" fill="none" stroke="rgb(0, 0, 0)" stroke-opacity="1" stroke-linecap="round" stroke-linejoin="round"/>
    <path d="M 16.001047134399414 33.76776885986328 C 15.895289421081543 60.119598388671875 24.20518684387207 61.4613151550293 43.46821975708008 36.837467193603516" stroke-width="2.0" fill="none" stroke="rgb(0, 0, 0)" stroke-opacity="1" stroke-linecap="round" stroke-linejoin="round"/>
    <path d="M 87.11158752441406 213.93988037109375 C 100.13714599609375 218.34817504882812 91.12078094482422 215.78890991210938 96.57706451416016 233.6701202392578" stroke-width="2.0" fill="none" stroke="rgb(0, 0, 0)" stroke-opacity="1" stroke-linecap="round" stroke-linejoin="round"/>
    <path d="M 198.0640106201172 210.18704223632812 C 150.36952209472656 213.2463836669922 141.74685668945312 230.70883178710938 142.998291015625 200.13096618652344" stroke-width="2.0" fill="none" stroke="rgb(0, 0, 0)" stroke-opacity="1" stroke-linecap="round" stroke-linejoin="round"/>
    <path d="M 194.89114379882812 200.28567504882812 C 166.56106567382812 181.1909942626953 174.12379455566406 157.97886657714844 175.24884033203125 163.75636291503906 C 164.69601440429688 173.81227111816406 190.89720153808594 172.26174926757812 193.86099243164062 190.77439880371094" stroke-width="2.0" fill="none" stroke="rgb(0, 0, 0)" stroke-opacity="1" stroke-linecap="round" stroke-linejoin="round"/>
    <path d="M 67.35904693603516 167.96231079101562 C 54.31406021118164 178.51922607421875 77.04060363769531 182.9957733154297 76.07609558105469 173.2712860107422 C 85.34523010253906 167.93374633789062 78.39027404785156 161.18472290039062 59.41872024536133 172.63726806640625 C 71.60287475585938 149.21990966796875 84.9271469116211 165.80552673339844 63.83222579956055 146.31451416015625" stroke-width="2.0" fill="none" stroke="rgb(0, 0, 0)" stroke-opacity="1" stroke-linecap="round" stroke-linejoin="round"/>
    <path d="M 131.2015838623047 187.97265625 C 99.65662384033203 178.9570770263672 96.18313598632812 196.10986328125 104.32789611816406 216.22869873046875 C 102.11724090576172 216.18470764160156 100.5101089477539 204.73622131347656 103.5315170288086 222.34498596191406" stroke-width="2.0" fill="none" stroke="rgb(0, 0, 0)" stroke-opacity="1" stroke-linecap="round" stroke-linejoin="round"/>
    <path d="M 32.15618896484375 153.85272216796875 C 21.06900405883789 135.17782592773438 11.784940719604492 187.6627655029297 28.7656192779541 178.29757690429688" stroke-width="2.0" fill="none" stroke="rgb(0, 0, 0)" stroke-opacity="1" stroke-linecap="round" stroke-linejoin="round"/>
    <path d="M 105.17858123779297 119.98259735107422 C 80.65562438964844 105.91056060791016 94.97705841064453 66.9850845336914 101.79898834228516 101.2325668334961" stroke-width="2.0" fill="none" stroke="rgb(0, 0, 0)" stroke-opacity="1" stroke-linecap="round" stroke-linejoin="round"/>
    <path d="M 165.391357421875 168.2768096923828 C 150.3984832763672 146.36639404296875 145.72520446777344 163.231689453125 163.29432678222656 162.6135711669922 C 134.17361450195312 180.32228088378906 173.490966796875 161.1725311279297 159.56796264648438 180.75454711914062 C 160.8824462890625 184.32574462890625 160.76611328125 184.66070556640625 151.0626678466797 176.93736267089844" stroke-width="2.0" fill="none" stroke="rgb(0, 0, 0)" stroke-opacity="1" stroke-linecap="round" stroke-linejoin="round"/>
    <path d="M 117.83570861816406 131.0062255859375 C 99.43746948242188 117.63400268554688 87.40640258789062 135.1272430419922 99.0213851928711 113.17317199707031 C 113.64088439941406 116.25349426269531 96.19602966308594 107.14290618896484 94.96996307373047 113.01024627685547" stroke-width="2.0" fill="none" stroke="rgb(0, 0, 0)" stroke-opacity="1" stroke-linecap="round" stroke-linejoin="round"/>
    <path d="M 71.41089630126953 156.62667846679688 C 66.34651947021484 167.6422882080078 69.32963562011719 168.4924774169922 80.03706359863281 165.1588897705078 C 72.11448669433594 144.6697998046875 61.80622482299805 149.8861541748047 80.5960693359375 167.2213897705078 C 64.52227783203125 140.32760620117188 37.43650436401367 140.94384765625 86.70103454589844 153.7430877685547" stroke-width="2.0" fill="none" stroke="rgb(0, 0, 0)" stroke-opacity="1" stroke-linecap="round" stroke-linejoin="round"/>
    <path d="M 205.89173889160156 6.246007919311523 C 177.7983856201172 -4.615905284881592 156.52586364746094 -19.68944549560547 174.09556579589844 -9.012748718261719" stroke-width="2.0" fill="none" stroke="rgb(0, 0, 0)" stroke-opacity="1" stroke-linecap="round" stroke-linejoin="round"/>
    <path d="M 226.06385803222656 203.74948120117188 C 231.1373748779297 231.63955688476562 227.16665649414062 205.3406219482422 221.625244140625 203.72190856933594 C 229.1264190673828 195.3440399169922 222.4921875 165.09619140625 240.09445190429688 192.72129821777344 C 234.85899353027344 192.211181640625 230.0509490966797 188.6731719970703 227.4564208984375 193.48483276367188" stroke-width="2.0" fill="none" stroke="rgb(0, 0, 0)" stroke-opacity="1" stroke-linecap="round" stroke-linejoin="round"/>
    <path d="M 147.7510223388672 77.31812286376953 C 123.20098114013672 73.76696014404297 150.92514038085938 79.2569808959961 131.85276794433594 80.58426666259766" stroke-width="2.0" fill="none" stroke="rgb(0, 0, 0)" stroke-opacity="1" stroke-linecap="round" stroke-linejoin="round"/>
    <path d="M 180.40907287597656 232.04083251953125 C 180.02291870117188 230.540771484375 170.76239013671875 241.73342895507812 162.6621551513672 237.9391632080078 C 165.2963409423828 242.96829223632812 174.45252990722656 253.60708618164062 181.1842498779297 249.8119354248047 C 177.40977478027344 239.9764404296875 179.0492401123047 232.845458984375 169.2184295654297 226.6680145263672" stroke-width="2.0" fill="none" stroke="rgb(0, 0, 0)" stroke-opacity="1" stroke-linecap="round" stroke-linejoin="round"/>
    <path d="M 169.05897521972656 10.869649887084961 C 185.0886688232422 -0.3985992670059204 197.88623046875 17.001155853271484 214.03636169433594 -0.7060885429382324 C 198.56182861328125 7.72282075881958 196.09657287597656 -9.907346725463867 177.09951782226562 -23.686220169067383 C 180.02732849121094 -13.342314720153809 178.65322875976562 -14.11868953704834 179.41354370117188 -20.45903778076172" stroke-width="2.0" fill="none" stroke="rgb(0, 0, 0)" stroke-opacity="1" stroke-linecap="round" stroke-linejoin="round"/>
    <path d="M 26.503746032714844 67.61408233642578 C 40.34419250488281 71.59193420410156 72.89453887939453 95.34259033203125 50.1542854309082 93.73603820800781 C 61.25437545776367 94.9795150756836 95.45065307617188 130.82223510742188 52.49979782104492 103.78834533691406" stroke-width="2.0" fill="none" stroke="rgb(0, 0, 0)" stroke-opacity="1" stroke-linecap="round" stroke-linejoin="round"/>
    <path d="M 211.847412109375 182.21604919433594 C 193.6170196533203 179.21157836914062 225.6469268798828 213.8473358154297 202.4852294921875 183.7599334716797" stroke-width="2.0" fill="none" stroke="rgb(0, 0, 0)" stroke-opacity="1" stroke-linecap="round" stroke-linejoin="round"/>
    <path d="M 58.05398941040039 124.42269134521484 C 56.81458282470703 124.52110290527344 65.51676940917969 145.90573120117188 66.61710357666016 130.62815856933594 C 54.68040466308594 107.6767807006836 32.18812942504883 153.67532348632812 60.00433349609375 136.98916625976562" stroke-width="2.0" fill="none" stroke="rgb(0, 0, 0)" stroke-opacity="1" stroke-linecap="round" stroke-linejoin="round"/>
    <path d="M 206.67535400390625 187.799560546875 C 214.6742706298828 163.87367248535156 221.13287353515625 208.7859649658203 203.27337646484375 184.48489379882812 C 230.41485595703125 158.9891357421875 209.8067169189453 139.0316619873047 208.9734649658203 149.86009216308594 C 180.59197998046875 172.98306274414062 170.98033142089844 160.52967834472656 172.82395935058594 168.69886779785156" stroke-width="2.0" fill="none" stroke="rgb(0, 0, 0)" stroke-opacity="1" stroke-linecap="round" stroke-linejoin="round"/>
    <path d="M 57.10678482055664 25.934844970703125 C 40.18925476074219 26.928190231323242 62.09465789794922 5.516091346740723 97.46321868896484 2.366539239883423 C 103.50470733642578 -3.379220485687256 110.705078125 20.99982452392578 99.20831298828125 3.778467893600464" stroke-width="2.0" fill="none" stroke="rgb(0, 0, 0)" stroke-opacity="1" stroke-linecap="round" stroke-linejoin="round"/>
    <path d="M 182.29525756835938 81.67742919921875 C 208.2713165283203 79.46392059326172 177.42959594726562 66.92021179199219 172.7774200439453 81.15532684326172" stroke-width="2.0" fill="none" stroke="rgb(0, 0, 0)" stroke-opacity="1" stroke-linecap="round" stroke-linejoin="round"/>
    <path d="M 77.08946228027344 101.2436752319336 C 54.15673828125 70.2469253540039 43.262420654296875 64.19342803955078 26.646873474121094 61.333126068115234" stroke-width="2.0" fill="none" stroke="rgb(0, 0, 0)" stroke-opacity="1" stroke-linecap="round" stroke-linejoin="round"/>
    <path d="M 109.72257232666016 97.90360260009766 C 155.54891967773438 110.15259552001953 128.17539978027344 116.36360931396484 135.37857055664062 125.67671966552734" stroke-width="2.0" fill="none" stroke="rgb(0, 0, 0)" stroke-opacity="1" stroke-linecap="round" stroke-linejoin="round"/>
    <path d="M 11.491223335266113 125.59270477294922 C 31.263795852661133 115.51764678955078 30.445302963256836 147.42837524414062 28.45183563232422 132.66697692871094 C 16.61094856262207 128.744873046875 36.88795471191406 139.7043914794922 21.066884994506836 132.9754638671875 C 24.351940155029297 140.0660858154297 35.560096740722656 119.57410430908203 13.171573638916016 118.61968231201172" stroke-width="2.0" fill="none" stroke="rgb(0, 0, 0)" stroke-opacity="1" stroke-linecap="round" stroke-linejoin="round"/>
    <path d="M 141.13858032226562 86.7286605834961 C 156.25453186035156 82.50541687011719 138.44541931152344 88.67044830322266 140.9121856689453 88.87098693847656 C 154.58599853515625 92.81922149658203 140.33770751953125 55.54964065551758 129.99725341796875 69.25054931640625" stroke-width="2.0" fill="none" stroke="rgb(0, 0, 0)" stroke-opacity="1" stroke-linecap="round" stroke-linejoin="round"/>
    <path d="M 27.583274841308594 21.947559356689453 C 38.90771484375 60.411624908447266 16.409801483154297 41.80088806152344 28.613101959228516 47.73251724243164 C 33.16208267211914 61.97704315185547 26.077116012573242 28.756431579589844 31.59031867980957 57.055850982666016 C 33.17779541015625 38.724143981933594 45.3056526184082 39.24040222167969 34.96781921386719 33.66386413574219" stroke-width="2.0" fill="none" stroke="rgb(0, 0, 0)" stroke-opacity="1" stroke-linecap="round" stroke-linejoin="round"/>
    <path d="M 206.7661590576172 126.92671203613281 C 226.4015350341797 132.41294860839844 198.06373596191406 158.97491455078125 189.04254150390625 169.9892120361328" stroke-width="2.0" fill="none" stroke="rgb(0, 0, 0)" stroke-opacity="1" stroke-linecap="round" stroke-linejoin="round"/>
    <path d="M 91.09053802490234 133.2083740234375 C 104.76940155029297 130.0141143798828 87.89984893798828 142.45755004882812 95.005126953125 119.74809265136719" stroke-width="2.0" fill="none" stroke="rgb(0, 0, 0)" stroke-opacity="1" stroke-linecap="round" stroke-linejoin="round"/>
    <path d="M 172.41854858398438 85.32614135742188 C 148.065673828125 61.33710479736328 188.24012756347656 70.97308349609375 186.50128173828125 59.33170700073242 C 155.68289184570312 65.3704605102539 154.2353515625 50.382328033447266 217.33895874023438 57.39897155761719 C 194.19464111328125 37.42718505859375 150.09881591796875 60.434715270996094 164.6168975830078 36.53704833984375" stroke-width="2.0" fill="none" stroke="rgb(0, 0, 0)" stroke-opacity="1" stroke-linecap="round" stroke-linejoin="round"/>
    <path d="M 27.877365112304688 119.54916381835938 C 4.400193691253662 92.94348907470703 4.142297267913818 108.59249114990234 0.8913697600364685 98.69120025634766 C 2.764862298965454 115.75318908691406 -8.870925903320312 97.45393371582031 22.79494857788086 103.462890625 C 19.058982849121094 114.89673614501953 28.044692993164062 107.53565216064453 20.89002227783203 103.03264617919922" stroke-width="2.0" fill="none" stroke="rgb(0, 0, 0)" stroke-opacity="1" stroke-linecap="round" stroke-linejoin="round"/>
    <path d="M 141.87657165527344 184.27996826171875 C 140.7932891845703 172.54356384277344 137.78436279296875 191.43057250976562 142.42921447753906 182.2548065185547" stroke-width="2.0" fill="none" stroke="rgb(0, 0, 0)" stroke-opacity="1" stroke-linecap="round" stroke-linejoin="round"/>
    <path d="M 72.4283676147461 114.23624420166016 C 96.48627471923828 128.24864196777344 78.24343872070312 134.98214721679688 56.2181396484375 120.53450775146484" stroke-width="2.0" fill="none" stroke="rgb(0, 0, 0)" stroke-opacity="1" stroke-linecap="round" stroke-linejoin="round"/>
    <path d="M 167.742431640625 44.83235549926758 C 189.7158660888672 45.77622604370117 180.4195098876953 61.680789947509766 178.59616088867188 79.96581268310547 C 188.315185546875 83.60342407226562 190.3515625 51.84878158569336 173.35789489746094 40.85256576538086 C 183.6578369140625 66.5096664428711 183.8656005859375 89.40113830566406 175.7729034423828 44.18613815307617" stroke-width="2.0" fill="none" stroke="rgb(0, 0, 0)" stroke-opacity="1" stroke-linecap="round" stroke-linejoin="round"/>
    <path d="M 117.32920837402344 204.51722717285156 C 101.37939453125 197.29998779296875 112.37908172607422 193.42160034179688 83.13925170898438 216.74984741210938" stroke-width="2.0" fill="none" stroke="rgb(0, 0, 0)" stroke-opacity="1" stroke-linecap="round" stroke-linejoin="round"/>
    <path d="M 211.64210510253906 79.88719177246094 C 208.18922424316406 101.34618377685547 195.25448608398438 96.84229278564453 209.5155029296875 81.72319030761719 C 216.74644470214844 66.50281524658203 201.77793884277344 94.17347717285156 186.35276794433594 102.42940521240234 C 222.61236572265625 100.7405776977539 209.34158325195312 91.1185531616211 178.51585388183594 106.28955841064453" stroke-width="2.0" fill="none" stroke="rgb(0, 0, 0)" stroke-opacity="1" stroke-linecap="round" stroke-linejoin="round"/>
    <path d="M 125.8673324584961 147.32725524902344 C 151.13563537597656 146.75347900390625 148.1937255859375 156.99026489257812 157.6829376220703 157.28111267089844 C 135.45591735839844 177.55828857421875 136.58078002929688 137.81922912597656 165.24583435058594 158.97544860839844" stroke-width="2.0" fill="none" stroke="rgb(0, 0, 0)" stroke-opacity="1" stroke-linecap="round" stroke-linejoin="round"/>
    <path d="M 77.12491607666016 29.417661666870117 C 84.94852447509766 30.154273986816406 105.6586685180664 36.93175506591797 120.49688720703125 58.520503997802734" stroke-width="2.0" fill="none" stroke="rgb(0, 0, 0)" stroke-opacity="1" stroke-linecap="round" stroke-linejoin="round"/>
    <path d="M 55.142417907714844 21.304943084716797 C 44.04341506958008 35.64213180541992 60.55929183959961 31.059072494506836 60.56966781616211 50.89887619018555" stroke-width="2.0" fill="none" stroke="rgb(0, 0, 0)" stroke-opacity="1" stroke-linecap="round" stroke-linejoin="round"/>
    <path d="M 214.56434631347656 55.865196228027344 C 227.17445373535156 61.82412338256836 212.85275268554688 91.42955017089844 210.60227966308594 80.53701782226562" stroke-width="2.0" fill="none" stroke="rgb(0, 0, 0)" stroke-opacity="1" stroke-linecap="round" stroke-linejoin="round"/>
    <path d="M 155.62965393066406 198.00942993164062 C 171.1873321533203 215.9208984375 166.4173583984375 217.5556640625 142.3182373046875 204.9869842529297 C 120.5721664428711 200.5573272705078 127.57518005371094 210.25262451171875 131.0795440673828 205.314453125" stroke-width="2.0" fill="none" stroke="rgb(0, 0, 0)" stroke-opacity="1" stroke-linecap="round" stroke-linejoin="round"/>
    <path d="M 90.61103057861328 185.7652587890625 C 71.81430053710938 153.26087951660156 39.22902297973633 170.90277099609375 80.13880157470703 183.23880004882812" stroke-width="2.0" fill="none" stroke="rgb(0, 0, 0)" stroke-opacity="1" stroke-linecap="round" stroke-linejoin="round"/>
    <path d="M 48.79304122924805 152.0937042236328 C 61.67995071411133 152.14871215820312 52.544368743896484 149.31512451171875 41.927093505859375 161.75204467773438" stroke-width="2.0" fill="none" stroke="rgb(0, 0, 0)" stroke-opacity="1" stroke-linecap="round" stroke-linejoin="round"/>
    <path d="M 157.84185791015625 61.37675857543945 C 176.21263122558594 67.80894470214844 160.06741333007812 30.009763717651367 168.2893829345703 37.31874084472656 C 174.41502380371094 44.90523147583008 183.15252685546875 58.74856948852539 192.4034881591797 61.22966384887695" stroke-width="2.0" fill="none" stroke="rgb(0, 0, 0)" stroke-opacity="1" stroke-linecap="round" stroke-linejoin="round"/>
    <path d="M 236.74635314941406 74.16266632080078 C 221.4904022216797 83.85621643066406 227.1993865966797 87.20103454589844 231.25802612304688 95.63059997558594" stroke-width="2.0" fill="none" stroke="rgb(0, 0, 0)" stroke-opacity="1" stroke-linecap="round" stroke-linejoin="round"/>
    <path d="M 63.39682388305664 154.0668182373047 C 59.244903564453125 160.791259765625 58.22026824951172 147.60247802734375 63.40943145751953 153.25018310546875" stroke-width="2.0" fill="none" stroke="rgb(0, 0, 0)" stroke-opacity="1" stroke-linecap="round" stroke-linejoin="round"/>
    <path d="M 32.079219818115234 53.9345703125 C 27.07893943786621 47.35045623779297 31.86164093017578 35.0 34.48857498168945 31.702756881713867" stroke-width="2.0" fill="none" stroke="rgb(0, 0, 0)" stroke-opacity="1" stroke-linecap="round" stroke-linejoin="round"/>
    <path d="M 41.962974548339844 167.2231903076172 C 79.27012634277344 181.8656768798828 60.00628662109375 173.36732482910156 61.21705627441406 158.6974639892578 C 73.53377532958984 180.80406188964844 57.30292892456055 177.33778381347656 73.92816162109375 159.9611358642578" stroke-width="2.0" fill="none" stroke="rgb(0, 0, 0)" stroke-opacity="1" stroke-linecap="round" stroke-linejoin="round"/>
    <path d="M 198.17393493652344 175.17959594726562 C 184.48460388183594 170.91111755371094 201.14646911621094 176.04971313476562 207.45281982421875 165.73431396484375 C 200.98284912109375 165.8124237060547 200.85894775390625 179.08599853515625 179.95204162597656 165.6549530029297" stroke-width="2.0" fill="none" stroke="rgb(0, 0, 0)" stroke-opacity="1" stroke-linecap="round" stroke-linejoin="round"/>
    <path d="M 126.72447204589844 196.24856567382812 C 137.45452880859375 184.90567016601562 137.70704650878906 199.34188842773438 145.23861694335938 204.0699920654297 C 125.75166320800781 193.75421142578125 131.3967742919922 221.57159423828125 132.77630615234375 202.69955444335938 C 134.98486328125 219.70419311523438 129.51490783691406 249.4628448486328 124.30046081542969 248.27296447753906" stroke-width="2.0" fill="none" stroke="rgb(0, 0, 0)" stroke-opacity="1" stroke-linecap="round" stroke-linejoin="round"/>
    <path d="M 84.2771987915039 149.7060546875 C 102.43811798095703 141.88426208496094 73.87944793701172 148.4003448486328 56.89019775390625 144.36277770996094 C 79.1965560913086 151.11598205566406 37.516483306884766 143.80892944335938 54.37363052368164 131.2930908203125 C 96.22748565673828 119.3296127319336 35.374183654785156 104.6195297241211 57.07992172241211 136.12013244628906" stroke-width="2.0" fill="none" stroke="rgb(0, 0, 0)" stroke-opacity="1" stroke-linecap="round" stroke-linejoin="round"/>
    <path d="M 193.3136444091797 189.69859313964844 C 176.3704071044922 198.6255645751953 194.48947143554688 191.05560302734375 195.642333984375 197.0175323486328" stroke-width="2.0" fill="none" stroke="rgb(0, 0, 0)" stroke-opacity="1" stroke-linecap="round" stroke-linejoin="round"/>
    <path d="M 105.5603256225586 30.349849700927734 C 141.76449584960938 17.728853225708008 104.99715423583984 42.822532653808594 116.31105041503906 30.558794021606445 C 133.29441833496094 31.324731826782227 130.63995361328125 15.821608543395996 134.84033203125 41.08280563354492 C 121.23564147949219 10.714715957641602 122.1336669921875 5.016505241394043 136.05975341796875 25.01535415649414" stroke-width="2.0" fill="none" stroke="rgb(0, 0, 0)" stroke-opacity="1" stroke-linecap="round" stroke-linejoin="round"/>
    <path d="M 53.596858978271484 37.292354583740234 C 70.4290542602539 27.398422241210938 76.61869812011719 26.53437614440918 55.49835968017578 36.5938720703125 C 41.78624725341797 31.958797454833984 82.841796875 7.251434803009033 72.61752319335938 25.150087356567383" stroke-width="2.0" fill="none" stroke="rgb(0, 0, 0)" stroke-opacity="1" stroke-linecap="round" stroke-linejoin="round"/>
    <path d="M 143.3190460205078 125.5213623046875 C 156.28826904296875 156.30801391601562 156.5507049560547 148.9827117919922 125.7921142578125 119.88257598876953" stroke-width="2.0" fill="none" stroke="rgb(0, 0, 0)" stroke-opacity="1" stroke-linecap="round" stroke-linejoin="round"/>
    <path d="M 149.5160675048828 50.06660079956055 C 171.11720275878906 76.43675231933594 157.7793731689453 87.06143951416016 185.24586486816406 72.20358276367188 C 190.73912048339844 102.8547134399414 122.8636245727539 95.44222259521484 158.05235290527344 92.66920471191406" stroke-width="2.0" fill="none" stroke="rgb(0, 0, 0)" stroke-opacity="1" stroke-linecap="round" stroke-linejoin="round"/>
    <path d="M 89.53096008300781 3.216541290283203 C 124.50727081298828 -1.2146681547164917 125.69268798828125 9.142782211303711 131.4860076904297 28.635028839111328 C 122.98866271972656 -1.0901142358779907 119.8775863647461 17.133594512939453 156.07830810546875 11.592110633850098 C 138.3017120361328 8.4815092086792 126.61931610107422 4.200098514556885 100.1451644897461 -5.528841495513916" stroke-width="2.0" fill="none" stroke="rgb(0, 0, 0)" stroke-opacity="1" stroke-linecap="round" stroke-linejoin="round"/>
    <path d="M 48.77959442138672 15.445577621459961 C 52.151771545410156 -1.491910457611084 96.15840148925781 -1.2756282091140747 70.75101470947266 -2.0629825592041016 C 28.43887710571289 -10.063530921936035 37.99864196777344 -14.821711540222168 51.76375961303711 -15.535224914550781" stroke-width="2.0" fill="none" stroke="rgb(0, 0, 0)" stroke-opacity="1" stroke-linecap="round" stroke-linejoin="round"/>
    <path d="M 114.74539184570312 22.011600494384766 C 111.22974395751953 63.14609146118164 133.0627899169922 24.992372512817383 121.94363403320312 42.3106689453125" stroke-width="2.0" fill="none" stroke="rgb(0, 0, 0)" stroke-opacity="1" stroke-linecap="round" stroke-linejoin="round"/>
    <path d="M 101.25567626953125 165.40208435058594 C 99.03361511230469 189.53851318359375 127.36963653564453 198.86483764648438 126.5359878540039 199.847412109375 C 147.7649688720703 182.68421936035156 119.71929931640625 192.366943359375 120.70236206054688 191.6443328857422" stroke-width="2.0" fill="none" stroke="rgb(0, 0, 0)" stroke-opacity="1" stroke-linecap="round" stroke-linejoin="round"/>
    <path d="M 86.94104766845703 150.3518829345703 C 90.02688598632812 124.47048950195312 95.75328826904297 142.03578186035156 82.39371490478516 136.96505737304688 C 103.45799255371094 133.4791259765625 108.83942413330078 142.1362762451172 84.413330078125 138.36679077148438 C 82.01803588867188 142.99200439453125 69.80218505859375 133.8111114501953 92.04388427734375 142.96270751953125" stroke-width="2.0" fill="none" stroke="rgb(0, 0, 0)" stroke-opacity="1" stroke-linecap="round" stroke-linejoin="round"/>
    <path d="M 198.44186401367188 198.28121948242188 C 188.2653045654297 192.83047485351562 177.19976806640625 206.34295654296875 230.50804138183594 210.6864013671875 C 195.15814208984375 229.92535400390625 177.6700897216797 230.72474670410156 177.76268005371094 224.51455688476562 C 207.60897827148438 223.19313049316406 224.63827514648438 215.71177673339844 230.13453674316406 230.89419555664062" stroke-width="2.0" fill="none" stroke="rgb(0, 0, 0)" stroke-opacity="1" stroke-linecap="round" stroke-linejoin="round"/>
    <path d="M 99.07027435302734 61.39083480834961 C 114.13737487792969 64.43330383300781 142.81997680664062 80.71867370605469 137.83389282226562 80.38497161865234 C 121.87991333007812 66.26897430419922 110.63468933105469 66.7621841430664 137.209228515625 68.80703735351562 C 110.3103256225586 75.8254165649414 153.85035705566406 73.285400390625 145.6804962158203 59.71989822387695" stroke-width="2.0" fill="none" stroke="rgb(0, 0, 0)" stroke-opacity="1" stroke-linecap="round" stroke-linejoin="round"/>
    <path d="M 126.69888305664062 104.17166137695312 C 142.06686401367188 119.71153259277344 157.9865264892578 105.94169616699219 116.34125518798828 87.98377990722656" stroke-width="2.0" fill="none" stroke="rgb(0, 0, 0)" stroke-opacity="1" stroke-linecap="round" stroke-linejoin="round"/>
    <path d="M 183.17269897460938 147.31776428222656 C 208.5601806640625 141.67916870117188 188.2378692626953 112.58529663085938 169.89486694335938 146.15260314941406 C 159.9836883544922 142.74107360839844 169.2863006591797 128.3262939453125 175.2025909423828 138.64035034179688 C 164.6554412841797 127.26420593261719 171.42543029785156 114.55201721191406 185.6138916015625 131.42173767089844" stroke-width="2.0" fill="none" stroke="rgb(0, 0, 0)" stroke-opacity="1" stroke-linecap="round" stroke-linejoin="round"/>
    <path d="M 138.21707153320312 69.74828338623047 C 161.68359375 89.13815307617188 175.24159240722656 96.24437713623047 176.68104553222656 82.66975402832031 C 135.47149658203125 73.88311004638672 138.24502563476562 64.07091522216797 153.79234313964844 70.64286804199219 C 141.29586791992188 41.86013412475586 129.68685913085938 69.85137176513672 109.2693862915039 69.07970428466797" stroke-width="2.0" fill="none" stroke="rgb(0, 0, 0)" stroke-opacity="1" stroke-linecap="round" stroke-linejoin="round"/>
    <path d="M 54.158729553222656 48.24143600463867 C 49.195438385009766 65.44757080078125 23.584373474121094 65.52777099609375 51.29001998901367 62.81270217895508 C 69.00215911865234 74.85369873046875 56.29242706298828 41.351932525634766 44.47378158569336 62.7546272277832 C 54.5541877746582 56.0850715637207 62.47578430175781 80.81786346435547 43.369327545166016 62.49161911010742" stroke-width="2.0" fill="none" stroke="rgb(0, 0, 0)" stroke-opacity="1" stroke-linecap="round" stroke-linejoin="round"/>
    <path d="M 85.41178894042969 6.353249549865723 C 99.60594177246094 10.846806526184082 82.91767120361328 -8.849943161010742 81.11773681640625 14.33117961883545 C 50.93965530395508 31.391027450561523 68.28669738769531 -2.879565715789795 113.99353790283203 -2.2632203102111816 C 116.78437042236328 -9.879602432250977 111.32293701171875 26.215980529785156 107.69348907470703 4.536452770233154" stroke-width="2.0" fill="none" stroke="rgb(0, 0, 0)" stroke-opacity="1" stroke-linecap="round" stroke-linejoin="round"/>
    <path d="M 106.76773834228516 32.190242767333984 C 126.42060089111328 8.011251449584961 128.68756103515625 32.19245529174805 122.91455841064453 23.689485549926758 C 129.13829040527344 14.656373023986816 116.63458251953125 -2.1245245933532715 94.36724853515625 -2.2148122787475586" stroke-width="2.0" fill="none" stroke="rgb(0, 0, 0)" stroke-opacity="1" stroke-linecap="round" stroke-linejoin="round"/>
    <path d="M 176.22463989257812 -0.6132940053939819 C 135.207763671875 15.778639793395996 111.77377319335938 -18.933488845825195 136.56878662109375 -4.081556797027588" stroke-width="2.0" fill="none" stroke="rgb(0, 0, 0)" stroke-opacity="1" stroke-linecap="round" stroke-linejoin="round"/>
    <path d="M -4.317399024963379 173.75991821289062 C -2.229154586791992 191.3045654296875 -1.3585339784622192 200.60247802734375 -10.420123100280762 209.4373779296875 C -22.948360443115234 195.87863159179688 -18.4836368560791 204.91009521484375 -19.85323715209961 214.69615173339844" stroke-width="2.0" fill="none" stroke="rgb(0, 0, 0)" stroke-opacity="1" stroke-linecap="round" stroke-linejoin="round"/>
    <path d="M 116.18141174316406 80.14142608642578 C 168.0818634033203 81.3366470336914 155.9922332763672 93.30619812011719 157.92788696289062 93.40633392333984 C 140.1283416748047 58.648380279541016 144.04278564453125 97.85848999023438 171.64791870117188 83.2700424194336 C 142.3323516845703 92.15342712402344 147.8287811279297 101.13182830810547 162.32118225097656 99.98421478271484" stroke-width="2.0" fill="none" stroke="rgb(0, 0, 0)" stroke-opacity="1" stroke-linecap="round" stroke-linejoin="round"/>
    <path d="M 89.06076049804688 74.39046478271484 C 91.27860260009766 89.10509490966797 102.58010864257812 75.15972900390625 94.87422943115234 70.5765609741211 C 76.1489486694336 92.18746948242188 131.20033264160156 54.67880630493164 82.12640380859375 77.17572021484375" stroke-width="2.0" fill="none" stroke="rgb(0, 0, 0)" stroke-opacity="1" stroke-linecap="round" stroke-linejoin="round"/>
    <path d="M 85.77960968017578 159.6300048828125 C 56.85115432739258 147.73318481445312 91.7710189819336 175.5479736328125 60.469444274902344 158.9310760498047 C 33.44134521484375 163.8259735107422 60.886600494384766 212.91212463378906 42.12980651855469 172.7877655029297 C 63.7119026184082 178.93215942382812 75.82413482666016 157.71633911132812 77.66654968261719 170.58151245117188" stroke-width="2.0" fill="none" stroke="rgb(0, 0, 0)" stroke-opacity="1" stroke-linecap="round" stroke-linejoin="round"/>
    <path d="M 42.07691955566406 50.24300765991211 C 56.65027618408203 36.94691467285156 28.678466796875 20.981517791748047 43.10385513305664 25.740558624267578 C 30.8010196685791 78.53724670410156 45.335086822509766 25.09564781188965 25.47222328186035 12.368735313415527" stroke-width="2.0" fill="none" stroke="rgb(0, 0, 0)" stroke-opacity="1" stroke-linecap="round" stroke-linejoin="round"/>
    <path d="M 219.27430725097656 50.3557014465332 C 213.31712341308594 -20.696779251098633 235.86949157714844 3.8052847385406494 208.86985778808594 32.92787170410156" stroke-width="2.0" fill="none" stroke="rgb(0, 0, 0)" stroke-opacity="1" stroke-linecap="round" stroke-linejoin="round"/>
    <path d="M 76.95326232910156 217.92124938964844 C 71.88726806640625 188.2466583251953 40.010292053222656 220.6214599609375 51.93199920654297 195.8085174560547 C 64.47451782226562 196.27926635742188 80.21397399902344 219.31085205078125 81.43597412109375 207.97540283203125 C 84.63302612304688 214.6966552734375 76.13897705078125 185.8024444580078 48.6214714050293 170.78964233398438" stroke-width="2.0" fill="none" stroke="rgb(0, 0, 0)" stroke-opacity="1" stroke-linecap="round" stroke-linejoin="round"/>
    <path d="M 133.95913696289062 173.7194061279297 C 147.22056579589844 176.8809051513672 159.08615112304688 191.20440673828125 143.38278198242188 196.89353942871094 C 163.29530334472656 206.13958740234375 162.3174591064453 197.9585418701172 134.01116943359375 213.8188934326172" stroke-width="2.0" fill="none" stroke="rgb(0, 0, 0)" stroke-opacity="1" stroke-linecap="round" stroke-linejoin="round"/>
    <path d="M 226.16336059570312 174.08763122558594 C 220.75653076171875 180.09901428222656 247.25279235839844 176.0729217529297 255.71728515625 180.9899139404297 C 236.7976531982422 180.24082946777344 235.05474853515625 183.76895141601562 246.01051330566406 179.8660430908203 C 252.14105224609375 190.10494995117188 245.7841033935547 192.06307983398438 247.18084716796875 196.1303253173828" stroke-width="2.0" fill="none" stroke="rgb(0, 0, 0)" stroke-opacity="1" stroke-linecap="round" stroke-linejoin="round"/>
    <path d="M 97.25468444824219 237.7228546142578 C 91.93632507324219 216.18495178222656 88.62189483642578 221.435791015625 95.21798706054688 215.86398315429688 C 83.84200286865234 200.8251953125 95.10307312011719 221.36819458007812 96.5890121459961 245.05409240722656 C 98.1744155883789 229.77415466308594 96.79190063476562 229.03758239746094 97.04175567626953 229.8271026611328" stroke-width="2.0" fill="none" stroke="rgb(0, 0, 0)" stroke-opacity="1" stroke-linecap="round" stroke-linejoin="round"/>
    <path d="M 167.38340759277344 141.5189208984375 C 217.2332000732422 146.56539916992188 178.92446899414062 164.43783569335938 174.0309600830078 151.081787109375 C 176.52194213867188 137.67929077148438 198.71676635742188 143.6211395263672 179.22242736816406 124.49500274658203 C 171.2971954345703 132.91128540039062 195.66900634765625 149.90139770507812 167.3217010498047 120.835205078125" stroke-width="2.0" fill="none" stroke="rgb(0, 0, 0)" stroke-opacity="1" stroke-linecap="round" stroke-linejoin="round"/>
    <path d="M 64.82906341552734 32.27280044555664 C 88.2188720703125 33.85031509399414 113.34561920166016 61.510955810546875 78.54376983642578 51.44649124145508 C 93.05557250976562 77.36327362060547 76.20657348632812 66.06961822509766 82.11460876464844 53.189544677734375 C 84.66547393798828 67.39825439453125 95.94558715820312 39.23396301269531 83.02226257324219 47.43910217285156" stroke-width="2.0" fill="none" stroke="rgb(0, 0, 0)" stroke-opacity="1" stroke-linecap="round" stroke-linejoin="round"/>
    <path d="M 112.06625366210938 27.5990047454834 C 148.15818786621094 40.09483337402344 135.12586975097656 33.22694778442383 118.80107879638672 43.04271697998047 C 108.07058715820312 33.083194732666016 93.59783172607422 22.715320587158203 79.84757232666016 26.19869041442871" stroke-width="2.0" fill="none" stroke="rgb(0, 0, 0)" stroke-opacity="1" stroke-linecap="round" stroke-linejoin="round"/>
    <path d="M 128.54183959960938 110.32170867919922 C 111.41907501220703 124.57815551757812 111.93730926513672 88.0030746459961 117.26701354980469 108.44429779052734 C 125.50750732421875 90.33602905273438 134.06312561035156 140.3040008544922 113.5224609375 104.79698181152344 C 143.5440673828125 104.05015563964844 151.55580139160156 138.4484405517578 134.4319305419922 112.24408721923828" stroke-width="2.0" fill="none" stroke="rgb(0, 0, 0)" stroke-opacity="1" stroke-linecap="round" stroke-linejoin="round"/>
    <path d="M 176.330078125 143.70492553710938 C 169.5758514404297 119.21251678466797 143.01773071289062 119.98155212402344 160.34535217285156 130.9815673828125" stroke-width="2.0" fill="none" stroke="rgb(0, 0, 0)" stroke-opacity="1" stroke-linecap="round" stroke-linejoin="round"/>
    <path d="M 150.68258666992188 138.90707397460938 C 177.4244842529297 159.56405639648438 190.10052490234375 159.73121643066406 201.13172912597656 146.70248413085938 C 194.96597290039062 128.11964416503906 174.18807983398438 167.1882781982422 178.12376403808594 150.01991271972656" stroke-width="2.0" fill="none" stroke="rgb(0, 0, 0)" stroke-opacity="1" stroke-linecap="round" stroke-linejoin="round"/>
    <path d="M 75.70272827148438 34.949493408203125 C 99.9028091430664 58.05776596069336 105.34269714355469 60.26375198364258 80.52071380615234 37.92724609375 C 92.85652160644531 53.35358810424805 97.09310150146484 53.84212112426758 96.34632110595703 79.50187683105469 C 87.76436614990234 48.675411224365234 114.3828125 42.94068908691406 82.66732025146484 79.94368743896484" stroke-width="2.0" fill="none" stroke="rgb(0, 0, 0)" stroke-opacity="1" stroke-linecap="round" stroke-linejoin="round"/>
    <path d="M 22.191038131713867 162.91664123535156 C 49.151180267333984 190.39231872558594 41.07151794433594 197.32569885253906 31.788414001464844 158.57383728027344 C 12.401494979858398 184.37606811523438 35.571346282958984 193.41612243652344 33.35523986816406 179.9950714111328 C 53.97150802612305 214.20310974121094 46.82158660888672 169.35414123535156 74.07865905761719 157.0619659423828" stroke-width="2.0" fill="none" stroke="rgb(0, 0, 0)" stroke-opacity="1" stroke-linecap="round" stroke-linejoin="round"/>
    <path d="M 27.481901168823242 3.5692896842956543 C 32.32443618774414 9.7664794921875 55.7581672668457 1.205644965171814 76.81133270263672 -11.048681259155273 C 36.97218704223633 -15.597366333007812 40.6688232421875 -14.936745643615723 51.343589782714844 -13.661092758178711 C 60.73689651489258 -4.744173049926758 65.92534637451172 -11.626641273498535 58.862728118896484 -7.060032844543457" stroke-width="2.0" fill="none" stroke="rgb(0, 0, 0)" stroke-opacity="1" stroke-linecap="round" stroke-linejoin="round"/>
    <path d="M 178.48199462890625 121.42416381835938 C 152.9066162109375 111.79572296142578 161.32501220703125 148.63233947753906 174.3331756591797 129.9736328125" stroke-width="2.0" fill="none" stroke="rgb(0, 0, 0)" stroke-opacity="1" stroke-linecap="round" stroke-linejoin="round"/>
    <path d="M 224.26687622070312 73.07396697998047 C 213.46385192871094 44.703731536865234 193.2992401123047 25.842790603637695 206.58795166015625 5.78936243057251" stroke-width="2.0" fill="none" stroke="rgb(0, 0, 0)" stroke-opacity="1" stroke-linecap="round" stroke-linejoin="round"/>
  </g>
</svg>
