<?xml version="1.0" ?>
<svg xmlns="http://www.w3.org/2000/svg" version="1.1" width="224" height="224">
  <defs/>
  <g>
    <path d="M 106.17240142822266 83.12556457519531 C 89.0165023803711 71.95094299316406 74.16093444824219 74.79295349121094 73.95006561279297 79.63641357421875 C 98.073486328125 80.37413787841797 83.17798614501953 60.76666259765625 107.33602142333984 74.77694702148438 C 95.48333740234375 76.81393432617188 81.61453247070312 55.66337585449219 85.62629699707031 61.101646423339844" stroke-width="2.0" fill="none" stroke="rgb(0, 0, 0)" stroke-opacity="1" stroke-linecap="round" stroke-linejoin="round"/>
    <path d="M 122.1321792602539 193.6553955078125 C 94.71083068847656 206.09266662597656 115.10972595214844 181.26101684570312 125.42803192138672 185.33787536621094" stroke-width="2.0" fill="none" stroke="rgb(0, 0, 0)" stroke-opacity="1" stroke-linecap="round" stroke-linejoin="round"/>
    <path d="M 165.85153198242188 27.064977645874023 C 162.95469665527344 51.100830078125 146.75201416015625 16.15732765197754 164.055419921875 34.0855598449707" stroke-width="2.0" fill="none" stroke="rgb(0, 0, 0)" stroke-opacity="1" stroke-linecap="round" stroke-linejoin="round"/>
    <path d="M 110.43609619140625 201.9014892578125 C 127.0296859741211 190.8553466796875 89.0964584350586 187.52920532226562 109.17739868164062 201.77674865722656 C 117.61347961425781 189.3701629638672 103.8770751953125 225.99635314941406 93.5302734375 205.72708129882812" stroke-width="2.0" fill="none" stroke="rgb(0, 0, 0)" stroke-opacity="1" stroke-linecap="round" stroke-linejoin="round"/>
    <path d="M 110.99014282226562 223.07728576660156 C 133.88674926757812 221.24252319335938 94.19102478027344 240.4781494140625 89.28878021240234 214.0767822265625 C 74.4670181274414 222.80702209472656 70.69298553466797 209.3324737548828 82.11161041259766 226.81695556640625 C 104.42913055419922 214.26144409179688 95.53772735595703 225.31431579589844 104.69804382324219 222.88558959960938" stroke-width="2.0" fill="none" stroke="rgb(0, 0, 0)" stroke-opacity="1" stroke-linecap="round" stroke-linejoin="round"/>
    <path d="M 82.99357604980469 136.36915588378906 C 77.7291030883789 121.45101165771484 72.95842742919922 143.39149475097656 48.870635986328125 155.91317749023438 C 53.928192138671875 145.87620544433594 73.47679138183594 131.06590270996094 74.39116668701172 149.68331909179688 C 54.908714294433594 165.37168884277344 40.720706939697266 179.25396728515625 65.41780853271484 153.3732452392578" stroke-width="2.0" fill="none" stroke="rgb(0, 0, 0)" stroke-opacity="1" stroke-linecap="round" stroke-linejoin="round"/>
    <path d="M 163.46609497070312 192.03326416015625 C 155.89442443847656 200.16981506347656 181.9136505126953 189.44602966308594 162.92767333984375 197.11541748046875 C 194.98699951171875 156.53477478027344 196.35302734375 166.5220489501953 173.4405975341797 185.10089111328125" stroke-width="2.0" fill="none" stroke="rgb(0, 0, 0)" stroke-opacity="1" stroke-linecap="round" stroke-linejoin="round"/>
    <path d="M 124.96320343017578 59.085601806640625 C 107.67542266845703 86.92389678955078 105.38581848144531 41.15074157714844 98.3259048461914 46.126556396484375" stroke-width="2.0" fill="none" stroke="rgb(0, 0, 0)" stroke-opacity="1" stroke-linecap="round" stroke-linejoin="round"/>
    <path d="M 151.87181091308594 28.591999053955078 C 137.49705505371094 17.717823028564453 141.86026000976562 6.889246463775635 170.65615844726562 -6.159945964813232" stroke-width="2.0" fill="none" stroke="rgb(0, 0, 0)" stroke-opacity="1" stroke-linecap="round" stroke-linejoin="round"/>
    <path d="M 79.03890228271484 101.82451629638672 C 100.41899108886719 94.45658111572266 76.60677337646484 85.51148223876953 61.282501220703125 105.26296997070312 C 70.65123748779297 113.26434326171875 28.919679641723633 129.24884033203125 53.992698669433594 113.72216033935547 C 69.85910034179688 106.7262954711914 27.7038516998291 113.46092224121094 55.808677673339844 128.88470458984375" stroke-width="2.0" fill="none" stroke="rgb(0, 0, 0)" stroke-opacity="1" stroke-linecap="round" stroke-linejoin="round"/>
    <path d="M 158.07821655273438 87.22969818115234 C 158.15481567382812 121.42926788330078 161.41925048828125 110.7393569946289 167.4252166748047 122.5980224609375" stroke-width="2.0" fill="none" stroke="rgb(0, 0, 0)" stroke-opacity="1" stroke-linecap="round" stroke-linejoin="round"/>
    <path d="M 207.5078887939453 143.6546173095703 C 239.4666290283203 121.74130249023438 205.02096557617188 139.65762329101562 202.9107666015625 111.895751953125" stroke-width="2.0" fill="none" stroke="rgb(0, 0, 0)" stroke-opacity="1" stroke-linecap="round" stroke-linejoin="round"/>
    <path d="M 101.35612487792969 80.4122543334961 C 97.7816162109375 70.32364654541016 118.11409759521484 72.31172943115234 110.2221908569336 82.67303466796875" stroke-width="2.0" fill="none" stroke="rgb(0, 0, 0)" stroke-opacity="1" stroke-linecap="round" stroke-linejoin="round"/>
    <path d="M 132.5408477783203 166.45249938964844 C 110.70108795166016 158.47377014160156 94.8082504272461 168.97305297851562 112.05341339111328 175.77760314941406 C 117.9251708984375 176.58724975585938 97.1932601928711 201.01649475097656 90.49016571044922 165.9681396484375 C 105.62339782714844 195.42510986328125 111.66423034667969 168.46258544921875 110.04859924316406 181.6079559326172" stroke-width="2.0" fill="none" stroke="rgb(0, 0, 0)" stroke-opacity="1" stroke-linecap="round" stroke-linejoin="round"/>
    <path d="M 124.36731719970703 169.11309814453125 C 117.57025146484375 155.24916076660156 110.74296569824219 179.50521850585938 135.60728454589844 165.63795471191406 C 118.3631591796875 169.6260528564453 128.87417602539062 153.93704223632812 143.15225219726562 163.38323974609375" stroke-width="2.0" fill="none" stroke="rgb(0, 0, 0)" stroke-opacity="1" stroke-linecap="round" stroke-linejoin="round"/>
    <path d="M 82.06040954589844 141.13137817382812 C 97.30781555175781 105.82465362548828 70.96363830566406 160.44886779785156 74.90201568603516 142.93771362304688" stroke-width="2.0" fill="none" stroke="rgb(0, 0, 0)" stroke-opacity="1" stroke-linecap="round" stroke-linejoin="round"/>
    <path d="M 63.0142936706543 71.07937622070312 C 55.95701217651367 42.16063690185547 63.565155029296875 40.60020065307617 83.21178436279297 53.021270751953125 C 81.26923370361328 40.22340774536133 44.86377716064453 40.49919891357422 63.91410827636719 67.77677917480469" stroke-width="2.0" fill="none" stroke="rgb(0, 0, 0)" stroke-opacity="1" stroke-linecap="round" stroke-linejoin="round"/>
    <path d="M 168.61293029785156 199.97305297851562 C 155.08876037597656 218.68255615234375 138.07554626464844 178.12466430664062 154.33087158203125 191.94125366210938 C 132.80087280273438 180.70738220214844 140.64234924316406 163.5777130126953 143.3663787841797 183.69717407226562 C 143.4672088623047 141.57920837402344 131.4051971435547 184.54702758789062 148.2579803466797 193.35220336914062" stroke-width="2.0" fill="none" stroke="rgb(0, 0, 0)" stroke-opacity="1" stroke-linecap="round" stroke-linejoin="round"/>
    <path d="M 90.44745635986328 -2.1803371906280518 C 95.07683563232422 11.037834167480469 77.85627746582031 -11.223052024841309 98.21409606933594 -2.9290318489074707" stroke-width="2.0" fill="none" stroke="rgb(0, 0, 0)" stroke-opacity="1" stroke-linecap="round" stroke-linejoin="round"/>
    <path d="M 73.52914428710938 52.04651641845703 C 90.73383331298828 88.59513092041016 87.54222106933594 63.685420989990234 79.5537109375 59.56174850463867 C 106.39029693603516 47.598270416259766 95.87244415283203 49.43472671508789 81.1849136352539 65.1275863647461" stroke-width="2.0" fill="none" stroke="rgb(0, 0, 0)" stroke-opacity="1" stroke-linecap="round" stroke-linejoin="round"/>
    <path d="M 154.17303466796875 77.63087463378906 C 165.86375427246094 112.00176239013672 159.02540588378906 90.49324798583984 156.79458618164062 82.71134948730469 C 129.47019958496094 64.58025360107422 159.65524291992188 117.69688415527344 137.05032348632812 120.65229034423828 C 147.4936981201172 72.87583923339844 134.3572540283203 74.86152648925781 144.01304626464844 95.38008117675781" stroke-width="2.0" fill="none" stroke="rgb(0, 0, 0)" stroke-opacity="1" stroke-linecap="round" stroke-linejoin="round"/>
    <path d="M 38.019832611083984 216.89088439941406 C 77.99494934082031 238.70970153808594 46.057044982910156 216.01087951660156 52.16269302368164 233.2564697265625 C 41.39259719848633 227.68063354492188 19.549938201904297 212.05447387695312 36.47071838378906 227.38479614257812 C 24.607624053955078 237.75411987304688 32.47214126586914 239.3153839111328 39.14457702636719 228.7207794189453" stroke-width="2.0" fill="none" stroke="rgb(0, 0, 0)" stroke-opacity="1" stroke-linecap="round" stroke-linejoin="round"/>
    <path d="M 217.09442138671875 51.54957580566406 C 230.5439453125 41.814701080322266 242.79696655273438 90.9679183959961 204.7169952392578 55.11635971069336 C 210.59193420410156 78.9301528930664 231.15061950683594 54.36588668823242 243.18116760253906 43.998878479003906" stroke-width="2.0" fill="none" stroke="rgb(0, 0, 0)" stroke-opacity="1" stroke-linecap="round" stroke-linejoin="round"/>
    <path d="M 45.3478889465332 178.1868438720703 C 11.968639373779297 188.54888916015625 29.500213623046875 185.92306518554688 47.67352294921875 181.6873779296875" stroke-width="2.0" fill="none" stroke="rgb(0, 0, 0)" stroke-opacity="1" stroke-linecap="round" stroke-linejoin="round"/>
    <path d="M 107.03787231445312 100.63980865478516 C 106.6858901977539 129.69140625 97.05511474609375 74.7666015625 108.77522277832031 83.67878723144531" stroke-width="2.0" fill="none" stroke="rgb(0, 0, 0)" stroke-opacity="1" stroke-linecap="round" stroke-linejoin="round"/>
    <path d="M 231.0101318359375 164.07574462890625 C 232.27813720703125 144.88284301757812 222.72506713867188 159.51327514648438 208.98797607421875 119.76830291748047" stroke-width="2.0" fill="none" stroke="rgb(0, 0, 0)" stroke-opacity="1" stroke-linecap="round" stroke-linejoin="round"/>
    <path d="M 116.04520416259766 -0.5632311701774597 C 94.07904815673828 17.009220123291016 84.4906997680664 -19.156230926513672 77.8139877319336 -27.226354598999023 C 92.31340789794922 -1.6076651811599731 81.116455078125 2.7616138458251953 86.47115325927734 -7.268949508666992" stroke-width="2.0" fill="none" stroke="rgb(0, 0, 0)" stroke-opacity="1" stroke-linecap="round" stroke-linejoin="round"/>
    <path d="M 12.903572082519531 201.656982421875 C 20.42613410949707 204.838623046875 22.785993576049805 190.08815002441406 6.164980411529541 195.0338897705078 C 0.5397371053695679 238.82711791992188 32.946746826171875 217.8552703857422 -0.2121858298778534 222.9945526123047" stroke-width="2.0" fill="none" stroke="rgb(0, 0, 0)" stroke-opacity="1" stroke-linecap="round" stroke-linejoin="round"/>
    <path d="M 195.4466094970703 97.72005462646484 C 167.7021942138672 85.03227996826172 172.5550994873047 99.1752700805664 180.21322631835938 80.91546630859375 C 184.22714233398438 107.55121612548828 222.4477081298828 84.3188705444336 191.6182098388672 81.87679290771484 C 191.3339385986328 60.633304595947266 181.17469787597656 92.51498413085938 198.76556396484375 83.67205047607422" stroke-width="2.0" fill="none" stroke="rgb(0, 0, 0)" stroke-opacity="1" stroke-linecap="round" stroke-linejoin="round"/>
    <path d="M 32.17995834350586 160.25900268554688 C 47.04924392700195 167.74398803710938 25.490619659423828 180.18370056152344 17.504688262939453 156.39512634277344" stroke-width="2.0" fill="none" stroke="rgb(0, 0, 0)" stroke-opacity="1" stroke-linecap="round" stroke-linejoin="round"/>
    <path d="M 65.31581115722656 18.65646743774414 C 72.94633483886719 15.61594295501709 71.58609008789062 78.63574981689453 65.78240203857422 -2.33070707321167 C 57.26161193847656 41.76723861694336 83.17950439453125 43.37445068359375 81.1834487915039 50.32849884033203 C 58.394386291503906 67.21717834472656 71.06751251220703 39.31868362426758 84.28173828125 59.50470733642578" stroke-width="2.0" fill="none" stroke="rgb(0, 0, 0)" stroke-opacity="1" stroke-linecap="round" stroke-linejoin="round"/>
    <path d="M 98.41168975830078 37.216094970703125 C 81.3446044921875 19.532127380371094 81.86661529541016 22.84695053100586 119.63086700439453 12.251296043395996 C 98.53704833984375 -0.305813729763031 118.06441497802734 18.426843643188477 112.6863021850586 16.557605743408203 C 95.9883041381836 31.63681411743164 102.56387329101562 23.424421310424805 119.58612060546875 7.271064758300781" stroke-width="2.0" fill="none" stroke="rgb(0, 0, 0)" stroke-opacity="1" stroke-linecap="round" stroke-linejoin="round"/>
    <path d="M 4.527174949645996 185.47207641601562 C 17.322917938232422 176.44058227539062 9.113128662109375 193.41184997558594 6.137619495391846 188.8310089111328" stroke-width="2.0" fill="none" stroke="rgb(0, 0, 0)" stroke-opacity="1" stroke-linecap="round" stroke-linejoin="round"/>
    <path d="M 157.97564697265625 42.297454833984375 C 166.3389892578125 32.435455322265625 161.31777954101562 35.926673889160156 119.48818969726562 28.878929138183594 C 155.13214111328125 38.849082946777344 140.7281494140625 21.50446319580078 161.632080078125 42.54571533203125" stroke-width="2.0" fill="none" stroke="rgb(0, 0, 0)" stroke-opacity="1" stroke-linecap="round" stroke-linejoin="round"/>
    <path d="M -8.731096267700195 70.87882232666016 C -5.180030822753906 79.00431823730469 -1.6752921342849731 76.24818420410156 -8.669404983520508 66.45429229736328 C -11.451143264770508 68.19730377197266 -18.43707275390625 70.17078399658203 -8.258922576904297 65.51172637939453 C -0.822827160358429 74.327392578125 -4.957919120788574 69.40011596679688 -11.351042747497559 61.80608367919922" stroke-width="2.0" fill="none" stroke="rgb(0, 0, 0)" stroke-opacity="1" stroke-linecap="round" stroke-linejoin="round"/>
    <path d="M 169.85818481445312 187.49998474121094 C 203.26422119140625 179.26513671875 194.32765197753906 167.7151641845703 175.97265625 180.54617309570312 C 205.02931213378906 182.2151336669922 195.0907440185547 189.75364685058594 166.39511108398438 190.8209228515625" stroke-width="2.0" fill="none" stroke="rgb(0, 0, 0)" stroke-opacity="1" stroke-linecap="round" stroke-linejoin="round"/>
    <path d="M 204.5906524658203 200.08128356933594 C 185.05703735351562 213.17953491210938 183.73216247558594 147.78306579589844 184.14393615722656 177.7752227783203 C 173.45091247558594 188.8096923828125 177.2269744873047 188.46688842773438 188.453125 190.16510009765625" stroke-width="2.0" fill="none" stroke="rgb(0, 0, 0)" stroke-opacity="1" stroke-linecap="round" stroke-linejoin="round"/>
    <path d="M 122.18029022216797 79.0711441040039 C 86.60526275634766 60.4391975402832 96.42884826660156 92.8282470703125 105.84947204589844 82.10320281982422 C 119.83329010009766 85.84117126464844 125.58513641357422 67.58296966552734 142.55935668945312 43.43670654296875 C 111.38671875 72.14382934570312 128.08489990234375 86.23505401611328 91.17020416259766 79.40618133544922" stroke-width="2.0" fill="none" stroke="rgb(0, 0, 0)" stroke-opacity="1" stroke-linecap="round" stroke-linejoin="round"/>
    <path d="M 162.8229217529297 35.68863296508789 C 169.4256591796875 33.06047058105469 147.3468475341797 53.6904411315918 147.90965270996094 51.80426025390625" stroke-width="2.0" fill="none" stroke="rgb(0, 0, 0)" stroke-opacity="1" stroke-linecap="round" stroke-linejoin="round"/>
    <path d="M 23.515045166015625 22.6566104888916 C 50.45344924926758 7.92451810836792 53.21249008178711 33.701602935791016 34.200218200683594 19.910083770751953" stroke-width="2.0" fill="none" stroke="rgb(0, 0, 0)" stroke-opacity="1" stroke-linecap="round" stroke-linejoin="round"/>
    <path d="M 28.344329833984375 66.59439086914062 C 13.469728469848633 62.13835525512695 14.198441505432129 75.3285140991211 26.750059127807617 70.11392211914062" stroke-width="2.0" fill="none" stroke="rgb(0, 0, 0)" stroke-opacity="1" stroke-linecap="round" stroke-linejoin="round"/>
    <path d="M 59.87166213989258 83.47554016113281 C 82.02819061279297 66.52265930175781 49.07590866088867 69.49314880371094 55.46598434448242 67.00811004638672 C 58.63819122314453 85.24169921875 69.6082534790039 99.43559265136719 77.65276336669922 88.21503448486328" stroke-width="2.0" fill="none" stroke="rgb(0, 0, 0)" stroke-opacity="1" stroke-linecap="round" stroke-linejoin="round"/>
    <path d="M 228.92520141601562 40.95503234863281 C 210.2023162841797 45.05503463745117 226.86227416992188 52.82212829589844 249.6004638671875 40.771697998046875 C 227.83981323242188 46.9783935546875 228.6304931640625 37.96492385864258 238.84597778320312 44.99153137207031" stroke-width="2.0" fill="none" stroke="rgb(0, 0, 0)" stroke-opacity="1" stroke-linecap="round" stroke-linejoin="round"/>
    <path d="M 63.39202880859375 67.41606140136719 C 48.823509216308594 71.88117980957031 103.1175308227539 66.0060806274414 26.908061981201172 88.32819366455078 C 30.683494567871094 51.628631591796875 20.44317054748535 102.58452606201172 51.77393341064453 96.1697006225586 C 61.098411560058594 97.37244415283203 44.87567138671875 84.6698989868164 48.211578369140625 93.44609832763672" stroke-width="2.0" fill="none" stroke="rgb(0, 0, 0)" stroke-opacity="1" stroke-linecap="round" stroke-linejoin="round"/>
    <path d="M 15.20796012878418 136.73675537109375 C 25.56296730041504 121.50497436523438 0.336172491312027 140.02464294433594 -0.6761090755462646 128.84405517578125 C 35.57951354980469 147.72630310058594 -1.1330742835998535 128.45501708984375 4.54256534576416 146.2567138671875 C 10.915237426757812 157.00363159179688 21.308170318603516 140.15280151367188 8.836036682128906 150.12583923339844" stroke-width="2.0" fill="none" stroke="rgb(0, 0, 0)" stroke-opacity="1" stroke-linecap="round" stroke-linejoin="round"/>
    <path d="M 64.87750244140625 87.52945709228516 C 85.60435485839844 99.18846130371094 76.30992889404297 110.94196319580078 77.43172454833984 103.92780303955078 C 76.66263580322266 120.8471908569336 115.82794189453125 89.72278594970703 79.31597137451172 107.8907470703125 C 97.31645965576172 121.58519744873047 87.81080627441406 130.3812255859375 99.76485443115234 116.87156677246094" stroke-width="2.0" fill="none" stroke="rgb(0, 0, 0)" stroke-opacity="1" stroke-linecap="round" stroke-linejoin="round"/>
    <path d="M 78.96942138671875 1.6620306968688965 C 52.407249450683594 -3.647164821624756 45.3720588684082 16.58130645751953 48.684932708740234 13.924076080322266" stroke-width="2.0" fill="none" stroke="rgb(0, 0, 0)" stroke-opacity="1" stroke-linecap="round" stroke-linejoin="round"/>
    <path d="M 159.40408325195312 109.45982360839844 C 168.80079650878906 111.44068145751953 168.0598602294922 109.50383758544922 159.60955810546875 84.40409851074219 C 179.37435913085938 70.79843139648438 165.0525665283203 116.75515747070312 204.4400634765625 99.377197265625" stroke-width="2.0" fill="none" stroke="rgb(0, 0, 0)" stroke-opacity="1" stroke-linecap="round" stroke-linejoin="round"/>
    <path d="M 78.28657531738281 161.26678466796875 C 88.26309967041016 172.75991821289062 75.42523956298828 135.2030029296875 72.24365234375 148.1376495361328" stroke-width="2.0" fill="none" stroke="rgb(0, 0, 0)" stroke-opacity="1" stroke-linecap="round" stroke-linejoin="round"/>
    <path d="M 114.65847778320312 126.02700805664062 C 113.7331314086914 179.80203247070312 129.26483154296875 149.87232971191406 152.52479553222656 146.57809448242188 C 138.34463500976562 140.63905334472656 158.4199676513672 155.7216796875 145.7291259765625 150.97433471679688" stroke-width="2.0" fill="none" stroke="rgb(0, 0, 0)" stroke-opacity="1" stroke-linecap="round" stroke-linejoin="round"/>
    <path d="M 125.93990325927734 96.80677032470703 C 152.2709503173828 70.12246704101562 177.0572967529297 89.7103271484375 164.65814208984375 73.22007751464844 C 141.99270629882812 63.63025665283203 116.00658416748047 71.48822784423828 128.58331298828125 96.89330291748047" stroke-width="2.0" fill="none" stroke="rgb(0, 0, 0)" stroke-opacity="1" stroke-linecap="round" stroke-linejoin="round"/>
    <path d="M 42.54733657836914 217.38572692871094 C 9.625754356384277 231.04188537597656 1.4133597612380981 236.8087615966797 5.780015468597412 182.15469360351562 C 25.308908462524414 192.823486328125 8.368915557861328 213.17857360839844 11.060075759887695 179.474365234375 C 9.204566955566406 220.67063903808594 29.122974395751953 221.88465881347656 32.30537796020508 204.01385498046875" stroke-width="2.0" fill="none" stroke="rgb(0, 0, 0)" stroke-opacity="1" stroke-linecap="round" stroke-linejoin="round"/>
    <path d="M 184.05307006835938 41.22407531738281 C 161.15672302246094 -1.8928444385528564 173.86622619628906 13.492548942565918 188.08128356933594 -1.0077649354934692" stroke-width="2.0" fill="none" stroke="rgb(0, 0, 0)" stroke-opacity="1" stroke-linecap="round" stroke-linejoin="round"/>
    <path d="M 223.212158203125 72.87312316894531 C 212.16073608398438 75.69229125976562 217.6070098876953 19.40886878967285 211.35775756835938 33.07868957519531 C 167.21826171875 43.650917053222656 204.7927703857422 7.37186861038208 224.84857177734375 32.48170852661133 C 234.54812622070312 8.909341812133789 229.1485137939453 17.097726821899414 227.05657958984375 35.33967208862305" stroke-width="2.0" fill="none" stroke="rgb(0, 0, 0)" stroke-opacity="1" stroke-linecap="round" stroke-linejoin="round"/>
    <path d="M 100.92672729492188 229.67758178710938 C 56.82400894165039 232.0904541015625 62.53703689575195 208.07492065429688 51.85205841064453 204.5858154296875 C 49.5188102722168 226.38601684570312 84.38529205322266 209.91015625 69.0368423461914 219.89573669433594 C 99.37809753417969 219.14759826660156 90.44815063476562 207.23324584960938 100.89911651611328 234.04945373535156" stroke-width="2.0" fill="none" stroke="rgb(0, 0, 0)" stroke-opacity="1" stroke-linecap="round" stroke-linejoin="round"/>
    <path d="M 224.08363342285156 36.766719818115234 C 216.46148681640625 46.905181884765625 218.3990478515625 31.738466262817383 222.8568572998047 1.824291706085205 C 234.90977478027344 4.033203601837158 194.88214111328125 33.51862716674805 190.75315856933594 -3.277616262435913" stroke-width="2.0" fill="none" stroke="rgb(0, 0, 0)" stroke-opacity="1" stroke-linecap="round" stroke-linejoin="round"/>
    <path d="M 210.5360107421875 223.77415466308594 C 249.40447998046875 216.39376831054688 250.23904418945312 194.55929565429688 204.06845092773438 191.62525939941406 C 211.11842346191406 178.9110870361328 246.2235565185547 184.8896026611328 261.69134521484375 189.01849365234375 C 231.61338806152344 167.9159698486328 234.47105407714844 165.4659423828125 231.62127685546875 172.2453155517578" stroke-width="2.0" fill="none" stroke="rgb(0, 0, 0)" stroke-opacity="1" stroke-linecap="round" stroke-linejoin="round"/>
    <path d="M 86.70053100585938 201.60360717773438 C 96.11517333984375 208.511474609375 109.46739196777344 220.92689514160156 94.81803131103516 200.3662109375" stroke-width="2.0" fill="none" stroke="rgb(0, 0, 0)" stroke-opacity="1" stroke-linecap="round" stroke-linejoin="round"/>
    <path d="M 30.003795623779297 124.1097640991211 C 43.309669494628906 113.48431396484375 21.212465286254883 147.5760955810547 37.74565887451172 150.93997192382812" stroke-width="2.0" fill="none" stroke="rgb(0, 0, 0)" stroke-opacity="1" stroke-linecap="round" stroke-linejoin="round"/>
    <path d="M 190.75808715820312 54.75352478027344 C 210.86610412597656 48.9720458984375 202.0147247314453 27.37899398803711 191.14398193359375 59.6680908203125" stroke-width="2.0" fill="none" stroke="rgb(0, 0, 0)" stroke-opacity="1" stroke-linecap="round" stroke-linejoin="round"/>
    <path d="M 220.08595275878906 218.93751525878906 C 215.98226928710938 199.59320068359375 215.2232666015625 228.25755310058594 195.66390991210938 212.4531707763672" stroke-width="2.0" fill="none" stroke="rgb(0, 0, 0)" stroke-opacity="1" stroke-linecap="round" stroke-linejoin="round"/>
    <path d="M 66.32890319824219 73.86519622802734 C 43.86893081665039 65.93647003173828 80.65580749511719 99.36203002929688 66.3287124633789 88.94449615478516" stroke-width="2.0" fill="none" stroke="rgb(0, 0, 0)" stroke-opacity="1" stroke-linecap="round" stroke-linejoin="round"/>
    <path d="M 227.8957977294922 187.18026733398438 C 209.82876586914062 190.4494171142578 224.08590698242188 217.60244750976562 228.13876342773438 200.8889617919922" stroke-width="2.0" fill="none" stroke="rgb(0, 0, 0)" stroke-opacity="1" stroke-linecap="round" stroke-linejoin="round"/>
    <path d="M 18.009124755859375 68.6185073852539 C -6.017425537109375 83.95772552490234 11.343047142028809 98.10060119628906 28.800203323364258 80.93385314941406 C 6.460612773895264 88.3279800415039 16.99034881591797 72.60657501220703 25.292720794677734 88.30616760253906 C 26.876930236816406 77.50884246826172 40.867881774902344 101.86195373535156 56.955169677734375 91.77510833740234" stroke-width="2.0" fill="none" stroke="rgb(0, 0, 0)" stroke-opacity="1" stroke-linecap="round" stroke-linejoin="round"/>
    <path d="M 44.232425689697266 181.5902557373047 C 21.423538208007812 200.827392578125 9.827195167541504 172.7681121826172 37.451210021972656 184.09344482421875 C 50.0136604309082 170.0823516845703 28.407609939575195 162.5485382080078 59.85777282714844 161.371826171875" stroke-width="2.0" fill="none" stroke="rgb(0, 0, 0)" stroke-opacity="1" stroke-linecap="round" stroke-linejoin="round"/>
    <path d="M 138.33816528320312 127.62162017822266 C 121.93577575683594 109.51579284667969 143.91207885742188 135.2584991455078 157.72857666015625 119.54300689697266 C 144.91993713378906 135.43194580078125 126.39048767089844 132.71881103515625 134.7104034423828 116.84993743896484" stroke-width="2.0" fill="none" stroke="rgb(0, 0, 0)" stroke-opacity="1" stroke-linecap="round" stroke-linejoin="round"/>
    <path d="M 19.492633819580078 100.95829772949219 C 39.29716110229492 88.78428649902344 -9.910887718200684 86.8459243774414 17.454259872436523 76.50605773925781 C 42.59627914428711 83.57268524169922 58.89879608154297 108.63232421875 21.568592071533203 76.34143829345703 C 24.08603858947754 107.1871337890625 7.097179889678955 109.07791900634766 32.20436477661133 118.10538482666016" stroke-width="2.0" fill="none" stroke="rgb(0, 0, 0)" stroke-opacity="1" stroke-linecap="round" stroke-linejoin="round"/>
    <path d="M 162.3157196044922 110.33296203613281 C 158.15504455566406 120.62398529052734 153.3498077392578 83.49463653564453 147.54090881347656 81.11019897460938 C 165.489990234375 73.60240936279297 174.1892852783203 100.83143615722656 178.6678009033203 77.18524932861328 C 160.47193908691406 78.75657653808594 179.85255432128906 92.42100524902344 171.74163818359375 68.94259643554688" stroke-width="2.0" fill="none" stroke="rgb(0, 0, 0)" stroke-opacity="1" stroke-linecap="round" stroke-linejoin="round"/>
    <path d="M 94.53646087646484 99.1541519165039 C 98.9046630859375 71.03750610351562 84.31971740722656 49.88927459716797 108.39830780029297 69.69486999511719 C 101.27372741699219 49.98872756958008 76.92951202392578 72.00060272216797 87.56243133544922 73.00381469726562 C 89.62422180175781 60.66360855102539 104.72681427001953 69.92473602294922 106.68087768554688 84.12860107421875" stroke-width="2.0" fill="none" stroke="rgb(0, 0, 0)" stroke-opacity="1" stroke-linecap="round" stroke-linejoin="round"/>
    <path d="M 130.80458068847656 28.9414005279541 C 113.36470031738281 43.39168167114258 105.43519592285156 16.008068084716797 131.67605590820312 0.46704134345054626 C 113.72333526611328 -1.8272149562835693 105.0020980834961 17.3133602142334 107.56124114990234 9.992119789123535" stroke-width="2.0" fill="none" stroke="rgb(0, 0, 0)" stroke-opacity="1" stroke-linecap="round" stroke-linejoin="round"/>
    <path d="M 84.48571014404297 80.79936981201172 C 65.51042175292969 83.47593688964844 82.27582550048828 79.75756072998047 87.82926177978516 78.58927154541016 C 80.67768096923828 92.65592193603516 58.084434509277344 67.46562194824219 69.13327026367188 83.39606475830078" stroke-width="2.0" fill="none" stroke="rgb(0, 0, 0)" stroke-opacity="1" stroke-linecap="round" stroke-linejoin="round"/>
    <path d="M 161.45364379882812 27.815807342529297 C 203.05528259277344 24.708866119384766 158.91943359375 12.445938110351562 175.32579040527344 12.953310012817383" stroke-width="2.0" fill="none" stroke="rgb(0, 0, 0)" stroke-opacity="1" stroke-linecap="round" stroke-linejoin="round"/>
    <path d="M 92.12199401855469 158.77853393554688 C 95.23492431640625 187.01950073242188 88.90673065185547 162.9966278076172 89.2084732055664 136.60316467285156 C 94.7559814453125 149.63088989257812 87.41761016845703 153.5260009765625 101.99903869628906 183.34884643554688 C 126.42771911621094 178.35137939453125 90.3624267578125 157.58616638183594 124.30368041992188 177.7471160888672" stroke-width="2.0" fill="none" stroke="rgb(0, 0, 0)" stroke-opacity="1" stroke-linecap="round" stroke-linejoin="round"/>
    <path d="M 155.3129119873047 137.11106872558594 C 169.55630493164062 135.04055786132812 147.29962158203125 126.07691192626953 173.64439392089844 128.1641082763672 C 184.1460418701172 147.29676818847656 159.2470245361328 136.2185516357422 174.4360809326172 132.7914276123047" stroke-width="2.0" fill="none" stroke="rgb(0, 0, 0)" stroke-opacity="1" stroke-linecap="round" stroke-linejoin="round"/>
    <path d="M 149.43295288085938 194.9061737060547 C 126.65935516357422 168.01068115234375 162.45018005371094 191.48951721191406 158.61105346679688 173.49134826660156 C 140.0804443359375 157.74935913085938 137.29202270507812 158.54864501953125 145.55587768554688 188.054443359375 C 143.79750061035156 180.6063232421875 161.29220581054688 178.57212829589844 158.11097717285156 175.56607055664062" stroke-width="2.0" fill="none" stroke="rgb(0, 0, 0)" stroke-opacity="1" stroke-linecap="round" stroke-linejoin="round"/>
    <path d="M 40.80725860595703 32.12480926513672 C 56.256317138671875 26.891319274902344 46.90799331665039 48.33296203613281 36.72795867919922 32.21238708496094 C 50.12847900390625 22.17711639404297 43.79001998901367 27.114675521850586 36.94114303588867 19.655567169189453" stroke-width="2.0" fill="none" stroke="rgb(0, 0, 0)" stroke-opacity="1" stroke-linecap="round" stroke-linejoin="round"/>
    <path d="M 142.65237426757812 171.66297912597656 C 152.2522735595703 188.44168090820312 151.62442016601562 202.9298858642578 160.54757690429688 199.91114807128906" stroke-width="2.0" fill="none" stroke="rgb(0, 0, 0)" stroke-opacity="1" stroke-linecap="round" stroke-linejoin="round"/>
    <path d="M 32.432647705078125 54.443363189697266 C 27.09038734436035 51.54339599609375 14.1220121383667 50.70929718017578 56.239173889160156 42.87491226196289 C 44.70319747924805 58.681907653808594 30.056148529052734 40.06523513793945 35.562984466552734 37.480472564697266 C 40.34876251220703 25.44094467163086 27.80842399597168 56.28770065307617 38.19605255126953 38.39307403564453" stroke-width="2.0" fill="none" stroke="rgb(0, 0, 0)" stroke-opacity="1" stroke-linecap="round" stroke-linejoin="round"/>
    <path d="M 163.44068908691406 74.21538543701172 C 187.49826049804688 69.50603485107422 133.10055541992188 76.6982650756836 131.004638671875 66.49404907226562 C 139.26475524902344 84.27704620361328 122.97955322265625 78.52761840820312 122.27447509765625 91.83354187011719 C 141.70965576171875 67.73929595947266 172.0492401123047 65.63446807861328 161.40260314941406 88.71134185791016" stroke-width="2.0" fill="none" stroke="rgb(0, 0, 0)" stroke-opacity="1" stroke-linecap="round" stroke-linejoin="round"/>
    <path d="M 134.32501220703125 47.8569450378418 C 140.78099060058594 57.42857360839844 140.75389099121094 45.34851837158203 159.70509338378906 30.234163284301758" stroke-width="2.0" fill="none" stroke="rgb(0, 0, 0)" stroke-opacity="1" stroke-linecap="round" stroke-linejoin="round"/>
    <path d="M 99.05721282958984 205.98321533203125 C 78.4263687133789 203.6951141357422 107.7701644897461 191.39134216308594 81.21187591552734 221.5438995361328 C 95.75042724609375 219.92050170898438 91.92974853515625 206.03335571289062 89.90587615966797 214.7375946044922 C 99.61890411376953 241.66909790039062 66.0617904663086 228.9576416015625 67.464111328125 226.46017456054688" stroke-width="2.0" fill="none" stroke="rgb(0, 0, 0)" stroke-opacity="1" stroke-linecap="round" stroke-linejoin="round"/>
    <path d="M 135.00552368164062 208.48912048339844 C 140.5691680908203 193.67013549804688 144.0626220703125 216.96533203125 128.64149475097656 214.879638671875 C 121.82926940917969 215.3075714111328 119.1952133178711 182.63323974609375 125.31721496582031 175.55320739746094" stroke-width="2.0" fill="none" stroke="rgb(0, 0, 0)" stroke-opacity="1" stroke-linecap="round" stroke-linejoin="round"/>
    <path d="M 173.5286865234375 187.63710021972656 C 183.41226196289062 171.85508728027344 187.27859497070312 155.01275634765625 191.9023895263672 151.71376037597656 C 192.58949279785156 193.90774536132812 190.3616943359375 212.58349609375 230.04296875 194.58743286132812 C 210.05337524414062 212.36524963378906 222.66392517089844 220.8448028564453 237.2474822998047 213.52748107910156" stroke-width="2.0" fill="none" stroke="rgb(0, 0, 0)" stroke-opacity="1" stroke-linecap="round" stroke-linejoin="round"/>
    <path d="M 5.271413326263428 171.04443359375 C 20.332780838012695 171.4823455810547 0.6782843470573425 159.99871826171875 4.333162784576416 170.2982177734375 C 6.733515739440918 183.9249725341797 11.840192794799805 182.4882354736328 11.551255226135254 154.6395721435547 C 29.453611373901367 152.65965270996094 6.5267252922058105 144.22122192382812 9.806879043579102 168.94012451171875" stroke-width="2.0" fill="none" stroke="rgb(0, 0, 0)" stroke-opacity="1" stroke-linecap="round" stroke-linejoin="round"/>
    <path d="M 188.61363220214844 154.3534698486328 C 182.2736358642578 147.79795837402344 188.9229736328125 171.00758361816406 152.40179443359375 162.1326141357422 C 213.5090789794922 157.17306518554688 217.22335815429688 162.97122192382812 201.98045349121094 164.8252716064453" stroke-width="2.0" fill="none" stroke="rgb(0, 0, 0)" stroke-opacity="1" stroke-linecap="round" stroke-linejoin="round"/>
    <path d="M 59.05025100708008 144.44615173339844 C 27.552501678466797 163.83822631835938 45.199684143066406 136.56875610351562 51.007652282714844 146.8329315185547 C 76.85640716552734 139.03219604492188 66.74068450927734 157.14675903320312 53.9454460144043 171.6980438232422 C 66.63937377929688 152.39584350585938 42.93613052368164 173.09130859375 65.7540512084961 176.58392333984375" stroke-width="2.0" fill="none" stroke="rgb(0, 0, 0)" stroke-opacity="1" stroke-linecap="round" stroke-linejoin="round"/>
    <path d="M 106.18570709228516 122.83892059326172 C 103.46206665039062 127.53690338134766 104.17340850830078 128.1775665283203 78.91104125976562 101.08274841308594 C 97.53118896484375 123.81529998779297 90.5130615234375 133.63021850585938 102.7776107788086 120.21141052246094" stroke-width="2.0" fill="none" stroke="rgb(0, 0, 0)" stroke-opacity="1" stroke-linecap="round" stroke-linejoin="round"/>
    <path d="M 10.654045104980469 175.66392517089844 C 10.94101619720459 178.01153564453125 0.2553911805152893 177.9956817626953 7.198623180389404 183.77113342285156" stroke-width="2.0" fill="none" stroke="rgb(0, 0, 0)" stroke-opacity="1" stroke-linecap="round" stroke-linejoin="round"/>
    <path d="M 184.7866668701172 145.78921508789062 C 177.03163146972656 144.4722442626953 176.9156494140625 158.2677764892578 185.17474365234375 148.26925659179688 C 215.380859375 171.7589111328125 187.45675659179688 147.95263671875 175.80044555664062 185.9706268310547" stroke-width="2.0" fill="none" stroke="rgb(0, 0, 0)" stroke-opacity="1" stroke-linecap="round" stroke-linejoin="round"/>
    <path d="M 22.62799835205078 118.21717834472656 C -8.634093284606934 112.1286392211914 14.943597793579102 138.10171508789062 10.026113510131836 123.41446685791016 C 15.437904357910156 147.83139038085938 26.00587272644043 132.02532958984375 7.579650402069092 123.76971435546875" stroke-width="2.0" fill="none" stroke="rgb(0, 0, 0)" stroke-opacity="1" stroke-linecap="round" stroke-linejoin="round"/>
    <path d="M 168.46151733398438 129.85008239746094 C 151.42857360839844 118.19458770751953 163.94020080566406 140.7698516845703 125.62724304199219 169.3980255126953" stroke-width="2.0" fill="none" stroke="rgb(0, 0, 0)" stroke-opacity="1" stroke-linecap="round" stroke-linejoin="round"/>
    <path d="M 143.9539794921875 176.81594848632812 C 146.72366333007812 171.10848999023438 159.45030212402344 212.49771118164062 169.50729370117188 197.40977478027344 C 183.25811767578125 169.10263061523438 189.7283172607422 177.47698974609375 185.0634002685547 158.5840301513672" stroke-width="2.0" fill="none" stroke="rgb(0, 0, 0)" stroke-opacity="1" stroke-linecap="round" stroke-linejoin="round"/>
    <path d="M 198.3269500732422 223.19284057617188 C 206.6733856201172 220.28053283691406 214.9455108642578 253.7237548828125 185.19921875 233.01242065429688 C 173.51051330566406 218.1360321044922 161.3780059814453 221.6762237548828 164.13755798339844 231.5011444091797 C 207.15951538085938 208.8225860595703 190.18162536621094 239.08120727539062 177.45382690429688 209.6637420654297" stroke-width="2.0" fill="none" stroke="rgb(0, 0, 0)" stroke-opacity="1" stroke-linecap="round" stroke-linejoin="round"/>
    <path d="M 133.7547607421875 92.67656707763672 C 118.90021514892578 110.70512390136719 111.18650817871094 91.0097427368164 115.36561584472656 77.15377807617188 C 136.18637084960938 116.47960662841797 115.64920043945312 95.27580261230469 113.58064270019531 79.42169952392578" stroke-width="2.0" fill="none" stroke="rgb(0, 0, 0)" stroke-opacity="1" stroke-linecap="round" stroke-linejoin="round"/>
    <path d="M 230.53518676757812 38.893531799316406 C 220.46307373046875 59.44325637817383 249.2061309814453 3.611225128173828 202.5399932861328 15.37937068939209" stroke-width="2.0" fill="none" stroke="rgb(0, 0, 0)" stroke-opacity="1" stroke-linecap="round" stroke-linejoin="round"/>
    <path d="M 90.22567749023438 27.09160041809082 C 124.38744354248047 20.197349548339844 76.77732849121094 7.302844524383545 95.65471649169922 48.32290267944336 C 100.74524688720703 24.44059944152832 77.76947021484375 31.082609176635742 106.71981048583984 11.642942428588867 C 116.27530670166016 31.29575538635254 94.66303253173828 22.869367599487305 84.37728118896484 -3.968454122543335" stroke-width="2.0" fill="none" stroke="rgb(0, 0, 0)" stroke-opacity="1" stroke-linecap="round" stroke-linejoin="round"/>
    <path d="M 31.63224983215332 -4.24269962310791 C 18.91920280456543 9.803184509277344 -3.3372671604156494 -3.6132798194885254 15.244840621948242 -14.838428497314453" stroke-width="2.0" fill="none" stroke="rgb(0, 0, 0)" stroke-opacity="1" stroke-linecap="round" stroke-linejoin="round"/>
    <path d="M 108.03295135498047 100.37409973144531 C 104.53924560546875 64.60752868652344 101.12275695800781 118.6729507446289 114.99927520751953 112.94284057617188" stroke-width="2.0" fill="none" stroke="rgb(0, 0, 0)" stroke-opacity="1" stroke-linecap="round" stroke-linejoin="round"/>
    <path d="M 209.71978759765625 199.88221740722656 C 187.18492126464844 193.8248291015625 197.88607788085938 160.531494140625 187.93557739257812 158.92970275878906 C 207.58514404296875 163.51113891601562 216.03163146972656 160.54324340820312 220.5849609375 151.9395751953125 C 232.05245971679688 151.13710021972656 233.8158721923828 161.39633178710938 228.5122833251953 167.59136962890625" stroke-width="2.0" fill="none" stroke="rgb(0, 0, 0)" stroke-opacity="1" stroke-linecap="round" stroke-linejoin="round"/>
    <path d="M 78.36041259765625 120.80931091308594 C 52.20745849609375 138.67767333984375 69.20834350585938 110.74825286865234 102.00643920898438 122.47227478027344 C 98.70372772216797 139.91201782226562 94.87902069091797 127.89867401123047 79.68480682373047 128.85464477539062" stroke-width="2.0" fill="none" stroke="rgb(0, 0, 0)" stroke-opacity="1" stroke-linecap="round" stroke-linejoin="round"/>
    <path d="M 212.60569763183594 147.69638061523438 C 216.5912322998047 153.11647033691406 187.47335815429688 143.59408569335938 224.4564666748047 142.76832580566406 C 230.17584228515625 158.98875427246094 244.19949340820312 163.39599609375 259.8172607421875 159.03749084472656 C 246.23399353027344 162.7572784423828 251.025390625 162.08395385742188 248.97691345214844 160.12745666503906" stroke-width="2.0" fill="none" stroke="rgb(0, 0, 0)" stroke-opacity="1" stroke-linecap="round" stroke-linejoin="round"/>
    <path d="M 198.30638122558594 215.0322265625 C 174.8970489501953 163.51397705078125 169.22630310058594 176.3430633544922 180.26177978515625 219.27745056152344 C 127.99705505371094 199.5541534423828 150.8606414794922 224.94863891601562 175.8635711669922 210.55026245117188" stroke-width="2.0" fill="none" stroke="rgb(0, 0, 0)" stroke-opacity="1" stroke-linecap="round" stroke-linejoin="round"/>
    <path d="M 174.53712463378906 126.64958190917969 C 176.3845977783203 129.27847290039062 167.3102264404297 105.93994903564453 154.99171447753906 151.46914672851562" stroke-width="2.0" fill="none" stroke="rgb(0, 0, 0)" stroke-opacity="1" stroke-linecap="round" stroke-linejoin="round"/>
    <path d="M 234.54563903808594 25.36777687072754 C 196.12423706054688 23.02823257446289 187.11183166503906 8.604815483093262 189.5116729736328 -8.530876159667969 C 193.53628540039062 -3.0813517570495605 189.72198486328125 9.314887046813965 224.80970764160156 20.771465301513672" stroke-width="2.0" fill="none" stroke="rgb(0, 0, 0)" stroke-opacity="1" stroke-linecap="round" stroke-linejoin="round"/>
    <path d="M 81.81327056884766 88.35566711425781 C 97.01752471923828 100.53358459472656 59.951019287109375 83.83934020996094 62.51514434814453 60.91168212890625 C 64.6264877319336 75.12214660644531 78.69606018066406 99.15629577636719 70.96514129638672 86.24736022949219" stroke-width="2.0" fill="none" stroke="rgb(0, 0, 0)" stroke-opacity="1" stroke-linecap="round" stroke-linejoin="round"/>
    <path d="M 157.81796264648438 84.26671600341797 C 157.62669372558594 94.88274383544922 175.08859252929688 72.06106567382812 177.23585510253906 77.75857543945312 C 165.09121704101562 81.08575439453125 166.8626708984375 59.482521057128906 177.48291015625 80.3622817993164" stroke-width="2.0" fill="none" stroke="rgb(0, 0, 0)" stroke-opacity="1" stroke-linecap="round" stroke-linejoin="round"/>
    <path d="M 147.9227294921875 213.31808471679688 C 129.128662109375 198.0789337158203 145.4906463623047 227.69180297851562 172.59652709960938 213.92498779296875" stroke-width="2.0" fill="none" stroke="rgb(0, 0, 0)" stroke-opacity="1" stroke-linecap="round" stroke-linejoin="round"/>
    <path d="M 21.867883682250977 68.11248779296875 C 34.330204010009766 44.457210540771484 31.22962760925293 46.19656753540039 24.940217971801758 59.183021545410156 C 1.764312744140625 69.45674133300781 4.863112926483154 58.131107330322266 25.21932601928711 61.357967376708984 C 39.658851623535156 65.84471130371094 25.356042861938477 47.90010070800781 22.682632446289062 65.03150177001953" stroke-width="2.0" fill="none" stroke="rgb(0, 0, 0)" stroke-opacity="1" stroke-linecap="round" stroke-linejoin="round"/>
    <path d="M 181.34979248046875 -5.8702473640441895 C 184.6970977783203 -0.13086803257465363 182.05799865722656 -7.774168968200684 191.43008422851562 -3.756821632385254 C 157.1053466796875 0.5578679442405701 129.23135375976562 -4.969377040863037 155.91079711914062 32.9375114440918 C 98.71627044677734 40.26560592651367 116.87117004394531 -10.930458068847656 183.1123046875 1.3463252782821655" stroke-width="2.0" fill="none" stroke="rgb(0, 0, 0)" stroke-opacity="1" stroke-linecap="round" stroke-linejoin="round"/>
    <path d="M 113.93902587890625 189.9713134765625 C 127.0521469116211 204.11123657226562 129.48046875 185.2815704345703 117.36801147460938 189.3668975830078 C 131.27099609375 155.701416015625 120.83988189697266 206.37586975097656 129.54307556152344 211.8221893310547" stroke-width="2.0" fill="none" stroke="rgb(0, 0, 0)" stroke-opacity="1" stroke-linecap="round" stroke-linejoin="round"/>
    <path d="M 198.19842529296875 46.495033264160156 C 197.97354125976562 69.19254302978516 175.5561981201172 74.76329803466797 180.2127685546875 75.25141143798828 C 165.1909942626953 61.55707550048828 181.0330352783203 67.14186096191406 182.947265625 74.84479522705078" stroke-width="2.0" fill="none" stroke="rgb(0, 0, 0)" stroke-opacity="1" stroke-linecap="round" stroke-linejoin="round"/>
    <path d="M 199.71568298339844 162.06842041015625 C 233.2617645263672 156.63278198242188 211.19461059570312 144.47373962402344 221.07704162597656 181.28659057617188 C 219.22532653808594 165.7840576171875 207.288330078125 184.80648803710938 227.07733154296875 172.9044189453125" stroke-width="2.0" fill="none" stroke="rgb(0, 0, 0)" stroke-opacity="1" stroke-linecap="round" stroke-linejoin="round"/>
    <path d="M 154.2367401123047 39.48488235473633 C 136.58615112304688 39.02555465698242 155.2799072265625 39.65149688720703 167.61917114257812 62.19499969482422 C 169.19342041015625 70.08147430419922 139.78530883789062 67.70509338378906 118.01313018798828 87.23150634765625 C 142.0079803466797 79.65477752685547 149.99954223632812 57.6828498840332 156.83302307128906 42.44766616821289" stroke-width="2.0" fill="none" stroke="rgb(0, 0, 0)" stroke-opacity="1" stroke-linecap="round" stroke-linejoin="round"/>
    <path d="M 219.7674560546875 164.74041748046875 C 232.9613494873047 175.00396728515625 260.97406005859375 164.9984893798828 275.5412902832031 169.91012573242188" stroke-width="2.0" fill="none" stroke="rgb(0, 0, 0)" stroke-opacity="1" stroke-linecap="round" stroke-linejoin="round"/>
    <path d="M 110.92593383789062 111.88275146484375 C 106.74101257324219 76.99555969238281 102.0251693725586 71.05349731445312 117.1520004272461 94.26749420166016" stroke-width="2.0" fill="none" stroke="rgb(0, 0, 0)" stroke-opacity="1" stroke-linecap="round" stroke-linejoin="round"/>
    <path d="M 166.6542205810547 28.924238204956055 C 178.5323028564453 11.731207847595215 164.09535217285156 47.45561599731445 157.60223388671875 45.99873733520508 C 157.07835388183594 35.33401107788086 135.62269592285156 42.428993225097656 149.99575805664062 46.15837478637695 C 150.5845184326172 65.37483215332031 134.62757873535156 26.988330841064453 142.64324951171875 51.68996810913086" stroke-width="2.0" fill="none" stroke="rgb(0, 0, 0)" stroke-opacity="1" stroke-linecap="round" stroke-linejoin="round"/>
    <path d="M 16.0595645904541 95.11396026611328 C 22.525007247924805 86.35234832763672 31.145442962646484 66.68346405029297 36.81321716308594 37.5057487487793 C 20.907024383544922 60.20115280151367 21.775671005249023 62.32865905761719 22.875198364257812 62.70361328125" stroke-width="2.0" fill="none" stroke="rgb(0, 0, 0)" stroke-opacity="1" stroke-linecap="round" stroke-linejoin="round"/>
    <path d="M 129.5123291015625 110.46138763427734 C 109.08856964111328 134.55397033691406 89.37525177001953 83.95268249511719 119.39716339111328 114.08170318603516" stroke-width="2.0" fill="none" stroke="rgb(0, 0, 0)" stroke-opacity="1" stroke-linecap="round" stroke-linejoin="round"/>
    <path d="M 193.68736267089844 41.17679214477539 C 177.47251892089844 34.67531967163086 168.06837463378906 -15.567834854125977 180.95327758789062 -6.613780975341797 C 217.12623596191406 10.481854438781738 201.92291259765625 -4.635036468505859 184.514404296875 -13.25772762298584" stroke-width="2.0" fill="none" stroke="rgb(0, 0, 0)" stroke-opacity="1" stroke-linecap="round" stroke-linejoin="round"/>
    <path d="M 30.540340423583984 170.009033203125 C 24.009775161743164 160.76370239257812 6.011513710021973 142.0580596923828 8.618120193481445 166.3197784423828" stroke-width="2.0" fill="none" stroke="rgb(0, 0, 0)" stroke-opacity="1" stroke-linecap="round" stroke-linejoin="round"/>
    <path d="M 215.99293518066406 34.871158599853516 C 230.1079864501953 35.55797576904297 206.91871643066406 21.95038414001465 196.5367431640625 35.90970993041992 C 222.00650024414062 21.70270538330078 214.27586364746094 43.38107681274414 221.2065887451172 61.6768798828125 C 205.3286895751953 48.92104721069336 228.76904296875 64.4554214477539 229.2482147216797 43.81081008911133" stroke-width="2.0" fill="none" stroke="rgb(0, 0, 0)" stroke-opacity="1" stroke-linecap="round" stroke-linejoin="round"/>
    <path d="M 27.510927200317383 50.648345947265625 C 18.731094360351562 77.23139953613281 -2.041954278945923 74.7068862915039 -0.6928693652153015 53.1762580871582 C -11.11751651763916 51.37834167480469 -19.82046127319336 54.79567337036133 -43.6457405090332 46.09131622314453 C -31.286291122436523 40.036773681640625 3.34446382522583 55.68775177001953 7.119322299957275 46.5947151184082" stroke-width="2.0" fill="none" stroke="rgb(0, 0, 0)" stroke-opacity="1" stroke-linecap="round" stroke-linejoin="round"/>
    <path d="M 57.952911376953125 210.86827087402344 C 77.8998794555664 207.63685607910156 40.06636047363281 222.96376037597656 57.849525451660156 201.3453826904297 C 54.79330825805664 205.9513702392578 46.35544204711914 203.07969665527344 43.41853713989258 186.38803100585938 C 59.78990173339844 190.5516815185547 43.118839263916016 194.75367736816406 45.498382568359375 192.8943634033203" stroke-width="2.0" fill="none" stroke="rgb(0, 0, 0)" stroke-opacity="1" stroke-linecap="round" stroke-linejoin="round"/>
    <path d="M 25.05214500427246 102.26475524902344 C 9.956375122070312 111.91109466552734 24.939435958862305 91.19017028808594 21.73011589050293 114.66083526611328" stroke-width="2.0" fill="none" stroke="rgb(0, 0, 0)" stroke-opacity="1" stroke-linecap="round" stroke-linejoin="round"/>
    <path d="M 172.1695098876953 194.63221740722656 C 212.1104278564453 170.2159881591797 195.6001739501953 210.43748474121094 180.03114318847656 182.99691772460938" stroke-width="2.0" fill="none" stroke="rgb(0, 0, 0)" stroke-opacity="1" stroke-linecap="round" stroke-linejoin="round"/>
    <path d="M 171.43992614746094 116.32647705078125 C 129.39846801757812 137.23129272460938 132.6787872314453 111.10287475585938 139.82310485839844 119.20951843261719" stroke-width="2.0" fill="none" stroke="rgb(0, 0, 0)" stroke-opacity="1" stroke-linecap="round" stroke-linejoin="round"/>
    <path d="M 35.40570068359375 166.8516082763672 C 6.579402446746826 147.00247192382812 27.897470474243164 137.5269012451172 6.534039497375488 161.62229919433594" stroke-width="2.0" fill="none" stroke="rgb(0, 0, 0)" stroke-opacity="1" stroke-linecap="round" stroke-linejoin="round"/>
    <path d="M 143.4471435546875 207.69992065429688 C 125.84605407714844 209.5231475830078 131.3592071533203 190.55487060546875 151.5282745361328 195.8514862060547 C 158.69241333007812 212.76841735839844 180.81021118164062 187.1819610595703 166.34811401367188 190.0846710205078" stroke-width="2.0" fill="none" stroke="rgb(0, 0, 0)" stroke-opacity="1" stroke-linecap="round" stroke-linejoin="round"/>
    <path d="M 76.07437896728516 146.87881469726562 C 90.58892822265625 138.77206420898438 70.60735321044922 139.2251739501953 80.71905517578125 129.34388732910156 C 67.23371887207031 147.00421142578125 51.94169616699219 151.23281860351562 81.77521514892578 125.55126190185547 C 101.7003402709961 133.55276489257812 86.22234344482422 125.11084747314453 71.64703369140625 152.3101348876953" stroke-width="2.0" fill="none" stroke="rgb(0, 0, 0)" stroke-opacity="1" stroke-linecap="round" stroke-linejoin="round"/>
    <path d="M 7.769961833953857 156.9864959716797 C 1.3708096742630005 152.57936096191406 35.446327209472656 156.07814025878906 22.320241928100586 161.76905822753906 C 24.737424850463867 178.21267700195312 44.13920593261719 160.17630004882812 54.04087829589844 160.19940185546875 C 38.884586334228516 144.0095977783203 10.712251663208008 143.32933044433594 72.8833236694336 149.40870666503906" stroke-width="2.0" fill="none" stroke="rgb(0, 0, 0)" stroke-opacity="1" stroke-linecap="round" stroke-linejoin="round"/>
    <path d="M -4.833075523376465 75.26863861083984 C -13.49802303314209 85.90924835205078 1.2291558980941772 72.32684326171875 -8.334554672241211 75.30461883544922 C -3.899136543273926 95.45625305175781 -8.229814529418945 94.2502212524414 -15.439170837402344 83.91077423095703" stroke-width="2.0" fill="none" stroke="rgb(0, 0, 0)" stroke-opacity="1" stroke-linecap="round" stroke-linejoin="round"/>
    <path d="M 190.59312438964844 62.57676315307617 C 161.95997619628906 46.94255447387695 204.32546997070312 80.40180969238281 177.880126953125 64.99717712402344" stroke-width="2.0" fill="none" stroke="rgb(0, 0, 0)" stroke-opacity="1" stroke-linecap="round" stroke-linejoin="round"/>
    <path d="M 99.16248321533203 209.69638061523438 C 117.71488189697266 207.0796661376953 89.33736419677734 191.4037322998047 101.79188537597656 204.4113006591797" stroke-width="2.0" fill="none" stroke="rgb(0, 0, 0)" stroke-opacity="1" stroke-linecap="round" stroke-linejoin="round"/>
    <path d="M 212.24757385253906 133.82894897460938 C 199.11708068847656 108.50019073486328 204.27879333496094 141.81851196289062 216.68734741210938 131.5389862060547" stroke-width="2.0" fill="none" stroke="rgb(0, 0, 0)" stroke-opacity="1" stroke-linecap="round" stroke-linejoin="round"/>
    <path d="M 110.46354675292969 125.2818374633789 C 99.70936584472656 155.3760223388672 104.29263305664062 120.55171203613281 110.5770034790039 133.98184204101562 C 105.45068359375 112.25827026367188 115.72492218017578 145.7901153564453 96.50181579589844 143.8909149169922 C 74.370849609375 123.20922088623047 101.79315948486328 176.64340209960938 78.5503921508789 168.5504913330078" stroke-width="2.0" fill="none" stroke="rgb(0, 0, 0)" stroke-opacity="1" stroke-linecap="round" stroke-linejoin="round"/>
    <path d="M 227.04173278808594 154.20333862304688 C 227.52281188964844 155.6426239013672 237.01425170898438 166.60427856445312 217.32723999023438 153.52252197265625 C 224.1021270751953 158.35877990722656 213.0508575439453 167.05276489257812 229.39840698242188 158.7598419189453 C 229.2858123779297 152.6971435546875 234.11805725097656 160.7552947998047 244.1735382080078 166.49270629882812" stroke-width="2.0" fill="none" stroke="rgb(0, 0, 0)" stroke-opacity="1" stroke-linecap="round" stroke-linejoin="round"/>
    <path d="M 7.99774694442749 62.666404724121094 C -3.42270565032959 46.611778259277344 45.8670539855957 55.52968978881836 11.340795516967773 63.3570442199707" stroke-width="2.0" fill="none" stroke="rgb(0, 0, 0)" stroke-opacity="1" stroke-linecap="round" stroke-linejoin="round"/>
    <path d="M 65.89022064208984 173.44223022460938 C 71.42060852050781 159.41139221191406 74.91641235351562 153.66534423828125 78.65376281738281 168.3929901123047 C 66.32412719726562 148.19107055664062 76.13077545166016 179.72357177734375 59.805973052978516 178.9126434326172 C 76.21312713623047 162.10203552246094 85.00415802001953 145.72604370117188 66.66307067871094 177.70567321777344" stroke-width="2.0" fill="none" stroke="rgb(0, 0, 0)" stroke-opacity="1" stroke-linecap="round" stroke-linejoin="round"/>
    <path d="M 15.81171989440918 145.83743286132812 C -13.58031940460205 142.28065490722656 40.888362884521484 145.83642578125 13.195503234863281 127.05573272705078" stroke-width="2.0" fill="none" stroke="rgb(0, 0, 0)" stroke-opacity="1" stroke-linecap="round" stroke-linejoin="round"/>
    <path d="M 100.54053497314453 55.24293518066406 C 107.59801483154297 27.935863494873047 88.60722351074219 54.156410217285156 93.08868408203125 26.654394149780273 C 90.46805572509766 49.5852165222168 87.30408477783203 25.113420486450195 114.81201171875 17.97941017150879 C 101.48695373535156 52.95136260986328 153.14065551757812 27.29045295715332 120.6532211303711 31.44098472595215" stroke-width="2.0" fill="none" stroke="rgb(0, 0, 0)" stroke-opacity="1" stroke-linecap="round" stroke-linejoin="round"/>
    <path d="M 196.8101806640625 0.19286072254180908 C 203.03860473632812 38.25032424926758 223.1003875732422 -0.8732563257217407 218.1929168701172 28.67635726928711" stroke-width="2.0" fill="none" stroke="rgb(0, 0, 0)" stroke-opacity="1" stroke-linecap="round" stroke-linejoin="round"/>
    <path d="M 54.48087692260742 94.21739196777344 C 88.83194732666016 81.4577865600586 71.83290100097656 84.1761474609375 57.28366470336914 95.38812255859375 C 65.59723663330078 86.07076263427734 53.81526184082031 94.99956512451172 29.396474838256836 86.8271713256836 C 24.829334259033203 76.4521713256836 27.586946487426758 81.14058685302734 36.91838455200195 87.19186401367188" stroke-width="2.0" fill="none" stroke="rgb(0, 0, 0)" stroke-opacity="1" stroke-linecap="round" stroke-linejoin="round"/>
    <path d="M 33.05479049682617 77.93128967285156 C 47.53080368041992 79.98367309570312 39.413841247558594 68.88687896728516 32.86123275756836 69.41179656982422 C 23.66642951965332 81.1425552368164 24.65982437133789 90.92391204833984 24.7498779296875 70.36316680908203 C 17.359134674072266 91.80277252197266 26.752412796020508 88.09026336669922 14.239480018615723 88.44749450683594" stroke-width="2.0" fill="none" stroke="rgb(0, 0, 0)" stroke-opacity="1" stroke-linecap="round" stroke-linejoin="round"/>
    <path d="M -2.6894943714141846 35.06155776977539 C -3.627497673034668 58.01011657714844 16.937597274780273 46.78715133666992 0.03231826424598694 39.739173889160156 C -10.252838134765625 54.35485076904297 -16.430673599243164 59.19619369506836 -5.640544414520264 69.9329605102539" stroke-width="2.0" fill="none" stroke="rgb(0, 0, 0)" stroke-opacity="1" stroke-linecap="round" stroke-linejoin="round"/>
    <path d="M 83.16563415527344 95.19766235351562 C 91.6926498413086 95.35230255126953 65.37155151367188 99.29105377197266 82.89990997314453 106.17025756835938 C 71.4510269165039 78.9916763305664 63.8360595703125 115.26996612548828 61.32632827758789 108.02718353271484 C 56.72101593017578 113.59550476074219 47.050933837890625 90.02810668945312 65.75688934326172 103.87176513671875" stroke-width="2.0" fill="none" stroke="rgb(0, 0, 0)" stroke-opacity="1" stroke-linecap="round" stroke-linejoin="round"/>
    <path d="M 180.01229858398438 32.161720275878906 C 191.70977783203125 30.264286041259766 170.5308074951172 21.536874771118164 180.21893310546875 36.85009002685547 C 185.79901123046875 52.375938415527344 221.31161499023438 42.90068817138672 200.77151489257812 35.615264892578125" stroke-width="2.0" fill="none" stroke="rgb(0, 0, 0)" stroke-opacity="1" stroke-linecap="round" stroke-linejoin="round"/>
    <path d="M 70.23260498046875 79.55574035644531 C 59.44523239135742 47.63118362426758 47.311439514160156 78.0854263305664 47.04680633544922 56.271854400634766 C 61.29912567138672 49.570457458496094 63.259159088134766 71.61186218261719 54.34318161010742 70.59185028076172" stroke-width="2.0" fill="none" stroke="rgb(0, 0, 0)" stroke-opacity="1" stroke-linecap="round" stroke-linejoin="round"/>
    <path d="M 54.61737823486328 132.83267211914062 C 40.67189407348633 131.76100158691406 58.656856536865234 143.69371032714844 63.858062744140625 131.94027709960938 C 57.59661865234375 115.43495178222656 93.58036041259766 120.4828109741211 96.95252990722656 111.47691345214844 C 86.06858825683594 103.73682403564453 88.1621322631836 122.92355346679688 106.59172058105469 127.5039291381836" stroke-width="2.0" fill="none" stroke="rgb(0, 0, 0)" stroke-opacity="1" stroke-linecap="round" stroke-linejoin="round"/>
    <path d="M 10.45690631866455 186.31195068359375 C 11.9837007522583 164.89117431640625 -10.954071998596191 182.6736602783203 -25.237884521484375 178.0499725341797" stroke-width="2.0" fill="none" stroke="rgb(0, 0, 0)" stroke-opacity="1" stroke-linecap="round" stroke-linejoin="round"/>
    <path d="M 30.66105079650879 -6.756622791290283 C 24.498262405395508 -6.0255208015441895 39.70609664916992 17.77369499206543 54.56879425048828 -2.4496216773986816 C 43.09896469116211 -6.06675386428833 51.04581832885742 3.294013023376465 54.23313522338867 -5.102362155914307 C 74.66610717773438 -2.432769775390625 87.14273834228516 -1.7847094535827637 76.99916076660156 -10.258367538452148" stroke-width="2.0" fill="none" stroke="rgb(0, 0, 0)" stroke-opacity="1" stroke-linecap="round" stroke-linejoin="round"/>
    <path d="M 49.13106918334961 186.12461853027344 C 41.78709411621094 152.92356872558594 52.18902587890625 160.88156127929688 42.86063766479492 158.2104034423828 C 45.42301940917969 193.98593139648438 44.00580596923828 198.37747192382812 53.123512268066406 197.94435119628906 C 43.89271545410156 173.57249450683594 40.16201400756836 152.82199096679688 52.95246887207031 166.247314453125" stroke-width="2.0" fill="none" stroke="rgb(0, 0, 0)" stroke-opacity="1" stroke-linecap="round" stroke-linejoin="round"/>
    <path d="M 204.24331665039062 163.20372009277344 C 205.29931640625 158.24781799316406 204.79164123535156 159.0048065185547 155.22479248046875 159.72195434570312" stroke-width="2.0" fill="none" stroke="rgb(0, 0, 0)" stroke-opacity="1" stroke-linecap="round" stroke-linejoin="round"/>
    <path d="M 189.0116424560547 41.624935150146484 C 177.27357482910156 33.28750991821289 187.09609985351562 15.001731872558594 165.5912628173828 21.41047477722168 C 161.00196838378906 17.657453536987305 159.5214385986328 9.905298233032227 192.68272399902344 -3.0265214443206787" stroke-width="2.0" fill="none" stroke="rgb(0, 0, 0)" stroke-opacity="1" stroke-linecap="round" stroke-linejoin="round"/>
    <path d="M 21.90097999572754 94.32533264160156 C -6.239999294281006 94.51304626464844 15.299336433410645 114.03636932373047 22.770938873291016 90.81520080566406" stroke-width="2.0" fill="none" stroke="rgb(0, 0, 0)" stroke-opacity="1" stroke-linecap="round" stroke-linejoin="round"/>
    <path d="M 59.38483810424805 168.85682678222656 C 76.29425811767578 138.06195068359375 75.05033111572266 142.3573760986328 40.15378952026367 147.303466796875 C 48.612186431884766 148.19918823242188 54.25239181518555 157.6132049560547 69.71102142333984 138.08255004882812" stroke-width="2.0" fill="none" stroke="rgb(0, 0, 0)" stroke-opacity="1" stroke-linecap="round" stroke-linejoin="round"/>
    <path d="M 75.99542236328125 95.46187591552734 C 61.86577224731445 70.9172134399414 76.29661560058594 81.37884521484375 62.05325698852539 85.88207244873047" stroke-width="2.0" fill="none" stroke="rgb(0, 0, 0)" stroke-opacity="1" stroke-linecap="round" stroke-linejoin="round"/>
    <path d="M 198.48342895507812 194.62672424316406 C 193.14190673828125 216.44602966308594 238.79727172851562 194.15963745117188 195.00318908691406 198.132568359375" stroke-width="2.0" fill="none" stroke="rgb(0, 0, 0)" stroke-opacity="1" stroke-linecap="round" stroke-linejoin="round"/>
    <path d="M 102.09595489501953 15.038065910339355 C 116.27887725830078 25.38755226135254 88.68585205078125 34.437095642089844 98.5518569946289 16.961923599243164 C 94.73501586914062 49.229034423828125 95.84996032714844 46.135498046875 109.5244369506836 67.8080062866211" stroke-width="2.0" fill="none" stroke="rgb(0, 0, 0)" stroke-opacity="1" stroke-linecap="round" stroke-linejoin="round"/>
    <path d="M 192.88121032714844 158.4576416015625 C 195.39334106445312 172.3258819580078 215.74114990234375 167.53836059570312 221.60568237304688 146.8895721435547 C 201.67364501953125 160.3135986328125 190.48728942871094 137.01380920410156 220.01345825195312 135.7359161376953 C 198.91925048828125 154.9616241455078 215.22219848632812 139.08224487304688 232.9427490234375 136.11196899414062" stroke-width="2.0" fill="none" stroke="rgb(0, 0, 0)" stroke-opacity="1" stroke-linecap="round" stroke-linejoin="round"/>
    <path d="M 182.11083984375 25.620973587036133 C 185.59750366210938 45.30668640136719 210.69491577148438 37.252010345458984 202.55296325683594 30.751708984375" stroke-width="2.0" fill="none" stroke="rgb(0, 0, 0)" stroke-opacity="1" stroke-linecap="round" stroke-linejoin="round"/>
    <path d="M 154.78628540039062 226.8540802001953 C 141.15542602539062 217.62181091308594 134.16122436523438 226.11346435546875 115.52220916748047 231.01895141601562 C 169.34239196777344 233.92401123046875 172.29917907714844 230.87503051757812 183.30564880371094 225.65675354003906" stroke-width="2.0" fill="none" stroke="rgb(0, 0, 0)" stroke-opacity="1" stroke-linecap="round" stroke-linejoin="round"/>
    <path d="M 81.41348266601562 142.93785095214844 C 60.238059997558594 157.06236267089844 74.70091247558594 150.19586181640625 80.08605194091797 142.10130310058594 C 80.34549713134766 131.1239776611328 67.7591552734375 136.11553955078125 59.00039291381836 147.30752563476562 C 74.31246185302734 137.69012451171875 50.45554733276367 144.25450134277344 66.93250274658203 155.3081512451172" stroke-width="2.0" fill="none" stroke="rgb(0, 0, 0)" stroke-opacity="1" stroke-linecap="round" stroke-linejoin="round"/>
    <path d="M 194.0015106201172 -0.035821136087179184 C 209.8447265625 11.467154502868652 193.55833435058594 -8.407517433166504 193.16908264160156 -13.292256355285645" stroke-width="2.0" fill="none" stroke="rgb(0, 0, 0)" stroke-opacity="1" stroke-linecap="round" stroke-linejoin="round"/>
    <path d="M 169.09735107421875 27.609237670898438 C 145.69308471679688 62.96212387084961 143.66920471191406 77.60797882080078 158.81634521484375 48.65446090698242 C 132.32106018066406 60.80347442626953 155.3026123046875 80.12174987792969 156.5177764892578 60.47262191772461 C 183.3631591796875 64.1270751953125 144.37252807617188 64.71363830566406 126.96876525878906 79.04071044921875" stroke-width="2.0" fill="none" stroke="rgb(0, 0, 0)" stroke-opacity="1" stroke-linecap="round" stroke-linejoin="round"/>
    <path d="M 121.47264862060547 111.62226867675781 C 142.78781127929688 121.33763885498047 141.53372192382812 69.85930633544922 147.8008270263672 95.9038314819336 C 115.49039459228516 60.54704666137695 132.57972717285156 104.05628204345703 133.01373291015625 86.6261215209961" stroke-width="2.0" fill="none" stroke="rgb(0, 0, 0)" stroke-opacity="1" stroke-linecap="round" stroke-linejoin="round"/>
    <path d="M 99.169921875 140.5860137939453 C 85.61273193359375 132.84181213378906 96.20990753173828 138.89183044433594 93.90752410888672 143.47512817382812 C 111.70630645751953 142.24685668945312 94.61546325683594 137.22486877441406 104.18515014648438 139.35069274902344 C 127.11397552490234 110.75362396240234 108.30493927001953 170.93661499023438 133.62660217285156 151.5846405029297" stroke-width="2.0" fill="none" stroke="rgb(0, 0, 0)" stroke-opacity="1" stroke-linecap="round" stroke-linejoin="round"/>
    <path d="M 43.282020568847656 150.46127319335938 C 33.52144241333008 157.13026428222656 15.667043685913086 122.52720642089844 63.389408111572266 161.30885314941406 C 64.36499786376953 143.20486450195312 25.526330947875977 148.4171905517578 35.36488723754883 139.2661590576172 C 23.31068992614746 135.64688110351562 55.003944396972656 129.4151611328125 30.401948928833008 126.8126449584961" stroke-width="2.0" fill="none" stroke="rgb(0, 0, 0)" stroke-opacity="1" stroke-linecap="round" stroke-linejoin="round"/>
    <path d="M 231.86904907226562 173.2666473388672 C 224.2803955078125 189.389404296875 194.2801513671875 172.94285583496094 221.37820434570312 168.72540283203125 C 216.17001342773438 223.83258056640625 214.55259704589844 215.24082946777344 248.13424682617188 192.93426513671875" stroke-width="2.0" fill="none" stroke="rgb(0, 0, 0)" stroke-opacity="1" stroke-linecap="round" stroke-linejoin="round"/>
    <path d="M 87.67499542236328 -8.725440979003906 C 79.26188659667969 10.382487297058105 68.77897644042969 4.397378444671631 66.74739837646484 -2.3616466522216797 C 56.827823638916016 -6.40380859375 45.63734817504883 9.201661109924316 43.29391098022461 16.1325626373291 C 36.30127716064453 33.80717849731445 41.783382415771484 5.145759105682373 47.243656158447266 18.310117721557617" stroke-width="2.0" fill="none" stroke="rgb(0, 0, 0)" stroke-opacity="1" stroke-linecap="round" stroke-linejoin="round"/>
    <path d="M 131.56362915039062 51.336647033691406 C 146.8865509033203 58.839900970458984 135.5741424560547 72.05561065673828 128.090087890625 55.1943473815918" stroke-width="2.0" fill="none" stroke="rgb(0, 0, 0)" stroke-opacity="1" stroke-linecap="round" stroke-linejoin="round"/>
    <path d="M 47.89762878417969 162.35105895996094 C 72.31938171386719 159.5972442626953 45.4930534362793 142.25241088867188 28.88735008239746 163.96522521972656 C 56.66584396362305 155.48265075683594 19.319677352905273 163.68389892578125 38.95841979980469 157.8947296142578" stroke-width="2.0" fill="none" stroke="rgb(0, 0, 0)" stroke-opacity="1" stroke-linecap="round" stroke-linejoin="round"/>
    <path d="M 36.49138259887695 75.46836853027344 C 46.181697845458984 68.3882064819336 22.884765625 66.24630737304688 19.332313537597656 94.17327880859375" stroke-width="2.0" fill="none" stroke="rgb(0, 0, 0)" stroke-opacity="1" stroke-linecap="round" stroke-linejoin="round"/>
    <path d="M 186.50477600097656 124.21751403808594 C 200.34869384765625 133.43276977539062 205.905029296875 105.54954528808594 218.87794494628906 119.30126190185547 C 212.99485778808594 133.07765197753906 187.50885009765625 109.84805297851562 206.3851776123047 104.67683410644531" stroke-width="2.0" fill="none" stroke="rgb(0, 0, 0)" stroke-opacity="1" stroke-linecap="round" stroke-linejoin="round"/>
    <path d="M 181.56275939941406 141.85414123535156 C 169.06121826171875 141.1315155029297 177.62672424316406 155.46987915039062 199.29489135742188 164.63124084472656 C 212.5446014404297 149.17344665527344 241.90248107910156 161.25587463378906 240.92408752441406 159.19287109375 C 224.11109924316406 165.85235595703125 230.41197204589844 159.34747314453125 207.9037322998047 146.21481323242188" stroke-width="2.0" fill="none" stroke="rgb(0, 0, 0)" stroke-opacity="1" stroke-linecap="round" stroke-linejoin="round"/>
    <path d="M 73.2822036743164 138.73580932617188 C 87.84938049316406 140.52308654785156 54.823265075683594 160.09591674804688 52.243408203125 164.57467651367188 C 59.13863754272461 192.61477661132812 67.02103424072266 178.9828643798828 80.06649780273438 155.87767028808594" stroke-width="2.0" fill="none" stroke="rgb(0, 0, 0)" stroke-opacity="1" stroke-linecap="round" stroke-linejoin="round"/>
    <path d="M 93.24012756347656 198.70870971679688 C 82.27713775634766 194.89077758789062 75.19161987304688 240.88499450683594 74.24122619628906 160.27471923828125" stroke-width="2.0" fill="none" stroke="rgb(0, 0, 0)" stroke-opacity="1" stroke-linecap="round" stroke-linejoin="round"/>
    <path d="M 229.4272003173828 98.26128387451172 C 233.7675018310547 126.1297607421875 246.55361938476562 109.94226837158203 247.8115997314453 101.42475891113281 C 245.09178161621094 96.68266296386719 253.89352416992188 99.32867431640625 251.39633178710938 100.00658416748047" stroke-width="2.0" fill="none" stroke="rgb(0, 0, 0)" stroke-opacity="1" stroke-linecap="round" stroke-linejoin="round"/>
    <path d="M 74.96553039550781 222.4818115234375 C 73.44466400146484 256.5660095214844 80.52278900146484 257.9871826171875 75.32735443115234 253.425537109375" stroke-width="2.0" fill="none" stroke="rgb(0, 0, 0)" stroke-opacity="1" stroke-linecap="round" stroke-linejoin="round"/>
    <path d="M 169.66188049316406 111.77906799316406 C 161.65155029296875 121.77741241455078 156.14439392089844 97.50101470947266 166.95901489257812 107.40926361083984 C 176.28672790527344 138.35459899902344 187.3370819091797 152.7904815673828 173.6134490966797 127.88137817382812" stroke-width="2.0" fill="none" stroke="rgb(0, 0, 0)" stroke-opacity="1" stroke-linecap="round" stroke-linejoin="round"/>
    <path d="M 161.4185791015625 95.8538818359375 C 152.9142608642578 58.02918243408203 159.69671630859375 94.80992889404297 173.88824462890625 79.29752349853516 C 167.4580841064453 72.78031921386719 169.0340118408203 87.61651611328125 189.88754272460938 61.70609664916992 C 192.82334899902344 47.32642364501953 201.27633666992188 67.09850311279297 188.60003662109375 57.37894821166992" stroke-width="2.0" fill="none" stroke="rgb(0, 0, 0)" stroke-opacity="1" stroke-linecap="round" stroke-linejoin="round"/>
    <path d="M 174.7255096435547 -2.9730608463287354 C 186.52183532714844 -1.2311228513717651 190.77145385742188 -8.710672378540039 204.54806518554688 -6.900412082672119 C 208.20901489257812 7.022566318511963 223.82632446289062 3.4771785736083984 223.43080139160156 -8.768075942993164 C 200.50311279296875 -16.486480712890625 208.9727020263672 1.1312123537063599 230.6341552734375 -2.5116281509399414" stroke-width="2.0" fill="none" stroke="rgb(0, 0, 0)" stroke-opacity="1" stroke-linecap="round" stroke-linejoin="round"/>
    <path d="M 179.95494079589844 81.0549545288086 C 170.7140350341797 75.21769714355469 195.5476837158203 108.4551010131836 178.9897003173828 93.84184265136719 C 225.5818634033203 89.81634521484375 198.3489227294922 102.7457504272461 160.40667724609375 81.73551177978516 C 171.07550048828125 109.90216064453125 151.6339874267578 104.60970306396484 152.2076416015625 77.1041030883789" stroke-width="2.0" fill="none" stroke="rgb(0, 0, 0)" stroke-opacity="1" stroke-linecap="round" stroke-linejoin="round"/>
    <path d="M 156.98858642578125 131.59242248535156 C 160.3750762939453 154.4770965576172 149.888916015625 150.18846130371094 152.1925048828125 139.62979125976562 C 165.37734985351562 150.7196044921875 153.8335418701172 124.18019104003906 161.53176879882812 130.376220703125" stroke-width="2.0" fill="none" stroke="rgb(0, 0, 0)" stroke-opacity="1" stroke-linecap="round" stroke-linejoin="round"/>
    <path d="M 146.15505981445312 170.84095764160156 C 158.3641357421875 146.81427001953125 132.23977661132812 155.1167755126953 134.25416564941406 161.8143768310547 C 138.69764709472656 170.9830780029297 172.49722290039062 173.8332061767578 145.41845703125 173.9954376220703" stroke-width="2.0" fill="none" stroke="rgb(0, 0, 0)" stroke-opacity="1" stroke-linecap="round" stroke-linejoin="round"/>
    <path d="M 190.42503356933594 159.31100463867188 C 158.50697326660156 153.869384765625 180.6630859375 112.19283294677734 151.59130859375 120.5589599609375 C 135.7263641357422 134.64645385742188 148.56195068359375 117.92180633544922 155.6333770751953 124.4047622680664" stroke-width="2.0" fill="none" stroke="rgb(0, 0, 0)" stroke-opacity="1" stroke-linecap="round" stroke-linejoin="round"/>
    <path d="M 155.19581604003906 212.9246368408203 C 185.75506591796875 214.0438995361328 170.6010284423828 194.869140625 178.23062133789062 217.66049194335938" stroke-width="2.0" fill="none" stroke="rgb(0, 0, 0)" stroke-opacity="1" stroke-linecap="round" stroke-linejoin="round"/>
    <path d="M 74.38569641113281 97.16926574707031 C 57.5692138671875 99.21869659423828 67.94774627685547 98.53738403320312 78.78414916992188 87.39360809326172 C 86.14608001708984 91.10333251953125 59.86391067504883 112.85762786865234 89.80755615234375 114.3287353515625" stroke-width="2.0" fill="none" stroke="rgb(0, 0, 0)" stroke-opacity="1" stroke-linecap="round" stroke-linejoin="round"/>
    <path d="M 136.21937561035156 101.9200210571289 C 138.86947631835938 73.10200500488281 149.02394104003906 117.50293731689453 109.02954864501953 109.3905029296875" stroke-width="2.0" fill="none" stroke="rgb(0, 0, 0)" stroke-opacity="1" stroke-linecap="round" stroke-linejoin="round"/>
    <path d="M 160.18511962890625 -6.827042102813721 C 155.1423797607422 6.047896862030029 182.71070861816406 1.4346243143081665 174.5863494873047 -3.185929775238037 C 180.57379150390625 5.370477676391602 189.1196746826172 -2.279818296432495 197.88246154785156 -16.17509651184082" stroke-width="2.0" fill="none" stroke="rgb(0, 0, 0)" stroke-opacity="1" stroke-linecap="round" stroke-linejoin="round"/>
    <path d="M 72.18439483642578 29.93329429626465 C 76.07388305664062 53.71428680419922 93.17062377929688 71.29730224609375 48.91869354248047 59.019046783447266 C 72.45701599121094 37.23698806762695 93.71991729736328 38.51289367675781 76.29328918457031 29.24036979675293 C 88.45207977294922 43.832176208496094 67.99765014648438 22.99225425720215 46.42499542236328 48.71589279174805" stroke-width="2.0" fill="none" stroke="rgb(0, 0, 0)" stroke-opacity="1" stroke-linecap="round" stroke-linejoin="round"/>
    <path d="M 27.254322052001953 106.44200897216797 C 12.825855255126953 113.58263397216797 21.670244216918945 101.84684753417969 24.32183265686035 119.13928985595703 C -10.109806060791016 121.13906860351562 33.5312385559082 127.19651794433594 23.85747718811035 111.74002075195312 C 38.931190490722656 108.52132415771484 22.101097106933594 116.5091781616211 31.182727813720703 131.10894775390625" stroke-width="2.0" fill="none" stroke="rgb(0, 0, 0)" stroke-opacity="1" stroke-linecap="round" stroke-linejoin="round"/>
    <path d="M 140.0206298828125 109.77213287353516 C 129.5959930419922 102.19903564453125 128.3604736328125 111.46344757080078 140.87722778320312 114.08431243896484" stroke-width="2.0" fill="none" stroke="rgb(0, 0, 0)" stroke-opacity="1" stroke-linecap="round" stroke-linejoin="round"/>
    <path d="M 205.20782470703125 112.75491333007812 C 196.76280212402344 75.59033203125 172.17086791992188 108.2796630859375 197.73548889160156 95.17314910888672" stroke-width="2.0" fill="none" stroke="rgb(0, 0, 0)" stroke-opacity="1" stroke-linecap="round" stroke-linejoin="round"/>
    <path d="M 98.3032455444336 178.9864959716797 C 74.11363220214844 182.77975463867188 108.52039337158203 210.1073760986328 123.81807708740234 175.70668029785156 C 120.5028076171875 171.15696716308594 104.97657012939453 229.92904663085938 94.68359375 203.21994018554688" stroke-width="2.0" fill="none" stroke="rgb(0, 0, 0)" stroke-opacity="1" stroke-linecap="round" stroke-linejoin="round"/>
    <path d="M 112.87789916992188 17.218650817871094 C 131.82920837402344 -3.4219155311584473 113.20819091796875 -2.9552273750305176 117.45743560791016 8.064414978027344 C 132.97520446777344 0.16594572365283966 131.554443359375 -8.468708992004395 139.11929321289062 -8.165243148803711 C 118.82160949707031 -5.035314083099365 128.85108947753906 -0.4957368075847626 136.3965301513672 -5.3070597648620605" stroke-width="2.0" fill="none" stroke="rgb(0, 0, 0)" stroke-opacity="1" stroke-linecap="round" stroke-linejoin="round"/>
    <path d="M 28.98407745361328 46.021549224853516 C 53.79398727416992 -3.3078207969665527 13.621269226074219 55.14426040649414 5.014870643615723 5.936312675476074 C 18.434078216552734 -3.5561954975128174 -0.3382415771484375 29.161256790161133 30.915464401245117 22.36867904663086" stroke-width="2.0" fill="none" stroke="rgb(0, 0, 0)" stroke-opacity="1" stroke-linecap="round" stroke-linejoin="round"/>
    <path d="M 141.9309844970703 167.49700927734375 C 132.7111358642578 191.23170471191406 167.5514678955078 201.463623046875 151.28793334960938 194.42437744140625" stroke-width="2.0" fill="none" stroke="rgb(0, 0, 0)" stroke-opacity="1" stroke-linecap="round" stroke-linejoin="round"/>
    <path d="M 62.80094909667969 216.65634155273438 C 72.9520034790039 203.76412963867188 69.12413024902344 233.96034240722656 44.27226638793945 222.70932006835938 C 22.3095703125 237.8616180419922 35.4551887512207 235.7561492919922 75.68247985839844 233.202880859375 C 64.16707611083984 229.7924346923828 63.46056365966797 221.3064727783203 63.63964080810547 229.82901000976562" stroke-width="2.0" fill="none" stroke="rgb(0, 0, 0)" stroke-opacity="1" stroke-linecap="round" stroke-linejoin="round"/>
    <path d="M 153.41610717773438 152.65956115722656 C 140.93592834472656 179.2590789794922 135.4746551513672 147.90774536132812 147.12989807128906 161.2780303955078" stroke-width="2.0" fill="none" stroke="rgb(0, 0, 0)" stroke-opacity="1" stroke-linecap="round" stroke-linejoin="round"/>
    <path d="M 118.94914245605469 60.872528076171875 C 143.0729522705078 74.20758056640625 95.74634552001953 74.82917785644531 108.51119995117188 76.29927062988281 C 111.2025146484375 91.5315933227539 95.20785522460938 81.4097900390625 78.7306137084961 65.775146484375 C 109.45447540283203 86.37946319580078 86.79225158691406 69.79498291015625 74.53683471679688 80.44012451171875" stroke-width="2.0" fill="none" stroke="rgb(0, 0, 0)" stroke-opacity="1" stroke-linecap="round" stroke-linejoin="round"/>
  </g>
</svg>
