<?xml version="1.0" ?>
<svg xmlns="http://www.w3.org/2000/svg" version="1.1" width="224" height="224">
  <defs/>
  <g>
    <path d="M 4.2302446365356445 54.40485763549805 C 14.514923095703125 65.15505981445312 10.231156349182129 87.5577621459961 9.728139877319336 71.04363250732422 C 9.116268157958984 50.79822540283203 10.666404724121094 87.64366912841797 9.913755416870117 90.73064422607422" stroke-width="2.0" fill="none" stroke="rgb(0, 0, 0)" stroke-opacity="1" stroke-linecap="round" stroke-linejoin="round"/>
    <path d="M 217.2539520263672 128.0712890625 C 212.36805725097656 165.13804626464844 221.72328186035156 167.5223388671875 189.07687377929688 172.9649658203125 C 183.87136840820312 201.7401885986328 188.05226135253906 174.4530487060547 213.30726623535156 165.12498474121094 C 194.88638305664062 176.1981964111328 191.56890869140625 157.07350158691406 194.81625366210938 168.82496643066406" stroke-width="2.0" fill="none" stroke="rgb(0, 0, 0)" stroke-opacity="1" stroke-linecap="round" stroke-linejoin="round"/>
    <path d="M 234.30453491210938 221.30467224121094 C 224.05894470214844 239.1615753173828 206.124755859375 229.85154724121094 206.29287719726562 238.09764099121094 C 232.90191650390625 233.06106567382812 231.0918731689453 225.39137268066406 218.99166870117188 230.4847869873047 C 237.35540771484375 218.72364807128906 242.2227783203125 218.0610809326172 234.7659149169922 216.03785705566406" stroke-width="2.0" fill="none" stroke="rgb(0, 0, 0)" stroke-opacity="1" stroke-linecap="round" stroke-linejoin="round"/>
    <path d="M 43.24338150024414 152.8335418701172 C 63.30548858642578 104.86558532714844 40.37358474731445 119.94978332519531 52.65669631958008 156.93833923339844 C 48.58199691772461 155.89369201660156 82.53526306152344 143.4026336669922 72.50132751464844 146.44410705566406 C 63.93903350830078 123.5661392211914 60.729976654052734 150.32492065429688 71.8662338256836 136.90679931640625" stroke-width="2.0" fill="none" stroke="rgb(0, 0, 0)" stroke-opacity="1" stroke-linecap="round" stroke-linejoin="round"/>
    <path d="M 72.19818115234375 -2.5807440280914307 C 83.48938751220703 -24.475133895874023 78.52027130126953 -33.85868835449219 71.84131622314453 21.18416976928711 C 69.7568130493164 39.291534423828125 48.536346435546875 28.714555740356445 60.95490264892578 13.581890106201172 C 88.13166046142578 9.485629081726074 45.17790603637695 39.76173400878906 54.205406188964844 23.75787925720215" stroke-width="2.0" fill="none" stroke="rgb(0, 0, 0)" stroke-opacity="1" stroke-linecap="round" stroke-linejoin="round"/>
    <path d="M 100.83563232421875 100.00817108154297 C 95.513671875 88.76175689697266 107.25799560546875 84.61883544921875 98.18212127685547 76.3583755493164 C 112.41856384277344 57.62464904785156 82.67391204833984 55.0708122253418 86.2093276977539 57.68544006347656" stroke-width="2.0" fill="none" stroke="rgb(0, 0, 0)" stroke-opacity="1" stroke-linecap="round" stroke-linejoin="round"/>
    <path d="M 147.29922485351562 14.93329906463623 C 140.27098083496094 6.6825127601623535 165.31385803222656 11.080315589904785 152.7504425048828 46.35930633544922 C 134.2831268310547 71.93145751953125 128.5426025390625 67.01913452148438 116.82616424560547 89.43524932861328 C 95.39630889892578 71.92064666748047 131.1365509033203 73.63288879394531 138.15289306640625 55.493587493896484" stroke-width="2.0" fill="none" stroke="rgb(0, 0, 0)" stroke-opacity="1" stroke-linecap="round" stroke-linejoin="round"/>
    <path d="M 102.95077514648438 118.62007141113281 C 121.2426528930664 91.39037322998047 108.03562927246094 113.12420654296875 129.677490234375 108.6861801147461 C 91.3791275024414 117.51625061035156 98.61264038085938 137.75302124023438 141.24041748046875 111.78398895263672 C 165.6367645263672 126.53070068359375 119.5820083618164 95.3203125 136.87051391601562 90.51424407958984" stroke-width="2.0" fill="none" stroke="rgb(0, 0, 0)" stroke-opacity="1" stroke-linecap="round" stroke-linejoin="round"/>
    <path d="M 190.3977813720703 83.59544372558594 C 216.43704223632812 86.5799789428711 185.99595642089844 83.18870544433594 201.21397399902344 82.1256103515625 C 211.46986389160156 119.74651336669922 183.8356170654297 107.53067016601562 148.96435546875 110.09980773925781 C 166.2419891357422 119.17623138427734 162.81118774414062 88.25944519042969 189.1278839111328 102.44994354248047" stroke-width="2.0" fill="none" stroke="rgb(0, 0, 0)" stroke-opacity="1" stroke-linecap="round" stroke-linejoin="round"/>
    <path d="M 49.938045501708984 95.32727813720703 C 74.8722152709961 95.6610336303711 86.49113464355469 54.189231872558594 45.833194732666016 84.3160400390625" stroke-width="2.0" fill="none" stroke="rgb(0, 0, 0)" stroke-opacity="1" stroke-linecap="round" stroke-linejoin="round"/>
    <path d="M 170.98367309570312 26.471281051635742 C 161.60401916503906 2.556720018386841 168.32785034179688 18.809438705444336 196.92185974121094 22.632360458374023 C 202.16322326660156 28.045848846435547 152.71914672851562 24.16994857788086 179.12533569335938 11.519098281860352 C 157.05870056152344 10.427547454833984 156.98516845703125 9.117591857910156 152.52978515625 -12.982343673706055" stroke-width="2.0" fill="none" stroke="rgb(0, 0, 0)" stroke-opacity="1" stroke-linecap="round" stroke-linejoin="round"/>
    <path d="M 214.2756805419922 197.87249755859375 C 203.82638549804688 167.42169189453125 167.8199462890625 205.25621032714844 206.04733276367188 192.4050750732422 C 209.9800262451172 194.83091735839844 229.90841674804688 199.7770233154297 212.72454833984375 173.25311279296875 C 189.5161590576172 174.5615692138672 220.23683166503906 195.94190979003906 211.48013305664062 164.37289428710938" stroke-width="2.0" fill="none" stroke="rgb(0, 0, 0)" stroke-opacity="1" stroke-linecap="round" stroke-linejoin="round"/>
    <path d="M 13.057587623596191 219.84982299804688 C 36.62044906616211 224.64126586914062 63.713035583496094 223.22592163085938 59.49994659423828 212.8917236328125 C 70.0085220336914 207.7085418701172 51.224239349365234 223.87330627441406 50.6417236328125 199.0572052001953" stroke-width="2.0" fill="none" stroke="rgb(0, 0, 0)" stroke-opacity="1" stroke-linecap="round" stroke-linejoin="round"/>
    <path d="M 236.64581298828125 183.35275268554688 C 237.1196746826172 190.74581909179688 217.86904907226562 187.01113891601562 220.47767639160156 165.6826171875 C 224.48793029785156 156.2705078125 222.94012451171875 159.18582153320312 230.95944213867188 145.20657348632812 C 246.57858276367188 165.45571899414062 231.4862518310547 172.5482177734375 228.3103790283203 167.16104125976562" stroke-width="2.0" fill="none" stroke="rgb(0, 0, 0)" stroke-opacity="1" stroke-linecap="round" stroke-linejoin="round"/>
    <path d="M 22.363525390625 131.70620727539062 C 18.92376708984375 69.39891052246094 36.921287536621094 109.16352081298828 23.666629791259766 90.05160522460938 C 6.195550441741943 93.10287475585938 20.867233276367188 138.09556579589844 -2.9868807792663574 117.42630767822266" stroke-width="2.0" fill="none" stroke="rgb(0, 0, 0)" stroke-opacity="1" stroke-linecap="round" stroke-linejoin="round"/>
    <path d="M 37.11637878417969 175.6224822998047 C 60.638771057128906 189.98558044433594 49.60045623779297 170.18125915527344 44.17097854614258 174.42526245117188 C 16.156557083129883 160.38470458984375 66.27579498291016 169.34371948242188 80.51305389404297 159.6904754638672 C 70.10719299316406 151.35853576660156 29.305625915527344 161.3897705078125 30.74785041809082 143.64120483398438" stroke-width="2.0" fill="none" stroke="rgb(0, 0, 0)" stroke-opacity="1" stroke-linecap="round" stroke-linejoin="round"/>
    <path d="M 139.82542419433594 195.08811950683594 C 138.7643280029297 190.93572998046875 152.065185546875 197.0387725830078 159.61964416503906 174.9887237548828 C 148.1275177001953 173.1162109375 163.82565307617188 183.59767150878906 150.37644958496094 193.2058868408203 C 162.11135864257812 191.0665740966797 165.6199188232422 207.61106872558594 178.40634155273438 185.35931396484375" stroke-width="2.0" fill="none" stroke="rgb(0, 0, 0)" stroke-opacity="1" stroke-linecap="round" stroke-linejoin="round"/>
    <path d="M 150.4677276611328 64.72725677490234 C 147.12026977539062 68.71936798095703 199.5015411376953 18.265748977661133 175.76829528808594 61.01311111450195" stroke-width="2.0" fill="none" stroke="rgb(0, 0, 0)" stroke-opacity="1" stroke-linecap="round" stroke-linejoin="round"/>
    <path d="M 177.6704559326172 193.04830932617188 C 130.1325225830078 205.60047912597656 130.64547729492188 204.4237823486328 172.63442993164062 203.59498596191406" stroke-width="2.0" fill="none" stroke="rgb(0, 0, 0)" stroke-opacity="1" stroke-linecap="round" stroke-linejoin="round"/>
    <path d="M 193.05982971191406 57.970680236816406 C 188.1995849609375 49.43889236450195 193.48133850097656 35.084510803222656 193.46450805664062 51.833946228027344" stroke-width="2.0" fill="none" stroke="rgb(0, 0, 0)" stroke-opacity="1" stroke-linecap="round" stroke-linejoin="round"/>
    <path d="M 12.95658016204834 163.17091369628906 C 15.581984519958496 211.39019775390625 10.197755813598633 191.20632934570312 59.82139205932617 198.4697265625" stroke-width="2.0" fill="none" stroke="rgb(0, 0, 0)" stroke-opacity="1" stroke-linecap="round" stroke-linejoin="round"/>
    <path d="M 226.78533935546875 201.83941650390625 C 226.91627502441406 234.2855224609375 218.43858337402344 219.4978485107422 181.8719482421875 221.88780212402344" stroke-width="2.0" fill="none" stroke="rgb(0, 0, 0)" stroke-opacity="1" stroke-linecap="round" stroke-linejoin="round"/>
    <path d="M 136.02110290527344 95.59745025634766 C 150.3534393310547 112.60633087158203 135.6924285888672 103.97484588623047 131.86038208007812 120.70061492919922" stroke-width="2.0" fill="none" stroke="rgb(0, 0, 0)" stroke-opacity="1" stroke-linecap="round" stroke-linejoin="round"/>
    <path d="M 140.4781951904297 99.12417602539062 C 128.31581115722656 126.54027557373047 112.43937683105469 135.3948516845703 122.58203125 117.18513488769531 C 121.96411895751953 116.46089172363281 116.55546569824219 95.84685516357422 117.515380859375 119.80763244628906 C 147.3140106201172 120.6572494506836 137.81015014648438 104.96517944335938 109.47367095947266 110.60261535644531" stroke-width="2.0" fill="none" stroke="rgb(0, 0, 0)" stroke-opacity="1" stroke-linecap="round" stroke-linejoin="round"/>
    <path d="M 40.590763092041016 8.572870254516602 C 47.25172424316406 -8.114115715026855 51.150733947753906 55.30111312866211 43.967960357666016 8.81116771697998" stroke-width="2.0" fill="none" stroke="rgb(0, 0, 0)" stroke-opacity="1" stroke-linecap="round" stroke-linejoin="round"/>
    <path d="M 144.52919006347656 108.67285919189453 C 179.79737854003906 124.8885269165039 129.9551544189453 130.17282104492188 135.98092651367188 120.7398452758789 C 170.02737426757812 123.11882019042969 109.97932434082031 124.1968002319336 147.9243927001953 126.07540130615234 C 109.08223724365234 133.068603515625 96.10950469970703 129.8497772216797 125.54996490478516 122.79073333740234" stroke-width="2.0" fill="none" stroke="rgb(0, 0, 0)" stroke-opacity="1" stroke-linecap="round" stroke-linejoin="round"/>
    <path d="M 226.91432189941406 183.2345428466797 C 228.89862060546875 181.02117919921875 236.41807556152344 187.6953887939453 230.61407470703125 199.4318389892578 C 227.0325927734375 198.30560302734375 226.349365234375 205.3624725341797 228.53878784179688 193.51759338378906 C 220.8687744140625 204.399169921875 250.34942626953125 190.6229248046875 269.3934631347656 200.59739685058594" stroke-width="2.0" fill="none" stroke="rgb(0, 0, 0)" stroke-opacity="1" stroke-linecap="round" stroke-linejoin="round"/>
    <path d="M 71.30413818359375 55.4675178527832 C 72.51168823242188 34.49396514892578 48.75567626953125 67.38186645507812 71.3359375 64.6759262084961 C 58.78282928466797 89.68964385986328 29.10283851623535 80.77311706542969 71.06586456298828 65.3248291015625 C 104.37175750732422 57.52241134643555 107.13200378417969 42.691097259521484 81.66619873046875 65.92170715332031" stroke-width="2.0" fill="none" stroke="rgb(0, 0, 0)" stroke-opacity="1" stroke-linecap="round" stroke-linejoin="round"/>
    <path d="M 51.70656204223633 52.121002197265625 C 39.09773635864258 56.690956115722656 64.95353698730469 59.06830978393555 48.46747589111328 45.7364387512207 C 48.07564926147461 -19.97467041015625 54.671119689941406 21.53226661682129 0.5674291849136353 9.875710487365723" stroke-width="2.0" fill="none" stroke="rgb(0, 0, 0)" stroke-opacity="1" stroke-linecap="round" stroke-linejoin="round"/>
    <path d="M 45.840816497802734 63.85532760620117 C 62.14441680908203 59.905643463134766 53.85031509399414 52.07284927368164 36.10401153564453 40.860591888427734 C 87.83019256591797 63.765411376953125 81.07453918457031 36.346046447753906 79.94915771484375 34.53176498413086" stroke-width="2.0" fill="none" stroke="rgb(0, 0, 0)" stroke-opacity="1" stroke-linecap="round" stroke-linejoin="round"/>
    <path d="M 208.83958435058594 68.73546600341797 C 196.8200225830078 59.553550720214844 208.3209991455078 47.13634490966797 194.31617736816406 72.37924194335938 C 201.49974060058594 53.28059387207031 197.2763214111328 79.47063446044922 166.43292236328125 75.95611572265625" stroke-width="2.0" fill="none" stroke="rgb(0, 0, 0)" stroke-opacity="1" stroke-linecap="round" stroke-linejoin="round"/>
    <path d="M 197.72055053710938 168.4225616455078 C 181.66888427734375 137.3844451904297 197.5963897705078 114.8080825805664 195.5716552734375 154.25540161132812" stroke-width="2.0" fill="none" stroke="rgb(0, 0, 0)" stroke-opacity="1" stroke-linecap="round" stroke-linejoin="round"/>
    <path d="M 59.484535217285156 22.45895767211914 C 42.93564224243164 27.076976776123047 60.00027847290039 -4.396844387054443 63.96429443359375 27.667749404907227 C 81.72682189941406 25.165040969848633 46.0471305847168 21.53376007080078 53.45297622680664 11.483884811401367" stroke-width="2.0" fill="none" stroke="rgb(0, 0, 0)" stroke-opacity="1" stroke-linecap="round" stroke-linejoin="round"/>
    <path d="M 211.02732849121094 178.94837951660156 C 234.72314453125 203.01577758789062 206.1021728515625 207.217041015625 185.75743103027344 198.07591247558594 C 244.0570068359375 193.48812866210938 204.23226928710938 212.4041748046875 182.61166381835938 197.9088897705078 C 199.08255004882812 185.6001434326172 218.595947265625 188.063232421875 233.5157928466797 186.8211669921875" stroke-width="2.0" fill="none" stroke="rgb(0, 0, 0)" stroke-opacity="1" stroke-linecap="round" stroke-linejoin="round"/>
    <path d="M 15.909090042114258 161.3794403076172 C 0.5366592407226562 152.98341369628906 -38.17422103881836 161.14439392089844 -1.483890175819397 141.614990234375 C 3.295621871948242 150.03424072265625 -1.4826273918151855 165.07171630859375 -10.235636711120605 139.2035675048828 C 3.8029286861419678 122.26606750488281 -17.167285919189453 126.42033386230469 7.941099643707275 123.26387786865234" stroke-width="2.0" fill="none" stroke="rgb(0, 0, 0)" stroke-opacity="1" stroke-linecap="round" stroke-linejoin="round"/>
    <path d="M 198.3539276123047 75.12395477294922 C 206.99935913085938 115.59607696533203 204.28363037109375 99.02058410644531 207.10818481445312 77.19306182861328" stroke-width="2.0" fill="none" stroke="rgb(0, 0, 0)" stroke-opacity="1" stroke-linecap="round" stroke-linejoin="round"/>
    <path d="M 11.556320190429688 236.9730224609375 C 11.131304740905762 196.57485961914062 21.257604598999023 200.79217529296875 52.863365173339844 207.7451629638672" stroke-width="2.0" fill="none" stroke="rgb(0, 0, 0)" stroke-opacity="1" stroke-linecap="round" stroke-linejoin="round"/>
    <path d="M 134.14561462402344 24.50958824157715 C 145.33047485351562 6.530852317810059 129.71226501464844 61.0594596862793 144.37229919433594 17.10250473022461 C 142.0015411376953 68.49706268310547 153.28683471679688 54.046058654785156 165.43975830078125 71.00700378417969" stroke-width="2.0" fill="none" stroke="rgb(0, 0, 0)" stroke-opacity="1" stroke-linecap="round" stroke-linejoin="round"/>
    <path d="M 24.229276657104492 -6.985373020172119 C 32.50164794921875 -11.745818138122559 11.892083168029785 -6.195186138153076 16.36026382446289 -12.059993743896484 C 32.50336837768555 -12.561910629272461 53.74927520751953 -4.458596706390381 32.08382797241211 13.147086143493652" stroke-width="2.0" fill="none" stroke="rgb(0, 0, 0)" stroke-opacity="1" stroke-linecap="round" stroke-linejoin="round"/>
    <path d="M 48.546939849853516 74.39299774169922 C 22.211593627929688 97.23590087890625 56.88515853881836 108.29898071289062 55.44557189941406 74.30390930175781" stroke-width="2.0" fill="none" stroke="rgb(0, 0, 0)" stroke-opacity="1" stroke-linecap="round" stroke-linejoin="round"/>
    <path d="M 118.64286804199219 71.07122039794922 C 113.82195281982422 79.72669982910156 75.0362319946289 66.40081787109375 100.10452270507812 84.79380798339844" stroke-width="2.0" fill="none" stroke="rgb(0, 0, 0)" stroke-opacity="1" stroke-linecap="round" stroke-linejoin="round"/>
    <path d="M 125.86687469482422 22.958648681640625 C 129.0352020263672 59.40812683105469 106.53244018554688 53.780921936035156 105.67558288574219 42.36631393432617 C 99.83602905273438 56.56998062133789 91.89640045166016 66.16971588134766 92.31459045410156 49.50494384765625" stroke-width="2.0" fill="none" stroke="rgb(0, 0, 0)" stroke-opacity="1" stroke-linecap="round" stroke-linejoin="round"/>
    <path d="M 61.08702850341797 91.49162292480469 C 65.05626678466797 54.749671936035156 86.26071166992188 68.89134979248047 79.41110229492188 49.421993255615234" stroke-width="2.0" fill="none" stroke="rgb(0, 0, 0)" stroke-opacity="1" stroke-linecap="round" stroke-linejoin="round"/>
    <path d="M 121.73546600341797 99.4127197265625 C 114.1700210571289 82.85295867919922 136.2244415283203 105.49868774414062 123.34687805175781 76.12116241455078 C 135.22921752929688 70.40203857421875 125.2322769165039 75.34323120117188 129.43960571289062 77.17264556884766" stroke-width="2.0" fill="none" stroke="rgb(0, 0, 0)" stroke-opacity="1" stroke-linecap="round" stroke-linejoin="round"/>
    <path d="M 206.62086486816406 10.679729461669922 C 204.2068328857422 8.066682815551758 190.2513885498047 40.29472732543945 213.31097412109375 26.588666915893555" stroke-width="2.0" fill="none" stroke="rgb(0, 0, 0)" stroke-opacity="1" stroke-linecap="round" stroke-linejoin="round"/>
    <path d="M 80.00765228271484 183.83230590820312 C 127.83924102783203 200.88185119628906 94.87522888183594 201.41058349609375 74.08396911621094 185.0098876953125 C 98.18570709228516 192.15406799316406 125.51949310302734 214.6049041748047 149.49684143066406 183.03448486328125" stroke-width="2.0" fill="none" stroke="rgb(0, 0, 0)" stroke-opacity="1" stroke-linecap="round" stroke-linejoin="round"/>
    <path d="M 136.93417358398438 40.73530197143555 C 138.42637634277344 71.13742065429688 125.99475860595703 69.0830307006836 122.24211120605469 79.47810363769531 C 145.70608520507812 45.36681365966797 139.70687866210938 67.90848541259766 134.45852661132812 43.3123664855957" stroke-width="2.0" fill="none" stroke="rgb(0, 0, 0)" stroke-opacity="1" stroke-linecap="round" stroke-linejoin="round"/>
    <path d="M 192.76730346679688 78.29823303222656 C 213.87042236328125 98.70465850830078 168.0607452392578 101.19524383544922 198.9579315185547 81.59254455566406" stroke-width="2.0" fill="none" stroke="rgb(0, 0, 0)" stroke-opacity="1" stroke-linecap="round" stroke-linejoin="round"/>
    <path d="M 40.2852783203125 167.739990234375 C 23.83235740661621 186.946044921875 65.93325805664062 193.83602905273438 55.76694869995117 167.66943359375 C 24.834365844726562 178.44131469726562 53.02323532104492 198.02919006347656 37.804012298583984 185.50247192382812" stroke-width="2.0" fill="none" stroke="rgb(0, 0, 0)" stroke-opacity="1" stroke-linecap="round" stroke-linejoin="round"/>
    <path d="M 196.5978240966797 135.7405242919922 C 199.85816955566406 163.56797790527344 191.01669311523438 183.30624389648438 181.379150390625 167.71533203125 C 182.21531677246094 188.9215087890625 179.8994598388672 178.97161865234375 178.55686950683594 135.01812744140625" stroke-width="2.0" fill="none" stroke="rgb(0, 0, 0)" stroke-opacity="1" stroke-linecap="round" stroke-linejoin="round"/>
    <path d="M 173.0546417236328 173.22540283203125 C 178.74639892578125 155.34552001953125 190.47691345214844 174.51132202148438 174.73391723632812 185.56622314453125 C 184.9907684326172 204.26736450195312 230.50794982910156 189.57969665527344 196.34767150878906 183.67799377441406 C 208.78614807128906 159.20455932617188 181.9193115234375 162.85215759277344 185.92596435546875 193.01052856445312" stroke-width="2.0" fill="none" stroke="rgb(0, 0, 0)" stroke-opacity="1" stroke-linecap="round" stroke-linejoin="round"/>
    <path d="M 28.83233070373535 122.91436767578125 C 11.107460021972656 114.74449920654297 35.654693603515625 114.48648834228516 40.03839874267578 132.19383239746094 C 33.53007507324219 122.76313781738281 14.009968757629395 145.8101043701172 36.263248443603516 112.92938232421875" stroke-width="2.0" fill="none" stroke="rgb(0, 0, 0)" stroke-opacity="1" stroke-linecap="round" stroke-linejoin="round"/>
    <path d="M 108.19303894042969 123.73333740234375 C 125.59711456298828 109.14494323730469 107.5168685913086 95.43651580810547 117.11339569091797 125.52352142333984" stroke-width="2.0" fill="none" stroke="rgb(0, 0, 0)" stroke-opacity="1" stroke-linecap="round" stroke-linejoin="round"/>
    <path d="M 25.230880737304688 113.98330688476562 C 20.3996524810791 139.17283630371094 63.18245315551758 121.37625885009766 20.040544509887695 111.618896484375 C 14.376651763916016 136.83628845214844 19.39183807373047 129.38978576660156 21.162296295166016 104.11834716796875" stroke-width="2.0" fill="none" stroke="rgb(0, 0, 0)" stroke-opacity="1" stroke-linecap="round" stroke-linejoin="round"/>
    <path d="M 181.97996520996094 154.9702911376953 C 183.39573669433594 168.55885314941406 133.14862060546875 169.58956909179688 120.69641876220703 172.0999298095703 C 174.82276916503906 178.38455200195312 160.7977294921875 150.44058227539062 166.267822265625 177.7010040283203" stroke-width="2.0" fill="none" stroke="rgb(0, 0, 0)" stroke-opacity="1" stroke-linecap="round" stroke-linejoin="round"/>
    <path d="M 76.04117584228516 206.623291015625 C 34.21621322631836 224.2226104736328 46.90592956542969 211.92259216308594 90.93183135986328 222.3025665283203 C 73.74531555175781 221.07127380371094 62.07244110107422 226.73350524902344 93.63014221191406 222.30650329589844 C 55.57402038574219 209.08189392089844 62.58219528198242 177.1959686279297 85.46703338623047 178.95606994628906" stroke-width="2.0" fill="none" stroke="rgb(0, 0, 0)" stroke-opacity="1" stroke-linecap="round" stroke-linejoin="round"/>
    <path d="M 109.2845230102539 188.87315368652344 C 86.12657928466797 176.02566528320312 132.3306884765625 215.04977416992188 122.35792541503906 186.45709228515625 C 114.40361022949219 177.9462432861328 126.72683715820312 207.38433837890625 126.97891235351562 182.50704956054688" stroke-width="2.0" fill="none" stroke="rgb(0, 0, 0)" stroke-opacity="1" stroke-linecap="round" stroke-linejoin="round"/>
    <path d="M 195.94708251953125 194.37298583984375 C 198.67080688476562 176.4869842529297 200.97100830078125 175.4436492919922 221.28648376464844 196.2770233154297 C 185.38734436035156 194.2543182373047 202.42652893066406 193.38719177246094 215.11944580078125 162.4969024658203" stroke-width="2.0" fill="none" stroke="rgb(0, 0, 0)" stroke-opacity="1" stroke-linecap="round" stroke-linejoin="round"/>
    <path d="M 50.516048431396484 187.70103454589844 C 48.97183609008789 156.20211791992188 67.98854064941406 169.3715057373047 26.940351486206055 161.971435546875" stroke-width="2.0" fill="none" stroke="rgb(0, 0, 0)" stroke-opacity="1" stroke-linecap="round" stroke-linejoin="round"/>
    <path d="M 125.65867614746094 61.27376937866211 C 129.88690185546875 53.372352600097656 121.92219543457031 64.32103729248047 128.16529846191406 58.44272232055664" stroke-width="2.0" fill="none" stroke="rgb(0, 0, 0)" stroke-opacity="1" stroke-linecap="round" stroke-linejoin="round"/>
    <path d="M 12.684815406799316 51.934410095214844 C 10.615548133850098 -14.401853561401367 19.939228057861328 51.69219207763672 5.3295392990112305 54.022708892822266" stroke-width="2.0" fill="none" stroke="rgb(0, 0, 0)" stroke-opacity="1" stroke-linecap="round" stroke-linejoin="round"/>
    <path d="M 46.661842346191406 35.7425537109375 C 39.82408905029297 -13.225428581237793 26.870468139648438 13.08303165435791 36.98850631713867 41.20534896850586 C 25.937501907348633 59.451148986816406 20.58134651184082 74.36601257324219 39.50273132324219 43.061763763427734 C 45.084754943847656 40.75922775268555 28.05575942993164 64.30339050292969 29.485122680664062 61.199127197265625" stroke-width="2.0" fill="none" stroke="rgb(0, 0, 0)" stroke-opacity="1" stroke-linecap="round" stroke-linejoin="round"/>
    <path d="M 180.76046752929688 130.87274169921875 C 179.0732879638672 171.7657928466797 174.5782928466797 131.4282684326172 177.67599487304688 131.5384979248047 C 183.8368377685547 197.85574340820312 164.2733612060547 185.9187774658203 169.11273193359375 141.36569213867188" stroke-width="2.0" fill="none" stroke="rgb(0, 0, 0)" stroke-opacity="1" stroke-linecap="round" stroke-linejoin="round"/>
    <path d="M 29.657852172851562 16.37856101989746 C 33.747962951660156 43.31438446044922 19.24371337890625 66.94821166992188 17.62181854248047 48.060455322265625 C 18.978105545043945 -6.916534900665283 24.93448257446289 21.320083618164062 14.12531566619873 52.850887298583984 C 7.005402088165283 -2.0538718700408936 18.41653823852539 21.189403533935547 12.440030097961426 23.082551956176758" stroke-width="2.0" fill="none" stroke="rgb(0, 0, 0)" stroke-opacity="1" stroke-linecap="round" stroke-linejoin="round"/>
    <path d="M 176.91322326660156 7.37456750869751 C 193.3714141845703 25.954397201538086 207.82345581054688 19.589265823364258 185.95103454589844 2.866687774658203" stroke-width="2.0" fill="none" stroke="rgb(0, 0, 0)" stroke-opacity="1" stroke-linecap="round" stroke-linejoin="round"/>
    <path d="M 123.89586639404297 125.36408996582031 C 110.4540786743164 120.55220031738281 108.93380737304688 111.0740966796875 91.72425842285156 107.62033081054688 C 96.927001953125 126.02070617675781 96.91605377197266 97.92684936523438 104.41722869873047 106.58467102050781" stroke-width="2.0" fill="none" stroke="rgb(0, 0, 0)" stroke-opacity="1" stroke-linecap="round" stroke-linejoin="round"/>
    <path d="M 112.89979553222656 181.59317016601562 C 124.15399932861328 166.23521423339844 100.4996337890625 160.2937469482422 99.55020904541016 152.27786254882812 C 95.20396423339844 162.37596130371094 83.82589721679688 167.28135681152344 101.22219848632812 180.48568725585938" stroke-width="2.0" fill="none" stroke="rgb(0, 0, 0)" stroke-opacity="1" stroke-linecap="round" stroke-linejoin="round"/>
    <path d="M 169.78005981445312 63.49925994873047 C 155.09173583984375 57.074493408203125 159.09738159179688 18.552452087402344 178.72007751464844 49.732975006103516 C 191.57850646972656 36.73845672607422 176.1015167236328 77.69234466552734 184.94952392578125 53.99153518676758 C 166.8575439453125 48.86283493041992 162.56077575683594 41.41814041137695 164.15499877929688 52.50743865966797" stroke-width="2.0" fill="none" stroke="rgb(0, 0, 0)" stroke-opacity="1" stroke-linecap="round" stroke-linejoin="round"/>
    <path d="M -1.1739766597747803 126.42524719238281 C 41.711002349853516 143.08303833007812 34.912540435791016 222.55120849609375 17.82402801513672 182.63003540039062 C 11.754497528076172 138.48562622070312 14.365086555480957 169.0086212158203 7.9903178215026855 172.79209899902344 C -31.96738052368164 176.68382263183594 -20.77375602722168 192.4130859375 -6.509373664855957 186.92965698242188" stroke-width="2.0" fill="none" stroke="rgb(0, 0, 0)" stroke-opacity="1" stroke-linecap="round" stroke-linejoin="round"/>
    <path d="M 19.14252281188965 130.275634765625 C 37.524436950683594 92.8924331665039 24.640554428100586 107.06702423095703 11.027898788452148 129.09523010253906 C 13.614200592041016 97.2716293334961 14.190323829650879 132.19020080566406 -6.529427528381348 119.23352813720703" stroke-width="2.0" fill="none" stroke="rgb(0, 0, 0)" stroke-opacity="1" stroke-linecap="round" stroke-linejoin="round"/>
    <path d="M 226.66238403320312 43.624244689941406 C 213.50938415527344 73.99102783203125 222.57818603515625 60.49298858642578 228.22288513183594 52.0352668762207 C 235.72242736816406 77.02288818359375 207.476806640625 66.90067291259766 217.16575622558594 15.549522399902344" stroke-width="2.0" fill="none" stroke="rgb(0, 0, 0)" stroke-opacity="1" stroke-linecap="round" stroke-linejoin="round"/>
    <path d="M 107.00025939941406 210.9165802001953 C 163.46572875976562 222.43328857421875 78.08081817626953 212.5144805908203 94.92928314208984 218.32752990722656 C 142.80584716796875 224.34161376953125 106.06229400634766 232.15957641601562 69.97335815429688 213.9086456298828" stroke-width="2.0" fill="none" stroke="rgb(0, 0, 0)" stroke-opacity="1" stroke-linecap="round" stroke-linejoin="round"/>
    <path d="M 73.99207305908203 140.2385711669922 C 69.60945892333984 149.2531280517578 36.886016845703125 139.9700927734375 51.45957565307617 156.9576416015625 C 46.59024429321289 145.81690979003906 44.751502990722656 106.53778076171875 55.570838928222656 123.889404296875" stroke-width="2.0" fill="none" stroke="rgb(0, 0, 0)" stroke-opacity="1" stroke-linecap="round" stroke-linejoin="round"/>
    <path d="M 139.35693359375 236.98519897460938 C 141.32847595214844 206.54747009277344 130.98924255371094 196.0908966064453 171.6817169189453 195.6651611328125" stroke-width="2.0" fill="none" stroke="rgb(0, 0, 0)" stroke-opacity="1" stroke-linecap="round" stroke-linejoin="round"/>
    <path d="M 130.9265594482422 112.6567153930664 C 179.86907958984375 104.11310577392578 137.5101318359375 121.81767272949219 140.17486572265625 104.37049865722656" stroke-width="2.0" fill="none" stroke="rgb(0, 0, 0)" stroke-opacity="1" stroke-linecap="round" stroke-linejoin="round"/>
    <path d="M 197.47679138183594 168.11358642578125 C 196.7654266357422 172.48355102539062 187.6920623779297 112.29631042480469 194.3158416748047 144.5520477294922" stroke-width="2.0" fill="none" stroke="rgb(0, 0, 0)" stroke-opacity="1" stroke-linecap="round" stroke-linejoin="round"/>
    <path d="M 230.68344116210938 224.20570373535156 C 220.29983520507812 211.55625915527344 220.6798858642578 202.44903564453125 225.94090270996094 192.68624877929688" stroke-width="2.0" fill="none" stroke="rgb(0, 0, 0)" stroke-opacity="1" stroke-linecap="round" stroke-linejoin="round"/>
    <path d="M 171.96096801757812 41.145877838134766 C 166.04705810546875 76.27596282958984 166.38665771484375 65.63040924072266 161.61856079101562 21.665542602539062 C 158.86343383789062 26.118200302124023 164.0559844970703 20.3449764251709 160.13014221191406 15.053091049194336 C 161.69911193847656 51.86384963989258 159.66860961914062 22.038286209106445 156.42422485351562 13.234241485595703" stroke-width="2.0" fill="none" stroke="rgb(0, 0, 0)" stroke-opacity="1" stroke-linecap="round" stroke-linejoin="round"/>
    <path d="M 72.57360076904297 214.03585815429688 C 97.35822296142578 228.01248168945312 64.64470672607422 212.68878173828125 66.01152038574219 217.7239532470703" stroke-width="2.0" fill="none" stroke="rgb(0, 0, 0)" stroke-opacity="1" stroke-linecap="round" stroke-linejoin="round"/>
    <path d="M 43.827659606933594 73.25505065917969 C 60.707855224609375 76.56082153320312 82.6616439819336 70.93791198730469 63.079978942871094 80.46342468261719 C 28.93345832824707 99.24395751953125 33.69001770019531 62.500946044921875 51.72085952758789 79.3818359375 C 51.93979263305664 92.56404113769531 23.635150909423828 99.47557830810547 59.636539459228516 98.35370635986328" stroke-width="2.0" fill="none" stroke="rgb(0, 0, 0)" stroke-opacity="1" stroke-linecap="round" stroke-linejoin="round"/>
    <path d="M 13.264341354370117 162.0010986328125 C -23.132369995117188 157.16209411621094 12.142661094665527 150.4151153564453 15.495288848876953 161.49383544921875 C 15.343273162841797 163.4809112548828 -35.9405517578125 159.5166778564453 16.772001266479492 165.24363708496094 C 19.956056594848633 147.32286071777344 -3.4519333839416504 143.3419189453125 -15.292038917541504 154.85861206054688" stroke-width="2.0" fill="none" stroke="rgb(0, 0, 0)" stroke-opacity="1" stroke-linecap="round" stroke-linejoin="round"/>
    <path d="M 28.537551879882812 210.51133728027344 C 60.446044921875 210.00543212890625 73.08860778808594 209.65408325195312 67.74268341064453 200.46888732910156 C 68.94578552246094 208.9244842529297 51.14210891723633 214.0941162109375 49.746482849121094 199.66419982910156" stroke-width="2.0" fill="none" stroke="rgb(0, 0, 0)" stroke-opacity="1" stroke-linecap="round" stroke-linejoin="round"/>
    <path d="M 53.66918182373047 62.48835372924805 C 45.7169303894043 51.52622985839844 40.51237869262695 61.984718322753906 35.06572341918945 54.36066818237305 C 33.151763916015625 67.74365234375 49.91548538208008 48.46609878540039 36.450748443603516 52.34956359863281 C 63.91195297241211 74.97294616699219 21.701251983642578 56.741085052490234 51.8411750793457 60.85517501831055" stroke-width="2.0" fill="none" stroke="rgb(0, 0, 0)" stroke-opacity="1" stroke-linecap="round" stroke-linejoin="round"/>
    <path d="M 173.87696838378906 206.37789916992188 C 184.5086669921875 218.6952362060547 168.62149047851562 229.2760009765625 187.0395050048828 209.57884216308594 C 169.375732421875 220.8626708984375 187.12046813964844 218.2857666015625 173.5267333984375 204.50698852539062" stroke-width="2.0" fill="none" stroke="rgb(0, 0, 0)" stroke-opacity="1" stroke-linecap="round" stroke-linejoin="round"/>
    <path d="M 23.327781677246094 124.40568542480469 C 41.42181396484375 160.1722869873047 35.49504852294922 113.12164306640625 32.14543914794922 120.16885375976562 C 35.470584869384766 114.77876281738281 31.20293617248535 100.58362579345703 28.71244239807129 120.16719818115234 C 27.757247924804688 102.2603988647461 49.379093170166016 100.67293548583984 37.27787399291992 136.35093688964844" stroke-width="2.0" fill="none" stroke="rgb(0, 0, 0)" stroke-opacity="1" stroke-linecap="round" stroke-linejoin="round"/>
    <path d="M 219.30381774902344 124.18169403076172 C 237.2926788330078 125.7803726196289 229.06747436523438 137.55419921875 224.97967529296875 121.04163360595703 C 213.24354553222656 145.61453247070312 227.57424926757812 165.2080535888672 233.39895629882812 148.47560119628906" stroke-width="2.0" fill="none" stroke="rgb(0, 0, 0)" stroke-opacity="1" stroke-linecap="round" stroke-linejoin="round"/>
    <path d="M 181.56338500976562 65.54019927978516 C 179.52325439453125 78.10906982421875 199.47833251953125 54.094322204589844 167.45518493652344 54.12334442138672" stroke-width="2.0" fill="none" stroke="rgb(0, 0, 0)" stroke-opacity="1" stroke-linecap="round" stroke-linejoin="round"/>
    <path d="M 122.61302185058594 180.87631225585938 C 132.01072692871094 201.73793029785156 114.37422943115234 200.31576538085938 78.95520782470703 179.1961669921875 C 93.01716613769531 173.15142822265625 81.427734375 179.46815490722656 77.39224243164062 180.03753662109375 C 77.3483657836914 216.50509643554688 63.601112365722656 219.66432189941406 80.167236328125 189.1212615966797" stroke-width="2.0" fill="none" stroke="rgb(0, 0, 0)" stroke-opacity="1" stroke-linecap="round" stroke-linejoin="round"/>
    <path d="M 208.76153564453125 -6.658448219299316 C 207.7833709716797 -10.755339622497559 215.07785034179688 -2.0982537269592285 218.89349365234375 -10.560111999511719" stroke-width="2.0" fill="none" stroke="rgb(0, 0, 0)" stroke-opacity="1" stroke-linecap="round" stroke-linejoin="round"/>
    <path d="M 56.094886779785156 32.05658721923828 C 53.41207504272461 43.854339599609375 50.78705978393555 13.433603286743164 44.2336540222168 18.503116607666016" stroke-width="2.0" fill="none" stroke="rgb(0, 0, 0)" stroke-opacity="1" stroke-linecap="round" stroke-linejoin="round"/>
    <path d="M 57.97215270996094 145.05648803710938 C 27.962127685546875 151.62379455566406 21.07518196105957 140.88201904296875 11.42361068725586 123.93668365478516 C 8.70812702178955 125.93851470947266 20.757265090942383 145.60963439941406 40.508705139160156 141.3288116455078" stroke-width="2.0" fill="none" stroke="rgb(0, 0, 0)" stroke-opacity="1" stroke-linecap="round" stroke-linejoin="round"/>
    <path d="M 212.10781860351562 136.1272430419922 C 208.1676025390625 118.29446411132812 205.52854919433594 170.73867797851562 203.63185119628906 130.51773071289062 C 246.1930389404297 107.1546859741211 236.46714782714844 110.05968475341797 184.84202575683594 124.8598861694336 C 180.0508270263672 175.69021606445312 180.44898986816406 170.22705078125 206.6193084716797 169.0156707763672" stroke-width="2.0" fill="none" stroke="rgb(0, 0, 0)" stroke-opacity="1" stroke-linecap="round" stroke-linejoin="round"/>
    <path d="M 66.23281860351562 83.25289154052734 C 28.382356643676758 72.60765075683594 40.02975845336914 84.1859359741211 55.67483901977539 78.99571228027344 C 63.91548156738281 88.77486419677734 69.15071105957031 87.22959899902344 54.76567840576172 71.27128601074219" stroke-width="2.0" fill="none" stroke="rgb(0, 0, 0)" stroke-opacity="1" stroke-linecap="round" stroke-linejoin="round"/>
    <path d="M 98.03205871582031 76.53536987304688 C 64.75520324707031 86.57491302490234 116.88243865966797 80.43827056884766 94.03190612792969 80.01335906982422" stroke-width="2.0" fill="none" stroke="rgb(0, 0, 0)" stroke-opacity="1" stroke-linecap="round" stroke-linejoin="round"/>
    <path d="M 63.20117950439453 211.70152282714844 C 17.642688751220703 214.28794860839844 14.424617767333984 194.3708038330078 13.912208557128906 183.15036010742188 C 14.304430961608887 149.09158325195312 4.593680381774902 192.28375244140625 -1.3039764165878296 163.0613555908203 C 23.31165313720703 173.9324951171875 14.104390144348145 144.03245544433594 19.368619918823242 183.8665771484375" stroke-width="2.0" fill="none" stroke="rgb(0, 0, 0)" stroke-opacity="1" stroke-linecap="round" stroke-linejoin="round"/>
    <path d="M 194.8910675048828 181.06517028808594 C 214.94891357421875 164.74359130859375 208.7739715576172 185.04090881347656 215.08131408691406 194.58497619628906" stroke-width="2.0" fill="none" stroke="rgb(0, 0, 0)" stroke-opacity="1" stroke-linecap="round" stroke-linejoin="round"/>
    <path d="M 52.68150329589844 124.80616760253906 C 84.9301528930664 130.30604553222656 84.8665542602539 130.93028259277344 46.23796844482422 128.7113800048828 C 90.58615112304688 116.30706024169922 73.44535827636719 141.89566040039062 77.08578491210938 158.59979248046875 C 62.46674346923828 158.53375244140625 50.48951721191406 162.3227996826172 60.08454132080078 136.762939453125" stroke-width="2.0" fill="none" stroke="rgb(0, 0, 0)" stroke-opacity="1" stroke-linecap="round" stroke-linejoin="round"/>
    <path d="M 202.6201934814453 66.4382553100586 C 198.58900451660156 15.304875373840332 209.1283416748047 38.29342269897461 183.1204376220703 35.121944427490234" stroke-width="2.0" fill="none" stroke="rgb(0, 0, 0)" stroke-opacity="1" stroke-linecap="round" stroke-linejoin="round"/>
    <path d="M 35.41355895996094 101.1406478881836 C 15.604421615600586 94.87971496582031 17.33449935913086 91.61869812011719 29.177282333374023 95.27647399902344 C 30.643110275268555 56.84789276123047 34.48795700073242 79.21491241455078 26.107933044433594 65.11978149414062" stroke-width="2.0" fill="none" stroke="rgb(0, 0, 0)" stroke-opacity="1" stroke-linecap="round" stroke-linejoin="round"/>
    <path d="M 131.70895385742188 208.17242431640625 C 130.4338836669922 246.92501831054688 133.62924194335938 252.6346893310547 129.22523498535156 263.49951171875 C 129.5415802001953 228.09051513671875 131.2571258544922 206.06802368164062 131.2238006591797 206.46498107910156 C 129.41102600097656 209.17022705078125 141.63125610351562 194.08203125 166.7593231201172 188.05233764648438" stroke-width="2.0" fill="none" stroke="rgb(0, 0, 0)" stroke-opacity="1" stroke-linecap="round" stroke-linejoin="round"/>
    <path d="M 18.522050857543945 196.95025634765625 C 52.28840255737305 197.1231689453125 56.41176986694336 201.08340454101562 43.30534362792969 198.43495178222656 C 61.52975845336914 198.24720764160156 60.65167999267578 187.89642333984375 49.23837661743164 201.0540313720703 C 40.92208480834961 196.64007568359375 47.772525787353516 197.7190704345703 60.946136474609375 195.20372009277344" stroke-width="2.0" fill="none" stroke="rgb(0, 0, 0)" stroke-opacity="1" stroke-linecap="round" stroke-linejoin="round"/>
    <path d="M 174.1732635498047 7.389016151428223 C 151.3522186279297 13.036420822143555 155.13626098632812 -1.508711814880371 154.49282836914062 -16.82849884033203 C 153.74473571777344 13.541305541992188 149.33615112304688 18.34634017944336 105.77043151855469 15.55893611907959" stroke-width="2.0" fill="none" stroke="rgb(0, 0, 0)" stroke-opacity="1" stroke-linecap="round" stroke-linejoin="round"/>
    <path d="M 42.195960998535156 0.7684471607208252 C 66.45082092285156 13.89420223236084 88.13336944580078 -3.522371530532837 97.51124572753906 -15.032814979553223 C 62.20628356933594 -9.110392570495605 57.75344467163086 -20.231740951538086 46.99277114868164 -29.2216739654541 C 43.77793884277344 -25.82750701904297 43.61444854736328 -30.93046760559082 49.05807113647461 -37.992950439453125" stroke-width="2.0" fill="none" stroke="rgb(0, 0, 0)" stroke-opacity="1" stroke-linecap="round" stroke-linejoin="round"/>
    <path d="M 39.55384826660156 143.21658325195312 C 64.30069732666016 163.2935333251953 95.99104309082031 147.87379455566406 59.83552932739258 149.86216735839844 C 37.73844909667969 119.60885620117188 74.805419921875 150.2123565673828 76.7929916381836 159.34326171875 C 16.378416061401367 157.3536376953125 32.30403518676758 150.98483276367188 10.169772148132324 133.09422302246094" stroke-width="2.0" fill="none" stroke="rgb(0, 0, 0)" stroke-opacity="1" stroke-linecap="round" stroke-linejoin="round"/>
    <path d="M 86.53484344482422 115.51874542236328 C 109.6865005493164 139.04051208496094 94.15929412841797 124.15469360351562 101.12120819091797 147.1995086669922 C 96.3945083618164 151.84756469726562 106.65467834472656 104.1691665649414 102.92259979248047 152.61871337890625" stroke-width="2.0" fill="none" stroke="rgb(0, 0, 0)" stroke-opacity="1" stroke-linecap="round" stroke-linejoin="round"/>
    <path d="M 179.6866912841797 151.479248046875 C 176.65380859375 165.48971557617188 181.7496337890625 150.3832244873047 180.89620971679688 126.26612854003906" stroke-width="2.0" fill="none" stroke="rgb(0, 0, 0)" stroke-opacity="1" stroke-linecap="round" stroke-linejoin="round"/>
    <path d="M 114.4207534790039 79.54795837402344 C 132.1255645751953 68.37413024902344 130.03834533691406 72.58304595947266 130.69908142089844 105.5257339477539" stroke-width="2.0" fill="none" stroke="rgb(0, 0, 0)" stroke-opacity="1" stroke-linecap="round" stroke-linejoin="round"/>
    <path d="M 205.4268798828125 129.1119384765625 C 233.30825805664062 121.33572387695312 235.32980346679688 112.69615173339844 216.20687866210938 126.22813415527344 C 231.57479858398438 123.4719467163086 220.1795654296875 116.3210220336914 226.9840087890625 138.2863311767578 C 225.8153076171875 94.26634216308594 217.97616577148438 94.38826751708984 223.40769958496094 112.14501953125" stroke-width="2.0" fill="none" stroke="rgb(0, 0, 0)" stroke-opacity="1" stroke-linecap="round" stroke-linejoin="round"/>
    <path d="M 202.9391632080078 100.96940612792969 C 190.05807495117188 122.53163146972656 155.794189453125 104.21410369873047 178.6356658935547 115.81648254394531" stroke-width="2.0" fill="none" stroke="rgb(0, 0, 0)" stroke-opacity="1" stroke-linecap="round" stroke-linejoin="round"/>
    <path d="M 218.8341064453125 12.3452787399292 C 191.8993377685547 16.016000747680664 200.4287567138672 -9.70068359375 204.70523071289062 -20.669530868530273 C 195.45034790039062 -26.833086013793945 201.0743865966797 -19.672019958496094 201.84579467773438 -27.870532989501953" stroke-width="2.0" fill="none" stroke="rgb(0, 0, 0)" stroke-opacity="1" stroke-linecap="round" stroke-linejoin="round"/>
    <path d="M 205.0232696533203 93.52754974365234 C 216.99717712402344 110.32340240478516 239.3560333251953 86.29979705810547 225.43519592285156 62.31376647949219 C 218.30140686035156 70.97550201416016 217.5157928466797 108.35263061523438 232.5909881591797 107.20265197753906" stroke-width="2.0" fill="none" stroke="rgb(0, 0, 0)" stroke-opacity="1" stroke-linecap="round" stroke-linejoin="round"/>
    <path d="M 101.90459442138672 105.07664489746094 C 85.28874969482422 111.36460876464844 105.97895812988281 107.24684143066406 100.79560852050781 87.30921936035156 C 101.14710235595703 102.14652252197266 92.55786895751953 108.86632537841797 91.00414276123047 112.91607666015625 C 97.59239196777344 129.2115936279297 106.01329040527344 101.832275390625 99.80277252197266 82.49702453613281" stroke-width="2.0" fill="none" stroke="rgb(0, 0, 0)" stroke-opacity="1" stroke-linecap="round" stroke-linejoin="round"/>
    <path d="M 45.604698181152344 170.22239685058594 C 56.35039520263672 199.7177276611328 32.347755432128906 176.07217407226562 55.60304641723633 175.52288818359375 C 16.719234466552734 156.07785034179688 23.53689956665039 144.9669952392578 31.67015266418457 190.6803436279297" stroke-width="2.0" fill="none" stroke="rgb(0, 0, 0)" stroke-opacity="1" stroke-linecap="round" stroke-linejoin="round"/>
    <path d="M 11.949301719665527 50.76051330566406 C -4.313645839691162 60.38422775268555 1.56696355342865 45.773502349853516 -1.9911112785339355 41.616024017333984" stroke-width="2.0" fill="none" stroke="rgb(0, 0, 0)" stroke-opacity="1" stroke-linecap="round" stroke-linejoin="round"/>
    <path d="M 33.78202438354492 100.80935668945312 C 97.70622253417969 107.70854187011719 60.21498107910156 86.1778793334961 91.24425506591797 75.66735076904297" stroke-width="2.0" fill="none" stroke="rgb(0, 0, 0)" stroke-opacity="1" stroke-linecap="round" stroke-linejoin="round"/>
    <path d="M 107.41349029541016 122.77533721923828 C 119.63658142089844 97.99072265625 110.63689422607422 114.31884002685547 119.4135513305664 114.57786560058594 C 126.36641693115234 103.9977035522461 141.11758422851562 99.92308807373047 152.24232482910156 113.76565551757812" stroke-width="2.0" fill="none" stroke="rgb(0, 0, 0)" stroke-opacity="1" stroke-linecap="round" stroke-linejoin="round"/>
    <path d="M 149.14036560058594 43.038909912109375 C 141.88494873046875 71.83403015136719 161.89585876464844 59.91230392456055 173.43316650390625 74.70246887207031 C 146.07598876953125 66.99925994873047 162.12977600097656 74.89649963378906 158.85369873046875 58.6278076171875" stroke-width="2.0" fill="none" stroke="rgb(0, 0, 0)" stroke-opacity="1" stroke-linecap="round" stroke-linejoin="round"/>
    <path d="M 180.2075958251953 126.17062377929688 C 151.34320068359375 102.94361114501953 174.2180938720703 111.0362777709961 168.62400817871094 78.37406921386719 C 163.68862915039062 82.75495147705078 169.31744384765625 102.7640609741211 177.51126098632812 102.55012512207031 C 173.9621124267578 99.96699523925781 191.5609588623047 68.0307388305664 193.3234100341797 100.69425201416016" stroke-width="2.0" fill="none" stroke="rgb(0, 0, 0)" stroke-opacity="1" stroke-linecap="round" stroke-linejoin="round"/>
    <path d="M 19.825153350830078 93.78794860839844 C 69.91328430175781 104.85833740234375 48.951942443847656 95.87893676757812 40.34645462036133 83.94146728515625 C 59.91007995605469 94.05980682373047 72.5 91.13224029541016 66.74765014648438 66.1618423461914" stroke-width="2.0" fill="none" stroke="rgb(0, 0, 0)" stroke-opacity="1" stroke-linecap="round" stroke-linejoin="round"/>
    <path d="M 187.2634735107422 213.66409301757812 C 215.7691650390625 212.08981323242188 218.69944763183594 232.2405548095703 210.4037322998047 214.79937744140625" stroke-width="2.0" fill="none" stroke="rgb(0, 0, 0)" stroke-opacity="1" stroke-linecap="round" stroke-linejoin="round"/>
    <path d="M 32.313968658447266 61.77242660522461 C 76.57221221923828 71.71190643310547 75.13578033447266 54.616207122802734 54.607234954833984 95.258544921875 C 31.80600357055664 66.28385162353516 43.657039642333984 73.68577575683594 44.0500373840332 71.77825164794922 C 36.93134689331055 121.35646057128906 52.0992546081543 83.32014465332031 48.41952896118164 93.29505920410156" stroke-width="2.0" fill="none" stroke="rgb(0, 0, 0)" stroke-opacity="1" stroke-linecap="round" stroke-linejoin="round"/>
    <path d="M 68.17205810546875 37.72577667236328 C 65.75729370117188 53.90757369995117 75.55429077148438 45.03635787963867 80.14903259277344 11.58639144897461" stroke-width="2.0" fill="none" stroke="rgb(0, 0, 0)" stroke-opacity="1" stroke-linecap="round" stroke-linejoin="round"/>
    <path d="M 37.96248245239258 72.99662780761719 C 94.99889373779297 74.32083129882812 55.178348541259766 68.96074676513672 67.31448364257812 68.18132781982422 C 98.01412963867188 69.0574722290039 106.94221496582031 32.8587532043457 102.34710693359375 58.74335479736328" stroke-width="2.0" fill="none" stroke="rgb(0, 0, 0)" stroke-opacity="1" stroke-linecap="round" stroke-linejoin="round"/>
    <path d="M 90.26461791992188 230.8346405029297 C 37.70577621459961 216.62741088867188 47.767276763916016 231.25439453125 82.70868682861328 219.7370147705078" stroke-width="2.0" fill="none" stroke="rgb(0, 0, 0)" stroke-opacity="1" stroke-linecap="round" stroke-linejoin="round"/>
    <path d="M 62.41281509399414 169.0285186767578 C 55.01406478881836 194.82244873046875 92.33272552490234 171.72390747070312 80.1242904663086 179.53746032714844 C 78.9879379272461 183.18760681152344 87.88105773925781 180.3129119873047 67.44483184814453 183.18157958984375" stroke-width="2.0" fill="none" stroke="rgb(0, 0, 0)" stroke-opacity="1" stroke-linecap="round" stroke-linejoin="round"/>
    <path d="M 182.5254669189453 57.088470458984375 C 203.26463317871094 71.5146713256836 156.36041259765625 83.25298309326172 153.5125732421875 64.93431854248047" stroke-width="2.0" fill="none" stroke="rgb(0, 0, 0)" stroke-opacity="1" stroke-linecap="round" stroke-linejoin="round"/>
    <path d="M 153.25509643554688 164.88478088378906 C 195.67105102539062 165.56500244140625 174.04217529296875 200.04393005371094 165.57669067382812 168.3075408935547 C 162.6191864013672 158.11964416503906 177.56886291503906 179.8741912841797 158.98333740234375 188.2621612548828" stroke-width="2.0" fill="none" stroke="rgb(0, 0, 0)" stroke-opacity="1" stroke-linecap="round" stroke-linejoin="round"/>
    <path d="M 100.61589813232422 43.38229751586914 C 101.5038833618164 54.4940071105957 77.4400405883789 57.27467727661133 79.77325439453125 50.250892639160156 C 77.3562240600586 54.38768768310547 94.47278594970703 48.91615295410156 89.9552993774414 40.05387878417969" stroke-width="2.0" fill="none" stroke="rgb(0, 0, 0)" stroke-opacity="1" stroke-linecap="round" stroke-linejoin="round"/>
    <path d="M 114.50657653808594 60.7399787902832 C 104.20223236083984 73.802978515625 126.71063995361328 75.35888671875 133.29298400878906 65.30311584472656 C 112.30595397949219 91.31590270996094 128.5328826904297 100.09521484375 130.09365844726562 63.6441535949707 C 141.7749786376953 74.61193084716797 148.77264404296875 80.69979095458984 135.84027099609375 101.88223266601562" stroke-width="2.0" fill="none" stroke="rgb(0, 0, 0)" stroke-opacity="1" stroke-linecap="round" stroke-linejoin="round"/>
    <path d="M 182.17153930664062 87.7908706665039 C 167.82635498046875 100.91677856445312 196.37171936035156 76.78152465820312 167.96768188476562 87.64933013916016" stroke-width="2.0" fill="none" stroke="rgb(0, 0, 0)" stroke-opacity="1" stroke-linecap="round" stroke-linejoin="round"/>
    <path d="M 91.91780090332031 91.93628692626953 C 96.79972839355469 103.30754089355469 65.32904815673828 106.14662170410156 100.34822082519531 93.05953216552734 C 82.35962677001953 107.99368286132812 91.87338256835938 128.95994567871094 49.08639907836914 123.1890640258789" stroke-width="2.0" fill="none" stroke="rgb(0, 0, 0)" stroke-opacity="1" stroke-linecap="round" stroke-linejoin="round"/>
    <path d="M 227.21636962890625 -7.557579517364502 C 220.92320251464844 20.302623748779297 223.5966033935547 6.420924663543701 187.0155487060547 14.069408416748047 C 206.52146911621094 -9.290938377380371 199.71092224121094 35.359375 193.038330078125 16.598764419555664 C 193.61366271972656 7.794658184051514 174.50660705566406 36.44502639770508 199.41839599609375 12.669933319091797" stroke-width="2.0" fill="none" stroke="rgb(0, 0, 0)" stroke-opacity="1" stroke-linecap="round" stroke-linejoin="round"/>
    <path d="M 86.36216735839844 127.33344268798828 C 93.0150375366211 147.6807098388672 85.26227569580078 155.18356323242188 84.89083099365234 131.15243530273438" stroke-width="2.0" fill="none" stroke="rgb(0, 0, 0)" stroke-opacity="1" stroke-linecap="round" stroke-linejoin="round"/>
    <path d="M 106.1070556640625 42.92703628540039 C 100.54744720458984 51.53211975097656 108.60191345214844 35.444862365722656 105.06580352783203 61.52714157104492 C 109.21331787109375 13.445647239685059 109.81897735595703 25.244552612304688 105.78935241699219 16.562843322753906 C 102.8697738647461 37.17356872558594 103.69884490966797 72.2109146118164 108.36984252929688 48.80680465698242" stroke-width="2.0" fill="none" stroke="rgb(0, 0, 0)" stroke-opacity="1" stroke-linecap="round" stroke-linejoin="round"/>
    <path d="M 127.64051055908203 47.317726135253906 C 125.14185333251953 61.86845016479492 125.56192016601562 28.879980087280273 120.21236419677734 50.555240631103516 C 123.34219360351562 62.454551696777344 113.38874053955078 52.16107177734375 124.79166412353516 44.724342346191406" stroke-width="2.0" fill="none" stroke="rgb(0, 0, 0)" stroke-opacity="1" stroke-linecap="round" stroke-linejoin="round"/>
    <path d="M 22.378910064697266 185.1291961669922 C 22.039995193481445 186.26820373535156 16.507410049438477 156.99880981445312 26.947723388671875 153.08143615722656 C 2.505915403366089 118.06787109375 0.011192560195922852 125.46726989746094 -10.2853422164917 157.811767578125 C -12.793087005615234 181.8961639404297 -10.766517639160156 187.89170837402344 -2.5580294132232666 181.04086303710938" stroke-width="2.0" fill="none" stroke="rgb(0, 0, 0)" stroke-opacity="1" stroke-linecap="round" stroke-linejoin="round"/>
    <path d="M 52.404815673828125 179.57107543945312 C 66.46693420410156 168.02194213867188 28.53026580810547 157.44593811035156 47.242515563964844 185.70587158203125" stroke-width="2.0" fill="none" stroke="rgb(0, 0, 0)" stroke-opacity="1" stroke-linecap="round" stroke-linejoin="round"/>
    <path d="M 63.27214813232422 33.919708251953125 C 62.03614044189453 -4.781512260437012 75.22940826416016 35.084136962890625 70.98381805419922 32.64688491821289 C 83.39157104492188 41.389503479003906 52.52152633666992 50.69181442260742 57.54020309448242 41.287418365478516" stroke-width="2.0" fill="none" stroke="rgb(0, 0, 0)" stroke-opacity="1" stroke-linecap="round" stroke-linejoin="round"/>
    <path d="M 228.8906707763672 53.5175666809082 C 237.1578826904297 50.964324951171875 219.35781860351562 72.22992706298828 203.15087890625 62.422237396240234 C 215.43795776367188 70.56663513183594 223.5054473876953 59.65928268432617 229.53305053710938 43.203033447265625" stroke-width="2.0" fill="none" stroke="rgb(0, 0, 0)" stroke-opacity="1" stroke-linecap="round" stroke-linejoin="round"/>
    <path d="M 82.97400665283203 98.26419067382812 C 112.98347473144531 89.22193145751953 93.93467712402344 99.98095703125 89.36221313476562 113.16256713867188 C 96.76456451416016 119.80711364746094 100.97187805175781 131.76675415039062 119.17061614990234 126.50989532470703" stroke-width="2.0" fill="none" stroke="rgb(0, 0, 0)" stroke-opacity="1" stroke-linecap="round" stroke-linejoin="round"/>
    <path d="M 128.0028839111328 173.20578002929688 C 92.81283569335938 161.3372039794922 170.95570373535156 178.5210723876953 146.8846893310547 165.07455444335938 C 107.49979400634766 170.55853271484375 121.95574951171875 160.23768615722656 121.86090850830078 136.66978454589844" stroke-width="2.0" fill="none" stroke="rgb(0, 0, 0)" stroke-opacity="1" stroke-linecap="round" stroke-linejoin="round"/>
    <path d="M 149.8245391845703 110.60365295410156 C 166.2367706298828 141.14263916015625 158.61004638671875 79.73976135253906 194.88539123535156 79.63886260986328 C 181.20851135253906 92.7400131225586 163.95779418945312 96.74566650390625 174.79034423828125 103.82575988769531" stroke-width="2.0" fill="none" stroke="rgb(0, 0, 0)" stroke-opacity="1" stroke-linecap="round" stroke-linejoin="round"/>
    <path d="M 51.67473602294922 63.68503189086914 C 54.311405181884766 45.14464569091797 49.855140686035156 73.41924285888672 42.17164611816406 47.132320404052734 C 26.115570068359375 60.8127555847168 64.01596069335938 57.53763198852539 26.888864517211914 61.2345085144043 C 35.08757019042969 67.3045883178711 50.72686767578125 67.91748046875 69.58682250976562 67.7240219116211" stroke-width="2.0" fill="none" stroke="rgb(0, 0, 0)" stroke-opacity="1" stroke-linecap="round" stroke-linejoin="round"/>
    <path d="M 111.06977081298828 19.17076873779297 C 94.72883605957031 9.035184860229492 100.01516723632812 8.682165145874023 88.61409759521484 -15.83307933807373 C 116.23509216308594 -11.236133575439453 108.61563873291016 -12.15427017211914 90.88549041748047 -8.643603324890137 C 75.82762145996094 7.937840938568115 100.73509216308594 10.279112815856934 92.05397033691406 28.39778709411621" stroke-width="2.0" fill="none" stroke="rgb(0, 0, 0)" stroke-opacity="1" stroke-linecap="round" stroke-linejoin="round"/>
    <path d="M 64.6314697265625 40.88484573364258 C 80.23082733154297 43.397735595703125 43.019474029541016 58.2723503112793 73.73058319091797 50.34065246582031" stroke-width="2.0" fill="none" stroke="rgb(0, 0, 0)" stroke-opacity="1" stroke-linecap="round" stroke-linejoin="round"/>
    <path d="M 185.86732482910156 69.78462219238281 C 173.8997344970703 78.77519989013672 146.63577270507812 60.23124313354492 163.7793731689453 75.16255950927734 C 154.34652709960938 35.467830657958984 163.86732482910156 41.6765022277832 184.15611267089844 40.966739654541016 C 145.53688049316406 30.511516571044922 177.47833251953125 44.52117919921875 175.07691955566406 57.1911506652832" stroke-width="2.0" fill="none" stroke="rgb(0, 0, 0)" stroke-opacity="1" stroke-linecap="round" stroke-linejoin="round"/>
    <path d="M 177.5714874267578 159.63031005859375 C 173.94744873046875 169.2061309814453 181.68148803710938 167.8473663330078 171.48719787597656 165.84786987304688 C 187.33108520507812 155.22491455078125 170.17666625976562 173.60653686523438 162.76644897460938 162.98509216308594 C 174.533935546875 157.5396728515625 175.82200622558594 130.31512451171875 168.7313995361328 154.03134155273438" stroke-width="2.0" fill="none" stroke="rgb(0, 0, 0)" stroke-opacity="1" stroke-linecap="round" stroke-linejoin="round"/>
    <path d="M 179.66978454589844 151.91632080078125 C 173.54547119140625 163.60833740234375 178.64797973632812 122.7911605834961 177.4710693359375 131.20040893554688 C 182.64688110351562 168.7338409423828 176.20608520507812 132.92604064941406 177.97198486328125 148.50328063964844" stroke-width="2.0" fill="none" stroke="rgb(0, 0, 0)" stroke-opacity="1" stroke-linecap="round" stroke-linejoin="round"/>
    <path d="M 91.03101348876953 39.19034194946289 C 95.98523712158203 19.441564559936523 86.59674835205078 15.607261657714844 89.27023315429688 23.184358596801758" stroke-width="2.0" fill="none" stroke="rgb(0, 0, 0)" stroke-opacity="1" stroke-linecap="round" stroke-linejoin="round"/>
    <path d="M 117.53710174560547 63.14897155761719 C 115.51214599609375 68.46041107177734 96.12908935546875 63.97746276855469 96.3711166381836 82.00733947753906" stroke-width="2.0" fill="none" stroke="rgb(0, 0, 0)" stroke-opacity="1" stroke-linecap="round" stroke-linejoin="round"/>
    <path d="M 143.4765625 14.879711151123047 C 120.39237976074219 15.544998168945312 147.2565155029297 17.053390502929688 150.2025604248047 11.002716064453125 C 162.1653594970703 33.06439208984375 141.37911987304688 44.349937438964844 171.48663330078125 58.80026626586914" stroke-width="2.0" fill="none" stroke="rgb(0, 0, 0)" stroke-opacity="1" stroke-linecap="round" stroke-linejoin="round"/>
    <path d="M 85.06453704833984 129.88473510742188 C 95.92965698242188 166.76962280273438 77.81282043457031 165.4512176513672 56.33315658569336 140.5662078857422" stroke-width="2.0" fill="none" stroke="rgb(0, 0, 0)" stroke-opacity="1" stroke-linecap="round" stroke-linejoin="round"/>
    <path d="M 101.4606704711914 115.93621063232422 C 106.88230895996094 101.98635864257812 97.30943298339844 67.42236328125 85.67762756347656 85.03307342529297" stroke-width="2.0" fill="none" stroke="rgb(0, 0, 0)" stroke-opacity="1" stroke-linecap="round" stroke-linejoin="round"/>
    <path d="M 80.12517547607422 89.92566680908203 C 83.0287857055664 75.86959075927734 98.8215560913086 72.2355728149414 110.43474578857422 76.66610717773438 C 112.55335235595703 121.62276458740234 116.49207305908203 117.62910461425781 114.22367095947266 91.78384399414062" stroke-width="2.0" fill="none" stroke="rgb(0, 0, 0)" stroke-opacity="1" stroke-linecap="round" stroke-linejoin="round"/>
    <path d="M 183.32818603515625 68.19261932373047 C 193.8726348876953 23.130659103393555 179.98275756835938 41.08066177368164 189.18907165527344 36.11587142944336 C 200.21066284179688 35.58296203613281 161.5228271484375 35.3608283996582 162.0752716064453 29.32503890991211" stroke-width="2.0" fill="none" stroke="rgb(0, 0, 0)" stroke-opacity="1" stroke-linecap="round" stroke-linejoin="round"/>
    <path d="M 115.97285461425781 155.031494140625 C 116.43704986572266 159.21131896972656 93.97004699707031 160.45623779296875 99.12126159667969 127.38937377929688 C 108.23758697509766 156.31919860839844 88.22661590576172 156.4252471923828 98.3098373413086 170.04737854003906 C 95.14934539794922 153.21957397460938 99.92704010009766 164.29574584960938 102.3318862915039 173.7918243408203" stroke-width="2.0" fill="none" stroke="rgb(0, 0, 0)" stroke-opacity="1" stroke-linecap="round" stroke-linejoin="round"/>
    <path d="M 94.54844665527344 -8.002021789550781 C 85.99869537353516 -16.1136474609375 77.9246597290039 -17.29256820678711 68.41303253173828 -8.271697044372559" stroke-width="2.0" fill="none" stroke="rgb(0, 0, 0)" stroke-opacity="1" stroke-linecap="round" stroke-linejoin="round"/>
    <path d="M 174.41160583496094 205.8079833984375 C 184.103271484375 204.04556274414062 116.40533447265625 211.4615936279297 149.93727111816406 204.70228576660156" stroke-width="2.0" fill="none" stroke="rgb(0, 0, 0)" stroke-opacity="1" stroke-linecap="round" stroke-linejoin="round"/>
    <path d="M 191.34617614746094 177.41587829589844 C 180.82382202148438 199.03823852539062 204.05517578125 186.381103515625 232.37001037597656 186.69183349609375 C 192.0179443359375 217.7333526611328 197.73655700683594 184.52792358398438 215.36512756347656 184.13787841796875" stroke-width="2.0" fill="none" stroke="rgb(0, 0, 0)" stroke-opacity="1" stroke-linecap="round" stroke-linejoin="round"/>
    <path d="M 227.3433074951172 25.52121925354004 C 240.889404296875 18.982080459594727 244.04656982421875 24.748641967773438 244.47088623046875 24.2874813079834 C 238.55111694335938 18.694927215576172 244.23312377929688 22.5500545501709 245.8029327392578 31.719207763671875 C 248.133056640625 30.73760986328125 252.1598663330078 29.24170684814453 263.0804443359375 20.644460678100586" stroke-width="2.0" fill="none" stroke="rgb(0, 0, 0)" stroke-opacity="1" stroke-linecap="round" stroke-linejoin="round"/>
    <path d="M 20.384199142456055 71.1158218383789 C 16.868635177612305 103.28289031982422 30.068145751953125 92.80046844482422 19.645204544067383 89.99808502197266" stroke-width="2.0" fill="none" stroke="rgb(0, 0, 0)" stroke-opacity="1" stroke-linecap="round" stroke-linejoin="round"/>
    <path d="M 92.423095703125 84.46444702148438 C 95.75175476074219 69.12602996826172 101.89954376220703 84.01671600341797 96.81549835205078 83.22879791259766 C 87.22502899169922 91.29434204101562 77.09898376464844 66.84104919433594 78.38480377197266 110.0404281616211" stroke-width="2.0" fill="none" stroke="rgb(0, 0, 0)" stroke-opacity="1" stroke-linecap="round" stroke-linejoin="round"/>
    <path d="M 171.3385009765625 159.6277618408203 C 141.95628356933594 178.24386596679688 153.72703552246094 128.7972412109375 153.55316162109375 144.78623962402344" stroke-width="2.0" fill="none" stroke="rgb(0, 0, 0)" stroke-opacity="1" stroke-linecap="round" stroke-linejoin="round"/>
    <path d="M 93.5083236694336 70.25199890136719 C 70.62564849853516 85.4250259399414 70.87796020507812 70.61522674560547 55.30866241455078 78.41465759277344 C 55.59160232543945 97.54833984375 84.86641693115234 92.0689926147461 37.34748458862305 94.38793182373047 C 66.35440063476562 101.56037902832031 85.60841369628906 85.1279067993164 62.94699478149414 71.09076690673828" stroke-width="2.0" fill="none" stroke="rgb(0, 0, 0)" stroke-opacity="1" stroke-linecap="round" stroke-linejoin="round"/>
    <path d="M 202.0690155029297 64.89423370361328 C 211.81802368164062 85.17428588867188 224.81546020507812 60.60183334350586 230.31031799316406 46.38893508911133 C 225.57916259765625 68.48664855957031 218.86212158203125 62.69075393676758 229.81747436523438 79.34741973876953 C 233.3870391845703 86.3451156616211 231.3004913330078 81.62771606445312 234.8092041015625 70.52867889404297" stroke-width="2.0" fill="none" stroke="rgb(0, 0, 0)" stroke-opacity="1" stroke-linecap="round" stroke-linejoin="round"/>
    <path d="M 177.86773681640625 12.885740280151367 C 187.00439453125 -21.474994659423828 207.20504760742188 -17.529407501220703 186.28482055664062 14.14554500579834 C 217.61273193359375 7.350966453552246 173.5275115966797 -9.835162162780762 184.8378143310547 19.063745498657227" stroke-width="2.0" fill="none" stroke="rgb(0, 0, 0)" stroke-opacity="1" stroke-linecap="round" stroke-linejoin="round"/>
    <path d="M 167.55345153808594 69.93135833740234 C 145.484130859375 49.55865478515625 148.46966552734375 48.73790740966797 142.0274658203125 62.409366607666016 C 156.67578125 91.496337890625 198.27296447753906 82.94374084472656 146.1357879638672 53.810577392578125 C 138.9356689453125 66.22734069824219 171.42318725585938 87.14208984375 167.53125 70.14306640625" stroke-width="2.0" fill="none" stroke="rgb(0, 0, 0)" stroke-opacity="1" stroke-linecap="round" stroke-linejoin="round"/>
    <path d="M 160.82958984375 150.45523071289062 C 157.8338165283203 147.69700622558594 162.72657775878906 145.6351776123047 160.9497528076172 149.95729064941406" stroke-width="2.0" fill="none" stroke="rgb(0, 0, 0)" stroke-opacity="1" stroke-linecap="round" stroke-linejoin="round"/>
    <path d="M 49.57933044433594 211.5416717529297 C 47.802852630615234 199.2145538330078 68.37567901611328 220.1144256591797 34.601707458496094 212.1873321533203 C 23.196678161621094 204.525634765625 6.381755828857422 212.19129943847656 33.694915771484375 192.75225830078125 C 26.228816986083984 186.97303771972656 22.908275604248047 192.95797729492188 56.78945541381836 200.76234436035156" stroke-width="2.0" fill="none" stroke="rgb(0, 0, 0)" stroke-opacity="1" stroke-linecap="round" stroke-linejoin="round"/>
    <path d="M 152.5131378173828 130.10009765625 C 181.7423553466797 98.7525405883789 151.6165771484375 80.8824691772461 182.2001190185547 81.50089263916016 C 155.65846252441406 90.50213623046875 171.91995239257812 88.14673614501953 186.69485473632812 96.64988708496094 C 172.40000915527344 105.6556625366211 185.59820556640625 110.85248565673828 177.7320556640625 86.08158111572266" stroke-width="2.0" fill="none" stroke="rgb(0, 0, 0)" stroke-opacity="1" stroke-linecap="round" stroke-linejoin="round"/>
    <path d="M 119.72332000732422 197.37660217285156 C 56.703224182128906 181.55783081054688 84.69491577148438 198.5192108154297 101.31383514404297 200.5696563720703 C 129.38343811035156 206.45606994628906 129.58001708984375 195.57778930664062 128.6221923828125 231.93563842773438" stroke-width="2.0" fill="none" stroke="rgb(0, 0, 0)" stroke-opacity="1" stroke-linecap="round" stroke-linejoin="round"/>
    <path d="M 195.42527770996094 71.1476821899414 C 210.04495239257812 89.28511047363281 193.88966369628906 87.53057861328125 189.10354614257812 80.8236083984375 C 199.771728515625 69.1026611328125 202.12864685058594 97.31050109863281 188.6190643310547 86.56538391113281 C 203.9755096435547 102.40257263183594 175.82444763183594 100.10286712646484 196.09242248535156 97.82455444335938" stroke-width="2.0" fill="none" stroke="rgb(0, 0, 0)" stroke-opacity="1" stroke-linecap="round" stroke-linejoin="round"/>
    <path d="M 131.3035888671875 93.39739227294922 C 135.5668487548828 71.54261779785156 128.75978088378906 71.59595489501953 141.8766326904297 107.65015411376953 C 145.56065368652344 95.95274353027344 122.98329162597656 58.97128677368164 141.49050903320312 87.69129943847656 C 143.46759033203125 77.2730484008789 142.9148406982422 96.73033142089844 142.59986877441406 114.2487564086914" stroke-width="2.0" fill="none" stroke="rgb(0, 0, 0)" stroke-opacity="1" stroke-linecap="round" stroke-linejoin="round"/>
    <path d="M 80.3918228149414 22.87875747680664 C 73.76904296875 41.81959915161133 92.8783187866211 39.15217590332031 85.98152160644531 30.11736297607422" stroke-width="2.0" fill="none" stroke="rgb(0, 0, 0)" stroke-opacity="1" stroke-linecap="round" stroke-linejoin="round"/>
    <path d="M 17.545076370239258 121.2985610961914 C 14.505986213684082 124.93645477294922 1.4270198345184326 134.01393127441406 -27.075910568237305 127.93069458007812 C -22.324731826782227 125.97086334228516 -17.1973819732666 130.30589294433594 -3.8231418132781982 117.61003112792969" stroke-width="2.0" fill="none" stroke="rgb(0, 0, 0)" stroke-opacity="1" stroke-linecap="round" stroke-linejoin="round"/>
    <path d="M 204.4036865234375 229.43505859375 C 211.71681213378906 234.11912536621094 195.82611083984375 232.6413116455078 224.66116333007812 226.18795776367188 C 198.62176513671875 229.07591247558594 159.10205078125 224.79055786132812 169.87167358398438 247.73007202148438" stroke-width="2.0" fill="none" stroke="rgb(0, 0, 0)" stroke-opacity="1" stroke-linecap="round" stroke-linejoin="round"/>
    <path d="M 209.6248016357422 143.5616912841797 C 205.7396697998047 143.53994750976562 197.85073852539062 122.20753479003906 228.3594970703125 127.46184539794922 C 229.52354431152344 133.2393035888672 227.17100524902344 131.58290100097656 229.48765563964844 126.48954772949219" stroke-width="2.0" fill="none" stroke="rgb(0, 0, 0)" stroke-opacity="1" stroke-linecap="round" stroke-linejoin="round"/>
    <path d="M 168.83694458007812 124.76713562011719 C 161.74288940429688 131.10272216796875 175.83993530273438 131.9899139404297 168.525634765625 125.5501708984375" stroke-width="2.0" fill="none" stroke="rgb(0, 0, 0)" stroke-opacity="1" stroke-linecap="round" stroke-linejoin="round"/>
    <path d="M 193.79942321777344 226.9491729736328 C 195.67881774902344 231.54315185546875 205.1929168701172 241.51492309570312 194.54917907714844 239.9923553466797" stroke-width="2.0" fill="none" stroke="rgb(0, 0, 0)" stroke-opacity="1" stroke-linecap="round" stroke-linejoin="round"/>
    <path d="M 182.6988067626953 209.46902465820312 C 174.5702362060547 221.15396118164062 217.99374389648438 202.9838104248047 211.2144012451172 226.4475860595703 C 151.781005859375 238.7109832763672 172.0966796875 225.6068572998047 188.66424560546875 211.87071228027344 C 168.2923126220703 188.80264282226562 194.5681915283203 195.29127502441406 184.88685607910156 197.5462188720703" stroke-width="2.0" fill="none" stroke="rgb(0, 0, 0)" stroke-opacity="1" stroke-linecap="round" stroke-linejoin="round"/>
    <path d="M 27.293039321899414 236.2687530517578 C 44.03017807006836 221.5236053466797 71.31109619140625 227.50482177734375 54.65802001953125 212.0380859375 C 16.285255432128906 196.99888610839844 -7.780641078948975 212.869384765625 58.81357192993164 217.97457885742188 C 46.917640686035156 198.09461975097656 46.6384391784668 216.00376892089844 19.0490665435791 208.509765625" stroke-width="2.0" fill="none" stroke="rgb(0, 0, 0)" stroke-opacity="1" stroke-linecap="round" stroke-linejoin="round"/>
    <path d="M 122.44033813476562 137.3858642578125 C 158.9298858642578 134.0582733154297 145.68301391601562 122.6766357421875 154.28973388671875 156.6298065185547" stroke-width="2.0" fill="none" stroke="rgb(0, 0, 0)" stroke-opacity="1" stroke-linecap="round" stroke-linejoin="round"/>
    <path d="M -1.206702470779419 218.69338989257812 C -6.6103315353393555 223.7232666015625 5.11724853515625 225.92300415039062 -0.7308132648468018 198.8807373046875 C 3.843888282775879 210.71055603027344 17.15192222595215 202.53424072265625 14.000843048095703 187.05621337890625" stroke-width="2.0" fill="none" stroke="rgb(0, 0, 0)" stroke-opacity="1" stroke-linecap="round" stroke-linejoin="round"/>
    <path d="M 63.129085540771484 168.81814575195312 C 66.60807800292969 200.3563690185547 39.88558578491211 202.39816284179688 60.91866683959961 191.3481903076172" stroke-width="2.0" fill="none" stroke="rgb(0, 0, 0)" stroke-opacity="1" stroke-linecap="round" stroke-linejoin="round"/>
    <path d="M 172.54315185546875 93.73701477050781 C 188.96514892578125 106.17526245117188 190.10101318359375 110.46390533447266 168.69419860839844 103.44538116455078" stroke-width="2.0" fill="none" stroke="rgb(0, 0, 0)" stroke-opacity="1" stroke-linecap="round" stroke-linejoin="round"/>
    <path d="M 96.202392578125 90.35623168945312 C 106.70223236083984 124.81802368164062 116.44137573242188 93.11041259765625 111.1064682006836 158.59059143066406 C 98.60540771484375 152.91331481933594 102.82122802734375 150.6997528076172 97.74723815917969 150.6861114501953 C 96.08798217773438 150.08926391601562 93.61073303222656 115.6393051147461 102.9983139038086 133.37823486328125" stroke-width="2.0" fill="none" stroke="rgb(0, 0, 0)" stroke-opacity="1" stroke-linecap="round" stroke-linejoin="round"/>
    <path d="M 189.89239501953125 25.847801208496094 C 180.55506896972656 31.079307556152344 174.52537536621094 6.25413703918457 188.05471801757812 10.661017417907715 C 182.27572631835938 -2.872130870819092 165.71798706054688 -3.215021848678589 178.89039611816406 26.107646942138672" stroke-width="2.0" fill="none" stroke="rgb(0, 0, 0)" stroke-opacity="1" stroke-linecap="round" stroke-linejoin="round"/>
    <path d="M 78.22291564941406 8.640631675720215 C 75.55734252929688 28.53180694580078 79.82257080078125 53.717689514160156 91.43171691894531 31.94818687438965" stroke-width="2.0" fill="none" stroke="rgb(0, 0, 0)" stroke-opacity="1" stroke-linecap="round" stroke-linejoin="round"/>
    <path d="M 29.246517181396484 95.24380493164062 C 28.61127471923828 60.91099548339844 33.11112594604492 75.06050872802734 13.927555084228516 51.63954544067383" stroke-width="2.0" fill="none" stroke="rgb(0, 0, 0)" stroke-opacity="1" stroke-linecap="round" stroke-linejoin="round"/>
    <path d="M 184.83328247070312 84.621826171875 C 189.41604614257812 97.86774444580078 179.4032440185547 97.17362213134766 164.95037841796875 79.93009948730469 C 162.625 105.72552490234375 165.2709503173828 105.67170715332031 171.12339782714844 114.55681610107422 C 184.0457305908203 129.1820526123047 200.177490234375 130.37564086914062 222.88449096679688 117.30997467041016" stroke-width="2.0" fill="none" stroke="rgb(0, 0, 0)" stroke-opacity="1" stroke-linecap="round" stroke-linejoin="round"/>
    <path d="M 85.06448364257812 99.87550354003906 C 77.96968841552734 84.25151062011719 102.97099304199219 103.86927795410156 95.14366149902344 92.0763168334961" stroke-width="2.0" fill="none" stroke="rgb(0, 0, 0)" stroke-opacity="1" stroke-linecap="round" stroke-linejoin="round"/>
    <path d="M 33.70595932006836 143.34799194335938 C 55.96582794189453 161.38551330566406 22.95079803466797 143.3035888671875 37.04484176635742 145.4468231201172 C 51.31026840209961 110.00990295410156 20.708728790283203 119.3823471069336 35.4738655090332 137.6209716796875" stroke-width="2.0" fill="none" stroke="rgb(0, 0, 0)" stroke-opacity="1" stroke-linecap="round" stroke-linejoin="round"/>
    <path d="M 20.748722076416016 98.14603424072266 C 28.80785369873047 68.84170532226562 21.77450942993164 79.64412689208984 21.557693481445312 94.44811248779297" stroke-width="2.0" fill="none" stroke="rgb(0, 0, 0)" stroke-opacity="1" stroke-linecap="round" stroke-linejoin="round"/>
    <path d="M 32.62604904174805 12.771125793457031 C 0.4431389570236206 10.13952350616455 1.7140748500823975 16.41650390625 -2.560040235519409 -6.753885746002197" stroke-width="2.0" fill="none" stroke="rgb(0, 0, 0)" stroke-opacity="1" stroke-linecap="round" stroke-linejoin="round"/>
    <path d="M 159.68838500976562 116.77117919921875 C 145.58660888671875 105.80973052978516 160.0399932861328 84.99886322021484 150.52285766601562 82.69636535644531 C 156.62464904785156 101.57730102539062 150.49444580078125 112.4691390991211 149.76083374023438 84.38127136230469" stroke-width="2.0" fill="none" stroke="rgb(0, 0, 0)" stroke-opacity="1" stroke-linecap="round" stroke-linejoin="round"/>
    <path d="M 125.82624053955078 96.27848815917969 C 109.95537567138672 65.70419311523438 125.59491729736328 80.43506622314453 129.11044311523438 79.76983642578125" stroke-width="2.0" fill="none" stroke="rgb(0, 0, 0)" stroke-opacity="1" stroke-linecap="round" stroke-linejoin="round"/>
    <path d="M 100.63496398925781 215.26747131347656 C 65.73243713378906 213.51002502441406 71.6624755859375 171.42893981933594 88.7517318725586 178.48324584960938 C 104.57489013671875 200.60049438476562 134.07470703125 200.6405487060547 144.1659393310547 193.2456512451172 C 139.22071838378906 193.02365112304688 164.97654724121094 177.10134887695312 136.82318115234375 187.4738006591797" stroke-width="2.0" fill="none" stroke="rgb(0, 0, 0)" stroke-opacity="1" stroke-linecap="round" stroke-linejoin="round"/>
    <path d="M 163.5603790283203 192.35281372070312 C 139.69277954101562 188.91038513183594 164.09327697753906 217.06100463867188 192.739013671875 183.7429962158203" stroke-width="2.0" fill="none" stroke="rgb(0, 0, 0)" stroke-opacity="1" stroke-linecap="round" stroke-linejoin="round"/>
    <path d="M 46.404659271240234 154.8063201904297 C 44.6517219543457 99.00434875488281 49.14504623413086 123.54579162597656 72.70323944091797 116.54793548583984" stroke-width="2.0" fill="none" stroke="rgb(0, 0, 0)" stroke-opacity="1" stroke-linecap="round" stroke-linejoin="round"/>
    <path d="M 148.6692657470703 133.08050537109375 C 162.4370880126953 113.19305419921875 164.3643798828125 147.0078582763672 160.05764770507812 135.82369995117188" stroke-width="2.0" fill="none" stroke="rgb(0, 0, 0)" stroke-opacity="1" stroke-linecap="round" stroke-linejoin="round"/>
  </g>
</svg>
