<?xml version="1.0" ?>
<svg xmlns="http://www.w3.org/2000/svg" version="1.1" width="224" height="224">
  <defs/>
  <g>
    <path d="M 165.81199645996094 14.436251640319824 C 167.92831420898438 -0.8862324357032776 178.7122802734375 16.462038040161133 148.6445770263672 46.49160385131836 C 145.3397979736328 35.197792053222656 162.6052703857422 13.634963989257812 146.34112548828125 15.140315055847168" stroke-width="2.0" fill="none" stroke="rgb(0, 0, 0)" stroke-opacity="1" stroke-linecap="round" stroke-linejoin="round"/>
    <path d="M 124.38589477539062 231.4623565673828 C 125.06242370605469 234.609619140625 133.33595275878906 242.84866333007812 145.4095458984375 254.6587677001953 C 150.4134521484375 241.77972412109375 150.59527587890625 246.81826782226562 168.8137664794922 227.51451110839844 C 132.0344696044922 217.83901977539062 127.91178894042969 220.6826171875 153.598388671875 213.2166748046875" stroke-width="2.0" fill="none" stroke="rgb(0, 0, 0)" stroke-opacity="1" stroke-linecap="round" stroke-linejoin="round"/>
    <path d="M 147.4605255126953 68.48013305664062 C 115.17472076416016 67.00774383544922 153.83523559570312 49.47182083129883 144.52694702148438 64.88842010498047 C 121.53656005859375 64.38111114501953 153.89710998535156 46.48023986816406 136.42608642578125 65.25963592529297 C 138.7702178955078 52.5828742980957 159.30117797851562 62.00387954711914 148.93580627441406 58.74699020385742" stroke-width="2.0" fill="none" stroke="rgb(0, 0, 0)" stroke-opacity="1" stroke-linecap="round" stroke-linejoin="round"/>
    <path d="M 118.01996612548828 199.65606689453125 C 117.36137390136719 187.86355590820312 110.94995880126953 154.94570922851562 144.02310180664062 180.85336303710938 C 188.15057373046875 159.7559356689453 152.85488891601562 168.20567321777344 134.515380859375 173.09201049804688 C 137.14761352539062 193.26414489746094 148.1477508544922 180.31887817382812 134.3986053466797 192.30751037597656" stroke-width="2.0" fill="none" stroke="rgb(0, 0, 0)" stroke-opacity="1" stroke-linecap="round" stroke-linejoin="round"/>
    <path d="M 227.0560302734375 195.86061096191406 C 226.50538635253906 248.91281127929688 209.7528076171875 211.81236267089844 173.82669067382812 218.3600311279297 C 148.1929473876953 223.7332000732422 140.70120239257812 231.78244018554688 157.07395935058594 230.32037353515625 C 185.0644989013672 255.07720947265625 191.37026977539062 244.12844848632812 197.0843505859375 238.95326232910156" stroke-width="2.0" fill="none" stroke="rgb(0, 0, 0)" stroke-opacity="1" stroke-linecap="round" stroke-linejoin="round"/>
    <path d="M 58.68197250366211 20.15559196472168 C 64.34419250488281 28.10426139831543 64.74239349365234 45.88224411010742 52.63898849487305 28.163732528686523 C 70.51783752441406 4.532654285430908 48.1293830871582 21.262725830078125 77.96981811523438 9.185284614562988 C 83.22005462646484 -1.1692103147506714 68.69084930419922 19.11515998840332 63.156375885009766 15.410850524902344" stroke-width="2.0" fill="none" stroke="rgb(0, 0, 0)" stroke-opacity="1" stroke-linecap="round" stroke-linejoin="round"/>
    <path d="M 25.136383056640625 126.10621643066406 C 44.256832122802734 124.32050323486328 36.39291000366211 123.15813446044922 29.428627014160156 132.74522399902344 C 11.542519569396973 109.24391174316406 42.306419372558594 122.0975112915039 20.522674560546875 119.59332275390625" stroke-width="2.0" fill="none" stroke="rgb(0, 0, 0)" stroke-opacity="1" stroke-linecap="round" stroke-linejoin="round"/>
    <path d="M 84.34171295166016 95.23204040527344 C 84.66781616210938 69.18289184570312 86.90349578857422 72.32212829589844 86.2748031616211 98.14917755126953 C 81.54593658447266 105.27841186523438 80.9151382446289 104.47854614257812 84.06659698486328 74.36664581298828" stroke-width="2.0" fill="none" stroke="rgb(0, 0, 0)" stroke-opacity="1" stroke-linecap="round" stroke-linejoin="round"/>
    <path d="M 37.95229721069336 189.35179138183594 C 22.34912109375 172.01358032226562 7.2306227684021 188.13107299804688 33.749122619628906 190.2356719970703 C 19.103252410888672 181.927734375 7.5020012855529785 192.60763549804688 9.928442001342773 178.52587890625" stroke-width="2.0" fill="none" stroke="rgb(0, 0, 0)" stroke-opacity="1" stroke-linecap="round" stroke-linejoin="round"/>
    <path d="M 8.827826499938965 203.16934204101562 C 26.20258903503418 212.4852752685547 -1.116984486579895 213.92771911621094 -8.169376373291016 231.53973388671875" stroke-width="2.0" fill="none" stroke="rgb(0, 0, 0)" stroke-opacity="1" stroke-linecap="round" stroke-linejoin="round"/>
    <path d="M 177.38604736328125 52.37321090698242 C 142.85574340820312 74.24641418457031 162.743896484375 59.68678665161133 176.57179260253906 73.756103515625" stroke-width="2.0" fill="none" stroke="rgb(0, 0, 0)" stroke-opacity="1" stroke-linecap="round" stroke-linejoin="round"/>
    <path d="M 98.2297592163086 205.5524444580078 C 73.40406036376953 218.57833862304688 67.4645004272461 206.33847045898438 88.37413787841797 196.5920867919922" stroke-width="2.0" fill="none" stroke="rgb(0, 0, 0)" stroke-opacity="1" stroke-linecap="round" stroke-linejoin="round"/>
    <path d="M 137.1934051513672 92.37580871582031 C 161.28622436523438 91.88017272949219 114.06752014160156 79.79500579833984 146.7141571044922 83.8829574584961 C 151.61386108398438 125.20130920410156 149.42413330078125 103.51742553710938 125.91808319091797 109.63429260253906 C 125.15757751464844 82.595703125 122.88858032226562 88.169189453125 124.53264617919922 117.40013885498047" stroke-width="2.0" fill="none" stroke="rgb(0, 0, 0)" stroke-opacity="1" stroke-linecap="round" stroke-linejoin="round"/>
    <path d="M 46.1480598449707 128.3092041015625 C 58.7733268737793 116.4957504272461 51.56782150268555 127.60652923583984 26.37583351135254 136.55894470214844 C 23.456674575805664 105.6494369506836 5.78678035736084 96.18754577636719 49.520729064941406 132.61856079101562 C 49.09534454345703 115.32495880126953 45.82582092285156 97.95265197753906 50.36384963989258 94.68844604492188" stroke-width="2.0" fill="none" stroke="rgb(0, 0, 0)" stroke-opacity="1" stroke-linecap="round" stroke-linejoin="round"/>
    <path d="M 163.91859436035156 152.19873046875 C 177.5731964111328 159.04507446289062 148.98721313476562 159.76963806152344 167.29930114746094 148.52456665039062 C 176.00576782226562 143.5165252685547 180.77468872070312 99.06538391113281 167.56707763671875 143.67861938476562" stroke-width="2.0" fill="none" stroke="rgb(0, 0, 0)" stroke-opacity="1" stroke-linecap="round" stroke-linejoin="round"/>
    <path d="M 116.93299102783203 231.0083465576172 C 101.56068420410156 227.03717041015625 99.14786529541016 230.81161499023438 108.08477020263672 238.74191284179688 C 113.7800521850586 245.21401977539062 114.2979736328125 241.07537841796875 113.62995910644531 233.5375213623047 C 102.89756774902344 227.23367309570312 101.69702911376953 228.35037231445312 102.36182403564453 226.80088806152344" stroke-width="2.0" fill="none" stroke="rgb(0, 0, 0)" stroke-opacity="1" stroke-linecap="round" stroke-linejoin="round"/>
    <path d="M 79.93121337890625 52.94230270385742 C 81.04254913330078 57.15144348144531 84.6990966796875 86.82565307617188 75.24974822998047 54.42173385620117" stroke-width="2.0" fill="none" stroke="rgb(0, 0, 0)" stroke-opacity="1" stroke-linecap="round" stroke-linejoin="round"/>
    <path d="M 201.29736328125 124.71671295166016 C 205.09979248046875 167.2540283203125 195.43023681640625 125.47681427001953 198.11886596679688 125.30677032470703" stroke-width="2.0" fill="none" stroke="rgb(0, 0, 0)" stroke-opacity="1" stroke-linecap="round" stroke-linejoin="round"/>
    <path d="M 83.49911499023438 93.53874206542969 C 100.58907318115234 95.81818389892578 113.69763946533203 100.33613586425781 79.12374114990234 109.22305297851562" stroke-width="2.0" fill="none" stroke="rgb(0, 0, 0)" stroke-opacity="1" stroke-linecap="round" stroke-linejoin="round"/>
    <path d="M 129.25755310058594 209.96878051757812 C 109.90109252929688 219.75941467285156 121.3703384399414 218.1375274658203 86.41996002197266 223.84469604492188 C 39.38127899169922 229.8501739501953 52.79552459716797 226.31829833984375 89.16852569580078 233.03073120117188" stroke-width="2.0" fill="none" stroke="rgb(0, 0, 0)" stroke-opacity="1" stroke-linecap="round" stroke-linejoin="round"/>
    <path d="M 99.26168060302734 66.88191223144531 C 66.32171630859375 75.88490295410156 105.93607330322266 100.35826110839844 82.26732635498047 91.12345886230469" stroke-width="2.0" fill="none" stroke="rgb(0, 0, 0)" stroke-opacity="1" stroke-linecap="round" stroke-linejoin="round"/>
    <path d="M 5.09221887588501 28.627071380615234 C 10.361879348754883 40.362876892089844 13.680127143859863 52.19961166381836 13.732318878173828 61.10712432861328" stroke-width="2.0" fill="none" stroke="rgb(0, 0, 0)" stroke-opacity="1" stroke-linecap="round" stroke-linejoin="round"/>
    <path d="M 186.84620666503906 136.9640350341797 C 166.1000213623047 154.62417602539062 173.92221069335938 186.9579620361328 160.0955352783203 165.02919006347656 C 191.8704833984375 156.50051879882812 149.11700439453125 168.5193634033203 174.94065856933594 170.73280334472656" stroke-width="2.0" fill="none" stroke="rgb(0, 0, 0)" stroke-opacity="1" stroke-linecap="round" stroke-linejoin="round"/>
    <path d="M 16.39213752746582 78.89889526367188 C 11.573939323425293 105.90240478515625 17.504919052124023 99.90069580078125 18.508583068847656 97.56022644042969 C 15.937469482421875 77.2941665649414 9.134474754333496 87.42184448242188 30.824987411499023 82.42383575439453" stroke-width="2.0" fill="none" stroke="rgb(0, 0, 0)" stroke-opacity="1" stroke-linecap="round" stroke-linejoin="round"/>
    <path d="M 125.30120086669922 115.26863098144531 C 117.11351013183594 90.10448455810547 127.90850830078125 126.51573944091797 121.50154113769531 117.59272003173828" stroke-width="2.0" fill="none" stroke="rgb(0, 0, 0)" stroke-opacity="1" stroke-linecap="round" stroke-linejoin="round"/>
    <path d="M 67.93816375732422 75.3776626586914 C 78.09980773925781 121.08984375 61.406715393066406 97.67750549316406 60.29457473754883 62.864906311035156" stroke-width="2.0" fill="none" stroke="rgb(0, 0, 0)" stroke-opacity="1" stroke-linecap="round" stroke-linejoin="round"/>
    <path d="M 173.80918884277344 162.86410522460938 C 208.3397979736328 164.83717346191406 219.7197723388672 160.70262145996094 210.2686309814453 163.51365661621094 C 201.17559814453125 186.0212860107422 216.07998657226562 184.68902587890625 210.19638061523438 145.78236389160156 C 209.6220703125 173.71377563476562 199.31979370117188 167.0767059326172 217.4290313720703 187.9022979736328" stroke-width="2.0" fill="none" stroke="rgb(0, 0, 0)" stroke-opacity="1" stroke-linecap="round" stroke-linejoin="round"/>
    <path d="M 76.02297973632812 79.48727416992188 C 83.6463851928711 67.41141510009766 71.90888214111328 91.96004486083984 79.79313659667969 79.88951873779297 C 105.90991973876953 85.47490692138672 100.67243957519531 99.10183715820312 101.87022399902344 113.537841796875" stroke-width="2.0" fill="none" stroke="rgb(0, 0, 0)" stroke-opacity="1" stroke-linecap="round" stroke-linejoin="round"/>
    <path d="M 148.33409118652344 33.28998947143555 C 167.4810028076172 22.332202911376953 161.27606201171875 31.252866744995117 157.4545440673828 16.64563751220703 C 165.79776000976562 14.140936851501465 160.85240173339844 -12.817842483520508 164.7311248779297 -25.460153579711914" stroke-width="2.0" fill="none" stroke="rgb(0, 0, 0)" stroke-opacity="1" stroke-linecap="round" stroke-linejoin="round"/>
    <path d="M 230.2201385498047 2.6733624935150146 C 219.54359436035156 90.97463989257812 212.04502868652344 69.71187591552734 203.58404541015625 -7.784579277038574 C 205.9785919189453 -13.763681411743164 222.9753875732422 5.231212139129639 220.64393615722656 2.9220800399780273 C 190.58541870117188 -10.255514144897461 174.77618408203125 -14.589859962463379 193.48683166503906 -2.4159586429595947" stroke-width="2.0" fill="none" stroke="rgb(0, 0, 0)" stroke-opacity="1" stroke-linecap="round" stroke-linejoin="round"/>
    <path d="M 76.1485366821289 148.09722900390625 C 66.31734466552734 135.71238708496094 54.830726623535156 152.13079833984375 79.47847747802734 158.26345825195312 C 65.82910919189453 129.3804473876953 47.96717834472656 159.76512145996094 90.47879028320312 162.00584411621094" stroke-width="2.0" fill="none" stroke="rgb(0, 0, 0)" stroke-opacity="1" stroke-linecap="round" stroke-linejoin="round"/>
    <path d="M 213.78602600097656 216.7784881591797 C 203.6061553955078 199.93601989746094 213.55532836914062 234.5144805908203 228.87347412109375 219.0914306640625 C 232.8467254638672 215.7902069091797 239.5682830810547 226.1105194091797 219.33946228027344 230.2165985107422" stroke-width="2.0" fill="none" stroke="rgb(0, 0, 0)" stroke-opacity="1" stroke-linecap="round" stroke-linejoin="round"/>
    <path d="M 119.99415588378906 68.97742462158203 C 122.6441650390625 85.67765808105469 123.49456787109375 81.80204772949219 112.48274993896484 61.1146354675293 C 98.50311279296875 58.9765625 111.14642333984375 41.194576263427734 129.7971649169922 44.736454010009766 C 105.16522979736328 63.216522216796875 103.71562194824219 43.520503997802734 111.77496337890625 51.86468505859375" stroke-width="2.0" fill="none" stroke="rgb(0, 0, 0)" stroke-opacity="1" stroke-linecap="round" stroke-linejoin="round"/>
    <path d="M 149.31942749023438 132.78627014160156 C 149.62518310546875 134.651611328125 144.36341857910156 125.9903335571289 146.46334838867188 134.20672607421875 C 160.3080596923828 135.75308227539062 146.32070922851562 137.8369140625 132.8030548095703 155.7678985595703" stroke-width="2.0" fill="none" stroke="rgb(0, 0, 0)" stroke-opacity="1" stroke-linecap="round" stroke-linejoin="round"/>
    <path d="M 58.53261947631836 47.82591247558594 C 36.014102935791016 50.2150764465332 -13.798039436340332 53.95524978637695 30.045734405517578 54.291893005371094" stroke-width="2.0" fill="none" stroke="rgb(0, 0, 0)" stroke-opacity="1" stroke-linecap="round" stroke-linejoin="round"/>
    <path d="M 134.20033264160156 35.23177719116211 C 145.16575622558594 45.02559280395508 114.20162963867188 44.42856979370117 153.82992553710938 49.72554397583008 C 149.10865783691406 33.75141525268555 139.76255798339844 15.711709022521973 114.59300994873047 19.630231857299805" stroke-width="2.0" fill="none" stroke="rgb(0, 0, 0)" stroke-opacity="1" stroke-linecap="round" stroke-linejoin="round"/>
    <path d="M 77.58381652832031 104.35670471191406 C 68.93413543701172 66.44087982177734 41.936771392822266 55.72697448730469 59.935325622558594 81.6155776977539 C 56.69358444213867 83.17092895507812 75.84881591796875 86.01364135742188 70.91419219970703 67.23672485351562 C 60.93606185913086 91.3432388305664 62.9935302734375 77.66693115234375 63.96821594238281 48.87104034423828" stroke-width="2.0" fill="none" stroke="rgb(0, 0, 0)" stroke-opacity="1" stroke-linecap="round" stroke-linejoin="round"/>
    <path d="M 165.22048950195312 -4.4896721839904785 C 155.5851287841797 -4.702388286590576 182.1041717529297 8.219412803649902 195.51943969726562 -2.8766989707946777" stroke-width="2.0" fill="none" stroke="rgb(0, 0, 0)" stroke-opacity="1" stroke-linecap="round" stroke-linejoin="round"/>
    <path d="M 97.57090759277344 107.36192321777344 C 72.40251159667969 113.62245178222656 91.73007202148438 107.96678161621094 95.37811279296875 88.18737030029297 C 83.0475845336914 102.47570037841797 80.67167663574219 132.7115020751953 81.21717071533203 76.00536346435547" stroke-width="2.0" fill="none" stroke="rgb(0, 0, 0)" stroke-opacity="1" stroke-linecap="round" stroke-linejoin="round"/>
    <path d="M 52.631412506103516 103.4933853149414 C 20.668853759765625 93.79266357421875 19.545351028442383 126.61298370361328 83.04695892333984 116.78043365478516 C 8.691569328308105 111.8545913696289 3.211127758026123 89.61774444580078 32.85456085205078 86.14188385009766" stroke-width="2.0" fill="none" stroke="rgb(0, 0, 0)" stroke-opacity="1" stroke-linecap="round" stroke-linejoin="round"/>
    <path d="M 129.31382751464844 140.48773193359375 C 164.31564331054688 149.6821746826172 149.72769165039062 164.89002990722656 150.09278869628906 139.2172393798828 C 124.72415161132812 132.7484588623047 94.71100616455078 136.48318481445312 118.01405334472656 152.63836669921875 C 129.13873291015625 149.70001220703125 124.12443542480469 159.63584899902344 121.5865249633789 135.29551696777344" stroke-width="2.0" fill="none" stroke="rgb(0, 0, 0)" stroke-opacity="1" stroke-linecap="round" stroke-linejoin="round"/>
    <path d="M 195.5092315673828 196.20703125 C 211.15255737304688 184.0684356689453 187.94691467285156 209.5533905029297 214.68771362304688 211.50204467773438 C 239.42408752441406 198.85409545898438 214.02011108398438 152.35987854003906 215.80018615722656 111.7558364868164 C 231.2498779296875 182.9667205810547 205.14112854003906 210.0026092529297 218.1796112060547 161.80149841308594" stroke-width="2.0" fill="none" stroke="rgb(0, 0, 0)" stroke-opacity="1" stroke-linecap="round" stroke-linejoin="round"/>
    <path d="M 70.76080322265625 32.51304244995117 C 76.78321838378906 7.3895344734191895 51.213871002197266 55.57467269897461 82.98212432861328 49.63559341430664 C 71.75550079345703 -5.494893550872803 68.84131622314453 50.58260726928711 72.28211212158203 47.272396087646484 C 75.02934265136719 23.610092163085938 69.4334716796875 43.180633544921875 77.36467742919922 67.22566986083984" stroke-width="2.0" fill="none" stroke="rgb(0, 0, 0)" stroke-opacity="1" stroke-linecap="round" stroke-linejoin="round"/>
    <path d="M 51.238258361816406 205.61361694335938 C 32.56876754760742 180.12353515625 14.030821800231934 178.9256134033203 16.07588005065918 186.71786499023438 C 7.105253219604492 184.89720153808594 -2.467801570892334 197.4193115234375 5.784459114074707 216.7089385986328 C 3.985368490219116 175.7671661376953 18.73605728149414 205.51707458496094 16.2425594329834 183.5157928466797" stroke-width="2.0" fill="none" stroke="rgb(0, 0, 0)" stroke-opacity="1" stroke-linecap="round" stroke-linejoin="round"/>
    <path d="M 180.73516845703125 60.20612335205078 C 171.3898468017578 59.97332000732422 156.75440979003906 55.24449920654297 179.5913543701172 54.06715774536133" stroke-width="2.0" fill="none" stroke="rgb(0, 0, 0)" stroke-opacity="1" stroke-linecap="round" stroke-linejoin="round"/>
    <path d="M 79.63412475585938 48.11583709716797 C 69.6690673828125 3.360196828842163 81.40118408203125 -2.728286027908325 76.76424407958984 21.901025772094727 C 64.87548828125 46.015296936035156 67.43423461914062 58.07295608520508 58.63739776611328 25.369234085083008 C 62.11144256591797 47.26494216918945 54.788761138916016 24.687271118164062 55.67400360107422 21.0272274017334" stroke-width="2.0" fill="none" stroke="rgb(0, 0, 0)" stroke-opacity="1" stroke-linecap="round" stroke-linejoin="round"/>
    <path d="M 38.89632034301758 95.38367462158203 C 62.18877029418945 101.2523422241211 69.44673156738281 104.765380859375 53.16216278076172 104.7743148803711" stroke-width="2.0" fill="none" stroke="rgb(0, 0, 0)" stroke-opacity="1" stroke-linecap="round" stroke-linejoin="round"/>
    <path d="M 104.11732482910156 141.16139221191406 C 118.06193542480469 173.3144073486328 99.7986068725586 154.23013305664062 102.57243347167969 143.50543212890625 C 113.59117889404297 161.9477081298828 104.74667358398438 172.67453002929688 130.4387969970703 178.19766235351562 C 105.88569641113281 177.39959716796875 118.58596801757812 172.05947875976562 120.32197570800781 145.5943603515625" stroke-width="2.0" fill="none" stroke="rgb(0, 0, 0)" stroke-opacity="1" stroke-linecap="round" stroke-linejoin="round"/>
    <path d="M 100.47036743164062 143.81369018554688 C 105.54559326171875 180.57272338867188 118.73507690429688 173.67628479003906 109.49665832519531 126.12289428710938 C 123.04592895507812 149.96775817871094 118.30988311767578 170.594970703125 125.9983139038086 162.55064392089844" stroke-width="2.0" fill="none" stroke="rgb(0, 0, 0)" stroke-opacity="1" stroke-linecap="round" stroke-linejoin="round"/>
    <path d="M 203.95693969726562 227.95127868652344 C 223.4789581298828 219.1709442138672 219.92503356933594 237.08482360839844 218.1260223388672 190.5741424560547 C 192.6746826171875 215.20993041992188 223.2379913330078 231.25631713867188 212.48117065429688 208.6041259765625" stroke-width="2.0" fill="none" stroke="rgb(0, 0, 0)" stroke-opacity="1" stroke-linecap="round" stroke-linejoin="round"/>
    <path d="M 38.398223876953125 123.06632995605469 C 63.86967086791992 131.35891723632812 33.62278366088867 134.1858367919922 76.15572357177734 113.61540985107422" stroke-width="2.0" fill="none" stroke="rgb(0, 0, 0)" stroke-opacity="1" stroke-linecap="round" stroke-linejoin="round"/>
    <path d="M 186.5034637451172 58.01704025268555 C 215.80496215820312 55.40408706665039 226.9284210205078 74.74626159667969 216.72360229492188 106.01952362060547 C 219.88265991210938 76.5547103881836 219.35931396484375 65.74298095703125 212.8988800048828 57.84341812133789 C 214.95062255859375 79.57129669189453 194.67745971679688 81.68285369873047 213.86668395996094 63.35480880737305" stroke-width="2.0" fill="none" stroke="rgb(0, 0, 0)" stroke-opacity="1" stroke-linecap="round" stroke-linejoin="round"/>
    <path d="M 161.3997344970703 110.73046875 C 157.95550537109375 124.32626342773438 184.74581909179688 103.48245239257812 129.27841186523438 117.47314453125 C 158.27951049804688 99.7520980834961 142.5266876220703 106.6811752319336 130.6641845703125 114.29133605957031 C 141.66366577148438 98.10018157958984 112.51648712158203 80.61597442626953 103.3111801147461 88.05524444580078" stroke-width="2.0" fill="none" stroke="rgb(0, 0, 0)" stroke-opacity="1" stroke-linecap="round" stroke-linejoin="round"/>
    <path d="M 118.90946197509766 53.23891830444336 C 124.06209564208984 87.39298248291016 131.0934295654297 60.2738037109375 130.4011688232422 45.19214630126953" stroke-width="2.0" fill="none" stroke="rgb(0, 0, 0)" stroke-opacity="1" stroke-linecap="round" stroke-linejoin="round"/>
    <path d="M 125.11410522460938 165.65342712402344 C 143.53053283691406 148.1731719970703 148.76467895507812 138.98492431640625 117.32633209228516 157.67251586914062 C 156.90293884277344 165.78750610351562 129.3636016845703 152.50575256347656 151.7523651123047 164.030029296875 C 150.02369689941406 150.6995086669922 157.79795837402344 155.81570434570312 142.76263427734375 184.41888427734375" stroke-width="2.0" fill="none" stroke="rgb(0, 0, 0)" stroke-opacity="1" stroke-linecap="round" stroke-linejoin="round"/>
    <path d="M 209.56849670410156 46.861610412597656 C 191.7036590576172 58.90644836425781 190.21441650390625 50.42237854003906 205.3192901611328 33.72901916503906 C 192.5788116455078 44.026065826416016 194.99871826171875 68.26654815673828 211.22518920898438 77.61542510986328" stroke-width="2.0" fill="none" stroke="rgb(0, 0, 0)" stroke-opacity="1" stroke-linecap="round" stroke-linejoin="round"/>
    <path d="M 152.40260314941406 150.8463134765625 C 127.65156555175781 166.0565185546875 151.25286865234375 142.2496337890625 173.73016357421875 143.75904846191406" stroke-width="2.0" fill="none" stroke="rgb(0, 0, 0)" stroke-opacity="1" stroke-linecap="round" stroke-linejoin="round"/>
    <path d="M 216.4205322265625 35.630306243896484 C 232.25653076171875 76.67678833007812 201.14849853515625 80.07193756103516 205.99183654785156 61.545928955078125 C 221.4908447265625 52.473209381103516 216.81150817871094 67.42652893066406 211.0985565185547 53.57957077026367 C 178.90992736816406 41.68394088745117 180.68809509277344 60.8682975769043 215.9472198486328 70.6046371459961" stroke-width="2.0" fill="none" stroke="rgb(0, 0, 0)" stroke-opacity="1" stroke-linecap="round" stroke-linejoin="round"/>
    <path d="M 218.64523315429688 140.690673828125 C 219.5825958251953 175.37060546875 225.7967071533203 147.65228271484375 216.0943145751953 106.4896240234375" stroke-width="2.0" fill="none" stroke="rgb(0, 0, 0)" stroke-opacity="1" stroke-linecap="round" stroke-linejoin="round"/>
    <path d="M 217.68948364257812 60.99458694458008 C 222.9661865234375 -20.922685623168945 220.3807373046875 -11.41406536102295 223.24867248535156 4.295624256134033" stroke-width="2.0" fill="none" stroke="rgb(0, 0, 0)" stroke-opacity="1" stroke-linecap="round" stroke-linejoin="round"/>
    <path d="M -9.696329116821289 152.55938720703125 C 34.81095504760742 153.17556762695312 49.8049430847168 153.11553955078125 7.584357261657715 150.9197235107422 C 23.307973861694336 168.68301391601562 25.845500946044922 146.5965576171875 27.992656707763672 154.13543701171875 C -10.755448341369629 167.37701416015625 30.828834533691406 133.08802795410156 18.84648323059082 150.1262664794922" stroke-width="2.0" fill="none" stroke="rgb(0, 0, 0)" stroke-opacity="1" stroke-linecap="round" stroke-linejoin="round"/>
    <path d="M 198.91964721679688 125.46656036376953 C 202.572265625 138.55796813964844 199.118896484375 147.20401000976562 202.23007202148438 155.95883178710938 C 200.87033081054688 154.9489288330078 213.84913635253906 176.07826232910156 179.57675170898438 171.3641815185547" stroke-width="2.0" fill="none" stroke="rgb(0, 0, 0)" stroke-opacity="1" stroke-linecap="round" stroke-linejoin="round"/>
    <path d="M 228.52427673339844 134.66502380371094 C 230.3107147216797 140.565185546875 234.2552032470703 146.072998046875 242.1346893310547 145.35882568359375 C 244.89920043945312 163.85125732421875 242.4983673095703 157.80958557128906 235.72865295410156 166.73080444335938" stroke-width="2.0" fill="none" stroke="rgb(0, 0, 0)" stroke-opacity="1" stroke-linecap="round" stroke-linejoin="round"/>
    <path d="M 149.61886596679688 171.4759063720703 C 170.431396484375 167.33932495117188 145.8091583251953 164.0365447998047 200.454833984375 168.91744995117188" stroke-width="2.0" fill="none" stroke="rgb(0, 0, 0)" stroke-opacity="1" stroke-linecap="round" stroke-linejoin="round"/>
    <path d="M 13.93399715423584 68.45997619628906 C 8.437219619750977 57.967525482177734 -5.250885963439941 78.29955291748047 11.18929672241211 73.62200927734375 C 36.6626091003418 56.30168914794922 14.38422966003418 94.64371490478516 17.352752685546875 67.05333709716797" stroke-width="2.0" fill="none" stroke="rgb(0, 0, 0)" stroke-opacity="1" stroke-linecap="round" stroke-linejoin="round"/>
    <path d="M 179.3416290283203 166.08787536621094 C 166.4019012451172 133.58175659179688 186.64572143554688 151.9349822998047 202.74630737304688 167.49708557128906 C 180.9452362060547 160.7460479736328 192.62197875976562 159.78042602539062 210.46133422851562 152.1880340576172" stroke-width="2.0" fill="none" stroke="rgb(0, 0, 0)" stroke-opacity="1" stroke-linecap="round" stroke-linejoin="round"/>
    <path d="M 73.10214233398438 188.434326171875 C 75.52180480957031 183.69937133789062 37.01839065551758 184.09751892089844 40.84145736694336 199.52285766601562 C 36.35094451904297 182.9670867919922 7.852060794830322 195.1859130859375 9.632562637329102 185.9608154296875 C 12.323140144348145 197.5124969482422 -0.3533078730106354 217.45712280273438 6.992857456207275 190.5913543701172" stroke-width="2.0" fill="none" stroke="rgb(0, 0, 0)" stroke-opacity="1" stroke-linecap="round" stroke-linejoin="round"/>
    <path d="M 205.17962646484375 28.714128494262695 C 204.3448944091797 -1.5842628479003906 200.59686279296875 -10.521562576293945 203.27731323242188 27.20001983642578" stroke-width="2.0" fill="none" stroke="rgb(0, 0, 0)" stroke-opacity="1" stroke-linecap="round" stroke-linejoin="round"/>
    <path d="M 103.99785614013672 79.63138580322266 C 78.36537170410156 72.01579284667969 119.11408233642578 80.83133697509766 97.71273040771484 74.00936126708984" stroke-width="2.0" fill="none" stroke="rgb(0, 0, 0)" stroke-opacity="1" stroke-linecap="round" stroke-linejoin="round"/>
    <path d="M 101.09843444824219 225.916259765625 C 109.56708526611328 223.7518768310547 150.56918334960938 217.551513671875 119.47306823730469 215.55845642089844 C 148.10919189453125 233.28823852539062 141.7224884033203 235.1376953125 140.56163024902344 243.95098876953125 C 119.81084442138672 239.9949188232422 115.69795989990234 241.76806640625 115.02499389648438 251.27297973632812" stroke-width="2.0" fill="none" stroke="rgb(0, 0, 0)" stroke-opacity="1" stroke-linecap="round" stroke-linejoin="round"/>
    <path d="M 194.1461944580078 30.544958114624023 C 211.67376708984375 28.38770866394043 206.8846435546875 58.828975677490234 227.59902954101562 56.538475036621094 C 256.5373229980469 23.26752471923828 259.67706298828125 37.27716827392578 267.2252502441406 36.336578369140625" stroke-width="2.0" fill="none" stroke="rgb(0, 0, 0)" stroke-opacity="1" stroke-linecap="round" stroke-linejoin="round"/>
    <path d="M 11.85341739654541 44.671321868896484 C 29.813941955566406 37.98708724975586 18.030838012695312 14.608595848083496 4.92590856552124 23.866268157958984" stroke-width="2.0" fill="none" stroke="rgb(0, 0, 0)" stroke-opacity="1" stroke-linecap="round" stroke-linejoin="round"/>
    <path d="M 111.03946685791016 21.227821350097656 C 112.72870635986328 56.012474060058594 106.61372375488281 45.90571212768555 109.87879943847656 4.955846786499023 C 143.52310180664062 -2.1344728469848633 126.78437805175781 -6.189712047576904 80.65377807617188 1.7483494281768799" stroke-width="2.0" fill="none" stroke="rgb(0, 0, 0)" stroke-opacity="1" stroke-linecap="round" stroke-linejoin="round"/>
    <path d="M 156.460693359375 31.906005859375 C 143.11781311035156 69.44733428955078 166.427734375 62.10762405395508 168.1872100830078 13.231216430664062" stroke-width="2.0" fill="none" stroke="rgb(0, 0, 0)" stroke-opacity="1" stroke-linecap="round" stroke-linejoin="round"/>
    <path d="M 73.95111846923828 50.174400329589844 C 75.43409729003906 2.933274745941162 72.49658203125 45.15766143798828 82.6596908569336 72.8785629272461 C 84.75489807128906 66.69378662109375 85.12357330322266 81.978515625 83.9793930053711 52.5330696105957 C 76.01643371582031 59.562137603759766 65.00841522216797 48.380062103271484 70.49354553222656 26.98029327392578" stroke-width="2.0" fill="none" stroke="rgb(0, 0, 0)" stroke-opacity="1" stroke-linecap="round" stroke-linejoin="round"/>
    <path d="M 94.37198638916016 92.502197265625 C 98.6456069946289 85.84617614746094 95.84607696533203 101.39347839355469 101.37837982177734 84.96717071533203" stroke-width="2.0" fill="none" stroke="rgb(0, 0, 0)" stroke-opacity="1" stroke-linecap="round" stroke-linejoin="round"/>
    <path d="M 28.417430877685547 184.9575958251953 C -4.684532642364502 200.66973876953125 14.505236625671387 180.7565460205078 27.759469985961914 186.2508544921875" stroke-width="2.0" fill="none" stroke="rgb(0, 0, 0)" stroke-opacity="1" stroke-linecap="round" stroke-linejoin="round"/>
    <path d="M 37.171810150146484 122.12000274658203 C 45.0798225402832 111.04942321777344 60.00382614135742 147.77207946777344 53.21428680419922 93.80500030517578 C 82.6571044921875 114.30274200439453 40.50843048095703 98.76152801513672 52.869354248046875 129.0759735107422 C 79.59502410888672 107.26229095458984 57.53669357299805 86.8092041015625 59.21196746826172 137.32293701171875" stroke-width="2.0" fill="none" stroke="rgb(0, 0, 0)" stroke-opacity="1" stroke-linecap="round" stroke-linejoin="round"/>
    <path d="M 161.59732055664062 136.47015380859375 C 175.67901611328125 159.98670959472656 165.35313415527344 130.29531860351562 175.11785888671875 136.72970581054688 C 172.13201904296875 148.35643005371094 168.1095428466797 157.51377868652344 136.0959014892578 131.74298095703125" stroke-width="2.0" fill="none" stroke="rgb(0, 0, 0)" stroke-opacity="1" stroke-linecap="round" stroke-linejoin="round"/>
    <path d="M 15.607932090759277 76.8023452758789 C 43.829566955566406 76.63438415527344 27.00060272216797 84.86402130126953 -11.44892692565918 78.15162658691406" stroke-width="2.0" fill="none" stroke="rgb(0, 0, 0)" stroke-opacity="1" stroke-linecap="round" stroke-linejoin="round"/>
    <path d="M 158.72274780273438 33.577789306640625 C 134.2446746826172 21.032623291015625 162.04859924316406 18.873170852661133 162.2331085205078 5.987114906311035 C 158.9336395263672 26.414901733398438 165.8383026123047 32.38003158569336 156.39244079589844 37.804359436035156 C 170.8406982421875 23.038768768310547 156.90493774414062 29.782190322875977 155.251220703125 53.73350143432617" stroke-width="2.0" fill="none" stroke="rgb(0, 0, 0)" stroke-opacity="1" stroke-linecap="round" stroke-linejoin="round"/>
    <path d="M 64.93984985351562 145.1949005126953 C 77.48381805419922 168.55368041992188 68.87102508544922 125.91029357910156 101.93687438964844 168.9990692138672" stroke-width="2.0" fill="none" stroke="rgb(0, 0, 0)" stroke-opacity="1" stroke-linecap="round" stroke-linejoin="round"/>
    <path d="M 139.33340454101562 63.21809387207031 C 159.80355834960938 61.52232360839844 139.5467529296875 62.56763458251953 112.49696350097656 86.3416748046875 C 127.05443572998047 31.13176727294922 122.00131225585938 85.31575012207031 137.11441040039062 31.03086280822754 C 154.1175994873047 75.5522689819336 139.03961181640625 40.82420349121094 150.6252899169922 19.584836959838867" stroke-width="2.0" fill="none" stroke="rgb(0, 0, 0)" stroke-opacity="1" stroke-linecap="round" stroke-linejoin="round"/>
    <path d="M 52.18045425415039 143.13417053222656 C 32.564273834228516 160.77696228027344 15.422981262207031 158.18246459960938 54.519161224365234 158.22262573242188 C 86.64334869384766 163.35308837890625 95.98322296142578 156.43402099609375 92.16316223144531 164.46502685546875" stroke-width="2.0" fill="none" stroke="rgb(0, 0, 0)" stroke-opacity="1" stroke-linecap="round" stroke-linejoin="round"/>
    <path d="M 182.29214477539062 74.55097961425781 C 176.0063934326172 60.368377685546875 173.212890625 24.23361587524414 196.52667236328125 40.42681121826172 C 165.3747100830078 44.343746185302734 159.03768920898438 65.46508026123047 178.24746704101562 46.7843017578125" stroke-width="2.0" fill="none" stroke="rgb(0, 0, 0)" stroke-opacity="1" stroke-linecap="round" stroke-linejoin="round"/>
    <path d="M 150.5625762939453 217.85157775878906 C 173.896240234375 194.17568969726562 185.34716796875 211.99502563476562 156.44293212890625 197.150634765625 C 181.54876708984375 189.51730346679688 219.1457977294922 207.060302734375 160.80459594726562 197.9569854736328" stroke-width="2.0" fill="none" stroke="rgb(0, 0, 0)" stroke-opacity="1" stroke-linecap="round" stroke-linejoin="round"/>
    <path d="M 20.209882736206055 67.8463134765625 C 19.051652908325195 110.64205169677734 22.557981491088867 126.73412322998047 45.74933624267578 129.3305206298828 C 42.72987365722656 107.91481018066406 34.14710998535156 90.22402954101562 43.6246452331543 124.67996215820312" stroke-width="2.0" fill="none" stroke="rgb(0, 0, 0)" stroke-opacity="1" stroke-linecap="round" stroke-linejoin="round"/>
    <path d="M 142.77537536621094 85.22966766357422 C 133.86346435546875 107.96774291992188 151.35218811035156 114.8003158569336 139.675048828125 84.65678405761719" stroke-width="2.0" fill="none" stroke="rgb(0, 0, 0)" stroke-opacity="1" stroke-linecap="round" stroke-linejoin="round"/>
    <path d="M 26.73551368713379 203.90972900390625 C 100.6903305053711 208.78851318359375 63.73476791381836 217.4322967529297 39.280696868896484 210.307861328125 C 75.78630828857422 211.505859375 3.7719309329986572 213.80288696289062 32.009727478027344 198.64581298828125" stroke-width="2.0" fill="none" stroke="rgb(0, 0, 0)" stroke-opacity="1" stroke-linecap="round" stroke-linejoin="round"/>
    <path d="M 141.39154052734375 208.44244384765625 C 146.2774658203125 244.02210998535156 133.76226806640625 262.4679260253906 130.37547302246094 271.8348083496094" stroke-width="2.0" fill="none" stroke="rgb(0, 0, 0)" stroke-opacity="1" stroke-linecap="round" stroke-linejoin="round"/>
    <path d="M 89.83644104003906 199.03163146972656 C 76.03746032714844 225.2565155029297 45.24365234375 202.96800231933594 64.61954498291016 210.07066345214844 C 76.19270324707031 218.60400390625 50.397369384765625 199.88284301757812 69.62890625 192.9978485107422" stroke-width="2.0" fill="none" stroke="rgb(0, 0, 0)" stroke-opacity="1" stroke-linecap="round" stroke-linejoin="round"/>
    <path d="M 209.22645568847656 198.12364196777344 C 193.0171356201172 177.46475219726562 203.6750030517578 203.2780303955078 187.7823486328125 185.99740600585938 C 179.98114013671875 202.99842834472656 179.59735107421875 184.08889770507812 194.04959106445312 188.8759765625" stroke-width="2.0" fill="none" stroke="rgb(0, 0, 0)" stroke-opacity="1" stroke-linecap="round" stroke-linejoin="round"/>
    <path d="M 15.416935920715332 61.69880294799805 C 16.080028533935547 36.50328826904297 8.167537689208984 41.86576843261719 17.516376495361328 1.134055733680725 C 19.077983856201172 40.62581253051758 22.614002227783203 53.905094146728516 4.849160671234131 25.504770278930664" stroke-width="2.0" fill="none" stroke="rgb(0, 0, 0)" stroke-opacity="1" stroke-linecap="round" stroke-linejoin="round"/>
    <path d="M 140.82601928710938 130.03636169433594 C 120.33667755126953 113.8456802368164 92.4736099243164 111.60602569580078 99.9088134765625 130.69944763183594 C 104.21649169921875 95.84966278076172 97.98074340820312 148.47642517089844 108.248779296875 164.87347412109375" stroke-width="2.0" fill="none" stroke="rgb(0, 0, 0)" stroke-opacity="1" stroke-linecap="round" stroke-linejoin="round"/>
    <path d="M 133.4288787841797 31.133861541748047 C 155.6097869873047 62.41208267211914 136.68997192382812 67.7994155883789 147.98550415039062 66.60588073730469 C 148.5540313720703 55.950836181640625 124.53547668457031 77.87146759033203 121.25791931152344 58.03388214111328" stroke-width="2.0" fill="none" stroke="rgb(0, 0, 0)" stroke-opacity="1" stroke-linecap="round" stroke-linejoin="round"/>
    <path d="M 124.9315414428711 92.1080093383789 C 129.67991638183594 94.17613983154297 125.2149658203125 116.8005599975586 124.61016845703125 118.41984558105469 C 132.33164978027344 99.34636688232422 134.9381103515625 67.66116333007812 133.9317626953125 96.31072235107422" stroke-width="2.0" fill="none" stroke="rgb(0, 0, 0)" stroke-opacity="1" stroke-linecap="round" stroke-linejoin="round"/>
    <path d="M 105.60437774658203 60.293243408203125 C 108.7506103515625 50.169010162353516 104.2573013305664 54.694034576416016 108.00733184814453 46.39106750488281" stroke-width="2.0" fill="none" stroke="rgb(0, 0, 0)" stroke-opacity="1" stroke-linecap="round" stroke-linejoin="round"/>
    <path d="M 102.39217376708984 182.3491973876953 C 102.67318725585938 206.75621032714844 105.71245574951172 191.65174865722656 115.28910064697266 198.18309020996094 C 115.32584381103516 204.44158935546875 93.58694458007812 209.73416137695312 93.43048858642578 190.68898010253906 C 107.44573974609375 206.13400268554688 103.15888214111328 200.28237915039062 130.22164916992188 194.71517944335938" stroke-width="2.0" fill="none" stroke="rgb(0, 0, 0)" stroke-opacity="1" stroke-linecap="round" stroke-linejoin="round"/>
    <path d="M 197.49314880371094 199.8549041748047 C 159.7420654296875 195.54803466796875 211.50177001953125 209.59088134765625 214.76223754882812 205.0698699951172 C 208.70745849609375 194.1080780029297 194.76235961914062 209.7063446044922 158.33883666992188 198.61566162109375 C 153.0648956298828 195.09075927734375 213.4244384765625 198.99526977539062 167.76394653320312 204.88182067871094" stroke-width="2.0" fill="none" stroke="rgb(0, 0, 0)" stroke-opacity="1" stroke-linecap="round" stroke-linejoin="round"/>
    <path d="M 229.48092651367188 159.2511749267578 C 233.30348205566406 151.0088348388672 239.04977416992188 148.54434204101562 245.66543579101562 154.35498046875 C 249.75396728515625 153.09130859375 248.27577209472656 155.67327880859375 249.51890563964844 149.9340057373047 C 248.29281616210938 150.13668823242188 257.4621887207031 144.34165954589844 249.75271606445312 155.3110809326172" stroke-width="2.0" fill="none" stroke="rgb(0, 0, 0)" stroke-opacity="1" stroke-linecap="round" stroke-linejoin="round"/>
    <path d="M 58.34965515136719 84.12454986572266 C 37.457820892333984 58.716278076171875 37.73542022705078 62.35417175292969 43.25325393676758 71.96883392333984 C 50.07615280151367 61.97383499145508 54.80357360839844 65.35933685302734 49.18562698364258 79.49578094482422 C 31.945693969726562 66.20868682861328 48.12635803222656 56.94217300415039 68.012939453125 69.33377838134766" stroke-width="2.0" fill="none" stroke="rgb(0, 0, 0)" stroke-opacity="1" stroke-linecap="round" stroke-linejoin="round"/>
    <path d="M 153.45916748046875 44.65740966796875 C 150.068359375 70.56546020507812 140.92416381835938 50.11116027832031 161.98187255859375 39.689361572265625" stroke-width="2.0" fill="none" stroke="rgb(0, 0, 0)" stroke-opacity="1" stroke-linecap="round" stroke-linejoin="round"/>
    <path d="M 14.451310157775879 45.04241180419922 C 20.000137329101562 1.2587121725082397 7.931369304656982 3.673907995223999 48.72195816040039 -1.2073121070861816" stroke-width="2.0" fill="none" stroke="rgb(0, 0, 0)" stroke-opacity="1" stroke-linecap="round" stroke-linejoin="round"/>
    <path d="M 161.11143493652344 121.22286987304688 C 168.18719482421875 123.43963623046875 178.65524291992188 136.1703338623047 173.484130859375 124.43833923339844 C 188.03541564941406 112.10269927978516 159.11279296875 141.38076782226562 160.9103240966797 142.89797973632812" stroke-width="2.0" fill="none" stroke="rgb(0, 0, 0)" stroke-opacity="1" stroke-linecap="round" stroke-linejoin="round"/>
    <path d="M 86.4779281616211 203.08590698242188 C 113.9874038696289 178.28036499023438 72.99122619628906 181.09007263183594 75.9798812866211 205.53807067871094 C 75.20293426513672 181.14805603027344 78.48516845703125 166.7801971435547 75.47333526611328 178.44400024414062 C 63.25527572631836 173.6018524169922 80.34015655517578 191.835205078125 69.44125366210938 174.01988220214844" stroke-width="2.0" fill="none" stroke="rgb(0, 0, 0)" stroke-opacity="1" stroke-linecap="round" stroke-linejoin="round"/>
    <path d="M 145.56918334960938 10.796637535095215 C 168.5653533935547 9.979900360107422 173.64234924316406 -8.201875686645508 166.8784942626953 16.53810691833496" stroke-width="2.0" fill="none" stroke="rgb(0, 0, 0)" stroke-opacity="1" stroke-linecap="round" stroke-linejoin="round"/>
    <path d="M 186.4895477294922 62.97189712524414 C 206.21502685546875 82.91815948486328 218.3579559326172 87.62703704833984 209.9232940673828 98.19288635253906 C 198.3889617919922 69.244140625 168.72601318359375 83.64166259765625 193.2625274658203 82.06568145751953" stroke-width="2.0" fill="none" stroke="rgb(0, 0, 0)" stroke-opacity="1" stroke-linecap="round" stroke-linejoin="round"/>
    <path d="M 138.8345184326172 -4.521900653839111 C 142.3349609375 51.82653045654297 144.4429168701172 35.07505416870117 145.4149627685547 6.354559898376465 C 144.46322631835938 18.82219886779785 151.23654174804688 14.420690536499023 144.70835876464844 11.517245292663574 C 144.9990997314453 38.43034362792969 143.39120483398438 28.963768005371094 159.5574188232422 42.25260543823242" stroke-width="2.0" fill="none" stroke="rgb(0, 0, 0)" stroke-opacity="1" stroke-linecap="round" stroke-linejoin="round"/>
    <path d="M 5.459277629852295 202.13546752929688 C 7.657146453857422 178.96229553222656 25.795286178588867 185.17335510253906 5.811429500579834 216.8069610595703 C 10.26410961151123 186.30459594726562 6.889528751373291 188.26559448242188 23.967140197753906 184.0211639404297" stroke-width="2.0" fill="none" stroke="rgb(0, 0, 0)" stroke-opacity="1" stroke-linecap="round" stroke-linejoin="round"/>
    <path d="M 120.27360534667969 78.10279846191406 C 95.12271881103516 68.74010467529297 112.44407653808594 98.641357421875 143.43386840820312 58.734352111816406" stroke-width="2.0" fill="none" stroke="rgb(0, 0, 0)" stroke-opacity="1" stroke-linecap="round" stroke-linejoin="round"/>
    <path d="M 11.622123718261719 196.7636260986328 C 8.634038925170898 237.73919677734375 16.262113571166992 193.3135528564453 12.010988235473633 175.25486755371094 C 13.369344711303711 193.0702362060547 0.43627312779426575 154.8505096435547 15.340198516845703 145.39004516601562" stroke-width="2.0" fill="none" stroke="rgb(0, 0, 0)" stroke-opacity="1" stroke-linecap="round" stroke-linejoin="round"/>
    <path d="M 59.10124969482422 82.45954132080078 C 62.23677444458008 43.420509338378906 64.64380645751953 67.05142211914062 76.88738250732422 109.03361511230469 C 59.385459899902344 60.96916961669922 64.74363708496094 98.24913787841797 76.34628295898438 99.60003662109375 C 70.75658416748047 100.84896850585938 87.1080322265625 110.747314453125 70.07703399658203 108.72377014160156" stroke-width="2.0" fill="none" stroke="rgb(0, 0, 0)" stroke-opacity="1" stroke-linecap="round" stroke-linejoin="round"/>
    <path d="M 184.22740173339844 164.98092651367188 C 237.3319549560547 182.783935546875 193.7399139404297 177.3638916015625 159.0386505126953 156.20323181152344 C 200.21197509765625 150.2663116455078 237.9041748046875 166.77957153320312 157.60675048828125 174.3304901123047" stroke-width="2.0" fill="none" stroke="rgb(0, 0, 0)" stroke-opacity="1" stroke-linecap="round" stroke-linejoin="round"/>
    <path d="M 84.71809387207031 85.03584289550781 C 107.6036376953125 98.6855239868164 115.10835266113281 76.58177185058594 82.84735870361328 78.21682739257812 C 103.3309097290039 86.14110565185547 96.599853515625 83.30247497558594 96.0133285522461 115.61155700683594" stroke-width="2.0" fill="none" stroke="rgb(0, 0, 0)" stroke-opacity="1" stroke-linecap="round" stroke-linejoin="round"/>
    <path d="M 152.04371643066406 11.817998886108398 C 167.46592712402344 80.65840911865234 141.3018798828125 50.898067474365234 160.3562469482422 15.367752075195312" stroke-width="2.0" fill="none" stroke="rgb(0, 0, 0)" stroke-opacity="1" stroke-linecap="round" stroke-linejoin="round"/>
    <path d="M 30.751079559326172 150.79200744628906 C 21.464771270751953 148.61183166503906 21.924421310424805 142.31858825683594 36.76873779296875 149.47628784179688" stroke-width="2.0" fill="none" stroke="rgb(0, 0, 0)" stroke-opacity="1" stroke-linecap="round" stroke-linejoin="round"/>
    <path d="M 167.20162963867188 92.04930114746094 C 192.35801696777344 90.16850280761719 191.72605895996094 94.60076904296875 168.25888061523438 75.6011734008789 C 126.5666275024414 77.49562072753906 170.34390258789062 60.47024154663086 195.05859375 67.53226470947266" stroke-width="2.0" fill="none" stroke="rgb(0, 0, 0)" stroke-opacity="1" stroke-linecap="round" stroke-linejoin="round"/>
    <path d="M 50.11384582519531 20.57894515991211 C 17.1212100982666 9.897577285766602 35.02238845825195 49.736087799072266 34.62406921386719 18.8505916595459" stroke-width="2.0" fill="none" stroke="rgb(0, 0, 0)" stroke-opacity="1" stroke-linecap="round" stroke-linejoin="round"/>
    <path d="M 105.52586364746094 -5.711328506469727 C 102.40181732177734 -3.2984044551849365 120.07093048095703 -8.531545639038086 108.48146057128906 -4.43430233001709" stroke-width="2.0" fill="none" stroke="rgb(0, 0, 0)" stroke-opacity="1" stroke-linecap="round" stroke-linejoin="round"/>
    <path d="M 135.68568420410156 116.36227416992188 C 157.20455932617188 87.06903076171875 160.85772705078125 135.44898986816406 161.23414611816406 144.1363525390625" stroke-width="2.0" fill="none" stroke="rgb(0, 0, 0)" stroke-opacity="1" stroke-linecap="round" stroke-linejoin="round"/>
    <path d="M 115.13372039794922 185.9099578857422 C 108.4835433959961 169.4048614501953 93.21038818359375 164.87918090820312 76.23993682861328 160.0653839111328 C 75.22457122802734 163.6666259765625 108.1639633178711 152.34669494628906 82.52062225341797 157.6775360107422" stroke-width="2.0" fill="none" stroke="rgb(0, 0, 0)" stroke-opacity="1" stroke-linecap="round" stroke-linejoin="round"/>
    <path d="M 234.37368774414062 195.2087860107422 C 224.5004119873047 188.5989990234375 234.970703125 207.30555725097656 237.95704650878906 212.03482055664062 C 231.0082244873047 203.494140625 235.77938842773438 207.8518829345703 231.63555908203125 199.53439331054688" stroke-width="2.0" fill="none" stroke="rgb(0, 0, 0)" stroke-opacity="1" stroke-linecap="round" stroke-linejoin="round"/>
    <path d="M 178.4336700439453 116.2839126586914 C 147.64776611328125 115.42939758300781 171.98243713378906 100.79373168945312 202.61898803710938 127.417724609375" stroke-width="2.0" fill="none" stroke="rgb(0, 0, 0)" stroke-opacity="1" stroke-linecap="round" stroke-linejoin="round"/>
    <path d="M 4.944524765014648 31.03364372253418 C 29.930084228515625 25.734779357910156 31.886276245117188 31.054244995117188 9.494124412536621 40.29981994628906 C 24.660884857177734 27.912662506103516 17.628738403320312 15.938924789428711 -5.092155933380127 31.402713775634766" stroke-width="2.0" fill="none" stroke="rgb(0, 0, 0)" stroke-opacity="1" stroke-linecap="round" stroke-linejoin="round"/>
    <path d="M 177.5507354736328 90.14755249023438 C 141.8107147216797 80.3045654296875 197.6980743408203 88.04869079589844 213.6853485107422 97.27169036865234 C 158.25872802734375 91.28707885742188 145.81529235839844 92.75627899169922 200.76602172851562 98.87753295898438 C 199.07247924804688 66.94133758544922 228.27561950683594 86.94561767578125 224.46910095214844 40.229820251464844" stroke-width="2.0" fill="none" stroke="rgb(0, 0, 0)" stroke-opacity="1" stroke-linecap="round" stroke-linejoin="round"/>
    <path d="M 135.93466186523438 152.6967010498047 C 114.63902282714844 157.79400634765625 111.46359252929688 175.0935516357422 140.853759765625 186.80873107910156 C 118.71426391601562 147.5399169921875 126.62461853027344 182.74147033691406 115.01516723632812 159.25360107421875" stroke-width="2.0" fill="none" stroke="rgb(0, 0, 0)" stroke-opacity="1" stroke-linecap="round" stroke-linejoin="round"/>
    <path d="M 23.23565101623535 30.023832321166992 C -2.9668047428131104 33.11664581298828 4.158756732940674 27.044836044311523 -2.8069424629211426 -1.8374477624893188" stroke-width="2.0" fill="none" stroke="rgb(0, 0, 0)" stroke-opacity="1" stroke-linecap="round" stroke-linejoin="round"/>
    <path d="M 24.212329864501953 -6.849017143249512 C 33.60047149658203 -4.04387903213501 32.668212890625 -2.4091105461120605 17.59481430053711 -2.399507999420166 C -10.898993492126465 2.5093324184417725 -6.16213846206665 4.783467769622803 -4.164282321929932 15.250113487243652 C -8.749489784240723 -6.400409698486328 8.579062461853027 -7.449096202850342 10.096580505371094 -6.783321380615234" stroke-width="2.0" fill="none" stroke="rgb(0, 0, 0)" stroke-opacity="1" stroke-linecap="round" stroke-linejoin="round"/>
    <path d="M 221.17047119140625 158.06903076171875 C 212.58114624023438 157.49705505371094 221.82211303710938 145.22201538085938 218.87820434570312 95.78097534179688" stroke-width="2.0" fill="none" stroke="rgb(0, 0, 0)" stroke-opacity="1" stroke-linecap="round" stroke-linejoin="round"/>
    <path d="M 15.889143943786621 125.35313415527344 C 10.552337646484375 146.85601806640625 17.64076805114746 142.87725830078125 32.94673156738281 150.16070556640625 C 36.50082015991211 144.17373657226562 17.04368782043457 140.56271362304688 12.659418106079102 157.607666015625 C 38.78462219238281 145.8097686767578 75.09323120117188 153.28091430664062 22.075223922729492 161.08535766601562" stroke-width="2.0" fill="none" stroke="rgb(0, 0, 0)" stroke-opacity="1" stroke-linecap="round" stroke-linejoin="round"/>
    <path d="M 153.55697631835938 36.93589782714844 C 143.07540893554688 52.51024627685547 160.365966796875 47.893096923828125 141.17942810058594 48.774497985839844 C 150.86415100097656 71.58010864257812 157.65968322753906 51.29828643798828 161.7295684814453 35.76482009887695 C 141.13526916503906 3.2524163722991943 139.80787658691406 20.14654541015625 161.32730102539062 24.47587776184082" stroke-width="2.0" fill="none" stroke="rgb(0, 0, 0)" stroke-opacity="1" stroke-linecap="round" stroke-linejoin="round"/>
    <path d="M 130.6617431640625 71.24726867675781 C 133.43455505371094 7.0182576179504395 132.327392578125 34.51836013793945 135.46453857421875 28.756738662719727 C 124.57164764404297 70.03465270996094 145.08367919921875 44.207366943359375 126.86749267578125 49.31998062133789" stroke-width="2.0" fill="none" stroke="rgb(0, 0, 0)" stroke-opacity="1" stroke-linecap="round" stroke-linejoin="round"/>
    <path d="M 214.9359130859375 184.75064086914062 C 224.09481811523438 150.21372985839844 209.71014404296875 154.4049530029297 204.81210327148438 172.32046508789062 C 203.6820068359375 159.41526794433594 219.4340057373047 179.238525390625 196.61474609375 172.45791625976562" stroke-width="2.0" fill="none" stroke="rgb(0, 0, 0)" stroke-opacity="1" stroke-linecap="round" stroke-linejoin="round"/>
    <path d="M 209.06044006347656 95.98113250732422 C 204.71832275390625 105.20718383789062 219.63531494140625 97.2319107055664 210.90956115722656 90.96868133544922 C 173.8726348876953 79.17672729492188 169.25347900390625 85.16704559326172 220.18939208984375 109.67411041259766 C 226.0660400390625 122.48021697998047 191.2099151611328 113.76892852783203 195.8508758544922 83.58470916748047" stroke-width="2.0" fill="none" stroke="rgb(0, 0, 0)" stroke-opacity="1" stroke-linecap="round" stroke-linejoin="round"/>
    <path d="M 105.57984161376953 184.36033630371094 C 96.37020111083984 192.42431640625 112.95897674560547 196.88096618652344 118.66998291015625 199.10536193847656 C 137.83770751953125 183.917724609375 146.59365844726562 186.13368225097656 138.07887268066406 163.47714233398438" stroke-width="2.0" fill="none" stroke="rgb(0, 0, 0)" stroke-opacity="1" stroke-linecap="round" stroke-linejoin="round"/>
    <path d="M 19.80392074584961 49.42256164550781 C 17.463088989257812 71.53326416015625 20.48130989074707 65.52530670166016 21.722816467285156 43.894493103027344 C 8.66256332397461 54.12088394165039 -13.226958274841309 17.727964401245117 2.976486921310425 25.62242317199707 C 7.7031354904174805 61.00375747680664 31.799036026000977 41.81618118286133 60.39899826049805 48.26819610595703" stroke-width="2.0" fill="none" stroke="rgb(0, 0, 0)" stroke-opacity="1" stroke-linecap="round" stroke-linejoin="round"/>
    <path d="M 199.022705078125 151.25808715820312 C 204.934326171875 167.4199981689453 187.860107421875 160.1924591064453 192.48565673828125 162.78248596191406 C 182.6839141845703 144.3870086669922 215.40489196777344 156.8209686279297 224.9904022216797 131.05703735351562 C 237.7588348388672 129.51124572753906 237.64871215820312 146.02597045898438 229.71694946289062 162.74713134765625" stroke-width="2.0" fill="none" stroke="rgb(0, 0, 0)" stroke-opacity="1" stroke-linecap="round" stroke-linejoin="round"/>
    <path d="M 164.71762084960938 111.54865264892578 C 174.07208251953125 116.36277770996094 186.33572387695312 113.2400894165039 185.73451232910156 117.09961700439453 C 183.14366149902344 103.567626953125 188.77545166015625 155.11053466796875 179.81094360351562 145.08795166015625 C 180.0508270263672 147.70407104492188 183.9196319580078 154.0032196044922 199.08773803710938 136.84275817871094" stroke-width="2.0" fill="none" stroke="rgb(0, 0, 0)" stroke-opacity="1" stroke-linecap="round" stroke-linejoin="round"/>
    <path d="M 153.5611572265625 136.01490783691406 C 156.62835693359375 153.04066467285156 161.49331665039062 148.75892639160156 158.84356689453125 131.28366088867188 C 190.77398681640625 115.732421875 192.90606689453125 127.94441986083984 165.18154907226562 141.2361297607422 C 172.8526153564453 142.26229858398438 180.3994140625 131.75445556640625 163.59368896484375 135.6774444580078" stroke-width="2.0" fill="none" stroke="rgb(0, 0, 0)" stroke-opacity="1" stroke-linecap="round" stroke-linejoin="round"/>
    <path d="M 62.417999267578125 39.381431579589844 C 36.0423583984375 18.8050537109375 31.960309982299805 40.69880294799805 33.51674270629883 37.43095397949219 C 42.63914489746094 9.592053413391113 27.58453941345215 20.981098175048828 33.697959899902344 36.610233306884766" stroke-width="2.0" fill="none" stroke="rgb(0, 0, 0)" stroke-opacity="1" stroke-linecap="round" stroke-linejoin="round"/>
    <path d="M 32.9741325378418 88.6690444946289 C 66.60587310791016 94.1336441040039 47.57020950317383 92.04511260986328 53.9609489440918 120.03382873535156 C 59.64387512207031 122.64200592041016 35.43886184692383 126.82902526855469 67.51616668701172 118.5613784790039" stroke-width="2.0" fill="none" stroke="rgb(0, 0, 0)" stroke-opacity="1" stroke-linecap="round" stroke-linejoin="round"/>
    <path d="M 228.18020629882812 99.90068054199219 C 231.7456512451172 103.55355072021484 244.697265625 108.5383529663086 222.6858367919922 69.30205535888672 C 223.67628479003906 77.6947021484375 228.7875213623047 92.88890838623047 213.8447265625 121.9227066040039 C 208.64544677734375 115.35458374023438 213.5194091796875 91.49790954589844 204.7147216796875 86.18940734863281" stroke-width="2.0" fill="none" stroke="rgb(0, 0, 0)" stroke-opacity="1" stroke-linecap="round" stroke-linejoin="round"/>
    <path d="M 33.49990463256836 141.2337646484375 C 6.478012561798096 135.76280212402344 19.973386764526367 114.6091079711914 7.455725193023682 105.8382339477539 C 6.744747161865234 78.56963348388672 -1.0489494800567627 70.29566192626953 -19.818363189697266 81.52893829345703" stroke-width="2.0" fill="none" stroke="rgb(0, 0, 0)" stroke-opacity="1" stroke-linecap="round" stroke-linejoin="round"/>
    <path d="M 180.84158325195312 96.59078979492188 C 193.80979919433594 99.54911041259766 199.65292358398438 112.12384796142578 217.52532958984375 97.687255859375" stroke-width="2.0" fill="none" stroke="rgb(0, 0, 0)" stroke-opacity="1" stroke-linecap="round" stroke-linejoin="round"/>
    <path d="M 101.62085723876953 118.43990325927734 C 88.4990005493164 128.43824768066406 90.94873809814453 109.70110321044922 101.58821868896484 134.95664978027344" stroke-width="2.0" fill="none" stroke="rgb(0, 0, 0)" stroke-opacity="1" stroke-linecap="round" stroke-linejoin="round"/>
    <path d="M 50.86468505859375 142.2203826904297 C 6.308951377868652 135.36480712890625 17.221933364868164 138.97682189941406 33.56809616088867 116.3340835571289" stroke-width="2.0" fill="none" stroke="rgb(0, 0, 0)" stroke-opacity="1" stroke-linecap="round" stroke-linejoin="round"/>
    <path d="M 87.74530029296875 117.93167877197266 C 82.89366149902344 119.51350402832031 90.38482666015625 109.9649658203125 89.126708984375 118.56037902832031" stroke-width="2.0" fill="none" stroke="rgb(0, 0, 0)" stroke-opacity="1" stroke-linecap="round" stroke-linejoin="round"/>
    <path d="M 164.94540405273438 167.06558227539062 C 144.9246063232422 160.7776641845703 115.98489379882812 178.4775390625 128.78790283203125 164.7153778076172 C 132.08714294433594 167.0870819091797 111.26598358154297 168.0884246826172 119.00736999511719 172.9093475341797" stroke-width="2.0" fill="none" stroke="rgb(0, 0, 0)" stroke-opacity="1" stroke-linecap="round" stroke-linejoin="round"/>
    <path d="M 54.81592559814453 45.16714096069336 C -1.6232624053955078 40.02073669433594 21.2297306060791 59.705345153808594 18.19243049621582 44.62917709350586 C 42.70108413696289 36.43313980102539 71.99665069580078 46.99664306640625 43.134918212890625 48.93832015991211 C 10.735444068908691 62.86383819580078 22.18329620361328 74.49993133544922 25.612342834472656 54.65578842163086" stroke-width="2.0" fill="none" stroke="rgb(0, 0, 0)" stroke-opacity="1" stroke-linecap="round" stroke-linejoin="round"/>
    <path d="M 108.52560424804688 42.26877212524414 C 104.78780364990234 20.00536346435547 104.92124938964844 16.748796463012695 125.7598648071289 16.792158126831055 C 153.1427459716797 21.78738784790039 124.89877319335938 26.456968307495117 132.40939331054688 18.555641174316406" stroke-width="2.0" fill="none" stroke="rgb(0, 0, 0)" stroke-opacity="1" stroke-linecap="round" stroke-linejoin="round"/>
    <path d="M 97.3165283203125 87.98180389404297 C 80.41638946533203 81.27558898925781 89.98267364501953 78.3863296508789 89.5616455078125 110.34963989257812 C 75.97672271728516 84.16348266601562 75.7892837524414 102.86550903320312 95.35227966308594 115.8082046508789 C 84.48091125488281 78.94608306884766 87.99307250976562 78.55225372314453 98.6882553100586 93.95410919189453" stroke-width="2.0" fill="none" stroke="rgb(0, 0, 0)" stroke-opacity="1" stroke-linecap="round" stroke-linejoin="round"/>
    <path d="M 115.52352905273438 136.3663330078125 C 151.41461181640625 151.11351013183594 130.85145568847656 189.8046417236328 100.25701141357422 152.26414489746094 C 96.28138732910156 145.64451599121094 104.79344940185547 142.14797973632812 104.11534881591797 117.70609283447266" stroke-width="2.0" fill="none" stroke="rgb(0, 0, 0)" stroke-opacity="1" stroke-linecap="round" stroke-linejoin="round"/>
    <path d="M 15.757899284362793 192.32347106933594 C 2.740128993988037 157.173828125 0.7463506460189819 152.1315155029297 19.768930435180664 152.42861938476562 C -22.22519302368164 140.0970458984375 -5.1092071533203125 131.13482666015625 -3.1033966541290283 219.10110473632812 C -17.614177703857422 182.8061065673828 -8.647761344909668 177.72105407714844 -10.48758602142334 178.0712127685547" stroke-width="2.0" fill="none" stroke="rgb(0, 0, 0)" stroke-opacity="1" stroke-linecap="round" stroke-linejoin="round"/>
    <path d="M 138.64720153808594 102.20577239990234 C 136.37796020507812 80.45626831054688 132.1879425048828 73.984375 152.3158721923828 131.5431671142578 C 127.05924224853516 89.59943389892578 134.6631317138672 67.354248046875 145.92074584960938 107.40277862548828 C 141.12188720703125 71.63665008544922 149.35504150390625 66.57369232177734 164.28289794921875 64.94512939453125" stroke-width="2.0" fill="none" stroke="rgb(0, 0, 0)" stroke-opacity="1" stroke-linecap="round" stroke-linejoin="round"/>
    <path d="M 55.925357818603516 83.57707214355469 C 19.751319885253906 53.71538162231445 66.67079162597656 57.871124267578125 71.39501953125 68.40756225585938 C 54.87324523925781 62.32138442993164 52.30504608154297 60.86557388305664 71.14965057373047 75.82731628417969" stroke-width="2.0" fill="none" stroke="rgb(0, 0, 0)" stroke-opacity="1" stroke-linecap="round" stroke-linejoin="round"/>
    <path d="M 46.69251251220703 203.63011169433594 C 57.36894226074219 203.7271270751953 50.93631362915039 197.35072326660156 27.768346786499023 186.7560272216797" stroke-width="2.0" fill="none" stroke="rgb(0, 0, 0)" stroke-opacity="1" stroke-linecap="round" stroke-linejoin="round"/>
    <path d="M 30.286855697631836 196.89576721191406 C 9.55176830291748 218.57984924316406 57.733943939208984 210.7128143310547 18.95958137512207 194.2066650390625 C 30.078903198242188 220.1458740234375 51.44989013671875 202.1936492919922 5.093172073364258 217.79229736328125 C 8.371719360351562 219.0567626953125 13.423446655273438 204.23187255859375 6.866477012634277 156.22329711914062" stroke-width="2.0" fill="none" stroke="rgb(0, 0, 0)" stroke-opacity="1" stroke-linecap="round" stroke-linejoin="round"/>
    <path d="M 187.28878784179688 6.273191928863525 C 188.5703582763672 58.84419250488281 182.76051330566406 51.81764602661133 181.3089141845703 42.34623336791992" stroke-width="2.0" fill="none" stroke="rgb(0, 0, 0)" stroke-opacity="1" stroke-linecap="round" stroke-linejoin="round"/>
    <path d="M 134.83697509765625 210.53045654296875 C 169.1939239501953 199.5938262939453 122.79669952392578 212.1754150390625 146.26226806640625 213.4025421142578" stroke-width="2.0" fill="none" stroke="rgb(0, 0, 0)" stroke-opacity="1" stroke-linecap="round" stroke-linejoin="round"/>
    <path d="M 13.40147590637207 153.94754028320312 C 6.279855251312256 154.51028442382812 12.013813018798828 181.1349334716797 8.869348526000977 197.2134246826172" stroke-width="2.0" fill="none" stroke="rgb(0, 0, 0)" stroke-opacity="1" stroke-linecap="round" stroke-linejoin="round"/>
    <path d="M 110.178955078125 68.7385025024414 C 96.0346450805664 71.56607055664062 115.58238220214844 57.161407470703125 110.16932678222656 84.42271423339844" stroke-width="2.0" fill="none" stroke="rgb(0, 0, 0)" stroke-opacity="1" stroke-linecap="round" stroke-linejoin="round"/>
    <path d="M -0.07261264324188232 71.41732788085938 C 0.3714126944541931 66.65361785888672 5.519186496734619 50.779685974121094 -10.521052360534668 66.30458068847656 C -13.127118110656738 64.9545669555664 -16.948984146118164 66.7419662475586 -19.261383056640625 63.2283821105957" stroke-width="2.0" fill="none" stroke="rgb(0, 0, 0)" stroke-opacity="1" stroke-linecap="round" stroke-linejoin="round"/>
    <path d="M 23.862293243408203 128.3882293701172 C 25.321109771728516 120.03852844238281 35.28974151611328 142.07839965820312 55.65379333496094 126.55264282226562 C 44.60810852050781 139.38925170898438 31.240131378173828 139.60452270507812 36.27401351928711 114.748046875" stroke-width="2.0" fill="none" stroke="rgb(0, 0, 0)" stroke-opacity="1" stroke-linecap="round" stroke-linejoin="round"/>
    <path d="M 28.82004165649414 101.40123748779297 C 97.23273468017578 127.38784790039062 73.41830444335938 102.29600524902344 51.15882110595703 71.90948486328125 C 78.74102783203125 68.45408630371094 61.42744827270508 85.07311248779297 44.62212371826172 64.86180114746094" stroke-width="2.0" fill="none" stroke="rgb(0, 0, 0)" stroke-opacity="1" stroke-linecap="round" stroke-linejoin="round"/>
    <path d="M 189.7755126953125 29.352813720703125 C 185.1486053466797 77.14823913574219 175.85525512695312 51.827327728271484 208.8838348388672 41.852577209472656 C 203.37472534179688 27.83949089050293 206.4716796875 85.04476928710938 214.7096405029297 57.302860260009766 C 192.27383422851562 43.256103515625 216.29049682617188 65.56930541992188 235.42581176757812 40.73210525512695" stroke-width="2.0" fill="none" stroke="rgb(0, 0, 0)" stroke-opacity="1" stroke-linecap="round" stroke-linejoin="round"/>
    <path d="M 135.19627380371094 142.66159057617188 C 117.15814971923828 154.10853576660156 98.32257080078125 142.43931579589844 127.53294372558594 162.3426055908203" stroke-width="2.0" fill="none" stroke="rgb(0, 0, 0)" stroke-opacity="1" stroke-linecap="round" stroke-linejoin="round"/>
    <path d="M 17.051992416381836 -7.041525363922119 C 16.23358917236328 -4.692490100860596 10.748086929321289 -5.7535014152526855 -9.618196487426758 -2.240000009536743" stroke-width="2.0" fill="none" stroke="rgb(0, 0, 0)" stroke-opacity="1" stroke-linecap="round" stroke-linejoin="round"/>
    <path d="M 21.59516143798828 125.34347534179688 C 27.5373477935791 130.90174865722656 30.87016487121582 159.60433959960938 57.82094955444336 155.3456573486328 C 36.379337310791016 146.83236694335938 25.85272979736328 123.3797607421875 60.53722381591797 156.51339721679688 C 44.12217712402344 128.55055236816406 56.270877838134766 136.13424682617188 75.38090515136719 154.5081787109375" stroke-width="2.0" fill="none" stroke="rgb(0, 0, 0)" stroke-opacity="1" stroke-linecap="round" stroke-linejoin="round"/>
    <path d="M 79.97833251953125 175.916015625 C 83.11117553710938 188.7061767578125 69.48815155029297 186.20034790039062 90.08000183105469 178.74562072753906 C 106.43614959716797 187.63607788085938 95.31393432617188 172.3318634033203 87.93841552734375 193.80328369140625 C 101.60595703125 208.58090209960938 77.94291687011719 214.3832244873047 110.02546691894531 203.7740936279297" stroke-width="2.0" fill="none" stroke="rgb(0, 0, 0)" stroke-opacity="1" stroke-linecap="round" stroke-linejoin="round"/>
    <path d="M -12.359907150268555 67.81373596191406 C 10.632850646972656 79.84353637695312 22.045509338378906 57.4638671875 1.305475115776062 72.51718139648438 C 28.181602478027344 71.51139831542969 29.110122680664062 65.94598388671875 29.739797592163086 98.02911376953125" stroke-width="2.0" fill="none" stroke="rgb(0, 0, 0)" stroke-opacity="1" stroke-linecap="round" stroke-linejoin="round"/>
    <path d="M 205.3851776123047 91.47029876708984 C 202.14073181152344 120.66392517089844 209.51734924316406 113.06449127197266 219.73902893066406 121.02152252197266 C 238.1003875732422 85.30665588378906 218.7667999267578 120.29212188720703 204.79843139648438 108.99787139892578 C 234.65565490722656 100.15084075927734 223.7854766845703 90.44798278808594 226.51400756835938 95.12931823730469" stroke-width="2.0" fill="none" stroke="rgb(0, 0, 0)" stroke-opacity="1" stroke-linecap="round" stroke-linejoin="round"/>
    <path d="M 130.59425354003906 103.42764282226562 C 112.84281158447266 82.46949005126953 126.2215576171875 87.97972869873047 120.57589721679688 119.9724349975586 C 117.92849731445312 49.24525451660156 115.55464935302734 117.28816986083984 115.09599304199219 123.21304321289062" stroke-width="2.0" fill="none" stroke="rgb(0, 0, 0)" stroke-opacity="1" stroke-linecap="round" stroke-linejoin="round"/>
    <path d="M 215.248291015625 69.57532501220703 C 220.4283905029297 48.39943313598633 221.42599487304688 69.82526397705078 209.35842895507812 74.74105072021484" stroke-width="2.0" fill="none" stroke="rgb(0, 0, 0)" stroke-opacity="1" stroke-linecap="round" stroke-linejoin="round"/>
    <path d="M 181.44314575195312 144.24842834472656 C 195.6322021484375 142.88864135742188 178.34251403808594 157.24134826660156 185.94674682617188 159.415283203125 C 186.0713653564453 164.42120361328125 221.8986053466797 149.3045196533203 182.48377990722656 166.96583557128906 C 188.7254180908203 141.6973419189453 208.0316925048828 155.7295379638672 192.99234008789062 143.52008056640625" stroke-width="2.0" fill="none" stroke="rgb(0, 0, 0)" stroke-opacity="1" stroke-linecap="round" stroke-linejoin="round"/>
    <path d="M 94.51077270507812 89.60626220703125 C 84.5351333618164 95.42005157470703 81.21590423583984 105.78047943115234 99.64891815185547 98.40902709960938 C 94.98006439208984 122.94603729248047 105.35228729248047 116.93692016601562 81.89299011230469 108.80941009521484" stroke-width="2.0" fill="none" stroke="rgb(0, 0, 0)" stroke-opacity="1" stroke-linecap="round" stroke-linejoin="round"/>
    <path d="M 128.39501953125 96.9355697631836 C 129.2307586669922 131.27001953125 128.17813110351562 90.22198486328125 124.31886291503906 117.19747161865234 C 154.51223754882812 140.54644775390625 134.4022979736328 128.67820739746094 111.02638244628906 126.90852355957031" stroke-width="2.0" fill="none" stroke="rgb(0, 0, 0)" stroke-opacity="1" stroke-linecap="round" stroke-linejoin="round"/>
    <path d="M 133.6998291015625 125.7740707397461 C 125.24716186523438 127.6257553100586 139.2312469482422 142.12481689453125 127.68981170654297 157.85626220703125 C 86.0901870727539 125.34781646728516 139.62989807128906 133.6922607421875 111.23072052001953 129.41331481933594" stroke-width="2.0" fill="none" stroke="rgb(0, 0, 0)" stroke-opacity="1" stroke-linecap="round" stroke-linejoin="round"/>
    <path d="M 194.28550720214844 88.35480499267578 C 170.2554473876953 83.60665130615234 182.17918395996094 91.48875427246094 211.57923889160156 112.94892120361328" stroke-width="2.0" fill="none" stroke="rgb(0, 0, 0)" stroke-opacity="1" stroke-linecap="round" stroke-linejoin="round"/>
    <path d="M 93.14698028564453 190.76565551757812 C 54.94419479370117 202.06698608398438 82.78307342529297 211.53355407714844 74.44792938232422 173.87738037109375 C 56.226890563964844 178.28775024414062 93.18994903564453 177.6127166748047 62.117591857910156 169.1410369873047" stroke-width="2.0" fill="none" stroke="rgb(0, 0, 0)" stroke-opacity="1" stroke-linecap="round" stroke-linejoin="round"/>
    <path d="M 11.852977752685547 44.55517578125 C 2.4774105548858643 15.527531623840332 3.512047529220581 28.144594192504883 23.983896255493164 60.29253387451172 C 36.63864517211914 25.890825271606445 12.502392768859863 22.890907287597656 5.19431209564209 28.48284149169922 C 23.7042236328125 42.25985336303711 29.358478546142578 25.871572494506836 15.368131637573242 22.197956085205078" stroke-width="2.0" fill="none" stroke="rgb(0, 0, 0)" stroke-opacity="1" stroke-linecap="round" stroke-linejoin="round"/>
    <path d="M 109.39234161376953 121.51213836669922 C 100.94184112548828 150.47872924804688 140.1281280517578 138.0067138671875 121.48184204101562 161.618896484375 C 111.8187255859375 133.93922424316406 121.64813232421875 124.35179138183594 118.27606201171875 133.62356567382812" stroke-width="2.0" fill="none" stroke="rgb(0, 0, 0)" stroke-opacity="1" stroke-linecap="round" stroke-linejoin="round"/>
    <path d="M 197.31488037109375 52.07088851928711 C 204.15036010742188 67.93312072753906 213.13743591308594 41.318077087402344 235.45709228515625 30.36613655090332 C 260.4845275878906 13.430541038513184 263.126220703125 16.773120880126953 272.4747619628906 25.49052619934082" stroke-width="2.0" fill="none" stroke="rgb(0, 0, 0)" stroke-opacity="1" stroke-linecap="round" stroke-linejoin="round"/>
    <path d="M 157.18545532226562 72.14356994628906 C 148.6841583251953 81.65632629394531 161.8032684326172 75.17147064208984 161.59783935546875 95.63606262207031" stroke-width="2.0" fill="none" stroke="rgb(0, 0, 0)" stroke-opacity="1" stroke-linecap="round" stroke-linejoin="round"/>
    <path d="M 128.1237030029297 230.23130798339844 C 153.1053924560547 225.03701782226562 158.4490203857422 230.49729919433594 162.7679901123047 237.959716796875 C 152.61328125 241.10549926757812 134.2971649169922 228.70281982421875 149.26760864257812 229.57797241210938 C 154.67416381835938 226.49217224121094 153.8274688720703 231.3737335205078 155.25408935546875 228.88482666015625" stroke-width="2.0" fill="none" stroke="rgb(0, 0, 0)" stroke-opacity="1" stroke-linecap="round" stroke-linejoin="round"/>
    <path d="M 153.66969299316406 156.81198120117188 C 140.40658569335938 161.27561950683594 133.28494262695312 157.1710205078125 162.681396484375 154.1070556640625 C 179.78958129882812 146.90538024902344 185.6723175048828 164.8715057373047 145.15182495117188 178.5795135498047 C 181.43365478515625 150.03419494628906 188.34910583496094 163.33900451660156 165.4817657470703 170.64256286621094" stroke-width="2.0" fill="none" stroke="rgb(0, 0, 0)" stroke-opacity="1" stroke-linecap="round" stroke-linejoin="round"/>
    <path d="M 125.21720886230469 180.90377807617188 C 137.73193359375 189.9607696533203 130.8172607421875 187.86546325683594 136.33872985839844 188.86215209960938 C 96.16146850585938 184.92945861816406 120.98268127441406 177.83168029785156 134.9506378173828 188.06687927246094" stroke-width="2.0" fill="none" stroke="rgb(0, 0, 0)" stroke-opacity="1" stroke-linecap="round" stroke-linejoin="round"/>
    <path d="M 227.71669006347656 138.2642822265625 C 227.7639617919922 165.7250518798828 221.4285888671875 168.67208862304688 229.83990478515625 158.3749237060547 C 222.3890380859375 142.23818969726562 229.65756225585938 138.64926147460938 237.85260009765625 131.90081787109375 C 228.49371337890625 133.62847900390625 230.2047119140625 123.85237884521484 236.67276000976562 132.51800537109375" stroke-width="2.0" fill="none" stroke="rgb(0, 0, 0)" stroke-opacity="1" stroke-linecap="round" stroke-linejoin="round"/>
    <path d="M 22.42862319946289 135.69097900390625 C 56.98857498168945 143.89697265625 50.269954681396484 152.11996459960938 11.140725135803223 161.6494598388672 C 15.779415130615234 132.43414306640625 17.944313049316406 152.2613983154297 20.619400024414062 162.20010375976562 C 7.577539920806885 162.69473266601562 7.622329235076904 183.34420776367188 17.003591537475586 144.9446563720703" stroke-width="2.0" fill="none" stroke="rgb(0, 0, 0)" stroke-opacity="1" stroke-linecap="round" stroke-linejoin="round"/>
    <path d="M 90.57271575927734 207.74307250976562 C 65.99791717529297 195.5257110595703 57.57874298095703 199.51022338867188 63.69061279296875 169.146484375 C 58.62888717651367 192.41297912597656 46.61321258544922 197.36236572265625 71.0406723022461 209.66761779785156 C 46.000877380371094 191.1905059814453 92.21023559570312 198.78408813476562 58.31747817993164 205.41102600097656" stroke-width="2.0" fill="none" stroke="rgb(0, 0, 0)" stroke-opacity="1" stroke-linecap="round" stroke-linejoin="round"/>
    <path d="M 151.84693908691406 202.2196502685547 C 135.90261840820312 217.78424072265625 192.58029174804688 200.09490966796875 163.57693481445312 204.1355438232422 C 151.9360809326172 193.07371520996094 154.0240478515625 192.1747589111328 153.24972534179688 218.8247833251953" stroke-width="2.0" fill="none" stroke="rgb(0, 0, 0)" stroke-opacity="1" stroke-linecap="round" stroke-linejoin="round"/>
    <path d="M 61.974082946777344 200.12069702148438 C 30.379257202148438 223.6846923828125 -3.3501594066619873 201.19325256347656 52.127498626708984 200.97384643554688 C 26.71632957458496 202.3223419189453 -3.951084613800049 202.241455078125 51.13876724243164 208.77284240722656 C 3.266049385070801 179.5664520263672 26.43314552307129 202.71926879882812 26.029029846191406 199.99256896972656" stroke-width="2.0" fill="none" stroke="rgb(0, 0, 0)" stroke-opacity="1" stroke-linecap="round" stroke-linejoin="round"/>
    <path d="M 157.82955932617188 124.5963134765625 C 182.5684051513672 119.0476303100586 161.10987854003906 122.87081909179688 165.14651489257812 146.55804443359375" stroke-width="2.0" fill="none" stroke="rgb(0, 0, 0)" stroke-opacity="1" stroke-linecap="round" stroke-linejoin="round"/>
    <path d="M 36.7327995300293 181.62171936035156 C 41.42254638671875 180.00802612304688 37.655418395996094 186.11341857910156 37.519508361816406 180.94818115234375" stroke-width="2.0" fill="none" stroke="rgb(0, 0, 0)" stroke-opacity="1" stroke-linecap="round" stroke-linejoin="round"/>
    <path d="M 103.78581237792969 192.8904571533203 C 143.633056640625 195.8795623779297 143.46942138671875 190.32044982910156 104.61863708496094 189.84490966796875 C 138.8643798828125 174.03211975097656 154.1173095703125 180.05252075195312 135.2293243408203 162.2117462158203" stroke-width="2.0" fill="none" stroke="rgb(0, 0, 0)" stroke-opacity="1" stroke-linecap="round" stroke-linejoin="round"/>
    <path d="M 172.662109375 52.21186065673828 C 175.78604125976562 72.33039855957031 173.7128143310547 47.51351547241211 184.4030303955078 32.4879150390625" stroke-width="2.0" fill="none" stroke="rgb(0, 0, 0)" stroke-opacity="1" stroke-linecap="round" stroke-linejoin="round"/>
    <path d="M 69.37297058105469 195.16432189941406 C 41.89472198486328 206.65631103515625 64.82353973388672 201.67626953125 86.30809020996094 209.6394805908203" stroke-width="2.0" fill="none" stroke="rgb(0, 0, 0)" stroke-opacity="1" stroke-linecap="round" stroke-linejoin="round"/>
    <path d="M 111.04155731201172 -1.4606108665466309 C 153.69447326660156 -5.172433853149414 129.20315551757812 1.7903995513916016 104.69904327392578 -8.233799934387207 C 116.9287338256836 -14.375697135925293 118.41267395019531 -13.73063850402832 117.9105224609375 -13.081801414489746" stroke-width="2.0" fill="none" stroke="rgb(0, 0, 0)" stroke-opacity="1" stroke-linecap="round" stroke-linejoin="round"/>
    <path d="M 163.13330078125 60.605987548828125 C 156.01654052734375 109.41592407226562 165.6671905517578 53.53536605834961 208.0884246826172 85.08613586425781 C 217.17491149902344 101.01200866699219 180.61761474609375 62.42367172241211 172.84857177734375 91.04911804199219 C 140.84991455078125 80.097412109375 204.09481811523438 82.95263671875 203.21224975585938 86.35091400146484" stroke-width="2.0" fill="none" stroke="rgb(0, 0, 0)" stroke-opacity="1" stroke-linecap="round" stroke-linejoin="round"/>
    <path d="M 97.02994537353516 185.70660400390625 C 106.21129608154297 210.71336364746094 77.74297332763672 207.63711547851562 80.35236358642578 188.15463256835938 C 74.4395980834961 185.2141571044922 64.25325775146484 201.39480590820312 44.88276290893555 186.9366455078125" stroke-width="2.0" fill="none" stroke="rgb(0, 0, 0)" stroke-opacity="1" stroke-linecap="round" stroke-linejoin="round"/>
    <path d="M 105.50202178955078 70.91470336914062 C 130.47377014160156 75.34613037109375 132.68218994140625 78.29043579101562 120.77828979492188 45.28243637084961 C 146.98703002929688 65.3442611694336 121.48936462402344 42.89619064331055 117.21102905273438 60.022586822509766" stroke-width="2.0" fill="none" stroke="rgb(0, 0, 0)" stroke-opacity="1" stroke-linecap="round" stroke-linejoin="round"/>
  </g>
</svg>
