<?xml version="1.0" ?>
<svg xmlns="http://www.w3.org/2000/svg" version="1.1" width="224" height="224">
  <defs/>
  <g>
    <path d="M 128.0641632080078 201.2624053955078 C 109.13941955566406 182.6276092529297 97.95809173583984 197.25392150878906 93.03836822509766 199.45574951171875 C 112.32270812988281 181.02566528320312 106.86917877197266 202.83737182617188 117.61599731445312 186.79263305664062 C 105.30743408203125 202.92449951171875 104.74723815917969 201.4618682861328 111.60690307617188 192.5177764892578" stroke-width="2.0" fill="none" stroke="rgb(0, 0, 0)" stroke-opacity="1" stroke-linecap="round" stroke-linejoin="round"/>
    <path d="M 172.75491333007812 205.82691955566406 C 166.01681518554688 217.03501892089844 165.83265686035156 203.94374084472656 163.3225555419922 202.0083465576172" stroke-width="2.0" fill="none" stroke="rgb(0, 0, 0)" stroke-opacity="1" stroke-linecap="round" stroke-linejoin="round"/>
    <path d="M 86.74514770507812 115.38674926757812 C 69.57391357421875 77.83293151855469 82.85330963134766 95.54251861572266 78.58853912353516 103.35183715820312 C 83.05626678466797 124.51823425292969 88.7740478515625 128.83009338378906 85.40171813964844 122.1001205444336" stroke-width="2.0" fill="none" stroke="rgb(0, 0, 0)" stroke-opacity="1" stroke-linecap="round" stroke-linejoin="round"/>
    <path d="M 122.25603485107422 149.23577880859375 C 123.04876708984375 129.20603942871094 128.6820831298828 147.22891235351562 121.3309097290039 143.77972412109375 C 134.13723754882812 158.1495361328125 144.50010681152344 155.11785888671875 144.72552490234375 146.0703887939453" stroke-width="2.0" fill="none" stroke="rgb(0, 0, 0)" stroke-opacity="1" stroke-linecap="round" stroke-linejoin="round"/>
    <path d="M 53.90268325805664 -0.08141036331653595 C 68.17406463623047 24.698749542236328 83.50361633300781 -10.535569190979004 74.8249282836914 16.471128463745117" stroke-width="2.0" fill="none" stroke="rgb(0, 0, 0)" stroke-opacity="1" stroke-linecap="round" stroke-linejoin="round"/>
    <path d="M 71.76236724853516 239.3560028076172 C 68.92408752441406 225.59352111816406 98.02845001220703 207.7098388671875 102.21851348876953 186.29981994628906 C 91.44475555419922 224.82305908203125 86.81989288330078 223.87518310546875 92.3606185913086 199.1331787109375" stroke-width="2.0" fill="none" stroke="rgb(0, 0, 0)" stroke-opacity="1" stroke-linecap="round" stroke-linejoin="round"/>
    <path d="M 214.238037109375 101.975830078125 C 208.56642150878906 124.02246856689453 180.2241973876953 131.9039764404297 220.1913604736328 126.56273651123047 C 215.9109344482422 116.79912567138672 200.15472412109375 137.76478576660156 233.8931884765625 127.92676544189453 C 247.89108276367188 97.34648895263672 258.7518310546875 93.91251373291016 266.1695861816406 84.44554138183594" stroke-width="2.0" fill="none" stroke="rgb(0, 0, 0)" stroke-opacity="1" stroke-linecap="round" stroke-linejoin="round"/>
    <path d="M 73.84907531738281 177.18028259277344 C 84.30159759521484 169.6377410888672 79.36164093017578 166.3489532470703 70.07733917236328 181.84616088867188 C 95.2381591796875 165.48907470703125 112.31771087646484 137.66671752929688 95.05378723144531 161.76585388183594" stroke-width="2.0" fill="none" stroke="rgb(0, 0, 0)" stroke-opacity="1" stroke-linecap="round" stroke-linejoin="round"/>
    <path d="M 167.25103759765625 162.46676635742188 C 192.5078125 192.6586151123047 206.05923461914062 189.93759155273438 187.26821899414062 181.18734741210938" stroke-width="2.0" fill="none" stroke="rgb(0, 0, 0)" stroke-opacity="1" stroke-linecap="round" stroke-linejoin="round"/>
    <path d="M 28.25145721435547 44.9747428894043 C 79.19657897949219 43.3020133972168 111.1563720703125 65.94011688232422 34.963497161865234 43.5004997253418 C 44.13875198364258 37.57327651977539 29.719467163085938 48.21714401245117 46.51005935668945 48.16926956176758 C 23.893218994140625 40.61224365234375 24.984769821166992 41.286521911621094 16.274965286254883 34.90876770019531" stroke-width="2.0" fill="none" stroke="rgb(0, 0, 0)" stroke-opacity="1" stroke-linecap="round" stroke-linejoin="round"/>
    <path d="M 207.6992950439453 14.09607219696045 C 189.25112915039062 13.94811725616455 180.6500244140625 10.80558967590332 200.4910430908203 13.682336807250977" stroke-width="2.0" fill="none" stroke="rgb(0, 0, 0)" stroke-opacity="1" stroke-linecap="round" stroke-linejoin="round"/>
    <path d="M 25.74315643310547 149.23753356933594 C 33.427513122558594 145.90968322753906 49.4376106262207 151.26165771484375 49.47272872924805 134.00338745117188 C 56.404415130615234 145.34429931640625 36.046714782714844 147.3620147705078 8.180426597595215 165.22201538085938 C 29.141407012939453 143.61245727539062 40.1090087890625 133.11642456054688 28.827791213989258 148.8415985107422" stroke-width="2.0" fill="none" stroke="rgb(0, 0, 0)" stroke-opacity="1" stroke-linecap="round" stroke-linejoin="round"/>
    <path d="M 18.596357345581055 58.0361442565918 C 30.571441650390625 44.43716049194336 28.29201316833496 44.84931945800781 26.287811279296875 45.448387145996094 C 33.31821823120117 41.09373092651367 32.967559814453125 36.35664367675781 45.19425964355469 39.8916015625 C 29.982973098754883 28.104412078857422 23.989774703979492 40.068607330322266 34.653419494628906 46.150672912597656" stroke-width="2.0" fill="none" stroke="rgb(0, 0, 0)" stroke-opacity="1" stroke-linecap="round" stroke-linejoin="round"/>
    <path d="M 96.04059600830078 198.18984985351562 C 62.89347457885742 178.87318420410156 101.4365234375 168.6682586669922 81.16549682617188 184.6551513671875 C 71.00470733642578 174.68801879882812 81.91279602050781 162.55393981933594 80.1371841430664 177.39544677734375" stroke-width="2.0" fill="none" stroke="rgb(0, 0, 0)" stroke-opacity="1" stroke-linecap="round" stroke-linejoin="round"/>
    <path d="M 77.58219146728516 -2.4087703227996826 C 69.43315124511719 -6.020342826843262 63.42518997192383 -7.0889739990234375 64.28023529052734 -13.275895118713379" stroke-width="2.0" fill="none" stroke="rgb(0, 0, 0)" stroke-opacity="1" stroke-linecap="round" stroke-linejoin="round"/>
    <path d="M 58.444114685058594 2.35528302192688 C 20.97893714904785 6.1359124183654785 65.654541015625 9.123733520507812 70.05358123779297 6.85510778427124" stroke-width="2.0" fill="none" stroke="rgb(0, 0, 0)" stroke-opacity="1" stroke-linecap="round" stroke-linejoin="round"/>
    <path d="M 33.97441482543945 37.2811393737793 C 24.163480758666992 55.44374084472656 48.4504508972168 44.69194793701172 44.985931396484375 31.989288330078125 C 33.07316207885742 46.26741409301758 51.87569808959961 34.54579162597656 24.863056182861328 37.644142150878906" stroke-width="2.0" fill="none" stroke="rgb(0, 0, 0)" stroke-opacity="1" stroke-linecap="round" stroke-linejoin="round"/>
    <path d="M 211.74522399902344 0.20726783573627472 C 228.78305053710938 -4.993593692779541 228.30921936035156 22.886192321777344 222.9549560546875 -0.9491599202156067 C 188.35243225097656 -12.83362865447998 169.3170623779297 -4.791653156280518 175.3321990966797 -11.454394340515137" stroke-width="2.0" fill="none" stroke="rgb(0, 0, 0)" stroke-opacity="1" stroke-linecap="round" stroke-linejoin="round"/>
    <path d="M 189.9846954345703 229.3933868408203 C 215.26998901367188 228.33351135253906 207.08139038085938 223.66705322265625 207.07386779785156 234.12966918945312" stroke-width="2.0" fill="none" stroke="rgb(0, 0, 0)" stroke-opacity="1" stroke-linecap="round" stroke-linejoin="round"/>
    <path d="M 135.08470153808594 133.48223876953125 C 124.50212860107422 119.34779357910156 162.84072875976562 110.77072143554688 132.3043212890625 117.02617645263672 C 140.34249877929688 124.32991027832031 146.01039123535156 117.13407135009766 137.8760986328125 101.31745147705078" stroke-width="2.0" fill="none" stroke="rgb(0, 0, 0)" stroke-opacity="1" stroke-linecap="round" stroke-linejoin="round"/>
    <path d="M 66.31474304199219 24.57373046875 C 84.02423095703125 41.631195068359375 68.05673217773438 30.198976516723633 64.69600677490234 45.63920211791992" stroke-width="2.0" fill="none" stroke="rgb(0, 0, 0)" stroke-opacity="1" stroke-linecap="round" stroke-linejoin="round"/>
    <path d="M 143.03082275390625 129.1367645263672 C 126.25469207763672 115.16634368896484 124.72447204589844 126.72640991210938 136.81527709960938 129.36741638183594" stroke-width="2.0" fill="none" stroke="rgb(0, 0, 0)" stroke-opacity="1" stroke-linecap="round" stroke-linejoin="round"/>
    <path d="M 163.7107696533203 136.4566650390625 C 149.03634643554688 123.59542846679688 149.8104248046875 118.88745880126953 157.35250854492188 119.40145111083984 C 137.38597106933594 127.07392883300781 133.62130737304688 111.54532623291016 141.06027221679688 80.3900375366211" stroke-width="2.0" fill="none" stroke="rgb(0, 0, 0)" stroke-opacity="1" stroke-linecap="round" stroke-linejoin="round"/>
    <path d="M 173.34320068359375 45.94682312011719 C 180.56411743164062 54.29252624511719 183.44000244140625 57.061676025390625 168.62852478027344 56.53972625732422 C 158.83734130859375 51.55028533935547 188.64466857910156 52.0834846496582 216.18756103515625 41.15773391723633 C 184.536376953125 51.88603210449219 186.4862518310547 56.949317932128906 209.53807067871094 44.694129943847656" stroke-width="2.0" fill="none" stroke="rgb(0, 0, 0)" stroke-opacity="1" stroke-linecap="round" stroke-linejoin="round"/>
    <path d="M 15.19118881225586 190.46908569335938 C 25.31331443786621 212.82586669921875 10.616378784179688 203.56211853027344 19.155899047851562 199.98463439941406 C 1.6712117195129395 212.47177124023438 6.803417205810547 201.49871826171875 21.22347640991211 202.6135711669922 C 26.71283531188965 204.0977325439453 7.557842254638672 203.31785583496094 -12.52430248260498 208.64215087890625" stroke-width="2.0" fill="none" stroke="rgb(0, 0, 0)" stroke-opacity="1" stroke-linecap="round" stroke-linejoin="round"/>
    <path d="M 105.7313461303711 190.66392517089844 C 98.00637817382812 208.48818969726562 121.0868148803711 197.46566772460938 82.38960266113281 204.41180419921875 C 112.36773681640625 185.52220153808594 134.51966857910156 178.26077270507812 113.83928680419922 188.9965057373047" stroke-width="2.0" fill="none" stroke="rgb(0, 0, 0)" stroke-opacity="1" stroke-linecap="round" stroke-linejoin="round"/>
    <path d="M 70.17865753173828 45.940834045410156 C 52.586360931396484 46.59685134887695 62.51915740966797 76.29039764404297 74.13725280761719 79.04338073730469" stroke-width="2.0" fill="none" stroke="rgb(0, 0, 0)" stroke-opacity="1" stroke-linecap="round" stroke-linejoin="round"/>
    <path d="M 172.0112762451172 18.296424865722656 C 207.28567504882812 30.61042022705078 232.12503051757812 4.987575054168701 204.4718017578125 15.533842086791992" stroke-width="2.0" fill="none" stroke="rgb(0, 0, 0)" stroke-opacity="1" stroke-linecap="round" stroke-linejoin="round"/>
    <path d="M -2.707146644592285 53.723175048828125 C 0.6670520901679993 51.01382064819336 -0.7096562385559082 51.0864372253418 -10.818246841430664 48.6948356628418 C -11.594423294067383 46.56786346435547 -7.04583215713501 48.59730529785156 -7.880255699157715 39.50633239746094" stroke-width="2.0" fill="none" stroke="rgb(0, 0, 0)" stroke-opacity="1" stroke-linecap="round" stroke-linejoin="round"/>
    <path d="M 126.18612670898438 51.82006072998047 C 116.22764587402344 23.66912269592285 136.9866180419922 25.72850799560547 122.8967514038086 32.075782775878906 C 139.2607879638672 26.775146484375 131.51185607910156 38.32973098754883 96.05897521972656 29.99090576171875" stroke-width="2.0" fill="none" stroke="rgb(0, 0, 0)" stroke-opacity="1" stroke-linecap="round" stroke-linejoin="round"/>
    <path d="M 232.59178161621094 36.85636901855469 C 235.32481384277344 40.52766036987305 242.1866912841797 35.80632019042969 235.92001342773438 31.484338760375977 C 237.94186401367188 19.305952072143555 238.50575256347656 9.283300399780273 229.96932983398438 -0.048484399914741516 C 234.02383422851562 -7.178062438964844 230.38858032226562 -2.992812395095825 235.00643920898438 -7.418133735656738" stroke-width="2.0" fill="none" stroke="rgb(0, 0, 0)" stroke-opacity="1" stroke-linecap="round" stroke-linejoin="round"/>
    <path d="M 205.39035034179688 105.97991943359375 C 189.28768920898438 124.33103942871094 200.5377197265625 96.76116180419922 213.7955780029297 110.0630111694336 C 190.52682495117188 101.97994995117188 175.65184020996094 92.45777130126953 152.59292602539062 86.32792663574219 C 215.54296875 101.7441635131836 177.89825439453125 104.44428253173828 186.7894287109375 58.73768615722656" stroke-width="2.0" fill="none" stroke="rgb(0, 0, 0)" stroke-opacity="1" stroke-linecap="round" stroke-linejoin="round"/>
    <path d="M 70.11125183105469 186.5948944091797 C 55.99247360229492 174.52407836914062 66.70468139648438 171.07704162597656 46.28706359863281 201.0205841064453 C 68.10498809814453 190.5989227294922 34.21560287475586 176.79025268554688 58.27037048339844 208.43492126464844" stroke-width="2.0" fill="none" stroke="rgb(0, 0, 0)" stroke-opacity="1" stroke-linecap="round" stroke-linejoin="round"/>
    <path d="M 181.43670654296875 158.6857452392578 C 190.63540649414062 170.61329650878906 178.9073486328125 154.63055419921875 156.25479125976562 133.86366271972656 C 157.7568817138672 133.98829650878906 164.55616760253906 150.96287536621094 153.77017211914062 137.7404022216797" stroke-width="2.0" fill="none" stroke="rgb(0, 0, 0)" stroke-opacity="1" stroke-linecap="round" stroke-linejoin="round"/>
    <path d="M 20.40125846862793 154.47447204589844 C 18.499977111816406 154.82052612304688 25.64913558959961 170.3580780029297 19.471248626708984 143.806640625 C 3.05788516998291 161.22415161132812 -5.274813652038574 168.82969665527344 30.877643585205078 147.9540557861328 C 7.060271263122559 164.2708282470703 10.181941032409668 165.47549438476562 14.129460334777832 153.7813720703125" stroke-width="2.0" fill="none" stroke="rgb(0, 0, 0)" stroke-opacity="1" stroke-linecap="round" stroke-linejoin="round"/>
    <path d="M 29.866764068603516 83.84793090820312 C 38.01255416870117 45.949039459228516 31.655603408813477 49.99695587158203 29.949338912963867 66.28179168701172 C 42.52459716796875 28.171077728271484 23.037012100219727 37.37921905517578 30.5405216217041 33.91736602783203" stroke-width="2.0" fill="none" stroke="rgb(0, 0, 0)" stroke-opacity="1" stroke-linecap="round" stroke-linejoin="round"/>
    <path d="M 200.72520446777344 21.444616317749023 C 206.44552612304688 2.433168411254883 160.8606414794922 26.96308708190918 176.43833923339844 11.680858612060547" stroke-width="2.0" fill="none" stroke="rgb(0, 0, 0)" stroke-opacity="1" stroke-linecap="round" stroke-linejoin="round"/>
    <path d="M 217.755859375 14.817195892333984 C 214.41529846191406 69.62220764160156 224.07415771484375 27.99568748474121 204.70748901367188 45.64966583251953 C 202.74163818359375 55.689308166503906 201.59825134277344 48.9194221496582 229.9726104736328 33.36830139160156 C 233.92648315429688 36.5677375793457 231.76580810546875 30.240320205688477 235.255126953125 24.751705169677734" stroke-width="2.0" fill="none" stroke="rgb(0, 0, 0)" stroke-opacity="1" stroke-linecap="round" stroke-linejoin="round"/>
    <path d="M 72.91416931152344 16.114042282104492 C 121.22333526611328 34.390316009521484 108.16058349609375 33.68364715576172 82.51768493652344 24.32486343383789 C 72.56905364990234 21.904287338256836 92.04701232910156 18.988758087158203 131.60951232910156 35.974857330322266 C 90.45227813720703 29.243209838867188 78.29934692382812 13.216580390930176 129.7775421142578 33.819786071777344" stroke-width="2.0" fill="none" stroke="rgb(0, 0, 0)" stroke-opacity="1" stroke-linecap="round" stroke-linejoin="round"/>
    <path d="M 144.61514282226562 43.05274200439453 C 151.6644744873047 66.09230041503906 140.15179443359375 1.5758763551712036 145.30320739746094 6.345693588256836 C 134.6895294189453 6.230092525482178 148.30548095703125 12.907973289489746 150.9849395751953 14.833685874938965" stroke-width="2.0" fill="none" stroke="rgb(0, 0, 0)" stroke-opacity="1" stroke-linecap="round" stroke-linejoin="round"/>
    <path d="M 203.55076599121094 156.5238037109375 C 182.853759765625 135.55226135253906 196.06166076660156 145.32489013671875 205.50341796875 175.8939971923828 C 219.28451538085938 181.46942138671875 210.47959899902344 163.9830322265625 211.1311798095703 165.92845153808594 C 224.8861541748047 124.19318389892578 205.21730041503906 124.23075103759766 234.87371826171875 135.401123046875" stroke-width="2.0" fill="none" stroke="rgb(0, 0, 0)" stroke-opacity="1" stroke-linecap="round" stroke-linejoin="round"/>
    <path d="M 40.28053283691406 118.63101196289062 C 31.455116271972656 98.86764526367188 61.115360260009766 132.14364624023438 26.294605255126953 138.3056640625 C 70.42327880859375 104.60037231445312 64.3469009399414 113.33956909179688 15.814826965332031 138.64218139648438 C 51.24003219604492 132.61195373535156 23.82282257080078 142.46969604492188 13.520602226257324 117.13277435302734" stroke-width="2.0" fill="none" stroke="rgb(0, 0, 0)" stroke-opacity="1" stroke-linecap="round" stroke-linejoin="round"/>
    <path d="M 124.11415100097656 145.7958526611328 C 132.8848876953125 146.48281860351562 114.61046600341797 142.48936462402344 140.50074768066406 169.85816955566406 C 127.45648193359375 167.2081756591797 157.97752380371094 184.9556427001953 134.15623474121094 155.2532958984375 C 153.49522399902344 163.53143310546875 153.83001708984375 174.74517822265625 165.9832000732422 190.93479919433594" stroke-width="2.0" fill="none" stroke="rgb(0, 0, 0)" stroke-opacity="1" stroke-linecap="round" stroke-linejoin="round"/>
    <path d="M 2.9653077125549316 73.9056167602539 C 2.2649970054626465 91.68749237060547 3.69429612159729 127.43059539794922 -5.936861515045166 113.72623443603516 C 3.706651210784912 70.16356658935547 -2.243942975997925 78.83757781982422 -14.13356876373291 100.86693572998047 C -16.41228485107422 84.97295379638672 0.5047651529312134 87.63668823242188 18.683212280273438 93.13322448730469" stroke-width="2.0" fill="none" stroke="rgb(0, 0, 0)" stroke-opacity="1" stroke-linecap="round" stroke-linejoin="round"/>
    <path d="M 137.83314514160156 100.95552825927734 C 142.9268798828125 129.0122833251953 136.7806854248047 125.02037048339844 137.53256225585938 116.83580780029297" stroke-width="2.0" fill="none" stroke="rgb(0, 0, 0)" stroke-opacity="1" stroke-linecap="round" stroke-linejoin="round"/>
    <path d="M 51.96092987060547 59.60987854003906 C 64.7926254272461 31.639005661010742 70.61102294921875 53.43339538574219 37.211116790771484 37.88127136230469 C 23.041399002075195 42.52626037597656 46.44991683959961 54.5191650390625 33.96554183959961 29.574249267578125 C 27.53218650817871 38.215675354003906 30.962610244750977 32.87908172607422 68.9413833618164 48.038368225097656" stroke-width="2.0" fill="none" stroke="rgb(0, 0, 0)" stroke-opacity="1" stroke-linecap="round" stroke-linejoin="round"/>
    <path d="M 46.333492279052734 -5.648867607116699 C 52.64482498168945 19.72269058227539 63.86232376098633 -13.14259147644043 51.80918502807617 -3.276667594909668 C 30.30626106262207 4.130664825439453 54.823177337646484 -4.11248779296875 63.103736877441406 -1.4240344762802124" stroke-width="2.0" fill="none" stroke="rgb(0, 0, 0)" stroke-opacity="1" stroke-linecap="round" stroke-linejoin="round"/>
    <path d="M 177.40814208984375 54.15974044799805 C 206.17578125 40.774417877197266 217.8044891357422 45.5809326171875 216.69223022460938 38.39650344848633 C 220.6883087158203 49.46669387817383 198.12416076660156 83.1854019165039 216.93557739257812 71.81914520263672 C 218.5629425048828 82.47120666503906 208.53297424316406 71.31159210205078 182.74917602539062 66.50774383544922" stroke-width="2.0" fill="none" stroke="rgb(0, 0, 0)" stroke-opacity="1" stroke-linecap="round" stroke-linejoin="round"/>
    <path d="M 48.79205322265625 44.48631286621094 C 79.31084442138672 5.7414398193359375 93.95533752441406 1.4049060344696045 57.70774841308594 5.295883655548096" stroke-width="2.0" fill="none" stroke="rgb(0, 0, 0)" stroke-opacity="1" stroke-linecap="round" stroke-linejoin="round"/>
    <path d="M 141.18780517578125 8.79504108428955 C 142.91934204101562 75.40839385986328 153.05262756347656 65.04254913330078 137.4110565185547 55.89620590209961 C 144.9040069580078 73.36324310302734 152.87655639648438 38.6208610534668 145.81243896484375 42.18189239501953" stroke-width="2.0" fill="none" stroke="rgb(0, 0, 0)" stroke-opacity="1" stroke-linecap="round" stroke-linejoin="round"/>
    <path d="M 109.72866821289062 3.2980735301971436 C 93.60362243652344 -1.9533460140228271 103.70577239990234 -7.811196804046631 134.27146911621094 21.426700592041016" stroke-width="2.0" fill="none" stroke="rgb(0, 0, 0)" stroke-opacity="1" stroke-linecap="round" stroke-linejoin="round"/>
    <path d="M 13.037399291992188 203.8967742919922 C 33.5151481628418 203.30267333984375 31.891416549682617 191.76852416992188 31.80554962158203 198.12118530273438 C 18.821292877197266 202.9917449951172 -6.501476764678955 200.06353759765625 6.0023980140686035 229.0420684814453" stroke-width="2.0" fill="none" stroke="rgb(0, 0, 0)" stroke-opacity="1" stroke-linecap="round" stroke-linejoin="round"/>
    <path d="M 175.3163299560547 214.76478576660156 C 178.7363739013672 200.52230834960938 177.48153686523438 210.99961853027344 179.23944091796875 208.55531311035156" stroke-width="2.0" fill="none" stroke="rgb(0, 0, 0)" stroke-opacity="1" stroke-linecap="round" stroke-linejoin="round"/>
    <path d="M 58.08647537231445 99.485107421875 C 49.4127197265625 89.6185302734375 44.1547966003418 117.93616485595703 47.57032012939453 96.79948425292969" stroke-width="2.0" fill="none" stroke="rgb(0, 0, 0)" stroke-opacity="1" stroke-linecap="round" stroke-linejoin="round"/>
    <path d="M 14.081398010253906 88.27320098876953 C -2.1414170265197754 96.90001678466797 58.53160858154297 77.02760314941406 35.98661422729492 94.4289321899414" stroke-width="2.0" fill="none" stroke="rgb(0, 0, 0)" stroke-opacity="1" stroke-linecap="round" stroke-linejoin="round"/>
    <path d="M 234.3607635498047 128.0532684326172 C 215.12179565429688 132.73388671875 213.9901885986328 128.23220825195312 220.9884796142578 127.7867431640625 C 214.50372314453125 158.3560028076172 218.73077392578125 129.58558654785156 217.43069458007812 131.90777587890625 C 244.9558868408203 146.9761505126953 251.3542938232422 138.4993438720703 250.31747436523438 143.96194458007812" stroke-width="2.0" fill="none" stroke="rgb(0, 0, 0)" stroke-opacity="1" stroke-linecap="round" stroke-linejoin="round"/>
    <path d="M 132.6141357421875 57.42735290527344 C 108.20941925048828 54.079833984375 105.28195190429688 60.54890060424805 148.25270080566406 51.48269271850586" stroke-width="2.0" fill="none" stroke="rgb(0, 0, 0)" stroke-opacity="1" stroke-linecap="round" stroke-linejoin="round"/>
    <path d="M 151.56582641601562 168.31573486328125 C 122.56988525390625 187.0169219970703 128.49444580078125 183.45672607421875 162.51271057128906 164.99407958984375 C 124.12129211425781 182.51991271972656 124.57864379882812 179.54718017578125 146.65989685058594 162.00413513183594 C 154.84402465820312 195.75965881347656 133.79330444335938 152.68923950195312 154.9456787109375 166.62237548828125" stroke-width="2.0" fill="none" stroke="rgb(0, 0, 0)" stroke-opacity="1" stroke-linecap="round" stroke-linejoin="round"/>
    <path d="M 199.3720245361328 184.62396240234375 C 182.1512908935547 176.3961944580078 202.35946655273438 177.88710021972656 184.05059814453125 186.92555236816406 C 208.8257293701172 178.7063751220703 192.3245086669922 162.99954223632812 210.84182739257812 202.44009399414062" stroke-width="2.0" fill="none" stroke="rgb(0, 0, 0)" stroke-opacity="1" stroke-linecap="round" stroke-linejoin="round"/>
    <path d="M -4.739291191101074 173.7521209716797 C -2.337064027786255 151.63758850097656 21.154184341430664 135.609375 12.658980369567871 144.41824340820312 C 21.85291290283203 163.90621948242188 25.199417114257812 158.4470977783203 28.81264877319336 150.5645294189453" stroke-width="2.0" fill="none" stroke="rgb(0, 0, 0)" stroke-opacity="1" stroke-linecap="round" stroke-linejoin="round"/>
    <path d="M 44.31864929199219 51.19406509399414 C 39.76942443847656 46.455989837646484 39.1904296875 47.67073440551758 73.94760131835938 56.911354064941406 C 64.5643539428711 28.764760971069336 62.7491455078125 68.48360443115234 44.78757858276367 42.682579040527344" stroke-width="2.0" fill="none" stroke="rgb(0, 0, 0)" stroke-opacity="1" stroke-linecap="round" stroke-linejoin="round"/>
    <path d="M 18.054075241088867 204.4718475341797 C 61.42556381225586 189.8997344970703 50.180686950683594 172.0675506591797 36.86918258666992 226.0931396484375 C 16.947629928588867 233.73704528808594 24.431915283203125 228.98538208007812 22.675559997558594 236.02694702148438 C 37.624305725097656 224.752197265625 14.428199768066406 218.3800811767578 10.113414764404297 228.04437255859375" stroke-width="2.0" fill="none" stroke="rgb(0, 0, 0)" stroke-opacity="1" stroke-linecap="round" stroke-linejoin="round"/>
    <path d="M 181.96697998046875 126.08387756347656 C 168.553955078125 137.9832000732422 190.5964813232422 159.93746948242188 164.69622802734375 139.3961944580078 C 195.29617309570312 169.81065368652344 186.75445556640625 145.6541748046875 172.52296447753906 167.5695037841797 C 177.31198120117188 174.39273071289062 182.702392578125 179.7954864501953 172.08636474609375 167.2838134765625" stroke-width="2.0" fill="none" stroke="rgb(0, 0, 0)" stroke-opacity="1" stroke-linecap="round" stroke-linejoin="round"/>
    <path d="M 159.7069549560547 36.653865814208984 C 182.01358032226562 64.42800903320312 164.79612731933594 48.972530364990234 197.7698516845703 46.72947692871094 C 198.54876708984375 10.089469909667969 198.67103576660156 34.152061462402344 197.6670684814453 47.19301986694336 C 233.01092529296875 36.818702697753906 192.7017059326172 40.49724578857422 165.96669006347656 53.00978469848633" stroke-width="2.0" fill="none" stroke="rgb(0, 0, 0)" stroke-opacity="1" stroke-linecap="round" stroke-linejoin="round"/>
    <path d="M 132.87060546875 154.6298370361328 C 143.16015625 137.54385375976562 140.1217041015625 174.23956298828125 126.36750030517578 140.85862731933594" stroke-width="2.0" fill="none" stroke="rgb(0, 0, 0)" stroke-opacity="1" stroke-linecap="round" stroke-linejoin="round"/>
    <path d="M 14.112855911254883 4.925726413726807 C 4.72468900680542 2.4204604625701904 7.4081597328186035 9.880244255065918 12.639849662780762 6.969524383544922" stroke-width="2.0" fill="none" stroke="rgb(0, 0, 0)" stroke-opacity="1" stroke-linecap="round" stroke-linejoin="round"/>
    <path d="M 51.410858154296875 197.49510192871094 C 50.41447830200195 203.52447509765625 44.839691162109375 209.49974060058594 41.573516845703125 196.38864135742188" stroke-width="2.0" fill="none" stroke="rgb(0, 0, 0)" stroke-opacity="1" stroke-linecap="round" stroke-linejoin="round"/>
    <path d="M 130.0862579345703 77.12059783935547 C 176.89352416992188 90.85990142822266 170.38796997070312 72.79276275634766 154.27426147460938 101.4464111328125" stroke-width="2.0" fill="none" stroke="rgb(0, 0, 0)" stroke-opacity="1" stroke-linecap="round" stroke-linejoin="round"/>
    <path d="M 134.50233459472656 106.41990661621094 C 136.00962829589844 114.67105865478516 145.9648895263672 132.04898071289062 121.00270080566406 120.78971099853516 C 136.5497283935547 112.18324279785156 142.6020050048828 124.15516662597656 132.7542724609375 111.57217407226562 C 136.78111267089844 129.3238067626953 119.7518310546875 111.07365417480469 109.51360321044922 102.91870880126953" stroke-width="2.0" fill="none" stroke="rgb(0, 0, 0)" stroke-opacity="1" stroke-linecap="round" stroke-linejoin="round"/>
    <path d="M 93.82743072509766 78.73479461669922 C 111.32493591308594 89.0782241821289 84.63294982910156 88.05191040039062 114.74205780029297 111.79763793945312" stroke-width="2.0" fill="none" stroke="rgb(0, 0, 0)" stroke-opacity="1" stroke-linecap="round" stroke-linejoin="round"/>
    <path d="M 241.5013885498047 74.6943588256836 C 210.12464904785156 75.46040344238281 167.408935546875 50.87076187133789 186.24668884277344 86.36540985107422 C 185.36354064941406 116.44786834716797 202.54061889648438 106.01844024658203 197.79698181152344 106.56546020507812 C 191.64306640625 105.36746978759766 182.74314880371094 99.66410827636719 194.0717010498047 105.9169692993164" stroke-width="2.0" fill="none" stroke="rgb(0, 0, 0)" stroke-opacity="1" stroke-linecap="round" stroke-linejoin="round"/>
    <path d="M 173.1542510986328 213.8891143798828 C 164.45864868164062 202.09141540527344 184.16038513183594 212.07687377929688 197.66049194335938 209.84576416015625 C 158.79067993164062 214.89321899414062 144.88914489746094 215.75245666503906 184.58016967773438 232.4539337158203 C 193.12716674804688 235.2488250732422 196.9528350830078 234.28407287597656 193.6492462158203 247.0171661376953" stroke-width="2.0" fill="none" stroke="rgb(0, 0, 0)" stroke-opacity="1" stroke-linecap="round" stroke-linejoin="round"/>
    <path d="M 95.14414978027344 204.56588745117188 C 119.66732025146484 188.36032104492188 128.59271240234375 177.63168334960938 105.90473175048828 199.01766967773438 C 94.1840591430664 205.1894989013672 100.39242553710938 192.08651733398438 107.44510650634766 213.92767333984375" stroke-width="2.0" fill="none" stroke="rgb(0, 0, 0)" stroke-opacity="1" stroke-linecap="round" stroke-linejoin="round"/>
    <path d="M 109.90735626220703 -1.8173021078109741 C 101.78292083740234 -3.652383327484131 100.58325958251953 -11.47236442565918 119.3741455078125 4.264489650726318 C 103.55965423583984 3.4740970134735107 83.49520874023438 -8.97960090637207 60.566219329833984 -5.889887809753418" stroke-width="2.0" fill="none" stroke="rgb(0, 0, 0)" stroke-opacity="1" stroke-linecap="round" stroke-linejoin="round"/>
    <path d="M 67.14911651611328 55.16246032714844 C 66.65570831298828 32.16489791870117 79.31066131591797 63.73421859741211 48.765228271484375 48.27729797363281 C 89.31462860107422 55.07308578491211 65.15021514892578 72.9961929321289 68.55044555664062 48.422523498535156" stroke-width="2.0" fill="none" stroke="rgb(0, 0, 0)" stroke-opacity="1" stroke-linecap="round" stroke-linejoin="round"/>
    <path d="M 141.58035278320312 149.9583740234375 C 120.66403198242188 107.16983795166016 117.06490325927734 95.95580291748047 100.5407485961914 123.07415771484375 C 99.91722106933594 103.56608581542969 115.75482177734375 153.25662231445312 120.39958953857422 133.76731872558594" stroke-width="2.0" fill="none" stroke="rgb(0, 0, 0)" stroke-opacity="1" stroke-linecap="round" stroke-linejoin="round"/>
    <path d="M 119.75672912597656 98.15879821777344 C 116.92223358154297 122.50501251220703 129.9197235107422 116.15492248535156 128.7384796142578 106.92745208740234 C 140.45802307128906 126.1519775390625 125.88728332519531 116.43000030517578 118.9353256225586 93.22930145263672" stroke-width="2.0" fill="none" stroke="rgb(0, 0, 0)" stroke-opacity="1" stroke-linecap="round" stroke-linejoin="round"/>
    <path d="M 22.711557388305664 154.5351104736328 C 45.92205047607422 130.88516235351562 28.686092376708984 139.30372619628906 54.68301010131836 167.6790008544922 C 39.8241081237793 143.1595001220703 27.808361053466797 154.23361206054688 41.941505432128906 143.9888916015625" stroke-width="2.0" fill="none" stroke="rgb(0, 0, 0)" stroke-opacity="1" stroke-linecap="round" stroke-linejoin="round"/>
    <path d="M 12.072092056274414 165.63072204589844 C 19.279279708862305 141.58328247070312 9.546487808227539 133.03964233398438 16.042091369628906 156.28025817871094" stroke-width="2.0" fill="none" stroke="rgb(0, 0, 0)" stroke-opacity="1" stroke-linecap="round" stroke-linejoin="round"/>
    <path d="M 173.63357543945312 57.56593704223633 C 155.45553588867188 54.903724670410156 193.16400146484375 55.20758819580078 189.92713928222656 43.734893798828125" stroke-width="2.0" fill="none" stroke="rgb(0, 0, 0)" stroke-opacity="1" stroke-linecap="round" stroke-linejoin="round"/>
    <path d="M 89.23646545410156 157.50469970703125 C 98.84070587158203 139.74700927734375 126.94266510009766 128.5296630859375 114.43905639648438 127.95690155029297 C 102.83285522460938 155.75267028808594 77.98552703857422 140.1586456298828 116.57122039794922 166.7937774658203" stroke-width="2.0" fill="none" stroke="rgb(0, 0, 0)" stroke-opacity="1" stroke-linecap="round" stroke-linejoin="round"/>
    <path d="M 117.14385986328125 192.3648681640625 C 149.66139221191406 167.84735107421875 138.1077880859375 168.489990234375 156.4003143310547 196.84542846679688" stroke-width="2.0" fill="none" stroke="rgb(0, 0, 0)" stroke-opacity="1" stroke-linecap="round" stroke-linejoin="round"/>
    <path d="M 147.0477294921875 10.184187889099121 C 147.303955078125 14.863067626953125 152.9862518310547 0.15202832221984863 138.72618103027344 8.851020812988281" stroke-width="2.0" fill="none" stroke="rgb(0, 0, 0)" stroke-opacity="1" stroke-linecap="round" stroke-linejoin="round"/>
    <path d="M 156.1371612548828 155.43807983398438 C 136.65232849121094 166.65191650390625 119.62184143066406 189.6094970703125 133.52896118164062 173.49722290039062 C 134.87789916992188 198.9938201904297 147.05284118652344 174.9920654296875 154.00762939453125 164.17588806152344" stroke-width="2.0" fill="none" stroke="rgb(0, 0, 0)" stroke-opacity="1" stroke-linecap="round" stroke-linejoin="round"/>
    <path d="M 92.65990447998047 210.7832489013672 C 92.33672332763672 198.10696411132812 104.96809387207031 182.38316345214844 114.39283752441406 197.2760009765625" stroke-width="2.0" fill="none" stroke="rgb(0, 0, 0)" stroke-opacity="1" stroke-linecap="round" stroke-linejoin="round"/>
    <path d="M 93.25989532470703 134.12838745117188 C 90.26103973388672 141.12594604492188 71.80667877197266 160.627197265625 78.68780517578125 150.2416229248047 C 56.70592498779297 132.5792999267578 77.30107116699219 134.6091766357422 64.91661834716797 137.16653442382812 C 98.64463806152344 153.42977905273438 63.333091735839844 152.58216857910156 91.0337142944336 130.25364685058594" stroke-width="2.0" fill="none" stroke="rgb(0, 0, 0)" stroke-opacity="1" stroke-linecap="round" stroke-linejoin="round"/>
    <path d="M 92.37663269042969 235.27735900878906 C 96.52653503417969 225.1802215576172 86.6053695678711 222.697021484375 66.55059051513672 218.5983428955078 C 71.98783111572266 236.11178588867188 83.67920684814453 199.99288940429688 110.53131866455078 195.97743225097656" stroke-width="2.0" fill="none" stroke="rgb(0, 0, 0)" stroke-opacity="1" stroke-linecap="round" stroke-linejoin="round"/>
    <path d="M 201.05540466308594 15.789332389831543 C 206.89439392089844 10.957145690917969 163.2440948486328 15.427502632141113 139.8129119873047 8.941526412963867" stroke-width="2.0" fill="none" stroke="rgb(0, 0, 0)" stroke-opacity="1" stroke-linecap="round" stroke-linejoin="round"/>
    <path d="M 116.41661071777344 184.601318359375 C 128.93125915527344 185.5429229736328 105.82083892822266 193.95925903320312 110.1628646850586 163.8426055908203" stroke-width="2.0" fill="none" stroke="rgb(0, 0, 0)" stroke-opacity="1" stroke-linecap="round" stroke-linejoin="round"/>
    <path d="M 15.12585735321045 202.09019470214844 C 31.714981079101562 193.31195068359375 58.91168212890625 206.93113708496094 66.26244354248047 179.58114624023438 C 30.378862380981445 182.8380889892578 9.760773658752441 241.6519317626953 36.782676696777344 198.93284606933594 C 39.011817932128906 190.43194580078125 43.781455993652344 220.53118896484375 61.489662170410156 182.22152709960938" stroke-width="2.0" fill="none" stroke="rgb(0, 0, 0)" stroke-opacity="1" stroke-linecap="round" stroke-linejoin="round"/>
    <path d="M 229.3392791748047 -2.3772082328796387 C 194.47271728515625 -6.1143693923950195 198.71490478515625 -12.66002368927002 209.34815979003906 -20.193134307861328" stroke-width="2.0" fill="none" stroke="rgb(0, 0, 0)" stroke-opacity="1" stroke-linecap="round" stroke-linejoin="round"/>
    <path d="M -8.97879409790039 34.4395751953125 C -0.1238025650382042 31.337961196899414 -1.1750227212905884 36.87334060668945 -1.8499711751937866 32.54618835449219" stroke-width="2.0" fill="none" stroke="rgb(0, 0, 0)" stroke-opacity="1" stroke-linecap="round" stroke-linejoin="round"/>
    <path d="M 80.3852310180664 193.20211791992188 C 64.1211166381836 205.54969787597656 86.64496612548828 207.6100616455078 62.60853576660156 196.37551879882812" stroke-width="2.0" fill="none" stroke="rgb(0, 0, 0)" stroke-opacity="1" stroke-linecap="round" stroke-linejoin="round"/>
    <path d="M 184.73361206054688 -8.681474685668945 C 187.61366271972656 -13.298469543457031 179.5109405517578 -11.522050857543945 191.30328369140625 -7.26414155960083 C 183.4609832763672 -7.753084659576416 184.9137420654297 -12.027985572814941 165.84278869628906 -7.809852600097656" stroke-width="2.0" fill="none" stroke="rgb(0, 0, 0)" stroke-opacity="1" stroke-linecap="round" stroke-linejoin="round"/>
    <path d="M -1.2111530303955078 204.8837127685547 C 10.831930160522461 189.39682006835938 -5.937149524688721 188.3761444091797 -5.355349063873291 206.23391723632812 C 34.568748474121094 204.76705932617188 30.977252960205078 192.42564392089844 13.641134262084961 205.85389709472656" stroke-width="2.0" fill="none" stroke="rgb(0, 0, 0)" stroke-opacity="1" stroke-linecap="round" stroke-linejoin="round"/>
    <path d="M 208.00563049316406 -1.359007477760315 C 230.99188232421875 -23.509258270263672 221.3541259765625 -9.312841415405273 210.11524963378906 -20.132322311401367" stroke-width="2.0" fill="none" stroke="rgb(0, 0, 0)" stroke-opacity="1" stroke-linecap="round" stroke-linejoin="round"/>
    <path d="M 98.8556137084961 150.1562042236328 C 87.2633285522461 159.04708862304688 93.70034790039062 165.81031799316406 82.4748306274414 147.9660186767578 C 65.78699493408203 179.86427307128906 73.36112976074219 156.71527099609375 85.16023254394531 136.20046997070312 C 93.54399871826172 142.59759521484375 101.29186248779297 163.14715576171875 68.62083435058594 107.47515106201172" stroke-width="2.0" fill="none" stroke="rgb(0, 0, 0)" stroke-opacity="1" stroke-linecap="round" stroke-linejoin="round"/>
    <path d="M 37.67241287231445 147.7589874267578 C 20.34092903137207 162.11705017089844 38.344482421875 145.1532440185547 19.031497955322266 156.71096801757812" stroke-width="2.0" fill="none" stroke="rgb(0, 0, 0)" stroke-opacity="1" stroke-linecap="round" stroke-linejoin="round"/>
    <path d="M 181.40623474121094 98.63555145263672 C 193.74143981933594 104.56080627441406 160.4894256591797 93.77333068847656 150.7252960205078 80.7815170288086 C 181.5484619140625 103.8590316772461 177.32386779785156 89.85699462890625 182.06979370117188 101.30762481689453" stroke-width="2.0" fill="none" stroke="rgb(0, 0, 0)" stroke-opacity="1" stroke-linecap="round" stroke-linejoin="round"/>
    <path d="M 212.4962921142578 74.00677490234375 C 219.58877563476562 62.35313034057617 224.41519165039062 80.83650207519531 196.42083740234375 70.01097106933594 C 208.06773376464844 103.38358306884766 217.22947692871094 112.04155731201172 203.12631225585938 105.88809967041016 C 195.70065307617188 107.0239028930664 171.1199188232422 87.4411849975586 198.06863403320312 106.75916290283203" stroke-width="2.0" fill="none" stroke="rgb(0, 0, 0)" stroke-opacity="1" stroke-linecap="round" stroke-linejoin="round"/>
    <path d="M -2.789975643157959 89.73011016845703 C -4.896220684051514 74.80948638916016 -2.584477663040161 104.99583435058594 32.10553741455078 89.46617126464844" stroke-width="2.0" fill="none" stroke="rgb(0, 0, 0)" stroke-opacity="1" stroke-linecap="round" stroke-linejoin="round"/>
    <path d="M 214.5636749267578 127.89158630371094 C 204.7701873779297 157.47674560546875 180.1301727294922 178.1621856689453 191.47286987304688 161.1412353515625" stroke-width="2.0" fill="none" stroke="rgb(0, 0, 0)" stroke-opacity="1" stroke-linecap="round" stroke-linejoin="round"/>
    <path d="M 38.97295379638672 162.05731201171875 C 23.54242515563965 140.2728271484375 29.53353500366211 140.54185485839844 39.770790100097656 157.69911193847656" stroke-width="2.0" fill="none" stroke="rgb(0, 0, 0)" stroke-opacity="1" stroke-linecap="round" stroke-linejoin="round"/>
    <path d="M 28.55583381652832 199.92916870117188 C -21.778133392333984 208.90208435058594 -6.945444107055664 217.61073303222656 -1.027825951576233 198.30532836914062 C -11.068635940551758 211.13941955566406 -3.9781131744384766 191.57208251953125 -3.7506508827209473 213.635498046875" stroke-width="2.0" fill="none" stroke="rgb(0, 0, 0)" stroke-opacity="1" stroke-linecap="round" stroke-linejoin="round"/>
    <path d="M 99.11331939697266 20.836376190185547 C 104.83417510986328 12.671222686767578 83.45541381835938 32.513694763183594 116.26519775390625 31.68743133544922 C 121.86406707763672 17.67078399658203 112.0553970336914 51.24344253540039 114.19920349121094 34.20754623413086" stroke-width="2.0" fill="none" stroke="rgb(0, 0, 0)" stroke-opacity="1" stroke-linecap="round" stroke-linejoin="round"/>
    <path d="M 139.62838745117188 131.96083068847656 C 123.2461166381836 104.70173645019531 127.7280044555664 128.38157653808594 111.51115417480469 95.32083892822266" stroke-width="2.0" fill="none" stroke="rgb(0, 0, 0)" stroke-opacity="1" stroke-linecap="round" stroke-linejoin="round"/>
    <path d="M 17.811986923217773 193.7725830078125 C 40.359413146972656 169.7465362548828 37.22667694091797 183.94837951660156 25.870561599731445 164.0528564453125 C 32.98610305786133 175.64944458007812 36.19910430908203 183.1265411376953 58.36006164550781 191.68887329101562" stroke-width="2.0" fill="none" stroke="rgb(0, 0, 0)" stroke-opacity="1" stroke-linecap="round" stroke-linejoin="round"/>
    <path d="M 31.416173934936523 228.81361389160156 C 0.22474798560142517 231.6828155517578 33.84770202636719 229.8887481689453 27.089250564575195 226.9481658935547" stroke-width="2.0" fill="none" stroke="rgb(0, 0, 0)" stroke-opacity="1" stroke-linecap="round" stroke-linejoin="round"/>
    <path d="M 104.6904067993164 54.15940856933594 C 86.41194915771484 32.789710998535156 100.61173248291016 48.54042434692383 80.7774429321289 42.47884750366211 C 86.49243927001953 44.9272346496582 75.85356140136719 30.44367027282715 84.50750732421875 44.086421966552734 C 86.77482604980469 33.768760681152344 79.72228240966797 43.39086151123047 84.31199645996094 38.10200500488281" stroke-width="2.0" fill="none" stroke="rgb(0, 0, 0)" stroke-opacity="1" stroke-linecap="round" stroke-linejoin="round"/>
    <path d="M 109.96849060058594 30.27950096130371 C 115.04400634765625 3.2672581672668457 119.38670349121094 -15.325202941894531 109.60253143310547 -13.76683235168457 C 102.98311614990234 -3.667348861694336 118.44793701171875 -2.6393489837646484 133.53709411621094 -7.053281307220459" stroke-width="2.0" fill="none" stroke="rgb(0, 0, 0)" stroke-opacity="1" stroke-linecap="round" stroke-linejoin="round"/>
    <path d="M 176.3764190673828 53.1130485534668 C 156.78211975097656 60.0142936706543 200.0027313232422 48.66183853149414 186.66481018066406 51.75558090209961 C 213.2210235595703 38.91596603393555 221.20712280273438 43.12137985229492 203.68585205078125 39.5595817565918 C 212.7176971435547 47.71744918823242 213.6353302001953 39.32044982910156 206.40614318847656 38.12755584716797" stroke-width="2.0" fill="none" stroke="rgb(0, 0, 0)" stroke-opacity="1" stroke-linecap="round" stroke-linejoin="round"/>
    <path d="M 65.80329132080078 91.11239624023438 C 47.41884231567383 80.96246337890625 69.96080017089844 96.18123626708984 59.10563278198242 96.0523910522461 C 57.0274543762207 89.26417541503906 52.28859329223633 97.15044403076172 51.99705505371094 95.47490692138672" stroke-width="2.0" fill="none" stroke="rgb(0, 0, 0)" stroke-opacity="1" stroke-linecap="round" stroke-linejoin="round"/>
    <path d="M 60.10405731201172 9.027198791503906 C -11.683100700378418 9.359210968017578 -11.773883819580078 -4.213094234466553 4.0305891036987305 -7.602152347564697 C -2.239868640899658 5.95911979675293 37.913639068603516 4.9279890060424805 74.0355453491211 6.230164051055908" stroke-width="2.0" fill="none" stroke="rgb(0, 0, 0)" stroke-opacity="1" stroke-linecap="round" stroke-linejoin="round"/>
    <path d="M 29.061426162719727 139.99368286132812 C 7.057243824005127 156.6914825439453 3.273977518081665 147.5033416748047 26.437786102294922 142.20755004882812 C 10.43588924407959 135.84255981445312 16.05314826965332 167.44447326660156 35.39691925048828 142.51058959960938" stroke-width="2.0" fill="none" stroke="rgb(0, 0, 0)" stroke-opacity="1" stroke-linecap="round" stroke-linejoin="round"/>
    <path d="M 25.067710876464844 160.3428497314453 C 42.30207443237305 143.31520080566406 13.774517059326172 162.89389038085938 13.163884162902832 154.85182189941406 C 3.565744638442993 172.02978515625 7.658783435821533 168.08743286132812 29.677743911743164 152.43492126464844 C 45.42887496948242 127.6636734008789 42.769832611083984 147.52476501464844 11.715936660766602 166.4098663330078" stroke-width="2.0" fill="none" stroke="rgb(0, 0, 0)" stroke-opacity="1" stroke-linecap="round" stroke-linejoin="round"/>
    <path d="M 179.0482177734375 20.944225311279297 C 186.4826202392578 18.101308822631836 207.13121032714844 21.907058715820312 205.2198486328125 7.909615516662598" stroke-width="2.0" fill="none" stroke="rgb(0, 0, 0)" stroke-opacity="1" stroke-linecap="round" stroke-linejoin="round"/>
    <path d="M 85.36239624023438 68.40370178222656 C 70.31038665771484 77.2705078125 64.4721908569336 84.22554779052734 56.62187576293945 95.87169647216797 C 60.97895050048828 88.53907012939453 56.09431838989258 85.58414459228516 49.136817932128906 107.98807525634766" stroke-width="2.0" fill="none" stroke="rgb(0, 0, 0)" stroke-opacity="1" stroke-linecap="round" stroke-linejoin="round"/>
    <path d="M 65.21222686767578 189.63076782226562 C 61.88441848754883 171.6946563720703 66.3680191040039 187.66758728027344 41.27129364013672 203.1712188720703 C 26.379728317260742 183.25076293945312 30.61600685119629 191.86289978027344 59.85796356201172 199.3222198486328 C 33.8028678894043 182.22019958496094 62.27626419067383 182.71168518066406 45.30766677856445 175.65472412109375" stroke-width="2.0" fill="none" stroke="rgb(0, 0, 0)" stroke-opacity="1" stroke-linecap="round" stroke-linejoin="round"/>
    <path d="M 52.565643310546875 140.08120727539062 C 48.94112777709961 125.63887023925781 41.722145080566406 134.20603942871094 52.37372589111328 124.63304901123047 C 66.40225982666016 136.31253051757812 40.25485610961914 108.59954071044922 53.13294219970703 130.3993377685547" stroke-width="2.0" fill="none" stroke="rgb(0, 0, 0)" stroke-opacity="1" stroke-linecap="round" stroke-linejoin="round"/>
    <path d="M 71.78260803222656 160.05877685546875 C 77.57335662841797 133.86671447753906 58.53504180908203 164.13929748535156 73.83460998535156 150.43838500976562 C 81.97464752197266 140.15830993652344 83.76001739501953 167.5424041748047 109.93632507324219 172.5589599609375 C 90.58505249023438 149.18399047851562 69.85468292236328 150.3704833984375 91.29895782470703 158.7099151611328" stroke-width="2.0" fill="none" stroke="rgb(0, 0, 0)" stroke-opacity="1" stroke-linecap="round" stroke-linejoin="round"/>
    <path d="M 19.510244369506836 201.56651306152344 C -9.586451530456543 203.7048797607422 -4.546361923217773 233.3096160888672 -2.2687525749206543 168.5673065185547" stroke-width="2.0" fill="none" stroke="rgb(0, 0, 0)" stroke-opacity="1" stroke-linecap="round" stroke-linejoin="round"/>
    <path d="M 110.00128173828125 173.26693725585938 C 113.70773315429688 154.9217529296875 77.56260681152344 189.33935546875 109.91291809082031 166.15951538085938 C 118.88298034667969 159.65541076660156 97.0148696899414 186.8203125 105.78054809570312 171.09213256835938 C 83.26801300048828 151.67930603027344 90.21566009521484 171.33151245117188 78.84890747070312 145.80850219726562" stroke-width="2.0" fill="none" stroke="rgb(0, 0, 0)" stroke-opacity="1" stroke-linecap="round" stroke-linejoin="round"/>
    <path d="M 138.1122283935547 10.046409606933594 C 143.31712341308594 67.35872650146484 135.73056030273438 78.69599914550781 136.1107635498047 35.216941833496094 C 147.28030395507812 84.0794677734375 143.2952880859375 74.50796508789062 142.85226440429688 67.47933197021484" stroke-width="2.0" fill="none" stroke="rgb(0, 0, 0)" stroke-opacity="1" stroke-linecap="round" stroke-linejoin="round"/>
    <path d="M 169.2138214111328 207.0201873779297 C 179.90798950195312 219.12020874023438 155.9162139892578 199.6302032470703 170.19427490234375 210.0368194580078 C 142.902099609375 211.40936279296875 162.20925903320312 207.46507263183594 167.3035888671875 216.94618225097656 C 116.29833984375 224.41270446777344 126.56865692138672 220.437255859375 170.07640075683594 214.981689453125" stroke-width="2.0" fill="none" stroke="rgb(0, 0, 0)" stroke-opacity="1" stroke-linecap="round" stroke-linejoin="round"/>
    <path d="M 229.32492065429688 132.9465789794922 C 216.67135620117188 132.73675537109375 234.2933807373047 130.1014404296875 251.96714782714844 137.18447875976562" stroke-width="2.0" fill="none" stroke="rgb(0, 0, 0)" stroke-opacity="1" stroke-linecap="round" stroke-linejoin="round"/>
    <path d="M 232.82095336914062 135.58937072753906 C 232.98825073242188 130.34568786621094 212.3579559326172 124.24925994873047 217.48538208007812 142.2737579345703 C 217.8007354736328 117.6523208618164 218.71556091308594 133.90977478027344 213.16311645507812 129.0786590576172" stroke-width="2.0" fill="none" stroke="rgb(0, 0, 0)" stroke-opacity="1" stroke-linecap="round" stroke-linejoin="round"/>
    <path d="M 167.68287658691406 47.31806564331055 C 193.4133758544922 37.961456298828125 201.45545959472656 39.816650390625 233.1761016845703 44.045230865478516 C 232.42149353027344 34.37992858886719 229.09649658203125 24.90789222717285 226.5952606201172 34.28160095214844 C 227.08653259277344 26.575353622436523 232.85964965820312 15.512447357177734 231.5146484375 16.141267776489258" stroke-width="2.0" fill="none" stroke="rgb(0, 0, 0)" stroke-opacity="1" stroke-linecap="round" stroke-linejoin="round"/>
    <path d="M 149.1132049560547 226.9537353515625 C 195.9948272705078 228.35888671875 191.02633666992188 227.09092712402344 171.19869995117188 237.42787170410156" stroke-width="2.0" fill="none" stroke="rgb(0, 0, 0)" stroke-opacity="1" stroke-linecap="round" stroke-linejoin="round"/>
    <path d="M 112.23377990722656 159.54006958007812 C 118.36384582519531 162.35792541503906 124.68672180175781 174.88462829589844 105.93742370605469 163.29640197753906 C 110.52686309814453 162.2025909423828 119.60859680175781 189.73764038085938 122.31538391113281 184.12274169921875 C 109.31608581542969 199.28799438476562 93.8460922241211 194.06951904296875 135.090087890625 175.9146270751953" stroke-width="2.0" fill="none" stroke="rgb(0, 0, 0)" stroke-opacity="1" stroke-linecap="round" stroke-linejoin="round"/>
    <path d="M 156.43350219726562 100.5112075805664 C 175.70611572265625 82.13629913330078 139.2792205810547 86.01428985595703 170.3726806640625 89.96470642089844 C 172.5160369873047 90.88705444335938 165.5202178955078 78.95011901855469 147.52076721191406 53.12504577636719 C 138.9410400390625 60.01874923706055 135.79795837402344 54.08198547363281 187.67567443847656 43.26710891723633" stroke-width="2.0" fill="none" stroke="rgb(0, 0, 0)" stroke-opacity="1" stroke-linecap="round" stroke-linejoin="round"/>
    <path d="M 35.16204071044922 86.539306640625 C 38.67996597290039 96.57508850097656 45.81264114379883 75.83890533447266 29.650461196899414 99.57003021240234" stroke-width="2.0" fill="none" stroke="rgb(0, 0, 0)" stroke-opacity="1" stroke-linecap="round" stroke-linejoin="round"/>
    <path d="M 197.56008911132812 162.11273193359375 C 184.4373016357422 187.81422424316406 197.795654296875 146.4321746826172 217.28074645996094 127.92926025390625 C 166.44003295898438 128.283935546875 162.16995239257812 130.82225036621094 198.59642028808594 131.4309539794922 C 233.91632080078125 129.84828186035156 254.2742462158203 127.94376373291016 256.1081848144531 130.38238525390625" stroke-width="2.0" fill="none" stroke="rgb(0, 0, 0)" stroke-opacity="1" stroke-linecap="round" stroke-linejoin="round"/>
    <path d="M 91.38468170166016 137.67250061035156 C 71.25538635253906 108.05467987060547 82.53058624267578 126.50894165039062 90.88422393798828 111.5268783569336" stroke-width="2.0" fill="none" stroke="rgb(0, 0, 0)" stroke-opacity="1" stroke-linecap="round" stroke-linejoin="round"/>
    <path d="M 86.76736450195312 95.6349868774414 C 55.49834442138672 120.38484954833984 73.9761734008789 122.45211791992188 80.66693115234375 98.7458267211914 C 65.34030151367188 104.34199523925781 82.67366027832031 94.59938049316406 89.79549407958984 88.9629898071289" stroke-width="2.0" fill="none" stroke="rgb(0, 0, 0)" stroke-opacity="1" stroke-linecap="round" stroke-linejoin="round"/>
    <path d="M 213.7914581298828 225.21607971191406 C 227.36538696289062 237.4259033203125 222.43069458007812 225.2903289794922 230.91380310058594 218.43130493164062 C 232.4881134033203 205.6492919921875 237.6648406982422 198.5402374267578 242.94981384277344 203.11770629882812 C 244.79385375976562 194.27125549316406 251.9761505126953 189.0319366455078 241.032958984375 198.62799072265625" stroke-width="2.0" fill="none" stroke="rgb(0, 0, 0)" stroke-opacity="1" stroke-linecap="round" stroke-linejoin="round"/>
    <path d="M 56.15860366821289 79.36627197265625 C 71.95681762695312 98.12528228759766 64.73756408691406 77.17079162597656 92.87759399414062 60.44123458862305" stroke-width="2.0" fill="none" stroke="rgb(0, 0, 0)" stroke-opacity="1" stroke-linecap="round" stroke-linejoin="round"/>
    <path d="M 172.27342224121094 121.3110580444336 C 184.9196319580078 142.7998809814453 190.590576171875 130.5971221923828 192.93458557128906 128.27899169921875 C 185.65087890625 139.2776641845703 204.7713165283203 132.74668884277344 184.73170471191406 131.96031188964844 C 177.79421997070312 126.70538330078125 213.9181365966797 137.83853149414062 218.4827423095703 125.82569122314453" stroke-width="2.0" fill="none" stroke="rgb(0, 0, 0)" stroke-opacity="1" stroke-linecap="round" stroke-linejoin="round"/>
    <path d="M 146.34103393554688 57.23294448852539 C 176.06680297851562 54.10624694824219 177.43051147460938 49.97871017456055 149.99160766601562 56.99931335449219 C 174.6399383544922 93.31892395019531 173.28738403320312 85.61665344238281 160.85198974609375 113.71405029296875 C 187.5198211669922 77.6716537475586 164.6016082763672 98.35047912597656 121.90721130371094 79.27218627929688" stroke-width="2.0" fill="none" stroke="rgb(0, 0, 0)" stroke-opacity="1" stroke-linecap="round" stroke-linejoin="round"/>
    <path d="M 136.94625854492188 231.54818725585938 C 135.04454040527344 202.06788635253906 133.1622772216797 230.12051391601562 145.6385498046875 230.2958526611328 C 118.830810546875 230.8616485595703 143.40963745117188 213.10946655273438 115.25938415527344 225.07614135742188" stroke-width="2.0" fill="none" stroke="rgb(0, 0, 0)" stroke-opacity="1" stroke-linecap="round" stroke-linejoin="round"/>
    <path d="M 72.54540252685547 98.44351196289062 C 94.07792663574219 80.96180725097656 83.56217193603516 90.31476593017578 81.32023620605469 91.61019897460938 C 78.4170913696289 88.63743591308594 68.04231262207031 73.87144470214844 76.79931640625 80.05216217041016 C 91.53459930419922 61.55805206298828 98.49498748779297 65.23469543457031 73.80146026611328 87.25685119628906" stroke-width="2.0" fill="none" stroke="rgb(0, 0, 0)" stroke-opacity="1" stroke-linecap="round" stroke-linejoin="round"/>
    <path d="M 87.15507507324219 86.56147003173828 C 69.26805114746094 108.07402038574219 86.70329284667969 118.48016357421875 72.92070770263672 99.3126220703125" stroke-width="2.0" fill="none" stroke="rgb(0, 0, 0)" stroke-opacity="1" stroke-linecap="round" stroke-linejoin="round"/>
    <path d="M 169.3224334716797 85.22689819335938 C 202.59815979003906 97.50530242919922 167.4133758544922 92.7336654663086 149.52378845214844 87.00151062011719" stroke-width="2.0" fill="none" stroke="rgb(0, 0, 0)" stroke-opacity="1" stroke-linecap="round" stroke-linejoin="round"/>
    <path d="M 152.57908630371094 79.54541015625 C 137.92478942871094 104.65727233886719 158.6837158203125 80.25374603271484 191.42312622070312 92.25640869140625" stroke-width="2.0" fill="none" stroke="rgb(0, 0, 0)" stroke-opacity="1" stroke-linecap="round" stroke-linejoin="round"/>
    <path d="M 163.31805419921875 134.5213165283203 C 154.3852081298828 147.1554412841797 150.43670654296875 137.7786407470703 168.88304138183594 139.68557739257812 C 141.85781860351562 136.95156860351562 166.49398803710938 154.209228515625 150.95608520507812 140.79434204101562" stroke-width="2.0" fill="none" stroke="rgb(0, 0, 0)" stroke-opacity="1" stroke-linecap="round" stroke-linejoin="round"/>
    <path d="M 89.09947967529297 113.22311401367188 C 85.37914276123047 92.26756286621094 68.79698944091797 102.04528045654297 81.84938049316406 120.98638153076172" stroke-width="2.0" fill="none" stroke="rgb(0, 0, 0)" stroke-opacity="1" stroke-linecap="round" stroke-linejoin="round"/>
    <path d="M 28.147804260253906 126.37446594238281 C 22.32373809814453 144.13973999023438 18.754785537719727 153.59654235839844 23.58005142211914 133.26014709472656 C 33.681880950927734 150.03384399414062 0.6897255778312683 134.7493896484375 29.16329002380371 138.996337890625 C 6.050434589385986 149.7206268310547 6.9354705810546875 143.8684844970703 14.985958099365234 142.4363555908203" stroke-width="2.0" fill="none" stroke="rgb(0, 0, 0)" stroke-opacity="1" stroke-linecap="round" stroke-linejoin="round"/>
    <path d="M 137.22105407714844 116.81306457519531 C 121.5581283569336 138.47499084472656 111.24816131591797 131.5488739013672 120.34691619873047 140.6635284423828" stroke-width="2.0" fill="none" stroke="rgb(0, 0, 0)" stroke-opacity="1" stroke-linecap="round" stroke-linejoin="round"/>
    <path d="M 29.302183151245117 127.68695068359375 C 42.66155242919922 169.16342163085938 24.194080352783203 157.83421325683594 36.46926498413086 138.36399841308594" stroke-width="2.0" fill="none" stroke="rgb(0, 0, 0)" stroke-opacity="1" stroke-linecap="round" stroke-linejoin="round"/>
    <path d="M 13.254858016967773 10.365939140319824 C 33.649208068847656 47.36882400512695 41.72203826904297 36.78498458862305 -10.677286148071289 51.909080505371094 C 8.813385009765625 115.40547180175781 1.4605320692062378 102.9487533569336 3.92914080619812 -1.0220011472702026" stroke-width="2.0" fill="none" stroke="rgb(0, 0, 0)" stroke-opacity="1" stroke-linecap="round" stroke-linejoin="round"/>
    <path d="M 112.35138702392578 114.57874298095703 C 98.05377197265625 104.0933837890625 105.13551330566406 114.45280456542969 106.04376983642578 112.35830688476562 C 106.03326416015625 115.09305572509766 118.55133056640625 123.28102111816406 104.25881958007812 121.14936828613281 C 117.6414794921875 115.70313262939453 105.54460144042969 121.1624984741211 95.99967193603516 107.61873626708984" stroke-width="2.0" fill="none" stroke="rgb(0, 0, 0)" stroke-opacity="1" stroke-linecap="round" stroke-linejoin="round"/>
    <path d="M 105.70406341552734 53.401615142822266 C 127.52099609375 68.0134506225586 138.84323120117188 52.51165771484375 119.50434875488281 60.93022537231445" stroke-width="2.0" fill="none" stroke="rgb(0, 0, 0)" stroke-opacity="1" stroke-linecap="round" stroke-linejoin="round"/>
    <path d="M 126.31722259521484 61.222774505615234 C 108.1980209350586 54.10755920410156 126.80874633789062 45.91584014892578 102.86576843261719 76.18070220947266" stroke-width="2.0" fill="none" stroke="rgb(0, 0, 0)" stroke-opacity="1" stroke-linecap="round" stroke-linejoin="round"/>
    <path d="M 1.341151237487793 150.92478942871094 C -4.661120414733887 179.54818725585938 -8.072237014770508 155.9060821533203 -7.225886821746826 145.95631408691406" stroke-width="2.0" fill="none" stroke="rgb(0, 0, 0)" stroke-opacity="1" stroke-linecap="round" stroke-linejoin="round"/>
    <path d="M 173.35398864746094 208.56198120117188 C 180.33197021484375 208.58226013183594 178.13658142089844 227.54637145996094 170.4031219482422 207.01036071777344" stroke-width="2.0" fill="none" stroke="rgb(0, 0, 0)" stroke-opacity="1" stroke-linecap="round" stroke-linejoin="round"/>
    <path d="M 118.02416229248047 183.77626037597656 C 104.09854125976562 214.4502410888672 95.19633483886719 178.04269409179688 93.29621124267578 194.27117919921875 C 97.57241821289062 191.07159423828125 118.97392272949219 202.69827270507812 107.36490631103516 191.68417358398438 C 108.1612319946289 194.6524200439453 119.01823425292969 214.84646606445312 137.88392639160156 238.9369354248047" stroke-width="2.0" fill="none" stroke="rgb(0, 0, 0)" stroke-opacity="1" stroke-linecap="round" stroke-linejoin="round"/>
    <path d="M 150.4490203857422 89.64698028564453 C 181.38824462890625 76.9433364868164 177.0277099609375 78.81742095947266 174.4795684814453 119.31194305419922" stroke-width="2.0" fill="none" stroke="rgb(0, 0, 0)" stroke-opacity="1" stroke-linecap="round" stroke-linejoin="round"/>
    <path d="M 32.43323516845703 63.143104553222656 C 36.94309616088867 72.6067123413086 32.771297454833984 100.68167877197266 33.39999008178711 77.96427154541016 C 28.227312088012695 64.43480682373047 28.806957244873047 53.733428955078125 37.19492721557617 69.8751220703125" stroke-width="2.0" fill="none" stroke="rgb(0, 0, 0)" stroke-opacity="1" stroke-linecap="round" stroke-linejoin="round"/>
    <path d="M 149.2737579345703 122.24714660644531 C 134.9010009765625 115.95330810546875 140.0609130859375 121.2905044555664 117.11408233642578 141.9198760986328" stroke-width="2.0" fill="none" stroke="rgb(0, 0, 0)" stroke-opacity="1" stroke-linecap="round" stroke-linejoin="round"/>
    <path d="M 211.32699584960938 174.87159729003906 C 205.42257690429688 186.25950622558594 184.12939453125 181.00546264648438 193.0836181640625 189.6500701904297" stroke-width="2.0" fill="none" stroke="rgb(0, 0, 0)" stroke-opacity="1" stroke-linecap="round" stroke-linejoin="round"/>
    <path d="M 164.9837188720703 15.177535057067871 C 222.7360076904297 18.506813049316406 197.6900634765625 28.792980194091797 197.02188110351562 17.14068031311035" stroke-width="2.0" fill="none" stroke="rgb(0, 0, 0)" stroke-opacity="1" stroke-linecap="round" stroke-linejoin="round"/>
    <path d="M 84.26435852050781 136.79171752929688 C 69.01558685302734 144.92083740234375 81.05341339111328 156.25294494628906 48.538246154785156 183.16453552246094" stroke-width="2.0" fill="none" stroke="rgb(0, 0, 0)" stroke-opacity="1" stroke-linecap="round" stroke-linejoin="round"/>
    <path d="M 57.92987823486328 184.9813995361328 C 63.989627838134766 172.0944061279297 67.33150482177734 194.52735900878906 52.467437744140625 186.07359313964844 C 63.84165573120117 167.71368408203125 67.46260070800781 178.92430114746094 52.61274337768555 194.66676330566406 C 61.97623825073242 177.40357971191406 49.65205383300781 195.84324645996094 84.0851821899414 205.54586791992188" stroke-width="2.0" fill="none" stroke="rgb(0, 0, 0)" stroke-opacity="1" stroke-linecap="round" stroke-linejoin="round"/>
    <path d="M 32.64626693725586 87.87193298339844 C 30.280933380126953 38.44948196411133 35.79741287231445 72.83719635009766 32.27627182006836 96.53331756591797 C 41.985076904296875 87.38452911376953 21.65159797668457 90.0457534790039 31.449459075927734 74.47731018066406" stroke-width="2.0" fill="none" stroke="rgb(0, 0, 0)" stroke-opacity="1" stroke-linecap="round" stroke-linejoin="round"/>
    <path d="M 201.31982421875 229.61961364746094 C 161.10623168945312 221.68478393554688 204.41209411621094 228.75718688964844 180.8861083984375 222.7409210205078 C 167.24574279785156 229.37904357910156 169.0080108642578 237.85964965820312 182.17100524902344 241.93002319335938" stroke-width="2.0" fill="none" stroke="rgb(0, 0, 0)" stroke-opacity="1" stroke-linecap="round" stroke-linejoin="round"/>
    <path d="M 185.83306884765625 213.26744079589844 C 172.10098266601562 217.14845275878906 175.69410705566406 195.8961181640625 218.47328186035156 217.0306854248047" stroke-width="2.0" fill="none" stroke="rgb(0, 0, 0)" stroke-opacity="1" stroke-linecap="round" stroke-linejoin="round"/>
    <path d="M 169.33889770507812 -4.474706649780273 C 166.30044555664062 -2.207658529281616 167.08721923828125 -16.893165588378906 175.911376953125 -21.802804946899414 C 164.83216857910156 -20.06867790222168 174.53268432617188 -27.118494033813477 176.3253936767578 -27.625009536743164 C 169.0018310546875 -16.828407287597656 170.6025848388672 -15.865995407104492 169.14796447753906 -11.872611999511719" stroke-width="2.0" fill="none" stroke="rgb(0, 0, 0)" stroke-opacity="1" stroke-linecap="round" stroke-linejoin="round"/>
    <path d="M 131.43307495117188 135.53652954101562 C 132.0907745361328 108.55363464355469 155.80508422851562 134.78016662597656 128.1342315673828 116.68415069580078 C 135.0713653564453 127.22001647949219 107.73990631103516 148.13938903808594 109.46846771240234 120.157470703125 C 99.93487548828125 134.093017578125 116.45069122314453 112.90977478027344 99.57073974609375 121.2560806274414" stroke-width="2.0" fill="none" stroke="rgb(0, 0, 0)" stroke-opacity="1" stroke-linecap="round" stroke-linejoin="round"/>
    <path d="M 193.08834838867188 31.66851806640625 C 199.7008056640625 51.784942626953125 184.43824768066406 36.9642448425293 194.44041442871094 30.044008255004883 C 203.25233459472656 60.06633758544922 192.43450927734375 53.43369674682617 192.5291748046875 33.07541275024414" stroke-width="2.0" fill="none" stroke="rgb(0, 0, 0)" stroke-opacity="1" stroke-linecap="round" stroke-linejoin="round"/>
    <path d="M 216.0648956298828 15.444404602050781 C 193.64859008789062 22.415555953979492 194.03225708007812 21.715543746948242 198.73678588867188 21.32208824157715 C 220.3805694580078 15.064957618713379 212.2413787841797 18.293882369995117 176.654052734375 19.01699447631836 C 148.24681091308594 1.9249991178512573 165.5017852783203 31.640230178833008 164.1805419921875 -15.62580394744873" stroke-width="2.0" fill="none" stroke="rgb(0, 0, 0)" stroke-opacity="1" stroke-linecap="round" stroke-linejoin="round"/>
    <path d="M 127.10240173339844 94.28932189941406 C 144.37069702148438 70.23167419433594 110.05670166015625 80.6963882446289 96.94171905517578 73.01690673828125 C 98.05602264404297 77.60236358642578 117.78942108154297 95.60736846923828 88.18016052246094 70.94174194335938 C 76.34626770019531 79.515869140625 72.1211166381836 87.85175323486328 70.23490142822266 81.594970703125" stroke-width="2.0" fill="none" stroke="rgb(0, 0, 0)" stroke-opacity="1" stroke-linecap="round" stroke-linejoin="round"/>
    <path d="M 228.5520782470703 209.86587524414062 C 220.84898376464844 222.75262451171875 234.7549591064453 209.7773895263672 246.42926025390625 211.1432342529297 C 240.28399658203125 210.7283477783203 236.61492919921875 211.26702880859375 239.37950134277344 202.1582794189453" stroke-width="2.0" fill="none" stroke="rgb(0, 0, 0)" stroke-opacity="1" stroke-linecap="round" stroke-linejoin="round"/>
    <path d="M 98.32177734375 199.28289794921875 C 96.98909759521484 213.0556640625 103.39895629882812 214.7404022216797 100.39142608642578 183.27398681640625 C 107.61605072021484 192.64781188964844 127.54679107666016 224.1383056640625 105.69181060791016 199.2752227783203 C 119.45435333251953 185.64761352539062 138.13424682617188 168.95469665527344 136.99560546875 177.24734497070312" stroke-width="2.0" fill="none" stroke="rgb(0, 0, 0)" stroke-opacity="1" stroke-linecap="round" stroke-linejoin="round"/>
    <path d="M 82.31739807128906 146.80384826660156 C 98.60900115966797 133.20668029785156 88.17330932617188 149.5499725341797 87.81893920898438 137.1665802001953 C 79.12516021728516 148.0690460205078 63.38170623779297 155.6434783935547 73.07501220703125 162.01222229003906" stroke-width="2.0" fill="none" stroke="rgb(0, 0, 0)" stroke-opacity="1" stroke-linecap="round" stroke-linejoin="round"/>
    <path d="M 185.62091064453125 50.4287223815918 C 165.02590942382812 52.33392333984375 158.45094299316406 60.56683349609375 187.8899383544922 47.86426544189453" stroke-width="2.0" fill="none" stroke="rgb(0, 0, 0)" stroke-opacity="1" stroke-linecap="round" stroke-linejoin="round"/>
    <path d="M 48.86886978149414 84.61178588867188 C 64.71029663085938 106.79541015625 48.590457916259766 92.48043823242188 51.04084014892578 92.30372619628906 C 51.186927795410156 103.3087158203125 42.597591400146484 100.71321868896484 60.72606658935547 92.35570526123047" stroke-width="2.0" fill="none" stroke="rgb(0, 0, 0)" stroke-opacity="1" stroke-linecap="round" stroke-linejoin="round"/>
    <path d="M 38.276878356933594 79.14002990722656 C 32.0432243347168 103.75981903076172 24.313417434692383 96.53656005859375 38.98832702636719 120.28837585449219 C 30.991411209106445 83.99384307861328 34.712059020996094 106.03878784179688 32.41053009033203 94.77889251708984 C 35.89855194091797 100.52580261230469 36.740386962890625 67.14331817626953 35.007530212402344 58.06505584716797" stroke-width="2.0" fill="none" stroke="rgb(0, 0, 0)" stroke-opacity="1" stroke-linecap="round" stroke-linejoin="round"/>
    <path d="M 84.19499969482422 100.41004943847656 C 87.76273345947266 129.88803100585938 73.57412719726562 115.68141174316406 96.7145767211914 142.8898162841797 C 76.76521301269531 161.710693359375 98.43694305419922 163.4047393798828 82.12897491455078 141.751953125 C 74.68856811523438 147.9388885498047 74.33356475830078 151.54702758789062 46.09067153930664 182.13589477539062" stroke-width="2.0" fill="none" stroke="rgb(0, 0, 0)" stroke-opacity="1" stroke-linecap="round" stroke-linejoin="round"/>
    <path d="M 46.08888626098633 130.86676025390625 C 47.105892181396484 146.6748809814453 44.365474700927734 136.16888427734375 39.4715461730957 130.44703674316406 C 69.94676971435547 149.97268676757812 55.69486999511719 158.18894958496094 42.67326354980469 126.83177947998047 C 68.4621810913086 107.82066345214844 63.70793533325195 129.04791259765625 52.640682220458984 97.72918701171875" stroke-width="2.0" fill="none" stroke="rgb(0, 0, 0)" stroke-opacity="1" stroke-linecap="round" stroke-linejoin="round"/>
    <path d="M 134.8592987060547 183.58653259277344 C 170.26632690429688 172.62538146972656 142.4283905029297 177.959716796875 150.68984985351562 171.73541259765625 C 143.5309600830078 188.57904052734375 121.73460388183594 177.16156005859375 129.86314392089844 173.46182250976562 C 129.9269256591797 188.30935668945312 134.68759155273438 171.1013641357422 161.9463348388672 154.7179718017578" stroke-width="2.0" fill="none" stroke="rgb(0, 0, 0)" stroke-opacity="1" stroke-linecap="round" stroke-linejoin="round"/>
    <path d="M 91.29885864257812 58.135894775390625 C 81.68873596191406 42.52153396606445 95.3099136352539 66.8679428100586 82.14286804199219 37.480194091796875" stroke-width="2.0" fill="none" stroke="rgb(0, 0, 0)" stroke-opacity="1" stroke-linecap="round" stroke-linejoin="round"/>
    <path d="M 44.1343879699707 194.64173889160156 C 7.859677314758301 209.27464294433594 -7.593225955963135 204.17709350585938 13.708704948425293 205.0143280029297" stroke-width="2.0" fill="none" stroke="rgb(0, 0, 0)" stroke-opacity="1" stroke-linecap="round" stroke-linejoin="round"/>
    <path d="M 196.43663024902344 104.92243194580078 C 182.73570251464844 101.26637268066406 189.06796264648438 99.9409408569336 183.53973388671875 69.65283203125 C 179.08526611328125 99.47471618652344 195.60794067382812 89.29179382324219 185.0509490966797 62.32029342651367" stroke-width="2.0" fill="none" stroke="rgb(0, 0, 0)" stroke-opacity="1" stroke-linecap="round" stroke-linejoin="round"/>
    <path d="M 121.09747314453125 75.62210845947266 C 160.24020385742188 92.7741470336914 140.86782836914062 83.9175033569336 142.39926147460938 66.99077606201172 C 130.3090057373047 77.8575668334961 153.47396850585938 80.28243255615234 142.32151794433594 65.70108032226562 C 143.81777954101562 58.306278228759766 139.76426696777344 91.44612884521484 140.2094268798828 70.16712188720703" stroke-width="2.0" fill="none" stroke="rgb(0, 0, 0)" stroke-opacity="1" stroke-linecap="round" stroke-linejoin="round"/>
    <path d="M 188.98927307128906 121.89393615722656 C 186.12469482421875 106.47161102294922 183.80557250976562 110.71452331542969 188.71961975097656 54.92578887939453 C 190.84324645996094 77.8878173828125 195.38531494140625 62.899906158447266 196.7567596435547 71.51309967041016 C 212.44650268554688 112.55947875976562 218.43116760253906 110.36750793457031 194.2541046142578 102.70451354980469" stroke-width="2.0" fill="none" stroke="rgb(0, 0, 0)" stroke-opacity="1" stroke-linecap="round" stroke-linejoin="round"/>
    <path d="M 130.057373046875 119.46451568603516 C 136.4542999267578 136.45204162597656 135.7681427001953 136.778564453125 130.7847900390625 117.33088684082031 C 139.7859649658203 116.83312225341797 137.4423065185547 117.68971252441406 143.65817260742188 111.10963439941406" stroke-width="2.0" fill="none" stroke="rgb(0, 0, 0)" stroke-opacity="1" stroke-linecap="round" stroke-linejoin="round"/>
    <path d="M 163.20408630371094 209.0157928466797 C 179.3486785888672 207.52052307128906 175.61062622070312 212.93862915039062 160.5706787109375 210.0647430419922" stroke-width="2.0" fill="none" stroke="rgb(0, 0, 0)" stroke-opacity="1" stroke-linecap="round" stroke-linejoin="round"/>
    <path d="M 81.6243667602539 230.68978881835938 C 56.20912170410156 235.34181213378906 82.09927368164062 236.12965393066406 62.62410354614258 231.69215393066406 C 56.884674072265625 224.35250854492188 59.609580993652344 246.93992614746094 50.99102020263672 244.44308471679688" stroke-width="2.0" fill="none" stroke="rgb(0, 0, 0)" stroke-opacity="1" stroke-linecap="round" stroke-linejoin="round"/>
    <path d="M 98.31401062011719 196.951416015625 C 116.08634185791016 202.33331298828125 78.55518341064453 215.66848754882812 56.37485122680664 188.33831787109375" stroke-width="2.0" fill="none" stroke="rgb(0, 0, 0)" stroke-opacity="1" stroke-linecap="round" stroke-linejoin="round"/>
    <path d="M 196.24688720703125 206.37725830078125 C 197.1711883544922 217.05426025390625 197.1483917236328 227.03805541992188 180.56361389160156 184.50856018066406 C 177.12850952148438 186.1185760498047 177.81253051757812 197.5977020263672 214.5503387451172 169.1835174560547 C 186.53627014160156 186.85125732421875 189.17874145507812 192.6552276611328 195.91798400878906 181.6416473388672" stroke-width="2.0" fill="none" stroke="rgb(0, 0, 0)" stroke-opacity="1" stroke-linecap="round" stroke-linejoin="round"/>
    <path d="M 98.2083511352539 175.32557678222656 C 110.34709930419922 162.5425567626953 101.55254364013672 169.91690063476562 96.68804931640625 155.7202606201172 C 116.86659240722656 171.31423950195312 109.08656311035156 177.95266723632812 94.92511749267578 161.0283660888672" stroke-width="2.0" fill="none" stroke="rgb(0, 0, 0)" stroke-opacity="1" stroke-linecap="round" stroke-linejoin="round"/>
    <path d="M 39.83280944824219 85.64568328857422 C 35.1718635559082 104.0658950805664 38.49386978149414 80.52035522460938 31.702674865722656 87.28010559082031 C 35.03831481933594 124.92898559570312 27.43046760559082 101.74402618408203 36.493316650390625 87.89139556884766" stroke-width="2.0" fill="none" stroke="rgb(0, 0, 0)" stroke-opacity="1" stroke-linecap="round" stroke-linejoin="round"/>
    <path d="M 227.34674072265625 201.54493713378906 C 241.77789306640625 234.02313232421875 231.44320678710938 223.68017578125 240.26075744628906 227.50367736816406 C 226.86187744140625 207.29676818847656 228.82696533203125 209.9878387451172 232.40634155273438 201.13206481933594 C 226.72476196289062 193.97885131835938 235.85621643066406 197.90032958984375 242.03518676757812 203.2324981689453" stroke-width="2.0" fill="none" stroke="rgb(0, 0, 0)" stroke-opacity="1" stroke-linecap="round" stroke-linejoin="round"/>
    <path d="M 189.34963989257812 179.0328369140625 C 180.9750213623047 185.918701171875 175.93356323242188 196.511962890625 201.8407745361328 178.23402404785156" stroke-width="2.0" fill="none" stroke="rgb(0, 0, 0)" stroke-opacity="1" stroke-linecap="round" stroke-linejoin="round"/>
    <path d="M 63.99600601196289 117.27973175048828 C 61.84373474121094 104.65997314453125 75.9390640258789 120.82913208007812 90.92948150634766 150.84182739257812 C 78.51317596435547 112.73683166503906 85.7086410522461 142.58740234375 78.40116882324219 133.8546142578125 C 55.78934860229492 91.68888092041016 77.44136810302734 112.59461975097656 62.757484436035156 120.2975845336914" stroke-width="2.0" fill="none" stroke="rgb(0, 0, 0)" stroke-opacity="1" stroke-linecap="round" stroke-linejoin="round"/>
    <path d="M 14.361645698547363 142.0943145751953 C 15.626555442810059 147.79908752441406 30.35374641418457 140.4169921875 58.94997024536133 119.46355438232422" stroke-width="2.0" fill="none" stroke="rgb(0, 0, 0)" stroke-opacity="1" stroke-linecap="round" stroke-linejoin="round"/>
    <path d="M 58.99271011352539 -5.3761725425720215 C 64.82415771484375 -10.014116287231445 76.14727020263672 -4.9207587242126465 114.79214477539062 6.299379825592041 C 75.6939697265625 3.108797073364258 69.14614868164062 -22.028066635131836 74.6163101196289 -13.409858703613281" stroke-width="2.0" fill="none" stroke="rgb(0, 0, 0)" stroke-opacity="1" stroke-linecap="round" stroke-linejoin="round"/>
    <path d="M 138.1290740966797 11.121262550354004 C 156.44155883789062 13.550267219543457 166.31117248535156 23.702913284301758 200.7454376220703 22.97230339050293" stroke-width="2.0" fill="none" stroke="rgb(0, 0, 0)" stroke-opacity="1" stroke-linecap="round" stroke-linejoin="round"/>
    <path d="M 9.506654739379883 155.33514404296875 C -1.318897008895874 178.9134063720703 12.480790138244629 189.2785186767578 -1.9170141220092773 181.91574096679688 C -16.002771377563477 186.8727264404297 -12.920247077941895 186.21847534179688 -3.0233328342437744 172.22804260253906 C 8.171196937561035 151.59756469726562 -0.7948017120361328 163.84144592285156 5.553138256072998 223.8804168701172" stroke-width="2.0" fill="none" stroke="rgb(0, 0, 0)" stroke-opacity="1" stroke-linecap="round" stroke-linejoin="round"/>
    <path d="M 127.57804107666016 220.1732635498047 C 176.35826110839844 215.3654022216797 168.38046264648438 215.89663696289062 164.9786376953125 205.17684936523438" stroke-width="2.0" fill="none" stroke="rgb(0, 0, 0)" stroke-opacity="1" stroke-linecap="round" stroke-linejoin="round"/>
    <path d="M 84.8049545288086 205.14340209960938 C 90.05104064941406 209.82313537597656 84.05150604248047 204.07101440429688 56.127952575683594 193.98130798339844" stroke-width="2.0" fill="none" stroke="rgb(0, 0, 0)" stroke-opacity="1" stroke-linecap="round" stroke-linejoin="round"/>
  </g>
</svg>
