<?xml version="1.0" ?>
<svg xmlns="http://www.w3.org/2000/svg" version="1.1" width="224" height="224">
  <defs/>
  <g>
    <path d="M 75.99317932128906 219.9315948486328 C 78.01287841796875 249.75143432617188 81.96192169189453 246.65267944335938 101.84429168701172 233.07815551757812 C 115.19490814208984 223.02951049804688 134.89462280273438 216.33392333984375 98.9819564819336 222.44778442382812 C 109.1987075805664 217.11827087402344 103.05603790283203 220.14593505859375 98.57363891601562 220.63876342773438" stroke-width="2.0" fill="none" stroke="rgb(0, 0, 0)" stroke-opacity="1" stroke-linecap="round" stroke-linejoin="round"/>
    <path d="M 28.004682540893555 84.21087646484375 C -9.249336242675781 86.62427520751953 31.56785774230957 84.131591796875 50.09249496459961 73.83383178710938 C 59.26004409790039 84.4713134765625 51.80032730102539 84.00450897216797 44.8751220703125 87.08987426757812 C 40.50162887573242 76.78863525390625 62.65428161621094 71.80472564697266 23.074853897094727 83.7765884399414" stroke-width="2.0" fill="none" stroke="rgb(0, 0, 0)" stroke-opacity="1" stroke-linecap="round" stroke-linejoin="round"/>
    <path d="M 32.009315490722656 193.32574462890625 C 21.488330841064453 211.16513061523438 -47.36109161376953 207.65028381347656 -31.411409378051758 208.90127563476562" stroke-width="2.0" fill="none" stroke="rgb(0, 0, 0)" stroke-opacity="1" stroke-linecap="round" stroke-linejoin="round"/>
    <path d="M 51.290191650390625 49.590980529785156 C 27.462928771972656 42.19294738769531 77.80673217773438 49.944618225097656 121.9965591430664 44.96255111694336 C 51.19800567626953 50.360225677490234 113.04935455322266 56.806983947753906 151.6928253173828 43.785282135009766 C 113.4919204711914 29.35042381286621 42.151763916015625 29.927080154418945 72.11650085449219 27.351709365844727" stroke-width="2.0" fill="none" stroke="rgb(0, 0, 0)" stroke-opacity="1" stroke-linecap="round" stroke-linejoin="round"/>
    <path d="M 50.580570220947266 75.96744537353516 C 48.54763412475586 84.47028350830078 47.138118743896484 73.37776184082031 46.36824417114258 79.2977294921875 C 54.63631820678711 74.6711196899414 63.854427337646484 78.19413757324219 15.112161636352539 90.6935043334961 C -3.9232733249664307 101.8597183227539 41.149879455566406 94.87905883789062 50.25078582763672 83.84984588623047" stroke-width="2.0" fill="none" stroke="rgb(0, 0, 0)" stroke-opacity="1" stroke-linecap="round" stroke-linejoin="round"/>
    <path d="M 76.6191635131836 230.79119873046875 C 85.73601531982422 213.69664001464844 50.75300216674805 206.05052185058594 59.62211990356445 212.40771484375 C 69.08177947998047 196.12451171875 78.0052490234375 177.34469604492188 34.628238677978516 173.01402282714844" stroke-width="2.0" fill="none" stroke="rgb(0, 0, 0)" stroke-opacity="1" stroke-linecap="round" stroke-linejoin="round"/>
    <path d="M 191.03794860839844 97.50407409667969 C 231.8990020751953 79.72701263427734 194.48312377929688 90.61585998535156 205.60414123535156 95.11465454101562 C 201.77471923828125 86.73090362548828 185.84512329101562 103.65104675292969 212.11895751953125 81.07696533203125" stroke-width="2.0" fill="none" stroke="rgb(0, 0, 0)" stroke-opacity="1" stroke-linecap="round" stroke-linejoin="round"/>
    <path d="M 139.62864685058594 231.05421447753906 C 216.98497009277344 219.2817840576172 214.79200744628906 219.25247192382812 166.26614379882812 236.51608276367188" stroke-width="2.0" fill="none" stroke="rgb(0, 0, 0)" stroke-opacity="1" stroke-linecap="round" stroke-linejoin="round"/>
    <path d="M 111.83668518066406 156.57949829101562 C 143.6331329345703 178.98643493652344 129.90673828125 175.6070098876953 138.194580078125 173.43321228027344 C 141.2780303955078 177.18563842773438 114.36568450927734 183.1114044189453 133.0852813720703 179.72386169433594 C 135.20062255859375 171.68234252929688 144.0482940673828 176.4538116455078 107.67830657958984 188.87986755371094" stroke-width="2.0" fill="none" stroke="rgb(0, 0, 0)" stroke-opacity="1" stroke-linecap="round" stroke-linejoin="round"/>
    <path d="M 194.97537231445312 222.53684997558594 C 234.69998168945312 216.84878540039062 221.88485717773438 196.55776977539062 230.44876098632812 165.16555786132812" stroke-width="2.0" fill="none" stroke="rgb(0, 0, 0)" stroke-opacity="1" stroke-linecap="round" stroke-linejoin="round"/>
    <path d="M -17.750102996826172 161.6098175048828 C 5.985442161560059 159.13250732421875 22.182538986206055 161.06224060058594 -1.8972526788711548 151.0304412841797" stroke-width="2.0" fill="none" stroke="rgb(0, 0, 0)" stroke-opacity="1" stroke-linecap="round" stroke-linejoin="round"/>
    <path d="M 31.972822189331055 170.10105895996094 C 35.419315338134766 179.7641143798828 36.212284088134766 165.31906127929688 32.868045806884766 146.49530029296875" stroke-width="2.0" fill="none" stroke="rgb(0, 0, 0)" stroke-opacity="1" stroke-linecap="round" stroke-linejoin="round"/>
    <path d="M 159.49102783203125 169.54452514648438 C 158.47769165039062 140.07452392578125 146.1741485595703 139.83651733398438 141.88531494140625 134.26626586914062 C 145.70494079589844 137.29200744628906 135.89288330078125 129.53843688964844 146.43072509765625 138.18418884277344 C 140.92819213867188 134.6415557861328 126.73629760742188 120.31407165527344 156.42599487304688 134.0598602294922" stroke-width="2.0" fill="none" stroke="rgb(0, 0, 0)" stroke-opacity="1" stroke-linecap="round" stroke-linejoin="round"/>
    <path d="M 58.62651824951172 30.10540008544922 C 89.53490447998047 36.61656951904297 84.969482421875 7.7299017906188965 91.32440185546875 22.9312686920166 C 101.08467864990234 5.430166721343994 62.189483642578125 0.13705050945281982 84.57573699951172 -0.7089630365371704" stroke-width="2.0" fill="none" stroke="rgb(0, 0, 0)" stroke-opacity="1" stroke-linecap="round" stroke-linejoin="round"/>
    <path d="M 57.67862319946289 189.94186401367188 C 19.69805908203125 190.09039306640625 42.568695068359375 201.2065887451172 52.70104217529297 190.39694213867188 C 59.995113372802734 182.90771484375 49.1219367980957 186.45591735839844 49.313385009765625 202.2093505859375 C 71.12378692626953 198.76553344726562 70.5068359375 184.92739868164062 41.75283432006836 173.84927368164062" stroke-width="2.0" fill="none" stroke="rgb(0, 0, 0)" stroke-opacity="1" stroke-linecap="round" stroke-linejoin="round"/>
    <path d="M 61.05582809448242 197.7753143310547 C 55.03043746948242 209.63796997070312 28.228166580200195 214.79507446289062 38.66241455078125 198.1887969970703 C 64.1547622680664 194.46722412109375 61.13016128540039 179.5862579345703 51.272727966308594 206.02767944335938 C 62.89390182495117 223.42591857910156 63.982521057128906 197.7845001220703 47.27427673339844 206.06956481933594" stroke-width="2.0" fill="none" stroke="rgb(0, 0, 0)" stroke-opacity="1" stroke-linecap="round" stroke-linejoin="round"/>
    <path d="M 119.90850830078125 56.67110061645508 C 126.6991958618164 79.10771942138672 120.14012145996094 88.95466613769531 124.59285736083984 78.25251007080078 C 135.48207092285156 78.80098724365234 125.98917388916016 69.46114349365234 129.7137451171875 69.69283294677734 C 136.10693359375 77.13806915283203 104.34156036376953 84.98436737060547 71.56717681884766 83.23677825927734" stroke-width="2.0" fill="none" stroke="rgb(0, 0, 0)" stroke-opacity="1" stroke-linecap="round" stroke-linejoin="round"/>
    <path d="M 119.21538543701172 163.04933166503906 C 121.00480651855469 178.04774475097656 125.3399658203125 189.37017822265625 117.48597717285156 145.69284057617188 C 108.22254943847656 143.0917510986328 122.90099334716797 160.30589294433594 118.6070327758789 179.781005859375 C 118.39205932617188 178.42648315429688 130.72470092773438 180.2333984375 130.93048095703125 164.9387969970703" stroke-width="2.0" fill="none" stroke="rgb(0, 0, 0)" stroke-opacity="1" stroke-linecap="round" stroke-linejoin="round"/>
    <path d="M 19.868022918701172 168.09417724609375 C 62.38740921020508 166.72483825683594 70.8375473022461 158.04844665527344 79.13496398925781 145.0560302734375 C 85.4842529296875 154.1874237060547 73.27464294433594 183.94590759277344 34.97338104248047 172.11196899414062 C 84.36699676513672 160.53700256347656 92.43856048583984 144.71890258789062 65.55929565429688 137.18154907226562" stroke-width="2.0" fill="none" stroke="rgb(0, 0, 0)" stroke-opacity="1" stroke-linecap="round" stroke-linejoin="round"/>
    <path d="M 208.9672088623047 106.08293914794922 C 196.65000915527344 103.28656005859375 224.91619873046875 99.91157531738281 224.9013671875 74.40509796142578 C 226.13694763183594 78.98646545410156 212.81321716308594 91.13739013671875 227.25619506835938 105.6984634399414" stroke-width="2.0" fill="none" stroke="rgb(0, 0, 0)" stroke-opacity="1" stroke-linecap="round" stroke-linejoin="round"/>
    <path d="M 83.07425689697266 23.380964279174805 C 47.27486038208008 26.78443145751953 62.06497573852539 31.23715591430664 60.248146057128906 8.529989242553711 C 61.94387435913086 34.59384536743164 48.20724868774414 51.456512451171875 26.96097755432129 49.34440994262695" stroke-width="2.0" fill="none" stroke="rgb(0, 0, 0)" stroke-opacity="1" stroke-linecap="round" stroke-linejoin="round"/>
    <path d="M 207.30569458007812 144.312255859375 C 197.39569091796875 143.58668518066406 146.7507781982422 154.41278076171875 156.751220703125 147.88658142089844 C 142.458984375 129.980712890625 133.59378051757812 129.22755432128906 126.7718276977539 140.0709228515625 C 152.09706115722656 118.2420654296875 134.52178955078125 116.12499237060547 167.13516235351562 125.5384750366211" stroke-width="2.0" fill="none" stroke="rgb(0, 0, 0)" stroke-opacity="1" stroke-linecap="round" stroke-linejoin="round"/>
    <path d="M 61.175132751464844 176.48129272460938 C 62.12718963623047 171.28564453125 67.71122741699219 183.78672790527344 79.20067596435547 159.64195251464844 C 93.84288024902344 160.6986846923828 137.07293701171875 166.2737274169922 89.37510681152344 178.63351440429688 C 27.508102416992188 188.48533630371094 72.65144348144531 155.8780517578125 82.82166290283203 171.5529327392578" stroke-width="2.0" fill="none" stroke="rgb(0, 0, 0)" stroke-opacity="1" stroke-linecap="round" stroke-linejoin="round"/>
    <path d="M 148.76409912109375 78.1323013305664 C 140.55224609375 100.7833023071289 158.92942810058594 67.0074462890625 134.93382263183594 81.32846069335938" stroke-width="2.0" fill="none" stroke="rgb(0, 0, 0)" stroke-opacity="1" stroke-linecap="round" stroke-linejoin="round"/>
    <path d="M 145.63287353515625 31.734411239624023 C 168.0069580078125 24.993709564208984 110.35221099853516 37.133358001708984 131.9397430419922 17.481176376342773 C 132.40176391601562 35.842247009277344 131.76776123046875 42.766151428222656 129.00189208984375 21.839128494262695 C 128.2449951171875 37.58772277832031 141.18685913085938 16.353633880615234 114.46469116210938 16.9117374420166" stroke-width="2.0" fill="none" stroke="rgb(0, 0, 0)" stroke-opacity="1" stroke-linecap="round" stroke-linejoin="round"/>
    <path d="M 31.396472930908203 93.03028869628906 C -8.675727844238281 99.56681060791016 -20.188077926635742 93.60914611816406 -19.47504997253418 89.87543487548828 C 20.96870231628418 89.64944458007812 37.7825813293457 81.18006134033203 -8.907172203063965 87.05859375" stroke-width="2.0" fill="none" stroke="rgb(0, 0, 0)" stroke-opacity="1" stroke-linecap="round" stroke-linejoin="round"/>
    <path d="M 156.85179138183594 153.72438049316406 C 162.25604248046875 169.80630493164062 140.95274353027344 187.71876525878906 213.1262664794922 162.11549377441406 C 162.61767578125 161.99496459960938 143.09445190429688 172.92893981933594 168.28224182128906 169.70095825195312" stroke-width="2.0" fill="none" stroke="rgb(0, 0, 0)" stroke-opacity="1" stroke-linecap="round" stroke-linejoin="round"/>
    <path d="M -11.638768196105957 176.07420349121094 C 22.05696678161621 176.4599151611328 25.807546615600586 150.52142333984375 -5.008044719696045 148.8470458984375" stroke-width="2.0" fill="none" stroke="rgb(0, 0, 0)" stroke-opacity="1" stroke-linecap="round" stroke-linejoin="round"/>
    <path d="M 144.15625 152.82252502441406 C 149.31768798828125 147.87271118164062 114.61581420898438 134.75074768066406 128.47146606445312 138.5731201171875 C 108.9241943359375 138.5819854736328 146.5074920654297 155.28395080566406 83.78114318847656 154.02183532714844" stroke-width="2.0" fill="none" stroke="rgb(0, 0, 0)" stroke-opacity="1" stroke-linecap="round" stroke-linejoin="round"/>
    <path d="M 140.9785614013672 98.91655731201172 C 144.97286987304688 113.84349060058594 147.08285522460938 99.96432495117188 129.07594299316406 93.01335906982422 C 142.85272216796875 98.03880310058594 146.0807647705078 101.56075286865234 143.91127014160156 112.88704681396484 C 186.4523162841797 113.70992279052734 203.00390625 120.53886413574219 158.9846649169922 118.92156219482422" stroke-width="2.0" fill="none" stroke="rgb(0, 0, 0)" stroke-opacity="1" stroke-linecap="round" stroke-linejoin="round"/>
    <path d="M 185.2791748046875 76.13381958007812 C 198.61695861816406 94.9535140991211 177.66726684570312 105.27224731445312 201.77923583984375 93.5526123046875 C 180.5620880126953 93.17000579833984 207.5231170654297 95.19027709960938 196.1037139892578 80.031494140625 C 175.39297485351562 65.56427764892578 188.36900329589844 86.19346618652344 184.88101196289062 74.78851318359375" stroke-width="2.0" fill="none" stroke="rgb(0, 0, 0)" stroke-opacity="1" stroke-linecap="round" stroke-linejoin="round"/>
    <path d="M 87.0719223022461 21.01103973388672 C 77.84593963623047 48.42469024658203 89.14080810546875 43.379764556884766 46.63300704956055 42.606056213378906 C 114.6147689819336 46.71649932861328 133.17715454101562 23.564607620239258 70.38214111328125 44.2401008605957" stroke-width="2.0" fill="none" stroke="rgb(0, 0, 0)" stroke-opacity="1" stroke-linecap="round" stroke-linejoin="round"/>
    <path d="M 146.59957885742188 85.6878890991211 C 166.60813903808594 37.44752883911133 168.3386688232422 64.3077621459961 151.83697509765625 84.67660522460938 C 170.5592498779297 45.133792877197266 164.4665985107422 27.330947875976562 163.8250274658203 53.12586212158203 C 190.14599609375 49.286251068115234 180.8192596435547 42.79303741455078 180.54385375976562 56.54916000366211" stroke-width="2.0" fill="none" stroke="rgb(0, 0, 0)" stroke-opacity="1" stroke-linecap="round" stroke-linejoin="round"/>
    <path d="M 11.040413856506348 200.76788330078125 C -69.93037414550781 213.37789916992188 23.522686004638672 230.57522583007812 51.12834548950195 207.1363983154297 C -14.457502365112305 233.8019561767578 -50.23173522949219 198.67958068847656 -57.8310432434082 187.91595458984375 C -5.820225238800049 238.08921813964844 -13.200153350830078 227.8474884033203 -13.892171859741211 224.8333740234375" stroke-width="2.0" fill="none" stroke="rgb(0, 0, 0)" stroke-opacity="1" stroke-linecap="round" stroke-linejoin="round"/>
    <path d="M 16.194541931152344 84.1554946899414 C 20.7797794342041 101.09850311279297 0.30033671855926514 100.39034271240234 37.993412017822266 89.92565155029297 C 31.361621856689453 95.12638854980469 -5.741988658905029 95.33692169189453 12.452864646911621 95.43714904785156 C 12.10340404510498 77.50947570800781 15.978840827941895 82.45661163330078 20.120437622070312 109.65184783935547" stroke-width="2.0" fill="none" stroke="rgb(0, 0, 0)" stroke-opacity="1" stroke-linecap="round" stroke-linejoin="round"/>
    <path d="M 42.25886535644531 44.6456184387207 C 81.45191192626953 40.66291046142578 104.9161148071289 41.44949722290039 142.4224853515625 41.595787048339844 C 156.67440795898438 45.71427536010742 129.2776336669922 60.94466781616211 78.87391662597656 56.432823181152344" stroke-width="2.0" fill="none" stroke="rgb(0, 0, 0)" stroke-opacity="1" stroke-linecap="round" stroke-linejoin="round"/>
    <path d="M 36.06886672973633 182.41232299804688 C 22.712200164794922 177.76199340820312 41.35359191894531 184.06344604492188 64.61019134521484 195.6324462890625 C 56.792320251464844 206.48919677734375 37.5088005065918 207.462646484375 44.854061126708984 209.05294799804688" stroke-width="2.0" fill="none" stroke="rgb(0, 0, 0)" stroke-opacity="1" stroke-linecap="round" stroke-linejoin="round"/>
    <path d="M 190.10891723632812 51.6825065612793 C 204.35186767578125 53.28468704223633 219.90151977539062 39.45597839355469 226.7453155517578 6.70513391494751" stroke-width="2.0" fill="none" stroke="rgb(0, 0, 0)" stroke-opacity="1" stroke-linecap="round" stroke-linejoin="round"/>
    <path d="M 17.740758895874023 188.11668395996094 C -1.7448569536209106 179.30157470703125 -10.946548461914062 199.4503936767578 13.051599502563477 186.59530639648438" stroke-width="2.0" fill="none" stroke="rgb(0, 0, 0)" stroke-opacity="1" stroke-linecap="round" stroke-linejoin="round"/>
    <path d="M 106.69634246826172 11.103472709655762 C 144.7263641357422 14.235177993774414 143.85647583007812 4.373896598815918 131.1208038330078 0.0006401054561138153 C 137.4696502685547 -22.692907333374023 129.6580810546875 -32.24797058105469 138.2754364013672 -44.83879470825195 C 144.06033325195312 -23.259113311767578 142.71292114257812 -26.00240707397461 150.32199096679688 -22.846853256225586" stroke-width="2.0" fill="none" stroke="rgb(0, 0, 0)" stroke-opacity="1" stroke-linecap="round" stroke-linejoin="round"/>
    <path d="M 182.9593048095703 129.8734893798828 C 187.16717529296875 181.02146911621094 189.2558135986328 137.68231201171875 172.83863830566406 119.14531707763672 C 116.06034851074219 96.75093841552734 180.9414520263672 144.9580535888672 179.29978942871094 141.77098083496094 C 156.1338348388672 142.94598388671875 141.49359130859375 150.1087188720703 169.41400146484375 145.51475524902344" stroke-width="2.0" fill="none" stroke="rgb(0, 0, 0)" stroke-opacity="1" stroke-linecap="round" stroke-linejoin="round"/>
    <path d="M 206.20712280273438 43.17587661743164 C 204.02171325683594 29.631975173950195 217.89239501953125 28.0096378326416 191.2215118408203 47.35853958129883 C 190.4984893798828 51.314144134521484 190.0874481201172 36.217037200927734 199.08248901367188 52.530670166015625 C 209.61883544921875 41.05715560913086 202.62338256835938 57.581336975097656 165.81011962890625 62.07100296020508" stroke-width="2.0" fill="none" stroke="rgb(0, 0, 0)" stroke-opacity="1" stroke-linecap="round" stroke-linejoin="round"/>
    <path d="M 173.9291534423828 205.39926147460938 C 215.0292510986328 200.9398193359375 214.75401306152344 209.57675170898438 211.82057189941406 220.36048889160156 C 184.23052978515625 240.20089721679688 153.82736206054688 220.1531219482422 171.47314453125 237.6717071533203 C 186.81478881835938 246.42201232910156 184.39552307128906 248.9507293701172 190.95042419433594 251.69918823242188" stroke-width="2.0" fill="none" stroke="rgb(0, 0, 0)" stroke-opacity="1" stroke-linecap="round" stroke-linejoin="round"/>
    <path d="M 10.049493789672852 128.97581481933594 C -45.136898040771484 137.1709747314453 -17.72872543334961 117.72298431396484 9.0380859375 114.38573455810547" stroke-width="2.0" fill="none" stroke="rgb(0, 0, 0)" stroke-opacity="1" stroke-linecap="round" stroke-linejoin="round"/>
    <path d="M 62.634498596191406 75.62576293945312 C 44.09584426879883 93.71166229248047 20.061922073364258 93.70407104492188 44.41288375854492 80.17796325683594" stroke-width="2.0" fill="none" stroke="rgb(0, 0, 0)" stroke-opacity="1" stroke-linecap="round" stroke-linejoin="round"/>
    <path d="M 53.07743835449219 118.91119384765625 C 46.87372589111328 123.61409759521484 73.72998809814453 112.4045639038086 66.92488861083984 90.91859436035156" stroke-width="2.0" fill="none" stroke="rgb(0, 0, 0)" stroke-opacity="1" stroke-linecap="round" stroke-linejoin="round"/>
    <path d="M 97.74140930175781 -5.439659595489502 C 108.94514465332031 15.954629898071289 103.83770751953125 -8.049226760864258 89.92674255371094 -1.961279034614563 C 82.86714935302734 -12.485819816589355 86.0401840209961 -3.255002975463867 82.15696716308594 -16.73813247680664 C 83.15882873535156 17.948232650756836 98.01029205322266 2.0512185096740723 112.57881164550781 21.131629943847656" stroke-width="2.0" fill="none" stroke="rgb(0, 0, 0)" stroke-opacity="1" stroke-linecap="round" stroke-linejoin="round"/>
    <path d="M 218.64694213867188 160.77096557617188 C 211.74728393554688 143.94204711914062 215.44622802734375 150.76576232910156 201.2841796875 156.7187957763672 C 211.13186645507812 150.81822204589844 212.60595703125 138.26490783691406 219.33950805664062 158.71434020996094 C 216.5975799560547 162.6783447265625 227.84666442871094 148.82278442382812 221.098388671875 137.71566772460938" stroke-width="2.0" fill="none" stroke="rgb(0, 0, 0)" stroke-opacity="1" stroke-linecap="round" stroke-linejoin="round"/>
    <path d="M 56.33369827270508 191.39907836914062 C 50.13777160644531 212.6256561279297 54.68397903442383 205.30154418945312 61.85941696166992 189.8859100341797 C 52.30254364013672 208.23779296875 62.24333190917969 204.86854553222656 121.11274719238281 202.05718994140625 C 100.92705535888672 203.15357971191406 75.10079956054688 210.80433654785156 87.54161834716797 205.42701721191406" stroke-width="2.0" fill="none" stroke="rgb(0, 0, 0)" stroke-opacity="1" stroke-linecap="round" stroke-linejoin="round"/>
    <path d="M 88.85676574707031 131.0244903564453 C 95.3855972290039 84.27498626708984 59.33922576904297 96.8509750366211 120.91041564941406 101.81285095214844 C 87.19707489013672 83.7275390625 65.27987670898438 96.34750366210938 73.11983489990234 82.93282318115234 C 59.4539680480957 90.7599868774414 122.69605255126953 84.90872192382812 133.13778686523438 104.05128479003906" stroke-width="2.0" fill="none" stroke="rgb(0, 0, 0)" stroke-opacity="1" stroke-linecap="round" stroke-linejoin="round"/>
    <path d="M 115.65880584716797 3.0054121017456055 C 77.19253540039062 -0.00514187291264534 85.18181610107422 -15.450627326965332 95.83351135253906 13.111536026000977 C 82.73429107666016 -12.199729919433594 61.60300827026367 -2.830458879470825 94.48638916015625 4.741757869720459" stroke-width="2.0" fill="none" stroke="rgb(0, 0, 0)" stroke-opacity="1" stroke-linecap="round" stroke-linejoin="round"/>
    <path d="M 97.54728698730469 192.28573608398438 C 112.50174713134766 182.23199462890625 148.83233642578125 185.23391723632812 121.02254486083984 167.0533447265625" stroke-width="2.0" fill="none" stroke="rgb(0, 0, 0)" stroke-opacity="1" stroke-linecap="round" stroke-linejoin="round"/>
    <path d="M -9.390410423278809 27.01656150817871 C 19.20363998413086 33.573482513427734 -23.827850341796875 53.21194076538086 28.792970657348633 40.77786636352539" stroke-width="2.0" fill="none" stroke="rgb(0, 0, 0)" stroke-opacity="1" stroke-linecap="round" stroke-linejoin="round"/>
    <path d="M 36.16194152832031 155.573486328125 C 53.946414947509766 148.39968872070312 41.23480987548828 164.0825958251953 50.08248519897461 177.5859832763672 C 69.18782043457031 155.7261962890625 81.21115112304688 158.18565368652344 61.35184097290039 169.89810180664062" stroke-width="2.0" fill="none" stroke="rgb(0, 0, 0)" stroke-opacity="1" stroke-linecap="round" stroke-linejoin="round"/>
    <path d="M 106.2079086303711 128.28457641601562 C 136.52203369140625 122.28556823730469 128.54920959472656 145.44236755371094 111.94705963134766 147.64088439941406 C 106.73590087890625 141.62103271484375 155.7938232421875 127.43909454345703 122.15705108642578 141.85205078125" stroke-width="2.0" fill="none" stroke="rgb(0, 0, 0)" stroke-opacity="1" stroke-linecap="round" stroke-linejoin="round"/>
    <path d="M 130.05328369140625 17.74522590637207 C 84.385498046875 20.079084396362305 166.1077423095703 28.13451385498047 177.74208068847656 6.749469757080078 C 158.44898986816406 17.99393653869629 178.63075256347656 9.644782066345215 169.99412536621094 -2.7926645278930664 C 164.1916961669922 -0.39615708589553833 185.67408752441406 10.007960319519043 137.3785858154297 16.59440040588379" stroke-width="2.0" fill="none" stroke="rgb(0, 0, 0)" stroke-opacity="1" stroke-linecap="round" stroke-linejoin="round"/>
    <path d="M 205.01727294921875 190.1433868408203 C 209.20127868652344 173.3836212158203 190.8233642578125 190.61167907714844 184.73585510253906 185.27500915527344" stroke-width="2.0" fill="none" stroke="rgb(0, 0, 0)" stroke-opacity="1" stroke-linecap="round" stroke-linejoin="round"/>
    <path d="M 150.97178649902344 27.567190170288086 C 133.30322265625 24.83165168762207 106.96730041503906 37.65877914428711 160.76206970214844 34.65525817871094 C 156.5336456298828 29.309574127197266 153.87420654296875 43.83297348022461 154.41497802734375 26.285531997680664" stroke-width="2.0" fill="none" stroke="rgb(0, 0, 0)" stroke-opacity="1" stroke-linecap="round" stroke-linejoin="round"/>
    <path d="M 186.8223419189453 185.84364318847656 C 152.06585693359375 193.25674438476562 190.22850036621094 176.9698944091797 168.9677276611328 198.50376892089844 C 211.12889099121094 199.24046325683594 217.2436065673828 191.11126708984375 182.39910888671875 202.04969787597656" stroke-width="2.0" fill="none" stroke="rgb(0, 0, 0)" stroke-opacity="1" stroke-linecap="round" stroke-linejoin="round"/>
    <path d="M 214.05335998535156 176.26182556152344 C 205.7615509033203 180.35606384277344 189.06137084960938 182.0148468017578 160.97047424316406 187.90769958496094 C 219.27792358398438 183.86134338378906 206.9488983154297 182.3562469482422 179.78158569335938 185.29544067382812 C 223.83128356933594 171.9405975341797 209.4127655029297 170.49807739257812 208.22476196289062 181.47409057617188" stroke-width="2.0" fill="none" stroke="rgb(0, 0, 0)" stroke-opacity="1" stroke-linecap="round" stroke-linejoin="round"/>
    <path d="M 220.0172119140625 85.60087585449219 C 234.05767822265625 108.34302520751953 224.5774688720703 91.4254150390625 221.57435607910156 84.88827514648438 C 205.1151123046875 103.36864471435547 192.27720642089844 106.23181915283203 211.03392028808594 96.96593475341797 C 212.1012725830078 92.01219177246094 224.59103393554688 85.8476791381836 226.38230895996094 59.67510223388672" stroke-width="2.0" fill="none" stroke="rgb(0, 0, 0)" stroke-opacity="1" stroke-linecap="round" stroke-linejoin="round"/>
    <path d="M 45.34318161010742 -2.7417149543762207 C 59.626258850097656 5.0758771896362305 68.3682632446289 4.2148637771606445 16.346969604492188 -8.151435852050781" stroke-width="2.0" fill="none" stroke="rgb(0, 0, 0)" stroke-opacity="1" stroke-linecap="round" stroke-linejoin="round"/>
    <path d="M 127.37863159179688 29.880353927612305 C 191.71800231933594 18.73666763305664 163.9189910888672 14.830195426940918 118.6922607421875 17.478178024291992" stroke-width="2.0" fill="none" stroke="rgb(0, 0, 0)" stroke-opacity="1" stroke-linecap="round" stroke-linejoin="round"/>
    <path d="M 109.47358703613281 34.70068359375 C 129.020751953125 20.561290740966797 78.31449127197266 1.6161017417907715 75.90491485595703 0.8861897587776184 C 118.27408599853516 7.91127347946167 124.0895767211914 7.771154403686523 97.35700988769531 -0.6047506928443909 C 104.79576110839844 -18.088003158569336 93.26061248779297 -30.46541976928711 81.81416320800781 -37.18128967285156" stroke-width="2.0" fill="none" stroke="rgb(0, 0, 0)" stroke-opacity="1" stroke-linecap="round" stroke-linejoin="round"/>
    <path d="M 59.168373107910156 53.05601119995117 C 70.38526153564453 56.3754997253418 74.27454376220703 51.66178512573242 92.18402862548828 67.99598693847656" stroke-width="2.0" fill="none" stroke="rgb(0, 0, 0)" stroke-opacity="1" stroke-linecap="round" stroke-linejoin="round"/>
    <path d="M 5.739326000213623 95.76457977294922 C 29.18124008178711 88.30290985107422 48.74281692504883 102.7655029296875 14.244227409362793 108.46583557128906 C 41.77944564819336 102.89830780029297 51.923805236816406 105.1624984741211 7.825687885284424 114.57801055908203" stroke-width="2.0" fill="none" stroke="rgb(0, 0, 0)" stroke-opacity="1" stroke-linecap="round" stroke-linejoin="round"/>
    <path d="M 52.26557540893555 107.32972717285156 C 65.78767395019531 96.58259582519531 69.73067474365234 133.0936279296875 -6.827087879180908 137.80966186523438" stroke-width="2.0" fill="none" stroke="rgb(0, 0, 0)" stroke-opacity="1" stroke-linecap="round" stroke-linejoin="round"/>
    <path d="M 91.38318634033203 131.22738647460938 C 95.68032836914062 117.8751220703125 80.15599822998047 123.79312133789062 102.0050048828125 123.30355072021484 C 142.2673797607422 130.54086303710938 118.95603942871094 133.84449768066406 72.42180633544922 129.9139404296875" stroke-width="2.0" fill="none" stroke="rgb(0, 0, 0)" stroke-opacity="1" stroke-linecap="round" stroke-linejoin="round"/>
    <path d="M 94.49258422851562 59.92053985595703 C 109.22075653076172 77.89818572998047 106.46650695800781 78.46231079101562 69.4356689453125 78.66087341308594 C 72.77092742919922 91.04899597167969 80.16632843017578 77.23181915283203 117.33053588867188 96.37616729736328" stroke-width="2.0" fill="none" stroke="rgb(0, 0, 0)" stroke-opacity="1" stroke-linecap="round" stroke-linejoin="round"/>
    <path d="M 25.699296951293945 210.4245147705078 C 61.81505584716797 202.59637451171875 31.789867401123047 211.03355407714844 50.78559494018555 209.10096740722656 C 73.96504974365234 211.47579956054688 44.54167556762695 222.4247589111328 8.431975364685059 228.09368896484375" stroke-width="2.0" fill="none" stroke="rgb(0, 0, 0)" stroke-opacity="1" stroke-linecap="round" stroke-linejoin="round"/>
    <path d="M 60.653690338134766 186.2784423828125 C 56.45045471191406 210.821044921875 73.64324951171875 215.76358032226562 43.85914611816406 198.38421630859375 C 57.8729248046875 187.29161071777344 71.09627532958984 190.92803955078125 52.084415435791016 204.67861938476562" stroke-width="2.0" fill="none" stroke="rgb(0, 0, 0)" stroke-opacity="1" stroke-linecap="round" stroke-linejoin="round"/>
    <path d="M 186.0133514404297 177.44662475585938 C 141.56527709960938 188.5906524658203 161.47305297851562 174.0458221435547 163.55511474609375 188.4171142578125 C 159.0615234375 204.37994384765625 156.1866455078125 202.91624450683594 185.77804565429688 197.3890380859375" stroke-width="2.0" fill="none" stroke="rgb(0, 0, 0)" stroke-opacity="1" stroke-linecap="round" stroke-linejoin="round"/>
    <path d="M 161.16107177734375 133.4677734375 C 130.73251342773438 125.12909698486328 146.4781494140625 133.65606689453125 143.77601623535156 102.52896118164062 C 151.5213623046875 124.3541259765625 137.6433868408203 114.24149322509766 154.86221313476562 118.06639862060547" stroke-width="2.0" fill="none" stroke="rgb(0, 0, 0)" stroke-opacity="1" stroke-linecap="round" stroke-linejoin="round"/>
    <path d="M 168.67520141601562 154.607666015625 C 147.81919860839844 162.1990509033203 157.41441345214844 136.72195434570312 170.73683166503906 147.42823791503906 C 166.50906372070312 157.1707763671875 180.53634643554688 167.31617736816406 162.52655029296875 127.05628204345703" stroke-width="2.0" fill="none" stroke="rgb(0, 0, 0)" stroke-opacity="1" stroke-linecap="round" stroke-linejoin="round"/>
    <path d="M 100.71145629882812 203.7269744873047 C 138.0387420654297 193.21424865722656 166.85107421875 177.1703338623047 116.35090637207031 203.18551635742188 C 137.1114501953125 190.8817138671875 158.19509887695312 183.73182678222656 158.85826110839844 162.79745483398438 C 160.91552734375 189.0449981689453 147.74319458007812 173.69386291503906 157.02618408203125 187.63320922851562" stroke-width="2.0" fill="none" stroke="rgb(0, 0, 0)" stroke-opacity="1" stroke-linecap="round" stroke-linejoin="round"/>
    <path d="M 153.70928955078125 230.60446166992188 C 187.8252410888672 221.48707580566406 162.16928100585938 231.42938232421875 156.8660125732422 232.10740661621094" stroke-width="2.0" fill="none" stroke="rgb(0, 0, 0)" stroke-opacity="1" stroke-linecap="round" stroke-linejoin="round"/>
    <path d="M 219.1182098388672 133.3606719970703 C 234.2429962158203 86.3000259399414 233.0565948486328 137.63536071777344 196.5066680908203 152.14901733398438" stroke-width="2.0" fill="none" stroke="rgb(0, 0, 0)" stroke-opacity="1" stroke-linecap="round" stroke-linejoin="round"/>
    <path d="M 203.952880859375 96.08065795898438 C 182.29837036132812 110.52859497070312 145.5089874267578 109.78673553466797 197.0004425048828 98.97472381591797 C 194.35501098632812 91.78150177001953 185.43467712402344 104.09716796875 143.60482788085938 105.75939178466797" stroke-width="2.0" fill="none" stroke="rgb(0, 0, 0)" stroke-opacity="1" stroke-linecap="round" stroke-linejoin="round"/>
    <path d="M 84.3545150756836 148.1323699951172 C 140.02981567382812 142.0932159423828 130.1633758544922 133.70828247070312 89.32481384277344 151.42039489746094 C 137.21299743652344 149.25894165039062 112.94874572753906 130.49346923828125 134.0795135498047 149.6177215576172" stroke-width="2.0" fill="none" stroke="rgb(0, 0, 0)" stroke-opacity="1" stroke-linecap="round" stroke-linejoin="round"/>
    <path d="M 121.57670593261719 -5.194721221923828 C 153.52496337890625 -2.294743537902832 112.72369384765625 9.201395988464355 122.86756896972656 2.012354850769043 C 134.9500732421875 -3.3382821083068848 129.70399475097656 -15.096209526062012 123.1247329711914 -20.14133071899414" stroke-width="2.0" fill="none" stroke="rgb(0, 0, 0)" stroke-opacity="1" stroke-linecap="round" stroke-linejoin="round"/>
    <path d="M 152.1642303466797 194.40769958496094 C 155.5747528076172 193.29159545898438 158.42926025390625 204.42413330078125 122.03699493408203 215.6197967529297" stroke-width="2.0" fill="none" stroke="rgb(0, 0, 0)" stroke-opacity="1" stroke-linecap="round" stroke-linejoin="round"/>
    <path d="M -11.032012939453125 49.36434555053711 C 21.92720603942871 46.0949821472168 56.815765380859375 54.065433502197266 59.407325744628906 65.68738555908203 C 54.66944122314453 76.00531005859375 16.490074157714844 83.72191619873047 42.03600311279297 84.14982604980469" stroke-width="2.0" fill="none" stroke="rgb(0, 0, 0)" stroke-opacity="1" stroke-linecap="round" stroke-linejoin="round"/>
    <path d="M 211.5786895751953 31.75804328918457 C 197.3951416015625 35.30552673339844 215.65679931640625 43.81568908691406 215.5757293701172 49.18156051635742 C 221.11517333984375 58.564842224121094 200.54225158691406 69.73248291015625 203.06875610351562 67.70545196533203 C 180.4878692626953 80.86339569091797 144.15997314453125 78.63471221923828 154.62332153320312 75.82240295410156" stroke-width="2.0" fill="none" stroke="rgb(0, 0, 0)" stroke-opacity="1" stroke-linecap="round" stroke-linejoin="round"/>
    <path d="M 59.9849967956543 199.9663848876953 C 70.98612976074219 216.5039825439453 36.95427703857422 205.73275756835938 37.3659553527832 208.95773315429688" stroke-width="2.0" fill="none" stroke="rgb(0, 0, 0)" stroke-opacity="1" stroke-linecap="round" stroke-linejoin="round"/>
    <path d="M 162.063232421875 93.98806762695312 C 135.26873779296875 85.5581283569336 136.3961639404297 80.85676574707031 175.32420349121094 82.58030700683594" stroke-width="2.0" fill="none" stroke="rgb(0, 0, 0)" stroke-opacity="1" stroke-linecap="round" stroke-linejoin="round"/>
    <path d="M 195.18130493164062 228.39915466308594 C 181.79275512695312 231.03512573242188 200.81211853027344 233.3894500732422 204.1275634765625 228.4747314453125 C 173.64540100097656 230.53602600097656 186.25411987304688 236.71292114257812 212.68589782714844 227.89755249023438" stroke-width="2.0" fill="none" stroke="rgb(0, 0, 0)" stroke-opacity="1" stroke-linecap="round" stroke-linejoin="round"/>
    <path d="M 47.09402084350586 44.27460479736328 C 40.418033599853516 40.01996994018555 81.38908386230469 47.44416046142578 101.47765350341797 40.63521957397461 C 108.43765258789062 52.073455810546875 93.84056091308594 57.072635650634766 44.739986419677734 49.36773681640625" stroke-width="2.0" fill="none" stroke="rgb(0, 0, 0)" stroke-opacity="1" stroke-linecap="round" stroke-linejoin="round"/>
    <path d="M 62.88851547241211 198.10040283203125 C 72.34326934814453 216.4656524658203 15.780478477478027 223.90196228027344 36.182273864746094 205.85244750976562 C 70.7165756225586 190.11141967773438 53.23227310180664 193.78030395507812 38.19993209838867 201.97146606445312 C 32.723724365234375 209.699462890625 38.65195083618164 218.3340606689453 36.53956985473633 186.55380249023438" stroke-width="2.0" fill="none" stroke="rgb(0, 0, 0)" stroke-opacity="1" stroke-linecap="round" stroke-linejoin="round"/>
    <path d="M 176.7866668701172 3.921175956726074 C 208.1529998779297 1.0023547410964966 151.4309844970703 21.021757125854492 174.63052368164062 16.45625114440918 C 182.8973388671875 15.363109588623047 167.48928833007812 -0.09404099732637405 145.18809509277344 -1.1207865476608276" stroke-width="2.0" fill="none" stroke="rgb(0, 0, 0)" stroke-opacity="1" stroke-linecap="round" stroke-linejoin="round"/>
    <path d="M 121.27410888671875 211.1171112060547 C 119.68988037109375 195.46981811523438 133.9842071533203 196.44212341308594 127.78923797607422 182.76211547851562 C 119.3167724609375 184.01853942871094 122.76299285888672 185.59217834472656 136.5477294921875 174.8768768310547" stroke-width="2.0" fill="none" stroke="rgb(0, 0, 0)" stroke-opacity="1" stroke-linecap="round" stroke-linejoin="round"/>
    <path d="M 69.51869201660156 130.5553741455078 C 72.75117492675781 111.22874450683594 55.29309844970703 137.58155822753906 73.2472152709961 130.31329345703125 C 65.38993072509766 130.67320251464844 70.2404556274414 108.23453521728516 55.75868225097656 140.38868713378906 C 76.54428100585938 129.23812866210938 45.08509063720703 135.11717224121094 49.36275863647461 144.66416931152344" stroke-width="2.0" fill="none" stroke="rgb(0, 0, 0)" stroke-opacity="1" stroke-linecap="round" stroke-linejoin="round"/>
    <path d="M 42.32365036010742 69.2046890258789 C 46.937278747558594 53.3198127746582 -14.579717636108398 60.889591217041016 -11.371465682983398 43.30628204345703 C 48.519691467285156 53.566043853759766 59.28527069091797 26.144636154174805 47.413291931152344 40.10920715332031" stroke-width="2.0" fill="none" stroke="rgb(0, 0, 0)" stroke-opacity="1" stroke-linecap="round" stroke-linejoin="round"/>
    <path d="M 68.36872100830078 166.30746459960938 C 49.981666564941406 173.3046112060547 35.12733840942383 173.10296630859375 66.4605712890625 172.9552459716797" stroke-width="2.0" fill="none" stroke="rgb(0, 0, 0)" stroke-opacity="1" stroke-linecap="round" stroke-linejoin="round"/>
    <path d="M 137.99813842773438 89.44600677490234 C 91.9028091430664 94.94660186767578 146.71009826660156 79.3770980834961 96.17366027832031 86.46295928955078" stroke-width="2.0" fill="none" stroke="rgb(0, 0, 0)" stroke-opacity="1" stroke-linecap="round" stroke-linejoin="round"/>
    <path d="M 71.5742416381836 193.24668884277344 C 163.08908081054688 181.6594696044922 113.480224609375 193.035400390625 70.32547760009766 197.23057556152344" stroke-width="2.0" fill="none" stroke="rgb(0, 0, 0)" stroke-opacity="1" stroke-linecap="round" stroke-linejoin="round"/>
    <path d="M 119.19017791748047 175.19976806640625 C 156.44781494140625 166.0981903076172 112.12025451660156 171.1587371826172 124.33585357666016 176.14988708496094" stroke-width="2.0" fill="none" stroke="rgb(0, 0, 0)" stroke-opacity="1" stroke-linecap="round" stroke-linejoin="round"/>
    <path d="M 91.55815887451172 139.8610382080078 C 166.7563934326172 127.32118225097656 67.19554138183594 141.5340118408203 64.75959014892578 133.50009155273438 C 41.490272521972656 122.2962875366211 65.68833923339844 139.63681030273438 72.54295349121094 99.59292602539062 C 52.29576873779297 131.64088439941406 -13.784912109375 134.56768798828125 29.988872528076172 129.75155639648438" stroke-width="2.0" fill="none" stroke="rgb(0, 0, 0)" stroke-opacity="1" stroke-linecap="round" stroke-linejoin="round"/>
    <path d="M 49.4365119934082 192.1333465576172 C 71.92662811279297 192.93319702148438 56.302101135253906 178.003662109375 19.41445541381836 175.8800811767578 C 16.407621383666992 170.37368774414062 23.75818634033203 157.92147827148438 14.593110084533691 184.55133056640625 C 13.032196044921875 185.3756866455078 21.743366241455078 158.89801025390625 18.156166076660156 156.47694396972656" stroke-width="2.0" fill="none" stroke="rgb(0, 0, 0)" stroke-opacity="1" stroke-linecap="round" stroke-linejoin="round"/>
    <path d="M 32.405208587646484 82.2957992553711 C 31.493820190429688 88.47827911376953 50.01348114013672 101.58524322509766 23.41060447692871 99.67745208740234 C 74.65122985839844 95.30730438232422 65.83960723876953 120.64232635498047 4.681422710418701 130.12103271484375" stroke-width="2.0" fill="none" stroke="rgb(0, 0, 0)" stroke-opacity="1" stroke-linecap="round" stroke-linejoin="round"/>
    <path d="M 180.84417724609375 190.02175903320312 C 166.768798828125 184.9428253173828 174.19387817382812 182.28526306152344 173.05526733398438 195.6907958984375 C 173.97654724121094 221.22018432617188 138.60231018066406 207.20736694335938 161.1944122314453 204.3957061767578 C 148.66053771972656 203.07498168945312 155.91571044921875 210.3999786376953 200.7179412841797 198.02914428710938" stroke-width="2.0" fill="none" stroke="rgb(0, 0, 0)" stroke-opacity="1" stroke-linecap="round" stroke-linejoin="round"/>
    <path d="M 69.48095703125 222.01364135742188 C 98.2823257446289 229.0908203125 83.28649139404297 231.09011840820312 61.03812026977539 229.62135314941406" stroke-width="2.0" fill="none" stroke="rgb(0, 0, 0)" stroke-opacity="1" stroke-linecap="round" stroke-linejoin="round"/>
    <path d="M 214.7127685546875 191.18116760253906 C 194.7439422607422 204.0575408935547 190.85768127441406 198.079833984375 163.32452392578125 191.78598022460938 C 153.91770935058594 202.1666259765625 153.21932983398438 213.5161895751953 163.0269012451172 192.4276580810547 C 156.174560546875 191.31056213378906 177.9873046875 193.51808166503906 190.3232421875 182.99147033691406" stroke-width="2.0" fill="none" stroke="rgb(0, 0, 0)" stroke-opacity="1" stroke-linecap="round" stroke-linejoin="round"/>
    <path d="M 107.86156463623047 206.50360107421875 C 150.39144897460938 176.97779846191406 149.30589294433594 202.81390380859375 100.42906951904297 208.15255737304688 C 98.00312042236328 197.6156005859375 91.03807067871094 217.1588897705078 101.2451400756836 203.03648376464844" stroke-width="2.0" fill="none" stroke="rgb(0, 0, 0)" stroke-opacity="1" stroke-linecap="round" stroke-linejoin="round"/>
    <path d="M 195.98440551757812 189.6389617919922 C 193.5587615966797 209.17776489257812 200.0938720703125 191.9473419189453 185.73757934570312 201.50045776367188 C 185.48379516601562 193.52484130859375 191.6683807373047 182.98468017578125 165.76687622070312 187.32009887695312" stroke-width="2.0" fill="none" stroke="rgb(0, 0, 0)" stroke-opacity="1" stroke-linecap="round" stroke-linejoin="round"/>
    <path d="M 133.42019653320312 104.92935180664062 C 105.7774658203125 84.54975891113281 111.18132781982422 96.09176635742188 113.94947052001953 93.36961364746094 C 139.0601806640625 109.4899673461914 133.31021118164062 123.38072967529297 83.0536117553711 123.39207458496094" stroke-width="2.0" fill="none" stroke="rgb(0, 0, 0)" stroke-opacity="1" stroke-linecap="round" stroke-linejoin="round"/>
    <path d="M 207.53244018554688 175.4915313720703 C 232.6302947998047 163.21070861816406 233.31356811523438 137.7757110595703 217.74462890625 170.78732299804688 C 230.34600830078125 208.14935302734375 221.60487365722656 192.3357391357422 227.9066619873047 165.8629608154297 C 231.74008178710938 173.74481201171875 241.90003967285156 175.7962646484375 245.99310302734375 168.6879425048828" stroke-width="2.0" fill="none" stroke="rgb(0, 0, 0)" stroke-opacity="1" stroke-linecap="round" stroke-linejoin="round"/>
    <path d="M 140.3654022216797 213.6053009033203 C 171.48403930664062 195.43695068359375 158.7152557373047 184.1188507080078 159.23736572265625 165.39138793945312 C 166.44329833984375 200.7184600830078 154.19674682617188 207.3834686279297 196.1293182373047 199.1969757080078" stroke-width="2.0" fill="none" stroke="rgb(0, 0, 0)" stroke-opacity="1" stroke-linecap="round" stroke-linejoin="round"/>
    <path d="M 160.58982849121094 -7.2362751960754395 C 179.77867126464844 -2.826608657836914 198.57366943359375 13.662887573242188 170.19268798828125 -2.8579158782958984 C 178.03538513183594 13.42761516571045 155.8099822998047 19.845680236816406 163.44869995117188 20.342708587646484" stroke-width="2.0" fill="none" stroke="rgb(0, 0, 0)" stroke-opacity="1" stroke-linecap="round" stroke-linejoin="round"/>
    <path d="M -11.516951560974121 101.34255981445312 C 13.612295150756836 101.26343536376953 22.108121871948242 92.33633422851562 19.978809356689453 104.75492858886719 C 7.475649833679199 108.89463806152344 26.336210250854492 111.07221221923828 54.407161712646484 93.46066284179688" stroke-width="2.0" fill="none" stroke="rgb(0, 0, 0)" stroke-opacity="1" stroke-linecap="round" stroke-linejoin="round"/>
    <path d="M 52.393699645996094 -3.319950580596924 C 86.26036834716797 9.98234748840332 68.98750305175781 2.8610453605651855 42.016029357910156 -10.2916898727417 C 60.98445129394531 -4.93344259262085 72.71294403076172 -2.6624624729156494 79.5078353881836 -6.324954509735107" stroke-width="2.0" fill="none" stroke="rgb(0, 0, 0)" stroke-opacity="1" stroke-linecap="round" stroke-linejoin="round"/>
    <path d="M 188.50668334960938 -3.43884539604187 C 170.63526916503906 -14.434036254882812 188.77113342285156 13.196836471557617 174.28199768066406 10.242189407348633 C 164.32211303710938 13.376697540283203 139.42893981933594 21.721107482910156 184.74085998535156 6.355326175689697" stroke-width="2.0" fill="none" stroke="rgb(0, 0, 0)" stroke-opacity="1" stroke-linecap="round" stroke-linejoin="round"/>
    <path d="M 16.75926399230957 221.07879638671875 C 57.21821975708008 215.90878295898438 58.524452209472656 209.4136505126953 57.91751480102539 210.4227294921875 C 39.457096099853516 205.03890991210938 67.83846282958984 216.9720001220703 113.71380615234375 206.93101501464844" stroke-width="2.0" fill="none" stroke="rgb(0, 0, 0)" stroke-opacity="1" stroke-linecap="round" stroke-linejoin="round"/>
    <path d="M 172.2148895263672 189.24960327148438 C 158.61395263671875 202.70880126953125 165.2734375 172.18788146972656 159.43496704101562 173.25994873046875 C 143.5516357421875 202.362060546875 117.9539566040039 200.92762756347656 137.64187622070312 190.8975830078125" stroke-width="2.0" fill="none" stroke="rgb(0, 0, 0)" stroke-opacity="1" stroke-linecap="round" stroke-linejoin="round"/>
    <path d="M 119.31924438476562 198.45529174804688 C 145.67691040039062 199.03619384765625 115.58329010009766 205.0901336669922 92.39704132080078 203.10043334960938 C 139.1659698486328 194.91790771484375 128.05128479003906 183.26429748535156 132.00949096679688 207.81298828125" stroke-width="2.0" fill="none" stroke="rgb(0, 0, 0)" stroke-opacity="1" stroke-linecap="round" stroke-linejoin="round"/>
    <path d="M 107.90225219726562 4.498414993286133 C 144.13609313964844 3.8827621936798096 132.89842224121094 -11.264274597167969 129.72686767578125 -13.703807830810547" stroke-width="2.0" fill="none" stroke="rgb(0, 0, 0)" stroke-opacity="1" stroke-linecap="round" stroke-linejoin="round"/>
    <path d="M 66.90425872802734 91.46903991699219 C 82.27368927001953 116.51504516601562 49.3233757019043 118.49649047851562 85.15865325927734 124.61709594726562" stroke-width="2.0" fill="none" stroke="rgb(0, 0, 0)" stroke-opacity="1" stroke-linecap="round" stroke-linejoin="round"/>
    <path d="M 192.7070770263672 187.30917358398438 C 153.65628051757812 190.74940490722656 154.22943115234375 198.45925903320312 174.91131591796875 195.25564575195312" stroke-width="2.0" fill="none" stroke="rgb(0, 0, 0)" stroke-opacity="1" stroke-linecap="round" stroke-linejoin="round"/>
    <path d="M 150.87371826171875 49.38941192626953 C 155.68801879882812 38.600364685058594 134.6415252685547 43.11043930053711 102.27084350585938 57.31102752685547 C 147.82838439941406 48.05325698852539 150.2621307373047 75.1761245727539 125.26408386230469 81.77517700195312 C 95.22248077392578 86.9263687133789 122.39319610595703 79.80963134765625 144.4482879638672 69.96561431884766" stroke-width="2.0" fill="none" stroke="rgb(0, 0, 0)" stroke-opacity="1" stroke-linecap="round" stroke-linejoin="round"/>
    <path d="M 140.75636291503906 32.30482864379883 C 185.8166046142578 42.98943328857422 143.43682861328125 71.74059295654297 135.7384796142578 76.30501556396484 C 152.9893798828125 62.600040435791016 120.29486083984375 82.02239990234375 134.18798828125 75.51834106445312" stroke-width="2.0" fill="none" stroke="rgb(0, 0, 0)" stroke-opacity="1" stroke-linecap="round" stroke-linejoin="round"/>
    <path d="M 14.684308052062988 198.1642608642578 C 21.785255432128906 195.85731506347656 14.30280876159668 183.50091552734375 18.120162963867188 170.73269653320312 C 17.226991653442383 172.93228149414062 16.48763656616211 179.68650817871094 5.775381088256836 186.3668975830078 C 31.845102310180664 181.94895935058594 1.331800103187561 173.67092895507812 19.897132873535156 196.3443145751953" stroke-width="2.0" fill="none" stroke="rgb(0, 0, 0)" stroke-opacity="1" stroke-linecap="round" stroke-linejoin="round"/>
    <path d="M 85.67245483398438 113.80132293701172 C 71.6457290649414 114.53421783447266 58.37891387939453 112.00724792480469 80.91181945800781 112.24946594238281 C 53.78071594238281 157.8492431640625 88.68603515625 114.91019439697266 70.58259582519531 118.63941192626953" stroke-width="2.0" fill="none" stroke="rgb(0, 0, 0)" stroke-opacity="1" stroke-linecap="round" stroke-linejoin="round"/>
    <path d="M 61.82130432128906 53.020729064941406 C 81.60208892822266 58.250579833984375 106.25048828125 60.836341857910156 106.70930480957031 74.55220031738281 C 110.8783187866211 71.84772491455078 109.31600189208984 60.2868537902832 87.39998626708984 59.297325134277344 C 117.8719253540039 79.39836120605469 80.59085083007812 80.1581802368164 93.25871276855469 75.8612289428711" stroke-width="2.0" fill="none" stroke="rgb(0, 0, 0)" stroke-opacity="1" stroke-linecap="round" stroke-linejoin="round"/>
    <path d="M 53.1524658203125 185.21029663085938 C 21.294837951660156 178.35427856445312 3.8314831256866455 166.992431640625 23.09916114807129 190.59715270996094" stroke-width="2.0" fill="none" stroke="rgb(0, 0, 0)" stroke-opacity="1" stroke-linecap="round" stroke-linejoin="round"/>
    <path d="M 18.67257308959961 171.99099731445312 C 15.014569282531738 180.5513458251953 33.115116119384766 176.3908233642578 37.45751953125 196.09793090820312" stroke-width="2.0" fill="none" stroke="rgb(0, 0, 0)" stroke-opacity="1" stroke-linecap="round" stroke-linejoin="round"/>
    <path d="M 166.32601928710938 138.1445770263672 C 129.40794372558594 144.5372314453125 168.78140258789062 137.41461181640625 164.13648986816406 154.304443359375" stroke-width="2.0" fill="none" stroke="rgb(0, 0, 0)" stroke-opacity="1" stroke-linecap="round" stroke-linejoin="round"/>
    <path d="M 77.50381469726562 218.50636291503906 C 75.06808471679688 216.25599670410156 27.266254425048828 209.02798461914062 79.81498718261719 210.76885986328125 C 40.3792724609375 209.88494873046875 87.34599304199219 211.17758178710938 78.14387512207031 224.36819458007812" stroke-width="2.0" fill="none" stroke="rgb(0, 0, 0)" stroke-opacity="1" stroke-linecap="round" stroke-linejoin="round"/>
    <path d="M 154.855712890625 121.6898422241211 C 176.251708984375 130.73207092285156 173.49554443359375 165.66273498535156 169.9762420654297 145.8654327392578 C 127.42292785644531 129.6063232421875 136.35011291503906 130.23809814453125 140.61734008789062 130.3760986328125" stroke-width="2.0" fill="none" stroke="rgb(0, 0, 0)" stroke-opacity="1" stroke-linecap="round" stroke-linejoin="round"/>
    <path d="M -10.769732475280762 43.29383850097656 C 46.98360061645508 43.1376838684082 47.89423370361328 33.125526428222656 30.35077476501465 37.80665969848633 C 28.209827423095703 49.04378128051758 36.17247772216797 15.473888397216797 23.06473159790039 5.08413553237915 C 55.750755310058594 21.03591537475586 54.537010192871094 14.413789749145508 25.800106048583984 29.15102767944336" stroke-width="2.0" fill="none" stroke="rgb(0, 0, 0)" stroke-opacity="1" stroke-linecap="round" stroke-linejoin="round"/>
    <path d="M 61.90115737915039 198.74832153320312 C 60.0336799621582 171.31080627441406 55.62171936035156 199.52920532226562 51.98019790649414 204.74856567382812 C 52.521324157714844 200.2560272216797 39.46786117553711 209.62802124023438 43.92047882080078 207.8624725341797" stroke-width="2.0" fill="none" stroke="rgb(0, 0, 0)" stroke-opacity="1" stroke-linecap="round" stroke-linejoin="round"/>
    <path d="M 16.23029899597168 175.05511474609375 C 34.073307037353516 142.91998291015625 -17.57257843017578 152.13307189941406 17.39798927307129 149.00730895996094 C 49.40750503540039 145.16514587402344 53.8957405090332 131.9311065673828 51.536468505859375 143.7933349609375" stroke-width="2.0" fill="none" stroke="rgb(0, 0, 0)" stroke-opacity="1" stroke-linecap="round" stroke-linejoin="round"/>
    <path d="M 66.13488006591797 166.0264892578125 C 94.53233337402344 177.43759155273438 65.36325073242188 182.68841552734375 91.77070617675781 178.27438354492188 C 51.811805725097656 184.8922119140625 55.35490798950195 175.95648193359375 63.385372161865234 175.28900146484375" stroke-width="2.0" fill="none" stroke="rgb(0, 0, 0)" stroke-opacity="1" stroke-linecap="round" stroke-linejoin="round"/>
    <path d="M -3.824190378189087 36.32793426513672 C -8.010761260986328 65.86659240722656 -0.36148473620414734 35.79745101928711 -9.004770278930664 28.476388931274414 C 3.3944480419158936 29.805313110351562 55.385887145996094 30.360021591186523 23.93906593322754 4.607961177825928 C 39.02475357055664 7.89682149887085 61.19579315185547 16.05350112915039 47.83879470825195 27.452966690063477" stroke-width="2.0" fill="none" stroke="rgb(0, 0, 0)" stroke-opacity="1" stroke-linecap="round" stroke-linejoin="round"/>
    <path d="M 192.1639862060547 14.911972045898438 C 208.95809936523438 -3.4849066734313965 187.51405334472656 22.616748809814453 158.0128936767578 17.188528060913086 C 180.36520385742188 9.512555122375488 173.51412963867188 -4.445333003997803 140.8424072265625 -4.238779067993164" stroke-width="2.0" fill="none" stroke="rgb(0, 0, 0)" stroke-opacity="1" stroke-linecap="round" stroke-linejoin="round"/>
    <path d="M 117.91189575195312 231.50115966796875 C 112.89798736572266 227.4376220703125 106.64054870605469 230.27310180664062 139.51504516601562 230.2927703857422" stroke-width="2.0" fill="none" stroke="rgb(0, 0, 0)" stroke-opacity="1" stroke-linecap="round" stroke-linejoin="round"/>
    <path d="M 209.8466339111328 177.61109924316406 C 215.91207885742188 176.8225860595703 212.3259735107422 192.6798553466797 215.7215118408203 178.80149841308594" stroke-width="2.0" fill="none" stroke="rgb(0, 0, 0)" stroke-opacity="1" stroke-linecap="round" stroke-linejoin="round"/>
    <path d="M 18.358304977416992 171.3988800048828 C 67.34305572509766 175.68136596679688 55.939598083496094 178.37184143066406 54.76621627807617 177.4936981201172 C 79.24903869628906 158.8465576171875 90.8232650756836 160.52235412597656 87.38572692871094 192.30337524414062" stroke-width="2.0" fill="none" stroke="rgb(0, 0, 0)" stroke-opacity="1" stroke-linecap="round" stroke-linejoin="round"/>
    <path d="M 123.9632568359375 194.5377960205078 C 136.79205322265625 188.2744140625 155.14382934570312 186.62744140625 158.03053283691406 161.92996215820312 C 157.01513671875 181.63546752929688 148.3386993408203 186.6472625732422 125.13912200927734 196.9402313232422" stroke-width="2.0" fill="none" stroke="rgb(0, 0, 0)" stroke-opacity="1" stroke-linecap="round" stroke-linejoin="round"/>
    <path d="M 51.44123458862305 152.23155212402344 C 90.14793395996094 125.06282806396484 74.14480590820312 112.93057250976562 78.42953491210938 123.22269439697266" stroke-width="2.0" fill="none" stroke="rgb(0, 0, 0)" stroke-opacity="1" stroke-linecap="round" stroke-linejoin="round"/>
    <path d="M 50.79563903808594 195.94789123535156 C 41.590911865234375 175.58966064453125 43.030399322509766 179.16062927246094 57.346275329589844 187.4102020263672 C 37.91792297363281 183.86050415039062 31.675216674804688 191.4488525390625 40.803890228271484 198.6446990966797 C 59.83075714111328 187.99913024902344 40.784698486328125 186.0092010498047 34.14588928222656 185.34060668945312" stroke-width="2.0" fill="none" stroke="rgb(0, 0, 0)" stroke-opacity="1" stroke-linecap="round" stroke-linejoin="round"/>
    <path d="M 69.11153411865234 97.66678619384766 C 70.21182250976562 96.21651458740234 58.565799713134766 109.23915100097656 92.15397644042969 106.51341247558594 C 62.73180389404297 87.44402313232422 67.07695770263672 103.03153991699219 78.99996185302734 120.41455078125" stroke-width="2.0" fill="none" stroke="rgb(0, 0, 0)" stroke-opacity="1" stroke-linecap="round" stroke-linejoin="round"/>
    <path d="M 134.28485107421875 87.57301330566406 C 157.7590789794922 66.97063446044922 154.22457885742188 91.3206787109375 136.6690216064453 89.01214599609375 C 154.4846954345703 83.60943603515625 161.18634033203125 68.42859649658203 134.47129821777344 89.84796905517578" stroke-width="2.0" fill="none" stroke="rgb(0, 0, 0)" stroke-opacity="1" stroke-linecap="round" stroke-linejoin="round"/>
    <path d="M 90.42533111572266 148.8439483642578 C 137.5331268310547 159.7886962890625 153.57574462890625 115.03516387939453 129.39317321777344 139.2266845703125" stroke-width="2.0" fill="none" stroke="rgb(0, 0, 0)" stroke-opacity="1" stroke-linecap="round" stroke-linejoin="round"/>
    <path d="M 225.81968688964844 33.40298843383789 C 218.4183349609375 13.243159294128418 221.1507568359375 30.996252059936523 226.04669189453125 37.50979995727539 C 224.3837127685547 57.62763595581055 214.5442352294922 59.152950286865234 212.08572387695312 68.2352523803711" stroke-width="2.0" fill="none" stroke="rgb(0, 0, 0)" stroke-opacity="1" stroke-linecap="round" stroke-linejoin="round"/>
    <path d="M 172.0992889404297 196.140625 C 170.10948181152344 189.3585662841797 176.1820068359375 219.50418090820312 148.54226684570312 219.10069274902344 C 185.5287628173828 198.48959350585938 207.59454345703125 223.876220703125 154.96502685546875 219.23971557617188" stroke-width="2.0" fill="none" stroke="rgb(0, 0, 0)" stroke-opacity="1" stroke-linecap="round" stroke-linejoin="round"/>
    <path d="M 79.8365707397461 152.6221466064453 C 39.001197814941406 172.72064208984375 68.62430572509766 156.2100372314453 51.96359634399414 148.0446319580078 C 68.25907897949219 141.95529174804688 77.2682876586914 155.23452758789062 44.85802459716797 165.62379455566406 C 21.623525619506836 176.49295043945312 24.749847412109375 170.94577026367188 73.9215316772461 175.00491333007812" stroke-width="2.0" fill="none" stroke="rgb(0, 0, 0)" stroke-opacity="1" stroke-linecap="round" stroke-linejoin="round"/>
    <path d="M 18.77878761291504 112.71968078613281 C 11.02251148223877 96.73106384277344 35.68239212036133 68.40699768066406 -4.118677139282227 57.825618743896484" stroke-width="2.0" fill="none" stroke="rgb(0, 0, 0)" stroke-opacity="1" stroke-linecap="round" stroke-linejoin="round"/>
    <path d="M 202.0635223388672 141.531982421875 C 205.71673583984375 152.9117431640625 150.32992553710938 153.4488067626953 159.9344024658203 152.9154815673828" stroke-width="2.0" fill="none" stroke="rgb(0, 0, 0)" stroke-opacity="1" stroke-linecap="round" stroke-linejoin="round"/>
    <path d="M 56.55086898803711 80.66566467285156 C 53.68906784057617 83.28509521484375 70.13377380371094 73.81010437011719 41.224525451660156 89.36892700195312" stroke-width="2.0" fill="none" stroke="rgb(0, 0, 0)" stroke-opacity="1" stroke-linecap="round" stroke-linejoin="round"/>
    <path d="M 23.255754470825195 10.258474349975586 C 26.957351684570312 27.65485191345215 -46.69746017456055 17.049991607666016 -65.06996154785156 14.578763961791992" stroke-width="2.0" fill="none" stroke="rgb(0, 0, 0)" stroke-opacity="1" stroke-linecap="round" stroke-linejoin="round"/>
    <path d="M 87.23336029052734 -6.793116092681885 C 62.79829788208008 -1.2933015823364258 65.71823120117188 -12.210294723510742 73.21465301513672 -8.046269416809082 C 90.99974060058594 -22.59894561767578 83.77912902832031 -14.284481048583984 73.42704010009766 -20.321041107177734 C 64.45443725585938 -29.178646087646484 56.920867919921875 -38.80250549316406 47.45344543457031 -44.76365280151367" stroke-width="2.0" fill="none" stroke="rgb(0, 0, 0)" stroke-opacity="1" stroke-linecap="round" stroke-linejoin="round"/>
    <path d="M 51.68434524536133 173.7460479736328 C 70.3722152709961 160.3653106689453 66.24900817871094 163.22360229492188 40.44970703125 170.00990295410156 C 70.38131713867188 165.99803161621094 71.1231918334961 156.810302734375 78.39643859863281 146.45791625976562" stroke-width="2.0" fill="none" stroke="rgb(0, 0, 0)" stroke-opacity="1" stroke-linecap="round" stroke-linejoin="round"/>
    <path d="M 214.00157165527344 86.07002258300781 C 217.12806701660156 77.21721649169922 197.93092346191406 68.54041290283203 198.6828155517578 70.12381744384766" stroke-width="2.0" fill="none" stroke="rgb(0, 0, 0)" stroke-opacity="1" stroke-linecap="round" stroke-linejoin="round"/>
    <path d="M 129.44332885742188 -2.8085830211639404 C 143.48512268066406 13.215497970581055 132.95144653320312 0.021405231207609177 126.9020004272461 -8.111242294311523" stroke-width="2.0" fill="none" stroke="rgb(0, 0, 0)" stroke-opacity="1" stroke-linecap="round" stroke-linejoin="round"/>
    <path d="M 121.58712768554688 146.89224243164062 C 101.89266967773438 154.33880615234375 139.94671630859375 150.20028686523438 132.92527770996094 134.02313232421875 C 140.59957885742188 144.1716766357422 152.74472045898438 114.550537109375 137.82493591308594 97.47383880615234" stroke-width="2.0" fill="none" stroke="rgb(0, 0, 0)" stroke-opacity="1" stroke-linecap="round" stroke-linejoin="round"/>
    <path d="M 202.78102111816406 157.02474975585938 C 151.53453063964844 172.7102508544922 174.68496704101562 173.2236785888672 213.6056671142578 148.7761688232422 C 135.14666748046875 173.01234436035156 168.14817810058594 144.79791259765625 154.36817932128906 181.29666137695312" stroke-width="2.0" fill="none" stroke="rgb(0, 0, 0)" stroke-opacity="1" stroke-linecap="round" stroke-linejoin="round"/>
    <path d="M 110.63520812988281 -4.05521821975708 C 75.32254791259766 -4.6199870109558105 84.02180480957031 -5.896791934967041 79.12208557128906 -8.089319229125977" stroke-width="2.0" fill="none" stroke="rgb(0, 0, 0)" stroke-opacity="1" stroke-linecap="round" stroke-linejoin="round"/>
    <path d="M 88.8909683227539 38.88248825073242 C 97.2258071899414 36.960086822509766 106.72657012939453 36.116912841796875 82.8487548828125 33.773746490478516" stroke-width="2.0" fill="none" stroke="rgb(0, 0, 0)" stroke-opacity="1" stroke-linecap="round" stroke-linejoin="round"/>
    <path d="M 41.94765853881836 153.43576049804688 C 65.32609558105469 142.54071044921875 76.99669647216797 125.48377227783203 47.691810607910156 153.16970825195312 C 60.226348876953125 146.22332763671875 81.43795013427734 129.16038513183594 70.04483032226562 103.37199401855469" stroke-width="2.0" fill="none" stroke="rgb(0, 0, 0)" stroke-opacity="1" stroke-linecap="round" stroke-linejoin="round"/>
    <path d="M 171.3206787109375 68.30078887939453 C 105.16221618652344 82.49620819091797 192.76634216308594 74.77760314941406 182.5234375 81.45061492919922" stroke-width="2.0" fill="none" stroke="rgb(0, 0, 0)" stroke-opacity="1" stroke-linecap="round" stroke-linejoin="round"/>
    <path d="M 218.8627166748047 60.855648040771484 C 221.73513793945312 71.24820709228516 219.62644958496094 47.78255081176758 218.1525115966797 66.42194366455078 C 212.5450897216797 53.130645751953125 226.67095947265625 59.531253814697266 218.67022705078125 75.34809112548828" stroke-width="2.0" fill="none" stroke="rgb(0, 0, 0)" stroke-opacity="1" stroke-linecap="round" stroke-linejoin="round"/>
    <path d="M 175.18002319335938 166.9584503173828 C 139.07861328125 158.12347412109375 158.46600341796875 201.1834259033203 186.80685424804688 188.61175537109375 C 202.45237731933594 185.23666381835938 205.8094482421875 151.58103942871094 172.1277618408203 170.1643524169922 C 166.57737731933594 174.34219360351562 212.3415985107422 162.20492553710938 197.61900329589844 160.18698120117188" stroke-width="2.0" fill="none" stroke="rgb(0, 0, 0)" stroke-opacity="1" stroke-linecap="round" stroke-linejoin="round"/>
    <path d="M 75.63238525390625 109.1594467163086 C 114.32886505126953 116.80494689941406 91.58422088623047 96.15380859375 73.5429916381836 94.63004302978516" stroke-width="2.0" fill="none" stroke="rgb(0, 0, 0)" stroke-opacity="1" stroke-linecap="round" stroke-linejoin="round"/>
    <path d="M 126.8255844116211 195.8206329345703 C 149.09786987304688 191.8746337890625 140.69125366210938 180.9247589111328 152.983642578125 195.44656372070312 C 154.10044860839844 188.86654663085938 128.70309448242188 181.9776611328125 141.77000427246094 199.6908721923828" stroke-width="2.0" fill="none" stroke="rgb(0, 0, 0)" stroke-opacity="1" stroke-linecap="round" stroke-linejoin="round"/>
    <path d="M 79.44478607177734 233.3270721435547 C 86.1748046875 234.91342163085938 110.72437286376953 225.51583862304688 143.66323852539062 207.2908477783203 C 122.73222351074219 218.0761260986328 84.80445098876953 222.5526885986328 58.975502014160156 219.60789489746094" stroke-width="2.0" fill="none" stroke="rgb(0, 0, 0)" stroke-opacity="1" stroke-linecap="round" stroke-linejoin="round"/>
    <path d="M 183.1953125 27.809589385986328 C 171.80723571777344 40.49095153808594 180.49342346191406 20.301494598388672 183.1956329345703 33.794010162353516 C 205.7205047607422 22.097152709960938 175.85800170898438 41.862205505371094 185.9788055419922 26.173114776611328 C 144.8677520751953 33.14255142211914 140.14273071289062 38.48858642578125 166.3184051513672 33.86272048950195" stroke-width="2.0" fill="none" stroke="rgb(0, 0, 0)" stroke-opacity="1" stroke-linecap="round" stroke-linejoin="round"/>
    <path d="M 167.1639862060547 111.93397521972656 C 213.11032104492188 107.94931030273438 222.29144287109375 79.1405029296875 231.60391235351562 86.95191955566406 C 217.76353454589844 107.1395034790039 220.2295379638672 111.44915771484375 231.32833862304688 80.87505340576172" stroke-width="2.0" fill="none" stroke="rgb(0, 0, 0)" stroke-opacity="1" stroke-linecap="round" stroke-linejoin="round"/>
    <path d="M 160.6347198486328 92.38089752197266 C 173.6289825439453 91.1082534790039 147.09425354003906 80.37211608886719 122.93092346191406 90.57425689697266 C 138.68399047851562 97.95420837402344 169.34555053710938 82.8043441772461 164.64854431152344 95.78749084472656 C 137.39334106445312 95.89530944824219 114.46332550048828 91.0801773071289 145.24581909179688 89.98506927490234" stroke-width="2.0" fill="none" stroke="rgb(0, 0, 0)" stroke-opacity="1" stroke-linecap="round" stroke-linejoin="round"/>
    <path d="M 49.87117385864258 83.01475524902344 C 68.4664306640625 78.54761505126953 75.02888488769531 100.4848861694336 68.2003402709961 115.53932189941406 C 65.39070129394531 120.29618835449219 120.16619873046875 118.24136352539062 92.39434814453125 98.92142486572266 C 58.67575454711914 113.09445190429688 72.07756805419922 79.48148345947266 59.994232177734375 87.4150619506836" stroke-width="2.0" fill="none" stroke="rgb(0, 0, 0)" stroke-opacity="1" stroke-linecap="round" stroke-linejoin="round"/>
    <path d="M 221.82586669921875 183.7210693359375 C 214.69325256347656 198.46189880371094 158.42266845703125 204.5110321044922 175.75552368164062 189.76670837402344 C 189.18365478515625 179.0577850341797 178.59681701660156 199.39996337890625 167.73709106445312 189.5467071533203 C 191.65719604492188 199.52049255371094 234.1309356689453 161.31651306152344 221.6031951904297 166.9923858642578" stroke-width="2.0" fill="none" stroke="rgb(0, 0, 0)" stroke-opacity="1" stroke-linecap="round" stroke-linejoin="round"/>
    <path d="M 132.96188354492188 106.89234924316406 C 76.31319427490234 72.05024719238281 161.91424560546875 95.88484954833984 135.23985290527344 120.70654296875" stroke-width="2.0" fill="none" stroke="rgb(0, 0, 0)" stroke-opacity="1" stroke-linecap="round" stroke-linejoin="round"/>
    <path d="M 40.40605545043945 188.74217224121094 C 71.69465637207031 183.79867553710938 62.570289611816406 205.87124633789062 41.05374526977539 214.9417266845703" stroke-width="2.0" fill="none" stroke="rgb(0, 0, 0)" stroke-opacity="1" stroke-linecap="round" stroke-linejoin="round"/>
    <path d="M 205.20892333984375 61.49085235595703 C 209.66152954101562 34.571990966796875 180.8101348876953 64.62528991699219 217.5320587158203 21.67400550842285 C 191.51417541503906 52.329952239990234 188.15440368652344 37.577884674072266 189.04432678222656 53.549903869628906 C 207.97850036621094 38.683311462402344 204.417236328125 46.60313415527344 198.4657440185547 46.86766815185547" stroke-width="2.0" fill="none" stroke="rgb(0, 0, 0)" stroke-opacity="1" stroke-linecap="round" stroke-linejoin="round"/>
    <path d="M 144.4494171142578 107.94298553466797 C 135.36314392089844 85.213134765625 94.10152435302734 90.42269897460938 119.48823547363281 87.11050415039062 C 159.47486877441406 73.71688079833984 140.8082275390625 98.14661407470703 108.57423400878906 88.3377456665039" stroke-width="2.0" fill="none" stroke="rgb(0, 0, 0)" stroke-opacity="1" stroke-linecap="round" stroke-linejoin="round"/>
    <path d="M 47.266204833984375 229.81301879882812 C 47.4931755065918 232.85491943359375 51.200706481933594 242.59580993652344 56.48530960083008 251.9693603515625 C 60.06747817993164 247.31785583496094 53.70726013183594 231.15602111816406 50.7932014465332 228.5107879638672" stroke-width="2.0" fill="none" stroke="rgb(0, 0, 0)" stroke-opacity="1" stroke-linecap="round" stroke-linejoin="round"/>
    <path d="M 207.03392028808594 146.47557067871094 C 174.62753295898438 163.45285034179688 182.20419311523438 156.119873046875 186.85446166992188 144.98712158203125 C 212.99801635742188 137.54736328125 235.87498474121094 120.40349578857422 201.9490509033203 102.28831481933594" stroke-width="2.0" fill="none" stroke="rgb(0, 0, 0)" stroke-opacity="1" stroke-linecap="round" stroke-linejoin="round"/>
    <path d="M 120.73748016357422 25.14120101928711 C 169.92601013183594 25.730804443359375 212.23770141601562 15.027767181396484 201.02230834960938 1.6670528650283813 C 220.67367553710938 9.702576637268066 181.07269287109375 26.429357528686523 159.95884704589844 33.76707077026367 C 213.40045166015625 7.518306255340576 208.79673767089844 34.1532096862793 158.34974670410156 38.667667388916016" stroke-width="2.0" fill="none" stroke="rgb(0, 0, 0)" stroke-opacity="1" stroke-linecap="round" stroke-linejoin="round"/>
    <path d="M 161.75782775878906 126.79497528076172 C 206.47947692871094 135.6072998046875 189.5303497314453 124.82962036132812 143.66722106933594 120.68392181396484" stroke-width="2.0" fill="none" stroke="rgb(0, 0, 0)" stroke-opacity="1" stroke-linecap="round" stroke-linejoin="round"/>
    <path d="M 55.11188888549805 74.06652069091797 C 72.12737274169922 64.16288757324219 54.53617477416992 54.187469482421875 42.68260192871094 51.03663635253906 C 49.37272644042969 46.40444564819336 66.64471435546875 42.142276763916016 30.843358993530273 48.22303009033203" stroke-width="2.0" fill="none" stroke="rgb(0, 0, 0)" stroke-opacity="1" stroke-linecap="round" stroke-linejoin="round"/>
    <path d="M 199.95565795898438 26.121112823486328 C 182.0932159423828 36.247920989990234 194.28794860839844 25.87285804748535 187.1177215576172 22.555540084838867" stroke-width="2.0" fill="none" stroke="rgb(0, 0, 0)" stroke-opacity="1" stroke-linecap="round" stroke-linejoin="round"/>
    <path d="M 207.7960205078125 33.23298645019531 C 181.04788208007812 51.56373977661133 182.72579956054688 45.02669143676758 195.43954467773438 45.695255279541016" stroke-width="2.0" fill="none" stroke="rgb(0, 0, 0)" stroke-opacity="1" stroke-linecap="round" stroke-linejoin="round"/>
    <path d="M 219.94972229003906 132.5743865966797 C 238.00845336914062 102.73269653320312 201.62667846679688 87.33829498291016 226.3921661376953 105.05811309814453 C 256.60626220703125 86.84095764160156 263.0004577636719 76.38835906982422 260.23297119140625 85.28565216064453" stroke-width="2.0" fill="none" stroke="rgb(0, 0, 0)" stroke-opacity="1" stroke-linecap="round" stroke-linejoin="round"/>
    <path d="M 52.97883987426758 19.818004608154297 C 56.038116455078125 -0.2472372204065323 -3.09214448928833 5.720434665679932 -27.141204833984375 0.3456970453262329" stroke-width="2.0" fill="none" stroke="rgb(0, 0, 0)" stroke-opacity="1" stroke-linecap="round" stroke-linejoin="round"/>
    <path d="M 71.44625091552734 164.95249938964844 C 78.62884521484375 156.28257751464844 82.67988586425781 136.15049743652344 74.35700988769531 158.5410919189453" stroke-width="2.0" fill="none" stroke="rgb(0, 0, 0)" stroke-opacity="1" stroke-linecap="round" stroke-linejoin="round"/>
    <path d="M 38.12590408325195 207.6870574951172 C 81.30451202392578 217.30882263183594 24.836477279663086 222.82357788085938 41.644901275634766 226.88931274414062" stroke-width="2.0" fill="none" stroke="rgb(0, 0, 0)" stroke-opacity="1" stroke-linecap="round" stroke-linejoin="round"/>
    <path d="M 215.4491424560547 173.5605010986328 C 192.96612548828125 192.54937744140625 196.469970703125 181.5009307861328 214.5484161376953 176.85922241210938 C 204.49951171875 177.99659729003906 194.61473083496094 190.17799377441406 175.11373901367188 192.2692413330078 C 219.57894897460938 181.40550231933594 169.93112182617188 184.30117797851562 179.162353515625 189.4345245361328" stroke-width="2.0" fill="none" stroke="rgb(0, 0, 0)" stroke-opacity="1" stroke-linecap="round" stroke-linejoin="round"/>
    <path d="M 113.97220611572266 7.472886562347412 C 128.60711669921875 5.790632724761963 149.90277099609375 0.29578930139541626 125.92330169677734 10.328852653503418" stroke-width="2.0" fill="none" stroke="rgb(0, 0, 0)" stroke-opacity="1" stroke-linecap="round" stroke-linejoin="round"/>
    <path d="M 167.24513244628906 135.66651916503906 C 144.4567108154297 149.57925415039062 164.26092529296875 133.3717498779297 172.123046875 145.5393829345703 C 172.5082550048828 108.27682495117188 151.2852020263672 128.94447326660156 179.4398193359375 137.27462768554688 C 175.12525939941406 126.40081024169922 136.91387939453125 128.29647827148438 195.44735717773438 121.42781066894531" stroke-width="2.0" fill="none" stroke="rgb(0, 0, 0)" stroke-opacity="1" stroke-linecap="round" stroke-linejoin="round"/>
    <path d="M 61.32767868041992 23.167926788330078 C 100.76807403564453 16.931394577026367 84.31221008300781 9.225592613220215 33.631187438964844 2.14210844039917" stroke-width="2.0" fill="none" stroke="rgb(0, 0, 0)" stroke-opacity="1" stroke-linecap="round" stroke-linejoin="round"/>
    <path d="M 219.7340850830078 185.2555389404297 C 239.81802368164062 211.37843322753906 196.69322204589844 233.05010986328125 230.2971954345703 220.44459533691406 C 218.8294219970703 176.05909729003906 230.19923400878906 178.07254028320312 218.1855010986328 188.39910888671875 C 223.08853149414062 197.15689086914062 217.5691375732422 185.91949462890625 216.0483856201172 189.9677734375" stroke-width="2.0" fill="none" stroke="rgb(0, 0, 0)" stroke-opacity="1" stroke-linecap="round" stroke-linejoin="round"/>
    <path d="M 73.00375366210938 34.20716094970703 C 32.34964370727539 36.44169235229492 72.34074401855469 28.523792266845703 89.1734619140625 17.240638732910156" stroke-width="2.0" fill="none" stroke="rgb(0, 0, 0)" stroke-opacity="1" stroke-linecap="round" stroke-linejoin="round"/>
    <path d="M 148.60841369628906 176.40390014648438 C 153.0988311767578 165.22909545898438 131.54209899902344 148.77760314941406 103.65544128417969 147.5309295654297 C 139.64207458496094 158.43580627441406 149.11183166503906 168.12579345703125 145.76942443847656 179.79489135742188" stroke-width="2.0" fill="none" stroke="rgb(0, 0, 0)" stroke-opacity="1" stroke-linecap="round" stroke-linejoin="round"/>
    <path d="M 153.5590362548828 113.03609466552734 C 182.4496307373047 110.22362518310547 213.99481201171875 112.49160766601562 204.73980712890625 144.2704315185547 C 223.89837646484375 119.8445053100586 217.1759796142578 129.88812255859375 191.92530822753906 147.86228942871094" stroke-width="2.0" fill="none" stroke="rgb(0, 0, 0)" stroke-opacity="1" stroke-linecap="round" stroke-linejoin="round"/>
    <path d="M 155.21438598632812 67.265625 C 117.71382141113281 91.00503540039062 154.9937744140625 90.93077850341797 158.646484375 64.30184173583984" stroke-width="2.0" fill="none" stroke="rgb(0, 0, 0)" stroke-opacity="1" stroke-linecap="round" stroke-linejoin="round"/>
    <path d="M 48.23392105102539 81.671142578125 C 16.07681655883789 95.33423614501953 2.613132953643799 101.57938385009766 43.0181884765625 88.1984634399414 C 23.989120483398438 102.04032897949219 -2.2653634548187256 97.5776596069336 33.1818962097168 89.0549545288086 C 46.05744934082031 73.35659790039062 58.85866165161133 78.3842544555664 45.89020538330078 108.63379669189453" stroke-width="2.0" fill="none" stroke="rgb(0, 0, 0)" stroke-opacity="1" stroke-linecap="round" stroke-linejoin="round"/>
    <path d="M 51.06566619873047 74.7390365600586 C 65.84571075439453 98.67405700683594 61.35901641845703 82.73086547851562 28.448593139648438 107.93339538574219 C 38.99671173095703 106.17183685302734 69.16181945800781 92.16315460205078 62.278141021728516 84.5578842163086 C 75.3379135131836 97.41302490234375 72.44770050048828 123.11043548583984 68.43849182128906 93.4629135131836" stroke-width="2.0" fill="none" stroke="rgb(0, 0, 0)" stroke-opacity="1" stroke-linecap="round" stroke-linejoin="round"/>
    <path d="M 160.00189208984375 127.34932708740234 C 139.65377807617188 124.23917388916016 136.62200927734375 119.68401336669922 149.11709594726562 126.12458038330078" stroke-width="2.0" fill="none" stroke="rgb(0, 0, 0)" stroke-opacity="1" stroke-linecap="round" stroke-linejoin="round"/>
    <path d="M 139.624267578125 231.74485778808594 C 100.9405746459961 233.41329956054688 88.29196166992188 224.6941375732422 119.8331527709961 228.3910369873047 C 157.06427001953125 228.62548828125 176.36436462402344 200.77963256835938 151.7484130859375 218.2548065185547 C 100.31305694580078 235.89517211914062 149.18646240234375 212.43519592285156 110.86793518066406 219.98199462890625" stroke-width="2.0" fill="none" stroke="rgb(0, 0, 0)" stroke-opacity="1" stroke-linecap="round" stroke-linejoin="round"/>
    <path d="M 164.45166015625 31.83112144470215 C 117.8918228149414 37.31851577758789 125.42517852783203 32.99034881591797 129.7417449951172 33.11062240600586" stroke-width="2.0" fill="none" stroke="rgb(0, 0, 0)" stroke-opacity="1" stroke-linecap="round" stroke-linejoin="round"/>
    <path d="M 195.61190795898438 0.44030123949050903 C 227.82093811035156 -0.6620703339576721 222.5536346435547 12.332727432250977 210.83901977539062 36.39818572998047" stroke-width="2.0" fill="none" stroke="rgb(0, 0, 0)" stroke-opacity="1" stroke-linecap="round" stroke-linejoin="round"/>
    <path d="M 22.866304397583008 92.80528259277344 C 69.86825561523438 84.97685241699219 86.78166198730469 43.75642776489258 62.66876220703125 72.93749237060547 C 43.804908752441406 87.91792297363281 67.68954467773438 77.42459869384766 63.6054573059082 72.30392456054688 C 76.22445678710938 79.69625854492188 69.81525421142578 101.87345123291016 72.97891998291016 112.4443588256836" stroke-width="2.0" fill="none" stroke="rgb(0, 0, 0)" stroke-opacity="1" stroke-linecap="round" stroke-linejoin="round"/>
  </g>
</svg>
