<?xml version="1.0" ?>
<svg xmlns="http://www.w3.org/2000/svg" version="1.1" width="224" height="224">
  <defs/>
  <g>
    <path d="M 15.985021591186523 90.9498519897461 C 10.233299255371094 88.70425415039062 12.587790489196777 52.546268463134766 28.538373947143555 66.47967529296875 C 44.89412307739258 48.90614700317383 31.514530181884766 58.22929000854492 30.663501739501953 53.835052490234375 C 39.30378723144531 60.90235900878906 12.898738861083984 46.33100891113281 2.704535722732544 48.69184875488281" stroke-width="2.0" fill="none" stroke="rgb(0, 0, 0)" stroke-opacity="1" stroke-linecap="round" stroke-linejoin="round"/>
    <path d="M 16.914236068725586 118.33782196044922 C 30.88471031188965 135.42335510253906 30.19060707092285 114.73513793945312 32.506229400634766 124.89872741699219" stroke-width="2.0" fill="none" stroke="rgb(0, 0, 0)" stroke-opacity="1" stroke-linecap="round" stroke-linejoin="round"/>
    <path d="M 139.7998046875 146.30010986328125 C 118.53343963623047 132.28257751464844 130.18992614746094 147.30064392089844 138.72535705566406 137.52874755859375" stroke-width="2.0" fill="none" stroke="rgb(0, 0, 0)" stroke-opacity="1" stroke-linecap="round" stroke-linejoin="round"/>
    <path d="M 34.23200988769531 57.75590896606445 C 15.714972496032715 47.083091735839844 -6.96178674697876 47.63347244262695 10.170940399169922 48.087711334228516 C -35.6800651550293 44.34165954589844 -32.99189758300781 52.90239715576172 -30.80656623840332 62.53105545043945" stroke-width="2.0" fill="none" stroke="rgb(0, 0, 0)" stroke-opacity="1" stroke-linecap="round" stroke-linejoin="round"/>
    <path d="M 130.2277069091797 188.50460815429688 C 142.11972045898438 203.7296600341797 144.19256591796875 173.54296875 134.64431762695312 172.52117919921875 C 142.9486846923828 192.79965209960938 146.4700927734375 174.38624572753906 132.7993621826172 169.94915771484375" stroke-width="2.0" fill="none" stroke="rgb(0, 0, 0)" stroke-opacity="1" stroke-linecap="round" stroke-linejoin="round"/>
    <path d="M -9.072830200195312 13.466026306152344 C 1.5839924812316895 20.227460861206055 8.40933609008789 35.80603790283203 5.165592193603516 27.997310638427734 C 11.541376113891602 27.819969177246094 -7.020608425140381 38.619407653808594 -16.397541046142578 39.539920806884766" stroke-width="2.0" fill="none" stroke="rgb(0, 0, 0)" stroke-opacity="1" stroke-linecap="round" stroke-linejoin="round"/>
    <path d="M 227.20733642578125 19.26361083984375 C 214.1576385498047 54.976318359375 220.0928497314453 21.795705795288086 238.46383666992188 49.59199905395508 C 223.9911346435547 44.81929016113281 196.11788940429688 26.66643714904785 188.2177276611328 54.916526794433594" stroke-width="2.0" fill="none" stroke="rgb(0, 0, 0)" stroke-opacity="1" stroke-linecap="round" stroke-linejoin="round"/>
    <path d="M 139.76583862304688 99.84635925292969 C 161.27926635742188 83.47930908203125 159.3732452392578 85.44677734375 156.82522583007812 54.07206726074219" stroke-width="2.0" fill="none" stroke="rgb(0, 0, 0)" stroke-opacity="1" stroke-linecap="round" stroke-linejoin="round"/>
    <path d="M 9.020820617675781 97.24114990234375 C -6.49856424331665 108.71013641357422 -6.106109619140625 115.02848815917969 -6.335435390472412 104.34847259521484 C -19.301895141601562 104.55464172363281 -2.7594358921051025 130.4927215576172 2.902289390563965 133.49716186523438 C 17.724945068359375 123.86283111572266 11.622231483459473 141.58375549316406 10.48055362701416 123.41168975830078" stroke-width="2.0" fill="none" stroke="rgb(0, 0, 0)" stroke-opacity="1" stroke-linecap="round" stroke-linejoin="round"/>
    <path d="M 134.44688415527344 186.7492218017578 C 140.78709411621094 201.8058624267578 154.51907348632812 198.2284393310547 124.7830810546875 191.16761779785156 C 92.19844055175781 212.094482421875 92.02335357666016 218.51754760742188 98.52449035644531 209.8342742919922" stroke-width="2.0" fill="none" stroke="rgb(0, 0, 0)" stroke-opacity="1" stroke-linecap="round" stroke-linejoin="round"/>
    <path d="M 145.2983856201172 24.19451332092285 C 148.48728942871094 39.14100646972656 133.43017578125 12.829618453979492 149.32669067382812 9.837652206420898 C 169.7758331298828 9.482172966003418 167.03167724609375 14.761813163757324 167.1162109375 27.89177894592285" stroke-width="2.0" fill="none" stroke="rgb(0, 0, 0)" stroke-opacity="1" stroke-linecap="round" stroke-linejoin="round"/>
    <path d="M 139.52951049804688 91.55567932128906 C 157.45411682128906 122.93162536621094 140.0980987548828 123.98937225341797 151.18922424316406 115.10594940185547" stroke-width="2.0" fill="none" stroke="rgb(0, 0, 0)" stroke-opacity="1" stroke-linecap="round" stroke-linejoin="round"/>
    <path d="M 50.54328536987305 151.19686889648438 C 59.90330505371094 156.0701141357422 52.58207321166992 168.70260620117188 65.3577651977539 137.66061401367188 C 59.36233139038086 144.17965698242188 55.94614791870117 156.62060546875 50.44331359863281 142.4381561279297 C 68.61029815673828 135.5589599609375 51.05558776855469 174.40341186523438 57.79753112792969 139.94363403320312" stroke-width="2.0" fill="none" stroke="rgb(0, 0, 0)" stroke-opacity="1" stroke-linecap="round" stroke-linejoin="round"/>
    <path d="M 162.9827117919922 140.18417358398438 C 159.3725128173828 149.33042907714844 163.01930236816406 131.04457092285156 179.2943115234375 155.27288818359375 C 210.00637817382812 145.16065979003906 192.2656707763672 156.29083251953125 181.19493103027344 143.97604370117188" stroke-width="2.0" fill="none" stroke="rgb(0, 0, 0)" stroke-opacity="1" stroke-linecap="round" stroke-linejoin="round"/>
    <path d="M -3.33113431930542 145.97987365722656 C -0.09001126885414124 158.72726440429688 -21.662805557250977 153.21795654296875 -17.797264099121094 161.84349060058594 C 6.0962324142456055 153.77284240722656 4.209718227386475 147.9083709716797 18.801576614379883 157.0474853515625" stroke-width="2.0" fill="none" stroke="rgb(0, 0, 0)" stroke-opacity="1" stroke-linecap="round" stroke-linejoin="round"/>
    <path d="M 74.55657196044922 121.62423706054688 C 78.33866119384766 95.81468200683594 66.27263641357422 101.65528869628906 66.57596588134766 107.68158721923828 C 75.55204772949219 90.37133026123047 72.58380889892578 130.85723876953125 75.26032257080078 129.19094848632812" stroke-width="2.0" fill="none" stroke="rgb(0, 0, 0)" stroke-opacity="1" stroke-linecap="round" stroke-linejoin="round"/>
    <path d="M 169.2987060546875 113.13777160644531 C 144.59393310546875 92.9108657836914 158.28231811523438 140.6193084716797 169.57093811035156 111.49866485595703" stroke-width="2.0" fill="none" stroke="rgb(0, 0, 0)" stroke-opacity="1" stroke-linecap="round" stroke-linejoin="round"/>
    <path d="M 83.89418029785156 146.5989990234375 C 93.84420013427734 150.10958862304688 61.34944152832031 161.9932403564453 73.92445373535156 156.4161376953125 C 85.40985107421875 161.10745239257812 67.03392028808594 144.40736389160156 93.21509552001953 157.0213623046875 C 82.56611633300781 153.68026733398438 97.84654998779297 169.69252014160156 91.77350616455078 144.89358520507812" stroke-width="2.0" fill="none" stroke="rgb(0, 0, 0)" stroke-opacity="1" stroke-linecap="round" stroke-linejoin="round"/>
    <path d="M 172.65745544433594 87.96822357177734 C 190.1348876953125 99.65032196044922 168.41644287109375 94.44144439697266 150.60092163085938 84.82342529296875 C 181.58169555664062 92.44060516357422 186.75257873535156 89.98770904541016 125.8580322265625 91.37444305419922 C 175.102294921875 74.21247100830078 189.7987060546875 94.67213439941406 131.5395050048828 87.1976547241211" stroke-width="2.0" fill="none" stroke="rgb(0, 0, 0)" stroke-opacity="1" stroke-linecap="round" stroke-linejoin="round"/>
    <path d="M 136.29550170898438 181.40625 C 138.6654815673828 164.43704223632812 125.34214782714844 174.76220703125 118.26026153564453 175.19207763671875 C 128.63833618164062 167.14605712890625 157.67727661132812 182.98228454589844 115.58892059326172 170.36488342285156 C 119.16187286376953 161.08352661132812 155.21847534179688 171.97698974609375 116.58206176757812 169.64964294433594" stroke-width="2.0" fill="none" stroke="rgb(0, 0, 0)" stroke-opacity="1" stroke-linecap="round" stroke-linejoin="round"/>
    <path d="M 55.7137451171875 147.1683349609375 C 56.42808532714844 124.14130401611328 58.93363571166992 147.57472229003906 39.64969253540039 140.34622192382812 C 69.75070190429688 146.41091918945312 50.307552337646484 135.31204223632812 35.13425827026367 147.08438110351562" stroke-width="2.0" fill="none" stroke="rgb(0, 0, 0)" stroke-opacity="1" stroke-linecap="round" stroke-linejoin="round"/>
    <path d="M 79.19331359863281 -16.994007110595703 C 69.45881652832031 -24.465917587280273 72.06745910644531 -2.855761766433716 79.36312103271484 33.90534973144531 C 64.88323974609375 -2.4653618335723877 121.55631256103516 -5.280667781829834 115.82564544677734 19.64491081237793 C 115.477294921875 32.28217697143555 123.6177749633789 5.190301895141602 110.00690460205078 16.157726287841797" stroke-width="2.0" fill="none" stroke="rgb(0, 0, 0)" stroke-opacity="1" stroke-linecap="round" stroke-linejoin="round"/>
    <path d="M 160.26206970214844 136.98028564453125 C 162.0876007080078 149.51808166503906 130.7923126220703 147.11871337890625 134.91990661621094 142.4773712158203 C 143.76622009277344 147.64700317382812 154.13706970214844 157.1088409423828 146.17523193359375 144.1744384765625 C 136.38735961914062 151.7783660888672 147.8288116455078 140.48231506347656 143.86842346191406 153.01942443847656" stroke-width="2.0" fill="none" stroke="rgb(0, 0, 0)" stroke-opacity="1" stroke-linecap="round" stroke-linejoin="round"/>
    <path d="M -1.3477544784545898 105.76068878173828 C -12.852909088134766 99.50066375732422 -0.015070373192429543 104.00965881347656 13.082497596740723 93.22957611083984 C -3.7070298194885254 58.94102478027344 -15.047783851623535 85.95772552490234 16.30548858642578 104.00969696044922" stroke-width="2.0" fill="none" stroke="rgb(0, 0, 0)" stroke-opacity="1" stroke-linecap="round" stroke-linejoin="round"/>
    <path d="M 51.55084228515625 70.60957336425781 C 67.84947204589844 54.3557243347168 28.314861297607422 56.95353317260742 26.122465133666992 69.699462890625 C 30.811983108520508 44.95641326904297 26.740894317626953 68.94499206542969 21.524024963378906 73.18376159667969" stroke-width="2.0" fill="none" stroke="rgb(0, 0, 0)" stroke-opacity="1" stroke-linecap="round" stroke-linejoin="round"/>
    <path d="M 202.0709228515625 206.95872497558594 C 195.3285369873047 211.6117706298828 190.78736877441406 203.13563537597656 187.32664489746094 201.5548553466797 C 182.66244506835938 203.09039306640625 184.67398071289062 179.99447631835938 192.15188598632812 175.8517608642578 C 213.65884399414062 170.55299377441406 217.64633178710938 147.1551971435547 210.59600830078125 165.3839569091797" stroke-width="2.0" fill="none" stroke="rgb(0, 0, 0)" stroke-opacity="1" stroke-linecap="round" stroke-linejoin="round"/>
    <path d="M 29.80931854248047 63.1968994140625 C 9.47938060760498 69.81379699707031 22.305683135986328 85.723388671875 34.34745407104492 66.62651824951172 C 26.290206909179688 32.08097839355469 49.917449951171875 42.866512298583984 41.229984283447266 46.57388687133789 C 37.24270248413086 46.53907012939453 44.936683654785156 57.5368766784668 20.64757537841797 43.41558837890625" stroke-width="2.0" fill="none" stroke="rgb(0, 0, 0)" stroke-opacity="1" stroke-linecap="round" stroke-linejoin="round"/>
    <path d="M 62.27849578857422 184.4836883544922 C 54.016075134277344 185.5579071044922 73.6502685546875 191.125244140625 99.40106964111328 203.76797485351562 C 112.79237365722656 204.99566650390625 106.07816314697266 211.60198974609375 84.18994903564453 195.6142578125 C 99.55497741699219 206.5244598388672 93.52088928222656 198.36383056640625 68.91561126708984 191.19590759277344" stroke-width="2.0" fill="none" stroke="rgb(0, 0, 0)" stroke-opacity="1" stroke-linecap="round" stroke-linejoin="round"/>
    <path d="M 194.806396484375 155.18258666992188 C 210.10482788085938 133.21434020996094 214.9911346435547 149.90933227539062 216.6586456298828 144.82606506347656 C 218.71661376953125 157.62890625 206.0021209716797 126.4511489868164 205.9926300048828 132.8966064453125 C 212.30096435546875 111.2504653930664 193.25621032714844 116.9726791381836 203.99044799804688 112.5390853881836" stroke-width="2.0" fill="none" stroke="rgb(0, 0, 0)" stroke-opacity="1" stroke-linecap="round" stroke-linejoin="round"/>
    <path d="M 47.291717529296875 59.533267974853516 C 53.15079116821289 84.3018798828125 60.68587112426758 58.61879348754883 58.76803207397461 87.04167175292969" stroke-width="2.0" fill="none" stroke="rgb(0, 0, 0)" stroke-opacity="1" stroke-linecap="round" stroke-linejoin="round"/>
    <path d="M 81.69376373291016 109.97583770751953 C 98.7801284790039 92.33438110351562 58.080223083496094 81.44339752197266 45.539188385009766 98.96329498291016" stroke-width="2.0" fill="none" stroke="rgb(0, 0, 0)" stroke-opacity="1" stroke-linecap="round" stroke-linejoin="round"/>
    <path d="M 33.42767333984375 37.58392333984375 C 30.845094680786133 52.501529693603516 43.81056594848633 40.1323127746582 46.34291076660156 45.32404327392578 C 56.073394775390625 25.042593002319336 54.33662033081055 6.965517997741699 56.112510681152344 -15.974456787109375" stroke-width="2.0" fill="none" stroke="rgb(0, 0, 0)" stroke-opacity="1" stroke-linecap="round" stroke-linejoin="round"/>
    <path d="M 176.7213134765625 73.96903228759766 C 192.18072509765625 64.55064392089844 207.13983154296875 83.17650604248047 205.36529541015625 57.14535140991211" stroke-width="2.0" fill="none" stroke="rgb(0, 0, 0)" stroke-opacity="1" stroke-linecap="round" stroke-linejoin="round"/>
    <path d="M 102.80506134033203 202.60165405273438 C 101.17635345458984 206.647216796875 92.45468139648438 199.54696655273438 72.87064361572266 191.7522430419922 C 83.00750732421875 178.89932250976562 74.51028442382812 190.1195526123047 70.15347290039062 194.83164978027344 C 59.14556884765625 199.31890869140625 38.4396858215332 226.67271423339844 49.01485824584961 203.85379028320312" stroke-width="2.0" fill="none" stroke="rgb(0, 0, 0)" stroke-opacity="1" stroke-linecap="round" stroke-linejoin="round"/>
    <path d="M 97.77832794189453 157.3380584716797 C 87.43761444091797 153.47061157226562 95.43949890136719 173.49380493164062 94.05125427246094 154.3248748779297" stroke-width="2.0" fill="none" stroke="rgb(0, 0, 0)" stroke-opacity="1" stroke-linecap="round" stroke-linejoin="round"/>
    <path d="M 93.6552734375 131.90235900878906 C 109.38347625732422 136.05722045898438 78.01106262207031 121.92790985107422 93.66114044189453 140.90586853027344" stroke-width="2.0" fill="none" stroke="rgb(0, 0, 0)" stroke-opacity="1" stroke-linecap="round" stroke-linejoin="round"/>
    <path d="M 208.16940307617188 114.25955200195312 C 202.1080780029297 82.4185791015625 176.75611877441406 108.7065200805664 169.5767059326172 90.19477844238281 C 184.1042022705078 99.78450775146484 184.4223175048828 89.94956970214844 170.74327087402344 103.86731719970703 C 197.9007110595703 88.75608825683594 189.02395629882812 104.237548828125 187.6390380859375 92.01505279541016" stroke-width="2.0" fill="none" stroke="rgb(0, 0, 0)" stroke-opacity="1" stroke-linecap="round" stroke-linejoin="round"/>
    <path d="M 149.04364013671875 89.25362396240234 C 132.75917053222656 90.50224304199219 104.15597534179688 90.87871551513672 158.67010498046875 80.10758972167969 C 157.50091552734375 63.4828987121582 154.33242797851562 60.80754089355469 153.2371826171875 77.96137237548828 C 133.88734436035156 66.09454345703125 154.6232147216797 64.3938980102539 141.1954345703125 100.64549255371094" stroke-width="2.0" fill="none" stroke="rgb(0, 0, 0)" stroke-opacity="1" stroke-linecap="round" stroke-linejoin="round"/>
    <path d="M 194.7018280029297 233.09445190429688 C 190.72500610351562 207.4099884033203 183.83421325683594 224.1852569580078 196.4136199951172 182.00328063964844" stroke-width="2.0" fill="none" stroke="rgb(0, 0, 0)" stroke-opacity="1" stroke-linecap="round" stroke-linejoin="round"/>
    <path d="M 158.48814392089844 -1.8174118995666504 C 175.15538024902344 -19.744125366210938 168.9085235595703 12.461210250854492 168.84182739257812 32.31385040283203" stroke-width="2.0" fill="none" stroke="rgb(0, 0, 0)" stroke-opacity="1" stroke-linecap="round" stroke-linejoin="round"/>
    <path d="M 19.06998062133789 87.82599639892578 C 10.04994010925293 104.08749389648438 21.561145782470703 105.96672821044922 31.26000213623047 130.35440063476562 C 41.58662796020508 117.42101287841797 32.78733444213867 132.6484832763672 29.02610206604004 126.70184326171875 C 50.56497573852539 141.3330078125 36.194644927978516 144.12075805664062 44.96474838256836 134.14256286621094" stroke-width="2.0" fill="none" stroke="rgb(0, 0, 0)" stroke-opacity="1" stroke-linecap="round" stroke-linejoin="round"/>
    <path d="M -8.443046569824219 129.77285766601562 C 24.684707641601562 128.99794006347656 -6.946374416351318 133.10475158691406 14.8023681640625 124.43281555175781" stroke-width="2.0" fill="none" stroke="rgb(0, 0, 0)" stroke-opacity="1" stroke-linecap="round" stroke-linejoin="round"/>
    <path d="M 162.35963439941406 16.996328353881836 C 191.82608032226562 37.718021392822266 142.8783416748047 22.492477416992188 168.31320190429688 29.516267776489258" stroke-width="2.0" fill="none" stroke="rgb(0, 0, 0)" stroke-opacity="1" stroke-linecap="round" stroke-linejoin="round"/>
    <path d="M 155.50079345703125 51.87102508544922 C 132.01048278808594 72.44709777832031 143.17222595214844 67.47179412841797 138.1697235107422 54.16688537597656 C 157.83934020996094 73.8660888671875 130.5231170654297 59.78248596191406 141.7329864501953 85.99820709228516 C 94.82351684570312 80.32460021972656 92.48704528808594 97.02347564697266 133.72520446777344 90.68578338623047" stroke-width="2.0" fill="none" stroke="rgb(0, 0, 0)" stroke-opacity="1" stroke-linecap="round" stroke-linejoin="round"/>
    <path d="M 114.6341552734375 94.73377990722656 C 99.60995483398438 91.23907470703125 101.3630599975586 89.8456802368164 118.61665344238281 94.54667663574219 C 118.85750579833984 78.4391098022461 104.24893188476562 99.96977996826172 111.84369659423828 63.708770751953125" stroke-width="2.0" fill="none" stroke="rgb(0, 0, 0)" stroke-opacity="1" stroke-linecap="round" stroke-linejoin="round"/>
    <path d="M 157.99325561523438 130.6222381591797 C 154.8937530517578 96.46092987060547 165.812255859375 113.32714080810547 153.8527374267578 125.44920349121094 C 153.67005920410156 120.1623764038086 140.3960418701172 96.53701782226562 151.7386932373047 117.38914489746094 C 159.52552795410156 72.50433349609375 159.8247833251953 130.80377197265625 172.11749267578125 115.41349029541016" stroke-width="2.0" fill="none" stroke="rgb(0, 0, 0)" stroke-opacity="1" stroke-linecap="round" stroke-linejoin="round"/>
    <path d="M 194.1794891357422 172.16062927246094 C 186.2858428955078 210.04624938964844 179.87600708007812 216.5972442626953 186.4310302734375 197.2753448486328 C 187.94064331054688 206.7680206298828 191.2100067138672 241.90476989746094 166.1706085205078 217.9347381591797" stroke-width="2.0" fill="none" stroke="rgb(0, 0, 0)" stroke-opacity="1" stroke-linecap="round" stroke-linejoin="round"/>
    <path d="M 31.899703979492188 33.21672058105469 C 13.615585327148438 49.934051513671875 34.8963508605957 38.94211959838867 29.225196838378906 37.36543273925781" stroke-width="2.0" fill="none" stroke="rgb(0, 0, 0)" stroke-opacity="1" stroke-linecap="round" stroke-linejoin="round"/>
    <path d="M 117.40924072265625 17.846628189086914 C 108.47784423828125 7.911904335021973 123.30290222167969 6.9220290184021 109.12824249267578 31.577091217041016 C 135.8484649658203 65.25850677490234 134.0311737060547 56.012794494628906 152.53890991210938 53.13288497924805 C 112.70173645019531 68.50032806396484 141.43991088867188 65.3338394165039 157.9718780517578 56.24950408935547" stroke-width="2.0" fill="none" stroke="rgb(0, 0, 0)" stroke-opacity="1" stroke-linecap="round" stroke-linejoin="round"/>
    <path d="M 109.33297729492188 91.86225128173828 C 105.62655639648438 113.22408294677734 101.3923110961914 92.64787292480469 124.44192504882812 94.78759765625 C 143.57589721679688 95.68387603759766 143.16241455078125 108.44801330566406 157.70823669433594 122.54954528808594 C 134.6308135986328 85.3167953491211 185.40672302246094 88.41181945800781 160.9667510986328 126.02770233154297" stroke-width="2.0" fill="none" stroke="rgb(0, 0, 0)" stroke-opacity="1" stroke-linecap="round" stroke-linejoin="round"/>
    <path d="M 27.90547752380371 66.93838500976562 C 46.941715240478516 58.517398834228516 35.23204803466797 72.4039306640625 13.568182945251465 73.60395812988281 C 13.040763854980469 65.355224609375 -2.312988042831421 51.919715881347656 15.014069557189941 69.08174896240234" stroke-width="2.0" fill="none" stroke="rgb(0, 0, 0)" stroke-opacity="1" stroke-linecap="round" stroke-linejoin="round"/>
    <path d="M 118.57678985595703 78.19187927246094 C 114.59229278564453 90.49671173095703 134.5184326171875 86.53411102294922 144.62432861328125 51.31593322753906 C 144.22808837890625 36.52559280395508 156.9339599609375 61.4107551574707 146.25218200683594 90.63615417480469" stroke-width="2.0" fill="none" stroke="rgb(0, 0, 0)" stroke-opacity="1" stroke-linecap="round" stroke-linejoin="round"/>
    <path d="M 156.4946746826172 164.70448303222656 C 157.34356689453125 159.19854736328125 175.5047149658203 170.3495330810547 152.75526428222656 157.7423553466797 C 140.98500061035156 166.0009002685547 149.96881103515625 149.59738159179688 155.15823364257812 164.8127899169922 C 145.18739318847656 153.92855834960938 142.85169982910156 137.98873901367188 135.86575317382812 147.32627868652344" stroke-width="2.0" fill="none" stroke="rgb(0, 0, 0)" stroke-opacity="1" stroke-linecap="round" stroke-linejoin="round"/>
    <path d="M 19.735511779785156 81.48961639404297 C 35.52370834350586 61.679630279541016 16.27680206298828 53.745059967041016 21.8895206451416 80.4177474975586 C 31.7352294921875 62.629817962646484 17.430147171020508 63.78030776977539 22.974788665771484 74.35029602050781" stroke-width="2.0" fill="none" stroke="rgb(0, 0, 0)" stroke-opacity="1" stroke-linecap="round" stroke-linejoin="round"/>
    <path d="M 189.16331481933594 95.95133972167969 C 187.73663330078125 71.37374877929688 178.83877563476562 71.44709014892578 184.43675231933594 74.81172180175781 C 192.5362548828125 94.30088806152344 195.2864532470703 98.90901947021484 182.36277770996094 70.38632202148438 C 164.04678344726562 61.6776123046875 179.09715270996094 66.56890869140625 180.29368591308594 72.0667953491211" stroke-width="2.0" fill="none" stroke="rgb(0, 0, 0)" stroke-opacity="1" stroke-linecap="round" stroke-linejoin="round"/>
    <path d="M 239.23570251464844 206.28250122070312 C 197.28562927246094 201.82322692871094 200.14151000976562 208.33343505859375 197.52471923828125 207.57281494140625 C 191.546875 221.379638671875 203.8844757080078 195.5845947265625 196.83779907226562 209.10728454589844" stroke-width="2.0" fill="none" stroke="rgb(0, 0, 0)" stroke-opacity="1" stroke-linecap="round" stroke-linejoin="round"/>
    <path d="M 117.68929290771484 234.66378784179688 C 111.7529296875 195.8961944580078 117.37897491455078 229.2917022705078 103.50239562988281 234.33448791503906 C 101.89921569824219 209.5136260986328 121.07086181640625 227.67454528808594 84.13829803466797 224.2976531982422" stroke-width="2.0" fill="none" stroke="rgb(0, 0, 0)" stroke-opacity="1" stroke-linecap="round" stroke-linejoin="round"/>
    <path d="M 132.2328643798828 -2.4939911365509033 C 145.34530639648438 -3.5698001384735107 149.66139221191406 -1.0755056142807007 158.66375732421875 -4.0167460441589355 C 139.61497497558594 -15.901163101196289 139.9534149169922 -10.497920989990234 135.67620849609375 -1.8416615724563599 C 133.90773010253906 -11.347079277038574 133.96145629882812 -20.31440544128418 131.61720275878906 -27.135942459106445" stroke-width="2.0" fill="none" stroke="rgb(0, 0, 0)" stroke-opacity="1" stroke-linecap="round" stroke-linejoin="round"/>
    <path d="M 7.792976379394531 152.5614776611328 C -5.05706262588501 141.20755004882812 -23.41762351989746 146.47958374023438 -22.479961395263672 161.53756713867188" stroke-width="2.0" fill="none" stroke="rgb(0, 0, 0)" stroke-opacity="1" stroke-linecap="round" stroke-linejoin="round"/>
    <path d="M 74.74703216552734 164.8457794189453 C 77.02987670898438 165.53565979003906 72.24647521972656 154.00987243652344 63.380680084228516 154.4277801513672 C 38.5889892578125 168.17086791992188 50.465450286865234 149.00759887695312 65.35082244873047 155.34371948242188 C 65.61528015136719 158.06698608398438 49.34543991088867 138.24288940429688 73.82981872558594 134.63673400878906" stroke-width="2.0" fill="none" stroke="rgb(0, 0, 0)" stroke-opacity="1" stroke-linecap="round" stroke-linejoin="round"/>
    <path d="M 226.2823944091797 200.85179138183594 C 235.32728576660156 195.82603454589844 236.8472137451172 194.0359344482422 253.67303466796875 170.98873901367188 C 240.86181640625 159.99386596679688 231.45936584472656 164.595458984375 223.9603271484375 141.15228271484375 C 208.2456817626953 167.70680236816406 220.45533752441406 169.48794555664062 203.951416015625 163.95118713378906" stroke-width="2.0" fill="none" stroke="rgb(0, 0, 0)" stroke-opacity="1" stroke-linecap="round" stroke-linejoin="round"/>
    <path d="M 14.079289436340332 60.95647430419922 C 21.037843704223633 76.93689727783203 33.36719512939453 86.4749984741211 21.370023727416992 57.680755615234375" stroke-width="2.0" fill="none" stroke="rgb(0, 0, 0)" stroke-opacity="1" stroke-linecap="round" stroke-linejoin="round"/>
    <path d="M 202.03146362304688 8.626601219177246 C 197.05584716796875 -5.525697708129883 194.46047973632812 -28.086414337158203 189.36468505859375 -36.4593620300293" stroke-width="2.0" fill="none" stroke="rgb(0, 0, 0)" stroke-opacity="1" stroke-linecap="round" stroke-linejoin="round"/>
    <path d="M -5.977532863616943 105.48812103271484 C 7.100358963012695 87.1466064453125 20.42840576171875 72.95872497558594 15.358345031738281 67.90936279296875 C 19.955005645751953 72.37474822998047 24.116575241088867 80.19336700439453 22.376558303833008 81.38148498535156 C 34.735721588134766 63.63547134399414 36.43600082397461 60.46919250488281 25.587764739990234 60.46255111694336" stroke-width="2.0" fill="none" stroke="rgb(0, 0, 0)" stroke-opacity="1" stroke-linecap="round" stroke-linejoin="round"/>
    <path d="M 198.21578979492188 206.11207580566406 C 166.40834045410156 233.60629272460938 197.28883361816406 225.5585479736328 178.43234252929688 223.82798767089844 C 174.77334594726562 220.8233642578125 159.89186096191406 189.15866088867188 154.53611755371094 211.13912963867188 C 157.78099060058594 213.9901885986328 163.61288452148438 204.18284606933594 172.96859741210938 225.79690551757812" stroke-width="2.0" fill="none" stroke="rgb(0, 0, 0)" stroke-opacity="1" stroke-linecap="round" stroke-linejoin="round"/>
    <path d="M 218.40406799316406 179.89430236816406 C 226.47882080078125 197.50848388671875 224.79095458984375 142.92762756347656 227.19680786132812 171.9884490966797 C 205.36367797851562 161.7204132080078 219.64031982421875 168.87574768066406 218.4639129638672 166.49899291992188 C 217.40322875976562 169.3611297607422 209.3185272216797 178.33290100097656 223.66688537597656 176.0749053955078" stroke-width="2.0" fill="none" stroke="rgb(0, 0, 0)" stroke-opacity="1" stroke-linecap="round" stroke-linejoin="round"/>
    <path d="M 173.10519409179688 110.00799560546875 C 165.14996337890625 99.10509490966797 182.92373657226562 91.78376007080078 177.17503356933594 100.15951538085938" stroke-width="2.0" fill="none" stroke="rgb(0, 0, 0)" stroke-opacity="1" stroke-linecap="round" stroke-linejoin="round"/>
    <path d="M 174.66290283203125 39.53144836425781 C 156.24557495117188 12.19582748413086 144.56851196289062 -6.753510475158691 184.0282440185547 -12.078154563903809" stroke-width="2.0" fill="none" stroke="rgb(0, 0, 0)" stroke-opacity="1" stroke-linecap="round" stroke-linejoin="round"/>
    <path d="M 64.33690643310547 100.54318237304688 C 30.782865524291992 96.52715301513672 70.09347534179688 94.99556732177734 63.433349609375 99.82855987548828 C 59.35124588012695 112.39839935302734 61.928741455078125 98.59541320800781 44.11403274536133 98.70841217041016" stroke-width="2.0" fill="none" stroke="rgb(0, 0, 0)" stroke-opacity="1" stroke-linecap="round" stroke-linejoin="round"/>
    <path d="M 228.49244689941406 183.93313598632812 C 206.62998962402344 177.23829650878906 214.8765411376953 173.99179077148438 212.84173583984375 180.44601440429688 C 195.99102783203125 201.76451110839844 205.57054138183594 204.2813262939453 187.19097900390625 205.1353302001953" stroke-width="2.0" fill="none" stroke="rgb(0, 0, 0)" stroke-opacity="1" stroke-linecap="round" stroke-linejoin="round"/>
    <path d="M 44.3259162902832 180.2224578857422 C 22.6082820892334 172.1598663330078 -2.477094888687134 203.29428100585938 14.037406921386719 181.45346069335938 C 5.38211727142334 181.13026428222656 28.998069763183594 189.77210998535156 0.8559073805809021 185.2034912109375" stroke-width="2.0" fill="none" stroke="rgb(0, 0, 0)" stroke-opacity="1" stroke-linecap="round" stroke-linejoin="round"/>
    <path d="M 150.6425018310547 66.45012664794922 C 131.9370880126953 87.23819732666016 128.52557373046875 63.10661315917969 143.4964599609375 56.91557693481445 C 145.1633758544922 68.4372329711914 124.1722412109375 100.85282135009766 144.06613159179688 77.23629760742188" stroke-width="2.0" fill="none" stroke="rgb(0, 0, 0)" stroke-opacity="1" stroke-linecap="round" stroke-linejoin="round"/>
    <path d="M 75.80583953857422 16.559080123901367 C 92.17089080810547 35.50018310546875 74.60249328613281 -3.5457403659820557 81.82404327392578 46.37419128417969 C 44.808067321777344 41.89615249633789 42.63112258911133 48.13002014160156 77.4721908569336 44.99540710449219 C 74.78334045410156 -5.321577548980713 53.300838470458984 4.217709541320801 56.539005279541016 34.79878234863281" stroke-width="2.0" fill="none" stroke="rgb(0, 0, 0)" stroke-opacity="1" stroke-linecap="round" stroke-linejoin="round"/>
    <path d="M 190.36477661132812 168.31771850585938 C 208.9482879638672 146.17266845703125 179.35031127929688 168.52301025390625 188.98309326171875 146.74041748046875" stroke-width="2.0" fill="none" stroke="rgb(0, 0, 0)" stroke-opacity="1" stroke-linecap="round" stroke-linejoin="round"/>
    <path d="M 60.78547668457031 143.1907501220703 C 61.47080993652344 118.35942077636719 66.27821350097656 101.51424407958984 34.95353317260742 97.0075454711914 C 37.21232604980469 103.09266662597656 41.482234954833984 83.87501525878906 55.845760345458984 105.84253692626953" stroke-width="2.0" fill="none" stroke="rgb(0, 0, 0)" stroke-opacity="1" stroke-linecap="round" stroke-linejoin="round"/>
    <path d="M 157.0373077392578 73.46219635009766 C 134.2410888671875 54.99766540527344 145.35279846191406 38.896873474121094 140.2591552734375 61.67925262451172" stroke-width="2.0" fill="none" stroke="rgb(0, 0, 0)" stroke-opacity="1" stroke-linecap="round" stroke-linejoin="round"/>
    <path d="M 176.70794677734375 214.2222900390625 C 145.85842895507812 206.6682891845703 169.3381805419922 224.98544311523438 167.93690490722656 201.39273071289062" stroke-width="2.0" fill="none" stroke="rgb(0, 0, 0)" stroke-opacity="1" stroke-linecap="round" stroke-linejoin="round"/>
    <path d="M 119.59454345703125 170.7047576904297 C 116.16825103759766 185.61849975585938 116.35234832763672 163.43930053710938 133.3703155517578 176.88645935058594" stroke-width="2.0" fill="none" stroke="rgb(0, 0, 0)" stroke-opacity="1" stroke-linecap="round" stroke-linejoin="round"/>
    <path d="M 171.73500061035156 113.73384857177734 C 154.9989471435547 123.72817993164062 166.7441864013672 128.22320556640625 147.8522491455078 117.95182037353516 C 169.39932250976562 123.04122924804688 154.4547576904297 142.05426025390625 167.02615356445312 108.585205078125 C 141.605712890625 113.64048767089844 167.39637756347656 94.37210083007812 163.3441162109375 112.6190185546875" stroke-width="2.0" fill="none" stroke="rgb(0, 0, 0)" stroke-opacity="1" stroke-linecap="round" stroke-linejoin="round"/>
    <path d="M 139.06947326660156 145.7017822265625 C 143.74478149414062 145.3246612548828 129.273681640625 138.07394409179688 120.4161605834961 137.39881896972656 C 99.05276489257812 121.20365142822266 106.64269256591797 137.16571044921875 100.08604431152344 112.69734954833984 C 140.26002502441406 97.6494140625 102.22808837890625 107.52179718017578 120.03258514404297 105.71187591552734" stroke-width="2.0" fill="none" stroke="rgb(0, 0, 0)" stroke-opacity="1" stroke-linecap="round" stroke-linejoin="round"/>
    <path d="M 45.003841400146484 156.46246337890625 C 52.25408935546875 153.27304077148438 36.51377487182617 195.218505859375 39.75288772583008 171.67022705078125 C 38.40196990966797 158.1846923828125 33.1822509765625 175.0034942626953 50.55499267578125 184.9010009765625" stroke-width="2.0" fill="none" stroke="rgb(0, 0, 0)" stroke-opacity="1" stroke-linecap="round" stroke-linejoin="round"/>
    <path d="M 62.32077407836914 139.74790954589844 C 63.10490798950195 160.8463897705078 58.83274841308594 153.16860961914062 47.56808853149414 145.08499145507812 C 64.0874252319336 150.91400146484375 43.89236831665039 128.30140686035156 53.110233306884766 144.5625457763672" stroke-width="2.0" fill="none" stroke="rgb(0, 0, 0)" stroke-opacity="1" stroke-linecap="round" stroke-linejoin="round"/>
    <path d="M 161.38427734375 143.95773315429688 C 155.14324951171875 143.00619506835938 161.69195556640625 139.94927978515625 163.28150939941406 151.0764617919922 C 166.31561279296875 119.34872436523438 152.1083526611328 106.23635864257812 171.36451721191406 109.20931243896484" stroke-width="2.0" fill="none" stroke="rgb(0, 0, 0)" stroke-opacity="1" stroke-linecap="round" stroke-linejoin="round"/>
    <path d="M 184.56333923339844 237.3477783203125 C 174.46456909179688 234.2525634765625 157.40635681152344 232.34329223632812 169.2042236328125 218.39784240722656 C 166.013916015625 193.115478515625 140.61553955078125 192.33290100097656 168.7526397705078 216.52186584472656 C 189.97503662109375 203.86143493652344 187.7346954345703 176.3302459716797 203.8266143798828 193.07582092285156" stroke-width="2.0" fill="none" stroke="rgb(0, 0, 0)" stroke-opacity="1" stroke-linecap="round" stroke-linejoin="round"/>
    <path d="M 60.259315490722656 13.09473705291748 C 57.024784088134766 75.2228775024414 44.116859436035156 55.02879333496094 25.874197006225586 36.32212448120117 C 50.29178237915039 52.60272979736328 59.92902755737305 35.76512908935547 33.85677719116211 36.1744499206543 C 49.81888961791992 53.713287353515625 40.732364654541016 23.86094093322754 54.09720993041992 33.95961380004883" stroke-width="2.0" fill="none" stroke="rgb(0, 0, 0)" stroke-opacity="1" stroke-linecap="round" stroke-linejoin="round"/>
    <path d="M 39.02830505371094 33.29267883300781 C 31.656591415405273 35.81450271606445 46.73163986206055 54.730812072753906 27.756418228149414 43.7370719909668 C 42.5365104675293 25.663545608520508 29.280780792236328 58.495933532714844 32.88454055786133 37.304054260253906 C 35.50079345703125 45.64834976196289 17.868173599243164 50.038185119628906 24.164155960083008 46.98637771606445" stroke-width="2.0" fill="none" stroke="rgb(0, 0, 0)" stroke-opacity="1" stroke-linecap="round" stroke-linejoin="round"/>
    <path d="M 81.5992202758789 118.37164306640625 C 92.07892608642578 120.61079406738281 71.38905334472656 124.16119384765625 92.83142852783203 126.90502166748047" stroke-width="2.0" fill="none" stroke="rgb(0, 0, 0)" stroke-opacity="1" stroke-linecap="round" stroke-linejoin="round"/>
    <path d="M 144.3924560546875 63.26095962524414 C 161.04588317871094 61.460845947265625 153.65489196777344 69.4352035522461 173.9527587890625 52.357418060302734 C 209.708251953125 40.575340270996094 198.6031036376953 17.830703735351562 195.54844665527344 42.443965911865234 C 176.26564025878906 54.034095764160156 193.1758575439453 45.197025299072266 184.03903198242188 46.96831512451172" stroke-width="2.0" fill="none" stroke="rgb(0, 0, 0)" stroke-opacity="1" stroke-linecap="round" stroke-linejoin="round"/>
    <path d="M 218.2023468017578 -6.392024517059326 C 225.87890625 -4.329090595245361 234.20147705078125 -17.058820724487305 243.57667541503906 -20.36850929260254 C 239.90740966796875 -22.712282180786133 235.32394409179688 -25.447349548339844 237.18890380859375 -31.659317016601562 C 227.19715881347656 -27.66628074645996 226.0904083251953 -23.485525131225586 229.86032104492188 -26.25992202758789" stroke-width="2.0" fill="none" stroke="rgb(0, 0, 0)" stroke-opacity="1" stroke-linecap="round" stroke-linejoin="round"/>
    <path d="M 152.97622680664062 49.35280990600586 C 157.64483642578125 61.62790298461914 153.49618530273438 80.37745666503906 161.41989135742188 90.27832794189453" stroke-width="2.0" fill="none" stroke="rgb(0, 0, 0)" stroke-opacity="1" stroke-linecap="round" stroke-linejoin="round"/>
    <path d="M 137.4431915283203 22.339923858642578 C 167.76132202148438 49.24418640136719 97.98561096191406 45.653846740722656 73.19972229003906 43.484840393066406 C 72.02607727050781 0.5047047138214111 84.99571990966797 8.3911771774292 94.19221496582031 -7.588834285736084" stroke-width="2.0" fill="none" stroke="rgb(0, 0, 0)" stroke-opacity="1" stroke-linecap="round" stroke-linejoin="round"/>
    <path d="M 161.1333465576172 89.994384765625 C 153.5926055908203 91.30906677246094 165.76303100585938 80.33055114746094 148.6952667236328 72.1773452758789 C 158.53244018554688 77.76966857910156 163.65394592285156 84.83869171142578 144.59120178222656 87.74217224121094 C 155.8341522216797 90.7272720336914 156.98870849609375 61.43587112426758 149.01596069335938 47.22462844848633" stroke-width="2.0" fill="none" stroke="rgb(0, 0, 0)" stroke-opacity="1" stroke-linecap="round" stroke-linejoin="round"/>
    <path d="M 56.52629089355469 155.52523803710938 C 45.93623733520508 166.4051055908203 24.00054168701172 183.92050170898438 33.08182144165039 163.73182678222656" stroke-width="2.0" fill="none" stroke="rgb(0, 0, 0)" stroke-opacity="1" stroke-linecap="round" stroke-linejoin="round"/>
    <path d="M 159.2979736328125 71.1595687866211 C 139.1856231689453 59.302146911621094 144.0894012451172 33.63201904296875 153.8600311279297 67.5946273803711 C 109.30364227294922 74.92269897460938 132.32803344726562 67.0484619140625 145.9990692138672 59.18136215209961" stroke-width="2.0" fill="none" stroke="rgb(0, 0, 0)" stroke-opacity="1" stroke-linecap="round" stroke-linejoin="round"/>
    <path d="M 13.04386043548584 93.6159439086914 C 9.554944038391113 96.34627532958984 -6.252082824707031 114.2333984375 -9.396096229553223 108.45315551757812 C -2.762390375137329 104.90229797363281 -2.7822132110595703 103.3469467163086 -8.050121307373047 117.91799926757812 C -8.031641960144043 121.35972595214844 -7.733848571777344 122.53815460205078 -6.699522495269775 128.75108337402344" stroke-width="2.0" fill="none" stroke="rgb(0, 0, 0)" stroke-opacity="1" stroke-linecap="round" stroke-linejoin="round"/>
    <path d="M 147.68165588378906 147.01589965820312 C 121.77696990966797 144.90658569335938 140.65455627441406 135.69854736328125 133.43881225585938 139.46673583984375" stroke-width="2.0" fill="none" stroke="rgb(0, 0, 0)" stroke-opacity="1" stroke-linecap="round" stroke-linejoin="round"/>
    <path d="M 171.97618103027344 47.25550079345703 C 168.18414306640625 62.153228759765625 160.11187744140625 67.18355560302734 204.5264892578125 74.72224426269531 C 215.4531707763672 83.51282501220703 200.62649536132812 46.01595687866211 185.02359008789062 83.90150451660156" stroke-width="2.0" fill="none" stroke="rgb(0, 0, 0)" stroke-opacity="1" stroke-linecap="round" stroke-linejoin="round"/>
    <path d="M 88.23054504394531 171.19322204589844 C 71.82628631591797 165.14630126953125 85.058837890625 187.64132690429688 91.92604064941406 161.06593322753906 C 89.83618927001953 176.43824768066406 94.52457427978516 169.82130432128906 85.96251678466797 166.27610778808594 C 70.90055847167969 176.33233642578125 88.57544708251953 153.96295166015625 79.7677993774414 171.65548706054688" stroke-width="2.0" fill="none" stroke="rgb(0, 0, 0)" stroke-opacity="1" stroke-linecap="round" stroke-linejoin="round"/>
    <path d="M 41.79139709472656 57.52431106567383 C 35.72673416137695 29.069793701171875 33.21443176269531 30.881399154663086 37.48577117919922 49.21116256713867 C 16.430564880371094 55.7003059387207 26.069780349731445 44.05120849609375 35.3884162902832 32.34440612792969" stroke-width="2.0" fill="none" stroke="rgb(0, 0, 0)" stroke-opacity="1" stroke-linecap="round" stroke-linejoin="round"/>
    <path d="M 169.2454833984375 60.99504852294922 C 166.9134063720703 62.6563606262207 186.898193359375 49.216514587402344 163.35110473632812 64.83340454101562 C 175.19140625 54.5514030456543 183.81863403320312 84.00076293945312 181.8917236328125 66.08016204833984" stroke-width="2.0" fill="none" stroke="rgb(0, 0, 0)" stroke-opacity="1" stroke-linecap="round" stroke-linejoin="round"/>
    <path d="M 188.0305633544922 198.2159423828125 C 189.4124755859375 216.79051208496094 193.62904357910156 199.99368286132812 182.52772521972656 211.07481384277344 C 195.0050811767578 208.6641845703125 171.23358154296875 207.50457763671875 173.8303680419922 201.75257873535156 C 159.7647247314453 209.8414764404297 161.1183624267578 208.74639892578125 158.8852996826172 226.07916259765625" stroke-width="2.0" fill="none" stroke="rgb(0, 0, 0)" stroke-opacity="1" stroke-linecap="round" stroke-linejoin="round"/>
    <path d="M 16.094614028930664 104.95826721191406 C 20.887317657470703 88.99046325683594 -8.68885326385498 84.91490936279297 12.669548988342285 61.789390563964844" stroke-width="2.0" fill="none" stroke="rgb(0, 0, 0)" stroke-opacity="1" stroke-linecap="round" stroke-linejoin="round"/>
    <path d="M 182.7954864501953 192.41549682617188 C 183.03363037109375 214.50570678710938 171.24562072753906 204.26194763183594 177.88433837890625 206.07675170898438 C 189.6236572265625 174.9127960205078 191.55751037597656 167.42959594726562 186.16229248046875 177.2530975341797" stroke-width="2.0" fill="none" stroke="rgb(0, 0, 0)" stroke-opacity="1" stroke-linecap="round" stroke-linejoin="round"/>
    <path d="M 9.888574600219727 -3.5913445949554443 C 3.157108783721924 -7.485825538635254 5.496182918548584 -15.883044242858887 0.036388009786605835 -25.49547004699707" stroke-width="2.0" fill="none" stroke="rgb(0, 0, 0)" stroke-opacity="1" stroke-linecap="round" stroke-linejoin="round"/>
    <path d="M 133.1784210205078 132.25851440429688 C 140.04327392578125 146.05955505371094 126.44306182861328 139.58865356445312 142.47348022460938 123.85372924804688" stroke-width="2.0" fill="none" stroke="rgb(0, 0, 0)" stroke-opacity="1" stroke-linecap="round" stroke-linejoin="round"/>
    <path d="M 191.49566650390625 220.45899963378906 C 184.2739715576172 202.98678588867188 193.2810821533203 216.9942626953125 194.0424346923828 232.04043579101562" stroke-width="2.0" fill="none" stroke="rgb(0, 0, 0)" stroke-opacity="1" stroke-linecap="round" stroke-linejoin="round"/>
    <path d="M 73.954833984375 134.8984832763672 C 90.36860656738281 133.663330078125 102.97071075439453 158.64739990234375 87.79143524169922 156.3438262939453 C 98.40602111816406 161.60252380371094 86.24320220947266 124.28419494628906 81.5422592163086 127.7410888671875" stroke-width="2.0" fill="none" stroke="rgb(0, 0, 0)" stroke-opacity="1" stroke-linecap="round" stroke-linejoin="round"/>
    <path d="M 169.00527954101562 209.48260498046875 C 165.27015686035156 202.65841674804688 143.17352294921875 195.2351837158203 156.41819763183594 216.64353942871094 C 156.5552978515625 182.5971221923828 152.2882843017578 188.62879943847656 160.12974548339844 182.47317504882812" stroke-width="2.0" fill="none" stroke="rgb(0, 0, 0)" stroke-opacity="1" stroke-linecap="round" stroke-linejoin="round"/>
    <path d="M 154.2029266357422 155.8819122314453 C 147.7348175048828 182.98899841308594 174.4499969482422 142.9364013671875 151.8939208984375 167.854736328125" stroke-width="2.0" fill="none" stroke="rgb(0, 0, 0)" stroke-opacity="1" stroke-linecap="round" stroke-linejoin="round"/>
    <path d="M 18.153635025024414 121.79498291015625 C 16.092397689819336 127.15013122558594 45.106231689453125 124.35328674316406 22.593854904174805 124.52381134033203 C 38.5289306640625 120.13095092773438 31.178163528442383 140.66519165039062 45.99952697753906 149.5803985595703 C 19.326194763183594 130.07066345214844 39.59489440917969 149.21517944335938 35.72044372558594 125.37763214111328" stroke-width="2.0" fill="none" stroke="rgb(0, 0, 0)" stroke-opacity="1" stroke-linecap="round" stroke-linejoin="round"/>
    <path d="M 139.6733856201172 225.5086212158203 C 147.65524291992188 232.13681030273438 140.12474060058594 233.63209533691406 122.5785903930664 228.23394775390625" stroke-width="2.0" fill="none" stroke="rgb(0, 0, 0)" stroke-opacity="1" stroke-linecap="round" stroke-linejoin="round"/>
    <path d="M 29.615154266357422 73.30589294433594 C 34.32426452636719 70.01156616210938 28.927845001220703 77.770263671875 18.948469161987305 76.32593536376953 C 29.07604217529297 55.519020080566406 39.38777160644531 58.10177230834961 32.62479019165039 70.9213638305664 C 61.14003372192383 62.635215759277344 33.698936462402344 70.46817779541016 18.362285614013672 79.1997299194336" stroke-width="2.0" fill="none" stroke="rgb(0, 0, 0)" stroke-opacity="1" stroke-linecap="round" stroke-linejoin="round"/>
    <path d="M 121.66004180908203 133.26483154296875 C 99.84741973876953 152.4120330810547 88.80106353759766 159.94036865234375 105.06141662597656 147.54055786132812 C 83.4089126586914 159.71273803710938 92.36600494384766 181.52774047851562 88.04368591308594 174.5595245361328 C 93.55426025390625 129.8624725341797 88.26136779785156 125.22122955322266 109.50274658203125 124.75447845458984" stroke-width="2.0" fill="none" stroke="rgb(0, 0, 0)" stroke-opacity="1" stroke-linecap="round" stroke-linejoin="round"/>
    <path d="M 53.859703063964844 42.385047912597656 C 39.34016418457031 38.84751510620117 50.18135452270508 56.24812316894531 50.854454040527344 68.73762512207031 C 21.825313568115234 66.95755004882812 27.362321853637695 74.02571868896484 48.66563034057617 41.928131103515625" stroke-width="2.0" fill="none" stroke="rgb(0, 0, 0)" stroke-opacity="1" stroke-linecap="round" stroke-linejoin="round"/>
    <path d="M 153.36619567871094 237.7511444091797 C 154.60671997070312 214.9710235595703 156.42037963867188 207.78932189941406 134.41201782226562 188.15618896484375 C 161.86793518066406 187.84593200683594 162.16909790039062 196.92300415039062 130.7544403076172 191.3438720703125 C 158.02024841308594 193.6997528076172 147.5019989013672 197.8809356689453 177.3546600341797 176.30734252929688" stroke-width="2.0" fill="none" stroke="rgb(0, 0, 0)" stroke-opacity="1" stroke-linecap="round" stroke-linejoin="round"/>
    <path d="M 197.8400421142578 112.31616973876953 C 199.40277099609375 98.54080963134766 218.799560546875 142.0134735107422 198.71669006347656 130.1558380126953 C 199.86398315429688 135.44351196289062 175.8199920654297 117.48611450195312 180.12448120117188 121.5179672241211" stroke-width="2.0" fill="none" stroke="rgb(0, 0, 0)" stroke-opacity="1" stroke-linecap="round" stroke-linejoin="round"/>
    <path d="M 13.414989471435547 189.1446533203125 C -5.6087727546691895 192.08535766601562 1.4071214199066162 227.42660522460938 -12.412060737609863 229.11985778808594 C -28.160598754882812 168.46693420410156 -33.41127014160156 159.90794372558594 -30.504528045654297 163.37228393554688" stroke-width="2.0" fill="none" stroke="rgb(0, 0, 0)" stroke-opacity="1" stroke-linecap="round" stroke-linejoin="round"/>
    <path d="M -4.6031718254089355 125.532470703125 C -13.339011192321777 125.60755920410156 -17.016422271728516 136.15589904785156 -8.541182518005371 143.21212768554688" stroke-width="2.0" fill="none" stroke="rgb(0, 0, 0)" stroke-opacity="1" stroke-linecap="round" stroke-linejoin="round"/>
    <path d="M 76.07994842529297 -2.91768741607666 C 76.29629516601562 -9.832985877990723 101.72789764404297 -10.312959671020508 120.71134948730469 -4.950047492980957 C 103.23393249511719 -8.01285457611084 95.01686096191406 -19.053380966186523 83.85738372802734 -25.397245407104492" stroke-width="2.0" fill="none" stroke="rgb(0, 0, 0)" stroke-opacity="1" stroke-linecap="round" stroke-linejoin="round"/>
    <path d="M 90.78378295898438 222.84156799316406 C 64.46595001220703 226.409912109375 97.2880859375 211.79612731933594 99.9482421875 233.2516632080078" stroke-width="2.0" fill="none" stroke="rgb(0, 0, 0)" stroke-opacity="1" stroke-linecap="round" stroke-linejoin="round"/>
    <path d="M 31.437414169311523 119.29119110107422 C 26.717809677124023 133.03213500976562 24.22457504272461 129.96047973632812 25.58773422241211 126.92156982421875 C 46.80487060546875 122.794189453125 32.07514953613281 132.6305389404297 35.768028259277344 123.82803344726562" stroke-width="2.0" fill="none" stroke="rgb(0, 0, 0)" stroke-opacity="1" stroke-linecap="round" stroke-linejoin="round"/>
    <path d="M 198.11741638183594 98.98487091064453 C 192.4121856689453 95.17008972167969 209.5810546875 106.46620178222656 201.05630493164062 100.98627471923828" stroke-width="2.0" fill="none" stroke="rgb(0, 0, 0)" stroke-opacity="1" stroke-linecap="round" stroke-linejoin="round"/>
    <path d="M 162.5103302001953 102.27154541015625 C 172.59872436523438 108.0113296508789 151.04896545410156 137.08836364746094 162.85154724121094 112.61473846435547 C 206.15768432617188 136.49851989746094 203.4427032470703 127.61487579345703 170.0133514404297 143.9395294189453 C 138.32626342773438 144.30984497070312 157.03785705566406 150.33203125 154.3658447265625 139.2919921875" stroke-width="2.0" fill="none" stroke="rgb(0, 0, 0)" stroke-opacity="1" stroke-linecap="round" stroke-linejoin="round"/>
    <path d="M 168.8585205078125 214.65570068359375 C 137.78285217285156 243.00450134277344 158.8622283935547 207.23399353027344 185.11302185058594 204.28521728515625 C 185.05111694335938 206.49668884277344 184.2442626953125 188.3949737548828 193.30711364746094 182.6522979736328" stroke-width="2.0" fill="none" stroke="rgb(0, 0, 0)" stroke-opacity="1" stroke-linecap="round" stroke-linejoin="round"/>
    <path d="M 85.98755645751953 164.4593963623047 C 79.06124877929688 197.0417938232422 81.44512939453125 159.27685546875 87.66725158691406 166.66116333007812 C 80.66177368164062 184.61898803710938 89.93782806396484 179.22984313964844 92.39091491699219 155.6289520263672" stroke-width="2.0" fill="none" stroke="rgb(0, 0, 0)" stroke-opacity="1" stroke-linecap="round" stroke-linejoin="round"/>
    <path d="M 134.93247985839844 169.64013671875 C 147.91099548339844 206.53077697753906 129.1268768310547 171.8859100341797 139.0171356201172 183.10952758789062" stroke-width="2.0" fill="none" stroke="rgb(0, 0, 0)" stroke-opacity="1" stroke-linecap="round" stroke-linejoin="round"/>
    <path d="M 17.532127380371094 60.69816970825195 C 13.410860061645508 78.26235961914062 11.59131908416748 77.3545913696289 13.366338729858398 81.16964721679688 C -11.901065826416016 59.63981246948242 13.55224609375 80.64185333251953 30.694904327392578 66.32203674316406" stroke-width="2.0" fill="none" stroke="rgb(0, 0, 0)" stroke-opacity="1" stroke-linecap="round" stroke-linejoin="round"/>
    <path d="M 99.7645034790039 227.95437622070312 C 113.29822540283203 238.8353729248047 104.29945373535156 260.8915710449219 103.83849334716797 205.8120574951172" stroke-width="2.0" fill="none" stroke="rgb(0, 0, 0)" stroke-opacity="1" stroke-linecap="round" stroke-linejoin="round"/>
    <path d="M 230.63475036621094 162.19143676757812 C 208.9484100341797 136.2267303466797 210.4243621826172 136.79649353027344 212.03823852539062 142.9853515625 C 216.15771484375 133.6080322265625 206.53314208984375 143.35679626464844 210.06800842285156 133.1692352294922" stroke-width="2.0" fill="none" stroke="rgb(0, 0, 0)" stroke-opacity="1" stroke-linecap="round" stroke-linejoin="round"/>
    <path d="M 126.7458724975586 -9.324209213256836 C 131.09527587890625 0.27211788296699524 138.08372497558594 -9.080015182495117 130.80441284179688 -4.396415710449219 C 111.69633483886719 -7.060136795043945 108.81546020507812 0.06012981757521629 114.61538696289062 -6.945995330810547" stroke-width="2.0" fill="none" stroke="rgb(0, 0, 0)" stroke-opacity="1" stroke-linecap="round" stroke-linejoin="round"/>
    <path d="M 164.40884399414062 54.2756233215332 C 186.30799865722656 58.98121643066406 178.83106994628906 39.619319915771484 181.8429718017578 52.61746597290039 C 184.42640686035156 41.187660217285156 200.62826538085938 62.575225830078125 189.8506622314453 69.047119140625" stroke-width="2.0" fill="none" stroke="rgb(0, 0, 0)" stroke-opacity="1" stroke-linecap="round" stroke-linejoin="round"/>
    <path d="M 191.6670684814453 218.97686767578125 C 188.0606689453125 223.42919921875 199.3008575439453 227.3466033935547 186.41500854492188 210.01608276367188 C 189.06114196777344 181.37957763671875 191.19384765625 196.31398010253906 188.29705810546875 211.5216064453125" stroke-width="2.0" fill="none" stroke="rgb(0, 0, 0)" stroke-opacity="1" stroke-linecap="round" stroke-linejoin="round"/>
    <path d="M 78.54341125488281 112.36473083496094 C 93.22410583496094 87.42230224609375 64.172119140625 97.62666320800781 72.27632904052734 112.9442138671875" stroke-width="2.0" fill="none" stroke="rgb(0, 0, 0)" stroke-opacity="1" stroke-linecap="round" stroke-linejoin="round"/>
    <path d="M 16.09347915649414 212.0062713623047 C 12.699503898620605 232.1571807861328 39.1938591003418 204.4545440673828 3.8204128742218018 224.3837432861328" stroke-width="2.0" fill="none" stroke="rgb(0, 0, 0)" stroke-opacity="1" stroke-linecap="round" stroke-linejoin="round"/>
    <path d="M 99.853759765625 108.25735473632812 C 95.29732513427734 112.84074401855469 90.185546875 98.27885437011719 101.36009216308594 120.124755859375 C 90.84651184082031 88.47029876708984 107.90377044677734 111.34449768066406 100.05228424072266 110.7984848022461 C 102.30593872070312 133.19845581054688 115.86434173583984 119.22132873535156 99.256103515625 127.72139739990234" stroke-width="2.0" fill="none" stroke="rgb(0, 0, 0)" stroke-opacity="1" stroke-linecap="round" stroke-linejoin="round"/>
    <path d="M 86.56471252441406 65.44340515136719 C 118.15620422363281 54.29603576660156 129.2938232421875 46.03311538696289 145.48985290527344 42.76094436645508" stroke-width="2.0" fill="none" stroke="rgb(0, 0, 0)" stroke-opacity="1" stroke-linecap="round" stroke-linejoin="round"/>
    <path d="M 190.7926788330078 204.86187744140625 C 187.25193786621094 200.57733154296875 188.77691650390625 172.8046875 174.51104736328125 144.7422332763672 C 200.9191131591797 155.89462280273438 166.3677215576172 169.27621459960938 187.55674743652344 142.235107421875" stroke-width="2.0" fill="none" stroke="rgb(0, 0, 0)" stroke-opacity="1" stroke-linecap="round" stroke-linejoin="round"/>
    <path d="M 78.04498291015625 133.71231079101562 C 77.72080993652344 96.65839385986328 84.84819793701172 86.75668334960938 74.36927795410156 122.09492492675781 C 78.2491683959961 87.39649963378906 79.21998596191406 99.96691131591797 73.15402221679688 130.29115295410156 C 73.4573745727539 99.87574005126953 76.16541290283203 83.586669921875 77.01206970214844 125.21331024169922" stroke-width="2.0" fill="none" stroke="rgb(0, 0, 0)" stroke-opacity="1" stroke-linecap="round" stroke-linejoin="round"/>
    <path d="M 216.2032928466797 226.33799743652344 C 216.12522888183594 227.17681884765625 211.854248046875 233.2714385986328 204.2534637451172 229.50730895996094 C 212.78982543945312 225.86610412597656 222.7633056640625 227.0396728515625 213.7764434814453 233.6451416015625 C 204.66189575195312 237.189697265625 196.4784393310547 246.57191467285156 196.69664001464844 256.5895690917969" stroke-width="2.0" fill="none" stroke="rgb(0, 0, 0)" stroke-opacity="1" stroke-linecap="round" stroke-linejoin="round"/>
    <path d="M 62.567420959472656 78.6156997680664 C 61.439910888671875 63.32080841064453 74.32413482666016 74.7674789428711 83.40926361083984 68.05303192138672 C 66.67860412597656 66.83610534667969 105.12284851074219 58.788726806640625 109.42047882080078 56.49205780029297" stroke-width="2.0" fill="none" stroke="rgb(0, 0, 0)" stroke-opacity="1" stroke-linecap="round" stroke-linejoin="round"/>
    <path d="M 21.095008850097656 161.0796661376953 C 29.963623046875 155.98597717285156 13.514013290405273 153.73704528808594 29.97089385986328 161.3954620361328 C 6.5414228439331055 150.06338500976562 33.10843276977539 153.8004913330078 34.046321868896484 178.97349548339844" stroke-width="2.0" fill="none" stroke="rgb(0, 0, 0)" stroke-opacity="1" stroke-linecap="round" stroke-linejoin="round"/>
    <path d="M 104.47860717773438 119.60258483886719 C 67.73528289794922 90.29869079589844 77.81722259521484 143.41354370117188 77.65216827392578 121.58174133300781 C 74.86334991455078 146.6388702392578 76.20970153808594 134.68565368652344 69.35274505615234 102.15593719482422" stroke-width="2.0" fill="none" stroke="rgb(0, 0, 0)" stroke-opacity="1" stroke-linecap="round" stroke-linejoin="round"/>
    <path d="M 203.63014221191406 184.93418884277344 C 172.32472229003906 219.41030883789062 183.86231994628906 167.88418579101562 182.20697021484375 159.00794982910156 C 195.654052734375 158.58226013183594 202.1090545654297 148.30299377441406 182.62667846679688 167.35589599609375 C 201.3936004638672 161.98291015625 168.9567413330078 171.0049285888672 191.65232849121094 192.6776123046875" stroke-width="2.0" fill="none" stroke="rgb(0, 0, 0)" stroke-opacity="1" stroke-linecap="round" stroke-linejoin="round"/>
    <path d="M 47.146522521972656 53.7598762512207 C 69.68385314941406 50.45411682128906 49.41499710083008 77.36521911621094 47.12588119506836 63.92720413208008 C 84.91058349609375 68.82672882080078 83.28336334228516 51.14341735839844 74.24873352050781 55.570884704589844 C 83.56035614013672 55.71582794189453 68.48603057861328 125.86295318603516 69.77438354492188 68.6484603881836" stroke-width="2.0" fill="none" stroke="rgb(0, 0, 0)" stroke-opacity="1" stroke-linecap="round" stroke-linejoin="round"/>
    <path d="M 87.57703399658203 151.54437255859375 C 97.38063049316406 150.8280792236328 86.25904083251953 168.21282958984375 85.60540771484375 179.44833374023438" stroke-width="2.0" fill="none" stroke="rgb(0, 0, 0)" stroke-opacity="1" stroke-linecap="round" stroke-linejoin="round"/>
    <path d="M 23.27311897277832 149.7484588623047 C 25.092405319213867 154.1241912841797 31.31034278869629 151.64556884765625 29.74624252319336 150.38539123535156 C 12.384000778198242 160.9622039794922 31.97976303100586 172.67218017578125 45.517433166503906 170.73434448242188" stroke-width="2.0" fill="none" stroke="rgb(0, 0, 0)" stroke-opacity="1" stroke-linecap="round" stroke-linejoin="round"/>
    <path d="M 77.90670776367188 -14.538506507873535 C 78.128173828125 -10.225981712341309 83.8589096069336 17.147592544555664 71.60530853271484 19.813182830810547 C 87.4374771118164 -5.826279640197754 103.04901123046875 1.0624977350234985 112.07540130615234 -9.725589752197266" stroke-width="2.0" fill="none" stroke="rgb(0, 0, 0)" stroke-opacity="1" stroke-linecap="round" stroke-linejoin="round"/>
    <path d="M 66.33788299560547 87.1748275756836 C 69.80052185058594 64.34343719482422 67.62525177001953 58.0908203125 62.79602813720703 81.78960418701172 C 78.86494445800781 34.45829391479492 57.03937530517578 59.971405029296875 67.857177734375 57.96142578125" stroke-width="2.0" fill="none" stroke="rgb(0, 0, 0)" stroke-opacity="1" stroke-linecap="round" stroke-linejoin="round"/>
    <path d="M 201.15037536621094 98.92854309082031 C 232.0653533935547 66.26728820800781 235.72608947753906 60.93659210205078 241.0889892578125 48.30196762084961 C 240.47018432617188 39.28337097167969 239.290283203125 37.44713592529297 234.56216430664062 39.385345458984375 C 226.25604248046875 30.70415496826172 225.255859375 36.42887496948242 227.60858154296875 29.627147674560547" stroke-width="2.0" fill="none" stroke="rgb(0, 0, 0)" stroke-opacity="1" stroke-linecap="round" stroke-linejoin="round"/>
    <path d="M 141.82769775390625 89.99934387207031 C 142.7655792236328 123.44761657714844 147.14608764648438 85.81781005859375 145.92941284179688 76.74046325683594" stroke-width="2.0" fill="none" stroke="rgb(0, 0, 0)" stroke-opacity="1" stroke-linecap="round" stroke-linejoin="round"/>
    <path d="M 84.97521209716797 160.35089111328125 C 97.45783996582031 178.6535186767578 91.62265014648438 165.94093322753906 89.16265869140625 172.00425720214844" stroke-width="2.0" fill="none" stroke="rgb(0, 0, 0)" stroke-opacity="1" stroke-linecap="round" stroke-linejoin="round"/>
    <path d="M 201.4988555908203 67.7095947265625 C 201.7772216796875 50.63056564331055 206.15957641601562 80.2260971069336 192.7509002685547 73.7579345703125 C 205.57325744628906 51.220176696777344 180.42047119140625 78.0556411743164 194.84194946289062 54.01555252075195" stroke-width="2.0" fill="none" stroke="rgb(0, 0, 0)" stroke-opacity="1" stroke-linecap="round" stroke-linejoin="round"/>
    <path d="M 231.99810791015625 139.0998992919922 C 230.7225341796875 120.38033294677734 233.11163330078125 118.15201568603516 227.29232788085938 118.5569839477539" stroke-width="2.0" fill="none" stroke="rgb(0, 0, 0)" stroke-opacity="1" stroke-linecap="round" stroke-linejoin="round"/>
    <path d="M 211.4726104736328 142.0079345703125 C 208.8106689453125 149.75079345703125 192.7651824951172 133.61407470703125 204.78892517089844 145.48146057128906 C 204.26715087890625 152.56712341308594 209.2530517578125 146.6571502685547 192.947998046875 145.67401123046875 C 210.98416137695312 140.36187744140625 216.15158081054688 152.43040466308594 205.32058715820312 140.30926513671875" stroke-width="2.0" fill="none" stroke="rgb(0, 0, 0)" stroke-opacity="1" stroke-linecap="round" stroke-linejoin="round"/>
    <path d="M 158.86415100097656 162.52899169921875 C 163.27630615234375 176.8892364501953 152.8887481689453 152.55307006835938 158.53955078125 170.46084594726562" stroke-width="2.0" fill="none" stroke="rgb(0, 0, 0)" stroke-opacity="1" stroke-linecap="round" stroke-linejoin="round"/>
    <path d="M -5.266142845153809 30.952980041503906 C 0.582027792930603 46.1606559753418 -12.865530967712402 35.45013427734375 9.763856887817383 25.779226303100586 C -29.828611373901367 35.77519607543945 -34.18033218383789 24.610782623291016 -37.61695861816406 25.28662872314453" stroke-width="2.0" fill="none" stroke="rgb(0, 0, 0)" stroke-opacity="1" stroke-linecap="round" stroke-linejoin="round"/>
    <path d="M 67.09869384765625 151.02078247070312 C 78.55424499511719 163.9584197998047 65.41188049316406 156.93161010742188 76.02120971679688 154.05661010742188 C 65.85211944580078 162.38453674316406 74.50614166259766 141.9040069580078 70.48853302001953 154.33494567871094 C 93.03321075439453 160.13845825195312 104.08292388916016 132.47264099121094 70.66132354736328 114.53563690185547" stroke-width="2.0" fill="none" stroke="rgb(0, 0, 0)" stroke-opacity="1" stroke-linecap="round" stroke-linejoin="round"/>
    <path d="M 172.5306854248047 197.39193725585938 C 169.08920288085938 222.43638610839844 162.5377655029297 223.4484100341797 179.35531616210938 222.5747528076172 C 156.53028869628906 239.73165893554688 153.43716430664062 243.7535858154297 179.5723876953125 223.26707458496094" stroke-width="2.0" fill="none" stroke="rgb(0, 0, 0)" stroke-opacity="1" stroke-linecap="round" stroke-linejoin="round"/>
    <path d="M 179.22207641601562 197.5979766845703 C 179.5029296875 179.08587646484375 204.25057983398438 195.69735717773438 190.09219360351562 233.95108032226562 C 176.82901000976562 219.48294067382812 195.89532470703125 194.32017517089844 183.390869140625 216.56634521484375" stroke-width="2.0" fill="none" stroke="rgb(0, 0, 0)" stroke-opacity="1" stroke-linecap="round" stroke-linejoin="round"/>
    <path d="M 127.98994445800781 182.6370391845703 C 132.67730712890625 180.84078979492188 124.01458740234375 181.40858459472656 128.41029357910156 183.61021423339844" stroke-width="2.0" fill="none" stroke="rgb(0, 0, 0)" stroke-opacity="1" stroke-linecap="round" stroke-linejoin="round"/>
    <path d="M 152.2184600830078 24.709205627441406 C 156.1781463623047 21.049394607543945 152.73068237304688 29.146432876586914 152.075439453125 23.821521759033203" stroke-width="2.0" fill="none" stroke="rgb(0, 0, 0)" stroke-opacity="1" stroke-linecap="round" stroke-linejoin="round"/>
    <path d="M 40.98286437988281 132.97434997558594 C 47.240272521972656 145.99391174316406 37.30392837524414 132.18272399902344 38.24440002441406 138.28219604492188" stroke-width="2.0" fill="none" stroke="rgb(0, 0, 0)" stroke-opacity="1" stroke-linecap="round" stroke-linejoin="round"/>
    <path d="M 98.09925842285156 56.04457092285156 C 56.53845977783203 30.11296272277832 59.14887619018555 34.36367416381836 96.56965637207031 41.890254974365234 C 61.34034729003906 34.58587646484375 73.26917266845703 49.707942962646484 67.3856430053711 37.54985809326172" stroke-width="2.0" fill="none" stroke="rgb(0, 0, 0)" stroke-opacity="1" stroke-linecap="round" stroke-linejoin="round"/>
    <path d="M 55.826107025146484 35.51490783691406 C 45.48218536376953 14.621010780334473 37.53754425048828 -5.0883660316467285 30.394943237304688 -11.392711639404297 C 41.86598587036133 1.4282559156417847 52.60792541503906 -11.056209564208984 55.176795959472656 -5.387954235076904" stroke-width="2.0" fill="none" stroke="rgb(0, 0, 0)" stroke-opacity="1" stroke-linecap="round" stroke-linejoin="round"/>
    <path d="M 227.72732543945312 73.23357391357422 C 232.632568359375 48.027164459228516 224.48049926757812 56.81593704223633 231.03579711914062 79.49037170410156 C 227.8031768798828 70.54080963134766 237.70016479492188 77.98149871826172 235.998291015625 67.13130950927734" stroke-width="2.0" fill="none" stroke="rgb(0, 0, 0)" stroke-opacity="1" stroke-linecap="round" stroke-linejoin="round"/>
    <path d="M 210.51780700683594 37.48308181762695 C 214.9272003173828 32.39287185668945 212.32044982910156 4.407939910888672 170.82730102539062 1.1183298826217651 C 130.6812744140625 -1.12108314037323 128.6554412841797 -19.941904067993164 205.5543975830078 1.447029709815979 C 183.72315979003906 17.388086318969727 195.74078369140625 -9.52709674835205 202.87051391601562 -29.200349807739258" stroke-width="2.0" fill="none" stroke="rgb(0, 0, 0)" stroke-opacity="1" stroke-linecap="round" stroke-linejoin="round"/>
    <path d="M 79.10417175292969 71.76447296142578 C 68.25614166259766 66.97901916503906 84.36795043945312 106.70475769042969 74.580078125 86.71365356445312 C 72.29930114746094 96.2223129272461 64.32025146484375 84.06046295166016 67.03964233398438 69.69441223144531" stroke-width="2.0" fill="none" stroke="rgb(0, 0, 0)" stroke-opacity="1" stroke-linecap="round" stroke-linejoin="round"/>
    <path d="M 198.08712768554688 224.4727020263672 C 213.030517578125 217.5871124267578 228.1411590576172 236.1649627685547 227.8321990966797 234.8860626220703" stroke-width="2.0" fill="none" stroke="rgb(0, 0, 0)" stroke-opacity="1" stroke-linecap="round" stroke-linejoin="round"/>
    <path d="M 199.66346740722656 66.90155792236328 C 215.25282287597656 61.27960968017578 202.2032470703125 64.61116027832031 199.50196838378906 70.4629135131836 C 213.0533905029297 58.49019241333008 208.41729736328125 58.19141387939453 198.51243591308594 77.47848510742188" stroke-width="2.0" fill="none" stroke="rgb(0, 0, 0)" stroke-opacity="1" stroke-linecap="round" stroke-linejoin="round"/>
    <path d="M 89.8584213256836 139.5224151611328 C 79.3267593383789 127.8555679321289 81.05018615722656 140.0649871826172 88.06400299072266 122.32999420166016" stroke-width="2.0" fill="none" stroke="rgb(0, 0, 0)" stroke-opacity="1" stroke-linecap="round" stroke-linejoin="round"/>
    <path d="M 186.02386474609375 43.565372467041016 C 184.4984130859375 46.37345886230469 200.5371551513672 50.54722213745117 203.79684448242188 30.62252426147461 C 194.2072296142578 -3.9890079498291016 159.2793426513672 22.724782943725586 184.9642333984375 12.850690841674805 C 197.94493103027344 23.75167465209961 188.46612548828125 11.678558349609375 184.10073852539062 17.429550170898438" stroke-width="2.0" fill="none" stroke="rgb(0, 0, 0)" stroke-opacity="1" stroke-linecap="round" stroke-linejoin="round"/>
    <path d="M 219.59228515625 211.1024627685547 C 220.44261169433594 205.5097198486328 215.9925994873047 235.4584503173828 221.6216583251953 244.47373962402344" stroke-width="2.0" fill="none" stroke="rgb(0, 0, 0)" stroke-opacity="1" stroke-linecap="round" stroke-linejoin="round"/>
    <path d="M 140.530029296875 23.227367401123047 C 165.06715393066406 4.864104270935059 129.68995666503906 26.749027252197266 143.14747619628906 13.076062202453613 C 139.89801025390625 22.915119171142578 146.0204315185547 6.303603649139404 163.9621124267578 14.360572814941406 C 160.6676788330078 32.21907043457031 161.61509704589844 5.221110820770264 142.52706909179688 20.09943199157715" stroke-width="2.0" fill="none" stroke="rgb(0, 0, 0)" stroke-opacity="1" stroke-linecap="round" stroke-linejoin="round"/>
    <path d="M 204.7353973388672 35.220008850097656 C 167.23776245117188 47.770843505859375 220.624267578125 28.9303035736084 226.99378967285156 50.75370788574219" stroke-width="2.0" fill="none" stroke="rgb(0, 0, 0)" stroke-opacity="1" stroke-linecap="round" stroke-linejoin="round"/>
    <path d="M -9.392066955566406 118.62503051757812 C -7.821896076202393 113.37939453125 -16.1590518951416 117.36302947998047 -7.76086950302124 127.39159393310547 C -13.386306762695312 123.10205841064453 -15.100110054016113 121.76983642578125 -11.980045318603516 147.5445556640625 C -10.041464805603027 155.7023162841797 -2.7422242164611816 153.94290161132812 5.01893424987793 120.16727447509766" stroke-width="2.0" fill="none" stroke="rgb(0, 0, 0)" stroke-opacity="1" stroke-linecap="round" stroke-linejoin="round"/>
    <path d="M 181.33935546875 160.7342987060547 C 210.2725372314453 162.7920684814453 211.07435607910156 181.1072998046875 215.6864776611328 174.60470581054688" stroke-width="2.0" fill="none" stroke="rgb(0, 0, 0)" stroke-opacity="1" stroke-linecap="round" stroke-linejoin="round"/>
    <path d="M 168.65785217285156 63.80125045776367 C 151.77598571777344 76.44559478759766 126.90167236328125 63.724273681640625 153.24447631835938 55.0439453125 C 133.05661010742188 88.59712982177734 143.6875 68.1985855102539 158.84877014160156 88.14954376220703 C 133.00997924804688 98.32989501953125 116.12974548339844 94.58546447753906 131.56723022460938 71.3640365600586" stroke-width="2.0" fill="none" stroke="rgb(0, 0, 0)" stroke-opacity="1" stroke-linecap="round" stroke-linejoin="round"/>
    <path d="M 199.6508331298828 153.2775115966797 C 180.77883911132812 149.7079620361328 214.84335327148438 143.74716186523438 175.7937774658203 151.70472717285156 C 183.69973754882812 145.37545776367188 190.76666259765625 151.08811950683594 196.2938690185547 159.78802490234375" stroke-width="2.0" fill="none" stroke="rgb(0, 0, 0)" stroke-opacity="1" stroke-linecap="round" stroke-linejoin="round"/>
    <path d="M 66.16075897216797 189.5218505859375 C 69.51643371582031 188.52137756347656 69.03136444091797 190.11770629882812 39.99563980102539 178.13742065429688 C 32.28352355957031 179.45654296875 49.60243606567383 179.97039794921875 40.58527374267578 179.1393280029297" stroke-width="2.0" fill="none" stroke="rgb(0, 0, 0)" stroke-opacity="1" stroke-linecap="round" stroke-linejoin="round"/>
    <path d="M 74.27135467529297 97.25352478027344 C 67.41780090332031 140.3505096435547 75.26608276367188 150.81698608398438 78.1202163696289 106.37288665771484" stroke-width="2.0" fill="none" stroke="rgb(0, 0, 0)" stroke-opacity="1" stroke-linecap="round" stroke-linejoin="round"/>
    <path d="M 8.630765914916992 99.46127319335938 C 6.022095680236816 103.10462951660156 -8.856472969055176 84.99596405029297 -17.863998413085938 99.26107788085938 C 19.16749382019043 104.173828125 20.00402069091797 82.99884796142578 31.05879783630371 65.74425506591797 C 23.12706184387207 87.03329467773438 22.520811080932617 81.3905258178711 10.84277629852295 63.45199203491211" stroke-width="2.0" fill="none" stroke="rgb(0, 0, 0)" stroke-opacity="1" stroke-linecap="round" stroke-linejoin="round"/>
    <path d="M 22.878246307373047 114.43292236328125 C 20.681655883789062 138.91064453125 20.4829044342041 116.06024169921875 24.423500061035156 123.47290802001953 C 35.686424255371094 120.22990417480469 1.8248732089996338 126.37174987792969 7.915000915527344 133.7711181640625 C 9.969088554382324 114.94795989990234 -15.18522834777832 128.4661407470703 -42.051021575927734 140.24575805664062" stroke-width="2.0" fill="none" stroke="rgb(0, 0, 0)" stroke-opacity="1" stroke-linecap="round" stroke-linejoin="round"/>
    <path d="M 67.11837768554688 104.51461791992188 C 80.70411682128906 90.53700256347656 65.37889099121094 99.0697021484375 68.31141662597656 132.82803344726562" stroke-width="2.0" fill="none" stroke="rgb(0, 0, 0)" stroke-opacity="1" stroke-linecap="round" stroke-linejoin="round"/>
    <path d="M 73.85527801513672 91.72659301757812 C 83.46392822265625 55.3127326965332 47.342132568359375 76.08728790283203 52.757102966308594 53.697879791259766 C 29.20720863342285 52.92301940917969 48.63484191894531 52.356536865234375 86.20828247070312 40.358070373535156 C 38.0264778137207 46.50191879272461 51.53398895263672 29.7100887298584 52.28330993652344 65.97339630126953" stroke-width="2.0" fill="none" stroke="rgb(0, 0, 0)" stroke-opacity="1" stroke-linecap="round" stroke-linejoin="round"/>
    <path d="M 170.54754638671875 -3.1887316703796387 C 175.37222290039062 -1.8237384557724 167.66436767578125 2.000016689300537 166.90713500976562 -11.264988899230957" stroke-width="2.0" fill="none" stroke="rgb(0, 0, 0)" stroke-opacity="1" stroke-linecap="round" stroke-linejoin="round"/>
    <path d="M 233.6240692138672 200.2595977783203 C 236.78929138183594 218.02297973632812 245.7136688232422 222.3769989013672 226.55026245117188 223.93121337890625 C 217.3770751953125 207.10508728027344 197.89202880859375 183.45150756835938 207.94322204589844 188.78842163085938 C 222.19223022460938 161.4089813232422 224.92469787597656 151.60595703125 232.00502014160156 163.8949737548828" stroke-width="2.0" fill="none" stroke="rgb(0, 0, 0)" stroke-opacity="1" stroke-linecap="round" stroke-linejoin="round"/>
    <path d="M 222.90806579589844 30.72483253479004 C 225.6171875 62.1207275390625 215.12425231933594 28.160625457763672 222.51612854003906 40.39190673828125" stroke-width="2.0" fill="none" stroke="rgb(0, 0, 0)" stroke-opacity="1" stroke-linecap="round" stroke-linejoin="round"/>
    <path d="M 195.99777221679688 60.18122100830078 C 195.5476531982422 73.85659790039062 223.7063751220703 84.55091094970703 230.4534912109375 104.65559387207031 C 245.49850463867188 96.4729995727539 224.8498077392578 100.23704528808594 226.57638549804688 131.1463623046875 C 232.56141662597656 72.93282318115234 224.42970275878906 48.20439147949219 246.53782653808594 69.89385986328125" stroke-width="2.0" fill="none" stroke="rgb(0, 0, 0)" stroke-opacity="1" stroke-linecap="round" stroke-linejoin="round"/>
    <path d="M 226.50662231445312 154.706298828125 C 242.3046112060547 163.43617248535156 239.9664306640625 174.41744995117188 229.46917724609375 180.1426544189453" stroke-width="2.0" fill="none" stroke="rgb(0, 0, 0)" stroke-opacity="1" stroke-linecap="round" stroke-linejoin="round"/>
    <path d="M 104.4455337524414 110.26730346679688 C 110.483154296875 89.72266387939453 105.89002227783203 92.81377410888672 103.54329681396484 105.13417053222656 C 109.00523376464844 95.49077606201172 125.58329772949219 80.88260650634766 113.27059936523438 77.06051635742188 C 108.03304290771484 57.569580078125 93.95853424072266 61.360137939453125 104.59638214111328 58.209903717041016" stroke-width="2.0" fill="none" stroke="rgb(0, 0, 0)" stroke-opacity="1" stroke-linecap="round" stroke-linejoin="round"/>
    <path d="M 72.44503784179688 59.84626007080078 C 71.13761138916016 79.4919204711914 65.58782958984375 54.98944091796875 113.19601440429688 68.72736358642578 C 123.06709289550781 70.5431137084961 125.68199920654297 92.55538940429688 135.7034149169922 78.2360610961914 C 117.32268524169922 67.66049194335938 113.43301391601562 62.49167251586914 123.86088562011719 71.23968505859375" stroke-width="2.0" fill="none" stroke="rgb(0, 0, 0)" stroke-opacity="1" stroke-linecap="round" stroke-linejoin="round"/>
    <path d="M 68.63571166992188 156.07752990722656 C 78.48814392089844 142.96636962890625 52.84341049194336 165.34527587890625 81.94480895996094 153.11941528320312 C 69.29572296142578 157.45599365234375 70.0243911743164 149.02871704101562 89.8810806274414 153.68997192382812" stroke-width="2.0" fill="none" stroke="rgb(0, 0, 0)" stroke-opacity="1" stroke-linecap="round" stroke-linejoin="round"/>
    <path d="M 56.905494689941406 58.78461456298828 C 30.750064849853516 57.13615036010742 15.288153648376465 24.681781768798828 24.150348663330078 47.27043533325195 C 43.94206237792969 40.88348388671875 34.820640563964844 43.638370513916016 28.85951805114746 53.59407424926758 C 40.381874084472656 54.57909393310547 44.1190185546875 56.46559524536133 46.298580169677734 57.24409484863281" stroke-width="2.0" fill="none" stroke="rgb(0, 0, 0)" stroke-opacity="1" stroke-linecap="round" stroke-linejoin="round"/>
    <path d="M 148.79510498046875 232.0928497314453 C 139.84156799316406 218.14947509765625 108.39312744140625 223.51998901367188 119.1286849975586 230.2386016845703" stroke-width="2.0" fill="none" stroke="rgb(0, 0, 0)" stroke-opacity="1" stroke-linecap="round" stroke-linejoin="round"/>
    <path d="M 171.80470275878906 18.819744110107422 C 174.4453582763672 31.005634307861328 179.10704040527344 12.33707332611084 166.6404571533203 30.973392486572266" stroke-width="2.0" fill="none" stroke="rgb(0, 0, 0)" stroke-opacity="1" stroke-linecap="round" stroke-linejoin="round"/>
    <path d="M 160.087646484375 199.10858154296875 C 159.0024871826172 199.50640869140625 167.12171936035156 193.197509765625 160.10440063476562 199.64569091796875" stroke-width="2.0" fill="none" stroke="rgb(0, 0, 0)" stroke-opacity="1" stroke-linecap="round" stroke-linejoin="round"/>
    <path d="M 115.00211334228516 87.75394439697266 C 84.11323547363281 105.6048355102539 123.58719635009766 116.63912963867188 113.27005004882812 108.01233673095703" stroke-width="2.0" fill="none" stroke="rgb(0, 0, 0)" stroke-opacity="1" stroke-linecap="round" stroke-linejoin="round"/>
    <path d="M 29.13286781311035 71.16539001464844 C 23.46122169494629 83.500732421875 6.852471828460693 67.19776916503906 13.042158126831055 56.97407531738281" stroke-width="2.0" fill="none" stroke="rgb(0, 0, 0)" stroke-opacity="1" stroke-linecap="round" stroke-linejoin="round"/>
    <path d="M 116.0697250366211 12.933754920959473 C 97.21729278564453 15.737835884094238 114.43338012695312 3.1375815868377686 114.32051849365234 20.365234375" stroke-width="2.0" fill="none" stroke="rgb(0, 0, 0)" stroke-opacity="1" stroke-linecap="round" stroke-linejoin="round"/>
    <path d="M 218.69590759277344 227.1311492919922 C 199.6831512451172 225.30514526367188 195.7303466796875 238.20947265625 190.70687866210938 232.1080780029297 C 197.23995971679688 207.0734405517578 192.59005737304688 198.53448486328125 196.31106567382812 198.45330810546875" stroke-width="2.0" fill="none" stroke="rgb(0, 0, 0)" stroke-opacity="1" stroke-linecap="round" stroke-linejoin="round"/>
  </g>
</svg>
