<?xml version="1.0" ?>
<svg xmlns="http://www.w3.org/2000/svg" version="1.1" width="224" height="224">
  <defs/>
  <g>
    <path d="M 114.0052261352539 97.20613861083984 C 137.69224548339844 91.88705444335938 135.86656188964844 72.85414123535156 143.60438537597656 72.83622741699219" stroke-width="2.0" fill="none" stroke="rgb(0, 0, 0)" stroke-opacity="1" stroke-linecap="round" stroke-linejoin="round"/>
    <path d="M 170.4440155029297 203.83555603027344 C 166.31390380859375 182.59449768066406 168.76663208007812 205.56834411621094 178.3240203857422 204.61782836914062 C 176.25833129882812 197.3888397216797 158.23777770996094 177.2283935546875 153.2993621826172 164.27183532714844 C 168.08023071289062 170.5957489013672 155.39602661132812 176.9345245361328 186.88755798339844 175.3966522216797" stroke-width="2.0" fill="none" stroke="rgb(0, 0, 0)" stroke-opacity="1" stroke-linecap="round" stroke-linejoin="round"/>
    <path d="M 226.28726196289062 40.24207305908203 C 206.2508087158203 27.806821823120117 219.23016357421875 57.65433120727539 218.5523681640625 44.39259338378906 C 219.46705627441406 59.483177185058594 208.22064208984375 73.48812103271484 177.5769500732422 73.36417388916016 C 141.186279296875 77.44780731201172 184.70411682128906 70.97454071044922 215.4003448486328 56.15951919555664" stroke-width="2.0" fill="none" stroke="rgb(0, 0, 0)" stroke-opacity="1" stroke-linecap="round" stroke-linejoin="round"/>
    <path d="M 166.98464965820312 29.127017974853516 C 129.10423278808594 45.39303207397461 165.55636596679688 51.44183349609375 128.57801818847656 40.953643798828125 C 198.49688720703125 59.7149543762207 203.04576110839844 76.62554931640625 161.29408264160156 41.695030212402344 C 160.79837036132812 52.93996810913086 159.01864624023438 57.564208984375 196.42051696777344 57.62882614135742" stroke-width="2.0" fill="none" stroke="rgb(0, 0, 0)" stroke-opacity="1" stroke-linecap="round" stroke-linejoin="round"/>
    <path d="M 215.82904052734375 175.35365295410156 C 222.5238800048828 185.4134521484375 214.76731872558594 174.00149536132812 209.893310546875 150.40542602539062 C 200.60597229003906 132.05079650878906 203.979736328125 127.61227416992188 209.7637176513672 162.65367126464844" stroke-width="2.0" fill="none" stroke="rgb(0, 0, 0)" stroke-opacity="1" stroke-linecap="round" stroke-linejoin="round"/>
    <path d="M 75.6447525024414 173.0931396484375 C 94.21924591064453 183.24179077148438 85.95741271972656 182.25392150878906 87.03158569335938 179.1717987060547 C 61.9068489074707 168.68043518066406 65.02912902832031 162.27967834472656 84.81529235839844 182.67579650878906 C 62.545066833496094 175.8926239013672 40.175384521484375 156.23422241210938 59.9117546081543 163.70143127441406" stroke-width="2.0" fill="none" stroke="rgb(0, 0, 0)" stroke-opacity="1" stroke-linecap="round" stroke-linejoin="round"/>
    <path d="M 46.83194351196289 149.17453002929688 C 43.958866119384766 194.88702392578125 49.0553092956543 189.74522399902344 53.867530822753906 186.3246612548828 C 43.167232513427734 179.69583129882812 65.07066345214844 210.4366455078125 45.63290023803711 184.7711181640625" stroke-width="2.0" fill="none" stroke="rgb(0, 0, 0)" stroke-opacity="1" stroke-linecap="round" stroke-linejoin="round"/>
    <path d="M 126.44168853759766 2.6978371143341064 C 110.61859130859375 -6.378502368927002 101.20750427246094 -9.493204116821289 92.66719818115234 -10.846062660217285 C 81.07720947265625 -8.796808242797852 89.7678451538086 -7.707511901855469 107.92537689208984 -9.959039688110352 C 114.36572265625 4.580146789550781 157.39903259277344 12.140912055969238 116.70347595214844 9.829329490661621" stroke-width="2.0" fill="none" stroke="rgb(0, 0, 0)" stroke-opacity="1" stroke-linecap="round" stroke-linejoin="round"/>
    <path d="M 117.47126007080078 128.00146484375 C 136.79368591308594 110.25914001464844 144.79110717773438 94.24661254882812 147.94241333007812 73.62966918945312 C 131.2049102783203 104.2320556640625 119.07633972167969 135.05715942382812 140.44117736816406 96.13723754882812" stroke-width="2.0" fill="none" stroke="rgb(0, 0, 0)" stroke-opacity="1" stroke-linecap="round" stroke-linejoin="round"/>
    <path d="M -1.7230339050292969 17.885189056396484 C 3.832348585128784 44.03348159790039 1.872191309928894 67.94683837890625 13.07267951965332 70.32730102539062 C 4.270908832550049 55.85134506225586 8.664234161376953 39.608062744140625 5.017236709594727 60.64679718017578" stroke-width="2.0" fill="none" stroke="rgb(0, 0, 0)" stroke-opacity="1" stroke-linecap="round" stroke-linejoin="round"/>
    <path d="M 85.59210205078125 114.83367919921875 C 116.17822265625 135.03578186035156 101.85871887207031 131.5338134765625 82.98920440673828 115.67815399169922" stroke-width="2.0" fill="none" stroke="rgb(0, 0, 0)" stroke-opacity="1" stroke-linecap="round" stroke-linejoin="round"/>
    <path d="M 180.48422241210938 18.032724380493164 C 200.0673065185547 -3.071979522705078 187.8572540283203 7.385694980621338 168.68341064453125 32.05421829223633 C 167.67291259765625 34.49577331542969 167.4462890625 33.335445404052734 168.14857482910156 33.02860641479492" stroke-width="2.0" fill="none" stroke="rgb(0, 0, 0)" stroke-opacity="1" stroke-linecap="round" stroke-linejoin="round"/>
    <path d="M 211.05369567871094 186.5177001953125 C 210.3772735595703 181.3059844970703 234.17369079589844 192.9154510498047 217.87985229492188 171.190185546875 C 217.11752319335938 179.17750549316406 215.98138427734375 167.28285217285156 216.04302978515625 171.99244689941406 C 211.829345703125 202.93112182617188 219.64154052734375 176.90138244628906 218.43641662597656 183.65890502929688" stroke-width="2.0" fill="none" stroke="rgb(0, 0, 0)" stroke-opacity="1" stroke-linecap="round" stroke-linejoin="round"/>
    <path d="M 170.56346130371094 95.77595520019531 C 144.84422302246094 73.19099426269531 153.18292236328125 63.81128692626953 128.97430419921875 83.8531494140625 C 149.59152221679688 66.8919677734375 158.9720458984375 55.81782150268555 149.82498168945312 63.34904479980469" stroke-width="2.0" fill="none" stroke="rgb(0, 0, 0)" stroke-opacity="1" stroke-linecap="round" stroke-linejoin="round"/>
    <path d="M 38.534210205078125 214.7458038330078 C 53.130123138427734 186.45628356933594 47.9976692199707 193.277587890625 65.10657501220703 211.01199340820312" stroke-width="2.0" fill="none" stroke="rgb(0, 0, 0)" stroke-opacity="1" stroke-linecap="round" stroke-linejoin="round"/>
    <path d="M 28.96832275390625 40.01649475097656 C 52.09379959106445 20.236921310424805 58.936832427978516 10.065047264099121 30.11187171936035 25.866071701049805 C 39.623878479003906 16.15151023864746 51.60182189941406 13.450460433959961 58.098114013671875 -15.857375144958496 C 66.0650634765625 -2.6563494205474854 64.736572265625 -0.5179579257965088 55.5128173828125 -8.231735229492188" stroke-width="2.0" fill="none" stroke="rgb(0, 0, 0)" stroke-opacity="1" stroke-linecap="round" stroke-linejoin="round"/>
    <path d="M 107.66154479980469 183.33795166015625 C 116.04641723632812 188.36825561523438 113.51384735107422 181.3140869140625 111.97261047363281 178.45413208007812" stroke-width="2.0" fill="none" stroke="rgb(0, 0, 0)" stroke-opacity="1" stroke-linecap="round" stroke-linejoin="round"/>
    <path d="M 103.1158676147461 189.0647735595703 C 98.35641479492188 203.07662963867188 51.13578414916992 197.697021484375 54.239593505859375 206.87083435058594" stroke-width="2.0" fill="none" stroke="rgb(0, 0, 0)" stroke-opacity="1" stroke-linecap="round" stroke-linejoin="round"/>
    <path d="M 116.59578704833984 191.60208129882812 C 91.8643569946289 175.603271484375 112.98322296142578 185.40142822265625 105.7963638305664 185.2521514892578 C 137.22093200683594 184.4564666748047 170.6841583251953 179.98526000976562 114.24775695800781 176.11477661132812" stroke-width="2.0" fill="none" stroke="rgb(0, 0, 0)" stroke-opacity="1" stroke-linecap="round" stroke-linejoin="round"/>
    <path d="M 175.6471405029297 116.22488403320312 C 199.14816284179688 143.57635498046875 186.13294982910156 133.02955627441406 162.49868774414062 95.15914916992188" stroke-width="2.0" fill="none" stroke="rgb(0, 0, 0)" stroke-opacity="1" stroke-linecap="round" stroke-linejoin="round"/>
    <path d="M 232.684326171875 65.512451171875 C 242.14207458496094 75.80892944335938 228.95697021484375 84.50326538085938 232.08409118652344 112.0172348022461 C 215.44973754882812 111.21436309814453 222.93820190429688 91.0551528930664 208.49374389648438 70.02355194091797 C 207.0386199951172 36.9256477355957 214.66439819335938 51.76577377319336 220.5726776123047 126.13092041015625" stroke-width="2.0" fill="none" stroke="rgb(0, 0, 0)" stroke-opacity="1" stroke-linecap="round" stroke-linejoin="round"/>
    <path d="M 87.67935180664062 100.30156707763672 C 88.93035888671875 71.523681640625 94.68913269042969 74.3554916381836 54.68169403076172 92.26007080078125 C 80.95237731933594 91.57318878173828 95.66220092773438 85.61827850341797 89.92012786865234 109.48607635498047" stroke-width="2.0" fill="none" stroke="rgb(0, 0, 0)" stroke-opacity="1" stroke-linecap="round" stroke-linejoin="round"/>
    <path d="M 129.79736328125 75.06726837158203 C 156.5325927734375 83.18415069580078 128.57260131835938 88.56791687011719 97.82914733886719 96.78071594238281 C 109.06556701660156 95.09080505371094 73.86089324951172 96.14598846435547 134.17254638671875 86.07054901123047" stroke-width="2.0" fill="none" stroke="rgb(0, 0, 0)" stroke-opacity="1" stroke-linecap="round" stroke-linejoin="round"/>
    <path d="M 185.836181640625 170.67984008789062 C 168.501220703125 182.16195678710938 157.1308135986328 165.31907653808594 166.33795166015625 177.10154724121094 C 174.07664489746094 178.91029357910156 172.02247619628906 170.56820678710938 149.5155487060547 169.1260223388672" stroke-width="2.0" fill="none" stroke="rgb(0, 0, 0)" stroke-opacity="1" stroke-linecap="round" stroke-linejoin="round"/>
    <path d="M 95.95369720458984 187.0770721435547 C 87.37689971923828 220.6597137451172 86.36283111572266 205.31980895996094 99.62895202636719 195.0060272216797" stroke-width="2.0" fill="none" stroke="rgb(0, 0, 0)" stroke-opacity="1" stroke-linecap="round" stroke-linejoin="round"/>
    <path d="M 132.4298095703125 91.31573486328125 C 152.98777770996094 61.646583557128906 152.8927459716797 102.3572998046875 118.66431427001953 129.60549926757812 C 140.86965942382812 132.35250854492188 145.27029418945312 153.94107055664062 149.02633666992188 148.53494262695312" stroke-width="2.0" fill="none" stroke="rgb(0, 0, 0)" stroke-opacity="1" stroke-linecap="round" stroke-linejoin="round"/>
    <path d="M 144.1493377685547 82.59049987792969 C 159.50799560546875 43.11661911010742 174.41648864746094 22.4986515045166 133.2473907470703 74.1396713256836 C 181.22268676757812 75.94503784179688 219.6795654296875 61.051551818847656 156.680908203125 78.54663848876953" stroke-width="2.0" fill="none" stroke="rgb(0, 0, 0)" stroke-opacity="1" stroke-linecap="round" stroke-linejoin="round"/>
    <path d="M 155.34217834472656 87.43357849121094 C 146.5986785888672 74.81246948242188 138.3855743408203 75.39273071289062 146.52557373046875 83.20734405517578 C 145.30589294433594 94.1358871459961 130.3193359375 94.94586944580078 141.4269561767578 79.84789276123047 C 118.95082092285156 69.94165802001953 146.13198852539062 71.7159423828125 156.73147583007812 42.7188606262207" stroke-width="2.0" fill="none" stroke="rgb(0, 0, 0)" stroke-opacity="1" stroke-linecap="round" stroke-linejoin="round"/>
    <path d="M 65.83849334716797 129.0497283935547 C 47.446659088134766 163.39547729492188 49.69849395751953 148.49563598632812 66.85472106933594 123.44568634033203 C 82.727783203125 83.9365005493164 89.55189514160156 73.4354019165039 61.58001708984375 113.28065490722656" stroke-width="2.0" fill="none" stroke="rgb(0, 0, 0)" stroke-opacity="1" stroke-linecap="round" stroke-linejoin="round"/>
    <path d="M 182.54275512695312 201.92869567871094 C 181.59432983398438 217.70074462890625 170.62689208984375 208.8040313720703 179.93028259277344 205.0172576904297" stroke-width="2.0" fill="none" stroke="rgb(0, 0, 0)" stroke-opacity="1" stroke-linecap="round" stroke-linejoin="round"/>
    <path d="M 140.59852600097656 217.1312713623047 C 126.22555541992188 227.37222290039062 155.14073181152344 214.49058532714844 166.94747924804688 189.05636596679688" stroke-width="2.0" fill="none" stroke="rgb(0, 0, 0)" stroke-opacity="1" stroke-linecap="round" stroke-linejoin="round"/>
    <path d="M 14.407147407531738 197.11520385742188 C 55.92134094238281 189.6163330078125 62.38759994506836 189.58865356445312 32.88108444213867 208.04647827148438 C 51.390926361083984 186.6077423095703 54.559085845947266 193.19461059570312 54.349300384521484 206.08795166015625 C 41.225738525390625 155.67308044433594 49.789676666259766 184.2101287841797 70.716064453125 207.72451782226562" stroke-width="2.0" fill="none" stroke="rgb(0, 0, 0)" stroke-opacity="1" stroke-linecap="round" stroke-linejoin="round"/>
    <path d="M 156.44512939453125 46.34177780151367 C 151.0760955810547 62.126190185546875 148.29940795898438 60.5447998046875 132.73851013183594 78.56317138671875 C 154.34791564941406 66.16374969482422 147.00636291503906 70.2939682006836 144.5649871826172 82.01876831054688" stroke-width="2.0" fill="none" stroke="rgb(0, 0, 0)" stroke-opacity="1" stroke-linecap="round" stroke-linejoin="round"/>
    <path d="M 70.83428192138672 89.62193298339844 C 98.46537017822266 95.327880859375 82.61907958984375 80.42476654052734 79.4844970703125 107.42259979248047" stroke-width="2.0" fill="none" stroke="rgb(0, 0, 0)" stroke-opacity="1" stroke-linecap="round" stroke-linejoin="round"/>
    <path d="M 26.227317810058594 70.68806457519531 C 7.625548839569092 55.88230895996094 8.664494514465332 67.33345031738281 12.399110794067383 61.647918701171875" stroke-width="2.0" fill="none" stroke="rgb(0, 0, 0)" stroke-opacity="1" stroke-linecap="round" stroke-linejoin="round"/>
    <path d="M 22.79392433166504 188.83468627929688 C 42.72264862060547 187.78282165527344 58.88029861450195 188.75820922851562 41.21244430541992 203.2733612060547 C 2.0740885734558105 224.56396484375 -29.735937118530273 228.84547424316406 37.67198181152344 203.0054473876953" stroke-width="2.0" fill="none" stroke="rgb(0, 0, 0)" stroke-opacity="1" stroke-linecap="round" stroke-linejoin="round"/>
    <path d="M 6.866771221160889 61.06306457519531 C 46.077354431152344 20.0750789642334 51.48324203491211 12.415996551513672 40.80523681640625 25.086219787597656 C 69.46884155273438 33.1470947265625 43.401832580566406 41.551551818847656 55.18143844604492 0.02442900836467743" stroke-width="2.0" fill="none" stroke="rgb(0, 0, 0)" stroke-opacity="1" stroke-linecap="round" stroke-linejoin="round"/>
    <path d="M -4.61911678314209 97.43462371826172 C 26.197704315185547 79.74065399169922 17.882347106933594 72.1541976928711 19.27790641784668 88.0839614868164 C 7.869454383850098 63.074737548828125 11.837242126464844 87.26425170898438 25.30832290649414 104.92047119140625 C 20.39029312133789 89.66333770751953 18.770790100097656 97.93499755859375 14.796808242797852 86.35121154785156" stroke-width="2.0" fill="none" stroke="rgb(0, 0, 0)" stroke-opacity="1" stroke-linecap="round" stroke-linejoin="round"/>
    <path d="M 43.505611419677734 166.45303344726562 C 41.600196838378906 195.2794189453125 59.67048645019531 191.8104705810547 56.592811584472656 212.23838806152344" stroke-width="2.0" fill="none" stroke="rgb(0, 0, 0)" stroke-opacity="1" stroke-linecap="round" stroke-linejoin="round"/>
    <path d="M 40.386226654052734 125.03092193603516 C 27.170623779296875 123.95258331298828 56.913909912109375 112.40756225585938 75.5857162475586 93.60122680664062 C 57.3479118347168 127.25791931152344 59.5770263671875 116.70796203613281 75.70252990722656 97.71613311767578" stroke-width="2.0" fill="none" stroke="rgb(0, 0, 0)" stroke-opacity="1" stroke-linecap="round" stroke-linejoin="round"/>
    <path d="M 41.74385452270508 154.86282348632812 C 51.1080322265625 215.55038452148438 62.07366943359375 193.7047119140625 54.297393798828125 193.4000701904297 C 49.05251693725586 182.1027069091797 47.96162796020508 181.4901123046875 56.87986373901367 193.8507537841797 C -40.56137466430664 185.10562133789062 11.7507963180542 194.11892700195312 24.493770599365234 171.97711181640625" stroke-width="2.0" fill="none" stroke="rgb(0, 0, 0)" stroke-opacity="1" stroke-linecap="round" stroke-linejoin="round"/>
    <path d="M -1.634787678718567 177.98211669921875 C 35.771671295166016 159.90269470214844 35.02474594116211 134.99070739746094 63.59844207763672 140.87696838378906 C 32.36771011352539 154.09129333496094 41.19776153564453 173.39437866210938 51.53318786621094 140.59854125976562 C 29.599273681640625 163.2557830810547 26.253599166870117 188.54122924804688 8.061738967895508 184.91311645507812" stroke-width="2.0" fill="none" stroke="rgb(0, 0, 0)" stroke-opacity="1" stroke-linecap="round" stroke-linejoin="round"/>
    <path d="M 47.01555252075195 34.34976577758789 C 66.5820541381836 42.7536735534668 49.17277145385742 18.41356086730957 20.92713165283203 26.521499633789062" stroke-width="2.0" fill="none" stroke="rgb(0, 0, 0)" stroke-opacity="1" stroke-linecap="round" stroke-linejoin="round"/>
    <path d="M 186.21006774902344 85.07653045654297 C 157.8785858154297 82.63506317138672 130.5941162109375 73.16246795654297 187.18215942382812 76.8705825805664" stroke-width="2.0" fill="none" stroke="rgb(0, 0, 0)" stroke-opacity="1" stroke-linecap="round" stroke-linejoin="round"/>
    <path d="M 151.74139404296875 185.41128540039062 C 132.7874298095703 142.75442504882812 109.27364349365234 114.231689453125 127.04373931884766 132.8910369873047" stroke-width="2.0" fill="none" stroke="rgb(0, 0, 0)" stroke-opacity="1" stroke-linecap="round" stroke-linejoin="round"/>
    <path d="M 35.29347229003906 72.04039764404297 C 17.995431900024414 65.95624542236328 35.901302337646484 72.22266387939453 27.659006118774414 67.76256561279297 C 55.59372329711914 73.04112243652344 29.752338409423828 67.8570785522461 11.46989631652832 59.096160888671875 C 35.973121643066406 42.36473846435547 42.335636138916016 22.243419647216797 44.80272674560547 24.524824142456055" stroke-width="2.0" fill="none" stroke="rgb(0, 0, 0)" stroke-opacity="1" stroke-linecap="round" stroke-linejoin="round"/>
    <path d="M 41.63771438598633 189.61485290527344 C -13.640305519104004 187.19578552246094 -13.068495750427246 179.0871124267578 -11.785904884338379 182.26919555664062" stroke-width="2.0" fill="none" stroke="rgb(0, 0, 0)" stroke-opacity="1" stroke-linecap="round" stroke-linejoin="round"/>
    <path d="M 166.80934143066406 190.44618225097656 C 178.57421875 218.13894653320312 176.37542724609375 182.85565185546875 160.08990478515625 201.97593688964844" stroke-width="2.0" fill="none" stroke="rgb(0, 0, 0)" stroke-opacity="1" stroke-linecap="round" stroke-linejoin="round"/>
    <path d="M 56.72267150878906 11.322468757629395 C 42.45928192138672 29.041126251220703 83.20124816894531 36.915199279785156 84.25749206542969 34.290618896484375 C 48.2932014465332 19.53371810913086 55.42952346801758 31.593181610107422 88.43592834472656 6.0789899826049805" stroke-width="2.0" fill="none" stroke="rgb(0, 0, 0)" stroke-opacity="1" stroke-linecap="round" stroke-linejoin="round"/>
    <path d="M 176.87991333007812 92.94651794433594 C 164.89756774902344 105.22145080566406 155.5494842529297 84.61260223388672 167.0924072265625 117.10934448242188" stroke-width="2.0" fill="none" stroke="rgb(0, 0, 0)" stroke-opacity="1" stroke-linecap="round" stroke-linejoin="round"/>
    <path d="M 100.27249145507812 196.422607421875 C 111.81190490722656 166.94204711914062 100.81016540527344 191.46688842773438 116.78382873535156 192.528564453125" stroke-width="2.0" fill="none" stroke="rgb(0, 0, 0)" stroke-opacity="1" stroke-linecap="round" stroke-linejoin="round"/>
    <path d="M 172.4972381591797 41.77389907836914 C 189.72265625 26.84122085571289 191.51011657714844 -13.998736381530762 184.277099609375 0.8477253913879395 C 168.67144775390625 5.345188140869141 192.75967407226562 23.726184844970703 194.39309692382812 0.5504952073097229 C 158.86776733398438 26.651317596435547 146.083984375 1.780395269393921 185.55169677734375 12.064992904663086" stroke-width="2.0" fill="none" stroke="rgb(0, 0, 0)" stroke-opacity="1" stroke-linecap="round" stroke-linejoin="round"/>
    <path d="M 116.08599090576172 28.649009704589844 C 115.08132934570312 35.75236511230469 118.13392639160156 32.092796325683594 173.37547302246094 12.23328685760498" stroke-width="2.0" fill="none" stroke="rgb(0, 0, 0)" stroke-opacity="1" stroke-linecap="round" stroke-linejoin="round"/>
    <path d="M 82.79348754882812 87.08615112304688 C 63.58595275878906 144.1509246826172 64.54022979736328 141.88046264648438 73.30914306640625 112.4889907836914" stroke-width="2.0" fill="none" stroke="rgb(0, 0, 0)" stroke-opacity="1" stroke-linecap="round" stroke-linejoin="round"/>
    <path d="M 29.874940872192383 166.55679321289062 C 36.33171081542969 128.61822509765625 75.23573303222656 139.0303497314453 25.176612854003906 135.3777313232422 C 66.87850189208984 128.0593719482422 53.537322998046875 150.42337036132812 47.05297088623047 154.83819580078125 C 69.56100463867188 189.4799041748047 50.57543182373047 199.01100158691406 50.2264518737793 142.21266174316406" stroke-width="2.0" fill="none" stroke="rgb(0, 0, 0)" stroke-opacity="1" stroke-linecap="round" stroke-linejoin="round"/>
    <path d="M 153.97532653808594 92.65741729736328 C 148.878662109375 86.55982208251953 146.9435577392578 78.90571594238281 150.4546356201172 80.7900619506836 C 146.9472198486328 82.82003784179688 154.7355194091797 77.4506607055664 150.35125732421875 81.55052947998047" stroke-width="2.0" fill="none" stroke="rgb(0, 0, 0)" stroke-opacity="1" stroke-linecap="round" stroke-linejoin="round"/>
    <path d="M 32.10628890991211 -6.227231025695801 C 18.990550994873047 -3.4266393184661865 5.2584381103515625 -4.068775653839111 20.543842315673828 -9.1779146194458" stroke-width="2.0" fill="none" stroke="rgb(0, 0, 0)" stroke-opacity="1" stroke-linecap="round" stroke-linejoin="round"/>
    <path d="M 174.4833526611328 -4.427149772644043 C 181.63308715820312 -14.539307594299316 179.8231201171875 -6.245865345001221 189.7410888671875 9.238724708557129 C 198.2249755859375 -7.5911383628845215 180.3585205078125 -3.1056880950927734 212.0515594482422 -7.026774883270264" stroke-width="2.0" fill="none" stroke="rgb(0, 0, 0)" stroke-opacity="1" stroke-linecap="round" stroke-linejoin="round"/>
    <path d="M 101.25550079345703 180.40052795410156 C 96.81459045410156 204.68899536132812 77.54325866699219 210.95692443847656 107.91836547851562 207.96356201171875 C 132.66429138183594 215.57443237304688 137.8854522705078 211.69863891601562 115.0163803100586 185.6705322265625 C 163.42910766601562 200.00149536132812 171.0172882080078 183.4685821533203 159.16958618164062 196.82212829589844" stroke-width="2.0" fill="none" stroke="rgb(0, 0, 0)" stroke-opacity="1" stroke-linecap="round" stroke-linejoin="round"/>
    <path d="M 123.69798278808594 16.093225479125977 C 181.6597442626953 10.951709747314453 174.98934936523438 10.095932960510254 147.24623107910156 25.69254493713379" stroke-width="2.0" fill="none" stroke="rgb(0, 0, 0)" stroke-opacity="1" stroke-linecap="round" stroke-linejoin="round"/>
    <path d="M 154.74871826171875 175.4308624267578 C 143.33389282226562 195.82745361328125 140.1759490966797 177.91162109375 161.59703063964844 185.2044219970703 C 159.35365295410156 172.6606903076172 135.60540771484375 162.4564971923828 131.4140167236328 143.33465576171875 C 155.30853271484375 152.4328155517578 147.02456665039062 142.04962158203125 134.22802734375 124.064697265625" stroke-width="2.0" fill="none" stroke="rgb(0, 0, 0)" stroke-opacity="1" stroke-linecap="round" stroke-linejoin="round"/>
    <path d="M 11.027583122253418 18.19896125793457 C 71.75959777832031 2.842625141143799 68.4501953125 4.593103885650635 28.855979919433594 -8.676228523254395" stroke-width="2.0" fill="none" stroke="rgb(0, 0, 0)" stroke-opacity="1" stroke-linecap="round" stroke-linejoin="round"/>
    <path d="M 43.92906188964844 137.3533935546875 C 40.95043182373047 143.33599853515625 8.77524471282959 139.20574951171875 -0.9465158581733704 121.54063415527344 C -0.8757331967353821 137.65892028808594 23.219497680664062 127.42720794677734 22.01898193359375 142.1576690673828" stroke-width="2.0" fill="none" stroke="rgb(0, 0, 0)" stroke-opacity="1" stroke-linecap="round" stroke-linejoin="round"/>
    <path d="M 36.72207260131836 200.9142303466797 C 17.1361141204834 207.16397094726562 32.159263610839844 198.0877685546875 37.380733489990234 201.76817321777344" stroke-width="2.0" fill="none" stroke="rgb(0, 0, 0)" stroke-opacity="1" stroke-linecap="round" stroke-linejoin="round"/>
    <path d="M 172.5386199951172 182.3378448486328 C 198.1302490234375 165.1381378173828 199.10935974121094 152.89024353027344 170.85394287109375 179.5392303466797" stroke-width="2.0" fill="none" stroke="rgb(0, 0, 0)" stroke-opacity="1" stroke-linecap="round" stroke-linejoin="round"/>
    <path d="M 102.80977630615234 174.61068725585938 C 95.98481750488281 187.8617401123047 147.0972137451172 192.89401245117188 133.8849639892578 215.0142059326172 C 127.01596069335938 179.47454833984375 97.29379272460938 183.4807586669922 143.3793487548828 182.3301239013672" stroke-width="2.0" fill="none" stroke="rgb(0, 0, 0)" stroke-opacity="1" stroke-linecap="round" stroke-linejoin="round"/>
    <path d="M 61.95038986206055 144.9587860107422 C 16.030536651611328 113.91407012939453 21.222949981689453 105.82117462158203 62.726966857910156 137.9331817626953" stroke-width="2.0" fill="none" stroke="rgb(0, 0, 0)" stroke-opacity="1" stroke-linecap="round" stroke-linejoin="round"/>
    <path d="M 168.1656951904297 122.44605255126953 C 179.6012725830078 101.752197265625 152.5808563232422 92.49783325195312 176.8314208984375 118.3048095703125 C 195.47927856445312 131.31101989746094 180.9272918701172 130.95628356933594 171.05575561523438 110.18731689453125" stroke-width="2.0" fill="none" stroke="rgb(0, 0, 0)" stroke-opacity="1" stroke-linecap="round" stroke-linejoin="round"/>
    <path d="M 130.7626495361328 156.542236328125 C 138.66159057617188 126.9228515625 141.94747924804688 147.39222717285156 109.47093200683594 133.4258575439453" stroke-width="2.0" fill="none" stroke="rgb(0, 0, 0)" stroke-opacity="1" stroke-linecap="round" stroke-linejoin="round"/>
    <path d="M 50.807559967041016 28.768035888671875 C 43.275089263916016 68.54672241210938 43.78580856323242 45.759681701660156 48.056793212890625 26.761194229125977" stroke-width="2.0" fill="none" stroke="rgb(0, 0, 0)" stroke-opacity="1" stroke-linecap="round" stroke-linejoin="round"/>
    <path d="M 186.8485565185547 202.94802856445312 C 157.0865478515625 168.24691772460938 147.1497802734375 156.1741485595703 173.75856018066406 175.3531036376953" stroke-width="2.0" fill="none" stroke="rgb(0, 0, 0)" stroke-opacity="1" stroke-linecap="round" stroke-linejoin="round"/>
    <path d="M -4.759581565856934 198.92196655273438 C -7.814189910888672 174.515380859375 -4.550134658813477 181.45639038085938 -11.182524681091309 179.73619079589844 C -12.732880592346191 181.5818328857422 -4.825654029846191 188.55642700195312 19.24495506286621 176.76171875 C 32.318721771240234 154.3061065673828 41.34101104736328 170.3348388671875 0.9873700141906738 189.12713623046875" stroke-width="2.0" fill="none" stroke="rgb(0, 0, 0)" stroke-opacity="1" stroke-linecap="round" stroke-linejoin="round"/>
    <path d="M 88.29036712646484 226.30255126953125 C 91.2622299194336 230.8469696044922 83.43619537353516 251.5652618408203 116.47721099853516 230.31044006347656 C 148.8091583251953 212.1127471923828 138.2787628173828 228.5848846435547 84.39891815185547 229.63427734375" stroke-width="2.0" fill="none" stroke="rgb(0, 0, 0)" stroke-opacity="1" stroke-linecap="round" stroke-linejoin="round"/>
    <path d="M 231.5536651611328 78.23368835449219 C 220.34182739257812 56.91509246826172 203.72805786132812 50.509666442871094 197.0767364501953 69.71527099609375 C 194.7604217529297 73.59386444091797 205.10488891601562 88.35527038574219 190.66909790039062 82.9899673461914 C 205.6375274658203 50.66413116455078 204.2444610595703 96.18263244628906 161.7491455078125 82.37390899658203" stroke-width="2.0" fill="none" stroke="rgb(0, 0, 0)" stroke-opacity="1" stroke-linecap="round" stroke-linejoin="round"/>
    <path d="M 148.21946716308594 209.41661071777344 C 156.3153076171875 200.45382690429688 158.52915954589844 207.1811065673828 125.50345611572266 213.43807983398438 C 174.0827178955078 206.9615936279297 152.6992950439453 217.09292602539062 117.59441375732422 225.8924560546875 C 148.60601806640625 226.47093200683594 151.37564086914062 229.5285186767578 131.24093627929688 230.59823608398438" stroke-width="2.0" fill="none" stroke="rgb(0, 0, 0)" stroke-opacity="1" stroke-linecap="round" stroke-linejoin="round"/>
    <path d="M 68.2784423828125 163.11427307128906 C 52.35547637939453 151.79515075683594 53.91281509399414 173.938232421875 88.56880187988281 154.17564392089844" stroke-width="2.0" fill="none" stroke="rgb(0, 0, 0)" stroke-opacity="1" stroke-linecap="round" stroke-linejoin="round"/>
    <path d="M 97.68448638916016 51.91357421875 C 110.95320129394531 23.096317291259766 92.34752655029297 45.63441467285156 99.4521484375 39.14387893676758 C 102.52787780761719 17.918344497680664 112.88663482666016 46.34878921508789 93.39173889160156 59.216590881347656" stroke-width="2.0" fill="none" stroke="rgb(0, 0, 0)" stroke-opacity="1" stroke-linecap="round" stroke-linejoin="round"/>
    <path d="M 197.03468322753906 124.24134826660156 C 216.37635803222656 130.80416870117188 186.16664123535156 126.9497299194336 183.93798828125 116.51888275146484" stroke-width="2.0" fill="none" stroke="rgb(0, 0, 0)" stroke-opacity="1" stroke-linecap="round" stroke-linejoin="round"/>
    <path d="M 26.816001892089844 110.35131072998047 C 28.693565368652344 137.0899200439453 67.3602294921875 143.1551513671875 45.879791259765625 132.99191284179688" stroke-width="2.0" fill="none" stroke="rgb(0, 0, 0)" stroke-opacity="1" stroke-linecap="round" stroke-linejoin="round"/>
    <path d="M 142.1551971435547 92.35206604003906 C 111.65343475341797 131.7289581298828 127.21269226074219 106.22420501708984 137.42820739746094 89.60264587402344" stroke-width="2.0" fill="none" stroke="rgb(0, 0, 0)" stroke-opacity="1" stroke-linecap="round" stroke-linejoin="round"/>
    <path d="M 162.9844512939453 93.19950866699219 C 183.92022705078125 103.59579467773438 156.8699188232422 72.37751007080078 138.58909606933594 80.5363540649414 C 140.059814453125 68.04994201660156 131.06922912597656 77.302978515625 158.1164093017578 96.75312042236328 C 143.07408142089844 69.88726043701172 124.57499694824219 79.68798828125 143.77734375 79.74766540527344" stroke-width="2.0" fill="none" stroke="rgb(0, 0, 0)" stroke-opacity="1" stroke-linecap="round" stroke-linejoin="round"/>
    <path d="M 99.52947998046875 89.78514099121094 C 105.88671875 103.09451293945312 115.71932220458984 77.38147735595703 125.50090026855469 70.08844757080078 C 99.3883056640625 95.26190185546875 88.30099487304688 105.3571548461914 120.6943588256836 91.388916015625 C 126.33515167236328 95.42800903320312 107.10791778564453 115.24927520751953 87.13825225830078 108.69346618652344" stroke-width="2.0" fill="none" stroke="rgb(0, 0, 0)" stroke-opacity="1" stroke-linecap="round" stroke-linejoin="round"/>
    <path d="M 167.68283081054688 146.4761199951172 C 153.2366943359375 149.12026977539062 118.09207916259766 148.360595703125 143.31370544433594 155.90867614746094 C 130.2939453125 164.69827270507812 128.04244995117188 139.5299072265625 153.51791381835938 177.3845977783203 C 145.21275329589844 190.92144775390625 171.47579956054688 179.30908203125 151.3455047607422 188.56356811523438" stroke-width="2.0" fill="none" stroke="rgb(0, 0, 0)" stroke-opacity="1" stroke-linecap="round" stroke-linejoin="round"/>
    <path d="M 227.29519653320312 118.66834259033203 C 229.1202392578125 129.91094970703125 234.9229736328125 138.85580444335938 233.75962829589844 130.37118530273438 C 231.13328552246094 126.25189971923828 239.667724609375 119.2829818725586 249.01548767089844 121.5223388671875" stroke-width="2.0" fill="none" stroke="rgb(0, 0, 0)" stroke-opacity="1" stroke-linecap="round" stroke-linejoin="round"/>
    <path d="M 192.0286865234375 5.059963703155518 C 179.0774688720703 24.091405868530273 198.77976989746094 9.284469604492188 188.06842041015625 -6.685469627380371" stroke-width="2.0" fill="none" stroke="rgb(0, 0, 0)" stroke-opacity="1" stroke-linecap="round" stroke-linejoin="round"/>
    <path d="M 100.59951782226562 152.83204650878906 C 112.14995574951172 126.75057983398438 118.97217559814453 133.9296417236328 94.57632446289062 158.71160888671875" stroke-width="2.0" fill="none" stroke="rgb(0, 0, 0)" stroke-opacity="1" stroke-linecap="round" stroke-linejoin="round"/>
    <path d="M 106.87105560302734 20.477943420410156 C 110.82701873779297 36.04981994628906 100.85572052001953 30.271953582763672 47.37997055053711 15.385498046875 C 52.95337677001953 9.992057800292969 69.63492584228516 24.008426666259766 112.51881408691406 26.08475112915039 C 108.0813217163086 8.884151458740234 117.67115020751953 43.562862396240234 69.00128936767578 35.47947311401367" stroke-width="2.0" fill="none" stroke="rgb(0, 0, 0)" stroke-opacity="1" stroke-linecap="round" stroke-linejoin="round"/>
    <path d="M 165.11582946777344 190.68313598632812 C 123.85317993164062 185.5463104248047 110.04197692871094 188.8970489501953 164.52899169921875 198.3085174560547 C 149.74375915527344 154.6050567626953 140.52865600585938 149.38658142089844 161.16307067871094 183.09495544433594 C 84.83438110351562 160.85719299316406 104.31964111328125 164.42433166503906 160.133544921875 186.15328979492188" stroke-width="2.0" fill="none" stroke="rgb(0, 0, 0)" stroke-opacity="1" stroke-linecap="round" stroke-linejoin="round"/>
    <path d="M 90.42115783691406 60.25629425048828 C 111.78588104248047 114.00848388671875 85.21326446533203 43.86395263671875 98.2515640258789 70.22293090820312 C 91.4500961303711 32.88535690307617 101.13484191894531 43.7419548034668 73.63494110107422 59.404632568359375" stroke-width="2.0" fill="none" stroke="rgb(0, 0, 0)" stroke-opacity="1" stroke-linecap="round" stroke-linejoin="round"/>
    <path d="M 150.0525360107422 141.44627380371094 C 125.1883773803711 115.90702819824219 92.18684387207031 122.19902801513672 166.24307250976562 139.17674255371094 C 125.5351791381836 119.13700866699219 112.07908630371094 128.54579162597656 116.0196304321289 119.9422378540039 C 109.04713439941406 125.9648208618164 116.03180694580078 130.6544189453125 132.72267150878906 104.78448486328125" stroke-width="2.0" fill="none" stroke="rgb(0, 0, 0)" stroke-opacity="1" stroke-linecap="round" stroke-linejoin="round"/>
    <path d="M -3.404543876647949 136.38775634765625 C -6.763908386230469 135.12774658203125 -19.863779067993164 126.81022644042969 4.437071323394775 129.65936279296875 C -12.14303970336914 119.6393814086914 -6.655097961425781 129.5749053955078 -10.965925216674805 132.6175994873047 C -5.2360310554504395 119.57469940185547 -13.404301643371582 124.4732894897461 -13.9461669921875 129.85345458984375" stroke-width="2.0" fill="none" stroke="rgb(0, 0, 0)" stroke-opacity="1" stroke-linecap="round" stroke-linejoin="round"/>
    <path d="M 232.0946502685547 142.43479919433594 C 207.38221740722656 142.33201599121094 245.9077606201172 149.79812622070312 211.42945861816406 132.50245666503906" stroke-width="2.0" fill="none" stroke="rgb(0, 0, 0)" stroke-opacity="1" stroke-linecap="round" stroke-linejoin="round"/>
    <path d="M 190.4418182373047 7.964783191680908 C 184.4645538330078 50.867374420166016 156.7494659423828 51.4791259765625 181.1134033203125 26.59665870666504 C 174.76918029785156 42.071197509765625 178.40097045898438 18.830890655517578 162.02955627441406 39.321983337402344 C 168.2096405029297 34.313385009765625 190.56541442871094 18.348493576049805 172.2144317626953 23.56741714477539" stroke-width="2.0" fill="none" stroke="rgb(0, 0, 0)" stroke-opacity="1" stroke-linecap="round" stroke-linejoin="round"/>
    <path d="M 74.71360778808594 80.48560333251953 C 33.72714614868164 64.17337036132812 3.404609441757202 69.83367919921875 71.72319030761719 79.94514465332031 C 45.235198974609375 72.4053955078125 11.416961669921875 60.81778335571289 27.995010375976562 71.8626480102539 C 4.605250835418701 70.15673828125 -2.1555585861206055 57.3885383605957 27.058279037475586 73.42208862304688" stroke-width="2.0" fill="none" stroke="rgb(0, 0, 0)" stroke-opacity="1" stroke-linecap="round" stroke-linejoin="round"/>
    <path d="M 227.6598358154297 168.6326904296875 C 227.8910369873047 193.64186096191406 220.07798767089844 186.3537139892578 182.45040893554688 187.5117645263672 C 230.8909912109375 184.3944091796875 226.6463623046875 188.210205078125 211.38731384277344 150.01023864746094 C 220.49465942382812 189.98086547851562 223.8948516845703 169.21710205078125 200.09408569335938 126.0137710571289" stroke-width="2.0" fill="none" stroke="rgb(0, 0, 0)" stroke-opacity="1" stroke-linecap="round" stroke-linejoin="round"/>
    <path d="M 37.3505859375 165.49639892578125 C 42.081729888916016 155.48875427246094 47.911376953125 141.20594787597656 38.53968048095703 154.73046875" stroke-width="2.0" fill="none" stroke="rgb(0, 0, 0)" stroke-opacity="1" stroke-linecap="round" stroke-linejoin="round"/>
    <path d="M 183.07289123535156 144.67185974121094 C 132.32460021972656 165.30001831054688 159.91221618652344 151.5171356201172 191.73268127441406 168.20028686523438 C 139.11598205566406 155.50172424316406 165.12994384765625 153.77342224121094 164.7334442138672 151.4827423095703 C 182.27137756347656 146.35716247558594 166.79522705078125 145.5293731689453 135.0728302001953 150.3231964111328" stroke-width="2.0" fill="none" stroke="rgb(0, 0, 0)" stroke-opacity="1" stroke-linecap="round" stroke-linejoin="round"/>
    <path d="M 187.4270782470703 183.87799072265625 C 182.14816284179688 154.87757873535156 192.31700134277344 183.58197021484375 186.91404724121094 168.15330505371094 C 173.21102905273438 193.12091064453125 187.14578247070312 221.355224609375 172.8350067138672 199.03195190429688" stroke-width="2.0" fill="none" stroke="rgb(0, 0, 0)" stroke-opacity="1" stroke-linecap="round" stroke-linejoin="round"/>
    <path d="M 53.02911376953125 198.34518432617188 C 57.685604095458984 200.9573516845703 63.05238342285156 212.06619262695312 71.1534652709961 212.87350463867188 C 58.83321762084961 196.90431213378906 84.99127960205078 215.57687377929688 91.96686553955078 215.01084899902344" stroke-width="2.0" fill="none" stroke="rgb(0, 0, 0)" stroke-opacity="1" stroke-linecap="round" stroke-linejoin="round"/>
    <path d="M 91.18095397949219 91.41682434082031 C 80.01460266113281 126.69448852539062 87.93539428710938 105.35210418701172 90.70760345458984 104.3967056274414 C 103.39634704589844 117.61161041259766 95.45589447021484 119.42315673828125 83.88945007324219 56.99887466430664" stroke-width="2.0" fill="none" stroke="rgb(0, 0, 0)" stroke-opacity="1" stroke-linecap="round" stroke-linejoin="round"/>
    <path d="M 50.02425765991211 78.36569213867188 C 69.35272216796875 79.72335815429688 43.03570556640625 61.80289840698242 45.13996505737305 29.37628173828125 C 48.62688446044922 56.11719512939453 64.14788818359375 75.20279693603516 67.9112548828125 84.62500762939453 C 39.82758712768555 77.68773651123047 57.000732421875 79.45664978027344 59.68809127807617 79.2137222290039" stroke-width="2.0" fill="none" stroke="rgb(0, 0, 0)" stroke-opacity="1" stroke-linecap="round" stroke-linejoin="round"/>
    <path d="M 86.91291809082031 84.51776123046875 C 80.96527862548828 108.65351867675781 77.85001373291016 122.24996948242188 90.40901947021484 123.94063568115234 C 73.53839111328125 102.29765319824219 81.48999786376953 108.23841857910156 117.01221466064453 134.94837951660156" stroke-width="2.0" fill="none" stroke="rgb(0, 0, 0)" stroke-opacity="1" stroke-linecap="round" stroke-linejoin="round"/>
    <path d="M 202.22406005859375 227.96173095703125 C 217.18873596191406 229.1077880859375 217.12684631347656 226.7043914794922 207.40655517578125 237.14451599121094 C 194.80123901367188 239.0088348388672 187.48977661132812 248.9921875 184.24612426757812 254.78866577148438" stroke-width="2.0" fill="none" stroke="rgb(0, 0, 0)" stroke-opacity="1" stroke-linecap="round" stroke-linejoin="round"/>
    <path d="M 124.45243835449219 138.12060546875 C 94.79694366455078 112.850341796875 77.41632843017578 102.31253051757812 86.400146484375 120.8093032836914 C 117.50965881347656 145.3794403076172 145.8705291748047 142.56631469726562 128.2903289794922 137.89651489257812 C 141.08885192871094 181.79779052734375 160.7798309326172 202.07054138183594 135.7537841796875 157.71566772460938" stroke-width="2.0" fill="none" stroke="rgb(0, 0, 0)" stroke-opacity="1" stroke-linecap="round" stroke-linejoin="round"/>
    <path d="M 159.88934326171875 226.14527893066406 C 214.7906951904297 225.66973876953125 213.42379760742188 212.97488403320312 228.45440673828125 186.99949645996094 C 209.0261993408203 240.4221649169922 213.08749389648438 207.1080322265625 228.8789520263672 182.4847412109375 C 231.47242736816406 201.82492065429688 221.62820434570312 196.0296173095703 232.55125427246094 186.61581420898438" stroke-width="2.0" fill="none" stroke="rgb(0, 0, 0)" stroke-opacity="1" stroke-linecap="round" stroke-linejoin="round"/>
    <path d="M 201.44606018066406 234.74134826660156 C 199.19802856445312 226.02777099609375 219.04843139648438 239.21566772460938 206.22244262695312 227.79518127441406 C 182.04669189453125 236.5166015625 210.93504333496094 214.31983947753906 214.2067413330078 226.7898406982422" stroke-width="2.0" fill="none" stroke="rgb(0, 0, 0)" stroke-opacity="1" stroke-linecap="round" stroke-linejoin="round"/>
    <path d="M 113.2728042602539 185.06298828125 C 109.30220031738281 192.56295776367188 117.76161193847656 192.01611328125 119.27529907226562 183.4076690673828" stroke-width="2.0" fill="none" stroke="rgb(0, 0, 0)" stroke-opacity="1" stroke-linecap="round" stroke-linejoin="round"/>
    <path d="M 169.65037536621094 139.43251037597656 C 189.42898559570312 124.7032470703125 196.45216369628906 162.76756286621094 159.17950439453125 148.29811096191406 C 207.0100555419922 144.15023803710938 185.33628845214844 139.08642578125 184.23301696777344 118.4384536743164" stroke-width="2.0" fill="none" stroke="rgb(0, 0, 0)" stroke-opacity="1" stroke-linecap="round" stroke-linejoin="round"/>
    <path d="M -13.921245574951172 186.22341918945312 C -3.349226236343384 184.2183380126953 2.9752323627471924 182.635498046875 27.243894577026367 162.10157775878906 C 25.88218879699707 158.55215454101562 9.414844512939453 174.9432830810547 40.67497634887695 150.80142211914062" stroke-width="2.0" fill="none" stroke="rgb(0, 0, 0)" stroke-opacity="1" stroke-linecap="round" stroke-linejoin="round"/>
    <path d="M 219.31214904785156 125.74065399169922 C 188.1449432373047 104.98987579345703 172.31729125976562 103.16344451904297 167.3118133544922 106.7271728515625" stroke-width="2.0" fill="none" stroke="rgb(0, 0, 0)" stroke-opacity="1" stroke-linecap="round" stroke-linejoin="round"/>
    <path d="M 145.85707092285156 77.64722442626953 C 153.31919860839844 92.08566284179688 156.65481567382812 74.37509155273438 142.5138702392578 77.0867919921875 C 146.65170288085938 82.10737609863281 150.85275268554688 89.94811248779297 135.28933715820312 112.32440185546875" stroke-width="2.0" fill="none" stroke="rgb(0, 0, 0)" stroke-opacity="1" stroke-linecap="round" stroke-linejoin="round"/>
    <path d="M 36.80028533935547 152.936767578125 C 21.222640991210938 176.17843627929688 9.033421516418457 180.13540649414062 7.19883394241333 189.39328002929688" stroke-width="2.0" fill="none" stroke="rgb(0, 0, 0)" stroke-opacity="1" stroke-linecap="round" stroke-linejoin="round"/>
    <path d="M 105.96200561523438 33.281585693359375 C 88.037109375 66.55216217041016 70.15288543701172 82.12030029296875 100.13176727294922 37.52861404418945" stroke-width="2.0" fill="none" stroke="rgb(0, 0, 0)" stroke-opacity="1" stroke-linecap="round" stroke-linejoin="round"/>
    <path d="M 151.6354522705078 172.5948486328125 C 138.8667449951172 147.20816040039062 129.0248260498047 142.85211181640625 134.51063537597656 140.1925811767578 C 129.75929260253906 150.25778198242188 150.82815551757812 158.15081787109375 171.42367553710938 170.14627075195312 C 162.18255615234375 177.89036560058594 162.51910400390625 183.67153930664062 184.04200744628906 164.51417541503906" stroke-width="2.0" fill="none" stroke="rgb(0, 0, 0)" stroke-opacity="1" stroke-linecap="round" stroke-linejoin="round"/>
    <path d="M 81.76766967773438 83.24626159667969 C 49.37930679321289 113.15882873535156 35.59182357788086 120.4761734008789 30.870389938354492 119.59813690185547 C 24.36630630493164 99.5380859375 15.525765419006348 90.02310180664062 24.81599998474121 104.83580780029297" stroke-width="2.0" fill="none" stroke="rgb(0, 0, 0)" stroke-opacity="1" stroke-linecap="round" stroke-linejoin="round"/>
    <path d="M 135.8821563720703 145.89479064941406 C 125.09937286376953 160.74864196777344 172.51187133789062 156.82369995117188 187.7030792236328 143.8173828125 C 179.25479125976562 163.87925720214844 142.86293029785156 161.45599365234375 136.86581420898438 148.21759033203125 C 126.55663299560547 170.00946044921875 144.6262969970703 158.37074279785156 182.95460510253906 151.25607299804688" stroke-width="2.0" fill="none" stroke="rgb(0, 0, 0)" stroke-opacity="1" stroke-linecap="round" stroke-linejoin="round"/>
    <path d="M 143.41903686523438 179.1552276611328 C 81.87480926513672 185.87913513183594 116.72405242919922 184.16683959960938 109.1414794921875 180.20545959472656 C 87.45541381835938 209.08863830566406 102.57303619384766 206.61709594726562 106.18800354003906 181.5204315185547 C 93.52412414550781 207.20460510253906 101.86708068847656 196.95834350585938 104.44822692871094 177.25601196289062" stroke-width="2.0" fill="none" stroke="rgb(0, 0, 0)" stroke-opacity="1" stroke-linecap="round" stroke-linejoin="round"/>
    <path d="M 225.1743927001953 177.2991485595703 C 195.15528869628906 103.78225708007812 215.53211975097656 126.68135833740234 231.8334503173828 182.3958740234375 C 165.95175170898438 182.3516845703125 199.47689819335938 190.46121215820312 188.0504150390625 167.27841186523438 C 238.26040649414062 174.0185089111328 225.84884643554688 184.23695373535156 222.48756408691406 146.3369598388672" stroke-width="2.0" fill="none" stroke="rgb(0, 0, 0)" stroke-opacity="1" stroke-linecap="round" stroke-linejoin="round"/>
    <path d="M 181.42247009277344 55.444828033447266 C 140.135498046875 44.75728225708008 153.44068908691406 47.77081298828125 180.55514526367188 56.21901321411133 C 223.04934692382812 55.42243194580078 218.60562133789062 46.1588020324707 187.33636474609375 49.67932891845703 C 147.96713256835938 58.709476470947266 144.86231994628906 35.01692581176758 171.74310302734375 36.65004348754883" stroke-width="2.0" fill="none" stroke="rgb(0, 0, 0)" stroke-opacity="1" stroke-linecap="round" stroke-linejoin="round"/>
    <path d="M 39.625083923339844 119.42095184326172 C 21.36488151550293 88.4543228149414 15.799017906188965 53.86625289916992 17.55815887451172 81.6407699584961" stroke-width="2.0" fill="none" stroke="rgb(0, 0, 0)" stroke-opacity="1" stroke-linecap="round" stroke-linejoin="round"/>
    <path d="M 196.0391082763672 214.71348571777344 C 181.22027587890625 183.64935302734375 178.41632080078125 193.70315551757812 210.27232360839844 208.3120574951172" stroke-width="2.0" fill="none" stroke="rgb(0, 0, 0)" stroke-opacity="1" stroke-linecap="round" stroke-linejoin="round"/>
    <path d="M 145.54742431640625 31.897966384887695 C 133.6916961669922 39.99658203125 165.93089294433594 19.028623580932617 179.07432556152344 8.190120697021484 C 153.4027099609375 53.820556640625 152.6170196533203 45.2403678894043 157.5140380859375 48.25927734375 C 168.004638671875 59.262210845947266 143.57508850097656 50.13920593261719 110.52312469482422 30.262121200561523" stroke-width="2.0" fill="none" stroke="rgb(0, 0, 0)" stroke-opacity="1" stroke-linecap="round" stroke-linejoin="round"/>
    <path d="M 113.68804168701172 221.7220458984375 C 45.94047927856445 199.88180541992188 58.07221221923828 213.5897979736328 107.71642303466797 222.02992248535156 C 110.6966552734375 214.6324462890625 73.98743438720703 218.56698608398438 53.17414093017578 189.6734619140625" stroke-width="2.0" fill="none" stroke="rgb(0, 0, 0)" stroke-opacity="1" stroke-linecap="round" stroke-linejoin="round"/>
    <path d="M 202.5315399169922 125.24996948242188 C 186.86810302734375 125.57337188720703 182.7330322265625 117.7383041381836 205.135986328125 127.48770141601562 C 208.70321655273438 137.01412963867188 198.67601013183594 119.7576675415039 178.7110137939453 103.72828674316406" stroke-width="2.0" fill="none" stroke="rgb(0, 0, 0)" stroke-opacity="1" stroke-linecap="round" stroke-linejoin="round"/>
    <path d="M 39.18288803100586 90.17229461669922 C 97.91354370117188 81.12492370605469 79.803955078125 84.86054992675781 48.51634979248047 79.82109069824219 C 109.81073760986328 86.68167877197266 92.1098861694336 81.53765106201172 55.781944274902344 105.37820434570312 C 41.69729232788086 107.78190612792969 94.54680633544922 93.08670043945312 46.89126205444336 97.02792358398438" stroke-width="2.0" fill="none" stroke="rgb(0, 0, 0)" stroke-opacity="1" stroke-linecap="round" stroke-linejoin="round"/>
    <path d="M 86.29434967041016 173.5298614501953 C 113.70840454101562 178.90231323242188 117.90853118896484 192.70968627929688 87.0936508178711 178.031494140625 C 53.203407287597656 162.0478973388672 52.71277618408203 169.5082244873047 105.6810302734375 187.50999450683594 C 98.39680480957031 187.8225555419922 52.01935958862305 177.5610809326172 52.20751190185547 142.38331604003906" stroke-width="2.0" fill="none" stroke="rgb(0, 0, 0)" stroke-opacity="1" stroke-linecap="round" stroke-linejoin="round"/>
    <path d="M 57.875911712646484 137.55242919921875 C 37.27149200439453 144.1351318359375 39.620750427246094 157.23863220214844 30.362457275390625 159.32237243652344 C 15.205262184143066 171.31578063964844 40.194698333740234 167.2059783935547 47.976097106933594 142.42791748046875" stroke-width="2.0" fill="none" stroke="rgb(0, 0, 0)" stroke-opacity="1" stroke-linecap="round" stroke-linejoin="round"/>
    <path d="M 219.09312438964844 43.933441162109375 C 203.71664428710938 65.78556060791016 216.3861083984375 59.285728454589844 220.0115509033203 30.822328567504883 C 227.8509979248047 86.9912338256836 233.99122619628906 67.61177062988281 242.30821228027344 58.37287902832031" stroke-width="2.0" fill="none" stroke="rgb(0, 0, 0)" stroke-opacity="1" stroke-linecap="round" stroke-linejoin="round"/>
    <path d="M 159.3614959716797 43.95290756225586 C 167.36383056640625 68.10389709472656 180.74984741210938 56.193199157714844 167.9261474609375 57.89611053466797" stroke-width="2.0" fill="none" stroke="rgb(0, 0, 0)" stroke-opacity="1" stroke-linecap="round" stroke-linejoin="round"/>
    <path d="M 140.93214416503906 152.53549194335938 C 144.36190795898438 159.4356689453125 171.00839233398438 157.7175750732422 187.480712890625 135.2665557861328" stroke-width="2.0" fill="none" stroke="rgb(0, 0, 0)" stroke-opacity="1" stroke-linecap="round" stroke-linejoin="round"/>
    <path d="M 139.58392333984375 77.16326904296875 C 151.90036010742188 100.1719970703125 168.35072326660156 107.72431945800781 151.01246643066406 81.63744354248047" stroke-width="2.0" fill="none" stroke="rgb(0, 0, 0)" stroke-opacity="1" stroke-linecap="round" stroke-linejoin="round"/>
    <path d="M 94.81209564208984 155.90089416503906 C 87.6312255859375 166.30860900878906 44.847599029541016 166.54710388183594 70.47988891601562 175.41656494140625" stroke-width="2.0" fill="none" stroke="rgb(0, 0, 0)" stroke-opacity="1" stroke-linecap="round" stroke-linejoin="round"/>
    <path d="M 232.28167724609375 74.85328674316406 C 230.01766967773438 104.21784973144531 226.1519775390625 124.3426742553711 230.73529052734375 114.62889099121094" stroke-width="2.0" fill="none" stroke="rgb(0, 0, 0)" stroke-opacity="1" stroke-linecap="round" stroke-linejoin="round"/>
    <path d="M 169.35714721679688 191.856689453125 C 161.4587860107422 214.82186889648438 133.4012451171875 223.18292236328125 102.40509033203125 220.64154052734375" stroke-width="2.0" fill="none" stroke="rgb(0, 0, 0)" stroke-opacity="1" stroke-linecap="round" stroke-linejoin="round"/>
    <path d="M 27.118072509765625 73.2857894897461 C 8.776973724365234 65.72938537597656 44.169830322265625 79.701171875 66.25286102294922 85.94480895996094" stroke-width="2.0" fill="none" stroke="rgb(0, 0, 0)" stroke-opacity="1" stroke-linecap="round" stroke-linejoin="round"/>
    <path d="M 58.514373779296875 149.393310546875 C 31.39763069152832 116.54537200927734 24.90890884399414 97.97854614257812 34.91411590576172 121.25888061523438 C 21.48948860168457 98.19371795654297 30.996706008911133 127.62863159179688 23.612817764282227 104.36296844482422" stroke-width="2.0" fill="none" stroke="rgb(0, 0, 0)" stroke-opacity="1" stroke-linecap="round" stroke-linejoin="round"/>
    <path d="M 141.0028839111328 205.41859436035156 C 109.43404388427734 173.7284698486328 112.58855438232422 188.61761474609375 121.30250549316406 173.83798217773438 C 91.51828002929688 167.0934295654297 98.23362731933594 185.776123046875 123.86190032958984 175.26763916015625" stroke-width="2.0" fill="none" stroke="rgb(0, 0, 0)" stroke-opacity="1" stroke-linecap="round" stroke-linejoin="round"/>
    <path d="M 85.49250030517578 169.31398010253906 C 109.60916137695312 151.28843688964844 113.36608123779297 104.90384674072266 90.72705078125 131.80784606933594" stroke-width="2.0" fill="none" stroke="rgb(0, 0, 0)" stroke-opacity="1" stroke-linecap="round" stroke-linejoin="round"/>
    <path d="M 116.58368682861328 123.7002944946289 C 144.76292419433594 138.47877502441406 132.27000427246094 148.2620391845703 134.87245178222656 148.42469787597656" stroke-width="2.0" fill="none" stroke="rgb(0, 0, 0)" stroke-opacity="1" stroke-linecap="round" stroke-linejoin="round"/>
    <path d="M 66.36621856689453 41.69186782836914 C 102.60164642333984 33.82987976074219 97.23210906982422 39.92741775512695 96.91465759277344 38.28607177734375 C 111.89645385742188 27.54218101501465 110.36162567138672 58.59801483154297 103.87442016601562 17.09170913696289 C 100.27467346191406 44.670528411865234 78.423828125 43.08004379272461 98.69828796386719 37.7890625" stroke-width="2.0" fill="none" stroke="rgb(0, 0, 0)" stroke-opacity="1" stroke-linecap="round" stroke-linejoin="round"/>
    <path d="M 169.1685791015625 85.94324493408203 C 137.21087646484375 75.61308288574219 143.30601501464844 83.80797576904297 193.0244140625 72.77752685546875 C 196.91114807128906 54.080135345458984 210.04971313476562 57.21742248535156 197.67445373535156 64.34166717529297 C 208.80506896972656 55.69468307495117 207.26132202148438 73.17501831054688 185.26441955566406 97.47695922851562" stroke-width="2.0" fill="none" stroke="rgb(0, 0, 0)" stroke-opacity="1" stroke-linecap="round" stroke-linejoin="round"/>
    <path d="M 193.3344268798828 137.9313507080078 C 167.33200073242188 114.5394058227539 182.10403442382812 112.56207275390625 187.8980712890625 131.80714416503906 C 195.9207000732422 105.6922378540039 196.0701446533203 124.4575424194336 225.09303283691406 134.61776733398438 C 210.74752807617188 134.05239868164062 186.46421813964844 118.70761108398438 172.97357177734375 107.28649139404297" stroke-width="2.0" fill="none" stroke="rgb(0, 0, 0)" stroke-opacity="1" stroke-linecap="round" stroke-linejoin="round"/>
    <path d="M 194.89442443847656 78.08971405029297 C 169.04148864746094 107.34580993652344 163.63510131835938 102.92777252197266 197.04922485351562 69.46155548095703 C 203.6630859375 65.82099914550781 185.42745971679688 98.25308227539062 172.3372039794922 102.03633880615234 C 180.9926300048828 93.94013214111328 189.41470336914062 81.47784423828125 172.2183074951172 100.32666015625" stroke-width="2.0" fill="none" stroke="rgb(0, 0, 0)" stroke-opacity="1" stroke-linecap="round" stroke-linejoin="round"/>
    <path d="M 169.42054748535156 44.310760498046875 C 198.45138549804688 -4.488173007965088 184.80006408691406 0.14564794301986694 175.26010131835938 19.94964599609375 C 175.22166442871094 31.434629440307617 157.25698852539062 55.84971618652344 178.57266235351562 32.876861572265625 C 163.52548217773438 39.978118896484375 158.7018585205078 40.353248596191406 168.10926818847656 54.8861083984375" stroke-width="2.0" fill="none" stroke="rgb(0, 0, 0)" stroke-opacity="1" stroke-linecap="round" stroke-linejoin="round"/>
    <path d="M 129.69102478027344 136.16835021972656 C 135.17791748046875 177.4640655517578 120.16559600830078 159.86810302734375 132.54330444335938 144.4561767578125 C 142.13690185546875 149.9454345703125 146.16783142089844 152.97605895996094 149.51022338867188 150.08123779296875" stroke-width="2.0" fill="none" stroke="rgb(0, 0, 0)" stroke-opacity="1" stroke-linecap="round" stroke-linejoin="round"/>
    <path d="M 109.1845474243164 35.08360290527344 C 109.94219970703125 16.9078369140625 101.55632019042969 23.93270492553711 86.80267333984375 21.009302139282227" stroke-width="2.0" fill="none" stroke="rgb(0, 0, 0)" stroke-opacity="1" stroke-linecap="round" stroke-linejoin="round"/>
    <path d="M 129.91249084472656 95.58869171142578 C 82.13863372802734 124.14955139160156 75.4709243774414 112.55169677734375 128.2937774658203 96.59307098388672 C 71.4771499633789 108.62682342529297 77.49358367919922 123.62308502197266 94.23768615722656 106.6349868774414 C 82.68690490722656 120.32017517089844 124.34906768798828 125.10124206542969 89.40773010253906 127.25900268554688" stroke-width="2.0" fill="none" stroke="rgb(0, 0, 0)" stroke-opacity="1" stroke-linecap="round" stroke-linejoin="round"/>
    <path d="M 50.45683670043945 206.73866271972656 C 55.46111297607422 194.57424926757812 32.68035888671875 188.97784423828125 44.890663146972656 153.91983032226562 C 56.24800109863281 203.452880859375 46.003570556640625 207.60650634765625 39.92802429199219 216.1320037841797" stroke-width="2.0" fill="none" stroke="rgb(0, 0, 0)" stroke-opacity="1" stroke-linecap="round" stroke-linejoin="round"/>
    <path d="M 89.10195922851562 225.54672241210938 C 109.3247299194336 236.0777587890625 120.51459503173828 233.05136108398438 109.00018310546875 239.65386962890625" stroke-width="2.0" fill="none" stroke="rgb(0, 0, 0)" stroke-opacity="1" stroke-linecap="round" stroke-linejoin="round"/>
    <path d="M 181.04051208496094 121.08440399169922 C 163.081298828125 92.029052734375 193.56130981445312 115.07014465332031 198.26609802246094 134.90611267089844 C 200.48745727539062 123.45420837402344 193.43646240234375 114.24496459960938 180.529296875 121.48885345458984 C 221.4442901611328 129.6643829345703 198.72930908203125 127.54727935791016 185.9278106689453 121.78388214111328" stroke-width="2.0" fill="none" stroke="rgb(0, 0, 0)" stroke-opacity="1" stroke-linecap="round" stroke-linejoin="round"/>
    <path d="M 198.3092498779297 7.961003303527832 C 174.462646484375 19.089340209960938 171.1986083984375 4.092559337615967 213.0169219970703 23.843778610229492" stroke-width="2.0" fill="none" stroke="rgb(0, 0, 0)" stroke-opacity="1" stroke-linecap="round" stroke-linejoin="round"/>
    <path d="M 240.93882751464844 24.220483779907227 C 188.32875061035156 18.454904556274414 180.82513427734375 -3.559783935546875 192.21641540527344 24.13256072998047" stroke-width="2.0" fill="none" stroke="rgb(0, 0, 0)" stroke-opacity="1" stroke-linecap="round" stroke-linejoin="round"/>
    <path d="M 87.20968627929688 149.8727264404297 C 79.7115478515625 145.26385498046875 75.95008850097656 140.7285919189453 85.07830047607422 149.7824249267578 C 73.02718353271484 138.3526611328125 91.60892486572266 149.10963439941406 99.15959167480469 153.85220336914062 C 61.46900177001953 166.57142639160156 77.56950378417969 169.0133514404297 116.55809783935547 170.67694091796875" stroke-width="2.0" fill="none" stroke="rgb(0, 0, 0)" stroke-opacity="1" stroke-linecap="round" stroke-linejoin="round"/>
    <path d="M 87.14540100097656 99.14156341552734 C 87.43766021728516 77.70259094238281 75.0717544555664 46.18089294433594 85.83072662353516 63.1900520324707 C 94.93079376220703 56.01445388793945 69.9273910522461 67.33251953125 84.50077819824219 56.5190315246582 C 69.30245208740234 74.71501159667969 78.52705383300781 68.54972839355469 101.69482421875 49.522857666015625" stroke-width="2.0" fill="none" stroke="rgb(0, 0, 0)" stroke-opacity="1" stroke-linecap="round" stroke-linejoin="round"/>
    <path d="M 225.33984375 -11.132181167602539 C 232.08883666992188 6.381119251251221 231.39393615722656 23.279598236083984 236.4007568359375 22.855379104614258 C 237.62693786621094 13.601126670837402 246.5941162109375 3.7845287322998047 257.69873046875 0.21228578686714172" stroke-width="2.0" fill="none" stroke="rgb(0, 0, 0)" stroke-opacity="1" stroke-linecap="round" stroke-linejoin="round"/>
    <path d="M 189.3467559814453 95.51141357421875 C 208.57211303710938 39.31141662597656 211.54991149902344 59.2545280456543 218.04747009277344 124.81725311279297" stroke-width="2.0" fill="none" stroke="rgb(0, 0, 0)" stroke-opacity="1" stroke-linecap="round" stroke-linejoin="round"/>
    <path d="M 168.17837524414062 47.53257369995117 C 165.72268676757812 60.66379928588867 184.45947265625 49.101749420166016 209.97776794433594 54.85884475708008 C 210.73023986816406 43.373069763183594 225.65975952148438 42.30571365356445 223.0010986328125 42.19084930419922 C 190.7763671875 47.08367919921875 161.8994903564453 52.31732177734375 169.18621826171875 45.51198959350586" stroke-width="2.0" fill="none" stroke="rgb(0, 0, 0)" stroke-opacity="1" stroke-linecap="round" stroke-linejoin="round"/>
    <path d="M 44.79093933105469 53.86724853515625 C 36.45671463012695 36.41304016113281 56.088924407958984 8.77419376373291 46.82151412963867 38.83332824707031 C 66.1390609741211 57.09573745727539 28.139699935913086 59.006980895996094 102.54052734375 36.62904739379883" stroke-width="2.0" fill="none" stroke="rgb(0, 0, 0)" stroke-opacity="1" stroke-linecap="round" stroke-linejoin="round"/>
    <path d="M 179.50802612304688 43.209877014160156 C 230.70321655273438 23.60407066345215 234.17022705078125 9.806611061096191 237.1395263671875 22.938060760498047 C 250.36265563964844 43.80606460571289 235.2899932861328 42.81391525268555 226.70724487304688 43.917808532714844 C 224.64865112304688 25.343889236450195 212.92955017089844 21.937711715698242 228.54771423339844 3.3546698093414307" stroke-width="2.0" fill="none" stroke="rgb(0, 0, 0)" stroke-opacity="1" stroke-linecap="round" stroke-linejoin="round"/>
    <path d="M 86.73149871826172 159.09100341796875 C 105.24114990234375 153.58677673339844 90.92350769042969 147.98147583007812 82.2506103515625 146.81703186035156" stroke-width="2.0" fill="none" stroke="rgb(0, 0, 0)" stroke-opacity="1" stroke-linecap="round" stroke-linejoin="round"/>
    <path d="M 83.96499633789062 167.88507080078125 C 101.16210174560547 155.8652801513672 110.0604476928711 140.4001922607422 59.267494201660156 164.0164031982422 C 35.11117172241211 160.93162536621094 79.1552734375 173.2012939453125 109.43997955322266 176.59364318847656" stroke-width="2.0" fill="none" stroke="rgb(0, 0, 0)" stroke-opacity="1" stroke-linecap="round" stroke-linejoin="round"/>
    <path d="M 138.006103515625 88.74652862548828 C 83.95500183105469 115.16027069091797 95.15264129638672 128.19091796875 81.36576843261719 78.3447036743164" stroke-width="2.0" fill="none" stroke="rgb(0, 0, 0)" stroke-opacity="1" stroke-linecap="round" stroke-linejoin="round"/>
    <path d="M 212.02667236328125 174.66944885253906 C 178.70335388183594 164.41554260253906 209.5231475830078 172.704833984375 224.6034698486328 177.58799743652344" stroke-width="2.0" fill="none" stroke="rgb(0, 0, 0)" stroke-opacity="1" stroke-linecap="round" stroke-linejoin="round"/>
    <path d="M 34.99818420410156 156.30665588378906 C 12.423022270202637 169.25732421875 23.249162673950195 178.62652587890625 11.8783540725708 158.6651153564453 C 7.832394599914551 153.6821746826172 11.216521263122559 157.560546875 12.230877876281738 159.0028533935547" stroke-width="2.0" fill="none" stroke="rgb(0, 0, 0)" stroke-opacity="1" stroke-linecap="round" stroke-linejoin="round"/>
    <path d="M 133.80580139160156 203.14913940429688 C 112.81880950927734 219.04409790039062 91.30083465576172 205.829833984375 89.66871643066406 207.23013305664062 C 123.25703430175781 205.5333709716797 149.64389038085938 200.731689453125 119.44580841064453 192.59210205078125 C 154.27220153808594 200.96470642089844 100.91328430175781 202.53440856933594 93.20329284667969 206.91319274902344" stroke-width="2.0" fill="none" stroke="rgb(0, 0, 0)" stroke-opacity="1" stroke-linecap="round" stroke-linejoin="round"/>
    <path d="M 129.41525268554688 11.261143684387207 C 198.6256866455078 7.304303169250488 200.48526000976562 7.691916465759277 178.9215850830078 14.415399551391602 C 190.5090789794922 10.757203102111816 190.2961883544922 13.422205924987793 182.3882598876953 4.713452339172363" stroke-width="2.0" fill="none" stroke="rgb(0, 0, 0)" stroke-opacity="1" stroke-linecap="round" stroke-linejoin="round"/>
    <path d="M 89.22664642333984 195.0762939453125 C 32.86784744262695 202.35537719726562 41.8499755859375 191.82504272460938 73.99604034423828 194.6844482421875 C 47.709373474121094 203.09768676757812 55.58335494995117 190.6717987060547 58.121212005615234 197.2274932861328 C 87.29761505126953 191.88441467285156 52.438724517822266 188.35511779785156 62.85007858276367 194.97633361816406" stroke-width="2.0" fill="none" stroke="rgb(0, 0, 0)" stroke-opacity="1" stroke-linecap="round" stroke-linejoin="round"/>
    <path d="M 177.36981201171875 198.94960021972656 C 167.9871826171875 169.2298583984375 195.34439086914062 214.67852783203125 183.12252807617188 191.57493591308594" stroke-width="2.0" fill="none" stroke="rgb(0, 0, 0)" stroke-opacity="1" stroke-linecap="round" stroke-linejoin="round"/>
    <path d="M 88.42328643798828 27.054075241088867 C 42.05961608886719 18.720056533813477 54.506507873535156 23.15631866455078 66.9770278930664 6.180088996887207 C 56.01576232910156 28.640302658081055 62.58177947998047 -5.464016914367676 45.07628631591797 17.60234832763672" stroke-width="2.0" fill="none" stroke="rgb(0, 0, 0)" stroke-opacity="1" stroke-linecap="round" stroke-linejoin="round"/>
    <path d="M 36.81079864501953 -6.487122058868408 C 3.54325008392334 -7.269032001495361 5.7120466232299805 5.865553379058838 53.92108154296875 6.294683456420898 C 46.25069046020508 5.995492458343506 32.43416976928711 22.956157684326172 30.138927459716797 16.99334144592285 C 60.74758529663086 34.39521026611328 55.94478225708008 50.87944793701172 58.166866302490234 14.19300365447998" stroke-width="2.0" fill="none" stroke="rgb(0, 0, 0)" stroke-opacity="1" stroke-linecap="round" stroke-linejoin="round"/>
    <path d="M 174.8756103515625 15.067057609558105 C 151.35227966308594 41.576473236083984 149.71212768554688 28.981447219848633 153.17835998535156 69.48218536376953 C 169.75686645507812 48.2375602722168 149.5723114013672 34.490848541259766 157.91372680664062 45.157264709472656 C 159.89561462402344 76.88381958007812 142.125244140625 73.01382446289062 170.9495849609375 30.528409957885742" stroke-width="2.0" fill="none" stroke="rgb(0, 0, 0)" stroke-opacity="1" stroke-linecap="round" stroke-linejoin="round"/>
    <path d="M 165.8585205078125 102.77922821044922 C 180.95240783691406 92.49661254882812 191.3169403076172 80.6476058959961 203.05752563476562 64.86800384521484 C 213.19998168945312 56.97089385986328 195.92739868164062 103.1950454711914 202.94126892089844 73.67017364501953" stroke-width="2.0" fill="none" stroke="rgb(0, 0, 0)" stroke-opacity="1" stroke-linecap="round" stroke-linejoin="round"/>
    <path d="M 206.9193878173828 195.91470336914062 C 189.2352294921875 193.7455291748047 234.9777374267578 202.78903198242188 227.99798583984375 205.58348083496094" stroke-width="2.0" fill="none" stroke="rgb(0, 0, 0)" stroke-opacity="1" stroke-linecap="round" stroke-linejoin="round"/>
    <path d="M 153.44314575195312 114.91667938232422 C 185.28294372558594 109.3329086303711 161.5242462158203 95.98323822021484 162.51173400878906 102.06497955322266" stroke-width="2.0" fill="none" stroke="rgb(0, 0, 0)" stroke-opacity="1" stroke-linecap="round" stroke-linejoin="round"/>
    <path d="M 98.8857650756836 85.12471771240234 C 113.31371307373047 65.41394805908203 114.5838851928711 66.63996887207031 113.94407653808594 63.24387741088867" stroke-width="2.0" fill="none" stroke="rgb(0, 0, 0)" stroke-opacity="1" stroke-linecap="round" stroke-linejoin="round"/>
    <path d="M 118.14325714111328 -2.949974536895752 C 158.48216247558594 7.710427284240723 204.82850646972656 6.621993541717529 189.364013671875 9.577462196350098 C 163.70578002929688 -28.149396896362305 174.21263122558594 -22.178274154663086 176.7113800048828 -26.832988739013672 C 145.46270751953125 -8.21566390991211 140.89755249023438 -11.176141738891602 132.18479919433594 -14.5469331741333" stroke-width="2.0" fill="none" stroke="rgb(0, 0, 0)" stroke-opacity="1" stroke-linecap="round" stroke-linejoin="round"/>
    <path d="M 63.73343276977539 164.83566284179688 C 111.9212875366211 184.5718231201172 117.18728637695312 183.5938262939453 131.4332275390625 201.07720947265625 C 147.61265563964844 221.71218872070312 141.23745727539062 210.08023071289062 98.07281494140625 214.65298461914062" stroke-width="2.0" fill="none" stroke="rgb(0, 0, 0)" stroke-opacity="1" stroke-linecap="round" stroke-linejoin="round"/>
    <path d="M 74.88239288330078 166.60028076171875 C 98.11051177978516 164.20294189453125 91.25617980957031 131.73902893066406 101.43549346923828 146.71328735351562 C 79.14311981201172 174.0796661376953 105.74345397949219 164.5063018798828 102.1426010131836 142.6929168701172 C 94.24913787841797 172.2269287109375 89.4631576538086 150.32154846191406 104.12064361572266 138.75152587890625" stroke-width="2.0" fill="none" stroke="rgb(0, 0, 0)" stroke-opacity="1" stroke-linecap="round" stroke-linejoin="round"/>
    <path d="M 181.3795928955078 90.99080657958984 C 202.01907348632812 63.98195266723633 221.073974609375 61.92159652709961 221.78472900390625 35.98856735229492" stroke-width="2.0" fill="none" stroke="rgb(0, 0, 0)" stroke-opacity="1" stroke-linecap="round" stroke-linejoin="round"/>
    <path d="M 118.96256256103516 -3.455244541168213 C 127.7606430053711 -4.251575469970703 127.1806640625 -5.17628812789917 116.59888458251953 -0.6171460747718811 C 107.90937042236328 -2.13399600982666 136.19644165039062 12.188522338867188 124.63555145263672 -0.4006415903568268" stroke-width="2.0" fill="none" stroke="rgb(0, 0, 0)" stroke-opacity="1" stroke-linecap="round" stroke-linejoin="round"/>
    <path d="M 16.264739990234375 87.13827514648438 C 19.61796760559082 90.09211730957031 0.7211959362030029 91.66481018066406 -5.08062219619751 103.34011840820312 C 3.9364261627197266 131.9064483642578 -4.795013427734375 132.10470581054688 -13.469016075134277 144.2965087890625 C -5.8768157958984375 133.94036865234375 -13.282479286193848 134.68162536621094 -5.946232795715332 134.60092163085938" stroke-width="2.0" fill="none" stroke="rgb(0, 0, 0)" stroke-opacity="1" stroke-linecap="round" stroke-linejoin="round"/>
    <path d="M 87.00830841064453 32.98258590698242 C 108.59358978271484 37.755348205566406 101.44871520996094 18.691862106323242 106.23371124267578 36.21043395996094 C 107.97180938720703 22.16184425354004 103.52630615234375 34.82147216796875 69.50016021728516 60.10968017578125" stroke-width="2.0" fill="none" stroke="rgb(0, 0, 0)" stroke-opacity="1" stroke-linecap="round" stroke-linejoin="round"/>
    <path d="M 248.10655212402344 110.01850128173828 C 222.81594848632812 101.31690216064453 195.43084716796875 98.0384292602539 239.616455078125 105.40936279296875 C 232.0781707763672 117.77220916748047 215.0776824951172 104.91524505615234 190.51504516601562 116.91819763183594 C 156.424072265625 105.16950225830078 161.41453552246094 93.18419647216797 182.7068634033203 144.5187225341797" stroke-width="2.0" fill="none" stroke="rgb(0, 0, 0)" stroke-opacity="1" stroke-linecap="round" stroke-linejoin="round"/>
    <path d="M 156.0871124267578 141.06918334960938 C 104.55670928955078 109.28947448730469 142.7180633544922 127.41513061523438 182.94174194335938 141.9676055908203 C 175.44044494628906 139.50152587890625 129.20025634765625 151.77413940429688 103.36912536621094 156.23057556152344 C 144.36256408691406 134.55368041992188 155.00880432128906 138.74038696289062 111.69203186035156 153.87684631347656" stroke-width="2.0" fill="none" stroke="rgb(0, 0, 0)" stroke-opacity="1" stroke-linecap="round" stroke-linejoin="round"/>
    <path d="M 18.63608741760254 117.8345718383789 C 46.856624603271484 110.92219543457031 27.332782745361328 122.91602325439453 14.760591506958008 65.3614501953125 C 14.226480484008789 113.74617004394531 29.532669067382812 111.35315704345703 53.772762298583984 129.24972534179688 C 25.85334587097168 130.0120391845703 18.69281768798828 84.86524200439453 16.713298797607422 92.0579605102539" stroke-width="2.0" fill="none" stroke="rgb(0, 0, 0)" stroke-opacity="1" stroke-linecap="round" stroke-linejoin="round"/>
    <path d="M 100.4906005859375 107.71206665039062 C 97.00172424316406 108.94134521484375 89.0464096069336 66.7839584350586 80.66179656982422 61.54745864868164" stroke-width="2.0" fill="none" stroke="rgb(0, 0, 0)" stroke-opacity="1" stroke-linecap="round" stroke-linejoin="round"/>
    <path d="M 224.3484344482422 117.88507080078125 C 215.97203063964844 77.77796936035156 211.7242889404297 50.32912826538086 210.4200897216797 73.23722076416016 C 204.869873046875 69.26046752929688 216.01107788085938 51.9991340637207 213.49783325195312 61.738014221191406 C 233.78240966796875 94.8262710571289 224.02630615234375 135.19866943359375 214.3988037109375 83.40797424316406" stroke-width="2.0" fill="none" stroke="rgb(0, 0, 0)" stroke-opacity="1" stroke-linecap="round" stroke-linejoin="round"/>
    <path d="M 10.114179611206055 152.88987731933594 C 7.476031303405762 158.8396453857422 27.695322036743164 149.44427490234375 49.89568328857422 152.47274780273438" stroke-width="2.0" fill="none" stroke="rgb(0, 0, 0)" stroke-opacity="1" stroke-linecap="round" stroke-linejoin="round"/>
    <path d="M 1.6678932905197144 184.71142578125 C 28.38081932067871 185.07928466796875 31.262216567993164 164.8944091796875 12.47659683227539 181.81195068359375" stroke-width="2.0" fill="none" stroke="rgb(0, 0, 0)" stroke-opacity="1" stroke-linecap="round" stroke-linejoin="round"/>
    <path d="M 234.10508728027344 132.0350799560547 C 181.52178955078125 116.36734771728516 184.6449432373047 94.3019790649414 196.9910888671875 144.44912719726562 C 189.7241668701172 127.24242401123047 180.7877655029297 113.84809112548828 164.51161193847656 103.22279357910156" stroke-width="2.0" fill="none" stroke="rgb(0, 0, 0)" stroke-opacity="1" stroke-linecap="round" stroke-linejoin="round"/>
    <path d="M 173.7171173095703 71.76063537597656 C 207.62274169921875 66.72460174560547 220.0396270751953 61.406402587890625 211.90733337402344 64.75831604003906" stroke-width="2.0" fill="none" stroke="rgb(0, 0, 0)" stroke-opacity="1" stroke-linecap="round" stroke-linejoin="round"/>
    <path d="M 164.7645263671875 188.2213897705078 C 172.95809936523438 197.37718200683594 151.20681762695312 203.09056091308594 167.44573974609375 190.6286163330078 C 161.99639892578125 180.37770080566406 163.20864868164062 191.87669372558594 166.05059814453125 192.5804901123047 C 144.465576171875 179.57720947265625 141.53573608398438 197.6212158203125 165.53192138671875 187.37246704101562" stroke-width="2.0" fill="none" stroke="rgb(0, 0, 0)" stroke-opacity="1" stroke-linecap="round" stroke-linejoin="round"/>
    <path d="M 16.08965301513672 132.79925537109375 C -18.58548927307129 112.10833740234375 -14.569411277770996 111.6409683227539 -4.93651819229126 134.03646850585938" stroke-width="2.0" fill="none" stroke="rgb(0, 0, 0)" stroke-opacity="1" stroke-linecap="round" stroke-linejoin="round"/>
    <path d="M 15.003436088562012 80.2175521850586 C 28.115095138549805 115.46967315673828 29.68994903564453 117.41828918457031 57.17467498779297 137.44956970214844" stroke-width="2.0" fill="none" stroke="rgb(0, 0, 0)" stroke-opacity="1" stroke-linecap="round" stroke-linejoin="round"/>
    <path d="M 152.05712890625 147.4336700439453 C 167.80213928222656 151.21414184570312 162.04737854003906 146.66993713378906 148.26181030273438 156.23562622070312 C 202.8286895751953 129.80462646484375 203.9832305908203 138.7493133544922 144.6295166015625 150.98313903808594" stroke-width="2.0" fill="none" stroke="rgb(0, 0, 0)" stroke-opacity="1" stroke-linecap="round" stroke-linejoin="round"/>
    <path d="M 121.4120864868164 221.56875610351562 C 95.94427490234375 217.64529418945312 56.3994140625 206.49765014648438 78.34000396728516 212.02444458007812 C 66.73591613769531 208.42822265625 52.39522933959961 196.6354522705078 46.56107711791992 193.64895629882812" stroke-width="2.0" fill="none" stroke="rgb(0, 0, 0)" stroke-opacity="1" stroke-linecap="round" stroke-linejoin="round"/>
    <path d="M 238.38978576660156 207.95338439941406 C 234.51675415039062 211.62425231933594 205.9077606201172 206.66738891601562 173.50314331054688 183.0281524658203 C 210.571533203125 182.11538696289062 221.9918670654297 174.5155487060547 226.73756408691406 166.65274047851562 C 226.32879638671875 170.9725341796875 234.60003662109375 176.85446166992188 228.30360412597656 185.42494201660156" stroke-width="2.0" fill="none" stroke="rgb(0, 0, 0)" stroke-opacity="1" stroke-linecap="round" stroke-linejoin="round"/>
    <path d="M 95.48777770996094 156.20338439941406 C 114.3132095336914 132.8112335205078 108.85791015625 126.5207290649414 106.65372467041016 135.5065155029297 C 33.41353225708008 135.81410217285156 76.34491729736328 142.39451599121094 110.06253814697266 137.26004028320312" stroke-width="2.0" fill="none" stroke="rgb(0, 0, 0)" stroke-opacity="1" stroke-linecap="round" stroke-linejoin="round"/>
    <path d="M 183.70513916015625 102.95681762695312 C 211.76113891601562 83.1685562133789 190.11929321289062 59.98094177246094 194.89891052246094 86.37510681152344 C 190.6033172607422 90.26769256591797 203.15406799316406 78.06411743164062 203.69589233398438 64.12675476074219" stroke-width="2.0" fill="none" stroke="rgb(0, 0, 0)" stroke-opacity="1" stroke-linecap="round" stroke-linejoin="round"/>
    <path d="M 42.15450668334961 176.5457305908203 C 53.48146438598633 214.97288513183594 61.66535949707031 204.26144409179688 49.5423698425293 184.15806579589844 C 54.81278991699219 197.44375610351562 68.31896209716797 209.03704833984375 72.72174835205078 214.32022094726562" stroke-width="2.0" fill="none" stroke="rgb(0, 0, 0)" stroke-opacity="1" stroke-linecap="round" stroke-linejoin="round"/>
  </g>
</svg>
