<?xml version="1.0" ?>
<svg xmlns="http://www.w3.org/2000/svg" version="1.1" width="224" height="224">
  <defs/>
  <g>
    <path d="M 169.8533172607422 106.07942199707031 C 187.32359313964844 72.16136169433594 181.6725311279297 12.999953269958496 179.04017639160156 37.667327880859375 C 183.2782440185547 79.15605163574219 162.0972900390625 74.8792724609375 184.822265625 74.5863037109375" stroke-width="2.0" fill="none" stroke="rgb(0, 0, 0)" stroke-opacity="1" stroke-linecap="round" stroke-linejoin="round"/>
    <path d="M 172.3311767578125 208.17636108398438 C 182.6829376220703 174.7872314453125 164.6863555908203 195.85531616210938 153.2406463623047 207.885498046875 C 159.72665405273438 216.1154022216797 168.1109161376953 191.35302734375 174.12686157226562 186.3202667236328 C 174.71446228027344 175.4634552001953 168.63140869140625 201.14437866210938 149.36656188964844 210.5799560546875" stroke-width="2.0" fill="none" stroke="rgb(0, 0, 0)" stroke-opacity="1" stroke-linecap="round" stroke-linejoin="round"/>
    <path d="M 169.60325622558594 230.5258026123047 C 180.47659301757812 230.52484130859375 187.76881408691406 226.5083770751953 168.15792846679688 227.417236328125" stroke-width="2.0" fill="none" stroke="rgb(0, 0, 0)" stroke-opacity="1" stroke-linecap="round" stroke-linejoin="round"/>
    <path d="M 81.93855285644531 123.61558532714844 C 73.52420043945312 147.5891876220703 96.19758605957031 123.19664764404297 68.4354476928711 92.28475952148438" stroke-width="2.0" fill="none" stroke="rgb(0, 0, 0)" stroke-opacity="1" stroke-linecap="round" stroke-linejoin="round"/>
    <path d="M 137.90228271484375 207.0261993408203 C 132.3471221923828 197.5853271484375 144.1405029296875 212.24124145507812 167.92605590820312 202.40907287597656" stroke-width="2.0" fill="none" stroke="rgb(0, 0, 0)" stroke-opacity="1" stroke-linecap="round" stroke-linejoin="round"/>
    <path d="M 162.6036834716797 217.42742919921875 C 161.54544067382812 209.94126892089844 181.4226531982422 191.55784606933594 175.8388214111328 187.66049194335938 C 184.0348663330078 175.78660583496094 181.17686462402344 185.5876007080078 133.84059143066406 186.7432098388672" stroke-width="2.0" fill="none" stroke="rgb(0, 0, 0)" stroke-opacity="1" stroke-linecap="round" stroke-linejoin="round"/>
    <path d="M 188.0880584716797 172.9922637939453 C 157.74472045898438 154.97718811035156 158.81362915039062 167.9149932861328 183.38742065429688 153.28256225585938" stroke-width="2.0" fill="none" stroke="rgb(0, 0, 0)" stroke-opacity="1" stroke-linecap="round" stroke-linejoin="round"/>
    <path d="M 46.90196990966797 223.48426818847656 C 75.43143463134766 205.15074157714844 74.80481719970703 204.7026824951172 49.6672248840332 224.1555938720703 C 55.127723693847656 234.72369384765625 58.38454055786133 227.66029357910156 51.28352355957031 219.52716064453125 C 79.25139617919922 222.95639038085938 65.75972747802734 238.0167694091797 90.61231994628906 202.9240264892578" stroke-width="2.0" fill="none" stroke="rgb(0, 0, 0)" stroke-opacity="1" stroke-linecap="round" stroke-linejoin="round"/>
    <path d="M 33.44446563720703 42.21746826171875 C 62.84476089477539 30.70015525817871 50.28122329711914 26.058277130126953 71.27523803710938 25.050302505493164 C 51.96617889404297 39.119041442871094 56.07942581176758 13.917021751403809 76.95173645019531 19.882009506225586 C 75.8837661743164 20.250463485717773 52.668766021728516 20.352256774902344 54.97112274169922 21.309167861938477" stroke-width="2.0" fill="none" stroke="rgb(0, 0, 0)" stroke-opacity="1" stroke-linecap="round" stroke-linejoin="round"/>
    <path d="M 159.85543823242188 93.26084899902344 C 140.6997833251953 109.18881225585938 159.98052978515625 107.73249053955078 152.30726623535156 108.78060150146484 C 169.64303588867188 93.08850860595703 176.89883422851562 73.29972076416016 145.4011993408203 106.6124496459961" stroke-width="2.0" fill="none" stroke="rgb(0, 0, 0)" stroke-opacity="1" stroke-linecap="round" stroke-linejoin="round"/>
    <path d="M 59.97622299194336 212.55018615722656 C 22.21366310119629 236.57479858398438 -4.1338791847229 231.7427978515625 25.363643646240234 227.9113311767578 C 61.63959503173828 228.7109375 55.85578918457031 241.24130249023438 53.95646286010742 229.9876708984375" stroke-width="2.0" fill="none" stroke="rgb(0, 0, 0)" stroke-opacity="1" stroke-linecap="round" stroke-linejoin="round"/>
    <path d="M 208.04306030273438 134.70919799804688 C 216.42037963867188 102.9103012084961 220.4317169189453 103.0595474243164 218.89698791503906 90.84752655029297 C 211.60702514648438 112.8260269165039 232.43948364257812 114.19938659667969 193.6133270263672 103.89279174804688" stroke-width="2.0" fill="none" stroke="rgb(0, 0, 0)" stroke-opacity="1" stroke-linecap="round" stroke-linejoin="round"/>
    <path d="M 182.86297607421875 31.28946304321289 C 182.3208770751953 45.78752517700195 184.31825256347656 82.86915588378906 184.35389709472656 68.0480728149414 C 165.87677001953125 60.80945587158203 191.03677368164062 56.666629791259766 167.82557678222656 55.873695373535156" stroke-width="2.0" fill="none" stroke="rgb(0, 0, 0)" stroke-opacity="1" stroke-linecap="round" stroke-linejoin="round"/>
    <path d="M 207.61245727539062 20.722524642944336 C 202.14617919921875 -7.551941394805908 203.69891357421875 -14.826709747314453 222.3345184326172 5.2539286613464355 C 217.79429626464844 -9.45006275177002 215.7877960205078 -15.82217788696289 208.34710693359375 -11.201093673706055" stroke-width="2.0" fill="none" stroke="rgb(0, 0, 0)" stroke-opacity="1" stroke-linecap="round" stroke-linejoin="round"/>
    <path d="M 215.7853240966797 200.1405487060547 C 233.18605041503906 205.0522918701172 248.30078125 202.9008026123047 246.7955780029297 201.47454833984375" stroke-width="2.0" fill="none" stroke="rgb(0, 0, 0)" stroke-opacity="1" stroke-linecap="round" stroke-linejoin="round"/>
    <path d="M 74.84744262695312 144.57872009277344 C 88.09245300292969 149.7874755859375 114.26860809326172 160.8995361328125 94.98529052734375 149.38226318359375 C 92.69271850585938 182.02052307128906 102.71379089355469 210.62313842773438 61.85795211791992 201.06216430664062" stroke-width="2.0" fill="none" stroke="rgb(0, 0, 0)" stroke-opacity="1" stroke-linecap="round" stroke-linejoin="round"/>
    <path d="M 187.6407928466797 152.7719268798828 C 202.70001220703125 151.97508239746094 187.73915100097656 147.80152893066406 179.55596923828125 136.8728485107422 C 191.56661987304688 117.29179382324219 182.93093872070312 140.76719665527344 228.7423553466797 136.781982421875" stroke-width="2.0" fill="none" stroke="rgb(0, 0, 0)" stroke-opacity="1" stroke-linecap="round" stroke-linejoin="round"/>
    <path d="M 122.42057800292969 14.552623748779297 C 86.53746032714844 19.90608024597168 75.68255615234375 16.223388671875 63.61567306518555 14.139459609985352 C 126.17684936523438 15.527132034301758 54.89882278442383 7.3852996826171875 64.7490234375 15.53708553314209 C 67.74728393554688 5.9504618644714355 66.11224365234375 16.091999053955078 101.13459014892578 13.259380340576172" stroke-width="2.0" fill="none" stroke="rgb(0, 0, 0)" stroke-opacity="1" stroke-linecap="round" stroke-linejoin="round"/>
    <path d="M 231.45533752441406 84.77068328857422 C 226.10885620117188 84.16605377197266 238.04954528808594 83.3830337524414 233.72088623046875 84.98759460449219 C 231.51882934570312 80.6617660522461 237.27789306640625 84.69851684570312 244.39125061035156 83.73635864257812 C 252.54380798339844 72.55089569091797 241.6389923095703 79.47238159179688 247.185791015625 90.50938415527344" stroke-width="2.0" fill="none" stroke="rgb(0, 0, 0)" stroke-opacity="1" stroke-linecap="round" stroke-linejoin="round"/>
    <path d="M 148.90597534179688 -5.920934677124023 C 142.34312438964844 37.24441146850586 161.53973388671875 33.59776306152344 136.13304138183594 27.018381118774414" stroke-width="2.0" fill="none" stroke="rgb(0, 0, 0)" stroke-opacity="1" stroke-linecap="round" stroke-linejoin="round"/>
    <path d="M 34.54967498779297 171.44703674316406 C 56.5968132019043 160.96029663085938 69.84396362304688 142.38253784179688 74.25682067871094 115.6920394897461" stroke-width="2.0" fill="none" stroke="rgb(0, 0, 0)" stroke-opacity="1" stroke-linecap="round" stroke-linejoin="round"/>
    <path d="M 114.47867584228516 158.40098571777344 C 104.93806457519531 202.12611389160156 110.5875473022461 192.71946716308594 118.32852935791016 160.9403076171875" stroke-width="2.0" fill="none" stroke="rgb(0, 0, 0)" stroke-opacity="1" stroke-linecap="round" stroke-linejoin="round"/>
    <path d="M 142.6670684814453 139.4207000732422 C 154.03753662109375 151.2931365966797 183.3533477783203 126.97305297851562 157.57666015625 142.8038330078125 C 168.93548583984375 142.40814208984375 147.64476013183594 131.26834106445312 158.0442657470703 138.45201110839844" stroke-width="2.0" fill="none" stroke="rgb(0, 0, 0)" stroke-opacity="1" stroke-linecap="round" stroke-linejoin="round"/>
    <path d="M 100.30137634277344 126.86117553710938 C 89.70917510986328 182.39784240722656 71.11874389648438 169.29400634765625 95.39970397949219 172.01329040527344 C 90.87844848632812 160.19134521484375 112.53263854980469 172.91746520996094 105.01629638671875 168.48611450195312 C 98.65801239013672 200.61463928222656 80.92422485351562 193.34425354003906 73.82757568359375 203.432861328125" stroke-width="2.0" fill="none" stroke="rgb(0, 0, 0)" stroke-opacity="1" stroke-linecap="round" stroke-linejoin="round"/>
    <path d="M 124.46688079833984 64.10888671875 C 147.3988037109375 58.754188537597656 122.65692138671875 88.57107543945312 100.93341064453125 103.77720642089844 C 97.8841323852539 95.97920227050781 112.40919494628906 93.61457824707031 126.45829772949219 75.74803924560547" stroke-width="2.0" fill="none" stroke="rgb(0, 0, 0)" stroke-opacity="1" stroke-linecap="round" stroke-linejoin="round"/>
    <path d="M 166.65966796875 194.34890747070312 C 117.3158187866211 189.70370483398438 187.75611877441406 191.89356994628906 164.72140502929688 179.2341766357422" stroke-width="2.0" fill="none" stroke="rgb(0, 0, 0)" stroke-opacity="1" stroke-linecap="round" stroke-linejoin="round"/>
    <path d="M 202.18374633789062 202.3833770751953 C 186.79200744628906 169.1060333251953 183.6393280029297 132.58128356933594 187.60751342773438 198.9027099609375" stroke-width="2.0" fill="none" stroke="rgb(0, 0, 0)" stroke-opacity="1" stroke-linecap="round" stroke-linejoin="round"/>
    <path d="M -13.005619049072266 89.3052978515625 C 13.051154136657715 81.13737487792969 -5.7756242752075195 73.91818237304688 7.262000560760498 134.60940551757812" stroke-width="2.0" fill="none" stroke="rgb(0, 0, 0)" stroke-opacity="1" stroke-linecap="round" stroke-linejoin="round"/>
    <path d="M 190.93368530273438 22.06844711303711 C 201.42819213867188 25.15025520324707 158.60862731933594 19.445619583129883 159.3466339111328 24.6727352142334 C 158.84017944335938 26.072893142700195 170.2663116455078 23.995094299316406 156.5008544921875 52.71100997924805" stroke-width="2.0" fill="none" stroke="rgb(0, 0, 0)" stroke-opacity="1" stroke-linecap="round" stroke-linejoin="round"/>
    <path d="M 36.57713317871094 18.888582229614258 C 46.415870666503906 -7.1511311531066895 52.433807373046875 20.881385803222656 64.11959838867188 42.04839324951172 C 72.05074310302734 55.33929443359375 53.80830383300781 45.39162826538086 71.2493896484375 35.75934600830078 C 68.05257415771484 19.893951416015625 57.807437896728516 31.0192928314209 27.63485336303711 40.37553787231445" stroke-width="2.0" fill="none" stroke="rgb(0, 0, 0)" stroke-opacity="1" stroke-linecap="round" stroke-linejoin="round"/>
    <path d="M 181.15211486816406 25.85237693786621 C 198.55386352539062 24.896713256835938 185.18569946289062 11.916901588439941 203.72987365722656 46.96327209472656 C 240.2915802001953 42.97528076171875 247.69842529296875 41.0723991394043 230.945556640625 33.30142593383789 C 218.42230224609375 32.65627670288086 206.8132781982422 29.811050415039062 224.8501739501953 28.50053596496582" stroke-width="2.0" fill="none" stroke="rgb(0, 0, 0)" stroke-opacity="1" stroke-linecap="round" stroke-linejoin="round"/>
    <path d="M 39.586761474609375 52.21892547607422 C 10.408066749572754 74.40380096435547 -2.7437949180603027 42.42972946166992 15.167999267578125 83.90032958984375 C 3.102341890335083 26.455730438232422 -5.669979572296143 59.28166961669922 29.307342529296875 46.858299255371094" stroke-width="2.0" fill="none" stroke="rgb(0, 0, 0)" stroke-opacity="1" stroke-linecap="round" stroke-linejoin="round"/>
    <path d="M 115.08796691894531 29.749156951904297 C 105.7904052734375 62.851871490478516 93.47016906738281 47.70758056640625 101.87720489501953 57.26899337768555 C 95.29363250732422 59.55349349975586 69.88085174560547 21.421520233154297 109.64408111572266 60.166507720947266" stroke-width="2.0" fill="none" stroke="rgb(0, 0, 0)" stroke-opacity="1" stroke-linecap="round" stroke-linejoin="round"/>
    <path d="M 96.4420394897461 204.3704071044922 C 82.63902282714844 195.25814819335938 73.53868865966797 198.1376953125 89.7877197265625 202.07984924316406" stroke-width="2.0" fill="none" stroke="rgb(0, 0, 0)" stroke-opacity="1" stroke-linecap="round" stroke-linejoin="round"/>
    <path d="M 124.94383239746094 142.96730041503906 C 77.86626434326172 116.67952728271484 94.08089447021484 104.55899810791016 78.49189758300781 153.4062042236328" stroke-width="2.0" fill="none" stroke="rgb(0, 0, 0)" stroke-opacity="1" stroke-linecap="round" stroke-linejoin="round"/>
    <path d="M 198.88206481933594 124.90519714355469 C 212.7013397216797 98.05712127685547 200.4846954345703 103.11842346191406 245.5623321533203 111.97879028320312 C 205.69332885742188 113.36102294921875 190.19195556640625 105.56853485107422 203.1571807861328 107.29901885986328 C 184.72718811035156 89.29022979736328 191.3232879638672 92.16717529296875 186.6591339111328 109.16395568847656" stroke-width="2.0" fill="none" stroke="rgb(0, 0, 0)" stroke-opacity="1" stroke-linecap="round" stroke-linejoin="round"/>
    <path d="M 109.11991119384766 141.2951202392578 C 132.73724365234375 163.79383850097656 164.69723510742188 177.3753204345703 168.82763671875 161.3693389892578" stroke-width="2.0" fill="none" stroke="rgb(0, 0, 0)" stroke-opacity="1" stroke-linecap="round" stroke-linejoin="round"/>
    <path d="M 227.41590881347656 0.05464387312531471 C 193.96253967285156 11.838407516479492 212.97781372070312 14.893657684326172 240.0582733154297 6.183640480041504 C 212.96046447753906 11.45527458190918 201.16954040527344 14.423951148986816 174.69598388671875 20.706466674804688" stroke-width="2.0" fill="none" stroke="rgb(0, 0, 0)" stroke-opacity="1" stroke-linecap="round" stroke-linejoin="round"/>
    <path d="M 7.74238395690918 6.03746223449707 C 9.310943603515625 7.2419610023498535 -24.274200439453125 4.564222812652588 -25.619070053100586 12.295022010803223" stroke-width="2.0" fill="none" stroke="rgb(0, 0, 0)" stroke-opacity="1" stroke-linecap="round" stroke-linejoin="round"/>
    <path d="M 225.50051879882812 -3.1061878204345703 C 227.38540649414062 -6.455133438110352 230.48818969726562 52.03120422363281 230.61767578125 33.50604248046875" stroke-width="2.0" fill="none" stroke="rgb(0, 0, 0)" stroke-opacity="1" stroke-linecap="round" stroke-linejoin="round"/>
    <path d="M 178.52540588378906 168.78758239746094 C 178.81463623046875 211.17349243164062 156.83688354492188 206.49375915527344 138.58656311035156 204.64393615722656" stroke-width="2.0" fill="none" stroke="rgb(0, 0, 0)" stroke-opacity="1" stroke-linecap="round" stroke-linejoin="round"/>
    <path d="M 110.7435531616211 135.98257446289062 C 99.9108657836914 159.92013549804688 100.92865753173828 123.38185119628906 124.73384094238281 147.75302124023438 C 80.64100646972656 131.48072814941406 78.69171142578125 131.31675720214844 112.07530975341797 139.04344177246094 C 91.58502960205078 123.67857360839844 95.91549682617188 122.30062103271484 84.36680603027344 151.05113220214844" stroke-width="2.0" fill="none" stroke="rgb(0, 0, 0)" stroke-opacity="1" stroke-linecap="round" stroke-linejoin="round"/>
    <path d="M 198.35903930664062 125.76887512207031 C 184.1161346435547 125.39279174804688 179.74118041992188 116.54893493652344 208.0389404296875 135.8938446044922" stroke-width="2.0" fill="none" stroke="rgb(0, 0, 0)" stroke-opacity="1" stroke-linecap="round" stroke-linejoin="round"/>
    <path d="M 202.22467041015625 7.2418060302734375 C 183.84645080566406 9.425458908081055 172.8743896484375 19.82068634033203 145.96609497070312 19.390178680419922 C 200.9499969482422 9.52629280090332 196.5194091796875 17.588417053222656 151.36273193359375 19.897090911865234" stroke-width="2.0" fill="none" stroke="rgb(0, 0, 0)" stroke-opacity="1" stroke-linecap="round" stroke-linejoin="round"/>
    <path d="M 28.300832748413086 9.736788749694824 C 58.94436264038086 15.930754661560059 87.7983627319336 19.462926864624023 49.475162506103516 11.944156646728516 C 70.14496612548828 12.480818748474121 65.42393493652344 21.209453582763672 72.39656829833984 26.25434684753418 C 77.41350555419922 43.80397033691406 84.4591293334961 59.03857421875 93.8282699584961 67.77974700927734" stroke-width="2.0" fill="none" stroke="rgb(0, 0, 0)" stroke-opacity="1" stroke-linecap="round" stroke-linejoin="round"/>
    <path d="M 167.45391845703125 48.80989456176758 C 185.9167022705078 54.17546844482422 167.887451171875 42.020851135253906 164.04566955566406 46.750885009765625 C 161.66905212402344 39.44376754760742 145.54864501953125 51.46432113647461 187.1912078857422 53.16765594482422" stroke-width="2.0" fill="none" stroke="rgb(0, 0, 0)" stroke-opacity="1" stroke-linecap="round" stroke-linejoin="round"/>
    <path d="M 220.9093780517578 13.580745697021484 C 208.6234588623047 -27.536771774291992 218.90267944335938 -29.59377670288086 216.4110107421875 31.86313819885254" stroke-width="2.0" fill="none" stroke="rgb(0, 0, 0)" stroke-opacity="1" stroke-linecap="round" stroke-linejoin="round"/>
    <path d="M 167.4722900390625 -2.4051029682159424 C 194.4000701904297 -5.178764343261719 205.17022705078125 -10.466044425964355 184.21212768554688 -7.44569730758667 C 198.82009887695312 32.166893005371094 211.2960968017578 59.128990173339844 190.1229248046875 8.507558822631836" stroke-width="2.0" fill="none" stroke="rgb(0, 0, 0)" stroke-opacity="1" stroke-linecap="round" stroke-linejoin="round"/>
    <path d="M 36.67138671875 -9.073813438415527 C 29.3609619140625 3.6957178115844727 32.21522903442383 54.672752380371094 15.059440612792969 51.14305114746094 C 31.820161819458008 -1.0655161142349243 33.99202346801758 -18.560977935791016 28.640338897705078 -1.2182539701461792 C -11.214593887329102 -8.031917572021484 34.34402084350586 4.943612098693848 69.00213623046875 12.747456550598145" stroke-width="2.0" fill="none" stroke="rgb(0, 0, 0)" stroke-opacity="1" stroke-linecap="round" stroke-linejoin="round"/>
    <path d="M 157.6190948486328 80.98944854736328 C 165.43377685546875 68.60682678222656 164.84786987304688 59.24950408935547 175.46978759765625 39.84917449951172 C 167.33978271484375 86.81891632080078 138.35301208496094 81.61946868896484 172.74122619628906 80.55448913574219 C 175.0606689453125 40.10786437988281 183.19888305664062 81.3443832397461 168.76983642578125 94.40773010253906" stroke-width="2.0" fill="none" stroke="rgb(0, 0, 0)" stroke-opacity="1" stroke-linecap="round" stroke-linejoin="round"/>
    <path d="M 67.80023193359375 157.7218475341797 C 103.45124816894531 190.32565307617188 111.90010070800781 154.10086059570312 96.42826843261719 188.38734436035156 C 99.83442687988281 195.11570739746094 123.14551544189453 130.0371856689453 109.42920684814453 166.4676513671875" stroke-width="2.0" fill="none" stroke="rgb(0, 0, 0)" stroke-opacity="1" stroke-linecap="round" stroke-linejoin="round"/>
    <path d="M 200.31692504882812 206.84046936035156 C 224.5051727294922 188.76795959472656 233.02943420410156 187.80828857421875 228.63900756835938 173.3897247314453 C 211.0450897216797 202.85159301757812 204.74984741210938 203.76278686523438 229.4564971923828 181.42027282714844" stroke-width="2.0" fill="none" stroke="rgb(0, 0, 0)" stroke-opacity="1" stroke-linecap="round" stroke-linejoin="round"/>
    <path d="M 74.34400177001953 59.81694412231445 C 61.572967529296875 29.08698844909668 74.11172485351562 37.73557662963867 43.882171630859375 43.338199615478516 C 67.91118621826172 86.57522583007812 71.41575622558594 88.5027084350586 60.423828125 56.24681091308594 C 57.684242248535156 74.33988952636719 58.555965423583984 82.83747100830078 48.523006439208984 26.962717056274414" stroke-width="2.0" fill="none" stroke="rgb(0, 0, 0)" stroke-opacity="1" stroke-linecap="round" stroke-linejoin="round"/>
    <path d="M 202.57887268066406 42.249176025390625 C 210.63983154296875 72.74919891357422 201.59573364257812 53.13236999511719 193.0777587890625 25.049400329589844 C 206.42648315429688 52.00111770629883 208.09461975097656 50.72401809692383 198.88148498535156 33.179542541503906" stroke-width="2.0" fill="none" stroke="rgb(0, 0, 0)" stroke-opacity="1" stroke-linecap="round" stroke-linejoin="round"/>
    <path d="M 175.97984313964844 169.0103759765625 C 161.214599609375 200.01605224609375 156.27342224121094 217.28195190429688 133.46603393554688 224.46145629882812 C 161.88760375976562 222.59449768066406 166.86013793945312 187.81385803222656 179.65823364257812 184.6813507080078 C 171.3532257080078 188.37295532226562 171.80955505371094 192.28756713867188 174.067626953125 173.58157348632812" stroke-width="2.0" fill="none" stroke="rgb(0, 0, 0)" stroke-opacity="1" stroke-linecap="round" stroke-linejoin="round"/>
    <path d="M 155.59425354003906 113.81169891357422 C 184.0259552001953 123.50788879394531 143.34483337402344 108.92008972167969 158.0855255126953 121.53089904785156" stroke-width="2.0" fill="none" stroke="rgb(0, 0, 0)" stroke-opacity="1" stroke-linecap="round" stroke-linejoin="round"/>
    <path d="M 62.3216438293457 21.849056243896484 C 65.12725830078125 36.5735969543457 69.13275909423828 41.90469741821289 65.66695404052734 37.480194091796875 C 82.83943939208984 31.937503814697266 67.5329818725586 37.96738815307617 57.1374397277832 40.45201873779297 C 71.08207702636719 86.29204559326172 54.31440353393555 76.6028823852539 50.15157699584961 49.662235260009766" stroke-width="2.0" fill="none" stroke="rgb(0, 0, 0)" stroke-opacity="1" stroke-linecap="round" stroke-linejoin="round"/>
    <path d="M 69.9697494506836 119.656982421875 C 79.24510192871094 97.68973541259766 89.54480743408203 112.3011474609375 55.830039978027344 70.96754455566406 C 69.9751205444336 109.70892333984375 66.3368148803711 116.45266723632812 50.67667770385742 63.594852447509766" stroke-width="2.0" fill="none" stroke="rgb(0, 0, 0)" stroke-opacity="1" stroke-linecap="round" stroke-linejoin="round"/>
    <path d="M 181.62159729003906 193.9468994140625 C 182.27305603027344 142.0072784423828 161.68792724609375 154.74954223632812 178.44859313964844 191.53746032714844 C 182.618896484375 167.7200164794922 164.20664978027344 172.21270751953125 185.66246032714844 169.14047241210938 C 174.6914825439453 157.30517578125 187.45509338378906 169.29415893554688 166.37908935546875 213.62168884277344" stroke-width="2.0" fill="none" stroke="rgb(0, 0, 0)" stroke-opacity="1" stroke-linecap="round" stroke-linejoin="round"/>
    <path d="M 46.87433624267578 125.13501739501953 C 57.59602355957031 117.90789031982422 36.35666275024414 114.17806243896484 45.5512580871582 116.5005874633789 C 76.10655975341797 89.9728012084961 77.73259735107422 89.29312896728516 61.77594757080078 125.56257629394531" stroke-width="2.0" fill="none" stroke="rgb(0, 0, 0)" stroke-opacity="1" stroke-linecap="round" stroke-linejoin="round"/>
    <path d="M 27.833494186401367 192.8026885986328 C -6.891076564788818 199.18878173828125 19.019044876098633 195.08807373046875 57.231685638427734 189.51510620117188" stroke-width="2.0" fill="none" stroke="rgb(0, 0, 0)" stroke-opacity="1" stroke-linecap="round" stroke-linejoin="round"/>
    <path d="M 28.318714141845703 36.2199821472168 C 51.156307220458984 34.93962478637695 27.870935440063477 21.561311721801758 29.85161018371582 42.84940719604492" stroke-width="2.0" fill="none" stroke="rgb(0, 0, 0)" stroke-opacity="1" stroke-linecap="round" stroke-linejoin="round"/>
    <path d="M 4.237087249755859 121.90410614013672 C -11.497044563293457 126.21849060058594 -5.358196258544922 123.9406509399414 -12.776185035705566 119.66204071044922" stroke-width="2.0" fill="none" stroke="rgb(0, 0, 0)" stroke-opacity="1" stroke-linecap="round" stroke-linejoin="round"/>
    <path d="M 127.22496795654297 53.699615478515625 C 133.6277618408203 52.79069900512695 128.07603454589844 62.56954574584961 100.60041046142578 43.81322479248047" stroke-width="2.0" fill="none" stroke="rgb(0, 0, 0)" stroke-opacity="1" stroke-linecap="round" stroke-linejoin="round"/>
    <path d="M 50.5038948059082 84.87667846679688 C 63.72957229614258 72.49337768554688 76.89112854003906 72.46641540527344 47.78626251220703 90.70214080810547" stroke-width="2.0" fill="none" stroke="rgb(0, 0, 0)" stroke-opacity="1" stroke-linecap="round" stroke-linejoin="round"/>
    <path d="M 59.00594711303711 120.33781433105469 C 37.460121154785156 108.74293518066406 55.57667541503906 114.85475158691406 56.108924865722656 131.6996612548828 C 64.73902130126953 106.83944702148438 69.09518432617188 97.24523162841797 64.25281524658203 107.51042175292969 C 81.72103881835938 97.45927429199219 49.002933502197266 102.01044464111328 72.12236022949219 91.45723724365234" stroke-width="2.0" fill="none" stroke="rgb(0, 0, 0)" stroke-opacity="1" stroke-linecap="round" stroke-linejoin="round"/>
    <path d="M 84.24342346191406 5.9177937507629395 C 31.66031837463379 3.435133695602417 38.63875198364258 -9.60080337524414 36.32436752319336 -5.229192733764648" stroke-width="2.0" fill="none" stroke="rgb(0, 0, 0)" stroke-opacity="1" stroke-linecap="round" stroke-linejoin="round"/>
    <path d="M 68.5490951538086 82.73208618164062 C 57.259796142578125 88.14678192138672 51.70412826538086 73.5923843383789 70.33019256591797 105.36631774902344 C 71.95096588134766 93.61221313476562 68.23274993896484 120.1960678100586 32.89331817626953 137.0037841796875" stroke-width="2.0" fill="none" stroke="rgb(0, 0, 0)" stroke-opacity="1" stroke-linecap="round" stroke-linejoin="round"/>
    <path d="M 180.22946166992188 154.78115844726562 C 193.6396026611328 188.4463653564453 184.7957305908203 193.5481719970703 182.68516540527344 157.8957061767578 C 180.35528564453125 164.197998046875 184.12954711914062 158.5632781982422 165.33450317382812 158.3831329345703 C 185.24928283691406 163.84957885742188 168.86260986328125 140.281005859375 180.71217346191406 168.2039337158203" stroke-width="2.0" fill="none" stroke="rgb(0, 0, 0)" stroke-opacity="1" stroke-linecap="round" stroke-linejoin="round"/>
    <path d="M 98.66522979736328 117.34526824951172 C 85.54047393798828 108.74211883544922 90.92694854736328 141.79425048828125 83.07793426513672 150.01942443847656 C 79.95687866210938 136.4746551513672 78.79856872558594 168.5865936279297 60.836612701416016 178.7826690673828 C 46.942283630371094 167.42971801757812 52.37476348876953 177.0886993408203 63.445255279541016 186.04603576660156" stroke-width="2.0" fill="none" stroke="rgb(0, 0, 0)" stroke-opacity="1" stroke-linecap="round" stroke-linejoin="round"/>
    <path d="M 185.18348693847656 136.82666015625 C 187.55235290527344 134.84600830078125 207.8052520751953 183.7238006591797 223.81613159179688 200.3238525390625 C 223.77882385253906 141.34811401367188 219.54786682128906 164.43563842773438 226.7793731689453 138.7817840576172 C 213.16392517089844 144.77622985839844 243.8902587890625 127.7680435180664 226.35089111328125 163.55555725097656" stroke-width="2.0" fill="none" stroke="rgb(0, 0, 0)" stroke-opacity="1" stroke-linecap="round" stroke-linejoin="round"/>
    <path d="M 192.80421447753906 28.041500091552734 C 151.60055541992188 39.907989501953125 194.5421600341797 37.98017120361328 185.2026824951172 38.68075942993164 C 199.6894989013672 76.9278335571289 188.95236206054688 106.370849609375 183.9191436767578 29.57052230834961 C 179.84458923339844 39.51824188232422 191.0867462158203 66.0630874633789 176.96463012695312 99.10628509521484" stroke-width="2.0" fill="none" stroke="rgb(0, 0, 0)" stroke-opacity="1" stroke-linecap="round" stroke-linejoin="round"/>
    <path d="M 125.70125579833984 147.31228637695312 C 149.66282653808594 166.07081604003906 193.38246154785156 167.07530212402344 137.45211791992188 162.02352905273438 C 160.29452514648438 170.31556701660156 141.40060424804688 158.54605102539062 164.66995239257812 163.55809020996094" stroke-width="2.0" fill="none" stroke="rgb(0, 0, 0)" stroke-opacity="1" stroke-linecap="round" stroke-linejoin="round"/>
    <path d="M 13.833552360534668 143.02197265625 C 3.2448129653930664 88.21923828125 -4.2819294929504395 100.81420135498047 8.86694622039795 140.68580627441406 C 7.170970439910889 97.19315338134766 3.1928303241729736 116.5921630859375 17.16350746154785 138.26116943359375 C 23.000410079956055 142.99493408203125 20.97610092163086 155.1383056640625 8.128183364868164 108.73448181152344" stroke-width="2.0" fill="none" stroke="rgb(0, 0, 0)" stroke-opacity="1" stroke-linecap="round" stroke-linejoin="round"/>
    <path d="M 5.4224534034729 111.45046997070312 C 1.3408126831054688 12.435445785522461 1.2658417224884033 -6.763606548309326 -3.8210811614990234 52.39889144897461" stroke-width="2.0" fill="none" stroke="rgb(0, 0, 0)" stroke-opacity="1" stroke-linecap="round" stroke-linejoin="round"/>
    <path d="M 65.39315795898438 108.7828140258789 C 82.98284912109375 95.21678924560547 56.296592712402344 130.64019775390625 86.32206726074219 108.80529022216797" stroke-width="2.0" fill="none" stroke="rgb(0, 0, 0)" stroke-opacity="1" stroke-linecap="round" stroke-linejoin="round"/>
    <path d="M 109.03043365478516 191.7427978515625 C 118.09162902832031 139.5030059814453 104.81770324707031 179.9524688720703 160.6433563232422 189.77874755859375" stroke-width="2.0" fill="none" stroke="rgb(0, 0, 0)" stroke-opacity="1" stroke-linecap="round" stroke-linejoin="round"/>
    <path d="M 185.89834594726562 122.04900360107422 C 168.5728302001953 114.09284210205078 167.12242126464844 113.52235412597656 188.48239135742188 116.49728393554688" stroke-width="2.0" fill="none" stroke="rgb(0, 0, 0)" stroke-opacity="1" stroke-linecap="round" stroke-linejoin="round"/>
    <path d="M 130.5391082763672 50.580142974853516 C 155.25350952148438 57.39350509643555 156.51551818847656 82.09872436523438 144.2513427734375 60.964237213134766 C 173.58433532714844 80.20035552978516 169.427490234375 71.28038787841797 155.24952697753906 72.05503845214844" stroke-width="2.0" fill="none" stroke="rgb(0, 0, 0)" stroke-opacity="1" stroke-linecap="round" stroke-linejoin="round"/>
    <path d="M 124.81578063964844 230.6454620361328 C 101.1123275756836 219.85215759277344 101.4439468383789 229.63294982910156 100.89302825927734 244.21102905273438" stroke-width="2.0" fill="none" stroke="rgb(0, 0, 0)" stroke-opacity="1" stroke-linecap="round" stroke-linejoin="round"/>
    <path d="M 127.03225708007812 145.9972381591797 C 134.84854125976562 141.6235809326172 112.80927276611328 152.6904754638672 117.3556137084961 154.05825805664062 C 97.75487518310547 143.0103302001953 116.67842864990234 152.2194366455078 113.30799865722656 140.31390380859375 C 124.86160278320312 147.7333984375 134.5332794189453 166.1048126220703 164.53033447265625 160.46841430664062" stroke-width="2.0" fill="none" stroke="rgb(0, 0, 0)" stroke-opacity="1" stroke-linecap="round" stroke-linejoin="round"/>
    <path d="M 146.36578369140625 12.844941139221191 C 121.29578399658203 95.19302368164062 149.43031311035156 54.195831298828125 151.7559051513672 23.683826446533203 C 148.414794921875 55.83265686035156 135.41580200195312 86.01033020019531 145.65122985839844 18.79859733581543 C 141.2428436279297 48.56128692626953 144.82969665527344 29.02119255065918 128.50901794433594 64.41746520996094" stroke-width="2.0" fill="none" stroke="rgb(0, 0, 0)" stroke-opacity="1" stroke-linecap="round" stroke-linejoin="round"/>
    <path d="M 42.317047119140625 203.6199188232422 C -30.335901260375977 223.595458984375 -12.089777946472168 196.15452575683594 -6.646551609039307 211.51780700683594 C -19.04622459411621 195.20059204101562 -17.91306495666504 196.17208862304688 -10.945146560668945 205.18019104003906" stroke-width="2.0" fill="none" stroke="rgb(0, 0, 0)" stroke-opacity="1" stroke-linecap="round" stroke-linejoin="round"/>
    <path d="M 171.8650360107422 193.6556396484375 C 157.00521850585938 231.68093872070312 132.2833709716797 228.8159637451172 129.4480743408203 237.2324981689453" stroke-width="2.0" fill="none" stroke="rgb(0, 0, 0)" stroke-opacity="1" stroke-linecap="round" stroke-linejoin="round"/>
    <path d="M 204.47598266601562 103.47074890136719 C 187.2151641845703 86.7431411743164 191.6310577392578 99.3743896484375 213.86795043945312 99.01072692871094 C 188.11761474609375 85.75289154052734 193.9490203857422 101.51770782470703 227.58694458007812 98.89790344238281" stroke-width="2.0" fill="none" stroke="rgb(0, 0, 0)" stroke-opacity="1" stroke-linecap="round" stroke-linejoin="round"/>
    <path d="M 115.1736068725586 80.1482162475586 C 129.82107543945312 86.52906036376953 135.2448272705078 87.8695297241211 102.5499496459961 96.7229995727539 C 113.89756774902344 109.4334716796875 113.4597396850586 76.29258728027344 134.2361602783203 76.24939727783203" stroke-width="2.0" fill="none" stroke="rgb(0, 0, 0)" stroke-opacity="1" stroke-linecap="round" stroke-linejoin="round"/>
    <path d="M 23.70331382751465 131.93707275390625 C 66.86461639404297 110.7947006225586 59.658206939697266 119.48107147216797 41.43769454956055 146.5416717529297 C 56.98054504394531 167.4842529296875 75.67975616455078 170.62310791015625 73.9582290649414 173.46998596191406 C 58.248722076416016 162.1151123046875 57.08858871459961 185.4689483642578 93.6813735961914 183.7347869873047" stroke-width="2.0" fill="none" stroke="rgb(0, 0, 0)" stroke-opacity="1" stroke-linecap="round" stroke-linejoin="round"/>
    <path d="M 184.26382446289062 107.8556900024414 C 175.17196655273438 156.77542114257812 167.34622192382812 121.62832641601562 181.21302795410156 125.29429626464844" stroke-width="2.0" fill="none" stroke="rgb(0, 0, 0)" stroke-opacity="1" stroke-linecap="round" stroke-linejoin="round"/>
    <path d="M 116.50757598876953 134.12680053710938 C 87.81436920166016 112.64649963378906 86.5504150390625 128.57809448242188 105.29624938964844 132.66891479492188 C 69.22026062011719 205.6383056640625 86.50553131103516 162.23757934570312 99.91277313232422 121.85903930664062 C 77.3961410522461 178.03900146484375 74.72811126708984 154.70384216308594 102.5828628540039 161.85968017578125" stroke-width="2.0" fill="none" stroke="rgb(0, 0, 0)" stroke-opacity="1" stroke-linecap="round" stroke-linejoin="round"/>
    <path d="M 107.22573852539062 123.980224609375 C 91.52726745605469 119.99531555175781 99.15973663330078 108.5486068725586 77.07479858398438 164.846923828125 C 104.95436096191406 117.99329376220703 85.83251953125 137.4144287109375 100.1766586303711 120.45166015625 C 107.81436157226562 113.42847442626953 91.22394561767578 130.79457092285156 84.2853775024414 126.1094970703125" stroke-width="2.0" fill="none" stroke="rgb(0, 0, 0)" stroke-opacity="1" stroke-linecap="round" stroke-linejoin="round"/>
    <path d="M 148.9403076171875 53.2434196472168 C 134.29605102539062 102.61070251464844 142.2041778564453 56.290748596191406 149.0156707763672 23.932470321655273" stroke-width="2.0" fill="none" stroke="rgb(0, 0, 0)" stroke-opacity="1" stroke-linecap="round" stroke-linejoin="round"/>
    <path d="M 192.8102569580078 86.44145202636719 C 232.00730895996094 111.76026916503906 222.14048767089844 113.75287628173828 192.63037109375 91.83476257324219 C 187.13995361328125 106.61048126220703 208.34071350097656 106.58544921875 238.6669464111328 102.44676971435547" stroke-width="2.0" fill="none" stroke="rgb(0, 0, 0)" stroke-opacity="1" stroke-linecap="round" stroke-linejoin="round"/>
    <path d="M 86.5754165649414 195.84315490722656 C 55.54581832885742 234.23348999023438 50.151973724365234 226.49087524414062 66.32391357421875 229.53182983398438 C 90.11815643310547 206.75262451171875 80.77999877929688 219.0343780517578 69.73233032226562 229.8045196533203 C 97.87486267089844 232.11032104492188 77.49847412109375 253.88023376464844 76.80915832519531 266.0504455566406" stroke-width="2.0" fill="none" stroke="rgb(0, 0, 0)" stroke-opacity="1" stroke-linecap="round" stroke-linejoin="round"/>
    <path d="M 164.1602020263672 185.81446838378906 C 110.48677062988281 181.27774047851562 132.3760986328125 148.7689208984375 113.18070220947266 199.63169860839844" stroke-width="2.0" fill="none" stroke="rgb(0, 0, 0)" stroke-opacity="1" stroke-linecap="round" stroke-linejoin="round"/>
    <path d="M 99.36238098144531 98.50752258300781 C 115.1161117553711 91.00232696533203 125.69683074951172 89.93868255615234 118.96202850341797 95.75993347167969 C 117.46082305908203 93.13638305664062 131.75514221191406 97.19539642333984 127.2613754272461 75.70513916015625" stroke-width="2.0" fill="none" stroke="rgb(0, 0, 0)" stroke-opacity="1" stroke-linecap="round" stroke-linejoin="round"/>
    <path d="M 143.70318603515625 107.02484130859375 C 161.09654235839844 118.78158569335938 170.220947265625 87.32347869873047 156.80369567871094 91.19308471679688 C 151.8685760498047 114.17770385742188 159.94540405273438 119.04631805419922 155.28958129882812 111.48863220214844 C 182.23130798339844 65.49020385742188 186.0960693359375 61.78519821166992 178.26097106933594 95.09009552001953" stroke-width="2.0" fill="none" stroke="rgb(0, 0, 0)" stroke-opacity="1" stroke-linecap="round" stroke-linejoin="round"/>
    <path d="M 48.7949104309082 227.9483184814453 C 64.3194808959961 229.47396850585938 67.34174346923828 225.07684326171875 57.910762786865234 227.71954345703125 C 46.15113067626953 236.68923950195312 49.96998977661133 234.55796813964844 59.428321838378906 226.42779541015625" stroke-width="2.0" fill="none" stroke="rgb(0, 0, 0)" stroke-opacity="1" stroke-linecap="round" stroke-linejoin="round"/>
    <path d="M 181.9279022216797 135.65318298339844 C 188.75433349609375 144.9464111328125 195.6856689453125 132.581787109375 176.32122802734375 136.85433959960938 C 193.4271240234375 166.24468994140625 189.50584411621094 194.31410217285156 189.7564697265625 191.6047821044922" stroke-width="2.0" fill="none" stroke="rgb(0, 0, 0)" stroke-opacity="1" stroke-linecap="round" stroke-linejoin="round"/>
    <path d="M 50.745567321777344 210.70980834960938 C 28.575977325439453 177.77162170410156 45.03762435913086 199.38330078125 52.16338348388672 188.53038024902344" stroke-width="2.0" fill="none" stroke="rgb(0, 0, 0)" stroke-opacity="1" stroke-linecap="round" stroke-linejoin="round"/>
    <path d="M 48.25849533081055 68.95632934570312 C 37.08796691894531 30.915536880493164 39.80168533325195 45.66200256347656 45.5800666809082 68.3521957397461 C 37.79706954956055 32.31707763671875 42.187564849853516 38.74678039550781 40.72333908081055 69.0021743774414 C 24.95951271057129 25.218339920043945 62.55177688598633 56.57197952270508 11.341630935668945 59.50100326538086" stroke-width="2.0" fill="none" stroke="rgb(0, 0, 0)" stroke-opacity="1" stroke-linecap="round" stroke-linejoin="round"/>
    <path d="M 105.7764663696289 25.87155532836914 C 129.88246154785156 28.423877716064453 120.85308074951172 8.237931251525879 130.29701232910156 -10.736769676208496 C 124.3321533203125 49.47508239746094 110.05553436279297 69.62468719482422 127.35777282714844 -1.5101863145828247 C 117.71529388427734 -17.15560531616211 125.87376403808594 -4.097221851348877 104.5394287109375 53.76300048828125" stroke-width="2.0" fill="none" stroke="rgb(0, 0, 0)" stroke-opacity="1" stroke-linecap="round" stroke-linejoin="round"/>
    <path d="M 92.4090576171875 97.8975601196289 C 142.00498962402344 89.83303833007812 109.2259521484375 73.9871597290039 119.52890014648438 94.50054168701172 C 130.56040954589844 76.80704498291016 112.75044250488281 99.80502319335938 136.837158203125 121.19854736328125" stroke-width="2.0" fill="none" stroke="rgb(0, 0, 0)" stroke-opacity="1" stroke-linecap="round" stroke-linejoin="round"/>
    <path d="M 173.00244140625 146.5525360107422 C 173.63150024414062 137.18283081054688 182.83863830566406 127.02053833007812 177.3004913330078 205.59613037109375" stroke-width="2.0" fill="none" stroke="rgb(0, 0, 0)" stroke-opacity="1" stroke-linecap="round" stroke-linejoin="round"/>
    <path d="M 78.22602081298828 230.1101837158203 C 106.0804443359375 224.99673461914062 106.07276916503906 229.63406372070312 98.58780670166016 241.91783142089844 C 92.30075073242188 233.58543395996094 94.69715881347656 221.97035217285156 113.97366333007812 227.99473571777344 C 92.93575286865234 234.7464599609375 103.677978515625 222.986572265625 110.3245849609375 227.99937438964844" stroke-width="2.0" fill="none" stroke="rgb(0, 0, 0)" stroke-opacity="1" stroke-linecap="round" stroke-linejoin="round"/>
    <path d="M 232.436767578125 93.60100555419922 C 236.41006469726562 115.56560516357422 216.89208984375 111.41742706298828 196.3745574951172 99.51258850097656 C 188.6322021484375 92.74984741210938 217.49024963378906 76.96144104003906 190.10604858398438 85.53191375732422" stroke-width="2.0" fill="none" stroke="rgb(0, 0, 0)" stroke-opacity="1" stroke-linecap="round" stroke-linejoin="round"/>
    <path d="M 182.7282257080078 150.98414611816406 C 171.5450897216797 152.72213745117188 161.9042205810547 142.7620849609375 181.2665252685547 147.22573852539062 C 166.91893005371094 137.1873779296875 162.17306518554688 146.5673370361328 190.29998779296875 177.61317443847656" stroke-width="2.0" fill="none" stroke="rgb(0, 0, 0)" stroke-opacity="1" stroke-linecap="round" stroke-linejoin="round"/>
    <path d="M -5.434708595275879 167.47103881835938 C -10.64278507232666 167.07528686523438 -21.086416244506836 169.28890991210938 -19.69186019897461 163.45762634277344 C -5.89276647567749 153.29449462890625 -15.77527904510498 158.07823181152344 -20.722320556640625 159.53900146484375 C -16.00544548034668 161.42755126953125 -25.31270408630371 151.36856079101562 -25.1657772064209 144.19943237304688" stroke-width="2.0" fill="none" stroke="rgb(0, 0, 0)" stroke-opacity="1" stroke-linecap="round" stroke-linejoin="round"/>
    <path d="M 214.6735382080078 68.27015686035156 C 198.42022705078125 36.13785171508789 192.51202392578125 8.599874496459961 188.4889678955078 6.709964275360107 C 175.2930908203125 24.45566749572754 199.92225646972656 33.472537994384766 187.3798065185547 12.566511154174805" stroke-width="2.0" fill="none" stroke="rgb(0, 0, 0)" stroke-opacity="1" stroke-linecap="round" stroke-linejoin="round"/>
    <path d="M 64.0458984375 94.35298919677734 C 51.486183166503906 110.57694244384766 66.51831817626953 79.54458618164062 74.19482421875 115.53713989257812" stroke-width="2.0" fill="none" stroke="rgb(0, 0, 0)" stroke-opacity="1" stroke-linecap="round" stroke-linejoin="round"/>
    <path d="M 133.3359375 38.852638244628906 C 161.6568603515625 43.38590621948242 133.25411987304688 69.98257446289062 117.25968933105469 85.94048309326172" stroke-width="2.0" fill="none" stroke="rgb(0, 0, 0)" stroke-opacity="1" stroke-linecap="round" stroke-linejoin="round"/>
    <path d="M 98.26415252685547 32.82124710083008 C 120.7193832397461 42.60134506225586 123.09613800048828 19.737560272216797 112.16216278076172 49.3597412109375" stroke-width="2.0" fill="none" stroke="rgb(0, 0, 0)" stroke-opacity="1" stroke-linecap="round" stroke-linejoin="round"/>
    <path d="M 185.6166229248047 106.17015838623047 C 165.1368408203125 144.46571350097656 158.78009033203125 127.86378479003906 168.81874084472656 134.3909454345703 C 204.1916961669922 115.9743881225586 171.71241760253906 115.1819839477539 175.9736328125 130.87582397460938 C 129.65719604492188 147.5983428955078 169.81790161132812 151.43821716308594 190.77972412109375 116.56624603271484" stroke-width="2.0" fill="none" stroke="rgb(0, 0, 0)" stroke-opacity="1" stroke-linecap="round" stroke-linejoin="round"/>
    <path d="M 25.857341766357422 46.83266067504883 C 35.54637145996094 -11.077994346618652 29.069217681884766 23.765661239624023 18.242067337036133 52.224761962890625 C 33.76396560668945 32.6976318359375 28.86269187927246 2.826739549636841 28.048086166381836 38.68354415893555" stroke-width="2.0" fill="none" stroke="rgb(0, 0, 0)" stroke-opacity="1" stroke-linecap="round" stroke-linejoin="round"/>
    <path d="M 123.03206634521484 174.61695861816406 C 120.81177520751953 171.94212341308594 138.8685302734375 175.6793670654297 113.10398864746094 166.93087768554688 C 123.66796875 146.00852966308594 118.62447357177734 143.52406311035156 133.39608764648438 147.7716522216797" stroke-width="2.0" fill="none" stroke="rgb(0, 0, 0)" stroke-opacity="1" stroke-linecap="round" stroke-linejoin="round"/>
    <path d="M 44.02366638183594 11.008546829223633 C 76.59373474121094 13.068953514099121 73.5248031616211 2.139392137527466 84.98152923583984 41.53815460205078 C 71.13623809814453 46.3616828918457 85.61349487304688 43.29238510131836 81.32853698730469 31.09087371826172 C 99.20430755615234 61.3974609375 107.01399993896484 68.73358917236328 98.3881607055664 54.23756408691406" stroke-width="2.0" fill="none" stroke="rgb(0, 0, 0)" stroke-opacity="1" stroke-linecap="round" stroke-linejoin="round"/>
    <path d="M 173.64620971679688 144.80882263183594 C 190.36257934570312 117.94770812988281 201.05873107910156 119.98369598388672 172.3333282470703 141.6445770263672" stroke-width="2.0" fill="none" stroke="rgb(0, 0, 0)" stroke-opacity="1" stroke-linecap="round" stroke-linejoin="round"/>
    <path d="M 113.51908874511719 29.060611724853516 C 88.04912567138672 70.82514190673828 106.39695739746094 47.9272346496582 115.72242736816406 21.428482055664062 C 102.65573120117188 63.570068359375 109.4817123413086 50.09821701049805 121.4847412109375 16.103275299072266 C 116.88824462890625 86.42501068115234 89.84432220458984 68.4287109375 110.63521575927734 86.07664489746094" stroke-width="2.0" fill="none" stroke="rgb(0, 0, 0)" stroke-opacity="1" stroke-linecap="round" stroke-linejoin="round"/>
    <path d="M 77.29007720947266 67.59732055664062 C 99.33345794677734 108.71756744384766 86.1141586303711 86.59812927246094 75.80257415771484 64.46266174316406 C 87.39674377441406 71.61444091796875 45.22450637817383 68.5394287109375 64.73922729492188 72.29544067382812" stroke-width="2.0" fill="none" stroke="rgb(0, 0, 0)" stroke-opacity="1" stroke-linecap="round" stroke-linejoin="round"/>
    <path d="M 143.73004150390625 3.4796338081359863 C 187.50843811035156 8.43798542022705 200.37271118164062 -13.086884498596191 203.65260314941406 -14.616120338439941 C 162.09893798828125 -3.834190845489502 172.5299530029297 -7.293315410614014 167.50025939941406 -3.7670693397521973" stroke-width="2.0" fill="none" stroke="rgb(0, 0, 0)" stroke-opacity="1" stroke-linecap="round" stroke-linejoin="round"/>
    <path d="M 69.92806243896484 175.19248962402344 C 46.091304779052734 175.252685546875 51.32564926147461 172.07630920410156 63.44526290893555 181.77066040039062" stroke-width="2.0" fill="none" stroke="rgb(0, 0, 0)" stroke-opacity="1" stroke-linecap="round" stroke-linejoin="round"/>
    <path d="M 143.4552459716797 11.31682300567627 C 180.4142608642578 17.813669204711914 163.52310180664062 0.9207363128662109 173.81875610351562 26.061689376831055" stroke-width="2.0" fill="none" stroke="rgb(0, 0, 0)" stroke-opacity="1" stroke-linecap="round" stroke-linejoin="round"/>
    <path d="M 171.59085083007812 33.78540802001953 C 215.48585510253906 34.06236267089844 208.78030395507812 39.85500717163086 178.49240112304688 44.60186767578125" stroke-width="2.0" fill="none" stroke="rgb(0, 0, 0)" stroke-opacity="1" stroke-linecap="round" stroke-linejoin="round"/>
    <path d="M 227.79782104492188 61.23098373413086 C 229.82373046875 52.47648620605469 209.61566162109375 71.40835571289062 233.2212677001953 55.08315658569336 C 252.4288787841797 50.24615478515625 251.0418701171875 58.64127731323242 251.0556640625 70.04814910888672" stroke-width="2.0" fill="none" stroke="rgb(0, 0, 0)" stroke-opacity="1" stroke-linecap="round" stroke-linejoin="round"/>
    <path d="M 134.95675659179688 12.477165222167969 C 138.40048217773438 -21.769935607910156 140.1945343017578 -7.737236022949219 83.78880310058594 -2.1731173992156982" stroke-width="2.0" fill="none" stroke="rgb(0, 0, 0)" stroke-opacity="1" stroke-linecap="round" stroke-linejoin="round"/>
    <path d="M 115.48799133300781 -1.9583581686019897 C 83.33604431152344 -6.755629539489746 62.6605110168457 -12.516375541687012 44.691036224365234 -2.930973529815674 C 63.914794921875 -15.112675666809082 63.34021759033203 -12.865680694580078 71.62371826171875 -15.586105346679688 C 70.47467041015625 -31.54167366027832 79.37543487548828 -35.579322814941406 72.26559448242188 -28.19183349609375" stroke-width="2.0" fill="none" stroke="rgb(0, 0, 0)" stroke-opacity="1" stroke-linecap="round" stroke-linejoin="round"/>
    <path d="M 136.01646423339844 173.022216796875 C 114.82487487792969 192.46316528320312 152.53860473632812 177.54464721679688 127.70709228515625 184.28445434570312 C 171.6583709716797 196.297119140625 140.05653381347656 196.087890625 128.5232391357422 180.7826385498047" stroke-width="2.0" fill="none" stroke="rgb(0, 0, 0)" stroke-opacity="1" stroke-linecap="round" stroke-linejoin="round"/>
    <path d="M 4.441973686218262 48.95902633666992 C 13.623003959655762 92.44578552246094 19.35662269592285 69.23814392089844 5.051044464111328 48.68520736694336 C 6.084009647369385 76.64796447753906 23.43309211730957 33.202659606933594 33.157588958740234 78.51911926269531" stroke-width="2.0" fill="none" stroke="rgb(0, 0, 0)" stroke-opacity="1" stroke-linecap="round" stroke-linejoin="round"/>
    <path d="M 30.809709548950195 35.5312385559082 C 37.85224151611328 -14.254071235656738 45.69976806640625 -26.220932006835938 37.12934875488281 23.77271270751953 C 37.99628448486328 -6.355498790740967 30.723987579345703 -10.164133071899414 59.6763916015625 -2.43537974357605" stroke-width="2.0" fill="none" stroke="rgb(0, 0, 0)" stroke-opacity="1" stroke-linecap="round" stroke-linejoin="round"/>
    <path d="M 140.2294158935547 16.80065155029297 C 178.54263305664062 22.337121963500977 153.6310272216797 6.0052385330200195 158.7880096435547 16.647022247314453 C 132.2616424560547 12.020609855651855 152.12123107910156 26.588775634765625 168.4668426513672 19.637542724609375 C 135.78587341308594 21.11577606201172 147.73907470703125 16.269153594970703 144.50302124023438 21.389389038085938" stroke-width="2.0" fill="none" stroke="rgb(0, 0, 0)" stroke-opacity="1" stroke-linecap="round" stroke-linejoin="round"/>
    <path d="M 74.94189453125 228.23391723632812 C 104.9269790649414 195.5046844482422 92.03443908691406 192.69326782226562 98.71693420410156 197.92955017089844 C 89.62991333007812 188.82066345214844 102.51374053955078 183.3314971923828 87.65734100341797 203.97219848632812" stroke-width="2.0" fill="none" stroke="rgb(0, 0, 0)" stroke-opacity="1" stroke-linecap="round" stroke-linejoin="round"/>
    <path d="M 158.89691162109375 54.49794387817383 C 166.1602020263672 32.09786605834961 157.054931640625 19.029706954956055 159.69989013671875 32.209716796875" stroke-width="2.0" fill="none" stroke="rgb(0, 0, 0)" stroke-opacity="1" stroke-linecap="round" stroke-linejoin="round"/>
    <path d="M 118.1463851928711 159.47586059570312 C 103.90674591064453 188.63475036621094 106.29727172851562 191.04310607910156 107.14241027832031 185.94149780273438 C 106.42356872558594 187.05422973632812 99.63143920898438 201.6113739013672 95.74442291259766 210.41122436523438" stroke-width="2.0" fill="none" stroke="rgb(0, 0, 0)" stroke-opacity="1" stroke-linecap="round" stroke-linejoin="round"/>
    <path d="M 208.8420867919922 98.49420928955078 C 192.56968688964844 93.64061737060547 202.100341796875 86.26599884033203 211.3900909423828 101.13805389404297" stroke-width="2.0" fill="none" stroke="rgb(0, 0, 0)" stroke-opacity="1" stroke-linecap="round" stroke-linejoin="round"/>
    <path d="M 169.22669982910156 161.14825439453125 C 156.44793701171875 176.03111267089844 133.11056518554688 161.93870544433594 177.8380584716797 158.94650268554688" stroke-width="2.0" fill="none" stroke="rgb(0, 0, 0)" stroke-opacity="1" stroke-linecap="round" stroke-linejoin="round"/>
    <path d="M 82.34798431396484 169.79673767089844 C 111.05317687988281 164.5172576904297 102.8886947631836 180.63023376464844 110.13609313964844 165.7202911376953 C 91.48307037353516 210.75845336914062 100.62237548828125 202.7273406982422 92.24455261230469 181.8257598876953 C 84.75666046142578 191.29537963867188 83.21958923339844 206.17274475097656 59.407711029052734 222.55027770996094" stroke-width="2.0" fill="none" stroke="rgb(0, 0, 0)" stroke-opacity="1" stroke-linecap="round" stroke-linejoin="round"/>
    <path d="M 123.25806427001953 208.05450439453125 C 142.58087158203125 176.5638427734375 125.86150360107422 180.47837829589844 143.78834533691406 190.63365173339844" stroke-width="2.0" fill="none" stroke="rgb(0, 0, 0)" stroke-opacity="1" stroke-linecap="round" stroke-linejoin="round"/>
    <path d="M 128.13381958007812 50.405696868896484 C 158.83541870117188 63.25398635864258 140.83544921875 73.72647094726562 118.72598266601562 71.90544891357422" stroke-width="2.0" fill="none" stroke="rgb(0, 0, 0)" stroke-opacity="1" stroke-linecap="round" stroke-linejoin="round"/>
    <path d="M 84.82665252685547 156.25718688964844 C 97.17062377929688 170.2868194580078 102.96648406982422 171.12071228027344 100.333984375 179.51805114746094 C 65.36244201660156 168.76376342773438 62.70405197143555 153.85231018066406 101.54564666748047 172.4403839111328" stroke-width="2.0" fill="none" stroke="rgb(0, 0, 0)" stroke-opacity="1" stroke-linecap="round" stroke-linejoin="round"/>
    <path d="M 204.01402282714844 162.6350860595703 C 239.80734252929688 167.44500732421875 233.4388885498047 156.46141052246094 219.591064453125 176.3644256591797" stroke-width="2.0" fill="none" stroke="rgb(0, 0, 0)" stroke-opacity="1" stroke-linecap="round" stroke-linejoin="round"/>
    <path d="M 121.55931854248047 80.1673812866211 C 117.64897918701172 94.28179931640625 140.18984985351562 95.32135772705078 138.72447204589844 46.71947479248047 C 125.0219955444336 91.19020080566406 118.18428039550781 72.46521759033203 129.44509887695312 82.72069549560547 C 93.07963562011719 120.03734588623047 122.4244155883789 106.08325958251953 139.6608123779297 63.46309280395508" stroke-width="2.0" fill="none" stroke="rgb(0, 0, 0)" stroke-opacity="1" stroke-linecap="round" stroke-linejoin="round"/>
    <path d="M 41.17800521850586 51.138938903808594 C 3.2591865062713623 61.488590240478516 7.117648601531982 57.365997314453125 2.101557493209839 28.25490379333496 C -30.071165084838867 25.719594955444336 -35.397743225097656 25.57306480407715 -30.031003952026367 13.104313850402832" stroke-width="2.0" fill="none" stroke="rgb(0, 0, 0)" stroke-opacity="1" stroke-linecap="round" stroke-linejoin="round"/>
    <path d="M 195.6306915283203 75.17291259765625 C 184.21875 108.98992919921875 190.2416534423828 121.22999572753906 201.97903442382812 79.90647888183594 C 210.24778747558594 88.01445770263672 244.111083984375 92.4232177734375 231.74517822265625 98.1211929321289 C 219.3219757080078 144.7899932861328 217.1625213623047 112.54318237304688 233.5441131591797 108.02281951904297" stroke-width="2.0" fill="none" stroke="rgb(0, 0, 0)" stroke-opacity="1" stroke-linecap="round" stroke-linejoin="round"/>
    <path d="M 63.66023254394531 138.49903869628906 C 76.29078674316406 113.98746490478516 62.57322692871094 122.93132781982422 56.55200958251953 149.66944885253906" stroke-width="2.0" fill="none" stroke="rgb(0, 0, 0)" stroke-opacity="1" stroke-linecap="round" stroke-linejoin="round"/>
    <path d="M 11.079483985900879 221.14346313476562 C -24.204748153686523 204.60006713867188 -13.85102367401123 199.9588623046875 -5.804782867431641 216.4197998046875 C -12.882378578186035 207.87127685546875 -8.210163116455078 209.8413543701172 -10.637484550476074 204.3881072998047 C -12.297195434570312 214.7386474609375 -21.262836456298828 208.44732666015625 -29.98678207397461 201.44268798828125" stroke-width="2.0" fill="none" stroke="rgb(0, 0, 0)" stroke-opacity="1" stroke-linecap="round" stroke-linejoin="round"/>
    <path d="M 130.99240112304688 123.49349975585938 C 107.84033966064453 130.3683624267578 107.2423095703125 71.02596282958984 127.59100341796875 99.86481475830078" stroke-width="2.0" fill="none" stroke="rgb(0, 0, 0)" stroke-opacity="1" stroke-linecap="round" stroke-linejoin="round"/>
    <path d="M 41.072608947753906 52.59545135498047 C 28.32402229309082 17.23259162902832 57.055850982666016 49.42076873779297 40.90509796142578 36.28859329223633 C 88.12693786621094 28.769521713256836 74.2979507446289 11.025565147399902 77.73883819580078 33.360931396484375 C 64.80555725097656 32.2847785949707 88.7745361328125 5.081347942352295 46.07221984863281 19.021203994750977" stroke-width="2.0" fill="none" stroke="rgb(0, 0, 0)" stroke-opacity="1" stroke-linecap="round" stroke-linejoin="round"/>
    <path d="M 183.0504913330078 91.78934478759766 C 180.2329559326172 92.29346466064453 200.868896484375 39.14252471923828 179.2293243408203 48.11125183105469 C 171.78353881835938 28.8682804107666 185.78245544433594 69.18281555175781 146.79981994628906 108.29019927978516 C 167.168212890625 92.28179168701172 173.2055206298828 74.94414520263672 176.5849609375 57.48036575317383" stroke-width="2.0" fill="none" stroke="rgb(0, 0, 0)" stroke-opacity="1" stroke-linecap="round" stroke-linejoin="round"/>
    <path d="M 183.81922912597656 135.35643005371094 C 203.08114624023438 144.41534423828125 204.16162109375 137.99314880371094 204.85609436035156 142.1117706298828 C 206.29493713378906 126.9963607788086 213.65447998046875 122.79141998291016 199.16900634765625 141.18194580078125 C 215.8314666748047 143.9725341796875 194.83502197265625 134.4840850830078 189.07652282714844 126.00936889648438" stroke-width="2.0" fill="none" stroke="rgb(0, 0, 0)" stroke-opacity="1" stroke-linecap="round" stroke-linejoin="round"/>
    <path d="M 193.16807556152344 128.8607177734375 C 184.4711456298828 114.5483627319336 202.50625610351562 131.6591339111328 190.4173126220703 131.38970947265625" stroke-width="2.0" fill="none" stroke="rgb(0, 0, 0)" stroke-opacity="1" stroke-linecap="round" stroke-linejoin="round"/>
    <path d="M 116.64453125 179.90118408203125 C 124.8819808959961 141.6213836669922 113.42943572998047 163.3053436279297 133.66336059570312 177.46502685546875" stroke-width="2.0" fill="none" stroke="rgb(0, 0, 0)" stroke-opacity="1" stroke-linecap="round" stroke-linejoin="round"/>
    <path d="M 225.66664123535156 201.63323974609375 C 266.2096862792969 207.43478393554688 238.3267822265625 184.05242919921875 217.45587158203125 187.19381713867188 C 221.14663696289062 181.7600555419922 231.80670166015625 153.0712432861328 220.343994140625 169.54281616210938" stroke-width="2.0" fill="none" stroke="rgb(0, 0, 0)" stroke-opacity="1" stroke-linecap="round" stroke-linejoin="round"/>
    <path d="M 34.39925003051758 27.701814651489258 C 30.510459899902344 25.534006118774414 65.86573028564453 28.774961471557617 78.90069580078125 25.966644287109375" stroke-width="2.0" fill="none" stroke="rgb(0, 0, 0)" stroke-opacity="1" stroke-linecap="round" stroke-linejoin="round"/>
    <path d="M 24.736732482910156 98.49469757080078 C 23.810121536254883 95.49055480957031 29.611434936523438 101.19973754882812 19.246538162231445 97.22061920166016 C 30.378658294677734 101.83856964111328 18.712682723999023 97.56489562988281 27.234508514404297 99.52165985107422 C 10.65614128112793 96.72794342041016 9.910918235778809 88.84928894042969 4.537466049194336 50.47085189819336" stroke-width="2.0" fill="none" stroke="rgb(0, 0, 0)" stroke-opacity="1" stroke-linecap="round" stroke-linejoin="round"/>
    <path d="M 64.8777084350586 109.6268310546875 C 80.24845123291016 92.2123794555664 84.41791534423828 108.6030502319336 64.78712463378906 103.76918029785156 C 80.66227722167969 104.4340591430664 64.32282257080078 98.76979064941406 58.251922607421875 47.49641418457031 C 67.54469299316406 64.6568603515625 45.3286018371582 79.73966217041016 33.03584671020508 47.85477066040039" stroke-width="2.0" fill="none" stroke="rgb(0, 0, 0)" stroke-opacity="1" stroke-linecap="round" stroke-linejoin="round"/>
    <path d="M 193.1070556640625 30.391557693481445 C 187.3693389892578 22.891132354736328 196.2655487060547 46.9782829284668 207.75631713867188 76.52938842773438" stroke-width="2.0" fill="none" stroke="rgb(0, 0, 0)" stroke-opacity="1" stroke-linecap="round" stroke-linejoin="round"/>
    <path d="M 134.116455078125 115.3176498413086 C 135.02699279785156 118.76982879638672 125.98845672607422 112.76165771484375 141.5797119140625 118.43998718261719 C 155.69190979003906 105.25261688232422 164.08872985839844 107.50482940673828 138.15386962890625 123.09831237792969 C 141.57342529296875 109.74285888671875 145.94483947753906 130.81967163085938 90.44092559814453 125.94973754882812" stroke-width="2.0" fill="none" stroke="rgb(0, 0, 0)" stroke-opacity="1" stroke-linecap="round" stroke-linejoin="round"/>
    <path d="M 108.57415771484375 54.438350677490234 C 101.92096710205078 43.82529067993164 109.03653717041016 54.10408020019531 78.69137573242188 68.83795928955078" stroke-width="2.0" fill="none" stroke="rgb(0, 0, 0)" stroke-opacity="1" stroke-linecap="round" stroke-linejoin="round"/>
    <path d="M -7.500263690948486 3.282691478729248 C -5.721181392669678 36.407615661621094 2.1082897186279297 39.57780075073242 -14.708769798278809 32.456825256347656 C -0.40909790992736816 23.615976333618164 -3.012829303741455 19.10843276977539 -2.193031072616577 34.42768859863281 C -3.7249109745025635 29.13707733154297 -9.793680191040039 34.014278411865234 1.9961473941802979 34.57462692260742" stroke-width="2.0" fill="none" stroke="rgb(0, 0, 0)" stroke-opacity="1" stroke-linecap="round" stroke-linejoin="round"/>
    <path d="M 125.05329132080078 179.79925537109375 C 121.6132583618164 158.32981872558594 109.58788299560547 153.99818420410156 129.90658569335938 164.97512817382812 C 111.16544342041016 158.9492645263672 153.79769897460938 183.12608337402344 109.5994873046875 145.31317138671875" stroke-width="2.0" fill="none" stroke="rgb(0, 0, 0)" stroke-opacity="1" stroke-linecap="round" stroke-linejoin="round"/>
    <path d="M 64.11909484863281 95.98754119873047 C 68.84082794189453 86.63922882080078 60.82564926147461 97.19331359863281 78.45657348632812 107.65741729736328 C 65.4398193359375 106.864990234375 74.9566421508789 105.856689453125 77.4788818359375 101.47190856933594" stroke-width="2.0" fill="none" stroke="rgb(0, 0, 0)" stroke-opacity="1" stroke-linecap="round" stroke-linejoin="round"/>
    <path d="M -5.336595058441162 114.3874282836914 C 4.931211948394775 97.46208190917969 -6.899059295654297 88.57730102539062 -4.6840667724609375 86.98038482666016 C -16.967548370361328 91.0614242553711 -22.784774780273438 101.9397964477539 -26.64138412475586 91.23106384277344 C -35.57797622680664 95.61109924316406 -31.38229751586914 89.18268585205078 -23.899595260620117 94.29228973388672" stroke-width="2.0" fill="none" stroke="rgb(0, 0, 0)" stroke-opacity="1" stroke-linecap="round" stroke-linejoin="round"/>
    <path d="M 79.7048110961914 31.402956008911133 C 40.06984329223633 51.41461944580078 41.74123764038086 35.33860778808594 53.418312072753906 73.06321716308594 C 61.99866485595703 64.73649597167969 52.794105529785156 45.7470588684082 55.81311798095703 34.81421661376953 C 19.209951400756836 41.51716995239258 33.96601104736328 22.103038787841797 35.690067291259766 42.785377502441406" stroke-width="2.0" fill="none" stroke="rgb(0, 0, 0)" stroke-opacity="1" stroke-linecap="round" stroke-linejoin="round"/>
    <path d="M 88.10437774658203 110.91061401367188 C 55.80325698852539 105.3375473022461 48.3098030090332 72.74172973632812 66.93937683105469 89.7213134765625 C 54.9035530090332 54.34674835205078 76.45862579345703 92.19386291503906 75.25450134277344 108.28146362304688" stroke-width="2.0" fill="none" stroke="rgb(0, 0, 0)" stroke-opacity="1" stroke-linecap="round" stroke-linejoin="round"/>
    <path d="M -6.298951148986816 169.5021209716797 C -17.040542602539062 189.7169647216797 2.6349422931671143 179.41383361816406 -9.572065353393555 176.2497100830078" stroke-width="2.0" fill="none" stroke="rgb(0, 0, 0)" stroke-opacity="1" stroke-linecap="round" stroke-linejoin="round"/>
    <path d="M 185.44732666015625 11.76688289642334 C 182.15023803710938 8.840131759643555 205.96319580078125 11.539714813232422 226.31336975097656 -4.738701820373535" stroke-width="2.0" fill="none" stroke="rgb(0, 0, 0)" stroke-opacity="1" stroke-linecap="round" stroke-linejoin="round"/>
    <path d="M 33.38063430786133 165.27227783203125 C 67.49642181396484 138.17112731933594 41.946834564208984 174.31454467773438 65.06167602539062 131.05567932128906 C 45.19953155517578 159.330810546875 42.19585037231445 159.0808563232422 64.40161895751953 140.46591186523438 C 40.854793548583984 182.68963623046875 25.520610809326172 137.93026733398438 48.512535095214844 161.52212524414062" stroke-width="2.0" fill="none" stroke="rgb(0, 0, 0)" stroke-opacity="1" stroke-linecap="round" stroke-linejoin="round"/>
    <path d="M 24.936832427978516 166.5876007080078 C 37.16790008544922 174.7410888671875 29.337444305419922 166.22311401367188 29.774311065673828 174.1204071044922 C 59.335365295410156 144.5562744140625 43.66482925415039 159.4164276123047 -3.0126566886901855 176.2919158935547" stroke-width="2.0" fill="none" stroke="rgb(0, 0, 0)" stroke-opacity="1" stroke-linecap="round" stroke-linejoin="round"/>
    <path d="M 152.3793487548828 54.761932373046875 C 133.40316772460938 83.576416015625 134.4943389892578 106.38311004638672 152.6199951171875 57.423248291015625 C 131.1720733642578 77.25273895263672 154.8348846435547 70.780517578125 141.01138305664062 51.17805099487305 C 146.02122497558594 76.26667022705078 138.6199951171875 82.5506820678711 137.3356475830078 65.13439178466797" stroke-width="2.0" fill="none" stroke="rgb(0, 0, 0)" stroke-opacity="1" stroke-linecap="round" stroke-linejoin="round"/>
    <path d="M 189.12026977539062 119.21028137207031 C 212.3892059326172 81.98238372802734 173.57037353515625 75.38139343261719 200.63941955566406 85.57647705078125" stroke-width="2.0" fill="none" stroke="rgb(0, 0, 0)" stroke-opacity="1" stroke-linecap="round" stroke-linejoin="round"/>
    <path d="M 72.51056671142578 192.22921752929688 C 98.4696044921875 187.44454956054688 106.06635284423828 188.23696899414062 99.39066314697266 165.9366912841797" stroke-width="2.0" fill="none" stroke="rgb(0, 0, 0)" stroke-opacity="1" stroke-linecap="round" stroke-linejoin="round"/>
    <path d="M 133.0175323486328 177.1573028564453 C 158.35630798339844 188.0812530517578 161.5471649169922 195.1896209716797 128.23565673828125 182.6404571533203" stroke-width="2.0" fill="none" stroke="rgb(0, 0, 0)" stroke-opacity="1" stroke-linecap="round" stroke-linejoin="round"/>
    <path d="M 231.3727569580078 145.8347625732422 C 230.60031127929688 145.50404357910156 217.4505615234375 138.05479431152344 233.07798767089844 143.24786376953125" stroke-width="2.0" fill="none" stroke="rgb(0, 0, 0)" stroke-opacity="1" stroke-linecap="round" stroke-linejoin="round"/>
    <path d="M 98.24358367919922 165.15997314453125 C 89.57904052734375 211.73062133789062 66.17865753173828 224.43336486816406 93.49590301513672 183.52590942382812 C 104.57469177246094 170.0945587158203 92.71893310546875 170.1776885986328 95.11595916748047 192.50209045410156 C 110.5371322631836 183.03733825683594 59.05707550048828 188.84718322753906 83.83375549316406 184.55194091796875" stroke-width="2.0" fill="none" stroke="rgb(0, 0, 0)" stroke-opacity="1" stroke-linecap="round" stroke-linejoin="round"/>
    <path d="M 66.74458312988281 77.38125610351562 C 50.1180305480957 76.42444610595703 24.144216537475586 95.80854797363281 58.4286994934082 68.26293182373047" stroke-width="2.0" fill="none" stroke="rgb(0, 0, 0)" stroke-opacity="1" stroke-linecap="round" stroke-linejoin="round"/>
    <path d="M 210.92056274414062 136.2723846435547 C 190.3467254638672 124.6575927734375 233.44036865234375 137.75868225097656 245.89173889160156 137.47006225585938 C 227.9847869873047 123.98914337158203 228.1108856201172 123.4279556274414 226.46502685546875 154.04080200195312" stroke-width="2.0" fill="none" stroke="rgb(0, 0, 0)" stroke-opacity="1" stroke-linecap="round" stroke-linejoin="round"/>
    <path d="M 135.1216278076172 64.73177337646484 C 127.6123046875 70.7865219116211 126.15345001220703 64.37242889404297 143.23828125 69.39200592041016 C 131.69818115234375 95.6298828125 138.32359313964844 84.06195831298828 136.71893310546875 55.49428176879883 C 130.32891845703125 82.45718383789062 129.7782745361328 107.72624206542969 119.30672454833984 89.79924774169922" stroke-width="2.0" fill="none" stroke="rgb(0, 0, 0)" stroke-opacity="1" stroke-linecap="round" stroke-linejoin="round"/>
    <path d="M 62.23268508911133 143.5572052001953 C 75.39683532714844 124.45036315917969 65.17648315429688 129.04385375976562 67.2610855102539 129.6895294189453 C 49.491920471191406 121.85105895996094 45.097557067871094 113.58760833740234 52.597103118896484 121.502685546875 C 29.10057258605957 122.59595489501953 67.30982971191406 118.6579360961914 16.699796676635742 133.70425415039062" stroke-width="2.0" fill="none" stroke="rgb(0, 0, 0)" stroke-opacity="1" stroke-linecap="round" stroke-linejoin="round"/>
    <path d="M 156.43716430664062 142.0184326171875 C 178.8760986328125 136.1009521484375 162.9785919189453 127.98492431640625 171.68463134765625 137.18821716308594 C 179.94464111328125 123.62481689453125 193.65267944335938 119.18632507324219 198.48385620117188 79.3734359741211 C 189.26792907714844 82.39598083496094 177.6787109375 132.76483154296875 188.27833557128906 107.92588806152344" stroke-width="2.0" fill="none" stroke="rgb(0, 0, 0)" stroke-opacity="1" stroke-linecap="round" stroke-linejoin="round"/>
    <path d="M 179.03289794921875 164.34178161621094 C 189.72430419921875 183.72811889648438 179.7040557861328 195.66732788085938 176.22682189941406 210.5830535888672" stroke-width="2.0" fill="none" stroke="rgb(0, 0, 0)" stroke-opacity="1" stroke-linecap="round" stroke-linejoin="round"/>
    <path d="M 14.779358863830566 226.88165283203125 C 50.501949310302734 231.7783660888672 36.62837219238281 221.27915954589844 28.1732120513916 229.60092163085938 C 21.99344253540039 224.64930725097656 28.388160705566406 226.59857177734375 27.4979248046875 237.77882385253906" stroke-width="2.0" fill="none" stroke="rgb(0, 0, 0)" stroke-opacity="1" stroke-linecap="round" stroke-linejoin="round"/>
    <path d="M 81.73606872558594 113.02503967285156 C 93.958740234375 118.0325698852539 68.89488983154297 82.98326873779297 73.73393249511719 103.8114013671875 C 98.37989807128906 116.0111312866211 73.36051177978516 117.03792572021484 62.862125396728516 95.3461685180664" stroke-width="2.0" fill="none" stroke="rgb(0, 0, 0)" stroke-opacity="1" stroke-linecap="round" stroke-linejoin="round"/>
    <path d="M 134.93341064453125 89.26005554199219 C 131.58087158203125 84.10811614990234 145.61740112304688 104.15565490722656 125.55912017822266 76.05577087402344" stroke-width="2.0" fill="none" stroke="rgb(0, 0, 0)" stroke-opacity="1" stroke-linecap="round" stroke-linejoin="round"/>
    <path d="M 183.62588500976562 40.99778747558594 C 185.4109649658203 49.638771057128906 178.88055419921875 20.2891902923584 174.8690948486328 12.088692665100098 C 169.9794464111328 12.80850601196289 173.7117919921875 2.5021088123321533 188.61289978027344 22.603347778320312" stroke-width="2.0" fill="none" stroke="rgb(0, 0, 0)" stroke-opacity="1" stroke-linecap="round" stroke-linejoin="round"/>
    <path d="M 121.00382232666016 37.022071838378906 C 117.12361907958984 59.45823669433594 110.7530288696289 52.27192687988281 124.00667572021484 -3.3032820224761963 C 84.96234893798828 9.237775802612305 66.03675079345703 2.4157867431640625 98.02644348144531 -8.367888450622559" stroke-width="2.0" fill="none" stroke="rgb(0, 0, 0)" stroke-opacity="1" stroke-linecap="round" stroke-linejoin="round"/>
    <path d="M 95.40176391601562 118.79939270019531 C 84.78791809082031 118.40229797363281 62.643611907958984 119.85279846191406 89.81375885009766 113.36331176757812 C 73.93566131591797 110.32025146484375 79.04930114746094 100.45638275146484 96.19734954833984 112.97171020507812 C 81.0786361694336 103.39079284667969 72.77735900878906 87.77584838867188 66.99343872070312 71.70557403564453" stroke-width="2.0" fill="none" stroke="rgb(0, 0, 0)" stroke-opacity="1" stroke-linecap="round" stroke-linejoin="round"/>
    <path d="M 191.81689453125 121.72459411621094 C 157.30055236816406 159.38426208496094 167.94261169433594 133.69549560546875 174.6225128173828 164.07960510253906 C 176.90646362304688 158.6533660888672 197.2099609375 150.8945770263672 157.13214111328125 163.46383666992188" stroke-width="2.0" fill="none" stroke="rgb(0, 0, 0)" stroke-opacity="1" stroke-linecap="round" stroke-linejoin="round"/>
    <path d="M 76.38383483886719 174.42440795898438 C 62.26298141479492 166.96849060058594 47.385684967041016 178.9075927734375 87.47947692871094 184.17105102539062 C 100.85092163085938 168.71971130371094 79.04004669189453 169.0575714111328 97.02313232421875 158.3137969970703" stroke-width="2.0" fill="none" stroke="rgb(0, 0, 0)" stroke-opacity="1" stroke-linecap="round" stroke-linejoin="round"/>
    <path d="M 28.16010093688965 129.77398681640625 C 73.09527587890625 109.96717834472656 64.71815490722656 91.98827362060547 61.74739074707031 102.8511962890625 C 45.01386642456055 116.56437683105469 -25.076021194458008 150.76385498046875 54.68867492675781 113.59274291992188" stroke-width="2.0" fill="none" stroke="rgb(0, 0, 0)" stroke-opacity="1" stroke-linecap="round" stroke-linejoin="round"/>
    <path d="M 168.5567169189453 85.25887298583984 C 173.7100830078125 83.46678924560547 183.28733825683594 75.6665267944336 152.3740234375 111.20133209228516 C 151.2644805908203 103.000244140625 178.77423095703125 98.32272338867188 134.9718780517578 117.97370910644531" stroke-width="2.0" fill="none" stroke="rgb(0, 0, 0)" stroke-opacity="1" stroke-linecap="round" stroke-linejoin="round"/>
    <path d="M 77.81715393066406 42.203025817871094 C 83.96372985839844 26.98602867126465 81.9024429321289 39.01140213012695 61.67610549926758 41.93583297729492" stroke-width="2.0" fill="none" stroke="rgb(0, 0, 0)" stroke-opacity="1" stroke-linecap="round" stroke-linejoin="round"/>
    <path d="M 167.44073486328125 90.11670684814453 C 162.9585723876953 100.68241882324219 151.62030029296875 85.53239440917969 200.60238647460938 104.70470428466797 C 149.5673370361328 110.37578582763672 170.00503540039062 66.49484252929688 171.68942260742188 88.22872924804688 C 155.9696044921875 119.06005096435547 143.11569213867188 126.50790405273438 127.35857391357422 77.15033721923828" stroke-width="2.0" fill="none" stroke="rgb(0, 0, 0)" stroke-opacity="1" stroke-linecap="round" stroke-linejoin="round"/>
    <path d="M 29.437021255493164 223.6988525390625 C 71.45891571044922 207.17398071289062 87.0450210571289 192.59295654296875 50.66853713989258 225.63473510742188 C 21.04994773864746 223.19273376464844 28.738672256469727 230.9427490234375 52.47317123413086 226.7943572998047 C 65.31831359863281 213.69447326660156 81.04597473144531 202.1487579345703 95.30474853515625 169.34425354003906" stroke-width="2.0" fill="none" stroke="rgb(0, 0, 0)" stroke-opacity="1" stroke-linecap="round" stroke-linejoin="round"/>
    <path d="M -8.834392547607422 178.31710815429688 C 32.56029510498047 172.15956115722656 31.453750610351562 158.61398315429688 46.70125961303711 163.85665893554688 C -4.185793876647949 179.29090881347656 14.107789993286133 198.636962890625 0.08792559802532196 109.79617309570312" stroke-width="2.0" fill="none" stroke="rgb(0, 0, 0)" stroke-opacity="1" stroke-linecap="round" stroke-linejoin="round"/>
    <path d="M 25.636945724487305 98.73553466796875 C 12.390923500061035 70.03328704833984 9.100339889526367 50.69296646118164 16.31836700439453 74.51730346679688 C 51.443138122558594 75.20941162109375 89.55207061767578 63.76734924316406 37.27355194091797 84.3926010131836" stroke-width="2.0" fill="none" stroke="rgb(0, 0, 0)" stroke-opacity="1" stroke-linecap="round" stroke-linejoin="round"/>
    <path d="M 141.82005310058594 225.1066436767578 C 158.02340698242188 216.64559936523438 176.06546020507812 196.3817596435547 175.57566833496094 154.3430633544922 C 185.55738830566406 163.33995056152344 168.5338134765625 189.99935913085938 181.1781463623047 156.77574157714844" stroke-width="2.0" fill="none" stroke="rgb(0, 0, 0)" stroke-opacity="1" stroke-linecap="round" stroke-linejoin="round"/>
    <path d="M 149.58822631835938 196.13876342773438 C 148.55804443359375 171.26283264160156 132.39022827148438 202.4513702392578 140.1901397705078 214.09234619140625 C 139.3680877685547 212.30514526367188 139.37278747558594 219.93572998046875 141.571044921875 215.98887634277344 C 162.55686950683594 227.7623748779297 125.48959350585938 219.69126892089844 152.5941619873047 232.11563110351562" stroke-width="2.0" fill="none" stroke="rgb(0, 0, 0)" stroke-opacity="1" stroke-linecap="round" stroke-linejoin="round"/>
    <path d="M 40.540435791015625 27.180021286010742 C 24.468360900878906 36.532440185546875 28.79667854309082 26.341707229614258 70.02835845947266 21.21054458618164 C 56.91902160644531 3.294938325881958 63.711002349853516 11.193163871765137 64.44971466064453 13.377653121948242 C 75.12664031982422 6.557725429534912 68.39948272705078 31.63947296142578 69.43086242675781 19.24810028076172" stroke-width="2.0" fill="none" stroke="rgb(0, 0, 0)" stroke-opacity="1" stroke-linecap="round" stroke-linejoin="round"/>
    <path d="M 228.51007080078125 3.934424877166748 C 156.65916442871094 12.51038932800293 157.0194854736328 16.30743980407715 217.02786254882812 -0.7749031782150269 C 190.31570434570312 17.122827529907227 153.20220947265625 13.14991283416748 192.21995544433594 9.140835762023926" stroke-width="2.0" fill="none" stroke="rgb(0, 0, 0)" stroke-opacity="1" stroke-linecap="round" stroke-linejoin="round"/>
    <path d="M 146.02769470214844 161.572021484375 C 151.86463928222656 163.4380340576172 174.61180114746094 170.2670440673828 160.63705444335938 151.7285919189453" stroke-width="2.0" fill="none" stroke="rgb(0, 0, 0)" stroke-opacity="1" stroke-linecap="round" stroke-linejoin="round"/>
    <path d="M 170.33895874023438 126.27928161621094 C 175.6686248779297 148.4844207763672 188.10597229003906 130.49758911132812 193.03363037109375 123.9357681274414 C 216.17221069335938 133.42196655273438 211.30935668945312 124.80058288574219 202.43487548828125 138.72860717773438 C 182.39224243164062 140.2411346435547 146.69985961914062 151.0476531982422 189.7209014892578 146.8926239013672" stroke-width="2.0" fill="none" stroke="rgb(0, 0, 0)" stroke-opacity="1" stroke-linecap="round" stroke-linejoin="round"/>
  </g>
</svg>
