<?xml version="1.0" ?>
<svg xmlns="http://www.w3.org/2000/svg" version="1.1" width="224" height="224">
  <defs/>
  <g>
    <path d="M 58.02127456665039 91.86475372314453 C 104.2993392944336 89.29044342041016 116.66860961914062 92.94080352783203 61.25995635986328 92.61622619628906 C 22.81340789794922 122.69486999511719 87.50235748291016 97.30809783935547 82.16636657714844 124.31063079833984 C 80.94817352294922 133.4827117919922 89.95933532714844 101.76103973388672 101.46163177490234 101.45061492919922" stroke-width="2.0" fill="none" stroke="rgb(0, 0, 0)" stroke-opacity="1" stroke-linecap="round" stroke-linejoin="round"/>
    <path d="M 202.75320434570312 233.6504364013672 C 196.37767028808594 221.78561401367188 199.54034423828125 217.79075622558594 235.10533142089844 214.65347290039062" stroke-width="2.0" fill="none" stroke="rgb(0, 0, 0)" stroke-opacity="1" stroke-linecap="round" stroke-linejoin="round"/>
    <path d="M 180.80245971679688 122.05989074707031 C 126.44474029541016 116.27458953857422 145.15553283691406 137.21156311035156 141.06130981445312 165.76828002929688 C 131.7801971435547 114.72331237792969 132.6422576904297 126.76152038574219 141.07554626464844 135.75381469726562 C 154.86175537109375 115.9936294555664 151.2979278564453 136.5905303955078 144.023193359375 148.56947326660156" stroke-width="2.0" fill="none" stroke="rgb(0, 0, 0)" stroke-opacity="1" stroke-linecap="round" stroke-linejoin="round"/>
    <path d="M 31.214618682861328 163.22439575195312 C -2.6068501472473145 165.09347534179688 18.46415138244629 148.69247436523438 29.916790008544922 155.54083251953125 C 42.46288299560547 147.76019287109375 11.631033897399902 147.32498168945312 20.511308670043945 141.962646484375 C 49.763607025146484 165.0179443359375 13.290450096130371 148.01150512695312 29.882049560546875 137.82818603515625" stroke-width="2.0" fill="none" stroke="rgb(0, 0, 0)" stroke-opacity="1" stroke-linecap="round" stroke-linejoin="round"/>
    <path d="M 64.73916625976562 55.25645446777344 C 40.51042175292969 46.16682815551758 37.307159423828125 46.66053771972656 72.12047576904297 17.424360275268555" stroke-width="2.0" fill="none" stroke="rgb(0, 0, 0)" stroke-opacity="1" stroke-linecap="round" stroke-linejoin="round"/>
    <path d="M 47.97840118408203 53.84061813354492 C 36.019081115722656 37.55329513549805 27.245744705200195 68.46322631835938 33.522518157958984 32.7719841003418 C 86.8274917602539 26.165512084960938 32.97145462036133 26.37345314025879 49.8666877746582 49.191715240478516 C 67.00636291503906 41.284141540527344 75.45488739013672 26.655813217163086 68.11958312988281 39.957576751708984" stroke-width="2.0" fill="none" stroke="rgb(0, 0, 0)" stroke-opacity="1" stroke-linecap="round" stroke-linejoin="round"/>
    <path d="M 175.76522827148438 161.92579650878906 C 218.21807861328125 154.65110778808594 232.8139190673828 154.27789306640625 184.70309448242188 152.86434936523438" stroke-width="2.0" fill="none" stroke="rgb(0, 0, 0)" stroke-opacity="1" stroke-linecap="round" stroke-linejoin="round"/>
    <path d="M 211.65664672851562 117.70899200439453 C 236.574462890625 120.81526947021484 238.4345703125 109.6174545288086 227.9649658203125 132.27227783203125 C 211.3057098388672 127.4643325805664 225.37937927246094 128.73818969726562 233.09217834472656 130.49069213867188" stroke-width="2.0" fill="none" stroke="rgb(0, 0, 0)" stroke-opacity="1" stroke-linecap="round" stroke-linejoin="round"/>
    <path d="M 111.16111755371094 129.15347290039062 C 97.32384490966797 111.44173431396484 122.4845199584961 107.83119201660156 116.7037124633789 106.18629455566406 C 111.48348999023438 84.92218780517578 133.9984893798828 109.1151351928711 103.37865447998047 108.0649642944336 C 117.2947769165039 115.77001190185547 106.28510284423828 86.15966033935547 118.2917709350586 114.40545654296875" stroke-width="2.0" fill="none" stroke="rgb(0, 0, 0)" stroke-opacity="1" stroke-linecap="round" stroke-linejoin="round"/>
    <path d="M 156.8588104248047 203.26966857910156 C 199.8320770263672 183.3509063720703 233.33642578125 192.30213928222656 198.0869140625 180.71087646484375" stroke-width="2.0" fill="none" stroke="rgb(0, 0, 0)" stroke-opacity="1" stroke-linecap="round" stroke-linejoin="round"/>
    <path d="M 164.38136291503906 128.56954956054688 C 174.4009552001953 137.47250366210938 141.06393432617188 140.40040588378906 198.85464477539062 139.10162353515625 C 152.58079528808594 157.7124481201172 148.92315673828125 172.52745056152344 147.5918731689453 153.8194580078125" stroke-width="2.0" fill="none" stroke="rgb(0, 0, 0)" stroke-opacity="1" stroke-linecap="round" stroke-linejoin="round"/>
    <path d="M 161.7804718017578 153.18678283691406 C 158.27224731445312 166.5200958251953 176.44232177734375 150.07362365722656 151.2576141357422 160.28721618652344" stroke-width="2.0" fill="none" stroke="rgb(0, 0, 0)" stroke-opacity="1" stroke-linecap="round" stroke-linejoin="round"/>
    <path d="M 43.455718994140625 48.268375396728516 C 26.92597770690918 40.5011100769043 5.721520900726318 56.64314651489258 34.024715423583984 48.89293670654297" stroke-width="2.0" fill="none" stroke="rgb(0, 0, 0)" stroke-opacity="1" stroke-linecap="round" stroke-linejoin="round"/>
    <path d="M 90.42208099365234 74.0649185180664 C 115.76414489746094 56.00713348388672 108.00350952148438 55.56046676635742 87.556884765625 74.73564910888672" stroke-width="2.0" fill="none" stroke="rgb(0, 0, 0)" stroke-opacity="1" stroke-linecap="round" stroke-linejoin="round"/>
    <path d="M 150.5727996826172 71.7308120727539 C 125.54706573486328 66.08329772949219 128.08045959472656 62.03434753417969 150.0615234375 67.05684661865234" stroke-width="2.0" fill="none" stroke="rgb(0, 0, 0)" stroke-opacity="1" stroke-linecap="round" stroke-linejoin="round"/>
    <path d="M 27.96217918395996 139.52659606933594 C -9.503421783447266 139.0802459716797 -4.645993709564209 192.01576232910156 9.85305404663086 176.31634521484375 C -1.0271294116973877 173.54066467285156 -4.563234329223633 165.06402587890625 66.57361602783203 163.55165100097656" stroke-width="2.0" fill="none" stroke="rgb(0, 0, 0)" stroke-opacity="1" stroke-linecap="round" stroke-linejoin="round"/>
    <path d="M 160.199951171875 78.48301696777344 C 154.00830078125 52.1033935546875 207.22323608398438 82.08842468261719 192.44918823242188 64.84358215332031" stroke-width="2.0" fill="none" stroke="rgb(0, 0, 0)" stroke-opacity="1" stroke-linecap="round" stroke-linejoin="round"/>
    <path d="M 103.23524475097656 227.00865173339844 C 129.20547485351562 211.37771606445312 97.27179718017578 212.7435760498047 83.65259552001953 198.31529235839844 C 86.3835220336914 232.5865020751953 63.22896957397461 211.6341094970703 98.19092559814453 187.9517822265625" stroke-width="2.0" fill="none" stroke="rgb(0, 0, 0)" stroke-opacity="1" stroke-linecap="round" stroke-linejoin="round"/>
    <path d="M 45.145503997802734 0.24762789905071259 C -27.347612380981445 15.029303550720215 7.879280090332031 10.701139450073242 3.8449807167053223 -0.3803843557834625 C -15.698039054870605 30.933570861816406 -15.90521240234375 32.18476867675781 -16.843753814697266 35.28515625 C -13.58408260345459 -11.504475593566895 -5.5128679275512695 -16.805418014526367 -15.643415451049805 -12.187374114990234" stroke-width="2.0" fill="none" stroke="rgb(0, 0, 0)" stroke-opacity="1" stroke-linecap="round" stroke-linejoin="round"/>
    <path d="M 182.17955017089844 143.20233154296875 C 233.5182342529297 137.79884338378906 189.55296325683594 139.20806884765625 183.94679260253906 126.09693908691406" stroke-width="2.0" fill="none" stroke="rgb(0, 0, 0)" stroke-opacity="1" stroke-linecap="round" stroke-linejoin="round"/>
    <path d="M 12.380514144897461 178.73272705078125 C 16.62762451171875 155.36964416503906 -7.740049839019775 204.9761962890625 6.427344799041748 145.84449768066406 C -7.252935409545898 160.434326171875 -2.579638957977295 158.1835479736328 11.494988441467285 178.9840545654297" stroke-width="2.0" fill="none" stroke="rgb(0, 0, 0)" stroke-opacity="1" stroke-linecap="round" stroke-linejoin="round"/>
    <path d="M 180.09735107421875 148.7889862060547 C 202.28390502929688 146.45462036132812 183.7857208251953 157.97157287597656 147.55377197265625 145.1543731689453 C 203.80557250976562 133.62815856933594 226.1096954345703 147.30572509765625 149.2620391845703 150.9803009033203 C 214.21685791015625 160.0928497314453 222.27581787109375 137.58938598632812 152.27960205078125 152.864013671875" stroke-width="2.0" fill="none" stroke="rgb(0, 0, 0)" stroke-opacity="1" stroke-linecap="round" stroke-linejoin="round"/>
    <path d="M 87.4668197631836 141.2654266357422 C 115.36450958251953 127.7789535522461 62.62714767456055 144.49729919433594 32.62498474121094 139.09715270996094 C 124.51520538330078 126.89775085449219 156.07955932617188 146.54202270507812 87.7276840209961 124.56356811523438 C 90.71674346923828 109.79485321044922 98.98760986328125 103.13047790527344 72.95413970947266 104.3167495727539" stroke-width="2.0" fill="none" stroke="rgb(0, 0, 0)" stroke-opacity="1" stroke-linecap="round" stroke-linejoin="round"/>
    <path d="M 206.0060272216797 44.774837493896484 C 168.55506896972656 51.86497497558594 145.69810485839844 81.6012191772461 204.69732666015625 64.18777465820312 C 152.69529724121094 82.41873168945312 166.4952392578125 76.16231536865234 180.97674560546875 84.62983703613281 C 202.47607421875 63.277069091796875 241.70933532714844 72.23188018798828 204.9586181640625 81.88087463378906" stroke-width="2.0" fill="none" stroke="rgb(0, 0, 0)" stroke-opacity="1" stroke-linecap="round" stroke-linejoin="round"/>
    <path d="M 204.22276306152344 194.48948669433594 C 169.77511596679688 178.47711181640625 216.4520721435547 172.46441650390625 227.38433837890625 195.05624389648438 C 223.27859497070312 200.07830810546875 216.01040649414062 206.36376953125 237.72056579589844 214.285888671875 C 237.6154327392578 193.0145263671875 230.6906280517578 178.36453247070312 191.35882568359375 178.35105895996094" stroke-width="2.0" fill="none" stroke="rgb(0, 0, 0)" stroke-opacity="1" stroke-linecap="round" stroke-linejoin="round"/>
    <path d="M 153.5235595703125 192.7925567626953 C 122.9310302734375 181.61575317382812 131.0087127685547 164.71861267089844 165.7768096923828 159.26779174804688 C 125.44905090332031 163.1133270263672 110.58167266845703 169.05967712402344 148.37258911132812 184.10565185546875 C 166.49932861328125 184.0606231689453 160.8090057373047 154.95277404785156 150.03697204589844 188.3826141357422" stroke-width="2.0" fill="none" stroke="rgb(0, 0, 0)" stroke-opacity="1" stroke-linecap="round" stroke-linejoin="round"/>
    <path d="M 14.003405570983887 77.42672729492188 C 5.332333087921143 66.92970275878906 18.94719696044922 92.10527038574219 15.3715238571167 67.74891662597656 C 27.814281463623047 61.18217086791992 8.905402183532715 60.21338653564453 5.191140174865723 74.37287902832031 C 2.4727883338928223 98.16368103027344 -14.079855918884277 85.7640151977539 25.242347717285156 60.350196838378906" stroke-width="2.0" fill="none" stroke="rgb(0, 0, 0)" stroke-opacity="1" stroke-linecap="round" stroke-linejoin="round"/>
    <path d="M 215.83094787597656 112.01790618896484 C 244.407958984375 107.28919982910156 257.9634094238281 107.50273895263672 261.44317626953125 110.4889907836914 C 234.93309020996094 133.88851928710938 243.1950225830078 134.18084716796875 232.36605834960938 127.09239196777344" stroke-width="2.0" fill="none" stroke="rgb(0, 0, 0)" stroke-opacity="1" stroke-linecap="round" stroke-linejoin="round"/>
    <path d="M 146.08375549316406 175.28684997558594 C 137.26585388183594 184.68417358398438 123.17694091796875 203.16258239746094 140.0296173095703 197.55381774902344 C 145.98709106445312 172.68118286132812 179.78988647460938 169.98056030273438 141.77825927734375 177.0167236328125 C 158.9507293701172 183.95518493652344 181.54005432128906 173.14234924316406 169.69158935546875 173.28274536132812" stroke-width="2.0" fill="none" stroke="rgb(0, 0, 0)" stroke-opacity="1" stroke-linecap="round" stroke-linejoin="round"/>
    <path d="M 23.99698829650879 73.06927490234375 C -7.87394905090332 91.9073715209961 -21.350004196166992 82.47734832763672 42.000797271728516 84.21340942382812 C 54.050899505615234 97.60488891601562 31.542667388916016 92.78166961669922 2.0491249561309814 100.81988525390625" stroke-width="2.0" fill="none" stroke="rgb(0, 0, 0)" stroke-opacity="1" stroke-linecap="round" stroke-linejoin="round"/>
    <path d="M 51.40623474121094 84.08092498779297 C 23.610761642456055 99.59685516357422 6.082784175872803 104.84773254394531 31.150293350219727 100.06690979003906" stroke-width="2.0" fill="none" stroke="rgb(0, 0, 0)" stroke-opacity="1" stroke-linecap="round" stroke-linejoin="round"/>
    <path d="M 60.62306213378906 17.794675827026367 C 96.76741790771484 19.430622100830078 113.6591567993164 9.99127197265625 69.38961791992188 30.26000213623047 C 49.23394775390625 48.44898986816406 68.76609802246094 42.252586364746094 86.46077728271484 32.22015380859375 C 79.03457641601562 37.432918548583984 47.91545104980469 58.25921630859375 69.12910461425781 39.97605895996094" stroke-width="2.0" fill="none" stroke="rgb(0, 0, 0)" stroke-opacity="1" stroke-linecap="round" stroke-linejoin="round"/>
    <path d="M 180.39866638183594 52.65795135498047 C 224.67120361328125 60.612117767333984 209.8747100830078 43.73790740966797 168.35977172851562 57.18392562866211 C 182.538818359375 85.89200592041016 212.85910034179688 69.97359466552734 199.93934631347656 54.02227020263672" stroke-width="2.0" fill="none" stroke="rgb(0, 0, 0)" stroke-opacity="1" stroke-linecap="round" stroke-linejoin="round"/>
    <path d="M 21.875776290893555 186.9720916748047 C 70.57628631591797 190.15841674804688 54.40047073364258 177.68011474609375 55.535308837890625 203.6630096435547 C 18.20073699951172 219.29481506347656 26.365585327148438 205.34848022460938 53.4770622253418 195.13169860839844 C 14.519230842590332 210.0901641845703 7.704051971435547 186.50267028808594 63.020843505859375 194.11941528320312" stroke-width="2.0" fill="none" stroke="rgb(0, 0, 0)" stroke-opacity="1" stroke-linecap="round" stroke-linejoin="round"/>
    <path d="M 42.10283279418945 204.2606658935547 C 42.61241149902344 226.44976806640625 16.83485221862793 199.21945190429688 11.270269393920898 218.55825805664062 C -16.42494010925293 233.30455017089844 15.508773803710938 181.67710876464844 13.901472091674805 196.83441162109375" stroke-width="2.0" fill="none" stroke="rgb(0, 0, 0)" stroke-opacity="1" stroke-linecap="round" stroke-linejoin="round"/>
    <path d="M 18.148530960083008 108.05853271484375 C -0.9903536438941956 106.9704360961914 -2.5640015602111816 130.15306091308594 1.1485930681228638 114.09703063964844 C 2.4529635906219482 99.75105285644531 2.366159677505493 80.83787536621094 -3.852675676345825 128.9082489013672" stroke-width="2.0" fill="none" stroke="rgb(0, 0, 0)" stroke-opacity="1" stroke-linecap="round" stroke-linejoin="round"/>
    <path d="M 38.772098541259766 3.419735908508301 C -10.844179153442383 17.955732345581055 17.35896110534668 37.79744338989258 8.156147956848145 42.16984558105469 C -6.6829447746276855 21.788455963134766 19.94041633605957 24.75022315979004 -1.4908936023712158 57.04238510131836 C 8.833638191223145 11.16675853729248 -0.5288874506950378 51.68898010253906 -29.51484489440918 74.64571380615234" stroke-width="2.0" fill="none" stroke="rgb(0, 0, 0)" stroke-opacity="1" stroke-linecap="round" stroke-linejoin="round"/>
    <path d="M 102.26318359375 100.6524658203125 C 79.99254608154297 76.84504699707031 41.683815002441406 78.0207748413086 48.53074645996094 99.10619354248047" stroke-width="2.0" fill="none" stroke="rgb(0, 0, 0)" stroke-opacity="1" stroke-linecap="round" stroke-linejoin="round"/>
    <path d="M 177.16781616210938 197.6934051513672 C 166.38162231445312 207.19346618652344 204.64222717285156 194.64781188964844 237.79934692382812 214.01663208007812" stroke-width="2.0" fill="none" stroke="rgb(0, 0, 0)" stroke-opacity="1" stroke-linecap="round" stroke-linejoin="round"/>
    <path d="M 85.08414459228516 125.93240356445312 C 74.40962982177734 88.24836730957031 111.15939331054688 110.08589172363281 71.94273376464844 116.68962097167969 C 97.6117172241211 108.02142333984375 105.32532501220703 94.41299438476562 62.73408889770508 98.6282958984375" stroke-width="2.0" fill="none" stroke="rgb(0, 0, 0)" stroke-opacity="1" stroke-linecap="round" stroke-linejoin="round"/>
    <path d="M 193.854248046875 161.970947265625 C 182.49363708496094 167.64247131347656 184.9210662841797 157.84585571289062 139.40028381347656 176.23782348632812 C 194.63507080078125 185.17823791503906 213.2056121826172 169.72242736816406 199.1874237060547 179.14637756347656" stroke-width="2.0" fill="none" stroke="rgb(0, 0, 0)" stroke-opacity="1" stroke-linecap="round" stroke-linejoin="round"/>
    <path d="M 93.3268051147461 66.22445678710938 C 80.5537338256836 60.61035919189453 107.58182525634766 61.50630187988281 117.23876953125 67.63568878173828 C 97.73844146728516 55.897911071777344 90.20964813232422 85.84093475341797 105.19715118408203 81.47418975830078" stroke-width="2.0" fill="none" stroke="rgb(0, 0, 0)" stroke-opacity="1" stroke-linecap="round" stroke-linejoin="round"/>
    <path d="M 129.30780029296875 158.8029022216797 C 144.54953002929688 186.0958251953125 134.36778259277344 145.36123657226562 134.6674041748047 162.07504272460938 C 147.35638427734375 154.7743377685547 118.41024017333984 158.68460083007812 131.33273315429688 157.49383544921875 C 143.71591186523438 144.81399536132812 123.56620025634766 127.91704559326172 77.04212188720703 132.5263214111328" stroke-width="2.0" fill="none" stroke="rgb(0, 0, 0)" stroke-opacity="1" stroke-linecap="round" stroke-linejoin="round"/>
    <path d="M 79.46939086914062 32.37167739868164 C 74.55609893798828 47.357120513916016 48.98817825317383 26.00033950805664 112.24110412597656 33.02073287963867" stroke-width="2.0" fill="none" stroke="rgb(0, 0, 0)" stroke-opacity="1" stroke-linecap="round" stroke-linejoin="round"/>
    <path d="M 180.51866149902344 18.28253746032715 C 116.29270935058594 32.22682189941406 115.44378662109375 24.468591690063477 131.2668914794922 17.843664169311523 C 136.37828063964844 15.953534126281738 142.63528442382812 29.02474021911621 180.81033325195312 19.283477783203125 C 177.32994079589844 28.97641944885254 148.98471069335938 38.387760162353516 207.15460205078125 21.225563049316406" stroke-width="2.0" fill="none" stroke="rgb(0, 0, 0)" stroke-opacity="1" stroke-linecap="round" stroke-linejoin="round"/>
    <path d="M -0.6716315746307373 168.46824645996094 C 7.716294765472412 183.10293579101562 -1.4659435749053955 194.30392456054688 -19.322641372680664 192.899658203125 C -16.179201126098633 192.00941467285156 11.337756156921387 193.28192138671875 0.6550685167312622 205.84791564941406 C 2.934389591217041 191.19058227539062 -8.499674797058105 196.9767303466797 11.497274398803711 175.29847717285156" stroke-width="2.0" fill="none" stroke="rgb(0, 0, 0)" stroke-opacity="1" stroke-linecap="round" stroke-linejoin="round"/>
    <path d="M 148.1206817626953 153.76400756835938 C 170.5625 135.6170654296875 148.9796600341797 145.33843994140625 142.2495574951172 157.57594299316406 C 121.62029266357422 137.02146911621094 135.42308044433594 121.16922760009766 148.78060913085938 112.34026336669922" stroke-width="2.0" fill="none" stroke="rgb(0, 0, 0)" stroke-opacity="1" stroke-linecap="round" stroke-linejoin="round"/>
    <path d="M 173.0013885498047 193.84317016601562 C 213.24005126953125 206.65142822265625 207.95681762695312 184.4412078857422 157.3515167236328 194.3529815673828 C 200.73265075683594 203.86228942871094 218.91920471191406 184.28126525878906 162.11940002441406 191.0089874267578" stroke-width="2.0" fill="none" stroke="rgb(0, 0, 0)" stroke-opacity="1" stroke-linecap="round" stroke-linejoin="round"/>
    <path d="M 206.84161376953125 26.151439666748047 C 192.28936767578125 14.017762184143066 204.72567749023438 12.131688117980957 233.49607849121094 -0.28024017810821533" stroke-width="2.0" fill="none" stroke="rgb(0, 0, 0)" stroke-opacity="1" stroke-linecap="round" stroke-linejoin="round"/>
    <path d="M 157.60430908203125 75.99747467041016 C 135.42860412597656 62.69719696044922 161.58009338378906 57.00191116333008 151.48715209960938 63.35239028930664" stroke-width="2.0" fill="none" stroke="rgb(0, 0, 0)" stroke-opacity="1" stroke-linecap="round" stroke-linejoin="round"/>
    <path d="M 123.63053131103516 153.6773681640625 C 88.8232192993164 154.6060028076172 81.83421325683594 148.43939208984375 95.06844329833984 155.35292053222656 C 78.49722290039062 152.80316162109375 64.90614318847656 139.9130401611328 121.3584976196289 146.8497772216797 C 120.20390319824219 129.84542846679688 117.519775390625 139.92877197265625 85.41808319091797 138.08924865722656" stroke-width="2.0" fill="none" stroke="rgb(0, 0, 0)" stroke-opacity="1" stroke-linecap="round" stroke-linejoin="round"/>
    <path d="M 22.10361671447754 105.56591796875 C 5.012899398803711 105.4060287475586 8.261885643005371 132.62863159179688 54.406436920166016 124.9457015991211" stroke-width="2.0" fill="none" stroke="rgb(0, 0, 0)" stroke-opacity="1" stroke-linecap="round" stroke-linejoin="round"/>
    <path d="M 131.5660858154297 46.257381439208984 C 137.0450439453125 77.40531158447266 114.79939270019531 67.84844207763672 124.49272155761719 62.19325637817383 C 128.43064880371094 75.54988861083984 147.7576904296875 60.00699234008789 139.73089599609375 73.11808776855469" stroke-width="2.0" fill="none" stroke="rgb(0, 0, 0)" stroke-opacity="1" stroke-linecap="round" stroke-linejoin="round"/>
    <path d="M 155.67538452148438 85.28765869140625 C 196.2537841796875 93.43968200683594 170.59286499023438 79.19715118408203 121.61172485351562 79.03460693359375 C 153.71604919433594 90.05529022216797 106.26963806152344 95.9276123046875 170.73289489746094 91.96629333496094" stroke-width="2.0" fill="none" stroke="rgb(0, 0, 0)" stroke-opacity="1" stroke-linecap="round" stroke-linejoin="round"/>
    <path d="M 39.58125305175781 67.33958435058594 C 105.66124725341797 86.08162689208984 68.13209533691406 67.64312744140625 52.646018981933594 66.21410369873047 C 64.52885437011719 56.3632698059082 28.962759017944336 39.93217849731445 35.206607818603516 43.183616638183594 C 36.52217102050781 26.800935745239258 43.494869232177734 42.356746673583984 44.93070602416992 57.859588623046875" stroke-width="2.0" fill="none" stroke="rgb(0, 0, 0)" stroke-opacity="1" stroke-linecap="round" stroke-linejoin="round"/>
    <path d="M 225.9471435546875 51.31700134277344 C 237.8115692138672 50.63227462768555 241.54391479492188 39.64009475708008 248.21636962890625 38.64759063720703 C 247.25257873535156 16.586275100708008 239.0638427734375 14.031993865966797 247.97006225585938 19.413755416870117" stroke-width="2.0" fill="none" stroke="rgb(0, 0, 0)" stroke-opacity="1" stroke-linecap="round" stroke-linejoin="round"/>
    <path d="M 134.05450439453125 122.05570983886719 C 109.14204406738281 108.87205505371094 142.52003479003906 143.36953735351562 121.05655670166016 140.32716369628906 C 138.55262756347656 138.75076293945312 129.38951110839844 152.16653442382812 163.71339416503906 159.77218627929688 C 135.837890625 148.89700317382812 144.49276733398438 125.34992980957031 164.06947326660156 137.14906311035156" stroke-width="2.0" fill="none" stroke="rgb(0, 0, 0)" stroke-opacity="1" stroke-linecap="round" stroke-linejoin="round"/>
    <path d="M 55.04828643798828 222.3103485107422 C -2.081831216812134 210.3110809326172 24.659772872924805 211.17967224121094 84.01512145996094 197.5074462890625 C -15.693869590759277 198.4841766357422 -17.649261474609375 203.18702697753906 55.192718505859375 177.94183349609375 C -4.146827697753906 175.75624084472656 -25.340362548828125 199.61532592773438 16.135299682617188 164.77877807617188" stroke-width="2.0" fill="none" stroke="rgb(0, 0, 0)" stroke-opacity="1" stroke-linecap="round" stroke-linejoin="round"/>
    <path d="M 163.43832397460938 36.135292053222656 C 154.4546661376953 47.4286994934082 136.2149658203125 42.89344787597656 145.07528686523438 61.83230209350586 C 150.8585662841797 45.21211242675781 161.0807342529297 71.0524673461914 149.661865234375 59.08818054199219" stroke-width="2.0" fill="none" stroke="rgb(0, 0, 0)" stroke-opacity="1" stroke-linecap="round" stroke-linejoin="round"/>
    <path d="M 169.62960815429688 102.0896987915039 C 157.97991943359375 136.24435424804688 187.83956909179688 119.51496887207031 199.6858673095703 133.41197204589844 C 187.98379516601562 138.49151611328125 146.55072021484375 123.09249114990234 135.40272521972656 138.2516326904297 C 134.57952880859375 125.11988830566406 156.6053924560547 156.6227569580078 134.8557586669922 141.21502685546875" stroke-width="2.0" fill="none" stroke="rgb(0, 0, 0)" stroke-opacity="1" stroke-linecap="round" stroke-linejoin="round"/>
    <path d="M 115.3658447265625 59.936397552490234 C 138.208984375 56.739070892333984 116.04267120361328 54.19902038574219 75.55684661865234 64.57792663574219 C 98.05823516845703 57.770286560058594 122.86268615722656 66.9583969116211 134.59393310546875 46.509239196777344 C 99.52308654785156 31.46251678466797 64.12549591064453 47.58629608154297 79.85894775390625 30.715028762817383" stroke-width="2.0" fill="none" stroke="rgb(0, 0, 0)" stroke-opacity="1" stroke-linecap="round" stroke-linejoin="round"/>
    <path d="M 107.18436431884766 91.71065521240234 C 88.07734680175781 109.36551666259766 84.52835845947266 116.00310516357422 114.14120483398438 123.94908905029297" stroke-width="2.0" fill="none" stroke="rgb(0, 0, 0)" stroke-opacity="1" stroke-linecap="round" stroke-linejoin="round"/>
    <path d="M 81.794189453125 153.16127014160156 C 115.65836334228516 149.8420867919922 113.04659271240234 153.3081817626953 30.205533981323242 146.44558715820312 C 56.89096450805664 158.7646484375 50.56669235229492 149.29576110839844 66.5762939453125 156.04771423339844 C 23.669309616088867 155.1517333984375 55.04262924194336 161.3922882080078 36.62131118774414 152.1304168701172" stroke-width="2.0" fill="none" stroke="rgb(0, 0, 0)" stroke-opacity="1" stroke-linecap="round" stroke-linejoin="round"/>
    <path d="M 29.56458854675293 124.71514129638672 C 19.81944465637207 102.57147216796875 48.923240661621094 107.73711395263672 16.373929977416992 127.67140197753906 C 69.33819580078125 123.51864624023438 58.179141998291016 135.5543670654297 12.117256164550781 136.71041870117188 C 61.285369873046875 123.40100860595703 95.80162811279297 132.00375366210938 15.55473518371582 136.0859832763672" stroke-width="2.0" fill="none" stroke="rgb(0, 0, 0)" stroke-opacity="1" stroke-linecap="round" stroke-linejoin="round"/>
    <path d="M 164.5978546142578 203.60025024414062 C 179.00238037109375 207.59266662597656 141.82737731933594 213.447021484375 117.33113098144531 206.71310424804688 C 130.20420837402344 202.7925262451172 97.26273345947266 188.61387634277344 136.6064910888672 200.4398651123047 C 137.8665008544922 177.9161834716797 110.7173080444336 196.35577392578125 109.90897369384766 174.26046752929688" stroke-width="2.0" fill="none" stroke="rgb(0, 0, 0)" stroke-opacity="1" stroke-linecap="round" stroke-linejoin="round"/>
    <path d="M 201.09242248535156 88.06817626953125 C 200.8578643798828 86.0929946899414 192.84808349609375 80.17273712158203 221.75205993652344 74.01078796386719 C 224.26400756835938 65.00872802734375 225.04649353027344 92.6846923828125 218.4259796142578 66.01317596435547 C 208.1965789794922 63.08766174316406 214.43089294433594 63.955928802490234 224.73439025878906 90.00767517089844" stroke-width="2.0" fill="none" stroke="rgb(0, 0, 0)" stroke-opacity="1" stroke-linecap="round" stroke-linejoin="round"/>
    <path d="M 224.1954345703125 122.19564056396484 C 203.98275756835938 122.50358581542969 215.12307739257812 125.9415054321289 237.97328186035156 122.58462524414062 C 238.7433624267578 150.49916076660156 201.04124450683594 127.09278869628906 224.3410186767578 157.21218872070312" stroke-width="2.0" fill="none" stroke="rgb(0, 0, 0)" stroke-opacity="1" stroke-linecap="round" stroke-linejoin="round"/>
    <path d="M 63.763336181640625 48.19757843017578 C 34.898372650146484 59.342041015625 41.73271942138672 61.71281051635742 38.48231887817383 37.114315032958984 C 69.30171203613281 35.84786605834961 52.647674560546875 33.925899505615234 30.17180633544922 35.399879455566406 C 26.701265335083008 32.6402702331543 31.920358657836914 44.78361892700195 46.13469696044922 54.14329147338867" stroke-width="2.0" fill="none" stroke="rgb(0, 0, 0)" stroke-opacity="1" stroke-linecap="round" stroke-linejoin="round"/>
    <path d="M 224.3456268310547 54.45233917236328 C 180.57608032226562 29.94219970703125 175.466552734375 41.15066146850586 229.6514129638672 73.19141387939453 C 233.76773071289062 101.50923919677734 225.1867218017578 86.56826782226562 208.27569580078125 87.23545837402344 C 204.64976501464844 80.22178649902344 226.85430908203125 87.05953216552734 239.67630004882812 88.35358428955078" stroke-width="2.0" fill="none" stroke="rgb(0, 0, 0)" stroke-opacity="1" stroke-linecap="round" stroke-linejoin="round"/>
    <path d="M 164.67913818359375 134.40771484375 C 145.64593505859375 132.04721069335938 143.44288635253906 145.67552185058594 145.93296813964844 161.3656768798828 C 130.0249481201172 127.87935638427734 141.78579711914062 92.00485229492188 120.9249496459961 125.72628784179688" stroke-width="2.0" fill="none" stroke="rgb(0, 0, 0)" stroke-opacity="1" stroke-linecap="round" stroke-linejoin="round"/>
    <path d="M 22.752546310424805 97.44429016113281 C 13.002147674560547 112.966064453125 33.03322219848633 95.93006134033203 29.545011520385742 91.28372955322266 C 42.98108673095703 89.5939712524414 12.503694534301758 97.84041595458984 22.83397102355957 115.7489242553711" stroke-width="2.0" fill="none" stroke="rgb(0, 0, 0)" stroke-opacity="1" stroke-linecap="round" stroke-linejoin="round"/>
    <path d="M 95.17835998535156 160.21751403808594 C 120.03936004638672 166.93263244628906 117.92809295654297 145.31198120117188 92.9693603515625 153.57814025878906 C 105.17432403564453 161.95651245117188 77.75445556640625 175.3435516357422 106.51564025878906 174.80535888671875 C 94.21481323242188 151.29510498046875 86.58856201171875 144.09486389160156 128.81393432617188 152.91233825683594" stroke-width="2.0" fill="none" stroke="rgb(0, 0, 0)" stroke-opacity="1" stroke-linecap="round" stroke-linejoin="round"/>
    <path d="M 114.85384368896484 112.94805908203125 C 125.40147399902344 122.96302032470703 167.98483276367188 106.96212768554688 135.80990600585938 110.26261138916016 C 165.47706604003906 102.15765380859375 134.8624267578125 118.1702880859375 158.4481964111328 123.15658569335938" stroke-width="2.0" fill="none" stroke="rgb(0, 0, 0)" stroke-opacity="1" stroke-linecap="round" stroke-linejoin="round"/>
    <path d="M 209.85313415527344 116.74120330810547 C 220.59571838378906 131.52603149414062 241.8810272216797 130.73550415039062 195.61570739746094 121.88655853271484 C 263.94866943359375 119.63490295410156 219.03985595703125 106.72210693359375 195.41268920898438 121.01426696777344" stroke-width="2.0" fill="none" stroke="rgb(0, 0, 0)" stroke-opacity="1" stroke-linecap="round" stroke-linejoin="round"/>
    <path d="M 227.8078155517578 115.82132720947266 C 221.361328125 130.46542358398438 204.36126708984375 112.8013687133789 226.25767517089844 116.80693817138672" stroke-width="2.0" fill="none" stroke="rgb(0, 0, 0)" stroke-opacity="1" stroke-linecap="round" stroke-linejoin="round"/>
    <path d="M 159.6584930419922 4.574483871459961 C 171.11769104003906 -10.60257339477539 171.442138671875 -14.317233085632324 155.7587890625 -23.326202392578125" stroke-width="2.0" fill="none" stroke="rgb(0, 0, 0)" stroke-opacity="1" stroke-linecap="round" stroke-linejoin="round"/>
    <path d="M 169.95181274414062 90.41020202636719 C 107.1767578125 105.01567840576172 121.10814666748047 86.65396118164062 175.536865234375 89.62163543701172" stroke-width="2.0" fill="none" stroke="rgb(0, 0, 0)" stroke-opacity="1" stroke-linecap="round" stroke-linejoin="round"/>
    <path d="M 224.45199584960938 26.282930374145508 C 211.71722412109375 47.6787109375 228.9622344970703 74.86309051513672 239.3459930419922 69.30500030517578 C 237.01821899414062 27.399084091186523 247.66082763671875 35.357505798339844 237.0323944091797 27.11222267150879" stroke-width="2.0" fill="none" stroke="rgb(0, 0, 0)" stroke-opacity="1" stroke-linecap="round" stroke-linejoin="round"/>
    <path d="M 155.88140869140625 49.019996643066406 C 121.02201843261719 15.335975646972656 123.59514617919922 37.29136657714844 179.0192108154297 25.998842239379883 C 174.76031494140625 32.33557891845703 154.1229705810547 47.14836502075195 122.38014221191406 26.776878356933594 C 157.9452362060547 28.127700805664062 156.82679748535156 29.979345321655273 153.55270385742188 45.35654830932617" stroke-width="2.0" fill="none" stroke="rgb(0, 0, 0)" stroke-opacity="1" stroke-linecap="round" stroke-linejoin="round"/>
    <path d="M 57.92229461669922 192.94931030273438 C 81.17450714111328 208.30332946777344 74.04867553710938 209.3417510986328 76.52125549316406 198.2289276123047" stroke-width="2.0" fill="none" stroke="rgb(0, 0, 0)" stroke-opacity="1" stroke-linecap="round" stroke-linejoin="round"/>
    <path d="M 22.807783126831055 25.92076301574707 C 5.602256774902344 51.354305267333984 17.871257781982422 20.557188034057617 18.472942352294922 37.940616607666016" stroke-width="2.0" fill="none" stroke="rgb(0, 0, 0)" stroke-opacity="1" stroke-linecap="round" stroke-linejoin="round"/>
    <path d="M 131.36399841308594 154.58984375 C 111.66495513916016 154.08518981933594 99.59378051757812 163.283935546875 83.71656036376953 166.25701904296875 C 103.1263198852539 149.74728393554688 74.3763198852539 171.41893005371094 24.802265167236328 174.92715454101562" stroke-width="2.0" fill="none" stroke="rgb(0, 0, 0)" stroke-opacity="1" stroke-linecap="round" stroke-linejoin="round"/>
    <path d="M 143.66741943359375 102.10406494140625 C 182.16429138183594 95.96839904785156 141.4275665283203 114.75556182861328 167.45733642578125 92.90383911132812" stroke-width="2.0" fill="none" stroke="rgb(0, 0, 0)" stroke-opacity="1" stroke-linecap="round" stroke-linejoin="round"/>
    <path d="M 138.7984619140625 -8.83322811126709 C 124.4951171875 -4.927436351776123 122.8134536743164 13.21975040435791 143.1387481689453 -3.204484462738037" stroke-width="2.0" fill="none" stroke="rgb(0, 0, 0)" stroke-opacity="1" stroke-linecap="round" stroke-linejoin="round"/>
    <path d="M 123.61122131347656 207.81126403808594 C 159.10610961914062 195.66725158691406 160.7122039794922 211.64535522460938 127.92090606689453 180.6199493408203" stroke-width="2.0" fill="none" stroke="rgb(0, 0, 0)" stroke-opacity="1" stroke-linecap="round" stroke-linejoin="round"/>
    <path d="M 56.66300964355469 85.03047943115234 C 61.87675094604492 82.6925277709961 68.29883575439453 70.66429138183594 -9.95075798034668 81.03707885742188 C 12.013138771057129 48.43415832519531 24.276351928710938 46.76730728149414 -3.0471625328063965 72.93582153320312 C 46.4995002746582 66.40925598144531 19.00539207458496 85.46200561523438 17.339447021484375 67.3985595703125" stroke-width="2.0" fill="none" stroke="rgb(0, 0, 0)" stroke-opacity="1" stroke-linecap="round" stroke-linejoin="round"/>
    <path d="M 62.44155502319336 237.41441345214844 C 37.093135833740234 201.99859619140625 59.623802185058594 214.62452697753906 31.906597137451172 223.883056640625" stroke-width="2.0" fill="none" stroke="rgb(0, 0, 0)" stroke-opacity="1" stroke-linecap="round" stroke-linejoin="round"/>
    <path d="M 224.54241943359375 56.24226760864258 C 222.91427612304688 52.36837387084961 221.8724365234375 30.684001922607422 183.0655059814453 49.99583435058594 C 173.9422607421875 69.33533477783203 193.08795166015625 49.13225555419922 207.7332763671875 72.42071533203125 C 216.11651611328125 44.178672790527344 206.76132202148438 52.81365203857422 204.99658203125 72.1630630493164" stroke-width="2.0" fill="none" stroke="rgb(0, 0, 0)" stroke-opacity="1" stroke-linecap="round" stroke-linejoin="round"/>
    <path d="M 48.52820587158203 44.88114547729492 C 76.30076599121094 46.95750045776367 75.87886810302734 16.098541259765625 64.22615051269531 65.84718322753906 C 57.55830001831055 46.60918426513672 45.67289352416992 45.4285888671875 67.76473999023438 78.61039733886719" stroke-width="2.0" fill="none" stroke="rgb(0, 0, 0)" stroke-opacity="1" stroke-linecap="round" stroke-linejoin="round"/>
    <path d="M 206.48745727539062 177.7860565185547 C 196.7706756591797 170.2895965576172 205.94142150878906 165.21278381347656 231.15576171875 160.2651824951172 C 221.11712646484375 195.31993103027344 225.17318725585938 190.47975158691406 239.94700622558594 159.57875061035156 C 200.1183319091797 144.84136962890625 201.62060546875 138.55267333984375 216.26271057128906 162.26214599609375" stroke-width="2.0" fill="none" stroke="rgb(0, 0, 0)" stroke-opacity="1" stroke-linecap="round" stroke-linejoin="round"/>
    <path d="M 130.38966369628906 181.63461303710938 C 136.03318786621094 192.93994140625 174.53305053710938 202.23648071289062 146.1840362548828 184.93002319335938" stroke-width="2.0" fill="none" stroke="rgb(0, 0, 0)" stroke-opacity="1" stroke-linecap="round" stroke-linejoin="round"/>
    <path d="M 43.06363296508789 119.44519805908203 C 29.050256729125977 123.57564544677734 75.4456558227539 114.11278533935547 39.218994140625 139.40310668945312" stroke-width="2.0" fill="none" stroke="rgb(0, 0, 0)" stroke-opacity="1" stroke-linecap="round" stroke-linejoin="round"/>
    <path d="M 127.82955932617188 183.39735412597656 C 141.83848571777344 159.57130432128906 114.67478942871094 196.00222778320312 141.59873962402344 198.615234375 C 149.5746307373047 200.14129638671875 149.97178649902344 187.3756866455078 143.54238891601562 198.4210968017578" stroke-width="2.0" fill="none" stroke="rgb(0, 0, 0)" stroke-opacity="1" stroke-linecap="round" stroke-linejoin="round"/>
    <path d="M 225.15670776367188 29.770959854125977 C 195.0645751953125 47.14384078979492 222.1118927001953 10.188026428222656 226.91078186035156 48.208003997802734" stroke-width="2.0" fill="none" stroke="rgb(0, 0, 0)" stroke-opacity="1" stroke-linecap="round" stroke-linejoin="round"/>
    <path d="M 213.52676391601562 77.27156829833984 C 217.7108154296875 96.54010009765625 202.8133087158203 80.25374603271484 223.1660614013672 82.54637145996094 C 245.59466552734375 65.59593200683594 215.09835815429688 78.32086944580078 204.54957580566406 59.04201126098633" stroke-width="2.0" fill="none" stroke="rgb(0, 0, 0)" stroke-opacity="1" stroke-linecap="round" stroke-linejoin="round"/>
    <path d="M 25.210302352905273 208.1932373046875 C 41.286903381347656 201.67555236816406 60.7620735168457 213.7231903076172 48.3352165222168 194.26597595214844" stroke-width="2.0" fill="none" stroke="rgb(0, 0, 0)" stroke-opacity="1" stroke-linecap="round" stroke-linejoin="round"/>
    <path d="M 74.20470428466797 160.96527099609375 C 27.850425720214844 178.07931518554688 58.837886810302734 178.47491455078125 62.08003616333008 185.97254943847656 C 61.374427795410156 175.3373565673828 24.717208862304688 156.57652282714844 97.73085021972656 168.00372314453125 C 98.21649169921875 154.4550018310547 121.84514617919922 153.39401245117188 90.82496643066406 151.64088439941406" stroke-width="2.0" fill="none" stroke="rgb(0, 0, 0)" stroke-opacity="1" stroke-linecap="round" stroke-linejoin="round"/>
    <path d="M 118.00855255126953 66.65185546875 C 124.4415054321289 48.87660598754883 131.60919189453125 54.94316864013672 79.97991180419922 57.90146255493164 C 110.9669418334961 68.69306182861328 90.49828338623047 72.4020004272461 91.82015991210938 87.80257415771484" stroke-width="2.0" fill="none" stroke="rgb(0, 0, 0)" stroke-opacity="1" stroke-linecap="round" stroke-linejoin="round"/>
    <path d="M 118.2216567993164 79.44286346435547 C 102.35758972167969 71.55609130859375 163.9391632080078 97.813232421875 149.39805603027344 62.28606033325195 C 125.6064682006836 58.49757766723633 132.15814208984375 39.48395919799805 93.63260650634766 41.1491813659668" stroke-width="2.0" fill="none" stroke="rgb(0, 0, 0)" stroke-opacity="1" stroke-linecap="round" stroke-linejoin="round"/>
    <path d="M 226.76480102539062 29.394615173339844 C 183.93405151367188 27.547359466552734 171.97213745117188 19.574668884277344 157.94808959960938 51.90843963623047 C 130.24124145507812 31.77385139465332 182.6806640625 71.44647216796875 146.65232849121094 49.13630676269531" stroke-width="2.0" fill="none" stroke="rgb(0, 0, 0)" stroke-opacity="1" stroke-linecap="round" stroke-linejoin="round"/>
    <path d="M 113.43547821044922 173.39784240722656 C 139.35281372070312 184.62689208984375 113.9609375 193.41285705566406 122.65779113769531 178.2967529296875 C 79.192626953125 174.87973022460938 65.22758483886719 191.49302673339844 83.6342544555664 204.50865173339844 C 56.100948333740234 205.85430908203125 49.703346252441406 201.21031188964844 74.53421783447266 162.0543670654297" stroke-width="2.0" fill="none" stroke="rgb(0, 0, 0)" stroke-opacity="1" stroke-linecap="round" stroke-linejoin="round"/>
    <path d="M 37.47563171386719 104.93282318115234 C 56.94865417480469 71.37288665771484 13.865781784057617 118.99237823486328 48.82331466674805 93.02494049072266 C 24.877391815185547 76.73728942871094 -14.402318954467773 110.46865844726562 27.09960174560547 90.93419647216797 C 34.050228118896484 101.73326873779297 43.40431594848633 100.35026550292969 49.34540939331055 86.47054290771484" stroke-width="2.0" fill="none" stroke="rgb(0, 0, 0)" stroke-opacity="1" stroke-linecap="round" stroke-linejoin="round"/>
    <path d="M 60.089881896972656 189.24696350097656 C 11.189876556396484 184.86532592773438 10.747467041015625 199.7178192138672 41.161319732666016 208.99217224121094" stroke-width="2.0" fill="none" stroke="rgb(0, 0, 0)" stroke-opacity="1" stroke-linecap="round" stroke-linejoin="round"/>
    <path d="M 57.11227035522461 162.9368133544922 C 48.94235610961914 172.80227661132812 5.213167667388916 154.23670959472656 73.7841796875 159.89540100097656" stroke-width="2.0" fill="none" stroke="rgb(0, 0, 0)" stroke-opacity="1" stroke-linecap="round" stroke-linejoin="round"/>
    <path d="M 75.68533325195312 165.1303253173828 C 97.36172485351562 170.7965545654297 94.25371551513672 146.25164794921875 129.37075805664062 156.75103759765625" stroke-width="2.0" fill="none" stroke="rgb(0, 0, 0)" stroke-opacity="1" stroke-linecap="round" stroke-linejoin="round"/>
    <path d="M 86.03752899169922 198.45458984375 C 142.9164581298828 189.47337341308594 126.23998260498047 200.62838745117188 95.02867126464844 192.96096801757812 C 124.58474731445312 196.5098114013672 99.54838562011719 200.10574340820312 99.28604125976562 185.76937866210938 C 101.35111999511719 211.61325073242188 127.88125610351562 192.86056518554688 101.48578643798828 194.62892150878906" stroke-width="2.0" fill="none" stroke="rgb(0, 0, 0)" stroke-opacity="1" stroke-linecap="round" stroke-linejoin="round"/>
    <path d="M 37.0659065246582 224.37171936035156 C 85.32295989990234 225.08045959472656 83.91973876953125 216.51882934570312 158.59524536132812 218.44534301757812 C 87.12825012207031 224.59938049316406 47.742759704589844 205.46018981933594 48.88819122314453 215.2872314453125 C 109.68971252441406 219.91986083984375 89.33008575439453 203.20620727539062 119.53901672363281 203.79830932617188" stroke-width="2.0" fill="none" stroke="rgb(0, 0, 0)" stroke-opacity="1" stroke-linecap="round" stroke-linejoin="round"/>
    <path d="M 58.17068099975586 68.1636734008789 C 26.403703689575195 66.87055969238281 -18.061023712158203 43.94126892089844 63.32334899902344 67.10839080810547 C 28.79843521118164 72.37688446044922 10.17955207824707 55.54621887207031 56.961082458496094 69.70594024658203 C 37.543304443359375 56.30414581298828 8.765458106994629 59.52898025512695 24.526033401489258 73.9134750366211" stroke-width="2.0" fill="none" stroke="rgb(0, 0, 0)" stroke-opacity="1" stroke-linecap="round" stroke-linejoin="round"/>
    <path d="M 107.14031982421875 5.591055870056152 C 146.37088012695312 4.064279556274414 165.15855407714844 -3.7441415786743164 169.1106414794922 -17.432723999023438 C 148.65541076660156 -24.493906021118164 148.7170867919922 -12.910073280334473 151.72608947753906 -8.532010078430176" stroke-width="2.0" fill="none" stroke="rgb(0, 0, 0)" stroke-opacity="1" stroke-linecap="round" stroke-linejoin="round"/>
    <path d="M 211.55593872070312 89.31958770751953 C 225.6339569091797 78.36347198486328 229.02920532226562 99.90570831298828 212.66041564941406 97.86229705810547 C 192.12051391601562 114.0812759399414 194.8486328125 87.2008285522461 225.75782775878906 100.11924743652344" stroke-width="2.0" fill="none" stroke="rgb(0, 0, 0)" stroke-opacity="1" stroke-linecap="round" stroke-linejoin="round"/>
    <path d="M 180.02987670898438 53.28947067260742 C 211.4948272705078 53.16752624511719 216.40167236328125 64.9162826538086 168.8719024658203 57.12303924560547 C 211.99876403808594 55.073211669921875 198.364013671875 64.49730682373047 198.7967529296875 55.32894515991211 C 170.4473419189453 42.46390914916992 156.75405883789062 48.414710998535156 194.5927276611328 41.68812942504883" stroke-width="2.0" fill="none" stroke="rgb(0, 0, 0)" stroke-opacity="1" stroke-linecap="round" stroke-linejoin="round"/>
    <path d="M 85.19051361083984 209.37554931640625 C 125.71562194824219 220.8037109375 119.86006927490234 180.00148010253906 107.71659851074219 198.049560546875" stroke-width="2.0" fill="none" stroke="rgb(0, 0, 0)" stroke-opacity="1" stroke-linecap="round" stroke-linejoin="round"/>
    <path d="M 71.33106994628906 135.19473266601562 C 58.87532424926758 160.73313903808594 86.32818603515625 142.53353881835938 123.14124298095703 152.246826171875 C 99.43721008300781 153.4982147216797 80.9195327758789 162.14356994628906 103.12571716308594 158.50660705566406 C 109.4981918334961 155.1226348876953 90.38258361816406 170.09910583496094 113.11213684082031 152.148193359375" stroke-width="2.0" fill="none" stroke="rgb(0, 0, 0)" stroke-opacity="1" stroke-linecap="round" stroke-linejoin="round"/>
    <path d="M 171.60043334960938 65.86910247802734 C 213.9247589111328 62.18838882446289 184.7664031982422 90.10696411132812 180.80014038085938 66.26403045654297" stroke-width="2.0" fill="none" stroke="rgb(0, 0, 0)" stroke-opacity="1" stroke-linecap="round" stroke-linejoin="round"/>
    <path d="M 199.97613525390625 25.87169075012207 C 208.33546447753906 24.954086303710938 212.22674560546875 0.32124489545822144 212.63560485839844 11.916069984436035 C 237.48866271972656 -2.096426248550415 249.85874938964844 2.1287930011749268 215.47654724121094 -6.196900367736816 C 221.38522338867188 21.941362380981445 233.12928771972656 -1.4362479448318481 205.0702362060547 20.51979637145996" stroke-width="2.0" fill="none" stroke="rgb(0, 0, 0)" stroke-opacity="1" stroke-linecap="round" stroke-linejoin="round"/>
    <path d="M 225.4899444580078 197.93162536621094 C 219.7620086669922 178.3972930908203 205.81117248535156 200.99851989746094 217.32699584960938 203.458984375 C 159.3985137939453 183.8461151123047 174.54884338378906 195.773193359375 158.73428344726562 208.97341918945312 C 233.55862426757812 209.5798797607422 177.177978515625 216.542724609375 183.23504638671875 211.5935516357422" stroke-width="2.0" fill="none" stroke="rgb(0, 0, 0)" stroke-opacity="1" stroke-linecap="round" stroke-linejoin="round"/>
    <path d="M 204.84957885742188 152.21478271484375 C 193.24530029296875 117.55368041992188 202.953125 117.8768081665039 228.32034301757812 139.8126983642578" stroke-width="2.0" fill="none" stroke="rgb(0, 0, 0)" stroke-opacity="1" stroke-linecap="round" stroke-linejoin="round"/>
    <path d="M 135.24635314941406 22.78952980041504 C 184.30270385742188 57.314327239990234 178.2528839111328 49.48131561279297 126.27617645263672 34.20000457763672" stroke-width="2.0" fill="none" stroke="rgb(0, 0, 0)" stroke-opacity="1" stroke-linecap="round" stroke-linejoin="round"/>
    <path d="M 61.00559616088867 26.563220977783203 C 19.527589797973633 29.357818603515625 49.133792877197266 68.29534149169922 28.232467651367188 47.99747085571289" stroke-width="2.0" fill="none" stroke="rgb(0, 0, 0)" stroke-opacity="1" stroke-linecap="round" stroke-linejoin="round"/>
    <path d="M 62.60552978515625 58.60686492919922 C 84.53248596191406 36.2030029296875 87.6770248413086 47.95281982421875 49.877716064453125 43.05845260620117" stroke-width="2.0" fill="none" stroke="rgb(0, 0, 0)" stroke-opacity="1" stroke-linecap="round" stroke-linejoin="round"/>
    <path d="M 126.68513488769531 179.3153533935547 C 128.48422241210938 194.1451416015625 103.3172836303711 160.17361450195312 123.73412322998047 161.66749572753906 C 128.9422149658203 180.2607879638672 82.5703125 186.3752899169922 86.24671173095703 174.89556884765625" stroke-width="2.0" fill="none" stroke="rgb(0, 0, 0)" stroke-opacity="1" stroke-linecap="round" stroke-linejoin="round"/>
    <path d="M 82.89736938476562 73.7023696899414 C 52.771461486816406 69.54216003417969 49.79540252685547 62.72520446777344 72.01141357421875 85.46873474121094 C 64.52303314208984 43.998077392578125 50.67362976074219 40.553123474121094 49.989986419677734 59.4306755065918" stroke-width="2.0" fill="none" stroke="rgb(0, 0, 0)" stroke-opacity="1" stroke-linecap="round" stroke-linejoin="round"/>
    <path d="M 23.563634872436523 90.80787658691406 C 21.971864700317383 136.57080078125 29.312292098999023 108.82679748535156 24.6076602935791 96.27776336669922" stroke-width="2.0" fill="none" stroke="rgb(0, 0, 0)" stroke-opacity="1" stroke-linecap="round" stroke-linejoin="round"/>
    <path d="M 44.6356201171875 98.35165405273438 C 36.79370880126953 65.75894165039062 47.19668197631836 120.77069854736328 26.548059463500977 103.361328125 C 49.79545974731445 112.26345825195312 30.810970306396484 89.65130615234375 35.96417999267578 83.02214050292969" stroke-width="2.0" fill="none" stroke="rgb(0, 0, 0)" stroke-opacity="1" stroke-linecap="round" stroke-linejoin="round"/>
    <path d="M 144.3052520751953 141.66415405273438 C 151.140380859375 119.12812042236328 133.580810546875 146.91424560546875 145.7371826171875 161.4415740966797 C 185.77969360351562 151.95188903808594 124.0062484741211 149.8125457763672 131.10728454589844 169.04103088378906" stroke-width="2.0" fill="none" stroke="rgb(0, 0, 0)" stroke-opacity="1" stroke-linecap="round" stroke-linejoin="round"/>
    <path d="M 114.12712097167969 43.82218933105469 C 87.87945556640625 43.05508804321289 58.47260284423828 44.877254486083984 77.71186828613281 87.03041076660156 C 95.40143585205078 63.19169616699219 65.03813934326172 76.91981506347656 82.1048583984375 63.46623992919922" stroke-width="2.0" fill="none" stroke="rgb(0, 0, 0)" stroke-opacity="1" stroke-linecap="round" stroke-linejoin="round"/>
    <path d="M 84.4712905883789 149.77194213867188 C 110.90607452392578 164.9886932373047 69.20697021484375 169.90528869628906 86.72520446777344 180.80718994140625" stroke-width="2.0" fill="none" stroke="rgb(0, 0, 0)" stroke-opacity="1" stroke-linecap="round" stroke-linejoin="round"/>
    <path d="M 223.02859497070312 27.738666534423828 C 184.7080841064453 20.9492244720459 208.96408081054688 9.807291984558105 232.43344116210938 12.169651985168457" stroke-width="2.0" fill="none" stroke="rgb(0, 0, 0)" stroke-opacity="1" stroke-linecap="round" stroke-linejoin="round"/>
    <path d="M 64.76631164550781 172.0934600830078 C 88.55631256103516 160.04144287109375 73.87828063964844 166.61618041992188 58.37584686279297 176.54257202148438" stroke-width="2.0" fill="none" stroke="rgb(0, 0, 0)" stroke-opacity="1" stroke-linecap="round" stroke-linejoin="round"/>
    <path d="M 188.59925842285156 187.0709991455078 C 184.64022827148438 159.82679748535156 158.20750427246094 198.09849548339844 190.22572326660156 180.5511474609375 C 163.5838165283203 180.6068878173828 154.5654296875 175.07264709472656 156.83897399902344 174.3507080078125" stroke-width="2.0" fill="none" stroke="rgb(0, 0, 0)" stroke-opacity="1" stroke-linecap="round" stroke-linejoin="round"/>
    <path d="M 204.03219604492188 172.1209716796875 C 233.13412475585938 183.25146484375 242.10813903808594 185.42709350585938 191.06822204589844 187.7263641357422 C 219.2093048095703 191.57327270507812 195.1299591064453 205.2106475830078 213.99813842773438 183.3642578125" stroke-width="2.0" fill="none" stroke="rgb(0, 0, 0)" stroke-opacity="1" stroke-linecap="round" stroke-linejoin="round"/>
    <path d="M 48.795013427734375 219.5851593017578 C 84.49646759033203 215.34039306640625 67.38619232177734 226.08380126953125 16.269996643066406 215.90516662597656 C 39.146541595458984 188.5349578857422 53.755096435546875 209.7512664794922 43.934715270996094 195.7924041748047 C 4.7546706199646 198.85694885253906 -3.8548104763031006 202.19818115234375 6.507880210876465 234.15045166015625" stroke-width="2.0" fill="none" stroke="rgb(0, 0, 0)" stroke-opacity="1" stroke-linecap="round" stroke-linejoin="round"/>
    <path d="M 228.90655517578125 90.59490966796875 C 230.185302734375 99.07000732421875 213.7139129638672 81.6153335571289 186.0399932861328 92.4205322265625 C 159.09368896484375 105.85803985595703 183.18948364257812 114.19194793701172 184.6756591796875 105.24209594726562 C 211.25836181640625 106.29454803466797 212.24124145507812 98.2927017211914 178.63470458984375 117.19210815429688" stroke-width="2.0" fill="none" stroke="rgb(0, 0, 0)" stroke-opacity="1" stroke-linecap="round" stroke-linejoin="round"/>
    <path d="M 224.17306518554688 133.52317810058594 C 191.31224060058594 103.46542358398438 213.8164520263672 143.56573486328125 206.4259033203125 140.45285034179688" stroke-width="2.0" fill="none" stroke="rgb(0, 0, 0)" stroke-opacity="1" stroke-linecap="round" stroke-linejoin="round"/>
    <path d="M 111.13853454589844 46.07666778564453 C 62.030269622802734 50.808807373046875 91.22425079345703 14.544260025024414 85.25032043457031 32.7803840637207 C 140.84774780273438 8.719164848327637 71.15121459960938 16.94743537902832 98.616943359375 16.302610397338867" stroke-width="2.0" fill="none" stroke="rgb(0, 0, 0)" stroke-opacity="1" stroke-linecap="round" stroke-linejoin="round"/>
    <path d="M 165.35113525390625 203.4410858154297 C 157.22503662109375 210.6398162841797 151.58248901367188 178.83279418945312 186.12991333007812 183.35494995117188" stroke-width="2.0" fill="none" stroke="rgb(0, 0, 0)" stroke-opacity="1" stroke-linecap="round" stroke-linejoin="round"/>
    <path d="M 19.964540481567383 165.6453857421875 C 92.29528045654297 169.86497497558594 88.04061889648438 150.7215118408203 32.25529098510742 149.4442901611328 C 72.01220703125 167.75942993164062 71.33203887939453 153.80198669433594 21.86252784729004 150.83773803710938" stroke-width="2.0" fill="none" stroke="rgb(0, 0, 0)" stroke-opacity="1" stroke-linecap="round" stroke-linejoin="round"/>
    <path d="M 140.1116943359375 58.172786712646484 C 138.3053436279297 51.84696960449219 155.0884552001953 38.29692077636719 161.53221130371094 53.76980972290039" stroke-width="2.0" fill="none" stroke="rgb(0, 0, 0)" stroke-opacity="1" stroke-linecap="round" stroke-linejoin="round"/>
    <path d="M 157.29173278808594 227.2584686279297 C 140.03477478027344 233.60911560058594 121.30671691894531 225.04417419433594 141.1324005126953 228.42747497558594 C 119.84439086914062 231.584716796875 102.99666595458984 219.3978271484375 148.7393035888672 232.52658081054688" stroke-width="2.0" fill="none" stroke="rgb(0, 0, 0)" stroke-opacity="1" stroke-linecap="round" stroke-linejoin="round"/>
    <path d="M 74.66897583007812 13.636425971984863 C 100.99101257324219 15.832696914672852 71.6000747680664 18.670551300048828 50.72954559326172 12.560677528381348 C 49.868717193603516 -6.53741979598999 59.54031753540039 9.161365509033203 113.0785140991211 -1.4718763828277588" stroke-width="2.0" fill="none" stroke="rgb(0, 0, 0)" stroke-opacity="1" stroke-linecap="round" stroke-linejoin="round"/>
    <path d="M 189.7562713623047 113.1388931274414 C 194.9127655029297 89.82649993896484 220.3616180419922 106.6939697265625 176.91944885253906 111.2085189819336 C 187.14404296875 88.77845001220703 214.26571655273438 102.70330810546875 243.88951110839844 102.39309692382812" stroke-width="2.0" fill="none" stroke="rgb(0, 0, 0)" stroke-opacity="1" stroke-linecap="round" stroke-linejoin="round"/>
    <path d="M 139.63597106933594 195.48593139648438 C 131.7077178955078 206.9185333251953 176.8185272216797 184.91307067871094 146.97555541992188 204.43316650390625 C 158.75074768066406 197.29151916503906 193.76524353027344 207.6755828857422 132.9593505859375 208.11868286132812" stroke-width="2.0" fill="none" stroke="rgb(0, 0, 0)" stroke-opacity="1" stroke-linecap="round" stroke-linejoin="round"/>
    <path d="M 88.39468383789062 41.4056510925293 C 58.05524444580078 59.14824295043945 50.73630142211914 43.47718811035156 116.91370391845703 47.46651077270508 C 134.29904174804688 44.25698471069336 135.1641387939453 49.90000915527344 115.66848754882812 62.96999740600586" stroke-width="2.0" fill="none" stroke="rgb(0, 0, 0)" stroke-opacity="1" stroke-linecap="round" stroke-linejoin="round"/>
    <path d="M 180.82455444335938 227.86181640625 C 162.09353637695312 215.22218322753906 179.90380859375 216.5824737548828 237.63027954101562 212.0430145263672 C 220.02073669433594 217.2173309326172 228.58570861816406 228.15603637695312 233.4460906982422 226.50604248046875 C 202.29942321777344 258.5524597167969 208.96348571777344 246.5023956298828 211.35638427734375 220.06027221679688" stroke-width="2.0" fill="none" stroke="rgb(0, 0, 0)" stroke-opacity="1" stroke-linecap="round" stroke-linejoin="round"/>
    <path d="M 228.34716796875 143.7143096923828 C 223.40797424316406 133.82919311523438 228.42239379882812 143.56491088867188 229.09019470214844 141.53089904785156 C 244.53785705566406 153.2899627685547 257.20770263671875 145.55894470214844 257.5361633300781 153.00523376464844 C 247.64244079589844 167.124755859375 238.32131958007812 173.51986694335938 229.4750518798828 165.82803344726562" stroke-width="2.0" fill="none" stroke="rgb(0, 0, 0)" stroke-opacity="1" stroke-linecap="round" stroke-linejoin="round"/>
    <path d="M 74.59026336669922 135.38174438476562 C 68.0934066772461 109.01326751708984 97.07743835449219 128.5113983154297 93.748779296875 119.38115692138672 C 82.29256439208984 103.53739929199219 95.8529281616211 104.27530670166016 73.7830581665039 113.36902618408203 C 95.91545104980469 124.52532196044922 55.2785530090332 131.07826232910156 93.95359802246094 134.35223388671875" stroke-width="2.0" fill="none" stroke="rgb(0, 0, 0)" stroke-opacity="1" stroke-linecap="round" stroke-linejoin="round"/>
    <path d="M 64.64582824707031 60.9422492980957 C 24.474470138549805 47.2486572265625 82.4753189086914 55.715641021728516 75.0221939086914 33.95035171508789" stroke-width="2.0" fill="none" stroke="rgb(0, 0, 0)" stroke-opacity="1" stroke-linecap="round" stroke-linejoin="round"/>
    <path d="M 211.59609985351562 161.24147033691406 C 211.97265625 174.89837646484375 224.52467346191406 147.22525024414062 203.9766082763672 150.13441467285156" stroke-width="2.0" fill="none" stroke="rgb(0, 0, 0)" stroke-opacity="1" stroke-linecap="round" stroke-linejoin="round"/>
    <path d="M 122.31802368164062 3.940303325653076 C 94.46929931640625 24.79498863220215 110.05741119384766 39.65760040283203 109.19747924804688 29.719215393066406 C 155.73451232910156 22.906015396118164 153.19448852539062 8.977314949035645 128.15846252441406 24.176477432250977" stroke-width="2.0" fill="none" stroke="rgb(0, 0, 0)" stroke-opacity="1" stroke-linecap="round" stroke-linejoin="round"/>
    <path d="M 39.76117706298828 23.132783889770508 C 8.283068656921387 35.563480377197266 32.52452087402344 8.008646011352539 96.44860076904297 11.993778228759766 C 56.03915023803711 34.89141082763672 5.959683418273926 14.48453426361084 43.54362487792969 50.3928337097168" stroke-width="2.0" fill="none" stroke="rgb(0, 0, 0)" stroke-opacity="1" stroke-linecap="round" stroke-linejoin="round"/>
    <path d="M 45.33589172363281 80.45834350585938 C 49.1069450378418 96.3334732055664 39.75981903076172 100.8917236328125 107.93215942382812 93.55758666992188 C 60.38169479370117 95.0567626953125 27.7813663482666 95.20437622070312 36.54753875732422 116.21759033203125 C 26.245534896850586 107.00849151611328 21.06815528869629 127.37480926513672 68.15142822265625 109.5574951171875" stroke-width="2.0" fill="none" stroke="rgb(0, 0, 0)" stroke-opacity="1" stroke-linecap="round" stroke-linejoin="round"/>
    <path d="M 62.685508728027344 190.20465087890625 C 63.96999740600586 148.93658447265625 66.1492919921875 181.17160034179688 34.00230026245117 181.01885986328125" stroke-width="2.0" fill="none" stroke="rgb(0, 0, 0)" stroke-opacity="1" stroke-linecap="round" stroke-linejoin="round"/>
    <path d="M 86.96408081054688 16.12807273864746 C 67.40155029296875 8.678683280944824 98.389892578125 25.674808502197266 141.42141723632812 -3.4254560470581055" stroke-width="2.0" fill="none" stroke="rgb(0, 0, 0)" stroke-opacity="1" stroke-linecap="round" stroke-linejoin="round"/>
    <path d="M 79.8563461303711 167.00445556640625 C 50.561222076416016 184.74562072753906 76.61671447753906 182.9695587158203 40.88055419921875 185.1261444091797" stroke-width="2.0" fill="none" stroke="rgb(0, 0, 0)" stroke-opacity="1" stroke-linecap="round" stroke-linejoin="round"/>
    <path d="M 57.66510772705078 111.64352416992188 C 86.12850952148438 132.18634033203125 60.29621124267578 103.12544250488281 11.578752517700195 123.73500061035156 C 69.43148803710938 114.92899322509766 112.36965942382812 102.99158477783203 50.084102630615234 106.52511596679688" stroke-width="2.0" fill="none" stroke="rgb(0, 0, 0)" stroke-opacity="1" stroke-linecap="round" stroke-linejoin="round"/>
    <path d="M 192.57431030273438 131.2271270751953 C 236.92648315429688 141.43875122070312 197.4008026123047 124.3231430053711 172.9158477783203 129.95169067382812" stroke-width="2.0" fill="none" stroke="rgb(0, 0, 0)" stroke-opacity="1" stroke-linecap="round" stroke-linejoin="round"/>
    <path d="M 185.97032165527344 132.08863830566406 C 180.0228271484375 122.2938461303711 160.3034210205078 99.71389770507812 186.6090545654297 117.85767364501953" stroke-width="2.0" fill="none" stroke="rgb(0, 0, 0)" stroke-opacity="1" stroke-linecap="round" stroke-linejoin="round"/>
    <path d="M 95.19390106201172 173.5764923095703 C 84.67607879638672 155.3292236328125 80.61602783203125 169.96044921875 90.58641052246094 164.42311096191406 C 78.84611511230469 168.75881958007812 55.1963996887207 182.60125732421875 74.66663360595703 193.60061645507812" stroke-width="2.0" fill="none" stroke="rgb(0, 0, 0)" stroke-opacity="1" stroke-linecap="round" stroke-linejoin="round"/>
    <path d="M -2.311063766479492 56.87604522705078 C -7.492460250854492 83.34061431884766 -11.720163345336914 89.40107727050781 -0.5097540616989136 72.40296173095703 C 5.039137840270996 61.147274017333984 32.44159698486328 61.493377685546875 0.34240180253982544 72.532958984375" stroke-width="2.0" fill="none" stroke="rgb(0, 0, 0)" stroke-opacity="1" stroke-linecap="round" stroke-linejoin="round"/>
    <path d="M 20.453990936279297 154.40606689453125 C 32.04215621948242 140.68751525878906 17.66466522216797 134.112548828125 19.492088317871094 153.80613708496094" stroke-width="2.0" fill="none" stroke="rgb(0, 0, 0)" stroke-opacity="1" stroke-linecap="round" stroke-linejoin="round"/>
    <path d="M 67.42656707763672 221.2655487060547 C 42.4168815612793 237.8516387939453 80.599853515625 225.60227966308594 68.62653350830078 225.0071563720703 C 60.1979866027832 211.13682556152344 63.24768829345703 239.0899200439453 73.95365905761719 228.433837890625" stroke-width="2.0" fill="none" stroke="rgb(0, 0, 0)" stroke-opacity="1" stroke-linecap="round" stroke-linejoin="round"/>
    <path d="M 209.66444396972656 149.8329315185547 C 198.975341796875 130.18130493164062 187.79481506347656 162.89573669433594 207.70835876464844 147.4683380126953 C 238.2575225830078 158.839111328125 186.63050842285156 153.97259521484375 188.1746826171875 175.30386352539062 C 171.55665588378906 177.65060424804688 154.03631591796875 175.79092407226562 188.10873413085938 170.6778106689453" stroke-width="2.0" fill="none" stroke="rgb(0, 0, 0)" stroke-opacity="1" stroke-linecap="round" stroke-linejoin="round"/>
    <path d="M 140.02452087402344 34.28406524658203 C 132.3598175048828 23.6102237701416 151.9085693359375 38.3218879699707 159.70999145507812 30.204181671142578" stroke-width="2.0" fill="none" stroke="rgb(0, 0, 0)" stroke-opacity="1" stroke-linecap="round" stroke-linejoin="round"/>
    <path d="M 170.68203735351562 48.277549743652344 C 155.131103515625 53.3917350769043 135.68299865722656 92.24844360351562 153.00161743164062 83.87051391601562" stroke-width="2.0" fill="none" stroke="rgb(0, 0, 0)" stroke-opacity="1" stroke-linecap="round" stroke-linejoin="round"/>
    <path d="M 10.918083190917969 79.88727569580078 C -2.8924708366394043 67.79852294921875 3.913362741470337 48.73650360107422 24.697097778320312 50.79946517944336 C 28.00664520263672 24.38096809387207 -6.838496685028076 51.90869140625 3.1426470279693604 49.877464294433594 C 2.660285472869873 7.2701239585876465 -4.917024612426758 26.679550170898438 -31.494592666625977 31.198348999023438" stroke-width="2.0" fill="none" stroke="rgb(0, 0, 0)" stroke-opacity="1" stroke-linecap="round" stroke-linejoin="round"/>
    <path d="M 234.5502471923828 111.77133178710938 C 234.9884033203125 98.49182891845703 197.36026000976562 99.838623046875 187.93650817871094 118.1513671875" stroke-width="2.0" fill="none" stroke="rgb(0, 0, 0)" stroke-opacity="1" stroke-linecap="round" stroke-linejoin="round"/>
    <path d="M 176.90087890625 82.3506851196289 C 117.40113830566406 76.9744873046875 147.43971252441406 60.976871490478516 195.2340545654297 45.953819274902344 C 224.527587890625 40.97877502441406 230.30300903320312 51.667354583740234 234.621826171875 37.18367385864258 C 158.32659912109375 33.22440719604492 171.33287048339844 43.41391372680664 185.3504638671875 54.875770568847656" stroke-width="2.0" fill="none" stroke="rgb(0, 0, 0)" stroke-opacity="1" stroke-linecap="round" stroke-linejoin="round"/>
    <path d="M 128.6383056640625 125.69833374023438 C 140.8278045654297 138.4667510986328 134.69732666015625 129.54615783691406 96.53959655761719 121.29582214355469 C 111.06824493408203 82.7211685180664 159.33079528808594 89.28890991210938 111.64715576171875 104.09993743896484" stroke-width="2.0" fill="none" stroke="rgb(0, 0, 0)" stroke-opacity="1" stroke-linecap="round" stroke-linejoin="round"/>
    <path d="M 80.13617706298828 213.30409240722656 C 104.4953384399414 228.9371337890625 131.4095916748047 211.20680236816406 85.39607238769531 216.6763153076172 C 90.79899597167969 192.80567932128906 129.30569458007812 185.40760803222656 77.3906021118164 206.59133911132812 C 95.40845489501953 221.38401794433594 79.72785949707031 186.4862823486328 99.28296661376953 195.40243530273438" stroke-width="2.0" fill="none" stroke="rgb(0, 0, 0)" stroke-opacity="1" stroke-linecap="round" stroke-linejoin="round"/>
    <path d="M 127.76654815673828 222.7882080078125 C 104.32539367675781 200.8023223876953 187.427001953125 222.57205200195312 164.06417846679688 198.4931182861328 C 152.54550170898438 212.50497436523438 176.05662536621094 192.2338409423828 160.09735107421875 203.99708557128906 C 150.82406616210938 203.62652587890625 129.62774658203125 207.70672607421875 129.17311096191406 202.90113830566406" stroke-width="2.0" fill="none" stroke="rgb(0, 0, 0)" stroke-opacity="1" stroke-linecap="round" stroke-linejoin="round"/>
    <path d="M 118.96627807617188 64.73030090332031 C 112.55400085449219 49.7158088684082 103.78826141357422 74.67817687988281 117.7332992553711 66.51451873779297" stroke-width="2.0" fill="none" stroke="rgb(0, 0, 0)" stroke-opacity="1" stroke-linecap="round" stroke-linejoin="round"/>
    <path d="M 183.42445373535156 111.1212158203125 C 182.60890197753906 144.3688507080078 180.17410278320312 139.7775421142578 165.9390411376953 103.57331848144531" stroke-width="2.0" fill="none" stroke="rgb(0, 0, 0)" stroke-opacity="1" stroke-linecap="round" stroke-linejoin="round"/>
    <path d="M 94.39804077148438 196.44546508789062 C 88.85615539550781 193.22979736328125 115.90572357177734 200.5460968017578 111.5628662109375 197.3462371826172 C 85.06004333496094 189.21768188476562 150.25230407714844 194.6644287109375 124.58396911621094 201.49267578125 C 130.3686065673828 188.37525939941406 106.41285705566406 201.2711639404297 108.07088470458984 188.17526245117188" stroke-width="2.0" fill="none" stroke="rgb(0, 0, 0)" stroke-opacity="1" stroke-linecap="round" stroke-linejoin="round"/>
    <path d="M 67.00261688232422 87.43264770507812 C 47.43912887573242 70.68301391601562 106.29265594482422 83.43608856201172 84.13092041015625 87.80775451660156 C 79.02588653564453 62.80542755126953 57.439178466796875 49.91407775878906 99.94859313964844 42.43701934814453" stroke-width="2.0" fill="none" stroke="rgb(0, 0, 0)" stroke-opacity="1" stroke-linecap="round" stroke-linejoin="round"/>
    <path d="M 150.75926208496094 102.63915252685547 C 166.03956604003906 103.71105194091797 137.21644592285156 114.87074279785156 126.16678619384766 114.2881088256836 C 127.21056365966797 100.45050811767578 155.7930145263672 131.11199951171875 121.59725952148438 114.99432373046875 C 136.5531768798828 88.97870635986328 168.56875610351562 119.93207550048828 172.23388671875 100.25269317626953" stroke-width="2.0" fill="none" stroke="rgb(0, 0, 0)" stroke-opacity="1" stroke-linecap="round" stroke-linejoin="round"/>
    <path d="M 156.07427978515625 224.28570556640625 C 85.64142608642578 212.45965576171875 51.44527816772461 235.19322204589844 103.23184967041016 221.15914916992188 C 109.11238861083984 249.03781127929688 114.58280181884766 213.72463989257812 151.10147094726562 236.9221649169922 C 98.47197723388672 253.26473999023438 85.3361587524414 259.03802490234375 75.48530578613281 250.1514129638672" stroke-width="2.0" fill="none" stroke="rgb(0, 0, 0)" stroke-opacity="1" stroke-linecap="round" stroke-linejoin="round"/>
    <path d="M 155.8173370361328 50.712257385253906 C 154.06504821777344 28.26079559326172 168.14593505859375 21.506183624267578 164.7066650390625 49.59402847290039 C 156.59385681152344 53.12306213378906 166.28692626953125 36.480098724365234 142.7379913330078 34.12725067138672" stroke-width="2.0" fill="none" stroke="rgb(0, 0, 0)" stroke-opacity="1" stroke-linecap="round" stroke-linejoin="round"/>
    <path d="M 191.82540893554688 151.62423706054688 C 202.34652709960938 132.644287109375 181.73199462890625 151.59010314941406 203.5000457763672 145.00320434570312" stroke-width="2.0" fill="none" stroke="rgb(0, 0, 0)" stroke-opacity="1" stroke-linecap="round" stroke-linejoin="round"/>
    <path d="M 97.32905578613281 187.83921813964844 C 66.84695434570312 201.24534606933594 79.10354614257812 214.86288452148438 121.09104919433594 204.94482421875 C 104.057861328125 199.04676818847656 127.82164001464844 223.2789764404297 121.75772857666016 194.54049682617188" stroke-width="2.0" fill="none" stroke="rgb(0, 0, 0)" stroke-opacity="1" stroke-linecap="round" stroke-linejoin="round"/>
    <path d="M 37.78766632080078 136.8054656982422 C 65.61373901367188 129.32949829101562 67.67888641357422 119.78236389160156 8.689306259155273 128.83677673339844 C 29.129844665527344 121.12067413330078 -15.180466651916504 117.38198852539062 2.60886549949646 160.65431213378906 C -3.807274103164673 162.064453125 16.900583267211914 140.17788696289062 19.359209060668945 143.46279907226562" stroke-width="2.0" fill="none" stroke="rgb(0, 0, 0)" stroke-opacity="1" stroke-linecap="round" stroke-linejoin="round"/>
    <path d="M 122.43343353271484 226.19175720214844 C 130.56417846679688 221.56002807617188 138.35894775390625 219.80276489257812 206.189453125 222.96241760253906" stroke-width="2.0" fill="none" stroke="rgb(0, 0, 0)" stroke-opacity="1" stroke-linecap="round" stroke-linejoin="round"/>
    <path d="M 75.33023071289062 109.23095703125 C 59.66981506347656 126.46434020996094 62.76390838623047 143.58377075195312 61.799381256103516 126.120361328125 C 41.391902923583984 127.88690185546875 30.02285385131836 140.58627319335938 67.4762191772461 142.42507934570312" stroke-width="2.0" fill="none" stroke="rgb(0, 0, 0)" stroke-opacity="1" stroke-linecap="round" stroke-linejoin="round"/>
    <path d="M 92.66230010986328 189.63381958007812 C 73.36102294921875 203.5353546142578 78.99232482910156 188.36431884765625 114.21236419677734 180.40118408203125 C 111.82919311523438 186.88145446777344 118.44120788574219 191.7733612060547 120.18842315673828 167.61422729492188" stroke-width="2.0" fill="none" stroke="rgb(0, 0, 0)" stroke-opacity="1" stroke-linecap="round" stroke-linejoin="round"/>
    <path d="M 167.16380310058594 32.02930450439453 C 148.73426818847656 42.78297424316406 147.2509307861328 39.29973602294922 129.3956756591797 33.28478240966797 C 134.56602478027344 21.425596237182617 102.18241119384766 15.655417442321777 173.6873321533203 23.597410202026367" stroke-width="2.0" fill="none" stroke="rgb(0, 0, 0)" stroke-opacity="1" stroke-linecap="round" stroke-linejoin="round"/>
    <path d="M 86.85443878173828 64.39569091796875 C 117.68421173095703 78.35321807861328 56.519500732421875 73.9375991821289 108.31725311279297 86.6213150024414 C 128.7897491455078 97.33687591552734 100.79059600830078 74.42362213134766 78.2273941040039 81.1763687133789 C 74.88520050048828 55.72091293334961 59.42851257324219 64.44352722167969 109.94429779052734 62.548828125" stroke-width="2.0" fill="none" stroke="rgb(0, 0, 0)" stroke-opacity="1" stroke-linecap="round" stroke-linejoin="round"/>
    <path d="M 182.10357666015625 17.454151153564453 C 127.55501556396484 19.09362030029297 104.77249145507812 12.345734596252441 157.69931030273438 6.35282564163208 C 117.9936294555664 21.79340171813965 120.99385070800781 4.691547393798828 191.58062744140625 10.753990173339844" stroke-width="2.0" fill="none" stroke="rgb(0, 0, 0)" stroke-opacity="1" stroke-linecap="round" stroke-linejoin="round"/>
    <path d="M 123.01240539550781 96.12359619140625 C 151.11785888671875 79.15125274658203 92.99608612060547 78.71554565429688 112.55339050292969 85.0514907836914 C 117.98302459716797 97.41413116455078 77.73095703125 65.58051300048828 136.03787231445312 71.18597412109375" stroke-width="2.0" fill="none" stroke="rgb(0, 0, 0)" stroke-opacity="1" stroke-linecap="round" stroke-linejoin="round"/>
    <path d="M 209.4666748046875 66.80656433105469 C 162.62022399902344 88.40672302246094 196.34144592285156 94.29948425292969 190.417724609375 90.91557312011719 C 196.89044189453125 79.3598403930664 231.78976440429688 66.84813690185547 215.61746215820312 99.24383544921875" stroke-width="2.0" fill="none" stroke="rgb(0, 0, 0)" stroke-opacity="1" stroke-linecap="round" stroke-linejoin="round"/>
    <path d="M 182.998779296875 7.142098426818848 C 210.2733917236328 12.917455673217773 194.3582305908203 7.429328441619873 147.34579467773438 5.70221471786499 C 206.77389526367188 4.1097540855407715 198.3679656982422 7.065605640411377 191.79615783691406 13.010184288024902 C 166.93275451660156 14.681007385253906 195.10447692871094 49.5358772277832 193.1009979248047 9.384964942932129" stroke-width="2.0" fill="none" stroke="rgb(0, 0, 0)" stroke-opacity="1" stroke-linecap="round" stroke-linejoin="round"/>
    <path d="M 40.60303497314453 179.50186157226562 C 20.728029251098633 187.2057342529297 102.98804473876953 179.1724853515625 44.51703643798828 170.02297973632812" stroke-width="2.0" fill="none" stroke="rgb(0, 0, 0)" stroke-opacity="1" stroke-linecap="round" stroke-linejoin="round"/>
    <path d="M 24.863439559936523 119.56951141357422 C -2.61065936088562 117.70938110351562 -5.7717366218566895 168.7926788330078 24.67518424987793 141.7205047607422" stroke-width="2.0" fill="none" stroke="rgb(0, 0, 0)" stroke-opacity="1" stroke-linecap="round" stroke-linejoin="round"/>
    <path d="M 108.00576782226562 190.40924072265625 C 155.6591033935547 192.38856506347656 166.7058563232422 183.44210815429688 139.7358856201172 184.0908660888672" stroke-width="2.0" fill="none" stroke="rgb(0, 0, 0)" stroke-opacity="1" stroke-linecap="round" stroke-linejoin="round"/>
    <path d="M -5.196390628814697 24.673282623291016 C 8.601322174072266 1.646125316619873 13.342597961425781 -10.410276412963867 7.720490455627441 -13.431471824645996 C 3.7878894805908203 -3.644261121749878 -5.124480724334717 -3.8569719791412354 -8.595169067382812 -7.017735004425049 C -9.497077941894531 -3.750636577606201 -16.74443244934082 0.037334997206926346 -22.90343475341797 -6.209394454956055" stroke-width="2.0" fill="none" stroke="rgb(0, 0, 0)" stroke-opacity="1" stroke-linecap="round" stroke-linejoin="round"/>
    <path d="M 17.744657516479492 92.411376953125 C 56.99901580810547 84.86566925048828 38.52033233642578 77.47949981689453 63.013633728027344 82.95574951171875 C 10.857765197753906 79.71881103515625 -1.666896939277649 83.79655456542969 6.715909481048584 99.12384033203125 C 26.647823333740234 101.66078186035156 24.740079879760742 92.4941635131836 47.427955627441406 87.83158874511719" stroke-width="2.0" fill="none" stroke="rgb(0, 0, 0)" stroke-opacity="1" stroke-linecap="round" stroke-linejoin="round"/>
    <path d="M 229.60853576660156 28.787261962890625 C 197.10797119140625 16.43576431274414 187.08253479003906 2.0990262031555176 232.84783935546875 49.51044845581055 C 213.8566436767578 48.456809997558594 146.675048828125 44.497886657714844 194.74049377441406 48.921836853027344" stroke-width="2.0" fill="none" stroke="rgb(0, 0, 0)" stroke-opacity="1" stroke-linecap="round" stroke-linejoin="round"/>
    <path d="M 10.385725975036621 144.68788146972656 C 57.15679168701172 168.19195556640625 -2.837146759033203 135.30836486816406 47.445858001708984 131.48167419433594" stroke-width="2.0" fill="none" stroke="rgb(0, 0, 0)" stroke-opacity="1" stroke-linecap="round" stroke-linejoin="round"/>
    <path d="M 90.82672119140625 164.08021545410156 C 97.46912384033203 173.9873046875 105.55335235595703 168.26332092285156 101.37958526611328 164.2758026123047 C 139.37509155273438 174.7856903076172 124.85499572753906 156.0869903564453 94.8946533203125 175.173095703125 C 126.8031005859375 165.44317626953125 133.19459533691406 158.20396423339844 96.99303436279297 171.1522216796875" stroke-width="2.0" fill="none" stroke="rgb(0, 0, 0)" stroke-opacity="1" stroke-linecap="round" stroke-linejoin="round"/>
    <path d="M 69.56095123291016 225.79934692382812 C -1.068140983581543 234.23484802246094 39.0526008605957 205.8194580078125 75.5439682006836 212.42471313476562 C 49.72452926635742 229.76657104492188 34.32646942138672 220.55413818359375 13.216632843017578 218.94039916992188 C 4.528480052947998 203.36358642578125 27.429964065551758 223.78819274902344 65.01222229003906 216.68405151367188" stroke-width="2.0" fill="none" stroke="rgb(0, 0, 0)" stroke-opacity="1" stroke-linecap="round" stroke-linejoin="round"/>
    <path d="M 189.03030395507812 106.7220687866211 C 180.58871459960938 139.3569793701172 198.8284149169922 114.1938705444336 156.2306671142578 118.18102264404297" stroke-width="2.0" fill="none" stroke="rgb(0, 0, 0)" stroke-opacity="1" stroke-linecap="round" stroke-linejoin="round"/>
    <path d="M 85.75084686279297 178.33274841308594 C 96.94963836669922 173.5078125 78.85407257080078 192.03823852539062 74.76863098144531 178.1775360107422" stroke-width="2.0" fill="none" stroke="rgb(0, 0, 0)" stroke-opacity="1" stroke-linecap="round" stroke-linejoin="round"/>
  </g>
</svg>
