<?xml version="1.0" ?>
<svg xmlns="http://www.w3.org/2000/svg" version="1.1" width="224" height="224">
  <defs/>
  <g>
    <path d="M 190.40603637695312 107.18213653564453 C 187.4652862548828 103.60163879394531 198.35362243652344 98.74958801269531 194.9673309326172 111.60765075683594 C 219.74404907226562 85.83101654052734 196.70835876464844 99.41078186035156 196.12733459472656 90.01961517333984 C 230.59080505371094 81.79898834228516 211.8697052001953 64.6706314086914 208.02340698242188 80.911865234375" stroke-width="2.0" fill="none" stroke="rgb(0, 0, 0)" stroke-opacity="1" stroke-linecap="round" stroke-linejoin="round"/>
    <path d="M 144.25502014160156 9.642806053161621 C 131.21405029296875 16.444950103759766 150.16751098632812 -1.7232468128204346 146.06661987304688 20.042757034301758" stroke-width="2.0" fill="none" stroke="rgb(0, 0, 0)" stroke-opacity="1" stroke-linecap="round" stroke-linejoin="round"/>
    <path d="M 178.95509338378906 97.80198669433594 C 145.2112579345703 112.8971176147461 179.1240234375 105.42646789550781 202.9141387939453 94.5066146850586 C 192.37477111816406 93.2833023071289 192.25469970703125 99.58299255371094 187.5703887939453 85.1432113647461 C 168.33119201660156 89.61639404296875 189.39683532714844 101.29886627197266 180.09706115722656 76.99684143066406" stroke-width="2.0" fill="none" stroke="rgb(0, 0, 0)" stroke-opacity="1" stroke-linecap="round" stroke-linejoin="round"/>
    <path d="M 80.53465270996094 127.05152130126953 C 90.00614166259766 119.39730072021484 103.9673843383789 133.94012451171875 91.67559051513672 101.7972412109375 C 68.93540954589844 109.54873657226562 93.69849395751953 125.20487213134766 100.18441772460938 135.523681640625 C 145.9046630859375 115.35968017578125 142.8178253173828 123.24042510986328 104.64341735839844 131.4049530029297" stroke-width="2.0" fill="none" stroke="rgb(0, 0, 0)" stroke-opacity="1" stroke-linecap="round" stroke-linejoin="round"/>
    <path d="M 132.85658264160156 62.91106414794922 C 116.86766815185547 82.04443359375 127.05558013916016 69.66445922851562 123.13508605957031 74.44588470458984 C 145.6376190185547 68.09527587890625 152.9694061279297 44.46689224243164 159.38705444335938 60.49250411987305" stroke-width="2.0" fill="none" stroke="rgb(0, 0, 0)" stroke-opacity="1" stroke-linecap="round" stroke-linejoin="round"/>
    <path d="M 60.898834228515625 65.95394134521484 C 72.50534057617188 60.97110366821289 46.1846809387207 72.90218353271484 53.85200119018555 54.65346908569336 C 13.665155410766602 69.0201416015625 18.606000900268555 19.635360717773438 31.484987258911133 65.73863220214844" stroke-width="2.0" fill="none" stroke="rgb(0, 0, 0)" stroke-opacity="1" stroke-linecap="round" stroke-linejoin="round"/>
    <path d="M 148.31825256347656 58.575496673583984 C 156.14248657226562 57.30769348144531 155.77703857421875 70.02139282226562 149.53367614746094 64.60476684570312 C 143.3273468017578 49.392051696777344 126.5321273803711 49.71153259277344 132.7536163330078 63.535552978515625" stroke-width="2.0" fill="none" stroke="rgb(0, 0, 0)" stroke-opacity="1" stroke-linecap="round" stroke-linejoin="round"/>
    <path d="M 78.98517608642578 141.3832244873047 C 59.22269821166992 144.27313232421875 40.499900817871094 126.63023376464844 94.1839828491211 126.823486328125" stroke-width="2.0" fill="none" stroke="rgb(0, 0, 0)" stroke-opacity="1" stroke-linecap="round" stroke-linejoin="round"/>
    <path d="M 31.023405075073242 49.91912841796875 C 32.073341369628906 32.3635139465332 35.0750732421875 57.12372589111328 49.465946197509766 65.039794921875 C 31.838518142700195 36.97175216674805 54.81931686401367 52.4136848449707 46.90186309814453 53.37223815917969" stroke-width="2.0" fill="none" stroke="rgb(0, 0, 0)" stroke-opacity="1" stroke-linecap="round" stroke-linejoin="round"/>
    <path d="M 149.75259399414062 92.25668334960938 C 151.60736083984375 92.04571533203125 153.57810974121094 82.02803039550781 164.81076049804688 67.23796844482422 C 169.5941925048828 101.42460632324219 145.13624572753906 93.91352081298828 202.01441955566406 80.0451431274414 C 187.6444854736328 82.04097747802734 158.93179321289062 100.4640121459961 181.91123962402344 86.12483215332031" stroke-width="2.0" fill="none" stroke="rgb(0, 0, 0)" stroke-opacity="1" stroke-linecap="round" stroke-linejoin="round"/>
    <path d="M 137.8130645751953 213.93345642089844 C 157.55325317382812 213.3497314453125 169.15675354003906 228.23828125 130.50755310058594 233.27896118164062" stroke-width="2.0" fill="none" stroke="rgb(0, 0, 0)" stroke-opacity="1" stroke-linecap="round" stroke-linejoin="round"/>
    <path d="M 60.63026428222656 149.38168334960938 C 48.07413864135742 149.96864318847656 52.438472747802734 151.62969970703125 91.64585876464844 142.86256408691406 C 70.42228698730469 148.28379821777344 72.80472564697266 143.88897705078125 81.41173553466797 140.1631622314453 C 79.15856170654297 145.4529571533203 74.52351379394531 135.4570770263672 105.47627258300781 136.396240234375" stroke-width="2.0" fill="none" stroke="rgb(0, 0, 0)" stroke-opacity="1" stroke-linecap="round" stroke-linejoin="round"/>
    <path d="M 99.61829376220703 25.342430114746094 C 91.04012298583984 27.11387062072754 82.7692642211914 15.007898330688477 95.06391143798828 17.11964988708496" stroke-width="2.0" fill="none" stroke="rgb(0, 0, 0)" stroke-opacity="1" stroke-linecap="round" stroke-linejoin="round"/>
    <path d="M 141.40768432617188 28.444232940673828 C 121.48004913330078 17.603580474853516 125.58140563964844 50.31779479980469 145.37509155273438 34.577125549316406 C 127.26664733886719 52.298133850097656 121.65798950195312 58.983116149902344 118.74140167236328 59.62700271606445" stroke-width="2.0" fill="none" stroke="rgb(0, 0, 0)" stroke-opacity="1" stroke-linecap="round" stroke-linejoin="round"/>
    <path d="M 207.39764404296875 61.715065002441406 C 198.20054626464844 46.78234100341797 231.36993408203125 59.69957733154297 192.6709747314453 65.65393829345703" stroke-width="2.0" fill="none" stroke="rgb(0, 0, 0)" stroke-opacity="1" stroke-linecap="round" stroke-linejoin="round"/>
    <path d="M 77.06853485107422 141.90574645996094 C 83.00759887695312 147.63890075683594 114.52640533447266 142.1531982421875 125.59715270996094 136.1848907470703 C 107.52538299560547 133.94686889648438 94.45030975341797 146.1993865966797 110.8801498413086 138.0548553466797 C 99.92876434326172 147.3691864013672 103.12220764160156 124.32275390625 96.66423797607422 115.32113647460938" stroke-width="2.0" fill="none" stroke="rgb(0, 0, 0)" stroke-opacity="1" stroke-linecap="round" stroke-linejoin="round"/>
    <path d="M 164.12442016601562 132.0209503173828 C 154.50955200195312 149.00160217285156 185.1749267578125 146.65635681152344 161.627685546875 124.44258880615234 C 155.94244384765625 151.9759521484375 159.40481567382812 158.9369659423828 156.54908752441406 143.83242797851562" stroke-width="2.0" fill="none" stroke="rgb(0, 0, 0)" stroke-opacity="1" stroke-linecap="round" stroke-linejoin="round"/>
    <path d="M 121.38497924804688 128.3323516845703 C 60.61760330200195 126.07525634765625 104.90535736083984 144.26641845703125 78.11721801757812 120.47654724121094 C 68.357177734375 69.42797088623047 64.2171630859375 100.99335479736328 84.36221313476562 132.91815185546875" stroke-width="2.0" fill="none" stroke="rgb(0, 0, 0)" stroke-opacity="1" stroke-linecap="round" stroke-linejoin="round"/>
    <path d="M 28.458097457885742 137.17625427246094 C 42.29793167114258 140.15257263183594 31.48805809020996 118.68331146240234 28.567350387573242 135.91053771972656" stroke-width="2.0" fill="none" stroke="rgb(0, 0, 0)" stroke-opacity="1" stroke-linecap="round" stroke-linejoin="round"/>
    <path d="M 185.54725646972656 72.55860900878906 C 220.4501953125 57.20656204223633 193.50575256347656 69.00702667236328 200.1197052001953 58.475341796875" stroke-width="2.0" fill="none" stroke="rgb(0, 0, 0)" stroke-opacity="1" stroke-linecap="round" stroke-linejoin="round"/>
    <path d="M 75.1270980834961 81.14964294433594 C 91.0876235961914 73.53084564208984 62.89608383178711 57.43252944946289 77.79106903076172 76.38825225830078 C 77.67889404296875 83.57087707519531 55.95792770385742 70.16185760498047 63.99349594116211 90.25227355957031 C -4.941672325134277 117.00336456298828 36.0261344909668 95.59581756591797 31.69584083557129 97.76248931884766" stroke-width="2.0" fill="none" stroke="rgb(0, 0, 0)" stroke-opacity="1" stroke-linecap="round" stroke-linejoin="round"/>
    <path d="M 73.8268814086914 176.12831115722656 C 86.11827087402344 172.71682739257812 90.7165298461914 173.4559326171875 86.78658294677734 167.37977600097656 C 91.92351531982422 194.62753295898438 92.77889251708984 198.34571838378906 90.66336059570312 204.1495361328125" stroke-width="2.0" fill="none" stroke="rgb(0, 0, 0)" stroke-opacity="1" stroke-linecap="round" stroke-linejoin="round"/>
    <path d="M 176.48223876953125 82.9648208618164 C 165.91246032714844 63.98690414428711 174.38121032714844 98.37152862548828 167.68113708496094 95.05843353271484 C 139.83192443847656 106.07205963134766 164.29983520507812 112.33892822265625 164.87872314453125 68.82193756103516 C 158.11839294433594 116.80120086669922 151.13897705078125 114.5559310913086 195.98179626464844 92.70751190185547" stroke-width="2.0" fill="none" stroke="rgb(0, 0, 0)" stroke-opacity="1" stroke-linecap="round" stroke-linejoin="round"/>
    <path d="M 5.737731456756592 8.143128395080566 C 18.679285049438477 5.227220058441162 -0.952551007270813 28.373798370361328 17.245357513427734 14.774699211120605 C 16.314407348632812 -19.243955612182617 31.191364288330078 -17.884408950805664 42.595191955566406 -15.12329387664795 C 36.28171920776367 -5.947297096252441 45.8780632019043 -14.149820327758789 34.82709503173828 -17.974042892456055" stroke-width="2.0" fill="none" stroke="rgb(0, 0, 0)" stroke-opacity="1" stroke-linecap="round" stroke-linejoin="round"/>
    <path d="M 174.7273712158203 210.78134155273438 C 162.49517822265625 213.7848663330078 185.06591796875 211.54794311523438 169.43128967285156 207.80775451660156 C 180.6537628173828 218.1304168701172 183.43214416503906 221.44566345214844 139.2403106689453 224.5114288330078" stroke-width="2.0" fill="none" stroke="rgb(0, 0, 0)" stroke-opacity="1" stroke-linecap="round" stroke-linejoin="round"/>
    <path d="M 224.3498992919922 187.10018920898438 C 224.89906311035156 227.08270263671875 218.8784637451172 224.00253295898438 198.84776306152344 216.89996337890625" stroke-width="2.0" fill="none" stroke="rgb(0, 0, 0)" stroke-opacity="1" stroke-linecap="round" stroke-linejoin="round"/>
    <path d="M 95.82373046875 32.7286376953125 C 114.59691619873047 60.048892974853516 116.84612274169922 61.44960021972656 64.74549865722656 44.68647384643555" stroke-width="2.0" fill="none" stroke="rgb(0, 0, 0)" stroke-opacity="1" stroke-linecap="round" stroke-linejoin="round"/>
    <path d="M 166.055908203125 203.10360717773438 C 166.0493927001953 199.51881408691406 153.1806182861328 201.29067993164062 148.199462890625 203.3389892578125 C 173.6820526123047 196.5787811279297 173.0957794189453 196.79345703125 146.7740936279297 202.6464385986328 C 170.0620880126953 199.06851196289062 173.9649200439453 195.05776977539062 177.0117950439453 166.8785400390625" stroke-width="2.0" fill="none" stroke="rgb(0, 0, 0)" stroke-opacity="1" stroke-linecap="round" stroke-linejoin="round"/>
    <path d="M 39.82960891723633 77.52275085449219 C 41.978302001953125 104.61602783203125 33.95261001586914 67.82048797607422 43.25315475463867 75.43155670166016 C 50.7249870300293 88.55867004394531 38.00135803222656 86.54472351074219 39.645347595214844 85.98438262939453" stroke-width="2.0" fill="none" stroke="rgb(0, 0, 0)" stroke-opacity="1" stroke-linecap="round" stroke-linejoin="round"/>
    <path d="M 138.2700653076172 86.16725158691406 C 125.86228942871094 94.91732025146484 121.04032135009766 99.90668487548828 134.75894165039062 110.47579956054688 C 101.180419921875 110.04107666015625 109.26820373535156 89.77164459228516 137.65757751464844 122.44583892822266 C 127.86371612548828 115.52523803710938 103.91173553466797 85.07483673095703 113.22696685791016 47.46890640258789" stroke-width="2.0" fill="none" stroke="rgb(0, 0, 0)" stroke-opacity="1" stroke-linecap="round" stroke-linejoin="round"/>
    <path d="M 213.3336944580078 78.78155517578125 C 193.96469116210938 98.43338012695312 189.080078125 95.37531280517578 183.09231567382812 100.43519592285156 C 193.8768768310547 100.1264877319336 175.6682586669922 71.62296295166016 174.79885864257812 101.39185333251953" stroke-width="2.0" fill="none" stroke="rgb(0, 0, 0)" stroke-opacity="1" stroke-linecap="round" stroke-linejoin="round"/>
    <path d="M 55.822021484375 129.8612518310547 C 106.6189956665039 119.14254760742188 96.99967956542969 120.3534927368164 98.21389770507812 123.75657653808594 C 126.94448852539062 123.48637390136719 124.54423522949219 119.80204772949219 121.34516906738281 111.5625 C 150.92579650878906 124.6814193725586 146.28790283203125 121.46622467041016 123.55316925048828 110.48184967041016" stroke-width="2.0" fill="none" stroke="rgb(0, 0, 0)" stroke-opacity="1" stroke-linecap="round" stroke-linejoin="round"/>
    <path d="M 197.94056701660156 108.55492401123047 C 237.5136260986328 102.54037475585938 220.69949340820312 95.35676574707031 211.2363739013672 98.57211303710938" stroke-width="2.0" fill="none" stroke="rgb(0, 0, 0)" stroke-opacity="1" stroke-linecap="round" stroke-linejoin="round"/>
    <path d="M 124.76678466796875 73.22283172607422 C 121.79194641113281 78.21440887451172 133.74986267089844 66.932373046875 156.5258026123047 51.603641510009766" stroke-width="2.0" fill="none" stroke="rgb(0, 0, 0)" stroke-opacity="1" stroke-linecap="round" stroke-linejoin="round"/>
    <path d="M 156.74949645996094 101.60227966308594 C 199.5008544921875 94.23651123046875 228.09410095214844 85.33304595947266 207.91305541992188 99.93055725097656 C 181.4124755859375 99.47291564941406 220.0864715576172 117.01411437988281 216.84799194335938 91.16432189941406" stroke-width="2.0" fill="none" stroke="rgb(0, 0, 0)" stroke-opacity="1" stroke-linecap="round" stroke-linejoin="round"/>
    <path d="M 67.41342163085938 85.95301818847656 C 65.31888580322266 73.4308090209961 70.23755645751953 85.11205291748047 74.30854797363281 80.27764892578125 C 35.0257682800293 100.7740707397461 55.23558807373047 90.09300231933594 97.54474639892578 77.35384368896484" stroke-width="2.0" fill="none" stroke="rgb(0, 0, 0)" stroke-opacity="1" stroke-linecap="round" stroke-linejoin="round"/>
    <path d="M 86.54035949707031 26.32204818725586 C 107.95972442626953 20.74276351928711 98.42362213134766 26.43718910217285 79.92610168457031 25.94464111328125 C 82.23755645751953 42.703338623046875 77.35057830810547 48.51885986328125 96.36245727539062 46.820648193359375 C 75.90264129638672 0.8460740447044373 108.6654281616211 10.912217140197754 58.32270812988281 -0.5766453742980957" stroke-width="2.0" fill="none" stroke="rgb(0, 0, 0)" stroke-opacity="1" stroke-linecap="round" stroke-linejoin="round"/>
    <path d="M 92.86860656738281 25.569292068481445 C 99.18850708007812 56.9686279296875 122.02729034423828 42.93795394897461 107.9489517211914 54.789588928222656 C 107.22416687011719 48.0578727722168 91.10523223876953 67.05974578857422 67.91143035888672 50.962303161621094" stroke-width="2.0" fill="none" stroke="rgb(0, 0, 0)" stroke-opacity="1" stroke-linecap="round" stroke-linejoin="round"/>
    <path d="M 31.174041748046875 169.44570922851562 C 28.382362365722656 173.20547485351562 31.579082489013672 151.5780487060547 38.9322509765625 194.07655334472656 C 52.205078125 213.53489685058594 37.8560791015625 144.5645294189453 15.875258445739746 147.23257446289062 C 4.7304368019104 161.81251525878906 29.028284072875977 159.48353576660156 23.414066314697266 178.8882598876953" stroke-width="2.0" fill="none" stroke="rgb(0, 0, 0)" stroke-opacity="1" stroke-linecap="round" stroke-linejoin="round"/>
    <path d="M 168.9229736328125 1.2582026720046997 C 179.8392333984375 32.478233337402344 156.81802368164062 11.072720527648926 165.80284118652344 26.115385055541992" stroke-width="2.0" fill="none" stroke="rgb(0, 0, 0)" stroke-opacity="1" stroke-linecap="round" stroke-linejoin="round"/>
    <path d="M 210.77772521972656 21.45503044128418 C 189.85281372070312 22.694149017333984 186.8478546142578 21.416208267211914 188.44700622558594 28.093505859375 C 191.19871520996094 32.58112335205078 188.57876586914062 43.16050720214844 183.75503540039062 14.687243461608887 C 165.24208068847656 35.25690841674805 159.62210083007812 15.816350936889648 179.0310821533203 22.875808715820312" stroke-width="2.0" fill="none" stroke="rgb(0, 0, 0)" stroke-opacity="1" stroke-linecap="round" stroke-linejoin="round"/>
    <path d="M 179.88951110839844 185.72515869140625 C 184.62620544433594 183.43414306640625 170.13339233398438 201.68218994140625 179.2183380126953 184.3481903076172 C 176.42572021484375 195.4697265625 188.95962524414062 184.2935791015625 187.89956665039062 153.8345184326172 C 185.62655639648438 153.45570373535156 182.68722534179688 183.04611206054688 188.3129119873047 189.208251953125" stroke-width="2.0" fill="none" stroke="rgb(0, 0, 0)" stroke-opacity="1" stroke-linecap="round" stroke-linejoin="round"/>
    <path d="M 157.25791931152344 28.1857852935791 C 128.72161865234375 36.120113372802734 135.4872283935547 37.62960433959961 132.69927978515625 5.214094161987305 C 185.319580078125 -5.8863301277160645 155.77120971679688 -1.009077787399292 153.12347412109375 8.540962219238281" stroke-width="2.0" fill="none" stroke="rgb(0, 0, 0)" stroke-opacity="1" stroke-linecap="round" stroke-linejoin="round"/>
    <path d="M 172.77227783203125 89.43734741210938 C 201.9785614013672 85.31385803222656 199.51365661621094 81.54914093017578 178.35678100585938 99.67225646972656 C 183.93431091308594 97.83203125 227.41940307617188 73.97453308105469 189.71022033691406 82.91173553466797" stroke-width="2.0" fill="none" stroke="rgb(0, 0, 0)" stroke-opacity="1" stroke-linecap="round" stroke-linejoin="round"/>
    <path d="M 93.92494201660156 135.51206970214844 C 121.994140625 131.7358856201172 97.15385437011719 146.0452423095703 63.7171630859375 142.7185821533203 C 66.08120727539062 143.71743774414062 82.48551177978516 146.2183074951172 37.53153991699219 144.17933654785156" stroke-width="2.0" fill="none" stroke="rgb(0, 0, 0)" stroke-opacity="1" stroke-linecap="round" stroke-linejoin="round"/>
    <path d="M 54.229469299316406 74.29308319091797 C 66.27458953857422 86.17288208007812 47.31776428222656 58.40156555175781 54.51227951049805 82.51206970214844" stroke-width="2.0" fill="none" stroke="rgb(0, 0, 0)" stroke-opacity="1" stroke-linecap="round" stroke-linejoin="round"/>
    <path d="M 147.30223083496094 179.13978576660156 C 144.44082641601562 140.47540283203125 127.42302703857422 142.9911651611328 92.81771087646484 154.3184051513672 C 95.64317321777344 181.09092712402344 111.16756439208984 161.17123413085938 95.35733032226562 165.98143005371094" stroke-width="2.0" fill="none" stroke="rgb(0, 0, 0)" stroke-opacity="1" stroke-linecap="round" stroke-linejoin="round"/>
    <path d="M 5.791054725646973 77.17573547363281 C -2.591942548751831 64.32273864746094 2.39701771736145 34.05718994140625 -12.169777870178223 61.37034225463867 C 1.3284364938735962 71.16056823730469 -4.520701885223389 66.1810302734375 -7.217884063720703 54.89841079711914" stroke-width="2.0" fill="none" stroke="rgb(0, 0, 0)" stroke-opacity="1" stroke-linecap="round" stroke-linejoin="round"/>
    <path d="M 138.73207092285156 28.886432647705078 C 138.9528045654297 23.57080078125 141.91441345214844 -3.994966983795166 135.41880798339844 20.37044334411621 C 120.02496337890625 49.254180908203125 164.119140625 31.475677490234375 150.4392547607422 24.940013885498047" stroke-width="2.0" fill="none" stroke="rgb(0, 0, 0)" stroke-opacity="1" stroke-linecap="round" stroke-linejoin="round"/>
    <path d="M 77.73705291748047 203.7945098876953 C 110.9686050415039 205.58700561523438 59.542236328125 207.22909545898438 92.37771606445312 202.1177520751953 C 87.10430145263672 200.41778564453125 90.35042572021484 195.18016052246094 87.2960433959961 171.8438262939453" stroke-width="2.0" fill="none" stroke="rgb(0, 0, 0)" stroke-opacity="1" stroke-linecap="round" stroke-linejoin="round"/>
    <path d="M -5.329407215118408 7.396196365356445 C -3.3673925399780273 16.083105087280273 -0.5190681219100952 25.841670989990234 -11.255658149719238 21.137903213500977 C -16.63238525390625 24.943195343017578 -8.99541187286377 21.64346694946289 -1.7577379941940308 32.071563720703125" stroke-width="2.0" fill="none" stroke="rgb(0, 0, 0)" stroke-opacity="1" stroke-linecap="round" stroke-linejoin="round"/>
    <path d="M 122.96074676513672 141.1829071044922 C 109.23802947998047 125.8497543334961 94.29644012451172 122.1363525390625 112.42615509033203 119.86054992675781 C 131.988037109375 114.81024932861328 113.97120666503906 107.39219665527344 110.6633071899414 100.29356384277344 C 98.0685043334961 105.04350280761719 116.5631103515625 95.72016906738281 117.89959716796875 102.49064636230469" stroke-width="2.0" fill="none" stroke="rgb(0, 0, 0)" stroke-opacity="1" stroke-linecap="round" stroke-linejoin="round"/>
    <path d="M 110.47483825683594 214.84632873535156 C 139.4138641357422 207.64183044433594 127.65269470214844 221.12559509277344 126.64978790283203 212.16355895996094 C 143.1573944091797 224.4584197998047 135.8348388671875 218.95159912109375 113.64909362792969 217.2498321533203" stroke-width="2.0" fill="none" stroke="rgb(0, 0, 0)" stroke-opacity="1" stroke-linecap="round" stroke-linejoin="round"/>
    <path d="M 23.757946014404297 -7.398581027984619 C -4.416374206542969 -1.6634471416473389 17.96091651916504 -15.326239585876465 16.202974319458008 14.508769035339355" stroke-width="2.0" fill="none" stroke="rgb(0, 0, 0)" stroke-opacity="1" stroke-linecap="round" stroke-linejoin="round"/>
    <path d="M 87.8594741821289 113.14764404296875 C 96.7265853881836 118.21472930908203 91.76480865478516 99.09847259521484 99.7743911743164 125.39269256591797" stroke-width="2.0" fill="none" stroke="rgb(0, 0, 0)" stroke-opacity="1" stroke-linecap="round" stroke-linejoin="round"/>
    <path d="M 225.77923583984375 208.34893798828125 C 229.09230041503906 234.63839721679688 190.46348571777344 229.40670776367188 184.0131378173828 199.72682189941406 C 225.1521759033203 203.18533325195312 213.59925842285156 197.5370330810547 214.06114196777344 208.82728576660156" stroke-width="2.0" fill="none" stroke="rgb(0, 0, 0)" stroke-opacity="1" stroke-linecap="round" stroke-linejoin="round"/>
    <path d="M 119.67960357666016 102.94010162353516 C 97.09700775146484 94.45277404785156 117.85472106933594 107.56788635253906 128.0510711669922 118.66605377197266 C 95.7589340209961 124.49259948730469 91.52039337158203 129.2193603515625 125.48245239257812 109.81542205810547 C 108.38546752929688 97.12425994873047 110.11396026611328 125.35077667236328 106.76639556884766 102.1792984008789" stroke-width="2.0" fill="none" stroke="rgb(0, 0, 0)" stroke-opacity="1" stroke-linecap="round" stroke-linejoin="round"/>
    <path d="M 12.66150951385498 134.57656860351562 C -11.420802116394043 114.16382598876953 9.541980743408203 106.34442901611328 -8.995627403259277 132.37091064453125 C -6.328881740570068 138.70330810546875 -3.070042133331299 146.61729431152344 -3.5780234336853027 139.2305450439453" stroke-width="2.0" fill="none" stroke="rgb(0, 0, 0)" stroke-opacity="1" stroke-linecap="round" stroke-linejoin="round"/>
    <path d="M 152.7557830810547 211.30592346191406 C 139.05032348632812 194.57266235351562 138.2530059814453 204.14317321777344 153.29379272460938 219.2356414794922" stroke-width="2.0" fill="none" stroke="rgb(0, 0, 0)" stroke-opacity="1" stroke-linecap="round" stroke-linejoin="round"/>
    <path d="M 26.480178833007812 183.95770263671875 C 17.643413543701172 184.78126525878906 28.0966796875 197.96810913085938 30.937108993530273 196.5209197998047 C 34.1588134765625 201.52017211914062 25.530420303344727 178.94842529296875 27.722042083740234 182.35845947265625" stroke-width="2.0" fill="none" stroke="rgb(0, 0, 0)" stroke-opacity="1" stroke-linecap="round" stroke-linejoin="round"/>
    <path d="M 53.539337158203125 111.05213928222656 C 48.3440055847168 105.35641479492188 56.28281021118164 124.59353637695312 56.57493209838867 139.99539184570312 C 40.35133743286133 139.80078125 30.954605102539062 139.5330352783203 -5.802234649658203 139.23451232910156 C 80.58357238769531 149.4461212158203 63.03136444091797 148.15237426757812 61.11302947998047 133.88819885253906" stroke-width="2.0" fill="none" stroke="rgb(0, 0, 0)" stroke-opacity="1" stroke-linecap="round" stroke-linejoin="round"/>
    <path d="M 18.80880355834961 154.14263916015625 C 22.550350189208984 159.13803100585938 4.792972087860107 150.9490509033203 32.88893508911133 153.02935791015625 C 31.968013763427734 157.0774383544922 20.35667610168457 148.20703125 47.16593551635742 151.19789123535156 C 0.6525824069976807 143.3490753173828 9.060159683227539 150.12677001953125 33.545318603515625 150.89312744140625" stroke-width="2.0" fill="none" stroke="rgb(0, 0, 0)" stroke-opacity="1" stroke-linecap="round" stroke-linejoin="round"/>
    <path d="M 59.07508087158203 64.47355651855469 C 66.0548095703125 50.416168212890625 59.098270416259766 52.0424919128418 69.07008361816406 60.11412048339844 C 62.04676818847656 55.99778747558594 50.98301696777344 61.66435623168945 53.46185302734375 50.26835250854492" stroke-width="2.0" fill="none" stroke="rgb(0, 0, 0)" stroke-opacity="1" stroke-linecap="round" stroke-linejoin="round"/>
    <path d="M 32.2910270690918 194.79615783691406 C 36.253501892089844 198.12344360351562 19.603004455566406 193.35487365722656 32.820091247558594 196.7467498779297 C 27.953853607177734 170.584228515625 18.777368545532227 169.37782287597656 18.332332611083984 190.3975067138672 C 28.63483238220215 198.83151245117188 40.622859954833984 199.4508819580078 21.774076461791992 165.99234008789062" stroke-width="2.0" fill="none" stroke="rgb(0, 0, 0)" stroke-opacity="1" stroke-linecap="round" stroke-linejoin="round"/>
    <path d="M 149.28062438964844 120.1842041015625 C 143.1226043701172 137.8187255859375 139.44744873046875 143.95907592773438 141.10850524902344 131.70094299316406" stroke-width="2.0" fill="none" stroke="rgb(0, 0, 0)" stroke-opacity="1" stroke-linecap="round" stroke-linejoin="round"/>
    <path d="M -3.18147349357605 167.46458435058594 C -0.6869931817054749 177.16392517089844 -6.374259948730469 172.55482482910156 -2.970327138900757 151.5555419921875" stroke-width="2.0" fill="none" stroke="rgb(0, 0, 0)" stroke-opacity="1" stroke-linecap="round" stroke-linejoin="round"/>
    <path d="M 189.880615234375 185.47775268554688 C 203.63172912597656 173.36598205566406 193.41873168945312 199.38619995117188 195.87261962890625 159.8254852294922" stroke-width="2.0" fill="none" stroke="rgb(0, 0, 0)" stroke-opacity="1" stroke-linecap="round" stroke-linejoin="round"/>
    <path d="M 164.947509765625 70.14795684814453 C 154.91500854492188 74.56414794921875 183.09512329101562 79.32577514648438 149.32583618164062 81.26968383789062 C 156.7998504638672 68.554931640625 132.39439392089844 63.468162536621094 148.0814971923828 72.62451171875" stroke-width="2.0" fill="none" stroke="rgb(0, 0, 0)" stroke-opacity="1" stroke-linecap="round" stroke-linejoin="round"/>
    <path d="M 69.13961029052734 78.30689239501953 C 53.75503921508789 53.443817138671875 76.4867172241211 61.10810089111328 67.34981536865234 64.21161651611328 C 97.2008285522461 55.535865783691406 87.69123077392578 78.61666870117188 86.11203002929688 64.08096313476562" stroke-width="2.0" fill="none" stroke="rgb(0, 0, 0)" stroke-opacity="1" stroke-linecap="round" stroke-linejoin="round"/>
    <path d="M 45.24833679199219 13.57397747039795 C 42.87171173095703 -5.893245220184326 57.6054801940918 29.47422981262207 49.644412994384766 -2.2452714443206787 C 58.280670166015625 7.5515289306640625 49.53523254394531 9.089674949645996 45.860015869140625 29.207107543945312" stroke-width="2.0" fill="none" stroke="rgb(0, 0, 0)" stroke-opacity="1" stroke-linecap="round" stroke-linejoin="round"/>
    <path d="M 120.08109283447266 46.18418884277344 C 102.42517852783203 43.42868423461914 107.44139099121094 51.64303207397461 104.5039291381836 55.557289123535156 C 86.14126586914062 60.562801361083984 103.48786926269531 60.31451416015625 124.08684539794922 36.63262176513672 C 97.08832550048828 59.209720611572266 78.70858764648438 60.58928298950195 89.00859832763672 52.01298904418945" stroke-width="2.0" fill="none" stroke="rgb(0, 0, 0)" stroke-opacity="1" stroke-linecap="round" stroke-linejoin="round"/>
    <path d="M 177.4201202392578 35.00529861450195 C 174.66964721679688 19.52690887451172 167.20277404785156 39.46452331542969 175.4940185546875 40.26972579956055 C 209.22523498535156 30.309551239013672 216.66297912597656 33.40271759033203 217.603271484375 39.44689178466797 C 220.2040557861328 54.28981018066406 212.2706756591797 47.132266998291016 193.46310424804688 55.534881591796875" stroke-width="2.0" fill="none" stroke="rgb(0, 0, 0)" stroke-opacity="1" stroke-linecap="round" stroke-linejoin="round"/>
    <path d="M 46.57203674316406 118.81792449951172 C 53.90030288696289 146.57408142089844 49.451438903808594 129.06275939941406 0.38961032032966614 127.79097747802734 C 31.453800201416016 146.82496643066406 40.72011947631836 132.8649444580078 5.37092924118042 131.52377319335938" stroke-width="2.0" fill="none" stroke="rgb(0, 0, 0)" stroke-opacity="1" stroke-linecap="round" stroke-linejoin="round"/>
    <path d="M 132.9147186279297 59.353939056396484 C 115.5746078491211 65.886474609375 123.36132049560547 83.99156188964844 132.86021423339844 64.2229232788086 C 134.7057342529297 74.46643829345703 136.23193359375 83.6990737915039 155.82125854492188 65.50009155273438 C 134.35499572753906 84.34172058105469 129.38470458984375 92.22784423828125 141.6116180419922 82.34215545654297" stroke-width="2.0" fill="none" stroke="rgb(0, 0, 0)" stroke-opacity="1" stroke-linecap="round" stroke-linejoin="round"/>
    <path d="M 66.05070495605469 42.72804260253906 C 82.19827270507812 52.58530807495117 94.93923950195312 62.501930236816406 59.66588592529297 52.85907745361328 C 77.87445831298828 60.068538665771484 113.3395004272461 61.42850875854492 98.60186004638672 57.097267150878906 C 70.95619201660156 66.116943359375 66.43731689453125 49.88565444946289 67.48145294189453 58.89929962158203" stroke-width="2.0" fill="none" stroke="rgb(0, 0, 0)" stroke-opacity="1" stroke-linecap="round" stroke-linejoin="round"/>
    <path d="M 17.263341903686523 62.77777862548828 C 14.543560028076172 71.12973022460938 41.57258987426758 56.72100830078125 11.859827995300293 66.94392395019531 C 30.391109466552734 62.84272766113281 31.36700439453125 54.30567169189453 5.057503700256348 62.340694427490234 C 30.672527313232422 48.491249084472656 37.179161071777344 59.49150466918945 6.44273042678833 58.39196014404297" stroke-width="2.0" fill="none" stroke="rgb(0, 0, 0)" stroke-opacity="1" stroke-linecap="round" stroke-linejoin="round"/>
    <path d="M 190.38180541992188 111.5638198852539 C 165.2760009765625 105.25273895263672 188.8229522705078 140.7296600341797 190.16773986816406 139.13819885253906" stroke-width="2.0" fill="none" stroke="rgb(0, 0, 0)" stroke-opacity="1" stroke-linecap="round" stroke-linejoin="round"/>
    <path d="M 102.35087585449219 205.44114685058594 C 99.63957977294922 211.17086791992188 99.82209777832031 217.322509765625 77.26152801513672 225.2176055908203 C 104.50990295410156 220.2430877685547 138.39532470703125 208.4818115234375 118.2927474975586 217.25424194335938" stroke-width="2.0" fill="none" stroke="rgb(0, 0, 0)" stroke-opacity="1" stroke-linecap="round" stroke-linejoin="round"/>
    <path d="M 121.45350646972656 131.17852783203125 C 137.38330078125 132.70506286621094 135.5358123779297 133.9459686279297 113.62694549560547 139.4164581298828" stroke-width="2.0" fill="none" stroke="rgb(0, 0, 0)" stroke-opacity="1" stroke-linecap="round" stroke-linejoin="round"/>
    <path d="M 147.9011993408203 178.55458068847656 C 131.613525390625 181.7751007080078 139.4373779296875 171.0674285888672 135.875244140625 197.63706970214844" stroke-width="2.0" fill="none" stroke="rgb(0, 0, 0)" stroke-opacity="1" stroke-linecap="round" stroke-linejoin="round"/>
    <path d="M 178.5162353515625 159.57357788085938 C 180.4032745361328 139.5399169921875 179.80853271484375 151.43882751464844 198.07098388671875 148.9102783203125" stroke-width="2.0" fill="none" stroke="rgb(0, 0, 0)" stroke-opacity="1" stroke-linecap="round" stroke-linejoin="round"/>
    <path d="M 133.35690307617188 214.58041381835938 C 117.02205657958984 210.41976928710938 141.4903106689453 212.23728942871094 140.5296630859375 207.384521484375 C 165.43328857421875 236.40013122558594 170.7041473388672 235.3365020751953 147.89869689941406 228.65631103515625 C 196.1068878173828 214.7337646484375 182.00808715820312 233.56101989746094 161.26019287109375 201.3012237548828" stroke-width="2.0" fill="none" stroke="rgb(0, 0, 0)" stroke-opacity="1" stroke-linecap="round" stroke-linejoin="round"/>
    <path d="M 84.23651885986328 232.68075561523438 C 84.75271606445312 217.6718292236328 100.42073822021484 212.06402587890625 128.86585998535156 225.6284942626953" stroke-width="2.0" fill="none" stroke="rgb(0, 0, 0)" stroke-opacity="1" stroke-linecap="round" stroke-linejoin="round"/>
    <path d="M 64.66576385498047 55.933876037597656 C 61.44029998779297 35.16039276123047 46.31046676635742 40.04203414916992 66.86134338378906 45.784751892089844 C 66.84588623046875 12.481756210327148 60.71006393432617 21.10095977783203 74.50666809082031 27.39777374267578 C 69.60362243652344 55.74775314331055 104.94061279296875 55.219425201416016 41.64219665527344 35.96830368041992" stroke-width="2.0" fill="none" stroke="rgb(0, 0, 0)" stroke-opacity="1" stroke-linecap="round" stroke-linejoin="round"/>
    <path d="M 140.8505401611328 137.8066864013672 C 147.9337158203125 133.25173950195312 112.93402862548828 139.93389892578125 93.5420913696289 141.83578491210938 C 161.9842529296875 128.19613647460938 114.00751495361328 116.72736358642578 64.99303436279297 133.45709228515625 C 70.26935577392578 138.9901123046875 77.49301147460938 128.70196533203125 114.92981719970703 117.40655517578125" stroke-width="2.0" fill="none" stroke="rgb(0, 0, 0)" stroke-opacity="1" stroke-linecap="round" stroke-linejoin="round"/>
    <path d="M 138.29617309570312 18.517799377441406 C 142.94122314453125 10.25096321105957 132.90933227539062 21.4228458404541 120.32685852050781 40.83926010131836" stroke-width="2.0" fill="none" stroke="rgb(0, 0, 0)" stroke-opacity="1" stroke-linecap="round" stroke-linejoin="round"/>
    <path d="M 225.2052001953125 161.58526611328125 C 221.3402557373047 196.3153076171875 209.84776306152344 188.29017639160156 191.6071014404297 188.88473510742188 C 191.07798767089844 177.37184143066406 162.19970703125 182.81007385253906 194.3793487548828 181.15298461914062" stroke-width="2.0" fill="none" stroke="rgb(0, 0, 0)" stroke-opacity="1" stroke-linecap="round" stroke-linejoin="round"/>
    <path d="M 134.44236755371094 66.64363861083984 C 156.208984375 52.474830627441406 133.51295471191406 42.06145095825195 138.78111267089844 58.12233352661133" stroke-width="2.0" fill="none" stroke="rgb(0, 0, 0)" stroke-opacity="1" stroke-linecap="round" stroke-linejoin="round"/>
    <path d="M 165.76092529296875 215.67945861816406 C 150.633056640625 197.62132263183594 156.0169677734375 202.67926025390625 143.60122680664062 202.65550231933594 C 140.03785705566406 206.5960235595703 126.48582458496094 211.79278564453125 121.88973999023438 205.34889221191406 C 121.65534973144531 202.38595581054688 126.61347961425781 211.87977600097656 100.72216033935547 212.01759338378906" stroke-width="2.0" fill="none" stroke="rgb(0, 0, 0)" stroke-opacity="1" stroke-linecap="round" stroke-linejoin="round"/>
    <path d="M 76.73766326904297 21.501747131347656 C 75.70796203613281 10.144490242004395 78.09099578857422 13.583321571350098 81.03994750976562 12.646817207336426 C 81.57608795166016 26.27541160583496 74.83212280273438 10.181204795837402 78.13926696777344 17.767568588256836" stroke-width="2.0" fill="none" stroke="rgb(0, 0, 0)" stroke-opacity="1" stroke-linecap="round" stroke-linejoin="round"/>
    <path d="M 206.39378356933594 77.89796447753906 C 186.93710327148438 88.3994140625 210.3301239013672 72.95954895019531 184.3040313720703 86.27407836914062" stroke-width="2.0" fill="none" stroke="rgb(0, 0, 0)" stroke-opacity="1" stroke-linecap="round" stroke-linejoin="round"/>
    <path d="M 71.5817642211914 142.43605041503906 C 64.6437759399414 148.48248291015625 82.86172485351562 149.98226928710938 80.23094940185547 136.74501037597656 C 80.68880462646484 141.03079223632812 78.1500244140625 141.5093994140625 75.11073303222656 146.48312377929688" stroke-width="2.0" fill="none" stroke="rgb(0, 0, 0)" stroke-opacity="1" stroke-linecap="round" stroke-linejoin="round"/>
    <path d="M 117.65503692626953 96.76439666748047 C 98.8737564086914 103.73993682861328 100.69144439697266 93.98436737060547 104.41104888916016 114.13416290283203" stroke-width="2.0" fill="none" stroke="rgb(0, 0, 0)" stroke-opacity="1" stroke-linecap="round" stroke-linejoin="round"/>
    <path d="M 63.13915252685547 66.74229431152344 C 3.13820743560791 78.96833801269531 25.671566009521484 75.66206359863281 19.71657371520996 94.29942321777344" stroke-width="2.0" fill="none" stroke="rgb(0, 0, 0)" stroke-opacity="1" stroke-linecap="round" stroke-linejoin="round"/>
    <path d="M 66.92729949951172 148.8925018310547 C 39.63053894042969 150.1692352294922 28.74275016784668 147.88967895507812 47.434913635253906 150.92855834960938 C 121.70458221435547 139.7317352294922 108.71438598632812 143.3421630859375 67.75885009765625 139.92514038085938" stroke-width="2.0" fill="none" stroke="rgb(0, 0, 0)" stroke-opacity="1" stroke-linecap="round" stroke-linejoin="round"/>
    <path d="M 39.84543228149414 34.0070686340332 C 19.379457473754883 8.249129295349121 44.08292007446289 -10.374341011047363 31.8492431640625 -2.684809684753418" stroke-width="2.0" fill="none" stroke="rgb(0, 0, 0)" stroke-opacity="1" stroke-linecap="round" stroke-linejoin="round"/>
    <path d="M 152.92112731933594 203.37986755371094 C 174.07168579101562 227.93682861328125 156.63681030273438 211.87258911132812 127.27706146240234 212.01022338867188 C 149.48974609375 212.66766357421875 144.55543518066406 242.06520080566406 161.79429626464844 255.93544006347656" stroke-width="2.0" fill="none" stroke="rgb(0, 0, 0)" stroke-opacity="1" stroke-linecap="round" stroke-linejoin="round"/>
    <path d="M 48.839454650878906 167.662109375 C 37.7189826965332 167.11614990234375 61.0244026184082 197.90451049804688 50.095298767089844 189.96620178222656" stroke-width="2.0" fill="none" stroke="rgb(0, 0, 0)" stroke-opacity="1" stroke-linecap="round" stroke-linejoin="round"/>
    <path d="M 152.5343475341797 121.97576141357422 C 154.25941467285156 155.88771057128906 140.74073791503906 135.96815490722656 152.25636291503906 119.53651428222656 C 146.9685821533203 141.18405151367188 152.9095001220703 123.44970703125 151.54421997070312 130.9650421142578" stroke-width="2.0" fill="none" stroke="rgb(0, 0, 0)" stroke-opacity="1" stroke-linecap="round" stroke-linejoin="round"/>
    <path d="M 87.5564956665039 172.861572265625 C 90.16535949707031 178.1231689453125 75.4554672241211 170.17556762695312 68.1202621459961 176.35421752929688" stroke-width="2.0" fill="none" stroke="rgb(0, 0, 0)" stroke-opacity="1" stroke-linecap="round" stroke-linejoin="round"/>
    <path d="M 63.651710510253906 114.55866241455078 C 62.42368698120117 141.78900146484375 54.91202926635742 73.93085479736328 65.53282928466797 108.1724624633789" stroke-width="2.0" fill="none" stroke="rgb(0, 0, 0)" stroke-opacity="1" stroke-linecap="round" stroke-linejoin="round"/>
    <path d="M 8.287924766540527 66.61442565917969 C 7.3932952880859375 57.71881866455078 9.938617706298828 65.36787414550781 18.428890228271484 66.7049789428711" stroke-width="2.0" fill="none" stroke="rgb(0, 0, 0)" stroke-opacity="1" stroke-linecap="round" stroke-linejoin="round"/>
    <path d="M 214.69273376464844 145.82647705078125 C 222.62757873535156 153.6855010986328 215.22776794433594 137.10223388671875 217.84825134277344 135.6437225341797 C 189.10897827148438 136.87164306640625 218.20326232910156 140.7306671142578 224.55630493164062 134.81263732910156 C 209.62611389160156 138.61605834960938 234.34011840820312 154.0302734375 193.11593627929688 142.06121826171875" stroke-width="2.0" fill="none" stroke="rgb(0, 0, 0)" stroke-opacity="1" stroke-linecap="round" stroke-linejoin="round"/>
    <path d="M 101.89712524414062 96.39924621582031 C 118.79495239257812 95.52020263671875 121.93111419677734 85.55803680419922 80.09098815917969 99.48185729980469 C 121.59659576416016 96.32862854003906 125.3262939453125 83.28988647460938 79.72797393798828 93.8562240600586 C 85.58723449707031 122.25140380859375 99.6479721069336 102.77381134033203 76.96000671386719 108.55438232421875" stroke-width="2.0" fill="none" stroke="rgb(0, 0, 0)" stroke-opacity="1" stroke-linecap="round" stroke-linejoin="round"/>
    <path d="M 227.93968200683594 63.69207763671875 C 231.2736053466797 99.70682525634766 209.47650146484375 99.83838653564453 227.12486267089844 73.70658111572266 C 214.99143981933594 100.8907699584961 200.91836547851562 80.15525817871094 215.56712341308594 107.79432678222656 C 228.61566162109375 84.41436004638672 220.11517333984375 57.05360412597656 231.95486450195312 56.82343292236328" stroke-width="2.0" fill="none" stroke="rgb(0, 0, 0)" stroke-opacity="1" stroke-linecap="round" stroke-linejoin="round"/>
    <path d="M 208.91720581054688 74.18035888671875 C 175.12672424316406 92.61430358886719 186.16000366210938 99.12960052490234 181.54820251464844 74.39884948730469 C 164.15455627441406 81.3371353149414 173.52589416503906 74.43070220947266 170.83975219726562 81.02131652832031" stroke-width="2.0" fill="none" stroke="rgb(0, 0, 0)" stroke-opacity="1" stroke-linecap="round" stroke-linejoin="round"/>
    <path d="M 4.9547295570373535 9.336809158325195 C -2.7948596477508545 40.55518341064453 19.75406837463379 46.075992584228516 7.758344650268555 31.122793197631836 C 26.70918083190918 28.027896881103516 19.344383239746094 34.387088775634766 19.00303840637207 20.73158073425293" stroke-width="2.0" fill="none" stroke="rgb(0, 0, 0)" stroke-opacity="1" stroke-linecap="round" stroke-linejoin="round"/>
    <path d="M 187.5620574951172 183.3085174560547 C 207.6553497314453 172.739990234375 195.09341430664062 206.91078186035156 197.16758728027344 159.7955780029297" stroke-width="2.0" fill="none" stroke="rgb(0, 0, 0)" stroke-opacity="1" stroke-linecap="round" stroke-linejoin="round"/>
    <path d="M 23.89312744140625 185.37132263183594 C 4.541179180145264 175.3305206298828 40.06386947631836 183.21409606933594 14.180164337158203 175.23326110839844 C 14.332806587219238 164.1821746826172 13.957159996032715 171.57411193847656 18.158458709716797 177.43246459960938" stroke-width="2.0" fill="none" stroke="rgb(0, 0, 0)" stroke-opacity="1" stroke-linecap="round" stroke-linejoin="round"/>
    <path d="M 210.60739135742188 22.180355072021484 C 174.45179748535156 25.474315643310547 223.73171997070312 41.79572296142578 219.04129028320312 21.874603271484375" stroke-width="2.0" fill="none" stroke="rgb(0, 0, 0)" stroke-opacity="1" stroke-linecap="round" stroke-linejoin="round"/>
    <path d="M 55.74530792236328 128.76210021972656 C 62.09298324584961 132.01678466796875 60.677303314208984 121.54511260986328 44.75407791137695 129.3203582763672" stroke-width="2.0" fill="none" stroke="rgb(0, 0, 0)" stroke-opacity="1" stroke-linecap="round" stroke-linejoin="round"/>
    <path d="M 35.9753532409668 165.61883544921875 C 53.98099136352539 161.78965759277344 35.94993591308594 148.64488220214844 39.12038803100586 163.63595581054688" stroke-width="2.0" fill="none" stroke="rgb(0, 0, 0)" stroke-opacity="1" stroke-linecap="round" stroke-linejoin="round"/>
    <path d="M 198.7563934326172 143.82177734375 C 181.07484436035156 129.281494140625 167.11656188964844 109.03759002685547 199.4908905029297 109.02790832519531 C 208.13108825683594 95.92533111572266 221.91384887695312 105.1974868774414 224.15370178222656 112.28221130371094" stroke-width="2.0" fill="none" stroke="rgb(0, 0, 0)" stroke-opacity="1" stroke-linecap="round" stroke-linejoin="round"/>
    <path d="M 16.492584228515625 208.2035675048828 C 38.785160064697266 213.5266571044922 20.820764541625977 225.98704528808594 25.59867286682129 199.04444885253906" stroke-width="2.0" fill="none" stroke="rgb(0, 0, 0)" stroke-opacity="1" stroke-linecap="round" stroke-linejoin="round"/>
    <path d="M 168.06729125976562 149.83351135253906 C 167.9590301513672 197.85064697265625 158.14198303222656 207.08035278320312 154.00619506835938 160.37940979003906 C 155.82118225097656 158.70184326171875 155.23086547851562 170.30056762695312 156.13113403320312 172.152099609375 C 168.4583282470703 173.5377197265625 167.09666442871094 169.88026428222656 155.1624298095703 171.20840454101562" stroke-width="2.0" fill="none" stroke="rgb(0, 0, 0)" stroke-opacity="1" stroke-linecap="round" stroke-linejoin="round"/>
    <path d="M 221.25148010253906 227.54759216308594 C 234.85659790039062 194.47744750976562 222.39967346191406 188.41082763671875 220.94900512695312 183.62551879882812 C 234.18026733398438 157.16903686523438 224.54183959960938 117.80587768554688 237.2148895263672 180.90003967285156" stroke-width="2.0" fill="none" stroke="rgb(0, 0, 0)" stroke-opacity="1" stroke-linecap="round" stroke-linejoin="round"/>
    <path d="M 51.86055374145508 39.00200653076172 C 64.91937255859375 11.522459030151367 58.72859573364258 6.138763427734375 69.30563354492188 8.648224830627441 C 64.4208755493164 54.12685012817383 75.33743286132812 48.61819076538086 51.09901428222656 42.38518142700195" stroke-width="2.0" fill="none" stroke="rgb(0, 0, 0)" stroke-opacity="1" stroke-linecap="round" stroke-linejoin="round"/>
    <path d="M 104.9715805053711 190.02020263671875 C 95.40665435791016 166.73590087890625 87.73294067382812 145.51248168945312 108.36271667480469 191.64210510253906" stroke-width="2.0" fill="none" stroke="rgb(0, 0, 0)" stroke-opacity="1" stroke-linecap="round" stroke-linejoin="round"/>
    <path d="M 24.34320640563965 38.52159118652344 C 0.9520388841629028 47.32523727416992 6.119522571563721 46.61519241333008 6.271434783935547 63.02164840698242" stroke-width="2.0" fill="none" stroke="rgb(0, 0, 0)" stroke-opacity="1" stroke-linecap="round" stroke-linejoin="round"/>
    <path d="M 122.09617614746094 79.88189697265625 C 146.3748779296875 63.0665168762207 130.00558471679688 53.703155517578125 124.69819641113281 69.73190307617188" stroke-width="2.0" fill="none" stroke="rgb(0, 0, 0)" stroke-opacity="1" stroke-linecap="round" stroke-linejoin="round"/>
    <path d="M 130.8256378173828 176.3353271484375 C 124.48968505859375 162.22354125976562 150.17137145996094 180.31137084960938 130.29600524902344 156.2818603515625" stroke-width="2.0" fill="none" stroke="rgb(0, 0, 0)" stroke-opacity="1" stroke-linecap="round" stroke-linejoin="round"/>
    <path d="M 17.090181350708008 109.35755920410156 C 46.612335205078125 104.4073715209961 55.13636016845703 81.90895080566406 41.97806167602539 130.44454956054688 C 56.98683547973633 78.02899932861328 43.54400634765625 106.87943267822266 3.4076380729675293 107.82427215576172 C 39.67144775390625 95.19056701660156 29.682456970214844 100.91683197021484 29.525203704833984 80.57442474365234" stroke-width="2.0" fill="none" stroke="rgb(0, 0, 0)" stroke-opacity="1" stroke-linecap="round" stroke-linejoin="round"/>
    <path d="M 180.4292755126953 119.05987548828125 C 187.72901916503906 109.70030212402344 202.00929260253906 135.43896484375 178.85911560058594 118.14193725585938 C 221.2620849609375 99.0148696899414 219.2998809814453 107.6779556274414 226.76214599609375 120.04253387451172 C 217.54876708984375 106.12382507324219 235.94891357421875 127.84947204589844 209.20492553710938 135.16238403320312" stroke-width="2.0" fill="none" stroke="rgb(0, 0, 0)" stroke-opacity="1" stroke-linecap="round" stroke-linejoin="round"/>
    <path d="M 32.95322799682617 58.850433349609375 C 87.35555267333984 57.681373596191406 93.20767974853516 57.31226348876953 64.85173797607422 57.80385208129883 C 80.78678894042969 52.64776611328125 50.7808952331543 61.847625732421875 58.37813186645508 50.70433807373047" stroke-width="2.0" fill="none" stroke="rgb(0, 0, 0)" stroke-opacity="1" stroke-linecap="round" stroke-linejoin="round"/>
    <path d="M 36.80144119262695 74.75421905517578 C -8.902944564819336 77.13153076171875 -1.5787880420684814 115.7781753540039 14.463119506835938 109.08248901367188" stroke-width="2.0" fill="none" stroke="rgb(0, 0, 0)" stroke-opacity="1" stroke-linecap="round" stroke-linejoin="round"/>
    <path d="M 99.85208129882812 4.273848056793213 C 68.50493621826172 -4.042387008666992 49.269371032714844 -2.6192398071289062 10.627283096313477 2.4710168838500977 C 57.75359344482422 -15.675297737121582 70.85659790039062 -5.477999210357666 63.159889221191406 -7.406270503997803 C 49.86836242675781 -18.013883590698242 42.80756378173828 -17.436811447143555 47.994693756103516 -24.096616744995117" stroke-width="2.0" fill="none" stroke="rgb(0, 0, 0)" stroke-opacity="1" stroke-linecap="round" stroke-linejoin="round"/>
    <path d="M 117.44141387939453 30.89440155029297 C 123.75638580322266 -9.606834411621094 125.32579803466797 6.126112937927246 98.69437408447266 3.330218553543091 C 93.603271484375 1.7951544523239136 99.5189208984375 31.423988342285156 107.70914459228516 33.18471908569336" stroke-width="2.0" fill="none" stroke="rgb(0, 0, 0)" stroke-opacity="1" stroke-linecap="round" stroke-linejoin="round"/>
    <path d="M 197.02542114257812 184.9425506591797 C 220.00924682617188 188.8151397705078 217.59042358398438 178.3115692138672 219.35531616210938 157.8546905517578 C 210.6756591796875 157.4143524169922 195.48080444335938 164.64796447753906 225.11083984375 154.2689971923828 C 203.5726318359375 163.8294219970703 208.77804565429688 145.77037048339844 206.65443420410156 177.2250518798828" stroke-width="2.0" fill="none" stroke="rgb(0, 0, 0)" stroke-opacity="1" stroke-linecap="round" stroke-linejoin="round"/>
    <path d="M 232.33236694335938 129.38504028320312 C 234.32684326171875 165.4850311279297 221.083984375 143.0498809814453 229.7157745361328 147.064208984375" stroke-width="2.0" fill="none" stroke="rgb(0, 0, 0)" stroke-opacity="1" stroke-linecap="round" stroke-linejoin="round"/>
    <path d="M 22.044191360473633 61.93985366821289 C 20.264020919799805 51.063480377197266 5.4642653465271 35.87232971191406 8.59023666381836 63.76045608520508 C 0.3244682252407074 47.67601013183594 1.4716585874557495 22.810115814208984 -4.007254123687744 37.52898406982422" stroke-width="2.0" fill="none" stroke="rgb(0, 0, 0)" stroke-opacity="1" stroke-linecap="round" stroke-linejoin="round"/>
    <path d="M 44.5137825012207 203.650146484375 C 25.363327026367188 192.0089874267578 52.43412399291992 227.94522094726562 18.757339477539062 213.8484344482422 C 1.9467697143554688 212.86537170410156 0.7743329405784607 193.21107482910156 2.774519443511963 166.32388305664062" stroke-width="2.0" fill="none" stroke="rgb(0, 0, 0)" stroke-opacity="1" stroke-linecap="round" stroke-linejoin="round"/>
    <path d="M 123.77207946777344 50.214080810546875 C 110.5517807006836 41.83475112915039 117.05078125 41.88576126098633 121.6322021484375 51.80288314819336 C 116.35621643066406 35.328277587890625 112.99633026123047 59.7057991027832 130.77566528320312 30.281354904174805" stroke-width="2.0" fill="none" stroke="rgb(0, 0, 0)" stroke-opacity="1" stroke-linecap="round" stroke-linejoin="round"/>
    <path d="M 169.7106170654297 143.64968872070312 C 164.34588623046875 124.95742797851562 181.07362365722656 135.65760803222656 174.5894775390625 128.1519317626953 C 170.2291259765625 130.5976104736328 177.26382446289062 133.4434356689453 173.75108337402344 126.54513549804688 C 163.52566528320312 149.06983947753906 184.89974975585938 148.8724822998047 177.90277099609375 139.01133728027344" stroke-width="2.0" fill="none" stroke="rgb(0, 0, 0)" stroke-opacity="1" stroke-linecap="round" stroke-linejoin="round"/>
    <path d="M 193.62741088867188 204.37644958496094 C 221.47335815429688 201.91409301757812 221.6912078857422 206.29220581054688 196.296875 208.17294311523438" stroke-width="2.0" fill="none" stroke="rgb(0, 0, 0)" stroke-opacity="1" stroke-linecap="round" stroke-linejoin="round"/>
    <path d="M -6.91963529586792 201.62794494628906 C -14.314209938049316 217.0080108642578 -2.686513662338257 215.00193786621094 -6.268084526062012 211.4443359375" stroke-width="2.0" fill="none" stroke="rgb(0, 0, 0)" stroke-opacity="1" stroke-linecap="round" stroke-linejoin="round"/>
    <path d="M 178.6388397216797 216.95994567871094 C 162.4627227783203 208.5585479736328 159.7083282470703 181.32371520996094 175.80113220214844 210.31488037109375 C 187.72752380371094 229.4944305419922 196.2525634765625 208.8283233642578 198.28672790527344 227.073486328125" stroke-width="2.0" fill="none" stroke="rgb(0, 0, 0)" stroke-opacity="1" stroke-linecap="round" stroke-linejoin="round"/>
    <path d="M 11.129316329956055 160.51634216308594 C -4.758376598358154 150.3784637451172 -2.101872444152832 187.73281860351562 -3.2805964946746826 133.6870574951172 C 12.449370384216309 142.5335235595703 -13.76234245300293 156.70262145996094 -18.45111656188965 152.2354278564453 C -12.54701042175293 154.21011352539062 -10.90038013458252 143.9231414794922 -2.9688942432403564 136.1265106201172" stroke-width="2.0" fill="none" stroke="rgb(0, 0, 0)" stroke-opacity="1" stroke-linecap="round" stroke-linejoin="round"/>
    <path d="M 78.80731964111328 77.84284210205078 C 107.80863952636719 81.95813751220703 93.53852081298828 49.028743743896484 99.30632019042969 71.94071960449219" stroke-width="2.0" fill="none" stroke="rgb(0, 0, 0)" stroke-opacity="1" stroke-linecap="round" stroke-linejoin="round"/>
    <path d="M -3.020848035812378 153.05955505371094 C 1.7015407085418701 120.48206329345703 -11.635034561157227 106.90491485595703 -11.243659019470215 130.88330078125 C 2.8226585388183594 110.09724426269531 -4.872504234313965 116.08740234375 9.50196361541748 137.19300842285156 C -1.198933482170105 138.3167724609375 1.965961217880249 109.23806762695312 -2.678237199783325 132.46685791015625" stroke-width="2.0" fill="none" stroke="rgb(0, 0, 0)" stroke-opacity="1" stroke-linecap="round" stroke-linejoin="round"/>
    <path d="M 127.0741958618164 43.52388381958008 C 98.22662353515625 47.27464294433594 98.1339340209961 68.11971282958984 111.83412170410156 46.50312423706055 C 115.01227569580078 39.19872283935547 108.12393951416016 63.231693267822266 118.19699096679688 47.34333801269531" stroke-width="2.0" fill="none" stroke="rgb(0, 0, 0)" stroke-opacity="1" stroke-linecap="round" stroke-linejoin="round"/>
    <path d="M 126.93819427490234 139.841064453125 C 106.23797607421875 134.6883087158203 76.84666442871094 140.79620361328125 67.95301055908203 139.9144287109375 C 100.03116607666016 133.95668029785156 95.4696273803711 148.48741149902344 45.821109771728516 149.21372985839844" stroke-width="2.0" fill="none" stroke="rgb(0, 0, 0)" stroke-opacity="1" stroke-linecap="round" stroke-linejoin="round"/>
    <path d="M 88.11821746826172 187.0181121826172 C 64.25311279296875 186.7525177001953 71.21630859375 187.51954650878906 66.479248046875 182.22239685058594 C 50.95085906982422 162.34388732910156 49.06334686279297 153.33477783203125 51.45734405517578 149.92529296875" stroke-width="2.0" fill="none" stroke="rgb(0, 0, 0)" stroke-opacity="1" stroke-linecap="round" stroke-linejoin="round"/>
    <path d="M 143.130615234375 119.05843353271484 C 131.59603881835938 139.1271514892578 107.99977111816406 128.70199584960938 138.26153564453125 136.9115753173828 C 131.35488891601562 124.57032775878906 138.73365783691406 134.2755584716797 107.91307830810547 138.00704956054688 C 120.35945129394531 139.36801147460938 118.60188293457031 142.0037078857422 117.92276000976562 131.75315856933594" stroke-width="2.0" fill="none" stroke="rgb(0, 0, 0)" stroke-opacity="1" stroke-linecap="round" stroke-linejoin="round"/>
    <path d="M 79.06249237060547 52.324737548828125 C 97.55079650878906 62.7029914855957 118.18882751464844 59.31431198120117 106.3497314453125 47.37751007080078 C 77.54378509521484 59.444725036621094 115.59845733642578 57.50682830810547 116.20637512207031 50.20689392089844 C 101.98390197753906 59.31184005737305 110.60060119628906 51.27334976196289 102.8212890625 48.15462875366211" stroke-width="2.0" fill="none" stroke="rgb(0, 0, 0)" stroke-opacity="1" stroke-linecap="round" stroke-linejoin="round"/>
    <path d="M 108.90762329101562 89.57977294921875 C 133.1680145263672 108.47221374511719 115.89482116699219 121.6151351928711 114.74192810058594 103.2255630493164 C 148.31292724609375 130.5835723876953 134.9151153564453 122.08159637451172 116.59593963623047 98.05440521240234" stroke-width="2.0" fill="none" stroke="rgb(0, 0, 0)" stroke-opacity="1" stroke-linecap="round" stroke-linejoin="round"/>
    <path d="M 134.12713623046875 109.67330169677734 C 125.1507568359375 110.16226959228516 122.47109985351562 93.87024688720703 124.17679595947266 101.89311218261719 C 131.39761352539062 118.20954895019531 161.85572814941406 136.9203338623047 113.08151245117188 104.67472076416016 C 102.31466674804688 110.49706268310547 105.21238708496094 94.1365737915039 123.68283081054688 107.9743423461914" stroke-width="2.0" fill="none" stroke="rgb(0, 0, 0)" stroke-opacity="1" stroke-linecap="round" stroke-linejoin="round"/>
    <path d="M 45.68326950073242 167.56980895996094 C 54.1646614074707 183.5771484375 54.58502960205078 165.79173278808594 38.68839645385742 167.8258056640625" stroke-width="2.0" fill="none" stroke="rgb(0, 0, 0)" stroke-opacity="1" stroke-linecap="round" stroke-linejoin="round"/>
    <path d="M 58.89909744262695 163.86758422851562 C 70.83130645751953 165.69085693359375 46.758365631103516 154.41331481933594 63.54098129272461 171.29803466796875 C 74.31892395019531 161.62033081054688 78.13539123535156 183.4181365966797 68.99236297607422 155.45367431640625 C 62.79266357421875 158.63900756835938 92.62273406982422 196.52725219726562 71.76123046875 174.6224822998047" stroke-width="2.0" fill="none" stroke="rgb(0, 0, 0)" stroke-opacity="1" stroke-linecap="round" stroke-linejoin="round"/>
    <path d="M 217.12066650390625 149.095458984375 C 206.4251708984375 150.11009216308594 187.50843811035156 145.26927185058594 189.32603454589844 137.7348175048828 C 225.45053100585938 120.93680572509766 214.70570373535156 120.76571655273438 185.9585418701172 130.7292022705078" stroke-width="2.0" fill="none" stroke="rgb(0, 0, 0)" stroke-opacity="1" stroke-linecap="round" stroke-linejoin="round"/>
    <path d="M 38.873878479003906 110.60369110107422 C 42.70821762084961 129.33609008789062 28.517559051513672 122.98917388916016 37.05406188964844 111.27314758300781" stroke-width="2.0" fill="none" stroke="rgb(0, 0, 0)" stroke-opacity="1" stroke-linecap="round" stroke-linejoin="round"/>
    <path d="M 48.209957122802734 9.24665355682373 C 52.66238021850586 24.380573272705078 31.07412338256836 27.071176528930664 45.23558044433594 -10.910332679748535 C 20.676986694335938 -8.149892807006836 23.7994441986084 48.394412994384766 60.96361541748047 46.24266052246094 C 43.099365234375 32.7369499206543 60.67584228515625 17.958248138427734 60.08176803588867 36.169071197509766" stroke-width="2.0" fill="none" stroke="rgb(0, 0, 0)" stroke-opacity="1" stroke-linecap="round" stroke-linejoin="round"/>
    <path d="M 25.028396606445312 38.80612564086914 C -3.394343852996826 48.59584045410156 7.9754791259765625 67.56595611572266 -0.8260156512260437 30.555986404418945 C -9.63958740234375 48.0937385559082 -15.213396072387695 60.559776306152344 -22.025678634643555 49.02161407470703" stroke-width="2.0" fill="none" stroke="rgb(0, 0, 0)" stroke-opacity="1" stroke-linecap="round" stroke-linejoin="round"/>
    <path d="M 172.24937438964844 55.83745574951172 C 168.05996704101562 43.57927703857422 161.3900604248047 53.61805725097656 169.7686309814453 46.49085235595703 C 159.4171142578125 48.93705749511719 163.00283813476562 51.00282287597656 165.813232421875 56.70273971557617" stroke-width="2.0" fill="none" stroke="rgb(0, 0, 0)" stroke-opacity="1" stroke-linecap="round" stroke-linejoin="round"/>
    <path d="M 87.83988189697266 169.51019287109375 C 92.86934661865234 177.32107543945312 103.49327850341797 217.31858825683594 118.76482391357422 202.40528869628906 C 103.50758361816406 153.2379913330078 102.67231750488281 156.48155212402344 117.59479522705078 157.01193237304688 C 128.0017852783203 199.1911163330078 124.71505737304688 204.77134704589844 134.97634887695312 199.29835510253906" stroke-width="2.0" fill="none" stroke="rgb(0, 0, 0)" stroke-opacity="1" stroke-linecap="round" stroke-linejoin="round"/>
    <path d="M 32.01492691040039 207.8295135498047 C 32.66289520263672 202.13404846191406 28.233110427856445 191.5223846435547 24.640308380126953 216.13540649414062 C 51.801849365234375 219.195068359375 43.68754577636719 220.68617248535156 21.322824478149414 215.44114685058594 C 23.462650299072266 211.82102966308594 33.95223617553711 217.01010131835938 56.40419387817383 221.64285278320312" stroke-width="2.0" fill="none" stroke="rgb(0, 0, 0)" stroke-opacity="1" stroke-linecap="round" stroke-linejoin="round"/>
    <path d="M 170.76852416992188 105.32035064697266 C 151.50991821289062 98.71389770507812 167.4476318359375 99.5887222290039 156.83665466308594 104.9183120727539 C 139.75140380859375 107.09788513183594 135.9041748046875 108.69776916503906 149.82716369628906 78.67073059082031 C 144.0937957763672 109.38903045654297 121.1298828125 106.18858337402344 168.89999389648438 101.11283111572266" stroke-width="2.0" fill="none" stroke="rgb(0, 0, 0)" stroke-opacity="1" stroke-linecap="round" stroke-linejoin="round"/>
    <path d="M 203.71238708496094 29.069196701049805 C 235.4697723388672 36.52825927734375 207.6328125 -13.77717399597168 211.1937255859375 21.923891067504883" stroke-width="2.0" fill="none" stroke="rgb(0, 0, 0)" stroke-opacity="1" stroke-linecap="round" stroke-linejoin="round"/>
    <path d="M 84.04133605957031 52.44895935058594 C 81.43013000488281 62.59477615356445 66.40664672851562 62.7696647644043 72.63455963134766 61.802520751953125 C 72.03448486328125 41.29810333251953 80.8065185546875 52.45125961303711 90.4984359741211 52.821746826171875" stroke-width="2.0" fill="none" stroke="rgb(0, 0, 0)" stroke-opacity="1" stroke-linecap="round" stroke-linejoin="round"/>
    <path d="M 183.2626495361328 66.88873291015625 C 187.33450317382812 47.004947662353516 188.58457946777344 70.91082763671875 187.2176055908203 70.06189727783203 C 174.4507293701172 81.50064086914062 155.83995056152344 53.847755432128906 217.07199096679688 47.628971099853516 C 209.10379028320312 45.648094177246094 240.96728515625 37.743507385253906 179.4492645263672 54.225772857666016" stroke-width="2.0" fill="none" stroke="rgb(0, 0, 0)" stroke-opacity="1" stroke-linecap="round" stroke-linejoin="round"/>
    <path d="M 193.36373901367188 14.761002540588379 C 182.7137451171875 -11.764472961425781 230.7465057373047 23.71864891052246 176.1468505859375 20.512863159179688 C 164.18336486816406 0.3111898899078369 186.08651733398438 1.8826017379760742 180.4977264404297 11.82518196105957" stroke-width="2.0" fill="none" stroke="rgb(0, 0, 0)" stroke-opacity="1" stroke-linecap="round" stroke-linejoin="round"/>
    <path d="M 116.25647735595703 12.839153289794922 C 102.44205474853516 14.298124313354492 106.76316833496094 3.3491480350494385 109.18299865722656 23.1741943359375" stroke-width="2.0" fill="none" stroke="rgb(0, 0, 0)" stroke-opacity="1" stroke-linecap="round" stroke-linejoin="round"/>
    <path d="M 138.5062255859375 65.92929077148438 C 127.72154998779297 49.81071472167969 134.95455932617188 57.516029357910156 120.05036163330078 66.98377990722656 C 139.22833251953125 86.55931091308594 113.25599670410156 55.28048324584961 119.59391021728516 73.7838363647461" stroke-width="2.0" fill="none" stroke="rgb(0, 0, 0)" stroke-opacity="1" stroke-linecap="round" stroke-linejoin="round"/>
    <path d="M 62.77714920043945 44.21682357788086 C 45.245887756347656 37.3098030090332 58.76887512207031 35.02852249145508 69.71808624267578 62.659393310546875" stroke-width="2.0" fill="none" stroke="rgb(0, 0, 0)" stroke-opacity="1" stroke-linecap="round" stroke-linejoin="round"/>
    <path d="M 122.69603729248047 3.3600099086761475 C 121.1243896484375 43.29005432128906 119.45957946777344 37.37328338623047 97.57124328613281 33.16130828857422 C 126.70266723632812 33.95074462890625 120.59391021728516 29.43888282775879 114.5668716430664 37.15163040161133 C 104.38505554199219 42.56648254394531 88.27546691894531 16.041080474853516 107.86512756347656 52.13212203979492" stroke-width="2.0" fill="none" stroke="rgb(0, 0, 0)" stroke-opacity="1" stroke-linecap="round" stroke-linejoin="round"/>
    <path d="M 43.682586669921875 100.89099884033203 C 100.46990203857422 72.14657592773438 72.72820281982422 85.51898956298828 29.486183166503906 99.43833923339844 C 34.62413024902344 84.70504760742188 32.6048698425293 66.69921875 12.97380256652832 85.70897674560547" stroke-width="2.0" fill="none" stroke="rgb(0, 0, 0)" stroke-opacity="1" stroke-linecap="round" stroke-linejoin="round"/>
    <path d="M 78.06085205078125 212.10525512695312 C 77.52092742919922 179.7740936279297 75.8069076538086 181.18209838867188 76.13386535644531 200.59750366210938 C 47.731136322021484 204.18373107910156 56.63407516479492 194.03475952148438 54.91672134399414 211.9656524658203" stroke-width="2.0" fill="none" stroke="rgb(0, 0, 0)" stroke-opacity="1" stroke-linecap="round" stroke-linejoin="round"/>
    <path d="M 177.50576782226562 196.9330596923828 C 188.59524536132812 221.51217651367188 197.46670532226562 217.9884490966797 179.3910675048828 196.1484375 C 190.2679443359375 218.9453582763672 202.11331176757812 231.1944580078125 221.7432403564453 227.50245666503906 C 171.6791229248047 218.08473205566406 160.73304748535156 208.1022491455078 193.18228149414062 231.54685974121094" stroke-width="2.0" fill="none" stroke="rgb(0, 0, 0)" stroke-opacity="1" stroke-linecap="round" stroke-linejoin="round"/>
    <path d="M 131.6556396484375 30.254823684692383 C 129.3448028564453 24.127843856811523 134.9057159423828 -5.853458881378174 130.97422790527344 -34.16792678833008 C 124.8037109375 -1.9679912328720093 125.8312759399414 -0.3949265480041504 133.06747436523438 -4.0974931716918945 C 127.83904266357422 -7.718218803405762 122.87316131591797 0.9246896505355835 114.2318115234375 -5.622847557067871" stroke-width="2.0" fill="none" stroke="rgb(0, 0, 0)" stroke-opacity="1" stroke-linecap="round" stroke-linejoin="round"/>
    <path d="M 67.40653228759766 113.96389770507812 C 80.82707214355469 128.87722778320312 60.89277648925781 126.00975036621094 57.42583084106445 127.60868072509766 C 65.69025421142578 134.28024291992188 2.7193706035614014 127.7591781616211 52.998779296875 128.60279846191406 C 69.2276382446289 124.92488098144531 60.49850845336914 132.4060516357422 53.25996398925781 118.95000457763672" stroke-width="2.0" fill="none" stroke="rgb(0, 0, 0)" stroke-opacity="1" stroke-linecap="round" stroke-linejoin="round"/>
    <path d="M 130.04530334472656 -1.0937918424606323 C 133.28656005859375 44.77809143066406 102.8362808227539 60.338134765625 134.78636169433594 27.321680068969727 C 150.91847229003906 15.654256820678711 144.12892150878906 45.669063568115234 149.05625915527344 23.054967880249023" stroke-width="2.0" fill="none" stroke="rgb(0, 0, 0)" stroke-opacity="1" stroke-linecap="round" stroke-linejoin="round"/>
    <path d="M 10.443648338317871 70.49620056152344 C -1.6115531921386719 56.99618911743164 3.0721280574798584 34.387855529785156 15.001433372497559 68.38349914550781" stroke-width="2.0" fill="none" stroke="rgb(0, 0, 0)" stroke-opacity="1" stroke-linecap="round" stroke-linejoin="round"/>
    <path d="M 108.70452117919922 128.6373291015625 C 109.31197357177734 140.9022674560547 106.4282455444336 140.30223083496094 143.35475158691406 136.3812713623047 C 118.14441680908203 142.304931640625 79.14337158203125 152.5980987548828 43.313541412353516 150.9925537109375" stroke-width="2.0" fill="none" stroke="rgb(0, 0, 0)" stroke-opacity="1" stroke-linecap="round" stroke-linejoin="round"/>
    <path d="M 95.0848159790039 143.79176330566406 C 88.26338195800781 122.30535125732422 95.31270599365234 110.7613525390625 105.9649658203125 133.4068603515625" stroke-width="2.0" fill="none" stroke="rgb(0, 0, 0)" stroke-opacity="1" stroke-linecap="round" stroke-linejoin="round"/>
    <path d="M 27.992090225219727 115.74473571777344 C 23.569190979003906 125.39715576171875 39.396549224853516 121.75348663330078 8.028969764709473 124.72915649414062 C -5.711516380310059 109.97712707519531 14.735082626342773 118.01409912109375 44.904720306396484 100.8569107055664" stroke-width="2.0" fill="none" stroke="rgb(0, 0, 0)" stroke-opacity="1" stroke-linecap="round" stroke-linejoin="round"/>
    <path d="M 19.071325302124023 194.10511779785156 C 16.29100227355957 180.0194091796875 17.24123764038086 174.448486328125 26.33838653564453 194.1804656982422" stroke-width="2.0" fill="none" stroke="rgb(0, 0, 0)" stroke-opacity="1" stroke-linecap="round" stroke-linejoin="round"/>
    <path d="M 81.89424896240234 127.2105484008789 C 61.64204788208008 136.5734100341797 77.73097229003906 113.1948471069336 61.3217658996582 113.1229019165039" stroke-width="2.0" fill="none" stroke="rgb(0, 0, 0)" stroke-opacity="1" stroke-linecap="round" stroke-linejoin="round"/>
    <path d="M 73.0384521484375 44.10660171508789 C 60.023841857910156 38.48237609863281 49.26702117919922 51.09928512573242 34.625885009765625 26.72779083251953" stroke-width="2.0" fill="none" stroke="rgb(0, 0, 0)" stroke-opacity="1" stroke-linecap="round" stroke-linejoin="round"/>
    <path d="M 9.024105072021484 213.8678436279297 C 47.7691535949707 214.79713439941406 47.31983184814453 228.5421142578125 44.230403900146484 205.7593536376953 C 51.6779670715332 194.45431518554688 35.17283248901367 216.39572143554688 59.2889289855957 227.3165283203125 C 44.511749267578125 227.24234008789062 -2.427811622619629 210.85708618164062 20.279756546020508 217.38319396972656" stroke-width="2.0" fill="none" stroke="rgb(0, 0, 0)" stroke-opacity="1" stroke-linecap="round" stroke-linejoin="round"/>
    <path d="M 139.0513916015625 71.75556182861328 C 145.8577117919922 95.55485534667969 136.86558532714844 67.98383331298828 129.3719482421875 90.33136749267578" stroke-width="2.0" fill="none" stroke="rgb(0, 0, 0)" stroke-opacity="1" stroke-linecap="round" stroke-linejoin="round"/>
    <path d="M 230.3205108642578 57.25927734375 C 220.81239318847656 13.965418815612793 230.65301513671875 39.2193489074707 221.51194763183594 60.48078155517578 C 219.46371459960938 67.12549591064453 208.36724853515625 73.97589111328125 195.95773315429688 79.94229888916016 C 198.42739868164062 110.4933853149414 204.29232788085938 80.47293090820312 196.45169067382812 81.55208587646484" stroke-width="2.0" fill="none" stroke="rgb(0, 0, 0)" stroke-opacity="1" stroke-linecap="round" stroke-linejoin="round"/>
    <path d="M 110.70104217529297 130.49363708496094 C 98.48374938964844 132.3672637939453 70.66339874267578 145.01829528808594 81.01519012451172 127.05933380126953" stroke-width="2.0" fill="none" stroke="rgb(0, 0, 0)" stroke-opacity="1" stroke-linecap="round" stroke-linejoin="round"/>
    <path d="M 95.58282470703125 193.0196990966797 C 99.31453704833984 214.34158325195312 79.24620056152344 226.0668182373047 64.27104949951172 218.3803253173828 C 73.98025512695312 214.89356994628906 42.4320068359375 227.89276123046875 41.91017532348633 228.73590087890625 C 77.26222229003906 211.0585479736328 65.43646240234375 228.46234130859375 24.434160232543945 211.0301513671875" stroke-width="2.0" fill="none" stroke="rgb(0, 0, 0)" stroke-opacity="1" stroke-linecap="round" stroke-linejoin="round"/>
    <path d="M 7.125791072845459 210.31005859375 C 34.39581298828125 216.95689392089844 18.32340431213379 216.31640625 27.828521728515625 211.6778106689453 C 5.63363790512085 207.08843994140625 8.148418426513672 210.95347595214844 9.565597534179688 161.88011169433594" stroke-width="2.0" fill="none" stroke="rgb(0, 0, 0)" stroke-opacity="1" stroke-linecap="round" stroke-linejoin="round"/>
    <path d="M 148.72128295898438 71.6282958984375 C 154.5365447998047 62.721614837646484 128.77297973632812 102.99970245361328 130.13067626953125 101.3598861694336 C 131.63084411621094 89.69395446777344 140.7006378173828 62.750606536865234 123.69369506835938 90.24071502685547" stroke-width="2.0" fill="none" stroke="rgb(0, 0, 0)" stroke-opacity="1" stroke-linecap="round" stroke-linejoin="round"/>
    <path d="M 27.435943603515625 128.626708984375 C -0.6568580269813538 142.9469757080078 20.914485931396484 135.29640197753906 80.78169250488281 140.7579803466797 C 37.5869255065918 143.76358032226562 -3.0312206745147705 137.07130432128906 13.06011962890625 134.9935302734375 C -0.3414933383464813 123.0939712524414 9.08318042755127 140.75318908691406 52.38783264160156 135.28628540039062" stroke-width="2.0" fill="none" stroke="rgb(0, 0, 0)" stroke-opacity="1" stroke-linecap="round" stroke-linejoin="round"/>
    <path d="M 77.0385971069336 54.68351364135742 C 90.26889038085938 50.16343307495117 77.79871368408203 65.9892578125 48.7978630065918 68.5525894165039 C 26.641281127929688 70.17487335205078 50.85410690307617 42.75210189819336 58.646854400634766 65.69971466064453 C 95.90876007080078 59.77902603149414 66.01105499267578 52.04098892211914 58.316200256347656 56.599185943603516" stroke-width="2.0" fill="none" stroke="rgb(0, 0, 0)" stroke-opacity="1" stroke-linecap="round" stroke-linejoin="round"/>
    <path d="M 61.61786651611328 170.66099548339844 C 82.42617797851562 194.23793029785156 83.62613677978516 203.9908905029297 61.3998908996582 201.12437438964844 C 67.3499755859375 199.53895568847656 58.719478607177734 218.93418884277344 75.03839111328125 220.67050170898438" stroke-width="2.0" fill="none" stroke="rgb(0, 0, 0)" stroke-opacity="1" stroke-linecap="round" stroke-linejoin="round"/>
    <path d="M 129.5027313232422 98.92378234863281 C 136.10800170898438 118.2643051147461 172.83694458007812 106.07498931884766 185.51869201660156 102.04175567626953 C 168.72105407714844 104.82350158691406 148.75730895996094 110.16150665283203 155.6202392578125 109.20941162109375 C 142.66075134277344 109.21429443359375 180.06553649902344 107.9538803100586 173.1365509033203 87.66317749023438" stroke-width="2.0" fill="none" stroke="rgb(0, 0, 0)" stroke-opacity="1" stroke-linecap="round" stroke-linejoin="round"/>
    <path d="M 27.22277069091797 213.01951599121094 C -1.7755613327026367 225.6917266845703 1.3082226514816284 193.34841918945312 -6.096875190734863 164.3177032470703 C -24.758237838745117 198.75794982910156 -21.335060119628906 192.40074157714844 -22.961912155151367 193.37139892578125 C -18.104026794433594 182.86936950683594 -22.558149337768555 190.25668334960938 -27.74043083190918 193.90785217285156" stroke-width="2.0" fill="none" stroke="rgb(0, 0, 0)" stroke-opacity="1" stroke-linecap="round" stroke-linejoin="round"/>
    <path d="M 180.92233276367188 47.961631774902344 C 176.4299774169922 31.761743545532227 174.2423858642578 61.26309585571289 184.69927978515625 53.280059814453125 C 143.94122314453125 79.45024108886719 162.45535278320312 68.88182067871094 154.3001251220703 91.82942199707031" stroke-width="2.0" fill="none" stroke="rgb(0, 0, 0)" stroke-opacity="1" stroke-linecap="round" stroke-linejoin="round"/>
    <path d="M 182.16049194335938 -1.4881978034973145 C 160.41928100585938 3.138742208480835 148.84072875976562 -3.1141088008880615 161.6841278076172 25.82781982421875 C 161.42694091796875 -6.873770236968994 171.3974609375 21.44083023071289 154.92552185058594 17.98810577392578 C 174.0828857421875 25.849750518798828 150.27699279785156 39.119903564453125 152.21307373046875 6.790361404418945" stroke-width="2.0" fill="none" stroke="rgb(0, 0, 0)" stroke-opacity="1" stroke-linecap="round" stroke-linejoin="round"/>
    <path d="M 55.192935943603516 177.85836791992188 C 67.42021179199219 198.25538635253906 65.51398468017578 194.53533935546875 69.66522979736328 195.53726196289062 C 48.166412353515625 176.82369995117188 69.27281188964844 178.47158813476562 36.5274772644043 180.81732177734375" stroke-width="2.0" fill="none" stroke="rgb(0, 0, 0)" stroke-opacity="1" stroke-linecap="round" stroke-linejoin="round"/>
    <path d="M 25.900583267211914 38.61829376220703 C 12.815589904785156 45.8348274230957 -0.18996185064315796 52.29353332519531 24.31928062438965 38.68497085571289" stroke-width="2.0" fill="none" stroke="rgb(0, 0, 0)" stroke-opacity="1" stroke-linecap="round" stroke-linejoin="round"/>
    <path d="M 87.34968566894531 174.1740264892578 C 87.5747299194336 160.4706573486328 85.42545318603516 183.152587890625 88.57633209228516 206.72073364257812 C 98.26747131347656 154.05763244628906 73.53684997558594 159.79737854003906 82.15777587890625 168.24740600585938" stroke-width="2.0" fill="none" stroke="rgb(0, 0, 0)" stroke-opacity="1" stroke-linecap="round" stroke-linejoin="round"/>
    <path d="M 117.59759521484375 42.33307647705078 C 108.70320892333984 56.33003234863281 93.6500244140625 67.17192840576172 90.07513427734375 52.218910217285156 C 111.92237854003906 49.55217361450195 125.9330825805664 46.01436233520508 94.08528137207031 58.52467346191406" stroke-width="2.0" fill="none" stroke="rgb(0, 0, 0)" stroke-opacity="1" stroke-linecap="round" stroke-linejoin="round"/>
    <path d="M 130.15234375 36.94252395629883 C 127.79486846923828 12.299410820007324 151.345458984375 9.426556587219238 144.8804931640625 11.771358489990234 C 145.64234924316406 38.39128494262695 118.75347137451172 22.403810501098633 192.2864532470703 14.985735893249512" stroke-width="2.0" fill="none" stroke="rgb(0, 0, 0)" stroke-opacity="1" stroke-linecap="round" stroke-linejoin="round"/>
    <path d="M 144.15658569335938 217.1573944091797 C 187.25946044921875 209.91688537597656 153.59030151367188 222.28321838378906 163.42837524414062 215.24380493164062" stroke-width="2.0" fill="none" stroke="rgb(0, 0, 0)" stroke-opacity="1" stroke-linecap="round" stroke-linejoin="round"/>
    <path d="M 174.69635009765625 -4.666141510009766 C 174.01019287109375 -18.824920654296875 171.85723876953125 -18.91925811767578 173.83731079101562 -16.56890106201172" stroke-width="2.0" fill="none" stroke="rgb(0, 0, 0)" stroke-opacity="1" stroke-linecap="round" stroke-linejoin="round"/>
    <path d="M 71.76901245117188 58.843807220458984 C 42.72177505493164 53.180419921875 14.277995109558105 70.48479461669922 36.70106506347656 53.00578689575195" stroke-width="2.0" fill="none" stroke="rgb(0, 0, 0)" stroke-opacity="1" stroke-linecap="round" stroke-linejoin="round"/>
    <path d="M 53.649803161621094 119.82518005371094 C 58.206878662109375 117.9330062866211 57.015926361083984 146.73117065429688 54.367401123046875 108.71968841552734" stroke-width="2.0" fill="none" stroke="rgb(0, 0, 0)" stroke-opacity="1" stroke-linecap="round" stroke-linejoin="round"/>
  </g>
</svg>
