<?xml version="1.0" ?>
<svg xmlns="http://www.w3.org/2000/svg" version="1.1" width="224" height="224">
  <defs/>
  <g>
    <path d="M 7.128023624420166 168.40057373046875 C 28.44570541381836 178.94752502441406 -15.909014701843262 186.23072814941406 8.645004272460938 176.4993896484375 C 0.13066191971302032 187.34510803222656 -9.156085968017578 199.6445770263672 -24.077899932861328 217.65740966796875 C -5.868509769439697 200.80953979492188 16.735647201538086 195.25286865234375 12.918098449707031 210.861328125" stroke-width="2.0" fill="none" stroke="rgb(0, 0, 0)" stroke-opacity="1" stroke-linecap="round" stroke-linejoin="round"/>
    <path d="M 207.5531768798828 136.06446838378906 C 174.865234375 131.70294189453125 210.5561065673828 120.55887603759766 214.21371459960938 133.5701904296875 C 227.43783569335938 124.43247985839844 200.4835968017578 110.03730773925781 199.0474090576172 146.38528442382812" stroke-width="2.0" fill="none" stroke="rgb(0, 0, 0)" stroke-opacity="1" stroke-linecap="round" stroke-linejoin="round"/>
    <path d="M 147.1678009033203 153.9188995361328 C 170.28515625 166.32723999023438 179.99452209472656 149.68443298339844 135.14527893066406 157.4755096435547 C 179.445556640625 131.13824462890625 148.105712890625 162.20143127441406 176.1669921875 156.25537109375" stroke-width="2.0" fill="none" stroke="rgb(0, 0, 0)" stroke-opacity="1" stroke-linecap="round" stroke-linejoin="round"/>
    <path d="M 68.94612884521484 177.03814697265625 C 44.061344146728516 170.2662811279297 64.20391082763672 149.69496154785156 71.56209564208984 175.84559631347656" stroke-width="2.0" fill="none" stroke="rgb(0, 0, 0)" stroke-opacity="1" stroke-linecap="round" stroke-linejoin="round"/>
    <path d="M 213.50625610351562 131.74029541015625 C 184.92584228515625 124.97925567626953 197.8756561279297 131.91775512695312 210.08807373046875 128.18881225585938 C 201.534423828125 130.93247985839844 214.16893005371094 145.3452911376953 207.6343536376953 126.79607391357422" stroke-width="2.0" fill="none" stroke="rgb(0, 0, 0)" stroke-opacity="1" stroke-linecap="round" stroke-linejoin="round"/>
    <path d="M 116.83263397216797 109.14295959472656 C 115.47116088867188 89.4570541381836 133.98423767089844 117.56837463378906 117.88697814941406 114.18444061279297 C 126.29118347167969 116.00859069824219 120.4488754272461 105.07073211669922 107.84284973144531 93.68990325927734" stroke-width="2.0" fill="none" stroke="rgb(0, 0, 0)" stroke-opacity="1" stroke-linecap="round" stroke-linejoin="round"/>
    <path d="M 208.29660034179688 138.59854125976562 C 201.22169494628906 147.02394104003906 211.62155151367188 148.1447296142578 210.24295043945312 157.5061492919922 C 213.79562377929688 166.76602172851562 220.0052947998047 158.4439697265625 231.17852783203125 138.07542419433594" stroke-width="2.0" fill="none" stroke="rgb(0, 0, 0)" stroke-opacity="1" stroke-linecap="round" stroke-linejoin="round"/>
    <path d="M 33.565086364746094 166.45755004882812 C 39.42642593383789 174.96693420410156 41.1904182434082 159.1251678466797 33.736572265625 165.3758087158203" stroke-width="2.0" fill="none" stroke="rgb(0, 0, 0)" stroke-opacity="1" stroke-linecap="round" stroke-linejoin="round"/>
    <path d="M 37.740509033203125 156.61370849609375 C 34.053619384765625 146.64454650878906 43.93185806274414 161.59295654296875 65.07025146484375 142.6466064453125 C 56.545677185058594 173.09324645996094 77.88033294677734 175.62249755859375 71.24866485595703 163.96942138671875" stroke-width="2.0" fill="none" stroke="rgb(0, 0, 0)" stroke-opacity="1" stroke-linecap="round" stroke-linejoin="round"/>
    <path d="M 43.85916519165039 130.70114135742188 C 15.761088371276855 134.22119140625 8.198837280273438 157.34776306152344 25.431289672851562 147.7678680419922" stroke-width="2.0" fill="none" stroke="rgb(0, 0, 0)" stroke-opacity="1" stroke-linecap="round" stroke-linejoin="round"/>
    <path d="M 147.18397521972656 83.67382049560547 C 165.33251953125 86.5064926147461 165.12857055664062 101.9672622680664 173.0108642578125 88.85230255126953 C 139.2237091064453 93.9475326538086 122.51946258544922 93.47061920166016 150.7353515625 95.15865325927734" stroke-width="2.0" fill="none" stroke="rgb(0, 0, 0)" stroke-opacity="1" stroke-linecap="round" stroke-linejoin="round"/>
    <path d="M 33.1346435546875 43.231468200683594 C 27.349781036376953 46.22902297973633 55.84693908691406 39.58244323730469 31.222885131835938 38.00957489013672 C 7.602200984954834 46.73035430908203 20.908052444458008 55.79402160644531 29.302688598632812 42.477569580078125 C 49.203025817871094 40.60680389404297 19.519529342651367 34.30636215209961 24.223419189453125 48.56232833862305" stroke-width="2.0" fill="none" stroke="rgb(0, 0, 0)" stroke-opacity="1" stroke-linecap="round" stroke-linejoin="round"/>
    <path d="M 203.3572235107422 42.986637115478516 C 174.70474243164062 42.729496002197266 205.86032104492188 53.56856918334961 208.06263732910156 48.322959899902344 C 214.6033935546875 40.51511001586914 189.9060516357422 34.03784942626953 203.03509521484375 49.1286506652832" stroke-width="2.0" fill="none" stroke="rgb(0, 0, 0)" stroke-opacity="1" stroke-linecap="round" stroke-linejoin="round"/>
    <path d="M 55.809547424316406 149.8644256591797 C 73.58098602294922 153.28839111328125 47.2259407043457 135.99258422851562 59.84540557861328 154.41014099121094 C 42.87371063232422 152.46682739257812 35.50259017944336 141.41156005859375 74.19235229492188 131.8359375" stroke-width="2.0" fill="none" stroke="rgb(0, 0, 0)" stroke-opacity="1" stroke-linecap="round" stroke-linejoin="round"/>
    <path d="M -1.4243870973587036 41.78380584716797 C 2.7538647651672363 6.6818318367004395 31.441984176635742 33.493629455566406 33.43361282348633 5.251952171325684" stroke-width="2.0" fill="none" stroke="rgb(0, 0, 0)" stroke-opacity="1" stroke-linecap="round" stroke-linejoin="round"/>
    <path d="M 126.86482238769531 147.6775360107422 C 147.58651733398438 162.4568634033203 138.9195556640625 151.89102172851562 79.40231323242188 148.5207977294922 C 139.0892791748047 147.9993133544922 145.31849670410156 146.38510131835938 141.28033447265625 134.9044647216797" stroke-width="2.0" fill="none" stroke="rgb(0, 0, 0)" stroke-opacity="1" stroke-linecap="round" stroke-linejoin="round"/>
    <path d="M 164.30018615722656 186.86061096191406 C 184.48831176757812 167.30645751953125 193.42257690429688 203.24871826171875 186.83035278320312 191.99827575683594 C 182.45018005371094 174.84510803222656 146.73965454101562 190.71434020996094 166.03121948242188 206.8489532470703" stroke-width="2.0" fill="none" stroke="rgb(0, 0, 0)" stroke-opacity="1" stroke-linecap="round" stroke-linejoin="round"/>
    <path d="M 44.500972747802734 42.646175384521484 C 50.1668815612793 9.56417465209961 80.51395416259766 55.186946868896484 33.70869064331055 40.75676727294922 C 35.00471496582031 48.28583908081055 73.7744369506836 34.433006286621094 23.390682220458984 35.809329986572266" stroke-width="2.0" fill="none" stroke="rgb(0, 0, 0)" stroke-opacity="1" stroke-linecap="round" stroke-linejoin="round"/>
    <path d="M 126.2868423461914 229.88368225097656 C 118.68254089355469 235.3792724609375 128.20571899414062 241.76974487304688 131.26376342773438 239.8179168701172 C 122.98405456542969 244.74891662597656 116.80498504638672 239.07278442382812 118.89476013183594 244.455078125" stroke-width="2.0" fill="none" stroke="rgb(0, 0, 0)" stroke-opacity="1" stroke-linecap="round" stroke-linejoin="round"/>
    <path d="M 25.12381362915039 140.02955627441406 C 81.54805755615234 133.5323944091797 87.20320129394531 156.8387451171875 46.52978515625 147.7542724609375 C 45.94022750854492 147.6780242919922 90.8188705444336 127.93595123291016 65.21544647216797 124.82998657226562" stroke-width="2.0" fill="none" stroke="rgb(0, 0, 0)" stroke-opacity="1" stroke-linecap="round" stroke-linejoin="round"/>
    <path d="M 116.8036117553711 198.58840942382812 C 76.8056869506836 201.4175567626953 93.76197052001953 195.58447265625 99.63370513916016 203.0278778076172 C 96.6441879272461 175.49476623535156 103.3479232788086 199.37168884277344 101.33705139160156 193.59669494628906 C 106.54934692382812 200.57679748535156 84.26094818115234 184.4372100830078 99.49964141845703 188.42994689941406" stroke-width="2.0" fill="none" stroke="rgb(0, 0, 0)" stroke-opacity="1" stroke-linecap="round" stroke-linejoin="round"/>
    <path d="M 147.2322998046875 37.81224060058594 C 140.6730194091797 30.52066993713379 162.6204833984375 38.85456848144531 140.69618225097656 37.16769790649414 C 149.3861083984375 39.81090545654297 117.47342681884766 14.996907234191895 99.1511001586914 22.524852752685547 C 105.54338073730469 39.56980514526367 77.81267547607422 17.327505111694336 119.83737182617188 23.079721450805664" stroke-width="2.0" fill="none" stroke="rgb(0, 0, 0)" stroke-opacity="1" stroke-linecap="round" stroke-linejoin="round"/>
    <path d="M 0.760688304901123 195.65451049804688 C 9.456634521484375 215.46536254882812 1.578412652015686 197.74627685546875 -18.92330551147461 182.69549560546875" stroke-width="2.0" fill="none" stroke="rgb(0, 0, 0)" stroke-opacity="1" stroke-linecap="round" stroke-linejoin="round"/>
    <path d="M 3.326233148574829 44.4163818359375 C -5.733926296234131 28.920455932617188 9.849209785461426 66.80450439453125 -0.3671478033065796 68.48247528076172 C 4.1151957511901855 57.14107894897461 -1.2182867527008057 66.45101165771484 -14.603514671325684 44.8499870300293 C 7.898857593536377 20.660520553588867 15.0557279586792 46.4176139831543 -9.056863784790039 49.61969757080078" stroke-width="2.0" fill="none" stroke="rgb(0, 0, 0)" stroke-opacity="1" stroke-linecap="round" stroke-linejoin="round"/>
    <path d="M 46.260921478271484 229.77244567871094 C 46.2677116394043 189.73448181152344 63.429996490478516 224.6731414794922 62.932899475097656 210.47705078125 C 28.16588592529297 201.7839813232422 46.8013916015625 226.64300537109375 54.57536315917969 231.39157104492188" stroke-width="2.0" fill="none" stroke="rgb(0, 0, 0)" stroke-opacity="1" stroke-linecap="round" stroke-linejoin="round"/>
    <path d="M -1.627711534500122 79.44949340820312 C -2.9612038135528564 95.48236083984375 20.703033447265625 85.78144073486328 20.935943603515625 111.35394287109375" stroke-width="2.0" fill="none" stroke="rgb(0, 0, 0)" stroke-opacity="1" stroke-linecap="round" stroke-linejoin="round"/>
    <path d="M 186.908935546875 80.5766830444336 C 202.2779541015625 103.45125579833984 216.2259521484375 61.6052360534668 202.43333435058594 79.6434555053711 C 203.61529541015625 90.45100402832031 202.0902862548828 86.63997650146484 212.83837890625 73.87387084960938" stroke-width="2.0" fill="none" stroke="rgb(0, 0, 0)" stroke-opacity="1" stroke-linecap="round" stroke-linejoin="round"/>
    <path d="M 206.0714874267578 29.240739822387695 C 182.41336059570312 39.48027038574219 214.279541015625 -5.917330265045166 205.93414306640625 21.808666229248047" stroke-width="2.0" fill="none" stroke="rgb(0, 0, 0)" stroke-opacity="1" stroke-linecap="round" stroke-linejoin="round"/>
    <path d="M 126.70269775390625 49.1254768371582 C 127.24449157714844 35.382572174072266 131.49920654296875 63.07490158081055 127.71089935302734 53.17654800415039 C 101.55449676513672 66.28890228271484 99.68740844726562 69.614501953125 118.32474517822266 62.66422653198242 C 106.7671127319336 68.89198303222656 117.56832885742188 40.78523635864258 92.5216064453125 47.01069259643555" stroke-width="2.0" fill="none" stroke="rgb(0, 0, 0)" stroke-opacity="1" stroke-linecap="round" stroke-linejoin="round"/>
    <path d="M -1.6556788682937622 6.687665939331055 C 8.815513610839844 20.664291381835938 -10.80586051940918 23.82402229309082 -29.730527877807617 26.449356079101562 C -8.659775733947754 57.35307312011719 -3.2615275382995605 58.09851837158203 -7.980318546295166 64.57171630859375 C -14.54544448852539 55.95576477050781 -22.69231414794922 47.70500946044922 -25.815235137939453 56.154441833496094" stroke-width="2.0" fill="none" stroke="rgb(0, 0, 0)" stroke-opacity="1" stroke-linecap="round" stroke-linejoin="round"/>
    <path d="M 40.28271484375 190.30319213867188 C 40.26236343383789 192.29444885253906 55.14592742919922 182.189697265625 18.679367065429688 184.24745178222656 C 64.77130126953125 166.2421417236328 60.58848571777344 176.878173828125 25.57365608215332 172.1183319091797 C 12.433463096618652 170.50076293945312 14.47565746307373 200.57666015625 44.701637268066406 175.93710327148438" stroke-width="2.0" fill="none" stroke="rgb(0, 0, 0)" stroke-opacity="1" stroke-linecap="round" stroke-linejoin="round"/>
    <path d="M 50.50080871582031 85.19369506835938 C 55.24977111816406 83.48402404785156 55.087074279785156 69.40272521972656 87.95976257324219 81.82074737548828" stroke-width="2.0" fill="none" stroke="rgb(0, 0, 0)" stroke-opacity="1" stroke-linecap="round" stroke-linejoin="round"/>
    <path d="M 141.13619995117188 150.82835388183594 C 124.37914276123047 159.75779724121094 125.37810516357422 144.42010498046875 143.3316650390625 159.38453674316406 C 134.75164794921875 166.2303924560547 171.51649475097656 131.61700439453125 108.52149963378906 154.67845153808594 C 159.29141235351562 151.09735107421875 180.4971923828125 150.4854278564453 143.26202392578125 160.01844787597656" stroke-width="2.0" fill="none" stroke="rgb(0, 0, 0)" stroke-opacity="1" stroke-linecap="round" stroke-linejoin="round"/>
    <path d="M 63.4155158996582 100.48405456542969 C 26.06615447998047 109.30465698242188 92.9242935180664 96.8202133178711 74.95641326904297 114.08978271484375 C 115.024658203125 111.97017669677734 89.6192855834961 136.4217987060547 112.91849517822266 134.42738342285156" stroke-width="2.0" fill="none" stroke="rgb(0, 0, 0)" stroke-opacity="1" stroke-linecap="round" stroke-linejoin="round"/>
    <path d="M 170.42652893066406 96.13331604003906 C 185.34326171875 69.72867584228516 228.31138610839844 93.75826263427734 201.2722930908203 94.43937683105469" stroke-width="2.0" fill="none" stroke="rgb(0, 0, 0)" stroke-opacity="1" stroke-linecap="round" stroke-linejoin="round"/>
    <path d="M 112.76051330566406 10.129842758178711 C 117.59609985351562 21.772348403930664 125.18498229980469 -5.836363792419434 96.04337310791016 20.340105056762695 C 98.41317749023438 -26.335134506225586 117.40643310546875 27.163101196289062 99.14187622070312 0.8398751020431519" stroke-width="2.0" fill="none" stroke="rgb(0, 0, 0)" stroke-opacity="1" stroke-linecap="round" stroke-linejoin="round"/>
    <path d="M 27.098186492919922 10.339664459228516 C 35.293609619140625 7.333537578582764 32.1733512878418 25.868621826171875 18.191757202148438 20.54450225830078 C 47.35228729248047 17.77168083190918 13.70506477355957 37.5423698425293 31.810653686523438 34.07575225830078 C 25.358295440673828 21.128480911254883 12.14196491241455 41.433834075927734 33.97386932373047 36.80759048461914" stroke-width="2.0" fill="none" stroke="rgb(0, 0, 0)" stroke-opacity="1" stroke-linecap="round" stroke-linejoin="round"/>
    <path d="M 210.43768310546875 56.06404113769531 C 224.11029052734375 59.59819030761719 199.31727600097656 48.59150695800781 167.99114990234375 48.5778694152832" stroke-width="2.0" fill="none" stroke="rgb(0, 0, 0)" stroke-opacity="1" stroke-linecap="round" stroke-linejoin="round"/>
    <path d="M 110.2374038696289 19.198076248168945 C 114.5345687866211 9.555580139160156 83.02340698242188 9.211398124694824 77.66365051269531 14.646915435791016 C 94.54821014404297 0.5179336667060852 63.69194412231445 5.504507064819336 89.68475341796875 13.567590713500977 C 136.24163818359375 28.280776977539062 79.5842514038086 1.6507989168167114 60.127777099609375 16.509403228759766" stroke-width="2.0" fill="none" stroke="rgb(0, 0, 0)" stroke-opacity="1" stroke-linecap="round" stroke-linejoin="round"/>
    <path d="M 17.25090217590332 98.33190155029297 C 24.072242736816406 89.69076538085938 14.213768005371094 89.71099853515625 -7.345587253570557 92.46458435058594" stroke-width="2.0" fill="none" stroke="rgb(0, 0, 0)" stroke-opacity="1" stroke-linecap="round" stroke-linejoin="round"/>
    <path d="M 141.61476135253906 124.46861267089844 C 130.91651916503906 134.29873657226562 129.86468505859375 118.25080871582031 143.32261657714844 131.15884399414062 C 119.24977111816406 128.09991455078125 117.43602752685547 131.7223663330078 141.8907470703125 143.77395629882812 C 105.59358978271484 136.56040954589844 72.85784149169922 145.22030639648438 136.96319580078125 149.53155517578125" stroke-width="2.0" fill="none" stroke="rgb(0, 0, 0)" stroke-opacity="1" stroke-linecap="round" stroke-linejoin="round"/>
    <path d="M 132.6345977783203 190.01516723632812 C 168.3575897216797 189.01365661621094 169.15728759765625 195.45465087890625 164.3170928955078 221.33792114257812 C 153.4768829345703 186.84228515625 182.1792755126953 181.1194305419922 168.85137939453125 174.29898071289062" stroke-width="2.0" fill="none" stroke="rgb(0, 0, 0)" stroke-opacity="1" stroke-linecap="round" stroke-linejoin="round"/>
    <path d="M 167.3306427001953 60.95893096923828 C 187.332763671875 62.589473724365234 168.04330444335938 78.21006774902344 170.17335510253906 57.584556579589844" stroke-width="2.0" fill="none" stroke="rgb(0, 0, 0)" stroke-opacity="1" stroke-linecap="round" stroke-linejoin="round"/>
    <path d="M 71.1997299194336 37.70969009399414 C 50.19846725463867 36.86545944213867 75.91339111328125 56.47403335571289 55.98241424560547 52.02825164794922" stroke-width="2.0" fill="none" stroke="rgb(0, 0, 0)" stroke-opacity="1" stroke-linecap="round" stroke-linejoin="round"/>
    <path d="M 180.30508422851562 97.08015441894531 C 154.89988708496094 86.6219711303711 120.75096130371094 80.73684692382812 162.0527801513672 82.00737762451172 C 154.81468200683594 100.90644836425781 184.5026397705078 97.90646362304688 176.7156982421875 87.48802185058594" stroke-width="2.0" fill="none" stroke="rgb(0, 0, 0)" stroke-opacity="1" stroke-linecap="round" stroke-linejoin="round"/>
    <path d="M 128.53741455078125 42.97426986694336 C 173.7657012939453 30.780126571655273 148.1881866455078 48.620121002197266 152.19557189941406 39.04707336425781 C 158.3411102294922 21.2304744720459 190.24256896972656 36.94090270996094 163.82595825195312 31.65030860900879" stroke-width="2.0" fill="none" stroke="rgb(0, 0, 0)" stroke-opacity="1" stroke-linecap="round" stroke-linejoin="round"/>
    <path d="M 110.54216003417969 -4.835989952087402 C 80.70478820800781 -0.45027589797973633 94.3564453125 10.013269424438477 112.50127410888672 -3.5525670051574707 C 95.78656005859375 14.699095726013184 82.71031951904297 7.969914436340332 95.40846252441406 18.29861831665039" stroke-width="2.0" fill="none" stroke="rgb(0, 0, 0)" stroke-opacity="1" stroke-linecap="round" stroke-linejoin="round"/>
    <path d="M 191.20130920410156 187.6000213623047 C 175.82920837402344 183.9410400390625 210.5170135498047 175.564697265625 192.78797912597656 195.28689575195312" stroke-width="2.0" fill="none" stroke="rgb(0, 0, 0)" stroke-opacity="1" stroke-linecap="round" stroke-linejoin="round"/>
    <path d="M 48.85810852050781 101.7762451171875 C 48.6197509765625 101.90687561035156 5.191150188446045 90.9444808959961 0.03563321754336357 122.9471435546875 C 15.76611042022705 111.39830780029297 -21.339406967163086 106.73689270019531 13.343615531921387 88.00069427490234" stroke-width="2.0" fill="none" stroke="rgb(0, 0, 0)" stroke-opacity="1" stroke-linecap="round" stroke-linejoin="round"/>
    <path d="M 16.28399658203125 104.3565444946289 C 40.52598190307617 116.43614959716797 4.521287441253662 116.07123565673828 24.000110626220703 103.26219940185547 C -6.896546840667725 90.86311340332031 -10.618706703186035 56.99419403076172 22.23712730407715 68.06486511230469 C 4.20358943939209 103.98690795898438 -15.576205253601074 114.18924713134766 7.286185264587402 87.227294921875" stroke-width="2.0" fill="none" stroke="rgb(0, 0, 0)" stroke-opacity="1" stroke-linecap="round" stroke-linejoin="round"/>
    <path d="M 40.08470153808594 186.01458740234375 C 28.57054901123047 193.2726593017578 54.38560485839844 194.0110626220703 40.83506393432617 184.05226135253906 C 11.142704963684082 184.40829467773438 -0.9525371193885803 212.6499481201172 12.287510871887207 206.87933349609375" stroke-width="2.0" fill="none" stroke="rgb(0, 0, 0)" stroke-opacity="1" stroke-linecap="round" stroke-linejoin="round"/>
    <path d="M 169.99661254882812 111.47076416015625 C 191.93934631347656 119.46776580810547 141.1773681640625 90.17465209960938 189.60897827148438 101.52053833007812 C 201.886474609375 122.82669067382812 141.9011688232422 98.3699722290039 173.01080322265625 116.152099609375" stroke-width="2.0" fill="none" stroke="rgb(0, 0, 0)" stroke-opacity="1" stroke-linecap="round" stroke-linejoin="round"/>
    <path d="M 80.17317962646484 100.15941619873047 C 106.46742248535156 106.27811431884766 75.98489379882812 83.19470977783203 85.85102844238281 79.1101303100586 C 68.98955535888672 78.46813201904297 96.25132751464844 89.83572387695312 134.1915740966797 108.00469207763672 C 158.08047485351562 127.74637603759766 135.2577667236328 89.19900512695312 139.68467712402344 111.7423095703125" stroke-width="2.0" fill="none" stroke="rgb(0, 0, 0)" stroke-opacity="1" stroke-linecap="round" stroke-linejoin="round"/>
    <path d="M 138.565185546875 186.80740356445312 C 120.41901397705078 198.02084350585938 148.6996612548828 220.6020965576172 119.28260803222656 213.58526611328125" stroke-width="2.0" fill="none" stroke="rgb(0, 0, 0)" stroke-opacity="1" stroke-linecap="round" stroke-linejoin="round"/>
    <path d="M 89.86674499511719 116.81584167480469 C 102.00882720947266 127.22148132324219 68.20687866210938 105.77334594726562 56.9915657043457 133.9635772705078 C 39.86509323120117 107.03125762939453 75.59918975830078 115.64106750488281 52.024227142333984 132.6245574951172 C 75.65880584716797 117.29080963134766 57.00770950317383 115.65105438232422 50.57261657714844 107.2464828491211" stroke-width="2.0" fill="none" stroke="rgb(0, 0, 0)" stroke-opacity="1" stroke-linecap="round" stroke-linejoin="round"/>
    <path d="M 107.01864624023438 154.5999298095703 C 108.1042251586914 173.4652099609375 89.97698974609375 142.5729217529297 67.43569946289062 171.9457550048828" stroke-width="2.0" fill="none" stroke="rgb(0, 0, 0)" stroke-opacity="1" stroke-linecap="round" stroke-linejoin="round"/>
    <path d="M 203.49032592773438 60.25237274169922 C 237.09368896484375 50.29703903198242 218.98594665527344 74.76644897460938 232.48220825195312 49.4924430847168" stroke-width="2.0" fill="none" stroke="rgb(0, 0, 0)" stroke-opacity="1" stroke-linecap="round" stroke-linejoin="round"/>
    <path d="M 161.9786376953125 169.1295166015625 C 160.33352661132812 185.357177734375 197.8922576904297 147.13479614257812 116.76400756835938 160.1560821533203 C 119.40860748291016 152.26446533203125 119.25076293945312 158.1354522705078 165.1300506591797 156.8568572998047" stroke-width="2.0" fill="none" stroke="rgb(0, 0, 0)" stroke-opacity="1" stroke-linecap="round" stroke-linejoin="round"/>
    <path d="M 20.549484252929688 54.06764221191406 C 16.795806884765625 61.7292594909668 4.395674705505371 44.837196350097656 19.563962936401367 82.7842025756836 C 18.772151947021484 67.15184020996094 22.260028839111328 73.14019775390625 6.923620700836182 63.06058120727539 C 45.568355560302734 72.48941802978516 33.590736389160156 34.45624542236328 9.524328231811523 60.767921447753906" stroke-width="2.0" fill="none" stroke="rgb(0, 0, 0)" stroke-opacity="1" stroke-linecap="round" stroke-linejoin="round"/>
    <path d="M -5.898925304412842 176.96395874023438 C 5.976954460144043 157.2829132080078 18.41952133178711 189.09109497070312 0.07405627518892288 167.04656982421875" stroke-width="2.0" fill="none" stroke="rgb(0, 0, 0)" stroke-opacity="1" stroke-linecap="round" stroke-linejoin="round"/>
    <path d="M 103.9632797241211 173.6552276611328 C 118.96517944335938 180.24237060546875 132.7892608642578 166.82830810546875 101.82893371582031 157.2083282470703" stroke-width="2.0" fill="none" stroke="rgb(0, 0, 0)" stroke-opacity="1" stroke-linecap="round" stroke-linejoin="round"/>
    <path d="M 56.6612548828125 84.9755859375 C 24.138763427734375 84.89444732666016 61.81201171875 91.33103942871094 48.298370361328125 78.70124053955078 C 38.31219482421875 83.41100311279297 64.94725036621094 103.01118469238281 38.99986267089844 90.14327239990234" stroke-width="2.0" fill="none" stroke="rgb(0, 0, 0)" stroke-opacity="1" stroke-linecap="round" stroke-linejoin="round"/>
    <path d="M 178.97731018066406 139.2100067138672 C 193.69740295410156 137.72694396972656 230.40664672851562 156.75390625 198.1831512451172 127.28257751464844 C 217.4154052734375 183.01773071289062 200.61795043945312 134.8823699951172 192.78196716308594 184.61260986328125 C 181.2242431640625 150.32183837890625 223.55799865722656 167.9576873779297 223.48434448242188 152.6640167236328" stroke-width="2.0" fill="none" stroke="rgb(0, 0, 0)" stroke-opacity="1" stroke-linecap="round" stroke-linejoin="round"/>
    <path d="M 116.64261627197266 99.49496459960938 C 119.71468353271484 103.20970153808594 139.8397674560547 107.42123413085938 81.29801177978516 96.16332244873047 C 104.04866790771484 103.76860809326172 93.12744140625 117.40330505371094 74.15760040283203 110.89466857910156" stroke-width="2.0" fill="none" stroke="rgb(0, 0, 0)" stroke-opacity="1" stroke-linecap="round" stroke-linejoin="round"/>
    <path d="M 65.4815444946289 165.79739379882812 C 61.75012969970703 181.71302795410156 83.63099670410156 174.10025024414062 48.94490051269531 173.18966674804688 C 78.2569808959961 174.08416748046875 75.72173309326172 158.53822326660156 45.903812408447266 159.5189208984375 C 27.482128143310547 155.99057006835938 25.02561378479004 170.33331298828125 41.97255325317383 191.4808807373047" stroke-width="2.0" fill="none" stroke="rgb(0, 0, 0)" stroke-opacity="1" stroke-linecap="round" stroke-linejoin="round"/>
    <path d="M 170.235595703125 240.46600341796875 C 156.16880798339844 229.1641387939453 173.1017303466797 203.6417236328125 166.85240173339844 229.63775634765625 C 147.90036010742188 221.73907470703125 163.5252227783203 213.71669006347656 172.4742889404297 218.32000732421875" stroke-width="2.0" fill="none" stroke="rgb(0, 0, 0)" stroke-opacity="1" stroke-linecap="round" stroke-linejoin="round"/>
    <path d="M 199.39413452148438 142.65341186523438 C 187.744384765625 123.46476745605469 222.4031982421875 124.69732666015625 203.44818115234375 131.15481567382812 C 194.11431884765625 137.09385681152344 229.16934204101562 134.0711669921875 202.6307373046875 131.9565887451172 C 210.8818817138672 142.09910583496094 214.68035888671875 105.258544921875 195.95175170898438 111.72384643554688" stroke-width="2.0" fill="none" stroke="rgb(0, 0, 0)" stroke-opacity="1" stroke-linecap="round" stroke-linejoin="round"/>
    <path d="M 47.31760787963867 81.7388916015625 C 53.38188171386719 99.0883560180664 30.900341033935547 71.8129653930664 34.243167877197266 97.81920623779297 C 56.03567123413086 88.09476470947266 51.33796310424805 69.34526824951172 48.813758850097656 83.2801284790039" stroke-width="2.0" fill="none" stroke="rgb(0, 0, 0)" stroke-opacity="1" stroke-linecap="round" stroke-linejoin="round"/>
    <path d="M 61.74753189086914 6.07807731628418 C 65.5829849243164 -5.547234535217285 43.62385940551758 11.82242202758789 75.40762329101562 4.7246599197387695" stroke-width="2.0" fill="none" stroke="rgb(0, 0, 0)" stroke-opacity="1" stroke-linecap="round" stroke-linejoin="round"/>
    <path d="M 155.9996337890625 207.04791259765625 C 147.5635223388672 195.89247131347656 168.38201904296875 189.1842803955078 154.4591522216797 203.51087951660156 C 176.70484924316406 208.81411743164062 183.88946533203125 222.06130981445312 160.54090881347656 220.9881134033203" stroke-width="2.0" fill="none" stroke="rgb(0, 0, 0)" stroke-opacity="1" stroke-linecap="round" stroke-linejoin="round"/>
    <path d="M 116.22132110595703 138.71739196777344 C 144.10302734375 128.99005126953125 124.59780883789062 131.40243530273438 96.29960632324219 124.52123260498047" stroke-width="2.0" fill="none" stroke="rgb(0, 0, 0)" stroke-opacity="1" stroke-linecap="round" stroke-linejoin="round"/>
    <path d="M 229.33157348632812 190.11700439453125 C 189.40762329101562 186.17750549316406 221.67042541503906 185.6153106689453 216.3773651123047 187.9203338623047 C 231.56350708007812 201.89044189453125 225.5746612548828 208.70947265625 229.53836059570312 191.3507843017578 C 220.75379943847656 182.1398468017578 200.37103271484375 176.73623657226562 192.6027069091797 204.48248291015625" stroke-width="2.0" fill="none" stroke="rgb(0, 0, 0)" stroke-opacity="1" stroke-linecap="round" stroke-linejoin="round"/>
    <path d="M 130.47686767578125 121.67579650878906 C 160.12705993652344 123.62520599365234 139.71351623535156 131.0231170654297 128.1524200439453 127.57701873779297" stroke-width="2.0" fill="none" stroke="rgb(0, 0, 0)" stroke-opacity="1" stroke-linecap="round" stroke-linejoin="round"/>
    <path d="M 143.65492248535156 71.78324127197266 C 176.08657836914062 88.30137634277344 137.6181640625 48.37919616699219 134.8011016845703 75.33035278320312 C 125.95137023925781 87.58486938476562 157.00318908691406 75.40343475341797 156.73963928222656 81.1415023803711 C 150.6848907470703 121.83792114257812 140.76416015625 77.09455108642578 150.4047393798828 69.2211685180664" stroke-width="2.0" fill="none" stroke="rgb(0, 0, 0)" stroke-opacity="1" stroke-linecap="round" stroke-linejoin="round"/>
    <path d="M 204.80747985839844 98.9865951538086 C 178.75486755371094 75.25627899169922 199.5797576904297 121.49835205078125 200.8279571533203 83.76490020751953 C 205.10003662109375 83.87477111816406 221.8612518310547 72.49271392822266 225.74325561523438 102.47046661376953" stroke-width="2.0" fill="none" stroke="rgb(0, 0, 0)" stroke-opacity="1" stroke-linecap="round" stroke-linejoin="round"/>
    <path d="M 146.4059600830078 86.80087280273438 C 177.03387451171875 62.97160720825195 146.842041015625 70.91592407226562 129.59420776367188 78.5218276977539 C 164.90032958984375 78.97028350830078 149.03016662597656 61.216941833496094 169.84144592285156 65.29397583007812" stroke-width="2.0" fill="none" stroke="rgb(0, 0, 0)" stroke-opacity="1" stroke-linecap="round" stroke-linejoin="round"/>
    <path d="M 198.8325958251953 211.996826171875 C 216.06044006347656 193.5601348876953 159.0137176513672 198.27755737304688 194.20367431640625 197.5194549560547" stroke-width="2.0" fill="none" stroke="rgb(0, 0, 0)" stroke-opacity="1" stroke-linecap="round" stroke-linejoin="round"/>
    <path d="M 20.09983253479004 75.36856079101562 C 27.37630271911621 83.80247497558594 2.4228241443634033 86.48983764648438 13.705368041992188 75.6757583618164 C 28.131305694580078 95.30894470214844 37.1132698059082 64.81898498535156 14.310125350952148 78.70619201660156" stroke-width="2.0" fill="none" stroke="rgb(0, 0, 0)" stroke-opacity="1" stroke-linecap="round" stroke-linejoin="round"/>
    <path d="M 54.46352005004883 211.8980712890625 C 65.75056457519531 228.19625854492188 32.09458923339844 232.6134796142578 1.7360589504241943 223.34597778320312 C 38.953643798828125 208.02841186523438 6.183351039886475 231.82754516601562 13.297677040100098 211.54185485839844 C 18.52423858642578 200.7521514892578 -9.720995903015137 223.0997772216797 21.985742568969727 190.43934631347656" stroke-width="2.0" fill="none" stroke="rgb(0, 0, 0)" stroke-opacity="1" stroke-linecap="round" stroke-linejoin="round"/>
    <path d="M 1.2256557941436768 197.509033203125 C 23.824729919433594 204.5404510498047 -3.565533399581909 183.2657012939453 30.829574584960938 188.65658569335938 C 5.924405574798584 194.25125122070312 -4.965465545654297 220.97862243652344 -10.217308044433594 201.38531494140625" stroke-width="2.0" fill="none" stroke="rgb(0, 0, 0)" stroke-opacity="1" stroke-linecap="round" stroke-linejoin="round"/>
    <path d="M 211.65008544921875 -1.6689894199371338 C 202.41778564453125 29.09528923034668 234.39303588867188 3.7777507305145264 195.2355194091797 10.216474533081055 C 231.57171630859375 -3.4199447631835938 234.1025390625 -8.452341079711914 233.65609741210938 -20.245624542236328" stroke-width="2.0" fill="none" stroke="rgb(0, 0, 0)" stroke-opacity="1" stroke-linecap="round" stroke-linejoin="round"/>
    <path d="M 210.08026123046875 54.5496826171875 C 212.6713409423828 75.9626235961914 197.1026611328125 49.209373474121094 216.57177734375 54.02819061279297" stroke-width="2.0" fill="none" stroke="rgb(0, 0, 0)" stroke-opacity="1" stroke-linecap="round" stroke-linejoin="round"/>
    <path d="M 192.5702667236328 45.285099029541016 C 202.9144287109375 44.613033294677734 180.75949096679688 57.15109634399414 184.3524932861328 44.63551712036133 C 176.61341857910156 49.642303466796875 142.4790802001953 43.605770111083984 180.5078887939453 45.43806076049805" stroke-width="2.0" fill="none" stroke="rgb(0, 0, 0)" stroke-opacity="1" stroke-linecap="round" stroke-linejoin="round"/>
    <path d="M 21.77216339111328 149.16957092285156 C 19.815982818603516 124.47589874267578 63.7562255859375 140.2477264404297 25.515384674072266 127.37264251708984 C 51.496864318847656 126.6213150024414 68.23438262939453 132.94400024414062 56.636375427246094 122.21437072753906" stroke-width="2.0" fill="none" stroke="rgb(0, 0, 0)" stroke-opacity="1" stroke-linecap="round" stroke-linejoin="round"/>
    <path d="M 188.75564575195312 15.649628639221191 C 213.49169921875 8.945989608764648 202.34471130371094 20.859298706054688 184.48257446289062 17.683822631835938 C 223.29537963867188 20.23662567138672 197.52627563476562 42.305545806884766 201.252197265625 26.728351593017578" stroke-width="2.0" fill="none" stroke="rgb(0, 0, 0)" stroke-opacity="1" stroke-linecap="round" stroke-linejoin="round"/>
    <path d="M 140.4114990234375 3.566161632537842 C 154.6023712158203 29.593198776245117 143.7996368408203 1.7879819869995117 142.78298950195312 -6.816784858703613 C 170.5535888671875 4.860515117645264 176.21629333496094 -11.739409446716309 138.92184448242188 10.161613464355469" stroke-width="2.0" fill="none" stroke="rgb(0, 0, 0)" stroke-opacity="1" stroke-linecap="round" stroke-linejoin="round"/>
    <path d="M 57.24839782714844 84.8493881225586 C 62.38784408569336 75.0876693725586 40.1070556640625 64.85206604003906 45.630104064941406 87.80755615234375" stroke-width="2.0" fill="none" stroke="rgb(0, 0, 0)" stroke-opacity="1" stroke-linecap="round" stroke-linejoin="round"/>
    <path d="M 196.81753540039062 193.0187530517578 C 164.99485778808594 185.36093139648438 217.23080444335938 197.409912109375 224.19432067871094 175.46888732910156 C 218.90585327148438 198.52496337890625 221.5262908935547 196.57696533203125 227.45159912109375 176.3267822265625" stroke-width="2.0" fill="none" stroke="rgb(0, 0, 0)" stroke-opacity="1" stroke-linecap="round" stroke-linejoin="round"/>
    <path d="M 101.19622039794922 47.57637405395508 C 73.72421264648438 47.04981994628906 111.55821228027344 67.35297393798828 88.40805053710938 26.661128997802734 C 91.30963134765625 58.95194625854492 110.89363098144531 47.7645378112793 113.69137573242188 63.79060745239258 C 121.56472778320312 56.90626525878906 119.45951843261719 53.54887390136719 132.87973022460938 56.5500602722168" stroke-width="2.0" fill="none" stroke="rgb(0, 0, 0)" stroke-opacity="1" stroke-linecap="round" stroke-linejoin="round"/>
    <path d="M 176.18601989746094 173.53683471679688 C 172.92530822753906 179.76707458496094 173.68670654296875 180.21722412109375 167.1568603515625 146.6302947998047 C 197.01222229003906 147.49179077148438 148.244140625 170.01295471191406 177.37777709960938 184.2071075439453 C 147.15013122558594 159.53048706054688 199.37103271484375 161.7598114013672 174.93600463867188 143.6200714111328" stroke-width="2.0" fill="none" stroke="rgb(0, 0, 0)" stroke-opacity="1" stroke-linecap="round" stroke-linejoin="round"/>
    <path d="M 198.48399353027344 111.34434509277344 C 195.13365173339844 124.37162017822266 196.83555603027344 105.15904998779297 207.30332946777344 113.50296783447266 C 179.3354034423828 113.97513580322266 210.20167541503906 87.35455322265625 196.0614776611328 116.93426513671875 C 209.6134490966797 133.36990356445312 155.6052703857422 118.69132232666016 189.62586975097656 120.76258087158203" stroke-width="2.0" fill="none" stroke="rgb(0, 0, 0)" stroke-opacity="1" stroke-linecap="round" stroke-linejoin="round"/>
    <path d="M 18.160625457763672 234.49346923828125 C 13.788437843322754 209.52914428710938 8.892974853515625 183.11798095703125 50.799259185791016 197.34422302246094 C 43.81583786010742 192.03933715820312 106.5445556640625 175.33865356445312 97.64862060546875 221.58189392089844 C 65.23908233642578 193.1626739501953 52.22039794921875 199.51547241210938 52.152286529541016 233.08465576171875" stroke-width="2.0" fill="none" stroke="rgb(0, 0, 0)" stroke-opacity="1" stroke-linecap="round" stroke-linejoin="round"/>
    <path d="M 33.96002960205078 25.79384994506836 C 36.170982360839844 0.29130780696868896 30.385656356811523 20.421297073364258 32.69455337524414 24.19413948059082 C -3.158818006515503 9.844813346862793 30.74256134033203 6.613528728485107 16.116857528686523 16.602384567260742" stroke-width="2.0" fill="none" stroke="rgb(0, 0, 0)" stroke-opacity="1" stroke-linecap="round" stroke-linejoin="round"/>
    <path d="M 101.03097534179688 62.094112396240234 C 95.37294006347656 71.23858642578125 116.95448303222656 69.7852783203125 105.70144653320312 51.73937225341797" stroke-width="2.0" fill="none" stroke="rgb(0, 0, 0)" stroke-opacity="1" stroke-linecap="round" stroke-linejoin="round"/>
    <path d="M 216.78692626953125 153.2223358154297 C 226.49441528320312 138.9073028564453 179.90884399414062 155.76199340820312 201.8102569580078 139.26214599609375" stroke-width="2.0" fill="none" stroke="rgb(0, 0, 0)" stroke-opacity="1" stroke-linecap="round" stroke-linejoin="round"/>
    <path d="M 88.29813385009766 76.80887603759766 C 53.625099182128906 69.482177734375 34.0696907043457 75.08235931396484 76.39766693115234 65.59159088134766 C 32.421905517578125 63.57848358154297 -15.034745216369629 70.8977279663086 19.645185470581055 50.85940933227539" stroke-width="2.0" fill="none" stroke="rgb(0, 0, 0)" stroke-opacity="1" stroke-linecap="round" stroke-linejoin="round"/>
    <path d="M 118.06810760498047 178.98281860351562 C 103.16629028320312 169.51808166503906 98.65773010253906 163.86428833007812 124.31446838378906 164.8343963623047 C 112.62617492675781 185.54275512695312 97.47923278808594 175.1829376220703 105.03013610839844 168.359375" stroke-width="2.0" fill="none" stroke="rgb(0, 0, 0)" stroke-opacity="1" stroke-linecap="round" stroke-linejoin="round"/>
    <path d="M 57.66327667236328 130.75582885742188 C 69.3414306640625 136.2529754638672 48.15444564819336 136.08935546875 10.236603736877441 139.18356323242188 C 50.644683837890625 151.45550537109375 40.57258987426758 143.11448669433594 28.49244499206543 131.78932189941406 C 52.92029571533203 128.79159545898438 82.7539291381836 114.45559692382812 75.52293395996094 131.9048309326172" stroke-width="2.0" fill="none" stroke="rgb(0, 0, 0)" stroke-opacity="1" stroke-linecap="round" stroke-linejoin="round"/>
    <path d="M 211.35179138183594 65.21370697021484 C 196.32382202148438 57.15925979614258 236.30215454101562 77.42188262939453 198.23202514648438 83.40284729003906" stroke-width="2.0" fill="none" stroke="rgb(0, 0, 0)" stroke-opacity="1" stroke-linecap="round" stroke-linejoin="round"/>
    <path d="M 220.14910888671875 165.83160400390625 C 204.78343200683594 141.11737060546875 239.30233764648438 179.8109893798828 222.32644653320312 160.1845245361328 C 226.589111328125 149.34051513671875 228.92214965820312 160.88754272460938 239.46005249023438 161.38929748535156" stroke-width="2.0" fill="none" stroke="rgb(0, 0, 0)" stroke-opacity="1" stroke-linecap="round" stroke-linejoin="round"/>
    <path d="M 70.61808776855469 26.64609146118164 C 47.3145751953125 38.58135986328125 51.5432014465332 65.30477905273438 57.05874252319336 53.56631088256836 C 75.78923797607422 63.96976089477539 78.66521453857422 65.24365997314453 49.093082427978516 68.77778625488281 C 108.73834991455078 81.59622955322266 105.6880111694336 87.370361328125 104.02113342285156 62.71842956542969" stroke-width="2.0" fill="none" stroke="rgb(0, 0, 0)" stroke-opacity="1" stroke-linecap="round" stroke-linejoin="round"/>
    <path d="M 198.87457275390625 208.8352508544922 C 231.843505859375 224.29928588867188 185.2542724609375 222.0704803466797 207.75013732910156 224.00575256347656 C 212.033203125 225.29925537109375 208.61477661132812 237.6687774658203 213.4959259033203 246.7091064453125 C 211.38330078125 241.70462036132812 213.4673614501953 235.99642944335938 205.95440673828125 234.4213104248047" stroke-width="2.0" fill="none" stroke="rgb(0, 0, 0)" stroke-opacity="1" stroke-linecap="round" stroke-linejoin="round"/>
    <path d="M 181.47500610351562 44.84880828857422 C 178.22019958496094 36.37103271484375 147.45225524902344 49.03135681152344 177.99905395507812 41.74313735961914" stroke-width="2.0" fill="none" stroke="rgb(0, 0, 0)" stroke-opacity="1" stroke-linecap="round" stroke-linejoin="round"/>
    <path d="M 18.611572265625 141.67333984375 C 38.11542892456055 144.1759490966797 3.5042881965637207 140.36050415039062 15.60031795501709 136.39263916015625 C -0.8999081254005432 123.99684143066406 -4.141576766967773 144.79034423828125 2.652255058288574 135.4629669189453" stroke-width="2.0" fill="none" stroke="rgb(0, 0, 0)" stroke-opacity="1" stroke-linecap="round" stroke-linejoin="round"/>
    <path d="M 204.32269287109375 53.883113861083984 C 213.72879028320312 83.60676574707031 220.4158477783203 86.28823852539062 170.2985382080078 86.73945617675781 C 203.6546173095703 90.19476318359375 180.877685546875 67.95225524902344 213.73362731933594 78.3521728515625" stroke-width="2.0" fill="none" stroke="rgb(0, 0, 0)" stroke-opacity="1" stroke-linecap="round" stroke-linejoin="round"/>
    <path d="M 118.25228881835938 201.38990783691406 C 112.342529296875 177.02720642089844 115.8939208984375 214.50514221191406 136.95204162597656 190.42320251464844 C 151.38998413085938 210.70599365234375 128.00411987304688 183.39077758789062 127.17574310302734 208.01893615722656" stroke-width="2.0" fill="none" stroke="rgb(0, 0, 0)" stroke-opacity="1" stroke-linecap="round" stroke-linejoin="round"/>
    <path d="M 6.313019752502441 205.440673828125 C 38.569923400878906 218.5626678466797 3.529324769973755 232.07025146484375 -0.17689871788024902 216.28512573242188" stroke-width="2.0" fill="none" stroke="rgb(0, 0, 0)" stroke-opacity="1" stroke-linecap="round" stroke-linejoin="round"/>
    <path d="M 106.51658630371094 157.76551818847656 C 111.99047088623047 162.0539093017578 129.51513671875 130.4860076904297 103.03355407714844 120.99079132080078 C 103.0845947265625 117.78608703613281 113.12734985351562 145.30059814453125 101.03174591064453 123.99990844726562" stroke-width="2.0" fill="none" stroke="rgb(0, 0, 0)" stroke-opacity="1" stroke-linecap="round" stroke-linejoin="round"/>
    <path d="M 92.86386108398438 197.66720581054688 C 103.87622833251953 199.0231475830078 127.23637390136719 182.733154296875 119.66725158691406 221.84664916992188" stroke-width="2.0" fill="none" stroke="rgb(0, 0, 0)" stroke-opacity="1" stroke-linecap="round" stroke-linejoin="round"/>
    <path d="M 202.94273376464844 154.2752685546875 C 208.40972900390625 122.2605209350586 178.2349395751953 135.0464630126953 203.48204040527344 135.4663848876953" stroke-width="2.0" fill="none" stroke="rgb(0, 0, 0)" stroke-opacity="1" stroke-linecap="round" stroke-linejoin="round"/>
    <path d="M 75.84967041015625 84.88555145263672 C 76.9723129272461 101.56522369384766 90.97911834716797 65.3524398803711 51.83403396606445 75.18795013427734 C 66.22724151611328 63.72647476196289 62.06603240966797 70.67570495605469 59.55299758911133 41.47331237792969 C 38.923152923583984 61.27888870239258 71.76648712158203 51.0692253112793 58.318603515625 61.288299560546875" stroke-width="2.0" fill="none" stroke="rgb(0, 0, 0)" stroke-opacity="1" stroke-linecap="round" stroke-linejoin="round"/>
    <path d="M 134.47303771972656 178.11129760742188 C 161.6009063720703 194.9754638671875 157.0286865234375 160.8130340576172 123.13835906982422 180.01173400878906 C 148.1265869140625 183.61619567871094 131.0345916748047 165.862548828125 129.91677856445312 210.03939819335938" stroke-width="2.0" fill="none" stroke="rgb(0, 0, 0)" stroke-opacity="1" stroke-linecap="round" stroke-linejoin="round"/>
    <path d="M 29.742956161499023 27.641746520996094 C 46.65428924560547 30.451282501220703 35.823612213134766 17.304574966430664 21.747806549072266 20.001117706298828" stroke-width="2.0" fill="none" stroke="rgb(0, 0, 0)" stroke-opacity="1" stroke-linecap="round" stroke-linejoin="round"/>
    <path d="M 142.02073669433594 186.43580627441406 C 98.611572265625 183.63995361328125 118.59823608398438 188.908935546875 134.52243041992188 200.80728149414062 C 143.9175567626953 191.08126831054688 122.3189926147461 168.9354248046875 116.1954345703125 200.1433868408203" stroke-width="2.0" fill="none" stroke="rgb(0, 0, 0)" stroke-opacity="1" stroke-linecap="round" stroke-linejoin="round"/>
    <path d="M 137.67410278320312 161.90138244628906 C 140.85520935058594 137.79071044921875 126.22792053222656 165.2064208984375 109.57117462158203 137.31143188476562 C 161.1267852783203 157.1654510498047 137.30166625976562 105.01789093017578 138.76763916015625 125.39646911621094" stroke-width="2.0" fill="none" stroke="rgb(0, 0, 0)" stroke-opacity="1" stroke-linecap="round" stroke-linejoin="round"/>
    <path d="M 178.7442169189453 3.949464797973633 C 182.3065948486328 -4.812809467315674 191.32594299316406 15.373367309570312 166.93048095703125 0.6643367409706116" stroke-width="2.0" fill="none" stroke="rgb(0, 0, 0)" stroke-opacity="1" stroke-linecap="round" stroke-linejoin="round"/>
    <path d="M 200.5602264404297 14.28480052947998 C 216.2379913330078 -20.670108795166016 218.7168731689453 6.256967067718506 227.2306671142578 12.210671424865723 C 220.5376434326172 -12.173123359680176 199.96835327148438 11.982172966003418 203.22457885742188 -0.5159310698509216 C 202.05743408203125 -19.32719612121582 197.54051208496094 -18.665605545043945 207.39031982421875 -28.09995460510254" stroke-width="2.0" fill="none" stroke="rgb(0, 0, 0)" stroke-opacity="1" stroke-linecap="round" stroke-linejoin="round"/>
    <path d="M 24.91728973388672 150.87794494628906 C 34.570682525634766 141.4403839111328 4.033458709716797 142.16786193847656 29.504838943481445 147.5198211669922 C 20.247920989990234 120.65621185302734 42.56307601928711 112.15005493164062 43.104915618896484 134.9913330078125 C 20.06790542602539 135.09982299804688 39.57782745361328 150.8530731201172 46.71674346923828 132.61614990234375" stroke-width="2.0" fill="none" stroke="rgb(0, 0, 0)" stroke-opacity="1" stroke-linecap="round" stroke-linejoin="round"/>
    <path d="M 198.65370178222656 166.27330017089844 C 204.6875457763672 176.97361755371094 206.76034545898438 150.60000610351562 191.76123046875 175.5986328125 C 191.18235778808594 147.99697875976562 225.69097900390625 155.99501037597656 235.1811981201172 166.7083282470703 C 231.30938720703125 166.08937072753906 239.29893493652344 172.09547424316406 246.4176025390625 164.63121032714844" stroke-width="2.0" fill="none" stroke="rgb(0, 0, 0)" stroke-opacity="1" stroke-linecap="round" stroke-linejoin="round"/>
    <path d="M 137.35548400878906 77.40426635742188 C 97.81096649169922 62.28140640258789 120.56658935546875 86.23419189453125 119.01229095458984 69.99601745605469 C 111.5064697265625 65.58071899414062 132.20843505859375 66.1653060913086 100.6465072631836 65.92598724365234" stroke-width="2.0" fill="none" stroke="rgb(0, 0, 0)" stroke-opacity="1" stroke-linecap="round" stroke-linejoin="round"/>
    <path d="M 208.3258819580078 110.0627212524414 C 225.24436950683594 108.15267181396484 191.84080505371094 81.84359741210938 206.06629943847656 121.15668487548828" stroke-width="2.0" fill="none" stroke="rgb(0, 0, 0)" stroke-opacity="1" stroke-linecap="round" stroke-linejoin="round"/>
    <path d="M 177.756591796875 118.71978759765625 C 210.96376037597656 121.50975036621094 203.22987365722656 93.87191772460938 195.00216674804688 123.20838165283203" stroke-width="2.0" fill="none" stroke="rgb(0, 0, 0)" stroke-opacity="1" stroke-linecap="round" stroke-linejoin="round"/>
    <path d="M 134.66392517089844 123.87984466552734 C 129.60623168945312 155.8907012939453 117.2735595703125 148.32696533203125 136.7234649658203 122.9118881225586 C 144.52801513671875 140.0314178466797 147.25518798828125 139.94329833984375 127.71469116210938 135.10911560058594 C 152.174560546875 130.52481079101562 157.57786560058594 138.6099853515625 116.9106674194336 137.63014221191406" stroke-width="2.0" fill="none" stroke="rgb(0, 0, 0)" stroke-opacity="1" stroke-linecap="round" stroke-linejoin="round"/>
    <path d="M 144.21286010742188 83.26071166992188 C 157.88548278808594 85.51725769042969 169.01080322265625 94.90633392333984 186.64476013183594 93.99591064453125 C 163.810791015625 74.46443176269531 117.95500183105469 93.02969360351562 155.6360626220703 112.9005355834961 C 165.8696746826172 130.55682373046875 117.30878448486328 116.99964904785156 152.13108825683594 118.81145477294922" stroke-width="2.0" fill="none" stroke="rgb(0, 0, 0)" stroke-opacity="1" stroke-linecap="round" stroke-linejoin="round"/>
    <path d="M 66.44365692138672 23.067243576049805 C 49.248069763183594 19.573638916015625 79.81604766845703 9.592487335205078 71.53112030029297 15.853460311889648 C 81.2849349975586 22.803478240966797 64.3729248046875 -3.862077474594116 58.316715240478516 19.13652992248535 C 65.82247924804688 17.90727996826172 80.29422760009766 17.09305191040039 59.6613883972168 20.35639762878418" stroke-width="2.0" fill="none" stroke="rgb(0, 0, 0)" stroke-opacity="1" stroke-linecap="round" stroke-linejoin="round"/>
    <path d="M 75.1718978881836 162.62362670898438 C 79.19053649902344 193.64796447753906 95.63014221191406 159.8153076171875 69.77433776855469 176.4326934814453 C 80.30908203125 199.24732971191406 104.43907165527344 191.4401397705078 102.03175354003906 202.74462890625 C 112.84921264648438 208.56277465820312 84.51509857177734 214.25875854492188 93.72433471679688 227.64561462402344" stroke-width="2.0" fill="none" stroke="rgb(0, 0, 0)" stroke-opacity="1" stroke-linecap="round" stroke-linejoin="round"/>
    <path d="M 1.3912907838821411 186.6448974609375 C 2.8664114475250244 151.93235778808594 20.982866287231445 157.29241943359375 34.93209457397461 173.7298583984375 C 20.365158081054688 159.0648956298828 4.298812389373779 183.2817840576172 45.801963806152344 151.80886840820312 C 10.825164794921875 140.46722412109375 16.661388397216797 170.2893829345703 29.61945152282715 165.91976928710938" stroke-width="2.0" fill="none" stroke="rgb(0, 0, 0)" stroke-opacity="1" stroke-linecap="round" stroke-linejoin="round"/>
    <path d="M 195.82177734375 94.73641204833984 C 210.09490966796875 110.03866577148438 210.4788055419922 100.71730041503906 192.63528442382812 96.93456268310547 C 216.25143432617188 94.26130676269531 216.12034606933594 115.1047134399414 195.89561462402344 107.64288330078125" stroke-width="2.0" fill="none" stroke="rgb(0, 0, 0)" stroke-opacity="1" stroke-linecap="round" stroke-linejoin="round"/>
    <path d="M 21.75729751586914 57.94154357910156 C 23.65928840637207 39.008602142333984 54.15367889404297 43.70161819458008 29.238908767700195 43.02356719970703 C 25.008392333984375 49.496063232421875 41.55049514770508 36.13424301147461 25.354310989379883 42.877113342285156 C 33.15285873413086 49.65116500854492 18.350717544555664 41.330684661865234 25.218952178955078 46.48350524902344" stroke-width="2.0" fill="none" stroke="rgb(0, 0, 0)" stroke-opacity="1" stroke-linecap="round" stroke-linejoin="round"/>
    <path d="M 125.75553894042969 212.82443237304688 C 128.9392547607422 265.14202880859375 122.56729125976562 248.2881317138672 124.24230194091797 187.6051788330078 C 113.67765808105469 212.33538818359375 131.91050720214844 198.87074279785156 114.95784759521484 190.32681274414062 C 112.7781753540039 197.97576904296875 114.57500457763672 205.70362854003906 141.86831665039062 187.00965881347656" stroke-width="2.0" fill="none" stroke="rgb(0, 0, 0)" stroke-opacity="1" stroke-linecap="round" stroke-linejoin="round"/>
    <path d="M 118.0058364868164 73.3055191040039 C 145.99745178222656 83.92628479003906 121.62589263916016 118.48429870605469 96.87415313720703 84.82783508300781 C 65.87220764160156 85.54828643798828 78.48161315917969 82.76079559326172 109.19004821777344 98.78679656982422" stroke-width="2.0" fill="none" stroke="rgb(0, 0, 0)" stroke-opacity="1" stroke-linecap="round" stroke-linejoin="round"/>
    <path d="M 59.07678985595703 135.8811492919922 C 41.661170959472656 175.76431274414062 65.6798095703125 151.00729370117188 76.99398803710938 163.84744262695312 C 65.825927734375 186.06138610839844 61.012454986572266 199.6371307373047 119.14454650878906 173.73410034179688 C 103.51205444335938 130.86585998535156 77.08515930175781 162.1542510986328 82.07589721679688 145.21670532226562" stroke-width="2.0" fill="none" stroke="rgb(0, 0, 0)" stroke-opacity="1" stroke-linecap="round" stroke-linejoin="round"/>
    <path d="M 45.0828742980957 27.638671875 C 36.8312873840332 37.176513671875 42.48958206176758 20.2434024810791 75.48136138916016 36.33338928222656 C 53.19465637207031 10.575651168823242 40.83189392089844 6.727827072143555 51.15683364868164 37.35987091064453 C 40.98334503173828 21.460216522216797 41.483924865722656 -0.29466986656188965 69.53729248046875 17.921369552612305" stroke-width="2.0" fill="none" stroke="rgb(0, 0, 0)" stroke-opacity="1" stroke-linecap="round" stroke-linejoin="round"/>
    <path d="M 35.05391311645508 96.01856231689453 C 67.36292266845703 96.28338623046875 52.70198059082031 118.11660766601562 46.73725891113281 108.70257568359375" stroke-width="2.0" fill="none" stroke="rgb(0, 0, 0)" stroke-opacity="1" stroke-linecap="round" stroke-linejoin="round"/>
    <path d="M 142.39442443847656 170.77853393554688 C 147.24462890625 163.37860107421875 133.70668029785156 164.6011505126953 140.68238830566406 170.6108856201172" stroke-width="2.0" fill="none" stroke="rgb(0, 0, 0)" stroke-opacity="1" stroke-linecap="round" stroke-linejoin="round"/>
    <path d="M 116.76111602783203 110.03070831298828 C 200.19442749023438 104.73485565185547 187.98765563964844 91.78831481933594 139.35675048828125 97.33369445800781 C 127.69185638427734 81.72611236572266 160.80722045898438 88.25605773925781 141.0205078125 110.83163452148438" stroke-width="2.0" fill="none" stroke="rgb(0, 0, 0)" stroke-opacity="1" stroke-linecap="round" stroke-linejoin="round"/>
    <path d="M 88.14649963378906 -0.5181529521942139 C 114.19730377197266 22.012062072753906 75.26539611816406 7.350773811340332 106.69947814941406 15.466132164001465" stroke-width="2.0" fill="none" stroke="rgb(0, 0, 0)" stroke-opacity="1" stroke-linecap="round" stroke-linejoin="round"/>
    <path d="M 5.9998369216918945 5.206841945648193 C 14.734195709228516 -5.558311462402344 -10.415910720825195 5.578652858734131 -6.203413009643555 22.569393157958984 C -22.55525016784668 0.4734868109226227 6.328338146209717 1.5406931638717651 -4.942383766174316 -1.788257122039795" stroke-width="2.0" fill="none" stroke="rgb(0, 0, 0)" stroke-opacity="1" stroke-linecap="round" stroke-linejoin="round"/>
    <path d="M 206.06106567382812 218.16050720214844 C 194.5493927001953 192.60243225097656 185.3784637451172 200.9891357421875 190.2635040283203 205.0498809814453" stroke-width="2.0" fill="none" stroke="rgb(0, 0, 0)" stroke-opacity="1" stroke-linecap="round" stroke-linejoin="round"/>
    <path d="M 230.70687866210938 17.20260238647461 C 220.71560668945312 28.47340202331543 239.20924377441406 31.91718292236328 226.64515686035156 55.06404495239258 C 223.650146484375 24.60747718811035 231.57598876953125 13.382577896118164 190.96902465820312 22.024625778198242" stroke-width="2.0" fill="none" stroke="rgb(0, 0, 0)" stroke-opacity="1" stroke-linecap="round" stroke-linejoin="round"/>
    <path d="M 93.74823760986328 191.59732055664062 C 112.56256866455078 200.57261657714844 109.84314727783203 217.9111785888672 95.5365219116211 210.5231170654297" stroke-width="2.0" fill="none" stroke="rgb(0, 0, 0)" stroke-opacity="1" stroke-linecap="round" stroke-linejoin="round"/>
    <path d="M 218.32955932617188 57.529502868652344 C 235.77294921875 36.81476974487305 219.150634765625 9.700677871704102 186.43637084960938 17.667076110839844 C 202.51390075683594 28.852399826049805 204.48135375976562 5.926977634429932 193.6436767578125 5.703007221221924 C 182.11338806152344 8.594306945800781 212.0773162841797 27.31513214111328 188.6822052001953 21.603294372558594" stroke-width="2.0" fill="none" stroke="rgb(0, 0, 0)" stroke-opacity="1" stroke-linecap="round" stroke-linejoin="round"/>
    <path d="M 79.99390411376953 188.8903350830078 C 91.81771087646484 198.504638671875 69.91366577148438 176.5154266357422 93.01313018798828 196.5058135986328 C 87.25941467285156 203.43138122558594 83.86758422851562 195.25283813476562 90.46153259277344 192.16635131835938" stroke-width="2.0" fill="none" stroke="rgb(0, 0, 0)" stroke-opacity="1" stroke-linecap="round" stroke-linejoin="round"/>
    <path d="M 44.70816421508789 216.5955047607422 C 44.26095962524414 236.1873779296875 92.61063385009766 273.0714111328125 88.98936462402344 216.0497589111328" stroke-width="2.0" fill="none" stroke="rgb(0, 0, 0)" stroke-opacity="1" stroke-linecap="round" stroke-linejoin="round"/>
    <path d="M 63.94123840332031 28.740455627441406 C 35.69623947143555 26.478994369506836 41.8238639831543 33.641597747802734 91.69947814941406 32.245704650878906" stroke-width="2.0" fill="none" stroke="rgb(0, 0, 0)" stroke-opacity="1" stroke-linecap="round" stroke-linejoin="round"/>
    <path d="M 140.9334716796875 79.75739288330078 C 147.75047302246094 72.95179748535156 137.49740600585938 97.14517211914062 150.49879455566406 82.41061401367188 C 173.87704467773438 81.44302368164062 156.207763671875 114.41373443603516 164.33511352539062 80.78119659423828" stroke-width="2.0" fill="none" stroke="rgb(0, 0, 0)" stroke-opacity="1" stroke-linecap="round" stroke-linejoin="round"/>
    <path d="M 131.08506774902344 124.2646713256836 C 148.6363983154297 110.39807891845703 112.00039672851562 118.89745330810547 146.1611328125 125.06376647949219" stroke-width="2.0" fill="none" stroke="rgb(0, 0, 0)" stroke-opacity="1" stroke-linecap="round" stroke-linejoin="round"/>
    <path d="M 233.5523223876953 187.26707458496094 C 215.88047790527344 185.3389892578125 224.5439910888672 183.3343505859375 226.86404418945312 201.52450561523438 C 212.83677673339844 168.7910614013672 225.99134826660156 177.33468627929688 235.00616455078125 204.121337890625 C 222.45167541503906 193.77606201171875 213.3950653076172 204.31643676757812 230.93130493164062 208.857177734375" stroke-width="2.0" fill="none" stroke="rgb(0, 0, 0)" stroke-opacity="1" stroke-linecap="round" stroke-linejoin="round"/>
    <path d="M 176.54408264160156 119.237060546875 C 193.09442138671875 110.46060180664062 209.70562744140625 128.1666717529297 170.50680541992188 120.70270538330078 C 149.585205078125 136.1254425048828 209.13858032226562 142.5574951171875 235.34510803222656 131.6192169189453 C 216.69522094726562 139.65684509277344 166.7554473876953 139.57444763183594 170.5663604736328 127.02304077148438" stroke-width="2.0" fill="none" stroke="rgb(0, 0, 0)" stroke-opacity="1" stroke-linecap="round" stroke-linejoin="round"/>
    <path d="M 119.39039611816406 61.152442932128906 C 125.27325439453125 57.86777877807617 129.98800659179688 79.27932739257812 105.18737030029297 56.491607666015625 C 104.28175354003906 55.05799865722656 126.30013275146484 50.869544982910156 129.91343688964844 52.13151550292969 C 134.69635009765625 62.837547302246094 142.16334533691406 48.8614387512207 128.4822998046875 49.777835845947266" stroke-width="2.0" fill="none" stroke="rgb(0, 0, 0)" stroke-opacity="1" stroke-linecap="round" stroke-linejoin="round"/>
    <path d="M 63.58204650878906 136.97801208496094 C 87.31368255615234 140.27206420898438 44.34408187866211 142.89291381835938 50.7946662902832 141.0628662109375 C 58.107749938964844 171.15762329101562 61.54024124145508 153.8065948486328 60.967533111572266 130.5233612060547 C 72.13338470458984 160.930419921875 67.62281036376953 148.0465545654297 66.05243682861328 135.1263427734375" stroke-width="2.0" fill="none" stroke="rgb(0, 0, 0)" stroke-opacity="1" stroke-linecap="round" stroke-linejoin="round"/>
    <path d="M 24.24878692626953 67.91477966308594 C 53.42927551269531 67.1019515991211 33.7965087890625 92.40347290039062 51.86127471923828 99.35328674316406 C 59.941001892089844 81.44535064697266 80.84622192382812 106.40074920654297 54.24716567993164 100.17863464355469" stroke-width="2.0" fill="none" stroke="rgb(0, 0, 0)" stroke-opacity="1" stroke-linecap="round" stroke-linejoin="round"/>
    <path d="M 119.08555603027344 94.59429168701172 C 74.65796661376953 87.0337905883789 50.69712829589844 106.0100326538086 111.53459930419922 93.21702575683594" stroke-width="2.0" fill="none" stroke="rgb(0, 0, 0)" stroke-opacity="1" stroke-linecap="round" stroke-linejoin="round"/>
    <path d="M 171.861083984375 134.3387451171875 C 163.13438415527344 154.7653350830078 199.58346557617188 125.0169448852539 139.70457458496094 133.232177734375 C 153.45973205566406 151.0134735107422 158.5681915283203 110.50504302978516 133.58460998535156 130.6613006591797" stroke-width="2.0" fill="none" stroke="rgb(0, 0, 0)" stroke-opacity="1" stroke-linecap="round" stroke-linejoin="round"/>
    <path d="M 224.6283721923828 13.832419395446777 C 219.7230987548828 34.44248962402344 202.4053955078125 7.0182366371154785 202.3169708251953 20.66192054748535 C 195.50982666015625 32.36412811279297 168.57264709472656 12.375290870666504 211.3330841064453 6.613846302032471" stroke-width="2.0" fill="none" stroke="rgb(0, 0, 0)" stroke-opacity="1" stroke-linecap="round" stroke-linejoin="round"/>
    <path d="M 168.1531982421875 173.81129455566406 C 192.1573028564453 176.69102478027344 146.3123321533203 148.29112243652344 174.24424743652344 144.73179626464844" stroke-width="2.0" fill="none" stroke="rgb(0, 0, 0)" stroke-opacity="1" stroke-linecap="round" stroke-linejoin="round"/>
    <path d="M 211.97836303710938 69.35074615478516 C 197.04891967773438 53.95979309082031 204.1481475830078 77.46851348876953 206.49542236328125 64.91293334960938" stroke-width="2.0" fill="none" stroke="rgb(0, 0, 0)" stroke-opacity="1" stroke-linecap="round" stroke-linejoin="round"/>
    <path d="M 124.01472473144531 28.705827713012695 C 113.83842468261719 35.07600784301758 176.62173461914062 38.774024963378906 157.51988220214844 11.844465255737305 C 105.68086242675781 -8.336136817932129 192.39073181152344 5.556591987609863 165.50328063964844 5.645004749298096" stroke-width="2.0" fill="none" stroke="rgb(0, 0, 0)" stroke-opacity="1" stroke-linecap="round" stroke-linejoin="round"/>
    <path d="M 104.3826904296875 59.45741653442383 C 144.80856323242188 64.98472595214844 93.1793441772461 70.22337341308594 117.32528686523438 56.00722122192383" stroke-width="2.0" fill="none" stroke="rgb(0, 0, 0)" stroke-opacity="1" stroke-linecap="round" stroke-linejoin="round"/>
    <path d="M 70.86502075195312 41.19227981567383 C 59.19184494018555 18.84546661376953 48.402313232421875 3.177765130996704 49.58134460449219 32.700138092041016 C 52.275604248046875 13.9114351272583 47.12126922607422 21.423871994018555 20.588315963745117 16.562978744506836 C 37.989131927490234 -12.72813606262207 50.117591857910156 18.985692977905273 24.047428131103516 5.385354042053223" stroke-width="2.0" fill="none" stroke="rgb(0, 0, 0)" stroke-opacity="1" stroke-linecap="round" stroke-linejoin="round"/>
    <path d="M 226.8657684326172 71.79956817626953 C 216.11431884765625 47.80435562133789 226.79638671875 55.91402053833008 242.5227813720703 28.179054260253906" stroke-width="2.0" fill="none" stroke="rgb(0, 0, 0)" stroke-opacity="1" stroke-linecap="round" stroke-linejoin="round"/>
    <path d="M -2.9299254417419434 142.00123596191406 C 0.18192656338214874 161.12020874023438 12.787419319152832 185.40365600585938 3.7477123737335205 179.21630859375 C -2.8650131225585938 174.70166015625 1.174506425857544 181.44854736328125 3.747126340866089 202.57315063476562 C -20.648574829101562 217.70094299316406 -1.9480773210525513 197.23095703125 -4.176268577575684 199.340087890625" stroke-width="2.0" fill="none" stroke="rgb(0, 0, 0)" stroke-opacity="1" stroke-linecap="round" stroke-linejoin="round"/>
    <path d="M 103.41246032714844 193.95706176757812 C 98.96366882324219 175.01792907714844 123.80219268798828 180.48565673828125 132.29429626464844 188.40390014648438 C 136.89059448242188 174.018798828125 119.56929016113281 168.53329467773438 105.26530456542969 174.1290283203125" stroke-width="2.0" fill="none" stroke="rgb(0, 0, 0)" stroke-opacity="1" stroke-linecap="round" stroke-linejoin="round"/>
    <path d="M 173.19082641601562 84.20368194580078 C 173.46466064453125 99.24630737304688 193.20042419433594 67.82006072998047 152.14830017089844 88.26287841796875 C 150.6700439453125 70.70574951171875 199.264892578125 71.19242858886719 198.05581665039062 90.19111633300781 C 182.05908203125 72.19937896728516 213.99208068847656 69.4718246459961 203.84622192382812 91.09857940673828" stroke-width="2.0" fill="none" stroke="rgb(0, 0, 0)" stroke-opacity="1" stroke-linecap="round" stroke-linejoin="round"/>
    <path d="M 172.3436279296875 216.384765625 C 160.86492919921875 201.69813537597656 154.03897094726562 181.3734893798828 166.650146484375 182.38973999023438 C 181.408447265625 205.80447387695312 161.73989868164062 192.8788604736328 157.69891357421875 203.1544189453125" stroke-width="2.0" fill="none" stroke="rgb(0, 0, 0)" stroke-opacity="1" stroke-linecap="round" stroke-linejoin="round"/>
    <path d="M 145.5711212158203 41.63958740234375 C 156.4042205810547 45.854312896728516 154.63706970214844 24.721107482910156 173.10916137695312 36.22521209716797 C 178.546875 30.005401611328125 156.80557250976562 35.78459167480469 187.57350158691406 37.36017608642578 C 203.13226318359375 51.05788040161133 202.5969696044922 23.356557846069336 190.54518127441406 36.17573547363281" stroke-width="2.0" fill="none" stroke="rgb(0, 0, 0)" stroke-opacity="1" stroke-linecap="round" stroke-linejoin="round"/>
    <path d="M 89.85111236572266 36.3515625 C 28.63519287109375 33.18719482421875 26.47208595275879 25.390094757080078 83.57337951660156 18.473064422607422 C 94.35274505615234 23.092275619506836 68.2873764038086 32.730220794677734 50.920719146728516 41.15701675415039" stroke-width="2.0" fill="none" stroke="rgb(0, 0, 0)" stroke-opacity="1" stroke-linecap="round" stroke-linejoin="round"/>
    <path d="M 86.06379699707031 214.183837890625 C 85.86776733398438 220.877197265625 75.59577941894531 211.01870727539062 102.76663208007812 212.8806610107422" stroke-width="2.0" fill="none" stroke="rgb(0, 0, 0)" stroke-opacity="1" stroke-linecap="round" stroke-linejoin="round"/>
    <path d="M 89.66641998291016 8.69216537475586 C 120.88407135009766 7.41718053817749 78.28054809570312 3.838289976119995 127.64081573486328 0.9488850831985474" stroke-width="2.0" fill="none" stroke="rgb(0, 0, 0)" stroke-opacity="1" stroke-linecap="round" stroke-linejoin="round"/>
    <path d="M 116.530517578125 114.06552124023438 C 109.48841857910156 110.72059631347656 128.5925750732422 121.65380859375 115.69933319091797 96.23543548583984" stroke-width="2.0" fill="none" stroke="rgb(0, 0, 0)" stroke-opacity="1" stroke-linecap="round" stroke-linejoin="round"/>
    <path d="M 196.4498291015625 4.602858066558838 C 217.15635681152344 18.467601776123047 192.52792358398438 -5.0148396492004395 196.3662567138672 9.175416946411133" stroke-width="2.0" fill="none" stroke="rgb(0, 0, 0)" stroke-opacity="1" stroke-linecap="round" stroke-linejoin="round"/>
    <path d="M 93.98818969726562 128.00613403320312 C 94.84051513671875 137.42372131347656 124.28816986083984 115.62850952148438 103.82742309570312 120.86882781982422" stroke-width="2.0" fill="none" stroke="rgb(0, 0, 0)" stroke-opacity="1" stroke-linecap="round" stroke-linejoin="round"/>
    <path d="M 147.1869659423828 129.8081512451172 C 115.76622009277344 133.58277893066406 144.5572052001953 123.9900131225586 110.10379028320312 131.1592254638672" stroke-width="2.0" fill="none" stroke="rgb(0, 0, 0)" stroke-opacity="1" stroke-linecap="round" stroke-linejoin="round"/>
    <path d="M 45.84492492675781 37.621925354003906 C 71.59637451171875 23.320499420166016 83.74018096923828 48.424800872802734 65.3230209350586 43.43443298339844" stroke-width="2.0" fill="none" stroke="rgb(0, 0, 0)" stroke-opacity="1" stroke-linecap="round" stroke-linejoin="round"/>
    <path d="M 24.493343353271484 0.8530958294868469 C 33.52875518798828 14.196858406066895 28.11972999572754 -25.497936248779297 80.96150970458984 -0.8189920783042908 C 74.72901153564453 6.038354873657227 57.14707946777344 -0.12518087029457092 74.17914581298828 0.5338714718818665 C 55.56526184082031 17.779733657836914 76.4261245727539 12.371888160705566 70.52317810058594 20.245925903320312" stroke-width="2.0" fill="none" stroke="rgb(0, 0, 0)" stroke-opacity="1" stroke-linecap="round" stroke-linejoin="round"/>
    <path d="M 63.8076286315918 98.16388702392578 C 32.82117462158203 100.77897644042969 41.88494110107422 96.01289367675781 47.15022277832031 94.38211059570312 C 32.12410354614258 89.55455780029297 28.294681549072266 94.12770080566406 50.51921844482422 96.02542877197266" stroke-width="2.0" fill="none" stroke="rgb(0, 0, 0)" stroke-opacity="1" stroke-linecap="round" stroke-linejoin="round"/>
    <path d="M 36.89945602416992 175.3894805908203 C 40.00745391845703 171.27294921875 28.396686553955078 190.96633911132812 55.06878662109375 201.2275390625" stroke-width="2.0" fill="none" stroke="rgb(0, 0, 0)" stroke-opacity="1" stroke-linecap="round" stroke-linejoin="round"/>
    <path d="M 47.888240814208984 35.61614990234375 C 67.43977355957031 42.90530776977539 56.089210510253906 22.505714416503906 63.4451789855957 30.63713836669922 C 68.66802215576172 6.428100109100342 98.552978515625 31.641603469848633 73.3138656616211 28.58006477355957 C 84.58547973632812 27.998130798339844 112.71320343017578 35.08333969116211 78.9640121459961 24.762191772460938" stroke-width="2.0" fill="none" stroke="rgb(0, 0, 0)" stroke-opacity="1" stroke-linecap="round" stroke-linejoin="round"/>
    <path d="M 122.15130615234375 111.78634643554688 C 150.15467834472656 97.96141052246094 143.43240356445312 98.36833953857422 154.7782440185547 83.82402038574219 C 142.9351348876953 79.29554748535156 116.38970947265625 59.35888671875 162.2396697998047 74.18022918701172" stroke-width="2.0" fill="none" stroke="rgb(0, 0, 0)" stroke-opacity="1" stroke-linecap="round" stroke-linejoin="round"/>
    <path d="M 145.86268615722656 136.6594696044922 C 136.04403686523438 129.11680603027344 112.09456634521484 138.08200073242188 133.06927490234375 126.45811462402344" stroke-width="2.0" fill="none" stroke="rgb(0, 0, 0)" stroke-opacity="1" stroke-linecap="round" stroke-linejoin="round"/>
    <path d="M 52.04241180419922 209.7071990966797 C 50.307533264160156 231.9183349609375 38.877349853515625 200.0378875732422 41.61272048950195 221.39251708984375 C 71.4607925415039 198.943359375 39.875675201416016 210.73435974121094 53.36009979248047 197.96298217773438" stroke-width="2.0" fill="none" stroke="rgb(0, 0, 0)" stroke-opacity="1" stroke-linecap="round" stroke-linejoin="round"/>
    <path d="M 105.63842010498047 137.5494384765625 C 92.54344940185547 133.71533203125 98.13180541992188 156.99851989746094 107.43181610107422 139.1795196533203 C 97.41979217529297 138.11997985839844 116.66394805908203 130.3963165283203 111.55722045898438 153.0641326904297" stroke-width="2.0" fill="none" stroke="rgb(0, 0, 0)" stroke-opacity="1" stroke-linecap="round" stroke-linejoin="round"/>
    <path d="M 140.18618774414062 131.67723083496094 C 109.96334075927734 131.94192504882812 108.99623107910156 137.87631225585938 125.13176727294922 162.87892150878906" stroke-width="2.0" fill="none" stroke="rgb(0, 0, 0)" stroke-opacity="1" stroke-linecap="round" stroke-linejoin="round"/>
    <path d="M 169.11669921875 54.7371940612793 C 133.99667358398438 34.16102981567383 202.5669403076172 38.08509826660156 197.64993286132812 47.38654708862305 C 171.03225708007812 25.981538772583008 186.97314453125 58.500850677490234 153.63571166992188 51.12906265258789 C 166.93728637695312 48.66353988647461 209.0303955078125 28.599498748779297 190.35198974609375 40.66326141357422" stroke-width="2.0" fill="none" stroke="rgb(0, 0, 0)" stroke-opacity="1" stroke-linecap="round" stroke-linejoin="round"/>
    <path d="M 180.3332061767578 122.52423858642578 C 186.81668090820312 148.44740295410156 157.97254943847656 106.85468292236328 195.73367309570312 115.20773315429688" stroke-width="2.0" fill="none" stroke="rgb(0, 0, 0)" stroke-opacity="1" stroke-linecap="round" stroke-linejoin="round"/>
    <path d="M 61.0336799621582 26.94512176513672 C 41.91106414794922 36.41042709350586 52.44269943237305 37.39588165283203 63.4958381652832 33.660667419433594" stroke-width="2.0" fill="none" stroke="rgb(0, 0, 0)" stroke-opacity="1" stroke-linecap="round" stroke-linejoin="round"/>
    <path d="M 84.18870544433594 151.898681640625 C 90.49079895019531 166.39002990722656 94.12055969238281 130.03492736816406 55.25001525878906 133.64117431640625 C 57.34928894042969 130.7004852294922 54.20163345336914 152.91555786132812 50.3261833190918 139.0629119873047 C 83.80941772460938 134.1719207763672 82.60591888427734 158.76768493652344 55.24275207519531 151.67758178710938" stroke-width="2.0" fill="none" stroke="rgb(0, 0, 0)" stroke-opacity="1" stroke-linecap="round" stroke-linejoin="round"/>
    <path d="M 79.29869842529297 90.9248275756836 C 48.11594009399414 78.1958999633789 113.8003921508789 78.54962921142578 79.1029281616211 101.61228942871094 C 85.32625579833984 95.0422592163086 62.62693405151367 113.25081634521484 107.22301483154297 125.23859405517578 C 121.77532958984375 128.25070190429688 112.1045913696289 98.23283386230469 98.12757873535156 128.73692321777344" stroke-width="2.0" fill="none" stroke="rgb(0, 0, 0)" stroke-opacity="1" stroke-linecap="round" stroke-linejoin="round"/>
    <path d="M 44.5630989074707 16.142623901367188 C 40.44053649902344 32.73189163208008 62.516780853271484 9.32724666595459 73.12655639648438 18.520641326904297" stroke-width="2.0" fill="none" stroke="rgb(0, 0, 0)" stroke-opacity="1" stroke-linecap="round" stroke-linejoin="round"/>
    <path d="M 134.85244750976562 80.15795135498047 C 169.4917449951172 60.15679168701172 174.69557189941406 73.01468658447266 144.2643585205078 85.04134368896484" stroke-width="2.0" fill="none" stroke="rgb(0, 0, 0)" stroke-opacity="1" stroke-linecap="round" stroke-linejoin="round"/>
    <path d="M 138.3070526123047 41.74531555175781 C 160.62966918945312 43.85163116455078 123.67730712890625 34.6185302734375 132.0454559326172 52.91070556640625" stroke-width="2.0" fill="none" stroke="rgb(0, 0, 0)" stroke-opacity="1" stroke-linecap="round" stroke-linejoin="round"/>
    <path d="M 36.272186279296875 19.326656341552734 C 30.693744659423828 18.708627700805664 25.840734481811523 39.540016174316406 24.677732467651367 14.671109199523926" stroke-width="2.0" fill="none" stroke="rgb(0, 0, 0)" stroke-opacity="1" stroke-linecap="round" stroke-linejoin="round"/>
    <path d="M 56.05537033081055 67.9107666015625 C 88.01091003417969 75.7394027709961 73.43102264404297 49.238746643066406 56.026695251464844 57.52599334716797" stroke-width="2.0" fill="none" stroke="rgb(0, 0, 0)" stroke-opacity="1" stroke-linecap="round" stroke-linejoin="round"/>
    <path d="M 146.74713134765625 186.0670928955078 C 108.92696380615234 172.80145263671875 133.1024627685547 203.42417907714844 115.1561050415039 193.63299560546875" stroke-width="2.0" fill="none" stroke="rgb(0, 0, 0)" stroke-opacity="1" stroke-linecap="round" stroke-linejoin="round"/>
    <path d="M 108.99198913574219 147.09512329101562 C 119.9022445678711 156.4572296142578 72.18215942382812 163.29942321777344 137.08192443847656 163.2870635986328 C 104.75395202636719 124.9556655883789 89.20365142822266 157.92532348632812 136.67481994628906 148.485595703125" stroke-width="2.0" fill="none" stroke="rgb(0, 0, 0)" stroke-opacity="1" stroke-linecap="round" stroke-linejoin="round"/>
    <path d="M 62.64387512207031 47.43806457519531 C 14.505932807922363 35.12131118774414 4.774113178253174 37.735565185546875 23.63529396057129 61.95460891723633 C 35.14955520629883 59.759117126464844 20.64292335510254 50.496131896972656 26.28697395324707 64.14018249511719" stroke-width="2.0" fill="none" stroke="rgb(0, 0, 0)" stroke-opacity="1" stroke-linecap="round" stroke-linejoin="round"/>
    <path d="M 24.153379440307617 79.03597259521484 C -3.803626298904419 80.5396728515625 26.80062484741211 104.34746551513672 -1.5989195108413696 92.59212493896484" stroke-width="2.0" fill="none" stroke="rgb(0, 0, 0)" stroke-opacity="1" stroke-linecap="round" stroke-linejoin="round"/>
    <path d="M 172.07142639160156 142.2422332763672 C 164.94235229492188 121.81005859375 198.5093536376953 122.50428771972656 217.3791961669922 128.39654541015625" stroke-width="2.0" fill="none" stroke="rgb(0, 0, 0)" stroke-opacity="1" stroke-linecap="round" stroke-linejoin="round"/>
    <path d="M 178.19827270507812 13.047118186950684 C 164.94570922851562 23.787681579589844 190.1881866455078 24.222862243652344 171.92913818359375 29.332365036010742 C 193.2565460205078 33.799285888671875 150.84860229492188 55.542503356933594 171.96539306640625 65.6454086303711 C 171.7532501220703 37.00221252441406 222.04434204101562 59.48200988769531 196.55401611328125 59.935176849365234" stroke-width="2.0" fill="none" stroke="rgb(0, 0, 0)" stroke-opacity="1" stroke-linecap="round" stroke-linejoin="round"/>
    <path d="M 193.80274963378906 27.475086212158203 C 190.3080291748047 20.713008880615234 152.2517547607422 32.98637771606445 176.60765075683594 10.445656776428223 C 169.49588012695312 41.021705627441406 165.4189910888672 5.16002082824707 181.47320556640625 25.553863525390625 C 169.20831298828125 36.36830139160156 193.8439178466797 7.788581848144531 170.6483612060547 21.549983978271484" stroke-width="2.0" fill="none" stroke="rgb(0, 0, 0)" stroke-opacity="1" stroke-linecap="round" stroke-linejoin="round"/>
  </g>
</svg>
