<?xml version="1.0" ?>
<svg xmlns="http://www.w3.org/2000/svg" version="1.1" width="224" height="224">
  <defs/>
  <g>
    <path d="M 36.57921600341797 33.48143768310547 C 50.804840087890625 30.130294799804688 36.6358642578125 32.88578414916992 -5.387578010559082 32.70100784301758 C 48.315582275390625 31.80989646911621 50.0128288269043 49.99876022338867 65.37251281738281 53.28713607788086 C 45.1206169128418 32.096351623535156 30.625118255615234 20.776445388793945 -6.586557388305664 24.46421241760254" stroke-width="2.0" fill="none" stroke="rgb(0, 0, 0)" stroke-opacity="1" stroke-linecap="round" stroke-linejoin="round"/>
    <path d="M 142.5112762451172 74.89859008789062 C 113.63835144042969 59.218284606933594 126.44923400878906 53.83817672729492 102.24027252197266 75.38009643554688 C 121.42098999023438 83.73089599609375 129.0907440185547 101.12495422363281 139.2581024169922 99.43379211425781 C 142.0066680908203 109.20113372802734 127.83955383300781 82.61367797851562 109.49437713623047 75.42447662353516" stroke-width="2.0" fill="none" stroke="rgb(0, 0, 0)" stroke-opacity="1" stroke-linecap="round" stroke-linejoin="round"/>
    <path d="M 154.79429626464844 125.99296569824219 C 170.03280639648438 101.73798370361328 148.26748657226562 102.11255645751953 136.6055145263672 92.47257232666016" stroke-width="2.0" fill="none" stroke="rgb(0, 0, 0)" stroke-opacity="1" stroke-linecap="round" stroke-linejoin="round"/>
    <path d="M 42.80824661254883 37.95219421386719 C 56.70570373535156 30.326045989990234 49.1340217590332 17.05351448059082 51.36370086669922 37.46139907836914" stroke-width="2.0" fill="none" stroke="rgb(0, 0, 0)" stroke-opacity="1" stroke-linecap="round" stroke-linejoin="round"/>
    <path d="M 30.86574935913086 45.88602828979492 C 39.70286560058594 79.52595520019531 35.18182373046875 92.80961608886719 46.30470657348633 69.67984771728516 C 49.695064544677734 90.73038482666016 17.114717483520508 98.01587677001953 52.1979866027832 89.55044555664062" stroke-width="2.0" fill="none" stroke="rgb(0, 0, 0)" stroke-opacity="1" stroke-linecap="round" stroke-linejoin="round"/>
    <path d="M 156.59544372558594 181.1058807373047 C 174.7484893798828 149.5904083251953 179.56898498535156 146.07537841796875 180.9918212890625 146.41102600097656 C 145.61782836914062 126.71937561035156 177.7468719482422 152.40272521972656 143.14141845703125 174.11512756347656 C 141.0032196044922 146.28097534179688 152.9448699951172 152.37643432617188 160.71437072753906 163.1089630126953" stroke-width="2.0" fill="none" stroke="rgb(0, 0, 0)" stroke-opacity="1" stroke-linecap="round" stroke-linejoin="round"/>
    <path d="M 117.0158920288086 32.126129150390625 C 115.72622680664062 32.94032287597656 131.42506408691406 14.667581558227539 160.24655151367188 -2.2157185077667236" stroke-width="2.0" fill="none" stroke="rgb(0, 0, 0)" stroke-opacity="1" stroke-linecap="round" stroke-linejoin="round"/>
    <path d="M 198.79818725585938 160.7914581298828 C 197.1015625 155.2165985107422 198.1979217529297 127.73323822021484 203.36766052246094 158.11558532714844 C 187.9193115234375 167.29522705078125 183.5506134033203 176.1938934326172 225.25912475585938 169.35118103027344" stroke-width="2.0" fill="none" stroke="rgb(0, 0, 0)" stroke-opacity="1" stroke-linecap="round" stroke-linejoin="round"/>
    <path d="M 180.1321563720703 48.687007904052734 C 186.65106201171875 33.83506774902344 205.4442138671875 43.714786529541016 179.986083984375 64.00422668457031 C 187.2362518310547 43.21208572387695 161.24874877929688 60.729583740234375 166.33924865722656 47.091365814208984 C 182.48104858398438 48.204044342041016 195.41610717773438 55.94491195678711 202.15179443359375 33.23273849487305" stroke-width="2.0" fill="none" stroke="rgb(0, 0, 0)" stroke-opacity="1" stroke-linecap="round" stroke-linejoin="round"/>
    <path d="M 48.89540481567383 131.9608917236328 C 60.5743522644043 151.9673309326172 -4.824441909790039 129.44432067871094 30.37163543701172 159.3121795654297 C 58.4167594909668 179.87481689453125 59.09413528442383 197.723388671875 51.584163665771484 176.0426483154297" stroke-width="2.0" fill="none" stroke="rgb(0, 0, 0)" stroke-opacity="1" stroke-linecap="round" stroke-linejoin="round"/>
    <path d="M 31.05176544189453 209.272705078125 C -10.672383308410645 205.71249389648438 -21.243942260742188 208.81576538085938 -12.955000877380371 218.14105224609375 C -21.885852813720703 208.5440216064453 -28.718502044677734 205.67027282714844 -36.88946533203125 200.17794799804688 C -17.333030700683594 183.49925231933594 -24.416481018066406 188.7531280517578 -26.289403915405273 190.67373657226562" stroke-width="2.0" fill="none" stroke="rgb(0, 0, 0)" stroke-opacity="1" stroke-linecap="round" stroke-linejoin="round"/>
    <path d="M 193.8241424560547 164.89971923828125 C 229.26954650878906 169.7191619873047 252.36587524414062 152.922607421875 221.4766387939453 139.36074829101562 C 190.46705627441406 174.23226928710938 175.17822265625 175.36570739746094 221.40255737304688 154.61798095703125 C 235.5458221435547 192.54342651367188 232.00193786621094 175.61105346679688 212.2828369140625 185.2420654296875" stroke-width="2.0" fill="none" stroke="rgb(0, 0, 0)" stroke-opacity="1" stroke-linecap="round" stroke-linejoin="round"/>
    <path d="M 150.0895233154297 117.14244842529297 C 133.79710388183594 98.18345642089844 159.44398498535156 126.25919342041016 156.4482879638672 106.17659759521484" stroke-width="2.0" fill="none" stroke="rgb(0, 0, 0)" stroke-opacity="1" stroke-linecap="round" stroke-linejoin="round"/>
    <path d="M 234.00814819335938 65.05577850341797 C 225.23976135253906 85.96162414550781 243.26461791992188 93.3641586303711 196.0630340576172 75.11522674560547 C 203.0376434326172 102.37312316894531 216.8441925048828 98.00135803222656 235.5740203857422 100.90010833740234" stroke-width="2.0" fill="none" stroke="rgb(0, 0, 0)" stroke-opacity="1" stroke-linecap="round" stroke-linejoin="round"/>
    <path d="M 87.42317199707031 230.73411560058594 C 88.27765655517578 186.7339324951172 83.64427947998047 211.7270965576172 48.423118591308594 222.9995574951172 C 85.18302154541016 219.6309814453125 93.41803741455078 223.2843780517578 77.51953125 233.71762084960938" stroke-width="2.0" fill="none" stroke="rgb(0, 0, 0)" stroke-opacity="1" stroke-linecap="round" stroke-linejoin="round"/>
    <path d="M 17.719579696655273 -2.494943380355835 C 19.10216522216797 -6.886425495147705 12.308432579040527 -5.155052185058594 1.5768959522247314 -9.894416809082031" stroke-width="2.0" fill="none" stroke="rgb(0, 0, 0)" stroke-opacity="1" stroke-linecap="round" stroke-linejoin="round"/>
    <path d="M 44.28303527832031 93.14208984375 C 5.50283145904541 68.42040252685547 27.01203727722168 77.08538055419922 11.360294342041016 76.2235107421875 C 58.41280746459961 54.42622375488281 53.18437957763672 61.55478286743164 34.17066192626953 52.599853515625" stroke-width="2.0" fill="none" stroke="rgb(0, 0, 0)" stroke-opacity="1" stroke-linecap="round" stroke-linejoin="round"/>
    <path d="M 9.915621757507324 225.2100830078125 C 19.250247955322266 228.40023803710938 12.358842849731445 239.2282257080078 15.284934997558594 231.44091796875 C 24.878314971923828 224.19366455078125 25.76277732849121 230.6307373046875 44.38434982299805 227.7657012939453 C 70.79393005371094 208.58819580078125 72.5491714477539 208.49819946289062 36.013179779052734 229.1807403564453" stroke-width="2.0" fill="none" stroke="rgb(0, 0, 0)" stroke-opacity="1" stroke-linecap="round" stroke-linejoin="round"/>
    <path d="M 185.97511291503906 46.015846252441406 C 168.48153686523438 76.67440032958984 149.83306884765625 57.74054718017578 162.81430053710938 74.2572250366211 C 185.7281494140625 69.37236785888672 216.9523162841797 73.74555969238281 210.92649841308594 70.8154525756836" stroke-width="2.0" fill="none" stroke="rgb(0, 0, 0)" stroke-opacity="1" stroke-linecap="round" stroke-linejoin="round"/>
    <path d="M 59.95984649658203 163.92239379882812 C 74.5645751953125 164.7548065185547 89.32952117919922 162.8004150390625 55.95143127441406 164.80433654785156 C 61.469600677490234 176.78919982910156 72.25066375732422 181.88650512695312 66.11577606201172 199.1800079345703" stroke-width="2.0" fill="none" stroke="rgb(0, 0, 0)" stroke-opacity="1" stroke-linecap="round" stroke-linejoin="round"/>
    <path d="M 158.65069580078125 217.9730987548828 C 146.13172912597656 210.72044372558594 177.28077697753906 193.14382934570312 150.09481811523438 205.63552856445312 C 166.17713928222656 187.38406372070312 154.92649841308594 217.40650939941406 164.53321838378906 230.3287353515625" stroke-width="2.0" fill="none" stroke="rgb(0, 0, 0)" stroke-opacity="1" stroke-linecap="round" stroke-linejoin="round"/>
    <path d="M 119.48180389404297 22.7803955078125 C 133.55545043945312 26.43379020690918 130.04246520996094 42.53571319580078 128.5167694091797 19.971485137939453" stroke-width="2.0" fill="none" stroke="rgb(0, 0, 0)" stroke-opacity="1" stroke-linecap="round" stroke-linejoin="round"/>
    <path d="M 151.09214782714844 174.01084899902344 C 124.97429656982422 174.9173583984375 135.90838623046875 134.6244659423828 137.2948455810547 173.3062286376953 C 113.17010498046875 172.62814331054688 134.83135986328125 182.43472290039062 158.53826904296875 183.25942993164062" stroke-width="2.0" fill="none" stroke="rgb(0, 0, 0)" stroke-opacity="1" stroke-linecap="round" stroke-linejoin="round"/>
    <path d="M 157.16122436523438 13.398255348205566 C 150.82469177246094 1.839379906654358 149.77996826171875 4.516144275665283 173.01002502441406 -3.7147436141967773 C 178.88458251953125 0.22536307573318481 187.02964782714844 1.4325648546218872 190.10528564453125 12.289966583251953 C 191.57797241210938 6.048547267913818 178.72657775878906 26.755258560180664 163.7435760498047 41.907127380371094" stroke-width="2.0" fill="none" stroke="rgb(0, 0, 0)" stroke-opacity="1" stroke-linecap="round" stroke-linejoin="round"/>
    <path d="M 25.612524032592773 47.36860275268555 C 3.4193315505981445 66.05593872070312 3.72973370552063 76.60730743408203 -7.803991794586182 75.29119873046875 C -11.215639114379883 66.04724884033203 -11.602167129516602 61.00815963745117 -9.626097679138184 69.95471954345703 C -19.79444122314453 69.93806457519531 -9.59662914276123 78.55113220214844 -9.827202796936035 82.26182556152344" stroke-width="2.0" fill="none" stroke="rgb(0, 0, 0)" stroke-opacity="1" stroke-linecap="round" stroke-linejoin="round"/>
    <path d="M -9.637274742126465 74.19837951660156 C 2.0466949939727783 54.73163604736328 -1.1565425395965576 84.39013671875 23.800283432006836 105.71734619140625 C 68.20335388183594 116.11705780029297 55.97296905517578 135.54273986816406 8.538020133972168 98.4520034790039 C 33.027076721191406 96.1347885131836 54.539886474609375 109.12310791015625 29.885570526123047 92.98762512207031" stroke-width="2.0" fill="none" stroke="rgb(0, 0, 0)" stroke-opacity="1" stroke-linecap="round" stroke-linejoin="round"/>
    <path d="M 99.50428009033203 113.35494232177734 C 57.97848892211914 114.98331451416016 77.46236419677734 118.04895782470703 56.162437438964844 120.073974609375" stroke-width="2.0" fill="none" stroke="rgb(0, 0, 0)" stroke-opacity="1" stroke-linecap="round" stroke-linejoin="round"/>
    <path d="M 182.1029510498047 146.2382049560547 C 206.5133514404297 163.3332061767578 200.0928497314453 180.0943145751953 211.9955291748047 186.1736602783203 C 195.1769561767578 174.256591796875 244.78594970703125 194.4243927001953 218.7892303466797 190.85968017578125" stroke-width="2.0" fill="none" stroke="rgb(0, 0, 0)" stroke-opacity="1" stroke-linecap="round" stroke-linejoin="round"/>
    <path d="M 155.5253448486328 213.95944213867188 C 163.98046875 215.1062774658203 147.7300262451172 205.68641662597656 108.61418151855469 223.79263305664062 C 114.91716766357422 218.30255126953125 101.70124816894531 249.11007690429688 112.71693420410156 230.36692810058594" stroke-width="2.0" fill="none" stroke="rgb(0, 0, 0)" stroke-opacity="1" stroke-linecap="round" stroke-linejoin="round"/>
    <path d="M 63.558509826660156 -7.025505065917969 C 23.16240119934082 -0.9462316632270813 35.030845642089844 -10.623943328857422 38.760467529296875 -0.0933741107583046 C 37.24708938598633 -9.189170837402344 23.04599952697754 16.895278930664062 24.71665382385254 -5.211048126220703 C 55.41160583496094 -11.858505249023438 58.32844161987305 -6.0255608558654785 45.81269454956055 -8.374926567077637" stroke-width="2.0" fill="none" stroke="rgb(0, 0, 0)" stroke-opacity="1" stroke-linecap="round" stroke-linejoin="round"/>
    <path d="M 151.96487426757812 121.1522216796875 C 153.35693359375 95.42340087890625 121.83427429199219 96.72265625 126.56608581542969 89.1959228515625 C 116.52970886230469 92.82515716552734 139.43788146972656 96.9949722290039 110.91825866699219 78.82327270507812" stroke-width="2.0" fill="none" stroke="rgb(0, 0, 0)" stroke-opacity="1" stroke-linecap="round" stroke-linejoin="round"/>
    <path d="M 229.8972625732422 102.16590881347656 C 242.85894775390625 112.37106323242188 216.49583435058594 124.16858673095703 228.04429626464844 131.2445068359375" stroke-width="2.0" fill="none" stroke="rgb(0, 0, 0)" stroke-opacity="1" stroke-linecap="round" stroke-linejoin="round"/>
    <path d="M 231.57334899902344 114.54075622558594 C 209.19940185546875 119.86909484863281 238.1129608154297 119.75454711914062 219.7433319091797 117.48895263671875 C 231.68280029296875 81.49034118652344 223.59510803222656 120.31166076660156 195.052734375 93.62246704101562" stroke-width="2.0" fill="none" stroke="rgb(0, 0, 0)" stroke-opacity="1" stroke-linecap="round" stroke-linejoin="round"/>
    <path d="M 100.60247039794922 68.14080810546875 C 95.88959503173828 75.56690979003906 50.225894927978516 90.66523742675781 95.51666259765625 72.66477966308594" stroke-width="2.0" fill="none" stroke="rgb(0, 0, 0)" stroke-opacity="1" stroke-linecap="round" stroke-linejoin="round"/>
    <path d="M 83.23164367675781 120.98637390136719 C 58.58551025390625 112.39647674560547 74.46724700927734 106.66338348388672 116.99046325683594 111.94615936279297 C 113.12234497070312 118.57935333251953 111.2939224243164 119.85234832763672 112.8795394897461 94.9491958618164" stroke-width="2.0" fill="none" stroke="rgb(0, 0, 0)" stroke-opacity="1" stroke-linecap="round" stroke-linejoin="round"/>
    <path d="M 65.3090591430664 109.8912582397461 C 49.79520034790039 91.68218994140625 53.17070388793945 123.17369842529297 69.58638763427734 95.20187377929688" stroke-width="2.0" fill="none" stroke="rgb(0, 0, 0)" stroke-opacity="1" stroke-linecap="round" stroke-linejoin="round"/>
    <path d="M 59.64704513549805 190.20645141601562 C 80.81206512451172 170.53965759277344 65.0149917602539 172.6545867919922 86.79161834716797 194.6442108154297 C 68.29684448242188 208.48516845703125 50.244537353515625 226.064697265625 94.70768737792969 190.60293579101562 C 95.90000915527344 169.6886749267578 76.4739761352539 182.50369262695312 81.49858856201172 172.8939971923828" stroke-width="2.0" fill="none" stroke="rgb(0, 0, 0)" stroke-opacity="1" stroke-linecap="round" stroke-linejoin="round"/>
    <path d="M 217.4530029296875 -4.850316524505615 C 232.25889587402344 -27.531421661376953 207.9970703125 -9.62601089477539 195.82333374023438 -2.285579204559326" stroke-width="2.0" fill="none" stroke="rgb(0, 0, 0)" stroke-opacity="1" stroke-linecap="round" stroke-linejoin="round"/>
    <path d="M 70.78778076171875 54.031307220458984 C 90.02335357666016 37.16814422607422 116.14921569824219 28.147092819213867 98.26607513427734 25.58953285217285 C 92.2920913696289 6.393584251403809 95.11202239990234 38.30897521972656 90.03655242919922 28.00782585144043" stroke-width="2.0" fill="none" stroke="rgb(0, 0, 0)" stroke-opacity="1" stroke-linecap="round" stroke-linejoin="round"/>
    <path d="M 43.69242477416992 199.6356964111328 C 51.505855560302734 203.72576904296875 47.44782257080078 190.52244567871094 44.089019775390625 198.52322387695312" stroke-width="2.0" fill="none" stroke="rgb(0, 0, 0)" stroke-opacity="1" stroke-linecap="round" stroke-linejoin="round"/>
    <path d="M 16.472675323486328 78.88887786865234 C 48.695064544677734 91.18977355957031 34.49938201904297 89.97700500488281 11.617857933044434 92.1417465209961 C 42.97895431518555 99.8933334350586 46.43692398071289 86.84693908691406 23.99811553955078 120.52547454833984" stroke-width="2.0" fill="none" stroke="rgb(0, 0, 0)" stroke-opacity="1" stroke-linecap="round" stroke-linejoin="round"/>
    <path d="M 97.78372192382812 147.42295837402344 C 95.7671127319336 127.00929260253906 98.52171325683594 157.77032470703125 90.09638977050781 145.50048828125 C 116.20008850097656 150.3636474609375 81.7666015625 154.1981964111328 97.09346771240234 142.4796600341797" stroke-width="2.0" fill="none" stroke="rgb(0, 0, 0)" stroke-opacity="1" stroke-linecap="round" stroke-linejoin="round"/>
    <path d="M 82.76004028320312 40.50953674316406 C 76.6706771850586 7.759108543395996 85.75053405761719 -3.7025368213653564 117.70901489257812 47.757503509521484 C 105.082763671875 13.675893783569336 66.24678039550781 -1.4073437452316284 93.99613952636719 18.664817810058594" stroke-width="2.0" fill="none" stroke="rgb(0, 0, 0)" stroke-opacity="1" stroke-linecap="round" stroke-linejoin="round"/>
    <path d="M 172.8963623046875 67.72804260253906 C 175.51321411132812 52.177677154541016 163.2115936279297 73.56875610351562 132.41946411132812 96.94656372070312" stroke-width="2.0" fill="none" stroke="rgb(0, 0, 0)" stroke-opacity="1" stroke-linecap="round" stroke-linejoin="round"/>
    <path d="M -15.149316787719727 152.53799438476562 C 25.444326400756836 153.3678436279297 40.471988677978516 151.37362670898438 -8.746406555175781 145.77804565429688" stroke-width="2.0" fill="none" stroke="rgb(0, 0, 0)" stroke-opacity="1" stroke-linecap="round" stroke-linejoin="round"/>
    <path d="M 76.81995391845703 60.84907913208008 C 78.34603881835938 40.537662506103516 82.36754608154297 30.576980590820312 68.8914566040039 52.612144470214844 C 109.76725006103516 72.34801483154297 98.7895278930664 64.33039093017578 78.29488372802734 49.69767379760742" stroke-width="2.0" fill="none" stroke="rgb(0, 0, 0)" stroke-opacity="1" stroke-linecap="round" stroke-linejoin="round"/>
    <path d="M 44.807743072509766 -8.092643737792969 C 63.912437438964844 2.476043224334717 87.66016387939453 4.249362468719482 114.06733703613281 -3.899240732192993 C 109.7181396484375 -3.5453059673309326 111.0859146118164 -9.523225784301758 88.0819091796875 -2.471156120300293" stroke-width="2.0" fill="none" stroke="rgb(0, 0, 0)" stroke-opacity="1" stroke-linecap="round" stroke-linejoin="round"/>
    <path d="M 63.36499786376953 48.44578170776367 C 68.15825653076172 27.838886260986328 64.7782974243164 59.996437072753906 90.05679321289062 67.26548767089844" stroke-width="2.0" fill="none" stroke="rgb(0, 0, 0)" stroke-opacity="1" stroke-linecap="round" stroke-linejoin="round"/>
    <path d="M 81.05970001220703 114.12049865722656 C 104.87049102783203 83.23172760009766 67.06910705566406 80.5656967163086 69.77906036376953 104.9817886352539 C 73.44454193115234 108.99754333496094 106.08743286132812 118.00249481201172 105.8341293334961 119.6839599609375 C 113.8173828125 124.33261108398438 89.37488555908203 109.92250061035156 81.02571105957031 112.7455825805664" stroke-width="2.0" fill="none" stroke="rgb(0, 0, 0)" stroke-opacity="1" stroke-linecap="round" stroke-linejoin="round"/>
    <path d="M 201.58917236328125 84.5013427734375 C 161.72332763671875 91.03285217285156 202.48731994628906 111.17747497558594 224.94430541992188 112.41826629638672" stroke-width="2.0" fill="none" stroke="rgb(0, 0, 0)" stroke-opacity="1" stroke-linecap="round" stroke-linejoin="round"/>
    <path d="M 144.25927734375 158.2766876220703 C 104.11861419677734 171.25808715820312 133.8560791015625 178.73788452148438 146.0652618408203 157.17037963867188" stroke-width="2.0" fill="none" stroke="rgb(0, 0, 0)" stroke-opacity="1" stroke-linecap="round" stroke-linejoin="round"/>
    <path d="M 121.98345184326172 49.23118209838867 C 138.32875061035156 32.17216110229492 157.04173278808594 21.68129539489746 199.8829803466797 -1.1130495071411133 C 149.1480255126953 -19.29567527770996 164.95045471191406 7.131506443023682 173.36378479003906 16.75082778930664 C 179.66978454589844 24.172283172607422 169.47018432617188 11.770284652709961 172.00515747070312 14.772295951843262" stroke-width="2.0" fill="none" stroke="rgb(0, 0, 0)" stroke-opacity="1" stroke-linecap="round" stroke-linejoin="round"/>
    <path d="M 136.71359252929688 7.732628345489502 C 112.36192321777344 -7.9423346519470215 130.1549072265625 3.751674175262451 120.32952880859375 34.36661148071289 C 115.59858703613281 25.158618927001953 124.77159118652344 5.34546422958374 116.38284301757812 45.820796966552734" stroke-width="2.0" fill="none" stroke="rgb(0, 0, 0)" stroke-opacity="1" stroke-linecap="round" stroke-linejoin="round"/>
    <path d="M 115.96761322021484 130.6114959716797 C 100.25691223144531 150.4815673828125 112.43500518798828 144.6366729736328 130.53652954101562 130.5604248046875 C 127.51251220703125 145.1601104736328 114.30943298339844 116.85314178466797 116.20451354980469 102.84458923339844" stroke-width="2.0" fill="none" stroke="rgb(0, 0, 0)" stroke-opacity="1" stroke-linecap="round" stroke-linejoin="round"/>
    <path d="M 97.74564361572266 116.7224349975586 C 116.24564361572266 115.58432006835938 142.4320526123047 137.839111328125 124.27519226074219 109.96537780761719" stroke-width="2.0" fill="none" stroke="rgb(0, 0, 0)" stroke-opacity="1" stroke-linecap="round" stroke-linejoin="round"/>
    <path d="M 101.36287689208984 168.59423828125 C 108.1678695678711 149.9562225341797 120.44953155517578 170.12350463867188 135.5355224609375 185.39320373535156 C 121.89177703857422 146.1919403076172 93.4523696899414 137.439453125 96.667236328125 138.9732208251953 C 124.45858001708984 173.1255340576172 112.85302734375 164.18991088867188 136.74819946289062 146.87184143066406" stroke-width="2.0" fill="none" stroke="rgb(0, 0, 0)" stroke-opacity="1" stroke-linecap="round" stroke-linejoin="round"/>
    <path d="M 36.81283187866211 173.67779541015625 C 33.341514587402344 165.2912139892578 30.699005126953125 166.82159423828125 34.270416259765625 178.69561767578125 C 35.64357376098633 162.156982421875 34.008155822753906 158.75900268554688 11.569820404052734 184.48348999023438" stroke-width="2.0" fill="none" stroke="rgb(0, 0, 0)" stroke-opacity="1" stroke-linecap="round" stroke-linejoin="round"/>
    <path d="M 33.059749603271484 20.249473571777344 C 26.39791488647461 42.523597717285156 62.28731918334961 52.40731430053711 56.15419387817383 29.64164161682129 C 14.953189849853516 42.968265533447266 25.877225875854492 30.89637565612793 70.17516326904297 56.59141159057617 C 65.60396575927734 51.442657470703125 63.156707763671875 49.15342330932617 51.3445930480957 45.66960525512695" stroke-width="2.0" fill="none" stroke="rgb(0, 0, 0)" stroke-opacity="1" stroke-linecap="round" stroke-linejoin="round"/>
    <path d="M 172.96487426757812 47.364662170410156 C 192.5892333984375 52.259521484375 208.5161590576172 50.486289978027344 188.7052001953125 7.330061435699463 C 188.88255310058594 43.28795623779297 190.90676879882812 51.482032775878906 184.34405517578125 68.45506286621094" stroke-width="2.0" fill="none" stroke="rgb(0, 0, 0)" stroke-opacity="1" stroke-linecap="round" stroke-linejoin="round"/>
    <path d="M 231.15789794921875 77.78723907470703 C 192.18641662597656 80.88616180419922 212.1986541748047 63.25552749633789 179.10592651367188 99.01795959472656" stroke-width="2.0" fill="none" stroke="rgb(0, 0, 0)" stroke-opacity="1" stroke-linecap="round" stroke-linejoin="round"/>
    <path d="M 142.41038513183594 99.96385192871094 C 157.37518310546875 123.74828338623047 156.19717407226562 136.38021850585938 163.64889526367188 93.1482162475586" stroke-width="2.0" fill="none" stroke="rgb(0, 0, 0)" stroke-opacity="1" stroke-linecap="round" stroke-linejoin="round"/>
    <path d="M 16.6951961517334 125.92642974853516 C 10.218374252319336 154.34808349609375 37.48873519897461 138.1042022705078 39.532005310058594 123.55975341796875 C 30.32061004638672 143.3808135986328 26.16407585144043 158.32472229003906 47.89055252075195 137.0609130859375" stroke-width="2.0" fill="none" stroke="rgb(0, 0, 0)" stroke-opacity="1" stroke-linecap="round" stroke-linejoin="round"/>
    <path d="M 67.44281768798828 55.6454963684082 C 84.84455108642578 62.002811431884766 68.43901062011719 54.85696029663086 60.204566955566406 50.088294982910156 C 50.18107986450195 39.80127716064453 75.141845703125 23.358339309692383 83.66775512695312 5.197599411010742 C 81.86626434326172 33.819007873535156 93.75179290771484 16.114572525024414 84.57391357421875 15.895514488220215" stroke-width="2.0" fill="none" stroke="rgb(0, 0, 0)" stroke-opacity="1" stroke-linecap="round" stroke-linejoin="round"/>
    <path d="M 61.04052734375 177.64340209960938 C 38.47357940673828 180.3438262939453 81.4034194946289 197.66151428222656 48.687103271484375 205.85179138183594" stroke-width="2.0" fill="none" stroke="rgb(0, 0, 0)" stroke-opacity="1" stroke-linecap="round" stroke-linejoin="round"/>
    <path d="M 27.077516555786133 198.81631469726562 C 14.204079627990723 196.23281860351562 41.99287414550781 186.39996337890625 53.7245979309082 167.9163360595703 C 56.30908203125 190.98268127441406 65.14105224609375 198.22479248046875 60.11137771606445 188.61056518554688 C 77.12358856201172 214.93505859375 71.26998138427734 181.18179321289062 70.3759994506836 200.30401611328125" stroke-width="2.0" fill="none" stroke="rgb(0, 0, 0)" stroke-opacity="1" stroke-linecap="round" stroke-linejoin="round"/>
    <path d="M 106.0286865234375 78.04198455810547 C 116.02130889892578 55.574195861816406 94.482177734375 78.01243591308594 106.73969268798828 77.87742614746094 C 128.25430297851562 62.40502166748047 103.98734283447266 95.79119110107422 106.40946197509766 61.990928649902344 C 90.02162170410156 49.268043518066406 42.85819625854492 31.858673095703125 63.94920349121094 31.37346839904785" stroke-width="2.0" fill="none" stroke="rgb(0, 0, 0)" stroke-opacity="1" stroke-linecap="round" stroke-linejoin="round"/>
    <path d="M 41.83616256713867 151.29330444335938 C 28.39470100402832 156.6405029296875 37.06904983520508 124.41631317138672 49.5750846862793 140.9019775390625 C -10.811933517456055 113.54913330078125 9.44251823425293 121.8783950805664 50.530250549316406 146.74034118652344 C 17.40425682067871 136.47837829589844 26.836145401000977 139.44908142089844 31.431705474853516 123.70021057128906" stroke-width="2.0" fill="none" stroke="rgb(0, 0, 0)" stroke-opacity="1" stroke-linecap="round" stroke-linejoin="round"/>
    <path d="M 95.90362548828125 13.500807762145996 C 122.1785888671875 37.48369216918945 122.87683868408203 47.15328598022461 106.28461456298828 68.95525360107422 C 127.2424545288086 57.31450653076172 151.434814453125 99.27408599853516 109.08360290527344 71.1494369506836 C 90.80677795410156 79.15348052978516 100.93737030029297 80.9299087524414 115.51695251464844 65.11627197265625" stroke-width="2.0" fill="none" stroke="rgb(0, 0, 0)" stroke-opacity="1" stroke-linecap="round" stroke-linejoin="round"/>
    <path d="M 79.19882202148438 111.40604400634766 C 53.32692337036133 128.4798126220703 59.34017562866211 130.26927185058594 61.19861602783203 116.0987548828125 C 45.491554260253906 146.50088500976562 45.60674285888672 159.05238342285156 13.69347095489502 133.92115783691406" stroke-width="2.0" fill="none" stroke="rgb(0, 0, 0)" stroke-opacity="1" stroke-linecap="round" stroke-linejoin="round"/>
    <path d="M 102.56175231933594 -7.290833473205566 C 121.70573425292969 35.106178283691406 141.74501037597656 39.54684829711914 128.96401977539062 20.969707489013672 C 121.40667724609375 27.519744873046875 125.65959167480469 41.6033935546875 116.17153930664062 24.15155601501465" stroke-width="2.0" fill="none" stroke="rgb(0, 0, 0)" stroke-opacity="1" stroke-linecap="round" stroke-linejoin="round"/>
    <path d="M 212.35704040527344 184.9252471923828 C 232.20318603515625 222.60140991210938 217.2180633544922 247.90090942382812 200.98367309570312 232.63873291015625 C 155.27882385253906 226.68142700195312 143.84030151367188 229.37710571289062 165.76963806152344 218.61685180664062 C 200.97406005859375 206.4518280029297 237.4076690673828 200.58120727539062 227.88006591796875 220.5250244140625" stroke-width="2.0" fill="none" stroke="rgb(0, 0, 0)" stroke-opacity="1" stroke-linecap="round" stroke-linejoin="round"/>
    <path d="M 124.38986206054688 185.0968780517578 C 136.2759552001953 201.14468383789062 161.68240356445312 222.78848266601562 165.60777282714844 221.83602905273438 C 170.43833923339844 175.4347381591797 163.39828491210938 189.25271606445312 169.8777313232422 216.75592041015625 C 186.45907592773438 213.3612823486328 146.20388793945312 195.52633666992188 153.55201721191406 211.7911376953125" stroke-width="2.0" fill="none" stroke="rgb(0, 0, 0)" stroke-opacity="1" stroke-linecap="round" stroke-linejoin="round"/>
    <path d="M 198.6269073486328 59.2431526184082 C 198.10997009277344 68.06602478027344 202.6265869140625 83.75505828857422 207.8295135498047 75.35706329345703 C 177.28956604003906 51.20055389404297 172.35501098632812 74.5988998413086 179.83660888671875 65.4594955444336" stroke-width="2.0" fill="none" stroke="rgb(0, 0, 0)" stroke-opacity="1" stroke-linecap="round" stroke-linejoin="round"/>
    <path d="M 59.723209381103516 171.74864196777344 C 55.40388107299805 173.98141479492188 91.304443359375 161.51766967773438 64.88777160644531 190.1503448486328" stroke-width="2.0" fill="none" stroke="rgb(0, 0, 0)" stroke-opacity="1" stroke-linecap="round" stroke-linejoin="round"/>
    <path d="M 150.3516845703125 30.71025276184082 C 155.076904296875 49.66421890258789 160.1753387451172 50.437156677246094 156.1045684814453 45.26597213745117" stroke-width="2.0" fill="none" stroke="rgb(0, 0, 0)" stroke-opacity="1" stroke-linecap="round" stroke-linejoin="round"/>
    <path d="M 43.029666900634766 110.59036254882812 C 23.994356155395508 133.80801391601562 40.92428970336914 119.95169830322266 9.90585994720459 114.54105377197266 C 14.331353187561035 91.16525268554688 -1.533512830734253 68.51943969726562 7.986140727996826 84.92942810058594 C 57.17876052856445 83.4898910522461 49.523555755615234 107.20396423339844 -3.8937175273895264 115.41209411621094" stroke-width="2.0" fill="none" stroke="rgb(0, 0, 0)" stroke-opacity="1" stroke-linecap="round" stroke-linejoin="round"/>
    <path d="M 49.200111389160156 170.1617431640625 C 7.1528449058532715 139.0945281982422 15.294386863708496 153.39161682128906 13.674957275390625 162.05892944335938 C 0.6327834725379944 127.71793365478516 22.233047485351562 137.42478942871094 0.9917376041412354 134.80093383789062 C 0.0898643210530281 162.09397888183594 -27.260669708251953 152.98980712890625 -7.7433929443359375 156.85980224609375" stroke-width="2.0" fill="none" stroke="rgb(0, 0, 0)" stroke-opacity="1" stroke-linecap="round" stroke-linejoin="round"/>
    <path d="M 12.051800727844238 107.91927337646484 C 12.602167129516602 133.3397216796875 2.013967275619507 115.50167083740234 23.731096267700195 126.27734375 C -9.445237159729004 118.2193603515625 -24.111494064331055 139.23817443847656 -28.519006729125977 141.79461669921875" stroke-width="2.0" fill="none" stroke="rgb(0, 0, 0)" stroke-opacity="1" stroke-linecap="round" stroke-linejoin="round"/>
    <path d="M 227.84617614746094 30.704345703125 C 237.5808563232422 28.312480926513672 248.42459106445312 13.683714866638184 237.71670532226562 12.141984939575195" stroke-width="2.0" fill="none" stroke="rgb(0, 0, 0)" stroke-opacity="1" stroke-linecap="round" stroke-linejoin="round"/>
    <path d="M 66.139892578125 3.3564436435699463 C 22.413286209106445 -3.8272383213043213 65.44113159179688 -8.335062026977539 52.42206954956055 12.091264724731445 C 14.993834495544434 28.316463470458984 50.53348922729492 22.686195373535156 77.03411102294922 2.575516700744629 C 36.93696212768555 21.506973266601562 44.952640533447266 30.4596004486084 43.30768585205078 -4.401684284210205" stroke-width="2.0" fill="none" stroke="rgb(0, 0, 0)" stroke-opacity="1" stroke-linecap="round" stroke-linejoin="round"/>
    <path d="M 11.07882308959961 -2.233590602874756 C 24.38191795349121 20.329980850219727 15.880205154418945 3.649698257446289 0.7105525732040405 -8.099496841430664 C -1.5748180150985718 -2.254253625869751 -1.2012814283370972 12.970781326293945 24.451204299926758 19.49848747253418" stroke-width="2.0" fill="none" stroke="rgb(0, 0, 0)" stroke-opacity="1" stroke-linecap="round" stroke-linejoin="round"/>
    <path d="M 163.12814331054688 217.62442016601562 C 166.97268676757812 190.8550262451172 159.6663055419922 197.9941864013672 178.46067810058594 163.9611358642578" stroke-width="2.0" fill="none" stroke="rgb(0, 0, 0)" stroke-opacity="1" stroke-linecap="round" stroke-linejoin="round"/>
    <path d="M -6.3800554275512695 24.44097328186035 C -10.228626251220703 45.02485275268555 46.15066146850586 27.995380401611328 0.12733224034309387 19.22113037109375" stroke-width="2.0" fill="none" stroke="rgb(0, 0, 0)" stroke-opacity="1" stroke-linecap="round" stroke-linejoin="round"/>
    <path d="M 173.27713012695312 47.978023529052734 C 208.45883178710938 46.21055603027344 206.0061492919922 60.04863357543945 171.0934295654297 60.79544448852539 C 200.64576721191406 52.50217056274414 170.5166778564453 71.45917510986328 181.64764404296875 33.1125602722168 C 193.41976928710938 59.596656799316406 186.14598083496094 73.11353302001953 191.1905059814453 64.36515808105469" stroke-width="2.0" fill="none" stroke="rgb(0, 0, 0)" stroke-opacity="1" stroke-linecap="round" stroke-linejoin="round"/>
    <path d="M 56.981109619140625 48.16349411010742 C 74.88941955566406 63.0231819152832 85.98233795166016 66.15389251708984 80.67113494873047 52.47743225097656 C 93.66862487792969 61.1618766784668 88.31262969970703 71.82828521728516 107.7069320678711 78.58567810058594" stroke-width="2.0" fill="none" stroke="rgb(0, 0, 0)" stroke-opacity="1" stroke-linecap="round" stroke-linejoin="round"/>
    <path d="M 211.64064025878906 188.3384552001953 C 219.8044891357422 208.2999725341797 223.37481689453125 181.20408630371094 205.69247436523438 167.1951904296875 C 214.673583984375 198.31759643554688 213.25564575195312 192.1908721923828 216.0043487548828 186.98924255371094 C 237.70091247558594 209.83326721191406 231.14857482910156 240.38092041015625 233.31533813476562 195.29322814941406" stroke-width="2.0" fill="none" stroke="rgb(0, 0, 0)" stroke-opacity="1" stroke-linecap="round" stroke-linejoin="round"/>
    <path d="M 15.5088472366333 152.12643432617188 C 10.11317253112793 156.71755981445312 28.642742156982422 160.00277709960938 30.83441925048828 146.3754425048828" stroke-width="2.0" fill="none" stroke="rgb(0, 0, 0)" stroke-opacity="1" stroke-linecap="round" stroke-linejoin="round"/>
    <path d="M 30.95644760131836 196.87974548339844 C 57.53239440917969 212.9969940185547 34.155025482177734 245.2735137939453 37.43269348144531 215.59585571289062 C 14.304832458496094 233.19691467285156 23.647144317626953 229.7734832763672 54.02360153198242 233.55564880371094 C 59.629600524902344 237.44515991210938 69.4301986694336 239.4921875 77.43191528320312 237.3950958251953" stroke-width="2.0" fill="none" stroke="rgb(0, 0, 0)" stroke-opacity="1" stroke-linecap="round" stroke-linejoin="round"/>
    <path d="M 205.39805603027344 175.31036376953125 C 233.72821044921875 176.94447326660156 240.09127807617188 179.2384033203125 236.00845336914062 173.85804748535156 C 223.11512756347656 174.61077880859375 223.24270629882812 179.5140838623047 229.9327392578125 187.73699951171875" stroke-width="2.0" fill="none" stroke="rgb(0, 0, 0)" stroke-opacity="1" stroke-linecap="round" stroke-linejoin="round"/>
    <path d="M 203.57009887695312 47.67985153198242 C 190.004638671875 61.84852600097656 165.80064392089844 34.96015167236328 176.1925506591797 55.55369567871094 C 219.62643432617188 62.01345443725586 229.42611694335938 22.92534828186035 227.13816833496094 51.20218276977539" stroke-width="2.0" fill="none" stroke="rgb(0, 0, 0)" stroke-opacity="1" stroke-linecap="round" stroke-linejoin="round"/>
    <path d="M 80.68364715576172 138.41871643066406 C 89.09609985351562 136.4812774658203 95.71116638183594 149.4683074951172 64.04644775390625 162.5073699951172 C 103.65434265136719 127.63086700439453 80.41861724853516 153.92245483398438 72.8669204711914 126.77250671386719 C 100.70213317871094 117.62451171875 64.89032745361328 134.60694885253906 39.34030532836914 137.909423828125" stroke-width="2.0" fill="none" stroke="rgb(0, 0, 0)" stroke-opacity="1" stroke-linecap="round" stroke-linejoin="round"/>
    <path d="M 231.07247924804688 53.90235137939453 C 222.58547973632812 66.23190307617188 215.03054809570312 72.68719482421875 176.95523071289062 65.99227905273438 C 209.7661895751953 53.951202392578125 190.41668701171875 69.47805786132812 196.13900756835938 67.34859466552734 C 193.73992919921875 50.351985931396484 189.9550018310547 44.60940933227539 189.26837158203125 62.58739471435547" stroke-width="2.0" fill="none" stroke="rgb(0, 0, 0)" stroke-opacity="1" stroke-linecap="round" stroke-linejoin="round"/>
    <path d="M 89.5849838256836 191.95252990722656 C 126.765625 183.48643493652344 106.40179443359375 161.31947326660156 99.78223419189453 187.9783477783203 C 135.74771118164062 179.07522583007812 143.96014404296875 172.73025512695312 88.9271011352539 186.58929443359375" stroke-width="2.0" fill="none" stroke="rgb(0, 0, 0)" stroke-opacity="1" stroke-linecap="round" stroke-linejoin="round"/>
    <path d="M 206.12350463867188 163.3329315185547 C 251.79672241210938 153.30458068847656 211.0104217529297 146.13400268554688 192.9172821044922 137.02130126953125 C 204.0745849609375 131.36318969726562 165.97962951660156 132.133056640625 206.50148010253906 133.8240203857422 C 251.76260375976562 145.30233764648438 223.50997924804688 130.2568359375 170.6272430419922 133.43228149414062" stroke-width="2.0" fill="none" stroke="rgb(0, 0, 0)" stroke-opacity="1" stroke-linecap="round" stroke-linejoin="round"/>
    <path d="M 38.95745086669922 118.14735412597656 C 73.58209991455078 143.51849365234375 36.09149169921875 128.42416381835938 12.207191467285156 106.9308090209961 C 12.175740242004395 92.81078338623047 9.694743156433105 99.28983306884766 -14.389020919799805 104.80880737304688" stroke-width="2.0" fill="none" stroke="rgb(0, 0, 0)" stroke-opacity="1" stroke-linecap="round" stroke-linejoin="round"/>
    <path d="M 156.58969116210938 56.5628662109375 C 121.31050872802734 56.20796203613281 100.33148193359375 64.00535583496094 140.4652099609375 81.28948974609375" stroke-width="2.0" fill="none" stroke="rgb(0, 0, 0)" stroke-opacity="1" stroke-linecap="round" stroke-linejoin="round"/>
    <path d="M 6.757107257843018 33.96535873413086 C 10.33974838256836 30.77507209777832 38.9891357421875 41.9640998840332 57.3031120300293 47.58170700073242" stroke-width="2.0" fill="none" stroke="rgb(0, 0, 0)" stroke-opacity="1" stroke-linecap="round" stroke-linejoin="round"/>
    <path d="M 99.71843719482422 139.57492065429688 C 132.22715759277344 126.9563217163086 168.30955505371094 124.74728393554688 135.33424377441406 124.13807678222656" stroke-width="2.0" fill="none" stroke="rgb(0, 0, 0)" stroke-opacity="1" stroke-linecap="round" stroke-linejoin="round"/>
    <path d="M 28.79134178161621 164.47952270507812 C -23.21552085876465 164.21298217773438 6.357131004333496 177.61106872558594 37.46491241455078 153.29783630371094" stroke-width="2.0" fill="none" stroke="rgb(0, 0, 0)" stroke-opacity="1" stroke-linecap="round" stroke-linejoin="round"/>
    <path d="M 142.3192138671875 177.17294311523438 C 122.58515167236328 190.13401794433594 102.64041900634766 169.3031005859375 110.94915008544922 180.3236083984375" stroke-width="2.0" fill="none" stroke="rgb(0, 0, 0)" stroke-opacity="1" stroke-linecap="round" stroke-linejoin="round"/>
    <path d="M 101.69999694824219 71.33910369873047 C 111.17713928222656 82.12149047851562 99.68228149414062 72.3325424194336 93.22332763671875 70.63594055175781 C 113.3251953125 83.13206481933594 79.44739532470703 61.68364334106445 88.8091049194336 68.009765625" stroke-width="2.0" fill="none" stroke="rgb(0, 0, 0)" stroke-opacity="1" stroke-linecap="round" stroke-linejoin="round"/>
    <path d="M 53.78276824951172 73.17793273925781 C 104.80142974853516 65.24556732177734 112.12306213378906 67.67288208007812 80.36605834960938 59.56290817260742" stroke-width="2.0" fill="none" stroke="rgb(0, 0, 0)" stroke-opacity="1" stroke-linecap="round" stroke-linejoin="round"/>
    <path d="M 98.88484954833984 172.71292114257812 C 113.59159088134766 191.04563903808594 66.11150360107422 205.42532348632812 102.74386596679688 182.46157836914062 C 123.93092346191406 221.67828369140625 133.8227996826172 213.19964599609375 96.12023162841797 227.41033935546875" stroke-width="2.0" fill="none" stroke="rgb(0, 0, 0)" stroke-opacity="1" stroke-linecap="round" stroke-linejoin="round"/>
    <path d="M 161.53892517089844 182.09913635253906 C 175.39744567871094 159.17689514160156 155.74942016601562 177.2465057373047 114.25751495361328 182.87881469726562 C 126.11607360839844 144.13632202148438 114.77587890625 194.60923767089844 129.34619140625 177.36270141601562 C 157.741455078125 195.54788208007812 171.06326293945312 173.1802978515625 125.46332550048828 216.68331909179688" stroke-width="2.0" fill="none" stroke="rgb(0, 0, 0)" stroke-opacity="1" stroke-linecap="round" stroke-linejoin="round"/>
    <path d="M 53.33811950683594 75.32129669189453 C 91.34566497802734 72.72884368896484 94.76155853271484 61.02000045776367 95.84827423095703 63.97412109375 C 77.05364227294922 66.29849243164062 55.165016174316406 51.14967727661133 71.27198791503906 36.41476058959961 C 58.87917709350586 30.702852249145508 58.867218017578125 40.53502655029297 80.90763854980469 6.260551452636719" stroke-width="2.0" fill="none" stroke="rgb(0, 0, 0)" stroke-opacity="1" stroke-linecap="round" stroke-linejoin="round"/>
    <path d="M 191.86639404296875 116.6145248413086 C 200.9488525390625 114.950439453125 234.26239013671875 127.45914459228516 228.91287231445312 118.78652954101562" stroke-width="2.0" fill="none" stroke="rgb(0, 0, 0)" stroke-opacity="1" stroke-linecap="round" stroke-linejoin="round"/>
    <path d="M 114.6356430053711 86.25264739990234 C 115.66681671142578 66.17498016357422 123.5182113647461 92.08122253417969 162.12799072265625 91.86408233642578" stroke-width="2.0" fill="none" stroke="rgb(0, 0, 0)" stroke-opacity="1" stroke-linecap="round" stroke-linejoin="round"/>
    <path d="M 75.70508575439453 105.08895111083984 C 78.8023681640625 125.62606048583984 73.8482437133789 114.48668670654297 83.40361785888672 94.17415618896484" stroke-width="2.0" fill="none" stroke="rgb(0, 0, 0)" stroke-opacity="1" stroke-linecap="round" stroke-linejoin="round"/>
    <path d="M 178.33253479003906 100.41531372070312 C 163.5083770751953 98.71544647216797 171.6798095703125 95.63328552246094 197.70262145996094 74.66842651367188 C 203.9481964111328 87.74695587158203 189.10830688476562 95.57777404785156 190.29754638671875 81.34199523925781 C 160.54605102539062 119.96886444091797 151.96600341796875 120.74641418457031 188.04592895507812 117.04544067382812" stroke-width="2.0" fill="none" stroke="rgb(0, 0, 0)" stroke-opacity="1" stroke-linecap="round" stroke-linejoin="round"/>
    <path d="M 126.96453857421875 68.94418334960938 C 156.63619995117188 70.08121490478516 182.85723876953125 64.95023345947266 161.520751953125 69.68956756591797 C 183.45294189453125 62.727928161621094 154.1686553955078 64.79241943359375 146.4528350830078 64.84016418457031" stroke-width="2.0" fill="none" stroke="rgb(0, 0, 0)" stroke-opacity="1" stroke-linecap="round" stroke-linejoin="round"/>
    <path d="M -3.6295011043548584 205.86575317382812 C 9.690423965454102 178.26229858398438 -7.398603916168213 191.05322265625 4.730913162231445 172.07139587402344 C -6.0884575843811035 191.7436065673828 13.28862190246582 199.0374755859375 -1.792500376701355 162.6269073486328 C 3.35508394241333 186.00718688964844 31.800390243530273 211.54864501953125 19.18311882019043 226.62469482421875" stroke-width="2.0" fill="none" stroke="rgb(0, 0, 0)" stroke-opacity="1" stroke-linecap="round" stroke-linejoin="round"/>
    <path d="M 173.22756958007812 141.00213623046875 C 150.41204833984375 171.47079467773438 155.80120849609375 180.95559692382812 154.77658081054688 153.9439239501953" stroke-width="2.0" fill="none" stroke="rgb(0, 0, 0)" stroke-opacity="1" stroke-linecap="round" stroke-linejoin="round"/>
    <path d="M 114.69437408447266 53.22356033325195 C 110.16593933105469 44.31773376464844 105.2765884399414 38.698299407958984 80.70329284667969 25.97459602355957" stroke-width="2.0" fill="none" stroke="rgb(0, 0, 0)" stroke-opacity="1" stroke-linecap="round" stroke-linejoin="round"/>
    <path d="M 113.9696044921875 226.40089416503906 C 94.16392517089844 170.74778747558594 84.28787231445312 185.63429260253906 89.17899322509766 187.63697814941406 C 105.80528259277344 231.70399475097656 105.93598175048828 227.57244873046875 101.47974395751953 238.44674682617188" stroke-width="2.0" fill="none" stroke="rgb(0, 0, 0)" stroke-opacity="1" stroke-linecap="round" stroke-linejoin="round"/>
    <path d="M 64.9742660522461 19.698841094970703 C 56.64459228515625 -1.6389304399490356 48.38868713378906 -16.998125076293945 93.7610855102539 12.077224731445312 C 112.24059295654297 38.74000930786133 81.87620544433594 -7.212489128112793 80.69476318359375 18.853771209716797" stroke-width="2.0" fill="none" stroke="rgb(0, 0, 0)" stroke-opacity="1" stroke-linecap="round" stroke-linejoin="round"/>
    <path d="M 139.0464630126953 162.5718536376953 C 101.45391845703125 126.67359161376953 97.22283172607422 138.42295837402344 102.78296661376953 117.19851684570312 C 100.3926010131836 135.72425842285156 89.378173828125 113.76910400390625 129.3153076171875 156.1180419921875" stroke-width="2.0" fill="none" stroke="rgb(0, 0, 0)" stroke-opacity="1" stroke-linecap="round" stroke-linejoin="round"/>
    <path d="M 106.11509704589844 9.804028511047363 C 87.44884490966797 -2.59708571434021 82.2748031616211 -13.25583267211914 91.62603759765625 -16.267038345336914" stroke-width="2.0" fill="none" stroke="rgb(0, 0, 0)" stroke-opacity="1" stroke-linecap="round" stroke-linejoin="round"/>
    <path d="M 148.27357482910156 156.7567596435547 C 127.80239868164062 171.69009399414062 133.2902069091797 161.19801330566406 148.3927764892578 167.9313507080078 C 156.07106018066406 164.9805450439453 190.79791259765625 152.20590209960938 148.85955810546875 142.49786376953125 C 147.7112274169922 127.74862670898438 133.6005859375 152.5635528564453 135.77911376953125 148.00804138183594" stroke-width="2.0" fill="none" stroke="rgb(0, 0, 0)" stroke-opacity="1" stroke-linecap="round" stroke-linejoin="round"/>
    <path d="M 210.31146240234375 181.63604736328125 C 219.41043090820312 171.1309356689453 224.7104949951172 184.98678588867188 235.9545440673828 170.8673553466797 C 191.81948852539062 175.1019287109375 184.7148895263672 161.0777587890625 197.8802032470703 172.68775939941406 C 180.26730346679688 142.13462829589844 194.44229125976562 125.97114562988281 189.5665283203125 164.5292205810547" stroke-width="2.0" fill="none" stroke="rgb(0, 0, 0)" stroke-opacity="1" stroke-linecap="round" stroke-linejoin="round"/>
    <path d="M 75.02824401855469 78.32588195800781 C 100.96529388427734 66.09443664550781 115.2213363647461 79.601318359375 98.82478332519531 75.79270935058594 C 108.7486343383789 72.56070709228516 108.82613372802734 86.18113708496094 121.11730194091797 86.82745361328125 C 86.2621841430664 105.97795104980469 92.18740844726562 100.2076416015625 91.64132690429688 103.34988403320312" stroke-width="2.0" fill="none" stroke="rgb(0, 0, 0)" stroke-opacity="1" stroke-linecap="round" stroke-linejoin="round"/>
    <path d="M 111.59109497070312 160.71177673339844 C 104.71747589111328 143.4977264404297 97.56490325927734 167.18887329101562 102.10865020751953 164.0703125 C 111.53564453125 162.983154296875 74.98098754882812 165.58258056640625 83.47357177734375 156.17141723632812" stroke-width="2.0" fill="none" stroke="rgb(0, 0, 0)" stroke-opacity="1" stroke-linecap="round" stroke-linejoin="round"/>
    <path d="M 60.49440383911133 122.18998718261719 C 78.16787719726562 100.1814193725586 56.1377067565918 132.1124267578125 88.62834167480469 106.39287567138672" stroke-width="2.0" fill="none" stroke="rgb(0, 0, 0)" stroke-opacity="1" stroke-linecap="round" stroke-linejoin="round"/>
    <path d="M 114.28361511230469 226.91685485839844 C 104.66432189941406 249.785888671875 104.94983673095703 241.981201171875 99.2245864868164 238.86669921875 C 117.20419311523438 227.267333984375 125.14130401611328 234.81674194335938 119.37919616699219 236.54263305664062" stroke-width="2.0" fill="none" stroke="rgb(0, 0, 0)" stroke-opacity="1" stroke-linecap="round" stroke-linejoin="round"/>
    <path d="M 168.0290069580078 73.1617431640625 C 200.8350067138672 82.33507537841797 181.41824340820312 87.41862487792969 162.4459228515625 72.89876556396484 C 191.97286987304688 104.87104797363281 172.5916290283203 102.79997253417969 174.8582000732422 94.87134552001953" stroke-width="2.0" fill="none" stroke="rgb(0, 0, 0)" stroke-opacity="1" stroke-linecap="round" stroke-linejoin="round"/>
    <path d="M 125.86219787597656 88.08045196533203 C 138.1988983154297 112.94395446777344 163.78944396972656 125.34193420410156 155.65866088867188 109.87861633300781 C 169.87158203125 105.78987121582031 137.0552520751953 116.27738189697266 127.2680892944336 86.68635559082031 C 148.2470703125 128.19094848632812 157.43804931640625 116.60102081298828 149.77224731445312 117.82052612304688" stroke-width="2.0" fill="none" stroke="rgb(0, 0, 0)" stroke-opacity="1" stroke-linecap="round" stroke-linejoin="round"/>
    <path d="M 179.4584503173828 106.7527847290039 C 225.67176818847656 127.92244720458984 264.5378112792969 106.96546936035156 202.92613220214844 82.87921905517578 C 201.60313415527344 69.95429229736328 207.0078582763672 95.17125701904297 230.82330322265625 91.81737518310547 C 217.71612548828125 72.06607055664062 236.85328674316406 71.33132934570312 229.65443420410156 57.83946990966797" stroke-width="2.0" fill="none" stroke="rgb(0, 0, 0)" stroke-opacity="1" stroke-linecap="round" stroke-linejoin="round"/>
    <path d="M 176.4609832763672 194.63990783691406 C 166.35006713867188 182.3702392578125 158.6105194091797 180.39553833007812 136.14573669433594 157.8553009033203" stroke-width="2.0" fill="none" stroke="rgb(0, 0, 0)" stroke-opacity="1" stroke-linecap="round" stroke-linejoin="round"/>
    <path d="M 175.8125457763672 90.0674819946289 C 162.22584533691406 69.37495422363281 153.65179443359375 66.1610336303711 136.1205596923828 68.85563659667969 C 138.0244598388672 81.72521209716797 146.54168701171875 70.85891723632812 102.62008666992188 69.6624526977539" stroke-width="2.0" fill="none" stroke="rgb(0, 0, 0)" stroke-opacity="1" stroke-linecap="round" stroke-linejoin="round"/>
    <path d="M 117.76311492919922 24.57767105102539 C 132.32022094726562 57.57328414916992 124.84671020507812 11.129573822021484 117.31600952148438 41.417457580566406 C 127.27896118164062 36.570343017578125 118.64358520507812 68.1445083618164 100.15022277832031 45.85734558105469 C 97.80105590820312 29.797773361206055 98.89990234375 32.06150817871094 103.23683166503906 74.00375366210938" stroke-width="2.0" fill="none" stroke="rgb(0, 0, 0)" stroke-opacity="1" stroke-linecap="round" stroke-linejoin="round"/>
    <path d="M 57.617645263671875 106.19031524658203 C 79.87076568603516 65.67198181152344 60.06063461303711 71.29228210449219 84.4389877319336 101.2699966430664 C 68.7491455078125 102.34632873535156 84.18977355957031 82.00962829589844 64.17833709716797 95.213134765625 C 42.79941177368164 78.31996154785156 51.16691970825195 77.97450256347656 50.53856658935547 101.99064636230469" stroke-width="2.0" fill="none" stroke="rgb(0, 0, 0)" stroke-opacity="1" stroke-linecap="round" stroke-linejoin="round"/>
    <path d="M 183.8492431640625 131.99671936035156 C 191.16493225097656 168.29403686523438 182.42918395996094 167.97406005859375 195.52610778808594 164.87815856933594 C 189.84263610839844 179.43788146972656 225.9759063720703 168.06573486328125 284.4596862792969 165.69754028320312" stroke-width="2.0" fill="none" stroke="rgb(0, 0, 0)" stroke-opacity="1" stroke-linecap="round" stroke-linejoin="round"/>
    <path d="M 216.08644104003906 245.1814422607422 C 223.71449279785156 210.88917541503906 217.2906951904297 188.09353637695312 187.85137939453125 165.38299560546875 C 176.6147918701172 177.42266845703125 174.152099609375 195.3192138671875 183.55079650878906 206.98809814453125" stroke-width="2.0" fill="none" stroke="rgb(0, 0, 0)" stroke-opacity="1" stroke-linecap="round" stroke-linejoin="round"/>
    <path d="M 142.0232696533203 109.40547943115234 C 122.34584045410156 89.18675994873047 113.96051788330078 86.14250946044922 96.20748901367188 73.81327819824219 C 117.86016845703125 84.4735107421875 104.1354751586914 79.05001068115234 90.75390625 63.587120056152344" stroke-width="2.0" fill="none" stroke="rgb(0, 0, 0)" stroke-opacity="1" stroke-linecap="round" stroke-linejoin="round"/>
    <path d="M -5.056364059448242 51.105308532714844 C 0.9502242803573608 54.44289779663086 -3.36769700050354 54.162593841552734 7.725244998931885 98.56058502197266 C 17.606586456298828 100.52332305908203 1.7663415670394897 67.154296875 -1.1054328680038452 54.27324676513672 C 13.173763275146484 44.14703369140625 40.01394271850586 43.23639678955078 -6.388731956481934 55.50423812866211" stroke-width="2.0" fill="none" stroke="rgb(0, 0, 0)" stroke-opacity="1" stroke-linecap="round" stroke-linejoin="round"/>
    <path d="M 229.71090698242188 69.48477935791016 C 224.37193298339844 50.171051025390625 226.84616088867188 41.42673110961914 229.99757385253906 32.054771423339844" stroke-width="2.0" fill="none" stroke="rgb(0, 0, 0)" stroke-opacity="1" stroke-linecap="round" stroke-linejoin="round"/>
    <path d="M 123.40211486816406 110.69989776611328 C 173.25694274902344 108.15042877197266 171.80262756347656 101.08998107910156 151.92068481445312 123.32730865478516" stroke-width="2.0" fill="none" stroke="rgb(0, 0, 0)" stroke-opacity="1" stroke-linecap="round" stroke-linejoin="round"/>
    <path d="M 128.17298889160156 156.8423614501953 C 153.8509521484375 139.85304260253906 143.04212951660156 185.4234161376953 132.85211181640625 176.60520935058594 C 150.9622344970703 178.57318115234375 166.12124633789062 181.0485076904297 181.19461059570312 206.32904052734375" stroke-width="2.0" fill="none" stroke="rgb(0, 0, 0)" stroke-opacity="1" stroke-linecap="round" stroke-linejoin="round"/>
    <path d="M 196.58670043945312 44.39468002319336 C 202.4915008544922 55.20875549316406 184.99583435058594 47.17412567138672 191.78302001953125 59.23688888549805 C 176.03550720214844 63.96072006225586 179.31304931640625 68.96849822998047 179.47203063964844 48.3812370300293" stroke-width="2.0" fill="none" stroke="rgb(0, 0, 0)" stroke-opacity="1" stroke-linecap="round" stroke-linejoin="round"/>
    <path d="M 209.35983276367188 183.43519592285156 C 183.99356079101562 157.2906951904297 157.3087158203125 152.9792938232422 195.69284057617188 160.30596923828125 C 174.8966522216797 141.19342041015625 180.88436889648438 176.4187774658203 211.24806213378906 162.12789916992188 C 223.17507934570312 182.48312377929688 200.80516052246094 161.1510467529297 198.23313903808594 170.73765563964844" stroke-width="2.0" fill="none" stroke="rgb(0, 0, 0)" stroke-opacity="1" stroke-linecap="round" stroke-linejoin="round"/>
    <path d="M 149.34129333496094 98.68295288085938 C 153.8003692626953 96.23860931396484 137.1202392578125 101.18350982666016 118.99764251708984 103.93383026123047 C 124.08553314208984 134.52113342285156 88.43106079101562 116.3544692993164 95.57124328613281 121.93832397460938 C 63.76783752441406 116.86619567871094 69.33557891845703 98.47541809082031 97.6767578125 117.01451110839844" stroke-width="2.0" fill="none" stroke="rgb(0, 0, 0)" stroke-opacity="1" stroke-linecap="round" stroke-linejoin="round"/>
    <path d="M 169.86868286132812 134.2906494140625 C 178.001953125 146.4558868408203 189.43955993652344 128.88328552246094 192.25131225585938 115.91248321533203 C 166.68106079101562 139.3889617919922 174.04148864746094 121.46282196044922 191.31295776367188 117.07366180419922" stroke-width="2.0" fill="none" stroke="rgb(0, 0, 0)" stroke-opacity="1" stroke-linecap="round" stroke-linejoin="round"/>
    <path d="M 139.83203125 18.882299423217773 C 141.96743774414062 40.69218063354492 132.35763549804688 2.3448376655578613 133.2100830078125 21.16871452331543 C 113.341064453125 34.773963928222656 110.82650756835938 23.000757217407227 120.02146911621094 21.94119644165039 C 101.2215805053711 -4.215168476104736 117.24859619140625 20.80577850341797 127.07939147949219 -10.946001052856445" stroke-width="2.0" fill="none" stroke="rgb(0, 0, 0)" stroke-opacity="1" stroke-linecap="round" stroke-linejoin="round"/>
    <path d="M 62.286903381347656 28.452768325805664 C 49.69361877441406 20.508914947509766 30.390323638916016 15.381396293640137 30.868898391723633 -6.8274312019348145" stroke-width="2.0" fill="none" stroke="rgb(0, 0, 0)" stroke-opacity="1" stroke-linecap="round" stroke-linejoin="round"/>
    <path d="M 204.9292449951172 61.32987976074219 C 190.19358825683594 42.51742935180664 161.66526794433594 57.11469650268555 192.5817108154297 63.51207733154297 C 191.54742431640625 54.16286087036133 195.35494995117188 73.74939727783203 225.67564392089844 50.26179122924805" stroke-width="2.0" fill="none" stroke="rgb(0, 0, 0)" stroke-opacity="1" stroke-linecap="round" stroke-linejoin="round"/>
    <path d="M 91.81227111816406 142.319091796875 C 86.72855377197266 135.04319763183594 82.49520874023438 158.71434020996094 84.42388916015625 138.16551208496094 C 102.20853424072266 173.4051971435547 101.99776458740234 168.94944763183594 82.69403076171875 135.71298217773438 C 82.21116638183594 176.22018432617188 98.64681243896484 194.08335876464844 82.28251647949219 160.96299743652344" stroke-width="2.0" fill="none" stroke="rgb(0, 0, 0)" stroke-opacity="1" stroke-linecap="round" stroke-linejoin="round"/>
    <path d="M 109.18505859375 83.2921142578125 C 127.4011459350586 61.95256805419922 101.83312225341797 70.8664779663086 99.8844223022461 73.31275177001953 C 108.71339416503906 90.38399505615234 121.76227569580078 71.85611724853516 92.69317626953125 93.65604400634766" stroke-width="2.0" fill="none" stroke="rgb(0, 0, 0)" stroke-opacity="1" stroke-linecap="round" stroke-linejoin="round"/>
    <path d="M 169.267333984375 62.71711349487305 C 140.184814453125 63.734439849853516 116.20060729980469 69.67112731933594 160.25967407226562 80.16453552246094" stroke-width="2.0" fill="none" stroke="rgb(0, 0, 0)" stroke-opacity="1" stroke-linecap="round" stroke-linejoin="round"/>
    <path d="M 165.5197296142578 188.26699829101562 C 180.13487243652344 214.4037628173828 188.79608154296875 211.39588928222656 156.78305053710938 225.5992889404297 C 147.5970001220703 208.97021484375 152.70913696289062 228.17892456054688 179.55856323242188 223.33494567871094" stroke-width="2.0" fill="none" stroke="rgb(0, 0, 0)" stroke-opacity="1" stroke-linecap="round" stroke-linejoin="round"/>
    <path d="M 133.7664031982422 156.1263885498047 C 162.12425231933594 168.72164916992188 145.26058959960938 151.99917602539062 103.4028091430664 124.3215103149414 C 169.84141540527344 148.0777130126953 169.33006286621094 167.21922302246094 147.14425659179688 139.4669647216797 C 148.64678955078125 128.80288696289062 125.38458251953125 134.51821899414062 150.916748046875 149.2764129638672" stroke-width="2.0" fill="none" stroke="rgb(0, 0, 0)" stroke-opacity="1" stroke-linecap="round" stroke-linejoin="round"/>
    <path d="M 52.232940673828125 30.650402069091797 C 1.2715144157409668 29.697036743164062 -4.793633937835693 14.818708419799805 42.20603561401367 28.16534996032715 C 5.950304985046387 27.686565399169922 -2.884110450744629 24.539161682128906 40.75896453857422 41.83485412597656 C 41.43703079223633 33.01667404174805 49.679195404052734 -5.874781608581543 35.947044372558594 8.311256408691406" stroke-width="2.0" fill="none" stroke="rgb(0, 0, 0)" stroke-opacity="1" stroke-linecap="round" stroke-linejoin="round"/>
    <path d="M 98.10362243652344 142.8332061767578 C 103.4277572631836 162.1337432861328 136.9298553466797 169.69862365722656 93.3250732421875 181.87799072265625" stroke-width="2.0" fill="none" stroke="rgb(0, 0, 0)" stroke-opacity="1" stroke-linecap="round" stroke-linejoin="round"/>
    <path d="M 159.85057067871094 144.02992248535156 C 138.79859924316406 140.49986267089844 166.9136505126953 107.17047119140625 193.565185546875 89.25696563720703 C 159.61233520507812 102.06936645507812 169.65708923339844 115.82125854492188 167.7477264404297 90.96592712402344" stroke-width="2.0" fill="none" stroke="rgb(0, 0, 0)" stroke-opacity="1" stroke-linecap="round" stroke-linejoin="round"/>
    <path d="M 24.610763549804688 44.245079040527344 C 21.24873924255371 63.509132385253906 37.17347717285156 70.79147338867188 19.313312530517578 57.37489700317383 C 8.272686004638672 72.78433227539062 30.42708969116211 68.97891998291016 20.824634552001953 63.60798645019531 C -15.262617111206055 90.4508285522461 -21.215003967285156 90.8103256225586 20.062326431274414 88.85613250732422" stroke-width="2.0" fill="none" stroke="rgb(0, 0, 0)" stroke-opacity="1" stroke-linecap="round" stroke-linejoin="round"/>
    <path d="M 170.4596405029297 148.9441680908203 C 150.08204650878906 172.0200653076172 155.0098114013672 200.84251403808594 127.87462615966797 165.0332489013672 C 174.52764892578125 187.69656372070312 172.99905395507812 201.76312255859375 158.74647521972656 184.40061950683594 C 144.99835205078125 199.03842163085938 123.71956634521484 218.15394592285156 127.58949279785156 214.7069854736328" stroke-width="2.0" fill="none" stroke="rgb(0, 0, 0)" stroke-opacity="1" stroke-linecap="round" stroke-linejoin="round"/>
    <path d="M 86.61900329589844 190.81459045410156 C 93.59520721435547 172.42848205566406 84.90325927734375 206.71719360351562 96.760009765625 185.9523468017578 C 103.23591613769531 155.7193603515625 86.58902740478516 185.58523559570312 76.51232147216797 189.41696166992188" stroke-width="2.0" fill="none" stroke="rgb(0, 0, 0)" stroke-opacity="1" stroke-linecap="round" stroke-linejoin="round"/>
    <path d="M 194.8479461669922 59.380516052246094 C 115.49691772460938 66.71781921386719 131.3766326904297 62.599449157714844 171.65902709960938 66.82930755615234 C 91.26018524169922 70.1378402709961 112.5282211303711 70.31270599365234 172.64114379882812 57.36487579345703 C 91.57553100585938 59.200164794921875 130.1412353515625 60.38691329956055 153.57437133789062 72.6353988647461" stroke-width="2.0" fill="none" stroke="rgb(0, 0, 0)" stroke-opacity="1" stroke-linecap="round" stroke-linejoin="round"/>
    <path d="M 208.43031311035156 137.81057739257812 C 202.7936553955078 148.7198028564453 223.00491333007812 141.2567138671875 232.36257934570312 158.83799743652344 C 232.59530639648438 182.58888244628906 231.88052368164062 190.25262451171875 198.7532958984375 173.02163696289062" stroke-width="2.0" fill="none" stroke="rgb(0, 0, 0)" stroke-opacity="1" stroke-linecap="round" stroke-linejoin="round"/>
    <path d="M 142.68719482421875 118.64281463623047 C 117.3607406616211 121.90727233886719 152.17822265625 106.7539291381836 154.05178833007812 125.14799499511719" stroke-width="2.0" fill="none" stroke="rgb(0, 0, 0)" stroke-opacity="1" stroke-linecap="round" stroke-linejoin="round"/>
    <path d="M 164.849365234375 126.368896484375 C 177.4064178466797 112.18168640136719 170.22024536132812 144.00503540039062 140.62413024902344 142.24639892578125 C 145.70599365234375 133.5885467529297 185.37779235839844 143.7510528564453 135.97938537597656 130.45962524414062" stroke-width="2.0" fill="none" stroke="rgb(0, 0, 0)" stroke-opacity="1" stroke-linecap="round" stroke-linejoin="round"/>
    <path d="M 159.25331115722656 235.31137084960938 C 164.82656860351562 222.7217254638672 144.0032196044922 219.2852325439453 98.15218353271484 226.70526123046875" stroke-width="2.0" fill="none" stroke="rgb(0, 0, 0)" stroke-opacity="1" stroke-linecap="round" stroke-linejoin="round"/>
    <path d="M 44.558284759521484 29.055522918701172 C 93.33721160888672 57.08583450317383 81.73407745361328 55.403404235839844 52.074951171875 59.1468620300293 C 45.36998748779297 106.25450897216797 47.944637298583984 89.34394836425781 27.223243713378906 105.39196014404297" stroke-width="2.0" fill="none" stroke="rgb(0, 0, 0)" stroke-opacity="1" stroke-linecap="round" stroke-linejoin="round"/>
    <path d="M 179.05490112304688 153.83285522460938 C 154.4651336669922 179.05221557617188 170.2052459716797 170.1326446533203 155.470703125 154.2177276611328" stroke-width="2.0" fill="none" stroke="rgb(0, 0, 0)" stroke-opacity="1" stroke-linecap="round" stroke-linejoin="round"/>
    <path d="M 235.5132293701172 66.05810546875 C 218.0822296142578 76.14240264892578 187.5819091796875 80.61300659179688 196.37835693359375 63.645931243896484" stroke-width="2.0" fill="none" stroke="rgb(0, 0, 0)" stroke-opacity="1" stroke-linecap="round" stroke-linejoin="round"/>
    <path d="M 177.201416015625 124.64723205566406 C 139.15411376953125 188.3618621826172 157.31613159179688 178.8090362548828 191.22885131835938 120.17499542236328" stroke-width="2.0" fill="none" stroke="rgb(0, 0, 0)" stroke-opacity="1" stroke-linecap="round" stroke-linejoin="round"/>
    <path d="M 132.19598388671875 205.11843872070312 C 124.6301040649414 198.1611785888672 129.85626220703125 195.41641235351562 125.23274993896484 220.1231689453125 C 110.64372253417969 217.76895141601562 110.2698745727539 218.14093017578125 153.1603240966797 215.16392517089844 C 150.47535705566406 229.75558471679688 160.77586364746094 214.1539306640625 175.2251739501953 205.40447998046875" stroke-width="2.0" fill="none" stroke="rgb(0, 0, 0)" stroke-opacity="1" stroke-linecap="round" stroke-linejoin="round"/>
    <path d="M 77.12108612060547 48.875205993652344 C 36.975006103515625 28.22265625 43.05458068847656 31.391149520874023 35.32724380493164 39.45048141479492" stroke-width="2.0" fill="none" stroke="rgb(0, 0, 0)" stroke-opacity="1" stroke-linecap="round" stroke-linejoin="round"/>
    <path d="M 224.6389923095703 29.75676727294922 C 194.19276428222656 51.572975158691406 194.91680908203125 64.16197204589844 203.01742553710938 42.413631439208984 C 182.16673278808594 54.404624938964844 167.6297149658203 56.12736892700195 180.84304809570312 63.94756317138672" stroke-width="2.0" fill="none" stroke="rgb(0, 0, 0)" stroke-opacity="1" stroke-linecap="round" stroke-linejoin="round"/>
    <path d="M 41.206748962402344 28.03384017944336 C 37.30214309692383 52.41348648071289 63.09413146972656 44.26320266723633 49.53089904785156 34.770606994628906 C 45.737579345703125 46.711204528808594 39.8265495300293 48.95682144165039 50.351036071777344 26.03642463684082" stroke-width="2.0" fill="none" stroke="rgb(0, 0, 0)" stroke-opacity="1" stroke-linecap="round" stroke-linejoin="round"/>
    <path d="M 62.03921127319336 210.9509735107422 C 107.9225082397461 178.1603240966797 65.03148651123047 184.65066528320312 79.90658569335938 196.3273162841797 C 42.10154724121094 243.711669921875 27.81538200378418 225.32247924804688 66.49358367919922 230.07801818847656" stroke-width="2.0" fill="none" stroke="rgb(0, 0, 0)" stroke-opacity="1" stroke-linecap="round" stroke-linejoin="round"/>
    <path d="M 83.9902114868164 94.48886108398438 C 92.61273956298828 110.45232391357422 58.423397064208984 98.26891326904297 103.62594604492188 74.25679016113281 C 98.565673828125 76.17044830322266 74.36358642578125 61.174495697021484 75.68170166015625 57.44970703125 C 45.80677795410156 45.64659881591797 65.30856323242188 44.12092208862305 91.28533172607422 67.72345733642578" stroke-width="2.0" fill="none" stroke="rgb(0, 0, 0)" stroke-opacity="1" stroke-linecap="round" stroke-linejoin="round"/>
    <path d="M 58.492774963378906 98.02232360839844 C 29.26190948486328 62.132537841796875 87.76707458496094 109.16515350341797 48.91171646118164 70.90461730957031 C 69.01898956298828 65.80553436279297 87.14164733886719 59.877994537353516 93.17588806152344 68.42831420898438" stroke-width="2.0" fill="none" stroke="rgb(0, 0, 0)" stroke-opacity="1" stroke-linecap="round" stroke-linejoin="round"/>
    <path d="M 172.78126525878906 58.543453216552734 C 114.86314392089844 50.087528228759766 116.17068481445312 70.29457092285156 106.13446807861328 69.54653930664062 C 122.32544708251953 50.16255187988281 126.03128051757812 33.32202911376953 165.80467224121094 14.015783309936523 C 137.1995391845703 -10.973674774169922 149.54669189453125 21.435779571533203 177.0066680908203 41.95389938354492" stroke-width="2.0" fill="none" stroke="rgb(0, 0, 0)" stroke-opacity="1" stroke-linecap="round" stroke-linejoin="round"/>
    <path d="M 102.1541976928711 127.70021057128906 C 136.73768615722656 150.90663146972656 119.59780883789062 145.929443359375 115.62506866455078 152.8155059814453 C 157.04861450195312 120.45852661132812 154.50521850585938 134.74356079101562 114.59546661376953 165.15908813476562" stroke-width="2.0" fill="none" stroke="rgb(0, 0, 0)" stroke-opacity="1" stroke-linecap="round" stroke-linejoin="round"/>
    <path d="M 102.90559387207031 181.6484375 C 109.83495330810547 170.3085174560547 134.34722900390625 178.34213256835938 157.3192596435547 182.6677703857422 C 162.54664611816406 214.8170928955078 158.2144775390625 175.5687255859375 171.944580078125 194.12728881835938 C 131.74850463867188 177.3148193359375 142.79669189453125 174.99644470214844 162.48182678222656 188.63584899902344" stroke-width="2.0" fill="none" stroke="rgb(0, 0, 0)" stroke-opacity="1" stroke-linecap="round" stroke-linejoin="round"/>
    <path d="M 37.64009094238281 110.6690902709961 C 25.763038635253906 121.60851287841797 55.86448287963867 113.42428588867188 29.693340301513672 105.22501373291016 C -6.624766826629639 110.00359344482422 16.054786682128906 93.94794464111328 38.480316162109375 102.7076416015625 C 50.39929962158203 77.37001037597656 2.118506908416748 67.73225402832031 31.757986068725586 71.22130584716797" stroke-width="2.0" fill="none" stroke="rgb(0, 0, 0)" stroke-opacity="1" stroke-linecap="round" stroke-linejoin="round"/>
    <path d="M 13.373102188110352 164.06727600097656 C 11.02319622039795 149.12722778320312 49.34444808959961 167.84840393066406 63.75141525268555 208.13699340820312" stroke-width="2.0" fill="none" stroke="rgb(0, 0, 0)" stroke-opacity="1" stroke-linecap="round" stroke-linejoin="round"/>
    <path d="M 60.38076400756836 42.01582336425781 C 63.842403411865234 56.09197235107422 30.03562355041504 31.471216201782227 76.97926330566406 58.50455856323242" stroke-width="2.0" fill="none" stroke="rgb(0, 0, 0)" stroke-opacity="1" stroke-linecap="round" stroke-linejoin="round"/>
    <path d="M -9.863933563232422 19.196331024169922 C 6.612353801727295 17.189064025878906 -2.7402877807617188 1.1864475011825562 20.26449203491211 0.5998228788375854 C 38.926483154296875 40.13990783691406 34.533443450927734 38.07620620727539 -8.801599502563477 34.00982666015625 C 1.0896708965301514 14.040322303771973 11.11974811553955 -7.812773704528809 20.0528621673584 10.985651016235352" stroke-width="2.0" fill="none" stroke="rgb(0, 0, 0)" stroke-opacity="1" stroke-linecap="round" stroke-linejoin="round"/>
    <path d="M 215.6489715576172 201.57554626464844 C 168.27670288085938 207.2190399169922 161.27040100097656 229.89427185058594 186.53578186035156 185.24134826660156 C 191.33412170410156 214.46206665039062 176.3065948486328 194.923095703125 215.64755249023438 197.1365966796875 C 157.9209442138672 206.97250366210938 166.3406524658203 224.2601318359375 184.2845458984375 201.75550842285156" stroke-width="2.0" fill="none" stroke="rgb(0, 0, 0)" stroke-opacity="1" stroke-linecap="round" stroke-linejoin="round"/>
    <path d="M 107.52006530761719 103.85883331298828 C 69.44640350341797 104.53713989257812 72.61161041259766 115.37237548828125 108.93616485595703 100.43326568603516 C 49.80307388305664 113.41344451904297 86.1983642578125 118.79480743408203 111.20475769042969 95.58296966552734 C 68.7170639038086 117.86064147949219 73.44599914550781 89.85747528076172 73.45367431640625 103.10267639160156" stroke-width="2.0" fill="none" stroke="rgb(0, 0, 0)" stroke-opacity="1" stroke-linecap="round" stroke-linejoin="round"/>
    <path d="M 82.90798950195312 158.51998901367188 C 70.41311645507812 177.61485290527344 59.91864776611328 194.93380737304688 87.93440246582031 154.4590301513672 C 71.44967651367188 189.68496704101562 46.770809173583984 199.24993896484375 42.85953903198242 150.11349487304688 C 66.58557891845703 190.7016143798828 75.92391967773438 195.98995971679688 83.7852554321289 187.33885192871094" stroke-width="2.0" fill="none" stroke="rgb(0, 0, 0)" stroke-opacity="1" stroke-linecap="round" stroke-linejoin="round"/>
    <path d="M 196.2095184326172 153.46656799316406 C 170.1796112060547 149.78746032714844 152.95201110839844 134.18887329101562 142.9508056640625 140.5967559814453 C 158.80734252929688 136.8004608154297 151.9786376953125 119.117919921875 116.39171600341797 125.4258041381836 C 135.49978637695312 161.9864959716797 152.52438354492188 168.19500732421875 135.73451232910156 148.81704711914062" stroke-width="2.0" fill="none" stroke="rgb(0, 0, 0)" stroke-opacity="1" stroke-linecap="round" stroke-linejoin="round"/>
    <path d="M 37.97178649902344 172.7294464111328 C 14.047395706176758 145.76661682128906 11.054956436157227 148.22988891601562 -6.138245105743408 151.73460388183594 C -23.56557846069336 169.95948791503906 -17.693992614746094 167.8956298828125 19.019880294799805 155.0513458251953" stroke-width="2.0" fill="none" stroke="rgb(0, 0, 0)" stroke-opacity="1" stroke-linecap="round" stroke-linejoin="round"/>
    <path d="M 52.00975799560547 110.86942291259766 C 32.730987548828125 144.3937225341797 67.24479675292969 138.14569091796875 31.802797317504883 126.96001434326172" stroke-width="2.0" fill="none" stroke="rgb(0, 0, 0)" stroke-opacity="1" stroke-linecap="round" stroke-linejoin="round"/>
    <path d="M 14.269693374633789 134.06570434570312 C -0.039376400411129 153.2595672607422 11.525970458984375 183.1510009765625 22.358694076538086 150.75328063964844 C 45.101966857910156 160.75335693359375 35.6513786315918 171.5945587158203 44.73051071166992 107.92540740966797" stroke-width="2.0" fill="none" stroke="rgb(0, 0, 0)" stroke-opacity="1" stroke-linecap="round" stroke-linejoin="round"/>
    <path d="M 104.3449478149414 71.42472076416016 C 164.76210021972656 81.70664978027344 134.55979919433594 93.27643585205078 156.8492431640625 76.35204315185547 C 145.9966583251953 80.6065902709961 152.1415252685547 85.05243682861328 179.88790893554688 98.99424743652344 C 139.62139892578125 138.1983184814453 147.5572509765625 153.5474090576172 170.21990966796875 122.7200927734375" stroke-width="2.0" fill="none" stroke="rgb(0, 0, 0)" stroke-opacity="1" stroke-linecap="round" stroke-linejoin="round"/>
    <path d="M 99.57504272460938 131.50328063964844 C 106.07801818847656 113.28787994384766 103.31816864013672 142.4056396484375 89.45317840576172 128.0076446533203" stroke-width="2.0" fill="none" stroke="rgb(0, 0, 0)" stroke-opacity="1" stroke-linecap="round" stroke-linejoin="round"/>
    <path d="M 180.14102172851562 -11.84308910369873 C 178.71405029296875 2.7170732021331787 177.89529418945312 -0.06467963010072708 188.7406768798828 -14.630066871643066 C 186.19007873535156 -3.9693589210510254 166.82981872558594 -4.620168209075928 181.27171325683594 -9.342513084411621 C 219.8348846435547 5.368268966674805 237.3831787109375 1.6390334367752075 233.61697387695312 -0.47264841198921204" stroke-width="2.0" fill="none" stroke="rgb(0, 0, 0)" stroke-opacity="1" stroke-linecap="round" stroke-linejoin="round"/>
    <path d="M 32.54297637939453 216.0287322998047 C 0.609312891960144 213.9513397216797 0.15887244045734406 217.57257080078125 -7.7202887535095215 208.30307006835938 C -6.158206462860107 211.72811889648438 6.512988090515137 214.57728576660156 -2.9969732761383057 225.05589294433594" stroke-width="2.0" fill="none" stroke="rgb(0, 0, 0)" stroke-opacity="1" stroke-linecap="round" stroke-linejoin="round"/>
    <path d="M 149.64724731445312 68.54222106933594 C 135.3391571044922 88.21627807617188 117.40447235107422 98.44623565673828 125.52203369140625 89.72442626953125" stroke-width="2.0" fill="none" stroke="rgb(0, 0, 0)" stroke-opacity="1" stroke-linecap="round" stroke-linejoin="round"/>
    <path d="M 3.823857545852661 154.99342346191406 C 0.07938282191753387 165.7659912109375 24.648067474365234 194.56570434570312 32.85713577270508 217.0169677734375 C 35.74853515625 192.76080322265625 24.5723876953125 218.7553253173828 31.04852294921875 199.78604125976562 C 43.91568374633789 210.10189819335938 43.85190200805664 227.20684814453125 30.382614135742188 237.15980529785156" stroke-width="2.0" fill="none" stroke="rgb(0, 0, 0)" stroke-opacity="1" stroke-linecap="round" stroke-linejoin="round"/>
    <path d="M 29.518932342529297 146.7162322998047 C 46.103599548339844 156.55108642578125 49.4549560546875 137.5074005126953 93.52113342285156 128.69522094726562 C 36.947303771972656 163.14517211914062 22.19683837890625 162.7611083984375 52.51008224487305 160.99667358398438 C 34.959835052490234 177.38739013671875 44.13574981689453 162.68023681640625 82.22087860107422 141.8849639892578" stroke-width="2.0" fill="none" stroke="rgb(0, 0, 0)" stroke-opacity="1" stroke-linecap="round" stroke-linejoin="round"/>
    <path d="M 204.3171844482422 121.78585815429688 C 239.59292602539062 129.32606506347656 222.66867065429688 120.29666137695312 199.9739227294922 124.79043579101562 C 200.5363006591797 117.55098724365234 178.89730834960938 124.89563751220703 229.94383239746094 128.80889892578125 C 150.1996612548828 131.0432891845703 155.9237823486328 129.54930114746094 228.225830078125 136.449462890625" stroke-width="2.0" fill="none" stroke="rgb(0, 0, 0)" stroke-opacity="1" stroke-linecap="round" stroke-linejoin="round"/>
    <path d="M 55.790924072265625 211.7289276123047 C 55.09733200073242 227.96141052246094 50.17962646484375 221.00396728515625 76.19178771972656 196.99664306640625" stroke-width="2.0" fill="none" stroke="rgb(0, 0, 0)" stroke-opacity="1" stroke-linecap="round" stroke-linejoin="round"/>
    <path d="M 72.6899185180664 203.5615234375 C 116.89354705810547 170.02061462402344 126.41513061523438 167.1463623046875 124.02449798583984 200.77149963378906 C 103.42271423339844 175.74534606933594 101.75996398925781 161.544677734375 110.05193328857422 170.47373962402344" stroke-width="2.0" fill="none" stroke="rgb(0, 0, 0)" stroke-opacity="1" stroke-linecap="round" stroke-linejoin="round"/>
    <path d="M 165.17877197265625 86.4922103881836 C 156.007080078125 108.32893371582031 150.60659790039062 111.28004455566406 135.13267517089844 93.82339477539062 C 145.19876098632812 91.9197769165039 145.17808532714844 75.64959716796875 155.64369201660156 123.34479522705078" stroke-width="2.0" fill="none" stroke="rgb(0, 0, 0)" stroke-opacity="1" stroke-linecap="round" stroke-linejoin="round"/>
    <path d="M 231.52890014648438 155.92864990234375 C 176.474853515625 138.60922241210938 177.29586791992188 128.08132934570312 196.81240844726562 171.14306640625 C 171.3649444580078 154.0135498046875 186.53985595703125 141.8431854248047 165.0364990234375 172.55780029296875 C 159.6687774658203 172.42095947265625 186.02415466308594 183.29237365722656 200.31886291503906 194.0266876220703" stroke-width="2.0" fill="none" stroke="rgb(0, 0, 0)" stroke-opacity="1" stroke-linecap="round" stroke-linejoin="round"/>
    <path d="M 223.764404296875 117.25424194335938 C 219.30482482910156 155.11737060546875 228.43397521972656 161.30355834960938 238.3551483154297 149.94873046875 C 218.13121032714844 148.71266174316406 220.4612274169922 134.1503448486328 231.2030487060547 114.7766342163086" stroke-width="2.0" fill="none" stroke="rgb(0, 0, 0)" stroke-opacity="1" stroke-linecap="round" stroke-linejoin="round"/>
    <path d="M 128.82199096679688 63.29793167114258 C 103.08660125732422 72.84451293945312 119.08576965332031 56.384708404541016 175.0012664794922 59.75438690185547 C 102.65996551513672 63.089447021484375 108.68331146240234 62.62336730957031 161.35110473632812 49.3509635925293 C 124.19393920898438 58.66910934448242 132.21885681152344 54.64775466918945 176.7675323486328 49.2137565612793" stroke-width="2.0" fill="none" stroke="rgb(0, 0, 0)" stroke-opacity="1" stroke-linecap="round" stroke-linejoin="round"/>
    <path d="M 188.40626525878906 164.20684814453125 C 155.90914916992188 146.7698516845703 135.42250061035156 130.4989776611328 153.12310791015625 137.49378967285156 C 146.49342346191406 125.58299255371094 142.07785034179688 103.03750610351562 132.10948181152344 89.14132690429688 C 164.2860107421875 137.92494201660156 152.9443359375 158.6292266845703 176.45208740234375 122.76667022705078" stroke-width="2.0" fill="none" stroke="rgb(0, 0, 0)" stroke-opacity="1" stroke-linecap="round" stroke-linejoin="round"/>
  </g>
</svg>
