<?xml version="1.0" ?>
<svg xmlns="http://www.w3.org/2000/svg" version="1.1" width="224" height="224">
  <defs/>
  <g>
    <path d="M 48.09654998779297 166.21493530273438 C 82.07911682128906 173.9458465576172 48.11247634887695 167.1369171142578 50.68074417114258 166.8742218017578 C 46.004608154296875 173.5234832763672 60.090126037597656 178.8118438720703 86.63931274414062 172.51402282714844 C 37.26683807373047 168.5101318359375 36.25637435913086 162.71092224121094 77.93180847167969 181.79397583007812" stroke-width="2.0" fill="none" stroke="rgb(0, 0, 0)" stroke-opacity="1" stroke-linecap="round" stroke-linejoin="round"/>
    <path d="M 194.53880310058594 29.521516799926758 C 210.9272918701172 53.72309875488281 193.2526092529297 44.46140670776367 187.81602478027344 57.26662063598633" stroke-width="2.0" fill="none" stroke="rgb(0, 0, 0)" stroke-opacity="1" stroke-linecap="round" stroke-linejoin="round"/>
    <path d="M 82.93695068359375 38.38331985473633 C 105.04071044921875 22.2855167388916 96.76420593261719 10.337604522705078 85.34430694580078 -2.5622076988220215 C 111.1546859741211 14.306694030761719 67.76640319824219 13.91740894317627 61.543922424316406 9.758198738098145 C 89.94290924072266 25.30259895324707 63.88338088989258 38.74720001220703 84.13703155517578 34.11051559448242" stroke-width="2.0" fill="none" stroke="rgb(0, 0, 0)" stroke-opacity="1" stroke-linecap="round" stroke-linejoin="round"/>
    <path d="M 160.66671752929688 155.28623962402344 C 144.70608520507812 166.97801208496094 152.1154022216797 170.0566864013672 178.016357421875 162.25228881835938 C 158.89613342285156 177.9668731689453 151.8189239501953 161.8671417236328 165.55364990234375 139.86691284179688" stroke-width="2.0" fill="none" stroke="rgb(0, 0, 0)" stroke-opacity="1" stroke-linecap="round" stroke-linejoin="round"/>
    <path d="M 195.94744873046875 148.10140991210938 C 231.4649200439453 150.79595947265625 225.099853515625 127.67029571533203 222.0052490234375 139.7538299560547 C 199.72549438476562 145.06692504882812 189.86842346191406 145.2638397216797 183.8197021484375 156.21835327148438" stroke-width="2.0" fill="none" stroke="rgb(0, 0, 0)" stroke-opacity="1" stroke-linecap="round" stroke-linejoin="round"/>
    <path d="M 0.2329084426164627 197.03704833984375 C 19.412736892700195 163.51368713378906 7.201827049255371 162.6605682373047 9.983124732971191 154.6165313720703 C 9.661764144897461 152.03636169433594 2.354095458984375 165.34303283691406 13.580821990966797 153.63803100585938" stroke-width="2.0" fill="none" stroke="rgb(0, 0, 0)" stroke-opacity="1" stroke-linecap="round" stroke-linejoin="round"/>
    <path d="M 101.15145111083984 170.5981903076172 C 103.18257141113281 154.97027587890625 97.02635955810547 138.27377319335938 109.03543090820312 140.0680389404297 C 126.70724487304688 125.1662826538086 109.5134506225586 93.43952178955078 118.60403442382812 130.76937866210938 C 175.43003845214844 124.6153793334961 134.33120727539062 136.23265075683594 123.92211151123047 105.0403823852539" stroke-width="2.0" fill="none" stroke="rgb(0, 0, 0)" stroke-opacity="1" stroke-linecap="round" stroke-linejoin="round"/>
    <path d="M 78.69487762451172 178.11187744140625 C 71.18099975585938 193.4943389892578 75.95735931396484 166.14344787597656 80.45056915283203 196.9679718017578" stroke-width="2.0" fill="none" stroke="rgb(0, 0, 0)" stroke-opacity="1" stroke-linecap="round" stroke-linejoin="round"/>
    <path d="M 63.89413070678711 84.56067657470703 C 49.9560661315918 94.6810302734375 65.40221405029297 63.18812561035156 61.1851921081543 92.21696472167969" stroke-width="2.0" fill="none" stroke="rgb(0, 0, 0)" stroke-opacity="1" stroke-linecap="round" stroke-linejoin="round"/>
    <path d="M 156.8632049560547 182.15872192382812 C 177.98876953125 186.01144409179688 160.8195037841797 203.81304931640625 160.76527404785156 209.86036682128906 C 179.83480834960938 187.91317749023438 168.72250366210938 175.19480895996094 146.1038055419922 186.3274383544922" stroke-width="2.0" fill="none" stroke="rgb(0, 0, 0)" stroke-opacity="1" stroke-linecap="round" stroke-linejoin="round"/>
    <path d="M 163.52601623535156 155.2186279296875 C 171.8646240234375 140.3105010986328 162.73291015625 129.9249725341797 165.61477661132812 149.4599609375 C 142.17420959472656 115.90099334716797 144.88511657714844 110.7246322631836 163.13539123535156 144.4607391357422 C 165.9717254638672 125.28022003173828 170.31423950195312 140.9009552001953 153.8295135498047 164.36656188964844" stroke-width="2.0" fill="none" stroke="rgb(0, 0, 0)" stroke-opacity="1" stroke-linecap="round" stroke-linejoin="round"/>
    <path d="M 138.99459838867188 194.1398162841797 C 149.17990112304688 165.7311553955078 142.67440795898438 183.34825134277344 157.01930236816406 188.08575439453125" stroke-width="2.0" fill="none" stroke="rgb(0, 0, 0)" stroke-opacity="1" stroke-linecap="round" stroke-linejoin="round"/>
    <path d="M -6.5874342918396 208.5634002685547 C -5.794431209564209 198.40199279785156 10.430920600891113 182.97830200195312 1.4261105060577393 182.81556701660156 C -4.7209272384643555 200.22488403320312 9.586695671081543 181.67247009277344 -5.507204532623291 181.37704467773438 C 1.8080005645751953 173.9280548095703 -5.7335524559021 190.35028076171875 -4.456803321838379 192.2581024169922" stroke-width="2.0" fill="none" stroke="rgb(0, 0, 0)" stroke-opacity="1" stroke-linecap="round" stroke-linejoin="round"/>
    <path d="M -17.932435989379883 208.37420654296875 C 11.16700553894043 197.69961547851562 -3.305711030960083 219.4507598876953 -4.742739200592041 198.05703735351562" stroke-width="2.0" fill="none" stroke="rgb(0, 0, 0)" stroke-opacity="1" stroke-linecap="round" stroke-linejoin="round"/>
    <path d="M 15.791304588317871 58.89820861816406 C 16.8159122467041 12.243593215942383 44.91999816894531 10.952780723571777 3.6277761459350586 -0.8605337142944336 C -23.728975296020508 10.53819465637207 -7.151915550231934 4.479763507843018 -19.47523307800293 -1.7848435640335083" stroke-width="2.0" fill="none" stroke="rgb(0, 0, 0)" stroke-opacity="1" stroke-linecap="round" stroke-linejoin="round"/>
    <path d="M 103.94634246826172 36.64643478393555 C 59.8900260925293 58.50455856323242 92.02091979980469 19.773597717285156 74.02804565429688 14.438740730285645 C 36.609928131103516 -5.487936019897461 74.784912109375 16.45478630065918 92.16586303710938 10.3064603805542" stroke-width="2.0" fill="none" stroke="rgb(0, 0, 0)" stroke-opacity="1" stroke-linecap="round" stroke-linejoin="round"/>
    <path d="M 136.6443634033203 48.9951286315918 C 159.93338012695312 45.39358139038086 162.2167205810547 38.39176940917969 150.41331481933594 23.730113983154297 C 155.47645568847656 38.97100830078125 156.3001251220703 14.656067848205566 140.00465393066406 17.460641860961914" stroke-width="2.0" fill="none" stroke="rgb(0, 0, 0)" stroke-opacity="1" stroke-linecap="round" stroke-linejoin="round"/>
    <path d="M 45.4294548034668 27.786968231201172 C 16.96833038330078 30.200878143310547 47.259151458740234 22.856014251708984 40.35974884033203 0.33925116062164307 C 29.5683536529541 -5.529689311981201 42.74586486816406 -0.7635468244552612 39.924476623535156 17.730636596679688" stroke-width="2.0" fill="none" stroke="rgb(0, 0, 0)" stroke-opacity="1" stroke-linecap="round" stroke-linejoin="round"/>
    <path d="M 175.52590942382812 231.79959106445312 C 198.9413604736328 219.5826416015625 187.7107696533203 231.16571044921875 182.43801879882812 232.2914581298828" stroke-width="2.0" fill="none" stroke="rgb(0, 0, 0)" stroke-opacity="1" stroke-linecap="round" stroke-linejoin="round"/>
    <path d="M 226.30462646484375 193.08258056640625 C 217.3082733154297 224.98883056640625 228.75181579589844 222.70654296875 239.7687225341797 237.63552856445312 C 223.45745849609375 240.2440643310547 221.46783447265625 222.39669799804688 215.71646118164062 219.7454376220703" stroke-width="2.0" fill="none" stroke="rgb(0, 0, 0)" stroke-opacity="1" stroke-linecap="round" stroke-linejoin="round"/>
    <path d="M 213.29241943359375 125.1615219116211 C 201.63677978515625 98.62944030761719 207.6182403564453 128.6102752685547 225.03433227539062 145.65228271484375 C 205.6107177734375 128.6637725830078 217.72653198242188 125.73918914794922 215.15261840820312 143.36068725585938" stroke-width="2.0" fill="none" stroke="rgb(0, 0, 0)" stroke-opacity="1" stroke-linecap="round" stroke-linejoin="round"/>
    <path d="M 60.180110931396484 110.25897216796875 C 62.4344482421875 79.64251708984375 69.462158203125 103.72684478759766 58.13569641113281 58.76384353637695" stroke-width="2.0" fill="none" stroke="rgb(0, 0, 0)" stroke-opacity="1" stroke-linecap="round" stroke-linejoin="round"/>
    <path d="M 18.247068405151367 175.48428344726562 C 48.475006103515625 181.14720153808594 15.559029579162598 174.4853515625 36.59452438354492 182.1051788330078" stroke-width="2.0" fill="none" stroke="rgb(0, 0, 0)" stroke-opacity="1" stroke-linecap="round" stroke-linejoin="round"/>
    <path d="M 53.73214340209961 186.02857971191406 C 43.11311340332031 182.99229431152344 93.38748168945312 187.71055603027344 88.08131408691406 183.49041748046875 C 67.52462768554688 187.50042724609375 79.11211395263672 182.2881622314453 82.33404541015625 199.83299255371094 C 67.49661254882812 170.0585479736328 85.9464340209961 188.98812866210938 73.9419174194336 215.2766876220703" stroke-width="2.0" fill="none" stroke="rgb(0, 0, 0)" stroke-opacity="1" stroke-linecap="round" stroke-linejoin="round"/>
    <path d="M 105.29290008544922 105.77485656738281 C 123.99989318847656 152.68051147460938 111.74383544921875 122.14765167236328 112.41214752197266 103.24556732177734 C 129.77667236328125 135.23069763183594 99.48035430908203 147.100830078125 113.98065948486328 130.35845947265625" stroke-width="2.0" fill="none" stroke="rgb(0, 0, 0)" stroke-opacity="1" stroke-linecap="round" stroke-linejoin="round"/>
    <path d="M 124.2383804321289 37.56774139404297 C 119.01290893554688 30.072607040405273 129.0995330810547 24.426185607910156 104.43848419189453 56.16579055786133 C 133.0576629638672 33.31824493408203 133.79278564453125 16.191911697387695 108.90406036376953 54.019737243652344 C 103.45844268798828 55.82924270629883 112.4242935180664 54.480072021484375 126.50955963134766 35.29960250854492" stroke-width="2.0" fill="none" stroke="rgb(0, 0, 0)" stroke-opacity="1" stroke-linecap="round" stroke-linejoin="round"/>
    <path d="M 132.13389587402344 158.59779357910156 C 118.93488311767578 153.37086486816406 100.47307586669922 148.21514892578125 154.95762634277344 133.35719299316406 C 136.5924530029297 131.38388061523438 125.93412780761719 141.85523986816406 120.32859802246094 144.70938110351562 C 134.92127990722656 133.72201538085938 138.88548278808594 134.8014678955078 109.93412017822266 151.1098175048828" stroke-width="2.0" fill="none" stroke="rgb(0, 0, 0)" stroke-opacity="1" stroke-linecap="round" stroke-linejoin="round"/>
    <path d="M 82.394775390625 171.9488067626953 C 93.74556732177734 183.58096313476562 88.86991882324219 187.4488067626953 70.71540069580078 172.28652954101562 C 97.96121215820312 181.40013122558594 88.91152954101562 183.60971069335938 82.37202453613281 178.41989135742188" stroke-width="2.0" fill="none" stroke="rgb(0, 0, 0)" stroke-opacity="1" stroke-linecap="round" stroke-linejoin="round"/>
    <path d="M 111.48278045654297 128.58120727539062 C 123.67900085449219 128.13909912109375 165.3731689453125 131.57273864746094 164.77809143066406 134.0037078857422 C 159.31332397460938 153.089111328125 139.3600311279297 139.44461059570312 118.97542572021484 156.06298828125" stroke-width="2.0" fill="none" stroke="rgb(0, 0, 0)" stroke-opacity="1" stroke-linecap="round" stroke-linejoin="round"/>
    <path d="M 59.021705627441406 52.560035705566406 C 77.3300552368164 65.39250946044922 90.76859283447266 45.148681640625 93.5867691040039 64.25970458984375 C 73.0972671508789 40.13816833496094 71.45996856689453 67.99981689453125 76.05571746826172 86.04137420654297 C 85.29483032226562 23.974763870239258 68.97076416015625 72.69925689697266 81.2199478149414 81.88693237304688" stroke-width="2.0" fill="none" stroke="rgb(0, 0, 0)" stroke-opacity="1" stroke-linecap="round" stroke-linejoin="round"/>
    <path d="M -6.014856338500977 47.722312927246094 C 0.5734013915061951 43.10873031616211 -8.281479835510254 33.810035705566406 -19.927291870117188 58.614723205566406 C 9.928899765014648 68.79888916015625 31.120615005493164 58.606014251708984 -5.618027687072754 63.51567840576172" stroke-width="2.0" fill="none" stroke="rgb(0, 0, 0)" stroke-opacity="1" stroke-linecap="round" stroke-linejoin="round"/>
    <path d="M 108.83097076416016 94.36360931396484 C 102.40821075439453 95.46560668945312 98.42687225341797 94.70231628417969 114.75347137451172 121.97220611572266" stroke-width="2.0" fill="none" stroke="rgb(0, 0, 0)" stroke-opacity="1" stroke-linecap="round" stroke-linejoin="round"/>
    <path d="M 143.501708984375 186.41775512695312 C 104.2677001953125 191.85009765625 82.63433837890625 180.66592407226562 108.63288116455078 190.6676788330078" stroke-width="2.0" fill="none" stroke="rgb(0, 0, 0)" stroke-opacity="1" stroke-linecap="round" stroke-linejoin="round"/>
    <path d="M 142.7131805419922 50.06640625 C 164.63377380371094 35.629634857177734 168.9455108642578 38.735713958740234 153.8275909423828 41.127403259277344 C 143.00753784179688 13.035895347595215 146.9547882080078 27.953601837158203 156.25173950195312 42.57563400268555 C 150.20782470703125 10.231006622314453 118.6335678100586 18.925188064575195 143.07025146484375 14.550192832946777" stroke-width="2.0" fill="none" stroke="rgb(0, 0, 0)" stroke-opacity="1" stroke-linecap="round" stroke-linejoin="round"/>
    <path d="M 154.87661743164062 108.77120971679688 C 143.2225341796875 132.40158081054688 169.8030548095703 138.11781311035156 157.44479370117188 133.8145751953125 C 203.65780639648438 149.32177734375 184.08847045898438 149.20254516601562 155.07427978515625 133.39276123046875 C 151.24900817871094 116.82005310058594 170.2353057861328 130.26992797851562 154.5044403076172 163.4524383544922" stroke-width="2.0" fill="none" stroke="rgb(0, 0, 0)" stroke-opacity="1" stroke-linecap="round" stroke-linejoin="round"/>
    <path d="M 206.24366760253906 217.49066162109375 C 228.5413055419922 209.5989532470703 202.24087524414062 218.24598693847656 206.0618438720703 219.5039825439453 C 181.64031982421875 221.61920166015625 204.2670135498047 221.1849822998047 210.2206268310547 216.296630859375 C 190.9635467529297 224.1143035888672 208.3383331298828 221.13214111328125 197.5341339111328 221.31680297851562" stroke-width="2.0" fill="none" stroke="rgb(0, 0, 0)" stroke-opacity="1" stroke-linecap="round" stroke-linejoin="round"/>
    <path d="M 101.02359771728516 89.5950698852539 C 141.61741638183594 90.51226043701172 139.97232055664062 72.44303131103516 113.49872589111328 58.62268829345703 C 107.45063018798828 43.0839958190918 115.29582977294922 43.3641357421875 121.10558319091797 70.47966766357422" stroke-width="2.0" fill="none" stroke="rgb(0, 0, 0)" stroke-opacity="1" stroke-linecap="round" stroke-linejoin="round"/>
    <path d="M 91.37646484375 -12.375715255737305 C 102.19304656982422 6.590281009674072 104.36536407470703 18.58408546447754 95.58345794677734 28.586044311523438 C 150.71778869628906 33.46384048461914 119.90359497070312 32.9600944519043 73.49734497070312 41.20893096923828 C 64.51213836669922 56.47892761230469 90.96885681152344 29.60447883605957 71.59935760498047 11.295722961425781" stroke-width="2.0" fill="none" stroke="rgb(0, 0, 0)" stroke-opacity="1" stroke-linecap="round" stroke-linejoin="round"/>
    <path d="M -7.763322830200195 18.73435401916504 C 31.54680633544922 18.96809196472168 17.691925048828125 4.556712627410889 18.362855911254883 49.1890983581543 C 19.24128532409668 51.56755828857422 31.053329467773438 83.62150573730469 20.247732162475586 46.4655647277832" stroke-width="2.0" fill="none" stroke="rgb(0, 0, 0)" stroke-opacity="1" stroke-linecap="round" stroke-linejoin="round"/>
    <path d="M 203.6334228515625 51.91324234008789 C 177.2076873779297 68.1034927368164 187.2093505859375 42.90595245361328 225.8208465576172 52.37944793701172" stroke-width="2.0" fill="none" stroke="rgb(0, 0, 0)" stroke-opacity="1" stroke-linecap="round" stroke-linejoin="round"/>
    <path d="M 197.3205108642578 149.43914794921875 C 172.119140625 146.4248809814453 184.6952362060547 153.08416748046875 203.91726684570312 150.66021728515625 C 168.0350341796875 160.67323303222656 174.2863311767578 142.81451416015625 230.37319946289062 142.70973205566406 C 180.88209533691406 150.6719970703125 181.64695739746094 143.39048767089844 196.65028381347656 176.8365936279297" stroke-width="2.0" fill="none" stroke="rgb(0, 0, 0)" stroke-opacity="1" stroke-linecap="round" stroke-linejoin="round"/>
    <path d="M 195.7269744873047 153.6273651123047 C 189.21299743652344 155.11767578125 191.8929901123047 173.7495880126953 199.47305297851562 148.65866088867188" stroke-width="2.0" fill="none" stroke="rgb(0, 0, 0)" stroke-opacity="1" stroke-linecap="round" stroke-linejoin="round"/>
    <path d="M 110.90555572509766 99.7537612915039 C 118.31494903564453 125.77655792236328 113.67707824707031 108.30078125 97.34075164794922 115.23482513427734" stroke-width="2.0" fill="none" stroke="rgb(0, 0, 0)" stroke-opacity="1" stroke-linecap="round" stroke-linejoin="round"/>
    <path d="M 42.49858856201172 -1.1955084800720215 C 50.61079025268555 33.663150787353516 15.176064491271973 14.600483894348145 30.228418350219727 61.56718444824219 C 35.81084442138672 93.9136962890625 44.335575103759766 75.43114471435547 26.63947105407715 53.558650970458984 C 28.19272804260254 19.338315963745117 20.056638717651367 39.3939323425293 63.92333984375 37.0029182434082" stroke-width="2.0" fill="none" stroke="rgb(0, 0, 0)" stroke-opacity="1" stroke-linecap="round" stroke-linejoin="round"/>
    <path d="M 70.04595947265625 172.96139526367188 C 44.693626403808594 171.81564331054688 58.311126708984375 166.25790405273438 61.26524353027344 174.1905975341797" stroke-width="2.0" fill="none" stroke="rgb(0, 0, 0)" stroke-opacity="1" stroke-linecap="round" stroke-linejoin="round"/>
    <path d="M 75.0760498046875 216.17294311523438 C 95.43621063232422 183.77622985839844 66.58412170410156 173.93264770507812 84.5557861328125 172.80332946777344 C 98.54190826416016 190.36529541015625 75.53014373779297 195.1586151123047 78.11243438720703 225.36322021484375 C 79.52649688720703 196.1450958251953 81.97891998291016 163.86839294433594 85.40057373046875 187.36972045898438" stroke-width="2.0" fill="none" stroke="rgb(0, 0, 0)" stroke-opacity="1" stroke-linecap="round" stroke-linejoin="round"/>
    <path d="M 128.47378540039062 -12.023118019104004 C 138.32130432128906 1.8357834815979004 144.02389526367188 3.3072941303253174 169.77667236328125 -1.905623435974121 C 123.0843276977539 -0.5051202774047852 134.3125 -9.79220962524414 155.18167114257812 -7.784055709838867" stroke-width="2.0" fill="none" stroke="rgb(0, 0, 0)" stroke-opacity="1" stroke-linecap="round" stroke-linejoin="round"/>
    <path d="M 98.63785552978516 87.9798583984375 C 118.50140380859375 115.69770050048828 116.40562438964844 119.23455810546875 72.74269104003906 113.7031021118164 C 97.17015075683594 120.47825622558594 96.71359252929688 93.88934326171875 94.2983169555664 108.9416732788086 C 98.98585510253906 84.83698272705078 83.31571197509766 88.05229187011719 84.40203857421875 84.99605560302734" stroke-width="2.0" fill="none" stroke="rgb(0, 0, 0)" stroke-opacity="1" stroke-linecap="round" stroke-linejoin="round"/>
    <path d="M 47.59382629394531 132.2737579345703 C 30.038047790527344 151.80445861816406 18.784761428833008 147.38844299316406 20.116661071777344 146.97381591796875 C 41.336143493652344 119.83348083496094 21.25821304321289 95.32787322998047 30.308805465698242 129.28927612304688" stroke-width="2.0" fill="none" stroke="rgb(0, 0, 0)" stroke-opacity="1" stroke-linecap="round" stroke-linejoin="round"/>
    <path d="M 232.29270935058594 187.3089599609375 C 218.46421813964844 174.5594482421875 222.52012634277344 154.57760620117188 229.2076873779297 154.50198364257812 C 216.0924835205078 139.8927764892578 220.35133361816406 132.01641845703125 214.47250366210938 123.7875747680664 C 164.8815460205078 122.2217025756836 182.3780517578125 121.92760467529297 205.7828369140625 114.73387908935547" stroke-width="2.0" fill="none" stroke="rgb(0, 0, 0)" stroke-opacity="1" stroke-linecap="round" stroke-linejoin="round"/>
    <path d="M 31.988109588623047 8.147963523864746 C -1.1441887617111206 -6.2072296142578125 3.6437385082244873 3.71952748298645 28.27779769897461 7.876658916473389" stroke-width="2.0" fill="none" stroke="rgb(0, 0, 0)" stroke-opacity="1" stroke-linecap="round" stroke-linejoin="round"/>
    <path d="M 187.44503784179688 147.14602661132812 C 193.81431579589844 163.9226531982422 189.05860900878906 158.94175720214844 191.587890625 150.2255096435547 C 195.30120849609375 140.92752075195312 214.8936309814453 143.76812744140625 209.5430145263672 122.38066864013672 C 219.86129760742188 145.0522003173828 197.80677795410156 142.59738159179688 186.5272979736328 148.56613159179688" stroke-width="2.0" fill="none" stroke="rgb(0, 0, 0)" stroke-opacity="1" stroke-linecap="round" stroke-linejoin="round"/>
    <path d="M 211.984130859375 64.86553192138672 C 202.46365356445312 71.35442352294922 216.42239379882812 61.79179000854492 204.90711975097656 97.76184844970703 C 211.6060791015625 89.390869140625 195.75186157226562 73.77433776855469 206.26162719726562 78.9779281616211 C 206.2106475830078 81.33865356445312 186.95838928222656 80.11902618408203 163.5820770263672 59.69652557373047" stroke-width="2.0" fill="none" stroke="rgb(0, 0, 0)" stroke-opacity="1" stroke-linecap="round" stroke-linejoin="round"/>
    <path d="M 92.7606430053711 139.6090850830078 C 114.97880554199219 129.5410919189453 117.62836456298828 121.12491607666016 106.86608123779297 139.03628540039062 C 110.7308578491211 132.42787170410156 103.6024169921875 127.93873596191406 124.38968658447266 130.43621826171875 C 133.1051483154297 134.5091552734375 130.12579345703125 129.49488830566406 114.2484130859375 129.2657928466797" stroke-width="2.0" fill="none" stroke="rgb(0, 0, 0)" stroke-opacity="1" stroke-linecap="round" stroke-linejoin="round"/>
    <path d="M 174.63116455078125 210.3004608154297 C 183.5801544189453 212.57057189941406 197.86485290527344 188.36627197265625 181.7906036376953 201.42881774902344 C 190.4805908203125 194.62112426757812 205.86996459960938 214.8817901611328 197.72169494628906 189.8068084716797" stroke-width="2.0" fill="none" stroke="rgb(0, 0, 0)" stroke-opacity="1" stroke-linecap="round" stroke-linejoin="round"/>
    <path d="M 50.379669189453125 168.55320739746094 C 63.90872573852539 175.0825653076172 76.53353881835938 169.20640563964844 106.8561782836914 167.31666564941406" stroke-width="2.0" fill="none" stroke="rgb(0, 0, 0)" stroke-opacity="1" stroke-linecap="round" stroke-linejoin="round"/>
    <path d="M 148.38363647460938 214.70628356933594 C 162.62423706054688 222.14404296875 166.60157775878906 225.39991760253906 147.17604064941406 212.4185333251953 C 161.64759826660156 221.40042114257812 153.90516662597656 227.40902709960938 159.46922302246094 219.41085815429688 C 137.2056121826172 208.83169555664062 136.7066192626953 209.56173706054688 173.81785583496094 227.2257843017578" stroke-width="2.0" fill="none" stroke="rgb(0, 0, 0)" stroke-opacity="1" stroke-linecap="round" stroke-linejoin="round"/>
    <path d="M -1.3464683294296265 141.8889923095703 C 25.05693817138672 124.71187591552734 24.418874740600586 144.5729522705078 17.0598201751709 126.79976654052734" stroke-width="2.0" fill="none" stroke="rgb(0, 0, 0)" stroke-opacity="1" stroke-linecap="round" stroke-linejoin="round"/>
    <path d="M 62.65717697143555 44.50048065185547 C 55.32963180541992 51.52602005004883 67.05351257324219 62.57758331298828 98.58952331542969 49.934444427490234" stroke-width="2.0" fill="none" stroke="rgb(0, 0, 0)" stroke-opacity="1" stroke-linecap="round" stroke-linejoin="round"/>
    <path d="M 175.7218475341797 -2.158464193344116 C 154.9318084716797 29.25128173828125 199.53317260742188 19.082416534423828 184.0152587890625 57.001678466796875" stroke-width="2.0" fill="none" stroke="rgb(0, 0, 0)" stroke-opacity="1" stroke-linecap="round" stroke-linejoin="round"/>
    <path d="M 132.30364990234375 -4.634780406951904 C 126.20450592041016 24.713136672973633 146.39471435546875 15.268878936767578 131.7570343017578 11.285772323608398 C 165.05340576171875 18.226917266845703 149.30747985839844 21.091262817382812 159.70391845703125 39.59657287597656" stroke-width="2.0" fill="none" stroke="rgb(0, 0, 0)" stroke-opacity="1" stroke-linecap="round" stroke-linejoin="round"/>
    <path d="M 28.310047149658203 139.47427368164062 C 27.903894424438477 155.11349487304688 10.016483306884766 138.50640869140625 -1.3651317358016968 151.2888946533203" stroke-width="2.0" fill="none" stroke="rgb(0, 0, 0)" stroke-opacity="1" stroke-linecap="round" stroke-linejoin="round"/>
    <path d="M 138.67526245117188 195.86642456054688 C 143.5941162109375 180.2061767578125 144.4210968017578 201.34762573242188 130.47802734375 202.66322326660156 C 151.2628173828125 172.73690795898438 139.0734405517578 175.25772094726562 137.3307342529297 177.55203247070312" stroke-width="2.0" fill="none" stroke="rgb(0, 0, 0)" stroke-opacity="1" stroke-linecap="round" stroke-linejoin="round"/>
    <path d="M 33.205345153808594 217.9281463623047 C 8.119871139526367 209.88406372070312 40.5037841796875 212.4302215576172 65.3224868774414 212.0823974609375" stroke-width="2.0" fill="none" stroke="rgb(0, 0, 0)" stroke-opacity="1" stroke-linecap="round" stroke-linejoin="round"/>
    <path d="M 162.9630889892578 103.67976379394531 C 185.14549255371094 107.4421615600586 168.60340881347656 106.95460510253906 175.05111694335938 105.72019958496094 C 179.8080291748047 85.7020492553711 166.85964965820312 68.90553283691406 158.9994659423828 48.934940338134766 C 169.6916961669922 67.93798828125 186.06324768066406 76.74188995361328 172.95309448242188 114.48150634765625" stroke-width="2.0" fill="none" stroke="rgb(0, 0, 0)" stroke-opacity="1" stroke-linecap="round" stroke-linejoin="round"/>
    <path d="M 197.1338653564453 171.09799194335938 C 200.07882690429688 198.2809600830078 195.22293090820312 189.70458984375 208.95095825195312 177.11471557617188 C 191.94189453125 197.48297119140625 213.7305145263672 202.75938415527344 196.80799865722656 165.74803161621094 C 212.89727783203125 174.98162841796875 208.10475158691406 203.44085693359375 178.6031036376953 205.80120849609375" stroke-width="2.0" fill="none" stroke="rgb(0, 0, 0)" stroke-opacity="1" stroke-linecap="round" stroke-linejoin="round"/>
    <path d="M 175.0296173095703 26.47699546813965 C 162.8091583251953 -6.2876386642456055 193.58604431152344 -1.192147135734558 168.7321014404297 -1.9684745073318481" stroke-width="2.0" fill="none" stroke="rgb(0, 0, 0)" stroke-opacity="1" stroke-linecap="round" stroke-linejoin="round"/>
    <path d="M 163.3016357421875 151.6126251220703 C 150.60227966308594 166.84347534179688 168.65882873535156 151.18896484375 148.0308837890625 112.84149932861328 C 143.14013671875 115.5865478515625 170.20762634277344 140.7586212158203 122.61681365966797 127.03237915039062" stroke-width="2.0" fill="none" stroke="rgb(0, 0, 0)" stroke-opacity="1" stroke-linecap="round" stroke-linejoin="round"/>
    <path d="M 108.3034896850586 134.0670166015625 C 94.91317749023438 155.99281311035156 98.81250762939453 152.89743041992188 110.82373046875 137.9309539794922 C 110.13446044921875 135.60044860839844 114.55228424072266 141.68182373046875 110.31616973876953 139.6297149658203 C 94.793701171875 144.03819274902344 120.217041015625 138.7225799560547 114.43807220458984 115.80908203125" stroke-width="2.0" fill="none" stroke="rgb(0, 0, 0)" stroke-opacity="1" stroke-linecap="round" stroke-linejoin="round"/>
    <path d="M 25.230127334594727 196.889892578125 C 1.378028154373169 188.43255615234375 19.219356536865234 186.35887145996094 49.7188720703125 200.07562255859375" stroke-width="2.0" fill="none" stroke="rgb(0, 0, 0)" stroke-opacity="1" stroke-linecap="round" stroke-linejoin="round"/>
    <path d="M 63.05032730102539 41.825042724609375 C 29.405406951904297 40.33328628540039 23.959260940551758 50.331153869628906 28.191936492919922 40.73055648803711" stroke-width="2.0" fill="none" stroke="rgb(0, 0, 0)" stroke-opacity="1" stroke-linecap="round" stroke-linejoin="round"/>
    <path d="M 14.895994186401367 231.6044158935547 C 69.07537078857422 227.4130859375 43.612613677978516 214.11099243164062 10.509462356567383 218.8814239501953 C 44.2910270690918 212.45172119140625 19.399871826171875 209.16441345214844 9.368263244628906 222.22547912597656 C 49.06139373779297 205.02719116210938 65.25386810302734 214.7227783203125 56.96392059326172 180.91090393066406" stroke-width="2.0" fill="none" stroke="rgb(0, 0, 0)" stroke-opacity="1" stroke-linecap="round" stroke-linejoin="round"/>
    <path d="M 14.079696655273438 140.15957641601562 C 32.59764862060547 144.56124877929688 -1.474927544593811 141.52755737304688 -19.47234535217285 150.2159423828125" stroke-width="2.0" fill="none" stroke="rgb(0, 0, 0)" stroke-opacity="1" stroke-linecap="round" stroke-linejoin="round"/>
    <path d="M 92.59917449951172 9.519159317016602 C 43.08356857299805 9.021912574768066 74.51890563964844 14.899700164794922 49.802005767822266 27.36481475830078 C 87.44745635986328 19.496009826660156 69.2454833984375 17.871841430664062 61.600059509277344 20.78348159790039 C 56.076988220214844 33.834320068359375 25.56048011779785 41.06594467163086 38.66900634765625 22.3475341796875" stroke-width="2.0" fill="none" stroke="rgb(0, 0, 0)" stroke-opacity="1" stroke-linecap="round" stroke-linejoin="round"/>
    <path d="M 221.80506896972656 223.13409423828125 C 207.691162109375 217.10508728027344 199.40159606933594 224.28941345214844 202.18043518066406 220.7880096435547 C 213.0736541748047 213.6667022705078 218.0457000732422 213.80142211914062 206.41334533691406 219.26229858398438" stroke-width="2.0" fill="none" stroke="rgb(0, 0, 0)" stroke-opacity="1" stroke-linecap="round" stroke-linejoin="round"/>
    <path d="M 93.39178466796875 10.334080696105957 C 32.76435470581055 23.88479995727539 78.59844207763672 -4.3905720710754395 77.1884536743164 31.419124603271484 C 76.83196258544922 54.101844787597656 107.020751953125 34.31059265136719 91.34398651123047 6.671453475952148 C 77.62128448486328 -19.634572982788086 105.76834869384766 7.808204650878906 125.09675598144531 -0.7049746513366699" stroke-width="2.0" fill="none" stroke="rgb(0, 0, 0)" stroke-opacity="1" stroke-linecap="round" stroke-linejoin="round"/>
    <path d="M 141.88023376464844 188.8133087158203 C 139.26487731933594 189.70669555664062 132.33702087402344 155.9796600341797 141.193115234375 166.61032104492188 C 139.05763244628906 180.5116424560547 155.98193359375 186.40573120117188 134.69589233398438 158.7389678955078 C 142.38526916503906 200.787109375 130.39096069335938 194.0381317138672 123.79783630371094 211.9633026123047" stroke-width="2.0" fill="none" stroke="rgb(0, 0, 0)" stroke-opacity="1" stroke-linecap="round" stroke-linejoin="round"/>
    <path d="M 140.33274841308594 198.44944763183594 C 148.5993194580078 168.062744140625 136.97357177734375 182.9427490234375 167.70318603515625 185.19174194335938 C 177.9579315185547 211.13575744628906 145.4225311279297 168.1960906982422 184.86727905273438 189.23826599121094 C 142.15255737304688 173.60562133789062 174.9291534423828 180.38255310058594 138.80532836914062 181.01962280273438" stroke-width="2.0" fill="none" stroke="rgb(0, 0, 0)" stroke-opacity="1" stroke-linecap="round" stroke-linejoin="round"/>
    <path d="M 204.23545837402344 54.04959487915039 C 210.1435089111328 60.1855583190918 219.79222106933594 47.57780456542969 233.34719848632812 34.706241607666016" stroke-width="2.0" fill="none" stroke="rgb(0, 0, 0)" stroke-opacity="1" stroke-linecap="round" stroke-linejoin="round"/>
    <path d="M 35.86206817626953 117.86658477783203 C 22.431093215942383 151.87770080566406 29.259265899658203 145.2142791748047 37.00049591064453 118.99683380126953" stroke-width="2.0" fill="none" stroke="rgb(0, 0, 0)" stroke-opacity="1" stroke-linecap="round" stroke-linejoin="round"/>
    <path d="M 10.895655632019043 157.6288604736328 C 0.4412725567817688 153.5526580810547 22.29177474975586 170.94728088378906 -1.3314309120178223 200.9197235107422" stroke-width="2.0" fill="none" stroke="rgb(0, 0, 0)" stroke-opacity="1" stroke-linecap="round" stroke-linejoin="round"/>
    <path d="M 56.69001388549805 198.26296997070312 C 42.08155822753906 154.29132080078125 63.61528015136719 188.24740600585938 51.2911491394043 205.68296813964844 C 30.97943878173828 213.67454528808594 43.594852447509766 210.30593872070312 53.93501281738281 209.81094360351562" stroke-width="2.0" fill="none" stroke="rgb(0, 0, 0)" stroke-opacity="1" stroke-linecap="round" stroke-linejoin="round"/>
    <path d="M 29.034177780151367 44.69086456298828 C 10.012666702270508 37.59086608886719 106.59877014160156 40.54133605957031 43.64748001098633 36.53402328491211 C 86.36190795898438 29.662263870239258 56.918434143066406 40.5332145690918 58.28907775878906 57.63953399658203" stroke-width="2.0" fill="none" stroke="rgb(0, 0, 0)" stroke-opacity="1" stroke-linecap="round" stroke-linejoin="round"/>
    <path d="M 146.71099853515625 70.53670501708984 C 148.2508544921875 64.81632232666016 151.04220581054688 103.98268127441406 153.19302368164062 70.0019760131836" stroke-width="2.0" fill="none" stroke="rgb(0, 0, 0)" stroke-opacity="1" stroke-linecap="round" stroke-linejoin="round"/>
    <path d="M 36.93389892578125 104.94883728027344 C 31.984846115112305 106.17864227294922 -6.832365036010742 98.73484802246094 52.3150520324707 101.45164489746094" stroke-width="2.0" fill="none" stroke="rgb(0, 0, 0)" stroke-opacity="1" stroke-linecap="round" stroke-linejoin="round"/>
    <path d="M 42.560726165771484 222.8325958251953 C 27.351577758789062 218.11683654785156 18.00090217590332 239.50587463378906 62.67852783203125 222.4097900390625 C 8.805708885192871 222.8018341064453 11.626264572143555 230.3705596923828 61.3592529296875 232.0692596435547" stroke-width="2.0" fill="none" stroke="rgb(0, 0, 0)" stroke-opacity="1" stroke-linecap="round" stroke-linejoin="round"/>
    <path d="M 182.2971954345703 125.44654846191406 C 178.1291961669922 133.8746337890625 185.5945281982422 117.41633605957031 207.45477294921875 119.56001281738281" stroke-width="2.0" fill="none" stroke="rgb(0, 0, 0)" stroke-opacity="1" stroke-linecap="round" stroke-linejoin="round"/>
    <path d="M 92.09648895263672 -8.172797203063965 C 101.555419921875 11.50368881225586 103.00738525390625 25.02586555480957 84.52919006347656 38.86659622192383 C 99.30951690673828 17.845640182495117 101.97328186035156 10.410032272338867 89.11888122558594 -7.335023403167725 C 77.93119812011719 -2.6844611167907715 98.44168090820312 -9.703404426574707 94.95719146728516 21.289596557617188" stroke-width="2.0" fill="none" stroke="rgb(0, 0, 0)" stroke-opacity="1" stroke-linecap="round" stroke-linejoin="round"/>
    <path d="M 108.93505859375 39.535160064697266 C 137.11463928222656 23.888336181640625 122.46258544921875 45.24513626098633 125.90052032470703 30.928375244140625 C 73.96327209472656 39.11381912231445 70.49535369873047 38.68198013305664 126.29043579101562 37.833953857421875" stroke-width="2.0" fill="none" stroke="rgb(0, 0, 0)" stroke-opacity="1" stroke-linecap="round" stroke-linejoin="round"/>
    <path d="M 105.94635772705078 106.05357360839844 C 102.22728729248047 93.6382827758789 106.85791778564453 82.64678192138672 80.01053619384766 83.84556579589844 C 92.13107299804688 98.40304565429688 138.70068359375 94.5044174194336 100.26605987548828 86.81503295898438 C 102.1953353881836 105.51068115234375 113.39822387695312 113.62237548828125 104.9090805053711 103.31185150146484" stroke-width="2.0" fill="none" stroke="rgb(0, 0, 0)" stroke-opacity="1" stroke-linecap="round" stroke-linejoin="round"/>
    <path d="M 190.08978271484375 133.11318969726562 C 197.8985137939453 133.87586975097656 218.348876953125 137.4352569580078 192.21791076660156 132.03628540039062 C 167.9212188720703 129.99159240722656 154.0595703125 115.1772689819336 188.38531494140625 122.72945404052734 C 171.0421600341797 109.8385009765625 167.5450897216797 129.24722290039062 179.4555206298828 118.05827331542969" stroke-width="2.0" fill="none" stroke="rgb(0, 0, 0)" stroke-opacity="1" stroke-linecap="round" stroke-linejoin="round"/>
    <path d="M 140.2381134033203 79.0621109008789 C 89.82302856445312 86.13885498046875 92.54704284667969 95.8470230102539 102.53095245361328 88.99079132080078 C 147.55752563476562 83.62269592285156 150.3336181640625 76.33155822753906 117.34051513671875 57.49604415893555" stroke-width="2.0" fill="none" stroke="rgb(0, 0, 0)" stroke-opacity="1" stroke-linecap="round" stroke-linejoin="round"/>
    <path d="M 97.67091369628906 179.18836975097656 C 103.29302978515625 176.484130859375 101.62516784667969 239.04388427734375 98.6065902709961 209.7452850341797 C 108.14827728271484 188.08331298828125 105.4253158569336 184.09910583496094 114.79823303222656 190.32424926757812" stroke-width="2.0" fill="none" stroke="rgb(0, 0, 0)" stroke-opacity="1" stroke-linecap="round" stroke-linejoin="round"/>
    <path d="M 203.31015014648438 77.38123321533203 C 174.84022521972656 80.7031478881836 182.47801208496094 70.2732925415039 206.9665069580078 75.95685577392578" stroke-width="2.0" fill="none" stroke="rgb(0, 0, 0)" stroke-opacity="1" stroke-linecap="round" stroke-linejoin="round"/>
    <path d="M 195.27487182617188 164.2756805419922 C 214.66741943359375 187.65110778808594 186.92794799804688 166.89344787597656 231.28639221191406 181.25448608398438" stroke-width="2.0" fill="none" stroke="rgb(0, 0, 0)" stroke-opacity="1" stroke-linecap="round" stroke-linejoin="round"/>
    <path d="M 115.6297607421875 130.67889404296875 C 121.2715072631836 134.99085998535156 97.20883178710938 129.88365173339844 81.47795104980469 146.6372528076172 C 78.84383392333984 135.5557403564453 69.87129974365234 125.36598205566406 75.99040985107422 122.70341491699219 C 49.47826385498047 134.6554718017578 13.491714477539062 114.34379577636719 59.02918243408203 137.84426879882812" stroke-width="2.0" fill="none" stroke="rgb(0, 0, 0)" stroke-opacity="1" stroke-linecap="round" stroke-linejoin="round"/>
    <path d="M 72.96061706542969 47.83390426635742 C 81.0615463256836 19.317028045654297 79.5782470703125 25.16609764099121 68.9306869506836 47.82297897338867 C 107.4931640625 37.680240631103516 98.75785064697266 33.648433685302734 94.12299346923828 35.99986267089844 C 94.35730743408203 25.399566650390625 137.42300415039062 25.935348510742188 75.02523803710938 39.08234786987305" stroke-width="2.0" fill="none" stroke="rgb(0, 0, 0)" stroke-opacity="1" stroke-linecap="round" stroke-linejoin="round"/>
    <path d="M 189.60276794433594 55.45453643798828 C 221.25160217285156 56.66558074951172 218.16796875 46.93954086303711 224.6312713623047 32.5960807800293 C 224.09854125976562 62.58293151855469 192.91871643066406 51.112796783447266 221.3667755126953 49.38248062133789 C 204.16551208496094 60.24602508544922 170.13189697265625 42.031654357910156 210.26168823242188 57.320037841796875" stroke-width="2.0" fill="none" stroke="rgb(0, 0, 0)" stroke-opacity="1" stroke-linecap="round" stroke-linejoin="round"/>
    <path d="M 23.63028907775879 107.37691497802734 C 16.051986694335938 113.34765625 -3.0828285217285156 105.15750885009766 52.05883026123047 106.25286102294922" stroke-width="2.0" fill="none" stroke="rgb(0, 0, 0)" stroke-opacity="1" stroke-linecap="round" stroke-linejoin="round"/>
    <path d="M 166.52169799804688 186.59666442871094 C 131.89820861816406 185.00637817382812 129.74766540527344 170.58604431152344 155.80487060546875 190.45877075195312 C 121.55287170410156 203.6915283203125 118.2059326171875 227.6865997314453 135.5705108642578 199.312255859375" stroke-width="2.0" fill="none" stroke="rgb(0, 0, 0)" stroke-opacity="1" stroke-linecap="round" stroke-linejoin="round"/>
    <path d="M 230.18690490722656 -0.8982825875282288 C 214.0298309326172 -10.656576156616211 192.56195068359375 14.973752975463867 184.43768310546875 -2.5627284049987793" stroke-width="2.0" fill="none" stroke="rgb(0, 0, 0)" stroke-opacity="1" stroke-linecap="round" stroke-linejoin="round"/>
    <path d="M -3.076092481613159 205.86228942871094 C -4.842222213745117 232.16905212402344 -2.7503561973571777 219.51820373535156 -9.56307601928711 213.1470184326172 C 3.995342493057251 226.40048217773438 6.8035688400268555 230.62649536132812 21.433561325073242 215.817626953125 C 24.31391143798828 174.9600372314453 33.81766128540039 194.89141845703125 17.956499099731445 215.34457397460938" stroke-width="2.0" fill="none" stroke="rgb(0, 0, 0)" stroke-opacity="1" stroke-linecap="round" stroke-linejoin="round"/>
    <path d="M 208.2530975341797 216.79335021972656 C 224.52745056152344 204.1610870361328 222.83877563476562 180.0019073486328 231.32215881347656 188.00978088378906 C 229.6273651123047 183.43658447265625 220.97250366210938 173.77342224121094 206.82797241210938 175.0587615966797 C 208.8892059326172 190.0806884765625 188.8136444091797 161.06411743164062 214.32870483398438 175.8459930419922" stroke-width="2.0" fill="none" stroke="rgb(0, 0, 0)" stroke-opacity="1" stroke-linecap="round" stroke-linejoin="round"/>
    <path d="M 51.902305603027344 86.6877212524414 C 67.36882019042969 77.65941619873047 61.65837860107422 98.11822509765625 60.64680099487305 82.534423828125" stroke-width="2.0" fill="none" stroke="rgb(0, 0, 0)" stroke-opacity="1" stroke-linecap="round" stroke-linejoin="round"/>
    <path d="M 187.44290161132812 78.73114013671875 C 173.63134765625 69.89669799804688 195.23358154296875 75.40181732177734 200.02879333496094 77.96469116210938 C 202.56317138671875 122.60528564453125 208.35174560546875 119.74417114257812 200.77578735351562 75.19824981689453" stroke-width="2.0" fill="none" stroke="rgb(0, 0, 0)" stroke-opacity="1" stroke-linecap="round" stroke-linejoin="round"/>
    <path d="M 137.90054321289062 15.334245681762695 C 167.64022827148438 14.209866523742676 149.5626678466797 38.602012634277344 144.51736450195312 15.149296760559082 C 136.95274353027344 18.000274658203125 138.12818908691406 14.246865272521973 133.7890625 20.553359985351562 C 158.14772033691406 13.310842514038086 149.63034057617188 39.841278076171875 151.50048828125 44.84418869018555" stroke-width="2.0" fill="none" stroke="rgb(0, 0, 0)" stroke-opacity="1" stroke-linecap="round" stroke-linejoin="round"/>
    <path d="M 123.1451416015625 108.9477310180664 C 150.8544464111328 139.2864227294922 112.06104278564453 152.25161743164062 106.6277084350586 90.29305267333984 C 119.8124008178711 114.47168731689453 101.39813995361328 138.2071533203125 117.12954711914062 137.99380493164062" stroke-width="2.0" fill="none" stroke="rgb(0, 0, 0)" stroke-opacity="1" stroke-linecap="round" stroke-linejoin="round"/>
    <path d="M 187.53565979003906 227.1716766357422 C 139.50750732421875 219.4427490234375 140.26637268066406 204.91883850097656 149.72723388671875 213.8183135986328" stroke-width="2.0" fill="none" stroke="rgb(0, 0, 0)" stroke-opacity="1" stroke-linecap="round" stroke-linejoin="round"/>
    <path d="M 14.01105785369873 131.0100555419922 C -0.38760071992874146 132.1340789794922 11.15345573425293 133.33901977539062 31.607379913330078 116.60289764404297 C 33.17180252075195 113.01741027832031 30.41888427734375 140.6667022705078 22.704944610595703 146.005859375" stroke-width="2.0" fill="none" stroke="rgb(0, 0, 0)" stroke-opacity="1" stroke-linecap="round" stroke-linejoin="round"/>
    <path d="M 15.77790641784668 134.73916625976562 C 19.133182525634766 141.4066619873047 -9.361288070678711 145.5050048828125 8.201105117797852 135.6854248046875 C -18.37442970275879 131.624755859375 -19.53971290588379 129.08815002441406 -6.46097993850708 132.6653289794922" stroke-width="2.0" fill="none" stroke="rgb(0, 0, 0)" stroke-opacity="1" stroke-linecap="round" stroke-linejoin="round"/>
    <path d="M 92.28589630126953 53.980525970458984 C 104.54566955566406 81.23053741455078 81.09767150878906 72.71231842041016 113.4319076538086 78.9891357421875 C 93.4437026977539 76.86844635009766 98.33563232421875 52.073795318603516 116.72187805175781 41.70376968383789" stroke-width="2.0" fill="none" stroke="rgb(0, 0, 0)" stroke-opacity="1" stroke-linecap="round" stroke-linejoin="round"/>
    <path d="M 61.40228271484375 49.977691650390625 C 67.49541473388672 69.39522552490234 52.90365982055664 63.3783073425293 67.08556365966797 36.76956558227539" stroke-width="2.0" fill="none" stroke="rgb(0, 0, 0)" stroke-opacity="1" stroke-linecap="round" stroke-linejoin="round"/>
    <path d="M 40.20796203613281 179.9341278076172 C 46.580448150634766 165.76480102539062 35.08588790893555 150.4131317138672 64.42631530761719 176.96202087402344 C 50.24016189575195 178.4521942138672 21.710039138793945 181.70729064941406 25.693632125854492 169.0607452392578 C 38.44818115234375 179.30357360839844 16.44976806640625 152.14669799804688 13.875405311584473 194.0110626220703" stroke-width="2.0" fill="none" stroke="rgb(0, 0, 0)" stroke-opacity="1" stroke-linecap="round" stroke-linejoin="round"/>
    <path d="M 195.2296905517578 176.10728454589844 C 195.541259765625 167.23130798339844 180.22642517089844 132.5581512451172 179.91073608398438 164.7635955810547" stroke-width="2.0" fill="none" stroke="rgb(0, 0, 0)" stroke-opacity="1" stroke-linecap="round" stroke-linejoin="round"/>
    <path d="M 131.9217071533203 229.50936889648438 C 97.96470642089844 218.1424560546875 95.91111755371094 212.85842895507812 120.46466064453125 224.53265380859375 C 91.1180191040039 220.64390563964844 96.8133316040039 226.79718017578125 126.31473541259766 229.91424560546875 C 117.74272155761719 241.10397338867188 129.6567840576172 230.2654571533203 98.357666015625 216.23391723632812" stroke-width="2.0" fill="none" stroke="rgb(0, 0, 0)" stroke-opacity="1" stroke-linecap="round" stroke-linejoin="round"/>
    <path d="M 36.93315505981445 142.01536560058594 C 11.647579193115234 158.47674560546875 20.185129165649414 136.43260192871094 -11.175983428955078 134.12289428710938 C -3.5805208683013916 147.9744415283203 -10.683760643005371 147.97775268554688 -5.659694671630859 153.16152954101562" stroke-width="2.0" fill="none" stroke="rgb(0, 0, 0)" stroke-opacity="1" stroke-linecap="round" stroke-linejoin="round"/>
    <path d="M -2.3234965801239014 153.8900604248047 C 6.192290306091309 162.4292755126953 -4.607712268829346 206.2798309326172 -1.3243790864944458 149.43531799316406" stroke-width="2.0" fill="none" stroke="rgb(0, 0, 0)" stroke-opacity="1" stroke-linecap="round" stroke-linejoin="round"/>
    <path d="M 35.97312545776367 174.70314025878906 C 17.24991226196289 174.39181518554688 16.641347885131836 173.99383544921875 36.07514572143555 166.0759735107422 C 11.01681900024414 173.60450744628906 22.324995040893555 159.95944213867188 19.45199966430664 175.6455841064453" stroke-width="2.0" fill="none" stroke="rgb(0, 0, 0)" stroke-opacity="1" stroke-linecap="round" stroke-linejoin="round"/>
    <path d="M 99.93730163574219 170.59275817871094 C 98.95429992675781 144.21839904785156 111.3353500366211 138.99803161621094 110.09424591064453 135.1177978515625 C 116.72224426269531 124.8222885131836 118.73495483398438 134.2181396484375 106.09652709960938 140.56736755371094 C 97.60401916503906 136.53887939453125 124.18843078613281 141.7748260498047 108.03986358642578 106.77422332763672" stroke-width="2.0" fill="none" stroke="rgb(0, 0, 0)" stroke-opacity="1" stroke-linecap="round" stroke-linejoin="round"/>
    <path d="M 160.58790588378906 145.92063903808594 C 147.55174255371094 170.74307250976562 172.91464233398438 160.19651794433594 159.2320098876953 133.24600219726562 C 154.68759155273438 133.94403076171875 167.84307861328125 150.64476013183594 154.90029907226562 165.9680633544922" stroke-width="2.0" fill="none" stroke="rgb(0, 0, 0)" stroke-opacity="1" stroke-linecap="round" stroke-linejoin="round"/>
    <path d="M 20.974897384643555 17.028175354003906 C 28.16364097595215 14.145947456359863 9.045814514160156 40.60713195800781 18.866243362426758 53.694732666015625 C 14.517102241516113 32.98667526245117 23.17769432067871 18.305397033691406 16.807048797607422 37.3087043762207 C 21.3136043548584 4.101077556610107 11.748894691467285 0.39935317635536194 21.088436126708984 54.37953186035156" stroke-width="2.0" fill="none" stroke="rgb(0, 0, 0)" stroke-opacity="1" stroke-linecap="round" stroke-linejoin="round"/>
    <path d="M 177.75442504882812 125.4024658203125 C 193.50384521484375 122.54324340820312 202.33145141601562 104.8005599975586 195.6617431640625 74.19478607177734 C 189.7664031982422 76.0166244506836 192.89309692382812 74.74604797363281 202.98658752441406 91.9675521850586 C 196.91641235351562 74.86775970458984 226.32313537597656 80.10013580322266 190.7486114501953 74.37860870361328" stroke-width="2.0" fill="none" stroke="rgb(0, 0, 0)" stroke-opacity="1" stroke-linecap="round" stroke-linejoin="round"/>
    <path d="M 155.45822143554688 105.76858520507812 C 138.13101196289062 108.12004852294922 161.15658569335938 103.1727294921875 149.53648376464844 126.67549896240234 C 134.2693328857422 84.37178039550781 160.929443359375 117.87367248535156 160.3652801513672 156.3852996826172" stroke-width="2.0" fill="none" stroke="rgb(0, 0, 0)" stroke-opacity="1" stroke-linecap="round" stroke-linejoin="round"/>
    <path d="M 127.00627136230469 152.11318969726562 C 144.95199584960938 182.66461181640625 139.52877807617188 177.2753448486328 139.82594299316406 197.00924682617188 C 133.92190551757812 202.87721252441406 124.46631622314453 211.6007537841797 140.24685668945312 193.53778076171875" stroke-width="2.0" fill="none" stroke="rgb(0, 0, 0)" stroke-opacity="1" stroke-linecap="round" stroke-linejoin="round"/>
    <path d="M 77.56985473632812 85.9403305053711 C 106.75279998779297 104.19633483886719 129.8397674560547 94.52962493896484 98.88350677490234 88.66175842285156" stroke-width="2.0" fill="none" stroke="rgb(0, 0, 0)" stroke-opacity="1" stroke-linecap="round" stroke-linejoin="round"/>
    <path d="M 143.34226989746094 188.49037170410156 C 136.01995849609375 203.0603485107422 135.40550231933594 163.7554931640625 142.0127410888672 166.43667602539062 C 151.72154235839844 199.76136779785156 130.23440551757812 206.11172485351562 140.10829162597656 181.71559143066406 C 137.8390350341797 181.30172729492188 129.87017822265625 176.87139892578125 161.04425048828125 180.12548828125" stroke-width="2.0" fill="none" stroke="rgb(0, 0, 0)" stroke-opacity="1" stroke-linecap="round" stroke-linejoin="round"/>
    <path d="M 39.48398971557617 97.36418914794922 C 25.89055061340332 96.35194396972656 51.113712310791016 94.19386291503906 59.746238708496094 76.43326568603516 C 62.77055358886719 133.59999084472656 43.28334426879883 121.30435180664062 56.112178802490234 113.89386749267578 C 63.69166946411133 104.9122314453125 47.396915435791016 118.10659790039062 60.69157409667969 116.98973083496094" stroke-width="2.0" fill="none" stroke="rgb(0, 0, 0)" stroke-opacity="1" stroke-linecap="round" stroke-linejoin="round"/>
    <path d="M 219.00120544433594 142.26625061035156 C 217.6660919189453 135.3202667236328 209.26177978515625 111.22420501708984 197.08270263671875 120.22969055175781 C 205.8314666748047 126.96334075927734 212.2530059814453 117.25142669677734 201.8814239501953 78.1861343383789" stroke-width="2.0" fill="none" stroke="rgb(0, 0, 0)" stroke-opacity="1" stroke-linecap="round" stroke-linejoin="round"/>
    <path d="M 34.92776107788086 83.96215057373047 C 37.77095413208008 47.536869049072266 24.633689880371094 76.98939514160156 -1.8221198320388794 60.46319580078125 C -8.200592994689941 76.51447296142578 4.72260046005249 78.61280822753906 -0.2785665988922119 37.54794692993164" stroke-width="2.0" fill="none" stroke="rgb(0, 0, 0)" stroke-opacity="1" stroke-linecap="round" stroke-linejoin="round"/>
    <path d="M 26.29989242553711 231.55772399902344 C 44.87581253051758 230.9307098388672 37.72040939331055 230.88233947753906 39.20222091674805 236.9881134033203" stroke-width="2.0" fill="none" stroke="rgb(0, 0, 0)" stroke-opacity="1" stroke-linecap="round" stroke-linejoin="round"/>
    <path d="M 4.715595722198486 145.2130889892578 C 1.7226694822311401 135.42332458496094 -1.9286326169967651 117.15283966064453 -6.66713809967041 102.28447723388672 C 1.7296202182769775 129.3021697998047 0.8595424890518188 143.10948181152344 22.93618392944336 135.07931518554688" stroke-width="2.0" fill="none" stroke="rgb(0, 0, 0)" stroke-opacity="1" stroke-linecap="round" stroke-linejoin="round"/>
    <path d="M 49.04912185668945 217.5928192138672 C 93.11939239501953 237.12548828125 82.99259185791016 210.6974639892578 105.81094360351562 231.33953857421875 C 72.33819580078125 215.67364501953125 106.04920959472656 211.8828582763672 104.18677520751953 185.3516387939453 C 94.1253890991211 220.33523559570312 91.84070587158203 230.93051147460938 110.4612808227539 188.27447509765625" stroke-width="2.0" fill="none" stroke="rgb(0, 0, 0)" stroke-opacity="1" stroke-linecap="round" stroke-linejoin="round"/>
    <path d="M 41.86842346191406 127.61307525634766 C 69.21530151367188 134.39292907714844 62.848453521728516 119.40875244140625 59.19972610473633 143.48507690429688 C 55.62369918823242 128.11395263671875 67.3280258178711 133.8370819091797 48.351070404052734 135.12429809570312 C 36.40410614013672 143.69410705566406 24.120403289794922 146.09164428710938 34.33061981201172 140.71316528320312" stroke-width="2.0" fill="none" stroke="rgb(0, 0, 0)" stroke-opacity="1" stroke-linecap="round" stroke-linejoin="round"/>
    <path d="M 165.92514038085938 105.8405990600586 C 196.3291778564453 100.71823120117188 148.66575622558594 99.89310455322266 139.10508728027344 116.64361572265625 C 151.71189880371094 108.55256652832031 174.11585998535156 97.0868148803711 170.58114624023438 100.90621948242188 C 177.93418884277344 88.47383880615234 172.66949462890625 99.98664093017578 171.1136016845703 104.7540054321289" stroke-width="2.0" fill="none" stroke="rgb(0, 0, 0)" stroke-opacity="1" stroke-linecap="round" stroke-linejoin="round"/>
    <path d="M 210.95095825195312 153.04718017578125 C 206.03916931152344 149.90904235839844 218.6730194091797 155.27081298828125 231.73428344726562 151.34478759765625 C 228.24325561523438 136.1855010986328 226.996826171875 140.99169921875 229.00778198242188 133.78114318847656 C 215.6290740966797 115.62797546386719 228.8706817626953 88.59015655517578 227.1652069091797 81.67589569091797" stroke-width="2.0" fill="none" stroke="rgb(0, 0, 0)" stroke-opacity="1" stroke-linecap="round" stroke-linejoin="round"/>
    <path d="M 138.82737731933594 18.18460464477539 C 127.17595672607422 1.1602641344070435 134.29164123535156 -1.427414894104004 151.2030792236328 -8.44091796875" stroke-width="2.0" fill="none" stroke="rgb(0, 0, 0)" stroke-opacity="1" stroke-linecap="round" stroke-linejoin="round"/>
    <path d="M 77.0944595336914 176.96417236328125 C 32.46353530883789 176.04347229003906 51.66453552246094 166.651611328125 55.71213912963867 201.19754028320312 C 48.20562744140625 221.93472290039062 64.3167724609375 208.4947052001953 53.81090545654297 171.95361328125" stroke-width="2.0" fill="none" stroke="rgb(0, 0, 0)" stroke-opacity="1" stroke-linecap="round" stroke-linejoin="round"/>
    <path d="M 187.1283416748047 82.59201049804688 C 187.9564208984375 68.11183166503906 208.1150665283203 69.37606048583984 195.54959106445312 115.42514038085938 C 198.50088500976562 84.36084747314453 190.1279296875 68.98411560058594 200.093994140625 75.30158233642578 C 172.58349609375 76.33319854736328 156.1263885498047 64.87303161621094 187.83644104003906 73.40058898925781" stroke-width="2.0" fill="none" stroke="rgb(0, 0, 0)" stroke-opacity="1" stroke-linecap="round" stroke-linejoin="round"/>
    <path d="M 172.4678497314453 123.869384765625 C 172.77735900878906 118.0903091430664 194.66517639160156 123.94624328613281 212.9028778076172 123.6104507446289 C 197.81214904785156 111.8507308959961 205.47262573242188 114.56307220458984 192.837158203125 124.2471923828125 C 157.3966064453125 131.5308074951172 176.78335571289062 131.22946166992188 173.86883544921875 80.06903839111328" stroke-width="2.0" fill="none" stroke="rgb(0, 0, 0)" stroke-opacity="1" stroke-linecap="round" stroke-linejoin="round"/>
    <path d="M 182.15960693359375 212.00917053222656 C 200.0166778564453 206.6338653564453 168.79965209960938 214.59083557128906 154.0718994140625 204.78741455078125 C 161.04705810546875 209.53826904296875 161.75473022460938 213.5528106689453 200.85572814941406 196.73989868164062" stroke-width="2.0" fill="none" stroke="rgb(0, 0, 0)" stroke-opacity="1" stroke-linecap="round" stroke-linejoin="round"/>
    <path d="M 36.71519470214844 178.87721252441406 C 51.593292236328125 162.34283447265625 58.51074981689453 141.02235412597656 39.30735778808594 174.3602294921875 C 37.48619079589844 157.1559295654297 66.06796264648438 152.79486083984375 62.29661178588867 131.40113830566406 C 48.26338577270508 132.49179077148438 28.38429832458496 130.31954956054688 33.92621612548828 117.66769409179688" stroke-width="2.0" fill="none" stroke="rgb(0, 0, 0)" stroke-opacity="1" stroke-linecap="round" stroke-linejoin="round"/>
    <path d="M 202.83853149414062 192.997314453125 C 169.4606475830078 210.3816680908203 153.82789611816406 214.3142547607422 159.64093017578125 201.5590057373047 C 129.9171600341797 212.7755584716797 147.9400177001953 218.41824340820312 136.6307373046875 218.1514434814453 C 143.6292266845703 209.95040893554688 115.75958251953125 229.31378173828125 139.0237579345703 192.96734619140625" stroke-width="2.0" fill="none" stroke="rgb(0, 0, 0)" stroke-opacity="1" stroke-linecap="round" stroke-linejoin="round"/>
    <path d="M 34.1002082824707 -3.8785784244537354 C 3.7608234882354736 -8.192731857299805 35.956031799316406 -10.32801628112793 46.26399612426758 -1.9515293836593628 C 47.544586181640625 -8.60105037689209 57.95285415649414 2.151545763015747 38.93437957763672 1.4922940731048584" stroke-width="2.0" fill="none" stroke="rgb(0, 0, 0)" stroke-opacity="1" stroke-linecap="round" stroke-linejoin="round"/>
    <path d="M 196.7188262939453 201.6170196533203 C 198.33274841308594 166.53379821777344 193.99050903320312 143.06704711914062 194.180908203125 148.58631896972656" stroke-width="2.0" fill="none" stroke="rgb(0, 0, 0)" stroke-opacity="1" stroke-linecap="round" stroke-linejoin="round"/>
    <path d="M 228.25405883789062 182.3127899169922 C 214.5127410888672 208.5848388671875 220.7654571533203 214.12167358398438 231.29237365722656 225.35838317871094 C 238.72720336914062 205.70755004882812 248.10081481933594 196.29165649414062 256.50531005859375 201.89398193359375 C 266.615966796875 205.7883758544922 259.2915954589844 207.0557098388672 249.1103973388672 216.6046142578125" stroke-width="2.0" fill="none" stroke="rgb(0, 0, 0)" stroke-opacity="1" stroke-linecap="round" stroke-linejoin="round"/>
    <path d="M 120.94264221191406 126.44996643066406 C 134.40127563476562 140.13926696777344 129.80221557617188 132.83897399902344 114.52692413330078 129.29318237304688" stroke-width="2.0" fill="none" stroke="rgb(0, 0, 0)" stroke-opacity="1" stroke-linecap="round" stroke-linejoin="round"/>
    <path d="M 191.73916625976562 157.287109375 C 197.7406005859375 166.52713012695312 203.5300750732422 179.9603729248047 198.1420135498047 201.7904510498047" stroke-width="2.0" fill="none" stroke="rgb(0, 0, 0)" stroke-opacity="1" stroke-linecap="round" stroke-linejoin="round"/>
    <path d="M 224.8367919921875 61.24653625488281 C 215.47964477539062 90.75454711914062 245.1505584716797 112.78260803222656 226.61915588378906 89.64096069335938 C 225.48562622070312 97.06982421875 239.17230224609375 98.705810546875 247.40966796875 101.00550079345703" stroke-width="2.0" fill="none" stroke="rgb(0, 0, 0)" stroke-opacity="1" stroke-linecap="round" stroke-linejoin="round"/>
    <path d="M 171.1475372314453 44.017948150634766 C 153.55551147460938 51.863067626953125 172.2364044189453 63.96616744995117 177.3495635986328 91.9828872680664" stroke-width="2.0" fill="none" stroke="rgb(0, 0, 0)" stroke-opacity="1" stroke-linecap="round" stroke-linejoin="round"/>
    <path d="M 191.82620239257812 227.72787475585938 C 230.18048095703125 216.88182067871094 232.96241760253906 227.04916381835938 204.66094970703125 230.2684783935547 C 200.89224243164062 240.19338989257812 204.70703125 251.41261291503906 214.2796630859375 263.5903015136719" stroke-width="2.0" fill="none" stroke="rgb(0, 0, 0)" stroke-opacity="1" stroke-linecap="round" stroke-linejoin="round"/>
    <path d="M 140.93136596679688 90.24024963378906 C 94.51499938964844 100.41986083984375 149.7413787841797 79.45494842529297 121.77649688720703 65.5950698852539 C 114.41636657714844 61.77749252319336 110.81061553955078 63.57701110839844 159.75364685058594 68.7496109008789 C 116.12308502197266 69.93968200683594 109.42530822753906 40.39544677734375 116.45726776123047 60.991878509521484" stroke-width="2.0" fill="none" stroke="rgb(0, 0, 0)" stroke-opacity="1" stroke-linecap="round" stroke-linejoin="round"/>
    <path d="M 225.884521484375 12.388367652893066 C 217.39024353027344 -17.870939254760742 218.9247283935547 -4.60967493057251 238.84046936035156 -10.86178970336914 C 220.44032287597656 -28.515886306762695 206.02685546875 -26.64723777770996 188.46263122558594 -16.597061157226562 C 196.60694885253906 -24.585031509399414 203.04769897460938 -33.64454650878906 200.2744140625 -41.59990692138672" stroke-width="2.0" fill="none" stroke="rgb(0, 0, 0)" stroke-opacity="1" stroke-linecap="round" stroke-linejoin="round"/>
    <path d="M 24.199384689331055 194.42491149902344 C 8.741599082946777 181.61033630371094 33.98088836669922 201.78067016601562 11.828481674194336 217.74444580078125" stroke-width="2.0" fill="none" stroke="rgb(0, 0, 0)" stroke-opacity="1" stroke-linecap="round" stroke-linejoin="round"/>
    <path d="M 161.3295135498047 222.69293212890625 C 134.92185974121094 204.5677947998047 152.35052490234375 206.02005004882812 145.54502868652344 216.1164093017578 C 158.2367706298828 214.64215087890625 162.87860107421875 234.11546325683594 188.23663330078125 219.99366760253906 C 167.7099609375 226.22117614746094 156.56085205078125 227.23707580566406 179.09359741210938 232.6962127685547" stroke-width="2.0" fill="none" stroke="rgb(0, 0, 0)" stroke-opacity="1" stroke-linecap="round" stroke-linejoin="round"/>
    <path d="M 14.876201629638672 93.33080291748047 C 22.153358459472656 55.57527160644531 7.121209144592285 83.84925079345703 19.135807037353516 107.2420883178711 C 28.911697387695312 105.27484130859375 6.905545234680176 104.29571533203125 26.442638397216797 105.19752502441406" stroke-width="2.0" fill="none" stroke="rgb(0, 0, 0)" stroke-opacity="1" stroke-linecap="round" stroke-linejoin="round"/>
    <path d="M 140.16470336914062 92.68535614013672 C 165.85084533691406 98.62042999267578 125.91278076171875 95.3857421875 130.00245666503906 92.07124328613281 C 96.3033676147461 85.4084701538086 104.03519439697266 87.96070861816406 109.1248550415039 114.9283676147461 C 96.96212005615234 100.16926574707031 113.62535858154297 71.97219848632812 107.72842407226562 93.62596130371094" stroke-width="2.0" fill="none" stroke="rgb(0, 0, 0)" stroke-opacity="1" stroke-linecap="round" stroke-linejoin="round"/>
    <path d="M 33.42171859741211 68.28604888916016 C 16.262908935546875 55.06052017211914 24.127790451049805 50.277957916259766 29.097944259643555 65.56239318847656 C 40.512123107910156 89.74229431152344 -1.81401789188385 69.54373931884766 19.291175842285156 80.47218322753906" stroke-width="2.0" fill="none" stroke="rgb(0, 0, 0)" stroke-opacity="1" stroke-linecap="round" stroke-linejoin="round"/>
    <path d="M 44.903018951416016 180.75830078125 C 23.19255828857422 182.26646423339844 58.958290100097656 184.32821655273438 47.73249053955078 178.4224090576172 C 38.527313232421875 183.28941345214844 46.66339874267578 154.95542907714844 40.87043380737305 170.00538635253906" stroke-width="2.0" fill="none" stroke="rgb(0, 0, 0)" stroke-opacity="1" stroke-linecap="round" stroke-linejoin="round"/>
    <path d="M 102.1240005493164 158.50990295410156 C 105.35199737548828 131.08184814453125 105.75396728515625 139.33424377441406 75.43624114990234 158.22012329101562 C 89.02788543701172 140.7066650390625 98.24457550048828 128.93951416015625 101.00476837158203 153.67282104492188 C 106.9461669921875 133.38211059570312 84.00519561767578 149.09107971191406 86.69145965576172 149.41748046875" stroke-width="2.0" fill="none" stroke="rgb(0, 0, 0)" stroke-opacity="1" stroke-linecap="round" stroke-linejoin="round"/>
    <path d="M 164.1689910888672 206.77207946777344 C 193.6858673095703 203.4370880126953 178.7379913330078 212.06471252441406 154.97401428222656 206.76344299316406 C 176.9234619140625 218.01568603515625 194.3635711669922 206.28631591796875 199.91111755371094 217.1916046142578 C 190.55186462402344 226.16590881347656 207.5433349609375 219.18695068359375 225.80409240722656 201.94845581054688" stroke-width="2.0" fill="none" stroke="rgb(0, 0, 0)" stroke-opacity="1" stroke-linecap="round" stroke-linejoin="round"/>
    <path d="M 92.3990707397461 109.14234924316406 C 87.23001098632812 70.58525848388672 97.49236297607422 85.6058349609375 89.54218292236328 123.14328002929688 C 96.22673034667969 87.29517364501953 81.7110366821289 89.03324127197266 75.45280456542969 81.38127136230469 C 108.2737045288086 93.24148559570312 134.11083984375 101.72563171386719 84.80838775634766 86.30523681640625" stroke-width="2.0" fill="none" stroke="rgb(0, 0, 0)" stroke-opacity="1" stroke-linecap="round" stroke-linejoin="round"/>
    <path d="M 205.2420196533203 206.14053344726562 C 170.10220336914062 194.6241912841797 164.025634765625 210.9915771484375 189.17544555664062 200.43296813964844 C 185.19277954101562 196.08517456054688 193.26170349121094 203.77105712890625 207.02964782714844 173.69248962402344" stroke-width="2.0" fill="none" stroke="rgb(0, 0, 0)" stroke-opacity="1" stroke-linecap="round" stroke-linejoin="round"/>
    <path d="M 124.58920288085938 20.11349868774414 C 115.94620513916016 -0.7295854687690735 127.04019165039062 1.207628607749939 127.85769653320312 -1.3057197332382202" stroke-width="2.0" fill="none" stroke="rgb(0, 0, 0)" stroke-opacity="1" stroke-linecap="round" stroke-linejoin="round"/>
    <path d="M 59.4040412902832 29.988401412963867 C 45.792823791503906 22.51350975036621 75.56941223144531 26.213205337524414 52.71604919433594 -4.157252311706543 C 53.15558624267578 5.8409199714660645 75.93553161621094 22.191864013671875 67.30767822265625 35.72642517089844 C 73.56327056884766 29.5904598236084 52.303489685058594 12.099393844604492 71.26080322265625 17.425527572631836" stroke-width="2.0" fill="none" stroke="rgb(0, 0, 0)" stroke-opacity="1" stroke-linecap="round" stroke-linejoin="round"/>
    <path d="M 98.18585968017578 135.69598388671875 C 82.09225463867188 148.68849182128906 90.0167236328125 146.96768188476562 100.83831024169922 137.06704711914062" stroke-width="2.0" fill="none" stroke="rgb(0, 0, 0)" stroke-opacity="1" stroke-linecap="round" stroke-linejoin="round"/>
    <path d="M 177.03057861328125 226.41458129882812 C 163.57174682617188 220.97950744628906 162.34136962890625 237.15711975097656 173.94442749023438 246.65135192871094" stroke-width="2.0" fill="none" stroke="rgb(0, 0, 0)" stroke-opacity="1" stroke-linecap="round" stroke-linejoin="round"/>
    <path d="M 213.10952758789062 20.109548568725586 C 205.66432189941406 14.329791069030762 212.95208740234375 15.081883430480957 210.79832458496094 19.8553409576416 C 177.64773559570312 20.859180450439453 158.0565643310547 36.79601287841797 193.1529541015625 23.980894088745117 C 218.30538940429688 11.49523639678955 220.38662719726562 23.084623336791992 181.94073486328125 19.982234954833984" stroke-width="2.0" fill="none" stroke="rgb(0, 0, 0)" stroke-opacity="1" stroke-linecap="round" stroke-linejoin="round"/>
    <path d="M 140.03138732910156 119.09309387207031 C 137.0884246826172 91.55564880371094 163.43963623046875 126.45870208740234 167.05995178222656 143.6206512451172 C 165.33529663085938 149.95457458496094 146.1477508544922 161.7892608642578 148.7609100341797 174.00563049316406 C 171.24667358398438 185.53665161132812 146.82859802246094 169.53314208984375 156.38368225097656 189.92335510253906" stroke-width="2.0" fill="none" stroke="rgb(0, 0, 0)" stroke-opacity="1" stroke-linecap="round" stroke-linejoin="round"/>
    <path d="M 180.9647216796875 165.88502502441406 C 164.92640686035156 168.70423889160156 163.15476989746094 169.17047119140625 190.0353240966797 169.42037963867188" stroke-width="2.0" fill="none" stroke="rgb(0, 0, 0)" stroke-opacity="1" stroke-linecap="round" stroke-linejoin="round"/>
    <path d="M 158.66384887695312 130.9062042236328 C 165.7140350341797 138.58657836914062 169.13809204101562 156.52732849121094 154.8361053466797 167.1264190673828 C 193.12623596191406 164.44268798828125 148.64364624023438 152.62356567382812 172.5604248046875 164.12185668945312" stroke-width="2.0" fill="none" stroke="rgb(0, 0, 0)" stroke-opacity="1" stroke-linecap="round" stroke-linejoin="round"/>
    <path d="M 103.58930206298828 147.9696807861328 C 110.8440170288086 138.81182861328125 94.45638275146484 175.6294403076172 106.46290588378906 168.40643310546875 C 109.10111236572266 159.73170471191406 86.88526916503906 169.0134735107422 61.59424591064453 174.07237243652344 C 87.56096649169922 161.09176635742188 87.8305435180664 199.4431915283203 82.91217041015625 170.18496704101562" stroke-width="2.0" fill="none" stroke="rgb(0, 0, 0)" stroke-opacity="1" stroke-linecap="round" stroke-linejoin="round"/>
    <path d="M 215.90830993652344 82.97732543945312 C 232.31236267089844 83.73035430908203 229.8040008544922 69.17369842529297 244.95526123046875 97.3766860961914 C 232.2954559326172 115.95757293701172 220.87245178222656 84.50775146484375 221.3094482421875 70.83737182617188 C 229.64352416992188 44.636688232421875 231.23822021484375 39.19860076904297 234.92457580566406 51.8439826965332" stroke-width="2.0" fill="none" stroke="rgb(0, 0, 0)" stroke-opacity="1" stroke-linecap="round" stroke-linejoin="round"/>
    <path d="M 150.14825439453125 185.1187286376953 C 131.12925720214844 160.77517700195312 118.60753631591797 120.24500274658203 138.93026733398438 180.65505981445312 C 145.44200134277344 188.02442932128906 139.08326721191406 151.96609497070312 120.08245849609375 157.84779357910156" stroke-width="2.0" fill="none" stroke="rgb(0, 0, 0)" stroke-opacity="1" stroke-linecap="round" stroke-linejoin="round"/>
    <path d="M 74.58084869384766 129.95729064941406 C 89.55205535888672 131.12718200683594 72.81857299804688 158.5390167236328 87.51949310302734 138.7287139892578 C 89.1474838256836 143.48403930664062 84.03646850585938 135.84315490722656 103.16060638427734 134.70176696777344 C 62.68858337402344 156.666748046875 98.69071197509766 139.73959350585938 110.6527328491211 135.62454223632812" stroke-width="2.0" fill="none" stroke="rgb(0, 0, 0)" stroke-opacity="1" stroke-linecap="round" stroke-linejoin="round"/>
    <path d="M -5.3005523681640625 112.75621032714844 C 3.9413375854492188 104.13558959960938 2.093196392059326 87.96615600585938 -3.838526487350464 71.23619079589844 C -4.625851631164551 95.92991638183594 -17.032115936279297 109.9475326538086 9.169337272644043 114.47447967529297" stroke-width="2.0" fill="none" stroke="rgb(0, 0, 0)" stroke-opacity="1" stroke-linecap="round" stroke-linejoin="round"/>
    <path d="M 108.034423828125 52.18088150024414 C 101.01341247558594 57.20356750488281 122.57588195800781 53.86939239501953 141.45407104492188 82.4191665649414 C 130.74928283691406 72.68195343017578 115.22872924804688 64.31568145751953 104.34929656982422 56.619224548339844" stroke-width="2.0" fill="none" stroke="rgb(0, 0, 0)" stroke-opacity="1" stroke-linecap="round" stroke-linejoin="round"/>
    <path d="M 170.01260375976562 227.63101196289062 C 187.96983337402344 230.09071350097656 176.21998596191406 223.8186492919922 171.83323669433594 228.13511657714844 C 163.26673889160156 223.25099182128906 150.9723663330078 219.43128967285156 130.8989715576172 224.80392456054688 C 125.49262237548828 229.17193603515625 121.67367553710938 236.05172729492188 128.48251342773438 238.63597106933594" stroke-width="2.0" fill="none" stroke="rgb(0, 0, 0)" stroke-opacity="1" stroke-linecap="round" stroke-linejoin="round"/>
    <path d="M 142.74081420898438 176.1881866455078 C 141.18817138671875 191.09390258789062 138.34701538085938 178.36976623535156 123.53782653808594 150.060302734375 C 143.795166015625 181.50437927246094 136.45309448242188 170.9359893798828 121.47303771972656 176.19940185546875 C 91.03083038330078 182.23643493652344 116.64093017578125 144.8511199951172 88.9232406616211 144.62399291992188" stroke-width="2.0" fill="none" stroke="rgb(0, 0, 0)" stroke-opacity="1" stroke-linecap="round" stroke-linejoin="round"/>
    <path d="M 200.39292907714844 118.04901123046875 C 211.07640075683594 136.8522186279297 208.55084228515625 104.64463806152344 198.70455932617188 84.07965850830078 C 188.16864013671875 64.00627136230469 168.0418243408203 77.00608825683594 202.1006622314453 70.18746948242188" stroke-width="2.0" fill="none" stroke="rgb(0, 0, 0)" stroke-opacity="1" stroke-linecap="round" stroke-linejoin="round"/>
    <path d="M 133.06410217285156 122.0174789428711 C 141.39109802246094 131.65603637695312 135.66311645507812 123.27153015136719 127.09073638916016 115.59007263183594 C 126.88804626464844 121.07447052001953 146.8411102294922 132.39810180664062 157.46649169921875 132.01927185058594" stroke-width="2.0" fill="none" stroke="rgb(0, 0, 0)" stroke-opacity="1" stroke-linecap="round" stroke-linejoin="round"/>
    <path d="M 0.6850308775901794 61.51585388183594 C 10.053483963012695 46.006980895996094 -12.374685287475586 23.94725799560547 -4.954586505889893 10.616477966308594 C -5.285150051116943 30.809656143188477 -5.012674331665039 20.859603881835938 -2.908978223800659 10.725049018859863 C 1.94560968875885 -1.5099939107894897 13.480634689331055 -22.51811408996582 31.656702041625977 -2.627180337905884" stroke-width="2.0" fill="none" stroke="rgb(0, 0, 0)" stroke-opacity="1" stroke-linecap="round" stroke-linejoin="round"/>
    <path d="M 167.7755889892578 205.83572387695312 C 191.09051513671875 193.0756378173828 201.78451538085938 198.55072021484375 191.96043395996094 151.93716430664062 C 196.99288940429688 170.47666931152344 205.57876586914062 172.67672729492188 197.03158569335938 174.21253967285156" stroke-width="2.0" fill="none" stroke="rgb(0, 0, 0)" stroke-opacity="1" stroke-linecap="round" stroke-linejoin="round"/>
    <path d="M 11.550050735473633 111.4549331665039 C 1.36599862575531 119.97190856933594 30.84146499633789 103.57261657714844 52.79368591308594 103.3651351928711 C 1.375976324081421 103.54951477050781 14.677638053894043 101.9955825805664 51.164405822753906 108.5961685180664 C 39.393341064453125 70.59358978271484 54.82390213012695 98.9736099243164 50.016021728515625 109.40591430664062" stroke-width="2.0" fill="none" stroke="rgb(0, 0, 0)" stroke-opacity="1" stroke-linecap="round" stroke-linejoin="round"/>
    <path d="M 179.0291290283203 229.71343994140625 C 186.46629333496094 228.7701416015625 177.93887329101562 239.19784545898438 166.75839233398438 239.0338897705078 C 155.6420440673828 240.28573608398438 156.56813049316406 236.84226989746094 155.95362854003906 226.42091369628906" stroke-width="2.0" fill="none" stroke="rgb(0, 0, 0)" stroke-opacity="1" stroke-linecap="round" stroke-linejoin="round"/>
    <path d="M 197.66693115234375 46.780372619628906 C 196.5061798095703 11.527902603149414 195.40003967285156 32.91366195678711 178.3831329345703 28.62367820739746 C 195.1541748046875 13.780684471130371 166.67669677734375 23.258655548095703 186.93386840820312 31.74296760559082" stroke-width="2.0" fill="none" stroke="rgb(0, 0, 0)" stroke-opacity="1" stroke-linecap="round" stroke-linejoin="round"/>
    <path d="M 78.21914672851562 189.96713256835938 C 92.77399444580078 167.6702423095703 80.81474304199219 185.34738159179688 67.53789520263672 175.1542510986328 C 91.36701202392578 170.44496154785156 80.4974365234375 161.36512756347656 113.8724365234375 177.81500244140625 C 93.9359359741211 143.7328338623047 116.12328338623047 142.565673828125 114.91004943847656 122.87625122070312" stroke-width="2.0" fill="none" stroke="rgb(0, 0, 0)" stroke-opacity="1" stroke-linecap="round" stroke-linejoin="round"/>
    <path d="M 223.9530029296875 214.0476837158203 C 217.247314453125 204.92820739746094 229.78057861328125 184.7381134033203 227.87033081054688 180.98733520507812 C 192.64251708984375 168.64846801757812 198.57249450683594 196.56089782714844 193.224365234375 194.8469696044922" stroke-width="2.0" fill="none" stroke="rgb(0, 0, 0)" stroke-opacity="1" stroke-linecap="round" stroke-linejoin="round"/>
    <path d="M 15.483688354492188 19.202001571655273 C 22.490766525268555 4.075964450836182 2.6006972789764404 28.067218780517578 -1.6347044706344604 11.248923301696777 C -13.04747200012207 22.10776710510254 -16.829444885253906 24.092805862426758 -18.945449829101562 32.826541900634766 C -7.175938606262207 29.427669525146484 -3.1186776161193848 23.28545379638672 -13.168795585632324 25.574596405029297" stroke-width="2.0" fill="none" stroke="rgb(0, 0, 0)" stroke-opacity="1" stroke-linecap="round" stroke-linejoin="round"/>
    <path d="M 86.6504135131836 169.09521484375 C 77.80390167236328 173.82981872558594 78.9527816772461 213.53042602539062 78.20677947998047 171.34967041015625" stroke-width="2.0" fill="none" stroke="rgb(0, 0, 0)" stroke-opacity="1" stroke-linecap="round" stroke-linejoin="round"/>
    <path d="M 143.4164581298828 91.48210906982422 C 156.7297821044922 71.02604675292969 150.2893829345703 50.24543380737305 147.31507873535156 91.72095489501953 C 122.91856384277344 97.54312133789062 108.24537658691406 86.68436431884766 93.90161895751953 88.489013671875 C 154.23291015625 81.69453430175781 129.5341796875 71.95001220703125 109.4980239868164 102.64411926269531" stroke-width="2.0" fill="none" stroke="rgb(0, 0, 0)" stroke-opacity="1" stroke-linecap="round" stroke-linejoin="round"/>
    <path d="M 194.37425231933594 32.09602355957031 C 193.4464569091797 6.3543291091918945 204.57437133789062 45.37205123901367 198.4839324951172 45.631309509277344 C 204.97427368164062 26.176185607910156 182.82618713378906 65.48764038085938 199.32470703125 42.50014877319336 C 195.47711181640625 39.856693267822266 188.67141723632812 59.04682159423828 222.44171142578125 46.943519592285156" stroke-width="2.0" fill="none" stroke="rgb(0, 0, 0)" stroke-opacity="1" stroke-linecap="round" stroke-linejoin="round"/>
    <path d="M 126.52191925048828 69.93570709228516 C 107.95340728759766 54.65215301513672 102.6309585571289 56.73979568481445 113.50379943847656 54.35725784301758 C 124.71356201171875 25.536636352539062 104.24253845214844 38.047332763671875 100.87621307373047 75.72518157958984" stroke-width="2.0" fill="none" stroke="rgb(0, 0, 0)" stroke-opacity="1" stroke-linecap="round" stroke-linejoin="round"/>
    <path d="M 37.327701568603516 26.37165069580078 C 40.68448257446289 31.423542022705078 38.77192687988281 18.103029251098633 30.772233963012695 32.910823822021484 C 66.3759994506836 26.77983856201172 64.76971435546875 24.126564025878906 61.05223846435547 17.081026077270508" stroke-width="2.0" fill="none" stroke="rgb(0, 0, 0)" stroke-opacity="1" stroke-linecap="round" stroke-linejoin="round"/>
    <path d="M 116.54198455810547 126.322509765625 C 107.35419464111328 121.70863342285156 102.48615264892578 151.21932983398438 92.07135009765625 137.7509307861328" stroke-width="2.0" fill="none" stroke="rgb(0, 0, 0)" stroke-opacity="1" stroke-linecap="round" stroke-linejoin="round"/>
    <path d="M 89.24702453613281 145.48812866210938 C 116.22931671142578 134.65817260742188 92.66454315185547 136.4731903076172 84.60624694824219 149.73858642578125 C 47.08045959472656 173.4647674560547 88.62322998046875 149.82244873046875 75.85801696777344 119.16964721679688 C 74.52406311035156 140.49461364746094 81.98482513427734 139.1167755126953 65.3677978515625 159.9995880126953" stroke-width="2.0" fill="none" stroke="rgb(0, 0, 0)" stroke-opacity="1" stroke-linecap="round" stroke-linejoin="round"/>
    <path d="M 174.30369567871094 -5.119431972503662 C 168.0684356689453 14.00167179107666 170.5873565673828 -5.054702281951904 169.3077850341797 -18.54536247253418" stroke-width="2.0" fill="none" stroke="rgb(0, 0, 0)" stroke-opacity="1" stroke-linecap="round" stroke-linejoin="round"/>
    <path d="M 111.29703521728516 88.31031799316406 C 116.78539276123047 108.64364624023438 111.45467376708984 128.80677795410156 63.324485778808594 105.36974334716797 C 102.68531799316406 114.42487335205078 101.4401626586914 99.99597930908203 73.19400024414062 108.24423217773438 C 93.73583984375 111.86494445800781 110.312255859375 115.73174285888672 60.98068618774414 108.35562896728516" stroke-width="2.0" fill="none" stroke="rgb(0, 0, 0)" stroke-opacity="1" stroke-linecap="round" stroke-linejoin="round"/>
    <path d="M 113.9680404663086 137.27545166015625 C 95.9026107788086 131.59156799316406 87.2950210571289 145.24256896972656 117.05367279052734 175.90174865722656 C 99.91687774658203 165.23780822753906 101.77862548828125 168.65911865234375 102.4120864868164 146.36810302734375" stroke-width="2.0" fill="none" stroke="rgb(0, 0, 0)" stroke-opacity="1" stroke-linecap="round" stroke-linejoin="round"/>
    <path d="M 144.2366943359375 130.87777709960938 C 149.65394592285156 129.3319854736328 126.96561431884766 126.90898132324219 119.4088134765625 109.96897888183594 C 143.62741088867188 130.5634002685547 146.57481384277344 136.20309448242188 120.16280364990234 107.38677215576172 C 129.72897338867188 79.79120635986328 106.60997009277344 112.16445922851562 141.33038330078125 132.8569793701172" stroke-width="2.0" fill="none" stroke="rgb(0, 0, 0)" stroke-opacity="1" stroke-linecap="round" stroke-linejoin="round"/>
    <path d="M 133.0030059814453 6.266293048858643 C 143.38648986816406 15.870183944702148 154.10513305664062 31.948699951171875 138.1634979248047 48.157012939453125" stroke-width="2.0" fill="none" stroke="rgb(0, 0, 0)" stroke-opacity="1" stroke-linecap="round" stroke-linejoin="round"/>
  </g>
</svg>
