<?xml version="1.0" ?>
<svg xmlns="http://www.w3.org/2000/svg" version="1.1" width="224" height="224">
  <defs/>
  <g>
    <path d="M 117.15093231201172 177.2657012939453 C 93.41472625732422 178.57574462890625 111.16614532470703 170.43186950683594 124.22246551513672 167.81907653808594 C 105.4812240600586 183.17034912109375 91.61510467529297 185.84771728515625 102.45454406738281 175.4591064453125 C 75.03719329833984 177.20787048339844 111.8965835571289 206.30787658691406 100.73995971679688 217.6383514404297" stroke-width="2.0" fill="none" stroke="rgb(0, 0, 0)" stroke-opacity="1" stroke-linecap="round" stroke-linejoin="round"/>
    <path d="M 93.18441009521484 146.91012573242188 C 79.30107116699219 152.60931396484375 107.68633270263672 157.68325805664062 92.41081237792969 139.34075927734375 C 110.55828094482422 165.3096160888672 78.83393859863281 138.506103515625 96.08757781982422 155.58328247070312 C 100.39961242675781 146.0364227294922 96.79558563232422 176.43406677246094 92.7907485961914 145.99449157714844" stroke-width="2.0" fill="none" stroke="rgb(0, 0, 0)" stroke-opacity="1" stroke-linecap="round" stroke-linejoin="round"/>
    <path d="M 137.76031494140625 75.04198455810547 C 153.05577087402344 39.62759017944336 153.16241455078125 69.03533935546875 142.20335388183594 64.58822631835938 C 155.77000427246094 74.38203430175781 144.29457092285156 77.73040771484375 139.89903259277344 67.37022399902344 C 160.488525390625 69.24458312988281 129.54019165039062 58.18815994262695 157.7056427001953 64.76922607421875" stroke-width="2.0" fill="none" stroke="rgb(0, 0, 0)" stroke-opacity="1" stroke-linecap="round" stroke-linejoin="round"/>
    <path d="M 112.72468566894531 167.07472229003906 C 102.52240753173828 188.15733337402344 115.75236511230469 172.109130859375 106.59561157226562 182.88482666015625 C 125.86772155761719 158.04824829101562 136.0391845703125 194.08639526367188 109.99058532714844 167.3775177001953" stroke-width="2.0" fill="none" stroke="rgb(0, 0, 0)" stroke-opacity="1" stroke-linecap="round" stroke-linejoin="round"/>
    <path d="M 159.00437927246094 225.77120971679688 C 152.9709014892578 180.96810913085938 135.71084594726562 204.4429931640625 172.65402221679688 177.91152954101562" stroke-width="2.0" fill="none" stroke="rgb(0, 0, 0)" stroke-opacity="1" stroke-linecap="round" stroke-linejoin="round"/>
    <path d="M 163.88970947265625 49.01702117919922 C 163.43153381347656 68.4367446899414 153.94505310058594 44.25885772705078 163.72523498535156 54.103668212890625" stroke-width="2.0" fill="none" stroke="rgb(0, 0, 0)" stroke-opacity="1" stroke-linecap="round" stroke-linejoin="round"/>
    <path d="M 220.1599884033203 133.66024780273438 C 236.07147216796875 96.18343353271484 230.4830322265625 120.51898956298828 230.7510223388672 106.03740692138672 C 231.5474853515625 95.45951843261719 214.95318603515625 112.64505767822266 230.62388610839844 104.75945281982422 C 222.37245178222656 124.58076477050781 230.50906372070312 134.7317657470703 229.9385223388672 152.8853302001953" stroke-width="2.0" fill="none" stroke="rgb(0, 0, 0)" stroke-opacity="1" stroke-linecap="round" stroke-linejoin="round"/>
    <path d="M 77.14225006103516 135.67144775390625 C 102.96498107910156 116.45460510253906 118.16799926757812 120.59941864013672 84.5345687866211 128.9733428955078 C 110.45149993896484 163.9394073486328 97.98436737060547 150.07540893554688 87.94456481933594 137.93788146972656" stroke-width="2.0" fill="none" stroke="rgb(0, 0, 0)" stroke-opacity="1" stroke-linecap="round" stroke-linejoin="round"/>
    <path d="M 72.93003845214844 97.82781219482422 C 48.388370513916016 61.23918151855469 27.349010467529297 54.55545425415039 43.780460357666016 80.54438781738281" stroke-width="2.0" fill="none" stroke="rgb(0, 0, 0)" stroke-opacity="1" stroke-linecap="round" stroke-linejoin="round"/>
    <path d="M 174.3263702392578 27.601215362548828 C 122.36644744873047 12.827674865722656 157.08444213867188 18.54854393005371 175.89773559570312 23.677595138549805 C 184.36138916015625 -3.901803731918335 183.86422729492188 -13.169970512390137 188.6836395263672 -29.751953125" stroke-width="2.0" fill="none" stroke="rgb(0, 0, 0)" stroke-opacity="1" stroke-linecap="round" stroke-linejoin="round"/>
    <path d="M 193.66233825683594 48.29956817626953 C 164.46131896972656 44.90199279785156 268.23895263671875 39.514522552490234 174.64703369140625 49.249698638916016 C 186.0184326171875 18.726882934570312 190.5265655517578 -7.038211345672607 192.3132781982422 34.5251579284668 C 222.1894989013672 31.82955551147461 212.99378967285156 25.51913833618164 189.60943603515625 28.714000701904297" stroke-width="2.0" fill="none" stroke="rgb(0, 0, 0)" stroke-opacity="1" stroke-linecap="round" stroke-linejoin="round"/>
    <path d="M 128.94915771484375 154.64340209960938 C 131.6321258544922 180.6428985595703 144.1022186279297 166.79489135742188 152.68270874023438 160.12789916992188" stroke-width="2.0" fill="none" stroke="rgb(0, 0, 0)" stroke-opacity="1" stroke-linecap="round" stroke-linejoin="round"/>
    <path d="M 113.43169403076172 54.05050277709961 C 106.40947723388672 68.54702758789062 128.2766876220703 47.46549987792969 83.01258850097656 65.2237777709961 C 103.75694274902344 75.93846130371094 113.67061614990234 60.44428253173828 71.91051483154297 54.592262268066406 C 93.87512969970703 38.54959487915039 65.39576721191406 85.3375473022461 95.73763275146484 74.14580535888672" stroke-width="2.0" fill="none" stroke="rgb(0, 0, 0)" stroke-opacity="1" stroke-linecap="round" stroke-linejoin="round"/>
    <path d="M 80.6259765625 65.99258422851562 C 55.1308479309082 113.03569030761719 81.21317291259766 89.80144500732422 81.40310668945312 60.55145263671875" stroke-width="2.0" fill="none" stroke="rgb(0, 0, 0)" stroke-opacity="1" stroke-linecap="round" stroke-linejoin="round"/>
    <path d="M 113.21733093261719 114.40298461914062 C 73.79338073730469 93.05933380126953 109.6015396118164 88.13636779785156 124.23838806152344 65.2893295288086 C 95.0374526977539 108.43952178955078 64.89556884765625 100.8783187866211 57.12180709838867 93.91582489013672 C 87.40524291992188 78.58766174316406 61.72831344604492 96.83995056152344 49.659080505371094 63.79498291015625" stroke-width="2.0" fill="none" stroke="rgb(0, 0, 0)" stroke-opacity="1" stroke-linecap="round" stroke-linejoin="round"/>
    <path d="M 228.64328002929688 156.71360778808594 C 166.75192260742188 161.4747772216797 201.21621704101562 169.5891876220703 189.2617645263672 164.5591583251953" stroke-width="2.0" fill="none" stroke="rgb(0, 0, 0)" stroke-opacity="1" stroke-linecap="round" stroke-linejoin="round"/>
    <path d="M 14.521441459655762 201.83750915527344 C 53.39678192138672 221.10362243652344 66.9484634399414 224.3650665283203 76.07115173339844 210.64610290527344 C 61.63463592529297 187.1941680908203 76.18746185302734 208.15721130371094 52.97494888305664 217.7050323486328" stroke-width="2.0" fill="none" stroke="rgb(0, 0, 0)" stroke-opacity="1" stroke-linecap="round" stroke-linejoin="round"/>
    <path d="M 182.3199005126953 -4.897460460662842 C 178.798095703125 -1.745537519454956 164.81898498535156 -4.125982761383057 187.42990112304688 -7.539015293121338 C 203.0206298828125 -9.057547569274902 202.17144775390625 -11.45310115814209 182.35879516601562 -1.085361123085022 C 193.18841552734375 -2.491854190826416 185.77662658691406 -10.462230682373047 181.100341796875 15.325010299682617" stroke-width="2.0" fill="none" stroke="rgb(0, 0, 0)" stroke-opacity="1" stroke-linecap="round" stroke-linejoin="round"/>
    <path d="M 177.20181274414062 60.21466827392578 C 172.59954833984375 70.48346710205078 181.8587188720703 53.048954010009766 171.62765502929688 69.60562896728516" stroke-width="2.0" fill="none" stroke="rgb(0, 0, 0)" stroke-opacity="1" stroke-linecap="round" stroke-linejoin="round"/>
    <path d="M 90.36808013916016 160.22268676757812 C 104.31379699707031 167.24444580078125 79.3333969116211 161.66510009765625 79.71552276611328 194.47122192382812" stroke-width="2.0" fill="none" stroke="rgb(0, 0, 0)" stroke-opacity="1" stroke-linecap="round" stroke-linejoin="round"/>
    <path d="M 197.30564880371094 194.17919921875 C 196.3076171875 213.73020935058594 190.40560913085938 168.6195526123047 206.01657104492188 212.0721435546875" stroke-width="2.0" fill="none" stroke="rgb(0, 0, 0)" stroke-opacity="1" stroke-linecap="round" stroke-linejoin="round"/>
    <path d="M 127.98517608642578 159.8470001220703 C 122.97586059570312 170.08705139160156 161.2914276123047 155.07298278808594 161.86790466308594 160.76133728027344" stroke-width="2.0" fill="none" stroke="rgb(0, 0, 0)" stroke-opacity="1" stroke-linecap="round" stroke-linejoin="round"/>
    <path d="M 53.95769119262695 79.05805206298828 C 70.75359344482422 76.16593170166016 50.57275390625 115.31757354736328 59.419471740722656 88.01351928710938 C 71.206298828125 101.6455078125 48.134849548339844 102.68506622314453 59.50590515136719 97.75895690917969 C 48.43968200683594 108.88868713378906 64.35206604003906 68.4969711303711 47.6640510559082 104.61005401611328" stroke-width="2.0" fill="none" stroke="rgb(0, 0, 0)" stroke-opacity="1" stroke-linecap="round" stroke-linejoin="round"/>
    <path d="M 42.592403411865234 177.07989501953125 C 65.5705795288086 186.1378173828125 27.08115577697754 196.41957092285156 43.66361999511719 171.3126983642578 C 27.558643341064453 189.48912048339844 32.57732391357422 234.197265625 36.866455078125 196.894775390625" stroke-width="2.0" fill="none" stroke="rgb(0, 0, 0)" stroke-opacity="1" stroke-linecap="round" stroke-linejoin="round"/>
    <path d="M 85.69367980957031 37.99103927612305 C 48.49382019042969 9.402602195739746 53.195613861083984 2.8396286964416504 64.24574279785156 22.836347579956055 C 20.127914428710938 29.48436737060547 77.68253326416016 33.87997055053711 83.03524780273438 17.365705490112305 C 66.47611999511719 28.671457290649414 78.07373046875 23.07506561279297 100.39319610595703 47.272335052490234" stroke-width="2.0" fill="none" stroke="rgb(0, 0, 0)" stroke-opacity="1" stroke-linecap="round" stroke-linejoin="round"/>
    <path d="M 50.47196578979492 94.18682098388672 C 31.454111099243164 119.52879333496094 29.484220504760742 129.91236877441406 47.64566421508789 100.54946899414062" stroke-width="2.0" fill="none" stroke="rgb(0, 0, 0)" stroke-opacity="1" stroke-linecap="round" stroke-linejoin="round"/>
    <path d="M 119.24443817138672 181.9052734375 C 105.8334732055664 187.5504150390625 115.77851104736328 196.28207397460938 100.61698150634766 177.2650146484375" stroke-width="2.0" fill="none" stroke="rgb(0, 0, 0)" stroke-opacity="1" stroke-linecap="round" stroke-linejoin="round"/>
    <path d="M 45.710079193115234 225.54551696777344 C 58.73683547973633 223.20639038085938 72.71055603027344 214.9674072265625 94.53028106689453 180.42691040039062" stroke-width="2.0" fill="none" stroke="rgb(0, 0, 0)" stroke-opacity="1" stroke-linecap="round" stroke-linejoin="round"/>
    <path d="M 66.37535858154297 24.62509536743164 C 71.30638885498047 24.475751876831055 85.35063934326172 48.29054641723633 96.33155059814453 39.71207046508789 C 67.28995513916016 7.132577419281006 70.91175842285156 26.98722267150879 84.89115142822266 12.330465316772461 C 85.65416717529297 23.176387786865234 80.04977416992188 13.53618049621582 75.95587158203125 22.62105941772461" stroke-width="2.0" fill="none" stroke="rgb(0, 0, 0)" stroke-opacity="1" stroke-linecap="round" stroke-linejoin="round"/>
    <path d="M 179.61196899414062 50.04059600830078 C 219.69174194335938 46.51495361328125 224.56954956054688 51.92533493041992 220.7228240966797 20.828950881958008 C 219.62376403808594 41.83342742919922 229.68675231933594 36.9297981262207 237.53587341308594 43.64765167236328 C 181.87777709960938 48.97757339477539 168.68942260742188 55.84269714355469 182.95018005371094 45.57368469238281" stroke-width="2.0" fill="none" stroke="rgb(0, 0, 0)" stroke-opacity="1" stroke-linecap="round" stroke-linejoin="round"/>
    <path d="M 186.0904083251953 158.7577362060547 C 183.64788818359375 173.3760528564453 180.36264038085938 144.324951171875 195.2553253173828 169.74948120117188 C 188.08975219726562 155.65089416503906 180.67994689941406 162.69703674316406 186.7067413330078 177.6117706298828" stroke-width="2.0" fill="none" stroke="rgb(0, 0, 0)" stroke-opacity="1" stroke-linecap="round" stroke-linejoin="round"/>
    <path d="M 84.16748046875 195.7714080810547 C 92.29219055175781 167.89743041992188 107.2477035522461 172.63511657714844 93.11479949951172 177.4864044189453 C 123.31881713867188 175.48236083984375 119.42452239990234 152.23851013183594 135.0291748046875 187.05267333984375" stroke-width="2.0" fill="none" stroke="rgb(0, 0, 0)" stroke-opacity="1" stroke-linecap="round" stroke-linejoin="round"/>
    <path d="M 62.74470520019531 23.01096534729004 C 79.21897888183594 75.18653869628906 85.39788818359375 62.544288635253906 74.74311828613281 56.95195007324219" stroke-width="2.0" fill="none" stroke="rgb(0, 0, 0)" stroke-opacity="1" stroke-linecap="round" stroke-linejoin="round"/>
    <path d="M 151.57969665527344 165.02178955078125 C 140.9843292236328 148.16680908203125 144.7537841796875 165.0319366455078 144.82594299316406 158.68435668945312 C 168.13937377929688 149.62693786621094 160.7220001220703 163.40713500976562 148.83718872070312 139.5758056640625 C 130.37176513671875 181.01747131347656 137.5590057373047 178.54974365234375 109.13844299316406 124.154541015625" stroke-width="2.0" fill="none" stroke="rgb(0, 0, 0)" stroke-opacity="1" stroke-linecap="round" stroke-linejoin="round"/>
    <path d="M 159.4652862548828 118.65233612060547 C 147.04766845703125 109.10039520263672 148.95895385742188 85.60159301757812 138.94383239746094 112.7495346069336" stroke-width="2.0" fill="none" stroke="rgb(0, 0, 0)" stroke-opacity="1" stroke-linecap="round" stroke-linejoin="round"/>
    <path d="M 71.75582885742188 40.197105407714844 C 62.734676361083984 15.109448432922363 59.065670013427734 24.088502883911133 36.14118194580078 23.763111114501953 C 57.13817596435547 20.128767013549805 61.52345657348633 52.27280044555664 37.62894058227539 38.625553131103516" stroke-width="2.0" fill="none" stroke="rgb(0, 0, 0)" stroke-opacity="1" stroke-linecap="round" stroke-linejoin="round"/>
    <path d="M 50.358924865722656 225.47836303710938 C 59.09994125366211 231.516357421875 23.52970314025879 228.5865478515625 55.07083511352539 222.5403289794922 C 83.73021697998047 213.3631134033203 44.51959991455078 221.05706787109375 64.11155700683594 212.86773681640625" stroke-width="2.0" fill="none" stroke="rgb(0, 0, 0)" stroke-opacity="1" stroke-linecap="round" stroke-linejoin="round"/>
    <path d="M 65.96475219726562 58.4231071472168 C 61.53022384643555 47.92569351196289 74.67499542236328 60.45429229736328 64.0845718383789 55.974639892578125" stroke-width="2.0" fill="none" stroke="rgb(0, 0, 0)" stroke-opacity="1" stroke-linecap="round" stroke-linejoin="round"/>
    <path d="M -6.445199966430664 187.7880096435547 C 38.882015228271484 211.01409912109375 48.0829963684082 213.13584899902344 12.872651100158691 206.33486938476562 C 19.27654457092285 152.16781616210938 43.284603118896484 131.2214813232422 22.65752410888672 177.0843963623047" stroke-width="2.0" fill="none" stroke="rgb(0, 0, 0)" stroke-opacity="1" stroke-linecap="round" stroke-linejoin="round"/>
    <path d="M 41.22370147705078 67.03350067138672 C 35.63075256347656 35.27791976928711 43.73780059814453 43.130550384521484 41.39034652709961 70.13801574707031" stroke-width="2.0" fill="none" stroke="rgb(0, 0, 0)" stroke-opacity="1" stroke-linecap="round" stroke-linejoin="round"/>
    <path d="M 111.37354278564453 175.95225524902344 C 144.75057983398438 164.61180114746094 128.6077423095703 169.94863891601562 131.59912109375 165.01406860351562 C 145.08714294433594 200.8726348876953 147.25479125976562 163.63462829589844 114.0133285522461 169.47830200195312 C 91.45912170410156 198.2581329345703 128.8333282470703 155.58277893066406 143.40975952148438 162.28379821777344" stroke-width="2.0" fill="none" stroke="rgb(0, 0, 0)" stroke-opacity="1" stroke-linecap="round" stroke-linejoin="round"/>
    <path d="M 66.87369537353516 21.96999740600586 C 19.93096160888672 16.4495849609375 -3.24739933013916 39.86572265625 29.314908981323242 6.629302978515625 C 99.89159393310547 -3.3899295330047607 83.48080444335938 4.279797554016113 26.005355834960938 9.20234203338623 C 18.35070037841797 26.006628036499023 34.476985931396484 20.40718650817871 68.47162628173828 25.654251098632812" stroke-width="2.0" fill="none" stroke="rgb(0, 0, 0)" stroke-opacity="1" stroke-linecap="round" stroke-linejoin="round"/>
    <path d="M 141.53851318359375 9.981042861938477 C 115.0833740234375 -6.509520530700684 113.39955139160156 2.4516489505767822 133.78192138671875 -4.7054057121276855 C 149.40586853027344 -23.98094367980957 140.93533325195312 -31.885339736938477 152.05136108398438 -37.76768112182617 C 145.1014862060547 -25.10251808166504 143.17849731445312 -35.29875946044922 148.39276123046875 -32.30375289916992" stroke-width="2.0" fill="none" stroke="rgb(0, 0, 0)" stroke-opacity="1" stroke-linecap="round" stroke-linejoin="round"/>
    <path d="M 105.328857421875 227.92941284179688 C 45.29638671875 213.5552978515625 63.53302764892578 231.58535766601562 84.63262176513672 193.299560546875" stroke-width="2.0" fill="none" stroke="rgb(0, 0, 0)" stroke-opacity="1" stroke-linecap="round" stroke-linejoin="round"/>
    <path d="M 165.09332275390625 57.3253288269043 C 152.00523376464844 60.79636001586914 118.46333312988281 53.83549880981445 162.1991424560547 62.17243194580078 C 169.72853088378906 47.536949157714844 174.9711151123047 31.065446853637695 178.8577117919922 18.651134490966797" stroke-width="2.0" fill="none" stroke="rgb(0, 0, 0)" stroke-opacity="1" stroke-linecap="round" stroke-linejoin="round"/>
    <path d="M 36.012943267822266 219.74453735351562 C 3.362797737121582 202.78773498535156 -0.9557622671127319 192.6496124267578 41.14177703857422 211.40354919433594" stroke-width="2.0" fill="none" stroke="rgb(0, 0, 0)" stroke-opacity="1" stroke-linecap="round" stroke-linejoin="round"/>
    <path d="M 69.97964477539062 111.7640151977539 C 96.25989532470703 157.2936248779297 78.55884552001953 122.3233642578125 94.93878936767578 133.45956420898438 C 95.2889175415039 131.51527404785156 84.72927856445312 121.0500259399414 87.36630249023438 121.4305419921875 C 70.714111328125 111.77689361572266 90.4776840209961 121.230224609375 101.11869049072266 133.95504760742188" stroke-width="2.0" fill="none" stroke="rgb(0, 0, 0)" stroke-opacity="1" stroke-linecap="round" stroke-linejoin="round"/>
    <path d="M 186.6741180419922 60.135658264160156 C 151.45907592773438 62.17766189575195 169.95042419433594 53.34627914428711 228.4807891845703 58.74449920654297" stroke-width="2.0" fill="none" stroke="rgb(0, 0, 0)" stroke-opacity="1" stroke-linecap="round" stroke-linejoin="round"/>
    <path d="M 168.0444793701172 172.9807891845703 C 181.14959716796875 177.65443420410156 177.42173767089844 179.07168579101562 193.24649047851562 216.65460205078125 C 180.74386596679688 178.12979125976562 158.02914428710938 148.3939666748047 186.3233642578125 175.37538146972656 C 175.09063720703125 153.9051971435547 167.4311065673828 196.2599334716797 167.8763885498047 171.15548706054688" stroke-width="2.0" fill="none" stroke="rgb(0, 0, 0)" stroke-opacity="1" stroke-linecap="round" stroke-linejoin="round"/>
    <path d="M 46.46855926513672 214.4425048828125 C 64.70774841308594 231.3319854736328 63.34956359863281 173.28363037109375 74.57410430908203 206.47958374023438 C 61.448490142822266 222.73257446289062 30.786890029907227 229.0680389404297 44.576385498046875 199.4359893798828" stroke-width="2.0" fill="none" stroke="rgb(0, 0, 0)" stroke-opacity="1" stroke-linecap="round" stroke-linejoin="round"/>
    <path d="M 202.908935546875 213.61167907714844 C 196.90335083007812 166.69528198242188 213.96739196777344 211.95941162109375 208.50291442871094 215.4539337158203 C 168.19967651367188 230.90029907226562 194.1556396484375 222.5533447265625 175.41305541992188 215.9112091064453" stroke-width="2.0" fill="none" stroke="rgb(0, 0, 0)" stroke-opacity="1" stroke-linecap="round" stroke-linejoin="round"/>
    <path d="M 91.29801177978516 65.72627258300781 C 72.45359802246094 85.41009521484375 109.9730453491211 82.82732391357422 101.54401397705078 73.88990020751953 C 94.38262939453125 67.46966552734375 104.00568389892578 70.11058044433594 95.91170501708984 54.62670135498047" stroke-width="2.0" fill="none" stroke="rgb(0, 0, 0)" stroke-opacity="1" stroke-linecap="round" stroke-linejoin="round"/>
    <path d="M 174.33018493652344 78.76583099365234 C 187.99737548828125 91.71796417236328 150.90696716308594 87.87110900878906 163.22605895996094 116.90250396728516 C 144.456298828125 125.68851470947266 137.17425537109375 117.11390686035156 154.1305389404297 86.06304931640625 C 159.7383270263672 110.02326965332031 175.58457946777344 95.51106262207031 159.42929077148438 98.61196899414062" stroke-width="2.0" fill="none" stroke="rgb(0, 0, 0)" stroke-opacity="1" stroke-linecap="round" stroke-linejoin="round"/>
    <path d="M 139.48736572265625 93.20008087158203 C 151.3491973876953 100.42029571533203 148.45555114746094 96.04838562011719 137.2174835205078 117.2659912109375" stroke-width="2.0" fill="none" stroke="rgb(0, 0, 0)" stroke-opacity="1" stroke-linecap="round" stroke-linejoin="round"/>
    <path d="M 55.25935363769531 77.91083526611328 C 59.677860260009766 44.499385833740234 54.929264068603516 42.567623138427734 57.70603561401367 55.31059265136719 C 33.375701904296875 60.65972137451172 40.66598892211914 31.90450096130371 40.16608810424805 56.5838508605957" stroke-width="2.0" fill="none" stroke="rgb(0, 0, 0)" stroke-opacity="1" stroke-linecap="round" stroke-linejoin="round"/>
    <path d="M 80.54570007324219 63.089561462402344 C 81.20494842529297 48.50901412963867 83.02619171142578 71.07872009277344 74.79360961914062 81.47666931152344 C 56.1812629699707 70.93549346923828 84.12223815917969 53.99469757080078 64.59935760498047 84.35015869140625 C 65.69464111328125 78.5479965209961 76.88951110839844 43.293914794921875 60.46955871582031 88.48089599609375" stroke-width="2.0" fill="none" stroke="rgb(0, 0, 0)" stroke-opacity="1" stroke-linecap="round" stroke-linejoin="round"/>
    <path d="M 116.08631134033203 13.996988296508789 C 125.82091522216797 -4.36028528213501 146.219482421875 1.2451050281524658 123.19041442871094 -9.23627758026123 C 121.68856048583984 -11.719526290893555 137.38763427734375 -0.3221074640750885 151.33702087402344 6.5835700035095215 C 188.39369201660156 1.3777070045471191 186.42947387695312 10.96453857421875 147.9842071533203 2.511082887649536" stroke-width="2.0" fill="none" stroke="rgb(0, 0, 0)" stroke-opacity="1" stroke-linecap="round" stroke-linejoin="round"/>
    <path d="M 53.686336517333984 65.95664978027344 C 42.089839935302734 79.593994140625 68.99392700195312 72.33413696289062 33.34897232055664 86.84710693359375 C 11.221356391906738 118.17678833007812 34.96616744995117 101.16510009765625 28.912919998168945 106.29732513427734" stroke-width="2.0" fill="none" stroke="rgb(0, 0, 0)" stroke-opacity="1" stroke-linecap="round" stroke-linejoin="round"/>
    <path d="M 186.79258728027344 160.71966552734375 C 197.1234893798828 168.42906188964844 195.73858642578125 155.8485565185547 189.6950225830078 168.84613037109375 C 201.666748046875 151.16737365722656 233.78785705566406 151.38253784179688 235.5554962158203 145.53587341308594 C 228.87197875976562 164.74559020996094 217.33070373535156 174.83619689941406 223.5626983642578 143.77919006347656" stroke-width="2.0" fill="none" stroke="rgb(0, 0, 0)" stroke-opacity="1" stroke-linecap="round" stroke-linejoin="round"/>
    <path d="M 13.625580787658691 120.87300872802734 C 10.409801483154297 119.98665618896484 -16.98292350769043 119.74942016601562 33.253849029541016 131.6536865234375 C 30.64769744873047 151.20225524902344 32.99663543701172 151.8677520751953 46.50654220581055 136.18731689453125 C 37.11787033081055 134.0225067138672 -20.821990966796875 121.27954864501953 10.478106498718262 134.21170043945312" stroke-width="2.0" fill="none" stroke="rgb(0, 0, 0)" stroke-opacity="1" stroke-linecap="round" stroke-linejoin="round"/>
    <path d="M 59.967960357666016 3.0898680686950684 C 18.747732162475586 10.062268257141113 -7.990041255950928 -11.494158744812012 -15.960068702697754 -8.482111930847168 C 13.18143367767334 -8.26821231842041 8.04100513458252 -14.018903732299805 -1.1834628582000732 -3.4315173625946045" stroke-width="2.0" fill="none" stroke="rgb(0, 0, 0)" stroke-opacity="1" stroke-linecap="round" stroke-linejoin="round"/>
    <path d="M 143.67901611328125 139.8988800048828 C 122.28996276855469 106.73081970214844 120.34391021728516 105.67951965332031 140.91734313964844 106.96851348876953 C 113.42162322998047 125.56746673583984 98.26746368408203 111.2790298461914 126.75093078613281 110.62147521972656" stroke-width="2.0" fill="none" stroke="rgb(0, 0, 0)" stroke-opacity="1" stroke-linecap="round" stroke-linejoin="round"/>
    <path d="M 60.69809341430664 219.45736694335938 C 45.927398681640625 191.5410614013672 37.27476501464844 205.61782836914062 68.83126068115234 208.9438934326172" stroke-width="2.0" fill="none" stroke="rgb(0, 0, 0)" stroke-opacity="1" stroke-linecap="round" stroke-linejoin="round"/>
    <path d="M 58.40914535522461 110.15839385986328 C 105.38796997070312 97.04784393310547 103.05562591552734 86.44524383544922 93.72196197509766 90.06356811523438 C 103.54536437988281 115.27301788330078 119.20256805419922 134.2813720703125 88.3294906616211 94.97686767578125" stroke-width="2.0" fill="none" stroke="rgb(0, 0, 0)" stroke-opacity="1" stroke-linecap="round" stroke-linejoin="round"/>
    <path d="M 219.7051239013672 188.46168518066406 C 250.18939208984375 190.01329040527344 259.75604248046875 199.90188598632812 266.4884338378906 195.49960327148438" stroke-width="2.0" fill="none" stroke="rgb(0, 0, 0)" stroke-opacity="1" stroke-linecap="round" stroke-linejoin="round"/>
    <path d="M 211.87826538085938 40.0057258605957 C 166.48870849609375 45.10569763183594 161.37582397460938 48.1475944519043 234.0110626220703 49.06882858276367" stroke-width="2.0" fill="none" stroke="rgb(0, 0, 0)" stroke-opacity="1" stroke-linecap="round" stroke-linejoin="round"/>
    <path d="M 120.62071228027344 56.04221725463867 C 91.43836975097656 35.30247116088867 69.4030990600586 17.520105361938477 88.40347290039062 34.696571350097656" stroke-width="2.0" fill="none" stroke="rgb(0, 0, 0)" stroke-opacity="1" stroke-linecap="round" stroke-linejoin="round"/>
    <path d="M 126.14691925048828 18.673053741455078 C 135.39462280273438 -1.4800901412963867 158.498779296875 -2.4865550994873047 144.68824768066406 -11.117730140686035 C 135.2520751953125 0.4547031819820404 129.54469299316406 -9.887189865112305 131.29466247558594 -4.086369037628174 C 116.01232147216797 -9.893817901611328 113.36479949951172 0.28401389718055725 111.71808624267578 -2.542452096939087" stroke-width="2.0" fill="none" stroke="rgb(0, 0, 0)" stroke-opacity="1" stroke-linecap="round" stroke-linejoin="round"/>
    <path d="M 217.9735107421875 229.39263916015625 C 230.07228088378906 210.8684844970703 232.76339721679688 195.37054443359375 232.4619598388672 187.16795349121094 C 228.12081909179688 197.36485290527344 222.9228515625 197.74716186523438 232.48428344726562 191.01829528808594 C 233.13043212890625 197.93618774414062 235.80517578125 193.29739379882812 246.77056884765625 188.73353576660156" stroke-width="2.0" fill="none" stroke="rgb(0, 0, 0)" stroke-opacity="1" stroke-linecap="round" stroke-linejoin="round"/>
    <path d="M 39.336891174316406 73.05416870117188 C 49.662845611572266 87.37104034423828 34.17145538330078 113.76947784423828 36.33610534667969 71.3307113647461" stroke-width="2.0" fill="none" stroke="rgb(0, 0, 0)" stroke-opacity="1" stroke-linecap="round" stroke-linejoin="round"/>
    <path d="M 44.21211242675781 219.1932373046875 C -18.79269790649414 199.03916931152344 17.843233108520508 183.419921875 -1.903870701789856 226.5545654296875" stroke-width="2.0" fill="none" stroke="rgb(0, 0, 0)" stroke-opacity="1" stroke-linecap="round" stroke-linejoin="round"/>
    <path d="M 135.1726531982422 58.87657928466797 C 144.2221221923828 9.0733060836792 140.9633026123047 37.001094818115234 117.0727310180664 56.7224006652832 C 131.82872009277344 46.622859954833984 139.49923706054688 28.2247314453125 128.240478515625 56.68320083618164 C 126.75173950195312 45.8305778503418 147.80728149414062 47.08481979370117 127.05936431884766 70.9262924194336" stroke-width="2.0" fill="none" stroke="rgb(0, 0, 0)" stroke-opacity="1" stroke-linecap="round" stroke-linejoin="round"/>
    <path d="M 59.222904205322266 137.8798370361328 C 46.48218536376953 159.51344299316406 46.49267578125 178.739990234375 55.10711669921875 155.63304138183594 C 40.62849807739258 142.88401794433594 56.121238708496094 165.08045959472656 41.840091705322266 150.00759887695312 C 59.08219909667969 156.4637451171875 85.91431427001953 170.767578125 75.36973571777344 182.24708557128906" stroke-width="2.0" fill="none" stroke="rgb(0, 0, 0)" stroke-opacity="1" stroke-linecap="round" stroke-linejoin="round"/>
    <path d="M 148.64028930664062 90.94374084472656 C 128.74241638183594 109.34835815429688 117.85055541992188 114.16320037841797 120.31669616699219 112.17549896240234 C 146.2220001220703 102.35308837890625 158.77732849121094 100.61002349853516 160.43263244628906 82.35717010498047 C 150.85565185546875 67.84248352050781 156.8352508544922 105.2438735961914 172.7490692138672 77.79167175292969" stroke-width="2.0" fill="none" stroke="rgb(0, 0, 0)" stroke-opacity="1" stroke-linecap="round" stroke-linejoin="round"/>
    <path d="M 213.5626678466797 35.284183502197266 C 210.2847900390625 48.40559387207031 234.5388946533203 35.64906311035156 228.01856994628906 43.81605911254883 C 174.73866271972656 49.09140396118164 182.17434692382812 51.596675872802734 201.1994171142578 51.162757873535156 C 186.60003662109375 51.56645202636719 166.76617431640625 58.07946014404297 181.72409057617188 53.77088165283203" stroke-width="2.0" fill="none" stroke="rgb(0, 0, 0)" stroke-opacity="1" stroke-linecap="round" stroke-linejoin="round"/>
    <path d="M 58.86894226074219 157.4633026123047 C 56.066802978515625 178.48670959472656 83.4126205444336 191.17794799804688 80.8095932006836 187.2175750732422" stroke-width="2.0" fill="none" stroke="rgb(0, 0, 0)" stroke-opacity="1" stroke-linecap="round" stroke-linejoin="round"/>
    <path d="M 90.8948745727539 81.2987289428711 C 92.0787582397461 72.51834106445312 59.65781021118164 97.23974609375 97.46422576904297 85.38841247558594 C 114.50648498535156 90.76787567138672 93.44027709960938 91.55718994140625 76.02628326416016 79.37584686279297 C 74.49921417236328 33.00247573852539 89.00965118408203 41.29007339477539 71.65324401855469 90.17932891845703" stroke-width="2.0" fill="none" stroke="rgb(0, 0, 0)" stroke-opacity="1" stroke-linecap="round" stroke-linejoin="round"/>
    <path d="M 121.34284210205078 37.209991455078125 C 122.31803131103516 75.88589477539062 123.95948028564453 35.80794906616211 134.71505737304688 23.00409507751465 C 141.14892578125 73.1461181640625 112.53655242919922 59.80683898925781 136.0773468017578 25.08111572265625 C 131.94859313964844 35.652488708496094 123.6406021118164 64.11422729492188 121.04110717773438 59.515586853027344" stroke-width="2.0" fill="none" stroke="rgb(0, 0, 0)" stroke-opacity="1" stroke-linecap="round" stroke-linejoin="round"/>
    <path d="M 228.6564178466797 189.23240661621094 C 224.7197723388672 203.19921875 211.85755920410156 217.52476501464844 224.40048217773438 190.02603149414062" stroke-width="2.0" fill="none" stroke="rgb(0, 0, 0)" stroke-opacity="1" stroke-linecap="round" stroke-linejoin="round"/>
    <path d="M 79.83088684082031 156.14254760742188 C 58.45233917236328 128.58531188964844 22.83374786376953 145.3253631591797 62.3470573425293 158.3734588623047 C 55.42744064331055 162.81040954589844 83.65538787841797 197.96730041503906 41.40718078613281 157.14736938476562" stroke-width="2.0" fill="none" stroke="rgb(0, 0, 0)" stroke-opacity="1" stroke-linecap="round" stroke-linejoin="round"/>
    <path d="M 162.6617889404297 150.79713439941406 C 166.592041015625 163.73211669921875 139.41612243652344 153.48143005371094 156.29629516601562 166.80252075195312 C 155.01222229003906 149.0973358154297 161.34716796875 162.5288543701172 124.48731231689453 171.92251586914062 C 121.19561767578125 150.50692749023438 109.64146423339844 184.04983520507812 141.23138427734375 167.4525604248047" stroke-width="2.0" fill="none" stroke="rgb(0, 0, 0)" stroke-opacity="1" stroke-linecap="round" stroke-linejoin="round"/>
    <path d="M 169.655517578125 71.65921020507812 C 149.75477600097656 101.4150390625 155.9542999267578 74.80859375 166.80711364746094 63.57897186279297 C 158.0752410888672 69.60075378417969 177.26170349121094 72.1438217163086 175.58018493652344 72.41766357421875" stroke-width="2.0" fill="none" stroke="rgb(0, 0, 0)" stroke-opacity="1" stroke-linecap="round" stroke-linejoin="round"/>
    <path d="M 91.59797668457031 182.3065643310547 C 72.5874252319336 216.07203674316406 104.49675750732422 182.95806884765625 79.32388305664062 178.3019561767578 C 82.52518463134766 186.8489532470703 62.534400939941406 186.03997802734375 81.6617431640625 175.03907775878906" stroke-width="2.0" fill="none" stroke="rgb(0, 0, 0)" stroke-opacity="1" stroke-linecap="round" stroke-linejoin="round"/>
    <path d="M 47.6821174621582 131.9622344970703 C 42.53339385986328 145.52064514160156 1.33079195022583 128.12530517578125 22.752479553222656 136.00125122070312 C 19.290197372436523 125.46281433105469 1.2564723491668701 135.90977478027344 -3.117037057876587 184.97938537597656 C 19.488862991333008 123.20861053466797 26.06519889831543 139.3544921875 -2.5439131259918213 119.04444885253906" stroke-width="2.0" fill="none" stroke="rgb(0, 0, 0)" stroke-opacity="1" stroke-linecap="round" stroke-linejoin="round"/>
    <path d="M 177.98194885253906 167.6650848388672 C 165.67593383789062 178.6139373779297 179.12173461914062 165.2952880859375 198.07217407226562 164.60206604003906 C 201.8487091064453 189.84646606445312 180.57635498046875 139.1185302734375 205.7340850830078 195.9381561279297" stroke-width="2.0" fill="none" stroke="rgb(0, 0, 0)" stroke-opacity="1" stroke-linecap="round" stroke-linejoin="round"/>
    <path d="M 53.290504455566406 166.40855407714844 C 63.10346603393555 148.425537109375 61.61083984375 136.09616088867188 60.67644119262695 122.56232452392578 C 61.66831970214844 148.96726989746094 34.88208770751953 166.21389770507812 54.10214614868164 168.59945678710938 C 26.645681381225586 132.41070556640625 36.63174819946289 140.65640258789062 66.83314514160156 168.8855743408203" stroke-width="2.0" fill="none" stroke="rgb(0, 0, 0)" stroke-opacity="1" stroke-linecap="round" stroke-linejoin="round"/>
    <path d="M 147.37159729003906 87.1015396118164 C 158.86367797851562 90.8307876586914 147.16714477539062 116.37859344482422 156.47763061523438 87.10673522949219 C 167.93077087402344 84.75804901123047 152.7672119140625 84.06918334960938 139.87306213378906 102.53214263916016 C 147.23744201660156 91.7955551147461 160.6453857421875 93.64118194580078 139.29379272460938 95.0010757446289" stroke-width="2.0" fill="none" stroke="rgb(0, 0, 0)" stroke-opacity="1" stroke-linecap="round" stroke-linejoin="round"/>
    <path d="M 74.34003448486328 39.692039489746094 C 60.5634765625 6.53047513961792 54.98332595825195 40.9610595703125 80.26841735839844 20.287961959838867" stroke-width="2.0" fill="none" stroke="rgb(0, 0, 0)" stroke-opacity="1" stroke-linecap="round" stroke-linejoin="round"/>
    <path d="M 126.67633819580078 198.74612426757812 C 136.7674102783203 207.13723754882812 113.2942886352539 206.73526000976562 128.23419189453125 200.11903381347656 C 136.30392456054688 220.45286560058594 132.62118530273438 199.8665313720703 114.32720947265625 172.28677368164062 C 96.85533905029297 184.86972045898438 128.8323974609375 175.19017028808594 83.72643280029297 191.15740966796875" stroke-width="2.0" fill="none" stroke="rgb(0, 0, 0)" stroke-opacity="1" stroke-linecap="round" stroke-linejoin="round"/>
    <path d="M 57.380435943603516 59.877262115478516 C 40.776580810546875 85.26217651367188 54.87177276611328 91.373779296875 56.7807502746582 51.06319808959961 C 27.44261360168457 43.78901672363281 51.282535552978516 39.56038284301758 32.31196594238281 98.14412689208984" stroke-width="2.0" fill="none" stroke="rgb(0, 0, 0)" stroke-opacity="1" stroke-linecap="round" stroke-linejoin="round"/>
    <path d="M 226.56422424316406 178.8588104248047 C 241.32241821289062 168.07923889160156 235.58990478515625 157.9371795654297 227.1714324951172 143.41635131835938 C 232.79627990722656 134.49545288085938 216.6891632080078 152.2873992919922 215.35079956054688 163.31781005859375" stroke-width="2.0" fill="none" stroke="rgb(0, 0, 0)" stroke-opacity="1" stroke-linecap="round" stroke-linejoin="round"/>
    <path d="M 53.05059814453125 32.212833404541016 C 69.75215911865234 79.13033294677734 39.6890754699707 60.58761215209961 94.55465698242188 75.45902252197266 C 86.69922637939453 31.35672950744629 72.9704818725586 46.580936431884766 61.23239517211914 43.880523681640625" stroke-width="2.0" fill="none" stroke="rgb(0, 0, 0)" stroke-opacity="1" stroke-linecap="round" stroke-linejoin="round"/>
    <path d="M 96.02252960205078 226.544677734375 C 129.59075927734375 227.92567443847656 140.7954559326172 227.67283630371094 186.93017578125 216.28707885742188 C 126.3380126953125 245.87281799316406 134.97769165039062 216.64735412597656 128.05776977539062 202.5384979248047 C 146.1056365966797 224.53115844726562 115.74769592285156 232.49267578125 102.90220642089844 253.0943603515625" stroke-width="2.0" fill="none" stroke="rgb(0, 0, 0)" stroke-opacity="1" stroke-linecap="round" stroke-linejoin="round"/>
    <path d="M 227.02406311035156 46.947261810302734 C 213.22413635253906 71.08949279785156 234.0175323486328 81.08731079101562 218.0389862060547 61.647769927978516 C 234.4790802001953 56.23268127441406 245.46063232421875 46.240386962890625 249.4083251953125 30.079700469970703 C 251.6807098388672 49.863563537597656 257.75738525390625 41.079734802246094 257.96307373046875 38.7818603515625" stroke-width="2.0" fill="none" stroke="rgb(0, 0, 0)" stroke-opacity="1" stroke-linecap="round" stroke-linejoin="round"/>
    <path d="M 227.3929443359375 216.75473022460938 C 214.09178161621094 208.90892028808594 211.38511657714844 198.1461944580078 220.2200164794922 209.97482299804688 C 224.52098083496094 210.7903289794922 214.67311096191406 213.512939453125 225.94595336914062 207.37074279785156" stroke-width="2.0" fill="none" stroke="rgb(0, 0, 0)" stroke-opacity="1" stroke-linecap="round" stroke-linejoin="round"/>
    <path d="M 121.63792419433594 -3.9754955768585205 C 125.27327728271484 -0.08177230507135391 124.24853515625 -1.0425719022750854 110.98524475097656 -2.045135021209717 C 117.54898071289062 -3.0552423000335693 117.21607971191406 -13.807807922363281 111.12454986572266 -13.235471725463867" stroke-width="2.0" fill="none" stroke="rgb(0, 0, 0)" stroke-opacity="1" stroke-linecap="round" stroke-linejoin="round"/>
    <path d="M 226.90719604492188 21.8074893951416 C 229.04226684570312 16.57900619506836 240.2416229248047 14.511605262756348 241.03457641601562 11.189933776855469 C 235.01806640625 -5.661906719207764 235.51425170898438 -5.563420295715332 234.58323669433594 -9.732505798339844" stroke-width="2.0" fill="none" stroke="rgb(0, 0, 0)" stroke-opacity="1" stroke-linecap="round" stroke-linejoin="round"/>
    <path d="M 50.26354217529297 75.98990631103516 C 83.3076171875 90.7598648071289 79.23006439208984 64.92747497558594 81.07178497314453 60.84686279296875 C 86.55984497070312 73.61084747314453 58.69568634033203 57.55198669433594 83.28900909423828 42.51457977294922" stroke-width="2.0" fill="none" stroke="rgb(0, 0, 0)" stroke-opacity="1" stroke-linecap="round" stroke-linejoin="round"/>
    <path d="M 124.27596282958984 -4.8267951011657715 C 107.58700561523438 0.611092209815979 94.93850708007812 -3.0801961421966553 162.11732482910156 2.0340561866760254 C 135.26873779296875 18.87273406982422 141.66929626464844 55.95426559448242 137.06716918945312 26.102678298950195" stroke-width="2.0" fill="none" stroke="rgb(0, 0, 0)" stroke-opacity="1" stroke-linecap="round" stroke-linejoin="round"/>
    <path d="M 153.11878967285156 211.41299438476562 C 153.81431579589844 184.6503448486328 131.98394775390625 191.7981719970703 174.8723602294922 174.41879272460938 C 145.53271484375 175.9217987060547 155.4076385498047 205.68711853027344 146.28500366210938 185.0616912841797" stroke-width="2.0" fill="none" stroke="rgb(0, 0, 0)" stroke-opacity="1" stroke-linecap="round" stroke-linejoin="round"/>
    <path d="M 154.5008544921875 114.04961395263672 C 163.4729766845703 142.30133056640625 156.81495666503906 137.2886505126953 160.9098663330078 114.6987075805664 C 160.5927734375 72.78137969970703 143.92349243164062 109.71904754638672 158.017822265625 121.76005554199219" stroke-width="2.0" fill="none" stroke="rgb(0, 0, 0)" stroke-opacity="1" stroke-linecap="round" stroke-linejoin="round"/>
    <path d="M 213.6098175048828 28.609764099121094 C 200.34658813476562 34.98297119140625 177.6187744140625 24.554990768432617 226.82363891601562 17.8482723236084 C 220.3877716064453 -24.7462100982666 192.41183471679688 -11.661152839660645 211.65020751953125 2.2369155883789062 C 181.9178466796875 -7.340096473693848 184.48487854003906 16.088762283325195 200.9750213623047 -5.173202037811279" stroke-width="2.0" fill="none" stroke="rgb(0, 0, 0)" stroke-opacity="1" stroke-linecap="round" stroke-linejoin="round"/>
    <path d="M 54.31205749511719 112.51600646972656 C 54.912723541259766 103.79077911376953 98.10520935058594 156.12274169921875 64.36878967285156 110.1148681640625 C 40.88422393798828 110.6580581665039 69.93959045410156 129.64273071289062 82.03942108154297 145.59877014160156" stroke-width="2.0" fill="none" stroke="rgb(0, 0, 0)" stroke-opacity="1" stroke-linecap="round" stroke-linejoin="round"/>
    <path d="M 62.20216369628906 97.1479721069336 C 106.61904907226562 94.74930572509766 86.59518432617188 103.3388442993164 58.09907150268555 106.11984252929688" stroke-width="2.0" fill="none" stroke="rgb(0, 0, 0)" stroke-opacity="1" stroke-linecap="round" stroke-linejoin="round"/>
    <path d="M 22.92618179321289 150.82545471191406 C 24.69508934020996 169.624755859375 2.6797842979431152 142.3320770263672 -13.121686935424805 146.3262939453125 C 22.787593841552734 160.39608764648438 0.27556946873664856 153.72715759277344 16.223878860473633 127.13919067382812" stroke-width="2.0" fill="none" stroke="rgb(0, 0, 0)" stroke-opacity="1" stroke-linecap="round" stroke-linejoin="round"/>
    <path d="M 90.50753021240234 231.63941955566406 C 45.57592010498047 228.83631896972656 18.76949691772461 226.06240844726562 26.349029541015625 225.4160614013672" stroke-width="2.0" fill="none" stroke="rgb(0, 0, 0)" stroke-opacity="1" stroke-linecap="round" stroke-linejoin="round"/>
    <path d="M 50.12491226196289 58.30706024169922 C 43.1283073425293 111.31546020507812 12.882760047912598 123.81083679199219 36.50345993041992 77.08759307861328 C 56.337677001953125 82.43175506591797 53.78838348388672 68.77023315429688 43.2712516784668 70.64351654052734 C 50.09499740600586 87.96127319335938 54.086822509765625 63.24782180786133 53.832401275634766 45.62799072265625" stroke-width="2.0" fill="none" stroke="rgb(0, 0, 0)" stroke-opacity="1" stroke-linecap="round" stroke-linejoin="round"/>
    <path d="M 53.05693435668945 130.2214813232422 C 44.12839126586914 137.20663452148438 44.08730697631836 62.25129318237305 57.23536682128906 120.61532592773438" stroke-width="2.0" fill="none" stroke="rgb(0, 0, 0)" stroke-opacity="1" stroke-linecap="round" stroke-linejoin="round"/>
    <path d="M 2.398254156112671 231.89572143554688 C 40.869728088378906 215.86727905273438 46.66889953613281 199.40733337402344 45.2989616394043 226.7817840576172 C 56.39238357543945 239.9676971435547 62.586883544921875 247.76051330566406 88.53939056396484 234.2816162109375 C 47.24718475341797 222.83920288085938 58.738407135009766 241.76846313476562 40.096675872802734 233.80203247070312" stroke-width="2.0" fill="none" stroke="rgb(0, 0, 0)" stroke-opacity="1" stroke-linecap="round" stroke-linejoin="round"/>
    <path d="M 2.9260361194610596 182.20880126953125 C 7.4737749099731445 174.69325256347656 -39.99741744995117 186.03912353515625 -56.759342193603516 193.77015686035156" stroke-width="2.0" fill="none" stroke="rgb(0, 0, 0)" stroke-opacity="1" stroke-linecap="round" stroke-linejoin="round"/>
    <path d="M 76.03486633300781 159.4602813720703 C 51.225128173828125 136.82928466796875 24.737449645996094 131.06568908691406 52.29472351074219 138.2574462890625 C 29.056800842285156 126.25249481201172 43.23832702636719 164.45570373535156 30.165019989013672 136.71055603027344 C 20.687210083007812 159.81407165527344 34.3180046081543 102.62492370605469 37.40585708618164 120.94203186035156" stroke-width="2.0" fill="none" stroke="rgb(0, 0, 0)" stroke-opacity="1" stroke-linecap="round" stroke-linejoin="round"/>
    <path d="M 195.2028045654297 144.01573181152344 C 141.8484344482422 183.0659942626953 115.66841125488281 172.89329528808594 191.8476104736328 144.47206115722656 C 172.0391845703125 99.22576904296875 182.46043395996094 111.41305541992188 176.93821716308594 156.8786163330078 C 161.26467895507812 143.7251739501953 174.20484924316406 140.0625762939453 174.5634765625 157.77662658691406" stroke-width="2.0" fill="none" stroke="rgb(0, 0, 0)" stroke-opacity="1" stroke-linecap="round" stroke-linejoin="round"/>
    <path d="M 51.77336502075195 219.1068572998047 C 58.237510681152344 200.4434051513672 60.34114456176758 214.42100524902344 54.38440704345703 218.26101684570312 C 60.59931564331055 215.74688720703125 43.74269104003906 204.65069580078125 61.72658920288086 184.69146728515625" stroke-width="2.0" fill="none" stroke="rgb(0, 0, 0)" stroke-opacity="1" stroke-linecap="round" stroke-linejoin="round"/>
    <path d="M 189.98434448242188 231.37384033203125 C 169.7386016845703 224.4691619873047 200.4595489501953 234.69049072265625 179.24783325195312 191.93414306640625" stroke-width="2.0" fill="none" stroke="rgb(0, 0, 0)" stroke-opacity="1" stroke-linecap="round" stroke-linejoin="round"/>
    <path d="M -17.22399139404297 45.228111267089844 C -23.879545211791992 37.08734130859375 -27.977914810180664 31.161474227905273 25.054969787597656 30.11405372619629 C 6.858428478240967 21.304956436157227 -11.021267890930176 33.68558120727539 -17.512754440307617 32.93836212158203 C -14.998407363891602 30.3957462310791 -21.914905548095703 20.879728317260742 -27.50905418395996 25.48253059387207" stroke-width="2.0" fill="none" stroke="rgb(0, 0, 0)" stroke-opacity="1" stroke-linecap="round" stroke-linejoin="round"/>
    <path d="M 54.90989303588867 93.30032348632812 C 28.376754760742188 71.24919128417969 37.24803161621094 94.15019989013672 43.881614685058594 56.76755142211914 C 48.857177734375 67.3135757446289 70.71537780761719 44.34986877441406 46.81719207763672 90.05554962158203" stroke-width="2.0" fill="none" stroke="rgb(0, 0, 0)" stroke-opacity="1" stroke-linecap="round" stroke-linejoin="round"/>
    <path d="M 111.9056625366211 115.82182312011719 C 126.05205535888672 136.77142333984375 96.27974700927734 115.45294189453125 123.1146469116211 108.67689514160156 C 120.41718292236328 129.17591857910156 121.03028106689453 123.16673278808594 143.97398376464844 96.15583038330078 C 133.1085662841797 107.01354217529297 124.97079467773438 118.29946899414062 135.34637451171875 102.94664764404297" stroke-width="2.0" fill="none" stroke="rgb(0, 0, 0)" stroke-opacity="1" stroke-linecap="round" stroke-linejoin="round"/>
    <path d="M 130.76419067382812 75.12349700927734 C 144.47970581054688 48.367862701416016 148.00930786132812 52.44887924194336 135.55580139160156 73.44795989990234" stroke-width="2.0" fill="none" stroke="rgb(0, 0, 0)" stroke-opacity="1" stroke-linecap="round" stroke-linejoin="round"/>
    <path d="M 125.68537902832031 -6.891774654388428 C 103.82400512695312 14.170838356018066 82.84810638427734 8.32755184173584 95.7838363647461 3.6613945960998535" stroke-width="2.0" fill="none" stroke="rgb(0, 0, 0)" stroke-opacity="1" stroke-linecap="round" stroke-linejoin="round"/>
    <path d="M 146.2586212158203 65.44115447998047 C 149.1918487548828 68.45912170410156 117.74848175048828 115.79008483886719 121.1761703491211 81.64364624023438 C 125.49906158447266 83.42782592773438 124.44078063964844 82.79510498046875 105.15794372558594 102.06038665771484" stroke-width="2.0" fill="none" stroke="rgb(0, 0, 0)" stroke-opacity="1" stroke-linecap="round" stroke-linejoin="round"/>
    <path d="M 182.90025329589844 141.0980224609375 C 188.09124755859375 166.99073791503906 161.79441833496094 104.68991088867188 162.8282928466797 68.92955780029297 C 183.9822235107422 119.4779052734375 195.56346130371094 153.6574249267578 191.32455444335938 143.5650634765625 C 211.67193603515625 113.4206314086914 210.7057342529297 114.07272338867188 187.01223754882812 144.29205322265625" stroke-width="2.0" fill="none" stroke="rgb(0, 0, 0)" stroke-opacity="1" stroke-linecap="round" stroke-linejoin="round"/>
    <path d="M 25.959020614624023 19.05350112915039 C 23.75792121887207 24.3481502532959 -13.306131362915039 16.34416389465332 -5.601572036743164 24.8531436920166 C -4.3134307861328125 20.1310977935791 -2.8148248195648193 29.863840103149414 10.439153671264648 57.45114517211914 C 10.616155624389648 57.31310272216797 -6.0353617668151855 2.7372100353240967 19.156524658203125 73.86193084716797" stroke-width="2.0" fill="none" stroke="rgb(0, 0, 0)" stroke-opacity="1" stroke-linecap="round" stroke-linejoin="round"/>
    <path d="M 200.79136657714844 111.15153503417969 C 196.0543670654297 145.89488220214844 174.36785888671875 145.25189208984375 226.00485229492188 134.59933471679688" stroke-width="2.0" fill="none" stroke="rgb(0, 0, 0)" stroke-opacity="1" stroke-linecap="round" stroke-linejoin="round"/>
    <path d="M 221.16368103027344 155.1492156982422 C 217.7693634033203 134.68423461914062 209.5774383544922 158.0471649169922 229.77279663085938 181.44061279296875 C 237.2976837158203 141.5518035888672 224.31927490234375 152.1120147705078 202.4383087158203 166.39404296875 C 206.64877319335938 140.27984619140625 208.0478515625 167.42208862304688 233.8102264404297 196.4636688232422" stroke-width="2.0" fill="none" stroke="rgb(0, 0, 0)" stroke-opacity="1" stroke-linecap="round" stroke-linejoin="round"/>
    <path d="M 48.8238410949707 185.66748046875 C 36.070735931396484 194.65321350097656 32.07044219970703 184.0446014404297 48.34968185424805 183.5821533203125 C 43.025550842285156 206.01339721679688 39.81802749633789 183.2430877685547 46.890174865722656 174.3157196044922 C 60.673736572265625 175.34976196289062 49.4853401184082 189.28939819335938 40.24106216430664 179.3427276611328" stroke-width="2.0" fill="none" stroke="rgb(0, 0, 0)" stroke-opacity="1" stroke-linecap="round" stroke-linejoin="round"/>
    <path d="M 187.58396911621094 95.09674072265625 C 187.05084228515625 40.67208480834961 171.03782653808594 86.3133773803711 198.0444793701172 122.40727996826172 C 161.9136505126953 64.76486206054688 207.81729125976562 101.82105255126953 182.78958129882812 73.20592498779297" stroke-width="2.0" fill="none" stroke="rgb(0, 0, 0)" stroke-opacity="1" stroke-linecap="round" stroke-linejoin="round"/>
    <path d="M 170.12574768066406 32.46774673461914 C 180.35142517089844 14.508517265319824 158.73182678222656 41.1034049987793 175.2982635498047 28.717884063720703" stroke-width="2.0" fill="none" stroke="rgb(0, 0, 0)" stroke-opacity="1" stroke-linecap="round" stroke-linejoin="round"/>
    <path d="M 181.00148010253906 2.3013908863067627 C 142.51365661621094 -0.22550305724143982 169.37318420410156 8.864906311035156 165.67465209960938 0.0274643711745739" stroke-width="2.0" fill="none" stroke="rgb(0, 0, 0)" stroke-opacity="1" stroke-linecap="round" stroke-linejoin="round"/>
    <path d="M 100.42996978759766 183.27587890625 C 96.63617706298828 169.77978515625 130.30860900878906 167.61790466308594 147.53114318847656 160.65426635742188" stroke-width="2.0" fill="none" stroke="rgb(0, 0, 0)" stroke-opacity="1" stroke-linecap="round" stroke-linejoin="round"/>
    <path d="M 67.51728057861328 172.05923461914062 C 91.23303985595703 211.68051147460938 79.2768783569336 186.3644256591797 51.6496467590332 163.03573608398438 C 72.9841079711914 177.65744018554688 61.90742874145508 177.88880920410156 80.38533020019531 155.9096221923828" stroke-width="2.0" fill="none" stroke="rgb(0, 0, 0)" stroke-opacity="1" stroke-linecap="round" stroke-linejoin="round"/>
    <path d="M 92.95917510986328 54.56648635864258 C 105.5789794921875 47.643707275390625 111.73097229003906 58.079036712646484 96.84577178955078 42.55156707763672 C 154.40731811523438 61.84949493408203 170.92149353027344 69.82380676269531 150.89366149902344 48.83975601196289" stroke-width="2.0" fill="none" stroke="rgb(0, 0, 0)" stroke-opacity="1" stroke-linecap="round" stroke-linejoin="round"/>
    <path d="M 121.87240600585938 127.08796691894531 C 106.13532257080078 92.38738250732422 92.75758361816406 103.18263244628906 114.09471893310547 127.66468048095703" stroke-width="2.0" fill="none" stroke="rgb(0, 0, 0)" stroke-opacity="1" stroke-linecap="round" stroke-linejoin="round"/>
    <path d="M 32.80878829956055 36.18877410888672 C 41.05060577392578 73.59275817871094 18.747215270996094 28.111364364624023 20.0184326171875 46.072113037109375 C 33.348388671875 89.63766479492188 36.69853973388672 30.306997299194336 15.704072952270508 62.7382926940918" stroke-width="2.0" fill="none" stroke="rgb(0, 0, 0)" stroke-opacity="1" stroke-linecap="round" stroke-linejoin="round"/>
    <path d="M 200.6497039794922 44.43941879272461 C 218.1226806640625 56.942359924316406 215.21897888183594 17.1844482421875 202.1881561279297 28.633773803710938 C 217.25376892089844 39.98053741455078 199.2866973876953 23.903667449951172 191.53428649902344 34.751312255859375" stroke-width="2.0" fill="none" stroke="rgb(0, 0, 0)" stroke-opacity="1" stroke-linecap="round" stroke-linejoin="round"/>
    <path d="M 34.36225509643555 159.01145935058594 C 42.947662353515625 138.91354370117188 40.170230865478516 140.04127502441406 -11.895720481872559 126.3065414428711 C -7.269866466522217 126.3181381225586 13.16858196258545 111.6469497680664 -8.346285820007324 141.43824768066406 C -9.7910795211792 144.54092407226562 -29.266353607177734 138.93478393554688 -35.780120849609375 148.62554931640625" stroke-width="2.0" fill="none" stroke="rgb(0, 0, 0)" stroke-opacity="1" stroke-linecap="round" stroke-linejoin="round"/>
    <path d="M 230.02157592773438 190.47982788085938 C 228.5290985107422 177.62905883789062 224.69529724121094 202.3201446533203 210.4992218017578 211.88482666015625" stroke-width="2.0" fill="none" stroke="rgb(0, 0, 0)" stroke-opacity="1" stroke-linecap="round" stroke-linejoin="round"/>
    <path d="M 162.97608947753906 198.80862426757812 C 150.40936279296875 174.559814453125 153.24900817871094 167.69845581054688 161.78741455078125 186.25343322753906 C 188.4587860107422 229.09486389160156 171.60226440429688 197.99017333984375 156.75929260253906 162.51535034179688" stroke-width="2.0" fill="none" stroke="rgb(0, 0, 0)" stroke-opacity="1" stroke-linecap="round" stroke-linejoin="round"/>
    <path d="M 46.04793167114258 85.92938995361328 C 27.647369384765625 107.4693603515625 44.439151763916016 91.38178253173828 35.804256439208984 100.43378448486328 C 38.541748046875 93.62173461914062 19.280183792114258 107.33686828613281 -16.82052230834961 111.65869903564453 C 11.17129898071289 119.25470733642578 28.32987403869629 105.06135559082031 19.056713104248047 91.05351257324219" stroke-width="2.0" fill="none" stroke="rgb(0, 0, 0)" stroke-opacity="1" stroke-linecap="round" stroke-linejoin="round"/>
    <path d="M 102.25250244140625 21.13166046142578 C 92.79749298095703 15.975115776062012 115.22086334228516 30.410625457763672 137.38047790527344 42.93623352050781" stroke-width="2.0" fill="none" stroke="rgb(0, 0, 0)" stroke-opacity="1" stroke-linecap="round" stroke-linejoin="round"/>
    <path d="M 119.95404052734375 64.37644958496094 C 97.27784729003906 56.888084411621094 132.44003295898438 82.7905044555664 103.2052001953125 66.08174896240234 C 126.09976196289062 95.4568862915039 130.67721557617188 109.15789031982422 125.25957489013672 89.6275863647461" stroke-width="2.0" fill="none" stroke="rgb(0, 0, 0)" stroke-opacity="1" stroke-linecap="round" stroke-linejoin="round"/>
    <path d="M 126.50973510742188 212.56979370117188 C 129.31700134277344 190.94700622558594 121.59966278076172 211.4282989501953 128.8937530517578 200.03219604492188" stroke-width="2.0" fill="none" stroke="rgb(0, 0, 0)" stroke-opacity="1" stroke-linecap="round" stroke-linejoin="round"/>
    <path d="M 87.4318618774414 42.49127960205078 C 104.85684204101562 54.2062873840332 83.33499145507812 32.223270416259766 79.47702026367188 41.112342834472656 C 50.0305061340332 -2.6865901947021484 62.684329986572266 1.34687077999115 116.28032684326172 51.243682861328125" stroke-width="2.0" fill="none" stroke="rgb(0, 0, 0)" stroke-opacity="1" stroke-linecap="round" stroke-linejoin="round"/>
    <path d="M 17.881040573120117 202.0279083251953 C 47.03450393676758 221.493896484375 21.62801742553711 208.05487060546875 -3.0965781211853027 192.21185302734375" stroke-width="2.0" fill="none" stroke="rgb(0, 0, 0)" stroke-opacity="1" stroke-linecap="round" stroke-linejoin="round"/>
    <path d="M 111.58319091796875 22.445472717285156 C 105.34038543701172 49.07271194458008 103.36804962158203 36.4708137512207 128.32135009765625 56.17483139038086 C 131.96934509277344 18.908557891845703 134.82398986816406 23.51897621154785 140.60955810546875 28.031408309936523" stroke-width="2.0" fill="none" stroke="rgb(0, 0, 0)" stroke-opacity="1" stroke-linecap="round" stroke-linejoin="round"/>
    <path d="M 194.98297119140625 33.0400390625 C 194.19900512695312 14.835695266723633 188.89434814453125 -7.911273956298828 189.93917846679688 -8.533612251281738 C 191.03086853027344 -3.9542651176452637 188.6732635498047 -7.172346115112305 173.69200134277344 -15.977446556091309" stroke-width="2.0" fill="none" stroke="rgb(0, 0, 0)" stroke-opacity="1" stroke-linecap="round" stroke-linejoin="round"/>
    <path d="M 196.4846954345703 135.12547302246094 C 217.4707489013672 85.78142547607422 212.08389282226562 149.56324768066406 202.42552185058594 131.67779541015625" stroke-width="2.0" fill="none" stroke="rgb(0, 0, 0)" stroke-opacity="1" stroke-linecap="round" stroke-linejoin="round"/>
    <path d="M 39.46564483642578 52.291664123535156 C 39.091278076171875 102.7869873046875 9.851643562316895 123.15901184082031 50.76822280883789 79.0600357055664 C 37.13669967651367 103.6543197631836 27.801626205444336 109.16674041748047 44.649696350097656 68.11724853515625" stroke-width="2.0" fill="none" stroke="rgb(0, 0, 0)" stroke-opacity="1" stroke-linecap="round" stroke-linejoin="round"/>
    <path d="M 28.73576545715332 229.79367065429688 C 37.89173889160156 226.80419921875 66.52588653564453 204.34133911132812 52.32331466674805 218.45297241210938 C 65.3428726196289 213.15634155273438 33.926971435546875 218.1864471435547 35.60475158691406 212.17849731445312" stroke-width="2.0" fill="none" stroke="rgb(0, 0, 0)" stroke-opacity="1" stroke-linecap="round" stroke-linejoin="round"/>
    <path d="M 123.70648193359375 206.65283203125 C 141.09547424316406 212.98423767089844 120.82054138183594 188.62765502929688 125.95311737060547 206.07650756835938 C 109.81045532226562 168.0708770751953 106.55156707763672 177.66632080078125 117.36165618896484 174.24632263183594" stroke-width="2.0" fill="none" stroke="rgb(0, 0, 0)" stroke-opacity="1" stroke-linecap="round" stroke-linejoin="round"/>
    <path d="M 231.05926513671875 196.92449951171875 C 208.3396759033203 224.2115478515625 168.31533813476562 237.08749389648438 199.1011962890625 220.3052978515625" stroke-width="2.0" fill="none" stroke="rgb(0, 0, 0)" stroke-opacity="1" stroke-linecap="round" stroke-linejoin="round"/>
    <path d="M 227.17642211914062 31.93412971496582 C 263.0906982421875 22.464067459106445 227.59005737304688 29.140851974487305 229.1463623046875 0.365048885345459 C 209.2955780029297 -7.603276252746582 203.0803680419922 -9.065526008605957 204.68492126464844 7.530722618103027 C 219.14373779296875 -6.685561656951904 221.6713409423828 -5.557705879211426 226.66439819335938 31.392417907714844" stroke-width="2.0" fill="none" stroke="rgb(0, 0, 0)" stroke-opacity="1" stroke-linecap="round" stroke-linejoin="round"/>
    <path d="M 10.822969436645508 44.306278228759766 C 9.552639961242676 31.3690128326416 43.47855758666992 45.04737854003906 24.607820510864258 28.486228942871094" stroke-width="2.0" fill="none" stroke="rgb(0, 0, 0)" stroke-opacity="1" stroke-linecap="round" stroke-linejoin="round"/>
    <path d="M 93.18623352050781 98.07238006591797 C 106.18949890136719 121.05278015136719 116.01376342773438 115.19364166259766 85.24810791015625 124.13668060302734 C 117.9345474243164 107.54605102539062 133.52249145507812 117.79219818115234 119.54512023925781 103.66264343261719" stroke-width="2.0" fill="none" stroke="rgb(0, 0, 0)" stroke-opacity="1" stroke-linecap="round" stroke-linejoin="round"/>
    <path d="M 104.90606689453125 181.87466430664062 C 107.35673522949219 179.23028564453125 116.86207580566406 175.245849609375 86.83352661132812 131.2027130126953" stroke-width="2.0" fill="none" stroke="rgb(0, 0, 0)" stroke-opacity="1" stroke-linecap="round" stroke-linejoin="round"/>
    <path d="M -7.949663162231445 168.37802124023438 C 3.548762321472168 119.68621826171875 8.697236061096191 134.3666534423828 2.3247592449188232 117.53266906738281 C 28.39849090576172 101.9781723022461 5.880456447601318 122.30757904052734 -8.752728462219238 130.17422485351562 C -21.107877731323242 125.1063461303711 7.667749881744385 136.1328125 19.188318252563477 127.86482238769531" stroke-width="2.0" fill="none" stroke="rgb(0, 0, 0)" stroke-opacity="1" stroke-linecap="round" stroke-linejoin="round"/>
    <path d="M 46.26673889160156 85.06571197509766 C 38.88471221923828 56.707767486572266 49.85537338256836 96.9199447631836 14.677725791931152 120.3862533569336" stroke-width="2.0" fill="none" stroke="rgb(0, 0, 0)" stroke-opacity="1" stroke-linecap="round" stroke-linejoin="round"/>
    <path d="M 105.71275329589844 112.25858306884766 C 102.52696228027344 125.7508544921875 111.42691040039062 99.90763092041016 87.55230712890625 92.8596420288086 C 104.04053497314453 135.98301696777344 119.79446411132812 124.5978775024414 82.78472900390625 127.15167999267578" stroke-width="2.0" fill="none" stroke="rgb(0, 0, 0)" stroke-opacity="1" stroke-linecap="round" stroke-linejoin="round"/>
    <path d="M 214.0443115234375 131.57992553710938 C 200.09280395507812 118.03208923339844 206.86474609375 152.4635467529297 207.48707580566406 122.0068130493164 C 190.241455078125 150.26724243164062 194.71302795410156 128.98150634765625 233.33740234375 132.10423278808594" stroke-width="2.0" fill="none" stroke="rgb(0, 0, 0)" stroke-opacity="1" stroke-linecap="round" stroke-linejoin="round"/>
    <path d="M 42.207462310791016 13.828577995300293 C 33.14913558959961 31.770034790039062 64.84407806396484 32.161136627197266 48.47145080566406 34.213687896728516 C 57.977760314941406 39.3841667175293 63.01190185546875 59.487396240234375 40.98499298095703 50.1569938659668" stroke-width="2.0" fill="none" stroke="rgb(0, 0, 0)" stroke-opacity="1" stroke-linecap="round" stroke-linejoin="round"/>
    <path d="M 206.23629760742188 157.6316375732422 C 229.34552001953125 151.03976440429688 223.36143493652344 183.81613159179688 240.05322265625 192.7754669189453 C 240.13467407226562 190.72572326660156 241.06167602539062 196.82591247558594 251.55245971679688 194.78350830078125 C 258.2009582519531 186.47299194335938 249.70477294921875 178.06976318359375 246.68768310546875 177.0644989013672" stroke-width="2.0" fill="none" stroke="rgb(0, 0, 0)" stroke-opacity="1" stroke-linecap="round" stroke-linejoin="round"/>
    <path d="M 98.86376190185547 181.84878540039062 C 57.56828689575195 217.49917602539062 78.84242248535156 222.372314453125 95.39246368408203 179.75250244140625 C 95.55712127685547 198.57321166992188 97.8305892944336 215.18092346191406 83.4670639038086 174.4217071533203" stroke-width="2.0" fill="none" stroke="rgb(0, 0, 0)" stroke-opacity="1" stroke-linecap="round" stroke-linejoin="round"/>
    <path d="M 10.108686447143555 6.08882474899292 C 15.857022285461426 16.18047523498535 -9.894433975219727 1.5991063117980957 0.6506426930427551 15.84901237487793 C 8.923944473266602 64.92416381835938 34.83137893676758 45.31224822998047 -0.18058210611343384 42.8539924621582" stroke-width="2.0" fill="none" stroke="rgb(0, 0, 0)" stroke-opacity="1" stroke-linecap="round" stroke-linejoin="round"/>
    <path d="M 203.0019989013672 148.84811401367188 C 213.39068603515625 182.19740295410156 208.97802734375 154.25958251953125 199.1951904296875 162.4859161376953 C 212.70220947265625 184.1914520263672 226.3684539794922 204.4928741455078 195.5408477783203 157.8563995361328" stroke-width="2.0" fill="none" stroke="rgb(0, 0, 0)" stroke-opacity="1" stroke-linecap="round" stroke-linejoin="round"/>
    <path d="M 73.89657592773438 105.93653869628906 C 104.53237915039062 145.1837921142578 85.54222106933594 125.81797790527344 85.15299224853516 131.8777313232422 C 76.12751770019531 118.5830307006836 100.8830337524414 144.59181213378906 73.7398910522461 105.31314086914062 C 83.80645751953125 97.8486557006836 70.71341705322266 112.70219421386719 36.01666259765625 114.8375473022461" stroke-width="2.0" fill="none" stroke="rgb(0, 0, 0)" stroke-opacity="1" stroke-linecap="round" stroke-linejoin="round"/>
    <path d="M 145.62240600585938 158.05844116210938 C 157.4696807861328 194.13584899902344 142.12342834472656 167.57640075683594 143.98313903808594 165.30284118652344 C 118.18899536132812 158.02804565429688 132.2773895263672 167.70761108398438 113.97826385498047 174.68682861328125" stroke-width="2.0" fill="none" stroke="rgb(0, 0, 0)" stroke-opacity="1" stroke-linecap="round" stroke-linejoin="round"/>
    <path d="M 31.916122436523438 146.24615478515625 C 85.84465789794922 171.01248168945312 79.02043151855469 180.37939453125 58.99977493286133 159.18533325195312 C 50.102108001708984 160.60345458984375 62.34904479980469 150.2814178466797 75.2077865600586 134.04832458496094" stroke-width="2.0" fill="none" stroke="rgb(0, 0, 0)" stroke-opacity="1" stroke-linecap="round" stroke-linejoin="round"/>
    <path d="M 111.05694580078125 200.52430725097656 C 97.70049285888672 168.30860900878906 94.6366958618164 180.078125 101.72073364257812 178.64581298828125 C 86.99324798583984 205.3264617919922 109.8397445678711 185.46090698242188 99.86190032958984 169.86058044433594" stroke-width="2.0" fill="none" stroke="rgb(0, 0, 0)" stroke-opacity="1" stroke-linecap="round" stroke-linejoin="round"/>
    <path d="M 103.0817642211914 125.57672119140625 C 118.8508529663086 121.6599349975586 131.40687561035156 112.33167266845703 135.08169555664062 114.46580505371094 C 102.284423828125 112.27369689941406 81.14283752441406 132.0119171142578 104.17570495605469 122.08416748046875 C 114.59017181396484 117.82320404052734 124.34439849853516 114.15097045898438 107.50877380371094 118.57131958007812" stroke-width="2.0" fill="none" stroke="rgb(0, 0, 0)" stroke-opacity="1" stroke-linecap="round" stroke-linejoin="round"/>
    <path d="M 135.40802001953125 54.16823959350586 C 122.67620086669922 70.9240951538086 113.01355743408203 86.90959930419922 98.55955505371094 95.71620178222656 C 95.08724212646484 93.61402893066406 100.37650299072266 95.63567352294922 116.97974395751953 76.06731414794922 C 117.8316879272461 80.1764144897461 95.02926635742188 89.86819458007812 109.48555755615234 54.29261779785156" stroke-width="2.0" fill="none" stroke="rgb(0, 0, 0)" stroke-opacity="1" stroke-linecap="round" stroke-linejoin="round"/>
    <path d="M 161.8739471435547 36.78614807128906 C 146.20144653320312 64.69843292236328 150.94056701660156 63.9712028503418 162.88726806640625 58.2888298034668" stroke-width="2.0" fill="none" stroke="rgb(0, 0, 0)" stroke-opacity="1" stroke-linecap="round" stroke-linejoin="round"/>
    <path d="M 46.836849212646484 64.70492553710938 C 32.230342864990234 49.4748420715332 46.27412414550781 63.936676025390625 21.85955047607422 97.75634002685547" stroke-width="2.0" fill="none" stroke="rgb(0, 0, 0)" stroke-opacity="1" stroke-linecap="round" stroke-linejoin="round"/>
    <path d="M 202.9875946044922 88.23582458496094 C 196.76963806152344 34.45772933959961 231.01181030273438 52.96773910522461 226.1486053466797 127.85071563720703 C 226.6421661376953 113.24794006347656 220.7486572265625 126.9148178100586 201.72683715820312 111.257080078125 C 168.8868865966797 60.501705169677734 212.85595703125 27.089677810668945 214.03224182128906 94.60956573486328" stroke-width="2.0" fill="none" stroke="rgb(0, 0, 0)" stroke-opacity="1" stroke-linecap="round" stroke-linejoin="round"/>
    <path d="M 112.56993103027344 186.1387176513672 C 107.66056060791016 172.4639892578125 93.65191650390625 180.06829833984375 105.80039978027344 175.20513916015625 C 83.43218994140625 185.29940795898438 103.6145248413086 172.3033905029297 133.9484405517578 170.567138671875" stroke-width="2.0" fill="none" stroke="rgb(0, 0, 0)" stroke-opacity="1" stroke-linecap="round" stroke-linejoin="round"/>
    <path d="M 154.34991455078125 161.66439819335938 C 170.99606323242188 157.830322265625 178.4019012451172 151.27345275878906 160.07373046875 157.7356414794922 C 146.8326416015625 133.0480194091797 138.42803955078125 131.2462921142578 143.73475646972656 129.5862274169922 C 154.6026611328125 116.0834732055664 142.115478515625 133.89608764648438 123.82201385498047 151.8101806640625" stroke-width="2.0" fill="none" stroke="rgb(0, 0, 0)" stroke-opacity="1" stroke-linecap="round" stroke-linejoin="round"/>
    <path d="M 156.71224975585938 229.54466247558594 C 130.31033325195312 223.6819610595703 143.2896270751953 231.69078063964844 150.44007873535156 241.80276489257812 C 166.03831481933594 233.4581298828125 172.31637573242188 234.05154418945312 179.8052978515625 236.8837127685547 C 177.63092041015625 243.67262268066406 180.26925659179688 249.41761779785156 171.91835021972656 256.13885498046875" stroke-width="2.0" fill="none" stroke="rgb(0, 0, 0)" stroke-opacity="1" stroke-linecap="round" stroke-linejoin="round"/>
    <path d="M 51.15409851074219 22.594919204711914 C -14.508574485778809 14.243261337280273 38.3380126953125 11.214557647705078 44.794395446777344 37.17738723754883 C 41.66557312011719 24.03801918029785 6.969424724578857 19.608226776123047 40.79796600341797 20.3603515625 C -26.950645446777344 14.909392356872559 30.328353881835938 25.562519073486328 25.79387092590332 5.680372714996338" stroke-width="2.0" fill="none" stroke="rgb(0, 0, 0)" stroke-opacity="1" stroke-linecap="round" stroke-linejoin="round"/>
    <path d="M 178.29811096191406 83.4449234008789 C 201.78878784179688 79.12399291992188 161.94395446777344 72.29838562011719 182.30349731445312 95.01445770263672 C 191.25515747070312 104.48924255371094 198.01219177246094 103.0081558227539 183.87960815429688 78.30467224121094 C 169.1259307861328 125.76295471191406 168.48207092285156 84.18942260742188 190.3817901611328 93.69861602783203" stroke-width="2.0" fill="none" stroke="rgb(0, 0, 0)" stroke-opacity="1" stroke-linecap="round" stroke-linejoin="round"/>
    <path d="M 80.88688659667969 97.24217224121094 C 91.646728515625 88.8665542602539 67.6611557006836 95.48137664794922 88.20108795166016 96.53923034667969 C 91.15010070800781 76.672119140625 106.32538604736328 66.25836944580078 95.34033203125 77.7295913696289 C 102.91898345947266 77.9603042602539 102.10281372070312 91.75450897216797 106.88471221923828 84.72105407714844" stroke-width="2.0" fill="none" stroke="rgb(0, 0, 0)" stroke-opacity="1" stroke-linecap="round" stroke-linejoin="round"/>
    <path d="M 31.29553985595703 92.30455780029297 C 27.564510345458984 112.05097961425781 -22.570547103881836 111.39828491210938 5.844375133514404 115.83387756347656 C 2.490891933441162 124.45085906982422 5.7135114669799805 143.91094970703125 -4.418734073638916 133.64334106445312 C -0.14907826483249664 115.89045715332031 10.356529235839844 112.24077606201172 -2.8838372230529785 123.24362182617188" stroke-width="2.0" fill="none" stroke="rgb(0, 0, 0)" stroke-opacity="1" stroke-linecap="round" stroke-linejoin="round"/>
    <path d="M 204.20526123046875 131.13050842285156 C 207.63230895996094 115.51426696777344 213.9965362548828 152.50608825683594 207.47398376464844 115.1983642578125" stroke-width="2.0" fill="none" stroke="rgb(0, 0, 0)" stroke-opacity="1" stroke-linecap="round" stroke-linejoin="round"/>
    <path d="M 44.53089904785156 15.63515853881836 C 57.75922393798828 23.841482162475586 22.651914596557617 7.463197231292725 53.060516357421875 30.760391235351562" stroke-width="2.0" fill="none" stroke="rgb(0, 0, 0)" stroke-opacity="1" stroke-linecap="round" stroke-linejoin="round"/>
    <path d="M -3.3172543048858643 135.53164672851562 C 15.300480842590332 107.9755859375 2.355881929397583 104.03960418701172 4.462649822235107 128.8326873779297" stroke-width="2.0" fill="none" stroke="rgb(0, 0, 0)" stroke-opacity="1" stroke-linecap="round" stroke-linejoin="round"/>
    <path d="M 97.15848541259766 221.7791290283203 C 104.86856842041016 215.9502716064453 87.68363189697266 225.59725952148438 142.08193969726562 221.46334838867188" stroke-width="2.0" fill="none" stroke="rgb(0, 0, 0)" stroke-opacity="1" stroke-linecap="round" stroke-linejoin="round"/>
    <path d="M 156.0637664794922 32.71359634399414 C 191.77249145507812 49.98735809326172 154.08770751953125 24.0908260345459 174.06114196777344 19.900188446044922" stroke-width="2.0" fill="none" stroke="rgb(0, 0, 0)" stroke-opacity="1" stroke-linecap="round" stroke-linejoin="round"/>
    <path d="M 62.36536407470703 65.5556411743164 C 69.8736801147461 89.1123046875 64.61638641357422 50.894161224365234 75.3653564453125 77.87812042236328" stroke-width="2.0" fill="none" stroke="rgb(0, 0, 0)" stroke-opacity="1" stroke-linecap="round" stroke-linejoin="round"/>
    <path d="M 128.1903839111328 115.13605499267578 C 148.03123474121094 109.80054473876953 126.23409271240234 111.57260131835938 119.148193359375 109.45452117919922 C 144.79705810546875 95.92063903808594 132.58387756347656 99.00349426269531 130.90382385253906 102.8997802734375 C 118.75281524658203 100.0792236328125 141.1464080810547 86.94147491455078 164.01271057128906 57.85797119140625" stroke-width="2.0" fill="none" stroke="rgb(0, 0, 0)" stroke-opacity="1" stroke-linecap="round" stroke-linejoin="round"/>
    <path d="M 68.06570434570312 87.11595916748047 C 84.7050552368164 39.975101470947266 55.57835006713867 35.74794387817383 103.97749328613281 54.13311004638672" stroke-width="2.0" fill="none" stroke="rgb(0, 0, 0)" stroke-opacity="1" stroke-linecap="round" stroke-linejoin="round"/>
    <path d="M 83.52650451660156 133.7489013671875 C 40.5411491394043 86.44872283935547 54.339473724365234 119.37318420410156 77.77173614501953 159.9354248046875 C 77.98892211914062 149.7742462158203 58.14175796508789 117.2805404663086 47.68500518798828 153.04234313964844 C 89.38137817382812 136.85195922851562 77.09069061279297 148.07286071777344 46.35444641113281 175.75741577148438" stroke-width="2.0" fill="none" stroke="rgb(0, 0, 0)" stroke-opacity="1" stroke-linecap="round" stroke-linejoin="round"/>
    <path d="M 114.15741729736328 157.71617126464844 C 116.93169403076172 184.86907958984375 138.26930236816406 161.74649047851562 130.24179077148438 153.74049377441406" stroke-width="2.0" fill="none" stroke="rgb(0, 0, 0)" stroke-opacity="1" stroke-linecap="round" stroke-linejoin="round"/>
    <path d="M 85.0618896484375 174.74111938476562 C 77.60394287109375 201.2384796142578 98.6197738647461 177.50755310058594 68.34516906738281 168.12106323242188 C 76.81983184814453 172.8290252685547 88.62200927734375 195.45191955566406 69.0307388305664 170.85549926757812" stroke-width="2.0" fill="none" stroke="rgb(0, 0, 0)" stroke-opacity="1" stroke-linecap="round" stroke-linejoin="round"/>
    <path d="M 47.075626373291016 148.5386962890625 C 18.758163452148438 207.43251037597656 27.844207763671875 182.46319580078125 33.976139068603516 162.33929443359375 C 3.473491668701172 146.44129943847656 16.76582145690918 153.58656311035156 64.5578842163086 172.71905517578125" stroke-width="2.0" fill="none" stroke="rgb(0, 0, 0)" stroke-opacity="1" stroke-linecap="round" stroke-linejoin="round"/>
    <path d="M 67.52594757080078 214.5420379638672 C 62.093849182128906 179.50970458984375 71.77116394042969 223.3126983642578 74.98919677734375 201.8094940185547 C 56.71884536743164 230.7837677001953 22.30284881591797 224.1045684814453 34.516048431396484 199.95169067382812 C 78.58052062988281 220.24147033691406 74.84685516357422 190.29920959472656 71.21349334716797 207.9895782470703" stroke-width="2.0" fill="none" stroke="rgb(0, 0, 0)" stroke-opacity="1" stroke-linecap="round" stroke-linejoin="round"/>
    <path d="M 160.5904998779297 230.2564239501953 C 168.50790405273438 220.3986358642578 176.21311950683594 227.0463104248047 181.0891571044922 240.9331512451172 C 188.527099609375 258.3758544921875 178.14381408691406 268.4960632324219 181.16026306152344 221.11737060546875 C 159.38003540039062 231.4308319091797 162.4936981201172 230.2904815673828 205.8590087890625 226.48321533203125" stroke-width="2.0" fill="none" stroke="rgb(0, 0, 0)" stroke-opacity="1" stroke-linecap="round" stroke-linejoin="round"/>
    <path d="M 163.1500244140625 53.38978958129883 C 146.43490600585938 78.10198211669922 154.04660034179688 69.39496612548828 145.28240966796875 57.5872802734375" stroke-width="2.0" fill="none" stroke="rgb(0, 0, 0)" stroke-opacity="1" stroke-linecap="round" stroke-linejoin="round"/>
    <path d="M 46.930973052978516 83.74726104736328 C 38.105892181396484 81.1806869506836 9.136138916015625 128.5558624267578 8.440342903137207 116.46932220458984 C 28.132286071777344 102.45316314697266 6.807313442230225 116.42138671875 9.430763244628906 111.46855163574219" stroke-width="2.0" fill="none" stroke="rgb(0, 0, 0)" stroke-opacity="1" stroke-linecap="round" stroke-linejoin="round"/>
    <path d="M 52.86688232421875 26.294858932495117 C 115.9776840209961 14.87874984741211 82.53409576416016 14.923304557800293 45.65237808227539 22.953088760375977 C 38.01988983154297 18.892183303833008 42.159793853759766 18.06079864501953 60.62858963012695 34.497249603271484" stroke-width="2.0" fill="none" stroke="rgb(0, 0, 0)" stroke-opacity="1" stroke-linecap="round" stroke-linejoin="round"/>
    <path d="M 137.1372833251953 101.25633239746094 C 144.18763732910156 113.90943145751953 147.8986053466797 97.9531478881836 148.28134155273438 91.79523468017578 C 149.056884765625 109.01605224609375 162.55638122558594 116.90575408935547 141.1977081298828 136.24124145507812 C 140.18174743652344 132.88116455078125 161.71229553222656 104.16178131103516 159.1064453125 126.827880859375" stroke-width="2.0" fill="none" stroke="rgb(0, 0, 0)" stroke-opacity="1" stroke-linecap="round" stroke-linejoin="round"/>
    <path d="M -4.630767345428467 141.84056091308594 C -3.6591742038726807 150.7523956298828 28.381593704223633 148.10806274414062 12.066059112548828 157.3438262939453 C 18.836942672729492 142.6211395263672 24.151025772094727 139.42120361328125 11.95689868927002 174.12911987304688" stroke-width="2.0" fill="none" stroke="rgb(0, 0, 0)" stroke-opacity="1" stroke-linecap="round" stroke-linejoin="round"/>
    <path d="M 176.87828063964844 50.789573669433594 C 190.4608612060547 13.959227561950684 191.40438842773438 0.8179174065589905 189.13037109375 35.88888168334961 C 234.47909545898438 39.86608123779297 205.84617614746094 26.22317123413086 193.475341796875 -15.056050300598145 C 209.1788787841797 3.7613673210144043 222.87429809570312 44.42665100097656 200.5160369873047 -1.9851937294006348" stroke-width="2.0" fill="none" stroke="rgb(0, 0, 0)" stroke-opacity="1" stroke-linecap="round" stroke-linejoin="round"/>
    <path d="M 25.425472259521484 85.65911865234375 C 6.5275139808654785 63.115013122558594 41.910186767578125 58.595794677734375 28.33547019958496 77.57357025146484 C 4.702284812927246 33.6114501953125 20.66080093383789 51.95952224731445 8.290262222290039 51.81869125366211" stroke-width="2.0" fill="none" stroke="rgb(0, 0, 0)" stroke-opacity="1" stroke-linecap="round" stroke-linejoin="round"/>
  </g>
</svg>
