<?xml version="1.0" ?>
<svg xmlns="http://www.w3.org/2000/svg" version="1.1" width="224" height="224">
  <defs/>
  <g>
    <path d="M 63.75379180908203 182.45318603515625 C 81.68193817138672 185.45664978027344 74.94227600097656 185.75167846679688 73.99706268310547 168.90110778808594 C 86.38716888427734 188.9726104736328 81.2348403930664 159.71177673339844 83.36152648925781 194.35020446777344" stroke-width="2.0" fill="none" stroke="rgb(0, 0, 0)" stroke-opacity="1" stroke-linecap="round" stroke-linejoin="round"/>
    <path d="M 188.87869262695312 193.4987335205078 C 174.68161010742188 152.5887451171875 175.29920959472656 187.3316650390625 182.35894775390625 195.64581298828125 C 175.6315155029297 180.8602294921875 166.44020080566406 197.92947387695312 164.76544189453125 181.6581573486328" stroke-width="2.0" fill="none" stroke="rgb(0, 0, 0)" stroke-opacity="1" stroke-linecap="round" stroke-linejoin="round"/>
    <path d="M 130.33529663085938 126.89783477783203 C 137.23194885253906 127.65135955810547 140.0438690185547 127.00979614257812 135.18893432617188 106.07640838623047 C 136.4296417236328 124.07636260986328 135.23672485351562 126.47101593017578 118.28919982910156 123.628662109375" stroke-width="2.0" fill="none" stroke="rgb(0, 0, 0)" stroke-opacity="1" stroke-linecap="round" stroke-linejoin="round"/>
    <path d="M 180.78399658203125 26.451494216918945 C 173.53549194335938 29.817378997802734 169.88670349121094 19.829437255859375 163.13833618164062 23.025978088378906 C 165.91127014160156 24.975997924804688 176.75294494628906 37.34248352050781 168.2031707763672 27.41958999633789" stroke-width="2.0" fill="none" stroke="rgb(0, 0, 0)" stroke-opacity="1" stroke-linecap="round" stroke-linejoin="round"/>
    <path d="M 219.85646057128906 89.100341796875 C 225.87051391601562 102.67332458496094 209.07797241210938 88.53970336914062 222.01510620117188 92.85123443603516 C 203.5880889892578 94.43244934082031 202.45616149902344 78.30725860595703 201.88839721679688 69.15778350830078 C 225.13632202148438 68.82696533203125 206.01724243164062 67.67134094238281 193.6559295654297 51.93274688720703" stroke-width="2.0" fill="none" stroke="rgb(0, 0, 0)" stroke-opacity="1" stroke-linecap="round" stroke-linejoin="round"/>
    <path d="M 98.60176086425781 137.23924255371094 C 119.60742950439453 156.53005981445312 109.53685760498047 148.0863800048828 98.77813720703125 136.8090057373047" stroke-width="2.0" fill="none" stroke="rgb(0, 0, 0)" stroke-opacity="1" stroke-linecap="round" stroke-linejoin="round"/>
    <path d="M 162.07012939453125 76.09153747558594 C 167.36070251464844 74.15135955810547 176.26690673828125 84.0008316040039 171.75059509277344 75.92286682128906" stroke-width="2.0" fill="none" stroke="rgb(0, 0, 0)" stroke-opacity="1" stroke-linecap="round" stroke-linejoin="round"/>
    <path d="M 53.90463638305664 74.76995086669922 C 67.91259765625 69.90608215332031 71.37074279785156 110.11394500732422 49.868309020996094 97.63015747070312" stroke-width="2.0" fill="none" stroke="rgb(0, 0, 0)" stroke-opacity="1" stroke-linecap="round" stroke-linejoin="round"/>
    <path d="M 28.440959930419922 41.28029251098633 C -15.848698616027832 35.29142761230469 32.72367477416992 36.53084182739258 14.764497756958008 31.800020217895508 C -8.311626434326172 13.19610595703125 5.350708484649658 55.22721862792969 -13.380764961242676 34.923641204833984" stroke-width="2.0" fill="none" stroke="rgb(0, 0, 0)" stroke-opacity="1" stroke-linecap="round" stroke-linejoin="round"/>
    <path d="M -5.054615497589111 168.14443969726562 C -16.441482543945312 193.950439453125 -10.033096313476562 173.17343139648438 20.689603805541992 180.4982147216797" stroke-width="2.0" fill="none" stroke="rgb(0, 0, 0)" stroke-opacity="1" stroke-linecap="round" stroke-linejoin="round"/>
    <path d="M 41.21588897705078 -4.289105415344238 C 52.928062438964844 11.481491088867188 56.85843276977539 -2.4272406101226807 54.090415954589844 26.053638458251953 C 42.704132080078125 18.800537109375 55.40776062011719 32.69834518432617 55.266815185546875 10.416603088378906" stroke-width="2.0" fill="none" stroke="rgb(0, 0, 0)" stroke-opacity="1" stroke-linecap="round" stroke-linejoin="round"/>
    <path d="M 127.66051483154297 83.54621887207031 C 131.23435974121094 66.6372299194336 126.46099853515625 76.26483154296875 140.13670349121094 71.783203125" stroke-width="2.0" fill="none" stroke="rgb(0, 0, 0)" stroke-opacity="1" stroke-linecap="round" stroke-linejoin="round"/>
    <path d="M 73.21881103515625 65.23799896240234 C 71.39457702636719 58.3023567199707 61.99144744873047 78.48848724365234 100.8625259399414 83.53726959228516 C 73.61043548583984 48.61198043823242 104.8980484008789 79.53939056396484 109.5188217163086 64.43628692626953 C 121.42669677734375 79.9434814453125 68.94773864746094 60.81688690185547 100.27685546875 63.14975357055664" stroke-width="2.0" fill="none" stroke="rgb(0, 0, 0)" stroke-opacity="1" stroke-linecap="round" stroke-linejoin="round"/>
    <path d="M 154.11300659179688 140.63050842285156 C 129.85498046875 135.8420867919922 148.92184448242188 164.57843017578125 131.19952392578125 142.4127655029297 C 87.37467193603516 140.20944213867188 124.38117218017578 147.39752197265625 116.02780151367188 121.70459747314453" stroke-width="2.0" fill="none" stroke="rgb(0, 0, 0)" stroke-opacity="1" stroke-linecap="round" stroke-linejoin="round"/>
    <path d="M 18.056941986083984 11.904706001281738 C 27.698780059814453 64.95098876953125 -1.927382469177246 2.116471290588379 16.937376022338867 7.0795087814331055 C 22.706180572509766 32.941932678222656 15.908520698547363 22.407724380493164 34.75607681274414 35.06201934814453 C 12.392584800720215 21.873641967773438 31.3918514251709 31.749752044677734 34.00700378417969 47.331077575683594" stroke-width="2.0" fill="none" stroke="rgb(0, 0, 0)" stroke-opacity="1" stroke-linecap="round" stroke-linejoin="round"/>
    <path d="M 108.16155242919922 110.08123779296875 C 105.0125503540039 92.86795043945312 122.10989379882812 110.44818878173828 120.59439086914062 92.78743743896484" stroke-width="2.0" fill="none" stroke="rgb(0, 0, 0)" stroke-opacity="1" stroke-linecap="round" stroke-linejoin="round"/>
    <path d="M 99.79521179199219 171.778076171875 C 96.0058822631836 183.04103088378906 104.17371368408203 182.28311157226562 89.50253295898438 184.0650177001953" stroke-width="2.0" fill="none" stroke="rgb(0, 0, 0)" stroke-opacity="1" stroke-linecap="round" stroke-linejoin="round"/>
    <path d="M 143.31517028808594 25.477113723754883 C 146.03245544433594 12.370197296142578 158.1703338623047 50.3753547668457 134.11305236816406 35.97132873535156" stroke-width="2.0" fill="none" stroke="rgb(0, 0, 0)" stroke-opacity="1" stroke-linecap="round" stroke-linejoin="round"/>
    <path d="M 148.11965942382812 176.4520721435547 C 149.2133026123047 167.7401580810547 149.46722412109375 177.82467651367188 149.34866333007812 176.76246643066406 C 144.9639434814453 190.41851806640625 135.0423583984375 183.53671264648438 119.77332305908203 176.800537109375 C 108.02824401855469 166.03892517089844 115.52791595458984 188.47821044921875 115.36139678955078 162.6029510498047" stroke-width="2.0" fill="none" stroke="rgb(0, 0, 0)" stroke-opacity="1" stroke-linecap="round" stroke-linejoin="round"/>
    <path d="M 173.19952392578125 20.821561813354492 C 164.0250701904297 21.897785186767578 184.67477416992188 23.911956787109375 167.5929718017578 -1.432889461517334 C 159.04750061035156 -10.771747589111328 160.3375244140625 -15.152782440185547 163.16854858398438 -16.182689666748047" stroke-width="2.0" fill="none" stroke="rgb(0, 0, 0)" stroke-opacity="1" stroke-linecap="round" stroke-linejoin="round"/>
    <path d="M 140.5517578125 142.55918884277344 C 145.4681854248047 151.96539306640625 138.7083740234375 135.69805908203125 131.52748107910156 133.1186981201172 C 146.0069122314453 143.0062713623047 141.88661193847656 143.0654296875 130.2847900390625 130.93988037109375 C 121.51911926269531 131.0692596435547 135.3597412109375 143.984375 115.90049743652344 140.92990112304688" stroke-width="2.0" fill="none" stroke="rgb(0, 0, 0)" stroke-opacity="1" stroke-linecap="round" stroke-linejoin="round"/>
    <path d="M 201.97915649414062 71.91426849365234 C 201.41175842285156 78.3863754272461 194.18380737304688 92.33920288085938 221.31834411621094 96.47745513916016 C 217.16448974609375 105.67518615722656 202.28363037109375 85.98897552490234 207.95726013183594 106.88719940185547 C 187.50018310546875 89.11536407470703 192.86376953125 78.22167205810547 207.48121643066406 105.34672546386719" stroke-width="2.0" fill="none" stroke="rgb(0, 0, 0)" stroke-opacity="1" stroke-linecap="round" stroke-linejoin="round"/>
    <path d="M 138.96551513671875 208.13970947265625 C 140.3358612060547 168.688720703125 118.32984161376953 203.74887084960938 129.6132049560547 193.4318084716797 C 125.8963394165039 182.23570251464844 129.03695678710938 169.18453979492188 127.09386444091797 187.61471557617188 C 154.5570068359375 196.9209442138672 148.46878051757812 184.5995330810547 142.17434692382812 194.90028381347656" stroke-width="2.0" fill="none" stroke="rgb(0, 0, 0)" stroke-opacity="1" stroke-linecap="round" stroke-linejoin="round"/>
    <path d="M 32.74179458618164 65.33592224121094 C 30.70145606994629 74.87407684326172 2.8963394165039062 56.15163803100586 21.146297454833984 83.1714096069336 C -27.208087921142578 82.61632537841797 4.112987041473389 26.11518096923828 17.94930076599121 58.466224670410156 C 13.272660255432129 55.71768569946289 33.69251251220703 75.83517456054688 25.161062240600586 47.3494987487793" stroke-width="2.0" fill="none" stroke="rgb(0, 0, 0)" stroke-opacity="1" stroke-linecap="round" stroke-linejoin="round"/>
    <path d="M 158.27610778808594 14.687353134155273 C 175.8588104248047 17.217321395874023 163.76548767089844 7.344156742095947 141.4759979248047 -4.472623825073242" stroke-width="2.0" fill="none" stroke="rgb(0, 0, 0)" stroke-opacity="1" stroke-linecap="round" stroke-linejoin="round"/>
    <path d="M 206.33602905273438 114.59073638916016 C 198.5135040283203 131.76480102539062 233.81825256347656 133.00892639160156 225.75869750976562 137.43582153320312" stroke-width="2.0" fill="none" stroke="rgb(0, 0, 0)" stroke-opacity="1" stroke-linecap="round" stroke-linejoin="round"/>
    <path d="M 101.74211120605469 25.72533416748047 C 131.6864013671875 19.25762939453125 120.2713851928711 55.90922927856445 115.8782958984375 48.98301315307617 C 95.68319702148438 46.481266021728516 103.39273071289062 50.58562088012695 113.28832244873047 44.64524459838867" stroke-width="2.0" fill="none" stroke="rgb(0, 0, 0)" stroke-opacity="1" stroke-linecap="round" stroke-linejoin="round"/>
    <path d="M 194.14939880371094 220.2797393798828 C 192.8266143798828 221.0988311767578 192.40802001953125 217.3919219970703 191.11618041992188 213.45127868652344 C 175.8955535888672 193.0535430908203 171.67941284179688 203.35340881347656 180.2816925048828 214.77001953125 C 163.24832153320312 219.78895568847656 170.1676788330078 209.0301513671875 169.95619201660156 164.8507080078125" stroke-width="2.0" fill="none" stroke="rgb(0, 0, 0)" stroke-opacity="1" stroke-linecap="round" stroke-linejoin="round"/>
    <path d="M 61.20917510986328 167.07923889160156 C 54.616363525390625 163.23150634765625 63.03325653076172 169.76351928710938 59.41978073120117 166.11692810058594 C 70.53961181640625 174.51885986328125 29.160282135009766 170.25950622558594 37.07133102416992 144.25421142578125 C 27.930784225463867 141.21603393554688 40.38904571533203 160.1771240234375 19.940269470214844 153.2981719970703" stroke-width="2.0" fill="none" stroke="rgb(0, 0, 0)" stroke-opacity="1" stroke-linecap="round" stroke-linejoin="round"/>
    <path d="M 97.67960357666016 117.65215301513672 C 99.06198120117188 114.00405883789062 112.57817840576172 130.87496948242188 99.2370834350586 133.290771484375" stroke-width="2.0" fill="none" stroke="rgb(0, 0, 0)" stroke-opacity="1" stroke-linecap="round" stroke-linejoin="round"/>
    <path d="M 183.28955078125 103.96330261230469 C 166.3415985107422 78.52869415283203 203.0972137451172 118.7928695678711 207.26290893554688 101.99381256103516 C 214.7067108154297 133.60586547851562 218.64306640625 91.99710083007812 211.40875244140625 98.04164123535156" stroke-width="2.0" fill="none" stroke="rgb(0, 0, 0)" stroke-opacity="1" stroke-linecap="round" stroke-linejoin="round"/>
    <path d="M 225.4117431640625 37.144126892089844 C 214.60662841796875 26.799659729003906 221.13597106933594 65.85718536376953 230.99598693847656 54.85455322265625 C 222.8074951171875 62.65321731567383 229.94024658203125 50.70307159423828 231.85397338867188 51.407833099365234 C 215.15672302246094 52.07210159301758 209.93637084960938 43.92448043823242 211.8380889892578 52.26713562011719" stroke-width="2.0" fill="none" stroke="rgb(0, 0, 0)" stroke-opacity="1" stroke-linecap="round" stroke-linejoin="round"/>
    <path d="M 233.07078552246094 188.1275177001953 C 238.04833984375 188.98594665527344 246.4468231201172 199.47218322753906 254.3507537841797 192.17904663085938 C 251.0794219970703 186.4539337158203 253.25027465820312 196.011474609375 254.4909210205078 194.236572265625 C 246.20896911621094 198.75985717773438 246.79432678222656 206.148681640625 241.89739990234375 206.71498107910156" stroke-width="2.0" fill="none" stroke="rgb(0, 0, 0)" stroke-opacity="1" stroke-linecap="round" stroke-linejoin="round"/>
    <path d="M 17.53590202331543 104.08512115478516 C 19.92464828491211 116.93733978271484 15.784502029418945 110.24030303955078 -7.660658836364746 99.59862518310547" stroke-width="2.0" fill="none" stroke="rgb(0, 0, 0)" stroke-opacity="1" stroke-linecap="round" stroke-linejoin="round"/>
    <path d="M 127.62434387207031 165.43902587890625 C 117.15599822998047 161.47152709960938 126.0003433227539 165.78109741210938 138.88308715820312 172.82449340820312 C 108.43639373779297 128.6449432373047 136.3507843017578 165.5054168701172 146.0653533935547 155.30172729492188 C 145.23521423339844 137.89996337890625 147.93507385253906 136.9341583251953 140.346923828125 144.93002319335938" stroke-width="2.0" fill="none" stroke="rgb(0, 0, 0)" stroke-opacity="1" stroke-linecap="round" stroke-linejoin="round"/>
    <path d="M 83.73860168457031 33.28078079223633 C 79.12156677246094 68.78822326660156 85.40507507324219 19.076858520507812 58.04005432128906 20.17074203491211 C 76.48356628417969 32.02833557128906 59.84454345703125 41.43276596069336 45.22135925292969 21.964031219482422 C 38.96897506713867 44.621849060058594 54.278846740722656 59.88669204711914 28.800912857055664 51.78220748901367" stroke-width="2.0" fill="none" stroke="rgb(0, 0, 0)" stroke-opacity="1" stroke-linecap="round" stroke-linejoin="round"/>
    <path d="M 43.85909652709961 -11.460077285766602 C 40.16792297363281 1.6604441404342651 30.909509658813477 -10.219970703125 28.622333526611328 -10.489547729492188 C 27.522001266479492 14.345943450927734 37.06605911254883 18.313892364501953 32.6075439453125 12.590123176574707" stroke-width="2.0" fill="none" stroke="rgb(0, 0, 0)" stroke-opacity="1" stroke-linecap="round" stroke-linejoin="round"/>
    <path d="M 122.41181945800781 65.16569519042969 C 149.60716247558594 72.56804656982422 140.1064910888672 72.25262451171875 121.84972381591797 63.55571365356445 C 125.18055725097656 96.50686645507812 102.23207092285156 57.85618591308594 110.93375396728516 94.00892639160156 C 113.60301208496094 97.8024673461914 111.85440063476562 78.20451354980469 113.49734497070312 93.38027954101562" stroke-width="2.0" fill="none" stroke="rgb(0, 0, 0)" stroke-opacity="1" stroke-linecap="round" stroke-linejoin="round"/>
    <path d="M 89.2353515625 71.27984619140625 C 94.26570892333984 78.60392761230469 72.3345718383789 74.50918579101562 79.21491241455078 76.96458435058594" stroke-width="2.0" fill="none" stroke="rgb(0, 0, 0)" stroke-opacity="1" stroke-linecap="round" stroke-linejoin="round"/>
    <path d="M 73.04335021972656 16.024375915527344 C 61.602203369140625 -4.486705780029297 44.11391830444336 -4.7666754722595215 37.319297790527344 3.196561813354492" stroke-width="2.0" fill="none" stroke="rgb(0, 0, 0)" stroke-opacity="1" stroke-linecap="round" stroke-linejoin="round"/>
    <path d="M 181.9600372314453 67.72200012207031 C 187.69284057617188 71.04238891601562 196.04568481445312 74.27222442626953 188.22096252441406 55.3763542175293 C 189.9511260986328 32.26206970214844 184.7971954345703 54.476104736328125 181.30905151367188 57.518898010253906" stroke-width="2.0" fill="none" stroke="rgb(0, 0, 0)" stroke-opacity="1" stroke-linecap="round" stroke-linejoin="round"/>
    <path d="M 128.31954956054688 107.53523254394531 C 124.02909851074219 86.15219116210938 150.503173828125 120.08609771728516 157.49740600585938 89.52532958984375 C 131.20021057128906 86.91142272949219 174.68441772460938 71.43181610107422 158.99351501464844 106.39530181884766" stroke-width="2.0" fill="none" stroke="rgb(0, 0, 0)" stroke-opacity="1" stroke-linecap="round" stroke-linejoin="round"/>
    <path d="M 78.27107238769531 10.585919380187988 C 71.58424377441406 -3.537564992904663 62.44057083129883 -3.2802798748016357 51.23451614379883 -3.7576286792755127" stroke-width="2.0" fill="none" stroke="rgb(0, 0, 0)" stroke-opacity="1" stroke-linecap="round" stroke-linejoin="round"/>
    <path d="M 141.89785766601562 168.18113708496094 C 145.65606689453125 198.1317138671875 98.97452545166016 159.46096801757812 128.838134765625 164.35450744628906 C 120.3139419555664 150.69229125976562 115.98591613769531 163.39146423339844 104.7315902709961 155.50230407714844" stroke-width="2.0" fill="none" stroke="rgb(0, 0, 0)" stroke-opacity="1" stroke-linecap="round" stroke-linejoin="round"/>
    <path d="M 133.49952697753906 189.30320739746094 C 132.9256134033203 188.95005798339844 126.41323852539062 181.4647216796875 136.0341339111328 191.35989379882812 C 134.06951904296875 214.70782470703125 103.9720458984375 189.1236114501953 109.8489761352539 194.9165802001953" stroke-width="2.0" fill="none" stroke="rgb(0, 0, 0)" stroke-opacity="1" stroke-linecap="round" stroke-linejoin="round"/>
    <path d="M 125.4251937866211 149.24656677246094 C 129.4636688232422 146.38748168945312 152.70535278320312 161.10897827148438 124.24419403076172 136.76657104492188 C 120.86235809326172 115.75791931152344 139.5249786376953 140.2929229736328 135.7514190673828 105.36475372314453 C 146.9979705810547 135.27711486816406 183.64869689941406 136.51931762695312 158.34339904785156 118.80582427978516" stroke-width="2.0" fill="none" stroke="rgb(0, 0, 0)" stroke-opacity="1" stroke-linecap="round" stroke-linejoin="round"/>
    <path d="M 109.93141174316406 117.95703125 C 120.4752197265625 109.29891204833984 117.96855163574219 118.41626739501953 125.52690887451172 118.39517211914062 C 127.75125885009766 122.4406967163086 126.02285766601562 108.31857299804688 111.83648681640625 105.5418930053711" stroke-width="2.0" fill="none" stroke="rgb(0, 0, 0)" stroke-opacity="1" stroke-linecap="round" stroke-linejoin="round"/>
    <path d="M 74.48917388916016 180.45147705078125 C 69.21463012695312 169.29702758789062 80.81343841552734 157.4541473388672 85.53070831298828 194.294677734375 C 61.7342529296875 184.9830322265625 94.45050811767578 211.03469848632812 88.71343231201172 185.50672912597656" stroke-width="2.0" fill="none" stroke="rgb(0, 0, 0)" stroke-opacity="1" stroke-linecap="round" stroke-linejoin="round"/>
    <path d="M 96.29981994628906 104.3712158203125 C 73.5217514038086 100.68882751464844 94.8636245727539 115.64306640625 103.74952697753906 112.57914733886719" stroke-width="2.0" fill="none" stroke="rgb(0, 0, 0)" stroke-opacity="1" stroke-linecap="round" stroke-linejoin="round"/>
    <path d="M 201.92868041992188 22.624767303466797 C 202.815185546875 -24.917287826538086 188.54559326171875 -29.361270904541016 214.69509887695312 7.88010835647583" stroke-width="2.0" fill="none" stroke="rgb(0, 0, 0)" stroke-opacity="1" stroke-linecap="round" stroke-linejoin="round"/>
    <path d="M 56.122657775878906 55.7161979675293 C 57.1124382019043 81.45207977294922 60.472373962402344 68.8112564086914 55.20610427856445 53.3891487121582 C 64.69955444335938 65.49610900878906 85.27742767333984 48.17109298706055 71.50910186767578 69.03348541259766 C 105.84818267822266 64.8455810546875 74.37103271484375 27.184202194213867 100.45467376708984 43.715843200683594" stroke-width="2.0" fill="none" stroke="rgb(0, 0, 0)" stroke-opacity="1" stroke-linecap="round" stroke-linejoin="round"/>
    <path d="M 81.61273193359375 194.60206604003906 C 62.5828857421875 184.3710479736328 70.13224792480469 197.64048767089844 66.76611328125 201.0856475830078 C 73.14933776855469 201.7901611328125 59.285240173339844 205.4366912841797 48.24477005004883 192.0572509765625" stroke-width="2.0" fill="none" stroke="rgb(0, 0, 0)" stroke-opacity="1" stroke-linecap="round" stroke-linejoin="round"/>
    <path d="M 140.61566162109375 70.10865020751953 C 141.13943481445312 70.29508209228516 118.75127410888672 42.85139083862305 154.0557403564453 56.8692741394043 C 146.76783752441406 60.431434631347656 133.3997802734375 54.96757507324219 140.7914581298828 57.92099380493164 C 133.4794158935547 52.30451583862305 150.87185668945312 71.2500991821289 165.7783660888672 67.52584838867188" stroke-width="2.0" fill="none" stroke="rgb(0, 0, 0)" stroke-opacity="1" stroke-linecap="round" stroke-linejoin="round"/>
    <path d="M 142.07191467285156 167.2877655029297 C 143.0456085205078 167.54994201660156 137.45233154296875 158.2391357421875 160.51805114746094 166.832275390625 C 136.43087768554688 125.77647399902344 164.59674072265625 165.86012268066406 163.70277404785156 136.09092712402344" stroke-width="2.0" fill="none" stroke="rgb(0, 0, 0)" stroke-opacity="1" stroke-linecap="round" stroke-linejoin="round"/>
    <path d="M 85.62567138671875 106.7531967163086 C 81.44114685058594 100.71991729736328 105.26354217529297 129.12310791015625 103.91056823730469 98.68243408203125" stroke-width="2.0" fill="none" stroke="rgb(0, 0, 0)" stroke-opacity="1" stroke-linecap="round" stroke-linejoin="round"/>
    <path d="M 193.05404663085938 204.3736572265625 C 194.90126037597656 194.90565490722656 200.77194213867188 192.38052368164062 184.27023315429688 179.01226806640625" stroke-width="2.0" fill="none" stroke="rgb(0, 0, 0)" stroke-opacity="1" stroke-linecap="round" stroke-linejoin="round"/>
    <path d="M 133.8446502685547 28.796642303466797 C 110.73152923583984 33.0042610168457 116.2623291015625 3.004701852798462 119.08177947998047 15.277982711791992" stroke-width="2.0" fill="none" stroke="rgb(0, 0, 0)" stroke-opacity="1" stroke-linecap="round" stroke-linejoin="round"/>
    <path d="M 230.81227111816406 48.77070617675781 C 197.37754821777344 50.88146209716797 226.69935607910156 37.63447952270508 218.63037109375 72.08728790283203 C 211.79026794433594 79.22883605957031 204.14895629882812 67.03095245361328 212.9696502685547 87.50308990478516 C 233.26414489746094 89.7319564819336 193.3445587158203 82.39584350585938 230.69688415527344 84.33235168457031" stroke-width="2.0" fill="none" stroke="rgb(0, 0, 0)" stroke-opacity="1" stroke-linecap="round" stroke-linejoin="round"/>
    <path d="M 169.51559448242188 173.53662109375 C 158.6404571533203 187.765380859375 143.7032928466797 163.26380920410156 154.85777282714844 176.61141967773438 C 157.1219940185547 193.6602783203125 131.73141479492188 188.88047790527344 149.21263122558594 208.6446990966797" stroke-width="2.0" fill="none" stroke="rgb(0, 0, 0)" stroke-opacity="1" stroke-linecap="round" stroke-linejoin="round"/>
    <path d="M 128.28294372558594 116.73701477050781 C 119.07720184326172 84.36673736572266 156.21714782714844 106.95355987548828 124.64667510986328 93.26150512695312" stroke-width="2.0" fill="none" stroke="rgb(0, 0, 0)" stroke-opacity="1" stroke-linecap="round" stroke-linejoin="round"/>
    <path d="M 178.59567260742188 75.3636474609375 C 185.34439086914062 69.26424407958984 191.63858032226562 94.20503997802734 171.1964569091797 95.53462219238281" stroke-width="2.0" fill="none" stroke="rgb(0, 0, 0)" stroke-opacity="1" stroke-linecap="round" stroke-linejoin="round"/>
    <path d="M 64.27513885498047 143.57061767578125 C 48.1201286315918 143.25453186035156 56.097537994384766 160.33474731445312 61.68704605102539 167.28622436523438 C 63.11907196044922 162.69932556152344 57.16736602783203 146.06228637695312 68.80742645263672 161.4871826171875 C 64.47649383544922 193.22100830078125 52.368553161621094 202.83177185058594 55.328216552734375 174.75827026367188" stroke-width="2.0" fill="none" stroke="rgb(0, 0, 0)" stroke-opacity="1" stroke-linecap="round" stroke-linejoin="round"/>
    <path d="M 106.05254364013672 166.36659240722656 C 101.54822540283203 163.32928466796875 110.35594177246094 175.49447631835938 108.85879516601562 164.00491333007812 C 87.24930572509766 144.0670928955078 123.66706848144531 167.10006713867188 116.06427764892578 142.90988159179688" stroke-width="2.0" fill="none" stroke="rgb(0, 0, 0)" stroke-opacity="1" stroke-linecap="round" stroke-linejoin="round"/>
    <path d="M 209.24346923828125 15.5397310256958 C 206.46998596191406 22.575698852539062 214.73194885253906 34.79556655883789 192.18141174316406 26.951202392578125 C 183.5821533203125 20.314655303955078 216.9373016357422 24.91823959350586 192.7408447265625 23.764612197875977" stroke-width="2.0" fill="none" stroke="rgb(0, 0, 0)" stroke-opacity="1" stroke-linecap="round" stroke-linejoin="round"/>
    <path d="M 30.211448669433594 -2.553274393081665 C 26.969533920288086 3.430280923843384 28.562673568725586 -13.382296562194824 19.59111213684082 -8.808408737182617" stroke-width="2.0" fill="none" stroke="rgb(0, 0, 0)" stroke-opacity="1" stroke-linecap="round" stroke-linejoin="round"/>
    <path d="M 103.70779418945312 168.78485107421875 C 117.64188385009766 171.23963928222656 74.15304565429688 168.1406707763672 80.031494140625 145.74362182617188 C 105.8136215209961 175.16549682617188 92.98944091796875 154.70176696777344 102.10479736328125 150.1239471435547" stroke-width="2.0" fill="none" stroke="rgb(0, 0, 0)" stroke-opacity="1" stroke-linecap="round" stroke-linejoin="round"/>
    <path d="M 217.60946655273438 204.28076171875 C 211.67237854003906 172.35081481933594 221.33155822753906 187.0961151123047 247.2892608642578 210.14955139160156 C 231.7214813232422 199.27874755859375 211.09019470214844 218.36679077148438 211.75917053222656 192.45509338378906 C 177.61460876464844 167.9075469970703 205.0536346435547 165.7578582763672 243.92269897460938 183.466796875" stroke-width="2.0" fill="none" stroke="rgb(0, 0, 0)" stroke-opacity="1" stroke-linecap="round" stroke-linejoin="round"/>
    <path d="M 245.16868591308594 160.33981323242188 C 212.33384704589844 159.01451110839844 215.84242248535156 166.60934448242188 201.57461547851562 157.37510681152344" stroke-width="2.0" fill="none" stroke="rgb(0, 0, 0)" stroke-opacity="1" stroke-linecap="round" stroke-linejoin="round"/>
    <path d="M 121.16178131103516 92.62653350830078 C 116.97115325927734 80.96002197265625 152.0444793701172 93.41867065429688 136.35723876953125 98.5721206665039" stroke-width="2.0" fill="none" stroke="rgb(0, 0, 0)" stroke-opacity="1" stroke-linecap="round" stroke-linejoin="round"/>
    <path d="M 71.8940658569336 46.660919189453125 C 92.8138198852539 64.32563018798828 91.5406265258789 31.618873596191406 91.66905975341797 57.80385971069336" stroke-width="2.0" fill="none" stroke="rgb(0, 0, 0)" stroke-opacity="1" stroke-linecap="round" stroke-linejoin="round"/>
    <path d="M 114.4715576171875 231.87979125976562 C 111.37644958496094 220.21261596679688 110.95726776123047 241.2387237548828 105.50743865966797 251.1546630859375" stroke-width="2.0" fill="none" stroke="rgb(0, 0, 0)" stroke-opacity="1" stroke-linecap="round" stroke-linejoin="round"/>
    <path d="M 1.3805125951766968 156.1096649169922 C 22.145055770874023 168.28329467773438 9.940138816833496 129.16270446777344 -8.514009475708008 136.18336486816406" stroke-width="2.0" fill="none" stroke="rgb(0, 0, 0)" stroke-opacity="1" stroke-linecap="round" stroke-linejoin="round"/>
    <path d="M 86.51520538330078 213.21595764160156 C 82.21028900146484 191.89463806152344 102.95567321777344 209.44273376464844 97.51744079589844 200.63259887695312 C 97.76416015625 206.71128845214844 104.25904846191406 199.32752990722656 92.37083435058594 186.7454833984375 C 124.13619995117188 189.51113891601562 123.11572265625 192.3950958251953 103.16625213623047 178.50328063964844" stroke-width="2.0" fill="none" stroke="rgb(0, 0, 0)" stroke-opacity="1" stroke-linecap="round" stroke-linejoin="round"/>
    <path d="M 174.0740203857422 134.20872497558594 C 174.02664184570312 113.88121795654297 156.36692810058594 125.37020111083984 153.17959594726562 108.9957046508789 C 156.4486083984375 109.58697509765625 148.72494506835938 108.82044219970703 153.9758758544922 110.35083770751953 C 155.17161560058594 120.7047348022461 172.61009216308594 122.97721099853516 171.0308074951172 107.70317840576172" stroke-width="2.0" fill="none" stroke="rgb(0, 0, 0)" stroke-opacity="1" stroke-linecap="round" stroke-linejoin="round"/>
    <path d="M 65.31934356689453 -7.350779056549072 C 51.21485900878906 0.005960140377283096 48.26245880126953 -4.710353851318359 44.001373291015625 -9.766207695007324" stroke-width="2.0" fill="none" stroke="rgb(0, 0, 0)" stroke-opacity="1" stroke-linecap="round" stroke-linejoin="round"/>
    <path d="M 35.57128143310547 -2.825124502182007 C 44.39583969116211 15.987972259521484 60.644248962402344 22.18396759033203 31.266611099243164 -6.198185920715332 C 79.3586196899414 -3.745617628097534 62.9117431640625 10.114967346191406 43.58683395385742 -8.8585205078125 C 40.06462860107422 -22.739702224731445 58.57134246826172 -28.30763053894043 73.54702758789062 -19.815380096435547" stroke-width="2.0" fill="none" stroke="rgb(0, 0, 0)" stroke-opacity="1" stroke-linecap="round" stroke-linejoin="round"/>
    <path d="M 57.15263366699219 128.80026245117188 C 51.14634704589844 133.17958068847656 77.05440521240234 146.6466064453125 58.95266342163086 145.01922607421875" stroke-width="2.0" fill="none" stroke="rgb(0, 0, 0)" stroke-opacity="1" stroke-linecap="round" stroke-linejoin="round"/>
    <path d="M 47.14450454711914 168.67005920410156 C 53.50307846069336 187.87843322753906 32.39479446411133 183.14633178710938 26.16372299194336 173.7803497314453" stroke-width="2.0" fill="none" stroke="rgb(0, 0, 0)" stroke-opacity="1" stroke-linecap="round" stroke-linejoin="round"/>
    <path d="M 184.42027282714844 232.00465393066406 C 202.03028869628906 227.68304443359375 203.4914093017578 213.7461700439453 205.5658721923828 227.73634338378906 C 211.31015014648438 236.90394592285156 219.87969970703125 235.7288818359375 219.42617797851562 227.22386169433594 C 194.5870819091797 226.2890167236328 191.61378479003906 187.11097717285156 208.1024627685547 196.2176513671875" stroke-width="2.0" fill="none" stroke="rgb(0, 0, 0)" stroke-opacity="1" stroke-linecap="round" stroke-linejoin="round"/>
    <path d="M 127.45270538330078 179.28057861328125 C 152.26222229003906 192.52023315429688 145.50502014160156 165.85171508789062 150.00941467285156 169.91615295410156" stroke-width="2.0" fill="none" stroke="rgb(0, 0, 0)" stroke-opacity="1" stroke-linecap="round" stroke-linejoin="round"/>
    <path d="M 127.756591796875 102.96428680419922 C 132.2010498046875 137.00660705566406 121.4070816040039 101.11258697509766 96.90354919433594 113.20393371582031 C 74.17996215820312 101.15347290039062 92.00481414794922 106.44636535644531 93.36353302001953 104.81974792480469" stroke-width="2.0" fill="none" stroke="rgb(0, 0, 0)" stroke-opacity="1" stroke-linecap="round" stroke-linejoin="round"/>
    <path d="M 184.33004760742188 68.74540710449219 C 179.72251892089844 65.9881362915039 173.42071533203125 57.70082092285156 174.02088928222656 79.09532165527344" stroke-width="2.0" fill="none" stroke="rgb(0, 0, 0)" stroke-opacity="1" stroke-linecap="round" stroke-linejoin="round"/>
    <path d="M 21.55452537536621 209.65231323242188 C 12.749587059020996 178.7598876953125 20.266820907592773 204.33355712890625 20.52351951599121 211.14376831054688 C 31.05794334411621 210.27561950683594 19.052770614624023 215.17762756347656 17.017112731933594 188.19656372070312" stroke-width="2.0" fill="none" stroke="rgb(0, 0, 0)" stroke-opacity="1" stroke-linecap="round" stroke-linejoin="round"/>
    <path d="M 169.22540283203125 56.086673736572266 C 197.36239624023438 58.684383392333984 176.965576171875 41.868560791015625 195.8561553955078 45.95909118652344" stroke-width="2.0" fill="none" stroke="rgb(0, 0, 0)" stroke-opacity="1" stroke-linecap="round" stroke-linejoin="round"/>
    <path d="M 37.627525329589844 137.74612426757812 C 35.59980010986328 123.67870330810547 50.21154022216797 144.5360870361328 24.94794464111328 135.10147094726562" stroke-width="2.0" fill="none" stroke="rgb(0, 0, 0)" stroke-opacity="1" stroke-linecap="round" stroke-linejoin="round"/>
    <path d="M -4.617292881011963 124.41011810302734 C -10.551947593688965 111.4652099609375 4.522937297821045 90.87407684326172 11.783393859863281 120.36053466796875 C 36.74916076660156 130.7869110107422 30.740760803222656 98.34896850585938 32.54743957519531 133.10679626464844 C 3.70652174949646 112.0662841796875 29.47272491455078 153.186279296875 0.7383882403373718 134.1189727783203" stroke-width="2.0" fill="none" stroke="rgb(0, 0, 0)" stroke-opacity="1" stroke-linecap="round" stroke-linejoin="round"/>
    <path d="M 130.34747314453125 180.35888671875 C 124.42388916015625 187.89781188964844 129.53929138183594 200.0177459716797 125.95638275146484 181.83551025390625" stroke-width="2.0" fill="none" stroke="rgb(0, 0, 0)" stroke-opacity="1" stroke-linecap="round" stroke-linejoin="round"/>
    <path d="M 164.10662841796875 24.543039321899414 C 165.69570922851562 33.82981491088867 166.70394897460938 34.75736618041992 154.95045471191406 35.181941986083984 C 154.7724609375 46.150272369384766 185.68612670898438 65.65435791015625 180.436279296875 41.23926544189453 C 167.565185546875 43.974945068359375 171.73715209960938 30.526918411254883 162.62586975097656 21.154996871948242" stroke-width="2.0" fill="none" stroke="rgb(0, 0, 0)" stroke-opacity="1" stroke-linecap="round" stroke-linejoin="round"/>
    <path d="M 21.87915802001953 -7.0787763595581055 C 31.807771682739258 0.9195834994316101 43.550209045410156 -8.55733585357666 27.65070915222168 -6.7736639976501465" stroke-width="2.0" fill="none" stroke="rgb(0, 0, 0)" stroke-opacity="1" stroke-linecap="round" stroke-linejoin="round"/>
    <path d="M 207.97288513183594 226.07273864746094 C 198.59280395507812 237.14544677734375 192.10906982421875 218.61209106445312 177.24404907226562 223.95701599121094 C 198.18243408203125 211.12307739257812 160.8269805908203 213.02012634277344 162.69822692871094 213.16073608398438" stroke-width="2.0" fill="none" stroke="rgb(0, 0, 0)" stroke-opacity="1" stroke-linecap="round" stroke-linejoin="round"/>
    <path d="M 162.1375274658203 77.39079284667969 C 175.3147430419922 98.72663116455078 181.4025421142578 88.32186126708984 179.32142639160156 79.7898178100586" stroke-width="2.0" fill="none" stroke="rgb(0, 0, 0)" stroke-opacity="1" stroke-linecap="round" stroke-linejoin="round"/>
    <path d="M 171.38064575195312 106.04267883300781 C 170.70388793945312 99.3578109741211 185.81272888183594 119.22330474853516 187.21888732910156 101.73036193847656 C 190.78758239746094 93.95122528076172 201.3844757080078 136.52194213867188 174.09051513671875 108.2275161743164 C 171.3977813720703 124.7171630859375 201.00436401367188 133.18661499023438 199.34637451171875 114.5756607055664" stroke-width="2.0" fill="none" stroke="rgb(0, 0, 0)" stroke-opacity="1" stroke-linecap="round" stroke-linejoin="round"/>
    <path d="M 37.82216262817383 15.24463939666748 C 37.896480560302734 38.81914520263672 18.528810501098633 18.90787124633789 22.667613983154297 25.797103881835938" stroke-width="2.0" fill="none" stroke="rgb(0, 0, 0)" stroke-opacity="1" stroke-linecap="round" stroke-linejoin="round"/>
    <path d="M 119.68672180175781 -8.365646362304688 C 153.47108459472656 -13.25014877319336 130.87713623046875 1.272390365600586 151.57763671875 9.998817443847656" stroke-width="2.0" fill="none" stroke="rgb(0, 0, 0)" stroke-opacity="1" stroke-linecap="round" stroke-linejoin="round"/>
    <path d="M 179.4458465576172 160.74380493164062 C 169.8298797607422 168.04046630859375 157.14447021484375 145.9993896484375 165.48155212402344 157.3729705810547 C 166.87205505371094 159.8460235595703 166.3710174560547 160.76283264160156 164.38412475585938 157.809814453125" stroke-width="2.0" fill="none" stroke="rgb(0, 0, 0)" stroke-opacity="1" stroke-linecap="round" stroke-linejoin="round"/>
    <path d="M 41.97526550292969 60.08268356323242 C 59.63637161254883 69.06816101074219 49.876216888427734 4.890285491943359 59.57741165161133 99.80398559570312 C 41.568092346191406 53.623958587646484 29.93775749206543 48.42084503173828 39.38556671142578 74.32778930664062" stroke-width="2.0" fill="none" stroke="rgb(0, 0, 0)" stroke-opacity="1" stroke-linecap="round" stroke-linejoin="round"/>
    <path d="M -7.832367897033691 135.93858337402344 C -4.27619743347168 118.7113037109375 6.396743297576904 161.43173217773438 -2.266779899597168 151.40365600585938 C -16.513208389282227 153.6051788330078 15.119145393371582 164.26712036132812 13.23299503326416 148.88644409179688" stroke-width="2.0" fill="none" stroke="rgb(0, 0, 0)" stroke-opacity="1" stroke-linecap="round" stroke-linejoin="round"/>
    <path d="M 204.38922119140625 200.32595825195312 C 214.2411346435547 232.36297607421875 228.62094116210938 227.84425354003906 241.47967529296875 223.44830322265625 C 227.33912658691406 227.54200744628906 243.0106964111328 228.73568725585938 243.79026794433594 229.87008666992188" stroke-width="2.0" fill="none" stroke="rgb(0, 0, 0)" stroke-opacity="1" stroke-linecap="round" stroke-linejoin="round"/>
    <path d="M 17.588848114013672 95.12783813476562 C 15.800629615783691 106.39359283447266 23.864294052124023 114.12918090820312 7.292715549468994 105.051025390625" stroke-width="2.0" fill="none" stroke="rgb(0, 0, 0)" stroke-opacity="1" stroke-linecap="round" stroke-linejoin="round"/>
    <path d="M 94.5503158569336 5.05977201461792 C 38.290870666503906 -28.639986038208008 100.88817596435547 34.04298400878906 98.90220642089844 2.9527010917663574" stroke-width="2.0" fill="none" stroke="rgb(0, 0, 0)" stroke-opacity="1" stroke-linecap="round" stroke-linejoin="round"/>
    <path d="M 6.817146301269531 207.54087829589844 C 2.3052589893341064 197.85902404785156 9.528173446655273 185.678955078125 18.401342391967773 211.08792114257812" stroke-width="2.0" fill="none" stroke="rgb(0, 0, 0)" stroke-opacity="1" stroke-linecap="round" stroke-linejoin="round"/>
    <path d="M 43.463218688964844 37.678367614746094 C 37.58212661743164 30.192960739135742 56.05100631713867 57.34705352783203 68.16200256347656 55.13785934448242" stroke-width="2.0" fill="none" stroke="rgb(0, 0, 0)" stroke-opacity="1" stroke-linecap="round" stroke-linejoin="round"/>
    <path d="M 198.60971069335938 52.199310302734375 C 222.9558868408203 64.03489685058594 195.40895080566406 36.24419403076172 225.4419708251953 33.25875473022461 C 230.03590393066406 37.53029251098633 219.2667999267578 38.97767639160156 212.1746063232422 33.0501594543457" stroke-width="2.0" fill="none" stroke="rgb(0, 0, 0)" stroke-opacity="1" stroke-linecap="round" stroke-linejoin="round"/>
    <path d="M 148.5551300048828 45.85478973388672 C 164.70582580566406 32.73321533203125 151.83554077148438 37.254241943359375 173.42138671875 50.29362869262695" stroke-width="2.0" fill="none" stroke="rgb(0, 0, 0)" stroke-opacity="1" stroke-linecap="round" stroke-linejoin="round"/>
    <path d="M 12.172292709350586 89.82714080810547 C 26.9310359954834 96.95809173583984 32.38044357299805 74.82764434814453 16.724910736083984 67.34371948242188" stroke-width="2.0" fill="none" stroke="rgb(0, 0, 0)" stroke-opacity="1" stroke-linecap="round" stroke-linejoin="round"/>
    <path d="M -5.562831401824951 114.4712905883789 C 12.510823249816895 89.21112060546875 3.371375322341919 124.43341827392578 20.84324836730957 117.95803833007812 C 30.465749740600586 115.76636505126953 17.615564346313477 98.95731353759766 39.002197265625 105.29052734375" stroke-width="2.0" fill="none" stroke="rgb(0, 0, 0)" stroke-opacity="1" stroke-linecap="round" stroke-linejoin="round"/>
    <path d="M 40.03304672241211 133.67874145507812 C 31.79077911376953 107.88175201416016 52.754180908203125 125.88578033447266 33.2072868347168 109.1991195678711 C 50.13226318359375 122.59162139892578 54.285888671875 106.09807586669922 46.354896545410156 84.5428466796875 C 29.74242401123047 87.7258071899414 53.178436279296875 66.41709899902344 57.32855987548828 94.16873931884766" stroke-width="2.0" fill="none" stroke="rgb(0, 0, 0)" stroke-opacity="1" stroke-linecap="round" stroke-linejoin="round"/>
    <path d="M 24.255638122558594 144.99366760253906 C 10.517333984375 110.72711944580078 25.7877140045166 145.6357879638672 8.471232414245605 142.92701721191406 C 11.871756553649902 156.5833282470703 15.616090774536133 148.3198699951172 9.455342292785645 147.4518585205078 C 34.88414001464844 151.38487243652344 22.85488510131836 150.97169494628906 17.434715270996094 126.65914916992188" stroke-width="2.0" fill="none" stroke="rgb(0, 0, 0)" stroke-opacity="1" stroke-linecap="round" stroke-linejoin="round"/>
    <path d="M 189.86941528320312 46.95271301269531 C 211.30682373046875 48.59090042114258 184.5438232421875 30.908836364746094 176.34104919433594 42.31561279296875 C 184.3649139404297 43.1924934387207 174.54039001464844 40.281551361083984 171.36947631835938 31.40184783935547" stroke-width="2.0" fill="none" stroke="rgb(0, 0, 0)" stroke-opacity="1" stroke-linecap="round" stroke-linejoin="round"/>
    <path d="M 157.07290649414062 29.3756103515625 C 125.24958038330078 18.29209327697754 126.06245422363281 18.737594604492188 120.24864196777344 14.597883224487305" stroke-width="2.0" fill="none" stroke="rgb(0, 0, 0)" stroke-opacity="1" stroke-linecap="round" stroke-linejoin="round"/>
    <path d="M 84.80523681640625 234.59103393554688 C 67.56861877441406 216.51629638671875 57.67827224731445 213.06814575195312 77.89002990722656 224.84547424316406 C 109.74894714355469 206.6614990234375 70.98464965820312 217.38128662109375 66.51976776123047 214.52142333984375 C 62.01919174194336 212.6991729736328 87.00637817382812 215.58871459960938 73.06619262695312 194.81478881835938" stroke-width="2.0" fill="none" stroke="rgb(0, 0, 0)" stroke-opacity="1" stroke-linecap="round" stroke-linejoin="round"/>
    <path d="M 52.77622985839844 -2.2883107662200928 C 75.01216888427734 14.18846321105957 61.1864013671875 15.794984817504883 51.55597686767578 4.299434661865234 C 55.290000915527344 18.897422790527344 44.257347106933594 22.509693145751953 32.63806915283203 10.054082870483398 C 22.49590301513672 -34.87693786621094 19.18048858642578 16.040332794189453 30.964195251464844 20.900211334228516" stroke-width="2.0" fill="none" stroke="rgb(0, 0, 0)" stroke-opacity="1" stroke-linecap="round" stroke-linejoin="round"/>
    <path d="M 154.7847137451172 140.19056701660156 C 156.98220825195312 125.5513687133789 138.60159301757812 102.28060150146484 158.6683807373047 112.54054260253906 C 161.74063110351562 114.66960906982422 169.28744506835938 110.53417205810547 154.4921112060547 111.11849212646484" stroke-width="2.0" fill="none" stroke="rgb(0, 0, 0)" stroke-opacity="1" stroke-linecap="round" stroke-linejoin="round"/>
    <path d="M 22.01929473876953 223.22930908203125 C 58.26133728027344 219.27813720703125 -3.868889331817627 176.81375122070312 43.223358154296875 202.00982666015625" stroke-width="2.0" fill="none" stroke="rgb(0, 0, 0)" stroke-opacity="1" stroke-linecap="round" stroke-linejoin="round"/>
    <path d="M 168.99786376953125 55.985382080078125 C 165.78297424316406 60.69490051269531 172.65296936035156 71.51792907714844 151.63912963867188 68.48028564453125" stroke-width="2.0" fill="none" stroke="rgb(0, 0, 0)" stroke-opacity="1" stroke-linecap="round" stroke-linejoin="round"/>
    <path d="M 140.03421020507812 140.1006317138672 C 140.60704040527344 143.74232482910156 140.52401733398438 158.1851348876953 143.01768493652344 142.2622528076172" stroke-width="2.0" fill="none" stroke="rgb(0, 0, 0)" stroke-opacity="1" stroke-linecap="round" stroke-linejoin="round"/>
    <path d="M 121.4593276977539 15.378979682922363 C 130.5509796142578 20.417631149291992 135.89743041992188 21.584230422973633 116.2734146118164 13.67499828338623 C 137.75961303710938 23.75067138671875 148.99569702148438 13.178781509399414 128.31658935546875 4.501832962036133 C 137.8179931640625 26.111297607421875 108.35374450683594 -6.415492057800293 130.88900756835938 -12.383177757263184" stroke-width="2.0" fill="none" stroke="rgb(0, 0, 0)" stroke-opacity="1" stroke-linecap="round" stroke-linejoin="round"/>
    <path d="M 158.2464141845703 28.73612403869629 C 157.34373474121094 25.30864715576172 149.21746826171875 9.460556983947754 161.96849060058594 13.925132751464844" stroke-width="2.0" fill="none" stroke="rgb(0, 0, 0)" stroke-opacity="1" stroke-linecap="round" stroke-linejoin="round"/>
    <path d="M 45.16422653198242 123.97294616699219 C 53.529537200927734 148.02227783203125 33.358543395996094 144.2305450439453 40.659976959228516 144.1424560546875" stroke-width="2.0" fill="none" stroke="rgb(0, 0, 0)" stroke-opacity="1" stroke-linecap="round" stroke-linejoin="round"/>
    <path d="M 105.15248107910156 15.897102355957031 C 82.09616088867188 18.930397033691406 92.46051025390625 25.39792251586914 104.65866088867188 46.76479721069336 C 103.39389038085938 50.99333572387695 95.81437683105469 39.41292953491211 99.97842407226562 60.94767379760742 C 93.89619445800781 48.36759567260742 123.11967468261719 30.84679412841797 83.41210174560547 33.06547546386719" stroke-width="2.0" fill="none" stroke="rgb(0, 0, 0)" stroke-opacity="1" stroke-linecap="round" stroke-linejoin="round"/>
    <path d="M 127.55945587158203 179.26608276367188 C 123.591796875 189.38497924804688 130.2452392578125 169.86158752441406 102.16393280029297 176.2472686767578 C 135.75706481933594 183.8223876953125 109.86299896240234 200.31451416015625 128.89744567871094 196.5443878173828 C 134.09353637695312 188.99420166015625 129.356689453125 193.356201171875 126.97535705566406 185.8135986328125" stroke-width="2.0" fill="none" stroke="rgb(0, 0, 0)" stroke-opacity="1" stroke-linecap="round" stroke-linejoin="round"/>
    <path d="M 147.51388549804688 64.62313842773438 C 154.02825927734375 96.17205047607422 116.78231048583984 59.75440216064453 146.71653747558594 95.94642639160156" stroke-width="2.0" fill="none" stroke="rgb(0, 0, 0)" stroke-opacity="1" stroke-linecap="round" stroke-linejoin="round"/>
    <path d="M 60.159488677978516 38.58543395996094 C 83.48098754882812 42.45853042602539 64.63630676269531 22.167869567871094 75.232177734375 26.697643280029297 C 63.61231994628906 20.19590950012207 50.29060745239258 11.620640754699707 64.10089111328125 29.1065673828125" stroke-width="2.0" fill="none" stroke="rgb(0, 0, 0)" stroke-opacity="1" stroke-linecap="round" stroke-linejoin="round"/>
    <path d="M 163.7076416015625 157.71693420410156 C 166.9040985107422 180.9386749267578 149.0984344482422 165.49269104003906 149.2232208251953 169.46255493164062" stroke-width="2.0" fill="none" stroke="rgb(0, 0, 0)" stroke-opacity="1" stroke-linecap="round" stroke-linejoin="round"/>
    <path d="M 217.4086456298828 139.98062133789062 C 212.3893280029297 122.86781311035156 240.13436889648438 133.0399169921875 211.70004272460938 132.3693389892578 C 199.23583984375 128.04080200195312 200.05218505859375 110.82062530517578 211.03977966308594 115.39961242675781" stroke-width="2.0" fill="none" stroke="rgb(0, 0, 0)" stroke-opacity="1" stroke-linecap="round" stroke-linejoin="round"/>
    <path d="M 149.8740692138672 171.62783813476562 C 170.97874450683594 188.92710876464844 135.19886779785156 194.4669189453125 157.5355224609375 203.47340393066406 C 151.07814025878906 233.11502075195312 149.916748046875 200.66043090820312 129.52113342285156 228.37197875976562" stroke-width="2.0" fill="none" stroke="rgb(0, 0, 0)" stroke-opacity="1" stroke-linecap="round" stroke-linejoin="round"/>
    <path d="M 59.09987258911133 130.55380249023438 C 78.74394226074219 146.914306640625 54.40319061279297 149.2784423828125 65.08629608154297 140.4271240234375 C 17.70956039428711 150.85891723632812 33.710994720458984 135.40428161621094 19.570615768432617 130.98072814941406 C 36.657310485839844 136.37745666503906 26.110082626342773 140.5661163330078 38.17927932739258 133.93194580078125" stroke-width="2.0" fill="none" stroke="rgb(0, 0, 0)" stroke-opacity="1" stroke-linecap="round" stroke-linejoin="round"/>
    <path d="M 102.51012420654297 109.30938720703125 C 105.92046356201172 119.57723236083984 104.61456298828125 94.14958953857422 103.4006118774414 109.74092864990234 C 103.07276916503906 120.76445770263672 115.84932708740234 107.49647521972656 125.11095428466797 119.06742858886719 C 122.41512298583984 122.05297088623047 117.3828125 111.6210708618164 121.8410873413086 118.15300750732422" stroke-width="2.0" fill="none" stroke="rgb(0, 0, 0)" stroke-opacity="1" stroke-linecap="round" stroke-linejoin="round"/>
    <path d="M 69.48094177246094 54.00144577026367 C 65.68006134033203 52.87852096557617 68.50411987304688 59.03501892089844 65.72260284423828 49.397178649902344" stroke-width="2.0" fill="none" stroke="rgb(0, 0, 0)" stroke-opacity="1" stroke-linecap="round" stroke-linejoin="round"/>
    <path d="M 69.2872085571289 204.24066162109375 C 62.558799743652344 210.23751831054688 52.0561408996582 196.98829650878906 59.11787033081055 221.40550231933594 C 33.786354064941406 202.88436889648438 37.01024627685547 223.75140380859375 59.062435150146484 225.59439086914062" stroke-width="2.0" fill="none" stroke="rgb(0, 0, 0)" stroke-opacity="1" stroke-linecap="round" stroke-linejoin="round"/>
    <path d="M 204.94212341308594 142.7006072998047 C 208.56346130371094 158.9057159423828 173.6018829345703 123.64710235595703 196.4346923828125 128.77059936523438 C 210.52920532226562 151.43421936035156 207.87875366210938 117.96424865722656 223.4147491455078 176.32110595703125" stroke-width="2.0" fill="none" stroke="rgb(0, 0, 0)" stroke-opacity="1" stroke-linecap="round" stroke-linejoin="round"/>
    <path d="M 118.86783599853516 47.868324279785156 C 87.21369934082031 52.31698989868164 113.3584213256836 33.004920959472656 101.4332046508789 49.030662536621094 C 97.33393096923828 54.25727081298828 102.74918365478516 44.91981887817383 118.79908752441406 50.34542465209961 C 98.83641815185547 45.114356994628906 113.80026245117188 64.69457244873047 125.66840362548828 58.586063385009766" stroke-width="2.0" fill="none" stroke="rgb(0, 0, 0)" stroke-opacity="1" stroke-linecap="round" stroke-linejoin="round"/>
    <path d="M 223.02810668945312 103.85246276855469 C 222.2454833984375 134.0704345703125 202.228759765625 112.93962097167969 198.96728515625 112.00109100341797" stroke-width="2.0" fill="none" stroke="rgb(0, 0, 0)" stroke-opacity="1" stroke-linecap="round" stroke-linejoin="round"/>
    <path d="M 160.9578399658203 181.7440948486328 C 155.6162872314453 208.947509765625 174.78814697265625 177.92596435546875 158.0344696044922 234.73385620117188 C 160.11744689941406 209.6014862060547 175.93203735351562 196.52593994140625 151.75636291503906 199.0892791748047" stroke-width="2.0" fill="none" stroke="rgb(0, 0, 0)" stroke-opacity="1" stroke-linecap="round" stroke-linejoin="round"/>
    <path d="M 59.86361312866211 40.40992736816406 C 90.39791107177734 45.37870788574219 85.87385559082031 46.303184509277344 59.19706726074219 40.01118850708008" stroke-width="2.0" fill="none" stroke="rgb(0, 0, 0)" stroke-opacity="1" stroke-linecap="round" stroke-linejoin="round"/>
    <path d="M 150.05320739746094 44.58287811279297 C 141.18849182128906 48.986202239990234 181.3478546142578 84.16886901855469 152.93618774414062 47.784461975097656" stroke-width="2.0" fill="none" stroke="rgb(0, 0, 0)" stroke-opacity="1" stroke-linecap="round" stroke-linejoin="round"/>
    <path d="M 42.113853454589844 116.93083953857422 C 70.1596908569336 127.0089340209961 39.56077575683594 93.10502624511719 78.13246154785156 110.77510833740234 C 50.267311096191406 120.17374420166016 87.88297271728516 116.05281066894531 81.2048568725586 117.25785827636719 C 88.58078002929688 118.95562744140625 80.4217758178711 86.61119079589844 93.22225952148438 122.02638244628906" stroke-width="2.0" fill="none" stroke="rgb(0, 0, 0)" stroke-opacity="1" stroke-linecap="round" stroke-linejoin="round"/>
    <path d="M 61.56231689453125 123.39102935791016 C 41.413307189941406 129.71389770507812 55.00270080566406 119.80979919433594 48.39530944824219 149.95419311523438 C 27.333181381225586 145.39898681640625 46.30217742919922 166.5645751953125 61.90298080444336 167.80364990234375" stroke-width="2.0" fill="none" stroke="rgb(0, 0, 0)" stroke-opacity="1" stroke-linecap="round" stroke-linejoin="round"/>
    <path d="M 23.908607482910156 116.33285522460938 C 26.012439727783203 113.96180725097656 24.43767547607422 99.36509704589844 26.095760345458984 105.9517593383789" stroke-width="2.0" fill="none" stroke="rgb(0, 0, 0)" stroke-opacity="1" stroke-linecap="round" stroke-linejoin="round"/>
    <path d="M 124.99568939208984 58.21924591064453 C 140.5511932373047 44.89744567871094 122.86797332763672 20.925989151000977 142.64581298828125 52.55199432373047" stroke-width="2.0" fill="none" stroke="rgb(0, 0, 0)" stroke-opacity="1" stroke-linecap="round" stroke-linejoin="round"/>
    <path d="M 45.10453414916992 202.37477111816406 C 34.49437713623047 175.23793029785156 65.99571990966797 195.58900451660156 55.38099670410156 190.80567932128906 C 67.3094253540039 196.5286407470703 61.324440002441406 161.31285095214844 61.538692474365234 186.91421508789062 C 58.99524688720703 197.83804321289062 64.03141021728516 177.87979125976562 60.82197189331055 189.14051818847656" stroke-width="2.0" fill="none" stroke="rgb(0, 0, 0)" stroke-opacity="1" stroke-linecap="round" stroke-linejoin="round"/>
    <path d="M 79.95036315917969 144.81007385253906 C 96.97798919677734 143.46987915039062 90.01294708251953 151.31321716308594 91.92753601074219 143.59173583984375" stroke-width="2.0" fill="none" stroke="rgb(0, 0, 0)" stroke-opacity="1" stroke-linecap="round" stroke-linejoin="round"/>
    <path d="M 210.14463806152344 19.334455490112305 C 241.90911865234375 16.65425682067871 216.38882446289062 43.39030456542969 213.78347778320312 31.733652114868164 C 199.49415588378906 67.10709381103516 218.53724670410156 51.62773513793945 215.5008544921875 26.72993278503418 C 212.56289672851562 40.836605072021484 184.21112060546875 45.92287063598633 188.42543029785156 22.019821166992188" stroke-width="2.0" fill="none" stroke="rgb(0, 0, 0)" stroke-opacity="1" stroke-linecap="round" stroke-linejoin="round"/>
    <path d="M 132.3871307373047 131.51805114746094 C 155.39752197265625 140.37344360351562 140.86788940429688 114.93573760986328 137.8701629638672 107.80575561523438" stroke-width="2.0" fill="none" stroke="rgb(0, 0, 0)" stroke-opacity="1" stroke-linecap="round" stroke-linejoin="round"/>
    <path d="M 67.78974151611328 -1.3373792171478271 C 82.01332092285156 -3.593564748764038 79.84423065185547 -19.028810501098633 75.61571502685547 2.075453281402588 C 82.47451782226562 17.21669578552246 80.67375183105469 22.9703369140625 57.320064544677734 16.127643585205078 C 73.35074615478516 27.035083770751953 86.25810241699219 32.561466217041016 85.85505676269531 13.684637069702148" stroke-width="2.0" fill="none" stroke="rgb(0, 0, 0)" stroke-opacity="1" stroke-linecap="round" stroke-linejoin="round"/>
    <path d="M 178.9500274658203 68.6842041015625 C 176.99700927734375 77.9454345703125 182.17381286621094 83.10391998291016 179.08139038085938 75.33169555664062 C 185.17897033691406 93.55717468261719 163.32583618164062 92.03238677978516 164.98468017578125 89.20912170410156" stroke-width="2.0" fill="none" stroke="rgb(0, 0, 0)" stroke-opacity="1" stroke-linecap="round" stroke-linejoin="round"/>
    <path d="M 90.04341888427734 85.74415588378906 C 90.52062225341797 105.98043823242188 80.4683609008789 101.03042602539062 68.18312072753906 93.71466827392578 C 66.29120635986328 86.51487731933594 86.81977844238281 105.56097412109375 81.99578094482422 78.83293151855469" stroke-width="2.0" fill="none" stroke="rgb(0, 0, 0)" stroke-opacity="1" stroke-linecap="round" stroke-linejoin="round"/>
    <path d="M 64.9344482421875 111.99767303466797 C 63.515411376953125 111.34548950195312 58.08777618408203 134.6436309814453 89.23155212402344 138.6909942626953 C 78.59382629394531 142.82476806640625 87.14418029785156 138.7514190673828 63.04021453857422 124.98253631591797 C 95.27546691894531 145.5201873779297 73.18472290039062 122.87010192871094 68.36587524414062 119.85283660888672" stroke-width="2.0" fill="none" stroke="rgb(0, 0, 0)" stroke-opacity="1" stroke-linecap="round" stroke-linejoin="round"/>
    <path d="M 213.20176696777344 52.12508010864258 C 218.7209930419922 86.35277557373047 195.0769805908203 49.17497634887695 195.08258056640625 69.5747299194336 C 192.25701904296875 82.97383117675781 175.50582885742188 65.37419891357422 181.1490478515625 74.37565612792969 C 193.63931274414062 91.02288818359375 211.17929077148438 70.84280395507812 198.75755310058594 84.09519958496094" stroke-width="2.0" fill="none" stroke="rgb(0, 0, 0)" stroke-opacity="1" stroke-linecap="round" stroke-linejoin="round"/>
    <path d="M 12.129859924316406 165.76405334472656 C 37.6651725769043 173.00779724121094 18.6556453704834 148.0388946533203 39.010528564453125 173.620849609375" stroke-width="2.0" fill="none" stroke="rgb(0, 0, 0)" stroke-opacity="1" stroke-linecap="round" stroke-linejoin="round"/>
    <path d="M 227.3054962158203 33.847660064697266 C 189.5654754638672 40.48748779296875 206.6175079345703 29.170778274536133 200.57359313964844 54.026519775390625 C 213.2717742919922 61.9290657043457 211.43800354003906 48.15042495727539 210.50918579101562 56.126949310302734" stroke-width="2.0" fill="none" stroke="rgb(0, 0, 0)" stroke-opacity="1" stroke-linecap="round" stroke-linejoin="round"/>
    <path d="M 229.16822814941406 101.14176940917969 C 240.92733764648438 114.50350952148438 200.09869384765625 101.88176727294922 225.055908203125 105.11415100097656" stroke-width="2.0" fill="none" stroke="rgb(0, 0, 0)" stroke-opacity="1" stroke-linecap="round" stroke-linejoin="round"/>
    <path d="M 176.0566864013672 7.4293646812438965 C 191.05662536621094 3.242097854614258 187.78732299804688 24.02183723449707 197.8186492919922 14.688730239868164 C 189.7947998046875 -12.19105339050293 157.15902709960938 -12.41723918914795 136.72137451171875 -10.572916984558105 C 158.1855926513672 -5.516308307647705 178.51663208007812 -13.692366600036621 178.49880981445312 -8.450329780578613" stroke-width="2.0" fill="none" stroke="rgb(0, 0, 0)" stroke-opacity="1" stroke-linecap="round" stroke-linejoin="round"/>
    <path d="M 112.09192657470703 76.69300842285156 C 127.97364807128906 76.82137298583984 108.26014709472656 53.93435287475586 127.7542495727539 59.52921676635742 C 130.5115203857422 52.133968353271484 117.31543731689453 66.05200958251953 108.99423217773438 47.12134552001953 C 122.36408233642578 55.02073287963867 123.54888916015625 52.714900970458984 126.84803009033203 32.95164108276367" stroke-width="2.0" fill="none" stroke="rgb(0, 0, 0)" stroke-opacity="1" stroke-linecap="round" stroke-linejoin="round"/>
    <path d="M 23.307645797729492 183.03274536132812 C 6.512458801269531 153.52572631835938 26.500659942626953 177.77732849121094 17.919235229492188 149.56134033203125 C 7.16515588760376 147.46665954589844 10.008711814880371 143.6449737548828 10.782052993774414 157.83616638183594" stroke-width="2.0" fill="none" stroke="rgb(0, 0, 0)" stroke-opacity="1" stroke-linecap="round" stroke-linejoin="round"/>
    <path d="M 38.62897872924805 103.26471710205078 C 21.741662979125977 81.3998794555664 30.990489959716797 99.9102783203125 11.566670417785645 93.70382690429688 C 2.9595963954925537 80.29435729980469 10.497570991516113 66.06930541992188 9.942317962646484 140.34718322753906 C 13.329937934875488 101.24236297607422 6.398313999176025 96.79373931884766 -5.665018081665039 117.77568817138672" stroke-width="2.0" fill="none" stroke="rgb(0, 0, 0)" stroke-opacity="1" stroke-linecap="round" stroke-linejoin="round"/>
    <path d="M 55.50732421875 75.5062484741211 C 48.060813903808594 67.31130981445312 83.61415100097656 83.68537139892578 77.17127990722656 90.97044372558594 C 80.86387634277344 87.6736068725586 64.26616668701172 82.96261596679688 66.68838500976562 65.7169189453125 C 71.66641235351562 60.26697540283203 80.81161499023438 84.25643920898438 86.71733856201172 56.20302963256836" stroke-width="2.0" fill="none" stroke="rgb(0, 0, 0)" stroke-opacity="1" stroke-linecap="round" stroke-linejoin="round"/>
    <path d="M 205.58863830566406 30.055452346801758 C 200.58360290527344 30.834442138671875 181.87518310546875 18.76007843017578 202.3347930908203 36.57090759277344 C 193.19775390625 27.747970581054688 204.76409912109375 40.40985107421875 208.9604034423828 37.04014587402344" stroke-width="2.0" fill="none" stroke="rgb(0, 0, 0)" stroke-opacity="1" stroke-linecap="round" stroke-linejoin="round"/>
    <path d="M 186.41473388671875 80.71651458740234 C 184.85096740722656 96.4527816772461 183.18626403808594 95.92578887939453 162.52825927734375 95.57202911376953 C 195.4003448486328 89.99098205566406 185.85768127441406 113.86751556396484 205.32359313964844 103.30343627929688" stroke-width="2.0" fill="none" stroke="rgb(0, 0, 0)" stroke-opacity="1" stroke-linecap="round" stroke-linejoin="round"/>
    <path d="M 229.6063690185547 169.76187133789062 C 227.7680206298828 154.2622833251953 243.74388122558594 155.42005920410156 245.04319763183594 168.14866638183594 C 239.59242248535156 154.63792419433594 246.0752716064453 150.2008056640625 253.4871063232422 139.12591552734375 C 248.8551788330078 138.41905212402344 246.6580810546875 129.52810668945312 257.5552673339844 131.38919067382812" stroke-width="2.0" fill="none" stroke="rgb(0, 0, 0)" stroke-opacity="1" stroke-linecap="round" stroke-linejoin="round"/>
    <path d="M 110.81197357177734 50.56525421142578 C 133.0166778564453 42.77155303955078 115.17537689208984 23.790407180786133 109.28938293457031 47.5389404296875 C 116.83407592773438 21.77638053894043 97.3788833618164 32.015480041503906 99.04317474365234 22.970439910888672" stroke-width="2.0" fill="none" stroke="rgb(0, 0, 0)" stroke-opacity="1" stroke-linecap="round" stroke-linejoin="round"/>
    <path d="M 90.75472259521484 205.955810546875 C 104.09777069091797 231.0894012451172 90.81377410888672 214.61997985839844 74.1489028930664 229.34622192382812" stroke-width="2.0" fill="none" stroke="rgb(0, 0, 0)" stroke-opacity="1" stroke-linecap="round" stroke-linejoin="round"/>
    <path d="M 106.29222869873047 19.160356521606445 C 103.85649108886719 -3.046908140182495 126.2157211303711 9.58658218383789 116.18817901611328 15.397237777709961 C 121.20751953125 45.478511810302734 126.00889587402344 44.271881103515625 112.35506439208984 49.202396392822266 C 108.81632995605469 54.18310546875 96.48390197753906 49.4979133605957 110.91039276123047 65.89208984375" stroke-width="2.0" fill="none" stroke="rgb(0, 0, 0)" stroke-opacity="1" stroke-linecap="round" stroke-linejoin="round"/>
    <path d="M 180.5564422607422 96.1304931640625 C 164.7826385498047 91.8961181640625 179.15269470214844 97.40082550048828 188.8469696044922 97.08563232421875 C 198.7145538330078 98.79846954345703 181.44357299804688 84.40109252929688 200.42587280273438 83.88093566894531" stroke-width="2.0" fill="none" stroke="rgb(0, 0, 0)" stroke-opacity="1" stroke-linecap="round" stroke-linejoin="round"/>
    <path d="M 174.10997009277344 156.01272583007812 C 161.25546264648438 132.39373779296875 170.88780212402344 142.0465850830078 167.30006408691406 139.4461212158203 C 192.57083129882812 154.10511779785156 189.846435546875 143.18052673339844 188.1209259033203 128.9681854248047" stroke-width="2.0" fill="none" stroke="rgb(0, 0, 0)" stroke-opacity="1" stroke-linecap="round" stroke-linejoin="round"/>
    <path d="M 126.73029327392578 83.08699798583984 C 112.22575378417969 88.04278564453125 111.48839569091797 71.65274810791016 114.26239013671875 94.50140380859375 C 106.79270935058594 97.31938934326172 104.9316177368164 88.14196014404297 96.37177276611328 91.56303405761719 C 94.55683898925781 95.7507553100586 103.004150390625 109.85250854492188 90.5255126953125 105.24771881103516" stroke-width="2.0" fill="none" stroke="rgb(0, 0, 0)" stroke-opacity="1" stroke-linecap="round" stroke-linejoin="round"/>
    <path d="M 34.753639221191406 103.19464874267578 C 45.375579833984375 106.07891845703125 35.75328063964844 86.66765594482422 27.021156311035156 90.32342529296875 C 39.38062286376953 99.67529296875 41.87311553955078 118.20565032958984 44.182342529296875 89.91761779785156 C 42.97958755493164 88.76316833496094 35.68328857421875 87.9290771484375 36.59120559692383 79.93685150146484" stroke-width="2.0" fill="none" stroke="rgb(0, 0, 0)" stroke-opacity="1" stroke-linecap="round" stroke-linejoin="round"/>
    <path d="M 25.16318130493164 104.0561752319336 C 24.941085815429688 98.25859832763672 23.732990264892578 103.0320816040039 31.239757537841797 116.61363983154297 C 21.758899688720703 97.42664337158203 23.97455406188965 104.23087310791016 31.752769470214844 116.17459106445312" stroke-width="2.0" fill="none" stroke="rgb(0, 0, 0)" stroke-opacity="1" stroke-linecap="round" stroke-linejoin="round"/>
    <path d="M 75.39671325683594 92.120361328125 C 66.42522430419922 90.86959075927734 64.2732162475586 95.52108764648438 76.66390991210938 108.42884063720703" stroke-width="2.0" fill="none" stroke="rgb(0, 0, 0)" stroke-opacity="1" stroke-linecap="round" stroke-linejoin="round"/>
    <path d="M 181.36721801757812 123.1103515625 C 182.6059112548828 146.69137573242188 173.278076171875 134.28543090820312 167.1407470703125 138.82887268066406" stroke-width="2.0" fill="none" stroke="rgb(0, 0, 0)" stroke-opacity="1" stroke-linecap="round" stroke-linejoin="round"/>
    <path d="M 91.96595001220703 206.0645751953125 C 115.54608917236328 214.1273651123047 94.15122985839844 166.74549865722656 116.61273193359375 210.6129150390625 C 91.04008483886719 208.96958923339844 104.66356658935547 224.9426727294922 135.00762939453125 231.79400634765625" stroke-width="2.0" fill="none" stroke="rgb(0, 0, 0)" stroke-opacity="1" stroke-linecap="round" stroke-linejoin="round"/>
    <path d="M 36.14931106567383 47.06217956542969 C 38.15425109863281 26.749221801757812 23.088651657104492 37.55422592163086 42.447113037109375 32.73203659057617 C 41.69993591308594 23.623685836791992 50.96189880371094 49.587677001953125 61.35707473754883 42.3337287902832" stroke-width="2.0" fill="none" stroke="rgb(0, 0, 0)" stroke-opacity="1" stroke-linecap="round" stroke-linejoin="round"/>
    <path d="M 185.72618103027344 32.93270492553711 C 171.16012573242188 42.779293060302734 176.3126220703125 38.22183609008789 187.8720245361328 37.71487808227539" stroke-width="2.0" fill="none" stroke="rgb(0, 0, 0)" stroke-opacity="1" stroke-linecap="round" stroke-linejoin="round"/>
    <path d="M 38.68161392211914 115.17788696289062 C 28.953088760375977 102.84259033203125 37.16017532348633 115.92669677734375 43.82935333251953 113.34593200683594" stroke-width="2.0" fill="none" stroke="rgb(0, 0, 0)" stroke-opacity="1" stroke-linecap="round" stroke-linejoin="round"/>
    <path d="M 5.891568183898926 158.21875 C 16.23516273498535 188.3433837890625 -1.1820783615112305 175.10708618164062 -25.026735305786133 159.14646911621094 C -27.29987144470215 180.68601989746094 -31.885971069335938 176.51986694335938 -24.864299774169922 181.81838989257812 C -24.994319915771484 182.68887329101562 -31.122211456298828 182.53662109375 -27.973461151123047 181.52783203125" stroke-width="2.0" fill="none" stroke="rgb(0, 0, 0)" stroke-opacity="1" stroke-linecap="round" stroke-linejoin="round"/>
    <path d="M 90.65520477294922 85.7906265258789 C 105.31969451904297 88.00826263427734 107.52049255371094 78.31295776367188 93.78327178955078 68.63289642333984" stroke-width="2.0" fill="none" stroke="rgb(0, 0, 0)" stroke-opacity="1" stroke-linecap="round" stroke-linejoin="round"/>
    <path d="M 156.30419921875 71.85941314697266 C 152.89346313476562 98.00148010253906 170.39852905273438 72.51365661621094 164.00674438476562 112.61338806152344 C 138.6658935546875 99.9302749633789 148.00135803222656 121.07514190673828 157.12550354003906 127.73100280761719" stroke-width="2.0" fill="none" stroke="rgb(0, 0, 0)" stroke-opacity="1" stroke-linecap="round" stroke-linejoin="round"/>
    <path d="M 118.06640625 31.712831497192383 C 103.12017822265625 3.4496138095855713 121.17198181152344 7.256765365600586 143.8242950439453 39.11232376098633 C 158.23580932617188 -12.273125648498535 131.10813903808594 7.893792152404785 120.96343231201172 -11.763833999633789 C 120.85446166992188 -4.29918909072876 121.51802825927734 3.2695865631103516 128.95787048339844 -8.050590515136719" stroke-width="2.0" fill="none" stroke="rgb(0, 0, 0)" stroke-opacity="1" stroke-linecap="round" stroke-linejoin="round"/>
    <path d="M 191.34014892578125 23.455339431762695 C 206.41253662109375 24.600177764892578 201.1524200439453 10.079795837402344 201.47329711914062 2.511390447616577 C 201.3697052001953 8.546051025390625 227.28326416015625 23.212663650512695 219.5604705810547 -3.114814281463623" stroke-width="2.0" fill="none" stroke="rgb(0, 0, 0)" stroke-opacity="1" stroke-linecap="round" stroke-linejoin="round"/>
    <path d="M 206.34132385253906 203.64939880371094 C 220.79281616210938 230.891845703125 228.95333862304688 227.01283264160156 241.3603515625 226.85928344726562 C 220.09014892578125 243.66307067871094 217.9089813232422 239.9169921875 186.95779418945312 249.69923400878906 C 199.29798889160156 229.85110473632812 198.59661865234375 215.19073486328125 211.72633361816406 228.117431640625" stroke-width="2.0" fill="none" stroke="rgb(0, 0, 0)" stroke-opacity="1" stroke-linecap="round" stroke-linejoin="round"/>
    <path d="M 215.25802612304688 26.32177734375 C 208.35415649414062 50.754058837890625 221.139892578125 26.56338882446289 211.9112091064453 21.100852966308594" stroke-width="2.0" fill="none" stroke="rgb(0, 0, 0)" stroke-opacity="1" stroke-linecap="round" stroke-linejoin="round"/>
    <path d="M 67.60513305664062 179.43197631835938 C 64.79490661621094 156.61795043945312 78.78987884521484 162.93252563476562 83.63343048095703 170.739501953125" stroke-width="2.0" fill="none" stroke="rgb(0, 0, 0)" stroke-opacity="1" stroke-linecap="round" stroke-linejoin="round"/>
    <path d="M 58.46968078613281 148.888427734375 C 83.05821228027344 158.33859252929688 66.33265686035156 134.2852783203125 80.00565338134766 139.6239471435547" stroke-width="2.0" fill="none" stroke="rgb(0, 0, 0)" stroke-opacity="1" stroke-linecap="round" stroke-linejoin="round"/>
    <path d="M 192.5335235595703 17.109535217285156 C 179.96160888671875 15.571184158325195 183.85806274414062 7.956066131591797 180.4792022705078 29.159475326538086" stroke-width="2.0" fill="none" stroke="rgb(0, 0, 0)" stroke-opacity="1" stroke-linecap="round" stroke-linejoin="round"/>
    <path d="M 168.28160095214844 56.434112548828125 C 185.20213317871094 59.961063385009766 184.10064697265625 52.572296142578125 188.3796844482422 70.60110473632812 C 191.46832275390625 62.36688995361328 181.0048065185547 61.59128189086914 185.50714111328125 52.72605514526367" stroke-width="2.0" fill="none" stroke="rgb(0, 0, 0)" stroke-opacity="1" stroke-linecap="round" stroke-linejoin="round"/>
    <path d="M 9.031852722167969 58.96421813964844 C 9.853891372680664 82.93478393554688 14.989373207092285 72.6266098022461 -26.41120147705078 74.73249816894531 C -15.29520320892334 67.26866912841797 -14.441957473754883 64.7470932006836 -27.505840301513672 55.181827545166016 C 11.316190719604492 40.15869140625 11.975984573364258 60.62284469604492 9.002521514892578 34.7722282409668" stroke-width="2.0" fill="none" stroke="rgb(0, 0, 0)" stroke-opacity="1" stroke-linecap="round" stroke-linejoin="round"/>
    <path d="M 97.13638305664062 133.04054260253906 C 115.92330932617188 139.71395874023438 105.90354919433594 117.5201416015625 110.28157806396484 117.11720275878906" stroke-width="2.0" fill="none" stroke="rgb(0, 0, 0)" stroke-opacity="1" stroke-linecap="round" stroke-linejoin="round"/>
    <path d="M 7.155386924743652 200.30563354492188 C 11.719780921936035 241.52261352539062 10.794763565063477 214.99755859375 4.981799125671387 224.69696044921875 C 6.871354103088379 230.6256866455078 9.727916717529297 223.26576232910156 6.792102813720703 208.06678771972656 C -17.03301429748535 205.1503143310547 -6.103715419769287 230.12265014648438 -9.71569538116455 241.37655639648438" stroke-width="2.0" fill="none" stroke="rgb(0, 0, 0)" stroke-opacity="1" stroke-linecap="round" stroke-linejoin="round"/>
    <path d="M 188.3069305419922 194.63265991210938 C 185.78726196289062 205.98544311523438 167.15005493164062 188.6565704345703 180.67047119140625 212.60350036621094 C 192.32992553710938 226.78018188476562 170.85116577148438 224.09205627441406 163.24362182617188 233.54095458984375" stroke-width="2.0" fill="none" stroke="rgb(0, 0, 0)" stroke-opacity="1" stroke-linecap="round" stroke-linejoin="round"/>
    <path d="M 103.73588562011719 165.97793579101562 C 78.44676971435547 170.365478515625 72.69398498535156 140.3678436279297 87.72921752929688 145.2958526611328 C 99.60215759277344 152.62188720703125 91.77371978759766 138.3016357421875 99.41031646728516 148.3220672607422 C 88.42589569091797 134.04042053222656 98.41751861572266 132.68020629882812 104.50798034667969 130.47006225585938" stroke-width="2.0" fill="none" stroke="rgb(0, 0, 0)" stroke-opacity="1" stroke-linecap="round" stroke-linejoin="round"/>
    <path d="M 30.162757873535156 87.40451049804688 C 25.813785552978516 57.64902877807617 54.307186126708984 87.47726440429688 19.739608764648438 69.90206909179688" stroke-width="2.0" fill="none" stroke="rgb(0, 0, 0)" stroke-opacity="1" stroke-linecap="round" stroke-linejoin="round"/>
    <path d="M 90.40109252929688 165.39405822753906 C 95.7057876586914 179.8097686767578 80.85276794433594 182.90089416503906 76.20806884765625 169.73666381835938 C 79.57757568359375 174.99044799804688 99.60152435302734 185.67332458496094 86.9719009399414 163.09652709960938" stroke-width="2.0" fill="none" stroke="rgb(0, 0, 0)" stroke-opacity="1" stroke-linecap="round" stroke-linejoin="round"/>
    <path d="M 107.35499572753906 212.14208984375 C 142.5658416748047 229.79896545410156 110.6860122680664 193.35162353515625 135.3797149658203 212.8538055419922 C 161.36199951171875 205.93478393554688 141.06607055664062 220.3471221923828 128.05360412597656 208.40939331054688" stroke-width="2.0" fill="none" stroke="rgb(0, 0, 0)" stroke-opacity="1" stroke-linecap="round" stroke-linejoin="round"/>
    <path d="M 81.11808776855469 116.23149108886719 C 83.13185119628906 94.39584350585938 75.9571533203125 102.10954284667969 89.19576263427734 97.81857299804688" stroke-width="2.0" fill="none" stroke="rgb(0, 0, 0)" stroke-opacity="1" stroke-linecap="round" stroke-linejoin="round"/>
    <path d="M 94.58690643310547 125.39141845703125 C 97.88794708251953 124.52761840820312 95.79651641845703 114.6624526977539 98.84693145751953 117.47745513916016 C 93.6219711303711 114.26583099365234 107.40218353271484 128.3719024658203 87.17909240722656 125.90144348144531 C 84.921630859375 160.16726684570312 100.14373016357422 114.75203704833984 67.71574401855469 118.07876586914062" stroke-width="2.0" fill="none" stroke="rgb(0, 0, 0)" stroke-opacity="1" stroke-linecap="round" stroke-linejoin="round"/>
    <path d="M 47.107337951660156 13.785472869873047 C 35.03501892089844 6.240766525268555 28.904630661010742 -9.18052864074707 42.47380065917969 -5.887971878051758 C 49.318748474121094 13.384498596191406 66.35433197021484 16.639142990112305 67.3316650390625 8.28384780883789" stroke-width="2.0" fill="none" stroke="rgb(0, 0, 0)" stroke-opacity="1" stroke-linecap="round" stroke-linejoin="round"/>
    <path d="M 179.06423950195312 173.90176391601562 C 188.87307739257812 176.412841796875 190.1121826171875 175.5064697265625 192.46908569335938 165.97994995117188 C 186.7050018310547 147.92971801757812 173.38165283203125 141.98545837402344 186.07846069335938 170.1787567138672" stroke-width="2.0" fill="none" stroke="rgb(0, 0, 0)" stroke-opacity="1" stroke-linecap="round" stroke-linejoin="round"/>
    <path d="M 74.95765686035156 44.89326095581055 C 82.9959487915039 50.55272674560547 85.8239517211914 42.973514556884766 58.84294128417969 40.64401626586914 C 74.10944366455078 40.27781295776367 54.61233139038086 44.246498107910156 75.2367935180664 57.24004364013672" stroke-width="2.0" fill="none" stroke="rgb(0, 0, 0)" stroke-opacity="1" stroke-linecap="round" stroke-linejoin="round"/>
    <path d="M 210.36526489257812 172.4468536376953 C 207.59738159179688 170.8557586669922 182.47897338867188 149.6780548095703 209.0162811279297 154.08349609375 C 211.0633087158203 130.7989044189453 210.330322265625 143.65086364746094 227.81561279296875 143.84010314941406" stroke-width="2.0" fill="none" stroke="rgb(0, 0, 0)" stroke-opacity="1" stroke-linecap="round" stroke-linejoin="round"/>
    <path d="M 225.16732788085938 169.3109893798828 C 233.83773803710938 140.1852264404297 221.51080322265625 147.1118621826172 210.78402709960938 144.11911010742188 C 252.7574462890625 149.65127563476562 215.87026977539062 151.77040100097656 224.64422607421875 138.28890991210938 C 217.5155029296875 146.4132843017578 219.0860137939453 143.38108825683594 236.08251953125 144.72509765625" stroke-width="2.0" fill="none" stroke="rgb(0, 0, 0)" stroke-opacity="1" stroke-linecap="round" stroke-linejoin="round"/>
  </g>
</svg>
