<?xml version="1.0" ?>
<svg xmlns="http://www.w3.org/2000/svg" version="1.1" width="224" height="224">
  <defs/>
  <g>
    <path d="M 223.3231658935547 200.311279296875 C 199.2432861328125 138.8349609375 197.82858276367188 174.49322509765625 202.33502197265625 175.60914611816406 C 211.9564971923828 194.45401000976562 229.27291870117188 159.01083374023438 208.47177124023438 177.1890106201172" stroke-width="2.0" fill="none" stroke="rgb(0, 0, 0)" stroke-opacity="1" stroke-linecap="round" stroke-linejoin="round"/>
    <path d="M 223.1819305419922 143.49691772460938 C 218.00778198242188 179.83816528320312 208.1233367919922 194.8152313232422 202.50502014160156 180.7718048095703" stroke-width="2.0" fill="none" stroke="rgb(0, 0, 0)" stroke-opacity="1" stroke-linecap="round" stroke-linejoin="round"/>
    <path d="M 67.70844268798828 150.34254455566406 C 69.41049194335938 159.4952392578125 65.50721740722656 163.2435760498047 100.22046661376953 132.0502471923828" stroke-width="2.0" fill="none" stroke="rgb(0, 0, 0)" stroke-opacity="1" stroke-linecap="round" stroke-linejoin="round"/>
    <path d="M 10.680335998535156 230.24562072753906 C -12.560595512390137 237.1231231689453 12.437919616699219 217.90469360351562 39.52433776855469 179.7324981689453 C 25.597021102905273 186.59976196289062 72.68977355957031 199.42391967773438 60.96287536621094 205.08436584472656 C 63.83490753173828 239.12364196777344 27.632831573486328 209.78082275390625 77.20573425292969 225.61692810058594" stroke-width="2.0" fill="none" stroke="rgb(0, 0, 0)" stroke-opacity="1" stroke-linecap="round" stroke-linejoin="round"/>
    <path d="M 165.0384063720703 189.31338500976562 C 164.67581176757812 178.33056640625 182.2540283203125 189.67010498046875 168.38645935058594 196.51727294921875 C 174.74139404296875 207.9314727783203 185.19659423828125 204.73280334472656 174.81275939941406 205.69117736816406 C 158.8870849609375 189.39593505859375 171.9800262451172 189.22711181640625 169.98745727539062 195.57652282714844" stroke-width="2.0" fill="none" stroke="rgb(0, 0, 0)" stroke-opacity="1" stroke-linecap="round" stroke-linejoin="round"/>
    <path d="M 73.36248016357422 102.80712890625 C 65.53839874267578 83.80120849609375 70.33572387695312 69.10847473144531 76.91228485107422 110.02423858642578" stroke-width="2.0" fill="none" stroke="rgb(0, 0, 0)" stroke-opacity="1" stroke-linecap="round" stroke-linejoin="round"/>
    <path d="M 110.95935821533203 135.68441772460938 C 87.89569091796875 120.48356628417969 109.9031982421875 158.17266845703125 96.2135009765625 123.21302032470703 C 108.35739135742188 110.05693817138672 111.30987548828125 139.62757873535156 99.93037414550781 122.3619613647461" stroke-width="2.0" fill="none" stroke="rgb(0, 0, 0)" stroke-opacity="1" stroke-linecap="round" stroke-linejoin="round"/>
    <path d="M 174.22923278808594 203.0813446044922 C 135.99966430664062 169.92967224121094 147.45091247558594 174.38235473632812 161.08824157714844 191.48719787597656 C 145.6459197998047 169.0963134765625 126.23719024658203 166.91859436035156 132.98574829101562 154.14529418945312" stroke-width="2.0" fill="none" stroke="rgb(0, 0, 0)" stroke-opacity="1" stroke-linecap="round" stroke-linejoin="round"/>
    <path d="M 98.20423889160156 99.27603149414062 C 107.03880310058594 72.31702423095703 132.92213439941406 68.14604949951172 113.14195251464844 80.91578674316406 C 161.07981872558594 113.48345184326172 131.10533142089844 98.01834869384766 141.99636840820312 83.79070281982422 C 165.86534118652344 94.69277954101562 140.50189208984375 112.51671600341797 142.86288452148438 109.34437561035156" stroke-width="2.0" fill="none" stroke="rgb(0, 0, 0)" stroke-opacity="1" stroke-linecap="round" stroke-linejoin="round"/>
    <path d="M -0.4182169437408447 84.54164123535156 C 15.164002418518066 65.46597290039062 -2.2905619144439697 86.83454895019531 -3.563900947570801 87.03022003173828 C -6.525750160217285 114.09342956542969 -16.83850860595703 128.6719970703125 -8.489982604980469 90.27088928222656" stroke-width="2.0" fill="none" stroke="rgb(0, 0, 0)" stroke-opacity="1" stroke-linecap="round" stroke-linejoin="round"/>
    <path d="M 91.1115951538086 15.941344261169434 C 106.68446350097656 45.43889617919922 94.3139877319336 47.342979431152344 118.58601379394531 36.93269729614258 C 115.0545425415039 44.88581466674805 89.88491821289062 53.227684020996094 101.27745056152344 51.41098403930664" stroke-width="2.0" fill="none" stroke="rgb(0, 0, 0)" stroke-opacity="1" stroke-linecap="round" stroke-linejoin="round"/>
    <path d="M 51.035404205322266 133.6141815185547 C 66.26739501953125 147.86082458496094 47.45344161987305 170.57582092285156 45.31777572631836 131.2527313232422 C 61.04931640625 126.44462585449219 40.9133415222168 124.75167083740234 56.841129302978516 143.80075073242188 C 43.64859390258789 116.4259262084961 42.071205139160156 127.3122787475586 59.25592041015625 114.10602569580078" stroke-width="2.0" fill="none" stroke="rgb(0, 0, 0)" stroke-opacity="1" stroke-linecap="round" stroke-linejoin="round"/>
    <path d="M 135.5352325439453 36.06572723388672 C 106.58393096923828 62.34974670410156 86.76467895507812 54.885704040527344 108.6954345703125 67.81555938720703" stroke-width="2.0" fill="none" stroke="rgb(0, 0, 0)" stroke-opacity="1" stroke-linecap="round" stroke-linejoin="round"/>
    <path d="M 60.76130676269531 20.872478485107422 C 70.0833511352539 4.704402446746826 98.25025939941406 5.840939998626709 17.710451126098633 3.5921082496643066 C 66.14106750488281 15.739099502563477 88.90943908691406 1.7109241485595703 62.030609130859375 8.27601146697998" stroke-width="2.0" fill="none" stroke="rgb(0, 0, 0)" stroke-opacity="1" stroke-linecap="round" stroke-linejoin="round"/>
    <path d="M 166.58306884765625 109.23899841308594 C 164.8159942626953 121.15357971191406 179.11984252929688 110.22197723388672 156.97267150878906 130.47654724121094" stroke-width="2.0" fill="none" stroke="rgb(0, 0, 0)" stroke-opacity="1" stroke-linecap="round" stroke-linejoin="round"/>
    <path d="M 42.47251892089844 133.15501403808594 C 95.87538146972656 169.7112274169922 85.48847198486328 161.90689086914062 77.11843872070312 150.22535705566406 C 64.6063461303711 167.66403198242188 44.05758285522461 200.96316528320312 56.009315490722656 173.30320739746094" stroke-width="2.0" fill="none" stroke="rgb(0, 0, 0)" stroke-opacity="1" stroke-linecap="round" stroke-linejoin="round"/>
    <path d="M 120.58938598632812 3.2898106575012207 C 172.30270385742188 0.15570402145385742 180.4552764892578 9.428935050964355 189.59552001953125 -2.206688165664673 C 161.26171875 -17.305644989013672 169.20628356933594 -17.16893768310547 172.63726806640625 -26.281164169311523" stroke-width="2.0" fill="none" stroke="rgb(0, 0, 0)" stroke-opacity="1" stroke-linecap="round" stroke-linejoin="round"/>
    <path d="M 79.51620483398438 103.36759185791016 C 84.1120834350586 115.16294860839844 72.63134002685547 105.85013580322266 25.366188049316406 126.63833618164062 C 28.339385986328125 120.5291748046875 45.68842697143555 105.76901245117188 63.0810661315918 90.81012725830078" stroke-width="2.0" fill="none" stroke="rgb(0, 0, 0)" stroke-opacity="1" stroke-linecap="round" stroke-linejoin="round"/>
    <path d="M 229.7238311767578 122.05289459228516 C 235.4773406982422 123.56024932861328 232.78306579589844 106.62770080566406 223.15762329101562 114.36627960205078 C 214.2772674560547 77.57032012939453 200.1776580810547 94.64954376220703 196.740478515625 109.38575744628906" stroke-width="2.0" fill="none" stroke="rgb(0, 0, 0)" stroke-opacity="1" stroke-linecap="round" stroke-linejoin="round"/>
    <path d="M 45.16386413574219 10.30521297454834 C 15.961883544921875 5.342136383056641 18.88172149658203 7.9209980964660645 49.889617919921875 23.631364822387695" stroke-width="2.0" fill="none" stroke="rgb(0, 0, 0)" stroke-opacity="1" stroke-linecap="round" stroke-linejoin="round"/>
    <path d="M 10.492780685424805 113.02654266357422 C 5.529611587524414 130.81350708007812 35.56020736694336 146.3669891357422 3.7462399005889893 116.97628784179688 C -1.7707123756408691 143.27142333984375 4.950051784515381 108.8414535522461 -0.19501571357250214 112.04322814941406 C -8.185737609863281 81.44965362548828 0.6517711281776428 94.3917007446289 2.9485549926757812 102.94670104980469" stroke-width="2.0" fill="none" stroke="rgb(0, 0, 0)" stroke-opacity="1" stroke-linecap="round" stroke-linejoin="round"/>
    <path d="M 46.00181579589844 83.65574645996094 C 47.041114807128906 100.90752410888672 21.308990478515625 51.577369689941406 65.58802032470703 89.69961547851562 C 42.087196350097656 115.54080963134766 49.42156219482422 114.39141082763672 58.391090393066406 101.27479553222656 C 75.54634857177734 87.6882095336914 51.89153289794922 115.05945587158203 58.2507438659668 125.41656494140625" stroke-width="2.0" fill="none" stroke="rgb(0, 0, 0)" stroke-opacity="1" stroke-linecap="round" stroke-linejoin="round"/>
    <path d="M 84.29225158691406 110.98783874511719 C 80.05412292480469 95.74749755859375 95.6746597290039 85.51688385009766 95.43610382080078 106.60008239746094 C 56.55195236206055 117.71466064453125 46.830074310302734 121.9446029663086 59.97863006591797 102.43867492675781" stroke-width="2.0" fill="none" stroke="rgb(0, 0, 0)" stroke-opacity="1" stroke-linecap="round" stroke-linejoin="round"/>
    <path d="M 92.54803466796875 107.42774963378906 C 82.6884536743164 86.34886169433594 66.93128204345703 67.4065933227539 62.924957275390625 56.208900451660156" stroke-width="2.0" fill="none" stroke="rgb(0, 0, 0)" stroke-opacity="1" stroke-linecap="round" stroke-linejoin="round"/>
    <path d="M 86.15660858154297 210.2643585205078 C 102.0129165649414 214.50819396972656 89.03438568115234 219.09158325195312 95.80370330810547 215.83302307128906 C 108.2179183959961 182.64370727539062 93.06681060791016 204.5170135498047 100.28656005859375 207.69088745117188 C 81.32683563232422 207.30381774902344 91.89291381835938 192.05519104003906 95.06846618652344 200.9542694091797" stroke-width="2.0" fill="none" stroke="rgb(0, 0, 0)" stroke-opacity="1" stroke-linecap="round" stroke-linejoin="round"/>
    <path d="M 23.801544189453125 227.24037170410156 C -5.710697650909424 234.65362548828125 -4.5360236167907715 220.76719665527344 -15.99796199798584 223.50794982910156" stroke-width="2.0" fill="none" stroke="rgb(0, 0, 0)" stroke-opacity="1" stroke-linecap="round" stroke-linejoin="round"/>
    <path d="M 38.5295295715332 151.50180053710938 C 18.847698211669922 119.02232360839844 24.71392822265625 137.237548828125 0.06479588150978088 153.26307678222656 C 24.535139083862305 115.82174682617188 3.508172035217285 127.4404296875 -2.692167282104492 100.45103454589844" stroke-width="2.0" fill="none" stroke="rgb(0, 0, 0)" stroke-opacity="1" stroke-linecap="round" stroke-linejoin="round"/>
    <path d="M -7.707335948944092 170.16331481933594 C 11.307550430297852 144.46839904785156 16.85053825378418 143.44497680664062 44.3114013671875 123.15959930419922 C 24.948205947875977 136.92454528808594 18.157978057861328 111.78018188476562 30.840652465820312 119.60958099365234" stroke-width="2.0" fill="none" stroke="rgb(0, 0, 0)" stroke-opacity="1" stroke-linecap="round" stroke-linejoin="round"/>
    <path d="M 67.28317260742188 184.53570556640625 C 58.92426300048828 207.5653839111328 62.37473678588867 212.41831970214844 62.56999588012695 198.618896484375" stroke-width="2.0" fill="none" stroke="rgb(0, 0, 0)" stroke-opacity="1" stroke-linecap="round" stroke-linejoin="round"/>
    <path d="M 90.461181640625 139.923828125 C 59.828269958496094 125.45003509521484 78.27468872070312 126.7726821899414 89.53707122802734 141.15469360351562 C 78.581787109375 130.562744140625 100.97801971435547 137.79388427734375 77.15571594238281 147.73037719726562" stroke-width="2.0" fill="none" stroke="rgb(0, 0, 0)" stroke-opacity="1" stroke-linecap="round" stroke-linejoin="round"/>
    <path d="M 103.29898071289062 76.13740539550781 C 121.40697479248047 96.73527526855469 102.49544525146484 81.96920776367188 87.2138442993164 74.82766723632812 C 101.6090316772461 112.39295196533203 72.10809326171875 100.89501953125 88.7552719116211 79.12995147705078" stroke-width="2.0" fill="none" stroke="rgb(0, 0, 0)" stroke-opacity="1" stroke-linecap="round" stroke-linejoin="round"/>
    <path d="M 200.57470703125 187.93943786621094 C 180.10850524902344 221.7393341064453 169.47181701660156 222.38539123535156 176.23426818847656 197.358154296875" stroke-width="2.0" fill="none" stroke="rgb(0, 0, 0)" stroke-opacity="1" stroke-linecap="round" stroke-linejoin="round"/>
    <path d="M 210.20596313476562 218.3675079345703 C 234.64779663085938 236.20079040527344 220.5127716064453 229.83876037597656 213.54339599609375 212.90151977539062" stroke-width="2.0" fill="none" stroke="rgb(0, 0, 0)" stroke-opacity="1" stroke-linecap="round" stroke-linejoin="round"/>
    <path d="M 149.80654907226562 80.14801025390625 C 130.0941162109375 93.82481384277344 141.7080078125 99.27875518798828 134.1787109375 93.11383056640625" stroke-width="2.0" fill="none" stroke="rgb(0, 0, 0)" stroke-opacity="1" stroke-linecap="round" stroke-linejoin="round"/>
    <path d="M 124.58236694335938 88.15965270996094 C 113.53227996826172 78.15443420410156 81.56851959228516 65.43075561523438 97.93254089355469 65.38641357421875 C 133.14161682128906 27.356412887573242 128.12649536132812 43.192134857177734 112.67447662353516 37.273250579833984 C 115.0796127319336 32.58076477050781 101.60194396972656 19.638629913330078 116.54115295410156 32.93906784057617" stroke-width="2.0" fill="none" stroke="rgb(0, 0, 0)" stroke-opacity="1" stroke-linecap="round" stroke-linejoin="round"/>
    <path d="M 1.099772334098816 89.47338104248047 C 2.256566047668457 73.57441711425781 23.045143127441406 43.70478820800781 3.0529205799102783 68.88427734375 C 5.189042568206787 58.127193450927734 24.80847930908203 49.5172004699707 43.81801223754883 35.81436538696289 C 25.338424682617188 49.013336181640625 6.801849842071533 62.653289794921875 4.066163063049316 76.02989196777344" stroke-width="2.0" fill="none" stroke="rgb(0, 0, 0)" stroke-opacity="1" stroke-linecap="round" stroke-linejoin="round"/>
    <path d="M 158.7129364013672 138.67160034179688 C 178.28207397460938 120.92699432373047 173.3475799560547 133.14382934570312 155.9347381591797 142.83694458007812" stroke-width="2.0" fill="none" stroke="rgb(0, 0, 0)" stroke-opacity="1" stroke-linecap="round" stroke-linejoin="round"/>
    <path d="M 82.67597961425781 -3.824237585067749 C 80.14058685302734 1.75921630859375 81.75978088378906 -9.322068214416504 75.19660186767578 -3.3204565048217773 C 88.09925842285156 -8.531183242797852 85.47028350830078 -4.716087818145752 102.66035461425781 -2.7498464584350586 C 96.89558410644531 0.31009772419929504 76.90371704101562 6.829293727874756 56.92723846435547 -8.336812019348145" stroke-width="2.0" fill="none" stroke="rgb(0, 0, 0)" stroke-opacity="1" stroke-linecap="round" stroke-linejoin="round"/>
    <path d="M 177.6853485107422 206.4210205078125 C 180.38050842285156 228.1230926513672 182.8728790283203 176.5271759033203 186.12327575683594 190.52342224121094" stroke-width="2.0" fill="none" stroke="rgb(0, 0, 0)" stroke-opacity="1" stroke-linecap="round" stroke-linejoin="round"/>
    <path d="M 93.45466613769531 -13.503022193908691 C 104.46880340576172 13.023970603942871 112.48789978027344 41.10787582397461 122.27633666992188 34.49549102783203 C 119.71475219726562 42.95182418823242 90.29403686523438 51.252254486083984 103.23760223388672 52.07269287109375 C 134.15792846679688 38.723876953125 98.61228942871094 39.31206512451172 128.18777465820312 48.097496032714844" stroke-width="2.0" fill="none" stroke="rgb(0, 0, 0)" stroke-opacity="1" stroke-linecap="round" stroke-linejoin="round"/>
    <path d="M 175.003662109375 177.25613403320312 C 167.22662353515625 191.4686279296875 160.19967651367188 176.25656127929688 158.91790771484375 189.49618530273438" stroke-width="2.0" fill="none" stroke="rgb(0, 0, 0)" stroke-opacity="1" stroke-linecap="round" stroke-linejoin="round"/>
    <path d="M 112.93114471435547 18.71930503845215 C 113.80107116699219 51.07374954223633 162.40689086914062 33.237342834472656 136.2420196533203 14.662553787231445" stroke-width="2.0" fill="none" stroke="rgb(0, 0, 0)" stroke-opacity="1" stroke-linecap="round" stroke-linejoin="round"/>
    <path d="M 215.48916625976562 134.24612426757812 C 212.86000061035156 102.41154479980469 194.77963256835938 88.82270050048828 202.30340576171875 114.08544921875" stroke-width="2.0" fill="none" stroke="rgb(0, 0, 0)" stroke-opacity="1" stroke-linecap="round" stroke-linejoin="round"/>
    <path d="M 152.75286865234375 117.51151275634766 C 160.46463012695312 91.37323760986328 167.080810546875 134.12908935546875 165.25169372558594 114.78453826904297 C 111.03202819824219 96.67471313476562 149.05197143554688 136.02659606933594 117.91797637939453 113.73072052001953 C 159.75640869140625 138.14718627929688 128.6435546875 133.7115478515625 151.651123046875 110.12791442871094" stroke-width="2.0" fill="none" stroke="rgb(0, 0, 0)" stroke-opacity="1" stroke-linecap="round" stroke-linejoin="round"/>
    <path d="M 105.70195770263672 224.14306640625 C 69.26937866210938 214.03237915039062 92.61739349365234 187.8544158935547 86.27957916259766 197.91921997070312" stroke-width="2.0" fill="none" stroke="rgb(0, 0, 0)" stroke-opacity="1" stroke-linecap="round" stroke-linejoin="round"/>
    <path d="M 64.18586730957031 162.2069091796875 C 24.030258178710938 139.1328887939453 76.06546783447266 143.48452758789062 61.87017822265625 98.00665283203125 C 49.59137725830078 138.40390014648438 61.015872955322266 163.75872802734375 38.13674545288086 135.75265502929688" stroke-width="2.0" fill="none" stroke="rgb(0, 0, 0)" stroke-opacity="1" stroke-linecap="round" stroke-linejoin="round"/>
    <path d="M 20.032249450683594 -10.69717025756836 C 27.757150650024414 11.204524040222168 34.32794189453125 26.354717254638672 44.93525314331055 37.62604904174805 C 50.82654571533203 34.26101303100586 32.199005126953125 8.446752548217773 23.34531021118164 33.16120529174805 C 61.59675216674805 27.71630096435547 54.908111572265625 16.911243438720703 48.3415412902832 26.657306671142578" stroke-width="2.0" fill="none" stroke="rgb(0, 0, 0)" stroke-opacity="1" stroke-linecap="round" stroke-linejoin="round"/>
    <path d="M 217.3101806640625 110.62213897705078 C 192.31430053710938 131.900146484375 229.60301208496094 134.779296875 215.81423950195312 109.9315185546875" stroke-width="2.0" fill="none" stroke="rgb(0, 0, 0)" stroke-opacity="1" stroke-linecap="round" stroke-linejoin="round"/>
    <path d="M 162.6008758544922 57.85329818725586 C 135.90623474121094 99.00679779052734 143.1746063232422 82.66165924072266 175.74136352539062 54.389896392822266" stroke-width="2.0" fill="none" stroke="rgb(0, 0, 0)" stroke-opacity="1" stroke-linecap="round" stroke-linejoin="round"/>
    <path d="M 160.2338409423828 30.233400344848633 C 132.7608642578125 54.09701156616211 160.80235290527344 34.06488037109375 155.06130981445312 26.738162994384766 C 139.8352813720703 48.89515686035156 156.57308959960938 12.180790901184082 123.70034790039062 9.874672889709473 C 144.6356201171875 56.50050735473633 166.6393585205078 55.95744705200195 137.896728515625 29.232175827026367" stroke-width="2.0" fill="none" stroke="rgb(0, 0, 0)" stroke-opacity="1" stroke-linecap="round" stroke-linejoin="round"/>
    <path d="M 149.56149291992188 209.29676818847656 C 161.13619995117188 215.5782012939453 152.63414001464844 233.4024200439453 126.25460052490234 203.40866088867188 C 151.89645385742188 237.52679443359375 180.27960205078125 226.97714233398438 197.72593688964844 180.03884887695312" stroke-width="2.0" fill="none" stroke="rgb(0, 0, 0)" stroke-opacity="1" stroke-linecap="round" stroke-linejoin="round"/>
    <path d="M 176.0612335205078 129.67379760742188 C 184.36013793945312 117.49563598632812 218.58822631835938 79.1087875366211 202.4811248779297 104.92993927001953" stroke-width="2.0" fill="none" stroke="rgb(0, 0, 0)" stroke-opacity="1" stroke-linecap="round" stroke-linejoin="round"/>
    <path d="M 113.48358917236328 153.8719482421875 C 92.24411010742188 182.1085205078125 82.23428344726562 166.87820434570312 76.75408935546875 188.94993591308594" stroke-width="2.0" fill="none" stroke="rgb(0, 0, 0)" stroke-opacity="1" stroke-linecap="round" stroke-linejoin="round"/>
    <path d="M 197.29891967773438 136.6151580810547 C 173.1229705810547 144.90188598632812 204.65164184570312 159.5709991455078 190.33155822753906 163.49853515625 C 178.41673278808594 155.26515197753906 215.61123657226562 140.7143096923828 182.52780151367188 156.52061462402344" stroke-width="2.0" fill="none" stroke="rgb(0, 0, 0)" stroke-opacity="1" stroke-linecap="round" stroke-linejoin="round"/>
    <path d="M 129.04148864746094 31.554309844970703 C 128.54440307617188 20.143844604492188 125.0715103149414 34.23695755004883 119.574951171875 47.65797424316406" stroke-width="2.0" fill="none" stroke="rgb(0, 0, 0)" stroke-opacity="1" stroke-linecap="round" stroke-linejoin="round"/>
    <path d="M 173.05380249023438 31.127161026000977 C 169.43399047851562 41.08329391479492 180.10084533691406 30.093618392944336 186.78936767578125 26.247940063476562 C 175.38818359375 45.571372985839844 153.1298370361328 15.736393928527832 171.0417938232422 29.86758804321289" stroke-width="2.0" fill="none" stroke="rgb(0, 0, 0)" stroke-opacity="1" stroke-linecap="round" stroke-linejoin="round"/>
    <path d="M 25.857276916503906 24.92584991455078 C -3.3103902339935303 1.476340413093567 6.725533485412598 28.271167755126953 6.180595874786377 37.326629638671875 C 2.814276933670044 12.085367202758789 16.47882080078125 28.53837013244629 24.7586727142334 9.587174415588379 C 13.473857879638672 23.845951080322266 22.048385620117188 45.570098876953125 39.56401443481445 20.902830123901367" stroke-width="2.0" fill="none" stroke="rgb(0, 0, 0)" stroke-opacity="1" stroke-linecap="round" stroke-linejoin="round"/>
    <path d="M 9.188050270080566 51.19580841064453 C 2.5373847484588623 30.06785774230957 19.86993980407715 15.573963165283203 7.360739231109619 60.998043060302734 C 35.87959289550781 47.32133483886719 44.869693756103516 30.742881774902344 67.64653778076172 26.167842864990234" stroke-width="2.0" fill="none" stroke="rgb(0, 0, 0)" stroke-opacity="1" stroke-linecap="round" stroke-linejoin="round"/>
    <path d="M 35.4577522277832 94.08885955810547 C 38.82598114013672 66.2287826538086 50.606956481933594 79.32807922363281 37.247920989990234 83.22264862060547 C 45.243324279785156 107.6009750366211 27.514402389526367 58.57902145385742 57.418155670166016 87.63655090332031 C 35.717491149902344 87.73046112060547 68.91258239746094 99.67831420898438 42.60324478149414 71.78931427001953" stroke-width="2.0" fill="none" stroke="rgb(0, 0, 0)" stroke-opacity="1" stroke-linecap="round" stroke-linejoin="round"/>
    <path d="M 96.1725845336914 206.56149291992188 C 107.28069305419922 188.2650909423828 101.13484191894531 214.63418579101562 90.41232299804688 203.52293395996094 C 103.56954193115234 211.28604125976562 90.77679443359375 215.95095825195312 85.08541107177734 238.1856689453125 C 64.00907135009766 235.0641632080078 71.06476593017578 227.82435607910156 88.98443603515625 229.2227783203125" stroke-width="2.0" fill="none" stroke="rgb(0, 0, 0)" stroke-opacity="1" stroke-linecap="round" stroke-linejoin="round"/>
    <path d="M 104.92958068847656 -7.578104019165039 C 84.46214294433594 5.604957103729248 78.24143981933594 10.434907913208008 62.92804718017578 -11.756078720092773" stroke-width="2.0" fill="none" stroke="rgb(0, 0, 0)" stroke-opacity="1" stroke-linecap="round" stroke-linejoin="round"/>
    <path d="M 66.03939819335938 227.34156799316406 C 71.6544418334961 224.27098083496094 69.15723419189453 232.0844268798828 53.83413314819336 232.16122436523438 C 27.237764358520508 226.69834899902344 41.439910888671875 223.45147705078125 36.874794006347656 227.35426330566406" stroke-width="2.0" fill="none" stroke="rgb(0, 0, 0)" stroke-opacity="1" stroke-linecap="round" stroke-linejoin="round"/>
    <path d="M 83.97669982910156 204.30953979492188 C 69.9338607788086 199.6488037109375 77.13990783691406 224.61268615722656 76.24459838867188 205.04637145996094 C 112.29999542236328 237.8383331298828 96.86922454833984 226.00103759765625 80.76524353027344 218.36782836914062" stroke-width="2.0" fill="none" stroke="rgb(0, 0, 0)" stroke-opacity="1" stroke-linecap="round" stroke-linejoin="round"/>
    <path d="M 112.25111389160156 61.361305236816406 C 100.81843566894531 48.59988021850586 82.6776351928711 74.50174713134766 98.97712707519531 74.8386001586914" stroke-width="2.0" fill="none" stroke="rgb(0, 0, 0)" stroke-opacity="1" stroke-linecap="round" stroke-linejoin="round"/>
    <path d="M 178.24935913085938 21.95281219482422 C 176.13690185546875 51.4106559753418 219.7498016357422 38.03584671020508 172.8410186767578 37.00326919555664 C 176.60081481933594 48.503173828125 178.122802734375 41.51923751831055 177.9034423828125 33.364925384521484 C 195.29153442382812 46.27151107788086 179.3083953857422 27.3951416015625 194.03790283203125 37.98530960083008" stroke-width="2.0" fill="none" stroke="rgb(0, 0, 0)" stroke-opacity="1" stroke-linecap="round" stroke-linejoin="round"/>
    <path d="M 138.66297912597656 161.00656127929688 C 139.1511993408203 182.35971069335938 118.46942138671875 176.9552459716797 137.92193603515625 169.13551330566406 C 111.30207824707031 155.35328674316406 122.66812133789062 150.38656616210938 103.99020385742188 169.2155303955078" stroke-width="2.0" fill="none" stroke="rgb(0, 0, 0)" stroke-opacity="1" stroke-linecap="round" stroke-linejoin="round"/>
    <path d="M 62.69218444824219 3.414762496948242 C 65.29300689697266 -10.27259349822998 49.25175857543945 -7.061484336853027 37.002235412597656 -10.434408187866211 C 58.297916412353516 -13.41192626953125 48.16069412231445 -16.925174713134766 44.093482971191406 -7.24198055267334" stroke-width="2.0" fill="none" stroke="rgb(0, 0, 0)" stroke-opacity="1" stroke-linecap="round" stroke-linejoin="round"/>
    <path d="M 162.97593688964844 88.98867797851562 C 164.3423309326172 112.02101135253906 154.3320770263672 117.63993072509766 104.3634033203125 87.8299789428711 C 106.1096420288086 79.58615112304688 139.27711486816406 103.08338928222656 130.27944946289062 84.04647827148438 C 124.65106964111328 74.7383041381836 133.2373809814453 90.60155487060547 117.17724609375 85.7507095336914" stroke-width="2.0" fill="none" stroke="rgb(0, 0, 0)" stroke-opacity="1" stroke-linecap="round" stroke-linejoin="round"/>
    <path d="M 22.286598205566406 40.85169219970703 C 6.0203447341918945 40.583457946777344 8.450235366821289 44.69070816040039 10.115887641906738 61.94816589355469 C 7.133858680725098 43.66645812988281 9.698766708374023 55.16358947753906 23.76536750793457 31.703243255615234 C 14.674651145935059 35.562782287597656 24.238080978393555 36.625389099121094 38.62773513793945 55.63007736206055" stroke-width="2.0" fill="none" stroke="rgb(0, 0, 0)" stroke-opacity="1" stroke-linecap="round" stroke-linejoin="round"/>
    <path d="M 142.6525115966797 98.93254852294922 C 125.83574676513672 101.85200500488281 152.0470428466797 126.00384521484375 166.09881591796875 137.27479553222656 C 160.76715087890625 132.82582092285156 166.70298767089844 155.66075134277344 147.79428100585938 133.09934997558594 C 152.10931396484375 148.25132751464844 152.9470977783203 145.15760803222656 179.98330688476562 172.77459716796875" stroke-width="2.0" fill="none" stroke="rgb(0, 0, 0)" stroke-opacity="1" stroke-linecap="round" stroke-linejoin="round"/>
    <path d="M 51.18973159790039 122.2554931640625 C 91.2787094116211 109.58439636230469 81.08552551269531 114.52667999267578 74.09391021728516 87.1521987915039" stroke-width="2.0" fill="none" stroke="rgb(0, 0, 0)" stroke-opacity="1" stroke-linecap="round" stroke-linejoin="round"/>
    <path d="M 166.85462951660156 12.361084938049316 C 161.81260681152344 5.761000633239746 155.05552673339844 24.467426300048828 193.55418395996094 -2.929600954055786 C 175.49525451660156 5.699850082397461 168.57687377929688 -0.33712276816368103 182.35678100585938 -17.54817771911621 C 189.71324157714844 -2.7660536766052246 180.0842742919922 -1.2921050786972046 186.4036102294922 -10.041072845458984" stroke-width="2.0" fill="none" stroke="rgb(0, 0, 0)" stroke-opacity="1" stroke-linecap="round" stroke-linejoin="round"/>
    <path d="M 113.43421173095703 160.1136016845703 C 112.82946014404297 161.8114471435547 114.34473419189453 147.2124481201172 127.2314224243164 167.8107452392578" stroke-width="2.0" fill="none" stroke="rgb(0, 0, 0)" stroke-opacity="1" stroke-linecap="round" stroke-linejoin="round"/>
    <path d="M 2.1929945945739746 11.060525894165039 C 2.125109910964966 22.775644302368164 62.5412483215332 28.368867874145508 35.788631439208984 43.672489166259766 C 17.240907669067383 33.49087142944336 16.718029022216797 15.900087356567383 24.362844467163086 18.10008430480957 C 7.033534526824951 23.342857360839844 18.85344696044922 19.855173110961914 -0.11744628846645355 8.717472076416016" stroke-width="2.0" fill="none" stroke="rgb(0, 0, 0)" stroke-opacity="1" stroke-linecap="round" stroke-linejoin="round"/>
    <path d="M 210.22665405273438 82.61699676513672 C 220.3683624267578 61.623111724853516 209.6266326904297 57.033714294433594 192.63937377929688 74.75565338134766 C 202.611328125 58.7313346862793 203.192626953125 99.41568756103516 187.2642364501953 77.9568862915039 C 197.93116760253906 62.09392547607422 218.65780639648438 65.56989288330078 222.0619354248047 101.26936340332031" stroke-width="2.0" fill="none" stroke="rgb(0, 0, 0)" stroke-opacity="1" stroke-linecap="round" stroke-linejoin="round"/>
    <path d="M 173.6153106689453 130.1254119873047 C 169.3651123046875 114.87555694580078 149.97525024414062 120.55554962158203 166.17308044433594 112.45360565185547 C 172.15249633789062 128.1144561767578 146.9423828125 123.9214859008789 155.8907470703125 147.91287231445312 C 172.4363250732422 127.16819763183594 165.73446655273438 116.55896759033203 138.6811065673828 87.89495086669922" stroke-width="2.0" fill="none" stroke="rgb(0, 0, 0)" stroke-opacity="1" stroke-linecap="round" stroke-linejoin="round"/>
    <path d="M 124.20399475097656 32.86566162109375 C 151.2884063720703 25.840269088745117 177.81637573242188 13.446002960205078 198.61984252929688 -4.8733930587768555 C 182.3130645751953 -21.940963745117188 190.69667053222656 2.276677131652832 210.16403198242188 9.706744194030762 C 198.79190063476562 -9.078441619873047 186.89634704589844 22.55988121032715 182.48080444335938 13.972414016723633" stroke-width="2.0" fill="none" stroke="rgb(0, 0, 0)" stroke-opacity="1" stroke-linecap="round" stroke-linejoin="round"/>
    <path d="M 105.35543823242188 60.80731201171875 C 127.67742919921875 39.41166687011719 123.99066925048828 35.41997528076172 158.06700134277344 21.172847747802734 C 124.02679443359375 45.31258010864258 120.699462890625 50.6148567199707 138.89242553710938 14.986873626708984 C 126.0449447631836 0.3113313615322113 135.9556121826172 3.984710216522217 132.9440155029297 16.647335052490234" stroke-width="2.0" fill="none" stroke="rgb(0, 0, 0)" stroke-opacity="1" stroke-linecap="round" stroke-linejoin="round"/>
    <path d="M 150.21849060058594 6.110782623291016 C 131.9237060546875 -8.09677505493164 140.43881225585938 0.8076249957084656 92.33785247802734 17.94617462158203" stroke-width="2.0" fill="none" stroke="rgb(0, 0, 0)" stroke-opacity="1" stroke-linecap="round" stroke-linejoin="round"/>
    <path d="M 67.32823181152344 19.007888793945312 C 71.43572998046875 24.36954689025879 88.29154205322266 50.76486587524414 84.36197662353516 55.19219970703125 C 86.6264419555664 50.69265365600586 76.04885864257812 37.390289306640625 89.09465789794922 58.327632904052734 C 47.62819290161133 60.88246154785156 70.0531005859375 74.72730255126953 65.18488311767578 71.20259857177734" stroke-width="2.0" fill="none" stroke="rgb(0, 0, 0)" stroke-opacity="1" stroke-linecap="round" stroke-linejoin="round"/>
    <path d="M 159.2079620361328 189.35755920410156 C 136.50685119628906 171.6410369873047 156.4413604736328 183.80111694335938 177.2853546142578 207.6433563232422 C 167.6074676513672 210.0061492919922 154.6588897705078 225.30255126953125 183.7548065185547 204.75669860839844 C 185.7332305908203 211.68247985839844 179.599609375 222.52073669433594 158.459228515625 216.45574951171875" stroke-width="2.0" fill="none" stroke="rgb(0, 0, 0)" stroke-opacity="1" stroke-linecap="round" stroke-linejoin="round"/>
    <path d="M 154.7027587890625 113.7850112915039 C 153.1218719482422 121.0037612915039 132.6790008544922 107.07530975341797 166.78408813476562 95.6611328125 C 148.8175048828125 109.29708099365234 138.4712677001953 102.78011322021484 168.2080078125 129.18287658691406 C 140.94923400878906 101.14381408691406 146.73870849609375 62.594818115234375 129.92095947265625 106.31517028808594" stroke-width="2.0" fill="none" stroke="rgb(0, 0, 0)" stroke-opacity="1" stroke-linecap="round" stroke-linejoin="round"/>
    <path d="M 18.58797264099121 43.57828903198242 C 29.807933807373047 34.11747360229492 40.78888702392578 24.727893829345703 5.2401018142700195 34.882991790771484" stroke-width="2.0" fill="none" stroke="rgb(0, 0, 0)" stroke-opacity="1" stroke-linecap="round" stroke-linejoin="round"/>
    <path d="M 194.422119140625 79.06482696533203 C 191.38470458984375 92.36995697021484 208.5596160888672 68.10615539550781 209.27101135253906 68.0820083618164 C 204.408447265625 46.5567626953125 188.59420776367188 62.40656661987305 204.42991638183594 74.68859100341797" stroke-width="2.0" fill="none" stroke="rgb(0, 0, 0)" stroke-opacity="1" stroke-linecap="round" stroke-linejoin="round"/>
    <path d="M 12.565601348876953 131.0603485107422 C 28.66299057006836 101.95055389404297 11.259668350219727 117.8925552368164 4.25718355178833 145.47320556640625 C -2.876358985900879 112.00061798095703 2.897643566131592 83.19990539550781 -17.39333152770996 93.86279296875" stroke-width="2.0" fill="none" stroke="rgb(0, 0, 0)" stroke-opacity="1" stroke-linecap="round" stroke-linejoin="round"/>
    <path d="M 178.05203247070312 166.83987426757812 C 213.00155639648438 197.53465270996094 191.75418090820312 216.7522735595703 157.40402221679688 188.18630981445312" stroke-width="2.0" fill="none" stroke="rgb(0, 0, 0)" stroke-opacity="1" stroke-linecap="round" stroke-linejoin="round"/>
    <path d="M 66.62218475341797 70.84944152832031 C 88.7760238647461 65.09088897705078 72.05241394042969 79.5888671875 73.22545623779297 63.80255126953125 C 71.3328628540039 79.83793640136719 91.5840072631836 70.92671966552734 75.32624053955078 58.801727294921875 C 100.82376861572266 57.74604034423828 69.30012512207031 38.22060775756836 80.3514175415039 54.198909759521484" stroke-width="2.0" fill="none" stroke="rgb(0, 0, 0)" stroke-opacity="1" stroke-linecap="round" stroke-linejoin="round"/>
    <path d="M 167.1553192138672 44.5986213684082 C 177.1394805908203 59.59720230102539 189.24526977539062 45.51511001586914 153.7780303955078 78.80191040039062" stroke-width="2.0" fill="none" stroke="rgb(0, 0, 0)" stroke-opacity="1" stroke-linecap="round" stroke-linejoin="round"/>
    <path d="M 179.8826141357422 191.235595703125 C 192.955810546875 203.3839111328125 193.2711181640625 218.40769958496094 216.3013916015625 164.3393096923828 C 192.56996154785156 195.27362060546875 163.43392944335938 214.53651428222656 175.82916259765625 211.69839477539062" stroke-width="2.0" fill="none" stroke="rgb(0, 0, 0)" stroke-opacity="1" stroke-linecap="round" stroke-linejoin="round"/>
    <path d="M 24.299335479736328 156.3492431640625 C 14.612741470336914 175.7164764404297 12.735063552856445 141.4495849609375 20.061031341552734 155.9023895263672" stroke-width="2.0" fill="none" stroke="rgb(0, 0, 0)" stroke-opacity="1" stroke-linecap="round" stroke-linejoin="round"/>
    <path d="M 181.00680541992188 69.60850524902344 C 168.7842254638672 59.464717864990234 192.66949462890625 88.98141479492188 170.03936767578125 67.5140380859375 C 196.5600128173828 42.01647186279297 177.51197814941406 62.3847541809082 147.55479431152344 87.65706634521484" stroke-width="2.0" fill="none" stroke="rgb(0, 0, 0)" stroke-opacity="1" stroke-linecap="round" stroke-linejoin="round"/>
    <path d="M 94.83773803710938 130.2282257080078 C 78.0511245727539 157.18313598632812 65.4168930053711 137.70228576660156 84.79940032958984 135.65576171875 C 128.93568420410156 162.9815216064453 121.17703247070312 153.75726318359375 106.16008758544922 172.2154083251953" stroke-width="2.0" fill="none" stroke="rgb(0, 0, 0)" stroke-opacity="1" stroke-linecap="round" stroke-linejoin="round"/>
    <path d="M 52.01982879638672 31.23917579650879 C 73.43765258789062 57.93669891357422 73.48352813720703 57.08925247192383 52.11772155761719 31.71122932434082 C 30.359098434448242 50.045955657958984 42.29499435424805 36.846214294433594 15.000879287719727 20.097900390625" stroke-width="2.0" fill="none" stroke="rgb(0, 0, 0)" stroke-opacity="1" stroke-linecap="round" stroke-linejoin="round"/>
    <path d="M 9.166742324829102 169.35232543945312 C 15.787664413452148 152.12094116210938 -7.36269998550415 174.86390686035156 5.404537200927734 182.7471923828125 C 16.36041831970215 193.78480529785156 16.768428802490234 175.66416931152344 6.813979625701904 169.6156005859375" stroke-width="2.0" fill="none" stroke="rgb(0, 0, 0)" stroke-opacity="1" stroke-linecap="round" stroke-linejoin="round"/>
    <path d="M 68.52049255371094 36.442405700683594 C 48.5269660949707 12.402532577514648 38.18351745605469 5.3057146072387695 61.83768844604492 26.937335968017578 C 33.09060287475586 47.58281326293945 46.17811584472656 15.0822172164917 63.318294525146484 19.680442810058594 C 60.54330062866211 18.089324951171875 72.72212982177734 22.804323196411133 37.99402618408203 40.75608444213867" stroke-width="2.0" fill="none" stroke="rgb(0, 0, 0)" stroke-opacity="1" stroke-linecap="round" stroke-linejoin="round"/>
    <path d="M 149.36782836914062 76.3302001953125 C 123.58843231201172 101.76985168457031 116.34439849853516 109.65886688232422 125.9528579711914 88.66656494140625 C 130.34506225585938 81.04332733154297 123.06262969970703 85.56291198730469 132.8984832763672 99.72650146484375" stroke-width="2.0" fill="none" stroke="rgb(0, 0, 0)" stroke-opacity="1" stroke-linecap="round" stroke-linejoin="round"/>
    <path d="M 7.788761138916016 215.92005920410156 C 6.632112503051758 182.68072509765625 0.07036171853542328 205.2566680908203 19.392641067504883 198.12953186035156 C 28.25141716003418 164.3045196533203 35.28343963623047 176.41748046875 26.831424713134766 177.51780700683594 C 67.5427474975586 203.33029174804688 41.653076171875 185.96359252929688 39.50337600708008 186.32315063476562" stroke-width="2.0" fill="none" stroke="rgb(0, 0, 0)" stroke-opacity="1" stroke-linecap="round" stroke-linejoin="round"/>
    <path d="M 28.04139518737793 0.30985426902770996 C -7.584068298339844 4.527643203735352 12.773550033569336 10.704533576965332 28.105562210083008 -3.829183578491211 C 17.36874771118164 5.405888080596924 5.8563079833984375 11.572474479675293 33.062744140625 -8.815784454345703" stroke-width="2.0" fill="none" stroke="rgb(0, 0, 0)" stroke-opacity="1" stroke-linecap="round" stroke-linejoin="round"/>
    <path d="M 84.01994323730469 26.95236587524414 C 69.79075622558594 7.995924472808838 80.49872589111328 -9.194783210754395 91.54877471923828 -30.723533630371094 C 115.49513244628906 -21.2088680267334 106.65780639648438 -11.67702865600586 103.57180786132812 -8.37181568145752 C 88.1352310180664 -5.274510383605957 71.22649383544922 0.9372311234474182 97.96033477783203 -10.738167762756348" stroke-width="2.0" fill="none" stroke="rgb(0, 0, 0)" stroke-opacity="1" stroke-linecap="round" stroke-linejoin="round"/>
    <path d="M 128.44668579101562 61.360721588134766 C 97.09890747070312 23.169635772705078 119.23763275146484 31.788307189941406 130.64004516601562 59.875633239746094 C 126.6064453125 62.965599060058594 130.1641387939453 54.32921600341797 125.29244995117188 55.1592903137207 C 130.41162109375 69.35929870605469 136.355224609375 36.08186340332031 137.18638610839844 56.16579818725586" stroke-width="2.0" fill="none" stroke="rgb(0, 0, 0)" stroke-opacity="1" stroke-linecap="round" stroke-linejoin="round"/>
    <path d="M 105.08846282958984 103.92072296142578 C 122.28692626953125 102.4367904663086 73.92432403564453 113.90458679199219 69.7151870727539 115.0696029663086 C 96.42697143554688 101.6162109375 119.68489074707031 95.88699340820312 102.55174255371094 113.52194213867188 C 93.94781494140625 99.8958969116211 66.22840118408203 65.00316619873047 73.55326843261719 110.8272933959961" stroke-width="2.0" fill="none" stroke="rgb(0, 0, 0)" stroke-opacity="1" stroke-linecap="round" stroke-linejoin="round"/>
    <path d="M 90.48995971679688 83.8469467163086 C 95.0540771484375 114.60706329345703 95.31855010986328 77.65802764892578 111.15583801269531 103.65274047851562 C 123.28046417236328 90.55754852294922 143.58401489257812 93.76351165771484 118.68940734863281 86.23558807373047 C 143.85853576660156 118.8591537475586 150.82081604003906 111.56617736816406 171.04815673828125 91.44499969482422" stroke-width="2.0" fill="none" stroke="rgb(0, 0, 0)" stroke-opacity="1" stroke-linecap="round" stroke-linejoin="round"/>
    <path d="M 126.21798706054688 97.30046081542969 C 107.22299194335938 128.96792602539062 121.9449462890625 106.77790832519531 153.23094177246094 147.23716735839844 C 109.19229125976562 109.27064514160156 91.11724853515625 112.7342529296875 98.70016479492188 110.47970581054688 C 104.2966079711914 109.1019515991211 135.90237426757812 128.5546112060547 120.13341522216797 109.85873413085938" stroke-width="2.0" fill="none" stroke="rgb(0, 0, 0)" stroke-opacity="1" stroke-linecap="round" stroke-linejoin="round"/>
    <path d="M 23.017301559448242 26.252931594848633 C 48.975711822509766 31.66254234313965 21.709535598754883 38.257164001464844 8.936540603637695 49.203739166259766" stroke-width="2.0" fill="none" stroke="rgb(0, 0, 0)" stroke-opacity="1" stroke-linecap="round" stroke-linejoin="round"/>
    <path d="M 145.2091522216797 136.0001678466797 C 155.89138793945312 106.16381072998047 169.851318359375 124.06712341308594 150.0271759033203 78.24315643310547" stroke-width="2.0" fill="none" stroke="rgb(0, 0, 0)" stroke-opacity="1" stroke-linecap="round" stroke-linejoin="round"/>
    <path d="M 36.3267822265625 214.2858428955078 C 31.6637020111084 203.22952270507812 45.164249420166016 190.2331085205078 29.49030303955078 217.2482147216797" stroke-width="2.0" fill="none" stroke="rgb(0, 0, 0)" stroke-opacity="1" stroke-linecap="round" stroke-linejoin="round"/>
    <path d="M 177.80116271972656 137.9099578857422 C 166.8039093017578 113.89994812011719 179.24024963378906 126.66455841064453 154.22276306152344 151.05572509765625 C 178.1584014892578 130.99288940429688 187.94345092773438 108.45433044433594 175.37350463867188 101.68279266357422" stroke-width="2.0" fill="none" stroke="rgb(0, 0, 0)" stroke-opacity="1" stroke-linecap="round" stroke-linejoin="round"/>
    <path d="M 107.3361587524414 102.7808837890625 C 150.4613800048828 82.77181243896484 128.28152465820312 95.77399444580078 107.30763244628906 79.8912124633789 C 135.35682678222656 87.03651428222656 109.36135864257812 92.49610137939453 115.77169036865234 98.94336700439453 C 113.62387084960938 113.73043060302734 88.82554626464844 111.43154907226562 108.30411529541016 95.34983825683594" stroke-width="2.0" fill="none" stroke="rgb(0, 0, 0)" stroke-opacity="1" stroke-linecap="round" stroke-linejoin="round"/>
    <path d="M 102.08750915527344 142.90219116210938 C 119.41123962402344 134.05364990234375 75.19374084472656 117.46723937988281 91.72163391113281 136.01092529296875 C 119.85790252685547 161.65150451660156 111.8116455078125 136.21322631835938 86.70645904541016 180.86685180664062" stroke-width="2.0" fill="none" stroke="rgb(0, 0, 0)" stroke-opacity="1" stroke-linecap="round" stroke-linejoin="round"/>
    <path d="M 99.03884887695312 46.765838623046875 C 117.91857147216797 30.356245040893555 130.70950317382812 52.80235290527344 119.01731872558594 16.814279556274414 C 123.18696594238281 48.09897232055664 82.70388793945312 32.0665283203125 114.07929992675781 50.011993408203125 C 106.81372833251953 51.22010803222656 109.926025390625 40.613311767578125 118.49003601074219 55.35978698730469" stroke-width="2.0" fill="none" stroke="rgb(0, 0, 0)" stroke-opacity="1" stroke-linecap="round" stroke-linejoin="round"/>
    <path d="M 147.29254150390625 158.58572387695312 C 118.30559539794922 151.74635314941406 141.97300720214844 118.9024658203125 132.75588989257812 163.70852661132812 C 151.79385375976562 179.80926513671875 111.5704116821289 150.64808654785156 108.75648498535156 149.88375854492188" stroke-width="2.0" fill="none" stroke="rgb(0, 0, 0)" stroke-opacity="1" stroke-linecap="round" stroke-linejoin="round"/>
    <path d="M 36.67048645019531 154.79940795898438 C 6.059844493865967 127.15922546386719 31.867101669311523 123.05314636230469 36.673919677734375 125.74353790283203 C 15.387052536010742 149.04222106933594 46.06593322753906 105.4984359741211 53.7607536315918 128.0768585205078" stroke-width="2.0" fill="none" stroke="rgb(0, 0, 0)" stroke-opacity="1" stroke-linecap="round" stroke-linejoin="round"/>
    <path d="M 41.93077850341797 182.72616577148438 C 44.66350555419922 172.89065551757812 58.89588928222656 170.00953674316406 47.21082305908203 158.91824340820312 C 32.92403030395508 179.5813751220703 65.39813232421875 178.22386169433594 60.530921936035156 181.5685577392578" stroke-width="2.0" fill="none" stroke="rgb(0, 0, 0)" stroke-opacity="1" stroke-linecap="round" stroke-linejoin="round"/>
    <path d="M 77.30529022216797 207.56858825683594 C 88.09591674804688 204.44964599609375 86.63264465332031 182.9746551513672 80.71524047851562 203.62075805664062 C 80.14751434326172 188.410888671875 94.24983978271484 187.12014770507812 83.8699722290039 198.88693237304688" stroke-width="2.0" fill="none" stroke="rgb(0, 0, 0)" stroke-opacity="1" stroke-linecap="round" stroke-linejoin="round"/>
    <path d="M 145.130126953125 224.45321655273438 C 139.6394500732422 219.15084838867188 122.72200012207031 209.10292053222656 104.62742614746094 187.5853271484375 C 94.69963073730469 180.02418518066406 110.8342056274414 177.5065155029297 121.99364471435547 158.82574462890625" stroke-width="2.0" fill="none" stroke="rgb(0, 0, 0)" stroke-opacity="1" stroke-linecap="round" stroke-linejoin="round"/>
    <path d="M 227.9501953125 59.52385330200195 C 227.15269470214844 -9.960308074951172 217.181640625 27.48259735107422 177.92333984375 54.39715576171875" stroke-width="2.0" fill="none" stroke="rgb(0, 0, 0)" stroke-opacity="1" stroke-linecap="round" stroke-linejoin="round"/>
    <path d="M 163.08956909179688 204.47775268554688 C 180.01898193359375 220.6112518310547 135.29798889160156 226.99575805664062 149.9737548828125 209.278564453125" stroke-width="2.0" fill="none" stroke="rgb(0, 0, 0)" stroke-opacity="1" stroke-linecap="round" stroke-linejoin="round"/>
    <path d="M 34.3007926940918 88.43661499023438 C 17.79850196838379 77.1831283569336 26.4769287109375 82.99628448486328 49.2885627746582 94.84078979492188" stroke-width="2.0" fill="none" stroke="rgb(0, 0, 0)" stroke-opacity="1" stroke-linecap="round" stroke-linejoin="round"/>
    <path d="M 91.06363677978516 8.692197799682617 C 89.40829467773438 13.217745780944824 54.793121337890625 24.299226760864258 47.470890045166016 23.025671005249023 C 73.69623565673828 13.988570213317871 85.29466247558594 -1.7663604021072388 57.724632263183594 4.958427429199219 C 59.45535659790039 -21.61669158935547 40.79853820800781 -7.634092330932617 6.874267578125 -1.749955415725708" stroke-width="2.0" fill="none" stroke="rgb(0, 0, 0)" stroke-opacity="1" stroke-linecap="round" stroke-linejoin="round"/>
    <path d="M 13.3739652633667 115.4519271850586 C -19.8024845123291 117.34194946289062 2.195333957672119 117.32357788085938 30.564477920532227 120.42510223388672 C 21.637216567993164 92.98261260986328 27.887638092041016 150.0633544921875 3.536065101623535 106.18357849121094 C 36.18173599243164 116.38349914550781 8.795662879943848 78.39092254638672 12.715313911437988 106.53880310058594" stroke-width="2.0" fill="none" stroke="rgb(0, 0, 0)" stroke-opacity="1" stroke-linecap="round" stroke-linejoin="round"/>
    <path d="M 31.38413429260254 22.32232666015625 C 24.436424255371094 51.626033782958984 34.18259811401367 44.229331970214844 74.13829803466797 18.838092803955078" stroke-width="2.0" fill="none" stroke="rgb(0, 0, 0)" stroke-opacity="1" stroke-linecap="round" stroke-linejoin="round"/>
    <path d="M 15.421280860900879 65.48765563964844 C 1.3970972299575806 74.18001556396484 2.0416715145111084 79.5572509765625 -4.861178398132324 104.67120361328125 C 8.258137702941895 70.04248046875 10.531881332397461 50.13416290283203 -1.1054942607879639 102.57276153564453 C 26.030048370361328 65.43639373779297 28.23895263671875 56.55524826049805 8.139739990234375 85.14197540283203" stroke-width="2.0" fill="none" stroke="rgb(0, 0, 0)" stroke-opacity="1" stroke-linecap="round" stroke-linejoin="round"/>
    <path d="M 121.43058013916016 83.46346282958984 C 106.64419555664062 116.77176666259766 116.34829711914062 117.17974090576172 113.64114379882812 104.68805694580078 C 98.38803100585938 97.8914566040039 130.7763671875 124.89656829833984 156.0309295654297 128.16847229003906 C 129.63902282714844 100.99348449707031 124.54412841796875 117.39442443847656 152.44497680664062 139.83253479003906" stroke-width="2.0" fill="none" stroke="rgb(0, 0, 0)" stroke-opacity="1" stroke-linecap="round" stroke-linejoin="round"/>
    <path d="M 203.9960174560547 200.37782287597656 C 200.23341369628906 179.1457061767578 202.9027862548828 181.15963745117188 193.99807739257812 193.76368713378906 C 197.6209716796875 168.0022430419922 155.65921020507812 183.31825256347656 181.0745391845703 170.905029296875" stroke-width="2.0" fill="none" stroke="rgb(0, 0, 0)" stroke-opacity="1" stroke-linecap="round" stroke-linejoin="round"/>
    <path d="M 141.36740112304688 151.6975555419922 C 134.2568359375 145.44354248046875 147.78182983398438 144.6829376220703 144.57237243652344 154.31797790527344" stroke-width="2.0" fill="none" stroke="rgb(0, 0, 0)" stroke-opacity="1" stroke-linecap="round" stroke-linejoin="round"/>
    <path d="M 80.498046875 7.80247163772583 C 94.41382598876953 30.781572341918945 99.32239532470703 30.246625900268555 90.82499694824219 34.20380401611328" stroke-width="2.0" fill="none" stroke="rgb(0, 0, 0)" stroke-opacity="1" stroke-linecap="round" stroke-linejoin="round"/>
    <path d="M 61.761146545410156 36.642032623291016 C 59.576194763183594 32.87112808227539 48.24596405029297 21.92285919189453 38.57194137573242 24.336620330810547 C 61.28190612792969 38.67705535888672 60.347557067871094 28.5919189453125 49.13997268676758 19.955507278442383" stroke-width="2.0" fill="none" stroke="rgb(0, 0, 0)" stroke-opacity="1" stroke-linecap="round" stroke-linejoin="round"/>
    <path d="M 175.6048126220703 122.48625183105469 C 158.6298828125 94.62954711914062 196.3158416748047 135.5017547607422 201.07142639160156 157.751953125 C 214.95021057128906 145.59571838378906 176.8124542236328 133.65269470214844 193.3271026611328 146.73252868652344" stroke-width="2.0" fill="none" stroke="rgb(0, 0, 0)" stroke-opacity="1" stroke-linecap="round" stroke-linejoin="round"/>
    <path d="M 66.92513275146484 19.007596969604492 C 88.08015441894531 3.480520009994507 83.89083099365234 9.780447959899902 68.33777618408203 22.482223510742188" stroke-width="2.0" fill="none" stroke="rgb(0, 0, 0)" stroke-opacity="1" stroke-linecap="round" stroke-linejoin="round"/>
    <path d="M 33.7325439453125 -5.129528522491455 C 21.735464096069336 -2.3554723262786865 28.76264190673828 -10.957496643066406 21.443756103515625 28.269065856933594 C 57.30442428588867 10.6071195602417 19.484695434570312 16.004886627197266 8.858530044555664 44.37628173828125" stroke-width="2.0" fill="none" stroke="rgb(0, 0, 0)" stroke-opacity="1" stroke-linecap="round" stroke-linejoin="round"/>
    <path d="M 196.9029083251953 50.60877227783203 C 217.30172729492188 28.780630111694336 226.11111450195312 32.47026062011719 214.59060668945312 8.327278137207031 C 221.47036743164062 92.94905090332031 214.96731567382812 90.99886322021484 213.4921112060547 66.15714263916016" stroke-width="2.0" fill="none" stroke="rgb(0, 0, 0)" stroke-opacity="1" stroke-linecap="round" stroke-linejoin="round"/>
    <path d="M 153.4295654296875 222.83750915527344 C 195.75064086914062 209.58619689941406 183.79844665527344 193.31597900390625 193.0153350830078 198.79107666015625 C 207.82455444335938 189.49574279785156 180.02838134765625 210.90878295898438 173.4225616455078 179.7590789794922 C 195.4330291748047 181.6117706298828 198.79409790039062 207.70355224609375 191.6962127685547 191.51248168945312" stroke-width="2.0" fill="none" stroke="rgb(0, 0, 0)" stroke-opacity="1" stroke-linecap="round" stroke-linejoin="round"/>
    <path d="M -10.021231651306152 11.951995849609375 C -4.354279518127441 2.693183422088623 3.222893238067627 29.700952529907227 -9.8824462890625 34.76598358154297 C -28.625551223754883 29.977901458740234 -29.46026039123535 22.13971710205078 -26.86453628540039 11.614872932434082 C -14.628617286682129 -0.3122231960296631 -12.506061553955078 -4.207821369171143 -23.30388069152832 2.095970392227173" stroke-width="2.0" fill="none" stroke="rgb(0, 0, 0)" stroke-opacity="1" stroke-linecap="round" stroke-linejoin="round"/>
    <path d="M 176.4109344482422 97.32864379882812 C 195.22817993164062 99.48921203613281 155.27890014648438 93.75143432617188 184.35885620117188 112.03471374511719 C 174.7034149169922 90.3510971069336 177.2583465576172 91.02771759033203 186.13426208496094 102.78243255615234 C 155.81980895996094 129.45431518554688 175.2189483642578 133.37461853027344 187.64268493652344 108.71853637695312" stroke-width="2.0" fill="none" stroke="rgb(0, 0, 0)" stroke-opacity="1" stroke-linecap="round" stroke-linejoin="round"/>
    <path d="M 44.01640319824219 179.07960510253906 C 58.29853057861328 158.95668029785156 35.29268264770508 157.53782653808594 53.038002014160156 188.39585876464844 C 26.767925262451172 174.8524627685547 23.78374671936035 169.5078125 4.838741302490234 158.30538940429688 C -2.891491174697876 180.70184326171875 9.539944648742676 205.012939453125 1.572550892829895 243.44407653808594" stroke-width="2.0" fill="none" stroke="rgb(0, 0, 0)" stroke-opacity="1" stroke-linecap="round" stroke-linejoin="round"/>
    <path d="M 148.02102661132812 1.9763292074203491 C 115.18034362792969 8.185018539428711 152.57171630859375 -1.1552579402923584 175.3075714111328 6.900486946105957" stroke-width="2.0" fill="none" stroke="rgb(0, 0, 0)" stroke-opacity="1" stroke-linecap="round" stroke-linejoin="round"/>
    <path d="M 201.54461669921875 59.449066162109375 C 209.78530883789062 81.66907501220703 173.4817657470703 61.79912567138672 201.85186767578125 63.36436462402344" stroke-width="2.0" fill="none" stroke="rgb(0, 0, 0)" stroke-opacity="1" stroke-linecap="round" stroke-linejoin="round"/>
    <path d="M 148.5433807373047 96.04820251464844 C 180.44473266601562 71.21177673339844 141.66395568847656 96.6182861328125 147.0876922607422 76.21334075927734 C 191.33013916015625 95.18301391601562 150.55899047851562 98.49356842041016 138.2460174560547 83.69607543945312" stroke-width="2.0" fill="none" stroke="rgb(0, 0, 0)" stroke-opacity="1" stroke-linecap="round" stroke-linejoin="round"/>
    <path d="M 45.009254455566406 170.72959899902344 C 60.877288818359375 163.5802001953125 31.3665714263916 184.0378875732422 53.53394317626953 181.49386596679688 C 29.580364227294922 211.64236450195312 18.968175888061523 223.3651123046875 12.548134803771973 234.75033569335938" stroke-width="2.0" fill="none" stroke="rgb(0, 0, 0)" stroke-opacity="1" stroke-linecap="round" stroke-linejoin="round"/>
    <path d="M 95.8809814453125 41.06808090209961 C 114.75049591064453 26.89166259765625 131.00686645507812 26.574310302734375 115.2997055053711 45.70772171020508 C 107.44342803955078 13.658154487609863 114.14411926269531 32.45701599121094 106.14632415771484 8.980488777160645 C 110.4305648803711 36.591392517089844 104.60445404052734 12.144186019897461 100.91602325439453 3.3960182666778564" stroke-width="2.0" fill="none" stroke="rgb(0, 0, 0)" stroke-opacity="1" stroke-linecap="round" stroke-linejoin="round"/>
    <path d="M 146.58599853515625 179.56243896484375 C 113.43476867675781 193.08889770507812 109.62477111816406 216.53334045410156 134.5078125 187.8442840576172 C 120.16429138183594 192.7921905517578 120.57300567626953 214.40196228027344 119.00477600097656 176.74496459960938 C 143.3502960205078 202.64688110351562 137.87474060058594 214.11387634277344 127.47309112548828 196.38743591308594" stroke-width="2.0" fill="none" stroke="rgb(0, 0, 0)" stroke-opacity="1" stroke-linecap="round" stroke-linejoin="round"/>
    <path d="M 20.016075134277344 27.65108871459961 C 19.638744354248047 37.29822540283203 33.62651824951172 52.71183776855469 24.74713897705078 -2.459872245788574 C 24.9548397064209 16.432804107666016 -13.465482711791992 5.789474964141846 11.26645278930664 -0.6688326001167297 C -5.7428669929504395 -4.060626029968262 0.9133941531181335 10.11280345916748 -7.1079630851745605 23.636783599853516" stroke-width="2.0" fill="none" stroke="rgb(0, 0, 0)" stroke-opacity="1" stroke-linecap="round" stroke-linejoin="round"/>
    <path d="M 89.60894012451172 216.89610290527344 C 63.23691177368164 216.18386840820312 93.496337890625 185.11032104492188 92.9078369140625 193.30084228515625 C 69.68582916259766 171.45948791503906 74.4704818725586 164.03916931152344 92.65426635742188 182.9825897216797 C 100.03911590576172 180.7545166015625 76.98152160644531 157.63925170898438 88.776611328125 178.15565490722656" stroke-width="2.0" fill="none" stroke="rgb(0, 0, 0)" stroke-opacity="1" stroke-linecap="round" stroke-linejoin="round"/>
    <path d="M 110.2308120727539 218.3111114501953 C 88.68229675292969 209.15264892578125 132.2923126220703 234.61734008789062 97.71882629394531 222.99754333496094 C 122.91039276123047 239.4298095703125 141.0203857421875 239.11293029785156 154.41688537597656 241.73565673828125 C 141.70228576660156 245.7322998046875 151.57675170898438 250.24046325683594 153.7445068359375 248.27024841308594" stroke-width="2.0" fill="none" stroke="rgb(0, 0, 0)" stroke-opacity="1" stroke-linecap="round" stroke-linejoin="round"/>
    <path d="M 136.1820831298828 72.72834014892578 C 116.78501892089844 71.00595092773438 126.18445587158203 47.26044464111328 124.89372253417969 69.07052612304688 C 144.3804473876953 90.57551574707031 135.79637145996094 37.56576919555664 119.61953735351562 65.66669464111328 C 152.3527069091797 89.54042053222656 131.28550720214844 43.934547424316406 131.9506072998047 67.80982208251953" stroke-width="2.0" fill="none" stroke="rgb(0, 0, 0)" stroke-opacity="1" stroke-linecap="round" stroke-linejoin="round"/>
    <path d="M 214.6005859375 227.85693359375 C 202.2344970703125 224.41131591796875 223.59243774414062 208.88877868652344 224.4792022705078 223.87460327148438 C 230.61598205566406 195.22364807128906 215.96533203125 222.56130981445312 220.96372985839844 232.4784698486328" stroke-width="2.0" fill="none" stroke="rgb(0, 0, 0)" stroke-opacity="1" stroke-linecap="round" stroke-linejoin="round"/>
    <path d="M 53.01587677001953 150.75193786621094 C 74.04381561279297 182.52676391601562 84.8108901977539 184.37818908691406 94.34153747558594 193.71884155273438 C 75.95670318603516 185.40841674804688 75.1795883178711 220.57618713378906 96.93440246582031 221.79965209960938" stroke-width="2.0" fill="none" stroke="rgb(0, 0, 0)" stroke-opacity="1" stroke-linecap="round" stroke-linejoin="round"/>
    <path d="M 6.604101657867432 194.8663787841797 C 20.441431045532227 239.5941162109375 6.7556538581848145 171.01040649414062 19.016395568847656 206.03408813476562 C 33.64271545410156 188.38706970214844 20.513320922851562 179.95556640625 0.37507015466690063 223.88674926757812 C 12.041267395019531 242.32379150390625 0.967237114906311 245.135009765625 14.191106796264648 230.65240478515625" stroke-width="2.0" fill="none" stroke="rgb(0, 0, 0)" stroke-opacity="1" stroke-linecap="round" stroke-linejoin="round"/>
    <path d="M 211.83309936523438 7.629055023193359 C 212.58639526367188 32.841487884521484 198.93235778808594 18.234909057617188 185.59364318847656 11.097500801086426" stroke-width="2.0" fill="none" stroke="rgb(0, 0, 0)" stroke-opacity="1" stroke-linecap="round" stroke-linejoin="round"/>
    <path d="M 136.29794311523438 35.835636138916016 C 109.63835906982422 29.52037239074707 105.82296752929688 40.24040222167969 143.53466796875 30.382293701171875 C 154.66954040527344 16.904457092285156 122.21878051757812 45.925479888916016 108.21964263916016 54.183406829833984" stroke-width="2.0" fill="none" stroke="rgb(0, 0, 0)" stroke-opacity="1" stroke-linecap="round" stroke-linejoin="round"/>
    <path d="M 119.86812591552734 227.01150512695312 C 141.52413940429688 245.42678833007812 151.32716369628906 239.9265899658203 194.29722595214844 220.73980712890625 C 108.16061401367188 244.20858764648438 133.46307373046875 210.15992736816406 121.57772827148438 224.8724822998047" stroke-width="2.0" fill="none" stroke="rgb(0, 0, 0)" stroke-opacity="1" stroke-linecap="round" stroke-linejoin="round"/>
    <path d="M 118.02645111083984 72.6811752319336 C 98.3134765625 89.6852035522461 112.72515869140625 74.40827941894531 114.46734619140625 83.98023223876953 C 103.88050079345703 106.65509033203125 109.62661743164062 85.03976440429688 84.48953247070312 83.0558090209961 C 89.09526824951172 66.26708221435547 96.58534240722656 73.82486724853516 85.1629638671875 97.61114501953125" stroke-width="2.0" fill="none" stroke="rgb(0, 0, 0)" stroke-opacity="1" stroke-linecap="round" stroke-linejoin="round"/>
    <path d="M 94.86310577392578 71.89781951904297 C 122.57756805419922 90.9395751953125 72.30503845214844 66.82637786865234 101.97577667236328 95.22513580322266" stroke-width="2.0" fill="none" stroke="rgb(0, 0, 0)" stroke-opacity="1" stroke-linecap="round" stroke-linejoin="round"/>
    <path d="M 223.2615966796875 22.152748107910156 C 211.6588897705078 -12.915053367614746 158.7996368408203 -4.720504283905029 199.72320556640625 15.052900314331055 C 199.5321807861328 17.975889205932617 185.33053588867188 15.045371055603027 200.5218048095703 10.628774642944336" stroke-width="2.0" fill="none" stroke="rgb(0, 0, 0)" stroke-opacity="1" stroke-linecap="round" stroke-linejoin="round"/>
    <path d="M 218.41659545898438 77.16411590576172 C 176.7132568359375 123.41958618164062 195.1963348388672 96.2199478149414 218.0950164794922 155.7001495361328" stroke-width="2.0" fill="none" stroke="rgb(0, 0, 0)" stroke-opacity="1" stroke-linecap="round" stroke-linejoin="round"/>
    <path d="M 95.94600677490234 172.67864990234375 C 87.1969223022461 174.09495544433594 96.42548370361328 174.63726806640625 111.03878784179688 194.34922790527344 C 96.38213348388672 171.46566772460938 94.49407958984375 177.06781005859375 97.36528778076172 159.8896484375" stroke-width="2.0" fill="none" stroke="rgb(0, 0, 0)" stroke-opacity="1" stroke-linecap="round" stroke-linejoin="round"/>
    <path d="M 143.68899536132812 189.4893798828125 C 156.8329620361328 203.65660095214844 145.48971557617188 175.54388427734375 134.24375915527344 188.1620635986328 C 145.17921447753906 217.05392456054688 143.78514099121094 183.69261169433594 134.19309997558594 186.02252197265625 C 149.62025451660156 165.22079467773438 156.85321044921875 190.89598083496094 122.95751190185547 160.70919799804688" stroke-width="2.0" fill="none" stroke="rgb(0, 0, 0)" stroke-opacity="1" stroke-linecap="round" stroke-linejoin="round"/>
    <path d="M 51.475650787353516 217.7751007080078 C 57.744930267333984 191.36102294921875 37.43800735473633 222.2970428466797 55.87394332885742 217.74461364746094 C 47.81270217895508 194.86773681640625 63.03338623046875 223.6053924560547 49.71147537231445 209.6726837158203" stroke-width="2.0" fill="none" stroke="rgb(0, 0, 0)" stroke-opacity="1" stroke-linecap="round" stroke-linejoin="round"/>
    <path d="M 14.748739242553711 138.19691467285156 C 19.731412887573242 120.23486328125 7.674317359924316 149.04299926757812 -9.206719398498535 160.40194702148438 C -8.829850196838379 120.3023910522461 -4.733962059020996 119.66725158691406 -3.903773784637451 85.3201675415039" stroke-width="2.0" fill="none" stroke="rgb(0, 0, 0)" stroke-opacity="1" stroke-linecap="round" stroke-linejoin="round"/>
    <path d="M 44.34360885620117 133.17947387695312 C 44.290435791015625 115.69607543945312 30.003416061401367 130.91073608398438 2.3858094215393066 134.5808563232422" stroke-width="2.0" fill="none" stroke="rgb(0, 0, 0)" stroke-opacity="1" stroke-linecap="round" stroke-linejoin="round"/>
    <path d="M 80.29142761230469 90.49195861816406 C 90.50557708740234 134.09365844726562 84.28321838378906 100.94034576416016 89.81846618652344 70.2029037475586 C 122.02784729003906 35.536808013916016 107.3424301147461 58.00645065307617 117.56898498535156 49.72795104980469" stroke-width="2.0" fill="none" stroke="rgb(0, 0, 0)" stroke-opacity="1" stroke-linecap="round" stroke-linejoin="round"/>
    <path d="M -1.7334603071212769 93.29983520507812 C 10.12353515625 47.78798294067383 4.256618976593018 45.33671569824219 -1.4229047298431396 5.286590099334717 C 1.5937031507492065 41.425174713134766 20.081035614013672 61.86146926879883 28.288536071777344 73.5273666381836" stroke-width="2.0" fill="none" stroke="rgb(0, 0, 0)" stroke-opacity="1" stroke-linecap="round" stroke-linejoin="round"/>
    <path d="M 73.12055969238281 52.006404876708984 C 65.30261993408203 38.21049880981445 80.26123809814453 70.44476318359375 76.97563171386719 65.57190704345703 C 80.60641479492188 72.43180847167969 83.6715087890625 74.42695617675781 73.36326599121094 50.909339904785156 C 66.44100189208984 44.94675064086914 87.37145233154297 44.14830780029297 62.146080017089844 57.457584381103516" stroke-width="2.0" fill="none" stroke="rgb(0, 0, 0)" stroke-opacity="1" stroke-linecap="round" stroke-linejoin="round"/>
    <path d="M 165.7271728515625 177.44223022460938 C 173.6188201904297 169.2651824951172 145.5745391845703 172.3276824951172 155.03579711914062 187.03628540039062 C 167.228271484375 149.0048370361328 171.83291625976562 183.09140014648438 161.7187042236328 158.51608276367188" stroke-width="2.0" fill="none" stroke="rgb(0, 0, 0)" stroke-opacity="1" stroke-linecap="round" stroke-linejoin="round"/>
    <path d="M 111.68231201171875 111.34355163574219 C 87.62197875976562 53.30015182495117 86.86170196533203 100.08790588378906 111.34321594238281 111.8194580078125 C 100.64041900634766 108.10681915283203 90.48915100097656 68.9737548828125 123.93049621582031 94.8161392211914" stroke-width="2.0" fill="none" stroke="rgb(0, 0, 0)" stroke-opacity="1" stroke-linecap="round" stroke-linejoin="round"/>
    <path d="M 134.75674438476562 170.19956970214844 C 154.9966278076172 191.6749725341797 171.0814666748047 194.62640380859375 158.60227966308594 188.83737182617188 C 160.1170654296875 189.40267944335938 165.05340576171875 163.7536163330078 161.0868377685547 180.51779174804688" stroke-width="2.0" fill="none" stroke="rgb(0, 0, 0)" stroke-opacity="1" stroke-linecap="round" stroke-linejoin="round"/>
    <path d="M 175.37498474121094 191.11863708496094 C 189.08169555664062 159.2772979736328 185.97203063964844 181.35372924804688 193.5020294189453 206.6983184814453 C 180.1447296142578 186.95272827148438 147.55482482910156 175.6439208984375 161.8937225341797 178.39144897460938" stroke-width="2.0" fill="none" stroke="rgb(0, 0, 0)" stroke-opacity="1" stroke-linecap="round" stroke-linejoin="round"/>
    <path d="M 57.34784698486328 29.104408264160156 C 91.45130920410156 0.28201213479042053 90.3358154296875 15.791812896728516 90.1989517211914 6.09897518157959" stroke-width="2.0" fill="none" stroke="rgb(0, 0, 0)" stroke-opacity="1" stroke-linecap="round" stroke-linejoin="round"/>
    <path d="M 15.750782012939453 45.438804626464844 C 3.107910633087158 22.29108428955078 8.300176620483398 8.354606628417969 20.78546905517578 22.132461547851562 C 27.78767204284668 6.465910911560059 23.232210159301758 33.221275329589844 8.849532127380371 49.81393814086914" stroke-width="2.0" fill="none" stroke="rgb(0, 0, 0)" stroke-opacity="1" stroke-linecap="round" stroke-linejoin="round"/>
    <path d="M 80.23465728759766 131.36007690429688 C 51.52712631225586 113.60523223876953 64.04753875732422 107.05994415283203 33.24290466308594 122.17507934570312 C 49.217987060546875 113.78402709960938 39.6891975402832 127.91492462158203 23.51974868774414 130.10398864746094 C 47.516910552978516 142.49745178222656 68.58029174804688 160.34158325195312 64.5402603149414 139.8753204345703" stroke-width="2.0" fill="none" stroke="rgb(0, 0, 0)" stroke-opacity="1" stroke-linecap="round" stroke-linejoin="round"/>
    <path d="M 32.419246673583984 62.26350021362305 C 25.898855209350586 48.316890716552734 1.435325264930725 31.80675506591797 9.943193435668945 40.53423309326172 C 39.12226486206055 81.41963195800781 17.68476676940918 37.359291076660156 7.504115104675293 62.94808578491211 C 25.29549789428711 89.94581604003906 -3.5822994709014893 58.92509841918945 8.819843292236328 77.47112274169922" stroke-width="2.0" fill="none" stroke="rgb(0, 0, 0)" stroke-opacity="1" stroke-linecap="round" stroke-linejoin="round"/>
    <path d="M 211.92025756835938 225.38226318359375 C 215.07997131347656 201.13461303710938 232.17373657226562 219.36639404296875 215.6448974609375 187.0725860595703 C 224.98611450195312 200.4259796142578 217.50906372070312 217.08807373046875 226.12474060058594 225.19827270507812 C 206.1614532470703 216.0098114013672 234.72503662109375 202.59669494628906 210.5608367919922 217.4774932861328" stroke-width="2.0" fill="none" stroke="rgb(0, 0, 0)" stroke-opacity="1" stroke-linecap="round" stroke-linejoin="round"/>
    <path d="M 47.05717086791992 29.103031158447266 C 52.391448974609375 30.38973617553711 31.960216522216797 16.806129455566406 55.22190856933594 45.596580505371094" stroke-width="2.0" fill="none" stroke="rgb(0, 0, 0)" stroke-opacity="1" stroke-linecap="round" stroke-linejoin="round"/>
    <path d="M 187.6072235107422 142.32583618164062 C 178.9457244873047 162.90489196777344 220.84124755859375 144.0518798828125 196.36566162109375 161.54537963867188 C 204.36912536621094 141.05137634277344 195.61737060546875 127.98590850830078 224.00294494628906 183.04296875" stroke-width="2.0" fill="none" stroke="rgb(0, 0, 0)" stroke-opacity="1" stroke-linecap="round" stroke-linejoin="round"/>
    <path d="M 123.1030502319336 36.16737365722656 C 109.84232330322266 42.73684310913086 117.68199920654297 20.293657302856445 106.05348205566406 25.56145668029785 C 83.92423248291016 39.331172943115234 96.40738677978516 8.29920768737793 90.71037292480469 25.470718383789062" stroke-width="2.0" fill="none" stroke="rgb(0, 0, 0)" stroke-opacity="1" stroke-linecap="round" stroke-linejoin="round"/>
    <path d="M 117.38581848144531 21.936670303344727 C 116.70693969726562 27.10536003112793 125.6377182006836 34.707763671875 106.95177459716797 58.701107025146484 C 110.5600814819336 45.72056579589844 91.13890075683594 32.97159957885742 104.90187072753906 31.34205436706543 C 130.97975158691406 11.430322647094727 89.13624572753906 26.67161750793457 95.57121276855469 27.747821807861328" stroke-width="2.0" fill="none" stroke="rgb(0, 0, 0)" stroke-opacity="1" stroke-linecap="round" stroke-linejoin="round"/>
    <path d="M 6.818515777587891 177.5444793701172 C 5.572728157043457 204.6270751953125 26.980371475219727 162.27317810058594 3.5142745971679688 160.45870971679688 C 6.513838768005371 165.2189483642578 26.214759826660156 167.73077392578125 19.78162956237793 174.00999450683594 C 3.2583694458007812 165.11212158203125 1.9523382186889648 174.4311065673828 17.337886810302734 170.5655975341797" stroke-width="2.0" fill="none" stroke="rgb(0, 0, 0)" stroke-opacity="1" stroke-linecap="round" stroke-linejoin="round"/>
    <path d="M 77.39922332763672 34.43377685546875 C 92.6791763305664 51.018497467041016 80.94888305664062 40.745262145996094 66.22115325927734 17.14901351928711 C 91.2280044555664 12.16435718536377 94.44435119628906 -3.5084755420684814 71.8421630859375 19.268762588500977 C 83.6878662109375 29.55010414123535 70.50558471679688 22.92666244506836 77.06253051757812 9.690040588378906" stroke-width="2.0" fill="none" stroke="rgb(0, 0, 0)" stroke-opacity="1" stroke-linecap="round" stroke-linejoin="round"/>
    <path d="M 64.6139144897461 157.05784606933594 C 50.7528076171875 133.27015686035156 78.96946716308594 134.61990356445312 58.12803649902344 155.5856475830078 C 70.6014175415039 172.98394775390625 72.5948486328125 135.84332275390625 88.62108612060547 150.87820434570312 C 70.68494415283203 138.923095703125 72.58509063720703 112.95814514160156 95.96080017089844 149.80711364746094" stroke-width="2.0" fill="none" stroke="rgb(0, 0, 0)" stroke-opacity="1" stroke-linecap="round" stroke-linejoin="round"/>
    <path d="M 147.11874389648438 142.5555419921875 C 171.56158447265625 165.22781372070312 156.7975311279297 174.83546447753906 169.67991638183594 168.02796936035156 C 153.50111389160156 152.26251220703125 173.44090270996094 166.87710571289062 185.9129180908203 178.63357543945312 C 178.3382110595703 191.54208374023438 163.32574462890625 177.132568359375 182.28529357910156 173.7630157470703" stroke-width="2.0" fill="none" stroke="rgb(0, 0, 0)" stroke-opacity="1" stroke-linecap="round" stroke-linejoin="round"/>
    <path d="M 154.53350830078125 9.384995460510254 C 161.06878662109375 -10.606999397277832 145.49136352539062 15.223520278930664 144.52792358398438 11.374801635742188 C 168.56201171875 14.46790599822998 155.44972229003906 18.774635314941406 172.48049926757812 9.208828926086426 C 154.8489532470703 1.7046148777008057 153.07127380371094 6.5291547775268555 147.377197265625 -5.565948963165283" stroke-width="2.0" fill="none" stroke="rgb(0, 0, 0)" stroke-opacity="1" stroke-linecap="round" stroke-linejoin="round"/>
    <path d="M 143.16395568847656 55.446556091308594 C 123.40291595458984 25.232227325439453 114.90937805175781 45.983367919921875 131.35923767089844 31.05889320373535 C 106.75709533691406 55.91997146606445 127.8795166015625 30.938615798950195 111.2279281616211 53.25474166870117 C 124.58238220214844 38.31462478637695 148.79335021972656 20.6280574798584 131.0000457763672 23.047683715820312" stroke-width="2.0" fill="none" stroke="rgb(0, 0, 0)" stroke-opacity="1" stroke-linecap="round" stroke-linejoin="round"/>
    <path d="M 24.27988052368164 17.17106819152832 C 1.6195335388183594 15.430387496948242 -7.343761920928955 10.05070972442627 23.4544620513916 15.276086807250977" stroke-width="2.0" fill="none" stroke="rgb(0, 0, 0)" stroke-opacity="1" stroke-linecap="round" stroke-linejoin="round"/>
    <path d="M 112.94695281982422 5.436427593231201 C 78.8309326171875 21.48373794555664 65.72079467773438 15.2407865524292 73.2179946899414 27.699220657348633" stroke-width="2.0" fill="none" stroke="rgb(0, 0, 0)" stroke-opacity="1" stroke-linecap="round" stroke-linejoin="round"/>
    <path d="M 121.09075927734375 167.4191131591797 C 125.3965072631836 152.4070281982422 145.35765075683594 182.58360290527344 157.9574737548828 188.11753845214844 C 130.25137329101562 161.98057556152344 132.3502197265625 164.0915985107422 157.83059692382812 176.61509704589844" stroke-width="2.0" fill="none" stroke="rgb(0, 0, 0)" stroke-opacity="1" stroke-linecap="round" stroke-linejoin="round"/>
    <path d="M 187.28759765625 204.62242126464844 C 177.98281860351562 189.26007080078125 190.91143798828125 206.34719848632812 201.09805297851562 191.93807983398438 C 203.45411682128906 207.868408203125 226.37249755859375 158.5329132080078 229.8241729736328 179.2601318359375" stroke-width="2.0" fill="none" stroke="rgb(0, 0, 0)" stroke-opacity="1" stroke-linecap="round" stroke-linejoin="round"/>
    <path d="M -5.9976067543029785 49.828330993652344 C -6.986674785614014 68.24141693115234 -13.837615013122559 83.0357437133789 -0.4397197663784027 85.06179809570312 C 14.879781723022461 76.10790252685547 -0.7996088266372681 72.89532470703125 -7.889171600341797 126.46747589111328" stroke-width="2.0" fill="none" stroke="rgb(0, 0, 0)" stroke-opacity="1" stroke-linecap="round" stroke-linejoin="round"/>
    <path d="M 93.41700744628906 29.34769058227539 C 96.62635803222656 10.017683982849121 85.4059829711914 33.18683624267578 113.36502075195312 10.21162223815918 C 129.3350067138672 3.6861307621002197 92.23751831054688 -23.43035888671875 106.87923431396484 17.42249298095703 C 103.15388488769531 -2.8846094608306885 101.7063217163086 6.309374809265137 129.88436889648438 -0.2630481421947479" stroke-width="2.0" fill="none" stroke="rgb(0, 0, 0)" stroke-opacity="1" stroke-linecap="round" stroke-linejoin="round"/>
    <path d="M 96.65618133544922 147.09805297851562 C 83.77011108398438 136.92367553710938 69.83878326416016 121.00189208984375 76.4184799194336 149.76266479492188 C 116.21282196044922 133.7079620361328 55.687278747558594 133.2732696533203 72.5438232421875 127.1039810180664 C 103.06369018554688 143.61659240722656 84.6014633178711 141.712158203125 81.90782928466797 136.36154174804688" stroke-width="2.0" fill="none" stroke="rgb(0, 0, 0)" stroke-opacity="1" stroke-linecap="round" stroke-linejoin="round"/>
    <path d="M 95.70104217529297 5.023508548736572 C 87.33464813232422 -15.27681827545166 90.38449096679688 0.5043893456459045 91.9925308227539 -3.357929229736328 C 114.99725341796875 -10.152532577514648 108.76190185546875 -15.570481300354004 89.3057632446289 -4.7768635749816895 C 89.77093505859375 -16.255084991455078 70.11019134521484 -14.37364673614502 59.34398651123047 -6.064863204956055" stroke-width="2.0" fill="none" stroke="rgb(0, 0, 0)" stroke-opacity="1" stroke-linecap="round" stroke-linejoin="round"/>
    <path d="M 33.098236083984375 127.75334930419922 C 52.79405212402344 156.59092712402344 65.31541442871094 171.09327697753906 68.609375 163.8376922607422 C 84.14718627929688 184.2230682373047 74.87932586669922 135.21263122558594 53.48500442504883 183.75067138671875 C 64.57377624511719 193.59881591796875 98.34319305419922 211.42909240722656 79.10350799560547 208.8315887451172" stroke-width="2.0" fill="none" stroke="rgb(0, 0, 0)" stroke-opacity="1" stroke-linecap="round" stroke-linejoin="round"/>
    <path d="M 14.772095680236816 141.32269287109375 C 44.810855865478516 116.62622833251953 32.10462188720703 121.66228485107422 41.89008331298828 132.87258911132812 C 30.626115798950195 138.5054931640625 20.975852966308594 162.07566833496094 45.18882369995117 139.26255798339844 C 50.35686492919922 134.00653076171875 40.799278259277344 138.1246795654297 31.77465057373047 158.2827606201172" stroke-width="2.0" fill="none" stroke="rgb(0, 0, 0)" stroke-opacity="1" stroke-linecap="round" stroke-linejoin="round"/>
    <path d="M 4.1711249351501465 77.15843200683594 C -9.08942699432373 103.73331451416016 -4.0149407386779785 101.7612075805664 -9.951902389526367 94.25933074951172 C -5.91141414642334 115.57421112060547 -8.959515571594238 111.11431884765625 -9.022611618041992 97.15150451660156" stroke-width="2.0" fill="none" stroke="rgb(0, 0, 0)" stroke-opacity="1" stroke-linecap="round" stroke-linejoin="round"/>
    <path d="M 151.00462341308594 24.18196678161621 C 116.58870697021484 52.00770950317383 151.866943359375 23.516735076904297 150.82386779785156 28.269792556762695 C 141.2399444580078 34.21107864379883 127.18492126464844 -10.733036994934082 141.42987060546875 30.516653060913086" stroke-width="2.0" fill="none" stroke="rgb(0, 0, 0)" stroke-opacity="1" stroke-linecap="round" stroke-linejoin="round"/>
    <path d="M 159.1150665283203 39.398860931396484 C 172.80836486816406 20.359676361083984 170.8292236328125 29.826379776000977 188.03433227539062 44.90449523925781" stroke-width="2.0" fill="none" stroke="rgb(0, 0, 0)" stroke-opacity="1" stroke-linecap="round" stroke-linejoin="round"/>
    <path d="M 109.46845245361328 182.554443359375 C 91.02828216552734 157.00192260742188 94.84142303466797 149.8482666015625 107.92328643798828 187.47007751464844 C 89.2317886352539 147.58612060546875 93.04244232177734 150.33819580078125 102.74136352539062 185.61256408691406" stroke-width="2.0" fill="none" stroke="rgb(0, 0, 0)" stroke-opacity="1" stroke-linecap="round" stroke-linejoin="round"/>
    <path d="M 69.95793914794922 57.125 C 60.20220947265625 62.17577362060547 86.0196533203125 29.529300689697266 90.84051513671875 63.80007553100586" stroke-width="2.0" fill="none" stroke="rgb(0, 0, 0)" stroke-opacity="1" stroke-linecap="round" stroke-linejoin="round"/>
    <path d="M 185.37306213378906 25.411691665649414 C 180.94833374023438 31.38297462463379 181.19703674316406 6.566386699676514 164.02439880371094 45.116668701171875 C 190.1359405517578 65.9108657836914 200.72067260742188 69.68484497070312 209.31460571289062 84.4068374633789 C 180.6781463623047 61.81963348388672 197.85888671875 44.12697219848633 185.8863067626953 65.68888092041016" stroke-width="2.0" fill="none" stroke="rgb(0, 0, 0)" stroke-opacity="1" stroke-linecap="round" stroke-linejoin="round"/>
    <path d="M 93.11132049560547 91.24212646484375 C 73.54667663574219 101.5560302734375 48.72964096069336 111.95883178710938 85.61319732666016 91.09290313720703 C 79.11436462402344 93.83786010742188 88.32109832763672 65.83111572265625 85.21265411376953 90.4078598022461 C 67.2001953125 93.6468505859375 69.17434692382812 83.39424133300781 69.11354064941406 111.15948486328125" stroke-width="2.0" fill="none" stroke="rgb(0, 0, 0)" stroke-opacity="1" stroke-linecap="round" stroke-linejoin="round"/>
    <path d="M 13.72513484954834 40.345428466796875 C 28.52526092529297 45.85123062133789 30.764896392822266 51.4693717956543 7.89619779586792 30.248260498046875 C 28.209487915039062 37.419918060302734 32.74667739868164 37.20948028564453 59.78253936767578 67.85874938964844 C 25.808107376098633 28.327362060546875 45.78511047363281 23.11431121826172 10.79755973815918 50.305423736572266" stroke-width="2.0" fill="none" stroke="rgb(0, 0, 0)" stroke-opacity="1" stroke-linecap="round" stroke-linejoin="round"/>
  </g>
</svg>
