<?xml version="1.0" ?>
<svg xmlns="http://www.w3.org/2000/svg" version="1.1" width="224" height="224">
  <defs/>
  <g>
    <path d="M 42.59934616088867 126.12541198730469 C 38.408897399902344 117.31680297851562 49.292388916015625 109.02404022216797 68.48342895507812 142.10525512695312 C 69.09834289550781 137.4499053955078 53.86967086791992 129.8522491455078 44.95329666137695 90.71131134033203" stroke-width="2.0" fill="none" stroke="rgb(0, 0, 0)" stroke-opacity="1" stroke-linecap="round" stroke-linejoin="round"/>
    <path d="M 97.76122283935547 -4.972641944885254 C 120.69889831542969 3.964128255844116 137.8072509765625 2.731440544128418 147.30686950683594 -6.806336402893066" stroke-width="2.0" fill="none" stroke="rgb(0, 0, 0)" stroke-opacity="1" stroke-linecap="round" stroke-linejoin="round"/>
    <path d="M -1.187324047088623 5.8062663078308105 C 16.838481903076172 66.05724334716797 -5.658408164978027 84.36176300048828 -12.799287796020508 72.34866333007812 C -2.7818384170532227 53.883052825927734 -3.0151798725128174 59.25617599487305 -12.92222785949707 67.9049072265625" stroke-width="2.0" fill="none" stroke="rgb(0, 0, 0)" stroke-opacity="1" stroke-linecap="round" stroke-linejoin="round"/>
    <path d="M 72.01658630371094 227.5186309814453 C 62.250118255615234 226.10845947265625 81.8253173828125 218.6607666015625 87.91141510009766 225.97666931152344 C 100.994873046875 212.79312133789062 95.61920166015625 221.76963806152344 76.45852661132812 204.32708740234375 C 80.79046630859375 198.1561737060547 103.13294219970703 208.57908630371094 78.29739379882812 203.42225646972656" stroke-width="2.0" fill="none" stroke="rgb(0, 0, 0)" stroke-opacity="1" stroke-linecap="round" stroke-linejoin="round"/>
    <path d="M 52.823646545410156 150.80364990234375 C 46.56759262084961 180.14517211914062 16.87786293029785 192.1128692626953 7.753768444061279 188.45187377929688 C 5.08488655090332 190.98806762695312 8.495220184326172 185.09555053710938 6.791197776794434 159.19313049316406" stroke-width="2.0" fill="none" stroke="rgb(0, 0, 0)" stroke-opacity="1" stroke-linecap="round" stroke-linejoin="round"/>
    <path d="M 11.510780334472656 212.62661743164062 C 46.620731353759766 218.16041564941406 38.73540115356445 197.87298583984375 6.464083671569824 193.62713623046875 C -7.312917232513428 222.902099609375 -3.964101791381836 205.22427368164062 0.782622754573822 169.41839599609375" stroke-width="2.0" fill="none" stroke="rgb(0, 0, 0)" stroke-opacity="1" stroke-linecap="round" stroke-linejoin="round"/>
    <path d="M 147.3515625 190.2086639404297 C 159.2005615234375 184.12911987304688 145.76535034179688 189.6513214111328 152.3158416748047 188.69049072265625 C 149.0579071044922 202.9520721435547 176.1278839111328 204.4229736328125 149.26760864257812 215.1748504638672 C 141.777099609375 220.62474060058594 175.3685302734375 217.43331909179688 160.81190490722656 234.2192840576172" stroke-width="2.0" fill="none" stroke="rgb(0, 0, 0)" stroke-opacity="1" stroke-linecap="round" stroke-linejoin="round"/>
    <path d="M 27.909244537353516 151.853759765625 C 2.578165292739868 120.81871795654297 33.3421630859375 115.03939056396484 29.938791275024414 116.44691467285156 C 27.710926055908203 126.76085662841797 64.35758972167969 137.4237518310547 69.83726501464844 123.29008483886719" stroke-width="2.0" fill="none" stroke="rgb(0, 0, 0)" stroke-opacity="1" stroke-linecap="round" stroke-linejoin="round"/>
    <path d="M 76.18777465820312 153.2960662841797 C 108.66897583007812 144.6765899658203 80.66498565673828 144.4213104248047 96.06675720214844 154.15301513671875" stroke-width="2.0" fill="none" stroke="rgb(0, 0, 0)" stroke-opacity="1" stroke-linecap="round" stroke-linejoin="round"/>
    <path d="M 158.74908447265625 174.9317626953125 C 166.72837829589844 201.90362548828125 201.7984161376953 180.1307830810547 167.5603790283203 167.96311950683594 C 166.1107635498047 165.3068389892578 193.74261474609375 158.5952911376953 210.456787109375 178.4931182861328 C 184.95167541503906 171.31649780273438 183.44589233398438 147.95220947265625 159.4731903076172 144.6086883544922" stroke-width="2.0" fill="none" stroke="rgb(0, 0, 0)" stroke-opacity="1" stroke-linecap="round" stroke-linejoin="round"/>
    <path d="M 158.0959014892578 -0.1776915192604065 C 200.43348693847656 7.127532958984375 212.9351043701172 -12.839231491088867 185.9502716064453 -1.228548526763916 C 165.66049194335938 -17.827367782592773 160.15618896484375 -7.261377811431885 158.29151916503906 -9.357280731201172 C 188.4877471923828 -19.666889190673828 197.29466247558594 -25.662809371948242 198.3943634033203 -35.6315803527832" stroke-width="2.0" fill="none" stroke="rgb(0, 0, 0)" stroke-opacity="1" stroke-linecap="round" stroke-linejoin="round"/>
    <path d="M 126.7431869506836 134.40960693359375 C 160.1022186279297 143.7885284423828 121.49271392822266 127.953369140625 140.40090942382812 159.2284698486328 C 97.93882751464844 163.09210205078125 126.06312561035156 152.59988403320312 80.9437484741211 159.02975463867188 C 105.86304473876953 138.1508331298828 132.75572204589844 173.7748565673828 109.87476348876953 142.25025939941406" stroke-width="2.0" fill="none" stroke="rgb(0, 0, 0)" stroke-opacity="1" stroke-linecap="round" stroke-linejoin="round"/>
    <path d="M 23.996875762939453 155.01710510253906 C 20.290172576904297 128.7730255126953 30.37967872619629 119.62596130371094 23.705766677856445 123.15341186523438 C 11.025559425354004 152.70599365234375 23.336429595947266 156.27993774414062 45.62435531616211 166.59869384765625 C 42.2930908203125 157.60879516601562 26.088581085205078 170.6581268310547 56.010955810546875 199.58575439453125" stroke-width="2.0" fill="none" stroke="rgb(0, 0, 0)" stroke-opacity="1" stroke-linecap="round" stroke-linejoin="round"/>
    <path d="M 78.5845718383789 146.2759552001953 C 74.4744873046875 158.20938110351562 64.72242736816406 135.50619506835938 43.41899871826172 131.83154296875" stroke-width="2.0" fill="none" stroke="rgb(0, 0, 0)" stroke-opacity="1" stroke-linecap="round" stroke-linejoin="round"/>
    <path d="M 143.78927612304688 206.8216094970703 C 118.60736846923828 209.98590087890625 117.41577911376953 179.61561584472656 107.10575103759766 204.54995727539062 C 117.13997650146484 209.6630096435547 125.26536560058594 224.3666229248047 125.86151885986328 240.2356719970703" stroke-width="2.0" fill="none" stroke="rgb(0, 0, 0)" stroke-opacity="1" stroke-linecap="round" stroke-linejoin="round"/>
    <path d="M 167.09413146972656 67.27397155761719 C 197.9778594970703 94.30207061767578 172.9143524169922 94.70206451416016 165.89703369140625 79.47592163085938 C 166.13284301757812 85.31916046142578 135.55404663085938 87.77769470214844 142.74176025390625 60.882286071777344" stroke-width="2.0" fill="none" stroke="rgb(0, 0, 0)" stroke-opacity="1" stroke-linecap="round" stroke-linejoin="round"/>
    <path d="M 184.9716339111328 54.80091094970703 C 149.38430786132812 38.304141998291016 112.59352111816406 39.79729461669922 142.9044647216797 25.101518630981445" stroke-width="2.0" fill="none" stroke="rgb(0, 0, 0)" stroke-opacity="1" stroke-linecap="round" stroke-linejoin="round"/>
    <path d="M 150.3103485107422 78.68231201171875 C 158.6223602294922 83.49324798583984 140.97430419921875 90.56572723388672 139.7437286376953 59.26130294799805" stroke-width="2.0" fill="none" stroke="rgb(0, 0, 0)" stroke-opacity="1" stroke-linecap="round" stroke-linejoin="round"/>
    <path d="M 103.68809509277344 57.491058349609375 C 126.70757293701172 78.20295715332031 108.09071350097656 43.11514663696289 140.91493225097656 61.9512825012207" stroke-width="2.0" fill="none" stroke="rgb(0, 0, 0)" stroke-opacity="1" stroke-linecap="round" stroke-linejoin="round"/>
    <path d="M 101.26071166992188 199.53182983398438 C 102.02852630615234 192.66754150390625 106.55829620361328 202.56593322753906 90.81248474121094 195.64402770996094 C 102.81578826904297 214.18344116210938 64.84700775146484 207.7532501220703 44.18788528442383 182.54364013671875 C 89.73649597167969 197.56112670898438 94.34597778320312 191.10205078125 79.33573150634766 187.89332580566406" stroke-width="2.0" fill="none" stroke="rgb(0, 0, 0)" stroke-opacity="1" stroke-linecap="round" stroke-linejoin="round"/>
    <path d="M 135.229248046875 154.45858764648438 C 134.84912109375 192.18673706054688 113.65766143798828 174.85765075683594 111.61734771728516 174.6773223876953 C 105.97384643554688 183.54586791992188 113.87207794189453 178.64654541015625 91.4765396118164 172.1825714111328 C 87.54872131347656 160.837646484375 105.56134033203125 160.75479125976562 75.93948364257812 161.4757843017578" stroke-width="2.0" fill="none" stroke="rgb(0, 0, 0)" stroke-opacity="1" stroke-linecap="round" stroke-linejoin="round"/>
    <path d="M 52.00629806518555 177.76878356933594 C 77.25484466552734 173.18833923339844 50.16009521484375 166.93789672851562 68.6629409790039 182.7950897216797 C 66.5004653930664 188.1781463623047 64.6596908569336 192.6401824951172 42.93750762939453 177.8807830810547 C 61.08970260620117 196.3603057861328 49.91087341308594 171.94866943359375 39.89911651611328 173.6280059814453" stroke-width="2.0" fill="none" stroke="rgb(0, 0, 0)" stroke-opacity="1" stroke-linecap="round" stroke-linejoin="round"/>
    <path d="M 12.126730918884277 39.37434387207031 C 31.117555618286133 45.96440505981445 56.76982498168945 52.82693099975586 34.26250457763672 57.146793365478516 C 21.535053253173828 46.00188064575195 20.98760414123535 33.197601318359375 10.482887268066406 22.805471420288086" stroke-width="2.0" fill="none" stroke="rgb(0, 0, 0)" stroke-opacity="1" stroke-linecap="round" stroke-linejoin="round"/>
    <path d="M 166.08145141601562 66.24015808105469 C 196.01510620117188 64.79703521728516 189.8730926513672 78.17931365966797 160.73260498046875 79.75372314453125 C 177.31663513183594 83.63884735107422 179.8248748779297 65.5400619506836 152.25250244140625 66.01117706298828" stroke-width="2.0" fill="none" stroke="rgb(0, 0, 0)" stroke-opacity="1" stroke-linecap="round" stroke-linejoin="round"/>
    <path d="M 155.92495727539062 196.79786682128906 C 203.3560028076172 209.9634552001953 189.23446655273438 209.6699676513672 217.71156311035156 207.52529907226562 C 217.25697326660156 205.722412109375 201.45240783691406 175.3687744140625 200.73411560058594 178.8099822998047 C 185.0885772705078 171.5218048095703 171.48104858398438 155.73538208007812 215.24850463867188 159.8029327392578" stroke-width="2.0" fill="none" stroke="rgb(0, 0, 0)" stroke-opacity="1" stroke-linecap="round" stroke-linejoin="round"/>
    <path d="M 180.62515258789062 185.2585906982422 C 168.24058532714844 181.0895538330078 172.81854248046875 182.3839874267578 159.8616943359375 171.40501403808594" stroke-width="2.0" fill="none" stroke="rgb(0, 0, 0)" stroke-opacity="1" stroke-linecap="round" stroke-linejoin="round"/>
    <path d="M 33.4578857421875 226.79347229003906 C 24.976016998291016 217.63864135742188 9.120559692382812 225.4033660888672 5.888245582580566 243.5945281982422 C -1.2198946475982666 236.21865844726562 -4.991107940673828 225.03631591796875 0.22999754548072815 231.2327880859375 C -0.4551393389701843 242.1967010498047 2.277714967727661 252.91879272460938 -5.663920879364014 263.1463928222656" stroke-width="2.0" fill="none" stroke="rgb(0, 0, 0)" stroke-opacity="1" stroke-linecap="round" stroke-linejoin="round"/>
    <path d="M 26.47998809814453 110.70612335205078 C 41.768978118896484 86.40052795410156 35.40984344482422 88.34622192382812 20.33011817932129 92.92898559570312 C 16.892179489135742 88.1353530883789 23.27753448486328 113.99993133544922 -2.2648367881774902 91.30635833740234" stroke-width="2.0" fill="none" stroke="rgb(0, 0, 0)" stroke-opacity="1" stroke-linecap="round" stroke-linejoin="round"/>
    <path d="M 118.49779510498047 171.04393005371094 C 99.61905670166016 183.617919921875 105.00852966308594 187.16635131835938 111.6296615600586 174.05023193359375 C 102.47921752929688 160.67562866210938 97.6686019897461 184.31878662109375 95.74847412109375 183.8831024169922 C 53.541351318359375 191.57342529296875 89.0403823852539 190.30279541015625 80.1932601928711 179.4140625" stroke-width="2.0" fill="none" stroke="rgb(0, 0, 0)" stroke-opacity="1" stroke-linecap="round" stroke-linejoin="round"/>
    <path d="M 88.01438903808594 26.818986892700195 C 106.0166015625 28.31621551513672 113.56976318359375 28.175851821899414 106.38780212402344 18.270477294921875 C 112.74171447753906 32.714115142822266 134.9300994873047 27.860050201416016 143.94105529785156 32.18778610229492" stroke-width="2.0" fill="none" stroke="rgb(0, 0, 0)" stroke-opacity="1" stroke-linecap="round" stroke-linejoin="round"/>
    <path d="M 41.468597412109375 109.6722640991211 C 63.98197555541992 96.32406616210938 43.74492645263672 115.77653503417969 47.990047454833984 119.286865234375 C 73.22920227050781 138.80836486816406 56.895957946777344 124.381591796875 39.46628189086914 134.830810546875 C 27.247587203979492 134.5236358642578 30.76198387145996 166.3174285888672 30.74999237060547 137.24066162109375" stroke-width="2.0" fill="none" stroke="rgb(0, 0, 0)" stroke-opacity="1" stroke-linecap="round" stroke-linejoin="round"/>
    <path d="M 209.01612854003906 143.5674285888672 C 178.3157196044922 129.26454162597656 197.29335021972656 132.35574340820312 209.3411865234375 159.3136749267578" stroke-width="2.0" fill="none" stroke="rgb(0, 0, 0)" stroke-opacity="1" stroke-linecap="round" stroke-linejoin="round"/>
    <path d="M 55.42927551269531 148.3782196044922 C 80.65460968017578 178.49070739746094 90.9754638671875 153.33090209960938 62.96257400512695 136.880859375 C 69.87213134765625 131.1567840576172 76.22844696044922 133.23104858398438 50.87096405029297 119.56902313232422" stroke-width="2.0" fill="none" stroke="rgb(0, 0, 0)" stroke-opacity="1" stroke-linecap="round" stroke-linejoin="round"/>
    <path d="M 34.816497802734375 202.14125061035156 C 26.76060676574707 228.9617462158203 27.831520080566406 191.2527313232422 23.752058029174805 225.7853546142578" stroke-width="2.0" fill="none" stroke="rgb(0, 0, 0)" stroke-opacity="1" stroke-linecap="round" stroke-linejoin="round"/>
    <path d="M 111.22489166259766 128.62571716308594 C 90.28441619873047 112.19036102294922 106.9691390991211 79.60772705078125 91.14179229736328 125.34037780761719 C 64.99772644042969 125.95976257324219 80.32861328125 131.76904296875 114.9284896850586 141.2272491455078 C 108.07051849365234 124.43601989746094 109.803955078125 138.3866424560547 80.41342163085938 157.4269561767578" stroke-width="2.0" fill="none" stroke="rgb(0, 0, 0)" stroke-opacity="1" stroke-linecap="round" stroke-linejoin="round"/>
    <path d="M 52.90918731689453 76.94540405273438 C 79.70369720458984 85.91971588134766 56.1004753112793 113.4358901977539 62.9581298828125 85.5411148071289" stroke-width="2.0" fill="none" stroke="rgb(0, 0, 0)" stroke-opacity="1" stroke-linecap="round" stroke-linejoin="round"/>
    <path d="M 233.04629516601562 1.3080006837844849 C 217.76956176757812 -8.815107345581055 225.45057678222656 7.403172492980957 207.08175659179688 50.210636138916016" stroke-width="2.0" fill="none" stroke="rgb(0, 0, 0)" stroke-opacity="1" stroke-linecap="round" stroke-linejoin="round"/>
    <path d="M -7.185417652130127 191.3113250732422 C 0.5752254724502563 196.69378662109375 -6.0633111000061035 199.06170654296875 19.209585189819336 204.32223510742188 C 3.330629348754883 165.87435913085938 20.973955154418945 160.20249938964844 11.325909614562988 144.71502685546875 C 0.25204354524612427 145.94761657714844 10.67362117767334 118.44337463378906 -2.3367810249328613 117.36589813232422" stroke-width="2.0" fill="none" stroke="rgb(0, 0, 0)" stroke-opacity="1" stroke-linecap="round" stroke-linejoin="round"/>
    <path d="M 130.6631317138672 64.80979919433594 C 178.6199188232422 75.01319885253906 162.65859985351562 51.81234359741211 166.42123413085938 52.585323333740234 C 154.83145141601562 51.76509475708008 154.5629119873047 44.25736618041992 135.06716918945312 40.93070983886719" stroke-width="2.0" fill="none" stroke="rgb(0, 0, 0)" stroke-opacity="1" stroke-linecap="round" stroke-linejoin="round"/>
    <path d="M 99.2195053100586 51.16853713989258 C 86.93510437011719 60.42927932739258 51.10399627685547 33.85704803466797 67.06709289550781 28.40423583984375 C 127.13799285888672 45.8616828918457 102.2137451171875 4.4514055252075195 67.15745544433594 45.80810546875 C 98.53582000732422 48.66441345214844 97.48298645019531 21.699983596801758 109.1201400756836 48.088470458984375" stroke-width="2.0" fill="none" stroke="rgb(0, 0, 0)" stroke-opacity="1" stroke-linecap="round" stroke-linejoin="round"/>
    <path d="M 170.2628936767578 188.52577209472656 C 159.2580108642578 171.1056365966797 175.82391357421875 194.34022521972656 203.931396484375 194.45111083984375 C 206.34532165527344 204.07302856445312 215.98912048339844 202.7156982421875 193.9056854248047 229.32716369628906" stroke-width="2.0" fill="none" stroke="rgb(0, 0, 0)" stroke-opacity="1" stroke-linecap="round" stroke-linejoin="round"/>
    <path d="M 63.865596771240234 59.98819351196289 C 67.44929504394531 54.20545959472656 62.74733352661133 77.00843048095703 79.55075073242188 86.46803283691406 C 98.7343521118164 97.16222381591797 81.39798736572266 75.36174011230469 100.7042007446289 91.38063049316406" stroke-width="2.0" fill="none" stroke="rgb(0, 0, 0)" stroke-opacity="1" stroke-linecap="round" stroke-linejoin="round"/>
    <path d="M 0.2729990780353546 126.62715911865234 C 1.7594820261001587 145.77426147460938 -10.671878814697266 131.64280700683594 -16.58660316467285 115.29226684570312 C -24.54755401611328 107.2125244140625 -22.397228240966797 100.2872543334961 -3.1136958599090576 91.8350601196289 C 17.66792869567871 122.37476348876953 3.8279614448547363 155.2999725341797 21.010080337524414 117.1713638305664" stroke-width="2.0" fill="none" stroke="rgb(0, 0, 0)" stroke-opacity="1" stroke-linecap="round" stroke-linejoin="round"/>
    <path d="M 146.77542114257812 147.43861389160156 C 159.5360107421875 188.8866424560547 146.0991668701172 151.26809692382812 139.7308807373047 157.8382568359375 C 152.11546325683594 153.91966247558594 154.60940551757812 159.0511474609375 138.4082794189453 158.7972412109375 C 148.1974334716797 171.1975860595703 176.0243682861328 187.42324829101562 150.79270935058594 161.5223846435547" stroke-width="2.0" fill="none" stroke="rgb(0, 0, 0)" stroke-opacity="1" stroke-linecap="round" stroke-linejoin="round"/>
    <path d="M 185.9701690673828 164.05215454101562 C 204.33590698242188 190.8557891845703 206.46804809570312 224.48797607421875 211.02040100097656 223.87698364257812 C 179.23194885253906 211.2445068359375 184.17417907714844 218.1259307861328 177.64859008789062 232.00241088867188 C 182.9399871826172 222.53860473632812 186.24916076660156 233.12197875976562 186.5813446044922 235.5029296875" stroke-width="2.0" fill="none" stroke="rgb(0, 0, 0)" stroke-opacity="1" stroke-linecap="round" stroke-linejoin="round"/>
    <path d="M 87.53267669677734 90.40394592285156 C 82.7611083984375 125.29437255859375 56.34718704223633 105.38329315185547 39.51426696777344 93.16263580322266 C 65.51905059814453 138.2472686767578 87.8740005493164 125.72450256347656 103.79264068603516 137.7177734375 C 56.841182708740234 151.25152587890625 59.87865447998047 145.84243774414062 81.53704833984375 144.464111328125" stroke-width="2.0" fill="none" stroke="rgb(0, 0, 0)" stroke-opacity="1" stroke-linecap="round" stroke-linejoin="round"/>
    <path d="M 134.30702209472656 149.61265563964844 C 130.96282958984375 161.6381072998047 125.26708984375 164.75509643554688 121.25163269042969 155.01329040527344 C 97.26517486572266 157.7821044921875 95.45809173583984 180.2553253173828 78.21846771240234 172.85409545898438" stroke-width="2.0" fill="none" stroke="rgb(0, 0, 0)" stroke-opacity="1" stroke-linecap="round" stroke-linejoin="round"/>
    <path d="M 129.87179565429688 32.82952117919922 C 178.71681213378906 53.31805419921875 184.59231567382812 35.17033004760742 174.52200317382812 46.240562438964844 C 144.04490661621094 48.25988006591797 118.63066101074219 39.87031173706055 148.3126220703125 24.41660499572754" stroke-width="2.0" fill="none" stroke="rgb(0, 0, 0)" stroke-opacity="1" stroke-linecap="round" stroke-linejoin="round"/>
    <path d="M 123.25581359863281 12.465539932250977 C 95.66040802001953 0.16253399848937988 92.3968276977539 -6.152699947357178 100.44110870361328 -17.40955924987793" stroke-width="2.0" fill="none" stroke="rgb(0, 0, 0)" stroke-opacity="1" stroke-linecap="round" stroke-linejoin="round"/>
    <path d="M 130.82080078125 11.268157005310059 C 158.01795959472656 -9.513374328613281 160.12684631347656 4.705717086791992 132.1229705810547 -8.425965309143066 C 87.20980834960938 -10.876823425292969 99.36883544921875 7.178526878356934 136.95675659179688 11.633334159851074 C 167.9266357421875 27.118072509765625 161.0708465576172 36.16265869140625 122.87648010253906 21.518386840820312" stroke-width="2.0" fill="none" stroke="rgb(0, 0, 0)" stroke-opacity="1" stroke-linecap="round" stroke-linejoin="round"/>
    <path d="M 175.18458557128906 23.93000602722168 C 165.03436279296875 13.39285659790039 189.8451385498047 36.275917053222656 194.18606567382812 10.526179313659668 C 198.612060546875 21.592674255371094 196.24404907226562 23.516925811767578 193.96310424804688 8.266802787780762" stroke-width="2.0" fill="none" stroke="rgb(0, 0, 0)" stroke-opacity="1" stroke-linecap="round" stroke-linejoin="round"/>
    <path d="M 141.2995147705078 206.70396423339844 C 170.02005004882812 218.23300170898438 173.87741088867188 217.65469360351562 195.0428009033203 198.4352569580078" stroke-width="2.0" fill="none" stroke="rgb(0, 0, 0)" stroke-opacity="1" stroke-linecap="round" stroke-linejoin="round"/>
    <path d="M 106.58466339111328 76.892333984375 C 105.62816619873047 63.39196014404297 141.21075439453125 77.97392272949219 126.7009048461914 79.8180160522461 C 119.49591064453125 80.85459899902344 146.33616638183594 89.09027862548828 113.27394104003906 84.9027328491211" stroke-width="2.0" fill="none" stroke="rgb(0, 0, 0)" stroke-opacity="1" stroke-linecap="round" stroke-linejoin="round"/>
    <path d="M 140.30398559570312 -1.8895598649978638 C 188.4982452392578 5.81123685836792 205.7243194580078 16.402551651000977 164.84693908691406 12.106226921081543 C 148.81173706054688 -6.1066813468933105 126.14947509765625 0.15702523291110992 143.43197631835938 -26.817228317260742" stroke-width="2.0" fill="none" stroke="rgb(0, 0, 0)" stroke-opacity="1" stroke-linecap="round" stroke-linejoin="round"/>
    <path d="M 190.55018615722656 143.3544464111328 C 163.30043029785156 135.6343536376953 146.9601593017578 102.30819702148438 170.63546752929688 122.22509765625" stroke-width="2.0" fill="none" stroke="rgb(0, 0, 0)" stroke-opacity="1" stroke-linecap="round" stroke-linejoin="round"/>
    <path d="M 150.043212890625 95.86779022216797 C 125.87115478515625 123.74114990234375 117.2275390625 97.80962371826172 140.8942108154297 114.96382904052734 C 192.68641662597656 101.68634796142578 129.9652099609375 106.72494506835938 123.32833862304688 88.49022674560547 C 124.084716796875 111.80419921875 124.92267608642578 101.23282623291016 106.02861785888672 66.00108337402344" stroke-width="2.0" fill="none" stroke="rgb(0, 0, 0)" stroke-opacity="1" stroke-linecap="round" stroke-linejoin="round"/>
    <path d="M 144.4245147705078 -4.64695930480957 C 141.649658203125 2.561610221862793 145.8618621826172 -8.419882774353027 151.07518005371094 -11.588166236877441" stroke-width="2.0" fill="none" stroke="rgb(0, 0, 0)" stroke-opacity="1" stroke-linecap="round" stroke-linejoin="round"/>
    <path d="M 103.401123046875 46.112613677978516 C 98.25135803222656 79.77847290039062 142.1900634765625 76.74119567871094 116.89543914794922 88.41143035888672 C 114.5223617553711 76.05396270751953 122.6244125366211 73.80720520019531 134.89378356933594 85.95136260986328 C 166.51219177246094 89.29631042480469 152.43154907226562 96.65058898925781 126.1907958984375 101.6612319946289" stroke-width="2.0" fill="none" stroke="rgb(0, 0, 0)" stroke-opacity="1" stroke-linecap="round" stroke-linejoin="round"/>
    <path d="M 193.12576293945312 159.4810028076172 C 217.25587463378906 195.58804321289062 190.64578247070312 188.44549560546875 211.3847198486328 188.8736572265625 C 211.00555419921875 170.12139892578125 207.75035095214844 177.23118591308594 226.4138641357422 142.10354614257812 C 212.32815551757812 170.99594116210938 209.96946716308594 186.86932373046875 175.2615966796875 171.46463012695312" stroke-width="2.0" fill="none" stroke="rgb(0, 0, 0)" stroke-opacity="1" stroke-linecap="round" stroke-linejoin="round"/>
    <path d="M 163.4127655029297 193.05979919433594 C 198.82012939453125 211.13076782226562 196.10382080078125 220.8309326171875 208.1924591064453 218.4473114013672 C 218.0751495361328 222.32012939453125 187.65692138671875 212.61676025390625 192.4263916015625 199.05294799804688 C 211.75502014160156 210.45294189453125 214.90147399902344 216.8955535888672 232.8348846435547 221.82208251953125" stroke-width="2.0" fill="none" stroke="rgb(0, 0, 0)" stroke-opacity="1" stroke-linecap="round" stroke-linejoin="round"/>
    <path d="M 226.59982299804688 202.9668426513672 C 213.79232788085938 215.58689880371094 238.0838623046875 216.26304626464844 212.0706024169922 227.03367614746094 C 222.3719940185547 208.7494354248047 217.9929962158203 206.3909912109375 236.25433349609375 197.5833740234375" stroke-width="2.0" fill="none" stroke="rgb(0, 0, 0)" stroke-opacity="1" stroke-linecap="round" stroke-linejoin="round"/>
    <path d="M 101.40169525146484 179.14254760742188 C 95.92790985107422 183.44326782226562 81.42365264892578 193.1934814453125 98.71476745605469 181.55055236816406" stroke-width="2.0" fill="none" stroke="rgb(0, 0, 0)" stroke-opacity="1" stroke-linecap="round" stroke-linejoin="round"/>
    <path d="M 13.151456832885742 116.33456420898438 C 34.20168685913086 97.93460845947266 14.970104217529297 115.9775161743164 29.619699478149414 102.05294799804688 C 34.29192352294922 96.41627502441406 39.85063171386719 87.97211456298828 15.115460395812988 108.90680694580078 C 16.90571403503418 97.43383026123047 9.073634147644043 119.04825592041016 9.217860221862793 104.98622131347656" stroke-width="2.0" fill="none" stroke="rgb(0, 0, 0)" stroke-opacity="1" stroke-linecap="round" stroke-linejoin="round"/>
    <path d="M 93.6703109741211 128.69345092773438 C 82.0169906616211 155.52679443359375 66.10978698730469 118.96208953857422 51.31336212158203 149.33973693847656" stroke-width="2.0" fill="none" stroke="rgb(0, 0, 0)" stroke-opacity="1" stroke-linecap="round" stroke-linejoin="round"/>
    <path d="M -1.353548288345337 208.75965881347656 C 7.789794921875 216.90631103515625 9.746392250061035 208.65821838378906 35.58584213256836 212.71189880371094" stroke-width="2.0" fill="none" stroke="rgb(0, 0, 0)" stroke-opacity="1" stroke-linecap="round" stroke-linejoin="round"/>
    <path d="M 95.98185729980469 53.02232360839844 C 111.03318786621094 35.72810745239258 87.47423553466797 78.33460235595703 57.77208709716797 45.84584045410156" stroke-width="2.0" fill="none" stroke="rgb(0, 0, 0)" stroke-opacity="1" stroke-linecap="round" stroke-linejoin="round"/>
    <path d="M 219.66082763671875 237.19944763183594 C 202.71978759765625 216.5420379638672 204.64988708496094 224.97781372070312 166.4769744873047 205.31581115722656 C 146.44573974609375 209.44366455078125 175.1208953857422 213.8109893798828 184.96340942382812 231.52487182617188" stroke-width="2.0" fill="none" stroke="rgb(0, 0, 0)" stroke-opacity="1" stroke-linecap="round" stroke-linejoin="round"/>
    <path d="M 59.92918014526367 -2.6353344917297363 C 28.51586151123047 15.027334213256836 8.875377655029297 -7.968595504760742 -4.178840160369873 -5.1551971435546875 C 20.854610443115234 39.22414779663086 30.852142333984375 23.80348014831543 26.989177703857422 25.76091194152832 C 48.27471923828125 28.154338836669922 29.20440101623535 28.59056282043457 50.07879638671875 15.803555488586426" stroke-width="2.0" fill="none" stroke="rgb(0, 0, 0)" stroke-opacity="1" stroke-linecap="round" stroke-linejoin="round"/>
    <path d="M 224.04489135742188 197.04066467285156 C 216.05503845214844 175.99932861328125 226.88600158691406 156.4360809326172 232.73948669433594 137.73193359375 C 245.2700653076172 168.87120056152344 236.63539123535156 172.83511352539062 234.7081756591797 176.29917907714844 C 229.53404235839844 178.5509033203125 223.0001678466797 175.9369354248047 232.35775756835938 166.7473907470703" stroke-width="2.0" fill="none" stroke="rgb(0, 0, 0)" stroke-opacity="1" stroke-linecap="round" stroke-linejoin="round"/>
    <path d="M 82.63394927978516 116.71611785888672 C 95.28491973876953 128.13658142089844 109.17703247070312 137.5701904296875 70.6340560913086 140.8814697265625" stroke-width="2.0" fill="none" stroke="rgb(0, 0, 0)" stroke-opacity="1" stroke-linecap="round" stroke-linejoin="round"/>
    <path d="M 96.13700103759766 202.97433471679688 C 117.9974365234375 201.95005798339844 111.43930053710938 203.20614624023438 127.56017303466797 224.32701110839844 C 92.63774871826172 206.86766052246094 111.35928344726562 203.79922485351562 133.4037628173828 225.04971313476562" stroke-width="2.0" fill="none" stroke="rgb(0, 0, 0)" stroke-opacity="1" stroke-linecap="round" stroke-linejoin="round"/>
    <path d="M 209.07164001464844 95.15174865722656 C 182.63525390625 85.13290405273438 171.0304718017578 49.84363555908203 168.8218231201172 60.310176849365234" stroke-width="2.0" fill="none" stroke="rgb(0, 0, 0)" stroke-opacity="1" stroke-linecap="round" stroke-linejoin="round"/>
    <path d="M 140.7564697265625 105.23155212402344 C 161.00759887695312 123.86920928955078 183.1087646484375 131.33143615722656 194.1204071044922 137.65432739257812 C 187.58297729492188 161.66912841796875 211.2947998046875 162.1710662841797 224.85064697265625 143.96258544921875" stroke-width="2.0" fill="none" stroke="rgb(0, 0, 0)" stroke-opacity="1" stroke-linecap="round" stroke-linejoin="round"/>
    <path d="M 215.61961364746094 154.21055603027344 C 205.3123321533203 158.61782836914062 194.981689453125 136.2306365966797 187.95596313476562 143.05343627929688" stroke-width="2.0" fill="none" stroke="rgb(0, 0, 0)" stroke-opacity="1" stroke-linecap="round" stroke-linejoin="round"/>
    <path d="M 49.44577407836914 99.9471664428711 C 56.488834381103516 119.83477020263672 93.3615951538086 135.5209197998047 96.49417877197266 103.40416717529297" stroke-width="2.0" fill="none" stroke="rgb(0, 0, 0)" stroke-opacity="1" stroke-linecap="round" stroke-linejoin="round"/>
    <path d="M 209.28233337402344 122.73963928222656 C 221.9861602783203 95.65261840820312 232.3544464111328 54.18708038330078 226.18365478515625 80.58533477783203 C 193.8817596435547 73.67008209228516 198.23529052734375 67.41523742675781 175.05099487304688 51.95747756958008" stroke-width="2.0" fill="none" stroke="rgb(0, 0, 0)" stroke-opacity="1" stroke-linecap="round" stroke-linejoin="round"/>
    <path d="M 230.6178436279297 103.13858032226562 C 228.01939392089844 73.5814437866211 233.81732177734375 84.16466522216797 231.31861877441406 96.18970489501953 C 218.76739501953125 73.54177856445312 231.84259033203125 67.58782196044922 230.30245971679688 64.3721923828125 C 216.5546112060547 107.00968170166016 223.82431030273438 128.51272583007812 182.93630981445312 81.77143859863281" stroke-width="2.0" fill="none" stroke="rgb(0, 0, 0)" stroke-opacity="1" stroke-linecap="round" stroke-linejoin="round"/>
    <path d="M 90.11528778076172 160.47039794921875 C 126.77727508544922 141.7044219970703 108.5746841430664 173.4795379638672 131.72732543945312 162.5379180908203" stroke-width="2.0" fill="none" stroke="rgb(0, 0, 0)" stroke-opacity="1" stroke-linecap="round" stroke-linejoin="round"/>
    <path d="M 146.19683837890625 164.0172119140625 C 163.3432159423828 142.3048858642578 144.13621520996094 152.71319580078125 169.16571044921875 154.44479370117188 C 194.44259643554688 166.31185913085938 177.71595764160156 156.48460388183594 158.1963653564453 175.8827667236328" stroke-width="2.0" fill="none" stroke="rgb(0, 0, 0)" stroke-opacity="1" stroke-linecap="round" stroke-linejoin="round"/>
    <path d="M 30.47075080871582 85.5161361694336 C 65.22199249267578 107.11509704589844 79.50123596191406 105.306640625 80.42072296142578 86.33702087402344" stroke-width="2.0" fill="none" stroke="rgb(0, 0, 0)" stroke-opacity="1" stroke-linecap="round" stroke-linejoin="round"/>
    <path d="M 121.05879211425781 199.57374572753906 C 127.34378814697266 208.51197814941406 116.2734603881836 213.39588928222656 98.16316223144531 194.60025024414062" stroke-width="2.0" fill="none" stroke="rgb(0, 0, 0)" stroke-opacity="1" stroke-linecap="round" stroke-linejoin="round"/>
    <path d="M 156.84970092773438 74.65510559082031 C 139.87277221679688 49.87239074707031 133.33612060546875 64.81729888916016 125.24042510986328 39.62839126586914" stroke-width="2.0" fill="none" stroke="rgb(0, 0, 0)" stroke-opacity="1" stroke-linecap="round" stroke-linejoin="round"/>
    <path d="M 87.74738311767578 136.899169921875 C 100.07962799072266 117.97974395751953 105.99251556396484 150.3098907470703 79.84451293945312 155.5048828125 C 63.10049819946289 135.4843292236328 94.33428955078125 141.94223022460938 93.02398681640625 167.02842712402344 C 58.976932525634766 163.33816528320312 27.521690368652344 135.7771759033203 72.96710968017578 173.3155517578125" stroke-width="2.0" fill="none" stroke="rgb(0, 0, 0)" stroke-opacity="1" stroke-linecap="round" stroke-linejoin="round"/>
    <path d="M -6.129109859466553 173.016357421875 C 9.227914810180664 209.32000732421875 -3.0361168384552 203.75669860839844 -12.55179500579834 231.61099243164062 C -42.41193389892578 232.880615234375 -34.83466339111328 228.4081573486328 -42.57530212402344 219.69711303710938" stroke-width="2.0" fill="none" stroke="rgb(0, 0, 0)" stroke-opacity="1" stroke-linecap="round" stroke-linejoin="round"/>
    <path d="M 200.01963806152344 0.001630537211894989 C 154.3061065673828 40.37118911743164 148.9734649658203 2.971930503845215 143.72091674804688 8.076163291931152 C 137.59934997558594 9.0016450881958 162.9774627685547 9.791099548339844 136.8313446044922 8.35512638092041" stroke-width="2.0" fill="none" stroke="rgb(0, 0, 0)" stroke-opacity="1" stroke-linecap="round" stroke-linejoin="round"/>
    <path d="M 109.6902084350586 135.9969482421875 C 125.29701232910156 142.3612518310547 116.39746856689453 172.33963012695312 126.41816711425781 137.5359344482422 C 123.28349304199219 153.8899688720703 99.17413330078125 159.0597686767578 102.18587493896484 173.34791564941406" stroke-width="2.0" fill="none" stroke="rgb(0, 0, 0)" stroke-opacity="1" stroke-linecap="round" stroke-linejoin="round"/>
    <path d="M 169.1127471923828 108.93463897705078 C 131.26084899902344 108.60269165039062 131.8300323486328 96.18474578857422 116.59007263183594 94.67973327636719 C 153.0421142578125 92.5416259765625 178.5480499267578 107.09854125976562 147.1503448486328 69.1221923828125 C 148.4794921875 68.89256286621094 174.7606964111328 82.96275329589844 171.85568237304688 94.60049438476562" stroke-width="2.0" fill="none" stroke="rgb(0, 0, 0)" stroke-opacity="1" stroke-linecap="round" stroke-linejoin="round"/>
    <path d="M 151.06436157226562 73.0595703125 C 176.0098419189453 79.2370376586914 175.0272674560547 83.25129699707031 161.77586364746094 92.35718536376953 C 172.56700134277344 82.88321685791016 190.43881225585938 99.53375244140625 176.3054656982422 91.34148406982422 C 199.10452270507812 124.6653823852539 195.9249725341797 100.67323303222656 191.7010498046875 109.79084777832031" stroke-width="2.0" fill="none" stroke="rgb(0, 0, 0)" stroke-opacity="1" stroke-linecap="round" stroke-linejoin="round"/>
    <path d="M 66.57491302490234 155.31834411621094 C 52.110836029052734 153.8248291015625 66.54948425292969 166.48858642578125 86.23622131347656 159.3821258544922 C 74.73745727539062 146.6142120361328 96.6656723022461 136.0402069091797 122.1193618774414 150.50872802734375" stroke-width="2.0" fill="none" stroke="rgb(0, 0, 0)" stroke-opacity="1" stroke-linecap="round" stroke-linejoin="round"/>
    <path d="M 162.57315063476562 186.65090942382812 C 189.8986053466797 206.27305603027344 178.7902374267578 229.2530975341797 204.47286987304688 225.01925659179688 C 171.0724334716797 212.4275665283203 172.583984375 220.45713806152344 201.21641540527344 225.20787048339844" stroke-width="2.0" fill="none" stroke="rgb(0, 0, 0)" stroke-opacity="1" stroke-linecap="round" stroke-linejoin="round"/>
    <path d="M 139.5548095703125 159.96771240234375 C 143.3878936767578 189.91151428222656 147.41632080078125 163.31932067871094 165.7434844970703 197.7590789794922 C 190.47219848632812 185.7443084716797 177.73194885253906 182.10159301757812 188.93370056152344 197.65379333496094" stroke-width="2.0" fill="none" stroke="rgb(0, 0, 0)" stroke-opacity="1" stroke-linecap="round" stroke-linejoin="round"/>
    <path d="M 164.9208984375 20.360319137573242 C 130.02696228027344 8.70976448059082 112.11962890625 13.19692325592041 106.98287963867188 16.266347885131836 C 98.09793090820312 18.20573616027832 115.35151672363281 25.12764549255371 141.54408264160156 23.522674560546875 C 112.68729400634766 17.784423828125 122.7702407836914 14.46450138092041 92.85945129394531 -14.937881469726562" stroke-width="2.0" fill="none" stroke="rgb(0, 0, 0)" stroke-opacity="1" stroke-linecap="round" stroke-linejoin="round"/>
    <path d="M 85.4217300415039 49.81637191772461 C 59.423465728759766 68.19001007080078 88.03069305419922 46.528079986572266 77.39020538330078 42.11368942260742" stroke-width="2.0" fill="none" stroke="rgb(0, 0, 0)" stroke-opacity="1" stroke-linecap="round" stroke-linejoin="round"/>
    <path d="M 76.0556640625 216.3694305419922 C 62.845664978027344 228.1613006591797 75.04585266113281 232.658447265625 84.60806274414062 235.22119140625 C 54.658233642578125 217.51226806640625 56.77119064331055 217.28651428222656 43.66770935058594 236.09947204589844" stroke-width="2.0" fill="none" stroke="rgb(0, 0, 0)" stroke-opacity="1" stroke-linecap="round" stroke-linejoin="round"/>
    <path d="M 136.46157836914062 226.29183959960938 C 144.98997497558594 211.64645385742188 158.53013610839844 226.41522216796875 176.4225311279297 233.279541015625 C 164.80592346191406 223.18626403808594 168.22850036621094 234.38653564453125 175.7112274169922 239.36114501953125" stroke-width="2.0" fill="none" stroke="rgb(0, 0, 0)" stroke-opacity="1" stroke-linecap="round" stroke-linejoin="round"/>
    <path d="M 50.957786560058594 225.7270965576172 C 39.04963684082031 215.98892211914062 24.879262924194336 217.07315063476562 38.138084411621094 203.2147216796875 C 37.5738639831543 238.2755126953125 26.58312225341797 240.37464904785156 48.51665496826172 211.22738647460938" stroke-width="2.0" fill="none" stroke="rgb(0, 0, 0)" stroke-opacity="1" stroke-linecap="round" stroke-linejoin="round"/>
    <path d="M 75.93597412109375 76.31476593017578 C 50.70413589477539 53.278053283691406 51.59159851074219 26.40509796142578 60.454524993896484 52.1849479675293 C 70.28321838378906 66.45521545410156 92.22177124023438 88.6335678100586 100.369873046875 51.236289978027344" stroke-width="2.0" fill="none" stroke="rgb(0, 0, 0)" stroke-opacity="1" stroke-linecap="round" stroke-linejoin="round"/>
    <path d="M 25.849777221679688 153.26011657714844 C 9.784884452819824 142.92274475097656 -3.054750442504883 115.83740234375 34.35048294067383 149.6988525390625 C 39.59315872192383 171.24746704101562 37.635536193847656 176.58985900878906 8.912426948547363 151.42787170410156 C -9.605767250061035 142.5961151123047 -7.362015724182129 130.16189575195312 -2.9705801010131836 113.15544128417969" stroke-width="2.0" fill="none" stroke="rgb(0, 0, 0)" stroke-opacity="1" stroke-linecap="round" stroke-linejoin="round"/>
    <path d="M 91.85143280029297 17.02538299560547 C 68.05724334716797 25.315519332885742 19.552398681640625 -0.2411806285381317 103.0517807006836 10.55020809173584" stroke-width="2.0" fill="none" stroke="rgb(0, 0, 0)" stroke-opacity="1" stroke-linecap="round" stroke-linejoin="round"/>
    <path d="M 69.40242004394531 86.80060577392578 C 54.20396041870117 96.80182647705078 45.25425338745117 95.25138854980469 83.4532470703125 99.700927734375 C 78.53721618652344 89.57525634765625 83.4818115234375 89.06484985351562 89.06298828125 103.89372253417969 C 67.8270034790039 82.1707763671875 68.33586120605469 75.57166290283203 56.49188995361328 66.72492218017578" stroke-width="2.0" fill="none" stroke="rgb(0, 0, 0)" stroke-opacity="1" stroke-linecap="round" stroke-linejoin="round"/>
    <path d="M 231.5558319091797 41.26643753051758 C 236.49732971191406 41.15581130981445 231.23095703125 53.18665313720703 223.84487915039062 50.68257141113281 C 213.8821563720703 88.70339965820312 195.0302276611328 72.45823669433594 245.27752685546875 84.53067016601562" stroke-width="2.0" fill="none" stroke="rgb(0, 0, 0)" stroke-opacity="1" stroke-linecap="round" stroke-linejoin="round"/>
    <path d="M 23.516273498535156 76.66249084472656 C 39.00275802612305 85.30239868164062 15.83743953704834 109.24248504638672 20.123666763305664 70.31046295166016 C 9.704368591308594 112.73997497558594 6.01230001449585 113.06906127929688 29.027650833129883 68.2482681274414" stroke-width="2.0" fill="none" stroke="rgb(0, 0, 0)" stroke-opacity="1" stroke-linecap="round" stroke-linejoin="round"/>
    <path d="M 229.6884765625 133.71121215820312 C 236.7426300048828 101.57405090332031 230.6243133544922 87.3548355102539 231.7683868408203 102.13023376464844 C 234.9540252685547 131.80517578125 217.0452117919922 147.5126495361328 219.66285705566406 155.16552734375 C 188.81103515625 150.48095703125 222.3701934814453 155.45278930664062 218.63479614257812 149.7635955810547" stroke-width="2.0" fill="none" stroke="rgb(0, 0, 0)" stroke-opacity="1" stroke-linecap="round" stroke-linejoin="round"/>
    <path d="M 13.706880569458008 107.91999816894531 C 17.445592880249023 129.5481719970703 27.41021156311035 127.74408721923828 15.940946578979492 143.5452880859375" stroke-width="2.0" fill="none" stroke="rgb(0, 0, 0)" stroke-opacity="1" stroke-linecap="round" stroke-linejoin="round"/>
    <path d="M 193.0008544921875 220.67723083496094 C 198.16551208496094 200.0511474609375 188.77000427246094 231.63429260253906 177.1813201904297 197.28135681152344" stroke-width="2.0" fill="none" stroke="rgb(0, 0, 0)" stroke-opacity="1" stroke-linecap="round" stroke-linejoin="round"/>
    <path d="M 80.8837890625 163.46205139160156 C 95.1633529663086 139.96800231933594 122.31983947753906 131.2310333251953 107.44843292236328 121.62798309326172 C 119.30075073242188 155.87208557128906 125.11933135986328 99.11112976074219 104.86347961425781 135.08148193359375 C 75.90438842773438 129.8690643310547 106.08924865722656 132.57644653320312 75.61662292480469 140.17306518554688" stroke-width="2.0" fill="none" stroke="rgb(0, 0, 0)" stroke-opacity="1" stroke-linecap="round" stroke-linejoin="round"/>
    <path d="M 125.8896255493164 87.51570892333984 C 148.02694702148438 57.188209533691406 124.15847778320312 78.89460754394531 115.21443176269531 51.494415283203125" stroke-width="2.0" fill="none" stroke="rgb(0, 0, 0)" stroke-opacity="1" stroke-linecap="round" stroke-linejoin="round"/>
    <path d="M 178.567138671875 95.37027740478516 C 167.80520629882812 91.1342544555664 168.47474670410156 99.10102081298828 166.07427978515625 81.01849365234375 C 182.4757537841797 91.02420043945312 177.8067169189453 109.90687561035156 206.39019775390625 122.46540832519531 C 170.5417938232422 113.52323913574219 185.91030883789062 89.04986572265625 160.07542419433594 93.16100311279297" stroke-width="2.0" fill="none" stroke="rgb(0, 0, 0)" stroke-opacity="1" stroke-linecap="round" stroke-linejoin="round"/>
    <path d="M 131.0290985107422 230.48011779785156 C 107.23717498779297 213.52981567382812 92.05589294433594 216.27487182617188 100.0224838256836 217.3096923828125 C 117.89768981933594 208.6573028564453 79.97773742675781 197.44390869140625 89.97341918945312 184.57044982910156" stroke-width="2.0" fill="none" stroke="rgb(0, 0, 0)" stroke-opacity="1" stroke-linecap="round" stroke-linejoin="round"/>
    <path d="M 105.1007080078125 181.33274841308594 C 107.34825897216797 178.42784118652344 116.69548797607422 174.2659454345703 108.7664794921875 176.63815307617188 C 129.74765014648438 201.39830017089844 140.9546356201172 186.17929077148438 114.22611999511719 213.70669555664062" stroke-width="2.0" fill="none" stroke="rgb(0, 0, 0)" stroke-opacity="1" stroke-linecap="round" stroke-linejoin="round"/>
    <path d="M 134.32032775878906 187.30836486816406 C 149.82061767578125 173.3201446533203 136.97816467285156 186.39222717285156 143.55279541015625 180.49688720703125 C 142.248779296875 136.97113037109375 141.50953674316406 168.58828735351562 116.2789077758789 164.09532165527344" stroke-width="2.0" fill="none" stroke="rgb(0, 0, 0)" stroke-opacity="1" stroke-linecap="round" stroke-linejoin="round"/>
    <path d="M 77.93905639648438 196.87818908691406 C 35.91414260864258 187.1080322265625 41.458335876464844 164.9224395751953 26.871870040893555 143.84642028808594 C 11.080869674682617 163.80653381347656 27.630355834960938 170.1527557373047 34.837730407714844 182.55191040039062" stroke-width="2.0" fill="none" stroke="rgb(0, 0, 0)" stroke-opacity="1" stroke-linecap="round" stroke-linejoin="round"/>
    <path d="M 56.405635833740234 213.7477569580078 C 37.01807403564453 219.33139038085938 13.700655937194824 191.52761840820312 30.404279708862305 186.06640625" stroke-width="2.0" fill="none" stroke="rgb(0, 0, 0)" stroke-opacity="1" stroke-linecap="round" stroke-linejoin="round"/>
    <path d="M 137.46820068359375 197.8302764892578 C 158.21533203125 181.75753784179688 126.6524658203125 199.54318237304688 101.75679779052734 164.92581176757812 C 102.58902740478516 184.1990203857422 108.24056243896484 195.01251220703125 127.85803985595703 205.37025451660156" stroke-width="2.0" fill="none" stroke="rgb(0, 0, 0)" stroke-opacity="1" stroke-linecap="round" stroke-linejoin="round"/>
    <path d="M 109.8178939819336 128.54869079589844 C 105.45689392089844 127.92485046386719 95.70450592041016 116.75990295410156 120.05542755126953 120.56597900390625 C 131.08380126953125 124.88671112060547 109.79666900634766 119.07685852050781 100.11067962646484 109.66910552978516 C 137.22866821289062 154.35943603515625 149.27664184570312 142.4038848876953 98.37552642822266 144.06216430664062" stroke-width="2.0" fill="none" stroke="rgb(0, 0, 0)" stroke-opacity="1" stroke-linecap="round" stroke-linejoin="round"/>
    <path d="M 57.77006149291992 154.33787536621094 C 36.51862335205078 124.7203369140625 73.10983276367188 173.97390747070312 71.42359161376953 142.8849639892578 C 76.7916030883789 136.6712188720703 57.11344909667969 126.30764770507812 67.54498291015625 132.7174072265625 C 61.751686096191406 125.35690307617188 62.152549743652344 147.09466552734375 70.36897277832031 130.9359130859375" stroke-width="2.0" fill="none" stroke="rgb(0, 0, 0)" stroke-opacity="1" stroke-linecap="round" stroke-linejoin="round"/>
    <path d="M 155.1141357421875 196.94033813476562 C 209.25901794433594 224.03123474121094 230.0562286376953 216.17831420898438 192.2659912109375 195.5689697265625 C 162.62367248535156 176.2601776123047 138.994140625 161.9210205078125 175.53173828125 200.268798828125 C 177.87802124023438 225.31097412109375 156.4474334716797 182.643310546875 181.87335205078125 188.7543487548828" stroke-width="2.0" fill="none" stroke="rgb(0, 0, 0)" stroke-opacity="1" stroke-linecap="round" stroke-linejoin="round"/>
    <path d="M 171.16744995117188 101.84369659423828 C 163.7176971435547 90.28885650634766 125.05152893066406 89.7364730834961 145.3919219970703 113.52041625976562" stroke-width="2.0" fill="none" stroke="rgb(0, 0, 0)" stroke-opacity="1" stroke-linecap="round" stroke-linejoin="round"/>
    <path d="M 106.35638427734375 150.83786010742188 C 122.19286346435547 165.22877502441406 142.94515991210938 164.83602905273438 116.22990417480469 158.96612548828125 C 157.4610595703125 160.76124572753906 115.39806365966797 180.7268829345703 108.46517944335938 152.8772735595703" stroke-width="2.0" fill="none" stroke="rgb(0, 0, 0)" stroke-opacity="1" stroke-linecap="round" stroke-linejoin="round"/>
    <path d="M 176.6076202392578 216.41603088378906 C 154.62867736816406 205.52206420898438 180.34011840820312 221.0699462890625 154.33642578125 210.3678741455078" stroke-width="2.0" fill="none" stroke="rgb(0, 0, 0)" stroke-opacity="1" stroke-linecap="round" stroke-linejoin="round"/>
    <path d="M 122.55669403076172 126.5851058959961 C 155.18942260742188 121.21880340576172 141.599365234375 104.35371398925781 147.25967407226562 105.77415466308594 C 128.83786010742188 105.85291290283203 112.87713623046875 125.0517807006836 97.3702163696289 101.95097351074219" stroke-width="2.0" fill="none" stroke="rgb(0, 0, 0)" stroke-opacity="1" stroke-linecap="round" stroke-linejoin="round"/>
    <path d="M 177.72987365722656 110.1878433227539 C 229.58001708984375 150.06236267089844 231.12619018554688 141.05645751953125 176.4193572998047 142.49594116210938" stroke-width="2.0" fill="none" stroke="rgb(0, 0, 0)" stroke-opacity="1" stroke-linecap="round" stroke-linejoin="round"/>
    <path d="M 186.69200134277344 107.65689849853516 C 212.2140655517578 133.79115295410156 225.4884796142578 124.24131774902344 233.6077880859375 122.09556579589844" stroke-width="2.0" fill="none" stroke="rgb(0, 0, 0)" stroke-opacity="1" stroke-linecap="round" stroke-linejoin="round"/>
    <path d="M 175.09707641601562 35.532962799072266 C 209.22242736816406 73.36685180664062 222.16567993164062 74.87958526611328 222.7241668701172 53.36548614501953 C 234.4947052001953 30.103696823120117 216.983642578125 58.71686553955078 188.19607543945312 24.12763786315918" stroke-width="2.0" fill="none" stroke="rgb(0, 0, 0)" stroke-opacity="1" stroke-linecap="round" stroke-linejoin="round"/>
    <path d="M 101.92103576660156 158.7796630859375 C 121.52867126464844 196.994384765625 119.73387145996094 205.10108947753906 104.15879821777344 160.86927795410156" stroke-width="2.0" fill="none" stroke="rgb(0, 0, 0)" stroke-opacity="1" stroke-linecap="round" stroke-linejoin="round"/>
    <path d="M 109.8560562133789 179.03677368164062 C 102.10064697265625 162.65505981445312 93.2273941040039 173.44740295410156 98.7091064453125 171.0555877685547 C 89.2389907836914 150.36322021484375 118.36566925048828 171.40142822265625 132.263916015625 158.418701171875" stroke-width="2.0" fill="none" stroke="rgb(0, 0, 0)" stroke-opacity="1" stroke-linecap="round" stroke-linejoin="round"/>
    <path d="M 32.08423614501953 45.20499801635742 C 49.30503845214844 29.79840660095215 -7.138537883758545 16.085540771484375 20.753314971923828 32.44624328613281 C 36.99909210205078 54.47715759277344 55.71101760864258 52.9434928894043 43.51526641845703 39.40739440917969" stroke-width="2.0" fill="none" stroke="rgb(0, 0, 0)" stroke-opacity="1" stroke-linecap="round" stroke-linejoin="round"/>
    <path d="M 144.62615966796875 97.07221984863281 C 112.54379272460938 94.8141860961914 117.97093200683594 65.3908462524414 127.746826171875 113.82182312011719" stroke-width="2.0" fill="none" stroke="rgb(0, 0, 0)" stroke-opacity="1" stroke-linecap="round" stroke-linejoin="round"/>
    <path d="M 45.90359115600586 89.87244415283203 C 51.27329635620117 100.83599090576172 64.64492797851562 92.48165130615234 75.2558364868164 104.09835052490234 C 101.9736557006836 105.13597106933594 66.2596206665039 102.54566192626953 56.92534637451172 85.92847442626953 C 93.60617065429688 63.85258865356445 38.992618560791016 63.73797607421875 57.245399475097656 83.71762084960938" stroke-width="2.0" fill="none" stroke="rgb(0, 0, 0)" stroke-opacity="1" stroke-linecap="round" stroke-linejoin="round"/>
    <path d="M 167.36148071289062 63.36866760253906 C 203.66908264160156 59.11126708984375 177.2819366455078 80.63894653320312 214.99066162109375 99.42845916748047 C 222.28045654296875 91.27706909179688 211.8340606689453 105.38300323486328 191.4747314453125 70.72698211669922 C 208.29444885253906 91.81103515625 231.44056701660156 92.68975830078125 208.96710205078125 87.6658935546875" stroke-width="2.0" fill="none" stroke="rgb(0, 0, 0)" stroke-opacity="1" stroke-linecap="round" stroke-linejoin="round"/>
    <path d="M 183.5791778564453 139.65377807617188 C 203.9107666015625 169.1157684326172 231.36146545410156 169.72085571289062 204.1278076171875 149.3303985595703 C 166.93475341796875 154.65609741210938 177.36573791503906 120.66143798828125 193.4870147705078 158.3722686767578" stroke-width="2.0" fill="none" stroke="rgb(0, 0, 0)" stroke-opacity="1" stroke-linecap="round" stroke-linejoin="round"/>
    <path d="M 23.23889923095703 124.57380676269531 C 29.506296157836914 131.53668212890625 47.75247573852539 148.63616943359375 60.28673553466797 121.95529174804688 C 57.26130676269531 115.51944732666016 22.455310821533203 98.84642791748047 29.288599014282227 122.67850494384766 C 39.36114501953125 96.74789428710938 46.64281463623047 123.96344757080078 29.801271438598633 104.74681854248047" stroke-width="2.0" fill="none" stroke="rgb(0, 0, 0)" stroke-opacity="1" stroke-linecap="round" stroke-linejoin="round"/>
    <path d="M 202.75173950195312 178.04661560058594 C 207.46653747558594 182.6016387939453 224.04721069335938 164.13482666015625 241.4306640625 189.0847930908203 C 168.41510009765625 198.88088989257812 175.41554260253906 204.76107788085938 228.44561767578125 200.65115356445312" stroke-width="2.0" fill="none" stroke="rgb(0, 0, 0)" stroke-opacity="1" stroke-linecap="round" stroke-linejoin="round"/>
    <path d="M 44.33083724975586 171.6627655029297 C 60.04676818847656 184.854248046875 38.744937896728516 155.6737060546875 24.954076766967773 135.30909729003906 C 22.208484649658203 150.42327880859375 9.279459953308105 179.69967651367188 45.987083435058594 164.6900634765625 C 60.24327850341797 158.16873168945312 37.84541702270508 167.0045166015625 19.246065139770508 164.0052032470703" stroke-width="2.0" fill="none" stroke="rgb(0, 0, 0)" stroke-opacity="1" stroke-linecap="round" stroke-linejoin="round"/>
    <path d="M 186.25726318359375 191.84593200683594 C 175.0771942138672 191.54583740234375 157.25238037109375 178.27488708496094 201.4794158935547 207.29080200195312 C 177.25140380859375 217.3295440673828 177.94212341308594 192.01834106445312 162.37863159179688 181.96229553222656 C 177.0851287841797 189.5922088623047 158.57882690429688 186.12066650390625 163.6962890625 157.67909240722656" stroke-width="2.0" fill="none" stroke="rgb(0, 0, 0)" stroke-opacity="1" stroke-linecap="round" stroke-linejoin="round"/>
    <path d="M 170.12155151367188 81.84597778320312 C 143.4343719482422 64.40015411376953 154.16787719726562 70.63263702392578 175.3319549560547 102.21257019042969 C 169.8198699951172 101.9502944946289 159.13861083984375 103.59455108642578 190.04173278808594 125.20281982421875" stroke-width="2.0" fill="none" stroke="rgb(0, 0, 0)" stroke-opacity="1" stroke-linecap="round" stroke-linejoin="round"/>
    <path d="M 32.15740203857422 94.9350357055664 C 15.225959777832031 61.24342346191406 71.26954650878906 91.89068603515625 50.26795196533203 71.22127532958984 C 41.80983352661133 75.83988952636719 70.87619018554688 73.60591125488281 59.16909408569336 55.14655685424805" stroke-width="2.0" fill="none" stroke="rgb(0, 0, 0)" stroke-opacity="1" stroke-linecap="round" stroke-linejoin="round"/>
    <path d="M 127.64948272705078 88.23102569580078 C 184.3865509033203 71.88946533203125 117.88301086425781 58.40082550048828 132.99549865722656 55.069923400878906" stroke-width="2.0" fill="none" stroke="rgb(0, 0, 0)" stroke-opacity="1" stroke-linecap="round" stroke-linejoin="round"/>
    <path d="M 210.2891082763672 166.80996704101562 C 179.4154815673828 151.12710571289062 161.3844757080078 128.12506103515625 214.09576416015625 154.322021484375 C 214.23716735839844 166.9235076904297 181.70657348632812 127.49398040771484 207.4397430419922 162.599365234375" stroke-width="2.0" fill="none" stroke="rgb(0, 0, 0)" stroke-opacity="1" stroke-linecap="round" stroke-linejoin="round"/>
    <path d="M -10.224695205688477 136.164794921875 C -9.653776168823242 122.73289489746094 -5.037760257720947 119.40560913085938 -13.068765640258789 128.8741912841797 C -27.803775787353516 138.30142211914062 -2.374828338623047 135.8865966796875 6.462398052215576 164.2764434814453" stroke-width="2.0" fill="none" stroke="rgb(0, 0, 0)" stroke-opacity="1" stroke-linecap="round" stroke-linejoin="round"/>
    <path d="M 202.763671875 161.078369140625 C 199.89443969726562 161.7210693359375 210.53729248046875 165.7270965576172 184.69578552246094 126.7899398803711" stroke-width="2.0" fill="none" stroke="rgb(0, 0, 0)" stroke-opacity="1" stroke-linecap="round" stroke-linejoin="round"/>
    <path d="M 187.83355712890625 36.685665130615234 C 211.11376953125 59.422706604003906 217.0543975830078 52.43354415893555 235.25750732421875 50.4398078918457 C 245.6012420654297 23.001054763793945 215.36004638671875 45.30144500732422 197.1043701171875 20.63567543029785" stroke-width="2.0" fill="none" stroke="rgb(0, 0, 0)" stroke-opacity="1" stroke-linecap="round" stroke-linejoin="round"/>
    <path d="M 10.780774116516113 108.34087371826172 C 13.818281173706055 173.49205017089844 41.51139831542969 154.81402587890625 15.292030334472656 120.14192962646484 C 11.199541091918945 143.62315368652344 19.68364906311035 138.2742156982422 21.32624626159668 178.21243286132812 C 14.340391159057617 185.6157989501953 8.183005332946777 142.698974609375 8.553706169128418 123.66716003417969" stroke-width="2.0" fill="none" stroke="rgb(0, 0, 0)" stroke-opacity="1" stroke-linecap="round" stroke-linejoin="round"/>
    <path d="M 143.29457092285156 117.77582550048828 C 133.7503662109375 144.21603393554688 91.2745132446289 117.19200134277344 144.10055541992188 127.0740737915039" stroke-width="2.0" fill="none" stroke="rgb(0, 0, 0)" stroke-opacity="1" stroke-linecap="round" stroke-linejoin="round"/>
    <path d="M 159.60740661621094 122.86210632324219 C 175.2476043701172 146.64381408691406 167.99447631835938 138.25820922851562 143.86045837402344 144.4678192138672" stroke-width="2.0" fill="none" stroke="rgb(0, 0, 0)" stroke-opacity="1" stroke-linecap="round" stroke-linejoin="round"/>
    <path d="M 31.529085159301758 152.3088836669922 C 18.85492706298828 202.54293823242188 56.047950744628906 191.03968811035156 41.99903869628906 196.80062866210938" stroke-width="2.0" fill="none" stroke="rgb(0, 0, 0)" stroke-opacity="1" stroke-linecap="round" stroke-linejoin="round"/>
    <path d="M 103.87820434570312 79.3485336303711 C 73.6156005859375 85.10707092285156 53.7513313293457 45.52970504760742 64.41349792480469 60.241519927978516 C 44.735137939453125 31.880382537841797 40.22764587402344 32.72480392456055 64.48777770996094 28.234539031982422" stroke-width="2.0" fill="none" stroke="rgb(0, 0, 0)" stroke-opacity="1" stroke-linecap="round" stroke-linejoin="round"/>
    <path d="M 144.31520080566406 50.21061706542969 C 106.19739532470703 27.636934280395508 142.8983612060547 69.70189666748047 154.45362854003906 34.191741943359375 C 125.74757385253906 30.125925064086914 137.86509704589844 38.44546890258789 126.67948150634766 21.665279388427734" stroke-width="2.0" fill="none" stroke="rgb(0, 0, 0)" stroke-opacity="1" stroke-linecap="round" stroke-linejoin="round"/>
    <path d="M 169.79307556152344 168.6946563720703 C 159.2320098876953 147.7784423828125 160.62142944335938 178.07760620117188 148.9695587158203 157.2381591796875" stroke-width="2.0" fill="none" stroke="rgb(0, 0, 0)" stroke-opacity="1" stroke-linecap="round" stroke-linejoin="round"/>
    <path d="M 127.96265411376953 215.0548858642578 C 105.30529022216797 208.26043701171875 108.74298858642578 206.7724609375 121.52416229248047 229.3501434326172 C 112.50126647949219 231.3682098388672 119.51815032958984 224.06436157226562 110.91040802001953 222.53993225097656 C 126.77371978759766 239.30421447753906 144.15203857421875 214.1082305908203 145.06068420410156 219.51266479492188" stroke-width="2.0" fill="none" stroke="rgb(0, 0, 0)" stroke-opacity="1" stroke-linecap="round" stroke-linejoin="round"/>
    <path d="M 135.6698455810547 85.72705078125 C 98.76692199707031 56.99342727661133 102.47242736816406 57.48157501220703 120.4792251586914 90.75550079345703 C 110.55079650878906 76.42181396484375 92.05989074707031 70.54055786132812 95.84297180175781 78.87193298339844" stroke-width="2.0" fill="none" stroke="rgb(0, 0, 0)" stroke-opacity="1" stroke-linecap="round" stroke-linejoin="round"/>
    <path d="M 200.5552520751953 66.90824127197266 C 166.1819610595703 31.739885330200195 173.0194549560547 41.718563079833984 157.09889221191406 40.52193069458008 C 204.4477996826172 53.47919845581055 192.30636596679688 39.639400482177734 184.31723022460938 33.76956558227539 C 168.47608947753906 44.310115814208984 155.0076904296875 35.137779235839844 173.75416564941406 25.315353393554688" stroke-width="2.0" fill="none" stroke="rgb(0, 0, 0)" stroke-opacity="1" stroke-linecap="round" stroke-linejoin="round"/>
    <path d="M 81.84142303466797 108.09478759765625 C 124.69815063476562 74.2153549194336 95.4804458618164 92.61259460449219 111.2842025756836 100.19302368164062 C 107.46585845947266 102.01719665527344 117.92997741699219 95.66150665283203 107.46590423583984 108.91181182861328" stroke-width="2.0" fill="none" stroke="rgb(0, 0, 0)" stroke-opacity="1" stroke-linecap="round" stroke-linejoin="round"/>
    <path d="M 198.84201049804688 103.71681213378906 C 173.13992309570312 81.66441345214844 198.380859375 137.08590698242188 147.8098907470703 108.17813873291016" stroke-width="2.0" fill="none" stroke="rgb(0, 0, 0)" stroke-opacity="1" stroke-linecap="round" stroke-linejoin="round"/>
    <path d="M 226.87033081054688 22.318723678588867 C 223.20938110351562 2.0366241931915283 234.50146484375 -1.1634364128112793 239.99769592285156 3.2708332538604736 C 229.8365020751953 -9.280732154846191 222.17156982421875 17.84332847595215 229.84877014160156 38.167449951171875" stroke-width="2.0" fill="none" stroke="rgb(0, 0, 0)" stroke-opacity="1" stroke-linecap="round" stroke-linejoin="round"/>
    <path d="M 181.03463745117188 146.05966186523438 C 162.01165771484375 151.07179260253906 163.56613159179688 142.000732421875 167.09600830078125 139.91470336914062 C 146.83648681640625 141.95773315429688 149.75277709960938 124.30045318603516 164.9130401611328 117.86764526367188 C 139.83535766601562 137.5251922607422 140.57005310058594 128.54525756835938 131.8159942626953 132.0901641845703" stroke-width="2.0" fill="none" stroke="rgb(0, 0, 0)" stroke-opacity="1" stroke-linecap="round" stroke-linejoin="round"/>
    <path d="M 83.09123229980469 174.8912353515625 C 93.8465805053711 184.34986877441406 55.45027542114258 182.16969299316406 46.89741134643555 144.01339721679688" stroke-width="2.0" fill="none" stroke="rgb(0, 0, 0)" stroke-opacity="1" stroke-linecap="round" stroke-linejoin="round"/>
    <path d="M 131.0118865966797 46.72838592529297 C 182.60159301757812 62.27778625488281 141.44381713867188 72.48712158203125 130.8099365234375 43.761695861816406" stroke-width="2.0" fill="none" stroke="rgb(0, 0, 0)" stroke-opacity="1" stroke-linecap="round" stroke-linejoin="round"/>
    <path d="M 148.86697387695312 201.86236572265625 C 141.38059997558594 217.68881225585938 129.1020050048828 208.16665649414062 106.8759765625 193.71258544921875 C 134.401611328125 222.54104614257812 128.82359313964844 217.2669677734375 130.27879333496094 234.37290954589844" stroke-width="2.0" fill="none" stroke="rgb(0, 0, 0)" stroke-opacity="1" stroke-linecap="round" stroke-linejoin="round"/>
    <path d="M 204.68434143066406 187.5872344970703 C 220.45257568359375 193.12579345703125 198.2006072998047 186.17922973632812 167.7196807861328 172.31039428710938 C 144.49880981445312 159.119873046875 148.02696228027344 162.12010192871094 167.2344970703125 178.0074920654297" stroke-width="2.0" fill="none" stroke="rgb(0, 0, 0)" stroke-opacity="1" stroke-linecap="round" stroke-linejoin="round"/>
    <path d="M 165.89251708984375 38.295650482177734 C 149.2921905517578 60.82795333862305 149.01853942871094 45.69546127319336 158.17601013183594 65.69620513916016 C 134.31594848632812 55.70496368408203 156.9765167236328 85.45819091796875 133.4967498779297 63.17304611206055" stroke-width="2.0" fill="none" stroke="rgb(0, 0, 0)" stroke-opacity="1" stroke-linecap="round" stroke-linejoin="round"/>
    <path d="M 225.78671264648438 115.77074432373047 C 194.91392517089844 117.8075942993164 180.79043579101562 78.36134338378906 175.2445068359375 75.3204574584961" stroke-width="2.0" fill="none" stroke="rgb(0, 0, 0)" stroke-opacity="1" stroke-linecap="round" stroke-linejoin="round"/>
    <path d="M 114.8974838256836 34.66161346435547 C 109.78728485107422 57.51942825317383 108.60897064208984 48.405723571777344 122.74613952636719 52.8518180847168" stroke-width="2.0" fill="none" stroke="rgb(0, 0, 0)" stroke-opacity="1" stroke-linecap="round" stroke-linejoin="round"/>
    <path d="M 50.22211837768555 191.99502563476562 C 10.528763771057129 198.5889129638672 8.06928825378418 143.00892639160156 55.17628860473633 179.9984588623047" stroke-width="2.0" fill="none" stroke="rgb(0, 0, 0)" stroke-opacity="1" stroke-linecap="round" stroke-linejoin="round"/>
    <path d="M 191.84255981445312 142.84762573242188 C 205.25906372070312 185.3676300048828 162.39572143554688 169.64735412597656 176.6429443359375 143.09503173828125 C 171.90284729003906 134.8463134765625 154.7561798095703 128.63157653808594 155.72447204589844 111.23416137695312" stroke-width="2.0" fill="none" stroke="rgb(0, 0, 0)" stroke-opacity="1" stroke-linecap="round" stroke-linejoin="round"/>
    <path d="M 190.76304626464844 179.53921508789062 C 197.90895080566406 173.321533203125 190.3133087158203 179.32997131347656 174.38137817382812 152.47329711914062 C 187.2687530517578 176.99891662597656 199.39019775390625 153.8950653076172 192.70980834960938 148.9788818359375" stroke-width="2.0" fill="none" stroke="rgb(0, 0, 0)" stroke-opacity="1" stroke-linecap="round" stroke-linejoin="round"/>
    <path d="M 156.2835235595703 173.74256896972656 C 138.82525634765625 168.4593048095703 132.2895965576172 175.38848876953125 168.0507354736328 165.798828125 C 156.33343505859375 182.52406311035156 158.6228485107422 177.50961303710938 144.99575805664062 171.7761688232422 C 141.33761596679688 161.51573181152344 136.23924255371094 155.53042602539062 145.20120239257812 175.65655517578125" stroke-width="2.0" fill="none" stroke="rgb(0, 0, 0)" stroke-opacity="1" stroke-linecap="round" stroke-linejoin="round"/>
    <path d="M 47.46868896484375 61.80514907836914 C 39.31277084350586 77.89546203613281 20.57168960571289 60.7707405090332 21.203399658203125 48.209877014160156 C 11.79305362701416 69.80269622802734 10.43170166015625 28.624073028564453 16.557836532592773 87.35530853271484" stroke-width="2.0" fill="none" stroke="rgb(0, 0, 0)" stroke-opacity="1" stroke-linecap="round" stroke-linejoin="round"/>
    <path d="M 213.29139709472656 167.27452087402344 C 219.2105255126953 155.2056884765625 224.0467071533203 107.32821655273438 224.3345489501953 125.60005950927734 C 217.5675811767578 146.61656188964844 179.02328491210938 124.8576889038086 182.22125244140625 129.0216827392578" stroke-width="2.0" fill="none" stroke="rgb(0, 0, 0)" stroke-opacity="1" stroke-linecap="round" stroke-linejoin="round"/>
    <path d="M 164.4349365234375 227.18971252441406 C 174.79400634765625 220.50802612304688 185.33778381347656 217.5199737548828 202.4920654296875 237.2847442626953 C 211.7277374267578 238.2626190185547 198.04327392578125 224.3051300048828 187.9707489013672 228.3424072265625 C 203.06617736816406 229.47805786132812 211.24179077148438 232.52957153320312 201.13856506347656 230.53761291503906" stroke-width="2.0" fill="none" stroke="rgb(0, 0, 0)" stroke-opacity="1" stroke-linecap="round" stroke-linejoin="round"/>
    <path d="M 14.212689399719238 28.85784339904785 C 16.584524154663086 44.305206298828125 24.38644790649414 57.242271423339844 46.27412796020508 62.203495025634766" stroke-width="2.0" fill="none" stroke="rgb(0, 0, 0)" stroke-opacity="1" stroke-linecap="round" stroke-linejoin="round"/>
    <path d="M 69.05615997314453 193.91339111328125 C 50.80097198486328 176.41700744628906 29.75172233581543 171.2556915283203 20.293357849121094 189.89073181152344 C 8.690631866455078 153.10972595214844 17.805282592773438 175.0166778564453 9.8634614944458 142.36305236816406 C 50.74783706665039 133.91802978515625 34.10102081298828 154.0224151611328 32.793060302734375 167.48634338378906" stroke-width="2.0" fill="none" stroke="rgb(0, 0, 0)" stroke-opacity="1" stroke-linecap="round" stroke-linejoin="round"/>
    <path d="M 23.19352149963379 59.06079864501953 C 70.91839599609375 81.58561706542969 51.53254318237305 69.44051361083984 4.887781143188477 105.50495910644531 C 12.375166893005371 35.96232604980469 19.413360595703125 64.56062316894531 25.32869529724121 82.37347412109375 C 21.472631454467773 56.38479995727539 12.952444076538086 76.9778060913086 63.71348571777344 86.9434585571289" stroke-width="2.0" fill="none" stroke="rgb(0, 0, 0)" stroke-opacity="1" stroke-linecap="round" stroke-linejoin="round"/>
    <path d="M 35.285865783691406 17.60909652709961 C 38.699703216552734 17.52446937561035 99.82633209228516 18.154951095581055 62.2123908996582 33.34458541870117 C 37.0077018737793 7.241604328155518 82.79625701904297 46.27874755859375 106.82991027832031 42.310302734375 C 51.27752685546875 -17.239870071411133 42.76676940917969 3.020876884460449 87.04033660888672 -5.814558982849121" stroke-width="2.0" fill="none" stroke="rgb(0, 0, 0)" stroke-opacity="1" stroke-linecap="round" stroke-linejoin="round"/>
    <path d="M 98.1458969116211 179.55323791503906 C 127.64847564697266 190.02076721191406 126.71630859375 202.7411346435547 95.08635711669922 183.7847900390625" stroke-width="2.0" fill="none" stroke="rgb(0, 0, 0)" stroke-opacity="1" stroke-linecap="round" stroke-linejoin="round"/>
    <path d="M 55.41138458251953 176.26727294921875 C 17.04448699951172 153.70437622070312 44.030548095703125 145.23764038085938 59.63233184814453 142.7308349609375 C 40.95343780517578 144.6291961669922 65.58357238769531 152.93310546875 46.65251159667969 141.9416046142578 C 40.42790985107422 161.35179138183594 41.92108917236328 137.12733459472656 29.503896713256836 153.1942138671875" stroke-width="2.0" fill="none" stroke="rgb(0, 0, 0)" stroke-opacity="1" stroke-linecap="round" stroke-linejoin="round"/>
    <path d="M 91.2252426147461 56.798988342285156 C 46.660308837890625 38.51054763793945 85.91033935546875 74.29450225830078 72.85134887695312 34.24336624145508 C 109.74811553955078 40.863956451416016 129.50856018066406 41.94452667236328 116.91464233398438 27.961368560791016" stroke-width="2.0" fill="none" stroke="rgb(0, 0, 0)" stroke-opacity="1" stroke-linecap="round" stroke-linejoin="round"/>
    <path d="M 41.871944427490234 214.30662536621094 C 33.30455780029297 194.1658477783203 16.598909378051758 173.58657836914062 28.677017211914062 168.16033935546875" stroke-width="2.0" fill="none" stroke="rgb(0, 0, 0)" stroke-opacity="1" stroke-linecap="round" stroke-linejoin="round"/>
    <path d="M 161.2902069091797 46.408348083496094 C 131.67190551757812 -11.582032203674316 154.53453063964844 30.47731590270996 165.63856506347656 13.493176460266113" stroke-width="2.0" fill="none" stroke="rgb(0, 0, 0)" stroke-opacity="1" stroke-linecap="round" stroke-linejoin="round"/>
    <path d="M 57.6655387878418 210.00367736816406 C 56.04111099243164 221.7191162109375 60.071380615234375 220.23745727539062 48.6246452331543 202.09262084960938 C 71.6861572265625 209.9600372314453 89.18753051757812 223.0604705810547 81.83744812011719 205.57452392578125 C 68.85494995117188 191.28866577148438 62.528533935546875 207.9041290283203 109.62268829345703 213.66329956054688" stroke-width="2.0" fill="none" stroke="rgb(0, 0, 0)" stroke-opacity="1" stroke-linecap="round" stroke-linejoin="round"/>
    <path d="M 173.74920654296875 43.800716400146484 C 194.05152893066406 81.1033935546875 194.76280212402344 79.40460205078125 208.67868041992188 87.87247467041016 C 186.47402954101562 80.38980865478516 204.34573364257812 91.94577026367188 178.48794555664062 61.86913299560547" stroke-width="2.0" fill="none" stroke="rgb(0, 0, 0)" stroke-opacity="1" stroke-linecap="round" stroke-linejoin="round"/>
    <path d="M 153.42189025878906 151.26866149902344 C 139.02273559570312 155.37167358398438 136.70130920410156 160.49435424804688 140.80850219726562 168.50880432128906 C 147.79685974121094 147.33958435058594 157.3367156982422 174.95733642578125 145.22991943359375 155.12673950195312" stroke-width="2.0" fill="none" stroke="rgb(0, 0, 0)" stroke-opacity="1" stroke-linecap="round" stroke-linejoin="round"/>
    <path d="M 120.94801330566406 198.97482299804688 C 121.99674987792969 198.10903930664062 166.56283569335938 201.54246520996094 135.5603485107422 207.14308166503906 C 140.25579833984375 229.43797302246094 159.490478515625 215.64578247070312 140.62205505371094 216.3960418701172" stroke-width="2.0" fill="none" stroke="rgb(0, 0, 0)" stroke-opacity="1" stroke-linecap="round" stroke-linejoin="round"/>
    <path d="M -3.820962905883789 51.87986373901367 C -19.531213760375977 81.92005920410156 19.09568977355957 68.42157745361328 23.383386611938477 60.103782653808594 C 19.743976593017578 41.28413009643555 19.289405822753906 59.28227233886719 44.54835891723633 64.65428161621094 C 46.774864196777344 67.4350357055664 40.66680908203125 74.45635986328125 57.26217269897461 69.78366088867188" stroke-width="2.0" fill="none" stroke="rgb(0, 0, 0)" stroke-opacity="1" stroke-linecap="round" stroke-linejoin="round"/>
    <path d="M 107.46318817138672 167.87646484375 C 128.49029541015625 190.75131225585938 145.64808654785156 182.37928771972656 143.763916015625 176.22378540039062" stroke-width="2.0" fill="none" stroke="rgb(0, 0, 0)" stroke-opacity="1" stroke-linecap="round" stroke-linejoin="round"/>
    <path d="M 63.266944885253906 124.41226196289062 C 106.9209213256836 121.8515396118164 103.33966827392578 105.57889556884766 83.94835662841797 136.07650756835938 C 95.7838134765625 121.88130187988281 102.06586456298828 129.67031860351562 93.4449234008789 81.32041931152344" stroke-width="2.0" fill="none" stroke="rgb(0, 0, 0)" stroke-opacity="1" stroke-linecap="round" stroke-linejoin="round"/>
    <path d="M 141.37123107910156 185.0645751953125 C 148.41928100585938 194.3140869140625 164.9017791748047 190.39205932617188 159.86480712890625 174.49942016601562" stroke-width="2.0" fill="none" stroke="rgb(0, 0, 0)" stroke-opacity="1" stroke-linecap="round" stroke-linejoin="round"/>
    <path d="M -2.1068053245544434 76.69244384765625 C 8.395858764648438 85.6988754272461 -10.886756896972656 97.46144104003906 -9.924820899963379 96.2625732421875 C -2.1406867504119873 98.48684692382812 -2.9079642295837402 94.35786437988281 -12.075990676879883 104.71688842773438" stroke-width="2.0" fill="none" stroke="rgb(0, 0, 0)" stroke-opacity="1" stroke-linecap="round" stroke-linejoin="round"/>
    <path d="M 22.729055404663086 149.27548217773438 C 36.60518264770508 166.57102966308594 27.72789764404297 189.17742919921875 12.641401290893555 190.38070678710938 C 24.159242630004883 154.6981964111328 10.735666275024414 160.10105895996094 11.567078590393066 147.0923309326172 C 4.937734127044678 140.28465270996094 15.026987075805664 149.66317749023438 10.771156311035156 147.86048889160156" stroke-width="2.0" fill="none" stroke="rgb(0, 0, 0)" stroke-opacity="1" stroke-linecap="round" stroke-linejoin="round"/>
    <path d="M 65.70545196533203 203.55552673339844 C 68.32763671875 206.3728485107422 58.64939498901367 214.45761108398438 50.43785095214844 206.4693603515625 C 27.616132736206055 180.20750427246094 42.92620086669922 209.5898895263672 22.216896057128906 202.10179138183594" stroke-width="2.0" fill="none" stroke="rgb(0, 0, 0)" stroke-opacity="1" stroke-linecap="round" stroke-linejoin="round"/>
    <path d="M 51.65200424194336 41.19364929199219 C 41.60134506225586 41.856204986572266 34.68803787231445 64.57865905761719 57.60401916503906 59.05793380737305 C 47.60710906982422 25.777650833129883 36.651241302490234 16.167470932006836 27.133214950561523 15.3081636428833 C 27.39976692199707 1.1402063369750977 36.6080436706543 18.154680252075195 7.8177008628845215 13.748981475830078" stroke-width="2.0" fill="none" stroke="rgb(0, 0, 0)" stroke-opacity="1" stroke-linecap="round" stroke-linejoin="round"/>
    <path d="M 67.07675170898438 140.06619262695312 C 103.4334487915039 145.6226043701172 80.99725341796875 166.5184783935547 62.18515396118164 159.18984985351562 C 78.31370544433594 151.40335083007812 59.62346649169922 145.78030395507812 55.774024963378906 120.99212646484375" stroke-width="2.0" fill="none" stroke="rgb(0, 0, 0)" stroke-opacity="1" stroke-linecap="round" stroke-linejoin="round"/>
    <path d="M 121.58141326904297 52.431602478027344 C 96.69001007080078 52.9184455871582 171.185791015625 57.387535095214844 124.79773712158203 30.5510196685791" stroke-width="2.0" fill="none" stroke="rgb(0, 0, 0)" stroke-opacity="1" stroke-linecap="round" stroke-linejoin="round"/>
    <path d="M 97.87808990478516 -1.6382964849472046 C 62.41748046875 7.367071151733398 41.897586822509766 -12.249826431274414 92.15789794921875 -6.553134918212891 C 116.4923095703125 -1.84007728099823 66.62997436523438 21.662363052368164 35.326297760009766 7.063469886779785" stroke-width="2.0" fill="none" stroke="rgb(0, 0, 0)" stroke-opacity="1" stroke-linecap="round" stroke-linejoin="round"/>
    <path d="M 27.21639060974121 -3.5777833461761475 C 3.232299566268921 -3.8608450889587402 9.560994148254395 -6.348092555999756 23.055246353149414 -14.177483558654785 C 25.70937156677246 -6.730308532714844 26.518861770629883 -3.667393684387207 7.614760398864746 -2.7732629776000977" stroke-width="2.0" fill="none" stroke="rgb(0, 0, 0)" stroke-opacity="1" stroke-linecap="round" stroke-linejoin="round"/>
    <path d="M 98.60013580322266 198.00816345214844 C 120.6152114868164 184.55857849121094 110.96683502197266 190.76931762695312 107.42174530029297 183.0528106689453 C 94.25144958496094 186.84117126464844 95.37126159667969 156.9730987548828 99.06629943847656 155.1970672607422" stroke-width="2.0" fill="none" stroke="rgb(0, 0, 0)" stroke-opacity="1" stroke-linecap="round" stroke-linejoin="round"/>
    <path d="M 81.9773941040039 147.1318817138672 C 102.34528350830078 143.39259338378906 88.3131103515625 151.72166442871094 81.8788070678711 144.7125244140625" stroke-width="2.0" fill="none" stroke="rgb(0, 0, 0)" stroke-opacity="1" stroke-linecap="round" stroke-linejoin="round"/>
    <path d="M 41.94682312011719 25.063915252685547 C 70.55712890625 37.20109939575195 91.57344055175781 67.31737518310547 48.0054817199707 40.220558166503906" stroke-width="2.0" fill="none" stroke="rgb(0, 0, 0)" stroke-opacity="1" stroke-linecap="round" stroke-linejoin="round"/>
    <path d="M 10.445674896240234 229.21371459960938 C 15.894694328308105 197.80287170410156 6.324571132659912 207.79306030273438 19.894804000854492 205.89645385742188 C 14.289922714233398 201.4365997314453 44.56269073486328 214.3919219970703 23.172630310058594 187.87161254882812" stroke-width="2.0" fill="none" stroke="rgb(0, 0, 0)" stroke-opacity="1" stroke-linecap="round" stroke-linejoin="round"/>
    <path d="M 0.3593110740184784 184.19424438476562 C 11.433728218078613 205.29017639160156 28.32795524597168 199.2075958251953 18.4707088470459 186.64657592773438 C 15.250226974487305 169.9239501953125 26.747894287109375 190.65042114257812 20.086198806762695 153.35403442382812" stroke-width="2.0" fill="none" stroke="rgb(0, 0, 0)" stroke-opacity="1" stroke-linecap="round" stroke-linejoin="round"/>
  </g>
</svg>
