<?xml version="1.0" ?>
<svg xmlns="http://www.w3.org/2000/svg" version="1.1" width="224" height="224">
  <defs/>
  <g>
    <path d="M 69.90398406982422 213.21182250976562 C 100.99604797363281 233.91763305664062 97.94251251220703 232.50271606445312 87.97087097167969 222.14378356933594 C 88.13013458251953 207.62049865722656 66.09599304199219 191.8285675048828 96.1251449584961 208.20034790039062" stroke-width="2.0" fill="none" stroke="rgb(0, 0, 0)" stroke-opacity="1" stroke-linecap="round" stroke-linejoin="round"/>
    <path d="M 77.61783599853516 214.63388061523438 C 48.366817474365234 215.2770233154297 74.97521209716797 188.28411865234375 55.108829498291016 210.25833129882812 C 100.6297378540039 209.1217498779297 82.42292022705078 214.82269287109375 67.35249328613281 212.1785125732422 C 48.755001068115234 208.73390197753906 52.04468536376953 168.85353088378906 69.8349838256836 192.64149475097656" stroke-width="2.0" fill="none" stroke="rgb(0, 0, 0)" stroke-opacity="1" stroke-linecap="round" stroke-linejoin="round"/>
    <path d="M 98.74000549316406 214.81968688964844 C 86.16481018066406 216.78965759277344 107.6258773803711 228.42575073242188 140.68109130859375 206.0178680419922 C 137.71751403808594 200.45948791503906 113.931640625 230.03201293945312 134.94192504882812 202.4029541015625" stroke-width="2.0" fill="none" stroke="rgb(0, 0, 0)" stroke-opacity="1" stroke-linecap="round" stroke-linejoin="round"/>
    <path d="M 141.556396484375 156.38552856445312 C 121.03158569335938 165.5556182861328 103.35748291015625 162.51718139648438 104.77641296386719 192.1072540283203 C 95.43914794921875 154.61068725585938 95.0447998046875 168.0907440185547 100.12821960449219 143.5899658203125" stroke-width="2.0" fill="none" stroke="rgb(0, 0, 0)" stroke-opacity="1" stroke-linecap="round" stroke-linejoin="round"/>
    <path d="M 128.76368713378906 45.142852783203125 C 120.80103302001953 -10.492408752441406 105.34613800048828 -30.26846694946289 123.50972747802734 2.842866897583008 C 171.79736328125 -9.12574577331543 145.40550231933594 -13.377041816711426 134.08062744140625 36.298606872558594" stroke-width="2.0" fill="none" stroke="rgb(0, 0, 0)" stroke-opacity="1" stroke-linecap="round" stroke-linejoin="round"/>
    <path d="M 156.7237548828125 161.02882385253906 C 174.42489624023438 168.7889862060547 169.71739196777344 195.9271240234375 167.0162811279297 167.19668579101562" stroke-width="2.0" fill="none" stroke="rgb(0, 0, 0)" stroke-opacity="1" stroke-linecap="round" stroke-linejoin="round"/>
    <path d="M 125.68856048583984 169.34230041503906 C 123.4021987915039 211.0894317626953 136.0147247314453 165.0068359375 112.67488098144531 164.66793823242188 C 105.36160278320312 161.30792236328125 123.52759552001953 170.85862731933594 89.38838195800781 178.07240295410156" stroke-width="2.0" fill="none" stroke="rgb(0, 0, 0)" stroke-opacity="1" stroke-linecap="round" stroke-linejoin="round"/>
    <path d="M 43.72481155395508 50.27330780029297 C 24.240707397460938 85.37992858886719 65.94163513183594 98.33411407470703 49.98323440551758 47.846195220947266 C 27.36871337890625 46.77961730957031 48.177101135253906 67.87354278564453 44.27212905883789 64.11026763916016" stroke-width="2.0" fill="none" stroke="rgb(0, 0, 0)" stroke-opacity="1" stroke-linecap="round" stroke-linejoin="round"/>
    <path d="M 119.99710083007812 181.7777099609375 C 111.22542572021484 187.22836303710938 117.7632064819336 166.65313720703125 118.66680908203125 188.17442321777344" stroke-width="2.0" fill="none" stroke="rgb(0, 0, 0)" stroke-opacity="1" stroke-linecap="round" stroke-linejoin="round"/>
    <path d="M 21.741867065429688 233.954345703125 C 8.009221076965332 217.4220733642578 27.470909118652344 205.61459350585938 16.62021255493164 221.6078338623047 C 24.011638641357422 190.70314025878906 28.793222427368164 189.36190795898438 22.952421188354492 206.36648559570312" stroke-width="2.0" fill="none" stroke="rgb(0, 0, 0)" stroke-opacity="1" stroke-linecap="round" stroke-linejoin="round"/>
    <path d="M 164.31866455078125 149.94187927246094 C 197.86593627929688 154.98049926757812 182.64674377441406 160.7028350830078 179.71900939941406 136.03956604003906 C 194.10568237304688 156.629638671875 193.51441955566406 168.19680786132812 200.07859802246094 131.82496643066406" stroke-width="2.0" fill="none" stroke="rgb(0, 0, 0)" stroke-opacity="1" stroke-linecap="round" stroke-linejoin="round"/>
    <path d="M 180.60260009765625 138.84231567382812 C 207.61294555664062 176.90283203125 202.9780731201172 170.0226287841797 181.61123657226562 157.00662231445312 C 172.7279052734375 155.8864288330078 187.50405883789062 112.51791381835938 194.96267700195312 143.91807556152344 C 185.6128387451172 155.76441955566406 174.1458740234375 103.50946044921875 182.8737030029297 128.41024780273438" stroke-width="2.0" fill="none" stroke="rgb(0, 0, 0)" stroke-opacity="1" stroke-linecap="round" stroke-linejoin="round"/>
    <path d="M 112.85542297363281 105.06739044189453 C 132.6148681640625 98.48971557617188 134.22592163085938 97.77277374267578 120.61634063720703 103.28130340576172 C 132.8166046142578 96.63410186767578 140.22592163085938 130.27157592773438 127.59139251708984 125.12733459472656" stroke-width="2.0" fill="none" stroke="rgb(0, 0, 0)" stroke-opacity="1" stroke-linecap="round" stroke-linejoin="round"/>
    <path d="M 123.87316131591797 154.42459106445312 C 91.5414810180664 147.98260498046875 87.2393569946289 152.5689239501953 108.08338928222656 144.11056518554688 C 112.87833404541016 153.80609130859375 100.91845703125 139.78726196289062 78.84431457519531 162.69265747070312 C 121.2789077758789 152.37945556640625 101.83275604248047 162.74758911132812 92.10842895507812 173.9110870361328" stroke-width="2.0" fill="none" stroke="rgb(0, 0, 0)" stroke-opacity="1" stroke-linecap="round" stroke-linejoin="round"/>
    <path d="M 23.175580978393555 176.40151977539062 C 24.04877471923828 196.48910522460938 54.913780212402344 180.87991333007812 38.01097869873047 203.9763946533203 C 30.31509780883789 193.8714141845703 44.011043548583984 188.07717895507812 40.3472900390625 215.1096649169922" stroke-width="2.0" fill="none" stroke="rgb(0, 0, 0)" stroke-opacity="1" stroke-linecap="round" stroke-linejoin="round"/>
    <path d="M 39.703948974609375 138.23834228515625 C 48.321231842041016 105.52655029296875 38.81592559814453 96.83626556396484 35.61430740356445 119.06156921386719" stroke-width="2.0" fill="none" stroke="rgb(0, 0, 0)" stroke-opacity="1" stroke-linecap="round" stroke-linejoin="round"/>
    <path d="M 55.61171340942383 71.86554718017578 C 92.53272247314453 73.63493347167969 72.18606567382812 67.35295104980469 67.89564514160156 101.60304260253906 C 82.92880249023438 80.01719665527344 62.2614631652832 88.31937408447266 57.22916030883789 88.26384735107422 C 94.90084075927734 94.78995513916016 111.79464721679688 84.24211883544922 83.58902740478516 104.54969787597656" stroke-width="2.0" fill="none" stroke="rgb(0, 0, 0)" stroke-opacity="1" stroke-linecap="round" stroke-linejoin="round"/>
    <path d="M 130.06813049316406 134.97373962402344 C 123.77649688720703 137.8029327392578 96.86297607421875 145.46095275878906 125.12919616699219 132.56820678710938 C 111.19754028320312 165.8223876953125 113.59739685058594 154.614990234375 114.05799865722656 115.82521057128906" stroke-width="2.0" fill="none" stroke="rgb(0, 0, 0)" stroke-opacity="1" stroke-linecap="round" stroke-linejoin="round"/>
    <path d="M 145.03546142578125 0.9504349231719971 C 127.2066650390625 28.927223205566406 128.53448486328125 74.5073471069336 137.10226440429688 31.033370971679688" stroke-width="2.0" fill="none" stroke="rgb(0, 0, 0)" stroke-opacity="1" stroke-linecap="round" stroke-linejoin="round"/>
    <path d="M -1.223892331123352 138.89720153808594 C 5.626949787139893 93.70722961425781 8.229934692382812 101.11026000976562 22.202245712280273 92.9786605834961" stroke-width="2.0" fill="none" stroke="rgb(0, 0, 0)" stroke-opacity="1" stroke-linecap="round" stroke-linejoin="round"/>
    <path d="M 210.5978546142578 146.16806030273438 C 221.12574768066406 147.89987182617188 208.5651092529297 141.64466857910156 199.1228485107422 131.0574493408203 C 205.34983825683594 134.89854431152344 196.52603149414062 134.07632446289062 180.39517211914062 130.33834838867188" stroke-width="2.0" fill="none" stroke="rgb(0, 0, 0)" stroke-opacity="1" stroke-linecap="round" stroke-linejoin="round"/>
    <path d="M 29.36760139465332 98.62614440917969 C 27.398609161376953 105.26419067382812 14.788166999816895 101.68180084228516 30.290771484375 92.22750091552734 C -9.593038558959961 93.21794891357422 12.858311653137207 151.2814178466797 -2.1650640964508057 102.37213134765625 C 5.472048282623291 45.81608581542969 17.046344757080078 48.858741760253906 -4.1023945808410645 76.05497741699219" stroke-width="2.0" fill="none" stroke="rgb(0, 0, 0)" stroke-opacity="1" stroke-linecap="round" stroke-linejoin="round"/>
    <path d="M 67.5691146850586 135.2126922607422 C 83.33720397949219 94.1245346069336 72.58795928955078 88.28499603271484 81.09687042236328 146.0384521484375 C 87.98915100097656 87.02433013916016 99.72583770751953 80.76920318603516 107.85806274414062 105.85526275634766" stroke-width="2.0" fill="none" stroke="rgb(0, 0, 0)" stroke-opacity="1" stroke-linecap="round" stroke-linejoin="round"/>
    <path d="M 35.59364318847656 203.08981323242188 C 50.851646423339844 218.45327758789062 53.26466369628906 188.33387756347656 34.3666877746582 182.53504943847656 C 23.481353759765625 211.0789031982422 31.26284408569336 227.95205688476562 62.398094177246094 205.3553466796875" stroke-width="2.0" fill="none" stroke="rgb(0, 0, 0)" stroke-opacity="1" stroke-linecap="round" stroke-linejoin="round"/>
    <path d="M 230.0659942626953 102.06073760986328 C 224.38059997558594 76.60045623779297 186.66519165039062 93.07833862304688 228.74896240234375 95.05870819091797" stroke-width="2.0" fill="none" stroke="rgb(0, 0, 0)" stroke-opacity="1" stroke-linecap="round" stroke-linejoin="round"/>
    <path d="M 209.3466033935547 52.694522857666016 C 214.62411499023438 16.49785614013672 170.9546356201172 33.27080154418945 196.14047241210938 69.51781463623047" stroke-width="2.0" fill="none" stroke="rgb(0, 0, 0)" stroke-opacity="1" stroke-linecap="round" stroke-linejoin="round"/>
    <path d="M 185.84547424316406 40.41892623901367 C 200.48602294921875 75.31388854980469 208.86917114257812 41.89024353027344 235.08802795410156 37.76792907714844 C 228.67575073242188 28.95590591430664 238.7884521484375 23.903043746948242 237.2310791015625 19.150732040405273" stroke-width="2.0" fill="none" stroke="rgb(0, 0, 0)" stroke-opacity="1" stroke-linecap="round" stroke-linejoin="round"/>
    <path d="M 17.607528686523438 164.7975311279297 C 9.080825805664062 179.54983520507812 17.018558502197266 173.5409393310547 11.522245407104492 97.4892578125 C -1.4212173223495483 175.46241760253906 14.555695533752441 200.59381103515625 11.112613677978516 201.82022094726562 C 7.583588600158691 160.68240356445312 -12.716146469116211 182.05255126953125 -38.95781326293945 204.42872619628906" stroke-width="2.0" fill="none" stroke="rgb(0, 0, 0)" stroke-opacity="1" stroke-linecap="round" stroke-linejoin="round"/>
    <path d="M 65.57855224609375 167.14308166503906 C 96.6305160522461 165.00950622558594 78.43135070800781 146.3402557373047 79.775634765625 168.43885803222656 C 75.1178970336914 152.0858154296875 98.04195404052734 147.63600158691406 111.24221801757812 151.7399139404297 C 66.58982849121094 141.6205291748047 74.89482116699219 169.09152221679688 88.0152587890625 200.04124450683594" stroke-width="2.0" fill="none" stroke="rgb(0, 0, 0)" stroke-opacity="1" stroke-linecap="round" stroke-linejoin="round"/>
    <path d="M 193.019775390625 161.48623657226562 C 194.6809844970703 179.26275634765625 213.3181610107422 162.6702117919922 216.8982391357422 172.3146514892578 C 207.2163543701172 149.97512817382812 229.06027221679688 173.43063354492188 247.10548400878906 165.78343200683594 C 224.5912322998047 159.35227966308594 202.71717834472656 173.01820373535156 215.5941925048828 132.4273223876953" stroke-width="2.0" fill="none" stroke="rgb(0, 0, 0)" stroke-opacity="1" stroke-linecap="round" stroke-linejoin="round"/>
    <path d="M 49.11936950683594 199.9921875 C 32.91701889038086 219.6600799560547 17.501893997192383 196.00848388671875 49.31402587890625 204.96263122558594" stroke-width="2.0" fill="none" stroke="rgb(0, 0, 0)" stroke-opacity="1" stroke-linecap="round" stroke-linejoin="round"/>
    <path d="M 35.215450286865234 75.28060913085938 C 30.03721809387207 81.4734115600586 41.141292572021484 69.16436767578125 36.1203727722168 51.94629669189453" stroke-width="2.0" fill="none" stroke="rgb(0, 0, 0)" stroke-opacity="1" stroke-linecap="round" stroke-linejoin="round"/>
    <path d="M 25.50368881225586 88.82171630859375 C 12.742199897766113 95.8860092163086 26.636520385742188 63.41808319091797 25.237274169921875 85.21692657470703 C 24.663114547729492 89.03672790527344 6.530847072601318 81.82925415039062 16.464614868164062 50.065086364746094 C 0.12352198362350464 74.58546447753906 28.940162658691406 35.441471099853516 24.45477867126465 62.79111862182617" stroke-width="2.0" fill="none" stroke="rgb(0, 0, 0)" stroke-opacity="1" stroke-linecap="round" stroke-linejoin="round"/>
    <path d="M 132.0531768798828 159.06185913085938 C 116.81666564941406 188.8284454345703 147.23907470703125 180.8139190673828 142.00836181640625 157.2936248779297 C 138.4276123046875 185.89256286621094 121.218505859375 166.0454559326172 141.49620056152344 160.51390075683594 C 130.2725830078125 176.50123596191406 150.40452575683594 152.19784545898438 132.96070861816406 190.664794921875" stroke-width="2.0" fill="none" stroke="rgb(0, 0, 0)" stroke-opacity="1" stroke-linecap="round" stroke-linejoin="round"/>
    <path d="M 42.815574645996094 -2.820530652999878 C 54.610565185546875 27.58803367614746 45.91590881347656 17.128286361694336 54.57777786254883 18.809112548828125 C 38.40182113647461 -29.08810806274414 69.56253814697266 -5.7429914474487305 81.80709075927734 16.341510772705078 C 55.13518142700195 -12.879430770874023 21.331409454345703 -1.2999953031539917 50.36947250366211 -6.492055416107178" stroke-width="2.0" fill="none" stroke="rgb(0, 0, 0)" stroke-opacity="1" stroke-linecap="round" stroke-linejoin="round"/>
    <path d="M -2.5072665214538574 162.2294921875 C -0.08517242968082428 162.8971405029297 -3.979522466659546 164.1980743408203 -15.210638046264648 168.9868927001953" stroke-width="2.0" fill="none" stroke="rgb(0, 0, 0)" stroke-opacity="1" stroke-linecap="round" stroke-linejoin="round"/>
    <path d="M 152.75637817382812 102.42753601074219 C 154.3798065185547 159.23846435546875 150.67697143554688 198.97039794921875 149.20535278320312 172.42807006835938 C 147.3032684326172 165.75665283203125 161.85391235351562 138.80413818359375 161.0811767578125 163.88966369628906 C 174.78651428222656 171.96400451660156 147.61366271972656 201.66619873046875 156.03976440429688 186.2772979736328" stroke-width="2.0" fill="none" stroke="rgb(0, 0, 0)" stroke-opacity="1" stroke-linecap="round" stroke-linejoin="round"/>
    <path d="M 160.24917602539062 2.2541277408599854 C 146.88185119628906 22.576868057250977 179.5298309326172 26.901769638061523 169.08282470703125 1.8093808889389038" stroke-width="2.0" fill="none" stroke="rgb(0, 0, 0)" stroke-opacity="1" stroke-linecap="round" stroke-linejoin="round"/>
    <path d="M 100.03064727783203 73.7476806640625 C 127.84806060791016 66.87024688720703 116.95314025878906 66.77330780029297 103.6551284790039 85.32177734375 C 149.5128173828125 50.16283416748047 133.07765197753906 56.68629455566406 150.66397094726562 93.35709381103516 C 150.36944580078125 40.023372650146484 159.351318359375 75.42887115478516 133.3297882080078 39.95092010498047" stroke-width="2.0" fill="none" stroke="rgb(0, 0, 0)" stroke-opacity="1" stroke-linecap="round" stroke-linejoin="round"/>
    <path d="M 85.07968139648438 209.36883544921875 C 87.40547180175781 230.55784606933594 86.35136413574219 230.8738250732422 81.75318145751953 233.2476348876953 C 85.74634552001953 235.798583984375 96.82579803466797 232.60922241210938 81.59111022949219 213.26162719726562" stroke-width="2.0" fill="none" stroke="rgb(0, 0, 0)" stroke-opacity="1" stroke-linecap="round" stroke-linejoin="round"/>
    <path d="M 186.1634063720703 186.97262573242188 C 158.51931762695312 198.8502197265625 141.79568481445312 194.34400939941406 189.26553344726562 207.61167907714844" stroke-width="2.0" fill="none" stroke="rgb(0, 0, 0)" stroke-opacity="1" stroke-linecap="round" stroke-linejoin="round"/>
    <path d="M 35.057273864746094 34.95314025878906 C 35.1140022277832 69.53917694091797 23.002891540527344 -35.09294128417969 35.36732864379883 25.1555118560791" stroke-width="2.0" fill="none" stroke="rgb(0, 0, 0)" stroke-opacity="1" stroke-linecap="round" stroke-linejoin="round"/>
    <path d="M 45.55266189575195 121.48886108398438 C 31.439714431762695 131.76841735839844 25.49854278564453 106.1597900390625 48.440372467041016 103.39203643798828" stroke-width="2.0" fill="none" stroke="rgb(0, 0, 0)" stroke-opacity="1" stroke-linecap="round" stroke-linejoin="round"/>
    <path d="M 92.1799087524414 123.005615234375 C 63.3564453125 101.49835205078125 83.17168426513672 103.54053497314453 102.48014831542969 109.89563751220703 C 94.13063049316406 86.58008575439453 92.5973892211914 101.97779083251953 80.3682632446289 125.95066833496094" stroke-width="2.0" fill="none" stroke="rgb(0, 0, 0)" stroke-opacity="1" stroke-linecap="round" stroke-linejoin="round"/>
    <path d="M 58.61667251586914 66.91243743896484 C 53.895225524902344 94.0229263305664 37.864322662353516 70.8083267211914 43.71537399291992 103.58678436279297 C 28.897159576416016 133.27162170410156 49.55355453491211 125.10016632080078 62.33190155029297 78.0810546875 C 66.85076904296875 75.76934051513672 28.915624618530273 85.61334228515625 9.424161911010742 104.96980285644531" stroke-width="2.0" fill="none" stroke="rgb(0, 0, 0)" stroke-opacity="1" stroke-linecap="round" stroke-linejoin="round"/>
    <path d="M 206.70213317871094 227.2794647216797 C 210.89369201660156 220.27577209472656 231.1453857421875 217.5250244140625 218.16268920898438 190.13995361328125 C 215.87025451660156 181.9183349609375 211.16221618652344 217.65872192382812 200.48483276367188 203.7167205810547" stroke-width="2.0" fill="none" stroke="rgb(0, 0, 0)" stroke-opacity="1" stroke-linecap="round" stroke-linejoin="round"/>
    <path d="M 66.77737426757812 213.78195190429688 C 90.5257797241211 232.86488342285156 126.39631652832031 208.35455322265625 108.17654418945312 214.14244079589844" stroke-width="2.0" fill="none" stroke="rgb(0, 0, 0)" stroke-opacity="1" stroke-linecap="round" stroke-linejoin="round"/>
    <path d="M 186.63246154785156 40.14234161376953 C 220.60260009765625 48.94439697265625 233.19874572753906 79.00476837158203 220.79006958007812 98.84722900390625 C 209.8404541015625 64.58670806884766 179.59710693359375 70.69745635986328 203.19508361816406 50.401920318603516 C 220.34902954101562 59.027400970458984 199.09483337402344 60.01008224487305 206.88882446289062 49.75666427612305" stroke-width="2.0" fill="none" stroke="rgb(0, 0, 0)" stroke-opacity="1" stroke-linecap="round" stroke-linejoin="round"/>
    <path d="M 98.22728729248047 40.41828155517578 C 32.62736511230469 34.99811553955078 91.4588851928711 54.46143341064453 76.60337829589844 23.348787307739258 C 65.49981689453125 50.70502471923828 75.32103729248047 27.459760665893555 70.2458267211914 -10.48384952545166" stroke-width="2.0" fill="none" stroke="rgb(0, 0, 0)" stroke-opacity="1" stroke-linecap="round" stroke-linejoin="round"/>
    <path d="M 72.62630462646484 191.76856994628906 C 56.43561935424805 167.54403686523438 58.46091079711914 169.60597229003906 41.20090866088867 151.87277221679688 C 44.1212043762207 174.87652587890625 37.005348205566406 170.86476135253906 3.7017149925231934 159.90724182128906" stroke-width="2.0" fill="none" stroke="rgb(0, 0, 0)" stroke-opacity="1" stroke-linecap="round" stroke-linejoin="round"/>
    <path d="M 144.79444885253906 214.0235137939453 C 146.61038208007812 175.09271240234375 140.3722381591797 198.7562713623047 144.1743927001953 204.70668029785156 C 150.218017578125 221.19479370117188 159.3232421875 206.32687377929688 166.79161071777344 164.8281707763672" stroke-width="2.0" fill="none" stroke="rgb(0, 0, 0)" stroke-opacity="1" stroke-linecap="round" stroke-linejoin="round"/>
    <path d="M 35.10459518432617 1.3336565494537354 C 2.284938335418701 2.4927141666412354 3.7154316902160645 9.409744262695312 2.746724843978882 9.556561470031738 C 28.313695907592773 4.6586384773254395 23.82563018798828 -7.591519355773926 27.77173614501953 43.66337585449219" stroke-width="2.0" fill="none" stroke="rgb(0, 0, 0)" stroke-opacity="1" stroke-linecap="round" stroke-linejoin="round"/>
    <path d="M 125.85828399658203 -3.033327102661133 C 175.50521850585938 4.995746612548828 170.86004638671875 2.0354108810424805 175.5340576171875 43.633140563964844 C 153.40557861328125 33.48781204223633 175.80502319335938 23.519325256347656 168.70010375976562 33.74502182006836" stroke-width="2.0" fill="none" stroke="rgb(0, 0, 0)" stroke-opacity="1" stroke-linecap="round" stroke-linejoin="round"/>
    <path d="M 43.095848083496094 122.80091857910156 C 41.023738861083984 109.81478881835938 33.676300048828125 113.2791519165039 40.51561737060547 112.9246597290039 C 38.542476654052734 92.2414779663086 57.26521301269531 124.17460632324219 34.197105407714844 129.7863006591797 C 36.640960693359375 138.4361572265625 50.57358932495117 116.14881134033203 37.802528381347656 121.19920349121094" stroke-width="2.0" fill="none" stroke="rgb(0, 0, 0)" stroke-opacity="1" stroke-linecap="round" stroke-linejoin="round"/>
    <path d="M 36.5491943359375 199.7652587890625 C 31.865802764892578 146.322265625 52.71753692626953 148.50921630859375 22.744678497314453 155.0099334716797" stroke-width="2.0" fill="none" stroke="rgb(0, 0, 0)" stroke-opacity="1" stroke-linecap="round" stroke-linejoin="round"/>
    <path d="M 105.03280639648438 51.96372604370117 C 125.88735961914062 111.5359115600586 107.1105728149414 93.96870422363281 85.40386199951172 63.110172271728516" stroke-width="2.0" fill="none" stroke="rgb(0, 0, 0)" stroke-opacity="1" stroke-linecap="round" stroke-linejoin="round"/>
    <path d="M 201.43540954589844 215.98292541503906 C 222.21249389648438 220.9452667236328 236.15280151367188 235.9427947998047 239.6239013671875 241.74368286132812 C 228.1200408935547 236.255615234375 222.53611755371094 243.21734619140625 232.54791259765625 241.71389770507812" stroke-width="2.0" fill="none" stroke="rgb(0, 0, 0)" stroke-opacity="1" stroke-linecap="round" stroke-linejoin="round"/>
    <path d="M 43.7370719909668 101.11529541015625 C 25.82909393310547 108.41747283935547 23.98481559753418 74.1332778930664 27.486465454101562 113.06742858886719" stroke-width="2.0" fill="none" stroke="rgb(0, 0, 0)" stroke-opacity="1" stroke-linecap="round" stroke-linejoin="round"/>
    <path d="M 12.803436279296875 188.85421752929688 C 13.35754680633545 157.91390991210938 52.68136215209961 167.32301330566406 74.85552215576172 167.38818359375 C 56.08452606201172 198.54771423339844 51.018760681152344 175.73257446289062 54.70206832885742 200.09860229492188 C 74.51311492919922 148.0019989013672 50.011322021484375 126.2877426147461 48.92440414428711 146.14227294921875" stroke-width="2.0" fill="none" stroke="rgb(0, 0, 0)" stroke-opacity="1" stroke-linecap="round" stroke-linejoin="round"/>
    <path d="M 81.07355499267578 149.48007202148438 C 80.89537048339844 193.3664093017578 71.52594757080078 197.5767822265625 64.35303497314453 191.87425231933594 C 81.69791412353516 159.2876434326172 76.52581024169922 179.92457580566406 69.4657974243164 194.9862518310547 C 62.83059310913086 175.6900634765625 97.71175384521484 187.87933349609375 57.69820022583008 201.6962890625" stroke-width="2.0" fill="none" stroke="rgb(0, 0, 0)" stroke-opacity="1" stroke-linecap="round" stroke-linejoin="round"/>
    <path d="M 106.90877532958984 17.052627563476562 C 118.59345245361328 3.809830904006958 150.49867248535156 -4.417320251464844 124.33305358886719 1.3400405645370483 C 109.0746841430664 -9.962058067321777 113.87313079833984 -19.226476669311523 109.1763687133789 32.41458511352539 C 121.58966064453125 -6.038959503173828 117.3955307006836 63.61697769165039 115.89444732666016 21.966026306152344" stroke-width="2.0" fill="none" stroke="rgb(0, 0, 0)" stroke-opacity="1" stroke-linecap="round" stroke-linejoin="round"/>
    <path d="M 65.59334564208984 14.19092845916748 C 52.69536209106445 12.187036514282227 55.024505615234375 -2.7728636264801025 60.048519134521484 4.998694896697998 C 29.97545623779297 -1.850440502166748 77.79632568359375 -13.017593383789062 96.06878662109375 32.51499938964844" stroke-width="2.0" fill="none" stroke="rgb(0, 0, 0)" stroke-opacity="1" stroke-linecap="round" stroke-linejoin="round"/>
    <path d="M 136.244384765625 171.45755004882812 C 131.65347290039062 157.26795959472656 128.59825134277344 155.91934204101562 168.3180694580078 158.15980529785156 C 112.86800384521484 155.55860900878906 95.91120147705078 166.62525939941406 148.91893005371094 146.68995666503906 C 150.49256896972656 161.50912475585938 123.25590515136719 147.923583984375 126.77346801757812 139.8688201904297" stroke-width="2.0" fill="none" stroke="rgb(0, 0, 0)" stroke-opacity="1" stroke-linecap="round" stroke-linejoin="round"/>
    <path d="M 207.3367156982422 169.28311157226562 C 193.35208129882812 194.10882568359375 223.61915588378906 188.2967529296875 228.43350219726562 190.0674285888672 C 215.90280151367188 214.36004638671875 212.17910766601562 221.64328002929688 237.0159912109375 197.96298217773438 C 235.3401336669922 204.48699951171875 244.01156616210938 184.7657928466797 225.82725524902344 176.73739624023438" stroke-width="2.0" fill="none" stroke="rgb(0, 0, 0)" stroke-opacity="1" stroke-linecap="round" stroke-linejoin="round"/>
    <path d="M 217.83892822265625 159.78158569335938 C 196.3318328857422 177.4782257080078 223.19784545898438 157.14903259277344 216.3340301513672 185.4597930908203 C 219.3007354736328 202.37841796875 222.1259307861328 211.65020751953125 217.85745239257812 199.7073516845703 C 194.7974853515625 236.4412078857422 211.1168670654297 234.29351806640625 185.53515625 228.78555297851562" stroke-width="2.0" fill="none" stroke="rgb(0, 0, 0)" stroke-opacity="1" stroke-linecap="round" stroke-linejoin="round"/>
    <path d="M 79.65694427490234 216.6905975341797 C 80.82181549072266 205.6063690185547 79.45588684082031 230.88319396972656 87.49787902832031 229.82952880859375 C 133.64198303222656 228.50828552246094 92.9507827758789 234.80032348632812 121.87060546875 227.97476196289062 C 90.96994018554688 240.34463500976562 119.56365203857422 213.03561401367188 145.77560424804688 214.66357421875" stroke-width="2.0" fill="none" stroke="rgb(0, 0, 0)" stroke-opacity="1" stroke-linecap="round" stroke-linejoin="round"/>
    <path d="M 89.34686279296875 235.48587036132812 C 70.1659164428711 219.94606018066406 84.68660736083984 218.05165100097656 79.9172592163086 164.3387451171875 C 79.17636108398438 185.82098388671875 91.2882080078125 206.5442352294922 75.74583435058594 223.47447204589844" stroke-width="2.0" fill="none" stroke="rgb(0, 0, 0)" stroke-opacity="1" stroke-linecap="round" stroke-linejoin="round"/>
    <path d="M 56.78945541381836 97.56507110595703 C 58.428253173828125 110.80154418945312 51.22700119018555 123.74774169921875 66.01766967773438 113.93241882324219 C 53.45773696899414 97.17460632324219 48.63206100463867 110.43083953857422 62.98114776611328 136.3910369873047" stroke-width="2.0" fill="none" stroke="rgb(0, 0, 0)" stroke-opacity="1" stroke-linecap="round" stroke-linejoin="round"/>
    <path d="M 162.38536071777344 165.5342254638672 C 155.30909729003906 205.40184020996094 160.36602783203125 145.1393585205078 156.1881561279297 172.45819091796875" stroke-width="2.0" fill="none" stroke="rgb(0, 0, 0)" stroke-opacity="1" stroke-linecap="round" stroke-linejoin="round"/>
    <path d="M 116.34929656982422 143.8172149658203 C 137.86456298828125 131.7240447998047 104.67707824707031 106.81503295898438 100.35297393798828 108.5975341796875 C 136.29718017578125 119.55404663085938 126.2640609741211 147.74166870117188 114.47303009033203 131.8953399658203" stroke-width="2.0" fill="none" stroke="rgb(0, 0, 0)" stroke-opacity="1" stroke-linecap="round" stroke-linejoin="round"/>
    <path d="M 195.99647521972656 109.15026092529297 C 171.34185791015625 103.00301361083984 162.97203063964844 103.73733520507812 207.52049255371094 105.45728302001953 C 178.11904907226562 64.78826904296875 151.0227813720703 77.82410430908203 179.40911865234375 92.50086975097656 C 192.25559997558594 83.11628723144531 168.74253845214844 72.45176696777344 148.44863891601562 70.0422592163086" stroke-width="2.0" fill="none" stroke="rgb(0, 0, 0)" stroke-opacity="1" stroke-linecap="round" stroke-linejoin="round"/>
    <path d="M 132.03054809570312 -14.596853256225586 C 113.60774230957031 -1.7931089401245117 112.28562927246094 15.88509750366211 112.85749053955078 36.031707763671875" stroke-width="2.0" fill="none" stroke="rgb(0, 0, 0)" stroke-opacity="1" stroke-linecap="round" stroke-linejoin="round"/>
    <path d="M 151.69784545898438 196.10484313964844 C 148.38946533203125 207.9942626953125 136.133056640625 219.27667236328125 128.59226989746094 239.73074340820312 C 153.7120361328125 235.0914764404297 135.7780303955078 226.0067138671875 162.63970947265625 227.47178649902344" stroke-width="2.0" fill="none" stroke="rgb(0, 0, 0)" stroke-opacity="1" stroke-linecap="round" stroke-linejoin="round"/>
    <path d="M 165.39454650878906 110.069091796875 C 159.07278442382812 148.64991760253906 151.2435302734375 101.47575378417969 173.27615356445312 98.53546142578125 C 157.4344940185547 154.54275512695312 166.68072509765625 109.75188446044922 175.78102111816406 79.3792953491211" stroke-width="2.0" fill="none" stroke="rgb(0, 0, 0)" stroke-opacity="1" stroke-linecap="round" stroke-linejoin="round"/>
    <path d="M 77.27275085449219 77.57842254638672 C 54.06733703613281 62.022193908691406 71.42926788330078 62.36781311035156 79.9833984375 38.27446746826172 C 88.55188751220703 63.81013488769531 95.09288024902344 90.17071533203125 80.71339416503906 77.43458557128906 C 83.13921356201172 69.6299057006836 74.87515258789062 95.02911376953125 98.50167846679688 57.22572708129883" stroke-width="2.0" fill="none" stroke="rgb(0, 0, 0)" stroke-opacity="1" stroke-linecap="round" stroke-linejoin="round"/>
    <path d="M 213.0081787109375 121.82429504394531 C 218.9510955810547 74.29322052001953 219.12619018554688 99.92805480957031 226.0701446533203 125.2045669555664" stroke-width="2.0" fill="none" stroke="rgb(0, 0, 0)" stroke-opacity="1" stroke-linecap="round" stroke-linejoin="round"/>
    <path d="M 143.14462280273438 145.177978515625 C 149.1807861328125 136.6949005126953 138.53289794921875 144.42845153808594 131.6565704345703 148.6718292236328 C 145.457275390625 159.2345428466797 150.2974853515625 150.4047088623047 131.20681762695312 134.94107055664062" stroke-width="2.0" fill="none" stroke="rgb(0, 0, 0)" stroke-opacity="1" stroke-linecap="round" stroke-linejoin="round"/>
    <path d="M 155.34701538085938 82.38336944580078 C 133.59423828125 46.32747268676758 150.82644653320312 66.30321502685547 143.2848663330078 22.195964813232422 C 176.8783721923828 31.9366512298584 139.70570373535156 55.68758773803711 169.1002197265625 46.60910415649414 C 162.28451538085938 95.75273895263672 151.36114501953125 102.60771942138672 159.72349548339844 74.8783187866211" stroke-width="2.0" fill="none" stroke="rgb(0, 0, 0)" stroke-opacity="1" stroke-linecap="round" stroke-linejoin="round"/>
    <path d="M 145.49205017089844 117.62812042236328 C 146.2723846435547 93.95344543457031 147.90838623046875 143.6416778564453 130.5066375732422 107.22240447998047 C 157.57223510742188 108.47222900390625 129.03749084472656 93.46935272216797 141.27984619140625 93.70072937011719 C 149.24749755859375 107.88935852050781 120.05126190185547 98.37494659423828 144.0838623046875 102.51006317138672" stroke-width="2.0" fill="none" stroke="rgb(0, 0, 0)" stroke-opacity="1" stroke-linecap="round" stroke-linejoin="round"/>
    <path d="M 145.94151306152344 -5.792078018188477 C 136.45443725585938 -5.153556823730469 127.40738677978516 -15.519994735717773 136.9912109375 -25.847728729248047" stroke-width="2.0" fill="none" stroke="rgb(0, 0, 0)" stroke-opacity="1" stroke-linecap="round" stroke-linejoin="round"/>
    <path d="M 126.51753997802734 112.3516845703125 C 112.92198181152344 125.58627319335938 120.2637939453125 97.70440673828125 123.48116302490234 108.13089752197266 C 119.6941909790039 89.99497985839844 134.3531951904297 105.61067199707031 107.64311981201172 98.20048522949219 C 115.16867065429688 139.25999450683594 99.54385375976562 117.40043640136719 106.34868621826172 120.20410919189453" stroke-width="2.0" fill="none" stroke="rgb(0, 0, 0)" stroke-opacity="1" stroke-linecap="round" stroke-linejoin="round"/>
    <path d="M 95.57054138183594 59.37246322631836 C 69.07487487792969 46.052940368652344 64.99491119384766 54.06636047363281 45.35071563720703 89.38079833984375" stroke-width="2.0" fill="none" stroke="rgb(0, 0, 0)" stroke-opacity="1" stroke-linecap="round" stroke-linejoin="round"/>
    <path d="M 52.71427917480469 62.78288650512695 C 50.65137481689453 55.36107635498047 64.2244873046875 107.43799591064453 70.71202087402344 54.65083312988281 C 78.19784545898438 99.5306625366211 71.95234680175781 102.129150390625 71.40557098388672 47.62016677856445 C 69.79441833496094 66.36499786376953 84.63780212402344 69.01051330566406 65.36740112304688 93.69996643066406" stroke-width="2.0" fill="none" stroke="rgb(0, 0, 0)" stroke-opacity="1" stroke-linecap="round" stroke-linejoin="round"/>
    <path d="M 119.36495208740234 18.095684051513672 C 122.22789001464844 62.769248962402344 107.84223175048828 27.41961669921875 115.44624328613281 -14.525433540344238 C 114.5436782836914 47.06142044067383 108.79573059082031 45.31673049926758 101.55065155029297 -4.751554012298584 C 94.53329467773438 9.114387512207031 102.89862060546875 4.038781642913818 84.47058868408203 -8.178906440734863" stroke-width="2.0" fill="none" stroke="rgb(0, 0, 0)" stroke-opacity="1" stroke-linecap="round" stroke-linejoin="round"/>
    <path d="M 103.07744598388672 173.2383270263672 C 111.99069213867188 214.39784240722656 110.43103790283203 209.67721557617188 105.13711547851562 197.33311462402344 C 135.85044860839844 188.80409240722656 128.32742309570312 235.0572967529297 80.54727935791016 231.2034454345703" stroke-width="2.0" fill="none" stroke="rgb(0, 0, 0)" stroke-opacity="1" stroke-linecap="round" stroke-linejoin="round"/>
    <path d="M 147.3375244140625 18.263580322265625 C 159.62721252441406 -11.983355522155762 124.7198257446289 27.754661560058594 152.2999725341797 52.9744758605957" stroke-width="2.0" fill="none" stroke="rgb(0, 0, 0)" stroke-opacity="1" stroke-linecap="round" stroke-linejoin="round"/>
    <path d="M 169.76002502441406 180.711669921875 C 189.72482299804688 220.26722717285156 196.2996063232422 207.8568572998047 201.8285675048828 179.0638885498047 C 166.05828857421875 169.75686645507812 162.96592712402344 189.55201721191406 180.1797332763672 201.56277465820312" stroke-width="2.0" fill="none" stroke="rgb(0, 0, 0)" stroke-opacity="1" stroke-linecap="round" stroke-linejoin="round"/>
    <path d="M -5.436302185058594 65.71168518066406 C -23.16364288330078 66.73653411865234 -29.624893188476562 73.40467071533203 -35.613677978515625 71.90777587890625 C -18.67436408996582 65.63501739501953 -17.432537078857422 70.57820129394531 -9.85058307647705 75.35901641845703 C -10.484023094177246 75.15240478515625 -10.863142013549805 73.65383911132812 -19.811279296875 67.00030517578125" stroke-width="2.0" fill="none" stroke="rgb(0, 0, 0)" stroke-opacity="1" stroke-linecap="round" stroke-linejoin="round"/>
    <path d="M 231.0848846435547 12.249051094055176 C 229.05734252929688 8.790427207946777 240.08822631835938 13.311458587646484 231.1394500732422 65.20819854736328 C 222.4625244140625 54.049842834472656 230.99459838867188 26.04784393310547 211.61691284179688 0.47402867674827576 C 198.88743591308594 -3.1183488368988037 217.8154754638672 -2.9919776916503906 221.50205993652344 42.76369094848633" stroke-width="2.0" fill="none" stroke="rgb(0, 0, 0)" stroke-opacity="1" stroke-linecap="round" stroke-linejoin="round"/>
    <path d="M 207.9862518310547 188.76937866210938 C 223.27920532226562 158.7484588623047 227.42715454101562 176.9440460205078 216.6439971923828 199.67706298828125" stroke-width="2.0" fill="none" stroke="rgb(0, 0, 0)" stroke-opacity="1" stroke-linecap="round" stroke-linejoin="round"/>
    <path d="M 179.08412170410156 177.32131958007812 C 208.66741943359375 183.86770629882812 169.40777587890625 181.42291259765625 165.680908203125 197.95228576660156" stroke-width="2.0" fill="none" stroke="rgb(0, 0, 0)" stroke-opacity="1" stroke-linecap="round" stroke-linejoin="round"/>
    <path d="M 152.00564575195312 78.4120864868164 C 126.19857788085938 98.17003631591797 182.71588134765625 91.17115020751953 182.67848205566406 83.03137969970703 C 165.0392303466797 78.8862533569336 182.73129272460938 116.21256256103516 179.14122009277344 83.4516830444336" stroke-width="2.0" fill="none" stroke="rgb(0, 0, 0)" stroke-opacity="1" stroke-linecap="round" stroke-linejoin="round"/>
    <path d="M 205.93809509277344 -3.3086771965026855 C 226.74273681640625 2.1064491271972656 226.53184509277344 -8.336455345153809 236.02371215820312 -10.610262870788574" stroke-width="2.0" fill="none" stroke="rgb(0, 0, 0)" stroke-opacity="1" stroke-linecap="round" stroke-linejoin="round"/>
    <path d="M 22.559974670410156 167.3930206298828 C 17.05933380126953 158.64682006835938 8.96581745147705 171.22874450683594 16.295799255371094 147.49502563476562" stroke-width="2.0" fill="none" stroke="rgb(0, 0, 0)" stroke-opacity="1" stroke-linecap="round" stroke-linejoin="round"/>
    <path d="M 23.62015151977539 235.43023681640625 C -12.045488357543945 227.0297088623047 49.42029571533203 230.52879333496094 49.187103271484375 201.7674560546875 C 16.06602668762207 200.9420623779297 38.87736511230469 179.16635131835938 26.100385665893555 171.49586486816406 C 20.8289737701416 177.77224731445312 30.982351303100586 187.2913818359375 25.11566162109375 173.5505828857422" stroke-width="2.0" fill="none" stroke="rgb(0, 0, 0)" stroke-opacity="1" stroke-linecap="round" stroke-linejoin="round"/>
    <path d="M 175.07913208007812 107.1584243774414 C 189.67198181152344 136.7306671142578 162.28199768066406 161.79620361328125 192.7082061767578 135.59107971191406" stroke-width="2.0" fill="none" stroke="rgb(0, 0, 0)" stroke-opacity="1" stroke-linecap="round" stroke-linejoin="round"/>
    <path d="M 171.98773193359375 46.78120803833008 C 183.53494262695312 62.225643157958984 173.56439208984375 59.85886001586914 162.5835418701172 72.6602554321289" stroke-width="2.0" fill="none" stroke="rgb(0, 0, 0)" stroke-opacity="1" stroke-linecap="round" stroke-linejoin="round"/>
    <path d="M 148.99179077148438 230.6082305908203 C 164.96221923828125 228.2994842529297 161.8865509033203 237.14329528808594 169.0037384033203 244.74842834472656 C 160.98863220214844 250.29632568359375 164.305908203125 241.2847137451172 177.7471923828125 239.39747619628906 C 165.38943481445312 230.44993591308594 121.4896240234375 231.3460235595703 149.0140380859375 212.37298583984375" stroke-width="2.0" fill="none" stroke="rgb(0, 0, 0)" stroke-opacity="1" stroke-linecap="round" stroke-linejoin="round"/>
    <path d="M 14.817265510559082 104.74423217773438 C -2.0416762828826904 162.11253356933594 6.551693916320801 117.90171813964844 3.957120895385742 92.82393646240234 C 20.481172561645508 143.00543212890625 3.483172655105591 126.58251190185547 27.08494758605957 122.78364562988281 C 28.734983444213867 94.31733703613281 31.899215698242188 107.26815795898438 30.224620819091797 92.74888610839844" stroke-width="2.0" fill="none" stroke="rgb(0, 0, 0)" stroke-opacity="1" stroke-linecap="round" stroke-linejoin="round"/>
    <path d="M 165.65899658203125 6.874029159545898 C 153.66455078125 -24.72315216064453 156.39157104492188 28.53180694580078 139.09555053710938 43.907745361328125 C 134.9873809814453 2.181375741958618 153.86770629882812 26.66050910949707 145.31837463378906 44.23628234863281 C 145.50286865234375 38.62022399902344 152.354248046875 32.042686462402344 171.43873596191406 64.67892456054688" stroke-width="2.0" fill="none" stroke="rgb(0, 0, 0)" stroke-opacity="1" stroke-linecap="round" stroke-linejoin="round"/>
    <path d="M 178.49371337890625 194.89389038085938 C 195.4237823486328 211.86000061035156 198.06568908691406 184.6532440185547 207.82077026367188 189.13218688964844 C 203.066650390625 151.91546630859375 192.07333374023438 153.25424194335938 187.66795349121094 171.1442108154297" stroke-width="2.0" fill="none" stroke="rgb(0, 0, 0)" stroke-opacity="1" stroke-linecap="round" stroke-linejoin="round"/>
    <path d="M 91.57833099365234 194.5558319091797 C 94.98837280273438 184.6366424560547 80.06513977050781 183.91140747070312 94.15802001953125 195.1442413330078 C 93.33808135986328 145.55316162109375 116.3861083984375 192.4802703857422 98.60348510742188 181.25677490234375" stroke-width="2.0" fill="none" stroke="rgb(0, 0, 0)" stroke-opacity="1" stroke-linecap="round" stroke-linejoin="round"/>
    <path d="M 210.19317626953125 134.08131408691406 C 216.0847625732422 126.91483306884766 199.65170288085938 125.23947143554688 208.64596557617188 127.20279693603516 C 221.31927490234375 136.42071533203125 217.26226806640625 130.63906860351562 210.3623046875 124.86569213867188 C 202.21737670898438 144.134765625 214.3101348876953 127.06924438476562 212.54983520507812 138.12168884277344" stroke-width="2.0" fill="none" stroke="rgb(0, 0, 0)" stroke-opacity="1" stroke-linecap="round" stroke-linejoin="round"/>
    <path d="M 31.332786560058594 228.10580444335938 C 44.09141540527344 226.4668426513672 52.46441650390625 232.9051055908203 46.4669075012207 226.94419860839844 C 52.472320556640625 238.0499725341797 12.108317375183105 250.28872680664062 29.21715545654297 226.55503845214844 C 7.306744575500488 219.833251953125 12.169099807739258 210.41232299804688 52.40958023071289 230.29217529296875" stroke-width="2.0" fill="none" stroke="rgb(0, 0, 0)" stroke-opacity="1" stroke-linecap="round" stroke-linejoin="round"/>
    <path d="M 31.64606285095215 193.00755310058594 C 41.09805679321289 159.3694610595703 22.07077980041504 229.41358947753906 45.842071533203125 231.08096313476562" stroke-width="2.0" fill="none" stroke="rgb(0, 0, 0)" stroke-opacity="1" stroke-linecap="round" stroke-linejoin="round"/>
    <path d="M 37.55439758300781 151.70565795898438 C 61.39857482910156 152.2283477783203 75.82551574707031 148.30523681640625 72.02056884765625 114.02652740478516 C 106.98408508300781 100.49822998046875 94.94937896728516 132.86761474609375 78.13267517089844 143.7897491455078 C 70.5624008178711 93.61663818359375 79.06562805175781 111.95591735839844 88.27972412109375 129.85902404785156" stroke-width="2.0" fill="none" stroke="rgb(0, 0, 0)" stroke-opacity="1" stroke-linecap="round" stroke-linejoin="round"/>
    <path d="M 120.37407684326172 62.963130950927734 C 110.21116638183594 63.56049346923828 125.74808502197266 59.71989440917969 114.5505142211914 56.341590881347656" stroke-width="2.0" fill="none" stroke="rgb(0, 0, 0)" stroke-opacity="1" stroke-linecap="round" stroke-linejoin="round"/>
    <path d="M 83.04087829589844 171.85301208496094 C 90.70524597167969 151.55850219726562 86.48346710205078 142.775146484375 92.73529052734375 142.18006896972656 C 85.77023315429688 170.0380859375 73.43097686767578 158.5210418701172 106.86807250976562 174.48062133789062" stroke-width="2.0" fill="none" stroke="rgb(0, 0, 0)" stroke-opacity="1" stroke-linecap="round" stroke-linejoin="round"/>
    <path d="M 178.72523498535156 145.86488342285156 C 183.80746459960938 115.71100616455078 193.4803009033203 116.34527587890625 172.96092224121094 124.9999771118164" stroke-width="2.0" fill="none" stroke="rgb(0, 0, 0)" stroke-opacity="1" stroke-linecap="round" stroke-linejoin="round"/>
    <path d="M 117.69314575195312 76.17486572265625 C 109.64891052246094 118.67699432373047 109.3910903930664 96.66590118408203 85.09734344482422 50.20622253417969" stroke-width="2.0" fill="none" stroke="rgb(0, 0, 0)" stroke-opacity="1" stroke-linecap="round" stroke-linejoin="round"/>
    <path d="M 137.83905029296875 51.30756378173828 C 166.39248657226562 44.257713317871094 162.33348083496094 50.884071350097656 141.3194580078125 24.94099998474121 C 173.98365783691406 24.056188583374023 147.19036865234375 30.59431266784668 141.44049072265625 72.21044921875 C 125.08208465576172 54.22309875488281 139.61886596679688 64.14329528808594 147.09780883789062 97.97404479980469" stroke-width="2.0" fill="none" stroke="rgb(0, 0, 0)" stroke-opacity="1" stroke-linecap="round" stroke-linejoin="round"/>
    <path d="M 232.85707092285156 216.77928161621094 C 235.4026336669922 188.026123046875 216.65695190429688 165.19017028808594 215.8504638671875 210.93089294433594 C 223.55397033691406 188.58328247070312 224.02325439453125 171.95004272460938 225.2427978515625 186.773681640625 C 207.3514862060547 201.39834594726562 191.21656799316406 176.045166015625 213.32415771484375 185.00057983398438" stroke-width="2.0" fill="none" stroke="rgb(0, 0, 0)" stroke-opacity="1" stroke-linecap="round" stroke-linejoin="round"/>
    <path d="M 100.31675720214844 201.5271759033203 C 124.04641723632812 208.69581604003906 104.23348999023438 194.12594604492188 93.509033203125 165.681640625" stroke-width="2.0" fill="none" stroke="rgb(0, 0, 0)" stroke-opacity="1" stroke-linecap="round" stroke-linejoin="round"/>
    <path d="M 199.40426635742188 -6.988425254821777 C 199.1613311767578 24.13228416442871 187.9700164794922 34.173797607421875 202.71377563476562 24.674457550048828 C 193.30215454101562 16.665355682373047 167.85836791992188 33.01622772216797 194.2278289794922 4.348202705383301 C 158.32806396484375 -7.853837013244629 184.89016723632812 38.09738540649414 177.68516540527344 -1.3111975193023682" stroke-width="2.0" fill="none" stroke="rgb(0, 0, 0)" stroke-opacity="1" stroke-linecap="round" stroke-linejoin="round"/>
    <path d="M 217.14044189453125 104.44847106933594 C 202.95486450195312 72.23151397705078 212.84133911132812 79.8970947265625 213.51602172851562 61.49739074707031 C 223.77047729492188 64.7689208984375 216.46240234375 85.03877258300781 214.6793212890625 114.46805572509766 C 192.49295043945312 100.5947036743164 197.10194396972656 58.798274993896484 201.6483917236328 79.81941986083984" stroke-width="2.0" fill="none" stroke="rgb(0, 0, 0)" stroke-opacity="1" stroke-linecap="round" stroke-linejoin="round"/>
    <path d="M 58.07380294799805 202.253173828125 C 46.67794418334961 185.97433471679688 44.57593536376953 203.5625 27.78660774230957 220.283935546875 C 23.3304443359375 195.4201202392578 39.740421295166016 243.94049072265625 30.722877502441406 193.30970764160156" stroke-width="2.0" fill="none" stroke="rgb(0, 0, 0)" stroke-opacity="1" stroke-linecap="round" stroke-linejoin="round"/>
    <path d="M 168.65823364257812 174.38514709472656 C 196.85073852539062 173.1741180419922 204.74285888671875 174.6607208251953 190.317138671875 152.37818908691406 C 188.62258911132812 158.58712768554688 202.35092163085938 153.1934051513672 200.16921997070312 126.40885162353516 C 222.22174072265625 120.01811218261719 226.741455078125 151.4735870361328 213.39610290527344 170.3416290283203" stroke-width="2.0" fill="none" stroke="rgb(0, 0, 0)" stroke-opacity="1" stroke-linecap="round" stroke-linejoin="round"/>
    <path d="M 184.13742065429688 137.64964294433594 C 202.1830596923828 129.72120666503906 222.13290405273438 147.61720275878906 204.1254425048828 101.17665100097656 C 213.18191528320312 139.5305938720703 198.10362243652344 157.54318237304688 184.72561645507812 143.59234619140625 C 214.6942138671875 154.6794891357422 169.4271697998047 147.10684204101562 160.38148498535156 145.4927978515625" stroke-width="2.0" fill="none" stroke="rgb(0, 0, 0)" stroke-opacity="1" stroke-linecap="round" stroke-linejoin="round"/>
    <path d="M 218.98553466796875 89.76712036132812 C 220.52499389648438 82.96705627441406 218.94012451171875 90.10955047607422 218.2793426513672 84.87718963623047 C 225.93922424316406 88.86357116699219 193.56289672851562 89.71571350097656 206.9561004638672 92.77877807617188 C 207.42123413085938 96.3394546508789 198.86322021484375 97.03987884521484 201.7478790283203 86.64921569824219" stroke-width="2.0" fill="none" stroke="rgb(0, 0, 0)" stroke-opacity="1" stroke-linecap="round" stroke-linejoin="round"/>
    <path d="M 12.633291244506836 68.6886215209961 C 3.0155978202819824 98.29621887207031 5.283946990966797 77.73075866699219 13.746109008789062 59.8987922668457" stroke-width="2.0" fill="none" stroke="rgb(0, 0, 0)" stroke-opacity="1" stroke-linecap="round" stroke-linejoin="round"/>
    <path d="M 37.57136154174805 202.4556121826172 C 46.958248138427734 222.4279327392578 55.016510009765625 214.4488067626953 29.1407527923584 202.02081298828125 C 42.022674560546875 195.77688598632812 51.73587417602539 227.55767822265625 24.468128204345703 214.8085479736328 C 31.85897445678711 225.8296356201172 32.58463668823242 208.8148651123047 47.73377990722656 209.5458526611328" stroke-width="2.0" fill="none" stroke="rgb(0, 0, 0)" stroke-opacity="1" stroke-linecap="round" stroke-linejoin="round"/>
    <path d="M 158.58944702148438 202.28692626953125 C 165.79885864257812 233.39981079101562 130.1938018798828 223.4622802734375 120.54360961914062 233.9570770263672" stroke-width="2.0" fill="none" stroke="rgb(0, 0, 0)" stroke-opacity="1" stroke-linecap="round" stroke-linejoin="round"/>
    <path d="M 102.25739288330078 32.678287506103516 C 130.2288055419922 38.68480682373047 144.491455078125 68.45250701904297 141.4307861328125 60.979400634765625 C 136.6316680908203 -0.12034143507480621 160.62179565429688 -20.883142471313477 137.28565979003906 -5.584084987640381" stroke-width="2.0" fill="none" stroke="rgb(0, 0, 0)" stroke-opacity="1" stroke-linecap="round" stroke-linejoin="round"/>
    <path d="M 98.16126251220703 103.53800964355469 C 84.81546020507812 102.42951965332031 107.29682922363281 83.8221435546875 99.1061782836914 105.03589630126953" stroke-width="2.0" fill="none" stroke="rgb(0, 0, 0)" stroke-opacity="1" stroke-linecap="round" stroke-linejoin="round"/>
    <path d="M 50.126583099365234 44.44970703125 C 62.46366500854492 43.1148681640625 0.09611941128969193 46.978721618652344 11.976560592651367 62.026329040527344 C 11.582646369934082 55.69003677368164 24.415433883666992 52.18231964111328 13.814200401306152 79.61042022705078" stroke-width="2.0" fill="none" stroke="rgb(0, 0, 0)" stroke-opacity="1" stroke-linecap="round" stroke-linejoin="round"/>
    <path d="M 188.55250549316406 43.294124603271484 C 204.52305603027344 48.082427978515625 187.5031280517578 40.06499481201172 197.8745880126953 -11.784207344055176 C 206.39736938476562 -4.62236213684082 215.89353942871094 -7.543889999389648 225.42393493652344 23.628116607666016" stroke-width="2.0" fill="none" stroke="rgb(0, 0, 0)" stroke-opacity="1" stroke-linecap="round" stroke-linejoin="round"/>
    <path d="M 132.79527282714844 184.08956909179688 C 107.7861557006836 208.80812072753906 127.81831359863281 233.9701690673828 135.02908325195312 183.63720703125 C 125.30343627929688 228.92213439941406 126.93624114990234 211.88778686523438 154.53109741210938 208.17173767089844 C 132.33729553222656 193.29087829589844 116.10954284667969 205.10858154296875 140.89695739746094 184.18875122070312" stroke-width="2.0" fill="none" stroke="rgb(0, 0, 0)" stroke-opacity="1" stroke-linecap="round" stroke-linejoin="round"/>
    <path d="M 150.74253845214844 141.1240234375 C 147.88845825195312 68.39684295654297 136.0858612060547 61.09452819824219 156.20741271972656 111.09257507324219" stroke-width="2.0" fill="none" stroke="rgb(0, 0, 0)" stroke-opacity="1" stroke-linecap="round" stroke-linejoin="round"/>
    <path d="M 228.777587890625 141.95326232910156 C 245.09994506835938 118.067626953125 231.22718811035156 104.9864501953125 226.6621856689453 145.53123474121094 C 217.0517578125 112.82762145996094 211.1182403564453 73.04327392578125 223.49871826171875 113.46318054199219" stroke-width="2.0" fill="none" stroke="rgb(0, 0, 0)" stroke-opacity="1" stroke-linecap="round" stroke-linejoin="round"/>
    <path d="M 211.73902893066406 221.2476043701172 C 164.3317413330078 214.04342651367188 157.2471466064453 217.966064453125 214.21815490722656 223.85806274414062 C 202.43997192382812 218.11448669433594 184.53128051757812 221.7115936279297 142.9597930908203 221.59910583496094" stroke-width="2.0" fill="none" stroke="rgb(0, 0, 0)" stroke-opacity="1" stroke-linecap="round" stroke-linejoin="round"/>
    <path d="M 220.96900939941406 75.61773681640625 C 218.7701873779297 84.66966247558594 221.0279998779297 108.09188842773438 234.17628479003906 110.58184814453125 C 211.1941375732422 82.27310943603516 218.62210083007812 90.8405532836914 227.716064453125 75.927001953125" stroke-width="2.0" fill="none" stroke="rgb(0, 0, 0)" stroke-opacity="1" stroke-linecap="round" stroke-linejoin="round"/>
    <path d="M 93.0537338256836 86.68258666992188 C 52.25838088989258 67.9645004272461 91.01112365722656 94.78766632080078 65.71896362304688 107.12744903564453 C 60.37989807128906 72.98646545410156 47.12289810180664 91.29086303710938 75.19596862792969 98.98603057861328 C 58.376914978027344 113.93567657470703 61.753578186035156 106.24604797363281 52.103248596191406 57.340824127197266" stroke-width="2.0" fill="none" stroke="rgb(0, 0, 0)" stroke-opacity="1" stroke-linecap="round" stroke-linejoin="round"/>
    <path d="M 126.93605041503906 153.9554443359375 C 98.29778289794922 152.89193725585938 149.18040466308594 153.20199584960938 145.36131286621094 158.46304321289062 C 127.43788146972656 156.94993591308594 136.38458251953125 113.06212615966797 146.25523376464844 134.51058959960938" stroke-width="2.0" fill="none" stroke="rgb(0, 0, 0)" stroke-opacity="1" stroke-linecap="round" stroke-linejoin="round"/>
    <path d="M 138.8153076171875 227.43194580078125 C 155.77301025390625 217.71078491210938 143.2903289794922 213.5743408203125 135.1832733154297 234.39971923828125 C 150.78895568847656 215.27874755859375 114.55621337890625 216.0872039794922 153.30679321289062 204.178955078125" stroke-width="2.0" fill="none" stroke="rgb(0, 0, 0)" stroke-opacity="1" stroke-linecap="round" stroke-linejoin="round"/>
    <path d="M 81.27362060546875 66.84101104736328 C 111.72748565673828 82.12439727783203 100.53368377685547 35.59473419189453 98.93063354492188 42.402828216552734 C 81.6673812866211 61.92216110229492 85.32282257080078 31.637836456298828 94.11203002929688 52.49858474731445" stroke-width="2.0" fill="none" stroke="rgb(0, 0, 0)" stroke-opacity="1" stroke-linecap="round" stroke-linejoin="round"/>
    <path d="M 19.362098693847656 204.6204833984375 C 30.560970306396484 175.14720153808594 11.050882339477539 208.12709045410156 23.258161544799805 203.12261962890625" stroke-width="2.0" fill="none" stroke="rgb(0, 0, 0)" stroke-opacity="1" stroke-linecap="round" stroke-linejoin="round"/>
    <path d="M 213.22142028808594 226.74069213867188 C 214.3046112060547 226.04071044921875 228.99481201171875 228.45040893554688 214.3846435546875 231.87660217285156" stroke-width="2.0" fill="none" stroke="rgb(0, 0, 0)" stroke-opacity="1" stroke-linecap="round" stroke-linejoin="round"/>
    <path d="M 161.65122985839844 134.38629150390625 C 191.91177368164062 129.917236328125 200.1909637451172 137.68612670898438 165.0811767578125 119.97802734375 C 182.75296020507812 118.66177368164062 187.5487518310547 102.84246063232422 170.6353302001953 127.9278335571289 C 152.7542266845703 121.88146209716797 164.6978302001953 146.45799255371094 147.12307739257812 88.28458404541016" stroke-width="2.0" fill="none" stroke="rgb(0, 0, 0)" stroke-opacity="1" stroke-linecap="round" stroke-linejoin="round"/>
    <path d="M 17.383859634399414 22.120885848999023 C 10.70444393157959 -0.5728777050971985 22.258953094482422 52.63006591796875 12.430959701538086 96.70297241210938 C 5.951301574707031 31.821500778198242 10.782261848449707 -24.072723388671875 1.5989813804626465 26.314937591552734" stroke-width="2.0" fill="none" stroke="rgb(0, 0, 0)" stroke-opacity="1" stroke-linecap="round" stroke-linejoin="round"/>
    <path d="M 30.713481903076172 75.30696868896484 C 60.96397399902344 115.81248474121094 58.38740921020508 111.47113037109375 61.08759689331055 65.98591613769531" stroke-width="2.0" fill="none" stroke="rgb(0, 0, 0)" stroke-opacity="1" stroke-linecap="round" stroke-linejoin="round"/>
    <path d="M -3.097856283187866 155.7757568359375 C -5.14774227142334 138.7135772705078 -2.5234808921813965 161.82949829101562 -2.0120010375976562 192.34385681152344 C 4.268428325653076 149.65870666503906 7.679276943206787 116.52407836914062 -6.357182025909424 144.08656311035156 C -1.8926297426223755 170.89051818847656 10.440587043762207 157.82327270507812 9.44300365447998 176.87667846679688" stroke-width="2.0" fill="none" stroke="rgb(0, 0, 0)" stroke-opacity="1" stroke-linecap="round" stroke-linejoin="round"/>
    <path d="M 218.30628967285156 138.36424255371094 C 211.8965606689453 168.9884033203125 196.51361083984375 121.86851501464844 217.23709106445312 109.24796295166016 C 227.05938720703125 147.22817993164062 223.48670959472656 170.94186401367188 233.50521850585938 155.20201110839844 C 236.88787841796875 160.5259552001953 246.17556762695312 160.4608154296875 242.8320770263672 161.06654357910156" stroke-width="2.0" fill="none" stroke="rgb(0, 0, 0)" stroke-opacity="1" stroke-linecap="round" stroke-linejoin="round"/>
    <path d="M 161.68507385253906 121.81867980957031 C 163.66395568847656 78.84362030029297 206.5289306640625 112.02156066894531 179.5371551513672 125.7693862915039 C 183.81248474121094 109.49434661865234 201.61769104003906 113.40789031982422 196.84786987304688 141.97744750976562 C 213.30503845214844 147.66615295410156 207.90733337402344 128.59083557128906 202.52561950683594 108.78274536132812" stroke-width="2.0" fill="none" stroke="rgb(0, 0, 0)" stroke-opacity="1" stroke-linecap="round" stroke-linejoin="round"/>
    <path d="M 70.10051727294922 -13.217358589172363 C 67.81195068359375 15.68925666809082 64.2421646118164 42.84294891357422 67.68893432617188 8.715165138244629 C 65.97798919677734 18.788068771362305 62.66805648803711 60.76427459716797 69.01658630371094 44.16107940673828" stroke-width="2.0" fill="none" stroke="rgb(0, 0, 0)" stroke-opacity="1" stroke-linecap="round" stroke-linejoin="round"/>
    <path d="M 196.98779296875 30.566537857055664 C 174.63235473632812 54.97032165527344 192.96568298339844 46.03706741333008 197.44271850585938 51.82502746582031 C 205.3142852783203 0.8510373830795288 189.62452697753906 12.392723083496094 209.7669677734375 10.926078796386719" stroke-width="2.0" fill="none" stroke="rgb(0, 0, 0)" stroke-opacity="1" stroke-linecap="round" stroke-linejoin="round"/>
    <path d="M 89.77110290527344 51.79501724243164 C 61.232948303222656 89.89095306396484 96.74466705322266 69.42664337158203 39.93609619140625 64.17881774902344 C 38.509944915771484 81.26018524169922 38.059654235839844 79.42670440673828 45.069908142089844 73.3465347290039" stroke-width="2.0" fill="none" stroke="rgb(0, 0, 0)" stroke-opacity="1" stroke-linecap="round" stroke-linejoin="round"/>
    <path d="M 237.9730987548828 177.9437713623047 C 223.60061645507812 191.34918212890625 208.97100830078125 187.19546508789062 209.8099365234375 198.40162658691406 C 227.28778076171875 172.43722534179688 223.31199645996094 147.32701110839844 217.13682556152344 159.223876953125 C 210.15753173828125 201.67051696777344 230.8791961669922 212.96446228027344 230.1495361328125 224.66600036621094" stroke-width="2.0" fill="none" stroke="rgb(0, 0, 0)" stroke-opacity="1" stroke-linecap="round" stroke-linejoin="round"/>
    <path d="M 33.19468307495117 230.2440185546875 C 55.00270080566406 228.27008056640625 73.74976348876953 236.091552734375 74.70186614990234 241.68052673339844" stroke-width="2.0" fill="none" stroke="rgb(0, 0, 0)" stroke-opacity="1" stroke-linecap="round" stroke-linejoin="round"/>
    <path d="M 147.6779022216797 209.4248504638672 C 145.60043334960938 182.75184631347656 148.5515899658203 184.0952606201172 149.05615234375 211.70289611816406" stroke-width="2.0" fill="none" stroke="rgb(0, 0, 0)" stroke-opacity="1" stroke-linecap="round" stroke-linejoin="round"/>
    <path d="M 18.254981994628906 183.30624389648438 C 4.555210590362549 208.91905212402344 28.218814849853516 161.12242126464844 20.01026153564453 137.8995361328125 C 5.355677127838135 154.70945739746094 17.618549346923828 166.89918518066406 13.462574005126953 162.0688934326172" stroke-width="2.0" fill="none" stroke="rgb(0, 0, 0)" stroke-opacity="1" stroke-linecap="round" stroke-linejoin="round"/>
    <path d="M 73.72346496582031 190.5721435546875 C 90.89749908447266 149.12484741210938 81.87176513671875 138.64004516601562 85.34304809570312 161.966552734375 C 74.9327621459961 159.06346130371094 73.24421691894531 131.80223083496094 93.52620697021484 115.38361358642578 C 66.38772583007812 109.0054702758789 85.41778564453125 114.85616302490234 73.66732025146484 79.0758056640625" stroke-width="2.0" fill="none" stroke="rgb(0, 0, 0)" stroke-opacity="1" stroke-linecap="round" stroke-linejoin="round"/>
    <path d="M 48.282535552978516 45.817264556884766 C 54.78327560424805 44.99360656738281 31.066823959350586 84.83924865722656 24.310745239257812 62.9105110168457 C 52.7033805847168 31.55243492126465 52.96321105957031 46.430877685546875 62.308555603027344 52.73894119262695" stroke-width="2.0" fill="none" stroke="rgb(0, 0, 0)" stroke-opacity="1" stroke-linecap="round" stroke-linejoin="round"/>
    <path d="M 26.598873138427734 68.14654541015625 C 3.620366334915161 83.56909942626953 28.122135162353516 71.27473449707031 18.377439498901367 52.012237548828125 C 51.31851577758789 88.28762817382812 37.185855865478516 121.96322631835938 36.51381301879883 88.62738800048828 C 29.898141860961914 50.663753509521484 -15.294961929321289 85.42552185058594 -5.162823677062988 50.119163513183594" stroke-width="2.0" fill="none" stroke="rgb(0, 0, 0)" stroke-opacity="1" stroke-linecap="round" stroke-linejoin="round"/>
    <path d="M 84.36945343017578 21.882997512817383 C 83.6886978149414 58.18641662597656 101.0589370727539 9.500688552856445 98.62284851074219 52.67445373535156" stroke-width="2.0" fill="none" stroke="rgb(0, 0, 0)" stroke-opacity="1" stroke-linecap="round" stroke-linejoin="round"/>
    <path d="M 169.6919708251953 152.5333709716797 C 187.82888793945312 160.16018676757812 196.28732299804688 156.1644744873047 196.70545959472656 165.49246215820312 C 196.00465393066406 159.52438354492188 167.92710876464844 159.58482360839844 188.57875061035156 143.15869140625 C 194.9653778076172 184.34933471679688 181.5899658203125 171.7271270751953 213.73486328125 165.54371643066406" stroke-width="2.0" fill="none" stroke="rgb(0, 0, 0)" stroke-opacity="1" stroke-linecap="round" stroke-linejoin="round"/>
    <path d="M 179.80502319335938 26.479476928710938 C 224.67010498046875 19.93923568725586 198.7764129638672 60.3906135559082 183.56564331054688 39.94596481323242 C 215.20001220703125 19.497777938842773 194.72140502929688 24.690767288208008 198.75828552246094 -11.715802192687988" stroke-width="2.0" fill="none" stroke="rgb(0, 0, 0)" stroke-opacity="1" stroke-linecap="round" stroke-linejoin="round"/>
    <path d="M 127.09163665771484 213.0803985595703 C 145.04522705078125 214.10804748535156 104.7972183227539 216.8323211669922 116.88634490966797 233.60780334472656 C 139.50692749023438 234.69149780273438 140.692138671875 232.4435272216797 127.33357238769531 233.99472045898438" stroke-width="2.0" fill="none" stroke="rgb(0, 0, 0)" stroke-opacity="1" stroke-linecap="round" stroke-linejoin="round"/>
    <path d="M 16.417455673217773 125.1324691772461 C 13.860965728759766 109.79762268066406 20.043790817260742 96.64049530029297 19.06769561767578 120.88580322265625" stroke-width="2.0" fill="none" stroke="rgb(0, 0, 0)" stroke-opacity="1" stroke-linecap="round" stroke-linejoin="round"/>
    <path d="M 160.00270080566406 121.30677032470703 C 169.00633239746094 59.52549362182617 162.5383758544922 67.35918426513672 142.12655639648438 69.29222869873047" stroke-width="2.0" fill="none" stroke="rgb(0, 0, 0)" stroke-opacity="1" stroke-linecap="round" stroke-linejoin="round"/>
    <path d="M 39.061790466308594 102.08203125 C 70.82647705078125 94.29185485839844 59.93832778930664 131.9835205078125 56.90549850463867 104.78883361816406 C 43.56028747558594 104.5191879272461 43.36043167114258 103.78607177734375 43.4564094543457 104.5722427368164" stroke-width="2.0" fill="none" stroke="rgb(0, 0, 0)" stroke-opacity="1" stroke-linecap="round" stroke-linejoin="round"/>
    <path d="M 48.10439682006836 146.37303161621094 C 35.903438568115234 143.36126708984375 70.81034851074219 123.9211196899414 55.872352600097656 164.1985321044922 C 60.19984436035156 174.14837646484375 48.555240631103516 186.3065948486328 75.76904296875 181.80801391601562 C 53.54598617553711 158.17628479003906 30.54296875 147.15164184570312 35.38533401489258 162.96034240722656" stroke-width="2.0" fill="none" stroke="rgb(0, 0, 0)" stroke-opacity="1" stroke-linecap="round" stroke-linejoin="round"/>
    <path d="M 217.54879760742188 66.3064956665039 C 195.80470275878906 73.87603759765625 182.73716735839844 70.02534484863281 213.56390380859375 89.56676483154297 C 187.982177734375 73.48634338378906 184.89385986328125 78.06617736816406 217.8888397216797 118.90216064453125" stroke-width="2.0" fill="none" stroke="rgb(0, 0, 0)" stroke-opacity="1" stroke-linecap="round" stroke-linejoin="round"/>
    <path d="M 72.05085754394531 230.14736938476562 C 102.09306335449219 228.68325805664062 103.32843017578125 236.74684143066406 100.15618133544922 236.1125946044922 C 86.03568267822266 235.32089233398438 86.62628936767578 229.4682159423828 82.53929901123047 231.89073181152344 C 72.65823364257812 240.43972778320312 71.25469207763672 248.23272705078125 60.298763275146484 256.9983215332031" stroke-width="2.0" fill="none" stroke="rgb(0, 0, 0)" stroke-opacity="1" stroke-linecap="round" stroke-linejoin="round"/>
    <path d="M 227.48512268066406 80.64791870117188 C 228.462158203125 108.18970489501953 223.86473083496094 86.90943145751953 190.49412536621094 55.061981201171875 C 198.32366943359375 110.33133697509766 194.90968322753906 69.63319396972656 215.56851196289062 80.0406265258789 C 221.52294921875 97.43978118896484 234.44107055664062 145.3026123046875 230.51974487304688 127.29906463623047" stroke-width="2.0" fill="none" stroke="rgb(0, 0, 0)" stroke-opacity="1" stroke-linecap="round" stroke-linejoin="round"/>
    <path d="M 106.57081604003906 147.02130126953125 C 86.84673309326172 122.76612091064453 109.38682556152344 121.64486694335938 108.97833251953125 143.5442352294922 C 112.81015014648438 101.03178405761719 126.94477844238281 86.68938446044922 134.38743591308594 120.9230728149414" stroke-width="2.0" fill="none" stroke="rgb(0, 0, 0)" stroke-opacity="1" stroke-linecap="round" stroke-linejoin="round"/>
    <path d="M 161.8495635986328 33.13087463378906 C 166.49440002441406 -1.4166052341461182 179.17800903320312 12.944726943969727 180.7391815185547 67.09296417236328 C 178.1537628173828 44.83970260620117 183.40599060058594 89.11608123779297 178.83355712890625 53.28996658325195" stroke-width="2.0" fill="none" stroke="rgb(0, 0, 0)" stroke-opacity="1" stroke-linecap="round" stroke-linejoin="round"/>
    <path d="M 21.58732795715332 167.90054321289062 C -4.755381107330322 152.91754150390625 8.63168716430664 191.99996948242188 -0.005408860743045807 216.84747314453125 C 0.8236435055732727 183.81771850585938 10.440176010131836 179.13768005371094 17.73931312561035 174.17898559570312" stroke-width="2.0" fill="none" stroke="rgb(0, 0, 0)" stroke-opacity="1" stroke-linecap="round" stroke-linejoin="round"/>
    <path d="M 134.67364501953125 93.38217163085938 C 105.06494903564453 70.33403778076172 133.24868774414062 71.24462127685547 120.6161880493164 86.54674530029297 C 131.16506958007812 125.01746368408203 133.97496032714844 40.98672103881836 127.28666687011719 73.2548599243164" stroke-width="2.0" fill="none" stroke="rgb(0, 0, 0)" stroke-opacity="1" stroke-linecap="round" stroke-linejoin="round"/>
    <path d="M -3.1494288444519043 219.19869995117188 C -6.3367228507995605 230.04124450683594 -6.9095234870910645 239.10354614257812 4.1921892166137695 237.90078735351562 C -2.5355076789855957 240.37362670898438 -11.783647537231445 250.4481658935547 -8.505865097045898 243.53225708007812" stroke-width="2.0" fill="none" stroke="rgb(0, 0, 0)" stroke-opacity="1" stroke-linecap="round" stroke-linejoin="round"/>
    <path d="M 168.33375549316406 198.24935913085938 C 195.23350524902344 177.67266845703125 198.01943969726562 204.42185974121094 190.96725463867188 200.88543701171875 C 189.9442901611328 195.85794067382812 196.73190307617188 188.94456481933594 177.11947631835938 206.1621856689453 C 197.5900115966797 228.5775604248047 200.66900634765625 210.9049530029297 162.30810546875 202.83323669433594" stroke-width="2.0" fill="none" stroke="rgb(0, 0, 0)" stroke-opacity="1" stroke-linecap="round" stroke-linejoin="round"/>
    <path d="M 79.05542755126953 174.4325408935547 C 85.34882354736328 209.83432006835938 102.99518585205078 183.25477600097656 106.84822845458984 207.71673583984375 C 100.72669982910156 203.1479034423828 91.73384857177734 184.48281860351562 133.1431121826172 204.13954162597656 C 114.61468505859375 241.79861450195312 82.21934509277344 209.3382110595703 93.58345031738281 202.91001892089844" stroke-width="2.0" fill="none" stroke="rgb(0, 0, 0)" stroke-opacity="1" stroke-linecap="round" stroke-linejoin="round"/>
    <path d="M 99.52470397949219 145.49142456054688 C 110.28598022460938 152.17141723632812 94.43557739257812 139.69863891601562 104.44957733154297 126.89949798583984 C 93.32476806640625 187.0483856201172 69.08958435058594 185.269287109375 106.72557067871094 136.66078186035156 C 117.9458236694336 149.0140380859375 95.3362045288086 160.30548095703125 109.10688781738281 138.57823181152344" stroke-width="2.0" fill="none" stroke="rgb(0, 0, 0)" stroke-opacity="1" stroke-linecap="round" stroke-linejoin="round"/>
    <path d="M 70.87812042236328 209.893310546875 C 31.914657592773438 207.5528564453125 73.57536315917969 196.19769287109375 67.8260726928711 227.57708740234375 C 87.82005310058594 226.8326873779297 74.26567077636719 232.5129852294922 76.50585174560547 246.01512145996094 C 74.96920013427734 237.43856811523438 76.61078643798828 235.65513610839844 83.0977783203125 228.65577697753906" stroke-width="2.0" fill="none" stroke="rgb(0, 0, 0)" stroke-opacity="1" stroke-linecap="round" stroke-linejoin="round"/>
    <path d="M 220.1814727783203 39.63517379760742 C 203.9742889404297 44.15695571899414 223.47093200683594 24.138893127441406 219.23898315429688 28.309669494628906 C 183.55441284179688 27.719207763671875 184.01611328125 18.066370010375977 179.32546997070312 -14.684677124023438" stroke-width="2.0" fill="none" stroke="rgb(0, 0, 0)" stroke-opacity="1" stroke-linecap="round" stroke-linejoin="round"/>
    <path d="M 3.280151844024658 -4.0625505447387695 C -8.186908721923828 26.726417541503906 -4.779743194580078 28.067340850830078 -8.02975845336914 14.185340881347656 C 1.0283883810043335 31.0726375579834 -14.025257110595703 12.946638107299805 -1.4118889570236206 -8.479698181152344" stroke-width="2.0" fill="none" stroke="rgb(0, 0, 0)" stroke-opacity="1" stroke-linecap="round" stroke-linejoin="round"/>
    <path d="M 43.29553985595703 160.55357360839844 C 35.3018913269043 176.05699157714844 31.272205352783203 182.8805694580078 23.147424697875977 140.99501037597656 C 31.400148391723633 190.94558715820312 55.11495590209961 199.86129760742188 32.02724075317383 219.5178680419922" stroke-width="2.0" fill="none" stroke="rgb(0, 0, 0)" stroke-opacity="1" stroke-linecap="round" stroke-linejoin="round"/>
    <path d="M 199.519775390625 25.537044525146484 C 200.7385711669922 15.673219680786133 179.9356689453125 46.89790725708008 207.49765014648438 49.26799011230469" stroke-width="2.0" fill="none" stroke="rgb(0, 0, 0)" stroke-opacity="1" stroke-linecap="round" stroke-linejoin="round"/>
    <path d="M 40.39517593383789 25.093486785888672 C 24.504362106323242 -33.079463958740234 33.05463790893555 1.0667917728424072 78.90644836425781 -2.7906527519226074 C 50.50469207763672 -12.996797561645508 46.37907791137695 -23.125593185424805 62.074798583984375 26.320894241333008 C 56.035953521728516 31.44454574584961 72.45054626464844 -18.690814971923828 52.014644622802734 -5.131650924682617" stroke-width="2.0" fill="none" stroke="rgb(0, 0, 0)" stroke-opacity="1" stroke-linecap="round" stroke-linejoin="round"/>
    <path d="M 228.7403564453125 171.0982666015625 C 225.51483154296875 155.9198760986328 214.82870483398438 155.42691040039062 207.41604614257812 166.67904663085938 C 232.1130828857422 181.53927612304688 209.42617797851562 159.9656982421875 228.2158660888672 163.2279510498047 C 238.55398559570312 151.69834899902344 230.888916015625 148.02317810058594 233.09597778320312 159.28013610839844" stroke-width="2.0" fill="none" stroke="rgb(0, 0, 0)" stroke-opacity="1" stroke-linecap="round" stroke-linejoin="round"/>
    <path d="M 187.38082885742188 86.94505310058594 C 182.6587371826172 145.38856506347656 166.2290496826172 77.06121826171875 174.1249542236328 85.76045227050781" stroke-width="2.0" fill="none" stroke="rgb(0, 0, 0)" stroke-opacity="1" stroke-linecap="round" stroke-linejoin="round"/>
    <path d="M 8.916203498840332 204.56031799316406 C -6.622451305389404 189.446044921875 11.840414047241211 150.87747192382812 4.299729347229004 169.66549682617188 C 4.592735290527344 218.3289031982422 20.722911834716797 196.27899169921875 13.744095802307129 226.23648071289062" stroke-width="2.0" fill="none" stroke="rgb(0, 0, 0)" stroke-opacity="1" stroke-linecap="round" stroke-linejoin="round"/>
    <path d="M 200.8220977783203 80.89399719238281 C 208.7526397705078 55.14716339111328 215.7347869873047 49.35793685913086 228.2310333251953 74.1693344116211 C 210.6772003173828 103.20846557617188 198.1107940673828 100.34285736083984 213.86830139160156 118.62584686279297" stroke-width="2.0" fill="none" stroke="rgb(0, 0, 0)" stroke-opacity="1" stroke-linecap="round" stroke-linejoin="round"/>
    <path d="M 11.880231857299805 159.06451416015625 C 21.160051345825195 148.67755126953125 18.24135398864746 149.641845703125 16.01782989501953 149.3603973388672 C 7.450379848480225 136.6752471923828 21.021650314331055 184.48147583007812 17.586986541748047 142.3999786376953 C 12.533853530883789 140.51039123535156 22.9318904876709 133.5752410888672 22.115514755249023 140.55276489257812" stroke-width="2.0" fill="none" stroke="rgb(0, 0, 0)" stroke-opacity="1" stroke-linecap="round" stroke-linejoin="round"/>
    <path d="M 94.5650405883789 219.54803466796875 C 78.4129867553711 189.35386657714844 83.73922729492188 207.19480895996094 85.3097915649414 235.11961364746094 C 102.34908294677734 220.3153839111328 77.35367584228516 197.07376098632812 82.43486022949219 210.1458740234375" stroke-width="2.0" fill="none" stroke="rgb(0, 0, 0)" stroke-opacity="1" stroke-linecap="round" stroke-linejoin="round"/>
    <path d="M 168.62965393066406 178.3861083984375 C 174.49668884277344 150.23866271972656 158.528076171875 158.88658142089844 150.70196533203125 107.75531005859375" stroke-width="2.0" fill="none" stroke="rgb(0, 0, 0)" stroke-opacity="1" stroke-linecap="round" stroke-linejoin="round"/>
    <path d="M 63.4981575012207 130.80844116210938 C 80.94676208496094 120.5984115600586 70.06536865234375 103.87625885009766 73.79524993896484 120.3415756225586 C 75.35529327392578 108.73089599609375 106.57466888427734 141.08030700683594 76.72283935546875 127.96778869628906" stroke-width="2.0" fill="none" stroke="rgb(0, 0, 0)" stroke-opacity="1" stroke-linecap="round" stroke-linejoin="round"/>
    <path d="M 163.73179626464844 168.6602783203125 C 159.81565856933594 211.4156036376953 162.6930694580078 201.28306579589844 168.8003387451172 175.8914031982422 C 178.47271728515625 182.9073028564453 178.54747009277344 204.38070678710938 184.04515075683594 182.6605987548828 C 159.63743591308594 161.19027709960938 166.83203125 218.3893585205078 180.01243591308594 193.0994110107422" stroke-width="2.0" fill="none" stroke="rgb(0, 0, 0)" stroke-opacity="1" stroke-linecap="round" stroke-linejoin="round"/>
    <path d="M 144.443359375 170.12709045410156 C 118.38802337646484 215.60855102539062 125.88391876220703 180.1936492919922 133.11949157714844 190.67807006835938 C 145.9188690185547 161.75418090820312 121.46300506591797 184.48858642578125 134.0270233154297 179.7765350341797" stroke-width="2.0" fill="none" stroke="rgb(0, 0, 0)" stroke-opacity="1" stroke-linecap="round" stroke-linejoin="round"/>
    <path d="M 95.45059967041016 91.22509002685547 C 107.86991119384766 87.2800521850586 107.44168090820312 115.79612731933594 83.83760070800781 102.44837188720703 C 125.40657806396484 101.74060821533203 111.95040130615234 135.47898864746094 99.53955841064453 130.92042541503906" stroke-width="2.0" fill="none" stroke="rgb(0, 0, 0)" stroke-opacity="1" stroke-linecap="round" stroke-linejoin="round"/>
    <path d="M 30.465253829956055 -4.905323505401611 C 19.015701293945312 -3.183838129043579 16.24127960205078 -9.892552375793457 8.470813751220703 -16.57032585144043 C 16.618804931640625 -4.940681457519531 10.039422988891602 -6.147274971008301 14.277243614196777 -7.42466926574707" stroke-width="2.0" fill="none" stroke="rgb(0, 0, 0)" stroke-opacity="1" stroke-linecap="round" stroke-linejoin="round"/>
    <path d="M -0.37995442748069763 82.05892181396484 C 2.218214273452759 81.97196960449219 2.2500693798065186 64.36803436279297 2.8206825256347656 32.028499603271484" stroke-width="2.0" fill="none" stroke="rgb(0, 0, 0)" stroke-opacity="1" stroke-linecap="round" stroke-linejoin="round"/>
    <path d="M 25.66581916809082 2.557605266571045 C 13.673666954040527 3.2867937088012695 32.44987487792969 2.3562586307525635 24.717443466186523 3.3421125411987305" stroke-width="2.0" fill="none" stroke="rgb(0, 0, 0)" stroke-opacity="1" stroke-linecap="round" stroke-linejoin="round"/>
    <path d="M 75.4465103149414 156.86070251464844 C 52.21175765991211 149.65753173828125 49.29622268676758 136.01654052734375 53.99126434326172 123.66641235351562 C 58.676734924316406 146.03321838378906 39.41838836669922 133.689697265625 56.97890853881836 121.51908111572266 C 20.783178329467773 133.3626251220703 33.07710647583008 120.9371566772461 37.348087310791016 156.45321655273438" stroke-width="2.0" fill="none" stroke="rgb(0, 0, 0)" stroke-opacity="1" stroke-linecap="round" stroke-linejoin="round"/>
    <path d="M 76.59165954589844 109.09500122070312 C 113.40107727050781 109.27815246582031 114.76236724853516 94.66663360595703 88.75555419921875 106.25411224365234" stroke-width="2.0" fill="none" stroke="rgb(0, 0, 0)" stroke-opacity="1" stroke-linecap="round" stroke-linejoin="round"/>
    <path d="M 175.12745666503906 35.929744720458984 C 139.25360107421875 58.15482711791992 151.78298950195312 89.903076171875 135.56610107421875 61.86099624633789" stroke-width="2.0" fill="none" stroke="rgb(0, 0, 0)" stroke-opacity="1" stroke-linecap="round" stroke-linejoin="round"/>
    <path d="M 65.27506256103516 177.65304565429688 C 87.92670440673828 176.27291870117188 25.618112564086914 152.84059143066406 49.293331146240234 176.29942321777344 C 44.969879150390625 197.04180908203125 28.66335678100586 159.6981658935547 58.352813720703125 166.2397003173828 C 18.905658721923828 165.4794158935547 22.786571502685547 171.85659790039062 55.36956787109375 164.91908264160156" stroke-width="2.0" fill="none" stroke="rgb(0, 0, 0)" stroke-opacity="1" stroke-linecap="round" stroke-linejoin="round"/>
    <path d="M 96.8514404296875 159.14962768554688 C 78.21095275878906 157.18960571289062 68.82451629638672 172.0828399658203 107.43940734863281 188.62168884277344 C 110.74179077148438 144.8285675048828 104.4269790649414 128.73609924316406 104.85274505615234 144.45654296875" stroke-width="2.0" fill="none" stroke="rgb(0, 0, 0)" stroke-opacity="1" stroke-linecap="round" stroke-linejoin="round"/>
    <path d="M 191.80152893066406 113.5916519165039 C 188.62954711914062 103.03945922851562 211.24525451660156 112.32986450195312 174.5625457763672 119.18519592285156" stroke-width="2.0" fill="none" stroke="rgb(0, 0, 0)" stroke-opacity="1" stroke-linecap="round" stroke-linejoin="round"/>
    <path d="M 159.42359924316406 132.66180419921875 C 160.77587890625 185.973876953125 153.87783813476562 118.52733612060547 164.96424865722656 161.33924865722656" stroke-width="2.0" fill="none" stroke="rgb(0, 0, 0)" stroke-opacity="1" stroke-linecap="round" stroke-linejoin="round"/>
    <path d="M 95.5975341796875 36.262054443359375 C 79.34388732910156 43.37811279296875 66.45880889892578 38.39731979370117 41.84697723388672 46.259029388427734" stroke-width="2.0" fill="none" stroke="rgb(0, 0, 0)" stroke-opacity="1" stroke-linecap="round" stroke-linejoin="round"/>
  </g>
</svg>
