<?xml version="1.0" ?>
<svg xmlns="http://www.w3.org/2000/svg" version="1.1" width="224" height="224">
  <defs/>
  <g>
    <path d="M 89.2342300415039 13.182130813598633 C 77.49678802490234 -3.024474620819092 50.68948745727539 10.746777534484863 75.60023498535156 9.78330135345459 C 74.3565444946289 -13.813212394714355 68.89971160888672 -15.680662155151367 75.62403869628906 -25.921504974365234" stroke-width="2.0" fill="none" stroke="rgb(0, 0, 0)" stroke-opacity="1" stroke-linecap="round" stroke-linejoin="round"/>
    <path d="M 212.55882263183594 187.16476440429688 C 265.9595031738281 186.9314422607422 214.8052215576172 180.54737854003906 196.64622497558594 197.3208770751953 C 193.0714111328125 190.58718872070312 210.36460876464844 184.67449951171875 246.86294555664062 178.70635986328125 C 213.93804931640625 166.82904052734375 192.1604766845703 187.46107482910156 193.02537536621094 206.64682006835938" stroke-width="2.0" fill="none" stroke="rgb(0, 0, 0)" stroke-opacity="1" stroke-linecap="round" stroke-linejoin="round"/>
    <path d="M 26.1061954498291 130.101806640625 C 19.803945541381836 128.5578155517578 47.35238265991211 123.92188262939453 22.23662567138672 116.38505554199219 C 48.91592025756836 122.84300994873047 64.66786193847656 134.67108154296875 73.37491607666016 128.25083923339844 C 31.92244529724121 127.85355377197266 27.762052536010742 116.46741485595703 52.7955207824707 96.79077911376953" stroke-width="2.0" fill="none" stroke="rgb(0, 0, 0)" stroke-opacity="1" stroke-linecap="round" stroke-linejoin="round"/>
    <path d="M 104.49411010742188 105.72927856445312 C 104.03713989257812 105.09693145751953 111.75313568115234 97.74893188476562 104.7474136352539 104.68135833740234 C 100.54579162597656 121.41120147705078 108.84927368164062 94.48104095458984 103.74058532714844 111.6134262084961 C 95.73580932617188 114.14874267578125 108.96613311767578 101.57152557373047 105.85086822509766 116.73835754394531" stroke-width="2.0" fill="none" stroke="rgb(0, 0, 0)" stroke-opacity="1" stroke-linecap="round" stroke-linejoin="round"/>
    <path d="M 75.56558227539062 113.57109832763672 C 71.17449951171875 106.53226470947266 93.25798034667969 112.4217300415039 70.78180694580078 130.138916015625 C 91.49838256835938 123.60877227783203 79.42395782470703 141.85391235351562 83.87610626220703 115.13716888427734" stroke-width="2.0" fill="none" stroke="rgb(0, 0, 0)" stroke-opacity="1" stroke-linecap="round" stroke-linejoin="round"/>
    <path d="M 161.4838409423828 116.53097534179688 C 143.02931213378906 106.18738555908203 190.4959259033203 100.16519927978516 150.95361328125 101.98645782470703" stroke-width="2.0" fill="none" stroke="rgb(0, 0, 0)" stroke-opacity="1" stroke-linecap="round" stroke-linejoin="round"/>
    <path d="M 74.9511489868164 145.32733154296875 C 87.6551513671875 146.3031005859375 52.838722229003906 145.50120544433594 53.83494186401367 152.8631591796875 C 97.72461700439453 137.11878967285156 90.13670349121094 141.1341094970703 90.08671569824219 157.1798095703125" stroke-width="2.0" fill="none" stroke="rgb(0, 0, 0)" stroke-opacity="1" stroke-linecap="round" stroke-linejoin="round"/>
    <path d="M 24.9476375579834 129.0734100341797 C 42.641136169433594 123.74304962158203 25.832998275756836 107.4656753540039 -10.930055618286133 112.57296752929688 C -9.312115669250488 120.92227172851562 -11.541707038879395 130.1685333251953 -14.287701606750488 128.72959899902344" stroke-width="2.0" fill="none" stroke="rgb(0, 0, 0)" stroke-opacity="1" stroke-linecap="round" stroke-linejoin="round"/>
    <path d="M 173.7818603515625 49.075904846191406 C 161.01702880859375 52.90874099731445 147.81591796875 47.56484603881836 180.07015991210938 30.557024002075195 C 162.69580078125 26.75163459777832 133.7906494140625 68.57341766357422 146.92388916015625 83.27850341796875 C 196.05551147460938 53.84516906738281 166.1160125732422 29.381778717041016 160.3436737060547 50.87509536743164" stroke-width="2.0" fill="none" stroke="rgb(0, 0, 0)" stroke-opacity="1" stroke-linecap="round" stroke-linejoin="round"/>
    <path d="M 137.19898986816406 117.6395034790039 C 120.32171630859375 103.97040557861328 126.70670318603516 121.06616973876953 132.22764587402344 105.35674285888672 C 113.14308166503906 93.35897827148438 103.44737243652344 113.98770904541016 105.71635437011719 103.84712219238281" stroke-width="2.0" fill="none" stroke="rgb(0, 0, 0)" stroke-opacity="1" stroke-linecap="round" stroke-linejoin="round"/>
    <path d="M 52.2462272644043 152.86375427246094 C 79.00202941894531 139.33627319335938 80.84422302246094 140.89596557617188 55.08013153076172 147.43478393554688 C 79.45172119140625 145.8974151611328 74.61007690429688 146.6220703125 55.67219543457031 150.15383911132812 C 101.9863510131836 133.73220825195312 72.05200958251953 163.2898406982422 81.75213623046875 169.90374755859375" stroke-width="2.0" fill="none" stroke="rgb(0, 0, 0)" stroke-opacity="1" stroke-linecap="round" stroke-linejoin="round"/>
    <path d="M 138.8379669189453 29.043914794921875 C 157.36607360839844 21.491416931152344 140.1056365966797 36.68282699584961 149.69607543945312 68.70826721191406" stroke-width="2.0" fill="none" stroke="rgb(0, 0, 0)" stroke-opacity="1" stroke-linecap="round" stroke-linejoin="round"/>
    <path d="M 58.936893463134766 165.21139526367188 C 60.73649597167969 154.99485778808594 28.50798988342285 164.7246856689453 58.04341125488281 163.79542541503906" stroke-width="2.0" fill="none" stroke="rgb(0, 0, 0)" stroke-opacity="1" stroke-linecap="round" stroke-linejoin="round"/>
    <path d="M 145.89581298828125 75.21050262451172 C 150.1737518310547 61.01841735839844 140.30535888671875 38.4249267578125 114.47868347167969 53.86807632446289" stroke-width="2.0" fill="none" stroke="rgb(0, 0, 0)" stroke-opacity="1" stroke-linecap="round" stroke-linejoin="round"/>
    <path d="M 30.58701515197754 79.26705932617188 C -22.1082706451416 18.089725494384766 23.00746726989746 22.32496452331543 21.34359359741211 68.89785766601562" stroke-width="2.0" fill="none" stroke="rgb(0, 0, 0)" stroke-opacity="1" stroke-linecap="round" stroke-linejoin="round"/>
    <path d="M 152.84402465820312 97.6522216796875 C 184.2220458984375 100.592041015625 181.59889221191406 129.4421844482422 172.70843505859375 82.60418701171875 C 148.22903442382812 42.63814163208008 171.18592834472656 66.66095733642578 178.4467010498047 80.71273803710938" stroke-width="2.0" fill="none" stroke="rgb(0, 0, 0)" stroke-opacity="1" stroke-linecap="round" stroke-linejoin="round"/>
    <path d="M 193.08184814453125 49.682167053222656 C 172.73692321777344 48.22636795043945 181.12167358398438 45.1127815246582 213.34266662597656 46.175086975097656 C 226.77081298828125 76.17890167236328 217.43089294433594 43.864986419677734 196.64205932617188 47.819217681884766" stroke-width="2.0" fill="none" stroke="rgb(0, 0, 0)" stroke-opacity="1" stroke-linecap="round" stroke-linejoin="round"/>
    <path d="M 144.13333129882812 26.602519989013672 C 135.49838256835938 42.67809295654297 131.40321350097656 35.12898254394531 136.12193298339844 31.14305877685547 C 151.70936584472656 31.74958610534668 137.03790283203125 27.193092346191406 148.53109741210938 5.769048690795898 C 176.6420440673828 3.132587432861328 172.46290588378906 -0.3966441750526428 150.86300659179688 19.849863052368164" stroke-width="2.0" fill="none" stroke="rgb(0, 0, 0)" stroke-opacity="1" stroke-linecap="round" stroke-linejoin="round"/>
    <path d="M 177.9479217529297 148.41819763183594 C 160.39161682128906 154.9264373779297 181.5292510986328 174.9053192138672 177.44464111328125 153.44996643066406" stroke-width="2.0" fill="none" stroke="rgb(0, 0, 0)" stroke-opacity="1" stroke-linecap="round" stroke-linejoin="round"/>
    <path d="M 99.41873931884766 121.80481719970703 C 93.45588684082031 104.59544372558594 77.90118408203125 103.14043426513672 89.53343200683594 125.67630767822266 C 107.82521057128906 133.32640075683594 117.27205657958984 145.87701416015625 97.45930480957031 127.91224670410156 C 102.70694732666016 118.86724090576172 89.88489532470703 133.8383026123047 101.39129638671875 122.16241455078125" stroke-width="2.0" fill="none" stroke="rgb(0, 0, 0)" stroke-opacity="1" stroke-linecap="round" stroke-linejoin="round"/>
    <path d="M 84.09346008300781 185.58355712890625 C 98.23310089111328 190.2779998779297 79.5792007446289 180.86964416503906 95.23250579833984 177.9247283935547 C 91.35600280761719 178.53700256347656 72.56128692626953 174.50196838378906 61.135799407958984 188.66009521484375" stroke-width="2.0" fill="none" stroke="rgb(0, 0, 0)" stroke-opacity="1" stroke-linecap="round" stroke-linejoin="round"/>
    <path d="M 187.8659210205078 108.69256591796875 C 202.44189453125 105.39427185058594 217.06317138671875 111.1806640625 231.1835174560547 94.18281555175781" stroke-width="2.0" fill="none" stroke="rgb(0, 0, 0)" stroke-opacity="1" stroke-linecap="round" stroke-linejoin="round"/>
    <path d="M 207.02322387695312 67.35535430908203 C 212.5107879638672 57.881465911865234 189.24269104003906 51.24942398071289 194.63278198242188 55.33830261230469" stroke-width="2.0" fill="none" stroke="rgb(0, 0, 0)" stroke-opacity="1" stroke-linecap="round" stroke-linejoin="round"/>
    <path d="M 197.84967041015625 49.81285858154297 C 207.2970428466797 47.77667236328125 206.60316467285156 32.032535552978516 195.717529296875 56.93381118774414 C 213.82440185546875 24.884178161621094 212.3907012939453 11.149330139160156 248.57839965820312 26.370637893676758 C 225.76454162597656 12.949074745178223 213.38302612304688 10.564027786254883 202.6319122314453 38.44075393676758" stroke-width="2.0" fill="none" stroke="rgb(0, 0, 0)" stroke-opacity="1" stroke-linecap="round" stroke-linejoin="round"/>
    <path d="M 74.69625854492188 16.945846557617188 C 92.53418731689453 -4.966063022613525 70.41255950927734 -13.344058990478516 69.97193145751953 2.101571798324585 C 86.98553466796875 18.88861656188965 75.87784576416016 8.43220043182373 82.41624450683594 48.01307678222656 C 74.486083984375 12.088741302490234 92.4034652709961 -5.445322513580322 90.2483901977539 11.576155662536621" stroke-width="2.0" fill="none" stroke="rgb(0, 0, 0)" stroke-opacity="1" stroke-linecap="round" stroke-linejoin="round"/>
    <path d="M 106.37918090820312 151.34197998046875 C 96.4601821899414 189.1136932373047 78.93809509277344 182.35760498046875 87.16288757324219 179.04335021972656 C 62.165321350097656 183.1399688720703 77.47834014892578 205.81658935546875 93.84453582763672 179.62286376953125 C 100.27507781982422 190.40869140625 74.81498718261719 207.7568359375 92.22623443603516 197.09083557128906" stroke-width="2.0" fill="none" stroke="rgb(0, 0, 0)" stroke-opacity="1" stroke-linecap="round" stroke-linejoin="round"/>
    <path d="M 192.23504638671875 156.31320190429688 C 204.068359375 122.73091888427734 245.2852020263672 131.30813598632812 245.1282501220703 133.41270446777344 C 221.2481231689453 145.68441772460938 229.01507568359375 149.61944580078125 234.9518585205078 149.4442596435547 C 234.03842163085938 150.65565490722656 233.35263061523438 147.29440307617188 237.12911987304688 158.3951416015625" stroke-width="2.0" fill="none" stroke="rgb(0, 0, 0)" stroke-opacity="1" stroke-linecap="round" stroke-linejoin="round"/>
    <path d="M 56.744102478027344 196.461669921875 C 66.8941650390625 231.06954956054688 46.62739562988281 199.2814483642578 80.59806060791016 182.76675415039062 C 92.90731811523438 180.14553833007812 73.92096710205078 176.3229217529297 61.26559066772461 193.8155975341797" stroke-width="2.0" fill="none" stroke="rgb(0, 0, 0)" stroke-opacity="1" stroke-linecap="round" stroke-linejoin="round"/>
    <path d="M 124.41471862792969 28.797754287719727 C 123.97649383544922 47.42428970336914 111.5561752319336 18.299299240112305 112.16930389404297 19.916044235229492" stroke-width="2.0" fill="none" stroke="rgb(0, 0, 0)" stroke-opacity="1" stroke-linecap="round" stroke-linejoin="round"/>
    <path d="M 86.0301513671875 22.60586929321289 C 86.62761688232422 -1.5408072471618652 73.08711242675781 21.831485748291016 67.71658325195312 9.031587600708008 C 79.16075134277344 23.602201461791992 80.90401458740234 45.1746826171875 81.71969604492188 51.50529479980469 C 72.4892349243164 7.307804107666016 28.500450134277344 11.399641036987305 57.297603607177734 23.914443969726562" stroke-width="2.0" fill="none" stroke="rgb(0, 0, 0)" stroke-opacity="1" stroke-linecap="round" stroke-linejoin="round"/>
    <path d="M 91.97954559326172 86.06488800048828 C 84.17060852050781 74.05779266357422 92.5293960571289 95.26494598388672 100.79368591308594 103.56758880615234 C 103.46202087402344 80.89256286621094 84.1033706665039 71.19661712646484 90.48731231689453 39.88701248168945" stroke-width="2.0" fill="none" stroke="rgb(0, 0, 0)" stroke-opacity="1" stroke-linecap="round" stroke-linejoin="round"/>
    <path d="M 183.74725341796875 104.84078979492188 C 180.86495971679688 109.37215423583984 176.96633911132812 84.19654083251953 188.03648376464844 64.48274993896484 C 175.95042419433594 72.61886596679688 181.29110717773438 83.39910888671875 144.30918884277344 64.62051391601562 C 147.5218505859375 73.42313385009766 197.84307861328125 59.26105880737305 190.81405639648438 67.98068237304688" stroke-width="2.0" fill="none" stroke="rgb(0, 0, 0)" stroke-opacity="1" stroke-linecap="round" stroke-linejoin="round"/>
    <path d="M 119.49312591552734 75.43801879882812 C 88.59065246582031 120.39433288574219 113.01923370361328 105.25421142578125 140.46893310546875 93.19527435302734 C 110.18887329101562 100.35335540771484 119.05415344238281 104.1420669555664 127.02899169921875 97.07952880859375 C 121.7469482421875 112.93186950683594 109.2856674194336 87.26873016357422 123.30309295654297 124.90595245361328" stroke-width="2.0" fill="none" stroke="rgb(0, 0, 0)" stroke-opacity="1" stroke-linecap="round" stroke-linejoin="round"/>
    <path d="M 123.49617004394531 32.778221130371094 C 92.15999603271484 27.25490379333496 87.08555603027344 31.203901290893555 122.5029296875 18.69731330871582 C 117.4346923828125 23.48177719116211 134.6062774658203 15.925966262817383 110.51280975341797 14.278915405273438 C 135.0098114013672 38.95753479003906 148.50254821777344 22.227069854736328 146.5614471435547 47.28582763671875" stroke-width="2.0" fill="none" stroke="rgb(0, 0, 0)" stroke-opacity="1" stroke-linecap="round" stroke-linejoin="round"/>
    <path d="M 96.29098510742188 212.0604705810547 C 91.2790756225586 187.3582305908203 77.99855041503906 200.97645568847656 76.52230834960938 198.46380615234375" stroke-width="2.0" fill="none" stroke="rgb(0, 0, 0)" stroke-opacity="1" stroke-linecap="round" stroke-linejoin="round"/>
    <path d="M 52.10831069946289 113.5442886352539 C 42.87948989868164 112.41693878173828 26.494556427001953 128.40557861328125 27.975120544433594 130.04513549804688 C 26.866790771484375 115.8015365600586 7.5320940017700195 114.67383575439453 14.164377212524414 136.02487182617188" stroke-width="2.0" fill="none" stroke="rgb(0, 0, 0)" stroke-opacity="1" stroke-linecap="round" stroke-linejoin="round"/>
    <path d="M 206.97982788085938 108.62847137451172 C 222.1537628173828 135.34751892089844 188.89125061035156 101.00788879394531 204.29513549804688 107.85169982910156 C 197.8484344482422 106.12218475341797 190.02194213867188 107.16761016845703 197.3990478515625 113.62522888183594 C 210.19619750976562 93.59085845947266 184.4965057373047 100.03577423095703 190.8577880859375 150.75802612304688" stroke-width="2.0" fill="none" stroke="rgb(0, 0, 0)" stroke-opacity="1" stroke-linecap="round" stroke-linejoin="round"/>
    <path d="M 120.54259490966797 112.76966857910156 C 116.78243255615234 95.58706665039062 119.43281555175781 105.47557830810547 92.18799591064453 110.5881576538086 C 109.97880554199219 106.63687896728516 107.35149383544922 105.38431549072266 79.14912414550781 110.03620147705078 C 80.92280578613281 101.37608337402344 98.4586181640625 100.1900863647461 99.32908630371094 128.7581329345703" stroke-width="2.0" fill="none" stroke="rgb(0, 0, 0)" stroke-opacity="1" stroke-linecap="round" stroke-linejoin="round"/>
    <path d="M -11.802136421203613 52.992919921875 C 10.524760246276855 63.562259674072266 -4.080559730529785 47.32244873046875 -4.364567279815674 72.2666015625 C -9.025879859924316 62.30742645263672 -9.638089179992676 63.63310623168945 -21.073148727416992 60.80426788330078 C -9.223163604736328 54.00365447998047 -19.313777923583984 62.50715255737305 -19.811782836914062 59.14321517944336" stroke-width="2.0" fill="none" stroke="rgb(0, 0, 0)" stroke-opacity="1" stroke-linecap="round" stroke-linejoin="round"/>
    <path d="M 28.507755279541016 119.57233428955078 C 38.305484771728516 126.18830108642578 59.43804931640625 149.67918395996094 48.341087341308594 117.82430267333984" stroke-width="2.0" fill="none" stroke="rgb(0, 0, 0)" stroke-opacity="1" stroke-linecap="round" stroke-linejoin="round"/>
    <path d="M 137.55728149414062 120.54088592529297 C 120.60943603515625 137.7367706298828 131.73028564453125 138.82518005371094 139.1926727294922 115.30009460449219 C 118.45614624023438 96.91447448730469 114.96983337402344 90.36738586425781 105.03575134277344 106.37909698486328 C 99.18912506103516 124.84646606445312 121.50977325439453 118.18840789794922 104.59056091308594 108.8495864868164" stroke-width="2.0" fill="none" stroke="rgb(0, 0, 0)" stroke-opacity="1" stroke-linecap="round" stroke-linejoin="round"/>
    <path d="M 172.9052734375 209.7510986328125 C 190.44044494628906 204.4404296875 192.84130859375 234.7244415283203 182.3326416015625 244.5784149169922 C 189.10369873046875 222.0482940673828 189.7846221923828 193.967041015625 161.66343688964844 204.8055877685547 C 205.9712677001953 206.32801818847656 192.35662841796875 230.22462463378906 181.64617919921875 189.5427703857422" stroke-width="2.0" fill="none" stroke="rgb(0, 0, 0)" stroke-opacity="1" stroke-linecap="round" stroke-linejoin="round"/>
    <path d="M 188.15982055664062 205.38233947753906 C 193.54750061035156 189.60568237304688 174.6543426513672 166.59091186523438 190.5545196533203 161.75819396972656" stroke-width="2.0" fill="none" stroke="rgb(0, 0, 0)" stroke-opacity="1" stroke-linecap="round" stroke-linejoin="round"/>
    <path d="M 31.11007308959961 172.1857147216797 C 57.75545883178711 152.0337677001953 58.12007141113281 192.90310668945312 42.85084533691406 169.6300811767578 C 37.81940460205078 191.5966033935547 38.240142822265625 154.19781494140625 44.34217071533203 171.27078247070312 C 38.5111083984375 165.85946655273438 16.78666114807129 149.37420654296875 20.350378036499023 166.8699951171875" stroke-width="2.0" fill="none" stroke="rgb(0, 0, 0)" stroke-opacity="1" stroke-linecap="round" stroke-linejoin="round"/>
    <path d="M -8.252041816711426 3.3651163578033447 C 11.477924346923828 -5.146206378936768 33.50172805786133 8.379929542541504 18.64696502685547 29.578039169311523 C 40.11189651489258 13.846508979797363 23.066631317138672 -16.031660079956055 13.939372062683105 -43.574466705322266" stroke-width="2.0" fill="none" stroke="rgb(0, 0, 0)" stroke-opacity="1" stroke-linecap="round" stroke-linejoin="round"/>
    <path d="M 176.9696807861328 107.40894317626953 C 180.4313507080078 105.07294464111328 169.563232421875 114.25057983398438 183.1711883544922 106.96237182617188 C 198.32044982910156 83.59227752685547 217.0017852783203 96.43069458007812 203.32534790039062 88.94038391113281 C 178.90826416015625 98.10932159423828 176.13580322265625 125.3482666015625 180.8177947998047 136.3880615234375" stroke-width="2.0" fill="none" stroke="rgb(0, 0, 0)" stroke-opacity="1" stroke-linecap="round" stroke-linejoin="round"/>
    <path d="M 171.08702087402344 120.8162841796875 C 185.63328552246094 124.71505737304688 217.67018127441406 88.30450439453125 177.65570068359375 111.76095581054688 C 196.0298614501953 77.28948211669922 184.96954345703125 70.7488021850586 182.8341522216797 109.64653015136719" stroke-width="2.0" fill="none" stroke="rgb(0, 0, 0)" stroke-opacity="1" stroke-linecap="round" stroke-linejoin="round"/>
    <path d="M 83.05638885498047 182.2045440673828 C 114.6998519897461 180.714599609375 104.00845336914062 207.8433380126953 92.79337310791016 184.94955444335938" stroke-width="2.0" fill="none" stroke="rgb(0, 0, 0)" stroke-opacity="1" stroke-linecap="round" stroke-linejoin="round"/>
    <path d="M 100.19009399414062 113.97919464111328 C 89.98738861083984 89.17394256591797 79.1404800415039 92.39508819580078 70.26873016357422 79.94085693359375 C 94.13411712646484 91.01277923583984 112.4721908569336 117.71638488769531 106.9134521484375 113.87461853027344 C 109.52384185791016 129.1402130126953 96.7526626586914 98.54475402832031 117.34326934814453 107.13399505615234" stroke-width="2.0" fill="none" stroke="rgb(0, 0, 0)" stroke-opacity="1" stroke-linecap="round" stroke-linejoin="round"/>
    <path d="M 172.28639221191406 45.52592849731445 C 147.9407196044922 49.703426361083984 158.16587829589844 53.00008010864258 165.06512451171875 55.068519592285156 C 168.4154510498047 31.118696212768555 172.73768615722656 53.95779037475586 171.5271759033203 53.607662200927734" stroke-width="2.0" fill="none" stroke="rgb(0, 0, 0)" stroke-opacity="1" stroke-linecap="round" stroke-linejoin="round"/>
    <path d="M 120.5987548828125 98.0513687133789 C 168.88385009765625 81.9665298461914 188.615966796875 107.95008087158203 189.4501495361328 130.22621154785156 C 161.6237335205078 83.7275161743164 160.3533477783203 109.17259216308594 171.10032653808594 103.2833251953125 C 147.8568572998047 122.70318603515625 157.61997985839844 93.49523162841797 177.86465454101562 132.3935089111328" stroke-width="2.0" fill="none" stroke="rgb(0, 0, 0)" stroke-opacity="1" stroke-linecap="round" stroke-linejoin="round"/>
    <path d="M 105.82785034179688 37.30399703979492 C 119.67691802978516 56.10565185546875 112.68119812011719 22.042219161987305 89.85871124267578 34.97618865966797 C 88.66558837890625 41.62944030761719 108.79180908203125 28.907901763916016 100.09819793701172 41.07649230957031 C 114.48149108886719 2.6278703212738037 85.85603332519531 29.905885696411133 87.2778091430664 47.77814483642578" stroke-width="2.0" fill="none" stroke="rgb(0, 0, 0)" stroke-opacity="1" stroke-linecap="round" stroke-linejoin="round"/>
    <path d="M 243.62863159179688 200.2808380126953 C 224.49041748046875 201.52919006347656 220.71673583984375 191.4922332763672 233.262451171875 209.30836486816406 C 228.993408203125 207.0177459716797 237.90882873535156 201.49143981933594 228.93386840820312 219.39109802246094" stroke-width="2.0" fill="none" stroke="rgb(0, 0, 0)" stroke-opacity="1" stroke-linecap="round" stroke-linejoin="round"/>
    <path d="M 119.75900268554688 154.40969848632812 C 121.04896545410156 101.32075500488281 116.74307250976562 111.98383331298828 127.02210235595703 120.61219787597656 C 125.78813171386719 103.54340362548828 135.42015075683594 111.88567352294922 131.27349853515625 128.42294311523438 C 139.3230438232422 114.33299255371094 118.29424285888672 106.95899200439453 122.33769226074219 112.95105743408203" stroke-width="2.0" fill="none" stroke="rgb(0, 0, 0)" stroke-opacity="1" stroke-linecap="round" stroke-linejoin="round"/>
    <path d="M 53.33133316040039 217.60899353027344 C 57.28641891479492 192.421875 4.320872783660889 188.6832733154297 20.52289390563965 206.2021942138672" stroke-width="2.0" fill="none" stroke="rgb(0, 0, 0)" stroke-opacity="1" stroke-linecap="round" stroke-linejoin="round"/>
    <path d="M 11.188287734985352 174.85159301757812 C -13.189359664916992 156.59030151367188 -25.398162841796875 167.7397003173828 -17.348085403442383 164.2622833251953 C -7.137157440185547 157.09925842285156 -15.064438819885254 155.5900115966797 -8.635761260986328 145.5794219970703" stroke-width="2.0" fill="none" stroke="rgb(0, 0, 0)" stroke-opacity="1" stroke-linecap="round" stroke-linejoin="round"/>
    <path d="M 141.60760498046875 29.74071502685547 C 138.25172424316406 -4.713780403137207 109.5136489868164 -2.245396137237549 121.79905700683594 -3.772294521331787 C 99.99327850341797 -23.577960968017578 111.72062683105469 0.24548177421092987 134.52723693847656 -9.762191772460938 C 118.90534973144531 -13.330403327941895 126.02445220947266 -12.010513305664062 121.84523010253906 -15.143362998962402" stroke-width="2.0" fill="none" stroke="rgb(0, 0, 0)" stroke-opacity="1" stroke-linecap="round" stroke-linejoin="round"/>
    <path d="M 40.87858581542969 159.31019592285156 C 42.85721206665039 140.9707489013672 76.86900329589844 134.33973693847656 90.83785247802734 140.54649353027344 C 82.05615997314453 171.2059783935547 64.72106170654297 152.71482849121094 92.74421691894531 146.5809783935547" stroke-width="2.0" fill="none" stroke="rgb(0, 0, 0)" stroke-opacity="1" stroke-linecap="round" stroke-linejoin="round"/>
    <path d="M 5.717917442321777 123.00326538085938 C 14.966418266296387 115.02540588378906 35.80343246459961 108.21713256835938 -9.317798614501953 103.09294128417969" stroke-width="2.0" fill="none" stroke="rgb(0, 0, 0)" stroke-opacity="1" stroke-linecap="round" stroke-linejoin="round"/>
    <path d="M 51.613006591796875 106.39085388183594 C 75.08818817138672 88.48284149169922 93.91678619384766 100.86019897460938 98.05561065673828 113.07914733886719 C 80.30951690673828 89.8756103515625 66.31348419189453 94.73246002197266 71.97027587890625 102.02735137939453 C 65.08960723876953 124.31739044189453 90.69627380371094 109.81884002685547 85.13423919677734 108.4129638671875" stroke-width="2.0" fill="none" stroke="rgb(0, 0, 0)" stroke-opacity="1" stroke-linecap="round" stroke-linejoin="round"/>
    <path d="M 125.51850128173828 109.60765838623047 C 137.21353149414062 124.17572021484375 150.9860076904297 113.5719223022461 136.58529663085938 120.076904296875 C 120.38658142089844 95.08367156982422 135.006591796875 89.25331115722656 164.45733642578125 103.06098937988281 C 189.86871337890625 120.94888305664062 177.38381958007812 91.26964569091797 150.803466796875 92.5965347290039" stroke-width="2.0" fill="none" stroke="rgb(0, 0, 0)" stroke-opacity="1" stroke-linecap="round" stroke-linejoin="round"/>
    <path d="M 191.93299865722656 194.0721893310547 C 209.23081970214844 163.7484130859375 242.569091796875 168.1997833251953 232.78599548339844 185.8928985595703 C 232.3512420654297 180.53517150878906 194.30226135253906 186.06187438964844 193.82574462890625 223.90628051757812" stroke-width="2.0" fill="none" stroke="rgb(0, 0, 0)" stroke-opacity="1" stroke-linecap="round" stroke-linejoin="round"/>
    <path d="M 162.17062377929688 72.13784790039062 C 183.62933349609375 84.56138610839844 185.47390747070312 72.33580780029297 175.49603271484375 60.17304229736328 C 160.9058074951172 63.96319580078125 183.3933563232422 54.70458221435547 174.66856384277344 71.55066680908203 C 176.577880859375 68.35216522216797 175.80418395996094 50.84982681274414 155.6639404296875 52.338932037353516" stroke-width="2.0" fill="none" stroke="rgb(0, 0, 0)" stroke-opacity="1" stroke-linecap="round" stroke-linejoin="round"/>
    <path d="M 73.12886047363281 115.4978256225586 C 63.038917541503906 96.80001068115234 88.3897476196289 89.72837829589844 100.23196411132812 125.36170959472656 C 89.15182495117188 132.6737060546875 102.11918640136719 118.39453887939453 104.70026397705078 125.64097595214844" stroke-width="2.0" fill="none" stroke="rgb(0, 0, 0)" stroke-opacity="1" stroke-linecap="round" stroke-linejoin="round"/>
    <path d="M 120.01142120361328 184.07534790039062 C 117.26175689697266 156.08216857910156 111.35503387451172 184.65866088867188 135.50535583496094 142.71694946289062 C 108.83714294433594 159.9239501953125 124.60395050048828 161.93931579589844 112.40538787841797 169.1907958984375" stroke-width="2.0" fill="none" stroke="rgb(0, 0, 0)" stroke-opacity="1" stroke-linecap="round" stroke-linejoin="round"/>
    <path d="M 183.2520751953125 27.582651138305664 C 185.8859405517578 29.0304012298584 171.6682891845703 15.0167818069458 186.85296630859375 29.14942169189453 C 179.95619201660156 11.740750312805176 167.44827270507812 32.78007507324219 186.64662170410156 6.2504987716674805 C 202.9840850830078 7.532635688781738 194.64523315429688 54.306678771972656 194.33628845214844 55.39751434326172" stroke-width="2.0" fill="none" stroke="rgb(0, 0, 0)" stroke-opacity="1" stroke-linecap="round" stroke-linejoin="round"/>
    <path d="M 203.10850524902344 191.5147705078125 C 185.00242614746094 228.6592254638672 179.5885009765625 184.0105438232422 228.6205291748047 159.35733032226562" stroke-width="2.0" fill="none" stroke="rgb(0, 0, 0)" stroke-opacity="1" stroke-linecap="round" stroke-linejoin="round"/>
    <path d="M 105.22843933105469 105.43647003173828 C 84.95274353027344 102.43241882324219 112.51415252685547 68.32563781738281 85.91675567626953 50.36262130737305 C 110.20964813232422 52.37820816040039 97.85195922851562 106.05719757080078 102.24667358398438 85.28866577148438" stroke-width="2.0" fill="none" stroke="rgb(0, 0, 0)" stroke-opacity="1" stroke-linecap="round" stroke-linejoin="round"/>
    <path d="M 115.7433853149414 173.1366424560547 C 119.53382110595703 145.51145935058594 95.13846588134766 122.51792907714844 89.99613952636719 142.65919494628906 C 112.56629180908203 144.35853576660156 122.870361328125 175.28541564941406 105.7372055053711 170.06915283203125" stroke-width="2.0" fill="none" stroke="rgb(0, 0, 0)" stroke-opacity="1" stroke-linecap="round" stroke-linejoin="round"/>
    <path d="M 86.1583251953125 62.673057556152344 C 82.46210479736328 49.08843231201172 102.8191146850586 35.11815643310547 118.82205963134766 15.888520240783691" stroke-width="2.0" fill="none" stroke="rgb(0, 0, 0)" stroke-opacity="1" stroke-linecap="round" stroke-linejoin="round"/>
    <path d="M 189.5359344482422 195.4059600830078 C 186.32955932617188 187.32888793945312 189.8358917236328 208.73974609375 172.54615783691406 186.8817901611328" stroke-width="2.0" fill="none" stroke="rgb(0, 0, 0)" stroke-opacity="1" stroke-linecap="round" stroke-linejoin="round"/>
    <path d="M 78.53466796875 43.72754669189453 C 59.35032653808594 16.489662170410156 31.32503890991211 7.702095031738281 59.898597717285156 21.906492233276367" stroke-width="2.0" fill="none" stroke="rgb(0, 0, 0)" stroke-opacity="1" stroke-linecap="round" stroke-linejoin="round"/>
    <path d="M 31.35411834716797 123.81262969970703 C 34.431575775146484 137.65444946289062 53.924720764160156 121.567626953125 42.33381652832031 115.31061553955078 C 23.291322708129883 123.70789337158203 49.813175201416016 129.24508666992188 40.014732360839844 147.55609130859375 C 40.173126220703125 126.01758575439453 28.25980567932129 128.14501953125 29.023794174194336 138.76849365234375" stroke-width="2.0" fill="none" stroke="rgb(0, 0, 0)" stroke-opacity="1" stroke-linecap="round" stroke-linejoin="round"/>
    <path d="M 245.4859161376953 205.56912231445312 C 228.10130310058594 184.7527618408203 195.33795166015625 175.2040252685547 228.56333923339844 188.24920654296875" stroke-width="2.0" fill="none" stroke="rgb(0, 0, 0)" stroke-opacity="1" stroke-linecap="round" stroke-linejoin="round"/>
    <path d="M 148.87896728515625 24.748350143432617 C 156.9988555908203 2.4188594818115234 169.9487762451172 2.65580677986145 185.65179443359375 4.985352993011475 C 198.91708374023438 46.376060485839844 187.97186279296875 25.958215713500977 175.3798370361328 4.385979652404785" stroke-width="2.0" fill="none" stroke="rgb(0, 0, 0)" stroke-opacity="1" stroke-linecap="round" stroke-linejoin="round"/>
    <path d="M 89.52519226074219 227.0352783203125 C 107.6673355102539 232.06060791015625 136.3462677001953 210.70069885253906 90.76374816894531 197.30113220214844" stroke-width="2.0" fill="none" stroke="rgb(0, 0, 0)" stroke-opacity="1" stroke-linecap="round" stroke-linejoin="round"/>
    <path d="M 130.83180236816406 20.53730010986328 C 146.24691772460938 44.621376037597656 144.662109375 37.51668167114258 126.33673095703125 22.130571365356445" stroke-width="2.0" fill="none" stroke="rgb(0, 0, 0)" stroke-opacity="1" stroke-linecap="round" stroke-linejoin="round"/>
    <path d="M 173.1711883544922 156.23361206054688 C 208.89596557617188 166.95301818847656 188.09854125976562 129.87857055664062 231.23077392578125 145.89984130859375 C 230.1392822265625 172.83905029296875 231.23968505859375 184.4490509033203 225.78924560546875 174.9225311279297" stroke-width="2.0" fill="none" stroke="rgb(0, 0, 0)" stroke-opacity="1" stroke-linecap="round" stroke-linejoin="round"/>
    <path d="M 95.0046157836914 107.47554779052734 C 104.17350769042969 136.24822998046875 101.50511169433594 132.23521423339844 101.78170013427734 123.05084228515625 C 100.56356048583984 130.56565856933594 102.68191528320312 101.08589172363281 102.39500427246094 105.38581085205078 C 84.99610137939453 129.24485778808594 77.73335266113281 106.11135864257812 72.0571517944336 109.0058822631836" stroke-width="2.0" fill="none" stroke="rgb(0, 0, 0)" stroke-opacity="1" stroke-linecap="round" stroke-linejoin="round"/>
    <path d="M 113.97476196289062 27.962507247924805 C 124.45440673828125 19.686017990112305 94.09453582763672 59.49701690673828 113.03965759277344 17.978059768676758 C 100.24130249023438 21.014963150024414 116.87972259521484 28.376829147338867 119.52053833007812 22.31328773498535 C 126.75528717041016 31.030664443969727 126.44929504394531 44.96505355834961 116.15654754638672 31.088071823120117" stroke-width="2.0" fill="none" stroke="rgb(0, 0, 0)" stroke-opacity="1" stroke-linecap="round" stroke-linejoin="round"/>
    <path d="M 39.00386047363281 164.10113525390625 C -3.7376203536987305 157.88619995117188 42.812171936035156 165.3656463623047 45.55256652832031 170.74220275878906 C 54.79937744140625 166.41461181640625 26.30409812927246 152.45199584960938 49.22218322753906 172.05831909179688" stroke-width="2.0" fill="none" stroke="rgb(0, 0, 0)" stroke-opacity="1" stroke-linecap="round" stroke-linejoin="round"/>
    <path d="M 170.9277801513672 187.35250854492188 C 157.25291442871094 174.39151000976562 183.99298095703125 209.77877807617188 208.75650024414062 189.61346435546875" stroke-width="2.0" fill="none" stroke="rgb(0, 0, 0)" stroke-opacity="1" stroke-linecap="round" stroke-linejoin="round"/>
    <path d="M 233.0691680908203 80.3160171508789 C 226.21832275390625 68.66474914550781 193.72154235839844 83.92593383789062 182.57046508789062 103.56282806396484" stroke-width="2.0" fill="none" stroke="rgb(0, 0, 0)" stroke-opacity="1" stroke-linecap="round" stroke-linejoin="round"/>
    <path d="M 106.67414093017578 65.87477111816406 C 125.5274658203125 21.830089569091797 92.75467681884766 45.64029312133789 108.49893188476562 14.5746431350708 C 113.55332946777344 39.048484802246094 88.2001724243164 59.52766418457031 94.20470428466797 33.78892135620117" stroke-width="2.0" fill="none" stroke="rgb(0, 0, 0)" stroke-opacity="1" stroke-linecap="round" stroke-linejoin="round"/>
    <path d="M 85.34371185302734 150.6282958984375 C 64.78202056884766 140.70188903808594 63.40851974487305 139.9478302001953 83.89286804199219 148.5644989013672 C 91.16948699951172 161.07020568847656 82.51586151123047 178.0690460205078 104.89313507080078 150.67276000976562 C 87.02289581298828 148.87306213378906 114.46687316894531 175.33932495117188 85.7330093383789 174.63668823242188" stroke-width="2.0" fill="none" stroke="rgb(0, 0, 0)" stroke-opacity="1" stroke-linecap="round" stroke-linejoin="round"/>
    <path d="M 13.792984962463379 76.990234375 C 67.69029235839844 69.2237777709961 67.1737289428711 66.52395629882812 48.975318908691406 88.5625991821289 C 26.780521392822266 111.88739776611328 31.907243728637695 130.6350860595703 48.47260284423828 103.19829559326172 C 76.67803192138672 96.66848754882812 27.247825622558594 102.97615814208984 53.647315979003906 118.2372055053711" stroke-width="2.0" fill="none" stroke="rgb(0, 0, 0)" stroke-opacity="1" stroke-linecap="round" stroke-linejoin="round"/>
    <path d="M 149.08607482910156 24.331331253051758 C 162.2051239013672 42.83945846557617 134.6248321533203 16.27971839904785 141.2598114013672 39.010074615478516" stroke-width="2.0" fill="none" stroke="rgb(0, 0, 0)" stroke-opacity="1" stroke-linecap="round" stroke-linejoin="round"/>
    <path d="M 31.742019653320312 98.8638916015625 C 32.534122467041016 88.46692657470703 23.56108283996582 55.70389938354492 -2.1304802894592285 57.931541442871094" stroke-width="2.0" fill="none" stroke="rgb(0, 0, 0)" stroke-opacity="1" stroke-linecap="round" stroke-linejoin="round"/>
    <path d="M 221.84527587890625 75.6386947631836 C 221.7736358642578 47.446903228759766 216.66908264160156 32.320526123046875 188.064697265625 67.33061981201172 C 189.90557861328125 42.15138244628906 213.1903839111328 69.80711364746094 200.7825927734375 49.92584991455078" stroke-width="2.0" fill="none" stroke="rgb(0, 0, 0)" stroke-opacity="1" stroke-linecap="round" stroke-linejoin="round"/>
    <path d="M 183.76321411132812 103.81289672851562 C 171.67364501953125 128.8622589111328 162.01576232910156 116.31485748291016 168.8883514404297 109.16128540039062 C 142.7346954345703 118.645263671875 166.60012817382812 107.92093658447266 194.08026123046875 131.08604431152344 C 186.31129455566406 111.3239974975586 206.69375610351562 107.11261749267578 191.73025512695312 153.7614288330078" stroke-width="2.0" fill="none" stroke="rgb(0, 0, 0)" stroke-opacity="1" stroke-linecap="round" stroke-linejoin="round"/>
    <path d="M 138.42938232421875 25.241369247436523 C 134.785400390625 -1.1203107833862305 82.46282958984375 18.819429397583008 99.36051940917969 38.710208892822266" stroke-width="2.0" fill="none" stroke="rgb(0, 0, 0)" stroke-opacity="1" stroke-linecap="round" stroke-linejoin="round"/>
    <path d="M -5.249673843383789 81.09160614013672 C -26.545028686523438 94.99092864990234 11.980246543884277 70.91535949707031 16.932905197143555 78.15729522705078 C 11.177593231201172 70.87755584716797 -13.96313762664795 99.14244079589844 -22.275020599365234 100.40316772460938" stroke-width="2.0" fill="none" stroke="rgb(0, 0, 0)" stroke-opacity="1" stroke-linecap="round" stroke-linejoin="round"/>
    <path d="M 82.04682159423828 144.96580505371094 C 102.65111541748047 141.8333282470703 112.3812026977539 155.08547973632812 115.54878997802734 181.89598083496094 C 119.91136932373047 193.76788330078125 122.88042449951172 135.7261199951172 98.48231506347656 118.90912628173828 C 117.1163330078125 152.7667236328125 117.4048080444336 152.43260192871094 116.75386047363281 132.36227416992188" stroke-width="2.0" fill="none" stroke="rgb(0, 0, 0)" stroke-opacity="1" stroke-linecap="round" stroke-linejoin="round"/>
    <path d="M 32.335838317871094 167.734130859375 C 55.962501525878906 173.84580993652344 31.51872444152832 157.89137268066406 36.89848709106445 168.2598114013672 C 31.946876525878906 170.59841918945312 34.04595184326172 137.56085205078125 -9.048518180847168 147.7913055419922" stroke-width="2.0" fill="none" stroke="rgb(0, 0, 0)" stroke-opacity="1" stroke-linecap="round" stroke-linejoin="round"/>
    <path d="M 161.62147521972656 139.6695098876953 C 120.43424224853516 136.79833984375 133.60614013671875 172.5686798095703 112.98918914794922 156.99862670898438" stroke-width="2.0" fill="none" stroke="rgb(0, 0, 0)" stroke-opacity="1" stroke-linecap="round" stroke-linejoin="round"/>
    <path d="M 43.01211929321289 81.65202331542969 C 33.89249038696289 65.69951629638672 18.0408992767334 105.80968475341797 29.676158905029297 75.02713775634766" stroke-width="2.0" fill="none" stroke="rgb(0, 0, 0)" stroke-opacity="1" stroke-linecap="round" stroke-linejoin="round"/>
    <path d="M 25.128253936767578 91.68475341796875 C 30.852310180664062 64.00386047363281 -15.75523853302002 57.64751052856445 17.868532180786133 72.93138885498047 C -24.65736961364746 108.29578399658203 -24.42041015625 118.98532104492188 11.855755805969238 105.3267822265625" stroke-width="2.0" fill="none" stroke="rgb(0, 0, 0)" stroke-opacity="1" stroke-linecap="round" stroke-linejoin="round"/>
    <path d="M 144.38612365722656 32.73298263549805 C 145.2975311279297 4.322325706481934 171.0821990966797 0.6129986643791199 171.50225830078125 10.071488380432129 C 157.5618438720703 22.45488166809082 191.07830810546875 17.823148727416992 168.60910034179688 5.437177658081055" stroke-width="2.0" fill="none" stroke="rgb(0, 0, 0)" stroke-opacity="1" stroke-linecap="round" stroke-linejoin="round"/>
    <path d="M -19.95526123046875 92.31202697753906 C 10.603309631347656 88.41081237792969 35.74612808227539 103.23826599121094 31.907630920410156 127.06719970703125 C 10.468912124633789 126.1972885131836 12.957243919372559 120.9151382446289 33.03050231933594 123.57095336914062" stroke-width="2.0" fill="none" stroke="rgb(0, 0, 0)" stroke-opacity="1" stroke-linecap="round" stroke-linejoin="round"/>
    <path d="M 123.92911529541016 203.8210906982422 C 140.2681121826172 190.33914184570312 171.70703125 216.06808471679688 141.1960906982422 225.57273864746094 C 139.9453125 236.92742919921875 135.45578002929688 241.88694763183594 132.115966796875 230.17123413085938" stroke-width="2.0" fill="none" stroke="rgb(0, 0, 0)" stroke-opacity="1" stroke-linecap="round" stroke-linejoin="round"/>
    <path d="M 127.9330062866211 151.0388641357422 C 154.1088409423828 174.99124145507812 125.51055145263672 136.1687774658203 151.37730407714844 140.0475311279297" stroke-width="2.0" fill="none" stroke="rgb(0, 0, 0)" stroke-opacity="1" stroke-linecap="round" stroke-linejoin="round"/>
    <path d="M 135.90354919433594 197.00306701660156 C 139.23118591308594 190.73556518554688 128.37301635742188 200.51707458496094 145.0388641357422 200.91632080078125" stroke-width="2.0" fill="none" stroke="rgb(0, 0, 0)" stroke-opacity="1" stroke-linecap="round" stroke-linejoin="round"/>
    <path d="M 0.27221232652664185 229.74574279785156 C 7.641676902770996 200.15846252441406 7.586432456970215 184.76123046875 28.634033203125 191.34417724609375 C 35.88859176635742 195.05654907226562 23.330341339111328 181.45437622070312 2.934861660003662 195.16188049316406 C 2.904470682144165 180.2374267578125 -20.622713088989258 193.15232849121094 -33.44465637207031 196.0263671875" stroke-width="2.0" fill="none" stroke="rgb(0, 0, 0)" stroke-opacity="1" stroke-linecap="round" stroke-linejoin="round"/>
    <path d="M -7.01588249206543 184.082275390625 C 47.59996032714844 193.15101623535156 35.12238311767578 180.7823944091797 -18.995275497436523 181.45436096191406 C -10.337045669555664 145.5438690185547 -0.9855819344520569 142.97427368164062 -15.148164749145508 137.53843688964844 C 13.66472053527832 140.8630828857422 32.963714599609375 143.74960327148438 37.019554138183594 167.96212768554688" stroke-width="2.0" fill="none" stroke="rgb(0, 0, 0)" stroke-opacity="1" stroke-linecap="round" stroke-linejoin="round"/>
    <path d="M 134.47091674804688 197.9810028076172 C 122.34953308105469 219.88980102539062 149.12164306640625 166.9578399658203 106.66487884521484 165.2815704345703" stroke-width="2.0" fill="none" stroke="rgb(0, 0, 0)" stroke-opacity="1" stroke-linecap="round" stroke-linejoin="round"/>
    <path d="M 36.58435821533203 85.257080078125 C 43.11491775512695 92.81369018554688 29.931034088134766 76.34833526611328 8.469375610351562 72.05167388916016" stroke-width="2.0" fill="none" stroke="rgb(0, 0, 0)" stroke-opacity="1" stroke-linecap="round" stroke-linejoin="round"/>
    <path d="M 186.3414764404297 196.17160034179688 C 152.07778930664062 166.55117797851562 132.0862579345703 196.90008544921875 140.62303161621094 195.878173828125 C 144.501953125 185.58309936523438 165.2680206298828 177.5491485595703 185.41722106933594 206.68020629882812" stroke-width="2.0" fill="none" stroke="rgb(0, 0, 0)" stroke-opacity="1" stroke-linecap="round" stroke-linejoin="round"/>
    <path d="M -8.439004898071289 127.66956329345703 C -13.247355461120605 128.7579345703125 -11.561714172363281 130.8275146484375 -20.6466064453125 132.51048278808594" stroke-width="2.0" fill="none" stroke="rgb(0, 0, 0)" stroke-opacity="1" stroke-linecap="round" stroke-linejoin="round"/>
    <path d="M 205.04135131835938 216.50869750976562 C 178.35446166992188 225.6039276123047 192.8943328857422 223.49586486816406 199.88693237304688 221.91197204589844 C 190.67715454101562 203.77011108398438 212.16404724121094 195.38986206054688 225.67347717285156 214.57635498046875 C 218.94522094726562 209.7900848388672 234.67091369628906 208.39793395996094 238.62838745117188 201.30665588378906" stroke-width="2.0" fill="none" stroke="rgb(0, 0, 0)" stroke-opacity="1" stroke-linecap="round" stroke-linejoin="round"/>
    <path d="M 171.71302795410156 111.55618286132812 C 154.4738311767578 84.79007720947266 115.32659149169922 100.19577026367188 119.34088897705078 100.11679077148438 C 114.38951873779297 117.4288101196289 114.75718688964844 98.97175598144531 138.92848205566406 119.63826751708984 C 107.2608413696289 154.10202026367188 153.11183166503906 109.35861206054688 182.07472229003906 137.67262268066406" stroke-width="2.0" fill="none" stroke="rgb(0, 0, 0)" stroke-opacity="1" stroke-linecap="round" stroke-linejoin="round"/>
    <path d="M 179.4524383544922 130.23516845703125 C 192.7453155517578 168.5606231689453 202.07769775390625 166.14158630371094 195.5834197998047 178.93548583984375 C 205.94326782226562 155.23670959472656 190.00387573242188 160.705810546875 193.23013305664062 175.69764709472656 C 189.25169372558594 134.7735137939453 235.55062866210938 164.0242919921875 185.60601806640625 154.09356689453125" stroke-width="2.0" fill="none" stroke="rgb(0, 0, 0)" stroke-opacity="1" stroke-linecap="round" stroke-linejoin="round"/>
    <path d="M 194.9832000732422 159.5785675048828 C 182.03904724121094 163.44105529785156 177.9912109375 159.05735778808594 190.965576171875 155.80715942382812 C 186.84658813476562 173.1852569580078 196.3070526123047 169.0888671875 188.54966735839844 160.41160583496094 C 181.5780029296875 138.05665588378906 160.65481567382812 147.81393432617188 173.78878784179688 169.99290466308594" stroke-width="2.0" fill="none" stroke="rgb(0, 0, 0)" stroke-opacity="1" stroke-linecap="round" stroke-linejoin="round"/>
    <path d="M 81.05831146240234 210.3710479736328 C 91.3927001953125 193.42123413085938 112.43994903564453 203.7498779296875 96.09029388427734 195.1927032470703 C 79.14759063720703 199.91587829589844 77.93925476074219 174.46356201171875 82.74581909179688 196.5667724609375" stroke-width="2.0" fill="none" stroke="rgb(0, 0, 0)" stroke-opacity="1" stroke-linecap="round" stroke-linejoin="round"/>
    <path d="M 18.908729553222656 128.33447265625 C 21.515201568603516 109.8439712524414 8.707418441772461 152.7178192138672 9.919699668884277 116.82090759277344 C 31.898630142211914 119.12843322753906 7.139249324798584 99.4049072265625 -9.646641731262207 119.13378143310547" stroke-width="2.0" fill="none" stroke="rgb(0, 0, 0)" stroke-opacity="1" stroke-linecap="round" stroke-linejoin="round"/>
    <path d="M 117.24459838867188 142.17446899414062 C 116.41703033447266 118.4796371459961 115.79449462890625 126.33711242675781 128.5233917236328 104.3902587890625" stroke-width="2.0" fill="none" stroke="rgb(0, 0, 0)" stroke-opacity="1" stroke-linecap="round" stroke-linejoin="round"/>
    <path d="M -4.364655494689941 41.38252639770508 C 25.390647888183594 61.14725112915039 2.1764981746673584 48.253990173339844 -13.826205253601074 39.454280853271484 C -14.022909164428711 62.727664947509766 -16.274791717529297 64.1427001953125 -23.113082885742188 68.67508697509766 C -32.59043502807617 69.74644470214844 -32.10146713256836 70.04997253417969 -39.60970687866211 71.43190002441406" stroke-width="2.0" fill="none" stroke="rgb(0, 0, 0)" stroke-opacity="1" stroke-linecap="round" stroke-linejoin="round"/>
    <path d="M 153.3774871826172 -8.237367630004883 C 157.3169708251953 -6.970001220703125 145.07456970214844 -10.496028900146484 142.59646606445312 -12.488030433654785" stroke-width="2.0" fill="none" stroke="rgb(0, 0, 0)" stroke-opacity="1" stroke-linecap="round" stroke-linejoin="round"/>
    <path d="M 90.93902587890625 209.0561065673828 C 93.7448959350586 190.71095275878906 80.56155395507812 195.09739685058594 91.85478210449219 198.9065704345703" stroke-width="2.0" fill="none" stroke="rgb(0, 0, 0)" stroke-opacity="1" stroke-linecap="round" stroke-linejoin="round"/>
    <path d="M 42.23670959472656 83.32572937011719 C 18.981426239013672 71.00911712646484 19.237361907958984 91.54693603515625 38.36174011230469 34.28863525390625 C 32.45879364013672 89.36599731445312 10.627915382385254 90.06295776367188 18.52903938293457 81.83224487304688" stroke-width="2.0" fill="none" stroke="rgb(0, 0, 0)" stroke-opacity="1" stroke-linecap="round" stroke-linejoin="round"/>
    <path d="M 153.9492645263672 147.46397399902344 C 152.0039520263672 130.83436584472656 144.5447235107422 157.30401611328125 154.06581115722656 152.4120330810547 C 145.5009002685547 136.45811462402344 176.66458129882812 164.60238647460938 157.86253356933594 140.68997192382812" stroke-width="2.0" fill="none" stroke="rgb(0, 0, 0)" stroke-opacity="1" stroke-linecap="round" stroke-linejoin="round"/>
    <path d="M 39.23918914794922 164.57801818847656 C 58.38692855834961 201.93235778808594 42.35770034790039 206.49342346191406 80.2503433227539 214.29656982421875 C 91.78311920166016 240.9353790283203 80.34461212158203 199.46327209472656 4.651336193084717 223.64566040039062" stroke-width="2.0" fill="none" stroke="rgb(0, 0, 0)" stroke-opacity="1" stroke-linecap="round" stroke-linejoin="round"/>
    <path d="M 6.768966197967529 111.4511947631836 C 31.037233352661133 123.3147201538086 46.8826789855957 116.47416687011719 54.76401901245117 98.0867919921875" stroke-width="2.0" fill="none" stroke="rgb(0, 0, 0)" stroke-opacity="1" stroke-linecap="round" stroke-linejoin="round"/>
    <path d="M 154.92762756347656 56.067134857177734 C 216.7338409423828 44.36367416381836 232.48960876464844 66.94120788574219 197.34194946289062 49.46636199951172 C 174.25619506835938 24.9761962890625 183.61209106445312 61.901771545410156 184.98898315429688 44.45806884765625" stroke-width="2.0" fill="none" stroke="rgb(0, 0, 0)" stroke-opacity="1" stroke-linecap="round" stroke-linejoin="round"/>
    <path d="M 113.71377563476562 25.849384307861328 C 123.09257507324219 76.25659942626953 93.86896514892578 51.15283203125 145.4484405517578 51.83959197998047 C 91.73979187011719 67.49088287353516 102.88567352294922 112.18111419677734 116.22218322753906 76.12116241455078 C 129.0542449951172 66.0845718383789 130.0546875 56.3693733215332 111.01872253417969 77.69952392578125" stroke-width="2.0" fill="none" stroke="rgb(0, 0, 0)" stroke-opacity="1" stroke-linecap="round" stroke-linejoin="round"/>
    <path d="M 79.98171997070312 92.62216186523438 C 38.718177795410156 99.89375305175781 49.51980972290039 108.66883850097656 66.06114196777344 93.26461791992188 C 84.88396453857422 107.12710571289062 72.19966125488281 89.13819885253906 54.50749588012695 99.1320571899414 C 48.5529899597168 116.10320281982422 27.478086471557617 117.11487579345703 71.64610290527344 96.94965362548828" stroke-width="2.0" fill="none" stroke="rgb(0, 0, 0)" stroke-opacity="1" stroke-linecap="round" stroke-linejoin="round"/>
    <path d="M 31.217073440551758 129.855224609375 C 24.511608123779297 98.1980972290039 -14.276598930358887 98.0105972290039 21.09392738342285 112.99579620361328" stroke-width="2.0" fill="none" stroke="rgb(0, 0, 0)" stroke-opacity="1" stroke-linecap="round" stroke-linejoin="round"/>
    <path d="M 229.75685119628906 217.0253143310547 C 206.9842987060547 206.9375457763672 231.9908447265625 211.89047241210938 234.59889221191406 218.16384887695312 C 221.0950927734375 209.3148193359375 231.95645141601562 213.66586303710938 235.38414001464844 214.4445343017578 C 224.36734008789062 216.46212768554688 220.267333984375 218.29380798339844 234.1513671875 220.88604736328125" stroke-width="2.0" fill="none" stroke="rgb(0, 0, 0)" stroke-opacity="1" stroke-linecap="round" stroke-linejoin="round"/>
    <path d="M 187.17636108398438 184.9394989013672 C 183.32940673828125 224.5301971435547 191.25909423828125 142.37892150878906 187.11917114257812 158.31019592285156 C 186.33763122558594 156.30072021484375 156.4174346923828 155.34788513183594 182.41360473632812 182.59506225585938 C 201.05641174316406 210.0928192138672 193.97109985351562 209.54434204101562 209.81304931640625 185.70303344726562" stroke-width="2.0" fill="none" stroke="rgb(0, 0, 0)" stroke-opacity="1" stroke-linecap="round" stroke-linejoin="round"/>
    <path d="M 39.87600326538086 183.4668731689453 C 30.130329132080078 120.31704711914062 39.921875 121.70762634277344 42.78427505493164 112.72412872314453 C 40.593109130859375 123.19306182861328 77.08982849121094 127.30148315429688 49.73816680908203 111.77215576171875" stroke-width="2.0" fill="none" stroke="rgb(0, 0, 0)" stroke-opacity="1" stroke-linecap="round" stroke-linejoin="round"/>
    <path d="M 98.28763580322266 208.4608612060547 C 89.11243438720703 159.1970977783203 82.63026428222656 184.439208984375 93.83875274658203 191.5448455810547 C 107.6898193359375 182.1242218017578 85.09013366699219 175.4976806640625 97.62848663330078 200.4627685546875 C 105.89177703857422 201.84718322753906 133.56600952148438 177.6860809326172 139.9464569091797 213.72862243652344" stroke-width="2.0" fill="none" stroke="rgb(0, 0, 0)" stroke-opacity="1" stroke-linecap="round" stroke-linejoin="round"/>
    <path d="M 200.77967834472656 -6.139085292816162 C 199.79348754882812 33.01360321044922 200.5198974609375 48.38815689086914 202.99755859375 45.87935256958008 C 192.53594970703125 31.55921173095703 215.29432678222656 -7.363802909851074 220.78952026367188 9.526756286621094 C 237.7927703857422 37.85187530517578 226.18202209472656 14.451003074645996 216.26402282714844 26.77978515625" stroke-width="2.0" fill="none" stroke="rgb(0, 0, 0)" stroke-opacity="1" stroke-linecap="round" stroke-linejoin="round"/>
    <path d="M 158.29180908203125 182.67742919921875 C 202.06883239746094 200.90309143066406 192.47860717773438 198.52041625976562 173.37939453125 170.75775146484375 C 165.6479949951172 146.04647827148438 191.01795959472656 151.3648223876953 175.99966430664062 156.3529510498047" stroke-width="2.0" fill="none" stroke="rgb(0, 0, 0)" stroke-opacity="1" stroke-linecap="round" stroke-linejoin="round"/>
    <path d="M 27.199222564697266 38.399269104003906 C 38.12615966796875 -1.5542888641357422 45.919883728027344 -2.074939012527466 23.827449798583984 25.873760223388672" stroke-width="2.0" fill="none" stroke="rgb(0, 0, 0)" stroke-opacity="1" stroke-linecap="round" stroke-linejoin="round"/>
    <path d="M 169.9578094482422 56.356903076171875 C 165.69155883789062 37.09038543701172 158.57864379882812 41.27790451049805 152.11721801757812 60.036949157714844 C 180.95928955078125 52.040042877197266 185.7445831298828 60.510128021240234 197.72760009765625 45.88803482055664" stroke-width="2.0" fill="none" stroke="rgb(0, 0, 0)" stroke-opacity="1" stroke-linecap="round" stroke-linejoin="round"/>
    <path d="M 3.9582815170288086 53.88106155395508 C -5.153409957885742 53.12861633300781 -16.94447135925293 15.167360305786133 26.80925941467285 24.841283798217773 C 27.420469284057617 38.590354919433594 19.24122428894043 8.25316333770752 -1.0807708501815796 5.644327163696289 C -32.177703857421875 30.97651481628418 -28.846126556396484 50.78867721557617 -16.66445541381836 47.09245681762695" stroke-width="2.0" fill="none" stroke="rgb(0, 0, 0)" stroke-opacity="1" stroke-linecap="round" stroke-linejoin="round"/>
    <path d="M 185.4931640625 44.153114318847656 C 210.5356903076172 56.914215087890625 195.97630310058594 46.014076232910156 185.77378845214844 28.35145378112793" stroke-width="2.0" fill="none" stroke="rgb(0, 0, 0)" stroke-opacity="1" stroke-linecap="round" stroke-linejoin="round"/>
    <path d="M 76.90367889404297 59.217166900634766 C 86.32470703125 37.20304870605469 38.55658721923828 44.39751052856445 29.160398483276367 83.68235778808594" stroke-width="2.0" fill="none" stroke="rgb(0, 0, 0)" stroke-opacity="1" stroke-linecap="round" stroke-linejoin="round"/>
    <path d="M 82.253662109375 154.04676818847656 C 84.32398223876953 139.12631225585938 82.64136505126953 144.0473175048828 82.79165649414062 122.35003662109375 C 82.37937927246094 158.45709228515625 88.27701568603516 147.41587829589844 73.05523681640625 144.33970642089844" stroke-width="2.0" fill="none" stroke="rgb(0, 0, 0)" stroke-opacity="1" stroke-linecap="round" stroke-linejoin="round"/>
    <path d="M 50.03416061401367 153.71041870117188 C 74.280029296875 137.733642578125 43.22150802612305 147.1045379638672 42.72821044921875 162.90908813476562 C 22.101709365844727 169.3709259033203 29.83803939819336 174.37991333007812 58.311561584472656 145.42942810058594" stroke-width="2.0" fill="none" stroke="rgb(0, 0, 0)" stroke-opacity="1" stroke-linecap="round" stroke-linejoin="round"/>
    <path d="M 122.76415252685547 164.1276397705078 C 121.43157196044922 201.7303009033203 138.04342651367188 178.6454315185547 92.85160827636719 181.81895446777344 C 62.328128814697266 179.4912567138672 91.97612762451172 176.4095001220703 100.69529724121094 189.88311767578125" stroke-width="2.0" fill="none" stroke="rgb(0, 0, 0)" stroke-opacity="1" stroke-linecap="round" stroke-linejoin="round"/>
    <path d="M 51.535953521728516 101.37922668457031 C 47.264549255371094 103.15548706054688 67.85832977294922 95.85570526123047 54.5535888671875 99.26840209960938 C 54.89661407470703 104.31189727783203 70.94049835205078 118.66120910644531 58.14964294433594 98.10331726074219" stroke-width="2.0" fill="none" stroke="rgb(0, 0, 0)" stroke-opacity="1" stroke-linecap="round" stroke-linejoin="round"/>
    <path d="M 49.673973083496094 50.9777717590332 C 53.210609436035156 35.850975036621094 31.722808837890625 81.34103393554688 21.689443588256836 58.76667404174805 C 29.132261276245117 64.20723724365234 29.852657318115234 70.42507934570312 43.56837463378906 51.21836853027344 C 18.710205078125 70.90119171142578 22.137855529785156 71.51836395263672 34.89051818847656 88.60660552978516" stroke-width="2.0" fill="none" stroke="rgb(0, 0, 0)" stroke-opacity="1" stroke-linecap="round" stroke-linejoin="round"/>
    <path d="M 152.59744262695312 149.32186889648438 C 121.57260131835938 128.68734741210938 138.0849609375 165.96392822265625 150.70504760742188 136.24456787109375" stroke-width="2.0" fill="none" stroke="rgb(0, 0, 0)" stroke-opacity="1" stroke-linecap="round" stroke-linejoin="round"/>
    <path d="M 49.60152053833008 196.73985290527344 C 51.23078536987305 198.3819122314453 38.02214050292969 181.2029571533203 -0.6539226770401001 187.94358825683594" stroke-width="2.0" fill="none" stroke="rgb(0, 0, 0)" stroke-opacity="1" stroke-linecap="round" stroke-linejoin="round"/>
    <path d="M 228.1808624267578 199.4425048828125 C 225.20458984375 216.9159698486328 227.98880004882812 212.0984344482422 234.47900390625 218.052490234375" stroke-width="2.0" fill="none" stroke="rgb(0, 0, 0)" stroke-opacity="1" stroke-linecap="round" stroke-linejoin="round"/>
    <path d="M 197.03880310058594 222.0869140625 C 183.68093872070312 235.81610107421875 189.19815063476562 185.3485565185547 190.2542724609375 198.2689971923828 C 178.51821899414062 162.61050415039062 144.92041015625 167.38555908203125 168.81813049316406 172.19049072265625" stroke-width="2.0" fill="none" stroke="rgb(0, 0, 0)" stroke-opacity="1" stroke-linecap="round" stroke-linejoin="round"/>
    <path d="M 141.07176208496094 96.43621063232422 C 135.5167999267578 105.78047180175781 135.1544952392578 113.12848663330078 124.78112030029297 100.69979858398438 C 102.41358184814453 104.94926452636719 91.84917449951172 121.5661849975586 109.04655456542969 84.44595336914062 C 118.42100524902344 66.62747192382812 138.9022216796875 88.23460388183594 122.00137329101562 86.70770263671875" stroke-width="2.0" fill="none" stroke="rgb(0, 0, 0)" stroke-opacity="1" stroke-linecap="round" stroke-linejoin="round"/>
    <path d="M 128.58547973632812 65.31404113769531 C 157.44529724121094 62.04180145263672 165.70361328125 73.12725067138672 138.68638610839844 65.55099487304688 C 153.1001434326172 79.22361755371094 145.40103149414062 59.29872131347656 159.45262145996094 71.27981567382812 C 147.3928680419922 83.96607971191406 173.73306274414062 87.45691680908203 177.49696350097656 107.52971649169922" stroke-width="2.0" fill="none" stroke="rgb(0, 0, 0)" stroke-opacity="1" stroke-linecap="round" stroke-linejoin="round"/>
    <path d="M 42.84738540649414 164.16270446777344 C 73.28252410888672 138.09608459472656 67.04203796386719 151.96522521972656 47.055747985839844 156.84735107421875" stroke-width="2.0" fill="none" stroke="rgb(0, 0, 0)" stroke-opacity="1" stroke-linecap="round" stroke-linejoin="round"/>
    <path d="M 145.36474609375 207.79344177246094 C 123.46099090576172 195.10389709472656 122.01783752441406 190.57420349121094 141.01800537109375 200.7541046142578" stroke-width="2.0" fill="none" stroke="rgb(0, 0, 0)" stroke-opacity="1" stroke-linecap="round" stroke-linejoin="round"/>
    <path d="M 201.43988037109375 116.96492767333984 C 193.26766967773438 154.34127807617188 200.2562713623047 94.53907775878906 184.5820770263672 124.38880920410156" stroke-width="2.0" fill="none" stroke="rgb(0, 0, 0)" stroke-opacity="1" stroke-linecap="round" stroke-linejoin="round"/>
    <path d="M 232.5833282470703 114.29090118408203 C 233.41329956054688 96.58262634277344 231.69491577148438 106.50029754638672 237.6605682373047 109.15396881103516 C 229.99356079101562 111.55804443359375 228.17141723632812 120.37318420410156 236.84312438964844 109.77073669433594" stroke-width="2.0" fill="none" stroke="rgb(0, 0, 0)" stroke-opacity="1" stroke-linecap="round" stroke-linejoin="round"/>
    <path d="M 166.12965393066406 38.651283264160156 C 190.0650634765625 23.54380226135254 196.21945190429688 50.015098571777344 203.58782958984375 52.54069519042969 C 180.0482177734375 20.933361053466797 163.38320922851562 5.501992702484131 161.9312286376953 28.71615982055664" stroke-width="2.0" fill="none" stroke="rgb(0, 0, 0)" stroke-opacity="1" stroke-linecap="round" stroke-linejoin="round"/>
    <path d="M 121.86383056640625 172.1960906982422 C 98.02955627441406 140.93045043945312 107.94617462158203 147.030029296875 83.58868408203125 155.11083984375" stroke-width="2.0" fill="none" stroke="rgb(0, 0, 0)" stroke-opacity="1" stroke-linecap="round" stroke-linejoin="round"/>
    <path d="M 101.9005126953125 107.58949279785156 C 96.50804901123047 120.04820251464844 97.7040786743164 87.98455810546875 61.83559799194336 99.95541381835938" stroke-width="2.0" fill="none" stroke="rgb(0, 0, 0)" stroke-opacity="1" stroke-linecap="round" stroke-linejoin="round"/>
    <path d="M 137.02279663085938 195.5268096923828 C 137.77590942382812 174.32568359375 170.93618774414062 178.01210021972656 181.24822998046875 189.80853271484375" stroke-width="2.0" fill="none" stroke="rgb(0, 0, 0)" stroke-opacity="1" stroke-linecap="round" stroke-linejoin="round"/>
    <path d="M 200.7547607421875 220.94894409179688 C 120.53715515136719 213.8477783203125 167.45704650878906 232.21633911132812 144.0179443359375 204.250732421875" stroke-width="2.0" fill="none" stroke="rgb(0, 0, 0)" stroke-opacity="1" stroke-linecap="round" stroke-linejoin="round"/>
    <path d="M 209.94032287597656 36.01693344116211 C 229.851318359375 29.443449020385742 187.52732849121094 50.13384246826172 209.83705139160156 45.14796829223633" stroke-width="2.0" fill="none" stroke="rgb(0, 0, 0)" stroke-opacity="1" stroke-linecap="round" stroke-linejoin="round"/>
    <path d="M 226.866455078125 228.9553680419922 C 227.6980438232422 233.2441864013672 238.6864471435547 226.5388946533203 244.66268920898438 217.74746704101562" stroke-width="2.0" fill="none" stroke="rgb(0, 0, 0)" stroke-opacity="1" stroke-linecap="round" stroke-linejoin="round"/>
    <path d="M 52.39015579223633 122.96376037597656 C 41.54730987548828 134.5220184326172 46.72969055175781 127.90474700927734 41.87249755859375 120.90855407714844 C 55.321014404296875 114.59382629394531 50.44285202026367 127.89244842529297 36.2561149597168 127.82255554199219 C 24.917312622070312 119.32270812988281 32.884708404541016 117.46041107177734 62.971702575683594 130.2085723876953" stroke-width="2.0" fill="none" stroke="rgb(0, 0, 0)" stroke-opacity="1" stroke-linecap="round" stroke-linejoin="round"/>
    <path d="M 116.22998809814453 23.13806915283203 C 81.68904876708984 24.319480895996094 106.5770034790039 17.978849411010742 103.84457397460938 49.432674407958984" stroke-width="2.0" fill="none" stroke="rgb(0, 0, 0)" stroke-opacity="1" stroke-linecap="round" stroke-linejoin="round"/>
    <path d="M 72.86566162109375 53.94395446777344 C 88.99203491210938 29.850791931152344 96.5483169555664 9.903973579406738 124.59768676757812 0.7536879777908325" stroke-width="2.0" fill="none" stroke="rgb(0, 0, 0)" stroke-opacity="1" stroke-linecap="round" stroke-linejoin="round"/>
    <path d="M 34.631832122802734 79.40255737304688 C 24.950592041015625 65.59378051757812 98.39948272705078 60.51206588745117 100.86316680908203 92.98702239990234" stroke-width="2.0" fill="none" stroke="rgb(0, 0, 0)" stroke-opacity="1" stroke-linecap="round" stroke-linejoin="round"/>
    <path d="M 129.21011352539062 169.29627990722656 C 129.4059295654297 148.51266479492188 113.68683624267578 161.1870880126953 107.03800964355469 177.23719787597656 C 99.69161224365234 146.82518005371094 78.16834259033203 165.56051635742188 122.77706146240234 158.5579376220703" stroke-width="2.0" fill="none" stroke="rgb(0, 0, 0)" stroke-opacity="1" stroke-linecap="round" stroke-linejoin="round"/>
    <path d="M 60.46483612060547 196.7361297607422 C 92.9720458984375 169.0631561279297 90.01960754394531 174.7013702392578 67.40230560302734 177.38803100585938" stroke-width="2.0" fill="none" stroke="rgb(0, 0, 0)" stroke-opacity="1" stroke-linecap="round" stroke-linejoin="round"/>
    <path d="M 24.932144165039062 65.16804504394531 C 43.736839294433594 53.898529052734375 32.09187316894531 93.21086120605469 26.82868766784668 50.284908294677734" stroke-width="2.0" fill="none" stroke="rgb(0, 0, 0)" stroke-opacity="1" stroke-linecap="round" stroke-linejoin="round"/>
    <path d="M 88.38838958740234 191.22389221191406 C 81.8343276977539 201.32826232910156 111.39393615722656 202.23460388183594 113.44436645507812 219.53575134277344 C 114.36576843261719 223.61451721191406 80.78436279296875 226.72483825683594 84.71388244628906 238.1912841796875 C 113.13955688476562 232.77182006835938 119.55728149414062 243.52716064453125 120.28875732421875 230.2458038330078" stroke-width="2.0" fill="none" stroke="rgb(0, 0, 0)" stroke-opacity="1" stroke-linecap="round" stroke-linejoin="round"/>
    <path d="M 125.17718505859375 70.64488983154297 C 120.63733673095703 60.82270812988281 133.88230895996094 61.71340560913086 158.02435302734375 69.05194854736328 C 157.6712188720703 60.12843704223633 162.8808135986328 65.14676666259766 128.72129821777344 62.7537956237793" stroke-width="2.0" fill="none" stroke="rgb(0, 0, 0)" stroke-opacity="1" stroke-linecap="round" stroke-linejoin="round"/>
    <path d="M 133.0506134033203 196.3724365234375 C 145.4033203125 200.32327270507812 141.8248748779297 205.97222900390625 118.78865814208984 179.49998474121094" stroke-width="2.0" fill="none" stroke="rgb(0, 0, 0)" stroke-opacity="1" stroke-linecap="round" stroke-linejoin="round"/>
    <path d="M 138.30099487304688 101.0684585571289 C 133.12440490722656 91.4361343383789 157.03565979003906 122.39498901367188 132.59243774414062 121.22048950195312 C 147.9274444580078 131.88348388671875 194.48068237304688 118.09541320800781 174.32884216308594 99.76654052734375" stroke-width="2.0" fill="none" stroke="rgb(0, 0, 0)" stroke-opacity="1" stroke-linecap="round" stroke-linejoin="round"/>
    <path d="M 72.90092468261719 39.785133361816406 C 64.57145690917969 28.052291870117188 44.069847106933594 38.765804290771484 33.33345413208008 58.396732330322266" stroke-width="2.0" fill="none" stroke="rgb(0, 0, 0)" stroke-opacity="1" stroke-linecap="round" stroke-linejoin="round"/>
    <path d="M 64.99839782714844 144.12765502929688 C 48.18824005126953 153.46017456054688 36.071231842041016 164.19984436035156 35.033809661865234 176.69956970214844" stroke-width="2.0" fill="none" stroke="rgb(0, 0, 0)" stroke-opacity="1" stroke-linecap="round" stroke-linejoin="round"/>
    <path d="M 187.62315368652344 229.8973388671875 C 210.8133544921875 223.5006866455078 223.6136016845703 225.10838317871094 224.72532653808594 240.5436553955078" stroke-width="2.0" fill="none" stroke="rgb(0, 0, 0)" stroke-opacity="1" stroke-linecap="round" stroke-linejoin="round"/>
    <path d="M 84.70293426513672 68.23350524902344 C 76.19564819335938 31.78920555114746 56.06867599487305 8.163994789123535 36.337398529052734 18.682212829589844" stroke-width="2.0" fill="none" stroke="rgb(0, 0, 0)" stroke-opacity="1" stroke-linecap="round" stroke-linejoin="round"/>
    <path d="M 79.24981689453125 164.6427459716797 C 88.00582885742188 144.13845825195312 87.88341522216797 137.71336364746094 59.14596176147461 145.18211364746094 C 59.32167434692383 157.04563903808594 78.02764129638672 152.87799072265625 56.96743392944336 194.9696807861328" stroke-width="2.0" fill="none" stroke="rgb(0, 0, 0)" stroke-opacity="1" stroke-linecap="round" stroke-linejoin="round"/>
    <path d="M 135.73948669433594 61.64870071411133 C 123.48031616210938 82.36663818359375 123.09989929199219 46.83480453491211 153.2005157470703 68.11734008789062 C 137.83685302734375 66.66168975830078 147.11151123046875 69.60498046875 161.7113037109375 65.99596405029297" stroke-width="2.0" fill="none" stroke="rgb(0, 0, 0)" stroke-opacity="1" stroke-linecap="round" stroke-linejoin="round"/>
    <path d="M 217.3610076904297 -0.47045451402664185 C 189.4563751220703 16.984214782714844 195.05621337890625 49.42702102661133 202.55091857910156 63.39735794067383" stroke-width="2.0" fill="none" stroke="rgb(0, 0, 0)" stroke-opacity="1" stroke-linecap="round" stroke-linejoin="round"/>
    <path d="M 77.37258911132812 42.83232116699219 C 62.681396484375 18.320234298706055 14.86763858795166 10.861554145812988 31.32611083984375 36.23244094848633" stroke-width="2.0" fill="none" stroke="rgb(0, 0, 0)" stroke-opacity="1" stroke-linecap="round" stroke-linejoin="round"/>
    <path d="M 177.60406494140625 113.75716400146484 C 153.4119873046875 111.18285369873047 175.08639526367188 120.0512466430664 206.96217346191406 103.68047332763672" stroke-width="2.0" fill="none" stroke="rgb(0, 0, 0)" stroke-opacity="1" stroke-linecap="round" stroke-linejoin="round"/>
    <path d="M 29.681882858276367 140.76388549804688 C 42.94788360595703 119.69947052001953 28.36810874938965 125.8899917602539 26.458097457885742 111.8357162475586 C 12.33217716217041 89.93333435058594 -21.8261775970459 93.69811248779297 16.12606430053711 111.61398315429688" stroke-width="2.0" fill="none" stroke="rgb(0, 0, 0)" stroke-opacity="1" stroke-linecap="round" stroke-linejoin="round"/>
    <path d="M 75.6490249633789 12.571675300598145 C 79.47956085205078 -0.49505266547203064 86.20040130615234 7.664498329162598 71.88581848144531 -8.054168701171875 C 88.9560317993164 -3.1124091148376465 75.59566497802734 -11.016932487487793 63.03266143798828 -16.5355281829834" stroke-width="2.0" fill="none" stroke="rgb(0, 0, 0)" stroke-opacity="1" stroke-linecap="round" stroke-linejoin="round"/>
    <path d="M 128.42391967773438 148.0529022216797 C 147.7475128173828 149.93759155273438 108.37828063964844 150.58555603027344 127.53826904296875 169.1584930419922 C 134.22715759277344 172.79019165039062 137.98936462402344 155.180908203125 106.7756576538086 166.99757385253906" stroke-width="2.0" fill="none" stroke="rgb(0, 0, 0)" stroke-opacity="1" stroke-linecap="round" stroke-linejoin="round"/>
    <path d="M 185.8689727783203 149.19410705566406 C 139.82481384277344 115.8009033203125 122.95589447021484 155.9388427734375 148.78286743164062 152.82162475585938 C 144.5401611328125 146.3433837890625 164.83148193359375 173.5587921142578 151.49220275878906 154.94149780273438 C 149.0117645263672 165.18496704101562 117.25714874267578 199.72584533691406 149.2045135498047 198.87327575683594" stroke-width="2.0" fill="none" stroke="rgb(0, 0, 0)" stroke-opacity="1" stroke-linecap="round" stroke-linejoin="round"/>
    <path d="M 141.3408660888672 47.00010299682617 C 125.0166015625 24.75440788269043 129.77261352539062 17.258047103881836 146.29725646972656 34.35685729980469" stroke-width="2.0" fill="none" stroke="rgb(0, 0, 0)" stroke-opacity="1" stroke-linecap="round" stroke-linejoin="round"/>
    <path d="M 90.22418212890625 103.93677520751953 C 112.1304931640625 109.50065612792969 131.0991668701172 101.18392181396484 116.56475067138672 97.33647155761719 C 106.71428680419922 103.97604370117188 70.67269897460938 117.48584747314453 91.5937728881836 121.22666931152344 C 100.10768127441406 105.02397918701172 88.63873291015625 111.44741821289062 103.90567779541016 124.41630554199219" stroke-width="2.0" fill="none" stroke="rgb(0, 0, 0)" stroke-opacity="1" stroke-linecap="round" stroke-linejoin="round"/>
    <path d="M 136.08892822265625 98.52542877197266 C 158.66099548339844 124.58778381347656 156.37892150878906 83.01468658447266 144.7940673828125 105.3514633178711" stroke-width="2.0" fill="none" stroke="rgb(0, 0, 0)" stroke-opacity="1" stroke-linecap="round" stroke-linejoin="round"/>
    <path d="M 90.63925170898438 145.0243682861328 C 78.57368469238281 151.1697998046875 65.31584167480469 130.52947998046875 89.28068542480469 165.9741973876953 C 93.96759033203125 156.35919189453125 95.75782012939453 127.99395751953125 95.5597915649414 153.75669860839844" stroke-width="2.0" fill="none" stroke="rgb(0, 0, 0)" stroke-opacity="1" stroke-linecap="round" stroke-linejoin="round"/>
    <path d="M 91.7810287475586 99.3550796508789 C 83.53596496582031 91.49287414550781 67.10100555419922 89.01530456542969 54.28770065307617 95.97907257080078" stroke-width="2.0" fill="none" stroke="rgb(0, 0, 0)" stroke-opacity="1" stroke-linecap="round" stroke-linejoin="round"/>
    <path d="M 176.8390655517578 15.640835762023926 C 197.87741088867188 23.278287887573242 192.81484985351562 52.465919494628906 200.83807373046875 41.388092041015625 C 195.47802734375 36.51974105834961 201.67916870117188 59.98958969116211 186.48870849609375 15.747030258178711" stroke-width="2.0" fill="none" stroke="rgb(0, 0, 0)" stroke-opacity="1" stroke-linecap="round" stroke-linejoin="round"/>
    <path d="M 201.29884338378906 211.93426513671875 C 181.56309509277344 212.65911865234375 217.27267456054688 194.96002197265625 226.15982055664062 222.38006591796875 C 207.15850830078125 233.71304321289062 211.66555786132812 243.72129821777344 221.5946502685547 256.7733459472656" stroke-width="2.0" fill="none" stroke="rgb(0, 0, 0)" stroke-opacity="1" stroke-linecap="round" stroke-linejoin="round"/>
    <path d="M 167.89431762695312 13.54243278503418 C 169.29165649414062 13.842694282531738 151.8357391357422 -1.3254972696304321 157.16456604003906 24.571514129638672 C 169.091064453125 17.59273338317871 150.89491271972656 0.29572105407714844 152.32237243652344 35.85830307006836" stroke-width="2.0" fill="none" stroke="rgb(0, 0, 0)" stroke-opacity="1" stroke-linecap="round" stroke-linejoin="round"/>
    <path d="M 200.63693237304688 46.96413040161133 C 193.42047119140625 100.21996307373047 195.72389221191406 65.58402252197266 188.64175415039062 66.91207122802734 C 159.45339965820312 55.81148910522461 169.10369873046875 58.02774429321289 132.9745635986328 74.47991180419922 C 140.3159637451172 81.59127807617188 131.7578582763672 54.56999969482422 136.38229370117188 72.55551147460938" stroke-width="2.0" fill="none" stroke="rgb(0, 0, 0)" stroke-opacity="1" stroke-linecap="round" stroke-linejoin="round"/>
    <path d="M 38.674560546875 100.73204040527344 C 38.636810302734375 73.58592224121094 35.721771240234375 92.79360961914062 8.006917953491211 34.221839904785156" stroke-width="2.0" fill="none" stroke="rgb(0, 0, 0)" stroke-opacity="1" stroke-linecap="round" stroke-linejoin="round"/>
    <path d="M -6.233084678649902 180.9652862548828 C -4.965423107147217 234.32493591308594 20.9323673248291 215.2957000732422 0.4579384922981262 199.09974670410156 C 2.5236546993255615 213.03121948242188 -2.083616018295288 191.14588928222656 7.375838279724121 220.8945770263672 C 27.727941513061523 209.41055297851562 4.570456027984619 196.7712860107422 19.244857788085938 193.5602569580078" stroke-width="2.0" fill="none" stroke="rgb(0, 0, 0)" stroke-opacity="1" stroke-linecap="round" stroke-linejoin="round"/>
    <path d="M 134.4721221923828 204.155029296875 C 165.75579833984375 203.2996826171875 140.34725952148438 182.48915100097656 134.98948669433594 210.95779418945312" stroke-width="2.0" fill="none" stroke="rgb(0, 0, 0)" stroke-opacity="1" stroke-linecap="round" stroke-linejoin="round"/>
    <path d="M 105.04374694824219 106.8924560546875 C 105.65095520019531 92.99424743652344 145.2939910888672 88.56453704833984 160.56790161132812 89.50577545166016 C 159.8408203125 83.76319885253906 119.67881774902344 88.5093765258789 112.8194351196289 93.40388488769531" stroke-width="2.0" fill="none" stroke="rgb(0, 0, 0)" stroke-opacity="1" stroke-linecap="round" stroke-linejoin="round"/>
    <path d="M 156.1302490234375 144.61203002929688 C 183.21543884277344 138.70425415039062 126.41146850585938 126.40156555175781 118.24925231933594 157.51739501953125" stroke-width="2.0" fill="none" stroke="rgb(0, 0, 0)" stroke-opacity="1" stroke-linecap="round" stroke-linejoin="round"/>
    <path d="M 74.02104187011719 155.12503051757812 C 83.12652587890625 134.37652587890625 85.31464385986328 149.23875427246094 78.39199829101562 166.34092712402344 C 86.79318237304688 145.86537170410156 80.51256561279297 141.0111846923828 72.11573791503906 143.6830596923828 C 78.94239044189453 150.7593994140625 95.40978240966797 144.80917358398438 72.14151763916016 146.27923583984375" stroke-width="2.0" fill="none" stroke="rgb(0, 0, 0)" stroke-opacity="1" stroke-linecap="round" stroke-linejoin="round"/>
    <path d="M 19.047269821166992 111.05007934570312 C 40.52680206298828 125.46699523925781 32.09688949584961 127.8145751953125 39.70606994628906 122.78231811523438 C 20.61560821533203 123.4356689453125 9.539558410644531 122.81510162353516 18.343507766723633 134.43585205078125" stroke-width="2.0" fill="none" stroke="rgb(0, 0, 0)" stroke-opacity="1" stroke-linecap="round" stroke-linejoin="round"/>
    <path d="M 23.973569869995117 32.765804290771484 C 25.315258026123047 17.15843963623047 13.838995933532715 1.2970551252365112 -5.535152435302734 4.236252307891846" stroke-width="2.0" fill="none" stroke="rgb(0, 0, 0)" stroke-opacity="1" stroke-linecap="round" stroke-linejoin="round"/>
  </g>
</svg>
