<?xml version="1.0" ?>
<svg xmlns="http://www.w3.org/2000/svg" version="1.1" width="224" height="224">
  <defs/>
  <g>
    <path d="M 109.32966613769531 220.9387664794922 C 80.41484069824219 233.265380859375 72.3967514038086 216.6552276611328 37.32394790649414 204.14846801757812 C 70.62793731689453 230.9569854736328 103.57740020751953 221.31857299804688 68.99452209472656 233.96324157714844" stroke-width="2.0" fill="none" stroke="rgb(0, 0, 0)" stroke-opacity="1" stroke-linecap="round" stroke-linejoin="round"/>
    <path d="M 76.86583709716797 171.30477905273438 C 71.35515594482422 179.10549926757812 73.23091125488281 174.60084533691406 76.58566284179688 157.4097442626953 C 71.83403778076172 175.03213500976562 97.96720123291016 171.9053955078125 79.36038208007812 184.1972198486328 C 54.05851745605469 167.55491638183594 60.59088134765625 210.34506225585938 83.45568084716797 188.3169403076172" stroke-width="2.0" fill="none" stroke="rgb(0, 0, 0)" stroke-opacity="1" stroke-linecap="round" stroke-linejoin="round"/>
    <path d="M 216.09521484375 17.938335418701172 C 211.0651397705078 21.5897274017334 196.5802001953125 49.36405563354492 185.0290069580078 29.383771896362305" stroke-width="2.0" fill="none" stroke="rgb(0, 0, 0)" stroke-opacity="1" stroke-linecap="round" stroke-linejoin="round"/>
    <path d="M 46.76902770996094 185.02120971679688 C 42.314796447753906 216.47450256347656 49.77482604980469 184.785400390625 49.149627685546875 158.84326171875 C 55.23405075073242 164.08033752441406 77.90787506103516 172.67706298828125 76.22710418701172 151.04676818847656 C 69.2527084350586 130.7293701171875 79.57159423828125 154.93772888183594 51.514869689941406 129.88035583496094" stroke-width="2.0" fill="none" stroke="rgb(0, 0, 0)" stroke-opacity="1" stroke-linecap="round" stroke-linejoin="round"/>
    <path d="M 77.21209716796875 134.83348083496094 C 71.08607482910156 153.76124572753906 48.352054595947266 125.35572052001953 73.72455596923828 128.88546752929688 C 78.58528900146484 104.97980499267578 68.2201919555664 117.53361511230469 94.30340576171875 120.3641128540039" stroke-width="2.0" fill="none" stroke="rgb(0, 0, 0)" stroke-opacity="1" stroke-linecap="round" stroke-linejoin="round"/>
    <path d="M 184.2571258544922 107.97229766845703 C 212.72406005859375 117.10728454589844 237.7008819580078 94.69168853759766 226.96405029296875 109.13658142089844 C 228.2830810546875 118.0533447265625 206.27813720703125 125.7921371459961 199.612060546875 114.44930267333984" stroke-width="2.0" fill="none" stroke="rgb(0, 0, 0)" stroke-opacity="1" stroke-linecap="round" stroke-linejoin="round"/>
    <path d="M 52.243167877197266 174.5498046875 C 43.19462966918945 141.38894653320312 36.882484436035156 162.37464904785156 33.087032318115234 185.12454223632812" stroke-width="2.0" fill="none" stroke="rgb(0, 0, 0)" stroke-opacity="1" stroke-linecap="round" stroke-linejoin="round"/>
    <path d="M 123.52583312988281 22.95836067199707 C 175.14785766601562 21.437999725341797 143.3201141357422 20.648269653320312 166.1024932861328 12.35943603515625" stroke-width="2.0" fill="none" stroke="rgb(0, 0, 0)" stroke-opacity="1" stroke-linecap="round" stroke-linejoin="round"/>
    <path d="M 6.976370811462402 194.34536743164062 C 10.025825500488281 220.9822998046875 1.5985924005508423 203.619384765625 -2.164985179901123 181.91029357910156 C -3.8678910732269287 173.26300048828125 14.638367652893066 205.4496307373047 -2.3305749893188477 222.29275512695312" stroke-width="2.0" fill="none" stroke="rgb(0, 0, 0)" stroke-opacity="1" stroke-linecap="round" stroke-linejoin="round"/>
    <path d="M 184.9879913330078 80.38533782958984 C 180.92068481445312 134.5784149169922 208.59361267089844 116.94840240478516 181.80880737304688 108.26866912841797 C 190.46873474121094 81.08972930908203 208.7767791748047 112.00186157226562 186.27093505859375 110.44560241699219" stroke-width="2.0" fill="none" stroke="rgb(0, 0, 0)" stroke-opacity="1" stroke-linecap="round" stroke-linejoin="round"/>
    <path d="M 64.47258758544922 146.4257049560547 C 35.458736419677734 184.37274169921875 22.21732521057129 195.82957458496094 35.14427947998047 145.0770263671875" stroke-width="2.0" fill="none" stroke="rgb(0, 0, 0)" stroke-opacity="1" stroke-linecap="round" stroke-linejoin="round"/>
    <path d="M 60.684539794921875 189.5053253173828 C 91.56340789794922 207.19387817382812 25.84002685546875 211.24855041503906 52.716678619384766 173.63694763183594 C 75.92450714111328 199.3861541748047 78.83550262451172 159.37246704101562 58.74530029296875 172.3092498779297" stroke-width="2.0" fill="none" stroke="rgb(0, 0, 0)" stroke-opacity="1" stroke-linecap="round" stroke-linejoin="round"/>
    <path d="M 176.65560913085938 51.974388122558594 C 191.8609619140625 84.54389190673828 184.47286987304688 115.78478240966797 192.0591278076172 81.68702697753906 C 177.9031524658203 84.29497528076172 212.68618774414062 97.92507934570312 200.5511932373047 79.12106323242188" stroke-width="2.0" fill="none" stroke="rgb(0, 0, 0)" stroke-opacity="1" stroke-linecap="round" stroke-linejoin="round"/>
    <path d="M 15.897403717041016 64.48015594482422 C 25.684429168701172 79.27413940429688 23.36043357849121 28.730627059936523 26.76556396484375 47.616050720214844" stroke-width="2.0" fill="none" stroke="rgb(0, 0, 0)" stroke-opacity="1" stroke-linecap="round" stroke-linejoin="round"/>
    <path d="M 107.69935607910156 170.408203125 C 139.11705017089844 151.1529998779297 105.09979248046875 175.46444702148438 98.95026397705078 159.22198486328125 C 141.56809997558594 168.7158966064453 145.6082763671875 153.99557495117188 100.07918548583984 163.5435333251953" stroke-width="2.0" fill="none" stroke="rgb(0, 0, 0)" stroke-opacity="1" stroke-linecap="round" stroke-linejoin="round"/>
    <path d="M 128.33876037597656 59.32935333251953 C 143.33436584472656 62.72501754760742 124.31428527832031 49.3421630859375 140.531982421875 64.98968505859375 C 131.17950439453125 60.036075592041016 138.8767852783203 63.5861930847168 128.74215698242188 47.82193374633789" stroke-width="2.0" fill="none" stroke="rgb(0, 0, 0)" stroke-opacity="1" stroke-linecap="round" stroke-linejoin="round"/>
    <path d="M 193.81243896484375 201.0198974609375 C 192.70626831054688 215.21470642089844 203.78477478027344 208.55543518066406 207.0911407470703 176.46731567382812 C 209.36337280273438 169.09243774414062 229.6134490966797 170.25604248046875 190.4477081298828 176.1436309814453" stroke-width="2.0" fill="none" stroke="rgb(0, 0, 0)" stroke-opacity="1" stroke-linecap="round" stroke-linejoin="round"/>
    <path d="M 150.87890625 195.5122528076172 C 158.21908569335938 165.28562927246094 147.4031982421875 169.2327117919922 157.51129150390625 185.6461639404297 C 139.4427032470703 205.55616760253906 130.7144317626953 194.65557861328125 133.2783660888672 144.7989044189453 C 125.35774230957031 176.15257263183594 118.35347747802734 187.00131225585938 127.00037384033203 192.80210876464844" stroke-width="2.0" fill="none" stroke="rgb(0, 0, 0)" stroke-opacity="1" stroke-linecap="round" stroke-linejoin="round"/>
    <path d="M 196.22154235839844 98.52983093261719 C 216.83413696289062 102.11730194091797 225.75146484375 71.03897857666016 222.23146057128906 103.8969497680664" stroke-width="2.0" fill="none" stroke="rgb(0, 0, 0)" stroke-opacity="1" stroke-linecap="round" stroke-linejoin="round"/>
    <path d="M 37.92378234863281 195.482177734375 C 63.4439811706543 201.9808349609375 27.65648651123047 182.04742431640625 32.14982223510742 210.54090881347656" stroke-width="2.0" fill="none" stroke="rgb(0, 0, 0)" stroke-opacity="1" stroke-linecap="round" stroke-linejoin="round"/>
    <path d="M 73.22327423095703 99.21793365478516 C 58.992923736572266 57.49248504638672 47.20650100708008 71.9986343383789 69.57357025146484 95.3437271118164 C 75.67540740966797 69.7881851196289 53.722755432128906 85.54666137695312 56.565208435058594 59.81462478637695" stroke-width="2.0" fill="none" stroke="rgb(0, 0, 0)" stroke-opacity="1" stroke-linecap="round" stroke-linejoin="round"/>
    <path d="M 63.420135498046875 66.18500518798828 C 78.50668334960938 65.40187072753906 92.98881530761719 43.44709014892578 65.76318359375 39.711307525634766" stroke-width="2.0" fill="none" stroke="rgb(0, 0, 0)" stroke-opacity="1" stroke-linecap="round" stroke-linejoin="round"/>
    <path d="M 50.786659240722656 23.439956665039062 C 20.428529739379883 9.03996467590332 89.71208190917969 14.66946792602539 98.00629425048828 20.83869171142578 C 71.04132080078125 17.96271514892578 60.63037109375 17.10725212097168 109.55022430419922 27.00594711303711 C 85.92945861816406 27.652273178100586 64.48844909667969 31.91205406188965 60.86302947998047 33.279335021972656" stroke-width="2.0" fill="none" stroke="rgb(0, 0, 0)" stroke-opacity="1" stroke-linecap="round" stroke-linejoin="round"/>
    <path d="M 14.834714889526367 199.34217834472656 C -9.430867195129395 212.308837890625 3.787301778793335 201.40663146972656 31.763107299804688 207.9008331298828 C 33.40536880493164 179.87777709960938 43.96065139770508 173.4795379638672 25.193702697753906 182.40032958984375" stroke-width="2.0" fill="none" stroke="rgb(0, 0, 0)" stroke-opacity="1" stroke-linecap="round" stroke-linejoin="round"/>
    <path d="M 161.6816864013672 107.79364013671875 C 147.9221649169922 130.63973999023438 144.24134826660156 160.23626708984375 175.7313690185547 162.54327392578125 C 164.55441284179688 92.61587524414062 184.6960906982422 83.14808654785156 175.68472290039062 111.80511474609375 C 176.16197204589844 139.34242248535156 181.05299377441406 126.68585205078125 186.74229431152344 84.6849365234375" stroke-width="2.0" fill="none" stroke="rgb(0, 0, 0)" stroke-opacity="1" stroke-linecap="round" stroke-linejoin="round"/>
    <path d="M 77.77822875976562 42.82045364379883 C 106.66654205322266 39.11893081665039 102.14508819580078 75.78109741210938 79.55786895751953 52.95014953613281 C 66.28572082519531 81.87187957763672 101.5999984741211 73.37674713134766 88.20166778564453 58.62822341918945 C 82.88347625732422 51.0204963684082 83.9365463256836 59.89148712158203 101.62384796142578 67.39493560791016" stroke-width="2.0" fill="none" stroke="rgb(0, 0, 0)" stroke-opacity="1" stroke-linecap="round" stroke-linejoin="round"/>
    <path d="M 181.60092163085938 132.6124725341797 C 173.98123168945312 122.67279815673828 180.44601440429688 98.60594177246094 190.54893493652344 77.63822937011719" stroke-width="2.0" fill="none" stroke="rgb(0, 0, 0)" stroke-opacity="1" stroke-linecap="round" stroke-linejoin="round"/>
    <path d="M 144.88327026367188 130.49371337890625 C 141.3636016845703 111.57120513916016 134.12503051757812 115.099853515625 99.21434020996094 129.36050415039062" stroke-width="2.0" fill="none" stroke="rgb(0, 0, 0)" stroke-opacity="1" stroke-linecap="round" stroke-linejoin="round"/>
    <path d="M 61.59166717529297 144.61184692382812 C 57.777137756347656 182.52227783203125 36.314186096191406 143.56886291503906 63.53663635253906 169.28350830078125" stroke-width="2.0" fill="none" stroke="rgb(0, 0, 0)" stroke-opacity="1" stroke-linecap="round" stroke-linejoin="round"/>
    <path d="M 137.0967254638672 -3.9177968502044678 C 136.37342834472656 -12.476205825805664 140.76014709472656 -4.953420639038086 135.70013427734375 -12.263769149780273" stroke-width="2.0" fill="none" stroke="rgb(0, 0, 0)" stroke-opacity="1" stroke-linecap="round" stroke-linejoin="round"/>
    <path d="M 130.06527709960938 197.42750549316406 C 166.13272094726562 195.17901611328125 122.43070983886719 216.81338500976562 140.4558868408203 174.9617919921875 C 139.19384765625 184.02206420898438 137.44540405273438 132.7830047607422 143.80093383789062 157.33456420898438" stroke-width="2.0" fill="none" stroke="rgb(0, 0, 0)" stroke-opacity="1" stroke-linecap="round" stroke-linejoin="round"/>
    <path d="M 162.93153381347656 -0.03202065825462341 C 152.5043182373047 2.367219924926758 144.18878173828125 17.22040557861328 155.91702270507812 6.586757659912109 C 143.36512756347656 14.915548324584961 151.03651428222656 1.1247292757034302 172.9160919189453 -0.7205405235290527 C 139.59225463867188 16.512874603271484 110.1432876586914 8.053549766540527 192.7981414794922 17.1247615814209" stroke-width="2.0" fill="none" stroke="rgb(0, 0, 0)" stroke-opacity="1" stroke-linecap="round" stroke-linejoin="round"/>
    <path d="M 49.005435943603516 57.46673583984375 C 88.87452697753906 63.599273681640625 57.48686218261719 89.34449005126953 47.89295959472656 45.48045349121094" stroke-width="2.0" fill="none" stroke="rgb(0, 0, 0)" stroke-opacity="1" stroke-linecap="round" stroke-linejoin="round"/>
    <path d="M 202.25918579101562 159.53317260742188 C 212.5532684326172 138.0312042236328 181.14935302734375 172.21461486816406 186.1103973388672 138.3199005126953 C 196.13003540039062 154.76951599121094 189.092529296875 186.44964599609375 221.374755859375 158.715087890625" stroke-width="2.0" fill="none" stroke="rgb(0, 0, 0)" stroke-opacity="1" stroke-linecap="round" stroke-linejoin="round"/>
    <path d="M 160.3131561279297 164.1097412109375 C 133.30322265625 159.91860961914062 139.81483459472656 186.48524475097656 156.92857360839844 153.2114715576172 C 179.1470947265625 137.7515869140625 195.24574279785156 178.4984893798828 183.9258270263672 190.51242065429688" stroke-width="2.0" fill="none" stroke="rgb(0, 0, 0)" stroke-opacity="1" stroke-linecap="round" stroke-linejoin="round"/>
    <path d="M 27.61248207092285 20.78526496887207 C 19.012563705444336 38.64820861816406 21.93441390991211 2.4920191764831543 30.74335289001465 11.574094772338867" stroke-width="2.0" fill="none" stroke="rgb(0, 0, 0)" stroke-opacity="1" stroke-linecap="round" stroke-linejoin="round"/>
    <path d="M 163.9484100341797 178.0746612548828 C 159.67413330078125 159.07723999023438 145.8606414794922 161.78013610839844 174.28317260742188 142.54696655273438 C 162.5123748779297 166.9078826904297 161.4001007080078 178.08511352539062 170.46255493164062 166.39500427246094 C 182.7210693359375 129.04296875 174.93020629882812 162.29049682617188 150.656494140625 164.3976287841797" stroke-width="2.0" fill="none" stroke="rgb(0, 0, 0)" stroke-opacity="1" stroke-linecap="round" stroke-linejoin="round"/>
    <path d="M 189.97052001953125 30.26228141784668 C 153.0128631591797 15.70693588256836 157.23573303222656 6.084834575653076 197.98065185546875 26.06783103942871" stroke-width="2.0" fill="none" stroke="rgb(0, 0, 0)" stroke-opacity="1" stroke-linecap="round" stroke-linejoin="round"/>
    <path d="M 156.0989990234375 14.401904106140137 C 174.67970275878906 13.691936492919922 187.80381774902344 3.491046190261841 163.09866333007812 8.854240417480469" stroke-width="2.0" fill="none" stroke="rgb(0, 0, 0)" stroke-opacity="1" stroke-linecap="round" stroke-linejoin="round"/>
    <path d="M 203.75794982910156 82.95683288574219 C 227.03680419921875 90.39359283447266 214.4283905029297 53.92906188964844 223.35513305664062 93.42390441894531 C 206.19342041015625 90.48284149169922 208.41600036621094 100.56681060791016 233.4097137451172 105.92218780517578" stroke-width="2.0" fill="none" stroke="rgb(0, 0, 0)" stroke-opacity="1" stroke-linecap="round" stroke-linejoin="round"/>
    <path d="M 205.9060516357422 233.76100158691406 C 229.9242401123047 224.04669189453125 235.4262237548828 207.1064453125 216.2570037841797 227.6750946044922 C 231.2797393798828 211.205078125 226.40765380859375 203.68841552734375 229.96922302246094 227.89944458007812" stroke-width="2.0" fill="none" stroke="rgb(0, 0, 0)" stroke-opacity="1" stroke-linecap="round" stroke-linejoin="round"/>
    <path d="M 55.154727935791016 15.43905258178711 C 72.75064086914062 7.583479881286621 59.90641403198242 28.4910831451416 29.913162231445312 0.10969273746013641 C 76.11285400390625 -16.305055618286133 55.10469055175781 2.5826189517974854 32.975154876708984 3.4639077186584473 C 41.3779411315918 19.330333709716797 58.15641784667969 0.4980309009552002 34.067745208740234 10.638118743896484" stroke-width="2.0" fill="none" stroke="rgb(0, 0, 0)" stroke-opacity="1" stroke-linecap="round" stroke-linejoin="round"/>
    <path d="M 19.7869873046875 93.95063781738281 C -8.417409896850586 57.923912048339844 6.7025837898254395 107.05846405029297 27.82346534729004 112.5774154663086" stroke-width="2.0" fill="none" stroke="rgb(0, 0, 0)" stroke-opacity="1" stroke-linecap="round" stroke-linejoin="round"/>
    <path d="M 78.0473861694336 206.41053771972656 C 67.30912017822266 216.3699493408203 49.030113220214844 219.39663696289062 83.63213348388672 216.19981384277344 C 81.87203979492188 216.7812957763672 59.49326705932617 229.9978485107422 88.70668029785156 208.48089599609375" stroke-width="2.0" fill="none" stroke="rgb(0, 0, 0)" stroke-opacity="1" stroke-linecap="round" stroke-linejoin="round"/>
    <path d="M 107.05496978759766 1.5473066568374634 C 130.58338928222656 6.878901481628418 137.90438842773438 8.20297622680664 101.374755859375 10.865326881408691 C 95.32719421386719 24.24540138244629 140.53070068359375 11.41982364654541 169.957763671875 -0.9700670838356018" stroke-width="2.0" fill="none" stroke="rgb(0, 0, 0)" stroke-opacity="1" stroke-linecap="round" stroke-linejoin="round"/>
    <path d="M 98.81272888183594 40.54475021362305 C 94.93272399902344 36.393123626708984 82.43486022949219 35.44746398925781 112.97207641601562 56.901527404785156" stroke-width="2.0" fill="none" stroke="rgb(0, 0, 0)" stroke-opacity="1" stroke-linecap="round" stroke-linejoin="round"/>
    <path d="M 178.48146057128906 12.284516334533691 C 163.7592010498047 11.354939460754395 179.68553161621094 23.02359390258789 205.05410766601562 39.676326751708984 C 221.68899536132812 21.6077880859375 216.2696533203125 -10.25562572479248 230.91517639160156 28.188514709472656" stroke-width="2.0" fill="none" stroke="rgb(0, 0, 0)" stroke-opacity="1" stroke-linecap="round" stroke-linejoin="round"/>
    <path d="M 67.69025421142578 149.21420288085938 C 5.786280155181885 109.83259582519531 47.87409591674805 114.75709533691406 53.85450744628906 143.1269989013672" stroke-width="2.0" fill="none" stroke="rgb(0, 0, 0)" stroke-opacity="1" stroke-linecap="round" stroke-linejoin="round"/>
    <path d="M 211.21054077148438 205.67977905273438 C 194.3996124267578 218.5467529296875 225.4032440185547 185.53781127929688 209.64706420898438 211.45541381835938" stroke-width="2.0" fill="none" stroke="rgb(0, 0, 0)" stroke-opacity="1" stroke-linecap="round" stroke-linejoin="round"/>
    <path d="M 114.10394287109375 48.52067565917969 C 134.95899963378906 80.50199890136719 114.60615539550781 79.39260864257812 125.92796325683594 107.26952362060547" stroke-width="2.0" fill="none" stroke="rgb(0, 0, 0)" stroke-opacity="1" stroke-linecap="round" stroke-linejoin="round"/>
    <path d="M 65.96269226074219 89.83869934082031 C 75.67398071289062 133.14654541015625 98.82937622070312 129.32965087890625 88.0833511352539 91.05046081542969 C 107.2580337524414 127.91542053222656 67.53419494628906 137.6318359375 76.6357421875 98.30500793457031" stroke-width="2.0" fill="none" stroke="rgb(0, 0, 0)" stroke-opacity="1" stroke-linecap="round" stroke-linejoin="round"/>
    <path d="M 91.79022216796875 5.801655292510986 C 69.76016998291016 -8.906364440917969 87.24188995361328 9.08726692199707 103.7198486328125 2.6648435592651367 C 64.02569580078125 -2.7210631370544434 65.46768951416016 -10.607436180114746 70.66080474853516 -19.54448127746582" stroke-width="2.0" fill="none" stroke="rgb(0, 0, 0)" stroke-opacity="1" stroke-linecap="round" stroke-linejoin="round"/>
    <path d="M 225.67864990234375 63.900177001953125 C 233.662353515625 73.0401382446289 215.40567016601562 64.07103729248047 223.3760528564453 22.70040512084961 C 225.43368530273438 77.79257202148438 209.81773376464844 46.10953903198242 225.87583923339844 18.278621673583984" stroke-width="2.0" fill="none" stroke="rgb(0, 0, 0)" stroke-opacity="1" stroke-linecap="round" stroke-linejoin="round"/>
    <path d="M 215.26657104492188 228.49317932128906 C 214.6134796142578 230.27430725097656 209.69265747070312 240.6103057861328 209.49124145507812 246.89279174804688" stroke-width="2.0" fill="none" stroke="rgb(0, 0, 0)" stroke-opacity="1" stroke-linecap="round" stroke-linejoin="round"/>
    <path d="M -5.618609428405762 198.76901245117188 C 5.581787586212158 213.30076599121094 -6.872170925140381 197.13587951660156 -10.545543670654297 184.95570373535156 C -11.489418983459473 196.84426879882812 -22.428386688232422 203.94561767578125 -29.317392349243164 198.70455932617188" stroke-width="2.0" fill="none" stroke="rgb(0, 0, 0)" stroke-opacity="1" stroke-linecap="round" stroke-linejoin="round"/>
    <path d="M 59.64139938354492 180.1028289794922 C 53.239402770996094 152.7733154296875 90.78569030761719 182.38584899902344 91.59993743896484 170.45645141601562 C 88.74171447753906 176.9529571533203 60.952247619628906 172.27908325195312 59.4799690246582 157.6269989013672" stroke-width="2.0" fill="none" stroke="rgb(0, 0, 0)" stroke-opacity="1" stroke-linecap="round" stroke-linejoin="round"/>
    <path d="M 175.08670043945312 171.22120666503906 C 177.34951782226562 211.64373779296875 158.00051879882812 192.90093994140625 182.1182403564453 184.65711975097656" stroke-width="2.0" fill="none" stroke="rgb(0, 0, 0)" stroke-opacity="1" stroke-linecap="round" stroke-linejoin="round"/>
    <path d="M 187.47705078125 88.3788833618164 C 192.21554565429688 103.70861053466797 237.89340209960938 84.03990936279297 206.55303955078125 101.91339874267578 C 221.04083251953125 87.458740234375 222.6571044921875 120.85613250732422 231.19346618652344 129.8056640625" stroke-width="2.0" fill="none" stroke="rgb(0, 0, 0)" stroke-opacity="1" stroke-linecap="round" stroke-linejoin="round"/>
    <path d="M -4.372524261474609 48.350101470947266 C -8.47964859008789 29.496070861816406 -3.9273722171783447 41.68880081176758 -8.137007713317871 65.39163208007812" stroke-width="2.0" fill="none" stroke="rgb(0, 0, 0)" stroke-opacity="1" stroke-linecap="round" stroke-linejoin="round"/>
    <path d="M 161.1363525390625 67.17289733886719 C 172.3634490966797 107.39419555664062 156.8061065673828 71.34444427490234 157.5586700439453 118.51242065429688 C 160.998046875 78.65928649902344 164.6027069091797 93.31708526611328 152.403564453125 109.01861572265625" stroke-width="2.0" fill="none" stroke="rgb(0, 0, 0)" stroke-opacity="1" stroke-linecap="round" stroke-linejoin="round"/>
    <path d="M 226.32240295410156 120.91194152832031 C 222.49942016601562 89.28045654296875 205.60116577148438 96.96070861816406 219.66575622558594 96.39715576171875 C 218.8430938720703 66.17545318603516 246.6836700439453 99.23580932617188 223.62094116210938 109.54568481445312" stroke-width="2.0" fill="none" stroke="rgb(0, 0, 0)" stroke-opacity="1" stroke-linecap="round" stroke-linejoin="round"/>
    <path d="M 88.3042984008789 156.5394287109375 C 86.00013732910156 135.80569458007812 97.21633911132812 148.54931640625 96.97491455078125 193.2083282470703 C 102.85429382324219 204.04705810546875 94.5810317993164 154.8736572265625 106.55693817138672 199.47817993164062" stroke-width="2.0" fill="none" stroke="rgb(0, 0, 0)" stroke-opacity="1" stroke-linecap="round" stroke-linejoin="round"/>
    <path d="M 45.81983947753906 76.01298522949219 C 40.73359680175781 114.3468017578125 60.851959228515625 93.02313232421875 44.20222091674805 82.00498962402344 C 63.26137924194336 100.69485473632812 41.247711181640625 118.58373260498047 20.3566951751709 106.51301574707031" stroke-width="2.0" fill="none" stroke="rgb(0, 0, 0)" stroke-opacity="1" stroke-linecap="round" stroke-linejoin="round"/>
    <path d="M 203.62066650390625 121.51628112792969 C 195.77394104003906 130.6772003173828 217.24891662597656 124.7530288696289 196.45802307128906 115.28690338134766 C 213.48826599121094 138.97080993652344 176.249755859375 124.93595886230469 191.16302490234375 161.7089385986328" stroke-width="2.0" fill="none" stroke="rgb(0, 0, 0)" stroke-opacity="1" stroke-linecap="round" stroke-linejoin="round"/>
    <path d="M 152.4075469970703 214.73268127441406 C 104.80281066894531 218.31446838378906 127.10609436035156 195.425537109375 120.51254272460938 165.29940795898438 C 115.54888153076172 143.08360290527344 140.79727172851562 213.0923309326172 98.96837615966797 185.93064880371094" stroke-width="2.0" fill="none" stroke="rgb(0, 0, 0)" stroke-opacity="1" stroke-linecap="round" stroke-linejoin="round"/>
    <path d="M 42.911556243896484 182.719482421875 C 38.34632110595703 172.97320556640625 46.829227447509766 189.90701293945312 61.48557662963867 172.00454711914062 C 49.269893646240234 181.31983947753906 55.15996170043945 162.38916015625 35.87123489379883 182.0384063720703" stroke-width="2.0" fill="none" stroke="rgb(0, 0, 0)" stroke-opacity="1" stroke-linecap="round" stroke-linejoin="round"/>
    <path d="M 128.97862243652344 29.05979347229004 C 130.51373291015625 37.3051643371582 104.104736328125 30.512266159057617 132.8346710205078 46.328765869140625 C 139.67074584960938 41.57621383666992 132.97422790527344 53.14651107788086 139.69686889648438 36.199119567871094 C 144.3241729736328 53.33325958251953 164.0927276611328 39.84147262573242 137.21304321289062 30.37765121459961" stroke-width="2.0" fill="none" stroke="rgb(0, 0, 0)" stroke-opacity="1" stroke-linecap="round" stroke-linejoin="round"/>
    <path d="M 114.62635040283203 133.07138061523438 C 88.88597869873047 120.2782974243164 134.63697814941406 64.16292572021484 114.36127471923828 96.09930419921875" stroke-width="2.0" fill="none" stroke="rgb(0, 0, 0)" stroke-opacity="1" stroke-linecap="round" stroke-linejoin="round"/>
    <path d="M 177.0345001220703 121.0086898803711 C 155.0286865234375 142.1345672607422 155.30612182617188 154.82691955566406 151.6409912109375 127.98383331298828 C 122.45520782470703 118.51055908203125 158.3243408203125 108.90550231933594 125.25679779052734 131.2965087890625" stroke-width="2.0" fill="none" stroke="rgb(0, 0, 0)" stroke-opacity="1" stroke-linecap="round" stroke-linejoin="round"/>
    <path d="M 112.69200897216797 81.32942199707031 C 119.87225341796875 81.92576599121094 98.82421875 49.82316207885742 104.91748046875 65.55657196044922 C 97.7612075805664 61.705360412597656 97.16641235351562 73.52955627441406 108.67687225341797 80.9014892578125 C 100.90806579589844 63.72782516479492 101.0274658203125 92.16556549072266 88.42658233642578 71.72164916992188" stroke-width="2.0" fill="none" stroke="rgb(0, 0, 0)" stroke-opacity="1" stroke-linecap="round" stroke-linejoin="round"/>
    <path d="M 136.3514862060547 169.75193786621094 C 123.66124725341797 144.33648681640625 121.75740051269531 180.75344848632812 154.7542266845703 157.99974060058594 C 100.29244995117188 174.33126831054688 138.91297912597656 156.5023956298828 134.4575653076172 174.32015991210938 C 146.09524536132812 158.00408935546875 105.98876190185547 163.2021026611328 138.72145080566406 154.02301025390625" stroke-width="2.0" fill="none" stroke="rgb(0, 0, 0)" stroke-opacity="1" stroke-linecap="round" stroke-linejoin="round"/>
    <path d="M 119.87191009521484 195.76657104492188 C 106.66284942626953 180.83486938476562 119.4905014038086 208.18624877929688 97.9634780883789 186.89376831054688" stroke-width="2.0" fill="none" stroke="rgb(0, 0, 0)" stroke-opacity="1" stroke-linecap="round" stroke-linejoin="round"/>
    <path d="M 163.59800720214844 152.7393798828125 C 176.40701293945312 203.78253173828125 156.09335327148438 187.61026000976562 152.31802368164062 174.67709350585938" stroke-width="2.0" fill="none" stroke="rgb(0, 0, 0)" stroke-opacity="1" stroke-linecap="round" stroke-linejoin="round"/>
    <path d="M 116.55441284179688 202.62196350097656 C 76.17981719970703 188.28570556640625 93.45030975341797 214.6075439453125 80.29999542236328 214.6058807373047 C 64.20645904541016 217.5757293701172 71.93457794189453 223.8925018310547 115.26859283447266 218.4796905517578 C 73.6338882446289 191.5573272705078 86.38361358642578 227.2349853515625 58.283016204833984 217.8575897216797" stroke-width="2.0" fill="none" stroke="rgb(0, 0, 0)" stroke-opacity="1" stroke-linecap="round" stroke-linejoin="round"/>
    <path d="M 177.75697326660156 154.40560913085938 C 164.05047607421875 196.39915466308594 175.75819396972656 142.5754852294922 167.9775390625 134.81385803222656 C 147.45672607421875 169.51060485839844 163.4364471435547 190.3512725830078 165.60598754882812 139.8115692138672 C 132.05819702148438 162.4647979736328 94.8545150756836 152.91038513183594 160.8466033935547 146.85951232910156" stroke-width="2.0" fill="none" stroke="rgb(0, 0, 0)" stroke-opacity="1" stroke-linecap="round" stroke-linejoin="round"/>
    <path d="M 189.02084350585938 141.81695556640625 C 195.4933319091797 161.04234313964844 220.74014282226562 126.32746887207031 187.87570190429688 134.75172424316406" stroke-width="2.0" fill="none" stroke="rgb(0, 0, 0)" stroke-opacity="1" stroke-linecap="round" stroke-linejoin="round"/>
    <path d="M 188.0935516357422 173.62271118164062 C 224.88674926757812 171.43310546875 217.14187622070312 155.97230529785156 225.9341583251953 141.814453125" stroke-width="2.0" fill="none" stroke="rgb(0, 0, 0)" stroke-opacity="1" stroke-linecap="round" stroke-linejoin="round"/>
    <path d="M 105.5988998413086 34.20117950439453 C 129.0469512939453 21.57575225830078 93.96697998046875 3.9225616455078125 61.551856994628906 12.124754905700684 C 36.93952178955078 15.94013786315918 42.63191604614258 19.713655471801758 107.91124725341797 28.66023063659668 C 75.39519500732422 40.48466873168945 79.19709014892578 43.141571044921875 58.02849197387695 29.7110538482666" stroke-width="2.0" fill="none" stroke="rgb(0, 0, 0)" stroke-opacity="1" stroke-linecap="round" stroke-linejoin="round"/>
    <path d="M -5.153625965118408 111.29064178466797 C 14.39001750946045 83.62222290039062 -17.786108016967773 71.92967224121094 -9.480369567871094 29.83661651611328 C -17.968341827392578 76.97217559814453 -15.371358871459961 82.56733703613281 -25.73316764831543 74.07916259765625" stroke-width="2.0" fill="none" stroke="rgb(0, 0, 0)" stroke-opacity="1" stroke-linecap="round" stroke-linejoin="round"/>
    <path d="M 176.9555206298828 16.606679916381836 C 221.84027099609375 21.466785430908203 174.4106903076172 13.213668823242188 175.6898651123047 9.222417831420898" stroke-width="2.0" fill="none" stroke="rgb(0, 0, 0)" stroke-opacity="1" stroke-linecap="round" stroke-linejoin="round"/>
    <path d="M 187.259033203125 -3.6887049674987793 C 171.51980590820312 -3.8959288597106934 178.06076049804688 -10.44675350189209 189.00527954101562 -2.810098648071289 C 204.66162109375 -11.39438247680664 210.2956085205078 -0.2862025201320648 209.803466796875 -5.662050247192383 C 206.19961547851562 -5.570621967315674 217.30059814453125 -6.262556076049805 225.63304138183594 -13.140936851501465" stroke-width="2.0" fill="none" stroke="rgb(0, 0, 0)" stroke-opacity="1" stroke-linecap="round" stroke-linejoin="round"/>
    <path d="M 100.70536041259766 37.879676818847656 C 108.97544860839844 45.48471450805664 93.00907897949219 45.02346420288086 98.52141571044922 45.0640983581543" stroke-width="2.0" fill="none" stroke="rgb(0, 0, 0)" stroke-opacity="1" stroke-linecap="round" stroke-linejoin="round"/>
    <path d="M 138.28823852539062 81.03824615478516 C 141.17100524902344 102.51668548583984 149.64874267578125 138.9037322998047 138.91819763183594 99.84334564208984" stroke-width="2.0" fill="none" stroke="rgb(0, 0, 0)" stroke-opacity="1" stroke-linecap="round" stroke-linejoin="round"/>
    <path d="M 140.72874450683594 98.26268768310547 C 141.97531127929688 120.36254119873047 120.972900390625 118.64775085449219 147.99774169921875 108.10021209716797 C 128.46060180664062 101.89392852783203 149.42625427246094 135.49351501464844 137.10931396484375 95.59309387207031 C 153.02723693847656 113.58304595947266 160.447021484375 97.13411712646484 150.51576232910156 85.25320434570312" stroke-width="2.0" fill="none" stroke="rgb(0, 0, 0)" stroke-opacity="1" stroke-linecap="round" stroke-linejoin="round"/>
    <path d="M 131.4307098388672 64.25829315185547 C 144.019775390625 53.57944107055664 95.98780059814453 19.612707138061523 121.86051177978516 54.953948974609375" stroke-width="2.0" fill="none" stroke="rgb(0, 0, 0)" stroke-opacity="1" stroke-linecap="round" stroke-linejoin="round"/>
    <path d="M 146.57298278808594 44.26443862915039 C 168.19528198242188 66.46631622314453 172.1671905517578 50.09526824951172 163.23980712890625 38.9351806640625 C 177.8606719970703 29.268043518066406 170.13629150390625 29.544504165649414 156.71124267578125 19.464597702026367 C 152.05458068847656 23.515398025512695 126.78071594238281 18.40956687927246 149.93621826171875 30.78304672241211" stroke-width="2.0" fill="none" stroke="rgb(0, 0, 0)" stroke-opacity="1" stroke-linecap="round" stroke-linejoin="round"/>
    <path d="M 40.55356216430664 56.751609802246094 C 61.49851608276367 40.182621002197266 19.436481475830078 57.959190368652344 42.3021240234375 29.97266387939453 C 30.458723068237305 17.08864974975586 22.91910171508789 30.00298309326172 14.67913818359375 56.24674987792969 C -8.546379089355469 104.6113510131836 12.137469291687012 28.014097213745117 -0.6587411165237427 64.26051330566406" stroke-width="2.0" fill="none" stroke="rgb(0, 0, 0)" stroke-opacity="1" stroke-linecap="round" stroke-linejoin="round"/>
    <path d="M 43.54618453979492 211.29583740234375 C 24.147409439086914 224.85855102539062 61.452396392822266 208.63414001464844 64.76875305175781 214.518310546875 C 47.64400863647461 213.11346435546875 45.174705505371094 216.68113708496094 75.13590240478516 221.61648559570312" stroke-width="2.0" fill="none" stroke="rgb(0, 0, 0)" stroke-opacity="1" stroke-linecap="round" stroke-linejoin="round"/>
    <path d="M 73.3577651977539 123.31838989257812 C 36.32229232788086 124.00543212890625 48.58503341674805 127.58134460449219 58.366939544677734 110.03398132324219 C 49.28407287597656 130.77574157714844 60.312782287597656 122.52554321289062 73.9861831665039 124.77242279052734" stroke-width="2.0" fill="none" stroke="rgb(0, 0, 0)" stroke-opacity="1" stroke-linecap="round" stroke-linejoin="round"/>
    <path d="M 179.93478393554688 163.24415588378906 C 172.14093017578125 111.70919036865234 175.0983123779297 98.0580062866211 186.298583984375 115.19264221191406 C 188.11912536621094 141.38507080078125 170.01776123046875 148.50588989257812 153.58750915527344 179.1351776123047" stroke-width="2.0" fill="none" stroke="rgb(0, 0, 0)" stroke-opacity="1" stroke-linecap="round" stroke-linejoin="round"/>
    <path d="M 27.8057804107666 191.44105529785156 C 48.8382453918457 205.38104248046875 32.493446350097656 173.81988525390625 29.048744201660156 184.3078155517578 C 30.07868194580078 198.28787231445312 25.47992515563965 180.9420623779297 46.604530334472656 194.81845092773438" stroke-width="2.0" fill="none" stroke="rgb(0, 0, 0)" stroke-opacity="1" stroke-linecap="round" stroke-linejoin="round"/>
    <path d="M 56.958099365234375 210.8396759033203 C 65.75604248046875 222.73095703125 24.859437942504883 219.1964111328125 46.95858383178711 210.50750732421875 C 60.5317497253418 221.95388793945312 58.51100158691406 198.0797882080078 59.36975860595703 214.11033630371094 C 9.494119644165039 209.16055297851562 25.029991149902344 226.07852172851562 66.26443481445312 227.46685791015625" stroke-width="2.0" fill="none" stroke="rgb(0, 0, 0)" stroke-opacity="1" stroke-linecap="round" stroke-linejoin="round"/>
    <path d="M 13.249375343322754 84.27666473388672 C 56.080970764160156 66.06489562988281 24.886974334716797 107.1071548461914 13.502721786499023 84.60435485839844" stroke-width="2.0" fill="none" stroke="rgb(0, 0, 0)" stroke-opacity="1" stroke-linecap="round" stroke-linejoin="round"/>
    <path d="M 124.88160705566406 79.50536346435547 C 143.40635681152344 89.92819213867188 162.57081604003906 95.24845123291016 146.0125732421875 60.3937873840332 C 139.70811462402344 61.65955352783203 164.8494415283203 76.9002456665039 155.04307556152344 50.376441955566406" stroke-width="2.0" fill="none" stroke="rgb(0, 0, 0)" stroke-opacity="1" stroke-linecap="round" stroke-linejoin="round"/>
    <path d="M 50.718589782714844 138.3978729248047 C 35.1490364074707 98.2837142944336 40.713233947753906 127.65879821777344 40.10649108886719 120.94803619384766 C 87.05522918701172 119.81482696533203 76.86956787109375 131.35305786132812 72.81378173828125 101.0251235961914" stroke-width="2.0" fill="none" stroke="rgb(0, 0, 0)" stroke-opacity="1" stroke-linecap="round" stroke-linejoin="round"/>
    <path d="M 24.27244758605957 204.86001586914062 C 22.098779678344727 151.30477905273438 41.36087417602539 174.60525512695312 10.871084213256836 166.04698181152344" stroke-width="2.0" fill="none" stroke="rgb(0, 0, 0)" stroke-opacity="1" stroke-linecap="round" stroke-linejoin="round"/>
    <path d="M 130.38662719726562 185.21998596191406 C 130.8459930419922 138.4101104736328 125.74633026123047 149.9223175048828 138.55673217773438 194.84609985351562 C 82.42278289794922 187.70040893554688 113.46995544433594 188.98326110839844 107.76504516601562 171.61886596679688 C 126.71089172363281 164.76885986328125 115.41096496582031 188.36830139160156 114.3226318359375 178.8423309326172" stroke-width="2.0" fill="none" stroke="rgb(0, 0, 0)" stroke-opacity="1" stroke-linecap="round" stroke-linejoin="round"/>
    <path d="M 108.17457580566406 150.02835083007812 C 114.4154281616211 155.22544860839844 125.47830963134766 148.74656677246094 97.92465209960938 143.01126098632812 C 111.66380310058594 156.0578155517578 131.73736572265625 147.40757751464844 98.25953674316406 141.42640686035156" stroke-width="2.0" fill="none" stroke="rgb(0, 0, 0)" stroke-opacity="1" stroke-linecap="round" stroke-linejoin="round"/>
    <path d="M 141.0404815673828 217.40701293945312 C 79.29578399658203 194.25350952148438 73.2901611328125 206.28103637695312 118.28216552734375 206.56521606445312" stroke-width="2.0" fill="none" stroke="rgb(0, 0, 0)" stroke-opacity="1" stroke-linecap="round" stroke-linejoin="round"/>
    <path d="M 158.965576171875 191.71351623535156 C 144.08120727539062 187.07711791992188 168.8082275390625 155.28726196289062 133.06997680664062 162.67404174804688" stroke-width="2.0" fill="none" stroke="rgb(0, 0, 0)" stroke-opacity="1" stroke-linecap="round" stroke-linejoin="round"/>
    <path d="M 176.44906616210938 226.32464599609375 C 152.69703674316406 227.09303283691406 154.374755859375 229.4276123046875 188.1417694091797 233.17953491210938 C 184.3621368408203 218.79832458496094 178.28472900390625 231.76828002929688 137.18182373046875 215.2639617919922 C 193.57704162597656 204.40264892578125 166.012939453125 233.32736206054688 147.24029541015625 195.5150604248047" stroke-width="2.0" fill="none" stroke="rgb(0, 0, 0)" stroke-opacity="1" stroke-linecap="round" stroke-linejoin="round"/>
    <path d="M 177.81333923339844 144.8753662109375 C 173.9951629638672 105.14816284179688 185.99375915527344 141.51754760742188 169.8612060546875 148.8762664794922 C 174.0624237060547 193.30477905273438 160.59039306640625 163.90220642089844 169.912353515625 119.3162612915039 C 164.18368530273438 125.69041442871094 146.1822509765625 144.736083984375 124.53520965576172 114.38685607910156" stroke-width="2.0" fill="none" stroke="rgb(0, 0, 0)" stroke-opacity="1" stroke-linecap="round" stroke-linejoin="round"/>
    <path d="M 32.78491973876953 212.30587768554688 C 42.22637176513672 218.5038604736328 53.334808349609375 217.1763458251953 85.45038604736328 208.7612762451172 C 52.077449798583984 227.68026733398438 39.65635681152344 192.47215270996094 39.79088592529297 207.09117126464844" stroke-width="2.0" fill="none" stroke="rgb(0, 0, 0)" stroke-opacity="1" stroke-linecap="round" stroke-linejoin="round"/>
    <path d="M 115.33892059326172 67.88687133789062 C 99.19255828857422 141.8206329345703 114.32716369628906 122.4498062133789 122.11125946044922 71.23641967773438" stroke-width="2.0" fill="none" stroke="rgb(0, 0, 0)" stroke-opacity="1" stroke-linecap="round" stroke-linejoin="round"/>
    <path d="M 26.246858596801758 36.60463333129883 C 62.74535369873047 27.44526481628418 40.66762161254883 66.28072357177734 35.244503021240234 47.01691818237305" stroke-width="2.0" fill="none" stroke="rgb(0, 0, 0)" stroke-opacity="1" stroke-linecap="round" stroke-linejoin="round"/>
    <path d="M 16.625959396362305 51.217369079589844 C 58.04233169555664 57.44667053222656 24.934722900390625 99.84471893310547 47.622528076171875 139.62661743164062" stroke-width="2.0" fill="none" stroke="rgb(0, 0, 0)" stroke-opacity="1" stroke-linecap="round" stroke-linejoin="round"/>
    <path d="M 75.77709197998047 41.6252326965332 C 87.06143951416016 53.43463897705078 70.19189453125 80.13199615478516 64.86708068847656 47.54576873779297 C 67.94145965576172 63.322269439697266 70.45906066894531 77.5500259399414 65.93999481201172 53.14901351928711" stroke-width="2.0" fill="none" stroke="rgb(0, 0, 0)" stroke-opacity="1" stroke-linecap="round" stroke-linejoin="round"/>
    <path d="M 163.7962646484375 233.3246612548828 C 82.23990631103516 223.32025146484375 96.81048583984375 224.22515869140625 142.0275115966797 234.85165405273438" stroke-width="2.0" fill="none" stroke="rgb(0, 0, 0)" stroke-opacity="1" stroke-linecap="round" stroke-linejoin="round"/>
    <path d="M 204.9850311279297 35.03003692626953 C 225.50946044921875 2.8059017658233643 216.87728881835938 26.903663635253906 192.6127166748047 32.63847351074219 C 199.64085388183594 45.62114715576172 186.36473083496094 23.583179473876953 190.023193359375 16.964754104614258" stroke-width="2.0" fill="none" stroke="rgb(0, 0, 0)" stroke-opacity="1" stroke-linecap="round" stroke-linejoin="round"/>
    <path d="M 175.52784729003906 126.4060287475586 C 185.5894317626953 135.78819274902344 205.32192993164062 128.81544494628906 202.25686645507812 148.26651000976562 C 222.2704315185547 154.55860900878906 186.372802734375 163.10313415527344 186.3614044189453 129.8672332763672 C 207.32481384277344 138.01695251464844 209.40684509277344 116.33279418945312 190.31256103515625 137.2037811279297" stroke-width="2.0" fill="none" stroke="rgb(0, 0, 0)" stroke-opacity="1" stroke-linecap="round" stroke-linejoin="round"/>
    <path d="M 23.112329483032227 25.721059799194336 C 4.281719207763672 71.03170013427734 1.6286723613739014 85.32780456542969 12.763548851013184 93.88530731201172 C 19.573280334472656 56.709693908691406 29.012380599975586 73.0877914428711 26.60220718383789 94.25496673583984" stroke-width="2.0" fill="none" stroke="rgb(0, 0, 0)" stroke-opacity="1" stroke-linecap="round" stroke-linejoin="round"/>
    <path d="M 116.92325592041016 125.07266998291016 C 134.89085388183594 143.76876831054688 109.10945129394531 110.66893768310547 128.97988891601562 115.50504302978516 C 119.66619110107422 147.06790161132812 152.55543518066406 139.6204376220703 135.23922729492188 122.08411407470703 C 174.3057098388672 136.06845092773438 129.26979064941406 136.29397583007812 144.22549438476562 124.5852279663086" stroke-width="2.0" fill="none" stroke="rgb(0, 0, 0)" stroke-opacity="1" stroke-linecap="round" stroke-linejoin="round"/>
    <path d="M 22.18158531188965 205.40362548828125 C 13.067015647888184 202.5772247314453 18.275341033935547 170.52967834472656 40.68161392211914 152.37599182128906 C 39.459285736083984 194.2000732421875 35.68716049194336 176.4173583984375 45.46104049682617 172.02442932128906 C 24.96935272216797 194.19837951660156 25.625762939453125 191.938232421875 39.81794738769531 149.58462524414062" stroke-width="2.0" fill="none" stroke="rgb(0, 0, 0)" stroke-opacity="1" stroke-linecap="round" stroke-linejoin="round"/>
    <path d="M 167.9527587890625 108.7574691772461 C 184.62939453125 130.61550903320312 169.90277099609375 132.32049560546875 171.37249755859375 162.60789489746094" stroke-width="2.0" fill="none" stroke="rgb(0, 0, 0)" stroke-opacity="1" stroke-linecap="round" stroke-linejoin="round"/>
    <path d="M 183.9453887939453 146.22999572753906 C 184.06832885742188 170.18858337402344 210.6268310546875 149.56150817871094 184.16488647460938 153.317138671875 C 207.90380859375 140.93841552734375 215.01089477539062 161.623779296875 220.04473876953125 126.23924255371094 C 229.10104370117188 115.10736083984375 215.1204376220703 141.111572265625 200.74974060058594 122.62332916259766" stroke-width="2.0" fill="none" stroke="rgb(0, 0, 0)" stroke-opacity="1" stroke-linecap="round" stroke-linejoin="round"/>
    <path d="M 28.28921127319336 -15.63046646118164 C 14.40944766998291 7.75344181060791 14.527308464050293 17.553579330444336 64.23262023925781 25.22321891784668" stroke-width="2.0" fill="none" stroke="rgb(0, 0, 0)" stroke-opacity="1" stroke-linecap="round" stroke-linejoin="round"/>
    <path d="M 84.00650024414062 96.54998779296875 C 91.89366149902344 124.76625061035156 96.26306915283203 123.53907775878906 57.029720306396484 127.22578430175781" stroke-width="2.0" fill="none" stroke="rgb(0, 0, 0)" stroke-opacity="1" stroke-linecap="round" stroke-linejoin="round"/>
    <path d="M 15.607115745544434 183.3128662109375 C 11.997615814208984 191.57554626464844 11.463011741638184 165.43777465820312 31.83240509033203 197.1353302001953 C -3.108036756515503 191.3490447998047 -17.68290138244629 197.84283447265625 -3.4245963096618652 177.4444122314453" stroke-width="2.0" fill="none" stroke="rgb(0, 0, 0)" stroke-opacity="1" stroke-linecap="round" stroke-linejoin="round"/>
    <path d="M 137.5160675048828 208.5325927734375 C 126.54072570800781 201.27381896972656 124.95095825195312 221.26101684570312 201.14866638183594 221.82118225097656 C 132.80271911621094 231.5144500732422 125.73892211914062 227.67330932617188 144.5457305908203 231.02517700195312" stroke-width="2.0" fill="none" stroke="rgb(0, 0, 0)" stroke-opacity="1" stroke-linecap="round" stroke-linejoin="round"/>
    <path d="M 129.21788024902344 178.0138702392578 C 158.08177185058594 186.6864471435547 140.46694946289062 165.7584991455078 148.34432983398438 144.91671752929688 C 152.2834930419922 195.61978149414062 156.10935974121094 194.54698181152344 186.50218200683594 186.15414428710938 C 138.27102661132812 204.47512817382812 158.1610565185547 193.7591552734375 155.47634887695312 140.3437957763672" stroke-width="2.0" fill="none" stroke="rgb(0, 0, 0)" stroke-opacity="1" stroke-linecap="round" stroke-linejoin="round"/>
    <path d="M 148.70257568359375 130.5249786376953 C 165.6439666748047 102.65035247802734 168.32579040527344 98.83756256103516 134.58729553222656 115.6727523803711 C 142.51182556152344 119.21173095703125 125.07718658447266 141.4185791015625 120.93819427490234 105.7824935913086" stroke-width="2.0" fill="none" stroke="rgb(0, 0, 0)" stroke-opacity="1" stroke-linecap="round" stroke-linejoin="round"/>
    <path d="M 91.3082275390625 106.54793548583984 C 41.65990447998047 86.10746002197266 75.42814636230469 79.47007751464844 60.83135986328125 120.39559936523438" stroke-width="2.0" fill="none" stroke="rgb(0, 0, 0)" stroke-opacity="1" stroke-linecap="round" stroke-linejoin="round"/>
    <path d="M 178.8030242919922 89.70083618164062 C 187.1589813232422 77.57621765136719 151.175048828125 108.59246063232422 151.52346801757812 74.61152648925781 C 153.05697631835938 91.41029357910156 144.50523376464844 92.30218505859375 137.6369171142578 78.3495101928711" stroke-width="2.0" fill="none" stroke="rgb(0, 0, 0)" stroke-opacity="1" stroke-linecap="round" stroke-linejoin="round"/>
    <path d="M 95.92405700683594 124.82649993896484 C 96.69982147216797 152.98179626464844 85.51712036132812 160.99700927734375 126.78014373779297 167.6254119873047 C 86.001708984375 171.02130126953125 90.48324584960938 154.72193908691406 100.91712951660156 120.31873321533203 C 85.84296417236328 130.1220703125 115.1075439453125 163.20401000976562 53.141441345214844 137.6411895751953" stroke-width="2.0" fill="none" stroke="rgb(0, 0, 0)" stroke-opacity="1" stroke-linecap="round" stroke-linejoin="round"/>
    <path d="M 53.6577262878418 19.66224479675293 C 75.85138702392578 31.928783416748047 90.06908416748047 35.58988952636719 87.24674987792969 45.01998519897461 C 89.01856231689453 44.413246154785156 78.29682922363281 30.169668197631836 97.39761352539062 28.68775177001953" stroke-width="2.0" fill="none" stroke="rgb(0, 0, 0)" stroke-opacity="1" stroke-linecap="round" stroke-linejoin="round"/>
    <path d="M 55.682640075683594 192.7138671875 C 37.97203826904297 175.0316162109375 22.37166404724121 168.4848175048828 44.05881881713867 151.77040100097656 C 50.87993240356445 194.35775756835938 44.815452575683594 154.3538360595703 46.26736068725586 179.6352996826172 C 19.908016204833984 160.8046417236328 20.724781036376953 194.38742065429688 19.657257080078125 158.080078125" stroke-width="2.0" fill="none" stroke="rgb(0, 0, 0)" stroke-opacity="1" stroke-linecap="round" stroke-linejoin="round"/>
    <path d="M -6.736098289489746 31.03040313720703 C 7.289560317993164 19.84133529663086 2.637498140335083 2.0764644145965576 -17.116212844848633 -0.1590382605791092" stroke-width="2.0" fill="none" stroke="rgb(0, 0, 0)" stroke-opacity="1" stroke-linecap="round" stroke-linejoin="round"/>
    <path d="M 30.989397048950195 115.26277160644531 C 28.779945373535156 94.44756317138672 -0.11980311572551727 107.9900894165039 40.06367111206055 106.00747680664062 C 36.312957763671875 142.93240356445312 26.94196319580078 130.72479248046875 24.882680892944336 106.55366516113281 C 57.95885467529297 114.00606536865234 34.53997802734375 93.40458679199219 33.00577926635742 115.28666687011719" stroke-width="2.0" fill="none" stroke="rgb(0, 0, 0)" stroke-opacity="1" stroke-linecap="round" stroke-linejoin="round"/>
    <path d="M 101.43318939208984 125.47975158691406 C 94.70767211914062 141.7861785888672 125.59696960449219 107.8608627319336 120.00240325927734 96.95540618896484 C 93.01388549804688 133.26904296875 98.51237487792969 129.3052520751953 137.39793395996094 115.95976257324219 C 145.00912475585938 113.3377685546875 137.8927764892578 125.23233032226562 97.54959106445312 131.08181762695312" stroke-width="2.0" fill="none" stroke="rgb(0, 0, 0)" stroke-opacity="1" stroke-linecap="round" stroke-linejoin="round"/>
    <path d="M 167.18600463867188 98.55400085449219 C 185.12535095214844 70.44830322265625 171.10813903808594 73.0079574584961 170.01637268066406 66.18953704833984 C 177.59750366210938 66.38677215576172 169.81793212890625 70.67794036865234 175.50790405273438 88.40494537353516 C 174.9972381591797 74.14905548095703 176.26869201660156 75.32255554199219 165.22137451171875 59.12175369262695" stroke-width="2.0" fill="none" stroke="rgb(0, 0, 0)" stroke-opacity="1" stroke-linecap="round" stroke-linejoin="round"/>
    <path d="M 59.601043701171875 76.47631072998047 C 23.910629272460938 61.05670166015625 57.80174255371094 56.23298263549805 70.04556274414062 63.71328353881836 C 82.01923370361328 71.69756317138672 82.55227661132812 86.82674407958984 54.9388542175293 74.10477447509766 C 65.26256561279297 103.12108612060547 71.02037811279297 100.90245819091797 51.87232208251953 126.41199493408203" stroke-width="2.0" fill="none" stroke="rgb(0, 0, 0)" stroke-opacity="1" stroke-linecap="round" stroke-linejoin="round"/>
    <path d="M 162.92327880859375 132.17967224121094 C 177.33595275878906 127.87411499023438 186.16854858398438 116.55066680908203 157.32351684570312 162.24185180664062" stroke-width="2.0" fill="none" stroke="rgb(0, 0, 0)" stroke-opacity="1" stroke-linecap="round" stroke-linejoin="round"/>
    <path d="M 205.6167755126953 43.78484344482422 C 191.82054138183594 53.753658294677734 208.89044189453125 70.78709411621094 228.13490295410156 83.93965911865234 C 203.4020233154297 35.54743576049805 192.31942749023438 29.183012008666992 193.40431213378906 66.43315124511719" stroke-width="2.0" fill="none" stroke="rgb(0, 0, 0)" stroke-opacity="1" stroke-linecap="round" stroke-linejoin="round"/>
    <path d="M 58.19951629638672 135.19154357910156 C 35.99801254272461 120.89356994628906 55.7512092590332 112.355712890625 46.57139587402344 134.2261962890625 C 54.501251220703125 129.6647491455078 40.88947677612305 153.33999633789062 53.069889068603516 139.12179565429688 C 67.61927032470703 146.28001403808594 55.66895294189453 171.5983123779297 39.52206039428711 150.9342803955078" stroke-width="2.0" fill="none" stroke="rgb(0, 0, 0)" stroke-opacity="1" stroke-linecap="round" stroke-linejoin="round"/>
    <path d="M 195.36705017089844 210.50811767578125 C 201.00704956054688 189.03564453125 197.22775268554688 224.65179443359375 153.8174285888672 207.99942016601562 C 197.31700134277344 209.41114807128906 156.44454956054688 223.70599365234375 174.6704559326172 201.8209228515625" stroke-width="2.0" fill="none" stroke="rgb(0, 0, 0)" stroke-opacity="1" stroke-linecap="round" stroke-linejoin="round"/>
    <path d="M 36.625732421875 111.54366302490234 C 34.94520950317383 200.05772399902344 42.804168701171875 202.30152893066406 18.640213012695312 200.03317260742188 C 40.56196212768555 148.55685424804688 52.50078201293945 142.7919921875 27.122920989990234 174.55148315429688 C 34.54198455810547 216.81494140625 16.437429428100586 232.5148468017578 24.160797119140625 173.88673400878906" stroke-width="2.0" fill="none" stroke="rgb(0, 0, 0)" stroke-opacity="1" stroke-linecap="round" stroke-linejoin="round"/>
    <path d="M 70.55911254882812 223.4234619140625 C 41.081031799316406 209.98329162597656 63.35064697265625 205.105712890625 55.06850051879883 218.0982666015625 C 20.1553955078125 215.20758056640625 19.839323043823242 204.2990264892578 46.0390510559082 225.61099243164062 C 27.13741111755371 217.87339782714844 18.17836570739746 215.56207275390625 29.50697898864746 183.55374145507812" stroke-width="2.0" fill="none" stroke="rgb(0, 0, 0)" stroke-opacity="1" stroke-linecap="round" stroke-linejoin="round"/>
    <path d="M 61.444759368896484 153.83140563964844 C 51.27959442138672 172.54461669921875 70.4406509399414 175.34405517578125 58.765296936035156 164.27272033691406" stroke-width="2.0" fill="none" stroke="rgb(0, 0, 0)" stroke-opacity="1" stroke-linecap="round" stroke-linejoin="round"/>
    <path d="M 186.4293212890625 28.91835594177246 C 180.5460968017578 36.38724136352539 189.59469604492188 34.45245361328125 227.52865600585938 9.169868469238281" stroke-width="2.0" fill="none" stroke="rgb(0, 0, 0)" stroke-opacity="1" stroke-linecap="round" stroke-linejoin="round"/>
    <path d="M 155.76345825195312 221.6361541748047 C 197.14129638671875 224.66659545898438 219.44175720214844 211.99679565429688 225.62364196777344 186.440185546875 C 211.86221313476562 172.75921630859375 218.3866729736328 168.99655151367188 206.86216735839844 172.2665557861328 C 201.076416015625 185.50894165039062 204.35984802246094 201.35452270507812 216.0374298095703 200.6284942626953" stroke-width="2.0" fill="none" stroke="rgb(0, 0, 0)" stroke-opacity="1" stroke-linecap="round" stroke-linejoin="round"/>
    <path d="M 189.39852905273438 63.10373306274414 C 177.09246826171875 73.68192291259766 208.97886657714844 84.62882232666016 217.2765350341797 64.86685180664062" stroke-width="2.0" fill="none" stroke="rgb(0, 0, 0)" stroke-opacity="1" stroke-linecap="round" stroke-linejoin="round"/>
    <path d="M 34.996063232421875 22.47458839416504 C 5.654048442840576 22.82792854309082 59.701900482177734 18.426305770874023 49.72816848754883 34.351627349853516 C 55.45285415649414 20.30370330810547 54.42398452758789 42.18488693237305 40.821067810058594 30.792367935180664" stroke-width="2.0" fill="none" stroke="rgb(0, 0, 0)" stroke-opacity="1" stroke-linecap="round" stroke-linejoin="round"/>
    <path d="M 28.277685165405273 106.23664093017578 C 24.744277954101562 135.64114379882812 3.243269920349121 135.014892578125 50.43848419189453 122.94659423828125 C -5.942493438720703 127.80159759521484 -28.524728775024414 136.63035583496094 9.251130104064941 123.54581451416016 C -3.415518283843994 133.7847137451172 32.380653381347656 126.60971069335938 4.503294944763184 130.71981811523438" stroke-width="2.0" fill="none" stroke="rgb(0, 0, 0)" stroke-opacity="1" stroke-linecap="round" stroke-linejoin="round"/>
    <path d="M 175.32325744628906 123.2988510131836 C 193.85887145996094 112.66194152832031 158.46800231933594 147.22308349609375 170.1583709716797 112.3948974609375" stroke-width="2.0" fill="none" stroke="rgb(0, 0, 0)" stroke-opacity="1" stroke-linecap="round" stroke-linejoin="round"/>
    <path d="M 227.16810607910156 39.37508010864258 C 231.85513305664062 54.5740966796875 206.84078979492188 53.69821548461914 212.34490966796875 27.644359588623047" stroke-width="2.0" fill="none" stroke="rgb(0, 0, 0)" stroke-opacity="1" stroke-linecap="round" stroke-linejoin="round"/>
    <path d="M 27.231098175048828 192.42674255371094 C 20.265491485595703 160.0731658935547 18.653057098388672 178.1669464111328 21.650157928466797 209.19004821777344 C 45.41441345214844 188.39773559570312 27.329608917236328 171.0777130126953 44.64597702026367 200.8044891357422" stroke-width="2.0" fill="none" stroke="rgb(0, 0, 0)" stroke-opacity="1" stroke-linecap="round" stroke-linejoin="round"/>
    <path d="M 48.85476303100586 128.94436645507812 C -2.70479679107666 137.98599243164062 14.439298629760742 130.6431121826172 52.674346923828125 118.39735412597656 C 37.30560302734375 151.82034301757812 44.487281799316406 173.8886260986328 39.016510009765625 161.39730834960938" stroke-width="2.0" fill="none" stroke="rgb(0, 0, 0)" stroke-opacity="1" stroke-linecap="round" stroke-linejoin="round"/>
    <path d="M 57.40155792236328 31.273653030395508 C 92.3030014038086 60.31661605834961 64.33930969238281 48.01191711425781 63.9991455078125 55.0929069519043 C 70.75201416015625 37.63100814819336 42.49811553955078 46.53057861328125 57.22361755371094 51.2789421081543" stroke-width="2.0" fill="none" stroke="rgb(0, 0, 0)" stroke-opacity="1" stroke-linecap="round" stroke-linejoin="round"/>
    <path d="M 113.84207153320312 126.89152526855469 C 118.11165618896484 62.01884460449219 120.46025848388672 117.34961700439453 119.98133087158203 92.53941345214844 C 97.88721466064453 120.85758972167969 83.67890167236328 141.5315704345703 119.17076110839844 143.9770965576172" stroke-width="2.0" fill="none" stroke="rgb(0, 0, 0)" stroke-opacity="1" stroke-linecap="round" stroke-linejoin="round"/>
    <path d="M 98.80496978759766 7.080714225769043 C 132.16859436035156 9.541707992553711 142.5927734375 1.3579288721084595 147.10389709472656 -3.2972354888916016 C 110.87722778320312 6.513758182525635 101.33174133300781 -4.743317604064941 101.0898208618164 4.411015510559082 C 126.84747314453125 20.593915939331055 151.78952026367188 15.954146385192871 113.82685089111328 11.995326042175293" stroke-width="2.0" fill="none" stroke="rgb(0, 0, 0)" stroke-opacity="1" stroke-linecap="round" stroke-linejoin="round"/>
    <path d="M 119.583984375 29.880643844604492 C 88.94465637207031 13.7389554977417 78.4261474609375 29.783443450927734 99.9406967163086 23.66461944580078" stroke-width="2.0" fill="none" stroke="rgb(0, 0, 0)" stroke-opacity="1" stroke-linecap="round" stroke-linejoin="round"/>
    <path d="M 159.95130920410156 129.9817352294922 C 179.164306640625 93.40039825439453 194.14715576171875 129.11708068847656 162.1151885986328 158.822509765625 C 173.19273376464844 122.68162536621094 173.97305297851562 112.67193603515625 140.82339477539062 129.58413696289062 C 143.87255859375 134.01974487304688 148.91372680664062 151.4055938720703 125.44580841064453 145.46786499023438" stroke-width="2.0" fill="none" stroke="rgb(0, 0, 0)" stroke-opacity="1" stroke-linecap="round" stroke-linejoin="round"/>
    <path d="M 128.88735961914062 88.2458724975586 C 144.49227905273438 74.74885559082031 133.70672607421875 68.51252746582031 128.09048461914062 62.343544006347656 C 154.03118896484375 61.92797088623047 150.6692352294922 53.15886688232422 126.3582534790039 26.95608901977539 C 146.83067321777344 29.258541107177734 134.4963836669922 15.60405158996582 156.79356384277344 22.153959274291992" stroke-width="2.0" fill="none" stroke="rgb(0, 0, 0)" stroke-opacity="1" stroke-linecap="round" stroke-linejoin="round"/>
    <path d="M 174.4414825439453 82.63265991210938 C 178.38140869140625 116.6929931640625 163.8076934814453 107.82503509521484 153.10470581054688 107.73458099365234 C 174.15480041503906 150.09559631347656 154.87989807128906 135.20680236816406 149.44461059570312 146.50393676757812 C 165.8402099609375 103.28868865966797 152.45553588867188 115.83444213867188 120.62024688720703 89.71490478515625" stroke-width="2.0" fill="none" stroke="rgb(0, 0, 0)" stroke-opacity="1" stroke-linecap="round" stroke-linejoin="round"/>
    <path d="M 76.94725799560547 75.99893188476562 C 85.29027557373047 72.33391571044922 91.61334991455078 82.37224578857422 90.25109100341797 84.6391372680664 C 90.3892822265625 100.82205963134766 67.60787200927734 96.92872619628906 72.52416229248047 101.5022964477539 C 85.76109313964844 93.97866821289062 110.53910827636719 112.04611206054688 101.3013687133789 81.3849105834961" stroke-width="2.0" fill="none" stroke="rgb(0, 0, 0)" stroke-opacity="1" stroke-linecap="round" stroke-linejoin="round"/>
    <path d="M 11.141866683959961 173.88096618652344 C -1.48993980884552 173.5747528076172 46.479774475097656 162.24842834472656 -6.5801920890808105 165.65005493164062 C -8.394925117492676 152.43646240234375 -0.5824004411697388 171.2842559814453 45.98784255981445 174.98886108398438 C 50.1179084777832 144.07431030273438 27.841867446899414 166.28207397460938 -2.0147039890289307 166.6847686767578" stroke-width="2.0" fill="none" stroke="rgb(0, 0, 0)" stroke-opacity="1" stroke-linecap="round" stroke-linejoin="round"/>
    <path d="M 21.90591812133789 45.73076629638672 C 26.223285675048828 61.886940002441406 47.830318450927734 39.50163269042969 23.070934295654297 29.278547286987305 C 11.542247772216797 40.62603759765625 -1.2744792699813843 47.16618347167969 16.006559371948242 38.965049743652344 C -0.4121188521385193 59.74473190307617 13.669013023376465 35.93212890625 32.539695739746094 30.316028594970703" stroke-width="2.0" fill="none" stroke="rgb(0, 0, 0)" stroke-opacity="1" stroke-linecap="round" stroke-linejoin="round"/>
    <path d="M 119.98900604248047 21.15218734741211 C 132.92076110839844 22.879716873168945 137.5155029296875 -10.646770477294922 150.8013916015625 -1.7557284832000732 C 141.78646850585938 9.071361541748047 126.87211608886719 7.3402791023254395 156.23681640625 -2.9799981117248535" stroke-width="2.0" fill="none" stroke="rgb(0, 0, 0)" stroke-opacity="1" stroke-linecap="round" stroke-linejoin="round"/>
    <path d="M 174.70399475097656 119.45345306396484 C 131.4520263671875 134.299560546875 132.62228393554688 117.62552642822266 134.67233276367188 114.23667907714844 C 114.42374420166016 119.13851928710938 110.2666015625 75.30352020263672 130.62405395507812 105.81375885009766" stroke-width="2.0" fill="none" stroke="rgb(0, 0, 0)" stroke-opacity="1" stroke-linecap="round" stroke-linejoin="round"/>
    <path d="M 151.85096740722656 175.68626403808594 C 132.25843811035156 194.35691833496094 130.78286743164062 140.019775390625 145.98062133789062 152.39205932617188" stroke-width="2.0" fill="none" stroke="rgb(0, 0, 0)" stroke-opacity="1" stroke-linecap="round" stroke-linejoin="round"/>
    <path d="M 77.24111938476562 61.6300048828125 C 65.39835357666016 69.27841186523438 64.42215728759766 57.74421691894531 74.2784423828125 64.7780532836914 C 86.41696166992188 62.95584487915039 90.60383605957031 35.6312370300293 91.44776916503906 55.34783935546875" stroke-width="2.0" fill="none" stroke="rgb(0, 0, 0)" stroke-opacity="1" stroke-linecap="round" stroke-linejoin="round"/>
    <path d="M -6.22702693939209 213.6571044921875 C 1.3861066102981567 208.7225341796875 -21.093238830566406 208.3717498779297 -37.22085952758789 203.17742919921875 C -31.479368209838867 198.42636108398438 -21.7612361907959 201.37753295898438 -12.323406219482422 215.56504821777344 C -11.80770492553711 208.88804626464844 1.1966749429702759 199.80844116210938 -4.34030294418335 183.8391571044922" stroke-width="2.0" fill="none" stroke="rgb(0, 0, 0)" stroke-opacity="1" stroke-linecap="round" stroke-linejoin="round"/>
    <path d="M 189.84579467773438 86.1534423828125 C 175.6649169921875 95.31361389160156 214.34104919433594 84.7447738647461 219.74050903320312 113.43038940429688 C 189.56695556640625 101.62171936035156 211.9662628173828 123.03522491455078 185.40403747558594 106.70023345947266 C 192.1442108154297 115.63721466064453 196.1267547607422 138.09921264648438 181.63385009765625 101.21269989013672" stroke-width="2.0" fill="none" stroke="rgb(0, 0, 0)" stroke-opacity="1" stroke-linecap="round" stroke-linejoin="round"/>
    <path d="M 20.651945114135742 96.98717498779297 C -0.36100247502326965 85.06442260742188 15.703492164611816 69.56901550292969 14.596736907958984 75.64049530029297 C 36.34425735473633 97.42472076416016 46.06647872924805 89.87939453125 59.90211868286133 81.85057830810547 C 46.37889099121094 88.98006439208984 41.53462600708008 113.16450500488281 11.607905387878418 98.78226470947266" stroke-width="2.0" fill="none" stroke="rgb(0, 0, 0)" stroke-opacity="1" stroke-linecap="round" stroke-linejoin="round"/>
    <path d="M 9.053959846496582 206.8284454345703 C 12.454853057861328 179.96810913085938 0.7668190002441406 212.45361328125 38.52711486816406 199.36790466308594 C 25.396514892578125 165.47410583496094 62.871978759765625 167.31915283203125 40.737449645996094 194.587158203125" stroke-width="2.0" fill="none" stroke="rgb(0, 0, 0)" stroke-opacity="1" stroke-linecap="round" stroke-linejoin="round"/>
    <path d="M 115.51627349853516 67.47108459472656 C 113.99884796142578 74.34498596191406 99.91736602783203 55.231998443603516 103.80677795410156 46.866127014160156 C 115.35518646240234 65.89725494384766 119.4864273071289 27.566293716430664 105.5931167602539 38.376953125 C 119.05158996582031 48.27354049682617 103.2118148803711 42.949100494384766 100.22650146484375 43.44745635986328" stroke-width="2.0" fill="none" stroke="rgb(0, 0, 0)" stroke-opacity="1" stroke-linecap="round" stroke-linejoin="round"/>
    <path d="M 54.5421028137207 23.45919418334961 C 82.57600402832031 28.535703659057617 28.597291946411133 25.37013816833496 64.31985473632812 45.237579345703125" stroke-width="2.0" fill="none" stroke="rgb(0, 0, 0)" stroke-opacity="1" stroke-linecap="round" stroke-linejoin="round"/>
    <path d="M 151.59835815429688 27.482364654541016 C 157.0989990234375 19.146883010864258 167.19290161132812 27.898426055908203 158.8116455078125 32.7186393737793" stroke-width="2.0" fill="none" stroke="rgb(0, 0, 0)" stroke-opacity="1" stroke-linecap="round" stroke-linejoin="round"/>
    <path d="M 186.99220275878906 53.68060302734375 C 190.50393676757812 31.439579010009766 185.91407775878906 46.18596649169922 179.9009246826172 29.952238082885742 C 248.11289978027344 31.067167282104492 198.42274475097656 2.1366214752197266 148.57501220703125 7.464794635772705 C 119.83511352539062 36.40220642089844 173.17713928222656 25.43592071533203 156.60459899902344 50.78424835205078" stroke-width="2.0" fill="none" stroke="rgb(0, 0, 0)" stroke-opacity="1" stroke-linecap="round" stroke-linejoin="round"/>
    <path d="M 112.4269027709961 58.9940071105957 C 106.29756927490234 46.62179946899414 129.3813018798828 63.397342681884766 134.52879333496094 69.98101043701172 C 149.42739868164062 90.31761169433594 117.40374755859375 78.24146270751953 120.78074645996094 70.17222595214844 C 108.69207000732422 20.54295539855957 118.11962890625 104.37238311767578 96.3381118774414 88.63877868652344" stroke-width="2.0" fill="none" stroke="rgb(0, 0, 0)" stroke-opacity="1" stroke-linecap="round" stroke-linejoin="round"/>
    <path d="M 202.1252899169922 173.5948486328125 C 227.1507110595703 160.08302307128906 229.23838806152344 108.66943359375 219.2201690673828 137.76519775390625 C 190.22207641601562 133.0950164794922 213.70216369628906 148.20074462890625 187.7301483154297 156.44818115234375" stroke-width="2.0" fill="none" stroke="rgb(0, 0, 0)" stroke-opacity="1" stroke-linecap="round" stroke-linejoin="round"/>
    <path d="M 168.8408966064453 141.15371704101562 C 181.40838623046875 100.71186828613281 200.6571807861328 140.6439971923828 177.66168212890625 146.8559112548828 C 185.98678588867188 112.45606994628906 188.95860290527344 112.77019500732422 189.26553344726562 116.70816802978516 C 179.4787139892578 96.3973159790039 184.6583251953125 145.97100830078125 179.3011932373047 151.32872009277344" stroke-width="2.0" fill="none" stroke="rgb(0, 0, 0)" stroke-opacity="1" stroke-linecap="round" stroke-linejoin="round"/>
    <path d="M 12.912131309509277 40.01436996459961 C 27.03482437133789 15.59799575805664 21.5928897857666 15.733972549438477 44.87879180908203 17.663732528686523 C 18.077922821044922 30.719802856445312 41.388160705566406 9.896525382995605 10.262566566467285 -0.020377937704324722" stroke-width="2.0" fill="none" stroke="rgb(0, 0, 0)" stroke-opacity="1" stroke-linecap="round" stroke-linejoin="round"/>
    <path d="M 131.22352600097656 142.05728149414062 C 123.73995971679688 190.33106994628906 127.39540100097656 184.24253845214844 126.29560089111328 179.57240295410156 C 159.0312042236328 176.41690063476562 129.070068359375 172.2161407470703 135.81700134277344 182.1981658935547" stroke-width="2.0" fill="none" stroke="rgb(0, 0, 0)" stroke-opacity="1" stroke-linecap="round" stroke-linejoin="round"/>
    <path d="M 113.31939697265625 112.77009582519531 C 143.08782958984375 116.1414566040039 126.88943481445312 144.7152099609375 113.82638549804688 112.327880859375" stroke-width="2.0" fill="none" stroke="rgb(0, 0, 0)" stroke-opacity="1" stroke-linecap="round" stroke-linejoin="round"/>
    <path d="M -2.6349680423736572 115.37481689453125 C 19.968685150146484 163.6544952392578 -20.95995330810547 181.3280029296875 -3.4136080741882324 182.17759704589844 C 12.560392379760742 135.20352172851562 7.533604621887207 133.10731506347656 -3.7832720279693604 173.3076934814453" stroke-width="2.0" fill="none" stroke="rgb(0, 0, 0)" stroke-opacity="1" stroke-linecap="round" stroke-linejoin="round"/>
    <path d="M 206.0514373779297 121.79644775390625 C 174.95408630371094 110.61817169189453 195.99749755859375 117.93629455566406 176.8877410888672 111.5225601196289" stroke-width="2.0" fill="none" stroke="rgb(0, 0, 0)" stroke-opacity="1" stroke-linecap="round" stroke-linejoin="round"/>
    <path d="M 80.14939880371094 86.39288330078125 C 68.4967269897461 60.31690979003906 72.7650146484375 121.3056869506836 94.35203552246094 104.08497619628906" stroke-width="2.0" fill="none" stroke="rgb(0, 0, 0)" stroke-opacity="1" stroke-linecap="round" stroke-linejoin="round"/>
    <path d="M 94.76386260986328 183.13595581054688 C 78.97526550292969 213.77191162109375 103.10370635986328 185.34837341308594 83.14833068847656 198.42922973632812 C 127.88628387451172 196.47918701171875 126.39826965332031 208.99014282226562 122.45004272460938 176.84982299804688 C 156.39349365234375 183.9263916015625 124.71078491210938 189.26199340820312 112.24529266357422 150.5226287841797" stroke-width="2.0" fill="none" stroke="rgb(0, 0, 0)" stroke-opacity="1" stroke-linecap="round" stroke-linejoin="round"/>
    <path d="M 192.16000366210938 19.817819595336914 C 226.6798095703125 20.625957489013672 169.95730590820312 31.94409942626953 201.67550659179688 27.149921417236328 C 227.53085327148438 11.04372787475586 201.3492889404297 35.26529312133789 187.7216796875 33.64030838012695" stroke-width="2.0" fill="none" stroke="rgb(0, 0, 0)" stroke-opacity="1" stroke-linecap="round" stroke-linejoin="round"/>
    <path d="M 52.211917877197266 68.93346405029297 C 67.13629913330078 117.96835327148438 67.0398178100586 114.97309875488281 57.17259216308594 109.66837310791016 C 66.12528228759766 132.08465576171875 46.540828704833984 112.39387512207031 57.41073226928711 70.49666595458984 C 56.73060989379883 75.64543914794922 68.12400817871094 88.44737243652344 79.61292266845703 106.71034240722656" stroke-width="2.0" fill="none" stroke="rgb(0, 0, 0)" stroke-opacity="1" stroke-linecap="round" stroke-linejoin="round"/>
    <path d="M 193.6997833251953 167.7501678466797 C 176.43992614746094 166.5243682861328 213.435302734375 178.1935272216797 219.2456817626953 163.6396942138672 C 205.99659729003906 204.15480041503906 210.08053588867188 159.00135803222656 216.39735412597656 180.9081268310547 C 242.36241149902344 191.0334930419922 215.71815490722656 181.37440490722656 224.82269287109375 144.49371337890625" stroke-width="2.0" fill="none" stroke="rgb(0, 0, 0)" stroke-opacity="1" stroke-linecap="round" stroke-linejoin="round"/>
    <path d="M 234.251220703125 102.07540130615234 C 224.0118865966797 103.00910949707031 190.78111267089844 94.12080383300781 179.99435424804688 96.18589782714844 C 213.4572296142578 92.27071380615234 248.17349243164062 99.7954330444336 245.98681640625 93.84138488769531" stroke-width="2.0" fill="none" stroke="rgb(0, 0, 0)" stroke-opacity="1" stroke-linecap="round" stroke-linejoin="round"/>
    <path d="M 153.57374572753906 23.95425796508789 C 138.12646484375 29.472129821777344 161.09054565429688 34.093955993652344 163.34706115722656 38.54386520385742 C 158.78738403320312 32.304691314697266 190.88055419921875 57.23457717895508 170.86131286621094 26.975509643554688" stroke-width="2.0" fill="none" stroke="rgb(0, 0, 0)" stroke-opacity="1" stroke-linecap="round" stroke-linejoin="round"/>
    <path d="M 175.3253173828125 67.2464599609375 C 166.5955352783203 32.61223220825195 179.80874633789062 52.99806594848633 195.27500915527344 41.817352294921875 C 164.3110809326172 54.25338363647461 194.35623168945312 64.85627746582031 210.9697723388672 61.627342224121094 C 215.2877197265625 33.202632904052734 189.2471466064453 81.66282653808594 202.0832977294922 59.905696868896484" stroke-width="2.0" fill="none" stroke="rgb(0, 0, 0)" stroke-opacity="1" stroke-linecap="round" stroke-linejoin="round"/>
    <path d="M 32.754493713378906 205.36245727539062 C 39.754417419433594 183.58740234375 65.07837677001953 191.62538146972656 45.25263214111328 190.2657012939453 C 60.82130813598633 201.95143127441406 47.58305358886719 194.27247619628906 43.85310745239258 172.53573608398438" stroke-width="2.0" fill="none" stroke="rgb(0, 0, 0)" stroke-opacity="1" stroke-linecap="round" stroke-linejoin="round"/>
    <path d="M 180.6338348388672 153.557373046875 C 183.52392578125 177.4598388671875 207.21788024902344 179.33908081054688 186.08193969726562 144.06158447265625 C 169.2122802734375 145.77223205566406 176.16860961914062 108.9833755493164 183.04344177246094 113.16661834716797 C 159.3876190185547 140.89328002929688 174.8816680908203 140.62969970703125 207.5745391845703 151.9620361328125" stroke-width="2.0" fill="none" stroke="rgb(0, 0, 0)" stroke-opacity="1" stroke-linecap="round" stroke-linejoin="round"/>
    <path d="M 146.310791015625 92.61003112792969 C 124.1949691772461 73.57196807861328 127.9386978149414 97.67718505859375 123.80935668945312 80.07707977294922 C 132.97300720214844 90.1836166381836 146.30833435058594 83.96217346191406 133.3175048828125 64.38418579101562" stroke-width="2.0" fill="none" stroke="rgb(0, 0, 0)" stroke-opacity="1" stroke-linecap="round" stroke-linejoin="round"/>
    <path d="M 175.54481506347656 194.1887664794922 C 175.94869995117188 188.41969299316406 182.5638427734375 208.18453979492188 177.1640167236328 165.9331512451172 C 171.0986785888672 216.43153381347656 208.0748748779297 191.74424743652344 204.7480926513672 188.3153839111328 C 201.0022735595703 161.6860809326172 203.17076110839844 183.27040100097656 207.02027893066406 202.51702880859375" stroke-width="2.0" fill="none" stroke="rgb(0, 0, 0)" stroke-opacity="1" stroke-linecap="round" stroke-linejoin="round"/>
    <path d="M 214.73951721191406 190.720458984375 C 214.13514709472656 195.6053466796875 218.05015563964844 191.2050018310547 215.8397979736328 190.7100830078125" stroke-width="2.0" fill="none" stroke="rgb(0, 0, 0)" stroke-opacity="1" stroke-linecap="round" stroke-linejoin="round"/>
    <path d="M 31.072528839111328 -1.99445378780365 C 16.36739158630371 -9.459346771240234 29.13003921508789 -9.320740699768066 57.6124267578125 8.310216903686523 C 20.14315414428711 6.895694732666016 18.823040008544922 -5.486299991607666 82.77222442626953 5.494837284088135" stroke-width="2.0" fill="none" stroke="rgb(0, 0, 0)" stroke-opacity="1" stroke-linecap="round" stroke-linejoin="round"/>
    <path d="M 104.16404724121094 196.5572509765625 C 147.8850555419922 197.14688110351562 94.7664794921875 209.7117919921875 110.3841781616211 190.70791625976562" stroke-width="2.0" fill="none" stroke="rgb(0, 0, 0)" stroke-opacity="1" stroke-linecap="round" stroke-linejoin="round"/>
    <path d="M 84.30571746826172 215.15499877929688 C 98.58648681640625 198.5156707763672 91.59905242919922 170.6090087890625 104.22230529785156 160.38038635253906 C 92.07584381103516 191.1213836669922 71.55648803710938 211.313232421875 90.79325103759766 196.7958984375" stroke-width="2.0" fill="none" stroke="rgb(0, 0, 0)" stroke-opacity="1" stroke-linecap="round" stroke-linejoin="round"/>
    <path d="M 177.87449645996094 203.52467346191406 C 129.57962036132812 223.220947265625 136.4525909423828 222.58612060546875 157.23019409179688 207.2353515625 C 152.3977508544922 229.49058532714844 113.05635833740234 224.513671875 119.58577728271484 201.95314025878906 C 117.99285888671875 191.1938018798828 104.43598175048828 191.94229125976562 111.3034896850586 199.72935485839844" stroke-width="2.0" fill="none" stroke="rgb(0, 0, 0)" stroke-opacity="1" stroke-linecap="round" stroke-linejoin="round"/>
    <path d="M 109.19586181640625 100.57653045654297 C 87.5991439819336 154.281005859375 47.267757415771484 105.9753189086914 116.76579284667969 120.02725219726562" stroke-width="2.0" fill="none" stroke="rgb(0, 0, 0)" stroke-opacity="1" stroke-linecap="round" stroke-linejoin="round"/>
    <path d="M 91.7918472290039 203.36761474609375 C 135.93898010253906 222.052978515625 123.9111557006836 214.5934600830078 88.05381774902344 198.0895538330078 C 114.9059066772461 219.41648864746094 145.01646423339844 224.42425537109375 148.1470947265625 231.69891357421875 C 118.40302276611328 216.7880859375 115.96985626220703 222.2249298095703 97.43260955810547 234.94192504882812" stroke-width="2.0" fill="none" stroke="rgb(0, 0, 0)" stroke-opacity="1" stroke-linecap="round" stroke-linejoin="round"/>
    <path d="M 129.41595458984375 184.0076446533203 C 133.62139892578125 175.2265625 123.46758270263672 175.26483154296875 137.5987548828125 180.31756591796875 C 171.9950408935547 156.0691375732422 118.4810562133789 166.1702423095703 116.00552368164062 165.4295196533203" stroke-width="2.0" fill="none" stroke="rgb(0, 0, 0)" stroke-opacity="1" stroke-linecap="round" stroke-linejoin="round"/>
    <path d="M 113.3980484008789 18.50792694091797 C 138.37518310546875 17.711393356323242 155.555419921875 15.25134563446045 192.84336853027344 13.794097900390625" stroke-width="2.0" fill="none" stroke="rgb(0, 0, 0)" stroke-opacity="1" stroke-linecap="round" stroke-linejoin="round"/>
    <path d="M 92.02764892578125 79.14635467529297 C 94.73686981201172 60.56481170654297 49.763877868652344 90.21882629394531 74.72699737548828 96.3305435180664 C 89.17498779296875 92.3985366821289 120.28601837158203 113.01101684570312 89.96662139892578 100.74138641357422 C 81.7242202758789 104.59764099121094 67.12742614746094 126.08846282958984 113.77918243408203 105.45256805419922" stroke-width="2.0" fill="none" stroke="rgb(0, 0, 0)" stroke-opacity="1" stroke-linecap="round" stroke-linejoin="round"/>
    <path d="M 40.662879943847656 0.6762381196022034 C 18.058536529541016 0.24402765929698944 18.39008140563965 -7.185398578643799 39.302730560302734 9.813441276550293 C 94.6180648803711 -0.38298866152763367 68.11248779296875 -1.417443037033081 72.2349624633789 -2.2428781986236572" stroke-width="2.0" fill="none" stroke="rgb(0, 0, 0)" stroke-opacity="1" stroke-linecap="round" stroke-linejoin="round"/>
  </g>
</svg>
