<?xml version="1.0" ?>
<svg xmlns="http://www.w3.org/2000/svg" version="1.1" width="224" height="224">
  <defs/>
  <g>
    <path d="M 111.44015502929688 127.67559814453125 C 74.96651458740234 153.40049743652344 86.1644058227539 147.5414276123047 104.09877014160156 136.8668975830078" stroke-width="2.0" fill="none" stroke="rgb(0, 0, 0)" stroke-opacity="1" stroke-linecap="round" stroke-linejoin="round"/>
    <path d="M 60.49790573120117 222.90737915039062 C 99.00733184814453 215.32229614257812 64.27420043945312 210.23033142089844 16.56665802001953 226.74620056152344" stroke-width="2.0" fill="none" stroke="rgb(0, 0, 0)" stroke-opacity="1" stroke-linecap="round" stroke-linejoin="round"/>
    <path d="M 146.12557983398438 59.517276763916016 C 125.44257354736328 66.92803192138672 115.9791030883789 85.11206817626953 152.76837158203125 66.785888671875 C 117.08638000488281 72.48283386230469 145.3001708984375 71.8841552734375 175.14523315429688 47.51020812988281 C 144.9490203857422 59.15129852294922 151.58949279785156 85.7997055053711 139.669677734375 57.656681060791016" stroke-width="2.0" fill="none" stroke="rgb(0, 0, 0)" stroke-opacity="1" stroke-linecap="round" stroke-linejoin="round"/>
    <path d="M 36.995140075683594 110.97816467285156 C 22.87352752685547 122.62107849121094 61.73161697387695 115.8068618774414 67.04975128173828 122.95738220214844" stroke-width="2.0" fill="none" stroke="rgb(0, 0, 0)" stroke-opacity="1" stroke-linecap="round" stroke-linejoin="round"/>
    <path d="M 99.71663665771484 -9.94914722442627 C 85.60704803466797 -5.602231025695801 82.94908142089844 -8.98391342163086 86.38218688964844 -8.398947715759277 C 81.86273193359375 -2.203476667404175 81.04368591308594 -0.5295831561088562 70.23131561279297 -5.833827972412109" stroke-width="2.0" fill="none" stroke="rgb(0, 0, 0)" stroke-opacity="1" stroke-linecap="round" stroke-linejoin="round"/>
    <path d="M 92.93831634521484 168.0431365966797 C 56.438777923583984 169.83877563476562 91.73500061035156 175.6151580810547 111.75149536132812 163.41490173339844 C 86.18333435058594 172.12303161621094 131.33482360839844 141.67335510253906 117.51530456542969 173.917236328125" stroke-width="2.0" fill="none" stroke="rgb(0, 0, 0)" stroke-opacity="1" stroke-linecap="round" stroke-linejoin="round"/>
    <path d="M 147.49737548828125 136.4199981689453 C 152.4321746826172 130.92835998535156 131.5235595703125 116.67279052734375 132.62509155273438 122.48211669921875 C 154.17080688476562 121.91348266601562 148.8311767578125 107.93700408935547 136.33705139160156 110.32103729248047 C 154.7591094970703 109.78313446044922 115.87583923339844 113.18194580078125 146.45436096191406 109.3400650024414" stroke-width="2.0" fill="none" stroke="rgb(0, 0, 0)" stroke-opacity="1" stroke-linecap="round" stroke-linejoin="round"/>
    <path d="M 163.89730834960938 204.18624877929688 C 166.4445037841797 188.09634399414062 178.33908081054688 203.3743896484375 211.3211669921875 186.21273803710938 C 183.76597595214844 194.55096435546875 172.5697021484375 206.35211181640625 203.73226928710938 187.17579650878906" stroke-width="2.0" fill="none" stroke="rgb(0, 0, 0)" stroke-opacity="1" stroke-linecap="round" stroke-linejoin="round"/>
    <path d="M 21.387338638305664 70.08070373535156 C 66.87162780761719 51.967262268066406 61.126365661621094 74.58587646484375 31.0924015045166 80.3420181274414 C 27.19651985168457 71.66898345947266 53.796085357666016 73.2948989868164 83.35832214355469 66.77526092529297" stroke-width="2.0" fill="none" stroke="rgb(0, 0, 0)" stroke-opacity="1" stroke-linecap="round" stroke-linejoin="round"/>
    <path d="M 34.83892059326172 211.47393798828125 C 10.725074768066406 200.01199340820312 20.33176040649414 202.60203552246094 6.587449073791504 208.8314666748047 C 3.369081974029541 173.20928955078125 0.8271274566650391 182.4594268798828 11.64970874786377 204.04336547851562 C 58.423431396484375 214.91500854492188 39.622501373291016 211.79612731933594 -3.6538875102996826 225.8650360107422" stroke-width="2.0" fill="none" stroke="rgb(0, 0, 0)" stroke-opacity="1" stroke-linecap="round" stroke-linejoin="round"/>
    <path d="M 236.62464904785156 86.77576446533203 C 243.95187377929688 72.8808364868164 230.42770385742188 79.86624145507812 222.8295440673828 87.39436340332031 C 227.45013427734375 104.41044616699219 232.64723205566406 104.67388916015625 244.02053833007812 107.75653839111328 C 228.71755981445312 106.32797241210938 238.30162048339844 116.7061767578125 230.67425537109375 127.7897720336914" stroke-width="2.0" fill="none" stroke="rgb(0, 0, 0)" stroke-opacity="1" stroke-linecap="round" stroke-linejoin="round"/>
    <path d="M 159.86680603027344 55.16299819946289 C 226.81141662597656 61.79243850708008 190.4083251953125 49.044700622558594 176.5255889892578 47.343040466308594 C 139.39932250976562 52.297019958496094 154.2772674560547 67.70866394042969 199.7632293701172 46.884559631347656 C 167.17147827148438 37.591495513916016 151.34593200683594 49.54702377319336 148.75718688964844 58.23343276977539" stroke-width="2.0" fill="none" stroke="rgb(0, 0, 0)" stroke-opacity="1" stroke-linecap="round" stroke-linejoin="round"/>
    <path d="M 155.98692321777344 26.268943786621094 C 165.62588500976562 45.74624252319336 138.6185760498047 32.038631439208984 137.99603271484375 37.12929153442383" stroke-width="2.0" fill="none" stroke="rgb(0, 0, 0)" stroke-opacity="1" stroke-linecap="round" stroke-linejoin="round"/>
    <path d="M 206.64007568359375 141.07164001464844 C 222.47532653808594 178.2837677001953 230.53182983398438 189.9556121826172 226.20114135742188 164.89898681640625 C 228.69544982910156 145.67562866210938 222.40872192382812 160.82070922851562 233.88687133789062 180.83872985839844" stroke-width="2.0" fill="none" stroke="rgb(0, 0, 0)" stroke-opacity="1" stroke-linecap="round" stroke-linejoin="round"/>
    <path d="M 61.37093734741211 28.55325698852539 C 112.79235076904297 30.378997802734375 121.5006103515625 -11.075724601745605 100.39630889892578 16.45245933532715 C 85.59276580810547 14.190197944641113 86.36662292480469 26.318592071533203 109.09249114990234 11.349493026733398 C 70.54045867919922 16.980730056762695 53.49538040161133 11.759811401367188 88.34423065185547 19.76979637145996" stroke-width="2.0" fill="none" stroke="rgb(0, 0, 0)" stroke-opacity="1" stroke-linecap="round" stroke-linejoin="round"/>
    <path d="M 158.18170166015625 117.86988830566406 C 196.9504852294922 88.4892349243164 146.45848083496094 104.21424865722656 123.90564727783203 101.05847930908203" stroke-width="2.0" fill="none" stroke="rgb(0, 0, 0)" stroke-opacity="1" stroke-linecap="round" stroke-linejoin="round"/>
    <path d="M 22.650815963745117 82.8299789428711 C 35.64753723144531 75.5355453491211 1.0554745197296143 85.9166030883789 19.803367614746094 79.02384948730469" stroke-width="2.0" fill="none" stroke="rgb(0, 0, 0)" stroke-opacity="1" stroke-linecap="round" stroke-linejoin="round"/>
    <path d="M 52.895503997802734 25.369775772094727 C 49.07259750366211 3.0449140071868896 48.89734649658203 20.063072204589844 63.28956985473633 4.7459282875061035 C 42.21154022216797 -3.778001070022583 66.23373413085938 -0.8598741888999939 60.52265548706055 -5.432977676391602 C 59.03684997558594 -4.827051162719727 43.556785583496094 -2.1473543643951416 27.078195571899414 24.474197387695312" stroke-width="2.0" fill="none" stroke="rgb(0, 0, 0)" stroke-opacity="1" stroke-linecap="round" stroke-linejoin="round"/>
    <path d="M 69.33556365966797 187.81597900390625 C 87.31871032714844 188.13185119628906 64.3465347290039 185.81976318359375 79.05303192138672 174.6437225341797 C 66.24591827392578 182.009765625 79.41000366210938 200.50624084472656 94.59151458740234 172.93646240234375 C 109.41598510742188 183.6181182861328 69.9002685546875 184.97154235839844 74.14875030517578 184.9986114501953" stroke-width="2.0" fill="none" stroke="rgb(0, 0, 0)" stroke-opacity="1" stroke-linecap="round" stroke-linejoin="round"/>
    <path d="M 202.40943908691406 124.04399871826172 C 231.31333923339844 133.59848022460938 250.98814392089844 135.47900390625 259.74114990234375 140.74070739746094 C 240.0245819091797 109.35922241210938 240.39535522460938 111.68145751953125 229.29806518554688 106.80091857910156 C 227.83148193359375 112.43106079101562 236.4283447265625 113.63043975830078 245.4010772705078 120.80799865722656" stroke-width="2.0" fill="none" stroke="rgb(0, 0, 0)" stroke-opacity="1" stroke-linecap="round" stroke-linejoin="round"/>
    <path d="M 21.318071365356445 78.06714630126953 C 38.580604553222656 79.48674774169922 9.207841873168945 82.60289001464844 15.292041778564453 73.53924560546875" stroke-width="2.0" fill="none" stroke="rgb(0, 0, 0)" stroke-opacity="1" stroke-linecap="round" stroke-linejoin="round"/>
    <path d="M 13.664104461669922 168.1499481201172 C 43.510921478271484 163.32313537597656 45.559139251708984 161.28787231445312 58.258365631103516 128.0002899169922 C 44.802364349365234 148.00823974609375 43.10681915283203 152.5569610595703 28.362783432006836 168.94517517089844 C 57.61025619506836 157.45028686523438 77.9249038696289 128.8529815673828 58.565879821777344 163.63987731933594" stroke-width="2.0" fill="none" stroke="rgb(0, 0, 0)" stroke-opacity="1" stroke-linecap="round" stroke-linejoin="round"/>
    <path d="M 117.42926025390625 59.86836242675781 C 145.22372436523438 49.686344146728516 52.91060256958008 61.28202438354492 106.25800323486328 53.07456588745117 C 108.2765884399414 49.582523345947266 100.2755355834961 61.4536018371582 99.85711669921875 49.80839538574219" stroke-width="2.0" fill="none" stroke="rgb(0, 0, 0)" stroke-opacity="1" stroke-linecap="round" stroke-linejoin="round"/>
    <path d="M 64.29642486572266 124.98456573486328 C 14.152183532714844 121.1785888671875 36.10770034790039 124.45774841308594 29.145160675048828 123.06393432617188 C 31.76316261291504 138.4724578857422 -14.655097961425781 139.5045928955078 55.963905334472656 126.83287811279297" stroke-width="2.0" fill="none" stroke="rgb(0, 0, 0)" stroke-opacity="1" stroke-linecap="round" stroke-linejoin="round"/>
    <path d="M 207.20208740234375 78.64508819580078 C 215.30682373046875 82.02887725830078 191.87010192871094 93.49031829833984 181.79742431640625 86.2438735961914" stroke-width="2.0" fill="none" stroke="rgb(0, 0, 0)" stroke-opacity="1" stroke-linecap="round" stroke-linejoin="round"/>
    <path d="M 147.9474334716797 201.46507263183594 C 135.91946411132812 208.74755859375 135.54234313964844 186.20135498046875 130.41973876953125 204.0762939453125 C 117.82429504394531 231.3120880126953 130.4669952392578 249.1748504638672 136.0205535888672 236.57440185546875" stroke-width="2.0" fill="none" stroke="rgb(0, 0, 0)" stroke-opacity="1" stroke-linecap="round" stroke-linejoin="round"/>
    <path d="M 54.6275634765625 150.3578338623047 C 33.891475677490234 173.73497009277344 68.78904724121094 159.40753173828125 63.22279739379883 141.42568969726562 C 20.988744735717773 168.2887420654297 65.9128646850586 136.8496551513672 52.140567779541016 160.7486114501953" stroke-width="2.0" fill="none" stroke="rgb(0, 0, 0)" stroke-opacity="1" stroke-linecap="round" stroke-linejoin="round"/>
    <path d="M -0.7472688555717468 187.44378662109375 C 2.5025010108947754 161.36349487304688 43.76722717285156 160.00653076171875 33.007694244384766 151.67169189453125 C 51.53802490234375 148.3649444580078 50.56819152832031 146.13223266601562 13.509368896484375 147.98696899414062" stroke-width="2.0" fill="none" stroke="rgb(0, 0, 0)" stroke-opacity="1" stroke-linecap="round" stroke-linejoin="round"/>
    <path d="M 194.87799072265625 3.2753477096557617 C 175.5503692626953 23.653783798217773 139.47537231445312 31.744836807250977 149.54200744628906 19.435535430908203 C 174.38058471679688 16.990360260009766 149.43565368652344 3.836233615875244 175.9811553955078 18.21662712097168" stroke-width="2.0" fill="none" stroke="rgb(0, 0, 0)" stroke-opacity="1" stroke-linecap="round" stroke-linejoin="round"/>
    <path d="M 62.814369201660156 95.2532730102539 C 88.48107147216797 81.5215072631836 94.95853424072266 115.48309326171875 96.49890899658203 78.36944580078125 C 90.38477325439453 87.2555160522461 83.1272964477539 80.08716583251953 86.58866882324219 76.05776977539062" stroke-width="2.0" fill="none" stroke="rgb(0, 0, 0)" stroke-opacity="1" stroke-linecap="round" stroke-linejoin="round"/>
    <path d="M 86.79129028320312 197.86553955078125 C 92.95085906982422 196.8390350341797 60.86565017700195 195.47926330566406 79.51943969726562 197.68421936035156 C 53.947452545166016 201.06878662109375 79.81181335449219 182.4069366455078 70.2401351928711 170.81588745117188" stroke-width="2.0" fill="none" stroke="rgb(0, 0, 0)" stroke-opacity="1" stroke-linecap="round" stroke-linejoin="round"/>
    <path d="M 59.586509704589844 43.58448791503906 C 93.25550842285156 40.35369873046875 84.75717163085938 49.4788703918457 69.65283203125 47.741912841796875" stroke-width="2.0" fill="none" stroke="rgb(0, 0, 0)" stroke-opacity="1" stroke-linecap="round" stroke-linejoin="round"/>
    <path d="M 187.9938201904297 133.9342803955078 C 197.72354125976562 110.70909881591797 166.3984375 116.779052734375 172.00160217285156 119.55199432373047" stroke-width="2.0" fill="none" stroke="rgb(0, 0, 0)" stroke-opacity="1" stroke-linecap="round" stroke-linejoin="round"/>
    <path d="M 154.25613403320312 134.79920959472656 C 169.5900421142578 111.60372924804688 139.52052307128906 142.8795166015625 151.7929229736328 126.47782135009766 C 154.0063934326172 142.36573791503906 138.30079650878906 141.81475830078125 137.58267211914062 152.49612426757812 C 125.7889175415039 123.39031219482422 133.19862365722656 168.32888793945312 143.1712188720703 143.72964477539062" stroke-width="2.0" fill="none" stroke="rgb(0, 0, 0)" stroke-opacity="1" stroke-linecap="round" stroke-linejoin="round"/>
    <path d="M 44.47138214111328 56.901641845703125 C 28.936935424804688 63.43840408325195 95.84469604492188 60.11819839477539 81.1642074584961 61.11295700073242 C 71.67543029785156 60.724647521972656 31.04056739807129 68.36937713623047 77.78833770751953 57.52577209472656" stroke-width="2.0" fill="none" stroke="rgb(0, 0, 0)" stroke-opacity="1" stroke-linecap="round" stroke-linejoin="round"/>
    <path d="M 103.40857696533203 159.7510223388672 C 80.97295379638672 160.62493896484375 66.34479522705078 165.21238708496094 91.6637191772461 161.31301879882812 C 123.74659729003906 168.3787384033203 98.86627960205078 153.4273681640625 118.91254425048828 155.07376098632812 C 130.3084716796875 160.95367431640625 112.3590087890625 167.3478546142578 95.45845031738281 179.99534606933594" stroke-width="2.0" fill="none" stroke="rgb(0, 0, 0)" stroke-opacity="1" stroke-linecap="round" stroke-linejoin="round"/>
    <path d="M 199.00021362304688 105.06109619140625 C 224.2831573486328 102.3049087524414 214.94525146484375 65.65487670898438 204.7020263671875 79.66644287109375 C 229.933837890625 71.14130401611328 230.07247924804688 72.1305160522461 185.16690063476562 74.5025863647461" stroke-width="2.0" fill="none" stroke="rgb(0, 0, 0)" stroke-opacity="1" stroke-linecap="round" stroke-linejoin="round"/>
    <path d="M 15.380070686340332 199.67857360839844 C 14.529752731323242 202.21026611328125 23.285602569580078 218.48397827148438 63.43686294555664 208.1233367919922 C -6.457522392272949 204.5449981689453 -1.1643617153167725 185.47438049316406 11.274299621582031 214.20849609375" stroke-width="2.0" fill="none" stroke="rgb(0, 0, 0)" stroke-opacity="1" stroke-linecap="round" stroke-linejoin="round"/>
    <path d="M 209.5704803466797 42.0029182434082 C 226.62745666503906 94.56275177001953 228.7283477783203 67.53277587890625 205.1920928955078 33.95029067993164" stroke-width="2.0" fill="none" stroke="rgb(0, 0, 0)" stroke-opacity="1" stroke-linecap="round" stroke-linejoin="round"/>
    <path d="M 52.5697135925293 148.3635711669922 C 107.4145736694336 182.43441772460938 89.36738586425781 173.97825622558594 67.1365737915039 169.95274353027344 C 67.34164428710938 175.16476440429688 97.9337387084961 159.94017028808594 79.63636779785156 157.88833618164062" stroke-width="2.0" fill="none" stroke="rgb(0, 0, 0)" stroke-opacity="1" stroke-linecap="round" stroke-linejoin="round"/>
    <path d="M 237.82147216796875 189.20230102539062 C 212.7079620361328 198.82081604003906 213.83302307128906 180.1188507080078 224.4505157470703 210.64898681640625 C 217.29148864746094 188.11080932617188 229.89865112304688 186.2134552001953 222.698486328125 200.77101135253906" stroke-width="2.0" fill="none" stroke="rgb(0, 0, 0)" stroke-opacity="1" stroke-linecap="round" stroke-linejoin="round"/>
    <path d="M 52.99254608154297 44.764774322509766 C 55.5386848449707 62.26191711425781 43.78580093383789 45.39792251586914 51.56748580932617 51.32969665527344 C 22.475975036621094 55.35833740234375 34.53725814819336 56.310157775878906 31.30034637451172 62.599205017089844" stroke-width="2.0" fill="none" stroke="rgb(0, 0, 0)" stroke-opacity="1" stroke-linecap="round" stroke-linejoin="round"/>
    <path d="M 24.04245948791504 113.98824310302734 C 40.8134651184082 109.48799896240234 -9.545445442199707 118.96171569824219 11.120487213134766 105.9107666015625 C 2.6553425788879395 125.53167724609375 4.4764251708984375 131.54917907714844 7.856440544128418 110.55160522460938" stroke-width="2.0" fill="none" stroke="rgb(0, 0, 0)" stroke-opacity="1" stroke-linecap="round" stroke-linejoin="round"/>
    <path d="M 181.66006469726562 123.70650482177734 C 175.518798828125 139.5589141845703 203.5476837158203 149.0341339111328 216.32704162597656 133.64512634277344 C 211.80772399902344 142.6103057861328 218.74720764160156 137.76113891601562 235.478271484375 105.35347747802734" stroke-width="2.0" fill="none" stroke="rgb(0, 0, 0)" stroke-opacity="1" stroke-linecap="round" stroke-linejoin="round"/>
    <path d="M 104.39730834960938 24.35977554321289 C 57.56714630126953 32.45877456665039 65.22166442871094 33.45089340209961 129.332763671875 34.687740325927734 C 84.89569091796875 36.4400520324707 89.33148956298828 28.552106857299805 76.57299041748047 28.48236656188965" stroke-width="2.0" fill="none" stroke="rgb(0, 0, 0)" stroke-opacity="1" stroke-linecap="round" stroke-linejoin="round"/>
    <path d="M 230.34486389160156 106.02108764648438 C 197.3285369873047 82.7503433227539 217.20211791992188 91.0241928100586 240.12596130371094 97.39550018310547" stroke-width="2.0" fill="none" stroke="rgb(0, 0, 0)" stroke-opacity="1" stroke-linecap="round" stroke-linejoin="round"/>
    <path d="M 16.708419799804688 -5.0220770835876465 C 39.67476272583008 9.677033424377441 53.08674240112305 -5.917952537536621 59.594268798828125 -11.792208671569824" stroke-width="2.0" fill="none" stroke="rgb(0, 0, 0)" stroke-opacity="1" stroke-linecap="round" stroke-linejoin="round"/>
    <path d="M 49.816627502441406 145.31446838378906 C 45.04458236694336 186.42868041992188 53.87946319580078 164.01663208007812 57.126163482666016 136.82627868652344 C 74.06617736816406 121.91455841064453 55.11328125 136.24037170410156 21.37094497680664 140.3391571044922" stroke-width="2.0" fill="none" stroke="rgb(0, 0, 0)" stroke-opacity="1" stroke-linecap="round" stroke-linejoin="round"/>
    <path d="M 164.8248748779297 182.9040069580078 C 163.278564453125 181.71563720703125 148.76025390625 178.03726196289062 190.3437957763672 172.4232177734375" stroke-width="2.0" fill="none" stroke="rgb(0, 0, 0)" stroke-opacity="1" stroke-linecap="round" stroke-linejoin="round"/>
    <path d="M 21.62136459350586 76.70771789550781 C 25.953536987304688 70.2164535522461 18.00324821472168 85.05026245117188 -3.3734641075134277 103.07527160644531 C 32.03369903564453 94.58063507080078 0.6312801837921143 91.97759246826172 -3.3096871376037598 59.4637451171875 C -2.5653836727142334 73.44097137451172 -16.4987735748291 58.63132095336914 -24.304956436157227 53.57029342651367" stroke-width="2.0" fill="none" stroke="rgb(0, 0, 0)" stroke-opacity="1" stroke-linecap="round" stroke-linejoin="round"/>
    <path d="M 208.7461395263672 117.2535629272461 C 189.0008087158203 127.20216369628906 178.92169189453125 97.1437759399414 212.6374053955078 91.93850708007812" stroke-width="2.0" fill="none" stroke="rgb(0, 0, 0)" stroke-opacity="1" stroke-linecap="round" stroke-linejoin="round"/>
    <path d="M 16.90989112854004 117.9991226196289 C 14.821765899658203 86.94937133789062 26.384809494018555 117.89990997314453 27.24078941345215 91.4430923461914 C 46.40144348144531 81.71199798583984 39.99189758300781 92.1841812133789 20.966659545898438 90.9140625" stroke-width="2.0" fill="none" stroke="rgb(0, 0, 0)" stroke-opacity="1" stroke-linecap="round" stroke-linejoin="round"/>
    <path d="M 17.49979019165039 151.5885467529297 C 9.036972045898438 187.95779418945312 -4.0271759033203125 183.23306274414062 33.60261154174805 162.00042724609375 C -13.873430252075195 165.65342712402344 -3.914890766143799 187.27662658691406 -7.730630397796631 190.02322387695312 C -10.337515830993652 173.5849151611328 -3.667731285095215 175.63998413085938 -4.970714569091797 167.27342224121094" stroke-width="2.0" fill="none" stroke="rgb(0, 0, 0)" stroke-opacity="1" stroke-linecap="round" stroke-linejoin="round"/>
    <path d="M 89.96236419677734 138.40220642089844 C 101.05460357666016 144.69387817382812 70.04660034179688 149.65077209472656 83.65460205078125 141.4938201904297" stroke-width="2.0" fill="none" stroke="rgb(0, 0, 0)" stroke-opacity="1" stroke-linecap="round" stroke-linejoin="round"/>
    <path d="M 80.7045669555664 161.39439392089844 C 70.57913970947266 180.3520050048828 83.91405487060547 157.5186767578125 82.57832336425781 161.86058044433594 C 64.9000473022461 133.91693115234375 51.645626068115234 150.16168212890625 40.33574295043945 173.60260009765625 C 24.14238739013672 182.76393127441406 52.243690490722656 157.15322875976562 26.278024673461914 179.8731689453125" stroke-width="2.0" fill="none" stroke="rgb(0, 0, 0)" stroke-opacity="1" stroke-linecap="round" stroke-linejoin="round"/>
    <path d="M 196.19740295410156 152.88427734375 C 176.30856323242188 131.42715454101562 183.67318725585938 146.93338012695312 199.3815460205078 126.90674591064453" stroke-width="2.0" fill="none" stroke="rgb(0, 0, 0)" stroke-opacity="1" stroke-linecap="round" stroke-linejoin="round"/>
    <path d="M 188.2147216796875 203.75648498535156 C 203.6559600830078 196.5755157470703 214.1369171142578 190.793212890625 181.2350616455078 197.23973083496094 C 158.27301025390625 199.5646514892578 169.73574829101562 213.9458465576172 172.3487548828125 210.7430419921875" stroke-width="2.0" fill="none" stroke="rgb(0, 0, 0)" stroke-opacity="1" stroke-linecap="round" stroke-linejoin="round"/>
    <path d="M 105.87925720214844 8.40970516204834 C 64.95558166503906 -5.912332534790039 81.74169158935547 2.5169758796691895 78.52783203125 -4.031546115875244 C 93.74423217773438 0.5340946316719055 95.76801300048828 -4.9462995529174805 97.48682403564453 -16.07562255859375" stroke-width="2.0" fill="none" stroke="rgb(0, 0, 0)" stroke-opacity="1" stroke-linecap="round" stroke-linejoin="round"/>
    <path d="M 186.41273498535156 64.333984375 C 207.9071807861328 67.17144775390625 221.086669921875 49.78965759277344 192.3308563232422 57.68918991088867" stroke-width="2.0" fill="none" stroke="rgb(0, 0, 0)" stroke-opacity="1" stroke-linecap="round" stroke-linejoin="round"/>
    <path d="M 102.80298614501953 184.62620544433594 C 112.7713394165039 162.9559326171875 111.63836669921875 179.76853942871094 80.03504943847656 183.22850036621094 C 96.50147247314453 191.6247100830078 79.1646957397461 174.10218811035156 119.10919189453125 174.14724731445312 C 88.18559265136719 188.02256774902344 103.84916687011719 175.6935272216797 94.19285583496094 181.4277801513672" stroke-width="2.0" fill="none" stroke="rgb(0, 0, 0)" stroke-opacity="1" stroke-linecap="round" stroke-linejoin="round"/>
    <path d="M 89.87397766113281 83.85330200195312 C 126.04829406738281 98.97244262695312 131.1746063232422 50.110260009765625 112.42288970947266 63.09784698486328" stroke-width="2.0" fill="none" stroke="rgb(0, 0, 0)" stroke-opacity="1" stroke-linecap="round" stroke-linejoin="round"/>
    <path d="M 222.90968322753906 196.73086547851562 C 232.67031860351562 212.3804168701172 230.85845947265625 199.51290893554688 229.67359924316406 176.21546936035156 C 219.17970275878906 202.9823760986328 233.92355346679688 181.45468139648438 207.4208221435547 163.17166137695312" stroke-width="2.0" fill="none" stroke="rgb(0, 0, 0)" stroke-opacity="1" stroke-linecap="round" stroke-linejoin="round"/>
    <path d="M 150.62730407714844 224.3389129638672 C 201.83253479003906 211.88296508789062 244.80429077148438 228.47801208496094 202.60775756835938 227.04351806640625 C 189.9923858642578 226.34349060058594 211.03294372558594 225.11676025390625 223.34213256835938 230.43405151367188" stroke-width="2.0" fill="none" stroke="rgb(0, 0, 0)" stroke-opacity="1" stroke-linecap="round" stroke-linejoin="round"/>
    <path d="M 11.874415397644043 132.61378479003906 C -8.674788475036621 174.433837890625 2.4439055919647217 144.42559814453125 -3.0922842025756836 163.88307189941406" stroke-width="2.0" fill="none" stroke="rgb(0, 0, 0)" stroke-opacity="1" stroke-linecap="round" stroke-linejoin="round"/>
    <path d="M -6.67628812789917 172.69696044921875 C 1.0722107887268066 157.69361877441406 -12.259950637817383 191.92161560058594 15.066058158874512 160.16783142089844 C 34.10970687866211 140.68714904785156 -25.50267219543457 155.2425537109375 0.9845626354217529 147.2923126220703 C 10.323098182678223 170.09310913085938 1.2245137691497803 190.8756866455078 -1.6956672668457031 223.11766052246094" stroke-width="2.0" fill="none" stroke="rgb(0, 0, 0)" stroke-opacity="1" stroke-linecap="round" stroke-linejoin="round"/>
    <path d="M 145.13108825683594 68.49433898925781 C 100.06851959228516 82.4488754272461 139.52420043945312 78.84355163574219 107.88033294677734 84.2251968383789 C 96.95537567138672 72.1186294555664 143.8389892578125 87.23583984375 127.03760528564453 67.6200942993164" stroke-width="2.0" fill="none" stroke="rgb(0, 0, 0)" stroke-opacity="1" stroke-linecap="round" stroke-linejoin="round"/>
    <path d="M 170.8848876953125 25.76365089416504 C 198.57899475097656 25.93501091003418 187.03656005859375 -21.17560577392578 184.28427124023438 -2.619891881942749 C 158.02769470214844 7.92977237701416 161.39605712890625 -6.83977746963501 134.4281463623047 -8.71011734008789" stroke-width="2.0" fill="none" stroke="rgb(0, 0, 0)" stroke-opacity="1" stroke-linecap="round" stroke-linejoin="round"/>
    <path d="M 66.77290344238281 192.7193603515625 C 60.95067596435547 190.968994140625 39.876590728759766 204.33848571777344 52.9581298828125 183.66293334960938" stroke-width="2.0" fill="none" stroke="rgb(0, 0, 0)" stroke-opacity="1" stroke-linecap="round" stroke-linejoin="round"/>
    <path d="M 182.2791748046875 122.94527435302734 C 186.87442016601562 135.20779418945312 194.2498016357422 140.06138610839844 216.88336181640625 91.8051986694336" stroke-width="2.0" fill="none" stroke="rgb(0, 0, 0)" stroke-opacity="1" stroke-linecap="round" stroke-linejoin="round"/>
    <path d="M 216.80709838867188 87.25454711914062 C 205.78567504882812 40.52070999145508 192.80126953125 55.69858932495117 205.49610900878906 48.510643005371094" stroke-width="2.0" fill="none" stroke="rgb(0, 0, 0)" stroke-opacity="1" stroke-linecap="round" stroke-linejoin="round"/>
    <path d="M 179.58721923828125 173.3555908203125 C 159.4868621826172 156.96424865722656 147.06260681152344 184.9464111328125 131.0050506591797 169.11460876464844" stroke-width="2.0" fill="none" stroke="rgb(0, 0, 0)" stroke-opacity="1" stroke-linecap="round" stroke-linejoin="round"/>
    <path d="M 138.96621704101562 54.89765548706055 C 131.0206298828125 40.87882614135742 50.68450164794922 74.95140838623047 118.22201538085938 55.659996032714844 C 56.97965621948242 48.79915237426758 47.52067947387695 37.00832748413086 91.17549133300781 56.636688232421875 C 54.57707595825195 54.2546501159668 26.360929489135742 76.38011932373047 44.53453063964844 61.209449768066406" stroke-width="2.0" fill="none" stroke="rgb(0, 0, 0)" stroke-opacity="1" stroke-linecap="round" stroke-linejoin="round"/>
    <path d="M 70.20677947998047 94.50325775146484 C 56.71980285644531 124.3314437866211 60.88115692138672 107.34773254394531 57.1043815612793 107.5497055053711 C 67.58319854736328 96.46482849121094 109.04655456542969 90.02478790283203 62.73035430908203 96.61256408691406" stroke-width="2.0" fill="none" stroke="rgb(0, 0, 0)" stroke-opacity="1" stroke-linecap="round" stroke-linejoin="round"/>
    <path d="M 147.96160888671875 138.9130401611328 C 134.42764282226562 156.66952514648438 144.77166748046875 144.80897521972656 142.40850830078125 117.82119750976562 C 154.53073120117188 122.37540435791016 156.35862731933594 133.69557189941406 146.43646240234375 132.52484130859375" stroke-width="2.0" fill="none" stroke="rgb(0, 0, 0)" stroke-opacity="1" stroke-linecap="round" stroke-linejoin="round"/>
    <path d="M 63.712738037109375 6.2118096351623535 C 103.06295776367188 9.108039855957031 121.4486312866211 -3.8045003414154053 98.0694351196289 16.39221954345703" stroke-width="2.0" fill="none" stroke="rgb(0, 0, 0)" stroke-opacity="1" stroke-linecap="round" stroke-linejoin="round"/>
    <path d="M 135.1299285888672 154.3076629638672 C 121.9767074584961 179.4373016357422 103.64817810058594 183.23263549804688 108.18151092529297 156.687744140625" stroke-width="2.0" fill="none" stroke="rgb(0, 0, 0)" stroke-opacity="1" stroke-linecap="round" stroke-linejoin="round"/>
    <path d="M 87.48294067382812 102.01024627685547 C 109.0 86.39543914794922 81.60157775878906 78.13081359863281 71.36042022705078 83.98518371582031 C 72.21887969970703 85.13836669921875 64.5477066040039 76.94213104248047 96.93639373779297 81.21292114257812" stroke-width="2.0" fill="none" stroke="rgb(0, 0, 0)" stroke-opacity="1" stroke-linecap="round" stroke-linejoin="round"/>
    <path d="M 222.4329833984375 178.15557861328125 C 198.93606567382812 125.5042495727539 206.1109161376953 142.34463500976562 212.34022521972656 148.02748107910156 C 206.77700805664062 138.41583251953125 190.36814880371094 137.62806701660156 207.82899475097656 142.09988403320312 C 195.37767028808594 139.05868530273438 220.5474853515625 140.77989196777344 210.29884338378906 169.1476593017578" stroke-width="2.0" fill="none" stroke="rgb(0, 0, 0)" stroke-opacity="1" stroke-linecap="round" stroke-linejoin="round"/>
    <path d="M 179.49085998535156 52.12797546386719 C 189.91415405273438 80.27714538574219 150.8382568359375 94.880859375 205.5334930419922 101.75717163085938 C 182.5533447265625 48.08650588989258 216.1865692138672 56.121665954589844 198.93321228027344 81.52835845947266 C 220.71160888671875 74.52428436279297 206.10491943359375 87.98601531982422 208.13571166992188 72.45305633544922" stroke-width="2.0" fill="none" stroke="rgb(0, 0, 0)" stroke-opacity="1" stroke-linecap="round" stroke-linejoin="round"/>
    <path d="M 199.79273986816406 86.95014190673828 C 210.4779815673828 79.27669525146484 213.9002685546875 120.05266571044922 190.32994079589844 124.44132232666016 C 201.1422119140625 95.78563690185547 211.3535919189453 124.7532730102539 181.8511199951172 132.7479705810547" stroke-width="2.0" fill="none" stroke="rgb(0, 0, 0)" stroke-opacity="1" stroke-linecap="round" stroke-linejoin="round"/>
    <path d="M 121.87359619140625 -9.599953651428223 C 106.838134765625 -3.7741847038269043 118.41984558105469 15.893099784851074 81.97362518310547 11.606534004211426 C 91.28472900390625 19.709505081176758 113.50577545166016 17.266151428222656 100.99386596679688 6.77044677734375 C 71.41951751708984 21.907690048217773 68.35674285888672 43.465057373046875 94.55429077148438 40.49474334716797" stroke-width="2.0" fill="none" stroke="rgb(0, 0, 0)" stroke-opacity="1" stroke-linecap="round" stroke-linejoin="round"/>
    <path d="M 48.371177673339844 32.903724670410156 C 70.47029876708984 31.682146072387695 88.44844055175781 40.477569580078125 58.98199462890625 31.828161239624023 C 66.22047424316406 28.964088439941406 63.722354888916016 45.52095031738281 80.52589416503906 23.888389587402344 C 38.674739837646484 13.421387672424316 60.92292022705078 18.997446060180664 88.68317413330078 16.633655548095703" stroke-width="2.0" fill="none" stroke="rgb(0, 0, 0)" stroke-opacity="1" stroke-linecap="round" stroke-linejoin="round"/>
    <path d="M 63.02836990356445 116.35262298583984 C 66.8243637084961 140.03416442871094 74.04866027832031 116.35106658935547 58.629486083984375 139.8737335205078 C 34.4608039855957 114.41142272949219 72.93566131591797 129.15451049804688 22.69646644592285 147.08433532714844 C 52.75740432739258 119.3878402709961 49.74162292480469 111.62271118164062 63.869380950927734 141.70252990722656" stroke-width="2.0" fill="none" stroke="rgb(0, 0, 0)" stroke-opacity="1" stroke-linecap="round" stroke-linejoin="round"/>
    <path d="M 202.33631896972656 30.845075607299805 C 192.2711639404297 32.94895935058594 173.00015258789062 39.179466247558594 182.51133728027344 23.447948455810547 C 204.4311065673828 42.335025787353516 190.50576782226562 55.86457061767578 156.95169067382812 53.00807571411133 C 163.7108917236328 66.87582397460938 144.10350036621094 60.55121994018555 188.01654052734375 52.440452575683594" stroke-width="2.0" fill="none" stroke="rgb(0, 0, 0)" stroke-opacity="1" stroke-linecap="round" stroke-linejoin="round"/>
    <path d="M 54.374080657958984 102.73651123046875 C 105.87215423583984 84.19841766357422 67.75442504882812 107.37213897705078 92.12248229980469 98.40748596191406 C 52.916961669921875 91.60792541503906 65.641357421875 130.72543334960938 29.173852920532227 101.60655212402344 C 43.245643615722656 97.11556243896484 36.177677154541016 100.96139526367188 28.886056900024414 100.46418762207031" stroke-width="2.0" fill="none" stroke="rgb(0, 0, 0)" stroke-opacity="1" stroke-linecap="round" stroke-linejoin="round"/>
    <path d="M 157.86517333984375 59.38640213012695 C 154.15158081054688 69.70467376708984 124.81378936767578 64.35441589355469 151.65170288085938 69.06893920898438 C 113.45136260986328 96.6786880493164 159.72645568847656 75.28942108154297 154.67506408691406 56.72721862792969" stroke-width="2.0" fill="none" stroke="rgb(0, 0, 0)" stroke-opacity="1" stroke-linecap="round" stroke-linejoin="round"/>
    <path d="M 52.61942672729492 223.0642852783203 C 85.9472885131836 220.52783203125 63.04756546020508 192.87881469726562 32.16469955444336 211.60121154785156 C 18.804767608642578 196.4135284423828 44.57828903198242 199.2713623046875 32.968505859375 194.7757568359375" stroke-width="2.0" fill="none" stroke="rgb(0, 0, 0)" stroke-opacity="1" stroke-linecap="round" stroke-linejoin="round"/>
    <path d="M 24.19101333618164 153.08995056152344 C 36.42427062988281 148.1241455078125 38.45437240600586 155.74522399902344 14.052303314208984 157.5982666015625" stroke-width="2.0" fill="none" stroke="rgb(0, 0, 0)" stroke-opacity="1" stroke-linecap="round" stroke-linejoin="round"/>
    <path d="M 76.07456970214844 44.273468017578125 C 50.677001953125 65.12128448486328 53.003604888916016 42.780601501464844 70.36813354492188 58.48822784423828 C 76.88195037841797 65.45543670654297 104.63450622558594 50.0872917175293 71.62326049804688 47.775390625" stroke-width="2.0" fill="none" stroke="rgb(0, 0, 0)" stroke-opacity="1" stroke-linecap="round" stroke-linejoin="round"/>
    <path d="M 17.03614616394043 70.0030746459961 C 3.6188693046569824 51.911983489990234 22.06434440612793 65.31834411621094 -7.150407791137695 63.437435150146484" stroke-width="2.0" fill="none" stroke="rgb(0, 0, 0)" stroke-opacity="1" stroke-linecap="round" stroke-linejoin="round"/>
    <path d="M 123.8799057006836 201.65652465820312 C 137.91845703125 210.75558471679688 140.8813934326172 211.62969970703125 143.4445037841797 206.3785858154297 C 155.3273162841797 217.6997528076172 141.68545532226562 196.52938842773438 132.11178588867188 204.69229125976562 C 163.4381561279297 212.304443359375 134.3294677734375 197.53660583496094 140.61793518066406 214.31106567382812" stroke-width="2.0" fill="none" stroke="rgb(0, 0, 0)" stroke-opacity="1" stroke-linecap="round" stroke-linejoin="round"/>
    <path d="M 58.42216873168945 156.13587951660156 C 52.83811569213867 184.10179138183594 12.750353813171387 173.92242431640625 8.156371116638184 166.54330444335938 C 3.8986623287200928 167.34617614746094 17.327205657958984 159.35687255859375 9.460465431213379 168.92408752441406" stroke-width="2.0" fill="none" stroke="rgb(0, 0, 0)" stroke-opacity="1" stroke-linecap="round" stroke-linejoin="round"/>
    <path d="M 15.571788787841797 52.1412353515625 C 4.5855512619018555 54.980072021484375 16.866474151611328 21.04323959350586 38.9837646484375 3.591463565826416" stroke-width="2.0" fill="none" stroke="rgb(0, 0, 0)" stroke-opacity="1" stroke-linecap="round" stroke-linejoin="round"/>
    <path d="M 103.9588623046875 70.56417083740234 C 116.80734252929688 73.097900390625 112.46278381347656 85.14885711669922 64.39869689941406 79.58385467529297 C 70.73890686035156 86.8502197265625 58.56718063354492 74.6566162109375 91.8927993774414 79.5100326538086" stroke-width="2.0" fill="none" stroke="rgb(0, 0, 0)" stroke-opacity="1" stroke-linecap="round" stroke-linejoin="round"/>
    <path d="M 110.39895629882812 175.05079650878906 C 83.7583999633789 187.99600219726562 87.5167465209961 180.24266052246094 110.5491943359375 191.7457733154297 C 88.1895980834961 192.85874938964844 99.04087829589844 198.1580810546875 137.36073303222656 200.49794006347656" stroke-width="2.0" fill="none" stroke="rgb(0, 0, 0)" stroke-opacity="1" stroke-linecap="round" stroke-linejoin="round"/>
    <path d="M 139.99734497070312 100.30735778808594 C 95.8840103149414 94.63677978515625 104.08141326904297 106.26744079589844 165.1869659423828 77.78140258789062 C 142.6331787109375 33.34053421020508 152.89859008789062 63.48340606689453 146.45423889160156 73.99127960205078 C 126.77597045898438 79.95972442626953 125.01943969726562 52.01631546020508 135.12652587890625 76.95177459716797" stroke-width="2.0" fill="none" stroke="rgb(0, 0, 0)" stroke-opacity="1" stroke-linecap="round" stroke-linejoin="round"/>
    <path d="M 126.3182144165039 107.02233123779297 C 96.53704071044922 105.27011108398438 141.98577880859375 122.37408447265625 113.8099365234375 121.80284118652344 C 104.20750427246094 143.89547729492188 139.44952392578125 112.69600677490234 139.57586669921875 142.5572509765625" stroke-width="2.0" fill="none" stroke="rgb(0, 0, 0)" stroke-opacity="1" stroke-linecap="round" stroke-linejoin="round"/>
    <path d="M 188.3443145751953 157.27291870117188 C 208.15533447265625 178.53160095214844 179.8278350830078 178.07608032226562 179.837158203125 170.04173278808594 C 158.68417358398438 177.2533721923828 163.7660369873047 178.7583770751953 162.99172973632812 165.21946716308594" stroke-width="2.0" fill="none" stroke="rgb(0, 0, 0)" stroke-opacity="1" stroke-linecap="round" stroke-linejoin="round"/>
    <path d="M 215.55050659179688 83.03580474853516 C 210.61312866210938 25.223051071166992 202.3007354736328 28.785245895385742 210.19570922851562 86.26689147949219 C 234.16712951660156 74.00978088378906 233.6996307373047 59.43552780151367 237.00755310058594 62.07955551147461" stroke-width="2.0" fill="none" stroke="rgb(0, 0, 0)" stroke-opacity="1" stroke-linecap="round" stroke-linejoin="round"/>
    <path d="M 216.6034393310547 66.92395782470703 C 234.25335693359375 131.0600128173828 231.42059326171875 125.12220764160156 220.85804748535156 91.30342102050781 C 183.12669372558594 101.40435791015625 177.5006103515625 85.53065490722656 219.6212615966797 87.56669616699219 C 206.46327209472656 98.70316314697266 233.06265258789062 75.26417541503906 210.59291076660156 52.4676399230957" stroke-width="2.0" fill="none" stroke="rgb(0, 0, 0)" stroke-opacity="1" stroke-linecap="round" stroke-linejoin="round"/>
    <path d="M 98.8160171508789 187.7008819580078 C 119.84455108642578 201.8240203857422 148.78355407714844 182.44757080078125 147.74827575683594 199.97303771972656 C 119.98287963867188 193.35450744628906 144.3884735107422 221.40164184570312 154.2305145263672 193.87608337402344" stroke-width="2.0" fill="none" stroke="rgb(0, 0, 0)" stroke-opacity="1" stroke-linecap="round" stroke-linejoin="round"/>
    <path d="M 32.01021957397461 17.161724090576172 C 14.682500839233398 32.39668655395508 19.085325241088867 13.460902214050293 42.26313400268555 36.92967224121094 C 18.083436965942383 42.580894470214844 32.372127532958984 42.93277359008789 47.461673736572266 22.486255645751953 C 49.678340911865234 52.27183532714844 38.23576736450195 44.689598083496094 28.63657569885254 49.926883697509766" stroke-width="2.0" fill="none" stroke="rgb(0, 0, 0)" stroke-opacity="1" stroke-linecap="round" stroke-linejoin="round"/>
    <path d="M 149.688232421875 111.98319244384766 C 159.17001342773438 87.80388641357422 123.792236328125 103.32969665527344 150.7073516845703 98.53634643554688" stroke-width="2.0" fill="none" stroke="rgb(0, 0, 0)" stroke-opacity="1" stroke-linecap="round" stroke-linejoin="round"/>
    <path d="M 69.336669921875 12.393378257751465 C 30.409944534301758 6.170827865600586 35.465721130371094 -1.9448328018188477 21.155941009521484 -2.8607406616210938 C 20.01649284362793 -4.335052013397217 11.905452728271484 -7.491094589233398 25.41855239868164 -14.205282211303711" stroke-width="2.0" fill="none" stroke="rgb(0, 0, 0)" stroke-opacity="1" stroke-linecap="round" stroke-linejoin="round"/>
    <path d="M 201.08749389648438 28.450448989868164 C 210.6610565185547 94.03926086425781 168.34962463378906 56.355594635009766 197.20753479003906 81.37337493896484 C 194.1022186279297 85.27190399169922 162.96771240234375 72.73127746582031 188.9984893798828 69.77693176269531 C 184.97113037109375 66.32535552978516 167.16732788085938 45.042091369628906 191.93740844726562 58.62812805175781" stroke-width="2.0" fill="none" stroke="rgb(0, 0, 0)" stroke-opacity="1" stroke-linecap="round" stroke-linejoin="round"/>
    <path d="M 62.44320297241211 208.39674377441406 C 67.65180206298828 208.6302032470703 20.625286102294922 202.48146057128906 64.43255615234375 201.36441040039062 C 44.93480682373047 180.6829376220703 38.947689056396484 197.53878784179688 19.42173957824707 205.11965942382812" stroke-width="2.0" fill="none" stroke="rgb(0, 0, 0)" stroke-opacity="1" stroke-linecap="round" stroke-linejoin="round"/>
    <path d="M 225.59051513671875 7.451161861419678 C 198.7293243408203 14.002208709716797 221.40127563476562 -6.84880256652832 224.42413330078125 24.764795303344727" stroke-width="2.0" fill="none" stroke="rgb(0, 0, 0)" stroke-opacity="1" stroke-linecap="round" stroke-linejoin="round"/>
    <path d="M 206.93763732910156 63.004425048828125 C 196.33709716796875 56.371543884277344 225.13819885253906 53.44649124145508 196.81568908691406 38.823299407958984 C 212.0012969970703 32.24654006958008 229.77903747558594 69.59910583496094 204.90431213378906 67.81356048583984" stroke-width="2.0" fill="none" stroke="rgb(0, 0, 0)" stroke-opacity="1" stroke-linecap="round" stroke-linejoin="round"/>
    <path d="M 179.23269653320312 13.621257781982422 C 174.66964721679688 12.448397636413574 171.6785125732422 2.6623637676239014 190.77713012695312 5.082946300506592" stroke-width="2.0" fill="none" stroke="rgb(0, 0, 0)" stroke-opacity="1" stroke-linecap="round" stroke-linejoin="round"/>
    <path d="M 221.41964721679688 66.13117980957031 C 216.84835815429688 47.09387969970703 207.03565979003906 22.09811019897461 180.0825958251953 30.08170509338379" stroke-width="2.0" fill="none" stroke="rgb(0, 0, 0)" stroke-opacity="1" stroke-linecap="round" stroke-linejoin="round"/>
    <path d="M 95.77532196044922 30.401716232299805 C 41.684085845947266 30.965370178222656 73.30586242675781 60.31528091430664 82.57118225097656 50.11042785644531" stroke-width="2.0" fill="none" stroke="rgb(0, 0, 0)" stroke-opacity="1" stroke-linecap="round" stroke-linejoin="round"/>
    <path d="M 155.13377380371094 144.40121459960938 C 170.99925231933594 146.37193298339844 177.4703826904297 147.63299560546875 192.3860321044922 158.2258758544922 C 151.3163604736328 153.55816650390625 169.6100616455078 163.62637329101562 174.82847595214844 137.64756774902344 C 175.12220764160156 146.30648803710938 166.09902954101562 153.2203369140625 167.93768310546875 162.06686401367188" stroke-width="2.0" fill="none" stroke="rgb(0, 0, 0)" stroke-opacity="1" stroke-linecap="round" stroke-linejoin="round"/>
    <path d="M 203.62612915039062 30.865177154541016 C 172.9303436279297 21.12942886352539 197.68154907226562 -2.2933743000030518 193.43814086914062 -2.630000114440918 C 162.74044799804688 -10.11879825592041 167.68115234375 -1.71385657787323 152.99472045898438 -8.444780349731445" stroke-width="2.0" fill="none" stroke="rgb(0, 0, 0)" stroke-opacity="1" stroke-linecap="round" stroke-linejoin="round"/>
    <path d="M 72.22042846679688 34.50092315673828 C 49.161991119384766 12.82011604309082 57.369407653808594 18.333332061767578 65.11572265625 25.275550842285156 C 105.21273040771484 1.0268718004226685 103.97962951660156 22.083984375 75.77461242675781 17.6677303314209" stroke-width="2.0" fill="none" stroke="rgb(0, 0, 0)" stroke-opacity="1" stroke-linecap="round" stroke-linejoin="round"/>
    <path d="M 9.904953002929688 42.60346603393555 C 26.6406192779541 32.709354400634766 4.342751502990723 42.58843994140625 43.14406967163086 35.021026611328125 C 30.59043312072754 27.59087562561035 15.930769920349121 34.060020446777344 55.4217529296875 25.307506561279297 C 79.87690734863281 17.188135147094727 73.13540649414062 30.08283042907715 60.073978424072266 19.2605037689209" stroke-width="2.0" fill="none" stroke="rgb(0, 0, 0)" stroke-opacity="1" stroke-linecap="round" stroke-linejoin="round"/>
    <path d="M 34.1104621887207 74.29483795166016 C 21.22134017944336 55.6150016784668 14.384587287902832 70.18763732910156 34.67909240722656 58.1948356628418" stroke-width="2.0" fill="none" stroke="rgb(0, 0, 0)" stroke-opacity="1" stroke-linecap="round" stroke-linejoin="round"/>
    <path d="M 57.68791961669922 176.9786376953125 C 61.734718322753906 187.48861694335938 62.41901397705078 176.6831817626953 82.98617553710938 186.90171813964844" stroke-width="2.0" fill="none" stroke="rgb(0, 0, 0)" stroke-opacity="1" stroke-linecap="round" stroke-linejoin="round"/>
    <path d="M 131.7216339111328 161.5786590576172 C 167.3384552001953 118.3034439086914 158.90269470214844 128.41041564941406 161.94908142089844 125.84210205078125 C 151.3513641357422 119.61434936523438 166.1263885498047 149.75413513183594 146.08413696289062 116.48515319824219" stroke-width="2.0" fill="none" stroke="rgb(0, 0, 0)" stroke-opacity="1" stroke-linecap="round" stroke-linejoin="round"/>
    <path d="M 223.59445190429688 196.27630615234375 C 231.7080841064453 171.41627502441406 225.90199279785156 185.80226135253906 237.21690368652344 187.9635467529297 C 224.16656494140625 172.75677490234375 224.4527130126953 181.62376403808594 229.94602966308594 194.047119140625 C 215.51210021972656 169.53627014160156 225.1855926513672 133.94349670410156 232.58253479003906 146.54132080078125" stroke-width="2.0" fill="none" stroke="rgb(0, 0, 0)" stroke-opacity="1" stroke-linecap="round" stroke-linejoin="round"/>
    <path d="M 178.1822967529297 6.321787357330322 C 188.04238891601562 10.685450553894043 183.55978393554688 0.9088885188102722 215.1642303466797 -2.256866216659546 C 198.364990234375 -2.308051347732544 213.89976501464844 -5.178593635559082 203.47581481933594 -6.697880268096924 C 217.2144775390625 3.686314344406128 223.62074279785156 -6.401341915130615 229.16650390625 18.171205520629883" stroke-width="2.0" fill="none" stroke="rgb(0, 0, 0)" stroke-opacity="1" stroke-linecap="round" stroke-linejoin="round"/>
    <path d="M 60.436119079589844 153.447509765625 C 73.24559020996094 141.20338439941406 74.365478515625 127.88797760009766 56.69113540649414 100.2130355834961 C 72.35687255859375 130.28395080566406 38.945884704589844 112.36604309082031 64.55793762207031 97.3624038696289" stroke-width="2.0" fill="none" stroke="rgb(0, 0, 0)" stroke-opacity="1" stroke-linecap="round" stroke-linejoin="round"/>
    <path d="M 134.1999053955078 196.89857482910156 C 89.1368637084961 197.47015380859375 92.08147430419922 185.206787109375 116.89231872558594 196.86572265625" stroke-width="2.0" fill="none" stroke="rgb(0, 0, 0)" stroke-opacity="1" stroke-linecap="round" stroke-linejoin="round"/>
    <path d="M -4.302576541900635 140.68209838867188 C 3.9481678009033203 89.78997039794922 26.47255516052246 87.2096939086914 -9.633574485778809 101.33868408203125" stroke-width="2.0" fill="none" stroke="rgb(0, 0, 0)" stroke-opacity="1" stroke-linecap="round" stroke-linejoin="round"/>
    <path d="M 194.99420166015625 80.72054290771484 C 164.13092041015625 82.9469985961914 186.57179260253906 58.10601806640625 192.599365234375 71.23359680175781" stroke-width="2.0" fill="none" stroke="rgb(0, 0, 0)" stroke-opacity="1" stroke-linecap="round" stroke-linejoin="round"/>
    <path d="M 18.592269897460938 40.694984436035156 C 22.740327835083008 28.849218368530273 21.47357940673828 20.808719635009766 29.28362274169922 20.682239532470703 C 8.90534782409668 30.708166122436523 10.628907203674316 58.71622085571289 11.232961654663086 52.40333938598633" stroke-width="2.0" fill="none" stroke="rgb(0, 0, 0)" stroke-opacity="1" stroke-linecap="round" stroke-linejoin="round"/>
    <path d="M 120.96430969238281 51.053504943847656 C 131.39682006835938 59.365997314453125 117.4010238647461 61.76385498046875 132.35067749023438 53.32744598388672 C 112.90984344482422 49.428245544433594 141.73818969726562 35.37128448486328 97.19990539550781 33.51633834838867" stroke-width="2.0" fill="none" stroke="rgb(0, 0, 0)" stroke-opacity="1" stroke-linecap="round" stroke-linejoin="round"/>
    <path d="M 189.82781982421875 178.04994201660156 C 194.78042602539062 161.9134979248047 157.13253784179688 172.8397674560547 168.4130859375 173.56231689453125 C 153.06761169433594 173.0238494873047 165.0102996826172 187.52578735351562 161.6754913330078 175.09426879882812" stroke-width="2.0" fill="none" stroke="rgb(0, 0, 0)" stroke-opacity="1" stroke-linecap="round" stroke-linejoin="round"/>
    <path d="M 230.4684600830078 51.862281799316406 C 236.23660278320312 45.37484359741211 223.2686309814453 39.529415130615234 225.9252166748047 30.950252532958984" stroke-width="2.0" fill="none" stroke="rgb(0, 0, 0)" stroke-opacity="1" stroke-linecap="round" stroke-linejoin="round"/>
    <path d="M 80.76911926269531 141.8473358154297 C 79.8314437866211 150.69381713867188 143.93174743652344 170.505859375 135.27621459960938 151.87940979003906 C 135.43673706054688 165.59092712402344 130.09201049804688 150.14353942871094 118.6417465209961 148.0484161376953" stroke-width="2.0" fill="none" stroke="rgb(0, 0, 0)" stroke-opacity="1" stroke-linecap="round" stroke-linejoin="round"/>
    <path d="M 128.1797637939453 200.639404296875 C 110.30660247802734 209.36447143554688 130.59686279296875 195.40451049804688 111.86457824707031 201.05233764648438 C 138.43386840820312 202.81304931640625 128.5355224609375 190.81268310546875 119.42127227783203 207.66542053222656" stroke-width="2.0" fill="none" stroke="rgb(0, 0, 0)" stroke-opacity="1" stroke-linecap="round" stroke-linejoin="round"/>
    <path d="M 16.66098403930664 87.12408447265625 C -6.1989054679870605 109.45195770263672 11.048820495605469 78.96684265136719 7.430068016052246 91.3009262084961 C 16.35276222229004 82.62582397460938 12.77224349975586 81.50736999511719 7.86408805847168 94.99555206298828 C -11.409936904907227 114.2667236328125 -0.4914185106754303 128.3142547607422 -8.727630615234375 114.2156982421875" stroke-width="2.0" fill="none" stroke="rgb(0, 0, 0)" stroke-opacity="1" stroke-linecap="round" stroke-linejoin="round"/>
    <path d="M 113.71894073486328 171.95933532714844 C 90.37892150878906 188.0515594482422 89.33418273925781 201.0131378173828 117.4504165649414 199.48406982421875 C 108.89630889892578 202.8039093017578 110.24192810058594 210.96055603027344 122.93359375 187.66647338867188" stroke-width="2.0" fill="none" stroke="rgb(0, 0, 0)" stroke-opacity="1" stroke-linecap="round" stroke-linejoin="round"/>
    <path d="M 165.02841186523438 97.45358276367188 C 158.3667449951172 80.7868423461914 188.93258666992188 100.30199432373047 181.4800567626953 78.50789642333984" stroke-width="2.0" fill="none" stroke="rgb(0, 0, 0)" stroke-opacity="1" stroke-linecap="round" stroke-linejoin="round"/>
    <path d="M -9.478372573852539 85.7530746459961 C 21.36400604248047 72.89547729492188 34.90459442138672 74.38208770751953 20.867664337158203 84.13483428955078 C 18.10491180419922 74.3138427734375 28.070261001586914 73.09003448486328 0.6919437646865845 101.2751693725586" stroke-width="2.0" fill="none" stroke="rgb(0, 0, 0)" stroke-opacity="1" stroke-linecap="round" stroke-linejoin="round"/>
    <path d="M 180.1674041748047 58.24217224121094 C 139.55335998535156 45.41428756713867 169.18148803710938 68.28424835205078 143.51806640625 63.987953186035156" stroke-width="2.0" fill="none" stroke="rgb(0, 0, 0)" stroke-opacity="1" stroke-linecap="round" stroke-linejoin="round"/>
    <path d="M 139.9764404296875 17.148744583129883 C 135.15469360351562 37.95401382446289 158.31619262695312 22.643375396728516 169.8822784423828 30.2397403717041 C 150.94821166992188 18.573331832885742 176.1681365966797 27.218212127685547 168.63784790039062 41.036922454833984 C 126.52986907958984 69.56366729736328 146.8551025390625 35.688995361328125 181.10243225097656 11.011009216308594" stroke-width="2.0" fill="none" stroke="rgb(0, 0, 0)" stroke-opacity="1" stroke-linecap="round" stroke-linejoin="round"/>
    <path d="M 146.37599182128906 133.29159545898438 C 145.7809600830078 156.0365447998047 147.0064697265625 134.5523223876953 144.0502471923828 135.02664184570312" stroke-width="2.0" fill="none" stroke="rgb(0, 0, 0)" stroke-opacity="1" stroke-linecap="round" stroke-linejoin="round"/>
    <path d="M 176.37034606933594 180.27206420898438 C 178.13307189941406 167.41094970703125 164.8937530517578 167.77418518066406 199.2924346923828 180.62522888183594 C 205.43002319335938 170.90682983398438 200.3234405517578 187.2959747314453 183.95144653320312 174.1472930908203 C 186.12429809570312 204.72499084472656 202.94802856445312 207.8885498046875 183.691162109375 171.35220336914062" stroke-width="2.0" fill="none" stroke="rgb(0, 0, 0)" stroke-opacity="1" stroke-linecap="round" stroke-linejoin="round"/>
    <path d="M 75.5916748046875 153.7151336669922 C 119.18727111816406 158.37081909179688 119.44611358642578 169.04409790039062 74.20635986328125 164.63780212402344 C 83.5544662475586 153.47842407226562 121.16556549072266 168.1479034423828 88.97249603271484 156.27430725097656" stroke-width="2.0" fill="none" stroke="rgb(0, 0, 0)" stroke-opacity="1" stroke-linecap="round" stroke-linejoin="round"/>
    <path d="M 68.83714294433594 137.62051391601562 C -0.7027817368507385 158.37950134277344 -8.89949893951416 174.42555236816406 -30.83614158630371 144.28952026367188 C -12.155721664428711 132.0476837158203 29.67517852783203 143.61935424804688 51.26887130737305 132.47784423828125" stroke-width="2.0" fill="none" stroke="rgb(0, 0, 0)" stroke-opacity="1" stroke-linecap="round" stroke-linejoin="round"/>
    <path d="M 121.93313598632812 149.19937133789062 C 94.92292785644531 146.3118896484375 98.1707763671875 157.5916748046875 123.12117004394531 162.06845092773438 C 98.45707702636719 164.0399169921875 78.41432189941406 156.09304809570312 65.79254913330078 159.17550659179688 C 55.74275588989258 144.11907958984375 64.17500305175781 151.98419189453125 66.45061492919922 131.6117706298828" stroke-width="2.0" fill="none" stroke="rgb(0, 0, 0)" stroke-opacity="1" stroke-linecap="round" stroke-linejoin="round"/>
    <path d="M 209.62265014648438 83.41875457763672 C 208.07696533203125 56.436973571777344 184.6605987548828 49.94485855102539 178.9583740234375 56.641292572021484" stroke-width="2.0" fill="none" stroke="rgb(0, 0, 0)" stroke-opacity="1" stroke-linecap="round" stroke-linejoin="round"/>
    <path d="M 33.045650482177734 113.82146453857422 C -5.521432399749756 122.99333953857422 94.72229766845703 135.11822509765625 9.986985206604004 130.61424255371094" stroke-width="2.0" fill="none" stroke="rgb(0, 0, 0)" stroke-opacity="1" stroke-linecap="round" stroke-linejoin="round"/>
    <path d="M 125.67530059814453 140.36883544921875 C 116.04353332519531 134.2473602294922 151.9024200439453 131.23841857910156 132.0326690673828 158.3274688720703 C 113.05040740966797 173.6490936279297 123.53972625732422 173.9514923095703 130.05616760253906 150.34080505371094" stroke-width="2.0" fill="none" stroke="rgb(0, 0, 0)" stroke-opacity="1" stroke-linecap="round" stroke-linejoin="round"/>
    <path d="M 22.92548179626465 211.85794067382812 C 60.56313705444336 197.17568969726562 58.407840728759766 214.0331573486328 11.64956283569336 219.57589721679688" stroke-width="2.0" fill="none" stroke="rgb(0, 0, 0)" stroke-opacity="1" stroke-linecap="round" stroke-linejoin="round"/>
    <path d="M 169.9296112060547 164.75193786621094 C 159.2945556640625 154.19882202148438 140.76377868652344 173.5313720703125 200.8622283935547 175.05726623535156 C 162.51527404785156 177.9630126953125 178.87791442871094 179.31333923339844 163.31597900390625 164.31167602539062" stroke-width="2.0" fill="none" stroke="rgb(0, 0, 0)" stroke-opacity="1" stroke-linecap="round" stroke-linejoin="round"/>
    <path d="M 219.90048217773438 -1.8669103384017944 C 194.7480926513672 -0.10592134296894073 178.0297088623047 10.07751750946045 187.29293823242188 28.966630935668945 C 176.15895080566406 22.092220306396484 178.6765899658203 35.64519119262695 184.134521484375 24.532861709594727" stroke-width="2.0" fill="none" stroke="rgb(0, 0, 0)" stroke-opacity="1" stroke-linecap="round" stroke-linejoin="round"/>
    <path d="M 103.54618835449219 96.35572052001953 C 105.29988861083984 93.98161315917969 97.37992858886719 101.8421859741211 109.04454803466797 99.39069366455078" stroke-width="2.0" fill="none" stroke="rgb(0, 0, 0)" stroke-opacity="1" stroke-linecap="round" stroke-linejoin="round"/>
    <path d="M 201.06695556640625 189.73875427246094 C 213.15306091308594 175.13038635253906 239.20166015625 203.9949493408203 205.2820587158203 187.9743194580078 C 160.70803833007812 212.2716827392578 166.77467346191406 196.31607055664062 218.54298400878906 189.84063720703125" stroke-width="2.0" fill="none" stroke="rgb(0, 0, 0)" stroke-opacity="1" stroke-linecap="round" stroke-linejoin="round"/>
    <path d="M 74.34868621826172 29.922523498535156 C 42.46189880371094 32.39167785644531 34.22405242919922 28.197036743164062 48.30323028564453 30.69844627380371 C 66.16157531738281 54.44709014892578 54.16095733642578 42.767181396484375 41.56511306762695 24.940780639648438" stroke-width="2.0" fill="none" stroke="rgb(0, 0, 0)" stroke-opacity="1" stroke-linecap="round" stroke-linejoin="round"/>
    <path d="M 167.70782470703125 123.1989974975586 C 201.08364868164062 109.7873764038086 180.755126953125 163.5067901611328 200.96890258789062 105.46416473388672 C 162.73873901367188 114.41747283935547 196.8934783935547 94.9579086303711 186.31365966796875 77.65511322021484" stroke-width="2.0" fill="none" stroke="rgb(0, 0, 0)" stroke-opacity="1" stroke-linecap="round" stroke-linejoin="round"/>
    <path d="M 162.99615478515625 179.2728271484375 C 165.96197509765625 178.8734893798828 158.4886016845703 177.67108154296875 178.41455078125 138.5232391357422" stroke-width="2.0" fill="none" stroke="rgb(0, 0, 0)" stroke-opacity="1" stroke-linecap="round" stroke-linejoin="round"/>
    <path d="M 149.8382568359375 169.95176696777344 C 159.12466430664062 190.9414825439453 136.11647033691406 175.77015686035156 139.13514709472656 186.66064453125 C 165.1898956298828 194.76226806640625 143.6448516845703 218.0806427001953 127.8593521118164 202.3156280517578 C 144.13619995117188 193.6152801513672 130.6638641357422 202.1973114013672 147.4364776611328 201.29713439941406" stroke-width="2.0" fill="none" stroke="rgb(0, 0, 0)" stroke-opacity="1" stroke-linecap="round" stroke-linejoin="round"/>
    <path d="M 79.65565490722656 -3.1620616912841797 C 100.68883514404297 -0.6082079410552979 91.54193878173828 0.19311609864234924 115.02291107177734 1.4016388654708862 C 89.16087341308594 -2.795178174972534 104.67516326904297 8.005016326904297 113.41634368896484 -11.576159477233887" stroke-width="2.0" fill="none" stroke="rgb(0, 0, 0)" stroke-opacity="1" stroke-linecap="round" stroke-linejoin="round"/>
    <path d="M 75.19261932373047 161.76953125 C 108.73622131347656 171.27125549316406 119.97409057617188 151.47042846679688 82.88133239746094 166.76565551757812 C 123.64324951171875 167.84664916992188 121.75654602050781 159.2112274169922 72.34608459472656 141.98806762695312" stroke-width="2.0" fill="none" stroke="rgb(0, 0, 0)" stroke-opacity="1" stroke-linecap="round" stroke-linejoin="round"/>
    <path d="M 24.935375213623047 164.98817443847656 C 38.79758071899414 154.39369201660156 38.036163330078125 122.15531921386719 60.59652328491211 151.7667999267578" stroke-width="2.0" fill="none" stroke="rgb(0, 0, 0)" stroke-opacity="1" stroke-linecap="round" stroke-linejoin="round"/>
    <path d="M 113.00770568847656 52.34821701049805 C 117.58904266357422 34.68601989746094 109.6839599609375 47.62205123901367 82.23194122314453 34.76237869262695 C 115.13959503173828 3.249606132507324 113.9898681640625 17.245893478393555 78.96560668945312 22.867807388305664 C 48.69888687133789 26.580228805541992 52.03456115722656 38.61132049560547 83.76446533203125 40.10376739501953" stroke-width="2.0" fill="none" stroke="rgb(0, 0, 0)" stroke-opacity="1" stroke-linecap="round" stroke-linejoin="round"/>
    <path d="M 160.4967041015625 100.5073471069336 C 168.4592742919922 106.90018463134766 156.74008178710938 93.8614501953125 159.95413208007812 95.75182342529297" stroke-width="2.0" fill="none" stroke="rgb(0, 0, 0)" stroke-opacity="1" stroke-linecap="round" stroke-linejoin="round"/>
    <path d="M 80.23091125488281 30.353412628173828 C 55.26544952392578 36.54472732543945 28.636991500854492 39.80183029174805 63.864959716796875 41.440670013427734 C 67.3372802734375 45.43983459472656 69.82666778564453 16.143522262573242 42.30630111694336 15.157876014709473" stroke-width="2.0" fill="none" stroke="rgb(0, 0, 0)" stroke-opacity="1" stroke-linecap="round" stroke-linejoin="round"/>
    <path d="M 204.08738708496094 186.90940856933594 C 258.3861389160156 202.59759521484375 240.75503540039062 188.29251098632812 222.1284942626953 162.20823669433594" stroke-width="2.0" fill="none" stroke="rgb(0, 0, 0)" stroke-opacity="1" stroke-linecap="round" stroke-linejoin="round"/>
    <path d="M 39.099098205566406 229.3791046142578 C 48.763404846191406 228.3330841064453 81.55448150634766 223.5428009033203 106.52574157714844 231.01284790039062" stroke-width="2.0" fill="none" stroke="rgb(0, 0, 0)" stroke-opacity="1" stroke-linecap="round" stroke-linejoin="round"/>
    <path d="M 63.961185455322266 137.29200744628906 C 73.01954650878906 116.31659698486328 68.48400115966797 149.57940673828125 50.58406066894531 163.12832641601562 C 67.63605499267578 146.46592712402344 61.8802490234375 100.07286071777344 53.762115478515625 127.89922332763672 C -2.1580820083618164 125.57559204101562 62.39893341064453 113.41363525390625 66.70164489746094 134.0655975341797" stroke-width="2.0" fill="none" stroke="rgb(0, 0, 0)" stroke-opacity="1" stroke-linecap="round" stroke-linejoin="round"/>
    <path d="M 82.57450103759766 213.9786376953125 C 36.1511344909668 239.02072143554688 78.11627960205078 213.14730834960938 123.2829360961914 227.73464965820312 C 127.7823715209961 226.0642547607422 104.40229034423828 208.3734893798828 38.39100646972656 224.58709716796875 C 46.981956481933594 245.8157958984375 90.66973876953125 236.74391174316406 98.7602767944336 230.3802947998047" stroke-width="2.0" fill="none" stroke="rgb(0, 0, 0)" stroke-opacity="1" stroke-linecap="round" stroke-linejoin="round"/>
    <path d="M 105.84024047851562 53.820003509521484 C 123.68634796142578 46.63608932495117 132.7200469970703 50.63974380493164 102.04375457763672 54.80741882324219" stroke-width="2.0" fill="none" stroke="rgb(0, 0, 0)" stroke-opacity="1" stroke-linecap="round" stroke-linejoin="round"/>
    <path d="M 188.31178283691406 199.15379333496094 C 168.4915771484375 192.9377899169922 172.50062561035156 200.72813415527344 208.5089111328125 193.09710693359375" stroke-width="2.0" fill="none" stroke="rgb(0, 0, 0)" stroke-opacity="1" stroke-linecap="round" stroke-linejoin="round"/>
    <path d="M 39.52522277832031 27.1020565032959 C 41.44722366333008 17.77186393737793 52.17570114135742 28.944320678710938 82.87586212158203 21.2998046875" stroke-width="2.0" fill="none" stroke="rgb(0, 0, 0)" stroke-opacity="1" stroke-linecap="round" stroke-linejoin="round"/>
    <path d="M 167.12147521972656 126.75235748291016 C 179.74887084960938 122.31671905517578 159.7537841796875 130.24111938476562 159.1431121826172 123.68553924560547 C 174.41909790039062 135.89321899414062 153.2172088623047 111.87073516845703 168.48907470703125 120.14137268066406 C 153.69505310058594 143.59239196777344 135.82943725585938 100.66839599609375 153.78807067871094 107.94363403320312" stroke-width="2.0" fill="none" stroke="rgb(0, 0, 0)" stroke-opacity="1" stroke-linecap="round" stroke-linejoin="round"/>
    <path d="M 135.16232299804688 212.36343383789062 C 138.56863403320312 199.23175048828125 166.35667419433594 197.86183166503906 119.62665557861328 196.59213256835938" stroke-width="2.0" fill="none" stroke="rgb(0, 0, 0)" stroke-opacity="1" stroke-linecap="round" stroke-linejoin="round"/>
    <path d="M 100.36681365966797 210.0572052001953 C 109.31407928466797 199.66844177246094 86.45130920410156 218.54119873046875 84.61878967285156 190.17730712890625 C 104.12296295166016 182.9129638671875 108.95927429199219 199.85739135742188 96.49278259277344 183.54457092285156 C 84.99645233154297 175.923095703125 102.71942138671875 174.2474822998047 118.21751403808594 167.41018676757812" stroke-width="2.0" fill="none" stroke="rgb(0, 0, 0)" stroke-opacity="1" stroke-linecap="round" stroke-linejoin="round"/>
    <path d="M 144.01893615722656 140.60983276367188 C 164.5673828125 126.85144805908203 188.13568115234375 113.82138061523438 186.79864501953125 134.31851196289062 C 179.03868103027344 118.37345886230469 175.21669006347656 143.00331115722656 170.32101440429688 163.60484313964844" stroke-width="2.0" fill="none" stroke="rgb(0, 0, 0)" stroke-opacity="1" stroke-linecap="round" stroke-linejoin="round"/>
    <path d="M 191.57615661621094 56.73208236694336 C 156.294921875 52.95430374145508 208.2949981689453 73.4962158203125 203.97097778320312 79.377685546875 C 195.6018829345703 76.90023040771484 214.93783569335938 67.0685806274414 173.38565063476562 52.23965072631836" stroke-width="2.0" fill="none" stroke="rgb(0, 0, 0)" stroke-opacity="1" stroke-linecap="round" stroke-linejoin="round"/>
    <path d="M 229.5135955810547 3.1077322959899902 C 227.81106567382812 -2.379209280014038 236.24911499023438 7.136003494262695 238.69259643554688 3.8739943504333496" stroke-width="2.0" fill="none" stroke="rgb(0, 0, 0)" stroke-opacity="1" stroke-linecap="round" stroke-linejoin="round"/>
    <path d="M 77.2026596069336 69.35761260986328 C 89.699951171875 50.55815505981445 86.6036376953125 78.46311950683594 73.18280029296875 69.60610961914062" stroke-width="2.0" fill="none" stroke="rgb(0, 0, 0)" stroke-opacity="1" stroke-linecap="round" stroke-linejoin="round"/>
    <path d="M -0.7865251302719116 112.51211547851562 C 13.69327449798584 81.2389907836914 3.462334156036377 99.67742919921875 -21.93362808227539 99.42407989501953" stroke-width="2.0" fill="none" stroke="rgb(0, 0, 0)" stroke-opacity="1" stroke-linecap="round" stroke-linejoin="round"/>
    <path d="M -4.815647125244141 10.53512954711914 C 5.074831485748291 22.903226852416992 1.6714078187942505 33.9142951965332 -4.914034843444824 68.85529327392578" stroke-width="2.0" fill="none" stroke="rgb(0, 0, 0)" stroke-opacity="1" stroke-linecap="round" stroke-linejoin="round"/>
    <path d="M 10.830277442932129 83.765625 C 2.2066574096679688 105.88841247558594 -1.5301644802093506 123.74832916259766 -5.613969802856445 142.5252685546875 C -2.9841256141662598 82.72278594970703 -5.637368202209473 83.14894104003906 -12.516653060913086 77.923095703125" stroke-width="2.0" fill="none" stroke="rgb(0, 0, 0)" stroke-opacity="1" stroke-linecap="round" stroke-linejoin="round"/>
    <path d="M 127.88870239257812 47.14586639404297 C 129.4352264404297 71.74124908447266 116.9213638305664 48.1186637878418 124.90914916992188 32.00300216674805 C 110.4450912475586 20.564682006835938 134.9978790283203 28.815956115722656 108.2833480834961 28.107114791870117 C 140.38990783691406 28.820144653320312 145.34011840820312 9.785050392150879 142.71365356445312 10.712300300598145" stroke-width="2.0" fill="none" stroke="rgb(0, 0, 0)" stroke-opacity="1" stroke-linecap="round" stroke-linejoin="round"/>
    <path d="M 10.09046745300293 188.05104064941406 C 3.7502593994140625 194.0714569091797 18.660476684570312 205.2393035888672 30.523895263671875 216.04159545898438 C 25.622743606567383 216.3838653564453 10.934038162231445 205.57760620117188 18.267972946166992 196.82496643066406 C 45.88661193847656 173.16073608398438 42.92771530151367 160.24359130859375 25.661937713623047 176.33334350585938" stroke-width="2.0" fill="none" stroke="rgb(0, 0, 0)" stroke-opacity="1" stroke-linecap="round" stroke-linejoin="round"/>
    <path d="M 139.97146606445312 26.092987060546875 C 150.0892333984375 25.259668350219727 123.25152587890625 23.42383575439453 136.4889678955078 40.28076934814453 C 140.99229431152344 31.573362350463867 138.7119903564453 54.59725570678711 121.68074798583984 39.581748962402344 C 110.15945434570312 30.142980575561523 125.00178527832031 41.08360290527344 120.14234924316406 35.01138687133789" stroke-width="2.0" fill="none" stroke="rgb(0, 0, 0)" stroke-opacity="1" stroke-linecap="round" stroke-linejoin="round"/>
    <path d="M 148.2727508544922 61.720367431640625 C 186.55686950683594 41.47601318359375 206.7942352294922 62.410823822021484 174.16046142578125 49.36255645751953 C 196.90234375 78.83606719970703 207.29502868652344 40.25206756591797 160.07476806640625 52.23810958862305" stroke-width="2.0" fill="none" stroke="rgb(0, 0, 0)" stroke-opacity="1" stroke-linecap="round" stroke-linejoin="round"/>
    <path d="M 67.56092071533203 71.00397491455078 C 94.8101806640625 71.98990631103516 85.29550170898438 52.182456970214844 51.049530029296875 54.77121353149414 C 89.81340026855469 54.779815673828125 84.8963623046875 60.887142181396484 59.151275634765625 52.057411193847656 C 110.92887115478516 36.48114776611328 59.260623931884766 50.311065673828125 49.29374313354492 45.00189208984375" stroke-width="2.0" fill="none" stroke="rgb(0, 0, 0)" stroke-opacity="1" stroke-linecap="round" stroke-linejoin="round"/>
    <path d="M 100.80430603027344 106.2094497680664 C 111.85540771484375 94.14485931396484 127.84701538085938 104.54549407958984 120.3499526977539 107.09773254394531 C 127.97417449951172 110.43190002441406 139.1377716064453 87.42766571044922 123.6005630493164 96.8892593383789 C 148.27130126953125 98.47575378417969 198.6676483154297 96.61241912841797 129.18142700195312 91.2106704711914" stroke-width="2.0" fill="none" stroke="rgb(0, 0, 0)" stroke-opacity="1" stroke-linecap="round" stroke-linejoin="round"/>
    <path d="M 48.482120513916016 206.05799865722656 C -0.5348465442657471 223.34439086914062 58.58541488647461 211.63531494140625 41.806640625 199.59796142578125 C 27.882326126098633 205.5608367919922 87.57452392578125 214.5623321533203 75.66244506835938 200.78109741210938" stroke-width="2.0" fill="none" stroke="rgb(0, 0, 0)" stroke-opacity="1" stroke-linecap="round" stroke-linejoin="round"/>
    <path d="M -19.436220169067383 217.79013061523438 C 1.2539335489273071 219.68502807617188 -6.213645935058594 224.7745819091797 5.876143932342529 197.96853637695312 C 15.536684036254883 221.8563995361328 31.84695053100586 219.00819396972656 10.41067123413086 206.03094482421875" stroke-width="2.0" fill="none" stroke="rgb(0, 0, 0)" stroke-opacity="1" stroke-linecap="round" stroke-linejoin="round"/>
    <path d="M 11.990238189697266 184.89442443847656 C -0.10142087191343307 147.72994995117188 17.690811157226562 186.1869354248047 21.91257095336914 173.69825744628906 C -31.91935157775879 184.36102294921875 1.8568906784057617 157.1823272705078 23.174161911010742 157.10203552246094 C 4.287734508514404 166.7607879638672 -4.242015361785889 161.88502502441406 15.526336669921875 179.98651123046875" stroke-width="2.0" fill="none" stroke="rgb(0, 0, 0)" stroke-opacity="1" stroke-linecap="round" stroke-linejoin="round"/>
    <path d="M 24.440645217895508 206.885986328125 C 14.304434776306152 210.49432373046875 13.633718490600586 211.42340087890625 28.20079231262207 199.44229125976562" stroke-width="2.0" fill="none" stroke="rgb(0, 0, 0)" stroke-opacity="1" stroke-linecap="round" stroke-linejoin="round"/>
    <path d="M 131.0850830078125 43.59254455566406 C 121.94161987304688 42.24806213378906 132.22438049316406 55.78292465209961 104.74052429199219 58.873600006103516 C 130.3448486328125 34.05686950683594 147.2971954345703 43.10454177856445 104.86768341064453 52.63206100463867 C 93.0984878540039 59.4361457824707 109.46308898925781 47.72075271606445 117.25138092041016 56.40013122558594" stroke-width="2.0" fill="none" stroke="rgb(0, 0, 0)" stroke-opacity="1" stroke-linecap="round" stroke-linejoin="round"/>
    <path d="M 103.99954223632812 105.50335693359375 C 90.06238555908203 112.09620666503906 107.53450012207031 88.73457336425781 73.65371704101562 132.17349243164062" stroke-width="2.0" fill="none" stroke="rgb(0, 0, 0)" stroke-opacity="1" stroke-linecap="round" stroke-linejoin="round"/>
    <path d="M 43.276580810546875 167.90122985839844 C 61.10343933105469 178.98399353027344 17.343006134033203 192.0714111328125 37.898048400878906 183.69857788085938 C 28.65581512451172 182.0615234375 31.34566307067871 190.98284912109375 48.07744598388672 182.3553924560547 C 69.16703033447266 181.88792419433594 63.97764587402344 190.5079345703125 46.66284942626953 179.5419464111328" stroke-width="2.0" fill="none" stroke="rgb(0, 0, 0)" stroke-opacity="1" stroke-linecap="round" stroke-linejoin="round"/>
    <path d="M 91.24726104736328 230.62078857421875 C 133.20213317871094 229.05032348632812 125.39190673828125 232.91590881347656 105.84367370605469 238.00466918945312 C 119.59525299072266 242.52757263183594 124.85040283203125 241.72337341308594 132.91717529296875 243.5260467529297 C 147.3571319580078 241.53688049316406 139.68812561035156 249.35238647460938 139.652099609375 255.59127807617188" stroke-width="2.0" fill="none" stroke="rgb(0, 0, 0)" stroke-opacity="1" stroke-linecap="round" stroke-linejoin="round"/>
    <path d="M 17.7799129486084 80.50203704833984 C 38.67219924926758 80.96125793457031 0.9890806078910828 77.37747955322266 25.7579402923584 71.66107940673828" stroke-width="2.0" fill="none" stroke="rgb(0, 0, 0)" stroke-opacity="1" stroke-linecap="round" stroke-linejoin="round"/>
    <path d="M 105.444091796875 163.0047607421875 C 75.6750717163086 152.1107177734375 56.076725006103516 149.67514038085938 99.2814712524414 158.881591796875 C 141.75628662109375 169.3660125732422 125.77352142333984 167.74427795410156 59.47458267211914 180.0781707763672" stroke-width="2.0" fill="none" stroke="rgb(0, 0, 0)" stroke-opacity="1" stroke-linecap="round" stroke-linejoin="round"/>
    <path d="M 218.9071807861328 132.11328125 C 213.79795837402344 136.51637268066406 224.50840759277344 123.4161376953125 231.9608917236328 104.86163330078125 C 198.5814971923828 115.44866180419922 209.7049560546875 43.64316940307617 214.33828735351562 59.490264892578125" stroke-width="2.0" fill="none" stroke="rgb(0, 0, 0)" stroke-opacity="1" stroke-linecap="round" stroke-linejoin="round"/>
    <path d="M 151.38623046875 27.747785568237305 C 154.49551391601562 20.273738861083984 136.45962524414062 40.43843078613281 138.9472198486328 14.134252548217773 C 106.90623474121094 13.43178653717041 159.75770568847656 16.980430603027344 157.9051971435547 2.0079431533813477 C 144.01168823242188 -12.90340518951416 118.0424575805664 12.516188621520996 88.18301391601562 1.4441794157028198" stroke-width="2.0" fill="none" stroke="rgb(0, 0, 0)" stroke-opacity="1" stroke-linecap="round" stroke-linejoin="round"/>
    <path d="M 226.26060485839844 78.7235107421875 C 215.0476531982422 101.44847106933594 233.62582397460938 99.0030517578125 219.99447631835938 97.38774871826172 C 224.60118103027344 73.75444793701172 222.34483337402344 97.94291687011719 217.2259979248047 64.56617736816406" stroke-width="2.0" fill="none" stroke="rgb(0, 0, 0)" stroke-opacity="1" stroke-linecap="round" stroke-linejoin="round"/>
    <path d="M 49.20328140258789 105.95281219482422 C 26.716712951660156 86.30632019042969 43.941070556640625 96.15876007080078 67.41818237304688 68.89765167236328 C 47.30540466308594 74.7898941040039 31.742998123168945 80.20765686035156 64.78780364990234 100.88539123535156" stroke-width="2.0" fill="none" stroke="rgb(0, 0, 0)" stroke-opacity="1" stroke-linecap="round" stroke-linejoin="round"/>
    <path d="M 120.24077606201172 87.51343536376953 C 102.92420959472656 56.925926208496094 139.78311157226562 90.35662078857422 142.6058807373047 59.26933670043945 C 161.12730407714844 66.21653747558594 144.16552734375 73.99234008789062 123.87193298339844 83.80335235595703" stroke-width="2.0" fill="none" stroke="rgb(0, 0, 0)" stroke-opacity="1" stroke-linecap="round" stroke-linejoin="round"/>
    <path d="M 151.839599609375 195.3158416748047 C 152.62408447265625 179.81227111816406 170.038818359375 197.1681671142578 137.50503540039062 207.371337890625 C 197.0395050048828 197.05596923828125 159.30126953125 217.8271484375 134.53347778320312 223.6490936279297 C 183.38973999023438 234.04969787597656 176.88218688964844 236.12734985351562 173.4370880126953 233.31417846679688" stroke-width="2.0" fill="none" stroke="rgb(0, 0, 0)" stroke-opacity="1" stroke-linecap="round" stroke-linejoin="round"/>
    <path d="M 98.26371002197266 33.4276008605957 C 76.81681823730469 31.52669906616211 70.64820098876953 24.26289176940918 92.65394592285156 31.03911590576172 C 91.24217224121094 31.10430335998535 75.1400375366211 36.14438247680664 53.039527893066406 44.675636291503906" stroke-width="2.0" fill="none" stroke="rgb(0, 0, 0)" stroke-opacity="1" stroke-linecap="round" stroke-linejoin="round"/>
    <path d="M 56.759422302246094 158.9827880859375 C 72.46409606933594 146.662841796875 51.58052444458008 118.45879364013672 44.671165466308594 143.29063415527344" stroke-width="2.0" fill="none" stroke="rgb(0, 0, 0)" stroke-opacity="1" stroke-linecap="round" stroke-linejoin="round"/>
  </g>
</svg>
