<?xml version="1.0" ?>
<svg xmlns="http://www.w3.org/2000/svg" version="1.1" width="500" height="500">
  <defs/>
  <g>
    <path d="M 97.46014404296875 218.2751922607422 C 185.8719482421875 254.70362854003906 52.73014450073242 285.3026123046875 47.09416580200195 222.51063537597656 C 114.79069519042969 250.5592803955078 175.64303588867188 212.25177001953125 141.31353759765625 207.61863708496094 C 149.91262817382812 83.55781555175781 205.2122802734375 265.28204345703125 99.43529510498047 161.81492614746094" stroke-width="6.263761520385742" fill="none" stroke="rgb(82, 241, 0)" stroke-opacity="0.7631571" stroke-linecap="round" stroke-linejoin="round"/>
    <path d="M 329.66912841796875 192.4865264892578 C 338.2337341308594 190.64796447753906 349.869140625 205.15087890625 360.1800842285156 216.70079040527344 C 359.77471923828125 202.5485382080078 371.41748046875 227.0173797607422 350.8283996582031 173.68601989746094 C 327.0061340332031 205.67752075195312 340.27252197265625 247.52767944335938 344.8691101074219 238.63140869140625" stroke-width="2.0" fill="none" stroke="rgb(255, 255, 255)" stroke-opacity="0.0" stroke-linecap="round" stroke-linejoin="round"/>
    <path d="M 233.3154754638672 295.4317626953125 C 240.84071350097656 313.35888671875 245.00271606445312 333.4744567871094 261.2006530761719 323.96051025390625" stroke-width="3.0631444454193115" fill="none" stroke="rgb(255, 255, 255)" stroke-opacity="0.0" stroke-linecap="round" stroke-linejoin="round"/>
    <path d="M 284.06243896484375 507.2947998046875 C 288.43072509765625 505.10064697265625 303.8728332519531 515.2062377929688 304.1492004394531 538.9284057617188 C 309.2334289550781 532.5198364257812 329.2630310058594 542.8092651367188 316.2138977050781 538.6616821289062" stroke-width="2.0" fill="none" stroke="rgb(115, 229, 63)" stroke-opacity="0.07255833" stroke-linecap="round" stroke-linejoin="round"/>
    <path d="M 82.3792724609375 479.62017822265625 C 0.5479069948196411 517.3208618164062 -5.793082237243652 437.4326477050781 52.96696472167969 498.6639404296875 C -5.6098761558532715 445.92718505859375 152.16696166992188 419.46551513671875 21.340147018432617 500.2765197753906 C 37.07191467285156 615.9616088867188 88.70096588134766 572.7412109375 84.6457290649414 544.451416015625" stroke-width="9.560250282287598" fill="none" stroke="rgb(0, 7, 8)" stroke-opacity="1.0" stroke-linecap="round" stroke-linejoin="round"/>
    <path d="M 382.40692138671875 329.05609130859375 C 365.77838134765625 374.0373229980469 389.6205139160156 396.2481689453125 372.9322509765625 397.7962646484375 C 343.65582275390625 424.5411682128906 384.3147888183594 407.99334716796875 426.548583984375 277.89031982421875" stroke-width="4.361309051513672" fill="none" stroke="rgb(128, 115, 5)" stroke-opacity="0.88356113" stroke-linecap="round" stroke-linejoin="round"/>
    <path d="M 315.4906921386719 198.385986328125 C 315.2084045410156 152.9541015625 313.92724609375 156.69512939453125 370.71173095703125 191.4685516357422 C 352.8509216308594 244.89561462402344 338.845947265625 221.64022827148438 350.4247131347656 183.19219970703125 C 345.8811340332031 200.50146484375 309.67218017578125 203.89459228515625 333.8094787597656 254.870361328125" stroke-width="2.0000627040863037" fill="none" stroke="rgb(255, 255, 255)" stroke-opacity="0.0" stroke-linecap="round" stroke-linejoin="round"/>
    <path d="M 260.48309326171875 215.216552734375 C 275.90972900390625 267.1197509765625 314.4819030761719 282.218017578125 312.93243408203125 298.20733642578125" stroke-width="2.1072144508361816" fill="none" stroke="rgb(255, 255, 255)" stroke-opacity="0.0" stroke-linecap="round" stroke-linejoin="round"/>
    <path d="M 256.1848449707031 358.3702697753906 C 295.3152160644531 424.1435241699219 329.033447265625 364.5254821777344 215.8397979736328 395.1010437011719 C 278.94171142578125 431.1253662109375 265.7828063964844 435.2762145996094 252.21109008789062 429.7232360839844" stroke-width="13.413342475891113" fill="none" stroke="rgb(6, 21, 24)" stroke-opacity="0.5136319" stroke-linecap="round" stroke-linejoin="round"/>
    <path d="M -1.7251859903335571 486.9017639160156 C 83.3316421508789 330.9308166503906 50.028377532958984 381.4112243652344 54.229637145996094 377.21282958984375 C 106.04764556884766 448.9970703125 -23.76038932800293 564.8765869140625 55.2197265625 418.7475891113281" stroke-width="6.748433589935303" fill="none" stroke="rgb(80, 21, 2)" stroke-opacity="1.0" stroke-linecap="round" stroke-linejoin="round"/>
    <path d="M 100.56118774414062 279.49127197265625 C 49.183204650878906 161.6016387939453 115.03033447265625 276.2543640136719 35.748775482177734 283.6131591796875 C 68.12749481201172 234.70494079589844 75.17869567871094 224.2305450439453 78.21397399902344 329.12139892578125" stroke-width="8.241697311401367" fill="none" stroke="rgb(0, 13, 0)" stroke-opacity="1.0" stroke-linecap="round" stroke-linejoin="round"/>
    <path d="M 227.36019897460938 344.0498046875 C 154.22491455078125 360.7442321777344 232.94247436523438 427.4521484375 170.924560546875 396.2568664550781 C 243.77687072753906 397.8473815917969 193.05862426757812 321.3523864746094 264.6144104003906 410.65643310546875" stroke-width="8.680480003356934" fill="none" stroke="rgb(84, 95, 182)" stroke-opacity="0.72465914" stroke-linecap="round" stroke-linejoin="round"/>
    <path d="M 218.3727569580078 75.56794738769531 C 255.4208221435547 128.36766052246094 241.3972930908203 36.96392822265625 232.37962341308594 51.318721771240234 C 363.24822998046875 137.53855895996094 171.2322235107422 1.5090627670288086 230.155517578125 118.4637680053711" stroke-width="9.655546188354492" fill="none" stroke="rgb(48, 1, 25)" stroke-opacity="0.5503967" stroke-linecap="round" stroke-linejoin="round"/>
    <path d="M 488.39678955078125 358.1092224121094 C 445.2850341796875 297.21514892578125 476.6079406738281 303.19610595703125 454.6155090332031 223.84130859375" stroke-width="7.816831111907959" fill="none" stroke="rgb(54, 0, 0)" stroke-opacity="1.0" stroke-linecap="round" stroke-linejoin="round"/>
    <path d="M 92.77645111083984 299.732421875 C 240.79270935058594 251.7598114013672 15.657100677490234 353.4773864746094 104.04359436035156 350.9428405761719 C 40.34339141845703 405.1777038574219 44.352577209472656 314.7972412109375 3.9249460697174072 332.04156494140625" stroke-width="6.732435703277588" fill="none" stroke="rgb(12, 79, 244)" stroke-opacity="0.36956033" stroke-linecap="round" stroke-linejoin="round"/>
    <path d="M 484.45941162109375 224.09132385253906 C 449.8153991699219 186.0695343017578 494.11834716796875 214.68145751953125 480.97015380859375 151.73431396484375 C 479.404541015625 229.05438232421875 497.9090881347656 170.20521545410156 569.7030639648438 148.76351928710938 C 551.07373046875 187.50576782226562 537.5089721679688 198.58786010742188 519.6058959960938 194.0913543701172" stroke-width="6.671576023101807" fill="none" stroke="rgb(147, 0, 0)" stroke-opacity="1.0" stroke-linecap="round" stroke-linejoin="round"/>
    <path d="M 267.4693298339844 473.7073059082031 C 159.98849487304688 467.0036926269531 101.56282806396484 460.10015869140625 123.823974609375 508.05230712890625" stroke-width="5.82031774520874" fill="none" stroke="rgb(0, 55, 22)" stroke-opacity="1.0" stroke-linecap="round" stroke-linejoin="round"/>
    <path d="M 29.630399703979492 331.9766540527344 C 99.07554626464844 338.7229309082031 96.56855010986328 234.6519317626953 57.77931213378906 318.6622619628906" stroke-width="4.304670333862305" fill="none" stroke="rgb(22, 169, 57)" stroke-opacity="1.0" stroke-linecap="round" stroke-linejoin="round"/>
    <path d="M 510.63720703125 452.87744140625 C 467.33282470703125 378.31585693359375 445.9853820800781 313.3808898925781 496.5007629394531 383.7723388671875" stroke-width="11.080041885375977" fill="none" stroke="rgb(66, 8, 2)" stroke-opacity="0.9257606" stroke-linecap="round" stroke-linejoin="round"/>
    <path d="M 101.24076843261719 483.8070068359375 C 341.3721923828125 496.096923828125 261.617919921875 484.5877990722656 297.5746154785156 470.5206604003906" stroke-width="9.803471565246582" fill="none" stroke="rgb(7, 38, 0)" stroke-opacity="0.8745743" stroke-linecap="round" stroke-linejoin="round"/>
    <path d="M 245.53204345703125 71.4974136352539 C 312.58587646484375 43.40778732299805 282.5719909667969 56.44530487060547 201.2749786376953 -1.4167953729629517 C 290.78094482421875 186.2527618408203 211.76565551757812 -30.8731689453125 205.47906494140625 76.10030364990234 C 142.23086547851562 83.45396423339844 191.8856964111328 34.21907424926758 348.34295654296875 10.598258018493652" stroke-width="10.044715881347656" fill="none" stroke="rgb(5, 0, 8)" stroke-opacity="1.0" stroke-linecap="round" stroke-linejoin="round"/>
    <path d="M 317.88671875 129.48834228515625 C 342.38702392578125 119.98261260986328 326.97711181640625 128.68838500976562 316.9964294433594 155.51451110839844 C 333.60052490234375 123.88359832763672 348.5324401855469 125.44759368896484 329.8600769042969 107.43534851074219" stroke-width="2.0" fill="none" stroke="rgb(255, 255, 255)" stroke-opacity="0.0" stroke-linecap="round" stroke-linejoin="round"/>
    <path d="M 136.2830810546875 220.58267211914062 C 66.63603210449219 78.9137954711914 150.2357940673828 239.61758422851562 87.7673110961914 120.69988250732422" stroke-width="4.191948890686035" fill="none" stroke="rgb(76, 141, 103)" stroke-opacity="0.97648585" stroke-linecap="round" stroke-linejoin="round"/>
    <path d="M 203.30551147460938 231.63229370117188 C 98.07398986816406 280.66455078125 240.42340087890625 162.05441284179688 85.67259216308594 345.1067199707031 C 163.0078582763672 350.19134521484375 235.1697235107422 178.84829711914062 172.53448486328125 274.70672607421875" stroke-width="18.085430145263672" fill="none" stroke="rgb(2, 56, 157)" stroke-opacity="0.30052784" stroke-linecap="round" stroke-linejoin="round"/>
    <path d="M 186.2443084716797 5.900880813598633 C 198.86671447753906 129.55685424804688 164.09730529785156 5.193117141723633 223.3719940185547 -13.560702323913574 C 248.6531219482422 22.496379852294922 219.86546325683594 31.997005462646484 273.8041076660156 -8.358263969421387" stroke-width="8.505858421325684" fill="none" stroke="rgb(108, 15, 0)" stroke-opacity="0.67106533" stroke-linecap="round" stroke-linejoin="round"/>
    <path d="M 380.3658752441406 80.69810485839844 C 426.0537414550781 106.05348205566406 346.4101257324219 106.39817810058594 372.57928466796875 108.73941040039062 C 374.1004943847656 77.0032958984375 344.5475769042969 98.24049377441406 318.88336181640625 95.65303802490234 C 340.4530029296875 94.41275787353516 343.4263916015625 141.89767456054688 329.3065185546875 114.064453125" stroke-width="2.0" fill="none" stroke="rgb(255, 255, 255)" stroke-opacity="0.0" stroke-linecap="round" stroke-linejoin="round"/>
    <path d="M 158.5781707763672 483.6007385253906 C 350.45245361328125 404.614013671875 215.83750915527344 451.0953369140625 195.14141845703125 447.00030517578125 C 230.38113403320312 463.2823791503906 186.272216796875 441.98931884765625 245.2602996826172 395.80853271484375 C 201.02305603027344 347.586181640625 226.48294067382812 369.9620056152344 202.53086853027344 404.0528869628906" stroke-width="8.739542007446289" fill="none" stroke="rgb(0, 21, 0)" stroke-opacity="0.7603685" stroke-linecap="round" stroke-linejoin="round"/>
    <path d="M 207.7576446533203 -1.0080986022949219 C 183.0814971923828 143.60472106933594 226.71925354003906 -31.160818099975586 178.59170532226562 158.92410278320312" stroke-width="13.232880592346191" fill="none" stroke="rgb(80, 187, 0)" stroke-opacity="0.9474974" stroke-linecap="round" stroke-linejoin="round"/>
    <path d="M 146.92991638183594 463.7038879394531 C 137.1711883544922 439.7559509277344 100.06305694580078 446.07696533203125 122.61473083496094 431.182373046875 C 118.89037322998047 461.593994140625 115.9665298461914 429.15234375 148.74563598632812 450.3526306152344" stroke-width="6.039495468139648" fill="none" stroke="rgb(11, 1, 202)" stroke-opacity="0.8306405" stroke-linecap="round" stroke-linejoin="round"/>
    <path d="M 286.6285400390625 440.7891845703125 C 278.2992248535156 416.81561279296875 334.77960205078125 482.0716247558594 287.881103515625 474.62542724609375 C 291.67169189453125 454.87451171875 317.27850341796875 460.4503479003906 270.8283996582031 435.6238098144531 C 263.072265625 449.5527038574219 305.1925964355469 470.6978454589844 251.6764678955078 450.0267333984375" stroke-width="5.4208574295043945" fill="none" stroke="rgb(81, 48, 105)" stroke-opacity="0.85382515" stroke-linecap="round" stroke-linejoin="round"/>
    <path d="M 129.9639892578125 26.025379180908203 C 111.34054565429688 92.42041778564453 148.51101684570312 143.06097412109375 104.04447174072266 62.21151351928711" stroke-width="5.236386299133301" fill="none" stroke="rgb(0, 0, 0)" stroke-opacity="1.0" stroke-linecap="round" stroke-linejoin="round"/>
    <path d="M 158.3572998046875 420.609619140625 C 149.101318359375 389.9051208496094 206.28793334960938 390.70733642578125 136.50535583496094 428.0635070800781 C 141.6596221923828 381.7575378417969 87.95000457763672 510.1894836425781 187.14414978027344 460.8457336425781" stroke-width="6.175715923309326" fill="none" stroke="rgb(255, 50, 0)" stroke-opacity="1.0" stroke-linecap="round" stroke-linejoin="round"/>
    <path d="M 124.8638916015625 440.9755554199219 C 87.59617614746094 535.1808471679688 242.2135467529297 435.584228515625 97.70135498046875 480.488525390625" stroke-width="14.87439250946045" fill="none" stroke="rgb(1, 14, 79)" stroke-opacity="0.739288" stroke-linecap="round" stroke-linejoin="round"/>
    <path d="M 120.95578002929688 238.82757568359375 C 104.0562515258789 423.5771484375 70.4853744506836 111.29757690429688 67.95948028564453 402.11993408203125" stroke-width="4.713141918182373" fill="none" stroke="rgb(75, 220, 0)" stroke-opacity="1.0" stroke-linecap="round" stroke-linejoin="round"/>
    <path d="M 123.50806427001953 46.705360412597656 C 78.67970275878906 -69.39907836914062 90.8155746459961 22.80697250366211 93.8090591430664 7.826396465301514 C 44.03798294067383 88.0280990600586 67.18634796142578 -33.12455368041992 163.9665985107422 15.237127304077148" stroke-width="12.059059143066406" fill="none" stroke="rgb(0, 0, 21)" stroke-opacity="1.0" stroke-linecap="round" stroke-linejoin="round"/>
    <path d="M 81.52416229248047 50.30824279785156 C 123.24950408935547 123.98125457763672 25.659320831298828 49.47505569458008 85.43191528320312 9.603511810302734 C 44.731021881103516 -52.25838088989258 -16.239322662353516 108.82848358154297 54.504329681396484 -0.5558449625968933" stroke-width="9.153725624084473" fill="none" stroke="rgb(98, 0, 0)" stroke-opacity="1.0" stroke-linecap="round" stroke-linejoin="round"/>
    <path d="M 234.62405395507812 185.87484741210938 C 112.68968963623047 177.4295196533203 175.21722412109375 169.6669158935547 171.3569793701172 218.96597290039062" stroke-width="7.826338291168213" fill="none" stroke="rgb(40, 40, 252)" stroke-opacity="0.37819406" stroke-linecap="round" stroke-linejoin="round"/>
    <path d="M 414.2611389160156 46.33952713012695 C 313.6078186035156 -15.036408424377441 520.7199096679688 -1.3878183364868164 412.8357238769531 21.471887588500977" stroke-width="14.309501647949219" fill="none" stroke="rgb(0, 58, 0)" stroke-opacity="1.0" stroke-linecap="round" stroke-linejoin="round"/>
    <path d="M 31.268749237060547 -8.686813354492188 C -14.399240493774414 178.02734375 44.49750518798828 79.4764404296875 -2.3317980766296387 40.341793060302734 C 24.948692321777344 -23.648502349853516 30.008872985839844 5.021650314331055 -4.618076324462891 108.0417709350586" stroke-width="15.10644245147705" fill="none" stroke="rgb(26, 6, 28)" stroke-opacity="0.99618113" stroke-linecap="round" stroke-linejoin="round"/>
    <path d="M 302.3990478515625 445.9632568359375 C 257.99212646484375 399.2798156738281 333.32122802734375 435.8395080566406 285.03216552734375 394.432861328125" stroke-width="8.595398902893066" fill="none" stroke="rgb(16, 0, 77)" stroke-opacity="0.3625951" stroke-linecap="round" stroke-linejoin="round"/>
    <path d="M 433.3193359375 162.67626953125 C 472.3731384277344 -1.8082995414733887 476.0141296386719 59.44994354248047 415.77008056640625 183.19149780273438 C 494.25042724609375 161.48974609375 386.220947265625 169.7482452392578 441.6173400878906 197.761962890625 C 469.9964904785156 128.5978240966797 538.1033935546875 135.1444854736328 434.7455749511719 229.3772735595703" stroke-width="6.770634174346924" fill="none" stroke="rgb(129, 76, 68)" stroke-opacity="1.0" stroke-linecap="round" stroke-linejoin="round"/>
    <path d="M 323.7476501464844 461.6780700683594 C 382.7040100097656 328.73529052734375 352.10028076171875 346.074462890625 353.2029113769531 412.10491943359375 C 373.79730224609375 481.0827941894531 364.2555847167969 436.96331787109375 399.29132080078125 375.3287048339844" stroke-width="10.443037986755371" fill="none" stroke="rgb(2, 93, 133)" stroke-opacity="0.56193465" stroke-linecap="round" stroke-linejoin="round"/>
    <path d="M -7.405158996582031 477.9201354980469 C 4.8470330238342285 406.0032653808594 25.406911849975586 437.9747009277344 11.612666130065918 506.54302978515625 C -7.531421184539795 438.32568359375 -39.512760162353516 514.270263671875 31.08870506286621 484.265625 C 7.932226181030273 390.6177062988281 30.23952293395996 286.6662292480469 3.1850647926330566 478.8759460449219" stroke-width="14.499658584594727" fill="none" stroke="rgb(0, 2, 10)" stroke-opacity="0.84773" stroke-linecap="round" stroke-linejoin="round"/>
    <path d="M 353.71954345703125 116.43310546875 C 300.2561950683594 127.6928482055664 355.14801025390625 174.24774169921875 330.3756103515625 139.89004516601562 C 300.2666015625 198.81100463867188 370.75897216796875 160.15672302246094 333.1203918457031 243.19073486328125 C 421.0617980957031 153.1108856201172 366.8111572265625 195.44790649414062 378.6249694824219 199.81883239746094" stroke-width="5.899667739868164" fill="none" stroke="rgb(255, 46, 6)" stroke-opacity="0.78742766" stroke-linecap="round" stroke-linejoin="round"/>
    <path d="M 234.48875427246094 444.63360595703125 C 155.10403442382812 480.180419921875 81.52631378173828 448.6415710449219 145.7842254638672 427.3760070800781 C 108.55671691894531 370.6755065917969 257.712646484375 471.34698486328125 224.5485076904297 403.04248046875 C 190.61898803710938 283.2560119628906 186.73329162597656 487.0895080566406 236.45071411132812 389.03656005859375" stroke-width="10.344310760498047" fill="none" stroke="rgb(0, 0, 14)" stroke-opacity="0.5610662" stroke-linecap="round" stroke-linejoin="round"/>
    <path d="M 157.55845642089844 414.00885009765625 C 140.45321655273438 322.74322509765625 161.54067993164062 304.8641052246094 253.97421264648438 342.43121337890625 C 150.0768280029297 389.95263671875 166.18072509765625 298.4119873046875 189.49562072753906 360.5604553222656 C 202.0937957763672 386.9400329589844 216.2220001220703 249.819091796875 225.78919982910156 320.85638427734375" stroke-width="3.776716470718384" fill="none" stroke="rgb(64, 31, 0)" stroke-opacity="1.0" stroke-linecap="round" stroke-linejoin="round"/>
    <path d="M 379.16937255859375 261.40032958984375 C 299.25689697265625 327.41217041015625 322.612060546875 356.6669921875 354.1975402832031 320.0598449707031 C 327.67816162109375 482.4691162109375 377.47003173828125 421.374755859375 343.97698974609375 454.325439453125" stroke-width="12.95318603515625" fill="none" stroke="rgb(0, 20, 24)" stroke-opacity="0.5108593" stroke-linecap="round" stroke-linejoin="round"/>
    <path d="M 261.66748046875 184.276611328125 C 271.1824951171875 141.91123962402344 264.0280456542969 142.8415069580078 268.84698486328125 156.81214904785156 C 264.49407958984375 173.23831176757812 283.31353759765625 144.1673583984375 289.7039489746094 137.84356689453125 C 270.164794921875 112.22171783447266 283.7718200683594 115.45750427246094 288.76190185546875 142.73484802246094" stroke-width="2.0" fill="none" stroke="rgb(255, 255, 255)" stroke-opacity="0.0" stroke-linecap="round" stroke-linejoin="round"/>
    <path d="M 31.97310447692871 362.8381652832031 C -37.203125 439.6806640625 33.95523452758789 466.2666015625 23.477643966674805 370.9554138183594 C 88.316162109375 405.9559326171875 42.22819137573242 280.5997619628906 14.506026268005371 340.5709228515625 C -6.244433403015137 346.0450439453125 58.724571228027344 362.9302978515625 31.288387298583984 365.4875793457031" stroke-width="9.142496109008789" fill="none" stroke="rgb(0, 0, 0)" stroke-opacity="1.0" stroke-linecap="round" stroke-linejoin="round"/>
    <path d="M 438.84295654296875 447.6702575683594 C 468.2702941894531 388.13885498046875 495.3316345214844 280.7867431640625 440.33050537109375 385.40924072265625 C 417.19915771484375 351.28436279296875 490.9806213378906 306.3142395019531 472.61260986328125 275.0286560058594 C 461.0413513183594 323.55352783203125 476.25640869140625 316.9576416015625 452.798828125 395.32122802734375" stroke-width="8.879046440124512" fill="none" stroke="rgb(0, 40, 109)" stroke-opacity="0.90972745" stroke-linecap="round" stroke-linejoin="round"/>
    <path d="M 376.7509460449219 290.8911437988281 C 350.9550476074219 271.28570556640625 395.0302429199219 267.3907165527344 388.8359375 175.62522888183594 C 432.7174377441406 280.3736877441406 459.7133483886719 273.86126708984375 389.9316101074219 248.38954162597656 C 391.44049072265625 274.80572509765625 446.3757019042969 254.32044982910156 406.1247863769531 302.6039733886719" stroke-width="3.9490506649017334" fill="none" stroke="rgb(36, 50, 55)" stroke-opacity="1.0" stroke-linecap="round" stroke-linejoin="round"/>
    <path d="M 192.6195831298828 383.4564208984375 C 196.1697235107422 324.3435974121094 231.220703125 308.57476806640625 188.28030395507812 363.95794677734375" stroke-width="7.643359661102295" fill="none" stroke="rgb(25, 0, 52)" stroke-opacity="1.0" stroke-linecap="round" stroke-linejoin="round"/>
    <path d="M 451.49053955078125 311.06292724609375 C 485.9170227050781 260.99493408203125 503.9980773925781 208.3181915283203 472.4621276855469 302.47119140625 C 495.12689208984375 344.1221923828125 501.7890930175781 234.25070190429688 518.4192504882812 301.3646545410156 C 567.3831176757812 288.7431945800781 569.4822998046875 266.4912414550781 556.5423583984375 249.1149444580078" stroke-width="8.279290199279785" fill="none" stroke="rgb(9, 80, 184)" stroke-opacity="0.859064" stroke-linecap="round" stroke-linejoin="round"/>
    <path d="M 178.8709716796875 379.349365234375 C 136.24166870117188 386.6510009765625 165.14422607421875 510.7538757324219 133.60211181640625 384.9214782714844" stroke-width="7.621668338775635" fill="none" stroke="rgb(0, 0, 0)" stroke-opacity="1.0" stroke-linecap="round" stroke-linejoin="round"/>
    <path d="M 381.90924072265625 267.8469543457031 C 357.80389404296875 280.276611328125 378.6490783691406 352.3126220703125 400.09124755859375 322.9855041503906 C 360.016357421875 312.361083984375 414.87255859375 327.743408203125 416.07305908203125 307.07830810546875 C 344.2795104980469 398.5205383300781 382.0772705078125 351.90155029296875 382.57086181640625 283.21087646484375" stroke-width="10.87000846862793" fill="none" stroke="rgb(0, 0, 10)" stroke-opacity="1.0" stroke-linecap="round" stroke-linejoin="round"/>
    <path d="M 264.8411865234375 350.8804016113281 C 251.56277465820312 411.4385070800781 296.6551208496094 339.7276306152344 269.9992980957031 316.1282958984375 C 286.5012512207031 282.68634033203125 268.284423828125 262.9318542480469 277.1899108886719 313.03887939453125" stroke-width="4.316951274871826" fill="none" stroke="rgb(105, 163, 27)" stroke-opacity="1.0" stroke-linecap="round" stroke-linejoin="round"/>
    <path d="M 299.8643798828125 423.1856994628906 C 320.9104309082031 430.7242431640625 293.9684753417969 434.67352294921875 249.29104614257812 417.14886474609375" stroke-width="4.590419769287109" fill="none" stroke="rgb(147, 206, 255)" stroke-opacity="0.45424455" stroke-linecap="round" stroke-linejoin="round"/>
    <path d="M 403.8316955566406 136.37391662597656 C 357.0533142089844 244.38821411132812 370.6678771972656 177.55184936523438 418.4512939453125 124.5757827758789 C 382.568359375 174.5986785888672 366.7957458496094 171.7063446044922 398.95318603515625 125.17724609375 C 371.209716796875 153.78433227539062 398.0254211425781 229.7486114501953 346.545166015625 83.01412200927734" stroke-width="5.105382442474365" fill="none" stroke="rgb(44, 0, 4)" stroke-opacity="1.0" stroke-linecap="round" stroke-linejoin="round"/>
    <path d="M 478.1977844238281 103.87865447998047 C 538.9203491210938 195.5852813720703 464.643798828125 137.1848602294922 511.4979553222656 188.17543029785156 C 421.2013854980469 199.19403076171875 501.6341857910156 231.9376220703125 506.9037170410156 196.20880126953125" stroke-width="13.02825927734375" fill="none" stroke="rgb(35, 0, 0)" stroke-opacity="0.8542524" stroke-linecap="round" stroke-linejoin="round"/>
    <path d="M 263.65435791015625 410.3487548828125 C 191.04397583007812 374.38775634765625 282.75439453125 462.80413818359375 328.23297119140625 473.0444641113281 C 278.5354919433594 486.3074645996094 254.92176818847656 462.34759521484375 246.891357421875 498.84295654296875 C 253.94027709960938 474.79510498046875 271.5431213378906 478.09637451171875 218.38352966308594 503.1061096191406" stroke-width="5.593062400817871" fill="none" stroke="rgb(3, 3, 0)" stroke-opacity="0.66528624" stroke-linecap="round" stroke-linejoin="round"/>
    <path d="M 155.51564025878906 83.6705093383789 C 205.87393188476562 212.0234375 164.1204376220703 -19.721031188964844 228.8191375732422 33.26545715332031 C 204.702880859375 29.28995704650879 153.5819091796875 152.6077117919922 205.23753356933594 76.54817962646484" stroke-width="6.786601543426514" fill="none" stroke="rgb(65, 73, 16)" stroke-opacity="0.84098685" stroke-linecap="round" stroke-linejoin="round"/>
    <path d="M 272.38348388671875 227.73448181152344 C 242.31167602539062 103.87831115722656 280.08587646484375 167.29617309570312 232.87353515625 219.6640625 C 206.7854461669922 163.9749298095703 202.1724090576172 213.12423706054688 186.45953369140625 193.97862243652344" stroke-width="5.586950302124023" fill="none" stroke="rgb(0, 48, 116)" stroke-opacity="0.40938175" stroke-linecap="round" stroke-linejoin="round"/>
    <path d="M 254.5415496826172 314.8531494140625 C 206.71453857421875 387.778076171875 264.8963928222656 294.6761779785156 271.8548889160156 356.5530090332031" stroke-width="7.1455230712890625" fill="none" stroke="rgb(13, 0, 0)" stroke-opacity="1.0" stroke-linecap="round" stroke-linejoin="round"/>
    <path d="M 462.76593017578125 253.66311645507812 C 503.3331604003906 349.759521484375 489.33782958984375 402.5525817871094 494.5149230957031 235.5513458251953" stroke-width="14.038040161132812" fill="none" stroke="rgb(37, 0, 0)" stroke-opacity="0.7604584" stroke-linecap="round" stroke-linejoin="round"/>
    <path d="M 20.782155990600586 295.8771667480469 C -28.78428840637207 358.4925231933594 27.270421981811523 278.4190673828125 29.401123046875 328.3460998535156 C -24.520063400268555 386.65728759765625 95.24027252197266 295.27874755859375 -5.883617401123047 401.19049072265625 C 17.257551193237305 433.0924987792969 17.371871948242188 410.1999816894531 -33.20090866088867 387.5604553222656" stroke-width="5.925588607788086" fill="none" stroke="rgb(156, 35, 0)" stroke-opacity="0.80753875" stroke-linecap="round" stroke-linejoin="round"/>
    <path d="M 341.1986999511719 261.9222106933594 C 379.6463623046875 382.26409912109375 389.6130065917969 450.0906982421875 347.61090087890625 327.36663818359375" stroke-width="4.789128303527832" fill="none" stroke="rgb(0, 0, 0)" stroke-opacity="1.0" stroke-linecap="round" stroke-linejoin="round"/>
    <path d="M 522.8330688476562 91.85350799560547 C 449.312255859375 86.27114868164062 487.3282470703125 93.80799102783203 410.5242614746094 120.53185272216797" stroke-width="12.496474266052246" fill="none" stroke="rgb(25, 29, 72)" stroke-opacity="0.6084697" stroke-linecap="round" stroke-linejoin="round"/>
    <path d="M 21.24275016784668 130.82577514648438 C -7.811448574066162 48.71885299682617 4.536054611206055 57.8106803894043 26.44347381591797 -0.32038888335227966 C -53.21260070800781 61.13109588623047 -9.309839248657227 -29.081979751586914 73.94932556152344 8.597322463989258" stroke-width="11.441131591796875" fill="none" stroke="rgb(0, 0, 27)" stroke-opacity="1.0" stroke-linecap="round" stroke-linejoin="round"/>
    <path d="M 461.0619812011719 261.428466796875 C 478.7578125 154.00827026367188 466.72052001953125 33.02489471435547 444.8280944824219 154.91879272460938 C 355.132568359375 237.4596405029297 476.7637939453125 142.7645263671875 430.7425231933594 267.78363037109375" stroke-width="10.319860458374023" fill="none" stroke="rgb(0, 30, 48)" stroke-opacity="0.71776235" stroke-linecap="round" stroke-linejoin="round"/>
    <path d="M 311.3077087402344 109.1768569946289 C 256.9927673339844 51.404319763183594 365.84320068359375 75.01451873779297 339.7986145019531 116.1661376953125" stroke-width="6.625217437744141" fill="none" stroke="rgb(255, 3, 43)" stroke-opacity="0.5565378" stroke-linecap="round" stroke-linejoin="round"/>
    <path d="M 98.8199234008789 420.7401428222656 C 113.01898193359375 454.10125732421875 96.65972900390625 451.3977355957031 130.43768310546875 440.42572021484375" stroke-width="4.331353187561035" fill="none" stroke="rgb(45, 255, 0)" stroke-opacity="1.0" stroke-linecap="round" stroke-linejoin="round"/>
    <path d="M 259.46173095703125 105.81918334960938 C 223.93612670898438 210.81312561035156 277.2235107421875 232.94737243652344 204.62892150878906 211.22203063964844 C 216.3392333984375 302.1600036621094 237.33517456054688 257.3855285644531 247.09967041015625 253.0594024658203 C 210.43394470214844 270.4933776855469 237.2375030517578 307.6170654296875 252.61585998535156 302.587646484375" stroke-width="11.466708183288574" fill="none" stroke="rgb(13, 28, 117)" stroke-opacity="0.2910786" stroke-linecap="round" stroke-linejoin="round"/>
    <path d="M 278.2723388671875 443.4222106933594 C 288.6402893066406 260.2102966308594 323.1385803222656 233.08055114746094 313.3085632324219 192.2726287841797" stroke-width="7.223347187042236" fill="none" stroke="rgb(98, 200, 71)" stroke-opacity="1.0" stroke-linecap="round" stroke-linejoin="round"/>
    <path d="M 8.338125228881836 221.76449584960938 C -26.15733528137207 156.4484405517578 18.173154830932617 191.42640686035156 13.039825439453125 266.7711486816406 C 19.515323638916016 206.705810546875 -59.982086181640625 197.2042694091797 31.93438720703125 293.16876220703125" stroke-width="8.055697441101074" fill="none" stroke="rgb(117, 21, 2)" stroke-opacity="0.9949914" stroke-linecap="round" stroke-linejoin="round"/>
    <path d="M 463.4425964355469 39.27674102783203 C 347.8968200683594 91.7415771484375 363.71746826171875 64.50110626220703 327.96295166015625 72.38690948486328" stroke-width="3.7915191650390625" fill="none" stroke="rgb(209, 0, 149)" stroke-opacity="0.62190264" stroke-linecap="round" stroke-linejoin="round"/>
    <path d="M 490.7076416015625 250.27586364746094 C 393.3513488769531 179.87718200683594 538.9969482421875 201.890869140625 448.02008056640625 143.67454528808594 C 613.1266479492188 37.737064361572266 493.12255859375 51.977867126464844 413.4903564453125 164.97195434570312 C 461.4558410644531 126.24092864990234 440.37310791015625 55.1512336730957 385.4077453613281 166.0503387451172" stroke-width="9.43254280090332" fill="none" stroke="rgb(17, 0, 31)" stroke-opacity="0.58756804" stroke-linecap="round" stroke-linejoin="round"/>
    <path d="M 359.7217102050781 505.79071044921875 C 383.78363037109375 488.21893310546875 414.3326721191406 478.1756591796875 425.4910888671875 464.048583984375 C 381.703857421875 463.74713134765625 411.0093078613281 385.26898193359375 414.58624267578125 462.1348876953125" stroke-width="2.000300884246826" fill="none" stroke="rgb(255, 255, 255)" stroke-opacity="0.0" stroke-linecap="round" stroke-linejoin="round"/>
    <path d="M 286.2253112792969 297.087890625 C 277.79620361328125 286.6883850097656 282.47509765625 290.431396484375 274.3003845214844 267.20867919921875" stroke-width="4.107363700866699" fill="none" stroke="rgb(95, 117, 0)" stroke-opacity="1.0" stroke-linecap="round" stroke-linejoin="round"/>
    <path d="M 523.4613037109375 387.8881530761719 C 483.4739685058594 418.82147216796875 498.70660400390625 400.7396545410156 539.0979614257812 409.64862060546875 C 487.15289306640625 376.80218505859375 491.9879150390625 375.4983825683594 441.6398620605469 471.4351501464844" stroke-width="9.944291114807129" fill="none" stroke="rgb(0, 50, 101)" stroke-opacity="0.6521978" stroke-linecap="round" stroke-linejoin="round"/>
    <path d="M 83.86222076416016 420.2153625488281 C 53.85464096069336 464.624267578125 62.87648391723633 400.3356018066406 86.42243194580078 401.0565490722656 C 195.6845703125 412.078857421875 154.0076904296875 406.82049560546875 78.42774200439453 415.3887023925781 C 106.97499084472656 408.43048095703125 89.03246307373047 473.397705078125 125.07694244384766 453.0184020996094" stroke-width="6.563157558441162" fill="none" stroke="rgb(0, 0, 5)" stroke-opacity="0.7450764" stroke-linecap="round" stroke-linejoin="round"/>
    <path d="M 427.75103759765625 469.55426025390625 C 392.6910400390625 393.001708984375 390.4312438964844 563.5590209960938 268.64990234375 642.605712890625 C 30.615041732788086 447.50994873046875 163.4189453125 477.6252136230469 319.5490417480469 484.8042907714844 C 303.57427978515625 519.3872680664062 296.3421630859375 490.20294189453125 348.4381103515625 464.7342529296875" stroke-width="7.929251670837402" fill="none" stroke="rgb(10, 0, 0)" stroke-opacity="0.71240824" stroke-linecap="round" stroke-linejoin="round"/>
    <path d="M 224.85621643066406 301.04052734375 C 210.5882110595703 273.081298828125 163.87049865722656 358.650146484375 215.87088012695312 297.79327392578125" stroke-width="4.619484901428223" fill="none" stroke="rgb(86, 25, 0)" stroke-opacity="1.0" stroke-linecap="round" stroke-linejoin="round"/>
    <path d="M 281.63372802734375 255.8844451904297 C 306.2584228515625 229.75405883789062 285.08935546875 190.70091247558594 278.74676513671875 222.03199768066406 C 325.551513671875 255.11758422851562 270.428955078125 228.74681091308594 287.49993896484375 281.1077575683594 C 300.5479736328125 273.0386047363281 254.6891632080078 272.7337646484375 287.34112548828125 159.87413024902344" stroke-width="5.259820461273193" fill="none" stroke="rgb(37, 22, 0)" stroke-opacity="1.0" stroke-linecap="round" stroke-linejoin="round"/>
    <path d="M 401.70916748046875 458.9302978515625 C 394.6880798339844 367.83502197265625 399.9566345214844 316.51068115234375 379.40362548828125 467.7115783691406 C 362.2821350097656 356.4869079589844 415.14849853515625 388.8255310058594 348.1794738769531 306.3514709472656 C 328.6517639160156 315.8839416503906 318.6458435058594 358.0918273925781 338.1755065917969 312.9710388183594" stroke-width="10.788068771362305" fill="none" stroke="rgb(8, 34, 0)" stroke-opacity="0.7452135" stroke-linecap="round" stroke-linejoin="round"/>
    <path d="M 372.257080078125 426.4651794433594 C 343.4415283203125 354.6960754394531 360.4688720703125 293.3731689453125 329.49560546875 418.9008483886719 C 313.15155029296875 378.4252014160156 307.2931823730469 344.7021789550781 291.76824951171875 305.1131286621094 C 364.7985534667969 359.6790466308594 325.5614929199219 399.9664611816406 307.53515625 301.0794372558594" stroke-width="6.075963973999023" fill="none" stroke="rgb(0, 0, 3)" stroke-opacity="0.5869181" stroke-linecap="round" stroke-linejoin="round"/>
    <path d="M 78.14128875732422 269.686767578125 C 24.737083435058594 333.865234375 47.153472900390625 251.66314697265625 6.020486354827881 280.4776611328125 C 60.010154724121094 315.3763122558594 58.53166580200195 374.75823974609375 62.40903854370117 294.16461181640625" stroke-width="11.796477317810059" fill="none" stroke="rgb(0, 34, 0)" stroke-opacity="0.57235855" stroke-linecap="round" stroke-linejoin="round"/>
    <path d="M 275.8793029785156 106.57896423339844 C 291.4227294921875 125.92577362060547 270.637939453125 122.89936065673828 282.18109130859375 121.19151306152344" stroke-width="2.0" fill="none" stroke="rgb(255, 255, 255)" stroke-opacity="0.0" stroke-linecap="round" stroke-linejoin="round"/>
    <path d="M 330.4465026855469 381.63043212890625 C 324.0191650390625 285.640380859375 349.4477844238281 291.9662780761719 336.3520812988281 302.06451416015625 C 377.36181640625 268.2673645019531 330.2208251953125 315.8211975097656 316.6637268066406 226.9969940185547" stroke-width="3.6114261150360107" fill="none" stroke="rgb(105, 23, 29)" stroke-opacity="0.89485914" stroke-linecap="round" stroke-linejoin="round"/>
    <path d="M 358.0216369628906 107.08218383789062 C 310.7698669433594 148.6359100341797 354.9437255859375 201.32508850097656 294.5925598144531 127.61674499511719 C 313.073974609375 189.0288543701172 290.33856201171875 130.8949737548828 281.9622802734375 262.2597351074219" stroke-width="10.218347549438477" fill="none" stroke="rgb(0, 29, 23)" stroke-opacity="0.60811883" stroke-linecap="round" stroke-linejoin="round"/>
    <path d="M 219.4938507080078 408.7923278808594 C 125.0670166015625 396.66571044921875 211.98416137695312 453.5815124511719 191.85897827148438 426.93316650390625" stroke-width="8.37962818145752" fill="none" stroke="rgb(47, 0, 0)" stroke-opacity="0.7017655" stroke-linecap="round" stroke-linejoin="round"/>
    <path d="M 159.1551055908203 189.8844757080078 C 139.08641052246094 -54.5288200378418 180.72047424316406 323.7955017089844 195.3563232421875 149.97897338867188 C 230.2823486328125 9.322343826293945 193.13720703125 180.8199462890625 222.50897216796875 11.718337059020996" stroke-width="7.621365547180176" fill="none" stroke="rgb(64, 142, 0)" stroke-opacity="0.9699228" stroke-linecap="round" stroke-linejoin="round"/>
    <path d="M 129.93679809570312 216.06138610839844 C 132.28305053710938 274.0166320800781 146.84957885742188 208.69900512695312 139.502685546875 305.1775817871094 C 148.17752075195312 285.5355224609375 125.24604034423828 272.26751708984375 154.81451416015625 275.8811340332031" stroke-width="8.131930351257324" fill="none" stroke="rgb(0, 8, 139)" stroke-opacity="0.4187665" stroke-linecap="round" stroke-linejoin="round"/>
    <path d="M 174.7790069580078 312.8695373535156 C 139.31629943847656 355.8974304199219 137.17373657226562 285.7480773925781 124.1243896484375 370.1565856933594" stroke-width="10.643951416015625" fill="none" stroke="rgb(4, 24, 21)" stroke-opacity="0.65656537" stroke-linecap="round" stroke-linejoin="round"/>
    <path d="M 291.3379211425781 474.53521728515625 C 142.2132568359375 428.297607421875 88.22196960449219 539.3421630859375 238.6411590576172 473.52459716796875" stroke-width="12.10125732421875" fill="none" stroke="rgb(0, 3, 0)" stroke-opacity="0.6343586" stroke-linecap="round" stroke-linejoin="round"/>
    <path d="M 274.629638671875 493.43560791015625 C 544.039794921875 508.3159484863281 443.7779846191406 470.5337219238281 507.1095275878906 492.521484375 C 422.1582336425781 522.0728759765625 402.6878356933594 454.1796569824219 442.644287109375 505.86572265625 C 565.244873046875 476.4656982421875 464.54290771484375 492.0746154785156 467.82537841796875 387.3270568847656" stroke-width="18.477115631103516" fill="none" stroke="rgb(0, 4, 5)" stroke-opacity="0.9304045" stroke-linecap="round" stroke-linejoin="round"/>
    <path d="M -12.212987899780273 497.74322509765625 C 144.57362365722656 487.9010925292969 180.69847106933594 519.8286743164062 205.30221557617188 488.12103271484375" stroke-width="9.631237030029297" fill="none" stroke="rgb(0, 0, 0)" stroke-opacity="0.89663815" stroke-linecap="round" stroke-linejoin="round"/>
    <path d="M 179.41868591308594 133.8154296875 C 133.70338439941406 -12.008639335632324 161.38519287109375 6.719046115875244 186.44212341308594 107.57923126220703" stroke-width="10.577037811279297" fill="none" stroke="rgb(0, 22, 0)" stroke-opacity="0.59818596" stroke-linecap="round" stroke-linejoin="round"/>
    <path d="M 83.70552062988281 234.85308837890625 C 44.038028717041016 100.31478881835938 35.99097442626953 264.319580078125 36.64884567260742 50.672996520996094 C 58.196250915527344 109.2350845336914 40.63542938232422 104.25495147705078 56.01883316040039 242.5433807373047 C 66.52810668945312 152.5770721435547 23.49614906311035 103.58238983154297 129.3459014892578 107.94190979003906" stroke-width="5.988964557647705" fill="none" stroke="rgb(37, 74, 102)" stroke-opacity="1.0" stroke-linecap="round" stroke-linejoin="round"/>
    <path d="M 77.96739959716797 381.34100341796875 C 67.97518920898438 238.54965209960938 64.99274444580078 233.6270751953125 99.99439239501953 372.69110107421875 C 252.76409912109375 257.7084045410156 138.3996124267578 280.5491943359375 73.9750747680664 404.24822998046875" stroke-width="7.878776550292969" fill="none" stroke="rgb(0, 0, 2)" stroke-opacity="0.37310296" stroke-linecap="round" stroke-linejoin="round"/>
    <path d="M 43.700191497802734 320.0506286621094 C -23.71670150756836 251.5748291015625 53.36113357543945 310.72869873046875 9.083102226257324 330.6900939941406 C 12.359275817871094 305.6112976074219 45.12181854248047 288.6347961425781 2.47182297706604 344.4393615722656 C 14.069608688354492 314.92510986328125 -11.343279838562012 362.3136291503906 -11.747882843017578 372.89715576171875" stroke-width="5.350787162780762" fill="none" stroke="rgb(0, 15, 2)" stroke-opacity="0.9095127" stroke-linecap="round" stroke-linejoin="round"/>
    <path d="M 369.912353515625 338.3537292480469 C 335.01971435546875 262.07470703125 353.8634948730469 295.0951232910156 396.8766784667969 179.39816284179688" stroke-width="15.384373664855957" fill="none" stroke="rgb(0, 22, 54)" stroke-opacity="0.6948892" stroke-linecap="round" stroke-linejoin="round"/>
    <path d="M 151.78109741210938 190.94598388671875 C 122.83851623535156 262.5157470703125 118.76624298095703 211.8729705810547 160.240234375 133.6715850830078" stroke-width="12.50543212890625" fill="none" stroke="rgb(1, 12, 0)" stroke-opacity="0.68621963" stroke-linecap="round" stroke-linejoin="round"/>
    <path d="M 419.6993103027344 74.87921905517578 C 341.8746032714844 107.23915100097656 272.2917785644531 43.81602478027344 364.447021484375 84.90839385986328" stroke-width="4.204329490661621" fill="none" stroke="rgb(77, 20, 55)" stroke-opacity="0.42244557" stroke-linecap="round" stroke-linejoin="round"/>
    <path d="M 250.71665954589844 18.472238540649414 C 349.24365234375 -30.454090118408203 331.6243896484375 15.618186950683594 292.0657653808594 1.1930570602416992" stroke-width="16.753210067749023" fill="none" stroke="rgb(0, 35, 58)" stroke-opacity="0.8941645" stroke-linecap="round" stroke-linejoin="round"/>
    <path d="M 377.3355407714844 359.2286376953125 C 417.95098876953125 138.2029266357422 437.3651123046875 160.8695068359375 399.6488037109375 378.36785888671875" stroke-width="11.928502082824707" fill="none" stroke="rgb(0, 11, 0)" stroke-opacity="0.7662859" stroke-linecap="round" stroke-linejoin="round"/>
    <path d="M 103.21248626708984 29.696796417236328 C 63.037994384765625 196.37342834472656 79.5916519165039 159.54759216308594 103.20376586914062 82.53856658935547 C 144.22242736816406 159.66244506835938 147.92910766601562 120.62220001220703 130.86912536621094 148.44915771484375 C 90.65352630615234 104.29568481445312 136.70692443847656 157.47784423828125 141.4941864013672 99.29326629638672" stroke-width="6.753120422363281" fill="none" stroke="rgb(180, 61, 16)" stroke-opacity="1.0" stroke-linecap="round" stroke-linejoin="round"/>
    <path d="M 110.59858703613281 275.1794128417969 C 55.66896438598633 247.24514770507812 163.13491821289062 154.39833068847656 103.43814086914062 250.42666625976562" stroke-width="7.351830005645752" fill="none" stroke="rgb(72, 191, 0)" stroke-opacity="1.0" stroke-linecap="round" stroke-linejoin="round"/>
    <path d="M 229.32191467285156 174.74993896484375 C 194.16299438476562 73.12523651123047 234.6915283203125 123.74944305419922 173.70277404785156 170.44775390625 C 166.0841827392578 107.7283706665039 209.75404357910156 272.79425048828125 176.17359924316406 184.49737548828125" stroke-width="4.969318389892578" fill="none" stroke="rgb(29, 0, 31)" stroke-opacity="0.7721599" stroke-linecap="round" stroke-linejoin="round"/>
    <path d="M 277.9010314941406 326.7186584472656 C 314.3676452636719 117.27691650390625 339.028564453125 187.9893341064453 320.62762451171875 232.07826232910156 C 340.9533996582031 225.31817626953125 268.8705749511719 184.8765106201172 337.19677734375 62.73515701293945" stroke-width="10.981581687927246" fill="none" stroke="rgb(28, 112, 0)" stroke-opacity="0.62969136" stroke-linecap="round" stroke-linejoin="round"/>
    <path d="M 340.9434814453125 314.5082092285156 C 378.06610107421875 279.98248291015625 359.84716796875 240.34104919433594 364.5374755859375 206.45127868652344 C 399.1229553222656 243.98544311523438 454.7943420410156 327.90679931640625 440.1782531738281 247.9966583251953 C 421.60211181640625 243.63232421875 387.923095703125 325.3816223144531 410.52630615234375 272.9071960449219" stroke-width="7.128770351409912" fill="none" stroke="rgb(151, 165, 163)" stroke-opacity="0.59212947" stroke-linecap="round" stroke-linejoin="round"/>
    <path d="M 512.3970336914062 89.80694580078125 C 439.3052673339844 26.070646286010742 494.0023193359375 93.02754974365234 452.34686279296875 64.81343841552734" stroke-width="10.714980125427246" fill="none" stroke="rgb(200, 37, 12)" stroke-opacity="0.95882183" stroke-linecap="round" stroke-linejoin="round"/>
    <path d="M 22.247011184692383 267.0224609375 C -12.768254280090332 178.26144409179688 -9.70174789428711 235.16146850585938 47.79022216796875 290.7298889160156" stroke-width="9.039336204528809" fill="none" stroke="rgb(30, 48, 73)" stroke-opacity="0.6046044" stroke-linecap="round" stroke-linejoin="round"/>
    <path d="M 303.90667724609375 123.07421875 C 412.12408447265625 65.13629150390625 145.66090393066406 29.854572296142578 272.84625244140625 89.8140869140625 C 403.77105712890625 17.7174015045166 221.96299743652344 49.44260787963867 260.7632141113281 84.84710693359375 C 348.2581787109375 -9.156816482543945 276.66314697265625 -20.258729934692383 288.8713073730469 38.68056106567383" stroke-width="6.5774993896484375" fill="none" stroke="rgb(129, 210, 78)" stroke-opacity="0.87388134" stroke-linecap="round" stroke-linejoin="round"/>
    <path d="M 498.30029296875 137.34657287597656 C 495.4812927246094 68.47115325927734 449.8369140625 38.53429412841797 493.06378173828125 86.29962921142578 C 493.5028381347656 150.52359008789062 478.56610107421875 71.69480895996094 493.116943359375 160.23895263671875" stroke-width="16.066743850708008" fill="none" stroke="rgb(0, 0, 7)" stroke-opacity="0.87738127" stroke-linecap="round" stroke-linejoin="round"/>
    <path d="M 382.4203796386719 125.9148941040039 C 393.3284606933594 3.173201560974121 506.4234313964844 129.02325439453125 379.6654968261719 2.071284294128418 C 288.04388427734375 161.43702697753906 195.19456481933594 0.8710795044898987 387.1120910644531 50.83615493774414" stroke-width="8.149499893188477" fill="none" stroke="rgb(203, 0, 0)" stroke-opacity="0.51198226" stroke-linecap="round" stroke-linejoin="round"/>
    <path d="M 13.552539825439453 359.13720703125 C 67.53490447998047 418.4791259765625 -1.140104055404663 336.65264892578125 69.0577163696289 436.2647399902344 C -52.845340728759766 505.2119445800781 45.090885162353516 317.1354675292969 33.664363861083984 439.76483154296875 C -33.463653564453125 396.8424987792969 34.46061706542969 273.4105224609375 5.577151775360107 287.85003662109375" stroke-width="19.222366333007812" fill="none" stroke="rgb(0, 0, 9)" stroke-opacity="0.76008815" stroke-linecap="round" stroke-linejoin="round"/>
    <path d="M 269.5845642089844 277.9854736328125 C 286.010009765625 295.9566955566406 221.7825927734375 316.75347900390625 240.39871215820312 314.3567810058594 C 222.54783630371094 344.3369140625 252.5775146484375 349.0489501953125 208.6047821044922 292.1102294921875 C 211.73480224609375 282.7303466796875 235.19309997558594 296.6259765625 196.9951934814453 320.2112731933594" stroke-width="8.637928009033203" fill="none" stroke="rgb(0, 76, 86)" stroke-opacity="0.5053087" stroke-linecap="round" stroke-linejoin="round"/>
    <path d="M 378.0535583496094 488.3627624511719 C 307.1529541015625 479.6825256347656 316.01593017578125 495.93548583984375 324.1414489746094 523.6881103515625 C 172.54734802246094 476.616455078125 213.9834747314453 503.5837097167969 378.857666015625 473.03582763671875" stroke-width="8.3079252243042" fill="none" stroke="rgb(4, 69, 0)" stroke-opacity="0.6294042" stroke-linecap="round" stroke-linejoin="round"/>
    <path d="M 129.46539306640625 263.17779541015625 C 164.9521942138672 294.86065673828125 169.28245544433594 303.1640930175781 111.10159301757812 260.81085205078125 C 87.5157470703125 379.4858703613281 118.27830505371094 342.29937744140625 100.76656341552734 284.8089294433594" stroke-width="4.404178142547607" fill="none" stroke="rgb(161, 15, 0)" stroke-opacity="0.53354084" stroke-linecap="round" stroke-linejoin="round"/>
    <path d="M 239.9821319580078 305.4498596191406 C 289.0838623046875 232.7869873046875 242.5863037109375 276.14373779296875 236.55763244628906 313.1170349121094 C 303.7587890625 296.3464660644531 272.7082214355469 287.6138610839844 254.4501953125 305.6856384277344" stroke-width="3.5303027629852295" fill="none" stroke="rgb(130, 39, 0)" stroke-opacity="0.7521125" stroke-linecap="round" stroke-linejoin="round"/>
    <path d="M 199.63458251953125 197.84097290039062 C 162.78829956054688 278.304443359375 169.51739501953125 203.37838745117188 238.97900390625 231.3030242919922 C 216.87313842773438 256.3824768066406 265.7071228027344 106.25690460205078 194.11981201171875 199.53839111328125" stroke-width="11.117342948913574" fill="none" stroke="rgb(56, 0, 33)" stroke-opacity="0.31691074" stroke-linecap="round" stroke-linejoin="round"/>
    <path d="M 508.7056884765625 -4.311647891998291 C 438.7503662109375 30.2916316986084 381.1201171875 55.937416076660156 476.5406799316406 -3.693495750427246" stroke-width="16.82680892944336" fill="none" stroke="rgb(57, 30, 39)" stroke-opacity="1.0" stroke-linecap="round" stroke-linejoin="round"/>
    <path d="M 246.57040405273438 88.18896484375 C 178.1566925048828 228.82545471191406 152.00082397460938 200.9043426513672 154.50973510742188 94.19773864746094" stroke-width="9.856048583984375" fill="none" stroke="rgb(149, 239, 113)" stroke-opacity="0.6703541" stroke-linecap="round" stroke-linejoin="round"/>
    <path d="M 88.31507110595703 314.66522216796875 C 42.437618255615234 425.7024230957031 76.5640640258789 318.3507385253906 50.97761154174805 344.1038818359375" stroke-width="6.955528259277344" fill="none" stroke="rgb(46, 163, 3)" stroke-opacity="1.0" stroke-linecap="round" stroke-linejoin="round"/>
    <path d="M 179.60858154296875 160.31878662109375 C 153.30519104003906 46.44824981689453 163.86827087402344 52.14234924316406 142.969970703125 80.62106323242188 C 158.4188232421875 -18.087848663330078 208.80894470214844 -16.16248893737793 114.96446990966797 43.76487731933594 C 143.7637176513672 -16.26685333251953 197.84156799316406 -25.782548904418945 126.3756103515625 20.84773063659668" stroke-width="4.179001331329346" fill="none" stroke="rgb(150, 59, 23)" stroke-opacity="1.0" stroke-linecap="round" stroke-linejoin="round"/>
    <path d="M 107.83757781982422 63.933433532714844 C 61.32344436645508 13.968642234802246 70.40676879882812 116.76717376708984 74.4356460571289 238.95538330078125 C 129.24024963378906 109.68994903564453 52.08889389038086 -11.519795417785645 134.23675537109375 186.513916015625" stroke-width="15.490682601928711" fill="none" stroke="rgb(0, 43, 63)" stroke-opacity="0.6421088" stroke-linecap="round" stroke-linejoin="round"/>
    <path d="M 261.7474670410156 197.82254028320312 C 255.1481170654297 252.5865936279297 227.05662536621094 273.2900085449219 207.9237823486328 209.12168884277344" stroke-width="9.427557945251465" fill="none" stroke="rgb(0, 92, 211)" stroke-opacity="0.37923363" stroke-linecap="round" stroke-linejoin="round"/>
    <path d="M 354.4007263183594 26.993694305419922 C 345.8577880859375 103.96344757080078 394.7724609375 80.27645874023438 359.6589050292969 53.87083435058594 C 420.3633117675781 -28.379188537597656 330.6636047363281 84.5672607421875 316.8121337890625 34.83964157104492" stroke-width="7.153076171875" fill="none" stroke="rgb(0, 24, 0)" stroke-opacity="0.7853638" stroke-linecap="round" stroke-linejoin="round"/>
    <path d="M 348.8507080078125 229.75051879882812 C 388.3155822753906 89.9927749633789 313.66241455078125 199.08416748046875 464.00213623046875 123.05913543701172" stroke-width="19.818313598632812" fill="none" stroke="rgb(102, 124, 182)" stroke-opacity="0.6077672" stroke-linecap="round" stroke-linejoin="round"/>
    <path d="M 453.35516357421875 353.65997314453125 C 457.635498046875 284.11492919921875 449.6397399902344 293.1554260253906 442.583984375 455.1091613769531" stroke-width="16.12468719482422" fill="none" stroke="rgb(54, 0, 10)" stroke-opacity="0.64321625" stroke-linecap="round" stroke-linejoin="round"/>
    <path d="M 251.40045166015625 454.5699462890625 C 461.18206787109375 475.2819519042969 346.497802734375 514.5104370117188 410.6958312988281 447.5740966796875" stroke-width="24.4447021484375" fill="none" stroke="rgb(129, 192, 144)" stroke-opacity="0.640886" stroke-linecap="round" stroke-linejoin="round"/>
    <path d="M 93.1424789428711 507.6117248535156 C 137.39515686035156 347.59423828125 164.88490295410156 414.1211242675781 133.2505645751953 402.8505859375 C 116.8015365600586 413.8370666503906 191.86199951171875 470.7174987792969 132.26095581054688 374.4986267089844" stroke-width="7.411947727203369" fill="none" stroke="rgb(130, 104, 255)" stroke-opacity="0.7628296" stroke-linecap="round" stroke-linejoin="round"/>
    <path d="M 41.59002685546875 80.45104217529297 C 1.6936320066452026 262.90997314453125 23.96506690979004 311.75262451171875 32.544918060302734 162.36915588378906 C 78.9391860961914 222.3975830078125 -5.369426727294922 146.47802734375 92.02169036865234 31.04439926147461" stroke-width="19.74589729309082" fill="none" stroke="rgb(2, 25, 63)" stroke-opacity="0.8665254" stroke-linecap="round" stroke-linejoin="round"/>
    <path d="M 369.0678405761719 294.5494384765625 C 366.3597717285156 353.4269104003906 376.7014465332031 371.88043212890625 414.1939697265625 315.8045959472656 C 363.086181640625 289.6686096191406 366.1255187988281 432.4398193359375 370.0284729003906 471.29083251953125" stroke-width="5.409797191619873" fill="none" stroke="rgb(141, 107, 66)" stroke-opacity="0.7864312" stroke-linecap="round" stroke-linejoin="round"/>
    <path d="M 168.15635681152344 276.6506042480469 C 183.72592163085938 300.0709533691406 228.62985229492188 311.00579833984375 186.5325164794922 349.41558837890625 C 205.1090545654297 398.9576110839844 173.7606964111328 276.3514404296875 213.4237518310547 270.1368103027344" stroke-width="6.619094371795654" fill="none" stroke="rgb(109, 121, 134)" stroke-opacity="0.81470174" stroke-linecap="round" stroke-linejoin="round"/>
    <path d="M 185.7440643310547 408.2528076171875 C 86.5570297241211 480.9876403808594 216.34579467773438 459.952392578125 157.25296020507812 450.8926696777344 C 131.91836547851562 412.1905822753906 117.9371337890625 456.739013671875 128.29393005371094 434.57196044921875" stroke-width="12.071122169494629" fill="none" stroke="rgb(0, 0, 21)" stroke-opacity="0.53021544" stroke-linecap="round" stroke-linejoin="round"/>
    <path d="M 179.6987762451172 264.83978271484375 C 92.1048812866211 167.67385864257812 292.9471435546875 260.39422607421875 186.7473602294922 184.0411834716797" stroke-width="8.86170768737793" fill="none" stroke="rgb(40, 0, 47)" stroke-opacity="0.3079478" stroke-linecap="round" stroke-linejoin="round"/>
    <path d="M 18.998910903930664 76.03622436523438 C 65.55143737792969 -7.857758045196533 24.99207878112793 9.842891693115234 149.6632537841797 20.559154510498047 C 195.15135192871094 -66.11367797851562 168.34320068359375 33.804412841796875 143.7126922607422 101.00059509277344" stroke-width="14.396471977233887" fill="none" stroke="rgb(0, 12, 36)" stroke-opacity="0.7449543" stroke-linecap="round" stroke-linejoin="round"/>
    <path d="M 149.49301147460938 18.805908203125 C 104.21757507324219 133.9980010986328 140.6996307373047 161.29965209960938 158.7265625 95.94168853759766" stroke-width="8.724105834960938" fill="none" stroke="rgb(0, 25, 52)" stroke-opacity="0.65316" stroke-linecap="round" stroke-linejoin="round"/>
    <path d="M 0.4628349542617798 372.4082946777344 C 23.663700103759766 317.4073486328125 75.63224792480469 351.35552978515625 21.352737426757812 394.6060791015625" stroke-width="13.209637641906738" fill="none" stroke="rgb(0, 19, 26)" stroke-opacity="0.7770988" stroke-linecap="round" stroke-linejoin="round"/>
    <path d="M 171.114013671875 334.53167724609375 C 100.13099670410156 423.66973876953125 93.88499450683594 375.5939025878906 111.58906555175781 415.89935302734375" stroke-width="12.454130172729492" fill="none" stroke="rgb(0, 3, 0)" stroke-opacity="1.0" stroke-linecap="round" stroke-linejoin="round"/>
    <path d="M 32.95064163208008 295.6598205566406 C -36.56256103515625 254.192138671875 17.293916702270508 214.59056091308594 -0.23794464766979218 297.29376220703125 C 13.635603904724121 321.0936279296875 -21.19051742553711 330.27764892578125 -23.927976608276367 324.94732666015625" stroke-width="5.780462265014648" fill="none" stroke="rgb(0, 0, 25)" stroke-opacity="0.83461666" stroke-linecap="round" stroke-linejoin="round"/>
    <path d="M 325.634765625 215.86924743652344 C 327.2537536621094 333.5198059082031 324.891845703125 229.3827667236328 311.3523864746094 426.1976623535156" stroke-width="17.27080535888672" fill="none" stroke="rgb(0, 68, 184)" stroke-opacity="0.64548475" stroke-linecap="round" stroke-linejoin="round"/>
    <path d="M 445.7671203613281 340.39447021484375 C 425.3494873046875 285.6528625488281 463.6438293457031 382.5840148925781 433.3071594238281 414.1861267089844 C 402.2507629394531 345.3903503417969 400.5854187011719 328.0986633300781 415.5155029296875 288.60333251953125" stroke-width="10.12362289428711" fill="none" stroke="rgb(0, 0, 0)" stroke-opacity="0.76521164" stroke-linecap="round" stroke-linejoin="round"/>
    <path d="M 401.4958801269531 235.9276123046875 C 389.769775390625 264.0472106933594 437.78118896484375 210.37818908691406 398.1456604003906 241.0196075439453 C 389.2720031738281 192.5744171142578 388.9325256347656 180.0363311767578 384.679443359375 214.97923278808594" stroke-width="3.6717352867126465" fill="none" stroke="rgb(0, 4, 16)" stroke-opacity="0.7793413" stroke-linecap="round" stroke-linejoin="round"/>
    <path d="M 188.86058044433594 306.6357727050781 C 171.54644775390625 422.19873046875 233.36764526367188 370.45709228515625 243.95826721191406 345.7561340332031 C 290.4729309082031 426.69952392578125 251.0306854248047 357.96209716796875 225.26881408691406 368.1745300292969 C 232.7925567626953 350.1162109375 193.70663452148438 370.99176025390625 217.05426025390625 352.20770263671875" stroke-width="6.512946605682373" fill="none" stroke="rgb(0, 0, 0)" stroke-opacity="0.66636753" stroke-linecap="round" stroke-linejoin="round"/>
    <path d="M 433.96185302734375 106.6240005493164 C 425.9831237792969 65.91220092773438 411.3755798339844 107.77481079101562 382.2156066894531 150.2534637451172 C 364.1094665527344 82.66175842285156 374.17974853515625 160.39697265625 385.19024658203125 139.1466827392578 C 394.11383056640625 146.08497619628906 408.6358947753906 84.80924224853516 423.22509765625 140.34678649902344" stroke-width="5.164915561676025" fill="none" stroke="rgb(244, 61, 27)" stroke-opacity="1.0" stroke-linecap="round" stroke-linejoin="round"/>
    <path d="M 234.120361328125 202.94915771484375 C 224.51502990722656 290.7114562988281 230.63330078125 248.3026885986328 239.4772186279297 234.61294555664062" stroke-width="6.226612091064453" fill="none" stroke="rgb(33, 0, 28)" stroke-opacity="0.35405883" stroke-linecap="round" stroke-linejoin="round"/>
    <path d="M 259.4914855957031 116.01264953613281 C 286.1268005371094 136.4628448486328 251.2445831298828 155.10646057128906 275.9798583984375 127.96368408203125 C 293.0860900878906 88.52718353271484 324.3569641113281 107.23281860351562 277.93231201171875 172.5047149658203" stroke-width="7.900061130523682" fill="none" stroke="rgb(79, 10, 0)" stroke-opacity="0.5650561" stroke-linecap="round" stroke-linejoin="round"/>
    <path d="M 193.50469970703125 370.6468505859375 C 222.1244354248047 300.7359313964844 229.8192901611328 350.52056884765625 240.8978271484375 363.97564697265625 C 205.66554260253906 283.38177490234375 216.26467895507812 319.2144470214844 238.67127990722656 365.9124450683594 C 222.7342987060547 310.7377624511719 183.22511291503906 436.4983825683594 213.91424560546875 385.6043395996094" stroke-width="2.3726677894592285" fill="none" stroke="rgb(236, 51, 0)" stroke-opacity="1.0" stroke-linecap="round" stroke-linejoin="round"/>
    <path d="M 40.533809661865234 268.77154541015625 C 61.59633255004883 122.85720825195312 29.831050872802734 181.8700408935547 59.223209381103516 154.6689453125" stroke-width="11.043279647827148" fill="none" stroke="rgb(90, 46, 38)" stroke-opacity="0.9730444" stroke-linecap="round" stroke-linejoin="round"/>
    <path d="M 315.307373046875 0.0917336493730545 C 245.9476318359375 118.4545669555664 250.2113800048828 76.81513214111328 256.9951171875 54.24029541015625 C 278.26580810546875 41.388648986816406 236.1959991455078 -2.476591110229492 301.3677062988281 55.493831634521484" stroke-width="6.953340530395508" fill="none" stroke="rgb(27, 119, 0)" stroke-opacity="0.9006852" stroke-linecap="round" stroke-linejoin="round"/>
    <path d="M 279.8730773925781 426.85479736328125 C 250.89874267578125 358.9413757324219 311.095703125 392.6796875 255.57351684570312 314.7130432128906" stroke-width="5.966738224029541" fill="none" stroke="rgb(56, 114, 0)" stroke-opacity="0.8914451" stroke-linecap="round" stroke-linejoin="round"/>
    <path d="M 40.23615646362305 259.6851501464844 C 5.5514140129089355 199.31314086914062 -9.553239822387695 164.11175537109375 7.426736831665039 151.00439453125 C 58.82061004638672 259.3245849609375 -48.120941162109375 175.87547302246094 12.390626907348633 251.7062530517578" stroke-width="14.05473804473877" fill="none" stroke="rgb(0, 8, 14)" stroke-opacity="0.5977188" stroke-linecap="round" stroke-linejoin="round"/>
    <path d="M 363.26953125 498.29248046875 C 159.98867797851562 493.8180236816406 156.4268798828125 503.3685302734375 97.2785873413086 482.54425048828125" stroke-width="8.485302925109863" fill="none" stroke="rgb(14, 1, 6)" stroke-opacity="0.9294249" stroke-linecap="round" stroke-linejoin="round"/>
    <path d="M 330.69189453125 15.848103523254395 C 424.2572937011719 29.95941162109375 413.5678405761719 17.068180084228516 364.7958679199219 81.79340362548828 C 378.4541015625 30.429841995239258 354.08526611328125 37.34881591796875 347.3133850097656 56.72066879272461 C 356.4054870605469 40.401676177978516 320.3616943359375 -20.283206939697266 304.3921813964844 80.4002685546875" stroke-width="14.248234748840332" fill="none" stroke="rgb(0, 59, 61)" stroke-opacity="0.53746057" stroke-linecap="round" stroke-linejoin="round"/>
    <path d="M 385.67340087890625 239.0657958984375 C 403.2554016113281 289.03204345703125 356.647705078125 298.013671875 403.8988952636719 261.0518798828125 C 405.5317077636719 418.4412841796875 457.78900146484375 377.6885681152344 395.58306884765625 271.1771240234375 C 410.5430908203125 344.0151062011719 359.4068908691406 392.3212890625 409.52606201171875 320.4808654785156" stroke-width="3.8122031688690186" fill="none" stroke="rgb(91, 161, 82)" stroke-opacity="1.0" stroke-linecap="round" stroke-linejoin="round"/>
    <path d="M 459.1791076660156 50.95691680908203 C 540.2102661132812 6.964614391326904 421.1468811035156 -4.770998954772949 501.8466796875 30.70619010925293" stroke-width="5.412412643432617" fill="none" stroke="rgb(0, 12, 14)" stroke-opacity="1.0" stroke-linecap="round" stroke-linejoin="round"/>
    <path d="M 50.5208625793457 302.2901916503906 C 28.470911026000977 244.3435821533203 -21.30355453491211 299.37786865234375 19.061887741088867 264.6429748535156" stroke-width="6.399260520935059" fill="none" stroke="rgb(8, 0, 6)" stroke-opacity="1.0" stroke-linecap="round" stroke-linejoin="round"/>
    <path d="M 64.18766784667969 292.9267272949219 C 130.2223358154297 248.33323669433594 26.417451858520508 254.51380920410156 47.522361755371094 301.4885559082031 C 58.59043884277344 259.8864440917969 78.73506927490234 258.58935546875 103.46521759033203 325.7514953613281" stroke-width="7.379681587219238" fill="none" stroke="rgb(0, 23, 17)" stroke-opacity="0.7189436" stroke-linecap="round" stroke-linejoin="round"/>
    <path d="M 94.29346466064453 420.0589294433594 C 87.28753662109375 377.94732666015625 116.04826354980469 403.9867248535156 151.8987274169922 345.3517150878906 C 165.94903564453125 427.0034484863281 129.70547485351562 316.2637939453125 127.3296127319336 392.5386047363281 C 118.99687957763672 329.78790283203125 203.57940673828125 323.42449951171875 61.1104850769043 383.8777160644531" stroke-width="4.268677711486816" fill="none" stroke="rgb(239, 235, 205)" stroke-opacity="0.6256431" stroke-linecap="round" stroke-linejoin="round"/>
    <path d="M 129.56597900390625 31.891189575195312 C 140.9032440185547 211.5877227783203 157.02940368652344 116.14126586914062 134.7635040283203 124.60602569580078 C 157.46450805664062 138.9498748779297 138.8450927734375 79.50372314453125 130.93270874023438 158.71307373046875" stroke-width="22.610246658325195" fill="none" stroke="rgb(0, 16, 18)" stroke-opacity="0.641208" stroke-linecap="round" stroke-linejoin="round"/>
    <path d="M 7.268891334533691 211.9525909423828 C 43.623958587646484 188.65658569335938 4.943512439727783 313.46710205078125 52.24403381347656 162.58041381835938 C 116.74888610839844 160.5543670654297 -26.021024703979492 271.8058776855469 64.9501953125 225.9292449951172 C 69.3427963256836 195.32752990722656 78.27523803710938 218.9886474609375 38.32569885253906 262.73931884765625" stroke-width="8.88252067565918" fill="none" stroke="rgb(0, 3, 40)" stroke-opacity="0.7373606" stroke-linecap="round" stroke-linejoin="round"/>
    <path d="M 191.77420043945312 446.60565185546875 C 157.85704040527344 396.55609130859375 144.9944305419922 464.8533020019531 172.40399169921875 360.7296142578125" stroke-width="9.989566802978516" fill="none" stroke="rgb(0, 11, 111)" stroke-opacity="0.56589216" stroke-linecap="round" stroke-linejoin="round"/>
    <path d="M 37.388607025146484 107.12693786621094 C 91.44306182861328 272.4045715332031 127.60565185546875 277.6517028808594 87.10194396972656 196.79928588867188 C 161.44134521484375 163.70079040527344 46.82400894165039 197.18441772460938 102.10667419433594 158.67579650878906" stroke-width="7.18275785446167" fill="none" stroke="rgb(0, 0, 0)" stroke-opacity="0.81431216" stroke-linecap="round" stroke-linejoin="round"/>
    <path d="M 81.6767807006836 469.2191162109375 C 86.36206817626953 435.2952575683594 112.81727600097656 461.92034912109375 95.34446716308594 449.2702331542969 C 112.033203125 431.0849304199219 47.69019317626953 396.0260009765625 110.65862274169922 468.84893798828125" stroke-width="4.950952529907227" fill="none" stroke="rgb(0, 0, 0)" stroke-opacity="1.0" stroke-linecap="round" stroke-linejoin="round"/>
    <path d="M 333.1735534667969 26.686677932739258 C 351.405517578125 -9.269072532653809 355.9217224121094 34.792667388916016 426.4256591796875 11.004637718200684 C 360.0411071777344 -10.129496574401855 348.29949951171875 -21.874408721923828 402.8370666503906 52.95205307006836 C 462.7065124511719 -9.157685279846191 235.6103973388672 -14.167289733886719 253.88336181640625 46.747623443603516" stroke-width="11.635031700134277" fill="none" stroke="rgb(0, 2, 0)" stroke-opacity="0.84523165" stroke-linecap="round" stroke-linejoin="round"/>
    <path d="M 37.278175354003906 341.6453552246094 C 81.7576675415039 399.3760681152344 17.954137802124023 307.608154296875 101.07738494873047 486.0653381347656 C 88.9636459350586 542.9033203125 -1.6074990034103394 296.9968566894531 68.37071990966797 425.4835205078125" stroke-width="4.391545295715332" fill="none" stroke="rgb(107, 208, 73)" stroke-opacity="1.0" stroke-linecap="round" stroke-linejoin="round"/>
    <path d="M 471.1430358886719 14.493319511413574 C 421.4460144042969 32.85101318359375 434.2377014160156 -46.59867858886719 398.8489990234375 -18.98799705505371 C 403.7044372558594 21.684486389160156 376.207275390625 13.770966529846191 429.0817565917969 -19.280275344848633 C 305.8157653808594 23.19150161743164 383.3040771484375 -16.20863914489746 378.2131042480469 38.446353912353516" stroke-width="8.019176483154297" fill="none" stroke="rgb(0, 1, 0)" stroke-opacity="1.0" stroke-linecap="round" stroke-linejoin="round"/>
    <path d="M 494.5545654296875 269.9309997558594 C 460.5525207519531 243.53515625 513.3406982421875 173.1637725830078 493.49041748046875 247.75210571289062 C 399.52520751953125 144.78030395507812 568.7630615234375 257.7567443847656 469.9303894042969 158.58169555664062" stroke-width="11.634334564208984" fill="none" stroke="rgb(0, 0, 15)" stroke-opacity="0.8761572" stroke-linecap="round" stroke-linejoin="round"/>
    <path d="M 346.91070556640625 249.86448669433594 C 345.07635498046875 283.5246276855469 350.02276611328125 244.54379272460938 424.19586181640625 218.02987670898438 C 371.5301818847656 183.48133850097656 361.8395080566406 227.3074188232422 361.8534851074219 252.01536560058594 C 366.88824462890625 247.61721801757812 339.820556640625 272.7179870605469 373.0241394042969 231.91815185546875" stroke-width="6.062840938568115" fill="none" stroke="rgb(0, 3, 3)" stroke-opacity="0.7207518" stroke-linecap="round" stroke-linejoin="round"/>
    <path d="M 242.21080017089844 282.9784240722656 C 301.7621154785156 268.2284851074219 251.42897033691406 237.87997436523438 280.0426940917969 308.39599609375" stroke-width="5.121168613433838" fill="none" stroke="rgb(0, 12, 0)" stroke-opacity="0.9503338" stroke-linecap="round" stroke-linejoin="round"/>
    <path d="M 388.62884521484375 63.928775787353516 C 294.022216796875 196.3775634765625 336.7660217285156 267.90972900390625 359.90386962890625 137.7626190185547 C 450.78076171875 135.2783203125 376.8648376464844 124.76091003417969 345.85791015625 87.69276428222656" stroke-width="12.495304107666016" fill="none" stroke="rgb(0, 56, 60)" stroke-opacity="0.51423466" stroke-linecap="round" stroke-linejoin="round"/>
    <path d="M 326.0590515136719 457.362060546875 C 301.8254089355469 443.562255859375 339.3131103515625 469.1898498535156 325.23956298828125 390.2583923339844 C 270.1999816894531 326.9810485839844 277.6466369628906 332.6870422363281 314.41094970703125 441.0732421875" stroke-width="9.032927513122559" fill="none" stroke="rgb(37, 0, 15)" stroke-opacity="0.37846634" stroke-linecap="round" stroke-linejoin="round"/>
    <path d="M 111.8236083984375 98.22222900390625 C 84.7715835571289 95.96731567382812 104.10425567626953 160.47560119628906 82.88859558105469 89.81224060058594" stroke-width="7.862372875213623" fill="none" stroke="rgb(0, 11, 0)" stroke-opacity="1.0" stroke-linecap="round" stroke-linejoin="round"/>
    <path d="M 17.754833221435547 150.47183227539062 C 12.989150047302246 21.151073455810547 93.1133804321289 0.8656455278396606 51.788543701171875 -2.861142158508301 C 49.725669860839844 94.6393814086914 131.6038055419922 5.791372299194336 104.58563232421875 71.39894104003906 C 3.9686758518218994 108.24200439453125 123.83091735839844 155.90914916992188 103.57879638671875 219.82879638671875" stroke-width="23.37363052368164" fill="none" stroke="rgb(0, 0, 5)" stroke-opacity="0.6227658" stroke-linecap="round" stroke-linejoin="round"/>
    <path d="M 63.32121658325195 30.1568660736084 C 42.09226989746094 109.77377319335938 50.9197883605957 86.30403137207031 35.58174514770508 18.740489959716797" stroke-width="9.232378005981445" fill="none" stroke="rgb(4, 0, 9)" stroke-opacity="0.79706013" stroke-linecap="round" stroke-linejoin="round"/>
    <path d="M 348.29217529296875 327.72381591796875 C 349.5369873046875 179.86456298828125 360.076416015625 144.13706970214844 407.4405212402344 222.21566772460938 C 427.6798400878906 283.6783142089844 356.17535400390625 293.714111328125 373.9867858886719 341.3294982910156 C 347.8231506347656 329.40655517578125 286.3426818847656 276.21600341796875 327.92022705078125 277.7198791503906" stroke-width="8.651697158813477" fill="none" stroke="rgb(51, 101, 165)" stroke-opacity="0.6357652" stroke-linecap="round" stroke-linejoin="round"/>
    <path d="M 367.796630859375 465.6007995605469 C 409.2248840332031 409.2432556152344 387.9723815917969 339.8191223144531 427.4535827636719 388.80535888671875 C 442.77972412109375 468.2832336425781 414.3912353515625 442.1416931152344 430.08599853515625 400.5364990234375 C 367.5077209472656 474.3094177246094 434.01251220703125 380.5256042480469 402.62750244140625 355.3364562988281" stroke-width="6.76809024810791" fill="none" stroke="rgb(126, 185, 108)" stroke-opacity="1.0" stroke-linecap="round" stroke-linejoin="round"/>
    <path d="M 404.5373229980469 86.49588775634766 C 414.8265686035156 84.3985595703125 390.1570129394531 69.16419982910156 437.2259216308594 17.470426559448242 C 441.6098937988281 164.51219177246094 430.5297546386719 38.50228500366211 470.68707275390625 -3.3010857105255127" stroke-width="5.740699291229248" fill="none" stroke="rgb(61, 162, 0)" stroke-opacity="1.0" stroke-linecap="round" stroke-linejoin="round"/>
    <path d="M 407.74322509765625 483.72802734375 C 533.986083984375 411.4553527832031 407.9097900390625 507.55242919921875 428.1184387207031 503.1715393066406 C 456.4017028808594 483.5871276855469 387.20721435546875 431.93157958984375 429.95343017578125 392.74591064453125 C 455.5581359863281 509.716552734375 374.5430603027344 397.2940368652344 475.2318420410156 254.5058135986328" stroke-width="16.67061424255371" fill="none" stroke="rgb(78, 86, 176)" stroke-opacity="0.5960377" stroke-linecap="round" stroke-linejoin="round"/>
    <path d="M 137.2582550048828 112.10887145996094 C -32.92503356933594 146.96788024902344 185.59170532226562 166.41043090820312 152.73294067382812 112.08300018310547" stroke-width="9.249407768249512" fill="none" stroke="rgb(169, 187, 179)" stroke-opacity="0.35986304" stroke-linecap="round" stroke-linejoin="round"/>
    <path d="M 158.45474243164062 375.3043518066406 C 80.52774810791016 356.318359375 36.338871002197266 464.4627990722656 112.22462463378906 365.507568359375 C 148.9285888671875 427.28204345703125 129.49168395996094 371.70501708984375 201.19786071777344 321.7250671386719 C 192.89590454101562 343.6480407714844 194.55809020996094 321.92327880859375 86.4460678100586 384.4168395996094" stroke-width="3.1936564445495605" fill="none" stroke="rgb(43, 114, 44)" stroke-opacity="0.73027164" stroke-linecap="round" stroke-linejoin="round"/>
    <path d="M 22.306392669677734 203.7279052734375 C -17.389509201049805 159.06594848632812 15.81572151184082 102.42759704589844 2.568234443664551 66.97319793701172 C -10.596652030944824 15.041305541992188 -29.941083908081055 42.59968948364258 20.57977867126465 170.78060913085938" stroke-width="8.268375396728516" fill="none" stroke="rgb(0, 0, 11)" stroke-opacity="0.8942882" stroke-linecap="round" stroke-linejoin="round"/>
    <path d="M 380.1256408691406 182.873779296875 C 351.75152587890625 142.28213500976562 321.54534912109375 199.01080322265625 361.1738586425781 235.2870635986328 C 346.758056640625 219.17999267578125 294.0295715332031 177.09324645996094 321.9515075683594 122.6648941040039" stroke-width="4.254782199859619" fill="none" stroke="rgb(193, 189, 253)" stroke-opacity="1.0" stroke-linecap="round" stroke-linejoin="round"/>
    <path d="M 430.3601989746094 226.30722045898438 C 442.6017150878906 256.52911376953125 444.9567565917969 199.2041473388672 412.9712219238281 180.6739959716797 C 396.6763916015625 165.28927612304688 450.6190185546875 349.7599182128906 431.709716796875 320.5747375488281 C 476.2171325683594 196.47256469726562 456.2723083496094 212.9418487548828 440.4823303222656 272.2740783691406" stroke-width="3.982837200164795" fill="none" stroke="rgb(0, 29, 0)" stroke-opacity="1.0" stroke-linecap="round" stroke-linejoin="round"/>
    <path d="M 75.07898712158203 500.493896484375 C 100.84757995605469 411.3390197753906 127.0715560913086 411.4724426269531 167.06430053710938 356.44488525390625" stroke-width="5.474590301513672" fill="none" stroke="rgb(68, 212, 0)" stroke-opacity="1.0" stroke-linecap="round" stroke-linejoin="round"/>
    <path d="M 492.8395690917969 147.2877960205078 C 440.6478576660156 84.00314331054688 487.28887939453125 97.44454956054688 470.6820068359375 60.86578369140625 C 502.2978210449219 55.597984313964844 517.2362060546875 32.505680084228516 518.1536254882812 62.772918701171875" stroke-width="16.802812576293945" fill="none" stroke="rgb(0, 27, 58)" stroke-opacity="0.80097663" stroke-linecap="round" stroke-linejoin="round"/>
    <path d="M 425.2330322265625 258.6334533691406 C 438.3381652832031 205.02142333984375 454.569580078125 224.1033935546875 437.29412841796875 174.74363708496094 C 419.6605529785156 246.35121154785156 399.4825744628906 229.2291717529297 418.60284423828125 163.74977111816406" stroke-width="9.323504447937012" fill="none" stroke="rgb(6, 7, 0)" stroke-opacity="0.58902013" stroke-linecap="round" stroke-linejoin="round"/>
    <path d="M 87.67887115478516 225.5091094970703 C 133.906494140625 174.30337524414062 72.5135269165039 153.9688720703125 135.13865661621094 219.79815673828125 C 157.80279541015625 271.9376220703125 121.17268371582031 195.7755584716797 159.99273681640625 187.67213439941406 C 171.67465209960938 211.21507263183594 152.90231323242188 181.44830322265625 154.48326110839844 218.46847534179688" stroke-width="4.154216289520264" fill="none" stroke="rgb(91, 217, 33)" stroke-opacity="0.9402934" stroke-linecap="round" stroke-linejoin="round"/>
    <path d="M 416.329833984375 175.4920196533203 C 405.999755859375 179.95701599121094 401.4991455078125 119.53819274902344 445.93841552734375 59.652992248535156 C 451.5655517578125 139.66680908203125 501.7247314453125 45.628822326660156 477.0906677246094 14.949529647827148 C 472.6974792480469 87.80821990966797 396.63458251953125 39.69723892211914 383.73223876953125 142.6022491455078" stroke-width="12.419533729553223" fill="none" stroke="rgb(0, 0, 57)" stroke-opacity="0.57284474" stroke-linecap="round" stroke-linejoin="round"/>
    <path d="M 236.7893524169922 317.3686828613281 C 210.30645751953125 287.5589294433594 230.43211364746094 333.4962463378906 238.745361328125 270.0696105957031 C 174.30862426757812 225.58648681640625 159.4571075439453 244.5052947998047 244.27410888671875 281.2032775878906" stroke-width="5.670207977294922" fill="none" stroke="rgb(205, 228, 255)" stroke-opacity="0.8875814" stroke-linecap="round" stroke-linejoin="round"/>
    <path d="M 492.7241516113281 403.0193786621094 C 495.4574890136719 437.5341491699219 509.0985107421875 228.912353515625 491.1695861816406 310.5183410644531 C 490.1730041503906 472.1226501464844 451.2510681152344 366.8548278808594 505.3870849609375 460.76715087890625 C 428.7708740234375 502.7373962402344 443.9798583984375 500.8516845703125 510.66455078125 398.2212219238281" stroke-width="11.689412117004395" fill="none" stroke="rgb(0, 0, 4)" stroke-opacity="0.86849314" stroke-linecap="round" stroke-linejoin="round"/>
    <path d="M 428.0934143066406 54.86956787109375 C 460.9019470214844 151.5869903564453 452.516357421875 56.75454330444336 473.43792724609375 65.95777893066406 C 461.9985656738281 -0.4967364966869354 512.6353759765625 68.71519470214844 494.0828857421875 -8.646153450012207 C 498.7655944824219 110.90103912353516 481.871826171875 92.58637237548828 537.2660522460938 58.101097106933594" stroke-width="10.268407821655273" fill="none" stroke="rgb(0, 0, 10)" stroke-opacity="0.8675573" stroke-linecap="round" stroke-linejoin="round"/>
    <path d="M 254.1484832763672 428.84423828125 C 116.77854919433594 454.9254150390625 113.99659729003906 415.5440979003906 219.45907592773438 397.1733093261719" stroke-width="13.145088195800781" fill="none" stroke="rgb(0, 0, 1)" stroke-opacity="0.61097896" stroke-linecap="round" stroke-linejoin="round"/>
    <path d="M 256.7484130859375 351.147216796875 C 216.71087646484375 376.02825927734375 219.54112243652344 328.5790100097656 235.86375427246094 336.9835205078125 C 235.34365844726562 305.8274230957031 208.8085174560547 403.30108642578125 177.2434844970703 371.0556945800781" stroke-width="10.71661376953125" fill="none" stroke="rgb(0, 31, 102)" stroke-opacity="0.58425903" stroke-linecap="round" stroke-linejoin="round"/>
    <path d="M 283.4488830566406 194.8268585205078 C 255.38082885742188 68.1271743774414 318.46429443359375 105.53846740722656 346.34844970703125 97.50479125976562 C 391.1038818359375 65.41873931884766 324.6061706542969 128.582763671875 397.37158203125 98.1849136352539" stroke-width="13.116853713989258" fill="none" stroke="rgb(138, 183, 241)" stroke-opacity="0.7001248" stroke-linecap="round" stroke-linejoin="round"/>
    <path d="M 173.02244567871094 134.08294677734375 C 152.59390258789062 1.2457504272460938 142.3806610107422 72.79328155517578 173.01182556152344 34.02961349487305 C 187.8777618408203 76.48778533935547 172.06515502929688 65.34213256835938 171.7462921142578 -20.33395767211914 C 212.12123107910156 102.37296295166016 165.85906982421875 -8.302062034606934 235.82301330566406 4.520873546600342" stroke-width="7.793900966644287" fill="none" stroke="rgb(0, 9, 0)" stroke-opacity="1.0" stroke-linecap="round" stroke-linejoin="round"/>
    <path d="M 463.21954345703125 145.979736328125 C 458.4067077636719 220.7340850830078 444.84002685546875 124.15264129638672 452.2779846191406 222.18380737304688 C 449.99407958984375 331.8670654296875 453.3045959472656 224.13063049316406 425.339111328125 340.4326171875" stroke-width="14.827437400817871" fill="none" stroke="rgb(3, 97, 0)" stroke-opacity="0.58131814" stroke-linecap="round" stroke-linejoin="round"/>
    <path d="M 273.5710144042969 281.5315246582031 C 260.9581298828125 276.8969421386719 237.15113830566406 342.4437255859375 227.0413055419922 289.51544189453125 C 199.44667053222656 261.7467956542969 225.95753479003906 318.59722900390625 258.79669189453125 315.674560546875 C 266.25616455078125 260.7618408203125 192.8777618408203 361.6671447753906 287.359130859375 212.51548767089844" stroke-width="8.51856517791748" fill="none" stroke="rgb(98, 178, 225)" stroke-opacity="0.57482964" stroke-linecap="round" stroke-linejoin="round"/>
    <path d="M 313.3232421875 204.52603149414062 C 385.4302062988281 324.0669250488281 354.9679870605469 360.37091064453125 404.40228271484375 206.4781951904297 C 392.5864562988281 144.91110229492188 371.4809875488281 214.55923461914062 337.840087890625 282.91510009765625 C 363.0860290527344 222.85316467285156 331.9424133300781 216.70753479003906 346.0903015136719 275.66143798828125" stroke-width="6.2523722648620605" fill="none" stroke="rgb(44, 0, 0)" stroke-opacity="0.49435934" stroke-linecap="round" stroke-linejoin="round"/>
    <path d="M 160.24160766601562 286.3600769042969 C 130.80508422851562 325.3045349121094 93.64813995361328 290.7940979003906 152.64239501953125 292.2867431640625 C 142.2513427734375 317.9642333984375 102.64105224609375 329.33026123046875 156.95587158203125 307.18804931640625" stroke-width="5.832963466644287" fill="none" stroke="rgb(41, 0, 9)" stroke-opacity="0.59301573" stroke-linecap="round" stroke-linejoin="round"/>
  </g>
</svg>
