<?xml version="1.0" ?>
<svg xmlns="http://www.w3.org/2000/svg" version="1.1" width="500" height="500">
  <defs/>
  <g>
    <path d="M 262.41168212890625 254.91226196289062 C 264.9077453613281 316.8981628417969 280.4525451660156 343.5130920410156 276.0005187988281 308.5966491699219" stroke-width="16.256141662597656" fill="none" stroke="rgb(255, 255, 0)" stroke-opacity="1.0" stroke-linecap="round" stroke-linejoin="round"/>
    <path d="M 262.808349609375 128.64646911621094 C 243.97573852539062 137.5733184814453 264.56829833984375 -0.6295750737190247 306.3066101074219 17.009014129638672 C 264.4011535644531 68.13909912109375 277.3342590332031 -21.79021644592285 342.8214111328125 11.276083946228027" stroke-width="7.862247943878174" fill="none" stroke="rgb(0, 0, 255)" stroke-opacity="1.0" stroke-linecap="round" stroke-linejoin="round"/>
    <path d="M 30.01872444152832 283.3652648925781 C 63.05275344848633 312.55859375 23.0786075592041 338.5915832519531 20.242738723754883 282.174560546875 C -0.5955828428268433 257.5083923339844 -56.37802505493164 355.02099609375 8.678818702697754 228.3421630859375 C -54.9284782409668 302.1837158203125 15.894325256347656 239.1090850830078 14.061457633972168 255.77105712890625" stroke-width="6.269956588745117" fill="none" stroke="rgb(0, 0, 255)" stroke-opacity="1.0" stroke-linecap="round" stroke-linejoin="round"/>
    <path d="M 224.2527313232422 421.5090637207031 C 229.99876403808594 353.707275390625 257.27899169921875 353.43560791015625 221.80148315429688 425.71307373046875 C 237.4791717529297 459.000732421875 216.1376190185547 460.614501953125 206.70059204101562 363.26568603515625 C 263.5223083496094 396.76422119140625 230.655029296875 358.2136535644531 234.87240600585938 375.0594482421875" stroke-width="10.14877700805664" fill="none" stroke="rgb(0, 0, 255)" stroke-opacity="1.0" stroke-linecap="round" stroke-linejoin="round"/>
    <path d="M 409.19207763671875 111.15715789794922 C 388.1319274902344 102.73023986816406 399.0154113769531 136.63290405273438 380.8940124511719 80.79658508300781 C 403.581298828125 122.01815795898438 371.2750549316406 54.71006393432617 393.2442626953125 29.61841583251953" stroke-width="9.978057861328125" fill="none" stroke="rgb(0, 255, 0)" stroke-opacity="1.0" stroke-linecap="round" stroke-linejoin="round"/>
    <path d="M 483.7042236328125 354.2817687988281 C 496.4102478027344 279.1888427734375 484.0450134277344 359.4309997558594 488.0120849609375 376.991943359375 C 485.6715393066406 377.6136169433594 507.38482666015625 478.4363098144531 495.71820068359375 380.49066162109375" stroke-width="8.664613723754883" fill="none" stroke="rgb(255, 0, 255)" stroke-opacity="1.0" stroke-linecap="round" stroke-linejoin="round"/>
    <path d="M 210.9780731201172 311.5191955566406 C 232.5098876953125 311.50701904296875 214.14051818847656 413.66888427734375 242.62310791015625 369.8958740234375 C 186.574462890625 428.2585144042969 179.6280975341797 328.726318359375 200.1634979248047 434.9429931640625" stroke-width="9.001639366149902" fill="none" stroke="rgb(0, 0, 255)" stroke-opacity="1.0" stroke-linecap="round" stroke-linejoin="round"/>
    <path d="M 98.97968292236328 20.343355178833008 C 57.56031036376953 134.5778350830078 62.252052307128906 4.932816505432129 92.77903747558594 18.050134658813477" stroke-width="10.583099365234375" fill="none" stroke="rgb(0, 0, 255)" stroke-opacity="1.0" stroke-linecap="round" stroke-linejoin="round"/>
    <path d="M 45.11309051513672 449.35552978515625 C 18.316556930541992 505.2480163574219 91.06098937988281 503.2576599121094 -4.769461631774902 495.76397705078125 C -39.999324798583984 501.5237121582031 10.817107200622559 499.1091003417969 142.21945190429688 498.2298889160156" stroke-width="5.437526226043701" fill="none" stroke="rgb(0, 255, 0)" stroke-opacity="1.0" stroke-linecap="round" stroke-linejoin="round"/>
    <path d="M 119.63143157958984 1.0148983001708984 C 101.8491439819336 -9.109503746032715 69.0937271118164 23.343978881835938 106.43595123291016 17.927078247070312 C 103.37006378173828 26.944461822509766 95.25860595703125 17.05447006225586 151.40310668945312 7.4924726486206055" stroke-width="7.600996494293213" fill="none" stroke="rgb(0, 0, 0)" stroke-opacity="1.0" stroke-linecap="round" stroke-linejoin="round"/>
    <path d="M 369.5855407714844 451.7686767578125 C 401.37066650390625 418.144775390625 391.5376281738281 425.6103820800781 394.0426025390625 501.17694091796875 C 437.5295104980469 483.6085205078125 486.6328430175781 493.30615234375 531.1324462890625 491.4201354980469" stroke-width="18.56884765625" fill="none" stroke="rgb(0, 255, 255)" stroke-opacity="1.0" stroke-linecap="round" stroke-linejoin="round"/>
    <path d="M 136.9477996826172 67.68325805664062 C 88.85364532470703 34.57907485961914 79.83238220214844 48.65850830078125 82.98394012451172 126.96036529541016 C 71.15827941894531 171.32960510253906 109.07936096191406 154.5680389404297 72.896728515625 94.3213882446289 C 113.33612823486328 154.7140655517578 48.31876754760742 133.01602172851562 52.96867370605469 45.12223434448242" stroke-width="9.987661361694336" fill="none" stroke="rgb(0, 0, 255)" stroke-opacity="1.0" stroke-linecap="round" stroke-linejoin="round"/>
    <path d="M 78.35810089111328 190.62489318847656 C 71.29267120361328 287.1966857910156 65.40831756591797 208.02886962890625 69.67045593261719 243.1492156982422 C 80.76686096191406 187.2366943359375 75.27915954589844 168.01077270507812 86.33277130126953 190.33326721191406 C 65.4150619506836 217.625244140625 92.48402404785156 151.1355743408203 111.67464447021484 109.57792663574219" stroke-width="13.852551460266113" fill="none" stroke="rgb(0, 0, 255)" stroke-opacity="1.0" stroke-linecap="round" stroke-linejoin="round"/>
    <path d="M 92.79535675048828 424.6826477050781 C 120.64320373535156 321.2120666503906 161.2632293701172 411.9156188964844 144.42774963378906 408.6895751953125 C 110.89881134033203 417.0027770996094 104.75414276123047 633.29052734375 135.50413513183594 414.98974609375" stroke-width="6.707434177398682" fill="none" stroke="rgb(0, 0, 255)" stroke-opacity="1.0" stroke-linecap="round" stroke-linejoin="round"/>
    <path d="M 64.10296630859375 284.76806640625 C 80.1838607788086 352.6169128417969 65.23599243164062 301.73101806640625 50.908206939697266 371.2340087890625 C 12.478930473327637 372.47906494140625 34.259254455566406 382.5932312011719 5.2257981300354 414.43756103515625 C 63.874900817871094 341.3543701171875 18.813199996948242 346.2163391113281 -32.02427673339844 373.2537841796875" stroke-width="5.700831413269043" fill="none" stroke="rgb(0, 0, 255)" stroke-opacity="1.0" stroke-linecap="round" stroke-linejoin="round"/>
    <path d="M 358.46697998046875 188.65652465820312 C 371.2459411621094 178.9356689453125 355.1246337890625 121.0848617553711 357.7641906738281 78.73426818847656" stroke-width="11.510180473327637" fill="none" stroke="rgb(0, 0, 255)" stroke-opacity="1.0" stroke-linecap="round" stroke-linejoin="round"/>
    <path d="M 256.45574951171875 177.42697143554688 C 228.5923614501953 67.10794830322266 217.36636352539062 132.06056213378906 215.37779235839844 80.15763092041016 C 214.68499755859375 94.936767578125 196.533203125 121.74343872070312 251.37417602539062 116.43577575683594" stroke-width="11.43464469909668" fill="none" stroke="rgb(0, 165, 255)" stroke-opacity="1.0" stroke-linecap="round" stroke-linejoin="round"/>
    <path d="M 145.1465606689453 174.30722045898438 C 129.80641174316406 264.8562316894531 88.0103988647461 307.3399963378906 124.47566223144531 318.98406982421875 C 102.13966369628906 295.6364440917969 58.9196891784668 312.3692932128906 83.96393585205078 314.567138671875" stroke-width="10.471470832824707" fill="none" stroke="rgb(0, 0, 255)" stroke-opacity="1.0" stroke-linecap="round" stroke-linejoin="round"/>
    <path d="M 164.92828369140625 243.11143493652344 C 143.18948364257812 -27.28853988647461 122.00762176513672 132.84823608398438 67.9827880859375 273.44354248046875" stroke-width="18.0262451171875" fill="none" stroke="rgb(255, 255, 0)" stroke-opacity="1.0" stroke-linecap="round" stroke-linejoin="round"/>
    <path d="M 352.01153564453125 243.00515747070312 C 337.1188049316406 293.30340576171875 369.3106994628906 282.5963134765625 371.02532958984375 303.0516662597656 C 378.46710205078125 263.3797912597656 413.1929931640625 283.675537109375 446.3633117675781 358.56048583984375 C 446.23297119140625 284.6173400878906 397.0270080566406 310.9212646484375 408.24652099609375 251.12890625" stroke-width="11.959342956542969" fill="none" stroke="rgb(49, 255, 0)" stroke-opacity="1.0" stroke-linecap="round" stroke-linejoin="round"/>
    <path d="M 401.40533447265625 515.6455688476562 C 400.5757751464844 366.3246765136719 385.08209228515625 371.78094482421875 360.546142578125 370.33306884765625" stroke-width="13.573738098144531" fill="none" stroke="rgb(255, 0, 255)" stroke-opacity="1.0" stroke-linecap="round" stroke-linejoin="round"/>
    <path d="M 58.1206169128418 377.0559997558594 C 71.47007751464844 295.3666687011719 105.76203155517578 339.20220947265625 64.65037536621094 294.10150146484375" stroke-width="10.650379180908203" fill="none" stroke="rgb(255, 0, 255)" stroke-opacity="1.0" stroke-linecap="round" stroke-linejoin="round"/>
    <path d="M 220.16358947753906 134.873779296875 C 254.95077514648438 243.88232421875 155.28121948242188 224.4818572998047 162.2000274658203 200.9435272216797 C 189.68817138671875 231.78500366210938 202.3754425048828 190.36508178710938 160.48204040527344 209.19100952148438 C 97.60527038574219 184.08676147460938 91.33196258544922 273.68731689453125 119.74651336669922 389.7577209472656" stroke-width="10.170217514038086" fill="none" stroke="rgb(0, 255, 90)" stroke-opacity="1.0" stroke-linecap="round" stroke-linejoin="round"/>
    <path d="M 403.66357421875 167.15184020996094 C 370.04351806640625 52.63324737548828 358.951416015625 57.40396499633789 387.1746826171875 221.6725616455078" stroke-width="15.000811576843262" fill="none" stroke="rgb(255, 255, 0)" stroke-opacity="1.0" stroke-linecap="round" stroke-linejoin="round"/>
    <path d="M 292.7100524902344 427.8051452636719 C 315.89703369140625 440.96197509765625 320.39642333984375 460.7769470214844 325.06109619140625 316.0401306152344 C 376.45794677734375 406.179443359375 312.33642578125 347.76007080078125 314.1451416015625 338.1951904296875 C 309.09173583984375 424.8878173828125 278.1265563964844 385.3687744140625 297.0802001953125 399.4835205078125" stroke-width="9.822443008422852" fill="none" stroke="rgb(0, 0, 0)" stroke-opacity="1.0" stroke-linecap="round" stroke-linejoin="round"/>
    <path d="M 266.0198669433594 238.69117736816406 C 226.69248962402344 231.31948852539062 243.41061401367188 96.91339874267578 219.23963928222656 129.7551727294922" stroke-width="9.14414119720459" fill="none" stroke="rgb(0, 0, 255)" stroke-opacity="1.0" stroke-linecap="round" stroke-linejoin="round"/>
    <path d="M 396.62939453125 407.21832275390625 C 408.3016357421875 294.4705505371094 421.22198486328125 413.7331237792969 392.83673095703125 250.84323120117188" stroke-width="13.47797966003418" fill="none" stroke="rgb(255, 255, 0)" stroke-opacity="1.0" stroke-linecap="round" stroke-linejoin="round"/>
    <path d="M 497.1656799316406 276.5647888183594 C 435.4909362792969 209.15142822265625 396.1269226074219 306.6149597167969 430.8484802246094 255.36778259277344 C 420.09326171875 246.46214294433594 458.8974609375 263.2541809082031 461.2931823730469 291.8504943847656 C 438.54180908203125 337.78216552734375 455.3752746582031 433.47625732421875 444.4860534667969 364.5054626464844" stroke-width="12.668659210205078" fill="none" stroke="rgb(255, 220, 0)" stroke-opacity="1.0" stroke-linecap="round" stroke-linejoin="round"/>
    <path d="M 325.85791015625 495.0460510253906 C 323.99871826171875 482.65570068359375 258.4966125488281 510.7833251953125 358.20758056640625 492.6609191894531" stroke-width="14.073962211608887" fill="none" stroke="rgb(0, 255, 255)" stroke-opacity="1.0" stroke-linecap="round" stroke-linejoin="round"/>
    <path d="M 300.2919616699219 390.60260009765625 C 353.6288757324219 422.0728759765625 343.0918273925781 462.8483581542969 358.10137939453125 488.5105895996094 C 350.0439758300781 386.48675537109375 355.2972717285156 407.2725524902344 372.3321838378906 348.3624572753906 C 428.9872131347656 356.3392333984375 454.36669921875 423.91845703125 365.94622802734375 344.98944091796875" stroke-width="14.091310501098633" fill="none" stroke="rgb(0, 255, 0)" stroke-opacity="1.0" stroke-linecap="round" stroke-linejoin="round"/>
    <path d="M 280.6585998535156 182.96145629882812 C 258.2470703125 145.74090576171875 239.20767211914062 80.19707489013672 268.6929016113281 214.84304809570312" stroke-width="12.910778999328613" fill="none" stroke="rgb(0, 0, 255)" stroke-opacity="1.0" stroke-linecap="round" stroke-linejoin="round"/>
    <path d="M 456.6794738769531 138.1385498046875 C 447.8125305175781 223.1586456298828 410.5984802246094 201.6429443359375 437.2701110839844 199.60043334960938" stroke-width="10.167852401733398" fill="none" stroke="rgb(0, 255, 82)" stroke-opacity="1.0" stroke-linecap="round" stroke-linejoin="round"/>
    <path d="M 484.0147399902344 64.67850494384766 C 487.8934020996094 66.19866180419922 451.72760009765625 136.89735412597656 507.7900085449219 144.44973754882812" stroke-width="13.274648666381836" fill="none" stroke="rgb(255, 238, 0)" stroke-opacity="1.0" stroke-linecap="round" stroke-linejoin="round"/>
    <path d="M 244.94764709472656 333.9841003417969 C 231.64892578125 228.93157958984375 216.2061309814453 224.14356994628906 284.7044982910156 242.72842407226562 C 312.7790222167969 294.37152099609375 267.5829162597656 179.0618438720703 248.85989379882812 247.8662872314453 C 300.3875427246094 268.96588134765625 262.2998352050781 294.9307861328125 293.1352844238281 312.0691223144531" stroke-width="13.061209678649902" fill="none" stroke="rgb(255, 0, 255)" stroke-opacity="1.0" stroke-linecap="round" stroke-linejoin="round"/>
    <path d="M 420.47430419921875 22.05625343322754 C 487.85333251953125 -25.22748565673828 483.1957092285156 9.782708168029785 421.2832946777344 2.2412478923797607 C 422.9485168457031 15.882386207580566 482.669677734375 -19.2179012298584 498.6969909667969 10.706233024597168 C 443.1105651855469 -22.378250122070312 437.9701843261719 -31.28416633605957 436.9967956542969 -28.453853607177734" stroke-width="10.678064346313477" fill="none" stroke="rgb(255, 255, 0)" stroke-opacity="1.0" stroke-linecap="round" stroke-linejoin="round"/>
    <path d="M 161.44186401367188 161.11329650878906 C 161.0733184814453 105.41778564453125 185.2010955810547 140.25245666503906 144.0899658203125 45.99708557128906" stroke-width="10.723800659179688" fill="none" stroke="rgb(255, 0, 255)" stroke-opacity="1.0" stroke-linecap="round" stroke-linejoin="round"/>
    <path d="M 79.29173278808594 -0.05127180740237236 C 44.11553955078125 68.79220581054688 83.96614074707031 -23.570369720458984 96.0121841430664 9.395094871520996 C 64.85295104980469 24.155492782592773 47.33224105834961 -19.31549644470215 98.05741882324219 -13.284207344055176 C 58.91050720214844 -2.7176027297973633 73.41519927978516 -17.062692642211914 156.82907104492188 2.652927875518799" stroke-width="9.87180233001709" fill="none" stroke="rgb(255, 255, 0)" stroke-opacity="1.0" stroke-linecap="round" stroke-linejoin="round"/>
    <path d="M 490.3149108886719 20.776533126831055 C 512.5432739257812 70.14564514160156 492.5550231933594 111.58186340332031 502.7441101074219 -11.364303588867188 C 500.93701171875 -26.840579986572266 516.548583984375 -48.78495788574219 517.1939697265625 -27.235624313354492" stroke-width="9.394179344177246" fill="none" stroke="rgb(3, 219, 0)" stroke-opacity="1.0" stroke-linecap="round" stroke-linejoin="round"/>
    <path d="M 442.7171325683594 86.6769790649414 C 496.1361083984375 -36.38180160522461 415.3746643066406 17.536951065063477 431.1994934082031 56.89573287963867 C 462.2894287109375 98.76025390625 422.4867858886719 235.38772583007812 479.0042419433594 59.49904251098633" stroke-width="13.35257339477539" fill="none" stroke="rgb(0, 255, 0)" stroke-opacity="1.0" stroke-linecap="round" stroke-linejoin="round"/>
    <path d="M 281.7677001953125 141.65789794921875 C 319.1669921875 -8.453901290893555 325.04046630859375 26.361173629760742 343.3814392089844 23.724416732788086" stroke-width="13.367633819580078" fill="none" stroke="rgb(0, 255, 255)" stroke-opacity="1.0" stroke-linecap="round" stroke-linejoin="round"/>
    <path d="M 413.48065185546875 424.578125 C 460.9068908691406 351.4960632324219 451.9830322265625 318.0484924316406 444.4333801269531 383.2098388671875 C 365.743896484375 238.04653930664062 465.4063415527344 352.5291748046875 405.6509094238281 397.517333984375" stroke-width="9.587918281555176" fill="none" stroke="rgb(255, 0, 255)" stroke-opacity="1.0" stroke-linecap="round" stroke-linejoin="round"/>
    <path d="M 350.6739501953125 14.160787582397461 C 362.48223876953125 15.30903148651123 338.95428466796875 36.92982864379883 378.2740478515625 -7.55929708480835 C 427.9100036621094 14.128554344177246 357.0721740722656 -45.4833984375 363.5865783691406 86.0548095703125" stroke-width="7.8899827003479" fill="none" stroke="rgb(0, 255, 0)" stroke-opacity="1.0" stroke-linecap="round" stroke-linejoin="round"/>
    <path d="M 52.490543365478516 123.63768005371094 C 31.446765899658203 -28.028377532958984 16.030797958374023 -4.664132595062256 51.89420700073242 238.92626953125 C 105.31346130371094 55.04600524902344 45.650146484375 252.08323669433594 74.09980010986328 59.63016128540039" stroke-width="14.743582725524902" fill="none" stroke="rgb(255, 255, 0)" stroke-opacity="1.0" stroke-linecap="round" stroke-linejoin="round"/>
    <path d="M 187.86709594726562 363.51763916015625 C 161.76559448242188 302.93585205078125 177.2786865234375 463.6623840332031 162.36192321777344 432.5195007324219 C 274.0433654785156 465.59832763671875 270.6722106933594 432.5295104980469 222.56793212890625 509.2071228027344 C 219.69088745117188 478.0548400878906 233.7552032470703 475.0802307128906 247.7151336669922 473.51080322265625" stroke-width="10.438643455505371" fill="none" stroke="rgb(0, 255, 255)" stroke-opacity="1.0" stroke-linecap="round" stroke-linejoin="round"/>
    <path d="M 73.25332641601562 491.8173828125 C -91.08499908447266 500.51885986328125 32.85015869140625 493.4894714355469 12.828141212463379 495.08807373046875 C 28.6082820892334 418.3617248535156 71.99871826171875 325.5851135253906 28.904930114746094 429.4781188964844 C 74.39900207519531 465.5899658203125 66.78440856933594 497.37579345703125 67.85482788085938 461.14892578125" stroke-width="6.924768447875977" fill="none" stroke="rgb(0, 255, 154)" stroke-opacity="1.0" stroke-linecap="round" stroke-linejoin="round"/>
    <path d="M 158.65545654296875 498.88421630859375 C 174.13491821289062 456.6436767578125 242.0311737060547 468.1374816894531 198.4370880126953 507.2030944824219 C 254.2135772705078 482.6532287597656 184.3787384033203 446.4979248046875 163.15777587890625 498.7472229003906" stroke-width="7.430943965911865" fill="none" stroke="rgb(0, 0, 255)" stroke-opacity="1.0" stroke-linecap="round" stroke-linejoin="round"/>
    <path d="M 139.18124389648438 149.55224609375 C 115.36597442626953 302.8302001953125 154.41415405273438 117.2918701171875 98.1753921508789 301.81231689453125 C 134.13633728027344 301.511962890625 110.6488037109375 341.5627136230469 119.46939849853516 304.0772399902344 C 91.72256469726562 298.1122741699219 39.730770111083984 400.56036376953125 138.34214782714844 111.93619537353516" stroke-width="8.995062828063965" fill="none" stroke="rgb(255, 255, 0)" stroke-opacity="1.0" stroke-linecap="round" stroke-linejoin="round"/>
    <path d="M 128.62158203125 408.6402587890625 C 111.04804229736328 420.87109375 95.54969024658203 591.71240234375 86.68560028076172 452.59271240234375" stroke-width="7.19696569442749" fill="none" stroke="rgb(0, 255, 0)" stroke-opacity="1.0" stroke-linecap="round" stroke-linejoin="round"/>
    <path d="M 474.4560852050781 45.55278396606445 C 435.4634704589844 125.21561431884766 496.2892761230469 107.42904663085938 434.3543701171875 148.22506713867188 C 454.5498046875 30.626510620117188 387.5171203613281 89.37264251708984 399.05035400390625 50.05204772949219" stroke-width="12.382637023925781" fill="none" stroke="rgb(0, 0, 255)" stroke-opacity="1.0" stroke-linecap="round" stroke-linejoin="round"/>
    <path d="M 320.4896545410156 99.89531707763672 C 371.11614990234375 -33.7118034362793 384.5611267089844 20.361234664916992 305.5476989746094 -5.967824459075928 C 275.02252197265625 16.6555118560791 298.0464172363281 -3.800415515899658 306.76800537109375 23.02557945251465 C 284.1438293457031 108.15409088134766 271.5046081542969 -8.961084365844727 347.8620910644531 9.047245979309082" stroke-width="11.421643257141113" fill="none" stroke="rgb(255, 255, 0)" stroke-opacity="1.0" stroke-linecap="round" stroke-linejoin="round"/>
    <path d="M 387.3728332519531 415.633544921875 C 411.9026794433594 393.8278503417969 429.5943908691406 402.0671081542969 410.563720703125 505.1259765625" stroke-width="8.25623607635498" fill="none" stroke="rgb(0, 255, 0)" stroke-opacity="1.0" stroke-linecap="round" stroke-linejoin="round"/>
    <path d="M 499.2514953613281 280.392333984375 C 436.8381042480469 221.42071533203125 530.5415649414062 350.004638671875 425.83380126953125 226.66079711914062" stroke-width="11.528968811035156" fill="none" stroke="rgb(255, 0, 255)" stroke-opacity="1.0" stroke-linecap="round" stroke-linejoin="round"/>
    <path d="M 245.33169555664062 349.0618591308594 C 240.34390258789062 277.12603759765625 198.64791870117188 274.24371337890625 192.62489318847656 332.03314208984375" stroke-width="7.672069072723389" fill="none" stroke="rgb(0, 0, 255)" stroke-opacity="1.0" stroke-linecap="round" stroke-linejoin="round"/>
    <path d="M 279.15106201171875 463.32049560546875 C 255.01394653320312 436.7451171875 304.8553466796875 323.56304931640625 296.8702087402344 337.1015930175781" stroke-width="10.680713653564453" fill="none" stroke="rgb(0, 255, 255)" stroke-opacity="1.0" stroke-linecap="round" stroke-linejoin="round"/>
    <path d="M 245.3105010986328 456.24560546875 C 250.51956176757812 345.4029541015625 318.83673095703125 288.43951416015625 268.0428161621094 339.61651611328125 C 209.57583618164062 194.65078735351562 316.19940185546875 287.1017761230469 270.43402099609375 245.36656188964844 C 257.41943359375 244.94471740722656 265.4316711425781 254.32421875 270.55078125 216.7199249267578" stroke-width="10.370616912841797" fill="none" stroke="rgb(0, 255, 255)" stroke-opacity="1.0" stroke-linecap="round" stroke-linejoin="round"/>
    <path d="M 496.08929443359375 378.0124206542969 C 514.2998046875 187.66795349121094 483.0743408203125 200.78646850585938 506.6501770019531 201.6129150390625" stroke-width="8.953100204467773" fill="none" stroke="rgb(62, 255, 0)" stroke-opacity="1.0" stroke-linecap="round" stroke-linejoin="round"/>
    <path d="M 158.7084197998047 483.09033203125 C 191.8629913330078 429.9422302246094 292.06646728515625 500.70281982421875 213.98199462890625 432.1345520019531" stroke-width="8.050113677978516" fill="none" stroke="rgb(255, 255, 0)" stroke-opacity="1.0" stroke-linecap="round" stroke-linejoin="round"/>
    <path d="M 138.8953857421875 149.35400390625 C 135.5872802734375 112.10919189453125 183.9004669189453 96.84535217285156 130.46981811523438 104.28026580810547 C 27.4836368560791 402.3401184082031 86.48551177978516 278.1898193359375 111.72972869873047 305.6435852050781" stroke-width="10.07398796081543" fill="none" stroke="rgb(0, 0, 255)" stroke-opacity="1.0" stroke-linecap="round" stroke-linejoin="round"/>
    <path d="M 455.78656005859375 18.303003311157227 C 434.7217712402344 83.07611846923828 454.1422119140625 -11.78839111328125 471.2957458496094 21.06787872314453" stroke-width="10.073660850524902" fill="none" stroke="rgb(0, 0, 255)" stroke-opacity="1.0" stroke-linecap="round" stroke-linejoin="round"/>
    <path d="M 150.89471435546875 171.849365234375 C 124.27828216552734 124.67689514160156 131.3612060546875 192.36685180664062 88.7945556640625 306.68988037109375 C 109.45457458496094 195.46377563476562 117.0020980834961 187.6380615234375 174.39398193359375 238.43251037597656 C 194.03480529785156 200.61827087402344 157.61782836914062 199.16586303710938 182.01885986328125 227.2957305908203" stroke-width="6.575126647949219" fill="none" stroke="rgb(0, 0, 255)" stroke-opacity="1.0" stroke-linecap="round" stroke-linejoin="round"/>
    <path d="M 426.2118835449219 369.094970703125 C 385.9002685546875 466.5365295410156 401.18670654296875 479.8997497558594 457.35882568359375 360.0594177246094" stroke-width="12.630770683288574" fill="none" stroke="rgb(255, 255, 0)" stroke-opacity="1.0" stroke-linecap="round" stroke-linejoin="round"/>
    <path d="M 57.89985656738281 116.98370361328125 C 53.83943557739258 316.2981262207031 53.379756927490234 190.05247497558594 -1.0827617645263672 189.33982849121094" stroke-width="12.703825950622559" fill="none" stroke="rgb(255, 0, 255)" stroke-opacity="1.0" stroke-linecap="round" stroke-linejoin="round"/>
    <path d="M 255.98373413085938 469.2503356933594 C 256.71734619140625 464.68267822265625 220.284912109375 484.9457702636719 315.4330139160156 501.41485595703125 C 224.25552368164062 432.0806579589844 206.61106872558594 511.43017578125 232.342041015625 510.8439636230469" stroke-width="12.182905197143555" fill="none" stroke="rgb(255, 255, 0)" stroke-opacity="1.0" stroke-linecap="round" stroke-linejoin="round"/>
    <path d="M 220.12115478515625 12.932164192199707 C 203.1113739013672 30.644031524658203 231.51351928710938 -11.687884330749512 265.38983154296875 16.5744686126709" stroke-width="6.742867946624756" fill="none" stroke="rgb(255, 0, 255)" stroke-opacity="1.0" stroke-linecap="round" stroke-linejoin="round"/>
    <path d="M 32.565006256103516 202.63685607910156 C 37.79920959472656 6.056606292724609 -31.03396987915039 172.14439392089844 17.411510467529297 166.208251953125" stroke-width="15.078474044799805" fill="none" stroke="rgb(0, 0, 255)" stroke-opacity="1.0" stroke-linecap="round" stroke-linejoin="round"/>
    <path d="M 30.949617385864258 77.958740234375 C 51.15751647949219 15.826745986938477 1.9948978424072266 70.90693664550781 60.43737030029297 56.952110290527344 C 45.58491516113281 96.52645111083984 0.4189445376396179 5.521367073059082 8.475475311279297 110.30464172363281 C 87.82868957519531 67.36231994628906 24.91600227355957 268.1769104003906 23.923019409179688 190.13238525390625" stroke-width="6.799917697906494" fill="none" stroke="rgb(0, 255, 0)" stroke-opacity="1.0" stroke-linecap="round" stroke-linejoin="round"/>
    <path d="M 23.670724868774414 119.80107879638672 C 67.4189224243164 169.61460876464844 -19.56886863708496 242.494140625 16.270000457763672 117.39153289794922" stroke-width="8.20556354522705" fill="none" stroke="rgb(255, 0, 255)" stroke-opacity="1.0" stroke-linecap="round" stroke-linejoin="round"/>
    <path d="M 303.5422668457031 277.6370849609375 C 280.113037109375 265.4819030761719 301.93328857421875 241.62306213378906 264.12994384765625 246.10171508789062 C 233.64999389648438 256.775634765625 232.29884338378906 312.6072082519531 221.34642028808594 289.12103271484375" stroke-width="4.869774341583252" fill="none" stroke="rgb(0, 0, 0)" stroke-opacity="1.0" stroke-linecap="round" stroke-linejoin="round"/>
    <path d="M 448.2071533203125 60.028038024902344 C 425.3291931152344 -27.460031509399414 517.7252807617188 29.004281997680664 500.9044189453125 18.720653533935547" stroke-width="11.06258773803711" fill="none" stroke="rgb(255, 0, 255)" stroke-opacity="1.0" stroke-linecap="round" stroke-linejoin="round"/>
    <path d="M 5.021547794342041 201.96322631835938 C 54.10511016845703 220.42344665527344 13.640983581542969 180.7068328857422 13.972163200378418 237.161376953125 C 39.36583709716797 239.40267944335938 90.52606964111328 285.69610595703125 40.540897369384766 261.7281799316406" stroke-width="13.050402641296387" fill="none" stroke="rgb(255, 0, 255)" stroke-opacity="1.0" stroke-linecap="round" stroke-linejoin="round"/>
    <path d="M 408.8326721191406 374.806396484375 C 398.8000793457031 333.1372985839844 393.4177551269531 381.578125 377.4631042480469 210.6297149658203 C 397.9558410644531 264.3100891113281 449.0171203613281 300.2727966308594 443.6103820800781 345.00811767578125" stroke-width="11.222782135009766" fill="none" stroke="rgb(255, 0, 255)" stroke-opacity="1.0" stroke-linecap="round" stroke-linejoin="round"/>
    <path d="M 385.9750061035156 282.0977478027344 C 332.86346435546875 251.4122314453125 362.9014892578125 230.84922790527344 349.8283996582031 276.27099609375 C 392.5241394042969 236.19285583496094 364.0324401855469 223.0703887939453 376.555908203125 298.0733947753906" stroke-width="9.037376403808594" fill="none" stroke="rgb(255, 255, 0)" stroke-opacity="1.0" stroke-linecap="round" stroke-linejoin="round"/>
    <path d="M 188.12078857421875 76.18375396728516 C 165.51361083984375 -3.703207015991211 194.97508239746094 8.700740814208984 208.69464111328125 6.984529972076416" stroke-width="4.223219871520996" fill="none" stroke="rgb(0, 0, 255)" stroke-opacity="1.0" stroke-linecap="round" stroke-linejoin="round"/>
    <path d="M 209.61061096191406 26.30782699584961 C 214.11700439453125 17.876771926879883 198.50762939453125 32.465354919433594 215.5028076171875 77.55135345458984" stroke-width="8.12405014038086" fill="none" stroke="rgb(0, 0, 255)" stroke-opacity="1.0" stroke-linecap="round" stroke-linejoin="round"/>
    <path d="M 414.5880126953125 209.93072509765625 C 474.3734436035156 201.38327026367188 407.4200744628906 86.61348724365234 501.75732421875 136.08871459960938" stroke-width="10.73930835723877" fill="none" stroke="rgb(0, 0, 255)" stroke-opacity="1.0" stroke-linecap="round" stroke-linejoin="round"/>
    <path d="M 293.7227783203125 471.4697570800781 C 231.5867156982422 494.9562683105469 250.60708618164062 572.77099609375 131.4939422607422 487.3896179199219" stroke-width="9.345159530639648" fill="none" stroke="rgb(0, 255, 255)" stroke-opacity="1.0" stroke-linecap="round" stroke-linejoin="round"/>
    <path d="M 464.48291015625 349.9999694824219 C 460.2007141113281 268.8171691894531 502.2244567871094 272.6191101074219 472.9073791503906 430.8694152832031 C 514.5772094726562 381.5274963378906 466.98931884765625 357.96893310546875 527.1962280273438 412.6944274902344" stroke-width="7.047873020172119" fill="none" stroke="rgb(0, 0, 255)" stroke-opacity="1.0" stroke-linecap="round" stroke-linejoin="round"/>
    <path d="M 342.40704345703125 37.18242645263672 C 335.54925537109375 -3.065351724624634 395.32916259765625 22.925704956054688 374.7317199707031 -23.116073608398438" stroke-width="7.9005537033081055" fill="none" stroke="rgb(0, 255, 204)" stroke-opacity="1.0" stroke-linecap="round" stroke-linejoin="round"/>
    <path d="M 91.87165069580078 320.4339294433594 C 16.38826560974121 482.0643005371094 70.2266616821289 507.38714599609375 77.44007873535156 425.083251953125 C 67.18258666992188 479.5591735839844 67.59424591064453 470.8798828125 44.975826263427734 448.4136962890625" stroke-width="9.093605041503906" fill="none" stroke="rgb(0, 255, 255)" stroke-opacity="1.0" stroke-linecap="round" stroke-linejoin="round"/>
    <path d="M -6.598984241485596 68.62297821044922 C 43.014892578125 110.74478912353516 29.46661949157715 64.3580551147461 31.099584579467773 87.96908569335938 C -33.31282043457031 129.31797790527344 52.553279876708984 123.48925018310547 -45.02877426147461 119.0073471069336 C 16.100940704345703 64.40947723388672 106.41561889648438 -16.97894287109375 14.441463470458984 71.84554290771484" stroke-width="14.981778144836426" fill="none" stroke="rgb(255, 0, 255)" stroke-opacity="1.0" stroke-linecap="round" stroke-linejoin="round"/>
    <path d="M 498.5088195800781 431.1844482421875 C 417.73797607421875 392.4422912597656 489.8026123046875 438.1555480957031 462.9153747558594 338.68304443359375" stroke-width="9.088680267333984" fill="none" stroke="rgb(0, 255, 0)" stroke-opacity="1.0" stroke-linecap="round" stroke-linejoin="round"/>
    <path d="M 222.75367736816406 462.8727722167969 C 185.66030883789062 342.0995178222656 186.63458251953125 314.1369934082031 206.4793243408203 450.60162353515625 C 228.2314453125 497.9403076171875 147.34071350097656 411.3638610839844 180.30287170410156 349.1230163574219" stroke-width="5.8455963134765625" fill="none" stroke="rgb(0, 255, 0)" stroke-opacity="1.0" stroke-linecap="round" stroke-linejoin="round"/>
    <path d="M 339.06353759765625 496.344970703125 C 290.8501892089844 448.9698791503906 312.2590026855469 429.9403076171875 314.97772216796875 400.1097717285156 C 309.7100830078125 499.68157958984375 317.22930908203125 435.6820983886719 309.62579345703125 474.88800048828125 C 243.9651641845703 459.63995361328125 264.34674072265625 457.49755859375 260.49395751953125 458.94720458984375" stroke-width="10.593445777893066" fill="none" stroke="rgb(255, 0, 255)" stroke-opacity="1.0" stroke-linecap="round" stroke-linejoin="round"/>
    <path d="M 435.1979064941406 -40.07169723510742 C 444.1042785644531 105.13080596923828 411.89605712890625 173.2154083251953 418.3602600097656 39.6683464050293 C 429.53607177734375 27.727327346801758 420.68206787109375 14.013249397277832 392.2281494140625 18.881160736083984" stroke-width="4.1178717613220215" fill="none" stroke="rgb(0, 255, 0)" stroke-opacity="1.0" stroke-linecap="round" stroke-linejoin="round"/>
    <path d="M 138.9610595703125 94.16934967041016 C 98.18917846679688 99.00704956054688 143.75213623046875 65.8103256225586 124.39009857177734 9.602676391601562 C 87.68392181396484 109.61498260498047 105.02204132080078 108.83740997314453 129.93292236328125 117.19046783447266 C 73.2090072631836 90.53556060791016 75.18707275390625 156.9564666748047 31.15536880493164 259.01678466796875" stroke-width="8.155985832214355" fill="none" stroke="rgb(0, 0, 255)" stroke-opacity="1.0" stroke-linecap="round" stroke-linejoin="round"/>
    <path d="M 453.0893249511719 200.684814453125 C 428.4822998046875 270.33258056640625 520.9043579101562 293.23162841796875 428.7886657714844 245.34889221191406 C 406.2663269042969 280.2658386230469 493.1465759277344 334.0596923828125 432.14190673828125 257.47650146484375 C 395.35516357421875 253.535400390625 438.2067565917969 220.5670166015625 383.4652099609375 248.24876403808594" stroke-width="8.179363250732422" fill="none" stroke="rgb(0, 0, 255)" stroke-opacity="1.0" stroke-linecap="round" stroke-linejoin="round"/>
    <path d="M 443.1657409667969 174.873291015625 C 462.3269958496094 179.88815307617188 425.5420227050781 219.32461547851562 421.4977722167969 128.31228637695312 C 461.7976989746094 93.68962097167969 405.1103820800781 275.5018005371094 474.359375 61.428646087646484" stroke-width="10.146281242370605" fill="none" stroke="rgb(0, 0, 255)" stroke-opacity="1.0" stroke-linecap="round" stroke-linejoin="round"/>
    <path d="M 181.70790100097656 73.97462463378906 C 169.57037353515625 -8.393800735473633 180.6562042236328 93.7049560546875 201.387939453125 111.70381164550781 C 200.63526916503906 80.59536743164062 195.84991455078125 22.94213104248047 201.9822235107422 88.7098388671875" stroke-width="7.120580196380615" fill="none" stroke="rgb(255, 255, 0)" stroke-opacity="1.0" stroke-linecap="round" stroke-linejoin="round"/>
    <path d="M 139.19436645507812 474.0643310546875 C 143.5373077392578 547.8226318359375 212.33200073242188 456.2720031738281 194.0841064453125 511.44970703125" stroke-width="10.849943161010742" fill="none" stroke="rgb(0, 0, 255)" stroke-opacity="1.0" stroke-linecap="round" stroke-linejoin="round"/>
    <path d="M 427.2917785644531 345.40924072265625 C 506.5129089355469 343.2478332519531 453.49609375 344.2486572265625 417.00970458984375 467.92144775390625 C 435.1842041015625 471.5874938964844 384.25103759765625 553.3863525390625 429.8153076171875 428.30853271484375" stroke-width="6.981029033660889" fill="none" stroke="rgb(0, 255, 255)" stroke-opacity="1.0" stroke-linecap="round" stroke-linejoin="round"/>
    <path d="M 310.864501953125 -5.7978291511535645 C 352.3205871582031 -1.4579821825027466 284.36260986328125 -23.553037643432617 282.9066467285156 21.144393920898438 C 320.7759704589844 46.45429229736328 324.00640869140625 -32.97831726074219 272.284912109375 73.33512878417969 C 300.696533203125 16.613910675048828 262.5627746582031 19.685749053955078 259.7516174316406 114.25572967529297" stroke-width="6.8831353187561035" fill="none" stroke="rgb(0, 255, 244)" stroke-opacity="1.0" stroke-linecap="round" stroke-linejoin="round"/>
    <path d="M 50.80853271484375 341.08013916015625 C 6.065857410430908 300.93206787109375 13.854578971862793 376.17236328125 -9.12924861907959 431.3658142089844 C -43.59373092651367 354.43585205078125 -16.468223571777344 318.6463928222656 -25.750959396362305 314.4275817871094 C 22.370885848999023 298.7080383300781 23.405391693115234 295.1051025390625 -4.0106520652771 350.4535827636719" stroke-width="8.020707130432129" fill="none" stroke="rgb(0, 0, 255)" stroke-opacity="1.0" stroke-linecap="round" stroke-linejoin="round"/>
    <path d="M 278.11669921875 173.80755615234375 C 262.75421142578125 -11.01169204711914 367.36163330078125 -8.38814926147461 356.27667236328125 39.09861373901367" stroke-width="11.247797012329102" fill="none" stroke="rgb(255, 0, 255)" stroke-opacity="1.0" stroke-linecap="round" stroke-linejoin="round"/>
    <path d="M 233.3151397705078 504.0957336425781 C 261.08740234375 461.4937744140625 267.6467590332031 458.59405517578125 304.0393371582031 480.3392028808594 C 248.84744262695312 537.6287841796875 277.5638732910156 469.9251708984375 330.573974609375 491.1779479980469" stroke-width="6.9961466789245605" fill="none" stroke="rgb(0, 0, 255)" stroke-opacity="1.0" stroke-linecap="round" stroke-linejoin="round"/>
    <path d="M 312.7803955078125 318.8656921386719 C 312.2239074707031 257.0226135253906 363.5718688964844 179.69357299804688 330.3908996582031 240.19200134277344" stroke-width="8.278617858886719" fill="none" stroke="rgb(0, 255, 0)" stroke-opacity="1.0" stroke-linecap="round" stroke-linejoin="round"/>
    <path d="M 381.1529846191406 170.69696044921875 C 417.11444091796875 132.2725067138672 375.2401428222656 206.40145874023438 427.89544677734375 203.6052703857422 C 367.208251953125 23.16678810119629 422.9833679199219 2.6007509231567383 435.201171875 168.423583984375 C 451.7832946777344 219.53292846679688 463.8979797363281 133.19374084472656 484.8613586425781 191.1539306640625" stroke-width="10.222990989685059" fill="none" stroke="rgb(255, 255, 0)" stroke-opacity="1.0" stroke-linecap="round" stroke-linejoin="round"/>
    <path d="M 430.4951171875 46.89498519897461 C 366.10174560546875 164.44715881347656 355.95428466796875 220.5688934326172 345.895751953125 93.12713623046875 C 411.3607482910156 141.8380584716797 409.75445556640625 62.391788482666016 420.9477844238281 222.5602264404297" stroke-width="9.5526762008667" fill="none" stroke="rgb(255, 255, 0)" stroke-opacity="1.0" stroke-linecap="round" stroke-linejoin="round"/>
    <path d="M 277.5347595214844 348.3389587402344 C 273.2782287597656 330.9417724609375 278.0817565917969 318.8688659667969 243.99774169921875 356.9936828613281 C 274.6895446777344 376.8564147949219 273.587646484375 341.7497863769531 294.8890686035156 328.4913024902344 C 253.60658264160156 294.71209716796875 297.3133239746094 311.4157409667969 282.7615966796875 336.8083801269531" stroke-width="6.082663059234619" fill="none" stroke="rgb(0, 0, 0)" stroke-opacity="1.0" stroke-linecap="round" stroke-linejoin="round"/>
    <path d="M 445.1012268066406 196.4122772216797 C 423.1073913574219 233.9449920654297 470.4082946777344 265.8031921386719 415.9087219238281 240.50587463378906 C 495.5251159667969 264.1860046386719 472.6562805175781 362.222412109375 485.1830139160156 252.7701873779297" stroke-width="8.323225975036621" fill="none" stroke="rgb(0, 255, 0)" stroke-opacity="1.0" stroke-linecap="round" stroke-linejoin="round"/>
    <path d="M 399.0323486328125 399.88153076171875 C 471.8656311035156 266.96588134765625 341.47906494140625 299.93853759765625 359.41534423828125 262.0252380371094" stroke-width="7.015013217926025" fill="none" stroke="rgb(0, 0, 255)" stroke-opacity="1.0" stroke-linecap="round" stroke-linejoin="round"/>
    <path d="M 56.346736907958984 24.687772750854492 C 34.398033142089844 -5.973303318023682 7.7708306312561035 64.11077117919922 8.966719627380371 63.78021240234375 C 28.646465301513672 -6.414461135864258 65.01517486572266 29.10536766052246 63.41920471191406 62.93272399902344" stroke-width="8.862313270568848" fill="none" stroke="rgb(0, 255, 232)" stroke-opacity="1.0" stroke-linecap="round" stroke-linejoin="round"/>
    <path d="M 73.14053344726562 247.2160186767578 C 22.036157608032227 244.32594299316406 93.99481201171875 274.7596130371094 65.5760498046875 267.833984375" stroke-width="5.669778347015381" fill="none" stroke="rgb(0, 0, 255)" stroke-opacity="1.0" stroke-linecap="round" stroke-linejoin="round"/>
    <path d="M 398.2088623046875 335.5819091796875 C 353.462890625 333.6598205566406 413.6383056640625 306.4632568359375 341.2801208496094 285.34149169921875 C 314.1391906738281 296.9151306152344 325.6497802734375 373.53314208984375 322.0029602050781 335.1463623046875 C 298.2489929199219 471.1421203613281 286.1218566894531 425.2502746582031 308.9230041503906 475.3901672363281" stroke-width="11.568591117858887" fill="none" stroke="rgb(0, 255, 209)" stroke-opacity="1.0" stroke-linecap="round" stroke-linejoin="round"/>
    <path d="M -36.61745071411133 102.2322769165039 C 45.842559814453125 105.43680572509766 35.881839752197266 75.26844024658203 51.2285270690918 121.044921875 C 74.36609649658203 107.43079376220703 56.93901062011719 44.40841293334961 63.90802764892578 85.28982543945312" stroke-width="6.552117824554443" fill="none" stroke="rgb(0, 0, 255)" stroke-opacity="1.0" stroke-linecap="round" stroke-linejoin="round"/>
    <path d="M 146.68846130371094 59.56291198730469 C 127.95769500732422 57.62588882446289 142.01551818847656 64.48493957519531 140.3397979736328 26.32067108154297 C 148.70071411132812 -25.073612213134766 80.70359802246094 27.61116600036621 119.42508697509766 49.484004974365234" stroke-width="13.973001480102539" fill="none" stroke="rgb(255, 0, 255)" stroke-opacity="1.0" stroke-linecap="round" stroke-linejoin="round"/>
    <path d="M 363.4141845703125 221.52609252929688 C 341.27130126953125 132.6554412841797 328.0384521484375 133.12237548828125 350.1559143066406 81.98303985595703" stroke-width="7.046411514282227" fill="none" stroke="rgb(0, 255, 0)" stroke-opacity="1.0" stroke-linecap="round" stroke-linejoin="round"/>
    <path d="M 128.4959259033203 368.2667236328125 C 119.32462310791016 368.1522521972656 182.45669555664062 218.77919006347656 171.06175231933594 233.8441619873047" stroke-width="10.035699844360352" fill="none" stroke="rgb(0, 255, 255)" stroke-opacity="1.0" stroke-linecap="round" stroke-linejoin="round"/>
    <path d="M 375.9576721191406 426.2681579589844 C 367.0467224121094 452.0237121582031 377.94354248046875 559.824951171875 361.5531311035156 484.466064453125" stroke-width="9.433845520019531" fill="none" stroke="rgb(0, 255, 255)" stroke-opacity="1.0" stroke-linecap="round" stroke-linejoin="round"/>
    <path d="M 46.93215560913086 480.85015869140625 C 87.0524673461914 569.632568359375 19.792741775512695 431.65155029296875 66.76387023925781 382.0783996582031 C 24.561960220336914 346.42218017578125 6.620504379272461 537.7467651367188 8.71561336517334 461.5971984863281" stroke-width="5.609389305114746" fill="none" stroke="rgb(0, 0, 255)" stroke-opacity="1.0" stroke-linecap="round" stroke-linejoin="round"/>
    <path d="M 360.5908508300781 327.26019287109375 C 366.1471252441406 340.3174133300781 390.78533935546875 184.98690795898438 370.9192810058594 345.89971923828125" stroke-width="6.375304222106934" fill="none" stroke="rgb(255, 255, 0)" stroke-opacity="1.0" stroke-linecap="round" stroke-linejoin="round"/>
    <path d="M 7.38928747177124 176.83514404296875 C 58.15712356567383 185.31585693359375 -17.265626907348633 142.00494384765625 38.36307144165039 49.158390045166016" stroke-width="9.5447416305542" fill="none" stroke="rgb(0, 255, 0)" stroke-opacity="1.0" stroke-linecap="round" stroke-linejoin="round"/>
    <path d="M 106.39561462402344 501.6005859375 C 110.36320495605469 526.4705810546875 123.75828552246094 576.6726684570312 137.516357421875 568.041015625" stroke-width="9.386550903320312" fill="none" stroke="rgb(0, 255, 0)" stroke-opacity="0.7733094" stroke-linecap="round" stroke-linejoin="round"/>
    <path d="M 144.63796997070312 416.0401611328125 C 152.82875061035156 327.29266357421875 161.6299591064453 364.27447509765625 147.0030975341797 354.5353088378906 C 155.06536865234375 356.4362487792969 153.61248779296875 375.9141540527344 207.13522338867188 202.33627319335938 C 149.0209197998047 331.525390625 145.70663452148438 420.7372741699219 136.80535888671875 387.35675048828125" stroke-width="6.626262187957764" fill="none" stroke="rgb(0, 255, 255)" stroke-opacity="1.0" stroke-linecap="round" stroke-linejoin="round"/>
    <path d="M 36.750022888183594 304.5960998535156 C 41.082069396972656 207.89793395996094 68.16786193847656 353.5584716796875 76.12865447998047 320.5920715332031 C 36.91132736206055 352.0673828125 69.0787124633789 300.4352722167969 -2.7623257637023926 327.3789367675781" stroke-width="9.287839889526367" fill="none" stroke="rgb(255, 255, 0)" stroke-opacity="1.0" stroke-linecap="round" stroke-linejoin="round"/>
    <path d="M 449.4339294433594 327.8721923828125 C 456.16168212890625 274.95648193359375 416.1214599609375 254.0482635498047 390.3289489746094 248.7271728515625 C 402.4150085449219 222.9651336669922 385.27392578125 264.9537048339844 388.38555908203125 219.98374938964844 C 366.2605285644531 255.99322509765625 368.245849609375 221.91773986816406 360.3245849609375 268.9659118652344" stroke-width="7.5604987144470215" fill="none" stroke="rgb(0, 255, 243)" stroke-opacity="1.0" stroke-linecap="round" stroke-linejoin="round"/>
    <path d="M 318.6258850097656 195.5352020263672 C 296.51800537109375 334.2369384765625 282.0335388183594 132.97349548339844 332.4559020996094 44.53778076171875 C 378.7511291503906 67.1627197265625 325.2010192871094 78.04659271240234 358.8210754394531 103.61727905273438 C 299.04949951171875 51.31306457519531 456.44415283203125 85.461669921875 349.4242858886719 72.65349578857422" stroke-width="12.2933931350708" fill="none" stroke="rgb(255, 0, 255)" stroke-opacity="1.0" stroke-linecap="round" stroke-linejoin="round"/>
    <path d="M 202.33999633789062 12.34227180480957 C 168.77256774902344 13.187911987304688 218.7623291015625 219.55966186523438 159.11761474609375 21.574466705322266 C 235.9517364501953 -45.19287872314453 129.19480895996094 -12.092015266418457 135.42848205566406 74.41049194335938 C 145.28675842285156 49.79126739501953 132.55845642089844 38.61302947998047 145.4869384765625 38.81427764892578" stroke-width="7.618472576141357" fill="none" stroke="rgb(0, 0, 255)" stroke-opacity="1.0" stroke-linecap="round" stroke-linejoin="round"/>
    <path d="M 120.49873352050781 9.50044059753418 C 75.44915771484375 19.288192749023438 143.55224609375 -27.663192749023438 149.80670166015625 18.20764923095703 C 134.3049774169922 33.48592758178711 126.86316680908203 16.490928649902344 195.00994873046875 -16.48601722717285" stroke-width="4.727962017059326" fill="none" stroke="rgb(0, 0, 255)" stroke-opacity="1.0" stroke-linecap="round" stroke-linejoin="round"/>
    <path d="M 298.2503356933594 213.78504943847656 C 253.37339782714844 260.0378112792969 292.0808410644531 165.45553588867188 318.7471923828125 191.7958984375 C 407.18817138671875 182.86070251464844 348.47607421875 203.28665161132812 395.9763488769531 228.4945831298828 C 341.06671142578125 225.4259490966797 353.5750427246094 225.55599975585938 336.8924255371094 250.5791015625" stroke-width="6.37239933013916" fill="none" stroke="rgb(0, 0, 255)" stroke-opacity="1.0" stroke-linecap="round" stroke-linejoin="round"/>
    <path d="M 216.0413360595703 -1.4373053312301636 C 174.68507385253906 47.3721809387207 221.6846466064453 78.67463684082031 206.70167541503906 85.62876892089844 C 226.78831481933594 61.05341720581055 212.6331787109375 110.23855590820312 235.06907653808594 101.19181060791016 C 247.38157653808594 97.8167724609375 219.485107421875 27.51017189025879 225.3644256591797 29.644256591796875" stroke-width="4.585845470428467" fill="none" stroke="rgb(0, 255, 0)" stroke-opacity="1.0" stroke-linecap="round" stroke-linejoin="round"/>
    <path d="M 478.96588134765625 25.10435676574707 C 512.4326171875 97.68560028076172 489.2668762207031 54.65787124633789 494.5420227050781 202.88052368164062" stroke-width="16.320865631103516" fill="none" stroke="rgb(0, 255, 0)" stroke-opacity="1.0" stroke-linecap="round" stroke-linejoin="round"/>
    <path d="M 280.1510009765625 -2.2600598335266113 C 267.5757141113281 -23.956130981445312 258.9222106933594 12.68173599243164 302.8724670410156 -8.727632522583008 C 292.9537353515625 -5.156846523284912 251.1263885498047 11.113677978515625 256.36676025390625 43.46956253051758 C 275.4463195800781 11.538771629333496 252.76979064941406 34.48319625854492 270.652587890625 17.509504318237305" stroke-width="9.165215492248535" fill="none" stroke="rgb(0, 0, 255)" stroke-opacity="1.0" stroke-linecap="round" stroke-linejoin="round"/>
    <path d="M 85.26746368408203 449.1309814453125 C 99.9406509399414 449.23492431640625 99.58137512207031 478.39093017578125 108.97718811035156 434.8218994140625" stroke-width="5.288356304168701" fill="none" stroke="rgb(0, 0, 255)" stroke-opacity="1.0" stroke-linecap="round" stroke-linejoin="round"/>
    <path d="M 238.83233642578125 41.441158294677734 C 254.26431274414062 115.53077697753906 258.17840576171875 -12.407617568969727 221.7444305419922 37.26677322387695" stroke-width="6.716220378875732" fill="none" stroke="rgb(0, 0, 0)" stroke-opacity="1.0" stroke-linecap="round" stroke-linejoin="round"/>
    <path d="M 245.73159790039062 317.7528381347656 C 283.3406677246094 347.02093505859375 239.7314453125 409.0183410644531 229.5759735107422 304.7643127441406 C 244.57591247558594 385.229736328125 280.34381103515625 464.3315124511719 190.02487182617188 326.9807434082031" stroke-width="7.734358787536621" fill="none" stroke="rgb(0, 255, 0)" stroke-opacity="1.0" stroke-linecap="round" stroke-linejoin="round"/>
    <path d="M 8.727148056030273 479.2603759765625 C -23.89319610595703 484.3708190917969 3.6950409412384033 455.8153381347656 6.745436668395996 425.4521484375 C -7.365926265716553 464.2796630859375 19.975772857666016 395.5445861816406 19.895944595336914 389.9706726074219" stroke-width="6.529140949249268" fill="none" stroke="rgb(0, 255, 255)" stroke-opacity="1.0" stroke-linecap="round" stroke-linejoin="round"/>
    <path d="M 356.9656677246094 222.42401123046875 C 360.25250244140625 238.50498962402344 341.1893310546875 178.38912963867188 326.191162109375 232.0953369140625" stroke-width="5.5969719886779785" fill="none" stroke="rgb(0, 0, 255)" stroke-opacity="1.0" stroke-linecap="round" stroke-linejoin="round"/>
    <path d="M 430.9836120605469 78.86360168457031 C 443.4757995605469 225.34567260742188 468.29498291015625 38.15305709838867 478.1688232421875 50.72464370727539 C 478.29034423828125 65.66546630859375 499.8578186035156 16.757488250732422 473.8797912597656 56.189735412597656 C 517.2722778320312 89.17234802246094 463.908203125 58.652679443359375 495.69171142578125 154.56163024902344" stroke-width="7.316811561584473" fill="none" stroke="rgb(255, 0, 255)" stroke-opacity="1.0" stroke-linecap="round" stroke-linejoin="round"/>
    <path d="M 50.89215087890625 381.2366638183594 C 28.21782112121582 328.7315979003906 132.4429931640625 278.2276916503906 99.08808898925781 326.8666076660156 C 114.63203430175781 352.25927734375 64.85460662841797 434.9270935058594 90.99473571777344 441.7217712402344" stroke-width="4.813089847564697" fill="none" stroke="rgb(0, 255, 0)" stroke-opacity="1.0" stroke-linecap="round" stroke-linejoin="round"/>
    <path d="M 235.49847412109375 204.0218048095703 C 263.5931701660156 180.9991912841797 268.2730407714844 261.9421691894531 255.89491271972656 206.17681884765625 C 225.41452026367188 255.1735076904297 218.4905548095703 142.32640075683594 263.4983215332031 203.8501434326172" stroke-width="6.659034729003906" fill="none" stroke="rgb(255, 255, 0)" stroke-opacity="1.0" stroke-linecap="round" stroke-linejoin="round"/>
    <path d="M 265.0690002441406 146.83645629882812 C 314.6773681640625 122.0988998413086 287.5393981933594 202.03091430664062 302.791015625 107.98314666748047 C 333.2709045410156 -10.260366439819336 347.21795654296875 46.911285400390625 341.42791748046875 73.51700592041016" stroke-width="4.037524223327637" fill="none" stroke="rgb(0, 0, 255)" stroke-opacity="1.0" stroke-linecap="round" stroke-linejoin="round"/>
    <path d="M 202.89476013183594 360.080810546875 C 189.94651794433594 288.6496276855469 231.9966583251953 279.8827209472656 214.77630615234375 252.5880584716797 C 186.94747924804688 292.15911865234375 245.31300354003906 245.3052978515625 208.17037963867188 218.69747924804688 C 183.46702575683594 208.1414794921875 249.40048217773438 193.3800506591797 237.49713134765625 253.08843994140625" stroke-width="10.641008377075195" fill="none" stroke="rgb(0, 255, 211)" stroke-opacity="1.0" stroke-linecap="round" stroke-linejoin="round"/>
    <path d="M 11.667402267456055 216.680908203125 C 13.46489143371582 252.71636962890625 -43.91651916503906 195.93170166015625 24.75377655029297 215.1256866455078" stroke-width="5.824583053588867" fill="none" stroke="rgb(0, 0, 0)" stroke-opacity="1.0" stroke-linecap="round" stroke-linejoin="round"/>
    <path d="M 377.7725830078125 383.1654968261719 C 405.87109375 491.2607727050781 346.230712890625 456.8534240722656 374.5888671875 374.6272277832031" stroke-width="10.570784568786621" fill="none" stroke="rgb(255, 255, 0)" stroke-opacity="1.0" stroke-linecap="round" stroke-linejoin="round"/>
    <path d="M 349.2552795410156 288.33111572265625 C 370.6153869628906 349.8965759277344 304.85565185546875 231.3553009033203 356.021240234375 253.46917724609375 C 368.3807678222656 312.6607666015625 355.12286376953125 242.85653686523438 366.0921936035156 239.97052001953125 C 326.26715087890625 219.66995239257812 324.94671630859375 199.63584899902344 300.8248291015625 336.753173828125" stroke-width="5.640048980712891" fill="none" stroke="rgb(0, 0, 255)" stroke-opacity="1.0" stroke-linecap="round" stroke-linejoin="round"/>
    <path d="M 373.30743408203125 57.147857666015625 C 373.8606872558594 130.01223754882812 372.1282043457031 41.66543960571289 390.1786804199219 26.410921096801758 C 451.8923034667969 14.036914825439453 395.49932861328125 105.07072448730469 396.4042053222656 78.79765319824219" stroke-width="5.463263511657715" fill="none" stroke="rgb(0, 0, 255)" stroke-opacity="1.0" stroke-linecap="round" stroke-linejoin="round"/>
    <path d="M 445.51251220703125 346.0711975097656 C 524.6427001953125 361.2449951171875 410.7836608886719 386.4290466308594 431.7920227050781 526.7929077148438 C 477.4537048339844 601.0399780273438 455.38616943359375 237.74630737304688 486.0645751953125 498.2190246582031" stroke-width="11.955626487731934" fill="none" stroke="rgb(255, 0, 255)" stroke-opacity="1.0" stroke-linecap="round" stroke-linejoin="round"/>
    <path d="M 90.46324920654297 517.8448486328125 C 114.17915344238281 437.29522705078125 100.05937957763672 472.07672119140625 68.57518005371094 535.768310546875 C 118.51728820800781 485.8667297363281 76.03347778320312 513.3751831054688 86.15914916992188 505.65765380859375" stroke-width="5.700013160705566" fill="none" stroke="rgb(0, 232, 255)" stroke-opacity="1.0" stroke-linecap="round" stroke-linejoin="round"/>
    <path d="M 204.79498291015625 487.539794921875 C 181.83836364746094 444.7662353515625 113.70002746582031 621.3057861328125 174.36514282226562 426.3411865234375" stroke-width="7.224270820617676" fill="none" stroke="rgb(255, 255, 0)" stroke-opacity="1.0" stroke-linecap="round" stroke-linejoin="round"/>
    <path d="M 222.25218200683594 99.85444641113281 C 146.65774536132812 62.20945739746094 213.1210479736328 83.2264633178711 230.51072692871094 132.1759796142578 C 282.47186279296875 114.24285888671875 229.2774200439453 134.5961151123047 253.68667602539062 55.48112487792969 C 237.89833068847656 112.43220520019531 254.83636474609375 20.997726440429688 284.5046691894531 10.718607902526855" stroke-width="10.954485893249512" fill="none" stroke="rgb(255, 0, 255)" stroke-opacity="1.0" stroke-linecap="round" stroke-linejoin="round"/>
    <path d="M 288.4368896484375 150.06715393066406 C 317.6218566894531 292.53765869140625 306.83392333984375 58.732913970947266 356.43505859375 46.31820297241211" stroke-width="9.728506088256836" fill="none" stroke="rgb(0, 255, 162)" stroke-opacity="1.0" stroke-linecap="round" stroke-linejoin="round"/>
    <path d="M 89.21363830566406 45.31488037109375 C 101.35860443115234 77.84333038330078 74.73966217041016 33.56674575805664 83.31329345703125 27.808853149414062 C 79.11721801757812 31.627450942993164 67.24948120117188 82.8371810913086 90.16185760498047 13.639492988586426" stroke-width="10.520573616027832" fill="none" stroke="rgb(255, 0, 255)" stroke-opacity="1.0" stroke-linecap="round" stroke-linejoin="round"/>
    <path d="M 145.6551971435547 374.2536315917969 C 161.5158233642578 482.351806640625 137.9033203125 395.14080810546875 164.9481201171875 444.8580627441406" stroke-width="5.210496425628662" fill="none" stroke="rgb(0, 255, 0)" stroke-opacity="1.0" stroke-linecap="round" stroke-linejoin="round"/>
    <path d="M 430.5647888183594 20.959625244140625 C 458.34014892578125 23.452138900756836 375.76422119140625 -25.784761428833008 374.2243347167969 52.03000259399414" stroke-width="6.075435161590576" fill="none" stroke="rgb(0, 0, 255)" stroke-opacity="1.0" stroke-linecap="round" stroke-linejoin="round"/>
    <path d="M 200.80877685546875 215.95712280273438 C 185.5210418701172 194.52410888671875 219.2715301513672 246.98782348632812 167.8060302734375 207.96865844726562 C 172.38101196289062 148.7681884765625 157.993896484375 202.32525634765625 175.76641845703125 212.95248413085938 C 196.7108917236328 41.54970932006836 204.61492919921875 126.33857727050781 225.89715576171875 233.90869140625" stroke-width="13.975237846374512" fill="none" stroke="rgb(255, 0, 255)" stroke-opacity="1.0" stroke-linecap="round" stroke-linejoin="round"/>
    <path d="M 81.68680572509766 -7.889070987701416 C 95.8076400756836 -11.114344596862793 96.35630798339844 -22.433996200561523 91.42643737792969 -8.143935203552246 C 106.19798278808594 -12.535996437072754 127.13285064697266 -18.53860092163086 144.01849365234375 -6.156566143035889" stroke-width="2.0" fill="none" stroke="rgb(0, 162, 0)" stroke-opacity="0.9191058" stroke-linecap="round" stroke-linejoin="round"/>
    <path d="M 122.80266571044922 12.069049835205078 C 150.4979248046875 10.499549865722656 106.1739273071289 29.076099395751953 117.67892456054688 107.22566223144531 C 75.97159576416016 281.491455078125 90.53165435791016 11.474287033081055 115.49784851074219 -10.966948509216309" stroke-width="8.26534652709961" fill="none" stroke="rgb(255, 255, 0)" stroke-opacity="1.0" stroke-linecap="round" stroke-linejoin="round"/>
    <path d="M 432.7783508300781 366.6865234375 C 451.9310607910156 307.2866516113281 301.8424072265625 383.36480712890625 329.90899658203125 327.4416198730469 C 431.2814025878906 304.7394104003906 365.01190185546875 349.3675231933594 343.2411804199219 382.1333312988281 C 318.06292724609375 461.3615417480469 363.41943359375 555.6343994140625 336.0675048828125 420.6564636230469" stroke-width="7.328623294830322" fill="none" stroke="rgb(255, 255, 0)" stroke-opacity="1.0" stroke-linecap="round" stroke-linejoin="round"/>
    <path d="M 28.127965927124023 523.4852905273438 C 36.00390625 438.8698425292969 22.869754791259766 444.6150817871094 92.54302978515625 471.58935546875 C 63.73000717163086 461.2911071777344 57.783504486083984 467.0570068359375 99.03250122070312 348.9755554199219 C 57.112213134765625 434.2216491699219 71.58965301513672 471.02105712890625 71.9117660522461 463.6055908203125" stroke-width="5.880102157592773" fill="none" stroke="rgb(0, 0, 255)" stroke-opacity="1.0" stroke-linecap="round" stroke-linejoin="round"/>
    <path d="M 139.5111846923828 475.3293151855469 C 136.4466552734375 446.1255187988281 152.49044799804688 418.80859375 160.13015747070312 464.0818176269531" stroke-width="8.895711898803711" fill="none" stroke="rgb(0, 0, 255)" stroke-opacity="1.0" stroke-linecap="round" stroke-linejoin="round"/>
    <path d="M 23.552141189575195 183.62908935546875 C 71.23535919189453 207.18321228027344 50.26156997680664 235.2188720703125 75.76954650878906 148.9388427734375" stroke-width="6.781688690185547" fill="none" stroke="rgb(0, 255, 0)" stroke-opacity="1.0" stroke-linecap="round" stroke-linejoin="round"/>
    <path d="M 308.3663635253906 -23.399669647216797 C 231.39024353027344 20.082178115844727 232.4994354248047 1.190335988998413 319.0693359375 -6.351047515869141" stroke-width="10.738791465759277" fill="none" stroke="rgb(255, 255, 0)" stroke-opacity="1.0" stroke-linecap="round" stroke-linejoin="round"/>
    <path d="M 97.55854034423828 368.093994140625 C 129.74693298339844 433.9502868652344 101.29703521728516 305.5588684082031 81.77765655517578 350.98895263671875" stroke-width="3.995035171508789" fill="none" stroke="rgb(0, 0, 15)" stroke-opacity="1.0" stroke-linecap="round" stroke-linejoin="round"/>
    <path d="M 201.79458618164062 142.8945770263672 C 237.9330291748047 114.82450866699219 179.55877685546875 75.8714370727539 190.51393127441406 97.83949279785156 C 191.0191192626953 128.87586975097656 173.93731689453125 98.728515625 192.1501007080078 132.8311004638672 C 194.69732666015625 161.54478454589844 163.0880889892578 64.29258728027344 168.7501678466797 74.5101318359375" stroke-width="8.221960067749023" fill="none" stroke="rgb(0, 255, 0)" stroke-opacity="1.0" stroke-linecap="round" stroke-linejoin="round"/>
    <path d="M 348.90374755859375 306.2193603515625 C 359.24237060546875 290.9471130371094 341.454345703125 407.84820556640625 320.6794738769531 401.5030517578125 C 345.2732849121094 406.6683044433594 321.4962463378906 372.5423583984375 356.6401062011719 345.3017883300781 C 354.19610595703125 340.2319641113281 308.76641845703125 427.0432434082031 333.5225830078125 481.5818176269531" stroke-width="9.581984519958496" fill="none" stroke="rgb(0, 255, 255)" stroke-opacity="1.0" stroke-linecap="round" stroke-linejoin="round"/>
    <path d="M 263.3329772949219 328.10546875 C 209.9540557861328 582.5791015625 209.6834259033203 438.9335632324219 226.77313232421875 370.7685241699219 C 227.34664916992188 382.6499328613281 226.2814483642578 432.8212890625 211.11233520507812 319.4653015136719" stroke-width="8.965598106384277" fill="none" stroke="rgb(255, 255, 0)" stroke-opacity="1.0" stroke-linecap="round" stroke-linejoin="round"/>
    <path d="M 462.0617370605469 159.2523651123047 C 505.8611145019531 162.26377868652344 482.6355895996094 193.98855590820312 491.5870361328125 271.712158203125 C 464.8560791015625 250.91871643066406 465.7106018066406 220.0174102783203 476.49981689453125 195.2139892578125 C 472.8306579589844 172.75469970703125 429.1171875 166.38453674316406 425.63629150390625 239.53294372558594" stroke-width="8.062376976013184" fill="none" stroke="rgb(0, 0, 255)" stroke-opacity="1.0" stroke-linecap="round" stroke-linejoin="round"/>
    <path d="M 334.4225158691406 295.2917785644531 C 348.96575927734375 214.88504028320312 325.3414306640625 270.30859375 332.1938171386719 277.1228942871094" stroke-width="4.058664798736572" fill="none" stroke="rgb(0, 0, 255)" stroke-opacity="1.0" stroke-linecap="round" stroke-linejoin="round"/>
    <path d="M 92.36637115478516 434.34869384765625 C 101.7590103149414 374.7994689941406 110.76578521728516 392.93170166015625 167.04908752441406 410.9381103515625" stroke-width="4.8298563957214355" fill="none" stroke="rgb(0, 0, 255)" stroke-opacity="1.0" stroke-linecap="round" stroke-linejoin="round"/>
    <path d="M 369.9898376464844 396.31512451171875 C 389.5052185058594 474.8735046386719 365.3882141113281 443.644775390625 374.86614990234375 447.5169372558594 C 437.5770263671875 357.14794921875 320.31353759765625 295.67059326171875 359.16302490234375 487.15972900390625" stroke-width="7.206134796142578" fill="none" stroke="rgb(0, 0, 255)" stroke-opacity="1.0" stroke-linecap="round" stroke-linejoin="round"/>
    <path d="M 492.07403564453125 481.53106689453125 C 482.4356994628906 332.0982666015625 418.7195129394531 435.17340087890625 439.91326904296875 601.2835083007812 C 460.26324462890625 436.40020751953125 458.3239440917969 452.8427734375 468.75225830078125 458.1575012207031" stroke-width="5.7881340980529785" fill="none" stroke="rgb(0, 0, 255)" stroke-opacity="1.0" stroke-linecap="round" stroke-linejoin="round"/>
    <path d="M 329.1419372558594 180.4646759033203 C 320.7166442871094 143.14984130859375 353.28033447265625 43.75627136230469 336.2615966796875 105.32038879394531 C 355.4711608886719 271.2164306640625 374.3215026855469 79.3243637084961 404.26165771484375 130.12449645996094 C 417.1129150390625 270.15447998046875 435.1849365234375 172.68319702148438 381.1484680175781 178.39321899414062" stroke-width="7.745026111602783" fill="none" stroke="rgb(0, 0, 255)" stroke-opacity="1.0" stroke-linecap="round" stroke-linejoin="round"/>
    <path d="M 51.79249572753906 505.85125732421875 C 72.22612762451172 523.6618041992188 62.64812469482422 523.1176147460938 64.02783203125 543.8892211914062" stroke-width="2.0" fill="none" stroke="rgb(150, 154, 0)" stroke-opacity="0.4025036" stroke-linecap="round" stroke-linejoin="round"/>
    <path d="M 445.98486328125 70.62309265136719 C 448.2431335449219 41.47949981689453 412.8605041503906 56.912940979003906 413.2274169921875 54.71171569824219 C 401.8116149902344 54.656005859375 406.80682373046875 120.23370361328125 420.3061828613281 125.22080993652344 C 399.7774353027344 50.91012954711914 425.14764404296875 52.98566818237305 422.06988525390625 29.58650779724121" stroke-width="5.844527721405029" fill="none" stroke="rgb(0, 0, 255)" stroke-opacity="1.0" stroke-linecap="round" stroke-linejoin="round"/>
    <path d="M -11.2576904296875 67.36564636230469 C 15.88455867767334 37.28399658203125 -4.652347087860107 7.705997467041016 72.9665756225586 9.404139518737793 C 19.84618377685547 -37.7569465637207 -0.17884957790374756 33.568382263183594 2.9125969409942627 -0.6436688303947449" stroke-width="10.7977294921875" fill="none" stroke="rgb(255, 0, 255)" stroke-opacity="1.0" stroke-linecap="round" stroke-linejoin="round"/>
    <path d="M 197.3639373779297 139.42227172851562 C 195.8522186279297 141.7677459716797 190.7720489501953 174.4490509033203 214.3147430419922 119.8108139038086 C 162.9828643798828 85.76854705810547 210.43002319335938 145.5522003173828 162.15188598632812 121.42011260986328" stroke-width="7.682548522949219" fill="none" stroke="rgb(255, 255, 0)" stroke-opacity="1.0" stroke-linecap="round" stroke-linejoin="round"/>
    <path d="M 357.8222961425781 358.62457275390625 C 320.4697570800781 481.946533203125 370.4147033691406 362.03009033203125 359.9566955566406 504.494873046875" stroke-width="9.747780799865723" fill="none" stroke="rgb(255, 0, 255)" stroke-opacity="1.0" stroke-linecap="round" stroke-linejoin="round"/>
    <path d="M 181.65426635742188 376.5287170410156 C 182.75112915039062 453.731201171875 240.94252014160156 479.5551452636719 225.9464111328125 440.3302917480469 C 268.9958801269531 310.32135009765625 248.16200256347656 279.9615173339844 273.2960510253906 354.3885803222656 C 322.49798583984375 266.249267578125 254.83241271972656 375.4834289550781 259.67938232421875 453.2745361328125" stroke-width="8.333691596984863" fill="none" stroke="rgb(255, 0, 255)" stroke-opacity="1.0" stroke-linecap="round" stroke-linejoin="round"/>
    <path d="M 20.901166915893555 245.98861694335938 C 16.94232177734375 236.7442169189453 35.147056579589844 246.70968627929688 32.59486389160156 273.43621826171875 C 42.48539352416992 352.58074951171875 79.29804229736328 373.8925476074219 98.6862564086914 357.64593505859375 C 59.44273376464844 372.6624450683594 111.11475372314453 299.9973449707031 68.42091369628906 329.41278076171875" stroke-width="2.0" fill="none" stroke="rgb(0, 255, 208)" stroke-opacity="0.0" stroke-linecap="round" stroke-linejoin="round"/>
    <path d="M 300.0159606933594 451.8248291015625 C 300.4375305175781 417.1539611816406 322.7052917480469 411.8101806640625 298.47900390625 407.6784362792969 C 283.82958984375 395.7730712890625 288.0995788574219 430.2658386230469 297.3616638183594 390.6064758300781" stroke-width="5.428443908691406" fill="none" stroke="rgb(0, 0, 255)" stroke-opacity="1.0" stroke-linecap="round" stroke-linejoin="round"/>
    <path d="M 208.4225616455078 177.5161590576172 C 182.80039978027344 220.85069274902344 234.34022521972656 218.03456115722656 173.07798767089844 252.66590881347656 C 168.82582092285156 255.9019775390625 195.80841064453125 247.91213989257812 199.3673095703125 276.728759765625" stroke-width="4.4725751876831055" fill="none" stroke="rgb(0, 0, 0)" stroke-opacity="1.0" stroke-linecap="round" stroke-linejoin="round"/>
    <path d="M 97.08442687988281 324.9276428222656 C 136.5235595703125 323.1480712890625 109.31271362304688 370.6820983886719 109.01045989990234 385.94964599609375" stroke-width="11.359742164611816" fill="none" stroke="rgb(255, 0, 255)" stroke-opacity="1.0" stroke-linecap="round" stroke-linejoin="round"/>
    <path d="M 63.66762924194336 20.30475616455078 C 43.11429977416992 -4.026543140411377 10.01626205444336 3.0809402465820312 -9.880875587463379 61.207218170166016 C -19.350486755371094 32.800052642822266 -27.921049118041992 45.42092514038086 -31.700740814208984 35.67925262451172" stroke-width="5.848504543304443" fill="none" stroke="rgb(0, 0, 255)" stroke-opacity="1.0" stroke-linecap="round" stroke-linejoin="round"/>
    <path d="M 213.47650146484375 132.8655242919922 C 166.68434143066406 218.5039520263672 187.3433380126953 252.67877197265625 173.11614990234375 130.67799377441406 C 180.35751342773438 247.82997131347656 205.49398803710938 285.2528381347656 204.2392578125 206.6201934814453 C 212.0044708251953 155.4652557373047 243.92294311523438 211.0461883544922 225.19302368164062 199.3966522216797" stroke-width="8.253101348876953" fill="none" stroke="rgb(0, 255, 255)" stroke-opacity="1.0" stroke-linecap="round" stroke-linejoin="round"/>
    <path d="M 457.8906555175781 417.674560546875 C 508.9333190917969 535.0609130859375 510.65167236328125 470.8858947753906 471.7002258300781 361.4110412597656 C 473.9508972167969 451.97149658203125 500.01611328125 384.8609619140625 519.0784912109375 385.0453186035156" stroke-width="11.12321662902832" fill="none" stroke="rgb(0, 255, 0)" stroke-opacity="1.0" stroke-linecap="round" stroke-linejoin="round"/>
    <path d="M 54.22603988647461 354.74932861328125 C 46.17572021484375 365.988525390625 69.60711669921875 333.0787658691406 65.74515533447266 324.6707458496094 C 62.048057556152344 335.6347961425781 69.34280395507812 294.6721496582031 -16.587682723999023 320.2174987792969 C 67.01972198486328 277.9376525878906 40.679100036621094 359.4556579589844 46.380252838134766 270.2702941894531" stroke-width="8.607830047607422" fill="none" stroke="rgb(0, 0, 255)" stroke-opacity="1.0" stroke-linecap="round" stroke-linejoin="round"/>
    <path d="M 411.2090148925781 420.0308837890625 C 402.9968566894531 480.3336181640625 411.5506591796875 371.2183532714844 460.6871032714844 347.0267028808594" stroke-width="7.536243915557861" fill="none" stroke="rgb(0, 0, 255)" stroke-opacity="1.0" stroke-linecap="round" stroke-linejoin="round"/>
    <path d="M 18.4097957611084 217.7650604248047 C 27.086463928222656 264.4956970214844 51.3604850769043 185.27023315429688 35.8393669128418 250.0196990966797 C 47.16130828857422 225.3257293701172 77.36670684814453 199.7409210205078 52.83049774169922 305.8327331542969" stroke-width="7.641106128692627" fill="none" stroke="rgb(0, 255, 119)" stroke-opacity="1.0" stroke-linecap="round" stroke-linejoin="round"/>
    <path d="M 77.80708312988281 1.2559053897857666 C 57.327701568603516 3.179276943206787 85.31847381591797 23.814916610717773 65.5258560180664 -0.6228001713752747 C 102.3056411743164 -22.51688003540039 78.09545135498047 -1.3559889793395996 69.71559143066406 1.5571857690811157" stroke-width="3.7598953247070312" fill="none" stroke="rgb(0, 0, 255)" stroke-opacity="1.0" stroke-linecap="round" stroke-linejoin="round"/>
    <path d="M 259.73614501953125 24.41173553466797 C 187.96160888671875 13.634987831115723 235.2033233642578 46.894752502441406 239.6982421875 137.87832641601562" stroke-width="7.225627899169922" fill="none" stroke="rgb(0, 255, 255)" stroke-opacity="1.0" stroke-linecap="round" stroke-linejoin="round"/>
    <path d="M 129.63336181640625 476.32861328125 C 127.45010375976562 518.9830932617188 123.64556884765625 478.8384704589844 136.66159057617188 449.4699401855469 C 174.35665893554688 454.4440612792969 115.4249496459961 492.76141357421875 139.1503143310547 434.15155029296875 C 108.02348327636719 553.68798828125 155.30093383789062 554.11962890625 127.93050384521484 492.17828369140625" stroke-width="6.8608808517456055" fill="none" stroke="rgb(255, 255, 0)" stroke-opacity="1.0" stroke-linecap="round" stroke-linejoin="round"/>
    <path d="M 505.4931335449219 268.9721984863281 C 467.9779052734375 262.9341125488281 482.8855895996094 172.008544921875 489.0558776855469 200.5919189453125" stroke-width="7.970846176147461" fill="none" stroke="rgb(0, 255, 0)" stroke-opacity="1.0" stroke-linecap="round" stroke-linejoin="round"/>
    <path d="M 191.19036865234375 234.9728546142578 C 173.99050903320312 222.49374389648438 152.51376342773438 271.3647766113281 145.55531311035156 371.10870361328125 C 163.6068572998047 234.50755310058594 96.81512451171875 367.3023986816406 151.7491912841797 235.96591186523438 C 177.5760498046875 218.89271545410156 146.5159912109375 212.09336853027344 122.70913696289062 331.4288330078125" stroke-width="5.055983543395996" fill="none" stroke="rgb(0, 0, 255)" stroke-opacity="1.0" stroke-linecap="round" stroke-linejoin="round"/>
    <path d="M 445.2631530761719 308.1142883300781 C 436.35467529296875 267.67724609375 415.1163635253906 281.9237976074219 415.73541259765625 234.71566772460938 C 444.4046630859375 230.224853515625 343.3955993652344 247.54336547851562 367.34124755859375 224.8900604248047" stroke-width="7.744352340698242" fill="none" stroke="rgb(255, 255, 0)" stroke-opacity="1.0" stroke-linecap="round" stroke-linejoin="round"/>
    <path d="M 150.09767150878906 325.0112609863281 C 133.47584533691406 405.1371765136719 167.05520629882812 224.33482360839844 195.36097717285156 235.87599182128906 C 232.2508087158203 288.6923828125 149.94000244140625 310.0289001464844 204.79202270507812 365.144775390625 C 207.33486938476562 392.388671875 226.07537841796875 386.7601013183594 180.67062377929688 335.0541687011719" stroke-width="10.536770820617676" fill="none" stroke="rgb(255, 0, 255)" stroke-opacity="1.0" stroke-linecap="round" stroke-linejoin="round"/>
    <path d="M 197.9767608642578 436.6034240722656 C 147.126708984375 427.9783630371094 204.7920379638672 447.0267028808594 156.1417999267578 471.9446105957031 C 188.137451171875 435.4479675292969 258.6741027832031 466.2284851074219 231.48057556152344 475.9644775390625" stroke-width="7.127708911895752" fill="none" stroke="rgb(0, 0, 255)" stroke-opacity="1.0" stroke-linecap="round" stroke-linejoin="round"/>
    <path d="M 146.98797607421875 106.74361419677734 C 147.68557739257812 48.18146514892578 134.2511749267578 9.160907745361328 131.49839782714844 95.22652435302734" stroke-width="12.956036567687988" fill="none" stroke="rgb(255, 0, 255)" stroke-opacity="1.0" stroke-linecap="round" stroke-linejoin="round"/>
    <path d="M 138.19485473632812 399.3565979003906 C 125.95172119140625 401.13623046875 116.6251220703125 385.6263122558594 96.79476928710938 490.8926696777344" stroke-width="5.649704456329346" fill="none" stroke="rgb(0, 0, 255)" stroke-opacity="1.0" stroke-linecap="round" stroke-linejoin="round"/>
    <path d="M 234.88824462890625 261.0809326171875 C 223.36949157714844 221.5462188720703 206.0412139892578 256.753173828125 210.70704650878906 255.35548400878906 C 209.48963928222656 222.98167419433594 183.58961486816406 226.43264770507812 190.77261352539062 248.3838348388672 C 190.53143310546875 224.69061279296875 167.3881378173828 209.33087158203125 148.8610076904297 284.9805908203125" stroke-width="3.714780330657959" fill="none" stroke="rgb(0, 0, 0)" stroke-opacity="1.0" stroke-linecap="round" stroke-linejoin="round"/>
    <path d="M 273.8473205566406 213.99844360351562 C 237.2444305419922 272.5279235839844 225.99551391601562 325.5329895019531 209.40280151367188 274.4213562011719 C 185.9311981201172 256.8741455078125 168.4304656982422 373.8139343261719 175.60887145996094 342.0057373046875 C 211.2046356201172 359.0500793457031 151.105224609375 299.47515869140625 165.6338348388672 432.7393798828125" stroke-width="4.450680732727051" fill="none" stroke="rgb(0, 0, 255)" stroke-opacity="1.0" stroke-linecap="round" stroke-linejoin="round"/>
    <path d="M 312.3699645996094 327.66937255859375 C 283.291259765625 305.0285339355469 274.55029296875 289.3559875488281 341.007080078125 168.62710571289062 C 280.5255432128906 305.14208984375 289.5674743652344 261.29803466796875 302.4035339355469 323.8807373046875" stroke-width="9.106112480163574" fill="none" stroke="rgb(0, 255, 146)" stroke-opacity="1.0" stroke-linecap="round" stroke-linejoin="round"/>
    <path d="M 243.441650390625 125.62918853759766 C 253.20486450195312 139.45277404785156 233.54344177246094 144.73207092285156 261.2768249511719 221.77159118652344 C 326.4494323730469 207.25625610351562 242.9333953857422 201.05284118652344 272.43890380859375 123.04985046386719 C 259.0132751464844 166.9307403564453 269.1104736328125 171.67921447753906 294.4429626464844 231.62771606445312" stroke-width="9.179699897766113" fill="none" stroke="rgb(255, 255, 0)" stroke-opacity="1.0" stroke-linecap="round" stroke-linejoin="round"/>
    <path d="M 419.70758056640625 193.6942901611328 C 364.8912658691406 140.79649353027344 406.0232238769531 285.8915100097656 381.0932312011719 95.23529815673828 C 409.8305358886719 330.6321716308594 409.620361328125 211.22146606445312 391.6336975097656 229.53036499023438" stroke-width="8.973801612854004" fill="none" stroke="rgb(0, 0, 255)" stroke-opacity="1.0" stroke-linecap="round" stroke-linejoin="round"/>
    <path d="M 339.6213073730469 346.5991516113281 C 377.55389404296875 324.9056396484375 340.6566467285156 346.364501953125 328.1300964355469 415.2529296875 C 304.8558654785156 429.0281066894531 311.7667236328125 374.3742980957031 336.8302917480469 402.48895263671875 C 329.32061767578125 457.8819274902344 334.28729248046875 394.5947265625 348.5767822265625 363.3590087890625" stroke-width="3.213369846343994" fill="none" stroke="rgb(0, 255, 0)" stroke-opacity="1.0" stroke-linecap="round" stroke-linejoin="round"/>
    <path d="M 304.6324462890625 51.07014846801758 C 302.1073913574219 58.303497314453125 326.0177917480469 -23.29757308959961 362.8730773925781 20.26125144958496 C 345.2498779296875 74.0190200805664 371.3470153808594 50.474365234375 339.97650146484375 54.20299530029297" stroke-width="4.217306137084961" fill="none" stroke="rgb(0, 0, 255)" stroke-opacity="1.0" stroke-linecap="round" stroke-linejoin="round"/>
    <path d="M 317.0897216796875 288.01727294921875 C 295.7633972167969 412.0003662109375 289.3131408691406 396.3612365722656 311.6370544433594 429.2438049316406 C 337.5987243652344 387.9147033691406 316.96502685546875 304.4109191894531 400.6600036621094 345.9100646972656 C 351.1786804199219 349.356689453125 378.7053527832031 279.95306396484375 340.63934326171875 293.6440734863281" stroke-width="9.738895416259766" fill="none" stroke="rgb(255, 0, 255)" stroke-opacity="1.0" stroke-linecap="round" stroke-linejoin="round"/>
    <path d="M 464.7228088378906 245.7508087158203 C 447.04150390625 48.94289016723633 480.65350341796875 143.37307739257812 500.72210693359375 178.61671447753906 C 484.01953125 228.74111938476562 515.9535522460938 196.12448120117188 499.23065185546875 180.77000427246094 C 497.91387939453125 150.4142608642578 470.2270202636719 164.2917022705078 482.1297607421875 136.3362274169922" stroke-width="7.4103684425354" fill="none" stroke="rgb(0, 255, 0)" stroke-opacity="1.0" stroke-linecap="round" stroke-linejoin="round"/>
    <path d="M 9.910955429077148 -4.577262878417969 C 18.57733726501465 12.49435043334961 37.03493118286133 -25.430282592773438 -12.768863677978516 28.111024856567383 C -16.07758331298828 0.9952862858772278 -34.45599365234375 -8.669243812561035 -55.29792785644531 -15.265820503234863" stroke-width="5.109544277191162" fill="none" stroke="rgb(0, 0, 255)" stroke-opacity="1.0" stroke-linecap="round" stroke-linejoin="round"/>
    <path d="M 377.57763671875 231.65817260742188 C 367.5267028808594 257.93853759765625 357.86163330078125 213.51364135742188 408.2458801269531 238.38043212890625 C 396.7150573730469 227.73568725585938 449.9706115722656 190.02159118652344 392.5648498535156 183.34854125976562 C 436.1088562011719 260.446533203125 389.82763671875 245.21127319335938 376.6949462890625 199.46484375" stroke-width="3.8696563243865967" fill="none" stroke="rgb(0, 255, 205)" stroke-opacity="1.0" stroke-linecap="round" stroke-linejoin="round"/>
    <path d="M 399.3315124511719 234.40304565429688 C 335.88433837890625 147.95228576660156 412.4320373535156 138.55307006835938 342.1978759765625 113.80844116210938 C 369.754638671875 46.45598602294922 343.0914001464844 84.25395965576172 451.06451416015625 128.23056030273438" stroke-width="4.146890640258789" fill="none" stroke="rgb(0, 255, 0)" stroke-opacity="1.0" stroke-linecap="round" stroke-linejoin="round"/>
    <path d="M 154.7774200439453 97.80358123779297 C 158.7959747314453 157.78604125976562 158.87051391601562 77.82463836669922 146.22573852539062 49.592525482177734 C 161.50840759277344 62.32124710083008 155.38011169433594 176.77272033691406 158.5928955078125 141.4405975341797 C 188.9018096923828 80.0631332397461 225.77020263671875 136.85691833496094 183.60009765625 105.57217407226562" stroke-width="5.3179755210876465" fill="none" stroke="rgb(0, 0, 255)" stroke-opacity="1.0" stroke-linecap="round" stroke-linejoin="round"/>
    <path d="M 183.3297882080078 -8.893279075622559 C 131.0179901123047 35.41191864013672 125.13691711425781 41.132904052734375 162.599365234375 115.48371887207031 C 106.47593688964844 56.635494232177734 153.46099853515625 23.553726196289062 150.74037170410156 16.639822006225586 C 160.1553955078125 62.964393615722656 168.59243774414062 75.79856872558594 169.04901123046875 83.39513397216797" stroke-width="6.776988983154297" fill="none" stroke="rgb(0, 255, 0)" stroke-opacity="1.0" stroke-linecap="round" stroke-linejoin="round"/>
  </g>
</svg>
