<?xml version="1.0" ?>
<svg xmlns="http://www.w3.org/2000/svg" version="1.1" width="500" height="500">
  <defs/>
  <g>
    <path d="M 275.1212158203125 297.10662841796875 C 277.852294921875 293.43841552734375 298.3941955566406 267.1005554199219 286.41851806640625 318.12164306640625 C 265.41925048828125 301.9431457519531 252.223388671875 277.85333251953125 257.16229248046875 297.24127197265625" stroke-width="2.004739999771118" fill="none" stroke="rgb(255, 255, 255)" stroke-opacity="0.0" stroke-linecap="round" stroke-linejoin="round"/>
    <path d="M 314.66790771484375 249.31686401367188 C 337.6683349609375 301.839599609375 318.1601867675781 262.3065185546875 216.81739807128906 293.2835998535156 C 281.4481506347656 325.7019958496094 279.3081359863281 290.80426025390625 183.82606506347656 291.0330505371094 C 182.9069061279297 263.7528076171875 187.58084106445312 309.1497497558594 167.58493041992188 302.80499267578125" stroke-width="9.639298439025879" fill="none" stroke="rgb(17, 95, 255)" stroke-opacity="0.63645905" stroke-linecap="round" stroke-linejoin="round"/>
    <path d="M 312.38616943359375 194.064453125 C 296.0212097167969 207.7470245361328 363.3944091796875 229.47998046875 325.58721923828125 233.02218627929688 C 301.3360900878906 185.20701599121094 331.96826171875 163.78370666503906 332.16058349609375 205.96168518066406 C 275.03057861328125 243.96261596679688 319.9659423828125 266.9435119628906 373.08892822265625 237.18307495117188" stroke-width="2.0" fill="none" stroke="rgb(93, 18, 3)" stroke-opacity="0.9322807" stroke-linecap="round" stroke-linejoin="round"/>
    <path d="M 160.02224731445312 425.3607482910156 C 146.26214599609375 398.7336730957031 105.46443176269531 380.2220153808594 99.43730163574219 400.07611083984375" stroke-width="2.5710158348083496" fill="none" stroke="rgb(255, 255, 255)" stroke-opacity="0.0" stroke-linecap="round" stroke-linejoin="round"/>
    <path d="M 30.1038818359375 225.91917419433594 C 209.57606506347656 221.91722106933594 165.56935119628906 207.3808135986328 89.82080078125 230.09300231933594 C 147.78753662109375 214.55569458007812 240.88796997070312 236.87005615234375 207.01370239257812 212.51341247558594 C 325.79296875 193.7327423095703 195.22921752929688 251.9358673095703 190.13958740234375 201.40231323242188" stroke-width="9.789520263671875" fill="none" stroke="rgb(0, 0, 0)" stroke-opacity="1.0" stroke-linecap="round" stroke-linejoin="round"/>
    <path d="M 460.1349182128906 104.57268524169922 C 387.319580078125 100.25373077392578 436.5813903808594 116.68502044677734 411.1927185058594 126.77658081054688" stroke-width="10.368577003479004" fill="none" stroke="rgb(6, 0, 1)" stroke-opacity="1.0" stroke-linecap="round" stroke-linejoin="round"/>
    <path d="M 146.0429229736328 387.6379089355469 C 168.16384887695312 396.1414489746094 145.80203247070312 447.90960693359375 141.52481079101562 428.9027404785156 C 148.3617706298828 331.1702575683594 188.4445343017578 334.1238708496094 173.4437255859375 436.8143615722656" stroke-width="2.7963950634002686" fill="none" stroke="rgb(0, 0, 255)" stroke-opacity="1.0" stroke-linecap="round" stroke-linejoin="round"/>
    <path d="M 323.78826904296875 375.99346923828125 C 174.799560546875 401.2778625488281 122.42823791503906 391.44073486328125 270.9544372558594 381.8353271484375 C 257.9063720703125 355.360107421875 273.66845703125 352.4808044433594 290.7659606933594 397.00738525390625 C 282.28070068359375 347.4632263183594 324.4823913574219 411.4729919433594 243.93203735351562 406.6199035644531" stroke-width="7.196122646331787" fill="none" stroke="rgb(94, 87, 0)" stroke-opacity="1.0" stroke-linecap="round" stroke-linejoin="round"/>
    <path d="M 125.11334228515625 232.1389923095703 C 139.41207885742188 211.18426513671875 58.170963287353516 206.27200317382812 66.70513916015625 277.2972412109375" stroke-width="9.959010124206543" fill="none" stroke="rgb(184, 0, 0)" stroke-opacity="1.0" stroke-linecap="round" stroke-linejoin="round"/>
    <path d="M 219.00653076171875 471.76019287109375 C 239.2594757080078 487.6773376464844 84.82118225097656 486.3026428222656 191.94117736816406 466.3966064453125 C 310.8507995605469 449.9406433105469 235.8707275390625 468.62939453125 263.2189025878906 442.3002624511719 C 277.781982421875 408.5801086425781 247.62232971191406 429.3255920410156 334.08258056640625 403.0961608886719" stroke-width="12.726372718811035" fill="none" stroke="rgb(213, 0, 255)" stroke-opacity="1.0" stroke-linecap="round" stroke-linejoin="round"/>
    <path d="M 471.0116882324219 198.3275604248047 C 305.6045227050781 223.8226318359375 347.1036376953125 256.0243225097656 437.15679931640625 213.52809143066406" stroke-width="12.057388305664062" fill="none" stroke="rgb(255, 0, 255)" stroke-opacity="1.0" stroke-linecap="round" stroke-linejoin="round"/>
    <path d="M 58.501678466796875 242.45059204101562 C 56.08262634277344 275.01690673828125 64.12637329101562 261.3288879394531 28.674827575683594 267.93988037109375 C 6.922039985656738 205.1161346435547 28.085308074951172 381.2639465332031 24.096813201904297 322.4318542480469" stroke-width="3.456449031829834" fill="none" stroke="rgb(0, 0, 0)" stroke-opacity="1.0" stroke-linecap="round" stroke-linejoin="round"/>
    <path d="M 57.67723846435547 54.696102142333984 C 66.35841369628906 121.34314727783203 56.51755142211914 111.32451629638672 66.7437515258789 33.11770248413086" stroke-width="2.0264968872070312" fill="none" stroke="rgb(255, 255, 255)" stroke-opacity="0.0" stroke-linecap="round" stroke-linejoin="round"/>
    <path d="M 293.44122314453125 151.1320037841797 C 248.09349060058594 194.38284301757812 301.3170471191406 119.65633392333984 241.66505432128906 135.70970153808594 C 382.0456848144531 128.4291229248047 292.6193542480469 142.96743774414062 315.3865661621094 149.30821228027344" stroke-width="8.393875122070312" fill="none" stroke="rgb(18, 23, 13)" stroke-opacity="0.598171" stroke-linecap="round" stroke-linejoin="round"/>
    <path d="M 283.8213806152344 76.28515625 C 174.77589416503906 101.97196197509766 288.22930908203125 112.56916809082031 191.0596923828125 114.93592071533203 C 246.97744750976562 110.81253051757812 226.46078491210938 96.7730484008789 240.03555297851562 85.38947296142578 C 227.83990478515625 119.25299835205078 238.12454223632812 121.0021743774414 233.3318328857422 90.50682067871094" stroke-width="9.41552448272705" fill="none" stroke="rgb(255, 53, 1)" stroke-opacity="0.62315017" stroke-linecap="round" stroke-linejoin="round"/>
    <path d="M 412.94305419921875 96.33308410644531 C 407.93865966796875 105.54366302490234 576.4901733398438 77.85545349121094 471.1800537109375 99.21842956542969 C 494.4137878417969 154.83908081054688 441.19769287109375 138.49205017089844 437.1800231933594 146.2552490234375 C 341.4162902832031 143.86581420898438 390.1290283203125 259.66259765625 391.4418640136719 176.67576599121094" stroke-width="9.928255081176758" fill="none" stroke="rgb(54, 144, 198)" stroke-opacity="0.65995795" stroke-linecap="round" stroke-linejoin="round"/>
    <path d="M 4.927751064300537 481.7115173339844 C 22.453798294067383 395.1708984375 -27.214344024658203 465.886474609375 143.89102172851562 419.9746398925781 C 153.3384246826172 418.1164855957031 40.874969482421875 444.3066711425781 158.4239044189453 416.3542175292969 C 130.88919067382812 468.9360656738281 102.98870086669922 470.3718566894531 10.538737297058105 478.5703430175781" stroke-width="8.679662704467773" fill="none" stroke="rgb(0, 53, 50)" stroke-opacity="0.67411333" stroke-linecap="round" stroke-linejoin="round"/>
    <path d="M 132.80548095703125 127.64054870605469 C 112.36395263671875 116.47624969482422 123.90120697021484 139.29193115234375 170.92034912109375 133.61846923828125 C 114.037109375 112.57282257080078 84.01097869873047 174.21221923828125 139.43344116210938 163.59762573242188 C 110.07108306884766 118.33529663085938 115.16769409179688 99.9672622680664 118.49970245361328 168.6398468017578" stroke-width="2.998598098754883" fill="none" stroke="rgb(255, 255, 255)" stroke-opacity="0.0" stroke-linecap="round" stroke-linejoin="round"/>
    <path d="M 386.2878112792969 465.27288818359375 C 394.089599609375 412.7615966796875 303.89691162109375 414.1403503417969 469.64862060546875 403.26397705078125 C 318.41973876953125 438.0164794921875 304.0263366699219 426.8430480957031 332.318603515625 469.9865417480469" stroke-width="3.31736421585083" fill="none" stroke="rgb(66, 0, 54)" stroke-opacity="1.0" stroke-linecap="round" stroke-linejoin="round"/>
    <path d="M 131.32371520996094 474.6645812988281 C 291.5961608886719 462.8966369628906 183.50599670410156 467.42889404296875 253.81492614746094 462.5901184082031 C 351.2550354003906 472.05645751953125 299.7410888671875 449.3361511230469 312.2225341796875 411.68505859375" stroke-width="6.7520751953125" fill="none" stroke="rgb(0, 0, 0)" stroke-opacity="1.0" stroke-linecap="round" stroke-linejoin="round"/>
    <path d="M 471.8468322753906 438.4115295410156 C 481.5838317871094 513.26318359375 477.15655517578125 516.7163696289062 468.0022888183594 482.0845642089844" stroke-width="6.101370334625244" fill="none" stroke="rgb(0, 0, 0)" stroke-opacity="1.0" stroke-linecap="round" stroke-linejoin="round"/>
    <path d="M 79.16990661621094 141.08718872070312 C 161.85256958007812 132.02667236328125 88.24581909179688 183.82180786132812 150.787841796875 169.99713134765625 C 114.44212341308594 155.80429077148438 163.27059936523438 230.74330139160156 111.19001007080078 109.76596069335938" stroke-width="3.154355525970459" fill="none" stroke="rgb(225, 0, 255)" stroke-opacity="1.0" stroke-linecap="round" stroke-linejoin="round"/>
    <path d="M 312.8414611816406 38.43257522583008 C 312.94293212890625 63.79648208618164 368.92626953125 40.02534103393555 360.6475524902344 113.27384948730469 C 327.4500732421875 94.13440704345703 301.7333068847656 48.120391845703125 298.9418029785156 66.30870819091797" stroke-width="2.800854206085205" fill="none" stroke="rgb(255, 255, 255)" stroke-opacity="0.0" stroke-linecap="round" stroke-linejoin="round"/>
    <path d="M 393.78240966796875 91.21297454833984 C 719.7550659179688 39.89304733276367 522.0216674804688 34.49329376220703 283.21258544921875 88.59886932373047 C 435.5196838378906 79.68329620361328 374.44476318359375 113.25042724609375 395.9909973144531 28.355838775634766" stroke-width="7.861950874328613" fill="none" stroke="rgb(56, 29, 9)" stroke-opacity="0.60143775" stroke-linecap="round" stroke-linejoin="round"/>
    <path d="M 469.95074462890625 149.36697387695312 C 467.9378967285156 65.05069732666016 463.33837890625 -58.881736755371094 477.25189208984375 -9.72562313079834 C 522.0933227539062 -9.284449577331543 497.1590881347656 -12.406390190124512 507.027587890625 43.90818786621094 C 576.6967163085938 41.3790283203125 440.3963317871094 30.005067825317383 479.0369873046875 37.47557067871094" stroke-width="2.0" fill="none" stroke="rgb(0, 26, 65)" stroke-opacity="1.0" stroke-linecap="round" stroke-linejoin="round"/>
    <path d="M 155.8682403564453 212.1587371826172 C 190.72125244140625 221.7218017578125 217.49215698242188 134.05743408203125 212.91888427734375 247.26187133789062" stroke-width="3.946361780166626" fill="none" stroke="rgb(255, 177, 0)" stroke-opacity="1.0" stroke-linecap="round" stroke-linejoin="round"/>
    <path d="M 180.86656188964844 185.44696044921875 C 150.37847900390625 198.43118286132812 383.11566162109375 243.02725219726562 256.4865417480469 256.5225524902344 C 226.9738311767578 308.2167053222656 218.4310302734375 271.78631591796875 318.5893249511719 273.7876892089844" stroke-width="8.581023216247559" fill="none" stroke="rgb(0, 0, 18)" stroke-opacity="0.36839026" stroke-linecap="round" stroke-linejoin="round"/>
    <path d="M 358.6060791015625 87.99917602539062 C 365.3046875 188.32412719726562 337.7189025878906 170.93370056152344 402.3459167480469 168.44053649902344" stroke-width="2.756479024887085" fill="none" stroke="rgb(0, 8, 0)" stroke-opacity="1.0" stroke-linecap="round" stroke-linejoin="round"/>
    <path d="M 502.11669921875 338.02154541015625 C 510.3848571777344 332.1619873046875 586.3619995117188 314.29986572265625 477.6814270019531 323.5953674316406 C 460.4007568359375 393.03692626953125 537.92724609375 339.8541259765625 458.7485656738281 363.8777160644531 C 449.16143798828125 392.7207946777344 471.3213195800781 385.6958923339844 473.35235595703125 262.2208251953125" stroke-width="3.3401103019714355" fill="none" stroke="rgb(0, 4, 44)" stroke-opacity="1.0" stroke-linecap="round" stroke-linejoin="round"/>
    <path d="M 177.4573974609375 246.28221130371094 C 180.16006469726562 292.1004943847656 175.35269165039062 260.72784423828125 108.36260223388672 284.6587829589844 C 74.23062133789062 293.6548767089844 90.39009857177734 269.5704650878906 201.2954864501953 260.55560302734375" stroke-width="6.797037124633789" fill="none" stroke="rgb(55, 26, 0)" stroke-opacity="1.0" stroke-linecap="round" stroke-linejoin="round"/>
    <path d="M 294.8562927246094 61.175376892089844 C 160.60452270507812 82.2126235961914 201.8910675048828 69.94087219238281 194.33642578125 102.78649139404297" stroke-width="10.925573348999023" fill="none" stroke="rgb(0, 0, 0)" stroke-opacity="1.0" stroke-linecap="round" stroke-linejoin="round"/>
    <path d="M 497.689697265625 458.8214416503906 C 320.014404296875 478.5398864746094 303.1068420410156 499.1878356933594 494.1741027832031 481.0157165527344" stroke-width="15.160676956176758" fill="none" stroke="rgb(88, 98, 59)" stroke-opacity="0.93898654" stroke-linecap="round" stroke-linejoin="round"/>
    <path d="M 253.25559997558594 355.2017517089844 C 261.17718505859375 317.7463073730469 249.09230041503906 347.0233154296875 270.5411682128906 342.3179931640625 C 171.39349365234375 353.7115783691406 125.21415710449219 375.5699157714844 169.2928924560547 374.67999267578125 C 225.5005645751953 322.0325012207031 441.2457275390625 345.01727294921875 265.3514709472656 345.6695251464844" stroke-width="8.995645523071289" fill="none" stroke="rgb(0, 0, 0)" stroke-opacity="1.0" stroke-linecap="round" stroke-linejoin="round"/>
    <path d="M 209.32131958007812 297.37640380859375 C 271.0340270996094 291.70849609375 176.9945526123047 351.62939453125 186.59307861328125 245.055908203125 C 180.15621948242188 289.1861572265625 196.6709442138672 274.4126281738281 177.99276733398438 249.90707397460938 C 234.5552520751953 237.81802368164062 231.27969360351562 256.04736328125 234.02537536621094 217.6464385986328" stroke-width="8.668427467346191" fill="none" stroke="rgb(225, 0, 255)" stroke-opacity="1.0" stroke-linecap="round" stroke-linejoin="round"/>
    <path d="M 124.24531555175781 452.7536926269531 C 209.5124969482422 413.47967529296875 181.93630981445312 487.7612609863281 181.540771484375 389.49346923828125 C 200.44949340820312 410.60150146484375 161.7117462158203 399.2761535644531 153.0167236328125 424.00177001953125 C 216.0308074951172 427.2988586425781 117.98164367675781 405.4188232421875 233.19398498535156 402.37213134765625" stroke-width="11.302213668823242" fill="none" stroke="rgb(93, 0, 11)" stroke-opacity="1.0" stroke-linecap="round" stroke-linejoin="round"/>
    <path d="M 413.29498291015625 346.1517028808594 C 447.9101867675781 334.83978271484375 416.53717041015625 317.4283752441406 424.883056640625 376.2639465332031 C 504.2713317871094 378.3497314453125 456.34124755859375 306.6512145996094 454.845947265625 341.4640808105469 C 470.6340026855469 407.41357421875 448.7891540527344 369.53564453125 437.97943115234375 284.4540100097656" stroke-width="3.003842830657959" fill="none" stroke="rgb(0, 0, 0)" stroke-opacity="1.0" stroke-linecap="round" stroke-linejoin="round"/>
    <path d="M 26.87631607055664 316.2906799316406 C -57.1039924621582 308.36273193359375 -87.22602081298828 361.6968078613281 48.58890151977539 327.0340576171875" stroke-width="13.709358215332031" fill="none" stroke="rgb(0, 0, 0)" stroke-opacity="1.0" stroke-linecap="round" stroke-linejoin="round"/>
    <path d="M 455.6875915527344 55.874141693115234 C 476.61993408203125 -0.001446697860956192 462.5483703613281 -10.786568641662598 467.6535339355469 64.5103530883789" stroke-width="4.386200428009033" fill="none" stroke="rgb(255, 177, 0)" stroke-opacity="1.0" stroke-linecap="round" stroke-linejoin="round"/>
    <path d="M 64.45848083496094 110.8973159790039 C -12.213661193847656 116.1627197265625 -37.03432846069336 122.78914642333984 -1.359143853187561 166.32012939453125 C 283.4838562011719 124.24401092529297 340.1921691894531 137.18824768066406 35.583553314208984 176.42098999023438 C 42.702301025390625 121.82112121582031 -11.614985466003418 136.08148193359375 153.3240509033203 105.42185974121094" stroke-width="11.833080291748047" fill="none" stroke="rgb(0, 0, 0)" stroke-opacity="1.0" stroke-linecap="round" stroke-linejoin="round"/>
    <path d="M -7.710366249084473 187.2707977294922 C 159.83163452148438 173.52880859375 180.08767700195312 149.79539489746094 -11.265582084655762 215.5542449951172" stroke-width="12.918997764587402" fill="none" stroke="rgb(255, 0, 255)" stroke-opacity="0.80692285" stroke-linecap="round" stroke-linejoin="round"/>
    <path d="M 41.23286056518555 404.4665222167969 C 43.9488525390625 317.5539245605469 26.293622970581055 329.2599792480469 29.01681137084961 344.12652587890625 C 36.6981315612793 321.1239013671875 -3.419095516204834 321.92913818359375 79.1852798461914 321.5926818847656 C 97.6413345336914 260.29046630859375 66.0852279663086 259.8871765136719 74.77490234375 292.6181335449219" stroke-width="3.094892740249634" fill="none" stroke="rgb(0, 0, 53)" stroke-opacity="1.0" stroke-linecap="round" stroke-linejoin="round"/>
    <path d="M 449.5228576660156 273.5181579589844 C 437.22320556640625 191.48611450195312 449.37432861328125 212.2657012939453 431.5638122558594 212.96478271484375 C 400.11968994140625 211.02662658691406 421.6318359375 292.028076171875 419.88128662109375 250.64096069335938" stroke-width="3.4730939865112305" fill="none" stroke="rgb(3, 0, 0)" stroke-opacity="1.0" stroke-linecap="round" stroke-linejoin="round"/>
    <path d="M 20.534997940063477 335.6209411621094 C 9.266802787780762 461.13616943359375 -0.3762660324573517 463.799560546875 6.26555061340332 138.4060821533203 C 41.310882568359375 303.7341613769531 -83.36334228515625 366.0364074707031 34.39292526245117 362.6712646484375" stroke-width="3.2009992599487305" fill="none" stroke="rgb(0, 0, 0)" stroke-opacity="0.48369086" stroke-linecap="round" stroke-linejoin="round"/>
    <path d="M 415.5138854980469 441.2309875488281 C 483.0267639160156 430.7630615234375 528.4550170898438 408.8310852050781 504.9257507324219 422.7304992675781" stroke-width="15.562088966369629" fill="none" stroke="rgb(0, 0, 0)" stroke-opacity="1.0" stroke-linecap="round" stroke-linejoin="round"/>
    <path d="M 182.29244995117188 303.2615051269531 C 82.72496032714844 312.69671630859375 157.5025177001953 302.1675109863281 190.93072509765625 281.5202331542969 C 191.7811279296875 323.2458190917969 178.71817016601562 229.5049285888672 230.00450134277344 265.986572265625 C 146.13583374023438 257.2051086425781 231.89892578125 301.24468994140625 218.75167846679688 248.40725708007812" stroke-width="7.713919162750244" fill="none" stroke="rgb(222, 142, 0)" stroke-opacity="1.0" stroke-linecap="round" stroke-linejoin="round"/>
    <path d="M 221.6496124267578 296.7276916503906 C 176.47959899902344 293.14849853515625 217.88754272460938 318.3518981933594 182.94456481933594 328.2690124511719 C 190.6875 309.4513854980469 199.02532958984375 331.1541442871094 246.52023315429688 303.34283447265625" stroke-width="9.49718189239502" fill="none" stroke="rgb(13, 0, 5)" stroke-opacity="1.0" stroke-linecap="round" stroke-linejoin="round"/>
    <path d="M 64.0417251586914 521.82958984375 C 67.29676818847656 467.1105651855469 43.07482147216797 478.3785705566406 113.1390151977539 476.0523376464844 C 114.7037353515625 450.4831237792969 121.40084838867188 403.3415832519531 127.63434600830078 524.5750732421875" stroke-width="2.48012375831604" fill="none" stroke="rgb(0, 0, 0)" stroke-opacity="1.0" stroke-linecap="round" stroke-linejoin="round"/>
    <path d="M 429.3909606933594 396.8141784667969 C 260.4148864746094 433.9696350097656 300.6371154785156 449.83172607421875 278.5934753417969 421.4126892089844 C 314.8363342285156 431.593994140625 355.2825622558594 390.259033203125 381.0553283691406 368.35064697265625" stroke-width="9.317728042602539" fill="none" stroke="rgb(96, 95, 0)" stroke-opacity="0.5916571" stroke-linecap="round" stroke-linejoin="round"/>
    <path d="M 325.037841796875 336.99017333984375 C 318.9515380859375 369.8358154296875 301.7188415527344 336.92486572265625 271.0881652832031 360.9056701660156 C 379.137939453125 367.66497802734375 336.8814697265625 303.38818359375 341.3382263183594 398.1881408691406 C 91.6549301147461 430.80291748046875 80.48374938964844 424.756103515625 327.16558837890625 394.7521667480469" stroke-width="3.194556474685669" fill="none" stroke="rgb(255, 0, 181)" stroke-opacity="0.8904567" stroke-linecap="round" stroke-linejoin="round"/>
    <path d="M 31.45926284790039 79.58467864990234 C 149.2075653076172 75.01604461669922 60.0230598449707 50.315032958984375 -27.52659034729004 94.3249740600586 C 78.45816040039062 85.70381164550781 8.351472854614258 39.20157241821289 60.972408294677734 13.79745101928711 C -31.566614151000977 14.998459815979004 14.187926292419434 5.212426662445068 24.13135528564453 72.79780578613281" stroke-width="9.21885871887207" fill="none" stroke="rgb(232, 193, 0)" stroke-opacity="1.0" stroke-linecap="round" stroke-linejoin="round"/>
    <path d="M 411.5817565917969 262.1777038574219 C 403.8018493652344 168.40550231933594 410.053955078125 280.00537109375 402.6268310546875 167.10748291015625 C 419.5850524902344 221.57766723632812 365.2559509277344 176.3641815185547 443.59661865234375 175.31716918945312 C 447.9646301269531 88.34830474853516 392.6087951660156 79.21582794189453 430.6980285644531 193.63429260253906" stroke-width="2.458767890930176" fill="none" stroke="rgb(0, 0, 11)" stroke-opacity="1.0" stroke-linecap="round" stroke-linejoin="round"/>
    <path d="M 510.6252746582031 82.81645202636719 C 533.1768188476562 81.73954772949219 594.7301635742188 96.52191162109375 478.9595947265625 117.49897003173828 C 473.04058837890625 113.49248504638672 451.1680908203125 90.09004974365234 549.0087890625 110.48274230957031 C 541.4578857421875 140.93296813964844 613.4127807617188 126.58930206298828 445.470947265625 131.73489379882812" stroke-width="12.023253440856934" fill="none" stroke="rgb(0, 0, 14)" stroke-opacity="1.0" stroke-linecap="round" stroke-linejoin="round"/>
    <path d="M 319.9083557128906 430.94293212890625 C 467.23388671875 393.6506652832031 380.8218078613281 412.6252136230469 401.359130859375 427.1450500488281 C 389.25213623046875 367.655029296875 424.7703857421875 401.7344055175781 346.04412841796875 393.38671875 C 343.4884033203125 367.73388671875 296.6797790527344 404.0531005859375 414.8425598144531 361.30230712890625" stroke-width="6.645949363708496" fill="none" stroke="rgb(0, 0, 0)" stroke-opacity="1.0" stroke-linecap="round" stroke-linejoin="round"/>
    <path d="M 138.4760284423828 85.80463409423828 C 205.66897583007812 124.11882019042969 123.93412780761719 189.09381103515625 155.22262573242188 69.43463897705078 C 229.53489685058594 57.0440673828125 212.41407775878906 65.3984603881836 290.702392578125 32.99462890625 C 164.3195037841797 34.628639221191406 248.10728454589844 74.34934997558594 203.62432861328125 24.022266387939453" stroke-width="7.713858604431152" fill="none" stroke="rgb(244, 238, 0)" stroke-opacity="1.0" stroke-linecap="round" stroke-linejoin="round"/>
    <path d="M 362.9710998535156 419.55963134765625 C 335.8353576660156 424.4410400390625 410.474365234375 404.2179870605469 435.30352783203125 404.540283203125 C 580.6416625976562 373.2677307128906 479.70648193359375 408.9365234375 453.9422302246094 400.01214599609375" stroke-width="10.556144714355469" fill="none" stroke="rgb(0, 0, 14)" stroke-opacity="0.6861635" stroke-linecap="round" stroke-linejoin="round"/>
    <path d="M 197.28945922851562 295.24786376953125 C 252.84716796875 270.9082946777344 213.9626007080078 309.243408203125 219.32261657714844 248.2486572265625 C 237.6450958251953 266.7247009277344 156.686279296875 253.1602783203125 96.77024841308594 261.3883056640625 C 54.124698638916016 217.32626342773438 312.7339172363281 244.12478637695312 137.2882537841797 210.72503662109375" stroke-width="6.373760223388672" fill="none" stroke="rgb(0, 97, 62)" stroke-opacity="0.5521643" stroke-linecap="round" stroke-linejoin="round"/>
    <path d="M 31.08957290649414 353.2359619140625 C 18.95583152770996 281.0899658203125 22.512033462524414 262.10711669921875 3.6956541538238525 277.4872741699219 C -5.492797374725342 313.16961669921875 38.633934020996094 267.3272705078125 84.36550903320312 296.0818786621094 C 7.0492424964904785 320.0946044921875 19.80756378173828 325.785888671875 28.69964599609375 194.06617736816406" stroke-width="5.541791915893555" fill="none" stroke="rgb(193, 197, 181)" stroke-opacity="1.0" stroke-linecap="round" stroke-linejoin="round"/>
    <path d="M 372.930908203125 306.95721435546875 C 382.8021545410156 457.871826171875 346.4299621582031 387.2335205078125 350.04095458984375 338.1798400878906" stroke-width="2.9859938621520996" fill="none" stroke="rgb(10, 0, 0)" stroke-opacity="1.0" stroke-linecap="round" stroke-linejoin="round"/>
    <path d="M 213.17002868652344 326.302001953125 C 154.0702667236328 344.6175842285156 144.24166870117188 309.5509948730469 153.9109344482422 354.8396911621094" stroke-width="3.1066999435424805" fill="none" stroke="rgb(0, 0, 10)" stroke-opacity="1.0" stroke-linecap="round" stroke-linejoin="round"/>
    <path d="M 404.4992370605469 312.72308349609375 C 355.4239501953125 252.72573852539062 506.4881896972656 294.081298828125 459.5738525390625 265.7824401855469" stroke-width="6.81989860534668" fill="none" stroke="rgb(255, 30, 1)" stroke-opacity="0.9183579" stroke-linecap="round" stroke-linejoin="round"/>
    <path d="M 369.8473815917969 368.6322937011719 C 351.7914123535156 475.40557861328125 412.6103820800781 492.163330078125 397.2607116699219 374.0451965332031" stroke-width="3.744096279144287" fill="none" stroke="rgb(255, 251, 177)" stroke-opacity="1.0" stroke-linecap="round" stroke-linejoin="round"/>
    <path d="M 362.78436279296875 441.078857421875 C 370.731201171875 364.239990234375 345.4366760253906 374.9673156738281 336.00421142578125 388.5254821777344 C 285.2377014160156 216.7964324951172 384.30169677734375 375.44378662109375 289.6864318847656 338.1819152832031 C 300.69659423828125 326.6107482910156 261.89532470703125 327.8678894042969 367.4093933105469 324.5284423828125" stroke-width="3.4560320377349854" fill="none" stroke="rgb(12, 0, 0)" stroke-opacity="1.0" stroke-linecap="round" stroke-linejoin="round"/>
    <path d="M 203.36898803710938 197.7180938720703 C 164.03526306152344 234.89703369140625 260.0541076660156 169.22853088378906 241.50570678710938 223.29112243652344 C 117.68843078613281 248.2440948486328 63.33456802368164 236.2332000732422 62.14522171020508 253.95677185058594" stroke-width="12.707271575927734" fill="none" stroke="rgb(255, 0, 255)" stroke-opacity="0.66578823" stroke-linecap="round" stroke-linejoin="round"/>
    <path d="M 243.47071838378906 99.16590881347656 C 246.79620361328125 124.83623504638672 236.1356658935547 156.029541015625 240.0378875732422 100.09874725341797" stroke-width="2.070091724395752" fill="none" stroke="rgb(25, 124, 255)" stroke-opacity="0.9452647" stroke-linecap="round" stroke-linejoin="round"/>
    <path d="M -28.32257843017578 110.9322280883789 C 51.06767654418945 99.32722473144531 28.61440658569336 121.7692642211914 155.55250549316406 98.26174926757812 C 126.74861907958984 148.04527282714844 123.9700927734375 64.05697631835938 127.72145080566406 178.2930145263672 C 29.90184783935547 216.69960021972656 81.975341796875 180.2931671142578 65.98158264160156 98.16128540039062" stroke-width="8.228883743286133" fill="none" stroke="rgb(193, 0, 242)" stroke-opacity="0.92036223" stroke-linecap="round" stroke-linejoin="round"/>
    <path d="M 60.92333221435547 403.5825500488281 C 53.371517181396484 444.0240478515625 -6.695509910583496 408.3234558105469 -14.668567657470703 450.77655029296875" stroke-width="12.387970924377441" fill="none" stroke="rgb(224, 0, 68)" stroke-opacity="1.0" stroke-linecap="round" stroke-linejoin="round"/>
    <path d="M 127.21739196777344 164.53671264648438 C 119.62769317626953 67.33031463623047 159.9795379638672 66.67318725585938 113.00688171386719 71.45557403564453 C 69.77430725097656 -0.35282328724861145 200.01614379882812 71.72391510009766 62.68225860595703 80.157470703125" stroke-width="5.135308742523193" fill="none" stroke="rgb(254, 255, 22)" stroke-opacity="1.0" stroke-linecap="round" stroke-linejoin="round"/>
    <path d="M 123.38423919677734 258.2889099121094 C 130.4488983154297 426.5966796875 88.96439361572266 388.9213562011719 262.0169982910156 393.91876220703125 C 158.68919372558594 380.30255126953125 242.79209899902344 411.9971008300781 188.20187377929688 399.87530517578125" stroke-width="2.893649101257324" fill="none" stroke="rgb(0, 0, 0)" stroke-opacity="1.0" stroke-linecap="round" stroke-linejoin="round"/>
    <path d="M 127.59944915771484 51.60162353515625 C 137.40687561035156 -16.744138717651367 186.3143768310547 42.32070541381836 156.54800415039062 41.382503509521484 C 141.32164001464844 40.275550842285156 66.89222717285156 56.82283401489258 229.60997009277344 35.991615295410156 C 191.5550994873047 41.67757797241211 192.9602508544922 17.585952758789062 456.6806640625 25.363000869750977" stroke-width="9.178812026977539" fill="none" stroke="rgb(0, 0, 0)" stroke-opacity="1.0" stroke-linecap="round" stroke-linejoin="round"/>
    <path d="M 273.61480712890625 426.6446533203125 C 279.6847839355469 470.1582336425781 245.725341796875 462.7813720703125 384.4071350097656 450.4422607421875 C 330.2504577636719 439.1172180175781 145.28846740722656 429.20233154296875 187.32154846191406 455.35638427734375 C 90.40665435791016 473.177001953125 178.6754608154297 464.6654052734375 267.2926025390625 467.1617126464844" stroke-width="11.129209518432617" fill="none" stroke="rgb(0, 0, 1)" stroke-opacity="0.5781132" stroke-linecap="round" stroke-linejoin="round"/>
    <path d="M 360.6424865722656 352.44915771484375 C 343.57763671875 349.3580322265625 302.714599609375 326.4172058105469 427.1801452636719 337.4203186035156 C 338.2120056152344 372.02667236328125 306.4660949707031 314.438720703125 342.6656799316406 385.09375 C 292.2467346191406 390.50164794921875 313.1114501953125 391.63189697265625 267.856201171875 399.7653503417969" stroke-width="8.297087669372559" fill="none" stroke="rgb(40, 56, 62)" stroke-opacity="0.4839937" stroke-linecap="round" stroke-linejoin="round"/>
    <path d="M 388.5529479980469 172.24530029296875 C 311.2751159667969 184.12767028808594 434.9331359863281 133.62513732910156 321.76263427734375 154.15953063964844 C 358.96722412109375 117.10140991210938 64.55998229980469 153.26492309570312 366.2099304199219 136.0995330810547 C 309.9497375488281 166.7259979248047 329.16412353515625 83.62406158447266 330.5223388671875 148.46803283691406" stroke-width="4.25130558013916" fill="none" stroke="rgb(0, 0, 4)" stroke-opacity="1.0" stroke-linecap="round" stroke-linejoin="round"/>
    <path d="M 275.1416320800781 164.1671600341797 C 273.4830627441406 122.90811920166016 281.5470886230469 93.91841125488281 244.2061309814453 128.89993286132812" stroke-width="6.033247470855713" fill="none" stroke="rgb(229, 153, 80)" stroke-opacity="1.0" stroke-linecap="round" stroke-linejoin="round"/>
    <path d="M 246.4745330810547 325.87127685546875 C 174.27047729492188 341.104736328125 282.7588806152344 256.8339538574219 250.96641540527344 376.2286071777344" stroke-width="6.49404239654541" fill="none" stroke="rgb(252, 156, 0)" stroke-opacity="1.0" stroke-linecap="round" stroke-linejoin="round"/>
    <path d="M 339.62298583984375 87.27183532714844 C 409.6993103027344 78.86744689941406 441.80670166015625 19.495025634765625 308.8060302734375 58.01368713378906" stroke-width="13.627326965332031" fill="none" stroke="rgb(255, 225, 0)" stroke-opacity="0.89230126" stroke-linecap="round" stroke-linejoin="round"/>
    <path d="M 294.7522888183594 252.2451171875 C 276.1085510253906 133.337890625 283.92254638671875 191.51528930664062 329.67633056640625 187.9215850830078 C 334.3615417480469 204.08938598632812 231.9494171142578 174.67678833007812 394.18121337890625 161.90618896484375 C 393.7697448730469 132.46885681152344 359.404296875 127.9626693725586 368.9597473144531 188.69949340820312" stroke-width="10.765334129333496" fill="none" stroke="rgb(209, 197, 0)" stroke-opacity="1.0" stroke-linecap="round" stroke-linejoin="round"/>
    <path d="M 282.87432861328125 152.84188842773438 C 318.6461486816406 178.98300170898438 -18.519779205322266 191.5374755859375 263.99072265625 165.58456420898438" stroke-width="5.213351726531982" fill="none" stroke="rgb(24, 0, 0)" stroke-opacity="1.0" stroke-linecap="round" stroke-linejoin="round"/>
    <path d="M 364.0329284667969 500.5130920410156 C 648.6149291992188 484.7847595214844 552.4169311523438 500.5903625488281 414.4559020996094 515.8170776367188 C 451.88629150390625 514.1480712890625 465.9507751464844 521.9859619140625 528.31298828125 483.9731750488281 C 508.8306579589844 451.8085632324219 516.0790405273438 459.49359130859375 526.9295043945312 466.8741760253906" stroke-width="10.88109302520752" fill="none" stroke="rgb(0, 18, 32)" stroke-opacity="1.0" stroke-linecap="round" stroke-linejoin="round"/>
    <path d="M 369.7184143066406 36.832332611083984 C 374.8624572753906 34.88050079345703 401.4388122558594 39.54448318481445 390.5696716308594 28.53849983215332 C 407.1390686035156 9.804644584655762 308.2369079589844 33.80623245239258 392.7492370605469 17.967391967773438" stroke-width="6.898776054382324" fill="none" stroke="rgb(253, 0, 0)" stroke-opacity="0.9973244" stroke-linecap="round" stroke-linejoin="round"/>
    <path d="M 137.4790802001953 503.4971618652344 C 172.7427215576172 499.4986572265625 93.29309844970703 481.83209228515625 286.9235534667969 481.5509338378906 C 244.37734985351562 572.4144897460938 293.74078369140625 424.1966857910156 298.4236755371094 505.4368591308594" stroke-width="7.660133361816406" fill="none" stroke="rgb(151, 188, 11)" stroke-opacity="0.9122276" stroke-linecap="round" stroke-linejoin="round"/>
    <path d="M 392.1222229003906 179.0417938232422 C 395.2243957519531 151.9582061767578 405.3436584472656 166.0550079345703 375.560546875 166.17446899414062" stroke-width="6.764389991760254" fill="none" stroke="rgb(100, 109, 2)" stroke-opacity="0.7402066" stroke-linecap="round" stroke-linejoin="round"/>
    <path d="M 42.375 216.9314727783203 C 24.970102310180664 142.71072387695312 40.38483428955078 93.1972427368164 31.664682388305664 96.44974517822266 C 180.6433563232422 87.77532958984375 70.94194030761719 85.85760498046875 124.6776351928711 82.91517639160156 C 131.19375610351562 87.12683868408203 76.16146850585938 112.57992553710938 267.2593994140625 77.64210510253906" stroke-width="6.912425994873047" fill="none" stroke="rgb(159, 149, 168)" stroke-opacity="1.0" stroke-linecap="round" stroke-linejoin="round"/>
    <path d="M 345.0224609375 338.611083984375 C 249.6148223876953 333.59552001953125 319.27679443359375 337.5433349609375 294.01080322265625 336.6289978027344 C 301.2621154785156 335.0384216308594 233.70938110351562 339.1952209472656 260.1468505859375 333.8211364746094 C 261.8467712402344 305.021728515625 246.1580352783203 278.4148254394531 217.49078369140625 326.2013854980469" stroke-width="7.599048137664795" fill="none" stroke="rgb(55, 94, 115)" stroke-opacity="0.6886027" stroke-linecap="round" stroke-linejoin="round"/>
    <path d="M -24.67139434814453 81.26103210449219 C 20.156396865844727 37.30619812011719 9.499308586120605 76.28216552734375 11.730584144592285 42.26365661621094" stroke-width="15.571724891662598" fill="none" stroke="rgb(79, 0, 0)" stroke-opacity="0.51345724" stroke-linecap="round" stroke-linejoin="round"/>
    <path d="M 304.09619140625 78.07071685791016 C 307.7195739746094 245.07891845703125 293.8394775390625 220.93124389648438 412.5151062011719 227.35955810546875 C 298.99609375 225.3355255126953 339.78350830078125 256.6768798828125 329.89105224609375 174.23590087890625" stroke-width="2.755253553390503" fill="none" stroke="rgb(0, 0, 0)" stroke-opacity="1.0" stroke-linecap="round" stroke-linejoin="round"/>
    <path d="M 237.6023712158203 257.2395935058594 C 311.26776123046875 274.2462158203125 279.72027587890625 239.90115356445312 289.6282958984375 274.8902587890625" stroke-width="8.62471866607666" fill="none" stroke="rgb(0, 0, 0)" stroke-opacity="1.0" stroke-linecap="round" stroke-linejoin="round"/>
    <path d="M 295.86651611328125 394.7926330566406 C 204.81991577148438 433.1276550292969 190.14080810546875 417.8109436035156 371.1376953125 381.4446716308594 C 379.8565368652344 367.9293518066406 329.3879699707031 396.3157958984375 409.4853820800781 356.7120361328125" stroke-width="5.416663646697998" fill="none" stroke="rgb(1, 0, 19)" stroke-opacity="1.0" stroke-linecap="round" stroke-linejoin="round"/>
    <path d="M 456.5145568847656 245.2284698486328 C 452.9759826660156 286.02294921875 455.2203674316406 250.6877899169922 555.4342041015625 265.2209167480469 C 518.0390014648438 241.4727325439453 580.0750732421875 234.9504852294922 458.14910888671875 245.32717895507812" stroke-width="11.526094436645508" fill="none" stroke="rgb(0, 7, 10)" stroke-opacity="1.0" stroke-linecap="round" stroke-linejoin="round"/>
    <path d="M 327.1667785644531 151.18177795410156 C 237.09339904785156 174.8357696533203 299.6966247558594 151.21200561523438 271.1979675292969 207.69296264648438 C 333.1073303222656 262.7336120605469 353.12408447265625 194.63497924804688 243.891357421875 206.3222198486328 C 222.2467041015625 173.3917236328125 293.3862609863281 212.3894805908203 273.7019958496094 158.4622802734375" stroke-width="10.187087059020996" fill="none" stroke="rgb(255, 0, 255)" stroke-opacity="0.9827672" stroke-linecap="round" stroke-linejoin="round"/>
    <path d="M 259.42877197265625 74.11861419677734 C 254.51531982421875 -8.323915481567383 260.48260498046875 51.075809478759766 338.8853759765625 22.319284439086914 C 328.74664306640625 98.4994888305664 326.9363098144531 -27.96867561340332 336.9109802246094 -52.41911315917969" stroke-width="2.8166277408599854" fill="none" stroke="rgb(0, 0, 0)" stroke-opacity="1.0" stroke-linecap="round" stroke-linejoin="round"/>
    <path d="M 490.0938720703125 290.6353454589844 C 325.5732421875 310.0602111816406 410.8218994140625 337.8456115722656 556.7681274414062 291.18609619140625 C 356.8637390136719 306.56524658203125 364.3430480957031 310.4698486328125 399.55828857421875 307.6271667480469 C 417.28875732421875 323.8314208984375 406.20965576171875 221.6140594482422 401.3642883300781 330.2763977050781" stroke-width="3.1451127529144287" fill="none" stroke="rgb(2, 100, 0)" stroke-opacity="0.9561125" stroke-linecap="round" stroke-linejoin="round"/>
    <path d="M 104.5461196899414 400.3277587890625 C -76.36278533935547 443.3669128417969 -58.68084716796875 422.1582336425781 89.44812774658203 391.8087463378906" stroke-width="8.458757400512695" fill="none" stroke="rgb(255, 0, 255)" stroke-opacity="0.60550064" stroke-linecap="round" stroke-linejoin="round"/>
    <path d="M 365.40863037109375 363.25555419921875 C 265.5679016113281 384.2356872558594 115.85065460205078 386.51007080078125 210.9814910888672 385.34039306640625 C 215.05120849609375 417.9501647949219 200.1725311279297 441.4645080566406 252.4564971923828 429.7647705078125 C 114.62924194335938 455.3270568847656 229.47509765625 344.6724548339844 200.502197265625 484.61907958984375" stroke-width="6.35060977935791" fill="none" stroke="rgb(162, 205, 0)" stroke-opacity="0.91256744" stroke-linecap="round" stroke-linejoin="round"/>
    <path d="M 185.66525268554688 135.531494140625 C 162.7119903564453 54.231082916259766 181.72274780273438 120.8216781616211 148.609619140625 149.50331115722656 C 165.2635040283203 120.2439956665039 183.29666137695312 141.49899291992188 134.59088134765625 95.85649108886719 C 167.84158325195312 126.30457305908203 200.0587921142578 153.76373291015625 215.4185028076172 118.71878051757812" stroke-width="2.0" fill="none" stroke="rgb(146, 207, 0)" stroke-opacity="0.5994674" stroke-linecap="round" stroke-linejoin="round"/>
    <path d="M 208.2112579345703 309.60870361328125 C 217.2444610595703 386.7597351074219 234.90335083007812 361.4599609375 229.20773315429688 275.0443115234375" stroke-width="2.2724690437316895" fill="none" stroke="rgb(69, 0, 0)" stroke-opacity="1.0" stroke-linecap="round" stroke-linejoin="round"/>
    <path d="M 287.72381591796875 350.4046325683594 C 290.4314270019531 306.3002014160156 259.4552001953125 319.33514404296875 168.98355102539062 378.3155517578125 C 228.45986938476562 340.361572265625 263.0753479003906 359.43634033203125 274.8263854980469 365.7279052734375 C 285.8874816894531 370.8150329589844 284.0735778808594 329.321044921875 277.80682373046875 279.9102783203125" stroke-width="4.988664627075195" fill="none" stroke="rgb(175, 142, 83)" stroke-opacity="0.69922984" stroke-linecap="round" stroke-linejoin="round"/>
    <path d="M 401.6128234863281 171.01681518554688 C 381.2722473144531 166.2157440185547 443.42388916015625 187.8544158935547 500.3946533203125 148.27978515625" stroke-width="13.64190673828125" fill="none" stroke="rgb(136, 150, 13)" stroke-opacity="0.9774764" stroke-linecap="round" stroke-linejoin="round"/>
    <path d="M 233.11126708984375 429.3271484375 C 268.8721008300781 214.76853942871094 264.2780456542969 524.7990112304688 250.56649780273438 437.1454772949219 C 152.5258026123047 437.9079284667969 258.6939392089844 472.3158874511719 159.21311950683594 558.4091186523438 C 140.38800048828125 421.2489318847656 159.43919372558594 480.6104431152344 124.17589569091797 472.8951416015625" stroke-width="2.682847023010254" fill="none" stroke="rgb(23, 0, 0)" stroke-opacity="1.0" stroke-linecap="round" stroke-linejoin="round"/>
    <path d="M 81.9720687866211 438.2043151855469 C 82.28700256347656 444.9197082519531 86.16854095458984 458.7291259765625 81.63278198242188 407.55828857421875" stroke-width="3.042668342590332" fill="none" stroke="rgb(0, 0, 0)" stroke-opacity="1.0" stroke-linecap="round" stroke-linejoin="round"/>
    <path d="M 229.1788330078125 260.0292663574219 C 252.102783203125 211.58753967285156 225.70135498046875 221.1031951904297 285.1642761230469 208.35751342773438 C 263.6668701171875 210.0640106201172 297.20904541015625 234.066650390625 260.9857482910156 231.6776580810547 C 200.86614990234375 239.9870147705078 286.41650390625 245.54689025878906 193.57411193847656 254.7147674560547" stroke-width="7.881686210632324" fill="none" stroke="rgb(29, 0, 0)" stroke-opacity="1.0" stroke-linecap="round" stroke-linejoin="round"/>
    <path d="M 374.7906799316406 140.2024383544922 C 436.89227294921875 105.15390014648438 472.5235595703125 143.68984985351562 472.98663330078125 115.14262390136719 C 472.383544921875 128.9158477783203 487.61260986328125 109.35148620605469 409.3645935058594 120.19306182861328" stroke-width="7.539488315582275" fill="none" stroke="rgb(222, 0, 192)" stroke-opacity="1.0" stroke-linecap="round" stroke-linejoin="round"/>
    <path d="M 364.7604675292969 57.793434143066406 C 348.525634765625 -123.74794006347656 394.09619140625 -71.06134033203125 389.399658203125 14.908864974975586 C 380.1761779785156 61.211387634277344 400.88739013671875 12.852791786193848 256.7900695800781 39.56626510620117 C 460.9490661621094 21.253341674804688 413.83026123046875 36.35840606689453 429.5558776855469 60.886661529541016" stroke-width="2.585047721862793" fill="none" stroke="rgb(70, 67, 118)" stroke-opacity="1.0" stroke-linecap="round" stroke-linejoin="round"/>
    <path d="M 133.34556579589844 297.1606140136719 C 141.95327758789062 290.1090087890625 132.94293212890625 304.50579833984375 185.9404754638672 291.8949279785156" stroke-width="8.106734275817871" fill="none" stroke="rgb(253, 255, 0)" stroke-opacity="1.0" stroke-linecap="round" stroke-linejoin="round"/>
    <path d="M 494.06268310546875 17.042903900146484 C 183.5670623779297 19.21848487854004 243.83961486816406 9.498788833618164 330.0727233886719 18.077707290649414 C 257.722412109375 13.31847858428955 57.295101165771484 7.01231050491333 -7.616917133331299 44.951072692871094 C 312.1004638671875 29.78388023376465 362.0458068847656 20.32126808166504 169.2293701171875 19.453126907348633" stroke-width="13.407934188842773" fill="none" stroke="rgb(255, 0, 70)" stroke-opacity="0.6353845" stroke-linecap="round" stroke-linejoin="round"/>
    <path d="M 502.95159912109375 410.95965576171875 C 437.10723876953125 424.0321044921875 428.83782958984375 406.4463195800781 462.78851318359375 419.44537353515625 C 519.4850463867188 452.7583923339844 502.4783935546875 399.6230773925781 529.2045288085938 383.7953186035156 C 429.926025390625 395.3643798828125 412.49505615234375 390.8180847167969 467.2625427246094 432.1261901855469" stroke-width="8.851422309875488" fill="none" stroke="rgb(72, 156, 202)" stroke-opacity="0.8511723" stroke-linecap="round" stroke-linejoin="round"/>
    <path d="M 150.1741485595703 432.3147277832031 C 5.106405258178711 488.18304443359375 -12.55865478515625 464.5458068847656 116.0740966796875 460.7442626953125" stroke-width="10.644176483154297" fill="none" stroke="rgb(243, 0, 255)" stroke-opacity="1.0" stroke-linecap="round" stroke-linejoin="round"/>
    <path d="M 389.33642578125 192.58055114746094 C 438.9918212890625 218.25840759277344 341.459716796875 195.13400268554688 353.88775634765625 215.93621826171875 C 291.4405212402344 213.4972381591797 300.0840759277344 241.83175659179688 299.6446533203125 172.7292022705078" stroke-width="7.459578514099121" fill="none" stroke="rgb(0, 0, 19)" stroke-opacity="1.0" stroke-linecap="round" stroke-linejoin="round"/>
    <path d="M 394.5731506347656 159.3643798828125 C 425.43133544921875 149.6315460205078 505.3397216796875 142.29598999023438 477.4866943359375 156.30548095703125 C 452.6083984375 126.66853332519531 524.9906005859375 137.95933532714844 539.5360107421875 147.70289611816406 C 529.3281860351562 117.1099624633789 497.58984375 103.64869689941406 506.0931091308594 107.12163543701172" stroke-width="9.928030014038086" fill="none" stroke="rgb(145, 161, 0)" stroke-opacity="0.7304558" stroke-linecap="round" stroke-linejoin="round"/>
    <path d="M 393.75750732421875 31.57537841796875 C 378.2706604003906 115.47798919677734 439.2549133300781 98.76416015625 418.12164306640625 -15.007741928100586 C 458.06121826171875 11.632967948913574 432.7394714355469 32.20880126953125 447.38458251953125 123.19775390625" stroke-width="2.7237002849578857" fill="none" stroke="rgb(255, 255, 253)" stroke-opacity="1.0" stroke-linecap="round" stroke-linejoin="round"/>
    <path d="M 294.0521240234375 481.4553527832031 C 548.8386840820312 453.14654541015625 636.59716796875 403.80316162109375 328.5163269042969 464.3136901855469 C 309.1700134277344 416.78839111328125 329.36907958984375 476.270751953125 305.9063720703125 482.7797546386719" stroke-width="10.230001449584961" fill="none" stroke="rgb(158, 152, 0)" stroke-opacity="0.7295488" stroke-linecap="round" stroke-linejoin="round"/>
    <path d="M 222.6931915283203 70.29408264160156 C 137.62986755371094 83.09827423095703 111.13631439208984 83.75149536132812 151.73187255859375 68.52056884765625 C 120.72654724121094 91.68756103515625 150.32891845703125 69.59309387207031 263.8912048339844 61.788230895996094 C 267.7446594238281 101.00685119628906 216.68203735351562 136.3059844970703 230.70004272460938 22.057369232177734" stroke-width="5.238613128662109" fill="none" stroke="rgb(152, 214, 0)" stroke-opacity="0.98773384" stroke-linecap="round" stroke-linejoin="round"/>
    <path d="M 327.4598083496094 333.7413024902344 C 322.26300048828125 281.8741455078125 336.05523681640625 325.3148193359375 249.19659423828125 316.52215576171875 C 333.6097106933594 312.1036376953125 321.9538879394531 341.2705993652344 318.8385009765625 234.8072509765625 C 267.7048645019531 233.84036254882812 259.0245666503906 264.5995788574219 385.5377197265625 235.73838806152344" stroke-width="8.19456958770752" fill="none" stroke="rgb(255, 202, 0)" stroke-opacity="1.0" stroke-linecap="round" stroke-linejoin="round"/>
    <path d="M 176.0913543701172 370.4488525390625 C 141.66880798339844 365.2283020019531 148.0425262451172 351.4110412597656 216.6895751953125 343.9193115234375 C 121.5545654296875 366.2489013671875 170.88255310058594 367.59417724609375 132.50796508789062 370.7273254394531" stroke-width="7.630734443664551" fill="none" stroke="rgb(7, 116, 255)" stroke-opacity="0.69433206" stroke-linecap="round" stroke-linejoin="round"/>
    <path d="M -6.768337249755859 153.65223693847656 C 8.96530532836914 136.5885772705078 255.55328369140625 83.1918716430664 146.5959014892578 140.87086486816406 C -27.754648208618164 160.1110076904297 -78.51917266845703 160.614990234375 2.70843243598938 190.93702697753906" stroke-width="11.369677543640137" fill="none" stroke="rgb(85, 192, 0)" stroke-opacity="0.6864362" stroke-linecap="round" stroke-linejoin="round"/>
    <path d="M 412.33892822265625 103.64875793457031 C 426.92681884765625 137.8613739013672 368.64593505859375 106.54632568359375 361.6163635253906 148.74774169921875" stroke-width="10.966818809509277" fill="none" stroke="rgb(255, 0, 255)" stroke-opacity="1.0" stroke-linecap="round" stroke-linejoin="round"/>
    <path d="M 102.40077209472656 460.6140441894531 C 52.73735427856445 508.1188659667969 71.81207275390625 459.01202392578125 43.33911895751953 483.4110412597656 C -45.12266159057617 472.250732421875 49.45559310913086 516.5872192382812 -2.771787166595459 485.8360595703125" stroke-width="10.104643821716309" fill="none" stroke="rgb(149, 82, 0)" stroke-opacity="0.7302976" stroke-linecap="round" stroke-linejoin="round"/>
    <path d="M 402.4630126953125 167.06991577148438 C 524.2255859375 154.1570587158203 435.7709655761719 171.73880004882812 478.95770263671875 145.0749969482422" stroke-width="7.535184383392334" fill="none" stroke="rgb(255, 237, 0)" stroke-opacity="0.9822963" stroke-linecap="round" stroke-linejoin="round"/>
    <path d="M 186.2250518798828 57.314674377441406 C 181.03140258789062 110.16132354736328 187.13816833496094 176.88096618652344 176.5007781982422 182.8408660888672 C 107.15613555908203 184.42445373535156 -90.24325561523438 232.6223907470703 62.18703842163086 205.72337341308594" stroke-width="3.92153000831604" fill="none" stroke="rgb(129, 191, 199)" stroke-opacity="1.0" stroke-linecap="round" stroke-linejoin="round"/>
    <path d="M 477.0406799316406 225.0376434326172 C 463.7832946777344 144.45372009277344 504.86810302734375 194.81668090820312 411.6388244628906 191.4139404296875 C 404.1568603515625 244.9382781982422 448.7322692871094 212.70164489746094 495.27227783203125 211.60739135742188" stroke-width="3.7913522720336914" fill="none" stroke="rgb(78, 0, 109)" stroke-opacity="0.88638204" stroke-linecap="round" stroke-linejoin="round"/>
    <path d="M 302.9997863769531 14.657218933105469 C 282.7920227050781 109.38418579101562 340.90069580078125 69.22576904296875 159.89407348632812 121.05030059814453 C 210.49806213378906 90.40035247802734 318.9273986816406 100.46129608154297 290.1180725097656 42.54433059692383" stroke-width="4.4341511726379395" fill="none" stroke="rgb(255, 11, 253)" stroke-opacity="1.0" stroke-linecap="round" stroke-linejoin="round"/>
    <path d="M 248.51974487304688 143.38674926757812 C 260.9674987792969 109.685302734375 190.00196838378906 131.01783752441406 435.836669921875 76.9173583984375" stroke-width="11.427652359008789" fill="none" stroke="rgb(223, 197, 0)" stroke-opacity="0.6805563" stroke-linecap="round" stroke-linejoin="round"/>
    <path d="M 28.557710647583008 198.51174926757812 C 163.53463745117188 159.11119079589844 115.70622253417969 229.62762451171875 134.88705444335938 26.86362648010254" stroke-width="3.6489765644073486" fill="none" stroke="rgb(249, 0, 0)" stroke-opacity="1.0" stroke-linecap="round" stroke-linejoin="round"/>
    <path d="M 89.68531799316406 307.59295654296875 C 85.54974365234375 315.5928649902344 130.66134643554688 301.7652587890625 116.61019897460938 312.8754577636719 C 76.6746597290039 312.60589599609375 92.30924224853516 322.60186767578125 90.80633544921875 273.74395751953125 C 57.0809326171875 281.0295715332031 50.29246520996094 255.89488220214844 59.52265930175781 329.47076416015625" stroke-width="3.217264413833618" fill="none" stroke="rgb(0, 0, 0)" stroke-opacity="1.0" stroke-linecap="round" stroke-linejoin="round"/>
    <path d="M 257.9964294433594 297.6741638183594 C 257.1567077636719 382.552490234375 261.880615234375 352.2781982421875 192.00918579101562 378.54876708984375 C 174.50851440429688 394.0132751464844 277.5549621582031 347.83197021484375 281.3706970214844 372.4150085449219" stroke-width="6.286664962768555" fill="none" stroke="rgb(255, 235, 0)" stroke-opacity="1.0" stroke-linecap="round" stroke-linejoin="round"/>
    <path d="M 244.49891662597656 107.05294799804688 C 364.5388488769531 61.71949005126953 332.3313903808594 95.902587890625 327.802734375 67.8944091796875" stroke-width="3.27272629737854" fill="none" stroke="rgb(46, 0, 2)" stroke-opacity="1.0" stroke-linecap="round" stroke-linejoin="round"/>
    <path d="M 119.3675537109375 185.5361328125 C 150.7164306640625 304.67144775390625 46.12923049926758 295.5783386230469 75.42235565185547 209.5663604736328 C 77.67829132080078 284.4717102050781 175.43312072753906 301.37054443359375 154.09136962890625 199.94638061523438" stroke-width="3.5709807872772217" fill="none" stroke="rgb(255, 191, 0)" stroke-opacity="1.0" stroke-linecap="round" stroke-linejoin="round"/>
    <path d="M 460.25067138671875 317.8948669433594 C 380.9591369628906 304.543701171875 401.85015869140625 381.123046875 468.6722412109375 337.9923095703125" stroke-width="12.930601119995117" fill="none" stroke="rgb(0, 0, 3)" stroke-opacity="1.0" stroke-linecap="round" stroke-linejoin="round"/>
    <path d="M 368.82330322265625 145.2200164794922 C 501.6631774902344 87.95320129394531 513.0487060546875 84.13262939453125 268.2086486816406 131.25901794433594 C 451.2145690917969 137.11993408203125 290.60498046875 113.09320068359375 402.50030517578125 102.1158218383789 C 344.6060791015625 114.54106903076172 353.97509765625 129.9563446044922 363.9870300292969 113.16950225830078" stroke-width="8.393303871154785" fill="none" stroke="rgb(0, 3, 33)" stroke-opacity="0.36294794" stroke-linecap="round" stroke-linejoin="round"/>
    <path d="M 351.24835205078125 450.45361328125 C 370.67083740234375 535.2794799804688 243.60470581054688 493.3250427246094 523.0653076171875 480.9691467285156 C 284.97247314453125 497.5503234863281 387.0481262207031 478.79541015625 348.93707275390625 498.3778381347656" stroke-width="3.4132540225982666" fill="none" stroke="rgb(32, 39, 44)" stroke-opacity="1.0" stroke-linecap="round" stroke-linejoin="round"/>
    <path d="M 421.09771728515625 216.32321166992188 C 509.908935546875 189.30137634277344 601.9464111328125 210.6984405517578 453.9733581542969 183.47169494628906 C 483.1179504394531 171.787353515625 385.6341552734375 184.84747314453125 406.6449279785156 179.45614624023438 C 511.06048583984375 177.9835968017578 584.0064086914062 163.312255859375 473.6236267089844 163.23558044433594" stroke-width="10.534422874450684" fill="none" stroke="rgb(0, 0, 0)" stroke-opacity="0.539341" stroke-linecap="round" stroke-linejoin="round"/>
    <path d="M 318.66485595703125 239.96701049804688 C 390.5405578613281 241.15631103515625 389.89617919921875 246.66629028320312 364.5335998535156 142.32272338867188 C 404.44744873046875 305.6585693359375 376.0779724121094 346.5976867675781 354.9294128417969 205.99224853515625" stroke-width="2.022435188293457" fill="none" stroke="rgb(255, 255, 255)" stroke-opacity="1.0" stroke-linecap="round" stroke-linejoin="round"/>
    <path d="M 78.42533874511719 421.2802734375 C 33.70203399658203 421.3103942871094 241.505615234375 386.314697265625 88.40271759033203 418.0501708984375" stroke-width="3.2939867973327637" fill="none" stroke="rgb(255, 147, 0)" stroke-opacity="0.7331545" stroke-linecap="round" stroke-linejoin="round"/>
    <path d="M 296.98297119140625 499.7366638183594 C 220.15907287597656 500.8523864746094 236.34243774414062 508.92095947265625 202.67129516601562 495.9932556152344 C 281.4313049316406 495.6544189453125 434.384765625 504.59039306640625 433.9462585449219 500.4338684082031 C 369.17010498046875 505.74713134765625 373.1409606933594 521.7294311523438 340.4378356933594 546.4511108398438" stroke-width="9.627019882202148" fill="none" stroke="rgb(0, 0, 0)" stroke-opacity="0.61637944" stroke-linecap="round" stroke-linejoin="round"/>
    <path d="M 183.3170623779297 446.3358154296875 C 174.9605712890625 542.7603149414062 163.92483520507812 513.2551879882812 209.62698364257812 525.983154296875 C 257.826416015625 542.248291015625 234.62950134277344 543.2354736328125 218.612060546875 539.5494995117188 C 209.7050018310547 548.729736328125 206.97879028320312 524.7356567382812 225.29019165039062 538.185546875" stroke-width="4.568650245666504" fill="none" stroke="rgb(209, 52, 142)" stroke-opacity="1.0" stroke-linecap="round" stroke-linejoin="round"/>
    <path d="M 317.8680725097656 461.7091064453125 C 305.5063781738281 434.61456298828125 499.9884338378906 427.1561584472656 475.09417724609375 409.60546875" stroke-width="14.663826942443848" fill="none" stroke="rgb(255, 0, 248)" stroke-opacity="1.0" stroke-linecap="round" stroke-linejoin="round"/>
    <path d="M -2.1434686183929443 162.12355041503906 C 69.64305877685547 126.4289779663086 -50.719451904296875 88.0943832397461 32.22565841674805 204.62391662597656" stroke-width="8.848625183105469" fill="none" stroke="rgb(110, 0, 0)" stroke-opacity="0.37202176" stroke-linecap="round" stroke-linejoin="round"/>
    <path d="M 301.0486145019531 2.785062789916992 C 306.27685546875 36.090511322021484 300.9257507324219 -6.374233722686768 -18.16165542602539 46.51106262207031 C 296.8151550292969 12.676036834716797 246.6895751953125 21.616422653198242 249.1082305908203 2.1529862880706787" stroke-width="5.424969673156738" fill="none" stroke="rgb(243, 0, 82)" stroke-opacity="1.0" stroke-linecap="round" stroke-linejoin="round"/>
    <path d="M 309.35687255859375 86.33194732666016 C 342.2778015136719 61.813785552978516 544.993896484375 40.959312438964844 525.001220703125 54.06249237060547 C 81.8759765625 112.67515563964844 131.63768005371094 73.72855377197266 402.8887634277344 36.38011932373047 C 440.8146057128906 33.1147346496582 511.5790710449219 17.765443801879883 557.174072265625 17.539745330810547" stroke-width="14.098674774169922" fill="none" stroke="rgb(0, 20, 0)" stroke-opacity="0.32679" stroke-linecap="round" stroke-linejoin="round"/>
    <path d="M 157.52633666992188 78.79769897460938 C 156.90504455566406 163.6175079345703 159.5268096923828 112.73757934570312 147.5168914794922 188.41708374023438" stroke-width="2.8966424465179443" fill="none" stroke="rgb(231, 41, 0)" stroke-opacity="1.0" stroke-linecap="round" stroke-linejoin="round"/>
    <path d="M 469.6094665527344 333.0578308105469 C 422.0872802734375 341.2991638183594 420.26434326171875 330.59112548828125 417.1104736328125 355.49200439453125 C 326.45263671875 385.5428771972656 346.1541442871094 365.9542236328125 338.0200500488281 393.65582275390625" stroke-width="10.525114059448242" fill="none" stroke="rgb(255, 0, 255)" stroke-opacity="1.0" stroke-linecap="round" stroke-linejoin="round"/>
    <path d="M 36.900428771972656 38.40764617919922 C 33.441768646240234 84.6973876953125 -7.488542079925537 63.91220474243164 212.66876220703125 45.52348327636719 C 47.11487579345703 67.55818939208984 67.07405853271484 86.8857192993164 63.404991149902344 37.37773895263672 C 78.8832778930664 31.565872192382812 16.341182708740234 38.308692932128906 133.88526916503906 24.945655822753906" stroke-width="5.6306328773498535" fill="none" stroke="rgb(0, 0, 0)" stroke-opacity="0.5007481" stroke-linecap="round" stroke-linejoin="round"/>
    <path d="M 155.33773803710938 289.291015625 C 155.5052490234375 352.6214904785156 170.4992218017578 338.83074951171875 188.7729949951172 314.63690185546875 C 192.2549285888672 311.36895751953125 184.05592346191406 291.8183288574219 189.81356811523438 308.4137878417969 C 115.39057159423828 305.8924560546875 132.3252716064453 326.55810546875 130.09132385253906 275.1908874511719" stroke-width="3.061887741088867" fill="none" stroke="rgb(0, 0, 0)" stroke-opacity="1.0" stroke-linecap="round" stroke-linejoin="round"/>
    <path d="M 329.12420654296875 334.8370056152344 C 326.1584167480469 380.4719543457031 323.954345703125 357.8510437011719 368.0312805175781 362.837646484375" stroke-width="4.130362033843994" fill="none" stroke="rgb(255, 98, 255)" stroke-opacity="1.0" stroke-linecap="round" stroke-linejoin="round"/>
    <path d="M 43.89266586303711 469.6058044433594 C -5.809037208557129 474.5975341796875 7.399099826812744 486.7462463378906 3.7534217834472656 453.94049072265625 C 6.550673484802246 417.8687438964844 7.294004440307617 454.7013854980469 2.20261287689209 448.7977600097656" stroke-width="5.733874797821045" fill="none" stroke="rgb(47, 0, 0)" stroke-opacity="1.0" stroke-linecap="round" stroke-linejoin="round"/>
    <path d="M 172.90733337402344 70.346923828125 C 159.46609497070312 -49.030487060546875 214.8314971923828 171.59207153320312 158.38633728027344 92.68413543701172 C 139.62657165527344 85.1968994140625 131.82931518554688 107.62208557128906 127.40522766113281 19.160804748535156" stroke-width="3.1193792819976807" fill="none" stroke="rgb(255, 196, 0)" stroke-opacity="1.0" stroke-linecap="round" stroke-linejoin="round"/>
    <path d="M 362.69061279296875 215.42318725585938 C 347.9372253417969 200.4529266357422 404.8498229980469 207.41323852539062 307.8152160644531 209.8320770263672" stroke-width="7.576986312866211" fill="none" stroke="rgb(146, 141, 160)" stroke-opacity="1.0" stroke-linecap="round" stroke-linejoin="round"/>
    <path d="M 505.0893859863281 124.47217559814453 C 444.6480712890625 110.66951751708984 488.6479797363281 156.9517059326172 465.82177734375 191.3359375" stroke-width="2.7872631549835205" fill="none" stroke="rgb(142, 215, 255)" stroke-opacity="1.0" stroke-linecap="round" stroke-linejoin="round"/>
    <path d="M 165.51844787597656 100.68280029296875 C 288.0518493652344 82.88349914550781 263.3429870605469 84.65272521972656 267.8502502441406 69.04811096191406" stroke-width="6.999424934387207" fill="none" stroke="rgb(55, 0, 40)" stroke-opacity="1.0" stroke-linecap="round" stroke-linejoin="round"/>
    <path d="M 101.22527313232422 507.7408752441406 C 141.2539825439453 425.2036437988281 148.27459716796875 515.361328125 142.318359375 449.32501220703125 C 95.3957748413086 484.0050354003906 142.11346435546875 426.68994140625 204.8300323486328 448.1027526855469 C 91.98802185058594 468.66717529296875 132.33802795410156 445.8456726074219 119.59225463867188 487.6925048828125" stroke-width="6.682919025421143" fill="none" stroke="rgb(204, 161, 0)" stroke-opacity="0.812217" stroke-linecap="round" stroke-linejoin="round"/>
    <path d="M 62.1379280090332 360.36956787109375 C 62.11732482910156 486.91229248046875 57.92123031616211 575.1466674804688 47.957763671875 451.91070556640625 C 138.26393127441406 445.6789855957031 115.4815902709961 440.1645812988281 116.70369720458984 520.3143920898438" stroke-width="2.0206809043884277" fill="none" stroke="rgb(51, 0, 36)" stroke-opacity="1.0" stroke-linecap="round" stroke-linejoin="round"/>
    <path d="M 43.12400817871094 446.919189453125 C -18.610721588134766 442.8227844238281 47.632102966308594 444.8004150390625 108.00086212158203 433.5936584472656 C 107.77776336669922 473.51348876953125 121.14735412597656 449.9916076660156 63.6976318359375 467.1766662597656 C 36.02110290527344 547.3775634765625 92.81900024414062 557.036376953125 86.87947082519531 468.2187194824219" stroke-width="4.161749839782715" fill="none" stroke="rgb(0, 0, 0)" stroke-opacity="1.0" stroke-linecap="round" stroke-linejoin="round"/>
    <path d="M 187.76254272460938 13.310240745544434 C -90.79742431640625 43.921504974365234 -93.89646911621094 50.13275909423828 138.1509246826172 8.047185897827148 C 139.2831573486328 -75.11255645751953 100.67525482177734 -68.52685546875 107.09085083007812 -50.44268035888672 C 83.2739486694336 -12.251105308532715 102.09494018554688 -7.0549798011779785 78.5553970336914 -28.74756622314453" stroke-width="6.256918907165527" fill="none" stroke="rgb(255, 0, 255)" stroke-opacity="1.0" stroke-linecap="round" stroke-linejoin="round"/>
    <path d="M 344.61541748046875 413.8046569824219 C 334.06451416015625 376.5566101074219 382.1280517578125 404.59228515625 293.1592712402344 412.0132141113281 C 285.7034912109375 369.0179138183594 270.114013671875 318.5224304199219 290.4842529296875 358.9087829589844" stroke-width="3.4281866550445557" fill="none" stroke="rgb(210, 0, 0)" stroke-opacity="1.0" stroke-linecap="round" stroke-linejoin="round"/>
    <path d="M 61.0902214050293 140.48800659179688 C 243.56886291503906 141.36241149902344 28.861982345581055 120.78092956542969 184.43800354003906 142.5579833984375 C 93.19087219238281 165.43394470214844 295.2854919433594 122.54976654052734 152.91188049316406 136.787841796875" stroke-width="13.022111892700195" fill="none" stroke="rgb(197, 255, 0)" stroke-opacity="0.63401103" stroke-linecap="round" stroke-linejoin="round"/>
    <path d="M 185.66482543945312 325.5002746582031 C 206.42581176757812 333.2433776855469 239.28250122070312 307.707763671875 103.32421112060547 335.08453369140625" stroke-width="15.869956016540527" fill="none" stroke="rgb(255, 0, 255)" stroke-opacity="1.0" stroke-linecap="round" stroke-linejoin="round"/>
    <path d="M 381.1828308105469 341.03326416015625 C 469.028076171875 348.1460876464844 291.52398681640625 366.1558532714844 343.55047607421875 343.1558837890625" stroke-width="6.402096748352051" fill="none" stroke="rgb(0, 0, 15)" stroke-opacity="1.0" stroke-linecap="round" stroke-linejoin="round"/>
    <path d="M 469.64697265625 470.2407531738281 C 449.19195556640625 521.5275268554688 496.5379943847656 450.40899658203125 465.25616455078125 494.8894958496094" stroke-width="2.8869497776031494" fill="none" stroke="rgb(127, 34, 83)" stroke-opacity="1.0" stroke-linecap="round" stroke-linejoin="round"/>
    <path d="M 183.8620147705078 201.30685424804688 C 256.42364501953125 188.0395965576172 285.0035095214844 168.32318115234375 311.720458984375 192.79989624023438 C 203.11253356933594 246.04440307617188 234.83778381347656 239.9420623779297 293.44488525390625 233.48123168945312 C 288.1407775878906 267.6900634765625 269.3673400878906 264.227294921875 479.9285888671875 214.21572875976562" stroke-width="11.737594604492188" fill="none" stroke="rgb(207, 109, 0)" stroke-opacity="0.62839395" stroke-linecap="round" stroke-linejoin="round"/>
    <path d="M 75.22059631347656 95.39413452148438 C 82.10011291503906 101.68672180175781 69.10745239257812 97.68350982666016 75.5133056640625 97.05300903320312 C 166.232421875 95.59341430664062 110.20564270019531 76.0427474975586 96.79266357421875 100.63518524169922 C 113.70228576660156 116.36727142333984 90.14591979980469 32.65731430053711 103.48311614990234 30.07634925842285" stroke-width="3.3151519298553467" fill="none" stroke="rgb(0, 0, 44)" stroke-opacity="1.0" stroke-linecap="round" stroke-linejoin="round"/>
    <path d="M 396.6480407714844 199.18040466308594 C 390.8726806640625 157.87887573242188 407.78924560546875 118.58988952636719 372.11798095703125 137.8278045654297" stroke-width="2.0830700397491455" fill="none" stroke="rgb(0, 0, 127)" stroke-opacity="0.9904842" stroke-linecap="round" stroke-linejoin="round"/>
    <path d="M 330.23651123046875 6.230484962463379 C 344.8013916015625 144.14698791503906 330.2227783203125 106.69068145751953 342.2204284667969 73.19526672363281 C 261.1484069824219 65.95232391357422 307.9918518066406 147.2699737548828 304.2974548339844 31.1649169921875" stroke-width="3.2944023609161377" fill="none" stroke="rgb(157, 116, 241)" stroke-opacity="1.0" stroke-linecap="round" stroke-linejoin="round"/>
    <path d="M 200.5434112548828 323.5630798339844 C 108.42977142333984 337.8685607910156 87.3082046508789 357.7982482910156 106.51565551757812 393.7680358886719 C 207.43321228027344 385.5484313964844 167.7265625 390.3020935058594 65.57990264892578 402.6612243652344 C 53.93841552734375 418.62921142578125 110.2175521850586 423.0159912109375 100.49266815185547 342.8165588378906" stroke-width="6.95164680480957" fill="none" stroke="rgb(0, 0, 0)" stroke-opacity="1.0" stroke-linecap="round" stroke-linejoin="round"/>
    <path d="M 368.8795166015625 114.26272583007812 C 420.4124450683594 100.23995971679688 409.5285949707031 112.126220703125 415.7724304199219 88.97234344482422" stroke-width="7.16240930557251" fill="none" stroke="rgb(0, 0, 23)" stroke-opacity="1.0" stroke-linecap="round" stroke-linejoin="round"/>
    <path d="M 87.12188720703125 323.8512268066406 C 81.63349151611328 356.1400451660156 76.27481079101562 327.358642578125 -7.657301902770996 363.604248046875 C 65.1156234741211 339.1372985839844 15.498701095581055 379.9679870605469 31.137582778930664 312.944091796875" stroke-width="6.97562313079834" fill="none" stroke="rgb(255, 0, 110)" stroke-opacity="1.0" stroke-linecap="round" stroke-linejoin="round"/>
    <path d="M 513.2076416015625 303.80810546875 C 207.89268493652344 337.9096984863281 203.10470581054688 316.4430847167969 517.5051879882812 286.6210021972656" stroke-width="10.790853500366211" fill="none" stroke="rgb(150, 172, 0)" stroke-opacity="0.77752244" stroke-linecap="round" stroke-linejoin="round"/>
    <path d="M 316.8188171386719 251.53306579589844 C 309.66998291015625 342.40673828125 354.6742248535156 233.1831817626953 354.2124328613281 322.52239990234375" stroke-width="2.2354848384857178" fill="none" stroke="rgb(75, 0, 0)" stroke-opacity="1.0" stroke-linecap="round" stroke-linejoin="round"/>
    <path d="M 101.91954803466797 64.72409057617188 C 92.18489837646484 419.17230224609375 62.70206069946289 321.6865234375 66.81454467773438 58.60470199584961 C 139.70602416992188 47.15439987182617 151.44700622558594 73.55084228515625 41.39044952392578 75.0445785522461 C 51.10612106323242 37.68342590332031 -18.885272979736328 74.05352020263672 58.41384506225586 58.33590316772461" stroke-width="3.092705488204956" fill="none" stroke="rgb(255, 208, 0)" stroke-opacity="1.0" stroke-linecap="round" stroke-linejoin="round"/>
    <path d="M 470.985107421875 375.6590881347656 C 462.7488708496094 594.6181030273438 417.7900390625 606.4795532226562 437.9530334472656 375.3816833496094" stroke-width="2.3303678035736084" fill="none" stroke="rgb(0, 23, 22)" stroke-opacity="1.0" stroke-linecap="round" stroke-linejoin="round"/>
    <path d="M 395.6634826660156 286.2683410644531 C 187.61244201660156 299.3678894042969 252.59681701660156 319.2815246582031 322.8523864746094 307.02947998046875 C 347.2512512207031 336.3943786621094 276.4989013671875 314.1697082519531 409.546875 305.7680969238281" stroke-width="9.200753211975098" fill="none" stroke="rgb(255, 255, 0)" stroke-opacity="0.9823322" stroke-linecap="round" stroke-linejoin="round"/>
    <path d="M 210.85601806640625 226.61126708984375 C 181.11343383789062 224.4130096435547 192.55941772460938 242.02859497070312 187.58164978027344 194.22987365722656 C 178.2667694091797 208.07809448242188 218.6654815673828 204.05845642089844 81.82506561279297 222.6876678466797 C 67.33531188964844 204.04531860351562 70.15003204345703 218.10665893554688 209.53492736816406 187.59909057617188" stroke-width="8.3461332321167" fill="none" stroke="rgb(209, 241, 0)" stroke-opacity="0.7995497" stroke-linecap="round" stroke-linejoin="round"/>
    <path d="M 209.13226318359375 473.31719970703125 C 197.3212432861328 434.6776428222656 262.04083251953125 462.2408447265625 254.81170654296875 431.45269775390625 C 258.480712890625 517.548828125 244.35186767578125 426.7338562011719 263.9408874511719 518.1127319335938 C 289.4287109375 390.7662658691406 273.9395751953125 506.73577880859375 280.8554382324219 541.5484619140625" stroke-width="3.7204411029815674" fill="none" stroke="rgb(255, 68, 215)" stroke-opacity="1.0" stroke-linecap="round" stroke-linejoin="round"/>
    <path d="M 18.325597763061523 229.6623992919922 C -24.53983497619629 232.5897216796875 22.152339935302734 268.0077819824219 17.549535751342773 84.59144592285156" stroke-width="4.764128684997559" fill="none" stroke="rgb(208, 155, 0)" stroke-opacity="1.0" stroke-linecap="round" stroke-linejoin="round"/>
    <path d="M 21.018108367919922 503.78240966796875 C 19.451671600341797 423.23504638671875 44.33100891113281 512.0787353515625 26.563095092773438 444.83892822265625 C 29.685489654541016 447.4265441894531 -29.83017349243164 444.12799072265625 76.7259521484375 443.2599182128906" stroke-width="3.8940932750701904" fill="none" stroke="rgb(0, 0, 0)" stroke-opacity="1.0" stroke-linecap="round" stroke-linejoin="round"/>
    <path d="M 246.61572265625 266.71728515625 C 192.32765197753906 248.3121795654297 287.3963317871094 308.265380859375 248.62811279296875 223.70382690429688 C 222.1815643310547 300.0149841308594 266.0086669921875 230.88153076171875 256.69793701171875 299.69287109375 C 239.7374267578125 350.4699401855469 223.77926635742188 349.1408996582031 242.01173400878906 196.14039611816406" stroke-width="3.0904598236083984" fill="none" stroke="rgb(248, 153, 0)" stroke-opacity="1.0" stroke-linecap="round" stroke-linejoin="round"/>
    <path d="M 182.1021728515625 448.17095947265625 C 194.63031005859375 405.9900207519531 158.6100616455078 442.7402038574219 253.09130859375 418.02618408203125" stroke-width="7.892533302307129" fill="none" stroke="rgb(255, 255, 0)" stroke-opacity="1.0" stroke-linecap="round" stroke-linejoin="round"/>
    <path d="M 195.35130310058594 -5.847809791564941 C 192.75601196289062 39.421653747558594 221.36245727539062 1.713779330253601 16.31513214111328 40.03923416137695" stroke-width="5.34609317779541" fill="none" stroke="rgb(124, 0, 189)" stroke-opacity="0.6979576" stroke-linecap="round" stroke-linejoin="round"/>
    <path d="M -10.096904754638672 442.770751953125 C 27.63857078552246 485.7414245605469 42.847633361816406 458.1067199707031 -10.437705993652344 463.5963134765625" stroke-width="9.651543617248535" fill="none" stroke="rgb(150, 108, 0)" stroke-opacity="0.92046475" stroke-linecap="round" stroke-linejoin="round"/>
    <path d="M 181.48574829101562 334.34613037109375 C 190.49636840820312 458.1984558105469 171.6328125 349.8782653808594 149.36172485351562 399.9063415527344 C 219.0631866455078 408.6226806640625 165.63546752929688 363.9061279296875 185.80223083496094 400.67388916015625 C 124.71595001220703 422.8639831542969 152.90701293945312 358.7924499511719 152.25868225097656 450.88006591796875" stroke-width="4.017030239105225" fill="none" stroke="rgb(255, 0, 255)" stroke-opacity="1.0" stroke-linecap="round" stroke-linejoin="round"/>
    <path d="M 412.9305419921875 107.71416473388672 C 419.1839599609375 54.414188385009766 397.81591796875 56.25288772583008 423.35565185546875 28.444610595703125" stroke-width="3.776643753051758" fill="none" stroke="rgb(255, 202, 0)" stroke-opacity="1.0" stroke-linecap="round" stroke-linejoin="round"/>
    <path d="M 418.7500305175781 126.92801666259766 C 563.8388061523438 122.51498413085938 387.469970703125 124.22013854980469 380.6695251464844 146.18011474609375" stroke-width="8.980575561523438" fill="none" stroke="rgb(235, 102, 0)" stroke-opacity="0.755064" stroke-linecap="round" stroke-linejoin="round"/>
    <path d="M 499.06195068359375 264.22967529296875 C 505.1421813964844 207.71434020996094 522.3212280273438 233.74937438964844 327.8514709472656 267.3830871582031" stroke-width="10.658758163452148" fill="none" stroke="rgb(95, 121, 118)" stroke-opacity="0.664246" stroke-linecap="round" stroke-linejoin="round"/>
    <path d="M 322.92822265625 378.77294921875 C 327.3389892578125 266.7630615234375 352.96240234375 195.97193908691406 310.7024230957031 303.52484130859375" stroke-width="2.0" fill="none" stroke="rgb(0, 0, 79)" stroke-opacity="0.5000638" stroke-linecap="round" stroke-linejoin="round"/>
    <path d="M 493.5845642089844 337.8216857910156 C 321.902587890625 388.0768737792969 315.3512268066406 419.80462646484375 471.5582275390625 361.6979675292969 C 288.1090393066406 431.8980407714844 314.9617919921875 391.7713317871094 521.7130737304688 367.0273742675781 C 526.956298828125 332.98455810546875 418.9835205078125 370.439453125 506.1416931152344 358.35430908203125" stroke-width="9.864805221557617" fill="none" stroke="rgb(178, 152, 0)" stroke-opacity="0.6746901" stroke-linecap="round" stroke-linejoin="round"/>
    <path d="M 317.0721130371094 151.28524780273438 C 261.0229187011719 142.15052795410156 46.87653732299805 157.6497802734375 235.6127471923828 129.1630859375 C 254.26806640625 214.27700805664062 206.12620544433594 249.2594757080078 210.18801879882812 108.4627685546875" stroke-width="3.8871424198150635" fill="none" stroke="rgb(173, 160, 182)" stroke-opacity="1.0" stroke-linecap="round" stroke-linejoin="round"/>
    <path d="M 152.97096252441406 333.0379638671875 C 192.71096801757812 343.8018493652344 24.195837020874023 349.5921630859375 145.9208984375 349.1841125488281" stroke-width="4.702681541442871" fill="none" stroke="rgb(88, 72, 187)" stroke-opacity="1.0" stroke-linecap="round" stroke-linejoin="round"/>
    <path d="M 198.65924072265625 324.42431640625 C 140.5664825439453 350.581298828125 162.0636444091797 316.06304931640625 153.96597290039062 391.95745849609375" stroke-width="8.037309646606445" fill="none" stroke="rgb(255, 137, 0)" stroke-opacity="0.8825225" stroke-linecap="round" stroke-linejoin="round"/>
    <path d="M 155.05960083007812 364.3443908691406 C -16.27972412109375 392.5723876953125 38.00484848022461 358.067626953125 81.49121856689453 353.93817138671875 C 136.02105712890625 309.3485412597656 169.4666748046875 367.3622741699219 1.5418120622634888 383.8190612792969" stroke-width="9.866060256958008" fill="none" stroke="rgb(201, 178, 0)" stroke-opacity="0.671097" stroke-linecap="round" stroke-linejoin="round"/>
    <path d="M 142.92849731445312 488.53326416015625 C 63.46875 488.0672912597656 128.59947204589844 498.16253662109375 -3.431490182876587 497.9651184082031 C 183.686279296875 496.4368591308594 221.3638458251953 499.36785888671875 268.969970703125 500.2321472167969 C 143.61785888671875 572.6016235351562 145.0198516845703 574.45068359375 152.137939453125 567.9718627929688" stroke-width="6.936155796051025" fill="none" stroke="rgb(0, 22, 12)" stroke-opacity="0.68182683" stroke-linecap="round" stroke-linejoin="round"/>
    <path d="M 215.4050750732422 375.8935241699219 C 296.2225036621094 370.40264892578125 283.7492980957031 352.1875 288.4789733886719 405.0516662597656" stroke-width="3.2508656978607178" fill="none" stroke="rgb(187, 255, 212)" stroke-opacity="1.0" stroke-linecap="round" stroke-linejoin="round"/>
    <path d="M 154.8150177001953 163.14096069335938 C 118.86903381347656 180.74203491210938 273.6982116699219 155.67893981933594 266.2179260253906 160.12405395507812 C 269.90203857421875 244.093017578125 286.3916320800781 75.0455551147461 278.2326965332031 236.65774536132812" stroke-width="4.031009674072266" fill="none" stroke="rgb(178, 14, 255)" stroke-opacity="0.80786794" stroke-linecap="round" stroke-linejoin="round"/>
    <path d="M 68.99259948730469 381.5354309082031 C 96.62227630615234 369.0628356933594 89.48998260498047 404.3830261230469 93.10352325439453 333.78021240234375 C 10.551046371459961 329.7380676269531 -44.273868560791016 359.35980224609375 15.940937042236328 350.2129211425781 C 17.8717098236084 378.72882080078125 -9.885244369506836 357.9725036621094 -14.068123817443848 379.0348815917969" stroke-width="7.529246807098389" fill="none" stroke="rgb(255, 0, 253)" stroke-opacity="0.6608259" stroke-linecap="round" stroke-linejoin="round"/>
    <path d="M 376.16357421875 176.7434844970703 C 397.7637939453125 261.08526611328125 360.3543395996094 314.2012939453125 359.6700134277344 193.64520263671875 C 168.79893493652344 201.07508850097656 496.81500244140625 177.76675415039062 336.5700988769531 183.29904174804688" stroke-width="3.4773366451263428" fill="none" stroke="rgb(60, 47, 0)" stroke-opacity="0.77718854" stroke-linecap="round" stroke-linejoin="round"/>
    <path d="M 102.92082214355469 380.1085510253906 C 77.133056640625 442.0718994140625 235.9424591064453 369.24798583984375 109.74617004394531 387.1667175292969" stroke-width="7.181451320648193" fill="none" stroke="rgb(140, 143, 137)" stroke-opacity="1.0" stroke-linecap="round" stroke-linejoin="round"/>
    <path d="M 196.36550903320312 501.07232666015625 C 216.53346252441406 431.41998291015625 175.24258422851562 527.5032348632812 184.25453186035156 434.6675720214844" stroke-width="2.0" fill="none" stroke="rgb(0, 0, 0)" stroke-opacity="1.0" stroke-linecap="round" stroke-linejoin="round"/>
    <path d="M -20.808740615844727 463.5883483886719 C 36.75022888183594 447.9308776855469 27.067405700683594 476.2245788574219 33.015892028808594 428.7324523925781 C 100.14997863769531 420.4842224121094 97.15690612792969 368.1778259277344 104.28844451904297 432.9917297363281" stroke-width="7.528661727905273" fill="none" stroke="rgb(255, 212, 0)" stroke-opacity="0.7892496" stroke-linecap="round" stroke-linejoin="round"/>
    <path d="M -4.278242111206055 76.16152954101562 C 5.495539665222168 38.025211334228516 14.44961929321289 93.19475555419922 15.355888366699219 16.61906623840332 C 140.3893585205078 -0.07854832708835602 96.66546630859375 16.473541259765625 109.34281158447266 -5.675568103790283 C 11.222250938415527 -17.646076202392578 13.6016845703125 -15.4710111618042 -5.308278560638428 1.741512417793274" stroke-width="2.84840726852417" fill="none" stroke="rgb(52, 0, 21)" stroke-opacity="0.99568653" stroke-linecap="round" stroke-linejoin="round"/>
    <path d="M 404.6604309082031 260.34906005859375 C 363.0839538574219 256.8313903808594 421.2391052246094 292.3216552734375 354.0733947753906 292.8415222167969" stroke-width="4.8488545417785645" fill="none" stroke="rgb(0, 0, 14)" stroke-opacity="1.0" stroke-linecap="round" stroke-linejoin="round"/>
    <path d="M 4.206689357757568 257.99249267578125 C 48.867862701416016 245.35919189453125 -27.013771057128906 266.2064514160156 66.04414367675781 257.94549560546875 C 161.93484497070312 196.54942321777344 116.52828216552734 232.170166015625 -1.4095304012298584 237.6330108642578 C -11.002182006835938 273.8525695800781 13.328025817871094 247.60037231445312 -8.59288215637207 248.167724609375" stroke-width="10.09030532836914" fill="none" stroke="rgb(18, 0, 0)" stroke-opacity="0.31788874" stroke-linecap="round" stroke-linejoin="round"/>
    <path d="M 410.55596923828125 446.7861022949219 C 509.4624328613281 417.70294189453125 500.98834228515625 403.4003601074219 323.76141357421875 455.3944091796875 C 322.54486083984375 515.5243530273438 295.8031311035156 485.71771240234375 400.4190368652344 493.0186462402344 C 379.8349609375 436.14111328125 491.9759521484375 509.10833740234375 480.7210388183594 406.3902893066406" stroke-width="5.409346580505371" fill="none" stroke="rgb(4, 1, 0)" stroke-opacity="0.69661814" stroke-linecap="round" stroke-linejoin="round"/>
    <path d="M 225.8057861328125 470.4184875488281 C 231.92494201660156 502.46722412109375 209.5397186279297 482.7731018066406 250.73876953125 487.89849853515625" stroke-width="3.4149749279022217" fill="none" stroke="rgb(30, 5, 2)" stroke-opacity="1.0" stroke-linecap="round" stroke-linejoin="round"/>
    <path d="M 2.214980125427246 310.93951416015625 C 135.63438415527344 295.68988037109375 261.8565673828125 237.2535400390625 -0.26129215955734253 294.0353698730469" stroke-width="14.168100357055664" fill="none" stroke="rgb(217, 224, 0)" stroke-opacity="0.59630126" stroke-linecap="round" stroke-linejoin="round"/>
    <path d="M 463.9527282714844 259.6594543457031 C 617.07080078125 252.43099975585938 509.16180419921875 265.1164855957031 283.3718566894531 291.97076416015625" stroke-width="14.821822166442871" fill="none" stroke="rgb(202, 0, 195)" stroke-opacity="0.49515513" stroke-linecap="round" stroke-linejoin="round"/>
  </g>
</svg>
