<?xml version="1.0" ?>
<svg xmlns="http://www.w3.org/2000/svg" version="1.1" width="500" height="500">
  <defs/>
  <g>
    <path d="M 338.10040283203125 9.501358032226562 C 423.0301208496094 19.635578155517578 376.075439453125 -68.43755340576172 523.87353515625 72.35066986083984 C 431.08441162109375 -66.21369171142578 425.44830322265625 27.76207733154297 368.21575927734375 9.60165786743164" stroke-width="6.157871246337891" fill="none" stroke="rgb(26, 5, 6)" stroke-opacity="0.5547369" stroke-linecap="round" stroke-linejoin="round"/>
    <path d="M 388.2264099121094 361.73492431640625 C 340.31072998046875 334.5836181640625 345.9717102050781 322.79815673828125 339.826171875 333.1726379394531 C 338.01422119140625 331.4424743652344 297.6015319824219 296.728515625 318.04644775390625 314.3302307128906" stroke-width="3.856536626815796" fill="none" stroke="rgb(21, 0, 0)" stroke-opacity="1.0" stroke-linecap="round" stroke-linejoin="round"/>
    <path d="M 189.28128051757812 77.20840454101562 C 170.38372802734375 106.56838989257812 190.7080078125 92.56703186035156 195.5783233642578 62.61358642578125 C 282.8294372558594 130.4840545654297 73.35728454589844 -8.21017837524414 281.5077209472656 193.7232666015625" stroke-width="7.19128942489624" fill="none" stroke="rgb(135, 79, 0)" stroke-opacity="0.47680932" stroke-linecap="round" stroke-linejoin="round"/>
    <path d="M 341.4984130859375 366.2195129394531 C 136.1666717529297 374.1005554199219 313.1021423339844 370.9398498535156 209.6970977783203 385.49359130859375" stroke-width="5.022767543792725" fill="none" stroke="rgb(0, 0, 68)" stroke-opacity="1.0" stroke-linecap="round" stroke-linejoin="round"/>
    <path d="M 198.6934051513672 470.4925842285156 C 57.55755615234375 428.4853820800781 43.428749084472656 462.81146240234375 70.37834930419922 458.3851623535156 C 105.48958587646484 457.9462890625 68.29966735839844 483.99676513671875 170.9075164794922 449.8872985839844" stroke-width="5.716635227203369" fill="none" stroke="rgb(99, 64, 0)" stroke-opacity="0.66335833" stroke-linecap="round" stroke-linejoin="round"/>
    <path d="M 50.58015441894531 150.86660766601562 C 78.79851531982422 139.76956176757812 63.57242965698242 108.3874740600586 86.57312774658203 127.48351287841797" stroke-width="2.0" fill="none" stroke="rgb(255, 255, 255)" stroke-opacity="0.0" stroke-linecap="round" stroke-linejoin="round"/>
    <path d="M 134.87466430664062 277.8609924316406 C 184.86053466796875 278.0702209472656 199.0748748779297 326.4663391113281 229.03359985351562 243.58421325683594" stroke-width="2.0" fill="none" stroke="rgb(255, 255, 255)" stroke-opacity="0.0" stroke-linecap="round" stroke-linejoin="round"/>
    <path d="M 501.6957702636719 159.4914093017578 C 520.9676513671875 144.72976684570312 475.864013671875 142.2450408935547 471.206298828125 128.7659149169922 C 499.75286865234375 152.158203125 518.738037109375 164.1777801513672 526.3279418945312 168.8819580078125" stroke-width="2.0694539546966553" fill="none" stroke="rgb(255, 255, 255)" stroke-opacity="0.0" stroke-linecap="round" stroke-linejoin="round"/>
    <path d="M 222.03175354003906 341.4281921386719 C 237.20591735839844 308.51507568359375 229.55836486816406 313.48590087890625 210.807861328125 325.45245361328125 C 223.36793518066406 315.86090087890625 228.70021057128906 305.912109375 236.7201385498047 318.9355773925781 C 268.4175109863281 357.0929870605469 258.0345153808594 312.05029296875 269.28228759765625 303.3824768066406" stroke-width="2.0" fill="none" stroke="rgb(255, 255, 255)" stroke-opacity="0.0" stroke-linecap="round" stroke-linejoin="round"/>
    <path d="M 264.80706787109375 241.09222412109375 C 306.1764831542969 218.19873046875 261.7874450683594 266.68072509765625 187.05088806152344 314.9962158203125" stroke-width="4.305412769317627" fill="none" stroke="rgb(128, 79, 9)" stroke-opacity="0.5632087" stroke-linecap="round" stroke-linejoin="round"/>
    <path d="M 229.92112731933594 28.787508010864258 C 297.63580322265625 98.940185546875 375.3206787109375 217.96893310546875 330.69830322265625 125.71708679199219 C 265.4046936035156 35.08558654785156 262.73468017578125 20.5526180267334 328.0533447265625 81.18389892578125 C 300.0005187988281 17.68872833251953 408.81231689453125 55.20130920410156 253.40943908691406 1.8813385963439941" stroke-width="4.123071193695068" fill="none" stroke="rgb(98, 56, 27)" stroke-opacity="0.29054648" stroke-linecap="round" stroke-linejoin="round"/>
    <path d="M 506.27630615234375 274.6705017089844 C 467.33697509765625 280.004150390625 480.969482421875 301.3363037109375 490.51910400390625 258.41143798828125" stroke-width="4.483601093292236" fill="none" stroke="rgb(0, 0, 0)" stroke-opacity="1.0" stroke-linecap="round" stroke-linejoin="round"/>
    <path d="M 112.00407409667969 472.8542175292969 C 164.43280029296875 501.33148193359375 117.3770751953125 473.3828430175781 216.2061004638672 467.6016845703125" stroke-width="4.9560370445251465" fill="none" stroke="rgb(20, 23, 0)" stroke-opacity="0.863407" stroke-linecap="round" stroke-linejoin="round"/>
    <path d="M 421.6190185546875 460.86993408203125 C 456.5353698730469 525.254150390625 484.4562683105469 532.3279418945312 429.1737365722656 473.9607238769531 C 501.9684753417969 524.283203125 478.0592346191406 501.35601806640625 422.55377197265625 454.7701416015625 C 410.4963073730469 451.5042724609375 403.22491455078125 428.6409912109375 447.1251525878906 505.264892578125" stroke-width="3.1599507331848145" fill="none" stroke="rgb(32, 0, 0)" stroke-opacity="1.0" stroke-linecap="round" stroke-linejoin="round"/>
    <path d="M 334.68060302734375 301.37322998046875 C 452.44854736328125 413.1457214355469 380.7118835449219 348.87255859375 343.37615966796875 328.49493408203125 C 304.4284973144531 292.97100830078125 299.9814453125 307.04888916015625 389.5518798828125 373.0373229980469" stroke-width="3.185757637023926" fill="none" stroke="rgb(74, 34, 0)" stroke-opacity="1.0" stroke-linecap="round" stroke-linejoin="round"/>
    <path d="M 236.90835571289062 214.1071014404297 C 121.74067687988281 159.41050720214844 231.57493591308594 236.31686401367188 243.8267059326172 224.0233154296875 C 269.71221923828125 202.2788848876953 220.2087860107422 245.50160217285156 178.9589385986328 265.41632080078125" stroke-width="8.534099578857422" fill="none" stroke="rgb(12, 9, 78)" stroke-opacity="0.9006972" stroke-linecap="round" stroke-linejoin="round"/>
    <path d="M 216.34751892089844 378.30126953125 C 499.13702392578125 507.010498046875 386.5218505859375 500.7614440917969 253.1842041015625 397.7872619628906" stroke-width="3.552198886871338" fill="none" stroke="rgb(63, 28, 0)" stroke-opacity="1.0" stroke-linecap="round" stroke-linejoin="round"/>
    <path d="M 279.1464538574219 41.69108581542969 C 309.4338073730469 76.14743041992188 316.8612976074219 101.06181335449219 388.15399169921875 169.56854248046875" stroke-width="3.074704885482788" fill="none" stroke="rgb(0, 0, 0)" stroke-opacity="1.0" stroke-linecap="round" stroke-linejoin="round"/>
    <path d="M 353.7823181152344 352.9219970703125 C 383.5705261230469 379.88037109375 429.7367248535156 396.389892578125 438.9764709472656 383.4465026855469 C 389.6623840332031 346.6749572753906 391.49945068359375 323.2261047363281 450.5105285644531 389.0813293457031" stroke-width="4.455478191375732" fill="none" stroke="rgb(25, 0, 0)" stroke-opacity="1.0" stroke-linecap="round" stroke-linejoin="round"/>
    <path d="M 213.9698486328125 27.96319007873535 C 344.506591796875 107.7624740600586 313.3516845703125 109.25945281982422 219.4186553955078 41.17657470703125" stroke-width="4.400300025939941" fill="none" stroke="rgb(131, 85, 0)" stroke-opacity="0.42118663" stroke-linecap="round" stroke-linejoin="round"/>
    <path d="M 267.4599914550781 245.4061279296875 C 271.7414855957031 200.852294921875 306.25067138671875 278.16644287109375 205.99583435058594 303.4555969238281 C 316.7632141113281 295.0207824707031 234.1672821044922 203.5266876220703 325.7912292480469 327.3929748535156" stroke-width="4.168324947357178" fill="none" stroke="rgb(35, 21, 0)" stroke-opacity="0.64318997" stroke-linecap="round" stroke-linejoin="round"/>
    <path d="M 482.0591125488281 252.31590270996094 C 377.136474609375 147.99649047851562 437.371826171875 171.28402709960938 467.10601806640625 231.14906311035156 C 441.90216064453125 174.7792205810547 440.474365234375 175.8194580078125 347.9443664550781 59.82491683959961" stroke-width="3.3524250984191895" fill="none" stroke="rgb(12, 15, 47)" stroke-opacity="0.88947004" stroke-linecap="round" stroke-linejoin="round"/>
    <path d="M 480.6555480957031 372.5948791503906 C 521.7742919921875 325.44793701171875 485.4004821777344 294.0688781738281 493.1466369628906 418.20294189453125" stroke-width="18.33879852294922" fill="none" stroke="rgb(0, 0, 0)" stroke-opacity="1.0" stroke-linecap="round" stroke-linejoin="round"/>
    <path d="M 224.20933532714844 482.8851623535156 C 166.63693237304688 507.5630798339844 213.0838623046875 486.68560791015625 -7.669381141662598 492.62890625 C 270.73956298828125 511.0701599121094 259.5594177246094 518.3410034179688 153.27056884765625 497.2662353515625" stroke-width="14.681912422180176" fill="none" stroke="rgb(23, 14, 22)" stroke-opacity="0.99522734" stroke-linecap="round" stroke-linejoin="round"/>
    <path d="M 167.45167541503906 480.9095458984375 C 29.227420806884766 484.97247314453125 -45.82011413574219 494.247314453125 139.49899291992188 500.28546142578125 C 73.79871368408203 450.4947814941406 106.97417449951172 485.2989196777344 143.60028076171875 466.5207824707031" stroke-width="4.325363636016846" fill="none" stroke="rgb(0, 7, 50)" stroke-opacity="0.77384305" stroke-linecap="round" stroke-linejoin="round"/>
    <path d="M 3.5431861877441406 381.07440185546875 C -12.295217514038086 424.9901123046875 23.19782257080078 489.3448181152344 103.08987426757812 479.5086975097656 C -32.953617095947266 454.1062316894531 -25.450952529907227 388.3268127441406 29.3646183013916 484.5677490234375 C 56.38360595703125 468.64764404296875 -42.09197998046875 495.7962341308594 65.78761291503906 489.660888671875" stroke-width="4.502906799316406" fill="none" stroke="rgb(71, 42, 0)" stroke-opacity="0.7156322" stroke-linecap="round" stroke-linejoin="round"/>
    <path d="M 310.9648132324219 58.724609375 C 232.73509216308594 -29.074867248535156 152.41253662109375 -6.987277984619141 259.45068359375 22.089754104614258 C 307.7613220214844 65.39286041259766 276.9145202636719 63.64714813232422 316.5723876953125 103.49258422851562" stroke-width="3.0126829147338867" fill="none" stroke="rgb(140, 75, 7)" stroke-opacity="0.52867436" stroke-linecap="round" stroke-linejoin="round"/>
    <path d="M 347.7820739746094 160.58743286132812 C 449.5303955078125 251.37974548339844 510.7039794921875 382.16253662109375 365.399658203125 206.43533325195312" stroke-width="5.13713264465332" fill="none" stroke="rgb(0, 15, 40)" stroke-opacity="1.0" stroke-linecap="round" stroke-linejoin="round"/>
    <path d="M 316.9814453125 211.90260314941406 C 237.63929748535156 129.53074645996094 201.99642944335938 64.06706237792969 183.7416229248047 90.21345520019531" stroke-width="6.009823322296143" fill="none" stroke="rgb(81, 50, 9)" stroke-opacity="0.65950245" stroke-linecap="round" stroke-linejoin="round"/>
    <path d="M 501.04486083984375 231.44161987304688 C 433.2967224121094 136.05764770507812 494.7501525878906 205.8403778076172 514.338134765625 235.7766571044922 C 447.715576171875 256.8973693847656 541.9138793945312 258.4985656738281 466.9435729980469 218.2338104248047 C 527.0795288085938 276.40185546875 498.62359619140625 224.43869018554688 437.39361572265625 181.51719665527344" stroke-width="4.24156379699707" fill="none" stroke="rgb(0, 0, 18)" stroke-opacity="1.0" stroke-linecap="round" stroke-linejoin="round"/>
    <path d="M 323.4189758300781 451.1617126464844 C 460.69390869140625 558.5863647460938 443.43096923828125 482.5609436035156 290.4515686035156 396.0748291015625" stroke-width="3.429427146911621" fill="none" stroke="rgb(9, 0, 0)" stroke-opacity="1.0" stroke-linecap="round" stroke-linejoin="round"/>
    <path d="M 115.9007339477539 186.81690979003906 C 184.0757598876953 259.7146301269531 222.38247680664062 268.97711181640625 119.47024536132812 323.9628601074219" stroke-width="12.908357620239258" fill="none" stroke="rgb(37, 25, 28)" stroke-opacity="0.5266844" stroke-linecap="round" stroke-linejoin="round"/>
    <path d="M 104.61421203613281 445.76226806640625 C 139.89320373535156 468.2732238769531 97.98638916015625 423.6607360839844 207.4378204345703 465.62982177734375" stroke-width="4.195167541503906" fill="none" stroke="rgb(49, 0, 0)" stroke-opacity="1.0" stroke-linecap="round" stroke-linejoin="round"/>
    <path d="M 387.7798767089844 60.8475341796875 C 408.78778076171875 79.83663940429688 379.40228271484375 62.7949333190918 349.00640869140625 41.48117446899414 C 388.46844482421875 89.46604919433594 420.87738037109375 117.80230712890625 345.5303039550781 41.72355651855469 C 515.5939331054688 311.12890625 437.55780029296875 249.08865356445312 358.40673828125 146.77230834960938" stroke-width="2.8946404457092285" fill="none" stroke="rgb(0, 62, 125)" stroke-opacity="0.40046322" stroke-linecap="round" stroke-linejoin="round"/>
    <path d="M 261.795654296875 209.67337036132812 C 179.14671325683594 241.04983520507812 168.43455505371094 312.32379150390625 246.0332794189453 235.78062438964844 C 254.17556762695312 237.65145874023438 262.3045349121094 230.46435546875 247.64578247070312 239.48916625976562" stroke-width="3.70700740814209" fill="none" stroke="rgb(57, 41, 138)" stroke-opacity="0.680468" stroke-linecap="round" stroke-linejoin="round"/>
    <path d="M 324.8259582519531 476.0466613769531 C 213.39622497558594 426.0368957519531 253.53895568847656 457.3757019042969 262.9974670410156 455.0741271972656 C 388.2158508300781 553.6212768554688 302.3678283691406 500.6142883300781 188.9214324951172 441.1957092285156" stroke-width="4.267345905303955" fill="none" stroke="rgb(50, 11, 0)" stroke-opacity="1.0" stroke-linecap="round" stroke-linejoin="round"/>
    <path d="M 309.537109375 505.7669677734375 C 257.5276184082031 456.57635498046875 307.1575622558594 507.9008483886719 272.3846130371094 494.4179382324219 C 275.6747741699219 482.9127502441406 258.42730712890625 445.4354248046875 341.1834411621094 504.02459716796875" stroke-width="10.598099708557129" fill="none" stroke="rgb(0, 0, 5)" stroke-opacity="1.0" stroke-linecap="round" stroke-linejoin="round"/>
    <path d="M 485.3600158691406 359.4259033203125 C 345.7352600097656 252.93565368652344 340.1036071777344 233.61595153808594 431.1256103515625 341.36865234375 C 349.95001220703125 276.73541259765625 390.42779541015625 322.2199401855469 473.41912841796875 400.9916076660156" stroke-width="2.764590263366699" fill="none" stroke="rgb(11, 0, 35)" stroke-opacity="1.0" stroke-linecap="round" stroke-linejoin="round"/>
    <path d="M 502.2618408203125 448.8418273925781 C 488.8869934082031 401.42645263671875 493.4801940917969 476.0794677734375 482.5418701171875 377.0704345703125 C 529.423095703125 410.5505676269531 519.1356811523438 389.31951904296875 471.7182312011719 378.9698181152344 C 541.6052856445312 454.94158935546875 482.6455383300781 360.7025451660156 498.7301330566406 501.3193664550781" stroke-width="7.013722896575928" fill="none" stroke="rgb(20, 23, 28)" stroke-opacity="0.86611474" stroke-linecap="round" stroke-linejoin="round"/>
    <path d="M 79.33781433105469 505.66204833984375 C 59.28371810913086 507.92889404296875 83.45598602294922 511.0758361816406 78.19874572753906 504.8773193359375" stroke-width="2.0" fill="none" stroke="rgb(156, 0, 155)" stroke-opacity="1.0" stroke-linecap="round" stroke-linejoin="round"/>
    <path d="M 78.04963684082031 151.76710510253906 C 105.45286560058594 166.47218322753906 88.84705352783203 133.39056396484375 109.24893188476562 151.64456176757812 C 110.80325317382812 136.54600524902344 93.40624237060547 80.67351531982422 130.6502227783203 81.42157745361328" stroke-width="2.0" fill="none" stroke="rgb(255, 255, 255)" stroke-opacity="0.0" stroke-linecap="round" stroke-linejoin="round"/>
    <path d="M 300.1536865234375 210.1840362548828 C 269.48175048828125 256.3739013671875 235.40902709960938 175.06170654296875 294.37957763671875 283.6161804199219 C 253.07667541503906 232.62942504882812 173.69735717773438 140.12904357910156 279.16162109375 212.2076873779297 C 248.37818908691406 224.35386657714844 164.23770141601562 178.33697509765625 225.02183532714844 222.8592987060547" stroke-width="5.328393459320068" fill="none" stroke="rgb(231, 225, 186)" stroke-opacity="0.8434509" stroke-linecap="round" stroke-linejoin="round"/>
    <path d="M 2.963397264480591 494.23895263671875 C 99.34628295898438 440.4827575683594 152.9296875 574.4705200195312 12.235459327697754 475.1983947753906" stroke-width="3.592132806777954" fill="none" stroke="rgb(53, 54, 81)" stroke-opacity="1.0" stroke-linecap="round" stroke-linejoin="round"/>
    <path d="M 197.42874145507812 144.1891632080078 C 175.89593505859375 184.82713317871094 115.3205337524414 186.01161193847656 212.37757873535156 121.05573272705078 C 130.51234436035156 69.03997039794922 146.89845275878906 135.67025756835938 264.31781005859375 212.82736206054688 C 202.58555603027344 142.03750610351562 169.8455047607422 126.18109893798828 139.2666473388672 144.2328643798828" stroke-width="5.880296230316162" fill="none" stroke="rgb(115, 87, 0)" stroke-opacity="0.22066028" stroke-linecap="round" stroke-linejoin="round"/>
    <path d="M 177.56521606445312 190.03993225097656 C 222.68972778320312 104.36132049560547 265.07806396484375 152.125244140625 138.28501892089844 158.43902587890625 C 117.29969787597656 131.4558563232422 139.10845947265625 95.29854583740234 211.76400756835938 130.05621337890625" stroke-width="6.5199971199035645" fill="none" stroke="rgb(120, 91, 59)" stroke-opacity="0.19626291" stroke-linecap="round" stroke-linejoin="round"/>
    <path d="M 10.167299270629883 284.01708984375 C 18.526926040649414 294.47418212890625 53.651573181152344 312.458984375 81.43971252441406 321.4952392578125" stroke-width="2.0126171112060547" fill="none" stroke="rgb(255, 255, 255)" stroke-opacity="0.0" stroke-linecap="round" stroke-linejoin="round"/>
    <path d="M 508.6339416503906 497.0552978515625 C 464.6600341796875 456.31414794921875 463.4744873046875 463.6079406738281 496.0113830566406 497.5527648925781 C 461.68603515625 492.06695556640625 450.8310241699219 460.1119384765625 488.5723571777344 509.013916015625" stroke-width="5.016992092132568" fill="none" stroke="rgb(0, 41, 127)" stroke-opacity="1.0" stroke-linecap="round" stroke-linejoin="round"/>
    <path d="M 364.9922180175781 161.47877502441406 C 286.6201171875 96.11365509033203 285.8513488769531 44.79584884643555 222.13723754882812 20.8574161529541" stroke-width="3.437502145767212" fill="none" stroke="rgb(29, 0, 4)" stroke-opacity="1.0" stroke-linecap="round" stroke-linejoin="round"/>
    <path d="M 172.0941162109375 49.961605072021484 C 51.96752166748047 211.62750244140625 102.46763610839844 72.82412719726562 54.291324615478516 205.5205535888672 C 107.82278442382812 182.89537048339844 158.31118774414062 181.9001922607422 52.44681930541992 243.9498291015625" stroke-width="9.585894584655762" fill="none" stroke="rgb(67, 53, 35)" stroke-opacity="0.44209963" stroke-linecap="round" stroke-linejoin="round"/>
    <path d="M 317.3861999511719 405.0111999511719 C 415.4923400878906 436.6155700683594 398.1513366699219 457.0042724609375 440.9552001953125 484.16064453125 C 434.3545227050781 477.0686340332031 401.4360046386719 446.28363037109375 446.1337585449219 499.59747314453125" stroke-width="2.3501622676849365" fill="none" stroke="rgb(57, 34, 0)" stroke-opacity="1.0" stroke-linecap="round" stroke-linejoin="round"/>
    <path d="M 456.7655944824219 506.7391357421875 C 420.6166687011719 470.40478515625 451.3729553222656 541.94873046875 401.85711669921875 483.2018737792969 C 371.3803405761719 464.7046813964844 430.69287109375 492.7077941894531 416.781005859375 525.1064453125 C 449.519775390625 508.91314697265625 448.0018310546875 506.39154052734375 375.3539733886719 439.380859375" stroke-width="11.885197639465332" fill="none" stroke="rgb(3, 0, 18)" stroke-opacity="1.0" stroke-linecap="round" stroke-linejoin="round"/>
    <path d="M 508.7735595703125 472.14569091796875 C 484.1933898925781 418.5490417480469 443.7200012207031 396.5144348144531 507.3314514160156 478.0840148925781" stroke-width="5.069167613983154" fill="none" stroke="rgb(0, 0, 13)" stroke-opacity="1.0" stroke-linecap="round" stroke-linejoin="round"/>
    <path d="M 284.8179626464844 2.0195252895355225 C 209.73904418945312 -0.11213561147451401 121.3585205078125 7.14295768737793 156.08995056152344 -5.567816257476807 C 265.16168212890625 -27.22378921508789 279.2212829589844 -36.888206481933594 311.1065673828125 -12.556476593017578" stroke-width="8.3557710647583" fill="none" stroke="rgb(16, 0, 7)" stroke-opacity="0.59516066" stroke-linecap="round" stroke-linejoin="round"/>
    <path d="M 270.7072448730469 259.3360290527344 C 83.09632110595703 412.2323913574219 165.1660919189453 340.7898864746094 284.5568542480469 266.0108642578125 C 232.23379516601562 251.450927734375 250.8770294189453 268.31121826171875 259.4184265136719 252.12950134277344" stroke-width="4.019421100616455" fill="none" stroke="rgb(12, 0, 0)" stroke-opacity="0.51122403" stroke-linecap="round" stroke-linejoin="round"/>
    <path d="M 382.60748291015625 307.2286376953125 C 284.55419921875 218.18417358398438 388.7377624511719 337.45550537109375 484.60467529296875 420.6259765625 C 459.2238464355469 328.5788879394531 396.8583068847656 349.9263916015625 508.63214111328125 286.70806884765625" stroke-width="7.913395404815674" fill="none" stroke="rgb(0, 31, 81)" stroke-opacity="0.5283209" stroke-linecap="round" stroke-linejoin="round"/>
    <path d="M 218.4242401123047 475.53564453125 C 173.84474182128906 480.3525695800781 157.39102172851562 512.0809936523438 177.44541931152344 483.8343505859375 C 138.574951171875 491.72613525390625 74.25895690917969 532.4118041992188 228.72312927246094 494.2652893066406 C 233.6439666748047 476.07861328125 243.75723266601562 507.2896423339844 280.326171875 483.70404052734375" stroke-width="14.778043746948242" fill="none" stroke="rgb(2, 0, 0)" stroke-opacity="0.89066267" stroke-linecap="round" stroke-linejoin="round"/>
    <path d="M 149.29795837402344 170.3651580810547 C 188.99925231933594 94.38053894042969 188.16485595703125 109.21774291992188 232.37478637695312 150.39561462402344 C 180.1980438232422 100.0565414428711 148.5845489501953 101.90017700195312 286.32720947265625 197.44480895996094" stroke-width="4.550917148590088" fill="none" stroke="rgb(82, 35, 0)" stroke-opacity="0.65993553" stroke-linecap="round" stroke-linejoin="round"/>
    <path d="M 14.202469825744629 499.89300537109375 C -26.005970001220703 449.96038818359375 25.377656936645508 208.47335815429688 3.072774648666382 1.1298823356628418" stroke-width="18.141759872436523" fill="none" stroke="rgb(0, 1, 1)" stroke-opacity="0.9437218" stroke-linecap="round" stroke-linejoin="round"/>
    <path d="M 202.86451721191406 380.22698974609375 C 259.0679931640625 381.7303466796875 194.91783142089844 356.5198974609375 298.65582275390625 365.07421875 C 369.8515930175781 341.8799743652344 393.08135986328125 428.9335632324219 303.0743103027344 352.9275207519531 C 279.560546875 369.6968994140625 266.0275573730469 358.04156494140625 389.0256652832031 405.899658203125" stroke-width="6.012601852416992" fill="none" stroke="rgb(123, 114, 106)" stroke-opacity="0.8747542" stroke-linecap="round" stroke-linejoin="round"/>
    <path d="M 108.96478271484375 65.85962677001953 C 126.14285278320312 60.56298065185547 114.06414031982422 70.25245666503906 77.61402893066406 58.84398651123047 C 95.07028198242188 58.22199630737305 135.26025390625 51.82101821899414 155.19723510742188 11.259319305419922 C 142.87606811523438 27.16587257385254 122.81168365478516 42.85137939453125 149.77349853515625 38.3734130859375" stroke-width="2.0" fill="none" stroke="rgb(255, 255, 255)" stroke-opacity="0.0" stroke-linecap="round" stroke-linejoin="round"/>
    <path d="M 382.08367919921875 388.0163269042969 C 353.0262756347656 409.17449951171875 283.6950988769531 419.5623474121094 375.9544372558594 386.4180603027344" stroke-width="4.600598335266113" fill="none" stroke="rgb(0, 45, 73)" stroke-opacity="0.4490354" stroke-linecap="round" stroke-linejoin="round"/>
    <path d="M 362.80340576171875 201.4844207763672 C 481.36065673828125 377.8856201171875 464.5550231933594 277.64715576171875 355.0076599121094 170.93540954589844 C 394.43115234375 210.818115234375 408.44598388671875 229.2049102783203 381.8724060058594 203.5792999267578 C 377.0602111816406 80.90433502197266 335.59521484375 146.47694396972656 459.5986022949219 266.2513427734375" stroke-width="10.492803573608398" fill="none" stroke="rgb(0, 0, 18)" stroke-opacity="0.56302404" stroke-linecap="round" stroke-linejoin="round"/>
    <path d="M 349.497802734375 484.8444519042969 C 209.74310302734375 404.0311584472656 215.94554138183594 379.0754089355469 299.4408264160156 449.2347717285156 C 239.18582153320312 465.0987243652344 265.58660888671875 391.93084716796875 142.70928955078125 414.0998229980469" stroke-width="3.365787982940674" fill="none" stroke="rgb(87, 43, 0)" stroke-opacity="1.0" stroke-linecap="round" stroke-linejoin="round"/>
    <path d="M 269.16278076171875 216.53448486328125 C 381.5792541503906 313.3279724121094 316.27838134765625 213.63638305664062 193.91542053222656 178.37359619140625" stroke-width="2.0412540435791016" fill="none" stroke="rgb(73, 0, 0)" stroke-opacity="1.0" stroke-linecap="round" stroke-linejoin="round"/>
    <path d="M 412.14959716796875 60.373008728027344 C 499.0680236816406 145.32620239257812 468.0146484375 113.14908599853516 498.7915954589844 168.18016052246094 C 500.4317626953125 19.894264221191406 485.53277587890625 57.55716323852539 499.5724182128906 225.5193634033203" stroke-width="4.250391483306885" fill="none" stroke="rgb(0, 0, 13)" stroke-opacity="0.77364504" stroke-linecap="round" stroke-linejoin="round"/>
    <path d="M 45.15632247924805 424.87255859375 C 158.06735229492188 488.56097412109375 245.0510711669922 387.11248779296875 63.233070373535156 453.90570068359375 C -34.880531311035156 414.2005310058594 33.64447021484375 438.5480041503906 167.61709594726562 292.08294677734375" stroke-width="7.032839775085449" fill="none" stroke="rgb(204, 186, 155)" stroke-opacity="0.95457757" stroke-linecap="round" stroke-linejoin="round"/>
    <path d="M 446.28271484375 10.238426208496094 C 245.7212677001953 28.928176879882812 375.9465637207031 74.03504943847656 283.1441955566406 22.498706817626953" stroke-width="8.000425338745117" fill="none" stroke="rgb(127, 111, 86)" stroke-opacity="0.30882892" stroke-linecap="round" stroke-linejoin="round"/>
    <path d="M 188.04153442382812 37.37724685668945 C 222.23184204101562 24.572946548461914 289.8652648925781 135.24203491210938 361.1011047363281 198.16270446777344 C 286.03814697265625 173.78860473632812 234.05953979492188 32.53977584838867 187.03466796875 51.24993896484375" stroke-width="4.239912986755371" fill="none" stroke="rgb(82, 31, 2)" stroke-opacity="0.6000576" stroke-linecap="round" stroke-linejoin="round"/>
    <path d="M 499.75836181640625 440.9600524902344 C 404.16802978515625 381.25872802734375 444.12335205078125 369.74884033203125 472.00946044921875 403.99261474609375 C 491.14312744140625 396.7327880859375 493.9679870605469 454.3025817871094 362.2794189453125 318.98046875" stroke-width="3.3936800956726074" fill="none" stroke="rgb(0, 9, 0)" stroke-opacity="0.78929967" stroke-linecap="round" stroke-linejoin="round"/>
    <path d="M 121.97077941894531 187.75082397460938 C 177.15957641601562 248.77537536621094 227.72695922851562 279.3594055175781 167.8067626953125 248.19976806640625" stroke-width="4.152303218841553" fill="none" stroke="rgb(19, 0, 3)" stroke-opacity="1.0" stroke-linecap="round" stroke-linejoin="round"/>
    <path d="M 8.484321594238281 -21.112022399902344 C 30.986303329467773 29.824304580688477 18.459083557128906 -25.322952270507812 11.969745635986328 27.679279327392578 C 20.197649002075195 72.27607727050781 23.38703727722168 2.4007084369659424 9.75743579864502 356.0978088378906" stroke-width="12.953895568847656" fill="none" stroke="rgb(133, 132, 129)" stroke-opacity="0.5331962" stroke-linecap="round" stroke-linejoin="round"/>
    <path d="M 456.3730163574219 513.2858276367188 C 395.2907409667969 471.83819580078125 411.6683654785156 431.5311584472656 308.1736145019531 427.7132873535156 C 422.6085510253906 503.1764221191406 370.7166748046875 464.8176574707031 372.72430419921875 494.1773986816406 C 326.55914306640625 467.31732177734375 364.154052734375 478.20281982421875 283.9742126464844 439.5672912597656" stroke-width="6.333104133605957" fill="none" stroke="rgb(136, 129, 110)" stroke-opacity="0.8848665" stroke-linecap="round" stroke-linejoin="round"/>
    <path d="M 319.6932373046875 492.82672119140625 C 265.1336364746094 460.32244873046875 300.8953552246094 453.706298828125 212.2263946533203 399.21240234375 C 233.5078125 401.1839294433594 262.1955871582031 317.41265869140625 225.05068969726562 378.49444580078125" stroke-width="5.192739486694336" fill="none" stroke="rgb(87, 76, 52)" stroke-opacity="0.57233906" stroke-linecap="round" stroke-linejoin="round"/>
    <path d="M 250.1656494140625 288.9437255859375 C 186.8926239013672 355.2347106933594 247.7074432373047 289.9804382324219 165.3113555908203 348.8073425292969" stroke-width="5.951644420623779" fill="none" stroke="rgb(0, 0, 0)" stroke-opacity="1.0" stroke-linecap="round" stroke-linejoin="round"/>
    <path d="M 123.907958984375 467.67413330078125 C 198.68397521972656 422.2071838378906 144.06509399414062 493.116943359375 85.07506561279297 479.3060302734375 C 126.02824401855469 525.2609252929688 151.8311309814453 424.6799621582031 122.3799819946289 481.29913330078125" stroke-width="3.447559118270874" fill="none" stroke="rgb(92, 88, 108)" stroke-opacity="0.8198579" stroke-linecap="round" stroke-linejoin="round"/>
    <path d="M 198.5708770751953 98.08189392089844 C 97.6955795288086 171.3040313720703 159.1338653564453 222.552734375 101.16596221923828 88.13923645019531 C 211.88626098632812 88.44365692138672 216.84278869628906 27.777780532836914 137.45960998535156 56.950557708740234 C 217.63931274414062 76.68507385253906 169.12728881835938 43.44272994995117 203.3286895751953 72.32935333251953" stroke-width="7.894440650939941" fill="none" stroke="rgb(97, 57, 0)" stroke-opacity="0.29867586" stroke-linecap="round" stroke-linejoin="round"/>
    <path d="M 238.08055114746094 228.5880584716797 C 209.2497100830078 248.16140747070312 169.237548828125 206.78167724609375 225.9403533935547 255.3941192626953 C 174.86788940429688 250.09080505371094 126.71218872070312 179.1156463623047 148.7857208251953 206.94406127929688" stroke-width="4.1637678146362305" fill="none" stroke="rgb(0, 0, 0)" stroke-opacity="1.0" stroke-linecap="round" stroke-linejoin="round"/>
    <path d="M 159.97059631347656 60.11824035644531 C 35.04869079589844 149.0980987548828 136.306884765625 88.9124526977539 63.66368103027344 131.6654510498047 C 76.47622680664062 118.2422866821289 128.12094116210938 109.08069610595703 45.606571197509766 149.15191650390625" stroke-width="4.482851028442383" fill="none" stroke="rgb(156, 85, 0)" stroke-opacity="0.50200254" stroke-linecap="round" stroke-linejoin="round"/>
    <path d="M 311.4022216796875 346.6655578613281 C 242.756103515625 364.47802734375 325.23291015625 316.7252197265625 335.7289123535156 364.3894348144531" stroke-width="3.792523145675659" fill="none" stroke="rgb(101, 87, 80)" stroke-opacity="0.9366364" stroke-linecap="round" stroke-linejoin="round"/>
    <path d="M -4.089131832122803 -2.2011241912841797 C 165.31466674804688 5.723683834075928 166.9627227783203 11.774605751037598 192.7288818359375 -18.618907928466797" stroke-width="9.815401077270508" fill="none" stroke="rgb(12, 3, 7)" stroke-opacity="0.7346046" stroke-linecap="round" stroke-linejoin="round"/>
    <path d="M 195.4714813232422 429.2053527832031 C 323.6610107421875 495.8193054199219 277.0815124511719 471.0153503417969 208.74330139160156 405.2684326171875" stroke-width="4.58201789855957" fill="none" stroke="rgb(107, 85, 36)" stroke-opacity="0.9214874" stroke-linecap="round" stroke-linejoin="round"/>
    <path d="M 373.9956970214844 348.3059997558594 C 280.2408142089844 265.3329772949219 307.6286315917969 309.1978454589844 336.75592041015625 312.9184875488281 C 324.1041564941406 277.8840637207031 275.5365905761719 327.6798400878906 239.16441345214844 378.0759582519531" stroke-width="6.622623443603516" fill="none" stroke="rgb(169, 144, 107)" stroke-opacity="0.70690244" stroke-linecap="round" stroke-linejoin="round"/>
    <path d="M 430.9578857421875 360.5631408691406 C 247.35946655273438 248.73976135253906 330.99005126953125 265.50067138671875 409.17919921875 355.9463806152344" stroke-width="3.9402048587799072" fill="none" stroke="rgb(17, 0, 0)" stroke-opacity="1.0" stroke-linecap="round" stroke-linejoin="round"/>
    <path d="M 198.97256469726562 442.8074645996094 C -39.95736312866211 419.3610534667969 90.44535064697266 331.79522705078125 217.3191680908203 338.4541320800781" stroke-width="5.164078712463379" fill="none" stroke="rgb(232, 225, 207)" stroke-opacity="1.0" stroke-linecap="round" stroke-linejoin="round"/>
    <path d="M 61.26679229736328 48.03926467895508 C 49.00423049926758 63.50071716308594 80.53126525878906 69.91756439208984 13.595239639282227 154.84669494628906" stroke-width="4.117586612701416" fill="none" stroke="rgb(166, 153, 154)" stroke-opacity="0.2467529" stroke-linecap="round" stroke-linejoin="round"/>
    <path d="M 102.69677734375 392.4912109375 C 212.93539428710938 325.24078369140625 178.01629638671875 313.2772216796875 169.2562713623047 337.2113952636719 C 28.639446258544922 439.4007263183594 125.73321533203125 382.9484558105469 202.36256408691406 379.39990234375 C 258.1521301269531 365.92242431640625 213.41055297851562 428.96636962890625 85.09916687011719 399.3243103027344" stroke-width="4.96292781829834" fill="none" stroke="rgb(0, 0, 27)" stroke-opacity="0.40019095" stroke-linecap="round" stroke-linejoin="round"/>
    <path d="M 370.36602783203125 228.16900634765625 C 416.0510559082031 237.724609375 248.9783935546875 102.05116271972656 345.5743103027344 205.77919006347656 C 328.84210205078125 209.2185516357422 297.50823974609375 163.58058166503906 399.4810791015625 278.9740905761719 C 265.64776611328125 193.48207092285156 275.7796325683594 144.0803985595703 339.41082763671875 262.26263427734375" stroke-width="3.9548449516296387" fill="none" stroke="rgb(87, 62, 34)" stroke-opacity="0.46994185" stroke-linecap="round" stroke-linejoin="round"/>
    <path d="M 202.16958618164062 35.37405776977539 C 107.77674102783203 42.93086242675781 242.50796508789062 14.085412979125977 145.6878662109375 44.64802551269531 C 242.7274169921875 14.300832748413086 253.66937255859375 -15.048129081726074 82.78060150146484 55.96294403076172" stroke-width="4.321662425994873" fill="none" stroke="rgb(120, 56, 13)" stroke-opacity="0.2506748" stroke-linecap="round" stroke-linejoin="round"/>
    <path d="M 477.4750061035156 259.6707458496094 C 462.0359191894531 10.01673412322998 493.96527099609375 63.4478645324707 452.5693359375 32.1837158203125 C 455.2232971191406 19.25885772705078 424.2168884277344 33.98004150390625 346.70135498046875 43.480812072753906" stroke-width="14.83642864227295" fill="none" stroke="rgb(0, 9, 26)" stroke-opacity="0.4535332" stroke-linecap="round" stroke-linejoin="round"/>
    <path d="M 481.2834167480469 457.8155517578125 C 541.6611938476562 525.4315185546875 512.909912109375 504.8104248046875 478.9075622558594 498.5240173339844 C 487.5574645996094 501.89068603515625 495.8758850097656 529.6010131835938 423.6146240234375 463.6957702636719" stroke-width="5.417243480682373" fill="none" stroke="rgb(0, 0, 1)" stroke-opacity="1.0" stroke-linecap="round" stroke-linejoin="round"/>
    <path d="M 406.5630187988281 322.7777404785156 C 509.5190734863281 438.1289978027344 409.71728515625 327.2650451660156 468.1292419433594 367.2579650878906 C 471.52880859375 385.1769104003906 524.8472900390625 472.55657958984375 455.9454650878906 394.1143493652344 C 498.07769775390625 470.9764099121094 523.0598754882812 493.6365966796875 403.2641296386719 379.5373229980469" stroke-width="8.721711158752441" fill="none" stroke="rgb(73, 82, 122)" stroke-opacity="0.7300827" stroke-linecap="round" stroke-linejoin="round"/>
    <path d="M 284.83697509765625 241.77517700195312 C 391.12603759765625 317.58905029296875 378.0458984375 266.3217468261719 427.4208068847656 346.06732177734375 C 412.27227783203125 329.18792724609375 406.5758361816406 302.3099060058594 318.344482421875 215.3826446533203" stroke-width="7.70163631439209" fill="none" stroke="rgb(115, 83, 57)" stroke-opacity="0.6356316" stroke-linecap="round" stroke-linejoin="round"/>
    <path d="M 278.2340393066406 336.6164855957031 C 310.6739807128906 300.6153259277344 334.49652099609375 354.195068359375 336.2896728515625 346.50067138671875 C 384.4090576171875 390.7744140625 388.3825988769531 374.242431640625 355.67578125 364.1699523925781 C 422.8379211425781 380.0572814941406 438.69439697265625 378.8861999511719 305.08941650390625 388.8733825683594" stroke-width="2.6503782272338867" fill="none" stroke="rgb(109, 76, 5)" stroke-opacity="1.0" stroke-linecap="round" stroke-linejoin="round"/>
    <path d="M 372.9308776855469 408.5513000488281 C 457.3123474121094 446.3297119140625 461.7397155761719 496.9256896972656 514.5906372070312 510.5633544921875 C 426.2092590332031 428.4026794433594 491.87255859375 484.72857666015625 514.8366088867188 507.9004821777344 C 491.5979919433594 560.0078735351562 509.76409912109375 564.4754638671875 498.9864501953125 587.117919921875" stroke-width="3.0374691486358643" fill="none" stroke="rgb(20, 0, 0)" stroke-opacity="1.0" stroke-linecap="round" stroke-linejoin="round"/>
    <path d="M 510.2464294433594 452.6732177734375 C 466.2991027832031 397.28857421875 476.280029296875 395.04901123046875 402.7630615234375 307.3353271484375" stroke-width="4.656327247619629" fill="none" stroke="rgb(0, 6, 35)" stroke-opacity="1.0" stroke-linecap="round" stroke-linejoin="round"/>
    <path d="M 119.1064224243164 75.14604949951172 C 170.6619873046875 32.16596984863281 108.52667236328125 51.28010559082031 1.1718978881835938 165.69036865234375 C 57.17438888549805 79.1173095703125 -67.26681518554688 -35.190372467041016 26.036611557006836 151.04904174804688" stroke-width="5.156325817108154" fill="none" stroke="rgb(155, 137, 105)" stroke-opacity="0.1564674" stroke-linecap="round" stroke-linejoin="round"/>
    <path d="M 277.20867919921875 328.761474609375 C 171.32684326171875 400.26708984375 165.8610076904297 405.80352783203125 231.42649841308594 359.2834167480469 C 114.738037109375 374.0449523925781 268.8753967285156 394.27349853515625 327.0906982421875 469.807861328125 C 179.18702697753906 485.6719055175781 290.3736877441406 417.41558837890625 145.78082275390625 475.4703369140625" stroke-width="4.5922160148620605" fill="none" stroke="rgb(126, 87, 0)" stroke-opacity="0.65357953" stroke-linecap="round" stroke-linejoin="round"/>
    <path d="M 93.61027526855469 55.21741485595703 C 128.03347778320312 -9.343863487243652 88.52973175048828 81.08666229248047 173.60508728027344 43.62498092651367" stroke-width="8.928221702575684" fill="none" stroke="rgb(251, 255, 249)" stroke-opacity="0.63229746" stroke-linecap="round" stroke-linejoin="round"/>
    <path d="M 21.511491775512695 457.75238037109375 C -28.234657287597656 402.4423522949219 48.872745513916016 418.2724914550781 3.5210986137390137 408.4858093261719 C 40.364540100097656 353.9534912109375 37.73134231567383 322.3010559082031 -8.449823379516602 394.3804931640625" stroke-width="6.78277063369751" fill="none" stroke="rgb(193, 188, 183)" stroke-opacity="0.5537493" stroke-linecap="round" stroke-linejoin="round"/>
    <path d="M 102.14715576171875 142.9043731689453 C 80.5523910522461 215.58607482910156 128.46888732910156 124.7085189819336 14.101099014282227 268.0660705566406" stroke-width="4.326170444488525" fill="none" stroke="rgb(241, 214, 163)" stroke-opacity="1.0" stroke-linecap="round" stroke-linejoin="round"/>
    <path d="M 207.97003173828125 58.79094314575195 C 153.7562713623047 70.93986511230469 215.19049072265625 103.062744140625 103.63934326171875 156.54824829101562 C 144.9139404296875 131.82400512695312 162.80149841308594 81.89593505859375 178.4998779296875 67.25625610351562 C 156.60006713867188 44.69085693359375 286.1288146972656 35.03120422363281 174.77737426757812 22.284025192260742" stroke-width="4.158820152282715" fill="none" stroke="rgb(108, 63, 0)" stroke-opacity="0.27765286" stroke-linecap="round" stroke-linejoin="round"/>
    <path d="M 328.9543762207031 81.08091735839844 C 510.1300964355469 302.5201721191406 442.0623474121094 252.61135864257812 327.927734375 79.44673156738281" stroke-width="3.4789485931396484" fill="none" stroke="rgb(0, 0, 9)" stroke-opacity="1.0" stroke-linecap="round" stroke-linejoin="round"/>
    <path d="M 375.44305419921875 202.19662475585938 C 279.46368408203125 114.19969177246094 289.7722473144531 83.39193725585938 207.80020141601562 46.4139289855957" stroke-width="2.9184632301330566" fill="none" stroke="rgb(23, 0, 0)" stroke-opacity="1.0" stroke-linecap="round" stroke-linejoin="round"/>
    <path d="M 1.0706943273544312 333.2464294433594 C 38.93693542480469 275.7081298828125 -10.014932632446289 333.23016357421875 34.849525451660156 295.5178527832031 C 43.1495246887207 277.1146240234375 56.05331802368164 235.39454650878906 125.96778869628906 226.80210876464844 C 102.45796966552734 199.13143920898438 104.27690887451172 219.08450317382812 36.3658332824707 265.0177001953125" stroke-width="4.3616509437561035" fill="none" stroke="rgb(11, 0, 0)" stroke-opacity="0.534082" stroke-linecap="round" stroke-linejoin="round"/>
    <path d="M 182.0204620361328 279.79986572265625 C 130.77735900878906 285.10546875 216.46498107910156 247.1624298095703 106.43644714355469 286.7343444824219" stroke-width="4.548774719238281" fill="none" stroke="rgb(17, 0, 0)" stroke-opacity="1.0" stroke-linecap="round" stroke-linejoin="round"/>
    <path d="M 37.01214599609375 338.2807922363281 C 191.00120544433594 280.35980224609375 141.99197387695312 306.6399230957031 54.16387176513672 360.8854064941406 C -16.782421112060547 430.1882019042969 -24.01289939880371 447.5821838378906 -5.7540130615234375 381.4264831542969" stroke-width="3.71553111076355" fill="none" stroke="rgb(78, 98, 109)" stroke-opacity="0.85534567" stroke-linecap="round" stroke-linejoin="round"/>
    <path d="M 282.8244323730469 26.09608268737793 C 206.45997619628906 4.680543899536133 291.74945068359375 13.389201164245605 203.60049438476562 13.714631080627441" stroke-width="9.0452299118042" fill="none" stroke="rgb(255, 255, 246)" stroke-opacity="0.8031156" stroke-linecap="round" stroke-linejoin="round"/>
    <path d="M 347.58673095703125 -3.9296963214874268 C 542.17626953125 8.673225402832031 482.83538818359375 -32.74825668334961 491.7242736816406 126.12806701660156" stroke-width="20.787656784057617" fill="none" stroke="rgb(0, 0, 9)" stroke-opacity="0.7728855" stroke-linecap="round" stroke-linejoin="round"/>
    <path d="M 390.3616027832031 52.129966735839844 C 288.2042541503906 45.38168716430664 412.9403381347656 7.082744598388672 465.29302978515625 104.9096450805664" stroke-width="2.0" fill="none" stroke="rgb(0, 32, 49)" stroke-opacity="0.95527923" stroke-linecap="round" stroke-linejoin="round"/>
    <path d="M 196.59466552734375 443.6690368652344 C 151.19525146484375 426.86383056640625 235.31121826171875 493.0463562011719 289.93438720703125 459.5904846191406 C 270.6253356933594 443.4109802246094 242.75228881835938 408.04339599609375 215.25291442871094 422.90948486328125 C 180.00852966308594 385.3841552734375 207.2378387451172 409.7330322265625 252.6348876953125 414.1856994628906" stroke-width="3.122755289077759" fill="none" stroke="rgb(90, 57, 0)" stroke-opacity="0.4772185" stroke-linecap="round" stroke-linejoin="round"/>
    <path d="M 66.9844970703125 5.113718032836914 C 135.83090209960938 65.15797424316406 1.074119210243225 -29.47922134399414 49.084716796875 43.952030181884766 C 72.6234359741211 28.29864501953125 43.51226043701172 46.317535400390625 27.77308464050293 -12.903593063354492" stroke-width="7.232295513153076" fill="none" stroke="rgb(241, 231, 238)" stroke-opacity="0.41523138" stroke-linecap="round" stroke-linejoin="round"/>
    <path d="M 232.5638427734375 333.16363525390625 C 69.0577621459961 437.9056396484375 131.7375030517578 411.07257080078125 169.01531982421875 390.861083984375 C 166.6840362548828 376.5611877441406 143.2602996826172 415.17333984375 305.7119140625 289.46734619140625 C 300.8485107421875 337.95654296875 154.41172790527344 372.28509521484375 307.94415283203125 279.0411682128906" stroke-width="5.834711074829102" fill="none" stroke="rgb(244, 204, 141)" stroke-opacity="0.8874292" stroke-linecap="round" stroke-linejoin="round"/>
    <path d="M 341.486328125 205.6536407470703 C 447.922607421875 309.7176208496094 422.85931396484375 336.84619140625 476.7104797363281 270.38201904296875" stroke-width="2.380307674407959" fill="none" stroke="rgb(0, 24, 32)" stroke-opacity="0.9914346" stroke-linecap="round" stroke-linejoin="round"/>
    <path d="M 80.71749877929688 89.30667877197266 C 155.56912231445312 75.55005645751953 66.69808959960938 75.29214477539062 -7.922098159790039 232.7462158203125" stroke-width="8.035764694213867" fill="none" stroke="rgb(209, 166, 112)" stroke-opacity="0.28424364" stroke-linecap="round" stroke-linejoin="round"/>
    <path d="M 280.3677978515625 383.65521240234375 C 373.9370422363281 434.9998779296875 315.9839782714844 445.9853820800781 238.49867248535156 351.15948486328125 C 398.2436828613281 441.5753479003906 368.7107238769531 385.7388000488281 372.3529968261719 398.6993713378906 C 440.4126281738281 394.1068420410156 400.693603515625 366.1726379394531 472.5257873535156 433.0579833984375" stroke-width="3.133389711380005" fill="none" stroke="rgb(145, 144, 135)" stroke-opacity="1.0" stroke-linecap="round" stroke-linejoin="round"/>
    <path d="M 186.51148986816406 464.4422302246094 C 49.597652435302734 501.0836486816406 -47.541988372802734 461.31976318359375 39.31166458129883 475.3086242675781 C 165.07432556152344 469.3550109863281 72.7979736328125 477.0628356933594 33.872615814208984 454.3961181640625 C -19.197664260864258 388.4949645996094 27.265628814697266 411.4825744628906 89.93099212646484 378.6116027832031" stroke-width="4.825805187225342" fill="none" stroke="rgb(73, 48, 21)" stroke-opacity="0.38491163" stroke-linecap="round" stroke-linejoin="round"/>
    <path d="M 434.626220703125 213.22030639648438 C 509.2899475097656 302.69757080078125 460.4466247558594 234.47715759277344 436.45660400390625 215.3421630859375 C 453.8248596191406 274.4608459472656 504.5718078613281 258.66571044921875 432.8398742675781 298.0056457519531 C 492.3974304199219 308.69915771484375 409.7560729980469 312.59588623046875 465.7079162597656 285.3172302246094" stroke-width="4.09134578704834" fill="none" stroke="rgb(0, 0, 24)" stroke-opacity="1.0" stroke-linecap="round" stroke-linejoin="round"/>
    <path d="M 211.30055236816406 467.25811767578125 C 319.5111999511719 511.975341796875 288.97418212890625 492.4277648925781 261.5233459472656 472.8277893066406 C 271.9403991699219 482.9361877441406 292.2129211425781 444.62164306640625 357.93017578125 502.40069580078125" stroke-width="6.629633903503418" fill="none" stroke="rgb(60, 65, 57)" stroke-opacity="0.9889685" stroke-linecap="round" stroke-linejoin="round"/>
    <path d="M 494.6581726074219 255.930908203125 C 508.6533203125 317.21954345703125 440.4390563964844 296.7295227050781 489.2471923828125 371.209228515625 C 465.7686767578125 308.5840759277344 493.1278991699219 254.81773376464844 495.6905822753906 342.8741760253906" stroke-width="13.776277542114258" fill="none" stroke="rgb(0, 7, 11)" stroke-opacity="0.8995661" stroke-linecap="round" stroke-linejoin="round"/>
    <path d="M 417.086669921875 40.605403900146484 C 467.8788757324219 34.71400451660156 471.5761413574219 77.95441436767578 505.9443664550781 123.80449676513672" stroke-width="4.000615119934082" fill="none" stroke="rgb(0, 0, 7)" stroke-opacity="0.8989904" stroke-linecap="round" stroke-linejoin="round"/>
    <path d="M 210.2423858642578 82.1114730834961 C 345.6039733886719 206.7271728515625 300.43341064453125 249.442626953125 380.99676513671875 292.80584716796875 C 319.3783264160156 230.12632751464844 287.3065185546875 191.1876220703125 267.0848693847656 184.50894165039062 C 345.3902587890625 262.6883850097656 375.1802673339844 292.045166015625 268.1297607421875 207.0565948486328" stroke-width="3.1662654876708984" fill="none" stroke="rgb(27, 0, 0)" stroke-opacity="1.0" stroke-linecap="round" stroke-linejoin="round"/>
    <path d="M 265.743896484375 213.9525909423828 C 361.6100769042969 316.16229248046875 336.1678466796875 276.82421875 219.31788635253906 190.64956665039062 C 147.30087280273438 225.74264526367188 210.5849151611328 136.82357788085938 196.33200073242188 220.59539794921875 C 131.62388610839844 184.62095642089844 301.18365478515625 184.11129760742188 174.3064727783203 174.79501342773438" stroke-width="6.133086681365967" fill="none" stroke="rgb(194, 186, 170)" stroke-opacity="0.8415622" stroke-linecap="round" stroke-linejoin="round"/>
    <path d="M 28.44338035583496 292.4146728515625 C 195.31500244140625 171.75704956054688 74.39287567138672 235.7155303955078 116.467041015625 219.9016571044922" stroke-width="4.157098293304443" fill="none" stroke="rgb(10, 0, 0)" stroke-opacity="1.0" stroke-linecap="round" stroke-linejoin="round"/>
    <path d="M 223.92953491210938 48.67001724243164 C 203.11886596679688 48.4034309387207 228.9568328857422 -11.97524642944336 73.1142349243164 116.66261291503906 C 135.48529052734375 76.92109680175781 97.43352508544922 128.22743225097656 38.21599578857422 163.95843505859375" stroke-width="4.697240829467773" fill="none" stroke="rgb(153, 87, 0)" stroke-opacity="0.40658468" stroke-linecap="round" stroke-linejoin="round"/>
    <path d="M 317.43438720703125 106.18779754638672 C 322.4070739746094 111.8256607055664 341.2416687011719 134.45492553710938 355.4060363769531 146.56507873535156 C 317.8584899902344 116.20951843261719 410.7607421875 189.766845703125 347.7156677246094 157.3300323486328 C 373.37493896484375 201.7218780517578 326.5691223144531 134.31277465820312 250.4901580810547 52.735618591308594" stroke-width="6.228312015533447" fill="none" stroke="rgb(128, 104, 99)" stroke-opacity="0.84817886" stroke-linecap="round" stroke-linejoin="round"/>
    <path d="M 294.0552673339844 161.01531982421875 C 179.173095703125 9.603296279907227 174.7248077392578 42.00746154785156 191.7952880859375 34.034732818603516 C 182.66915893554688 50.14448165893555 184.98980712890625 3.7097079753875732 228.4324493408203 79.50755310058594" stroke-width="5.7435173988342285" fill="none" stroke="rgb(128, 69, 0)" stroke-opacity="0.3966671" stroke-linecap="round" stroke-linejoin="round"/>
    <path d="M 238.69322204589844 31.0933895111084 C 348.23590087890625 140.40113830566406 327.59454345703125 131.27333068847656 299.4469909667969 54.86320495605469 C 306.677001953125 66.16255950927734 281.2308654785156 34.05863571166992 310.2137451171875 71.39375305175781 C 393.86669921875 185.24331665039062 447.004638671875 197.8299102783203 296.333251953125 34.11061096191406" stroke-width="3.5419669151306152" fill="none" stroke="rgb(31, 10, 0)" stroke-opacity="0.53020215" stroke-linecap="round" stroke-linejoin="round"/>
    <path d="M 244.01861572265625 80.0536117553711 C 343.4427185058594 189.28318786621094 333.6123352050781 182.0068817138672 370.8290100097656 224.8617401123047 C 308.1636962890625 167.57254028320312 326.8901672363281 189.94480895996094 386.26910400390625 233.91883850097656 C 352.0486755371094 201.7479705810547 328.8417663574219 150.74644470214844 428.52197265625 270.027099609375" stroke-width="3.550320863723755" fill="none" stroke="rgb(4, 0, 8)" stroke-opacity="1.0" stroke-linecap="round" stroke-linejoin="round"/>
    <path d="M 236.54214477539062 245.36326599121094 C 128.84690856933594 334.9584655761719 110.39494323730469 289.47222900390625 201.7505645751953 263.87310791015625 C 129.50869750976562 306.7000427246094 165.0433349609375 290.7174987792969 81.52552795410156 310.1757507324219" stroke-width="4.402244567871094" fill="none" stroke="rgb(0, 0, 62)" stroke-opacity="1.0" stroke-linecap="round" stroke-linejoin="round"/>
    <path d="M 118.40731811523438 204.55470275878906 C 157.4425811767578 248.5367889404297 208.38919067382812 290.71954345703125 170.3946533203125 276.7978515625 C 75.75109100341797 288.1941223144531 138.5364227294922 327.8108215332031 181.67694091796875 279.36578369140625" stroke-width="3.4519801139831543" fill="none" stroke="rgb(38, 0, 0)" stroke-opacity="0.9579431" stroke-linecap="round" stroke-linejoin="round"/>
    <path d="M 355.929931640625 474.12249755859375 C 174.10008239746094 391.9732666015625 377.49151611328125 278.41094970703125 244.35568237304688 381.2474670410156 C 164.6216278076172 365.6683349609375 236.29803466796875 425.1629333496094 346.1078186035156 427.9045715332031" stroke-width="6.514526844024658" fill="none" stroke="rgb(211, 207, 189)" stroke-opacity="0.6081199" stroke-linecap="round" stroke-linejoin="round"/>
    <path d="M 28.819841384887695 370.86285400390625 C 91.25468444824219 324.281005859375 43.118690490722656 375.77301025390625 84.99286651611328 325.78070068359375 C 58.244834899902344 359.7339172363281 93.4162826538086 329.1489562988281 156.5852813720703 284.6996765136719" stroke-width="4.746700286865234" fill="none" stroke="rgb(0, 0, 6)" stroke-opacity="1.0" stroke-linecap="round" stroke-linejoin="round"/>
    <path d="M 236.54571533203125 235.38262939453125 C 183.72103881835938 282.79815673828125 161.7333984375 274.3264465332031 215.84288024902344 254.75433349609375" stroke-width="5.676905632019043" fill="none" stroke="rgb(0, 0, 24)" stroke-opacity="1.0" stroke-linecap="round" stroke-linejoin="round"/>
    <path d="M 82.8967514038086 159.45079040527344 C 74.50801849365234 172.770263671875 28.6303653717041 192.8026580810547 64.59291076660156 164.30715942382812" stroke-width="4.537931442260742" fill="none" stroke="rgb(11, 0, 0)" stroke-opacity="1.0" stroke-linecap="round" stroke-linejoin="round"/>
    <path d="M 284.2768859863281 331.1889953613281 C 420.7313232421875 393.98486328125 359.5018005371094 388.33953857421875 302.5879821777344 400.340576171875 C 485.31280517578125 381.7809753417969 459.8338317871094 355.0974426269531 354.1128845214844 405.2024841308594 C 602.8637084960938 580.5178833007812 459.39031982421875 445.5108947753906 384.47406005859375 399.8802185058594" stroke-width="8.954072952270508" fill="none" stroke="rgb(30, 6, 0)" stroke-opacity="0.42334116" stroke-linecap="round" stroke-linejoin="round"/>
    <path d="M 310.34234619140625 25.817798614501953 C 363.7154235839844 56.10054397583008 383.8909912109375 93.04277038574219 318.264404296875 36.875274658203125" stroke-width="2.428429365158081" fill="none" stroke="rgb(22, 0, 0)" stroke-opacity="0.5537658" stroke-linecap="round" stroke-linejoin="round"/>
    <path d="M 499.2451477050781 371.1624450683594 C 409.8394775390625 336.43896484375 510.7984619140625 273.0089416503906 475.5147705078125 314.75689697265625 C 435.402587890625 320.92059326171875 461.9057922363281 387.10076904296875 493.1881408691406 264.73553466796875" stroke-width="3.910479784011841" fill="none" stroke="rgb(58, 52, 63)" stroke-opacity="0.98386586" stroke-linecap="round" stroke-linejoin="round"/>
    <path d="M 87.77594757080078 308.72265625 C 29.523591995239258 338.8500061035156 89.87935638427734 325.27044677734375 166.72340393066406 270.44183349609375 C 123.34654998779297 237.50457763671875 129.17803955078125 255.25979614257812 172.43829345703125 270.0387268066406" stroke-width="4.155080318450928" fill="none" stroke="rgb(5, 0, 13)" stroke-opacity="1.0" stroke-linecap="round" stroke-linejoin="round"/>
    <path d="M 477.5639343261719 276.1563720703125 C 533.34130859375 226.79534912109375 552.5255737304688 215.8664093017578 500.95904541015625 275.02374267578125 C 564.2750854492188 202.05267333984375 470.00347900390625 243.0803680419922 487.53973388671875 274.830078125 C 537.212158203125 218.17250061035156 483.1874084472656 260.7890319824219 468.19659423828125 238.60678100585938" stroke-width="5.234785556793213" fill="none" stroke="rgb(0, 0, 0)" stroke-opacity="1.0" stroke-linecap="round" stroke-linejoin="round"/>
    <path d="M 375.9830322265625 191.97158813476562 C 368.4352111816406 132.53790283203125 395.380859375 219.5347442626953 353.4761962890625 170.66000366210938" stroke-width="2.751265287399292" fill="none" stroke="rgb(255, 145, 0)" stroke-opacity="0.24303314" stroke-linecap="round" stroke-linejoin="round"/>
    <path d="M 257.60418701171875 334.32891845703125 C 118.92018127441406 429.0381774902344 195.13136291503906 374.5897216796875 179.78504943847656 384.60430908203125 C 178.29937744140625 396.5209655761719 315.91680908203125 413.36871337890625 245.95506286621094 482.8545837402344 C 283.64727783203125 416.51336669921875 268.8827209472656 452.5307922363281 327.68817138671875 477.740234375" stroke-width="5.223118305206299" fill="none" stroke="rgb(123, 81, 12)" stroke-opacity="0.53263855" stroke-linecap="round" stroke-linejoin="round"/>
    <path d="M 408.2635803222656 394.1033935546875 C 238.59146118164062 416.388916015625 418.708984375 414.9186706542969 453.21441650390625 380.3319396972656 C 245.07579040527344 428.4677429199219 231.37933349609375 386.07623291015625 348.23199462890625 425.7098083496094 C 412.16522216796875 539.3424682617188 503.306396484375 467.7935791015625 309.6844177246094 411.2039489746094" stroke-width="4.389891624450684" fill="none" stroke="rgb(0, 14, 19)" stroke-opacity="0.42857662" stroke-linecap="round" stroke-linejoin="round"/>
    <path d="M 253.85006713867188 250.0302734375 C 134.9449005126953 348.3369445800781 157.9185028076172 311.6980285644531 164.06919860839844 315.3765869140625 C 26.773908615112305 392.6657409667969 -0.7043420672416687 378.0250244140625 -5.56222677230835 416.6298828125" stroke-width="4.270874977111816" fill="none" stroke="rgb(194, 103, 7)" stroke-opacity="0.35616732" stroke-linecap="round" stroke-linejoin="round"/>
    <path d="M 396.52947998046875 69.57923889160156 C 497.20159912109375 173.7740936279297 513.249267578125 237.14553833007812 509.27862548828125 157.05223083496094 C 428.0333557128906 118.03803253173828 429.75115966796875 50.16753005981445 364.3774108886719 49.49745178222656" stroke-width="4.189708709716797" fill="none" stroke="rgb(38, 0, 0)" stroke-opacity="0.5989717" stroke-linecap="round" stroke-linejoin="round"/>
    <path d="M 465.6258544921875 208.98660278320312 C 492.23370361328125 219.5211944580078 486.1321716308594 199.55575561523438 501.85760498046875 190.75241088867188 C 484.40960693359375 213.18234252929688 428.7898254394531 255.78611755371094 476.0494689941406 249.72650146484375" stroke-width="10.0566987991333" fill="none" stroke="rgb(61, 73, 105)" stroke-opacity="0.63329935" stroke-linecap="round" stroke-linejoin="round"/>
    <path d="M 32.3904914855957 341.59661865234375 C 137.83871459960938 223.9332275390625 184.77735900878906 240.3330078125 113.62911224365234 195.9069366455078" stroke-width="4.672417640686035" fill="none" stroke="rgb(193, 182, 187)" stroke-opacity="0.66446257" stroke-linecap="round" stroke-linejoin="round"/>
    <path d="M 502.330810546875 93.18303680419922 C 430.15838623046875 2.431593656539917 541.3430786132812 13.317153930664062 407.4120788574219 43.342124938964844 C 433.17822265625 21.777048110961914 454.70263671875 65.4061050415039 496.0248718261719 135.52658081054688" stroke-width="13.25981616973877" fill="none" stroke="rgb(0, 0, 8)" stroke-opacity="0.46348193" stroke-linecap="round" stroke-linejoin="round"/>
    <path d="M 276.8215026855469 259.80401611328125 C 362.0464782714844 339.6224365234375 351.4642028808594 280.3520812988281 273.4707336425781 317.6235656738281" stroke-width="3.3511054515838623" fill="none" stroke="rgb(184, 143, 78)" stroke-opacity="1.0" stroke-linecap="round" stroke-linejoin="round"/>
    <path d="M 449.52734375 368.7727355957031 C 467.0599365234375 374.2236022949219 473.83404541015625 384.925537109375 502.63690185546875 435.1495666503906" stroke-width="3.51743483543396" fill="none" stroke="rgb(8, 0, 21)" stroke-opacity="1.0" stroke-linecap="round" stroke-linejoin="round"/>
    <path d="M 182.33572387695312 394.8108215332031 C 519.47119140625 523.6840209960938 411.8302917480469 532.8322143554688 231.7772979736328 439.15478515625" stroke-width="3.9844412803649902" fill="none" stroke="rgb(27, 0, 0)" stroke-opacity="1.0" stroke-linecap="round" stroke-linejoin="round"/>
    <path d="M 28.173269271850586 143.2803192138672 C 21.4136962890625 27.74281120300293 52.60502243041992 89.17057037353516 29.83807373046875 26.71402359008789" stroke-width="6.8240966796875" fill="none" stroke="rgb(91, 76, 74)" stroke-opacity="0.1613266" stroke-linecap="round" stroke-linejoin="round"/>
    <path d="M 364.2883605957031 166.9344024658203 C 404.5310363769531 209.06753540039062 420.0770263671875 222.35838317871094 460.7154846191406 288.6838073730469 C 453.18408203125 237.5860137939453 450.8627014160156 305.8921813964844 490.0672302246094 243.63169860839844 C 397.88360595703125 141.20938110351562 376.9231262207031 97.57196807861328 334.1148376464844 56.928218841552734" stroke-width="4.013433933258057" fill="none" stroke="rgb(5, 0, 15)" stroke-opacity="1.0" stroke-linecap="round" stroke-linejoin="round"/>
    <path d="M 515.7057495117188 219.70037841796875 C 434.4868469238281 263.0577087402344 477.9510803222656 301.725341796875 485.0062255859375 235.19970703125 C 476.5065612792969 297.0174560546875 467.7562561035156 271.4192199707031 498.9426574707031 277.03765869140625 C 416.35272216796875 310.234130859375 450.796875 344.5884094238281 485.89984130859375 278.6573181152344" stroke-width="8.456392288208008" fill="none" stroke="rgb(0, 0, 8)" stroke-opacity="0.6247658" stroke-linecap="round" stroke-linejoin="round"/>
    <path d="M 419.5744934082031 300.24346923828125 C 471.76153564453125 370.3277587890625 516.7329711914062 413.714111328125 437.5160217285156 312.2587890625" stroke-width="3.1536192893981934" fill="none" stroke="rgb(36, 73, 111)" stroke-opacity="1.0" stroke-linecap="round" stroke-linejoin="round"/>
    <path d="M 418.48077392578125 496.40740966796875 C 299.9136657714844 480.6003723144531 188.0221405029297 516.8762817382812 208.7755126953125 495.8377990722656" stroke-width="16.380844116210938" fill="none" stroke="rgb(0, 0, 0)" stroke-opacity="0.7994003" stroke-linecap="round" stroke-linejoin="round"/>
    <path d="M 323.8622741699219 -10.444966316223145 C 264.0753173828125 -13.251608848571777 328.1195068359375 19.102174758911133 390.9917907714844 -11.562792778015137" stroke-width="8.793869972229004" fill="none" stroke="rgb(2, 21, 19)" stroke-opacity="0.92413837" stroke-linecap="round" stroke-linejoin="round"/>
    <path d="M 369.3986511230469 170.75315856933594 C 351.717529296875 158.76873779296875 334.83111572265625 147.3784637451172 269.3930358886719 62.74629211425781" stroke-width="3.864271640777588" fill="none" stroke="rgb(0, 0, 11)" stroke-opacity="1.0" stroke-linecap="round" stroke-linejoin="round"/>
    <path d="M 109.45311737060547 249.96246337890625 C 145.72845458984375 218.87155151367188 126.42273712158203 269.18597412109375 206.377685546875 264.2432556152344" stroke-width="2.2331981658935547" fill="none" stroke="rgb(132, 98, 69)" stroke-opacity="0.67125213" stroke-linecap="round" stroke-linejoin="round"/>
    <path d="M 189.36399841308594 461.19586181640625 C 202.46617126464844 471.55633544921875 195.35226440429688 440.58544921875 234.45233154296875 474.5915832519531 C 235.7452392578125 512.38330078125 153.49374389648438 435.4667053222656 101.4706802368164 503.7547607421875" stroke-width="5.419029712677002" fill="none" stroke="rgb(22, 0, 0)" stroke-opacity="0.73532856" stroke-linecap="round" stroke-linejoin="round"/>
    <path d="M 157.92330932617188 139.05812072753906 C 233.64303588867188 88.98124694824219 245.82785034179688 213.7005615234375 317.2967834472656 221.8685760498047 C 282.08465576171875 162.7234649658203 328.0600280761719 227.052001953125 214.666748046875 87.01465606689453 C 230.37266540527344 75.02666473388672 286.709716796875 168.22360229492188 414.8868103027344 302.2216491699219" stroke-width="3.38177752494812" fill="none" stroke="rgb(22, 0, 0)" stroke-opacity="1.0" stroke-linecap="round" stroke-linejoin="round"/>
    <path d="M 340.9523010253906 36.85759735107422 C 422.6266174316406 15.282694816589355 478.9718322753906 2.637242317199707 461.4042053222656 92.66727447509766 C 438.23187255859375 17.90616226196289 294.8346862792969 33.99203872680664 499.1753845214844 10.918442726135254" stroke-width="6.505239963531494" fill="none" stroke="rgb(11, 0, 4)" stroke-opacity="0.3267986" stroke-linecap="round" stroke-linejoin="round"/>
    <path d="M 313.91461181640625 319.37823486328125 C 297.8100280761719 323.1535949707031 276.8318176269531 312.6820373535156 306.6571044921875 317.6860656738281 C 276.8345947265625 364.35986328125 245.34689331054688 333.3551940917969 216.53973388671875 380.48736572265625 C 326.5078125 460.05206298828125 377.0789794921875 485.3834228515625 239.67552185058594 370.0355224609375" stroke-width="3.918682098388672" fill="none" stroke="rgb(94, 51, 0)" stroke-opacity="0.5809132" stroke-linecap="round" stroke-linejoin="round"/>
    <path d="M 72.8614273071289 29.923370361328125 C 186.47088623046875 11.806378364562988 220.09713745117188 0.4066133499145508 273.1683654785156 48.706153869628906" stroke-width="2.2746589183807373" fill="none" stroke="rgb(160, 105, 69)" stroke-opacity="0.18220463" stroke-linecap="round" stroke-linejoin="round"/>
    <path d="M 20.11220932006836 383.2816467285156 C 64.359619140625 360.3980407714844 37.128013610839844 356.86981201171875 60.1532096862793 343.0302734375 C 226.6436767578125 214.19154357910156 133.3120880126953 239.96482849121094 24.814014434814453 372.1019592285156" stroke-width="5.930930137634277" fill="none" stroke="rgb(133, 145, 177)" stroke-opacity="1.0" stroke-linecap="round" stroke-linejoin="round"/>
    <path d="M 149.71173095703125 262.3489990234375 C 98.98886108398438 214.36306762695312 27.32421112060547 304.2849426269531 3.3207502365112305 341.59619140625 C 42.931697845458984 480.78729248046875 -94.6844711303711 394.4613037109375 96.27654266357422 269.61151123046875" stroke-width="6.284512519836426" fill="none" stroke="rgb(181, 128, 70)" stroke-opacity="0.3585375" stroke-linecap="round" stroke-linejoin="round"/>
    <path d="M 197.48486328125 17.23357391357422 C 268.6637878417969 25.88538360595703 304.9520263671875 84.92214965820312 251.3455810546875 21.507610321044922 C 263.30682373046875 33.98103332519531 269.0697937011719 44.65656280517578 295.354736328125 67.75121307373047" stroke-width="4.773275852203369" fill="none" stroke="rgb(208, 201, 182)" stroke-opacity="1.0" stroke-linecap="round" stroke-linejoin="round"/>
    <path d="M -2.983182430267334 273.0717468261719 C 40.8365364074707 139.2872772216797 51.79446029663086 176.4718780517578 44.86805725097656 179.2777557373047 C 79.95122528076172 122.04209899902344 61.06937026977539 164.491455078125 10.539030075073242 255.70111083984375 C 13.007892608642578 290.6494140625 25.836688995361328 248.9487762451172 -6.654603481292725 316.5447692871094" stroke-width="5.275848388671875" fill="none" stroke="rgb(150, 137, 124)" stroke-opacity="0.5554444" stroke-linecap="round" stroke-linejoin="round"/>
    <path d="M 335.93914794921875 405.25665283203125 C 518.430419921875 440.5059509277344 409.0728454589844 386.9202575683594 307.26690673828125 352.9999084472656" stroke-width="3.6942648887634277" fill="none" stroke="rgb(0, 0, 0)" stroke-opacity="0.37265795" stroke-linecap="round" stroke-linejoin="round"/>
    <path d="M 502.30267333984375 198.1489715576172 C 467.75970458984375 90.15935516357422 509.597900390625 180.1020965576172 496.2131652832031 132.4594268798828 C 467.3287048339844 192.83636474609375 535.5291137695312 273.6393127441406 483.394775390625 338.4607238769531" stroke-width="15.957682609558105" fill="none" stroke="rgb(0, 0, 0)" stroke-opacity="0.7728213" stroke-linecap="round" stroke-linejoin="round"/>
    <path d="M 139.8387908935547 172.3375701904297 C 323.9579162597656 304.8672180175781 171.28929138183594 252.94537353515625 109.609375 152.0192413330078 C 164.14727783203125 65.51934814453125 132.51177978515625 105.22834777832031 108.12857055664062 122.01432037353516 C 91.07225036621094 124.71217346191406 105.49971771240234 128.82464599609375 79.21935272216797 137.58416748046875" stroke-width="3.7960803508758545" fill="none" stroke="rgb(42, 5, 0)" stroke-opacity="0.71748346" stroke-linecap="round" stroke-linejoin="round"/>
    <path d="M 517.6283569335938 247.85317993164062 C 468.4496154785156 260.13067626953125 493.4454040527344 245.41885375976562 455.26727294921875 319.71636962890625" stroke-width="5.427480220794678" fill="none" stroke="rgb(21, 0, 40)" stroke-opacity="0.57804954" stroke-linecap="round" stroke-linejoin="round"/>
    <path d="M 278.0423889160156 242.97520446777344 C 338.4372863769531 308.25897216796875 357.0475158691406 312.8743591308594 311.9563293457031 282.20947265625 C 381.4741516113281 337.3379211425781 349.15545654296875 305.2514343261719 319.51123046875 287.48699951171875 C 343.45654296875 242.7091827392578 382.03759765625 317.05084228515625 279.9282531738281 209.54981994628906" stroke-width="9.832792282104492" fill="none" stroke="rgb(151, 133, 110)" stroke-opacity="1.0" stroke-linecap="round" stroke-linejoin="round"/>
    <path d="M 105.933349609375 403.80511474609375 C 172.28012084960938 420.4662170410156 228.22018432617188 377.1544189453125 170.05113220214844 399.75140380859375 C 246.08126831054688 431.00921630859375 303.48046875 465.2602844238281 126.13410186767578 406.9460754394531" stroke-width="6.565722465515137" fill="none" stroke="rgb(217, 197, 141)" stroke-opacity="0.65081006" stroke-linecap="round" stroke-linejoin="round"/>
    <path d="M 99.2936782836914 139.04757690429688 C 46.46457290649414 177.51394653320312 10.549995422363281 264.3836364746094 77.57803344726562 167.7700653076172 C 100.19166564941406 159.0374298095703 137.4016571044922 219.0000457763672 79.32665252685547 172.11123657226562 C 129.45440673828125 223.3632049560547 88.92914581298828 188.50137329101562 171.8777618408203 268.0849609375" stroke-width="4.076990127563477" fill="none" stroke="rgb(22, 8, 0)" stroke-opacity="0.5859809" stroke-linecap="round" stroke-linejoin="round"/>
    <path d="M 325.2044372558594 16.688671112060547 C 363.3706970214844 39.39713668823242 372.1768798828125 11.777823448181152 347.72015380859375 82.2932357788086" stroke-width="4.666325092315674" fill="none" stroke="rgb(69, 63, 62)" stroke-opacity="0.3158821" stroke-linecap="round" stroke-linejoin="round"/>
    <path d="M 114.00199890136719 170.4440460205078 C 236.30601501464844 301.6383972167969 222.81410217285156 244.42457580566406 122.99221801757812 326.5457458496094" stroke-width="3.7049078941345215" fill="none" stroke="rgb(0, 0, 13)" stroke-opacity="1.0" stroke-linecap="round" stroke-linejoin="round"/>
    <path d="M 12.510591506958008 290.8677062988281 C 146.6097869873047 119.51090240478516 126.13406372070312 200.7169952392578 85.588623046875 157.44097900390625 C 178.23272705078125 217.1032257080078 72.3803482055664 173.6857452392578 123.49211883544922 123.3260269165039" stroke-width="6.194005966186523" fill="none" stroke="rgb(109, 57, 0)" stroke-opacity="0.2942286" stroke-linecap="round" stroke-linejoin="round"/>
    <path d="M 167.59774780273438 156.30934143066406 C 141.50564575195312 188.38461303710938 73.6922836303711 164.56472778320312 176.98345947265625 69.6541748046875 C 166.857666015625 62.74950408935547 155.77536010742188 77.87694549560547 100.723388671875 149.846923828125" stroke-width="4.2735276222229" fill="none" stroke="rgb(0, 11, 43)" stroke-opacity="0.496739" stroke-linecap="round" stroke-linejoin="round"/>
    <path d="M 501.5681457519531 222.3770294189453 C 356.8076477050781 109.51517486572266 387.8081970214844 133.738525390625 476.2445068359375 240.1898956298828 C 508.82525634765625 206.2617950439453 451.8537902832031 175.95806884765625 387.43878173828125 85.39836883544922" stroke-width="4.676169395446777" fill="none" stroke="rgb(0, 28, 64)" stroke-opacity="0.715154" stroke-linecap="round" stroke-linejoin="round"/>
    <path d="M 110.88884735107422 366.6208801269531 C -14.793200492858887 472.2046203613281 42.398109436035156 383.7174072265625 90.20902252197266 418.5125427246094 C 57.2616081237793 399.2407531738281 85.21929931640625 392.46795654296875 121.2013168334961 402.11517333984375 C 59.61532974243164 419.59722900390625 68.53206634521484 406.7760009765625 166.50901794433594 328.678466796875" stroke-width="4.5564727783203125" fill="none" stroke="rgb(35, 17, 0)" stroke-opacity="0.28731832" stroke-linecap="round" stroke-linejoin="round"/>
    <path d="M 221.6085968017578 53.931732177734375 C 118.8057632446289 20.330276489257812 159.67945861816406 9.25163745880127 49.503875732421875 72.66767120361328" stroke-width="7.501354217529297" fill="none" stroke="rgb(94, 44, 0)" stroke-opacity="0.064515956" stroke-linecap="round" stroke-linejoin="round"/>
    <path d="M 216.54234313964844 448.1012878417969 C 68.75890350341797 394.4202880859375 23.272789001464844 382.381591796875 217.64573669433594 465.5907897949219 C -43.45732116699219 376.0953063964844 52.30570983886719 435.23193359375 62.14160919189453 391.35662841796875 C 8.198224067687988 397.22174072265625 45.36795425415039 412.4746398925781 98.09098052978516 332.1021423339844" stroke-width="4.012838840484619" fill="none" stroke="rgb(155, 100, 0)" stroke-opacity="0.4378028" stroke-linecap="round" stroke-linejoin="round"/>
    <path d="M 293.9395446777344 219.23081970214844 C 181.34034729003906 117.85838317871094 285.0134582519531 243.24317932128906 371.5271911621094 223.57308959960938" stroke-width="2.0" fill="none" stroke="rgb(86, 56, 0)" stroke-opacity="0.64936846" stroke-linecap="round" stroke-linejoin="round"/>
    <path d="M 24.22296905517578 158.13975524902344 C 45.556373596191406 35.87234115600586 39.97962951660156 97.83899688720703 4.8921003341674805 4.286582946777344 C 115.57772064208984 69.65548706054688 -30.876811981201172 124.16846466064453 137.58644104003906 -5.6383442878723145" stroke-width="5.606117248535156" fill="none" stroke="rgb(218, 204, 204)" stroke-opacity="0.2892844" stroke-linecap="round" stroke-linejoin="round"/>
    <path d="M 270.2304382324219 1.5403913259506226 C 327.9011535644531 -5.568300724029541 305.9915771484375 13.243902206420898 323.2635803222656 6.2863569259643555 C 367.52020263671875 -26.55745506286621 354.386474609375 11.036599159240723 330.77142333984375 8.687045097351074 C 352.02734375 8.46972370147705 285.7392883300781 9.019366264343262 249.06192016601562 -10.155997276306152" stroke-width="5.465140342712402" fill="none" stroke="rgb(20, 0, 3)" stroke-opacity="0.6493485" stroke-linecap="round" stroke-linejoin="round"/>
    <path d="M 134.74559020996094 254.72523498535156 C 91.38017272949219 305.85430908203125 10.25217056274414 285.45379638671875 96.06838989257812 292.7395324707031 C 57.10418701171875 310.3508605957031 35.774906158447266 362.3664245605469 -32.8681640625 408.24749755859375" stroke-width="4.992280006408691" fill="none" stroke="rgb(16, 0, 4)" stroke-opacity="0.2813193" stroke-linecap="round" stroke-linejoin="round"/>
    <path d="M 282.7127990722656 244.59674072265625 C 396.0077209472656 324.1853942871094 398.3094177246094 333.4836730957031 296.2917785644531 220.76837158203125" stroke-width="3.7880547046661377" fill="none" stroke="rgb(13, 0, 9)" stroke-opacity="1.0" stroke-linecap="round" stroke-linejoin="round"/>
    <path d="M 286.78070068359375 273.93023681640625 C 270.815185546875 279.35528564453125 272.6717529296875 287.88336181640625 102.32471466064453 399.27734375" stroke-width="4.58031702041626" fill="none" stroke="rgb(8, 0, 4)" stroke-opacity="1.0" stroke-linecap="round" stroke-linejoin="round"/>
    <path d="M 396.34259033203125 363.2636413574219 C 385.5579528808594 362.8470458984375 395.42266845703125 357.0459899902344 417.3023681640625 379.2840576171875 C 462.8023986816406 408.2611999511719 411.4902648925781 390.7649230957031 392.3656005859375 377.6641540527344 C 346.7290344238281 374.1269226074219 370.9159851074219 394.85247802734375 311.5028381347656 345.47906494140625" stroke-width="3.62164306640625" fill="none" stroke="rgb(19, 0, 0)" stroke-opacity="1.0" stroke-linecap="round" stroke-linejoin="round"/>
    <path d="M 397.0851745605469 86.9405288696289 C 489.2790222167969 212.51028442382812 504.7862854003906 181.8699951171875 509.3905029296875 227.83901977539062 C 514.982421875 197.93431091308594 519.27685546875 198.2237091064453 417.4072570800781 81.17301940917969" stroke-width="3.739820718765259" fill="none" stroke="rgb(3, 0, 4)" stroke-opacity="1.0" stroke-linecap="round" stroke-linejoin="round"/>
    <path d="M 140.2353973388672 166.72012329101562 C 227.22802734375 109.08751678466797 95.95286560058594 155.84835815429688 171.60877990722656 188.3341064453125 C 305.1400146484375 272.82354736328125 124.98611450195312 203.6890106201172 114.8021011352539 138.32138061523438 C 94.48695373535156 158.3011016845703 207.88653564453125 263.10870361328125 224.77059936523438 222.74801635742188" stroke-width="3.6015634536743164" fill="none" stroke="rgb(21, 8, 0)" stroke-opacity="0.3927038" stroke-linecap="round" stroke-linejoin="round"/>
    <path d="M 345.8623352050781 237.7249298095703 C 320.2520446777344 217.05441284179688 332.13507080078125 240.79039001464844 204.34478759765625 100.46302795410156" stroke-width="2.8317677974700928" fill="none" stroke="rgb(76, 35, 0)" stroke-opacity="1.0" stroke-linecap="round" stroke-linejoin="round"/>
    <path d="M 448.2343444824219 352.78997802734375 C 374.07373046875 263.99481201171875 362.4993591308594 256.7933044433594 262.8853759765625 138.53756713867188" stroke-width="3.733563184738159" fill="none" stroke="rgb(0, 0, 15)" stroke-opacity="1.0" stroke-linecap="round" stroke-linejoin="round"/>
    <path d="M 69.69413757324219 145.01963806152344 C 46.18548583984375 155.435546875 92.26217651367188 155.19322204589844 92.83380126953125 125.48614501953125 C 180.7710418701172 62.48145294189453 74.4097671508789 114.50929260253906 122.26406860351562 101.94318389892578 C 85.07911682128906 183.6578826904297 118.88851928710938 95.93470764160156 84.88997650146484 168.94378662109375" stroke-width="3.7462828159332275" fill="none" stroke="rgb(82, 29, 0)" stroke-opacity="0.62223506" stroke-linecap="round" stroke-linejoin="round"/>
    <path d="M 427.8599853515625 416.9029846191406 C 522.3978271484375 496.3476867675781 538.92138671875 547.594970703125 466.3337707519531 473.559814453125 C 405.2337341308594 402.6446838378906 397.2771911621094 418.135498046875 344.240478515625 407.1385803222656 C 355.13446044921875 422.3781433105469 399.7918701171875 358.2027893066406 479.05157470703125 457.2838439941406" stroke-width="3.731872797012329" fill="none" stroke="rgb(0, 0, 22)" stroke-opacity="1.0" stroke-linecap="round" stroke-linejoin="round"/>
    <path d="M 267.4102783203125 228.2602996826172 C 311.4060974121094 279.7564392089844 316.7893371582031 289.0358581542969 346.74261474609375 315.80487060546875 C 333.18182373046875 319.8141174316406 325.8846740722656 293.179931640625 274.0096435546875 278.0185852050781" stroke-width="3.2912638187408447" fill="none" stroke="rgb(246, 247, 213)" stroke-opacity="0.91095316" stroke-linecap="round" stroke-linejoin="round"/>
    <path d="M 48.28519821166992 119.52165222167969 C 131.2952117919922 92.98555755615234 261.1406555175781 -130.2213592529297 118.14240264892578 45.8724479675293 C 56.19439697265625 78.04901123046875 -82.10945129394531 210.50851440429688 70.18463897705078 63.93849563598633" stroke-width="5.293992042541504" fill="none" stroke="rgb(117, 72, 31)" stroke-opacity="0.10019871" stroke-linecap="round" stroke-linejoin="round"/>
    <path d="M 417.2884216308594 381.7916259765625 C 316.4596252441406 328.0179748535156 272.1156005859375 339.04937744140625 328.0022277832031 321.97283935546875 C 401.8128967285156 408.678955078125 294.9720764160156 288.8524475097656 289.3456726074219 301.5658264160156" stroke-width="4.587896823883057" fill="none" stroke="rgb(59, 40, 0)" stroke-opacity="0.3751525" stroke-linecap="round" stroke-linejoin="round"/>
    <path d="M 122.13252258300781 461.946044921875 C -19.919872283935547 405.4991455078125 8.0715913772583 410.3995666503906 116.51632690429688 436.193115234375 C 202.0615692138672 487.2353210449219 100.27748107910156 443.4067077636719 66.1131362915039 421.1737365722656 C -18.79082489013672 398.1122131347656 47.64456558227539 443.7538757324219 127.77671813964844 470.41949462890625" stroke-width="3.1521527767181396" fill="none" stroke="rgb(90, 48, 0)" stroke-opacity="0.6689628" stroke-linecap="round" stroke-linejoin="round"/>
    <path d="M 481.9968566894531 179.9036865234375 C 346.74932861328125 38.38833236694336 362.4493713378906 -13.080254554748535 333.1667175292969 97.6596450805664 C 369.1719055175781 99.67748260498047 371.5506591796875 158.32838439941406 339.8753662109375 44.64710998535156 C 304.8857116699219 64.9010238647461 371.87994384765625 63.19882583618164 442.5276184082031 234.31973266601562" stroke-width="7.356119632720947" fill="none" stroke="rgb(150, 149, 156)" stroke-opacity="0.6984138" stroke-linecap="round" stroke-linejoin="round"/>
    <path d="M -4.346652984619141 447.2957763671875 C 64.0815200805664 383.6993713378906 11.683245658874512 498.5661315917969 10.305545806884766 449.1719665527344 C 144.6685333251953 480.3346252441406 -22.87310218811035 424.7624206542969 44.43734359741211 393.0702819824219" stroke-width="14.77383804321289" fill="none" stroke="rgb(255, 254, 212)" stroke-opacity="0.4893502" stroke-linecap="round" stroke-linejoin="round"/>
    <path d="M 510.8719482421875 506.7078857421875 C 500.3604431152344 505.66973876953125 504.0056457519531 492.62908935546875 427.5433044433594 490.7449645996094 C 475.33636474609375 516.5340576171875 520.7069702148438 509.8849792480469 488.60296630859375 479.9901428222656" stroke-width="11.55088996887207" fill="none" stroke="rgb(0, 0, 1)" stroke-opacity="0.7498397" stroke-linecap="round" stroke-linejoin="round"/>
  </g>
</svg>
