<?xml version="1.0" ?>
<svg xmlns="http://www.w3.org/2000/svg" version="1.1" width="500" height="500">
  <defs/>
  <g>
    <path d="M 456.3226318359375 167.8486785888672 C 471.50201416015625 315.71563720703125 499.4507141113281 427.75927734375 473.5232849121094 250.64073181152344 C 492.02728271484375 172.81358337402344 482.73809814453125 516.0559692382812 477.3146057128906 295.5886535644531 C 521.7406005859375 286.8951110839844 516.9326171875 252.51211547851562 504.8053283691406 231.55642700195312" stroke-width="2.6320295333862305" fill="none" stroke="rgb(9, 0, 6)" stroke-opacity="1.0" stroke-linecap="round" stroke-linejoin="round"/>
    <path d="M 245.42910766601562 371.2030334472656 C 255.1916961669922 452.3181457519531 213.75474548339844 368.5184020996094 218.37388610839844 396.1681823730469 C 203.57415771484375 439.73089599609375 153.3352813720703 416.94171142578125 85.99819946289062 434.823974609375" stroke-width="2.7077083587646484" fill="none" stroke="rgb(0, 0, 26)" stroke-opacity="1.0" stroke-linecap="round" stroke-linejoin="round"/>
    <path d="M 60.460777282714844 173.90069580078125 C 165.6840057373047 149.92156982421875 236.2186279296875 98.46617126464844 89.47252655029297 155.12937927246094" stroke-width="9.168562889099121" fill="none" stroke="rgb(0, 0, 4)" stroke-opacity="1.0" stroke-linecap="round" stroke-linejoin="round"/>
    <path d="M 247.93170166015625 97.21540069580078 C 124.68955993652344 -6.407702445983887 175.94577026367188 131.8623046875 164.77980041503906 -14.109329223632812 C 232.44390869140625 116.85124206542969 108.00395965576172 185.0907745361328 213.0541229248047 -39.186058044433594 C 175.02029418945312 215.4794921875 209.11224365234375 158.45327758789062 215.4542694091797 40.96982192993164" stroke-width="10.361567497253418" fill="none" stroke="rgb(0, 0, 7)" stroke-opacity="1.0" stroke-linecap="round" stroke-linejoin="round"/>
    <path d="M 242.5829315185547 424.43621826171875 C 248.80078125 373.189208984375 202.01060485839844 531.84521484375 231.28228759765625 366.9737548828125 C 240.00473022460938 424.854248046875 244.931640625 524.5086669921875 247.58778381347656 424.9496154785156" stroke-width="4.86415433883667" fill="none" stroke="rgb(0, 0, 7)" stroke-opacity="1.0" stroke-linecap="round" stroke-linejoin="round"/>
    <path d="M 22.47032356262207 372.6667785644531 C 16.754234313964844 329.2359313964844 67.14797973632812 372.69769287109375 53.260807037353516 322.19439697265625 C 96.94173431396484 386.5381774902344 82.583984375 273.60638427734375 87.91471862792969 335.2820129394531 C 104.2835693359375 333.6438903808594 96.90855407714844 345.6783447265625 115.2334213256836 236.8591766357422" stroke-width="6.27742862701416" fill="none" stroke="rgb(0, 0, 2)" stroke-opacity="1.0" stroke-linecap="round" stroke-linejoin="round"/>
    <path d="M 219.97918701171875 214.70054626464844 C 224.07733154296875 240.07501220703125 170.21974182128906 217.3657684326172 153.48382568359375 279.82769775390625 C 184.1695098876953 241.3703155517578 128.01324462890625 154.58984375 178.28616333007812 228.28848266601562 C 245.3448944091797 137.166748046875 282.4671936035156 226.2808074951172 228.34213256835938 195.08425903320312" stroke-width="7.741845607757568" fill="none" stroke="rgb(0, 0, 17)" stroke-opacity="1.0" stroke-linecap="round" stroke-linejoin="round"/>
    <path d="M 369.6207580566406 476.6729736328125 C 359.1351318359375 510.8338928222656 415.38885498046875 483.58984375 309.1528015136719 493.84326171875" stroke-width="9.993467330932617" fill="none" stroke="rgb(0, 5, 9)" stroke-opacity="1.0" stroke-linecap="round" stroke-linejoin="round"/>
    <path d="M 336.1499328613281 322.7774963378906 C 324.64227294921875 344.7920227050781 208.47251892089844 351.63946533203125 307.08612060546875 336.4766540527344 C 330.0078430175781 264.8310546875 237.71029663085938 319.0032958984375 274.6956481933594 321.2129211425781" stroke-width="7.176333904266357" fill="none" stroke="rgb(100, 41, 0)" stroke-opacity="1.0" stroke-linecap="round" stroke-linejoin="round"/>
    <path d="M 216.72152709960938 200.2569122314453 C 228.86135864257812 205.68731689453125 207.47869873046875 208.2311553955078 193.2000274658203 145.68026733398438 C 294.6265869140625 273.5186462402344 165.2205047607422 189.2438507080078 183.21803283691406 276.8318786621094 C 220.50010681152344 232.74356079101562 217.07144165039062 187.10243225097656 234.02340698242188 299.34716796875" stroke-width="9.168832778930664" fill="none" stroke="rgb(0, 0, 8)" stroke-opacity="1.0" stroke-linecap="round" stroke-linejoin="round"/>
    <path d="M 415.53948974609375 238.64588928222656 C 427.77374267578125 366.233154296875 467.0887756347656 392.62005615234375 418.849609375 232.32456970214844" stroke-width="2.3972201347351074" fill="none" stroke="rgb(37, 0, 0)" stroke-opacity="1.0" stroke-linecap="round" stroke-linejoin="round"/>
    <path d="M 491.4787902832031 449.0203552246094 C 535.115234375 262.8621520996094 455.8878173828125 346.1713562011719 489.1055908203125 436.7987060546875 C 397.55584716796875 436.1930847167969 470.0617980957031 401.70391845703125 443.4060974121094 413.0354919433594 C 400.17315673828125 396.9072265625 400.0878601074219 376.3697509765625 387.22442626953125 426.827880859375" stroke-width="6.485745906829834" fill="none" stroke="rgb(0, 0, 0)" stroke-opacity="1.0" stroke-linecap="round" stroke-linejoin="round"/>
    <path d="M 441.755126953125 139.65277099609375 C 457.9715270996094 87.7730941772461 461.531494140625 102.86492919921875 406.5483703613281 171.91683959960938 C 413.9878234863281 67.3404541015625 463.0793762207031 87.4906234741211 354.6097412109375 98.07121276855469" stroke-width="8.151728630065918" fill="none" stroke="rgb(0, 0, 3)" stroke-opacity="1.0" stroke-linecap="round" stroke-linejoin="round"/>
    <path d="M 306.4695739746094 81.606201171875 C 282.6986389160156 47.71797180175781 332.22119140625 135.8851776123047 309.1567687988281 141.08230590820312 C 287.30438232421875 62.56605911254883 328.7762756347656 94.80252838134766 269.0658874511719 101.4802474975586" stroke-width="3.990924835205078" fill="none" stroke="rgb(0, 0, 22)" stroke-opacity="1.0" stroke-linecap="round" stroke-linejoin="round"/>
    <path d="M 40.18343734741211 197.39466857910156 C 22.815290451049805 218.79388427734375 54.98103332519531 175.4844512939453 66.85614776611328 194.9149627685547 C 53.98163604736328 171.55453491210938 82.76719665527344 201.1728973388672 -2.8327810764312744 190.28204345703125" stroke-width="9.243719100952148" fill="none" stroke="rgb(203, 88, 0)" stroke-opacity="1.0" stroke-linecap="round" stroke-linejoin="round"/>
    <path d="M 449.71551513671875 405.63311767578125 C 483.1731262207031 302.70611572265625 480.333984375 356.8023986816406 444.5917663574219 437.6867370605469" stroke-width="3.945889949798584" fill="none" stroke="rgb(0, 0, 12)" stroke-opacity="1.0" stroke-linecap="round" stroke-linejoin="round"/>
    <path d="M 444.7522277832031 486.6551208496094 C 415.3780822753906 556.3709716796875 506.6669921875 562.6528930664062 484.7676086425781 439.0254211425781" stroke-width="3.097561836242676" fill="none" stroke="rgb(0, 0, 17)" stroke-opacity="1.0" stroke-linecap="round" stroke-linejoin="round"/>
    <path d="M 83.03662872314453 302.3682861328125 C 8.131277084350586 332.36334228515625 -30.06897735595703 322.52056884765625 95.35265350341797 284.3209228515625" stroke-width="9.347516059875488" fill="none" stroke="rgb(238, 103, 0)" stroke-opacity="1.0" stroke-linecap="round" stroke-linejoin="round"/>
    <path d="M 476.16876220703125 452.0316467285156 C 388.9291687011719 489.38250732421875 452.65777587890625 417.05474853515625 407.887939453125 463.1295471191406 C 456.10528564453125 299.2261962890625 418.45770263671875 433.4354248046875 439.8539733886719 487.0670166015625 C 491.8880920410156 460.525390625 302.4585266113281 434.39727783203125 345.8537292480469 424.89715576171875" stroke-width="3.0986766815185547" fill="none" stroke="rgb(0, 0, 4)" stroke-opacity="1.0" stroke-linecap="round" stroke-linejoin="round"/>
    <path d="M 360.7900085449219 229.9580078125 C 349.6373596191406 328.3599853515625 352.3092346191406 205.14443969726562 348.24786376953125 246.75091552734375 C 276.53717041015625 261.3617248535156 373.30535888671875 375.8172302246094 315.02777099609375 213.53701782226562 C 270.3283996582031 346.18939208984375 321.0367431640625 287.0255126953125 318.07879638671875 310.6871032714844" stroke-width="2.6143605709075928" fill="none" stroke="rgb(0, 0, 7)" stroke-opacity="1.0" stroke-linecap="round" stroke-linejoin="round"/>
    <path d="M 302.7867431640625 459.24725341796875 C 305.6802673339844 396.44390869140625 264.7652282714844 524.5196533203125 253.7818603515625 405.8409729003906 C 303.91552734375 461.91876220703125 255.9705047607422 424.249267578125 254.1088409423828 377.70513916015625" stroke-width="10.03921127319336" fill="none" stroke="rgb(0, 0, 26)" stroke-opacity="1.0" stroke-linecap="round" stroke-linejoin="round"/>
    <path d="M 256.1019592285156 75.00452423095703 C 108.47460174560547 -14.112207412719727 162.61964416503906 65.94062042236328 298.1993103027344 51.198333740234375 C 328.3070068359375 83.76516723632812 201.16610717773438 55.61756896972656 255.23512268066406 79.43596649169922" stroke-width="7.21175479888916" fill="none" stroke="rgb(184, 79, 0)" stroke-opacity="1.0" stroke-linecap="round" stroke-linejoin="round"/>
    <path d="M 258.0227355957031 334.22857666015625 C 259.43780517578125 404.4466552734375 217.99920654296875 335.0837097167969 273.30828857421875 350.0137023925781" stroke-width="8.245588302612305" fill="none" stroke="rgb(0, 0, 6)" stroke-opacity="1.0" stroke-linecap="round" stroke-linejoin="round"/>
    <path d="M 271.440673828125 137.55264282226562 C 245.87367248535156 174.6859130859375 291.8455810546875 236.29605102539062 265.1119689941406 264.7105712890625 C 240.36196899414062 54.16529846191406 228.929443359375 243.80323791503906 262.7756042480469 92.96459197998047" stroke-width="9.640031814575195" fill="none" stroke="rgb(0, 0, 14)" stroke-opacity="1.0" stroke-linecap="round" stroke-linejoin="round"/>
    <path d="M 204.95643615722656 427.1786193847656 C 201.56065368652344 434.66033935546875 133.78521728515625 450.12030029296875 269.5246887207031 418.6030578613281" stroke-width="8.98908519744873" fill="none" stroke="rgb(247, 245, 255)" stroke-opacity="0.8345347" stroke-linecap="round" stroke-linejoin="round"/>
    <path d="M 154.09130859375 272.86444091796875 C 235.29977416992188 309.0243225097656 184.22071838378906 244.0717010498047 195.72943115234375 280.7013854980469 C 259.87371826171875 287.3080749511719 189.46566772460938 227.9148712158203 210.1415557861328 282.9932861328125" stroke-width="3.2703514099121094" fill="none" stroke="rgb(17, 0, 13)" stroke-opacity="1.0" stroke-linecap="round" stroke-linejoin="round"/>
    <path d="M 358.1404724121094 413.833740234375 C 380.0041198730469 345.9844970703125 356.5060119628906 363.84503173828125 382.0562438964844 367.6482238769531 C 367.22705078125 402.55572509765625 360.1346130371094 511.3240966796875 391.76171875 371.29962158203125" stroke-width="8.456369400024414" fill="none" stroke="rgb(0, 0, 10)" stroke-opacity="1.0" stroke-linecap="round" stroke-linejoin="round"/>
    <path d="M 471.3787536621094 390.636474609375 C 459.3446960449219 498.4629821777344 484.78167724609375 535.8042602539062 478.4400939941406 444.3644714355469" stroke-width="8.771841049194336" fill="none" stroke="rgb(0, 0, 4)" stroke-opacity="1.0" stroke-linecap="round" stroke-linejoin="round"/>
    <path d="M 104.7397232055664 348.645751953125 C 80.23519897460938 299.3639831542969 106.87254333496094 304.68798828125 85.3064956665039 342.621337890625 C 101.5340347290039 368.8033142089844 94.81858825683594 416.1670837402344 63.23074722290039 325.4569091796875" stroke-width="3.090658664703369" fill="none" stroke="rgb(0, 0, 24)" stroke-opacity="1.0" stroke-linecap="round" stroke-linejoin="round"/>
    <path d="M 397.94329833984375 16.13771629333496 C 497.83160400390625 -16.417510986328125 479.8798828125 35.57881546020508 459.9227600097656 -1.493639588356018 C 404.6130065917969 -91.87679290771484 431.9960021972656 -38.70359420776367 436.4039001464844 27.972713470458984" stroke-width="4.003670692443848" fill="none" stroke="rgb(9, 0, 0)" stroke-opacity="1.0" stroke-linecap="round" stroke-linejoin="round"/>
    <path d="M 143.93255615234375 14.961526870727539 C 251.544189453125 22.382648468017578 281.2342834472656 24.70071029663086 207.16282653808594 -23.2445011138916 C 244.14453125 51.78176498413086 224.87420654296875 28.341575622558594 193.47811889648438 23.02652359008789 C 304.96807861328125 18.207321166992188 266.66363525390625 19.934955596923828 246.72251892089844 -4.5225725173950195" stroke-width="6.2567925453186035" fill="none" stroke="rgb(182, 104, 40)" stroke-opacity="1.0" stroke-linecap="round" stroke-linejoin="round"/>
    <path d="M 88.61520385742188 46.27019119262695 C 31.11213493347168 40.12027359008789 55.89188003540039 43.91976547241211 -12.786783218383789 28.1578311920166" stroke-width="12.444254875183105" fill="none" stroke="rgb(79, 40, 0)" stroke-opacity="1.0" stroke-linecap="round" stroke-linejoin="round"/>
    <path d="M 473.4008483886719 432.4256591796875 C 308.0190734863281 409.65771484375 464.42913818359375 413.77313232421875 463.3948669433594 472.601318359375 C 443.2467346191406 473.1742248535156 436.06488037109375 440.2215270996094 494.9841003417969 397.8597106933594 C 454.6009521484375 448.2422180175781 422.7845764160156 393.41729736328125 352.7456970214844 378.8864440917969" stroke-width="7.665072441101074" fill="none" stroke="rgb(201, 100, 0)" stroke-opacity="1.0" stroke-linecap="round" stroke-linejoin="round"/>
    <path d="M 387.620849609375 496.9641418457031 C 395.1064453125 433.2080383300781 412.5052490234375 631.2723388671875 380.3963623046875 480.3290100097656" stroke-width="6.606276988983154" fill="none" stroke="rgb(0, 1, 17)" stroke-opacity="1.0" stroke-linecap="round" stroke-linejoin="round"/>
    <path d="M 315.7255859375 84.18551635742188 C 305.5155944824219 14.4536771774292 308.81341552734375 -3.6926932334899902 339.5290222167969 118.63348388671875 C 322.8351135253906 -68.87142181396484 343.470703125 130.44752502441406 349.9183349609375 64.63177490234375 C 319.8487243652344 -97.97708129882812 360.78472900390625 7.499410629272461 359.77178955078125 80.95610046386719" stroke-width="7.4115071296691895" fill="none" stroke="rgb(0, 0, 4)" stroke-opacity="1.0" stroke-linecap="round" stroke-linejoin="round"/>
    <path d="M 373.36328125 416.8677978515625 C 385.63232421875 559.8911743164062 353.0282897949219 366.33038330078125 352.1090087890625 440.8922119140625" stroke-width="2.3498213291168213" fill="none" stroke="rgb(0, 0, 0)" stroke-opacity="1.0" stroke-linecap="round" stroke-linejoin="round"/>
    <path d="M 122.10816955566406 227.99684143066406 C 133.01194763183594 333.2994079589844 103.00922393798828 296.11871337890625 97.87178802490234 201.1690673828125 C 82.29377746582031 219.73272705078125 112.12578582763672 344.4849548339844 125.98284149169922 355.1676940917969" stroke-width="3.7167913913726807" fill="none" stroke="rgb(0, 0, 10)" stroke-opacity="1.0" stroke-linecap="round" stroke-linejoin="round"/>
    <path d="M 445.1363525390625 159.1623077392578 C 364.03765869140625 157.87615966796875 433.2299499511719 181.80540466308594 503.93218994140625 142.9274139404297 C 478.7208557128906 90.44419860839844 452.8254699707031 192.808349609375 493.0986328125 148.98336791992188 C 486.41015625 365.5838928222656 487.9097900390625 434.4635314941406 496.87921142578125 228.09213256835938" stroke-width="3.758039712905884" fill="none" stroke="rgb(137, 56, 0)" stroke-opacity="1.0" stroke-linecap="round" stroke-linejoin="round"/>
    <path d="M 340.7833251953125 267.44464111328125 C 331.3731689453125 220.7239532470703 368.3249206542969 256.32025146484375 256.7426452636719 245.68637084960938 C 385.4998779296875 228.0316925048828 304.89019775390625 276.0948486328125 330.82318115234375 173.102783203125 C 389.3998107910156 179.2979278564453 340.4945373535156 160.8555145263672 346.97625732421875 146.34059143066406" stroke-width="3.4300341606140137" fill="none" stroke="rgb(12, 0, 5)" stroke-opacity="1.0" stroke-linecap="round" stroke-linejoin="round"/>
    <path d="M 156.5346221923828 79.15652465820312 C -10.335248947143555 81.77561950683594 17.188642501831055 67.77963256835938 63.81851577758789 76.13577270507812 C 132.90733337402344 82.1895751953125 88.4256820678711 1.4666434526443481 80.71072387695312 89.67796325683594" stroke-width="8.020512580871582" fill="none" stroke="rgb(165, 71, 0)" stroke-opacity="1.0" stroke-linecap="round" stroke-linejoin="round"/>
    <path d="M 411.91180419921875 38.66826248168945 C 437.3614807128906 80.36639404296875 435.7439880371094 65.86036682128906 410.4812927246094 5.2423295974731445" stroke-width="7.4095001220703125" fill="none" stroke="rgb(0, 0, 15)" stroke-opacity="1.0" stroke-linecap="round" stroke-linejoin="round"/>
    <path d="M 325.7152099609375 305.7486572265625 C 412.46728515625 272.0809631347656 428.8894958496094 219.76779174804688 403.19976806640625 305.8352355957031 C 407.6361999511719 230.9600067138672 359.892333984375 283.9535827636719 351.16973876953125 223.05667114257812 C 446.0467834472656 213.1292724609375 471.6402587890625 188.3694610595703 368.5567932128906 229.7261505126953" stroke-width="7.690507411956787" fill="none" stroke="rgb(243, 104, 0)" stroke-opacity="1.0" stroke-linecap="round" stroke-linejoin="round"/>
    <path d="M 12.41745376586914 375.9667663574219 C 24.553821563720703 299.20379638671875 -0.29545271396636963 246.90748596191406 3.459749937057495 306.77154541015625 C -0.141266331076622 367.4183654785156 -41.41163635253906 324.43804931640625 -43.45835494995117 260.81085205078125 C -7.473540782928467 328.1588439941406 1.4206104278564453 330.8815612792969 -6.2994914054870605 355.3619689941406" stroke-width="2.222914934158325" fill="none" stroke="rgb(62, 16, 0)" stroke-opacity="1.0" stroke-linecap="round" stroke-linejoin="round"/>
    <path d="M 316.5670471191406 369.6287536621094 C 366.9783020019531 367.1081237792969 324.0559387207031 332.45306396484375 338.9761657714844 377.2165832519531 C 333.1330871582031 420.00482177734375 395.6333923339844 377.3813781738281 307.4327392578125 406.8225402832031" stroke-width="3.368628740310669" fill="none" stroke="rgb(0, 0, 19)" stroke-opacity="1.0" stroke-linecap="round" stroke-linejoin="round"/>
    <path d="M 4.596664905548096 514.7000732421875 C 1.8713524341583252 453.0163269042969 14.999821662902832 444.2667541503906 -26.46378517150879 456.3492126464844 C 32.903282165527344 506.8050842285156 43.62685775756836 470.4479675292969 39.68023681640625 503.13775634765625" stroke-width="3.0109949111938477" fill="none" stroke="rgb(27, 5, 5)" stroke-opacity="0.91615576" stroke-linecap="round" stroke-linejoin="round"/>
    <path d="M 447.392578125 199.06134033203125 C 491.51251220703125 355.31817626953125 417.19012451171875 270.4576416015625 447.8943786621094 325.3133239746094 C 474.2226257324219 297.3373718261719 433.5679931640625 254.3722686767578 454.92401123046875 246.89077758789062 C 482.3547668457031 231.48284912109375 467.0347900390625 277.2648620605469 472.807861328125 178.3675994873047" stroke-width="7.3543829917907715" fill="none" stroke="rgb(208, 91, 0)" stroke-opacity="1.0" stroke-linecap="round" stroke-linejoin="round"/>
    <path d="M 175.37843322753906 303.9278564453125 C 220.29014587402344 355.08160400390625 189.4193572998047 344.4455871582031 209.28355407714844 342.35479736328125 C 187.82696533203125 261.449951171875 184.2520751953125 327.8475036621094 190.25730895996094 300.200439453125" stroke-width="3.6417336463928223" fill="none" stroke="rgb(0, 0, 28)" stroke-opacity="1.0" stroke-linecap="round" stroke-linejoin="round"/>
    <path d="M 152.89942932128906 272.96319580078125 C 186.2662353515625 223.6680908203125 157.7939453125 355.7779846191406 184.16827392578125 144.18296813964844 C 187.30648803710938 268.9779968261719 232.58172607421875 334.96148681640625 177.27391052246094 103.58345794677734" stroke-width="3.932194948196411" fill="none" stroke="rgb(0, 0, 6)" stroke-opacity="1.0" stroke-linecap="round" stroke-linejoin="round"/>
    <path d="M 147.52969360351562 122.02608489990234 C 118.9645767211914 -0.3243008553981781 159.8896942138672 265.1821594238281 158.28665161132812 166.9700164794922" stroke-width="3.2856242656707764" fill="none" stroke="rgb(0, 0, 0)" stroke-opacity="1.0" stroke-linecap="round" stroke-linejoin="round"/>
    <path d="M 288.8638916015625 81.55059051513672 C 318.5570068359375 172.10165405273438 273.4073181152344 244.61630249023438 292.6387023925781 166.85801696777344 C 311.508056640625 168.0413818359375 322.51690673828125 141.93560791015625 346.2043762207031 247.61953735351562" stroke-width="3.3859760761260986" fill="none" stroke="rgb(0, 0, 25)" stroke-opacity="1.0" stroke-linecap="round" stroke-linejoin="round"/>
    <path d="M 217.7921600341797 250.57608032226562 C 206.93492126464844 282.56317138671875 126.14627075195312 263.7872009277344 236.44125366210938 268.1391906738281 C 256.19146728515625 183.6348876953125 259.093994140625 179.87127685546875 162.8521728515625 234.3904266357422" stroke-width="6.897730827331543" fill="none" stroke="rgb(217, 100, 0)" stroke-opacity="1.0" stroke-linecap="round" stroke-linejoin="round"/>
    <path d="M 66.30924224853516 351.8724670410156 C 36.27009201049805 361.6238098144531 60.8876953125 345.2691345214844 33.64401626586914 269.3990478515625" stroke-width="2.0" fill="none" stroke="rgb(0, 0, 41)" stroke-opacity="1.0" stroke-linecap="round" stroke-linejoin="round"/>
    <path d="M 304.8350830078125 201.38836669921875 C 158.72689819335938 237.79750061035156 177.1859588623047 224.5802001953125 196.3590850830078 260.6173095703125" stroke-width="3.324519395828247" fill="none" stroke="rgb(255, 252, 255)" stroke-opacity="1.0" stroke-linecap="round" stroke-linejoin="round"/>
    <path d="M 75.72501373291016 135.97268676757812 C 89.14570617675781 245.7284393310547 57.18564224243164 218.46023559570312 69.44932556152344 89.6537094116211" stroke-width="7.835965156555176" fill="none" stroke="rgb(0, 0, 18)" stroke-opacity="1.0" stroke-linecap="round" stroke-linejoin="round"/>
    <path d="M 79.64263916015625 219.0005340576172 C 57.0479736328125 203.16688537597656 30.87750816345215 249.49981689453125 44.634620666503906 84.69319915771484 C 61.3995475769043 322.65948486328125 87.17955780029297 351.8511657714844 77.10647583007812 298.45172119140625" stroke-width="2.393723249435425" fill="none" stroke="rgb(18, 0, 11)" stroke-opacity="1.0" stroke-linecap="round" stroke-linejoin="round"/>
    <path d="M 212.698974609375 324.5948791503906 C 222.30337524414062 449.1944580078125 187.07264709472656 324.8382568359375 211.4234619140625 403.9866027832031 C 182.64239501953125 402.4865417480469 185.1930389404297 380.8816833496094 225.30694580078125 333.77972412109375 C 188.40426635742188 551.48583984375 200.974365234375 565.3621215820312 231.60128784179688 320.7021484375" stroke-width="2.6524102687835693" fill="none" stroke="rgb(0, 0, 19)" stroke-opacity="1.0" stroke-linecap="round" stroke-linejoin="round"/>
    <path d="M 14.696309089660645 137.09922790527344 C 9.785008430480957 -16.12898063659668 77.13373565673828 141.37525939941406 29.776872634887695 14.646782875061035 C 23.724267959594727 167.10531616210938 -37.463401794433594 233.6592254638672 -1.322424054145813 117.62944793701172 C 52.376373291015625 108.34886932373047 21.541019439697266 209.17727661132812 39.50127029418945 97.26395416259766" stroke-width="4.911661148071289" fill="none" stroke="rgb(0, 0, 6)" stroke-opacity="1.0" stroke-linecap="round" stroke-linejoin="round"/>
    <path d="M 386.7616882324219 171.0957794189453 C 395.80743408203125 88.74665832519531 414.1740417480469 196.05274963378906 371.7859191894531 211.75482177734375 C 336.3611755371094 149.97491455078125 335.3935546875 215.4263458251953 479.1993408203125 179.28884887695312 C 368.4372253417969 177.308349609375 368.79510498046875 179.07342529296875 383.0376281738281 209.3737030029297" stroke-width="7.643399238586426" fill="none" stroke="rgb(0, 0, 4)" stroke-opacity="1.0" stroke-linecap="round" stroke-linejoin="round"/>
    <path d="M 511.8186950683594 -3.441235303878784 C 462.686279296875 45.79554748535156 494.9588928222656 -41.027496337890625 468.271728515625 11.310782432556152 C 431.6510925292969 -1.7537436485290527 349.20294189453125 64.91238403320312 431.0882873535156 -4.815223693847656" stroke-width="9.294801712036133" fill="none" stroke="rgb(131, 85, 45)" stroke-opacity="1.0" stroke-linecap="round" stroke-linejoin="round"/>
    <path d="M 128.8846893310547 43.89212417602539 C 103.67366790771484 -113.01980590820312 139.32505798339844 238.52105712890625 101.35707092285156 20.909568786621094 C 79.602783203125 -19.438480377197266 123.0721206665039 192.43136596679688 112.14513397216797 45.67741012573242 C 103.79434967041016 -19.576526641845703 157.8702392578125 13.168265342712402 4.886824131011963 2.769102096557617" stroke-width="5.07069206237793" fill="none" stroke="rgb(0, 4, 6)" stroke-opacity="1.0" stroke-linecap="round" stroke-linejoin="round"/>
    <path d="M 450.9457702636719 195.93350219726562 C 445.20550537109375 70.3667221069336 493.6983947753906 63.93454360961914 464.2862854003906 17.13967514038086 C 478.8269348144531 196.8802947998047 501.8810119628906 228.2182159423828 497.1086730957031 185.1834716796875" stroke-width="2.4202542304992676" fill="none" stroke="rgb(0, 0, 13)" stroke-opacity="1.0" stroke-linecap="round" stroke-linejoin="round"/>
    <path d="M 422.50042724609375 155.6772003173828 C 496.162109375 140.13970947265625 578.510498046875 73.32007598876953 477.5537414550781 109.5009994506836 C 514.8493041992188 157.6527557373047 512.6866455078125 93.11453247070312 488.7585144042969 176.54725646972656" stroke-width="11.108062744140625" fill="none" stroke="rgb(0, 0, 0)" stroke-opacity="1.0" stroke-linecap="round" stroke-linejoin="round"/>
    <path d="M 143.84454345703125 269.1988525390625 C 158.04571533203125 323.7518310546875 153.29632568359375 271.06207275390625 199.10464477539062 285.1260070800781 C 102.73351287841797 275.11370849609375 76.41504669189453 263.8578796386719 74.5952377319336 284.1854248046875" stroke-width="8.056208610534668" fill="none" stroke="rgb(0, 0, 9)" stroke-opacity="1.0" stroke-linecap="round" stroke-linejoin="round"/>
    <path d="M 145.03689575195312 240.15943908691406 C 73.8357925415039 249.654296875 92.67296600341797 256.2814025878906 125.35110473632812 221.71847534179688 C 179.9090576171875 118.35688018798828 8.663091659545898 199.28994750976562 87.58271026611328 228.95957946777344 C 135.17282104492188 202.9168243408203 161.036376953125 184.63523864746094 145.23008728027344 254.8262176513672" stroke-width="8.566521644592285" fill="none" stroke="rgb(235, 115, 0)" stroke-opacity="1.0" stroke-linecap="round" stroke-linejoin="round"/>
    <path d="M 174.2286376953125 178.87440490722656 C 186.43630981445312 146.9736785888672 156.44483947753906 11.567814826965332 173.5640106201172 199.84130859375 C 117.48468017578125 134.29336547851562 167.25155639648438 226.58892822265625 152.5724639892578 273.0278015136719 C 198.8542022705078 358.45098876953125 148.8503875732422 187.62503051757812 199.9385986328125 302.3531494140625" stroke-width="2.545715570449829" fill="none" stroke="rgb(3, 0, 22)" stroke-opacity="1.0" stroke-linecap="round" stroke-linejoin="round"/>
    <path d="M 387.0335693359375 147.4658203125 C 291.8544006347656 179.4572296142578 267.9921875 159.81393432617188 370.0721740722656 161.9224395751953" stroke-width="13.128747940063477" fill="none" stroke="rgb(0, 4, 4)" stroke-opacity="1.0" stroke-linecap="round" stroke-linejoin="round"/>
    <path d="M 188.9557342529297 297.5228271484375 C 186.1000213623047 303.797607421875 202.14402770996094 368.8608093261719 208.3755645751953 295.9756164550781" stroke-width="9.344226837158203" fill="none" stroke="rgb(0, 0, 8)" stroke-opacity="1.0" stroke-linecap="round" stroke-linejoin="round"/>
    <path d="M 489.6797790527344 348.3695983886719 C 483.359375 432.54559326171875 499.3315734863281 446.3796081542969 496.3826599121094 283.6697082519531" stroke-width="4.355721473693848" fill="none" stroke="rgb(0, 10, 19)" stroke-opacity="0.9572347" stroke-linecap="round" stroke-linejoin="round"/>
    <path d="M 144.67970275878906 372.1776123046875 C 172.63385009765625 403.2118835449219 151.53359985351562 393.1223449707031 115.90638732910156 389.2587585449219 C 65.18233489990234 407.5386657714844 136.50238037109375 454.6622314453125 105.9947280883789 383.1770324707031" stroke-width="6.976318359375" fill="none" stroke="rgb(0, 0, 13)" stroke-opacity="1.0" stroke-linecap="round" stroke-linejoin="round"/>
    <path d="M 66.85371398925781 384.0198974609375 C 174.65325927734375 354.48284912109375 33.96910095214844 373.6534729003906 71.52751159667969 405.8011779785156" stroke-width="9.365629196166992" fill="none" stroke="rgb(0, 3, 11)" stroke-opacity="1.0" stroke-linecap="round" stroke-linejoin="round"/>
    <path d="M 49.651344299316406 221.7814178466797 C 11.48365306854248 198.03721618652344 316.48040771484375 144.17074584960938 105.55927276611328 203.4049835205078" stroke-width="9.303534507751465" fill="none" stroke="rgb(0, 0, 0)" stroke-opacity="1.0" stroke-linecap="round" stroke-linejoin="round"/>
    <path d="M 112.64714813232422 354.4336853027344 C 127.20781707763672 418.5941467285156 109.48722076416016 271.5859069824219 144.84681701660156 344.49859619140625 C 97.34400177001953 455.2591247558594 141.8689727783203 347.7989196777344 121.52497100830078 363.1954650878906 C 136.05374145507812 352.74310302734375 156.74147033691406 243.70213317871094 145.608642578125 357.00152587890625" stroke-width="5.868086338043213" fill="none" stroke="rgb(0, 0, 0)" stroke-opacity="1.0" stroke-linecap="round" stroke-linejoin="round"/>
    <path d="M 154.78102111816406 230.734130859375 C 223.85232543945312 192.5789031982422 211.42327880859375 206.0948944091797 207.841552734375 183.63136291503906 C 173.03704833984375 194.30780029296875 144.8017578125 213.92259216308594 189.44224548339844 193.0447998046875 C 171.83615112304688 203.56118774414062 128.7809600830078 225.06297302246094 145.17059326171875 225.7157745361328" stroke-width="9.151498794555664" fill="none" stroke="rgb(193, 82, 0)" stroke-opacity="1.0" stroke-linecap="round" stroke-linejoin="round"/>
    <path d="M 14.51970386505127 465.9286193847656 C 29.437881469726562 416.5429992675781 -2.118773937225342 252.2902069091797 7.232680320739746 449.7592468261719" stroke-width="9.289789199829102" fill="none" stroke="rgb(0, 0, 4)" stroke-opacity="1.0" stroke-linecap="round" stroke-linejoin="round"/>
    <path d="M 161.11514282226562 279.40289306640625 C 146.93118286132812 272.1474914550781 199.30117797851562 303.9254455566406 120.63841247558594 293.4053649902344" stroke-width="8.216647148132324" fill="none" stroke="rgb(243, 114, 0)" stroke-opacity="1.0" stroke-linecap="round" stroke-linejoin="round"/>
    <path d="M 78.35458374023438 400.3681335449219 C 63.451263427734375 305.1781005859375 77.1453628540039 276.33489990234375 82.82513427734375 397.63421630859375" stroke-width="3.9643702507019043" fill="none" stroke="rgb(0, 0, 5)" stroke-opacity="1.0" stroke-linecap="round" stroke-linejoin="round"/>
    <path d="M 303.0938720703125 346.6404113769531 C 261.6566467285156 331.2763366699219 290.6081848144531 392.40814208984375 288.466796875 325.48236083984375" stroke-width="2.513408899307251" fill="none" stroke="rgb(6, 0, 15)" stroke-opacity="1.0" stroke-linecap="round" stroke-linejoin="round"/>
    <path d="M 391.37518310546875 233.68963623046875 C 382.7198791503906 89.06755828857422 419.3935241699219 282.9214782714844 421.359375 109.8949203491211 C 354.927001953125 94.57408905029297 337.5489501953125 133.40481567382812 395.28717041015625 107.40606689453125 C 371.8075256347656 222.71009826660156 421.6087341308594 99.9769515991211 406.13427734375 212.3323516845703" stroke-width="3.1033852100372314" fill="none" stroke="rgb(223, 100, 0)" stroke-opacity="1.0" stroke-linecap="round" stroke-linejoin="round"/>
    <path d="M 381.9256591796875 154.32106018066406 C 392.60223388671875 48.063533782958984 421.7637634277344 -2.4246551990509033 402.52239990234375 74.74418640136719 C 395.30938720703125 111.43392181396484 389.0390319824219 83.75320434570312 345.6454162597656 90.43927764892578" stroke-width="2.3164303302764893" fill="none" stroke="rgb(0, 0, 25)" stroke-opacity="1.0" stroke-linecap="round" stroke-linejoin="round"/>
    <path d="M 338.9804992675781 161.90089416503906 C 339.377685546875 277.7691955566406 335.54608154296875 192.24493408203125 391.068603515625 -34.22468948364258 C 388.9886169433594 39.41609573364258 333.8450927734375 185.86521911621094 383.6731872558594 101.88269805908203 C 428.683837890625 30.72175407409668 368.1759338378906 240.69989013671875 396.77593994140625 96.65416717529297" stroke-width="2.4292490482330322" fill="none" stroke="rgb(0, 0, 10)" stroke-opacity="1.0" stroke-linecap="round" stroke-linejoin="round"/>
    <path d="M 276.7495422363281 76.74613189697266 C 254.2606658935547 64.20624542236328 261.6562194824219 86.53007507324219 268.07952880859375 78.24113464355469 C 261.0548400878906 80.90028381347656 244.10159301757812 54.0786018371582 231.27816772460938 -24.510400772094727" stroke-width="2.289215087890625" fill="none" stroke="rgb(97, 73, 74)" stroke-opacity="1.0" stroke-linecap="round" stroke-linejoin="round"/>
    <path d="M 481.34228515625 222.12843322753906 C 451.1284484863281 193.35617065429688 477.8471374511719 135.5361785888672 483.44781494140625 208.5446014404297 C 377.193115234375 238.0413818359375 335.9116516113281 284.1696472167969 470.2531433105469 225.18270874023438" stroke-width="10.189617156982422" fill="none" stroke="rgb(0, 0, 5)" stroke-opacity="1.0" stroke-linecap="round" stroke-linejoin="round"/>
    <path d="M 51.509559631347656 368.19940185546875 C 45.46503829956055 309.1102600097656 32.9260368347168 322.70159912109375 51.42684555053711 388.0365905761719" stroke-width="3.9537107944488525" fill="none" stroke="rgb(0, 0, 2)" stroke-opacity="1.0" stroke-linecap="round" stroke-linejoin="round"/>
    <path d="M 135.38124084472656 419.4248046875 C 248.2827606201172 394.6440734863281 178.19821166992188 403.41064453125 191.20443725585938 352.574951171875" stroke-width="10.219956398010254" fill="none" stroke="rgb(0, 0, 3)" stroke-opacity="1.0" stroke-linecap="round" stroke-linejoin="round"/>
    <path d="M 82.93574523925781 257.21929931640625 C 113.02493286132812 232.43357849121094 20.319656372070312 232.3063201904297 84.3687973022461 215.9132537841797" stroke-width="10.873787879943848" fill="none" stroke="rgb(0, 0, 4)" stroke-opacity="1.0" stroke-linecap="round" stroke-linejoin="round"/>
    <path d="M 223.75759887695312 455.77386474609375 C 222.60079956054688 595.8465576171875 254.6654510498047 570.4268188476562 278.8937683105469 554.3099365234375 C 245.7894287109375 521.106689453125 266.4769592285156 537.8079833984375 238.0301971435547 664.7008666992188 C 253.51382446289062 637.677978515625 351.6164245605469 577.2877807617188 308.7265930175781 444.9026184082031" stroke-width="2.5665717124938965" fill="none" stroke="rgb(0, 0, 33)" stroke-opacity="1.0" stroke-linecap="round" stroke-linejoin="round"/>
    <path d="M 327.34344482421875 435.1097106933594 C 330.21832275390625 596.9165649414062 360.6688232421875 534.2924194335938 355.6695556640625 496.4065246582031 C 213.84271240234375 413.96319580078125 265.03118896484375 551.328857421875 271.7718811035156 365.3025207519531 C 295.7774353027344 520.15673828125 300.9587707519531 560.210693359375 279.2642517089844 497.2845764160156" stroke-width="2.9450504779815674" fill="none" stroke="rgb(0, 0, 19)" stroke-opacity="1.0" stroke-linecap="round" stroke-linejoin="round"/>
    <path d="M 305.8966064453125 264.7438049316406 C 298.6120300292969 316.0828552246094 307.01605224609375 332.9700927734375 420.1749572753906 295.6084289550781 C 384.0906982421875 397.2539978027344 396.8707580566406 433.20916748046875 420.6560363769531 301.9908447265625" stroke-width="4.215858459472656" fill="none" stroke="rgb(0, 0, 1)" stroke-opacity="1.0" stroke-linecap="round" stroke-linejoin="round"/>
    <path d="M 236.35086059570312 172.9593048095703 C 275.4786682128906 335.2369384765625 240.13290405273438 350.8456726074219 239.57913208007812 228.04641723632812" stroke-width="8.98048210144043" fill="none" stroke="rgb(0, 0, 9)" stroke-opacity="1.0" stroke-linecap="round" stroke-linejoin="round"/>
    <path d="M 140.7306671142578 74.88529205322266 C 160.6106719970703 -0.5443912744522095 139.51768493652344 99.02613830566406 203.92347717285156 76.04287719726562 C -15.642190933227539 46.634098052978516 -7.641298770904541 50.317962646484375 240.0576934814453 80.23245239257812 C 56.59113311767578 4.499176502227783 143.21719360351562 91.16893005371094 156.76605224609375 34.12565231323242" stroke-width="8.434775352478027" fill="none" stroke="rgb(153, 62, 0)" stroke-opacity="1.0" stroke-linecap="round" stroke-linejoin="round"/>
    <path d="M 241.6610870361328 93.90764617919922 C 254.69334411621094 88.3971176147461 52.00709533691406 113.92398071289062 164.3344268798828 154.1094207763672 C 116.86267852783203 181.60049438476562 144.50387573242188 128.98068237304688 140.74794006347656 146.0286865234375" stroke-width="9.17409896850586" fill="none" stroke="rgb(178, 78, 0)" stroke-opacity="1.0" stroke-linecap="round" stroke-linejoin="round"/>
    <path d="M 26.292531967163086 157.53485107421875 C 8.88753890991211 144.86087036132812 40.02691650390625 203.6900177001953 0.0374227911233902 158.1525421142578" stroke-width="9.406882286071777" fill="none" stroke="rgb(187, 71, 0)" stroke-opacity="1.0" stroke-linecap="round" stroke-linejoin="round"/>
    <path d="M 128.22927856445312 291.0423889160156 C 132.47909545898438 188.9961395263672 140.44081115722656 223.1370086669922 134.04420471191406 291.7431640625 C 216.4977569580078 279.2611999511719 -7.34165096282959 277.6468200683594 123.88741302490234 290.6115417480469" stroke-width="2.5284340381622314" fill="none" stroke="rgb(3, 0, 0)" stroke-opacity="1.0" stroke-linecap="round" stroke-linejoin="round"/>
    <path d="M 122.5928955078125 119.08692932128906 C 6.024290561676025 198.61732482910156 -25.438913345336914 177.3850860595703 94.90818786621094 117.1932601928711 C 7.009697914123535 98.95820617675781 79.6508560180664 151.8114013671875 1.9279999732971191 85.81808471679688" stroke-width="10.509828567504883" fill="none" stroke="rgb(223, 96, 0)" stroke-opacity="1.0" stroke-linecap="round" stroke-linejoin="round"/>
    <path d="M 162.95556640625 8.415473937988281 C 143.913330078125 41.500953674316406 144.3773193359375 -118.93181610107422 169.9873504638672 2.698854923248291 C 137.01763916015625 43.79907989501953 15.059698104858398 34.65961837768555 77.7802963256836 14.436887741088867" stroke-width="10.840492248535156" fill="none" stroke="rgb(210, 94, 0)" stroke-opacity="1.0" stroke-linecap="round" stroke-linejoin="round"/>
    <path d="M 12.104924201965332 337.1827697753906 C 38.021034240722656 334.3110046386719 41.07915496826172 378.9616394042969 26.16978645324707 399.7095642089844 C 24.044919967651367 324.2628479003906 48.93264389038086 301.15521240234375 18.034637451171875 350.8311767578125 C -11.559321403503418 326.9726257324219 6.5813307762146 360.2601318359375 7.040208339691162 309.3201904296875" stroke-width="5.846053123474121" fill="none" stroke="rgb(0, 0, 6)" stroke-opacity="1.0" stroke-linecap="round" stroke-linejoin="round"/>
    <path d="M 302.0762023925781 12.574677467346191 C 281.1812744140625 -51.727054595947266 332.3228454589844 24.334686279296875 320.8858642578125 30.240406036376953 C 320.14935302734375 22.97309684753418 335.2001953125 42.99424743652344 255.49156188964844 40.393516540527344" stroke-width="12.796875953674316" fill="none" stroke="rgb(0, 0, 6)" stroke-opacity="1.0" stroke-linecap="round" stroke-linejoin="round"/>
    <path d="M 233.37742614746094 506.66046142578125 C 259.9957275390625 467.7033996582031 211.6396484375 482.35076904296875 121.12384796142578 522.3047485351562 C 202.4380645751953 561.1093139648438 135.6443328857422 362.231201171875 168.6984405517578 302.1336364746094 C 143.89073181152344 509.852294921875 236.53286743164062 395.8380432128906 107.3863296508789 439.23553466796875" stroke-width="3.0482242107391357" fill="none" stroke="rgb(0, 0, 9)" stroke-opacity="1.0" stroke-linecap="round" stroke-linejoin="round"/>
    <path d="M 300.77294921875 443.5461120605469 C 277.830078125 258.3248596191406 308.6042175292969 320.0946350097656 337.157958984375 437.4089050292969 C 297.2423400878906 236.94622802734375 352.861328125 390.16021728515625 342.74737548828125 553.383056640625 C 327.03985595703125 324.726806640625 299.9048156738281 421.6845397949219 353.8326110839844 372.28533935546875" stroke-width="3.0933547019958496" fill="none" stroke="rgb(0, 0, 9)" stroke-opacity="1.0" stroke-linecap="round" stroke-linejoin="round"/>
    <path d="M 98.77557373046875 364.2707214355469 C 195.00656127929688 355.2220153808594 142.3231658935547 393.0907287597656 158.76177978515625 295.9825439453125 C 163.3944549560547 385.6966552734375 168.56704711914062 432.4644775390625 172.57553100585938 303.02996826171875" stroke-width="3.2932276725769043" fill="none" stroke="rgb(0, 0, 0)" stroke-opacity="1.0" stroke-linecap="round" stroke-linejoin="round"/>
    <path d="M 52.05000305175781 494.1988220214844 C 39.74181365966797 512.7175903320312 103.76622772216797 592.0692138671875 68.53327178955078 526.5571899414062 C 47.796165466308594 436.53900146484375 119.51912689208984 546.0701293945312 210.44000244140625 446.5169982910156 C 13.019021987915039 526.4483032226562 81.8464126586914 459.076416015625 84.86284637451172 492.0949401855469" stroke-width="10.889516830444336" fill="none" stroke="rgb(0, 0, 3)" stroke-opacity="1.0" stroke-linecap="round" stroke-linejoin="round"/>
    <path d="M 495.2840576171875 50.90053939819336 C 421.9902648925781 87.67046356201172 320.784423828125 87.84768676757812 504.90484619140625 35.97657012939453" stroke-width="9.665922164916992" fill="none" stroke="rgb(109, 49, 0)" stroke-opacity="0.916154" stroke-linecap="round" stroke-linejoin="round"/>
    <path d="M 413.3171081542969 497.83837890625 C 453.1599426269531 409.4485778808594 330.60784912109375 503.3905944824219 492.5528259277344 484.2281799316406" stroke-width="2.9126176834106445" fill="none" stroke="rgb(12, 0, 5)" stroke-opacity="1.0" stroke-linecap="round" stroke-linejoin="round"/>
    <path d="M 184.29380798339844 316.6982421875 C 80.522216796875 329.1783447265625 128.5152130126953 363.68328857421875 222.54977416992188 318.5885925292969" stroke-width="10.044588088989258" fill="none" stroke="rgb(191, 88, 0)" stroke-opacity="1.0" stroke-linecap="round" stroke-linejoin="round"/>
    <path d="M 20.230302810668945 281.0370788574219 C 7.094566345214844 163.2467498779297 -1.5542247295379639 173.27354431152344 54.48381042480469 179.88844299316406 C -53.13134002685547 213.67779541015625 9.279053688049316 70.39847564697266 11.227627754211426 165.4877166748047 C 79.48827362060547 142.15440368652344 31.19744300842285 246.46778869628906 33.68287658691406 159.5718994140625" stroke-width="2.024965524673462" fill="none" stroke="rgb(23, 0, 7)" stroke-opacity="1.0" stroke-linecap="round" stroke-linejoin="round"/>
    <path d="M 361.1333923339844 300.1744079589844 C 371.00555419921875 270.9432373046875 360.04132080078125 259.5862731933594 370.4961853027344 274.1926574707031 C 338.7287292480469 274.4140319824219 435.86798095703125 315.2957763671875 602.7467651367188 229.84378051757812 C 362.423095703125 291.2497863769531 352.8316650390625 263.0390625 371.99249267578125 249.5323944091797" stroke-width="12.097329139709473" fill="none" stroke="rgb(37, 39, 41)" stroke-opacity="0.9690399" stroke-linecap="round" stroke-linejoin="round"/>
    <path d="M 464.40093994140625 152.7069854736328 C 450.0047302246094 -20.60826873779297 453.2106018066406 169.59532165527344 444.27813720703125 86.4726333618164 C 313.1242980957031 87.70097351074219 377.24383544921875 90.97835540771484 437.9853210449219 91.67161560058594 C 442.461669921875 214.92196655273438 400.7662353515625 50.3170166015625 401.08544921875 100.39906311035156" stroke-width="3.997896432876587" fill="none" stroke="rgb(0, 0, 0)" stroke-opacity="1.0" stroke-linecap="round" stroke-linejoin="round"/>
    <path d="M 298.43133544921875 422.33526611328125 C 223.00128173828125 446.3721923828125 181.4840087890625 530.67529296875 357.6473693847656 465.0398254394531 C 365.79351806640625 433.564208984375 326.5238952636719 469.4067077636719 191.42955017089844 493.3205261230469" stroke-width="10.243980407714844" fill="none" stroke="rgb(255, 119, 0)" stroke-opacity="1.0" stroke-linecap="round" stroke-linejoin="round"/>
    <path d="M 319.28997802734375 451.1455383300781 C 300.0332946777344 463.41552734375 292.072998046875 245.6291046142578 322.02606201171875 440.9509582519531" stroke-width="8.392580032348633" fill="none" stroke="rgb(0, 0, 11)" stroke-opacity="1.0" stroke-linecap="round" stroke-linejoin="round"/>
    <path d="M 100.96849822998047 451.0824279785156 C 94.86042022705078 340.4399719238281 95.53517150878906 394.5954895019531 77.22117614746094 432.47503662109375 C 101.05226135253906 444.724365234375 57.00288772583008 484.83477783203125 68.57239532470703 423.02685546875" stroke-width="8.19409465789795" fill="none" stroke="rgb(0, 0, 15)" stroke-opacity="1.0" stroke-linecap="round" stroke-linejoin="round"/>
    <path d="M 118.66889953613281 323.7673034667969 C -5.9943647384643555 364.90130615234375 53.57681655883789 368.768310546875 -33.65741729736328 316.3812561035156 C -15.489631652832031 387.26318359375 -18.556964874267578 392.2095031738281 -35.958438873291016 404.7161560058594" stroke-width="9.267763137817383" fill="none" stroke="rgb(218, 96, 0)" stroke-opacity="1.0" stroke-linecap="round" stroke-linejoin="round"/>
    <path d="M 348.7628173828125 449.551513671875 C 468.6353454589844 525.61669921875 528.3773193359375 480.78369140625 570.030029296875 428.8930358886719" stroke-width="10.548906326293945" fill="none" stroke="rgb(255, 111, 0)" stroke-opacity="0.9536758" stroke-linecap="round" stroke-linejoin="round"/>
    <path d="M 148.64566040039062 377.5251159667969 C 150.82371520996094 622.5806884765625 174.43429565429688 425.49017333984375 132.92127990722656 257.1802673339844" stroke-width="2.395871162414551" fill="none" stroke="rgb(3, 0, 7)" stroke-opacity="1.0" stroke-linecap="round" stroke-linejoin="round"/>
    <path d="M 73.7270736694336 75.67472839355469 C 89.36534881591797 29.860280990600586 35.29120635986328 47.23147201538086 43.647953033447266 -42.20427322387695 C 94.994873046875 65.48307800292969 93.68036651611328 92.56024932861328 79.34516906738281 -18.59499740600586 C 83.4354019165039 -25.169591903686523 72.11520385742188 -26.7075138092041 63.0176887512207 -49.079437255859375" stroke-width="2.0" fill="none" stroke="rgb(0, 0, 12)" stroke-opacity="1.0" stroke-linecap="round" stroke-linejoin="round"/>
    <path d="M 369.1318359375 26.935585021972656 C 260.4819641113281 83.49008178710938 349.22467041015625 68.37804412841797 324.02337646484375 35.379058837890625 C 269.2203063964844 48.23063659667969 345.0038757324219 61.14851379394531 299.3330078125 65.15998077392578 C 323.15606689453125 -5.708931922912598 267.2618408203125 43.400917053222656 300.8424377441406 52.387691497802734" stroke-width="4.805431365966797" fill="none" stroke="rgb(157, 111, 71)" stroke-opacity="1.0" stroke-linecap="round" stroke-linejoin="round"/>
    <path d="M 470.39056396484375 133.75836181640625 C 456.5450744628906 -0.5418505668640137 441.9444274902344 1.248719573020935 426.8212890625 -29.61444664001465 C 488.2377014160156 -25.75194549560547 494.3943786621094 -34.8275260925293 480.09893798828125 -25.449647903442383" stroke-width="2.2986557483673096" fill="none" stroke="rgb(20, 0, 4)" stroke-opacity="1.0" stroke-linecap="round" stroke-linejoin="round"/>
    <path d="M 276.35614013671875 328.39520263671875 C 271.72564697265625 335.6237487792969 287.2353820800781 335.6477966308594 282.4465026855469 327.80841064453125" stroke-width="4.736554145812988" fill="none" stroke="rgb(0, 0, 14)" stroke-opacity="1.0" stroke-linecap="round" stroke-linejoin="round"/>
    <path d="M 449.5427551269531 102.54773712158203 C 415.9732666015625 276.4065246582031 425.831787109375 188.86106872558594 432.2103271484375 257.05743408203125 C 408.7353515625 224.2951202392578 452.4885559082031 305.20263671875 436.28265380859375 213.42149353027344 C 342.0491027832031 254.06076049804688 449.2294921875 197.25442504882812 505.30523681640625 192.39797973632812" stroke-width="2.6494171619415283" fill="none" stroke="rgb(255, 241, 243)" stroke-opacity="1.0" stroke-linecap="round" stroke-linejoin="round"/>
    <path d="M 265.2359924316406 302.8001708984375 C 225.55804443359375 215.59437561035156 309.870361328125 262.48590087890625 256.09161376953125 308.2613220214844" stroke-width="5.128950119018555" fill="none" stroke="rgb(141, 147, 123)" stroke-opacity="1.0" stroke-linecap="round" stroke-linejoin="round"/>
    <path d="M 264.6519470214844 398.0661926269531 C 261.2334289550781 276.9797668457031 280.8898010253906 365.800048828125 293.339111328125 466.4413146972656 C 297.5979919433594 406.08642578125 274.2433776855469 345.68243408203125 291.8730773925781 379.07879638671875 C 204.73728942871094 363.1578063964844 338.00433349609375 449.66534423828125 353.8244934082031 399.1909484863281" stroke-width="2.9547877311706543" fill="none" stroke="rgb(10, 0, 9)" stroke-opacity="1.0" stroke-linecap="round" stroke-linejoin="round"/>
    <path d="M 372.62677001953125 119.24429321289062 C 341.8096618652344 221.16781616210938 379.1802673339844 112.1435546875 354.7196960449219 213.683837890625" stroke-width="3.104231119155884" fill="none" stroke="rgb(202, 141, 65)" stroke-opacity="1.0" stroke-linecap="round" stroke-linejoin="round"/>
    <path d="M 185.08009338378906 381.66461181640625 C 126.07299041748047 426.16546630859375 99.67742919921875 367.7223815917969 229.86453247070312 362.5226745605469 C 262.12664794921875 318.7986145019531 170.070068359375 353.2530822753906 211.3949432373047 376.4767761230469 C 117.9219970703125 441.11083984375 256.1730041503906 389.8281555175781 221.1315460205078 410.7231750488281" stroke-width="7.942975044250488" fill="none" stroke="rgb(196, 86, 0)" stroke-opacity="1.0" stroke-linecap="round" stroke-linejoin="round"/>
    <path d="M 248.6017303466797 110.89861297607422 C 208.9098663330078 258.56549072265625 203.2157745361328 18.72234535217285 248.67904663085938 68.50926971435547 C 217.17803955078125 -38.10057067871094 257.6732482910156 93.44110870361328 225.6502227783203 143.8498077392578 C 249.0604248046875 6.184477806091309 210.9743194580078 7.021829128265381 225.55966186523438 140.66162109375" stroke-width="2.782402515411377" fill="none" stroke="rgb(17, 0, 6)" stroke-opacity="1.0" stroke-linecap="round" stroke-linejoin="round"/>
    <path d="M 48.545997619628906 465.4930114746094 C 34.195526123046875 414.90313720703125 62.04790496826172 415.9307861328125 56.121089935302734 455.443115234375" stroke-width="9.189209938049316" fill="none" stroke="rgb(0, 0, 9)" stroke-opacity="1.0" stroke-linecap="round" stroke-linejoin="round"/>
    <path d="M 46.84444046020508 289.22406005859375 C 23.54242515563965 189.81158447265625 60.95097732543945 270.6269226074219 19.34694480895996 219.26620483398438 C 38.01777648925781 318.8440246582031 10.86472225189209 251.37754821777344 37.51889419555664 261.92242431640625 C 21.01201820373535 174.264892578125 30.433813095092773 200.42745971679688 55.10572052001953 260.76898193359375" stroke-width="7.625750541687012" fill="none" stroke="rgb(0, 0, 10)" stroke-opacity="1.0" stroke-linecap="round" stroke-linejoin="round"/>
    <path d="M 80.64583587646484 102.17196655273438 C 117.28776550292969 238.4354248046875 94.68399810791016 33.84418487548828 92.39302825927734 111.08348083496094 C 117.30191040039062 133.84498596191406 94.67955017089844 54.8276481628418 120.10110473632812 281.7340087890625 C 74.85795593261719 51.505584716796875 54.55549621582031 150.27413940429688 153.47393798828125 132.7328643798828" stroke-width="2.1109344959259033" fill="none" stroke="rgb(6, 0, 15)" stroke-opacity="1.0" stroke-linecap="round" stroke-linejoin="round"/>
    <path d="M 384.4769592285156 72.45820617675781 C 346.7416076660156 246.1932373046875 403.82757568359375 213.82769775390625 369.5982666015625 92.59144592285156 C 325.9289245605469 266.1138610839844 372.8597412109375 212.51751708984375 331.22760009765625 233.81092834472656 C 342.7132873535156 324.0150146484375 301.3451232910156 181.5159912109375 316.71197509765625 288.3763427734375" stroke-width="2.329141139984131" fill="none" stroke="rgb(0, 0, 3)" stroke-opacity="1.0" stroke-linecap="round" stroke-linejoin="round"/>
    <path d="M 276.86346435546875 102.72706604003906 C 287.1796875 4.136508941650391 213.29542541503906 3.5387942790985107 286.86328125 14.194639205932617 C 270.8168029785156 -58.561954498291016 254.34080505371094 -14.66838550567627 288.9318542480469 38.818660736083984 C 252.93849182128906 174.20840454101562 306.45782470703125 13.800361633300781 275.984130859375 120.8409652709961" stroke-width="2.0" fill="none" stroke="rgb(0, 0, 17)" stroke-opacity="1.0" stroke-linecap="round" stroke-linejoin="round"/>
    <path d="M 444.9810791015625 76.5701904296875 C 405.6457824707031 -23.243942260742188 487.1689453125 91.05738067626953 414.8153991699219 79.76229858398438 C 412.8013916015625 255.33401489257812 445.0087890625 169.32620239257812 426.02044677734375 25.389909744262695" stroke-width="2.270653009414673" fill="none" stroke="rgb(0, 0, 0)" stroke-opacity="1.0" stroke-linecap="round" stroke-linejoin="round"/>
    <path d="M 230.2274627685547 387.4456481933594 C 287.24591064453125 446.5213928222656 369.5938415527344 403.0435485839844 359.674560546875 419.3148193359375 C 396.8705749511719 417.69122314453125 318.3749694824219 438.1086120605469 171.0085906982422 484.9779357910156" stroke-width="8.201255798339844" fill="none" stroke="rgb(171, 94, 28)" stroke-opacity="1.0" stroke-linecap="round" stroke-linejoin="round"/>
    <path d="M 46.4988899230957 376.5445861816406 C -93.34770202636719 334.4658203125 -98.08905792236328 458.69683837890625 33.210968017578125 435.0871276855469 C -29.15277671813965 349.06951904296875 103.7922592163086 378.61260986328125 57.9984130859375 341.0593566894531 C 60.30619812011719 470.6138916015625 45.3734245300293 381.7868957519531 50.74552917480469 411.1148986816406" stroke-width="3.471219778060913" fill="none" stroke="rgb(129, 75, 24)" stroke-opacity="1.0" stroke-linecap="round" stroke-linejoin="round"/>
    <path d="M 242.2524871826172 340.0564270019531 C 194.9112548828125 296.958740234375 235.02276611328125 418.7664489746094 209.34432983398438 247.027587890625" stroke-width="2.240361213684082" fill="none" stroke="rgb(0, 0, 14)" stroke-opacity="1.0" stroke-linecap="round" stroke-linejoin="round"/>
    <path d="M 324.4085693359375 77.79802703857422 C 401.8235778808594 51.124664306640625 315.33880615234375 128.05323791503906 253.2276153564453 126.11909484863281" stroke-width="9.556862831115723" fill="none" stroke="rgb(171, 79, 0)" stroke-opacity="1.0" stroke-linecap="round" stroke-linejoin="round"/>
    <path d="M 251.48080444335938 470.4649353027344 C 93.0888671875 500.9047546386719 164.97976684570312 527.8045043945312 126.67508697509766 455.20343017578125" stroke-width="2.0" fill="none" stroke="rgb(0, 38, 117)" stroke-opacity="1.0" stroke-linecap="round" stroke-linejoin="round"/>
    <path d="M 56.95427703857422 156.17503356933594 C 40.26731872558594 28.659088134765625 84.87254333496094 149.5634002685547 40.08595657348633 134.0970001220703" stroke-width="2.356458902359009" fill="none" stroke="rgb(2, 0, 32)" stroke-opacity="1.0" stroke-linecap="round" stroke-linejoin="round"/>
    <path d="M 435.595947265625 304.67230224609375 C 391.5728759765625 423.5078125 436.9200134277344 382.2502136230469 350.8634338378906 356.7405700683594" stroke-width="9.048300743103027" fill="none" stroke="rgb(1, 0, 0)" stroke-opacity="1.0" stroke-linecap="round" stroke-linejoin="round"/>
    <path d="M 333.9267578125 54.270530700683594 C 428.94464111328125 -12.788122177124023 391.94000244140625 51.82144546508789 355.0862731933594 66.37362670898438 C 352.21734619140625 108.23688507080078 415.0719299316406 33.816978454589844 468.64886474609375 30.347131729125977 C 375.4865417480469 114.36692810058594 347.48321533203125 52.329742431640625 410.37335205078125 20.329917907714844" stroke-width="8.864502906799316" fill="none" stroke="rgb(254, 120, 0)" stroke-opacity="1.0" stroke-linecap="round" stroke-linejoin="round"/>
    <path d="M 323.64141845703125 137.6859130859375 C 241.85586547851562 179.13990783691406 198.74720764160156 96.55755615234375 176.8712615966797 126.08596801757812" stroke-width="11.827217102050781" fill="none" stroke="rgb(202, 92, 0)" stroke-opacity="0.99096316" stroke-linecap="round" stroke-linejoin="round"/>
    <path d="M 231.06094360351562 459.4298095703125 C 180.2626495361328 481.72161865234375 162.69354248046875 437.39642333984375 170.5878143310547 497.9156494140625" stroke-width="3.1698710918426514" fill="none" stroke="rgb(0, 1, 12)" stroke-opacity="1.0" stroke-linecap="round" stroke-linejoin="round"/>
    <path d="M 349.5075378417969 416.8540344238281 C 329.27410888671875 305.3934631347656 417.79425048828125 377.9632568359375 248.13922119140625 384.2633056640625" stroke-width="7.5227370262146" fill="none" stroke="rgb(196, 95, 0)" stroke-opacity="0.962665" stroke-linecap="round" stroke-linejoin="round"/>
    <path d="M 314.24932861328125 182.25376892089844 C 263.0954284667969 228.13253784179688 226.50765991210938 177.12672424316406 243.21897888183594 277.6136474609375" stroke-width="3.456332206726074" fill="none" stroke="rgb(255, 253, 255)" stroke-opacity="1.0" stroke-linecap="round" stroke-linejoin="round"/>
    <path d="M 330.53948974609375 235.06912231445312 C 393.3581848144531 195.5009002685547 373.3808288574219 200.41860961914062 466.5111083984375 196.8391876220703 C 353.1708068847656 197.83831787109375 378.8793029785156 218.29437255859375 308.4164123535156 232.59942626953125" stroke-width="8.558852195739746" fill="none" stroke="rgb(215, 90, 0)" stroke-opacity="1.0" stroke-linecap="round" stroke-linejoin="round"/>
    <path d="M 79.70872497558594 52.816612243652344 C 134.83816528320312 37.33685302734375 222.6448974609375 47.24943542480469 130.93650817871094 18.655786514282227 C 149.4114532470703 -52.31770324707031 119.91543579101562 209.9606170654297 127.56784057617188 55.117942810058594" stroke-width="2.0" fill="none" stroke="rgb(5, 0, 5)" stroke-opacity="1.0" stroke-linecap="round" stroke-linejoin="round"/>
    <path d="M 213.58560180664062 103.6301040649414 C 315.3819885253906 170.6977996826172 318.3560791015625 65.41517639160156 336.5849914550781 137.52175903320312 C 461.2906799316406 116.77699279785156 459.534912109375 83.75633239746094 330.31292724609375 121.23026275634766 C 305.93316650390625 48.90361022949219 335.98974609375 103.4957046508789 258.94451904296875 108.20868682861328" stroke-width="9.511594772338867" fill="none" stroke="rgb(223, 104, 0)" stroke-opacity="1.0" stroke-linecap="round" stroke-linejoin="round"/>
    <path d="M 360.4488525390625 441.30828857421875 C 460.8324890136719 483.0343017578125 475.1437683105469 469.7466735839844 467.73577880859375 473.2591552734375 C 446.4971008300781 459.2683410644531 460.73577880859375 562.3463745117188 474.50616455078125 473.7730407714844 C 545.456787109375 449.1708068847656 557.6475830078125 424.9990539550781 469.26470947265625 455.83892822265625" stroke-width="8.7484712600708" fill="none" stroke="rgb(167, 104, 52)" stroke-opacity="1.0" stroke-linecap="round" stroke-linejoin="round"/>
    <path d="M 251.739501953125 303.83734130859375 C 292.42230224609375 320.6025390625 217.74957275390625 351.688232421875 260.84295654296875 255.82786560058594 C 159.05352783203125 300.0158386230469 317.7175598144531 246.16897583007812 314.56719970703125 195.90048217773438 C 363.9264831542969 147.14212036132812 358.6445007324219 225.67225646972656 198.22996520996094 139.87913513183594" stroke-width="9.37952709197998" fill="none" stroke="rgb(214, 104, 0)" stroke-opacity="1.0" stroke-linecap="round" stroke-linejoin="round"/>
    <path d="M 319.14080810546875 146.2665557861328 C 337.42083740234375 243.70822143554688 371.58453369140625 2.3587169647216797 319.2125244140625 137.3764190673828 C 329.8246765136719 19.248023986816406 392.67584228515625 55.36960983276367 327.9552001953125 108.74122619628906 C 527.7857666015625 96.33338928222656 383.3027038574219 104.88102722167969 276.4761657714844 146.17498779296875" stroke-width="2.0" fill="none" stroke="rgb(13, 0, 18)" stroke-opacity="0.9437417" stroke-linecap="round" stroke-linejoin="round"/>
    <path d="M 273.8436279296875 165.31417846679688 C 269.162841796875 22.175395965576172 266.76531982421875 190.26895141601562 232.2400665283203 188.0838165283203" stroke-width="2.061678886413574" fill="none" stroke="rgb(24, 0, 2)" stroke-opacity="1.0" stroke-linecap="round" stroke-linejoin="round"/>
    <path d="M 5.050612926483154 174.17550659179688 C 2.332301378250122 371.39239501953125 7.902163982391357 237.0653839111328 8.013648986816406 300.60302734375" stroke-width="5.487595558166504" fill="none" stroke="rgb(3, 0, 0)" stroke-opacity="0.9226696" stroke-linecap="round" stroke-linejoin="round"/>
    <path d="M 360.1741638183594 479.8170166015625 C 344.765625 420.70343017578125 339.839599609375 465.0632019042969 477.6095275878906 490.204345703125 C 264.46136474609375 419.9546203613281 377.9971008300781 441.7392883300781 358.1457214355469 426.6663818359375" stroke-width="2.0" fill="none" stroke="rgb(9, 0, 48)" stroke-opacity="1.0" stroke-linecap="round" stroke-linejoin="round"/>
    <path d="M 351.1912841796875 298.31048583984375 C 335.9648742675781 364.36151123046875 372.76275634765625 376.18182373046875 358.9533386230469 305.1812438964844 C 444.4150390625 280.7955627441406 357.6921691894531 322.79150390625 293.3030090332031 333.7298583984375" stroke-width="3.3335368633270264" fill="none" stroke="rgb(14, 0, 5)" stroke-opacity="1.0" stroke-linecap="round" stroke-linejoin="round"/>
    <path d="M 15.322178840637207 264.0666198730469 C 42.731040954589844 386.3546142578125 18.04461669921875 135.64028930664062 8.52434253692627 224.343505859375" stroke-width="6.8033013343811035" fill="none" stroke="rgb(0, 0, 5)" stroke-opacity="1.0" stroke-linecap="round" stroke-linejoin="round"/>
    <path d="M 297.5608215332031 216.467529296875 C 159.59176635742188 255.52528381347656 249.1435546875 339.944580078125 249.17007446289062 285.09429931640625 C 155.58702087402344 284.0403137207031 151.04017639160156 292.0770263671875 173.64950561523438 266.0002136230469" stroke-width="7.808838844299316" fill="none" stroke="rgb(199, 90, 0)" stroke-opacity="0.9828702" stroke-linecap="round" stroke-linejoin="round"/>
    <path d="M 175.49989318847656 425.7313232421875 C 183.19769287109375 302.50341796875 195.43605041503906 392.4998779296875 111.18904113769531 342.1724548339844 C 198.72882080078125 283.345458984375 186.7465057373047 440.2176818847656 134.87803649902344 383.85797119140625" stroke-width="2.0688211917877197" fill="none" stroke="rgb(8, 0, 0)" stroke-opacity="1.0" stroke-linecap="round" stroke-linejoin="round"/>
    <path d="M 64.99531555175781 301.3682861328125 C 55.315826416015625 334.3825988769531 60.361263275146484 296.5857849121094 46.08795928955078 249.8606414794922" stroke-width="2.23848557472229" fill="none" stroke="rgb(43, 14, 24)" stroke-opacity="1.0" stroke-linecap="round" stroke-linejoin="round"/>
    <path d="M 402.4277648925781 441.7552185058594 C 461.5733337402344 453.1808776855469 396.974853515625 443.569580078125 455.64666748046875 449.83831787109375" stroke-width="12.680521965026855" fill="none" stroke="rgb(0, 4, 0)" stroke-opacity="1.0" stroke-linecap="round" stroke-linejoin="round"/>
    <path d="M 66.0009765625 160.84507751464844 C 74.89131164550781 248.03225708007812 40.593326568603516 238.41363525390625 124.26467895507812 230.50379943847656" stroke-width="2.641934871673584" fill="none" stroke="rgb(255, 243, 255)" stroke-opacity="1.0" stroke-linecap="round" stroke-linejoin="round"/>
    <path d="M 500.1788024902344 411.3204345703125 C 466.02154541015625 461.9406433105469 448.51287841796875 393.5628356933594 421.13568115234375 527.4818725585938 C 377.23785400390625 447.3346252441406 433.967529296875 509.8909912109375 363.82861328125 483.43145751953125" stroke-width="3.88358211517334" fill="none" stroke="rgb(156, 133, 99)" stroke-opacity="1.0" stroke-linecap="round" stroke-linejoin="round"/>
    <path d="M 157.02871704101562 117.37004089355469 C 174.36373901367188 141.61961364746094 147.81689453125 45.1563720703125 152.72109985351562 123.32112884521484" stroke-width="3.3106629848480225" fill="none" stroke="rgb(0, 0, 28)" stroke-opacity="1.0" stroke-linecap="round" stroke-linejoin="round"/>
    <path d="M 68.2147445678711 407.7254943847656 C -23.5157413482666 437.44635009765625 -111.04512786865234 388.8453674316406 108.22895050048828 398.0206604003906" stroke-width="9.733242988586426" fill="none" stroke="rgb(174, 85, 11)" stroke-opacity="1.0" stroke-linecap="round" stroke-linejoin="round"/>
    <path d="M 461.1075744628906 342.23846435546875 C 443.26611328125 407.12860107421875 417.1297912597656 450.5146484375 475.5294494628906 393.8194274902344 C 418.27490234375 379.2879333496094 429.7059631347656 426.1719665527344 466.6360778808594 300.10626220703125 C 393.6326599121094 448.0624084472656 420.6046142578125 394.176513671875 433.5382080078125 344.96710205078125" stroke-width="7.008686065673828" fill="none" stroke="rgb(0, 0, 0)" stroke-opacity="1.0" stroke-linecap="round" stroke-linejoin="round"/>
    <path d="M 320.826904296875 208.821533203125 C 427.0966796875 174.95205688476562 332.7123718261719 222.59609985351562 285.07366943359375 220.39114379882812 C 270.6369934082031 275.2867431640625 335.05194091796875 102.84636688232422 297.5327453613281 212.14657592773438 C 292.802001953125 285.3263244628906 323.7030029296875 139.48194885253906 317.1556701660156 209.87709045410156" stroke-width="6.9798431396484375" fill="none" stroke="rgb(0, 0, 11)" stroke-opacity="1.0" stroke-linecap="round" stroke-linejoin="round"/>
    <path d="M 114.9210205078125 105.41011810302734 C 132.2104949951172 293.8684997558594 102.05065155029297 230.91915893554688 216.37013244628906 246.32318115234375 C 2.2903268337249756 252.4501190185547 95.24201965332031 266.44091796875 78.97237396240234 174.298828125" stroke-width="3.041872262954712" fill="none" stroke="rgb(255, 245, 240)" stroke-opacity="1.0" stroke-linecap="round" stroke-linejoin="round"/>
    <path d="M 401.4337158203125 5.65887451171875 C 272.6507263183594 26.545780181884766 240.93826293945312 17.238632202148438 326.52337646484375 -0.8501037955284119 C 348.7913513183594 -75.67992401123047 340.7320556640625 -71.92416381835938 362.36798095703125 -55.71348190307617 C 348.8253479003906 -6.361619472503662 356.46392822265625 -14.671669960021973 371.6657409667969 -28.064208984375" stroke-width="10.374310493469238" fill="none" stroke="rgb(125, 87, 55)" stroke-opacity="1.0" stroke-linecap="round" stroke-linejoin="round"/>
    <path d="M 118.1120376586914 420.162353515625 C 133.957275390625 513.5982055664062 139.27992248535156 524.45751953125 78.46375274658203 525.3720092773438 C 65.45713806152344 379.888427734375 98.37425231933594 329.4831237792969 93.31468963623047 520.4816284179688 C 103.84703826904297 491.6057434082031 116.03564453125 512.4078979492188 105.54059600830078 403.337646484375" stroke-width="2.822591781616211" fill="none" stroke="rgb(0, 0, 15)" stroke-opacity="1.0" stroke-linecap="round" stroke-linejoin="round"/>
    <path d="M 48.210975646972656 217.0917205810547 C -12.073179244995117 230.7950439453125 11.33276653289795 229.76824951171875 22.33643341064453 323.2297668457031" stroke-width="5.330738544464111" fill="none" stroke="rgb(130, 94, 65)" stroke-opacity="1.0" stroke-linecap="round" stroke-linejoin="round"/>
    <path d="M 329.60186767578125 10.552749633789062 C 334.4066162109375 -44.022151947021484 350.9734191894531 -93.0595703125 415.4666748046875 -141.47915649414062 C 316.3310546875 -34.34648895263672 317.4432067871094 -44.4475212097168 317.8460693359375 -25.85749053955078 C 316.7489318847656 -10.5415620803833 303.76995849609375 -10.79492473602295 288.9346618652344 -5.266345024108887" stroke-width="9.384130477905273" fill="none" stroke="rgb(16, 5, 1)" stroke-opacity="0.7797204" stroke-linecap="round" stroke-linejoin="round"/>
    <path d="M 461.38580322265625 368.9873046875 C 499.1094665527344 190.8359375 449.7501220703125 489.42816162109375 472.20513916015625 297.5899353027344" stroke-width="2.3099629878997803" fill="none" stroke="rgb(0, 0, 4)" stroke-opacity="1.0" stroke-linecap="round" stroke-linejoin="round"/>
    <path d="M 42.155731201171875 33.21877670288086 C 10.288984298706055 218.12112426757812 -2.7150025367736816 172.43397521972656 10.969074249267578 30.08506202697754 C -27.299997329711914 140.2144317626953 -96.10347747802734 99.8594970703125 -148.90406799316406 62.39543533325195 C -73.6045913696289 116.93711853027344 -60.532012939453125 101.68341827392578 -75.8255386352539 125.6838607788086" stroke-width="9.790962219238281" fill="none" stroke="rgb(18, 1, 0)" stroke-opacity="0.7493526" stroke-linecap="round" stroke-linejoin="round"/>
    <path d="M 53.94147491455078 29.45096206665039 C 53.83893585205078 112.90064239501953 78.93513488769531 54.884883880615234 61.52399826049805 44.05745315551758 C -64.22386169433594 80.08023071289062 66.45637512207031 100.1847152709961 0.23471029102802277 12.289745330810547" stroke-width="9.425531387329102" fill="none" stroke="rgb(0, 0, 0)" stroke-opacity="0.7109879" stroke-linecap="round" stroke-linejoin="round"/>
    <path d="M 499.22064208984375 71.89321899414062 C 537.3065185546875 61.563812255859375 481.7564697265625 219.28640747070312 487.7196960449219 108.49439239501953 C 390.77301025390625 168.92942810058594 367.25787353515625 135.78607177734375 476.51995849609375 86.07110595703125 C 479.8282775878906 77.75652313232422 476.45257568359375 90.91403198242188 520.0806274414062 56.728816986083984" stroke-width="9.1517972946167" fill="none" stroke="rgb(221, 105, 0)" stroke-opacity="1.0" stroke-linecap="round" stroke-linejoin="round"/>
    <path d="M 270.5910949707031 98.96137237548828 C 289.84716796875 -50.028076171875 264.416015625 -104.23345947265625 260.0766296386719 60.769325256347656 C 332.6737365722656 49.386714935302734 263.5134582519531 80.87523651123047 272.4187927246094 89.97402954101562" stroke-width="3.582120656967163" fill="none" stroke="rgb(130, 99, 76)" stroke-opacity="1.0" stroke-linecap="round" stroke-linejoin="round"/>
    <path d="M 442.0656433105469 296.9912109375 C 491.366943359375 283.2440185546875 283.70709228515625 303.18634033203125 395.0899658203125 278.832763671875 C 408.603515625 264.10675048828125 340.1770324707031 269.3180236816406 348.9942626953125 286.0191955566406 C 366.9884948730469 285.2880554199219 339.747314453125 265.3245544433594 341.63458251953125 290.5649719238281" stroke-width="3.0514559745788574" fill="none" stroke="rgb(0, 0, 9)" stroke-opacity="1.0" stroke-linecap="round" stroke-linejoin="round"/>
    <path d="M 493.3523254394531 -0.14098143577575684 C 499.4794616699219 217.49700927734375 486.6644287109375 201.5946044921875 482.3919372558594 31.71816062927246" stroke-width="9.47297477722168" fill="none" stroke="rgb(0, 7, 17)" stroke-opacity="0.77301186" stroke-linecap="round" stroke-linejoin="round"/>
    <path d="M 295.3361511230469 257.3973388671875 C 218.5694122314453 269.6580505371094 383.0745849609375 228.45327758789062 312.7674560546875 293.9820251464844 C 261.98651123046875 230.725830078125 284.6649475097656 315.2977600097656 302.5047607421875 302.0321044921875 C 312.80084228515625 240.15452575683594 300.1315002441406 353.8392639160156 320.85064697265625 322.7879333496094" stroke-width="7.9173173904418945" fill="none" stroke="rgb(4, 0, 0)" stroke-opacity="1.0" stroke-linecap="round" stroke-linejoin="round"/>
    <path d="M 223.4417266845703 358.24969482421875 C 207.45338439941406 327.19903564453125 244.8166046142578 392.79351806640625 334.2618408203125 332.7026062011719" stroke-width="2.0" fill="none" stroke="rgb(34, 0, 0)" stroke-opacity="1.0" stroke-linecap="round" stroke-linejoin="round"/>
    <path d="M 208.64453125 364.4027404785156 C 250.674072265625 354.300537109375 249.91966247558594 337.3904113769531 230.13365173339844 431.4351806640625" stroke-width="7.775798320770264" fill="none" stroke="rgb(51, 24, 9)" stroke-opacity="0.80966073" stroke-linecap="round" stroke-linejoin="round"/>
    <path d="M 105.85888671875 7.621758460998535 C -22.01471519470215 -0.13163769245147705 444.2805480957031 20.89682960510254 199.99581909179688 -14.595260620117188 C 161.0514678955078 5.220945835113525 146.92433166503906 -19.93144989013672 152.9966278076172 -33.24163818359375" stroke-width="8.217923164367676" fill="none" stroke="rgb(93, 75, 53)" stroke-opacity="0.84571385" stroke-linecap="round" stroke-linejoin="round"/>
    <path d="M 361.1151123046875 39.90768814086914 C 367.7672119140625 -106.66511535644531 388.97381591796875 179.51312255859375 358.4148864746094 0.17354652285575867" stroke-width="2.0" fill="none" stroke="rgb(75, 50, 46)" stroke-opacity="1.0" stroke-linecap="round" stroke-linejoin="round"/>
    <path d="M 46.40284729003906 451.4563293457031 C 27.396764755249023 523.1131591796875 7.194047451019287 564.1798095703125 12.797820091247559 573.4918212890625 C 41.93107223510742 512.2813720703125 50.46616744995117 529.6348266601562 31.861188888549805 542.32763671875" stroke-width="3.3800082206726074" fill="none" stroke="rgb(121, 112, 88)" stroke-opacity="1.0" stroke-linecap="round" stroke-linejoin="round"/>
    <path d="M 37.5959358215332 246.80908203125 C 25.243040084838867 335.12945556640625 51.560916900634766 366.326171875 31.609750747680664 463.2350769042969 C 65.55333709716797 456.646484375 22.54859161376953 373.65234375 19.33376121520996 515.95751953125" stroke-width="2.0" fill="none" stroke="rgb(54, 27, 23)" stroke-opacity="1.0" stroke-linecap="round" stroke-linejoin="round"/>
    <path d="M 113.28414154052734 295.70330810546875 C 117.803466796875 276.4942932128906 159.72348022460938 441.8209533691406 131.9320831298828 403.741455078125 C 108.99669647216797 385.3319091796875 228.94476318359375 404.7643127441406 113.95829010009766 393.6361389160156 C 119.82203674316406 379.69512939453125 183.8095245361328 406.2498474121094 16.75578498840332 455.0181884765625" stroke-width="6.850799560546875" fill="none" stroke="rgb(242, 108, 0)" stroke-opacity="1.0" stroke-linecap="round" stroke-linejoin="round"/>
    <path d="M 146.37059020996094 483.89691162109375 C 107.14106750488281 361.6550598144531 96.21492767333984 316.0353088378906 100.02425384521484 356.4004821777344" stroke-width="2.1928486824035645" fill="none" stroke="rgb(9, 0, 31)" stroke-opacity="1.0" stroke-linecap="round" stroke-linejoin="round"/>
    <path d="M 287.1819763183594 163.2033233642578 C 276.3653259277344 204.67137145996094 299.4292907714844 71.27305603027344 284.370361328125 92.32905578613281 C 279.7398986816406 186.47677612304688 267.56787109375 212.86691284179688 282.736328125 183.25669860839844" stroke-width="2.0037472248077393" fill="none" stroke="rgb(34, 0, 0)" stroke-opacity="1.0" stroke-linecap="round" stroke-linejoin="round"/>
    <path d="M 374.6561584472656 361.7222900390625 C 366.7862854003906 203.61447143554688 395.3025207519531 329.2939453125 368.344482421875 328.9335021972656 C 349.2332458496094 437.03472900390625 372.76385498046875 318.36688232421875 339.1792907714844 331.2304992675781 C 358.4611511230469 283.0272216796875 279.2379455566406 349.50860595703125 387.624267578125 314.2374267578125" stroke-width="2.807349681854248" fill="none" stroke="rgb(2, 0, 0)" stroke-opacity="1.0" stroke-linecap="round" stroke-linejoin="round"/>
    <path d="M 121.92941284179688 314.97747802734375 C 119.67889404296875 332.5979919433594 141.04783630371094 308.16534423828125 132.5321807861328 336.43890380859375 C 139.91033935546875 310.1815185546875 119.34813690185547 278.8329772949219 130.85353088378906 355.22857666015625 C 135.8070068359375 364.8656311035156 136.3311309814453 299.07476806640625 133.59950256347656 363.510498046875" stroke-width="3.031656503677368" fill="none" stroke="rgb(3, 0, 9)" stroke-opacity="1.0" stroke-linecap="round" stroke-linejoin="round"/>
    <path d="M 161.8214874267578 328.2752685546875 C 180.14129638671875 365.56005859375 115.23250579833984 339.31158447265625 213.69044494628906 328.6464538574219" stroke-width="2.267925500869751" fill="none" stroke="rgb(255, 242, 241)" stroke-opacity="0.76440775" stroke-linecap="round" stroke-linejoin="round"/>
    <path d="M 398.77020263671875 359.7291259765625 C 403.94891357421875 218.5482635498047 384.81048583984375 411.46051025390625 378.941650390625 364.2040100097656" stroke-width="6.594058036804199" fill="none" stroke="rgb(2, 0, 3)" stroke-opacity="1.0" stroke-linecap="round" stroke-linejoin="round"/>
    <path d="M 246.06996154785156 364.7320251464844 C 209.0456085205078 325.3410949707031 316.4068908691406 364.2369384765625 232.4698486328125 343.22314453125 C 247.50393676757812 297.4536437988281 188.6243133544922 292.03350830078125 180.87025451660156 325.9317626953125" stroke-width="6.059764862060547" fill="none" stroke="rgb(219, 100, 0)" stroke-opacity="1.0" stroke-linecap="round" stroke-linejoin="round"/>
    <path d="M 79.55480194091797 243.49322509765625 C -4.064096927642822 285.8492126464844 -128.4578399658203 308.7939758300781 65.91073608398438 228.5106964111328" stroke-width="10.521927833557129" fill="none" stroke="rgb(211, 95, 0)" stroke-opacity="0.9663821" stroke-linecap="round" stroke-linejoin="round"/>
    <path d="M 87.7787094116211 288.20391845703125 C 118.72781372070312 311.05596923828125 117.62208557128906 332.2815856933594 113.71073150634766 303.176025390625 C 92.57471466064453 292.65057373046875 124.22040557861328 377.968994140625 92.81803131103516 340.4916687011719" stroke-width="3.1411685943603516" fill="none" stroke="rgb(0, 0, 17)" stroke-opacity="1.0" stroke-linecap="round" stroke-linejoin="round"/>
    <path d="M 523.1121215820312 344.4617004394531 C 483.0509338378906 425.10430908203125 477.74365234375 358.14996337890625 365.45733642578125 339.0213317871094 C 521.7265014648438 454.53985595703125 557.990234375 417.2464294433594 258.4375305175781 396.4295349121094" stroke-width="9.665108680725098" fill="none" stroke="rgb(196, 93, 0)" stroke-opacity="0.88954645" stroke-linecap="round" stroke-linejoin="round"/>
    <path d="M 347.7317810058594 248.5841064453125 C 367.42730712890625 243.5487823486328 238.970947265625 299.52294921875 279.9448547363281 307.8538818359375 C 259.83917236328125 346.46142578125 428.51043701171875 262.881103515625 437.0972900390625 336.0657653808594 C 326.47271728515625 295.49468994140625 381.02838134765625 358.9007873535156 247.0788116455078 365.739501953125" stroke-width="9.27901840209961" fill="none" stroke="rgb(206, 99, 0)" stroke-opacity="1.0" stroke-linecap="round" stroke-linejoin="round"/>
    <path d="M 97.78953552246094 348.592041015625 C 48.91769027709961 374.54498291015625 -16.05253028869629 405.021728515625 116.48161315917969 340.3335876464844" stroke-width="10.775439262390137" fill="none" stroke="rgb(255, 126, 0)" stroke-opacity="1.0" stroke-linecap="round" stroke-linejoin="round"/>
    <path d="M 67.2009506225586 459.0293273925781 C 274.6453552246094 387.2757263183594 269.01031494140625 428.0452880859375 8.832387924194336 488.0894470214844 C 54.588623046875 481.6784973144531 107.79276275634766 502.74383544921875 59.99794006347656 467.1372375488281" stroke-width="10.095550537109375" fill="none" stroke="rgb(255, 126, 0)" stroke-opacity="1.0" stroke-linecap="round" stroke-linejoin="round"/>
    <path d="M 206.40321350097656 296.94549560546875 C 245.810791015625 373.0842590332031 203.2927703857422 244.0453643798828 239.72207641601562 318.55438232421875" stroke-width="6.69235897064209" fill="none" stroke="rgb(15, 0, 0)" stroke-opacity="0.8356635" stroke-linecap="round" stroke-linejoin="round"/>
    <path d="M 1.1260136365890503 302.09405517578125 C 76.62417602539062 255.22369384765625 143.58673095703125 242.36172485351562 95.18303680419922 312.35137939453125 C 77.08406829833984 223.82923889160156 37.24348449707031 275.837158203125 122.45738220214844 263.4233703613281 C 158.9832000732422 263.53814697265625 127.2449722290039 255.5980682373047 134.81788635253906 165.59080505371094" stroke-width="6.989765167236328" fill="none" stroke="rgb(164, 125, 85)" stroke-opacity="1.0" stroke-linecap="round" stroke-linejoin="round"/>
    <path d="M 26.28489112854004 185.1543426513672 C 18.259979248046875 145.4860076904297 10.58182144165039 245.35321044921875 29.265804290771484 120.95831298828125" stroke-width="2.329319715499878" fill="none" stroke="rgb(0, 0, 22)" stroke-opacity="1.0" stroke-linecap="round" stroke-linejoin="round"/>
    <path d="M 164.9088134765625 170.87448120117188 C 179.14295959472656 59.977657318115234 108.89640808105469 200.97132873535156 206.27842712402344 130.88279724121094 C 142.9882354736328 153.9941864013672 132.12596130371094 160.3572998046875 323.9062194824219 208.9275360107422 C 143.35720825195312 132.30731201171875 217.06576538085938 252.47445678710938 193.60321044921875 123.61859130859375" stroke-width="4.043728351593018" fill="none" stroke="rgb(186, 125, 72)" stroke-opacity="1.0" stroke-linecap="round" stroke-linejoin="round"/>
    <path d="M 195.81692504882812 478.52569580078125 C 203.0248565673828 283.049072265625 166.4831085205078 370.66168212890625 193.57447814941406 593.9926147460938 C 235.640380859375 393.1533203125 229.00070190429688 462.1907043457031 147.14175415039062 472.43756103515625" stroke-width="3.122210741043091" fill="none" stroke="rgb(177, 115, 67)" stroke-opacity="1.0" stroke-linecap="round" stroke-linejoin="round"/>
    <path d="M 263.97576904296875 461.1065368652344 C 292.093017578125 517.7691650390625 249.7268524169922 494.0505676269531 247.83387756347656 521.61083984375 C 254.6604461669922 468.3063659667969 268.2645568847656 489.2271728515625 254.40179443359375 538.5447387695312" stroke-width="2.001234292984009" fill="none" stroke="rgb(29, 5, 31)" stroke-opacity="1.0" stroke-linecap="round" stroke-linejoin="round"/>
    <path d="M 484.9449462890625 363.9376220703125 C 486.5841064453125 359.4927673339844 424.0818176269531 355.95098876953125 507.9278259277344 363.5477294921875 C 528.7885131835938 260.26739501953125 486.7374572753906 337.3595886230469 456.2622375488281 321.9366760253906" stroke-width="11.152053833007812" fill="none" stroke="rgb(205, 173, 146)" stroke-opacity="0.9385628" stroke-linecap="round" stroke-linejoin="round"/>
  </g>
</svg>
