<?xml version="1.0" ?>
<svg xmlns="http://www.w3.org/2000/svg" version="1.1" width="500" height="500">
  <defs/>
  <g>
    <path d="M 333.8664855957031 79.25099182128906 C 370.1665344238281 78.9341049194336 392.50299072265625 77.17024993896484 469.3210754394531 82.70296478271484 C 403.1732482910156 52.40522003173828 471.7773132324219 102.04500579833984 509.25543212890625 100.58164978027344" stroke-width="4.597280025482178" fill="none" stroke="rgb(0, 20, 61)" stroke-opacity="0.45786273" stroke-linecap="round" stroke-linejoin="round"/>
    <path d="M 471.5580139160156 86.08297729492188 C 516.6686401367188 99.64230346679688 504.67645263671875 18.67056655883789 495.8047180175781 55.050682067871094" stroke-width="3.6475703716278076" fill="none" stroke="rgb(162, 43, 0)" stroke-opacity="1.0" stroke-linecap="round" stroke-linejoin="round"/>
    <path d="M 177.65972900390625 480.0279235839844 C 177.1842041015625 513.4799194335938 193.7876739501953 491.5338439941406 196.65838623046875 482.4801940917969" stroke-width="9.138294219970703" fill="none" stroke="rgb(255, 53, 0)" stroke-opacity="1.0" stroke-linecap="round" stroke-linejoin="round"/>
    <path d="M 293.9922180175781 214.0361785888672 C 324.4775695800781 228.89942932128906 260.3951416015625 203.3286590576172 291.2879333496094 199.98358154296875 C 276.6697082519531 209.21847534179688 263.12200927734375 183.67030334472656 282.0441589355469 190.83782958984375 C 218.2045440673828 202.8095703125 246.42677307128906 171.71246337890625 279.4961853027344 184.091552734375" stroke-width="2.6505730152130127" fill="none" stroke="rgb(102, 0, 0)" stroke-opacity="1.0" stroke-linecap="round" stroke-linejoin="round"/>
    <path d="M 85.02218627929688 125.49760437011719 C 165.22450256347656 84.83360290527344 165.26556396484375 213.6510009765625 139.60769653320312 126.29003143310547 C 143.99691772460938 133.8136749267578 189.71922302246094 229.1592559814453 155.9659423828125 162.5559844970703 C 102.3929443359375 190.83792114257812 92.35018920898438 91.7630386352539 137.43930053710938 144.97789001464844" stroke-width="11.714607238769531" fill="none" stroke="rgb(255, 205, 125)" stroke-opacity="0.20297864" stroke-linecap="round" stroke-linejoin="round"/>
    <path d="M 85.68555450439453 374.85662841796875 C 25.732213973999023 322.67376708984375 14.029973030090332 373.59722900390625 16.773487091064453 344.5308837890625 C 110.49142456054688 333.0203552246094 18.188007354736328 318.8803405761719 -18.335132598876953 340.14697265625" stroke-width="2.5335404872894287" fill="none" stroke="rgb(73, 29, 13)" stroke-opacity="0.7281231" stroke-linecap="round" stroke-linejoin="round"/>
    <path d="M 191.26080322265625 167.9071044921875 C 181.0728759765625 176.82833862304688 205.72164916992188 160.5327606201172 178.6525421142578 145.8096466064453 C 201.95521545410156 169.86570739746094 176.0149383544922 170.07119750976562 206.59799194335938 161.45205688476562 C 192.23487854003906 205.3400421142578 233.63092041015625 180.5729522705078 235.72311401367188 124.55719757080078" stroke-width="2.0384697914123535" fill="none" stroke="rgb(255, 255, 255)" stroke-opacity="0.0" stroke-linecap="round" stroke-linejoin="round"/>
    <path d="M 107.49285125732422 74.46324157714844 C 178.46348571777344 71.066162109375 250.30372619628906 61.95524978637695 133.99557495117188 68.90184783935547 C 172.1195068359375 108.82179260253906 163.91458129882812 71.54163360595703 101.22071075439453 83.21800994873047" stroke-width="3.5290913581848145" fill="none" stroke="rgb(0, 21, 22)" stroke-opacity="0.538271" stroke-linecap="round" stroke-linejoin="round"/>
    <path d="M 79.9229736328125 317.63330078125 C 12.935519218444824 306.45465087890625 53.71776580810547 321.95550537109375 95.6403579711914 292.3364562988281 C 2.463277578353882 269.8713684082031 78.11993408203125 264.0094299316406 61.103248596191406 229.2650146484375 C -18.281925201416016 228.58523559570312 -5.716947078704834 226.3938446044922 123.95648956298828 231.64198303222656" stroke-width="2.0" fill="none" stroke="rgb(26, 14, 106)" stroke-opacity="0.5477182" stroke-linecap="round" stroke-linejoin="round"/>
    <path d="M 446.0059814453125 63.3234977722168 C 439.0804443359375 38.75383758544922 403.55224609375 54.983055114746094 322.4430847167969 58.83522415161133" stroke-width="13.555559158325195" fill="none" stroke="rgb(0, 106, 182)" stroke-opacity="0.6109702" stroke-linecap="round" stroke-linejoin="round"/>
    <path d="M 59.083553314208984 265.3896179199219 C 139.56854248046875 267.9794616699219 177.64390563964844 309.6231384277344 140.88926696777344 278.88189697265625 C 135.36416625976562 265.8825988769531 143.2095489501953 247.62379455566406 155.27674865722656 231.5878143310547 C 172.1019287109375 220.14132690429688 311.7256164550781 281.0132141113281 167.99473571777344 215.74134826660156" stroke-width="13.439682960510254" fill="none" stroke="rgb(0, 33, 121)" stroke-opacity="0.7259577" stroke-linecap="round" stroke-linejoin="round"/>
    <path d="M -1.9505369663238525 111.16627502441406 C 95.22549438476562 133.2904510498047 98.84467315673828 103.3489761352539 -15.275477409362793 88.97625732421875 C 48.523521423339844 119.65167999267578 77.75816345214844 80.67266082763672 76.33222961425781 70.6998519897461" stroke-width="12.841106414794922" fill="none" stroke="rgb(7, 170, 117)" stroke-opacity="0.6816096" stroke-linecap="round" stroke-linejoin="round"/>
    <path d="M 255.36317443847656 434.68927001953125 C 285.43963623046875 391.83489990234375 282.8101806640625 381.2450866699219 235.763427734375 451.0184326171875 C 296.64013671875 446.1486511230469 221.89129638671875 364.3353576660156 335.3497009277344 385.0188903808594 C 327.1353759765625 365.03759765625 322.4894714355469 387.0477294921875 334.53765869140625 343.44366455078125" stroke-width="10.567850112915039" fill="none" stroke="rgb(0, 0, 17)" stroke-opacity="1.0" stroke-linecap="round" stroke-linejoin="round"/>
    <path d="M 268.91778564453125 78.83866882324219 C 328.0210266113281 78.84812927246094 321.80609130859375 107.4461898803711 274.1311340332031 81.9063720703125" stroke-width="6.00629186630249" fill="none" stroke="rgb(3, 95, 13)" stroke-opacity="0.9835136" stroke-linecap="round" stroke-linejoin="round"/>
    <path d="M 378.9523010253906 199.38211059570312 C 393.29290771484375 87.77440643310547 377.2023620605469 111.62681579589844 438.79010009765625 170.1220245361328 C 345.995849609375 107.37796020507812 419.57305908203125 134.77499389648438 469.9244079589844 81.41596221923828 C 334.00946044921875 122.74684143066406 378.144287109375 42.2453498840332 342.57861328125 80.9892349243164" stroke-width="3.0502431392669678" fill="none" stroke="rgb(253, 251, 244)" stroke-opacity="1.0" stroke-linecap="round" stroke-linejoin="round"/>
    <path d="M 190.0014190673828 64.86505126953125 C 295.33807373046875 57.23505401611328 253.36248779296875 55.110260009765625 205.89968872070312 83.68991088867188" stroke-width="9.214117050170898" fill="none" stroke="rgb(0, 116, 255)" stroke-opacity="1.0" stroke-linecap="round" stroke-linejoin="round"/>
    <path d="M 145.44334411621094 310.75335693359375 C 127.14356231689453 342.4870300292969 165.5912628173828 193.8048095703125 143.35072326660156 273.6643371582031 C 199.98004150390625 289.004638671875 126.21501159667969 287.6056823730469 164.6585235595703 300.58221435546875" stroke-width="10.704071044921875" fill="none" stroke="rgb(255, 137, 22)" stroke-opacity="0.6233265" stroke-linecap="round" stroke-linejoin="round"/>
    <path d="M 125.47692108154297 60.627906799316406 C 196.70980834960938 50.07096862792969 212.25765991210938 28.666717529296875 195.51287841796875 33.671607971191406 C 172.89781188964844 50.82206726074219 184.2126007080078 61.31867218017578 196.52357482910156 49.441619873046875 C 99.67560577392578 55.98296356201172 133.33103942871094 97.30279541015625 118.02883911132812 37.86607360839844" stroke-width="2.420541763305664" fill="none" stroke="rgb(255, 99, 16)" stroke-opacity="0.53297037" stroke-linecap="round" stroke-linejoin="round"/>
    <path d="M 333.0426330566406 152.54196166992188 C 415.9573059082031 133.63934326171875 301.22650146484375 152.96070861816406 341.756103515625 159.32577514648438 C 345.6082458496094 144.05636596679688 305.7827453613281 181.30752563476562 363.3463134765625 129.13092041015625" stroke-width="5.311823844909668" fill="none" stroke="rgb(242, 124, 0)" stroke-opacity="1.0" stroke-linecap="round" stroke-linejoin="round"/>
    <path d="M 239.5030975341797 415.33990478515625 C 226.01797485351562 434.4041748046875 282.8025207519531 417.7630310058594 257.5542907714844 424.2566833496094 C 242.544189453125 456.0478515625 289.35552978515625 377.26275634765625 242.36045837402344 394.14776611328125" stroke-width="10.424951553344727" fill="none" stroke="rgb(255, 62, 0)" stroke-opacity="1.0" stroke-linecap="round" stroke-linejoin="round"/>
    <path d="M 518.3921508789062 113.06501007080078 C 556.1074829101562 129.3485565185547 473.97174072265625 113.5771713256836 409.8004150390625 122.32575988769531" stroke-width="10.70465087890625" fill="none" stroke="rgb(0, 150, 132)" stroke-opacity="1.0" stroke-linecap="round" stroke-linejoin="round"/>
    <path d="M 354.0461120605469 456.2145080566406 C 426.0047607421875 470.8244934082031 327.70733642578125 468.7969055175781 379.1292724609375 427.1170959472656 C 427.56475830078125 498.6875915527344 395.6536560058594 451.533203125 352.1410827636719 436.7272033691406" stroke-width="11.210153579711914" fill="none" stroke="rgb(172, 146, 10)" stroke-opacity="0.3214163" stroke-linecap="round" stroke-linejoin="round"/>
    <path d="M 339.9047546386719 380.3958435058594 C 318.5092468261719 412.3217468261719 282.5099792480469 397.97906494140625 286.9062194824219 422.1630859375" stroke-width="10.695899963378906" fill="none" stroke="rgb(165, 31, 0)" stroke-opacity="1.0" stroke-linecap="round" stroke-linejoin="round"/>
    <path d="M 16.81771469116211 417.98675537109375 C -11.087044715881348 403.4891052246094 -36.49447250366211 437.08367919921875 -46.64613342285156 446.1424560546875 C -31.450654983520508 429.3546142578125 -34.815834045410156 423.10772705078125 -46.17333221435547 425.4627380371094" stroke-width="6.722704887390137" fill="none" stroke="rgb(2, 224, 255)" stroke-opacity="0.64380807" stroke-linecap="round" stroke-linejoin="round"/>
    <path d="M 332.07196044921875 308.849609375 C 336.2062072753906 401.3128356933594 346.26702880859375 296.91552734375 328.44708251953125 271.0145263671875" stroke-width="4.312222003936768" fill="none" stroke="rgb(255, 102, 0)" stroke-opacity="0.69424814" stroke-linecap="round" stroke-linejoin="round"/>
    <path d="M 225.79298400878906 393.2270202636719 C 281.54962158203125 310.4458923339844 256.9841003417969 362.93218994140625 230.1780548095703 406.4830017089844" stroke-width="10.208352088928223" fill="none" stroke="rgb(35, 8, 0)" stroke-opacity="0.77421814" stroke-linecap="round" stroke-linejoin="round"/>
    <path d="M 228.58082580566406 110.31441497802734 C 310.4044494628906 107.9195556640625 310.281494140625 87.582275390625 260.4428405761719 132.47860717773438" stroke-width="2.348940134048462" fill="none" stroke="rgb(255, 255, 255)" stroke-opacity="0.0" stroke-linecap="round" stroke-linejoin="round"/>
    <path d="M 158.86448669433594 272.1351013183594 C 167.16464233398438 246.5314178466797 146.79273986816406 317.7876892089844 277.14825439453125 291.3777770996094" stroke-width="4.627132892608643" fill="none" stroke="rgb(0, 169, 226)" stroke-opacity="0.92753667" stroke-linecap="round" stroke-linejoin="round"/>
    <path d="M 296.4270324707031 47.87559127807617 C 307.1539611816406 123.20844268798828 330.9582214355469 115.52436828613281 272.7684631347656 67.97587585449219 C 342.6954040527344 109.19558715820312 352.8882141113281 126.44080352783203 311.0653381347656 121.2230453491211 C 297.75567626953125 140.65234375 316.2820739746094 132.10040283203125 353.2683410644531 140.07839965820312" stroke-width="10.391031265258789" fill="none" stroke="rgb(6, 0, 3)" stroke-opacity="1.0" stroke-linecap="round" stroke-linejoin="round"/>
    <path d="M 65.1702651977539 323.1270446777344 C 128.04257202148438 313.0935363769531 85.87432098388672 313.8486633300781 53.50871658325195 297.2237548828125 C 111.95917510986328 305.1103820800781 149.98751831054688 256.8098449707031 53.99385452270508 252.35752868652344" stroke-width="11.64140796661377" fill="none" stroke="rgb(0, 0, 1)" stroke-opacity="1.0" stroke-linecap="round" stroke-linejoin="round"/>
    <path d="M 402.1091613769531 441.5293884277344 C 458.91033935546875 432.8147888183594 411.84375 438.2265625 483.35302734375 438.8442077636719 C 496.72674560546875 469.6077880859375 401.8736877441406 427.54803466796875 451.722900390625 461.2375183105469" stroke-width="9.53289794921875" fill="none" stroke="rgb(41, 125, 0)" stroke-opacity="0.3356331" stroke-linecap="round" stroke-linejoin="round"/>
    <path d="M 112.4088134765625 86.69477844238281 C 117.147216796875 -19.76094627380371 141.25083923339844 -6.903215408325195 186.4955596923828 32.01799011230469" stroke-width="2.813601493835449" fill="none" stroke="rgb(255, 255, 255)" stroke-opacity="1.0" stroke-linecap="round" stroke-linejoin="round"/>
    <path d="M 176.9282684326172 310.7093505859375 C 211.2176055908203 292.0576171875 198.8780975341797 332.4249572753906 226.25535583496094 292.8055419921875 C 211.2045135498047 319.7377624511719 240.34185791015625 296.76800537109375 268.8969421386719 332.5037841796875 C 267.4349365234375 261.0265197753906 301.2762145996094 364.7265319824219 226.92050170898438 326.5616760253906" stroke-width="2.0" fill="none" stroke="rgb(2, 100, 0)" stroke-opacity="0.56853163" stroke-linecap="round" stroke-linejoin="round"/>
    <path d="M 470.33477783203125 38.10771179199219 C 459.50726318359375 20.23011589050293 447.7859802246094 28.58892822265625 465.732666015625 12.616793632507324 C 457.50860595703125 10.109942436218262 454.4897155761719 23.881013870239258 432.5158386230469 18.14896583557129" stroke-width="2.066793918609619" fill="none" stroke="rgb(255, 255, 255)" stroke-opacity="0.0" stroke-linecap="round" stroke-linejoin="round"/>
    <path d="M 114.51258087158203 445.2021789550781 C 120.26404571533203 460.10125732421875 110.26493835449219 451.3919372558594 -22.535381317138672 463.6761474609375" stroke-width="9.016011238098145" fill="none" stroke="rgb(17, 0, 17)" stroke-opacity="0.8197276" stroke-linecap="round" stroke-linejoin="round"/>
    <path d="M 180.8249969482422 289.2975769042969 C 147.45535278320312 337.4575500488281 114.63773345947266 302.9941101074219 111.64132690429688 254.60403442382812" stroke-width="2.0" fill="none" stroke="rgb(170, 8, 0)" stroke-opacity="0.5188645" stroke-linecap="round" stroke-linejoin="round"/>
    <path d="M 411.2651672363281 72.87515258789062 C 336.4530334472656 66.61486053466797 442.2957458496094 56.66350173950195 370.44677734375 63.190650939941406 C 486.0133361816406 52.336605072021484 454.1497802734375 57.724422454833984 308.8710632324219 67.5530014038086" stroke-width="9.899847030639648" fill="none" stroke="rgb(0, 100, 86)" stroke-opacity="0.52690566" stroke-linecap="round" stroke-linejoin="round"/>
    <path d="M 102.45926666259766 448.1396789550781 C 40.63716125488281 406.1552429199219 100.36094665527344 395.2658386230469 58.20611572265625 425.7480163574219 C 76.4698257446289 370.1533508300781 19.78834342956543 429.8074951171875 60.97542190551758 397.1275634765625" stroke-width="9.320719718933105" fill="none" stroke="rgb(224, 109, 0)" stroke-opacity="0.87273276" stroke-linecap="round" stroke-linejoin="round"/>
    <path d="M 145.7939453125 223.7344512939453 C 173.0087127685547 205.11508178710938 139.0724334716797 170.82708740234375 159.7265167236328 248.2954559326172 C 118.98954772949219 241.50131225585938 129.78355407714844 249.48870849609375 114.34528350830078 203.69113159179688 C 126.56733703613281 258.0412902832031 121.8842544555664 251.16285705566406 141.36595153808594 248.93167114257812" stroke-width="8.995606422424316" fill="none" stroke="rgb(112, 21, 0)" stroke-opacity="1.0" stroke-linecap="round" stroke-linejoin="round"/>
    <path d="M 206.01551818847656 54.7841796875 C 207.8456573486328 10.193548202514648 198.00177001953125 25.905902862548828 199.37332153320312 55.84938049316406" stroke-width="2.6396851539611816" fill="none" stroke="rgb(237, 58, 0)" stroke-opacity="1.0" stroke-linecap="round" stroke-linejoin="round"/>
    <path d="M 352.9122009277344 117.68770599365234 C 391.48468017578125 158.76780700683594 340.8143005371094 80.72500610351562 333.6436767578125 124.79805755615234" stroke-width="4.039849281311035" fill="none" stroke="rgb(255, 82, 0)" stroke-opacity="1.0" stroke-linecap="round" stroke-linejoin="round"/>
    <path d="M 164.81834411621094 378.2528991699219 C 189.91058349609375 442.3896789550781 196.22454833984375 400.3175964355469 160.4256134033203 373.2298583984375 C 235.72906494140625 349.00994873046875 102.78472137451172 367.32244873046875 119.50565338134766 363.7875671386719 C 111.34370422363281 372.2254333496094 152.3740692138672 382.02252197265625 144.62229919433594 350.4854431152344" stroke-width="4.077842712402344" fill="none" stroke="rgb(44, 94, 98)" stroke-opacity="0.27856" stroke-linecap="round" stroke-linejoin="round"/>
    <path d="M 200.10256958007812 171.3801727294922 C 173.05628967285156 129.38705444335938 103.74968719482422 130.98939514160156 140.2869415283203 180.11424255371094" stroke-width="2.0" fill="none" stroke="rgb(171, 192, 174)" stroke-opacity="0.09210377" stroke-linecap="round" stroke-linejoin="round"/>
    <path d="M 125.2219467163086 222.34970092773438 C 110.53465270996094 205.75338745117188 145.68557739257812 267.33453369140625 180.4389190673828 252.613525390625" stroke-width="9.585625648498535" fill="none" stroke="rgb(135, 126, 70)" stroke-opacity="0.53503704" stroke-linecap="round" stroke-linejoin="round"/>
    <path d="M 82.36930084228516 83.75888061523438 C 132.8691864013672 79.65361022949219 209.9765625 107.33660888671875 111.87564086914062 89.5814208984375 C 172.79551696777344 66.15885162353516 84.51415252685547 51.89933776855469 126.7558822631836 94.22921752929688" stroke-width="2.0209996700286865" fill="none" stroke="rgb(56, 67, 122)" stroke-opacity="0.6140908" stroke-linecap="round" stroke-linejoin="round"/>
    <path d="M 155.6601104736328 77.08045959472656 C 276.3520812988281 68.57897186279297 317.77325439453125 83.95138549804688 133.1368408203125 86.20783233642578 C 224.97564697265625 123.15326690673828 307.34625244140625 62.67538833618164 164.88414001464844 99.47123718261719" stroke-width="9.592472076416016" fill="none" stroke="rgb(0, 81, 78)" stroke-opacity="1.0" stroke-linecap="round" stroke-linejoin="round"/>
    <path d="M 56.687068939208984 320.9147033691406 C 116.59370422363281 327.4180603027344 98.8436279296875 374.163330078125 117.38597106933594 306.2798767089844" stroke-width="4.192777633666992" fill="none" stroke="rgb(140, 47, 0)" stroke-opacity="1.0" stroke-linecap="round" stroke-linejoin="round"/>
    <path d="M 159.48709106445312 414.27789306640625 C 174.77784729003906 469.6361083984375 195.6593780517578 335.121826171875 143.00112915039062 429.30145263671875" stroke-width="9.173744201660156" fill="none" stroke="rgb(67, 38, 0)" stroke-opacity="0.3129094" stroke-linecap="round" stroke-linejoin="round"/>
    <path d="M 264.73443603515625 380.2371520996094 C 280.2094421386719 390.50238037109375 257.5977478027344 345.79058837890625 294.6045227050781 389.974853515625 C 330.89141845703125 392.7295227050781 256.6689453125 394.4640808105469 232.63243103027344 436.3067626953125" stroke-width="6.534427642822266" fill="none" stroke="rgb(255, 41, 0)" stroke-opacity="0.79864466" stroke-linecap="round" stroke-linejoin="round"/>
    <path d="M 353.90618896484375 274.88897705078125 C 443.6631774902344 271.5815124511719 368.28375244140625 304.5863037109375 365.4657287597656 268.4850769042969 C 390.28204345703125 244.1463165283203 415.4089660644531 278.1609802246094 386.84234619140625 281.1220703125 C 369.2550964355469 296.78228759765625 473.06365966796875 314.9480895996094 394.00103759765625 300.0362243652344" stroke-width="3.4437575340270996" fill="none" stroke="rgb(191, 118, 0)" stroke-opacity="1.0" stroke-linecap="round" stroke-linejoin="round"/>
    <path d="M 276.624755859375 14.996587753295898 C 239.5810089111328 86.7057113647461 292.87298583984375 79.35565948486328 171.3174285888672 76.2469711303711 C 243.6703643798828 52.8562126159668 226.5142364501953 39.65589141845703 188.93975830078125 59.075828552246094 C 281.546875 50.2160758972168 301.95819091796875 73.83121490478516 195.17190551757812 42.35407638549805" stroke-width="10.720853805541992" fill="none" stroke="rgb(0, 5, 50)" stroke-opacity="0.55571157" stroke-linecap="round" stroke-linejoin="round"/>
    <path d="M -27.557832717895508 431.1958923339844 C 13.027111053466797 438.6746520996094 42.20554733276367 415.5025939941406 36.60051345825195 392.6395568847656" stroke-width="6.624719142913818" fill="none" stroke="rgb(153, 255, 40)" stroke-opacity="0.5063026" stroke-linecap="round" stroke-linejoin="round"/>
    <path d="M 287.4669494628906 84.09861755371094 C 303.87017822265625 62.665348052978516 285.5110168457031 55.65394592285156 247.97271728515625 88.6248550415039 C 315.6371765136719 124.75145721435547 356.6515808105469 123.33487701416016 258.3586120605469 72.55104064941406" stroke-width="10.054051399230957" fill="none" stroke="rgb(255, 20, 0)" stroke-opacity="0.6007947" stroke-linecap="round" stroke-linejoin="round"/>
    <path d="M 321.48858642578125 328.9007263183594 C 358.61773681640625 287.892333984375 262.4717712402344 360.1258850097656 304.5057678222656 311.3409729003906" stroke-width="16.058774948120117" fill="none" stroke="rgb(106, 30, 0)" stroke-opacity="0.77343214" stroke-linecap="round" stroke-linejoin="round"/>
    <path d="M -5.018126487731934 298.2132263183594 C 121.4555435180664 291.7708435058594 118.52001190185547 263.79827880859375 -5.0845232009887695 287.1500244140625" stroke-width="13.456133842468262" fill="none" stroke="rgb(0, 101, 109)" stroke-opacity="1.0" stroke-linecap="round" stroke-linejoin="round"/>
    <path d="M 296.6610107421875 375.54754638671875 C 338.76055908203125 379.65765380859375 302.6572265625 316.16595458984375 310.0354919433594 370.9147033691406 C 301.39312744140625 392.7275085449219 337.4686584472656 360.9802551269531 329.1190185546875 306.7515869140625" stroke-width="3.4230124950408936" fill="none" stroke="rgb(59, 18, 4)" stroke-opacity="0.9821434" stroke-linecap="round" stroke-linejoin="round"/>
    <path d="M 247.31422424316406 112.48209381103516 C 276.1958312988281 139.27272033691406 323.8065185546875 88.57865142822266 296.561279296875 122.71943664550781" stroke-width="7.311712741851807" fill="none" stroke="rgb(164, 93, 0)" stroke-opacity="1.0" stroke-linecap="round" stroke-linejoin="round"/>
    <path d="M -5.203919410705566 80.34767150878906 C 4.489174842834473 80.83973693847656 -15.504883766174316 85.16437530517578 -12.635819435119629 77.66921997070312 C 108.34404754638672 63.86618423461914 115.10791015625 67.26395416259766 2.8038668632507324 79.82119750976562 C -37.42974090576172 82.01970672607422 -26.539323806762695 104.59919738769531 -31.53301239013672 115.8211669921875" stroke-width="12.665411949157715" fill="none" stroke="rgb(0, 44, 120)" stroke-opacity="0.50723386" stroke-linecap="round" stroke-linejoin="round"/>
    <path d="M 182.24456787109375 512.632080078125 C 164.26156616210938 522.9899291992188 208.54852294921875 474.08575439453125 168.4219512939453 451.3822937011719 C 136.91539001464844 471.25311279296875 121.1704330444336 479.6212463378906 117.92414093017578 463.4153747558594 C 183.68316650390625 457.6815185546875 126.95582580566406 463.7298278808594 169.2288360595703 494.8858337402344" stroke-width="3.676992893218994" fill="none" stroke="rgb(0, 0, 57)" stroke-opacity="1.0" stroke-linecap="round" stroke-linejoin="round"/>
    <path d="M 179.0669708251953 384.8274841308594 C 144.00811767578125 430.0207824707031 230.2701416015625 407.6252136230469 163.2939910888672 388.5406799316406" stroke-width="10.491279602050781" fill="none" stroke="rgb(116, 106, 0)" stroke-opacity="0.44090536" stroke-linecap="round" stroke-linejoin="round"/>
    <path d="M 276.12017822265625 76.1209487915039 C 257.6183776855469 -2.6258137226104736 280.4263000488281 13.904156684875488 296.48016357421875 73.61763000488281 C 289.2759094238281 116.00728607177734 292.89947509765625 -11.199223518371582 261.0597229003906 27.161489486694336 C 232.0915985107422 59.67593765258789 256.5380554199219 55.305999755859375 253.21908569335938 41.280277252197266" stroke-width="2.957753896713257" fill="none" stroke="rgb(255, 53, 0)" stroke-opacity="1.0" stroke-linecap="round" stroke-linejoin="round"/>
    <path d="M 95.23100280761719 78.12590026855469 C -23.07455062866211 89.08931732177734 -41.867332458496094 73.03999328613281 -11.216104507446289 111.44155883789062 C -25.36602020263672 101.6698226928711 -46.26746368408203 89.44622039794922 -62.30170440673828 65.28002166748047" stroke-width="6.447919845581055" fill="none" stroke="rgb(0, 0, 224)" stroke-opacity="1.0" stroke-linecap="round" stroke-linejoin="round"/>
    <path d="M 100.85951232910156 100.25132751464844 C -22.04863929748535 108.52993774414062 107.81060791015625 34.84431838989258 96.17679595947266 91.24968719482422 C 75.57489013671875 84.51312255859375 -61.42987060546875 66.12975311279297 -8.162671089172363 135.84286499023438" stroke-width="13.62241268157959" fill="none" stroke="rgb(0, 80, 152)" stroke-opacity="0.878397" stroke-linecap="round" stroke-linejoin="round"/>
    <path d="M 245.72210693359375 85.937744140625 C 263.74310302734375 119.31952667236328 339.92303466796875 111.96247863769531 294.21197509765625 93.87503051757812 C 252.2146453857422 147.5250244140625 303.33282470703125 126.66781616210938 317.32452392578125 148.70738220214844 C 222.86705017089844 116.6662826538086 251.62315368652344 121.61428833007812 345.4639892578125 139.32424926757812" stroke-width="3.480684518814087" fill="none" stroke="rgb(37, 130, 144)" stroke-opacity="0.92386127" stroke-linecap="round" stroke-linejoin="round"/>
    <path d="M 17.41893768310547 147.77862548828125 C 150.08563232421875 145.20556640625 11.008576393127441 205.5582733154297 28.34343147277832 118.623779296875 C 132.35621643066406 181.19837951660156 67.92889404296875 100.15338897705078 140.46255493164062 131.25335693359375" stroke-width="12.396157264709473" fill="none" stroke="rgb(182, 193, 80)" stroke-opacity="0.1964484" stroke-linecap="round" stroke-linejoin="round"/>
    <path d="M 308.73785400390625 38.7814826965332 C 312.8914794921875 145.08087158203125 321.40478515625 111.97820281982422 299.84344482421875 113.23735809326172 C 264.8854675292969 86.31546783447266 353.23065185546875 163.09945678710938 355.8872375488281 102.62187194824219" stroke-width="11.623222351074219" fill="none" stroke="rgb(3, 0, 9)" stroke-opacity="1.0" stroke-linecap="round" stroke-linejoin="round"/>
    <path d="M 277.17279052734375 390.975830078125 C 320.33056640625 365.22509765625 321.67156982421875 390.1597595214844 291.62261962890625 395.97491455078125 C 309.4880065917969 374.84942626953125 345.92303466796875 430.3839111328125 331.4137878417969 387.4032287597656 C 307.7195739746094 351.04949951171875 253.88160705566406 403.7018737792969 294.49951171875 371.9575500488281" stroke-width="9.859597206115723" fill="none" stroke="rgb(216, 0, 58)" stroke-opacity="0.90633607" stroke-linecap="round" stroke-linejoin="round"/>
    <path d="M 441.4062805175781 197.12315368652344 C 413.2798767089844 252.8590087890625 446.27716064453125 254.0644989013672 443.1934814453125 217.70285034179688 C 436.2496032714844 184.38084411621094 455.9031066894531 185.70596313476562 423.73883056640625 215.37184143066406" stroke-width="2.977445602416992" fill="none" stroke="rgb(207, 69, 0)" stroke-opacity="1.0" stroke-linecap="round" stroke-linejoin="round"/>
    <path d="M 258.22894287109375 37.52680969238281 C 275.0557556152344 115.23987579345703 270.6302795410156 -18.580087661743164 273.8026123046875 -20.120689392089844 C 299.1387634277344 45.74549865722656 292.9030456542969 -0.3727501630783081 310.102783203125 -52.87117004394531" stroke-width="8.780322074890137" fill="none" stroke="rgb(0, 0, 4)" stroke-opacity="1.0" stroke-linecap="round" stroke-linejoin="round"/>
    <path d="M 453.4877014160156 410.8512268066406 C 428.306884765625 415.9178771972656 426.09765625 385.2160949707031 462.8697509765625 415.3414611816406 C 335.0407409667969 426.9177551269531 461.787353515625 429.4141540527344 399.9292907714844 376.5000305175781 C 371.01416015625 350.00604248046875 367.2950134277344 370.3751220703125 367.4109802246094 348.79193115234375" stroke-width="2.0091421604156494" fill="none" stroke="rgb(74, 39, 32)" stroke-opacity="0.42279282" stroke-linecap="round" stroke-linejoin="round"/>
    <path d="M 265.9906921386719 488.59967041015625 C 273.7451171875 469.47271728515625 224.75648498535156 443.61663818359375 232.46795654296875 485.80059814453125 C 199.8492431640625 503.8572998046875 281.3522033691406 525.2182006835938 242.0882568359375 469.2166748046875 C 220.1966552734375 444.4872131347656 293.8075256347656 453.61865234375 238.3136749267578 469.9830017089844" stroke-width="5.339329719543457" fill="none" stroke="rgb(189, 94, 47)" stroke-opacity="0.39569533" stroke-linecap="round" stroke-linejoin="round"/>
    <path d="M 162.58282470703125 265.3381042480469 C 208.8668212890625 281.4045104980469 230.30615234375 309.1324462890625 173.1636962890625 273.5213928222656 C 237.63087463378906 270.3217468261719 298.4936828613281 293.1939697265625 178.8823699951172 286.0032653808594" stroke-width="11.994014739990234" fill="none" stroke="rgb(0, 56, 53)" stroke-opacity="1.0" stroke-linecap="round" stroke-linejoin="round"/>
    <path d="M 153.7664031982422 505.1600341796875 C 217.34518432617188 486.6529846191406 258.59649658203125 504.49346923828125 217.39382934570312 480.5640869140625 C 169.79818725585938 469.3338317871094 153.5956268310547 404.01239013671875 230.0334930419922 423.7604064941406 C 232.4109649658203 437.0277099609375 222.9793243408203 454.2071838378906 230.95790100097656 399.4803466796875" stroke-width="3.331624746322632" fill="none" stroke="rgb(0, 136, 255)" stroke-opacity="1.0" stroke-linecap="round" stroke-linejoin="round"/>
    <path d="M 67.01016998291016 435.4291076660156 C 84.44139099121094 414.3819580078125 76.46846771240234 430.71954345703125 100.4657974243164 448.77801513671875 C 107.8056640625 388.56494140625 119.30631256103516 448.7099914550781 136.60293579101562 457.9444274902344 C 188.9364013671875 538.1196899414062 148.05303955078125 498.4559326171875 189.8652801513672 424.8146667480469" stroke-width="2.0" fill="none" stroke="rgb(0, 5, 30)" stroke-opacity="0.8476016" stroke-linecap="round" stroke-linejoin="round"/>
    <path d="M 268.26068115234375 370.85211181640625 C 245.68650817871094 401.60028076171875 188.66766357421875 435.1157531738281 241.91336059570312 393.721435546875" stroke-width="7.6069207191467285" fill="none" stroke="rgb(133, 255, 0)" stroke-opacity="1.0" stroke-linecap="round" stroke-linejoin="round"/>
    <path d="M 134.0220489501953 390.55047607421875 C 14.776798248291016 345.9069519042969 80.14196014404297 414.3604736328125 97.89764404296875 388.3638610839844 C 113.33236694335938 353.17132568359375 58.161476135253906 371.3335266113281 114.1550521850586 335.49658203125" stroke-width="4.084380149841309" fill="none" stroke="rgb(243, 94, 0)" stroke-opacity="1.0" stroke-linecap="round" stroke-linejoin="round"/>
    <path d="M 86.61617279052734 94.67366027832031 C -20.418310165405273 95.8102798461914 -18.654233932495117 117.99703979492188 -9.680845260620117 119.43196868896484" stroke-width="2.0" fill="none" stroke="rgb(75, 255, 255)" stroke-opacity="0.7077402" stroke-linecap="round" stroke-linejoin="round"/>
    <path d="M 98.87518310546875 88.36962127685547 C 99.71171569824219 51.716697692871094 94.00580596923828 29.070985794067383 112.13497161865234 1.222128987312317 C 119.5439224243164 -26.14006996154785 112.92884826660156 20.759933471679688 82.6383285522461 58.80591583251953 C 113.14691925048828 -12.31528091430664 117.61634063720703 54.657073974609375 99.80301666259766 -38.66536331176758" stroke-width="2.9385592937469482" fill="none" stroke="rgb(255, 67, 0)" stroke-opacity="1.0" stroke-linecap="round" stroke-linejoin="round"/>
    <path d="M 407.7616882324219 93.36544799804688 C 362.6665954589844 125.87398529052734 340.53887939453125 72.37422943115234 342.84967041015625 42.52042770385742 C 414.776611328125 31.17796516418457 370.78680419921875 -31.797760009765625 371.1136779785156 8.615671157836914 C 420.27301025390625 59.592437744140625 411.73358154296875 16.632287979125977 381.19482421875 -2.648191213607788" stroke-width="2.040158271789551" fill="none" stroke="rgb(255, 254, 255)" stroke-opacity="0.5340936" stroke-linecap="round" stroke-linejoin="round"/>
    <path d="M 515.5177612304688 381.9360656738281 C 473.4169006347656 372.02520751953125 502.8594970703125 387.7589111328125 498.7257385253906 339.2333068847656 C 505.46990966796875 299.84698486328125 479.9456787109375 354.5345153808594 528.1615600585938 323.11572265625 C 470.2933044433594 306.7611999511719 484.2303771972656 290.7439880371094 544.5541381835938 294.6038818359375" stroke-width="10.38656234741211" fill="none" stroke="rgb(62, 23, 0)" stroke-opacity="1.0" stroke-linecap="round" stroke-linejoin="round"/>
    <path d="M 436.5744323730469 244.08448791503906 C 383.3116455078125 250.05398559570312 419.4992370605469 238.4917449951172 318.3719482421875 205.23097229003906 C 401.7910461425781 219.01319885253906 365.3770751953125 148.71148681640625 397.0263671875 207.70755004882812 C 414.6359558105469 213.2628173828125 453.8524475097656 248.9788818359375 404.056640625 195.23399353027344" stroke-width="9.747247695922852" fill="none" stroke="rgb(212, 84, 0)" stroke-opacity="1.0" stroke-linecap="round" stroke-linejoin="round"/>
    <path d="M 374.2498779296875 85.1958999633789 C 295.6850280761719 81.91580200195312 311.637939453125 72.69947052001953 325.66375732421875 120.729736328125" stroke-width="2.1037864685058594" fill="none" stroke="rgb(26, 0, 0)" stroke-opacity="0.71071756" stroke-linecap="round" stroke-linejoin="round"/>
    <path d="M 120.70257568359375 219.01210021972656 C 140.27642822265625 257.4251403808594 139.2142791748047 237.94276428222656 154.0491180419922 219.8582763671875 C 210.50746154785156 253.9871063232422 122.4505844116211 242.198974609375 126.65260314941406 235.09690856933594" stroke-width="6.044175624847412" fill="none" stroke="rgb(123, 98, 82)" stroke-opacity="0.6116492" stroke-linecap="round" stroke-linejoin="round"/>
    <path d="M 350.20245361328125 133.57150268554688 C 548.1951293945312 122.74993896484375 493.0078430175781 144.03121948242188 506.27496337890625 114.67178344726562" stroke-width="3.4821860790252686" fill="none" stroke="rgb(255, 0, 0)" stroke-opacity="1.0" stroke-linecap="round" stroke-linejoin="round"/>
    <path d="M 40.648189544677734 332.2212829589844 C -16.749582290649414 351.97308349609375 -10.77649974822998 392.1219177246094 -25.34282112121582 327.46575927734375 C -21.281068801879883 321.69073486328125 35.09006881713867 334.5202331542969 93.44526672363281 299.8705749511719" stroke-width="3.495758533477783" fill="none" stroke="rgb(26, 135, 60)" stroke-opacity="0.9210857" stroke-linecap="round" stroke-linejoin="round"/>
    <path d="M 397.41998291015625 36.532928466796875 C 348.75726318359375 39.2214241027832 341.11737060546875 -2.5857534408569336 353.40472412109375 72.95034790039062 C 370.3861389160156 103.70354461669922 428.51849365234375 74.47157287597656 337.39630126953125 85.77851867675781 C 333.1277160644531 14.627594947814941 333.9289855957031 -46.46426773071289 360.4070129394531 4.447541236877441" stroke-width="2.0092568397521973" fill="none" stroke="rgb(255, 255, 248)" stroke-opacity="0.7581779" stroke-linecap="round" stroke-linejoin="round"/>
    <path d="M 395.51165771484375 131.54891967773438 C 539.1980590820312 133.91709899902344 551.0838012695312 137.75250244140625 538.9830932617188 145.9493865966797" stroke-width="12.782514572143555" fill="none" stroke="rgb(0, 182, 168)" stroke-opacity="1.0" stroke-linecap="round" stroke-linejoin="round"/>
    <path d="M 342.9766845703125 290.50714111328125 C 384.5313720703125 302.33258056640625 364.8175964355469 264.89398193359375 370.1725158691406 302.79254150390625 C 404.9821472167969 311.33721923828125 368.15289306640625 329.02459716796875 345.48126220703125 324.37786865234375" stroke-width="3.1804115772247314" fill="none" stroke="rgb(53, 0, 0)" stroke-opacity="1.0" stroke-linecap="round" stroke-linejoin="round"/>
    <path d="M 238.64442443847656 258.3875732421875 C 144.2496337890625 236.64779663085938 193.7563934326172 267.70294189453125 119.33172607421875 189.6036376953125 C 144.47177124023438 253.4772186279297 110.25996398925781 206.90667724609375 119.10910034179688 190.30751037597656" stroke-width="8.544110298156738" fill="none" stroke="rgb(0, 0, 8)" stroke-opacity="1.0" stroke-linecap="round" stroke-linejoin="round"/>
    <path d="M 446.8034973144531 86.90560913085938 C 396.655029296875 101.75831604003906 398.1742248535156 94.96475982666016 464.3290710449219 80.30628204345703" stroke-width="4.126258850097656" fill="none" stroke="rgb(138, 169, 228)" stroke-opacity="0.9820778" stroke-linecap="round" stroke-linejoin="round"/>
    <path d="M 52.47560119628906 472.2553405761719 C 63.066978454589844 484.3909912109375 28.074974060058594 475.8246154785156 60.182525634765625 467.4154357910156 C -51.64827346801758 466.5211181640625 -72.08629608154297 455.4512939453125 -35.310428619384766 469.4520263671875" stroke-width="3.124486207962036" fill="none" stroke="rgb(0, 25, 255)" stroke-opacity="1.0" stroke-linecap="round" stroke-linejoin="round"/>
    <path d="M 245.5148162841797 165.38194274902344 C 311.87799072265625 218.6302490234375 280.6358337402344 148.71646118164062 271.70794677734375 193.69879150390625 C 342.2688293457031 269.3476867675781 294.9872741699219 207.8127899169922 287.2771911621094 236.2067413330078 C 247.22486877441406 215.06898498535156 286.0751037597656 225.32603454589844 270.1103515625 225.21148681640625" stroke-width="2.118452310562134" fill="none" stroke="rgb(255, 114, 3)" stroke-opacity="1.0" stroke-linecap="round" stroke-linejoin="round"/>
    <path d="M 115.67800903320312 400.1006164550781 C 125.44197082519531 452.514404296875 153.03506469726562 479.283447265625 174.3709259033203 425.49847412109375" stroke-width="3.436408042907715" fill="none" stroke="rgb(170, 67, 0)" stroke-opacity="1.0" stroke-linecap="round" stroke-linejoin="round"/>
    <path d="M 343.5965270996094 498.3213806152344 C 333.6381530761719 507.6253356933594 251.0897216796875 480.3177795410156 199.9374237060547 509.4967956542969 C 221.6693115234375 530.9943237304688 212.1144561767578 501.5498352050781 272.89495849609375 513.359619140625 C 294.7000427246094 495.0381164550781 304.43878173828125 487.27740478515625 296.211669921875 512.0822143554688" stroke-width="3.1456704139709473" fill="none" stroke="rgb(5, 90, 154)" stroke-opacity="1.0" stroke-linecap="round" stroke-linejoin="round"/>
    <path d="M 254.6085968017578 389.5249328613281 C 258.8854064941406 365.6303405761719 269.31793212890625 361.943115234375 268.3146057128906 398.76318359375 C 283.2674865722656 354.5060119628906 301.2764587402344 415.17095947265625 238.48428344726562 418.1822509765625 C 247.98948669433594 404.0389404296875 236.9486083984375 406.0904541015625 231.05258178710938 433.08282470703125" stroke-width="6.138084411621094" fill="none" stroke="rgb(255, 0, 0)" stroke-opacity="0.9127108" stroke-linecap="round" stroke-linejoin="round"/>
    <path d="M 388.1376647949219 239.9493408203125 C 475.60107421875 269.90228271484375 476.4966735839844 256.841796875 456.83465576171875 269.3050537109375 C 547.9137573242188 283.0697326660156 466.4494323730469 287.8817138671875 389.3428039550781 254.37200927734375" stroke-width="14.986091613769531" fill="none" stroke="rgb(0, 150, 124)" stroke-opacity="0.9572727" stroke-linecap="round" stroke-linejoin="round"/>
    <path d="M 485.8088684082031 159.1777801513672 C 384.5718078613281 138.91787719726562 457.27642822265625 105.0768814086914 397.67218017578125 217.3823699951172" stroke-width="5.164009094238281" fill="none" stroke="rgb(255, 255, 255)" stroke-opacity="1.0" stroke-linecap="round" stroke-linejoin="round"/>
    <path d="M 144.06394958496094 490.810302734375 C 167.975830078125 462.9011535644531 80.06745147705078 462.2865905761719 109.5622329711914 431.5234375" stroke-width="5.719759464263916" fill="none" stroke="rgb(255, 117, 0)" stroke-opacity="1.0" stroke-linecap="round" stroke-linejoin="round"/>
    <path d="M 63.52318572998047 466.6014099121094 C 67.373046875 513.7398071289062 103.86376953125 506.14971923828125 25.351205825805664 501.60888671875" stroke-width="2.177159070968628" fill="none" stroke="rgb(177, 19, 57)" stroke-opacity="0.9273498" stroke-linecap="round" stroke-linejoin="round"/>
    <path d="M 72.21319580078125 342.6519775390625 C 73.07093811035156 388.7930908203125 30.693506240844727 330.0030822753906 52.4099006652832 415.1133117675781 C 2.182393789291382 372.339111328125 38.430625915527344 355.37933349609375 37.67539596557617 351.9870300292969 C 6.186879634857178 327.9843444824219 -42.09315490722656 408.0323486328125 28.53267478942871 348.4202575683594" stroke-width="8.823573112487793" fill="none" stroke="rgb(156, 69, 0)" stroke-opacity="0.9001025" stroke-linecap="round" stroke-linejoin="round"/>
    <path d="M 220.31593322753906 464.60540771484375 C 254.6434783935547 409.61907958984375 213.06256103515625 450.6596984863281 254.9736328125 466.5529479980469 C 272.11279296875 469.607177734375 189.9734344482422 447.8904113769531 206.16494750976562 433.5128479003906 C 260.1206359863281 498.7795104980469 235.92372131347656 486.0205383300781 231.7061767578125 422.84381103515625" stroke-width="5.537573337554932" fill="none" stroke="rgb(255, 80, 0)" stroke-opacity="0.9285865" stroke-linecap="round" stroke-linejoin="round"/>
    <path d="M 392.8902893066406 268.0021667480469 C 502.61016845703125 249.68231201171875 462.2139587402344 275.37762451171875 411.45684814453125 237.23211669921875 C 380.1626892089844 221.04786682128906 374.8327331542969 251.87167358398438 422.3236389160156 225.94351196289062" stroke-width="10.335278511047363" fill="none" stroke="rgb(0, 24, 33)" stroke-opacity="0.7687192" stroke-linecap="round" stroke-linejoin="round"/>
    <path d="M 202.64736938476562 28.723094940185547 C 166.5058135986328 18.53065299987793 249.8592987060547 30.430341720581055 244.6998748779297 -24.705123901367188" stroke-width="2.697028875350952" fill="none" stroke="rgb(9, 0, 26)" stroke-opacity="1.0" stroke-linecap="round" stroke-linejoin="round"/>
    <path d="M 495.8058776855469 405.00079345703125 C 424.97406005859375 387.6399230957031 516.540771484375 394.26165771484375 528.8096313476562 427.07037353515625" stroke-width="8.70156478881836" fill="none" stroke="rgb(0, 0, 255)" stroke-opacity="1.0" stroke-linecap="round" stroke-linejoin="round"/>
    <path d="M 43.261634826660156 206.7189483642578 C 99.12635040283203 210.43960571289062 157.35250854492188 208.068115234375 5.237304210662842 208.28054809570312" stroke-width="4.62749719619751" fill="none" stroke="rgb(0, 123, 255)" stroke-opacity="1.0" stroke-linecap="round" stroke-linejoin="round"/>
    <path d="M 235.2413330078125 327.23944091796875 C 267.5382080078125 330.30792236328125 202.38626098632812 340.77587890625 236.82960510253906 344.34393310546875" stroke-width="3.230282783508301" fill="none" stroke="rgb(0, 35, 31)" stroke-opacity="1.0" stroke-linecap="round" stroke-linejoin="round"/>
    <path d="M 270.5809020996094 25.959758758544922 C 238.6182098388672 25.827844619750977 209.85107421875 27.15959930419922 211.18775939941406 24.318506240844727 C 248.6994171142578 54.55393600463867 270.9969177246094 10.42957878112793 205.72239685058594 41.633670806884766 C 220.84117126464844 158.2229766845703 235.4576873779297 63.06509017944336 197.49778747558594 -9.11435604095459" stroke-width="9.02576732635498" fill="none" stroke="rgb(4, 26, 58)" stroke-opacity="0.5600272" stroke-linecap="round" stroke-linejoin="round"/>
    <path d="M 55.23616409301758 80.93010711669922 C 88.99578094482422 93.93576049804688 76.99018859863281 24.887733459472656 57.97785949707031 14.979741096496582 C 52.67184829711914 81.53453826904297 83.7534408569336 80.16030883789062 60.40890121459961 79.25438690185547" stroke-width="11.05085277557373" fill="none" stroke="rgb(0, 0, 3)" stroke-opacity="1.0" stroke-linecap="round" stroke-linejoin="round"/>
    <path d="M 366.5312194824219 389.44317626953125 C 276.69091796875 424.2816162109375 404.6574401855469 434.152099609375 382.8555908203125 369.9106750488281" stroke-width="4.4569292068481445" fill="none" stroke="rgb(182, 138, 50)" stroke-opacity="0.6813213" stroke-linecap="round" stroke-linejoin="round"/>
    <path d="M 105.04804992675781 280.1094055175781 C 87.70433044433594 268.2999572753906 140.8225860595703 308.7707214355469 111.1342544555664 314.78955078125 C 56.969608306884766 334.40191650390625 41.58480453491211 341.8556213378906 73.32109832763672 329.5087890625 C 37.57162094116211 321.93707275390625 -32.3485107421875 299.8951416015625 -29.71634864807129 285.71124267578125" stroke-width="4.834059715270996" fill="none" stroke="rgb(121, 232, 255)" stroke-opacity="1.0" stroke-linecap="round" stroke-linejoin="round"/>
    <path d="M 300.016357421875 121.61113739013672 C 384.70843505859375 134.17568969726562 336.6270446777344 141.14450073242188 288.2524719238281 152.615478515625" stroke-width="9.506180763244629" fill="none" stroke="rgb(0, 125, 255)" stroke-opacity="0.563842" stroke-linecap="round" stroke-linejoin="round"/>
    <path d="M 39.520809173583984 284.446533203125 C -30.391172409057617 285.3302307128906 -30.719688415527344 278.6017761230469 -19.193262100219727 280.05169677734375 C -50.50772476196289 247.87008666992188 -43.76577377319336 273.3539123535156 31.22086524963379 287.028076171875 C -28.041555404663086 284.51348876953125 -43.972957611083984 263.0491027832031 85.89507293701172 276.21649169921875" stroke-width="13.178814888000488" fill="none" stroke="rgb(0, 13, 70)" stroke-opacity="0.53387487" stroke-linecap="round" stroke-linejoin="round"/>
    <path d="M 266.3084716796875 275.0380554199219 C 136.13699340820312 260.1684265136719 143.86807250976562 239.023193359375 243.1334228515625 269.1466064453125 C 197.81805419921875 256.7540283203125 140.46963500976562 240.66375732421875 161.23768615722656 238.78746032714844 C 227.10581970214844 258.1697082519531 216.88221740722656 249.090087890625 178.26295471191406 255.9528045654297" stroke-width="10.015149116516113" fill="none" stroke="rgb(43, 70, 85)" stroke-opacity="0.9592769" stroke-linecap="round" stroke-linejoin="round"/>
    <path d="M 268.3277893066406 290.2464294433594 C 110.54218292236328 264.03729248046875 229.38026428222656 268.35516357421875 254.83013916015625 263.3056640625 C 182.9181671142578 258.8768310546875 260.8581237792969 303.6666259765625 239.0095672607422 215.43057250976562 C 246.67689514160156 247.32174682617188 231.5028076171875 254.671875 268.6710510253906 226.5768280029297" stroke-width="3.188671827316284" fill="none" stroke="rgb(0, 46, 74)" stroke-opacity="0.87768656" stroke-linecap="round" stroke-linejoin="round"/>
    <path d="M 453.88714599609375 419.3542175292969 C 474.1484375 391.6064453125 512.62109375 450.7972106933594 415.8863830566406 418.2746887207031 C 534.3303833007812 387.2848205566406 442.7917175292969 412.1620788574219 466.8486022949219 373.09515380859375" stroke-width="12.573613166809082" fill="none" stroke="rgb(75, 76, 58)" stroke-opacity="0.4381599" stroke-linecap="round" stroke-linejoin="round"/>
    <path d="M 107.3117904663086 321.2019958496094 C 126.43462371826172 307.9915466308594 130.53912353515625 314.7113342285156 98.32645416259766 270.4689636230469" stroke-width="10.240394592285156" fill="none" stroke="rgb(255, 115, 0)" stroke-opacity="1.0" stroke-linecap="round" stroke-linejoin="round"/>
    <path d="M 268.4869689941406 322.51507568359375 C 300.4927673339844 272.1241760253906 255.86163330078125 274.2811584472656 259.8862609863281 380.91015625 C 279.1623840332031 308.746337890625 270.1849670410156 308.16290283203125 272.7176818847656 330.7973937988281 C 337.9009094238281 285.52081298828125 235.72059631347656 275.1149597167969 266.9996032714844 252.424072265625" stroke-width="9.523575782775879" fill="none" stroke="rgb(183, 170, 182)" stroke-opacity="0.5293524" stroke-linecap="round" stroke-linejoin="round"/>
    <path d="M 245.79483032226562 95.90706634521484 C 130.5053253173828 103.12830352783203 243.72813415527344 73.19937896728516 276.5389709472656 106.57364654541016 C 73.30877685546875 87.024169921875 105.07857513427734 100.0858154296875 231.86508178710938 120.6763687133789" stroke-width="2.0" fill="none" stroke="rgb(83, 186, 182)" stroke-opacity="0.98750275" stroke-linecap="round" stroke-linejoin="round"/>
    <path d="M 243.30335998535156 310.75732421875 C 180.42025756835938 332.2038269042969 250.71665954589844 311.322265625 203.33514404296875 366.83465576171875 C 203.62486267089844 409.6069641113281 282.0998840332031 389.62908935546875 186.11880493164062 341.1776123046875 C 292.7381896972656 323.3666687011719 351.04486083984375 309.6976318359375 225.3411102294922 299.8852844238281" stroke-width="9.425835609436035" fill="none" stroke="rgb(78, 111, 113)" stroke-opacity="0.4857388" stroke-linecap="round" stroke-linejoin="round"/>
    <path d="M 330.873779296875 483.89361572265625 C 325.2626647949219 472.9850158691406 310.2657165527344 460.6285705566406 264.8377990722656 429.5947265625 C 304.8039855957031 389.54241943359375 363.6900329589844 325.695556640625 334.7995300292969 377.86322021484375 C 342.9028015136719 324.0901794433594 325.9162902832031 360.2293395996094 335.5061950683594 401.9767150878906" stroke-width="2.457677125930786" fill="none" stroke="rgb(127, 36, 0)" stroke-opacity="0.99886966" stroke-linecap="round" stroke-linejoin="round"/>
    <path d="M 70.99010467529297 309.4834899902344 C -29.1079158782959 309.07666015625 -33.20726013183594 363.3016357421875 83.9992904663086 315.5362243652344" stroke-width="11.435758590698242" fill="none" stroke="rgb(19, 140, 124)" stroke-opacity="0.6362742" stroke-linecap="round" stroke-linejoin="round"/>
    <path d="M 83.78346252441406 43.35941696166992 C 10.923032760620117 92.07260131835938 70.0123291015625 29.717187881469727 55.13180923461914 44.53807830810547 C 70.24669647216797 42.61661148071289 57.50951385498047 30.891448974609375 63.45528030395508 54.84140396118164" stroke-width="5.250883102416992" fill="none" stroke="rgb(250, 173, 127)" stroke-opacity="0.8714696" stroke-linecap="round" stroke-linejoin="round"/>
    <path d="M 167.88340759277344 317.8793029785156 C 104.06863403320312 344.352294921875 172.9170379638672 364.7230529785156 154.2397918701172 306.7980041503906 C 223.9554443359375 309.279541015625 120.53438568115234 301.1340637207031 136.3182373046875 351.743896484375 C 176.30056762695312 399.5060119628906 164.3553009033203 374.683349609375 103.17322540283203 345.85565185546875" stroke-width="4.243333339691162" fill="none" stroke="rgb(115, 114, 12)" stroke-opacity="0.2706339" stroke-linecap="round" stroke-linejoin="round"/>
    <path d="M 493.85186767578125 269.6102600097656 C 562.1077880859375 274.7411193847656 531.4317016601562 294.04180908203125 517.4424438476562 275.50421142578125 C 457.98980712890625 264.154296875 485.744873046875 268.32659912109375 530.9048461914062 268.41253662109375" stroke-width="7.388276100158691" fill="none" stroke="rgb(0, 12, 26)" stroke-opacity="1.0" stroke-linecap="round" stroke-linejoin="round"/>
    <path d="M 390.0189208984375 76.70439910888672 C 300.7730407714844 55.087059020996094 531.5147094726562 72.38282012939453 421.25531005859375 73.85545349121094 C 279.4447326660156 65.27007293701172 282.8275146484375 82.64543151855469 404.21002197265625 149.26731872558594 C 377.63128662109375 148.8641815185547 331.4738464355469 160.43362426757812 386.39300537109375 156.8876495361328" stroke-width="2.0" fill="none" stroke="rgb(72, 17, 0)" stroke-opacity="0.44988286" stroke-linecap="round" stroke-linejoin="round"/>
    <path d="M 136.05198669433594 437.48681640625 C 134.6767578125 364.267822265625 180.14553833007812 356.6556396484375 202.90997314453125 396.6555480957031" stroke-width="3.7044923305511475" fill="none" stroke="rgb(16, 66, 39)" stroke-opacity="0.323945" stroke-linecap="round" stroke-linejoin="round"/>
    <path d="M 102.21405792236328 482.8578796386719 C -11.387889862060547 491.4855041503906 -68.3028793334961 482.0013122558594 -65.36279296875 481.4139099121094 C -15.701191902160645 501.6300048828125 -19.00172996520996 515.5869750976562 -9.091431617736816 534.8152465820312" stroke-width="7.60270357131958" fill="none" stroke="rgb(85, 126, 181)" stroke-opacity="0.99815494" stroke-linecap="round" stroke-linejoin="round"/>
    <path d="M 250.5453338623047 39.674583435058594 C 272.6717224121094 65.64696502685547 239.71832275390625 102.894775390625 273.5706481933594 66.56265258789062 C 257.74444580078125 88.94957733154297 172.54754638671875 130.28472900390625 204.2163543701172 105.05764770507812 C 154.52061462402344 117.56486511230469 157.67958068847656 93.83433532714844 235.77113342285156 108.1895751953125" stroke-width="2.2781598567962646" fill="none" stroke="rgb(75, 157, 144)" stroke-opacity="1.0" stroke-linecap="round" stroke-linejoin="round"/>
    <path d="M 145.42431640625 176.20863342285156 C 170.18650817871094 214.73477172851562 190.7106170654297 220.48809814453125 216.4996337890625 178.69363403320312 C 232.83050537109375 200.52488708496094 226.29835510253906 179.71697998046875 191.90936279296875 165.82284545898438" stroke-width="2.7392923831939697" fill="none" stroke="rgb(196, 255, 221)" stroke-opacity="0.0" stroke-linecap="round" stroke-linejoin="round"/>
    <path d="M 259.3720397949219 317.7248840332031 C 344.9758605957031 303.924072265625 215.9190216064453 310.1793212890625 177.27542114257812 319.9852600097656 C 210.63485717773438 345.4912414550781 264.71722412109375 313.80084228515625 285.2524108886719 288.15924072265625" stroke-width="2.0" fill="none" stroke="rgb(33, 97, 59)" stroke-opacity="0.40321454" stroke-linecap="round" stroke-linejoin="round"/>
    <path d="M 360.22027587890625 113.63611602783203 C 475.5091247558594 116.1727066040039 366.6022644042969 40.016788482666016 463.5084533691406 72.29147338867188 C 477.17626953125 175.25477600097656 560.09228515625 137.8158416748047 398.5566101074219 167.30511474609375" stroke-width="2.9622297286987305" fill="none" stroke="rgb(118, 71, 71)" stroke-opacity="0.44260168" stroke-linecap="round" stroke-linejoin="round"/>
    <path d="M 354.5744934082031 236.28912353515625 C 320.43255615234375 195.2664337158203 317.57049560546875 213.8134307861328 311.9346008300781 196.8978271484375 C 342.6368408203125 248.48294067382812 375.5018615722656 281.1561279296875 385.5221862792969 196.1807098388672" stroke-width="8.36557388305664" fill="none" stroke="rgb(255, 210, 0)" stroke-opacity="0.93639153" stroke-linecap="round" stroke-linejoin="round"/>
    <path d="M 434.8037109375 49.20133972167969 C 456.10406494140625 36.64649200439453 427.0868225097656 18.818466186523438 439.1754455566406 53.31392288208008" stroke-width="7.660298824310303" fill="none" stroke="rgb(0, 0, 0)" stroke-opacity="1.0" stroke-linecap="round" stroke-linejoin="round"/>
    <path d="M 238.7694091796875 339.4674377441406 C 195.30291748046875 324.1393127441406 248.2032470703125 350.4845886230469 217.40077209472656 355.3756408691406" stroke-width="3.2359230518341064" fill="none" stroke="rgb(0, 71, 40)" stroke-opacity="1.0" stroke-linecap="round" stroke-linejoin="round"/>
    <path d="M 281.1839904785156 345.2969665527344 C 315.2005920410156 386.13848876953125 269.76983642578125 339.26177978515625 252.34559631347656 386.513427734375 C 297.3058776855469 342.4588623046875 309.3094482421875 391.2276916503906 311.50732421875 359.2995300292969 C 296.941162109375 372.6516418457031 360.3719482421875 423.8741149902344 341.0733947753906 369.63262939453125" stroke-width="10.02274227142334" fill="none" stroke="rgb(255, 50, 0)" stroke-opacity="1.0" stroke-linecap="round" stroke-linejoin="round"/>
    <path d="M 467.3393249511719 107.8907241821289 C 520.1314086914062 109.92015075683594 539.7815551757812 114.47631072998047 516.3346557617188 118.69497680664062 C 444.6915588378906 107.30876922607422 490.2523498535156 114.67399597167969 480.8094787597656 79.9903335571289" stroke-width="11.03612232208252" fill="none" stroke="rgb(0, 0, 15)" stroke-opacity="1.0" stroke-linecap="round" stroke-linejoin="round"/>
    <path d="M 416.0283508300781 366.22918701171875 C 482.70697021484375 409.8658447265625 492.64715576171875 433.04302978515625 518.9061889648438 417.513427734375 C 560.2169189453125 480.3947448730469 479.6152038574219 493.8421936035156 467.20361328125 469.01348876953125 C 535.720458984375 428.68524169921875 477.86846923828125 491.7091369628906 425.01861572265625 500.1625671386719" stroke-width="13.631638526916504" fill="none" stroke="rgb(23, 31, 11)" stroke-opacity="0.77075106" stroke-linecap="round" stroke-linejoin="round"/>
    <path d="M 403.9417419433594 293.2168884277344 C 412.0628662109375 339.5148620605469 442.31402587890625 325.70184326171875 422.12750244140625 334.70037841796875 C 453.3814697265625 381.4142150878906 392.7494201660156 324.30908203125 435.8131408691406 362.3161926269531" stroke-width="8.693089485168457" fill="none" stroke="rgb(94, 57, 0)" stroke-opacity="1.0" stroke-linecap="round" stroke-linejoin="round"/>
    <path d="M 94.75785827636719 268.3594665527344 C 144.65127563476562 307.55816650390625 123.95088195800781 307.281005859375 118.47826385498047 249.7088165283203 C 9.431098937988281 215.9221649169922 134.99972534179688 253.98995971679688 120.86356353759766 229.48443603515625 C 111.91947174072266 186.229248046875 119.0345230102539 207.4894256591797 106.87353515625 202.67196655273438" stroke-width="2.0986123085021973" fill="none" stroke="rgb(15, 4, 0)" stroke-opacity="1.0" stroke-linecap="round" stroke-linejoin="round"/>
    <path d="M 271.0357971191406 425.4566345214844 C 213.95370483398438 389.0557861328125 304.6861877441406 430.3211975097656 243.6419677734375 475.51885986328125" stroke-width="8.051614761352539" fill="none" stroke="rgb(220, 205, 196)" stroke-opacity="1.0" stroke-linecap="round" stroke-linejoin="round"/>
    <path d="M 465.49169921875 27.013015747070312 C 507.8050842285156 17.812265396118164 444.9351501464844 19.732738494873047 503.4280090332031 25.034507751464844 C 475.9441833496094 41.385520935058594 487.9564208984375 16.3082218170166 472.7156677246094 29.076629638671875 C 501.3912048339844 13.447213172912598 556.76416015625 39.758811950683594 585.5761108398438 60.128353118896484" stroke-width="6.174161911010742" fill="none" stroke="rgb(29, 153, 0)" stroke-opacity="0.49406612" stroke-linecap="round" stroke-linejoin="round"/>
    <path d="M 82.431640625 299.1380310058594 C -40.7590217590332 305.8434753417969 158.49151611328125 303.0484619140625 -0.9017496109008789 306.6260986328125" stroke-width="5.012964248657227" fill="none" stroke="rgb(10, 149, 126)" stroke-opacity="0.98224294" stroke-linecap="round" stroke-linejoin="round"/>
    <path d="M 309.3518371582031 198.85147094726562 C 383.4173278808594 242.99412536621094 409.0079040527344 259.2291564941406 346.6238708496094 259.1011657714844 C 356.5164489746094 261.78375244140625 349.9607238769531 246.9473114013672 400.3072204589844 281.4915771484375" stroke-width="4.417143821716309" fill="none" stroke="rgb(212, 157, 0)" stroke-opacity="1.0" stroke-linecap="round" stroke-linejoin="round"/>
    <path d="M 251.86390686035156 144.56541442871094 C 369.714111328125 166.40809631347656 316.29638671875 156.42794799804688 254.56524658203125 78.90959167480469 C 276.8903503417969 152.64938354492188 250.3640899658203 164.61587524414062 315.6378173828125 175.12884521484375" stroke-width="18.342885971069336" fill="none" stroke="rgb(0, 87, 114)" stroke-opacity="0.7092866" stroke-linecap="round" stroke-linejoin="round"/>
    <path d="M 239.16973876953125 219.61776733398438 C 271.492431640625 229.90670776367188 243.0254669189453 160.9908905029297 255.2144775390625 213.3684539794922 C 293.8840026855469 212.2061309814453 252.84542846679688 240.49525451660156 231.4860076904297 252.32080078125 C 245.15335083007812 224.91213989257812 251.5196533203125 312.7146301269531 261.65673828125 260.26336669921875" stroke-width="2.0" fill="none" stroke="rgb(179, 67, 0)" stroke-opacity="0.9628835" stroke-linecap="round" stroke-linejoin="round"/>
    <path d="M 37.09954071044922 374.6040954589844 C 30.292049407958984 401.82958984375 -47.64091110229492 406.8083801269531 -81.15680694580078 390.8105773925781" stroke-width="3.554811954498291" fill="none" stroke="rgb(0, 0, 0)" stroke-opacity="1.0" stroke-linecap="round" stroke-linejoin="round"/>
    <path d="M 357.23504638671875 409.9210205078125 C 282.4774475097656 410.0960388183594 279.3677978515625 445.69854736328125 314.72625732421875 392.333740234375 C 344.6813049316406 452.6006164550781 419.6180419921875 409.6226806640625 386.3075256347656 399.09356689453125" stroke-width="3.089974880218506" fill="none" stroke="rgb(197, 159, 21)" stroke-opacity="0.67452174" stroke-linecap="round" stroke-linejoin="round"/>
    <path d="M 442.1877136230469 300.1115417480469 C 314.6298828125 325.47601318359375 537.4353637695312 310.9996643066406 490.5520935058594 340.0072021484375 C 430.7118225097656 324.3233337402344 509.90045166015625 370.4146728515625 550.707763671875 359.36846923828125 C 502.25860595703125 339.4602355957031 498.20513916015625 364.556396484375 507.0996398925781 359.9688720703125" stroke-width="2.8731415271759033" fill="none" stroke="rgb(232, 227, 209)" stroke-opacity="1.0" stroke-linecap="round" stroke-linejoin="round"/>
    <path d="M 88.31539916992188 190.31320190429688 C 81.77457427978516 192.714599609375 90.74079132080078 230.42971801757812 65.03497314453125 209.0914306640625 C -115.89759063720703 176.6539764404297 -115.41927337646484 226.94381713867188 60.61760711669922 212.12161254882812" stroke-width="3.38550066947937" fill="none" stroke="rgb(0, 0, 38)" stroke-opacity="1.0" stroke-linecap="round" stroke-linejoin="round"/>
    <path d="M 430.3658447265625 46.977882385253906 C 445.73431396484375 166.7653045654297 343.46533203125 41.25084686279297 365.2430114746094 144.59400939941406 C 330.9498291015625 128.40415954589844 359.0615539550781 155.0117645263672 344.7125549316406 102.64847564697266 C 351.80352783203125 48.87314987182617 384.8450012207031 152.9865264892578 373.2430725097656 160.11045837402344" stroke-width="2.7677297592163086" fill="none" stroke="rgb(255, 255, 255)" stroke-opacity="1.0" stroke-linecap="round" stroke-linejoin="round"/>
    <path d="M 30.2576961517334 219.67701721191406 C 161.2451934814453 203.9822235107422 85.35839080810547 242.3756561279297 106.64781951904297 149.16636657714844" stroke-width="3.2615554332733154" fill="none" stroke="rgb(0, 0, 15)" stroke-opacity="1.0" stroke-linecap="round" stroke-linejoin="round"/>
    <path d="M 308.74951171875 424.4529724121094 C 364.3540344238281 402.4508972167969 356.516845703125 426.3823547363281 342.26751708984375 425.3232421875" stroke-width="7.766935348510742" fill="none" stroke="rgb(217, 150, 31)" stroke-opacity="0.70477784" stroke-linecap="round" stroke-linejoin="round"/>
    <path d="M 382.391357421875 180.89280700683594 C 395.671630859375 251.8511962890625 389.7911071777344 165.9015655517578 387.5386047363281 219.21981811523438" stroke-width="9.388961791992188" fill="none" stroke="rgb(21, 0, 0)" stroke-opacity="1.0" stroke-linecap="round" stroke-linejoin="round"/>
    <path d="M 215.52931213378906 114.16703033447266 C 80.0977783203125 119.73613739013672 182.11422729492188 90.95275115966797 206.4372100830078 135.7260284423828 C 240.77662658691406 123.2910385131836 276.7044372558594 138.79452514648438 299.1513366699219 149.5555419921875 C 211.0316619873047 161.29039001464844 215.6791229248047 148.5544891357422 189.74349975585938 139.07522583007812" stroke-width="2.0" fill="none" stroke="rgb(0, 161, 47)" stroke-opacity="0.63843447" stroke-linecap="round" stroke-linejoin="round"/>
    <path d="M 89.61634063720703 388.49493408203125 C 25.667024612426758 342.453857421875 74.82754516601562 475.0069885253906 72.28044128417969 388.9986267089844 C 98.14169311523438 444.7822570800781 126.5685806274414 379.1623229980469 130.53720092773438 418.2535705566406 C 69.61988067626953 403.8993835449219 115.7956314086914 480.9002380371094 80.57081604003906 411.7219543457031" stroke-width="3.2903780937194824" fill="none" stroke="rgb(111, 39, 0)" stroke-opacity="1.0" stroke-linecap="round" stroke-linejoin="round"/>
    <path d="M -19.75049591064453 69.50532531738281 C 9.440221786499023 86.69345092773438 -8.253694534301758 74.80475616455078 -6.347060680389404 89.61803436279297 C 8.722905158996582 89.83174133300781 -17.498126983642578 79.67636108398438 -12.281700134277344 107.295166015625 C 88.36166381835938 106.7224349975586 162.06854248046875 127.0669937133789 20.579998016357422 93.25704956054688" stroke-width="2.692971706390381" fill="none" stroke="rgb(0, 180, 124)" stroke-opacity="1.0" stroke-linecap="round" stroke-linejoin="round"/>
    <path d="M 143.74298095703125 437.7582702636719 C 183.6442413330078 281.9628601074219 202.8664093017578 330.2436218261719 138.08544921875 356.97705078125 C 170.3399200439453 361.4959716796875 149.46316528320312 352.6375732421875 134.73516845703125 369.03515625" stroke-width="10.008224487304688" fill="none" stroke="rgb(97, 130, 0)" stroke-opacity="0.28470433" stroke-linecap="round" stroke-linejoin="round"/>
    <path d="M 151.04055786132812 377.53900146484375 C 163.59576416015625 321.7186584472656 202.5475616455078 350.4299621582031 200.77981567382812 421.0892333984375 C 241.98167419433594 351.37994384765625 269.4288635253906 337.69561767578125 299.04827880859375 293.32269287109375 C 263.2016296386719 309.8160400390625 256.6612854003906 242.54212951660156 250.07623291015625 301.93499755859375" stroke-width="10.453471183776855" fill="none" stroke="rgb(142, 150, 160)" stroke-opacity="0.59982646" stroke-linecap="round" stroke-linejoin="round"/>
    <path d="M 363.98223876953125 383.5928649902344 C 304.3306579589844 459.1224060058594 287.2935485839844 376.3529357910156 323.92327880859375 411.6086730957031 C 387.2979736328125 365.15789794921875 318.2836608886719 399.5208740234375 359.7991638183594 351.7732238769531" stroke-width="7.870934009552002" fill="none" stroke="rgb(255, 131, 0)" stroke-opacity="0.76906663" stroke-linecap="round" stroke-linejoin="round"/>
    <path d="M 329.53973388671875 274.14007568359375 C 303.1174011230469 191.9249267578125 282.4618835449219 232.77731323242188 275.560791015625 200.3788299560547 C 322.3246154785156 193.69546508789062 238.47714233398438 145.64747619628906 303.9309387207031 202.0484619140625 C 338.8305358886719 249.44052124023438 348.7302551269531 213.62722778320312 394.2037048339844 211.49014282226562" stroke-width="3.4553112983703613" fill="none" stroke="rgb(251, 231, 229)" stroke-opacity="0.75148916" stroke-linecap="round" stroke-linejoin="round"/>
    <path d="M 208.3786163330078 121.24639892578125 C 137.7342987060547 115.38565063476562 202.50738525390625 139.75643920898438 224.8866729736328 120.57747650146484 C 192.08636474609375 89.00944519042969 278.02911376953125 125.53208923339844 139.3779296875 98.44754791259766 C 223.9010009765625 99.06936645507812 204.3384552001953 88.47871398925781 21.408769607543945 82.79777526855469" stroke-width="5.699047565460205" fill="none" stroke="rgb(0, 85, 58)" stroke-opacity="0.5775027" stroke-linecap="round" stroke-linejoin="round"/>
    <path d="M 106.0525894165039 146.2101287841797 C 90.8808822631836 185.0762481689453 100.40528106689453 157.53131103515625 90.84417724609375 203.8675079345703" stroke-width="5.986995697021484" fill="none" stroke="rgb(255, 113, 0)" stroke-opacity="0.8766264" stroke-linecap="round" stroke-linejoin="round"/>
    <path d="M 129.3470916748047 265.239013671875 C 131.3798065185547 238.85585021972656 121.39622497558594 268.5780334472656 119.21389770507812 241.48033142089844 C 114.5489730834961 246.1450958251953 121.63734436035156 260.62689208984375 119.57332611083984 252.0379180908203" stroke-width="2.5698976516723633" fill="none" stroke="rgb(255, 0, 0)" stroke-opacity="1.0" stroke-linecap="round" stroke-linejoin="round"/>
    <path d="M 73.44239044189453 242.56045532226562 C 117.16780090332031 297.8491516113281 165.4495849609375 317.04449462890625 123.5413589477539 288.375244140625" stroke-width="8.06796646118164" fill="none" stroke="rgb(235, 53, 0)" stroke-opacity="1.0" stroke-linecap="round" stroke-linejoin="round"/>
    <path d="M 268.8612060546875 496.9665832519531 C 447.5372619628906 489.83551025390625 487.60821533203125 493.2533874511719 504.2179260253906 501.7073669433594 C 448.21966552734375 559.4646606445312 416.60882568359375 520.2640380859375 386.79510498046875 524.2841796875 C 437.81475830078125 506.9218444824219 577.3513793945312 483.74566650390625 494.9673156738281 441.5635986328125" stroke-width="4.817132472991943" fill="none" stroke="rgb(0, 41, 137)" stroke-opacity="1.0" stroke-linecap="round" stroke-linejoin="round"/>
    <path d="M 453.38140869140625 234.64598083496094 C 436.6864013671875 206.05227661132812 477.8289794921875 234.56857299804688 431.0550842285156 234.14468383789062 C 449.7904968261719 233.5020751953125 462.8838806152344 257.36688232421875 433.42559814453125 246.945068359375 C 426.1658020019531 242.947021484375 495.0308532714844 263.604736328125 484.5791320800781 241.64463806152344" stroke-width="5.631475448608398" fill="none" stroke="rgb(0, 0, 36)" stroke-opacity="1.0" stroke-linecap="round" stroke-linejoin="round"/>
    <path d="M 489.42083740234375 256.11456298828125 C 488.3432922363281 234.77926635742188 468.1913146972656 256.57586669921875 521.6923828125 246.0850830078125" stroke-width="3.5165889263153076" fill="none" stroke="rgb(255, 42, 0)" stroke-opacity="1.0" stroke-linecap="round" stroke-linejoin="round"/>
    <path d="M 271.35504150390625 70.7683334350586 C 271.9505310058594 10.758840560913086 225.2201385498047 86.81256866455078 300.8880310058594 102.1436767578125" stroke-width="5.0140252113342285" fill="none" stroke="rgb(255, 227, 255)" stroke-opacity="1.0" stroke-linecap="round" stroke-linejoin="round"/>
    <path d="M 205.9118194580078 306.8460998535156 C 268.3676452636719 328.8980712890625 265.6094055175781 247.28707885742188 234.07716369628906 314.4355163574219 C 223.7071533203125 273.9947509765625 257.4500732421875 292.0250244140625 275.07672119140625 281.81103515625" stroke-width="7.208766937255859" fill="none" stroke="rgb(0, 109, 103)" stroke-opacity="0.5074156" stroke-linecap="round" stroke-linejoin="round"/>
    <path d="M 136.2469024658203 328.6234436035156 C 88.29942321777344 305.1385803222656 154.1807098388672 307.52117919921875 76.73260498046875 301.157958984375 C 97.21515655517578 321.1966552734375 162.71592712402344 359.6214904785156 90.16685485839844 349.5636901855469" stroke-width="2.47041392326355" fill="none" stroke="rgb(37, 0, 3)" stroke-opacity="1.0" stroke-linecap="round" stroke-linejoin="round"/>
    <path d="M 217.92527770996094 156.51113891601562 C 289.3194580078125 180.08340454101562 194.18463134765625 163.0519256591797 252.18218994140625 180.9285125732422 C 252.90682983398438 172.9680633544922 236.24136352539062 198.77931213378906 264.684814453125 170.02227783203125" stroke-width="2.786689519882202" fill="none" stroke="rgb(154, 52, 0)" stroke-opacity="1.0" stroke-linecap="round" stroke-linejoin="round"/>
    <path d="M 361.08984375 314.77850341796875 C 384.3251647949219 360.228759765625 383.93670654296875 317.10345458984375 398.7673645019531 344.4083251953125" stroke-width="2.792241334915161" fill="none" stroke="rgb(139, 68, 0)" stroke-opacity="1.0" stroke-linecap="round" stroke-linejoin="round"/>
    <path d="M 307.6221618652344 53.052330017089844 C 263.0425109863281 110.55274200439453 332.2436828613281 116.84201049804688 254.81112670898438 78.28268432617188" stroke-width="10.67459487915039" fill="none" stroke="rgb(137, 72, 75)" stroke-opacity="0.81178486" stroke-linecap="round" stroke-linejoin="round"/>
    <path d="M 478.41845703125 96.37506866455078 C 352.91741943359375 93.86817932128906 411.7135314941406 106.52427673339844 554.864990234375 91.78983306884766 C 471.1946105957031 117.00547790527344 429.3539123535156 125.14765930175781 507.1614685058594 120.47782897949219" stroke-width="8.797554969787598" fill="none" stroke="rgb(0, 29, 69)" stroke-opacity="0.61043" stroke-linecap="round" stroke-linejoin="round"/>
    <path d="M -7.543766498565674 469.5671691894531 C -10.860254287719727 504.8897399902344 -12.990473747253418 490.4929504394531 103.3336410522461 492.9296569824219" stroke-width="8.153597831726074" fill="none" stroke="rgb(0, 0, 2)" stroke-opacity="1.0" stroke-linecap="round" stroke-linejoin="round"/>
    <path d="M 99.62811279296875 258.2821044921875 C 98.36486053466797 290.9535827636719 188.81790161132812 287.25140380859375 117.92211151123047 264.1339111328125 C 56.0599250793457 273.78314208984375 93.80039978027344 231.5305938720703 91.2906494140625 268.0606994628906 C 70.77268981933594 220.75930786132812 74.94732666015625 296.17730712890625 83.56414794921875 241.8196258544922" stroke-width="5.5289998054504395" fill="none" stroke="rgb(115, 104, 120)" stroke-opacity="1.0" stroke-linecap="round" stroke-linejoin="round"/>
    <path d="M 316.7943115234375 465.12127685546875 C 353.01788330078125 427.3448181152344 330.22442626953125 460.645263671875 252.86407470703125 417.2185363769531" stroke-width="3.528900623321533" fill="none" stroke="rgb(0, 69, 255)" stroke-opacity="1.0" stroke-linecap="round" stroke-linejoin="round"/>
    <path d="M 141.91087341308594 329.38128662109375 C 96.68171691894531 359.0921630859375 150.86032104492188 326.5071716308594 119.04639434814453 357.34234619140625 C 105.19635772705078 360.1500244140625 114.6805419921875 377.7185974121094 131.0897216796875 384.2054443359375 C 131.34739685058594 353.0092468261719 101.01464080810547 425.0681457519531 87.8407974243164 400.9649963378906" stroke-width="3.6534156799316406" fill="none" stroke="rgb(248, 116, 15)" stroke-opacity="1.0" stroke-linecap="round" stroke-linejoin="round"/>
    <path d="M 362.34600830078125 -33.396583557128906 C 337.9150390625 1.65593683719635 334.40252685546875 21.741382598876953 328.4920959472656 47.129486083984375" stroke-width="2.7862677574157715" fill="none" stroke="rgb(255, 70, 20)" stroke-opacity="0.866629" stroke-linecap="round" stroke-linejoin="round"/>
    <path d="M 37.42451477050781 258.63238525390625 C 30.10236358642578 164.72596740722656 47.67511749267578 173.70599365234375 22.054645538330078 182.62486267089844 C 44.98653793334961 176.82235717773438 29.83104705810547 176.9404296875 -6.019130706787109 180.34237670898438" stroke-width="2.5239765644073486" fill="none" stroke="rgb(255, 255, 255)" stroke-opacity="1.0" stroke-linecap="round" stroke-linejoin="round"/>
    <path d="M 392.2844543457031 267.5290832519531 C 342.2679443359375 212.96023559570312 349.1725769042969 216.25442504882812 362.1297302246094 216.5958709716797" stroke-width="11.2498197555542" fill="none" stroke="rgb(231, 72, 0)" stroke-opacity="0.5802983" stroke-linecap="round" stroke-linejoin="round"/>
    <path d="M 264.7954406738281 164.9679718017578 C 246.5352325439453 154.10421752929688 230.732421875 153.67103576660156 248.96536254882812 130.30081176757812" stroke-width="5.349192142486572" fill="none" stroke="rgb(255, 103, 2)" stroke-opacity="0.87315947" stroke-linecap="round" stroke-linejoin="round"/>
    <path d="M 294.0489196777344 508.57159423828125 C 275.57568359375 493.5956726074219 261.1365051269531 522.2600708007812 267.66827392578125 535.227294921875 C 263.6968994140625 548.3590698242188 285.1248474121094 530.6765747070312 275.3672180175781 517.6936645507812" stroke-width="2.2089710235595703" fill="none" stroke="rgb(35, 164, 0)" stroke-opacity="0.9637361" stroke-linecap="round" stroke-linejoin="round"/>
    <path d="M 90.82747650146484 23.991796493530273 C 61.93500518798828 29.72768211364746 92.45686340332031 -3.9773128032684326 54.28359603881836 -13.50365924835205 C 51.02140808105469 9.904891967773438 26.2271728515625 -30.82793426513672 31.121461868286133 4.48643684387207 C 53.47211837768555 67.07188415527344 107.71509552001953 59.01061248779297 73.64479064941406 45.05911636352539" stroke-width="2.7740395069122314" fill="none" stroke="rgb(255, 255, 255)" stroke-opacity="1.0" stroke-linecap="round" stroke-linejoin="round"/>
    <path d="M 85.7999267578125 66.09736633300781 C 254.15350341796875 66.13693237304688 284.9989318847656 54.91466522216797 114.99776458740234 64.38602447509766 C 145.27679443359375 65.7811279296875 85.23274230957031 107.04401397705078 191.41490173339844 59.75341796875 C 122.75202178955078 41.27583312988281 238.5878143310547 66.53103637695312 264.2538757324219 20.61431121826172" stroke-width="6.757236957550049" fill="none" stroke="rgb(136, 148, 167)" stroke-opacity="0.7860446" stroke-linecap="round" stroke-linejoin="round"/>
    <path d="M 416.41864013671875 352.13226318359375 C 407.4249572753906 360.14044189453125 475.3233947753906 382.723876953125 438.4121398925781 375.938232421875 C 505.312255859375 412.4675598144531 473.3155517578125 364.75634765625 473.9648742675781 388.3157653808594" stroke-width="3.823598861694336" fill="none" stroke="rgb(0, 0, 54)" stroke-opacity="1.0" stroke-linecap="round" stroke-linejoin="round"/>
    <path d="M 325.1585388183594 207.43365478515625 C 507.45556640625 232.30870056152344 263.92291259765625 228.8572235107422 363.170166015625 243.23809814453125 C 323.428955078125 284.20068359375 396.2926330566406 241.09344482421875 336.8420715332031 243.42855834960938" stroke-width="3.0665807723999023" fill="none" stroke="rgb(235, 106, 0)" stroke-opacity="1.0" stroke-linecap="round" stroke-linejoin="round"/>
    <path d="M 315.70843505859375 56.51767349243164 C 488.2567443847656 27.23755645751953 451.7140197753906 38.28461837768555 315.0032043457031 48.64460372924805" stroke-width="3.1912553310394287" fill="none" stroke="rgb(70, 159, 255)" stroke-opacity="0.53160405" stroke-linecap="round" stroke-linejoin="round"/>
    <path d="M 192.503173828125 112.73466491699219 C 325.426513671875 111.04362487792969 230.92959594726562 169.68211364746094 156.1873016357422 118.2663803100586" stroke-width="2.0" fill="none" stroke="rgb(70, 135, 132)" stroke-opacity="0.89187557" stroke-linecap="round" stroke-linejoin="round"/>
    <path d="M 166.6595001220703 302.5252380371094 C 230.38453674316406 303.0338134765625 121.9100570678711 270.395263671875 149.64723205566406 270.74127197265625 C 185.19435119628906 255.9236297607422 146.77915954589844 319.0295715332031 233.40391540527344 292.6712951660156 C 136.847900390625 284.4424133300781 176.15170288085938 303.7461853027344 244.39288330078125 305.16925048828125" stroke-width="6.165650844573975" fill="none" stroke="rgb(42, 110, 95)" stroke-opacity="0.6942778" stroke-linecap="round" stroke-linejoin="round"/>
    <path d="M 495.3445129394531 226.85484313964844 C 596.19384765625 254.31594848632812 543.9227294921875 269.85589599609375 470.5062561035156 255.74008178710938 C 498.0692138671875 247.59519958496094 452.94549560546875 247.4704132080078 442.1716003417969 237.26939392089844 C 400.3817443847656 188.11865234375 394.3182678222656 216.89320373535156 431.35076904296875 239.6201171875" stroke-width="8.226479530334473" fill="none" stroke="rgb(48, 87, 149)" stroke-opacity="0.80918545" stroke-linecap="round" stroke-linejoin="round"/>
    <path d="M 440.0882568359375 243.04678344726562 C 425.7168273925781 237.3770294189453 418.7477111816406 273.1729736328125 410.67779541015625 188.33087158203125" stroke-width="10.451814651489258" fill="none" stroke="rgb(0, 0, 15)" stroke-opacity="1.0" stroke-linecap="round" stroke-linejoin="round"/>
    <path d="M 464.2767028808594 115.59295654296875 C 399.9273681640625 103.73475646972656 422.0165100097656 126.15485382080078 501.4651184082031 127.70925903320312 C 531.7028198242188 107.98936462402344 509.6742858886719 90.35932922363281 401.2501525878906 118.97428131103516 C 461.54034423828125 98.73411560058594 480.12982177734375 75.46858978271484 415.4523010253906 105.06040954589844" stroke-width="10.293052673339844" fill="none" stroke="rgb(0, 124, 200)" stroke-opacity="0.54345024" stroke-linecap="round" stroke-linejoin="round"/>
    <path d="M 67.7027816772461 -5.412073612213135 C 63.57017135620117 -2.109179973602295 95.5136489868164 -17.22794532775879 130.83660888671875 -23.362621307373047 C 122.3972396850586 48.387752532958984 106.93246459960938 -10.006832122802734 93.30498504638672 -61.65597152709961 C 50.66273498535156 -68.52005004882812 127.696533203125 -79.4549331665039 97.91909790039062 29.387357711791992" stroke-width="8.568958282470703" fill="none" stroke="rgb(0, 0, 15)" stroke-opacity="1.0" stroke-linecap="round" stroke-linejoin="round"/>
    <path d="M -3.246314525604248 196.0500030517578 C -10.734402656555176 182.0714569091797 -4.22553825378418 162.64450073242188 -16.764570236206055 139.926025390625" stroke-width="2.09213924407959" fill="none" stroke="rgb(255, 111, 0)" stroke-opacity="0.8967123" stroke-linecap="round" stroke-linejoin="round"/>
    <path d="M 214.6825408935547 373.8726806640625 C 198.48777770996094 279.38763427734375 176.12210083007812 290.506103515625 194.10455322265625 365.590087890625 C 279.9270324707031 349.06219482421875 241.0835723876953 302.7549743652344 164.79443359375 328.3065185546875" stroke-width="8.051097869873047" fill="none" stroke="rgb(2, 69, 11)" stroke-opacity="0.23253296" stroke-linecap="round" stroke-linejoin="round"/>
    <path d="M 105.03472137451172 105.6844482421875 C 83.39786529541016 122.24188232421875 57.19081115722656 120.45134735107422 9.661115646362305 138.28317260742188" stroke-width="14.803092956542969" fill="none" stroke="rgb(66, 238, 162)" stroke-opacity="0.59848243" stroke-linecap="round" stroke-linejoin="round"/>
    <path d="M 446.2173767089844 288.63067626953125 C 390.35772705078125 267.2697448730469 403.29931640625 320.0381164550781 483.9522399902344 288.6448059082031 C 373.8026428222656 314.6333923339844 450.810302734375 365.09869384765625 464.03912353515625 317.8748779296875" stroke-width="12.173351287841797" fill="none" stroke="rgb(5, 96, 77)" stroke-opacity="0.2707499" stroke-linecap="round" stroke-linejoin="round"/>
    <path d="M 380.1624450683594 129.6844024658203 C 512.0233154296875 162.83935546875 499.154541015625 144.8341827392578 456.1049499511719 132.50436401367188 C 437.8629150390625 144.69546508789062 347.7411804199219 126.73509216308594 441.7373046875 158.23663330078125 C 456.9437561035156 151.8965606689453 446.1614685058594 174.0636444091797 499.94500732421875 133.04652404785156" stroke-width="11.232071876525879" fill="none" stroke="rgb(92, 235, 183)" stroke-opacity="0.77914304" stroke-linecap="round" stroke-linejoin="round"/>
    <path d="M -3.223092555999756 98.592529296875 C -8.725079536437988 125.160400390625 -1.4137470722198486 212.58641052246094 -9.373581886291504 78.54316711425781" stroke-width="4.936917304992676" fill="none" stroke="rgb(15, 81, 38)" stroke-opacity="0.9173796" stroke-linecap="round" stroke-linejoin="round"/>
    <path d="M 200.9219207763672 180.2918243408203 C 179.92611694335938 177.2978515625 215.52342224121094 219.41925048828125 176.81771850585938 156.74411010742188 C 157.7681427001953 243.72706604003906 249.5047607421875 259.22650146484375 162.36802673339844 254.592041015625" stroke-width="2.000192642211914" fill="none" stroke="rgb(242, 243, 238)" stroke-opacity="0.0" stroke-linecap="round" stroke-linejoin="round"/>
    <path d="M 394.2774353027344 223.71771240234375 C 493.0045166015625 247.74798583984375 336.2366943359375 251.3115692138672 400.5863952636719 268.1359558105469 C 432.0267639160156 253.33453369140625 384.8557434082031 280.6322937011719 489.5200500488281 285.6123962402344" stroke-width="12.238702774047852" fill="none" stroke="rgb(97, 157, 153)" stroke-opacity="0.53752214" stroke-linecap="round" stroke-linejoin="round"/>
  </g>
</svg>
