<?xml version="1.0" ?>
<svg xmlns="http://www.w3.org/2000/svg" version="1.1" width="500" height="500">
  <defs/>
  <g>
    <path d="M 392.8866271972656 223.99574279785156 C 388.2906188964844 206.053955078125 412.1559143066406 207.65689086914062 424.3911437988281 174.3973846435547" stroke-width="2.93072772026062" fill="none" stroke="rgb(255, 255, 255)" stroke-opacity="0.0" stroke-linecap="round" stroke-linejoin="round"/>
    <path d="M 454.0225524902344 446.9678955078125 C 497.3668212890625 429.9610290527344 478.71234130859375 455.0302429199219 481.9093017578125 398.8919982910156 C 509.35986328125 397.79522705078125 497.774658203125 407.72674560546875 509.84344482421875 345.9674072265625 C 545.4424438476562 393.68798828125 477.731689453125 368.7037658691406 476.5743103027344 382.6631164550781" stroke-width="4.459420680999756" fill="none" stroke="rgb(0, 0, 255)" stroke-opacity="1.0" stroke-linecap="round" stroke-linejoin="round"/>
    <path d="M 147.06878662109375 49.943931579589844 C 114.12036895751953 120.38048553466797 113.04067993164062 52.702735900878906 171.88316345214844 13.092769622802734" stroke-width="11.620342254638672" fill="none" stroke="rgb(0, 0, 0)" stroke-opacity="1.0" stroke-linecap="round" stroke-linejoin="round"/>
    <path d="M 442.6897888183594 393.0827941894531 C 463.1754455566406 368.5196228027344 497.1922912597656 359.7977600097656 505.6134033203125 405.4090881347656 C 511.4245910644531 417.3674011230469 532.1616821289062 414.41400146484375 551.416748046875 410.7869567871094 C 559.4943237304688 411.44097900390625 578.6724853515625 401.5716247558594 582.0833740234375 395.7819519042969" stroke-width="2.2464284896850586" fill="none" stroke="rgb(255, 254, 255)" stroke-opacity="0.011270481" stroke-linecap="round" stroke-linejoin="round"/>
    <path d="M 222.23190307617188 203.2735595703125 C 254.13902282714844 197.85072326660156 289.9191589355469 236.42759704589844 267.8541259765625 218.185546875 C 253.9960174560547 221.74359130859375 278.5912170410156 212.80445861816406 260.09613037109375 202.67193603515625" stroke-width="2.1485095024108887" fill="none" stroke="rgb(255, 255, 255)" stroke-opacity="0.0" stroke-linecap="round" stroke-linejoin="round"/>
    <path d="M 237.90269470214844 157.71310424804688 C 267.281982421875 148.79656982421875 302.8244934082031 155.23434448242188 267.20184326171875 152.9603729248047 C 266.1902770996094 66.58678436279297 269.59686279296875 20.863061904907227 263.56256103515625 144.43214416503906" stroke-width="8.848156929016113" fill="none" stroke="rgb(0, 0, 0)" stroke-opacity="1.0" stroke-linecap="round" stroke-linejoin="round"/>
    <path d="M 271.0118103027344 264.6301574707031 C 381.5090026855469 207.23666381835938 398.71600341796875 197.1611328125 397.83251953125 235.5655975341797 C 339.0958557128906 275.0953063964844 370.8153076171875 279.0028076171875 342.43408203125 247.0366668701172 C 415.5869140625 256.5418395996094 389.4219665527344 283.25579833984375 381.586181640625 273.0034484863281" stroke-width="6.859918117523193" fill="none" stroke="rgb(189, 37, 0)" stroke-opacity="1.0" stroke-linecap="round" stroke-linejoin="round"/>
    <path d="M 280.56597900390625 100.79737091064453 C 313.767578125 41.69180679321289 236.5204620361328 79.62478637695312 307.40289306640625 82.80730438232422 C 288.59674072265625 89.74202728271484 328.1678161621094 73.77520751953125 289.30609130859375 69.60891723632812" stroke-width="4.430685997009277" fill="none" stroke="rgb(0, 29, 3)" stroke-opacity="1.0" stroke-linecap="round" stroke-linejoin="round"/>
    <path d="M 80.41449737548828 170.17514038085938 C 43.09884262084961 57.87409591674805 73.40138244628906 115.45826721191406 54.33320236206055 115.14503479003906 C 87.38909149169922 99.3424072265625 58.04594421386719 149.0325469970703 108.34807586669922 198.8243408203125" stroke-width="4.210823059082031" fill="none" stroke="rgb(10, 44, 1)" stroke-opacity="0.8222505" stroke-linecap="round" stroke-linejoin="round"/>
    <path d="M 352.99365234375 492.3660583496094 C 469.0383605957031 484.2323913574219 437.30767822265625 441.231201171875 460.3125915527344 454.8085632324219 C 439.73907470703125 443.7518005371094 454.7397766113281 398.7939453125 445.9637756347656 467.0256652832031" stroke-width="10.853017807006836" fill="none" stroke="rgb(251, 118, 0)" stroke-opacity="1.0" stroke-linecap="round" stroke-linejoin="round"/>
    <path d="M 25.10945701599121 36.73941421508789 C 4.512919902801514 38.97858810424805 24.598766326904297 46.05546951293945 6.7514519691467285 -30.988554000854492 C -37.3891487121582 6.454341411590576 16.59039306640625 -7.086063385009766 34.18724060058594 0.6197831034660339 C -12.854817390441895 -9.498379707336426 37.11602020263672 15.5172119140625 84.25223541259766 -6.229912281036377" stroke-width="5.434340000152588" fill="none" stroke="rgb(133, 0, 242)" stroke-opacity="1.0" stroke-linecap="round" stroke-linejoin="round"/>
    <path d="M 67.60588836669922 228.61839294433594 C 22.732070922851562 202.63131713867188 49.157806396484375 215.2971649169922 62.89806365966797 228.5834197998047 C 99.33065795898438 207.57815551757812 40.975852966308594 245.34698486328125 52.304500579833984 241.0921173095703 C 64.78108215332031 249.6000518798828 44.12639617919922 233.89686584472656 57.36803436279297 233.9499969482422" stroke-width="2.738931894302368" fill="none" stroke="rgb(255, 0, 0)" stroke-opacity="1.0" stroke-linecap="round" stroke-linejoin="round"/>
    <path d="M 16.625205993652344 272.85223388671875 C -8.588107109069824 286.4653015136719 -17.09665298461914 235.62417602539062 0.5307633876800537 266.4411315917969" stroke-width="12.108166694641113" fill="none" stroke="rgb(255, 0, 240)" stroke-opacity="1.0" stroke-linecap="round" stroke-linejoin="round"/>
    <path d="M 184.36814880371094 275.71466064453125 C 206.98390197753906 273.98382568359375 195.69383239746094 272.4096374511719 168.6019744873047 281.5411071777344 C 173.5594482421875 323.0497131347656 201.44558715820312 278.517578125 167.81019592285156 287.1731262207031" stroke-width="3.4752438068389893" fill="none" stroke="rgb(36, 0, 0)" stroke-opacity="1.0" stroke-linecap="round" stroke-linejoin="round"/>
    <path d="M 166.13455200195312 319.3017578125 C 88.52506256103516 252.01744079589844 105.09213256835938 293.6145935058594 143.3979949951172 328.3680725097656" stroke-width="8.684370994567871" fill="none" stroke="rgb(255, 45, 0)" stroke-opacity="1.0" stroke-linecap="round" stroke-linejoin="round"/>
    <path d="M 225.62429809570312 -1.1413458585739136 C 340.58721923828125 4.67976713180542 301.0675048828125 -5.976792812347412 300.5524597167969 32.31138610839844 C 120.42253112792969 8.074908256530762 148.2264862060547 17.452777862548828 218.14141845703125 28.726810455322266 C 326.9300231933594 37.221378326416016 300.9598388671875 53.16146469116211 285.6461181640625 56.31076431274414" stroke-width="3.453683853149414" fill="none" stroke="rgb(89, 45, 0)" stroke-opacity="0.42144984" stroke-linecap="round" stroke-linejoin="round"/>
    <path d="M 322.1789855957031 369.7796936035156 C 321.978271484375 346.1074523925781 309.16998291015625 366.4331359863281 306.4269104003906 397.862060546875" stroke-width="11.39014720916748" fill="none" stroke="rgb(11, 0, 0)" stroke-opacity="1.0" stroke-linecap="round" stroke-linejoin="round"/>
    <path d="M 482.7012023925781 327.5623779296875 C 487.14007568359375 374.676513671875 477.17254638671875 345.0885314941406 513.6318359375 360.58221435546875" stroke-width="5.175586700439453" fill="none" stroke="rgb(133, 0, 255)" stroke-opacity="1.0" stroke-linecap="round" stroke-linejoin="round"/>
    <path d="M 163.95361328125 388.72283935546875 C 172.8685302734375 385.4052734375 136.36985778808594 365.20458984375 120.20525360107422 333.40289306640625 C 74.51392364501953 366.94000244140625 91.36373138427734 381.1785583496094 65.39059448242188 342.8516540527344" stroke-width="3.193218231201172" fill="none" stroke="rgb(0, 0, 0)" stroke-opacity="1.0" stroke-linecap="round" stroke-linejoin="round"/>
    <path d="M 390.0064392089844 508.9127197265625 C 482.6960144042969 471.806640625 445.12152099609375 524.8656616210938 495.3258056640625 481.73040771484375 C 510.75054931640625 401.62933349609375 511.5323486328125 445.66943359375 480.35601806640625 431.7353515625" stroke-width="16.714086532592773" fill="none" stroke="rgb(0, 0, 0)" stroke-opacity="1.0" stroke-linecap="round" stroke-linejoin="round"/>
    <path d="M 175.04071044921875 278.34423828125 C 171.23556518554688 303.84716796875 115.7959976196289 314.58770751953125 153.94053649902344 267.2864990234375 C 107.03567504882812 283.19720458984375 113.58128356933594 328.44232177734375 89.34396362304688 266.2587890625" stroke-width="4.1993913650512695" fill="none" stroke="rgb(255, 202, 26)" stroke-opacity="0.99368733" stroke-linecap="round" stroke-linejoin="round"/>
    <path d="M 306.1987609863281 382.5433044433594 C 246.0904083251953 237.26365661621094 288.9096374511719 355.2480773925781 302.064697265625 393.9795837402344 C 302.41082763671875 489.1611022949219 295.5185852050781 426.9279479980469 301.7035217285156 396.3118896484375 C 301.64666748046875 484.507568359375 310.5161437988281 487.293212890625 189.7604522705078 491.6983337402344" stroke-width="13.32018756866455" fill="none" stroke="rgb(0, 0, 255)" stroke-opacity="1.0" stroke-linecap="round" stroke-linejoin="round"/>
    <path d="M 394.3234558105469 468.0821228027344 C 470.6982727050781 484.84552001953125 419.7950744628906 431.7229309082031 434.0100402832031 446.11590576171875 C 378.7704772949219 494.12603759765625 389.37457275390625 486.46929931640625 428.02996826171875 465.9897766113281 C 409.3749694824219 461.7236328125 437.1937255859375 479.9213562011719 284.3058776855469 500.83233642578125" stroke-width="5.486329078674316" fill="none" stroke="rgb(255, 221, 0)" stroke-opacity="1.0" stroke-linecap="round" stroke-linejoin="round"/>
    <path d="M 153.40908813476562 303.43927001953125 C 133.2990264892578 329.54571533203125 194.071044921875 317.3113708496094 224.2931671142578 298.3135681152344 C 168.21803283691406 288.5991516113281 189.812255859375 284.6147155761719 244.51950073242188 286.1207275390625" stroke-width="6.149824142456055" fill="none" stroke="rgb(255, 168, 92)" stroke-opacity="0.77480614" stroke-linecap="round" stroke-linejoin="round"/>
    <path d="M 61.58515167236328 394.0709533691406 C 133.78302001953125 308.90704345703125 97.66536712646484 372.8759460449219 87.73675537109375 328.5490417480469 C 57.607276916503906 334.3934631347656 79.02458190917969 354.9959411621094 85.73320007324219 358.4302978515625 C 76.58694458007812 336.73590087890625 78.9872817993164 313.9570007324219 91.23519897460938 352.54052734375" stroke-width="2.11055064201355" fill="none" stroke="rgb(96, 37, 0)" stroke-opacity="0.99981004" stroke-linecap="round" stroke-linejoin="round"/>
    <path d="M 277.44647216796875 186.21876525878906 C 354.7112121582031 153.9047088623047 313.9220886230469 86.41239929199219 335.32275390625 120.9233169555664 C 347.2502136230469 83.5582275390625 344.7102355957031 100.08633422851562 325.12945556640625 84.38758850097656 C 340.5853576660156 129.25721740722656 344.8807678222656 81.94508361816406 354.2326354980469 69.81279754638672" stroke-width="3.951906442642212" fill="none" stroke="rgb(0, 0, 23)" stroke-opacity="1.0" stroke-linecap="round" stroke-linejoin="round"/>
    <path d="M 290.5248718261719 272.8136291503906 C 296.3171691894531 280.0188903808594 279.0791931152344 291.73211669921875 293.6856994628906 267.45904541015625 C 336.5989074707031 285.2305603027344 297.1200866699219 298.5492858886719 336.04046630859375 281.60723876953125 C 341.9263610839844 366.77618408203125 298.2661437988281 292.2762756347656 389.57275390625 301.726806640625" stroke-width="12.559022903442383" fill="none" stroke="rgb(6, 178, 132)" stroke-opacity="0.89792025" stroke-linecap="round" stroke-linejoin="round"/>
    <path d="M 143.40806579589844 174.73756408691406 C 126.64110565185547 128.7357635498047 136.6820831298828 98.29334259033203 116.03308868408203 84.9916763305664 C 42.322265625 88.85956573486328 56.69387435913086 68.96945190429688 16.102584838867188 147.50271606445312" stroke-width="10.20608139038086" fill="none" stroke="rgb(62, 63, 29)" stroke-opacity="0.5017052" stroke-linecap="round" stroke-linejoin="round"/>
    <path d="M 28.693279266357422 155.84451293945312 C 65.17047119140625 66.80097961425781 51.914398193359375 141.25254821777344 84.94794464111328 181.84878540039062 C 50.64030075073242 203.68295288085938 45.433956146240234 212.03567504882812 46.627254486083984 185.77830505371094 C 89.9494400024414 174.74472045898438 37.65081024169922 167.61370849609375 107.87303924560547 221.87196350097656" stroke-width="2.0" fill="none" stroke="rgb(0, 39, 60)" stroke-opacity="0.97699493" stroke-linecap="round" stroke-linejoin="round"/>
    <path d="M 415.2896728515625 379.8747863769531 C 383.42437744140625 386.8865661621094 422.7222595214844 295.8161926269531 420.0258483886719 427.56744384765625 C 363.1206359863281 421.67431640625 442.9229736328125 504.50311279296875 387.6560974121094 313.3211669921875" stroke-width="10.247269630432129" fill="none" stroke="rgb(0, 255, 0)" stroke-opacity="1.0" stroke-linecap="round" stroke-linejoin="round"/>
    <path d="M 445.4605712890625 144.70558166503906 C 448.0664367675781 105.6720962524414 424.1792297363281 139.3630828857422 417.86431884765625 159.4549560546875 C 362.6766052246094 144.25955200195312 397.76129150390625 102.54776000976562 429.37152099609375 90.739990234375 C 431.0054931640625 109.29851531982422 455.892333984375 99.0600357055664 461.782470703125 149.16940307617188" stroke-width="2.059847831726074" fill="none" stroke="rgb(255, 255, 255)" stroke-opacity="0.0" stroke-linecap="round" stroke-linejoin="round"/>
    <path d="M 175.31007385253906 287.2890930175781 C 89.44325256347656 335.0343322753906 133.8719940185547 341.9753723144531 97.3650894165039 311.173095703125" stroke-width="3.6110947132110596" fill="none" stroke="rgb(28, 0, 0)" stroke-opacity="1.0" stroke-linecap="round" stroke-linejoin="round"/>
    <path d="M 154.5606231689453 198.21144104003906 C 138.5606689453125 191.17405700683594 179.66868591308594 145.26654052734375 79.24623107910156 224.76966857910156" stroke-width="6.749575614929199" fill="none" stroke="rgb(255, 204, 0)" stroke-opacity="1.0" stroke-linecap="round" stroke-linejoin="round"/>
    <path d="M 113.54793548583984 36.17658615112305 C 98.786865234375 35.366153717041016 55.97781753540039 26.884756088256836 57.43134307861328 38.8441162109375 C 24.850284576416016 31.44759750366211 42.009342193603516 37.46601104736328 72.89923095703125 26.849966049194336 C 83.32247924804688 59.48876953125 58.473228454589844 69.62552642822266 61.9929313659668 62.51460266113281" stroke-width="2.281424045562744" fill="none" stroke="rgb(248, 255, 254)" stroke-opacity="0.0" stroke-linecap="round" stroke-linejoin="round"/>
    <path d="M 490.4583435058594 255.36524963378906 C 473.95758056640625 171.40553283691406 466.06622314453125 193.0507354736328 452.5311279296875 207.2229461669922" stroke-width="5.717313766479492" fill="none" stroke="rgb(100, 60, 2)" stroke-opacity="0.5654421" stroke-linecap="round" stroke-linejoin="round"/>
    <path d="M 171.8751983642578 -6.912169456481934 C 94.10823059082031 53.0803108215332 138.53492736816406 72.23600006103516 63.031394958496094 57.52888107299805 C 88.53793334960938 82.51338958740234 119.78933715820312 -17.507322311401367 79.784912109375 0.6224949955940247" stroke-width="10.73207950592041" fill="none" stroke="rgb(0, 255, 255)" stroke-opacity="1.0" stroke-linecap="round" stroke-linejoin="round"/>
    <path d="M 245.0558319091797 155.83241271972656 C 225.3968963623047 153.63279724121094 223.58294677734375 180.9857177734375 233.2074737548828 108.38529968261719" stroke-width="12.264728546142578" fill="none" stroke="rgb(0, 0, 0)" stroke-opacity="1.0" stroke-linecap="round" stroke-linejoin="round"/>
    <path d="M 409.0835266113281 103.04873657226562 C 409.64373779296875 115.86360168457031 438.0321044921875 125.83432006835938 450.30615234375 156.2771453857422 C 433.9197082519531 169.85243225097656 401.3027038574219 224.4655303955078 442.0464782714844 162.81277465820312" stroke-width="10.246136665344238" fill="none" stroke="rgb(255, 8, 255)" stroke-opacity="0.9668339" stroke-linecap="round" stroke-linejoin="round"/>
    <path d="M 138.32101440429688 185.39825439453125 C 125.70680236816406 196.5740966796875 121.01884460449219 188.13807678222656 144.787109375 217.41671752929688" stroke-width="3.5698344707489014" fill="none" stroke="rgb(0, 46, 0)" stroke-opacity="1.0" stroke-linecap="round" stroke-linejoin="round"/>
    <path d="M 166.96653747558594 236.5809326171875 C 203.47393798828125 242.68734741210938 204.8668975830078 229.8887176513672 181.35757446289062 231.93287658691406 C 218.0435028076172 217.68118286132812 102.66119384765625 245.33351135253906 169.98550415039062 258.97149658203125" stroke-width="12.349579811096191" fill="none" stroke="rgb(148, 37, 10)" stroke-opacity="0.99562925" stroke-linecap="round" stroke-linejoin="round"/>
    <path d="M 399.465087890625 76.80281066894531 C 392.8598327636719 70.34480285644531 389.4943542480469 68.2618408203125 362.6862487792969 58.038875579833984" stroke-width="4.4097466468811035" fill="none" stroke="rgb(45, 0, 0)" stroke-opacity="1.0" stroke-linecap="round" stroke-linejoin="round"/>
    <path d="M 183.56800842285156 194.0820770263672 C 188.86663818359375 234.23228454589844 145.74989318847656 203.91644287109375 171.07717895507812 225.91905212402344 C 193.29531860351562 179.19271850585938 227.7603302001953 221.18959045410156 190.5977325439453 224.0309295654297" stroke-width="9.764253616333008" fill="none" stroke="rgb(51, 84, 149)" stroke-opacity="0.6620593" stroke-linecap="round" stroke-linejoin="round"/>
    <path d="M -1.2357138395309448 460.63238525390625 C 56.41774368286133 427.0163269042969 0.05417376011610031 441.6534423828125 -12.102255821228027 385.399169921875" stroke-width="13.627724647521973" fill="none" stroke="rgb(122, 0, 0)" stroke-opacity="1.0" stroke-linecap="round" stroke-linejoin="round"/>
    <path d="M -2.621243715286255 282.3191223144531 C 52.341636657714844 285.987060546875 0.4658810496330261 281.2177734375 25.25129508972168 374.91094970703125 C 29.14263343811035 325.66473388671875 19.783769607543945 322.2218933105469 25.00386619567871 336.0088195800781" stroke-width="3.442054271697998" fill="none" stroke="rgb(0, 22, 19)" stroke-opacity="1.0" stroke-linecap="round" stroke-linejoin="round"/>
    <path d="M 311.0824279785156 264.7735595703125 C 316.9523010253906 323.50506591796875 325.2090148925781 319.096435546875 325.5025329589844 300.1128845214844" stroke-width="3.118212938308716" fill="none" stroke="rgb(186, 255, 255)" stroke-opacity="0.9467088" stroke-linecap="round" stroke-linejoin="round"/>
    <path d="M 426.84124755859375 201.62551879882812 C 449.69140625 271.79010009765625 482.2237243652344 259.34539794921875 480.7659912109375 191.1455841064453 C 480.750244140625 185.37606811523438 485.4949645996094 207.00233459472656 495.82611083984375 242.15573120117188 C 436.54644775390625 251.71380615234375 416.7555847167969 209.1189422607422 457.2859802246094 180.3086700439453" stroke-width="2.099034309387207" fill="none" stroke="rgb(26, 103, 255)" stroke-opacity="0.2749572" stroke-linecap="round" stroke-linejoin="round"/>
    <path d="M 66.46260833740234 64.71575164794922 C 88.27135467529297 65.730224609375 107.55599975585938 63.42170715332031 54.93943405151367 68.4320068359375" stroke-width="8.663070678710938" fill="none" stroke="rgb(54, 4, 0)" stroke-opacity="0.82227635" stroke-linecap="round" stroke-linejoin="round"/>
    <path d="M 40.68821334838867 23.09771728515625 C 18.807279586791992 60.220062255859375 39.701744079589844 39.200164794921875 35.01262283325195 41.285945892333984" stroke-width="2.426973342895508" fill="none" stroke="rgb(255, 255, 200)" stroke-opacity="0.0" stroke-linecap="round" stroke-linejoin="round"/>
    <path d="M 145.45899963378906 426.6650390625 C 153.78213500976562 508.63397216796875 178.77146911621094 481.85137939453125 145.5258026123047 429.7867431640625 C 194.916015625 404.7362060546875 209.0431671142578 427.93658447265625 181.26548767089844 416.11083984375 C 226.66407775878906 421.4978942871094 266.9796447753906 395.1204528808594 256.4943542480469 443.6683044433594" stroke-width="15.237678527832031" fill="none" stroke="rgb(240, 0, 255)" stroke-opacity="1.0" stroke-linecap="round" stroke-linejoin="round"/>
    <path d="M 472.2908630371094 435.2023010253906 C 450.0865783691406 467.8804016113281 456.75372314453125 439.7740783691406 429.4897766113281 315.0375671386719" stroke-width="11.451253890991211" fill="none" stroke="rgb(255, 0, 255)" stroke-opacity="1.0" stroke-linecap="round" stroke-linejoin="round"/>
    <path d="M 413.5223083496094 303.5657958984375 C 443.3525390625 407.1315002441406 461.4710693359375 339.0462341308594 418.02764892578125 304.3719482421875 C 294.78582763671875 323.53240966796875 368.5543518066406 330.52801513671875 416.42657470703125 297.03997802734375" stroke-width="7.38167142868042" fill="none" stroke="rgb(152, 128, 86)" stroke-opacity="0.4556283" stroke-linecap="round" stroke-linejoin="round"/>
    <path d="M 267.3964538574219 321.0890808105469 C 312.9203796386719 403.111083984375 251.0859832763672 368.71533203125 220.7145538330078 342.4523620605469 C 216.19419860839844 328.7900695800781 247.9560546875 281.31072998046875 250.60946655273438 386.06707763671875" stroke-width="9.684894561767578" fill="none" stroke="rgb(43, 180, 69)" stroke-opacity="0.7821854" stroke-linecap="round" stroke-linejoin="round"/>
    <path d="M 407.7777404785156 44.741573333740234 C 454.25299072265625 75.2218246459961 478.6413879394531 57.143218994140625 438.525146484375 96.90642547607422" stroke-width="11.239947319030762" fill="none" stroke="rgb(132, 77, 62)" stroke-opacity="0.24524687" stroke-linecap="round" stroke-linejoin="round"/>
    <path d="M 208.48541259765625 255.8878173828125 C 213.63905334472656 241.79827880859375 214.27589416503906 324.1710205078125 190.0602569580078 247.21324157714844 C 272.96600341796875 240.1367950439453 299.2159118652344 205.61512756347656 205.22958374023438 245.93655395507812 C 228.92117309570312 221.7415313720703 178.8180694580078 233.42645263671875 183.1050567626953 276.3185119628906" stroke-width="3.3765769004821777" fill="none" stroke="rgb(187, 114, 9)" stroke-opacity="0.68595296" stroke-linecap="round" stroke-linejoin="round"/>
    <path d="M 168.60264587402344 180.14500427246094 C 147.97940063476562 26.591686248779297 164.62332153320312 207.0200653076172 140.1577606201172 120.57027435302734" stroke-width="6.801817893981934" fill="none" stroke="rgb(255, 93, 0)" stroke-opacity="1.0" stroke-linecap="round" stroke-linejoin="round"/>
    <path d="M 402.00347900390625 448.5281677246094 C 328.00018310546875 453.4991149902344 328.9355773925781 460.2162780761719 338.1640625 391.37921142578125" stroke-width="15.16650676727295" fill="none" stroke="rgb(141, 0, 255)" stroke-opacity="1.0" stroke-linecap="round" stroke-linejoin="round"/>
    <path d="M 329.50823974609375 249.55104064941406 C 334.1234436035156 258.66400146484375 343.32110595703125 248.2781219482422 389.1001892089844 190.54718017578125 C 300.6409606933594 229.32777404785156 352.71649169921875 248.95703125 358.5404052734375 215.21746826171875 C 307.4964294433594 268.900390625 219.6807098388672 303.9768981933594 332.3700256347656 249.06118774414062" stroke-width="9.86583423614502" fill="none" stroke="rgb(0, 0, 8)" stroke-opacity="1.0" stroke-linecap="round" stroke-linejoin="round"/>
    <path d="M 384.4528503417969 142.3686981201172 C 410.5148620605469 127.89070892333984 392.83416748046875 135.26722717285156 424.611572265625 116.14642333984375" stroke-width="2.599705457687378" fill="none" stroke="rgb(72, 255, 161)" stroke-opacity="0.0" stroke-linecap="round" stroke-linejoin="round"/>
    <path d="M 394.87969970703125 161.28880310058594 C 408.1313781738281 173.9669952392578 405.4804382324219 115.53408813476562 364.1600036621094 212.12359619140625 C 367.3287048339844 169.86798095703125 407.5017395019531 126.37423706054688 408.6508483886719 158.05050659179688" stroke-width="3.808476209640503" fill="none" stroke="rgb(0, 0, 76)" stroke-opacity="1.0" stroke-linecap="round" stroke-linejoin="round"/>
    <path d="M 300.6368103027344 -2.4846913814544678 C 288.7349853515625 -13.922503471374512 273.56787109375 -17.526592254638672 276.606689453125 -19.38345718383789" stroke-width="2.0" fill="none" stroke="rgb(86, 232, 58)" stroke-opacity="0.3204872" stroke-linecap="round" stroke-linejoin="round"/>
    <path d="M 421.9902038574219 492.9190979003906 C 479.1861877441406 443.7253723144531 426.33489990234375 423.117919921875 467.2864685058594 453.45074462890625 C 435.04937744140625 444.1802062988281 406.5813903808594 524.6641845703125 489.8844909667969 462.50311279296875" stroke-width="7.8892436027526855" fill="none" stroke="rgb(85, 12, 0)" stroke-opacity="0.24477586" stroke-linecap="round" stroke-linejoin="round"/>
    <path d="M 218.8111572265625 33.235172271728516 C 360.2561950683594 45.674354553222656 348.75555419921875 59.47953796386719 390.6650695800781 68.78022766113281 C 388.0909729003906 50.2095832824707 374.96649169921875 51.909873962402344 409.282958984375 86.85309600830078 C 378.2806701660156 60.71473693847656 342.57037353515625 55.52130126953125 349.6525573730469 55.828208923339844" stroke-width="8.680412292480469" fill="none" stroke="rgb(37, 0, 0)" stroke-opacity="0.44143283" stroke-linecap="round" stroke-linejoin="round"/>
    <path d="M 333.7008361816406 235.25962829589844 C 413.458740234375 273.8264465332031 348.77520751953125 273.5079040527344 397.8208312988281 235.3731231689453 C 393.9912109375 163.98684692382812 389.5877990722656 245.19561767578125 277.49261474609375 283.95654296875" stroke-width="8.034342765808105" fill="none" stroke="rgb(255, 147, 0)" stroke-opacity="1.0" stroke-linecap="round" stroke-linejoin="round"/>
    <path d="M 304.83148193359375 94.862060546875 C 205.36077880859375 64.85994720458984 196.5580596923828 84.84278106689453 245.18832397460938 60.13311004638672" stroke-width="3.2411887645721436" fill="none" stroke="rgb(0, 111, 0)" stroke-opacity="1.0" stroke-linecap="round" stroke-linejoin="round"/>
    <path d="M -12.833999633789062 301.9581604003906 C -5.333523750305176 323.4669189453125 52.87110900878906 284.2708435058594 35.58073425292969 339.65081787109375 C 14.29901123046875 249.4558868408203 43.01960754394531 252.8590545654297 -23.23722267150879 257.00238037109375 C -13.251447677612305 282.7327880859375 -6.656076431274414 282.3246765136719 -13.39349365234375 255.07089233398438" stroke-width="8.686942100524902" fill="none" stroke="rgb(125, 237, 255)" stroke-opacity="0.3653656" stroke-linecap="round" stroke-linejoin="round"/>
    <path d="M 291.2773132324219 404.4255676269531 C 318.4703063964844 370.35797119140625 320.9170227050781 463.5924987792969 332.53240966796875 446.40313720703125" stroke-width="4.26422119140625" fill="none" stroke="rgb(255, 255, 220)" stroke-opacity="1.0" stroke-linecap="round" stroke-linejoin="round"/>
    <path d="M 363.2119445800781 396.119384765625 C 394.5037536621094 331.9997253417969 376.867919921875 306.7473449707031 282.3787536621094 335.681396484375 C 269.8216247558594 382.9940185546875 314.3896484375 335.8287353515625 306.0605773925781 314.1633605957031" stroke-width="2.9431238174438477" fill="none" stroke="rgb(255, 255, 218)" stroke-opacity="1.0" stroke-linecap="round" stroke-linejoin="round"/>
    <path d="M 248.2754364013672 472.7806091308594 C 236.82798767089844 509.724365234375 320.35748291015625 464.0107421875 255.32403564453125 447.3518371582031 C 245.5201873779297 469.1884460449219 240.93536376953125 442.8324279785156 278.2679748535156 399.99176025390625" stroke-width="12.524346351623535" fill="none" stroke="rgb(103, 89, 83)" stroke-opacity="0.6024808" stroke-linecap="round" stroke-linejoin="round"/>
    <path d="M 161.98643493652344 214.10415649414062 C 205.4199676513672 220.07357788085938 149.790771484375 145.3954620361328 205.7825469970703 212.92276000976562 C 237.3048095703125 201.2008514404297 196.25152587890625 220.78370666503906 174.8285675048828 190.3026580810547" stroke-width="11.803109169006348" fill="none" stroke="rgb(36, 137, 241)" stroke-opacity="0.9609984" stroke-linecap="round" stroke-linejoin="round"/>
    <path d="M 414.1097106933594 100.16818237304688 C 442.0075988769531 138.79354858398438 440.5041809082031 136.1886444091797 424.3952941894531 113.4968032836914 C 428.7520446777344 118.64952850341797 430.7226867675781 126.77806091308594 396.8482971191406 145.98318481445312" stroke-width="8.841436386108398" fill="none" stroke="rgb(0, 0, 255)" stroke-opacity="1.0" stroke-linecap="round" stroke-linejoin="round"/>
    <path d="M 509.18231201171875 73.55699157714844 C 461.8416442871094 79.9246826171875 531.4910888671875 32.973472595214844 505.9734802246094 116.69261932373047 C 453.89471435546875 58.496158599853516 477.69158935546875 81.5299072265625 498.79595947265625 121.21868133544922 C 471.5871887207031 60.14792251586914 563.5466918945312 100.23965454101562 476.7651672363281 146.23170471191406" stroke-width="8.331893920898438" fill="none" stroke="rgb(34, 0, 0)" stroke-opacity="1.0" stroke-linecap="round" stroke-linejoin="round"/>
    <path d="M 481.8763732910156 111.5001220703125 C 441.9239807128906 135.71556091308594 478.8927307128906 114.16574096679688 518.7390747070312 90.9832992553711 C 492.1081848144531 110.814208984375 507.4520568847656 131.30743408203125 506.2160949707031 95.5904769897461 C 495.9123840332031 117.59864044189453 516.1952514648438 102.6365737915039 536.2897338867188 94.75054931640625" stroke-width="4.960554122924805" fill="none" stroke="rgb(29, 0, 0)" stroke-opacity="1.0" stroke-linecap="round" stroke-linejoin="round"/>
    <path d="M 367.1583251953125 134.06069946289062 C 368.3763732910156 146.58753967285156 350.06829833984375 179.66004943847656 308.68927001953125 207.342041015625 C 233.8491668701172 257.3632507324219 287.6358947753906 212.97283935546875 336.0281982421875 183.90365600585938 C 318.68048095703125 196.89910888671875 372.0314636230469 156.69607543945312 373.7579345703125 117.68400573730469" stroke-width="8.010433197021484" fill="none" stroke="rgb(0, 255, 255)" stroke-opacity="1.0" stroke-linecap="round" stroke-linejoin="round"/>
    <path d="M 434.12274169921875 113.74853515625 C 422.8730163574219 137.84112548828125 376.67138671875 147.815673828125 393.8148193359375 166.5052947998047" stroke-width="4.849552631378174" fill="none" stroke="rgb(255, 164, 0)" stroke-opacity="1.0" stroke-linecap="round" stroke-linejoin="round"/>
    <path d="M 137.59188842773438 201.7015838623047 C 205.430419921875 167.45803833007812 178.426025390625 176.25416564941406 178.34356689453125 169.0226287841797 C 130.23367309570312 173.75425720214844 144.46237182617188 184.86444091796875 158.00738525390625 205.8623504638672 C 183.26730346679688 201.82301330566406 161.8792724609375 199.93670654296875 158.65118408203125 177.9207305908203" stroke-width="3.7683870792388916" fill="none" stroke="rgb(255, 0, 0)" stroke-opacity="1.0" stroke-linecap="round" stroke-linejoin="round"/>
    <path d="M 285.28271484375 126.75699615478516 C 125.6878662109375 116.35264587402344 247.5356903076172 120.3732681274414 198.9510498046875 137.09686279296875" stroke-width="2.210038185119629" fill="none" stroke="rgb(70, 63, 48)" stroke-opacity="0.8732618" stroke-linecap="round" stroke-linejoin="round"/>
    <path d="M 162.89993286132812 359.1344299316406 C 177.77508544921875 394.4960021972656 155.5302276611328 374.5626525878906 147.51649475097656 367.0491027832031" stroke-width="5.568933010101318" fill="none" stroke="rgb(0, 255, 0)" stroke-opacity="1.0" stroke-linecap="round" stroke-linejoin="round"/>
    <path d="M 220.99514770507812 269.3264465332031 C 223.128173828125 253.03207397460938 229.199951171875 231.77015686035156 228.03773498535156 269.86395263671875" stroke-width="4.944486618041992" fill="none" stroke="rgb(255, 81, 3)" stroke-opacity="0.8682135" stroke-linecap="round" stroke-linejoin="round"/>
    <path d="M 213.09469604492188 35.02208709716797 C 204.97384643554688 41.23739242553711 149.66680908203125 115.42366027832031 182.0406951904297 99.2895278930664 C 212.3876953125 34.86152267456055 240.2571563720703 34.196693420410156 221.42897033691406 36.37260818481445 C 271.97900390625 57.41872024536133 257.34918212890625 26.075069427490234 240.4462432861328 97.38847351074219" stroke-width="8.873607635498047" fill="none" stroke="rgb(113, 122, 59)" stroke-opacity="0.8785483" stroke-linecap="round" stroke-linejoin="round"/>
    <path d="M 15.538368225097656 110.90818786621094 C 11.512927055358887 137.3497314453125 28.034252166748047 108.43692016601562 70.97157287597656 52.85935974121094 C 47.17202377319336 99.73775482177734 2.6954574584960938 102.5530776977539 -7.346077919006348 228.6513671875" stroke-width="8.311088562011719" fill="none" stroke="rgb(61, 22, 0)" stroke-opacity="1.0" stroke-linecap="round" stroke-linejoin="round"/>
    <path d="M 70.46385192871094 502.5408630371094 C 36.65645980834961 496.901611328125 52.36781311035156 396.455810546875 46.30509948730469 437.37591552734375 C 8.300541877746582 444.9995422363281 50.065223693847656 439.48297119140625 -10.255769729614258 396.8164978027344" stroke-width="15.330402374267578" fill="none" stroke="rgb(0, 0, 0)" stroke-opacity="0.7219719" stroke-linecap="round" stroke-linejoin="round"/>
    <path d="M 421.04931640625 27.869991302490234 C 426.3993835449219 57.29575729370117 484.7587890625 41.65658187866211 410.27337646484375 98.26303100585938 C 450.9258117675781 28.160072326660156 451.6451110839844 71.22998046875 487.8201904296875 89.17893981933594 C 463.11834716796875 62.180843353271484 486.0053405761719 115.47197723388672 498.0986633300781 28.68453025817871" stroke-width="8.992480278015137" fill="none" stroke="rgb(255, 66, 255)" stroke-opacity="0.6568736" stroke-linecap="round" stroke-linejoin="round"/>
    <path d="M 222.9226837158203 383.38909912109375 C 188.67770385742188 310.4713134765625 216.72579956054688 353.08270263671875 209.59771728515625 355.3521423339844 C 260.7219543457031 371.2261047363281 205.34190368652344 286.2012023925781 233.17208862304688 373.52960205078125" stroke-width="4.608977317810059" fill="none" stroke="rgb(5, 0, 27)" stroke-opacity="1.0" stroke-linecap="round" stroke-linejoin="round"/>
    <path d="M 191.06402587890625 483.00054931640625 C 175.64871215820312 474.2822570800781 139.76998901367188 435.1633605957031 175.22145080566406 422.33453369140625" stroke-width="6.135830402374268" fill="none" stroke="rgb(0, 255, 255)" stroke-opacity="1.0" stroke-linecap="round" stroke-linejoin="round"/>
    <path d="M -4.083192825317383 242.33477783203125 C -27.773635864257812 246.9136199951172 -10.083908081054688 242.773193359375 -30.005449295043945 234.9624786376953 C -12.4553804397583 236.81552124023438 -18.08523941040039 257.0263977050781 -17.257116317749023 234.65048217773438 C -17.832475662231445 215.60174560546875 -34.9748420715332 219.3909912109375 -27.87941551208496 195.11529541015625" stroke-width="2.0159740447998047" fill="none" stroke="rgb(255, 255, 255)" stroke-opacity="0.0" stroke-linecap="round" stroke-linejoin="round"/>
    <path d="M 70.15645599365234 229.10955810546875 C 86.12236785888672 240.85482788085938 116.91508483886719 276.5473937988281 54.05970764160156 327.2587585449219" stroke-width="9.250846862792969" fill="none" stroke="rgb(0, 3, 32)" stroke-opacity="0.52073413" stroke-linecap="round" stroke-linejoin="round"/>
    <path d="M 110.30052185058594 230.12271118164062 C 132.5802001953125 260.9465637207031 106.66310119628906 273.1791076660156 75.50408935546875 233.74325561523438" stroke-width="10.623024940490723" fill="none" stroke="rgb(132, 107, 23)" stroke-opacity="0.50619394" stroke-linecap="round" stroke-linejoin="round"/>
    <path d="M 414.7807312011719 1.4979244470596313 C 410.5739440917969 -8.951936721801758 412.1793212890625 5.069056510925293 409.3024597167969 23.414945602416992 C 416.5148620605469 4.258598327636719 394.834228515625 -6.991359710693359 370.19537353515625 -0.7933422923088074 C 368.8132629394531 -2.769596815109253 354.2857971191406 -11.512012481689453 359.1886291503906 -15.121478080749512" stroke-width="2.026204824447632" fill="none" stroke="rgb(255, 255, 255)" stroke-opacity="0.0" stroke-linecap="round" stroke-linejoin="round"/>
    <path d="M 438.1375427246094 168.13038635253906 C 386.455322265625 110.43636322021484 404.57568359375 122.12310791015625 384.9367980957031 141.12864685058594" stroke-width="8.851785659790039" fill="none" stroke="rgb(0, 72, 0)" stroke-opacity="0.5052866" stroke-linecap="round" stroke-linejoin="round"/>
    <path d="M 517.9149169921875 2.1277217864990234 C 425.4944152832031 -4.6407647132873535 480.0226745605469 -11.575556755065918 430.7037353515625 74.83080291748047 C 420.250732421875 84.9391860961914 421.4703674316406 99.1817855834961 387.91619873046875 57.61832809448242" stroke-width="9.516871452331543" fill="none" stroke="rgb(112, 120, 5)" stroke-opacity="0.5067437" stroke-linecap="round" stroke-linejoin="round"/>
    <path d="M 193.88417053222656 455.3896484375 C 142.02520751953125 510.3979797363281 207.01942443847656 471.9396667480469 109.87274932861328 485.4945068359375" stroke-width="11.022480964660645" fill="none" stroke="rgb(0, 160, 255)" stroke-opacity="0.7800257" stroke-linecap="round" stroke-linejoin="round"/>
    <path d="M 296.09002685546875 285.51171875 C 271.35406494140625 292.9256591796875 309.7066345214844 310.85150146484375 297.7417297363281 282.5832824707031 C 283.3555908203125 319.28179931640625 311.3682556152344 293.01507568359375 290.3153076171875 297.182373046875" stroke-width="2.779877185821533" fill="none" stroke="rgb(124, 0, 0)" stroke-opacity="1.0" stroke-linecap="round" stroke-linejoin="round"/>
    <path d="M 56.018375396728516 360.0651550292969 C -15.154403686523438 397.8876647949219 18.14715576171875 424.1627502441406 24.6654109954834 398.9771423339844" stroke-width="2.151324987411499" fill="none" stroke="rgb(0, 0, 0)" stroke-opacity="1.0" stroke-linecap="round" stroke-linejoin="round"/>
    <path d="M 225.49322509765625 43.018409729003906 C 277.763671875 59.34639358520508 293.20330810546875 53.195255279541016 343.06884765625 75.56388854980469" stroke-width="11.203601837158203" fill="none" stroke="rgb(46, 52, 29)" stroke-opacity="0.6875897" stroke-linecap="round" stroke-linejoin="round"/>
    <path d="M 111.97533416748047 255.5161590576172 C 132.3038787841797 223.8493194580078 81.74981689453125 240.57205200195312 106.21250915527344 256.3870544433594" stroke-width="9.718645095825195" fill="none" stroke="rgb(127, 139, 115)" stroke-opacity="0.9840683" stroke-linecap="round" stroke-linejoin="round"/>
    <path d="M 182.4824676513672 352.4471740722656 C 135.763916015625 372.50079345703125 153.18353271484375 337.1684265136719 153.62669372558594 351.4420166015625" stroke-width="5.911582946777344" fill="none" stroke="rgb(0, 0, 0)" stroke-opacity="1.0" stroke-linecap="round" stroke-linejoin="round"/>
    <path d="M 121.0715103149414 139.51573181152344 C 107.77391052246094 158.8701629638672 17.210874557495117 198.34339904785156 61.69439697265625 161.54367065429688 C 144.45742797851562 125.67953491210938 133.80538940429688 204.1622314453125 140.5025634765625 87.09982299804688 C 103.92948913574219 81.22422790527344 143.8019561767578 60.679908752441406 162.46192932128906 127.69266510009766" stroke-width="10.557520866394043" fill="none" stroke="rgb(80, 74, 78)" stroke-opacity="0.7086998" stroke-linecap="round" stroke-linejoin="round"/>
    <path d="M 74.53469848632812 251.73289489746094 C 89.87335205078125 255.405517578125 74.91026306152344 223.39578247070312 35.55643844604492 309.9697265625 C 38.6450080871582 355.11260986328125 93.92845153808594 215.81118774414062 78.78802490234375 264.5651550292969 C 80.33517456054688 266.5779724121094 92.07843017578125 269.91497802734375 57.62181854248047 320.29473876953125" stroke-width="11.004969596862793" fill="none" stroke="rgb(0, 0, 0)" stroke-opacity="1.0" stroke-linecap="round" stroke-linejoin="round"/>
    <path d="M 310.6466979980469 199.90797424316406 C 336.1566467285156 176.23574829101562 298.0505676269531 211.18772888183594 290.96826171875 212.4768524169922 C 246.78945922851562 244.2779083251953 248.4405975341797 213.6746826171875 276.22235107421875 271.35736083984375 C 280.96441650390625 234.73092651367188 238.7611541748047 263.1046142578125 307.2937316894531 225.9265594482422" stroke-width="10.187718391418457" fill="none" stroke="rgb(96, 110, 0)" stroke-opacity="0.6641628" stroke-linecap="round" stroke-linejoin="round"/>
    <path d="M 150.38597106933594 368.77093505859375 C 122.44525146484375 365.4542236328125 138.01718139648438 393.0921325683594 145.80844116210938 365.0956115722656" stroke-width="2.5046863555908203" fill="none" stroke="rgb(7, 2, 0)" stroke-opacity="1.0" stroke-linecap="round" stroke-linejoin="round"/>
    <path d="M 364.5863037109375 330.4382019042969 C 370.2351379394531 385.0252380371094 380.05133056640625 357.47216796875 387.16876220703125 368.7606506347656 C 374.6183166503906 374.2840881347656 328.1780090332031 391.48809814453125 393.26898193359375 367.9454040527344" stroke-width="10.02618408203125" fill="none" stroke="rgb(48, 27, 116)" stroke-opacity="0.8566013" stroke-linecap="round" stroke-linejoin="round"/>
    <path d="M 254.45223999023438 217.15708923339844 C 197.7302703857422 235.65980529785156 131.13987731933594 244.97830200195312 250.57305908203125 208.0220489501953" stroke-width="9.182080268859863" fill="none" stroke="rgb(9, 0, 0)" stroke-opacity="1.0" stroke-linecap="round" stroke-linejoin="round"/>
    <path d="M 349.3129577636719 36.80974578857422 C 349.6709289550781 23.6322021484375 357.39605712890625 31.3900203704834 300.0899353027344 16.82673454284668 C 203.83355712890625 3.536695718765259 228.23983764648438 25.850656509399414 220.8902587890625 -30.01944351196289" stroke-width="3.399125814437866" fill="none" stroke="rgb(0, 7, 0)" stroke-opacity="1.0" stroke-linecap="round" stroke-linejoin="round"/>
    <path d="M 401.7179870605469 19.44829750061035 C 395.97503662109375 72.87108612060547 401.1161193847656 46.5006217956543 366.0188293457031 47.223323822021484 C 320.6266784667969 25.86445426940918 396.0108947753906 46.015377044677734 396.9836120605469 47.21555709838867" stroke-width="10.027994155883789" fill="none" stroke="rgb(255, 0, 255)" stroke-opacity="1.0" stroke-linecap="round" stroke-linejoin="round"/>
    <path d="M 448.45489501953125 361.8388366699219 C 486.9288635253906 328.99859619140625 490.4117126464844 367.6316833496094 455.7330627441406 243.4076385498047 C 485.9456481933594 273.2415771484375 450.6049499511719 240.84597778320312 464.4658508300781 271.99249267578125 C 447.70928955078125 233.27146911621094 415.9111328125 205.71258544921875 461.8961181640625 254.79615783691406" stroke-width="12.034369468688965" fill="none" stroke="rgb(178, 32, 68)" stroke-opacity="0.43103686" stroke-linecap="round" stroke-linejoin="round"/>
    <path d="M 262.1570129394531 351.9677734375 C 296.607177734375 336.9925842285156 291.84197998046875 379.9979248046875 252.68768310546875 396.47637939453125 C 257.53558349609375 353.9768371582031 282.2403564453125 325.03192138671875 293.9496154785156 393.674560546875" stroke-width="12.454034805297852" fill="none" stroke="rgb(167, 210, 182)" stroke-opacity="0.6282906" stroke-linecap="round" stroke-linejoin="round"/>
    <path d="M -2.902959108352661 324.6586608886719 C 46.610233306884766 226.8085479736328 28.95533561706543 243.81727600097656 21.778688430786133 272.2456970214844 C 75.19273376464844 238.28504943847656 20.365699768066406 224.5771484375 49.258277893066406 243.69117736816406" stroke-width="7.370589256286621" fill="none" stroke="rgb(0, 0, 255)" stroke-opacity="1.0" stroke-linecap="round" stroke-linejoin="round"/>
    <path d="M 211.8308868408203 251.05145263671875 C 105.85042572021484 282.2105407714844 135.50030517578125 222.09161376953125 183.34027099609375 223.3544464111328 C 167.35586547851562 214.6356201171875 119.3128662109375 228.52479553222656 137.145751953125 262.82684326171875 C 84.45623016357422 308.20672607421875 69.07138061523438 339.1030578613281 102.4295883178711 319.3011474609375" stroke-width="10.752904891967773" fill="none" stroke="rgb(168, 133, 91)" stroke-opacity="0.77767473" stroke-linecap="round" stroke-linejoin="round"/>
    <path d="M 8.095906257629395 220.443603515625 C 3.977914810180664 182.68666076660156 8.786341667175293 163.7821807861328 46.254295349121094 193.41741943359375 C 21.591121673583984 103.25895690917969 8.438705444335938 199.07347106933594 12.583477020263672 177.24874877929688" stroke-width="8.535728454589844" fill="none" stroke="rgb(255, 0, 0)" stroke-opacity="1.0" stroke-linecap="round" stroke-linejoin="round"/>
    <path d="M 289.698486328125 45.01277160644531 C 369.0040588378906 61.50727844238281 396.2802429199219 86.76544952392578 237.5103302001953 41.25688171386719 C 323.2970275878906 60.34397506713867 353.11334228515625 71.28380584716797 289.7143249511719 47.50429916381836" stroke-width="7.54168176651001" fill="none" stroke="rgb(0, 0, 0)" stroke-opacity="1.0" stroke-linecap="round" stroke-linejoin="round"/>
    <path d="M 255.78367614746094 -7.6574554443359375 C 243.4476776123047 -6.871379852294922 247.0508270263672 -19.951793670654297 240.98245239257812 -1.8808318376541138" stroke-width="2.0" fill="none" stroke="rgb(0, 241, 0)" stroke-opacity="0.16038582" stroke-linecap="round" stroke-linejoin="round"/>
    <path d="M 409.7831726074219 283.2628479003906 C 444.4974670410156 332.41339111328125 398.53558349609375 321.3988037109375 451.2356262207031 283.9212646484375" stroke-width="11.905562400817871" fill="none" stroke="rgb(156, 102, 131)" stroke-opacity="0.8190098" stroke-linecap="round" stroke-linejoin="round"/>
    <path d="M 263.8922424316406 226.95407104492188 C 169.54739379882812 242.54603576660156 199.71188354492188 293.31732177734375 349.2049255371094 284.3918762207031 C 312.6497497558594 254.36001586914062 291.1121826171875 286.7882385253906 198.8876190185547 298.987060546875" stroke-width="10.844773292541504" fill="none" stroke="rgb(67, 11, 0)" stroke-opacity="0.4012845" stroke-linecap="round" stroke-linejoin="round"/>
    <path d="M 22.002098083496094 153.1558074951172 C 65.20953369140625 95.98967742919922 49.02827453613281 100.87724304199219 98.09220886230469 104.89311981201172" stroke-width="8.579079627990723" fill="none" stroke="rgb(16, 0, 0)" stroke-opacity="1.0" stroke-linecap="round" stroke-linejoin="round"/>
    <path d="M 162.9100799560547 507.7682189941406 C 212.02906799316406 503.04779052734375 189.2384490966797 419.2215270996094 154.7064208984375 363.6949768066406 C 217.50180053710938 428.47344970703125 198.51588439941406 439.73193359375 195.53770446777344 436.70465087890625" stroke-width="12.292384147644043" fill="none" stroke="rgb(255, 0, 255)" stroke-opacity="1.0" stroke-linecap="round" stroke-linejoin="round"/>
    <path d="M 54.04100799560547 37.98868179321289 C 61.31840896606445 28.089885711669922 49.39107894897461 28.225622177124023 49.390289306640625 51.727901458740234 C 16.819944381713867 34.41924285888672 7.399730682373047 52.83917236328125 8.712885856628418 37.10117721557617 C 14.897862434387207 51.60970687866211 -16.87736701965332 39.32447814941406 -64.36735534667969 10.667425155639648" stroke-width="4.172368049621582" fill="none" stroke="rgb(255, 0, 80)" stroke-opacity="1.0" stroke-linecap="round" stroke-linejoin="round"/>
    <path d="M 428.8911437988281 206.99148559570312 C 340.00616455078125 323.3181457519531 347.30328369140625 243.116943359375 397.864501953125 297.7068786621094 C 321.05291748046875 294.1539306640625 368.3447570800781 324.89569091796875 410.5558776855469 255.70745849609375" stroke-width="13.429534912109375" fill="none" stroke="rgb(255, 124, 97)" stroke-opacity="0.57411855" stroke-linecap="round" stroke-linejoin="round"/>
    <path d="M -19.490877151489258 25.541683197021484 C -29.844100952148438 15.14342975616455 21.59677505493164 22.22219467163086 36.43503952026367 20.899694442749023 C 40.49081039428711 57.599464416503906 42.41790008544922 52.13939666748047 14.724128723144531 62.10723114013672 C 1.9207030534744263 36.500587463378906 18.02130699157715 28.552167892456055 -17.466819763183594 98.39508056640625" stroke-width="15.065409660339355" fill="none" stroke="rgb(0, 0, 0)" stroke-opacity="1.0" stroke-linecap="round" stroke-linejoin="round"/>
    <path d="M 237.0974884033203 422.36627197265625 C 229.27084350585938 498.974609375 231.15394592285156 474.6358337402344 251.4394989013672 485.4163513183594 C 281.32769775390625 444.6710205078125 327.7444763183594 483.3028259277344 205.51812744140625 479.5051574707031" stroke-width="20.705440521240234" fill="none" stroke="rgb(29, 101, 69)" stroke-opacity="0.64654815" stroke-linecap="round" stroke-linejoin="round"/>
    <path d="M 121.52649688720703 309.81500244140625 C 90.55442810058594 317.0047607421875 105.78480529785156 349.3450927734375 164.7499542236328 357.85052490234375 C 172.10040283203125 273.6248474121094 157.30563354492188 279.8954162597656 198.18719482421875 255.37440490722656 C 144.7527618408203 262.09716796875 140.7429656982422 303.73480224609375 184.41734313964844 276.40399169921875" stroke-width="3.3495054244995117" fill="none" stroke="rgb(255, 255, 255)" stroke-opacity="0.98370516" stroke-linecap="round" stroke-linejoin="round"/>
    <path d="M 145.1602325439453 -1.2906296253204346 C 90.66302490234375 -6.375487804412842 103.38645935058594 13.182161331176758 99.88810729980469 -8.399418830871582" stroke-width="9.26890754699707" fill="none" stroke="rgb(91, 117, 0)" stroke-opacity="0.8483247" stroke-linecap="round" stroke-linejoin="round"/>
    <path d="M 174.24227905273438 18.407079696655273 C 113.0174331665039 102.232666015625 146.03221130371094 83.65764617919922 137.7874298095703 91.722412109375 C 176.32704162597656 17.961776733398438 199.6387481689453 24.369409561157227 179.96011352539062 14.455085754394531 C 189.38882446289062 -13.296671867370605 230.758544921875 15.443392753601074 249.2107696533203 -20.4139404296875" stroke-width="6.8795013427734375" fill="none" stroke="rgb(75, 70, 63)" stroke-opacity="0.6454051" stroke-linecap="round" stroke-linejoin="round"/>
    <path d="M 333.1495666503906 320.030517578125 C 412.7337646484375 310.58258056640625 415.5087585449219 284.5003356933594 416.856201171875 272.8504638671875 C 407.851806640625 328.81195068359375 341.34332275390625 274.8512268066406 405.5512390136719 295.4837341308594" stroke-width="6.194358825683594" fill="none" stroke="rgb(36, 83, 0)" stroke-opacity="0.2400911" stroke-linecap="round" stroke-linejoin="round"/>
    <path d="M 29.392223358154297 126.54853057861328 C 8.739594459533691 163.96444702148438 -3.865253448486328 241.40420532226562 12.7826566696167 177.05377197265625 C 64.19693756103516 205.72271728515625 11.852495193481445 200.9640655517578 20.99909019470215 147.99769592285156 C 36.81863784790039 157.78500366210938 -1.7515869140625 171.99258422851562 32.52577590942383 205.97349548339844" stroke-width="6.22007417678833" fill="none" stroke="rgb(127, 76, 0)" stroke-opacity="1.0" stroke-linecap="round" stroke-linejoin="round"/>
    <path d="M 411.09283447265625 251.78958129882812 C 387.7802734375 205.4486846923828 327.656005859375 217.16380310058594 373.9625244140625 180.92709350585938 C 412.71502685546875 197.90225219726562 351.5347595214844 192.45277404785156 414.10833740234375 229.93739318847656 C 435.5570068359375 152.54273986816406 422.4065856933594 195.06448364257812 374.76654052734375 263.4710388183594" stroke-width="3.470688819885254" fill="none" stroke="rgb(201, 79, 0)" stroke-opacity="1.0" stroke-linecap="round" stroke-linejoin="round"/>
    <path d="M 406.90802001953125 222.5938720703125 C 370.034423828125 210.02891540527344 395.59210205078125 181.08322143554688 370.341064453125 215.296630859375 C 346.4819641113281 184.0569610595703 350.0809326171875 231.2986297607422 287.9335021972656 244.68783569335938" stroke-width="2.6141014099121094" fill="none" stroke="rgb(100, 24, 0)" stroke-opacity="1.0" stroke-linecap="round" stroke-linejoin="round"/>
    <path d="M 60.68510055541992 110.67361450195312 C 13.613443374633789 156.5410919189453 106.46893310546875 118.08637237548828 136.74278259277344 89.2011489868164 C 101.3046875 55.509666442871094 131.83969116210938 58.77970504760742 58.986167907714844 76.46786499023438" stroke-width="10.147265434265137" fill="none" stroke="rgb(136, 199, 115)" stroke-opacity="0.40141442" stroke-linecap="round" stroke-linejoin="round"/>
    <path d="M 245.16006469726562 280.6618957519531 C 336.3744201660156 243.05287170410156 310.2749938964844 242.91830444335938 346.5048522949219 238.98489379882812" stroke-width="4.199533462524414" fill="none" stroke="rgb(0, 0, 0)" stroke-opacity="1.0" stroke-linecap="round" stroke-linejoin="round"/>
    <path d="M 363.360595703125 17.14869499206543 C 400.7667541503906 20.89885139465332 329.86083984375 12.276636123657227 397.7258605957031 18.560283660888672" stroke-width="8.174739837646484" fill="none" stroke="rgb(0, 0, 0)" stroke-opacity="1.0" stroke-linecap="round" stroke-linejoin="round"/>
    <path d="M 461.4486999511719 256.8197021484375 C 414.4456787109375 182.58651733398438 502.47552490234375 242.23086547851562 460.0680847167969 166.1150665283203 C 447.1184387207031 142.22276306152344 462.0848083496094 173.913330078125 433.7098083496094 122.46063995361328" stroke-width="4.586658954620361" fill="none" stroke="rgb(18, 0, 0)" stroke-opacity="0.59767526" stroke-linecap="round" stroke-linejoin="round"/>
    <path d="M 28.923185348510742 222.62982177734375 C 73.83605194091797 197.93905639648438 96.03498840332031 179.19895935058594 108.85089874267578 170.89700317382812" stroke-width="2.7283241748809814" fill="none" stroke="rgb(0, 0, 0)" stroke-opacity="1.0" stroke-linecap="round" stroke-linejoin="round"/>
    <path d="M 456.6271057128906 111.3392105102539 C 523.3154296875 72.642822265625 551.35595703125 3.669342279434204 435.3163757324219 115.27901458740234 C 450.2410888671875 136.15899658203125 412.4519348144531 83.21865844726562 416.00128173828125 88.59783172607422" stroke-width="3.054316759109497" fill="none" stroke="rgb(15, 0, 0)" stroke-opacity="1.0" stroke-linecap="round" stroke-linejoin="round"/>
    <path d="M 325.8744201660156 450.6938171386719 C 354.32672119140625 447.7674865722656 323.62347412109375 482.1287536621094 349.88006591796875 414.3258361816406 C 333.9032287597656 421.037109375 293.794921875 407.6395568847656 396.69866943359375 406.0221862792969" stroke-width="3.7344799041748047" fill="none" stroke="rgb(255, 0, 255)" stroke-opacity="1.0" stroke-linecap="round" stroke-linejoin="round"/>
    <path d="M -7.2972283363342285 356.80084228515625 C -36.71348190307617 390.155517578125 -33.17141342163086 341.2445373535156 66.7157211303711 369.7928771972656 C 2.726975917816162 446.8919982910156 -28.024967193603516 391.8491516113281 66.65331268310547 340.39837646484375 C -36.06763458251953 307.438720703125 0.5736098885536194 356.85125732421875 61.52204132080078 339.81927490234375" stroke-width="9.722734451293945" fill="none" stroke="rgb(218, 226, 211)" stroke-opacity="0.8452467" stroke-linecap="round" stroke-linejoin="round"/>
    <path d="M 237.8278350830078 266.72344970703125 C 142.55242919921875 303.34588623046875 191.7408905029297 262.98675537109375 166.97274780273438 261.51446533203125 C 165.71807861328125 269.3380432128906 168.5387420654297 259.72125244140625 167.67604064941406 287.3892822265625" stroke-width="3.8238542079925537" fill="none" stroke="rgb(0, 0, 0)" stroke-opacity="1.0" stroke-linecap="round" stroke-linejoin="round"/>
    <path d="M 471.6781921386719 247.5178680419922 C 448.2439270019531 251.98614501953125 478.11431884765625 283.1375732421875 463.404541015625 246.75521850585938" stroke-width="4.638830184936523" fill="none" stroke="rgb(255, 44, 0)" stroke-opacity="1.0" stroke-linecap="round" stroke-linejoin="round"/>
    <path d="M 446.2362976074219 498.18402099609375 C 502.31292724609375 465.12890625 421.8555603027344 498.5023498535156 446.2838134765625 507.8742980957031" stroke-width="5.287052154541016" fill="none" stroke="rgb(255, 0, 0)" stroke-opacity="1.0" stroke-linecap="round" stroke-linejoin="round"/>
    <path d="M 105.44413757324219 441.8164367675781 C 121.51371002197266 553.4855346679688 111.2648696899414 543.9393920898438 110.03797149658203 509.84442138671875" stroke-width="8.999442100524902" fill="none" stroke="rgb(0, 255, 0)" stroke-opacity="1.0" stroke-linecap="round" stroke-linejoin="round"/>
    <path d="M 370.4764404296875 170.2947235107422 C 365.0008544921875 166.85667419433594 354.3737487792969 136.28366088867188 398.9899597167969 171.1865692138672 C 416.8148193359375 159.7378692626953 409.83349609375 151.31088256835938 397.87457275390625 138.35711669921875 C 430.01739501953125 166.4074249267578 445.37835693359375 232.0127716064453 419.8969421386719 182.2692108154297" stroke-width="6.683701038360596" fill="none" stroke="rgb(33, 255, 3)" stroke-opacity="1.0" stroke-linecap="round" stroke-linejoin="round"/>
    <path d="M 388.5777893066406 92.38248443603516 C 392.6249694824219 93.16252899169922 317.835205078125 72.42286682128906 332.2870178222656 68.49654388427734 C 309.2024841308594 165.29058837890625 307.9980163574219 178.31394958496094 310.4189758300781 150.50064086914062 C 347.30377197265625 156.12709045410156 357.9729309082031 165.51185607910156 325.7715759277344 154.54087829589844" stroke-width="5.092103481292725" fill="none" stroke="rgb(157, 0, 255)" stroke-opacity="1.0" stroke-linecap="round" stroke-linejoin="round"/>
    <path d="M 363.83587646484375 242.72348022460938 C 383.01318359375 287.2598876953125 355.92919921875 249.7986602783203 410.9228210449219 225.0777587890625 C 402.9665832519531 200.00741577148438 386.6029357910156 236.88247680664062 417.27911376953125 185.42486572265625" stroke-width="2.822939395904541" fill="none" stroke="rgb(85, 0, 0)" stroke-opacity="1.0" stroke-linecap="round" stroke-linejoin="round"/>
    <path d="M 227.61485290527344 418.1998291015625 C 326.2642822265625 424.55535888671875 180.77972412109375 441.7158203125 184.2477569580078 418.0807189941406 C 231.96095275878906 376.9747314453125 276.94586181640625 426.0660400390625 264.3150329589844 369.6441345214844" stroke-width="13.969217300415039" fill="none" stroke="rgb(121, 12, 169)" stroke-opacity="0.73560333" stroke-linecap="round" stroke-linejoin="round"/>
    <path d="M 248.1434326171875 315.7760925292969 C 233.59817504882812 313.1575012207031 114.90023040771484 326.440185546875 193.4805908203125 319.064453125 C 130.47598266601562 345.3299560546875 103.49465942382812 338.8487548828125 138.26165771484375 336.3152160644531" stroke-width="9.826587677001953" fill="none" stroke="rgb(212, 167, 72)" stroke-opacity="0.9353762" stroke-linecap="round" stroke-linejoin="round"/>
    <path d="M 69.1603012084961 41.78898620605469 C 68.37525939941406 -5.707077980041504 74.43826293945312 -35.30520248413086 74.96813201904297 48.08529281616211" stroke-width="9.607215881347656" fill="none" stroke="rgb(0, 255, 23)" stroke-opacity="1.0" stroke-linecap="round" stroke-linejoin="round"/>
    <path d="M 377.10394287109375 437.4934387207031 C 372.6874084472656 440.52862548828125 383.0826721191406 323.9640808105469 385.88714599609375 442.38494873046875 C 376.09588623046875 380.27435302734375 410.23602294921875 374.1110534667969 353.44171142578125 382.6031494140625" stroke-width="8.329147338867188" fill="none" stroke="rgb(0, 236, 0)" stroke-opacity="0.6966135" stroke-linecap="round" stroke-linejoin="round"/>
    <path d="M 28.8001708984375 199.87997436523438 C 12.613320350646973 126.95223236083984 48.38715362548828 160.92893981933594 24.079296112060547 168.291259765625 C 52.68437194824219 108.96625518798828 40.78285217285156 125.23536682128906 54.317569732666016 181.17999267578125" stroke-width="10.590489387512207" fill="none" stroke="rgb(26, 0, 0)" stroke-opacity="0.71278805" stroke-linecap="round" stroke-linejoin="round"/>
    <path d="M 44.4801025390625 246.49844360351562 C 9.122520446777344 235.45028686523438 71.24531555175781 238.6900177001953 80.82196807861328 254.38157653808594 C 93.93898010253906 305.7877502441406 58.520790100097656 300.52081298828125 132.93270874023438 272.79571533203125 C 221.83575439453125 251.76026916503906 164.644287109375 236.0250244140625 186.4618377685547 218.57151794433594" stroke-width="5.088749408721924" fill="none" stroke="rgb(255, 188, 72)" stroke-opacity="0.6296146" stroke-linecap="round" stroke-linejoin="round"/>
    <path d="M 487.0909729003906 373.94866943359375 C 481.9640808105469 350.02850341796875 483.8546447753906 358.427734375 493.10247802734375 353.6651306152344 C 489.7380676269531 309.6471252441406 474.1468200683594 343.7060241699219 537.8784790039062 335.1191101074219" stroke-width="3.1592633724212646" fill="none" stroke="rgb(124, 0, 0)" stroke-opacity="1.0" stroke-linecap="round" stroke-linejoin="round"/>
    <path d="M 58.687889099121094 -1.1068648099899292 C 31.892032623291016 57.36029052734375 84.43022918701172 64.78202056884766 55.43239212036133 48.645538330078125" stroke-width="12.904958724975586" fill="none" stroke="rgb(255, 0, 255)" stroke-opacity="1.0" stroke-linecap="round" stroke-linejoin="round"/>
    <path d="M 208.17208862304688 135.0346221923828 C 320.3793640136719 119.22595977783203 324.56170654296875 155.7759552001953 199.15847778320312 162.54042053222656 C 264.7078552246094 166.635986328125 351.265625 171.98904418945312 295.59710693359375 146.85397338867188" stroke-width="2.417781114578247" fill="none" stroke="rgb(134, 44, 213)" stroke-opacity="0.615676" stroke-linecap="round" stroke-linejoin="round"/>
    <path d="M 387.7832946777344 125.3025894165039 C 376.2272033691406 118.30530548095703 362.99951171875 126.13329315185547 393.83221435546875 134.22982788085938" stroke-width="7.546578884124756" fill="none" stroke="rgb(0, 255, 13)" stroke-opacity="0.3910951" stroke-linecap="round" stroke-linejoin="round"/>
    <path d="M -4.436176300048828 117.94645690917969 C 65.13562774658203 64.44129180908203 25.41069793701172 67.13404083251953 120.97007751464844 63.9849853515625 C 102.35868072509766 137.320068359375 124.5926513671875 168.1431427001953 104.27908325195312 114.83976745605469 C 119.9188003540039 184.0343780517578 101.29586029052734 157.95327758789062 36.869140625 199.51998901367188" stroke-width="3.3607566356658936" fill="none" stroke="rgb(127, 137, 185)" stroke-opacity="1.0" stroke-linecap="round" stroke-linejoin="round"/>
    <path d="M 324.46728515625 310.26251220703125 C 299.54156494140625 327.7252502441406 336.6376647949219 277.92901611328125 335.8750915527344 337.1103515625" stroke-width="10.769804954528809" fill="none" stroke="rgb(0, 0, 0)" stroke-opacity="1.0" stroke-linecap="round" stroke-linejoin="round"/>
    <path d="M 133.1721649169922 188.7318115234375 C 84.24824523925781 225.89486694335938 74.0375747680664 212.59979248046875 123.35298156738281 188.08349609375 C 140.4340057373047 175.07347106933594 108.14198303222656 195.52212524414062 73.60694885253906 223.9047088623047 C 93.45561981201172 217.3137969970703 42.26815414428711 208.22547912597656 36.69121551513672 140.57151794433594" stroke-width="2.273223876953125" fill="none" stroke="rgb(56, 0, 50)" stroke-opacity="1.0" stroke-linecap="round" stroke-linejoin="round"/>
    <path d="M 197.30015563964844 340.5363464355469 C 250.72422790527344 325.9248352050781 247.2485809326172 321.6745910644531 251.04486083984375 347.0937805175781 C 297.0286560058594 334.70037841796875 228.65863037109375 352.7357177734375 199.35166931152344 364.82354736328125" stroke-width="4.172579765319824" fill="none" stroke="rgb(37, 58, 36)" stroke-opacity="0.77535313" stroke-linecap="round" stroke-linejoin="round"/>
    <path d="M 12.928645133972168 -1.6525216102600098 C -5.050673484802246 -6.513401031494141 -35.78600311279297 -11.356707572937012 -31.31136703491211 -5.4031147956848145 C 0.9600643515586853 -23.299470901489258 -7.253223419189453 -2.2183520793914795 4.442396640777588 -20.331357955932617 C 13.726069450378418 -40.19757080078125 7.959693908691406 -34.83086395263672 13.533980369567871 -42.03423309326172" stroke-width="2.273226022720337" fill="none" stroke="rgb(163, 255, 254)" stroke-opacity="0.251678" stroke-linecap="round" stroke-linejoin="round"/>
    <path d="M 291.0160217285156 305.3956604003906 C 338.69573974609375 285.70880126953125 277.6549377441406 283.10003662109375 272.1455078125 290.5639953613281 C 321.5445861816406 276.2741394042969 375.3495788574219 235.35275268554688 345.4301452636719 259.1121826171875" stroke-width="4.294638156890869" fill="none" stroke="rgb(255, 255, 248)" stroke-opacity="1.0" stroke-linecap="round" stroke-linejoin="round"/>
    <path d="M 413.50775146484375 353.18927001953125 C 402.8902893066406 304.9438781738281 381.26904296875 273.109130859375 407.8424377441406 353.21734619140625" stroke-width="8.3466215133667" fill="none" stroke="rgb(0, 3, 0)" stroke-opacity="1.0" stroke-linecap="round" stroke-linejoin="round"/>
    <path d="M 289.9034118652344 -6.699661731719971 C 418.9566955566406 -1.8109558820724487 437.3156433105469 9.0703763961792 423.1988525390625 -5.932336330413818 C 420.0076599121094 61.62395477294922 398.47735595703125 69.5025634765625 376.74041748046875 50.96098327636719" stroke-width="12.502708435058594" fill="none" stroke="rgb(0, 255, 102)" stroke-opacity="1.0" stroke-linecap="round" stroke-linejoin="round"/>
    <path d="M 114.0354995727539 179.21714782714844 C 94.24244689941406 85.66045379638672 112.57324981689453 117.33319854736328 65.71765899658203 107.23619842529297 C 78.15568542480469 115.96649932861328 68.91302490234375 69.9520263671875 19.85335922241211 174.46505737304688" stroke-width="9.409379005432129" fill="none" stroke="rgb(0, 0, 14)" stroke-opacity="0.5860965" stroke-linecap="round" stroke-linejoin="round"/>
    <path d="M 23.90484046936035 312.70458984375 C 39.90376281738281 293.2388916015625 22.727771759033203 282.7794494628906 32.848388671875 396.1685791015625 C -6.940217018127441 353.97869873046875 -8.565007209777832 345.7805480957031 51.6740837097168 355.322265625" stroke-width="2.2050604820251465" fill="none" stroke="rgb(251, 251, 255)" stroke-opacity="0.61760885" stroke-linecap="round" stroke-linejoin="round"/>
    <path d="M 413.2025146484375 468.5704345703125 C 437.5363464355469 471.8079528808594 411.76605224609375 496.17352294921875 353.02008056640625 497.8298645019531 C 434.4585876464844 511.86126708984375 399.6037902832031 538.477294921875 395.9350280761719 550.0877075195312" stroke-width="3.7650909423828125" fill="none" stroke="rgb(255, 5, 0)" stroke-opacity="1.0" stroke-linecap="round" stroke-linejoin="round"/>
    <path d="M 362.857666015625 501.5763854980469 C 452.30609130859375 484.270263671875 484.62646484375 455.9103088378906 476.87744140625 385.6573486328125" stroke-width="3.9446496963500977" fill="none" stroke="rgb(0, 0, 0)" stroke-opacity="1.0" stroke-linecap="round" stroke-linejoin="round"/>
    <path d="M 193.3517608642578 258.6961669921875 C 120.25618743896484 266.34210205078125 169.6735076904297 295.64410400390625 185.89669799804688 272.1131896972656 C 191.1097869873047 300.9668273925781 196.95530700683594 298.36260986328125 211.6284637451172 292.80084228515625 C 190.34222412109375 206.98960876464844 190.58920288085938 313.8415222167969 182.14480590820312 262.1980285644531" stroke-width="3.5564210414886475" fill="none" stroke="rgb(0, 0, 0)" stroke-opacity="1.0" stroke-linecap="round" stroke-linejoin="round"/>
    <path d="M 460.16778564453125 227.6186981201172 C 503.1109924316406 190.88267517089844 418.5279235839844 194.11355590820312 469.375244140625 249.4894256591797 C 460.121337890625 177.29335021972656 490.6429443359375 243.58802795410156 469.84454345703125 255.4948272705078" stroke-width="10.154498100280762" fill="none" stroke="rgb(0, 0, 0)" stroke-opacity="1.0" stroke-linecap="round" stroke-linejoin="round"/>
    <path d="M 66.65548706054688 381.92681884765625 C 88.10179901123047 381.8579406738281 104.24136352539062 325.4464111328125 34.87248611450195 418.1128234863281" stroke-width="2.6888184547424316" fill="none" stroke="rgb(147, 98, 0)" stroke-opacity="1.0" stroke-linecap="round" stroke-linejoin="round"/>
    <path d="M 171.11473083496094 319.6549072265625 C 177.1773681640625 321.2521667480469 178.0225830078125 309.93658447265625 136.1305389404297 337.0113220214844 C 147.54127502441406 306.8929138183594 140.7676544189453 332.5471496582031 124.56549835205078 340.933837890625" stroke-width="4.958942890167236" fill="none" stroke="rgb(231, 138, 96)" stroke-opacity="0.835016" stroke-linecap="round" stroke-linejoin="round"/>
    <path d="M 349.40179443359375 439.7416076660156 C 365.6708679199219 422.5758972167969 344.299072265625 489.1018981933594 355.7061462402344 388.6607360839844" stroke-width="11.060629844665527" fill="none" stroke="rgb(0, 255, 0)" stroke-opacity="1.0" stroke-linecap="round" stroke-linejoin="round"/>
    <path d="M 246.41836547851562 251.5838623046875 C 296.6397705078125 232.92044067382812 230.07522583007812 271.2055969238281 240.59339904785156 250.8650360107422" stroke-width="2.793184757232666" fill="none" stroke="rgb(68, 70, 53)" stroke-opacity="0.9771627" stroke-linecap="round" stroke-linejoin="round"/>
    <path d="M 507.3251647949219 390.173095703125 C 498.791259765625 481.18212890625 486.31329345703125 472.3329162597656 456.1163330078125 493.8011779785156 C 456.1864318847656 485.8526306152344 447.16302490234375 490.4385986328125 462.2134094238281 485.8434753417969" stroke-width="8.165099143981934" fill="none" stroke="rgb(104, 87, 103)" stroke-opacity="0.7404743" stroke-linecap="round" stroke-linejoin="round"/>
    <path d="M 420.75006103515625 385.0649108886719 C 451.34814453125 501.3135986328125 296.22088623046875 427.2927551269531 404.15362548828125 439.40130615234375" stroke-width="13.824103355407715" fill="none" stroke="rgb(98, 128, 38)" stroke-opacity="0.77207255" stroke-linecap="round" stroke-linejoin="round"/>
    <path d="M 498.31884765625 303.18670654296875 C 495.03118896484375 128.1477813720703 475.3824157714844 202.66714477539062 504.7845153808594 165.8426055908203 C 523.400390625 120.41864776611328 470.40380859375 172.7667999267578 480.4577331542969 161.63670349121094" stroke-width="4.844122409820557" fill="none" stroke="rgb(226, 0, 0)" stroke-opacity="1.0" stroke-linecap="round" stroke-linejoin="round"/>
    <path d="M 235.5116424560547 189.72569274902344 C 223.70236206054688 158.24432373046875 260.6481018066406 156.77073669433594 256.5107421875 187.1505889892578" stroke-width="5.348231315612793" fill="none" stroke="rgb(255, 0, 0)" stroke-opacity="1.0" stroke-linecap="round" stroke-linejoin="round"/>
    <path d="M 264.11981201171875 186.13827514648438 C 266.43231201171875 128.53163146972656 236.21456909179688 205.6986846923828 247.13995361328125 103.70790100097656 C 314.0202941894531 110.56424713134766 286.13031005859375 93.35123443603516 288.7328186035156 158.55416870117188 C 217.47865295410156 165.3466033935547 204.46823120117188 165.85592651367188 219.45655822753906 99.38678741455078" stroke-width="11.355624198913574" fill="none" stroke="rgb(93, 161, 87)" stroke-opacity="0.89309937" stroke-linecap="round" stroke-linejoin="round"/>
    <path d="M 502.7360534667969 330.7187805175781 C 497.5343933105469 330.8435363769531 518.3953857421875 325.9107360839844 527.6488037109375 349.4227294921875 C 545.9935913085938 331.79913330078125 534.405029296875 350.54168701171875 528.6862182617188 349.72662353515625" stroke-width="2.0" fill="none" stroke="rgb(109, 255, 112)" stroke-opacity="0.004796935" stroke-linecap="round" stroke-linejoin="round"/>
    <path d="M 116.041748046875 414.9311828613281 C 83.0160903930664 366.4315185546875 96.50031280517578 369.8738708496094 83.84224700927734 380.3025207519531" stroke-width="9.426990509033203" fill="none" stroke="rgb(208, 0, 255)" stroke-opacity="1.0" stroke-linecap="round" stroke-linejoin="round"/>
    <path d="M 173.6316375732422 149.9451446533203 C 169.365966796875 103.0502700805664 179.4350128173828 64.2431869506836 175.10269165039062 126.89740753173828" stroke-width="14.432246208190918" fill="none" stroke="rgb(0, 0, 0)" stroke-opacity="1.0" stroke-linecap="round" stroke-linejoin="round"/>
    <path d="M 79.46578216552734 500.933837890625 C 158.9904327392578 505.7344970703125 176.1209716796875 494.7303771972656 175.138427734375 468.3031005859375 C 171.39830017089844 452.8164978027344 166.84088134765625 503.0920104980469 160.77224731445312 426.6549377441406" stroke-width="11.875504493713379" fill="none" stroke="rgb(0, 255, 0)" stroke-opacity="1.0" stroke-linecap="round" stroke-linejoin="round"/>
    <path d="M 16.661996841430664 423.4541015625 C 16.022192001342773 432.5444030761719 -20.31414031982422 367.2503967285156 26.41800880432129 258.3924865722656" stroke-width="9.653316497802734" fill="none" stroke="rgb(0, 47, 99)" stroke-opacity="0.86732036" stroke-linecap="round" stroke-linejoin="round"/>
    <path d="M 154.48007202148438 392.4591979980469 C 206.79200744628906 354.7012023925781 162.8717498779297 403.9721374511719 247.8452911376953 390.4930114746094 C 201.55189514160156 386.4356689453125 191.7718048095703 394.6699523925781 219.63148498535156 392.6751403808594 C 199.98602294921875 393.0322265625 189.02630615234375 383.12646484375 240.3789825439453 377.7737121582031" stroke-width="8.041990280151367" fill="none" stroke="rgb(69, 221, 137)" stroke-opacity="1.0" stroke-linecap="round" stroke-linejoin="round"/>
    <path d="M 317.3806457519531 140.86431884765625 C 307.86187744140625 190.7261505126953 188.56515502929688 203.70565795898438 211.80213928222656 220.17344665527344 C 206.0108642578125 241.5274200439453 273.89483642578125 232.07554626464844 213.38772583007812 236.42379760742188 C 237.46539306640625 283.0545349121094 216.5906219482422 285.3273620605469 209.67897033691406 248.589111328125" stroke-width="10.320801734924316" fill="none" stroke="rgb(156, 123, 95)" stroke-opacity="1.0" stroke-linecap="round" stroke-linejoin="round"/>
    <path d="M 31.70162010192871 268.3983459472656 C 110.5479965209961 207.48806762695312 46.02299499511719 231.9072265625 18.779935836791992 299.5404968261719" stroke-width="9.119490623474121" fill="none" stroke="rgb(38, 176, 233)" stroke-opacity="0.7808198" stroke-linecap="round" stroke-linejoin="round"/>
    <path d="M 39.12210464477539 421.689208984375 C 41.44194412231445 430.45538330078125 53.986751556396484 426.8735656738281 42.77858352661133 451.48223876953125 C 20.93982696533203 453.76837158203125 30.333953857421875 522.41162109375 78.73648834228516 514.876708984375" stroke-width="10.191744804382324" fill="none" stroke="rgb(0, 255, 0)" stroke-opacity="1.0" stroke-linecap="round" stroke-linejoin="round"/>
    <path d="M 194.22909545898438 31.995229721069336 C 143.34483337402344 77.49168395996094 159.35208129882812 64.83597564697266 189.89187622070312 25.347883224487305" stroke-width="4.043327331542969" fill="none" stroke="rgb(168, 238, 105)" stroke-opacity="0.15928869" stroke-linecap="round" stroke-linejoin="round"/>
    <path d="M 438.451416015625 326.9347229003906 C 471.09283447265625 297.2975158691406 471.1364440917969 320.0706787109375 452.2669372558594 276.0523376464844" stroke-width="3.293351173400879" fill="none" stroke="rgb(255, 70, 255)" stroke-opacity="0.9933472" stroke-linecap="round" stroke-linejoin="round"/>
    <path d="M 453.0919494628906 300.11456298828125 C 472.36871337890625 292.25518798828125 473.894775390625 351.07684326171875 471.9845886230469 348.2135925292969" stroke-width="3.334909677505493" fill="none" stroke="rgb(255, 151, 248)" stroke-opacity="1.0" stroke-linecap="round" stroke-linejoin="round"/>
    <path d="M 283.48504638671875 248.4241180419922 C 181.31918334960938 292.74090576171875 211.09149169921875 265.3731689453125 212.0918731689453 294.428955078125 C 294.4954833984375 278.3827209472656 283.8859558105469 271.8107604980469 277.2673034667969 255.5550079345703 C 276.1365051269531 291.3685607910156 188.3428192138672 285.17156982421875 280.4367370605469 269.77325439453125" stroke-width="3.8017475605010986" fill="none" stroke="rgb(0, 0, 21)" stroke-opacity="1.0" stroke-linecap="round" stroke-linejoin="round"/>
    <path d="M 263.0726623535156 261.3240966796875 C 205.15768432617188 281.0965270996094 253.52352905273438 284.01934814453125 349.8585510253906 201.30519104003906" stroke-width="4.529614448547363" fill="none" stroke="rgb(244, 79, 0)" stroke-opacity="1.0" stroke-linecap="round" stroke-linejoin="round"/>
    <path d="M 211.40341186523438 93.83770751953125 C 222.89813232421875 43.476837158203125 250.6221466064453 44.90290451049805 223.78326416015625 97.53043365478516" stroke-width="8.817554473876953" fill="none" stroke="rgb(0, 1, 0)" stroke-opacity="1.0" stroke-linecap="round" stroke-linejoin="round"/>
    <path d="M 215.62660217285156 327.4415283203125 C 287.4061279296875 337.76593017578125 262.2374267578125 298.6590881347656 247.05715942382812 304.7742919921875 C 157.20803833007812 332.9927673339844 109.127685546875 350.58746337890625 170.1783447265625 328.1258239746094" stroke-width="13.227730751037598" fill="none" stroke="rgb(141, 120, 113)" stroke-opacity="0.6198474" stroke-linecap="round" stroke-linejoin="round"/>
    <path d="M 90.07666778564453 437.1983947753906 C 32.723087310791016 355.4041442871094 26.413753509521484 403.18011474609375 33.6494140625 333.0506896972656 C 48.3499870300293 329.761962890625 23.667400360107422 342.754638671875 61.967857360839844 374.1122131347656 C 104.81929779052734 441.0110168457031 92.70318603515625 427.81707763671875 27.68511199951172 360.65289306640625" stroke-width="3.345304012298584" fill="none" stroke="rgb(95, 94, 83)" stroke-opacity="0.39976767" stroke-linecap="round" stroke-linejoin="round"/>
    <path d="M 189.3232879638672 179.24290466308594 C 158.98849487304688 188.47637939453125 189.5045928955078 140.77130126953125 190.76551818847656 184.87484741210938 C 170.62989807128906 186.93516540527344 158.18634033203125 186.54244995117188 169.91578674316406 187.8756103515625" stroke-width="2.8879709243774414" fill="none" stroke="rgb(0, 0, 234)" stroke-opacity="1.0" stroke-linecap="round" stroke-linejoin="round"/>
    <path d="M 152.48583984375 252.57196044921875 C 193.53271484375 245.2327880859375 170.3106689453125 220.88980102539062 151.05189514160156 251.31631469726562" stroke-width="6.74441385269165" fill="none" stroke="rgb(100, 0, 0)" stroke-opacity="0.7808629" stroke-linecap="round" stroke-linejoin="round"/>
    <path d="M 71.85611724853516 397.0359802246094 C 52.052494049072266 415.6374206542969 45.2520751953125 432.8304138183594 45.7443962097168 453.7190246582031 C 50.149898529052734 453.48291015625 -17.886180877685547 457.23712158203125 15.007050514221191 425.3783874511719" stroke-width="11.42408275604248" fill="none" stroke="rgb(0, 0, 0)" stroke-opacity="1.0" stroke-linecap="round" stroke-linejoin="round"/>
    <path d="M 325.51641845703125 215.29269409179688 C 392.06072998046875 152.72520446777344 384.7187805175781 184.45919799804688 331.7723693847656 222.0849609375" stroke-width="9.622870445251465" fill="none" stroke="rgb(127, 0, 199)" stroke-opacity="0.6213209" stroke-linecap="round" stroke-linejoin="round"/>
    <path d="M 269.3357849121094 417.01763916015625 C 274.2153625488281 507.1069641113281 268.1655578613281 448.86444091796875 202.2259521484375 469.1453857421875 C 201.62606811523438 387.37835693359375 198.65261840820312 341.2383117675781 205.2226104736328 460.0826110839844" stroke-width="11.445136070251465" fill="none" stroke="rgb(0, 255, 0)" stroke-opacity="1.0" stroke-linecap="round" stroke-linejoin="round"/>
    <path d="M 18.478296279907227 213.75656127929688 C 1.1334171295166016 176.87142944335938 7.995267868041992 192.9417266845703 -15.218847274780273 282.5730285644531" stroke-width="6.094371318817139" fill="none" stroke="rgb(36, 0, 0)" stroke-opacity="1.0" stroke-linecap="round" stroke-linejoin="round"/>
    <path d="M 229.29693603515625 31.60256576538086 C 139.0196990966797 9.596721649169922 238.1434783935547 28.309404373168945 209.3380126953125 59.66851806640625 C 245.2578887939453 31.757261276245117 198.40914916992188 -3.9475340843200684 165.19200134277344 55.2189826965332" stroke-width="9.278585433959961" fill="none" stroke="rgb(138, 139, 105)" stroke-opacity="0.33901644" stroke-linecap="round" stroke-linejoin="round"/>
    <path d="M 135.3765411376953 282.68695068359375 C 157.06332397460938 317.4544677734375 174.2921142578125 287.53863525390625 107.82010650634766 344.28875732421875 C 88.6281509399414 313.3651123046875 80.15277099609375 330.8706970214844 99.76336669921875 303.7628173828125 C 57.369266510009766 347.8476867675781 79.17915344238281 329.7642517089844 95.69754028320312 354.3197021484375" stroke-width="3.331854820251465" fill="none" stroke="rgb(0, 0, 0)" stroke-opacity="1.0" stroke-linecap="round" stroke-linejoin="round"/>
    <path d="M 381.70208740234375 150.56468200683594 C 348.6060485839844 201.535400390625 325.2853088378906 210.23989868164062 267.6908874511719 250.3999481201172" stroke-width="9.148942947387695" fill="none" stroke="rgb(42, 23, 253)" stroke-opacity="0.35622087" stroke-linecap="round" stroke-linejoin="round"/>
    <path d="M 416.825927734375 434.35137939453125 C 397.49285888671875 429.34442138671875 433.1478271484375 454.40155029296875 427.15850830078125 419.4707336425781 C 434.5043640136719 421.4443054199219 428.9812927246094 467.7646179199219 395.4899597167969 454.6453552246094" stroke-width="8.065324783325195" fill="none" stroke="rgb(108, 125, 0)" stroke-opacity="0.6308794" stroke-linecap="round" stroke-linejoin="round"/>
    <path d="M 424.1060485839844 280.1923522949219 C 360.53668212890625 322.3338317871094 435.15606689453125 248.2532196044922 409.069091796875 284.0625" stroke-width="3.003016710281372" fill="none" stroke="rgb(222, 158, 49)" stroke-opacity="0.744827" stroke-linecap="round" stroke-linejoin="round"/>
  </g>
</svg>
