<?xml version="1.0" ?>
<svg xmlns="http://www.w3.org/2000/svg" version="1.1" width="500" height="500">
  <defs/>
  <g>
    <path d="M 368.36944580078125 405.8135986328125 C 356.1204528808594 380.4853820800781 338.1610412597656 364.3755798339844 302.33544921875 373.478759765625 C 254.2046356201172 398.5171203613281 361.800537109375 367.7279052734375 325.30426025390625 451.36370849609375 C 324.22076416015625 471.6595458984375 330.01470947265625 455.2737121582031 357.1237487792969 457.1601867675781" stroke-width="9.276723861694336" fill="none" stroke="rgb(219, 54, 6)" stroke-opacity="0.59618765" stroke-linecap="round" stroke-linejoin="round"/>
    <path d="M 380.6287536621094 110.20707702636719 C 374.7242126464844 -59.86126708984375 339.20953369140625 41.74923324584961 306.01190185546875 39.5234489440918" stroke-width="13.489227294921875" fill="none" stroke="rgb(175, 107, 4)" stroke-opacity="0.32795328" stroke-linecap="round" stroke-linejoin="round"/>
    <path d="M 402.88494873046875 202.44850158691406 C 414.114990234375 227.00741577148438 359.5787658691406 254.9707489013672 340.068115234375 261.68621826171875 C 361.18402099609375 225.7794952392578 298.52496337890625 202.8681640625 338.3155212402344 254.505859375" stroke-width="3.8888962268829346" fill="none" stroke="rgb(73, 0, 0)" stroke-opacity="1.0" stroke-linecap="round" stroke-linejoin="round"/>
    <path d="M 289.6815490722656 -6.238861083984375 C 254.30270385742188 2.0914599895477295 242.16197204589844 -9.474218368530273 219.13214111328125 -29.663618087768555 C 225.06495666503906 -49.26298904418945 204.02322387695312 -61.58256912231445 179.50970458984375 -46.33960723876953" stroke-width="2.0" fill="none" stroke="rgb(255, 255, 244)" stroke-opacity="0.0" stroke-linecap="round" stroke-linejoin="round"/>
    <path d="M 226.93435668945312 175.4137420654297 C 276.2151184082031 167.7239532470703 277.43695068359375 170.44491577148438 283.5605163574219 164.29745483398438 C 301.5762939453125 135.3948516845703 316.5901184082031 112.50554656982422 276.4605712890625 101.25267791748047" stroke-width="2.0886199474334717" fill="none" stroke="rgb(255, 255, 255)" stroke-opacity="0.0" stroke-linecap="round" stroke-linejoin="round"/>
    <path d="M 324.39697265625 116.93620300292969 C 323.0752868652344 88.19294738769531 384.0572509765625 146.72093200683594 380.8750915527344 179.8450469970703" stroke-width="8.686535835266113" fill="none" stroke="rgb(137, 32, 9)" stroke-opacity="0.5047509" stroke-linecap="round" stroke-linejoin="round"/>
    <path d="M 304.53985595703125 161.61270141601562 C 311.7599792480469 152.4605255126953 354.13128662109375 140.71170043945312 382.1455383300781 144.9686279296875" stroke-width="2.0588936805725098" fill="none" stroke="rgb(255, 254, 255)" stroke-opacity="0.015676143" stroke-linecap="round" stroke-linejoin="round"/>
    <path d="M 138.0043487548828 90.27500915527344 C 168.50430297851562 86.15133666992188 114.47970581054688 147.25048828125 130.94349670410156 96.37300872802734" stroke-width="15.762231826782227" fill="none" stroke="rgb(255, 52, 0)" stroke-opacity="1.0" stroke-linecap="round" stroke-linejoin="round"/>
    <path d="M 248.08544921875 388.8417663574219 C 261.02142333984375 406.59759521484375 284.7461853027344 387.57598876953125 250.89498901367188 365.43170166015625 C 238.6889190673828 348.8716125488281 241.66375732421875 408.24786376953125 262.0770263671875 397.4075012207031" stroke-width="4.126677989959717" fill="none" stroke="rgb(0, 0, 0)" stroke-opacity="1.0" stroke-linecap="round" stroke-linejoin="round"/>
    <path d="M 66.81661224365234 461.7958068847656 C 51.3089599609375 448.1041259765625 77.89868927001953 443.7481689453125 74.0608139038086 472.19525146484375 C 63.68574905395508 513.4277954101562 49.49295425415039 514.049560546875 33.199989318847656 494.5828857421875 C 49.04402542114258 508.7450866699219 57.07073974609375 525.5086059570312 77.63131713867188 525.5293579101562" stroke-width="2.3779118061065674" fill="none" stroke="rgb(255, 255, 255)" stroke-opacity="0.0" stroke-linecap="round" stroke-linejoin="round"/>
    <path d="M 120.42118072509766 23.383481979370117 C 177.3394317626953 17.44927978515625 197.49488830566406 43.265098571777344 182.8844757080078 -16.034757614135742 C 179.62677001953125 24.610471725463867 215.5087432861328 -4.441204071044922 212.0732879638672 -3.278306484222412" stroke-width="11.476702690124512" fill="none" stroke="rgb(0, 0, 0)" stroke-opacity="1.0" stroke-linecap="round" stroke-linejoin="round"/>
    <path d="M 452.4456481933594 234.01223754882812 C 454.85601806640625 296.1022033691406 498.09747314453125 287.59368896484375 496.9095764160156 249.1881866455078" stroke-width="3.9081947803497314" fill="none" stroke="rgb(255, 40, 0)" stroke-opacity="0.95129657" stroke-linecap="round" stroke-linejoin="round"/>
    <path d="M 350.7021789550781 457.07861328125 C 393.0628356933594 462.0865173339844 335.2978820800781 530.7903442382812 408.5650939941406 526.1795043945312" stroke-width="8.54176139831543" fill="none" stroke="rgb(164, 41, 0)" stroke-opacity="1.0" stroke-linecap="round" stroke-linejoin="round"/>
    <path d="M 256.451904296875 253.18902587890625 C 260.1659240722656 335.10546875 253.53277587890625 273.19970703125 255.78956604003906 243.49240112304688 C 250.3832550048828 241.44715881347656 277.0059509277344 256.9993591308594 256.7589111328125 243.9286651611328 C 248.1624298095703 234.35562133789062 261.59222412109375 235.54013061523438 243.48379516601562 132.27223205566406" stroke-width="14.114178657531738" fill="none" stroke="rgb(255, 107, 67)" stroke-opacity="0.30453882" stroke-linecap="round" stroke-linejoin="round"/>
    <path d="M 87.21080780029297 503.4460144042969 C 70.34427642822266 425.4642028808594 139.8446044921875 503.75274658203125 117.25513458251953 414.5043640136719 C 73.22945404052734 414.52899169921875 46.31499481201172 370.8738708496094 194.67286682128906 480.8682556152344 C 89.35147094726562 443.4089050292969 59.8766975402832 480.5380554199219 100.16493225097656 461.8252868652344" stroke-width="13.839517593383789" fill="none" stroke="rgb(219, 47, 10)" stroke-opacity="0.4900055" stroke-linecap="round" stroke-linejoin="round"/>
    <path d="M 315.5206298828125 3.6568987369537354 C 352.63720703125 60.59544372558594 239.56492614746094 7.030785083770752 319.868896484375 11.891735076904297 C 394.775146484375 25.222152709960938 353.934326171875 -16.378700256347656 331.740234375 -43.505653381347656" stroke-width="4.2485551834106445" fill="none" stroke="rgb(0, 0, 0)" stroke-opacity="1.0" stroke-linecap="round" stroke-linejoin="round"/>
    <path d="M 188.8077392578125 6.270185947418213 C 203.10299682617188 21.86418342590332 192.50445556640625 41.87049865722656 224.10165405273438 28.170412063598633" stroke-width="4.177890300750732" fill="none" stroke="rgb(0, 0, 0)" stroke-opacity="1.0" stroke-linecap="round" stroke-linejoin="round"/>
    <path d="M 415.13653564453125 181.6344451904297 C 394.8905029296875 185.68833923339844 388.1177978515625 173.39906311035156 421.61102294921875 182.38038635253906" stroke-width="4.038547515869141" fill="none" stroke="rgb(85, 0, 0)" stroke-opacity="1.0" stroke-linecap="round" stroke-linejoin="round"/>
    <path d="M -0.31725192070007324 52.334102630615234 C 76.82432556152344 83.4533462524414 57.2808723449707 156.38677978515625 -10.64136028289795 91.4111328125" stroke-width="3.9765636920928955" fill="none" stroke="rgb(0, 0, 0)" stroke-opacity="1.0" stroke-linecap="round" stroke-linejoin="round"/>
    <path d="M 451.1799011230469 43.852142333984375 C 427.895751953125 -6.6339616775512695 451.5453796386719 13.894699096679688 499.69512939453125 -39.78343200683594 C 459.1534423828125 -59.03980255126953 475.0174255371094 -68.59600067138672 475.3910217285156 -65.71177673339844" stroke-width="14.824474334716797" fill="none" stroke="rgb(176, 107, 2)" stroke-opacity="0.7176694" stroke-linecap="round" stroke-linejoin="round"/>
    <path d="M 402.2412109375 296.62689208984375 C 434.0868835449219 257.8441467285156 432.46917724609375 297.9833068847656 423.7008056640625 337.6334533691406 C 435.6494140625 291.3022766113281 425.043212890625 275.1600646972656 423.59613037109375 277.968505859375 C 418.2823791503906 261.28485107421875 427.80340576171875 265.5909729003906 426.8056335449219 269.2987060546875" stroke-width="2.379617929458618" fill="none" stroke="rgb(255, 255, 255)" stroke-opacity="0.0" stroke-linecap="round" stroke-linejoin="round"/>
    <path d="M 68.88589477539062 453.7170715332031 C 21.907733917236328 444.3362731933594 20.37190818786621 464.71234130859375 32.643943786621094 460.30413818359375 C 55.510623931884766 443.6085510253906 85.46469116210938 463.97216796875 87.38417053222656 400.56182861328125" stroke-width="5.000829219818115" fill="none" stroke="rgb(255, 246, 255)" stroke-opacity="0.096032865" stroke-linecap="round" stroke-linejoin="round"/>
    <path d="M 133.37689208984375 209.03871154785156 C 159.68238830566406 205.2142333984375 162.6304168701172 199.86865234375 166.375732421875 208.16033935546875 C 186.83631896972656 205.37037658691406 177.19358825683594 216.33798217773438 212.90916442871094 215.86468505859375 C 227.3389129638672 162.6673583984375 206.91726684570312 177.34271240234375 198.5657196044922 190.3858184814453" stroke-width="2.0" fill="none" stroke="rgb(255, 255, 255)" stroke-opacity="0.0" stroke-linecap="round" stroke-linejoin="round"/>
    <path d="M 459.1086120605469 297.14892578125 C 379.4070739746094 298.9117431640625 424.4222717285156 332.629150390625 400.90777587890625 280.8309020996094 C 380.6981506347656 282.12841796875 371.539306640625 313.06494140625 377.2569580078125 248.1363983154297 C 432.6915283203125 296.7089538574219 386.69061279296875 289.5042419433594 403.7034606933594 337.3990173339844" stroke-width="3.9174764156341553" fill="none" stroke="rgb(0, 0, 0)" stroke-opacity="1.0" stroke-linecap="round" stroke-linejoin="round"/>
    <path d="M 409.9844665527344 307.101318359375 C 407.65521240234375 363.76007080078125 409.365234375 331.2648620605469 436.31915283203125 331.01739501953125 C 434.6451416015625 355.7355041503906 436.4950866699219 315.1502990722656 432.4883728027344 357.8674011230469 C 447.57952880859375 330.58673095703125 441.78076171875 375.4468078613281 405.93865966796875 437.3606262207031" stroke-width="6.544677257537842" fill="none" stroke="rgb(86, 255, 125)" stroke-opacity="0.27721024" stroke-linecap="round" stroke-linejoin="round"/>
    <path d="M 99.64186096191406 53.44004821777344 C 93.56652069091797 72.89730072021484 70.8911361694336 87.98651123046875 26.57220458984375 42.6322135925293 C -18.564191818237305 16.619783401489258 -8.86545181274414 39.47992706298828 -14.228731155395508 56.409080505371094" stroke-width="2.0" fill="none" stroke="rgb(255, 255, 255)" stroke-opacity="0.0" stroke-linecap="round" stroke-linejoin="round"/>
    <path d="M 251.12269592285156 168.90016174316406 C 300.1379699707031 178.7603759765625 246.3821258544922 217.8182830810547 249.29859924316406 161.04678344726562" stroke-width="3.76242995262146" fill="none" stroke="rgb(179, 0, 0)" stroke-opacity="1.0" stroke-linecap="round" stroke-linejoin="round"/>
    <path d="M 151.1549835205078 35.5963134765625 C 156.4364471435547 75.30366516113281 113.31121826171875 46.1125602722168 133.58834838867188 113.47007751464844" stroke-width="19.676544189453125" fill="none" stroke="rgb(255, 43, 0)" stroke-opacity="0.45149773" stroke-linecap="round" stroke-linejoin="round"/>
    <path d="M 73.60993194580078 163.4912567138672 C 82.02427673339844 183.2207489013672 -32.03714370727539 166.86880493164062 10.76285171508789 199.18238830566406 C 120.1540298461914 183.58055114746094 55.30030059814453 213.4607696533203 57.06150817871094 151.7081298828125" stroke-width="3.705375909805298" fill="none" stroke="rgb(0, 0, 0)" stroke-opacity="1.0" stroke-linecap="round" stroke-linejoin="round"/>
    <path d="M 36.32797622680664 346.82391357421875 C 73.07569885253906 304.8197326660156 126.92863464355469 343.1657409667969 84.67374420166016 324.4042053222656 C 82.47785186767578 321.05908203125 104.9104995727539 276.55670166015625 99.16261291503906 368.18963623046875" stroke-width="8.83246898651123" fill="none" stroke="rgb(79, 137, 255)" stroke-opacity="0.39496467" stroke-linecap="round" stroke-linejoin="round"/>
    <path d="M 180.8556365966797 -10.644126892089844 C 146.30992126464844 0.9521387219429016 164.55685424804688 -19.6179141998291 167.0381317138672 -51.264530181884766 C 189.24124145507812 -18.61099624633789 197.90673828125 -35.26932907104492 201.31005859375 -47.72416687011719" stroke-width="2.267580270767212" fill="none" stroke="rgb(255, 139, 0)" stroke-opacity="0.0" stroke-linecap="round" stroke-linejoin="round"/>
    <path d="M 134.6763916015625 347.1585693359375 C 84.37097930908203 317.0107727050781 162.97328186035156 366.92315673828125 143.69944763183594 312.373291015625 C 172.1322784423828 283.5898742675781 191.96615600585938 275.6133728027344 187.66004943847656 249.3700408935547" stroke-width="6.928781509399414" fill="none" stroke="rgb(255, 108, 0)" stroke-opacity="1.0" stroke-linecap="round" stroke-linejoin="round"/>
    <path d="M 160.59657287597656 217.87112426757812 C 163.17347717285156 224.732177734375 148.42642211914062 226.28628540039062 179.39723205566406 188.01095581054688 C 204.53785705566406 173.0207977294922 170.05601501464844 153.4658203125 124.30802154541016 145.21910095214844 C 90.87925720214844 175.9184112548828 93.21253204345703 168.4408721923828 129.00987243652344 166.20858764648438" stroke-width="2.0" fill="none" stroke="rgb(255, 255, 255)" stroke-opacity="0.0" stroke-linecap="round" stroke-linejoin="round"/>
    <path d="M 255.1811981201172 422.06719970703125 C 360.1546936035156 504.3761901855469 273.5879821777344 469.303466796875 268.3943786621094 477.1158752441406 C 297.1636657714844 477.6728820800781 266.7229309082031 475.2670593261719 281.1710205078125 474.884033203125 C 308.0489807128906 482.4045104980469 299.66217041015625 489.1946716308594 295.55560302734375 568.1192016601562" stroke-width="10.38436508178711" fill="none" stroke="rgb(46, 0, 0)" stroke-opacity="1.0" stroke-linecap="round" stroke-linejoin="round"/>
    <path d="M 183.36851501464844 459.4826965332031 C 292.7249450683594 448.9645080566406 222.654296875 563.9301147460938 295.03582763671875 520.0194091796875 C 324.3080139160156 464.17034912109375 292.04217529296875 476.030517578125 308.5006103515625 509.887939453125 C 287.8095397949219 457.7897644042969 387.17449951171875 415.0401611328125 372.9416198730469 496.4107971191406" stroke-width="9.080159187316895" fill="none" stroke="rgb(229, 130, 123)" stroke-opacity="0.65797603" stroke-linecap="round" stroke-linejoin="round"/>
    <path d="M 396.25970458984375 66.26168823242188 C 351.1523742675781 44.40455627441406 422.3511047363281 42.32291030883789 413.1171569824219 76.782470703125 C 391.5182800292969 76.44466400146484 392.2438659667969 86.92719268798828 381.0389404296875 80.2294921875" stroke-width="3.654834747314453" fill="none" stroke="rgb(36, 0, 0)" stroke-opacity="1.0" stroke-linecap="round" stroke-linejoin="round"/>
    <path d="M 319.84674072265625 470.45074462890625 C 327.5379638671875 460.33892822265625 366.67059326171875 446.2825012207031 364.1312561035156 487.23431396484375 C 364.922607421875 476.96875 318.846435546875 483.1062316894531 318.65380859375 486.772216796875 C 331.4977111816406 411.5133056640625 282.9748840332031 397.90484619140625 255.453857421875 417.4654846191406" stroke-width="3.903937816619873" fill="none" stroke="rgb(0, 0, 0)" stroke-opacity="1.0" stroke-linecap="round" stroke-linejoin="round"/>
    <path d="M 333.4725341796875 185.03012084960938 C 370.2115173339844 155.9359893798828 371.4360656738281 159.560302734375 374.65899658203125 163.32313537597656 C 352.823974609375 117.64400482177734 299.1092529296875 87.43902587890625 335.4417724609375 153.54815673828125" stroke-width="4.269947528839111" fill="none" stroke="rgb(0, 0, 0)" stroke-opacity="1.0" stroke-linecap="round" stroke-linejoin="round"/>
    <path d="M 320.5549621582031 121.44339752197266 C 322.0118408203125 115.05956268310547 313.41729736328125 92.87700653076172 356.8660583496094 119.62861633300781 C 302.9892272949219 63.990509033203125 321.9599914550781 147.57177734375 324.77398681640625 207.66526794433594" stroke-width="5.645147800445557" fill="none" stroke="rgb(255, 209, 231)" stroke-opacity="0.5999971" stroke-linecap="round" stroke-linejoin="round"/>
    <path d="M 250.22731018066406 176.63973999023438 C 257.12255859375 205.07972717285156 244.0340118408203 158.8278350830078 251.32070922851562 186.4618682861328 C 248.7771453857422 103.26028442382812 238.04931640625 195.95326232910156 261.337646484375 195.08868408203125" stroke-width="4.80186653137207" fill="none" stroke="rgb(160, 186, 127)" stroke-opacity="0.6472382" stroke-linecap="round" stroke-linejoin="round"/>
    <path d="M 302.3096008300781 235.4670867919922 C 261.2388610839844 209.70443725585938 250.515380859375 190.44264221191406 269.8858642578125 246.5564727783203 C 292.42742919921875 221.2288055419922 271.36724853515625 201.04922485351562 230.69857788085938 219.14332580566406" stroke-width="2.0" fill="none" stroke="rgb(255, 255, 255)" stroke-opacity="0.0" stroke-linecap="round" stroke-linejoin="round"/>
    <path d="M 49.342979431152344 59.17012405395508 C 6.07218599319458 43.585636138916016 85.42389678955078 69.20455169677734 71.18716430664062 32.43800354003906 C 41.707916259765625 -12.336260795593262 19.105972290039062 43.746551513671875 -61.56919860839844 19.373794555664062 C -7.00712776184082 44.69964599609375 -13.42058277130127 62.46358108520508 -36.0668830871582 43.39255905151367" stroke-width="4.283199310302734" fill="none" stroke="rgb(41, 0, 0)" stroke-opacity="1.0" stroke-linecap="round" stroke-linejoin="round"/>
    <path d="M 87.3957748413086 430.9383850097656 C 102.54454040527344 505.58447265625 91.74010467529297 444.71441650390625 74.81513977050781 463.18212890625 C 58.454898834228516 454.3796691894531 125.98432922363281 467.9949645996094 116.9396743774414 452.95458984375 C 56.92661666870117 499.82318115234375 118.31346130371094 430.2271728515625 148.54568481445312 477.65802001953125" stroke-width="3.5155081748962402" fill="none" stroke="rgb(151, 54, 0)" stroke-opacity="1.0" stroke-linecap="round" stroke-linejoin="round"/>
    <path d="M 57.92434310913086 24.41558265686035 C 28.03992462158203 65.5474853515625 73.03755950927734 75.61438751220703 95.34781646728516 75.14065551757812" stroke-width="2.0" fill="none" stroke="rgb(255, 252, 255)" stroke-opacity="0.05758315" stroke-linecap="round" stroke-linejoin="round"/>
    <path d="M 85.48384094238281 428.39202880859375 C 122.1343002319336 440.66864013671875 78.8335952758789 465.51171875 94.63774871826172 460.9298400878906" stroke-width="3.036785840988159" fill="none" stroke="rgb(213, 2, 0)" stroke-opacity="1.0" stroke-linecap="round" stroke-linejoin="round"/>
    <path d="M 364.7362365722656 144.37860107421875 C 325.84429931640625 151.3856964111328 336.5997009277344 150.36611938476562 336.9721374511719 161.58729553222656 C 329.1141662597656 146.15780639648438 333.22283935546875 169.80332946777344 347.3487243652344 160.07228088378906" stroke-width="3.4332025051116943" fill="none" stroke="rgb(0, 0, 0)" stroke-opacity="1.0" stroke-linecap="round" stroke-linejoin="round"/>
    <path d="M 235.65428161621094 19.685245513916016 C 216.79844665527344 32.9580192565918 249.08763122558594 30.35115623474121 240.65634155273438 -21.796159744262695 C 256.3575134277344 -19.44331932067871 232.9763946533203 -25.54572868347168 241.50926208496094 -32.71672439575195 C 255.19833374023438 -10.613076210021973 263.6615905761719 -5.599111557006836 260.2677307128906 -9.291304588317871" stroke-width="13.664647102355957" fill="none" stroke="rgb(0, 255, 255)" stroke-opacity="1.0" stroke-linecap="round" stroke-linejoin="round"/>
    <path d="M 27.941959381103516 351.72265625 C -20.913400650024414 283.1874084472656 -9.877883911132812 404.191162109375 23.096105575561523 366.2267150878906 C -0.8265501260757446 333.9508361816406 -110.83290100097656 308.16973876953125 51.899288177490234 255.24180603027344" stroke-width="4.039383888244629" fill="none" stroke="rgb(0, 0, 0)" stroke-opacity="1.0" stroke-linecap="round" stroke-linejoin="round"/>
    <path d="M 329.310546875 266.99951171875 C 320.15985107421875 309.07861328125 236.37249755859375 317.8626403808594 250.6370391845703 328.82696533203125 C 251.0206756591797 333.67340087890625 240.6522216796875 313.2821960449219 258.4067687988281 285.71319580078125 C 288.1711120605469 305.36114501953125 312.96136474609375 287.3509216308594 254.72659301757812 244.63209533691406" stroke-width="4.745131969451904" fill="none" stroke="rgb(0, 0, 0)" stroke-opacity="1.0" stroke-linecap="round" stroke-linejoin="round"/>
    <path d="M 255.42037963867188 241.28419494628906 C 311.0133056640625 279.5664978027344 290.8114013671875 298.9841613769531 260.95989990234375 284.14093017578125 C 238.0978240966797 338.65283203125 272.719970703125 302.5644836425781 246.1504364013672 321.9557189941406 C 258.16558837890625 314.2716064453125 239.2605743408203 281.5703125 249.56918334960938 360.89117431640625" stroke-width="5.463916778564453" fill="none" stroke="rgb(255, 67, 0)" stroke-opacity="0.65151066" stroke-linecap="round" stroke-linejoin="round"/>
    <path d="M 237.2166290283203 92.9258041381836 C 300.29815673828125 73.25201416015625 188.49951171875 13.814330101013184 195.59890747070312 71.07591247558594" stroke-width="3.7084622383117676" fill="none" stroke="rgb(0, 5, 0)" stroke-opacity="1.0" stroke-linecap="round" stroke-linejoin="round"/>
    <path d="M 285.1701965332031 380.3631896972656 C 292.3439636230469 340.1401672363281 180.78338623046875 353.60821533203125 308.25543212890625 324.83148193359375 C 314.13232421875 379.97454833984375 271.1955871582031 401.0428161621094 267.7240905761719 378.29315185546875 C 277.19677734375 399.9959411621094 249.7826690673828 389.8100280761719 295.10174560546875 388.6004333496094" stroke-width="4.013037204742432" fill="none" stroke="rgb(13, 0, 0)" stroke-opacity="1.0" stroke-linecap="round" stroke-linejoin="round"/>
    <path d="M 90.35346221923828 320.6341552734375 C 180.01272583007812 318.594482421875 66.9751968383789 300.6952819824219 59.15351867675781 316.739013671875" stroke-width="10.02342700958252" fill="none" stroke="rgb(0, 255, 255)" stroke-opacity="1.0" stroke-linecap="round" stroke-linejoin="round"/>
    <path d="M 204.14535522460938 68.5738754272461 C 187.8761444091797 65.38005828857422 198.89369201660156 106.03705596923828 232.6375732421875 74.01981353759766" stroke-width="3.6247715950012207" fill="none" stroke="rgb(32, 0, 0)" stroke-opacity="1.0" stroke-linecap="round" stroke-linejoin="round"/>
    <path d="M 377.1954650878906 138.73011779785156 C 365.7848815917969 115.08195495605469 346.5717468261719 75.48729705810547 374.21624755859375 60.035614013671875 C 429.8453063964844 42.049808502197266 388.2966003417969 32.896888732910156 359.90289306640625 87.31246948242188 C 361.865966796875 102.98839569091797 365.533935546875 130.70108032226562 411.3556823730469 102.09027862548828" stroke-width="2.006289005279541" fill="none" stroke="rgb(255, 255, 255)" stroke-opacity="0.0" stroke-linecap="round" stroke-linejoin="round"/>
    <path d="M -0.25975972414016724 495.1578369140625 C 12.196489334106445 455.5921325683594 58.584415435791016 453.6039123535156 0.45198020339012146 412.900146484375" stroke-width="10.45737075805664" fill="none" stroke="rgb(234, 4, 0)" stroke-opacity="1.0" stroke-linecap="round" stroke-linejoin="round"/>
    <path d="M 507.3108825683594 265.78369140625 C 529.4404296875 268.4241027832031 544.8104858398438 282.6605529785156 510.7348327636719 386.8509826660156 C 499.9449768066406 457.6568298339844 495.7490234375 461.7430114746094 501.11346435546875 226.35084533691406 C 492.0635070800781 251.29608154296875 520.7821655273438 318.5263366699219 464.7835693359375 306.10028076171875" stroke-width="4.458711624145508" fill="none" stroke="rgb(134, 0, 0)" stroke-opacity="1.0" stroke-linecap="round" stroke-linejoin="round"/>
    <path d="M 307.9313659667969 496.572265625 C 302.08648681640625 471.66387939453125 347.5462341308594 485.2915344238281 259.813720703125 416.5604248046875 C 333.4311828613281 447.4403076171875 279.7167053222656 505.2000427246094 371.2303771972656 405.059326171875" stroke-width="10.50249195098877" fill="none" stroke="rgb(255, 200, 173)" stroke-opacity="0.5481635" stroke-linecap="round" stroke-linejoin="round"/>
    <path d="M 146.9091339111328 95.85266876220703 C 64.1463623046875 121.4014892578125 219.90098571777344 145.24960327148438 102.17587280273438 155.64010620117188 C 103.55561065673828 130.51292419433594 9.372852325439453 158.77171325683594 -16.446510314941406 171.5110321044922" stroke-width="3.7754318714141846" fill="none" stroke="rgb(0, 0, 0)" stroke-opacity="1.0" stroke-linecap="round" stroke-linejoin="round"/>
    <path d="M 211.20001220703125 134.5518798828125 C 173.19058227539062 83.52249908447266 254.42247009277344 126.44902038574219 210.26275634765625 135.76751708984375" stroke-width="3.836702346801758" fill="none" stroke="rgb(128, 0, 0)" stroke-opacity="1.0" stroke-linecap="round" stroke-linejoin="round"/>
    <path d="M 386.2833557128906 131.6267547607422 C 421.30047607421875 130.65760803222656 432.5371398925781 90.70155334472656 430.78155517578125 82.2654037475586 C 408.2596435546875 103.3037338256836 411.686767578125 89.85166931152344 377.8067626953125 111.63082885742188 C 366.1871337890625 143.66629028320312 435.0545959472656 110.71753692626953 428.1510009765625 91.61360931396484" stroke-width="4.05463171005249" fill="none" stroke="rgb(87, 0, 0)" stroke-opacity="1.0" stroke-linecap="round" stroke-linejoin="round"/>
    <path d="M 254.4359893798828 401.6098937988281 C 236.1068115234375 437.7275085449219 275.7904357910156 439.18438720703125 252.52630615234375 430.3595275878906 C 240.3220977783203 429.97186279296875 245.21218872070312 371.22320556640625 245.0062713623047 392.3240966796875" stroke-width="3.668093681335449" fill="none" stroke="rgb(49, 255, 0)" stroke-opacity="0.16925775" stroke-linecap="round" stroke-linejoin="round"/>
    <path d="M 464.4234619140625 262.2119445800781 C 455.72113037109375 218.82534790039062 459.0652770996094 257.6955261230469 494.033935546875 224.17762756347656 C 522.5670166015625 183.96685791015625 467.55352783203125 181.72833251953125 509.2726135253906 137.62193298339844 C 509.83489990234375 279.3867492675781 514.4837646484375 265.1097106933594 551.87890625 250.2735595703125" stroke-width="13.995537757873535" fill="none" stroke="rgb(156, 26, 0)" stroke-opacity="1.0" stroke-linecap="round" stroke-linejoin="round"/>
    <path d="M 292.0611877441406 73.47044372558594 C 283.41217041015625 94.46717071533203 259.06158447265625 94.74417877197266 234.48574829101562 93.45831298828125 C 254.64501953125 71.67705535888672 230.0779266357422 62.005577087402344 220.70533752441406 64.08180236816406 C 211.0810546875 67.73863220214844 183.823486328125 61.66195297241211 209.24717712402344 136.6067657470703" stroke-width="9.873907089233398" fill="none" stroke="rgb(208, 101, 0)" stroke-opacity="0.27294874" stroke-linecap="round" stroke-linejoin="round"/>
    <path d="M 360.8197326660156 161.7996826171875 C 378.56341552734375 132.60348510742188 392.5970458984375 194.5112762451172 363.39813232421875 172.8651123046875 C 401.09930419921875 208.8745880126953 389.9335021972656 153.23683166503906 359.3038330078125 123.20612335205078" stroke-width="3.65389084815979" fill="none" stroke="rgb(255, 0, 123)" stroke-opacity="0.25380796" stroke-linecap="round" stroke-linejoin="round"/>
    <path d="M 203.4739227294922 288.2571716308594 C 194.68170166015625 286.27838134765625 218.65574645996094 287.12335205078125 220.80917358398438 279.787109375 C 230.2631378173828 259.8115539550781 228.4488983154297 316.1376647949219 236.98468017578125 325.8321838378906" stroke-width="3.8236327171325684" fill="none" stroke="rgb(252, 255, 255)" stroke-opacity="0.06429348" stroke-linecap="round" stroke-linejoin="round"/>
    <path d="M 71.06416320800781 181.93231201171875 C 41.6899528503418 187.91200256347656 178.62435913085938 120.99409484863281 212.5784912109375 191.91880798339844 C 192.27603149414062 247.86593627929688 209.0765838623047 212.88729858398438 69.2784194946289 218.27915954589844 C 34.1253662109375 274.4581298828125 95.9107666015625 255.2166290283203 63.064701080322266 301.6494445800781" stroke-width="14.946109771728516" fill="none" stroke="rgb(0, 255, 255)" stroke-opacity="1.0" stroke-linecap="round" stroke-linejoin="round"/>
    <path d="M 178.453369140625 143.26144409179688 C 215.63064575195312 169.53457641601562 215.02000427246094 174.34388732910156 172.5615997314453 180.9444580078125 C 174.37295532226562 128.7384796142578 156.70681762695312 132.0879669189453 154.95960998535156 134.16978454589844 C 153.03326416015625 97.8892822265625 153.26760864257812 66.75432586669922 154.62510681152344 115.31293487548828" stroke-width="2.0" fill="none" stroke="rgb(255, 243, 255)" stroke-opacity="0.016593464" stroke-linecap="round" stroke-linejoin="round"/>
    <path d="M 363.6687316894531 183.7314453125 C 367.2182922363281 182.9403076171875 375.89599609375 203.04010009765625 358.435791015625 206.76565551757812 C 359.2516784667969 190.01760864257812 311.0196838378906 178.19134521484375 362.1983337402344 184.58641052246094 C 399.34417724609375 204.3992462158203 372.3671569824219 122.12482452392578 328.1400146484375 113.2705078125" stroke-width="3.8203699588775635" fill="none" stroke="rgb(130, 28, 0)" stroke-opacity="0.8278479" stroke-linecap="round" stroke-linejoin="round"/>
    <path d="M 188.1053466796875 337.3256530761719 C 236.57101440429688 387.4365539550781 155.19496154785156 371.66070556640625 136.83648681640625 373.60235595703125 C 140.17713928222656 323.69482421875 140.93736267089844 365.0906982421875 110.74356079101562 341.33074951171875" stroke-width="10.12429428100586" fill="none" stroke="rgb(0, 0, 0)" stroke-opacity="1.0" stroke-linecap="round" stroke-linejoin="round"/>
    <path d="M 376.01739501953125 390.88189697265625 C 374.2776794433594 334.2229919433594 297.8858947753906 339.5085754394531 305.5830993652344 375.6340026855469 C 250.49891662597656 393.1357116699219 290.1848449707031 389.2207336425781 254.62950134277344 362.9740905761719 C 245.65513610839844 320.5823059082031 232.5787811279297 410.0697326660156 262.14483642578125 400.55322265625" stroke-width="5.349353313446045" fill="none" stroke="rgb(245, 147, 77)" stroke-opacity="0.63083744" stroke-linecap="round" stroke-linejoin="round"/>
    <path d="M 470.7056579589844 245.523681640625 C 394.09722900390625 198.9856719970703 494.5014343261719 212.79612731933594 500.16754150390625 193.39537048339844 C 531.7969360351562 150.1274871826172 519.3812866210938 178.4606170654297 550.9876098632812 214.73077392578125" stroke-width="3.8566880226135254" fill="none" stroke="rgb(0, 0, 0)" stroke-opacity="1.0" stroke-linecap="round" stroke-linejoin="round"/>
    <path d="M 185.72775268554688 466.54925537109375 C 272.23358154296875 481.43658447265625 194.3870086669922 553.2589721679688 198.00132751464844 473.6073303222656" stroke-width="6.802394866943359" fill="none" stroke="rgb(234, 128, 122)" stroke-opacity="1.0" stroke-linecap="round" stroke-linejoin="round"/>
    <path d="M 333.3868713378906 158.1948699951172 C 366.85498046875 148.78671264648438 336.6842956542969 149.6942901611328 369.97808837890625 191.1660614013672" stroke-width="3.108607292175293" fill="none" stroke="rgb(0, 0, 0)" stroke-opacity="1.0" stroke-linecap="round" stroke-linejoin="round"/>
    <path d="M 465.34173583984375 17.58354377746582 C 443.8054504394531 43.962318420410156 436.5918273925781 12.472543716430664 458.3983154296875 50.16520690917969 C 482.2822265625 75.53314208984375 538.0587158203125 0.10046224296092987 457.7124328613281 44.34141159057617" stroke-width="3.71311354637146" fill="none" stroke="rgb(123, 0, 0)" stroke-opacity="1.0" stroke-linecap="round" stroke-linejoin="round"/>
    <path d="M 407.826416015625 130.61209106445312 C 449.6888427734375 87.37255096435547 427.0780029296875 22.125398635864258 467.6294250488281 99.1427993774414 C 453.9021911621094 122.51918029785156 510.085693359375 93.7627944946289 496.86431884765625 78.55046844482422" stroke-width="8.838338851928711" fill="none" stroke="rgb(218, 172, 139)" stroke-opacity="0.74325037" stroke-linecap="round" stroke-linejoin="round"/>
    <path d="M 467.6082763671875 294.3568115234375 C 372.6665954589844 306.2799072265625 430.9165954589844 318.7346496582031 399.9377746582031 245.15139770507812 C 389.8555908203125 252.21011352539062 398.23028564453125 198.29051208496094 400.0613708496094 189.5786895751953" stroke-width="13.18519115447998" fill="none" stroke="rgb(255, 15, 108)" stroke-opacity="0.08764976" stroke-linecap="round" stroke-linejoin="round"/>
    <path d="M 471.24017333984375 455.6953125 C 446.7363586425781 461.8572998046875 476.3213195800781 456.02423095703125 502.4951171875 467.82861328125" stroke-width="2.0098841190338135" fill="none" stroke="rgb(255, 254, 254)" stroke-opacity="9.045312e-05" stroke-linecap="round" stroke-linejoin="round"/>
    <path d="M 332.7390441894531 207.6526641845703 C 354.779052734375 224.5422821044922 337.14935302734375 204.7600860595703 400.8558044433594 204.75929260253906" stroke-width="3.762481927871704" fill="none" stroke="rgb(12, 0, 0)" stroke-opacity="1.0" stroke-linecap="round" stroke-linejoin="round"/>
    <path d="M 291.73028564453125 162.2532958984375 C 304.1259460449219 176.69041442871094 266.8463134765625 168.3864288330078 277.0800476074219 176.33541870117188 C 266.2107238769531 182.61033630371094 263.890869140625 166.99551391601562 240.35247802734375 170.30628967285156 C 230.57164001464844 170.84674072265625 199.66204833984375 176.2220458984375 217.57118225097656 176.7999267578125" stroke-width="2.8399288654327393" fill="none" stroke="rgb(255, 255, 187)" stroke-opacity="0.0" stroke-linecap="round" stroke-linejoin="round"/>
    <path d="M 123.97677612304688 89.1096420288086 C 112.1247329711914 1.082137107849121 121.227783203125 32.32368850708008 128.896484375 86.1634750366211 C 178.98428344726562 70.95585632324219 147.02316284179688 118.50453186035156 125.17162322998047 109.27526092529297" stroke-width="13.082283020019531" fill="none" stroke="rgb(255, 231, 231)" stroke-opacity="0.69247746" stroke-linecap="round" stroke-linejoin="round"/>
    <path d="M 85.0329360961914 77.03070068359375 C 54.510318756103516 75.48417663574219 56.67382049560547 78.28021240234375 68.73063659667969 94.31497955322266" stroke-width="2.7331278324127197" fill="none" stroke="rgb(254, 255, 255)" stroke-opacity="0.0" stroke-linecap="round" stroke-linejoin="round"/>
    <path d="M 356.8882751464844 -3.3036460876464844 C 269.82965087890625 2.3510353565216064 308.8218078613281 20.170473098754883 292.4978332519531 -7.334901809692383" stroke-width="4.380400657653809" fill="none" stroke="rgb(0, 0, 244)" stroke-opacity="1.0" stroke-linecap="round" stroke-linejoin="round"/>
    <path d="M 125.5918197631836 148.7283172607422 C 115.12873840332031 86.14611053466797 123.3601303100586 72.16214752197266 123.68659210205078 141.486328125" stroke-width="3.8746256828308105" fill="none" stroke="rgb(228, 248, 217)" stroke-opacity="1.0" stroke-linecap="round" stroke-linejoin="round"/>
    <path d="M 459.04931640625 477.5982971191406 C 451.5610046386719 460.1779479980469 443.0769958496094 437.9566650390625 443.65533447265625 404.4453125" stroke-width="2.0614452362060547" fill="none" stroke="rgb(255, 255, 255)" stroke-opacity="0.0" stroke-linecap="round" stroke-linejoin="round"/>
    <path d="M 280.74603271484375 88.68094635009766 C 298.4841003417969 6.473531246185303 286.92437744140625 8.497474670410156 251.9071044921875 9.12219524383545" stroke-width="10.728105545043945" fill="none" stroke="rgb(255, 194, 201)" stroke-opacity="0.3744187" stroke-linecap="round" stroke-linejoin="round"/>
    <path d="M 145.4163360595703 349.34478759765625 C 135.32225036621094 321.4676818847656 159.34127807617188 291.748291015625 217.47023010253906 244.51573181152344 C 206.35336303710938 231.71286010742188 160.3245086669922 270.5036926269531 208.05165100097656 216.7767791748047" stroke-width="4.138576030731201" fill="none" stroke="rgb(0, 0, 0)" stroke-opacity="1.0" stroke-linecap="round" stroke-linejoin="round"/>
    <path d="M 152.5438995361328 502.3474426269531 C 189.62326049804688 507.6189270019531 181.76661682128906 491.02984619140625 163.17935180664062 450.70074462890625 C 126.17565155029297 510.11907958984375 194.73318481445312 500.1314697265625 82.90019989013672 501.10308837890625" stroke-width="9.074176788330078" fill="none" stroke="rgb(171, 62, 38)" stroke-opacity="0.4947102" stroke-linecap="round" stroke-linejoin="round"/>
    <path d="M 502.92431640625 268.1202697753906 C 515.7127685546875 291.03680419921875 532.5746459960938 311.36767578125 549.2471923828125 322.11578369140625 C 548.3226928710938 305.7513732910156 528.4058227539062 315.458251953125 520.362060546875 327.81793212890625" stroke-width="2.2144784927368164" fill="none" stroke="rgb(255, 56, 15)" stroke-opacity="0.65689015" stroke-linecap="round" stroke-linejoin="round"/>
    <path d="M 329.529296875 435.8723449707031 C 346.6663513183594 370.17510986328125 251.40647888183594 400.35943603515625 296.5643005371094 373.72100830078125 C 342.2739562988281 358.9159240722656 368.3694152832031 398.825927734375 363.929443359375 410.2784729003906 C 359.5731506347656 425.7322692871094 303.5420837402344 434.46258544921875 321.1961364746094 468.4881591796875" stroke-width="3.76002836227417" fill="none" stroke="rgb(6, 0, 0)" stroke-opacity="1.0" stroke-linecap="round" stroke-linejoin="round"/>
    <path d="M 457.1717529296875 426.154296875 C 451.962646484375 441.9761657714844 461.0756530761719 426.14874267578125 452.11383056640625 403.5456848144531 C 441.8345031738281 407.085205078125 453.95245361328125 424.8089294433594 468.648193359375 444.86822509765625 C 450.9651184082031 452.25897216796875 429.34454345703125 437.26544189453125 429.3498840332031 412.49664306640625" stroke-width="2.0014684200286865" fill="none" stroke="rgb(255, 255, 255)" stroke-opacity="0.0" stroke-linecap="round" stroke-linejoin="round"/>
    <path d="M 370.7424621582031 397.88916015625 C 304.02545166015625 321.8844909667969 359.74041748046875 427.1231689453125 315.4954528808594 466.0027160644531 C 322.664306640625 494.73858642578125 259.6654968261719 464.247314453125 320.8163757324219 481.5253601074219 C 244.82286071777344 375.7181701660156 240.46243286132812 461.4059753417969 287.4417724609375 359.64263916015625" stroke-width="13.021554946899414" fill="none" stroke="rgb(239, 0, 0)" stroke-opacity="0.21285132" stroke-linecap="round" stroke-linejoin="round"/>
    <path d="M 224.21221923828125 29.13102149963379 C 210.9395294189453 2.693650245666504 226.29681396484375 38.26445007324219 213.6168975830078 -8.7383451461792" stroke-width="3.2169132232666016" fill="none" stroke="rgb(0, 0, 14)" stroke-opacity="1.0" stroke-linecap="round" stroke-linejoin="round"/>
    <path d="M 160.53369140625 -6.983489036560059 C 221.24525451660156 28.749563217163086 168.39193725585938 94.17257690429688 254.48648071289062 95.8316650390625 C 130.09698486328125 25.705156326293945 273.1620788574219 130.25326538085938 208.58961486816406 51.65180969238281 C 307.2814636230469 56.88175964355469 194.40432739257812 140.76852416992188 208.92076110839844 73.02099609375" stroke-width="18.274158477783203" fill="none" stroke="rgb(255, 34, 0)" stroke-opacity="0.3594764" stroke-linecap="round" stroke-linejoin="round"/>
    <path d="M 331.2297058105469 271.7948303222656 C 315.2030029296875 314.52490234375 245.0674285888672 316.800048828125 252.1389617919922 334.8838806152344" stroke-width="5.064877510070801" fill="none" stroke="rgb(232, 156, 86)" stroke-opacity="0.62316376" stroke-linecap="round" stroke-linejoin="round"/>
    <path d="M 403.4150085449219 151.53253173828125 C 413.98297119140625 135.18348693847656 415.7660217285156 171.3647003173828 397.94744873046875 164.8599395751953 C 414.5637512207031 178.66783142089844 377.3780517578125 152.83447265625 402.52630615234375 151.96800231933594" stroke-width="3.723149538040161" fill="none" stroke="rgb(255, 0, 0)" stroke-opacity="1.0" stroke-linecap="round" stroke-linejoin="round"/>
    <path d="M 290.26666259765625 503.038330078125 C 311.27886962890625 498.0382385253906 293.251708984375 521.2825317382812 303.73150634765625 540.837890625 C 291.9056091308594 554.1613159179688 279.71685791015625 569.5663452148438 266.7311706542969 557.671875 C 269.86669921875 550.4656372070312 245.41329956054688 547.6196899414062 226.46278381347656 550.7894897460938" stroke-width="2.005234479904175" fill="none" stroke="rgb(226, 255, 255)" stroke-opacity="0.0" stroke-linecap="round" stroke-linejoin="round"/>
    <path d="M 505.13104248046875 -3.5573782920837402 C 445.1708984375 48.73586654663086 465.25469970703125 -13.648402214050293 442.76507568359375 3.443011999130249" stroke-width="3.9567670822143555" fill="none" stroke="rgb(96, 0, 0)" stroke-opacity="1.0" stroke-linecap="round" stroke-linejoin="round"/>
    <path d="M -13.777619361877441 113.7179183959961 C 26.24440574645996 197.2406768798828 55.750038146972656 133.40658569335938 -5.1121697425842285 121.08502197265625" stroke-width="4.042116641998291" fill="none" stroke="rgb(0, 0, 0)" stroke-opacity="1.0" stroke-linecap="round" stroke-linejoin="round"/>
    <path d="M 19.39647674560547 450.147705078125 C -7.814570903778076 453.3486328125 -19.281574249267578 430.07958984375 -13.572406768798828 397.076904296875" stroke-width="7.969566822052002" fill="none" stroke="rgb(0, 0, 255)" stroke-opacity="1.0" stroke-linecap="round" stroke-linejoin="round"/>
    <path d="M 449.0306396484375 46.4738655090332 C 438.09228515625 28.124250411987305 448.7095642089844 29.572032928466797 442.0465393066406 61.5817985534668 C 479.09271240234375 108.53462219238281 442.0790100097656 89.17913818359375 502.6702880859375 72.78608703613281" stroke-width="3.812265157699585" fill="none" stroke="rgb(45, 0, 0)" stroke-opacity="1.0" stroke-linecap="round" stroke-linejoin="round"/>
    <path d="M 116.4906005859375 255.56561279296875 C 144.67071533203125 235.8083953857422 146.56675720214844 250.86306762695312 194.15090942382812 231.21810913085938 C 191.78884887695312 193.9683380126953 144.4534912109375 193.60081481933594 144.03192138671875 180.89019775390625" stroke-width="2.0" fill="none" stroke="rgb(255, 255, 222)" stroke-opacity="0.0" stroke-linecap="round" stroke-linejoin="round"/>
    <path d="M 185.551025390625 333.7362060546875 C 192.30857849121094 303.4147644042969 216.42437744140625 391.8795166015625 217.37530517578125 313.39361572265625 C 211.01986694335938 388.9494323730469 207.0973358154297 366.9002685546875 210.6697235107422 355.1866149902344 C 222.943115234375 362.8018493652344 174.36807250976562 395.300537109375 208.02207946777344 372.0791320800781" stroke-width="7.324731826782227" fill="none" stroke="rgb(255, 150, 0)" stroke-opacity="0.65978485" stroke-linecap="round" stroke-linejoin="round"/>
    <path d="M 496.1593322753906 67.4576187133789 C 512.2495727539062 126.81062316894531 477.1705322265625 138.7278289794922 478.7410888671875 119.89346313476562 C 437.259033203125 93.14555358886719 512.33447265625 125.16197204589844 499.30279541015625 64.35112762451172" stroke-width="4.011730194091797" fill="none" stroke="rgb(128, 0, 0)" stroke-opacity="1.0" stroke-linecap="round" stroke-linejoin="round"/>
    <path d="M 254.68467712402344 491.4521179199219 C 254.87286376953125 269.2746276855469 249.46826171875 423.2411804199219 291.52288818359375 358.82244873046875 C 188.04002380371094 342.3197326660156 313.03277587890625 292.9768371582031 384.5097961425781 382.42474365234375 C 210.99179077148438 263.4550476074219 313.5325012207031 294.3658447265625 309.81219482421875 357.1357116699219" stroke-width="15.990670204162598" fill="none" stroke="rgb(255, 0, 0)" stroke-opacity="0.1843059" stroke-linecap="round" stroke-linejoin="round"/>
    <path d="M 59.62298583984375 299.8935546875 C 54.36924743652344 279.6883544921875 15.621621131896973 253.52835083007812 -7.465827465057373 294.6378479003906 C 13.766931533813477 299.2930603027344 47.49335861206055 285.211181640625 39.80050277709961 337.0169677734375" stroke-width="10.633499145507812" fill="none" stroke="rgb(3, 0, 0)" stroke-opacity="1.0" stroke-linecap="round" stroke-linejoin="round"/>
    <path d="M 96.17198181152344 259.7729797363281 C 114.21490478515625 262.2557373046875 163.82298278808594 271.95318603515625 171.9419403076172 218.92723083496094 C 85.33538055419922 213.83424377441406 36.098785400390625 233.7401580810547 89.02651977539062 203.2771759033203" stroke-width="2.123225450515747" fill="none" stroke="rgb(255, 255, 255)" stroke-opacity="0.0" stroke-linecap="round" stroke-linejoin="round"/>
    <path d="M 204.42337036132812 93.16019439697266 C 240.14804077148438 131.44358825683594 263.7628173828125 33.20621109008789 197.05604553222656 74.99339294433594" stroke-width="3.9117043018341064" fill="none" stroke="rgb(24, 0, 0)" stroke-opacity="1.0" stroke-linecap="round" stroke-linejoin="round"/>
    <path d="M 122.60868835449219 30.893033981323242 C 119.65386962890625 -1.8968567848205566 125.50202941894531 10.153177261352539 96.93998718261719 3.938894033432007" stroke-width="15.658276557922363" fill="none" stroke="rgb(0, 255, 255)" stroke-opacity="1.0" stroke-linecap="round" stroke-linejoin="round"/>
    <path d="M 45.63340377807617 482.2511291503906 C 41.979923248291016 472.8211364746094 59.2554817199707 450.7696838378906 86.06877899169922 451.20416259765625" stroke-width="3.3724989891052246" fill="none" stroke="rgb(255, 255, 255)" stroke-opacity="0.0" stroke-linecap="round" stroke-linejoin="round"/>
    <path d="M 470.0738525390625 99.66101837158203 C 442.3139343261719 -36.26328659057617 413.9158020019531 -21.937715530395508 466.6543884277344 101.5848159790039" stroke-width="11.502652168273926" fill="none" stroke="rgb(255, 41, 0)" stroke-opacity="0.347191" stroke-linecap="round" stroke-linejoin="round"/>
    <path d="M 202.97576904296875 65.27266693115234 C 188.1592559814453 74.94817352294922 203.49575805664062 46.18043899536133 201.38153076171875 62.27938461303711" stroke-width="7.692990303039551" fill="none" stroke="rgb(255, 109, 26)" stroke-opacity="0.8461901" stroke-linecap="round" stroke-linejoin="round"/>
    <path d="M 369.3887023925781 22.2160701751709 C 380.391357421875 69.62703704833984 422.4217529296875 -9.402506828308105 369.5267333984375 26.041545867919922 C 337.2542724609375 -29.35607147216797 442.6881408691406 57.87255859375 430.8097839355469 -25.29174041748047" stroke-width="3.656038761138916" fill="none" stroke="rgb(30, 0, 0)" stroke-opacity="1.0" stroke-linecap="round" stroke-linejoin="round"/>
    <path d="M 331.09320068359375 264.79571533203125 C 324.361328125 187.51449584960938 333.7003173828125 240.1885528564453 325.5438232421875 119.80725860595703" stroke-width="12.402094841003418" fill="none" stroke="rgb(255, 178, 132)" stroke-opacity="0.87882566" stroke-linecap="round" stroke-linejoin="round"/>
    <path d="M 487.0089111328125 221.1337432861328 C 442.67877197265625 267.95330810546875 405.5044250488281 146.6235809326172 441.5179748535156 221.2003936767578" stroke-width="7.401669502258301" fill="none" stroke="rgb(255, 153, 173)" stroke-opacity="0.6039183" stroke-linecap="round" stroke-linejoin="round"/>
    <path d="M 408.7464904785156 146.00474548339844 C 408.1913146972656 119.35579681396484 393.2725524902344 149.34031677246094 386.7294921875 135.45960998535156 C 394.381591796875 150.06849670410156 390.89129638671875 151.7952880859375 404.6989440917969 140.6464385986328" stroke-width="3.7105441093444824" fill="none" stroke="rgb(0, 0, 45)" stroke-opacity="1.0" stroke-linecap="round" stroke-linejoin="round"/>
    <path d="M 384.965576171875 242.82940673828125 C 423.60223388671875 294.43731689453125 395.26910400390625 221.2159423828125 372.7467956542969 259.03411865234375" stroke-width="9.34705924987793" fill="none" stroke="rgb(255, 183, 217)" stroke-opacity="0.6520924" stroke-linecap="round" stroke-linejoin="round"/>
    <path d="M 141.4990997314453 321.4631652832031 C 128.2461700439453 341.5710754394531 106.61138153076172 322.16204833984375 73.74935913085938 320.1732482910156" stroke-width="3.8080549240112305" fill="none" stroke="rgb(255, 0, 0)" stroke-opacity="1.0" stroke-linecap="round" stroke-linejoin="round"/>
    <path d="M 3.091146469116211 409.7054138183594 C 84.58102416992188 460.80731201171875 -25.519208908081055 467.3751220703125 10.64890193939209 537.385009765625 C 48.35912322998047 530.66162109375 31.03504753112793 559.91357421875 50.12803649902344 524.6270141601562" stroke-width="6.211445331573486" fill="none" stroke="rgb(255, 138, 73)" stroke-opacity="0.60702324" stroke-linecap="round" stroke-linejoin="round"/>
    <path d="M 459.1540222167969 267.1631164550781 C 460.9973449707031 278.2171936035156 452.1143798828125 320.53094482421875 480.87652587890625 294.65997314453125 C 475.2965087890625 262.8290100097656 428.9617919921875 281.24664306640625 508.85723876953125 247.68035888671875" stroke-width="3.779876708984375" fill="none" stroke="rgb(91, 0, 0)" stroke-opacity="1.0" stroke-linecap="round" stroke-linejoin="round"/>
    <path d="M 221.51194763183594 311.64666748046875 C 233.1877899169922 388.4269714355469 192.04598999023438 405.82635498046875 203.84461975097656 356.97393798828125" stroke-width="4.7587409019470215" fill="none" stroke="rgb(255, 202, 145)" stroke-opacity="0.064997636" stroke-linecap="round" stroke-linejoin="round"/>
    <path d="M 397.33135986328125 180.64353942871094 C 410.99591064453125 207.33824157714844 453.4511413574219 208.2738800048828 423.0738220214844 183.999267578125" stroke-width="3.6644935607910156" fill="none" stroke="rgb(80, 0, 0)" stroke-opacity="1.0" stroke-linecap="round" stroke-linejoin="round"/>
    <path d="M 51.89350509643555 87.41331481933594 C 55.56760787963867 101.16593933105469 22.705984115600586 50.79907989501953 52.58237075805664 93.31034851074219 C 79.09330749511719 77.29840087890625 57.74374008178711 65.28549194335938 31.290088653564453 45.85671615600586 C 2.1367499828338623 49.35531234741211 114.54415130615234 63.282291412353516 48.470947265625 16.106176376342773" stroke-width="5.388885498046875" fill="none" stroke="rgb(197, 47, 0)" stroke-opacity="0.4977014" stroke-linecap="round" stroke-linejoin="round"/>
    <path d="M 259.91241455078125 211.16041564941406 C 272.2939147949219 244.83071899414062 298.9938659667969 177.8577880859375 261.0942687988281 212.17422485351562" stroke-width="3.7436487674713135" fill="none" stroke="rgb(161, 0, 0)" stroke-opacity="1.0" stroke-linecap="round" stroke-linejoin="round"/>
    <path d="M 461.42926025390625 -1.3932642936706543 C 414.5483093261719 11.562583923339844 453.4200134277344 60.82003402709961 504.4201965332031 74.31368255615234" stroke-width="3.6617019176483154" fill="none" stroke="rgb(0, 0, 0)" stroke-opacity="1.0" stroke-linecap="round" stroke-linejoin="round"/>
    <path d="M 33.72498321533203 174.7136993408203 C 64.2470932006836 172.52487182617188 72.22649383544922 117.8735580444336 171.3943634033203 165.40988159179688 C 33.492584228515625 164.7064208984375 119.18412780761719 221.74627685546875 13.822917938232422 203.93324279785156" stroke-width="9.085091590881348" fill="none" stroke="rgb(255, 18, 97)" stroke-opacity="0.07165967" stroke-linecap="round" stroke-linejoin="round"/>
    <path d="M 326.0042724609375 67.80043029785156 C 328.55682373046875 82.68738555908203 328.19329833984375 99.05187225341797 318.5265197753906 102.38362121582031" stroke-width="2.0" fill="none" stroke="rgb(255, 255, 255)" stroke-opacity="0.0" stroke-linecap="round" stroke-linejoin="round"/>
    <path d="M 238.49815368652344 145.8061981201172 C 241.80612182617188 150.22633361816406 255.92996215820312 148.00816345214844 242.38937377929688 149.77481079101562 C 290.2384033203125 130.20513916015625 324.65960693359375 85.28086853027344 238.82664489746094 130.11471557617188" stroke-width="3.8234541416168213" fill="none" stroke="rgb(73, 0, 0)" stroke-opacity="1.0" stroke-linecap="round" stroke-linejoin="round"/>
    <path d="M 69.40286254882812 223.21240234375 C 304.66571044921875 245.3599395751953 215.32705688476562 130.69825744628906 85.78998565673828 180.49755859375 C 66.19468688964844 203.6646270751953 73.88493347167969 193.48977661132812 64.47235107421875 190.056640625" stroke-width="10.481661796569824" fill="none" stroke="rgb(0, 255, 105)" stroke-opacity="0.29674095" stroke-linecap="round" stroke-linejoin="round"/>
    <path d="M 282.2264099121094 285.2824401855469 C 213.63426208496094 277.8960876464844 287.5150451660156 360.9233703613281 335.89080810546875 311.6874084472656 C 397.883056640625 307.2802429199219 290.8167724609375 284.41827392578125 349.3063659667969 245.91445922851562" stroke-width="14.446056365966797" fill="none" stroke="rgb(255, 66, 0)" stroke-opacity="0.22941652" stroke-linecap="round" stroke-linejoin="round"/>
    <path d="M 170.71438598632812 480.3446960449219 C 61.658721923828125 461.11627197265625 89.40621185302734 457.78851318359375 110.15400695800781 560.3372802734375 C 79.86310577392578 524.710205078125 80.76943969726562 537.1282348632812 78.04706573486328 544.0137939453125 C 80.242919921875 530.82470703125 69.67498016357422 525.2125244140625 86.83414459228516 545.870361328125" stroke-width="7.7383623123168945" fill="none" stroke="rgb(255, 196, 194)" stroke-opacity="0.60579956" stroke-linecap="round" stroke-linejoin="round"/>
    <path d="M 192.80050659179688 330.0664367675781 C 184.12400817871094 338.5607604980469 226.7222137451172 351.6336364746094 195.07974243164062 376.08209228515625 C 189.81680297851562 388.0799560546875 130.3251190185547 373.39080810546875 133.72567749023438 386.66888427734375 C 141.80926513671875 375.1836242675781 88.7279052734375 361.9680480957031 182.00770568847656 366.18902587890625" stroke-width="9.1705961227417" fill="none" stroke="rgb(208, 64, 0)" stroke-opacity="0.71041644" stroke-linecap="round" stroke-linejoin="round"/>
    <path d="M 481.0434265136719 -1.2672009468078613 C 463.1853332519531 -9.990614891052246 457.6258850097656 -4.402584552764893 438.22479248046875 -15.218984603881836 C 457.24774169921875 -11.125602722167969 466.228271484375 7.818637371063232 471.73126220703125 -11.025644302368164" stroke-width="2.0" fill="none" stroke="rgb(189, 47, 113)" stroke-opacity="0.0" stroke-linecap="round" stroke-linejoin="round"/>
    <path d="M 516.1439819335938 351.01910400390625 C 484.2156066894531 358.9243469238281 465.3280334472656 333.2630920410156 470.40625 353.8830871582031" stroke-width="16.95857048034668" fill="none" stroke="rgb(255, 14, 0)" stroke-opacity="1.0" stroke-linecap="round" stroke-linejoin="round"/>
    <path d="M 338.91180419921875 301.31646728515625 C 269.02252197265625 350.6683654785156 358.73516845703125 301.77490234375 399.91412353515625 396.80419921875 C 443.99322509765625 380.5758056640625 423.99365234375 365.048095703125 404.1685791015625 358.50726318359375" stroke-width="8.111810684204102" fill="none" stroke="rgb(255, 232, 250)" stroke-opacity="0.58657146" stroke-linecap="round" stroke-linejoin="round"/>
    <path d="M 471.782470703125 343.4464111328125 C 413.14398193359375 335.5876770019531 430.9444580078125 370.444580078125 406.96710205078125 343.13153076171875 C 405.1276550292969 318.04705810546875 411.9630432128906 290.975341796875 397.6568298339844 302.9090881347656 C 448.1007995605469 322.8775329589844 427.50927734375 347.5279541015625 423.80859375 370.4742126464844" stroke-width="3.9543814659118652" fill="none" stroke="rgb(0, 0, 0)" stroke-opacity="1.0" stroke-linecap="round" stroke-linejoin="round"/>
    <path d="M 83.3487777709961 441.02386474609375 C 50.91739273071289 448.66082763671875 89.13279724121094 508.5968933105469 93.53506469726562 458.1320495605469" stroke-width="3.7114529609680176" fill="none" stroke="rgb(0, 0, 0)" stroke-opacity="1.0" stroke-linecap="round" stroke-linejoin="round"/>
    <path d="M 22.46027183532715 143.92784118652344 C 77.97156524658203 47.08359146118164 13.838713645935059 99.54072570800781 78.33026885986328 -78.77017211914062 C 83.0831069946289 70.12533569335938 41.686859130859375 149.38368225097656 -12.692156791687012 67.23851013183594" stroke-width="24.66995620727539" fill="none" stroke="rgb(255, 31, 0)" stroke-opacity="0.42238972" stroke-linecap="round" stroke-linejoin="round"/>
    <path d="M 245.05848693847656 502.4040222167969 C 258.3885803222656 509.2731018066406 244.09716796875 440.349609375 168.27520751953125 460.7452087402344 C 208.81643676757812 471.7763671875 220.29539489746094 484.3984680175781 222.17967224121094 488.45379638671875 C 227.48609924316406 556.7623901367188 216.928955078125 562.3911743164062 242.31370544433594 531.7000122070312" stroke-width="3.8702259063720703" fill="none" stroke="rgb(18, 0, 0)" stroke-opacity="1.0" stroke-linecap="round" stroke-linejoin="round"/>
    <path d="M 410.2091369628906 320.37237548828125 C 434.4982604980469 393.1810302734375 435.6371765136719 343.80908203125 407.6222839355469 421.98193359375" stroke-width="13.165666580200195" fill="none" stroke="rgb(255, 0, 12)" stroke-opacity="0.332366" stroke-linecap="round" stroke-linejoin="round"/>
    <path d="M 423.70599365234375 367.2445373535156 C 427.6979064941406 370.705322265625 417.6175231933594 368.8535461425781 436.22528076171875 353.6012268066406 C 480.2860107421875 350.2129211425781 493.0658264160156 345.1498718261719 491.7361755371094 477.3981628417969" stroke-width="16.36399269104004" fill="none" stroke="rgb(0, 255, 255)" stroke-opacity="1.0" stroke-linecap="round" stroke-linejoin="round"/>
    <path d="M 0.5698676109313965 403.4916076660156 C 34.17566680908203 419.5561218261719 38.277347564697266 370.3751220703125 1.2445201873779297 398.3163146972656" stroke-width="4.019684791564941" fill="none" stroke="rgb(227, 0, 0)" stroke-opacity="1.0" stroke-linecap="round" stroke-linejoin="round"/>
    <path d="M 316.330322265625 66.72996520996094 C 358.68914794921875 66.7690658569336 393.92254638671875 20.710079193115234 331.4100341796875 56.888511657714844 C 326.13592529296875 51.803070068359375 323.6873779296875 101.89476776123047 301.0242004394531 61.28705978393555 C 331.85382080078125 94.28156280517578 315.1378173828125 66.79185485839844 268.3574523925781 93.48658752441406" stroke-width="3.0086960792541504" fill="none" stroke="rgb(255, 255, 255)" stroke-opacity="0.0" stroke-linecap="round" stroke-linejoin="round"/>
    <path d="M 188.8036346435547 304.5484619140625 C 191.4529266357422 416.67706298828125 175.51397705078125 226.4445037841797 226.34365844726562 241.5596466064453 C 161.6956787109375 273.6220397949219 191.135498046875 363.50091552734375 181.22047424316406 361.3817443847656 C 154.31088256835938 355.76068115234375 100.60382843017578 382.83251953125 178.92547607421875 274.18902587890625" stroke-width="8.160353660583496" fill="none" stroke="rgb(255, 211, 185)" stroke-opacity="0.76681566" stroke-linecap="round" stroke-linejoin="round"/>
    <path d="M 307.5262451171875 258.4794006347656 C 293.4861145019531 263.47332763671875 299.30377197265625 258.4173889160156 296.83740234375 247.81350708007812" stroke-width="2.0512635707855225" fill="none" stroke="rgb(255, 255, 255)" stroke-opacity="0.0" stroke-linecap="round" stroke-linejoin="round"/>
    <path d="M 255.50735473632812 158.4705352783203 C 288.5227966308594 182.70770263671875 305.6510925292969 53.11716842651367 277.6388854980469 142.623779296875" stroke-width="9.952664375305176" fill="none" stroke="rgb(255, 67, 0)" stroke-opacity="0.48631608" stroke-linecap="round" stroke-linejoin="round"/>
    <path d="M 97.23391723632812 389.39520263671875 C 98.67279052734375 343.3729553222656 125.86033630371094 311.67901611328125 60.66122817993164 320.3600769042969 C -4.196497917175293 366.1821594238281 63.467288970947266 358.2470397949219 -6.871150493621826 393.158447265625" stroke-width="11.215816497802734" fill="none" stroke="rgb(0, 255, 255)" stroke-opacity="1.0" stroke-linecap="round" stroke-linejoin="round"/>
    <path d="M 318.0600891113281 60.42445755004883 C 318.6003723144531 158.5457000732422 269.0130920410156 36.5572624206543 312.4416809082031 96.56519317626953" stroke-width="9.178836822509766" fill="none" stroke="rgb(255, 75, 0)" stroke-opacity="1.0" stroke-linecap="round" stroke-linejoin="round"/>
    <path d="M 326.84283447265625 442.7145080566406 C 431.72930908203125 383.57806396484375 326.86944580078125 321.35943603515625 309.2139892578125 354.94793701171875" stroke-width="4.175832748413086" fill="none" stroke="rgb(191, 75, 0)" stroke-opacity="1.0" stroke-linecap="round" stroke-linejoin="round"/>
    <path d="M 298.0304260253906 181.6169891357422 C 314.9244384765625 192.98760986328125 304.4195861816406 174.5734405517578 288.1219482421875 194.02926635742188 C 265.56915283203125 195.4263916015625 287.9626159667969 174.54885864257812 291.6705322265625 219.02169799804688 C 331.2722473144531 218.80026245117188 325.77911376953125 203.79867553710938 291.15289306640625 207.69790649414062" stroke-width="2.0" fill="none" stroke="rgb(255, 255, 190)" stroke-opacity="0.0" stroke-linecap="round" stroke-linejoin="round"/>
    <path d="M 219.1266326904297 0.8063141703605652 C 169.8162078857422 20.488468170166016 207.9217987060547 23.81145668029785 235.78863525390625 11.707148551940918 C 213.039306640625 -52.82533264160156 175.0230712890625 -16.91156768798828 164.2748565673828 -14.73394775390625" stroke-width="3.490408420562744" fill="none" stroke="rgb(0, 0, 0)" stroke-opacity="1.0" stroke-linecap="round" stroke-linejoin="round"/>
    <path d="M 352.7959289550781 234.23818969726562 C 331.58294677734375 247.2854766845703 348.49951171875 272.1340026855469 347.13916015625 233.8096160888672 C 428.4937744140625 212.4519805908203 360.9127197265625 257.2877197265625 405.8024597167969 223.23162841796875 C 455.3307189941406 215.62255859375 445.1656494140625 224.60523986816406 466.3059387207031 299.5800476074219" stroke-width="7.024853229522705" fill="none" stroke="rgb(194, 120, 55)" stroke-opacity="0.52627814" stroke-linecap="round" stroke-linejoin="round"/>
    <path d="M 200.6485137939453 160.0103759765625 C 272.68084716796875 151.8760528564453 294.51446533203125 143.17593383789062 273.9001159667969 172.11244201660156 C 252.88229370117188 164.7700653076172 291.6263732910156 176.85337829589844 299.2850646972656 106.40412139892578" stroke-width="7.019558429718018" fill="none" stroke="rgb(255, 246, 233)" stroke-opacity="0.51753664" stroke-linecap="round" stroke-linejoin="round"/>
    <path d="M 121.13661193847656 352.4002990722656 C 98.20832824707031 310.38995361328125 124.92379760742188 324.55340576171875 111.94009399414062 330.38470458984375 C 157.44149780273438 313.53973388671875 138.864501953125 298.2876281738281 133.53451538085938 372.6622314453125 C 145.70101928710938 354.8581848144531 106.45683288574219 388.1852111816406 108.04267883300781 369.29180908203125" stroke-width="4.366770267486572" fill="none" stroke="rgb(0, 0, 0)" stroke-opacity="1.0" stroke-linecap="round" stroke-linejoin="round"/>
    <path d="M 398.257568359375 365.6513977050781 C 442.7391052246094 247.4342041015625 345.5203857421875 212.10760498046875 381.8927917480469 307.1798095703125" stroke-width="5.896992206573486" fill="none" stroke="rgb(205, 116, 94)" stroke-opacity="0.6094216" stroke-linecap="round" stroke-linejoin="round"/>
    <path d="M 60.71681213378906 95.45330047607422 C 65.74993133544922 88.68220520019531 70.9865951538086 75.98515319824219 34.11167907714844 149.44598388671875" stroke-width="4.242581367492676" fill="none" stroke="rgb(255, 236, 127)" stroke-opacity="0.588505" stroke-linecap="round" stroke-linejoin="round"/>
    <path d="M 311.2457275390625 64.24011993408203 C 333.2517395019531 107.11111450195312 248.7068634033203 92.44084167480469 313.21136474609375 61.631656646728516" stroke-width="3.590183734893799" fill="none" stroke="rgb(0, 0, 0)" stroke-opacity="1.0" stroke-linecap="round" stroke-linejoin="round"/>
    <path d="M 445.1990661621094 46.27885818481445 C 422.1908264160156 143.99154663085938 371.1399230957031 184.14117431640625 393.38763427734375 51.506927490234375 C 369.73590087890625 126.36419677734375 384.74774169921875 123.16722106933594 371.3238525390625 39.292972564697266 C 428.3857116699219 -4.107019901275635 250.86361694335938 13.033164978027344 398.91766357421875 -0.42297056317329407" stroke-width="14.680620193481445" fill="none" stroke="rgb(255, 0, 0)" stroke-opacity="0.1395652" stroke-linecap="round" stroke-linejoin="round"/>
    <path d="M 217.74322509765625 308.6415100097656 C 217.4263916015625 373.3121643066406 228.7042999267578 391.8897399902344 139.49087524414062 384.68902587890625" stroke-width="6.9842023849487305" fill="none" stroke="rgb(255, 234, 245)" stroke-opacity="0.66220987" stroke-linecap="round" stroke-linejoin="round"/>
    <path d="M 295.6596984863281 17.324607849121094 C 295.7990417480469 52.381832122802734 347.5977478027344 37.44678497314453 323.4496765136719 5.274118423461914" stroke-width="10.648860931396484" fill="none" stroke="rgb(255, 69, 0)" stroke-opacity="1.0" stroke-linecap="round" stroke-linejoin="round"/>
    <path d="M 12.013318061828613 406.6822814941406 C -1.837467074394226 404.6581115722656 -5.820962429046631 351.77008056640625 2.194122791290283 402.64996337890625 C -12.134315490722656 429.6571350097656 23.006330490112305 418.0607604980469 25.725921630859375 448.4783020019531" stroke-width="3.7084829807281494" fill="none" stroke="rgb(0, 0, 0)" stroke-opacity="1.0" stroke-linecap="round" stroke-linejoin="round"/>
    <path d="M 17.135135650634766 306.2264099121094 C -22.70278549194336 282.1655578613281 106.72868347167969 237.43771362304688 26.260841369628906 340.9986267089844 C 49.78630447387695 209.68959045410156 1.8141566514968872 255.95411682128906 40.79876708984375 248.34283447265625" stroke-width="22.218050003051758" fill="none" stroke="rgb(255, 11, 0)" stroke-opacity="0.40495223" stroke-linecap="round" stroke-linejoin="round"/>
    <path d="M 433.9831848144531 479.5439758300781 C 416.4072570800781 473.2601318359375 418.4256286621094 481.0299377441406 412.28326416015625 479.98565673828125 C 460.8453369140625 475.5617370605469 465.3263854980469 474.0778503417969 458.9034729003906 461.41986083984375 C 447.7779541015625 456.10296630859375 462.16571044921875 464.0300598144531 481.603271484375 488.5829772949219" stroke-width="2.2147908210754395" fill="none" stroke="rgb(255, 255, 255)" stroke-opacity="0.0" stroke-linecap="round" stroke-linejoin="round"/>
    <path d="M 99.83937072753906 440.31097412109375 C 60.74933624267578 406.7697448730469 78.61865234375 422.5887145996094 70.85126495361328 455.81884765625 C 131.54112243652344 485.5471496582031 129.5291290283203 411.5765075683594 77.27099609375 411.688232421875 C 53.46799850463867 384.96136474609375 215.2991485595703 372.3977966308594 124.16874694824219 438.948974609375" stroke-width="3.888202428817749" fill="none" stroke="rgb(78, 0, 0)" stroke-opacity="1.0" stroke-linecap="round" stroke-linejoin="round"/>
    <path d="M -1.2133387327194214 300.513916015625 C 53.688568115234375 370.1102294921875 84.80326843261719 273.0687255859375 52.587459564208984 261.2475280761719 C 27.400049209594727 258.76708984375 10.030399322509766 290.2956237792969 13.373638153076172 196.19532775878906 C 107.09184265136719 198.985107421875 92.3848648071289 161.02650451660156 60.08633804321289 150.4194793701172" stroke-width="3.333216428756714" fill="none" stroke="rgb(16, 0, 0)" stroke-opacity="1.0" stroke-linecap="round" stroke-linejoin="round"/>
    <path d="M -17.622699737548828 97.45475769042969 C 93.84424591064453 90.38211822509766 68.30615234375 78.00955963134766 31.901996612548828 50.862701416015625 C -22.883560180664062 17.83753204345703 -46.29295349121094 38.50144577026367 -26.806154251098633 30.146400451660156" stroke-width="3.7654271125793457" fill="none" stroke="rgb(0, 0, 0)" stroke-opacity="1.0" stroke-linecap="round" stroke-linejoin="round"/>
    <path d="M 373.5038757324219 456.87933349609375 C 348.49591064453125 434.623779296875 387.88232421875 448.8137512207031 377.24615478515625 501.1246337890625 C 329.8606872558594 536.7810668945312 379.02923583984375 597.79638671875 391.24261474609375 659.8321533203125 C 397.4918518066406 528.4525146484375 404.99981689453125 522.6578979492188 415.6394348144531 538.6470336914062" stroke-width="6.535799980163574" fill="none" stroke="rgb(255, 227, 255)" stroke-opacity="0.6573083" stroke-linecap="round" stroke-linejoin="round"/>
    <path d="M 54.708866119384766 483.3910217285156 C 63.019222259521484 514.6954956054688 63.88897705078125 482.6412353515625 60.71958541870117 465.0035400390625" stroke-width="2.000701904296875" fill="none" stroke="rgb(147, 255, 81)" stroke-opacity="0.0" stroke-linecap="round" stroke-linejoin="round"/>
    <path d="M 208.630615234375 117.2376480102539 C 230.76792907714844 161.89328002929688 214.059814453125 120.28209686279297 199.9357452392578 152.0315704345703 C 149.8159637451172 146.4539794921875 161.0210723876953 136.5078125 150.1621551513672 93.9326171875 C 113.68795013427734 115.71179962158203 100.27628326416016 147.3378143310547 117.89714813232422 135.58839416503906" stroke-width="2.0" fill="none" stroke="rgb(255, 255, 255)" stroke-opacity="0.0" stroke-linecap="round" stroke-linejoin="round"/>
    <path d="M 9.719477653503418 195.6700439453125 C 16.74698829650879 241.07273864746094 65.1141357421875 180.12188720703125 66.13331604003906 220.0243682861328" stroke-width="3.6028506755828857" fill="none" stroke="rgb(0, 0, 0)" stroke-opacity="1.0" stroke-linecap="round" stroke-linejoin="round"/>
    <path d="M 127.6579360961914 61.12178039550781 C 135.74546813964844 78.4690933227539 164.2335662841797 68.17475128173828 148.048583984375 42.12131118774414 C 119.33644104003906 10.074554443359375 114.76895904541016 67.72653198242188 146.76148986816406 45.51768112182617" stroke-width="3.7967872619628906" fill="none" stroke="rgb(70, 0, 0)" stroke-opacity="1.0" stroke-linecap="round" stroke-linejoin="round"/>
    <path d="M 486.7207336425781 493.2029724121094 C 479.6723937988281 481.2383728027344 505.5478210449219 489.6512145996094 520.1716918945312 450.8608093261719 C 484.6129150390625 426.20050048828125 460.017333984375 452.4727783203125 468.98565673828125 476.8800964355469" stroke-width="2.0" fill="none" stroke="rgb(255, 255, 252)" stroke-opacity="0.0" stroke-linecap="round" stroke-linejoin="round"/>
    <path d="M 330.2563781738281 121.21853637695312 C 329.33050537109375 184.74424743652344 332.4693603515625 170.21107482910156 332.1915283203125 198.8461151123047 C 333.56622314453125 226.63729858398438 389.6829833984375 201.06333923339844 365.1802673339844 182.32955932617188" stroke-width="11.192625999450684" fill="none" stroke="rgb(160, 33, 0)" stroke-opacity="0.24767819" stroke-linecap="round" stroke-linejoin="round"/>
    <path d="M 427.0147399902344 374.952880859375 C 393.9088439941406 341.7071228027344 400.7457580566406 412.68536376953125 399.3382873535156 305.82513427734375" stroke-width="9.962989807128906" fill="none" stroke="rgb(183, 112, 134)" stroke-opacity="0.64015657" stroke-linecap="round" stroke-linejoin="round"/>
    <path d="M 414.267333984375 389.0609130859375 C 402.712646484375 420.7511901855469 379.8172912597656 373.481689453125 399.7818908691406 378.3981628417969 C 453.9787902832031 422.2083740234375 413.2507019042969 344.3784484863281 397.5170593261719 371.55401611328125" stroke-width="3.846606492996216" fill="none" stroke="rgb(0, 0, 0)" stroke-opacity="1.0" stroke-linecap="round" stroke-linejoin="round"/>
    <path d="M 414.2569580078125 475.14599609375 C 387.1785888671875 420.20208740234375 428.7718200683594 489.5943603515625 422.3626403808594 504.42218017578125 C 397.06988525390625 468.19805908203125 426.8511047363281 466.37762451171875 409.2942199707031 537.1881103515625 C 403.9176940917969 408.8573913574219 399.3298034667969 445.9450988769531 423.3620910644531 387.7000732421875" stroke-width="12.458956718444824" fill="none" stroke="rgb(0, 255, 205)" stroke-opacity="1.0" stroke-linecap="round" stroke-linejoin="round"/>
    <path d="M 418.94708251953125 361.8157043457031 C 452.6875305175781 370.87420654296875 412.8165588378906 386.3483581542969 427.451416015625 380.1293029785156 C 419.0342102050781 406.71148681640625 433.671875 377.655029296875 435.4025573730469 367.0023193359375" stroke-width="5.835484027862549" fill="none" stroke="rgb(85, 244, 70)" stroke-opacity="0.506083" stroke-linecap="round" stroke-linejoin="round"/>
    <path d="M 426.5152282714844 74.10709381103516 C 416.97381591796875 85.13917541503906 443.0673522949219 69.93418884277344 436.9359130859375 68.01783752441406 C 409.2981872558594 55.59746170043945 442.660888671875 75.09211730957031 443.08831787109375 61.20679473876953 C 420.3049011230469 69.0782699584961 410.64697265625 67.13603973388672 404.6778869628906 91.02879333496094" stroke-width="2.0" fill="none" stroke="rgb(122, 219, 102)" stroke-opacity="0.0" stroke-linecap="round" stroke-linejoin="round"/>
    <path d="M 92.4703369140625 161.7978057861328 C 90.22052001953125 162.7725067138672 89.29471588134766 182.87783813476562 71.13860321044922 196.1356964111328" stroke-width="5.361503601074219" fill="none" stroke="rgb(255, 150, 0)" stroke-opacity="0.88349193" stroke-linecap="round" stroke-linejoin="round"/>
    <path d="M 44.66999435424805 191.33087158203125 C 66.9397964477539 177.08135986328125 55.79641342163086 162.3525848388672 26.704341888427734 161.36563110351562 C -0.8020898103713989 164.6753387451172 24.272262573242188 177.2116241455078 -4.112043857574463 175.64271545410156" stroke-width="2.0431971549987793" fill="none" stroke="rgb(255, 250, 255)" stroke-opacity="0.363925" stroke-linecap="round" stroke-linejoin="round"/>
    <path d="M 192.10084533691406 339.36248779296875 C 209.75277709960938 381.3319396972656 237.89620971679688 272.9727783203125 187.19725036621094 342.2417907714844 C 220.91893005371094 342.68157958984375 184.88766479492188 401.4692687988281 206.13978576660156 350.64617919921875 C 240.72988891601562 290.1856384277344 170.23231506347656 321.6248474121094 196.524169921875 262.0444641113281" stroke-width="3.307602882385254" fill="none" stroke="rgb(174, 0, 0)" stroke-opacity="1.0" stroke-linecap="round" stroke-linejoin="round"/>
    <path d="M 505.9741516113281 190.9437255859375 C 404.4110107421875 238.12637329101562 446.8940124511719 190.89427185058594 458.7762145996094 278.7026062011719 C 471.439208984375 193.28834533691406 380.4547119140625 225.61831665039062 367.50341796875 260.6653137207031" stroke-width="9.67620849609375" fill="none" stroke="rgb(233, 27, 0)" stroke-opacity="0.11609521" stroke-linecap="round" stroke-linejoin="round"/>
    <path d="M 55.879398345947266 234.32794189453125 C 11.930869102478027 262.7206115722656 -23.446720123291016 233.68601989746094 64.23075866699219 219.65623474121094" stroke-width="3.7912750244140625" fill="none" stroke="rgb(38, 0, 0)" stroke-opacity="1.0" stroke-linecap="round" stroke-linejoin="round"/>
    <path d="M 257.08447265625 419.3365783691406 C 348.8609924316406 489.7475280761719 300.56805419921875 485.0113830566406 299.4089050292969 504.8205871582031 C 318.71136474609375 469.1500549316406 249.01133728027344 466.5718994140625 313.996826171875 481.16400146484375 C 329.138671875 456.9942626953125 320.87225341796875 386.9866027832031 255.5782470703125 418.5301513671875" stroke-width="9.78215217590332" fill="none" stroke="rgb(238, 53, 0)" stroke-opacity="0.43319654" stroke-linecap="round" stroke-linejoin="round"/>
    <path d="M 229.69436645507812 128.57574462890625 C 213.24742126464844 78.03360748291016 278.5212097167969 128.89669799804688 257.95623779296875 86.15119934082031" stroke-width="6.503593444824219" fill="none" stroke="rgb(255, 210, 220)" stroke-opacity="0.5353894" stroke-linecap="round" stroke-linejoin="round"/>
    <path d="M 105.56868743896484 335.4757080078125 C 20.608304977416992 298.51007080078125 99.27412414550781 304.63470458984375 114.6059341430664 306.6257019042969 C 127.8292007446289 359.9836120605469 79.83419036865234 299.8518981933594 31.838319778442383 354.10260009765625" stroke-width="12.141494750976562" fill="none" stroke="rgb(70, 255, 165)" stroke-opacity="0.25657752" stroke-linecap="round" stroke-linejoin="round"/>
    <path d="M 285.8554992675781 85.30467224121094 C 304.2880859375 10.713736534118652 291.6764221191406 2.711085081100464 253.47488403320312 4.383060455322266" stroke-width="12.978524208068848" fill="none" stroke="rgb(255, 200, 181)" stroke-opacity="0.9732566" stroke-linecap="round" stroke-linejoin="round"/>
    <path d="M 357.9955139160156 135.62998962402344 C 401.8117370605469 216.92552185058594 415.796630859375 185.3385772705078 375.7115783691406 112.92862701416016 C 369.4057312011719 105.212890625 409.1766357421875 95.34210205078125 397.21099853515625 95.99286651611328" stroke-width="4.604125022888184" fill="none" stroke="rgb(56, 0, 0)" stroke-opacity="0.15906927" stroke-linecap="round" stroke-linejoin="round"/>
    <path d="M 381.83648681640625 72.47248077392578 C 354.0595397949219 65.79625701904297 309.3851623535156 80.67676544189453 294.2299499511719 16.7060489654541 C 349.2355651855469 23.26164436340332 329.7095947265625 4.87182092666626 341.9832458496094 19.43118667602539 C 330.1214294433594 7.985435485839844 330.6881408691406 5.325036525726318 369.1067810058594 10.999045372009277" stroke-width="2.0" fill="none" stroke="rgb(255, 255, 236)" stroke-opacity="0.0" stroke-linecap="round" stroke-linejoin="round"/>
    <path d="M 383.38555908203125 302.843505859375 C 376.94989013671875 315.98260498046875 378.2138366699219 242.1387939453125 385.4664306640625 231.0795440673828 C 320.8359375 211.2939910888672 346.78717041015625 292.00396728515625 337.19061279296875 248.2468719482422 C 314.2172546386719 239.47117614746094 328.426513671875 220.5938262939453 335.94158935546875 227.99874877929688" stroke-width="3.672236919403076" fill="none" stroke="rgb(48, 0, 0)" stroke-opacity="1.0" stroke-linecap="round" stroke-linejoin="round"/>
    <path d="M 11.024173736572266 506.5172119140625 C -13.114889144897461 494.8795166015625 -28.399232864379883 503.04632568359375 -17.793745040893555 495.9832458496094" stroke-width="2.7529006004333496" fill="none" stroke="rgb(0, 53, 0)" stroke-opacity="0.5639033" stroke-linecap="round" stroke-linejoin="round"/>
    <path d="M 240.4001922607422 191.24774169921875 C 307.72442626953125 164.70310974121094 256.8717346191406 209.43524169921875 233.09982299804688 214.81643676757812 C 282.4127502441406 208.70545959472656 258.6932067871094 216.02593994140625 209.74771118164062 222.63973999023438" stroke-width="2.0" fill="none" stroke="rgb(255, 255, 181)" stroke-opacity="0.048330728" stroke-linecap="round" stroke-linejoin="round"/>
    <path d="M 276.500244140625 149.2361602783203 C 252.3671875 178.43243408203125 243.17779541015625 147.89334106445312 255.7548065185547 170.35174560546875 C 237.838623046875 137.9778289794922 235.38446044921875 150.98776245117188 237.23805236816406 131.4461669921875" stroke-width="3.6127936840057373" fill="none" stroke="rgb(69, 0, 0)" stroke-opacity="1.0" stroke-linecap="round" stroke-linejoin="round"/>
    <path d="M 307.6118469238281 295.6784362792969 C 356.4450378417969 240.1597137451172 407.9953308105469 228.42306518554688 410.2818603515625 300.7502746582031" stroke-width="10.176812171936035" fill="none" stroke="rgb(215, 53, 0)" stroke-opacity="0.26929536" stroke-linecap="round" stroke-linejoin="round"/>
    <path d="M 122.08659362792969 389.98358154296875 C 152.8570556640625 406.0401306152344 105.47518920898438 411.7423095703125 138.9959716796875 352.7740173339844 C 124.24642944335938 413.8589782714844 50.865928649902344 387.6156921386719 161.04098510742188 266.9074401855469 C 56.718265533447266 358.4348449707031 153.1626739501953 377.7694396972656 143.7594757080078 331.7501525878906" stroke-width="13.518996238708496" fill="none" stroke="rgb(0, 255, 255)" stroke-opacity="1.0" stroke-linecap="round" stroke-linejoin="round"/>
    <path d="M 11.786205291748047 235.9413604736328 C 75.05522155761719 206.8739776611328 48.0031852722168 239.17892456054688 48.82136154174805 209.04295349121094" stroke-width="2.4803926944732666" fill="none" stroke="rgb(22, 0, 0)" stroke-opacity="1.0" stroke-linecap="round" stroke-linejoin="round"/>
    <path d="M 345.0932922363281 309.736572265625 C 390.03814697265625 301.3825378417969 334.3227844238281 264.18109130859375 335.880615234375 284.1711120605469 C 387.509033203125 290.222900390625 342.24981689453125 334.1511535644531 336.94049072265625 284.66107177734375" stroke-width="3.6905672550201416" fill="none" stroke="rgb(40, 0, 0)" stroke-opacity="1.0" stroke-linecap="round" stroke-linejoin="round"/>
    <path d="M 110.65491485595703 43.552734375 C 88.84720611572266 48.909244537353516 48.331764221191406 56.57727813720703 48.22178649902344 86.45745086669922 C 70.24246978759766 78.39659881591797 112.63695526123047 62.00941848754883 78.15802001953125 73.27584838867188" stroke-width="2.0" fill="none" stroke="rgb(255, 250, 255)" stroke-opacity="0.0" stroke-linecap="round" stroke-linejoin="round"/>
    <path d="M 385.9546203613281 306.02410888671875 C 412.5638122558594 296.4384765625 399.3961486816406 283.3801574707031 404.6653137207031 340.62054443359375 C 474.3556213378906 309.57977294921875 464.7922668457031 315.3812561035156 470.2935485839844 338.521728515625 C 502.71624755859375 391.6103820800781 519.3700561523438 338.07177734375 466.2080383300781 310.119873046875" stroke-width="3.6790273189544678" fill="none" stroke="rgb(24, 0, 0)" stroke-opacity="1.0" stroke-linecap="round" stroke-linejoin="round"/>
    <path d="M 408.2004089355469 494.7359924316406 C 377.9508361816406 502.38067626953125 355.1845397949219 508.6194152832031 412.2232666015625 507.69384765625 C 458.0195617675781 521.9286499023438 440.05126953125 491.8245544433594 453.3443298339844 476.1954650878906 C 464.0339050292969 457.0135803222656 464.0889892578125 436.7228088378906 472.48699951171875 461.6809997558594" stroke-width="2.0" fill="none" stroke="rgb(255, 255, 255)" stroke-opacity="0.0" stroke-linecap="round" stroke-linejoin="round"/>
    <path d="M 192.16476440429688 569.4577026367188 C 166.08810424804688 487.1871337890625 179.6998748779297 405.91912841796875 124.56820678710938 435.56854248046875 C 185.0631866455078 481.9992370605469 136.66566467285156 443.7304382324219 140.20718383789062 592.4558715820312" stroke-width="3.888376235961914" fill="none" stroke="rgb(108, 20, 0)" stroke-opacity="1.0" stroke-linecap="round" stroke-linejoin="round"/>
    <path d="M 401.46209716796875 441.59130859375 C 424.1324768066406 428.67950439453125 437.3379821777344 438.6778869628906 439.56640625 418.2911682128906" stroke-width="2.020744800567627" fill="none" stroke="rgb(255, 255, 119)" stroke-opacity="0.0" stroke-linecap="round" stroke-linejoin="round"/>
  </g>
</svg>
