<?xml version="1.0" ?>
<svg xmlns="http://www.w3.org/2000/svg" version="1.1" width="500" height="500">
  <defs/>
  <g>
    <path d="M 452.93560791015625 139.35365295410156 C 458.7760314941406 102.03157806396484 431.2442321777344 133.61941528320312 454.3955993652344 158.99990844726562 C 461.31903076171875 53.525543212890625 484.4875793457031 99.03667449951172 499.5248107910156 203.0751953125" stroke-width="3.090442419052124" fill="none" stroke="rgb(37, 34, 0)" stroke-opacity="0.97397095" stroke-linecap="round" stroke-linejoin="round"/>
    <path d="M 133.5154266357422 330.71490478515625 C 143.1630401611328 401.5102233886719 163.4294891357422 370.0416259765625 170.46592712402344 365.1381530761719" stroke-width="2.0372490882873535" fill="none" stroke="rgb(255, 255, 255)" stroke-opacity="0.0" stroke-linecap="round" stroke-linejoin="round"/>
    <path d="M 465.1326599121094 126.37958526611328 C 419.982666015625 154.31259155273438 422.525146484375 97.11030578613281 448.5323181152344 146.8909912109375" stroke-width="9.486403465270996" fill="none" stroke="rgb(255, 0, 255)" stroke-opacity="0.63078105" stroke-linecap="round" stroke-linejoin="round"/>
    <path d="M 96.28350830078125 474.3052673339844 C 125.23844146728516 528.9188842773438 46.53349304199219 463.7546691894531 71.15510559082031 472.25030517578125 C 85.67550659179688 479.2919006347656 147.1105194091797 540.1856079101562 138.01039123535156 500.0652770996094 C 178.44761657714844 492.9147033691406 150.0506134033203 551.6494140625 112.68286895751953 573.7360229492188" stroke-width="4.311166286468506" fill="none" stroke="rgb(0, 14, 24)" stroke-opacity="0.97637796" stroke-linecap="round" stroke-linejoin="round"/>
    <path d="M 203.80259704589844 122.3412857055664 C 177.96258544921875 170.6966552734375 91.95735168457031 206.8691864013672 120.0186767578125 235.25164794921875 C 208.47691345214844 90.56278991699219 245.44558715820312 147.62179565429688 150.30482482910156 182.7073211669922 C 100.3336181640625 191.751708984375 128.79354858398438 345.69903564453125 161.1814422607422 329.05010986328125" stroke-width="9.783099174499512" fill="none" stroke="rgb(255, 255, 0)" stroke-opacity="1.0" stroke-linecap="round" stroke-linejoin="round"/>
    <path d="M 98.15238952636719 -0.5717941522598267 C 8.209248542785645 -37.24461364746094 6.967010974884033 -56.27707290649414 -3.7332005500793457 5.50609827041626 C 19.698213577270508 -33.714141845703125 57.09025573730469 32.454280853271484 49.181068420410156 -21.532995223999023" stroke-width="10.472588539123535" fill="none" stroke="rgb(13, 25, 19)" stroke-opacity="0.92300355" stroke-linecap="round" stroke-linejoin="round"/>
    <path d="M 219.81053161621094 20.406761169433594 C 122.10245513916016 78.65486907958984 127.27259826660156 108.1159439086914 142.220458984375 85.05327606201172 C 132.1402130126953 100.24046325683594 110.937744140625 83.35243225097656 175.43399047851562 57.968421936035156 C 147.2091064453125 67.5094223022461 187.5513916015625 63.31243133544922 197.0873565673828 43.006202697753906" stroke-width="12.729595184326172" fill="none" stroke="rgb(255, 255, 0)" stroke-opacity="1.0" stroke-linecap="round" stroke-linejoin="round"/>
    <path d="M 175.42984008789062 258.7723083496094 C 243.16525268554688 133.07322692871094 184.85118103027344 226.48468017578125 223.1385040283203 248.68243408203125 C 357.0563049316406 315.0638732910156 233.15184020996094 269.29962158203125 307.04827880859375 225.16661071777344 C 273.3407287597656 264.208251953125 336.3588562011719 265.9376525878906 313.720458984375 291.46990966796875" stroke-width="14.970611572265625" fill="none" stroke="rgb(218, 9, 255)" stroke-opacity="0.49008867" stroke-linecap="round" stroke-linejoin="round"/>
    <path d="M 192.8163604736328 465.93487548828125 C 188.15194702148438 502.2239685058594 251.05235290527344 487.1434020996094 244.48379516601562 498.1575012207031 C 169.27601623535156 493.65777587890625 187.7734832763672 488.7882080078125 190.89862060546875 499.85430908203125 C 119.40118408203125 478.07666015625 189.98831176757812 476.1033935546875 190.75758361816406 518.293701171875" stroke-width="3.9058408737182617" fill="none" stroke="rgb(5, 5, 5)" stroke-opacity="0.8058633" stroke-linecap="round" stroke-linejoin="round"/>
    <path d="M 425.5361022949219 38.78066635131836 C 453.8826599121094 72.51512908935547 386.8948059082031 55.54721450805664 399.4284362792969 85.44689178466797 C 453.6412658691406 66.68046569824219 452.2113037109375 1.7623085975646973 424.03753662109375 50.43840408325195 C 486.5918273925781 62.31825256347656 392.5906677246094 -2.8328685760498047 499.0133361816406 16.642515182495117" stroke-width="11.354915618896484" fill="none" stroke="rgb(6, 8, 99)" stroke-opacity="0.4800441" stroke-linecap="round" stroke-linejoin="round"/>
    <path d="M 194.9842987060547 1.7116668224334717 C 125.35062408447266 48.796932220458984 173.37855529785156 65.87483215332031 142.04188537597656 63.89516830444336 C 113.25494384765625 98.35122680664062 140.81419372558594 112.22535705566406 135.8425750732422 104.55721282958984" stroke-width="12.616071701049805" fill="none" stroke="rgb(255, 0, 199)" stroke-opacity="1.0" stroke-linecap="round" stroke-linejoin="round"/>
    <path d="M 333.8630065917969 145.532470703125 C 348.2257385253906 122.82955932617188 340.60650634765625 168.1746368408203 288.2786560058594 111.31365203857422" stroke-width="7.941440105438232" fill="none" stroke="rgb(244, 0, 252)" stroke-opacity="1.0" stroke-linecap="round" stroke-linejoin="round"/>
    <path d="M 108.53138732910156 148.72311401367188 C 137.4888458251953 89.93219757080078 84.0363998413086 178.67141723632812 48.729408264160156 180.54090881347656" stroke-width="11.33338451385498" fill="none" stroke="rgb(255, 255, 0)" stroke-opacity="1.0" stroke-linecap="round" stroke-linejoin="round"/>
    <path d="M 84.43920135498047 322.3143310546875 C 143.6460723876953 429.17840576171875 93.3162612915039 319.3060302734375 96.25322723388672 312.6159362792969" stroke-width="4.647173881530762" fill="none" stroke="rgb(0, 9, 20)" stroke-opacity="0.99242246" stroke-linecap="round" stroke-linejoin="round"/>
    <path d="M 377.048095703125 324.1302185058594 C 367.6523742675781 245.8543243408203 399.36187744140625 309.84979248046875 368.36962890625 280.2015380859375 C 395.70501708984375 301.3047790527344 377.9785461425781 334.561767578125 408.47137451171875 309.9561767578125" stroke-width="4.542026519775391" fill="none" stroke="rgb(166, 0, 186)" stroke-opacity="1.0" stroke-linecap="round" stroke-linejoin="round"/>
    <path d="M 182.7222900390625 226.13958740234375 C 152.770751953125 281.0240478515625 181.20761108398438 290.6866760253906 217.78793334960938 200.3549041748047 C 126.34188079833984 346.5205078125 182.57127380371094 360.4476013183594 133.28857421875 204.60452270507812" stroke-width="4.124383926391602" fill="none" stroke="rgb(39, 0, 1)" stroke-opacity="0.32369158" stroke-linecap="round" stroke-linejoin="round"/>
    <path d="M 348.4806213378906 506.66455078125 C 378.4136962890625 459.1968688964844 415.49853515625 411.90802001953125 438.8666076660156 381.5566101074219" stroke-width="25.078235626220703" fill="none" stroke="rgb(255, 0, 255)" stroke-opacity="1.0" stroke-linecap="round" stroke-linejoin="round"/>
    <path d="M 482.507080078125 309.78558349609375 C 475.7223205566406 327.9159240722656 467.2388916015625 338.7897644042969 467.7318420410156 366.575927734375 C 481.903564453125 365.1396484375 456.55108642578125 345.6785888671875 477.82598876953125 393.7380065917969" stroke-width="9.966791152954102" fill="none" stroke="rgb(255, 0, 42)" stroke-opacity="1.0" stroke-linecap="round" stroke-linejoin="round"/>
    <path d="M 157.67291259765625 -12.71518611907959 C 113.70043182373047 22.713247299194336 54.13985824584961 45.33304977416992 219.16693115234375 -3.7971339225769043" stroke-width="11.269966125488281" fill="none" stroke="rgb(147, 103, 157)" stroke-opacity="0.7084767" stroke-linecap="round" stroke-linejoin="round"/>
    <path d="M 129.0961151123047 300.1923522949219 C 101.12200164794922 175.71836853027344 152.52536010742188 192.96031188964844 132.43946838378906 193.342529296875 C 112.97997283935547 135.02847290039062 72.60714721679688 213.15777587890625 97.82271575927734 277.2114562988281" stroke-width="3.1287529468536377" fill="none" stroke="rgb(87, 9, 105)" stroke-opacity="0.53414434" stroke-linecap="round" stroke-linejoin="round"/>
    <path d="M 205.0384063720703 211.22657775878906 C 185.8047332763672 280.7630615234375 197.47512817382812 182.02481079101562 173.64120483398438 270.2273254394531 C 241.24647521972656 318.0473327636719 157.20057678222656 230.65557861328125 186.62387084960938 241.23800659179688 C 202.39370727539062 262.64306640625 202.82901000976562 259.0281677246094 195.03025817871094 220.17279052734375" stroke-width="5.144061088562012" fill="none" stroke="rgb(232, 0, 245)" stroke-opacity="1.0" stroke-linecap="round" stroke-linejoin="round"/>
    <path d="M 69.43150329589844 486.8634033203125 C 18.560091018676758 486.7174987792969 -20.862720489501953 512.00634765625 22.977157592773438 520.2584838867188 C 13.226290702819824 515.5487670898438 24.230863571166992 525.689453125 47.70857238769531 527.2853393554688" stroke-width="13.48422908782959" fill="none" stroke="rgb(36, 0, 74)" stroke-opacity="0.7098026" stroke-linecap="round" stroke-linejoin="round"/>
    <path d="M 371.35760498046875 312.2783203125 C 355.1994323730469 281.49432373046875 377.5243225097656 390.1324462890625 374.79473876953125 335.184326171875 C 456.61065673828125 386.6981201171875 493.3623962402344 260.6514587402344 440.05340576171875 337.5224304199219" stroke-width="8.55466365814209" fill="none" stroke="rgb(0, 35, 84)" stroke-opacity="0.5193342" stroke-linecap="round" stroke-linejoin="round"/>
    <path d="M 93.22561645507812 132.5250701904297 C 35.67349624633789 -26.188547134399414 75.11837768554688 27.16998863220215 115.45204162597656 29.06710433959961 C 144.49612426757812 139.46871948242188 129.79498291015625 56.6238899230957 144.1143035888672 95.93390655517578 C 111.82600402832031 116.276611328125 200.0692138671875 65.19806671142578 188.58290100097656 29.936399459838867" stroke-width="3.0946240425109863" fill="none" stroke="rgb(56, 0, 0)" stroke-opacity="0.43633747" stroke-linecap="round" stroke-linejoin="round"/>
    <path d="M 340.0740966796875 63.137062072753906 C 302.4042053222656 143.7864227294922 234.9001922607422 198.03005981445312 303.97906494140625 70.76637268066406 C 231.87429809570312 122.02771759033203 374.6021728515625 80.55189514160156 285.7768249511719 129.8105010986328" stroke-width="5.646874904632568" fill="none" stroke="rgb(123, 0, 155)" stroke-opacity="0.2791994" stroke-linecap="round" stroke-linejoin="round"/>
    <path d="M 478.7416076660156 506.2185974121094 C 472.3499450683594 528.4424438476562 481.9492492675781 543.5673217773438 493.7666015625 555.3223266601562" stroke-width="2.0" fill="none" stroke="rgb(205, 208, 109)" stroke-opacity="0.20650128" stroke-linecap="round" stroke-linejoin="round"/>
    <path d="M 153.86947631835938 445.8692321777344 C 146.30752563476562 363.2192077636719 108.68350219726562 414.0636291503906 138.38978576660156 331.3877258300781" stroke-width="3.3947808742523193" fill="none" stroke="rgb(11, 22, 1)" stroke-opacity="0.782053" stroke-linecap="round" stroke-linejoin="round"/>
    <path d="M 487.8507995605469 176.03286743164062 C 449.22955322265625 126.01026153564453 495.9956359863281 224.8123016357422 486.1528015136719 219.3585968017578 C 514.6138916015625 276.1009826660156 414.20404052734375 231.6091766357422 460.4362487792969 210.69691467285156 C 494.0182189941406 237.29803466796875 430.8147888183594 272.9303894042969 450.7720642089844 209.84481811523438" stroke-width="3.907123327255249" fill="none" stroke="rgb(11, 5, 38)" stroke-opacity="0.56284916" stroke-linecap="round" stroke-linejoin="round"/>
    <path d="M 165.90530395507812 142.80764770507812 C 207.05532836914062 36.3772087097168 177.70729064941406 64.45974731445312 155.1935577392578 86.63908386230469 C 205.82211303710938 56.53353500366211 144.2514190673828 129.24281311035156 187.1295166015625 196.03085327148438" stroke-width="5.856058597564697" fill="none" stroke="rgb(2, 0, 6)" stroke-opacity="0.603855" stroke-linecap="round" stroke-linejoin="round"/>
    <path d="M 170.24148559570312 307.9182434082031 C 81.69338989257812 369.9619445800781 113.5107421875 369.8023681640625 195.10328674316406 288.20648193359375 C 116.19501495361328 393.96148681640625 40.367835998535156 389.8094482421875 80.46825408935547 281.3935852050781" stroke-width="6.286137104034424" fill="none" stroke="rgb(255, 174, 0)" stroke-opacity="1.0" stroke-linecap="round" stroke-linejoin="round"/>
    <path d="M 497.1843566894531 46.04983901977539 C 493.630126953125 24.26563835144043 439.0561218261719 66.75010681152344 463.57415771484375 77.18426513671875 C 428.4803466796875 120.13790893554688 403.8655700683594 19.2757568359375 395.9507141113281 143.74307250976562 C 425.6011657714844 173.4737091064453 362.44903564453125 153.85711669921875 402.2808837890625 69.8909912109375" stroke-width="5.552946090698242" fill="none" stroke="rgb(0, 1, 0)" stroke-opacity="0.49685022" stroke-linecap="round" stroke-linejoin="round"/>
    <path d="M 383.4390563964844 174.3404998779297 C 340.6047668457031 136.7589569091797 443.5499572753906 25.169567108154297 365.0067138671875 131.48728942871094 C 351.77471923828125 288.3533935546875 357.5083312988281 134.6596221923828 355.1184997558594 143.4856414794922 C 337.50390625 83.86038208007812 244.05282592773438 100.2298355102539 304.75128173828125 22.369365692138672" stroke-width="4.384238243103027" fill="none" stroke="rgb(179, 150, 192)" stroke-opacity="1.0" stroke-linecap="round" stroke-linejoin="round"/>
    <path d="M 191.13858032226562 305.5001525878906 C 132.10519409179688 314.8780822753906 118.70001983642578 336.41595458984375 99.14114379882812 373.3553161621094 C 130.97642517089844 373.2404479980469 100.10184478759766 328.8332214355469 115.79023742675781 361.6136474609375" stroke-width="9.900285720825195" fill="none" stroke="rgb(255, 244, 0)" stroke-opacity="1.0" stroke-linecap="round" stroke-linejoin="round"/>
    <path d="M 36.018592834472656 243.56781005859375 C 68.77678680419922 295.9866943359375 2.9844515323638916 297.6805114746094 12.244089126586914 235.9964141845703" stroke-width="4.123885631561279" fill="none" stroke="rgb(22, 3, 32)" stroke-opacity="0.9147736" stroke-linecap="round" stroke-linejoin="round"/>
    <path d="M 178.06248474121094 281.5493469238281 C 165.24343872070312 292.041015625 161.0426483154297 346.349609375 185.09738159179688 351.2352600097656" stroke-width="3.5894460678100586" fill="none" stroke="rgb(14, 0, 25)" stroke-opacity="0.8427197" stroke-linecap="round" stroke-linejoin="round"/>
    <path d="M 174.9357147216797 378.3819885253906 C 199.88685607910156 374.9798889160156 145.7125701904297 442.2138671875 182.72857666015625 421.97491455078125 C 147.10861206054688 449.92236328125 132.75633239746094 456.6108703613281 192.61318969726562 393.39422607421875" stroke-width="11.490684509277344" fill="none" stroke="rgb(255, 65, 255)" stroke-opacity="0.9768204" stroke-linecap="round" stroke-linejoin="round"/>
    <path d="M 380.9666748046875 182.61170959472656 C 390.4988708496094 173.57089233398438 333.5425720214844 171.43760681152344 409.0352478027344 87.79667663574219 C 370.23785400390625 141.20465087890625 385.5406799316406 157.7533416748047 424.2832336425781 158.3469696044922 C 350.331298828125 46.141845703125 421.987548828125 203.77879333496094 384.83349609375 106.47502899169922" stroke-width="5.259951591491699" fill="none" stroke="rgb(144, 0, 162)" stroke-opacity="1.0" stroke-linecap="round" stroke-linejoin="round"/>
    <path d="M 168.32345581054688 194.12738037109375 C 100.2799301147461 284.5305480957031 136.19984436035156 332.4947204589844 130.2830810546875 275.11273193359375 C 182.74501037597656 207.80540466308594 121.27608489990234 196.63157653808594 150.46331787109375 163.5618133544922" stroke-width="3.6717019081115723" fill="none" stroke="rgb(35, 1, 40)" stroke-opacity="0.5008165" stroke-linecap="round" stroke-linejoin="round"/>
    <path d="M 348.76898193359375 314.9965515136719 C 359.47796630859375 403.13421630859375 393.3949890136719 183.67364501953125 346.4690856933594 354.15081787109375" stroke-width="8.380905151367188" fill="none" stroke="rgb(205, 0, 255)" stroke-opacity="1.0" stroke-linecap="round" stroke-linejoin="round"/>
    <path d="M 301.65673828125 489.4385681152344 C 269.5966796875 442.4761047363281 279.707275390625 443.5888366699219 307.1884460449219 422.2559509277344 C 281.2710266113281 510.23760986328125 375.21044921875 551.8617553710938 247.26861572265625 461.9200744628906 C 324.3564758300781 476.81060791015625 397.92083740234375 649.0980834960938 331.3078308105469 455.8889465332031" stroke-width="5.4068522453308105" fill="none" stroke="rgb(29, 26, 0)" stroke-opacity="1.0" stroke-linecap="round" stroke-linejoin="round"/>
    <path d="M 303.2785949707031 262.469482421875 C 259.3912658691406 171.3833465576172 258.52996826171875 232.77134704589844 286.36181640625 243.99420166015625 C 390.42218017578125 157.46337890625 255.59121704101562 244.46878051757812 356.89599609375 275.3938293457031 C 325.1782531738281 230.132080078125 339.0578308105469 228.7371063232422 335.5357971191406 236.390869140625" stroke-width="3.435953378677368" fill="none" stroke="rgb(66, 0, 77)" stroke-opacity="0.68850046" stroke-linecap="round" stroke-linejoin="round"/>
    <path d="M 192.7696990966797 204.1830596923828 C 119.16210174560547 192.9079132080078 208.43975830078125 385.6750183105469 142.89730834960938 243.1097412109375 C 191.74977111816406 137.7105255126953 198.2775115966797 238.6802215576172 216.94712829589844 188.22850036621094 C 181.87109375 239.00987243652344 189.13043212890625 18.485593795776367 162.61318969726562 140.34698486328125" stroke-width="3.5667500495910645" fill="none" stroke="rgb(91, 0, 119)" stroke-opacity="0.8265854" stroke-linecap="round" stroke-linejoin="round"/>
    <path d="M 19.602197647094727 182.15176391601562 C 59.02273941040039 294.4521484375 39.24228286743164 179.78736877441406 27.299020767211914 242.4728546142578" stroke-width="8.24060344696045" fill="none" stroke="rgb(236, 141, 0)" stroke-opacity="1.0" stroke-linecap="round" stroke-linejoin="round"/>
    <path d="M 485.6331481933594 381.9763488769531 C 459.7444763183594 354.0904235839844 470.263671875 288.3333740234375 513.0283203125 294.741455078125 C 456.42010498046875 284.2828674316406 486.9667663574219 249.8585205078125 500.22125244140625 280.716796875" stroke-width="8.094961166381836" fill="none" stroke="rgb(255, 0, 255)" stroke-opacity="1.0" stroke-linecap="round" stroke-linejoin="round"/>
    <path d="M 520.998779296875 -5.2841925621032715 C 378.48876953125 44.06657409667969 458.6711730957031 105.43603515625 420.6658020019531 87.08843231201172 C 376.1564025878906 133.42747497558594 446.9896240234375 165.80772399902344 424.27362060546875 117.8216552734375" stroke-width="13.276233673095703" fill="none" stroke="rgb(20, 0, 29)" stroke-opacity="0.8540645" stroke-linecap="round" stroke-linejoin="round"/>
    <path d="M 381.6276550292969 8.279086112976074 C 277.52362060546875 83.41080474853516 304.98150634765625 113.55322265625 331.1219482421875 132.22023010253906" stroke-width="15.029272079467773" fill="none" stroke="rgb(255, 0, 255)" stroke-opacity="1.0" stroke-linecap="round" stroke-linejoin="round"/>
    <path d="M 418.55914306640625 151.43521118164062 C 410.183349609375 198.34136962890625 433.2832946777344 267.9269104003906 403.3067321777344 202.79701232910156" stroke-width="6.5453290939331055" fill="none" stroke="rgb(124, 0, 117)" stroke-opacity="1.0" stroke-linecap="round" stroke-linejoin="round"/>
    <path d="M 239.95213317871094 406.678466796875 C 225.8563232421875 365.49346923828125 285.941650390625 296.3927001953125 289.09979248046875 303.90081787109375 C 276.13507080078125 318.83575439453125 264.0788269042969 339.1446533203125 256.2449035644531 348.2718505859375 C 266.0274658203125 340.3970031738281 230.52780151367188 373.9896545410156 259.6192626953125 395.30499267578125" stroke-width="5.240250587463379" fill="none" stroke="rgb(255, 0, 255)" stroke-opacity="1.0" stroke-linecap="round" stroke-linejoin="round"/>
    <path d="M 65.72429656982422 241.4421844482422 C 101.83905029296875 159.25721740722656 140.90414428710938 142.2064208984375 64.83682250976562 208.43019104003906 C 141.03726196289062 161.03567504882812 172.53579711914062 100.12814331054688 76.1851577758789 209.352294921875 C 42.4537353515625 207.86282348632812 54.57771301269531 312.4010009765625 40.62400817871094 202.95655822753906" stroke-width="3.740236759185791" fill="none" stroke="rgb(17, 0, 112)" stroke-opacity="0.55753183" stroke-linecap="round" stroke-linejoin="round"/>
    <path d="M 62.853271484375 151.29940795898438 C 39.8106689453125 254.340576171875 46.660396575927734 146.43740844726562 102.41069793701172 134.68624877929688 C 20.682361602783203 168.1502227783203 46.07608413696289 191.83042907714844 37.373268127441406 221.09877014160156 C 37.73952102661133 207.36215209960938 7.35868501663208 217.71495056152344 17.40824317932129 252.90696716308594" stroke-width="11.06531810760498" fill="none" stroke="rgb(255, 206, 0)" stroke-opacity="1.0" stroke-linecap="round" stroke-linejoin="round"/>
    <path d="M 77.49785614013672 266.6657409667969 C 27.325130462646484 241.36923217773438 8.170923233032227 304.882080078125 62.917476654052734 259.1181945800781 C 24.326129913330078 260.60699462890625 92.44763946533203 225.9458770751953 64.6408920288086 253.82374572753906" stroke-width="9.021663665771484" fill="none" stroke="rgb(162, 0, 255)" stroke-opacity="0.7229068" stroke-linecap="round" stroke-linejoin="round"/>
    <path d="M 151.59518432617188 288.7546081542969 C 139.96917724609375 291.64495849609375 163.57958984375 208.75401306152344 166.21939086914062 221.64576721191406 C 154.10960388183594 277.7578125 118.00421142578125 230.2718963623047 133.0823516845703 307.0377502441406 C 164.23793029785156 182.26473999023438 221.68765258789062 193.2598876953125 170.47349548339844 211.935546875" stroke-width="7.067255973815918" fill="none" stroke="rgb(255, 0, 255)" stroke-opacity="1.0" stroke-linecap="round" stroke-linejoin="round"/>
    <path d="M 182.97964477539062 412.6714782714844 C 217.1718292236328 487.4615478515625 264.076416015625 507.482666015625 327.5763854980469 500.4332275390625 C 268.38623046875 502.41455078125 256.0820007324219 485.6534118652344 243.79324340820312 475.5559387207031 C 253.5674285888672 466.42938232421875 230.44586181640625 325.7171325683594 299.377197265625 470.65814208984375" stroke-width="4.127790451049805" fill="none" stroke="rgb(6, 0, 0)" stroke-opacity="0.78892994" stroke-linecap="round" stroke-linejoin="round"/>
    <path d="M 30.265525817871094 496.6092529296875 C 111.87513732910156 500.5229797363281 -43.43328094482422 484.8345947265625 187.39981079101562 500.9205627441406" stroke-width="12.884230613708496" fill="none" stroke="rgb(0, 0, 17)" stroke-opacity="1.0" stroke-linecap="round" stroke-linejoin="round"/>
    <path d="M 258.6796569824219 467.3577575683594 C 242.59510803222656 536.4672241210938 163.95556640625 454.6803894042969 256.56024169921875 499.55010986328125 C 164.4145050048828 493.43646240234375 300.27325439453125 506.2961730957031 177.2269287109375 497.90936279296875 C 156.4822235107422 437.0805969238281 154.30935668945312 395.0805358886719 194.08839416503906 376.88446044921875" stroke-width="5.400944232940674" fill="none" stroke="rgb(0, 0, 0)" stroke-opacity="0.92923623" stroke-linecap="round" stroke-linejoin="round"/>
    <path d="M 331.6974792480469 314.7481689453125 C 307.21539306640625 291.46954345703125 287.4222106933594 234.01182556152344 266.45538330078125 273.49591064453125 C 235.19459533691406 288.9730224609375 228.64466857910156 357.0775451660156 211.19161987304688 372.4377746582031" stroke-width="10.393747329711914" fill="none" stroke="rgb(255, 0, 246)" stroke-opacity="1.0" stroke-linecap="round" stroke-linejoin="round"/>
    <path d="M 456.2244873046875 161.99537658691406 C 449.6050720214844 37.71677017211914 466.36566162109375 209.41810607910156 490.0068054199219 134.43502807617188 C 464.89654541015625 119.36286163330078 483.0186767578125 57.46698760986328 497.2704772949219 55.8885498046875" stroke-width="8.405339241027832" fill="none" stroke="rgb(255, 0, 255)" stroke-opacity="1.0" stroke-linecap="round" stroke-linejoin="round"/>
    <path d="M 48.18225860595703 454.0879211425781 C 37.11539840698242 425.90484619140625 116.57022094726562 380.1419372558594 64.32481384277344 412.5931091308594 C 26.729095458984375 430.8280944824219 39.44247817993164 427.829345703125 37.32609558105469 438.08111572265625" stroke-width="10.51401138305664" fill="none" stroke="rgb(255, 187, 0)" stroke-opacity="1.0" stroke-linecap="round" stroke-linejoin="round"/>
    <path d="M 74.92784881591797 266.60101318359375 C 37.470787048339844 241.05142211914062 111.05543518066406 157.35079956054688 40.757808685302734 285.41278076171875 C 94.80792999267578 129.50131225585938 61.23424530029297 259.8533630371094 99.77147674560547 270.1874084472656 C 128.1189422607422 358.38623046875 158.83502197265625 383.5498046875 117.83367919921875 296.3684997558594" stroke-width="3.2438743114471436" fill="none" stroke="rgb(40, 0, 71)" stroke-opacity="0.82412267" stroke-linecap="round" stroke-linejoin="round"/>
    <path d="M 407.005126953125 47.05450439453125 C 332.0263671875 64.239501953125 487.4587097167969 -34.63166427612305 402.8963623046875 39.38359832763672" stroke-width="10.884125709533691" fill="none" stroke="rgb(255, 251, 0)" stroke-opacity="1.0" stroke-linecap="round" stroke-linejoin="round"/>
    <path d="M 15.636916160583496 415.3954772949219 C -27.315887451171875 415.9345397949219 27.78868293762207 458.45361328125 -4.446977615356445 393.1650085449219 C -3.0396673679351807 358.21405029296875 -6.146982192993164 395.6011962890625 25.85930824279785 410.7560119628906 C -12.773468017578125 393.6681823730469 -1.942691683769226 321.2037048339844 -2.357858657836914 387.7447204589844" stroke-width="8.132144927978516" fill="none" stroke="rgb(5, 0, 12)" stroke-opacity="0.93962985" stroke-linecap="round" stroke-linejoin="round"/>
    <path d="M 221.85398864746094 50.11440658569336 C 196.39541625976562 50.86907196044922 154.561767578125 200.61624145507812 166.08555603027344 106.01388549804688" stroke-width="10.289695739746094" fill="none" stroke="rgb(23, 0, 51)" stroke-opacity="0.5860554" stroke-linecap="round" stroke-linejoin="round"/>
    <path d="M 69.99320220947266 342.0353088378906 C 91.47290802001953 405.716796875 73.85861206054688 323.8215026855469 117.08328247070312 269.3721923828125 C 63.914371490478516 336.6209411621094 106.56102752685547 428.2520751953125 53.63496017456055 339.60308837890625 C 53.40094757080078 201.29541015625 68.86418151855469 325.8888244628906 79.43438720703125 279.2220764160156" stroke-width="6.752964973449707" fill="none" stroke="rgb(187, 177, 184)" stroke-opacity="0.988442" stroke-linecap="round" stroke-linejoin="round"/>
    <path d="M 383.3493347167969 62.56303024291992 C 352.444091796875 33.63302230834961 423.4610900878906 -12.579818725585938 387.59112548828125 58.75221633911133 C 413.5888977050781 51.860015869140625 427.3517150878906 -3.4681921005249023 424.5430908203125 -1.799928069114685 C 460.6766357421875 16.382484436035156 443.0246887207031 -16.75595474243164 436.17626953125 -31.637027740478516" stroke-width="5.704841136932373" fill="none" stroke="rgb(255, 175, 0)" stroke-opacity="0.6283806" stroke-linecap="round" stroke-linejoin="round"/>
    <path d="M 382.8196716308594 481.473876953125 C 340.2300720214844 426.93438720703125 372.2959899902344 422.4444274902344 371.13958740234375 402.81689453125 C 361.503173828125 457.08642578125 335.8389892578125 425.8885803222656 318.49444580078125 397.0186767578125 C 304.3113708496094 387.4784851074219 281.95599365234375 286.3797302246094 347.2877502441406 407.09014892578125" stroke-width="4.315483093261719" fill="none" stroke="rgb(33, 0, 21)" stroke-opacity="0.7769956" stroke-linecap="round" stroke-linejoin="round"/>
    <path d="M 258.79052734375 346.7764892578125 C 249.2730712890625 405.30853271484375 300.64764404296875 379.57940673828125 294.80255126953125 360.64068603515625 C 301.0365905761719 347.5920715332031 285.2547607421875 393.2344055175781 266.9118957519531 359.460205078125 C 296.01959228515625 252.2399444580078 331.1727294921875 336.60009765625 266.2633972167969 254.48004150390625" stroke-width="5.741990566253662" fill="none" stroke="rgb(255, 0, 255)" stroke-opacity="0.76025796" stroke-linecap="round" stroke-linejoin="round"/>
    <path d="M 160.46995544433594 336.0456848144531 C 117.7363510131836 255.51052856445312 148.00962829589844 242.04002380371094 130.98228454589844 300.72674560546875" stroke-width="3.174370527267456" fill="none" stroke="rgb(133, 0, 0)" stroke-opacity="1.0" stroke-linecap="round" stroke-linejoin="round"/>
    <path d="M 28.80493927001953 256.1873474121094 C 44.41001510620117 298.2996826171875 77.66338348388672 229.25303649902344 52.61579513549805 301.3468322753906" stroke-width="4.2685465812683105" fill="none" stroke="rgb(23, 0, 0)" stroke-opacity="0.8405771" stroke-linecap="round" stroke-linejoin="round"/>
    <path d="M 104.6351547241211 164.09548950195312 C 48.35641860961914 234.52505493164062 33.82560729980469 165.24801635742188 68.75647735595703 151.98715209960938 C 34.718345642089844 174.34519958496094 47.907039642333984 121.61890411376953 42.10813522338867 112.47106170654297" stroke-width="5.009715557098389" fill="none" stroke="rgb(0, 0, 111)" stroke-opacity="0.31518665" stroke-linecap="round" stroke-linejoin="round"/>
    <path d="M 207.91250610351562 416.58856201171875 C 178.8194580078125 336.4348449707031 220.389404296875 389.6598815917969 151.2537078857422 341.6994323730469 C 218.31927490234375 404.9186706542969 193.7437744140625 350.9820251464844 166.8162841796875 454.053955078125" stroke-width="3.9714229106903076" fill="none" stroke="rgb(86, 69, 84)" stroke-opacity="0.9611139" stroke-linecap="round" stroke-linejoin="round"/>
    <path d="M 181.97723388671875 292.23577880859375 C 149.39816284179688 400.3491516113281 220.35899353027344 190.0100555419922 192.74990844726562 313.2112731933594" stroke-width="6.543342590332031" fill="none" stroke="rgb(255, 255, 0)" stroke-opacity="1.0" stroke-linecap="round" stroke-linejoin="round"/>
    <path d="M 376.9674987792969 401.022705078125 C 396.8701171875 535.8736572265625 391.2616271972656 496.99072265625 335.4117126464844 483.88616943359375 C 404.4894714355469 478.706298828125 416.3406982421875 545.7164916992188 428.4087219238281 456.0023498535156 C 381.4437255859375 541.6439208984375 404.0025329589844 410.19921875 383.6695251464844 395.649169921875" stroke-width="6.67789363861084" fill="none" stroke="rgb(3, 0, 26)" stroke-opacity="0.56941515" stroke-linecap="round" stroke-linejoin="round"/>
    <path d="M 342.675537109375 256.0888977050781 C 372.2066955566406 300.5532531738281 314.1578674316406 274.6543884277344 341.1342468261719 301.26153564453125" stroke-width="3.7764105796813965" fill="none" stroke="rgb(112, 0, 0)" stroke-opacity="1.0" stroke-linecap="round" stroke-linejoin="round"/>
    <path d="M 292.5250549316406 357.1632995605469 C 285.07720947265625 367.9632263183594 278.8244323730469 340.1986083984375 256.3282165527344 346.337646484375 C 274.6456298828125 341.5872497558594 291.1959228515625 358.0626220703125 284.1953430175781 343.7336730957031" stroke-width="2.102355718612671" fill="none" stroke="rgb(255, 254, 219)" stroke-opacity="0.0" stroke-linecap="round" stroke-linejoin="round"/>
    <path d="M 246.7720947265625 347.9177551269531 C 209.81076049804688 395.52545166015625 249.2240447998047 391.3619689941406 234.6334686279297 449.3752136230469 C 302.64569091796875 289.8141174316406 292.6346130371094 418.13922119140625 303.9054870605469 360.98529052734375 C 309.8043518066406 373.3752136230469 324.8551940917969 301.03973388671875 270.3944091796875 404.15863037109375" stroke-width="5.968487739562988" fill="none" stroke="rgb(255, 242, 0)" stroke-opacity="1.0" stroke-linecap="round" stroke-linejoin="round"/>
    <path d="M 488.1374816894531 307.9869079589844 C 460.5858154296875 362.511962890625 528.989990234375 426.3062744140625 502.0516357421875 334.882080078125" stroke-width="5.949929714202881" fill="none" stroke="rgb(116, 0, 145)" stroke-opacity="1.0" stroke-linecap="round" stroke-linejoin="round"/>
    <path d="M 68.73120880126953 396.7950134277344 C 123.34149169921875 379.7462463378906 60.290836334228516 361.65582275390625 70.12699890136719 397.45001220703125 C 37.5440559387207 443.4736328125 45.88634490966797 397.78692626953125 101.68824005126953 360.6274108886719" stroke-width="9.736587524414062" fill="none" stroke="rgb(255, 255, 0)" stroke-opacity="1.0" stroke-linecap="round" stroke-linejoin="round"/>
    <path d="M 328.5809020996094 465.80487060546875 C 325.96307373046875 413.08197021484375 334.0778503417969 463.6225891113281 353.8173522949219 391.42462158203125 C 334.4967956542969 490.0270690917969 327.8162841796875 466.4460754394531 405.24298095703125 358.5003967285156 C 386.6847839355469 386.123046875 303.1478271484375 447.571044921875 317.0728759765625 476.4645690917969" stroke-width="10.608534812927246" fill="none" stroke="rgb(255, 245, 0)" stroke-opacity="1.0" stroke-linecap="round" stroke-linejoin="round"/>
    <path d="M 349.7021179199219 318.8370666503906 C 380.4881286621094 419.8816223144531 351.00830078125 406.95361328125 387.6830139160156 355.06121826171875 C 458.2147216796875 489.731201171875 382.7530212402344 398.5721435546875 352.1807556152344 293.2761535644531" stroke-width="4.260024070739746" fill="none" stroke="rgb(7, 0, 13)" stroke-opacity="0.7459439" stroke-linecap="round" stroke-linejoin="round"/>
    <path d="M 287.36126708984375 211.69869995117188 C 317.28399658203125 142.2162322998047 268.10260009765625 246.10267639160156 247.70657348632812 245.67279052734375 C 323.6358947753906 141.8356170654297 312.0819091796875 138.26885986328125 282.4908142089844 199.2051544189453 C 260.29913330078125 204.4663848876953 278.34356689453125 227.7767333984375 318.4369812011719 145.47572326660156" stroke-width="5.269555568695068" fill="none" stroke="rgb(255, 255, 0)" stroke-opacity="1.0" stroke-linecap="round" stroke-linejoin="round"/>
    <path d="M 232.21237182617188 -1.6809309720993042 C 335.9252014160156 -18.358306884765625 213.87351989746094 7.137628555297852 240.8446044921875 34.549217224121094" stroke-width="11.398719787597656" fill="none" stroke="rgb(11, 11, 40)" stroke-opacity="0.61220986" stroke-linecap="round" stroke-linejoin="round"/>
    <path d="M 477.0664978027344 271.85101318359375 C 498.1072998046875 304.301025390625 448.642822265625 240.0296173095703 414.3625793457031 263.6834716796875 C 444.8548583984375 249.4661102294922 439.5926513671875 236.19296264648438 476.04669189453125 284.8362121582031" stroke-width="5.700559616088867" fill="none" stroke="rgb(255, 0, 0)" stroke-opacity="1.0" stroke-linecap="round" stroke-linejoin="round"/>
    <path d="M 465.233154296875 284.1916198730469 C 415.8787841796875 326.8594970703125 339.3908386230469 338.7697448730469 458.2235107421875 281.1301574707031" stroke-width="12.234696388244629" fill="none" stroke="rgb(255, 255, 0)" stroke-opacity="1.0" stroke-linecap="round" stroke-linejoin="round"/>
    <path d="M 472.4251403808594 206.88888549804688 C 519.3475341796875 306.7759704589844 483.93292236328125 252.7924041748047 495.489013671875 180.2366485595703" stroke-width="14.513873100280762" fill="none" stroke="rgb(0, 22, 74)" stroke-opacity="0.4011964" stroke-linecap="round" stroke-linejoin="round"/>
    <path d="M 407.41925048828125 494.9761047363281 C 447.4552307128906 453.6039123535156 392.5426330566406 532.802490234375 498.74444580078125 499.0142822265625 C 453.5603332519531 454.5550231933594 483.53033447265625 550.2671508789062 448.9562072753906 494.8669128417969 C 430.04949951171875 476.36431884765625 449.596923828125 456.4698181152344 447.7657470703125 472.6148376464844" stroke-width="14.755330085754395" fill="none" stroke="rgb(99, 0, 103)" stroke-opacity="1.0" stroke-linecap="round" stroke-linejoin="round"/>
    <path d="M 386.7221374511719 289.14935302734375 C 354.2528381347656 251.43646240234375 384.8079528808594 243.5041046142578 417.13690185546875 196.01971435546875 C 352.6651306152344 285.27545166015625 405.85382080078125 290.3133544921875 415.01678466796875 273.667236328125 C 385.98822021484375 260.2431335449219 477.3387756347656 238.6455535888672 394.9555358886719 221.96875" stroke-width="8.11115550994873" fill="none" stroke="rgb(218, 0, 255)" stroke-opacity="1.0" stroke-linecap="round" stroke-linejoin="round"/>
    <path d="M 138.50672912597656 102.38419342041016 C 83.45618438720703 84.14830017089844 115.76177215576172 183.82664489746094 73.84306335449219 141.54608154296875 C 174.98468017578125 125.0797348022461 167.02963256835938 57.51455307006836 110.26264953613281 131.44863891601562 C 169.47412109375 79.33971405029297 196.5157928466797 39.323734283447266 157.9552001953125 92.28390502929688" stroke-width="8.419516563415527" fill="none" stroke="rgb(255, 255, 0)" stroke-opacity="1.0" stroke-linecap="round" stroke-linejoin="round"/>
    <path d="M 270.1096496582031 186.245361328125 C 264.6331481933594 176.4598846435547 245.72052001953125 241.4941864013672 218.42088317871094 129.75706481933594 C 210.73248291015625 95.44664764404297 321.1020202636719 -58.491512298583984 241.45680236816406 165.305908203125" stroke-width="9.931867599487305" fill="none" stroke="rgb(217, 255, 0)" stroke-opacity="1.0" stroke-linecap="round" stroke-linejoin="round"/>
    <path d="M 140.32603454589844 411.27685546875 C 122.4703140258789 424.0830078125 54.6162109375 432.6325378417969 62.49907684326172 382.7778625488281 C 32.28760528564453 402.7268371582031 51.18502426147461 401.4913635253906 78.12538146972656 360.7773132324219 C 88.99713897705078 365.7507629394531 101.95489501953125 382.9018859863281 94.3667984008789 386.7279357910156" stroke-width="4.0382609367370605" fill="none" stroke="rgb(255, 255, 255)" stroke-opacity="1.0" stroke-linecap="round" stroke-linejoin="round"/>
    <path d="M 241.00946044921875 198.9800567626953 C 225.45574951171875 304.6589660644531 246.5013885498047 201.52200317382812 293.0721435546875 152.81631469726562 C 262.45989990234375 177.8567657470703 309.0148010253906 227.76861572265625 307.10943603515625 283.478515625 C 302.50006103515625 308.0635681152344 311.4400939941406 143.57225036621094 309.8000793457031 236.07354736328125" stroke-width="3.8327715396881104" fill="none" stroke="rgb(187, 107, 217)" stroke-opacity="1.0" stroke-linecap="round" stroke-linejoin="round"/>
    <path d="M 426.2420654296875 233.8114471435547 C 386.7301330566406 206.49758911132812 380.27459716796875 261.3769836425781 416.9783020019531 285.16741943359375 C 399.1968078613281 280.8813781738281 359.37786865234375 196.09474182128906 343.5732421875 181.41685485839844" stroke-width="3.092195510864258" fill="none" stroke="rgb(75, 24, 60)" stroke-opacity="1.0" stroke-linecap="round" stroke-linejoin="round"/>
    <path d="M 97.6029281616211 47.75640106201172 C -20.049137115478516 71.9427261352539 89.51303100585938 -44.31523513793945 32.395835876464844 25.783510208129883 C 95.78810119628906 105.75025177001953 60.52012634277344 108.45209503173828 37.40461349487305 62.46707534790039 C 5.752499580383301 79.64216613769531 -1.282436490058899 25.738901138305664 57.32305145263672 0.5826935768127441" stroke-width="5.252261161804199" fill="none" stroke="rgb(255, 23, 218)" stroke-opacity="0.9844476" stroke-linecap="round" stroke-linejoin="round"/>
    <path d="M 341.0671081542969 43.48992919921875 C 355.57305908203125 -18.771068572998047 274.94488525390625 80.02790069580078 320.8237609863281 26.7659969329834 C 329.7795715332031 96.69658660888672 324.0401916503906 29.272552490234375 262.5069274902344 -15.399121284484863" stroke-width="3.37143611907959" fill="none" stroke="rgb(206, 255, 0)" stroke-opacity="1.0" stroke-linecap="round" stroke-linejoin="round"/>
    <path d="M 211.62046813964844 358.78118896484375 C 288.2786560058594 307.7689208984375 187.5218963623047 339.3343505859375 224.9959259033203 403.6739807128906 C 240.7587127685547 397.3497314453125 198.71963500976562 394.7493591308594 207.37319946289062 449.9652099609375" stroke-width="10.969576835632324" fill="none" stroke="rgb(82, 31, 0)" stroke-opacity="1.0" stroke-linecap="round" stroke-linejoin="round"/>
    <path d="M 32.22297668457031 421.6354064941406 C 41.17478942871094 369.9524230957031 -24.28307342529297 472.4937438964844 -14.47380256652832 520.9297485351562" stroke-width="13.574080467224121" fill="none" stroke="rgb(255, 0, 240)" stroke-opacity="1.0" stroke-linecap="round" stroke-linejoin="round"/>
    <path d="M 65.91915893554688 273.6396789550781 C 66.6697006225586 262.01666259765625 1.6837447881698608 339.5249938964844 36.45704650878906 378.71856689453125" stroke-width="12.160593032836914" fill="none" stroke="rgb(255, 0, 255)" stroke-opacity="1.0" stroke-linecap="round" stroke-linejoin="round"/>
    <path d="M 53.52280807495117 294.5608825683594 C 81.96163177490234 263.9681701660156 13.609977722167969 332.0487976074219 41.76258087158203 372.57476806640625" stroke-width="13.81445026397705" fill="none" stroke="rgb(140, 0, 168)" stroke-opacity="0.55276793" stroke-linecap="round" stroke-linejoin="round"/>
    <path d="M 393.3604431152344 499.00506591796875 C 326.7749328613281 427.921142578125 411.68353271484375 534.0130615234375 325.479736328125 486.6625061035156" stroke-width="5.411507606506348" fill="none" stroke="rgb(8, 0, 0)" stroke-opacity="0.8363209" stroke-linecap="round" stroke-linejoin="round"/>
    <path d="M 83.28174591064453 476.3157958984375 C 59.325374603271484 396.5989990234375 43.82474899291992 478.8768615722656 87.9144515991211 494.3998718261719 C 25.714431762695312 461.4304504394531 14.230935096740723 467.7298889160156 76.38789367675781 510.5794982910156 C 91.43632507324219 477.8829345703125 40.573974609375 580.2634887695312 41.138031005859375 465.9281005859375" stroke-width="7.349442958831787" fill="none" stroke="rgb(19, 20, 53)" stroke-opacity="0.408785" stroke-linecap="round" stroke-linejoin="round"/>
    <path d="M 201.34844970703125 378.8702697753906 C 153.5624542236328 404.3695983886719 174.99229431152344 442.2988586425781 186.280029296875 538.044189453125 C 108.3932876586914 397.4070129394531 113.95381927490234 410.11541748046875 154.72056579589844 438.2331848144531 C 199.17648315429688 332.30194091796875 179.96287536621094 380.285888671875 210.8761749267578 456.8165588378906" stroke-width="3.48443603515625" fill="none" stroke="rgb(44, 28, 9)" stroke-opacity="0.8149899" stroke-linecap="round" stroke-linejoin="round"/>
    <path d="M 299.3350524902344 433.11346435546875 C 362.3838806152344 363.21319580078125 268.48626708984375 422.5829162597656 260.75714111328125 491.8077087402344" stroke-width="10.076238632202148" fill="none" stroke="rgb(255, 0, 255)" stroke-opacity="1.0" stroke-linecap="round" stroke-linejoin="round"/>
    <path d="M 354.1159973144531 23.051557540893555 C 396.0 -10.239214897155762 337.86907958984375 31.85555076599121 311.9126281738281 65.95431518554688 C 399.92889404296875 16.30892562866211 318.3468017578125 76.24561309814453 287.5649719238281 126.72834777832031" stroke-width="13.102176666259766" fill="none" stroke="rgb(255, 0, 255)" stroke-opacity="0.4845073" stroke-linecap="round" stroke-linejoin="round"/>
    <path d="M 468.2572021484375 188.9623565673828 C 461.2202453613281 172.25625610351562 436.24432373046875 188.96304321289062 438.4164123535156 209.4301300048828 C 481.78656005859375 150.56048583984375 524.2135620117188 85.13042449951172 469.26202392578125 182.487548828125" stroke-width="7.591383457183838" fill="none" stroke="rgb(255, 255, 0)" stroke-opacity="1.0" stroke-linecap="round" stroke-linejoin="round"/>
    <path d="M 97.10087585449219 151.00564575195312 C 63.32780075073242 126.54306030273438 97.4135513305664 195.18374633789062 75.28347778320312 137.13890075683594" stroke-width="3.8668317794799805" fill="none" stroke="rgb(255, 0, 0)" stroke-opacity="1.0" stroke-linecap="round" stroke-linejoin="round"/>
    <path d="M 475.3460998535156 360.1930236816406 C 496.65155029296875 383.3203125 534.9934692382812 478.5066223144531 475.7905578613281 390.17535400390625 C 421.172607421875 410.7146301269531 451.8797302246094 508.9745788574219 432.765625 392.2337646484375 C 443.08319091796875 372.99298095703125 406.3390808105469 383.0243835449219 434.572998046875 451.11322021484375" stroke-width="2.95868182182312" fill="none" stroke="rgb(55, 35, 0)" stroke-opacity="0.89495736" stroke-linecap="round" stroke-linejoin="round"/>
    <path d="M 29.392236709594727 70.34999084472656 C -10.373207092285156 99.7374496459961 51.39448165893555 144.7711639404297 1.346609354019165 206.16598510742188 C 50.393218994140625 87.7334213256836 78.13085174560547 133.94760131835938 57.42271041870117 102.55069732666016 C 79.15599060058594 34.2219123840332 78.10708618164062 59.08543395996094 121.37909698486328 19.219161987304688" stroke-width="12.591718673706055" fill="none" stroke="rgb(255, 0, 255)" stroke-opacity="1.0" stroke-linecap="round" stroke-linejoin="round"/>
    <path d="M 283.0062255859375 470.1766052246094 C 254.32232666015625 454.4916076660156 343.73956298828125 448.209716796875 268.8337097167969 391.33563232421875 C 294.3970031738281 346.3149719238281 298.1141052246094 424.02337646484375 325.8421936035156 427.8945617675781 C 308.87908935546875 323.67584228515625 362.0158386230469 318.8387451171875 384.72174072265625 517.129638671875" stroke-width="4.242932319641113" fill="none" stroke="rgb(27, 0, 22)" stroke-opacity="0.79075444" stroke-linecap="round" stroke-linejoin="round"/>
    <path d="M 51.28523635864258 115.86656951904297 C 4.524312496185303 134.50057983398438 72.92769622802734 91.04303741455078 -5.271810054779053 178.21514892578125 C 26.050743103027344 91.72553253173828 23.54837417602539 127.3660659790039 1.976094365119934 165.9352569580078 C 56.4603271484375 72.54583740234375 2.583296537399292 200.40589904785156 -3.8684237003326416 56.26628875732422" stroke-width="5.3972296714782715" fill="none" stroke="rgb(18, 0, 0)" stroke-opacity="1.0" stroke-linecap="round" stroke-linejoin="round"/>
    <path d="M 232.3225555419922 246.3842315673828 C 186.71595764160156 144.71066284179688 202.0638885498047 186.83236694335938 235.03907775878906 229.22117614746094" stroke-width="4.403923511505127" fill="none" stroke="rgb(246, 0, 255)" stroke-opacity="1.0" stroke-linecap="round" stroke-linejoin="round"/>
    <path d="M 167.88063049316406 379.4366455078125 C 124.37342071533203 354.4538879394531 159.1475372314453 352.3940734863281 127.38375854492188 293.9775085449219 C 122.37631225585938 264.0534362792969 133.48233032226562 382.9568176269531 110.79571533203125 253.98782348632812 C 60.22948455810547 217.03860473632812 150.77084350585938 290.948974609375 120.16173553466797 240.27978515625" stroke-width="3.081164598464966" fill="none" stroke="rgb(26, 0, 37)" stroke-opacity="0.90174484" stroke-linecap="round" stroke-linejoin="round"/>
    <path d="M 407.75128173828125 201.8478546142578 C 456.91412353515625 273.5740051269531 375.3282775878906 221.99732971191406 380.7865295410156 208.59371948242188 C 376.6503601074219 326.3271789550781 395.53973388671875 251.3054656982422 390.0906982421875 176.15121459960938" stroke-width="2.6971349716186523" fill="none" stroke="rgb(54, 14, 54)" stroke-opacity="0.8242692" stroke-linecap="round" stroke-linejoin="round"/>
    <path d="M 63.61351013183594 42.37309265136719 C 8.992809295654297 86.39200592041016 13.885769844055176 108.31937408447266 74.4247817993164 118.15544891357422 C 29.298263549804688 113.3884048461914 -0.5272758603096008 19.618144989013672 84.96865844726562 116.38146209716797" stroke-width="6.421733379364014" fill="none" stroke="rgb(131, 0, 164)" stroke-opacity="0.8044429" stroke-linecap="round" stroke-linejoin="round"/>
    <path d="M 226.6605987548828 344.2408447265625 C 200.8323974609375 334.04534912109375 189.8843994140625 456.58746337890625 185.6029052734375 378.0211181640625 C 140.0801239013672 408.29754638671875 149.78334045410156 532.8138427734375 186.4833221435547 394.4310302734375 C 187.34327697753906 458.3707580566406 172.86209106445312 352.89532470703125 220.76016235351562 333.5932312011719" stroke-width="7.0390543937683105" fill="none" stroke="rgb(255, 0, 255)" stroke-opacity="1.0" stroke-linecap="round" stroke-linejoin="round"/>
    <path d="M 48.257991790771484 395.8672790527344 C 119.45706939697266 550.1118774414062 64.36853790283203 462.2289733886719 78.98259735107422 392.6665344238281" stroke-width="2.8195741176605225" fill="none" stroke="rgb(0, 0, 0)" stroke-opacity="0.6021155" stroke-linecap="round" stroke-linejoin="round"/>
    <path d="M 448.79034423828125 123.66162872314453 C 465.6846923828125 210.733154296875 434.00262451171875 116.94300842285156 453.0820007324219 161.08731079101562 C 465.5024719238281 30.34801483154297 486.4509582519531 161.90655517578125 469.8056640625 64.79711151123047 C 439.6278381347656 102.70218658447266 490.63641357421875 70.19733428955078 456.72314453125 133.39805603027344" stroke-width="3.150268316268921" fill="none" stroke="rgb(164, 0, 94)" stroke-opacity="1.0" stroke-linecap="round" stroke-linejoin="round"/>
    <path d="M 353.183837890625 275.7406005859375 C 304.9122314453125 325.14996337890625 340.9754333496094 332.39971923828125 323.7172546386719 298.55865478515625 C 323.80584716796875 355.13848876953125 302.0098571777344 253.61062622070312 361.88006591796875 271.8270568847656" stroke-width="9.619821548461914" fill="none" stroke="rgb(255, 0, 0)" stroke-opacity="1.0" stroke-linecap="round" stroke-linejoin="round"/>
    <path d="M 298.9949645996094 203.55319213867188 C 298.9652099609375 170.03729248046875 319.7916259765625 158.1420135498047 343.653076171875 144.24322509765625" stroke-width="9.192214012145996" fill="none" stroke="rgb(255, 152, 0)" stroke-opacity="1.0" stroke-linecap="round" stroke-linejoin="round"/>
    <path d="M 383.6316833496094 386.5158386230469 C 378.6642150878906 386.2370300292969 427.0258483886719 333.3187255859375 430.7333679199219 345.4466247558594" stroke-width="14.71192455291748" fill="none" stroke="rgb(255, 255, 0)" stroke-opacity="1.0" stroke-linecap="round" stroke-linejoin="round"/>
    <path d="M 186.98455810546875 295.1082458496094 C 170.88963317871094 349.4379577636719 231.89511108398438 345.5450439453125 224.18865966796875 340.0001220703125 C 188.0341339111328 305.9121398925781 184.028564453125 236.0524139404297 249.2291717529297 340.96221923828125 C 263.36517333984375 289.2425537109375 268.1629638671875 325.4215393066406 276.3211975097656 339.418212890625" stroke-width="4.749815940856934" fill="none" stroke="rgb(189, 191, 188)" stroke-opacity="1.0" stroke-linecap="round" stroke-linejoin="round"/>
    <path d="M 141.9445037841797 114.35077667236328 C 60.57981872558594 20.70303726196289 108.35054779052734 110.9784927368164 120.76061248779297 104.64823150634766 C 69.7186508178711 -31.632308959960938 14.647825241088867 35.14523696899414 85.81212615966797 31.773324966430664 C 8.457450866699219 62.10076141357422 52.242252349853516 -57.807586669921875 119.95614624023438 70.13214874267578" stroke-width="3.628145456314087" fill="none" stroke="rgb(72, 0, 64)" stroke-opacity="0.7813032" stroke-linecap="round" stroke-linejoin="round"/>
    <path d="M 348.6747741699219 286.06494140625 C 330.9531555175781 264.2625427246094 338.3363037109375 337.8498229980469 327.09259033203125 314.7855529785156 C 282.0167541503906 301.3786315917969 285.2156066894531 424.39764404296875 323.64093017578125 303.1499938964844" stroke-width="8.617183685302734" fill="none" stroke="rgb(255, 255, 0)" stroke-opacity="1.0" stroke-linecap="round" stroke-linejoin="round"/>
    <path d="M 136.19564819335938 484.1015930175781 C 185.2405242919922 387.4875793457031 103.6159896850586 502.9259948730469 103.14801788330078 491.17364501953125" stroke-width="13.467514038085938" fill="none" stroke="rgb(246, 0, 245)" stroke-opacity="1.0" stroke-linecap="round" stroke-linejoin="round"/>
    <path d="M 338.0780029296875 185.40354919433594 C 345.7703857421875 208.88462829589844 354.30596923828125 158.61376953125 343.86712646484375 178.6798553466797 C 348.0350646972656 168.66197204589844 360.6265563964844 203.83792114257812 351.0289306640625 179.54766845703125 C 335.61737060546875 248.2651824951172 320.14569091796875 129.0663299560547 364.305908203125 177.52220153808594" stroke-width="7.0622172355651855" fill="none" stroke="rgb(128, 0, 196)" stroke-opacity="0.57234466" stroke-linecap="round" stroke-linejoin="round"/>
    <path d="M 348.1189880371094 134.7312774658203 C 343.3078308105469 102.0870132446289 381.11279296875 86.52299499511719 383.5489501953125 60.784576416015625 C 367.22491455078125 46.10494613647461 334.9458923339844 120.2126235961914 327.574951171875 150.8160400390625" stroke-width="12.444631576538086" fill="none" stroke="rgb(255, 255, 0)" stroke-opacity="1.0" stroke-linecap="round" stroke-linejoin="round"/>
    <path d="M 88.25462341308594 366.27764892578125 C 86.11485290527344 351.760009765625 39.78955078125 344.0144348144531 49.7926025390625 412.84991455078125 C 13.647322654724121 340.6448059082031 56.67414474487305 388.3919677734375 31.30824089050293 371.4930725097656 C 58.48731994628906 377.79632568359375 -6.6312971115112305 355.1488342285156 26.669677734375 396.2464294433594" stroke-width="3.9986801147460938" fill="none" stroke="rgb(41, 24, 31)" stroke-opacity="0.8109357" stroke-linecap="round" stroke-linejoin="round"/>
    <path d="M 30.986852645874023 81.37130737304688 C 95.70503234863281 214.9801788330078 110.126708984375 128.40310668945312 31.033946990966797 42.11724853515625" stroke-width="3.768002986907959" fill="none" stroke="rgb(47, 0, 44)" stroke-opacity="0.62368876" stroke-linecap="round" stroke-linejoin="round"/>
    <path d="M 403.1477355957031 276.6026916503906 C 467.5722351074219 409.1492919921875 423.4359130859375 345.380126953125 443.4268798828125 317.37774658203125 C 357.89593505859375 203.18971252441406 486.3454895019531 299.1784362792969 450.63775634765625 345.23974609375 C 458.28924560546875 288.85595703125 428.8318786621094 361.8443298339844 448.07745361328125 393.62713623046875" stroke-width="3.533494472503662" fill="none" stroke="rgb(0, 0, 0)" stroke-opacity="0.7290246" stroke-linecap="round" stroke-linejoin="round"/>
    <path d="M 348.17620849609375 308.33709716796875 C 330.2406921386719 408.5967102050781 396.82086181640625 314.2522277832031 277.5867919921875 419.34234619140625 C 333.1179504394531 380.2144775390625 388.8092041015625 481.5722351074219 322.3954162597656 336.24346923828125" stroke-width="10.535238265991211" fill="none" stroke="rgb(17, 0, 95)" stroke-opacity="0.34428862" stroke-linecap="round" stroke-linejoin="round"/>
    <path d="M 474.6007995605469 265.6339416503906 C 438.8315124511719 213.49879455566406 366.83251953125 295.5978698730469 480.492431640625 244.55426025390625 C 406.4390563964844 251.3232879638672 508.083740234375 206.18655395507812 488.42144775390625 221.66360473632812 C 485.8846435546875 246.59458923339844 462.3792724609375 216.413818359375 490.8336486816406 269.65216064453125" stroke-width="12.77763557434082" fill="none" stroke="rgb(255, 0, 255)" stroke-opacity="1.0" stroke-linecap="round" stroke-linejoin="round"/>
    <path d="M 34.660221099853516 56.85810089111328 C 77.90188598632812 103.31121063232422 -13.644648551940918 14.17580509185791 76.55467987060547 138.02899169921875" stroke-width="5.070425033569336" fill="none" stroke="rgb(74, 0, 64)" stroke-opacity="0.9581924" stroke-linecap="round" stroke-linejoin="round"/>
    <path d="M 97.47329711914062 390.08929443359375 C 98.75528717041016 391.9852294921875 78.91060638427734 493.9508972167969 131.6021728515625 462.8518371582031 C 82.2476577758789 355.62701416015625 115.08782958984375 453.10894775390625 104.37976837158203 309.9348449707031 C 137.7199249267578 267.5538024902344 70.29479217529297 357.3520202636719 139.1027374267578 414.7325439453125" stroke-width="3.4967267513275146" fill="none" stroke="rgb(6, 0, 18)" stroke-opacity="0.8351353" stroke-linecap="round" stroke-linejoin="round"/>
    <path d="M 362.0343017578125 181.33355712890625 C 291.1519775390625 56.21539306640625 363.2039794921875 12.146773338317871 339.856201171875 49.825504302978516 C 402.1482849121094 110.42013549804688 377.00531005859375 113.0811767578125 392.5906982421875 135.8802947998047 C 410.4229431152344 61.809810638427734 326.4444580078125 56.88041687011719 391.76910400390625 13.599184036254883" stroke-width="3.2117977142333984" fill="none" stroke="rgb(75, 0, 43)" stroke-opacity="0.6235222" stroke-linecap="round" stroke-linejoin="round"/>
    <path d="M 123.22097778320312 148.98727416992188 C 134.1161346435547 228.8995819091797 133.02078247070312 112.31546783447266 140.06317138671875 148.15821838378906 C 108.576171875 197.92881774902344 102.45569610595703 169.46963500976562 148.48289489746094 153.52000427246094 C 123.40228271484375 63.669288635253906 68.75851440429688 113.50615692138672 118.80591583251953 166.11959838867188" stroke-width="3.8015873432159424" fill="none" stroke="rgb(31, 0, 44)" stroke-opacity="0.77023655" stroke-linecap="round" stroke-linejoin="round"/>
    <path d="M 483.9963684082031 155.33413696289062 C 461.4668273925781 108.45043182373047 446.5722351074219 44.1348876953125 445.5245666503906 132.5387420654297 C 408.9845886230469 157.41929626464844 473.7302551269531 219.3525848388672 453.2504577636719 173.16729736328125 C 411.7140808105469 130.22360229492188 480.61944580078125 114.4809341430664 444.9399108886719 102.20658111572266" stroke-width="4.737833499908447" fill="none" stroke="rgb(255, 0, 255)" stroke-opacity="1.0" stroke-linecap="round" stroke-linejoin="round"/>
    <path d="M 245.28521728515625 73.39532470703125 C 209.87013244628906 -21.14592933654785 119.5091552734375 0.02092265523970127 111.88124084472656 86.63069152832031" stroke-width="5.974447727203369" fill="none" stroke="rgb(27, 28, 6)" stroke-opacity="0.42421004" stroke-linecap="round" stroke-linejoin="round"/>
    <path d="M 427.0806884765625 -0.1291644424200058 C 373.18817138671875 19.462812423706055 346.6194763183594 -46.84711837768555 315.4985046386719 -56.8021240234375 C 327.2029724121094 -38.65203857421875 345.5058898925781 -51.492008209228516 372.7523498535156 -28.264968872070312" stroke-width="9.627835273742676" fill="none" stroke="rgb(20, 10, 0)" stroke-opacity="1.0" stroke-linecap="round" stroke-linejoin="round"/>
    <path d="M 61.7206916809082 160.78492736816406 C 57.71242141723633 131.0391082763672 128.65379333496094 159.33346557617188 189.7904510498047 204.9720458984375 C 100.59434509277344 249.51708984375 69.84375 232.77511596679688 116.68921661376953 214.7729034423828" stroke-width="2.0001943111419678" fill="none" stroke="rgb(255, 202, 255)" stroke-opacity="0.0" stroke-linecap="round" stroke-linejoin="round"/>
    <path d="M 461.21722412109375 -15.201897621154785 C 450.4549560546875 10.017682075500488 520.8823852539062 10.271611213684082 484.76654052734375 -13.477402687072754 C 447.66552734375 -35.27080535888672 451.3773193359375 -66.728271484375 439.7573547363281 -11.058979034423828 C 443.2383728027344 14.890016555786133 431.7003479003906 -24.642921447753906 429.4237976074219 -4.748242378234863" stroke-width="8.531845092773438" fill="none" stroke="rgb(32, 42, 74)" stroke-opacity="0.8290695" stroke-linecap="round" stroke-linejoin="round"/>
    <path d="M 359.2170715332031 408.0426330566406 C 331.80633544921875 430.87060546875 350.857177734375 503.583251953125 399.12322998046875 508.9462585449219" stroke-width="3.313040018081665" fill="none" stroke="rgb(1, 0, 0)" stroke-opacity="0.8837353" stroke-linecap="round" stroke-linejoin="round"/>
    <path d="M 454.625 196.51754760742188 C 446.1868591308594 159.85923767089844 440.59674072265625 232.40431213378906 432.8094177246094 216.6661834716797 C 407.0851135253906 138.75030517578125 413.83282470703125 141.03997802734375 473.35687255859375 62.414154052734375 C 413.7331237792969 170.81884765625 405.1891784667969 130.9187774658203 433.32550048828125 136.03860473632812" stroke-width="8.138609886169434" fill="none" stroke="rgb(255, 255, 0)" stroke-opacity="1.0" stroke-linecap="round" stroke-linejoin="round"/>
    <path d="M 402.8104553222656 -2.2183830738067627 C 404.76611328125 -3.080847978591919 430.1844787597656 -16.235870361328125 428.0272216796875 -2.868032932281494 C 408.4916687011719 -31.165775299072266 401.87689208984375 -15.277959823608398 391.2718811035156 -26.03948211669922 C 373.50665283203125 -30.916301727294922 378.23046875 -40.10841751098633 389.5132141113281 -47.656978607177734" stroke-width="2.0" fill="none" stroke="rgb(255, 215, 0)" stroke-opacity="0.17768851" stroke-linecap="round" stroke-linejoin="round"/>
    <path d="M 224.02540588378906 439.8097839355469 C 275.83526611328125 571.4147338867188 227.32464599609375 433.38726806640625 285.79296875 422.65985107421875 C 310.99554443359375 485.4720153808594 293.96636962890625 412.7742614746094 341.2051696777344 327.82855224609375 C 340.23773193359375 443.3674011230469 238.4673614501953 469.9710998535156 305.5133056640625 517.1741333007812" stroke-width="13.407533645629883" fill="none" stroke="rgb(7, 0, 37)" stroke-opacity="0.5046026" stroke-linecap="round" stroke-linejoin="round"/>
    <path d="M 172.76119995117188 373.2143859863281 C 142.1085662841797 376.61151123046875 130.8059539794922 438.4190979003906 147.7088623046875 403.3480224609375 C 112.96683502197266 448.0122985839844 36.32472229003906 514.0173950195312 132.7908172607422 402.30279541015625" stroke-width="8.836613655090332" fill="none" stroke="rgb(255, 255, 0)" stroke-opacity="1.0" stroke-linecap="round" stroke-linejoin="round"/>
    <path d="M 461.3887939453125 82.33914947509766 C 430.6050720214844 66.11173248291016 466.5863342285156 58.313716888427734 428.7489013671875 20.699668884277344" stroke-width="3.657231092453003" fill="none" stroke="rgb(62, 36, 90)" stroke-opacity="1.0" stroke-linecap="round" stroke-linejoin="round"/>
    <path d="M 307.1877746582031 161.1222686767578 C 344.2898254394531 236.91183471679688 333.5925598144531 196.70191955566406 347.0262451171875 211.52932739257812 C 319.4277648925781 234.82688903808594 351.84735107421875 260.8841247558594 346.3902282714844 240.9142303466797 C 341.6025695800781 224.29368591308594 370.9685363769531 204.17092895507812 353.29254150390625 231.8041229248047" stroke-width="6.2815632820129395" fill="none" stroke="rgb(255, 247, 0)" stroke-opacity="1.0" stroke-linecap="round" stroke-linejoin="round"/>
    <path d="M 103.99762725830078 93.92810821533203 C 135.02517700195312 24.654333114624023 134.4897003173828 197.8329620361328 106.83545684814453 47.86555862426758 C 116.05777740478516 3.6379916667938232 46.6165657043457 7.666191101074219 100.66548156738281 11.107171058654785" stroke-width="3.8783185482025146" fill="none" stroke="rgb(0, 0, 32)" stroke-opacity="0.64317" stroke-linecap="round" stroke-linejoin="round"/>
    <path d="M 59.572288513183594 197.0133819580078 C 52.031463623046875 232.95062255859375 106.95147705078125 248.5137939453125 63.68962860107422 198.1351776123047 C 29.9440975189209 229.88546752929688 72.64535522460938 230.2943115234375 63.13266372680664 254.18350219726562" stroke-width="4.547304153442383" fill="none" stroke="rgb(0, 0, 9)" stroke-opacity="0.63144034" stroke-linecap="round" stroke-linejoin="round"/>
    <path d="M 281.12384033203125 379.06951904296875 C 174.84873962402344 451.76190185546875 252.814208984375 436.8495788574219 211.4028778076172 445.4881591796875 C 197.2994842529297 409.48223876953125 225.72056579589844 506.5177001953125 197.90383911132812 445.7137756347656 C 182.1349639892578 455.4768981933594 176.3515625 509.8681335449219 199.9066619873047 447.7491455078125" stroke-width="7.044244289398193" fill="none" stroke="rgb(255, 247, 0)" stroke-opacity="1.0" stroke-linecap="round" stroke-linejoin="round"/>
    <path d="M 352.75634765625 -19.180864334106445 C 361.871826171875 -80.51407623291016 405.1634826660156 14.673259735107422 419.6985778808594 11.146293640136719 C 356.1449890136719 -2.7127156257629395 347.86016845703125 56.11931228637695 356.6667175292969 67.60678100585938" stroke-width="10.932291984558105" fill="none" stroke="rgb(126, 25, 49)" stroke-opacity="0.962769" stroke-linecap="round" stroke-linejoin="round"/>
    <path d="M 156.2775115966797 154.67471313476562 C 144.6659393310547 40.90873336791992 194.08343505859375 226.10987854003906 151.12464904785156 140.08917236328125 C 72.95201873779297 229.07484436035156 192.62742614746094 129.87124633789062 134.62832641601562 93.39703369140625" stroke-width="2.859973192214966" fill="none" stroke="rgb(42, 0, 68)" stroke-opacity="0.7883737" stroke-linecap="round" stroke-linejoin="round"/>
    <path d="M 315.2799072265625 134.77037048339844 C 333.08380126953125 193.6353302001953 321.320556640625 210.2639617919922 317.5994873046875 179.0258331298828 C 322.9188232421875 186.23638916015625 362.2159423828125 97.88819885253906 318.22900390625 129.27239990234375 C 358.2050476074219 169.25973510742188 290.82562255859375 165.39976501464844 314.8339538574219 197.69166564941406" stroke-width="4.701512813568115" fill="none" stroke="rgb(255, 117, 0)" stroke-opacity="1.0" stroke-linecap="round" stroke-linejoin="round"/>
    <path d="M 142.19886779785156 484.56298828125 C 100.52386474609375 525.4658203125 173.42127990722656 399.7484130859375 137.8218994140625 449.4840393066406" stroke-width="13.741981506347656" fill="none" stroke="rgb(39, 0, 16)" stroke-opacity="0.69547445" stroke-linecap="round" stroke-linejoin="round"/>
    <path d="M 346.53521728515625 152.20333862304688 C 340.27923583984375 130.932861328125 353.38330078125 43.222991943359375 371.2121276855469 116.93277740478516" stroke-width="3.1841700077056885" fill="none" stroke="rgb(103, 0, 0)" stroke-opacity="0.2827487" stroke-linecap="round" stroke-linejoin="round"/>
    <path d="M 431.759033203125 355.37548828125 C 393.9269714355469 295.5972595214844 376.5220642089844 303.55792236328125 429.01434326171875 257.2809753417969 C 410.6839599609375 223.65740966796875 517.7613525390625 313.07232666015625 439.1941223144531 239.674072265625" stroke-width="3.0472939014434814" fill="none" stroke="rgb(149, 0, 0)" stroke-opacity="1.0" stroke-linecap="round" stroke-linejoin="round"/>
    <path d="M 331.35516357421875 1.4435299634933472 C 279.29937744140625 17.091650009155273 234.78533935546875 110.2847900390625 256.6705322265625 136.4377899169922" stroke-width="10.21165657043457" fill="none" stroke="rgb(255, 0, 255)" stroke-opacity="1.0" stroke-linecap="round" stroke-linejoin="round"/>
    <path d="M 257.6610412597656 100.47321319580078 C 290.8160705566406 -12.534019470214844 235.30043029785156 104.60446166992188 232.7344970703125 129.67007446289062 C 270.24615478515625 207.43553161621094 230.44424438476562 54.53408432006836 224.21878051757812 162.90603637695312" stroke-width="4.961948394775391" fill="none" stroke="rgb(255, 101, 255)" stroke-opacity="1.0" stroke-linecap="round" stroke-linejoin="round"/>
    <path d="M 363.7339172363281 404.7533874511719 C 365.864990234375 351.07464599609375 417.3009948730469 331.97723388671875 425.5996398925781 339.207763671875 C 378.9534912109375 321.11016845703125 400.5311584472656 393.4512939453125 398.6161193847656 351.32666015625 C 473.7769775390625 324.5089416503906 362.8332214355469 351.5842590332031 377.1866760253906 394.1407165527344" stroke-width="6.653257846832275" fill="none" stroke="rgb(255, 0, 0)" stroke-opacity="1.0" stroke-linecap="round" stroke-linejoin="round"/>
    <path d="M 481.5954284667969 465.55157470703125 C 523.7413330078125 523.6171264648438 530.6829223632812 531.8221435546875 525.8286743164062 542.1287841796875" stroke-width="12.188437461853027" fill="none" stroke="rgb(0, 0, 0)" stroke-opacity="0.8772697" stroke-linecap="round" stroke-linejoin="round"/>
    <path d="M -5.602835655212402 264.87493896484375 C 23.375221252441406 122.43597412109375 1.699373483657837 160.6607666015625 46.996856689453125 114.28260040283203 C 16.823562622070312 146.4855499267578 -13.426947593688965 65.68240356445312 40.468788146972656 118.26106262207031" stroke-width="4.831960678100586" fill="none" stroke="rgb(45, 0, 40)" stroke-opacity="1.0" stroke-linecap="round" stroke-linejoin="round"/>
    <path d="M 451.6705627441406 354.61846923828125 C 443.8695068359375 388.750732421875 412.7702331542969 384.0775146484375 408.7106018066406 368.18231201171875" stroke-width="5.763710975646973" fill="none" stroke="rgb(47, 27, 90)" stroke-opacity="0.49260008" stroke-linecap="round" stroke-linejoin="round"/>
    <path d="M 259.82025146484375 154.8009796142578 C 324.0697937011719 161.91177368164062 301.1513977050781 88.99205017089844 329.0575256347656 121.75139617919922 C 302.6695556640625 158.91119384765625 335.3775939941406 242.90594482421875 347.60736083984375 194.81988525390625" stroke-width="5.511179447174072" fill="none" stroke="rgb(222, 198, 232)" stroke-opacity="1.0" stroke-linecap="round" stroke-linejoin="round"/>
    <path d="M 431.9830322265625 130.60687255859375 C 405.2743835449219 204.3329315185547 453.32806396484375 236.36447143554688 435.0054931640625 233.0175018310547 C 431.54083251953125 236.50888061523438 422.0022888183594 235.99459838867188 409.93206787109375 202.17111206054688" stroke-width="6.346609592437744" fill="none" stroke="rgb(55, 0, 64)" stroke-opacity="1.0" stroke-linecap="round" stroke-linejoin="round"/>
    <path d="M 395.8818359375 244.4100341796875 C 449.13861083984375 134.91873168945312 314.6944580078125 197.97328186035156 420.58880615234375 65.90168762207031" stroke-width="4.345606327056885" fill="none" stroke="rgb(192, 0, 255)" stroke-opacity="1.0" stroke-linecap="round" stroke-linejoin="round"/>
    <path d="M 393.8910217285156 208.57901000976562 C 438.1990966796875 270.3048400878906 423.6880798339844 332.4786071777344 397.0582580566406 235.2171173095703 C 516.7062377929688 332.1246643066406 466.74114990234375 287.9051513671875 438.6527404785156 354.4539489746094" stroke-width="3.173947811126709" fill="none" stroke="rgb(53, 0, 30)" stroke-opacity="0.74309397" stroke-linecap="round" stroke-linejoin="round"/>
    <path d="M 454.86871337890625 505.8768005371094 C 385.5958557128906 440.87982177734375 430.2127380371094 401.87225341796875 413.0270690917969 391.9575500488281 C 419.9310302734375 324.97418212890625 369.9437561035156 506.9714660644531 447.30670166015625 485.30389404296875" stroke-width="3.6208853721618652" fill="none" stroke="rgb(16, 0, 0)" stroke-opacity="0.67512935" stroke-linecap="round" stroke-linejoin="round"/>
    <path d="M 83.73080444335938 214.72499084472656 C 8.849984169006348 30.095794677734375 127.7112045288086 274.22918701171875 92.8785629272461 162.47052001953125" stroke-width="3.5319745540618896" fill="none" stroke="rgb(5, 0, 0)" stroke-opacity="0.5983717" stroke-linecap="round" stroke-linejoin="round"/>
    <path d="M 297.487548828125 375.661865234375 C 185.04281616210938 468.9371337890625 234.6663055419922 480.4786071777344 225.58253479003906 431.02880859375" stroke-width="15.430154800415039" fill="none" stroke="rgb(255, 217, 0)" stroke-opacity="0.49206707" stroke-linecap="round" stroke-linejoin="round"/>
    <path d="M 25.933626174926758 498.42535400390625 C -12.843892097473145 485.0175476074219 14.087048530578613 322.9006042480469 36.73585510253906 437.69195556640625 C -4.101518630981445 511.85980224609375 83.0580825805664 469.78839111328125 27.169485092163086 494.9480895996094" stroke-width="3.280344247817993" fill="none" stroke="rgb(5, 0, 0)" stroke-opacity="0.854577" stroke-linecap="round" stroke-linejoin="round"/>
    <path d="M 35.710697174072266 114.97856903076172 C 11.954948425292969 119.46967315673828 28.46839714050293 139.13766479492188 -6.787333965301514 184.46780395507812 C 21.739744186401367 128.9725341796875 -23.897335052490234 119.2755126953125 -60.8358268737793 96.09181213378906" stroke-width="18.592506408691406" fill="none" stroke="rgb(0, 12, 35)" stroke-opacity="0.84532964" stroke-linecap="round" stroke-linejoin="round"/>
    <path d="M 99.16767883300781 295.6792907714844 C 166.06396484375 210.69168090820312 67.36526489257812 281.1779479980469 85.41481018066406 325.32757568359375" stroke-width="9.636544227600098" fill="none" stroke="rgb(255, 204, 0)" stroke-opacity="1.0" stroke-linecap="round" stroke-linejoin="round"/>
    <path d="M 394.4406433105469 353.55419921875 C 318.51068115234375 232.62258911132812 381.6917419433594 239.41610717773438 363.0340881347656 235.08047485351562" stroke-width="4.448181629180908" fill="none" stroke="rgb(0, 0, 0)" stroke-opacity="0.5318854" stroke-linecap="round" stroke-linejoin="round"/>
    <path d="M 50.957420349121094 43.0311164855957 C 120.39005279541016 -40.430946350097656 54.07706069946289 52.230525970458984 43.74958801269531 94.51911163330078" stroke-width="18.720508575439453" fill="none" stroke="rgb(0, 30, 11)" stroke-opacity="0.67507535" stroke-linecap="round" stroke-linejoin="round"/>
    <path d="M 522.838134765625 416.78350830078125 C 489.81707763671875 440.5005187988281 472.58978271484375 433.1559143066406 484.0809631347656 481.3143310546875 C 450.82855224609375 478.8561096191406 453.547119140625 424.3327331542969 507.8110046386719 417.1007995605469" stroke-width="12.250778198242188" fill="none" stroke="rgb(214, 0, 251)" stroke-opacity="1.0" stroke-linecap="round" stroke-linejoin="round"/>
    <path d="M 512.6671142578125 100.97785186767578 C 531.900390625 -2.8793883323669434 450.52960205078125 79.93956756591797 508.5639343261719 142.9925537109375 C 517.303466796875 200.23968505859375 473.8522644042969 141.93405151367188 505.37322998046875 174.69215393066406 C 452.4807434082031 173.29466247558594 538.5787963867188 340.7542419433594 466.9527282714844 199.09669494628906" stroke-width="4.690526962280273" fill="none" stroke="rgb(21, 0, 28)" stroke-opacity="0.87079984" stroke-linecap="round" stroke-linejoin="round"/>
    <path d="M 522.2999877929688 260.7643737792969 C 488.1478576660156 296.7776184082031 479.0135498046875 338.1005554199219 507.5905456542969 380.122314453125" stroke-width="5.373993873596191" fill="none" stroke="rgb(34, 0, 66)" stroke-opacity="1.0" stroke-linecap="round" stroke-linejoin="round"/>
    <path d="M -5.383756160736084 367.57403564453125 C 10.45596694946289 247.79299926757812 55.904571533203125 275.18841552734375 27.547815322875977 286.17120361328125 C 13.04365348815918 262.33782958984375 -16.042789459228516 336.55303955078125 32.31550598144531 388.7442321777344" stroke-width="4.6278076171875" fill="none" stroke="rgb(227, 0, 194)" stroke-opacity="1.0" stroke-linecap="round" stroke-linejoin="round"/>
    <path d="M 428.58258056640625 159.19039916992188 C 431.4094543457031 104.53202819824219 460.2818298339844 88.9656753540039 365.64312744140625 215.11636352539062 C 467.63458251953125 131.9060516357422 358.8377380371094 172.31004333496094 370.5384521484375 220.524658203125" stroke-width="5.791821479797363" fill="none" stroke="rgb(255, 255, 0)" stroke-opacity="1.0" stroke-linecap="round" stroke-linejoin="round"/>
    <path d="M 251.05763244628906 258.0536804199219 C 269.3908996582031 268.4122619628906 206.15086364746094 258.586669921875 233.58946228027344 351.2497863769531 C 219.4828643798828 287.0476379394531 254.01324462890625 371.6420593261719 239.63937377929688 332.45550537109375 C 220.36329650878906 215.85714721679688 315.6336669921875 301.8056335449219 254.2128448486328 239.23526000976562" stroke-width="5.198370933532715" fill="none" stroke="rgb(5, 0, 40)" stroke-opacity="0.5670996" stroke-linecap="round" stroke-linejoin="round"/>
    <path d="M 439.3721008300781 113.7566146850586 C 418.05865478515625 116.47869873046875 412.7017822265625 54.72502136230469 434.13140869140625 102.31514739990234 C 435.282958984375 86.51619720458984 456.97576904296875 92.88202667236328 422.2691345214844 70.50052642822266 C 436.6110534667969 -21.208303451538086 377.712890625 28.628131866455078 411.33349609375 58.1849250793457" stroke-width="3.034789562225342" fill="none" stroke="rgb(5, 0, 0)" stroke-opacity="0.58664244" stroke-linecap="round" stroke-linejoin="round"/>
    <path d="M 125.11762237548828 527.9674682617188 C 120.27709197998047 441.73443603515625 100.14356994628906 448.3676452636719 133.93936157226562 470.5685119628906 C 152.8983154296875 456.2138977050781 84.51261138916016 430.630126953125 112.61064147949219 538.76513671875 C 102.40535736083984 419.6435852050781 86.11808776855469 443.08477783203125 87.91325378417969 404.8484802246094" stroke-width="3.248716115951538" fill="none" stroke="rgb(7, 0, 10)" stroke-opacity="0.84584254" stroke-linecap="round" stroke-linejoin="round"/>
    <path d="M 468.2397155761719 464.5216979980469 C 480.18670654296875 503.9563903808594 486.9057312011719 457.12579345703125 483.24053955078125 473.2707214355469 C 449.8576965332031 505.83746337890625 417.71600341796875 435.05889892578125 497.74066162109375 413.3983154296875" stroke-width="12.153694152832031" fill="none" stroke="rgb(141, 183, 239)" stroke-opacity="0.7146615" stroke-linecap="round" stroke-linejoin="round"/>
    <path d="M 210.23831176757812 303.605712890625 C 213.39039611816406 255.51287841796875 231.46615600585938 243.46685791015625 218.22825622558594 271.3891906738281 C 246.7342987060547 204.1553192138672 238.01710510253906 285.5059509277344 238.01531982421875 245.77743530273438 C 283.8388671875 185.59498596191406 211.24642944335938 200.11471557617188 254.2202606201172 152.8793487548828" stroke-width="11.791169166564941" fill="none" stroke="rgb(255, 255, 0)" stroke-opacity="1.0" stroke-linecap="round" stroke-linejoin="round"/>
    <path d="M 281.0989074707031 45.42683792114258 C 232.12115478515625 145.33682250976562 287.3558654785156 151.39065551757812 314.54949951171875 118.66527557373047 C 306.77276611328125 131.30206298828125 256.38592529296875 171.94207763671875 238.02525329589844 236.5564727783203 C 241.66558837890625 218.25509643554688 234.9081573486328 229.6199951171875 240.88467407226562 243.29830932617188" stroke-width="9.184961318969727" fill="none" stroke="rgb(255, 0, 213)" stroke-opacity="1.0" stroke-linecap="round" stroke-linejoin="round"/>
    <path d="M 225.9721221923828 61.124267578125 C 171.61534118652344 92.19642639160156 201.32257080078125 202.57931518554688 259.1512145996094 233.86016845703125" stroke-width="4.261207580566406" fill="none" stroke="rgb(221, 0, 255)" stroke-opacity="0.6306063" stroke-linecap="round" stroke-linejoin="round"/>
    <path d="M 307.216064453125 497.9627380371094 C 155.3424835205078 467.8229675292969 184.02740478515625 499.59735107421875 273.1534118652344 502.3830261230469 C 356.847900390625 527.3933715820312 280.8283996582031 491.8960876464844 373.0963134765625 499.0329895019531 C 456.8112487792969 531.4986572265625 333.8617248535156 483.65325927734375 490.3446350097656 502.705810546875" stroke-width="15.005290031433105" fill="none" stroke="rgb(0, 0, 6)" stroke-opacity="0.74127406" stroke-linecap="round" stroke-linejoin="round"/>
    <path d="M -4.364476680755615 465.64752197265625 C -2.4049019813537598 396.12652587890625 40.661537170410156 374.2143249511719 37.08721160888672 472.6076965332031" stroke-width="3.5436019897460938" fill="none" stroke="rgb(234, 255, 190)" stroke-opacity="0.89367586" stroke-linecap="round" stroke-linejoin="round"/>
    <path d="M 28.772384643554688 453.39630126953125 C 40.16573715209961 455.035888671875 29.01215362548828 424.04571533203125 20.567541122436523 473.9519348144531" stroke-width="11.854512214660645" fill="none" stroke="rgb(255, 214, 0)" stroke-opacity="1.0" stroke-linecap="round" stroke-linejoin="round"/>
    <path d="M 122.27997589111328 468.44482421875 C 70.12467956542969 497.4877014160156 190.5182647705078 530.7743530273438 139.42901611328125 491.37060546875 C 137.20652770996094 404.3337097167969 171.12435913085938 466.4632568359375 183.1580810546875 493.3767395019531 C 271.80389404296875 425.4493713378906 258.163818359375 500.2230529785156 264.9393615722656 542.2843627929688" stroke-width="3.419369697570801" fill="none" stroke="rgb(233, 233, 232)" stroke-opacity="0.7515485" stroke-linecap="round" stroke-linejoin="round"/>
    <path d="M 502.1661682128906 428.5309143066406 C 474.85870361328125 370.5448913574219 491.8861389160156 394.24810791015625 503.77728271484375 436.7760009765625 C 467.6062927246094 427.2805480957031 467.62677001953125 358.8293762207031 474.55023193359375 404.77337646484375 C 508.3542175292969 479.1653747558594 472.0307312011719 426.4871826171875 370.25921630859375 290.60772705078125" stroke-width="2.7984747886657715" fill="none" stroke="rgb(23, 0, 1)" stroke-opacity="0.70251817" stroke-linecap="round" stroke-linejoin="round"/>
    <path d="M 298.99749755859375 68.41053771972656 C 278.59735107421875 57.330596923828125 332.9817810058594 0.18367856740951538 310.72760009765625 8.031744003295898 C 310.58526611328125 4.085868835449219 372.1759948730469 -4.940747261047363 416.5172424316406 18.465490341186523" stroke-width="5.71881628036499" fill="none" stroke="rgb(166, 186, 152)" stroke-opacity="0.69182265" stroke-linecap="round" stroke-linejoin="round"/>
    <path d="M 457.09375 409.56787109375 C 444.3233947753906 427.3282470703125 466.76885986328125 370.81243896484375 472.5572509765625 401.1663818359375" stroke-width="11.04189682006836" fill="none" stroke="rgb(255, 198, 0)" stroke-opacity="1.0" stroke-linecap="round" stroke-linejoin="round"/>
    <path d="M 93.8219985961914 124.7082290649414 C 67.51801300048828 65.0217514038086 147.33932495117188 29.14923095703125 89.5560302734375 98.9406967163086" stroke-width="11.7438383102417" fill="none" stroke="rgb(25, 26, 38)" stroke-opacity="0.72890055" stroke-linecap="round" stroke-linejoin="round"/>
    <path d="M 208.68780517578125 65.04977416992188 C 174.2769775390625 7.632851600646973 160.10794067382812 83.80923461914062 172.92250061035156 67.99256134033203 C 219.36001586914062 124.05223083496094 153.53245544433594 99.52222442626953 152.61607360839844 54.53953170776367 C 182.8002166748047 103.85346984863281 160.92791748046875 6.574946403503418 201.26495361328125 78.52893829345703" stroke-width="3.3557779788970947" fill="none" stroke="rgb(24, 0, 0)" stroke-opacity="0.5642332" stroke-linecap="round" stroke-linejoin="round"/>
    <path d="M 330.583984375 396.2354431152344 C 334.71453857421875 262.0727233886719 362.6372985839844 400.44244384765625 332.0738220214844 312.6375732421875" stroke-width="3.3538854122161865" fill="none" stroke="rgb(115, 0, 158)" stroke-opacity="1.0" stroke-linecap="round" stroke-linejoin="round"/>
    <path d="M 425.8882751464844 485.9742431640625 C 457.1846923828125 404.614501953125 436.4819641113281 531.2999267578125 418.4554138183594 367.61602783203125" stroke-width="4.546706199645996" fill="none" stroke="rgb(0, 0, 2)" stroke-opacity="0.43571958" stroke-linecap="round" stroke-linejoin="round"/>
    <path d="M 305.5445251464844 -3.3305084705352783 C 234.66470336914062 17.84262466430664 234.43649291992188 47.67460250854492 233.57557678222656 50.14130783081055" stroke-width="11.758158683776855" fill="none" stroke="rgb(0, 0, 15)" stroke-opacity="0.7852925" stroke-linecap="round" stroke-linejoin="round"/>
    <path d="M 403.9938659667969 196.02764892578125 C 420.8173522949219 257.3621826171875 447.7723693847656 240.7957763671875 425.9421081542969 208.0395965576172 C 415.4675598144531 213.92471313476562 488.5142517089844 260.9353942871094 445.0264587402344 215.28155517578125" stroke-width="3.4090256690979004" fill="none" stroke="rgb(255, 255, 255)" stroke-opacity="1.0" stroke-linecap="round" stroke-linejoin="round"/>
    <path d="M 118.25919342041016 182.31048583984375 C 100.02125549316406 187.70278930664062 67.29979705810547 238.69949340820312 72.06349182128906 255.89268493652344" stroke-width="9.953838348388672" fill="none" stroke="rgb(255, 0, 255)" stroke-opacity="1.0" stroke-linecap="round" stroke-linejoin="round"/>
    <path d="M 488.6961364746094 25.76141357421875 C 466.9529724121094 -4.456287384033203 420.6109924316406 101.85651397705078 458.89093017578125 25.659460067749023" stroke-width="5.289142608642578" fill="none" stroke="rgb(255, 0, 255)" stroke-opacity="1.0" stroke-linecap="round" stroke-linejoin="round"/>
    <path d="M 507.3540954589844 242.0295867919922 C 513.2269287109375 189.02650451660156 481.1257629394531 212.514404296875 491.56640625 274.1415100097656 C 423.0994567871094 206.23504638671875 458.8815002441406 190.04547119140625 499.9344482421875 280.7112121582031" stroke-width="4.295472145080566" fill="none" stroke="rgb(3, 0, 0)" stroke-opacity="0.8860483" stroke-linecap="round" stroke-linejoin="round"/>
    <path d="M 134.09046936035156 152.22161865234375 C 61.29432678222656 256.26373291015625 142.69259643554688 265.84393310546875 105.13104248046875 242.31088256835938" stroke-width="2.941436290740967" fill="none" stroke="rgb(46, 35, 0)" stroke-opacity="0.559984" stroke-linecap="round" stroke-linejoin="round"/>
    <path d="M 217.0555419921875 264.717529296875 C 228.77804565429688 273.3940734863281 237.06280517578125 279.69769287109375 211.8648681640625 299.5909729003906" stroke-width="2.0395469665527344" fill="none" stroke="rgb(255, 203, 255)" stroke-opacity="0.0" stroke-linecap="round" stroke-linejoin="round"/>
  </g>
</svg>
